<svg xmlns="http://www.w3.org/2000/svg" xml:space="preserve" width="315.094" height="153.589" viewBox="0 0 83.369 40.637"><path d="M30.344 19.31h-5.62l-2.656 3.167q-1.635 1.226-3.474 1.532 1.84 3.883 5.007 3.985 2.247 0 4.189-2.963 1.43-2.248 2.554-5.721m45.464-4.19-2.145-.204h-2.248l-.204 6.437v6.13h1.532l1.84-.102.714-6.13zM41.888 1.737q.307-.92 1.329-1.43L44.954 0l20.842 6.334.51.205 1.124-1.226q1.635-1.124 3.883-1.124 2.35 0 5.619 1.226l3.78 1.839q1.635 1.022 2.248 3.678l.409 3.371-.41 6.846-1.02 6.334-.818 4.087q-.409 1.634-1.533 2.554-1.532 1.532-4.393 1.532l-4.597-.715q-3.168-.92-4.598-2.554-1.124-1.022-1.43-2.758-.511-2.146-.511-6.13l-5.006-2.248q1.737 5.006 2.043 9.604h-6.028l-.408-4.496-2.35-8.378-3.474-1.532-6.743 21.66-.817 1.838q-.205.92-.307.613l-7.662-3.269-1.533-1.635-.102-2.145 4.495-14.201h-1.94Q33 23.907 31.16 26.87q-3.371 5.517-7.56 5.517h-.103q-4.904 0-7.969-5.721L14.303 23.6q-2.758-1.124-4.393-4.291H5.517q-.51 0-.715-.307l-.511-1.022v-.613H3.167l-.408.103H1.124l-.92-.511L0 15.938V3.576l.204-1.022.92-.613h1.635q.408 0 .715.409l.408.715h.92l.715-.409z"/></svg>