<svg xmlns="http://www.w3.org/2000/svg" xml:space="preserve" width="324.932" height="83.522" viewBox="0 0 85.972 22.099"><path d="m59.414 3.49.097.096.582 4.556.097.097.097.581.097.582v.678l-9.305.097-7.85.29H32.275q-3.587-.387-10.759 0l-10.952.68-3.877.968H.969l-.387-.29v-.097l-.291-.485-.097-.194-.097-.097L0 9.014l.194-1.842.29-1.066.485-.484h6.494v-.679l.097.097v.097h.194V5.04l3.78-.29 3.295.193.776-.194.387-.097h.097l1.551.097h3.005l.484-.097.291-.194h1.551l.194.194.581.097h2.423l1.067-.29.29-.097h.485l.097.096.388.097 1.357.097h.969l.969-.387h1.939l.096.193h.873l1.163-.29h2.617l.194-.097.387.097 5.525-.097v-.097h.485l.193.097 6.688-.194.097-.097h1.26v.097l2.326-.097 3.102-.194.485-.194zm16.09 4.653-.097-.194.097-.291.581-.775h4.071l.388.097.581.096h1.163l.388-.096h.097l.097-.097h.291v-.194l.097-.485V6.01h.097v-.194l.097-.193.096-.291V5.04l.194-1.26v-.097l.097-.097-.194-.194h-.193l-.097-.097v-.387l-.097-.485h.097l-.194-.29.097-.195.29.097v.776l.097.097.097-.097V2.52l.097-.097v-.775l.097-.291.097.097V1.26l.29-.485.098.097.194-.194v-.29l.969.097v.387l.194.194v.388l.097.194.097.678-.291.872v.485l.097.679-.097 1.744-.097.679-.29.387-.582 1.357-.291.291-.388.097-1.066.388-.388.194-.388.096-.193.194q-.097.291.097.485h.193l.388.388v1.841l-.097.097-.194.485-.581.872-2.908.582-3.586 1.26-.872.581-.291.097-.97.097-7.172 1.745-2.81.775-.098.097-1.26.097-1.841-.097-2.23-.194-3.489-.581-14.247-.776h-.679v.194l.194.194h-.194q.29 0 .194 1.938l-.097.194-.194.194h-.097v.97l-.29.193-.097-.097-.194-.097h-.194v.776h-1.26l-.194-.097-.097-.291.097-.194v-.29h-.388l-.387-.098.097-.097v-.484l-.679-.776-.097-.193.097-1.551v-.485l-.581-.484-2.714-.679-2.714-.29-6.397-.194h-2.423l-2.036-.194-3.004-.194-3.296-.291-1.357-.29-3.489-1.455-.581-.775h-.097v-.194l4.555-.97 10.759-.871h9.692l.097.097h11.534l8.335-.194 8.53-.097h.29l.097-.194v-.29l-.484-3.49-.194-.679-.097-1.453-.194-1.26-.097-1.067-.097-.872V.97l.485-.775.29-.194h.291l.679.29.194.098.097.194.193.775v1.938h.097v.097l.291.194.776.194h2.131l.292.29.193.195.291.193.873.291.581.097 1.357.097.485.097h.484l1.551.679.775.387v.097l.388.29.776 1.164.775.97.775.484.097-.097V8.82l.194-.194.097-.194.194-.387zv.29h.194zm7.463 2.229v.097l-.388-.485.291.194zM85.68 0l.194.194-.097-.097L85.487 0z"/></svg>