<svg xmlns="http://www.w3.org/2000/svg" xml:space="preserve" width="502.523" height="93.531" viewBox="0 0 132.959 24.747"><path d="M5.272 6.736h5.417v-.147h.147l4.686-.585h2.05V3.22l.146-.146h.147l.146-.293.44-.146.585.146.146.44-.146.439-.293.146v1.318l.44.44v.439h.585v.732l36.461-.44v-.732h-2.342v-.292l.292-.293h.147l2.05-.44.293-.439v-.146h.146l7.322-.44h.146l.147-.146.439-.147.293.147h2.635v1.025l-.146-.146h-1.904l.147.878.293.147.293.878v.147h3.514V5.71h1.61V4.686l-.146-.147-.146-.292.146-.147.147-.146.293.146.146.293h.146V4.1l.147-.293h.586l.146.147v.293h.146l.293-.293.147-.147V2.49h.293v.147h1.025v-.879h2.635V.293h.147V.146h.146L80.83 0v1.757h.732v-.293h2.343l.146.147v.293h1.318v.732h.147v.293h-.147v.732h5.418l.147.146v.147l.585.585 15.229.879v-.732l.146-.293.147-.146.44-.44.731-.146.586.146.44.44.146.585-.147.44v.146h12.008l2.635-.293 5.126-1.904 1.61-.439h1.465l.439.147h.146v.146l.147.293.146.293v.732l-.146.293.146.146-.586 1.318-.292 1.318-.147 7.614-.146.293v.732l-.147.147-.146.44-.147.438-.146.293h-.293v.147l-.878.146-.586-.293h-.147l-3.66-2.05-1.172-.439h-.146l-.732-.146-.586.146-1.172.586-.585.439-.147.146h-.146l-.293-.292-.146-.147v-.146l.146-1.025v-.147h-.146V13.18l-.44-.586h-2.636l-.439.293h-2.782v.586h-4.686v-.147l-.293-.293h-4.685l-.147.733v.146l-.44.586v.146l-.731.44-.147.146-.732.146h-.146v-.146H96.79l-.293.146-.44.732v.879l2.49 3.954v.146l.146.146-.146 2.636h.146v.147h-.146l-.44.439h-.146v.146l-.586.147h-3.075V24.6l-.439-.585v-.147l.147-.732v-.586l-.147-.439v-.146l-2.49-3.661-.731-.147v-.146l-1.025.586h-.147v-.147h-4.1l-.293-.146-.439-.293-.293-.293v-.44l-.146-1.024-10.104-.586h-.146l-.293-.732v-1.757h-3.661v-.147H56.229l-.732-.293-.146.147h.146l-.146.146H53.3v-.293l-4.832-.292v.292h-2.343l-.732-.146-.733-.293-.585-.293-.147-.146h-9.81v.293h-.293l-.44-.147h-.146l-.147.147h-.439l-.293-.147-.146-.146H24.6v.293h-1.903v-.293h-4.979l-.44-.147-.146.586v.147h-.292l-1.758-.293h-.146v-.147l-.732-.732H11.86v.293l-.147.146H5.418l-.146-.146v-.44h-.44l-.146-.146v-.439l-4.54.732H0V7.322l.146-.147v.147h.147l4.393.878v-.878h.146v-.147l.147.147h.293zm66.626-2.197h-.147l.147.147zM90.348 16.4l-.147-.732-.146-.146-.293.732-.146.293-.293.293-.147.146-.146.146-.44.147h-.439v-.147h.147v-.146l.146-.146.147-.147v-.586l-.147-.146-.146-.146v-.147l-.293-.146h-1.172v1.171h-1.025l-.146-.146h.146v-1.025h-.585l.146 1.171.147.586h.146l.293.44h3.66l.733-.587.146-.585zM51.104 8.786v.586l.147.439.146.146.293.293h3.514l.147-.146.293-.147.146-.439v-.732l-.146-.293v-.146h-4.1l-.147.146-.146.146zm-5.71 0v.586l.146.439.146.146.293.293h3.515v-.146h.146l.146-.147.293-.439v-.732l-.146-.293-.147-.146h-3.953l-.147.146-.146.146zm-6.15 0v.586l.146.439.146.146.44.293h3.514v-.146l.293-.147.146-.439.147-.586v-.146l-.147-.293h-.146v-.146h-4.1l-.147.146-.146.146zm-6.003 0v.586l.146.439.147.146.293.293h3.514v-.146h.146l.147-.147.293-.439v-.732l-.147-.293-.146-.146h-3.954l-.146.146-.147.146zm-5.857 0-.147.293v.293l.293.439.146.146.293.293h3.515v-.146h.146l.146-.147.293-.439v-.732l-.146-.293h-.147v-.146h-3.953l-.293.146-.146.146zm-6.15 0-.147.293v.293l.146.439.293.146.293.293h3.515v-.146h.146l.146-.147.147-.439.146-.586v-.146l-.146-.293h-.147v-.146h-3.953l-.293.146-.147.146zm87.127-3.368.146-.293v-.293l-.146-.293h-.732v.147l-.147.586-.146.146z"/></svg>