<?xml version="1.0" encoding="UTF-8" standalone="no"?>
<svg
   width="81.249054mm"
   height="89.393387mm"
   viewBox="0 0 81.249054 89.393387"
   version="1.1"
   xml:space="preserve"
   xmlns="http://www.w3.org/2000/svg"
   xmlns:svg="http://www.w3.org/2000/svg"><path
     style="fill:#000000"
     d="m 11.898308,88.869313 c -1.216988,-0.42482 -1.9673048,-0.9336 -3.2148158,-2.1799 -1.374421,-1.37309 -1.713642,-1.90524 -2.182812,-3.42423 -0.54772,-1.77331 -0.555497,-2.14966 -0.555497,-26.8809 v -25.0824 l -1.139698,-0.66791 c -1.567934,-0.91887 -3.268729,-2.83412 -4.10952705,-4.6277 -0.624672,-1.33254 -0.702955,-1.81424 -0.69550499739,-4.27967 0.006899997,-2.27133 0.12014099739,-3.05889 0.62095799739,-4.31722 0.85913905,-2.15862 3.27052405,-4.68089 5.54506205,-5.80005 1.649452,-0.81159 1.922738,-0.86294 4.5922648,-0.86294 h 2.838443 l 0.308624,-1.32292 c 1.024014,-4.38944 4.436461,-7.97788 8.670897,-9.11810004 1.83042,-0.49288 5.04683,-0.37525 6.911009,0.25275 2.663134,0.89714004 4.398285,2.17059004 5.997681,4.40177004 0.724177,1.01023 0.822102,1.06353 1.29809,0.70649 3.009183,-2.25715 7.282963,-2.66496 10.843853,-1.03474 2.83932,1.29989 5.32332,4.42147 5.80982,7.30106 l 0.16864,0.99816 2.16501,0.12195 c 3.63862,0.20497 6.14407,1.86057 7.74263,5.11632 0.6974,1.42041 0.77237,1.83044 0.77237,4.22449 0,2.45825 -0.0628,2.77902 -0.86246,4.4033 -0.8044,1.63397 -1.97843,2.96394 -3.47698,3.93882 -0.54593,0.35515 -0.58873,0.48827 -0.31905,0.99219 0.25279,0.47233 0.54655,0.58265 1.55894,0.58547 1.7634,0.005 5.70389,0.8665 7.71476,1.68682 4.72055,1.92571 8.83895,6.05655 10.84674,10.87949 2.97919,7.15632 1.4442,15.66331 -3.89181,21.56859 -2.58796,2.86406 -5.75325,4.70491 -11.13244,6.47438 -2.04022,0.67112 -3.30507,1.25321 -3.94834,1.81704 -1.3232,1.1598 -2.34306,3.55714 -2.50209,5.88157 -0.24156,3.53059 -2.08339,6.315 -5.18859,7.84389 l -1.75167,0.86245 -18.923503,0.0479 c -18.589805,0.0471 -18.951499,0.0382 -20.511004,-0.50625 z m 27.913537,-14.22605 c 0.51644,-0.51644 0.52917,-0.88194 0.52917,-15.19854 v -14.66937 l -0.58804,-0.41188 c -0.75944,-0.53193 -1.49667,-0.52281 -2.10311,0.026 -0.45773,0.41424 -0.48385,1.23467 -0.48385,15.19853 v 14.76066 l 0.58804,0.41188 c 0.79144,0.55435 1.4221,0.5184 2.05779,-0.11729 z m 11.19604,0.22497 c 0.31786,-0.1673 0.66539,-0.43519 0.77231,-0.59531 0.10691,-0.16011 0.19621,-6.80304 0.19843,-14.76205 l 0.004,-14.47094 -0.58804,-0.41187 c -0.79145,-0.55435 -1.42211,-0.51841 -2.0578,0.11728 -0.51622,0.51623 -0.52916,0.88195 -0.52916,14.94896 0,14.06702 0.0129,14.43274 0.52916,14.94896 0.61009,0.61009 0.87231,0.64539 1.67104,0.22497 z m -36.478747,-0.54842 c 0.351083,-0.50125 0.411878,-1.78781 0.411878,-8.71625 0,-8.09953 -0.0021,-8.12966 -0.588038,-8.54009 -0.759439,-0.53193 -1.496668,-0.52281 -2.103108,0.026 -0.448938,0.40628 -0.483854,1.03007 -0.483854,8.64427 0,7.26483 0.05024,8.2619 0.437882,8.69024 0.611627,0.67584 1.816709,0.62184 2.32524,-0.10418 z m 12.374837,-0.28842 c 0.109874,-0.17279 0.201594,-6.0198 0.203822,-12.99334 0.0037,-11.43036 -0.03908,-12.72682 -0.433831,-13.16302 -0.57467,-0.635 -1.547602,-0.61503 -2.207951,0.0453 -0.514445,0.51445 -0.529166,0.88195 -0.529166,13.20997 v 12.68079 l 0.6799,0.53481 c 0.551914,0.43414 0.812382,0.48444 1.383678,0.26724 0.387077,-0.14717 0.793674,-0.40896 0.903548,-0.58176 z m 35.36047,-8.2774 c 1.69383,-0.52347 3.80769,-1.35371 4.69747,-1.84497 5.91619,-3.26643 8.47976,-10.57504 5.78047,-16.47982 -0.35631,-0.77945 -0.57071,-1.54198 -0.47644,-1.69452 0.0966,-0.15624 0.0451,-0.1993 -0.11779,-0.0986 -0.15906,0.0983 -0.39937,-0.0181 -0.53402,-0.25872 -0.13464,-0.2406 -0.88493,-1.08417 -1.6673,-1.8746 -2.44761,-2.47282 -5.92759,-3.77702 -10.0928,-3.78249 l -1.52135,-0.002 v 13.49375 c 0,12.22855 0.0399,13.49375 0.42603,13.49375 0.23432,0 1.8119,-0.4283 3.50573,-0.95177 z M 16.742202,47.427423 c 1.718462,-1.22365 1.762066,-1.45972 1.851531,-10.02426 l 0.08084,-7.73906 1.506657,-0.001 c 1.854903,-0.002 2.934696,-0.29207 6.084881,-1.63564 1.353856,-0.57743 3.082836,-1.114 3.842176,-1.19237 1.827076,-0.18857 4.154298,0.42627 6.681415,1.76518 2.763183,1.46399 3.771353,1.44783 6.438473,-0.10321 3.352,-1.94932 4.63203,-2.11716 8.00948,-1.05023 4.16276,1.31502 6.94533,0.48194 8.50521,-2.54639 0.64268,-1.24769 0.73033,-1.67155 0.6188,-2.99256 -0.27153,-3.21645 -2.90181,-5.38445 -5.8594,-4.8296 -0.506,0.0949 -1.45953,0.58442 -2.11895,1.08778 -1.31303,1.00225 -2.33703,1.16034 -3.09178,0.4773 -0.58765,-0.53181 -0.61381,-1.30313 -0.087,-2.56402 1.1969,-2.86459 -0.57783,-6.68909 -3.71165,-7.99848 -1.36216,-0.56915 -3.87685,-0.48128 -5.2943,0.185 -1.28689,0.60491 -3.03259,2.42441 -3.03259,3.16078 0,0.82605 -0.910885,1.65391 -1.792199,1.62885 -1.480576,-0.0421 -1.911946,-0.46055 -1.91218,-1.85491 -2.49e-4,-1.49055 -1.147672,-4.07294 -2.281664,-5.13511 -0.418459,-0.39195 -1.458184,-1.03159 -2.310499,-1.42142 -1.364548,-0.6241 -1.791226,-0.69434 -3.571874,-0.58795 -3.180018,0.18998 -5.501133,1.66229 -6.797327,4.31162 -0.752512,1.53808 -0.897355,3.10771 -0.527741,5.71903 0.187401,1.32399 0.148629,1.54976 -0.352132,2.05052 -0.788393,0.7884 -1.586333,0.70435 -3.340293,-0.35183 -1.806961,-1.0881 -3.491425,-1.40296 -5.1532748,-0.96326 -3.931338,1.04017 -6.130144,4.95418 -4.976554,8.85857 0.479979,1.62452 2.65022,3.69827 4.318512,4.12652 l 1.312849,0.337 0.07894,8.36692 c 0.04341,4.60181 0.1490898,8.60505 0.2348338,8.89609 0.214747,0.72892 1.041378,1.74586 1.888458,2.32321 1.013308,0.69066 3.593911,0.52655 4.758333,-0.30259 z" /></svg>
