<?xml version="1.0" encoding="UTF-8" standalone="no"?>
<!-- Created with Inkscape (http://www.inkscape.org/) -->

<svg
   width="148.95267mm"
   height="195.272mm"
   viewBox="0 0 148.95267 195.272"
   version="1.1"
   id="svg1"
   xml:space="preserve"
   xmlns="http://www.w3.org/2000/svg"
   xmlns:svg="http://www.w3.org/2000/svg"><defs
     id="defs1" /><g
     id="layer1"
     transform="translate(-10.382829,-95.324224)"><path
       id="path188"
       d="m 80.165649,95.324414 0.517282,0.10387 -6.660059,0.482141 -0.145211,0.186035 c -3.682651,1.011996 -6.967371,2.98282 -9.854696,5.91282 l -2.053104,2.43499 -3.846277,0.13694 -6.352067,1.62006 -0.164848,0.0202 -5.71593,4.0597 -0.726054,0.93018 -1.43092,2.02313 -1.934249,4.77284 -0.01964,-0.16588 -1.044898,5.16712 0.01499,2.85357 0.05994,0.4961 1.413867,6.04097 0.03979,0.33125 -1.761649,2.06396 -0.124024,0.35088 c -2.267992,3.414 -3.070418,7.82384 -2.407088,13.22917 0.406,3.30996 1.364831,6.10318 2.876827,8.37985 l -0.02015,-0.16485 0.185002,0.14469 -0.164848,0.0202 -3.410645,-0.42013 0.184485,0.14521 c -5.981976,-0.38534 -10.339631,0.59784 -13.07362,2.94917 l -5.845122,5.75572 -0.870748,1.11518 -1.205094,2.50011 -0.874365,2.45773 -3.865914,19.11718 -0.646989,2.9347 -0.773079,12.8602 -0.08372,0.68316 c 0.305996,11.60729 3.168426,20.3257 8.587073,26.15499 5.33531,6.06333 11.10321,9.72156 17.303853,10.97556 l -0.186035,-0.14469 5.643066,0.81907 4.507735,-0.21808 -0.449585,16.85117 -2.894397,-0.31626 c -2.798654,0.008 -4.918492,1.89189 -6.359818,5.65185 l -0.146244,0.18604 c -0.776,1.88666 -0.946997,4.59512 -0.513664,8.12508 -0.503333,3.19733 6.126464,6.58228 19.889742,10.15494 13.185948,3.42 26.512711,5.25472 39.979988,5.50406 l 0.496094,-0.06 56.531948,-8.78913 0.39429,-0.8878 0.53175,-6.61613 -0.0202,-0.16485 -1.1038,-6.2482 -2.28979,-2.2381 c -0.93511,-0.54731 -2.02578,-0.76784 -3.10007,-0.62684 l -2.46186,0.47026 0.16795,-1.36426 -0.0331,-50.88888 c -0.156,-29.54122 -0.83787,-45.58177 -2.04587,-48.1211 l -0.0202,-0.16588 -1.91616,-3.29127 3.45303,0.22841 5.66787,-1.18029 c 2.41465,-1.30533 4.23127,-2.92832 5.44927,-4.86895 2.00466,-2.82133 3.25299,-6.3335 3.74499,-10.53683 l 0.14469,-0.18603 -0.46095,-6.49418 -0.061,-0.49609 -1.45779,-5.02812 -1.91615,-3.29179 -4.43487,-4.66173 -0.18604,-0.14521 -0.447,-3.64009 -0.0202,-0.16588 c -1.14467,-5.68133 -3.64986,-10.58063 -7.51582,-14.6973 l -0.18501,-0.14572 -4.64519,-3.62821 -0.53692,-0.26975 -5.57899,-1.66708 -0.35088,-0.12505 -11.72486,0.26406 -0.31006,0.20619 -5.44412,2.17971 c -2.22663,-2.6373 -4.38711,-4.275613 -6.48177,-4.914943 l -0.53744,-0.269751 -4.93975,-0.568441 -1.48983,0.182418 -2.462384,0.469739 -1.282609,0.494027 -1.593184,0.700215 -1.780253,0.553972 -0.164848,0.01964 -1.299663,-1.014925 -0.187068,-0.145728 c -3.081803,-2.308035 -6.97394,-3.453299 -11.675257,-3.435966 z m -0.05271,5.044656 c 3.584655,0.007 6.539621,0.82049 8.865609,2.43912 l 3.486092,3.77032 0.436149,-0.55707 1.842782,-1.40199 2.442228,-0.6351 2.213819,-1.11208 2.461862,-0.47025 3.92845,0.52503 c 1.99663,0.76267 4.08767,2.74529 6.273,5.94796 l 1.04955,1.72031 c 1.8533,-2.244 4.45594,-3.85127 7.80727,-4.82193 l 9.88415,-0.20619 4.71186,1.43712 3.71502,2.90318 c 3.21863,3.412 5.28474,7.46921 6.19807,12.17187 l 0.48162,6.65903 2.41743,0.54311 3.13572,3.64578 1.27693,2.19521 1.16995,4.05453 0.34003,5.50148 c -0.366,3.40396 -1.41996,6.22028 -3.16259,8.44961 l -3.3352,2.93005 -3.59978,0.77722 c -1.44667,0.0653 -3.11358,-0.28972 -5.00021,-1.06505 -1.55667,-0.81667 -2.692,-1.85323 -3.406,-3.10989 l -0.92604,-2.06913 -1.26297,0.65888 c -2.18133,1.38666 -4.38793,1.65717 -6.61923,0.81184 -1.846,-0.44467 -3.26958,-1.55715 -4.27158,-3.33778 l -1.19321,-2.87683 -2.14922,-1.08004 -0.30954,0.20671 -3.58531,3.63027 -9.10384,2.46186 -4.86017,0.093 c -2.714647,-0.22667 -5.29,-1.14209 -7.726659,-2.74609 l -2.436027,-2.0531 -1.428336,0.68006 0.02015,0.16537 0.136943,3.84679 c -0.13,2.59066 -1.00407,5.04911 -2.622062,7.37578 l -2.672705,2.84737 2.480985,9.26972 0.03204,4.36304 c -0.541333,1.9693 -1.716341,3.34488 -3.524333,4.12688 -1.807992,0.782 -3.599907,0.77852 -5.375899,-0.0109 l -3.343982,-2.61276 -2.828251,-2.50837 -0.762745,-0.74569 -1.09709,0.63769 -3.33313,1.58543 -4.882906,1.27176 c -3.309322,0.406 -6.387991,-0.50407 -9.236646,-2.73007 l -2.06344,-1.76217 -1.359607,-2.85564 -1.067118,-3.22822 0.611849,-5.95416 0.749825,-2.10685 c -2.025325,-0.98333 -3.59366,-2.35851 -4.705656,-4.12585 -1.099996,-1.65596 -1.798663,-3.6979 -2.095996,-6.1252 -0.500663,-4.08133 0.03719,-7.45022 1.613855,-10.10688 l 3.876249,-4.00389 -1.504301,-2.67012 -1.1467,-5.23482 -0.01447,-2.85306 0.752409,-3.45198 1.413867,-3.53209 1.43092,-2.02313 c 1.601996,-1.54 3.038272,-2.61219 4.308264,-3.21686 l 5.068942,-1.12603 3.534668,0.0698 1.963187,0.93431 3.40186,-5.1201 c 2.182658,-2.28396 4.681158,-3.8224 7.49515,-4.61574 z m 44.321841,61.86185 c 0.42928,0.0126 0.61314,0.48635 0.84233,0.82476 1.21463,1.47903 2.17008,3.28177 3.85868,4.28914 0.29877,0.29434 0.87244,0.19432 1.05885,0.55294 0.647,4.45607 0.7887,8.92029 0.94413,13.41159 0.69727,26.37825 0.43128,52.76846 0.52038,79.15279 -3.09509,0.835 -6.24076,1.38237 -9.41597,1.99626 -1.4785,-33.3847 -2.95688,-66.76993 -4.43538,-100.15461 1.56072,-0.004 3.12138,-0.0124 4.68136,-0.0641 0.58202,0.003 1.1646,-0.0147 1.74615,0.016 0.0722,-0.0188 0.13815,-0.0266 0.19947,-0.0248 z m -26.245941,10.3725 c 0.06133,-0.002 0.127776,0.006 0.199987,0.0243 0.58155,-0.0307 1.163614,-0.0128 1.745634,-0.016 1.55999,0.0517 3.12114,0.0604 4.68188,0.0646 -0.25859,33.38473 -1.78005,50.60388 -2.03863,84.23259 -3.175208,-0.61389 -6.467124,-0.91477 -9.562211,-1.74977 -0.39887,-26.38434 -1.208004,-37.09949 -1.730644,-63.47778 0.15543,-4.49129 0.297646,-8.955 0.944645,-13.41106 0.18641,-0.35862 0.760081,-0.2586 1.05885,-0.55294 1.688599,-1.00739 2.644051,-2.81012 3.85868,-4.28915 0.229188,-0.3384 0.412526,-0.81219 0.841809,-0.82475 z m -50.244995,10.49083 -0.886251,36.55694 -11.155908,-4.67671 0.148828,-1.53014 -0.06098,-0.49713 0.900203,-14.55519 -0.02015,-0.16588 c 0.542,-8.35196 1.332035,-13.31963 2.369365,-14.90296 v 0.001 l 0.681612,0.0832 -0.165882,0.0196 4.239018,0.32039 z m 21.009053,0.10697 -2.060339,72.13978 -3.863847,-1.37252 -2.206067,-2.92024 1.157035,-65.8151 c 2.935992,0.2 5.260557,-0.47725 6.973218,-2.03192 z" /></g></svg>
