<?xml version="1.0" encoding="UTF-8" standalone="no"?>
<svg
   width="69.993858mm"
   height="90.855759mm"
   viewBox="0 0 69.993858 90.855759"
   version="1.1"><path
     style="fill:#000000"
     d="m 16.530127,90.855756 c -15.681798,1e-5 -13.427372,-9.83781 -13.427372,-9.83781 l 0.476129,-3.50528 c 2.778791,-20.45753 3.625832,-52.66395 1.410702,-53.63805 -1.497821,-0.65867 -3.7328,-3.15343 -4.39201,-4.90251 L 0,17.386556 l 0.110799,-2.24896 0.110799,-2.24896 0.724884,-1.41293 C 1.956826,9.5063655 3.466415,7.9603955 5.265572,7.0525255 l 1.532064,-0.77309 2.721031,-0.0447 2.721031,-0.0447 0.526449,-0.66927 c 0.289547,-0.3681 1.18413,-0.99104 1.987963,-1.38432 l 1.461515,-0.71505 1.94657,0.14722 1.946569,0.14722 0.614609,-0.65423 c 3.80729,-4.05267 12.49973,-4.08834 16.76987,-0.0688 l 0.7977,0.75088 1.71584,-0.54384 c 3.92851,-1.24516 8.34531,0.52292 9.74446,3.90078 l 0.3408,0.82274 1.4686,0.15158 c 7.5121,0.77532 9.41836,9.2206505 3.08717,13.6771705 l -0.56383,0.39688 -0.14123,2.40116 -0.14122,2.40116 3.61784,-0.0199 3.61784,-0.0199 1.55857,0.51094 c 5.31373,1.742 7.40112,6.18899 7.39807,15.76093 l -0.002,4.89479 -0.55292,2.51355 c -1.90721,8.67003 -6.16806,13.74653 -12.90007,15.36954 -0.72761,0.17542 -1.35815,0.34652 -1.4012,0.38023 -0.10627,0.0832 0.93487,8.32742 1.48561,11.76371 0.27881,2.15343 0.57477,4.31343 0.53398,6.48261 -0.0261,1.38866 -2.0146,6.2679 -12.01059,6.26791 z m 27.188416,-7.68715 -1.55314,-0.33719 c -10.00602,-2.17235 -20.766749,2.35713 -29.375734,-3.55638 -1.305615,-0.69873 -1.475396,-4.25612 -1.294087,-6.11287 0.51138,-5.23695 0.555492,-5.7983 0.966788,-12.30312 0.220829,-3.4925 0.473214,-11.30007 0.560856,-17.35015 l 0.159349,-11.00014 1.08332,0.13564 c 1.726612,0.21618 -0.290155,0.67819 -0.131733,-1.04784 l 0.128539,-1.40045 -0.86989,-1.13926 -0.869891,-1.13926 -1.675313,-0.15645 c -0.921422,-0.086 -1.202652,-0.22439 -1.419141,-0.30745 l -0.393614,-0.15101 -0.0222,10.2555 c -0.03432,15.85615 -0.850976,28.62005 -2.532589,39.5833 l -0.561888,3.66322 0.437234,0.91689 c 1.040646,2.18226 8.603328,4.64037 18.566114,4.56976 6.93116,-0.0491 11.78379,-0.63599 18.79702,-3.12271 z m 15.01642,-21.87262 c 3.22318,-1.52516 6.20032,-4.99804 7.54693,-9.92868 0.77507,-4.33418 1.84261,-12.8615 -1.45294,-16.2925 -0.3462,-0.43896 -1.34436,-0.1184 -1.15641,0.37138 3.34834,8.72566 -0.70079,23.03675 -7.19937,25.44516 -0.9095,0.33707 -1.65364,0.7078 -1.65364,0.82385 0,0.31554 3.91543,-0.41921 3.91543,-0.41921 z m -2.57471,-2.64347 c 3.95437,-2.00383 5.95555,-6.4899 6.25142,-14.01388 0.21509,-5.46954 -0.43348,-8.97243 -1.85688,-10.02889 l -0.74701,-0.55444 h -2.16341 c -1.68275,0 -2.35445,0.11554 -3.0233,0.52007 l -0.8599,0.52006 0.003,4.90389 c 0.004,7.67565 0.5774,19.32369 0.95136,19.32369 0.0671,0 0.71747,-0.30173 1.4452,-0.6705 z M 21.028958,43.425466 c 0.346599,-0.15792 0.844245,-0.64951 1.105881,-1.09243 0.513495,-0.86928 0.535201,-1.34163 0.283122,-6.16107 -0.09134,-1.74625 -0.0714,-4.9014 0.0443,-7.01145 l 0.210371,-3.83646 1.613158,-0.17797 c 2.635153,-0.29072 5.165943,-1.72766 6.235483,-3.54038 0.60989,-1.03369 0.99911,-1.13105 1.64934,-0.41255 2.98484,3.29821 13.38848,2.27846 13.38848,-1.31232 0,-0.95918 0.61784,-1.03171 1.52629,-0.17918 l 0.63435,0.59532 h 2.44658 2.44659 l 1.2812,-0.79375 c 4.37358,-2.7096 2.50514,-9.39271 -2.62598,-9.39271 h -0.92255 l -0.17416,0.92834 c -0.33469,1.78407 -1.70122,2.80702 -2.48622,1.86115 l -0.31995,-0.38551 0.41984,-0.5994 c 2.50925,-3.5824605 -2.97349,-8.5598305 -7.39427,-6.7127105 l -0.91794,0.38355 0.30388,0.66695 c 0.2347,0.5151 0.22742,0.7591 -0.032,1.07167 -0.5459,0.65777 -0.99158,0.47424 -1.83888,-0.75727 -2.09149,-3.03988 -4.98771,-4.53136 -8.75096,-4.50653 -4.36367,0.0288 -6.378455,1.23117 -9.536558,5.69118 -0.927858,1.31036 -1.943665,0.13298 -1.172271,-1.35873 l 0.403669,-0.78061 -1.131274,0.006 c -1.536765,0.008 -3.227122,0.82638 -3.934132,1.90493 l -0.58479,0.89211 -3.068675,-0.0124 -3.068676,-0.0124 -1.083384,0.57972 C -0.724408,12.557496 1.613855,22.204906 9.376524,22.989096 l 1.389849,0.14041 0.264583,-0.62246 c 0.24947,-0.58691 1.424357,-1.04257 1.48186,-0.57472 0.01466,0.11926 0.07747,0.81125 0.139584,1.53776 0.119637,1.39934 0.757324,2.57286 2.365142,4.35252 l 0.919581,1.01787 0.08223,6.18707 0.08223,6.18708 0.496072,0.7571 c 0.991245,1.51283 2.915926,2.1443 4.43129,1.45385 z m 23.604095,-10.18561 c 1.45521,-0.20874 3.12779,-0.45097 3.71686,-0.53828 l 1.07103,-0.15875 -0.0127,-4.92396 -0.0127,-4.92396 -1.17845,-0.2022 -1.17845,-0.20219 -0.54409,0.51114 c -3.05507,2.87009 -8.97091,3.59537 -13.19238,1.61738 l -1.62178,-0.7599 -0.79972,0.78902 c -1.10169,1.08695 -2.79099,2.04431 -4.58265,2.59708 l -1.50873,0.46548 -0.16751,1.68479 c -0.250461,2.51905 -0.256909,4.51118 -0.0141,4.36112 0.11839,-0.0732 0.803,-0.0264 1.52136,0.10391 1.86941,0.33913 15.34249,0.0328 18.50402,-0.42068 z"/></svg>
