<svg xmlns="http://www.w3.org/2000/svg" xml:space="preserve" width="469.109" height="573.738" viewBox="0 0 124.118 151.802"><path d="M46.761 151.359c-18.368-3.151-28.48-22.193-20.727-39.029 2.918-6.335 5.95-9.831 11.158-12.863 5.372-3.129 11.087-4.387 16.724-3.682 4.583.572 5.01.848 6.824 4.404 2.665 5.224 11.078 13.829 15.445 15.798 4.347 1.96 5.164 4.504 3.806 11.85-2.977 16.105-17.314 26.252-33.23 23.522m37.265-35.266c-9.843-3.12-17.143-9.508-21.335-18.666-1.92-4.193-2.338-6.473-2.301-12.558.07-11.723 4.859-21.242 13.596-27.029 21.78-14.427 50.204.853 50.132 26.95-.031 11.836-4.62 20.725-13.891 26.916-8.05 5.376-17.888 7.023-26.2 4.387m-9.646-41.22c3.805-8.047-2.408-12.2-6.492-4.195-2.137 4.19-2.14 8.433-.237 8.433.836 0 5.127-.852 6.729-4.239M18.924 105.13c-5.315-5.314-7.358-11.425-6.789-20.3.715-11.132 5.841-18.504 16.168-23.251 8.918-4.1 20.957-2.036 29.379 5.036l3.042 2.554-1.6 3.673c-1.132 2.603-1.598 6.1-1.597 11.999v8.325l-6.953.036c-9.029.047-15.364 2.8-21.418 9.309-2.399 2.58-4.362 5.12-4.362 5.647q0 2.844-5.87-3.028zm43.495-49.926c-3.407-5.372-7.682-16.402-9.18-23.686-1.483-7.212-.502-28.774 1.396-30.685 1.094-1.1 1.521-1.107 2.804-.042 1.275 1.058 1.412 2.342.87 8.135-1.594 17-.295 26.484 5.64 41.207 1.699 4.213 3.088 8.05 3.088 8.527 0 2.094-2.09.53-4.618-3.456zm-22.038.718c-9.641-.48-11.154-.808-16.964-3.67-4.526-2.231-8.853-5.537-14.898-11.385C3.834 36.334 0 32.332 0 31.973c0-1.25 16.53-2.93 22.307-2.27 13.718 1.573 26.649 9.64 32.25 20.123 1.957 3.66 1.41 5.24-1.06 3.065-4.094-3.606-18.734-9.345-22.482-8.813-1.5.213-.404.913 3.881 2.481 6.637 2.43 15.095 6.554 17.907 8.732l1.837 1.422-1.837-.131c-1.01-.073-6.6-.37-12.422-.66zm28.001-4.052c-.812-4.328.968-12.895 4.03-19.4 2.94-6.243 8.272-12.144 14.608-16.162 4.886-3.098 18.187-8.442 19.977-8.026 1.67.388-2.265 15.678-5.687 22.095-3.499 6.563-13.33 16.186-19.838 19.416-2.92 1.45-5.54 2.405-5.823 2.122-.973-.973 4.7-12.144 8.61-16.953 2.157-2.652 3.544-4.821 3.084-4.821-1.857 0-9.987 10.254-13.712 17.296-2.182 4.124-4.126 7.498-4.32 7.498-.195 0-.613-1.379-.929-3.065"/></svg>