<?xml version="1.0" encoding="UTF-8" standalone="no"?>
<svg
   width="65.868103mm"
   height="94.976387mm"
   viewBox="0 0 65.868103 94.976387"
   version="1.1"
   xml:space="preserve"
   xmlns="http://www.w3.org/2000/svg"
   xmlns:svg="http://www.w3.org/2000/svg"><path
     style="fill:#000000"
     d="m 28.070805,94.522395 c -0.135464,-0.25467 -0.330402,-1.3662 -0.433196,-2.47008 l -0.186898,-2.00705 -1.626633,-0.80282 c -5.702369,-2.81437 -9.431842,-9.01979 -9.431842,-15.69352 0,-4.57413 1.237352,-7.58282 4.310946,-10.48229 1.237922,-1.16779 2.51612,-2.0618 3.862818,-2.70176 1.821501,-0.86558 2.268289,-0.96595 4.703355,-1.05654 l 2.690661,-0.10011 0.20542,-2.28588 c 0.36873,-4.10334 0.23227,-15.47513 -0.25445,-21.2036 -0.58063,-6.83373 -2.242635,-18.82666 -2.667988,-19.25201 -0.06875,-0.0688 -0.202766,0.21646 -0.297803,0.63381 -0.980067,4.30399 -2.389436,7.94913 -4.743413,12.2682 -0.832772,1.52797 -1.643021,2.93603 -1.800554,3.12902 -0.282256,0.34579 0.120799,0.82539 0.702301,0.83568 0.12595,0.002 1.033638,0.53897 2.017082,1.19277 3.706179,2.46386 5.559125,5.87126 5.559125,10.22273 0,8.49082 -8.501434,16.89897 -17.086458,16.89897 -0.988094,0 -2.48658,-0.19362 -3.329969,-0.43026 l -1.5334351,-0.43026 -1.607858,1.48859 c -0.884322,0.81873 -1.710397,1.4886 -1.835721,1.4886 -1.189497,0 -1.365934,-1.06875 -0.52757,-3.19569 0.295526,-0.74976 0.466217,-1.58723 0.379312,-1.86104 -0.08691,-0.27381 -0.742626,-1.18283 -1.457158,-2.02004 -0.714531,-0.8372 -1.602199,-2.07887 -1.972593,-2.75925 -1.61639098,-2.96915 -2.16577898,-8.00941 -1.30144598,-11.93988 0.95483298,-4.34201 4.01849698,-8.76982 7.34403098,-10.61408 2.126737,-1.17944 3.4576721,-1.51009 6.0554091,-1.50438 1.888514,0.004 2.357578,0.11178 4.106262,0.94223 1.08581,0.51565 2.007389,0.93754 2.047953,0.93754 0.229899,0 2.417638,-3.7168 3.659793,-6.2177 4.724157,-9.51144 4.783246,-16.83553 0.170635,-21.150089 L 22.549394,3.220901 24.174288,1.610451 C 25.067979,0.724703 25.923093,0 26.074541,0 c 0.151447,0 1.279338,2.053828 2.506423,4.564063 1.953112,3.995472 2.344562,4.620712 3.142122,5.018792 l 0.91105,0.45472 0.97671,-2.0779 c 1.17629,-2.502506 2.52137,-3.913944 4.7753,-5.010882 4.6211,-2.248988 8.24171,-2.155811 14.70957,0.378553 4.59701,1.801292 6.61897,2.273963 9.92812,2.320884 1.56368,0.02217 2.8436,0.05963 2.84427,0.08323 6.7e-4,0.02361 -0.74293,0.574874 -1.65244,1.225038 -0.9095,0.650167 -3.05814,2.506397 -4.77476,4.124957 -3.71848,3.50608 -5.39665,4.80851 -7.33836,5.69533 -4.23193,1.93282 -9.33381,1.98294 -13.03036,0.12802 -1.85497,-0.93082 -3.82569,-2.54671 -4.9315,-4.04359 -0.66324,-0.89779 -1.2943,-1.46347 -1.72434,-1.54567 -0.37305,-0.0713 -0.67828,-0.0502 -0.67828,0.047 0,0.0972 0.62508,1.15021 1.38906,2.34008 0.76399,1.18986 2.364,3.68345 3.55558,5.54131 1.19158,1.85786 3.3054,5.34245 4.69739,7.74354 1.39198,2.4011 2.6264,4.51797 2.74316,4.70416 0.16748,0.26708 0.46042,0.22903 1.38803,-0.18028 7.14059,-3.15084 14.94415,1.75468 17.21524,10.82196 0.21414,0.85494 0.35451,2.7103 0.34029,4.49791 -0.0373,4.68874 -1.05545,7.75645 -3.53631,10.65491 l -1.3068,1.52678 0.35839,0.98676 c 0.19711,0.54272 0.55089,1.43596 0.78617,1.98499 0.32011,0.74697 0.35732,1.1299 0.14782,1.52135 -0.51254,0.95769 -1.4768,0.58397 -3.60641,-1.39773 l -0.83152,-0.77377 -1.88355,0.4578 c -4.04219,0.98245 -8.3672,0.0634 -12.43843,-2.64316 -2.10407,-1.39878 -3.63439,-3.03944 -5.1155,-5.48436 l -0.99219,-1.63782 -10e-4,1.30473 c -7.5e-4,0.7176 -0.0746,2.43582 -0.16406,3.81827 l -0.16269,2.51354 1.95,0.46095 c 5.80994,1.37338 9.73653,5.47171 10.57424,11.03671 1.27534,8.47235 -4.89907,17.93662 -12.593,19.30283 -0.87312,0.15504 -1.86957,0.31304 -2.21432,0.35112 -0.50194,0.0554 -0.76551,0.41245 -1.32292,1.79196 -0.38285,0.94751 -0.792413,1.87025 -0.910141,2.05053 -0.317154,0.48566 -1.45016,0.39726 -1.73342,-0.13524 z m -3.741069,-23.20867 c 0,-0.4069 -0.194271,-0.69598 -0.541864,-0.8063 -1.076669,-0.34172 -1.827873,1.14325 -0.854031,1.68824 0.647268,0.36223 1.395895,-0.11076 1.395895,-0.88194 z m 1.390918,-1.86819 c 0.541525,-0.36798 1.164476,-1.01691 1.384336,-1.44207 1.460185,-2.82369 -1.299809,-5.37853 -4.01918,-3.72043 -1.800145,1.09761 -2.258377,3.69286 -0.893094,5.05815 0.987358,0.98735 2.176707,1.02253 3.527938,0.10435 z m 1.99937,0.0729 c 0.12812,-0.6722 -0.742289,-0.92039 -1.171116,-0.33394 -0.192576,0.26337 -0.283186,0.58718 -0.201356,0.71958 0.247409,0.40032 1.277856,0.11078 1.372472,-0.38564 z m 2.315622,-2.607 c 0.0985,-0.15941 -0.08069,-0.54572 -0.398253,-0.85847 L 29.06,65.484345 l -0.519887,0.63307 c -0.484857,0.59041 -0.490441,0.6656 -0.08287,1.11596 0.446515,0.49339 1.165088,0.34683 1.578403,-0.32194 z m 9.99474,-22.74024 c 0.78743,-0.61939 1.3548,-2.36833 1.10128,-3.39478 -0.21598,-0.8745 -1.41004,-2.14728 -2.01447,-2.14728 -0.79252,0 -2.06101,1.30043 -2.36321,2.4227 -0.73881,2.74376 1.29376,4.67891 3.2764,3.11936 z M 7.7654059,41.989525 c 0.312783,-0.22871 0.440406,-0.60508 0.381299,-1.12448 -0.07941,-0.69777 -0.186536,-0.7807 -1.008514,-0.7807 -0.77247,0 -0.962074,0.12058 -1.184604,0.75333 -0.22034,0.62654 -0.179499,0.81581 0.242636,1.12448 0.630033,0.46069 0.968504,0.4666 1.569183,0.0274 z m 5.1766981,-1.89247 c 0.456504,-0.55006 0.231534,-1.32212 -0.412182,-1.41454 -0.70874,-0.10176 -1.256791,0.56279 -1.036507,1.25684 0.199563,0.62877 0.986631,0.71444 1.448689,0.1577 z m 23.945032,-4.00567 c 0.78385,-0.78385 2.19256,-1.79048 3.25294,-2.32448 l 1.87035,-0.94189 -1.99603,-3.77867 c -2.07943,-3.93654 -7.22787,-12.4825 -7.93499,-13.17138 -0.47851,-0.46617 -0.47547,-0.4331 0.56646,6.16401 0.60167,3.80955 1.14566,8.86467 1.62684,15.11761 l 0.18192,2.36392 0.52496,-1.02327 c 0.28873,-0.56279 1.14713,-1.64543 1.90755,-2.40585 z m -25.926682,2.46322 c 2.203536,-1.24804 3.039441,-4.03392 1.559642,-5.19793 -0.884713,-0.69592 -1.746476,-0.69347 -3.1977601,0.009 -2.30592,1.11628 -3.2866,4.04175 -1.75796,5.24418 0.901051,0.70876 2.080941,0.68954 3.3960781,-0.0553 z m 28.706072,-24.41998 c -0.79539,-0.81168 -1.80335,-1.71642 -2.23992,-2.01052 -0.43656,-0.29411 0.12661,0.37 1.2515,1.47578 2.35201,2.3121 3.15671,2.74744 0.98842,0.53474 z m 9.60389,-1.32019 c -2.13268,-0.4674 -4.83235,-1.88945 -4.83235,-2.54544 0,-0.11816 0.92274,-0.21531 2.05052,-0.21589 1.12779,-5.9e-4 3.18162,-0.18104 4.56406,-0.40101 2.81923,-0.44858 7.47558,-1.47096 7.33584,-1.61071 -0.0501,-0.0501 -1.39379,0.0779 -2.98589,0.28457 -3.67701,0.47726 -8.99675,0.85787 -15.06557,1.07788 l -4.7625,0.17265 0.72291,-0.57042 c 0.69561,-0.54888 2.75303,-4.427692 2.48875,-4.691978 -0.0709,-0.07088 -0.61149,0.745164 -1.20137,1.81342 -1.31344,2.378598 -2.48088,3.662078 -3.331,3.662078 -0.34784,0 -0.7006,0.11029 -0.78391,0.2451 -0.26358,0.42647 2.74569,0.62988 6.61438,0.44708 l 3.73626,-0.17654 0.98306,0.92715 c 1.07209,1.01111 3.63104,1.97508 5.19071,1.95536 0.72869,-0.009 0.57442,-0.0888 -0.7239,-0.3733 z m -8.0752,-5.6355 c 1.14391,-1.162624 2.45459,-2.165549 3.63973,-2.78509 2.03729,-1.06501 1.36749,-1.04571 -0.88674,0.02555 -1.37279,0.652386 -3.94896,2.94809 -4.53313,4.03962 -0.48235,0.90128 -0.0849,0.61546 1.78014,-1.28008 z" /></svg>
