<?xml version="1.0" encoding="UTF-8" standalone="no"?>
<svg
   width="38.181133mm"
   height="117.37852mm"
   viewBox="0 0 38.181133 117.37852"
   version="1.1"
   xml:space="preserve"
   xmlns="http://www.w3.org/2000/svg"
   xmlns:svg="http://www.w3.org/2000/svg"><path
     style="fill:#000000"
     d="m 9.3484571,117.15806 c -5.26061,-0.52038 -7.983764,-3.72289 -8.99433899,-10.5776 -0.567049,-3.84629 -0.229825,-11.664252 0.74182499,-17.197922 2.208004,-12.57485 2.25873,-21.55033 0.189158,-33.46979 -0.94369599,-5.4351 -1.24554799,-8.70675 -1.28158999,-13.89062 -0.0331,-4.76105 0.15309,-6.24704 1.19347299,-9.525 1.186325,-3.73778 2.653273,-6.14598 7.897343,-12.96458 3.8798399,-5.04476 4.3645999,-5.85539 3.9570199,-6.61698 -0.15506,-0.28972 -0.3968,-0.52677 -0.5372,-0.52677 -0.28646,0 -0.33907,-0.79669 -0.0947,-1.43357 0.14038,-0.36582 0.97405,-0.41852 6.62114,-0.41852 h 6.46053 l 0.26666,0.70137 c 0.22052,0.58002 0.16818,0.8062 -0.30249,1.30721 -0.79797,0.84939 -0.47098,1.62657 2.06082,4.8981 1.13462,1.46613 2.81317,3.6373 3.7301,4.82482 3.54449,4.59049 5.72657,9.03591 6.55841,13.36105 0.44238,2.30015 0.4939,8.92979 0.10211,13.13974 -0.14897,1.60073 -0.56234,4.63683 -0.9186,6.74688 -2.21724,13.13236 -2.17338,21.19315 0.18673,34.31979 0.78111,4.34442 0.84669,5.15377 0.85297,10.527082 0.005,4.47678 -0.0931,6.24849 -0.42598,7.67292 -0.70966,3.03691 -1.49051,4.78196 -2.78302,6.21954 -1.72141,1.91463 -3.23013,2.60364 -6.36995,2.9091 -2.96803,0.28875 -16.17196,0.28443 -19.1104399,-0.006 z M 19.005747,61.134828 c 16.168,-7.20391 15.11068,-6.64782 15.31482,-8.0547 0.47594,-3.2801 0.68376,-6.66798 0.68789,-11.21411 0.004,-4.12467 -0.0885,-5.41497 -0.50316,-7.03617 -0.52749,-2.06247 -1.96334,-5.50772 -2.2954,-5.50772 -0.10477,0 -6.53898,2.61937 -14.29824,5.82083 -7.75926,3.20146 -14.2224169,5.82084 -14.3625679,5.82084 -0.14015,0 -0.321574,0.10801 -0.403162,0.24002 -0.310091,0.50174 0.429302,9.62228 1.160263,14.31206 0.419604,2.69213 0.902783,6.20448 1.073731,7.80521 0.364831,3.41622 0.427644,3.6706 0.861912,3.49065 0.180674,-0.0749 5.9244339,-2.62947 12.7639139,-5.67691 z M 11.644637,8.7313784 c -0.39121,-0.0754 -0.4441,-0.53904 -0.4441,-3.8933 0,-3.41134 0.0501,-3.83457 0.48151,-4.06544 1.01546,-0.54346 5.23916,-0.88774 9.04349,-0.73715 4.18691,0.16573 5.67137,0.46714 6.08231,1.23499 0.36202,0.67644 0.35174,7.06639 -0.0117,7.29103 -0.2802,0.17317 -14.31733,0.33055 -15.15148,0.16987 z" /></svg>
