<svg xmlns="http://www.w3.org/2000/svg" xml:space="preserve" width="509.141" height="485.355" viewBox="0 0 134.71 128.417"><path d="M78.849 33.731c-.296-.254-.546.498-.862.616-5.32 4.412-10.837 8.58-16.317 12.79a333 333 0 0 1-11.885 8.712c-.331.39-1.542.67-.805 1.193 14.776 17.578 29.534 35.173 43.935 53.06 4.34 5.332 8.52 10.792 12.78 16.187q14.507-12.14 29.015-24.277c-12.93-15.455-25.807-30.954-38.428-46.662-5.747-7.07-11.303-14.294-17.143-21.288zm-1.845-1.303a63 63 0 0 0-4.888-.174c.611.846 1.154 1.72 1.958 2.401.926-.208 1.627-1.003 2.452-1.46.235-.26 1.51-.754.668-.745l-.1-.011zm-17.486-9.095c-6.484 5.319-13.14 10.432-19.987 15.274q-.773.529-1.555 1.046c1.792 1.59 3.235 3.528 4.825 5.312 2.235 2.68 4.555 5.302 6.607 8.126.39.112.985-.642 1.453-.86.53-.434 2.549-1.475 2.9-2.022-1.07-2.882-2.247-3.414-2.712-6.482-.3-1.99-.505-4.388 1.024-5.955 1.234-1.35 3.208-1.78 4.947-1.33 4.026.895 4.763 2.13 8.128 4.35 1.995-1.374 5.29-3.307 7.198-4.748-3.48-4.712-7.215-9.237-10.554-14.05-.3-.794-.877.354-1.315.536zm-.313-3.077a15 15 0 0 0-1.79-1.75c-5.775 4.625-11.509 9.307-17.438 13.735-1.403 1.072-2.797 2.157-4.195 3.235.549.79 1.134 1.604 1.685 2.352 7.182-5.943 14.384-11.885 22.03-17.228zm42.45 53.774c3.486 4.215 5.495 6.856 8.279 11.59 3.338 5.427 3.957 5.624 5.869 11.727.806 2.596 1.32 5.364.766 8.068-.31 1.717-.567 3.69-2.074 4.812-1.611 1.457-3.454.795-5.486.336-4.215-.939-7.14-2.935-10.665-5.343-5.532-3.913-5.42-3.922-10.074-8.839-6.6-7.163-8.506-9.02-13.407-17.459-2.907-5.07-6.132-9.284-7.363-15.036-.528-2.318-1.684-4.598-.964-6.876.487-1.625 1.215-3.473 2.948-4.1 2.553-1.017 5.379-.222 7.84.693 5.61 2.268 10.515 5.948 15.102 9.833 4.827 5.124 5.552 6.356 9.23 10.594zM46.752 12.106 22.946 32.081l20.559 24.41c1.255-.145 2.613-.295 3.544-1.255.596-.375 1-.768.258-1.26-3.48-4.201-7.075-8.311-10.453-12.595-.424-.578-.965-1.232-.794-2-.656-1.283-1.77-2.28-2.64-3.42-.246-.434-1.192-.927-.378-1.27.84-.71 2.823-2.236 3.662-2.946-.69-2.627-1.66-3.262-.512-5.881.644-1.522 2.23-2.586 3.9-2.468 2.497-.001 3.025-.095 5.234.96 2.235-1.544 5.173-3.544 7.308-5.243q-2.94-3.504-5.882-7.007m-16.848 3.78-11.131 9.34 3.775 4.5c1.481-1.676 3.297-3.017 4.955-4.511 5.663-4.85 11.406-9.605 17.115-14.4l-3.582-4.27zm5.211-7.715c-.805.805-1.68 1.536-2.533 2.29l3.452-2.763c-.278-.633-.609.314-.919.473m-2.04-2.593c-.798-.816-1.607-1.621-2.328-2.507L9.827 20.793c.925 1.163 1.888 2.295 2.842 3.434L33.91 6.403zm-8.752-2.889C23.405 1.884 22.635.932 21.852 0L0 18.336l2.432 2.898L24.439 2.783l-.078-.063zm-5.77 19.599c-1.828 1.48-3.637 2.99-5.594 4.299 2.551 2.487 4.742 5.312 7.09 7.986 5.682 6.717 11.397 13.409 16.893 20.278l1.837 2.355c.618-.082 1.236-.162 1.853-.252-6.436-7.83-13.069-15.501-19.377-23.436-.493-.617-1.068-1.654-.354-2.324-1.632-2.189-3.518-4.18-5.259-6.285l4.093-3.598zm29.186 36.007c-.272-.306-.709-.852-1.06-.302-1.18.77-2.666.842-4.004 1.186-3.839.74-7.716 1.254-11.581 1.834 9.528 11.577 19.224 23.015 28.688 34.643a1675 1675 0 0 1 23.531 29.347 288 288 0 0 0 2.746 3.414c5.451-.698 10.931-1.173 16.406-1.642.405-.098 1.483.142.778-.462-7.84-9.752-15.973-19.263-23.93-28.92C68.839 84.717 58.4 72.005 48.339 58.996a17 17 0 0 0-.6-.7zm-36.98-33.47c-1.327-1.369-2.668-2.723-4.006-4.081l-3.91 3.28L31.71 58.427c1.567-.318 3.295-.502 4.761-.943-2.61-2.948-5.27-5.85-7.78-8.884-5.478-6.547-10.97-13.087-16.222-19.817-.508-.816-1.402-1.613-1.266-2.65.39-.455.073-.803-.302-1.15z"/></svg>