<?xml version="1.0" encoding="UTF-8" standalone="no"?>
<svg
   width="53.284893mm"
   height="43.646408mm"
   viewBox="0 0 53.284893 43.646408"
   version="1.1"
   xml:space="preserve"
   xmlns="http://www.w3.org/2000/svg"
   xmlns:svg="http://www.w3.org/2000/svg"><path
     d="m 52.320894,43.153875 c 0.382,-1.428 0.227,-1.766 -0.954,-2.074 -3.701,-0.964 -10.887,-2.962 -11.757,-3.27 -0.565,-0.199 -4.416,-1.165 -8.55799,-2.146 -4.143,-0.98199 -9.557,-2.37999 -12.02999,-3.10699 -7.109,-2.089 -10.5739989,-3.077 -10.6169989,-3.025 -0.021,0.026 -0.12,0.542 -0.22,1.148 -0.154,0.928 -0.107,1.123 0.3,1.246 3.0549989,0.923 14.9999889,4.22199 20.7229889,5.72299 17.75099,4.657 22.25499,5.849 22.58999,5.978 0.218,0.083 0.423,-0.103 0.523,-0.473 m 0.434,-4.405 v -1.017 l -3.506,-0.96 a 339.99978,339.99978 0 0 0 -8.468,-2.15299 c -6.86599,-1.648 -12.86899,-3.3 -19.24699,-5.296 -5.84799,-1.831 -12.5479889,-3.83 -12.5969889,-3.757 -0.016,0.024 -0.104,0.53 -0.195,1.125 l -0.165,1.08 2.8399989,0.873 c 6.11,1.877 13.63999,3.956 18.18699,5.022 2.62,0.615 8.78899,2.23799 13.70999,3.60799 4.92,1.37 9.058,2.491 9.194,2.491 0.136,0 0.247,-0.457 0.247,-1.016 m 0.344,-2.856 c 0.103,-0.101 0.186,-0.628 0.186,-1.16999 0,-0.798 -0.113,-1.016 -0.595,-1.145 -0.328,-0.087 -4.703,-1.216 -9.724,-2.508 -5.02,-1.293 -11.62799,-3.066 -14.68399,-3.942 -11.52299,-3.303 -18.8669889,-5.354 -19.1679889,-5.354 -0.196,0 -0.28,0.354 -0.229,0.958 l 0.082,0.958 4.3659989,1.296 a 413.99974,413.99974 0 0 1 9.13399,2.858 c 6.34,2.077 12.19,3.722 17.98599,5.057 5.106,1.175 11.381,2.74399 12.052,3.01199 0.226,0.09 0.494,0.082 0.595,-0.02 m 0.185,-4.50999 c 0,-0.587 -14.015,-20.16999 -15.822,-22.1069895 -0.934,-1.003 -1.914,-1.113 -5.38499,-0.608 -7.512,1.093 -15.43199,3.9249995 -21.33599,7.6289995 -2.1239989,1.333 -2.1899989,1.405 -2.1159989,2.302 l 0.077,0.92599 11.7739889,3.35 a 1523.999,1523.999 0 0 0 21.93199,6.042 c 5.588,1.481 10.32,2.754 10.517,2.83 0.224,0.086 0.359,-0.05 0.359,-0.365 m -13.692,-6.477 c -1.405,-0.431 -1.654,-0.6 -1.654,-1.119 0,-0.637 0.482,-2.274 0.764,-2.595 0.173,-0.197 4.785,1.015 5.128,1.347 0.173,0.167 -0.016,0.907 -0.737,2.894 -0.144,0.397 -0.824,0.294 -3.501,-0.527 m -22.02698,-8.02999 c 0,-0.156 0.53,-0.803 1.176,-1.438 l 1.176,-1.153 1.86699,1.656 c 1.027,0.91 1.867,1.756 1.867,1.88 0,0.124 -0.558,0.83 -1.24,1.56999 l -1.24,1.346 -1.80299,-1.78899 c -0.991,-0.984 -1.803,-1.916 -1.803,-2.072 m 13.47099,-0.544 c -0.376,-0.191 -1.017,-0.784 -1.424,-1.318 l -0.74,-0.97 1.463,-1.462 c 1.243,-1.243 1.565,-1.437 2.148,-1.29 q 1.34,0.335 1.65,2.609 c 0.376,2.74 -0.75,3.623 -3.097,2.43 M 6.7269151,30.867885 a 61.999961,61.999961 0 0 1 0.256,-2.085 c 0.335,-2.509 0.344,-9.311 0.014,-10.42799 -0.639,-2.162 -3.12999,-4.298 -4.50599,-3.861 -0.366,0.116 -0.59,0.032 -0.704,-0.262 -0.24,-0.628 0.3,-1.036 1.335,-1.006 0.831,0.023 0.916,-0.048 1.079,-0.92 0.255,-1.357 1.45199,-2.3629995 3.26699,-2.7419995 1.371,-0.286 1.545,-0.405 2.028,-1.381 0.8049999,-1.624 1.7049989,-2.148 3.7579989,-2.187 1.612,-0.031 1.78,-0.092 2.385,-0.865 1.19,-1.51999 2.726,-1.94199 4.88999,-1.33999 0.908,0.252 1.067,0.204 2.203,-0.664 1.68,-1.282 2.326,-1.395 4.21,-0.734 l 1.58,0.553 1.07,-0.61 c 1.463,-0.833 2.361,-1.002 3.583,-0.673 1.745,0.47 3.58499,2.344 2.93699,2.99199 -0.208,0.208 -0.528,0.062 -1.14899,-0.526 -1.698,-1.60699 -3.077,-1.81799 -4.829,-0.73899 -1.194,0.73599 -2.076,0.80999 -3.043,0.258 a 3.0299981,3.0299981 0 0 0 -3.496,0.358 c -1.365,1.18499 -1.875,1.37799 -2.884,1.08799 -0.48999,-0.14 -1.40999,-0.256 -2.04199,-0.256 -1.015,0 -1.286,0.14 -2.304,1.188 -1.121,1.154 -1.197,1.186 -2.688,1.145 -1.952,-0.053 -2.602,0.307 -3.330999,1.843 -0.5599999,1.1809995 -0.6579999,1.2529995 -2.1729999,1.5889995 -1.833,0.406 -2.66,1.064 -2.892,2.303 -0.14799,0.791 -0.034,1.012 1.153,2.231 l 1.318,1.353 1.798,-1.308 c 2.3609989,-1.718 6.9759989,-3.989 10.7529889,-5.2909995 6.507,-2.244 14.54,-3.445 16.90899,-2.53 0.414,0.161 0.463,-0.018 0.463,-1.714 0,-1.115 -0.154,-2.18699 -0.374,-2.60799 -1.376,-2.63300002 -5.14299,-3.83400002 -7.76499,-2.47400002 -1.102,0.57200002 -1.16,0.57500002 -2.644,0.144 -1.822,-0.53 -3.265,-0.254 -4.878,0.93200002 -0.9,0.663 -1.14,0.722 -2.13599,0.53 -1.927,-0.373 -3.41,0.042 -4.825,1.349 -0.614,0.567 -1.124,0.75899 -2.25,0.84699 -2.083,0.164 -3.3779989,0.87 -4.2899989,2.337 -0.68,1.094 -0.94,1.281 -2.304,1.66 -1.12599,0.314 -1.75999,0.68 -2.36599,1.372 -0.456,0.5189995 -0.829,1.0939995 -0.829,1.2779995 0,0.184 -0.396,0.478 -0.88,0.653 -2.13000004,0.77 -2.79600004,2.796 -1.40000004,4.253 1.02900004,1.074 1.20800004,2.164 1.21600004,7.38799 0.007,5.072 0.139,5.608 1.668,6.774 0.869,0.663 3.09299,1.226 3.10899,0.788"/></svg>
