<svg xmlns="http://www.w3.org/2000/svg" xml:space="preserve" width="201.392" height="164.962" viewBox="0 0 53.285 43.646"><path d="M.964 43.154c-.382-1.428-.227-1.766.954-2.074 3.701-.964 10.887-2.962 11.757-3.27.565-.199 4.416-1.165 8.558-2.146 4.143-.982 9.557-2.38 12.03-3.107 7.109-2.089 10.574-3.077 10.617-3.025.021.026.12.542.22 1.148.154.928.107 1.123-.3 1.246-3.055.923-15 4.222-20.723 5.723-17.751 4.657-22.255 5.849-22.59 5.978-.218.083-.423-.103-.523-.473M.53 38.749v-1.017l3.506-.96a340 340 0 0 1 8.468-2.153c6.866-1.648 12.869-3.3 19.247-5.296 5.848-1.831 12.548-3.83 12.597-3.757.016.024.104.53.195 1.125l.165 1.08-2.84.873c-6.11 1.877-13.64 3.956-18.187 5.022-2.62.615-8.789 2.238-13.71 3.608-4.92 1.37-9.058 2.491-9.194 2.491s-.247-.457-.247-1.016m-.344-2.856C.083 35.792 0 35.265 0 34.723c0-.798.113-1.016.595-1.145.328-.087 4.703-1.216 9.724-2.508 5.02-1.293 11.628-3.066 14.684-3.942 11.523-3.303 18.867-5.354 19.168-5.354.196 0 .28.354.229.958l-.082.958-4.366 1.296a414 414 0 0 0-9.134 2.858c-6.34 2.077-12.19 3.722-17.986 5.057C7.726 34.076 1.451 35.645.78 35.913c-.226.09-.494.082-.595-.02M0 31.383c0-.587 14.015-20.17 15.822-22.107.934-1.003 1.914-1.113 5.385-.608 7.512 1.093 15.432 3.925 21.336 7.629 2.124 1.333 2.19 1.405 2.116 2.302l-.077.926-11.774 3.35a1524 1524 0 0 1-21.932 6.042C5.288 30.398.556 31.671.359 31.747c-.224.086-.359-.05-.359-.365m13.692-6.477c1.405-.431 1.654-.6 1.654-1.119 0-.637-.482-2.274-.764-2.595-.173-.197-4.785 1.015-5.128 1.347-.173.167.016.907.737 2.894.144.397.824.294 3.501-.527m22.027-8.03c0-.156-.53-.803-1.176-1.438l-1.176-1.153L31.5 15.94c-1.027.91-1.867 1.756-1.867 1.88s.558.83 1.24 1.57l1.24 1.346 1.803-1.789c.991-.984 1.803-1.916 1.803-2.072m-13.471-.544c.376-.191 1.017-.784 1.424-1.318l.74-.97-1.463-1.462c-1.243-1.243-1.565-1.437-2.148-1.29q-1.34.335-1.65 2.609c-.376 2.74.75 3.623 3.097 2.43m24.31 14.538a62 62 0 0 0-.256-2.085c-.335-2.509-.344-9.311-.014-10.428.639-2.162 3.13-4.298 4.506-3.861.366.116.59.032.704-.262.24-.628-.3-1.036-1.335-1.006-.831.023-.916-.048-1.079-.92-.255-1.357-1.452-2.363-3.267-2.742-1.371-.286-1.545-.405-2.028-1.381-.805-1.624-1.705-2.148-3.758-2.187-1.612-.031-1.78-.092-2.385-.865-1.19-1.52-2.726-1.942-4.89-1.34-.908.252-1.067.204-2.203-.664-1.68-1.282-2.326-1.395-4.21-.734l-1.58.553-1.07-.61c-1.463-.833-2.361-1.002-3.583-.673-1.745.47-3.585 2.344-2.937 2.992.208.208.528.062 1.149-.526 1.698-1.607 3.077-1.818 4.829-.739 1.194.736 2.076.81 3.043.258a3.03 3.03 0 0 1 3.496.358c1.365 1.185 1.875 1.378 2.884 1.088.49-.14 1.41-.256 2.042-.256 1.015 0 1.286.14 2.304 1.188 1.121 1.154 1.197 1.186 2.688 1.145 1.952-.053 2.602.307 3.331 1.843.56 1.181.658 1.253 2.173 1.589 1.833.406 2.66 1.064 2.892 2.303.148.791.034 1.012-1.153 2.231l-1.318 1.353-1.798-1.308c-2.361-1.718-6.976-3.989-10.753-5.291-6.507-2.244-14.54-3.445-16.909-2.53-.414.161-.463-.018-.463-1.714 0-1.115.154-2.187.374-2.608C17.36.406 21.127-.795 23.749.565c1.102.572 1.16.575 2.644.144 1.822-.53 3.265-.254 4.878.932.9.663 1.14.722 2.136.53 1.927-.373 3.41.042 4.825 1.349.614.567 1.124.759 2.25.847 2.083.164 3.378.87 4.29 2.337.68 1.094.94 1.281 2.304 1.66 1.126.314 1.76.68 2.366 1.372.456.519.829 1.094.829 1.278s.396.478.88.653c2.13.77 2.796 2.796 1.4 4.253-1.029 1.074-1.208 2.164-1.216 7.388-.007 5.072-.139 5.608-1.668 6.774-.869.663-3.093 1.226-3.109.788"/></svg>