<?xml version="1.0" encoding="UTF-8" standalone="no"?>
<svg
   width="77.6119mm"
   height="77.749588mm"
   viewBox="0 0 77.6119 77.749588"
   version="1.1"
   xml:space="preserve"
   xmlns="http://www.w3.org/2000/svg"
   xmlns:svg="http://www.w3.org/2000/svg"><path
     style="fill:#000000"
     d="m 21.953603,47.743684 c -3.317714,-4.76071 -6.911727,-10.16124 -6.571792,-16.21551 -0.41115,-2.96156 6.256877,-7.15031 0.906603,-7.55183 -5.243237,-1.14735 -10.6885881,-1.51877 -16.01270608,-0.76806 -1.31954602,-2.32362 2.49708398,-6.19855 3.03289598,-9.15208 -2.33376598,-3.82643 0.662746,-6.6249699 3.017489,-9.4925699 1.841874,-3.37531 6.2035571,0.50427 8.9571731,-2.32539 2.270651,-0.45988 7.547528,-4.86119 6.779183,0.10339 -0.06221,5.91573 0.184609,11.8948399 1.805705,17.6181799 2.638345,-2.18781 5.736981,-4.67742 9.418634,-3.74828 8.64571,1.74278 15.51705,7.95622 21.12691,14.42588 3.17061,4.36811 6.27929,9.16124 7.08624,14.5947 0.72673,3.3851 -2.88718,6.37635 -3.40594,8.75174 5.97549,1.46992 12.1341,1.73924 18.25992,1.59369 3.34651,0.82313 -1.01596,5.25022 -1.25468,7.5491 -2.11228,3.18313 1.42431,7.51777 -3.22164,9.11767 -2.23363,2.4118 -4.87487,3.70702 -7.86573,2.01736 -1.31229,-0.0272 -2.55755,1.04516 -3.84315,1.45593 -2.06335,0.65469 -6.99331,4.41133 -5.59544,-0.32446 0.48748,-5.58655 -0.0355,-11.29411 -1.71348,-16.64513 -2.93433,1.93579 -6.20343,4.25134 -9.9278,3.31022 -6.9838,-1.35995 -12.872653,-5.82516 -17.651358,-10.91038 -1.122341,-1.12093 -2.271043,-2.21957 -3.327065,-3.40414 z m 11.905295,2.78663 c 7.86705,-3.51407 15.82228,-6.98886 24.19428,-9.11799 -1.18613,-2.30286 -2.07376,-6.69729 -5.50013,-4.35658 -8.81719,2.84892 -17.5023,6.29542 -25.622389,10.76142 0.84616,1.64433 2.677425,2.7091 3.978855,4.06682 0.983126,-0.45123 1.966254,-0.90244 2.949374,-1.35366 z m -9.880412,-12.12548 c 6.938443,-3.39472 14.073402,-6.45235 21.415602,-8.85838 1.81161,0.57662 3.52859,4.87304 5.69677,4.65719 -0.0167,-2.24925 -4.06679,-4.43809 -3.92918,-5.34127 4.26186,-0.18095 -1.31465,-4.49769 -3.144,-4.4032 -8.3233,2.63424 -16.633853,5.50437 -24.483083,9.35061 -0.805271,1.49487 0.832604,7.67172 3.424627,5.12227 l 0.496975,-0.25486 0.522296,-0.27236 z m 19.794522,20.56348 c 3.71567,0.80618 5.92129,-2.90705 8.47581,-4.88304 1.01675,-1.08492 4.60935,-3.34048 1.10477,-1.98075 -4.31108,1.92896 -8.61089,4.0372 -12.80048,6.13351 1.00559,0.47502 2.13523,0.56665 3.2199,0.73028 z M 27.260203,21.668074 c 3.174719,-2.52914 -1.723959,2.55147 1.135468,3.56762 2.588048,3.04867 7.696667,0.27834 8.275317,-2.74392 -1.03547,-1.16303 -2.52855,-2.14257 -0.0391,-1.21302 1.48934,1.35712 5.66595,1.01741 2.22937,-0.64858 -3.35969,-1.80247 -7.926584,-3.61049 -11.218638,-0.65348 -1.73875,1.30217 -3.265276,2.85462 -4.868346,4.31422 1.516186,-0.83514 3.102504,-1.57429 4.485879,-2.62284 z m -9.597116,-4.05819 c -1.99297,-2.62736 -3.193899,-6.18094 -4.940488,-8.6493899 -1.543261,2.6191499 2.954411,6.5733399 4.963124,8.7401799 z m 45.802471,45.49679 c 1.37353,0.77954 5.12184,4.39324 5.30923,1.3856 -2.77193,-0.37021 -6.80806,-3.79601 -8.29162,-3.82877 0.93085,0.88773 1.9561,1.67041 2.98239,2.44317 z M 9.9068369,6.4799041 c 4.0637401,0.78574 -1.082518,-1.74814 -1.625288,-0.32252 0.523782,0.18832 1.081158,0.23068 1.625288,0.32252 z M 21.051119,18.693274 C 19.884105,13.605884 19.308916,8.3990241 19.363628,3.1826341 c -4.285169,0.41565 -0.749077,4.73237 -0.833959,7.3595399 0.660692,2.59684 1.584274,6.47335 2.52145,8.1511 z m 50.826079,50.31042 c 0.11434,-1.60112 -1.29072,-4.68921 -0.71592,-1.36358 0.15271,0.20164 0.10199,2.56158 0.71592,1.36358 z m -1.90411,-9.35882 c 1.61306,1.35423 5.74823,-0.26201 3.97453,-1.4765 -4.47876,0.0395 -8.934,-0.31666 -13.32598,-1.22667 -1.8369,0.057 3.22548,1.29758 4.32611,1.60342 1.66212,0.42078 3.3303,0.83328 5.02534,1.09975 z" /></svg>
