<?xml version="1.0" encoding="UTF-8" standalone="no"?>
<svg
   width="87.475372mm"
   height="85.857857mm"
   viewBox="0 0 87.475372 85.857857"
   version="1.1"
   xml:space="preserve"
   xmlns="http://www.w3.org/2000/svg"
   xmlns:svg="http://www.w3.org/2000/svg"><path
     style="fill:#000000"
     d="m 0.20717537,21.586552 c 0.243356,-0.5681 0.93416903,-1.16885 2.38561903,-2.07447 2.376462,-1.48284 4.025421,-3.23109 4.624905,-4.9034 0.445921,-1.24389 0.672668,-4.18303 0.400942,-5.1970902 -0.08792,-0.32809 0.04873,-1.042238 0.303664,-1.586972 0.423297,-0.904536 0.568008,-1.007171 1.668755,-1.183516 0.6629146,-0.106233 1.9636626,-0.122924 2.8905736,-0.03713 3.361721,0.311163 6.687957,-1.460628 8.601103,-4.581545 1.093194,-1.78331704 1.558426,-2.13579704 2.632595,-1.99435804 1.443865,0.19008 1.62032,0.647596 2.811202,7.28881404 1.706433,9.5165272 2.569866,14.0301972 2.695966,14.0937272 0.0632,0.0335 1.09227,-0.43949 2.28502,-1.0483 2.95598,-1.50879 8.62119,-2.87934 11.82541,-2.86086 4.53466,0.0262 8.9518,1.22266 12.85634,3.48242 7.91137,4.57917 12.78229,12.48402 13.30776,21.59835 0.26248,4.55242 -1.00856,10.11491 -3.16452,13.84915 -0.37277,0.64576 -0.54705,1.2316 -0.39201,1.31812 0.22058,0.12301 9.75903,1.77972 18.73127,3.25336 1.71201,0.28117 2.43985,0.75765 2.71265,1.77579 0.29746,1.11021 -0.0572,1.61901 -2.23336,3.20358 -4.20293,3.06022 -4.98066,4.62423 -4.9396,9.93349 0.0189,2.44716 -1.26557,3.25896 -4.61218,2.91491 -3.895,-0.40039 -6.4653,0.96861 -8.79249,4.68312 -1.23152,1.96528 -2.05598,2.58586 -3.00735,2.26327 -1.03703,-0.35165 -1.2108,-0.94216 -2.80283,-9.51253 -0.86004,-4.63041 -1.71363,-8.97865 -1.89689,-9.66271 -0.31244,-1.16638 -0.36635,-1.22432 -0.86586,-0.93148 -3.13039,1.83509 -5.50879,2.78633 -8.96839,3.58688 -5.30042,1.22654 -8.93933,1.13073 -13.81834,-0.36378 -4.14271,-1.26897 -8.737912,-4.20197 -11.644516,-7.43234 -4.592065,-5.10356 -7.260223,-12.85999 -6.715354,-19.52168 0.345954,-4.22982 1.531946,-8.08277 3.522016,-11.44205 0.574023,-0.96892 0.903474,-1.80313 0.746534,-1.89017 -0.15448,-0.0857 -4.647399,-1.04081 -9.984186,-2.12255 -5.3367536,-1.08177 -10.0261376,-2.13694 -10.42080963,-2.34485 -0.894034,-0.4709 -1.194096,-1.5013 -0.743521,-2.55308 z M 22.70285,43.472252 c 5.081616,-1.93086 9.79602,-5.67228 14.2043,-11.27275 2.14054,-2.71945 7.4194,-10.50931 7.33505,-10.82419 -0.16809,-0.62717 -8.45371,0.80905 -9.31245,1.6142 -0.23811,0.22325 -0.42965,0.93214 -0.42992,1.59114 -0.001,2.76333 -2.24693,7.4779 -4.80341,10.08365 -1.742778,1.77637 -4.415982,3.49158 -6.816762,4.37384 l -1.868337,0.6866 -0.03214,1.09615 c -0.01767,0.60289 0.01215,1.11446 0.06625,1.13687 -0.134148,0.92394 -0.244903,0.90861 -0.08608,1.7894 0.05275,0.29266 0.389401,0.23966 1.743489,-0.27491 z m 3.536326,14.85039 c 1.243646,1.39167 4.030244,4.05216 4.197384,4.00735 0.0501,-0.0136 1.14013,-1.77021 2.42175,-3.90398 9.42775,-15.69428 15.69394,-21.68931 26.22902,-25.09438 3.74573,-1.21068 3.62088,-0.98388 1.84651,-3.35444 -1.03701,-1.38538 -2.9159,-3.27994 -4.17322,-4.20801 l -0.7446,-0.55001 -1.77604,1.40788 c -5.78706,4.58739 -8.86096,7.62915 -18.04854,17.85961 -3.77132,4.19894 -7.62929,8.43104 -8.573808,9.40411 -2.383304,2.455 -2.678061,2.78328 -2.638668,2.93065 0.01902,0.0709 0.586255,0.74647 1.260439,1.50095 z m 18.778024,7.88871 c 1.18518,-0.0581 2.24189,-0.19809 2.34823,-0.31102 0.10608,-0.11316 0.18457,-0.78596 0.17384,-1.4956 -0.0662,-4.37678 1.77448,-9.40319 4.61207,-12.59438 2.02191,-2.27395 3.52521,-3.18836 6.5706,-3.99717 2.59474,-0.68906 3.28398,-0.72843 6.26894,-0.35755 0.36971,0.0459 0.5153,-0.1391 0.58611,-0.74513 0.0716,-0.61335 0.19008,-5.31754 0.13881,-5.50891 -0.0425,-0.15894 -2.74473,0.0726 -4.45849,0.38197 -5.7406,1.03628 -11.03412,4.82927 -14.4052,10.3219 -1.77154,2.88638 -2.67319,5.18003 -3.36993,8.57262 -0.48345,2.35406 -0.79842,4.93796 -0.67671,5.55157 0.0314,0.1581 1.02669,0.23994 2.21187,0.1818 z m 10.98991,-3.61112 c 0.34258,-0.0918 3.67399,-3.17661 4.59012,-4.25037 1.20598,-1.41335 2.31827,-3.06487 2.24584,-3.33499 -0.0301,-0.11231 -0.45068,-0.23334 -0.93471,-0.26901 -2.87348,-0.21198 -5.30029,2.01894 -6.01346,5.52808 -0.28056,1.38042 -0.23043,2.41826 0.11236,2.32641 z" /></svg>
