<?xml version="1.0" encoding="UTF-8" standalone="no"?>
<svg
   width="68.469269mm"
   height="105.91511mm"
   viewBox="0 0 68.469269 105.91511"
   version="1.1"
   xml:space="preserve"
   xmlns="http://www.w3.org/2000/svg"
   xmlns:svg="http://www.w3.org/2000/svg"><path
     style="fill:#000000"
     d="M 27.062968,105.78537 C 18.699447,105.30703 9.5044448,103.49866 4.7544058,101.39797 0.53124479,99.530292 -0.64379921,96.622772 1.6399178,93.691522 l 0.949093,-1.2182 v -39.28376 -39.28376 l -1.039974,-1.12824 c -1.92974301,-2.09352 -2.06212201,-4.3492296 -0.365453,-6.2272396 3.743408,-4.14351 19.4803622,-6.96907003 36.1981302,-6.49937003 13.41825,0.377 23.94657,2.31146003 28.46123,5.22942003 1.93145,1.24836 2.625,2.30983 2.62632,4.01958 0.001,1.4377796 -0.21969,1.9616296 -1.48919,3.5328696 l -0.89107,1.10286 v 39.32775 39.32776 l 0.80307,0.9993 c 3.14264,3.9106 0.17193,7.339528 -8.28413,9.561918 -3.60577,0.94765 -9.82907,1.99818 -13.95018,2.35486 -4.59688,0.39786 -13.13991,0.5329 -17.594796,0.2781 z m 16.933336,-4.52731 c 7.09061,-0.56451 14.50222,-2.203588 18.11913,-4.007058 1.91033,-0.95253 2.2793,-1.24422 2.48055,-1.96103 0.13004,-0.46313 0.15297,-1.17458 0.051,-1.581 l -0.18546,-0.73895 -0.44301,0.5615 c -1.78992,2.26865 -11.64412,4.61777 -22.53571,5.37224 -9.98146,0.69142 -21.467579,-0.17886 -29.486778,-2.23415 -3.8962852,-0.99861 -5.9524752,-1.82611 -7.2392452,-2.91338 l -0.874979,-0.73933 0.08123,1.42528 c 0.07793,1.3674 0.130632,1.45829 1.298034,2.2385 0.669244,0.44728 2.336119,1.1815 3.704167,1.63161 8.9433522,2.942488 21.6505882,4.011038 35.0311112,2.945768 z m 1.67034,-24.697498 c 6.72069,-0.93448 11.49117,-2.09213 14.80224,-3.59205 l 1.65591,-0.75014 -0.0684,-14.5015 -0.0684,-14.5015 -2.10641,-1.26292 c -3.38149,-2.02739 -5.61381,-2.62554 -10.329,-2.76764 -3.34441,-0.10079 -4.40102,-0.0306 -6.71655,0.44643 -5.38765,1.10984 -9.83223,3.35808 -13.659357,6.90942 -3.763117,3.49195 -6.303005,5.01685 -10.366703,6.22398 -2.975505,0.88388 -7.773932,1.14131 -10.4564992,0.56097 -0.976905,-0.21133 -1.840108,-0.32033 -1.918229,-0.24221 -0.07812,0.0781 -0.142038,4.41591 -0.142038,9.63953 v 9.4975 l 1.739242,0.78861 c 3.8776932,1.75823 12.0313202,3.39834 20.0888822,4.04089 2.978532,0.23752 14.661072,-0.0883 17.545342,-0.48937 z m 1.5366,-55.02302 c 8.6695,-1.08386 16.42413,-3.27947 17.28876,-4.89504 0.29461,-0.55048 0.36849,-1.68724 0.12546,-1.93027 -0.0817,-0.0817 -0.6473,0.12565 -1.25677,0.46089 -2.4885,1.36879 -8.71163,2.85807 -15.66023,3.74772 -5.38063,0.6889 -21.421524,0.68922 -26.722912,5.3e-4 -7.3265,-0.95175 -13.8986522,-2.52876 -16.2057282,-3.8886 l -0.859896,-0.50684 v 1.16012 c 0,1.02475 0.100335,1.22139 0.859896,1.68521 3.093599,1.8891 11.8072012,3.81228 20.5713532,4.54031 4.104113,0.34092 18.050017,0.10231 21.860067,-0.37403 z m -0.35986,-6.87577 c 4.57423,-0.50628 7.70166,-1.04661 10.9845,-1.8978 2.90702,-0.75375 6.26917,-2.26266 6.65721,-2.9877196 0.58667,-1.09621 -1.91421,-2.56385 -6.35351,-3.72855 -1.58977,-0.41709 -2.89049,-0.69415 -2.89049,-0.61568 0,0.0785 0.36368,0.55688 0.80819,1.06314 0.6386,0.72733 0.79128,1.12058 0.7276,1.87407 -0.14318,1.6943296 -0.30117,1.7423096 -11.98683,3.6402496 -5.66768,0.92053 -13.09152,2.56097 -13.890627,3.0694 -0.597412,0.38011 11.631637,0.0602 15.943957,-0.41711 z m -19.252415,-0.55494 c 1.018004,-0.21563 3.101597,-0.80749 4.630205,-1.31524 1.52861,-0.50775 4.36228,-1.22024 6.29705,-1.58332 4.32262,-0.81119 14.03255,-2.2549696 15.20257,-2.2604896 0.65184,-0.003 0.76318,-0.0659 0.46196,-0.26053 -1.21449,-0.78487 -13.24854,0.35345 -18.46345,1.7464896 -1.35088,0.36086 -3.3672,1.07128 -4.48071,1.57872 -1.113497,0.50744 -2.865725,1.18725 -3.893835,1.51068 -4.040548,1.27112 -11.37668,0.38508 -13.973977,-1.68774 -0.545703,-0.43551 -0.992188,-0.68562 -0.992188,-0.5558 0,0.98741 4.012654,2.61057 7.540625,3.05027 1.998723,0.2491 5.99067,0.13305 7.67175,-0.22304 z m -16.387997,-1.77429 c -0.932034,-1.33066 -0.366867,-2.6483896 1.545516,-3.6034796 1.234346,-0.61646 2.50203,-0.85928 7.038439,-1.34816 1.382448,-0.14899 3.466042,-0.50813 4.630208,-0.7981 1.164167,-0.28997 3.843073,-0.63928 5.953125,-0.77624 3.830394,-0.24863 7.904874,-1.18687 8.361304,-1.92538 0.27845,-0.45054 -14.826589,-0.11189 -18.944637,0.42473 -9.674168,1.26064 -16.7402152,3.66955 -15.7178822,5.35844 0.508723,0.8404096 1.973486,1.6481896 4.446609,2.4521996 2.9938682,0.9733 3.2311172,0.99237 2.6873182,0.21599 z m 10.303747,0.0232 c -2.237945,-0.28199 -4.653806,-1.05924 -5.596062,-1.80042 -0.768773,-0.6047096 -1.51955,-0.7252896 -1.350059,-0.21681 0.339628,1.01888 4.330073,2.29792 7.078412,2.26881 l 1.719792,-0.0182 z m 5.791784,-0.75545 c 0.187682,-0.18768 0.108064,-0.43804 -0.254652,-0.80075 -0.380837,-0.38084 -1.077527,-0.58515 -2.503252,-0.7341 l -1.975547,-0.2063796 1.404805,-0.48009 c 2.026819,-0.69266 4.55625,-0.0651 4.96814,1.2326896 0.186491,0.58758 0.867934,0.50531 1.271612,-0.15352 0.243034,-0.39665 0.148209,-0.6085496 -0.556591,-1.2437796 -1.665085,-1.50073 -2.685193,-1.55427 -7.881716,-0.41363 -1.018646,0.2236 -2.447396,0.41043 -3.175,0.41518 -1.993127,0.013 -2.242604,0.32962 -0.880982,1.1179796 1.354446,0.78422 2.473103,1.16331 4.452857,1.50901 1.696425,0.29623 4.735191,0.15253 5.130326,-0.24261 z m 6.412121,-3.5698596 c 0.64616,-0.12251 0.68102,-0.10313 0.23151,0.12875 -1.10895,0.57207 3.02514,0.0173 4.94606,-0.66372 8.49466,-3.01162 9.63165,-3.09809 14.10394,-1.07254 l 1.5875,0.71899 -1.05031,-1.08393 c -1.75643,-1.81265 -3.00397,-2.27043 -6.09344,-2.23598 -2.80121,0.0312 -2.60963,-0.0182 -10.18646,2.62751 -1.98426,0.69287 -3.40608,1.0109 -4.97564,1.11297 -2.097857,0.13642 -2.53591,0.40398 -1.10977,0.67786 0.63923,0.12276 0.90961,0.10047 2.54661,-0.20991 z" /></svg>
