<svg xmlns="http://www.w3.org/2000/svg" xml:space="preserve" width="672.301" height="536.649" viewBox="0 0 177.88 141.988"><path d="m81.445 0 .826 3.7c1.086 4.864.338 9.151-3.105 17.813-3.413 8.587-3.232 12.176 1.07 21.226 1.648 3.468 3.29 7.769 3.648 9.558.621 3.106.706 2.977 1.896-2.854.685-3.358 2.392-9.55 3.794-13.76 2.008-6.03 2.44-8.8 2.036-13.04-.64-6.726-3.774-14.897-7.397-19.288zm21.518 21.028c-.342-.02-.536.726-.536 2.294 0 1.7-1.51 6.091-3.355 9.756-4.255 8.449-4.315 12.252-.32 20 1.67 3.238 3.098 5.887 3.173 5.887s.18-2.049.233-4.554c.056-2.648 1.136-6.873 2.58-10.095 2.878-6.42 3.07-9.846.958-17.057-1.182-4.037-2.164-6.198-2.733-6.231m-36.31 13.025L64.79 39.08c-3.03 8.183-3.154 11.802-.596 17.263l2.259 4.823.66-3.736c.364-2.056 1.304-5.526 2.09-7.711 1.484-4.133 1.107-7.866-1.319-13.037zm22.23 32.196c-34.816-.02-69.042 7.32-82.985 21.104-5.553 5.49-6.961 9.603-5.158 15.068 1.344 4.07 6.35 9.35 12.021 12.672 11.485 6.73 33.221 12.834 54.192 15.216 1.845.21 13.495.249 25.887.087 25.773-.337 37.546-2.019 54.65-7.807 12.23-4.139 18.05-7.19 24.116-12.643 11.026-9.911 7.345-21.266-9.68-29.86-18.527-9.352-45.963-13.821-73.043-13.837m5.874 5.765c8.781-.016 9.487.148 19.655 4.567 13.623 5.92 28.746 13.822 31.708 16.568 1.983 1.837 2.33 3.041 2.33 8.084 0 5.513-.23 6.141-3.31 9.046-9.08 8.564-26.58 10.942-34.08 4.632-2.488-2.095-2.88-3.07-2.88-7.182 0-4.503-.174-4.83-3.256-6.118-6.281-2.625-22.95-8.13-23.363-7.717-.23.23 1.727 1.504 4.347 2.832 6.906 3.5 9.808 7.33 9.808 12.945 0 5.666-1.413 7.645-6.258 8.769-16.293 3.777-44.398-5.033-55.596-17.428-3.488-3.86-3.571-4.124-3.095-9.824.66-7.903 2.161-10.743 6.85-12.95 7.81-3.674 9.053-3.536 17.41 1.933 7.007 4.585 14.243 8.294 19.192 9.837 1.907.595 1.955.424 1.093-3.945-1.285-6.514.108-9.401 5.77-11.964 3.636-1.646 6.423-2.07 13.675-2.085m.036.414c-1.28.253-2.24 1.272-3.252 2.032-2.044 1.784-4.099 3.637-5.63 5.896-.595.713-.332 2.244.793 2.125 1.457-.356 2.493-1.573 3.594-2.515 1.86-1.84 3.861-3.652 5.093-5.995.334-.58.263-1.578-.598-1.543m8.415 1.46q-.075-.002-.15.007c-1.372.356-2.344 1.524-3.374 2.427-1.934 1.98-3.874 4.042-5.17 6.508-.364.752-.45 2.056.5 2.391 1.11.084 1.863-.973 2.615-1.633 2.1-2.304 4.222-4.643 5.795-7.35.327-.649.902-1.625.213-2.222a.87.87 0 0 0-.429-.128m-21.837 1.945c-1.233-.025-2.473 1.23-1.96 2.478.268.864 1.374 1.313 2.101.7.909-.55 1.71-1.963.783-2.847a1.36 1.36 0 0 0-.924-.331m30.08.988c-1.178.193-1.989 1.23-2.863 1.961-2.305 2.29-4.542 4.708-6.242 7.49-.67.9-.563 2.478.604 2.902 1.029.184 1.716-.84 2.38-1.463 2.35-2.61 4.478-5.445 6.221-8.496.316-.66.98-1.607.332-2.252a.64.64 0 0 0-.431-.142m-68.885.796a6 6 0 0 0-.448.01c-2.774.268-5.33 1.857-7.112 3.953-.922 1.063-1.417 2.504-1.096 3.902.103.752.428 1.975 1.415 1.784 1.435-.727 2.544-1.967 3.733-3.032 1.547-1.562 3.208-3.055 4.468-4.869.488-.569.341-1.619-.514-1.702a2.6 2.6 0 0 0-.446-.045zm9.555 1.916q-.067-.002-.134.005c-1.502.336-2.575 1.585-3.71 2.541-2.714 2.634-5.445 5.315-7.562 8.468-.343.515-.853 1.515-.066 1.866.894.146 1.598-.677 2.294-1.124 3.249-2.619 6.306-5.495 9.06-8.632.6-.723 1.497-1.694.898-2.68a.93.93 0 0 0-.78-.444m67.406.285q-.06-.002-.12.003c-1.777.148-2.86 1.737-3.956 2.945-1.788 2.233-3.581 4.533-4.732 7.17-.298.536-.208 1.554.596 1.453 1.244-.354 2.091-1.473 3.035-2.298 2.08-2.21 4.204-4.444 5.738-7.08.396-.634.722-1.798-.208-2.137a1.5 1.5 0 0 0-.353-.056m-41.111 1.359c-.846.05-.917.785-.917 2.909 0 1.802.54 3.995 1.199 4.873s6.86 3.496 13.778 5.819 13.386 4.673 14.372 5.225c3.53 1.975 6.534-3.423 3.667-6.59-.92-1.017-2.051-1.85-2.513-1.85s-6.337-2.123-13.054-4.72c-6.718-2.595-13.392-5.015-14.831-5.377-.772-.193-1.316-.312-1.701-.289m48.717 2.339c-1.49.325-2.406 1.704-3.444 2.707-3.604 3.993-7.039 8.154-10.154 12.543-.54.864-1.465 1.869-.925 2.951.52.913 1.672.364 2.366-.014 1.018-.548 2.15-1.253 2.46-2.435 3.012-4.728 7.227-8.664 10.043-13.564.315-.611.873-1.645.074-2.114-.118-.082-.283-.076-.42-.074m-67.773.806a2 2 0 0 0-.258.014c-1.21.415-2.086 1.454-3.051 2.253-2.894 2.718-5.716 5.547-8.143 8.695-.576.638-.992 1.766-.209 2.41.965.503 1.924-.394 2.671-.922 2.963-2.444 5.52-5.333 8.117-8.152.791-1.011 1.879-1.953 2.127-3.264.04-.718-.638-1.025-1.254-1.034m74.7 3.396a.6.6 0 0 0-.118.02c-1.117.443-1.802 1.544-2.6 2.392-3.243 3.974-6.158 8.222-8.751 12.645-.487.749.094 1.804.994 1.766 1.346.092 2.19-1.206 2.987-2.094 2.753-3.576 5.158-7.405 7.614-11.186.503-.918 1.204-2.14.57-3.155-.16-.219-.421-.406-.696-.388m-66.459.786q-.069-.003-.138.003c-1.52.26-2.542 1.587-3.555 2.636-2.274 2.658-4.334 5.496-6.297 8.39-.4.56-.838 1.621.02 1.995 1.382.377 2.45-.86 3.369-1.687 2.676-2.66 5.161-5.545 7.221-8.711.39-.65 1.007-1.637.248-2.262a1.3 1.3 0 0 0-.868-.364M33.365 90.69c-.813.039-.945 1.035-.552 2.996 1.569 7.845 17.331 17.583 34.619 21.387 6.131 1.35 18.564 1.661 22.532.565 2.055-.567 2.437-1.296 2.686-5.113l.29-4.452-10.357.545c-8.568.451-11.71.203-18.185-1.435-9.232-2.336-21.415-7.757-26.393-11.744-2.333-1.869-3.827-2.787-4.64-2.749m109.016 1.696a1 1 0 0 0-.117.014c-1.456.4-2.515 1.607-3.599 2.593-1.533 1.608-3.142 3.27-4.012 5.348-.345.74.03 1.887.979 1.817 1.581-.217 2.803-1.406 4.002-2.368 1.507-1.398 3.12-2.775 4.185-4.556.567-.884.214-2.087-.696-2.581-.213-.17-.471-.282-.742-.267m-65.794.568q-.113-.003-.221.004c-1.273.356-2.167 1.463-3.144 2.293-2.321 2.31-4.615 4.706-6.377 7.48-.524.773-.625 2.146.312 2.637 1.11.273 1.998-.733 2.803-1.338 2.43-2.244 4.746-4.635 6.773-7.254.59-.9 1.508-1.948 1.16-3.101-.222-.513-.782-.706-1.306-.721m68.849 5.495c-.785-.007-2.101.751-4.276 2.227-7.22 4.9-21.614 6.934-27.467 3.881l-2.636-1.375v4.784c0 4.467.206 4.876 3.116 6.196 2.166.982 5.454 1.31 10.786 1.075 12.38-.542 21.573-6.396 21.573-13.736 0-2.051-.207-3.044-1.096-3.052m-59.771.257c-1.412.214-2.412 1.412-3.309 2.427-.784 1.045-1.812 2.301-1.465 3.696.364.97 1.577.666 2.22.175 1.534-1.07 2.97-2.356 4.036-3.904.542-.688.584-1.94-.407-2.24-.343-.127-.711-.158-1.075-.154m57.38 29.39c-.608.078-1.82.506-4.242 1.36-15.073 5.318-50.373 7.673-73.768 4.922-11.135-1.309-22.184-3.538-29.243-5.9-4.005-1.34 2.802 3.607 8.644 6.281 5.218 2.39 19.669 5.982 28.27 7.028 1.845.224 10.906.267 20.134.095 13.822-.258 18.596-.74 27.092-2.736 9.799-2.301 23.723-8.352 23.723-10.309 0-.545-.003-.818-.61-.74"/></svg>