<svg xmlns="http://www.w3.org/2000/svg" xml:space="preserve" width="184.511" height="365.809" viewBox="0 0 48.819 96.787"><path d="M14.07.001c-.273-.009-.449.035-.545.13-.35.352-.609 4.078-.312 4.506.156.223 2.064.391 6.3.554 3.34.128 8.129.252 10.639.274l4.564.04V1.008L33.195.997c-6-.047-16.841-.535-17.998-.81-.485-.114-.855-.176-1.127-.185m23.466 1.346c-.381.186-.439 1.725-.439 6.368 0 4.628-.1 6.535-.402 7.723-.22.867-1.686 4.197-3.255 7.398l-2.854 5.82-.173 17.993 16.332-8.476-.002 16.208-16.208 8.614.139 2.555c.048 18.736.123 31.237.167 31.237s3.464-1.351 7.6-3.003c4.135-1.651 7.95-3.144 8.479-3.317 1.323-.433 1.802-1.055 1.872-2.429.033-.645.036-15.014.003-31.93-.052-28.091-.094-30.759-.484-30.759-.234 0-2.824.707-5.754 1.571-6.218 1.834-10.308 2.912-10.47 2.761-.303-.283.916-.752 7.787-3 8.268-2.703 8.603-2.824 8.59-3.112-.022-.475-.798-1.53-3.206-4.353l-4.695-5.508-2.141-2.514V6.53c-.002-3.759-.077-4.726-.388-4.984-.209-.173-.372-.261-.499-.2zM13.608 7.359 12.56 9.012c-.577.91-3.406 4.63-6.287 8.268S.815 24.25.546 24.688c-.6.975-.627 1.684-.07 1.898.23.088 5.796.726 12.368 1.417 6.573.69 12.692 1.269 13.598 1.285 1.593.029 1.655.005 1.81-.697.375-1.694.844-2.802 3.31-7.823 1.429-2.908 2.723-5.871 2.876-6.584.34-1.59.367-5.682.038-5.885-.133-.082-3.913-.265-8.401-.407s-9.13-.32-10.314-.396zM.055 27.69.017 40.21c-.06 19.822.047 50.849.178 51.285.065.218.353.543.639.722.44.274 9.52 1.877 22.637 3.994 1.746.282 3.502.527 3.903.544l.727.031V63.604L2.646 60.52l.07-15.562 25.385 2.96V30.422l-2.05-.175c-1.128-.095-6.694-.64-12.37-1.209S2.62 27.932 1.71 27.846z"/></svg>