<svg xmlns="http://www.w3.org/2000/svg" xml:space="preserve" width="144.253" height="184.875" viewBox="0 0 38.167 48.915"><path d="M21.077.002c-4.205.082-8.66 2.267-12.694 6.469C3.416 11.644.79 17.898.12 26.148c-.311 3.839-.012 7.39.837 9.92C3.14 42.576 8.17 47.183 14.822 48.764c1.174.279 6.691.15 8.07-.19 3.883-.956 6.823-2.707 9.624-5.732 4.245-4.585 6.275-12.096 5.482-20.276-.775-7.999-3.637-14.86-7.879-18.894-2.652-2.522-5.771-3.732-9.042-3.669M13.24 10.357c1.083-.107 2.81-1.216 4.54 2.099.675 1.294-.366 5.229-3.147 7.393-1.21 1.115-2.92 1.849-4.32.782-1.6-1.219-2.684-3.78-2.212-4.91.91-2.176 3.852-5.288 5.14-5.364"/></svg>