<?xml version="1.0" encoding="UTF-8" standalone="no"?>
<svg
   width="60.006275mm"
   height="51.368851mm"
   viewBox="0 0 60.006275 51.368851"
   version="1.1"
   xml:space="preserve"
   xmlns="http://www.w3.org/2000/svg"
   xmlns:svg="http://www.w3.org/2000/svg"><g
     transform="translate(-84.051987,-127.65153)"><path
       style="fill:#000000"
       d="m 120.87956,178.73029 c -3.9722,-1.00141 -7.40053,-3.67785 -8.37824,-6.54076 -0.70972,-2.07819 -0.85659,-6.34629 -0.28681,-8.33513 2.02471,-7.06736 9.18993,-11.8931 16.91952,-11.39521 5.51672,0.35534 10.50833,2.81712 13.12696,6.474 3.12451,4.36333 2.13402,9.82459 -2.65079,14.61557 -2.57901,2.58234 -3.91573,3.4339 -7.07006,4.504 -2.39116,0.8112 -2.88421,0.88441 -6.42632,0.95427 -2.55689,0.0504 -4.30266,-0.0419 -5.23426,-0.27674 z m 10.22841,-1.38946 c 2.55704,-0.73757 3.28524,-1.07688 3.06744,-1.42929 -0.24319,-0.39349 -0.99546,-0.30317 -3.48561,0.41844 -1.27115,0.36837 -3.17795,0.74303 -4.23733,0.83258 -1.29518,0.10948 -1.92615,0.27288 -1.92615,0.49882 0,0.1848 0.14883,0.40077 0.33073,0.47993 0.62872,0.27361 4.04301,-0.16362 6.25092,-0.80048 z m -9.53881,-0.25587 c -0.0524,-0.26195 -0.69004,-0.61414 -1.64736,-0.90993 -1.83634,-0.5674 -3.91351,-1.93246 -5.32197,-3.49746 -1.24263,-1.38074 -1.59431,-0.89495 -0.48949,0.67616 0.92458,1.31479 3.63757,3.21674 5.33192,3.73795 1.69078,0.5201 2.23201,0.51839 2.1269,-0.007 z m 16.09458,-3.1226 c 1.06039,-0.96639 1.20399,-1.19961 0.82958,-1.34729 -0.31171,-0.12296 -0.86815,0.17164 -1.78593,0.94553 -0.73324,0.61827 -1.33316,1.22455 -1.33316,1.34729 0,0.5776 1.13055,0.1107 2.28951,-0.94553 z m -23.19159,-3.83645 c 0,-0.64748 -1.08303,-2.68373 -1.34221,-2.52355 -0.51146,0.3161 0.32005,2.7662 0.93879,2.7662 0.22188,0 0.40342,-0.10919 0.40342,-0.24265 z m 11.24479,-0.5511 c 0.26339,-0.29104 0.78786,-0.53181 1.16549,-0.53505 l 0.6866,-0.006 -0.66146,-0.5174 c -0.58907,-0.46078 -1.32292,-0.69886 -1.32292,-0.42919 0,0.055 -0.18019,0.53124 -0.40042,1.05833 -0.44185,1.05749 -0.20707,1.24664 0.53271,0.42919 z m -7.01145,-0.24403 c 0,-0.23298 -1.42084,-1.60805 -1.66158,-1.60805 -0.0976,0 -0.0587,0.31214 0.0863,0.69364 0.17109,0.44999 0.17334,0.80255 0.006,1.00369 -0.19056,0.22961 -0.0204,0.2824 0.65577,0.20346 0.5022,-0.0586 0.9131,-0.19036 0.9131,-0.29274 z m 20.24,-0.28413 c 0.0915,-0.14813 -0.0167,-0.33962 -0.24065,-0.42555 -0.36376,-0.13959 -0.36483,-0.23796 -0.01,-0.92417 0.54368,-1.05137 0.1536,-0.96292 -1.17898,0.26731 -0.91983,0.84919 -1.03475,1.05299 -0.63934,1.13383 1.08906,0.22268 1.91218,0.20222 2.06894,-0.0514 z m 1.42824,-6.32835 c 0.44313,-0.2806 0.17645,-1.17411 -0.30328,-1.01612 -0.36799,0.12119 -0.62495,1.26039 -0.28285,1.254 0.11926,-0.002 0.38302,-0.10928 0.58613,-0.23788 z m -19.1547,-1.74619 c 0.50262,-0.35743 0.48666,-0.37672 -0.31828,-0.38472 -0.4661,-0.005 -1.15121,-0.14682 -1.52248,-0.31597 -0.96777,-0.44095 -1.10105,-0.11046 -0.30268,0.75055 0.37852,0.40822 0.68823,0.85357 0.68823,0.98966 0,0.13609 0.20836,0.0425 0.46302,-0.20789 0.25466,-0.25044 0.70115,-0.62467 0.99219,-0.83163 z m 15.03302,-2.24741 c 0.27243,-1.14067 -0.10867,-1.39766 -1.29404,-0.87264 -1.01799,0.45088 -1.02428,0.46205 -0.31128,0.5528 0.40024,0.0509 0.85637,0.33303 1.01363,0.62686 0.32997,0.61656 0.37692,0.59219 0.59169,-0.30702 z m -0.87782,-3.3051 c 0,-0.21828 -0.17859,-0.39687 -0.39687,-0.39687 -0.21828,0 -0.39688,0.17859 -0.39688,0.39687 0,0.21828 0.1786,0.39688 0.39688,0.39688 0.21828,0 0.39687,-0.1786 0.39687,-0.39688 z m -6.26987,-1.31559 c 0.087,-0.42908 -2.1883,-0.69476 -2.82484,-0.32984 -0.51136,0.29316 -0.44214,0.33703 0.76034,0.48191 1.64777,0.19853 1.99864,0.17268 2.0645,-0.15207 z m -29.581165,21.28278 c -7.28386,-1.09111 -12.329167,-5.26605 -14.697443,-12.16198 -0.794068,-2.31216 -1.046891,-9.93714 -0.426744,-12.87031 1.779972,-8.41892 9.692464,-18.55071 17.109292,-21.90814 1.50453,-0.68106 2.03422,-0.78004 4.24442,-0.79309 2.39199,-0.0141 2.62953,0.0366 4.49792,0.96083 2.01508,0.99678 4.65297,3.35674 6.30289,5.63884 2.23432,3.09041 4.53327,8.64293 5.42259,13.09687 0.64487,3.22973 0.6471,3.73695 0.0175,3.97459 -0.51572,0.19464 -0.5682,0.0669 -0.88141,-2.14608 -0.18317,-1.29417 -0.45279,-2.42705 -0.59916,-2.51751 -0.61128,-0.3778 -0.71147,0.41531 -0.35346,2.798 0.20657,1.37476 0.35086,2.51956 0.32066,2.54401 -0.0302,0.0244 -0.5907,0.313 -1.24555,0.64122 -0.65484,0.32823 -1.94717,1.19642 -2.87184,1.92933 -4.80114,3.80544 -7.25646,9.07989 -6.67542,14.33998 0.13922,1.26041 0.11206,1.91509 -0.085,2.04931 -0.71834,0.4892 -3.37103,1.34341 -5.1457,1.65701 -1.07012,0.18909 -2.06583,0.46395 -2.21267,0.6108 -0.40806,0.40805 0.006,0.84247 0.80054,0.8404 1.1082,-0.003 4.97758,-0.99469 6.08525,-1.55978 l 0.9975,-0.50889 0.42645,1.18591 c 0.49333,1.37189 0.66507,1.24545 -2.43159,1.79013 -2.99723,0.52719 -6.64877,0.70068 -8.598955,0.40855 z m 0,-1.95953 c 0,-0.35243 -0.611652,-0.68746 -2.459621,-1.34727 -3.059121,-1.09226 -4.547528,-2.03697 -6.636179,-4.21208 -1.802925,-1.87756 -2.692816,-3.56356 -3.443875,-6.52481 -0.334384,-1.31839 -0.634978,-1.9826 -0.923366,-2.04029 -0.544823,-0.10901 -0.549734,0.59248 -0.01988,2.84033 1.228882,5.21343 4.860383,9.0289 10.493256,11.02485 1.353275,0.47952 2.579563,0.83957 2.725083,0.8001 0.145521,-0.0395 0.264584,-0.28284 0.264584,-0.54083 z M 96.13047,169.6804 c 0.178278,-0.46459 -0.314222,-0.88895 -1.039046,-0.89529 -0.532548,-0.005 -0.611089,0.5358 -0.145521,1.00137 0.444383,0.44438 0.992159,0.39533 1.184567,-0.10608 z m -1.927994,-6.51697 c 0.453758,0.20675 0.726185,0.21771 0.839848,0.0338 0.09253,-0.14971 0.126546,-0.29783 0.07559,-0.32914 -0.05095,-0.0313 -0.777249,-0.6279 -1.613994,-1.32577 -0.979724,-0.81711 -1.521354,-1.12582 -1.521354,-0.86712 0,0.22094 0.119063,0.4753 0.264583,0.56524 0.145521,0.0899 0.264584,0.63375 0.264584,1.20848 0,0.96533 0.03883,1.02071 0.509562,0.72673 0.389245,-0.24309 0.668145,-0.24597 1.181177,-0.0122 z m -7.822421,-9.77207 c 0.280651,-2.39206 1.345788,-6.16539 2.729499,-9.66947 0.184565,-0.46739 0.248819,-0.93655 0.142787,-1.04259 -0.855819,-0.85581 -3.571913,6.64334 -4.012718,11.07915 -0.182484,1.83634 -0.07943,2.32261 0.492226,2.32261 0.224611,0 0.435112,-0.87347 0.648206,-2.6897 z m 25.975435,0.31876 c 0,-0.28537 -0.21907,-0.73186 -0.48681,-0.99219 -0.26774,-0.26033 -0.56166,-0.68169 -0.65315,-0.93635 -0.2895,-0.80579 -0.71132,-0.50128 -0.73302,0.52917 -0.0115,0.5457 -0.0809,0.84336 -0.15434,0.66146 -0.17966,-0.44527 -0.61852,-0.42132 -0.61852,0.0337 0,0.55805 0.6016,0.91481 1.18488,0.70265 0.31799,-0.11567 0.66289,-0.0509 0.87879,0.16499 0.47809,0.47809 0.58217,0.44886 0.58217,-0.16348 z m -14.606783,-5.23583 c -0.01062,-0.40018 0.06634,-1.11456 0.17101,-1.5875 0.292282,-1.32061 -0.198366,-1.03357 -1.243695,0.72761 l -0.942246,1.5875 h 1.017117 c 0.937874,0 1.015614,-0.0567 0.997814,-0.72761 z m 21.069113,-6.91302 c 0.19292,-0.31215 -1.47989,-3.55652 -1.89827,-3.68165 -0.4986,-0.14911 -0.40929,0.24708 0.48796,2.16444 0.78659,1.6809 1.10046,2.01856 1.41031,1.51721 z m -4.88325,-1.95052 c 0.0126,-0.6922 -0.64491,-0.55833 -1.05913,0.21564 -0.30892,0.57724 -0.308,0.71279 0.006,0.90698 0.42632,0.26348 1.03961,-0.39041 1.05292,-1.12262 z m -20.496792,0.33073 c -0.08994,-0.14552 -0.03743,-0.26458 0.116677,-0.26458 0.154109,0 0.280198,-0.35719 0.280198,-0.79375 0,-0.98553 -0.675907,-1.07729 -1.098787,-0.14917 -0.350791,0.7699 -0.138699,1.47208 0.44464,1.47208 0.231437,0 0.347209,-0.11906 0.257272,-0.26458 z m 13.622092,-3.09825 c 0.0706,-0.0621 -0.12384,-0.31316 -0.43206,-0.55787 -0.30821,-0.24471 -0.70303,-0.72301 -0.87738,-1.0629 -0.41449,-0.80805 -0.57555,-0.60428 -0.66667,0.84346 l -0.0747,1.18641 0.96122,-0.14808 c 0.52868,-0.0815 1.01898,-0.19891 1.08957,-0.26102 z m -6.68501,-4.90445 c 1.2981,-1.02014 1.64099,-1.41226 1.29347,-1.47919 -0.48968,-0.0943 -3.342312,1.9525 -3.535212,2.53658 -0.214017,0.64801 0.500536,0.31097 2.241742,-1.05739 z m 9.4539,-1.23639 c 0.21566,-0.34894 -0.59403,-1.07966 -1.19634,-1.07966 -0.68095,0 -0.64514,0.37054 0.0851,0.87989 0.70282,0.49027 0.90886,0.52731 1.11129,0.19977 z" /></g></svg>
