<svg xmlns="http://www.w3.org/2000/svg" xml:space="preserve" width="159.955" height="398.852" viewBox="0 0 42.321 105.529"><path d="M4.627 105.377c-2.036-.358-3.473-1.468-4.22-3.258-.361-.862-.41-4.145-.407-27.38l.004-26.401.742-2.132c1.04-2.988 2.294-4.745 6.322-8.86 3.897-3.982 4.629-4.868 5.452-6.603.54-1.141.567-1.609.638-11.318.072-9.99.066-10.137-.493-10.893-.625-.845-.55-1.74.248-2.924.284-.423.454-1.238.47-2.258.03-1.823.4-2.693 1.288-3.03.34-.13 3.225-.264 6.41-.3 5.225-.057 5.874-.016 6.62.425 1.047.619 1.4 1.4 1.4 3.104 0 .878.15 1.522.428 1.829.679.75.796 2.71.198 3.308-.47.47-.488.997-.362 10.945l.133 10.45.726 1.378c.442.84 2.354 3.074 4.894 5.721 4.379 4.563 5.633 6.302 6.607 9.158l.591 1.735.005 26.326c.004 17.538-.087 26.66-.271 27.324-.326 1.172-1.603 2.533-3.053 3.252-.985.49-1.783.515-17.173.55-8.876.021-16.616-.045-17.198-.148zm32.739-3.474c1.21-.336 1.561-.944 1.646-2.854.12-2.71 2.236-2.425-18.012-2.425H3.172l.008 1.919c.01 2.082.24 2.592 1.472 3.233.661.345 2.935.401 16.247.401 9.887 0 15.835-.099 16.467-.274m1.657-16.656v-3.836l-17.926-.068-17.925-.068v7.94l17.925-.066 17.926-.065zm-6.688-12.17h6.85l-.08-8.401-.082-8.4-17.926-.069-17.925-.068v17.288l11.155-.175c6.136-.097 14.24-.176 18.008-.176m2.295-20.109h4.604l-.167-2.36c-.305-4.29-1.174-5.77-6.692-11.398-3.788-3.864-4.4-4.684-5.428-7.276-.717-1.81-.857-2.548-.963-5.094l-.125-2.976H16.4V26.1c0 2.95-.365 4.597-1.588 7.161-.897 1.878-1.463 2.575-4.955 6.085-4.402 4.428-5.345 5.658-6.139 8.013-.547 1.626-.77 5.283-.348 5.733.11.116 6.152.136 13.428.044s15.3-.167 17.832-.168M20.478 33c-.429-.18-1.165-.766-1.635-1.302-.737-.84-.855-1.17-.855-2.401 0-1.237.078-1.453.579-1.612.467-.148.769.04 1.563.97l.985 1.155 1.167-1.253c.642-.69 1.304-1.253 1.47-1.253.554 0 .913 1.113.786 2.434-.213 2.215-2.39 3.964-4.06 3.262"/></svg>