<?xml version="1.0" encoding="UTF-8" standalone="no"?>
<svg
   width="95.081314mm"
   height="73.09037mm"
   viewBox="0 0 95.081314 73.09037"
   version="1.1"
   xml:space="preserve"
   xmlns="http://www.w3.org/2000/svg"
   xmlns:svg="http://www.w3.org/2000/svg"><path
     style="fill:#000000"
     d="m 41.979427,0.00305334 c -1.212672,-0.0546 -2.441849,0.62384 -2.775541,1.95336996 -0.31608,1.2594 0.562558,2.98184 1.717208,3.36672 0.24741,0.0825 -0.04498,0.89549 -1.02526,2.84892 -1.20661,2.4044597 -3.110888,5.5805397 -3.345533,5.5805397 -0.147664,0 -3.208319,-4.0994397 -4.041097,-5.4125897 l -0.808736,-1.27537 0.519348,-0.66043 c 0.668068,-0.84931 0.688934,-2.47028 0.03927,-3.05821 -0.26421,-0.23911 -0.83795,-0.50636 -1.274857,-0.59376 -1.127781,-0.22556 -2.477885,0.91972 -2.477885,2.10168 0,1.03706 0.577238,1.90774 1.401465,2.1146 0.58851,0.14771 0.610574,0.23321 0.439249,1.68414 -0.185557,1.5714797 -1.317504,7.2623997 -1.48363,7.4594897 -0.131966,0.15656 -1.961788,-1.32583 -4.660697,-3.77548 -2.288495,-2.07714 -2.313057,-2.11305 -1.899626,-2.7440197 0.67483,-1.02992 0.574284,-2.18453 -0.252181,-2.89543 -0.394752,-0.33955 -1.018046,-0.61753 -1.384928,-0.61753 -0.80567,0 -2.213819,1.32574 -2.213819,2.08411 0,1.25166 1.069584,2.4137997 2.22157,2.4137997 0.391473,0 2.224519,5.74953 2.957442,9.27644 0.255253,1.22831 0.542858,2.32561 0.639238,2.43861 0.09638,0.11301 1.416328,-0.10759 2.933154,-0.49041 3.756784,-0.94816 10.766406,-1.19547 14.794446,-0.52193 3.57808,0.59829 8.26984,1.47559 11.34143,3.04477 2.95384,1.50903 2.61489,0.96948 2.78742,0.54881 0.0746,-0.1819 0.37687,-0.65702 1.02526,-2.25775 0.6484,-1.60073 1.96056,-4.54752 2.9161,-6.54843 1.61169,-3.3749 1.79013,-3.63802 2.46704,-3.63802 1.70738,0 2.65821,-2.4711997 1.42523,-3.7041697 -0.78655,-0.78656 -2.24379,-0.70493 -3.05562,0.17105 -0.72068,0.77763 -0.7996,1.3246597 -0.33797,2.3378397 0.28353,0.62227 0.22005,0.77537 -0.7276,1.75493 -1.25218,1.29436 -6.14143,4.61192 -6.40633,4.34702 -0.22362,-0.22362 -0.52984,-3.94028 -0.56224,-6.8249 -0.0182,-1.6217497 0.0569,-2.0505197 0.35915,-2.0505197 0.55613,0 1.69465,-1.10353 1.77405,-1.7198 0.30295,-2.35005 -2.32056,-3.6006 -3.74757,-1.78645 -0.63287,0.80456 -0.66069,1.41868 -0.11162,2.48047 0.3969,0.76752 0.38437,0.83937 -0.31523,1.77302 -0.95327,1.2721797 -4.62621,5.0735897 -4.90202,5.0735897 -0.36581,0 -1.45211,-2.39839 -2.44637,-5.4012197 -1.105285,-3.33815 -1.124326,-3.50376 -0.42943,-3.72432 1.29585,-0.41114 1.977,-2.33118 1.29863,-3.65766 -0.49453,-0.96699996 -1.42772,-1.45304996 -2.370914,-1.49551996 z M 92.572201,9.8396633 c -0.10449,-0.003 -0.13385,0.1684097 -0.0315,0.5596597 0.25452,0.97329 -0.29772,3.72546 -1.04335,5.19917 -1.02931,2.03439 -3.29005,4.39649 -7.89099,8.24394 -2.18759,1.82933 -6.02637,5.33943 -8.53023,7.80055 -3.07405,3.02157 -4.68187,4.42521 -4.95163,4.3217 -0.21972,-0.0843 -1.50517,-0.85398 -2.85616,-1.71049 -9.86615,-6.25504 -16.49567,-8.99108 -24.815538,-10.24071 -4.284474,-0.64351 -12.927089,-0.50968 -15.872933,0.24598 -0.218281,0.056 -0.746212,0.18015 -1.173055,0.27595 l -0.77618,0.17415 1.56993,0.99477 c 2.76839,1.754 5.140797,4.76646 6.231145,7.91321 3.077091,8.88047 -2.288795,18.93246 -11.411707,21.37854 -0.94404,0.25312 -1.808137,0.53824 -1.920296,0.63304 -0.499921,0.42259 9.255492,1.84808 12.673128,1.85208 l 1.885673,0.002 1.318266,1.78593 c 5.04893,6.83996 11.768927,11.31535 19.781217,13.17388 2.48274,0.57594 4.63021,0.81682 4.63021,0.51935 0,-0.0723 -0.5953,-0.70532 -1.32291,-1.40664 -1.4829,-1.42933 -1.72486,-2.04117 -0.64441,-1.63039 0.82968,0.31545 1.43816,0.33232 1.43816,0.0398 0,-0.12008 -0.53579,-0.908 -1.19063,-1.75131 -1.57905,-2.03351 -1.5435,-2.32116 0.19844,-1.60404 0.73624,0.3031 0.56287,-0.38811 -0.4563,-1.82159 -0.9384,-1.31989 -0.99199,-1.88706 -0.154,-1.62109 0.52866,0.16779 1.21012,-0.4858 0.94826,-0.90951 -0.0939,-0.1519 -0.50943,-0.27595 -0.92294,-0.27595 -1.71696,0 -7.09708,-1.11858 -10.13633,-2.10736 -6.547376,-2.13009 -11.4743,-5.09772 -14.249777,-8.58243 -0.568006,-0.71316 -0.976181,-1.35283 -0.906921,-1.42213 0.06926,-0.0693 0.696146,0.3491 1.393196,0.92966 2.023808,1.68558 5.174777,3.70513 7.583,4.86068 l 2.228292,1.06919 2.87217,-0.69092 c 8.39813,-2.02128 15.34442,-5.05507 22.27151,-9.72602 1.06555,-0.7185 2.07758,-1.24982 2.24896,-1.18132 0.17138,0.0685 1.14504,0.82474 2.16369,1.68052 3.20552,2.69301 7.02704,5.723 10.45104,8.28683 6.35706,4.76006 9.02347,8.26721 9.09557,11.96309 0.0179,0.91687 -0.0641,2.01508 -0.18242,2.44068 -0.18333,0.65959 -0.15826,0.72677 0.1695,0.45475 0.62769,-0.52094 1.53953,-2.92198 1.9203,-5.05602 1.3956,-7.82179 -1.29241,-16.07011 -7.25641,-22.26634 l -2.29133,-2.38073 2.66547,-2.69596 c 3.05466,-3.0894 4.96137,-5.97568 6.19032,-9.37204 2.11043,-5.83243 2.09186,-12.04721 -0.0506,-17.07028 -0.33159,-0.77738 -0.71468,-1.2702497 -0.88884,-1.2758897 z m -70.038098,15.5261897 -1.717208,0.45062 c -5.229588,1.37161 -11.3777171,4.9211 -15.3561691,8.8656 -2.432121,2.41136 -5.23280495,6.09245 -4.88083895,6.41512 0.111732,0.10243 1.86996295,1.11017 3.90725495,2.23914 4.235585,2.34715 5.377699,3.0943 4.949569,3.23701 -0.165927,0.0553 -2.028638,-0.21493 -4.139282,-0.60048 -2.110644,-0.38555 -3.961521,-0.62462 -4.113444,-0.53072 -0.151923,0.0939 -0.51278495,0.63506 -0.80201895,1.202 -0.496452,0.97314 -0.500108,1.04421 -0.06253,1.27175 0.254933,0.13256 1.83275595,0.95907 3.50624595,1.83658 3.488152,1.82904 5.45035,2.68323 8.9958331,3.91708 1.382447,0.48111 2.751666,0.88025 3.042708,0.88625 1.213123,0.0257 5.805974,-1.33858 7.49515,-2.22622 3.532139,-1.85608 6.396719,-5.16537 7.497734,-8.66097 0.747985,-2.37477 0.925205,-6.00529 0.393774,-8.0729 -0.968849,-3.76944 -3.252843,-6.82398 -6.715869,-8.98239 z m -8.014498,8.18348 c 1.405375,0.006 2.786234,0.7211 3.421496,2.05982 0.894602,1.88524 0.317612,4.01384 -1.415417,5.22035 -2.043989,1.42299 -5.185601,0.22859 -5.845638,-2.2226 -0.384967,-1.42966 -0.10552,-2.65222 0.855761,-3.74706 0.782966,-0.89175 1.890728,-1.31553 2.983798,-1.31051 z m 50.986556,15.90652 c -0.44275,0.0136 -0.94641,0.1924 -1.53428,0.58394 -1.00438,0.65978 -3.11405,1.8279 -4.6886,2.59623 -5.40157,2.63576 3.38714,4.46142 6.92671,5.06067 1.054,0.17847 5.47262,0.19975 5.91902,0.0284 0.30897,-0.11856 0.0741,-0.48271 -0.98186,-1.52135 -2.62644,-2.07795 -3.25014,-6.82149 -5.64099,-6.74791 z" /></svg>
