<?xml version="1.0" encoding="UTF-8" standalone="no"?>
<svg
   width="112.44053mm"
   height="51.30444mm"
   viewBox="0 0 112.44053 51.30444"
   version="1.1"
   xml:space="preserve"
   xmlns="http://www.w3.org/2000/svg"
   xmlns:svg="http://www.w3.org/2000/svg"><path
     style="fill:#000000"
     d="m 54.210926,50.48981 c -1.66168,-0.85194 -5.41481,-4.40876 -6.28038,-5.95188 l -0.45954,-0.81926 3.04756,-0.32828 c 4.21292,-0.45381 6.44614,6.3e-4 6.98641,1.42167 0.24004,0.63135 -0.0622,5.73242 -0.36906,6.22894 -0.29884,0.48353 -1.26012,0.30238 -2.92499,-0.55119 z m 22.64952,-5.97144 c -1.43952,-0.9764 -5.84848,-4.9979 -5.84848,-5.33451 0,-0.0998 2.0605,-1.1584 4.5789,-2.35245 3.9287,-1.86272 4.7765,-2.171 5.97051,-2.171 1.67553,0 2.462,0.35114 2.23136,0.99623 -0.0903,0.25244 -0.60848,1.23289 -1.15161,2.17877 -0.54314,0.94589 -1.43564,2.91042 -1.98334,4.36563 -0.5477,1.45521 -1.11118,2.79466 -1.25218,2.97656 -0.41176,0.53123 -1.02375,0.37271 -2.54516,-0.65923 z M 36.003448,42.20678 c -1.428383,-0.2041 -3.511977,-0.55657 -4.630208,-0.78327 -2.424136,-0.49144 -8.546787,-2.25433 -8.889253,-2.55948 -0.136122,-0.12129 0.04296,-0.32336 0.410369,-0.46305 0.358539,-0.13632 1.404129,-0.72348 2.323533,-1.3048 l 1.671643,-1.05696 1.891061,1.02002 c 2.402684,1.296 4.875396,1.94544 6.620277,1.73879 2.684256,-0.31791 5.613676,-2.4073 6.794176,-4.84589 0.54162,-1.11883 0.54588,-1.19092 0.0996,-1.68402 -0.25641,-0.28333 -0.89484,-0.63422 -1.41873,-0.77974 -1.352499,-0.3757 -7.232425,-0.31286 -9.3664,0.10009 -1.576276,0.30504 -1.780651,0.29961 -1.648877,-0.0438 1.602887,-4.17705 -0.0056,-8.55157 -3.870533,-10.52665 -0.678309,-0.34662 -1.749871,-0.66335 -2.38125,-0.70382 -0.997421,-0.0639 -1.158495,2.6e-4 -1.228293,0.48956 -0.06885,0.48264 0.09086,0.58881 1.11722,0.74272 1.437963,0.21564 3.483093,1.52819 4.314445,2.76899 2.415152,3.60463 0.710323,8.67271 -4.009585,11.91961 l -1.304086,0.8971 1.392399,-1.67313 c 1.678537,-2.01697 2.670981,-3.54883 2.670981,-4.12273 0,-0.68507 -0.406594,-0.35042 -1.676424,1.37978 -1.468799,2.00131 -3.955144,4.10846 -5.579996,4.729 -0.905968,0.34599 -1.605718,0.42236 -2.735189,0.29853 C 12.67101,37.31611 5.8889728,34.96952 2.1740108,32.7625 0.13567476,31.55155 -0.31245924,30.99996 0.18705176,30.31683 c 0.305337,-0.41757 0.498151,-0.40358 2.84587404,0.20641 2.219648,0.57671 5.93505,1.22675 7.0116992,1.22675 0.207751,0 0.37773,-0.10419 0.37773,-0.23154 0,-0.48481 -4.1010812,-3.03819 -6.3008562,-3.92298 -2.622031,-1.05463 -2.95956,-1.27726 -2.95956,-1.95214 0,-0.66133 1.042091,-1.23364 9.3927072,-5.15845 10.145674,-4.76849 13.869377,-6.17394 20.531286,-7.74921 5.064744,-1.19761 12.965824,-1.51437 17.825704,-0.71464 4.41408,0.72636 12.46153,3.02064 19.63646,5.59824 6.52842,2.34534 13.6143,4.63712 15.90028,5.14262 2.56461,0.56711 5.82969,0.64536 7.11746,0.17057 1.56396,-0.57661 3.18591,-1.96311 6.07275,-5.19118 1.58091,-1.76779 3.762924,-3.92077 4.848904,-4.78439 3.05473,-2.42928 7.86157,-4.61978 9.09719,-4.14563 0.24706,0.0948 0.43767,0.45852 0.43767,0.83514 0,0.36696 -1.41124,3.73687 -3.13609,7.4887 -1.72485,3.75182 -3.30201,7.28034 -3.5048,7.84115 l -0.36871,1.01965 1.98053,3.73694 c 4.82852,9.1106 5.70645,10.97929 5.38948,11.47152 -0.23691,0.3679 -0.59568,0.4511 -1.68396,0.3905 -3.38156,-0.18829 -8.27743,-2.65092 -13.493114,-6.78708 -3.1809,-2.52253 -4.44589,-3.11751 -6.947,-3.26749 -3.55488,-0.21318 -7.74466,0.93708 -14.48425,3.9765 -7.47698,3.37198 -12.9961,4.98906 -21.56354,6.31805 -4.55675,0.70684 -14.449368,0.90892 -18.207478,0.37193 z M 13.762642,34.60707 c 0.337558,-0.54618 0.09364,-2.40699 -0.425434,-3.24558 -0.777385,-1.25589 -2.036251,-2.34649 -2.502153,-2.16771 -0.585282,0.2246 -0.512084,0.57814 0.218858,1.05707 1.087102,0.7123 1.829318,2.18253 1.63221,3.2332 -0.09501,0.50643 -0.100406,1.03782 -0.012,1.18087 0.222202,0.35952 0.851227,0.3261 1.088518,-0.0578 z m 1.907836,-7.96494 c 0.774136,-0.37258 1.36649,-1.49027 1.36649,-2.57837 0,-1.15769 -1.477206,-2.63251 -2.636769,-2.63251 -1.734252,0 -2.904517,1.12809 -2.913598,2.80859 -0.0072,1.33202 0.744424,2.38508 1.928992,2.70262 0.883406,0.23681 1.236591,0.18977 2.254885,-0.30033 z m 17.373781,10.65068 c -1.383952,-0.23158 -5.3095,-2.10112 -5.267217,-2.50851 0.05498,-0.52971 1.413,-1.19725 3.282842,-1.61369 1.995193,-0.44437 9.551382,-0.68868 9.919332,-0.32072 0.49144,0.49144 -1.848834,3.21228 -3.437041,3.99597 -1.079047,0.53245 -2.90352,0.71375 -4.497916,0.44695 z M 83.711966,21.38597 c -2.55714,-0.5438 -5.29167,-1.34603 -5.29167,-1.55243 0,-0.22498 2.43043,-1.0025 3.86165,-1.23539 1.03186,-0.16791 2.15743,0.40197 3.24865,1.6448 1.25493,1.42928 0.81821,1.70376 -1.81863,1.14302 z m -28.01412,-8.96873 c -3.72014,-0.9937 -8.40146,-1.83391 -10.21788,-1.83391 -1.09818,0 -1.05885,-0.20023 0.49232,-2.50685 C 48.053686,4.98139 53.728476,0 55.172996,0 c 0.2607,0 1.13657,1.04625 2.1596,2.57969 1.56058,2.33918 3.94994,4.90604 6.89175,7.40371 0.61429,0.52156 0.97237,1.03697 0.91769,1.32091 -0.13442,0.69798 -1.8538,1.38872 -4.97799,1.99985 -0.3638,0.0712 -2.37359,-0.32795 -4.4662,-0.88692 z" /></svg>
