<?xml version="1.0" encoding="UTF-8" standalone="no"?>
<svg
   width="110.51366mm"
   height="62.279472mm"
   viewBox="0 0 110.51366 62.279472"
   version="1.1"
   xml:space="preserve"
   xmlns="http://www.w3.org/2000/svg"
   xmlns:svg="http://www.w3.org/2000/svg"><path
     style="fill:#000000"
     d="m 62.576034,0.00618618 c -0.47075,0.04647 -1.22536,0.33962 -2.3611,0.889352 C 55.843874,3.0112492 52.253694,6.2817532 47.812077,12.193556 l -2.007629,2.672188 -3.125391,0.154513 C 35.969503,15.351538 31.10702,16.766044 21.562,21.164068 c -2.910416,1.341022 -5.850549,2.574001 -6.533452,2.739884 -2.170698,0.527281 -4.420159,0.371317 -7.2584712,-0.503328 -1.436726,-0.442736 -2.871197,-0.740349 -3.187403,-0.661459 -0.922842,0.230245 -2.239175,1.490573 -2.764172,2.646351 -0.506912,1.115964 -0.678742,3.582727 -0.249597,3.582727 0.136209,0 0.512247,-0.471105 0.835608,-1.046448 0.496816,-0.883966 0.839956,-1.045423 1.423685,-0.889352 -0.07124,0.387461 -0.125573,0.852186 -0.125573,1.406633 0,1.925148 0.257581,2.002749 1.877921,0.564823 l 1.152901,-1.023193 1.064018,0.514697 c 0.585393,0.283047 1.243129,0.609359 1.46141,0.725021 0.269757,0.142937 0.396875,0.623346 0.396875,1.500166 0,1.41945 0.316427,1.56321 1.3399702,0.60875 0.300421,-0.28015 0.641448,-0.509014 0.758093,-0.509014 0.350244,0 2.833734,1.883744 4.327901,3.283004 1.185505,1.11021 3.231327,3.95345 3.231327,4.49068 0,0.0901 -0.271124,0.16382 -0.602547,0.16382 -0.331422,0 -0.837438,0.15987 -1.124479,0.35553 -0.28704,0.19565 -0.760057,0.42568 -1.051099,0.51108 -0.291041,0.0854 -1.881897,0.63107 -3.535184,1.21233 -1.653286,0.58126 -3.1415692,1.00429 -3.3072922,0.93999 -0.165723,-0.0643 -0.584513,-0.53164 -0.930693,-1.03869 -0.807001,-1.18199 -1.085836,-1.16434 -1.108976,0.0703 -0.01023,0.5457 -0.109861,1.22488 -0.221175,1.50947 -0.175935,0.4498 -0.234019,0.46362 -0.444417,0.1049 -0.133119,-0.22696 -0.49986,-0.54809 -0.815454,-0.71365 -0.315594,-0.16555 -0.653963,-0.66621 -0.751893,-1.11208 -0.250322,-1.13972 -0.962911,-0.91998 -1.336352,0.41186 -0.162888,0.58093 -0.476391,1.0913 -0.697115,1.1343 -0.389325,0.0759 -1.501431,-1.01915 -2.348177,-2.31252 C 0.59347984,39.15138 -0.00249216,39.26598 7.8392914e-6,40.03012 0.01220784,43.72998 4.1583288,46.35933 10.714083,46.82454 c 3.817544,0.2709 14.937501,2.1636 20.108333,3.42253 2.619375,0.63774 5.293226,1.26014 5.941756,1.38338 1.151629,0.21884 1.191557,0.26132 1.725477,1.81177 1.090334,3.16624 3.615575,6.90478 5.256526,7.78299 0.556027,0.29759 0.760063,0.30315 1.089856,0.0294 0.548925,-0.45557 0.504096,-1.79973 -0.150895,-4.50515 -0.711714,-2.93972 -0.898041,-4.49791 -0.537435,-4.49791 0.155054,0 0.422901,0.26275 0.594796,0.58394 0.667104,1.24649 3.129283,4.36445 4.291211,5.43378 1.499326,1.37985 3.880656,2.9236 5.468916,3.54552 1.52775,0.59825 2.61271,0.62041 2.82877,0.0574 0.0997,-0.25993 -0.35443,-1.45343 -1.13275,-2.97657 -1.20121,-2.35073 -1.30036,-2.69017 -1.31206,-4.49636 l -0.0124,-1.95389 -1.156,-0.42736 c -1.55377,-0.57469 -1.6239,-0.99469 -0.22479,-1.34721 2.41378,-0.60817 5.99505,-1.96706 8.1225,-3.0825 l 2.21795,-1.16323 1.22163,1.13895 c 4.43897,4.1403 11.89627,7.61255 12.57133,5.85339 0.089,-0.23204 -0.28205,-1.80962 -0.82424,-3.50573 -0.78741,-2.46317 -0.98563,-3.49647 -0.98598,-5.13354 l -5.2e-4,-2.04949 -0.89969,-0.16846 c -0.49489,-0.0933 -2.10549,-0.0917 -3.57911,0.004 l -2.67942,0.17311 1.66966,-0.9555 c 0.91826,-0.52564 2.64467,-1.32431 3.83646,-1.77508 1.9062,-0.72098 2.50269,-0.82151 4.95784,-0.83561 2.71607,-0.0156 2.8458,0.0109 4.84053,0.99632 1.12733,0.55691 3.24483,1.9647 4.70566,3.12849 6.02068,4.79648 10.60867,7.04971 16.385036,8.04654 2.41355,0.41651 5.27668,0.3424 5.27668,-0.13643 0,-0.11757 -0.6846,-0.72596 -1.52135,-1.35237 -4.7533,-3.55843 -7.54836,-7.23481 -10.496516,-13.80742 -0.37533,-0.83674 -0.97134,-2.16092 -1.32498,-2.94246 l -0.64337,-1.4211 0.63252,-0.930177 c 0.34772,-0.511714 1.18896,-2.20208 1.86965,-3.75636 2.334266,-5.330039 6.180356,-10.670807 9.654706,-13.40745 1.15704,-0.911368 2.06205,-1.782901 2.01125,-1.936316 -0.0542,-0.163601 -1.17793,-0.30925 -2.71715,-0.35295 -2.10998,-0.0599 -3.14271,0.0564 -5.26996,0.594796 -5.092306,1.288836 -9.494216,3.984109 -15.323096,9.382373 -4.39537,4.070656 -6.87035,5.006989 -10.96471,4.148067 -2.06703,-0.433626 -3.78537,-1.154538 -3.93877,-1.652612 -0.0511,-0.165845 0.30868,-0.549359 0.79943,-0.852662 2.24808,-1.389386 2.88037,-2.619063 1.68155,-3.269051 -0.34407,-0.186549 -1.3679,-1.203941 -2.27531,-2.260844 -0.90741,-1.056903 -2.32231,-2.360237 -3.14451,-2.896464 -0.8222,-0.536226 -1.76873,-1.360016 -2.17661,-1.762166 -0.93258,-0.919468 -0.68166,-0.160968 -1.42679,-1.468644 -0.14468,-0.25391 -0.79769,-0.956454 -1.54978,-2.7739908 -0.27717,-0.669807 -0.82637,-1.178376 -0.97203,-1.449524 -0.41779,-0.777711 -0.21536,-0.60377 -0.31368,-2.233972 -0.022,-0.364407 0.33619,-2.60796 0.31368,-4.20697802 -0.006,-0.437579 -0.18709,-0.637646 -0.65784,-0.591179 z M 83.432644,38.34369 c -2.07263,-0.34253 -6.0405,-0.64898 -8.68939,0.10542 -2.47384,0.70455 -3.47411,1.24132 -8.76278,4.70255 -6.63117,4.33985 -12.22968,6.5145 -18.682061,7.25641 v -5.2e-4 c -4.905447,0.56404 -9.194446,0.10209 -16.211413,-1.74666 -1.891771,-0.49843 -3.707474,-0.90646 -4.034896,-0.90692 -1.061219,-0.001 -0.631907,-0.42242 0.926041,-0.90744 3.338512,-1.03933 6.227257,-3.41123 7.659998,-6.29006 2.348468,-4.7188 0.742791,-10.293688 -4.667415,-16.206243 l -1.440739,-1.574064 0.84801,-0.346233 c 1.09482,-0.446733 6.070734,-1.793593 8.117334,-2.197281 2.406981,-0.474772 11.059361,-0.651197 13.667381,-0.278536 3.22244,0.460455 6.87077,1.24394 7.91321,1.699121 5.13886,2.243896 12.28559,5.222363 13.34441,5.561417 3.18147,1.018772 7.05179,0.99225 10.12548,-0.06925 0.83377,-0.287943 1.86109,-0.852604 2.19108,-0.665593 2.50026,1.416959 3.22579,12.777802 -2.30425,11.863882 z M 28.176583,23.774244 c 0.122768,-0.005 0.228412,0.0017 0.307992,0.0217 0.697886,0.175159 3.580948,3.491845 4.812626,5.536096 2.500819,4.15067 2.936039,7.3784 1.417484,10.52132 -1.457687,3.01695 -4.929574,5.67557 -8.522477,6.52621 -1.761447,0.41709 -4.189161,0.5588 -5.688542,0.33178 -1.271924,-0.19259 -4.594023,-0.55384 -9.921875,-1.07797 -2.9686822,-0.29204 -4.7667802,-0.79292 -6.2177082,-1.73272 -0.582087,-0.37703 -0.820209,-0.60504 -0.529167,-0.50694 1.289517,0.43472 7.2392652,0.46027 9.6924322,0.0419 1.362963,-0.23246 3.014183,-0.50065 3.669027,-0.59635 1.359167,-0.19863 1.998294,-0.47951 2.84427,-1.25005 0.479172,-0.43644 0.595313,-0.82599 0.595313,-1.99471 0,-1.65847 -0.648569,-2.98837 -2.562634,-5.25653 -2.112547,-2.50336 -8.1712122,-6.595894 -12.0840172,-8.162297 -0.969219,-0.388005 -1.827844,-0.811501 -1.907894,-0.941028 -0.301151,-0.487274 0.817677,-0.207703 2.127002,0.531234 0.746951,0.421553 2.259218,1.08646 3.360518,1.477429 1.6440412,0.583643 2.3575522,0.695161 3.9863202,0.622701 l 1.983858,-0.08837 -0.02687,0.983919 c -0.02163,0.804494 0.160906,1.176313 0.998905,2.034501 2.263787,2.318331 5.851428,2.953221 8.251693,1.460371 0.68506,-0.42607 1.614259,-1.232407 2.06499,-1.791617 0.72053,-0.893948 0.819588,-1.216419 0.819588,-2.671155 0,-1.025033 -0.140202,-1.823555 -0.368453,-2.09858 -0.546883,-0.658954 -0.68988,-0.314293 -0.68988,1.661914 0,1.532698 -0.101031,1.915168 -0.72037,2.727999 -1.580419,2.074179 -4.373893,2.613649 -6.84661,1.321879 -1.731142,-0.904351 -2.487633,-2.04403 -2.238623,-3.371366 0.248734,-1.325865 0.942061,-1.23039 0.942061,0.129708 0,0.795403 0.197647,1.274687 0.818038,1.981274 1.543916,1.758424 3.997496,1.888674 5.726266,0.304374 0.816258,-0.748044 0.961877,-1.065216 1.066084,-2.321822 0.08523,-1.027797 -0.0068,-1.702589 -0.313675,-2.295984 -0.422971,-0.817936 -0.41874,-0.846523 0.168981,-1.070218 0.332101,-0.126403 1.078938,-0.428115 1.659331,-0.670761 0.435294,-0.181982 0.957714,-0.302688 1.326017,-0.31781 z m -6.104537,2.30787 c 0.502495,0.02071 0.958201,0.229045 1.353923,0.624768 0.873774,0.873773 0.830387,1.85627 -0.124024,2.810681 -0.952593,0.952592 -2.097562,1.019997 -3.03444,0.178284 -1.110343,-0.997559 -1.035014,-2.377235 0.170015,-3.111955 0.582886,-0.355392 1.132031,-0.522487 1.634526,-0.501778 z m 5.170227,6.598046 c -0.161478,0.04 -0.09015,0.59085 0.197404,1.71204 0.341289,1.33069 0.356533,1.91921 0.09508,3.63854 -0.387017,2.5451 -0.828817,3.62463 -2.02675,4.9506 -1.364686,1.51054 -2.85297,1.99596 -6.097819,1.98696 -2.001587,-0.005 -2.649837,0.0745 -2.557467,0.31523 0.06805,0.17733 0.381481,0.37905 0.696599,0.44855 v 5.1e-4 c 0.315118,0.0691 1.585123,0.0969 2.82205,0.061 4.988748,-0.1448 7.620807,-2.73659 8.118884,-7.99434 0.196265,-2.07181 -0.07688,-3.88104 -0.702283,-4.65243 -0.268168,-0.33077 -0.448816,-0.49066 -0.545703,-0.46664 z m 21.989872,5.0953 c -2.934526,-0.13714 -8.090522,0.86875 -11.095963,2.39933 -0.966768,0.49235 -1.796502,1.09246 -1.844332,1.33377 -0.180756,0.91189 2.908347,4.96213 4.584733,6.01101 1.0478,0.6556 2.79494,0.63564 4.133081,-0.047 2.10759,-1.07521 5.16621,-4.76982 6.18619,-7.47293 0.43403,-1.15029 0.4402,-1.31111 0.0682,-1.6831 -0.3227,-0.32269 -1.05374,-0.49534 -2.031919,-0.54105 z" /></svg>
