<?xml version="1.0" encoding="UTF-8" standalone="no"?>
<svg
   width="118.77627mm"
   height="83.669136mm"
   viewBox="0 0 118.77627 83.669136"
   version="1.1"
   xml:space="preserve"
   xmlns="http://www.w3.org/2000/svg"
   xmlns:svg="http://www.w3.org/2000/svg"><path
     style="fill:#000000"
     d="m 45.747673,81.389961 c -6.139307,-5.84235 -9.591755,-12.65689 -11.656325,-23.00761 -0.951961,-4.77266 -1.284676,-5.68735 -1.296642,-3.56469 l -0.008,1.4271 -2.12059,-0.17685 c -5.518825,-0.46025 -10.958355,-2.06665 -17.145564,-5.06343 -2.366666,-1.14629 -5.6422424,-2.4659 -7.8738294,-3.17208 -2.794269,-0.88424 -4.069478,-1.42717 -4.74482903,-2.02013 -0.989424,-0.86873 -1.163167,-1.55078 -0.529094,-2.07701 0.511524,-0.42453 2.75539303,-0.11077 2.95653903,0.4134 0.07985,0.2081 0.370574,0.37835 0.646047,0.37835 0.367852,0 0.503215,-0.19322 0.50973,-0.7276 l 0.0089,-0.7276 0.810541,0.99218 c 1.010968,1.23753 1.661571,1.32295 1.496235,0.19645 l -0.116791,-0.79575 0.872646,0.95271 c 0.931667,1.01714 1.602686,1.08628 1.467057,0.15117 -0.10204,-0.70353 0.04199,-0.71141 0.953386,-0.0522 0.6309584,0.45638 0.8358234,0.48034 1.7090784,0.19984 0.545703,-0.17528 0.992188,-0.39136 0.992188,-0.48016 0,-0.2726 -2.8605554,-2.88405 -3.1591624,-2.88405 -0.154232,0 -0.280867,0.20835 -0.281411,0.46302 -6.63e-4,0.31055 -0.171058,0.18409 -0.517466,-0.38403 -0.441425,-0.72397 -1.723902,-1.66649 -2.267553,-1.66649 -0.09155,0 -0.08399,0.38695 0.0168,0.85989 0.180899,0.84887 0.170833,0.84378 -0.784847,-0.39687 -1.164121,-1.51125 -1.862616,-1.68318 -1.612347,-0.39688 l 0.167305,0.8599 -1.006178,-1.12858 c -1.144314,-1.28351 -1.667637,-1.42365 -1.667637,-0.44657 0,0.66819 -0.0054,0.66985 -0.65021303,0.19844 -1.415529,-1.0349 -1.12933,-1.59835 1.24979103,-2.4605 2.813491,-1.01956 6.298232,-2.89469 9.0577134,-4.87393 7.037402,-5.0476 12.755115,-7.61702 19.841712,-8.91647 l 3.177037,-0.58257 1.511315,-3.06574 c 0.831223,-1.68616 2.259973,-4.19556 3.175,-5.576434 2.103158,-3.173898 6.396609,-7.6402664 9.401208,-9.7798384 2.839855,-2.022257 6.748277,-3.96334696 8.154108,-4.04967896 1.615963,-0.09924 1.514237,0.639876 -0.402212,2.92235096 -0.879337,1.047284 -1.598795,1.978544 -1.598795,2.069465 0,0.09092 0.249609,0.100039 0.554686,0.02026 0.73587,-0.192434 1.297397,0.04441 1.297397,0.547226 0,0.224001 -0.543835,0.988679 -1.208523,1.699284 -1.113242,1.190145 -1.48149,2.298123 -0.712021,2.142315 1.944901,-0.393819 2.44786,-0.384843 2.613436,0.04664 0.119474,0.311346 -0.163939,0.7924404 -0.92164,1.5644804 -0.601792,0.613183 -1.094168,1.31425 -1.094168,1.557928 0,0.384373 0.222852,0.422241 1.682673,0.28592 2.081389,-0.194363 2.335383,0.09253 1.345947,1.520292 -0.399289,0.57617 -0.644935,1.12863 -0.545879,1.22769 0.09905,0.0991 0.720506,0.0356 1.381002,-0.1411 0.660496,-0.17665 1.311513,-0.25283 1.446704,-0.16927 0.505243,0.31225 0.216554,1.07005 -0.680247,1.78561 -0.85957,0.68585 -1.236371,1.51007 -0.690344,1.51007 0.129629,0 0.754707,-0.23551 1.389062,-0.52336 0.634355,-0.28784 1.289463,-0.52597 1.455795,-0.52916 0.512926,-0.01 0.644462,0.80102 0.22669,1.39747 -0.708748,1.01188 -0.497404,1.21314 0.788388,0.75077 1.091184,-0.39238 1.21923,-0.39218 1.614049,0.003 0.395397,0.3954 0.354924,0.51066 -0.518995,1.47798 -0.521309,0.57703 -0.881187,1.11579 -0.799728,1.19725 0.08146,0.0815 0.908983,-0.20795 1.838943,-0.64313 1.871167,-0.87563 2.59359,-0.89073 2.713238,-0.0567 0.0983,0.68522 -2.769532,3.27627 -3.626255,3.27627 -0.310416,0 -2.377843,-0.41172 -4.594281,-0.91493 -5.811369,-1.3194 -12.628845,-2.14115 -12.628845,-1.52223 0,0.11477 1.934765,0.47156 4.299479,0.79286 8.301807,1.128 13.875158,2.7067 25.218854,7.14346 9.52811,3.72665 11.21644,4.1336 14.09232,3.39683 2.35808,-0.60411 3.42196,-1.38219 7.98309,-5.83853 5.801229,-5.66794 10.225199,-8.96716 14.948959,-11.14834 2.95964,-1.3666 4.55929,-1.82235 5.02876,-1.43273 0.59412,0.49308 0.4851,1.0612 -0.48276,2.51568 -2.80669,4.21787 -4.6373,8.06416 -8.10617,17.03183 l -2.13083,5.50862 1.33759,3.92418 c 2.61766,7.67957 4.7564,12.32523 7.90151,17.16325 1.03172,1.58706 1.87586,2.97147 1.87586,3.07645 0,0.10499 -0.18237,0.34224 -0.40527,0.52723 -0.5389,0.44724 -1.87831,0.0575 -5.01869,-1.46048 -4.76816,-2.30475 -10.08689,-6.5266 -14.413689,-11.44115 -4.63695,-5.26683 -6.05888,-6.32816 -9.36328,-6.98876 -2.87585,-0.57492 -5.64711,0.15597 -18.132362,4.7822 -10.208023,3.78244 -19.263079,5.82731 -27.676079,6.24999 -2.898077,0.14561 -3.249158,0.11249 -4.025243,-0.37966 -1.106623,-0.70175 -2.553474,-2.69724 -3.282679,-4.52744 -0.639839,-1.60591 -0.929546,-2.03718 -1.192097,-1.77463 -0.261239,0.26124 0.903024,3.31682 1.812868,4.75783 1.142123,1.80889 2.595948,2.94398 5.732791,4.47591 3.19252,1.55913 4.563375,2.69388 5.511964,4.56264 0.948181,1.86796 1.048299,4.03611 0.360273,7.80213 -0.684898,3.74889 -0.689631,5.54288 -0.02309,8.75112 0.287218,1.38245 0.523779,2.78143 0.525691,3.10885 0.0066,1.12567 -0.98564,0.63527 -3.439677,-1.70007 z M 22.335619,50.517351 c 2.050247,-0.54767 3.560026,-1.43333 5.056787,-2.96641 4.946911,-5.06693 4.043211,-14.0641 -1.773369,-17.65551 -0.848837,-0.52411 -0.826858,-0.47525 0.371806,0.82662 0.700685,0.76101 1.653185,2.18416 2.116666,3.16254 0.795226,1.67868 0.842693,1.95027 0.842693,4.82159 0,2.90749 -0.03997,3.12799 -0.899414,4.9617 -1.4965,3.19293 -4.205299,5.23821 -7.823376,5.90705 -1.927728,0.35636 -4.681068,-0.0685 -6.413519,-0.98966 -0.853322,-0.45371 -1.118731,-0.52032 -0.867593,-0.21771 0.475284,0.57268 3.173335,1.92653 4.429479,2.22266 1.491491,0.35161 3.480155,0.32239 4.95984,-0.0729 z m 8.244999,-1.24861 c 2.390113,-1.15703 4.554744,-4.4003 5.15137,-7.71829 0.729979,-4.0596 -1.361048,-8.92395 -4.763739,-11.08187 -1.742905,-1.10532 -1.882782,-0.9307 -0.399359,0.49854 2.659014,2.5619 3.656617,5.25386 3.493505,9.42699 -0.08636,2.20935 -0.229473,2.94777 -0.818256,4.22178 -0.940613,2.0353 -2.147143,3.52394 -3.60593,4.44908 -1.416869,0.89855 -0.778119,1.03666 0.942409,0.20377 z M 15.919473,37.115161 c 2.047223,-2.24692 -0.547014,-5.75529 -3.229847,-4.36795 -0.997073,0.51561 -1.702331,1.97485 -1.468654,3.03878 0.159504,0.72621 1.231395,1.9212 1.986522,2.21465 0.773891,0.30075 1.994216,-0.0977 2.711979,-0.88548 z m 55.071762,27.63454 c -0.712361,-0.53444 -1.753853,-1.40388 -2.314425,-1.93209 -1.244789,-1.17293 -7.660887,-8.51244 -7.536581,-8.62125 0.04903,-0.0429 1.815544,-0.61436 3.925596,-1.26986 2.110052,-0.65551 5.234065,-1.68873 6.942251,-2.29605 2.447175,-0.87006 3.401015,-1.08724 4.497915,-1.02414 1.28122,0.0737 1.39212,0.13199 1.39212,0.73164 0,0.50811 -0.18931,0.70584 -0.85989,0.89817 -1.01388,0.29077 -1.07381,0.4799 -0.26458,0.83493 0.90892,0.39876 0.78071,1.3014 -0.19844,1.39703 -1.49487,0.14599 -1.62616,0.29545 -0.82248,0.93629 0.52904,0.42184 0.71556,0.77888 0.64994,1.24411 -0.0833,0.59015 -0.23971,0.66513 -1.63763,0.78478 l -1.545595,0.1323 0.685695,0.64143 c 1.23583,1.15605 0.74101,2.01998 -0.970846,1.69506 l -0.857002,-0.16266 0.727604,0.58593 c 0.879904,0.70858 0.977634,1.60586 0.174918,1.60586 -0.529978,0 -0.524093,0.034 0.143237,0.82706 0.810269,0.96295 0.756459,1.45941 -0.144311,1.33137 l -0.636865,-0.0905 0.752043,0.79197 c 1.694942,1.78495 0.01786,2.54956 -2.102674,0.95865 z" /></svg>
