<?xml version="1.0" encoding="UTF-8" standalone="no"?>
<svg
   width="72.622894mm"
   height="72.681862mm"
   viewBox="0 0 72.622894 72.681862"
   version="1.1"
   xml:space="preserve"
   xmlns="http://www.w3.org/2000/svg"
   xmlns:svg="http://www.w3.org/2000/svg"><path
     style="fill:#000000"
     d="m 39.573141,0 -1.03146,0.968933 c -1.30905,1.229235 -2.17148,3.132783 -2.43551,5.380034 -0.20753,1.760968 0.0936,2.948863 1.92339,7.610388 0.60295,1.535024 0.6903,4.136847 0.17209,5.137671 -0.29595,0.572257 -0.16203,0.521865 0.69143,-0.264067 1.58904,-1.465015 2.25916,-3.196758 2.26653,-5.849255 0.005,-1.980771 -0.14606,-2.567273 -1.16531,-4.548043 -1.43309,-2.783896 -1.76183,-5.228052 -0.96118,-7.14375 z m -5.78776,7.207312 c -0.0812,0.01637 -0.30908,0.228411 -0.69867,0.642855 -1.937783,2.06306 -2.140394,4.871051 -0.6103,8.486304 0.78715,1.859209 1.04531,2.934757 1.01338,4.216797 -0.0417,1.69711 -0.0334,1.713144 0.60151,1.138431 1.08433,-0.981175 1.62076,-2.386759 1.63918,-4.290177 0.0135,-1.477295 -0.20629,-2.2479 -1.17151,-4.114477 -1.24275,-2.399526 -1.52859,-4.358048 -0.84335,-5.766574 0.10745,-0.220798 0.13289,-0.325881 0.0698,-0.313159 z m 4.62969,18.907893 c -0.7806,0 -9.554903,4.67144 -13.202295,7.02903 -0.975533,0.63056 -2.642409,1.98212 -3.704167,3.00343 l -1.930114,1.85673 1.208711,0.008 c 1.334934,0.009 3.617166,-0.90213 3.950664,-1.03404 6.059257,-2.41357 12.072151,-5.14729 18.777661,-5.06119 2.22293,-0.0319 2.13288,-0.24035 -1.42265,-3.10524 -1.84103,-1.48341 -3.49594,-2.69699 -3.67781,-2.69699 z m -36.3786585,5.2989 c -0.394751,-7.1e-4 -0.625803,0.20676 -0.727604,0.61236 -0.35359296,1.40883 1.520983,6.36631 3.659208,9.67848 l 0.926042,1.43506 -0.999423,1.47536 c -1.396257,2.06176 -2.817348,4.98362 -3.341914,6.87038 -0.375617,1.35102 -0.388773,1.66341 -0.08527,2.02934 0.57783,0.69624 1.698643,0.33132 5.554183,-1.8092 8.1757035,-4.53897 8.0692675,-4.466 7.9700575,-5.46581 l -0.08837,-0.89246 2.072742,0.15865 c 1.140111,0.0874 5.347478,0.30256 9.3493,0.47801 6.249291,0.27399 8.486541,0.25664 15.855881,-0.12144 4.71908,-0.24211 8.62369,-0.48362 8.67699,-0.53692 0.0533,-0.0533 0.12161,-1.10429 0.15141,-2.33526 0.0499,-2.06092 0.13004,-2.36193 1.01182,-3.80235 1.35417,-2.21212 4.73098,-4.47162 4.73098,-3.1657 0,0.2105 -0.65803,0.81929 -1.46192,1.35289 -2.63456,1.74872 -3.59945,4.32961 -2.92902,7.83363 0.54586,2.85295 1.73982,5.08312 3.25199,6.07508 0.65472,0.4295 0.65859,0.45004 0.14573,0.72451 -0.29047,0.15545 -1.57759,0.58688 -2.86029,0.95859 -1.2827,0.37172 -2.39887,0.74921 -2.48047,0.83871 -0.0816,0.0899 1.10185,0.0932 2.62982,0.008 5.10655,-0.28522 9.75276,-1.87183 14.72623,-5.02915 2.1979,-1.3953 2.93103,-2.2965 1.86758,-2.2965 -0.80296,0 -3.64996,0.54548 -4.4204,0.84698 -0.6078,0.23785 -0.62316,0.28371 -0.19843,0.59428 0.25321,0.18515 0.46043,0.41118 0.46043,0.50178 0,0.24233 -2.54648,1.49097 -4.20284,2.06085 -2.09145,0.71956 -3.16136,0.64444 -4.46278,-0.31264 -1.09757,-0.80716 -2.37657,-2.527 -2.09134,-2.81223 0.0833,-0.0833 0.63522,0.042 1.22628,0.27854 1.71098,0.68459 4.84323,0.57438 6.57324,-0.231 1.64024,-0.76359 7.86392,-5.2582 8.08736,-5.84047 0.26021,-0.67809 -6.27519,-4.57583 -10.35027,-6.17326 -1.63236,-0.63989 -5.74237,-1.68812 -8.53798,-2.17713 -2.7728,-0.48501 -9.33597,-0.41174 -12.43542,0.13849 -3.22306,0.57217 -6.86574,1.69374 -10.92853,3.36517 -5.480297,2.25459 -7.859838,3.13861 -10.270174,3.8163 -2.772354,0.77948 -2.878377,0.7859 -2.878377,0.17725 0,-0.52222 -3.393358,-3.16114 -9.6769295,-7.52615 -1.728736,-1.2009 -2.84161,-1.77959 -3.499528,-1.78077 z m 59.1178385,7.65845 c 1.84009,-0.0654 3.09552,2.07608 1.68155,3.58117 -0.83276,0.88656 -2.17215,0.89072 -3.05304,0.01 -0.35719,-0.35719 -0.64906,-0.89866 -0.64906,-1.20354 0,-0.75958 0.68188,-2.0161 1.20251,-2.21589 0.28067,-0.1077 0.55517,-0.16222 0.81804,-0.17156 z m 9.51001,4.38422 c -0.49059,-0.0538 -1.65871,0.62182 -2.39468,1.43506 -0.47505,0.52501 -0.47299,0.53795 0.092,0.53795 0.86385,0 2.39828,-0.71011 2.58486,-1.19631 0.09,-0.23464 0.0374,-0.55274 -0.11679,-0.70693 -0.0392,-0.0392 -0.0953,-0.0621 -0.16537,-0.0698 z m -28.34814,3.30575 c -1.74216,-0.0713 -2.76158,0.34868 -2.76158,1.23455 0,0.76555 1.08942,2.18375 2.20193,2.86597 0.93706,0.575 1.34662,0.66239 2.69286,0.57619 1.6894,-0.10812 4.99157,-1.48609 5.26428,-2.19676 0.21695,-0.56537 -0.77445,-1.07302 -3.54552,-1.8154 -1.50115,-0.40215 -2.80667,-0.62175 -3.85197,-0.66455 z m -24.118421,1.5906 c -0.245477,0.0182 -0.34494,0.11991 -0.270784,0.31316 0.0842,0.21943 0.94833,1.48626 1.919779,2.81481 l 1.766301,2.41536 h 5.31027 c 2.92091,0 5.259165,-0.0516 5.196065,-0.11472 -0.0631,-0.0631 -1.243627,-0.52408 -2.623612,-1.02423 -1.379985,-0.50015 -4.030639,-1.6324 -5.890597,-2.51613 -2.61997,-1.24484 -4.670988,-1.94297 -5.407422,-1.88825 z m -2.625162,7.07915 c -15.11417746,0.0159 -15.32100046,0.11624 -15.46572346,0.50746 -0.393724,1.06434 0.302662,1.76782 2.06188996,2.08256 3.408238,0.60978 4.962076,1.66965 7.760766,5.29425 2.6872145,3.48023 4.6479205,4.9534 7.4000655,5.56039 1.876534,0.4139 35.463545,0.50019 37.591505,0.0966 2.91746,-0.55328 5.16791,-2.20581 7.91114,-5.80946 2.57582,-3.38374 4.25927,-4.54231 7.32359,-5.04104 0.81754,-0.13306 1.70775,-0.44261 1.97869,-0.68781 0.52492,-0.47505 0.66359,-1.54994 0.23409,-1.81539 -0.14227,-0.0879 -16.4153,-0.17014 -36.16265,-0.18294 -8.900617,-0.006 -15.595304,-0.01 -20.633363,-0.005 z m 20.902603,14.86834 c -8.488868,0 -14.075905,0.10013 -14.369669,0.25735 -0.649161,0.34742 -0.862898,0.99607 -0.532267,1.61386 0.264377,0.494 0.723201,0.51004 14.630116,0.51004 10.81422,0 14.43592,-0.0787 14.67507,-0.31781 0.43942,-0.43944 0.397,-1.15279 -0.0982,-1.64796 -0.36741,-0.36738 -2.03138,-0.41548 -14.30507,-0.41548 z" /></svg>
