<svg xmlns="http://www.w3.org/2000/svg" xml:space="preserve" width="129.033" height="158.742" viewBox="0 0 34.14 42.001"><path d="M8.066.001c-1.14-.047-2.18 1.197-1.499 2.29.498.796.395.976-.671 1.168-4.198.757-5.86 4.55-3.45 7.877.269.373.25.592-.104 1.191-.408.691-.404.772.074 1.362l.507.627L1.75 15.61c-.648.6-1.304 1.428-1.46 1.837-.315.827-.412 24.039-.102 24.349.101.099 3.642.148 7.87.11l7.692-.07.076-11.51c.042-6.33.004-11.912-.084-12.404-.108-.601-.596-1.319-1.484-2.184l-1.323-1.289.542-.688c.537-.683.446-1.399-.229-1.816-.137-.085.039-.58.391-1.1 2.15-3.166.464-6.703-3.51-7.365-1.073-.179-1.48-.684-.86-1.067.548-.339.285-1.694-.418-2.155a1.54 1.54 0 0 0-.786-.257m18.313.21c-.18-.007-.37.01-.563.059-1.024.257-1.417 1.308-.849 2.27.52.88.465.935-1.19 1.175-2.404.348-4.189 2.324-4.189 4.635 0 1.067.766 2.979 1.334 3.33.19.118.148.379-.13.802-.52.794-.52 1.284-.001 1.715.36.3.283.471-.631 1.422-1.845 1.918-1.755 1.238-1.842 14.003-.059 8.578 0 11.696.23 11.973.42.504 14.773.556 15.274.055.237-.237.318-3.255.318-11.949V18.07l-.65-1.11c-.358-.611-.954-1.31-1.324-1.551-.65-.427-.928-1.222-.425-1.222.46 0 .585-1.047.191-1.61-.352-.503-.33-.643.24-1.484 2.116-3.117.356-6.757-3.57-7.385-1.31-.21-1.544-.5-.94-1.169.858-.947-.015-2.27-1.282-2.327zM6.045 11.842c.507-.001 1.15.007 1.967.024 2.288.044 3.77.177 3.77.338 0 .16-1.481.293-3.77.338-3.265.063-3.77.018-3.77-.338 0-.268.284-.36 1.803-.363m20.29.23c3.078 0 3.836.071 3.836.363 0 .2-.372.438-.827.53-.966.192-6.03.184-6.515-.011a.59.59 0 0 1-.33-.508c0-.306.702-.375 3.836-.375M4.242 14.186h7.6l-.127.66c-.101.53.136.91 1.203 1.919 1.263 1.194 1.34 1.344 1.51 2.977.099.946.13 5.947.068 11.113l-.111 9.392-6.403.071-6.403.071.074-11.278.075-11.277 1.26-1.097c.933-.813 1.258-1.284 1.256-1.823zm22.093.265c3.233 0 3.933.157 3.933.157s-.002.84.144 1.225c.106.279.38.636.513.734 1.655 1.236 1.627 1.02 1.627 12.951V40.38H26.38c-3.396 0-6.253-.08-6.35-.177s-.177-4.863-.177-10.592c0-11.402.004-11.436 1.572-12.911 0 0 .357-.258.506-.418.182-.195.365-.404.466-.651.139-.34.169-1.09.169-1.09.01-.028.536-.09 3.77-.09m2.07 7.909c-.806-.02-1.69.223-2.626.73-2.455 1.33-2.887 1.52-3.783 1.665-.494.08-.88.236-.86.345.022.11.04 3.294.04 7.078v6.879h10.318V24.03l-.935-.82a3.32 3.32 0 0 0-2.155-.85m-.136.546q.206-.007.401.006c.625.043 1.161.251 1.567.628l.728.675V38.53h-9.26V25.366l.86-.17c.472-.094 1.571-.61 2.441-1.146 1.17-.72 2.301-1.106 3.263-1.143zm-18.189.97c-1.14.017-2.338.47-3.542 1.352-.723.531-1.863 1.105-2.533 1.275l-1.218.309-.074 6.122-.073 6.123h10.598v-14.01l-.63-.412c-.79-.518-1.64-.77-2.528-.757"/></svg>