<?xml version="1.0" encoding="UTF-8" standalone="no"?>
<svg
   width="86.916702mm"
   height="100.02702mm"
   viewBox="0 0 86.916702 100.02702"
   version="1.1"
   xml:space="preserve"
   xmlns="http://www.w3.org/2000/svg"
   xmlns:svg="http://www.w3.org/2000/svg"><path
     style="fill:#000000"
     d="m 42.94716,99.949624 c -0.71283,-0.2637 -0.80445,-0.90835 -0.99359,-6.99101 -0.13971,-4.49302 -0.72891,-11.40647 -1.20638,-14.1552 -0.21736,-1.25134 -0.4234,-1.60804 -1.470639,-2.54604 -1.984814,-1.77777 -2.377165,-1.9123 -3.517581,-1.20614 -4.417406,2.73534 -8.227092,2.99091 -12.604829,0.84559 -2.918873,-1.43039 -4.66658,-2.91662 -7.796215,-6.62977 -2.917442,-3.46141 -3.032903,-3.64283 -2.675686,-4.20436 0.206515,-0.32463 0.711069,-0.33269 3.50295,-0.056 1.793926,0.17781 4.809496,0.43396 6.701267,0.56921 3.518163,0.25153 5.536011,0.70162 7.408333,1.65248 1.492078,0.75775 3.864856,2.62665 5.065727,3.98998 0.560829,0.6367 1.55547,1.42704 2.210314,1.75631 0.654844,0.32928 1.399714,0.78252 1.655268,1.00721 0.255553,0.22469 0.506975,0.35964 0.558714,0.2999 0.179308,-0.20704 -2.184899,-9.18064 -3.391159,-12.8715 -1.129676,-3.45653 -1.279183,-3.75245 -2.200241,-4.35489 -1.624287,-1.0624 -1.833608,-1.07181 -3.725528,-0.1674 -3.517368,1.68143 -7.79287,1.22181 -11.055217,-1.18846 -1.987387,-1.46831 -5.918919,-5.62254 -5.918919,-6.25419 0,-0.59174 0.561797,-0.83381 1.524248,-0.65678 0.398591,0.0733 2.892846,0.23237 5.542789,0.35346 4.494692,0.20538 4.918645,0.26936 6.316405,0.95322 0.824079,0.40319 2.28735,1.46925 3.251712,2.36902 0.964363,0.89977 2.253549,1.87805 2.864858,2.17394 l 1.111471,0.53799 -0.397866,-0.95256 c -1.624324,-3.8889 -7.142999,-13.25568 -7.809919,-13.25568 -0.14721,0 -0.500283,0.1245 -0.784608,0.27667 -0.613545,0.32836 -9.88726,2.41705 -13.470129,3.03384 -5.261802,0.90582 -9.267311,0.54295 -10.044905,-0.91 -0.399286,-0.74608 0.370495,-2.46101 1.687423,-3.75928 l 0.975724,-0.9619 -1.149426,-0.55643 C 1.414574,37.269374 0,35.879254 0,35.033124 c 0,-0.59037 0.22437,-0.8092 1.389062,-1.3548 0.763984,-0.35789 1.835547,-0.72482 2.38125,-0.81539 0.545703,-0.0906 0.992187,-0.21841 0.992187,-0.28406 0,-0.0657 -0.54063,-0.65999 -1.201402,-1.32076 -1.181995,-1.182 -2.238181,-2.88085 -2.238181,-3.60007 0,-0.87157 1.012948,-1.32711 2.989615,-1.34447 l 1.927576,-0.0169 -1.003387,-1.939 c -2.607184,-5.03826 -0.07447,-5.95601 5.182789,-1.87803 l 0.762218,0.59124 -0.314501,-0.58765 c -0.172976,-0.32321 -0.277849,-1.02909 -0.233052,-1.56864 0.07052,-0.84935 0.179082,-0.99222 0.809054,-1.0647 0.650824,-0.0749 0.727604,-0.18938 0.727604,-1.085 0,-1.36378 0.472424,-2.61407 1.057947,-2.79991 0.642617,-0.20396 1.710021,0.0706 3.232737,0.83148 0.686386,0.34298 1.311464,0.62361 1.389062,0.62361 0.0776,0 0.141087,-0.34465 0.141087,-0.76588 0,-1.45551 1.060793,-4.27189 1.987495,-5.27675 l 0.89347,-0.96883 1.242305,0.65168 c 0.712802,0.37392 1.641978,1.18703 2.180005,1.9077 0.93141,1.24758 0.940305,1.25209 1.325948,0.67123 0.689888,-1.03911 2.008588,-2.33952 2.784169,-2.74555 1.048477,-0.54889 1.870808,-0.26244 2.593869,0.90356 0.505386,0.81498 0.61584,1.35939 0.617166,3.04194 8.88e-4,1.12712 0.033,2.04985 0.07135,2.05052 0.03835,6.7e-4 0.306657,-0.14675 0.596227,-0.32759 0.775776,-0.48448 1.432518,0.0363 1.532821,1.21549 0.04516,0.53097 0.164227,0.96533 0.264584,0.96526 0.100356,-7e-5 0.808821,-0.2382 1.574366,-0.52917 1.549582,-0.58896 3.756297,-0.69896 4.243724,-0.21153 0.448686,0.44869 0.393906,2.76645 -0.105485,4.46312 -0.582543,1.97918 -2.554241,5.73409 -4.280513,8.15183 -1.826439,2.55803 -5.194444,6.73848 -6.439684,7.99311 l -0.956724,0.96393 1.650796,2.5568 c 6.270749,9.71234 10.541946,21.18234 12.966406,34.82037 0.87276,4.90941 0.85542,4.84253 0.89163,3.43959 0.1177,-4.56103 2.23104,-16.68943 4.01744,-23.05594 l 0.78996,-2.81532 -0.54739,-1.46303 c -0.52836,-1.41215 -0.59808,-1.47897 -2.00489,-1.92147 -1.81166,-0.56984 -4.00745,-2.11659 -4.96378,-3.49658 -1.466786,-2.11657 -1.841033,-3.57513 -1.94919,-7.59662 -0.114871,-4.27111 0.113724,-6.03789 0.798272,-6.16972 0.305438,-0.0588 1.680088,1.14243 4.064488,3.55178 4.77875,4.82875 5.23483,5.72768 5.24359,10.3349 0.003,1.77047 0.0808,3.29376 0.17209,3.38508 0.0913,0.0913 0.60853,-1.2269 1.14942,-2.92937 1.06509,-3.35244 3.15083,-8.65277 4.85587,-12.33986 0.58882,-1.2733 0.97323,-2.3151 0.85425,-2.3151 -0.4303,0 -9.7229,-8.9817 -11.80091,-11.40609 -2.80211,-3.26919 -3.90062,-4.81874 -4.872459,-6.87304 -1.090998,-2.30618 -1.066508,-3.0691 0.114357,-3.5625 0.504652,-0.21085 1.487772,-0.38337 2.184722,-0.38337 h 1.26717 l -0.0952,-1.1968 c -0.21149,-2.6590702 0.58392,-3.2686802 2.7998,-2.1458102 0.72445,0.36711 1.68,0.97276 2.12345,1.3459 l 0.80627,0.6784302 -0.37168,-1.2349902 c -0.4515,-1.50023 -0.46474,-5.68969 -0.022,-6.97173 0.30287,-0.87708999 0.38275,-0.92536999 1.51107,-0.91326999 3.26459,0.035 6.93276,3.69552999 7.57503,7.55926999 0.19206,1.15533 0.19421,1.1512 0.64325,-1.23385 0.54789,-2.91015 1.31794,-4.61828 2.76085,-6.12418 1.20143,-1.25387999 1.74257,-1.37825999 2.84211,-0.65322999 1.66238,1.09615999 3.01512,3.91019999 3.28886,6.84164999 0.14416,1.54375 0.18591,1.63272 0.53342,1.13658 0.53441,-0.76297 2.98165,-2.10962 3.83914,-2.11257 0.91559,-0.003 1.54688,0.9161 1.72708,2.51488 l 0.13378,1.1868002 h 1.15011 c 2.03731,0 2.30962,1.4451 0.93126,4.94204 l -0.53299,1.35219 1.30432,-0.87775 c 2.59325,-1.74512 5.52591,-2.42438 6.15132,-1.42477 0.43999,0.70324 -0.0421,2.27371 -1.23177,4.01302 l -1.13037,1.65256 2.00246,0.02 c 2.41654,0.0241 4.53605,0.82034 5.02179,1.88641 0.26679,0.58556 0.21878,0.81792 -0.34511,1.67001 -0.73496,1.1106 -2.47723,2.60535 -3.85021,3.30321 l -0.9114,0.46326 1.57286,0.72218 c 1.8155,0.83358 3.02807,1.87542 3.02807,2.6017 0,1.0795 -3.21595,3.46893 -5.88512,4.37259 -0.41961,0.14207 -0.40236,0.24279 0.19144,1.1178 0.80891,1.192 1.11047,2.62258 0.66577,3.15841 -0.17897,0.21564 -0.81754,0.52525 -1.41905,0.68802 -1.99453,0.53972 -5.32206,-0.14853 -16.66651,-3.44721 -2.59872,-0.75564 -4.75606,-1.33714 -4.7941,-1.29223 -0.32265,0.38097 -3.83588,8.63635 -4.75167,11.16547 -1.54495,4.26666 -4.38242,13.88607 -4.38242,14.857 0,0.10343 0.51267,-0.28452 1.13927,-0.8621 0.6266,-0.57758 1.32549,-1.15829 1.55308,-1.29046 0.22759,-0.13218 0.66834,-0.74341 0.97944,-1.35828 1.25508,-2.4806 4.82286,-5.76928 7.6214,-7.02519 1.80776,-0.81127 3.28768,-1.18558 8.57032,-2.16762 1.9754,-0.36722 4.34078,-0.91361 5.25639,-1.21419 2.75388,-0.90405 2.98956,-0.4245 1.308,2.66141 -2.8069,5.15105 -5.28431,8.25502 -8.25224,10.33931 -2.39581,1.68252 -4.30403,2.38271 -6.96554,2.55593 -2.39272,0.15572 -5.22956,-0.50324 -6.51315,-1.51291 -0.37367,-0.29393 -0.85938,-0.53441 -1.07936,-0.53441 -0.52476,0 -3.0696,2.33592 -3.94456,3.62073 -0.53996,0.79289 -0.83317,1.86097 -1.36663,4.97823 -0.53784,3.14275 -1.74601,11.77018 -1.74601,12.46802 0,0.0796 0.55255,-0.34171 1.22788,-0.93616 0.67533,-0.59445 1.32144,-1.08082 1.43579,-1.08082 0.11435,0 0.58253,-0.65476 1.04038,-1.45501 1.02387,-1.78954 3.13135,-4.12826 4.68061,-5.19417 1.74358,-1.19961 4.29211,-1.97438 8.52169,-2.59062 2.09521,-0.30527 4.63459,-0.75419 5.64307,-0.9976 1.5821,-0.38186 1.86649,-0.39057 2.07345,-0.0635 0.13193,0.20847 0.24169,0.45204 0.24391,0.54127 0.002,0.0892 -1.0852,1.63703 -2.41652,3.43958 -3.79003,5.13155 -6.77158,7.70391 -10.42967,8.99827 -2.01038,0.71134 -5.5696,0.59195 -7.77943,-0.26097 l -1.44739,-0.55864 -1.02217,0.98893 c -2.1743,2.1036 -2.20234,2.2439 -2.71718,13.59192 -0.15224,3.35555 -0.2034,3.62525 -0.73351,3.86678 -0.31793,0.144846 -0.82486,0.165286 -1.14666,0.0462 z m 11.23382,-23.7588 c 0.83259,-0.41828 2.74485,-1.20175 4.24946,-1.74106 3.01631,-1.08116 6.40967,-2.50318 5.9956,-2.51251 -0.68847,-0.0155 -5.94576,1.04756 -6.91508,1.39831 -1.30564,0.47245 -2.75293,1.39083 -4.19742,2.66347 -1.29286,1.13905 -1.10207,1.18123 0.86744,0.19179 z m -22.034107,-5.47534 c -1.408047,-1.17179 -3.397304,-2.18218 -5.159375,-2.62057 -1.465637,-0.36465 -9.493751,-1.22732 -9.741382,-1.04678 -0.280701,0.20465 4.575147,1.76571 7.360132,2.36614 1.819011,0.39216 4.319323,0.98362 5.55625,1.31434 2.886505,0.77177 2.927203,0.7715 1.984375,-0.0131 z m 24.903077,-14.5102 c 0.72705,-0.35074 2.8627,-1.16831 4.74587,-1.81682 1.88318,-0.64851 4.31694,-1.55907 5.40834,-2.02347 2.09626,-0.89196 5.29167,-2.59883 5.29167,-2.8266 0,-0.0742 -0.10291,-0.0714 -0.22869,0.006 -0.12578,0.0777 -2.33157,0.55642 -4.90175,1.06375 -5.72903,1.13086 -7.29592,1.81661 -9.99577,4.37468 -1.06668,1.01067 -1.8724,1.84257 -1.7905,1.84868 0.0819,0.006 0.74378,-0.27586 1.47083,-0.6266 z m -29.268702,-3.59847 c -0.363802,-0.28613 -1.316302,-0.77273 -2.116666,-1.08131 -1.347025,-0.51936 -2.083473,-0.61814 -6.482292,-0.86948 l -1.5875,-0.0907 1.190625,0.36978 c 0.654844,0.20338 2.751125,0.66088 4.658402,1.01666 1.907278,0.35579 3.752746,0.76088 4.101042,0.90021 0.93115,0.37249 0.970192,0.332 0.236389,-0.24515 z m 19.300062,-7.8662 c -0.59372,-1.83556 -1.3,-2.95053 -2.88675,-4.55711 -0.86738,-0.87822 -1.6434,-1.59676 -1.72449,-1.59676 -0.21216,0 1.05703,2.11778 3.04034,5.07312 1.74205,2.59584 2.15223,2.87804 1.5709,1.08075 z m -34.381311,-2.44252 c 4.093989,-0.72221 5.247368,-1.10463 2.778125,-0.92112 -1.018646,0.0757 -2.475704,0.20678 -3.237906,0.29129 -1.138084,0.12618 -1.415895,0.0753 -1.554041,-0.28472 -0.09252,-0.2411 -0.09643,-0.51016 -0.0087,-0.5979 0.249894,-0.2499 2.693551,-0.5853 5.673627,-0.77873 1.498794,-0.0973 2.629888,-0.26779 2.513541,-0.3789 -0.356787,-0.34073 -8.267658,-1.11671 -9.786456,-0.95996 -1.779368,0.18365 -3.417073,0.96034 -4.672856,2.21612 -1.046063,1.04606 -1.236088,1.81577 -0.502746,2.03641 0.867349,0.26096 5.746444,-0.0843 8.797395,-0.62249 z m 5.403631,-4.53799 c -0.253564,-0.41027 -2.925618,-1.59121 -5.932798,-2.62206 -3.048632,-1.04505 -6.271851,-1.2029 -8.816587,-0.43177 l -1.540546,0.46683 0.658901,0.51829 c 0.362395,0.28506 1.281749,0.80686 2.043008,1.15956 1.288466,0.59695 1.605345,0.63225 4.585812,0.51072 2.073077,-0.0845 4.134382,0.004 5.847537,0.25149 3.440091,0.49672 3.368796,0.4934 3.154673,0.14694 z m 61.53595,-0.0518 c 0,-0.69602 -1.82923,-2.4631 -3.34448,-3.23086 l -1.55031,-0.78552 -4.972,0.002 c -4.11751,0.002 -5.01472,0.0701 -5.22054,0.39687 -0.36287,0.57613 1.24155,1.23795 1.94146,0.80085 0.33642,-0.2101 1.16869,-0.24728 2.64754,-0.11828 3.41001,0.29746 3.83658,0.64843 0.57645,0.47429 -1.60072,-0.0855 -2.83768,-0.0804 -2.74879,0.0114 0.22172,0.22895 6.02244,1.92284 8.15543,2.3815 2.31339,0.49744 4.51524,0.53032 4.51524,0.0674 z m -62.177081,-2.56791 c -0.363802,-0.28828 -1.393815,-0.93971 -2.288916,-1.44763 -0.895102,-0.50792 -2.68104,-1.71409 -3.96875,-2.68038 -2.887841,-2.16702 -4.205031,-2.77443 -6.39816,-2.95047 l -1.708006,-0.13711 0.501187,0.85883 c 1.067926,1.82997 3.264466,3.07153 8.438687,4.76983 1.89177,0.62092 3.856302,1.34731 4.365624,1.6142 1.265388,0.66307 1.908617,0.64649 1.058334,-0.0273 z m 15.039581,-3.50021 c 2.869513,-3.77993 4.738855,-6.94251 5.468128,-9.25107 0.362426,-1.14728 0.658956,-2.33119 0.658956,-2.63092 0,-0.48532 -0.108576,-0.52526 -0.992187,-0.36505 -0.545703,0.099 -1.635486,0.47114 -2.42174,0.8271 -1.298276,0.58776 -1.484466,0.61121 -2.027529,0.25538 -0.328887,-0.2155 -0.679127,-0.76128 -0.77831,-1.21286 -0.173219,-0.78866 -0.200235,-0.80304 -0.684774,-0.36454 -1.5376,1.39151 -2.62787,5.61453 -2.603267,10.08343 l 0.01719,3.12277 1.168721,-3.04271 c 1.382878,-3.60025 2.008377,-4.89252 2.368771,-4.89383 0.631386,-0.002 0.326089,1.626 -1.044232,5.56935 -0.806412,2.3206 -1.466902,4.3156 -1.467757,4.43333 -0.0031,0.43061 0.520046,-0.1356 2.338029,-2.53038 z m -1.992802,-6.01887 c 0.220287,-0.50887 0.599413,-1.49077 0.842504,-2.18199 0.24309,-0.69123 0.565084,-1.25677 0.715541,-1.25677 0.150458,0 0.20658,0.20836 0.124716,0.46302 -0.650717,2.02424 -1.09771,3.00903 -1.552689,3.42078 -0.527195,0.4771 -0.528028,0.47425 -0.130072,-0.44504 z m -11.988446,7.65633 c 0,-0.15509 -2.351484,-2.63411 -5.225521,-5.50891 -4.732426,-4.7337 -6.926101,-6.52459 -7.16284,-5.84766 -0.04688,0.13405 0.354291,1.08015 0.89149,2.10244 1.418213,2.69886 4.823185,5.77517 9.527877,8.60818 1.639649,0.98735 1.968994,1.09539 1.968994,0.64595 z m 62.838538,-0.83619 c 1.33179,-0.66664 2.77813,-1.74215 2.77813,-2.06583 0,-0.37073 -2.43427,-1.53011 -4.15219,-1.97757 -1.90442,-0.49604 -3.669,-0.49412 -6.03427,0.007 -2.41545,0.51132 -8.01438,2.30716 -7.61162,2.44142 0.17181,0.0573 1.34639,-0.0896 2.61017,-0.32644 3.32065,-0.62224 6.59451,-0.81865 6.8466,-0.41076 0.39459,0.63846 -0.56087,0.98924 -3.56494,1.3088 -1.67349,0.17802 -3.73324,0.4649 -4.57723,0.63752 -1.41342,0.28908 -1.16287,0.31489 3.175,0.32715 4.07482,0.0115 4.90563,0.0863 6.16473,0.55508 1.5982,0.59501 2.35878,0.50861 4.36562,-0.49594 z m -61.205726,-1.17179 c 0.26612,-0.24083 0.483855,-0.52632 0.483855,-0.63441 0,-0.1081 -0.488542,-1.00069 -1.085648,-1.98355 -1.621901,-2.6697 -3.468971,-6.78287 -3.177033,-7.07481 0.396983,-0.39698 0.708281,-0.0467 1.891332,2.12827 0.903343,1.66074 3.260937,5.66126 3.611506,6.12825 0.04552,0.0606 0.150596,0.0424 0.233509,-0.0405 0.08291,-0.0829 -0.09141,-0.62542 -0.387377,-1.20557 -0.500409,-0.98088 -1.985119,-4.64807 -3.035885,-7.49855 -0.358065,-0.97135 -0.748263,-1.42279 -1.878263,-2.17307 -0.784469,-0.52086 -1.732401,-1.02384 -2.106516,-1.11773 -0.672271,-0.16873 -0.680256,-0.15264 -0.68426,1.37931 -0.0046,1.74469 -0.138911,2.06094 -0.988136,2.32596 -0.805221,0.25129 -0.757863,0.60758 0.396875,2.9858 0.755698,1.55639 1.583261,2.66019 3.472025,4.63097 1.36391,1.42313 2.54516,2.58752 2.625,2.58752 0.07984,0 0.362896,-0.19705 0.629016,-0.43789 z m 7.874302,-8.29336 c 0.170589,-0.65485 0.646915,-2.14313 1.058503,-3.3073 0.411588,-1.16416 0.831023,-2.72556 0.932077,-3.46976 0.183672,-1.35263 -0.170208,-3.37759 -0.641127,-3.66864 -0.132854,-0.0821 -0.659533,0.21771 -1.170397,0.66625 -1.274189,1.11875 -2.013505,3.18428 -2.01235,5.62218 0.0011,2.39355 0.436878,7.40978 0.855273,9.84581 l 0.318101,1.85208 0.174879,-3.175 c 0.09618,-1.74625 0.314452,-3.71078 0.485041,-4.36562 z m -4.636567,3.98278 c -0.685493,-2.5016 -1.695547,-7.43511 -1.695547,-8.28174 0,-0.28357 0.200794,-0.46354 0.517177,-0.46354 0.392548,0 0.556069,0.23909 0.678564,0.99218 0.280434,1.72409 2.282692,9.70587 2.538717,10.12032 0.167453,0.27107 0.202248,0.10332 0.109767,-0.52917 -0.07447,-0.50932 -0.321658,-3.18823 -0.549302,-5.95313 -0.473637,-5.75264 -0.500186,-5.90072 -1.36979,-7.64018 -0.733983,-1.46819 -1.710522,-2.54627 -2.306431,-2.54627 -0.494705,0 -1.170799,1.52332 -1.467867,3.30729 -0.275,1.65144 0.236546,4.56057 1.363817,7.75593 0.839795,2.38047 2.552936,6.00738 2.746238,5.81408 0.06064,-0.0606 -0.193761,-1.21974 -0.565343,-2.57577 z m 44.725241,1.57886 c 2.5083,-0.9964 5.12186,-1.68166 9.07179,-2.37858 3.43693,-0.60641 5.79535,-1.57616 7.07077,-2.90741 0.73888,-0.77122 0.75493,-0.83533 0.31839,-1.27152 -0.37918,-0.37887 -0.95624,-0.45934 -3.29416,-0.45934 -3.26478,0 -2.65153,-0.26082 -10.01324,4.25871 -6.29536,3.86488 -6.5914,4.1238 -3.15355,2.75814 z m -15.62541,-1.26216 c -0.26748,-0.40019 -1.59586,-2.56346 -2.95197,-4.80729 -2.24751,-3.71873 -2.67742,-4.78386 -1.93089,-4.78386 0.32606,0 1.76205,1.94356 4.00083,5.415 1.10944,1.72028 1.73168,2.47532 1.79007,2.17211 0.18561,-0.96382 -1.60601,-7.22237 -2.74002,-9.57148 -1.23005,-2.54809 -3.14451,-4.81451 -4.98089,-5.8965902 l -1.02061,-0.6014 0.0946,2.0583702 c 0.0887,1.93062 0.0617,2.05432 -0.43459,1.99318 -3.01729,-0.37169 -3.83646,-0.38797 -3.83646,-0.0763 0,0.56735 1.53116,3.23037 2.97177,5.16853 1.35494,1.82292 8.91369,9.65729 9.31752,9.65729 0.11384,0 -0.0119,-0.32742 -0.27933,-0.7276 z m -1.98425,-7.26626 c -0.45639,-0.90412 -1.11445,-2.09474 -1.46233,-2.64583 -0.49613,-0.78592 -0.54694,-1.00198 -0.23565,-1.00198 0.63176,0 1.65449,1.8249 2.48371,4.43177 0.41937,1.31838 0.12957,1.02924 -0.78573,-0.78396 z m 17.55969,5.78412 c 1.19912,-0.77879 3.23078,-2.05871 4.5148,-2.84427 1.28402,-0.78555 3.08169,-2.0411 3.99481,-2.7901 1.67137,-1.37095 4.13171,-4.63205 3.62267,-4.80173 -0.4792,-0.15973 -3.55373,1.46891 -4.92498,2.60886 -1.45313,1.20803 -9.72703,9.24323 -9.51781,9.24323 0.0717,0 1.1114,-0.63719 2.31051,-1.41599 z m 2.33106,-5.99234 c 1.57787,-2.08106 3.30531,-5.31766 3.64497,-6.82934 l 0.24898,-1.10816 h -1.01131 c -1.2898,0 -1.84285,-0.555 -1.84285,-1.84935 0,-2.1354902 -0.51304,-2.3460902 -2.1383,-0.8777602 -1.65883,1.4986502 -2.52833,2.9521802 -3.71884,6.2167502 -0.60024,1.64596 -1.61231,4.11304 -2.24905,5.48241 -0.63673,1.36936 -1.10287,2.54459 -1.03585,2.61161 0.13448,0.13447 3.5269,-5.019 4.87842,-7.41088 0.96822,-1.71354 1.26742,-1.98382 1.70698,-1.54202 0.35609,0.3579 -1.38784,3.90898 -3.74847,7.63284 l -1.41031,2.22476 0.60338,0.64227 0.60338,0.64227 2.08246,-2.05781 c 1.14535,-1.13179 2.66924,-2.83171 3.38641,-3.77759 z m -15.50884,1.25677 c -0.28108,-4.20799 -0.90547,-8.96879 -1.49239,-11.3789802 -0.57969,-2.38054 -0.52342,-2.90177 0.25995,-2.40764 0.80786,0.50958 1.81555,5.7645802 2.60565,13.5881802 l 0.2004,1.98437 0.20707,-1.71979 c 0.26935,-2.23701 0.0275,-7.46867 -0.47697,-10.31875 -0.45987,-2.5979602 -1.25995,-4.5206702 -2.44079,-5.8655702 -0.9235,-1.05181 -3.59421,-2.57604 -3.92829,-2.24196 -0.37968,0.37969 -0.18789,4.48338 0.29236,6.25545 0.25634,0.94589 1.15351,3.5057302 1.99369,5.6885402 0.84019,2.18281 1.80032,5.07008 2.13363,6.41615 0.33331,1.34607 0.65172,2.44739 0.70759,2.44739 0.0559,0 0.028,-1.10132 -0.0619,-2.44739 z m 4.52501,-0.79375 c 0.38467,-1.20055 1.08579,-4.08781 1.55803,-6.41615 0.7476,-3.68601 0.92378,-4.2333302 1.36262,-4.2333302 0.43942,0 0.49343,0.16952 0.4215,1.3229202 -0.0997,1.59881 -1.51019,8.80838 -2.03538,10.40373 -0.28019,0.85115 -0.29432,1.11644 -0.0553,1.03816 0.36249,-0.1187 3.07527,-5.91174 3.8093,-8.1346 0.36108,-1.09348 0.48053,-2.27733 0.48053,-4.7625002 0,-3.66059 -0.42743,-5.45225 -1.6463,-6.9008 l -0.67227,-0.79896 -0.6524,0.60874 c -1.91355,1.78546 -3.10304,7.30626 -3.6513,16.9467502 -0.21421,3.76665 0.0879,4.02543 1.08095,0.92604 z" /></svg>
