<svg xmlns="http://www.w3.org/2000/svg" xml:space="preserve" width="332.943" height="550.807" viewBox="0 0 88.091 145.734"><path d="M41.845 110.588c.003-24.479-.114-31.964.946-34.042l1.598-3.134 1.952 2.625c.31 1.322.606 14.31.658 34.041.093 35.373-1.316 35.656-2.897 35.656s-2.261-.606-2.257-35.146M23.091 86.209c-1.81-3.188-1.215-13.142 1.127-18.84 1.133-2.755 1.965-5.01 1.85-5.01-.116 0-2.33.975-4.918 2.165-5.834 2.685-14.37 3.054-18.54.802L0 63.916l1.724-3.383c.948-1.862 2.663-4.622 3.812-6.134 2.481-3.265 10.352-8.538 13.914-9.32l2.527-.555-4.857-2.204c-5.695-2.586-10.86-6.995-14.039-11.985-3.068-4.816-2.931-6.261.736-7.798 4.023-1.685 13.197-1.026 17.7 1.272 1.805.92 3.636 1.673 4.07 1.673s-.039-1.894-1.052-4.209c-2.356-5.388-3.07-10.864-2.04-15.652 1.3-6.044 1.674-6.349 5.612-4.573C35.14 4.22 40.667 10.144 42.987 17l1.335 3.945 2.229-4.911c1.226-2.702 3.918-6.716 5.98-8.922C56.43 2.946 62.555-.646 64.495.098c1.55.595 3.1 8.713 2.442 12.794-.3 1.854-1.38 5.471-2.4 8.04-1.59 3.999-1.666 4.59-.523 4.116 9.124-3.775 16.224-4.576 21.401-2.413 3.427 1.432 3.528 2.963.51 7.7C82.13 36.29 73.296 43.12 69.387 43.12c-2.314 0-1.236 1.2 2.436 2.71 5.44 2.237 11.229 7.189 13.949 11.931 3.174 5.535 3.091 6.65-.584 7.913-5.07 1.741-12.028 1.27-17.372-1.177-2.595-1.188-4.849-2.03-5.008-1.87-.16.16.584 2.24 1.654 4.622 2.618 5.832 3.2 10.188 2.084 15.569-1.092 5.26-2.314 6.04-6.193 3.95-5.256-2.83-9.62-7.456-12.726-13.49l-3.048-5.92-2.52 4.811C38.578 78.82 36.123 81.688 31 85.09c-5.12 3.398-6.502 3.593-7.908 1.12m27.104-36.196c2.278-2.279 2.72-3.297 2.699-6.213-.04-5.275-3.584-8.716-8.94-8.68-4.601.03-7.87 3.863-7.87 9.229 0 4.17 4.236 8.39 8.419 8.39 2.304 0 3.574-.608 5.692-2.726"/></svg>