<?xml version="1.0" encoding="UTF-8" standalone="no"?>
<svg
   width="45.631496mm"
   height="83.295319mm"
   viewBox="0 0 45.631496 83.295319"
   version="1.1"
   xml:space="preserve"
   xmlns="http://www.w3.org/2000/svg"
   xmlns:svg="http://www.w3.org/2000/svg"><path
     style="fill:#000000"
     d="m 23.027664,5.5957987e-5 c -0.13867,4.99000003e-4 -0.27803,0.004100002 -0.41858,0.01137000201 -3.14926,0.162061 -5.38904,1.63877204 -6.67556,4.40076504 -0.56219,1.207043 -0.64001,1.694164 -0.54881,3.439583 0.15565,2.979979 1.81706,6.665737 4.27002,9.471774 0.55807,0.6384 1.10941,1.160652 1.22474,1.160652 0.49719,0 0.80633,-0.863277 1.35599,-3.782714 0.32158,-1.708052 0.61785,-3.072357 0.65835,-3.031857 0.0405,0.0405 0.26415,1.202993 0.49661,2.583822 0.63048,3.74511 0.6742,3.909657 1.08676,4.067969 0.63654,0.24427 1.09691,-0.08371 2.23501,-1.591118 2.3264,-3.081296 3.96668,-6.954046 3.96668,-9.366353 0,-4.194131 -3.3525,-7.37934104 -7.65121,-7.363893042013 z M 7.4694357,10.606127 c -0.169784,-2.79e-4 -0.336748,0.0074 -0.500744,0.02377 -2.785044,0.278585 -5.681723,2.545472 -6.564974,5.137671 -0.491956,1.443811 -0.542304,3.85968 -0.106971,5.12424 0.784222,2.27803 2.485525,3.88234 5.06119,4.77231 2.625177,0.90708 7.0548173,0.5475 10.1570073,-0.82475 1.85841,-0.82206 1.59445,-1.25395 -2.21847,-3.63027 -1.928196,-1.2017 -2.169663,-1.4214 -1.40302,-1.27589 4.98054,0.94533 6.35,0.97152 6.35,0.1204 0,-0.59384 -1.47288,-3.127728 -2.70474,-4.652942 -2.37061,-2.93515 -5.522514,-4.790343 -8.0692783,-4.794539 z m 29.8601983,0.480591 c -0.89984,0.0045 -1.36623,0.180073 -2.51096,0.743624 -1.99331,0.981305 -3.73155,2.457382 -5.29787,4.498433 -1.92884,2.513444 -2.50996,4.099574 -1.62677,4.438494 0.34101,0.13085 3.39668,-0.18706 5.80946,-0.6041 0.56633,-0.0979 0.0524,0.30474 -1.70171,1.33222 -2.5539,1.49594 -3.56915,2.3856 -3.27163,2.867 0.22878,0.37016 2.12284,1.18184 3.82922,1.64073 1.8954,0.50973 5.87702,0.52345 7.53029,0.0258 4.41712,-1.3295 6.74465,-6.22042 4.91237,-10.322885 -1.25377,-2.807173 -3.50983,-4.373968 -6.5872,-4.574914 -0.43754,-0.02857 -0.78526,-0.04594 -1.0852,-0.04444 z m -14.60738,9.005651 c -1.1061,-0.01 -2.20971,0.4025 -2.98328,1.25729 -1.84033,2.03355 -0.9784,5.61846 1.53685,6.39082 1.80145,0.55318 3.54764,-0.0658 4.7563,-1.6862 0.74397,-0.99737 0.73508,-3.30335 -0.0165,-4.32842 -0.78323,-1.06819 -2.03977,-1.62222 -3.29334,-1.63349 z m -5.66167,6.95306 c -0.60261,0.007 -1.42734,0.1372 -2.45412,0.39068 -7.3704063,1.81953 -10.9329103,6.32604 -9.1487913,11.57242 0.603741,1.77536 2.917218,4.07529 4.7159913,4.6886 2.83028,0.96502 6.64144,0.0113 8.21294,-2.05517 2.14358,-2.81877 4.01949,-10.2179 2.95072,-11.63805 -0.52751,-0.70094 -1.05933,-0.436 -4.01371,1.99885 l -2.35128,1.93786 0.72244,-1.17977 c 1.14228,-1.86609 2.54868,-4.70105 2.54868,-5.13716 0,-0.39412 -0.4081,-0.58748 -1.18287,-0.57826 z m 11.04377,0.16485 c -0.51679,-0.01 -0.87293,0.0679 -0.9865,0.25167 -0.20473,0.33126 0.89577,2.77488 2.09186,4.64467 0.53361,0.83417 0.92813,1.55906 0.87643,1.61076 -0.0517,0.0517 -0.85631,-0.57075 -1.78749,-1.38286 -3.87901,-3.383 -4.5004,-3.41882 -4.4974,-0.25838 0.002,2.27611 0.79708,5.75546 1.76785,7.73802 0.80756,1.64925 2.2768,3.09627 3.88297,3.82561 1.61765,0.73456 4.41644,0.6821 6.12159,-0.11472 3.76165,-1.75782 5.62427,-6.28492 4.02404,-9.78028 -0.85076,-1.85832 -2.48399,-3.43665 -4.72581,-4.56562 -2.22163,-1.11879 -5.21718,-1.93886 -6.76754,-1.96887 z m -5.66632,10.24796 -0.90692,2.08566 -0.90641,2.08566 v 11.09338 c 0,6.10125 -0.0683,11.02507 -0.15141,10.94197 -0.0831,-0.0831 -0.50743,-1.38094 -0.9431,-2.88407 -0.43567,-1.50313 -1.10601,-3.30954 -1.48983,-4.01474 -0.9746,-1.79066 -3.42882,-3.96935 -5.69319,-5.05395 -2.000303,-0.95811 -4.3294993,-1.65929 -4.6033363,-1.38545 -0.3199,0.3199 1.305977,6.3197 2.193148,8.09305 1.1414273,2.28158 2.4989883,3.51641 5.2766783,4.7997 2.48838,1.14964 3.5034,2.09883 4.62298,4.32119 l 0.78806,1.56321 v 6.61768 c 0,5.78648 0.0548,6.67829 0.4377,7.10138 0.54051,0.59724 2.01587,0.63746 2.48874,0.0677 0.22602,-0.27234 0.36261,-1.34762 0.39481,-3.10886 0.0412,-2.25675 0.1672,-2.98432 0.77979,-4.49533 0.96486,-2.37995 2.81087,-4.38982 5.17023,-5.62963 3.75986,-1.97575 5.88443,-5.28852 7.03575,-10.97194 0.35907,-1.77257 0.61679,-3.383 0.57309,-3.5786 -0.1279,-0.57298 -4.51182,1.04137 -6.6027,2.43138 -3.28875,2.18636 -5.23273,5.18088 -6.42338,9.89449 l -0.6351,2.51354 0.14211,-13.92473 c 0.15262,-14.95526 0.19046,-14.39059 -1.17357,-17.66456 z" /></svg>
