<svg xmlns="http://www.w3.org/2000/svg" xml:space="preserve" width="398.181" height="513.725" viewBox="0 0 105.352 135.923"><path d="M33.422 135.043C13.607 130.513-.032 114.13 0 94.898c.023-14.037 4.169-22.25 18.337-36.325 5.637-5.6 10.25-10.49 10.25-10.864 0-1.575 8.718-7.167 13.207-8.472l4.856-1.411-.364-9.516c-.314-8.174-.7-10.145-2.745-13.984-2.86-5.369-5.032-8.04-7.135-8.778-2.06-.722-1.975-1.981.283-4.24C38.22-.223 38.769-.343 39.91.604c1.699 1.409 7.605 10.217 8.958 13.359.99 2.298 1.045 2.31 7.114 1.474 3.364-.463 9.417-.646 13.452-.407 18.046 1.071 30.886 13.358 34.68 33.186 1.832 9.577 1.849 9.479-1.439 8.536-1.52-.436-6.245-1.445-10.5-2.24-4.255-.797-9.682-2.506-12.06-3.8-5.864-3.187-12.497-10.677-16.711-18.87-1.92-3.735-4.006-7.433-4.633-8.217-1.048-1.31-6.202-4.383-7.353-4.383-.27 0-.49 4.419-.49 9.819v9.818l2.969 1.24c4.267 1.783 9.038 6.252 11.86 11.108 1.344 2.315 5.384 7.348 8.978 11.186 11.734 12.53 15.812 25.375 12.738 40.118-3.055 14.65-14.512 27.03-29.29 31.651-6.094 1.905-18.334 2.331-24.761.862m-7.517-19.198c0-.442-1.4-2.884-3.11-5.426-4.176-6.204-5.197-10.543-4.743-20.133.281-5.932.983-9.508 2.673-13.628 3.385-8.251.811-7.132-3.083 1.34-5.703 12.405-6.332 20.16-2.32 28.595 2.369 4.984 10.583 12.164 10.583 9.252M85.68 38.678c-.58-1.106-3.768-4.652-7.083-7.88-6.774-6.599-16.333-12.107-22.37-12.892-3.926-.51-3.913-.497 1.6 1.629 7.721 2.977 15.75 8.425 22.565 15.31 3.18 3.215 5.909 5.844 6.063 5.844.155 0-.194-.905-.775-2.01"/></svg>