<?xml version="1.0" encoding="UTF-8" standalone="no"?>
<svg
   width="69.747749mm"
   height="95.462265mm"
   viewBox="0 0 69.747749 95.462265"
   version="1.1"
   xml:space="preserve"
   xmlns="http://www.w3.org/2000/svg"
   xmlns:svg="http://www.w3.org/2000/svg"><path
     style="fill:#000000"
     d="m 46.420292,94.950423 c 1.97705,-0.19635 5.44254,-2.52075 5.81429,-5.06381 0.23241,-1.58982 0.27016,-2.82265 0.56216,-5.44202 0.292,-2.61938 1.48326,-13.81125 2.64724,-24.87084 1.16398,-11.05958 2.3527,-22.19192 2.6416,-24.73854 0.67971,-5.99144 0.67598,-6.23927 -0.1016,-6.74876 -1.17577,-0.7704 -3.66883,-1.48095 -6.61625,-1.88572 -1.61865,-0.22229 -3.33082,-0.45962 -3.80483,-0.5274 -0.78007,-0.11155 -0.84695,-0.1911 -0.70493,-0.83849 0.33027,-1.50556 1.76384,-4.03409 2.95036,-5.20385 0.6803,-0.67069 2.01401,-1.60201 2.9638,-2.06959 1.57967,-0.77767 1.94165,-0.84991 4.246,-0.84741 2.19402,0.002 2.72158,0.0972 4.08812,0.73478 3.04687,1.42158 4.94407,3.48833 5.9539,6.48598 1.68093,4.98975 -0.60326,10.28196 -5.46435,12.66027 -1.33526,0.65328 -1.39711,0.72981 -1.39711,1.72866 0,0.96088 0.048,1.03057 0.59531,0.86473 1.71565,-0.51985 4.28611,-2.16196 5.59182,-3.57228 4.64413,-5.01622 4.45868,-12.27188 -0.44416,-17.37769 -4.82452,-5.02424 -12.71485,-5.04868 -17.70867,-0.0549 -2.37655,2.37654 -3.83592,6.07478 -3.38567,8.5797 0.1588,0.88348 -0.45087,0.72281 5.95867,1.57034 3.46951,0.45877 5.15937,0.84884 5.15937,1.19094 0,1.09446 -15.34765,2.45687 -22.21007,1.97159 l -3.29236,-0.23282 -0.60836,-1.57305 c -0.46784,-1.20971 -0.5324,-1.62128 -0.27951,-1.78188 0.40373,-0.2564 5.42169,-0.38097 10.34305,-0.25676 l 3.66421,0.0925 -0.19381,-0.62165 c -0.61783,-1.9817 -0.13201,-1.81502 -5.20983,-1.78741 -2.51383,0.0137 -5.68194,0.10312 -7.04023,0.19877 -1.54707,0.10895 -2.54522,0.075 -2.67202,-0.091 -0.11133,-0.1457 -0.88075,-2.13689 -1.70983,-4.42486 -0.82908,-2.28796 -2.08123,-5.66322 -2.78255,-7.50058 L 22.698922,10.176733 12.574267,5.0285633 C 7.0057065,2.1970733 2.3076865,-0.06513473 2.1342165,0.00143227 c -0.43768,0.167954 -2.40001996,3.96196103 -2.10393996,4.06778103 0.13216,0.0472 4.45795996,2.25617 9.61288996,4.90874 l 9.3726055,4.8228597 2.8752,7.67292 c 2.81875,7.52223 5.49939,14.86085 5.49939,15.05529 0,0.054 -0.56554,0.18072 -1.25677,0.28161 -0.69122,0.1009 -2.13546,0.47597 -3.20941,0.83348 -1.07396,0.35751 -1.98144,0.6159 -2.01664,0.57419 -0.0352,-0.0417 -0.23543,-1.47895 -0.44496,-3.19388 -0.34427,-2.81776 -0.34117,-3.1021 0.0323,-2.95242 0.79401,0.31825 4.2829,0.96609 4.42697,0.82202 0.0799,-0.0799 -0.0761,-0.59396 -0.34672,-1.1423 -0.37809,-0.76612 -0.70645,-1.04568 -1.41806,-1.20728 -1.97916,-0.44946 -2.91042,-0.76706 -2.91042,-0.99257 0,-0.12924 0.65485,-0.38153 1.45521,-0.56065 0.80037,-0.17911 1.45521,-0.3517 1.45521,-0.38353 0,-0.0318 -0.18492,-0.50046 -0.41094,-1.04139 -0.36738,-0.87928 -0.48655,-0.96464 -1.12448,-0.80551 -1.4623,0.36478 -3.58352,1.34231 -3.85292,1.77556 -0.19947,0.3208 -0.14673,1.52314 0.18572,4.23334 0.25537,2.08191 1.28999,11.16716 2.29915,20.18945 1.00916,9.02229 2.31257,20.63089 2.89645,25.79688 0.58389,5.16598 0.71758,8.47556 1.06348,10.36099 0.66418,3.62026 2.81956,5.26905 5.08413,5.56109 7.48031,0.96466 10.72101,1.01996 17.12263,0.27232 z m -14.68228,-2.79468 c -2.48512,-0.62922 -4.59057,-1.48719 -4.84878,-1.97588 -0.26178,-0.49545 -0.59378,-3.31912 -3.0698,-26.10819 -0.94864,-8.73125 -1.85221,-16.98691 -2.00792,-18.34592 -0.15572,-1.359 -0.24065,-2.51339 -0.18874,-2.5653 0.59911,-0.59912 1.28987,3.5119 3.91374,23.29247 0.13513,1.01865 0.84564,6.2149 1.57893,11.54723 0.73329,5.33233 1.33326,9.82534 1.33326,9.98447 0,0.4057 1.52445,0.99697 3.91583,1.51878 2.48311,0.54183 9.40656,0.62113 11.95917,0.13699 2.32581,-0.44113 4.21584,-1.06425 5.09322,-1.67918 l 0.72761,-0.50995 v 1.33063 c 0,0.98126 -0.13628,1.45759 -0.51905,1.81419 -0.6799,0.63343 -2.70153,1.34826 -5.09632,1.80201 -2.54673,0.48254 -10.5252,0.33138 -12.79115,-0.24235 z m 7.65033,-12.22494 c -1.28373,-0.74521 -2.4764,-2.8411 -2.46717,-4.33556 0.008,-1.27128 0.79988,-2.92957 1.8019,-3.77272 3.33521,-2.80639 8.26324,-0.53205 8.30245,3.83166 0.0206,2.28713 -1.32335,4.12666 -3.52915,4.83066 -1.41781,0.45251 -2.66351,0.28451 -4.10803,-0.55404 z m -10.26571,-16.01596 c -1.31562,-1.15513 -1.6815,-2.51425 -1.09222,-4.05725 1.16793,-3.05819 5.48447,-3.07129 6.6497,-0.0202 0.6767,1.77191 0.11309,3.36449 -1.54944,4.3782 -1.32091,0.80541 -2.88156,0.6883 -4.00804,-0.30077 z m 11.63009,-11.58527 c -2.48769,-1.43497 -2.89922,-4.99166 -0.81833,-7.07255 1.58819,-1.58819 3.96241,-1.68883 5.85138,-0.24805 1.19889,0.91444 1.71293,1.95044 1.71293,3.45229 0,3.47581 -3.72419,5.61135 -6.74598,3.86831 z m -11.01922,-9.04117 c -5.03732,-0.5112 -8.69314,-1.58548 -8.69314,-2.55452 0,-0.43164 0.0958,-0.41724 2.0905,0.31398 2.04588,0.75 6.0882,1.22062 11.86627,1.3815 3.09232,0.0861 5.6224,0.21522 5.6224,0.28693 0,0.0717 -0.20836,0.28855 -0.46302,0.48186 -0.58101,0.44105 -6.46432,0.49199 -10.42301,0.0902 z m 15.44325,-0.52848 c -0.0625,-0.33035 0.42515,-0.4724 2.51918,-0.73373 2.26999,-0.2833 5.15373,-0.89377 7.18037,-1.52006 0.47727,-0.14748 0.60085,-0.10527 0.50793,0.17352 -0.51241,1.53723 -9.94631,3.45985 -10.20748,2.08027 z m 7.82298,-5.30119 c -3.09737,-0.99534 -7.12235,-1.3977 -14.16231,-1.41576 l -6.67691,-0.0171 -0.24134,-0.66146 c -0.13274,-0.3638 -0.3258,-0.86982 -0.42901,-1.12448 -0.17558,-0.43322 0.21565,-0.46302 6.07897,-0.46302 3.44664,0 7.71587,-0.129 9.48716,-0.28666 3.09436,-0.27543 7.70271,-1.04105 8.74808,-1.45338 0.44709,-0.17634 0.48391,-0.10112 0.34517,0.70517 -0.0854,0.49642 -0.2309,1.73602 -0.3233,2.75466 -0.22807,2.51427 -0.34214,2.85661 -0.87697,2.63192 -0.24152,-0.10147 -1.11881,-0.4029 -1.94954,-0.66986 z m 8.5804,-1.9763 c 1.40322,-0.72973 3.11648,-2.32106 3.11648,-2.89469 0,-0.56257 -0.80094,-1.20764 -2.91913,-2.35102 -1.45524,-0.78553 -1.95158,-0.9462 -2.11351,-0.68418 -0.1164,0.18834 -0.29013,1.24563 -0.38605,2.34953 -0.17548,2.01938 0.19894,3.99319 0.78848,4.15662 0.14552,0.0403 0.8267,-0.21898 1.51373,-0.57626 z m 4.56489,-5.66116 c 0.47192,-0.91259 0.53443,-3.52783 0.1132,-4.73616 -0.20524,-0.58877 -0.45753,-0.83217 -0.85989,-0.82963 -0.68701,0.004 -6.85755,2.72116 -6.97402,3.07057 -0.0761,0.22821 6.49488,3.27583 7.06299,3.27583 0.13973,0 0.4357,-0.35127 0.65772,-0.78061 z m -6.07006,-4.5915 c 2.9215,-1.33886 4.88623,-2.53544 4.88623,-2.97586 0,-0.56562 -2.17751,-2.83606 -3.29946,-3.44027 -0.81767,-0.44035 -0.97505,-0.45366 -1.3095,-0.11081 -0.35267,0.36152 -2.39301,7.10194 -2.20629,7.28866 0.0461,0.0461 0.91418,-0.29665 1.92902,-0.76172 z m -2.92756,0.57454 c 0.27497,-0.7597 1.72837,-6.98402 1.72837,-7.40191 0,-0.91298 -2.16795,-1.00519 -4.6301,-0.19692 -2.07937,0.68261 -2.08435,0.58746 0.2195,4.19432 2.19052,3.42942 2.52127,3.84923 2.68223,3.40451 z m -1.71121,0.1692 c 0,-0.26135 -3.46537,-5.38241 -3.86879,-5.71722 -0.55017,-0.45659 -1.54181,0.32243 -2.48122,1.94921 -1.2482,2.16153 -1.15458,2.28104 2.3517,3.00193 1.65722,0.34073 3.2348,0.68986 3.50572,0.77585 0.27092,0.086 0.49259,0.0816 0.49259,-0.01 z" /></svg>
