<svg xmlns="http://www.w3.org/2000/svg" xml:space="preserve" width="480.923" height="750.974" viewBox="0 0 127.244 198.695"><path d="M354.084 183.836q-12.642.124-23.219 9.543-9.255 8.46-5.816 16.922l3.965 5.554q3.966 64.518 25.12 125.864l6.876 24.06a2660 2660 0 0 1-121.899 32.79l-85.142 22.474-3.701-.793q-12.429 2.91-14.28 8.727-3.172 15.6 3.967 25.384l20.36 97.041q33.845 157.066 61.609 318.889l-.528.793q0 6.081 5.288 9.256l20.625 8.724q56.321 25.914 117.402 45.217l2.644.528.793-.528h.53l61.343-20.89 182.186-62.932 1.586-.527q2.379-1.852 2.115-5.026v-.527l-32.787-254.637-26.178-221.582-2.644-5.023q-2.115-3.438-6.61-3.703l-27.765.265-6.08.528-13.221.794-.266-.794v-.528q-1.585-5.818-7.138-7.14l-29.086-.793-11.371.265h-43.893l-13.486 3.965q-16.659-65.311-28.82-129.83l1.85.266 3.702 2.644q62.138 14.279 125.864 24.59l5.552 1.852h1.85q11.106 1.057 19.832-8.727 7.932-13.75-.53-26.178-3.7-5.552-9.783-4.758-38.604-14.544-78.267-16.66-33.582-2.114-65.576-11.633l-1.057-.529q-8.33-3.272-15.916-3.197m9.834 12.187q-8.725 1.852-8.461 10.842.793 4.76 4.758 7.932l-4.758 1.322q-10.577-8.461-3.703-19.832zm-16.13 1.852q-3.173 10.84 5.817 19.037l-2.908 2.115q-5.817-.528-9.783-7.668l-2.38-3.173-1.057-2.38.263-.263 3.174-3.438zm22.212 0h.264l1.058.527 2.908.793.793.266q31.731 8.726 64.784 11.105 33.315 2.645 64.517 11.899-6.61 4.496-6.611 12.957 0 3.966 1.851 7.139-64.517-10.312-127.449-24.59l-1.058-.795-4.23-1.85q-3.173-5.025-1.587-11.37 1.058-3.702 4.76-6.081m-5.553.527-.795 1.588q-3.437 7.668 1.059 14.807h-1.059q-7.14-3.173-5.552-10.313 1.587-5.024 6.347-6.082m-23.533 15.602 3.965 3.967 4.76 2.908-1.057 1.85v1.851l-2.38-.264-4.231-5.289-1.057-1.851zm0 5.553 5.287 6.609 3.703.795q3.437 3.172 5.287 1.057l.793-1.057.266 1.057q-6.875 5.818-15.072 2.38l-.264-1.322zm167.904 4.23 8.463 3.438q1.058 8.46-4.76 14.013-4.495 2.645-10.048 2.645-3.173-3.702-2.645-9.783.794-5.025 4.76-8.727zm-152.304 7.932a2479 2479 0 0 0 31.466 136.97q1.058 2.643 4.495 4.495l-10.047 2.908-7.67.53v-.53l-20.623-71.13a376.6 376.6 0 0 1-12.957-72.714zM487.4 360.492l3.438.53v.263h-.527q-137.763 49.976-282.135 77.211h-.266l-.793.527q-3.701 5.818-1.586 16.659l4.494 17.453 6.346 37.547.266 1.322-15.073 18.244-24.591-29.879a201.8 201.8 0 0 1-25.912-45.215l-.264-1.058q-12.164-16.66 5.023-22.211l.793-1.322a8143 8143 0 0 0 211.535-56.85l2.116 2.379h-1.059q-.793 1.058 1.322 2.115l21.948-1.586q3.702-1.587 2.115-4.76v-.529l-1.057-5.023h.793l18.244-5.024h42.836zm7.405 8.197.265.264 2.643.53 2.115.263 20.625-.793h20.096c-87.374 26.493-178.04 48.833-265.793 73.723-.592-.17-1.148-.117-1.635.377a11823 11823 0 0 0 86.967 480.158 1073 1073 0 0 1-109.606-42.344l-19.302-8.46-.53-1.85q-27.5-162.619-61.609-321.006l-16.395-80.12a175.5 175.5 0 0 0 17.717 29.882l30.408 37.28q2.38 3.438 5.288 2.645l31.203-41.248q14.542-19.83 28.027-43.629 1.851-7.14-.793-6.082-18.774 31.202-42.572 57.38l-4.23-24.327-2.38-14.016-1.851-17.714q3.174-1.323 2.38-4.76a1818.4 1818.4 0 0 0 278.962-76.153m-51.942 124.657q29.219-.497 55.643 17.336 47.86 35.167 57.379 104.709 6.612 62.668-17.186 111.586-24.062 49.71-67.164 62.931c-51.786 13.584-111.942-28.413-132.472-119.517q-11.9-63.197 11.634-112.38 24.063-48.915 72.715-62.402l5.817-1.056a98 98 0 0 1 13.634-1.207m41.465 54.537q-14.18-.05-42.935 7.486-69.278 20.36-83.557 42.041-14.014 21.683-7.932 32.26l2.38 2.38q1.322 2.646 3.173 2.116 15.6-6.61 23.533 7.668l.793 1.322q8.197 22.74 5.553 47.33-2.91 24.327 11.37 45.48c1.233 1.235 1.066 1.665 3.187 2.727 12.163 9.52 27.132 12.874 44.408 11.817q25.385-1.058 46.01-10.313l27.763-14.543q13.486-9.783 20.625-23.004 6.61-20.096-8.197-34.638 8.197-1.852 14.014-8.463 5.552-6.875 1.322-15.336-2.38-3.702-4.23-3.438l-4.231-1.056h-.53q-5.287 1.85-1.585-.795 1.058-6.875 4.76-15.336 3.7-19.302-3.704-40.192-6.874-21.152-28.556-23.267l-1.586-3.174q-1.587-5.288-14.016-8.197-3.105-.859-7.832-.875m.065 4.726q14.378.051 18.345 6.198 1.586 3.436-2.91 8.724 0-2.645-7.931-6.345l-39.928 2.378q-24.327 4.76-48.918 15.073-25.12 10.312-41.514 29.086-1.85 2.116.266.265 46.008-33.58 86.465-38.869l49.181 1.32-6.345 5.819q-17.453 14.543-38.606 21.947a1324 1324 0 0 1-92.81 26.705q-2.38 1.058 1.056.793 29.085-8.197 58.172-13.22 29.087-4.761 56.322-18.51 10.048-4.76 24.327-16.393-.266 23.797 5.816 46.008-5.816-3.437-13.484-2.645l-39.135 4.76a264 264 0 0 0-40.192 12.164q-14.806 3.966-25.648 13.75l-4.494-11.105-.795-.793q-10.312-15.866-28.027-10.578-5.024-9.784 5.289-26.705 10.312-16.923 67.425-38.606 23.535-8.46 47.332-10.576 5.95-.66 10.74-.645m23.369 12.014q17.187.793 23.533 15.336 6.61 14.543 5.553 28.822-.795 16.13-8.461 30.672-.001 2.116 1.85 3.174l5.288 2.379q10.048 2.908 3.438 11.898-4.495 5.29-11.37 6.348l-4.759-7.934-1.588-1.586-4.76-10.576q20.625-20.096 12.428-47.332-6.61-18.773-24.59-20.888v-2.909zm-.096 15.121q12.06.116 16.225 12.379 4.76 14.013 1.851 25.12-3.437 11.899-11.898 19.831-10.312-27.235-9.783-57.115a27 27 0 0 1 3.605-.215m-12.15 42.836q6.296.15 10.66 3.123c.348 1.126.765 2.225 1.137 3.342-32.304 15.446-83.631 30.026-119.385 26.076 7.147-7.312 15.97-12.194 26.494-14.61a312 312 0 0 1 30.672-10.048 245 245 0 0 1 30.144-5.553l15.866-2.115a32 32 0 0 1 4.412-.215" style="display:inline;fill:#000;fill-opacity:1;stroke-width:.353553" transform="translate(-35.722 -48.64)scale(.26458)"/><path d="m52.45 45.15-.25-.45q.4-.8 1.3-.9.5.2.35.5-.7 0-1.05.5 4.35.95 7.9-1.7.4 0 .4.35-3.9 3-8.65 1.7M37.5 79.25Q42 110.8 49.2 141.9q.4.45.05.45l-.35-.15a105 105 0 0 1-19.55-8.1l-.2-.45-.45-.4a712 712 0 0 0-5.2-29.4l-.15-.65Q20.5 89.15 17 75.2l.1-.1.1-.1q9.65 3 19.65 4.05v-.2q.3-.2.65.4" style="display:inline" transform="translate(-13.594 -10.557)scale(1.39922)"/></svg>