<?xml version="1.0" encoding="UTF-8" standalone="no"?>
<svg
   width="60.714149mm"
   height="103.38697mm"
   viewBox="0 0 60.714149 103.38697"
   version="1.1"><path
     style="fill:#000000"
     d="m 57.844013,0 c -0.0768,0.0332 -0.15364,0.06654 -0.23047,0.09974 -1.80932,0.768277 -3.36316,2.01728 -5.04207,3.023071 -6.27146,4.077805 -12.4954,8.228365 -18.73943,12.348075 -1.38276,4.61934 -2.54831,9.29945 -3.80442,13.95471 -6.502905,-0.45412 -13.03361,-0.44501 -19.547642,-0.25322 -0.981594,0.13755 -2.147284,-0.11565 -2.972945,0.54364 -1.238304,1.20579 -1.542049,3.08023 -1.513603,4.74235 0.02153,0.67702 0.216354,1.33023 0.454236,1.95957 -1.658992,3.13628 -3.20471,6.36409 -4.042131,9.82989 -1.692898,6.77053 -1.939322,13.78975 -2.194698,20.7331 -0.285159,9.83051 -0.178542,19.66624 -0.21084,29.49949 0.18655,2.6329 8.385055,6.107284 9.490894,6.305564 0.971983,0.0774 1.842466,0.58792 2.835486,0.56741 4.523798,0.18518 9.031555,-0.43057 13.511323,-0.98444 6.27657,-0.88261 12.5636,-1.87078 18.67844,-3.567224 1.3061,-0.44947 2.79425,-0.72688 3.81321,-1.71876 0.38765,-0.49968 0.76934,-1.02025 0.61908,-1.68672 -0.007,-7.08233 0.0522,-14.17326 -0.48007,-21.24057 -0.65924,-9.42374 -1.74448,-18.84531 -3.79409,-28.07322 -0.72652,-3.2843 -1.71713,-6.5089 -3.03134,-9.60768 0.6842,-1.67772 0.4888,-3.51016 0.23823,-5.25394 -0.0958,-0.49092 -0.72742,-0.70102 -1.08624,-1.03146 -1.19116,-0.73384 -2.54471,-0.42114 -3.85351,-0.64079 -0.61653,-0.0549 -1.4791,0.0455 -0.96273,-0.79272 0.87719,-3.24914 1.73035,-6.47975 2.74402,-9.69708 7.08744,-4.54663 14.18325,-9.0824 21.22454,-13.699419 1.2929,-1.084452 0.78113,-3.158792 -0.28163,-4.222481 -0.49173,-0.540808 -1.19707,-0.790937 -1.8216,-1.1368819999999 z m -31.73243,37.695376 c 4.12049,0.0217 8.19605,0.0403 12.27832,0.524 0.55287,-0.0214 0.95077,0.30164 1.17822,0.786 1.40108,2.39875 1.9126,5.04617 2.47324,7.722 1.46701,8.03315 1.92713,16.2219 2.3182,24.36906 0.21675,6.18988 0.4792,12.41324 -0.17983,18.58543 -0.24305,1.30942 -0.27928,2.7973 -1.15032,3.87108 -1.96159,1.1855 -4.25627,1.65609 -6.44457,2.25774 -5.94929,1.47405 -12.055648,2.28284 -18.183382,2.41846 -0.689173,-0.0636 -1.539225,0.335 -2.018998,-0.33021 -1.115323,-0.87532 -0.915957,-2.47042 -1.097091,-3.72794 -0.328994,-6.22177 -0.399736,-12.55696 -0.604097,-18.82314 -0.261106,-7.71386 -0.361708,-15.44347 -1.092957,-23.13089 -0.348636,-3.8303 -1.344437,-7.5595 -2.555399,-11.19776 -0.328579,-1.03958 -0.657408,-2.07909 -0.985987,-3.11868 5.35618,0.0293 10.709872,-0.11288 16.064651,-0.20515 z m 3.60547,19.85357 c -0.87972,0.10179 -0.77466,1.23535 -0.81494,1.89549 -0.05,0.31003 0.15435,1.4137 -0.20051,0.62993 -0.74846,-1.12359 -2.01527,-2.2252 -3.45146,-2.02158 -0.990271,0.37932 -0.754344,1.67611 -0.525554,2.48254 0.432064,1.3407 1.109494,2.88425 2.542994,3.38274 -4.601046,3.9866 -7.556584,9.93938 -7.538554,16.06568 -0.0085,3.6291 1.256534,7.55264 4.325317,9.72912 1.506427,1.13125 3.397267,1.63958 5.269447,1.5565 1.06073,-0.0274 2.14817,-9.7e-4 3.18999,-0.13281 1.96423,-0.84632 3.94217,-1.83866 5.33404,-3.5171 3.13774,-3.64783 4.05779,-8.74886 3.51709,-13.42502 -0.47182,-3.82872 -1.99931,-7.82019 -5.22397,-10.15132 -1.54033,-1.10401 -3.45402,-1.61682 -5.33972,-1.53737 0.12246,-1.53049 0.36784,-3.23801 -0.42582,-4.63073 -0.15043,-0.19122 -0.40516,-0.3689 -0.65835,-0.32607 z M 9.364019,98.653306 c 0.980361,-0.88964 -3.16968,-3.4401 -6.140355,-3.88992 -0.202429,-0.0307 3.070556,-9.84602 3.070556,-9.84602 0,0 2.768674,14.00919 3.069799,13.73594 z"/></svg>
