<?xml version="1.0" encoding="UTF-8" standalone="no"?>
<svg
   width="73.095901mm"
   height="93.560204mm"
   viewBox="0 0 73.095901 93.560204"
   version="1.1"
   xml:space="preserve"
   xmlns="http://www.w3.org/2000/svg"
   xmlns:svg="http://www.w3.org/2000/svg"><path
     style="fill:#000000"
     d="m 23.419318,93.388268 c -8.963045,-0.24709 -12.617982,-0.84633 -16.4792432,-2.70187 -2.1416,-1.02915 -4.722676,-3.48803 -5.56504,-5.30158 -2.37454898,-5.11225 -1.64626898,-12.33744 1.972616,-19.57013 2.42934,-4.85526 5.505485,-9.20026 11.5571582,-16.32424 5.889227,-6.93276 7.434577,-9.32712 8.248866,-12.78077 0.483124,-2.04908 0.567726,-16.57954 0.108988,-18.71857 -0.46262,-2.15712 -1.630397,-3.44832 -3.83016,-4.23498 -2.402607,-0.8592 -3.586054,-1.61901 -4.428281,-2.84312 -0.976021,-1.4185596 -1.242195,-2.2759496 -1.242195,-4.0013196 0,-2.76824 1.523476,-4.963586 4.365625,-6.29090403 l 1.322916,-0.617819 16.966214,-0.002600002 C 54.858553,-0.00243463 54.580723,-0.02293463 56.558303,1.4854414 c 2.18364,1.665543 3.19127,4.187547 2.70259,6.764347 -0.49184,2.5934496 -2.3895,4.5601696 -5.18387,5.3725196 -1.96954,0.57256 -3.41853,1.9175 -3.93328,3.65083 -0.57627,1.94053 -0.57975,17.63589 -0.004,19.84483 0.80954,3.10802 2.67499,5.998 7.54925,11.69543 9.5942,11.21446 13.35375,17.4979 14.96003,25.00312 0.86094,4.02267 0.44914,8.91314 -0.98767,11.72953 -1.85769,3.64137 -6.39279,6.23809 -12.58863,7.20803 -4.6261,0.72419 -21.499841,1.02433 -35.653005,0.63417 z m 32.184985,-5.02229 c 5.6748,-0.55345 8.77456,-1.64356 10.73035,-3.77358 1.57728,-1.71779 2.03358,-3.44309 1.86494,-7.05137 -0.30971,-6.62633 -3.66673,-12.84943 -13.01203,-24.12117 -5.62057,-6.77919 -7.23867,-8.99139 -8.41007,-11.49787 -1.87515,-4.0123 -1.92693,-4.4172 -1.92693,-15.06899 0,-9.24619 0.0173,-9.56722 0.59028,-10.9677 0.45038,-1.10078 0.51309,-1.49174 0.26458,-1.6496 -0.36339,-0.23083 -18.71423,-0.29904 -18.71423,-0.0696 0,0.08 0.175365,0.48455 0.389701,0.89903 0.803405,1.55362 0.941541,3.31651 0.950629,12.13191 0.0085,8.2747 -0.03135,9.06865 -0.554193,11.03281 -1.055912,3.96674 -3.157956,7.25598 -9.384426,14.68457 -6.219379,7.42013 -8.8141562,11.12406 -10.9804622,15.67411 -2.798365,5.87762 -3.372889,11.25413 -1.578455,14.77152 1.370645,2.68668 5.2035512,4.43162 10.9707482,4.99445 3.195707,0.31187 35.621078,0.32143 38.799568,0.0114 z m -38.799568,-3.34865 c -0.436562,-0.0534 -1.564428,-0.22222 -2.506368,-0.37525 -5.7925542,-0.94107 -7.5211582,-4.17863 -5.4583002,-10.22302 2.7393702,-8.02665 8.7249242,-12.53821 15.7663732,-11.88378 4.494962,0.41776 8.788505,3.23803 10.713856,7.03753 l 0.70997,1.40106 1.102859,-1.06522 c 3.999468,-3.86295 10.731988,-3.68688 14.819258,0.38756 1.38734,1.38298 2.84844,3.7978 3.36543,5.56219 0.3581,1.22215 0.64894,1.26266 0.89877,0.1252 0.37739,-1.71823 3.06572,-3.43095 4.85766,-3.09478 1.40953,0.26443 2.31198,0.80902 3.14033,1.89505 0.62138,0.81467 0.7539,1.27799 0.83717,2.92694 0.23237,4.60157 -1.83791,6.43112 -8.15569,7.20735 -2.06607,0.25385 -38.096499,0.34297 -40.091318,0.0992 z M 53.810323,8.5606784 c 1.22269,-1.22269 0.68618,-3.26857 -0.96343,-3.67385 -0.3234,-0.0795 -7.87732,-0.11066 -16.786493,-0.0694 -15.803263,0.0733 -16.211431,0.088 -16.728464,0.60519 -0.29148,0.29155 -0.606318,0.91186 -0.69964,1.37847 -0.142631,0.71316 -0.04147,0.97657 0.634675,1.65272 l 0.804351,0.80435 h 16.52073 16.520731 z" /></svg>
