<?xml version="1.0" encoding="UTF-8" standalone="no"?>
<svg
   width="68.469444mm"
   height="105.91502mm"
   viewBox="0 0 68.469444 105.91502"
   version="1.1"
   xml:space="preserve"
   xmlns="http://www.w3.org/2000/svg"
   xmlns:svg="http://www.w3.org/2000/svg"><g
     transform="translate(-72.93226,-94.655738)"><path
       style="fill:#000000"
       d="m 107.19346,94.656755 c -15.517636,-0.06142 -29.568126,2.664412 -33.077571,6.548955 -1.696669,1.87801 -1.56439,4.13401 0.365353,6.22753 l 1.040246,1.12809 v 39.28391 39.28339 l -0.949296,1.21853 c -2.283717,2.93125 -1.108622,5.83883 3.114539,7.70651 4.750039,2.10069 13.945195,3.90899 22.308716,4.38733 4.454883,0.2548 12.997393,0.11984 17.594273,-0.27802 4.12111,-0.35668 10.3448,-1.40725 13.95057,-2.3549 8.45606,-2.22239 11.42689,-5.65161 8.28425,-9.56221 l -0.80357,-0.99942 V 147.91914 108.5913 l 0.89142,-1.10277 c 1.2695,-1.57124 1.49031,-2.09534 1.48931,-3.53312 -0.001,-1.70975 -0.69526,-2.77103 -2.62671,-4.019391 -4.51466,-2.917959 -15.04306,-4.852655 -28.46131,-5.229655 -1.04486,-0.02936 -2.08571,-0.04551 -3.12022,-0.04961 z m 2.20658,3.680912 c 1.44128,0.02322 2.33356,0.08632 2.26395,0.198954 -0.45643,0.738509 -4.53138,1.676829 -8.36177,1.925459 -2.11005,0.13696 -4.78844,0.48621 -5.952607,0.77618 -1.164166,0.28997 -3.24776,0.64942 -4.630208,0.79841 -4.536409,0.48888 -5.804501,0.73126 -7.038847,1.34772 -1.912383,0.95509 -2.477159,2.27325 -1.545125,3.60391 0.543799,0.77638 0.306178,0.75729 -2.687691,-0.21601 -2.473123,-0.80401 -3.937518,-1.61215 -4.446241,-2.45256 -1.022333,-1.68889 6.043736,-4.09769 15.717904,-5.358329 3.088536,-0.402465 12.356785,-0.693406 16.680635,-0.623734 z m 10.96781,0.140043 c 3.08947,-0.03445 4.33725,0.423388 6.09368,2.23604 l 1.05007,1.08365 -1.5875,-0.71882 c -4.47229,-2.025546 -5.60888,-1.93933 -14.10354,1.07229 -1.92092,0.68102 -6.05541,1.23611 -4.94646,0.66404 0.44951,-0.23188 0.41465,-0.2517 -0.23151,-0.12919 -1.637,0.31038 -1.90739,0.33308 -2.54662,0.21032 -1.42614,-0.27388 -0.98784,-0.54157 1.11001,-0.67799 1.56956,-0.10207 2.99115,-0.42024 4.97541,-1.11311 7.57683,-2.645711 7.38525,-2.59603 10.18646,-2.62723 z m 7.80521,1.60972 c 0,-0.0785 1.301,0.19889 2.89077,0.61598 4.4393,1.1647 6.94029,2.63225 6.35362,3.72846 -0.38804,0.72506 -3.75045,2.23366 -6.65747,2.98741 -3.28284,0.85119 -6.41012,1.3918 -10.98435,1.89808 -4.31232,0.47731 -16.54114,0.79714 -15.94372,0.41703 0.7991,-0.50843 8.22242,-2.14905 13.8901,-3.06958 11.68566,-1.89794 11.84369,-1.94576 11.98687,-3.64009 0.0637,-0.75349 -0.089,-1.14646 -0.72761,-1.87379 -0.44451,-0.50626 -0.80821,-0.985 -0.80821,-1.0635 z m -28.204485,2.58537 c 1.112725,0.0584 1.784355,0.44646 2.616895,1.19683 0.7048,0.63523 0.79958,0.8472 0.55655,1.24385 -0.40368,0.65883 -1.08526,0.74106 -1.27175,0.15348 -0.41189,-1.29779 -2.941355,-1.92514 -4.968174,-1.23248 l -1.404566,0.48007 1.975073,0.20619 c 1.425725,0.14895 2.122886,0.35348 2.503723,0.73432 0.362714,0.36271 0.441924,0.61331 0.254244,0.80099 -0.395134,0.39514 -3.43349,0.53859 -5.129915,0.24236 -1.979754,-0.3457 -3.098512,-0.72473 -4.452958,-1.50895 -1.361622,-0.78836 -1.112044,-1.10528 0.881083,-1.11828 0.727604,-0.005 2.156354,-0.19136 3.175,-0.41496 2.598262,-0.57032 4.152067,-0.84181 5.264795,-0.78342 z m 24.482225,0.416 c 1.38046,-0.0181 2.3603,0.0575 2.66392,0.25373 0.30122,0.19463 0.19037,0.25797 -0.46147,0.26097 -1.17002,0.006 -10.88007,1.44913 -15.20269,2.26032 -1.93477,0.36308 -4.76868,1.07562 -6.29729,1.58337 -1.5286,0.50775 -3.6122,1.09953 -4.63021,1.31516 -1.681075,0.35609 -5.67264,0.47235 -7.671363,0.22325 -3.527971,-0.4397 -7.540625,-2.06305 -7.540625,-3.05046 0,-0.12982 0.446484,0.12052 0.992187,0.55603 2.597297,2.07282 9.933278,2.95836 13.973821,1.68724 1.02811,-0.32343 2.78033,-1.00306 3.89382,-1.5105 1.11351,-0.50744 3.12999,-1.21786 4.48087,-1.57872 3.91118,-1.04478 11.65764,-1.94606 15.79903,-2.00039 z m -36.634972,1.59628 c 0.262605,0.0422 0.642425,0.2232 1.026811,0.52555 0.942256,0.74118 3.358613,1.51842 5.596558,1.80041 l 1.852083,0.23358 -1.719792,0.0181 c -2.748339,0.0291 -6.739009,-1.24971 -7.078637,-2.26859 -0.08475,-0.25424 0.06037,-0.3512 0.322977,-0.30903 z m -10.971423,4.49637 0.859896,0.50695 c 2.307076,1.35984 8.879229,2.9369 16.205729,3.88865 5.301388,0.68869 21.34177,0.68838 26.7224,-5.2e-4 6.9486,-0.88965 13.17204,-2.3793 15.66054,-3.74809 0.60947,-0.33524 1.17507,-0.54214 1.25677,-0.46044 0.24303,0.24303 0.16904,1.37964 -0.12557,1.93012 -0.86463,1.61557 -8.61937,3.81093 -17.28887,4.89479 -3.81005,0.47634 -17.75553,0.71506 -21.859645,0.37414 -8.764152,-0.72803 -17.477755,-2.6512 -20.571354,-4.5403 -0.759561,-0.46382 -0.859896,-0.66041 -0.859896,-1.68516 z m 21.911841,21.67516 c 2.194114,0.0743 4.454614,0.67086 7.161834,1.83813 4.18687,1.80525 6.40027,2.48476 9.19376,2.82154 0.87775,0.10577 2.62371,0.31656 3.87986,0.4687 1.25616,0.15215 2.85348,0.42495 3.54966,0.60617 2.47109,0.64332 4.65643,1.83655 6.24303,3.40806 2.0996,2.07966 3.12178,4.46268 3.15123,7.34787 0.0225,2.20611 -0.25738,5.89415 -0.5116,6.74016 -0.68383,2.2756 -1.96512,3.94012 -4.72478,6.13864 -1.27903,1.01896 -4.07783,3.74484 -6.18101,6.01979 -3.39645,3.67384 -6.5456,5.59397 -10.82002,6.59701 -0.67356,0.15806 -1.60507,0.29928 -2.07015,0.31419 -0.46508,0.0149 -0.84573,0.0716 -0.84595,0.12609 -5e-4,0.16016 -3.63654,0.0872 -4.99607,-0.10025 -3.851684,-0.5311 -7.210221,-1.84053 -10.254676,-3.99872 -1.578653,-1.11909 -3.618574,-3.16951 -4.766117,-4.79041 -2.133082,-3.01297 -3.77859,-7.52468 -3.779615,-10.36267 -1.33e-4,-0.3688 -0.08831,-1.50316 -0.195853,-2.52078 -0.406076,-3.84203 -0.20471,-6.42669 0.716752,-9.19995 1.97165,-5.93396 5.873046,-9.74697 11.289233,-11.03344 1.351102,-0.32092 2.644013,-0.46471 3.960482,-0.42013 z m -0.320394,3.01067 c -3.378567,0 -7.181884,1.74603 -9.240263,4.24212 -1.911945,2.3185 -3.025012,5.06112 -3.523299,8.68319 -0.359441,2.61279 0.04328,5.68944 1.071769,8.19278 2.384628,5.80424 7.811407,9.85685 14.630111,10.92492 1.74504,0.27332 4.46039,0.24886 6.21616,-0.0558 v 5.1e-4 c 2.43811,-0.42301 4.53787,-1.25552 6.61924,-2.62361 0.63129,-0.41491 2.15885,-1.85686 4.8643,-4.59197 2.33622,-2.36183 4.75341,-4.66403 5.92935,-5.64668 1.0919,-0.91244 2.20655,-1.91641 2.47685,-2.23139 2.87457,-3.34974 0.99277,-8.39986 -3.94549,-10.58747 -1.26249,-0.55926 -3.32236,-0.98429 -6.23476,-1.28674 -5.11267,-0.53091 -7.08344,-1.03353 -11.76724,-3.00188 -3.76728,-1.58318 -5.29681,-2.01797 -7.096728,-2.01797 z m -0.387056,2.70888 c 0.844291,0 1.003476,0.0455 1.723925,0.49248 1.181989,0.73344 1.830629,0.97794 4.370279,1.64641 1.27061,0.33445 2.84255,0.7614 3.49332,0.94878 1.12223,0.32316 1.34612,0.34089 4.35013,0.34468 3.46435,0.005 3.60339,0.0333 3.60339,0.75344 0,0.97476 -0.64732,1.51817 -2.96932,2.49287 -1.42356,0.59756 -1.64421,0.73938 -2.54817,1.63143 -1.42012,1.40143 -1.93017,1.71858 -3.7269,2.32079 -1.63795,0.54902 -3.70952,1.5336 -4.80229,2.28203 -1.46237,1.00155 -2.853371,2.70519 -4.294316,5.25911 -1.579456,2.79939 -2.426091,3.56475 -3.942911,3.56619 -0.546246,5e-4 -0.915623,-0.0768 -1.200961,-0.25167 -0.822959,-0.50443 -1.586453,-1.86155 -2.070674,-3.68039 -0.169249,-0.63574 -0.488326,-1.51547 -0.709001,-1.95492 -0.800769,-1.59462 -1.053405,-3.2088 -0.813387,-5.19142 0.186373,-1.53951 0.502095,-2.47599 1.16272,-3.44888 0.664208,-0.97816 1.001902,-1.64999 1.198893,-2.38539 0.537188,-2.0054 1.709012,-3.02076 4.996077,-4.32841 1.028777,-0.40927 1.412952,-0.49713 2.179196,-0.49713 z m -0.403077,3.59151 c -0.999053,-0.0126 -1.92715,0.18425 -2.347143,0.5395 -1.670453,1.41296 -0.478224,5.82826 2.533695,5.5237 1.302049,-0.13167 3.423119,-1.66076 3.371369,-4.01319 -0.0314,-1.42555 -1.892832,-2.02897 -3.557921,-2.05001 z m 21.866881,1.54409 c 0.83814,0.002 1.67757,0.21702 2.51251,0.64338 0.67042,0.34237 1.11106,0.72491 2.1115,1.83296 0.69548,0.77027 1.37029,1.62362 1.49913,1.89652 0.29131,0.61712 0.29309,1.57405 0.006,2.29857 -0.25612,0.64348 -1.28025,1.62026 -2.17868,2.07791 -0.34086,0.17363 -0.98113,0.61824 -1.42317,0.98805 -1.11689,0.93435 -1.70974,1.17979 -2.8329,1.17254 -0.50616,-0.004 -1.16963,-0.084 -1.47433,-0.17983 h -10e-4 c -2.49906,-0.78511 -4.06623,-3.36927 -3.62252,-5.97328 0.30833,-1.80941 1.40393,-3.37027 2.89801,-4.12843 0.83049,-0.42142 1.66765,-0.63088 2.50579,-0.62839 z m -10.72389,7.23935 c 1.16321,-0.004 1.66655,0.34274 2.60604,1.58337 0.77521,1.02369 0.82223,1.05974 2.32906,1.78284 1.81862,0.87269 2.35625,1.25425 2.60346,1.84898 0.28928,0.69599 0.20448,2.2779 -0.11162,2.08153 -0.0743,-0.0461 -0.10504,-8.2e-4 -0.0692,0.10077 0.0355,0.10098 -0.0377,0.39155 -0.16227,0.64595 -0.12468,0.2544 -0.33091,0.7831 -0.45837,1.17461 -0.42342,1.30065 -1.03116,1.76096 -3.59978,2.72593 -0.53298,0.20023 -1.36139,0.62922 -1.84071,0.95343 -1.75299,1.1857 -2.50333,1.38498 -3.82974,1.01699 -0.46458,-0.12889 -1.4513,-0.21357 -2.76056,-0.23719 -2.01984,-0.0364 -2.05446,-0.0423 -3.94084,-0.65113 -1.046718,-0.33781 -2.048686,-0.72368 -2.226737,-0.85731 -0.6501,-0.48791 -0.866568,-0.92386 -0.861963,-1.73943 0.0059,-1.03464 0.409501,-1.63 1.661397,-2.45101 2.039503,-1.33755 2.418763,-1.7712 3.064933,-3.50315 0.41318,-1.10745 1.03533,-2.0498 1.67793,-2.54144 1.35644,-1.03778 3.45019,-1.78265 5.37693,-1.91255 0.1963,-0.0132 0.37592,-0.0207 0.54209,-0.0212 z m 28.60497,38.67465 0.18552,0.73897 c 0.10197,0.40642 0.0789,1.11765 -0.0512,1.58078 -0.20125,0.71681 -0.57014,1.00859 -2.48047,1.96112 -3.61682,1.80343 -11.02885,3.44245 -18.11931,4.00699 -13.38033,1.0652 -26.087696,-0.003 -35.030933,-2.94555 -1.368048,-0.45011 -3.034923,-1.18467 -3.704167,-1.63195 -1.167402,-0.78021 -1.220182,-0.87122 -1.298112,-2.23862 l -0.08113,-1.42523 0.874882,0.73949 c 1.28677,1.08727 3.343065,1.9149 7.239351,2.91351 8.019199,2.05529 19.505629,2.92539 29.487089,2.23397 10.89159,-0.75447 20.74565,-3.10363 22.53557,-5.37228 z" /></g></svg>
