<?xml version="1.0" encoding="UTF-8" standalone="no"?>
<svg
   width="99.310684mm"
   height="85.130821mm"
   viewBox="0 0 99.310684 85.130821"
   version="1.1"
   xml:space="preserve"
   xmlns="http://www.w3.org/2000/svg"
   xmlns:svg="http://www.w3.org/2000/svg"><path
     style="fill:#000000"
     d="m 38.631596,84.753632 c -7.751543,-1.06325 -14.510509,-3.6853 -20.637499,-8.00603 -3.177051,-2.24045 -7.282091,-6.34476 -9.5915301,-9.58984 -4.292845,-6.03204 -7.60481101,-15.065 -7.60687301,-20.74676 -2.67e-4,-0.73834 -0.177587,-3.00932 -0.394042,-5.04661 -0.817233,-7.69185 -0.412006,-12.86611 1.44244201,-18.41824 C 5.8120579,11.066242 13.66444,3.4317922 24.564557,0.85625216 c 7.250937,-1.71328 13.665476,-0.89952 22.382766,2.83954004 8.4261,3.61415 12.88079,4.97402 18.50271,5.64827 1.76648,0.21185 5.28015,0.6344 7.80818,0.9389998 2.52802,0.3046 5.74271,0.85069 7.14375,1.21352 4.9731,1.28792 9.37168,3.67632 12.56471,6.82253 4.22546,4.16352 6.28219,8.93471 6.34145,14.71091 0.0453,4.41669 -0.51814,11.80003 -1.02978,13.49375 -1.3762,4.5558 -3.95436,7.88815 -9.50821,12.28965 -2.57406,2.03998 -8.20723,7.49751 -12.43989,12.05201 -6.83537,7.35512 -13.17239,11.19864 -21.77469,13.20676 -1.35553,0.31643 -3.23039,0.59975 -4.16637,0.6296 -0.93598,0.0298 -1.70215,0.14356 -1.7026,0.2527 -10e-4,0.32062 -7.318934,0.17444 -10.054987,-0.20086 z m 11.681517,-14.67105 c 4.90669,-0.84686 9.1328,-2.51294 13.32161,-5.25186 1.27044,-0.83069 4.34484,-3.71798 9.78958,-9.19374 4.70164,-4.72843 9.56629,-9.33672 11.93289,-11.30403 2.19746,-1.82671 4.44046,-3.83724 4.98444,-4.46784 5.7851,-6.70628 1.99751,-16.81624 -7.9408,-21.19588 -2.54075,-1.11967 -6.68607,-1.97081 -12.54729,-2.57629 -10.28929,-1.0629 -14.25513,-2.0694 -23.68132,-6.01008 -7.581671,-3.1695798 -10.65971,-4.0403398 -14.282071,-4.0403398 -6.799387,0 -14.454231,3.49601 -18.596738,8.4932398 -3.8478041,4.64172 -6.0871281,10.13231 -7.0899331,17.38377 -0.723379,5.23087 0.0864,11.39098 2.156212,16.40272 4.7990821,11.62023 15.7209221,19.73327 29.4436261,21.87154 3.511924,0.54722 8.976294,0.49865 12.509794,-0.11121 z m -2.68568,-5.98457 c -0.93497,-0.25804 -2.92136,-0.42794 -5.556254,-0.47523 -4.064941,-0.073 -4.134755,-0.0844 -7.931102,-1.30322 -2.106533,-0.67628 -4.123239,-1.4485 -4.481568,-1.71603 -1.308333,-0.97681 -1.7431,-1.85019 -1.733833,-3.48299 0.01176,-2.07135 0.823883,-3.26331 3.343335,-4.90702 4.104505,-2.6778 4.867466,-3.54526 6.167896,-7.01267 0.831519,-2.21713 2.084098,-4.10441 3.377325,-5.08867 2.729852,-2.07765 6.943181,-3.56835 10.820741,-3.82843 3.16033,-0.21198 4.1752,0.28898 6.33603,3.12756 1.56011,2.04945 1.65422,2.12111 4.68673,3.56875 3.65999,1.74717 4.74189,2.51169 5.23939,3.70238 0.5822,1.39338 0.41138,4.56031 -0.22477,4.16715 -0.14946,-0.0924 -0.21115,-0.003 -0.13894,0.20141 0.0714,0.20216 -0.0754,0.78428 -0.32627,1.2936 -0.2509,0.50932 -0.66604,1.56733 -0.92254,2.35112 -0.85217,2.60394 -2.07566,3.52556 -7.245,5.45745 -1.07266,0.40087 -2.73953,1.25991 -3.70417,1.90898 -3.52792,2.37381 -5.03761,2.7726 -7.707,2.03586 z m -28.47821,-9.61521 c -1.65621,-1.0099 -3.192856,-3.72681 -4.167354,-7.36819 -0.340614,-1.27276 -0.98266,-3.03393 -1.426769,-3.91371 -1.611555,-3.19247 -2.12074,-6.42383 -1.637702,-10.39309 0.375077,-3.08213 1.010572,-4.95733 2.340089,-6.90507 1.336723,-1.9583 2.016456,-3.30374 2.412901,-4.77603 1.081094,-4.01487 3.439715,-6.04757 10.054959,-8.66551 2.070424,-0.81936 2.84358,-0.99472 4.385654,-0.99472 1.699141,0 2.019714,0.0911 3.46962,0.98611 2.378757,1.46836 3.683333,1.95723 8.794388,3.29552 2.557114,0.66956 5.720854,1.52433 7.030544,1.89948 2.25851,0.64695 2.7098,0.68252 8.75537,0.69008 6.97205,0.009 7.25192,0.067 7.25192,1.50872 0,1.95147 -1.30301,3.03973 -5.97605,4.99112 -2.86491,1.19634 -3.30968,1.47952 -5.12888,3.26543 -2.85801,2.80571 -3.88361,3.4412 -7.49954,4.64687 -3.2964,1.09913 -7.465875,3.06984 -9.6651,4.56821 -2.943018,2.00514 -5.742579,5.41568 -8.642495,10.52866 -3.178666,5.60446 -4.882191,7.13741 -7.934806,7.14028 -1.099322,0.001 -1.842505,-0.154 -2.416749,-0.50416 z m 11.526186,-23.688 c 2.62038,-0.2636 6.889022,-3.32428 6.784887,-8.0339 -0.100967,-4.56634 -9.630655,-4.92069 -11.884624,-3.0241 -3.361802,2.82877 -0.961776,11.66775 5.099737,11.058 z m 40.046454,12.43471 c -5.02937,-1.5718 -8.1832,-6.74519 -7.2902,-11.95849 0.62051,-3.62247 2.82575,-6.74753 5.83259,-8.26538 3.34271,-1.68739 6.73805,-1.67733 10.09872,0.0299 1.34923,0.68542 2.23676,1.45184 4.25015,3.67017 1.39964,1.54211 2.75693,3.25086 3.0162,3.79723 0.58627,1.23548 0.59047,3.15118 0.0101,4.6017 -0.51545,1.28824 -2.57627,3.24345 -4.38436,4.15968 -0.686,0.34762 -1.97514,1.23778 -2.86475,1.97813 -2.24774,1.87058 -3.44103,2.36188 -5.70142,2.34737 -1.01864,-0.007 -2.3538,-0.16869 -2.96702,-0.36033 z" /></svg>
