<svg xmlns="http://www.w3.org/2000/svg" xml:space="preserve" width="160.135" height="318.778" viewBox="0 0 42.369 84.343"><path d="M6.65 0v2.47c0 1.358.05 2.518.111 2.579.061.06 6.937.105 15.28.096l15.169-.013.076-2.566L37.36 0H22.006Zm.29 8.197-.177.942c-.113.604-.93 1.903-2.28 3.626C2.388 15.438.51 18.38.176 19.513L0 20.108h42.369v-.799c0-1.123-1.084-3.662-2.762-6.465-.788-1.316-1.65-2.87-1.917-3.451l-.485-1.059-15.132-.068zM7.655 23.2c-3.837.004-6.354.02-6.627.045l-.992.094v8.146h42.333v-8.192l-20.174-.071c-5.548-.02-10.704-.027-14.54-.022M.168 34.528.093 57.547C.052 70.207.082 80.923.16 81.359c.205 1.143 1.17 2.212 2.39 2.648.884.317 4.004.37 19.05.32 20.016-.064 19.106.02 20.252-1.856.504-.826.515-1.432.45-24.395l-.065-23.548H21.202Zm21.391 2.426c3.109.014 5.982 2.521 5.982 6.305 0 2.75-1.517 4.926-3.937 5.651-1.894.568-4.497.211-5.778-.791-3.109-2.435-3.299-6.914-.404-9.524 1.263-1.138 2.724-1.647 4.137-1.641m.271 3.082a3 3 0 0 0-.655.012c-1.442.182-2.739 1.37-2.739 3.08a3.06 3.06 0 0 0 1.794 2.798c3.034 1.357 5.8-2.662 3.45-5.012a2.97 2.97 0 0 0-1.85-.878"/></svg>