<?xml version="1.0" encoding="UTF-8" standalone="no"?>
<svg
   width="84.222603mm"
   height="99.193909mm"
   viewBox="0 0 84.222603 99.193909"
   version="1.1"
   xml:space="preserve"
   xmlns="http://www.w3.org/2000/svg"
   xmlns:svg="http://www.w3.org/2000/svg"><path
     style="fill:#000000"
     d="m 39.189425,98.823675 c -2.886562,-0.77714 -4.879574,-2.40104 -5.993707,-4.88366 -1.100128,-2.45141 -1.129441,-4.21799 -0.188742,-11.37488 1.069222,-8.13471 1.639613,-14.37591 1.849816,-20.24063 l 0.170698,-4.7625 1.719792,-0.44497 c 2.14358,-0.55462 6.261627,-0.60395 8.163306,-0.0978 0.779037,0.20735 1.454819,0.41539 1.501737,0.46231 0.04692,0.0469 0.217249,1.57249 0.378513,3.39017 0.289875,3.26729 1.954033,13.3597 3.464553,21.01107 0.95817,4.85345 1.03141,8.01271 0.24482,10.55941 -0.97329,3.15113 -3.490676,5.53695 -6.733531,6.38161 -1.894718,0.49351 -2.743719,0.49348 -4.577255,-1.5e-4 z m -8.943093,-42.47896 -1.606158,-1.31641 1.38508,-2.7019 c 1.857043,-3.62257 2.867804,-6.23404 3.59478,-9.28773 l 0.605228,-2.54229 h 7.334437 7.334442 l 0.16706,0.99219 c 0.57607,3.42114 2.25656,8.33988 4.09069,11.97327 l 0.77373,1.53276 -2.12816,1.39717 c -1.38099,0.90665 -2.19195,1.29395 -2.30987,1.10316 -0.3029,-0.49009 -3.483126,-1.88046 -5.040999,-2.20387 -0.868334,-0.18027 -2.703967,-0.25077 -4.515111,-0.17343 -3.333359,0.14235 -5.487757,0.72807 -7.043971,1.91505 -0.477081,0.36389 -0.905131,0.65415 -0.95122,0.64502 -0.04609,-0.009 -0.806571,-0.60897 -1.689958,-1.33299 z m -4.61155,-11.50561 C 14.05896,43.316785 5.1396609,39.922415 1.8710719,35.795485 0.33416591,33.854985 -0.10650709,32.491325 0.02067391,30.069455 0.25341491,25.637435 2.2949909,23.368885 13.20737,15.416725 17.05927,12.609735 22.166981,8.8315349 24.557839,7.0207359 31.638785,1.6577269 35.63213,0.00386288 41.509782,6.8808303e-6 45.047048,-0.00229312 47.709215,0.57183988 50.674251,1.9765229 c 2.7866,1.320151 4.01567,2.17497 11.92056,8.2907821 3.95692,3.06136 9.30801,7.09693 11.89132,8.96791 5.8601,4.24424 7.74388,6.03688 8.89257,8.46234 0.74354,1.57001 0.85872,2.08989 0.8425,3.803 -0.0238,2.51753 -0.72557,4.07483 -2.74764,6.09765 -1.74073,1.74137 -4.03031,3.06386 -7.28704,4.20906 -4.00236,1.4074 -12.47473,2.88179 -19.22047,3.34481 -2.83662,0.1947 -2.64533,0.3078 -3.01517,-1.78265 l -0.17045,-0.96342 1.6777,-0.18423 c 0.92273,-0.10133 3.76129,-0.53395 6.3079,-0.96139 8.10757,-1.36083 12.955,-2.92767 14.7034,-4.75261 0.40488,-0.42261 0.68141,-0.82311 0.6145,-0.89002 -0.0669,-0.0669 -1.54651,0.1653 -3.288,0.51601 -9.14041,1.84073 -28.729665,2.9515 -40.075732,2.27241 -7.950421,-0.47584 -17.485471,-1.71388 -21.7912471,-2.82939 -0.852843,-0.22095 -1.616098,-0.33625 -1.696121,-0.25623 -0.624503,0.62451 3.6563541,2.8661 7.8157751,4.0926 2.900248,0.8552 9.280509,2.1684 13.104169,2.69711 1.826616,0.25258 2.296142,0.40319 2.18224,0.70002 -0.07982,0.208 -0.219618,0.84403 -0.310662,1.41339 l -0.165536,1.03521 -1.222955,-0.0272 c -0.672625,-0.015 -2.473111,-0.19162 -4.00108,-0.39256 z" /></svg>
