<svg xmlns="http://www.w3.org/2000/svg" xml:space="preserve" width="404.547" height="431.365" viewBox="0 0 107.036 114.132"><path d="M53.396.051c-6.4.345-12.636 2.468-18.06 5.851-3.441 2.042-6.463 4.675-9.7 7.004-3.636 2.603-7.457 4.936-11.398 7.046-4.67 2.731-9.372 6.028-12.19 10.803-2.227 3.786-2.797 8.7-.912 12.738 1.882 3.765 5.545 6.167 9.063 8.243 3.849 2.268 7.99 3.98 12.219 5.394 4.683 1.567 9.44 2.997 14.33 3.824-2.787-1.38-5.837-2.126-8.611-3.545-3.752-1.824-7.487-3.757-10.87-6.216-.648-.514-1.64-1.235-1.31-2.177.605-.72 1.54.042 2.21.254 6.323 2.63 12.676 5.172 19.089 7.57.25.061 1.304.48.966.146-2.643-2.298-5.918-3.69-8.686-5.82-1.507-1.175-3.19-2.295-4.156-3.986-.36-.585.094-1.553.842-1.279 2.598.948 4.923 2.502 7.313 3.87 1.383.794 2.76 1.565 4.183 2.212-1.748-1.407-3.772-2.55-5.184-4.326-.51-.58-.166-1.543.62-1.606 1.886-.225 3.764.336 5.613.641 4.517 1.004 9.073 1.93 13.64 2.54 4.648.687 9.36.804 13.999 1.567 2.91.478 5.87.866 8.66 1.861.59.14 1.198.782.67 1.345-2.083 2.223-5.103 3.282-7.21 5.49 4.198-1.595 8.559-3.026 12.95-4.114.54-.116 1.397-.354 1.586.374-.054.99-1.147 1.413-1.838 1.937a48.6 48.6 0 0 1-11.12 4.961c3.854.286 7.757-.099 11.626-.55 2.33-.265 4.674-.656 7.024-.57.764.061.766 1.124.134 1.402C87 64 84.824 64.413 82.74 64.941c-3.177.764-6.432 1.093-9.684 1.344-1.034.114-2.072.224-3.087.46 1.81.552 3.679.45 5.538.548 4.568.08 9.114 0 13.626-.61 3.75-.513 7.564-1.73 10.819-3.792 2.578-1.646 5.472-3.599 6.47-6.582.81-2.594.696-5.433.355-8.03-.523-3.547-2.265-6.775-4.346-9.569-3.221-4.393-7.263-8.09-10.65-12.347-2.412-2.87-4.623-5.9-6.747-8.988-4.721-6.524-10.85-12.353-18.466-15.282C62.395.455 57.867-.197 53.396.051M45.11 51.766c-.491.144-.3.8-.49 1.168-1.896 8.975-3.507 18.077-5.572 27.042-1.1 4.926-2.524 9.795-3.076 14.827-.74 5.03.68 10.48 4.316 14.13 3.172 3.18 7.61 5.164 12.118 5.198 4.13.038 8.164-1.828 10.983-4.816 1.29-1.33 2.508-3.114 3.297-4.797 1.377-3.4 1.323-7.175 1.075-10.775-.233-3.657-1.284-7.184-1.681-10.818-1.016-7.533-1.43-15.127-1.973-22.704-.222-1.87-.185-3.874-1.097-5.572-.875-1.202-2.583-.985-3.862-1.123-3.958-.22-7.935-.537-11.817-1.368-.73-.174-1.461-.447-2.221-.392m23.605 2.69c-.895.213.096.088 0 0"/></svg>