<?xml version="1.0" encoding="UTF-8" standalone="no"?>
<svg
   width="78.179375mm"
   height="56.186882mm"
   viewBox="0 0 78.179375 56.186882"
   version="1.1"
   xml:space="preserve"
   xmlns="http://www.w3.org/2000/svg"
   xmlns:svg="http://www.w3.org/2000/svg"><path
     style="fill:#000000"
     d="M 28.707291,56.011585 C 12.7468,54.546995 0,50.339715 0,46.536285 c 0,-0.4203 0.943962,-3.78348 2.097692,-7.47372 1.153731,-3.69023 2.996005,-9.62137 4.093943,-13.1803 1.774989,-5.75358 2.097515,-6.57205 2.909877,-7.38441 l 0.913627,-0.91363 -0.141927,1.05815 c -0.122978,0.91686 -0.02965,1.18603 0.698997,2.01591 1.891634,2.15445 7.463051,3.79647 16.944457,4.9939 3.635977,0.4592 19.469856,0.4658 23.151036,0.01 11.72993,-1.45349 18.1463,-3.91475 17.80594,-6.83018 -0.0871,-0.74626 -0.0404,-0.82564 0.35996,-0.61137 0.77377,0.4141 1.26882,1.3341 1.98114,3.68172 0.37532,1.23692 2.22065,7.18576 4.10074,13.21963 2.49945,8.0216 3.37391,11.17304 3.25302,11.72345 -0.63355,2.88452 -8.65549,6.20257 -19.29871,7.98237 -6.21755,1.03972 -9.30121,1.26544 -18.38854,1.346 -5.02047,0.0445 -10.318753,-0.0283 -11.773961,-0.16187 z m 6.058903,-32.79207 c -1.033228,-0.10898 -2.121713,-0.32825 -2.418857,-0.48728 -0.853676,-0.45687 -1.878268,-1.81932 -2.216077,-2.94683 -0.263502,-0.87949 -0.242203,-1.13777 0.142212,-1.72446 0.660601,-1.0082 2.57088,-2.12373 4.55778,-2.66156 1.48642,-0.40235 1.91772,-0.42329 2.96702,-0.14402 1.65974,0.44173 2.21777,0.84589 3.61623,2.61908 1.50972,1.91428 1.86511,3.00767 1.46299,4.50103 l -0.29997,1.11403 -2.96637,-0.0359 c -1.6315,-0.0198 -3.81173,-0.12509 -4.844958,-0.23406 z m 13.125278,-0.68066 c -2.58766,-1.12215 -2.87279,-3.32737 -0.67149,-5.19335 2.2177,-1.87987 7.45182,-1.54478 7.75887,0.49672 0.0428,0.28454 -0.34416,1.21809 -0.8599,2.07456 -0.51574,0.85647 -0.9377,1.81592 -0.9377,2.13213 0,0.48337 -0.19546,0.6017 -1.22756,0.74317 -1.88471,0.25832 -3.05012,0.18568 -4.06222,-0.25323 z m -23.417514,-0.289 c -2.089228,-0.26856 -4.724507,-0.91509 -5.620829,-1.37901 -1.600683,-0.82848 -3.762779,-3.20567 -3.946757,-4.33939 -0.322439,-1.98696 0.706246,-3.08561 3.894841,-4.15977 1.925824,-0.64877 3.50006,-0.65837 4.878995,-0.0298 2.397061,1.09271 3.637653,2.85139 4.118765,5.83882 0.217225,1.34884 0.187092,1.78288 -0.177048,2.55025 -0.479421,1.0103 -1.31607,1.72274 -1.950068,1.66055 -0.222282,-0.0218 -0.761337,-0.0856 -1.197899,-0.14167 z m 31.033894,-0.22611 c -0.21913,-0.21913 0.0212,-0.91492 0.51524,-1.49146 0.42771,-0.49917 0.91652,-2.14796 0.91562,-3.08842 -3.3e-4,-0.34361 -0.38891,-1.02231 -0.86876,-1.51739 -0.47749,-0.49264 -0.77723,-0.98679 -0.66609,-1.09811 0.11114,-0.11132 1.2753,-0.24444 2.58701,-0.29582 4.0772,-0.15971 6.03829,0.7789 6.03829,2.89003 0,0.92107 -0.16323,1.26533 -0.99378,2.09589 -0.78108,0.78107 -1.33323,1.06282 -2.57969,1.31634 -1.36611,0.27786 -2.20442,0.5136 -4.37076,1.22912 -0.22198,0.0733 -0.48166,0.0552 -0.57708,-0.0402 z m -27.27506,-8.7411 c -0.667001,-0.91971 -1.707124,-1.98429 -2.311385,-2.36575 -0.959609,-0.60577 -1.077471,-0.7833 -0.931268,-1.4026601 0.3425,-1.45094 2.065624,-3.58751 3.452568,-4.28098 1.933924,-0.96696 4.996362,-0.93816 6.919215,0.0651 1.57709,0.82284 2.47349,1.83666 2.47349,2.79747 0,1.78389 -2.20287,4.4563901 -4.205679,5.1022901 -0.524531,0.16916 -1.68056,0.63363 -2.568953,1.03215 l -1.615261,0.72459 z m 13.50502,0.89276 c -2.29475,-0.60946 -3.18809,-2.51675 -2.05174,-4.3805101 1.03193,-1.6925 3.9275,-2.74817 6.28081,-2.28986 1.04396,0.20331 1.3692,0.42428 2.04506,1.38941 0.79684,1.1378901 0.79918,1.1513901 0.27451,1.5875001 -1.10566,0.91904 -1.98437,2.22218 -1.98437,2.94283 0,0.54644 -0.15725,0.78474 -0.59531,0.90213 -0.85663,0.22957 -2.81573,0.15479 -3.96896,-0.1515 z m 6.41635,-0.13326 c 0,-0.10282 0.47738,-0.8675 1.06085,-1.69929 1.50634,-2.14744 1.60176,-2.9009401 0.5354,-4.2278901 -0.47059,-0.58559 -0.77962,-1.1407 -0.68673,-1.23359 0.0929,-0.0929 1.20617,-0.16931 2.47395,-0.16984 1.84785,-7.6e-4 2.58317,0.12251 3.70707,0.62145 4.05412,1.79976 2.12179,5.7030201 -2.9895,6.0386901 -1.01864,0.0669 -2.11578,0.28718 -2.43808,0.48952 -0.61541,0.38635 -1.66296,0.50034 -1.66296,0.18095 z m -8.73142,-7.8565701 c -0.51454,-0.51454 -0.29963,-2.62973 0.36684,-3.61054 0.76486,-1.12559 2.85554,-2.31293002 4.45982,-2.53282002 1.6257,-0.22283 3.79544,0.4546 5.1387,1.60438002 0.96852,0.82902 1.65411,2.10972 1.31234,2.4515 -0.1411,0.14109 -4.34927,1.11785 -4.86138,1.12837 -1.679,0.0841 -3.35102,0.32489 -4.46478,0.69503 -1.12401,0.35207 -1.77539,0.44021 -1.95154,0.26405 z" /></svg>
