<?xml version="1.0" encoding="UTF-8" standalone="no"?>
<svg
   width="99.23777mm"
   height="101.29221mm"
   viewBox="0 0 99.23777 101.29221"
   version="1.1"
   xml:space="preserve"
   xmlns="http://www.w3.org/2000/svg"
   xmlns:svg="http://www.w3.org/2000/svg"><g
     transform="translate(-55.368544,-92.28864)"><path
       style="fill:#000000"
       d="m 95.250002,193.39744 c -12.217228,-1.07662 -25.163968,-2.35371 -35.64199,-9.27443 -3.828518,-2.57644 -5.841483,-8.24126 -2.669561,-12.12936 1.409493,-2.35394 4.739018,-2.20233 4.695181,-5.43347 2.165998,-5.80785 2.91742,-11.9553 3.593263,-18.07105 1.321496,-4.69575 6.827837,-6.24709 10.886087,-7.80696 3.679809,-1.09165 4.882043,-7.32173 9.954554,-5.10117 1.594088,-4.69608 7.693495,-6.79133 11.897833,-4.25259 1.794749,-3.11494 6.003281,-3.53805 8.880881,-1.73242 3.20215,-4.44926 10.40023,-1.72813 12.11476,2.69636 1.22518,2.08866 7.72787,-0.35932 9.25054,3.85231 1.07655,5.00389 6.73443,4.11704 10.47524,6.28766 5.24632,1.5757 7.14993,6.65544 6.96295,11.66782 0.4222,5.31082 2.1193,10.46803 3.83762,15.42946 5.19574,1.83674 6.98629,9.07858 2.77716,12.8975 -4.90098,5.02682 -12.12622,6.78291 -18.7204,8.45359 -12.5617,2.82598 -25.48883,2.94106 -38.294118,2.51675 z m 2.41981,-4.91671 c 4.435258,-0.008 9.307948,0.60844 13.914198,0.10262 4.30319,-0.91541 10.78325,0.56145 13.56391,-2.86979 -1.54651,-1.749 -6.75912,1.89613 -8.49827,0.0644 -1.09309,-3.37471 -7.91508,-0.11599 -11.24644,-1.24257 -12.119136,-0.0485 -24.72195,-1.17209 -35.680987,-6.74688 -3.302546,-0.49822 -7.010543,-9.1788 -8.348343,-3.11471 -3.096408,2.36497 2.718239,5.85736 4.768601,7.05456 9.157412,4.41493 19.405096,5.57517 29.344837,6.92009 0.670818,0.36951 1.585834,0.33432 2.182494,-0.1677 z m 17.226208,-6.31298 c 5.11034,0.57073 9.34316,-2.30218 10.67154,-7.2639 1.94639,-3.86676 1.34753,-8.22843 1.26583,-12.3874 5.64739,-1.12507 11.05146,-3.623 16.19225,-5.88454 0.73994,-6.39293 -5.16482,1.31141 -8.5825,1.17796 -13.94646,4.50189 -28.9405,4.85189 -43.416976,3.38086 -7.763216,-1.23679 -16.24801,-2.13427 -22.700395,-7.01971 -1.83602,-1.6187 -1.473866,5.09788 -1.452485,6.54798 1.545358,1.26602 6.158951,5.59488 1.493222,3.01933 -3.847912,-3.72577 -1.924679,1.77884 0.999829,2.37157 2.210848,2.24199 8.442666,2.18296 8.963846,4.55 -4.810883,-0.70775 -9.363945,-2.94463 -13.073271,-6.05813 -3.351166,4.9441 2.525305,9.06684 6.478915,11.18557 13.27256,6.65679 28.601475,7.4404 43.160195,6.38041 z m -10.87678,-22.36631 c 5.13381,-0.24414 10.26419,0.50788 15.36447,-0.49552 4.8021,-0.14498 9.32639,-1.61255 13.99929,-2.7711 3.68919,-1.33174 11.31782,-3.87218 8.40224,-9.00518 -1.42431,-1.56267 -6.67056,-4.70321 -7.33962,-3.52717 4.478,1.4336 7.03348,6.8497 1.72949,9.27251 -8.06777,4.00574 -17.39699,4.28285 -26.22313,4.8678 -11.583222,0.0172 -23.637361,0.0428 -34.524932,-4.43416 -5.785229,-1.51423 -5.145232,-8.25982 0.526289,-9.29187 5.748006,-3.02811 -2.716795,-0.46671 -4.343701,0.8091 -6.390908,1.59318 -3.485977,8.54186 1.558663,9.6826 7.691776,2.61566 15.714783,4.40434 23.862898,4.44509 1.719737,1.66049 4.634003,0.17963 6.988043,0.4479 z m 13.36171,-6.53291 c 3.57804,-2.20896 -0.20207,-7.78781 -2.24001,-2.99067 -0.73844,1.44496 0.2609,5.48256 2.24001,2.99067 z m -29.698077,-2.05761 c 4.373511,-2.2385 -0.501825,-7.36356 -3.145638,-3.01257 -2.537573,2.05216 1.19708,4.85963 3.145638,3.01257 z m 17.869767,-1.28374 c 4.61995,-2.6056 0.22491,-7.38722 -3.32448,-4.16361 -2.986382,2.37612 0.12159,8.31673 3.32448,4.16361 z m 21.60684,1.02432 c 6.37875,-2.17724 -2.79092,-5.85969 -3.74532,-1.48451 -1.18395,1.78878 1.97605,2.14832 3.74532,1.48451 z M 80.254924,149.225 c 3.544892,-1.87237 2.382277,-5.58894 -1.67458,-3.24836 -2.71591,1.18596 -0.747824,4.138 1.67458,3.24836 z m 17.503112,-1.95481 c 2.565284,-3.22011 -1.803029,-6.31711 -4.01053,-4.63453 -4.247534,3.12729 1.235549,6.09995 4.01053,4.63453 z m 34.533634,-1.91654 c -2.70181,-4.97711 -4.19922,-0.13987 0,0 z m -18.21942,-0.9335 c 4.56833,-0.0385 1.79801,-6.28417 -1.76313,-3.93733 -3.31864,0.94224 -2.20044,5.88152 1.76313,3.93733 z m -29.491026,-2.96079 c 2.893248,-4.57743 -4.461493,-4.41954 -3.267194,-0.006 0.831897,0.81895 2.361257,0.55781 3.267194,0.006 z m 41.670336,0.18401 c 1.17267,-3.36054 -4.70237,-8.34825 -7.75938,-4.85491 -0.38589,2.56809 5.67001,5.67908 7.75938,4.85491 z m -21.0229,-3.15328 c 4.96961,-2.65019 -3.0771,-11.59375 -4.50521,-4.75991 -1.926448,2.23369 2.19923,6.85194 4.50521,4.75991 z M 93.001044,138.1125 c 3.595408,0.27951 4.606076,-1.74734 3.161155,-3.94971 -4.524294,-5.22745 -11.148684,6.31896 -3.161151,3.94971 z m 22.903856,-5.03639 c 0.88808,-3.90186 -9.63254,-3.53598 -3.82996,-0.9799 1.12965,0.61021 2.50572,1.68573 3.82996,0.9799 z m -20.798178,-9.79805 c 1.325382,-4.89157 -0.9125,-9.40509 -3.417085,-13.50957 -1.769553,-1.77246 0.06627,-10.173254 1.280754,-4.88613 -0.608767,5.68823 5.669839,9.43715 4.462394,15.25146 -0.01287,1.22119 -0.378573,4.42556 -2.326063,3.14424 z m 9.186398,-3.06333 c 1.94998,-5.02801 1.50353,-10.67539 -2.24374,-14.83648 -2.585697,-3.73702 -3.584107,-9.050526 -1.18721,-13.08961 3.26317,0.525073 -0.935405,7.197918 1.77516,9.80209 2.59809,4.25326 6.16419,8.7518 4.82781,14.0928 -0.32883,1.3477 -1.02812,5.67236 -3.17202,4.0312 z m 8.28299,-0.46105 c 1.17234,-3.82692 2.35041,-8.91951 -0.49945,-12.88994 -1.47037,-1.76233 -2.51679,-10.424239 0.44297,-8.273021 -0.66251,5.616211 3.98833,9.957421 3.45754,15.522091 -0.0565,1.70778 -1.01635,6.53959 -3.40106,5.64087 z"/></g></svg>
