<svg xmlns="http://www.w3.org/2000/svg" xml:space="preserve" width="586.835" height="363.058" viewBox="0 0 155.267 96.059"><path d="M46.935 95.621c-19.242-2.3-36.465-13.303-44.234-28.26C.417 62.966.313 62.167.048 47.12c-.38-21.604 1.322-26.732 11.433-34.45C23.583 3.435 39.587-.725 59.84.103c9.94.406 13.438.972 23.54 3.81 10.323 2.9 13.067 3.333 21.095 3.325 8.016-.007 10.338-.378 17.67-2.816 9.464-3.148 14.105-3.456 21.039-1.397 6.992 2.077 10.979 6.392 11.69 12.653 1.017 8.957-.04 22.64-2.075 26.841-3.721 7.688-12.51 13.317-27.23 17.437-12.76 3.571-20.264 7.589-25.253 13.52-6.815 8.1-12.61 13.17-18.793 16.442-9.41 4.978-22.54 7.143-34.589 5.703M77.711 61.92c8.55-2.73 13.806-6.077 18.741-11.93 6.712-7.96 11.123-10.286 28.505-15.035 18.07-4.937 26.981-11.345 26.981-19.404 0-4.13-2.08-6.725-7.367-9.186-6.409-2.985-13.055-2.83-22.684.529-13.262 4.624-21.853 4.358-42.9-1.33C57.977-.116 35.603 1.9 19.66 10.907 8.794 17.046 4.279 22.817 4.279 30.57c0 13.948 16.074 27.95 37.448 32.617 11.054 2.414 26.117 1.884 35.984-1.268m-31.643-2.393c-6.92-1.008-8.305-2.365-5.297-5.191 2.214-2.08 2.521-2.115 19.353-2.148 9.407-.02 17.104.263 17.105.625 0 .363.594.66 1.319.66 1.502 0 1.645-.759.49-2.585-1.235-1.952 1.221-5.819 5.068-7.981 1.858-1.045 5.014-3.993 7.013-6.552 3.38-4.327 4.065-4.758 9.8-6.164 5.113-1.253 6.888-1.337 10.402-.494 3.909.938 4.538.846 8.104-1.18 2.126-1.207 6.653-2.68 10.06-3.273 7.368-1.282 14.385-5.351 12.573-7.29-.894-.959-1.278-.913-2.195.259-1.003 1.284-1.28 1.22-2.867-.654-2.017-2.381-2.236-3.611-.659-3.7 2.209-.124-2.497-1.572-5.054-1.555l-2.636.017 3.076.963 3.076.964-5.52.584c-3.91.413-5.872 1.064-6.726 2.231-1.177 1.61-1.433 1.61-10.994.02-5.385-.895-10.038-1.38-10.34-1.077-.304.303.206.548 1.133.544.927-.003 5.343.837 9.815 1.867l8.13 1.872v2.861c0 4.185-2.313 4.711-19.953 4.54l-15.12-.147-3.338-3.169C77.868 20.56 68.318 15.9 59.651 13.525c-3.832-1.05-25.212-1.084-29.624-.048-2.944.691-6.3 5.76-7.297 11.02-.505 2.663-1.749 5.628-2.86 6.82-2.176 2.332-8.469 5.838-9.188 5.119-.251-.252-.658-2.237-.903-4.412-.546-4.848 2.325-10.346 7.576-14.504 5.043-3.995 15.46-8.643 22.797-10.172 7.878-1.642 23.225-1.687 30.925-.091 3.142.65 9.866 2.063 14.942 3.138 5.985 1.268 12.472 1.975 18.457 2.012 8.148.05 10.187-.27 17.409-2.731 9.49-3.236 15.549-3.55 20.973-1.086 4.356 1.977 5.918 4.486 5.194 8.343-1.154 6.153-8.388 10.166-27.643 15.338-7.432 1.995-15.53 4.714-17.997 6.042s-7.659 5.598-11.538 9.492c-5.664 5.685-8.091 7.462-12.326 9.026-9.554 3.528-20.516 4.437-32.48 2.694zm52.256-36.839c-1.209-.419-3.876-1.193-5.927-1.72-3.715-.955-6.378-4.063-6.378-7.443 0-.749-.599-1.362-1.33-1.362-1.181 0-1.177.37.038 3.296 1.923 4.63 3.854 6.286 8.362 7.17 5.369 1.052 8.19 1.084 5.235.06M29.328 53.55c-5.199-2.52-17.14-12.813-17.14-14.773 0-.95 3.723-2.663 4.159-1.914.111.191.826-.541 1.588-1.63 2.639-3.767 14.733-2.168 18.107 2.395 1.028 1.39 2.805 2.763 3.95 3.05 2.398.602 2.556 1.26.862 3.576-.917 1.254-.988 2.17-.288 3.706.802 1.76.524 2.458-2.03 5.094-1.629 1.68-3.18 3.054-3.448 3.054s-2.86-1.152-5.76-2.558m18.216-3.338c-1.1-.211-2.607-1.312-3.35-2.446-1.235-1.885-1.202-2.35.383-5.43 2.42-4.695 6.897-9.004 11.558-11.122 3.153-1.432 6.292-1.87 15.473-2.158 10.41-.326 11.868-.182 15.162 1.498 2.004 1.023 3.643 2.057 3.643 2.298 0 1.814-5.016 7.717-7.736 9.105-3.076 1.569-5.355 4.546-5.109 6.672.055.479-1.086 1.124-2.536 1.434-2.947.63-24.375.746-27.488.149m-9.767-14.319c-3.15-3.445-3.334-3.516-9.222-3.516-5.39 0-5.938-.158-5.34-1.538.367-.846.825-2.922 1.016-4.614.765-6.754.726-6.706 5.291-6.577 4.112.116 10.995 3.048 17.384 7.404 1.602 1.093 4.19 1.837 6.592 1.896l3.956.098-3.377 1.047c-2.029.629-4.912 2.696-7.227 5.181-2.118 2.274-4.303 4.135-4.855 4.135s-2.45-1.582-4.218-3.516m9.515-10.895c-1.721-1.17-4.682-2.775-6.58-3.568s-4.33-2.268-5.405-3.278c-1.745-1.64-2.245-1.717-4.654-.719-3.336 1.382-4.11.806-1.766-1.314 1.503-1.36 3.738-1.65 14.962-1.934 11.763-.297 13.63-.141 17.2 1.438 2.63 1.163 3.782 2.131 3.356 2.82-.438.709-.187.872.773.504.781-.3 3.709.386 6.505 1.524 5.033 2.047 7.423 4.17 6.14 5.454-.366.365-6.68.784-14.033.931-12.912.26-13.476.196-16.498-1.858m74.763-2.74c0-3.677 2.229-5.559 7.429-6.271 3.78-.519 4.395-.357 5.849 1.533.893 1.162 1.633 2.56 1.644 3.105.026 1.391-4.156 2.966-9.978 3.756l-4.944.67z"/></svg>