<?xml version="1.0" encoding="UTF-8" standalone="no"?>
<svg
   width="103.24871mm"
   height="72.444389mm"
   viewBox="0 0 103.24871 72.444389"
   version="1.1"
   xml:space="preserve"
   xmlns="http://www.w3.org/2000/svg"
   xmlns:svg="http://www.w3.org/2000/svg"><path
     style="fill:#000000"
     d="M 34.759596,72.391499 C 27.521909,71.325209 19.716014,70.433469 13.865047,65.603269 9.496546,62.236629 2.468662,61.207519 0.861591,55.136569 -0.181219,48.611419 0.134938,41.975409 0,35.390499 c 1.932472,-5.57844 7.647299,-8.14884 12.704476,-10.2492 9.107494,-3.78273 18.725519,-7.30584 25.754733,-14.53849 9.785305,-8.8355698 23.875365,-12.0201398 36.728565,-10.03397981 7.97401,1.23702001 14.60879,6.11896001 21.74458,9.51404981 3.866696,1.79048 6.947976,5.62388 6.205186,10.0802 -0.1789,5.98747 0.41775,12.06555 -0.46537,17.99155 -2.526,4.79837 -8.327036,6.30205 -12.962976,8.3154 -6.7569,2.42696 -13.77366,4.73644 -19.62168,9.00178 -5.66043,5.02072 -10.49639,11.18558 -17.52861,14.41938 -5.409763,3.04638 -11.829831,2.53487 -17.799308,2.50031 z m -14.268687,-18.3595 c 5.279373,1.88989 10.838013,3.13511 16.475233,2.5377 7.872385,-0.20823 15.486372,-3.88099 20.629802,-9.84387 3.7785,-3.96505 6.35671,-9.52176 11.95199,-11.30037 9.02606,-3.75976 18.57672,-6.44115 27.05283,-11.39877 3.631936,-2.03556 7.899566,-7.19284 3.436136,-10.64088 C 95.879304,9.6715592 90.372204,7.9625992 85.641414,5.0988992 73.072944,-1.8691108 57.114294,0.02899919 44.886582,6.8032092 38.79417,10.361009 34.495857,16.380519 27.962088,19.298999 c -7.654407,4.1751 -16.401816,6.21611 -23.598086,11.21541 -3.796359,2.62819 -4.509278,8.38236 -1.404462,11.74955 3.938496,4.31745 9.859036,5.72622 14.256917,9.43615 1.091484,0.77729 2.182968,1.55459 3.274452,2.33189 z m 10.035354,-2.37488 c -3.443123,-1.6163 -8.800467,-2.46508 -10.054166,-6.39397 1.544801,-0.39739 3.747328,-0.15531 5.544473,-0.30736 3.462496,0.53818 9.10924,-2.54492 9.289685,2.8795 2.979198,4.54677 -1.318742,4.88085 -4.779992,3.82183 z m 0.396875,-1.05308 c -0.667533,-1.01465 -1.133831,0.86046 0,0 z m -2.447396,-2.29189 c -1.646476,-0.26247 -0.02047,0.4578 0,0 z m 2.458275,-0.33634 c -1.939661,-1.19984 0.370995,1.39899 0,0 z m 1.354974,-1.93583 c -0.458985,-0.0856 0.277772,1.76795 0,0 z m 6.905702,5.73739 c -2.943574,-2.96318 -4.5225,-10.69616 1.33201,-11.50306 4.757397,-1.17813 9.743461,-2.00785 14.634231,-1.91851 -1.29841,4.80375 -3.55999,10.06968 -8.151241,12.61218 -2.394268,1.01388 -5.286705,1.60143 -7.815,0.80939 z m 4.560736,-2.25562 c -0.836569,-1.06319 -2.193465,1.3661 0,0 z m 4.183725,-2.34075 c -0.20623,-0.92184 -1.258568,1.10042 -0.18377,0.27924 z m -7.358725,-0.94258 c -1.703081,-2.34548 -0.866375,1.16832 0,0 z m 5.360337,-0.81093 c 4.137228,-3.04237 -5.549535,1.78559 -0.679278,0.45993 z m -1.391587,-2.36407 c 3.229955,-2.30499 -5.743353,1.67682 0,0 z m 5.820835,-1.61083 c 2.78851,-1.27465 -4.324752,1.15531 0,0 z m -5.027085,-0.37355 c -0.69995,-1.00686 -1.666859,1.04611 0,0 z m 1.719791,-0.26458 c -0.287289,-0.77365 -1.464268,0.96394 0,0 z m 5.754684,-0.7044 c -1.64641,-0.26246 -0.0206,0.45779 0,0 z m -33.920882,3.92881 c -6.205879,-3.47178 2.007145,-7.7081 5.564374,-8.82027 3.774992,-1.0916 8.519756,-2.31198 11.357033,0.96565 3.146276,3.48931 -3.345898,7.25135 -6.479428,7.54812 -3.414768,0.16603 -7.102662,1.15324 -10.441979,0.3065 z m 0.97475,-2.8551 c -0.861929,-0.29155 -0.71156,0.49128 0,0 z m 5.839339,-2.83549 c 0.77288,-2.25052 -0.02108,-3.82833 -0.380347,-0.70882 -0.353089,0.66363 -0.187263,2.70044 0.380347,0.70882 z m 6.138568,0.64717 c -2.362079,-1.5279 -2.773717,0.89198 0,0 z m -8.840152,-1.02392 c -0.912795,-0.0896 0.508818,1.98651 0,0 z m 10.287971,-1.64303 c -0.316186,-1.67678 -4.64657,0.95987 -0.496214,0.1725 z m -22.012071,2.37651 c -2.955657,-3.68779 3.539876,-7.52036 6.82127,-8.37535 9.087703,-3.52368 18.892186,-5.5785 28.559648,-5.91147 -4.445366,1.67211 -7.947523,4.82245 -11.572745,7.78514 -3.038284,1.38629 -9.083746,1.5259 -11.04546,1.11546 0.995247,-1.17412 2.656798,-5.84864 0.612416,-1.98015 -1.711329,3.97373 -6.313461,4.9969 -9.417432,7.65039 -1.284328,0.3899 -2.749696,0.32237 -3.957697,-0.28402 z m 2.765512,-2.01915 c -0.862027,-0.29154 -0.711438,0.49127 0,0 z m 6.421658,-2.24971 c -1.598367,-1.07069 -1.079905,1.44228 0,0 z m -6.085417,-0.79667 c -0.664237,-0.64845 -0.502828,1.4239 0,0 z m 8.466667,-2.08544 c -0.643525,-1.04357 -1.068537,1.07573 0,0 z m 7.672916,-1.05833 c -1.239237,-1.16278 -0.511928,1.07398 0,0 z m 3.439583,-0.92604 c -1.205085,-1.48051 -0.63315,1.35391 0,0 z m -0.820081,-1.46003 c 2.262034,-0.75542 2.707281,-1.92194 -0.03793,-0.51684 -0.849449,0.30977 -2.750699,1.99938 -0.672202,0.95664 z m 5.053414,-1.21666 c -1.334789,-0.62843 -1.862638,0.89444 0,0 z m 3.329699,10.45037 c -3.26072,-0.51713 -8.124918,-3.9064 -3.075678,-6.33303 3.717507,-3.16767 8.257899,-5.45489 12.957664,-6.71824 6.40504,-0.35717 12.9197,0.76797 18.98843,2.78982 4.29471,3.10398 -4.52074,3.34005 -6.46193,4.73077 -5.91341,2.18777 -11.44299,6.14076 -18.027888,5.79053 -1.461806,0.02 -2.940887,0.0309 -4.380598,-0.25985 z m 5.864571,-2.00294 c -2.326924,-0.16383 0.08911,0.40561 0,0 z m -3.157282,-0.52514 c -0.129913,-1.31187 -3.139119,1.58112 0,0 z m 8.774237,-1.522 c 0.67931,-1.94391 3.5264,-1.65944 0.27002,-1.73924 0.0364,-1.70898 -0.0919,-5.62227 -0.44416,-1.52683 0.12138,0.77776 -1.31355,6.75831 0.17414,3.26607 z m -5.71726,-0.38344 c 0.06805,-1.67232 -5.383099,-0.21502 -1.566316,0.20763 l 0.88965,-0.0616 0.676666,-0.146 z m -6.448132,-0.45179 c -0.76074,-1.15325 -0.919063,1.39496 0,0 z m 20.142082,-0.82249 c 0.22765,-1.86012 -2.14391,1.41559 0,0 z m 3.56882,-2.32624 c 2.06821,-0.51714 4.38106,-0.47629 1.00577,-0.79193 -3.43289,2.55749 -6.11826,-1.0609 -9.37084,-0.37883 3.12714,0.32218 4.82855,2.93188 8.36507,1.17076 z m -17.360902,-0.42664 c -2.061429,-0.92741 -4.619732,1.24385 0,0 z m 2.778122,-1.02107 c 0.4412,-1.38144 -2.594257,0.60808 0,0 z m 12.7,-0.40778 c -2.91371,-0.48063 -4.49013,0.71736 0,0 z m -7.33667,-0.4473 c -1.01452,-1.43718 -0.72027,1.16694 0,0 z m 19.90438,-1.28831 c -4.55892,-0.11975 -8.77252,-1.92011 -12.73282,-3.96714 -2.72454,-0.81697 -11.22999,-2.37917 -7.62847,-6.12672 1.69282,-1.20887 7.40255,-0.71708 7.19827,-1.93243 -2.23253,-0.0451 -7.26068,2.0686 -7.76211,0.90233 0.83703,-1.92085 0.97417,-5.4769298 -0.25876,-1.41939 -0.22568,2.33171 -1.97131,5.98429 -3.40655,2.0818 -1.89953,-2.81957 0.79443,3.57494 2.57722,3.62525 -0.10475,2.21435 3.90403,2.04637 3.43172,2.44649 -5.19185,1.58022 -10.793396,1.3949 -16.181184,1.7602 -2.815574,0.4755 -4.224908,-0.47317 -1.206333,-2.05879 5.794775,-4.96767 10.631467,-11.6468298 18.339227,-13.7575298 11.40892,-3.40029 24.51071,-2.03083 34.48362,4.6807798 4.37003,1.38835 3.8287,8.89586 -1.34477,6.3984 -1.66277,-0.45561 -7.70271,-3.80835 -3.37701,-0.91067 2.10992,0.9865 4.35132,1.66303 0.67227,2.00717 -1.66501,0.26873 -4.3513,2.27884 -1.12574,0.86595 2.03217,-1.46663 8.59693,-1.1821 3.6063,1.52632 -3.84815,2.91414 -8.60939,4.36785 -13.42828,3.96137 -0.61932,-0.0161 -1.23839,-0.0448 -1.8566,-0.0834 z m 5.10263,-2.68312 c -1.55163,-0.68316 -6.81185,0.19782 -2.33557,0.27664 0.78306,-0.029 1.58157,-0.0226 2.33557,-0.27664 z m 1.37595,-1.683 c 2.73766,-1.63914 -4.12313,1.22733 0,0 z m -32.93691,-0.38138 c -0.67733,-1.79949 -0.51732,1.74346 0,0 z m 24.04457,-0.55464 c 2.10336,-0.54256 4.37367,-0.7914 0.75994,-0.7522 -1.6717,0.68825 -6.00153,1.96327 -3.67632,-0.95921 -0.36035,1.85436 -9.0198,2.17239 -4.18753,2.34097 2.35347,-0.14211 4.84499,0.16489 7.10391,-0.62956 z M 45.0239,19.497399 c 1.549818,-2.1648 -2.690911,1.34477 0,0 z m 13.797844,-0.52906 c -2.37997,-0.74021 0.1274,1.51132 0,0 z m 31.54119,-2.03137 c -1.43933,-0.4993 -0.0333,1.25063 0,0 z m -21.28389,-2.28549 c 3.30702,-1.37805 5.97619,-2.1087 8.26937,-4.7069498 1.41402,-0.94519 3.32036,-0.002 4.93347,-0.22844 5.84018,-0.52589 -4.30765,-0.0974 -3.92991,-0.71641 1.9142,-3.66363 -3.47978,2.9025698 -5.36038,2.8622998 -1.71348,2.55877 -9.57322,0.17422 -3.78938,2.04688 -3.74733,3.74257 -2.40639,-3.46687 -5.85275,-4.3795498 -1.0088,-1.28198 -3.22552,-2.54038 -1.07137,-0.26734 3.3623,1.0251998 3.07978,5.8357698 4.36989,7.4082698 0.81027,-0.67331 1.56021,-1.42028 2.43106,-2.01876 z m -20.34031,1.06022 c -0.0828,-1.35013 -2.599392,0.92662 0,0 z m 30.18505,-2.68314 c -0.10495,-2.16457 -2.28714,-3.7584698 -0.69859,-0.56456 -0.15343,2.08879 1.2206,3.65752 0.69857,0.56456 z m 6.92203,1.85673 c 0.86685,-1.38269 -2.57753,1.08422 0,0 z m 1.30128,-0.74083 c -1.0948,-1.90942 -4.90209,0.4614 -0.93758,-0.0716 0.17437,0.24735 0.79756,0.46725 0.93758,0.0716 z m -30.02874,-0.84829 c 1.21647,-2.04946 -2.4618,1.82111 0,0 z m 33.66361,-0.44565 c -2.01858,-1.13883 0.91164,1.58384 0,0 z m -8.46903,0.0228 c -0.86204,-0.29154 -0.71142,0.49127 0,0 z m -1.51584,-1.16307 c -2.58911,-1.01141 -0.82824,1.01666 0,0 z m -7.9375,-1.8520798 c 0.37798,-1.15037 -1.8616,0.9167198 0,0 z m 10.51167,-0.9536 c -0.86203,-0.29153 -0.71143,0.49127 0,0 z m -8.34209,-2.27432 c -1.58061,-0.57235 0.7599,1.21518 0,0 z" /></svg>
