<?xml version="1.0" encoding="UTF-8" standalone="no"?>
<svg
   width="76.767891mm"
   height="51.747894mm"
   viewBox="0 0 76.767891 51.747894"
   version="1.1"
   xml:space="preserve"
   xmlns="http://www.w3.org/2000/svg"
   xmlns:svg="http://www.w3.org/2000/svg"><g
     transform="translate(-59.550314,-119.55239)"><path
       style="fill:#000000"
       d="m 110.67485,171.12442 c 4.43414,-1.08235 6.99121,-5.33735 10.92923,-7.36501 4.68704,-3.15868 10.94036,-5.15794 13.12913,-10.87938 0.72989,-2.56576 1.80834,-5.12798 1.54425,-7.84595 0.13899,-3.91402 -0.11298,-7.8681 -1.61067,-11.53804 -0.59932,-2.62689 -2.12333,-4.98431 -4.54862,-6.24765 -1.46356,-1.42837 -3.66497,-0.88042 -5.47028,-1.47235 -4.29548,-0.69829 -8.0742,-3.03175 -12.34477,-3.85707 -2.68744,-0.48851 -5.31124,-1.01108 -8.07398,-1.19983 -3.22977,-0.54636 -6.434508,0.41224 -9.676697,0.35486 -6.36563,0.24025 -12.76135,0.46804 -19.12037,0.49872 -3.2359,-0.73045 -6.52011,-3.21075 -9.83454,-1.33044 -2.38641,1.56419 -4.95659,3.51068 -6.03048,6.2157 -0.15491,5.46769 0.72584,11.21862 4.30485,15.57109 3.75624,5.02295 9.61194,7.74068 14.54239,11.40308 6.47153,4.20509 12.53048,8.99113 18.727843,13.57397 3.559094,2.50163 7.663594,4.60851 12.145104,4.25534 0.46483,-0.014 0.93056,-0.0446 1.38761,-0.13704 z m -1.37077,-1.94963 c -3.15145,-1.60243 -3.97957,-5.38268 -5.30356,-8.31686 -0.0377,-0.15249 -0.39748,3.58796 -0.87068,0.9436 0.0139,-1.53954 -0.0834,-2.05874 -0.61502,-1.79157 -0.29809,-1.09841 -1.05273,-1.76697 -1.23423,-0.26721 0.15327,-2.23505 -0.86663,-4.16508 -0.64096,-6.41923 0.12196,1.06436 -1.067219,4.17647 -1.063794,1.13779 0.07843,0.76826 -0.920172,1.99628 -0.773551,-0.18165 0.252106,-2.21868 -0.921534,3.48212 -1.070899,0.0863 0.532322,-1.20432 -0.173508,-3.39231 -0.434481,-0.78286 -0.569636,3.20846 -0.694302,-0.95646 -1.184673,0.49332 -0.429449,0.23393 0.0039,-2.02341 -0.567079,-0.0831 -2.1428,1.07163 1.14086,-4.3427 -0.92751,-1.09752 -1.74343,2.48977 0.45963,-3.84273 -1.1193,-0.23488 -1.32684,0.90671 0.5862,-2.67936 -1.00058,-0.23679 -0.67766,-0.0329 0.61322,-1.67176 -0.78027,-0.29469 -0.69221,-1.61895 -4.30894,-2.66068 -4.3285,-3.95932 0.86566,-0.33472 3.60562,1.86353 1.46044,0.12681 -2.96295,-0.1816 -4.11095,-2.89499 -7.23467,-3.37002 -3.15793,-0.51208 -5.7798,-2.27736 -8.04868,-4.45119 -1.08597,-0.9324 1.8978,2.16644 2.54294,2.42947 1.15213,0.6119 3.2961,2.57602 0.62257,1.11553 -1.82905,-0.85284 -3.34622,-3.42348 -4.64359,-5.21017 -2.39307,-2.64976 -5.63218,-4.49385 -7.625,-7.51048 0.87746,1.97528 -0.75526,1.40398 -0.69115,-0.19104 -0.72814,-1.10224 -2.69411,-1.81766 -1.42538,-3.25783 1.42749,-3.10903 -1.2964,2.08199 -0.68511,-1.17789 -0.61414,1.00694 -1.81577,-1.51974 0.24536,-2.31654 2.23221,-2.72795 5.77592,-5.33322 9.35331,-3.36085 1.28222,0.5862 2.52877,1.30726 3.99251,1.05648 5.88913,0.007 11.7887,0.2027 17.67128,0.0909 7.477247,-1.15543 15.250137,-1.04457 22.465157,1.44016 4.2925,1.44328 8.57794,2.91585 13.04099,3.73687 3.93678,1.04115 5.51438,5.15627 6.33415,8.73692 1.4794,5.0674 1.29124,10.47065 -0.35576,15.47396 -1.38688,5.26535 -6.56077,7.78994 -10.93781,10.19786 -3.98343,2.01122 -7.01656,5.39497 -10.84149,7.61905 -1.09941,0.72594 -2.24874,0.37694 -3.32498,-0.17337 z m 3.24307,-1.66591 c 1.7007,-2.36864 3.19121,-5.31904 5.49122,-7.45208 1.46445,-3.01542 2.16408,-6.37565 4.37609,-9.07884 1.15058,-2.98699 1.62193,-6.23403 1.57591,-9.42975 -1.87717,-1.05332 -1.6289,2.2126 -2.59461,3.10655 -1.43745,3.90956 -5.72082,5.67207 -7.56165,9.28268 -1.10672,3.06531 -0.35492,6.36506 -0.66227,9.50947 -1.08452,-3.93269 -1.34058,-8.7776 1.81475,-11.88796 1.46181,-1.83963 3.52181,-3.20098 4.92024,-5.05364 1.3192,-2.82304 2.17806,-5.94974 4.52702,-8.14045 0.79362,-1.58979 1.37809,-3.75934 0.86994,-5.48319 -3.21028,1.00046 -4.96712,4.44102 -7.49659,6.52202 -2.78732,1.3699 -3.706,4.56169 -3.76409,7.01666 -0.77196,-1.61659 0.79915,-6.71964 -1.96848,-3.35602 -2.72798,3.22014 -5.04344,7.05997 -5.63183,11.28041 0.0916,1.94525 -0.2264,3.97642 0.11941,5.86834 0.86324,2.35777 2.62893,4.29304 3.22243,6.73448 0.59327,1.18218 1.75738,1.12978 2.76251,0.56132 z m -5.10747,-6.86931 c -0.59311,-2.22273 1.36494,2.60571 0.80781,-0.36766 2.28206,2.37659 -0.65298,3.39214 -0.80781,0.36766 z m 1.99862,-5.90551 c -2.11363,-0.15282 -1.27781,-3.01034 -0.27345,-4.14916 2.38054,-2.92019 -0.31341,1.88245 -0.14633,3.14084 0.87045,1.2633 1.46175,-2.4225 1.47811,0.38125 0.22284,0.95343 -0.30275,1.15417 -1.05833,0.62707 z m 8.42264,-1.96753 c 0.88062,-0.89694 2.91789,-4.63757 3.30198,-3.65375 -0.6482,0.7353 -2.6498,4.99921 -3.30198,3.65375 z m -1.38572,11.70479 c 3.82434,-3.08152 8.32743,-5.11838 12.42568,-7.76833 1.93004,-1.44879 2.90394,-3.71074 3.99758,-6.03298 2.35711,-5.38158 1.11553,-11.4842 -0.92025,-16.74825 -0.10348,-2.22818 -0.94935,-4.35485 -2.71645,-1.88582 -2.6943,-0.11909 -2.48355,1.61742 -2.7702,3.80687 -1.16172,2.98665 -2.07408,6.77099 0.31388,8.78409 -2.31722,-1.51925 -1.59502,2.35418 -2.00464,3.59119 -0.18981,2.14443 2.36141,5.02922 1.42052,6.20562 -0.89944,-1.43876 -2.03995,-5.96925 -2.87991,-2.18341 -1.88213,2.19566 -3.04988,4.7897 -4.1059,7.44657 -0.48445,1.9123 -4.00504,4.47604 -3.52994,5.33365 l 0.3578,-0.23597 0.41184,-0.31323 z m 4.45749,-5.97561 c 0.93308,-2.29281 1.44354,2.51922 0,0 z m 3.53392,-1.98088 c 1.58061,-0.57239 -0.75988,1.21519 0,0 z m 5.48248,-8.40468 c 0.99077,-2.36343 0.95127,-4.9399 1.21082,-7.47216 0.34643,-1.22253 0.73954,2.8532 0.75373,3.77259 0.32126,1.21885 -0.76253,4.1693 -1.96455,3.69957 z m -1.7068,-7.61584 c 0.0685,-2.57772 1.52799,0.0844 0.0656,0.36911 z m 0.0105,-4.13208 c -0.64262,-2.17586 2.56503,0.77629 0,0 z m -26.61976,10.76852 c 2.62086,-1.10425 4.76589,-3.01886 6.74688,-5.01275 0.3683,-2.45541 -0.88251,-4.88938 -3.35201,-5.63932 -1.65852,-0.30375 -2.62529,-2.74215 -4.36756,-1.95616 -1.13286,0.56919 -6.264887,1.34509 -2.902915,-0.2972 2.295435,-0.0477 7.067605,-2.19382 3.271895,-4.2519 -1.514452,-0.27261 -4.256513,0.63698 -1.543574,-0.74436 1.634954,-0.60059 3.237074,1.18836 4.058954,2.15162 1.83134,-0.89822 0.92944,0.62384 1.44376,1.10993 1.30257,0.90791 -1.54419,0.44493 -0.24115,1.65961 -3.21814,-1.85162 0.22264,2.55044 1.90364,2.27844 1.6648,0.25493 2.27499,2.59715 3.787,2.64602 4.47904,-0.0668 7.95475,-3.27045 10.30756,-6.79616 -0.0354,-0.99497 0.51443,-2.48622 -0.4806,-3.14416 -1.01042,-1.18425 -3.24503,-2.30828 -1.88159,-0.84183 -1.58342,0.0834 -5.19546,-1.61389 -1.58305,-1.30606 -1.06411,-1.65632 -5.49218,-2.59906 -8.04155,-3.14099 -3.05771,-0.38072 -6.16883,-1.00774 -9.233585,-0.37257 -1.549952,0.0616 -2.998118,0.45375 -4.305452,1.30322 -2.86507,1.52086 -5.88208,2.81258 -8.53561,4.6859 2.16871,3.24023 4.97147,-0.68472 7.61113,-0.84553 3.119718,-0.31192 -2.50633,0.85472 -2.88708,2.01651 -2.7013,1.51601 -5.15828,3.87625 -5.7824,7.01698 -1.35587,1.6948 -0.59353,3.56702 1.2126,4.55353 2.77899,1.9306 5.50494,4.34455 8.81463,5.22287 1.744443,-0.0519 3.566212,0.31315 5.263087,0.005 0.239,-0.10012 0.478,-0.20023 0.71699,-0.30035 z m -5.762888,-2.86215 c -1.559729,-0.12223 -5.087499,-2.61508 -1.508889,-1.47253 2.11934,0.80688 6.278747,0.27408 7.344507,1.43331 -1.861339,0.61493 -3.943629,0.43553 -5.835618,0.0392 z m -1.048589,-4.61687 c -2.84451,-0.59637 -6.40174,-2.27974 -6.4841,-5.59739 1.45811,2.33736 3.73335,4.33011 6.60399,4.82226 2.986544,0.91872 6.174317,0.2516 9.121457,0.0566 -2.73865,1.56693 -6.251308,1.37309 -9.241347,0.71857 z m 4.827105,-2.50255 c -2.27885,-1.90317 2.010652,-1.32767 0.396872,0.36857 l -0.28029,-0.10827 z m 15.503092,-5.40398 c -1.9131,-3.53286 -6.31578,-4.16062 -9.94598,-4.29406 -0.19504,-0.80006 4.512,-0.26907 5.87938,0.18459 1.19892,0.12862 2.24231,0.5591 3.01764,1.50984 1.55791,0.8769 2.97949,4.15284 1.81928,5.12968 -0.24625,-0.84707 -0.36167,-1.73601 -0.77032,-2.53005 z m -1.74476,1.71913 c -0.5088,-3.0764 -5.89562,-3.27138 -6.47866,-4.33962 2.89955,-0.43134 6.71659,1.40479 6.94648,4.56642 -0.15487,0.28934 -0.52289,0.0105 -0.46782,-0.2268 z m -14.287502,-6.77398 c 1.219332,-0.62886 3.818002,-2.06018 1.477972,-2.43861 2.14716,-0.46668 4.41294,-0.0251 6.61138,-0.0239 0.97243,0.59595 2.6612,1.41712 0.53963,1.04038 -1.47045,-0.18274 -5.53925,-0.24822 -5.28193,0.67839 -0.0825,1.02338 -2.638066,1.15114 -3.347052,0.74378 z m -16.125645,11.1411 c 2.37564,-0.91339 2.19818,-3.13617 -0.60996,-2.92359 -2.67944,0.3144 -2.6906,-1.04745 -0.35819,-0.83239 2.25119,0.32555 5.26786,0.16744 5.57834,-2.61679 -3.08392,-1.80616 -6.63761,-2.47121 -10.23456,-2.77174 -2.57261,-0.56477 -4.18647,-5.39384 -7.20592,-3.18643 -1.63793,1.03143 -2.58704,2.73964 -1.9257,4.64832 0.85275,3.72175 4.69198,5.21237 7.99518,6.04741 2.14906,0.24466 4.34198,2.13141 6.38085,1.82897 0.12665,-0.0646 0.25331,-0.12917 0.37996,-0.19376 z m -11.72175,-5.95105 c -1.91464,-2.96717 1.48733,0.14394 2.3151,1.17478 -0.87995,-0.13069 -1.72688,-0.47393 -2.3151,-1.17478 z m 2.35692,0.0823 c -2.63082,-0.74589 -0.57077,-6.95748 -0.56216,-2.46439 -0.35627,1.34743 1.26588,1.82867 1.95927,2.71654 1.70396,1.18659 -1.12384,0.26825 -1.39711,-0.25215 z m 5.69447,-0.46694 c 0.80683,-2.03981 1.5875,2.33432 0,0 z m -8.45378,-5.14013 c 1.01453,-1.43718 0.72026,1.16694 0,0 z m 12.51349,1.93962 c 2.49667,-0.34376 5.43139,-0.2426 7.57792,-2.46337 3.35401,-2.04198 -2.44126,-2.81712 -3.9853,-2.52131 -4.21238,0.0229 -8.42878,0.23297 -12.62192,0.62814 -0.27192,2.31982 3.75092,4.28748 6.14569,4.25723 0.95564,0.0911 1.9246,0.21221 2.88361,0.0993 z m -6.56799,-2.08139 c -1.87897,-0.70518 0.75697,-0.50393 1.489,-0.68491 1.55953,-0.42914 3.94734,0.19194 1.04197,0.76595 -0.84123,0.23831 -1.76526,0.57633 -2.53097,-0.081 z m 11.72095,-1.26383 c 2.24068,-1.13569 -0.89037,1.41058 0,0 z m 8.917852,40.67658 c -4.532572,-2.51055 -6.541902,-7.64412 -9.053842,-11.90747 -0.74716,-1.14667 -1.58744,-3.41848 -0.17678,-1.13187 3.16069,5.23179 6.81016,10.30788 11.837857,13.90501 1.26897,1.1021 -2.389476,-0.7443 -2.607235,-0.86567 z m -5.187272,-10.16023 c -1.20041,-0.96271 -2.81251,-3.78997 -0.22577,-1.91357 1.79362,0.70657 2.4696,1.94464 2.2906,3.89839 -0.4044,0.29914 -1.56996,-1.64257 -2.06483,-1.98482 z m -8.62537,-1.26977 c -6.02845,-1.69936 -11.48676,-5.42571 -15.3815,-10.30981 -1.96802,-3.56125 2.65379,2.98362 4.22434,3.47311 2.41089,1.70285 5.05793,3.18559 7.80128,4.40722 2.3604,1.27408 5.41185,1.95959 7.43566,3.35608 -1.35414,0.0915 -2.73965,-0.64449 -4.07978,-0.9266 z" /></g></svg>
