<?xml version="1.0" encoding="UTF-8" standalone="no"?>
<svg
   width="68.468933mm"
   height="105.91502mm"
   viewBox="0 0 68.468933 105.91502"
   version="1.1"
   xml:space="preserve"
   xmlns="http://www.w3.org/2000/svg"
   xmlns:svg="http://www.w3.org/2000/svg"><path
     style="fill:#000000"
     d="M 34.261192,0.00101715 C 18.74356,-0.06040285 4.6930741,2.6659492 1.1836291,6.5504892 c -1.69666899,1.87801 -1.56439099,4.1334898 0.365352,6.2270098 l 1.03973,1.12861 v 39.28339 39.28391 l -0.948779,1.21801 c -2.28371699,2.93125 -1.10862299,5.83883 3.114538,7.706511 4.750039,2.10069 13.9446779,3.90899 22.3081989,4.38733 4.454883,0.2548 12.997913,0.11984 17.594793,-0.27802 4.12111,-0.35668 10.3448,-1.40725 13.95057,-2.3549 8.45606,-2.22239 11.42637,-5.651091 8.28373,-9.561691 l -0.80305,-0.99942 v -39.32783 -39.32783 l 0.89142,-1.10278 c 1.2695,-1.57124 1.4898,-2.09482 1.4888,-3.5325998 -10e-4,-1.70975 -0.69475,-2.77155 -2.6262,-4.01991 -4.51466,-2.91796 -15.04306,-4.85213605 -28.46131,-5.22913605 -1.04486,-0.02936 -2.08572,-0.04603 -3.12023,-0.05013 z m 2.20659,3.68091205 c 1.44128,0.0232 2.33304,0.0868 2.26343,0.19947 -0.45643,0.73851 -4.53086,1.67684 -8.36125,1.92547 -2.110055,0.13696 -4.788959,0.48621 -5.953126,0.77618 -1.164166,0.28997 -3.24776,0.64889 -4.630208,0.79788 -4.536409,0.48888 -5.803985,0.73178 -7.038331,1.34824 -1.912383,0.95509 -2.477676,2.2727398 -1.545642,3.6033998 0.543799,0.77638 0.306695,0.75729 -2.6871739,-0.21601 -2.473123,-0.80401 -3.938034,-1.61164 -4.446757,-2.4520498 -1.022333,-1.68889 6.0437359,-4.09769 15.7179039,-5.35833 3.088536,-0.40246 12.357294,-0.69392 16.681154,-0.62425 z m 10.9678,0.14004 c 3.08947,-0.0344 4.33726,0.42339 6.09369,2.23604 l 1.05006,1.08417 -1.5875,-0.71933 c -4.47229,-2.02555 -5.60887,-1.93882 -14.10353,1.0728 -1.92092,0.68102 -6.05542,1.2356 -4.94647,0.66353 0.44951,-0.23188 0.41465,-0.25119 -0.23151,-0.12868 -1.637,0.31038 -1.90738,0.33257 -2.54661,0.20981 -1.42614,-0.27388 -0.98784,-0.54158 1.11001,-0.678 1.56956,-0.10207 2.99115,-0.41972 4.97541,-1.11259 7.57683,-2.64571 7.38524,-2.59655 10.18645,-2.62775 z m 7.80521,1.61024 c 0,-0.0785 1.30101,0.19838 2.89078,0.61547 4.4393,1.1647 6.94029,2.63224 6.35362,3.72845 -0.38804,0.7250598 -3.75046,2.2341798 -6.65748,2.9879298 -3.28284,0.85119 -6.41011,1.39128 -10.98434,1.89756 -4.31232,0.47731 -16.54166,0.79766 -15.94424,0.41755 0.7991,-0.50843 8.22294,-2.14905 13.89062,-3.06958 11.68566,-1.89794 11.84369,-1.94576 11.98687,-3.6400898 0.0637,-0.75349 -0.089,-1.14697 -0.72761,-1.8743 -0.44451,-0.50626 -0.80822,-0.98449 -0.80822,-1.06299 z m -28.204478,2.58486 c 1.112729,0.0584 1.783836,0.44697 2.616378,1.19734 0.7048,0.63523 0.8001,0.8471998 0.55707,1.2438498 -0.40368,0.65883 -1.085265,0.74106 -1.271755,0.15348 -0.41189,-1.2977898 -2.941353,-1.9251398 -4.968172,-1.2324798 l -1.405082,0.48007 1.97559,0.2061898 c 1.425725,0.14895 2.122369,0.35348 2.503206,0.73432 0.362716,0.36271 0.442445,0.61279 0.254765,0.80047 -0.395139,0.39514 -3.434011,0.53911 -5.130436,0.24288 -1.979754,-0.3457 -3.097996,-0.72473 -4.452442,-1.50895 -1.361622,-0.7883598 -1.11256,-1.1052798 0.880567,-1.1182798 0.727604,-0.005 2.156354,-0.19136 3.175,-0.41496 2.598261,-0.57032 4.152582,-0.84233 5.265311,-0.78393 z m 24.482228,0.41599 c 1.38046,-0.0181 2.3603,0.058 2.66392,0.25425 0.30122,0.19463 0.18985,0.25745 -0.46199,0.26045 -1.17002,0.006 -10.87955,1.4496498 -15.20217,2.2608398 -1.93477,0.36308 -4.76868,1.0751 -6.29729,1.58285 -1.5286,0.50775 -3.6122,1.10005 -4.63021,1.31568 -1.681078,0.35609 -5.67316,0.47183 -7.671883,0.22273 -3.527971,-0.4397 -7.540625,-2.06253 -7.540625,-3.04994 0,-0.12982 0.446485,0.12001 0.992188,0.55552 2.597297,2.07282 9.933795,2.95887 13.974341,1.68775 1.02811,-0.32343 2.780329,-1.00306 3.893819,-1.5105 1.11351,-0.50744 3.12947,-1.21786 4.48035,-1.57872 3.91118,-1.0447798 11.65816,-1.9465698 15.79955,-2.0009098 z M 14.883568,10.029349 c 0.262604,0.0422 0.642424,0.22371 1.02681,0.52606 0.942256,0.74118 3.358096,1.51842 5.596041,1.80041 l 1.852084,0.23358 -1.719792,0.0181 c -2.748339,0.0291 -6.738493,-1.25023 -7.078121,-2.26911 -0.08475,-0.25424 0.06037,-0.3511998 0.322978,-0.30902 z m -10.9719399,4.49688 0.859895,0.50643 c 2.307076,1.35984 8.8792299,2.9369 16.2057299,3.88865 5.301388,0.68869 21.342289,0.68838 26.722919,-5.2e-4 6.9486,-0.88965 13.17204,-2.37878 15.66054,-3.74757 0.60947,-0.33524 1.17507,-0.54266 1.25677,-0.46096 0.24303,0.24303 0.16904,1.37964 -0.12557,1.93012 -0.86463,1.61557 -8.61937,3.81145 -17.28887,4.89531 -3.81005,0.47634 -17.75605,0.71506 -21.860164,0.37414 -8.764152,-0.72803 -17.4777559,-2.6512 -20.5713549,-4.5403 -0.759561,-0.46382 -0.859895,-0.66041 -0.859895,-1.68516 z m 6.9360099,20.23701 2.69751,0.89607 c 4.085386,1.35744 6.757877,1.90332 15.211475,3.10782 4.256299,0.60645 8.489019,1.31259 9.406659,1.56889 1.96631,0.54918 4.58115,1.70282 6.21461,2.74196 1.67373,1.06477 4.48603,3.8885 5.50871,5.53144 3.07013,4.93214 3.74248,10.62078 1.91203,16.17937 -0.40224,1.22151 -1.51562,3.68137 -1.79111,3.95687 -0.0648,0.0648 -0.28148,-0.11494 -0.48111,-0.39946 -0.19963,-0.28453 -1.11967,-1.44774 -2.04483,-2.58434 l -1.68207,-2.06654 -0.0481,-2.29753 c -0.04,-1.91801 -0.62466,-7.17845 -0.92553,-8.32714 -0.0464,-0.17707 -0.13095,0.39524 -0.1881,1.27175 -0.0571,0.87649 -0.22391,2.89756 -0.37052,4.4912 l -0.26665,2.8975 -3.9765,-3.8008 c -3.4377,-3.28549 -7.11907,-6.45629 -8.65477,-7.45484 -0.39135,-0.25445 -0.46928,-0.58507 -0.56896,-2.41071 -0.1437,-2.63154 -0.33731,-4.17804 -0.52245,-4.17804 -0.1731,0 -0.58234,1.23392 -1.04024,3.13676 -0.188289,0.78248 -0.376924,1.42046 -0.419614,1.41749 -0.0428,-0.004 -1.753852,-1.01075 -3.802352,-2.23966 -2.048493,-1.22891 -4.036859,-2.34882 -4.418852,-2.48822 l -0.694531,-0.25322 0.605131,0.47801 c 4.829848,3.81562 10.560368,8.48087 12.389938,10.08672 1.29342,1.13528 7.22598,6.94434 13.51442,13.23279 l 11.20914,11.20913 -1.20251,1.20251 -1.20251,1.20251 -9.88622,-9.68519 c -6.78472,-6.64671 -10.81493,-10.70975 -12.84728,-12.95167 -1.62876,-1.79672 -3.363204,-3.65713 -3.854544,-4.13411 l -0.893485,-0.86713 0.898136,1.53944 c 0.494,0.84675 1.269393,2.05533 1.723413,2.68562 0.45402,0.63031 0.81168,1.20671 0.79426,1.28054 -0.0175,0.0738 -0.96575,0.40162 -2.106845,0.72864 -1.14109,0.32701 -2.074302,0.65937 -2.074292,0.73846 0,0.19138 2.185605,0.48786 4.156857,0.56379 l 1.58646,0.061 1.69809,2.03605 c 1.94554,2.33306 7.03312,7.51266 9.32708,9.49554 l 1.55494,1.34411 -1.39216,0.57929 c -7.02225,2.92204 -13.53173,2.03868 -19.385381,-2.63085 -2.046959,-1.63288 -3.559509,-3.54185 -4.864819,-6.13916 -1.52126,-3.02702 -1.919161,-4.54855 -3.338298,-12.77803 -1.397783,-8.10564 -2.534472,-12.14872 -4.533573,-16.12408 z m 53.613784,58.20678 0.18552,0.73897 c 0.10197,0.40642 0.0789,1.11817 -0.0512,1.5813 -0.20125,0.71681 -0.57014,1.00808 -2.48047,1.96061 -3.61691,1.80347 -11.0287,3.442991 -18.11931,4.007501 -13.38052,1.06527 -26.087583,-0.004 -35.0309359,-2.946071 -1.368048,-0.45011 -3.034923,-1.18415 -3.704167,-1.63143 -1.167402,-0.78021 -1.220182,-0.87122 -1.298112,-2.23862 l -0.08113,-1.42523 0.874882,0.73949 c 1.28677,1.08727 3.343066,1.91439 7.2393519,2.913 8.019199,2.05529 19.505113,2.92591 29.486573,2.23449 10.89159,-0.75447 20.74617,-3.10364 22.53609,-5.37229 z" /></svg>
