<svg xmlns="http://www.w3.org/2000/svg" xml:space="preserve" width="317.308" height="244.432" viewBox="0 0 83.954 64.673"><path d="M35.628 64.348c-5.483-.666-8.87-2.177-9.14-4.076-.141-.997-1.383-1.98-4.594-3.639-6.262-3.234-14.05-11.145-17.12-17.388-4.453-9.056-6.15-20.76-3.542-24.422 2.573-3.614 13.553-7.828 23.977-9.203 10.053-1.326 9.131-1.373 9.12.47-.014 2.583-.621 2.985-5.196 3.444-10.394 1.042-23.061 5.396-25.2 8.66-.892 1.36-.89 1.615.026 3.012 1.963 2.996 10.084 6.098 20.886 7.978 7.318 1.273 24.903 1.46 32.652.347 14.83-2.13 24.962-7.003 22.833-10.98-2.185-4.083-16.752-8.554-30.83-9.464l-3.523-.227v2.85c0 2.797-1.68 8.944-2.28 8.344-.168-.168-.69-2.14-1.16-4.381s-1.145-4.532-1.502-5.088c-.503-.785-.559-.6-.25.826.846 3.922 1.272 10.027.673 9.657-1.339-.828-4.427-4.707-5.418-6.808-1.325-2.807-1.374-6.998-.125-10.665C37.41-.79 38.08-.993 40.987 2.058l2.5 2.624 5.074.162c14.473.462 28.133 4.21 33.403 9.167 1.915 1.801 1.99 2.054 1.99 6.641 0 6.178-1.335 11.555-4.473 18.016-3.308 6.812-10.806 14.568-17.347 17.946-3.554 1.835-4.427 2.578-4.713 4.008-.308 1.535-.796 1.875-3.907 2.718-4.67 1.266-12.247 1.692-17.886 1.008m-6.88-39.414c-2.534-.97-7.272-3.979-7.272-4.618 0-.672 5.914-1.861 9.26-1.861 3.263 0 6.81 1.463 8.752 3.61 1.373 1.519 1.196 1.57-1.552.445-3.863-1.581-5.142-1.63-1.803-.07 2.527 1.182 3.154 1.725 2.612 2.267-1.062 1.062-7.437 1.207-9.998.227zm18.11.198c-.23-.373 1.188-2.339 3.18-4.407 3.955-4.106 2.833-3.639-1.764.735-2.744 2.61-2.908 2.682-2.896 1.26.018-1.983 1.945-6.126 3.488-7.497 1.745-1.55 7.665-3.506 10.613-3.506 2.315 0 2.475.105 2.09 1.378-.955 3.156-4.247 8.5-6.112 9.924-1.101.84-3.202 1.803-4.669 2.141-3.379.78-3.43.779-3.93-.028"/></svg>