<svg xmlns="http://www.w3.org/2000/svg" xml:space="preserve" width="305.413" height="375.215" viewBox="0 0 80.807 99.276"><path d="M26.41 98.433c-9.644-1.53-16.693-4.5-21.35-8.995-8.451-8.158-6.603-11.864 7.72-15.484.452-.114.28-1.292-.531-3.643-1.535-4.445-2.14-18.12-.904-20.438 1.027-1.925 5.126-3.423 12.32-4.503 4.334-.65 5.77-.685 6.103-.146.716 1.16.105 1.496-3.5 1.926-4.806.573-10.945 2.02-11.889 2.804-1.366 1.134.207 2.157 5.078 3.3 6.633 1.557 30.507 1.557 37.14 0 4.87-1.143 6.445-2.166 5.078-3.3-.986-.818-7.231-2.247-12.18-2.786-3.651-.398-5.143-1.198-3.791-2.034 1.432-.885 12.752.943 16.847 2.72 2.315 1.005 2.86 2.088 2.873 5.71l.01 2.216 2.233-1.525c1.925-1.315 2.721-1.492 5.749-1.279s3.745.506 5.18 2.114c2.093 2.341 2.723 5.523 1.792 9.044-1.05 3.972-3.442 6.58-8.274 9.021l-4.25 2.147 2.433.729c4.623 1.385 6.337 4.58 4.432 8.263-1.284 2.483-7.536 8.152-10.832 9.822-9.036 4.579-24.564 6.367-37.487 4.317m28.513-9.268c11.904-2.066 20.313-5.804 19.256-8.559-.214-.558-2.141-1.834-4.283-2.836-3.728-1.745-4.008-1.788-6.607-1.02-2.063.609-3.219 1.464-4.823 3.567-2.587 3.393-6.87 6.727-10.368 8.071-3.26 1.254-15.652 1.465-19.402.332-4.655-1.408-9.91-5.914-13.904-11.924l-.894-1.344-4.019 1.123c-2.21.618-5.098 1.837-6.417 2.71-2.066 1.367-2.31 1.749-1.768 2.762 1.865 3.484 14.846 7.21 29.78 8.547 4.905.439 16.896-.292 23.45-1.43m15.68-20.323c4.754-2.901 6.666-7.001 4.626-9.915-2.599-3.71-9.278.412-10.137 6.257-.23 1.565-.632 3.421-.894 4.125-.262.703-.342 1.414-.177 1.579.475.475 4.505-.777 6.583-2.046m-34.12-22.19c-1.013-1.35-2.162-3.426-2.554-4.615-.856-2.596-.11-5.18 2.803-9.722q2.917-4.547 1.326-9.862c-.392-1.308-.502-1.15-.896 1.297-.263 1.632-1.657 4.839-3.366 7.743-2.402 4.081-2.918 5.465-2.918 7.824 0 3.336-.623 3.243-2.508-.372-1.538-2.949-1.763-7.998-.497-11.13.464-1.147 2.012-4.029 3.439-6.405 5.718-9.516 7.436-14.955 6.19-19.593-.577-2.145-.556-2.22.315-1.11.513.656 1.319 2.084 1.79 3.173 1.42 3.284 3.3 14.98 3.056 19.02-.123 2.048-.166 3.723-.096 3.723.64 0 2.63-4.458 2.752-6.165.085-1.195.217-2.174.292-2.174s.64 1.004 1.256 2.233c3.01 6.007 2.22 8.775-5.21 18.292-2.208 2.828-2.681 3.913-2.979 6.83l-.353 3.467z"/></svg>