<?xml version="1.0" encoding="UTF-8" standalone="no"?>
<svg
   width="61.211098mm"
   height="72.683113mm"
   viewBox="0 0 61.211098 72.683113"
   version="1.1"
   xml:space="preserve"
   xmlns="http://www.w3.org/2000/svg"
   xmlns:svg="http://www.w3.org/2000/svg"><g
     transform="translate(-78.247601,-108.9711)"><path
       style="fill:#000000"
       d="m 119.73457,179.88997 c 2.42793,-1.2597 6.84549,-4.6454 5.30536,-7.295 -2.03458,2.40412 -3.768,5.77066 -7.25724,6.34255 -2.40716,-0.38035 -2.60938,2.2209 -0.0298,1.44566 0.67626,-0.0893 1.34227,-0.25555 1.98165,-0.49321 z m 7.00528,-8.7707 c 1.35099,-6.00295 0.14544,-13.56577 -5.53746,-16.9613 -2.53164,-1.86069 -3.46076,1.07847 -0.51621,1.47406 4.9056,3.22411 5.8453,10.00038 4.57728,15.3416 -0.49992,1.36858 1.30253,1.20827 1.47639,0.14564 z m -35.378791,8.59896 c -3.42408,-6.88724 -4.588767,-14.6029 -6.208049,-22.05358 -1.040033,-5.88084 -2.340783,-11.7779 -2.541876,-17.75583 0.803055,-4.65706 6.230405,-6.23857 10.342732,-5.98776 3.857359,-0.059 9.064294,1.52128 9.487974,6.03518 -0.17817,3.0903 -0.006,6.58359 -1.47612,9.34234 -2.42034,1.74292 0.0567,-3.49595 -0.30582,-4.79306 1.09262,-2.49631 0.0665,-8.12 -2.935835,-7.21407 1.429953,1.89265 1.427806,2.01611 -0.918573,1.97659 -1.229154,2.00194 4.409968,0.26781 2.66031,3.42193 -0.491479,1.24335 -3.295494,-0.342 -4.194035,0.92362 1.778807,1.01807 4.942253,0.68631 3.419709,3.82344 -0.14487,0.92426 -4.635328,0.29519 -2.010383,1.65596 2.123724,-0.55251 2.240168,3.45496 0.146777,2.47117 -2.433872,-0.70203 -2.7299,1.28386 -0.348279,1.47843 -0.546808,1.54692 -2.470907,2.4957 -3.610856,3.04371 1.908707,2.14692 -1.030122,5.7284 -0.840391,8.60605 -2.74975,0.39263 1.877928,1.9941 -0.06821,2.90436 -1.722432,-0.5827 -6.117938,0.65182 -2.390956,1.45124 1.108095,0.41511 3.370163,-0.8167 3.487419,0.92744 1.404646,2.4081 0.445184,5.09723 -2.651147,4.77021 0.04769,1.56126 3.548977,0.35962 1.515964,2.6507 1.080982,4.06844 3.094375,-5.82106 3.426751,-1.33257 -0.85782,1.29195 -2.568485,7.69112 -3.987109,3.6545 z m -0.392134,-18.78542 c -0.370098,-1.86641 -6.89831,0.41495 -2.832375,0.68762 0.787918,-0.23724 2.557135,0.40574 2.832375,-0.68762 z m -0.01099,-4.39193 c 0.339705,-1.58492 -5.436646,-1.4941 -5.280404,0.70302 1.751607,-0.19655 3.647145,0.008 5.280404,-0.70302 z m -1.396476,-7.853 c 1.420102,0.41446 5.475414,-1.31852 2.242879,-1.70531 -2.226274,0.54744 -6.349148,-0.30528 -7.286148,1.70338 1.348087,1.03065 3.466952,-0.0998 5.043269,0.002 z m -2.38125,-6.89384 c 1.862424,0.38954 4.525486,-1.88993 1.164438,-1.52926 -1.249194,-0.0302 -6.624168,0.15036 -4.148067,1.79088 0.999683,0.001 1.991926,-0.15494 2.983629,-0.26162 z m 18.677571,37.99476 c -5.5968,-2.05138 -9.606025,-7.50662 -10.268071,-13.36881 -0.69859,-6.28644 2.789915,-13.11377 8.953081,-15.21017 1.83156,-0.97471 6.79017,0.3477 3.18534,2.27297 -5.30433,6.29105 -5.68803,15.64261 -2.399,22.9569 -0.80574,-0.26305 -4.16441,-2.65076 -3.02986,-0.0854 1.49097,1.73981 5.01676,1.96874 5.58018,4.05039 -0.70481,-0.0929 -1.35724,-0.38277 -2.02167,-0.61587 z m 21.58531,0.003 c 2.53677,-1.80602 5.38363,-3.36718 7.22373,-6.00983 3.30633,-4.66279 4.27567,-11.12713 1.67145,-16.32276 -2.60028,0.22442 0.79229,4.75723 -0.085,6.8081 0.002,4.68821 -2.61318,9.27327 -6.30065,12.02415 1.07528,-3.21424 2.02607,-6.67898 1.76541,-10.17152 0.23218,-5.26455 -1.86156,-10.47308 -5.5344,-14.22354 3.70059,-2.30415 8.11068,0.62999 10.36887,3.66952 5.62281,7.28746 2.67287,18.90964 -5.29535,23.20544 -0.51034,0.22721 -5.46964,2.82026 -3.81404,1.02044 z m -6.68611,-30.72817 c -1.89839,-0.51715 -2.65543,-3.47125 -4.20501,-0.79781 -1.30003,1.37469 -6.45787,1.06845 -6.01499,0.20366 3.4131,0.53469 7.32374,-1.09333 7.26132,-5.07189 -0.63828,-1.97963 3.13521,-6.70766 3.74352,-4.1699 -3.93392,1.60471 -3.4869,8.53216 0.96481,9.10504 1.35333,0.10332 5.39194,-0.16924 2.131,0.72895 -1.27913,0.42326 -2.61913,0.57357 -3.88065,0.002 z M 85.847922,131.73617 c -5.384975,-3.39978 -7.988188,-9.92655 -7.553597,-16.13705 0.620854,-1.36926 3.687085,2.37232 4.747306,3.14285 2.712704,2.72858 4.225443,6.42077 5.509464,9.97358 -2.131034,-1.46363 -2.968152,-5.15349 -5.481906,-6.43897 -1.643265,2.06052 2.272199,5.21354 3.037748,7.54841 0.494729,1.32235 3.360107,4.50814 -0.259015,1.91118 z m 10.634323,-0.42273 c 0.612506,-3.99277 1.034006,-8.19553 2.889,-11.84216 1.265215,-2.0441 4.167655,-6.4487 6.201935,-5.49289 -0.1688,6.09257 -2.46748,12.13491 -6.253115,16.88083 1.139695,-3.68469 2.663635,-7.30059 4.493985,-10.70129 -0.93685,-3.50575 -3.26301,2.03844 -3.925056,3.52311 -1.284948,2.47689 -2.12102,5.16634 -3.406749,7.6324 z m -5.691303,-7.7724 c -1.896795,-3.59895 -0.559441,-7.7531 0.582403,-11.36548 0.535108,-1.72443 1.879516,-5.23403 2.74628,-1.65506 1.572456,2.90264 2.434872,6.16877 0.69245,9.20973 -1.27499,3.83223 0.187918,-3.99898 -1.624265,-4.63104 -1.846461,0.73986 -0.588052,4.73456 -1.099274,6.83275 -0.05434,1.48017 -0.108682,2.96034 -0.163023,4.44051 -0.37819,-0.9438 -0.756381,-1.88761 -1.134571,-2.83141 z m 25.228848,57.99433 c -6.39601,-1.61627 -9.68957,-8.65702 -9.62242,-14.82267 -0.10094,-5.91553 2.68854,-12.82572 8.83382,-14.60702 5.08693,-1.49836 10.23566,2.22661 11.98748,6.91169 1.8036,3.84536 1.81776,8.37086 0.96083,12.45406 -1.38356,5.04719 -5.488,10.43715 -11.23024,10.17348 l -0.46416,-0.0412 z" /></g></svg>
