<svg xmlns="http://www.w3.org/2000/svg" xml:space="preserve" width="202.007" height="456.339" viewBox="0 0 53.448 120.74"><path d="M2.705 119.373c0-1.248.422-1.45 4.846-2.32 5.211-1.023 10.179-2.828 12.862-4.67 2.41-1.657 3.226-4.169 3.867-11.905 1.22-14.733.38-29.891-1.916-34.549-1.173-2.38-1.826-2.88-7.288-5.593-6.673-3.314-9.169-5.408-11.458-9.613C-1.837 40.7-1.16 27.08 5.898 4.819L7.426 0l19.343.154 19.343.153 1.955 6.124c4.6 14.415 6.393 27.665 4.825 35.668-1.505 7.677-6.408 14.5-12.425 17.287l-5.372 2.491c-5.46 2.534-6.393 7.048-6.038 29.199.226 14.047.352 15.61 1.469 18.086.883 1.96 1.923 3.121 3.759 4.194 2.523 1.474 9.029 3.453 13.764 4.186 2.125.33 2.479.585 2.479 1.79v1.408H2.705zM35.88 56.902c7.694-2.715 13.48-11.055 13.48-19.429 0-1.855-.097-1.946-1.895-1.773-1.85.178-1.904.265-2.257 3.544-.562 5.23-3.319 10.176-8.184 14.68-2.274 2.106-4.005 3.83-3.846 3.83s1.375-.384 2.702-.852M49.124 29.32c-.494-5.013-1.621-10.39-3.911-18.66l-1.817-6.562H10.327L8.591 9.654C6.782 15.441 4.77 24.93 4.237 30.197l-.31 3.061h45.585z"/></svg>