<svg xmlns="http://www.w3.org/2000/svg" xml:space="preserve" width="284.823" height="176.472" viewBox="0 0 75.359 46.691"><path d="m46.087 21.41-4.839-.363-4.355.363q-1.693.605-1.693 2.782 0 2.299 1.935 3.992Q38.95 30 41.732 30q2.661 0 4.476-1.815 1.814-1.693 1.814-3.992 0-2.177-1.935-2.782M60.118 4.476l-.726 2.298q1.694.363 3.025 2.42 1.451 2.176 2.298 2.418l1.814 1.331q.484.726.121 1.814l-.484 3.387q3.75 3.75 6.653 10.04 2.178 4.96 2.54 12.338v6.17H59.876l1.21-7.38q.968-7.862-.968-11.612-1.21-2.54-3.024-3.75L53.707 22.5l-2.54 1.814-.968 2.057-2.298 3.145q-2.54 2.298-7.258 2.177-5.564-.242-7.136-4.475l-.605-3.025-.121-2.177q-.363-.726-2.057-1.33l-2.782-.726-2.177-2.178-.847-1.451-2.903-7.258H0V1.693h22.015V.968h25.281l.605-.605.968-.363.846.484.605 1.21v2.782z"/></svg>