<svg xmlns="http://www.w3.org/2000/svg" xml:space="preserve" width="701.336" height="566.876" viewBox="0 0 185.562 149.986"><path d="M53.155 24.13v6.138c-.08.053-.133.133-.212.186-.264-.477-.688-.953-.74-1.456-.107-1.032-.027-2.063-.027-3.095-.027-1.006-.503-1.614-1.561-1.614-6.43.053-12.859.053-19.288.264-1.165.053-2.382.9-3.44 1.588-3.519 2.275-6.958 4.63-10.451 6.958-.291.186-.608.45-.926.45-1.561-.106-1.614.9-1.561 2.011.053 1.032.08 2.064.132 3.228L0 38.708c0 6.298.026 12.357.026 18.416h15.267c-.132 1.402-.238 2.619-.344 3.862-.08.847.37 1.059 1.164 1.35 1.244.476 2.355 1.296 3.493 2.037 2.751 1.773 5.477 3.572 8.228 5.371.424.291.82.635 1.297.82.846.37 1.72.926 2.593.926 6.27.08 12.514.08 18.785.08 1.482 0 1.693-.238 1.693-1.746 0-.874.053-1.72-.026-2.593-.053-.847.106-1.456.873-1.535v5.9c-.873 0-1.005.82-.953 1.826.053 1.693.053 3.36 0 5.053-.026.926.318 1.191 1.218 1.191 3.413.053 3.413.08 3.413-3.334V73.21c0-.661.211-1.455-.847-1.587-.106-.027-.265-.424-.265-.635V55.457c0-.16.106-.291.424-.45.026.423.08.873.106 1.296v9.446c0 2.01.82 2.805 2.857 2.831.265 0 .503.106.662.132.555-.688.211-2.063 1.64-1.508.106.397.238.873.37 1.402 5.689 0 11.377-.026 17.066-.026.397 1.111-.74 3.122 1.826 2.752.079.476.132.926.238 1.56.873-.105 1.746-.211 2.751-.317.027-.185.053-.661.106-1.19.344-.027.715-.027.847-.027l1.455 1.455c.132-.053.265-.132.37-.185-.105.847-.185 1.693-.29 2.62.687.079 1.137.105 1.64.158-.159.53-.291 1.006-.45 1.455h.344c.08.503.37 1.085.212 1.482-1.085 2.99-2.276 5.927-3.36 8.89-.82 2.302-.927 2.408-3.387 1.905-.212-.053-.423-.106-.715-.159-.317.582-.635 1.217-.978 1.879-.768-.238-1.535-.476-2.408-.74l-1.932 4.788c.847.397 1.614.767 2.435 1.138a88 88 0 0 1-.53 1.772c-.45-.158-.873-.264-1.27-.45-.688-.343-1.296-.767-1.693.371-.291.82-.847 1.64.609 1.879.423.079.793.29 1.296.476-.159.555-.053 1.27-1.058.873-.556-.212-1.138-.318-1.8-.503-.238.741-.45 1.376-.714 2.117.767.37 1.482.714 2.355 1.164-1.085 2.884-2.196 5.821-3.307 8.758-.635-.132-1.217-.265-1.852-.397a936 936 0 0 0-2.329 6.138c-1.587 4.207-3.201 8.388-4.762 12.594-.582 1.561-1.244 3.123-1.614 4.736-.106.477.582 1.376 1.137 1.72.9.556 1.958.847 2.964 1.217 2.54.926 5.08 1.826 7.62 2.752.397.132.714.423 1.085.635-.239.82-.477 1.588-.741 2.434 2.54.953 5.027 1.852 7.62 2.831.317-.9.582-1.64.9-2.513 1.72.635 3.439 1.243 5.132 1.878a2513 2513 0 0 1 7.885 3.016c.45.16.9.37 1.35.424.978.08 1.745-.027 2.142-1.217 1.535-4.419 3.175-8.81 4.79-13.203 1.058-2.831 2.116-5.689 3.28-8.493.503-1.19.132-1.588-.979-1.879-1.005-.264-1.984-.714-3.016-1.11 1.164-3.123 2.249-6.033 3.36-8.997 1.535.503 2.937.953 4.445 1.455.132-.343.238-.661.397-.952.503-.926.159-1.429-.794-1.693-1.032-.291-2.037-.662-3.175-1.032.106-.397.212-.794.37-1.376 1.562.582 3.017 1.111 4.552 1.667.158-.424.29-.82.476-1.217.397-.847.053-1.27-.741-1.535-1.058-.317-2.09-.688-3.254-1.085.211-.661.37-1.217.582-1.905a531 531 0 0 1 4.603 1.614c.503-1.508 1.059-3.148 1.64-4.868-1.454-.609-2.804-1.19-4.312-1.826.185-.582.37-1.164.556-1.772l-.238.079c-.212-.635-.609-1.27-.582-1.905.079-2.222.105-4.471.555-6.641.37-1.826 1.297-3.519 1.985-5.318.423.08.82.159 1.322.264.635-2.09 1.244-4.18 1.905-6.244.106-.37.37-.82.662-.952 1.243-.556 2.275-1.932 2.275-3.281 0-.635-.026-1.297-.053-2.09.477-.027.874-.053 1.297-.08.37 0 .767.027 1.111.053.08.133.159.212.159.265-.503 2.672.847 4.921 1.693 7.276.688 1.931 2.302 2.937 4.286 3.28 6.006 1.033 12.013 1.88 18.124 1.694 1.032-.026 2.117.106 3.096.45.503.185.979.873 1.19 1.455 1.033 2.858 1.985 5.768 2.964 8.652 1.667 5.027 3.307 10.08 5 15.108.265.767.794 1.349.636 2.328-.212 1.244 1.164 1.402 1.852 2.01 1.799 1.588 3.677.45 5.477 0 2.196-.528 4.365-1.27 6.535-1.904 2.937-.873 5.9-1.746 8.837-2.646 1.138-.344 2.646-2.963 2.355-4.101-.133-.476-.53-.873-.926-1.482.846-1.005.053-1.958-.582-3.069-1.138-1.958-2.09-3.995-3.175-6.006-1.482-2.778-2.99-5.556-4.472-8.334-1.005-1.932-1.984-3.89-2.963-5.821-.688-1.402-1.535-2.778-1.985-4.26-1.243-4.127-1.375-8.36-.608-12.62.185-1.085.82-1.27 1.667-1.297 1.217-.026 2.407 0 3.624 0 1.562 0 2.038-.291 1.8-1.746-.238-1.429.767-2.117 1.27-3.122.132-.265.74-.397 1.137-.397 1.561-.027 3.096 0 4.657.026.291 0 .609.027.9.053 1.031.08 1.905-.317 2.09-1.323.238-1.323-.741-2.593-1.932-2.672-1.72-.132-3.44-.265-5.159-.265-.953 0-1.455-.423-1.852-1.217-.159-.344-.582-.608-.979-1.032.397-3.069-2.117-5.185-3.254-7.858-.318-.714-.45-1.72-.186-2.407.397-1.032.582-1.8-.185-2.752-.74-.926-1.243-2.064-1.984-2.963-.45-.556-1.19-1.244-1.773-1.218-1.561.027-2.249-.952-2.937-1.984-2.249-3.36-5.239-5.503-9.393-5.636-4.841-.132-9.657-.158-14.499-.211-2.83-.027-5.688 0-8.228 0-1.746-3.625-3.387-7.038-5.08-10.451-.318-.635-.609-1.429-1.164-1.773-.582-.37-1.43-.265-2.435-.397.16 1.879.265 3.546.397 5.107-2.619-.027-4.789-.027-7.09-.053-.027-.397-.053-1.032-.106-1.879-1.35.106-2.726.238-4.101.344-.265-.9-.424-1.402.529-1.376.29 0 .661.027.873-.132 1.534-1.085 3.28-.847 4.974-.9.37 0 .74-.317 1.111-.502-.37-.185-.714-.53-1.084-.53-1.588 0-3.202-.29-4.684.874-1.031.793-1.852.158-1.931-1.244-.053-.873-.027-1.773-1.058-2.249-1.323-.608-2.408-.185-2.726 1.27-.158.662-.185 1.35-.238 1.932h-9.551c-.424-1.006-.794-2.038-1.297-3.017-.132-.264-.74-.37-1.137-.37-1.35-.026-1.667.476-1.985 2.884-.106 0-.238.026-.344.026-.026-.688-.29-1.508.027-2.037.317-.556 1.137-1.085 1.772-1.138 1.535-.158 3.096-.079 4.657-.079 5.689 0 11.404.026 17.092-.053 1.403-.026 2.778-.397 4.18-.714.212-.053.53-.503.53-.768 0-3.783-.027-7.593-.053-11.456h-2.62v8.334c-.978.318-2.196-.397-2.778.873-.026.053-.82-.052-.926-.29-.476-.874-.846-.61-1.455-.106-.317.264-1.217.317-1.376.105-.582-.82-.873-.793-1.376.053-.105.186-1.058.08-1.375-.158-.556-.477-.926-.609-1.376.053-.503.74-1.032.635-1.482 0-.45-.609-.767-.635-1.19-.027-.503.714-.98.662-1.562 0-.211-.212-1.11-.238-1.217-.053-.529.873-.926.688-1.455.053-.45-.503-.846-.767-1.376.053-.158.265-1.27.291-1.27.265-.29-1.191-1.243-.741-1.905-.688-1.11.079-2.54-.662-3.228 1.005-.052.159-.635.132-.979.132-1.905 0-3.783-.053-5.635-.053-.08.212-.106.291-.106.37-.053 2.382-.053 2.409 2.328 2.382.635 0 1.297-.159 2.196-.264-.079 1.296-.158 2.248-.158 3.175-.027 1.878.29 2.275 2.01 2.963.318.132.503.476.768.74-.08.16-.133.292-.212.45-1.402-.105-2.83-.211-4.366-.343-.026.952-.052 1.56-.079 2.301-.582.027-1.138.08-1.799.106a61 61 0 0 1-.106 1.852c-1.323-.132-2.62-.264-3.942-.397l.08.477-1.535 1.534c-.106-.9-.186-1.35-.239-1.799-2.301-.582-2.778-.37-2.936 1.402-2.593-.582-1.482 1.561-1.879 2.752H61.674c-.397.609.027 1.879-1.428 1.402-.106-.397-.212-.846-.318-1.27 0-.132-.026-.264-.026-.397-.635.106-1.27.212-1.905.292-1.059.132-1.879.978-1.879 2.063v10.24c0 .397-.026.767-.053.926v-16.43c.159-.371.556-.927.582-1.483.106-1.508.053-3.016.027-4.524-.027-.794.317-1.693-.662-2.302-.238-.132-.158-.794-.185-1.217-.212-2.884-.397-5.794-.635-8.678-.026-.291-.45-.53-.688-.794-.185.265-.37.503-.529.767-.08.133 0 .344-.026.503-.212 2.963-.45 5.927-.688 8.89-.027.238-.133.661-.265.688-1.323.212-.952 1.243-.952 2.037-.027 1.455.026 2.937-.027 4.392-.026 1.032.053 1.826 1.138 1.773m79.825 42.227c3.545-1.455 7.17-1.19 10.768-.555.212.635.37 1.138.53 1.693-1.059-.132-1.297.397-1.27 1.297.105 2.672-.027 5.344-1.509 7.699-.529.82-.29 1.429.662 1.614.45.08.952.026 1.428.026l5.848.08c-.186 1.64-.688 2.91-1.773 3.81-.767.635-1.005 1.217-.08 2.249-1.481.132-2.645.317-3.81.37-5.344.238-10.662-.238-15.927-1.164-2.461-.423-3.228-1.19-3.255-3.863 1.852.053 1.826.053 2.646-1.085 2.672-3.704 4.551-7.778 5.742-12.17M3.969 46.197c1.111-1.165 3.016-1.218 4.154-.08 1.111 1.111 1.058 2.672-.133 3.863-.9.9-2.963.952-3.889.08-1.032-.953-1.085-2.858-.132-3.864m95.144-27.015c.476-.423.74-.873 1.032-.873 3.069-.053 6.112-.026 9.26-.053-.026.397-.026.715-.053.926z"/></svg>