<svg xmlns="http://www.w3.org/2000/svg" xml:space="preserve" width="234.591" height="150.291" viewBox="0 0 62.069 39.764"><path d="M45.027 16.45v.034l-.174-.07-.697-.034-.035.035-.07-.035-.279.035-.07.209.07.279v1.115l-.035.14v.069l-.034.174.034.279.035.14.07.069 2.44 4.565.034.105.244.105.14-.07.522-.349 5.298-2.335h-.07l.21-.174-.105-.314q-.14-.104-.349-.104l-.07-.07-.418-.14-.732-.208-1.324-.349-2.23-.557h-.419l-.383-.14-.105-.104-.313-.105-.105-.105-.209-.034-.174-.07-.105-.174v-.07l-.034-.105v-.139h-.035l-.035-.14h-.035v-.174l-.035-.034v-.21h-.07v-.906l-.174-.035zm-2.614 2.022v-.07l-1.847-.104v-.488h-2.16l-1.395 4.67-1.185.278.21-5.053-3.242.035-.488.348-.174 2.057h-18.61l-.523-.349-8.05-.244-.07-.383H3.137l-.14-.593v-1.254l.14-.872 1.812-.104.14-8.12L.243 8.12 0 7.075.14 4.46h3.694l-.21-.871.28-.697h1.568L5.542.87h.243L5.89.767 7.005.383h.14L7.178.35l.906.034 1.116.21v.034l.243-.035v2.126l9.48.035q4.914-.07 9.863-.244l.139-2.23.07-.279h.418l.035.488.104 2.23 1.36.175.801.94.732 1.22-.105 1.638h2.44l1.01-.662-1.045-1.045-.941-.837.732-.174 1.952.94 1.881 1.674 1.778-.07q1.603.593 3.345.941l1.255.314.105.87-.872.559h-.209v1.603l1.43.035v.034l2.578.105 1.115 1.394.035.21.105 1.986-.976 1.951-.279-.07h-.174l-.21-.034h-.313v.034h-.07l-.07.07v.035q-.069.14.036.279l.034.035v.592l.035.21.174.139.07.07q.07.104.244.104l3.625.523 2.509.732.836.348.453.21 1.22 1.184.105.14.906.87 1.254 1.43v.034l2.58 5.158.069.07.976 3.729v.105l-.384 1.15-.174.104q-1.498.976-3.764 1.952l-7.11 3.032-2.125 1.01-.802-.034h-.278l-.105-.035-.105-.105-.766-.906-.244-.383.07-1.743 1.812-1.707.209-.488v-.14l.209-1.29-.035-.452-.14-.14zm8.12 14.323-.313 1.36L49.418 36l-.836 1.254 11.535-4.81v-.243l-.871-2.718-.07-.175zm-.348-2.37 5.61-2.37-6.586 1.395.558 1.115.418-.174zm.627-5.402.418-.105 3.241-.801.558-.14 1.29-.313-1.22-1.325-1.708.906-2.196 1.116-3.415 1.289 3.102-.662zM9.305 8.12l.035 7.842 3.66-.105-.07-4.635H9.723V9.096h.941l.035-.871-.871-.105zm6.97 7.18h.732v.174h-.035v.278l.035.035v.035l.035.07h.07l.07.035.104.035h12.128l.07.034h.07l.139-.034.035-.035h.07l.069-.035.035-.07v-.035h.035v-.279l.07-.034v-.384l-.07-.07v-.104l-.035-.07v-.035h-.035l-.07-.034-.035-.035h-.279l-.034.035-.035.034-.07.035-.035.07v.383H17.565l-.314-1.951-.14-1.534v-6.83h.035l.105-.07h.07l.07-.035.034-.035h11.92v9.096l.069.035v.035l.035.035h.035l.104.07.105.034.07-.035h.034l.07-.07.035-.034h.035v-.035l.07-.035v-.14l.034-.034V4.984l-.035-.07v-.105l-.07-.07v-.034h-.034l-.035-.035v-.314l-.07-.035v-.07h-.035l-.034-.034-.035-.035h-12.86l-.105.035h-.035v.035l-.034.07v.034h-.07v.14l-.035.035-.035.034-.07.035-.034.07v3.415l-2.823.035-.662.105v.766h3.485v2.057H16.1l.07 3.973h.104z"/></svg>