<svg xmlns="http://www.w3.org/2000/svg" xml:space="preserve" width="361.963" height="390.176" viewBox="0 0 95.769 103.234"><path d="M22.266 89.542c-3.402-1.728-4.602-5.127-3.061-8.673.541-1.247.712-2.062.703-3.365-.012-1.977-.461-3.199-1.69-4.6-2.12-2.413-4.786-2.779-8.36-1.145-2.787 1.273-4.644 1.344-6.714.255-2.048-1.078-3-2.536-3.128-4.789-.163-2.893.912-4.698 3.586-6.018 1.417-.7 1.763-.756 4.834-.783s5.038-.354 5.675-.944c.138-.128.466-.232.727-.232.262 0 .477-.105.477-.233s.357-.38.793-.561.794-.408.794-.504.328-.373.728-.615c.4-.241 1.085-.765 1.521-1.164 8.533-7.8 11.516-10.674 23.033-22.183C57.345 18.836 60.756 15.167 62.278 12.37c.638-1.173.77-1.785.927-4.33.217-3.5.753-4.867 2.52-6.422C68.94-1.213 73.9-.21 76.023 3.7c.71 1.308.795 1.742.937 4.747.205 4.363.456 4.788 3.441 5.822.946.328 2.018.75 2.381.936 1.097.563 2.312 2.014 3.062 3.656.622 1.361.693 1.79.583 3.512-.11 1.718-.246 2.134-1.085 3.344-1.598 2.304-3.803 3.36-7.049 3.374-2.121.009-3.542.398-6.226 1.704-2.807 1.365-3.819 2.287-9.01 8.21-15.75 17.977-28.098 33.26-29.92 37.035-.86 1.782-.89 1.954-.89 5.046 0 3.62-.342 5.009-1.614 6.552-1.307 1.585-2.901 2.365-5.095 2.494-1.65.097-2.066.022-3.273-.591"/><path d="M75.137 34.234c2.581.087 4.29 1.829 4.359 4.445.024.92.153 1.469.531 2.266.573 1.21 1.198 1.83 2.353 2.337 1.991.875 3.73.337 5.456-1.688 1.346-1.578 2.464-2.153 4.046-2.077 1.565.075 2.566.697 3.289 2.043.928 1.728.784 3.143-.479 4.718-.669.834-.865.968-2.74 1.863-1.877.895-2.99 1.658-3.212 2.202-.049.118-.22.276-.38.351s-.262.2-.226.279-.11.335-.327.571c-.216.236-.37.477-.342.537.028.059-.094.322-.27.585a8 8 0 0 0-.601 1.15c-3.003 7.225-4.011 9.841-7.784 20.197-4.966 13.632-6.01 16.859-6.143 19.01-.056.902.039 1.315.67 2.921.868 2.21.93 3.202.292 4.66-1.164 2.658-4.494 3.461-6.915 1.669-.81-.599-.986-.84-1.932-2.644-1.374-2.618-1.65-2.807-3.777-2.587-.674.069-1.452.117-1.729.107-.833-.032-1.994-.575-2.924-1.367-.77-.657-.937-.9-1.362-1.988-.424-1.085-.46-1.38-.291-2.362.321-1.87 1.372-3.148 3.36-4.086 1.298-.612 2.058-1.257 3.331-2.826 1.332-1.64 1.688-2.496 3.178-7.615 4.52-15.534 7.723-28.442 7.761-31.278.018-1.339-.013-1.453-.897-3.35-1.036-2.221-1.223-3.17-.884-4.482.348-1.345 1.103-2.28 2.412-2.987.984-.531 1.26-.604 2.177-.574"/></svg>