<svg xmlns="http://www.w3.org/2000/svg" xml:space="preserve" width="274.022" height="417.528" viewBox="0 0 72.502 110.471"><path d="M24.027 109.96c-8.928-.6-11.815-1.152-15.307-2.928-3.268-1.663-5.427-3.998-7.07-7.646C.456 96.739.32 93.226.108 59.916c-.231-36.478-.228-36.572 1.397-40.35l1.629-3.787 3.704.622c5.859.983 13.196.553 16.263-.953 2.768-1.36 2.866-1.537 5.383-9.718C30.11.449 32.14-.214 45.895.048 56.627.252 57.359.36 60.498 2.205c2.814 1.655 3.95 3.115 7.653 9.84l4.35 7.899v38.632c0 42.564.195 40.622-4.592 45.738-4.831 5.164-20.684 7.204-43.882 5.646M6.685 22.514c.659-3.858-.234-5.198-1.89-2.834-1.652 2.36-1.599 6.647.08 6.324.854-.164 1.433-1.279 1.81-3.49m44.677 2.902c15.812-.896 18.01-1.245 17.696-2.81-.167-.83-.915-1.168-2.409-1.088-1.191.064-8.399.492-16.016.951-10.394.626-17.182.627-27.21.001-7.348-.458-13.538-.654-13.757-.436s-.216.87.006 1.447c.304.792 2.516 1.166 9.019 1.524 4.74.26 9.437.573 10.439.694 3.9.474 10.331.392 22.232-.283m-4.665-12.874c7.56-2.499 9.804-4.625 7.96-7.541-1.055-1.67-17.579-2.058-20.003-.47-1.932 1.266-4.473 7.835-3.754 9.707.62 1.617 8.255.797 15.797-1.696m-40.71 1.183c-.902-.363-1.64-1.088-1.64-1.611 0-.74 2.143-.929 9.658-.847 5.312.059 9.621.394 9.576.747-.278 2.18-13.28 3.445-17.594 1.711m-.73-5.102c-1.354-.545-1.64-1.221-1.64-3.885 0-2.27.343-3.357 1.154-3.668.634-.244 4.707-.443 9.052-.443s8.417.2 9.051.443c.83.318 1.153 1.421 1.153 3.924 0 2.994-.23 3.543-1.64 3.92-2.504.672-15.274.454-17.13-.291"/></svg>