<svg xmlns="http://www.w3.org/2000/svg" xml:space="preserve" width="215.493" height="313.998" viewBox="0 0 57.016 83.079"><path d="M1.914 82.552c-.474-.29-1.1-.914-1.388-1.388C.007 80.314 0 79.752 0 41.408 0 3.298.01 2.497.516 1.667 1.593-.1-.072 0 28.494 0 53.69.002 54.392.016 55.217.52c.466.284 1.061.908 1.323 1.388.452.828.476 2.823.476 39.765 0 38.484-.006 38.901-.53 39.594-.29.385-.893.95-1.339 1.257-.81.556-.813.556-26.59.556-25.259-.001-25.798-.012-26.643-.527m48.985-4.169c.408-.837 1.382-2.542 2.166-3.789 2.362-3.76 2.521-4.436 1.352-5.736-.95-1.055-2.89-.66-3.728.76l-.46.78-.584-.866c-.99-1.47-2.716-1.658-3.867-.422-.751.806-.669 1.953.261 3.65.439.801 1.452 2.736 2.252 4.3.799 1.565 1.546 2.844 1.66 2.844s.541-.684.948-1.52m1.418-11.708c1.327 0 2.185-.901 2.185-2.296 0-1.89-2.26-2.905-3.62-1.626l-.613.575-.613-.575c-.812-.763-1.899-.734-2.706.074-1.367 1.367-.503 3.848 1.34 3.848.505 0 1.03.213 1.321.534l.483.533.567-.533q.569-.535 1.656-.534m-18.773-8.868c-1.147-1.22-2.317-3.285-2.864-5.055-.286-.925-.52-1.782-.52-1.904s.659.069 1.463.425c2.743 1.213 5.752.648 7.758-1.458 1.479-1.551 1.992-2.814 1.995-4.907.004-3.003-.904-4.546-5.52-9.385-3.854-4.04-5.676-6.453-6.682-8.852l-.547-1.304-.923 1.833c-1.241 2.465-2.464 4.042-6.18 7.97-3.607 3.813-4.949 5.652-5.515 7.558-.506 1.704-.505 2.66.005 4.377.475 1.6 2.085 3.411 3.695 4.16 1.637.762 3.965.817 5.551.132.725-.313 1.417-.71 1.537-.883.338-.484-.088 1.934-.55 3.125-.497 1.278-1.917 3.566-2.525 4.068-.242.2-.44.467-.44.595s2.462.232 5.473.232h5.473zM6.366 20.18c.613-.698.904-.877.993-.61.241.724 1.352 1.597 2.032 1.597.687 0 1.984-1.041 1.984-1.593 0-.776-.58-1.317-1.414-1.317-1.132 0-1.66-.44-1.982-1.652-.245-.919-.23-.97.226-.727.636.34 2.01.335 2.656-.01.802-.43 1.385-1.797 1.214-2.85-.082-.507-.978-2.364-1.99-4.126s-2.052-3.65-2.309-4.195-.556-.993-.664-.993-.583.685-1.056 1.522-1.57 2.697-2.437 4.133C2.548 11.135 2 12.34 1.913 13.123c-.119 1.05-.045 1.235.836 2.117.907.906 1.048.958 2.283.84.724-.07 1.316-.089 1.316-.043 0 .047-.2.506-.446 1.02-.4.84-.554.935-1.5.935-1.921 0-2.616 1.327-1.323 2.526 1.074.996 2.22.878 3.287-.338"/></svg>