<svg xmlns="http://www.w3.org/2000/svg" xml:space="preserve" width="468.036" height="466.455" viewBox="0 0 123.835 123.416"><path d="M6.798 122.813c-1.537-.398-3.618-1.634-4.624-2.745-1.75-1.934-1.842-4.33-2.11-55.562-.155-29.447-.019-54.98.3-56.742.32-1.762 1.69-4.23 3.043-5.484L5.867 0H118.26l2.787 2.787 2.788 2.788v111.687l-2.685 3.005-2.686 3.005-54.436.132c-29.94.073-55.693-.193-57.23-.591zm52.687-5.76c.292-1.18.407-8.153.256-15.495-.228-11.11-.514-13.35-1.704-13.35-1.196 0-1.474 2.338-1.696 14.261-.145 7.844-.052 14.818.209 15.496.745 1.943 2.352 1.443 2.935-.911m35.532-9.435.267-10.948-8.033-7.75c-4.418-4.262-8.293-7.49-8.61-7.171-1.486 1.485-.08 3.838 6.096 10.208l6.675 6.884v8.67c0 9.252.542 11.983 2.263 11.412.693-.23 1.17-4.25 1.342-11.305m-62.142 1.547c.06-4.709.167-9.14.239-9.846s2.852-4.14 6.179-7.628c6.243-6.548 7.887-9.207 6.298-10.189-1.122-.693-14.952 13.442-16.236 16.595-.878 2.157-1.002 17.88-.154 19.486.223.423 1.117.627 1.986.455 1.32-.262 1.597-1.72 1.688-8.873m8.95-.655c.46-8.916.59-9.355 3.675-12.534 2.364-2.436 2.976-3.691 2.347-4.815-.71-1.268-1.638-.722-5.582 3.283l-4.73 4.803.148 8.307c.201 11.289.122 10.87 1.997 10.514 1.412-.27 1.742-1.741 2.146-9.558m8.71 8.544c.071-.656.032-4.416-.086-8.356-.187-6.216.049-7.403 1.78-8.969 1.096-.992 1.993-2.382 1.993-3.087 0-2.226-2.597-1.395-5.16 1.651-2.22 2.638-2.468 3.728-2.468 10.808 0 4.33.286 8.16.635 8.509 1.065 1.064 3.171.71 3.307-.556m17.977-12.874c-.015-13.797-.621-17.348-2.74-16.039-.704.435-1.06 5.605-1.06 15.38 0 14.089.082 14.725 1.907 14.725 1.822 0 1.907-.631 1.893-14.066m9.073 4.665c0-8.555-.1-8.972-2.675-11.186-4.483-3.853-6.186-2.39-2.57 2.208 1.566 1.99 1.908 3.869 1.908 10.472 0 7.152.185 8.01 1.669 7.72 1.446-.284 1.668-1.511 1.668-9.214m9.06.067V99.58l-4.677-4.607c-2.572-2.533-5.147-4.315-5.722-3.96-1.665 1.029-1.28 1.882 2.77 6.14l3.814 4.01v7.906c0 8.068.308 9.178 2.543 9.178.973 0 1.271-2.192 1.271-9.334m-69.08 5.098c1.482-1.1 1.64-1.718.794-3.099-1.606-2.618-5.543-2.253-5.94.552-.177 1.251.252 2.64.954 3.084 1.725 1.093 2.053 1.051 4.192-.537m94.826-1.88c0-1.865-2.601-3.724-4.3-3.072-2.362.906-2.882 3.597-.967 4.997 1.96 1.434 5.267.225 5.267-1.925m-79.27-27.428c3.477-3.239 6.452-6.417 6.612-7.063.77-3.102-2.17-1.82-7.709 3.36l-6.1 5.708-9.918.273c-8.56.237-9.962.503-10.237 1.943-.29 1.509.703 1.668 10.357 1.668h10.676zm84.814 4.22c-.273-1.428-1.786-1.737-10.518-2.145l-10.2-.477-4.077-3.814c-2.243-2.098-4.428-4.35-4.857-5.007-.985-1.505-4.5-1.566-4.5-.077 0 .612 2.883 3.83 6.406 7.152l6.405 6.037h10.83c9.799 0 10.799-.158 10.51-1.668M54.996 84.62c.218-1.131-.29-1.657-1.601-1.657-2.187 0-3.398 1.424-2.478 2.913.928 1.502 3.714.644 4.08-1.256m10.353.653c.835-2.175-1.9-4.55-4.345-3.775-1.924.611-2.722 3.3-1.378 4.643 1.22 1.22 5.15.624 5.723-.868m7.945-.606c0-1.069-.711-1.704-1.907-1.704-1.251 0-1.907.635-1.907 1.848 0 1.26.606 1.802 1.907 1.704 1.142-.086 1.907-.828 1.907-1.848m-42.383-7.903c3.04-2.36 5.88-4.29 6.313-4.29 1.401 0 .833-2.904-.682-3.485-.903-.347-3.265.95-6.13 3.367l-4.663 3.931-8.888.015c-9.419.014-11.914.75-10.964 3.227.483 1.257 2.25 1.526 10.037 1.526h9.451zm87.03 2.146c-.29-2.047-.76-2.158-10.21-2.419l-9.907-.273-4.293-3.78c-2.362-2.079-4.878-3.78-5.59-3.78-2.735 0-1.074 2.75 4.519 7.48l5.816 4.917h9.985c9.81 0 9.98-.037 9.68-2.145M29.855 67.756c3.498-3.392 4.468-6.726 1.958-6.726-.787 0-1.43.594-1.43 1.32 0 2.955-4.439 4.401-13.556 4.416-9.498.015-11.884.741-10.897 3.314.539 1.403 1.918 1.57 10.578 1.288 9.883-.323 9.984-.35 13.347-3.612m87.781 1.38c0-1.764-.717-1.926-9.536-2.152-9.445-.243-13.827-1.388-13.827-3.614 0-1.816-2.558-3.6-3.342-2.332-1.201 1.943.465 5.214 4.02 7.89 3.383 2.548 3.907 2.643 13.105 2.384 8.855-.249 9.58-.414 9.58-2.177m-75.173-3.889c.317-.827-.125-2.207-.984-3.065-1.445-1.445-1.676-1.445-3.121 0-1.95 1.95-1.055 4.57 1.56 4.57 1.082 0 2.227-.677 2.545-1.505m43.705-.88c0-2.417-3.788-3.164-4.65-.917-.849 2.211.19 3.46 2.594 3.118 1.322-.189 2.056-.974 2.056-2.2M28.1 59.523c-.319-.83-.58-1.903-.58-2.384 0-.482-4.733-.876-10.519-.876-8.765 0-10.617.254-11.105 1.527-.976 2.542 1.6 3.211 12.43 3.226 9.052.015 10.28-.174 9.774-1.493m88.959.636c.746-.473 1.068-1.528.733-2.402-.512-1.334-2.082-1.52-10.867-1.288-9.828.26-10.282.363-10.574 2.416-.299 2.107-.127 2.146 9.536 2.131 5.413-.007 10.44-.393 11.172-.857m-75.234-1.976c1.106-.706 1.191-1.296.374-2.608-.58-.933-1.705-1.824-2.499-1.98-1.765-.349-2.82 3.064-1.389 4.495 1.254 1.254 1.675 1.265 3.514.093m44.502-.564c.318-.827-.125-2.206-.984-3.065-1.445-1.445-1.676-1.445-3.121 0-1.95 1.95-1.055 4.57 1.56 4.57 1.083 0 2.228-.677 2.545-1.505m-52.345-3.75c.187-1.347-1.063-2.796-4.31-4.996-4.388-2.973-4.955-3.1-13.882-3.1-7.51 0-9.417.285-9.873 1.472-.31.81-.317 1.72-.013 2.023.303.303 4.695.48 9.76.395 9.883-.167 13.03.876 14.25 4.722.786 2.476 3.705 2.106 4.068-.516zm59.786.572c1.211-3.815 4.762-4.975 14.62-4.776 8.495.17 9.247.04 9.247-1.614 0-1.628-.92-1.827-9.578-2.07l-9.577-.27-4.488 3.496c-2.468 1.923-4.488 4.011-4.488 4.64 0 2.843 3.4 3.316 4.264.594m-55.4-5.614c.702-1.136-.25-2.196-6.883-7.666l-6.048-4.988-9.686.27c-8.96.25-9.686.414-9.686 2.178 0 1.777.668 1.914 9.746 2.006l9.747.099 5.382 4.43c5.448 4.486 6.579 5.045 7.428 3.671zM92.85 45.33l4.983-4.256 9.9-.273c9.175-.253 9.902-.413 9.902-2.18 0-1.765-.726-1.928-9.673-2.178l-9.674-.271-6.776 5.963c-3.726 3.28-6.776 6.298-6.776 6.707 0 1.91 3.584.359 8.114-3.512m-28.284-1.355c1.953-1.238.902-4.358-1.586-4.712-3.147-.449-5.159 1.467-3.937 3.749 1.022 1.91 3.38 2.32 5.523.963m8.727-2.61c0-.766-.995-1.314-2.384-1.314-2.528 0-3.134 1.73-1.262 3.6 1.315 1.316 3.646-.145 3.646-2.286M55.68 42.87c.747-1.21-1.224-3.773-2.902-3.773-1.397 0-2.632 2.618-1.84 3.9.733 1.185 3.984 1.098 4.742-.127zm35.44-5.663 6.492-5.705 9.059-.033c9.588-.032 12.088-.76 11.135-3.243-.482-1.257-2.25-1.527-10.019-1.527h-9.432l-7 5.705c-7.32 5.967-9.017 7.984-8.042 9.56.852 1.38.752 1.442 7.807-4.759zm-50.426 3.098c-.175-.91-3.65-4.343-7.724-7.629l-7.407-5.975h-9.54c-7.718 0-9.647.28-10.104 1.471-.943 2.458.4 2.808 9.577 2.5l8.817-.297 4.704 3.746c2.587 2.06 5.522 4.666 6.52 5.791 2.235 2.517 5.616 2.774 5.157.392zm4.947-1.324c0-.46-.858-.837-1.907-.837-1.833 0-2.585 1.865-1.28 3.17.722.722 3.187-1.083 3.187-2.333m36.018.891c-.589-1.766-2.347-1.966-2.972-.338-.395 1.03.022 1.47 1.393 1.47 1.086 0 1.789-.503 1.579-1.132zM59.468 21.39c0-13.684-.164-15.196-1.67-15.486-1.533-.295-1.669.914-1.669 14.847 0 8.343.295 15.464.656 15.824 2.14 2.14 2.682-.926 2.682-15.185m8.599 13.656c.292-1.18.407-8.154.257-15.496-.229-11.11-.515-13.35-1.705-13.35-1.196 0-1.474 2.338-1.695 14.261-.146 7.844-.052 14.818.208 15.496.745 1.943 2.352 1.443 2.935-.911m-22.363-6.36-3.878-4.633v-8.718c0-7.115-.281-8.826-1.527-9.305-2.542-.975-3.325 1.675-3.038 10.271.264 7.927.396 8.349 4.007 12.874 5.202 6.52 6.458 7.46 7.492 5.612.593-1.06-.26-2.762-3.056-6.102M81.81 30.22l4.834-5.539v-9.55c0-8.581-.169-9.518-1.668-9.231-1.426.273-1.71 1.637-1.944 9.367l-.275 9.049-4.29 4.36c-3.026 3.075-4.104 4.842-3.66 6 .867 2.26 1.48 1.871 7.003-4.456m8.649.261 4.291-3.765.556-9.306c.621-10.383.372-11.915-1.868-11.487-1.285.246-1.595 1.932-1.819 9.903-.269 9.57-.283 9.62-3.576 12.811-3.038 2.945-4.323 5.75-2.59 5.65.393-.021 2.646-1.735 5.006-3.806m-52.061 1.132c.274-.444-.773-2.026-2.328-3.516-2.723-2.609-2.827-3.024-2.841-11.35-.016-9.346-.747-11.67-3.356-10.67-1.46.561-1.6 1.712-1.18 9.741.473 9.023.51 9.14 4.138 12.854 3.756 3.848 4.699 4.346 5.567 2.941m15.824-3.335c0-.706-.858-2.06-1.907-3.009-1.65-1.493-1.907-2.937-1.907-10.707 0-8.04-.175-8.948-1.669-8.662-1.428.273-1.708 1.642-1.94 9.493l-.272 9.174 2.967 2.497c3.296 2.773 4.728 3.14 4.728 1.214m22.925-3.558c.503-.94.915-5.399.915-9.908 0-6.637-.29-8.31-1.527-8.784-2.41-.925-2.954 1.114-2.48 9.308.402 6.925.244 7.848-1.69 9.906-2.775 2.955-1.737 4.86 1.494 2.742 1.306-.855 2.785-2.324 3.288-3.264M17.986 13.827c1.457-1.756-.233-4.291-2.861-4.291s-4.318 2.535-2.86 4.291c.652.787 1.94 1.43 2.86 1.43s2.208-.643 2.86-1.43m93.929-1.43c0-1.893-.541-2.447-2.628-2.687-2.818-.324-4.225 1.513-3.201 4.18.374.975 1.487 1.39 3.2 1.193 2.088-.24 2.629-.793 2.629-2.686"/></svg>