<?xml version="1.0" encoding="UTF-8" standalone="no"?>
<svg
   width="74.326042mm"
   height="70.311508mm"
   viewBox="0 0 74.326042 70.311508"
   version="1.1"
   xml:space="preserve"
   xmlns="http://www.w3.org/2000/svg"
   xmlns:svg="http://www.w3.org/2000/svg"><defs
     id="defs1" /><path
     style="fill:#000000"
     d="m 39.670016,69.570997 c -0.67178,-0.85403 -0.91157,-1.71815 -0.73422,-2.64589 0.10468,-0.5476 -0.20441,-1.14893 -1.45947,-2.83939 -1.57343,-2.11927 -2.24217,-3.24947 -2.02994,-3.43068 0.06,-0.0512 0.52305,-0.17221 1.02895,-0.26883 0.88123,-0.1683 1.00604,-0.0866 2.97456,1.94637 1.25826,1.29947 2.26572,2.12204 2.59904,2.12204 1.00023,0 2.05058,0.75157 2.35981,1.68855 0.42121,1.27628 0.11527,2.14912 -1.12559,3.21125 -1.39439,1.19354 -2.77936,1.27656 -3.61314,0.21658 z m -10.97638,-0.21095 c -1.58503,-0.42554 -2.00166,-0.94118 -2.00166,-2.47737 0,-1.01587 0.13434,-1.30098 0.99219,-2.10573 0.84467,-0.79239 1.18887,-1.5051 2.3151,-4.79374 1.43612,-4.19353 1.755,-4.56202 3.04433,-3.51798 l 0.62038,0.50235 -0.94714,3.89436 c -0.85309,3.50767 -0.91041,3.96478 -0.57722,4.60342 0.69693,1.33582 0.38239,2.86862 -0.78225,3.81202 -0.66502,0.53868 -0.93406,0.54703 -2.66373,0.0827 z M 1.3169254,68.245987 c -1.23189204,-1.2319 -1.64309504,-2.71223 -1.04793504,-3.77258 0.512276,-0.91268 1.60543204,-1.2729 2.65762204,-0.87574 0.70415,0.26579 0.925494,0.23644 1.545272,-0.20488 1.563674,-1.11344 10.3812636,-6.34651 10.6936976,-6.34651 0.416558,0 1.207643,0.8553 1.207643,1.30567 0,0.4524 -2.723284,2.50508 -9.2558836,6.97664 -1.406556,0.96279 -1.856616,1.42068 -1.856616,1.88892 0,0.92843 -0.805854,1.73187 -1.915225,1.90949 -0.893288,0.14302 -1.089947,0.0576 -2.028575,-0.88101 z m 14.8242366,0.60761 c -1.186131,-0.42912 -1.884604,-1.34133 -1.884604,-2.46131 0,-1.60232 0.775534,-2.56499 2.299155,-2.85395 0.49536,-0.0939 1.135455,-0.51151 1.549706,-1.01095 1.554179,-1.87379 4.668687,-4.95194 5.010427,-4.95194 0.4651,0 1.19488,0.72485 1.19488,1.18681 0,0.1954 -1.01203,1.72104 -2.24896,3.39033 -2.071382,2.79542 -2.248958,3.13308 -2.248958,4.2764 0,1.01922 -0.138384,1.37971 -0.773398,2.01473 -0.832667,0.83267 -1.477533,0.92387 -2.898248,0.40988 z m 29.600814,-6.71042 c -3.5807,-1.25583 -6.35066,-4.03735 -8.70985,-8.74618 l -0.83414,-1.6649 -0.74433,0.53001 c -0.40939,0.29151 -1.7552,0.82295 -2.99069,1.18099 -7.45691,2.16092 -20.51019,1.88039 -25.9608736,-0.55795 -1.786322,-0.7991 -3.380997,-2.45573 -3.840629,-3.98984 -0.221491,-0.73928 -0.311154,-5.07581 -0.311154,-15.04889 0,-12.11366 0.05772,-14.20489 0.426382,-15.44743 0.633704,-2.13584 1.590853,-3.86699 2.929048,-5.29763 l 1.194243,-1.27674 -0.555045,-0.77949 c -0.695627,-0.97692 -0.709791,-2.1495004 -0.03631,-3.0057004 0.415378,-0.52807 0.533998,-1.15464 0.595313,-3.14454 l 0.07657,-2.48506 1.204514,-0.5982 c 4.8735826,-2.42037005 21.0065716,-2.41402005 25.9152716,0.0102 l 1.19063,0.58801 0.0766,2.48506 c 0.0613,1.9899 0.17993,2.61647 0.59531,3.14454 0.70334,0.89415 0.65195,1.90547 -0.15743,3.0981604 -0.61363,1.26833 -1.84422,1.4821 -3.08391,1.96159 -0.81222,0.27944 -2.64995,0.71109 -4.08386,0.95921 -5.1153,0.88516 -15.595124,0.42266 -18.567901,-0.81945 -1.4053296,-0.58718 -1.7625356,-0.47483 -3.0526946,0.96013 -1.354328,1.50634 -2.413835,3.55689 -2.822569,5.46275 -0.176235,0.82176 -0.248053,6.1865 -0.199756,14.92163 l 0.07541,13.63858 0.746369,1.12752 c 1.609547,2.43149 7.5110946,3.9842 15.1667426,3.9904 6.643329,0.005 15.065899,-1.62548 15.601369,-3.02088 0.31053,-0.80923 -0.18723,-0.93609 -1.16628,-0.29724 -3.45583,2.25502 -17.029373,2.84993 -24.049254,1.05404 -2.5734596,-0.65836 -3.8407156,-1.43279 -4.5130086,-2.75791 -0.578381,-1.14001 -0.595313,-1.40102 -0.595313,-9.17681 0,-7.85914 0.0103,-8.01301 0.571229,-8.5356 1.513801,-1.41032 5.6252646,-2.13161 13.1998036,-2.3157 8.005063,-0.19456 13.316163,0.38076 16.148673,1.74928 0.62476,0.30185 1.18513,0.54882 1.24526,0.54882 0.0601,0 0.0558,-2.47055 -0.01,-5.4901 -0.13559,-6.26041 -0.36229,-7.31997 -2.03605,-9.51607 -0.59933,-0.78637 -0.93777,-1.45065 -0.78667,-1.54404 0.53731,-0.33208 2.07282,1.22786 2.93837,2.98513 l 0.87583,1.77812 0.0771,8.01015 c 0.0424,4.40558 0.19752,8.08206 0.28972,8.01014 1.33742,-1.04318 3.53294,-3.03383 8.3028,-1.4834 l 2.17827,0.70804 1.5734,-0.6407 c 1.34933,-0.54945 1.62089,-0.77784 1.90679,-1.60365 0.77095,-2.22682 2.92586,-4.36175 5.40454,-5.35444 1.6039,-0.64235 4.47868,-0.63107 6.25295,0.0245 2.96644,1.09611 6.22726,4.29253 8.26144,8.09829 0.43169,0.80765 1.16162,2.59291 1.62207,3.96725 1.07729,3.21549 1.36959,7.82555 0.6703,10.57158 -0.90504,3.55395 -2.58405,5.82012 -5.27849,7.12439 -2.26374,1.09579 -5.79884,0.4402 -8.65892,-1.6058 -0.32507,-0.23255 -0.7739,-0.13785 -2.04043,0.43054 -1.38358,0.62092 -1.67031,0.87071 -1.93897,1.68925 -0.69576,2.11973 -2.63554,4.35848 -4.61707,5.32868 -1.31926,0.64593 -3.93294,0.67697 -5.67115,0.0673 z m 5.53481,-0.98477 c 1.26621,-0.65478 2.44791,-2.03285 3.29777,-3.84578 0.73692,-1.57199 0.81593,-2.00889 0.90949,-5.02885 0.13175,-4.25276 -0.45791,-6.93197 -2.38225,-10.82407 -2.19561,-4.44077 -5.20719,-7.00329 -9.06967,-7.71731 -1.14581,-0.21182 -1.74093,-0.17864 -2.91424,0.16245 -3.32669,0.96709 -5.3807,3.81546 -5.56903,7.72275 l -0.0992,2.05723 0.23168,-1.80858 c 0.75155,-5.86705 4.62242,-8.82254 9.44756,-7.2134 3.68287,1.2282 7.35909,5.96852 8.86244,11.42773 0.79508,2.88724 0.85459,8.54502 0.11231,10.6778 -1.05085,3.01937 -3.91758,5.01578 -6.72627,4.68424 -0.92188,-0.10882 -1.06944,-0.0847 -0.57711,0.0942 0.89426,0.32499 3.54103,0.0953 4.47648,-0.38839 z m -3.94842,-7.5099 c 2.04022,-2.04022 1.53092,-6.84944 -1.01477,-9.58221 -2.0025,-2.14966 -3.92726,-2.22264 -5.26601,-0.19966 -1.77169,2.67721 -0.29423,8.21593 2.67451,10.02618 1.25459,0.76501 2.6945,0.66746 3.60627,-0.24431 z m -3.30618,-0.87974 c -2.39274,-1.32337 -3.62964,-4.69262 -2.65737,-7.23849 0.24997,-0.65452 0.69478,-1.31864 0.98847,-1.47582 1.32701,-0.71019 3.49202,0.6194 4.4518,2.73398 0.63173,1.39182 0.68899,3.88039 0.11484,4.99068 -0.59006,1.14106 -1.84752,1.57051 -2.89774,0.98965 z m 26.55267,1.05899 c 3.13972,-3.21138 3.59756,-10.68455 1.03307,-16.86273 -1.69425,-4.08167 -4.79679,-7.75043 -7.72623,-9.13628 -1.91491,-0.9059 -2.50764,-0.86352 -0.74042,0.0529 6.0769,3.15142 10.39928,12.42308 9.34047,20.03564 -0.35695,2.5664 -1.1975,4.46419 -2.70513,6.10762 -1.26036,1.37389 -0.57138,1.20369 0.79824,-0.19719 z m -12.75895,-0.99375 c 0.57219,-1.34909 0.563,-5.27288 -0.0174,-7.42939 -0.96785,-3.59614 -3.09366,-6.90227 -5.50668,-8.56418 -1.72465,-1.18781 -1.99234,-1.21579 -0.96563,-0.10093 2.1474,2.33179 3.79289,5.58018 4.86196,9.59809 0.58235,2.18869 0.68445,3.07068 0.61603,5.32163 -0.0668,2.19898 -0.018,2.64483 0.264,2.41001 0.19031,-0.15847 0.52678,-0.71432 0.74771,-1.23523 z m 2.93351,-1.31086 c 1.36746,-3.27279 0.63569,-8.77401 -1.64202,-12.3443 -1.02977,-1.61414 -2.92509,-3.32598 -4.59122,-4.14675 -1.34525,-0.6627 -4.0498,-0.80772 -4.61031,-0.24721 -0.22491,0.22491 -0.167,0.30098 0.22916,0.30098 1.07997,0 3.27947,1.38735 4.83385,3.04899 3.69752,3.95266 5.50656,11.0258 3.85211,15.06134 -0.19208,0.46853 -0.13182,0.45891 0.66079,-0.10547 0.47968,-0.34157 1.05012,-1.04698 1.26764,-1.56758 z m 2.46617,0.0249 c 1.46723,-1.86528 1.73322,-7.09979 0.54072,-10.6414 -1.54764,-4.59639 -5.22138,-7.92337 -8.75392,-7.92764 -2.09976,-0.003 -2.42013,0.33288 -0.87448,0.91553 3.58212,1.35035 6.15699,4.35571 7.78442,9.08591 0.97501,2.83391 0.91288,6.50457 -0.15378,9.08554 -0.28479,0.68912 0.81512,0.29813 1.45704,-0.51794 z m 2.25317,0.46163 c 1.60751,-0.99349 3.01336,-4.40825 3.02347,-7.34387 0.0168,-4.88013 -2.90869,-10.43934 -6.53798,-12.42385 -1.81461,-0.99224 -3.90647,-1.24738 -5.06673,-0.61798 -0.61283,0.33243 -0.59196,0.35571 0.84095,0.93809 3.69007,1.49975 6.29871,5.10909 7.65068,10.58554 0.51705,2.09442 0.5428,2.53654 0.27249,4.67812 -0.20155,1.59676 -0.51256,2.74802 -0.95735,3.54384 -0.72592,1.29881 -0.53998,1.45249 0.77447,0.64011 z m -36.22109,-18.39141 c 3.02246,-0.44879 6.04768,-1.28649 6.33709,-1.75477 0.29335,-0.47465 -0.55042,-0.91118 -2.88286,-1.49146 -6.57813,-1.63654 -19.130218,-1.41682 -24.6240116,0.43103 -0.729768,0.24546 -1.375,0.59681 -1.43385,0.78078 -0.233001,0.72839 4.6839496,1.98166 9.5968986,2.44612 3.169619,0.29965 9.583263,0.0966 13.006733,-0.4117 z m 0.86647,-21.25596 c 3.22067,-0.6948 4.88234,-1.52364 4.99593,-2.4919604 0.0974,-0.82989 0.0243,-0.85155 -1.03129,-0.30569 -2.54919,1.3182404 -8.89933,2.1148204 -14.927426,1.8725604 -4.609053,-0.18524 -7.373505,-0.59475 -10.0680326,-1.4914304 -1.811335,-0.60278 -2.278662,-0.54687 -1.80349,0.2157404 0.703977,1.12982 3.5180086,2.1051 7.7704806,2.69307 3.043372,0.4208 12.221668,0.12084 15.063828,-0.49229 z m -1.60403,-3.0934304 c 1.54664,-0.22931 3.46692,-0.67596 4.26728,-0.99256 l 1.45521,-0.57563 0.0788,-1.65327 c 0.0761,-1.59655 -0.0806,-1.94245 -0.63075,-1.39232 -0.4848,0.48479 -4.19064,1.26514 -7.58333,1.59684 -1.90126,0.18588 -5.13544,0.27618 -7.412745,0.20697 l -4.039927,-0.12279 v 1.53027 1.53026 l 0.930451,0.10011 c 2.705574,0.29109 10.342201,0.15655 12.935041,-0.22788 z m -15.841048,-1.82693 c 0,-1.36693 -0.04176,-1.45932 -0.727604,-1.60972 -0.400182,-0.0877 -1.399735,-0.37566 -2.2212276,-0.63978 l -1.493624,-0.48024 -0.160022,0.80011 c -0.215404,1.07702 -0.195966,1.59048 0.07649,2.02052 0.280001,0.44194 2.8022566,1.33882 3.7983846,1.35064 0.7063,0.008 0.727604,-0.0338 0.727604,-1.44153 z" /></svg>
