<?xml version="1.0" encoding="UTF-8" standalone="no"?>
<svg
   width="76.402405mm"
   height="98.406013mm"
   viewBox="0 0 76.402405 98.406013"
   version="1.1"
   xml:space="preserve"
   xmlns="http://www.w3.org/2000/svg"
   xmlns:svg="http://www.w3.org/2000/svg"><path
     style="fill:#000000"
     d="m 27.613885,98.243842 c -8.922435,-0.91429 -18.4794841,-1.36723 -26.3084281,-6.15889 -1.45369701,-3.61567 -1.78661901,-9.25244 1.690401,-11.95414 2.739344,-0.75813 5.776077,-1.86811 4.156604,-4.92903 1.415369,-2.60291 -0.692819,-4.41486 0.393133,-6.94103 -1.321037,-2.97988 1.2697,-4.95346 -0.705403,-7.77129 0.671698,-2.75211 0.386469,-6.05219 0.640068,-9.32956 -0.103612,-2.11253 -0.05525,-4.94041 -0.459586,-7.51459 1.669419,-2.20326 -0.912176,-5.59522 0.285614,-8.69146 0.313708,-3.4821 -0.454158,-6.96932 0.02943,-10.51518 -0.579737,-2.66886 -0.09152,-4.29503 -3.352862,-4.77249 -4.995851,-1.61254 -4.21502301,-7.75844 -3.33111201,-11.7750101 2.01457101,-4.6311 8.09135301,-4.08018 12.19725811,-5.59096 14.403497,-2.91231002 29.300504,-2.77840002 43.852482,-1.15491 6.131371,0.89028 12.651774,1.69449 17.982834,5.03514 2.31902,3.55529 2.75584,10.7889901 -1.64498,12.8723801 -5.25301,1.2875 -5.45104,6.85628 -4.01894,10.90189 -1.95868,2.64191 0.41282,6.15094 -0.25878,8.80118 0.0694,3.72607 -0.39046,6.82916 -0.2105,10.11773 1.59164,3.06677 -1.46362,5.40199 0.37335,8.62941 -1.0711,2.09056 1.10059,4.79124 -0.66502,7.42108 0.84618,2.35657 0.74278,4.15284 -0.038,6.61121 1.75106,2.62884 -1.29725,8.50585 4.29694,8.28461 4.43633,2.12481 4.86067,10.06883 1.27777,13.02702 -4.75455,2.73247 -10.38371,3.45976 -15.717143,4.42466 -10.085899,1.45574 -20.309037,1.1677 -30.46511,0.97223 z m 20.618002,-6.74062 c 8.463222,-0.64922 21.555541,-1.18101 24.758041,-6.53886 -6.76623,1.7617 -13.441826,3.08071 -20.630463,3.25004 -11.583842,0.21282 -23.595137,0.30689 -35.112952,-0.90292 -4.941371,-0.49318 -9.7033951,-1.97847 -14.3572261,-3.58215 0.483076,2.96364 5.639067,4.2944 8.5788891,5.2386 11.846317,2.76639 24.653111,2.97778 36.763711,2.53529 z m -2.494044,-9.56643 c 6.814802,-1.02045 13.694476,-2.69661 19.622785,-6.33885 -2.786857,-1.11959 -7.547707,2.58218 -11.318285,2.51085 -5.975097,1.19494 -12.118516,1.50319 -18.188967,1.00956 -1.73605,-0.38617 -6.452222,-3.06414 -1.807783,-2.52247 10.527118,0.046 21.347476,-1.48978 30.739362,-6.49694 0.386723,-2.50981 -4.869886,1.56683 -6.663063,1.44622 -13.877506,4.44502 -28.897013,3.98416 -43.066297,1.31312 -2.412983,-0.75464 -5.9908691,-1.25758 -2.234737,1.06187 4.508732,1.98454 9.327024,3.30703 14.094456,4.5495 2.341887,0.38166 9.041883,2.2748 3.281548,1.65416 -5.934268,-0.51606 -11.874009,-1.62384 -17.567421,-3.25961 -5.2484471,0.50755 1.644826,4.33673 3.868826,4.20645 9.510296,2.39848 19.576545,1.85282 29.239576,0.86614 z m -2.662744,-10.91138 c 7.700976,-1.05345 15.589383,-2.66855 22.220209,-6.93618 -3.651341,-1.03795 -7.540216,2.54821 -11.543128,2.33522 -6.767014,1.14157 -13.79701,1.04503 -20.449415,-0.7232 10.787807,-0.37495 22.039603,-1.36647 31.610802,-6.80847 1.897081,-2.99678 -4.483939,1.10061 -5.898957,1.23052 -14.647914,4.89239 -30.717122,4.91047 -45.628856,1.23898 -3.7942051,-1.87114 -2.955846,1.35989 0.08566,1.82709 7.473153,3.20435 15.583892,4.56285 23.580098,5.56609 -3.179279,1.00591 -8.577293,0.14719 -12.521749,-0.14508 -4.351037,-0.0406 -10.457061,-2.55872 -13.602966,-1.68135 2.282427,4.05949 8.26287,2.91189 12.21959,4.17958 6.616419,0.80781 13.307082,0.47333 19.928707,-0.0832 z m -0.644548,-10.94995 c 7.962614,-1.12978 16.105571,-2.89782 22.920207,-7.38083 -3.549168,-0.92974 -7.331797,2.77518 -11.26805,2.62437 -8.007855,1.68898 -16.439345,1.92602 -24.391868,-0.17239 -1.769384,-1.73947 4.647095,-0.0101 5.952139,-0.55695 9.232845,-0.14108 18.42426,-2.1221 27.02338,-5.39574 1.741878,-0.56576 4.288109,-3.54901 0.705121,-1.84651 -14.61442,6.07643 -31.073849,6.76829 -46.496024,3.99368 -1.886339,-1.29369 -9.0174221,-1.83368 -3.959051,0.57075 6.221744,3.32545 13.343614,4.32265 20.071539,6.01527 -3.238283,0.74601 -7.297835,-0.31181 -10.798253,-0.6839 -3.688547,-0.20814 -8.156096,-2.3343 -11.292387,-1.64993 1.321479,3.95305 7.54369,3.10334 11.019855,4.30818 6.797796,0.96716 13.688145,0.5585 20.513392,0.174 z m -2.910416,-10.86671 c 8.721816,-0.79313 17.630555,-2.48285 25.226411,-7.06296 0.882922,-2.14314 -4.423578,1.44892 -5.888681,1.25021 -9.422498,2.65176 -19.778404,3.76511 -29.156814,0.46617 1.911218,-1.11965 6.142808,-0.12677 8.921903,-0.64604 8.678089,-0.50289 17.401617,-2.22461 25.253851,-6.0592 3.350943,-3.60788 -5.250505,1.1842 -6.990581,1.30927 -13.672264,4.02466 -28.434368,4.23896 -42.29741,1.14561 -2.031118,-1.04415 -5.9602181,-0.53824 -2.012199,1.08879 6.784595,3.35304 14.325761,4.55525 21.642849,6.18932 -4.963962,0.82193 -9.989916,-0.60935 -14.910909,-1.23573 -2.388244,0.26253 -8.524036,-3.60847 -8.30409,-0.001 3.514951,2.50517 8.162933,2.73014 12.319082,3.44333 5.381357,0.57407 10.802415,0.32628 16.196588,0.11264 z m 4.365625,-11.75443 c 7.208555,-1.10172 14.293327,-3.20986 20.799103,-6.52916 -1.088445,-2.23083 -6.152832,1.95066 -8.747521,1.53523 -7.741675,1.82334 -16.212793,3.0322 -23.776925,-0.15464 6.831187,-0.50546 13.727894,-0.54877 20.406762,-2.27523 4.500606,-0.96801 9.042423,-2.34945 12.797149,-5.10555 -3.754214,-0.66168 -7.533439,3.38767 -11.693881,3.32829 -13.319275,3.25541 -27.229078,2.30946 -40.599364,-0.0872 -5.5943751,-1.82766 1.418224,3.25878 3.899443,2.95224 4.81129,1.57789 9.768325,2.52538 14.660738,3.76624 1.962945,1.69373 -4.363813,0.37432 -5.772955,0.50189 -4.852207,-0.45862 -9.645608,-1.36238 -14.452067,-2.14473 -1.9861951,2.82212 5.311221,3.19892 7.302443,3.90106 8.307606,1.5179 16.810869,0.852 25.177075,0.31156 z m -3.955493,-11.00379 c 3.852468,-0.3477 11.24727,-1.23241 12.728713,-2.22144 -13.914051,1.25618 -28.091761,1.31745 -41.798508,-1.69039 2.335546,4.30614 8.532526,2.77225 12.62966,3.92193 5.471521,0.42255 10.964634,0.20233 16.440135,-0.0101 z m 14.803409,-9.8916 c 6.557615,-1.02035 13.517222,-1.90706 19.037622,-5.91251 -15.157926,2.10502 -31.843327,3.9213 -47.883708,2.91171 -6.818458,-0.61347 -13.11001,-1.51548 -19.5581121,-3.8684701 -1.618177,-2.27495 -6.66984101,-0.16772 -2.927276,1.7208001 8.3144731,4.04624 17.7401001,4.94929 26.8391371,5.58863 8.164555,0.29023 16.341498,0.0871 24.492337,-0.44016 z M 22.189927,8.7803819 c -0.364346,-1.73623 5.900948,-1.76998 8.422337,-2.42198 8.188494,-0.299 13.966766,-0.81543 21.903437,1.55341 1.547654,1.09575 0.975922,1.99545 3.973894,0.58163 1.511246,-4.11234 -6.729667,-3.70088 -9.471636,-4.21732 -8.667789,-0.9059 -17.573114,-0.72222 -25.998292,1.66852 -2.098986,0.77394 -0.816866,3.58263 1.17026,2.83575 z" /></svg>
