<?xml version="1.0" encoding="UTF-8" standalone="no"?>
<svg
   width="50.442638mm"
   height="100.61085mm"
   viewBox="0 0 50.442638 100.61085"
   version="1.1"
   xml:space="preserve"
   xmlns="http://www.w3.org/2000/svg"
   xmlns:svg="http://www.w3.org/2000/svg"><path
     style="fill:#000000"
     d="M 19.175655,100.23809 C 13.066849,98.912807 7.6700748,95.604387 4.3965998,91.177987 1.3170858,87.013867 -0.00435422,83.020807 1.0776368e-5,77.892607 0.00331078,73.992737 0.57293778,71.397077 2.1664848,68.020137 c 1.635295,-3.46542 3.914991,-6.23887 10.7738002,-13.10729 3.538861,-3.54382 6.49584,-6.6037 6.57106,-6.79973 0.0805,-0.20979 -0.23407,-0.58561 -0.76469,-0.91355 -1.768517,-1.093 -3.142844,-3.25727 -3.584083,-5.64415 -0.675307,-3.65308 1.481635,-7.68221 4.928903,-9.20709 l 1.17096,-0.51797 v -4.58238 -4.58238 l -1.57678,-0.57492 c -3.795291,-1.38383 -6.52106,-4.73854 -7.234545,-8.90383 -0.807068,-4.7116301 1.904997,-9.9269201 6.237467,-11.9946101 5.860398,-2.79691 12.640448,-0.51629002 15.468088,5.20305 0.9705,1.96299 0.99639,2.09134 0.99639,4.9401901 0,3.68855 -0.56055,5.25683 -2.708,7.57633 -1.58444,1.71139 -2.98187,2.65126 -4.9279,3.31433 l -1.22764,0.4183 v 4.56011 4.56011 l 1.30311,0.61035 c 1.55003,0.726 3.17955,2.33351 4.03249,3.97802 0.52708,1.01626 0.61719,1.57812 0.61521,3.83646 -0.003,3.23195 -0.44754,4.24173 -2.9132,6.61458 -2.43656,2.34486 -10.39275,14.38591 -12.587382,19.05 -3.634179,7.72345 -2.97148,14.93269 1.842068,20.03913 3.900574,4.13792 9.889384,5.55165 14.459084,3.41323 3.02284,-1.41456 5.25785,-4.06041 6.0879,-7.20699 0.18809,-0.71302 0.31,-1.29641 0.27091,-1.29641 -0.0391,0 -0.95106,0.40368 -2.02658,0.89706 -2.38189,1.09267 -4.13424,1.44583 -4.35245,0.87718 -0.082,-0.21381 0.35374,-1.20649 0.96841,-2.20597 2.47252,-4.02037 4.99125,-10.68704 7.10913,-18.81671 0.46475,-1.78396 0.91653,-1.40109 1.71713,1.45521 2.0896,7.45516 4.45201,13.8716 6.53913,17.76069 1.04913,1.95491 1.25553,2.52913 0.97335,2.70793 -0.46771,0.29638 -0.44699,0.29799 -1.96373,-0.15258 -0.71763,-0.21319 -1.87447,-0.74897 -2.57075,-1.19063 -0.69628,-0.44166 -1.30371,-0.80301 -1.34985,-0.80301 -0.0461,0 -0.1571,0.94947 -0.24659,2.10994 -0.17868,2.31703 -1.13473,5.48907 -2.22614,7.38599 -2.98444,5.18713 -7.09819,8.18745 -12.91541,9.419733 -2.30484,0.48824 -7.60833,0.483 -9.8797,-0.01 z M 4.8980398,78.393257 c -0.07745,-2.79266 3.47e-4,-3.67431 0.477809,-5.41467 0.683395,-2.491 1.835592,-4.73316 3.269183,-6.36181 l 1.054702,-1.1982 -0.573839,-0.57384 -0.573839,-0.57384 -0.656889,0.79159 c -1.390801,1.67599 -3.032249,4.58326 -3.733377,6.61242 -0.653884,1.89242 -0.732815,2.49507 -0.74505,5.68854 -0.0154,4.01877 0.106531,4.57398 0.977321,4.45033 0.588624,-0.0836 0.595274,-0.12872 0.503979,-3.42052 z m 7.6082192,-16.26849 c 0.01371,-0.15935 -0.190483,-0.48466 -0.453755,-0.72292 -0.449531,-0.40682 -0.5491,-0.36144 -1.635262,0.74528 -1.1326632,1.1541 -1.1465762,1.18953 -0.6726612,1.7132 0.4821882,0.53282 0.4879692,0.53118 1.6103402,-0.45555 0.619529,-0.54466 1.137631,-1.12066 1.151338,-1.28001 z m 7.280886,-17.48044 c 0.1053,-0.27441 -0.071,-0.69753 -0.46853,-1.12448 -0.990652,-1.06396 -1.284793,-1.8247 -1.325685,-3.42861 -0.03119,-1.22339 -0.124676,-1.49899 -0.535253,-1.57794 -1.004102,-0.19309 -1.241597,1.30696 -0.561482,3.5464 0.679592,2.23771 2.4252,3.79835 2.89095,2.58463 z m 5.2541,-1.5079 c 1.17092,-0.4956 1.8111,-1.28725 2.03614,-2.5179 0.44105,-2.41194 -1.70208,-4.36333 -4.07308,-3.70866 -2.89685,0.79986 -3.10556,4.99326 -0.30911,6.21083 1.04133,0.45339 1.30777,0.45518 2.34605,0.0157 z m 1.19062,-25.71402 c 1.29769,-0.54061 2.91102,-2.10983 3.52296,-3.42667 0.60934,-1.31122 0.65399,-3.75706 0.0932,-5.1017201 -0.9837,-2.35852 -3.30511,-3.87353 -5.93971,-3.87642 -1.96466,-0.002 -3.31432,0.53614 -4.62139,1.84321 -2.541169,2.54117 -2.525992,6.7463401 0.0331,9.1698601 1.75173,1.65893 4.79808,2.27233 6.91189,1.39174 z" /></svg>
