<svg xmlns="http://www.w3.org/2000/svg" xml:space="preserve" width="417.813" height="436.481" viewBox="0 0 110.546 115.486"><path d="M38.465 115.316c-9.63-.92-15.278-.946-24.43-4.378-5.944-2.229-12.487-10.79-12.442-16.993-.4-16.404.093-32.82.438-49.223 1.61-3.49 2.885-8.57 5.065-11.716C3.182 30.636.018 31.517 0 25.498c1.13-5.267-.52-10.708.712-16.02C4.606 4.342 12.776 4.652 18.636 2.83 36.568-.736 54.962-.15 73.132.453c12.067.95 24.34 2.556 35.535 7.39 2.86 4.836.93 11.051 1.716 16.442.912 5.776-2.103 7.181-6.253 8.482-5.826 1.516 3.516 7.395 2.996 11.37.68 11.778.407 23.619.653 35.422-.323 8.232-.512 21.014-6.822 27.533-6.984 6.426-18.862 6.742-27.781 7.884-10.108.705-20.27.475-30.395.467m30.548-5.08c8.614-1.134 18.313-1.467 25.19-7.442 5.772-5.787 4.267-14.65 4.725-22.054-.004-12.248-.092-24.518-.647-36.746-1.771-4.662-5.03-11.876-10.79-7.67-25.015 3.46-50.575 3.486-75.527-.505-5.077-4.085-7.037 3.421-9.3 7.026-.82 3.052-.263 6.44-.583 9.609-.197 14.092-.648 28.21-.068 42.293.285 6.464 5.76 11.254 11.79 12.56 17.994 4.508 36.842 3.635 55.21 2.929m-29.5-1.67c-8.63-.842-17.6-.835-25.799-3.932-5.447-2.975-7.645-9.44-7.2-15.347-.011-13.87-.184-27.758.32-41.618-.254-3.695 2.551-4.74 1.51-.309-.12 5.338.5 10.762.134 15.927.368 5.79-1.186 11.744.634 17.286-.62 3.424.846 6.382-.036 9.57-.3 3.241 1.328 7.902 2.118 10.443 3.813 3.2 8.718 4.355 14.613 5.394 18.717 2.142 37.913 2.254 56.394-1.724 3.297.046 11.892-7.116 6.45-.96-5.911 4.204-13.673 3.746-20.56 4.777-9.495.817-19.06.672-28.58.492m50.536-10.784c1.435-5.386 3.017.007 0 0m2.385-1.521c.808-2.022.21 1.153 0 0m-.053-2.523c-1.79-3.764-.928-8.026-.493-11.502-1.89-4.153.097-9.154.32-13.582-.511-3.688.557-9.673.61-11.495-1.615-1.013.42-11.587 1.003-4.871.06 13.564.103 27.136-.276 40.694.055.605-.602 1.683-1.164.756m1.024-3.115c.567-4.686-2.616 2.393-.057 1.547l.09-.504zM29.673 40.43c-3.693-.689-9.1-.22-11.78-1.445 5.627-.156 11.313.86 16.918 1.52-1.703.16-3.434.018-5.138-.075m49.477-.372c4.159-.195 11.944-2.614 14.122-.703-4.337.106-12.107 1.333-14.122.703m-9.464-7.976c7.483-.73 13.673-1.744 21.035-3.297-22.25 2.603-44.796 2.617-67.078.262-1.054.65 7.41 2.073 10.07 2.442 11.45 1.462 22.996 1.48 34.505.852m23.83-3.81c-1.646-.263-.02.457 0 0m-30.757-15.19c2.547-1.01-5.861-.916-7.31-.245-2.343-1.462-6.963 1.082-1.77 1.007 2.884.13 6.112-.03 8.994-.156m-12.23-1.15c-1.646-.839-10.485.907-4.072 1.036 1.194-.038 2.962-.477 4.072-1.036m16.592.663c4.319-.877-2.618-.779-1.617-.135zm-24.252-.893c-1.043-.704-4.215 1.17-1.39.609z"/></svg>