<svg xmlns="http://www.w3.org/2000/svg" xml:space="preserve" width="460.509" height="347.772" viewBox="0 0 121.843 92.015"><path d="M108.902 0q-1.809.209-2.827 2.357-.728 1.784-.04 3.137l.563.834q-2.189 1.251-2.694 3.509-.43 2.048.631 3.458l.43.55q-3.264 2.908-5.067 8.08l-3.14 10.355q-2.32.1-4.507 1.352-3.447 1.895-5.718 6.188c-.7 1.325-1.482 3.226-2.338 5.649l-1.412-1.236q-3.3-2.709-4.428-11.091a49.4 49.4 0 0 1-.35-8.78l-.372-1.057q-.828-1.189-3.212-1.584-2.401-.21-5.068 5.793l2.136 1.117q1.374-.81 3.193.745.96.736 1.14 1.869.288.956-.23 1.562-.527.698-1.711.409-.915-.173-1.86-1.094l-1.131-1.96-2.128-1.21-.624 1.806q-.274 1-1.214 1.105-1.132.18-1.622-.608l-.943-.92 1.151 2.8q1.092.282 2.064 1.949l.284 2.072q-.281 1.093-.953 1.313l-1.654-.238q-.791-.534-1.349-1.607-.778-1.744-.018-2.98l-1.472-3.387q-1.354 1.65-2.032 5.128-.366.992-1.514 1.357-1.302-.02-1.759-1.178L56 33.327l-1.628 2.65q1.733 1.454.974 2.69-.341.716-1.273.727l-2.1-.463q-1.153-.66-1.634-1.539-.474-.972-.14-1.595.759-1.237 2.751-.597l1.753-3.011-.176-.109-1.033.096-.377.06q-.612.599-1.426.34l-1.137-.843-1.38-3.379q-.489-.787.138-1.57.535-.79 1.458-.71a10 10 0 0 0 5.528-1.47l-3.14-2.417q-1.17 1.666-3.025 1.597l-1.654-.238-1.707 6.739.068.285.285 2.072q-.098 1.11-.86 1.322l-1.47-.222-1.35-1.607q-.556-1.073-.46-2.181.08-.924.86-1.322.686-.404 1.478.13l1.71-5.714q-2.136-1.117-4.023-2.958l-2.428-3.098q-.228-.578-1.598-.885l-2.526.151q-2.651.513-5.636 1.648-3.63 1.474-5.011 3.288a5 5 0 0 0-.35.526q-.86 1.32-.46 3.124l4.118 6.13 6.253 9.39 10.695 14.99 8.728-.818q15.3-1.453 19.904 9.746l2.407-3.047-.051-.47q-1.364-3.562-5.05-6.12l-3.28-1.869 2.43-1.183 1.141-.273q1.2.105 2.75 1.544l-2.475-4.684 3.847.708q2.829 4.902 3.45 7.377.606-.787 1.456-1.617c-1.857 6.486-3.965 14.75-6.342 24.912q-.43 1.183.278 2.7 2.079 4.46 13.597 7.864 11.45 3.38 16.04.719 1.38-.76 1.86-2.08l5.664-17.076q5.456-17.152 5.887-22.665.412-4.81-1.483-8.258-1.157-2.232-3.11-3.573l2.835-10.387q1.335-5.184.098-9.573l.778-.189q1.467-.569 2.226-2.655.88-2.2-.397-4.318l.949-.443q1.31-.783 1.594-2.648.323-2.403-1.656-3.674-1.15-.734-4.103-1.494L112.347.703zM16.673 2.283a8.6 8.6 0 0 0-2.182.14q-2.542.337-5.548 2.773 6.85 4.695 13.141 15.762l.45-.89q2.621-4.425 11.386-6.73-1.645-2.471-10.084-8.142-3.813-2.707-7.163-2.913m92.468.088 2.49.513 3.832 1.158 3.32 1.05q.897.563.777 1.544l-.52.992q-.834.562-2.086.107-.93-.26-1.328.62-.494.922.405 1.485l1.175.664q1.05 1.013.543 2.403-.252.696-5.798 3.166-.747.753-.229 1.492l1.84 2.087q1.75 2.763.782 6.507l-2.494 9.015-.646 2.206q-.19.954.664 1.423l2.307 2.1q2.213 3.01 1.844 7.916l-1.07 5.754q-7.714 1.287-11.318.37l-6.094-3.164q-3.552-1.923-4.558-1.108l-4.216 14.61-3.013 13.473 2.636 2.062q3.59 2.253 8.301 2.943 5.855.792 9.243.136l-.885 2.434q-.55 1.296-2.859 1.794-3.812.74-11.058-1.425-9.035-2.66-12.68-8.869l-.26-.803-.012-.398.025-.07 3.716-15.186 3.185-9.781 1.35-4.148 2.135-6.56q2.34-4.268 7.096-5.214l4.451-.113.658-.075a1 1 0 0 0 .582-.734l.07-3.44q.28-4.23 1.558-8.174l3.422-7.023 2.088-2.706.594-1.201-1.352-.177q-1.264.012-1.113-.406.272-1.396 2.119-3.009l1.872-1.68q.076-1.076-.879-1.266-1.232-.29-1.63-1.144-.273-.335.031-1.17.45-1.017.987-.98M3.371 6.105l-3.357.078q-.273 1 4.678 10.369l2.435 5.146q5.087 9.939 25.014 28.995l5.206 5.388 2.421-4.255-1.975-2.965-4.908-6.666Q23.577 30.49 19.244 22.572 13.619 12.4 3.372 6.105m48.77 2.821q-.801.002-1.647.092-4.884.502-6.54 2.406 3.89 1.27 6.625 3l11.772.564-1.14-1.868q-3.46-4.212-9.07-4.194m.417 7.345 1.003 1.298 7.297 2.78 1.986-3.55-.176-.109zm1.489 3.202-.097 1.109 3.83 3.034 1.933-1.878zm48.578 16.596-.17.253q-.133.582.707 1.518.91.96 2.327 1.397t2.712.121q1.227-.34 1.36-.923l.031-.303-1.132-.57-2.23-.575-2.252-.74zm-5.57 18.764a28 28 0 0 0 3.184 1.1 27 27 0 0 0-1.6-.5 28 28 0 0 1-1.584-.6m-55.454.504-2.778 5.155q7.315 5.76 10.984 10.641l3.696 5.629q3.084 6.227 1.786 9.371 3.555-1.271 5.328-5.584-.36-2.265-3.125-5.764l-5.243-6.044-2.552-2.736-5.399-7.454-.698-.527zm16.56 2.407q-1.437.009-3.01.174l-6.932.511 3.997 5.376 2.468 2.636 4.946 5.18q2.453 2.82 3.335 5.504 3.077-1.127 5.585-4.259 2.09-2.61 2.987-5.416l-.314-.679q-.22-.67.322-1.554-3.33-7.539-13.385-7.473m-20.375 6.102-1.618 5.721q2.419 5.331 11.186 13.638l2.433 1.982 2.334-.075q.744-1.052-.629-4.524-1.44-3.756-4.281-7.448-3.34-4.388-9.425-9.294m66.963 15.68-.083.006z"/></svg>