<svg xmlns="http://www.w3.org/2000/svg" xml:space="preserve" width="466.814" height="330.541" viewBox="0 0 123.511 87.456"><path d="M96.164 0c-2.52.518-4.862 1.662-7.244 2.603C73.636 9.1 58.349 15.62 43.142 22.297c-11.613 5-23.192 10.079-34.835 15.004-2.45 1.06-4.992 1.91-7.397 3.067-1.042.446-.633 1.72-.701 2.599v2.295c8.483 5.442 17.071 10.772 25.443 16.346 1.344.757 2.599 1.945 4.211 2.019 2.07-.196 3.904-1.31 5.777-2.126 6.975-3.347 14.13-6.3 21.172-9.501 37.084-17.19 54.664-25.402 62.62-29.297 1.289-.687 2.67-1.242 3.876-2.064.377-.975.105-2.08.147-3.106-.064-.942-.046-1.924-.32-2.828-2.346-1.531-4.915-2.685-7.337-4.09-5.82-3.175-11.59-6.439-17.407-9.618C97.66.67 96.956.12 96.164 0m-31.17 17.97c.017-.006.204.006.477.03.82.07 2.42.236 2.567.272.113.028.166.176.373 1.04l.241 1.007.319.116.89.325c.314.115.63.23.7.257l.477.17.477.168c.07.025.157.054.192.063s.244.088.463.173c.22.086.438.144.483.13.046-.014.308-.113.584-.22.276-.106.52-.192.544-.19s.158-.043.298-.101c.652-.27 1.002-.375 1.137-.338.076.02.276.147.446.282s.472.362.67.504l.429.31c.038.03.195.144.35.255.31.22.33.276.15.427-.066.056-.105.102-.087.104.018.001-.254.314-.604.694l-.638.691.213.352c.117.194.536.842.932 1.44l.718 1.089.267.027c.146.016.31.038.363.05.054.012.347.059.652.103 1.751.257 1.617.221 1.639.44.045.459.082.8.126 1.185.1.847.12.77-.215.842-.162.036-.555.116-.873.178s-.686.14-.818.173a5 5 0 0 1-.49.09c-.282.035-.3.058-.565.72-.082.205-.17.42-.195.48s-.072.178-.103.263c-.128.345-.352.814-.448.938a.9.9 0 0 0-.13.385l-.025.253.858.723c.9.758 1.05.917.896.942-.049.008-.287.198-.528.42-.242.223-.53.464-.64.536-.11.071-.204.162-.21.2-.014.122-.331.393-.446.383a4 4 0 0 1-.484-.136c-.206-.069-.413-.12-.459-.112s-.208-.048-.36-.123a4.3 4.3 0 0 0-1.2-.368c-.2-.024-.299-.009-.427.065a2.4 2.4 0 0 1-.312.147c-.08.029-.13.07-.115.092.016.021-.006.036-.048.032-.06-.005-.655.23-.834.33-.02.011-.193.088-.385.17a20 20 0 0 0-.526.23c-.428.202-.516.24-.553.238a2 2 0 0 0-.345.144l-.306.147-.007.445c-.004.245 0 .457.01.47.009.014.009.268-.002.566l-.02.54-.833.115c-.459.063-1.132.16-1.496.214a11 11 0 0 1-.717.094c-.03-.003-.124-.081-.207-.173a1.8 1.8 0 0 1-.216-.292c-.035-.068-.089-.125-.12-.128-.03-.003-.05-.026-.049-.05.003-.025-.157-.245-.356-.489s-.402-.5-.45-.572l-.09-.13-2.196-.216-2.196-.216-.343.278c-1.18.957-1.502 1.189-1.633 1.177a4 4 0 0 1-.409-.133l-.469-.174c-.07-.026-.356-.133-.635-.24-.28-.105-.631-.23-.783-.276-.386-.118-.595-.246-.546-.334.023-.04.073-.192.112-.338s.092-.334.119-.42c.026-.084.08-.272.119-.418s.097-.35.13-.454c.05-.162.037-.206-.09-.303a55 55 0 0 0-1.57-1.17c-.052-.043-.227-.17-.387-.285-.161-.114-.434-.317-.607-.451-.172-.134-.343-.247-.379-.25s-.533.034-1.105.082c-1.648.14-1.806.145-1.9.065a.4.4 0 0 1-.113-.16c-.016-.05-.268-.451-.56-.893s-.527-.831-.523-.866c.004-.034.264-.196.578-.36 1.809-.944 1.645-.839 1.63-1.051a39 39 0 0 0-.097-.9l-.145-1.294c-.036-.322-.09-.624-.12-.672s-.204-.148-.388-.221a59 59 0 0 1-1.239-.53c-.874-.383-.9-.4-.85-.513.055-.12.07-.157.2-.488.043-.108.084-.206.09-.218.02-.039.136-.324.176-.436.14-.388.286-.668.374-.716.064-.035.255-.043.524-.022.233.018.445.031.473.029.028-.003.457.016.954.042.708.036.926.032 1.005-.018.055-.036.662-.586 1.348-1.222l1.246-1.158-.348-.638c-.546-1.002-.632-1.174-.624-1.245.005-.036.153-.13.33-.21s.36-.16.404-.182l.431-.186c.193-.081.446-.195.562-.253.117-.059.23-.105.252-.103.023.002.148-.047.28-.11.13-.062.256-.111.278-.11.034.003.566.323 1.014.61l.674.43.55.35.68-.093c2.452-.34 3.142-.44 3.38-.49.275-.058.288-.073.613-.672.573-1.057.511-.945.594-1.076.037-.059.094-.116.126-.127zm58.097 5.214-.097.02-.082.018c-1.663.617-3.496 1.56-5.253 2.346-28.08 13.375-56.436 26.147-84.743 39.028-1.547.709-3.377 1.056-4.982.318-2.801-1.238-5.227-3.185-7.805-4.783C13.722 55.955 7.207 51.94.833 47.72c-.564-.67-.724-.109-.714.5-.224 4.523-.06 9.056-.075 13.582.061 2.914-.078 5.844.227 8.745.226.731 1.113.975 1.665 1.425 7.569 4.669 15.207 9.223 22.783 13.877 1.066.56 2.062 1.384 3.262 1.607 1.678-.233 3.123-1.114 4.667-1.74 9.553-4.428 19.17-8.88 28.788-13.229 13.861-6.296 27.645-12.765 41.593-18.866 6.276-2.827 12.651-5.44 18.836-8.466.482-.278 1.209-.578 1.477-.962.218-5.914.168-11.836.125-17.754-.072-1.078.044-2.27-.376-3.255m-58.779.644c-3.487.149-6.204 1.968-6.49 4.343-.332 2.751 2.682 5.282 6.732 5.653 4.05.372 7.601-1.557 7.933-4.308s-2.683-5.282-6.733-5.653q-.722-.066-1.442-.035m11.33 12.318c.036.003.108.03.16.058.05.029.063.05.027.046a.5.5 0 0 1-.159-.058c-.051-.03-.064-.05-.028-.046"/></svg>