<svg xmlns="http://www.w3.org/2000/svg" xml:space="preserve" width="202.654" height="158.563" viewBox="0 0 53.619 41.953"><path d="m50.586 129.318-.389.852c-.213.47-.823 1.065-1.353 1.324-.54.263-1.116.937-1.306 1.528-.188.582-.615 1.455-.95 1.94-1.334 1.932-1.244 2.258 1.14 4.148 1.218.966 3.01 2.162 3.98 2.658l1.763.9.425-.942c.234-.519.433-1.134.441-1.367.01-.233.88-1.106 1.937-1.94s1.93-1.611 1.94-1.727c.036-.382-4.041-4.01-5.19-4.62-.62-.328-1.42-1.082-1.782-1.675zm23.778 5.489c-3.393.133-9.291 2.455-12.298 5.461-1.71 1.71-2.247 3.24-1.275 3.633.932.376 3.746.21 5.58-.33 4.766-1.401 10.56-5.488 10.56-7.448 0-.985-1.025-1.377-2.567-1.316m-15.358 2.626c-1.017-.003-3.775 2.54-4.354 4.013l-.585 1.49 2.422 1.666c1.331.916 2.696 2.133 3.033 2.703s.86 1.104 1.162 1.186.58.166.618.189-.4-.849-.97-1.935c-1.476-2.804-1.418-4.511.216-6.42l1.255-1.467-1.167-.712c-.642-.391-1.376-.712-1.63-.713m-13.942.63c-.219-.031-.37.057-.542.229-.285.285-.532 1.2-.547 2.034-.028 1.483-.057 1.518-1.315 1.623-1.408.117-2.619 1.154-2.304 1.973.285.744 3.718 2.988 5.178 3.385.876.239 1.488.748 2.111 1.757.483.781 1.049 1.42 1.258 1.42s.707-.595 1.105-1.323c.398-.727 1.31-2.387 2.027-3.688l1.303-2.365-2.05-1.037c-1.128-.57-2.994-1.77-4.148-2.667-1.155-.898-1.71-1.287-2.076-1.34m28.868 3.955c-.692 0-2.007.379-2.922.842s-2.333 1.043-3.152 1.287c-2.533.758-1.353 1.154 2.86.959 2.523-.117 4.454-.399 5.419-.791.825-.336 1.5-.76 1.5-.942 0-.514-2.302-1.355-3.705-1.355m18.263.547c-.951-.098-1.685.405-6.028 3.597-8.441 6.203-10.828 8.773-11.713 12.613-.727 3.152-1.04 3.704-2.097 3.704-.53 0-1.263.334-1.633.744-.887.98-3.595 1.934-7.497 3.359-1.747.638-2.883 1.514-2.674 1.524.674.031 5.516-1.597 7.924-2.746 2.253-1.076 2.795-1.244 2.29-.427-.312.504-3.666 1.92-6.927 3.183-1.431.554-2.368 1.263-2.18 1.326.429.143 7.333-2.455 8.982-3.467 1.33-.817 2.055-1.235 2.055-.678 0 .534-2.924 1.874-6.943 3.71-2.001.915-3.441 1.982-3.574 2.123-.43.455 1.84-.207 5.221-1.776 6.128-2.844 10.286-6.522 7.728-6.522-.572 0-.683-.143-.482-.618.143-.34.529-1.57.857-2.734 1.36-4.822 2.68-6.122 13.54-13.332l4.88-3.24-1.297-.27a4 4 0 0 0-.432-.073m-38.396.957c-.04.046-.637 1.105-1.326 2.354l-1.252 2.272.772.406c.864.454 1.265.329 1.94-.605.578-.803 1.099-.812 1.672-.027.426.582.483.582 1.125 0 .964-.872 1.805-.762 2.064.27.122.484.363.882.536.882.504 0 .342-.821-.318-1.61-.604-.723-5.072-4.101-5.213-3.942m25.117 1.852c-.172-.04-.457.105-1.023.398-3.726 1.928-12.001 2.08-16.255.297-.62-.26-.625-.219-.096.805.85 1.642 2.945 3.17 5.5 4.007 2.68.879 3.186 1.214 3.186 2.108 0 1.09-1.665 1.894-3.926 1.894h-2.035l.21 1.525c.184 1.351.122 1.547-.548 1.722-.416.11-.757.235-.757.28s.17.572.38 1.169c.47 1.353-.071 2.547-1.156 2.547-.414 0-.678.075-.586.166.407.407 4.174 1.201 5.799 1.222 1.471.02 1.939-.134 2.62-.859.492-.525 1.219-.881 1.795-.881.877 0 1.004-.168 1.35-1.782.534-2.49.515-2.54-.734-1.893-4.882 2.524-9.716 2.487-7.326-.057 1.069-1.137 6.363-4.55 10.382-6.691 1.746-.93 3.222-1.725 3.279-1.765.28-.197.484-2.702.284-3.497-.113-.45-.172-.676-.343-.715m-21.13 2.732c-.086-.025-.247.11-.55.384-.706.639-2.177.795-2.177.231 0-.622-.874-.377-1.344.377-.36.576-.675.681-1.496.501-.797-.175-1.04-.103-1.04.309 0 .769-1.327 1.592-2.2 1.363-.594-.155-.695-.072-.508.417.332.863-.357 1.972-1.224 1.972-.606 0-.693.153-.508.89.17.68.008 1.09-.685 1.733-.55.51-.762.932-.538 1.07.56.347.444 1.639-.213 2.365-.55.607-.537.645.224.645.758 0 .794.1.585 1.63-.194 1.415-.155 1.572.3 1.195.863-.716 1.591-.157 1.591 1.22 0 1.341.35 1.57 1.073.7.65-.785 1.902-.504 2.038.458.149 1.048 1.037 1.014 1.526-.058.527-1.158 1.584-1.374 2.405-.492.787.845 1.425.578 1.425-.597 0-1.091 1.286-2.031 2.148-1.57 1.171.627 1.472.41 1.229-.885-.277-1.479.679-2.66 2.152-2.66h.944l-.713-.793c-.891-.992-.635-2.254.592-2.914l.88-.473-.97-.37c-1.14-.436-1.292-1.557-.353-2.618.6-.678.59-.692-.313-.472-1.173.285-1.88-.478-1.573-1.699.208-.828.169-.857-.644-.487-1.124.512-1.968.17-1.968-.8 0-.363-.01-.547-.095-.572m-7.1.968c-.075 0-.23.238-.341.53-.112.29-.05.528.139.528.188 0 .341-.238.341-.529 0-.29-.062-.529-.138-.529m10.349 1.058c-.205 0-.275.159-.156.353s.289.353.374.353.156-.16.156-.353c0-.194-.168-.353-.374-.353m1.9.253c-.074.003-.115.025-.115.072 0 .186.14.426.313.533.172.106.415.74.54 1.408.164.873.449 1.262 1.01 1.38.823.173 3.77-.071 4.222-.35.636-.39.146-.834-1.443-1.306-.94-.28-2.369-.844-3.175-1.256-.605-.308-1.128-.489-1.351-.481m13.353 1.954c-.434.015-1.66.723-4.501 2.442-4.419 2.674-6.285 4.148-5.263 4.16.388.003 1.338-.169 2.11-.383 4.044-1.123 7.03-3.266 7.758-5.568.133-.42.157-.66-.104-.651m-13.231.003c-.195.094-.58.8-.585 1.23-.003.242.25.44.562.44.372 0 .493-.191.353-.557-.118-.307-.217-.744-.22-.97-.002-.138-.045-.175-.11-.143m-8.6.26c2.237 0 3.359 2.323 2.202 4.561-1.43 2.764-4.695 3.78-6.16 1.918-1.914-2.433.558-6.48 3.958-6.48m-.41.722c-.726.059-1.511.371-2.166.922-1.467 1.234-1.913 2.429-1.383 3.707.444 1.073 1.033 1.024 1.033-.086 0-.38.531-1.27 1.181-1.978.919-1.003 1.462-1.296 2.443-1.318 1.177-.027 1.224-.07.704-.647-.419-.464-1.086-.659-1.812-.6m24.723 1.218-.875 1.239c-.482.681-1.19 2.383-1.573 3.78-.645 2.353-.624 2.677.185 2.89.059.016.84-.459 1.412-.755 1.005-.519 1.406-1.225.697-1.225-.19 0-.578-.143-.888-.616-.527-.803-.475-.804.204-1.73.4-.545.499-1.67.62-2.349zm-23.171.9c-.332-.008-.81.12-1.389.383-.913.416-2.159 2.542-1.815 3.097.23.372 1.203.158 1.974-.434.75-.576 1.748-2.067 1.748-2.613 0-.28-.187-.424-.518-.432m8.114.606c-.158-.025-.383.05-.735.213-.845.391-1.09.936-.629 1.397.338.338.609.294 1.304-.215.362-.264.527-.684.4-1.015-.09-.232-.182-.356-.34-.38m-.685 3.7c-.065.002-.155.068-.279.191-.233.233-.757.424-1.164.424-.924 0-1.592.635-1.346 1.278.245.639.69.618.944-.044.112-.29.605-.529 1.096-.529.685 0 .893-.18.893-.776 0-.377-.036-.55-.144-.545m-2.45 3.332c-.114.008-.272.139-.539.397-.4.387-.482.68-.237.85.501.349.82.333 1.058-.052.109-.176.106-.561-.007-.855-.09-.233-.16-.348-.274-.34m-2.5.458c-1.007 0-1.086.104-1.401 1.852-.192 1.06-.131 1.323.306 1.323.31 0 .545-.305.545-.706 0-.388.318-1.023.706-1.411.91-.91.889-1.058-.156-1.058m-11.02.072c-.072-.009-.113.04-.113.151 0 .47.417.888.653.653.1-.1-.006-.37-.236-.6q-.192-.19-.303-.204m3.108 1.691c-.901 0-1.348.689-.71 1.093.652.412 1.168.213 1.307-.504q.114-.589-.597-.589m3.875 0c-.691 0-1.932 1.52-1.551 1.9.502.503 1.426.154 1.806-.681.535-1.174.526-1.219-.255-1.219" style="fill:#000" transform="translate(-40.306 -129.318)"/></svg>