<?xml version="1.0" encoding="UTF-8" standalone="no"?>
<svg
   width="84.604919mm"
   height="103.33438mm"
   viewBox="0 0 84.604919 103.33438"
   version="1.1"
   xml:space="preserve"
   xmlns="http://www.w3.org/2000/svg"
   xmlns:svg="http://www.w3.org/2000/svg"><path
     style="fill:#000000"
     d="M 17.246352,103.07281 C 15.164846,102.19757 16.322356,99.0085 18.721543,99.0085 H 19.62898 L 19.56114,79.36319 19.4933,59.71787 18.102767,59.5781 c -1.040738,-0.10462 -1.5698,-0.31904 -2.10317,-0.85241 -0.908619,-0.90862 -0.933726,-2.33045 -0.05762,-3.26303 l 0.600855,-0.63958 H 43.173506 69.80418 l 0.57529,0.61237 c 0.39327,0.41862 0.57528,0.94815 0.57528,1.67367 0,1.47577 -0.89455,2.2862 -2.72698,2.47053 l -1.37406,0.13822 v 19.57555 c 0,19.37246 0.005,19.57637 0.52917,19.65561 2.04037,0.30874 2.77812,0.92176 2.77812,2.30842 0,1.06737 -0.74984,1.97521 -1.65364,2.00207 -0.32742,0.01 -11.83387,0.0395 -25.569877,0.0661 -18.18125,0.0353 -25.169476,-0.0335 -25.69113,-0.25285 z M 34.030377,87.30796 c 0.554349,-0.79144 0.518403,-1.4221 -0.117289,-2.0578 C 33.43914,84.77622 33.031144,84.721 30.00321,84.721 c -2.631589,0 -3.511013,0.0913 -3.96875,0.41188 -0.702909,0.49233 -0.775135,1.58867 -0.150156,2.27926 0.383882,0.42419 0.887783,0.48386 4.086039,0.48386 3.469965,0 3.668274,-0.0287 4.060034,-0.58804 z m 5.006405,-6.04575 c 0.84171,-0.66209 0.898007,-1.56916 0.13995,-2.25489 -0.51461,-0.46551 -1.031833,-0.50403 -6.768333,-0.50403 -5.843029,0 -6.233392,0.0304 -6.58656,0.51359 -0.542368,0.74199 -0.461758,1.63431 0.20364,2.25423 0.546652,0.50928 0.90741,0.53947 6.44661,0.53947 5.535415,0 5.907015,-0.031 6.564693,-0.54837 z m 9.111498,-6.26465 c 0.7902,-0.68326 0.93581,-1.48634 0.38916,-2.14619 -0.46426,-0.5604 -0.57804,-0.56656 -10.920185,-0.59111 -5.748073,-0.0136 -10.650896,-0.0135 -10.895163,2.6e-4 -1.209844,0.0683 -1.677152,1.74025 -0.746503,2.67089 0.511479,0.51148 0.881944,0.52917 11.083188,0.52917 9.671063,0 10.598823,-0.0387 11.089503,-0.46302 z m 6.34344,-6.29886 c 0.69831,-0.48912 0.78939,-1.73021 0.17226,-2.34734 -0.36749,-0.36749 -2.03993,-0.41578 -14.400892,-0.41578 -15.371876,0 -14.816666,-0.0596 -14.816666,1.5914 0,1.60672 -0.216267,1.5836 14.816666,1.5836 11.917582,0 13.714872,-0.052 14.228632,-0.41188 z M 22.500589,51.05277 c -0.316436,-0.61846 -2.335534,-4.57729 -4.486885,-8.7974 L 14.102157,34.58246 11.577861,34.3989 C 8.7831926,34.19569 6.9526386,33.55646 6.3022916,32.55669 6.0804516,32.21565 5.3134356,30.56741 4.5978126,28.89392 3.8821886,27.22043 2.5011466,24.09598 1.5288316,21.9507 -0.33073743,17.84781 -0.39529743,17.38429 0.80346057,16.74273 1.9168146,16.14688 2.2989766,16.62794 4.8982536,21.89718 c 2.072163,4.20068 2.646381,5.15713 3.175963,5.29005 0.74231,0.1863 2.1460194,-0.4444 2.3870594,-1.07254 0.09485,-0.24718 -0.8636964,-2.46324 -2.3491874,-5.4311 -1.380179,-2.75745 -2.509416,-5.30965 -2.509416,-5.67155 0,-0.3999 0.245457,-0.81884 0.625745,-1.06801 1.240925,-0.81309 1.692419,-0.29638 4.3928794,5.02736 1.377795,2.71621 2.723298,5.05536 2.990006,5.19809 0.35371,0.1893 0.706404,0.12978 1.303443,-0.22 1.636008,-0.95844 1.63474,-0.96538 -1.164764,-6.375 -2.345313,-4.53195 -2.540058,-5.01985 -2.242875,-5.61911 0.241615,-0.48721 0.572614,-0.67699 1.285047,-0.73678 l 0.959605,-0.0805 1.786074,3.25554 c 0.982341,1.79054 2.746185,4.79553 3.919653,6.67775 1.941067,3.11342 2.133293,3.54314 2.130403,4.7625 -0.0032,1.35074 -0.558358,2.77617 -2.119217,5.44133 L 18.771378,32.46583 20.81592,36.17 c 4.244512,7.68992 8.599252,15.72278 8.599252,15.86238 0,0.0797 -1.42633,0.14491 -3.169622,0.14491 h -3.169623 z m 13.622074,-1.19063 c 0.08864,-1.2733 0.239002,-6.83947 0.334139,-12.36927 l 0.172976,-10.05416 -0.786427,-1.85208 c -0.432535,-1.01865 -0.866804,-2.17688 -0.965044,-2.57385 -0.119159,-0.4815 -0.639814,-1.01814 -1.564105,-1.61213 -2.82356,-1.81454 -4.64623,-4.50318 -5.252658,-7.74827 -0.556827,-2.97967 0.204338,-6.74906 1.89483,-9.38347 C 30.807955,2.94184 32.874648,0.87467 33.8967,0.32769 L 34.508987,0 l -0.1696,3.66519 c -0.09328,2.01585 -0.24007,4.70791 -0.326201,5.98235 l -0.156601,2.31716 3.088566,1.48515 3.088565,1.48516 3.067004,-1.49765 3.067,-1.49764 -0.1733,-5.95479 -0.1733,-5.95479 1.16605,0.80226 c 3.69605,2.54295 5.97569,8.04642 5.17683,12.49783 -0.60947,3.39605 -2.38054,6.11692 -5.14565,7.90515 -0.9505,0.6147 -1.728179,1.28618 -1.728179,1.49217 0,0.206 -0.373002,1.23122 -0.828893,2.27827 -0.948513,2.17846 -0.893706,0.60809 -0.599715,17.18341 l 0.177154,9.98802 h -4.038608 -4.038608 z m 20.014557,1.7198 c 0.1388,-0.32743 0.8462,-2.10424 1.572,-3.94847 1.19341,-3.0324 1.33254,-3.60888 1.45443,-6.02658 l 0.13479,-2.67342 -0.95929,-1.24946 C 52.6012,30.21042 55.02788,19.5544 63.42008,15.37266 c 1.98827,-0.99073 5.44806,-1.88271 5.82819,-1.50258 0.0891,0.0891 -1.10517,2.81365 -2.65402,6.05447 -1.54884,3.24082 -2.8806,6.21499 -2.95945,6.60925 -0.0987,0.49331 0.0773,1.09339 0.56428,1.92437 1.96095,3.3461 5.65657,4.80244 9.52767,3.75459 0.93789,-0.25388 1.82645,-0.60762 1.97457,-0.7861 0.14813,-0.17849 1.22602,-3.16857 2.39531,-6.64465 1.1693,-3.47607 2.22168,-6.41582 2.33863,-6.53276 0.11695,-0.11695 0.57584,0.29549 1.01976,0.91654 2.60336,3.64208 3.69983,8.2398 2.88565,12.10007 -0.6511,3.08706 -1.97745,5.59044 -4.05927,7.66155 -2.51187,2.49894 -4.62051,3.48496 -8.79748,4.11379 -0.7544,0.11357 -1.26933,0.53491 -2.77813,2.27325 -1.51113,1.74102 -2.0168,2.5691 -2.74686,4.49832 l -0.89479,2.36448 h -4.58965 -4.58964 z" /></svg>
