<?xml version="1.0" encoding="UTF-8" standalone="no"?>
<svg
   width="62.836891mm"
   height="88.326111mm"
   viewBox="0 0 62.836891 88.326111"
   version="1.1"
   xml:space="preserve"
   xmlns="http://www.w3.org/2000/svg"
   xmlns:svg="http://www.w3.org/2000/svg"><g
     transform="translate(-85.587308,-104.02594)"><path
       style="fill:#000000"
       d="m 107.98428,192.21291 c -5.31839,-0.56956 -10.56052,-2.39734 -11.751232,-4.09731 -0.664084,-0.94812 -0.540405,-2.67841 0.259389,-3.62891 l 0.67899,-0.80694 -0.02379,-17.22421 -0.02379,-17.22421 -0.589052,-0.79835 c -0.464991,-0.6302 -0.582827,-1.12982 -0.559494,-2.37221 0.03468,-1.84677 0.595573,-2.63759 2.437373,-3.43652 1.273648,-0.55248 5.896146,-1.55664 7.165776,-1.55664 0.45008,0 0.81833,-0.12139 0.81833,-0.26975 0,-0.69572 -2.76177,-5.77644 -3.53712,-6.50711 -0.55131,-0.51954 -1.66915,-1.08851 -3.027046,-1.54073 -2.363257,-0.78703 -4.029734,-2.05399 -5.706853,-4.33868 -1.657295,-2.25769 -8.051681,-14.6589 -8.503243,-16.49111 -0.219256,-0.88963 0.616523,-1.80887 1.644638,-1.80887 1.270584,0 3.665459,3.07814 9.21591,11.84524 0.784446,1.23906 1.184074,1.64075 1.579343,1.5875 0.978597,-0.13183 0.688726,-1.10704 -1.476108,-4.96607 -5.037752,-8.9803 -5.552884,-10.19539 -4.688683,-11.05959 1.274917,-1.27491 3.426772,1.19087 9.841822,11.27762 1.21161,1.90508 1.58542,2.14068 2.10059,1.32395 0.19497,-0.30908 -0.22324,-1.32132 -1.68784,-4.08529 -4.50722,-8.50598 -4.99744,-9.51845 -5.006503,-10.34013 -0.0094,-0.84816 0.736118,-1.66865 1.516096,-1.66865 1.339927,0 8.755187,9.36019 10.449307,13.19006 1.52676,3.45148 1.67908,6.78882 0.46069,10.09328 -0.43656,1.18402 -0.79375,2.61917 -0.79375,3.18922 0,1.01537 1.02558,4.30493 2.5321,8.12171 l 0.75713,1.91823 h 3.32027 3.32027 l 1.494,-2.47379 c 2.32495,-3.84973 2.42686,-4.77836 0.95245,-8.67895 -0.76748,-2.03036 -0.83495,-2.4651 -0.83559,-5.38372 -6e-4,-2.78026 0.0833,-3.38881 0.67507,-4.89479 0.92989,-2.36656 1.55187,-3.32293 3.32425,-5.11138 1.03661,-1.04601 2.22575,-1.88699 3.70963,-2.62351 1.87755,-0.93191 2.48693,-1.10154 4.34336,-1.209 3.37511,-0.19539 4.65562,0.77311 3.92983,2.97227 -0.33468,1.01408 -1.12893,1.69384 -2.78423,2.38289 -2.3679,0.98568 -3.94933,3.54485 -3.93439,6.36686 0.0173,3.26793 2.53865,5.99899 5.90656,6.39787 1.013,0.11998 1.56578,0.0169 2.69389,-0.50234 2.49971,-1.15054 3.74527,-2.81513 4.70916,-6.29346 0.60874,-2.19669 0.87322,-2.58677 2.10232,-3.10053 2.08911,-0.87324 3.19019,0.73 3.40212,4.95367 0.14941,2.97786 -0.28333,4.95809 -1.69694,7.76515 -2.01497,4.00119 -5.56139,6.53306 -9.90431,7.0709 -5.70863,0.70698 -6.09106,0.85015 -7.43681,2.78408 -0.39535,0.56815 -0.72277,1.10336 -0.7276,1.18938 -0.005,0.086 0.56561,0.46901 1.26766,0.85111 1.46696,0.79843 1.89855,1.55068 1.89855,3.30916 0,0.89635 -0.18678,1.52391 -0.66146,2.22247 l -0.66146,0.97342 v 16.97532 16.97532 l 0.66146,0.7861 c 0.87175,1.03602 0.92284,2.98767 0.10541,4.02687 -1.26006,1.60191 -6.11319,3.32972 -10.76527,3.83265 -2.51453,0.27185 -10.33817,0.34103 -12.49118,0.11045 z m 11.98568,-1.93529 c 1.71718,-0.14227 3.44358,-0.32861 3.83646,-0.41408 0.55204,-0.1201 0.62415,-0.0914 0.31744,0.12653 -0.59285,0.42115 -0.23919,0.35697 2.09366,-0.37998 1.16654,-0.36851 2.6312,-1.05824 3.25481,-1.53274 0.97632,-0.74287 1.14512,-1.01734 1.21518,-1.97581 0.0969,-1.3256 -0.1558,-1.3954 -0.87971,-0.24301 -2.24289,3.5704 -15.95203,5.29377 -25.79227,3.24234 -3.44336,-0.71785 -3.38379,-0.71053 -2.27473,-0.27983 3.60143,1.39859 11.40426,2.02207 18.22916,1.45658 z m 7.19661,-3.63241 c 0.58208,-0.29817 1.29646,-0.80533 1.5875,-1.12702 0.51503,-0.56927 0.53138,-1.01697 0.6122,-16.76305 0.0747,-14.55417 -0.019,-19.24075 -0.37774,-18.88207 -0.0653,0.0653 -0.17006,0.38515 -0.23276,0.71073 -0.0627,0.32558 -0.24366,0.74819 -0.40213,0.93913 -0.60481,0.72876 -3.65639,1.73503 -10.91051,3.59779 l -0.99218,0.25478 v 1.44501 1.44501 l -1.38907,0.004 c -1.55796,0.005 -2.40642,0.33192 -1.6312,0.6294 0.89837,0.34474 7.55037,0.17937 10.07348,-0.25042 1.38306,-0.2356 2.57009,-0.37293 2.63785,-0.30517 0.0678,0.0678 -0.29908,0.20242 -0.81519,0.29924 -0.5161,0.0968 -0.93838,0.27238 -0.93838,0.39014 0,0.25203 -4.18101,0.74049 -8.41824,0.98349 -4.30072,0.24665 -3.35734,0.65523 1.82051,0.78848 2.36992,0.061 4.35224,0.15418 4.40516,0.2071 0.16169,0.16168 -4.90232,0.7558 -8.12617,0.95338 -1.67349,0.10255 -2.54372,0.20505 -1.93385,0.22776 0.60988,0.0227 1.18245,0.16036 1.27239,0.30588 0.0899,0.14552 0.81134,0.26458 1.60311,0.26458 h 1.4396 v 12.02293 c 0,9.32779 0.0741,12.07091 0.33072,12.23698 0.18191,0.11772 1.89835,0.21405 3.81432,0.21405 1.91597,0 3.55904,0.0754 3.65126,0.16758 0.24407,0.24393 1.69926,-0.13479 2.91932,-0.75977 z m -4.23333,-37.93062 c 1.85049,-0.22485 3.76926,-0.62158 5.55625,-1.14883 0.29104,-0.0859 0.19429,0.004 -0.21499,0.1986 -0.64917,0.30945 -0.69242,0.39767 -0.33884,0.69111 0.33206,0.27559 0.58582,0.24807 1.40409,-0.1523 0.89149,-0.43619 1.02196,-0.62995 1.21464,-1.80376 0.2757,-1.67956 -0.0312,-2.35047 -1.39286,-3.04515 -1.2557,-0.64061 -1.42443,-0.29458 -0.2605,0.53421 3.43822,2.44823 -4.9444,4.47672 -17.08029,4.13323 -7.80009,-0.22077 -12.26201,-1.06659 -12.889293,-2.44332 -0.65229,-1.43162 1.466733,-2.39146 6.999613,-3.17054 1.46488,-0.20627 1.4269,-0.64648 -0.0558,-0.64648 -1.19271,0 -4.3503,0.59047 -6.190898,1.1577 -1.409615,0.43442 -2.548009,1.33419 -2.548009,2.01392 0,1.3023 3.475287,2.90057 7.515917,3.45653 5.51059,0.75822 13.12205,0.85193 18.28096,0.22508 z m -11.5895,-7.419 c -3.83639,-10.02889 -4.02329,-11.02668 -2.69426,-14.38319 1.1768,-2.97204 0.9118,-6.54974 -0.72452,-9.78162 -1.73237,-3.4216 -8.430119,-12.0465 -9.354821,-12.0465 -0.529053,0 -0.466338,0.36489 0.160161,0.93186 0.294583,0.2666 0.490753,0.61247 0.435935,0.76862 -0.05482,0.15614 0.460308,0.93874 1.144725,1.7391 2.05285,2.40062 4.59044,5.62013 5.31784,6.74687 1.36381,2.11255 1.61182,2.58363 2.24282,4.26003 0.86069,2.28666 0.84376,4.20964 -0.0594,6.73999 -1.07518,3.01244 -1.23878,5.77803 0.22958,8.97603 2.15485,4.69312 2.34783,8.21263 4.65103,11.69827 0.13943,0.21102 0.48675,-0.0482 0.53067,-0.21799 0.0439,-0.1698 -0.80198,-2.61398 -1.87977,-5.43151 z m 15.01468,2.23044 c 1.82933,-2.78901 2.33767,-4.07339 1.26607,-3.19887 -0.39271,0.32048 -4.29438,6.12767 -4.29438,6.39169 0,0.066 0.23231,0.0593 0.51624,-0.0149 0.29019,-0.0759 1.39015,-1.46737 2.51207,-3.17787 z m -8.45227,-1.92925 c -0.0913,-0.14768 -1.32566,-0.26459 -2.79374,-0.26459 -1.57709,0 -2.63021,0.10594 -2.63021,0.26459 0,0.15968 1.10763,0.26458 2.79374,0.26458 1.79511,0 2.73528,-0.0946 2.63021,-0.26458 z m 25.57831,-8.13594 c 2.69009,-2.77859 3.77778,-5.62357 3.76803,-9.85573 -0.008,-3.28495 -0.39076,-4.42194 -1.43978,-4.27221 -0.82847,0.11825 -1.21499,0.67132 -0.54574,0.78091 0.77718,0.12726 1.17587,2.04301 1.01669,4.88538 -0.16741,2.98925 -0.80169,4.7701 -2.51285,7.0552 -0.69212,0.92428 -1.42176,1.90162 -1.62141,2.17186 -0.70669,0.95658 0.13522,0.47389 1.33506,-0.76541 z m -4.94081,-3.49374 1.05834,-0.47167 -2.64584,0.0314 c -2.40093,0.0285 -2.78638,-0.0376 -4.16423,-0.71422 -2.74929,-1.35005 -4.43473,-4.18499 -4.43473,-7.4593 0,-0.94432 -0.11447,-1.71695 -0.25438,-1.71695 -0.44543,0 -0.8591,2.16326 -0.68307,3.57212 0.68759,5.50334 6.29541,8.91051 11.12391,6.75862 z m -39.422912,-4.77449 c -0.08994,-0.14552 -0.458406,-0.26458 -0.81882,-0.26458 -0.897084,0 -1.275874,-0.4653 -5.042248,-6.1938 -3.635935,-5.5301 -4.658554,-6.91185 -5.414984,-7.31668 -0.743855,-0.3981 -1.182227,-0.009 -0.515827,0.45729 0.560741,0.39276 1.493822,1.91179 1.395237,2.27142 -0.02992,0.10914 0.120005,0.19843 0.333167,0.19843 0.213161,0 0.517385,0.26789 0.676054,0.59532 0.277029,0.57166 0.272144,0.57491 -0.122983,0.0817 -0.226309,-0.28248 -0.411471,-0.37853 -0.411471,-0.21344 0,0.16508 0.239313,0.46777 0.531806,0.67264 0.661711,0.46348 2.040608,2.39057 4.342453,6.06885 0.977306,1.5617 2.082399,3.07975 2.455762,3.37344 0.703062,0.55302 2.908844,0.78229 2.591854,0.26939 z m 5.362682,-3.38804 c 0.0652,-0.19563 -0.0547,-0.255 -0.31408,-0.15548 -1.15899,0.44474 -1.67625,-0.10756 -5.541483,-5.91691 -3.840596,-5.77232 -5.150479,-7.4729 -5.756033,-7.4729 -0.193078,0 -0.104207,0.24231 0.218334,0.59531 0.775185,0.84838 3.135998,4.36353 5.108782,7.60677 2.25367,3.70501 3.61973,5.54364 4.30796,5.79823 0.68001,0.25155 1.82918,-0.013 1.97652,-0.45502 z m 30.81145,-9.32607 c 0.0859,-0.58521 -0.0104,-0.87689 -0.34945,-1.05833 -0.80252,-0.4295 -2.43178,-0.26954 -3.8101,0.37407 l -1.32292,0.61773 1.98438,-0.12166 c 1.77082,-0.10856 2.03862,-0.0615 2.4884,0.4372 0.67863,0.75244 0.86962,0.70534 1.00969,-0.24901 z" /></g></svg>
