<svg xmlns="http://www.w3.org/2000/svg" xml:space="preserve" width="163.92" height="299.233" viewBox="0 0 43.371 79.172"><path d="M27.097 39.889H38.3q0-4.239-2.12-7.948-2.043-3.633-5.524-5.828l-5.98 9.461q2.422 1.514 2.422 4.315M0 14.003h43.37V72.89q0 2.649-1.816 4.465-1.817 1.817-4.466 1.817H6.282q-2.573 0-4.465-1.817Q0 75.54 0 72.89zm43.37-4.617H0V6.358q0-2.65 1.817-4.466Q3.709 0 6.282 0h30.806q2.574 0 4.466 1.892 1.817 1.817 1.817 4.466zM5.525 39.889h11.203q0-2.8 2.346-4.315l-5.98-9.46q-3.481 2.194-5.45 5.827-2.119 3.71-2.119 7.948m8.478 14.305q3.633 1.968 7.72 2.044 4.314 0 8.023-2.044l-5.374-9.84q-2.422 1.439-4.995 0zm7.871-17.636q-1.438 0-2.422.984t-.984 2.347q0 1.438.984 2.422t2.422.984q1.363 0 2.347-.984t.984-2.422q0-1.363-.984-2.347t-2.347-.984"/></svg>