<?xml version="1.0" encoding="UTF-8" standalone="no"?>
<svg
   width="96.970848mm"
   height="89.680992mm"
   viewBox="0 0 96.970848 89.680992"
   version="1.1"
   xml:space="preserve"
   xmlns="http://www.w3.org/2000/svg"
   xmlns:svg="http://www.w3.org/2000/svg"><path
     style="fill:#000000"
     d="m 18.446899,86.191491 c -5.613492,-4.06004 -11.4333518,-7.86539 -17.0421848,-11.90518 -3.486376,-3.56904 0.475512,-7.95678 1.610251,-11.65512 2.744212,-6.35029 4.720927,-13.00999 7.4052238,-19.37131 4.343492,-3.5744 9.221402,-6.56418 12.899825,-10.91674 6.351709,-6.3774 10.666449,-14.54908 17.752251,-20.21744 4.48202,-3.8279895 8.16104,-8.6777195 13.12862,-11.8782495 5.7816,-1.45788 9.68965,3.86347 13.56824,7.14135 5.37573,4.5966595 10.21016,9.9395895 16.17126,13.7856095 4.58171,1.30819 6.32286,5.74051 8.75504,9.33416 2.51073,3.46729 5.92696,7.46488 3.37047,11.91842 -3.31501,10.2603 -6.61075,20.54649 -10.11764,30.73173 -2.46593,4.16571 -7.28011,6.21478 -10.84641,9.32089 -2.9138,1.96769 -5.63663,4.51505 -8.58795,6.27923 -14.17474,0.20695 -28.360616,0.13977 -42.519276,0.92215 -2.018877,-0.83489 -3.738408,-2.28681 -5.54772,-3.4895 z m 47.563046,-1.61717 c 3.93906,-5.62107 5.05514,-12.97126 4.31263,-19.71292 0.23874,-4.59804 -3.97163,-4.37732 -6.0874,-1.18061 -3.90341,3.41156 -9.00047,7.12626 -9.32645,12.75784 0.6415,4.55177 5.51031,7.40477 9.45186,8.8589 l 0.84846,-0.16114 0.80094,-0.56205 z m -14.32322,-14.07794 c 4.66217,-1.98571 11.35707,-4.52768 11.39179,-10.54509 0.43602,-3.37802 0.74967,-6.77109 0.94046,-10.17169 -3.66525,-3.55831 -6.60729,-7.72148 -9.19854,-12.10909 -1.9979,-3.84022 -6.38323,-5.68706 -7.98186,-9.75118 -1.58158,-3.38955 -5.37282,-11.35136 -8.934801,-5.12137 -6.143675,6.13334 -10.381832,13.84892 -13.42587,21.91596 1.869794,4.66516 5.959419,8.3449 10.730768,10.1701 3.502341,2.64284 9.120703,4.02854 10.955563,8.02665 -1.21432,3.19021 -3.30978,9.58578 2.58097,8.21312 1.00408,-0.0724 1.99012,-0.30554 2.94152,-0.62741 z m -11.635357,0.0976 c 3.037077,-1.3245 4.382337,-5.73598 5.103927,-8.40375 -4.67046,-2.69505 -10.336399,-2.361 -15.27079,-4.11229 -4.785993,-2.31018 -3.51437,-7.26955 -6.194267,-11.2585 -3.060385,3.67754 -8.090218,7.18563 -7.736922,12.47568 0.578396,4.81307 6.54424,5.8223 10.034472,8.10333 4.306597,1.29193 8.748916,2.66171 13.15243,3.40021 l 0.91115,-0.20463 z M 5.7612452,67.758741 c 3.881021,-2.98763 5.4457548,-8.0252 8.6318648,-11.67894 4.363854,-6.11129 8.226409,-12.72077 10.813158,-19.77813 -1.552858,-3.00664 -5.926263,4.04184 -8.157128,5.47797 -3.678024,3.05479 -5.935275,7.19376 -7.3123668,11.71724 -1.299702,4.64643 -4.380593,8.44696 -6.175341,12.85948 -0.941349,2.27659 0.739801,2.65324 2.199813,1.40238 z M 67.648725,55.521321 c 3.46206,-4.60065 -2.01179,-8.71156 -5.35214,-11.21274 -5.1366,-3.40987 0.15928,3.27011 1.68415,4.72209 1.63164,3.0441 -0.10916,7.83681 1.30485,10.25615 1.01791,-1.09105 1.64991,-2.47139 2.36314,-3.7655 z m -30.151827,2.04509 c -2.511522,-2.42345 -7.89818,-6.44977 -10.706115,-4.99316 1.88846,4.02364 6.288385,5.64254 10.483415,5.22945 z m 37.084537,-10.27818 c 3.64156,-2.49181 6.7763,-6.18769 3.90639,-10.54992 -2.91696,-8.82236 -6.13596,-17.78558 -11.71824,-25.29698 -2.65928,3.677 -6.054,6.82882 -8.52246,10.618 -1.07041,4.3804 -3.8693,9.97795 -0.29135,13.86935 3.70067,4.28442 6.92221,9.34524 11.96025,12.17938 1.53442,0.47109 3.46662,0.37079 4.66541,-0.81983 z m 12.0256,-8.40635 c 4.58906,-1.54206 6.19792,-7.55572 1.67071,-10.53473 -1.76159,-2.7145 -4.51554,-4.39519 -7.37875,-5.73714 -1.33734,2.15613 -5.79943,0.24886 -3.94161,4.29499 0.79738,4.59654 1.6087,12.43155 7.88298,12.0604 0.58774,-0.0467 1.17692,-0.0805 1.76667,-0.0835 z m -32.04616,-7.93 c 1.58217,-4.64378 -5.25081,-5.72176 -7.12291,-4.87758 1.40968,1.39081 5.436,8.04215 7.12291,4.87758 z m -0.86686,-6.3678 c 1.9788,-4.40804 6.75236,-6.05466 9.56509,-9.72438 2.99599,-2.62371 3.69518,-5.8341495 -0.0933,-8.0913895 -2.86353,-2.5885 -7.04731,-3.97772 -10.35353,-1.29546 -2.59103,0.79715 -3.51537,3.62664 -5.23634,5.4847195 -2.09732,2.71932 -4.07136,5.55044 -6.42366,8.0604 2.87118,2.36661 4.81554,6.62487 9.01029,6.56052 1.20835,-0.0563 2.77253,0.2262 3.53147,-0.99441 z m 25.87349,-1.44715 c 0.10497,-4.31357 -5.53601,-6.62025 -8.18147,-9.6788 -1.71081,0.87776 2.83711,5.61146 3.99045,7.55412 0.84275,1.09116 2.72287,3.32456 4.19102,2.12468 z M 38.69937,19.700991 c 3.267665,-2.74918 6.003245,-6.14934 8.498135,-9.58031 -4.10381,2.14588 -7.706114,5.82995 -10.842023,9.36258 -2.220985,2.59846 1.571846,0.98939 2.343888,0.21773 z" /></svg>
