<?xml version="1.0" encoding="UTF-8" standalone="no"?>
<svg
   width="86.923027mm"
   height="93.145126mm"
   viewBox="0 0 86.923027 93.145126"
   version="1.1"
   xml:space="preserve"
   xmlns="http://www.w3.org/2000/svg"
   xmlns:svg="http://www.w3.org/2000/svg"><path
     style="fill:#000000"
     d="m 23.702424,93.145128 c -6.433547,-2.08273 -12.734306,-4.57626 -19.0358872,-7.02808 -2.456326,-3.43404 -6.706117,-6.53899 -3.536078,-11.00979 1.722699,-3.95197 1.608159,-9.02844 5.381346,-11.74951 4.1954572,-2.48199 5.1744122,-7.02611 5.8960212,-11.49429 0.28782,-1.75461 1.342238,-3.57517 0.120902,-5.19996 -0.876752,-2.10682 -2.05838,-4.15236 -1.658377,-6.51582 0,-5.99253 0,-11.98505 0,-17.97757 5.490751,-4.0885 11.445613,-7.63988 16.895913,-11.70885 1.18276,-4.4192305 4.11902,-7.5364305 8.35565,-9.2348505 3.60336,-3.70039 6.71889,2.0563 10.27287,3.07345 1.65027,0.93026 4.02342,0.80092 4.74848,2.87392 2.94339,4.0029205 5.16476,8.6550905 8.86082,12.0110605 1.48407,0.95364 3.16699,1.73381 3.45924,3.66465 1.73236,4.06803 3.79801,8.17812 6.76478,11.46098 4.17397,1.69656 6.16061,5.70239 8.72854,9.07947 5.31018,1.97413 4.87013,7.67547 5.72634,12.39462 0.59877,4.6851 1.70403,9.41771 2.24004,14.05523 -1.71996,4.90387 -3.50547,9.7856 -5.14434,14.71727 -3.44101,2.24075 -6.61806,5.36966 -10.46956,6.7248 -15.86785,0.63596 -31.73276,1.41154 -47.6067,1.86327 z m -10.992313,-18.8102 c -0.337412,-5.27413 5.237229,-4.9207 8.464084,-7.31009 4.206859,-3.00095 6.814259,-7.70788 9.867759,-11.78703 0.47189,-1.49636 -4.2106,2.87434 -5.54873,3.71012 -4.298093,4.31714 -10.119079,6.61042 -15.099805,10.039 -0.370713,2.16404 -0.316475,7.93924 2.316691,5.348 z m 12.000993,-19.78692 c 3.45576,-2.73342 5.79586,-5.57902 10.42074,-6.87791 2.77791,-1.06767 9.23235,-4.05228 7.73626,-6.4643 -3.39322,-0.27876 -8.80924,5.06861 -8.60072,-1.21305 -0.98466,-2.92126 -0.33192,-4.29554 2.82234,-4.36177 4.02965,-1.95774 -1.95336,-6.38214 1.91244,-8.98694 1.56687,-0.75469 3.86217,2.77903 5.79882,3.14836 3.80111,2.65237 8.72374,3.41177 11.79017,7.10133 -2.13217,1.96727 -0.26463,2.68011 2.18962,1.71623 5.08421,0.10154 -2.66075,-2.88397 -4.05316,-4.37497 -3.59635,-2.59841 -7.45264,-4.989 -10.51973,-8.20932 1.76839,-3.47523 4.1975,-8.12152 2.57577,-11.89133 -2.4866,-3.86375 -4.65565,-8.1913005 -8.04584,-11.3030505 -2.12841,1.32934 -4.60116,2.46668 -6.47475,4.05731 -1.5885,4.1188905 -3.39608,8.3164105 -6.07025,11.8063805 -4.665748,-0.21939 -8.672143,1.63003 -12.213828,4.57546 0.390187,1.13126 3.174825,5.66223 4.235866,3.87448 1.090625,-1.94078 2.383281,-4.00539 1.361366,-0.39434 -0.919064,3.64784 -0.0073,8.31605 -2.859573,11.138 2.760968,2.68169 5.13118,5.9123 8.443889,7.91054 2.22124,-1.339 -0.52918,-0.19027 -0.72056,-2.84213 -2.03163,-3.15225 -4.823068,-6.71629 -0.71097,-9.49771 3.35633,-3.7651 5.91036,-8.94728 11.13735,-10.35904 2.05932,-0.66263 7.07358,-2.95212 7.73239,-2.39268 -3.25679,3.27956 -6.82796,6.44952 -8.4233,10.9316 -1.41458,3.3753 -3.55748,6.87286 -4.08743,10.36852 1.69396,-1.284 4.29543,-7.83509 2.98141,-2.36583 -0.16718,4.85496 -5.0251,6.77651 -8.26277,9.45458 -3.084206,1.22434 -4.140652,6.30264 -4.013275,8.33122 1.410325,-0.80387 2.676855,-1.84072 3.917725,-2.87964 z" /></svg>
