<svg xmlns="http://www.w3.org/2000/svg" xml:space="preserve" width="152.927" height="152.715" viewBox="0 0 40.462 40.406"><path d="M33.612 35.63c-3.019-.755-4.782-1.324-5.731-1.85-.73-.405-1.963-2.17-2.058-2.947-.036-.295.65-1.118 2.344-2.811l2.395-2.395.875.44c1.88.948 2.493 1.891 3.52 5.425 1.51 5.2 1.616 4.877-1.345 4.137m-12.853 4.383c-3.461-1.873-5.704-4.388-6.872-7.707-.628-1.784-1.23-5.986-.905-6.311.082-.083.739.23 1.458.693.719.464 2.473 1.422 3.898 2.13l2.59 1.284-.145.723c-.375 1.86-.109 6.13.484 7.755.341.935.571 1.751.512 1.813-.06.062-.519-.109-1.02-.38m17.715-18.757c-2.128-.661-3.81-.803-6.721-.567l-1.827.148-.978-2.106c-.539-1.159-1.409-2.814-1.934-3.68-.525-.864-.963-1.69-.972-1.835-.025-.408 2.926-.273 4.92.225 2.848.71 4.853 1.9 6.66 3.952.832.945 1.812 2.34 2.177 3.1l.663 1.38zM24.23 29.714c-.357-.357-.25-.5 2.319-3.067 2.137-2.138 2.767-2.66 3.055-2.531.2.089.363.262.363.385s-1.206 1.43-2.681 2.905c-2.557 2.557-2.7 2.665-3.056 2.308m-2.81-.596c-1.201-.293-4.215-1.812-6.97-3.514-1.846-1.14-2.702-1.871-5.723-4.896-3.287-3.29-3.654-3.734-4.907-5.931C1.463 10.639-.037 5.478 0 1.629L.018 0 2.51.1c4.059.16 8.27 1.469 12.562 3.903 1.581.897 2.356 1.558 5.585 4.775 4.158 4.14 5.292 5.704 7.378 10.17 1.57 3.364 1.677 3.039-2.311 7.027l-3.37 3.37zm-7.23-18.034c.274-3.177-2.528-5.263-5.366-3.994-3.327 1.489-2.72 6.354.892 7.128 1.987.426 4.308-1.2 4.475-3.134"/></svg>