<svg xmlns="http://www.w3.org/2000/svg" xml:space="preserve" width="130.583" height="145.795" viewBox="0 0 34.55 38.575"><path d="M9.15 38.42c-.218-.079-.784-.51-1.257-.957-.825-.78-.86-.895-.86-2.85 0-1.687.114-2.237.659-3.19.726-1.271.851-2.387.316-2.831-.194-.161-1.223-.273-2.315-.252-3.174.06-4.502-.626-5.409-2.796-.535-1.28-.389-1.96 1.083-5.032 1.271-2.656 1.693-4.637 1.696-7.978C3.069 6.01 6.336 1.8 12.525.342c2.536-.598 8.762-.378 11.188.394C27.022 1.79 29.42 3.99 30.6 7.054c.482 1.253.616 2.293.758 5.887.186 4.753.393 5.504 2.357 8.585.666 1.043.835 1.592.835 2.703 0 1.194-.123 1.534-.856 2.369-1.125 1.282-2.18 1.69-4.374 1.69-1.053 0-1.94.132-2.125.317-.491.49-.377 1.773.248 2.785.784 1.268.986 4.14.38 5.416-.242.511-.74 1.09-1.107 1.287-.756.404-3.474.423-3.87.026-.144-.143-.324-.811-.4-1.484-.18-1.592-.687-1.432-.86.272l-.133 1.302-1.772.078-1.771.078-.08-1.338c-.102-1.694-.568-1.745-.742-.081l-.133 1.263h-3.704l-.08-1.257c-.057-.882-.195-1.256-.464-1.256-.28 0-.382.34-.382 1.288 0 1.283-.004 1.289-.992 1.452-1.144.19-1.627.186-2.183-.016m7.54-9.03c.77-.468.82-.468 1.588 0 1.654 1.005 3.572.265 3.572-1.38 0-1.182-3.339-5.544-4.243-5.544-.53 0-3.123 2.841-3.792 4.154-1.208 2.37.627 4.138 2.876 2.77m-4.98-7.74c1.376-.666 2.208-1.76 2.394-3.149.183-1.363-.044-2.168-.895-3.18-.866-1.03-1.697-1.367-3.342-1.358-4.197.023-6.147 6.008-2.537 7.786 1.227.605 3.01.565 4.38-.1m15.567.17c1.906-.796 2.524-3.268 1.366-5.464C27.761 14.683 26.63 14 24.742 14c-1.263 0-1.672.12-2.352.693-2.052 1.727-2.108 4.39-.134 6.365 1.077 1.077 3.418 1.433 5.02.763"/></svg>