<svg xmlns="http://www.w3.org/2000/svg" xml:space="preserve" width="360.303" height="360.207" viewBox="0 0 95.33 95.305"><path d="M45.628.008c-4.351.075-8.619.94-12.762 2.256-7.698 2.486-14.697 7.02-20.173 12.97-3.943 4.088-6.989 9.008-9.15 14.25C1.423 34.73.121 40.397.048 46.031-.204 51.338.546 56.67 2.1 61.744c1.325 4.2 3.206 8.2 5.553 11.865 2.93 4.51 6.694 8.457 10.888 11.808 6.104 4.687 13.338 7.894 20.933 9.169 3.053.54 6.155.86 9.257.658 3.462-.085 6.945-.444 10.325-1.311a47.7 47.7 0 0 0 16.056-7.278c3.686-2.528 6.826-5.76 9.737-9.13 5.746-7.183 9.424-15.968 10.27-25.169.727-8.017-.42-16.383-3.687-23.764-2.314-5.233-5.559-10.213-9.675-14.287-5.88-6.131-13.465-10.591-21.686-12.736C56.787.671 53.397.097 50.012.057a86 86 0 0 0-4.384-.049m2.246 2.766h7.024c.512.582 1.506 1.18 1.128 2.088-.45 1.942-.717 3.959-1.505 5.8-.63.899-1.89.62-2.838.722-3.34.018-6.691.146-10.028-.048-1.184-.448-1.257-1.917-1.578-2.96-.263-1.425-.807-2.851-.675-4.315.174-1.046 1.383-1.235 2.263-1.195 2.068-.088 4.14-.082 6.21-.092m-25.795 7.98c1.057.084 1.453 1.27 2.05 1.98.829 1.332 1.8 2.622 2.335 4.104.008.836-.836 1.387-1.304 2.005-2.39 2.482-4.788 4.969-7.383 7.238-.408.468-1.04.462-1.513.1-1.75-.987-3.525-1.983-5.09-3.245-.508-.728-.318-1.768.332-2.36 2.534-2.812 5.27-5.435 7.987-8.071.809-.606 1.47-1.758 2.586-1.75m51.434.006c.932.137 1.466 1.086 2.189 1.61 2.76 2.66 5.524 5.328 8.098 8.17.658.59.932 1.676.268 2.365-1.36 1.262-3.034 2.134-4.614 3.09-.524.27-1.217.767-1.737.21-2.69-2.276-5.122-4.846-7.537-7.407-.455-.605-1.234-1.125-1.318-1.906.519-1.498 1.503-2.796 2.33-4.138.634-.777 1.102-2.125 2.32-1.994M47.669 13.92c3.003-.018 6.055.063 8.934 1.015 8.167 2.27 15.433 7.66 19.856 14.906 2.006 3.29 3.563 6.878 4.313 10.671 1.046 4.875.924 9.983-.138 14.844-1.35 5.912-4.361 11.447-8.658 15.734-6.318 6.776-15.623 10.563-24.862 10.384-3.348.009-6.661-.711-9.858-1.654-7.087-2.164-13.191-6.992-17.454-12.994-4.398-6.18-6.404-13.917-5.867-21.46.478-10.361 6.36-20.156 14.937-25.884 3.98-2.655 8.52-4.495 13.235-5.312 1.842-.244 3.707-.237 5.562-.25m-1.2 4.43c-6.135.192-12.22 2.373-16.978 6.268-.186.34-.35.77-.841.692-1.915 1.634-3.567 3.57-5.075 5.579-2.565 3.789-4.385 8.142-4.987 12.69a71 71 0 0 0 .006 8.044 29.75 29.75 0 0 0 6.823 15.129 29.7 29.7 0 0 0 10.276 7.657c2.28.995 4.642 1.656 7.126 2.121 2.531.6 5.146.342 7.688.208 3.955-.205 7.788-1.534 11.26-3.389 6.972-3.734 12.158-10.48 14.227-18.087.616-2.034.933-4.149.851-6.276.028-3.313.079-6.715-1.087-9.871-2.494-8.176-8.687-15.138-16.56-18.488-3.847-1.663-8.223-2.476-12.535-2.281l-.1.002zM4.559 39.222c1.964.39 3.952.742 5.853 1.38 1.028.289 1.123 1.462 1.119 2.356.043 3.557.113 7.123-.109 10.674-.19 1.088-1.527 1.189-2.392 1.444-1.467.293-2.92.731-4.397.933-.873-.086-1.668-.817-1.58-1.742-.156-4.02-.07-8.049-.061-12.072.05-.987-.108-2.308.97-2.816.177-.091.393-.197.597-.157m86.08.026c1.06-.098 1.638.991 1.657 1.914.21 3.056.036 6.127.08 9.188-.06 1.582.118 3.205-.247 4.755-.545 1.09-1.959.77-2.924.604-1.415-.337-2.894-.495-4.246-1.047-1.246-.659-1.139-2.277-1.183-3.482.014-3.045-.084-6.097.093-9.137-.01-1.02.966-1.544 1.84-1.721 1.628-.376 3.23-.883 4.895-1.078zm-12.22 29.613c1.61.546 3.031 1.55 4.466 2.446.713.523 1.928 1.135 1.572 2.212-.653 1.4-1.93 2.387-2.946 3.52-2.333 2.297-4.551 4.721-7.046 6.846-.594.572-1.647.832-2.201.063-1.3-1.628-2.377-3.442-3.299-5.309-.39-.88.593-1.56 1.064-2.179 2.288-2.383 4.587-4.768 7.042-6.98.382-.305.823-.688 1.347-.619m-61.368.002c1.077.134 1.75 1.161 2.537 1.807 2.178 2.197 4.463 4.305 6.468 6.664.51.492.511 1.24.107 1.797-.945 1.728-1.915 3.48-3.18 4.994-.761.725-1.807.106-2.427-.49-2.781-2.535-5.392-5.253-8.046-7.92-.705-.839-1.882-1.811-1.465-3.041.653-1.13 1.992-1.584 3-2.326.96-.542 1.891-1.322 3.006-1.485m30.62 14.895c2.006.057 4.035-.111 6.027.175 1.15.31 1.226 1.704 1.517 2.66.34 1.43.649 2.87.973 4.305-.387.43-.666 1.075-1.12 1.372l-14.802.099c-.604-.667-1.243-1.555-.83-2.492.459-1.776.642-3.655 1.4-5.336.588-.942 1.873-.664 2.815-.761 1.34-.024 2.68-.014 4.02-.022"/></svg>