<?xml version="1.0" encoding="UTF-8" standalone="no"?>
<svg
   width="92.866951mm"
   height="66.308807mm"
   viewBox="0 0 92.866951 66.308807"
   version="1.1"
   xml:space="preserve"
   xmlns="http://www.w3.org/2000/svg"
   xmlns:svg="http://www.w3.org/2000/svg"><path
     style="fill:#000000"
     d="m 6.242915,66.082219 c 0,-0.30105 -0.734742,-5.85317 -0.933977,-7.05764 -0.126174,-0.76278 -0.239835,-0.84487 -1.387664,-1.0022 -2.928226,-0.40139 -2.791163,-0.30522 -2.612903,-1.83327 0.499261,-4.2797 1.545518,-15.82695 1.525715,-16.8389 -0.01282,-0.65484 -0.655726,-5.14305 -1.428693,-9.9738 L 0,20.593229 1.467812,20.115989 c 1.362235,-0.44291 1.465685,-0.53433 1.438246,-1.27099 -0.01626,-0.43656 -0.07393,-2.16296 -0.128155,-3.83645 l -0.09859,-3.04271 0.921904,-0.13229 c 0.901153,-0.12932 0.923668,-0.16249 1.000226,-1.47375 0.07717,-1.3216796 0.08984,-1.3397596 0.859896,-1.2267396 0.429866,0.0631 0.783812,0.0119 0.786547,-0.11375 0.0027,-0.12566 0.238623,-2.01441 0.524194,-4.19722 0.285571,-2.18281 0.521458,-4.18512997 0.524194,-4.44959997 0.0035,-0.33664 0.143835,-0.43679 0.467993,-0.33393 0.999815,0.31727 8.483127,1.49393997 12.692084,1.99569997 12.815534,1.52777 21.833297,1.97073 36.237587,1.78001 13.13164,-0.17386 20.89279,-0.75255 29.18856,-2.17637 1.23692,-0.2123 2.31938,-0.38638 2.40546,-0.38684 0.0861,-4.7e-4 0.30097,1.57673 0.47754,3.50488 0.50816,5.5491896 0.34994,5.14958 2.12029,5.3550496 0.8324,0.0966 1.66134,0.26705 1.84207,0.37875 0.35281,0.21805 0.17002,1.88216 -2.16754,19.73235 l -1.1434,8.73125 0.33152,4.63021 c 0.47984,6.70187 0.48288,6.61379 -0.22792,6.61863 -1.20155,0.008 -1.29773,0.2671 -1.20843,3.25309 l 0.084,2.80703 -0.66146,0.0768 c -0.64503,0.0749 -0.66803,0.15233 -0.92604,3.11947 l -0.26459,3.04271 -1.71979,-0.17673 c -10.22276,-1.0505 -34.07754,-0.89575 -49.080205,0.3184 -9.495531,0.76846 -19.57034,1.9948 -25.929165,3.15619 -3.348345,0.61155 -3.571875,0.62926 -3.571875,0.28311 z m 7.14375,-4.36585 c 15.923117,-2.48839 43.134573,-3.99224 60.536853,-3.34558 4.6129,0.17141 8.62523,0.33745 8.91627,0.36898 0.45496,0.0493 0.54064,-0.12305 0.61101,-1.22888 l 0.0818,-1.28619 -16.08913,0.13225 c -16.01266,0.13162 -23.66008,0.42812 -39.240177,1.52137 -7.730558,0.54246 -18.38348,1.50637 -18.996491,1.71887 -0.24132,0.0837 -0.294168,0.41492 -0.177822,1.11467 0.272219,1.63724 0.32623,1.71215 1.116283,1.54828 0.400302,-0.083 1.858916,-0.32773 3.241364,-0.54377 z m 2.043425,-6.21623 c 17.508919,-1.65246 38.977098,-2.65177 57.024798,-2.65441 l 12.10469,-0.002 v -1.47751 -1.47751 l -2.84427,0.16234 c -1.56435,0.0893 -7.60677,0.33984 -13.4276,0.55679 -5.82084,0.21695 -14.45287,0.56699 -19.18229,0.77787 -4.72943,0.21088 -10.08724,0.44454 -11.906254,0.51924 -13.72423,0.5636 -28.476818,1.31443 -28.643072,1.45778 -0.110201,0.095 -0.123783,0.7315 -0.03018,1.41439 0.203614,1.48552 -0.451123,1.41698 6.904181,0.72279 z m 17.271157,-6.88977 c 6.766721,-0.28302 16.887031,-0.69813 22.489581,-0.92247 5.60255,-0.22434 12.69229,-0.52523 15.75498,-0.66863 3.06269,-0.1434 5.87717,-0.26073 6.25441,-0.26073 0.58372,0 0.71309,-0.14779 0.86853,-0.99218 0.29464,-1.60054 1.07371,-3.11687 2.266,-4.41036 1.34071,-1.45449 2.30576,-2.07261 4.19216,-2.68507 l 1.42253,-0.46186 -0.16225,-3.19974 c -0.0892,-1.75986 -0.22705,-5.16427 -0.30623,-7.56537 -0.20107,-6.09692 -0.36174,-7.67291 -0.78228,-7.67291 -0.19137,0 -1.11694,-0.23752 -2.05682,-0.52782 -2.66595,-0.82343 -4.79628,-2.9024 -5.75042,-5.61176 l -0.48163,-1.36763 -1.41522,0.0548 c -2.18379,0.0846 -25.13306,1.04561 -38.986049,1.63256 -6.839479,0.28978 -13.983229,0.592 -15.874999,0.67158 -1.891771,0.0796 -3.930685,0.204 -4.53092,0.27646 -1.064841,0.12856 -1.094465,0.15952 -1.220207,1.2751 -0.353552,3.1367 -3.478166,6.44949 -6.750435,7.15697 -1.027124,0.22207 -0.968136,-0.83701 -0.560629,10.06575 0.200761,5.37132 0.407479,8.26917 0.598961,8.39647 0.160818,0.10691 0.49629,0.19621 0.745492,0.19843 0.249203,0.002 1.112008,0.25059 1.917346,0.5519 2.517875,0.94206 4.852106,3.5135 5.785684,6.37364 0.121844,0.37329 0.453701,0.42181 2.211324,0.32331 1.137382,-0.0637 7.604373,-0.34745 14.371091,-0.63047 z m 9.525001,-4.46743 c -2.44151,-0.78936 -3.75419,-1.61115 -5.708815,-3.57398 -2.984832,-2.99735 -4.259817,-6.3281 -4.011344,-10.47916 0.61621,-10.29457 11.549279,-16.42729 20.643959,-11.57987 1.83015,0.97545 4.32984,3.33623 5.31808,5.02253 4.70626,8.03063 0.55048,18.35901 -8.33903,20.72504 -1.99628,0.53133 -6.08858,0.47201 -7.90285,-0.11456 z m 5.76507,-4.62503 c -0.11688,-1.08662 -0.1089,-1.09805 1.22583,-1.7552 1.07078,-0.52719 1.47031,-0.91719 1.96836,-1.92135 1.33597,-2.69356 -1.2e-4,-5.11332 -3.45484,-6.25701 -0.9744,-0.32258 -2.07573,-0.82571 -2.4474,-1.11807 -1.93807,-1.52448 0.61326,-3.55896 3.13944,-2.50345 1.34899,0.56364 1.34572,0.56451 2.02562,-0.5356 0.57468,-0.92986 0.57745,-0.96729 0.0927,-1.25677 -0.27477,-0.16411 -1.09715,-0.4908 -1.82751,-0.72599 -1.24773,-0.40179 -1.33294,-0.48658 -1.41094,-1.40403 -0.0808,-0.95104 -0.10834,-0.9743 -1.05833,-0.8953 -0.93523,0.0778 -0.97532,0.12169 -0.97532,1.06802 0,0.90387 -0.1,1.03743 -1.18849,1.58749 -1.60078,0.80895 -2.38339,2.02958 -2.38339,3.71736 0,2.28179 1.08853,3.40309 4.44189,4.57561 1.69026,0.59101 2.43728,1.23696 2.43728,2.10752 0,1.64764 -2.78796,2.34678 -4.70275,1.17933 -0.47646,-0.29049 -0.91294,-0.52817 -0.96996,-0.52817 -0.057,0 -0.4724,0.46557 -0.92309,1.03462 l -0.81944,1.03462 0.8858,0.54745 c 0.48719,0.3011 1.50077,0.6894 2.25241,0.8629 1.33951,0.3092 1.36661,0.33467 1.36661,1.28425 0,0.53284 0.0533,1.02214 0.11855,1.08734 0.0652,0.0652 0.6149,0.0712 1.22157,0.0134 l 1.10302,-0.10519 z m -27.897041,-3.89633 c -1.150564,-0.33331 -2.380972,-1.81523 -2.604205,-3.13653 -0.409215,-2.42213 2.06016,-5.04971 4.354116,-4.63308 2.280459,0.41418 3.446748,1.75333 3.446748,3.95762 0,1.72755 -0.727446,2.9192 -2.1863,3.58144 -1.223118,0.55524 -1.750239,0.59561 -3.010359,0.23055 z m 49.240441,-2.58513 c -1.85884,-1.13355 -2.42234,-3.7135 -1.23183,-5.63979 2.04547,-3.30965 7.1943,-1.76093 7.1943,2.16397 0,3.04064 -3.41325,5.03039 -5.96247,3.47582 z M 28.600206,10.767699 c 6.548437,-0.28451 19.407182,-0.8124196 28.575002,-1.1731296 9.16781,-0.36071 17.8231,-0.73125 19.23398,-0.82343 l 2.56524,-0.16761 -0.70215,-1.09697 c -0.38618,-0.60333 -0.7209,-1.13062 -0.74382,-1.17174 -0.0229,-0.0411 -2.23053,0.13387 -4.9058,0.38887 -7.0768,0.67454 -30.68874,0.67732 -38.995369,0.005 -5.673995,-0.45952 -12.524825,-1.11076 -14.450935,-1.37371 -0.928726,-0.12678 -0.970766,-0.0951 -1.41398,1.06544 -0.546396,1.43071 -2.538195,3.55275 -4.06657,4.3324696 -0.606589,0.30946 -1.102889,0.61604 -1.102889,0.68129 0,0.0652 0.922734,0.0585 2.050521,-0.0151 1.127786,-0.0735 7.408333,-0.36648 13.95677,-0.65099 z" /></svg>
