<svg xmlns="http://www.w3.org/2000/svg" xml:space="preserve" width="431.907" height="308.403" viewBox="0 0 114.275 81.598"><path d="M100.945.016c-1.966 1.253-3.984 2.447-6.156 3.318-4.605 1.976-9.539 2.951-14.43 3.928A5634 5634 0 0 1 20.6 19.148c-6.1 1.168-12.283 2.108-18.511 2.01-.68.035-1.58-.047-2.089.098 3.72 7.205 5.953 15.048 8.023 22.853 1.723 6.788 3.41 13.654 3.755 20.676.086 2.057.017 4.126-.321 6.158 6.02-2.148 12.258-3.602 18.466-5.099 8.94-2.076 17.933-3.916 26.915-5.802 6.206-1.242 12.393-2.58 18.603-3.799a4196 4196 0 0 0 20.745-3.926c5.44-.98 10.989-1.165 16.505-1.138.53.01 1.055.083 1.584.09-2.134-3.664-3.788-7.598-5.16-11.606-2.057-6.18-3.693-12.492-5.321-18.795-1.327-5.868-2.29-11.833-2.678-17.84-.079-1.008.01-2.026-.132-3.028zm-12.431 8.06c.702.09.713 1.018 1.186 1.435.833 1.034 1.596 2.304 2.884 2.805 1.919.223 3.862-.041 5.79-.045.522.048 1.384-.324 1.268.511 1.011 6.296 2.655 12.447 4.207 18.62a237 237 0 0 0 3.393 11.989c-2.183.416-4.368.826-6.545 1.273.254 1.273.881 2.55.723 3.863-.175.607-1.027.454-1.515.675-13.535 2.874-27.14 5.42-40.7 8.185-11.787 2.395-23.545 5.035-35.293 7.648-.783.289-1.02-.698-1.156-1.265-.357-1.15-.322-2.528-1.166-3.457-1.6-1.207-3.777-1.002-5.644-.703l-2.339.42c-.728-5.984-2.158-11.945-3.554-17.85-.712-3.156-1.757-6.241-2.28-9.437-.188-.808.679-1.308 1.378-1.313 1.795-.654 3.516-1.596 4.994-2.809.365-.396.936-.725.643-1.34-.127-1.362-.466-2.74-.349-4.107.145-.56.964-.434 1.423-.625 15.899-3.291 31.86-6.296 47.756-9.588 7.845-1.582 15.66-3.3 23.531-4.742.451-.065.907-.176 1.365-.143m-1.89 3.12c-4.95.826-9.845 1.968-14.767 2.945A2141 2141 0 0 0 59.6 16.697c1.16.161 1.33 1.536 1.658 2.439.101.54.396 1.111 1.03 1.102 1.726.274 3.51-.076 5.218.284.894.421.88 1.588 1.193 2.402.419 1.638.89 3.27 1.164 4.94-.234.922-1.4.972-2.161 1.23-1.397.338-2.803.631-4.206.941-.345-.477-.608-.732-.407.029.083.38-.012 1 .565.967 2.932.398 5.897 1.505 7.911 3.754 1.456 1.509 2.208 3.594 2.14 5.681.032 1.98-.518 4.01-1.859 5.512-.949 1.195-2.102 2.27-3.504 2.9.244 1.156.41 2.34.799 3.46 8.389-1.399 16.746-3.295 25.136-4.873 1.247-.228 2.509-.4 3.733-.737-.168-1.246-.857-2.38-.924-3.634.25-1.082 1.596-1.018 2.457-1.23 1.188-.207 2.393-.373 3.537-.764-.58-2.682-1.516-5.273-2.168-7.938-1.436-5.17-2.7-10.381-3.919-15.605-.189-.665-.297-1.412-.618-2.004-2.217-.412-4.513-.33-6.702-.927q-1.015-.262-2.03-.52c-.188-.955-.147-1.965-.485-2.874-.165-.08-.359-.036-.535-.037m-36.538 7.372-29.718 5.98c-.673.225-1.557.227-2.028.813-.126 1.135.155 2.21.332 3.352.032.568.62 1.425-.004 1.959-.82.534-1.877.504-2.733.988-1.547.68-3.092 1.396-4.511 2.317 1.844 6.591 3.281 13.286 4.712 19.976.16.832.343 1.66.477 2.498 2.563.079 5.144-.088 7.694.178.586.192.497 1.037.665 1.546.229 1.137.302 2.328.633 3.432 1.14-.07 2.431-.45 3.636-.671 9.388-2.035 18.776-4.234 28.183-6.105 1.087-.225 2.167-.481 3.248-.731-.241-1.096-.443-2.208-.772-3.28-2.385-.601-4.922-.67-7.207-1.627-.652-.4-.527-1.348-.745-2.009-.205-1.341-.562-2.691-.538-4.05.142-.565.953-.602 1.442-.779 1.72-.416 3.5-.422 5.246-.67-.234-.563-.293-1.26-.694-1.724-1.875-.12-3.701-.734-5.412-1.486-2.998-1.623-4.913-5.197-4.244-8.597.323-2.353 1.703-4.42 3.492-5.93a18 18 0 0 1 2.43-1.874c.064-1.263-.602-2.57-.168-3.812.343-.45.43-.499-.226-.32zm7.457.856c-.391.106-.908.053-1.227.3.038 1.196.617 2.385.362 3.583-1.063 1.013-2.596 1.372-3.657 2.408-1.78 1.435-2.54 3.8-2.32 6.03.19 2.15 1.974 3.888 3.954 4.553 1.662.604 3.356.695 5.118.903.639 2.366 1.346 4.714 1.903 7.1-.293.854-1.391.602-2.096.628-1.618-.009-3.179-.52-4.787-.52-.478.112-.155.818-.166 1.162.099.54.182 1.254.879 1.286 2.187.69 4.496.82 6.775.752.261 1.152.406 2.432.764 3.504.845-.109 1.663-.358 2.5-.511-.072-1.211-.69-2.41-.434-3.625.441-.844 1.573-.878 2.199-1.552 1.43-1.227 2.933-2.75 3.033-4.747.345-2.416-1.115-4.88-3.358-5.808-1.963-.833-4.124-.979-6.204-1.348-.447-2.296-1.125-4.558-1.367-6.887-.108-.813.73-1.252 1.436-1.128 1.222.017 2.297.653 3.415 1.037.574-.026 1.236-.174 1.704-.478-.022-.918-.161-1.936-.729-2.68-1.812-.575-3.771-.194-5.625-.523-.97-.18-.81-1.36-1.052-2.084-.157-.454-.106-1.188-.392-1.45zM56.22 26.56c.906.247.89 1.415 1.075 2.17.18 1.313.506 2.568.618 3.886-.152.913-1.304.742-1.965.555-1.922-.524-2.654-2.973-1.805-4.655.412-.822 1.011-1.805 1.981-1.978zm7.336 10.632c1.549.195 3.006 1.341 3.498 2.829.325 1.775-.876 3.856-2.71 4.175-.833-.143-.58-1.212-.809-1.819-.285-1.567-.598-3.13-.85-4.702.134-.397.466-.538.87-.483M6.9 52.323c-.848.093-1.701.188-2.525.42.46 1.344 1.022 2.663 1.274 4.074.39 1.766.68 3.562.726 5.372.882-.187 1.677-.485 2.584-.771-.433-3.036-.835-6.157-1.514-9.092-.179-.035-.364-.014-.545-.004m95.256 1.911c-1.038.093-2.289-.081-3.023.832-.843.755-1.372 1.815-2.258 2.514-.84.19-.923-.88-.756-1.462-.07-.296.614-1.045.19-.945-7.591 1.524-15.228 2.71-22.808 4.267-11.982 2.376-23.93 5.025-35.91 7.443-3.523.725-7.023 1.557-10.53 2.35-4.91 1.221-9.856 2.346-14.629 4.04-1.026.354-2.095.534-3.168.674-.05-2.873.14-5.771-.254-8.625-.063-.491-.694-.05-.996-.027-.432.208-1.13.236-1.397.569.071 4.562-.318 9.15-1.408 13.587 2.963-.879 5.872-1.943 8.836-2.81 2.527-.42 5.11-.241 7.66-.305 18.882-.066 37.768.273 56.621 1.33 9.619.506 19.226 1.234 28.835 1.91.593.121 1.075.066.695-.663-.255-.692-.18-1.61-.783-2.12-1.5-.542-3.142-.533-4.708-.783-7.514-.903-15.137-1.307-22.691-1.787-11.461-.69-22.951-.617-34.42-1.075-.508.074-.76-.806-.249-1.009.954-.332 2.005-.245 3-.352-3.622-.103-7.255-.07-10.868-.35-.456-.101-1.01-.642-.348-.933.707-.38 1.637-.17 2.432-.266 18.162-.345 36.352.17 54.443 1.843 4.963.446 9.96 1.147 14.856 1.835.832.293.967-.106.748-.857-.61-4.836-1.59-9.73-1.892-14.638-.091-1.314.011-2.92.561-3.985-1.046.366-1.91 1.11-2.925 1.521-.947.102-.9-1.196-.42-1.703a31 31 0 0 0-2.436-.02m1.33 3.438c.735-.109 1.356.477 1.348 1.207.348 3.497.56 7.01.74 10.52.029.758-.785 1.112-1.424.865-9.637-1.267-19.32-1.8-29.04-2.088-7.345-.239-14.691-.558-22.036-.778-.553.033-.943-.552-.546-.967.708-.512 1.698-.409 2.53-.578 4.307-.383 8.623-.693 12.933-1.027 9.168-.46 18.35-.476 27.527-.62v-5.747c2.692.151 5.286-.789 7.968-.787m-1.87 3.262c-.797.068-1.607.15-2.366.414-.224 1.738.103 3.509-.104 5.25.991.041 1.984.038 2.975.054q-.126-2.862-.236-5.724zM23.63 79.29c-3.203.092-6.4.051-9.549.752-1.48.428-2.949.895-4.424 1.34 7.607.292 15.221.173 22.831.215 16.214 0 32.427-.053 48.64-.168-15.487-.834-30.972-1.818-46.484-2.06a361 361 0 0 0-11.014-.079"/></svg>