<?xml version="1.0" encoding="UTF-8" standalone="no"?>
<svg
   width="86.802139mm"
   height="81.322159mm"
   viewBox="0 0 86.802139 81.322159"
   version="1.1"
   id="svg1"
   xml:space="preserve"
   xmlns="http://www.w3.org/2000/svg"
   xmlns:svg="http://www.w3.org/2000/svg"><g
     style="display:inline"
     transform="translate(-64.2486,-107.90918)"><path
       style="display:inline;fill:#000000"
       d="m 84.133883,107.90918 -0.681096,0.894 c -1.36629,1.79326 -10.554089,12.68954 -14.690059,17.42167 -4.79445,5.48552 -4.831974,5.53647 -4.270024,5.75211 0.31232,0.11985 0.367323,0.41629 0.243913,1.31671 -0.10094,0.73643 -0.04324,1.30156 0.157613,1.54358 0.23942,0.28853 0.24701,0.75789 0.03204,1.92081 -0.15651,0.84648 -0.180811,1.57372 -0.05426,1.61592 0.12656,0.0422 0.434723,0.22596 0.684713,0.40876 0.40914,0.29917 0.425768,0.55613 0.164848,2.57039 -0.15943,1.23078 -0.347329,2.49572 -0.417029,2.8112 -0.10685,0.4836 0.07042,0.6463 1.129647,1.03611 0.691,0.25428 1.348926,0.54097 1.461926,0.63717 0.28566,0.24325 -0.933539,2.34831 -2.180229,3.76463 -0.89949,1.02189 -0.988208,1.23078 -0.661458,1.55753 0.52909,0.52908 1.366221,3.97412 1.590601,6.54637 0.16692,1.91348 0.253388,2.17779 0.749308,2.28306 0.30846,0.0655 1.572718,0.3096 2.809648,0.5426 4.74601,0.89399 11.177523,2.83227 17.514693,5.27875 2.51864,0.97233 2.566933,1.00741 2.645833,1.91306 0.0737,0.84662 0.199787,0.97081 1.535307,1.51464 2.25657,0.91888 6.246819,2.90089 8.801012,4.37131 1.27506,0.73404 2.42764,1.33428 2.5616,1.33428 0.13396,0 0.31895,-0.23812 0.41135,-0.52916 0.0924,-0.29104 0.26491,-0.52917 0.38292,-0.52917 0.81018,0 14.69953,8.37882 22.44049,13.53716 1.49306,0.99493 2.74754,1.80867 2.78794,1.80867 0.0404,0 1.09061,-1.22039 2.33371,-2.71198 1.2431,-1.49158 4.2946,-5.21229 6.7815,-8.26822 2.48691,-3.05594 6.08084,-7.45986 7.98659,-9.78649 1.90575,-2.32662 3.41025,-4.37364 3.34295,-4.54907 -0.0673,-0.17542 -0.27119,-2.06674 -0.45269,-4.20285 -0.20746,-2.44172 -0.45821,-4.012 -0.67541,-4.2292 -0.43495,-0.43492 -0.43987,-0.82476 -0.0145,-1.10019 0.1819,-0.11778 0.65227,-0.57087 1.04542,-1.00666 l 0.71468,-0.7922 -0.78083,-2.90938 c -0.42941,-1.60011 -0.78071,-3.18116 -0.78083,-3.51348 -1.6e-4,-0.40952 -0.29773,-0.77989 -0.92294,-1.14877 -1.07989,-0.63715 -1.18662,-0.31661 1.46451,-4.38939 1.01742,-1.56299 1.79086,-2.99545 1.71876,-3.18327 -0.11853,-0.30888 -0.82422,-5.67547 -0.99891,-7.59695 l -0.0708,-0.7829 -5.02709,-0.73122 c -9.05068,-1.31569 -21.7906,-4.26538 -21.59765,-5.00073 0.0541,-0.20626 0.15271,-0.56595 0.21911,-0.79943 0.0954,-0.33529 -0.22509,-0.49254 -1.52497,-0.74828 -1.97444,-0.38845 -8.88074,-2.74024 -10.60607,-3.61167 l -1.2299,-0.62115 -0.64906,0.84181 -0.64957,0.84181 -4.33203,-1.68568 c -6.579191,-2.56047 -15.565903,-6.69869 -18.877403,-8.6925 z m 0.834574,3.53105 c 0.49661,-0.0102 5.585542,2.55141 5.515942,2.77657 -0.10146,0.32818 -3.320977,1.41191 -5.066357,1.70532 -1.79272,0.30135 -4.365625,0.33613 -4.365625,0.0589 0,-0.28432 3.66639,-4.5358 3.91604,-4.5408 z m 7.869287,5.79602 c 0.50969,-0.026 0.636956,0.18417 0.645956,0.61702 0.008,0.36972 1.574476,0.99891 2.487186,0.99891 0.50708,0 1.250516,-0.12484 1.652096,-0.27751 0.62461,-0.23748 1.324751,-0.0598 4.845698,1.22887 2.26365,0.82847 4.21997,1.59919 4.34702,1.71256 0.12705,0.11337 -0.43596,1.15142 -1.25057,2.30735 -1.44928,2.05654 -1.52015,2.11475 -3.31969,2.69338 -2.346809,0.7546 -4.566947,2.51264 -5.689577,4.50618 -0.7541,1.33916 -0.820407,1.65769 -0.832507,3.99304 l -0.01292,2.53783 -1.685685,2.0376 c -0.92692,1.1206 -1.813669,1.97899 -1.970939,1.90789 -0.15727,-0.0711 -2.131243,-0.9138 -4.386813,-1.87275 -5.11598,-2.17505 -4.831987,-2.00812 -5.085477,-2.98638 -0.28682,-1.10689 -1.327801,-1.86823 -2.826701,-2.06706 l -1.239718,-0.16433 -0.286804,-1.75907 c -0.36791,-2.25598 -1.210014,-4.45221 -2.364714,-6.16809 -0.50294,-0.74737 -0.880942,-1.44836 -0.839742,-1.55753 0.0412,-0.10916 1.021572,-1.28183 2.178162,-2.60604 1.88268,-2.15553 2.197602,-2.40761 3.008602,-2.40761 2.10907,0 6.751174,-0.89791 9.685714,-1.87379 1.53955,-0.51198 2.431742,-0.77447 2.941422,-0.80047 z m 18.163236,3.37809 c 0.31812,-0.0119 1.34698,0.28207 2.48305,0.71934 1.29837,0.49974 3.22429,1.16944 4.27932,1.48828 1.05502,0.31885 1.91823,0.67031 1.91823,0.78083 0,0.11052 -0.57087,0.96425 -1.26814,1.89704 -0.69728,0.93279 -1.65519,2.25938 -2.12907,2.94814 -0.47389,0.68877 -0.89634,1.25212 -0.93844,1.25212 -0.0421,0 -0.57829,-0.47743 -1.19166,-1.06091 -1.42106,-1.35182 -3.2044,-2.254 -5.17591,-2.61845 -0.85459,-0.15798 -1.59087,-0.32438 -1.63607,-0.36948 -0.0773,-0.0773 3.10862,-4.5535 3.56774,-5.01262 0.0146,-0.0143 0.0454,-0.0223 0.0909,-0.0243 z m 10.06243,5.77639 c 0.0957,-0.008 0.19637,0.0108 0.31058,0.0501 0.30607,0.10526 2.46156,0.74214 4.78989,1.4149 2.32834,0.67276 4.2482,1.36286 4.2664,1.53376 0.0181,0.17089 0.0479,0.49116 0.0661,0.71158 0.0609,0.73745 1.64444,1.49349 2.81946,1.34617 l 1.06661,-0.13384 0.43511,2.10323 c 0.51957,2.51267 1.45389,4.64451 2.84065,6.48126 l 1.0201,1.35082 -2.31046,3.41995 -2.31045,3.41995 -1.69757,0.17776 c -2.0441,0.21374 -7.5218,1.76996 -9.97769,2.83497 -1.9126,0.82941 -2.43602,0.9565 -2.43602,0.58963 0,-0.42701 -1.78155,-1.08882 -2.93161,-1.08882 -0.62252,0 -1.49769,0.12971 -1.94458,0.28835 -0.72285,0.2566 -1.23581,0.12212 -4.64881,-1.22163 -2.11005,-0.83076 -3.86879,-1.53873 -3.90829,-1.57303 -0.0395,-0.0343 0.83391,-1.44324 1.94097,-3.13108 1.73783,-2.64951 2.20662,-3.17842 3.43028,-3.86901 2.99281,-1.68905 4.41122,-3.87005 4.52375,-6.95513 0.0618,-1.6935 0.13248,-1.86843 1.48983,-3.70417 0.78354,-1.0597 1.7608,-2.43516 2.17196,-3.05666 0.46023,-0.69568 0.70656,-0.96459 0.99374,-0.98909 z M 70.753304,127.555 c 0.48982,0.0304 2.630925,2.78851 3.111955,4.07417 0.49979,1.33586 0.767849,3.09801 0.471289,3.09801 -0.0557,0 -1.607075,-0.72789 -3.447335,-1.61748 -2.9595,-1.43062 -3.307222,-1.66746 -3.011702,-2.05052 0.18376,-0.2382 0.8678,-1.08789 1.52032,-1.88825 0.65252,-0.80036 1.228942,-1.5132 1.280542,-1.5844 0.017,-0.0235 0.04233,-0.0335 0.07493,-0.0315 z m 35.566826,0.44132 c 2.70377,0 4.07337,0.46964 5.80739,1.99213 1.25138,1.09873 1.73323,2.19584 1.73323,3.94704 0,1.65813 -0.69973,3.10321 -2.03502,4.20388 -2.85332,2.35194 -6.59306,2.89696 -9.87071,1.43816 -1.79158,-0.79738 -2.572695,-1.49601 -3.204975,-2.86598 -1.05652,-2.28916 -0.364389,-5.17752 1.616435,-6.74636 1.89075,-1.49751 3.31612,-1.96887 5.95365,-1.96887 z m -2.11409,0.67438 c -0.48269,0.0124 -0.7204,0.27768 -0.49506,0.67231 0.13469,0.2359 -0.14185,0.5186 -0.90744,0.92656 -0.90171,0.48048 -1.15265,0.77372 -1.38337,1.6185 -0.22908,0.839 -0.16826,1.19581 0.32349,1.90738 0.56128,0.81212 0.78603,0.92477 3.12229,1.5627 2.31292,0.63154 3.10993,1.09266 2.49494,1.44384 -0.11579,0.0661 -1.18535,-0.0158 -2.37712,-0.18242 -2.05656,-0.28756 -2.17567,-0.27067 -2.33991,0.33073 -0.16648,0.60964 -0.10368,0.65565 1.65675,1.21388 1.40001,0.44389 1.80628,0.66756 1.72858,0.95188 -0.0686,0.25114 0.17459,0.44713 0.74931,0.60409 0.98399,0.26868 1.34898,0.14333 1.11052,-0.38189 -0.11889,-0.26172 0.19611,-0.52939 1.07332,-0.91105 0.92825,-0.40393 1.29271,-0.72557 1.44229,-1.27331 0.50985,-1.86721 -0.33383,-2.699 -3.56567,-3.51555 -2.69906,-0.68191 -3.16514,-1.00569 -2.1699,-1.50843 0.52748,-0.26653 1.03453,-0.24052 2.27325,0.11679 1.59289,0.45945 1.59507,0.45903 2.08876,-0.32091 0.2736,-0.43232 0.41206,-0.86843 0.31006,-0.97772 -0.10131,-0.10853 -1.04867,-0.43808 -2.1053,-0.73277 -1.48833,-0.41478 -1.89901,-0.61739 -1.82211,-0.89917 0.0635,-0.23237 -0.17153,-0.43804 -0.65112,-0.56896 -0.20725,-0.0566 -0.39566,-0.0806 -0.55656,-0.0765 z m 34.71985,1.3069 c 0.0859,0.002 0.20333,0.0315 0.35915,0.0729 0.35035,0.0931 2.00639,0.42086 3.67988,0.72812 3.69704,0.6788 3.77246,0.70102 3.65094,1.06557 -0.18088,0.54265 -3.7824,6.04379 -3.96152,6.05079 -0.0978,0.004 -0.61144,-0.49878 -1.14153,-1.11724 -1.23571,-1.44173 -2.47197,-4.03165 -2.69234,-5.63945 -0.12646,-0.92261 -0.15244,-1.16665 0.10542,-1.16065 z m -71.38531,3.69124 c 0.1358,0 2.973745,1.39899 6.306075,3.10886 5.60219,2.87458 7.585173,3.98594 7.175273,4.02094 -0.0893,0.008 -2.291962,-0.88886 -4.894792,-1.99264 -6.33723,-2.6874 -8.833052,-3.99807 -8.833052,-4.63745 0,-0.27483 0.110696,-0.49971 0.246496,-0.49971 z m -0.168465,2.54713 c 0.15115,-0.0153 0.504886,0.0824 0.914156,0.26149 0.5457,0.23879 5.394066,2.19522 10.774536,4.34805 5.38046,2.15283 9.826634,4.04678 9.880534,4.20853 0.0539,0.16175 0.03341,0.46338 -0.04599,0.67024 -0.11545,0.30083 -0.636552,0.17349 -2.604492,-0.63562 -1.35318,-0.55635 -4.109017,-1.69103 -6.123657,-2.52129 -4.31653,-1.7789 -12.873116,-5.95115 -12.873116,-6.27713 0,-0.0312 0.02763,-0.0493 0.07803,-0.0543 z m 81.004875,0.3297 c 0.0938,0.009 0.14418,0.11103 0.14418,0.31161 0,0.78618 -2.49135,4.60636 -6.46111,9.90844 -3.53131,4.71648 -11.58847,14.39675 -11.99358,14.40945 -0.1819,0.006 -0.33073,-0.27208 -0.33073,-0.61753 0,-0.38449 0.57248,-1.28235 1.4764,-2.3151 3.54715,-4.0527 4.37523,-5.02225 6.63887,-7.77265 3.59246,-4.36497 7.23195,-9.25895 8.70024,-11.69852 0.87275,-1.45007 1.54452,-2.2532 1.82573,-2.2257 z m -51.023759,3.05253 c 0.15836,0.014 0.400244,0.19823 0.638204,0.50074 1.05716,1.34396 5.087925,2.83032 7.674985,2.83032 h 1.04025 l -2.1115,2.95021 -2.1115,2.94969 -0.001,8.49354 c -6.6e-4,4.67134 -0.0787,9.83452 -0.17311,11.47372 l -0.17157,2.98018 -0.58911,-0.38603 c -0.324,-0.2123 -2.062226,-1.14833 -3.862296,-2.07997 -1.80007,-0.93165 -3.659625,-1.82515 -4.132565,-1.98541 l -0.859895,-0.29146 v -11.00604 -11.00657 l 2.158524,-2.56728 c 1.18726,-1.41204 2.255249,-2.67713 2.373499,-2.8112 0.03102,-0.0354 0.07432,-0.0494 0.127124,-0.0444 z m -28.109396,0.94981 c 0.38311,0 6.514829,2.8587 6.201689,2.8913 -0.10047,0.0105 -0.993435,-0.26647 -1.984375,-0.61547 -0.99093,-0.349 -2.426523,-0.78833 -3.190503,-0.97617 -1.03862,-0.25535 -1.389062,-0.46236 -1.389062,-0.82062 0,-0.26353 0.162861,-0.47904 0.362251,-0.47904 z m -0.547253,1.88309 c 0.15215,-0.007 0.363112,0.0149 0.648022,0.0605 1.72798,0.27681 8.661787,2.48345 13.914397,4.42815 2.78804,1.03224 5.218287,1.92216 5.400187,1.97766 0.1819,0.0554 0.330729,0.46017 0.330729,0.89917 v 0.79789 l -1.389063,-0.55604 c -0.76398,-0.30597 -3.710787,-1.45108 -6.548437,-2.54455 -2.83766,-1.09348 -6.856018,-2.53106 -8.929688,-3.19464 -2.54077,-0.81306 -3.770312,-1.33036 -3.770312,-1.58646 0,-0.18184 0.09059,-0.27064 0.344165,-0.28164 z m 5.822384,4.01991 c 0.06059,-0.001 0.195586,0.0227 0.367936,0.0558 1.06383,0.20439 13.232572,5.02516 13.733012,5.44049 0.45917,0.38106 0.479054,0.7718 0.03927,0.77153 -0.1819,-1.2e-4 -1.104641,-0.37127 -2.050521,-0.82475 -0.94589,-0.45348 -3.505722,-1.59894 -5.688542,-2.54507 -5.53058,-2.3972 -6.663749,-2.89101 -6.401159,-2.89801 z m -4.105176,1.02061 c 0.0081,0 0.01574,0.002 0.02274,0.005 0.11071,0.0457 1.621784,0.71467 3.357934,1.48724 6.21745,2.7667 6.431867,2.91942 2.116667,1.50586 -1.55482,-0.50932 -3.647806,-1.06158 -4.651396,-1.22732 l -1.824695,-0.30127 0.399976,-0.77412 c 0.20635,-0.39902 0.457016,-0.69704 0.578776,-0.69504 z m 76.83872,2.33681 c 0.15403,0.0132 0.21032,0.19216 0.21032,0.50384 0,0.52182 -2.8488,3.83827 -6.55567,7.63209 -2.12997,2.17994 -3.03897,2.77908 -2.40864,1.5875 0.36105,-0.68255 1.79936,-2.42794 4.95991,-6.01823 2.36741,-2.68931 3.40043,-3.7389 3.79408,-3.7052 z m -77.775614,0.005 c 2.05383,0.0159 11.968665,3.32712 17.065625,5.6994 1.99245,0.92735 2.447396,1.24659 2.447396,1.71721 0,0.76018 -0.271673,0.68904 -4.921663,-1.28933 -3.83338,-1.63094 -12.062201,-4.73487 -14.062191,-5.30407 -1.2003,-0.34161 -1.514807,-0.83121 -0.529167,-0.82321 z m 78.420024,1.93115 c 0.0614,-0.007 0.0904,0.025 0.0884,0.0966 -0.0111,0.38512 -13.60592,15.43006 -13.94282,15.43006 -0.0404,0 -0.0734,-0.10402 -0.0734,-0.23099 0,-0.43062 2.67112,-3.58774 7.57939,-8.95811 3.9105,-4.27866 5.91862,-6.2864 6.34845,-6.3376 z m -16.70803,0.51315 c 0.25155,0.006 0.39894,0.0297 0.39894,0.0754 0,0.41867 -3.80294,5.4131 -4.12171,5.4131 -0.20213,0 -1.82815,-0.49171 -3.61321,-1.09295 -3.98807,-1.34325 -4.37384,-1.52683 -3.87677,-1.84278 0.74872,-0.47591 3.86171,-1.56009 5.52628,-1.92495 1.54511,-0.33867 4.59643,-0.65287 5.68647,-0.62787 z m 8.60103,0.66249 h 5.1e-4 c 0.21792,0.0166 -0.72885,1.65984 -2.89801,4.88446 -2.97074,4.41624 -6.81783,9.27906 -7.16907,9.06198 -0.10856,-0.0669 -0.10541,-0.52819 0.007,-1.02526 0.11896,-0.52747 0.96932,-1.82261 2.04277,-3.11041 1.01158,-1.21357 2.97736,-3.69486 4.3682,-5.51387 2.21196,-2.89292 3.44417,-4.3125 3.64888,-4.2969 z m -33.71888,1.15084 c 0.3451,-0.0201 2.54806,0.92251 5.60948,2.40553 3.01792,1.46194 7.42229,3.5889 9.787,4.72633 2.36472,1.13743 4.29948,2.19391 4.29948,2.34818 0,0.41422 -0.0562,0.3969 -3.40083,-1.07849 -1.69494,-0.74767 -4.86427,-2.2504 -7.04298,-3.33881 -2.17872,-1.08841 -5.03622,-2.44945 -6.35,-3.02463 -2.5248,-1.10535 -3.21812,-1.58089 -2.94607,-2.02106 0.006,-0.0101 0.0209,-0.0161 0.0439,-0.017 z m -36.672175,0.28628 c 1.13383,-0.0142 3.764692,0.70917 4.123262,1.28933 0.19257,0.3116 0.134517,0.31018 -1.973523,-0.0501 -1.8722,-0.32001 -2.66702,-0.62846 -2.66702,-1.03456 0,-0.13894 0.199811,-0.20064 0.517281,-0.20464 z m 36.669595,1.69034 c 0.1311,-0.0233 0.37918,0.0581 0.84698,0.22583 2.70669,0.97048 5.66869,2.26656 11.01018,4.81779 8.50122,4.0604 8.89971,4.28573 8.89971,5.02657 0,0.34352 -0.096,0.62425 -0.21342,0.62425 -0.11736,0 -1.57589,-0.70542 -3.24115,-1.56787 -2.64914,-1.37198 -12.61575,-6.07584 -16.19074,-7.64139 -0.90048,-0.39433 -1.25677,-0.70122 -1.25677,-1.08262 0,-0.25098 0.0141,-0.37926 0.14521,-0.40256 z m -37.06337,0.11989 c 0.22463,-0.004 0.573976,0.0305 1.105876,0.0925 3.00133,0.34994 7.694945,1.55423 13.256555,3.40134 l 5.622396,1.86707 v 0.78342 c 0,0.64191 -0.08339,0.74841 -0.463021,0.59221 -0.25466,-0.10479 -1.415527,-0.54401 -2.579687,-0.97617 -2.80351,-1.04072 -9.953635,-3.16566 -13.096875,-3.89227 -1.38244,-0.31958 -2.870182,-0.66835 -3.305742,-0.77514 -0.46501,-0.11402 -0.830967,-0.39819 -0.886767,-0.68782 -0.05437,-0.2824 -0.02712,-0.39814 0.347265,-0.40514 z m 37.11608,2.37246 c 1.34345,0 20.43958,9.68784 20.43958,10.3694 0,0.42116 -0.7053,0.19424 -3.70468,-1.19218 -1.67331,-0.77347 -4.47094,-2.18639 -6.21719,-3.13986 -1.74626,-0.95348 -4.74455,-2.53118 -6.66265,-3.50573 -3.15648,-1.60375 -4.5694,-2.53163 -3.85506,-2.53163 z m 39.28701,0 c 0.24899,0 -2.56937,3.78297 -3.99717,5.36505 -1.38139,1.53066 -1.30312,0.95579 0.12505,-0.91726 1.84125,-2.41481 3.61122,-4.44779 3.87212,-4.44779 z m 1.29759,3.06855 c 0.1448,0.002 0.2279,0.12136 0.2279,0.36535 0,0.12515 -0.58937,0.91776 -1.30948,1.76165 -0.72012,0.84389 -1.27435,1.56992 -1.23145,1.61282 0.0429,0.0429 0.52145,-0.3404 1.0635,-0.85162 1.01015,-0.95269 1.88502,-1.30522 1.15807,-0.46664 -0.22076,0.25466 -2.52502,3.14192 -5.1201,6.41614 -2.59509,3.27422 -5.3794,6.72884 -6.18774,7.67705 -0.80835,0.94822 -2.12012,2.58115 -2.91507,3.62872 -1.56741,2.06549 -2.44662,2.16859 -0.98288,0.11524 0.46218,-0.64836 1.32469,-1.72714 1.91616,-2.39727 0.59147,-0.67014 2.0739,-2.52821 3.29437,-4.12894 2.37278,-3.11206 5.74822,-7.41843 6.8585,-8.74986 0.75118,-0.90082 0.0132,-0.0972 -5.40742,5.88698 -2.03729,2.24912 -4.35902,4.9057 -5.15938,5.90352 -1.80997,2.25651 -1.75896,2.20762 -2.10013,1.99677 -0.1992,-0.12312 -0.19391,-0.34606 0.0181,-0.75396 0.55458,-1.06701 4.15553,-5.40475 7.30084,-8.79481 3.74254,-4.03379 6.24566,-6.82888 7.43314,-8.29975 0.48827,-0.6048 0.90175,-0.92539 1.14308,-0.92139 z m -40.36497,1.40405 c 0.23497,-0.0218 0.8849,0.15918 1.87482,0.52606 2.53338,0.93897 18.10294,8.63599 18.39319,9.09299 0.2425,0.38185 0.27766,0.72502 0.0744,0.72502 -0.078,0 -4.15594,-1.96586 -9.06198,-4.36873 -11.63848,-5.70028 -11.25364,-5.50106 -11.3745,-5.88542 -0.0166,-0.0529 0.0158,-0.0829 0.0941,-0.0899 z m -0.29559,3.1073 c 0.59145,-0.018 3.48167,1.33771 11.87576,5.51698 6.51261,3.24252 9.59289,4.91028 9.65109,5.22552 0.15758,0.85291 -0.80998,0.49645 -5.78983,-2.1332 -2.70083,-1.42619 -5.61786,-2.87701 -6.48229,-3.2241 -1.66264,-0.66759 -7.42005,-3.70094 -8.64909,-4.55682 -0.40018,-0.27868 -0.7276,-0.61189 -0.7276,-0.74053 0,-0.0544 0.0375,-0.0849 0.12196,-0.0879 z m -0.0698,1.6428 c 0.62501,-0.0339 2.14628,0.60507 4.31344,1.83193 1.01865,0.57667 3.57848,1.93579 5.68854,3.02048 4.07183,2.09314 10.31789,5.70624 11.31093,6.54276 0.51937,0.43754 0.83253,1.34255 0.46458,1.34255 -0.0718,0 -2.00657,-1.08511 -4.29948,-2.41122 -2.29291,-1.32611 -5.35265,-3.00521 -6.79907,-3.73156 -1.44642,-0.72635 -3.36352,-1.78413 -4.26072,-2.35076 -0.8972,-0.56664 -2.57131,-1.46099 -3.72019,-1.98747 -2.08273,-0.95441 -3.0148,-1.57134 -3.0148,-1.99523 0,-0.16388 0.10844,-0.25018 0.31677,-0.26148 z m 28.06082,1.36064 c 0.33616,0 -0.75797,1.85222 -2.11821,3.58531 -1.05923,1.34956 -1.21924,1.46018 -1.5844,1.09502 -0.36516,-0.36516 -0.21052,-0.62226 1.53272,-2.54351 1.06644,-1.17534 2.04284,-2.13682 2.16989,-2.13682 z m -27.92801,1.73374 c 0.17029,0.0106 0.50268,0.13268 1.1126,0.37311 2.69974,1.06414 4.7943,2.19873 13.12219,7.10912 6.49089,3.82724 7.27604,4.36831 7.27604,5.01107 0,0.73233 0.23796,0.84189 -4.59506,-2.12287 -4.84274,-2.97072 -9.49216,-5.64982 -13.52889,-7.79643 -2.04877,-1.08947 -3.47429,-2.0111 -3.52589,-2.27893 -0.0395,-0.20488 -0.0313,-0.30567 0.13901,-0.29507 z" /></g></svg>
