<svg id="Layer_1" data-name="Layer 1" xmlns="http://www.w3.org/2000/svg" viewBox="0 0 537 433">
  <g id="_4A0VKs.tif" data-name="4A0VKs.tif">
    <g>
      <path class="cls-1" d="m491.08,0h2c4.42,1.96,5.13,4.98,2.82,9.1-.62,1.1-.87,2.51-.92,3.8-.62,16.43-1.2,32.86-1.73,49.3-.39,11.96-.85,23.91-.98,35.88-.17,15.04-.04,30.08-.04,44.46,4.52,1.06,9.24,2.13,13.93,3.3,2.38.59,5.83.61,6.87,2.17,3.48,5.26,7.27,10.81,8.71,16.78,1.37,5.64-.31,11.97-.14,17.99.07,2.3.93,5.22,2.51,6.7,3.4,3.18,5.85,6.31,4.96,11.27-.32,1.77.08,3.66-.09,5.48-.28,3.03.24,5.21,3.42,6.8,1.41.71,2.66,3.66,2.4,5.36-.54,3.53-.21,7.78-4.53,9.77-.67.31-1.24,1.53-1.3,2.38-.72,8.98-1.64,17.97-1.85,26.97-.1,4.39-.65,8.4-3.95,11.28-3.74,3.26-3.97,7.09-3.35,11.51.51,3.58-.79,8.24,1.05,10.61,2.96,3.81,3.05,7.57,2.96,11.64-.11,5.14-.09,10.36-.98,15.4-1.78,10.02-.8,20.7-7.7,29.57-2.48,3.18-4.76,3.8-8.29,3.17-1.4-.25-3.33.04-4.43.86-7.3,5.44-14.55,10.96-21.57,16.74-2.18,1.79-3.54,4.55-5.44,6.73-1.85,2.12-3.55,5.05-5.94,5.93-33.16,12.22-66.76,23.05-102.03,27.28-22.24,2.66-44.57,4.61-66.88,6.63-6.91.62-6.94.25-7.17,7.17-.21,6.52-2.88,9.06-9.49,9.06-9.98,0-19.97,0-29.95,0-8.16,0-10.57-2.22-10.37-10.51.11-4.22-1.55-5.37-5.48-5.5-8.61-.3-17.24-.71-25.79-1.64-17.42-1.9-34.83-3.91-52.17-6.4-11.97-1.72-24.1-3.36-35.65-6.76-19.68-5.78-38.95-12.97-58.42-19.45-3.83-1.27-6.21-3.32-6.53-7.58-.1-1.26-1-2.79-2.01-3.59-6.51-5.15-13.23-10.04-19.7-15.22-3.33-2.67-6.51-5.08-11.15-4.03-.87.2-2.39.02-2.76-.54-2.8-4.25-6.42-8.35-7.79-13.07-1.87-6.45-2.28-13.4-2.77-20.17-.5-6.95-2.12-14.58.05-20.76,2.2-6.26,1.97-12.15,2.49-18.26.35-4.19-1.14-7.2-4.43-9.83-1.39-1.12-2.65-3.56-2.49-5.26,1-10.7-1.37-21.01-3.17-31.39-.15-.85-.79-1.78-1.48-2.33-3.06-2.46-5.38-12.76-2.57-14.99,5.43-4.31,4.36-10.06,5.38-15.63.62-3.38,3.43-6.69,6.03-9.26,1.94-1.92,5.37-2.24,7.66-3.92,1.72-1.27,3.57-3.47,3.8-5.44.78-6.54.76-13.17,1.27-19.75.14-1.81.94-3.61,1.65-5.33,1.2-2.89,3.7-5.71,3.68-8.54-.1-13.64-.99-27.27-1.37-40.9-.75-27.32-1.31-54.64-2.1-81.95-.08-2.8-1.61-5.54-1.84-8.36-.21-2.54.11-5.26.91-7.65.22-.67,3.95-1.19,4.45-.54,1.58,2.05,3.15,4.64,3.33,7.11.29,4.15-.82,8.38-.78,12.57.17,17.09.55,34.17.87,51.26.37,20.11.79,40.22,1.09,60.33.04,2.57.77,4.97,3.49,3.78,7.44-3.26,12.27,1.27,17,5.32,5.86,5.02,12.62,7.15,19.99,7.79,8,.69,9.69,2.08,11.59,10.06.31,1.32,1.65,3.32,2.63,3.4,4.91.36,7.14-2.28,7.27-7.66.05-2.1-.27-4.69.8-6.19,5.26-7.32,17.62-11.12,24.72-5.97,7.29,5.28,13.04,4.5,19.63.18,1.24-.81,2.52-1.59,3.83-2.28,10.54-5.56,21.07-11.12,31.64-16.62,8.92-4.64,17.88-9.22,26.83-13.8,9.98-5.11,20.22-9.77,29.89-15.4,19.98-11.64,40.47-13.63,61.18-3.11,23,11.68,45.47,24.39,68.28,36.43,21.66,11.43,43.47,22.57,65.76,34.13,2.24-3.47,4.41-6.75,6.5-10.09,2.33-3.72,10.61-7.76,14.76-6.94,9.21,1.83,18.41,2.58,27.27-1.22,2.68-1.15,6.5-3.09,6.96-5.27,1.25-5.89,1.09-12.11,1.3-18.2.41-11.76.7-23.52,1.01-35.28.68-25.43,1.34-50.86,2-76.28.03-1,.36-2.31-.14-2.94C486.53,7.26,487.05,3.49,491.08,0ZM61.58,198.36c8.63-2.05,9.82-3.53,10.2-11.85.22-4.76-.04-9.52,6.13-11.54,5-1.64,6.07-5.11,4.75-11.74-.92-4.6-4.62-4.77-8.16-4.5-6.34.47-11.72-1.38-16.41-5.66-2.2-2.01-4.94-3.44-7.04-5.53-4.24-4.21-8.91-4-14.42-1.97.3,3.09.36,6.21.99,9.21.49,2.34,1.93,4.48,2.47,6.82.5,2.19.36,4.52.45,6.03,6.04.89,11.4,1.68,16.65,2.46,1.49,9.56,2.92,18.75,4.4,28.28Zm424.26-30.42v-16.65c-12.4,6.23-25.18,6.11-38.38,5.15,1.58,3.32,3.36,5.66,3.79,8.23.96,5.71,3.51,9.54,9.31,11.19,4,1.13,5.12,4.3,4.57,8.2-.45,3.21-.85,6.43-1.24,9.45,3.54,1.74,6.53,3.21,10.28,5.05.06-5.59-1.03-10.99,3.64-14.69.25-.2-.16-1.19-.2-1.82-.27-4-.52-7.99-.76-11.75,3.55-.93,6.2-1.62,9-2.36Zm21.67,7.73c.17-2.91.07-4.41.39-5.8.9-3.88-2.46-9.12,3.63-11.5.47-.19.49-2.56.11-3.72-1.63-5.09-14.8-9.28-19.11-6.01-1,.76-1.41,2.59-1.62,4-.36,2.39-.67,4.87-.41,7.25.28,2.62.39,6.27,2.04,7.52,4.2,3.15,9.22,5.21,14.97,8.27Zm-400.94-7.68c7.1-3.97,13.85-7.76,20.81-11.65-5.65-6.06-11.93-5.25-17.61-4.42-6.63.97-8.04,8.47-3.2,16.07Zm339.43,1.07c.67-.54,1.33-1.08,2-1.62-1.35-2.02-2.58-4.14-4.18-5.93-.22-.25-2.28,1.14-3.48,1.77,1.89,1.93,3.77,3.85,5.66,5.78Z"/>
    </g>
  </g>
</svg>