<svg id="Layer_1" data-name="Layer 1" xmlns="http://www.w3.org/2000/svg" viewBox="0 0 774.38 158.96">
    <g>
      <path class="cls-1" d="m387.29,12.3c7.91.83,15.21,1.63,22.51,2.34,1.89.18,3.96.62,5.68.08,12.7-3.96,25.7-1.53,38.55-2.04,3.16-.13,6.32-.65,9.46-.56,2.08.06,4.99.22,6.04,1.52,3.59,4.42,8.28,4.46,13.11,4.27,6.7-.27,13.75-2.34,20-.87,12.47,2.93,27.35.79,35.72,14.43.95,1.56,4.42,2.14,6.76,2.23,26.97.95,53.94,1.87,80.92,2.46,15.23.34,30.47.32,45.69-.1,4.38-.12,8.71-2.21,13.06-3.41,2.39-.66,4.73-1.76,7.16-1.96,3.99-.33,8.06-.38,12.05-.02,8.96.82,17.06-1.19,24.65-6,7.03-4.46,14.97-4.44,22.73-2.95,11.06,2.12,18.88,11.58,18.67,21.61-.22,10.37-8.84,20.09-20.13,22.09-7.81,1.38-15.67,1.39-22.64-3.26-6.95-4.64-14.47-5.89-22.78-5.55-8.23.33-16.86,1.94-24.19-4.52-1.8-1.59-5.7-1.12-8.63-1.13-22.21-.08-44.43-.35-66.64.05-20.85.38-41.68,1.43-62.51,2.44-1.87.09-4.17,1.67-5.36,3.24-5.79,7.59-13.71,10.89-22.85,11.31-8.59.39-17.22.06-25.83.07-5.22,0-10.33.4-14.42-4.25-1.32-1.51-4.64-2.01-6.95-1.82-22.9,1.91-45.78,4-68.65,6.21-3.7.36-7.33,1.56-10.93,2.36q-1.8,10.48-12.95,10.51c-14.81.01-29.62.06-44.43-.04-7.48-.05-15.3,1.25-21.64-4.55-.64-.59-2.03-.52-3.07-.52-23.21-.03-46.43-.02-70.23-.02-.95,14.24,2.72,25.81,12.93,34.65,3.65,3.15,8.55,4.85,12.82,7.32,1.49.86,3.64,1.82,3.98,3.12.37,1.44-.52,3.92-1.72,4.85-1.23.96-4.11,1.44-5.21.66-7.99-5.65-16.33-11.02-23.34-17.74-8.52-8.17-11.21-19.44-12.64-30.84-15.39,1.04-24.82,7.84-29.15,23.15-3.71,13.13-12.05,19.98-24.99,21.32-4.72.49-9.94-.78-14.48-2.46-6.09-2.24-11.62-5.91-17.61-8.46-4.56-1.94-9.16-1.37-12.85,2.38-6.92,7.05-14.31,13.73-20.53,21.34-9.35,11.44-21.48,17.27-35.58,19.98-10.08,1.94-18.3-1.54-23.43-10-6.41-10.58-12.58-21.44-17.37-32.8-7.25-17.17-12.69-35.09-19.97-52.25-3.83-9.05-3.75-16.5,4.11-22.38,3.79-2.84,8.91-4.97,13.61-5.38,17.5-1.53,33.76,2.76,49.07,11.5,20.7,11.83,42.1,22.06,65.21,28.81,15.82,4.62,27.41-2.16,39-10.73.5-.37,1.22-.83,1.31-1.33,2.21-12.74,13.59-16.65,22.57-22.4,8.2-5.26,17.01-10.23,26.25-13.07,15.23-4.68,31-7.65,46.59-11.11,5.02-1.12,10.09-.84,13.02-6.79,1.81-3.67,5.58-2.53,8.48.35,3.73,3.7,15.18,3.47,19.4.51,2.4-1.69,5.69-2.93,8.6-2.98,18.4-.27,36.81-.19,55.21-.13,4.49.01,8.59.88,8.79,7.25Z"/>
    </g>
</svg>