<svg id="Layer_1" data-name="Layer 1" xmlns="http://www.w3.org/2000/svg" viewBox="0 0 593 156">
    <g>
      <path class="cls-1" d="m551.16,19.97v-10.8h12.84c0,2.91-.12,5.53.02,8.12.3,5.39,4.12,8.92,9.49,8.88,4.16-.03,8.34-.36,12.46.03,1.4.13,3.66,1.99,3.75,3.19.38,5.42.3,10.9.02,16.34-.15,2.81-1.89,4.27-5.07,4.12-4.63-.23-9.29-.06-14.76-.06,0,5.16.35,10.25-.15,15.26-.25,2.52-1.41,5.54-3.21,7.21-7.36,6.8-15.14,13.22-26.24,12.09-1.74-.18-3.95-.47-5.03-1.58-5.71-5.89-12.81-1.92-19.15-3.06-1.18,3.89-7.08,3.73-7.33,8.86-.08,1.63-2.86,3.43-4.75,4.57-1.11.66-2.92.17-4.42.18-46.92.04-93.84.08-140.76.12-1.8,0-3.6,0-5.28,0q-2.82,9.77-13.55,9.78c-1.98,0-3.96,0-6.67,0,0,2.01-.03,3.75,0,5.5.28,13.24.47,26.49.95,39.73.14,3.96-.82,5.56-5.18,5.52-21.13-.2-42.26-.18-63.39,0-4.27.04-5.62-1.59-5.43-5.55.2-4.12.04-8.26.04-12.41-6.66,1.87-7.49.98-8.31-5.86-.79-6.6-1.92-13.24-3.8-19.6-.9-3.04-3.34-6.37-6.04-7.98-4.74-2.82-9.56-4.88-7.73-11.43-8.28-3.19-17.63,2.81-24.67-3.89-6.06.6-12.2,1.21-19.35,1.92,0,4.22.09,8.6-.02,12.98-.21,8.1-3.26,12.15-11.18,14.23-3.65.96-7.5,1.58-11.27,1.64-12.48.2-24.96.3-37.43-.05-4.19-.12-8.51-1.23-12.49-2.65-6.59-2.36-10.2-7.1-9.63-14.47.2-2.61.03-5.25.03-8.64-1.76.89-2.78,1.53-3.89,1.96-14.74,5.81-25.68,16.89-37.34,26.91-7.98,6.86-16.65,7.95-26.92,6.6-9.53-1.26-19.41-.34-29.1.26-3.63.22-5.35-.15-5.5-3.98-.78-20.02-1.73-40.03-2.39-60.05-.19-5.64,2.5-7.7,7.09-6.13.71.24,1.13,1.35,1.06,1.26,2.81-.34,5.76-1.51,8.23-.87,9.45,2.47,18.68,5.8,28.15,8.19,2.97.75,6.84.42,9.62-.87,13.84-6.42,27.4-13.45,41.2-19.97,4.88-2.31,10.17-3.75,15.47-5.66-.41-11.93,8.35-20.48,21.5-20.39,6.47.05,12.95,0,19.74,0,.26-.94.59-2.13.99-3.54,8.51.4,16.87,1.05,25.23.98,1.99-.02,3.92-2.51,5.95-3.76,1.8-1.11,3.6-2.75,5.55-3,5.23-.67,10.56-.18,14.5-5.07.77-.96,5.12-.68,6.17.49,2.96,3.31,6.21,4.8,10.5,4.42,5.12-.45,9.45.42,10.27,6.31,4.9,1.24,10.03-1.91,14.21,2.48,1,1.05,3.81.52,5.79.52,37.93.1,75.87.13,113.8.35,3,.02,5.99,1.32,8.99,2.01,1.6.37,3.19.99,4.8,1.03,49.39,1.09,98.79,2.11,148.19,3.2,3.12.07,5.8.18,6.86-3.75.27-.99,2.49-1.92,3.89-2.06,3.11-.31,6.27-.1,10.07-.1ZM184.87,88.79c-12.72,0-24.67-.1-36.61.03-10.67.12-11.67,1.4-10.08,12.23.33,2.27,1.05,4.49,1.58,6.73.27,1.15.52,2.3,1.03,4.59-5.23-2.8-6.75-6.8-7.76-10.77-1.07-4.24-1.32-8.68-1.97-13.28-2.74,0-5.23-.04-7.72,0-8.22.16-9.06,1-9.06,8.97,0,1.99-.07,3.98.04,5.96.34,6.02,3.14,9.61,9.14,9.65,17.44.13,34.89-.12,52.32-.61,5.51-.16,8.78-4,9.04-9.4.22-4.6.05-9.22.05-14.11Zm324.46-34.07c7.09,9.84,16.22,3.9,24.47,4.75v-9.49h-24.47v4.74Z"/>
    </g>
</svg>