<svg id="Layer_1" data-name="Layer 1" xmlns="http://www.w3.org/2000/svg" viewBox="0 0 578.96 131.5">
  <g id="Bmo08R.tif">
    <g>
      <path class="cls-1" d="m226.97,78c-1.96.51-3.92,1.4-5.89,1.45-5.77.16-11.56.22-17.31-.16-3.47-.23-6.89-1.34-11.66-2.34-.77,1.16-2.73,3.29-3.75,5.79-5.13,12.56-9.99,25.22-14.99,37.84-1.77,4.46-5.1,7.15-9.89,7.55-6.06.51-11.52-.94-15.15-6.29-2.91-4.29-3.36-8.85-1.39-13.79,3.93-9.83,7.68-19.73,11.41-29.64.49-1.31.82-2.96.48-4.25-1.08-4.13-2.51-8.17-4.02-12.89-2.83.16-6.4.36-10.36.59-.27-1.38-.58-2.91-.98-4.95-10.57,0-21.17-.06-31.77.02-11.08.08-22.16.44-33.24.37-3.62-.02-5.34,1.01-6.52,4.58-3.37,10.16-11.3,15.76-21.32,17.67-8.13,1.54-16.59,1.37-24.89,2.1-2.99.26-5.95,1.31-8.91,1.28-4-.04-8.01-.67-11.97-1.35-.57-.1-1.15-1.93-1.19-2.97-.22-7.03-.44-14.07-.38-21.1.09-10.1.46-20.2.61-30.29.06-3.86-.39-7.73-.14-11.57.08-1.28,1.52-3.43,2.52-3.53,4.24-.45,8.54-.42,12.82-.3,6.21.17,12.41.6,18.61.88,9.67.44,19.31,1.55,26.55,8.67,3.43,3.37,5.5,8.1,8.36,12.08.91,1.27,2.39,3.03,3.62,3.05,22.32.18,44.63.13,67.17.13,1.66-2.68,3.61-5.65,5.37-8.74.74-1.3.87-2.96,1.66-4.22,1.01-1.61,2.33-4.19,3.63-4.26,5.72-.31,8.23-4.79,11.52-8.08,2.7-2.69,5.52-3.76,9.28-3.74,38.44.2,76.89.3,115.33.39,2.17,0,4.34-.41,6.76-.65-.99-1.49-1.65-2.49-2.31-3.49.24-.52.48-1.05.71-1.57,2.56.66,5.09,1.73,7.68,1.89,5.88.36,11.79.46,17.68.29,3.98-.11,8.04-3.77,11.89.66.54.62,2.39-.05,3.53.25,2.05.54,3.98,1.52,6.03,2,1.57.37,3.25.26,4.72.85,1.84.59,3.67,1.68,5.51,1.69,17.32.13,34.65.13,51.97,0,1.85-.01,3.69-1.04,5.34-1.54,2.97.53,5.97,1.5,8.98,1.54,12.76.19,25.53-.01,38.29.22,2.17.04,4.67,1.08,6.39,2.45,3.54,2.82,6.63,6.19,9.96,9.29,4.26,3.97,8.84,6.65,15.16,6.56,16.4-.24,32.81.1,49.22.07.97,0,2.5-.96,2.82-1.82,1.42-3.93,2.44-8.01,3.73-11.99,1.25-3.85,2.66-7.66,4.13-11.85h13.14v25.88h14.23v11.05h-13.86c-.17.41-.35.83-.52,1.24,1.78,1.57,3.56,3.13,5.33,4.7-.24.51-.49,1.02-.73,1.53-4.52,0-9.04.04-13.56,0-22.32-.22-44.64-.48-66.97-.62-1.45,0-2.89.98-4.38,1.38-1.12.3-2.92.98-3.36.51-3.01-3.26-6.82-1.86-10.25-1.89-16.56-.15-33.13-.07-49.69-.07-1.65,0-3.3,0-5.13,0-.37,1.6-.66,2.87-1.17,5.1-14.25,1.31-28.72,2.68-43.21,3.95-8.42.74-16.8.64-25.03,3.79-7.54,2.88-15.76,2.89-23.8.87-3.31-.83-6.17-1.89-5.83-6.42-9.2.42-18.09.82-27.48,1.25-.12,17.18,8.39,30.88,16.25,45.6-10.79,5.38-21.43,10.81-32.2,15.96-2.51,1.2-4.24-.45-5.72-2.82-9.2-14.67-13.51-30.94-16.24-47.76-.14-.88-.33-1.76-.57-3-2.38,6.16-4.61,11.95-6.84,17.73-.35-.08-.69-.17-1.04-.25.38-2.47.77-4.95,1.18-7.6-2.62.2-4.74.15-6.75.59-1.26.27-2.4,1.22-3.53,1.96-1.32.85-2.57,1.81-3.84,2.71,5.5-6.11,2.4-13.24,3.01-19.81-5.75,0-10.88,0-16.01,0-2.94,0-5.92.69-6.3,3.88-.29,2.42.64,5.13,1.59,7.49.57,1.43,2.22,2.42,3.99,4.24-5.8-.97-9.43-2.81-11.22-8.09-.91-2.7-3.69-4.77-5.62-7.12-.5.3-1,.6-1.5.9,0,3.59-.03,7.19,0,10.78.06,5.69,1.91,7.58,7.64,7.6,8.19.04,16.38-.02,24.57-.03Zm-204.62-1.32c7.52-.37,14.28-.66,21.04-1.04,12.3-.68,19.16-10.29,19.9-21.02.43-6.28.23-12.72-.67-18.95-1-6.9-4.88-12.59-11.51-15.34-9.02-3.73-18.65-2.71-28.73-3.02,3,19.92,3.1,39.26-.02,59.37ZM462.07,28.25c-1.73-4.31-3.56-6.83-8.06-6.77-11.23.15-22.47-.11-33.71.1-3.55.07-7.08,1.1-11.21,1.79-.87-.38-2.61-1.77-4.37-1.78-17.61-.16-35.23-.11-52.84-.09-1.04,0-2.95.05-3,.34-.7,3.81-3.75,2.2-5.49,2.34,4.11,1.29,8.42,3.7,12.76,3.75,6.93.08,14.13,2.19,20.92-1.38,1.05-.55,2.83.14,4.23.44,1.42.3,2.79,1.15,4.19,1.19,5.31.14,10.63.1,15.94.02,1.14-.02,2.28-.5,3.41-.77,2.34-.57,4.78-1.9,6.99-1.58,8.64,1.23,17.17,3.14,26.02,2.48,4.98-.37,10.02-.07,15.03-.06,2.83,0,5.66,0,9.18,0Zm81.78,15.03c.09-.35.18-.7.26-1.05-1.9-.79-3.8-2.24-5.71-2.26-18.06-.2-36.12-.19-54.18-.07-1.07,0-2.13,1.48-3.19,2.28.25.37.51.74.76,1.11h62.05Zm-106.65.14v.04c6.96,0,13.93.09,20.89-.08,1.29-.03,2.55-1.15,3.83-1.77-1.29-.62-2.58-1.77-3.87-1.77-14.22,0-28.43.16-42.65.41-1.06.02-2.1,1.02-3.15,1.57,1.05.54,2.09,1.52,3.15,1.54,7.26.14,14.53.07,21.8.07Zm114.38-18.2c.06.21.12.43.19.64,2.44-.74,6.02-.73,7.1-2.36,2.84-4.28-.06-8.45-5.24-8.45-.76,0-1.52,0-2.28,0-4,.05-7.17,3.06-7,7.47.18,4.58,4.11,1.97,6.33,2.68.27.09.6.01.91.01Zm-75.07,18c-1.19-4.68-4.55-3.56-7.09-3.44-1.19.06-2.32,1.5-3.47,2.31.24.38.47.75.71,1.13h9.85Z"/>
    </g>
  </g>
</svg>