<svg id="Layer_1" data-name="Layer 1" xmlns="http://www.w3.org/2000/svg" viewBox="0 0 597 191">
  <g id="_30aQdU.tif" data-name="30aQdU.tif">
    <g>
      <path class="cls-1" d="m209.61,16.52c1.44-7.12,3.27-8.67,9.13-8.32,3.87.23,7.13-.21,9.6-3.76,1.82-2.61,4.65-2.91,6.78-.41,2.89,3.38,6.39,4.33,10.61,4.35,4.09.02,6.73,1.3,9.07,5.81,1.82,3.5,5.67,7.74,11.88,7.63,23.28-.39,46.57-.23,69.86-.09,5.09.03,8.29-1.75,9.16-7.53,15.9,0,31.67,0,47.44,0,2.66,0,5.38-.32,7.96.13,1.51.26,2.76,1.83,4.19,2.7,1.24.76,2.56,1.89,3.88,1.95,15.61.67,31.23,1.34,46.85,1.69,26.94.6,53.88.99,80.82,1.45,2.37.04,4.89.73,6.24-2.48.36-.85,2.6-1.23,3.99-1.28,4.65-.15,9.34-.35,13.96.02,4.59.36,6.56-1.26,6.05-5.87-.09-.8.14-1.64.26-2.9h13.84c1.49,3.59,2.94,7.26,4.55,10.86.34.76,1.37,1.89,1.9,1.8,5.49-.94,5.31,3,5.74,6.45.15,1.16.32,2.31.4,3.47.86,12.09-.62,13.71-12.49,13.75-2.49,0-4.98,0-8.11,0-.41,8.78-.9,17.35-1.18,25.93-.26,7.87-.16,7.89-7.77,8.39-50.77,3.29-101.54,6.57-152.31,9.87-8.29.54-16.57,1.23-24.82,1.85-1.85,6.61-1.85,6.64-9.22,7.13-10.1.68-20.21,1.29-30.31,1.95-.83.05-2.11-.11-2.4.33-3.91,5.94-10.12,3.89-15.35,4.13-23.76,1.09-47.53,1.76-71.3,2.53-2.5.08-5.48.96-6.34-3.01-.14-.62-2.17-1.19-3.31-1.16-5.82.15-11.64.34-17.44.83-6.5.55-9.66,4.16-10.1,10.6-.39,5.79-.15,11.81-1.74,17.28-2.96,10.2-11.75,14.05-21.18,15.68-10.28,1.78-20.54.07-30.54-2.63-10.37-2.8-20.21-16.5-20.55-28.29-.04-1.33-.16-2.69.04-3.99.58-3.78-1.2-4.85-4.55-4.12-6.28,1.38-12.54,2.82-19.12,4.3-.65-.96-1.46-2.17-2.09-3.11-17.04,1.61-30.26,11.07-40.52,22.8-9.82,11.22-16.6,25.28-17.19,41.17-.08,2.15-.68,4.27-.98,6.41-.88,6.2-3.75,8.75-9.7,7.24-14.96-3.8-29.83-7.95-44.66-12.19-4.62-1.32-5.89-5.39-5.08-9.59.84-4.36,1.99-8.85,4.03-12.74,10.99-20.9,22.26-41.67,33.54-62.41,4.28-7.87,10.63-13.85,19.09-16.73,15.85-5.41,31.99-9.98,47.83-15.4,15.35-5.25,30.49-11.14,45.78-16.76-2.44-5.71-3.16-11.39,1.36-16.48,1.04-1.17,2.77-2.23,4.28-2.38,3.29-.33,6.65-.14,9.97.02,4.69.22,9.3.57,12.56-3.99.63-.88,2.31-1.31,3.54-1.4,8.04-.57,16.09-.98,24.16-1.44Zm-42,91.51c-9.86.11-11.02,1.25-10.97,10.16,0,1.33-.22,2.72.06,3.99,1.58,7.18,4.22,13.78,11.79,16.58,10.05,3.72,20.52,4.24,30.94,2.33,6.45-1.19,11.92-4.75,13.69-11.6,1.1-4.26,1.34-8.8,1.51-13.24.27-7.38-2.44-10.26-9.81-10.27-6.31,0-12.78-.32-18.88.95-11.73,2.44-17.95,7.28-16.08,19.7.38,2.54,2.37,4.84,3.89,7.79-4.03.01-6.29-2.36-7.93-5.05-4.41-7.27-2.57-14.27,1.8-21.33Z"/>
    </g>
  </g>
</svg>