<svg id="Layer_1" data-name="Layer 1" xmlns="http://www.w3.org/2000/svg" viewBox="0 0 604 142">
  <g id="_6TleWO.tif" data-name="6TleWO.tif">
    <g>
      <path class="cls-1" d="m377.89,18.35c.91-6.1,1.54-11.82,7.4-14.85,5.75,2.39,6.5,8.3,9.34,12.74.66,1.04,3.07,2.29,3.51,1.95,4.5-3.46,10.23-3.55,14.99-5.6,11.37-4.9,22.81-1.27,34.13-2.12,2.47-.19,5.28,4.03,7.93,6.23-.26.47-.51.94-.77,1.41h79.47c.66-4.24-.35-9.23,5.87-7.96,1.28.26,3.18,1.99,3.21,3.08.1,4.08,2.2,5.11,5.78,4.92,2.83-.14,5.67,0,8.5-.12,2.79-.12,5.56-.41,10.03-.75-2,.95-2.97,1.42-3.69,1.76,1.41,4.01,3.82,5.07,7.49,4.99,8.66-.18,17.33.18,25.99.11,3.71-.03,5.2,1.44,4.78,5.07-.36,3.13.68,6.78-4.83,6.58-8.82-.33-17.67-.29-26.49.05-2.27.09-4.5,1.86-6.71,2.93-1.97.95-3.89,2.85-5.84,2.85-17.62,0-35.25-.35-52.87-.57-3.83-.05-7.67-.08-11.5.03-5.91.18-7.65,1.97-7.7,7.66-.08,8.74-1.54,10.34-10.09,11.07-.5.04-1.15-.13-1.47.13-6.17,4.83-13.58,5.65-20.99,6.36-2.4.23-4.84.05-7.26.07-25.33.17-50.66.37-75.99.46-4.1.02-8.2-.43-13.24-.72,1.45,23.15,2.83,45.27,4.27,68.16-.97.34-2.75,1.3-4.62,1.54-9.41,1.2-18.84,2.22-28.27,3.3-3.98.45-6.15-.85-6.57-5.26-.73-7.7-1.99-15.35-3.1-23.01-.13-.88-.48-1.89-1.07-2.53-4.52-4.93-7.21-10.49-7.15-17.35.05-5.78-.28-11.58-.67-17.36-.26-3.83-1.82-4.4-5.11-2.46-4.46,2.62-8.91,5.34-13.63,7.42-1.42.63-3.9-.39-5.59-1.24-2.49-1.24-4.21-3.25-7.54-.7-1.76,1.35-5.51.94-8.07.26-3.14-.83-5.89-2.7-7.45-6.05-.43-.93-2.97-1.46-4.33-1.18-.86.18-1.74,2.16-1.89,3.42-.58,4.71.03,9.94-4.78,12.89-6.45,3.95-13.66,5.64-21.06,3.82-9.58-2.35-12.47-8.88-8.22-19.19-13.2,5.01-27.68,3.4-38.29,14.02-5.2,5.2-12.22,6.25-19,2.92-7.15-3.52-13.96-2.25-20.71.42-9.42,3.71-18.92,7.34-27.98,11.82-29.16,14.4-60.47,23.09-90.78,34.42-1.23.46-2.58.63-3.89.84-8.01,1.3-11.6-.67-13.42-8.52-1.07-4.6-.75-9.51-1.21-14.27-.96-9.98-.96-20.21-3.32-29.87-3.19-13.07,2.62-16.5,12.68-17.55,22.03-2.3,44.14-3.84,66.17-6.06,22.03-2.22,43.99-5.08,66.03-7.21,4.6-.45,9.56.49,14.06,1.79,6.94,2.01,13.69,2.3,20.64.52,13.2-3.4,26.44-6.66,39.61-10.18,2.1-.56,3.93-2.13,6.32-3.48-5.57-4.34-8.18-16.77-5.07-21.46.69-1.04,2.72-1.62,4.15-1.66,5.82-.18,11.65-.08,15.81-.08,2.98-2.22,4.75-4.54,6.62-4.63,1.53-.07,3.19,2.52,4.79,3.92-.14.48-.27.97-.41,1.45,3.83-.64,7.73-2.07,11.46-1.72,5.32.5,10.64-2.89,16.03.55,1.81,1.16,4.86.4,7.29.52,1.69-5.87,3.48-6.33,8.06-3.06,2.1,1.5,4.9,2.59,7.46,2.79,9.87.75,19.77,1.31,29.66,1.47,14.3.23,28.61.06,43.1.06Zm-138.08,67.22c-6.53-2.38-7.78-4.55-7.17-11.61.12-1.37-.35-2.79-.55-4.19-1.52.35-3.22.4-4.54,1.12-3.79,2.04-6.16,4.97-5.18,9.66.93,4.44,4.08,6.11,8.15,6.77,1.31.21,2.63.44,3.94.64,12.8,1.95,20.74-5.6,19.3-19.24-3.19,0-6.5-.24-9.76.05-6.61.59-8.93,3.48-7.78,10.15.38,2.22,2.22,4.2,3.59,6.65ZM392.8,18.86c-1.31-5.45-6.22-11.48-7.62-10.19-2.26,2.08-3.51,5.24-5.94,9.15,5.71.44,9.5.73,13.56,1.04Zm-111.56,50.73c-3.84,0-7.23-.13-10.61.08-.96.06-2.64,1.16-2.61,1.71.06,1.05.88,2.35,1.78,3.02,3.83,2.86,6.64,1.74,11.44-4.81Zm8.31,9.37c1.72-3.88,2.87-6.48,4.45-10.04-4.56.26-7.59.44-12.19.7,2.9,3.51,4.91,5.93,7.74,9.34Z"/>
    </g>
  </g>
</svg>