<svg id="Layer_1" data-name="Layer 1" xmlns="http://www.w3.org/2000/svg" viewBox="0 0 604 174.87">
  <g id="IGFKT6.tif">
    <g>
      <path class="cls-1" d="m369.44,36.81c1.4.07,2.7.22,4,.2,4.43-.09,6.56,2.02,6.94,6.44.31,3.59,1.15,7.14,1.89,11.48,7.22-.78,14.71.06,20.56-2.63,7.21-3.31,14.15-1.48,21.12-2.45,1.55-.22,2.94-1.45,4.45-2.11,1.55-.67,3.14-1.64,4.76-1.73,9.74-.51,19.49-.81,29.36-1.18v-7.34c-6.47.91-12.81,1.81-19.63,2.77-2.4-8.25-1.64-16.11-.15-23.93.13-.67,1.74-1.56,2.61-1.51,4.83.29,9.68.66,14.45,1.44,1.15.19,2.76,2.01,2.87,3.21.36,3.73,2.45,5.6,5.72,6.54,2.94.84,4.26,2.56,4.44,5.71.26,4.62,1.03,9.21,1.68,14.64,3.54-.56,6.72-1.25,9.94-1.51,3.23-.27,6.53-.37,9.75-.06,3.75.37,7.53.97,11.13,2.05,1.92.58,4.25,2,5.05,3.67,2.33,4.9,3.98,10.12,6.02,15.54,18.04-5.9,30.51,6.37,44.32,14,7.65-6.77,18.33-3.97,21.92,5.35.61,1.59,2.33,2.88,3.78,3.99,1.02.77,2.45,1.01,3.7,1.48,10.66,4.01,11.45,5.11,11.65,16.72.03,1.99-.24,3.98-.28,5.98-.14,8-3.69,13.14-11.9,14.79-4.62.93-8.07,2.97-9.07,8.47-.36,1.96-3.76,4.14-6.15,4.77-3.57.94-7.54.43-9.45-3.61-1.98-4.18-5.06-5.45-9.6-5.4-13.87.15-27.75-.19-41.63-.1-2.02.01-4.01,1.43-6.05,2.08-1.38.44-2.82.97-4.23.98-22.57.11-45.15.06-67.72.25-6.15.05-7.12-4.37-8.58-9.01-15.11.49-30.71-2.94-44.32,7.23-.63,9.29-1.08,19.25-2.05,29.17-.64,6.51-6.28,9.5-12.87,8.36-4.03-.7-8.31.21-12.46.06-4-.15-7.98-.74-11.96-1.16-1.46-.15-2.92-.51-4.38-.52-9.7-.04-19.4-.24-29.09.08-6.34.21-12.65,1.67-18.98,1.71-5.52.03-11.03-1.51-16.56-1.64-3.45-.08-6.92,1.18-10.39,1.8-3.53.63-5.4-1.94-6.17-4.39-1.42-4.48-2.43-9.22-2.7-13.9-.21-3.61-.86-6.16-4.14-8.21-1.66-1.04-3.38-3.55-3.39-5.39-.04-12.73-3.24-11.22-16.04-17.84,1.93,5.17,3.39,9.08,4.72,12.66-2.56.08-4.25-1.18-5.18-4.91-.52-2.09-.49-4.37-1.34-6.29-.71-1.6-2.35-2.8-3.57-4.18-.68.16-1.37.32-2.05.48,1-1.91,2-3.82,3.27-6.24,1.04,1.57,1.5,2.27,2.11,3.2,1.97-9.19,1.37-10.7-7.35-10.86-13.76-.25-26.59,2.54-35.22,14.9-3.05,4.37-6.57,8.41-9.67,12.75-1.58,2.22-3.11,2.67-5.4,1.18-5.84-3.79-13.59-4.74-16.96-12.4-.62-1.41-5.55-1.7-8.31-1.29-9.23,1.39-18.39,3.27-27.55,5.09-15.87,3.15-31.77,6.18-47.55,9.73-5.89,1.33-11.63,5.97-17.16,5.55-7.76-.59-14.74,1.54-22.04,2.48-4.46.58-8.81,1.94-13.26,2.57-2.72.39-5.76.74-8.27-.07-8.17-2.65-8.32-2.92-5.93-11.38,4.08-14.43,5.17-29.11,4.42-44-.29-5.69,1.04-7.01,6.69-7.19,10.03-.32,20.05-.76,30.07-1.04,2.34-.07,3.96-.5,3.78-3.28-.31-4.68,3.43-4.27,6.2-4.51,2.95-.26,4.63,1.32,4.36,4.56-.29,3.54,2.17,3.39,4.64,3.4,23.74.11,47.49.12,71.22.54,4.49.08,9.27,1.17,13.38,3,19.58,8.7,19.45,8.7,39.48.86,4.76-1.86,7.04-4.21,6.29-9.44-.42-2.94.26-6.02-.1-8.98-.41-3.39,1.76-4.76,4.14-5.01,4.29-.46,8.94-1.09,12.91.1,3.75,1.12,5.13.36,5.81-2.36,2.89,0,5.41-.3,7.83.1,1.82.3,3.43,1.72,5.26,2.2,2.32.61,4.77.77,7.31,1.15,1.55-7,7.85-7.3,12.82-10.88.31,3.44.54,6.01.9,9.93,3.19-1.2,6.19-2.32,9.56-3.58,0-3.96-.13-8.02.04-12.06.18-4.13.65-8.25,1.08-13.37,5.46.47,10.71.92,16.06,1.39.15-.38.6-.97.46-1.24-3.03-5.69-1.94-10.65,2.13-15.47.73-.86-.17-3.09-.3-4.56,1.81.57,4.41,2.07,5.08,1.46,1.27-1.16,1.69-3.49,2.01-5.4.38-2.27.28-4.62.42-7.47,1.73-.09,3.25-.17,5.12-.27.19,3.51.37,6.6.62,11.12,4.33-1.17,8.16-2.15,11.96-3.24,1.43-.41,2.8-1.53,4.17-1.5,10.27.2,20.7-2.08,30.73,2.11,1.92.8,4.25.98,6.36.89,1.35-.06,2.65-1.15,4.67-2.11,2.8,5.05,5.98,10.76,9.32,16.78,1.41.13,4.93-.57,6.36.85,1.47,1.45.89,4.96,1.29,8.24Zm16.43,44.8h40.47v-7.59h-21.85c2.29-2.51,3.47-3.81,4.62-5.07-9.25-2.26-18.19-4.45-27.52-6.74,1.54,7,2.93,13.28,4.28,19.4Zm-36.89-52.58c1.43-8.25.74-9.09-5.89-8.93-10.86.27-21.72.52-32.59.79-4.51.11-9.03.15-13.53.42-.94.06-1.83.98-2.74,1.51.93.68,1.79,1.81,2.8,1.96,3.3.5,6.64.67,9.97.93,13.93,1.11,27.86,2.21,41.97,3.32Zm162.25,49.29c3.03.97,5.24,2.35,7.37,2.23,7.1-.4,14.16-1.34,21.27-2.08-5.13-7.29-15.24-7.57-28.64-.15Zm-277.1,30.91q-2.16,9.06,5.97,12.61c1.37.6,2.69,1.36,4.11,1.78.96.28,2.73.47,2.97.05.52-.94.75-2.48.32-3.43-2.61-5.81-7.29-9.25-13.36-11.01Z"/>
    </g>
  </g>
</svg>