<svg xmlns="http://www.w3.org/2000/svg" xml:space="preserve" width="210.324" height="335.159" viewBox="0 0 55.648 88.677"><path d="M26.812.014c-5.203.2-10.539 1.05-15.152 3.584-1.49.962-3.047 2.316-3.274 4.177.05 1.179 1.363 1.634 2.285 2.003.834.277 1.676-.345 1.847-1.166.938-1.832 3.1-2.394 4.909-2.984 4.506-1.218 9.28-1.33 13.887-1.21 3.315.164 6.692.7 9.732 2.161 1.186.577 2.133 1.533 2.848 2.624.674.821 1.972.94 2.76.213.816-.475 1.434-1.572.83-2.449-1.316-2.793-4.324-4.174-7.095-5.108C36.03.395 31.393-.091 26.812.014"/><path d="M20.285 32.306c-8.303-.921-15.689-3.215-18.274-5.674C.702 25.387.65 24.405 1.76 21.958l.789-1.74.931.555 1.842 1.095c.501.298 1.127.583 1.39.634s1.132.314 1.933.583c.947.32 2.212.49 3.623.49 2.102 0 2.196-.026 3.085-.888 1.64-1.59 1.453-3.587-.498-5.3-.854-.75-3.769-2.03-4.03-1.769-.071.072.272.46.763.864 2.01 1.65 2.613 2.396 2.613 3.23 0 2.032-1.97 2.39-5.9 1.073-2.632-.881-4.86-2.12-6.224-3.458C.58 15.857.454 15.396.513 11.567c.03-1.908.065-3.47.08-3.47s.542.478 1.173 1.06c2.615 2.415 6.817 4.306 12.037 5.42 5.04 1.074 7.62 1.309 14.288 1.3 8.87-.013 14.273-.828 19.898-3.001 2.212-.855 5.623-2.914 6.535-3.944.277-.313.575-.57.661-.57S55.302 10 55.252 12c-.075 3.047-.174 3.776-.609 4.486-.977 1.596-4.136 3.52-7.464 4.546-3.03.935-4.669.674-4.669-.744 0-1.036-.666-1.229-1.47-.426-.792.792-.817 1.44-.094 2.36 1.2 1.527 3.295 1.874 6.421 1.066 1.51-.39 4.893-1.914 5.667-2.552.432-.357.411-.383 1.377 1.77.99 2.205.9 2.98-.478 4.115-2.3 1.897-6.54 3.608-11.698 4.722-5.915 1.277-15.378 1.693-21.95.963"/><path d="M21.211 78.084c-3.417-.473-6.558-1.153-8.852-1.915-4.844-1.608-8.802-4.479-10.255-7.438l-.736-1.499-.074-17.793c-.04-9.786-.027-17.793.03-17.793s1.11.471 2.34 1.048c3.106 1.456 10.45 3.293 15.42 3.859 5.417.616 15.879.424 21.113-.388 4.293-.665 9.026-1.976 11.951-3.31 1.62-.74 2.15-.88 2.328-.62.128.187.183 7.997.124 17.535-.12 19.36-.033 18.509-2.15 20.928-4.296 4.911-13.548 7.829-24.567 7.747-2.36-.017-5.362-.18-6.672-.361"/><path d="M22.403 88.526C17 87.961 9.606 85.974 6.543 84.264 1.56 81.484-.61 78.318.146 74.936c.182-.813.448-1.55.592-1.639s.892.436 1.663 1.165c4.226 3.997 11.792 6.906 20.13 7.74 3.833.383 10.863.183 14.422-.41 7.125-1.189 13.103-3.727 16.252-6.901.786-.793 1.54-1.441 1.674-1.441.135 0 .4.814.587 1.81.396 2.1.185 3.057-1.055 4.768-1.041 1.438-3.688 3.394-3.971 2.935-.147-.237-.237-.159-.3.261-.23 1.533-6.927 3.881-14.033 4.921-3.368.493-10.691.697-13.705.381"/></svg>