<svg xmlns="http://www.w3.org/2000/svg" xml:space="preserve" width="289.989" height="272.226" viewBox="0 0 76.726 72.026"><path d="m28.472 72.026-.97-.933-3.161-3.038c-1.204-1.157-2.385-2.196-2.624-2.31-.354-.168-2.536.746-4.814.746L3.419 53.675c0-.507-.07-.61-1.14-1.663C.542 50.298-.003 49.019 0 46.66c.002-1.397.25-2.519.825-3.728.317-.666.705-1.104 2.365-2.664a411 411 0 0 0 5.047-4.869c1.682-1.651 4.407-4.321 6.054-5.933 9.445-9.246 17.436-17.103 22.23-21.857 2.99-2.966 5.716-5.595 6.056-5.841C44.27.54 46.042-.01 48.274 0c1.76.007 2.983.273 4.527.985 1.358.625 1.722.927 5.712 4.726 2.03 1.934 5.537 5.268 7.793 7.409 6.385 6.06 6.872 6.575 7.587 8.03.992 2.021 1.328 3.946 1.013 5.81-.293 1.737-.702 2.346-3.488 5.187L68.914 34.7l-.36-.261c-.198-.144-1.033-.942-1.857-1.774L65.2 31.153l2.172-2.128c1.85-1.812 2.195-2.212 2.326-2.695.19-.7.089-2.164-.209-3.018-.273-.784-1.346-1.966-2.662-2.934-.537-.394-1.62-1.339-2.409-2.097-.787-.76-2.75-2.608-4.361-4.108-1.612-1.5-3.984-3.76-5.273-5.02-1.29-1.26-2.489-2.39-2.666-2.509-.281-.19-.781-.217-3.948-.217h-3.627l-14.277 14.16a31196 31196 0 0 0-19.781 19.631l-5.503 5.473v1.793c0 1.288.051 1.892.183 2.144.252.485 7.744 7.757 8.272 8.03.52.268.972.177 1.254-.252.27-.414.15-.766-.409-1.192-.246-.188-.447-.404-.447-.481 0-.078.645-.794 1.432-1.592l1.433-1.452.002-6.953c0-3.825.033-7.07.071-7.214.05-.183-.108-.47-.53-.964l-.601-.704.687-.696c.378-.382.733-.696.79-.696.056 0 .102.338.102.751 0 .973.3 1.538 1.117 2.095.595.407.696.433 1.442.374.576-.045.886-.14 1.1-.34.403-.376.677-.347 1.219.128.836.735.645 1.197-1.274 3.088-1.324 1.304-1.366 1.362-1.45 2.044-.049.385-.049 1.101 0 1.591.105 1.072.024 1.174-.987 1.231-.695.04-.712.05-.712.431 0 .316.081.426.423.577l.424.186v4.408l-.59.541c-.323.297-.702.715-.842.927-.211.322-.327.38-.701.347-.368-.031-.465.014-.54.254-.14.44.557.875.792.495.05-.08.2.105.34.423.154.344.72 1.022 1.445 1.732 1.16 1.134 1.213 1.169 1.942 1.255l.75.088 2.314 2.195a476 476 0 0 1 5.644 5.483l3.328 3.288h1.275l3.554-3.544c1.954-1.95 3.553-3.636 3.553-3.747 0-.311-.35-.74-.673-.825-.24-.063-.57.2-1.892 1.507l-1.601 1.583v-.605c0-1.32-.493-1.66-2.404-1.66-1.213 0-1.275-.014-1.763-.406-.83-.668-.913-.972-.826-3.054.087-2.076.12-2.139 1.12-2.139.79 0 1.03.122 1.891.96l.688.668 6.626.065 6.625.065.369.325a116 116 0 0 1 2.158 2.078c1.684 1.65 1.79 1.784 1.79 2.254 0 .582.287 1.203.644 1.394.138.073.517.134.843.134h.592l3.03-3.04c1.666-1.671 5.05-5.022 7.521-7.445l4.492-4.407.041-2.172.04-2.172-3.62-3.432a716 716 0 0 1-5.12-4.892c-1.489-1.451-1.912-1.736-2.58-1.735-.43 0-1.154.429-1.505.89-.406.534-6.359 6.575-6.654 6.754-.167.1-.848.16-1.875.163l-1.613.005-.73-.779c-.465-.495-.969-.88-1.383-1.057-.422-.181-.926-.57-1.434-1.11-.77-.816-.794-.83-1.471-.83-.857 0-1.235.193-2.014 1.025l-.614.656v1.51c0 1.042.057 1.618.183 1.86.1.194.621.777 1.158 1.296.884.856 1.024.944 1.502.944.29 0 .565.063.613.14.047.075.323.31.613.52.986.714 1.525.496 3.342-1.354.827-.842.942-1.013.798-1.186-.209-.251-.739-.265-.879-.023-.264.455-1.283 1.536-1.679 1.781-.497.307-.788.26-1.215-.193-.237-.253-.266-.36-.15-.575.25-.47.153-.76-.484-1.439-.71-.756-1.076-.842-1.318-.31-.147.323-.13.383.181.651.19.163.414.3.5.305.085.005.31.196.498.423l.343.414-.7-.044c-.686-.044-.714-.062-1.482-.952l-.782-.907v-2.699l.544-.466c.858-.734 1.205-.665 2.18.435.584.658.943.946 1.339 1.074.408.131.687.362 1.137.942.328.423.712.814.855.87.463.18 3.807.137 4.267-.056.23-.097.769-.474 1.196-.84l.776-.663.15.351c.195.454 1.591 1.969 2.192 2.378.53.36.534.372.28.715-.182.248-.19.248-.46-.04-.337-.36-.421-.363-.721-.032-.23.255-.229.272.06.579l.297.316-.267.43a5.4 5.4 0 0 1-.7.848l-.43.417-.014-.378c-.03-.834-.887-1.524-1.702-1.37-.295.054-.483.18-.553.369-.163.439-.03.636.373.547.83-.182 1.346.851.82 1.643-.252.378-4.839 4.926-5.757 5.707-.507.432-.56.522-.407.706.336.404.778.247 1.684-.6 2.315-2.161 7.266-7.155 7.783-7.848.32-.43.78-.927 1.02-1.106.739-.55.984-1.024.984-1.905 0-.685-.044-.821-.358-1.11-.67-.614-1.138-.846-2.038-1.006-1.25-.222-1.388-.049-.56.705.553.505.66.554.934.43.253-.116.38-.09.71.144.342.244.4.368.4.855 0 .313-.062.608-.139.655-.076.047-.53-.287-1.009-.744a52 52 0 0 0-1.5-1.374l-.63-.544.973-1.008.972-1.008 1.33 1.323 1.329 1.324-.045 1.436-.044 1.437-1.113 1.074c-.613.59-2.171 2.157-3.464 3.482a331 331 0 0 1-4.244 4.267c-1.434 1.405-1.879 1.918-1.83 2.106.09.342.412.44.742.223.15-.099 1.854-1.74 3.785-3.648l3.511-3.469h.893c.814 0 .928.034 1.275.38.361.362.38.437.38 1.5 0 1.084-.008 1.112-.26.954-.144-.089-.26-.206-.26-.26 0-.053-.234-.25-.518-.439-.93-.615-1.072-.528-4.118 2.505-2.529 2.518-2.679 2.694-2.544 2.989.079.172.247.313.373.313.127 0 1.34-1.112 2.694-2.472s2.573-2.506 2.708-2.55c.31-.097 1.603.87 1.714 1.284.043.159.078.572.08.92.001.736.028.706-2.449 2.818l-1.602 1.368.04 1.058.04 1.058-1.627-1.531c-.895-.843-1.744-1.662-1.887-1.82-.616-.684-.466-.673-7.676-.574l-6.688.092-.76-.72c-.419-.397-.89-.76-1.049-.81-.573-.175-2.062-.11-2.486.108-.723.375-.807.713-.807 3.284v2.307l.825.824.824.825h1.57c1.824 0 1.729-.078 1.729 1.413v1l-1.228 1.224-1.229 1.223-1.017-.922c-.56-.508-1.36-1.271-1.778-1.697l-.76-.774.017-5.387.016-5.388.418-.435c.593-.617.822-.71 1.49-.61.507.076.737.233 1.71 1.166.618.593 1.252 1.145 1.408 1.226.199.104 1.769.149 5.189.149 4.167 0 4.968-.03 5.33-.203.235-.111.972-.792 1.639-1.512.793-.857 1.394-1.388 1.742-1.537.664-.285 1.446-1.137 1.62-1.765.081-.294.102-1.422.053-2.938l-.078-2.461h-.937c-.801 0-.953.036-1.053.254-.107.23-1.808 2.09-4.114 4.497l-.872.911-1.101-1.138c-1.1-1.137-1.458-1.33-1.771-.952-.226.272-.037.55 1.095 1.606l.981.917v1.424c0 1.214-.035 1.456-.238 1.64-.209.189-.664.215-3.737.215h-3.499l-1.154-1.172-1.154-1.171h-1.153c-.633 0-1.245.035-1.359.079-.113.043-.499.43-.857.857l-.65.779v10.056l-.52-.51c-.567-.552-.625-.727-.326-.976.28-.233.243-.662-.065-.743-.31-.081-.359-.623-.065-.736.116-.044.195-.24.195-.483 0-.31-.047-.39-.195-.334-.168.064-.196-.167-.196-1.618 0-1.57.017-1.685.228-1.576.346.178.553.04.553-.366 0-.382-.249-.57-.585-.44-.16.061-.196-.064-.196-.694 0-.797-.144-1.082-.546-1.082-.145 0 .668-.884 2.14-2.329l2.374-2.329.156.37c.085.203.93 1.131 1.877 2.062l1.723 1.693 1.965.038c1.08.022 2.037.018 2.127-.008s.163-.236.163-.47c0-.362-.168-.584-1.168-1.548-1.3-1.253-1.61-1.361-2.433-.852-.474.293-.892.948-.75 1.176.058.095 0 .093-.185-.005-.332-.178-2.105-2.172-2.105-2.368 0-.078-.117-.29-.26-.472-.143-.183-.26-.38-.26-.438 0-.122 1.823-1.681 1.966-1.681.052 0 1.022.894 2.156 1.987 2.981 2.873 3.161 2.986 3.867 2.43.567-.445.464-.876-.405-1.711-.412-.395-1.39-1.378-2.173-2.184-1.265-1.302-1.4-1.484-1.205-1.627.273-.2.283-.504.025-.718-.156-.13-.235-.13-.39 0-.3.249-.26-.293.042-.566.304-.274.367-.27.768.045.469.368.976.33 1.447-.11.49-.457.623-.941.406-1.465-.216-.522-.654-.796-1.188-.745-.617.06-.642.422-.053.77.517.305.54.357.295.692-.164.224-.194.222-.682-.04-.28-.15-.62-.274-.753-.274-.449 0-1.122.415-1.398.86-.164.267-.377.442-.536.442-.17 0-1.56 1.283-3.928 3.624-2.016 1.993-4.006 3.939-4.422 4.324l-.758.7-1.614-.038c-1.84-.045-2.493.097-2.61.568-.172.682.607 1.194.843.555.102-.276.181-.293 1.358-.293H24.5l-.47.481c-.396.406-.584.495-1.199.564-1.05.12-1.075.131-1.575.775-.25.323-.58.62-.731.662-.507.14-1.27-.175-1.828-.754-.959-.995-1.011-1.375-.275-1.994.351-.296.483-.331.97-.258.558.084.562.082.562-.314 0-.22-.06-.399-.134-.399-.073 0-.194-.16-.268-.354-.193-.51.019-.87.617-1.05.293-.087.749-.4 1.088-.745l.585-.596.04-2.774.039-2.774 1.858-1.843 1.859-1.842h.796c.437 0 .834.061.88.136s-.184.425-.513.776c-.645.69-.777 1.233-.393 1.617.466.467.934.239 2.369-1.154 1.069-1.037 1.304-1.46 1.066-1.917-.088-.168-2.048-2.195-4.357-4.506l-4.198-4.201.928-.9c.51-.495.977-.91 1.037-.924s.363.164.672.396l.564.422.043 1.409c.042 1.343.06 1.425.415 1.795.333.347.412.373.76.252.49-.17.881.02 1.213.592.329.565.41.604 1.29.606l.768.002.871-.911c.543-.569.975-.912 1.147-.912.152 0 .491.19.754.42.419.367.587.425 1.34.463 1.075.053 1.432-.148 2.365-1.335.761-.97.964-1.11 1.594-1.11.64 0 1.133.425 1.133.98 0 .676-.223 1.027-1.11 1.747-.909.737-1.754 1.625-1.754 1.842 0 .078.13.247.29.376.288.234.296.228 1.725-1.136.789-.754 1.535-1.553 1.657-1.776.477-.87.17-2.074-.678-2.652-.35-.238-.607-.293-1.392-.293h-.963l-.613.677c-1.522 1.681-1.66 1.797-2.15 1.797-.355 0-.607-.123-1.066-.52-.906-.784-1.709-.645-2.619.452-.478.577-1.034.98-1.352.98-.079 0-.407-.261-.73-.58-.503-.495-.676-.584-1.199-.618l-.61-.04-.038-1.367-.037-1.367-.744-.755-.744-.756 1.26-1.229 1.26-1.229.39.39c.448.448.779.49 1.197.151.378-.307.272-.824-.215-1.046-.278-.127-.386-.123-.556.023-.116.099-.295.228-.397.287-.29.167.502-.82.877-1.093l.334-.243 2.22 2.196c2.355 2.333 2.546 2.455 3.54 2.269.49-.092.65-.229 1.6-1.368.732-.876 1.152-1.047 2.573-1.047h1.137l1.341 1.341 1.342 1.342v2.028l-.978 1.003c-.538.551-1.074 1.146-1.192 1.322s-.922 1.053-1.789 1.948-1.797 1.906-2.07 2.246c-.318.398-.597.619-.78.62-.2.001-.877-.6-2.212-1.962-1.177-1.2-2.006-1.947-2.133-1.922-.114.023-.29.165-.39.315-.17.258-.066.387 1.842 2.279 2.195 2.174 2.625 2.451 3.405 2.194.266-.088.671-.43 1.048-.883.337-.406 1.349-1.504 2.248-2.439.898-.935 1.75-1.871 1.89-2.08l.257-.382.11.558c.136.684.263.74 1.948.865 1.066.08 1.27.13 1.27.314 0 .672 1.048 1.132 1.235.542.1-.315-.136-.786-.394-.786a.194.194 0 0 1-.19-.195c0-.108-.118-.313-.26-.456-.215-.214-.435-.26-1.246-.26-1.119 0-1.405-.11-1.682-.648-.188-.363-.18-.397.193-.806.215-.235.39-.565.39-.734s.062-.287.138-.262 1.218 1.129 2.538 2.452c2.104 2.108 2.402 2.458 2.402 2.82 0 .504-.497 1.135-1.047 1.327-.335.116-.435.097-.658-.126-.393-.393-.272-.696.297-.743.529-.044.802-.277.685-.583-.189-.493-1.418-.326-1.875.254-.424.54-.352 1.155.2 1.707.405.405.448.506.329.768-.165.36-.003.88.312 1 .51.196.778.028 2.216-1.386l1.494-1.47V36.37l-2.942-2.894c-1.618-1.592-3.082-2.982-3.255-3.088-.261-.16-.313-.297-.313-.827v-.635l-1.667-1.679-1.667-1.679H36.26l-1.198 1.254c-.906.947-1.28 1.253-1.533 1.253-.258 0-.792-.46-2.347-2.025-1.107-1.113-1.991-2.08-1.966-2.15s.305-.405.62-.745c.544-.587.584-.606.754-.372.322.443 3.826 3.957 3.946 3.957.064 0 .263-.132.443-.293l.327-.293-1.402-1.302a82 82 0 0 0-1.752-1.594c-.327-.273-.35-.359-.339-1.302.011-1.008.012-1.01.52-1.448l.51-.438v1.353c0 1.486.109 1.78.783 2.128.495.256.859.242 1.52-.058.89-.404 1.005-.773.896-2.865-.05-.968-.12-1.79-.155-1.824-.035-.036-.221.024-.414.132-.348.196-.351.209-.386 1.82-.038 1.777-.112 1.948-.836 1.948-.364 0-.366-.005-.375-.879a41 41 0 0 0-.073-1.863l-.064-.984 2.691-2.638c2.613-2.56 2.697-2.63 2.885-2.36a.53.53 0 0 0 .54.236c.46-.054.536-.523.13-.807l-.295-.207.44-.454c.818-.843.811-.89.773 5.879l-.034 6.03 1.814 1.92c2.084 2.207 3.361 3.42 3.6 3.416.358-.004.545-.23.419-.506-.067-.147-1.118-1.309-2.336-2.581s-2.29-2.412-2.383-2.531c-.134-.172-.167-1.51-.16-6.448.006-3.426.057-6.401.113-6.61.137-.514.344-.55.534-.09.087.208.33.544.539.744l.381.366v2.818c0 1.55-.036 2.854-.08 2.897-.043.044-.181.015-.307-.064-.326-.203-.655-.034-.655.336 0 .371.307.528.66.339.244-.13.252-.064.252 2.27v2.405l.944.953c.519.525 1.926 1.91 3.127 3.077 1.872 1.821 2.233 2.117 2.537 2.082.202-.023.373-.132.395-.252.025-.131-1.09-1.332-2.961-3.19L44.3 23.028V17.5l.001-5.528-.47-.48-.47-.482.536-.484c.545-.493.647-.844.412-1.43-.11-.272.046-.715.251-.715.069 0 .136 1.433.158 3.352.038 3.294.045 3.36.35 3.788.17.239.545.605.832.814.468.338.629.379 1.513.38.544.002 1.066.051 1.16.11s.356.393.585.742c.32.489.524.66.883.745.336.08.772.417 1.562 1.211l1.096 1.102.044 2.661.044 2.66-.33.332c-.183.182-.385.331-.45.331-.066 0-.558-.46-1.095-1.021-1.093-1.144-1.289-1.632-.965-2.407.103-.245.251-.486.33-.535.225-.139.169-.531-.113-.786-.24-.218-.279-.219-.583-.02-.577.379-.753.908-.703 2.121l.046 1.092L50.06 26.1l1.136 1.046-.078.749c-.098.937.119 1.4.925 1.979.32.23.822.703 1.115 1.05.337.4.638.633.816.633.2 0 1.814-1.529 5.432-5.143 5.628-5.621 5.356-5.41 6.426-4.964.562.235 1.705 1.385 2.051 2.065.3.587.462 1.816.317 2.399-.06.242-.85 1.108-2.296 2.518-2.972 2.896-2.99 2.461.239 5.544 17.72 16.915-10.129-9.564 7.99 7.674 1.075 1.023 1.46 1.487 1.782 2.148.762 1.566.986 3.173.674 4.83-.24 1.273-.685 1.964-2.057 3.19-1.267 1.133-3.754 3.564-12.784 12.498-5.632 5.572-5.422 5.423-7.682 5.44-1.963.015-2.832-.393-4.729-2.22-3.096-2.984-3.595-3.417-4.097-3.552-1.04-.28-1.065-.262-5.33 3.96l-3.968 3.93zm4.478-6.12c.06-.52-.426-.755-.797-.385-.263.264-.264.274-.023.54.337.372.769.29.82-.155m.554-1.023c.26-.139.36-.776.12-.776-.077 0-.065-.105.031-.26.16-.255.163-.255.256-.003.12.324.693.477.96.256.11-.092.183-.317.161-.503l-.039-.337-1.899-.036-1.899-.036.011-.544c.01-.481-.03-.56-.349-.674-.287-.102-.406-.083-.585.097-.214.213-.203.269.211 1.067l.437.842h1.102c1.002 0 1.083.019.897.205-.112.112-.205.255-.205.316 0 .119.366.521.474.521.035 0 .178-.06.316-.135m4.014-1.997c.214-.258.036-.602-.312-.602-.163 0-.334.095-.379.212-.09.237.13.569.38.569.09 0 .23-.08.311-.179m1.111-1.328c.242-.242.244-.26.07-.585-.074-.138-.238-.252-.364-.252-.51 0-.738.655-.315.901.309.18.372.174.61-.064m-1.162-.888c0-.464-.35-.73-.684-.52-.51.322-.257 1.006.347.936.276-.032.337-.108.337-.416m-2.149-.86v-.911h-1.041v1.822h1.041zm-2.348.332c.195-.235.07-.67-.227-.784-.327-.125-.719.396-.543.724.158.295.55.325.77.06m19.557-1.435c.191-.42-.06-.749-.532-.694-.237.028-.349.128-.379.34-.092.647.647.934.911.354m-19.544-.724c.261-.14.33-.583.139-.885-.063-.099-.273-.155-.487-.13-.322.036-.382.106-.418.485-.057.593.25.806.766.53m21.063-.464c.55-.385.105-1.375-.458-1.02-.35.221-.477.511-.384.882.1.398.4.447.842.138m-8.767-1.42c0-.327-.057-.397-.35-.43-.248-.03-.391.038-.497.236-.197.368.055.677.51.624.279-.032.337-.107.337-.43m-29.69-.275c.242-.242.212-.428-.101-.626-.233-.147-.616.004-.707.277-.05.15.306.56.487.56.06 0 .206-.096.322-.211m5.144-.568c.277-.277.238-.586-.09-.712-.51-.195-1.014.382-.683.78.215.26.468.237.773-.068m29.559-.003a.13.13 0 0 0-.13-.13.13.13 0 0 0-.13.13c0 .072.058.13.13.13a.13.13 0 0 0 .13-.13m.972-.362c.045-.118-.028-.314-.17-.456-.205-.205-.3-.223-.526-.102-.152.081-.276.26-.276.397 0 .485.797.617.972.16m-31.98-.412c.065-.461-.335-.731-.655-.442-.277.251-.3.45-.075.674.26.26.679.126.73-.232m32.951-.51c.188-.352-.114-.73-.489-.611-.273.087-.396.566-.196.767.17.17.558.082.685-.156m-20.814-.153c.464-.248.244-1.037-.29-1.037-.22 0-.5.356-.5.633 0 .133.358.539.474.539.035 0 .178-.06.316-.135m22.05-.986c.28-.107.259-.353-.052-.635-.211-.19-.294-.203-.456-.069-.109.09-.198.304-.198.474 0 .317.26.402.706.23m-29.916-1.898c1.76-1.743 2.114-2.27 1.924-2.87-.17-.536-2.81-3.095-3.192-3.095-.065 0-.119.262-.119.583 0 .548.04.615.684 1.119.816.64 1.53 1.495 1.53 1.836 0 .221-2.1 2.372-3.028 3.1-.381.3-.457.633-.201.888.35.35.705.12 2.402-1.56m1.394 1.432c.105-.169.08-.284-.105-.489q-.458-.506-.723-.008c-.318.594.47 1.066.828.496zm16.234.014c.116-.217.1-.322-.08-.521-.267-.295-.441-.312-.766-.075-.176.13-.217.267-.153.521.07.277.164.346.47.346q.384 0 .53-.271m-23.173-.515c.363-.194.316-.623-.089-.807-.302-.138-.37-.12-.597.161-.256.317-.256.318.03.55.335.271.33.27.656.096m36.627-.286c.11-.173.092-.275-.073-.44-.39-.39-.972.119-.62.543.202.244.503.2.693-.103m-28.307-.482c.174-.326.172-.343-.07-.585-.268-.269-.393-.258-.71.059-.209.209-.235.316-.125.52.178.334.728.337.905.007zm7.87-1.61c.319-.234.23-.795-.135-.847-.267-.038-.7.268-.7.496 0 .136.373.52.506.52.053 0 .2-.076.328-.17m17.459-1.263c0-.377-.052-.463-.3-.498-.383-.054-.677.188-.677.557 0 .393.118.481.581.436.358-.035.396-.083.396-.495m-28.525-.21c.486-.186.063-.928-.439-.768-.295.093-.352.45-.11.692.177.177.258.188.549.077m19.926-.162c.13-.41-.057-.688-.433-.644-.346.04-.497.336-.358.698.106.277.698.236.79-.054m-4.252-1.477c.28-.28.187-.742-.17-.832-.657-.165-1.053.284-.646.733.262.29.586.33.816.1m-19.83-.69c0-.344-.045-.39-.376-.39-.474 0-.725.343-.474.646.102.122.32.196.514.174.278-.032.336-.107.336-.43m5.067-.144c.304-.117.26-.667-.06-.77-.476-.15-.83.352-.489.693.178.177.259.189.55.077m21.13-.136c.088-.232-.415-.74-.655-.66-.28.093-.403.456-.227.669.225.27.776.265.881-.01zm6.084-.38c.151-.151.17-.267.073-.448-.19-.355-.35-.42-.647-.26-.252.135-.36.642-.176.826.153.153.54.093.75-.118m-5.208-.603c.185-.264.179-.31-.084-.59l-.284-.302-.325.324c-.316.316-.318.33-.084.59.31.34.527.335.777-.022m-20.935-.847c.057-.229.003-.4-.188-.591-.256-.256-.285-.259-.603-.05-.403.264-.43.65-.065.907.36.252.757.129.856-.266m-6.715.087c.376-.2.34-.872-.057-1.053-.662-.301-1.142.403-.648.95.248.274.356.29.705.103m23.428-.648c0-.266-.519-.486-.774-.328-.215.133-.162.564.087.703.297.167.687-.046.687-.375m3.18.318c.245-.244.26-.468.049-.68-.415-.415-1.037.099-.756.624.168.313.43.334.707.056m-9.717-1.644a.567.567 0 0 0-.179-.914c-.409-.186-.751-.015-.814.407-.081.551.601.9.993.507m6.406-.104c.267-.498-.243-1.007-.625-.625-.168.168-.21.657-.069.798.175.176.559.08.694-.173m-23.18-.251c.29-.543-.343-1.119-.787-.716-.285.258-.322.582-.094.81.24.24.73.187.88-.094m1.54-.166c.416-.415-.098-1.036-.624-.755-.25.134-.357.642-.174.825.142.141.63.099.799-.07m35.675-.12c.046-.246-.328-.668-.532-.6-.233.077-.398.438-.309.672.11.287.784.228.84-.073m-23.485-.286c.277-.202.234-.588-.087-.79-.451-.284-.959.356-.613.773.194.234.397.24.7.018m6.955-1.461 1.204-1.264 1.488.057c1.59.06 1.626.047 1.626-.607 0-.414-.19-.46-1.92-.46h-1.507l-1.607 1.59c-.883.873-1.606 1.69-1.606 1.815 0 .356.39.508.783.306.184-.096.877-.742 1.539-1.437m5.855.435c.239-.24.186-.6-.113-.76-.34-.181-.643.038-.643.466 0 .414.458.592.756.294m-23.789-.184c.15-.181.125-.253-.186-.521-.2-.17-.416-.31-.482-.31-.158 0-.305.595-.209.845.1.26.657.25.877-.014m12.496.004c.231-.279-.001-.64-.412-.64-.319 0-.467.297-.328.658.096.25.526.24.74-.018m-2.634-.69c.229-.144.145-.668-.134-.843-.265-.166-.756.209-.756.577 0 .337.528.496.89.266m-1.533-.931c.308-.165.333-.718.038-.831-.56-.215-1.086.455-.623.793.283.207.27.206.585.038m5.846-.377c.298-.557-.314-1.083-.85-.732-.373.244-.383.31-.114.694.25.358.781.379.964.038m-7.446-.733c.16-.111.29-.285.29-.386 0-.237-.444-.474-.702-.375-.277.106-.393.547-.205.775.198.237.26.236.617-.014m13.678-.813c.047-.336-.178-.677-.446-.677-.097 0-.273.147-.39.326-.176.268-.184.362-.047.528.253.305.83.189.883-.177m1.247.195a.51.51 0 0 0 .187-.488c-.036-.257-.12-.319-.435-.319-.309 0-.4.063-.433.3-.04.286.167.677.359.677.049 0 .194-.077.322-.17m-16.35-1.116c.232-.147.145-.67-.14-.849-.452-.283-.96.358-.614.774.175.21.49.242.755.075m10.542-1.735c.389-.388.004-.973-.55-.834-.373.094-.554.531-.33.801.19.23.666.247.88.033m6.53-.03c.122-.149.097-.243-.124-.465-.22-.22-.316-.246-.464-.123-.103.086-.187.295-.187.465 0 .239.07.31.31.31.17 0 .379-.085.464-.187m-19.394-.52c0-.364-.309-.518-.66-.33-.312.167-.327.59-.027.759.317.177.687-.054.687-.43m3.702-.93c.244-.245.26-.469.048-.681-.318-.318-1.015-.101-1.015.316 0 .214.365.57.586.57.097 0 .268-.093.38-.205m2.841-.147c.054-.03.098-.582.098-1.227v-1.172l-.67-.708c-.715-.755-.886-.827-1.209-.504-.342.342-.24.68.316 1.048l.521.345v1.133c0 .623.038 1.17.084 1.217.079.078.638-.007.86-.132m2.756.012c.263-.101.267-.62.007-.836-.264-.219-.843.032-.843.365 0 .44.372.649.836.47m-9.503-.256c.3-.3.039-.736-.41-.682-.443.053-.667.402-.436.68.218.263.584.264.846.002zm5.206-1.176c.345-.133.255-.69-.135-.839-.388-.147-.7.025-.7.387 0 .421.38.627.835.452m15.048-.245c.23-.277.065-.588-.312-.588-.384 0-.514.17-.402.522.097.305.485.341.714.066m-6.58-.538c.253-.097.592-.715.592-1.078 0-.338-.514-.904-.846-.933-.538-.045-.737.017-1.048.328-.845.845.146 2.126 1.302 1.683m2.352-.752c.213-.155.226-.229.093-.52-.169-.37-.305-.411-.69-.205a.433.433 0 0 0-.024.766c.3.174.33.172.621-.04m-6.252-1.302c0-.389-.404-.577-.67-.311-.184.184-.191.252-.046.427.232.28.716.201.716-.116m12.228-.158c.267-.102.267-.557.001-.659s-.635.267-.533.533c.085.22.209.25.532.126m-.966-1.222c.175-.326-.31-.766-.625-.567-.31.194-.355.584-.092.776.262.192.547.11.717-.209m3.198-.319c.199-.147.223-.236.113-.415-.205-.336-.37-.348-.72-.053-.306.26-.307.269-.06.46.312.241.353.242.667.008zm-12.207-.735c.047-.406-.256-.692-.612-.579-.612.194-.405 1.03.236.955.252-.03.346-.123.376-.376m7.967-.052c.393-.475-.255-.912-.693-.468-.278.282-.279.289-.03.474.322.239.52.237.723-.006zm-12.75-.343c.122-.228.101-.323-.12-.544-.229-.229-.317-.246-.6-.118-.317.145-.458.637-.244.851.201.201.82.08.964-.19m7.825-.176c.247-.54-.36-.98-.777-.563-.168.168-.21.657-.07.798.212.211.707.074.847-.235m3.99-.63c-.031-.22-.129-.285-.43-.285-.461 0-.618.407-.258.67.317.232.742-.006.688-.386m8.071.145c.385-.386.004-.974-.543-.837-.349.088-.5.456-.319.78.14.249.637.282.862.057m-4.4-1.66c0-.895.054-1.588.13-1.634.207-.129.15-.562-.092-.697-.226-.127-.1-.278 1.109-1.328.382-.332.34-.823-.075-.882-.212-.03-.502.157-1.027.661-.624.6-.747.797-.836 1.344-.129.782-.155 3.884-.034 4.005.047.047.252.086.455.086h.37zm-8.99 1.044c.242-.45-.41-.847-.891-.542-.12.075-.152.229-.095.454.067.27.164.34.468.34.246 0 .432-.091.518-.252m10.729.056c.108-.282-.032-.564-.326-.657-.272-.086-.633.134-.633.386 0 .423.812.652.959.27m-7.995-.254c.258-.311.04-.745-.35-.698-.442.053-.665.403-.435.68.214.258.58.266.785.018m-2.753-1.923c.033-.287-.022-.369-.295-.437-.348-.088-.722.115-.722.39 0 .268.312.479.65.44.246-.03.336-.126.367-.393m11.212.046c.297-.555-.608-.925-.946-.386-.098.156-.089.274.035.423.233.28.752.26.911-.037m-10.138-.803c.322-.172.323-.542.003-.832-.2-.18-.305-.197-.521-.08-.334.178-.36.722-.043.906.285.166.262.166.562.006zm9.092-.305c.305-.366-.222-.893-.588-.588-.189.156-.24.533-.092.68.147.147.524.096.68-.092m2.333-.756c.059-.511-.426-.755-.785-.396-.215.215-.233.305-.106.542.227.425.836.325.89-.146m-12.55-.055c.293-.113.257-.666-.055-.833-.526-.281-1.04.34-.625.755.174.174.37.196.68.078m1.82-.873a.51.51 0 0 0 .188-.488c-.036-.257-.12-.318-.435-.318-.31 0-.4.063-.434.3-.04.285.168.677.36.677.049 0 .194-.077.322-.17m6.061-.018c.209-.25.126-.727-.156-.904-.51-.32-1.03.565-.541.922.301.22.504.216.697-.018M38.7 17.373c.195-.365.168-.501-.12-.593-.301-.095-.787.132-.787.368 0 .468.686.638.907.225m4.016-1.071c.03-.256-.03-.37-.227-.432q-.53-.168-.53.374c0 .376.117.49.451.442q.267-.036.306-.384m-2.144-.261c.098-.157.088-.274-.035-.423-.248-.298-.755-.263-.858.06-.177.558.578.865.893.363m-2.133-.1c.156-.29.066-.608-.2-.71-.423-.163-.785.247-.635.72.102.322.661.316.835-.01m4.44-2.747c.39-.209.33-.753-.093-.859-.648-.163-1.008.291-.574.725.31.31.33.314.668.134m11.495 48.992c.035-.125.1-.784.145-1.465.045-.68.14-1.383.21-1.562s.667-.794 1.327-1.367c2.104-1.828 2.387-2.154 2.484-2.86.047-.345.086-1.644.086-2.887v-2.26l-.489-.54c-.54-.6-1.106-.89-1.753-.899-.424-.006-.417-.016.864-1.238 1.266-1.208 1.293-1.247 1.4-1.98.06-.41.073-1.333.028-2.049l-.08-1.302-1.288-1.316c-.707-.723-1.287-1.372-1.287-1.442s.59-.698 1.311-1.398c1.532-1.485 1.61-1.499 2.659-.459l.649.643-.044 3.404-.044 3.403 1.283 1.223c.705.673 1.443 1.311 1.64 1.418l.358.195v2.97c0 2.714-.02 2.99-.238 3.187-.266.241-.473.289-.344.08s-.193-.515-.54-.515c-.266 0-.31.063-.31.449 0 .291.08.495.228.58.202.115.157.201-.396.755l-.625.624.024-3.038.023-3.04-.896-.904c-.925-.933-1.421-1.202-1.625-.88-.19.3-.15.368.728 1.278l.847.876v6.66l-.944.849-.944.85-.065-.674c-.063-.648-.08-.674-.456-.674-.382 0-.392.017-.458.76-.065.731-.232 1.009-.7 1.167-.099.033-.089.116.032.262.134.162.237.182.423.082.43-.23.268.061-.401.72l-.649.64-.315-.297c-.19-.18-.436-.28-.621-.253-.265.038-.311.126-.346.663-.03.477.01.639.173.701.174.067.124.171-.28.585-.52.533-.891.663-.784.275zm1.8-2.982c.304-.275.303-.522-.002-.685-.33-.177-.802.165-.802.582 0 .384.432.44.804.103m1.368-1.43c.16-.242.157-.304-.026-.488-.363-.362-.985.144-.793.645.107.28.592.187.82-.157m2.64-4.204c.292-.543-.341-1.119-.786-.716-.285.257-.322.582-.093.81.239.24.73.187.88-.094m2.795-.87c.13-.05.206-.237.206-.507 0-.419-.17-.586-.597-.586-.127 0-.185.155-.185.5 0 .652.114.77.576.593m-2.794-.76c.329-.397-.136-.95-.658-.785-.556.177-.387.973.207.973.162 0 .364-.085.45-.189m2.864-.912c.267-.322.11-.658-.308-.658-.467 0-.723.344-.477.64.214.258.579.266.785.018m-3.064-.797c.38-.38-.23-1.049-.643-.706a.51.51 0 0 0-.037.754c.212.212.436.197.68-.048m-.997-1.361c.05-.26-1.2-1.605-1.423-1.531-.382.126-.25.589.344 1.199.59.606 1.001.733 1.079.332m1.47-2.345c.305-.163.335-.717.047-.828-.744-.285-1.275.244-.761.758.24.24.373.253.715.07m-.333-3.12c.175-.554-.212-1.007-.723-.845-.337.107-.418.448-.189.798.253.386.795.414.912.047m.12-2.82c.133-.347-.17-.715-.552-.671-.457.053-.543.521-.147.8.314.218.584.169.699-.128m-2.056-1.15c.111-.289-.198-.718-.517-.718-.607 0-.817.62-.326.963a.554.554 0 0 0 .843-.245m1.355-1.117c.112-.21.098-.34-.064-.586-.34-.518-.983-.342-.983.27 0 .584.778.819 1.047.316M26.003 60.702c-.283-.297-.447-.502-.364-.455.352.197.766-.231.612-.632-.118-.309-.558-.23-.721.13-.082.179-.183.325-.225.324-.043 0-.531-.46-1.086-1.02-1.036-1.047-1.236-1.493-.824-1.835.151-.125.173-.106.118.103-.074.284.358.8.67.8.107 0 .319-.246.473-.547.23-.45.266-.69.205-1.346l-.075-.798.763-.754.763-.755.072.7c.063.61.201 6.625.152 6.625-.01 0-.25-.243-.533-.54m-13.152-6.065a1.5 1.5 0 0 0-.52-.452c-.175-.08-.319-.212-.319-.293 0-.082.586-.714 1.302-1.406.783-.757 1.303-1.36 1.303-1.515 0-.237-.312-.666-.484-.666-.04 0-.764.718-1.607 1.595l-1.534 1.595-.396-.455c-.317-.365-.397-.578-.401-1.064-.005-.573.018-.613.388-.695.6-.132 1.147-.66 1.25-1.21.073-.387.37-.75 1.567-1.915l1.477-1.436v-4.807l-1.074-1.081-1.074-1.082 1.074-1.054 1.074-1.054.423.327.423.326v14.03l-1.335 1.31-1.336 1.309zm.206-4.047c.249-.202.27-.28.14-.521-.257-.481-1.054-.302-1.054.236 0 .245.247.521.467.521.085 0 .286-.106.447-.236m1.79-11.034c.567-.396.19-.99-.49-.774-.293.093-.354.572-.105.82.2.202.248.198.596-.046M43.62 53.85c-.2-.042-.228-.218-.227-1.437v-1.39l.463-.316c.255-.173 1.467-1.418 2.695-2.766 1.318-1.448 2.327-2.452 2.466-2.452.216 0 .234.166.234 2.14 0 2.077-.01 2.153-.314 2.507-.31.36-.336.365-1.622.337-1.033-.023-1.35.014-1.509.172-.422.422-.037 1.192.429.857.362-.26.533-.316.737-.237.142.054-.117.398-.95 1.263-.952.989-1.23 1.204-1.659 1.28-.283.049-.618.068-.743.042m.767-.616c.098-.255-.178-.584-.49-.584-.185 0-.245.095-.245.39 0 .332.05.391.33.391.181 0 .364-.088.405-.197m1.09-.95.29-.235-.347-.227c-.588-.385-1.174.068-.7.541.217.217.417.196.756-.078m-1.198-.578c-.031-.323-.102-.423-.301-.423s-.27.1-.301.423c-.037.38-.007.423.3.423.308 0 .339-.043.302-.423m2.88-2.554c.296-.555-.61-.925-.947-.386-.098.156-.088.274.035.423.233.28.753.26.911-.037m1.063-1.14c.15-.18.131-.244-.127-.453-.23-.186-.36-.212-.549-.11-.243.13-.333.515-.161.687.161.162.661.088.837-.123m.815-1.123c.092-.354-.177-.66-.479-.545-.215.083-.302.58-.132.75.19.19.538.072.61-.205m-12.969 5.407c-.197-.03-.358-.109-.358-.176s-.084-.121-.188-.121c-.406 0-.295-.239.288-.62.593-.388.624-.394.975-.186.199.117.578.435.842.705l.48.492-.84-.02a13 13 0 0 1-1.199-.074m28.688-2.055c.006-1.217.043-2.374.08-2.571l.07-.358h1.474c1.377 0 1.489.019 1.678.289.111.16.202.51.202.779 0 .453-.13.623-1.757 2.282l-1.758 1.793zm1.165.838c.107-.2.104-.317-.011-.456-.363-.437-1.026-.006-.759.494.168.313.594.292.77-.038m1.874-2.54c.113-.112.205-.255.205-.316 0-.193-.4-.52-.634-.52-.505 0-.73.655-.31.9.321.187.504.172.74-.064M8.89 51.414c-.293-.312-.296-.36-.312-3.87l-.015-3.553.834-.883.833-.884.284.267c.273.257.281.339.224 2.38-.032 1.163-.114 2.222-.183 2.353s-.323.322-.565.423c-.623.26-.815.66-.479.995.36.36.645.232 1.51-.674l.732-.768v-4.863l-.41-.384-.412-.384.503-.514c.276-.283.563-.514.638-.512.174.003 1.595 1.373 1.776 1.712.09.169.106.913.045 2.187l-.092 1.931-1.48 1.476c-1.358 1.354-1.48 1.515-1.48 1.961 0 .353-.07.524-.26.626-.154.082-.26.088-.26.015 0-.068.073-.15.163-.184.274-.1-.07-.354-.598-.44l-.477-.077v.921c0 .507-.05.952-.11.99-.062.037-.246-.074-.409-.247m1.278-4.737c.262-.167.144-.981-.15-1.037-.287-.054-.739.327-.739.623 0 .435.494.664.889.414m-.49-1.786c.23-.275.001-.64-.399-.64-.348 0-.597.329-.48.633.104.272.656.276.88.007zm3.372-1.217c.169-.315.055-.627-.266-.729-.481-.152-.908.433-.566.776.28.279.67.257.832-.047m6.515 5.239c0-1.484.01-1.533.358-1.896.344-.36.36-.44.423-2.051l.065-1.678 1.458-1.477c1.478-1.498 1.732-1.88 1.732-2.602 0-.676-1.021-1.826-1.842-2.074-.434-.131-.541-.106-1.217.28-.68.389-.783.412-1.225.28-.266-.08-.622-.293-.792-.473-.274-.292-.305-.436-.282-1.32.014-.546-.031-1.06-.1-1.145-.09-.106.122-.414.704-1.025.457-.48.88-.874.94-.874s1.558 1.453 3.33 3.229l3.22 3.228-.489.173c-.725.255-1.607.98-3.386 2.78l-1.595 1.616v5.55l-.542.5c-.299.276-.592.502-.651.502s-.109-.686-.109-1.523m5.653-9.586c.366-.267.214-.675-.251-.675-.311 0-.398.063-.433.311-.024.171.034.36.13.421.233.148.28.143.554-.057M23.48 37.21c.232-.279-.001-.64-.412-.64-.354 0-.488.362-.243.657.205.246.442.24.655-.017m-3.807-.68c.086-.61-.612-.933-.892-.41a.8.8 0 0 0-.058.528c.125.394.89.3.95-.118m1.067-1.787c.127-.152.131-.274.019-.52-.238-.523-1.064-.368-1.064.199 0 .487.723.71 1.045.321M6.96 49.58l-.545-.466v-2.86l.583-.61.583-.61.003 2.506c.001 1.378-.016 2.506-.04 2.506-.022 0-.286-.21-.585-.466m57.915-4.928V42.9l-1.101-1.015c-.89-.822-1.088-1.071-1.03-1.3.106-.425-.402-.671-.744-.361-.438.396-.319.904.369 1.569.34.328.753.688.918.798.554.37.68.82.645 2.303-.019.755-.067 1.373-.11 1.373-.041 0-.554-.443-1.139-.987l-1.063-.988v-5.605l1.583 1.48c3.08 2.878 4.73 4.512 4.647 4.599-.047.048-.208.011-.359-.083-.356-.223-.728-.004-.728.427 0 .444.628.505 1.055.104l.312-.293V46.4h-3.255zm-1.337.628c-.043-.043-.156-.048-.25-.01-.104.041-.073.072.08.078.136.006.213-.025.17-.068m2.507-.309c.2-.373-.279-.852-.652-.652-.265.141-.316.344-.178.704.112.291.665.257.83-.052m-2.682-.426c.284-.451-.356-.96-.773-.613-.257.214-.238.604.04.767.301.178.558.125.733-.154m-9.685-14.54c0-.067-.29-.345-.645-.619-.68-.525-1.1-1.184-.971-1.522.042-.111.335-.353.65-.538.935-.547.966-.679.966-4.08V20.26l-1.316-1.415c-1.013-1.09-1.404-1.425-1.697-1.457-.286-.03-.529-.227-.963-.78-.32-.408-.581-.843-.581-.968s.293-.51.65-.855l.652-.628V7.845l.513.04c.457.035.713.226 2.33 1.732 1 .931 1.84 1.752 1.867 1.823.027.072.028.58.003 1.13-.045.978-.053 1-.376.977-.471-.034-.715.382-.373.636.14.103.36.154.488.113.224-.07.235.207.235 5.99v6.062h.749c.054 0 .127-3.175.163-7.057l.065-7.057 1.251 1.196 1.252 1.197-.133.498c-.281 1.055.165 1.496.948.939.302-.215.388-.23.51-.082.115.138.075.225-.18.392-.365.239-.427.616-.141.853.22.183.638.008.84-.351.068-.124.144-.197.167-.162s.013 1.543-.022 3.35l-.066 3.287-2.647 2.654-2.648 2.653-.308-.309c-.396-.395-.55-.389-.741.032-.134.292-.12.365.096.523.139.101.341.15.45.109.11-.042-.061.191-.38.518-.62.633-.657.66-.657.472m-.075-1.387c.28-.279.257-.539-.06-.709-.564-.301-1.103.221-.694.673.267.295.485.306.754.037m2.167-.71c.487-.262.238-1.038-.334-1.038-.595 0-.786.626-.297.97.343.24.314.237.63.067m2.39-2.545q.367-.364.049-.68c-.34-.34-1.016-.097-1.016.364 0 .489.6.685.968.316m-3.18-.706c0-.262-.079-.381-.286-.435-.362-.095-.626.118-.626.505 0 .334.173.431.614.347.225-.043.298-.145.298-.417m5.017-1.05c.047-.075.048-.284.003-.463-.065-.26-.151-.318-.422-.286-.707.085-.755.887-.053.887.213 0 .425-.062.472-.137zm-1.202-1.066c.84-.81 1.002-1.092 1.002-1.732 0-.505-.067-.586-1.644-1.979-.717-.633-.923-.681-1.033-.24-.11.438.106.776.892 1.395.373.294.723.61.777.705.233.403-.464 1.27-1.162 1.445-.319.08-.52.546-.387.894.044.113.238.195.461.195.289 0 .564-.172 1.094-.683m-3.95-.026c.087-.105.118-.311.07-.464-.069-.215-.175-.265-.499-.234q-.409.042-.455.274c-.096.507.556.819.883.424m3.32-1.239c.29-.32.183-.622-.261-.734-.46-.115-.775.197-.66.653.104.415.581.457.921.081m-4.753-2.6c.202-.375.03-.68-.356-.634-.383.046-.627.368-.51.673.114.296.701.27.866-.038m5.797-.22c.253-.253.215-.555-.095-.75-.487-.307-1.007.45-.543.79.302.22.382.216.638-.04m-4.384-.463c.071-.619-.77-.81-.958-.219-.111.352.177.654.58.607.257-.03.347-.123.378-.388m-2.475-.513c.043-.364-.212-.556-.56-.422-.2.076-.27.58-.103.747.212.212.624.01.663-.325m1.252-.194c.343-.131.257-.684-.121-.779-.54-.135-.919.341-.558.702.173.174.37.196.68.077m-2.15-.865c.139-.374.055-.587-.27-.69-.27-.086-.76.25-.76.522 0 .495.856.635 1.03.168m3.528-.537c0-.577-.666-.792-.863-.28-.134.35.056.59.468.59.329 0 .395-.052.395-.31m-1.25-1.924c.273-.39.053-.791-.405-.736-.428.051-.633.533-.348.818.275.275.521.248.752-.082m.054-2.496c.032-.272-.026-.356-.295-.423-.387-.098-.723.123-.723.475 0 .595.946.547 1.018-.052m-1.545-1.256c.49-.263.458-.915-.046-.915-.336 0-.598.228-.598.52 0 .185.232.522.36.522.026 0 .154-.057.284-.127m9.28 9.805c.023-1.448.084-2.309.165-2.286.07.02.11.209.088.42-.023.212-.001.509.047.66.074.233.154.263.53.192.546-.102.612.179.117.503-.445.292-.43.786.033 1.076.197.123.38.24.409.26.097.069-.639.938-1.03 1.217l-.394.28zm-14.813-4.393c-.219-.095-.556-.361-.749-.591l-.352-.418V7.73h3.776v2.97c0 3.205.014 3.137-.748 3.658-.258.177-.424.4-.425.574-.005.688-.138.87-.632.865a2.7 2.7 0 0 1-.87-.178m1.772-2.295c.443-.238.249-1.037-.252-1.037-.266 0-.668.387-.668.645 0 .458.444.647.92.392M46.88 9.656a.463.463 0 0 0-.109-.757c-.529-.284-1.038.19-.752.7.14.25.636.283.861.058m-3.684.157c.044-.072.106-.13.138-.13.031 0 .057.058.057.13 0 .071-.062.13-.138.13s-.102-.059-.057-.13"/></svg>