<svg xmlns="http://www.w3.org/2000/svg" xmlns:ffdec="https://www.free-decompiler.com/flash" ffdec:objectType="shape" width="40.9" height="36.05"><path d="M15.896 20.03a4 4 0 0 0-.166-.494c-.535-1.326-1.804-2.33-3.216-2.546-1.34-.204-2.563.177-3.534 1.101-.554.528-.894 1.053-1.104 1.706-.069.214-.118.315-.134.275a4 4 0 0 1-.05-.496 3.7 3.7 0 0 1 .39-1.945c.401-.808 1.271-1.649 2.093-2.021 1.004-.456 2.343-.453 3.367.006.788.354 1.673 1.206 2.068 1.99.37.738.509 1.712.348 2.444l-.031.14z"/><path d="M9.679 30.795c-.153-1.306-.16-1.352-.22-1.37l-.503-.14c-1.605-.444-3.064-1.299-4.334-2.54l-.315-.308-.404.169c-1.247.52-1.878.763-1.907.734-.078-.079-1.91-3.268-1.894-3.296.01-.017.45-.365.978-.773.528-.41.959-.769.959-.8 0-.03-.045-.223-.1-.428-.402-1.518-.417-3.305-.038-4.797.054-.214.116-.435.137-.491.037-.099.002-.13-.97-.866-.554-.42-1.013-.777-1.02-.794-.01-.028 1.834-3.22 1.899-3.285.018-.017.509.165 1.092.406a68 68 0 0 0 1.13.461c.05.016.191-.092.5-.384 1.213-1.149 2.828-2.072 4.375-2.501l.416-.117c.058-.017.064-.06.22-1.39l.131-1.109h3.926l.13 1.11c.18 1.525.134 1.358.4 1.431 1.73.474 3.354 1.381 4.613 2.576.314.297.448.4.501.384.04-.013.548-.22 1.13-.46.809-.335 1.07-.427 1.104-.39.077.082 1.897 3.236 1.885 3.268-.006.017-.443.357-.971.756-.528.398-.975.747-.995.775-.021.032.012.232.089.528.157.605.235 1.095.284 1.779l.038.541-.23 1.512-.231 1.513.185.145c.102.08.557.424 1.01.765.454.34.826.634.828.65.002.038-1.867 3.183-1.937 3.26-.04.042-.25-.032-1.124-.394a55 55 0 0 0-1.142-.466c-.045-.013-.467.303-1.255.942-1.052.85-1.24.986-1.636 1.182-.589.29-1.288.56-1.879.721-.452.124-.48.138-.505.246-.015.064-.087.624-.16 1.245l-.132 1.13H9.811zm3.264-5.745a5.5 5.5 0 0 0 2.005-.853c.418-.286 1.296-1.17 1.558-1.568.619-.94.895-1.891.895-3.079 0-.701-.073-1.175-.27-1.765-.286-.86-.666-1.46-1.378-2.176-.884-.888-1.727-1.347-2.904-1.582-.493-.099-1.614-.099-2.114 0-1.108.217-1.993.67-2.804 1.439-.745.705-1.216 1.425-1.515 2.319-.342 1.021-.362 2.36-.053 3.405.41 1.382 1.546 2.71 2.904 3.394.547.275 1.168.46 1.817.542.459.058 1.39.02 1.859-.076M19.61 9.112c-.373-.848-.694-1.551-.712-1.563s-.648-.11-1.4-.217c-.86-.123-1.378-.213-1.399-.245a34 34 0 0 1-.461-1.05l-.428-1-1.218-.828c-.67-.456-1.224-.847-1.23-.869-.008-.021.314-.598.716-1.28.52-.887.753-1.248.812-1.261.29-.065 4.112-.78 4.119-.771l1.05 1.191a55 55 0 0 0 2.036 2.166l.994.986 1-.3.999-.302 1.84.228c1.01.126 1.895.24 1.965.255l.127.026-.316.58c-.174.318-.491.835-.706 1.147-.334.484-.415.577-.551.632-.199.08-1.045.55-2.209 1.228l-.889.518-.495-.067a4.4 4.4 0 0 0-.573-.053c-.043.007-.587.544-1.208 1.192a56 56 0 0 1-1.157 1.189c-.014.005-.332-.685-.706-1.532M27.954 25.351c-.6-.358-1.11-.67-1.133-.693-.027-.027.069-.29.303-.826l.343-.786-.682-.828c-.606-.736-.708-.882-.916-1.308a8 8 0 0 1-.518-1.363l-.043-.163-.79-.11c-.434-.061-.83-.12-.88-.131l-.09-.021v-2.658l.81-.112c.903-.125.99-.147.99-.249.001-.151.333-1.049.543-1.468a6.5 6.5 0 0 1 1.163-1.663l.413-.428-.344-.808c-.19-.445-.33-.824-.31-.842a108 108 0 0 1 2.2-1.273c.084-.044.121-.004.636.677.5.662.556.723.652.705.057-.011.507-.08.999-.152l.895-.133 1.04.148c.57.08 1.053.138 1.071.127s.26-.334.539-.718c.472-.651.512-.695.592-.653.064.034 2.26 1.308 2.29 1.329.004.002-.152.372-.344.823l-.35.82.126.16c.07.088.364.45.653.805l.526.646.397.992c.335.838.411.996.491 1.02.052.016.45.079.884.139l.79.109v2.657l-.09.02c-.05.012-.444.07-.878.131l-.788.11-.401 1.003-.402 1.004-.654.803-.654.803.314.796c.173.438.307.815.298.839-.012.034-2.133 1.278-2.265 1.329-.018.007-.267-.3-.554-.683l-.522-.695-1.05.15-1.05.151-.94-.138a63 63 0 0 1-1.003-.152c-.043-.01-.235.213-.6.698-.294.392-.553.712-.575.712s-.531-.293-1.132-.652m4.846-5c.754-.16 1.393-.674 1.741-1.4.207-.43.261-.681.258-1.18-.004-.763-.22-1.286-.754-1.823-.26-.262-.386-.355-.661-.486-.452-.214-.694-.266-1.22-.261-.758.006-1.29.234-1.841.788-.24.241-.359.399-.467.623-.599 1.234-.157 2.753.999 3.434.248.146.644.296.89.337.235.039.8.021 1.055-.033M28.116 33.553c-.092-.115-3.81-6.197-3.798-6.21.017-.017 9.04 1.61 9.18 1.655.084.027-.19.272-2.579 2.29a396 396 0 0 1-2.718 2.287c-.025.015-.063.005-.085-.022M19.18 35.764c-1.557-.149-2.838-.278-2.848-.289s1.306-1.41 2.925-3.11l2.943-3.091-.025.875c-.014.482-.035 1.838-.046 3.015-.022 2.156-.045 2.882-.094 2.874-.014-.003-1.3-.126-2.855-.274"/></svg>