<?xml version="1.0" encoding="UTF-8" standalone="no"?>
<!-- Created with Inkscape (http://www.inkscape.org/) -->

<svg
   width="110.46744mm"
   height="111.9318mm"
   viewBox="0 0 110.46744 111.9318"
   version="1.1"
   id="svg1"
   xml:space="preserve"
   xmlns="http://www.w3.org/2000/svg"
   xmlns:svg="http://www.w3.org/2000/svg"><defs
     id="defs1" /><g
     id="layer1"
     transform="translate(-50.315187,-92.542348)"><path
       style="fill:#000000"
       d="m 93.34969,204.43248 c -9.629973,-0.92151 -19.593794,-1.07349 -28.745678,-4.5053 -5.944195,-2.22915 -9.439885,-8.37895 -9.394832,-14.5812 -0.399605,-16.40544 0.09267,-32.8198 0.437387,-49.22379 1.609027,-3.48945 3.773545,-6.66519 5.953125,-9.81149 -3.914088,-2.36915 -11.267107,-2.25092 -11.284505,-8.26975 1.130559,-5.26682 -0.520736,-10.70766 0.711411,-16.02061 3.893958,-5.135251 12.064042,-4.825498 17.92467,-6.647802 17.932183,-3.565719 36.325612,-2.980411 54.495472,-2.376598 12.06689,0.950824 24.34084,2.555563 35.53546,7.39091 2.86076,4.83534 0.93046,11.0504 1.71616,16.44079 0.91162,5.77655 -5.78398,7.18138 -9.93432,8.48222 -5.82588,1.51652 3.77081,7.01407 3.24926,10.98921 0.68023,11.77746 0.40759,23.61875 0.65337,35.42191 -0.32281,8.23185 1.39198,17.96668 -4.91768,24.48693 -6.98384,6.42584 -17.0847,6.61469 -26.00449,7.7573 -10.10783,0.70439 -20.26923,0.47486 -30.39481,0.46727 z m 30.29479,-1.5266 c 8.61331,-1.13347 18.31257,-1.46711 25.18993,-7.44169 5.7719,-5.78734 4.26693,-14.65026 4.72421,-22.05439 -0.004,-12.24797 -0.0917,-24.51805 -0.647,-36.74549 -1.77081,-4.66248 -5.02915,-11.87647 -10.78923,-7.6711 -25.01526,3.46012 -50.575621,3.48678 -75.527806,-0.50408 -5.076433,-4.08487 -7.036448,3.4209 -9.299658,7.02612 -0.819414,3.05147 -0.262842,6.43851 -0.582466,9.60852 -0.197294,14.09262 -0.648907,28.21093 -0.06818,42.29294 0.285153,6.464 5.759456,11.25384 11.78967,12.56161 17.994421,4.50645 36.84213,3.63366 55.21053,2.92756 z m -29.50104,-1.67079 c -8.628396,-0.84065 -17.598696,-0.83402 -25.798125,-3.93152 -5.447647,-2.97434 -7.644959,-9.44036 -7.20117,-15.34642 -0.01025,-13.87077 -0.18269,-27.75792 0.320058,-41.61843 -0.253296,-3.69474 3.44723,-4.72262 2.404537,-0.29179 -0.119698,5.33801 0.501047,10.7619 0.135028,15.92755 0.367787,5.78924 -1.185627,11.74379 0.63398,17.28574 -0.61957,3.42337 0.846011,6.38192 -0.03601,9.56947 -0.301101,3.24181 4.245749,8.63173 -0.15089,9.87541 3.569664,5.63193 11.146809,5.68086 17.041812,6.71972 18.71761,2.14305 37.91366,2.25485 56.39396,-1.72426 3.29744,0.0469 10.83769,-7.8908 5.39547,-1.73308 -5.91112,4.2022 -13.67304,3.74478 -20.55971,4.77507 -9.49584,0.81754 -19.05891,0.67286 -28.578945,0.49254 z m 50.53541,-10.78302 c 1.43474,-5.38617 3.01721,0.007 0,0 z m 2.38531,-1.52135 c 0.80792,-2.02194 0.20951,1.15303 0,0 z m -0.0533,-2.52272 c -1.78961,-3.76373 -0.92823,-8.02635 -0.49329,-11.50211 -1.88913,-4.15307 0.097,-9.15411 0.32154,-13.58216 -0.51181,-3.68745 0.55568,-9.67276 0.61067,-11.49472 -1.6168,-1.01318 0.41862,-11.58694 1.00083,-4.87114 0.0608,13.56403 0.10334,27.13565 -0.27525,40.69436 0.055,0.60476 -0.60237,1.68312 -1.1645,0.75577 z m 1.02378,-3.11497 c 0.56689,-4.68595 -2.6158,2.39347 -0.0565,1.54737 l 0.0908,-0.5047 -0.0342,-1.04267 z m -0.25824,-6.54568 c -0.39193,-0.27724 0.17191,2.78437 0,0 z m 0.34204,-17.17895 c -0.1192,-6.41006 -0.5515,5.43987 -0.0104,0.94172 z m 0,-11.09963 c -0.66424,-0.64846 -0.50284,1.42391 0,0 z m -0.0264,-3.62241 c -0.29091,-2.36135 -0.53815,3.31657 0,0 z m -1.74398,-2.22453 c -0.48547,-4.11159 2.19182,0.6476 0,0 z m 1.81213,-1.26558 c 0.19842,-1.4626 0.19835,1.46261 0,0 z m -54.330963,-7.58907 c 1.526742,-0.16683 -0.501876,0.46616 0,0 z m -6.829557,-0.32795 c -4.340092,-0.94426 8.893145,0.40951 1.669903,0.12797 l -0.807599,-0.0567 z m 32.74527,0.057 c 3.03136,-0.10076 -0.28706,0.33191 0,0 z m 3.85491,-0.40076 c 4.10843,-0.0708 -2.92526,0.69333 -0.10193,0.027 z m -43.611638,-0.12329 c -3.693044,-0.68883 -9.100228,-0.21957 -11.779946,-1.44532 5.626557,-0.15598 11.312421,0.85905 16.917272,1.51906 -1.702065,0.16097 -3.433403,0.0188 -5.137326,-0.0737 z m 46.566668,-0.0852 c 4.08572,-0.1006 -2.56597,0.64395 0,0 z m 2.91041,-0.28741 c 4.15854,-0.19409 11.94397,-2.6139 14.1219,-0.70294 -4.33722,0.10623 -12.10769,1.33347 -14.1219,0.70294 z m -20.6375,-6.05998 c -1.6808,-0.49392 -8.6351,-0.0335 -2.90653,0.17108 0.97032,0.0212 1.95117,0.031 2.90653,-0.17108 z m 4.43681,-0.17355 c -3.68701,-0.15269 0.64522,0.33633 0,0 z m 5.35541,-2.34623 c 7.4829,-0.73123 15.05395,-1.13977 22.41621,-2.69269 -22.25079,2.60252 -44.796643,2.61702 -67.078175,0.26168 -1.053911,0.6488 7.497232,1.20931 10.157003,1.57891 11.450275,1.46268 22.995162,1.4788 34.504962,0.8521 z M 71.5822,121.35265 c -1.305127,-0.4517 -0.189031,0.54431 0,0 z m 35.70999,-0.2548 c -0.28272,-1.01983 0.21551,-9.32908 1.39668,-3.65698 1.25771,-1.25324 1.60161,-11.30294 2.36967,-4.14957 -0.16154,2.36975 1.01468,6.71176 0.93833,1.8712 0.035,-2.84788 0.83373,-8.70831 2.2255,-5.887 -0.92757,3.07621 1.27095,7.10766 0.89292,1.62509 1.03591,-4.91611 -8.14235,-1.62236 -11.52523,-2.68508 -4.389369,-0.0361 -8.893428,-1.36921 -7.499859,4.66392 -0.150689,2.62304 0.520603,5.16272 0.699157,1.21393 -0.161386,-3.27431 1.154556,-6.28336 1.076862,-1.07674 -0.159304,1.83694 0.897622,7.71262 2.33633,3.26114 2.03705,2.84692 -4.916952,4.20032 0.42322,4.85822 2.20828,0.23444 4.4658,0.29331 6.66642,-0.0381 z m -2.03625,-2.76035 c 0.76981,-1.00983 0.98782,1.06091 0,0 z m 4.88763,-8.74284 c 1.21469,-3.11305 1.85549,0.52148 0,0 z m 32.22018,11.47803 c -1.64641,-0.26245 -0.0206,0.45776 0,0 z m -24.5514,-11.18357 c -0.067,-1.41306 -0.90882,0.84723 0,0 z m -6.20641,-4.00562 c 2.54735,-1.01194 -5.86139,-0.91607 -7.31018,-0.24572 -2.34235,-1.46148 -6.531238,0.39169 -1.33838,0.31624 2.88444,0.12983 5.76678,0.0558 8.64856,-0.0705 z m -12.316355,-0.54504 c -1.645197,-0.83936 -10.053084,0.2152 -3.640312,0.34411 1.194765,-0.0373 2.530259,0.21475 3.640312,-0.34411 z m 15.901455,0.31672 c 4.31865,-0.87756 -1.9266,-0.4335 -0.92599,0.21087 l 0.92604,-0.21087 z m -48.762703,-0.19291 c -1.646427,-0.26247 -0.02055,0.4578 0,0 z m 53.511973,-0.0894 c 0.3285,-0.97778 -3.52868,0.97137 0,0 z m -32.340272,-0.17355 c -3.68722,-0.15268 0.645356,0.33633 0,0 z m 4.02986,-0.091 c -1.042564,-0.70308 -3.264445,0.73913 -0.441216,0.17767 z m 31.948432,0.0893 c -1.64641,-0.26244 -0.0206,0.45776 0,0 z m -60.462797,-0.24921 c -1.305312,-0.45188 -0.189008,0.54433 0,0 z m 16.872699,-9.365144 c 2.305655,-0.702215 -5.659104,0.541986 -0.83261,0.142644 z m 49.080208,-0.537422 c -14.34729,-1.547568 -28.86583,-1.35729 -43.255375,-0.47302 -2.388276,0.04841 -6.16107,0.946094 -1.573556,0.573838 15.867811,-0.310579 31.747321,-0.137926 47.607051,0.371707 -0.92604,-0.157508 -1.85208,-0.315017 -2.77812,-0.472525 z"
       id="path1" /></g></svg>
