<svg xmlns="http://www.w3.org/2000/svg" width="128pt" height="121pt" viewBox="0 0 128 121"><path d="M24.16 108.262c-1.555-1.84-3.601-1.625-6.144.636q-3.18 3.398-.637 5.946 2.753 2.546 5.933-.637 3.392-3.398.848-5.945m47.68-56.04L85.19 38.849c-2.261-6.227-2.964-11.395-2.117-15.496q1.694-7.008 5.719-10.829 4.241-4.458 10.809-5.941 6.357-1.276 12.925 1.484L101.723 18.68l3.175 9.976 9.54 2.973 10.804-10.824c1.84 4.101 2.332 8.277 1.485 12.523q-1.27 6.37-5.723 10.828-4.236 4.242-11.23 5.942c-4.52.851-9.606.14-15.258-2.121l-13.352 13.37 42.383 42.458-14.195 14.222L66.969 75.57l-36.664 35.453q-.211 3.609-2.965 6.579c-2.121 1.984-4.524 3.043-7.207 3.187q-4.027.211-6.57-2.336-2.543-2.336-2.543-6.582.215-3.821 3.39-7.215c1.98-1.984 4.309-3.117 6.996-3.398l36.45-35.028-27.762-27.593-15.469 15.281-1.273.215L0 40.547l.215-1.274L29.668 9.766q8.69-1.698 15.258-4.036L60.609 0l3.817 4.035-20.133 20.38z"/></svg>