<svg xmlns="http://www.w3.org/2000/svg" xml:space="preserve" width="150.355" height="177.101" viewBox="0 0 39.781 46.858"><path d="M12.794 42.738 6.31 38.633l-.08-1.31c-.044-.722-.006-1.312.084-1.312s1.77.966 3.733 2.146 3.601 2.103 3.64 2.05l1.782-2.344c.941-1.236 2.123-2.87 2.626-3.63.504-.761 1.005-1.386 1.114-1.39s.198 3.149.198 7.005-.03 7.008-.066 7.004-2.983-1.856-6.548-4.114m7.515-2.936c-.023-6.505.008-7.011.397-6.508.232.3 1.479 1.987 2.77 3.748 1.293 1.762 2.436 3.203 2.542 3.203s1.775-.953 3.709-2.117 3.559-2.117 3.61-2.117c.052 0 .094.57.094 1.266 0 1.149-.08 1.313-.86 1.768-.473.277-3.402 2.148-6.51 4.159s-5.667 3.655-5.688 3.654-.05-3.176-.064-7.056m-7.648-.732c-.29-.194-3.208-1.93-6.482-3.86S.127 31.616.007 31.509c-.219-.194 4.79-6.784 5.088-6.694.087.026 3.21 1.545 6.94 3.374s6.902 3.325 7.05 3.325c.264 0-5.386 7.756-5.723 7.857-.094.028-.41-.107-.7-.3m10.615-3.48c-1.567-2.123-2.81-3.896-2.763-3.939.537-.491 14.1-6.996 14.255-6.837.593.614 5.013 6.26 5.013 6.404 0 .183.142.094-7.771 4.888-3.038 1.84-5.604 3.345-5.703 3.345s-1.463-1.737-3.03-3.86M8.311 25.416c-2.522-1.173-2.707-1.307-2.117-1.54.356-.139 3.325-1.405 6.6-2.812l6.249-2.684c.197-.084.308.422.333 1.528.073 3.241.18 3.1-3.892 5.087-1.99.97-3.795 1.75-4.013 1.735-.219-.016-1.64-.608-3.16-1.314m15.33-.475-3.836-1.77-.076-2.444c-.046-1.466.027-2.443.183-2.443.46 0 14.067 5.626 13.932 5.76-.263.264-5.78 2.706-6.068 2.687-.164-.01-2.024-.816-4.134-1.79m-8.463-10.263c.002-.127.359-1.41.794-2.853.435-1.442.79-2.652.79-2.688s-1.02-.82-2.266-1.743l-2.267-1.677 2.84-.133 2.841-.132.983-2.91c.548-1.624 1.05-2.735 1.134-2.514.083.218.52 1.554.972 2.968l.822 2.57 2.828.076 2.829.075-2.169 1.587c-1.193.873-2.175 1.717-2.183 1.875s.34 1.463.77 2.898c.431 1.436.75 2.644.71 2.685s-1.077-.697-2.305-1.64c-1.227-.94-2.31-1.713-2.406-1.714-.096-.002-.75.448-1.455 1-2.55 1.998-3.265 2.495-3.262 2.27"/></svg>