<?xml version="1.0" encoding="UTF-8" standalone="no"?>
<!-- Created with Inkscape (http://www.inkscape.org/) -->

<svg
   width="43.370518mm"
   height="79.172005mm"
   viewBox="0 0 43.370518 79.172005"
   version="1.1"
   id="svg1"
   xml:space="preserve"
   xmlns="http://www.w3.org/2000/svg"
   xmlns:svg="http://www.w3.org/2000/svg"><defs
     id="defs1" /><g
     id="layer1"
     transform="translate(-101.20119,-76.246855)"><g
       transform="matrix(1.513805,0,0,1.513805,123.45413,115.98424)"
       id="g2"><path
         d="m 3.2,0.1 h 7.4 Q 10.6,-2.7 9.2,-5.15 7.85,-7.55 5.55,-9 L 1.6,-2.75 q 1.6,1 1.6,2.85 M -14.7,-17 h 28.65 v 38.9 q 0,1.75 -1.2,2.95 -1.2,1.2 -2.95,1.2 h -20.35 q -1.7,0 -2.95,-1.2 -1.2,-1.2 -1.2,-2.95 V -17 m 28.65,-3.05 H -14.7 v -2 q 0,-1.75 1.2,-2.95 1.25,-1.25 2.95,-1.25 H 9.8 q 1.7,0 2.95,1.25 1.2,1.2 1.2,2.95 v 2 m -25,20.15 h 7.4 q 0,-1.85 1.55,-2.85 L -6.05,-9 q -2.3,1.45 -3.6,3.85 -1.4,2.45 -1.4,5.25 m 5.6,9.45 q 2.4,1.3 5.1,1.35 2.85,0 5.3,-1.35 L 1.4,3.05 q -1.6,0.95 -3.3,0 l -3.55,6.5 m 5.2,-11.65 q -0.95,0 -1.6,0.65 -0.65,0.65 -0.65,1.55 0,0.95 0.65,1.6 0.65,0.65 1.6,0.65 0.9,0 1.55,-0.65 Q 1.95,1.05 1.95,0.1 1.95,-0.8 1.3,-1.45 0.65,-2.1 -0.25,-2.1" /></g></g></svg>
