<svg xmlns="http://www.w3.org/2000/svg" viewBox="0 0 98.39 77.97"><path d="m10.91 64.53 37.5 13.28c.08 0 .16.08.23.08.16.08.39.08.55.08h.47c.08 0 .23-.08.31-.08l37.5-13.28c.94-.31 1.56-1.25 1.56-2.19V36.09l7.81-2.73c.63-.23 1.17-.78 1.41-1.41s.16-1.41-.23-2.03L88.64 14.3l-.08-.08c0-.08-.08-.08-.08-.16s-.08-.08-.08-.16v-.08l-.16-.16-.08-.08-.08-.08H88l-.08-.08c-.08-.08-.16-.08-.23-.08s-.08-.08-.16-.08L50.05 0h-1.17c-.16 0-.31.08-.39.08l-37.5 13.28c-.16.08-.23.08-.39.16l-.08.08c-.08.08-.16.08-.23.16l-.08.08c-.08.08-.16.08-.16.16l-.08.08c-.08.08-.08.16-.16.16 0 0 0 .08-.08.08L.37 29.92c-.55.86-.47 1.95.16 2.66.47.55 1.09.86 1.8.86.23 0 .55-.08.78-.16l6.25-2.19v31.25c0 1.02.63 1.88 1.56 2.19Zm81.64-34.69L59.58 41.56 52.63 30 85.6 18.28zM51.54 5.47l28.12 10-28.12 10zm0 31.72 5 8.36c.47.78 1.25 1.17 2.03 1.17.23 0 .55-.08.78-.16l25-8.83V60.7L51.54 72.34V37.18Zm-37.5-18.44 32.81 11.64v41.87L14.04 60.62z"/></svg>