<?xml version="1.0" encoding="UTF-8" standalone="no"?>
<svg
   ffdec:objectType="shape"
   height="35.75px"
   width="35.15px"
   version="1.1"
   id="svg7"
   sodipodi:docname="metal.svg"
   inkscape:version="1.3.2 (091e20e, 2023-11-25)"
   xmlns:inkscape="http://www.inkscape.org/namespaces/inkscape"
   xmlns:sodipodi="http://sodipodi.sourceforge.net/DTD/sodipodi-0.dtd"
   xmlns="http://www.w3.org/2000/svg"
   xmlns:svg="http://www.w3.org/2000/svg"
   xmlns:ffdec="https://www.free-decompiler.com/flash">
  <path d="M 0.15890344,21.221866 C 0.06161381,21.114363 0.03435973,20.945782 0.03435973,20.451501 c 0,-0.578724 0.02863499,-0.85431 0.22586054,-2.173701 0.13512492,-0.903953 0.22208987,-1.321968 0.69914198,-3.360568 0.29965185,-1.28051 0.55272005,-2.336099 0.56237395,-2.345753 0.042118,-0.04212 4.1596225,-1.14821 4.1810859,-1.123171 0.029452,0.03436 2.2686347,4.6644 2.2686347,4.690942 0,0.05143 -4.9221996,4.837876 -4.9900207,4.852394 -0.065971,0.01412 -2.68447453,0.295064 -2.74418261,0.294426 -0.0112445,-1.2e-4 -0.046502,-0.02901 -0.0783501,-0.0642 z" />
  <path d="M 10.674042,15.684117 C 10.091148,15.630759 9.6104829,15.582119 9.6058955,15.576029 9.6013085,15.56994 9.1939378,14.590858 8.7006277,13.400294 8.2073171,12.209729 7.7709197,11.157138 7.7308556,11.061203 L 7.6580113,10.886775 5.8905893,10.340461 C 4.9084736,10.036888 4.1231673,9.7767245 4.1231673,9.7549343 c 0,-0.021568 0.131426,-1.1092712 0.2920577,-2.4171189 C 4.5758567,6.029968 4.7072827,4.949001 4.7072827,4.9356667 c 0,-0.013334 0.8317557,-0.845258 1.848346,-1.8487197 l 1.848346,-1.8244758 2.7769663,0.4755445 2.776966,0.4755445 1.27508,-0.3258286 c 0.719224,-0.1837875 1.768025,-0.48328 2.405846,-0.6870068 0.621921,-0.1986479 1.135371,-0.35657185 1.141001,-0.35094201 0.0096,0.009628 -2.666765,3.75262821 -2.724711,3.81057411 -0.01485,0.014845 -0.537246,0.060984 -1.160891,0.1025298 L 13.760334,4.8384249 12.065263,4.3150836 C 11.132974,4.0272457 10.364489,3.7974454 10.357518,3.8044163 c -0.007,0.00697 0.212332,0.4062409 0.487339,0.8872667 l 0.500012,0.8745929 1.457209,0.8375462 c 0.801465,0.4606502 1.457209,0.8460265 1.457209,0.8563911 0,0.010365 -0.106771,0.1591728 -0.237269,0.3306846 l -0.237269,0.3118396 -0.276089,2.1303036 -0.276088,2.130303 -0.667719,1.803885 c -0.618435,1.670738 -0.673746,1.804256 -0.749363,1.808894 -0.0449,0.0028 -0.558555,-0.03865 -1.141448,-0.09201 z" />
  <path d="m 26.896459,23.447582 -1.081489,-1.450656 0.524818,-1.823435 0.524818,-1.823435 -0.461545,-1.529989 c -0.502028,-1.664187 -0.491797,-1.631838 -0.509917,-1.612215 -0.0069,0.0074 -0.209983,1.018529 -0.451383,2.24689 -0.241401,1.22836 -0.448024,2.243842 -0.459164,2.256627 -0.01114,0.01278 -0.560279,-0.0096 -1.220309,-0.04972 l -1.200054,-0.07296 -0.772079,-1.170056 c -0.424644,-0.643531 -0.774557,-1.173512 -0.777584,-1.177736 -0.003,-0.0042 -0.406635,0.01485 -0.896904,0.04238 -0.49027,0.02754 -0.932302,0.05032 -0.982294,0.05063 -0.08482,5.27e-4 -0.197075,0.193406 -1.680735,2.888007 -0.874412,1.588093 -1.606603,2.90997 -1.627091,2.937505 -0.02958,0.03975 -0.355872,-0.435616 -1.58344,-2.30683 -0.850403,-1.296292 -1.550574,-2.375329 -1.555936,-2.397862 -0.0054,-0.02253 0.414495,-1.257174 0.933014,-2.743648 l 0.942762,-2.70268 0.226004,-1.97717 0.226003,-1.9771696 3.973993,-4.3895965 c 2.185696,-2.4142778 4.029999,-4.44754378 4.09845,-4.51836874 l 0.124457,-0.12877266 2.066109,0.89662516 2.06611,0.89662514 2.383046,2.6466649 c 1.310676,1.4556656 2.423833,2.6953715 2.473684,2.7549018 0.08099,0.096716 0.143981,0.3586798 0.591769,2.4609962 l 0.501132,2.3527593 0.447753,1.28849 0.447753,1.288489 0.473306,0.824634 0.473306,0.824633 -0.04123,1.614907 c -0.02268,0.888199 -0.04245,1.804316 -0.04395,2.035814 l -0.0027,0.420907 -0.798863,-2.48e-4 -0.798864,-2.47e-4 -0.339665,-0.609638 c -0.186815,-0.3353 -0.34304,-0.61382 -0.347166,-0.618933 -0.0041,-0.0051 -0.561893,0.182484 -1.239484,0.41688 l -1.231982,0.426176 -1.127343,2.451102 c -0.620039,1.348107 -1.140453,2.464212 -1.156476,2.480235 -0.01602,0.01602 -0.515802,-0.623663 -1.11062,-1.421524 z m 3.661004,-6.409908 c 0.437684,-0.314428 0.798438,-0.573487 0.801677,-0.575687 0.0032,-0.0022 -0.185928,-1.087033 -0.420368,-2.41074 L 30.512515,11.644508 28.602899,8.0728163 C 27.55261,6.1083858 26.679428,4.4870922 26.662495,4.4699419 c -0.02644,-0.026779 -3.085117,0.099024 -3.114179,0.1280855 -0.0053,0.00532 0.20367,0.8190259 0.464411,1.8082456 l 0.474076,1.7985812 2.368073,2.1960068 c 1.30244,1.207803 2.394132,2.222158 2.425983,2.254122 0.04906,0.04924 0.08829,0.432029 0.256813,2.506247 0.109397,1.346472 0.204551,2.44813 0.211453,2.44813 0.0069,0 0.370654,-0.257258 0.808338,-0.571686 z" />
  <path d="m 19.894282,34.822431 -1.597727,-0.888177 -1.425929,-0.26971 -1.425928,-0.269709 -0.0096,-0.187569 c -0.01689,-0.331687 0.228246,-6.600075 0.25973,-6.641549 0.0167,-0.022 1.038877,-1.449389 2.271496,-3.171967 l 2.241125,-3.131959 0.333019,0.128941 c 0.18316,0.07092 0.959225,0.365119 1.724588,0.653783 l 1.391569,0.524842 1.115642,1.268321 1.115643,1.26832 0.748106,2.567065 0.748106,2.567065 0.136757,1.769526 c 0.07522,0.97324 0.144997,1.839578 0.155069,1.925196 l 0.01831,0.15567 -0.796313,0.147644 c -0.787641,0.146035 -0.80813,0.152049 -1.881379,0.55219 L 23.93155,34.1949 22.755018,34.955919 c -0.647092,0.41856 -1.195989,0.759594 -1.21977,0.757854 -0.02378,-0.0017 -0.762216,-0.402844 -1.640966,-0.891342 z m 4.913441,-3.093875 c 0.670874,-0.54945 1.238914,-1.017522 1.262311,-1.040158 0.03365,-0.03255 -0.114391,-0.554004 -0.70821,-2.494591 l -0.750751,-2.453435 -0.880927,-0.856078 c -0.680496,-0.661301 -0.880927,-0.838568 -0.880927,-0.779115 0,0.06586 0.492391,4.930074 0.525845,5.194699 0.01083,0.08564 -0.150735,0.238758 -1.794571,1.700807 l -1.80647,1.606697 0.343598,0.01027 c 0.188978,0.0056 1.02392,0.03041 1.855425,0.05504 0.831505,0.02462 1.535021,0.04704 1.563368,0.04982 0.02835,0.0028 0.600436,-0.444499 1.271309,-0.993951 z" />
  <path d="M 9.466105,25.634974 C 8.9369652,25.497495 8.1914091,25.286046 7.8093137,25.165087 L 7.1145948,24.945162 6.4263347,23.49708 C 6.0477916,22.700635 5.7380745,22.032167 5.7380745,22.011595 c 0,-0.02057 0.5342513,-0.683194 1.1872252,-1.472495 l 1.1872251,-1.435091 0.6767901,-0.334912 c 0.8392408,-0.415301 1.5055241,-0.716819 1.6008621,-0.724449 0.05386,-0.0043 0.269977,0.209452 0.845454,0.836258 0.425202,0.463126 0.791644,0.865784 0.814318,0.894793 0.03432,0.04392 0.97316,4.864497 0.972016,4.990942 -7.9e-4,0.08735 -1.105533,0.603933 -1.851076,0.865566 -0.404116,0.141816 -0.736546,0.256696 -0.738734,0.255289 -0.0022,-0.0014 -0.4369102,-0.115042 -0.96605,-0.252522 z" />
  <path d="M 5.0259429,35.043017 C 5.0067336,34.988472 4.5462303,33.707815 4.0026022,32.197114 L 3.0141876,29.450386 3.5566164,27.025975 c 0.2983358,-1.333425 0.5466995,-2.429696 0.5519194,-2.436156 0.00522,-0.0065 2.0272261,1.389382 4.4933475,3.101871 4.4182297,3.068045 4.4834577,3.114986 4.4565947,3.207201 -0.01499,0.05147 -0.270223,0.928525 -0.567175,1.949009 -0.296952,1.020484 -0.550206,1.864736 -0.562785,1.876116 -0.01258,0.01138 -1.437634,0.101193 -3.1667874,0.199582 -1.7291533,0.09839 -3.2692281,0.187823 -3.4223884,0.198742 l -0.2784733,0.01985 z" />
  <path d="M 32.366864,28.328177 C 31.69599,28.240564 30.566347,28.094321 29.856547,28.003193 L 28.566,27.837506 l 0.373114,-1.665504 0.373113,-1.665503 1.276846,-1.515835 c 0.702265,-0.833709 1.363956,-1.617799 1.470425,-1.742424 l 0.193578,-0.226589 1.199355,1.320595 c 0.659645,0.726327 1.210879,1.353996 1.224964,1.39482 0.04321,0.125237 0.409205,4.085845 0.379859,4.110635 -0.02548,0.02153 -0.603906,0.274886 -1.212922,0.531281 l -0.257698,0.10849 z" />
</svg>
