<?xml version="1.0" encoding="UTF-8"?>
<svg xmlns="http://www.w3.org/2000/svg" viewBox="0 0 90.18 91.12">
  <g>
    <path d="m60.67,91.12h-.47c-.1-.07-.18-.16-.29-.19-9.62-3.21-19.24-6.43-28.87-9.61-.45-.15-1.07-.04-1.54.15-7.23,2.86-14.44,5.77-21.67,8.62-.95.37-2.04.63-3.04.59-2.39-.1-3.71-1.7-4.55-3.77V14.52c.72-1.55,1.67-2.83,3.35-3.5C12.09,7.65,20.57,4.23,29.08.88c.58-.23,1.38-.27,1.97-.08,9.27,3.05,18.52,6.17,27.8,9.22.7.23,1.64.22,2.32-.04,7.25-2.84,14.46-5.78,21.7-8.63.94-.37,2.07-.61,3.05-.47,2.71.37,4.25,2.41,4.25,5.27,0,22.98,0,45.96,0,68.95,0,2.97-.98,4.43-3.73,5.54-8.27,3.32-16.54,6.63-24.81,9.95-.34.14-.65.36-.97.54Zm-20.6-55.76c.29-.82.47-1.54.79-2.2.98-2.03,2.89-2.98,5.23-2.68,2,.25,3.49,1.66,3.97,3.77.34,1.49.07,2.89-.77,4.13-.9,1.32-1.86,2.6-2.87,3.83-2.1,2.57-4.25,5.12-5.31,8.33-.5,1.51-.7,3.13-1.06,4.8h9.59c1.22-2.19,2.22-4.19,3.41-6.08,1.72-2.73,3.65-5.34,5.35-8.09,1.61-2.61,2.14-5.47,1.52-8.53-1.31-6.41-6.29-11.25-12.43-12.03-6.94-.88-12.75,2.24-15.72,8.45-.94,1.97-1.5,4.04-1.52,6.29h9.81Zm.27,25.11v9.86h9.74v-9.86h-9.74Z"/>
  </g>
</svg>