<?xml version="1.0" encoding="UTF-8" standalone="no"?>
<!-- Created with Inkscape (http://www.inkscape.org/) -->

<svg
   width="118.352mm"
   height="89.742126mm"
   viewBox="0 0 118.352 89.742126"
   version="1.1"
   id="svg1"
   xml:space="preserve"
   xmlns="http://www.w3.org/2000/svg"
   xmlns:svg="http://www.w3.org/2000/svg"><defs
     id="defs1" /><g
     id="layer1"
     transform="translate(-45.745961,-107.43351)"><path
       style="fill:#000000"
       d="m 78.929899,194.75055 c -5.271272,-4.81609 -24.102423,-22.75219 -27.410233,-26.10741 -1.410193,-1.4304 -1.136552,0.3148 -2.266424,-14.4546 l -0.728671,-9.525 -1.201502,-1.28819 -1.201502,-1.28818 -0.171922,-2.54827 c -0.09456,-1.40155 -0.183855,-3.88354 -0.198438,-5.51553 -0.02428,-2.71687 0.01839,-2.99129 0.505717,-3.25209 0.292727,-0.15667 2.406086,-0.76258 4.696354,-1.34647 20.119116,-5.1293 28.696486,-7.36629 36.443287,-9.50446 11.031315,-3.04472 13.594095,-3.77241 30.294795,-8.60207 3.8563,-1.1152 8.5059,-2.44549 10.33244,-2.95621 l 3.32098,-0.92857 3.69654,1.85179 c 2.03309,1.01849 6.37271,3.06556 9.6436,4.54905 15.62276,7.08559 18.78354,8.56717 19.15664,8.97944 0.36029,0.39811 0.35075,0.87079 -0.0914,4.53253 -0.43298,3.58559 -0.44678,4.16251 -0.11228,4.69375 0.24776,0.39349 0.35367,1.13502 0.30232,2.11667 -0.0786,1.50329 -0.0854,1.51439 -1.32322,2.18189 -0.68429,0.36901 -1.30455,0.7313 -1.37835,0.80509 -0.0738,0.0738 -0.55909,4.89157 -1.07844,10.70617 -0.51936,5.8146 -0.9953,10.71718 -1.05764,10.89464 -0.11605,0.3303 -23.20203,11.91311 -48.6711,24.4195 -7.84927,3.85432 -17.303155,8.58543 -21.008641,10.51358 -3.705487,1.92815 -6.986955,3.50226 -7.292153,3.49802 -0.323035,-0.004 -1.660477,-1.01781 -3.200737,-2.42507 z M 89.5165,193.04268 c 3.781744,-1.98631 11.99559,-6.10372 18.25298,-9.1498 14.93253,-7.26909 49.87918,-24.66147 50.46478,-25.1155 0.39075,-0.30295 0.59662,-1.91995 1.39271,-10.93884 0.5138,-5.82083 0.985,-10.72346 1.0471,-10.89472 0.0621,-0.17127 0.64559,-0.54702 1.29664,-0.83501 0.65105,-0.28799 1.30212,-0.74484 1.44682,-1.01523 0.28234,-0.52755 0.06,-2.24967 -0.40418,-3.13004 -0.26457,-0.50184 -0.18833,-1.50722 0.57764,-7.61724 l 0.15887,-1.26724 -2.59019,-1.20701 c -1.42461,-0.66386 -4.43566,-2.0414 -6.69123,-3.06121 -12.70542,-5.74445 -15.43232,-7.00173 -19.14243,-8.8259 l -4.07942,-2.00575 -3.27189,0.9188 c -1.79954,0.50534 -6.42704,1.83203 -10.28334,2.9482 -28.760741,8.32452 -34.931711,9.99884 -66.756158,18.1124 -2.300209,0.58643 -4.294506,1.13565 -4.431771,1.22048 -0.2892,0.17874 -0.321414,3.46467 -0.07576,7.72786 l 0.171404,2.97465 1.159578,1.25869 c 0.637768,0.69228 1.209249,1.49681 1.269958,1.78786 0.06071,0.29104 0.355014,3.74385 0.654011,7.67291 0.298997,3.92906 0.666125,8.7371 0.815841,10.68453 0.149715,1.94742 0.386905,3.75508 0.527088,4.01702 0.364888,0.6818 23.510244,22.86848 28.923216,27.72522 0.996939,0.89449 2.010441,1.62635 2.252226,1.62635 0.241786,0 3.533765,-1.62516 7.315509,-3.61148 z m -7.499562,2.6193 c -0.131379,-0.25466 -0.308628,-1.89177 -0.393887,-3.63802 -0.274353,-5.61922 -0.710638,-12.05783 -1.122763,-16.56955 -0.220992,-2.41929 -0.367079,-4.52382 -0.324638,-4.67674 0.04244,-0.15291 -0.436244,-0.76069 -1.063745,-1.35061 -1.568985,-1.47502 -2.997468,-3.22026 -2.8928,-3.53426 0.125866,-0.3776 2.501661,-0.53327 2.721049,-0.17829 0.111962,0.18116 0.355463,0.006 0.636946,-0.45697 0.407415,-0.67077 0.412646,-0.78203 0.04937,-1.05026 -0.262173,-0.19358 -0.388681,-0.6629 -0.356604,-1.32292 0.02734,-0.5626 -0.08772,-2.01069 -0.255703,-3.21798 -0.255743,-1.83808 -0.2444,-2.25347 0.06974,-2.55405 0.387067,-0.37037 4.426998,-2.13546 7.915781,-3.45851 1.937133,-0.73461 2.778541,-1.18507 2.21358,-1.18507 -0.414917,0 -6.74702,2.52085 -8.267563,3.29136 -2.072511,1.05022 -2.740291,0.92942 -5.190808,-0.939 -1.164167,-0.88763 -4.20026,-3.17391 -6.746875,-5.08063 -5.161334,-3.86442 -12.496254,-9.47752 -12.699999,-9.71876 -0.07276,-0.0862 -1.561041,-1.23749 -3.307291,-2.55852 -3.456103,-2.61452 -6.078977,-5.1221 -5.904646,-5.64509 0.06203,-0.18608 2.766924,-0.9996 6.182458,-1.85943 9.525437,-2.39794 23.138554,-5.90597 27.635728,-7.12159 2.255573,-0.60969 5.589322,-1.50221 7.408333,-1.98337 1.81901,-0.48116 6.879166,-1.91282 11.244791,-3.18147 4.365618,-1.26865 9.544838,-2.75816 11.509368,-3.31001 1.96453,-0.55186 5.29828,-1.49706 7.40834,-2.10046 10.287,-2.94168 12.06362,-3.43562 12.38101,-3.44219 0.18836,-0.004 2.09336,0.84187 4.23333,1.87949 2.13997,1.03761 5.61727,2.66193 7.72732,3.60959 3.66656,1.64672 6.65138,2.99008 12.17083,5.47764 8.62718,3.88819 8.07777,3.26821 7.43219,8.38681 l -0.44469,3.52584 -1.17864,0.57409 c -0.64826,0.31575 -3.47416,1.43337 -6.27979,2.48359 -2.80562,1.05022 -5.0504,1.96022 -4.98839,2.02223 0.11409,0.11409 4.62026,-1.47713 9.08737,-3.20893 2.83172,-1.0978 3.66923,-1.18249 3.91877,-0.39627 0.29177,0.91928 -0.38356,2.01929 -1.86688,3.04089 -1.22005,0.84028 -1.3709,1.03676 -1.11302,1.44968 0.22547,0.36104 0.1542,2.08131 -0.29191,7.04578 -1.05603,11.75187 -1.14968,12.64573 -1.389,13.25699 -0.18276,0.46682 -4.53596,2.74345 -19.22479,10.05416 -10.44369,5.19789 -20.95183,10.39391 -23.35143,11.54673 -7.69439,3.69653 -21.392034,10.551 -27.174634,13.59853 -3.087598,1.62721 -5.673018,2.95857 -5.745379,2.95857 -0.07236,0 -0.239056,-0.20836 -0.370435,-0.46302 z m 4.992588,-33.83296 c 1.317106,-0.52716 2.352369,-1.00084 2.300584,-1.05263 -0.100394,-0.10039 -4.686516,1.65318 -4.911213,1.87788 -0.283938,0.28393 0.30262,0.0985 2.610629,-0.82525 z m 7.334978,-2.90577 c 4.144136,-1.63513 5.577145,-2.28416 4.032269,-1.82627 -1.078862,0.31977 -6.660464,2.49143 -7.805208,3.03681 -2.069141,0.98579 -0.593867,0.51245 3.772939,-1.21054 z m 11.381276,0.68595 c 0.37865,-0.23784 0.34768,-0.25656 -0.18221,-0.11012 -0.90801,0.25094 -2.4043,0.89275 -2.4043,1.03128 0,0.15655 2.0109,-0.55962 2.58651,-0.92116 z m 2.60751,-0.94195 c 1.77288,-0.66398 3.06484,-1.44863 1.70787,-1.03725 -0.81564,0.24727 -3.91375,1.6723 -3.69224,1.69831 0.0918,0.0108 0.98478,-0.28669 1.98437,-0.66106 z m -2.51086,-4.08183 c 2.64557,-1.01865 4.87039,-1.85209 4.94404,-1.85209 0.0737,0 0.0692,-0.0647 -0.01,-0.14376 -0.21467,-0.21467 -9.77027,3.27412 -10.24113,3.73907 -0.36585,0.36125 1.04436,-0.10197 5.30694,-1.74322 z m 9.22309,1.32291 c 0.48365,-0.31256 0.0659,-0.31256 -0.66146,0 -0.34891,0.14994 -0.39398,0.23235 -0.13229,0.24194 0.21828,0.008 0.57547,-0.10087 0.79375,-0.24194 z m 3.714,-1.48764 c 1.31711,-0.52716 2.34602,-1.0072 2.28648,-1.06674 -0.10689,-0.10689 -4.66332,1.65819 -4.90537,1.90025 -0.2752,0.2752 0.33028,0.0825 2.61889,-0.83351 z m -23.742279,-3.95425 c 4.672201,-1.84481 6.331719,-2.58937 4.682449,-2.10082 -1.037189,0.30723 -7.952069,3.01029 -9.128125,3.56822 -2.198057,1.04278 -0.452294,0.46655 4.445676,-1.4674 z m 18.307389,1.16966 c 0.58269,-0.27012 0.76178,-0.41825 0.39798,-0.32918 -0.36381,0.0891 -1.13771,0.38543 -1.7198,0.65859 -0.58208,0.27316 -0.76117,0.42129 -0.39797,0.32918 0.3632,-0.0921 1.1371,-0.38848 1.71979,-0.65859 z m 17.59589,-2.10173 c 0.35278,-0.19958 0.35278,-0.22438 0,-0.2232 -0.21828,7.3e-4 -0.69453,0.18067 -1.05833,0.39987 l -0.66146,0.39853 0.66146,-0.17533 c 0.3638,-0.0964 0.84005,-0.27637 1.05833,-0.39987 z m -12.43541,0.024 c 0.21828,-0.14106 0.27781,-0.25648 0.13229,-0.25648 -0.14552,0 -0.44318,0.11542 -0.66146,0.25648 -0.21828,0.14107 -0.27781,0.25648 -0.13229,0.25648 0.14552,0 0.44317,-0.11541 0.66146,-0.25648 z m -16.13959,-2.02701 0.66146,-0.37357 -0.66146,0.17494 c -0.3638,0.0962 -0.95911,0.34303 -1.32291,0.54849 l -0.66146,0.37357 0.66146,-0.17494 c 0.3638,-0.0962 0.95911,-0.34303 1.32291,-0.54849 z m 33.73438,-0.0897 c 0.20695,-0.33486 -0.14331,-0.33486 -0.66146,0 -0.34203,0.22103 -0.33504,0.25704 0.0505,0.26053 0.24607,0.002 0.52099,-0.11501 0.61093,-0.26053 z m -7.27605,-2.11667 c 0.21829,-0.14106 0.27782,-0.25648 0.1323,-0.25648 -0.14552,0 -0.44318,0.11542 -0.66146,0.25648 -0.21828,0.14106 -0.27781,0.25648 -0.13229,0.25648 0.14552,0 0.44317,-0.11542 0.66145,-0.25648 z m 12.17084,-5.02708 c 0.21828,-0.14107 0.27781,-0.25648 0.13229,-0.25648 -0.14552,0 -0.44318,0.11541 -0.66146,0.25648 -0.21828,0.14106 -0.27781,0.25648 -0.13229,0.25648 0.14552,0 0.44318,-0.11542 0.66146,-0.25648 z m 14.1552,-1.04866 c 0.87313,-0.41691 1.46844,-0.76237 1.32292,-0.76769 -0.14552,-0.005 -0.97896,0.33143 -1.85208,0.74834 -0.87313,0.4169 -1.46844,0.76237 -1.32292,0.76769 0.14552,0.005 0.97896,-0.33143 1.85208,-0.74834 z m -10.45104,-0.44919 0.66146,-0.37357 -0.66146,0.17494 c -0.3638,0.0962 -0.95911,0.34303 -1.32291,0.5485 l -0.66146,0.37356 0.66146,-0.17494 c 0.3638,-0.0962 0.95911,-0.34303 1.32291,-0.54849 z m -37.83541,-0.21771 c 1.23693,-0.22977 2.72027,-0.5453 3.29633,-0.70118 l 1.04737,-0.2834 -0.79429,-0.33397 c -0.867,-0.36455 -1.69733,-1.09198 -1.69733,-1.48699 0,-0.38892 1.28205,-0.87112 7.40834,-2.78639 5.65473,-1.76785 10.85883,-3.63388 13.88685,-4.97941 1.64783,-0.73222 2.36788,-0.73062 3.5095,0.008 0.95986,0.62085 0.69928,1.06321 -1.0008,1.699 -2.80152,1.04769 -1.47574,0.8783 2.09297,-0.26742 3.52663,-1.13222 4.28708,-1.5569 3.67359,-2.05156 -0.39773,-0.3207 -10.90575,-3.76966 -11.48508,-3.76966 -0.22083,0 -2.02889,0.58264 -4.01791,1.29476 -3.85781,1.38119 -10.53945,3.38099 -13.80287,4.13117 l -1.98438,0.45615 -2.99415,2.94594 c -1.64678,1.62026 -3.11676,3.16788 -3.26661,3.43914 -0.22527,0.40779 -0.0733,0.69855 0.87748,1.67886 1.21935,1.25722 1.95748,1.68942 2.60516,1.52543 0.21828,-0.0553 1.4089,-0.28849 2.64583,-0.51826 z m 3.05594,-4.60105 c 0.36904,-0.33945 17.99093,-6.15777 17.66608,-5.83291 -0.29621,0.2962 -3.22206,1.36558 -11.5939,4.23749 -4.95389,1.69941 -6.67763,2.15231 -6.07218,1.59542 z m 19.80107,-6.86491 c 0.093,-0.15049 0.57781,-0.40851 1.07733,-0.57337 0.73243,-0.24172 1.0518,-0.22221 1.64996,0.10079 l 0.74174,0.40054 -1.19063,-0.0349 c -0.65484,-0.0192 -1.47342,0.0586 -1.81907,0.17283 -0.41242,0.13634 -0.57031,0.1137 -0.45933,-0.0659 z m 28.73674,10.66798 c 0.3638,-0.20797 0.54239,-0.37813 0.39687,-0.37813 -0.14552,0 -0.56224,0.17016 -0.92604,0.37813 -0.3638,0.20796 -0.5424,0.37812 -0.39688,0.37812 0.14553,0 0.56224,-0.17016 0.92605,-0.37812 z m -44.97917,-1.08435 c 1.02171,-0.54012 0.003,-0.39545 -1.19062,0.16902 -0.91569,0.43316 -0.95135,0.47908 -0.26459,0.34064 0.43657,-0.088 1.09141,-0.31734 1.45521,-0.50966 z m 17.4625,0.1583 c 0.48365,-0.31255 0.0659,-0.31255 -0.66146,0 -0.34891,0.14994 -0.39398,0.23235 -0.13229,0.24194 0.21828,0.008 0.57547,-0.10087 0.79375,-0.24194 z m -12.29007,-1.96528 c 1.44803,-0.49774 2.49298,-0.91402 2.3221,-0.92506 -0.39234,-0.0253 -5.66104,1.75865 -5.87818,1.99037 -0.19475,0.20783 0.17146,0.0981 3.55608,-1.06531 z m 18.59721,-0.50656 c 1.11498,-0.48638 2.89727,-1.21378 3.96063,-1.61642 1.06337,-0.40265 1.8834,-0.7821 1.82228,-0.84322 -0.10998,-0.10997 -8.09766,2.96757 -8.34549,3.2154 -0.36221,0.36221 0.75528,0.0326 2.56258,-0.75576 z m -11.71649,-1.87409 c 1.01061,-0.35297 1.70831,-0.65062 1.55044,-0.66145 -0.30886,-0.0212 -3.6092,1.02047 -3.79196,1.19683 -0.26068,0.25156 0.52713,0.0634 2.24152,-0.53538 z m -33.974005,-1.89798 c 0.890894,-0.59927 1.427475,-1.15322 1.44755,-1.49439 0.01755,-0.29817 0.315201,-0.75741 0.661458,-1.02052 0.865429,-0.65763 5.457424,-2.14563 15.446227,-5.00525 8.22325,-2.35418 11.50937,-3.04537 11.50937,-2.42085 0,0.27735 -4.53687,1.79963 -10.05416,3.37352 -5.43712,1.55102 -7.17959,2.07189 -11.598764,3.46721 -2.523016,0.79663 -4.528518,1.50719 -4.456672,1.57904 0.07184,0.0719 1.838475,-0.36736 3.925843,-0.976 2.087363,-0.60865 5.759743,-1.67779 8.160843,-2.37587 2.40109,-0.69809 6.44921,-1.88911 8.99583,-2.64671 2.54661,-0.75761 5.22552,-1.5237 5.95312,-1.70241 1.95162,-0.47937 4.89479,-1.89684 4.89479,-2.35741 0,-0.39873 -2.63646,-1.53674 -5.54121,-2.39183 -1.43936,-0.42371 -1.44261,-0.42334 -5.68854,0.65067 -4.34762,1.09974 -14.50435,3.99927 -20.048376,5.7234 -2.808928,0.87354 -3.318217,1.13451 -5.423958,2.77932 -3.500827,2.73452 -4.44595,3.62187 -4.161088,3.90673 0.588891,0.58889 3.217588,1.8544 3.86107,1.8588 0.385559,0.003 1.338059,-0.42372 2.116667,-0.94745 z m 55.992785,-0.37397 c 0.37865,-0.23784 0.34768,-0.25656 -0.18222,-0.11012 -0.908,0.25095 -2.40429,0.89275 -2.40429,1.03128 0,0.15655 2.0109,-0.55961 2.58651,-0.92116 z m 3.00934,-1.15831 c 2.29418,-0.90065 3.45329,-1.46119 3.05251,-1.47618 -0.28399,-0.0106 -5.47336,2.14509 -5.47336,2.27368 0,0.15329 -0.006,0.15539 2.42085,-0.7975 z"
       id="path1" /></g></svg>
