<svg xmlns="http://www.w3.org/2000/svg" xml:space="preserve" width="447.315" height="339.183" viewBox="0 0 118.352 89.742"><path d="M78.93 194.75c-5.271-4.816-24.103-22.752-27.41-26.107-1.41-1.43-1.137.315-2.267-14.454l-.728-9.525-1.202-1.289-1.201-1.288-.172-2.548a115 115 0 0 1-.199-5.516c-.024-2.716.019-2.99.506-3.252.293-.156 2.406-.762 4.696-1.346 20.12-5.13 28.697-7.366 36.444-9.505 11.03-3.044 13.594-3.772 30.294-8.602 3.857-1.115 8.506-2.445 10.333-2.956l3.32-.929 3.697 1.852c2.033 1.019 6.373 3.066 9.644 4.55 15.623 7.085 18.783 8.567 19.157 8.979.36.398.35.87-.092 4.532-.433 3.586-.447 4.163-.112 4.694.248.394.354 1.135.302 2.117-.078 1.503-.085 1.514-1.323 2.182-.684.369-1.305.73-1.378.805-.074.074-.56 4.891-1.079 10.706-.52 5.814-.995 10.717-1.057 10.895-.117.33-23.202 11.913-48.672 24.419-7.849 3.854-17.303 8.585-21.008 10.514-3.706 1.928-6.987 3.502-7.292 3.498-.323-.004-1.66-1.018-3.201-2.425m10.586-1.707c3.782-1.987 11.996-6.104 18.253-9.15 14.933-7.27 49.88-24.662 50.465-25.116.391-.303.597-1.92 1.393-10.938.514-5.821.985-10.724 1.047-10.895s.646-.547 1.297-.835 1.302-.745 1.447-1.015c.282-.528.06-2.25-.405-3.13-.264-.502-.188-1.508.578-7.618l.159-1.267-2.59-1.207a813 813 0 0 0-6.692-3.061c-12.705-5.745-15.432-7.002-19.142-8.826l-4.08-2.006-3.271.919c-1.8.505-6.427 1.832-10.284 2.948-28.76 8.325-34.931 9.999-66.756 18.113-2.3.586-4.294 1.135-4.432 1.22-.289.179-.321 3.465-.075 7.728l.171 2.975 1.16 1.258c.637.693 1.209 1.497 1.27 1.788s.355 3.744.654 7.673l.815 10.685c.15 1.947.387 3.755.528 4.017.364.681 23.51 22.868 28.923 27.725.997.894 2.01 1.626 2.252 1.626s3.534-1.625 7.316-3.611m-7.5 2.619c-.13-.255-.308-1.892-.393-3.638-.274-5.62-.71-12.058-1.123-16.57-.22-2.419-.367-4.523-.324-4.676s-.437-.761-1.064-1.35c-1.57-1.476-2.998-3.221-2.893-3.535.126-.378 2.502-.533 2.721-.178.112.18.356.006.637-.457.408-.671.413-.782.05-1.05-.263-.194-.39-.664-.357-1.324.027-.562-.088-2.01-.256-3.218-.256-1.838-.244-2.253.07-2.554.387-.37 4.427-2.135 7.916-3.458 1.937-.735 2.778-1.185 2.213-1.185-.415 0-6.747 2.52-8.267 3.291-2.073 1.05-2.74.93-5.191-.939-1.164-.888-4.2-3.174-6.747-5.08-5.161-3.865-12.496-9.478-12.7-9.72-.073-.085-1.561-1.237-3.307-2.558-3.456-2.614-6.08-5.122-5.905-5.645.062-.186 2.767-1 6.183-1.86 9.525-2.397 23.138-5.905 27.635-7.12 2.256-.61 5.59-1.503 7.409-1.984s6.879-1.913 11.244-3.182 9.545-2.758 11.51-3.31 5.298-1.497 7.408-2.1c10.287-2.942 12.064-3.436 12.381-3.442.188-.004 2.093.841 4.233 1.88a352 352 0 0 0 7.728 3.609c3.666 1.646 6.651 2.99 12.17 5.477 8.628 3.888 8.078 3.269 7.433 8.387l-.445 3.526-1.179.574c-.648.316-3.474 1.433-6.28 2.484s-5.05 1.96-4.988 2.022c.114.114 4.62-1.477 9.088-3.21 2.831-1.097 3.669-1.182 3.918-.395.292.919-.383 2.019-1.866 3.04-1.22.84-1.371 1.037-1.113 1.45.225.361.154 2.082-.292 7.046-1.056 11.752-1.15 12.646-1.39 13.257-.182.467-4.535 2.743-19.224 10.054-10.444 5.198-20.952 10.394-23.352 11.547-7.694 3.696-21.392 10.55-27.174 13.598-3.088 1.628-5.673 2.959-5.746 2.959-.072 0-.239-.208-.37-.463m4.994-33.833c1.317-.527 2.352-1 2.3-1.053-.1-.1-4.686 1.654-4.911 1.878-.284.284.303.099 2.61-.825m7.335-2.906c4.144-1.635 5.577-2.284 4.032-1.826-1.08.32-6.66 2.491-7.805 3.037-2.07.986-.594.512 3.773-1.21m11.38.686c.38-.238.348-.256-.181-.11-.908.251-2.405.893-2.405 1.031 0 .157 2.011-.56 2.587-.92m2.608-.942c1.773-.664 3.065-1.448 1.708-1.037-.815.247-3.914 1.672-3.692 1.698.092.011.985-.286 1.984-.66m-2.51-4.082c2.645-1.018 4.87-1.852 4.943-1.852.074 0 .07-.064-.01-.143-.214-.215-9.77 3.274-10.24 3.739-.367.36 1.044-.102 5.306-1.744zm9.223 1.323c.483-.312.065-.312-.662 0q-.524.227-.132.242c.218.008.575-.1.794-.242m3.714-1.487c1.317-.527 2.346-1.008 2.286-1.067-.107-.107-4.663 1.658-4.905 1.9-.276.275.33.083 2.619-.833m-23.743-3.955c4.672-1.844 6.332-2.589 4.683-2.1-1.037.307-7.952 3.01-9.128 3.568-2.198 1.043-.453.466 4.445-1.468m18.308 1.17c.582-.27.761-.418.398-.33-.364.09-1.138.386-1.72.66-.582.273-.761.42-.398.329.363-.092 1.137-.389 1.72-.659m17.596-2.102c.352-.2.352-.224 0-.223-.219 0-.695.18-1.059.4l-.661.399.661-.176c.364-.096.84-.276 1.059-.4m-12.436.024c.218-.14.278-.256.132-.256-.145 0-.443.115-.661.256s-.278.257-.132.257c.145 0 .443-.116.661-.257m-16.14-2.027.662-.373-.661.175a6.8 6.8 0 0 0-1.323.548l-.662.374.662-.175a6.8 6.8 0 0 0 1.323-.549m33.735-.09c.207-.334-.143-.334-.662 0-.342.222-.335.258.05.261.247.002.522-.115.612-.26m-7.276-2.116c.218-.141.278-.256.132-.256-.145 0-.443.115-.661.256s-.278.256-.133.256.444-.115.662-.256m12.17-5.027c.219-.141.279-.257.133-.257s-.443.116-.661.257-.278.256-.133.256.443-.115.662-.256m14.156-1.049c.873-.417 1.468-.762 1.323-.767s-.98.331-1.852.748-1.469.762-1.323.768c.145.005.979-.332 1.852-.749m-10.451-.449.661-.374-.661.175c-.364.097-.96.343-1.323.549l-.662.373.662-.174a6.8 6.8 0 0 0 1.323-.549m-37.836-.218c1.237-.23 2.72-.545 3.297-.7l1.047-.284-.794-.334c-.867-.365-1.697-1.092-1.697-1.487 0-.39 1.282-.871 7.408-2.787 5.655-1.767 10.859-3.633 13.887-4.979 1.648-.732 2.368-.73 3.51.008.96.62.698 1.063-1.002 1.699-2.801 1.048-1.475.878 2.093-.267 3.527-1.133 4.287-1.557 3.674-2.052-.398-.32-10.906-3.77-11.485-3.77-.22 0-2.029.583-4.018 1.295-3.858 1.381-10.54 3.381-13.803 4.131l-1.984.456-2.994 2.946c-1.647 1.62-3.117 3.168-3.267 3.44-.225.407-.073.698.877 1.678 1.22 1.258 1.958 1.69 2.606 1.526a90 90 0 0 1 2.645-.518zm3.056-4.6c.37-.34 17.991-6.158 17.666-5.834-.296.297-3.222 1.366-11.593 4.238-4.954 1.7-6.678 2.152-6.073 1.595m19.801-6.866c.093-.15.578-.408 1.078-.573.732-.242 1.052-.222 1.65.1l.741.401-1.19-.035c-.655-.019-1.474.06-1.82.173-.412.137-.57.114-.459-.066m28.737 10.668c.364-.208.543-.378.397-.378-.145 0-.562.17-.926.378s-.542.378-.397.378.562-.17.926-.378m-44.979-1.084c1.022-.54.003-.395-1.19.169-.916.433-.952.48-.265.34a6.5 6.5 0 0 0 1.455-.509m17.463.158c.483-.312.065-.312-.662 0q-.524.227-.132.242c.218.008.575-.1.794-.242m-12.29-1.965c1.447-.498 2.492-.914 2.322-.925-.393-.025-5.661 1.759-5.879 1.99-.194.208.172.098 3.556-1.065m18.597-.507a105 105 0 0 1 3.96-1.616c1.064-.403 1.884-.782 1.823-.843-.11-.11-8.098 2.967-8.346 3.215-.362.362.755.033 2.563-.756m-11.717-1.874c1.01-.353 1.708-.65 1.55-.661-.308-.021-3.609 1.02-3.791 1.197-.261.251.527.063 2.241-.536m-33.974-1.898c.891-.599 1.428-1.153 1.448-1.494.017-.298.315-.757.661-1.02.866-.658 5.458-2.146 15.446-5.006 8.224-2.354 11.51-3.045 11.51-2.42 0 .277-4.537 1.799-10.054 3.373-5.438 1.55-7.18 2.072-11.6 3.467-2.522.797-4.528 1.507-4.456 1.58.072.071 1.839-.368 3.926-.977l8.16-2.376c2.402-.698 6.45-1.889 8.997-2.646 2.546-.758 5.225-1.524 5.953-1.703 1.951-.48 4.895-1.897 4.895-2.357 0-.399-2.637-1.537-5.542-2.392-1.439-.424-1.442-.423-5.688.65-4.348 1.1-14.504 4-20.049 5.724-2.808.874-3.318 1.135-5.423 2.78-3.501 2.734-4.446 3.621-4.162 3.906.59.589 3.218 1.854 3.861 1.859.386.003 1.339-.424 2.117-.948m55.993-.374c.379-.237.348-.256-.182-.11-.908.251-2.405.893-2.405 1.032 0 .156 2.011-.56 2.587-.922m3.01-1.158c2.293-.9 3.453-1.461 3.052-1.476-.284-.01-5.474 2.145-5.474 2.274 0 .153-.006.155 2.421-.798" style="fill:#000" transform="translate(-45.746 -107.434)"/></svg>