<svg xmlns="http://www.w3.org/2000/svg" xml:space="preserve" width="444.522" height="455.191" viewBox="0 0 117.613 120.436"><path d="M70.86 209.458c-4.436-1.191-8.23-4.056-10.826-8.174-1.321-2.095-2.17-5.129-2.331-8.337-.184-3.636.28-4.824 2.83-7.229 3.252-3.067 6.367-4.35 11.253-4.636l2.91-.17.19-2.117c.234-2.608.635-4.36 1.395-6.092.37-.843.704-2.442.913-4.366.358-3.3.97-6.6 2.115-11.43.405-1.706.679-3.16.608-3.23-.07-.071-.464.045-.874.257-1.39.72-11.745 4.83-13.607 5.403-4.516 1.389-7.812 1.667-10.955.926a12.3 12.3 0 0 1-8.337-6.736c-.734-1.547-.816-1.972-.816-4.233 0-1.998.114-2.758.555-3.704.886-1.9 2.825-3.842 4.814-4.821 1.582-.779 1.996-.867 4.018-.86 1.584.007 2.79.183 4.058.593l1.803.583 1.504-1.023c6.667-4.534 11.517-6.936 17.644-8.737 1.6-.47 3.118-1.044 3.373-1.274.481-.435.629-1.13.24-1.13-.588 0-2.567-2.471-3.496-4.366-1.543-3.146-1.852-4.678-1.849-9.163.004-4.32-.046-4.467-2.383-7.016-1.79-1.953-2.226-3.08-2.23-5.781-.005-2.042.097-2.6.712-3.911 1.497-3.196 4.228-5.529 7.709-6.586 4.755-1.445 8.485-.243 10.538 3.394.439.778.816 1.413.839 1.41.022-.001.814-.246 1.76-.543 3.942-1.24 11.104-1.68 15.311-.942 2.116.371 2.008.412 3.022-1.15 1.514-2.332 4.67-3.847 7.993-3.837 1.82.006 2.368.125 3.91.85 4.77 2.242 7.4 7.422 6.182 12.175-.6 2.343-1.228 3.44-3.2 5.59-.953 1.037-1.744 2.035-1.76 2.216-.014.181-.045 2.651-.07 5.489-.053 6.392-.45 7.943-2.62 10.237l-1.348 1.426.549.548c.358.358 2.282 1.048 5.538 1.986 7.847 2.26 12.929 4.687 16.432 7.848 1.205 1.088 1.835 1.486 2.144 1.357 2.642-1.103 6.121-1.327 8.534-.549 2.785.898 5.363 3.469 6.095 6.077.17.605.3 1.874.291 2.82-.042 4.274-2.925 8.09-7.409 9.806-1.168.447-2.279.61-4.825.706-5.113.194-6.542-.237-16.084-4.85-3.098-1.497-5.883-2.802-6.188-2.899-.695-.22-.658-.036.832 4.174 1.278 3.611 2.254 7.985 2.77 12.408.324 2.79.452 3.25 1.149 4.134.95 1.206 2.255 3.754 2.723 5.316.31 1.038.407 1.132 1.022.994 2.713-.61 3.943-.728 6.538-.631 2.67.1 3.112.191 4.685.965 3.649 1.797 5.81 6.06 5.798 11.436-.01 4.036-1.376 7.31-4.295 10.288-3.595 3.668-7.416 5.38-12.047 5.398-5.806.022-9.948-2.344-16.732-9.558-2.003-2.13-4.073-4.324-4.602-4.877-1.125-1.177-1.466-1.213-4.354-.46-3 .78-7.297.94-10.428.387-1.382-.244-3.127-.508-3.878-.587-1.347-.14-1.376-.129-2.127.91-.42.578-1.413 2.266-2.207 3.75-5.655 10.567-10.51 14.605-17.499 14.556-1.357-.01-3.122-.193-3.922-.408zm6.932-.132c4.759-.992 8.908-4.743 12.641-11.427 3.135-5.612 4.101-7.115 4.813-7.484.618-.321 1.031-.297 3.308.19 3.702.793 8.887.797 12.08.01 3.74-.921 3.327-1.105 7.47 3.327 6.16 6.59 9.56 9.338 13.232 10.697 1.316.487 2.145.583 5.14.597 3.081.015 3.789-.065 5.142-.575 4.617-1.742 8.809-5.753 10.249-9.806 1.716-4.833.333-11.731-2.945-14.678-1.578-1.419-3.394-2.064-6.308-2.242-2.108-.129-5.82.281-6.68.737-.636.337-.885.015-1.663-2.142-.397-1.1-1.13-2.589-1.63-3.308-1.46-2.102-1.643-2.68-2.216-6.995-.623-4.705-1.429-8.021-2.956-12.17-.59-1.605-1.003-3.031-.918-3.17.208-.337.44-.24 7.569 3.175 3.376 1.618 7.222 3.316 8.547 3.774 2.236.773 2.665.833 5.98.836 2.693.002 3.963-.115 5.16-.476 3.056-.921 5.652-3.137 6.969-5.945.608-1.297.704-1.845.703-4.016-.001-2.207-.087-2.675-.704-3.847-.855-1.621-2.74-3.409-4.408-4.18-1.703-.787-6.38-.823-8.423-.065l-1.365.507-1.678-1.466c-4.02-3.511-8.577-5.667-17.17-8.12-5.969-1.705-6.447-2.15-4.387-4.096 2.155-2.033 2.99-5.741 2.69-11.944-.2-4.163-.341-3.732 2.044-6.27 4.354-4.636 4.335-11.036-.045-15.091-3.29-3.047-7.149-3.78-10.975-2.088-1.444.639-3.33 2.338-4.016 3.618-.475.887-.573.94-1.436.774-5.065-.97-10.876-.797-15.61.466-3.375.9-3.063.94-3.795-.492-1.376-2.692-3.604-4.046-6.675-4.056-5.345-.017-10.206 3.41-11.6 8.178-.928 3.174-.38 5.352 2.1 8.33.958 1.153 1.855 2.306 1.992 2.563.138.257.25 2.123.25 4.147 0 2.796.126 4.169.522 5.72.69 2.693 2.213 5.557 3.773 7.089.694.681 1.262 1.427 1.262 1.657 0 .638-1.367 1.334-4.187 2.131-4.288 1.213-8.882 3.23-12.217 5.367-.8.513-2.349 1.46-3.44 2.104s-2.249 1.417-2.572 1.717l-.588.546-2.19-.626c-4.332-1.237-7.419-.629-10.249 2.018-3.214 3.006-3.793 7.642-1.453 11.624.736 1.252 3.04 3.532 4.352 4.305 2.745 1.618 7.82 2.001 11.906.898 2.731-.736 8.229-2.786 12.7-4.734 3.664-1.596 4.498-1.86 4.498-1.428 0 .16-.41 2.05-.911 4.198-1.192 5.107-1.673 7.814-1.972 11.082-.159 1.737-.429 3.037-.77 3.705-.74 1.451-1.097 2.925-1.458 6.015l-.313 2.685-2.911.182c-5.074.318-8.806 1.924-11.947 5.14-1.073 1.1-1.506 1.792-1.84 2.944-.852 2.93.072 8.274 2.01 11.634 1.11 1.923 3.667 4.577 5.659 5.875 3.503 2.283 7.993 3.182 11.86 2.375zm-5.68-3.17c-2.321-.547-5.175-2.606-6.523-4.708-1.403-2.186-1.926-4.223-1.942-7.572-.017-3.418.34-4.528 1.732-5.389 3.953-2.442 10.678-2.487 14.717-.097 2.055 1.215 5.657 4.525 6.107 5.61 1.23 2.969-2.291 9.047-6.406 11.06-2.527 1.236-5.37 1.641-7.684 1.096zm65.555-4.042c-2.914-.766-5.987-2.626-8.409-5.092-2.564-2.611-3.332-4.867-2.473-7.269.536-1.501 3.042-4.934 4.528-6.203 3.322-2.839 6.45-4.098 10.153-4.087 2.665.007 4.094.288 5.044.993.797.59 2.298 2.632 2.09 2.84-.08.08-.785-.183-1.57-.582-1.227-.624-1.816-.74-4.237-.829-2.093-.077-3.21.01-4.366.34-1.696.485-4.693 2.136-5.506 3.034-.396.438-.034.328 1.588-.482 3.613-1.804 8.677-2.37 12.107-1.352 1.324.393 2.916 1.854 3.633 3.335 1.086 2.245.64 7.041-.947 10.172-.95 1.874-2.398 3.213-4.715 4.358-2.302 1.138-4.657 1.418-6.92.824zM87.12 191.055c-1.693-3.575-3.896-6.284-6.668-8.2-.618-.428-1.124-.958-1.124-1.177 0-.545 1.372-3.268 2.396-4.758 1.47-2.135 3.427-2.449 6.124-.98 2.669 1.452 5.818 5.927 5.385 7.652-.094.377-.901 1.893-1.793 3.368-.892 1.476-1.876 3.337-2.186 4.137s-.742 1.49-.96 1.53c-.256.05-.667-.5-1.174-1.572zm33.893-4.016c-3.337-3.525-4.11-4.522-4.113-5.301-.004-1.089 1.768-4.054 3.535-5.917 1.875-1.977 4.81-3.773 6.165-3.773 1.122 0 2.358.7 3.327 1.886 1.007 1.232 2.847 4.686 2.847 5.346 0 .218-.566.811-1.257 1.319-1.586 1.164-4.261 3.96-5.09 5.32-.348.57-.893 1.756-1.21 2.634-.318.878-.695 1.635-.837 1.683-.142.047-1.657-1.391-3.367-3.197zm-58.35 1.48c.008-.835 1.167-2.539 2.33-3.426 1.742-1.328 3.623-1.789 7.191-1.76 2.52.02 3.411.143 5.183.717 2.739.888 4.222 1.94 4.584 3.254.326 1.18.194 1.383-.585.894-6.631-4.16-12.363-4.242-17.167-.246-1.4 1.163-1.542 1.216-1.536.566zm38.757-2.1c-4.805-1.077-5.528-1.42-6.238-2.966-1.848-4.019-2.272-4.71-4.015-6.544-1.667-1.755-2.24-2.146-5.743-3.921-2.141-1.084-4.02-2.126-4.176-2.316-.405-.492.064-8.284.738-12.25.297-1.746.956-4.663 1.464-6.482.767-2.744.965-4.008 1.165-7.418.132-2.26.474-5.178.76-6.482.602-2.743 2.084-7.504 2.492-8.008.201-.248.673-.295 1.69-.168.777.097 1.412.104 1.412.017 0-.088-.855-.59-1.9-1.117-3.536-1.78-6.075-4.806-7.53-8.974-.673-1.927-.738-2.44-.734-5.818.004-4.573.58-7.025 2.342-9.954 1.407-2.342 2.065-3 4.066-4.062 1.885-1.001 1.932-1.487.185-1.93-2.796-.707-5.856.627-6.73 2.932-.476 1.258-.34 2.454.38 3.308.363.433.661.944.661 1.136 0 .509-.835 2.617-1.037 2.617-.363 0-2.754-2.57-3.374-3.626-.892-1.521-1.077-3.614-.506-5.707 1.048-3.833 3.441-5.597 7.611-5.609 2.21-.006 2.707.332 4.823 3.283 1.773 2.474 1.238 2.351 5.382 1.229 4.96-1.344 10.449-1.53 16.337-.557 3.28.543 3.174.565 3.68-.757.92-2.414 3.479-4.228 5.984-4.245 2.696-.018 6.124 2.402 7.683 5.425.835 1.618 1.032 5.057.388 6.745-.473 1.238-2.83 3.819-3.49 3.819-.202 0-.486-.314-.632-.698-.465-1.224-.58-.46-.232 1.54.185 1.065.328 3.543.318 5.508-.022 4.15-.547 6.585-2.099 9.724-1.41 2.854-2.65 4.006-5.382 4.995-1.237.448-2.325.773-2.418.723s.13-.83.495-1.734c1.086-2.687.59-5.493-1.384-7.839-.604-.718-2.398-1.753-3.969-2.289-.471-.16-.436-.22.326-.542 2.552-1.082 2.524-5.36-.04-6.207-1.228-.404-2.474-.013-3.73 1.171-1.287 1.214-1.265 2.258.074 3.55.548.529 1.232 1.103 1.521 1.276.458.275.354.321-.797.36l-1.323.045 1.37.335c3.282.802 5.32 2.521 6.077 5.123 1.134 3.901-1.928 8.568-6.256 9.537-.655.146-1.286.171-1.402.055s-.783-.157-1.483-.09c-2.242.216-5.492-.992-7.465-2.775-1.984-1.793-2.658-3.906-1.984-6.225.828-2.846 3.515-4.868 7.378-5.55 2.341-.413 2.613-.842.398-.627-3.607.349-7.154 1.807-8.784 3.611-2.2 2.436-2.747 5.42-1.41 7.7 1.545 2.638 5.418 5.17 9.686 6.335 2.116.577 2.78 1.045 2.241 1.583-.155.155-1.27-.21-2.973-.975-2.4-1.077-2.893-1.209-4.133-1.106-2.523.21-4.125 1.97-4.148 4.557-.016 1.719.629 3.13 1.859 4.067.783.598 1.2.713 2.584.713 1.44 0 1.956-.157 4.058-1.227 1.325-.674 2.453-1.15 2.506-1.058.054.092.182 1.21.286 2.482.165 2.038.445 2.894.821 2.517.065-.064.242-1.118.395-2.342s.387-2.335.52-2.47c.15-.15 1.179.2 2.656.902 3.577 1.7 5.73 1.716 7.697.06 2.32-1.952 1.965-5.78-.68-7.33-1.9-1.114-2.832-1.122-5.58-.048-1.31.511-2.838 1.007-3.396 1.1-.877.147-1.003.106-.925-.298.058-.3.451-.542 1.095-.676 1.637-.34 3.568-1.259 6.778-3.224 2.872-1.759 4.842-2.544 6.386-2.544.642 0 .747.173 1.402 2.316.968 3.167 1.385 5.634 2.016 11.928.62 6.188.905 7.714 2.517 13.457 1.233 4.395 2.614 10.894 2.468 11.62-.056.28-.77.626-2.07 1.003-2.666.773-4.215 1.587-5.936 3.121-1.807 1.61-3.36 3.966-4.414 6.692-1.2 3.104-2.002 4.566-2.784 5.078-1.242.814-5.776 1.668-8.694 1.637-1.455-.015-2.884-.081-3.175-.146zm3.254-56.172c.044-1.09.018-2.227-.058-2.528-.075-.3-1.095-1.232-2.267-2.071-2.26-1.618-3.071-2.548-2.813-3.22.087-.228.725-.672 1.418-.988 1.83-.835 6.011-.839 7.812-.007 1.994.921 1.94 1.208-.682 3.643l-2.298 2.133v2.576c0 2.315.049 2.576.482 2.576 1.1 0 3.037-.917 4.258-2.015 3.351-3.013 3.618-7.494.609-10.207-3.2-2.885-10.947-2.527-14.31.66-1.953 1.85-2.423 4.561-1.212 6.99.708 1.422 1.623 2.264 3.495 3.217 1.313.669 3.873 1.344 4.826 1.272.635-.048.665-.13.74-2.03zm2.803-5.008c2.697-2.145 2.858-2.701 1.021-3.529-2.283-1.03-7.575-.598-8.384.684-.371.589-.01 1.14 1.464 2.23 2.245 1.66 3.414 2.75 3.425 3.19.006.248.167.085.363-.365.194-.446 1.144-1.44 2.111-2.21zm-9.496-7.788c1.622-.756 1.993-1.183 2.17-2.5.253-1.892-1.133-3.757-2.792-3.757-1.833 0-4.273 2.22-4.273 3.89 0 1.186.374 1.843 1.406 2.473 1.099.67 1.875.646 3.489-.106zm-.768-4.335c-.348-.349-.127-.864.371-.864.291 0 .53.166.53.369 0 .399-.644.752-.901.495zm27.088-8.603c1.126-2.567.904-4.522-.716-6.316-1.21-1.338-2.138-1.82-3.511-1.82-.93 0-2.646.591-2.646.911 0 .057-.06.263-.133.457-.074.197.727 1.244 1.82 2.377 1.073 1.114 2.468 2.81 3.099 3.77.63.96 1.247 1.746 1.37 1.746s.446-.507.717-1.125zm-67.992 52.535c-2.68-.448-5.063-2.046-6.108-4.094-.95-1.863-.568-4.37.913-6.001.715-.786 2.344-1.63 3.134-1.622 1.156.01 2.73.989 4.384 2.721 2.746 2.878 4.013 6.596 2.717 7.975-.89.947-2.968 1.368-5.04 1.021zm-5.76-.544c-3.094-1.67-4.766-5.916-3.651-9.271.694-2.089 1.82-3.439 3.542-4.246 1.33-.623 1.826-.705 4.282-.705 2.55 0 2.904.064 4.315.779 2.097 1.061 4.55 3.71 5.823 6.286 1.607 3.252 1.633 4.67.104 5.701-1.409.95-1.683.814-1.881-.94-.464-4.096-4.434-8.621-8.275-9.433-1.225-.258-2.862.332-4.208 1.517-1.842 1.622-2.373 3.061-1.95 5.289.354 1.869.978 3.023 2.344 4.331 1.257 1.205 1.063 1.506-.446.692zm98.187-.348c-2.198-1.408-1.805-6.195.747-9.095 1.313-1.49 2.75-2.264 4.56-2.45 1.733-.18 3.138.385 3.877 1.558 1.083 1.72.348 5.665-1.509 8.099-1.58 2.072-5.776 3.105-7.675 1.888zm8.115-.396c0-.092.223-.483.495-.87.907-1.286 1.819-3.33 2.15-4.823.28-1.253.265-1.696-.093-2.927-.485-1.669-1.31-2.987-2.353-3.76-2.485-1.84-7.961 1.078-9.897 5.275-.78 1.693-1.065 4.188-.628 5.512.397 1.204.255 1.379-.775.952-1.15-.476-2.597-2.188-2.81-3.326-.573-3.054 2.706-8.402 6.106-9.959 2.727-1.249 7.346-.546 9.361 1.425 1.235 1.207 1.632 2.126 1.804 4.17.17 2.034-.512 4.82-1.67 6.82-.566.978-1.69 1.983-1.69 1.511zm-87.979-2.3c-.066-.181-.42-1.377-.787-2.657-.815-2.84-1.806-4.846-3.413-6.913-.67-.862-1.22-1.777-1.22-2.032 0-.651.94-1.319 4.188-2.977 4.635-2.365 11.714-5.18 16.45-6.539.474-.136.473-.098-.107 4.12-.24 1.746-.543 5.043-.673 7.328-.13 2.284-.35 4.357-.49 4.606-.279.499-12.235 5.367-13.224 5.385-.332.006-.658-.138-.724-.32zm68.154-2.344c-2.014-.512-8.45-2.99-10.664-4.106-.795-.4-1.3-.848-1.385-1.224-.073-.326-.322-2.498-.553-4.827s-.63-5.33-.886-6.67c-.256-1.341-.395-2.55-.31-2.689.186-.301 5.608 1.111 9.534 2.484 5.21 1.822 10.285 4.32 11.494 5.655.423.467.385.583-.743 2.23-1.713 2.502-2.43 4.035-3.221 6.887-.385 1.387-.837 2.574-1.006 2.638-.168.065-1.185-.105-2.26-.378zm-22.892-12.648a.295.295 0 0 1 .096-.405.296.296 0 0 1 .406.096.296.296 0 0 1-.096.405.295.295 0 0 1-.406-.096zm-4.908-25.819c0-.218.178-.397.397-.397.218 0 .396.179.396.397a.4.4 0 0 1-.396.397.4.4 0 0 1-.397-.397z" style="fill:#000;stroke:#000;stroke-opacity:1" transform="translate(-44.828 -89.93)"/></svg>