<svg xmlns="http://www.w3.org/2000/svg" viewBox="0 0 493 493"><path d="M261.47 493h-27.94c-8.53-1.1-17.12-1.88-25.58-3.35-58.25-10.17-107.48-37.01-145.89-81.99C11.2 348.08-7.3 278.93 6.54 201.96c10.1-56.21 37.66-103.32 81.22-140.3C145.51 12.62 212.53-6.6 287.22 5.61c66.13 10.81 119.64 43.89 159.16 98.51 23.27 32.16 38 67.9 43.66 107.27 1.11 7.69 1.98 15.42 2.96 23.14v26.95c-.33 1.59-.73 3.18-.96 4.78-1.55 10.82-2.38 21.8-4.69 32.45-11.88 54.74-39.35 100.35-82.09 136.47-35.13 29.69-75.61 48.07-121.21 54.84-7.51 1.12-15.05 2-22.58 2.99Zm-14.02-112.73c72.88.01 132.75-59.71 132.81-132.49.06-73.2-59.64-133.05-132.73-133.06-72.89 0-132.74 59.7-132.81 132.48-.06 73.18 59.66 133.06 132.72 133.07Zm114.05-234.8c14.31 16.09 24.38 33.78 31.44 53.51 21.24-12.32 41.83-24.27 62.64-36.34-8.06-19.57-18.17-37.24-31.23-53.6-21.03 12.18-41.63 24.13-62.85 36.42Zm-83.74-48.32V25.28c-15.27-3.46-50.53-3.21-60.49.33v71.52c20.31-3.99 40.24-4.02 60.49.02M39.75 333.19c8.09 19.41 18.24 36.95 31.15 53.12 20.92-12.27 41.49-24.34 62.65-36.75-13.96-15.65-24.08-33.14-31.16-52.68-21.15 12.26-41.67 24.15-62.63 36.3Zm30.38-223.65c-12.63 16.27-22.78 33.63-30.61 52.93 21.01 11.93 41.81 23.74 62.22 35.34 4.79-9.68 8.78-19.01 13.89-27.69 5.08-8.62 11.29-16.57 17.13-24.99-20.86-11.85-41.61-23.64-62.64-35.59ZM362.17 348.8c21.32 12.11 42.2 23.97 63.25 35.92 12.52-16.37 22.6-33.52 30.1-52.45-21.11-12.22-41.73-24.16-62.67-36.29-6.9 19.77-16.93 37.02-30.67 52.81Zm-143.92 49.17v72.17c20.09 2.76 39.81 2.84 59.5-.19v-72.1c-19.95 3.91-39.55 4.06-59.5.12"/></svg>