<svg xmlns="http://www.w3.org/2000/svg" viewBox="0 0 175.05 108.03"><path d="M66.96 107.97H.01V13.76c0-2.94-.33-2.64 2.59-2.65 4.04-.01 8.07 0 12.3 0V0h157.8c.78 0 1.57.07 2.35.1v96.65h-11.34v11.28H96.97zm14.86-7.56c17.8 0 35.6-.03 53.4.03 2.74 0 4.65-1.07 5.86-3.46.63-1.24 1.26-2.48 1.75-3.78 1.18-3.09 3.32-5.1 6.41-6.23 1.81-.67 3.57-1.47 5.33-2.26 1.21-.55 1.74-1.46 1.74-2.87-.04-14.89-.04-29.78 0-44.68 0-1.34-.51-2.19-1.64-2.76-.7-.35-1.38-.79-2.13-1-5.46-1.49-9.2-4.69-10.96-10.25-1.05-3.3-3.57-4.6-7.16-4.59-30.03.09-60.06.05-90.09.05-5.39 0-10.78.02-16.17-.01-2.13-.01-3.79.77-4.82 2.63-.85 1.53-1.69 3.08-2.31 4.71-1.12 2.91-3.14 4.8-5.99 5.92-1.74.68-3.43 1.5-5.16 2.21-1.7.7-2.41 1.79-2.39 3.75.09 14.1.15 28.21-.04 42.31-.04 2.96.92 4.65 3.6 5.38 5.73 1.57 9.58 4.95 11.44 10.73.97 3.01 3.36 4.21 6.65 4.19 17.56-.1 35.12-.05 52.67-.05v.03Zm85.53-11.28V7.56H22.57v3.59h141.25v77.97h3.53Z"/><path d="M115.45 62.05c-.35 10.42-4.99 21.37-15.82 29.06-13.28 9.43-30.78 6.91-41.81-5.75-13.47-15.47-12.31-40.16 2.54-54.29 14.62-13.91 37.18-10.9 48.6 6.47 4.25 6.47 6.48 13.99 6.48 24.51ZM28.05 52.08c5.15.02 9.3 4.24 9.27 9.41-.03 5.16-4.27 9.27-9.46 9.2a9.234 9.234 0 0 1-9.16-9.3c0-5.19 4.16-9.32 9.36-9.3h-.01ZM135.87 70.68c-5.18-.01-9.35-4.23-9.28-9.38.07-5.2 4.23-9.27 9.44-9.22 5.05.04 9.2 4.23 9.2 9.3s-4.18 9.32-9.37 9.3Z"/></svg>