<?xml version="1.0" encoding="UTF-8"?>
<svg id="Layer_1" data-name="Layer 1" xmlns="http://www.w3.org/2000/svg" viewBox="0 0 595 250">
  <defs>
    <style>
      .cls-1, .cls-2 {
        stroke-width: 0px;
      }

      .cls-2 {
        fill: #fff;
      }
    </style>
  </defs>
  <g id="eaq5f6.tif">
    <g>
      <path class="cls-2" d="m595,250c-198.33,0-396.67,0-595,0C0,166.67,0,83.33,0,0c198.33,0,396.67,0,595,0,0,83.33,0,166.67,0,250ZM204.01,46.57c-6.43-7.83-10.77-7.13-14.96,2.21-1.49,3.33-2.62,6.86-4.48,9.96-1.01,1.68-3.06,3.48-4.89,3.8-12.43,2.22-24.92,4.03-37.39,6.03-6.54,1.05-12.89,1-19.61.08-10.3-1.41-21.12-1.41-30.62,3.85-8.84,4.89-17.49,10.32-25.57,16.37-15.02,11.25-29.4,23.35-44.37,34.66-8.67,6.55-14.7,14.34-17.53,24.98-4.07,15.29-1.28,29.43,8.59,41.06,11.39,13.42,26.42,22.02,43.98,25.61,12.2,2.49,24.29,5.68,36.6,7.36,23.97,3.27,47.84,10.31,72.33,3.44.51-.14,1.27.25,1.81.57,10.12,5.94,21.55,7.3,32.75,9.65,6.4,1.34,12.46.4,17.05-3.25,6.19-4.93,12.48-5.28,19.52-3.9,1.3.25,2.64.36,3.96.47,10.69.95,21.44,1.35,31.05-4.32,9.71-5.72,19.01-3.76,26.85,2.26,13.85,10.63,29.05,16.65,46.23,19.34,23.13,3.62,41.06-4.93,56.44-21.16.8-.85,2.66-1.6,3.63-1.26,12.26,4.21,24.6,2.58,37.01,1.07,2.78-.34,6.46-.21,8.49,1.33,8.76,6.64,17.77,6.05,27.29,2.42,1.03-.39,2.66-.32,3.56.25,10.12,6.39,21.29,9.72,32.91,12.25,29.8,6.49,54.91-6.26,67.43-30.24,13.32-25.51,13.95-51.65-.97-77.83-9.89-17.35-38.08-35.5-61.5-30.27-2.03.45-5.18-.86-6.81-2.4-9.91-9.35-19.4-19.14-29.27-28.52-9.37-8.9-20.57-14.41-33.65-13.54-10.7.71-21.41,2.45-31.89,4.77-14.42,3.19-16.25,2.26-18.71-12.23-.88-5.19-1.49-10.79-3.91-15.3-5.49-10.24-16.26-19.84-33.96-16.22-.77.16-1.79.37-2.36.01-7.3-4.6-15.59-3.95-23.64-4.73-1.71-.17-3.55-.86-4.97-1.84-12.3-8.49-25.59-11.97-40.55-9.32-14.85,2.63-29.04,6.49-38.79,19-4.21,5.4-7.37,11.6-11.2,17.76-12.89-7.14-24.39-1.67-35.88,5.79Z"/>
      <path class="cls-1" d="m204.01,46.57c11.49-7.46,22.99-12.93,35.88-5.79,3.83-6.15,6.99-12.36,11.2-17.76,9.75-12.51,23.94-16.37,38.79-19,14.96-2.65,28.26.83,40.55,9.32,1.42.98,3.26,1.67,4.97,1.84,8.04.78,16.34.13,23.64,4.73.56.35,1.59.14,2.36-.01,17.7-3.62,28.47,5.97,33.96,16.22,2.42,4.51,3.03,10.1,3.91,15.3,2.46,14.49,4.29,15.42,18.71,12.23,10.48-2.32,21.19-4.06,31.89-4.77,13.09-.87,24.29,4.64,33.65,13.54,9.88,9.38,19.37,19.17,29.27,28.52,1.63,1.54,4.78,2.85,6.81,2.4,23.42-5.23,51.61,12.92,61.5,30.27,14.93,26.18,14.29,52.33.97,77.83-12.52,23.98-37.64,36.73-67.43,30.24-11.62-2.53-22.79-5.85-32.91-12.25-.9-.57-2.53-.64-3.56-.25-9.51,3.63-18.53,4.22-27.29-2.42-2.03-1.54-5.71-1.67-8.49-1.33-12.41,1.51-24.75,3.14-37.01-1.07-.97-.33-2.83.41-3.63,1.26-15.38,16.23-33.31,24.78-56.44,21.16-17.18-2.69-32.38-8.71-46.23-19.34-7.84-6.01-17.14-7.98-26.85-2.26-9.61,5.66-20.37,5.26-31.05,4.32-1.32-.12-2.66-.22-3.96-.47-7.04-1.37-13.33-1.03-19.52,3.9-4.59,3.66-10.65,4.59-17.05,3.25-11.2-2.35-22.63-3.71-32.75-9.65-.54-.32-1.3-.71-1.81-.57-24.49,6.87-48.36-.17-72.33-3.44-12.31-1.68-24.4-4.87-36.6-7.36-17.56-3.59-32.59-12.18-43.98-25.61-9.87-11.63-12.66-25.77-8.59-41.06,2.83-10.64,8.87-18.43,17.53-24.98,14.97-11.31,29.35-23.41,44.37-34.66,8.08-6.05,16.72-11.48,25.57-16.37,9.5-5.25,20.32-5.26,30.62-3.85,6.71.92,13.06.98,19.61-.08,12.47-2,24.96-3.82,37.39-6.03,1.83-.33,3.89-2.12,4.89-3.8,1.86-3.1,2.99-6.64,4.48-9.96,4.19-9.34,8.53-10.04,14.96-2.21Zm1.94,187c1.19-3.7,3.42-7.41-1.78-7.76-8.45-.58-16.96-.16-25.45-.16-.08.33-.17.66-.25,1,9.08,2.29,18.16,4.57,27.48,6.92Zm270.12-6.82c-2.35-4.97-6.19-5.01-9.93-4.72-1,.08-2.82,2.03-2.64,2.47.56,1.37,1.87,3.41,2.93,3.43,3.13.07,6.28-.71,9.65-1.18Z"/>
      <path class="cls-2" d="m205.95,233.56c-9.31-2.35-18.4-4.63-27.48-6.92.08-.33.17-.66.25-1,8.49,0,17-.42,25.45.16,5.2.35,2.96,4.06,1.78,7.76Z"/>
      <path class="cls-2" d="m476.07,226.74c-3.37.48-6.52,1.25-9.65,1.18-1.06-.02-2.36-2.06-2.93-3.43-.18-.43,1.64-2.39,2.64-2.47,3.74-.29,7.58-.25,9.93,4.72Z"/>
    </g>
  </g>
</svg>