<svg id="Layer_1" data-name="Layer 1" xmlns="http://www.w3.org/2000/svg" viewBox="0 0 474 358">
  
  <g id="oCgsOS.tif">
    <g>
      
      <path class="cls-1" d="m116.84,46.04v-10.17c5.96.45,5.53-3.37,5.38-7.13-.12-3.08-.02-6.16-.02-9.35,4.36.26,7.9.46,12.39.73,0,2.95.18,6.34-.05,9.71-.25,3.71.44,6.33,5.17,5.68.29,2.58.55,4.83.93,8.24,10.67-1.11,21.19-1.94,31.59-3.49,2.25-.33,3.85-3.94,6.21-4.82,5.72-2.14,11.32-2.96,17.75-.6,5.65,2.07,12.38,2.33,18.49,1.79,17.41-1.54,34.74-3.93,52.11-5.92,16.37-1.88,32.75-3.74,49.14-5.49,9.85-1.05,19.72-1.88,29.85-2.83.12-2.35.23-4.4.36-6.84,1.56.07,2.9.14,4.2.2,1.95-8.08,6.89-12.61,14.87-12.75,12.74-.23,25.5-.21,38.24.15,2.63.07,5.05.28,7.72-.21,2.22-.41,5.31.19,7.06,1.57,6.87,5.38,13.77,11,12.62,21.69,10.13.51,20.02,1.12,29.91,1.47,6.7.24,8.04,1.37,7.99,8.34-.11,17.77-.38,35.55-.43,53.32-.02,7.64.61,15.28.47,22.91-.32,16.56-1.11,33.11-1.37,49.66-.07,4.23.74,8.58,1.78,12.71,4.45,17.64,5.33,35.06-.28,52.79-2.5,7.91-3.05,16.51-3.86,24.86-.58,5.93.03,11.96-.14,17.93-.23,8.17-2.65,11.01-10.28,12.37-6.99,1.24-14.07,2.08-20.96,3.73-2.19.52-4.61,2.68-5.7,4.74-2.99,5.65-6.97,8.75-13.46,10.45-17.46,4.56-34.86,2.8-52.22.74-12.1-1.44-23.64.72-35.33,2.75-9.28,1.61-18.58,3.09-27.85,4.73-7.81,1.38-15.59,2.96-23.4,4.34-12.7,2.25-25.41,4.4-38.12,6.61-7.5,1.3-14.98,2.64-22.48,3.94-13.21,2.29-26.43,4.52-39.63,6.85-9.45,1.66-18.9,3.32-28.28,5.32-1.29.27-3.09,2.46-3.09,3.75,0,4.43-2.42,6.28-6.01,8.13-17.75,9.15-36.93,8.94-55.88,7.75-9.68-.6-19.22-4.54-28.65-7.5-1.76-.55-2.93-3.53-3.97-5.6-.54-1.08-.15-2.62-.25-3.94-.36-4.56-1.52-7.59-7.17-8.79-7.17-1.52-14.11-3.1-21.55-2.81-9.4.37-11.83-2.89-13.03-12.04-3.61-27.47-.98-55.02-1.53-82.52-.63-31.51-1.2-63.02-1.88-94.53-.53-24.37-1.25-48.74-1.78-73.11-.15-7.13,2.86-9.72,9.81-10.14,10.89-.67,21.75-1.8,32.63-2.73,10.23-.88,20.47-1.69,30.69-2.63,13.52-1.25,27.03-2.61,41.28-3.99Z"/>
    </g>
  </g>
</svg>