<svg xmlns="http://www.w3.org/2000/svg" xml:space="preserve" width="229.041" height="226.716" viewBox="0 0 60.601 59.985"><path d="m.974 48.5-.513-1.537q-.922-2.666 0-3.589l.205-.205.513 2.256q1.538 3.999 5.845 8.305 2.666 2.666 5.332 4.205 2.666 1.538 4.82 1.845l-.308.103-3.077.102-2.768-.41-3.281.308q-2.564-.615-4.512-2.564-1.846-1.948-2.564-4.511-.512-2.256.308-3.18zm9.126 1.948q3.794 3.692 7.178 4.922l1.23.308.616.102-1.231 1.23q-1.128.718-3.794-.615-2.871-1.23-5.742-4.204-3.589-3.486-4.717-6.767-.82-2.154-.205-3.076l1.128-1.128.103.512.41 1.23v.103q1.333 3.692 5.024 7.383m3.384-3.794.307.308 2.256 1.948 1.641 1.436 3.179 1.845-.923 1.026-.513.205h-.82l-1.64-.41-1.539-.82-3.896-3.077-3.384-4.306-.718-1.539-.102-.205-.308-1.435v-.718l.205-.513.923-.922 1.948 3.178 1.333 1.64zm-.922-14.561-.103.102-.102.205v1.538l.102.308v.103l.206.717.102.103.205.82.103.103.205.615.205.41 1.128 1.846.102.102.923 1.23.103.206.205.308.205.102.41.513 2.564 2.563 3.588 2.666h.103l1.64.82 3.487.616-.615 3.794q-1.128.923-4 0l-2.665-1.333-5.845-4.615-.205-.307q-2.974-2.871-4.717-5.947l-1.333-2.769q-.923-2.871 0-3.999.41-.41 1.23-.513zm17.637-13.74q1.333 3.588 5.024 7.28 2.256 2.256 4.614 3.589 2.256 1.435 4.102 1.64L28.147 46.553l-3.589-.513-5.332-3.896-2.358-2.564v-.102l-.308-.308v-.103l-.41-.41-1.23-1.948v-.205l-.718-1.436-.308-1.23q-.308-1.333.205-1.743L29.788 16.61zm1.128-8.51q.41-.615 1.538-.615l2.973.615-1.538 1.435q-1.23 1.333-.205 4.204 1.23 3.18 4.614 6.563 2.872 2.871 5.845 4.204 3.384 1.436 4.82 0l1.333-1.333v.103l.615 2.563-.513 1.743-1.64.513q-2.051.102-5.23-1.743t-6.255-4.82q-2.256-2.256-3.896-4.716-1.744-2.359-2.461-4.512-1.128-3.076 0-4.204m9.946 2.358 2.563 3.076 1.436 1.538 3.076 2.564 1.743 1.025 1.949 1.128-3.692 3.692q-.718.717-2.666 0l-1.128-.616q-2.46-1.23-4.82-3.486-2.46-2.563-3.793-5.024l-.513-1.128v-.205q-.718-1.949 0-2.564l3.794-3.691 1.026 2.05zm5.127 3.692-1.538-1.641q-2.769-2.974-4.102-5.742l-.512-1.128-.41-1.538q-.206-1.538.204-2.154l.41 1.333v.103l.718 1.333 1.23 2.358q1.744 2.769 4.41 5.332l4.922 4.102 2.358 1.333 1.436.615 1.333.41-2.05.308-2.77-1.025q-2.87-1.436-5.64-4M52.552 4h.308l2.256 1.538 1.435 1.948.103.205v.616l-.82-.41-1.744-1.231q-1.128-1.128-1.538-2.153zm-1.333-.615-.102.102h-.103v.923l.103.205v.103l.102.205q.513 1.435 1.846 2.768l1.948 1.436q.923.615 1.64.615h.41l.411-.307 2.564 5.434q1.128 2.871 0 4l-.718.41-.718.102-.41-.103q-2.05-.102-4.922-1.845-2.769-1.641-5.435-4.307-4.409-4.41-5.947-8.613-.41-1.128-.513-2.051l.103-1.128.41-.718V.513L43.938 0l3.384 1.128 3.999 2.05-.103.103z"/></svg>