<svg xmlns="http://www.w3.org/2000/svg" width="128pt" height="176" viewBox="0 0 128 132"><path d="M110.395 16.441h-9.602l4.344 27.18H60.8l2.054-11.191-12.796.226q.457 10.734-4.34 17.36-4.118 5.705-12.801 9.132-3.2 13.02-3.656 30.832l-.684 5.25-2.289 2.97-2.512-.227-2.058-1.141-.684-3.883.227-5.254q0-11.418 1.828-27.406l-2.969-.91-2.973-.688Q9.606 56.18 5.035 49.56C1.684 44.53.313 38.824.922 32.429q.914-8.906 7.773-15.3 7.084-6.398 16.68-6.625c6.402 0 11.809 2.059 16.227 6.168q2.514-1.827 6.628-5.254l7.086-6.164 4.57-3.656L65.829 0h36.797q3.885-.001 5.484 1.598 1.828 2.056 2.286 8.449zm-13.028 32.66q3.429 9.365 4.344 21.922H64.914q1.143-14.843 4.57-21.921zm15.082 0q4.114.684 6.172 3.425l4.344 8.45 2.969 10.046h-18.97q-.683-11.418-4.339-21.695l.227-.226zm-5.484 27.175h19.426q1.599 8.679-2.286 21.922h-17.824l1.14-10.73zm14.855 27.407q-7.769 18.726-26.054 25.347l5.714-11.875 4.114-13.472zm-19.652-16.215-.457 10.73H65.37l-1.14-10.73.226-11.192h37.711zm-30.856 32.656q-2.97-5.936-5.253-15.758l-.23-.457.23-.226h34.05l-5.027 16.441Q89.14 132 81.598 131.084q-5.486-.683-10.285-10.96m-56.45-96.602q-4.341 4.11-5.027 10.047-.685 7.081 3.43 11.875 4.112 4.57 11.195 5.711l3.43-13.472q2.285-7.085 5.484-11.192l3.887 5.707 3.883 5.485c.304-5.485-1.141-9.973-4.34-13.477q-4.57-4.794-11.887-4.566-5.484.227-10.055 3.882m43.422 25.579h5.258q-3.887 11.415-4.344 21.921H40.688q.914-6.163 4.8-14.16l3.2-4.793q1.829-2.512 4.8-2.968zM39.316 87.695q-.685-6.623.457-11.418h18.512L59.656 98.2H41.602zm20.797 15.989q2.058 13.242 9.828 25.347c-11.73-4.11-20.566-12.562-26.511-25.347z"/></svg>