<svg xmlns="http://www.w3.org/2000/svg" xml:space="preserve" width="229.041" height="226.716" viewBox="0 0 60.601 59.985"><path d="M1.985 7.619q0-2.563 1.803-4.365 1.708-1.708 4.27-1.708 2.466 0 4.268 1.708l6.736 6.736q1.708-1.138 3.891-.854 2.277.095 3.795 1.708l3.51 3.51q.949 1.044 1.138 3.037l-.284 3.32 4.744 4.65 3.7-.475q2.087.094 3.321 1.138l11.575 11.671q1.233 1.234 1.613 2.942h1.993q.853 0 1.328.57.569.473.569 1.233l-.57 1.328-1.327.568H55.97l-1.518 2.278-7.4 7.4-2.277 1.424v2.18q0 .854-.57 1.423l-1.233.475-1.423-.474-.475-1.423v-1.993q-1.708-.474-2.846-1.612l-11.67-11.671q-1.138-1.044-1.233-3.226l.284-3.7-4.649-4.554q-4.364.663-6.072-1.044l-3.51-3.51q-1.613-1.613-1.803-3.796-.19-2.087.95-3.985l-2.563-2.466-.095.474q-.19 1.043.759 2.182l1.139.854-1.328 1.234-5.599-5.598 2.847-1.423-1.897-1.897q-1.803-1.803-1.803-4.27m2.087 0q0 1.613 1.139 2.752l1.708 1.613 5.597-5.598-1.708-1.613Q9.67 3.634 8.058 3.634q-1.709 0-2.847 1.138Q4.07 6.006 4.07 7.62"/></svg>