<svg xmlns="http://www.w3.org/2000/svg" xml:space="preserve" width="256.181" height="256.181" viewBox="0 0 67.781 67.781"><path d="M60.681 0q2.996 0 5.103 2.108 1.997 1.997 1.997 4.992 0 2.884-1.997 4.992l-7.876 7.876q1.331 1.997.999 4.549-.111 2.662-1.997 4.437l-4.105 4.105q-1.22 1.109-3.55 1.33l-3.883-.332-5.435 5.547.554 4.326q-.11 2.44-1.33 3.883L25.514 61.347q-1.442 1.442-3.439 1.886v2.33q0 .998-.666 1.553-.554.665-1.442.665l-1.553-.665-.665-1.553v-2.441l-2.663-1.775-8.653-8.653-1.664-2.662H2.22q-.999 0-1.664-.666L0 47.924l.555-1.664 1.664-.555h2.33q.554-1.997 1.885-3.328L20.08 28.732q1.22-1.331 3.772-1.442l4.326.333 5.325-5.436q-.776-5.103 1.22-7.1l4.105-4.104q1.886-1.886 4.438-2.108 2.44-.222 4.659 1.11l2.884-2.996-.554-.111q-1.22-.222-2.552.887l-.998 1.332-1.443-1.553L51.807.998l1.664 3.328 2.218-2.218Q57.797 0 60.681 0m0 2.44q-1.885 0-3.217 1.332l-1.886 1.997 6.546 6.545 1.886-1.997q1.33-1.331 1.33-3.217 0-1.997-1.33-3.328Q62.567 2.44 60.68 2.44"/></svg>