<?xml version="1.0" encoding="UTF-8"?>
<svg id="Layer_1" data-name="Layer 1" xmlns="http://www.w3.org/2000/svg" viewBox="0 0 609 145.4">
  <defs>
    <style>
      .cls-1, .cls-2 {
        stroke-width: 0px;
      }

      .cls-2 {
        fill: #fff;
      }
    </style>
  </defs>
  <g id="_8Km2Qw.tif" data-name="8Km2Qw.tif">
    <g>
      <path class="cls-2" d="m609,145.4H0V0h609v145.4Zm-31.11-134.56c-4.38,1.88-9.36,2.44-10.6,4.88-2.39,4.73-5.77,3.93-9.34,3.89-52.54-.53-105.08-1.11-157.62-1.63-16.13-.16-32.29.49-48.37-.42-15.81-.9-31.52,1.68-47.6-2.22-12.03-2.92-25.47-.11-38.28.26-3.7.11-7.38.83-11.08.88-3.29.05-6.6-.71-9.89-.64-6.22.13-12.46.33-18.64.98-11.04,1.16-17.5,6.45-16.87,15.05-9.99,4.91-19.95,8.88-28.92,14.44-9.81,6.08-19.14,5.7-29.55,2.36-6.36-2.04-13.44-3.49-20.02-2.98-41.4,3.21-82.74,7.11-124.11,10.6-4.28.36-4.49,2.36-3.57,5.49,7.13,24.25,10.66,48.99,10.16,74.27-.04,2.01,0,4.03,0,6.76,3.74-1.11,6.8-1.8,9.69-2.9,28.91-11.03,57.86-21.98,86.65-33.34,5.85-2.31,11.3-4.65,17.29-1.97,4.14-6.45,9.57-9.88,16.68-9.84,4.69.03,9.52.33,14.01,1.51,5.73,1.51,10.31-.27,14.73-3.31,2.59-1.78,4.91-3.95,7.46-5.79,7.47-5.38,14.99-10.71,22.52-16,.78-.55,1.8-.76,3.11-1.3.13,1.67.27,2.83.3,4,.31,11.48,3.59,14.71,15.32,14.87,8.06.11,16.13.23,24.19.15,3.48-.04,7.04-.19,10.4-.98,5.78-1.37,8.01-4.59,8.09-10.56.04-3.09,0-6.17,0-9.44,5.4-.31,10.15-.58,14.85-.84,1.61.6,3.39,1.66,5.27,1.88,2.94.35,5.97-.04,8.92.25,1.39.14,3.33.78,3.92,1.82,1.99,3.52,4.22,7.17,5.02,11.04,1.52,7.31,2.55,14.79,2.92,22.25.21,4.23.68,7.09,5.53,6.88.12,2.4.22,4.43.32,6.65h64.19v-38.78c4.91-4.03,14.26,3.31,13.9-7.88,1.3-.06,2.34-.15,3.37-.15,21.21.1,42.42.21,63.63.33,11.04.07,22.09.28,33.13.19,2.86-.02,5.68.37,6.76-4.42.58-2.57,3.73-6.97,8.85-6.79,8.93.3,17.88.14,26.82.14,11.01.01,22.03,0,31.61,0,2.13,3.13,3.13,6.44,5.08,7.15,11.19,4.06,26.65-6.96,26.92-18.79.07-2.88,0-5.77,0-8.39,4.34-1.37,10.25,1.43,9.66-5.85-.29-3.61.76-8.04-1-10.61-1.38-2.02-6.13-1.77-9.39-2.53-.32-1.85-.63-3.7-.99-5.79-6.34.63-5.73-3.57-5.5-7.49.16-2.66.05-4.99-3.67-4.79-3.05.17-6.23-.11-6.06,4.42.05,1.37-.22,2.74-.24,3.04Z"/>
      <path class="cls-1" d="m577.89,10.84c.03-.29.3-1.67.24-3.04-.17-4.54,3.01-4.26,6.06-4.42,3.71-.2,3.82,2.13,3.67,4.79-.23,3.92-.83,8.13,5.5,7.49.36,2.09.67,3.94,1,5.79,3.26.76,8.01.51,9.39,2.53,1.75,2.57.7,7,1,10.61.59,7.28-5.32,4.47-9.66,5.85,0,2.62.06,5.51,0,8.39-.27,11.83-15.73,22.85-26.92,18.79-1.95-.71-2.95-4.02-5.08-7.15-9.59,0-20.6,0-31.61,0-8.94,0-17.89.15-26.82-.14-5.12-.17-8.27,4.22-8.85,6.79-1.09,4.79-3.9,4.39-6.76,4.42-11.04.09-22.09-.12-33.13-.19-21.21-.13-42.42-.23-63.63-.33-1.03,0-2.07.09-3.37.15.36,11.19-8.99,3.86-13.9,7.88v38.78h-64.19c-.11-2.22-.21-4.25-.32-6.65-4.85.21-5.32-2.65-5.53-6.88-.37-7.45-1.4-14.93-2.92-22.25-.8-3.87-3.03-7.52-5.02-11.04-.59-1.04-2.53-1.68-3.92-1.82-2.95-.29-5.98.1-8.92-.25-1.88-.22-3.66-1.28-5.27-1.88-4.69.27-9.44.54-14.85.84,0,3.27.03,6.36,0,9.44-.08,5.97-2.32,9.19-8.09,10.56-3.36.8-6.92.95-10.4.98-8.06.08-16.13-.03-24.19-.15-11.73-.16-15.01-3.39-15.32-14.87-.03-1.17-.17-2.33-.3-4-1.31.53-2.33.75-3.11,1.3-7.53,5.3-15.05,10.62-22.52,16-2.55,1.84-4.87,4.01-7.46,5.79-4.42,3.05-9,4.82-14.73,3.31-4.5-1.18-9.33-1.48-14.01-1.51-7.11-.05-12.55,3.38-16.68,9.84-5.99-2.67-11.44-.34-17.29,1.97-28.78,11.36-57.73,22.31-86.65,33.34-2.9,1.1-5.95,1.79-9.69,2.9,0-2.73-.03-4.74,0-6.76.5-25.29-3.03-50.02-10.16-74.27-.92-3.13-.71-5.13,3.57-5.49,41.37-3.49,82.72-7.39,124.11-10.6,6.58-.51,13.66.94,20.02,2.98,10.41,3.34,19.74,3.73,29.55-2.36,8.97-5.56,18.92-9.54,28.92-14.44-.63-8.61,5.84-13.89,16.87-15.05,6.18-.65,12.42-.85,18.64-.98,3.29-.07,6.6.68,9.89.64,3.7-.05,7.38-.77,11.08-.88,12.81-.37,26.25-3.18,38.28-.26,16.09,3.91,31.79,1.32,47.6,2.22,16.08.92,32.24.26,48.37.42,52.54.52,105.08,1.11,157.62,1.63,3.57.04,6.95.84,9.34-3.89,1.23-2.44,6.22-3,10.6-4.88Zm-356.16,56.32c-11.47-1.31-12.71-.34-12.5,10.13.09,4.55,3.37,8.55,8,8.68,11.72.33,23.47.66,35.17.1,2.97-.14,7.36-3.04,8.31-5.66,1.42-3.93.37-8.75.37-13.56-10.65,0-20.62-.14-30.58.15-1.45.04-3.88,2.03-4.06,3.35-.4,3,.22,6.16.62,9.23.2,1.53.83,3,1.26,4.5l-2.25.6c-1.4-5.66-2.8-11.32-4.34-17.54Zm274.13-24.7c-.05.39-.1.79-.15,1.18,2.37,1.15,4.73,3.28,7.1,3.28,19.41.02,38.83-.32,58.24-.68,1.26-.02,2.5-1.14,3.74-1.74-1.34-.65-2.67-1.84-4.01-1.86-14.7-.17-29.4-.15-44.1-.18-6.95-.01-13.89,0-20.84,0Z"/>
      <path class="cls-2" d="m221.73,67.16c1.54,6.22,2.94,11.88,4.34,17.54l2.25-.6c-.43-1.5-1.06-2.97-1.26-4.5-.4-3.07-1.02-6.23-.62-9.23.18-1.32,2.6-3.31,4.06-3.35,9.96-.3,19.93-.15,30.58-.15,0,4.81,1.05,9.62-.37,13.56-.95,2.63-5.33,5.52-8.31,5.66-11.7.56-23.45.23-35.17-.1-4.63-.13-7.91-4.13-8-8.68-.21-10.47,1.03-11.45,12.5-10.13Z"/>
      <path class="cls-2" d="m495.86,42.46c6.95,0,13.89,0,20.84,0,14.7.02,29.4.01,44.1.18,1.34.02,2.67,1.21,4.01,1.86-1.25.61-2.48,1.72-3.74,1.74-19.41.36-38.83.7-58.24.68-2.37,0-4.74-2.13-7.1-3.28.05-.39.1-.79.15-1.18Z"/>
    </g>
  </g>
</svg>