<svg id="Layer_1" data-name="Layer 1" xmlns="http://www.w3.org/2000/svg" viewBox="0 0 609 145.4">
  <g id="_8Km2Qw.tif" data-name="8Km2Qw.tif">
    <g>
      <path class="cls-1" d="m577.89,10.84c.03-.29.3-1.67.24-3.04-.17-4.54,3.01-4.26,6.06-4.42,3.71-.2,3.82,2.13,3.67,4.79-.23,3.92-.83,8.13,5.5,7.49.36,2.09.67,3.94,1,5.79,3.26.76,8.01.51,9.39,2.53,1.75,2.57.7,7,1,10.61.59,7.28-5.32,4.47-9.66,5.85,0,2.62.06,5.51,0,8.39-.27,11.83-15.73,22.85-26.92,18.79-1.95-.71-2.95-4.02-5.08-7.15-9.59,0-20.6,0-31.61,0-8.94,0-17.89.15-26.82-.14-5.12-.17-8.27,4.22-8.85,6.79-1.09,4.79-3.9,4.39-6.76,4.42-11.04.09-22.09-.12-33.13-.19-21.21-.13-42.42-.23-63.63-.33-1.03,0-2.07.09-3.37.15.36,11.19-8.99,3.86-13.9,7.88v38.78h-64.19c-.11-2.22-.21-4.25-.32-6.65-4.85.21-5.32-2.65-5.53-6.88-.37-7.45-1.4-14.93-2.92-22.25-.8-3.87-3.03-7.52-5.02-11.04-.59-1.04-2.53-1.68-3.92-1.82-2.95-.29-5.98.1-8.92-.25-1.88-.22-3.66-1.28-5.27-1.88-4.69.27-9.44.54-14.85.84,0,3.27.03,6.36,0,9.44-.08,5.97-2.32,9.19-8.09,10.56-3.36.8-6.92.95-10.4.98-8.06.08-16.13-.03-24.19-.15-11.73-.16-15.01-3.39-15.32-14.87-.03-1.17-.17-2.33-.3-4-1.31.53-2.33.75-3.11,1.3-7.53,5.3-15.05,10.62-22.52,16-2.55,1.84-4.87,4.01-7.46,5.79-4.42,3.05-9,4.82-14.73,3.31-4.5-1.18-9.33-1.48-14.01-1.51-7.11-.05-12.55,3.38-16.68,9.84-5.99-2.67-11.44-.34-17.29,1.97-28.78,11.36-57.73,22.31-86.65,33.34-2.9,1.1-5.95,1.79-9.69,2.9,0-2.73-.03-4.74,0-6.76.5-25.29-3.03-50.02-10.16-74.27-.92-3.13-.71-5.13,3.57-5.49,41.37-3.49,82.72-7.39,124.11-10.6,6.58-.51,13.66.94,20.02,2.98,10.41,3.34,19.74,3.73,29.55-2.36,8.97-5.56,18.92-9.54,28.92-14.44-.63-8.61,5.84-13.89,16.87-15.05,6.18-.65,12.42-.85,18.64-.98,3.29-.07,6.6.68,9.89.64,3.7-.05,7.38-.77,11.08-.88,12.81-.37,26.25-3.18,38.28-.26,16.09,3.91,31.79,1.32,47.6,2.22,16.08.92,32.24.26,48.37.42,52.54.52,105.08,1.11,157.62,1.63,3.57.04,6.95.84,9.34-3.89,1.23-2.44,6.22-3,10.6-4.88Zm-356.16,56.32c-11.47-1.31-12.71-.34-12.5,10.13.09,4.55,3.37,8.55,8,8.68,11.72.33,23.47.66,35.17.1,2.97-.14,7.36-3.04,8.31-5.66,1.42-3.93.37-8.75.37-13.56-10.65,0-20.62-.14-30.58.15-1.45.04-3.88,2.03-4.06,3.35-.4,3,.22,6.16.62,9.23.2,1.53.83,3,1.26,4.5l-2.25.6c-1.4-5.66-2.8-11.32-4.34-17.54Zm274.13-24.7c-.05.39-.1.79-.15,1.18,2.37,1.15,4.73,3.28,7.1,3.28,19.41.02,38.83-.32,58.24-.68,1.26-.02,2.5-1.14,3.74-1.74-1.34-.65-2.67-1.84-4.01-1.86-14.7-.17-29.4-.15-44.1-.18-6.95-.01-13.89,0-20.84,0Z"/>
    </g>
  </g>
</svg>