<svg id="Layer_1" data-name="Layer 1" xmlns="http://www.w3.org/2000/svg" viewBox="0 0 604.23 110.65">
  
  <g id="B4thds.tif">
    <g>
      
      <path class="cls-1" d="m232.41,62.01c-16.76-5.02-37.22,5.44-42.28,22.35-1.54,5.16-2.68,10.44-4.11,15.64-1.87,6.79-5.41,9.35-12.17,7.56-7.2-1.91-14.13-4.82-21.18-7.27-10.81-3.75-21.38-8.79-32.5-10.82-9.2-1.67-19.26-.89-28.58.76-22.91,4.07-45.64,9.21-68.4,14.09-4.42.95-8.69,2.59-12.99,4.01-3.13,1.03-5.49-.39-5.57-4.1-.45-18.89-1.02-37.78-.94-56.66.04-9.66,1.23-19.32,2.1-28.96.44-4.87,1.6-5.25,6.1-3.34,1.68.71,3.7.89,5.56.9,31.36.07,62.72.19,94.08-.03,5.62-.04,10.28,1.1,14.39,4.91,21.95,20.35,47.25,20.39,73.68,11.34,8.98-3.07,17.43-7.66,26.23-11.3,2.06-.86,4.56-.65,6.84-1.02,10.77-1.75,21.54-3.53,33.61-5.51-6.22,0-11.18.18-16.11-.11-1.57-.09-4.45-1.86-4.37-2.12.76-2.39,1.63-5.02,3.35-6.69.77-.75,4.85.04,5.2.97,2.32,6.1,6.99,4.84,11.43,4.04,5.23-.93,10.34-2.58,15.59-3.27,5.48-.72,11.06-.97,16.6-.93,48.49.39,96.98.86,145.46,1.35,44.32.45,88.65.97,132.97,1.46,1.9.02,3.8,0,5.04-1,1.44-1.52,2.88-3.04,4.32-4.55,1.44,1.43,2.89,2.87,4.33,4.3-.24.47-.48.95-.73,1.42,2.52,0,5.06.17,7.57-.04,3.87-.33,5.19,1.88,5.27,5.09.14,5.7.04,11.41.04,18.08h-113.32c-.37,3.22-.5,5.53-.91,7.8-1.57,8.63-6.92,13.48-16.56,14.21-18.02,1.37-36.05,3.2-54.09,3.4-30.54.34-61.09-.69-91.63-.67-17.57,0-35.15.93-52.72,1.46-.45.01-.89.27-1.29.4-.06.23-.16.39-.12.51,4,13.76-1.24,20.8-16.07,21.22-3.47.1-7.02-.24-10.41-.96-4.55-.97-7.4-4.07-8.95-8.45-1.15-3.27-2.59-6.43-3.9-9.64,1.65,2.55,4.01,4.9,4.8,7.69,1.67,5.91,5.58,9.08,11.21,9.33,5.34.23,10.87-.37,16.07-1.6,5.3-1.26,8.61-7.24,7.45-12.29-.65-2.85-1.39-6.14-5.49-6.1-4.8.05-9.62-.06-14.4.31-5.58.44-8.34,4.09-7.75,9.71.14,1.37.49,2.72.74,4.08-.47.1-.95.2-1.42.3-.9-4.54-1.8-9.08-2.89-14.59-2.94,1.2-5.55,2.26-8.16,3.33Z"/>
      
    </g>
  </g>
</svg>