<svg id="Layer_1" data-name="Layer 1" xmlns="http://www.w3.org/2000/svg" viewBox="0 0 593.5 145.35">
  
  <g id="SYhh1z.tif">
    <g>
      
      <path class="cls-1" d="m298.43,17.13c1.58-5.03,8.11-9.47,13.43-9.54,3.22-.04,6.2.17,8.91-2.63,2.26-2.34,13.65-.6,16.52,1.38,1.35.93,3.4,1.16,5.15,1.18,7.23.1,12.41,3.64,16.53,9.22,1.62,2.19,3.5,2.32,4.81-.16,1.14-2.16,1.79-4.57,2.79-7.24,3.86-2.64,8.26-2.61,12.86.51-1.4,5.18,2.02,5.3,5.95,5.24,7.59-.12,15.19.02,22.79-.02,3.68-.02,6.63.88,10.01,2.96,3.11,1.91,8.19.86,12.38.71,4.16-.15,8.3-1.07,12.47-1.18,6.61-.17,13.24.04,19.86.11,1.5.02,3.02.03,4.51.22,1.34.16,2.65.8,3.98.81,8.17.08,16.34.2,24.51-.02,6.38-.17,12.74-1.12,19.12-1.17,4.7-.04,9.39,1.05,14.1,1.17,2.83.08,5.68-.82,8.54-1.09,1.35-.13,2.75.09,4.1.29,1.49.22,2.96.85,4.44.86,7.39.09,14.79.04,22.19.03,5.06,0,9.35-4.28,9.53-9.39.08-2.24.31-4.47.46-6.71.51,0,1.03.01,1.54.02.17,1.08.57,2.18.48,3.24-.53,5.75,1.77,9.42,7.2,11.8,1.5.66,2.62,3.82,2.67,5.86.27,10.32.25,20.65.05,30.97-.04,2.16-1.23,4.3-2.23,7.58-5.39-.97-10.65-2.61-15.92-2.67-5.79-.07-11.85-2.08-17.51,1.4-1.15.7-3.23-.14-4.88-.21-2.49-.11-4.98-.14-7.46-.23-1.96-.07-3.91-.24-5.86-.28-6.03-.09-12.06-.15-18.08-.2-2.16-.02-4.33.06-6.49.03-2.04-.03-4.42-.84-6.03-.05-2.57,1.27-4.29.59-6.89.12-5.73-1.03-11.8-.16-17.73-.05-2.05.04-4.1.14-6.15.15-2.29.01-4.59-.03-6.88-.08-2.02-.04-4.04-.07-6.05-.2-2.88-.18-5.79-.81-8.63-.6-5.97.43-11.91,1.8-17.86,1.8-4.41,0-8.8-2.02-13.24-2.22-2.11-.1-4.76,1.51-6.38,3.12-1.7,1.69-1.83,3.87.97,5.7,1.57,1.03,2.9,3.45,3.07,5.36.42,4.9.06,9.86.16,14.8.07,3.34.15,6.38-3.83,7.99-.95.38-1.27,2.84-1.46,4.39-.38,3.07-.68,5.66-2.64,8.69-2.56,3.96-6.32,4.43-9.32,4.88-6.53.99-13.39.98-19.7-1.88-.87-.39-1.64-1.69-1.83-2.69-.32-1.64-.07-3.38-.19-5.07-1-13.6-2.02-27.2-3.04-40.81-6.61.47-7.57,1.39-7.86,7.77-.03.62-.12,1.24-.05,1.85.58,4.6-.42,7.77-4.71,6.81-1.1,2.8-1.75,5.13-2.97,7.11-.36.59-2.33.2-3.5.26-1.4.99-2.97,3-4.76,3.22-5.2.64-10.48.75-15.74.75-19.53.02-39.06-.07-58.59-.18-1.99-.01-4.1-.1-5.93-.76-1.58-.57-2.84-2.01-4.61-3.34-.53,0-2.79.59-3.33-.12-1.29-1.7-1.76-4-2.56-6.06.4-.6.81-1.2,1.21-1.81-12.38-.54-24.76-1.09-37.14-1.58-.87-.03-2.13.05-2.56.59-3.6,4.46-8.68,6.24-13.79,8.15-1.05.39-1.88,2.26-2.17,3.59-1.76,7.84-3.59,15.57-8.84,22.09-3.7,4.6-8.23,7.04-14.09,7.95-20.94,3.29-41.82,6.99-62.76,10.26-4.99.78-10.2,1.05-15.19.53-3.16-.33-6.16-2.49-9.17-3.94-10.8-5.22-21.5-4.87-32.8-1-16.81,5.75-33.94,10.54-50.94,15.74-1.18.36-2.35.83-3.57,1.02-9.42,1.5-10.24.7-10.21-8.72.07-17.74.02-35.48.01-53.22,0-2.6,0-5.21,0-8.58,3.9,0,7.24-.08,10.58.01,24.78.73,49.57,1.29,74.34,2.42,5.24.24,10.61,2.08,15.51,4.15,7.12,3,14.21,3.1,21.3,1,12.11-3.59,24.09-7.64,36.5-11.62-6.3-8-4.36-16.47-3.42-24.49.28-2.41,4-4.81,6.62-6.45,2.94-1.83,6.41-2.82,9.68-4.12,1.27-.5,2.82-.55,3.88-1.31,5.22-3.72,6.2-3.68,10.52,1.62.86-2.03,1.79-3.7,2.27-5.48,1.5-5.49,4.88-9.05,10.37-10.69,4.12-1.23,8.22-2.56,12.32-3.87.56-.18,1.41-.4,1.56-.81,1.94-5.31,5.95-3.24,9.58-2.83,1.63.18,3.35,0,4.99-.27,1.94-.31,3.81-1.19,5.74-1.29,3.08-.17,5.9,0,8.44-2.65,2.2-2.29,13.91-.66,16.52,1.23,1.32.96,3.35,1.23,5.07,1.3,6.35.24,11.6,2.08,14.58,8.28.39.82,2.31,1.24,3.54,1.27,5.4.13,10.8.06,16.36.06Zm-128.05,78.88c-11.95,4.44-23.83,8.8-35.64,13.32-1.48.57-3.03,1.72-3.89,3.03-4.06,6.2-7.95,12.5-14.86,16.26,2.23.14,4.24.05,6.2-.27,20.15-3.28,40.31-6.5,60.43-10,4.33-.75,9.4-1.49,12.54-4.11,9.09-7.59,11.42-18.44,12.48-30.67-11,3.74-21.25,7.13-31.4,10.81-1.03.37-2.09,2.52-2,3.76.31,3.98,1.15,7.92,1.86,12.34-5.75-3.36-3.24-9.41-5.74-14.46Z"/>
      
    </g>
  </g>
</svg>