<?xml version="1.0" encoding="UTF-8"?>
<svg id="Layer_1" data-name="Layer 1" xmlns="http://www.w3.org/2000/svg" viewBox="0 0 593.5 145.35">
  <defs>
    <style>
      .cls-1, .cls-2 {
        stroke-width: 0px;
      }

      .cls-2 {
        fill: #fff;
      }
    </style>
  </defs>
  <g id="SYhh1z.tif">
    <g>
      <path class="cls-2" d="m593.5,145.35c-197.83,0-395.67,0-593.5,0C0,96.9,0,48.45,0,0c197.83,0,395.67,0,593.5,0,0,48.45,0,96.9,0,145.35ZM298.43,17.13c-5.56,0-10.96.08-16.36-.06-1.23-.03-3.14-.46-3.54-1.27-2.98-6.2-8.22-8.05-14.58-8.28-1.73-.06-3.75-.34-5.07-1.3-2.61-1.89-14.32-3.52-16.52-1.23-2.55,2.65-5.36,2.48-8.44,2.65-1.93.1-3.81.98-5.74,1.29-1.64.27-3.35.45-4.99.27-3.64-.41-7.64-2.48-9.58,2.83-.15.41-1,.63-1.56.81-4.1,1.31-8.2,2.64-12.32,3.87-5.49,1.64-8.86,5.2-10.37,10.69-.49,1.79-1.42,3.46-2.27,5.48-4.32-5.3-5.3-5.34-10.52-1.62-1.06.76-2.61.8-3.88,1.31-3.27,1.3-6.74,2.29-9.68,4.12-2.63,1.64-6.34,4.04-6.62,6.45-.94,8.02-2.88,16.5,3.42,24.49-12.41,3.98-24.39,8.03-36.5,11.62-7.09,2.1-14.18,2-21.3-1-4.9-2.07-10.27-3.91-15.51-4.15-24.76-1.13-49.55-1.69-74.34-2.42-3.34-.1-6.68-.01-10.58-.01,0,3.37,0,5.98,0,8.58,0,17.74.06,35.48-.01,53.22-.04,9.41.78,10.21,10.21,8.72,1.21-.19,2.38-.66,3.57-1.02,17-5.2,34.13-9.99,50.94-15.74,11.31-3.87,22.01-4.23,32.8,1,3.01,1.46,6.01,3.61,9.17,3.94,5,.52,10.21.25,15.19-.53,20.94-3.27,41.82-6.97,62.76-10.26,5.86-.92,10.38-3.36,14.09-7.95,5.25-6.52,7.08-14.24,8.84-22.09.3-1.33,1.13-3.2,2.17-3.59,5.11-1.91,10.19-3.69,13.79-8.15.44-.54,1.7-.63,2.56-.59,12.38.49,24.76,1.05,37.14,1.58-.4.6-.81,1.2-1.21,1.81.8,2.06,1.28,4.37,2.56,6.06.54.71,2.8.12,3.33.12,1.77,1.33,3.03,2.77,4.61,3.34,1.83.66,3.94.75,5.93.76,19.53.11,39.06.19,58.59.18,5.25,0,10.54-.11,15.74-.75,1.79-.22,3.37-2.22,4.76-3.22,1.17-.06,3.14.33,3.5-.26,1.22-1.98,1.86-4.31,2.97-7.11,4.29.96,5.29-2.21,4.71-6.81-.08-.6.02-1.23.05-1.85.29-6.38,1.25-7.29,7.86-7.77,1.02,13.61,2.05,27.21,3.04,40.81.12,1.69-.14,3.43.19,5.07.2,1,.97,2.3,1.83,2.69,6.31,2.86,13.18,2.86,19.7,1.88,3-.45,6.76-.92,9.32-4.88,1.96-3.03,2.26-5.62,2.64-8.69.19-1.55.52-4.01,1.46-4.39,3.98-1.61,3.89-4.65,3.83-7.99-.1-4.93.26-9.9-.16-14.8-.16-1.9-1.5-4.33-3.07-5.36-2.8-1.84-2.67-4.01-.97-5.7,1.62-1.61,4.26-3.22,6.38-3.12,4.44.2,8.83,2.22,13.24,2.22,5.95,0,11.89-1.36,17.86-1.8,2.85-.21,5.75.42,8.63.6,2.01.13,4.04.16,6.05.2,2.29.05,4.59.09,6.88.08,2.05-.01,4.1-.12,6.15-.15,5.93-.11,12.01-.98,17.73.05,2.6.47,4.32,1.15,6.89-.12,1.6-.79,3.99.02,6.03.05,2.16.03,4.33-.05,6.49-.03,6.03.05,12.06.11,18.08.2,1.96.03,3.91.2,5.86.28,2.49.09,4.98.13,7.46.23,1.65.07,3.74.92,4.88.21,5.66-3.48,11.73-1.47,17.51-1.4,5.27.07,10.52,1.7,15.92,2.67,1-3.27,2.19-5.41,2.23-7.58.19-10.32.22-20.65-.05-30.97-.05-2.04-1.17-5.2-2.67-5.86-5.44-2.37-7.73-6.05-7.2-11.8.1-1.06-.3-2.16-.48-3.24-.51,0-1.03-.01-1.54-.02-.16,2.24-.39,4.47-.46,6.71-.17,5.11-4.47,9.39-9.53,9.39-7.4,0-14.79.06-22.19-.03-1.48-.02-2.95-.64-4.44-.86-1.36-.2-2.75-.42-4.1-.29-2.86.28-5.71,1.17-8.54,1.09-4.71-.13-9.41-1.21-14.1-1.17-6.38.05-12.74.99-19.12,1.17-8.16.22-16.34.1-24.51.02-1.33-.01-2.64-.65-3.98-.81-1.49-.18-3-.2-4.51-.22-6.62-.07-13.24-.28-19.86-.11-4.16.11-8.3,1.03-12.47,1.18-4.2.15-9.28,1.2-12.38-.71-3.39-2.08-6.34-2.98-10.01-2.96-7.6.04-15.19-.09-22.79.02-3.93.06-7.35-.06-5.95-5.24-4.6-3.12-9-3.15-12.86-.51-1,2.67-1.65,5.08-2.79,7.24-1.31,2.49-3.2,2.35-4.81.16-4.11-5.58-9.29-9.12-16.53-9.22-1.74-.02-3.79-.25-5.15-1.18-2.86-1.98-14.26-3.72-16.52-1.38-2.7,2.8-5.68,2.59-8.91,2.63-5.31.07-11.85,4.52-13.43,9.54Z"/>
      <path class="cls-1" d="m298.43,17.13c1.58-5.03,8.11-9.47,13.43-9.54,3.22-.04,6.2.17,8.91-2.63,2.26-2.34,13.65-.6,16.52,1.38,1.35.93,3.4,1.16,5.15,1.18,7.23.1,12.41,3.64,16.53,9.22,1.62,2.19,3.5,2.32,4.81-.16,1.14-2.16,1.79-4.57,2.79-7.24,3.86-2.64,8.26-2.61,12.86.51-1.4,5.18,2.02,5.3,5.95,5.24,7.59-.12,15.19.02,22.79-.02,3.68-.02,6.63.88,10.01,2.96,3.11,1.91,8.19.86,12.38.71,4.16-.15,8.3-1.07,12.47-1.18,6.61-.17,13.24.04,19.86.11,1.5.02,3.02.03,4.51.22,1.34.16,2.65.8,3.98.81,8.17.08,16.34.2,24.51-.02,6.38-.17,12.74-1.12,19.12-1.17,4.7-.04,9.39,1.05,14.1,1.17,2.83.08,5.68-.82,8.54-1.09,1.35-.13,2.75.09,4.1.29,1.49.22,2.96.85,4.44.86,7.39.09,14.79.04,22.19.03,5.06,0,9.35-4.28,9.53-9.39.08-2.24.31-4.47.46-6.71.51,0,1.03.01,1.54.02.17,1.08.57,2.18.48,3.24-.53,5.75,1.77,9.42,7.2,11.8,1.5.66,2.62,3.82,2.67,5.86.27,10.32.25,20.65.05,30.97-.04,2.16-1.23,4.3-2.23,7.58-5.39-.97-10.65-2.61-15.92-2.67-5.79-.07-11.85-2.08-17.51,1.4-1.15.7-3.23-.14-4.88-.21-2.49-.11-4.98-.14-7.46-.23-1.96-.07-3.91-.24-5.86-.28-6.03-.09-12.06-.15-18.08-.2-2.16-.02-4.33.06-6.49.03-2.04-.03-4.42-.84-6.03-.05-2.57,1.27-4.29.59-6.89.12-5.73-1.03-11.8-.16-17.73-.05-2.05.04-4.1.14-6.15.15-2.29.01-4.59-.03-6.88-.08-2.02-.04-4.04-.07-6.05-.2-2.88-.18-5.79-.81-8.63-.6-5.97.43-11.91,1.8-17.86,1.8-4.41,0-8.8-2.02-13.24-2.22-2.11-.1-4.76,1.51-6.38,3.12-1.7,1.69-1.83,3.87.97,5.7,1.57,1.03,2.9,3.45,3.07,5.36.42,4.9.06,9.86.16,14.8.07,3.34.15,6.38-3.83,7.99-.95.38-1.27,2.84-1.46,4.39-.38,3.07-.68,5.66-2.64,8.69-2.56,3.96-6.32,4.43-9.32,4.88-6.53.99-13.39.98-19.7-1.88-.87-.39-1.64-1.69-1.83-2.69-.32-1.64-.07-3.38-.19-5.07-1-13.6-2.02-27.2-3.04-40.81-6.61.47-7.57,1.39-7.86,7.77-.03.62-.12,1.24-.05,1.85.58,4.6-.42,7.77-4.71,6.81-1.1,2.8-1.75,5.13-2.97,7.11-.36.59-2.33.2-3.5.26-1.4.99-2.97,3-4.76,3.22-5.2.64-10.48.75-15.74.75-19.53.02-39.06-.07-58.59-.18-1.99-.01-4.1-.1-5.93-.76-1.58-.57-2.84-2.01-4.61-3.34-.53,0-2.79.59-3.33-.12-1.29-1.7-1.76-4-2.56-6.06.4-.6.81-1.2,1.21-1.81-12.38-.54-24.76-1.09-37.14-1.58-.87-.03-2.13.05-2.56.59-3.6,4.46-8.68,6.24-13.79,8.15-1.05.39-1.88,2.26-2.17,3.59-1.76,7.84-3.59,15.57-8.84,22.09-3.7,4.6-8.23,7.04-14.09,7.95-20.94,3.29-41.82,6.99-62.76,10.26-4.99.78-10.2,1.05-15.19.53-3.16-.33-6.16-2.49-9.17-3.94-10.8-5.22-21.5-4.87-32.8-1-16.81,5.75-33.94,10.54-50.94,15.74-1.18.36-2.35.83-3.57,1.02-9.42,1.5-10.24.7-10.21-8.72.07-17.74.02-35.48.01-53.22,0-2.6,0-5.21,0-8.58,3.9,0,7.24-.08,10.58.01,24.78.73,49.57,1.29,74.34,2.42,5.24.24,10.61,2.08,15.51,4.15,7.12,3,14.21,3.1,21.3,1,12.11-3.59,24.09-7.64,36.5-11.62-6.3-8-4.36-16.47-3.42-24.49.28-2.41,4-4.81,6.62-6.45,2.94-1.83,6.41-2.82,9.68-4.12,1.27-.5,2.82-.55,3.88-1.31,5.22-3.72,6.2-3.68,10.52,1.62.86-2.03,1.79-3.7,2.27-5.48,1.5-5.49,4.88-9.05,10.37-10.69,4.12-1.23,8.22-2.56,12.32-3.87.56-.18,1.41-.4,1.56-.81,1.94-5.31,5.95-3.24,9.58-2.83,1.63.18,3.35,0,4.99-.27,1.94-.31,3.81-1.19,5.74-1.29,3.08-.17,5.9,0,8.44-2.65,2.2-2.29,13.91-.66,16.52,1.23,1.32.96,3.35,1.23,5.07,1.3,6.35.24,11.6,2.08,14.58,8.28.39.82,2.31,1.24,3.54,1.27,5.4.13,10.8.06,16.36.06Zm-128.05,78.88c-11.95,4.44-23.83,8.8-35.64,13.32-1.48.57-3.03,1.72-3.89,3.03-4.06,6.2-7.95,12.5-14.86,16.26,2.23.14,4.24.05,6.2-.27,20.15-3.28,40.31-6.5,60.43-10,4.33-.75,9.4-1.49,12.54-4.11,9.09-7.59,11.42-18.44,12.48-30.67-11,3.74-21.25,7.13-31.4,10.81-1.03.37-2.09,2.52-2,3.76.31,3.98,1.15,7.92,1.86,12.34-5.75-3.36-3.24-9.41-5.74-14.46Z"/>
      <path class="cls-2" d="m170.38,96c2.5,5.06,0,11.1,5.74,14.46-.71-4.42-1.55-8.36-1.86-12.34-.1-1.24.97-3.38,2-3.76,10.14-3.68,20.39-7.07,31.4-10.81-1.06,12.23-3.39,23.08-12.48,30.67-3.14,2.62-8.21,3.36-12.54,4.11-20.11,3.5-40.28,6.71-60.43,10-1.97.32-3.97.42-6.2.27,6.91-3.76,10.8-10.06,14.86-16.26.86-1.31,2.41-2.46,3.89-3.03,11.81-4.52,23.68-8.88,35.64-13.32Z"/>
    </g>
  </g>
</svg>