<?xml version="1.0" encoding="UTF-8"?>
<svg id="Layer_1" data-name="Layer 1" xmlns="http://www.w3.org/2000/svg" viewBox="0 0 601 267.46">
  <defs>
    <style>
      .cls-1, .cls-2 {
        stroke-width: 0px;
      }

      .cls-2 {
        fill: #fff;
      }
    </style>
  </defs>
  <g id="lghwIx.tif">
    <g>
      <path class="cls-2" d="m601,267.46c-200.33,0-400.67,0-601,0C0,178.3,0,89.15,0,0c200.33,0,400.67,0,601,0,0,89.15,0,178.3,0,267.46ZM315.73,15.5c3.28-2.92,6.74-6,10.19-9.07-.35-.38-.69-.77-1.04-1.15-3.69,3.14-7.55,6.1-11,9.48-2.55,2.51-5.44,1.98-7.05.14-3.58-4.1-7.97-2.41-12-2.48-6.54-.1-4.85,5.56-5.79,9.98-.49-5.09-.91-9.46-1.34-13.83-.72.02-1.43.03-2.15.05v22.61c-9.8,0-18.53-.07-27.27.03-4.25.05-9.04-1.35-11.72,3.87-.32.62-1.85.67-2.85.88-4.2.87-8.42,1.63-12.59,2.6-1.42.33-2.76,1.11-4.07,1.8-1.78.94-3.81,3.1-5.16,2.71-1.54-.44-3-2.94-3.51-4.82-1.69-6.15-1.84-6.4-7.94-4.48-.71.22-1.49,1.21-1.96,1.05-5.86-2.01-6.66,1.66-6.68,6.8-2.18-1.47-3.88-2.52-5.47-3.7-7.64-5.67-7.81-5.68-15.29.45-1.46,1.2-2.94,2.37-4.34,3.63-3.4,3.05-6.46,3.42-10.35.25-2.63-2.14-6.36-4.66-9.5.07-.2.29-1.18.04-1.8.08-6.32.43-12.16-.68-17.42-4.56-1.28-.95-3.52-1.3-5.14-.98-8.07,1.56-16.06,3.56-24.13,5.18-9.39,1.88-18.84,3.48-28.25,5.28-7.89,1.51-15.76,3.13-23.48,4.68.79,2.31,1.61,3.43,1.4,4.3-1.21,5.04-3.25,9.95-3.89,15.04-1.13,8.89-.81,8.87-9.36,11.8-2.89.99-4.9,2.77-7.17,5.18-3.17,3.35-1.41,7.02-3.32,9.97-4.95-.3-9.79-.59-14.62-.88,1.06.83,2.12,1.66,3.18,2.49.55-2.53.69-5.23,1.72-7.55,4.41-9.98,8.28-20.3,16.18-28.31.45-.46.64-1.2.9-1.84,3.02-7.33,7.09-13.89,12.52-19.83,3.01-3.29,4.92-4.88,8.09-.88,4.64-6.28,4.49-12.04-.32-18.56.78-.65,1.67-1.22,2.32-1.99,4.28-5.02,3.36-12.62-1.97-14.03-6.62-1.75-13.39-3.06-20.18-3.92-1.79-.23-5.09,1.54-5.59,3.06-1.18,3.66-1.1,7.72-1.59,12.08-.24.09-2.05.23-2.53,1.1-3.02,5.53-5.97,11.13-8.51,16.89-1.96,4.45-3.19,9.22-4.94,13.77-1.83,4.75-3.88,9.42-5.86,14.12-.86,2.03-1.61,4.15-2.72,6.04-4.04,6.86-7.89,13.44-6.62,22.2,1.07,7.4.11,15.07.53,22.59.11,1.96,1.62,4.34,3.21,5.64,6.83,5.63,14.84,8.1,23.73,7.96,3.57-.06,6.24,1.21,7.23,5.23.3,1.22,2.31,2.25,3.75,2.9,3.11,1.41,6.46,2.32,9.5,3.86,1.31.66,2.53,2.21,3.02,3.62,1,2.87,1.69,5.89,2.13,8.91.5,3.4,2.19,4.81,5.61,5.45,19.52,3.68,39.1,7.15,58.44,11.66,9.67,2.25,18.15,3.09,26.37-3.83,2.39-2.01,6.76-2.8,9.73.37,3.08,3.29,9.93,2.31,11.56-1.87q5.56-.41,12.51,5.23,8.16,6.64,16.57.26c3.92-2.97,7.53-6.76,12.53-4.23,1.28,1.23,2.56,2.46,3.84,3.68,1.23-1.35,2.45-2.69,4.38-4.81,1.2.09,3.54.26,6.54.48-1.35,1.77-2.27,2.62-2.77,3.67-3.11,6.6-3.85,6.76-10.5,3.22-1-.53-2.97.32-4.3.94-1.22.57-2.12,1.78-3.26,2.55-4.51,3.03-8.96,5.77-10.77,11.63-5.21,16.84-1.21,33.96-2.88,50.92,2.9.44,5.04.76,7.29,1.1-1.35,2.41-2.54,4.54-4.54,8.12,10.91,0,20.49-.35,30.02.17,4.05.22,8.4,1.64,11.79,3.81,1.24.8.07,5.32.04,8.14,0,.73.13,1.47.35,3.72,3.85-5.39,6.86-9.59,10.57-14.78,1.84,5.84,3.33,10.6,4.83,15.36.44.04.87.08,1.31.12,1.01-5.37,2.02-10.74,2.88-15.34,27.17.35,54.08-3.49,81.11.92-.76,3.72-1.45,7.06-2.37,11.57,5.59-5.01,10.15-9.1,15.27-13.69.51,5.74.93,10.51,1.35,15.28.53.06,1.07.12,1.6.18,1.38-3.56,2.76-7.12,3.94-10.14,1.88-.68,3.42-1.19,4.92-1.79,2.68-1.07,5.31-3.1,8-3.15,18.2-.35,36.42.08,54.61-.54,6.77-.23,13.46-2.64,20.19-4.05-.08-.52-.15-1.04-.23-1.55-19.15-7.98-39.61-4.45-59.48-5.97-1.34-7.91,4.43-7.03,9.02-8.45-2.56-.93-5.13-1.86-7.91-2.87-3.47-7.53,3.73-7.73,9.18-10.23-3.33-1.19-5.31-1.9-8.06-2.89,1.2-1.57,2.48-3.25,3.94-5.17-1.71-4.82.37-8,6.14-8.17,5.84-.17,11.76.56,17.5-.21,6.55-.88,12.94-3,20.5-4.84-14.6-8.41-29.13-5.41-43-6.19-.29-3.15-.56-6.06-.95-10.23-2.2,2.43-3.23,3.57-4.66,5.15-.92-2.17-1.59-3.74-2.25-5.31-.26.05-.53.1-.79.15-.1,1.52-.2,3.04-.3,4.41h-5.91c.3-.4.61-.79.91-1.19-4.68-4.73-9.37-9.46-14.05-14.19.3-.32.6-.63.91-.95,1.47,1.16,2.93,2.32,4.13,3.26.38-.82.75-1.62.75-1.63,2.54,2.2,3.95,3.67,5.62,4.71.48.3,1.95-.42,2.59-1.05,1.49-1.46,2.76-3.15,4.93-5.7.77-2.05,2.07-5.51,3.37-8.98.39.06.79.11,1.18.17.43,2.9.87,5.8,1.38,9.22,5.07,0,10.02-.79,14.58.22,4.83,1.07,7.98,1.01,8.79-4.15,2.86-1.37,5.48.1,8.1-3.43,3.59-4.84,9.99-7.6,15.23-11.2.36-.24,1.01-.07,1.52-.07,33.15,0,66.31-.03,99.46.07,2.44,0,4.86,1.18,7.32,1.29,4.17.19,8.35-.06,12.53-.08,4.08-.03,8.16,0,12.56,0,.17,3.57,3.36,2.56,6.04,2.74,3.18.22,6.4.38,9.49,1.07,2.82.63,5.47,1.96,8.22,2.92,3.4,1.18,5.46.06,5.48-3.66.07-12.34.11-24.68,0-37.02-.03-3.8-2.35-5.16-5.92-4.16-2.14.6-4.2,1.48-6.28,2.28-3.94,1.51-7.68,3.24-12.27,2.04-1.65-.43-3.91,1.5-5.71,2.27-6.43,0-12.99-.18-19.54.06-4.68.17-9.34,1.29-14.01,1.31-31.78.11-63.56.03-95.34.01-6.89,0-11.07-4.23-11.09-11.17,0-2.4-.05-4.8,0-7.2.08-3.26,6.09-9.26,9.36-9.26,32.98-.02,65.97-.03,98.95.07,2.43,0,4.83,1.29,7.28,1.42,4.44.23,8.9.11,13.34,0,3.88-.1,7.75-.37,11.62-.57,2.13,1.75,4.54,2.59,7.01,2.96,2.5.38,5.13-.01,7.58.51,2.65.57,5.16,1.81,7.74,2.73,6.25,2.22,7.27,1.59,7.31-4.86.06-10.97.07-21.94,0-32.9-.04-6.71-1.78-7.69-8.14-5.53-5.5,1.86-10.63,5.33-17.08,3.54-1.38-.38-3.46,1.74-4.43,2.27-3.27.37-5.84.97-8.38.88-3.73-.13-7.47-1.18-11.17-1.04-5.57.2-11.1,1.56-16.66,1.59-28.17.18-56.35-.15-84.52.23-7.9.11-15.15-.46-20.76-6.42-2.38-2.53-5.77-3.2-8.21-6.26-2-2.52-7.55-2.85-9.88-6.84-.13-.23-.99-.09-1.5-.04-6.23.64-12.45,1.29-18.87,1.95-.38,2.77-.78,5.66-1.18,8.56-.71.01-1.42.03-2.13.04-.34-4.23-.67-8.46-1.01-12.69-.11-1.3.21-3.05-.5-3.77-.7-.72-2.5-.67-3.75-.48-4.26.64-8.48,1.49-13.53,2.41.17.95.48,2.68.79,4.4-9.8,3.29-19.04-.79-21.92-10.52-.88-2.97-1.04-5.9-4.66-6.24-2.75-.26-5.81-.5-8.27.44-3.1,1.19-5.69,3.66-8.59,5.44-1.87,1.14-3.9,2.03-6.12,3.16q-1.85-10.98,3.75-11.67c1.67-2.63,2.77-4.36,4.38-6.91-2.93,1.91-5.13,3.34-7.22,4.7-.76-1.6-1.44-3.02-2.19-4.57Z"/>
      <path class="cls-1" d="m315.73,15.5c.74,1.55,1.42,2.97,2.19,4.57,2.08-1.36,4.29-2.79,7.22-4.7-1.61,2.54-2.71,4.27-4.38,6.91q-5.6.69-3.75,11.67c2.22-1.13,4.25-2.02,6.12-3.16,2.9-1.77,5.49-4.25,8.59-5.44,2.46-.94,5.53-.7,8.27-.44,3.62.34,3.79,3.27,4.66,6.24,2.87,9.74,12.12,13.82,21.92,10.52-.31-1.72-.62-3.44-.79-4.4,5.05-.92,9.27-1.77,13.53-2.41,1.25-.19,3.05-.23,3.75.48.71.72.4,2.47.5,3.77.34,4.23.67,8.46,1.01,12.69.71-.01,1.42-.03,2.13-.04.4-2.9.8-5.79,1.18-8.56,6.42-.67,12.64-1.32,18.87-1.95.51-.05,1.36-.19,1.5.04,2.33,3.99,7.88,4.32,9.88,6.84,2.44,3.07,5.83,3.74,8.21,6.26,5.6,5.96,12.85,6.53,20.76,6.42,28.17-.39,56.34-.06,84.52-.23,5.56-.03,11.09-1.4,16.66-1.59,3.7-.13,7.44.92,11.17,1.04,2.54.09,5.11-.51,8.38-.88.96-.53,3.04-2.65,4.43-2.27,6.45,1.79,11.59-1.68,17.08-3.54,6.36-2.16,8.1-1.17,8.14,5.53.06,10.97.05,21.94,0,32.9-.04,6.45-1.05,7.09-7.31,4.86-2.58-.92-5.09-2.17-7.74-2.73-2.45-.52-5.08-.13-7.58-.51-2.47-.38-4.88-1.21-7.01-2.96-3.87.2-7.74.48-11.62.57-4.45.11-8.91.23-13.34,0-2.45-.13-4.85-1.41-7.28-1.42-32.98-.11-65.97-.09-98.95-.07-3.27,0-9.28,6-9.36,9.26-.06,2.4-.01,4.8,0,7.2.02,6.93,4.21,11.16,11.09,11.17,31.78.02,63.56.09,95.34-.01,4.67-.02,9.33-1.14,14.01-1.31,6.55-.24,13.11-.06,19.54-.06,1.8-.77,4.06-2.7,5.71-2.27,4.59,1.19,8.33-.53,12.27-2.04,2.08-.8,4.14-1.68,6.28-2.28,3.57-1,5.89.36,5.92,4.16.1,12.34.07,24.68,0,37.02-.02,3.71-2.08,4.83-5.48,3.66-2.75-.95-5.41-2.29-8.22-2.92-3.09-.69-6.31-.85-9.49-1.07-2.68-.18-5.87.83-6.04-2.74-4.4,0-8.48-.02-12.56,0-4.18.03-8.36.27-12.53.08-2.46-.11-4.88-1.29-7.32-1.29-33.15-.09-66.31-.07-99.46-.07-.51,0-1.17-.18-1.52.07-5.23,3.6-11.64,6.37-15.23,11.2-2.61,3.53-5.24,2.06-8.1,3.43-.81,5.15-3.96,5.22-8.79,4.15-4.56-1.01-9.51-.22-14.58-.22-.51-3.42-.94-6.32-1.38-9.22-.39-.06-.79-.11-1.18-.17-1.3,3.46-2.6,6.93-3.37,8.98-2.17,2.55-3.44,4.24-4.93,5.7-.64.63-2.11,1.35-2.59,1.05-1.67-1.04-3.08-2.51-5.62-4.71,0,.01-.37.81-.75,1.63-1.2-.95-2.66-2.1-4.13-3.26-.3.32-.6.63-.91.95,4.68,4.73,9.37,9.46,14.05,14.19-.3.4-.61.79-.91,1.19h5.91c.09-1.37.19-2.89.3-4.41.26-.05.53-.1.79-.15.67,1.57,1.33,3.14,2.25,5.31,1.43-1.58,2.46-2.72,4.66-5.15.39,4.16.66,7.08.95,10.23,13.87.78,28.4-2.22,43,6.19-7.56,1.85-13.95,3.96-20.5,4.84-5.74.77-11.66.04-17.5.21-5.77.17-7.84,3.35-6.14,8.17-1.46,1.91-2.74,3.6-3.94,5.17,2.75.99,4.74,1.7,8.06,2.89-5.45,2.5-12.65,2.7-9.18,10.23,2.78,1.01,5.35,1.94,7.91,2.87-4.59,1.42-10.37.54-9.02,8.45,19.88,1.52,40.34-2,59.48,5.97.08.52.15,1.04.23,1.55-6.73,1.41-13.42,3.82-20.19,4.05-18.19.63-36.41.2-54.61.54-2.68.05-5.32,2.08-8,3.15-1.5.6-3.03,1.11-4.92,1.79-1.17,3.02-2.55,6.58-3.94,10.14-.53-.06-1.07-.12-1.6-.18-.42-4.77-.85-9.54-1.35-15.28-5.12,4.59-9.67,8.67-15.27,13.69.92-4.51,1.61-7.84,2.37-11.57-27.03-4.41-53.95-.57-81.11-.92-.86,4.6-1.87,9.97-2.88,15.34-.44-.04-.87-.08-1.31-.12-1.5-4.76-2.99-9.52-4.83-15.36-3.71,5.19-6.72,9.39-10.57,14.78-.22-2.25-.36-2.99-.35-3.72.03-2.82,1.2-7.35-.04-8.14-3.38-2.17-7.74-3.59-11.79-3.81-9.53-.52-19.11-.17-30.02-.17,2-3.57,3.19-5.71,4.54-8.12-2.26-.34-4.4-.66-7.29-1.1,1.67-16.96-2.33-34.08,2.88-50.92,1.81-5.85,6.26-8.6,10.77-11.63,1.15-.77,2.04-1.98,3.26-2.55,1.33-.62,3.3-1.47,4.3-.94,6.65,3.53,7.39,3.38,10.5-3.22.49-1.05,1.41-1.9,2.77-3.67-3-.22-5.34-.39-6.54-.48-1.93,2.12-3.15,3.46-4.38,4.81-1.28-1.23-2.56-2.46-3.84-3.68-5-2.53-8.61,1.26-12.53,4.23q-8.41,6.37-16.57-.26-6.94-5.65-12.51-5.23c-1.63,4.18-8.48,5.16-11.56,1.87-2.97-3.17-7.35-2.38-9.73-.37-8.22,6.92-16.71,6.08-26.37,3.83-19.34-4.51-38.92-7.98-58.44-11.66-3.42-.64-5.11-2.05-5.61-5.45-.44-3.01-1.13-6.04-2.13-8.91-.49-1.41-1.71-2.96-3.02-3.62-3.04-1.53-6.39-2.44-9.5-3.86-1.44-.65-3.45-1.68-3.75-2.9-.99-4.02-3.66-5.29-7.23-5.23-8.88.15-16.89-2.33-23.73-7.96-1.59-1.31-3.1-3.68-3.21-5.64-.43-7.52.54-15.19-.53-22.59-1.27-8.76,2.58-15.34,6.62-22.2,1.11-1.89,1.86-4,2.72-6.04,1.98-4.69,4.03-9.36,5.86-14.12,1.75-4.55,2.98-9.32,4.94-13.77,2.54-5.76,5.49-11.36,8.51-16.89.48-.87,2.29-1.01,2.53-1.1.48-4.36.41-8.42,1.59-12.08.49-1.53,3.8-3.29,5.59-3.06,6.79.86,13.56,2.17,20.18,3.92,5.33,1.41,6.24,9.01,1.97,14.03-.65.77-1.55,1.33-2.32,1.99,4.81,6.53,4.97,12.29.32,18.56-3.17-4-5.08-2.42-8.09.88-5.43,5.94-9.5,12.49-12.52,19.83-.26.63-.44,1.38-.9,1.84-7.89,8.02-11.77,18.33-16.18,28.31-1.02,2.32-1.17,5.02-1.72,7.55-1.06-.83-2.12-1.66-3.18-2.49,4.83.29,9.67.58,14.62.88,1.91-2.95.15-6.62,3.32-9.97,2.27-2.41,4.28-4.19,7.17-5.18,8.55-2.92,8.23-2.91,9.36-11.8.65-5.09,2.69-10,3.89-15.04.21-.87-.61-1.99-1.4-4.3,7.72-1.54,15.59-3.17,23.48-4.68,9.41-1.8,18.86-3.4,28.25-5.28,8.06-1.62,16.05-3.61,24.13-5.18,1.62-.31,3.86.04,5.14.98,5.26,3.88,11.1,4.99,17.42,4.56.62-.04,1.6.21,1.8-.08,3.14-4.73,6.88-2.21,9.5-.07,3.9,3.17,6.95,2.8,10.35-.25,1.4-1.26,2.88-2.44,4.34-3.63,7.47-6.12,7.65-6.11,15.29-.45,1.59,1.18,3.29,2.23,5.47,3.7.03-5.14.82-8.81,6.68-6.8.47.16,1.25-.82,1.96-1.05,6.1-1.92,6.25-1.68,7.94,4.48.51,1.87,1.98,4.38,3.51,4.82,1.34.38,3.38-1.77,5.16-2.71,1.31-.69,2.65-1.47,4.07-1.8,4.17-.97,8.39-1.73,12.59-2.6.99-.21,2.53-.26,2.85-.88,2.68-5.22,7.46-3.82,11.72-3.87,8.73-.1,17.47-.03,27.27-.03V8.62c.72-.02,1.43-.03,2.15-.05.42,4.37.84,8.74,1.34,13.83.94-4.42-.75-10.08,5.79-9.98,4.03.06,8.42-1.62,12,2.48,1.61,1.84,4.49,2.37,7.05-.14,3.45-3.38,7.31-6.34,11-9.48.35.38.69.77,1.04,1.15-3.45,3.07-6.9,6.15-10.19,9.07Zm-4.57,10.45c.65-1.71,1.29-3.43,1.94-5.14-.89-.28-2.4-1.01-2.57-.77-1.2,1.65-2.17,3.49-3.1,5.32-.14.27.32.83.49,1.24,1.23-.29,2.32-.55,3.41-.8-1.2,2.15-2.41,4.3-3.61,6.46,2.05.45,4.11.91,6.29,1.39q.28-6.86-2.85-7.69Zm12.97,7.47c3.76,0,6.17.4,8.31-.18.96-.26,1.38-2.47,2.05-3.79-1.2-.37-2.71-1.37-3.53-.97-2.03.99-3.74,2.63-6.83,4.94Zm12.43.61c2.87.74,4.67,1.2,7.73,1.98-1.93-3.32-3.08-5.29-4.72-8.12-1.2,2.45-1.96,3.99-3.01,6.14Z"/>
      <path class="cls-2" d="m311.16,25.96q3.13.82,2.85,7.68c-2.19-.48-4.24-.94-6.29-1.39,1.2-2.15,2.41-4.3,3.61-6.46,0,0-.17.17-.17.17Z"/>
      <path class="cls-2" d="m324.13,33.42c3.09-2.31,4.8-3.95,6.83-4.94.82-.4,2.33.6,3.53.97-.67,1.32-1.1,3.54-2.05,3.79-2.15.58-4.55.18-8.31.18Z"/>
      <path class="cls-2" d="m311.33,25.79c-1.09.26-2.18.51-3.41.8-.17-.41-.62-.97-.49-1.24.93-1.83,1.9-3.67,3.1-5.32.17-.24,1.68.49,2.57.77-.65,1.71-1.29,3.43-1.94,5.15,0,0,.17-.17.17-.17Z"/>
      <path class="cls-2" d="m336.56,34.03c1.05-2.15,1.81-3.69,3.01-6.14,1.65,2.83,2.79,4.79,4.72,8.12-3.06-.78-4.85-1.24-7.73-1.98Z"/>
    </g>
  </g>
</svg>