<?xml version="1.0" encoding="UTF-8"?>
<svg id="Layer_1" data-name="Layer 1" xmlns="http://www.w3.org/2000/svg" viewBox="0 0 605.27 146">
  <defs>
    <style>
      .cls-1, .cls-2 {
        stroke-width: 0px;
      }

      .cls-2 {
        fill: #fff;
      }
    </style>
  </defs>
  <g id="_7YloM5.tif" data-name="7YloM5.tif">
    <g>
      <path class="cls-2" d="m605.27,145.99c-201.72,0-403.44,0-605.27,0V0h605.27v145.99Zm-50.91-134.87c-2.62,6.9-7.63,6.77-12.31,6.79-26.07.1-52.13.12-78.2.05-31.2-.08-62.41-.18-93.61-.5-3.93-.04-7.85-2.05-11.78-2.09-20.27-.22-40.54-.09-60.82-.12-1.41,0-3.88.04-4.05-.5-1.82-5.69-6.47-3.67-10.08-3.69-4.69-.02-8.16-.92-10.58-5.62-2.53-4.92-8.56-5.11-11.94-.7-2.66,3.46-4.8,7.32-7.17,11-6.28.97-13.05,1.5-19.55,3.13-16.58,4.15-32.37,10.37-47.27,18.82-14.55,8.25-29.64,12.04-46.65,7.79-8.35-2.09-17.51-2.04-26.21-1.48-18.43,1.17-36.8,3.18-55.17,5.08-15.99,1.65-31.96,3.46-47.9,5.52-7.78,1.01-8.6,3.02-7.57,10.59,1.67,12.35,3.11,24.75,4.12,37.17.96,11.8,1.11,23.65,1.9,35.47.29,4.28,2.17,5.17,6.1,3.59,7.3-2.92,14.65-5.73,21.85-8.88,23.95-10.48,47.83-21.11,71.79-31.57,1.77-.77,4.45-1.42,5.91-.64,9.65,5.16,20.41,5.47,30.78,7.25,9.26,1.6,8.1,3.17,12.77-6.58,9.64-20.11,26.72-30.49,46.72-37.31,9.15-3.12,9.64-2.61,10.87,7.17.86,6.79,4.55,11.11,10.9,13.28,12.72,4.36,24.36,1.79,35.07-5.79,6.04-4.28,11.79-8.98,17.94-13.08,3.14-2.1,6.84-4.54,10.37-4.69,14.41-.62,28.86-.44,43.29-.51,11.34-.06,22.62,1.82,34.07-.25,7.8-1.41,15.93-1.12,23.92-1.25,11.04-.18,22.08-.05,33.02-.05,1.94,10.78.95,9.02,11.19,9.01,44.88-.04,89.77-.24,134.65-.4,3.43-.01,7.37.99,8.54-3.99.09-.37.97-.72,1.52-.8,4.98-.69,10.01-1.11,14.93-2.08,1.9-.38,4.1-1.61,5.13-3.14.59-.88-.88-3.14-1.54-5.14.74-.63,2.03-1.74,3.58-3.08-1.56-1.47-2.88-2.7-3.66-3.44.85-1.65,2.3-3.36,1.93-3.97-1.02-1.68-2.6-3.68-4.32-4.12-2.72-.69-5.75-.09-8.64-.29-1.08-.08-2.11-.86-3.16-1.33l.29-1.22c2.4-.36,4.81-.71,7.08-1.05v-15.01c-.6-.23-.89-.43-1.19-.43-8.36-.05-16.73-.03-25.09-.11-4.69-.05-9.2-.62-11.75-6.82Z"/>
      <path class="cls-1" d="m554.36,11.13c2.55,6.2,7.06,6.77,11.75,6.82,8.36.08,16.73.07,25.09.11.29,0,.58.2,1.19.43v15.01c-2.27.34-4.67.69-7.08,1.05l-.29,1.22c1.05.46,2.08,1.25,3.16,1.33,2.88.2,5.91-.4,8.64.29,1.72.44,3.3,2.44,4.32,4.12.37.61-1.08,2.31-1.93,3.97.78.73,2.1,1.97,3.66,3.44-1.56,1.34-2.85,2.45-3.58,3.08.66,1.99,2.13,4.25,1.54,5.14-1.03,1.53-3.23,2.77-5.13,3.14-4.92.97-9.95,1.39-14.93,2.08-.55.08-1.43.43-1.52.8-1.17,4.98-5.11,3.97-8.54,3.99-44.88.16-89.77.36-134.65.4-10.25,0-9.26,1.77-11.19-9.01-10.93,0-21.98-.14-33.02.05-7.99.13-16.13-.16-23.92,1.25-11.45,2.07-22.72.19-34.07.25-14.43.07-28.88-.11-43.29.51-3.54.15-7.23,2.59-10.37,4.69-6.15,4.1-11.9,8.8-17.94,13.08-10.72,7.58-22.35,10.15-35.07,5.79-6.35-2.18-10.04-6.49-10.9-13.28-1.23-9.78-1.72-10.29-10.87-7.17-20,6.82-37.08,17.2-46.72,37.31-4.67,9.75-3.51,8.18-12.77,6.58-10.37-1.79-21.13-2.09-30.78-7.25-1.46-.78-4.14-.13-5.91.64-23.96,10.45-47.84,21.09-71.79,31.57-7.2,3.15-14.55,5.96-21.85,8.88-3.94,1.58-5.82.69-6.1-3.59-.79-11.81-.94-23.67-1.9-35.47-1.01-12.42-2.44-24.82-4.12-37.17-1.03-7.57-.21-9.58,7.57-10.59,15.94-2.06,31.91-3.87,47.9-5.52,18.37-1.9,36.75-3.91,55.17-5.08,8.7-.55,17.86-.6,26.21,1.48,17.01,4.25,32.1.46,46.65-7.79,14.9-8.45,30.69-14.68,47.27-18.82,6.5-1.63,13.27-2.16,19.55-3.13,2.37-3.68,4.51-7.54,7.17-11,3.38-4.41,9.41-4.22,11.94.7,2.42,4.69,5.89,5.59,10.58,5.62,3.61.02,8.26-2,10.08,3.69.18.55,2.65.5,4.05.5,20.27.03,40.55-.1,60.82.12,3.93.04,7.85,2.05,11.78,2.09,31.2.32,62.4.43,93.61.5,26.07.06,52.13.04,78.2-.05,4.69-.02,9.69.11,12.31-6.79ZM232.49,77.88c-.39.1-.79.2-1.18.29-.82-2.33-1.54-4.71-2.51-6.98-.37-.86-1.31-1.48-1.98-2.21-.65.79-1.68,1.48-1.89,2.37-.95,4-.54,7.48,3.54,9.94,7.54,4.54,22.37,3.08,28.34-3.39,1.6-1.73,2.67-4.36,3.04-6.73.71-4.57-2.1-10.22-5.76-10.41-6-.3-12.93-.9-17.87,1.67-4.96,2.58-6.51,9.21-3.72,15.44Z"/>
      <path class="cls-2" d="m232.49,77.88c-2.79-6.22-1.25-12.86,3.72-15.44,4.95-2.57,11.87-1.97,17.87-1.67,3.66.19,6.47,5.84,5.76,10.41-.37,2.36-1.44,5-3.04,6.73-5.97,6.46-20.81,7.92-28.34,3.39-4.09-2.46-4.5-5.94-3.54-9.94.21-.89,1.24-1.59,1.89-2.37.68.73,1.62,1.35,1.98,2.21.97,2.27,1.69,4.65,2.51,6.98.39-.1.79-.2,1.18-.29Z"/>
    </g>
  </g>
</svg>