<svg id="Layer_1" data-name="Layer 1" xmlns="http://www.w3.org/2000/svg" viewBox="0 0 605.27 146">
  <g id="_7YloM5.tif" data-name="7YloM5.tif">
    <g>
      <path class="cls-1" d="m554.36,11.13c2.55,6.2,7.06,6.77,11.75,6.82,8.36.08,16.73.07,25.09.11.29,0,.58.2,1.19.43v15.01c-2.27.34-4.67.69-7.08,1.05l-.29,1.22c1.05.46,2.08,1.25,3.16,1.33,2.88.2,5.91-.4,8.64.29,1.72.44,3.3,2.44,4.32,4.12.37.61-1.08,2.31-1.93,3.97.78.73,2.1,1.97,3.66,3.44-1.56,1.34-2.85,2.45-3.58,3.08.66,1.99,2.13,4.25,1.54,5.14-1.03,1.53-3.23,2.77-5.13,3.14-4.92.97-9.95,1.39-14.93,2.08-.55.08-1.43.43-1.52.8-1.17,4.98-5.11,3.97-8.54,3.99-44.88.16-89.77.36-134.65.4-10.25,0-9.26,1.77-11.19-9.01-10.93,0-21.98-.14-33.02.05-7.99.13-16.13-.16-23.92,1.25-11.45,2.07-22.72.19-34.07.25-14.43.07-28.88-.11-43.29.51-3.54.15-7.23,2.59-10.37,4.69-6.15,4.1-11.9,8.8-17.94,13.08-10.72,7.58-22.35,10.15-35.07,5.79-6.35-2.18-10.04-6.49-10.9-13.28-1.23-9.78-1.72-10.29-10.87-7.17-20,6.82-37.08,17.2-46.72,37.31-4.67,9.75-3.51,8.18-12.77,6.58-10.37-1.79-21.13-2.09-30.78-7.25-1.46-.78-4.14-.13-5.91.64-23.96,10.45-47.84,21.09-71.79,31.57-7.2,3.15-14.55,5.96-21.85,8.88-3.94,1.58-5.82.69-6.1-3.59-.79-11.81-.94-23.67-1.9-35.47-1.01-12.42-2.44-24.82-4.12-37.17-1.03-7.57-.21-9.58,7.57-10.59,15.94-2.06,31.91-3.87,47.9-5.52,18.37-1.9,36.75-3.91,55.17-5.08,8.7-.55,17.86-.6,26.21,1.48,17.01,4.25,32.1.46,46.65-7.79,14.9-8.45,30.69-14.68,47.27-18.82,6.5-1.63,13.27-2.16,19.55-3.13,2.37-3.68,4.51-7.54,7.17-11,3.38-4.41,9.41-4.22,11.94.7,2.42,4.69,5.89,5.59,10.58,5.62,3.61.02,8.26-2,10.08,3.69.18.55,2.65.5,4.05.5,20.27.03,40.55-.1,60.82.12,3.93.04,7.85,2.05,11.78,2.09,31.2.32,62.4.43,93.61.5,26.07.06,52.13.04,78.2-.05,4.69-.02,9.69.11,12.31-6.79ZM232.49,77.88c-.39.1-.79.2-1.18.29-.82-2.33-1.54-4.71-2.51-6.98-.37-.86-1.31-1.48-1.98-2.21-.65.79-1.68,1.48-1.89,2.37-.95,4-.54,7.48,3.54,9.94,7.54,4.54,22.37,3.08,28.34-3.39,1.6-1.73,2.67-4.36,3.04-6.73.71-4.57-2.1-10.22-5.76-10.41-6-.3-12.93-.9-17.87,1.67-4.96,2.58-6.51,9.21-3.72,15.44Z"/>
    </g>
  </g>
</svg>