<svg xmlns="http://www.w3.org/2000/svg" xml:space="preserve" width="525.364" height="194.663" viewBox="0 0 139.002 51.505"><path d="M47.74 10.994h.602v-.452h2.109v.452h3.915l.753-.452.904-.602V8.584l.15-.15.15-.302v-.3h4.82v.602l7.53.602V4.819l-.452.452-.15-.15V3.312l.602-.602V2.41h.15l.452-.452v-.452h.15l.453-.301V.904h.15V.753h.603l.15.15v.302h.15l.152.903 1.355.603.15 6.626h.753v37.499l-.15 1.356-.15 1.506-.151 1.204v.15h-.302v.453h-27.71l-.3-.301-.151-.603-.452-3.614V10.693h1.807V12.8h1.958zm67.618.3v.904h2.41v-.602h2.108v.602h.603v-.602h.753l.452-6.476v-.15l3.012-2.711h.15v-.15l.603-.151-.452-.603v-.15L126.352.15h.15l.151-.151.603.602h.753l1.656 1.808v.903l3.012 3.464 3.615 5.27v.904l.903 1.356.603.301.15.15 1.054 1.657v1.205l-.753.904v6.325h.603v.15h.15v1.055h-14.306l-.151.15h-7.832v-.15h-.45v.602h-.905v1.054h1.356v2.56H103.46v.302q.301 0 .452.3l.301.904-.602.753h-3.313l-.302.15v.151l-.3 1.506-.151.302-.904 1.355-.15.15-.452-.15-.302-.452v-.3l.151-.302.602-1.807.151-.15-.15-.152-1.205-1.355-.302.15-1.355-1.505H84.185v11.144h-9.79V9.337l8.886.753.301.15v.453h4.97v.602h1.355V9.638h-.602v-.602H88.1V7.68h1.356v-.452l.15-.15 10.542-.302v1.355h3.614V7.38h.603v.753h.903v2.41h1.506v-.301h5.12v1.054zm7.832.753.451-.603V10.09l-.753-2.41-.3 4.067.15.3zm-.452 12.802h12.951v-.15h.452v-6.025l-1.205-1.054-.753-1.054v-.15h.15l-1.053-1.507-1.054-.15h-.151l-1.054-1.205v-.301h.15l-.903-1.055v-.15h-.603l-.15-.15-.301-.302h.15v-.301h.301l-1.054-1.205h-.602l-.301-.452v-.3l.3-.151-.903-1.205-2.41-1.506 1.055 4.066-.15.903v.151l-.603.753v.15l-.603.452h-.3l-1.206.302h-.15zm-18.976 6.777-.15-.452q-.15-.301-.452-.301l-.452.15-.15.15-.151.152v.451l.452.452h.602zm-64.757 3.463h-.301l-.301-.3v-.754l1.506-5.12.3-.602.302-.302.301-.15.15.15v-.3h.754v-.151h.602v.15h.301v-.15h.452v1.355h-.452v-.301h-.3v.15h-1.356l-.753 2.711-1.054 3.313zm-2.56-15.06h6.626v5.573h-6.626V25.3H16.566v.15l-.301.15h-.302l-.451.151h-.452l-.753.302h-3.012l-2.41-.151-2.108-.15H.602l-.451-1.205L0 22.89v-1.506l.452-1.205h4.217l.602-.15 7.831-.452h.301l1.356.301 1.204.301h.603v.15h2.41v.151h17.469z"/></svg>