<svg xmlns="http://www.w3.org/2000/svg" xml:space="preserve" width="580.189" height="195.559" viewBox="0 0 153.508 51.742"><path d="M144.772 32.182c2.967-.302 3.952-.973 3.971-2.635.033-2.873-.173-3.05-4.395-3.554-.022-1.403-.028-2.836-.068-4.27-.052-1.862-.056-3.73-.226-5.579-.107-1.164.498-1.448 1.405-1.488 1.654-.068 3.261-.25 4.63-1.31.21-.165.58-.275.63-.473.399-1.633 1.78-2.825 1.867-4.646.102-2.107.511-4.202.862-6.29.177-1.052.018-1.678-1.224-1.668-.539.004-1.254-.427-1.585-.206-1.09.724-2.104 1.6-2.98 2.571-.143.159.57 1.084.78 1.464-.135.424-.35.886-.416 1.367-.115.842-.139 1.694-.203 2.541-.06.79-.127 1.581-.217 2.651-.96 1.28-2.494.452-3.923.394-1.716-.068-3.442-.188-5.147-.06-1.464.11-1.474 1.42-1.283 2.423.751 3.94-.021 7.861-.02 11.786 0 .133-.038.267-.06.415-1.951.404-2.464-1.083-3.24-2.325-.92-1.47-1.975-2.858-2.974-4.279-.024-.038-.064-.063-.098-.092-1.715-1.484-3.93-1.563-5.987-2.013-.566-.123-1.259.493-1.896.498-2.311.016-4.623-.087-6.933-.137-2.086-.043-4.17-.073-6.28-.11-.86-1.996-2.055-2.48-3.586-1.489-.594-.27-1.14-.514-2.019-.912.783-.069 1.291-.063 1.77-.176.25-.06.452-.324.676-.498-.22-.18-.428-.493-.667-.518-.624-.065-1.261 0-2.054.013.033-2.654.073-5.268.093-7.886.007-.859-.046-1.717-.063-2.576-.036-1.71-.474-2.14-2.203-2.137-1.633.002-2.39.709-2.403 2.282-.026 3.046-.035 6.093-.061 9.14-.006.57-.057 1.141-.102 2.019-1.467-1.04-.468-2.246-.856-3.532-.235.934-.586 1.59-.507 2.19.143 1.127-.506 1.691-1.327 1.649-1.577-.083-2.23 1.44-3.552 1.755-.244.059-.333.776-.52 1.257-2.13-.015-4.347-.034-6.771-.05-.031-1.6-.091-3.169-.085-4.739.006-1.421-1.042-2.127-2.07-2.395-1.122-.295-2.52-.635-3.486.576-.233.291-.447.692-.456 1.049a58 58 0 0 0 .049 4.075c.044 1.027-.186 1.607-1.411 1.603-5.383-.023-10.769.132-16.144-.017-1.702-.047-3.36-.58-4.992.323-.172.095-.51-.15-.777-.168-.807-.057-1.624-.164-2.423-.1-3.845.305-7.69.66-11.556.999-.761-1.87-1.284-2.106-3.382-1.524-.197.055-.443-.065-.666-.117-.306-.071-.613-.238-.912-.223-1.095.05-2.135.33-3.297.05-.995-.24-1.359.432-1.778 2.437-2.844.248-5.71.364-8.535.78-3.395.505-6.494-.456-9.616-1.471-.248-.082-.622-.195-.678-.376-.492-1.583-1.749-1.383-2.918-1.235-1.29.16-2.64-.162-3.76 1.134-.475.548-1.904.397-2.892.364-1.718-.06-2.765.76-2.982 2.343C.44 24.013.008 26.996 0 29.972c-.006 2.515.497 5.045.92 7.544.214 1.26 1.166 1.88 2.493 1.872.818-.005 1.64.062 2.457.115.267.016.653-.001.778.158 1.422 1.798 3.466.852 5.214 1.182.272.05.806-.195.897-.429.445-1.138 1.502-1.14 2.41-1.486 4.848-1.831 9.79-.83 14.902-.602l.038 7.353c.394.038.66.1.92.08 1.18-.099 1.658.396 1.585 1.595-.083 1.356-.036 2.72-.046 4.299 2.308.034 4.546.083 6.783.089.77.002 1.54-.146 2.315-.16 1.85-.035 2.134-.32 2.014-2.118-.022-.351-.003-.703-.003-1.216 1.118.184 2.13.483 3.143.495 7.747.095 15.496.134 23.243.195.364.003.729.04 1.093.05 2.436.069 4.817.014 6.887-1.611.907-.714 1.926-1.183 3.266-.738.662.221 1.562-.274 2.354-.442.738-.155 1.48-.448 2.214-.438 5.058.075 10.113.292 15.172.317 6.33.033 12.659-.144 18.986-.102 7.242.049 14.481.22 21.722.378 1.496.034 1.714-.99 1.82-2.032.31-3.118.531-6.245.816-9.367.085-.937.261-1.869.39-2.77zM79.24 40.064c.622 1.438-.378 1.913-1.144 2.416-1.094.722-1.891 1.815-3.525 1.782-7.157-.146-14.316-.128-21.474-.163-2.546-.014-5.073-.125-7.655-1.278.258-.763.282-1.814.783-2.137 1.367-.885 2.925-1.472 4.66-1.143 1.242.236 2.491.555 3.745.59 2.415.068 4.837-.061 7.253-.07 3.143-.01 6.286.026 9.428.027 2.64.003 5.279-.016 7.926-.024zm30.252 1.05-.107-.469c.24-.082.483-.241.723-.238 2.564.049 5.111.14 7.68-.26 1.668-.258 3.416-.02 5.128.008.168.004.383.035.496.14 1.003.926 2.023.439 3.04.058.243-.09.47-.28.716-.3 2.101-.173 3.67-1.218 4.836-2.916.733-1.068 1.409-2.174 2.141-3.242.358-.523.724-1.075 1.199-1.48.474-.406 1.266-.587 1.354.274.28 2.812.411 5.637.608 8.616l-27.808-.191zm-10.562-.903.096.552c-.39.087-.777.251-1.167.253-3.874.02-7.746.025-11.616-.011-.305-.003-.609-.316-.913-.486.332-.143.665-.409 1-.414 2.23-.031 4.462-.019 6.695.004 1.97.019 3.94.067 5.908.102z"/></svg>