<svg xmlns="http://www.w3.org/2000/svg" xml:space="preserve" width="275.333" height="130.387" viewBox="0 0 72.848 34.498"><path d="M26.195 25.767v-1.798H5.65v-.77l-.428.085h-.856v2.483zm5.82-1.798v1.798h3.51l1.37-1.798zM5.65 12.669q-.086.171-.428.171h-.856v8.646h.856l.428.086zm-.428-1.797.428.256v-.684h20.545v-2.14H4.365v2.568zM45.37 25.767l-.856-1.199h-.6l-1.198-.513q-.514-.428-.514-1.113v-1.37H41.09l-2.997 4.195zm3.595-4.195v1.37l-.428 1.113q-.514.513-1.284.513h-.086l.856 1.199h1.713l3.937-4.195zM42.716 9.16l1.198-.428h3.339l1.284.428.428 1.198v.77h2.568l1.455.514v-.428l.172-1.027h-1.284q-.428 0-.685-.257l-.171-.77.17-.77.686-.172h9.93V3.767L60.179 2.31V.685h4.965v7.533h2.483l.599.171.342.77-.342.771-.6.257h-2.14l.857.599.17 1.027v1.027h2.911v4.11h3.424v5.307l-2.996 3.338v1.37l.77.77-2.054 2.569-1.37-.77v3.252l-.427 1.199-1.284.513H41.86q-.685 0-1.198-.513-.428-.429-.428-1.199v-3.68H13.782q-.513.513-1.113.513H3.595l-.941-.428-.343-.942.428-.942h-.513l-.685-.256-.257-.514.257-.428v-2.825h-.514l-.599-.171-.428-.77.428-.685.6-.172h.513V12.84h-.514l-.599-.342L0 11.984l.428-.77.6-.342h.513v-2.74l-.257-.599.257-.514.685-.342h26.023V1.198l.428-.77.77-.428.857.428q.256.257.256.77v5.48h8.475l.685.341.171.514-.171.6-.685.17h-7.02v2.14h2.826l.513-1.112 1.113-.514h1.37q.77 0 1.198.514l.514 1.113 2.653.684v-.77q0-.685.514-1.198"/></svg>