<svg xmlns="http://www.w3.org/2000/svg" xml:space="preserve" width="581.433" height="219.011" viewBox="0 0 153.837 57.947"><path d="M92.916 35.285V0h-8.03v35.295H83.4q-.1-2.02-.201-4.05l-.429-.011c-.997 1.18-.045 2.736-.645 4.14h-5.125c-.33 0-.688-.047-.982.059-.217.08-.481.373-.487.58-.005.166.323.46.537.494.73.111 1.474.135 2.223.36-.415.021-.828.064-1.244.064-2.608.005-5.22-.043-7.826.023-.966.027-1.41-.322-1.67-1.209-.312-1.063-.716-2.103-1.132-3.133-.532-1.312-1.69-1.608-3.043-1.22-2.717.779-5.487 1.387-8.247 2.014-.251.058-.65-.182-.867-.4-.9-.899-1.773-1.042-2.63-.362a1.78 1.78 0 0 0-.358 2.437c.63.873 1.548 1.005 2.63.402.278-.153.585-.312.892-.344 2.471-.248 4.945-.465 7.527-.704v2.41c-.328.027-.685.078-1.042.078-7.744.005-15.489.008-23.233-.005-.513 0-1.148.246-1.4-.628-.042-.148-1.624-.153-1.696.056-.307.876-.942.566-1.434.569-7.165.024-14.33.05-21.495-.01-1.28-.011-1.733.364-1.574 1.613.082.651.064 1.326-.01 1.98-.135 1.174.283 1.571 1.51 1.56 7.083-.052 14.163-.026 21.246-.026h1.469l.005.336H10.705c-.434 1.487-.802 2.744-1.196 4.101H8.487c-.029-.516-.026-1.005-.092-1.484-.045-.315-.106-.69-.305-.908-.695-.757-1.389-1.548-2.217-2.146-.497-.36-1.24-.38-1.865-.553-.111.36-.172.474-.18.59q-.167 2.23-2.42 2.736c-.906.201-1.827 2.302-1.205 3.02.463.534.855 1.084 1.725 1.444 2.466 1.016 4.956.423 7.409.711.502.059 1.055-.1 1.214.71.042.209.828.383 1.273.386 6.254.024 12.507.013 18.761.01h4.03q-.001.277-.005.559H10.488c0 1.643-.058 3.072.058 4.487.019.233.81.572 1.244.574 6.006.037 12.009.024 18.015.021 1.159 0 2.32-.029 3.48.014.621.023 1.38-.302 1.743.68.058.158 1.148.008 1.736-.114.4-.082.754-.537 1.13-.537 13.707-.032 27.416-.043 41.124.003.957.003 2.116-.204 2.839.91.13.2.783.082 1.195.082 15.24-.008 30.483-.021 45.723-.019.773 0 1.55.122 2.315.238 1.276.196 1.577-.018 1.596-1.29.023-1.652-.01-3.305.037-4.956.047-1.64.47-2.125 2-2.345-.071.59-.17 1.146-.201 1.707-.064 1.114.529 1.786 1.548 1.807 1.05.021 1.614-.571 1.574-1.746-.024-.736-.14-1.466-.249-2.561 2.151.113 4.21.055 6.207.375 1.773.284 3.488.953 5.21 1.514 2.765.9 5.289-1.077 5.003-3.958-.124-1.262-.88-2.09-1.9-2.741-.27-.172-.664-.318-.759-.567-1.225-3.23-3.807-5.474-5.913-8.046-2.823-3.45-5.781-6.794-8.742-10.13-1.114-1.257-2.392-2.324-4.21-2.525-.815-.09-2.243.852-2.013 1.625.302 1.016.656 2.175 1.376 2.884 4.971 4.908 10.046 9.715 15.086 14.555.18.172.37.333.532.518.926 1.072.654 2.244-.698 2.434-2.734.39-5.49.62-8.24.892-.91.09-1.41-.251-1.516-1.283-.14-1.352-.889-2.548-2.185-2.93-1.625-.475-1.736-1.753-1.892-2.941-.286-2.162-.196-2.09-2.299-2.061-4.969.068-9.94.092-14.91.058-3.799-.024-7.596-.212-11.392-.233-2.554-.016-5.112.227-7.663.164-1.15-.03-2.288-.521-3.553-.833zm-55.88 7.064v-.19h25.23v.19zm33.179-.008v-.211h9.53v.211zm63.23.204c1.33.238 1.643 1.093 1.696 2.21-2.14-.29-2.23-.406-1.696-2.21"/></svg>