<svg xmlns="http://www.w3.org/2000/svg" xml:space="preserve" width="585.27" height="233.634" viewBox="0 0 154.853 61.816"><path d="M45.625 3.347h-4.691c-13.092.022-26.186.061-39.278.043-1.22 0-1.64.267-1.632 1.569.04 8.188-.01 16.375-.024 24.564 0 .105.087.211.077.182.9-.1 1.722-.267 2.545-.272 3.768-.03 7.535-.014 11.451-.014v3.633H32.47c-.57 2.403 1.45 3.101 2.553 4.379.137.159.436.243.664.246 1.77.019 3.537.01 5.395.01.063-.325.135-.711.209-1.097l.325.206c.471-.595 1.061-1.135 1.384-1.804.392-.813.839-1.154 1.78-1.114 1.141.05 2.292-.188 3.44-.196.865-.005 1.77-.275 2.559.54.299.306 1.093.156 1.661.18.53.023 1.061.004 1.905.004-.211.993-.42 1.82-.555 2.66-.064.396-.154 1.034.053 1.188 1.455 1.09.86 2.674 1.074 4.05.452 2.887.653 5.826 1.323 8.66.764 3.236 2.796 5.739 5.49 7.72 1.482 1.09 3.17.818 4.789.863 3.14.085 6.284.024 9.12.024.278.765.31 1.445.654 1.685 1.005.704 2.188.776 3.201.032.37-.27.445-.944.722-1.595h2.347c.024-.492.042-.913.072-1.498H79.29v-.24c.62-.053 1.236-.143 1.855-.149 1.257-.01 1.611-.86 1.646-1.854.164-4.768-.257-9.515-1.35-14.14-.28-1.188.16-2.03.215-3.027.082-1.452.28-2.894.383-4.347.027-.386-.121-.788-.193-1.18-.069-.378-.145-.754-.254-1.299 1.355 0 2.543.037 3.725-.026.291-.016.564-.368.847-.567-.267-.169-.521-.439-.807-.481-.51-.08-1.045-.021-1.775-.021 1.632-1.49 3.357-1.606 5.164-1.35.667.096.874.545.741 1.167-.188.89-.418 1.77-.558 2.664-.045.286.143.609.225.916.185-.23.47-.437.537-.699.23-.875.389-1.772.56-2.664.197-1.01.697-1.415 1.824-1.497 13.385-.99 26.784-.162 40.174-.418 1.654-.032 2.972-.77 3.794-2.02 1.135-1.722 2.728-1.851 4.482-1.93.89-.04 2.223.595 2.292-1.149 1.47-.294.653-1.595 1.053-2.315.727-1.315 1.603-2.612 2.677-3.649 1.082-1.042 2.487-1.746 3.734-2.622.391-.275.87-.56 1.069-.96 1.098-2.217 2.124-4.469 3.164-6.713.132-.288.201-.606.339-1.026-4.038-.574-8.2.672-12.007-1.28q-.278-1.726-2.106-1.729c-24.863 0-49.723.008-74.586-.003-4.638 0-9.274-.1-13.912-.11-.762 0-1.08-.255-1.28-.972-.183-.65-.469-1.357-.924-1.833-.94-.987-3.246-.873-4.024.254-.368.532-.246 1.4-.387 2.42zm16.155 35.97h13.126c-.103 1.823-.283 3.525-.28 5.226 0 3.55.11 7.101.15 10.652.016 1.286.006 2.55 1.77 2.784-3.608.042-7.13-.085-10.633.084-2.381.114-4.016-.923-5.482-2.558-2.964-3.308-3.646-7.395-3.972-11.592-.09-1.159-.013-2.333-.013-3.355.995 0 1.969-.124 2.892.032 1.103.188 2.122-.249 2.442-1.273"/></svg>