<svg xmlns="http://www.w3.org/2000/svg" xml:space="preserve" width="277.338" height="177.644" viewBox="0 0 73.379 47.002"><path d="m42.225 2.388.543-1.303L43.854.76l1.085.325.543 1.303v5.645h9.878q2.17 0 3.473 1.52 1.52 1.519 1.52 3.473v1.302h3.04l1.52-.434.65-1.52v-5.21l.435-1.302q.65-.652 1.41-.652l1.629.543 1.085 1.303 3.257 7.815-.109 1.411q-.325.543-1.194.543h-2.17l-1.412.434-.542 1.086.325 1.52.651 1.52 1.086 1.519.651 1.737.109 1.845-.652 5.427-.65 1.954-.978 1.411-6.404 6.513-1.52.869-1.954.434h-3.582l-.868-.109q-.869 2.605-6.187 3.582l-7.382.435q-1.737 0-7.055-3.474l-7.273-4.993-.543.651v.543q0 2.28-1.628 3.908-1.52 1.628-3.8 1.628-1.736 0-3.256-1.086l-1.845-2.496-3.474-2.497-3.148-.543q-2.17-.868-2.605-2.605L0 34.953v-8.467l5.97-1.194q.543-1.845 3.04-2.605-1.086-1.629-2.823-1.846 1.194-3.365 4.125-5.644V.977l.326-.76.651-.217h8.575l.977.326.326 1.085q0 .543-.326.977-.542.326-.977.326h-7.49v3.582l.869-1.194 1.52-.434h8.792q.76 0 2.93 1.52l3.692 2.93h6.078q1.411-1.085 3.148-1.085h2.822z"/></svg>