<svg xmlns="http://www.w3.org/2000/svg" xml:space="preserve" width="588.945" height="158.231" viewBox="0 0 155.825 41.865"><path d="M7.139 20.566c-.305.979-.315 1.815 1.063 1.876-.344.235-.656.36-.823.59-.18.248-.224.595-.328.9.297-.011.593-.006.887-.038.37-.04.74-.18 1.103-.15 1.807.137 3.606.362 5.413.468 1.318.076 2.773.367 3.945-.053 3.649-1.31 7.364-.315 11.026-.648.391-.037.788-.005.952-.005.516.746.968 1.315 1.318 1.936.222.395.404.87.412 1.313a704 704 0 0 1 .112 12.049c0 .592-.262 1.188-.46 2.032.221 0 .624.018 1.026-.01.108-.009.196-.175.31-.236 2.22-1.188 2.981-2.958 2.74-5.509-.262-2.754-.058-5.55-.058-7.998.87-.892 1.67-1.506 2.199-2.3.897-1.346 2.804-1.957 4.416-1.254.868.379 1.754.717 2.865 1.17-.005.085-.024.497-.06.91-.027.299-.226.72-.096.878 1.424 1.728.519 3.824.926 5.715.55 2.551 1.241 4.956 3.281 6.753 1.098.968 2.302 1.537 3.823 1.484 2.157-.077 4.318-.019 6.324.24.592.424 1.15 1.096 1.791 1.183.429.059.931-.783 1.474-1.092.455-.257 1.016-.326 1.76-.545l-.7-.776c.212-.293.779-.717.779-1.14 0-2.638-.064-5.278-.244-7.908-.053-.784-.558-1.535-.635-2.234.09-1.748.177-3.495.273-5.36.389 0 .902.064 1.389-.018.46-.08 1.204-.22 1.283-.495.235-.797.751-.736 1.328-.741 2.866-.027 5.734-.098 8.6-.064.859.011 1.724.278 2.574.487 1.825.45 3.627 1.003 5.466 1.373.696.14 1.47-.169 2.206-.16 5.689.055 11.378.153 17.066.19.556.003 1.109-.331 1.67-.49.365-.103.738-.24 1.108-.24a1722 1722 0 0 1 18.127.02c.473.004 1.032.35 1.397.699.534.51.915 1.183 1.391 1.762.863 1.053 1.995 1.55 3.353 1.564 7.276.069 14.552.124 21.828.23.992.013 1.556-.463 1.74-1.273.525-2.304 1.236-4.627 1.321-6.96.122-3.42-.235-6.856-.391-10.285a2 2 0 0 0-.059-.392q-.487-2.085-2.595-2.074c-6.97.045-13.936.14-20.905.111-1.955-.008-3.57.426-4.68 2.1-1.032 1.56-2.437 1.927-4.279 1.9a2768 2768 0 0 0-36.912-.314c-2.12-.003-4.236.566-6.363.79-2.847.302-5.702.525-8.554.779l-.08-.471q.586-.36 1.189-.725c-.545-2.191-2.538-2.003-4.146-2.651 0-2.3.005-4.66-.022-7.02 0-.106-.315-.206-.7-.439v7.448l-5.337.41c-.082 1.09-.16 2.127-.241 3.244-.699.048-1.307.09-1.635.111-1.096-1.402-2.27-2.548-2.969-3.934-.442-.873-.204-2.106-.209-3.178 0-.516.143-1.032.238-1.656h-2.884c.146 1.354.3 2.804.45 4.207-1.855.838-3.829 1.397-5.395 2.526-1.743 1.257-3.532 1.077-5.39 1.064-8.953-.063-17.904-.15-26.857-.177-.604 0-1.199.465-1.813.667-.516.171-1.055.275-1.63.42-.494-1.839.585-3.765-.926-5.522-.166 1.606-.344 3.03-.457 4.459-.16 1.981-.432 2.264-2.345 2.272-2.69.014-5.381.061-8.07.027-1.15-.013-1.777.47-1.801 1.59-.035 1.664-.072 3.339.066 4.995.085 1.037.654 1.717 1.94 1.628 1.664-.117 3.344-.03 5.1-.03zm51.948 6.876c0 3.22.034 6.369-.016 9.517-.021 1.257.05 2.31 1.757 2.318-2.966.122-5.866.278-8.734.037-.979-.082-2.085-.99-2.768-1.82-2.225-2.712-2.35-6.038-2.487-9.195 1.23-.135 2.456.027 3.35-.439 1.183-.616 1.99-.68 2.588.482.545 1.055 1.087 2.114 1.637 3.17.238.455.723.91.707 1.351-.064 1.757 1.18 3.795-1.228 5.083 1.675.5 2.784-.206 2.712-1.72-.135-2.918-.452-5.828-.698-8.781h3.177z"/></svg>