<svg xmlns="http://www.w3.org/2000/svg" xml:space="preserve" width="300.107" height="128.099" viewBox="0 0 79.403 33.893"><path d="M.144 5.207c-.053.317-.132.582-.132.9 0 1.984-.027 3.994 0 5.979 0 .264.08.555.106.82 4.154-.926 8.334-1.111 12.54-1.35-.131.715.133 1.297.795 1.694-.027.053-.027.106-.053.159l-1.27-.08c-.053 0-.106-.026-.133-.026-.079-.503-.476-.291-.714-.291-2.196-.027-4.392-.027-6.588-.053-.318 0-.609-.106-.926-.212-.45-.159-.635-.08-.662.37-.026.477-.026.927 0 1.403.027.45.291.582.715.423.29-.106.608-.211.9-.211 2.248-.027 4.47 0 6.72 0 .132 0 .29 0 .45-.027.026-.132.052-.238.105-.397 1.059 0 2.09-.026 3.149.053.397.027.74.318 1.138.45.476.159.979.317 1.481.397.688.106 1.376.106 2.09.185.397.053.768.212 1.165.238 1.243.053 2.513.291 3.677.08 1.43-.265 2.805-.08 4.207-.133 1.429-.026 2.884.027 4.313.053 3.043.053 6.112.132 9.155.238 1.666.053 3.36.133 5.053.238 1.64.106 3.254.239 4.895.397.132.027.264.08.37.186.424.45.609 1.005.688 1.587.106 1.164.609 2.143 1.376 3.016.662.741 1.482 1.244 2.46 1.429.715.132 1.456.291 2.17.238a5.1 5.1 0 0 0 2.434-.794c.688-.396 1.085-1.11 1.509-1.746.29-.397.45-.873.926-1.164.344-.212.608-.265.926-.08a9.5 9.5 0 0 1 2.698 2.435 14 14 0 0 1 1.323 2.17c.238.502.318 1.084.424 1.666.079.503.105 1.032.105 1.561.027.609.027 1.244.027 1.879 0 .608-.053 1.27.053 1.852a3.2 3.2 0 0 0 .688 1.376c.45.555 1.032.979 1.693 1.296.82.397 1.64.556 2.514.45 1.64-.212 2.99-.926 3.863-2.381.873-1.403 1.005-2.91.661-4.498-.159-.715-.291-1.429-.476-2.143-.318-1.297-.82-2.54-1.403-3.73-.952-1.959-2.248-3.679-3.73-5.24a30.7 30.7 0 0 0-4.842-4.207c-1.508-1.137-3.175-2.01-4.868-2.83-.98-.477-2.064-.82-3.122-1.085-1.165-.291-2.382-.45-3.546-.662-.397-.08-.635-.344-.608-.767.053-.582.211-1.19.185-1.746a14 14 0 0 0-.318-2.54c-.132-.582-.29-1.112-.026-1.64.026-.054.026-.107.026-.16 0-.052-.026-.105-.026-.158-.37-.186-.582 0-.635.317a6 6 0 0 0-.185 1.19c-.027.292 0 .61-.027.927-.026.847-.555 1.138-1.296.767s-1.508-.688-2.382-.582c-.687.08-1.693.74-1.957 1.376-.08.212-.053.344.132.476.397.291.767.582 1.164.873.212.159.423.185.661 0 .16-.132.37-.238.556-.344.238-.158.794-.053.873.212.133.397.185.847.265 1.27.053.238-.08.344-.318.344-.873-.027-1.772-.027-2.646-.053-.661-.026-.74-.212-.476-.767.106-.238.212-.424-.08-.582-.237-.133-.422-.133-.581.158-.133.212-.265.53-.635.477-.053 0-.133.079-.159.132-.238.503-.688.582-1.164.608H24.248c-.741 0-1.456-.37-2.196-.185-.847.238-1.72.159-2.567.185-.397.027-.794-.026-1.19-.052-1.535-.053-3.07-.053-4.63-.133-2.064-.08-4.155-.158-6.218-.344-2.011-.158-4.022-.423-6.033-.688-.45-.105-.82-.29-1.27-.45M55.019 17.06c.105.106.158.238.264.291.556.238 1.508 0 1.905-.423.106-.106.476-.133.503-.08.397.582.847 1.19 1.085 1.852.211.662.132 1.43-.08 2.117-.105.318-.026.45.344.476.053-.238.106-.476.212-.688.238-.555-.053-1.375.847-1.56.026 0 .053-.107.079-.133.344-.317.503-.82 1.058-.952.265-.053.503-.239.768-.37 0-.054.026-.107.026-.16.106.133.238.291.344.424.318.397.132.846.132 1.296.027.503-.105 1.058-.238 1.561-.106.318-.29.662-.582.82-.661.37-1.323.741-2.117.768-1.878.08-3.65-.159-4.815-1.905-.556-.82-.74-1.667-.238-2.593.159-.265.317-.476.503-.741"/></svg>