<svg xmlns="http://www.w3.org/2000/svg" xml:space="preserve" width="285.661" height="239.109" viewBox="0 0 75.581 63.264"><path d="m51.02 0 1.56.36 1.44 2.04.841 2.522q0 .96-.48 1.32l-9.964 5.042.72 1.08 7.563-2.16 1.56.84.961 2.161.24 3.001 2.281-.36 1.921.24 1.32 1.44 1.321 2.402 3.721 8.643.48 2.4-.24 1.441q-.6.36-.36 1.561l.48 2.401 8.764 19.087q.72 1.08.24 2.521l-1.68 1.681-7.684 3.361q-1.2.48-2.28 0-1.441-.48-1.921-1.68L54.74 43.817l-1.2-1.92q-.84-.841-1.32-.721-.361.24-1.201-.48l-.24-.12q-.72-.6-1.08-1.681l-1.201-1.2q-.72.12-1.08 1.32l-.961 3.721q-.12 1.321-1.56 2.161-1.201 1.08-2.522 1.08H29.171l-2.52.36-1.681.481-.96.48-1.201.24-.84-1.08-.48-2.401v-2.04q0-1.321-.721-2.762-.84-1.56-2.04-2.28l-3.482-2.162q-1.2 4.202-3.722 7.443-2.76 3.001-6.002 4.082v-1.2l-2.64-.36L.36 41.175l.48-.24 2.521 2.04h2.161v-4.801l-3.001-.48L0 33.133l.48-.48 2.521 2.52 2.521.12v-6.602l-4.682-.48V25.57l4.682-.72v-6.243l-2.52.12L.48 21.248l-.48-.48 2.521-4.562 3.001-.48v-4.682h-2.16L.84 12.965l-.48-.24 2.521-3.601 2.641-.36V7.562q3.481 1.2 6.122 4.442 2.521 3.24 3.722 7.803l2.4-1.08q1.321-.481 2.282-1.801.84-1.321 1.08-2.762l.48-4.681q0-1.32 1.2-2.161.961-1.08 2.402-1.2l12.485-.36 1.68.12z"/></svg>