<?xml version="1.0" encoding="UTF-8" standalone="no"?>
<!-- Created with Inkscape (http://www.inkscape.org/) -->

<svg
   width="83.77932mm"
   height="43.101665mm"
   viewBox="0 0 83.77932 43.101665"
   version="1.1"
   id="svg1"
   xml:space="preserve"
   xmlns:inkscape="http://www.inkscape.org/namespaces/inkscape"
   xmlns:sodipodi="http://sodipodi.sourceforge.net/DTD/sodipodi-0.dtd"
   xmlns="http://www.w3.org/2000/svg"
   xmlns:svg="http://www.w3.org/2000/svg"><sodipodi:namedview
     id="namedview1"
     pagecolor="#ffffff"
     bordercolor="#000000"
     borderopacity="0.25"
     inkscape:showpageshadow="2"
     inkscape:pageopacity="0.0"
     inkscape:pagecheckerboard="0"
     inkscape:deskcolor="#d1d1d1"
     inkscape:document-units="mm" /><defs
     id="defs1" /><g
     inkscape:label="Слой 1"
     inkscape:groupmode="layer"
     id="layer1"
     transform="translate(-82.335459,-103.90766)"><path
       d="M 4.75,-1.8 4.2,-1.55 3.95,-1 v 0.4 q 0,0.35 0.25,0.55 L 4.75,0.2 h 1 l 0.6,-0.25 q 0.2,-0.2 0.2,-0.55 V -1 L 6.35,-1.55 5.75,-1.8 h -1 M 8.5,-7.95 8.7,-7.6 h 1.7 l 0.55,0.2 0.2,0.55 v 3.35 l -0.25,0.6 0.5,1.1 q 0.45,0.6 1.25,1.25 1.9,1.45 3,5.7 Q 16,6.75 15.45,7.5 15,8.15 14.05,8.15 h -5.1 l -0.7,-0.4 q -0.1,-0.4 0.2,-0.7 L 9.55,6.4 10.4,6.05 10.25,5.1 9.85,3.4 8.75,1.8 8,1.05 H 5.65 L 4.8,1.6 H 2.5 L 2.05,1.45 v -0.2 l 0.65,-1.4 0.45,-1 h -6.1 q -2,0.85 -2.35,0.85 h -0.15 v 0.35 l -0.1,0.2 -0.2,0.1 L -6,0.25 -6.05,0.05 V -0.3 H -7 v 0.35 l -0.1,0.2 -0.15,0.1 -0.25,-0.1 -0.1,-0.2 V -0.3 h -0.85 v 0.35 l -0.1,0.2 -0.25,0.1 -0.25,-0.1 -0.05,-0.2 V -0.3 H -10 v 0.35 l -0.1,0.2 -0.2,0.1 -0.2,-0.1 -0.1,-0.2 V -0.3 h -0.95 v 0.35 l -0.05,0.2 -0.2,0.1 -0.25,-0.1 -0.1,-0.2 V -0.3 h -0.9 v 0.35 l -0.05,0.2 -0.25,0.1 -0.2,-0.1 -0.1,-0.2 V -0.3 h -0.6 q -0.3,0 -0.5,-0.25 L -15,-1.1 v -0.85 q -0.3,0 -0.55,-0.25 L -15.8,-2.75 V -6.8 l 0.25,-0.55 0.55,-0.2 h 2.15 l 0.3,-0.05 h 1.1 l 0.2,-0.35 0.4,-0.15 H 8.1 l 0.4,0.15"

       transform="matrix(2.6524098,0,0,2.6524098,124.24354,125.39218)"
 /></g></svg>
