<svg xmlns="http://www.w3.org/2000/svg" xmlns:xlink="http://www.w3.org/1999/xlink" width="128pt" height="128pt" viewBox="0 0 128 128" version="1.1">
<g id="surface1">
<path d="M 90.671875 49.644531 L 104.511719 47.253906 L 127.972656 70.179688 L 121.957031 75.960938 L 112.128906 66.390625 L 103.707031 75.164062 L 113.132812 84.535156 L 98.894531 98.691406 L 98.492188 99.488281 L 84.253906 113.84375 L 74.429688 104.074219 L 65.605469 112.648438 L 75.429688 122.417969 L 69.414062 128 L 46.351562 105.070312 L 48.757812 90.515625 C 42.875 89.453125 37.058594 87.460938 31.3125 84.535156 L 14.664062 72.574219 C 5.574219 63.269531 0.828125 51.238281 0.425781 36.484375 C 0.160156 25.984375 1.765625 15.816406 5.242188 5.980469 C 15.265625 1.992188 25.628906 0.265625 36.324219 0.796875 C 50.898438 1.328125 62.796875 6.179688 72.023438 15.351562 C 77.101562 20.402344 81.246094 25.917969 84.457031 31.898438 C 87.53125 37.75 89.601562 43.664062 90.671875 49.644531 "/>
</g>
</svg>