<svg xmlns="http://www.w3.org/2000/svg" xmlns:xlink="http://www.w3.org/1999/xlink" width="127pt" height="79pt" viewBox="0 0 127 79" version="1.1">
<g id="surface1">
<path d="M 77.667969 36.230469 L 69.511719 35.617188 L 62.175781 36.230469 C 60.273438 36.910156 59.320312 38.476562 59.320312 40.929688 C 59.320312 43.519531 60.410156 45.769531 62.582031 47.675781 C 64.621094 49.71875 67.203125 50.742188 70.328125 50.742188 C 73.320312 50.742188 75.832031 49.71875 77.871094 47.675781 C 79.910156 45.769531 80.929688 43.519531 80.929688 40.929688 C 80.929688 38.476562 79.84375 36.910156 77.667969 36.230469 M 101.316406 7.613281 L 100.089844 11.496094 C 101.992188 11.90625 103.691406 13.265625 105.1875 15.585938 C 106.820312 18.035156 108.109375 19.398438 109.0625 19.671875 L 112.117188 21.921875 C 112.664062 22.738281 112.730469 23.761719 112.324219 24.988281 L 111.507812 30.710938 C 115.71875 34.933594 119.457031 40.589844 122.71875 47.675781 C 125.164062 53.261719 126.59375 60.214844 127 68.527344 L 127 78.949219 L 100.90625 78.949219 L 102.945312 66.480469 C 104.03125 57.625 103.488281 51.082031 101.316406 46.859375 C 99.957031 43.996094 98.257812 41.886719 96.21875 40.523438 L 90.511719 38.070312 L 86.230469 41.136719 L 84.597656 44.609375 L 80.726562 49.925781 C 77.871094 52.515625 73.792969 53.742188 68.496094 53.605469 C 62.242188 53.332031 58.234375 50.8125 56.46875 46.042969 L 55.449219 40.929688 L 55.242188 37.25 C 54.835938 36.433594 53.679688 35.683594 51.777344 35.003906 L 47.089844 33.777344 L 43.421875 30.097656 L 41.992188 27.644531 L 37.101562 15.378906 L 0 15.378906 L 0 2.910156 L 37.101562 2.910156 L 37.101562 1.683594 L 79.707031 1.683594 L 80.726562 0.664062 L 82.355469 0.0507812 L 83.785156 0.867188 L 84.800781 2.910156 L 84.800781 7.613281 L 101.316406 7.613281 "/>
</g>
</svg>