<svg xmlns="http://www.w3.org/2000/svg" xmlns:xlink="http://www.w3.org/1999/xlink" width="128pt" height="42pt" viewBox="0 0 128 42" version="1.1">
<g id="surface1">
<path d="M 38.734375 16.535156 L 38.734375 19.109375 L 52.199219 19.109375 L 52.199219 16.535156 L 38.734375 16.535156 M 72.925781 3.222656 L 72.019531 2.917969 L 58.855469 2.917969 L 58.25 3.222656 L 58.097656 3.675781 L 58.097656 6.097656 L 73.078125 6.097656 L 73.078125 3.675781 L 72.925781 3.222656 M 73.984375 2.011719 L 74.894531 3.675781 L 74.894531 6.097656 L 76.859375 6.097656 L 78.222656 6.550781 L 78.523438 7.914062 L 78.523438 11.390625 L 82.308594 11.390625 L 83.519531 11.847656 L 84.121094 13.207031 L 84.121094 13.660156 L 86.996094 13.660156 L 88.207031 14.117188 L 88.660156 15.328125 L 88.660156 18.65625 L 88.8125 19.109375 L 90.628906 21.53125 L 92.292969 23.042969 L 94.5625 23.195312 L 96.832031 21.832031 L 99.707031 20.320312 L 102.582031 19.5625 L 128 19.5625 C 127.191406 21.984375 126.839844 24.859375 126.941406 28.1875 L 127.546875 32.421875 C 127.847656 33.53125 127.746094 34.339844 127.242188 34.84375 C 126.738281 35.347656 126.082031 35.5 125.277344 35.296875 L 100.160156 29.699219 L 97.890625 29.546875 L 96.226562 30.152344 L 91.386719 33.480469 C 89.265625 31.363281 87.351562 30.253906 85.636719 30.152344 L 83.820312 30.304688 L 83.820312 35.449219 L 80.945312 36.960938 L 80.945312 40.140625 L 80.339844 41.351562 L 79.128906 41.957031 L 52.351562 41.957031 L 50.988281 41.351562 L 50.382812 40.140625 L 50.382812 33.332031 L 44.9375 30.003906 L 38.734375 30.003906 L 38.734375 30.457031 L 38.128906 31.96875 L 37.070312 32.421875 L 20.726562 32.421875 L 19.519531 31.96875 L 18.914062 30.457031 L 18.914062 30.003906 L 5.144531 30.003906 L 5.144531 28.792969 L 0 27.582031 L 0 21.53125 L 5.144531 20.46875 L 5.144531 19.109375 L 18.914062 19.109375 L 18.914062 10.789062 L 19.519531 9.726562 C 19.71875 9.324219 20.121094 9.121094 20.726562 9.121094 L 27.535156 9.121094 L 27.535156 1.710938 L 28.140625 0.347656 L 29.351562 0.0429688 L 31.773438 0.0429688 L 32.832031 0.347656 L 33.4375 1.710938 L 33.4375 9.121094 L 37.070312 9.121094 L 37.976562 9.425781 L 38.582031 10.484375 L 54.164062 10.484375 L 54.164062 7.914062 L 54.769531 6.550781 L 55.980469 6.097656 L 56.285156 6.097656 L 56.285156 3.675781 L 57.039062 2.011719 C 57.445312 1.507812 58.050781 1.253906 58.855469 1.253906 L 72.019531 1.253906 L 73.984375 2.011719 "/>
</g>
</svg>