<svg xmlns="http://www.w3.org/2000/svg" xmlns:xlink="http://www.w3.org/1999/xlink" width="128pt" height="129pt" viewBox="0 0 128 129" version="1.1">
<g id="surface1">
<path d="M 74.5625 79.414062 C 79.121094 74.71875 81.742188 69.539062 82.433594 63.878906 C 83.398438 58.078125 82.15625 53.453125 78.707031 50.003906 C 75.253906 46.550781 70.628906 45.308594 64.828125 46.273438 C 59.167969 47.101562 53.988281 49.726562 49.292969 54.144531 C 44.738281 58.699219 42.113281 63.878906 41.425781 69.679688 C 40.59375 75.339844 41.90625 79.894531 45.359375 83.347656 C 48.8125 86.800781 53.367188 88.109375 59.027344 87.28125 C 64.828125 86.59375 70.007812 83.96875 74.5625 79.414062 M 77.046875 63.878906 L 76.21875 67.605469 L 74.976562 70.300781 L 70.835938 75.683594 C 67.246094 79.273438 63.308594 81.34375 59.027344 81.898438 C 55.023438 82.449219 51.847656 81.550781 49.5 79.203125 C 47.152344 76.859375 46.257812 73.683594 46.808594 69.679688 C 47.363281 65.398438 49.433594 61.460938 53.023438 57.871094 C 56.476562 54.421875 60.410156 52.347656 64.828125 51.660156 C 68.832031 51.105469 72.007812 52.003906 74.355469 54.351562 C 76.839844 56.699219 77.738281 59.875 77.046875 63.878906 M 124.273438 2.78125 C 126.480469 0.984375 127.722656 0.292969 128 0.710938 L 125.722656 4.4375 L 119.714844 12.515625 L 118.472656 14.171875 C 119.992188 15.550781 120.890625 17.554688 121.164062 20.175781 L 120.957031 24.527344 L 118.472656 27.425781 C 117.230469 28.117188 115.367188 29.359375 112.878906 31.15625 L 109.359375 34.054688 L 105.632812 37.574219 L 101.074219 43.167969 L 92.582031 59.738281 L 80.15625 82.3125 C 77.117188 87.007812 73.25 91.769531 68.554688 96.601562 L 55.921875 107.164062 L 54.265625 115.65625 L 41.007812 128.914062 L 32.105469 120.007812 L 28.996094 118.972656 L 21.125 114 L 14.914062 120.214844 L 8.492188 113.792969 L 14.707031 107.578125 L 9.734375 99.710938 L 8.699219 96.601562 L 0 87.695312 L 13.046875 74.441406 L 21.539062 72.992188 L 32.105469 60.152344 C 36.9375 55.457031 41.699219 51.589844 46.394531 48.550781 C 50.539062 45.789062 58.0625 41.648438 68.972656 36.125 L 85.539062 27.632812 L 94.859375 19.347656 L 97.554688 15.828125 L 101.28125 10.234375 L 104.179688 7.75 L 108.53125 7.542969 C 111.152344 7.820312 113.226562 8.71875 114.746094 10.234375 L 116.402344 8.992188 L 124.273438 2.78125 "/>
</g>
</svg>