<svg xmlns="http://www.w3.org/2000/svg" xmlns:xlink="http://www.w3.org/1999/xlink" width="128pt" height="64pt" viewBox="0 0 128 64" version="1.1">
<g id="surface1">
<path d="M 11.617188 15.824219 L 11.617188 16.804688 L 45.933594 16.523438 L 45.933594 15.964844 L 11.617188 15.824219 M 11.617188 11.484375 L 11.617188 12.605469 L 45.933594 12.324219 L 45.933594 11.765625 L 11.617188 11.484375 M 6.039062 15.683594 L 6.039062 17.085938 L 9.527344 16.804688 L 9.527344 15.683594 L 6.039062 15.683594 M 9.527344 12.605469 L 9.527344 11.484375 L 6.039062 11.484375 L 6.039062 12.882812 L 9.527344 12.605469 M 87.226562 0.421875 L 88.203125 0 L 89.039062 0.421875 L 89.320312 1.261719 L 89.320312 3.222656 L 103.964844 3.222656 L 105.082031 3.5 L 105.359375 4.480469 L 105.359375 4.902344 L 109.546875 4.902344 L 112.054688 4.203125 L 112.054688 3.5 L 112.613281 2.660156 L 113.453125 2.378906 L 113.589844 2.378906 L 114.429688 2.660156 L 114.847656 3.5 L 114.847656 4.203125 L 119.730469 4.621094 C 120.195312 5.179688 120.9375 5.601562 121.960938 5.882812 L 121.960938 5.179688 C 121.402344 4.902344 121.125 4.480469 121.125 3.921875 L 121.125 3.359375 L 121.683594 2.378906 L 122.519531 1.960938 L 126.5625 1.960938 L 127.539062 2.378906 L 127.960938 3.359375 L 127.960938 3.921875 C 127.960938 4.480469 127.773438 4.902344 127.402344 5.179688 L 127.402344 18.625 L 126.84375 19.886719 C 126.65625 20.914062 126.332031 21.472656 125.867188 21.566406 L 122.378906 21.707031 C 121.078125 21.988281 120.195312 22.40625 119.730469 22.96875 L 114.847656 23.386719 L 114.429688 24.226562 L 113.589844 24.507812 L 113.453125 24.507812 L 112.613281 24.226562 L 112.195312 23.386719 L 112.054688 23.386719 L 109.546875 22.6875 L 107.871094 22.6875 L 107.871094 24.226562 L 109.546875 24.226562 L 110.941406 24.367188 L 112.195312 24.929688 L 114.707031 26.328125 L 115.40625 27.027344 L 115.683594 28.289062 L 115.683594 59.9375 L 115.40625 61.199219 L 114.707031 62.039062 L 112.195312 63.300781 L 109.546875 64 L 87.085938 64 L 84.714844 63.300781 L 82.066406 62.039062 L 81.367188 61.199219 L 80.949219 59.9375 L 80.949219 59.378906 L 74.949219 59.378906 L 73.835938 59.097656 L 73.554688 58.257812 L 73.554688 49.15625 L 73.835938 48.175781 L 74.949219 47.894531 L 80.949219 47.894531 L 80.949219 28.289062 L 81.367188 27.027344 L 82.066406 26.328125 L 84.714844 24.929688 L 86.808594 24.226562 L 86.808594 23.527344 L 82.902344 23.386719 L 80.53125 22.828125 L 78.855469 22.125 C 78.113281 22.6875 77.367188 22.96875 76.625 22.96875 L 76.625 21.988281 L 73.972656 21.988281 L 73.972656 22.265625 L 73.695312 23.105469 C 73.417969 23.386719 73.136719 23.527344 72.859375 23.527344 C 72.484375 23.527344 72.160156 23.386719 71.882812 23.105469 L 71.601562 22.265625 L 71.601562 21.988281 L 70.347656 21.988281 L 70.347656 22.265625 L 70.066406 23.105469 C 69.789062 23.386719 69.464844 23.527344 69.089844 23.527344 C 68.8125 23.527344 68.535156 23.386719 68.253906 23.105469 L 67.976562 22.265625 L 67.976562 21.707031 L 66.71875 21.707031 L 66.71875 22.265625 L 66.300781 23.105469 C 66.117188 23.386719 65.835938 23.527344 65.464844 23.527344 C 65.09375 23.527344 64.8125 23.386719 64.628906 23.105469 C 64.347656 22.921875 64.210938 22.640625 64.210938 22.265625 L 64.210938 21.988281 L 62.953125 21.988281 L 62.953125 22.265625 L 62.675781 23.105469 C 62.394531 23.386719 62.117188 23.527344 61.835938 23.527344 C 61.464844 23.527344 61.140625 23.386719 60.859375 23.105469 L 60.582031 22.265625 L 60.582031 21.988281 L 59.328125 22.125 L 59.328125 22.265625 L 59.046875 23.105469 L 58.070312 23.527344 C 57.792969 23.527344 57.511719 23.386719 57.234375 23.105469 L 56.957031 22.265625 L 56.957031 22.125 L 55.699219 22.125 L 55.699219 22.265625 C 55.699219 22.640625 55.558594 22.921875 55.28125 23.105469 C 55.09375 23.386719 54.816406 23.527344 54.445312 23.527344 C 54.074219 23.527344 53.839844 23.386719 53.746094 23.105469 L 53.1875 22.265625 L 53.1875 22.125 L 52.074219 22.265625 C 52.074219 22.640625 51.933594 22.921875 51.65625 23.105469 C 51.46875 23.386719 51.191406 23.527344 50.816406 23.527344 C 50.539062 23.527344 50.257812 23.386719 49.980469 23.105469 L 49.5625 22.265625 L 49.5625 22.125 L 48.304688 21.988281 L 48.304688 22.265625 L 48.027344 23.105469 C 47.75 23.386719 47.515625 23.527344 47.332031 23.527344 C 46.957031 23.527344 46.679688 23.386719 46.492188 23.105469 L 45.933594 22.265625 L 45.933594 20.167969 L 11.617188 20.027344 C 11.433594 20.492188 11.0625 20.726562 10.503906 20.726562 L 9.945312 20.585938 L 9.527344 19.886719 L 6.039062 19.886719 L 5.480469 20.585938 L 4.921875 20.726562 L 4.226562 20.585938 L 3.945312 19.886719 L 3.390625 19.886719 C 3.015625 19.886719 2.738281 19.746094 2.550781 19.464844 L 1.992188 18.484375 L 2.132812 18.066406 L 0.0390625 16.664062 L 0.179688 11.484375 L 1.992188 10.222656 L 1.992188 10.082031 L 2.550781 8.960938 L 3.390625 8.683594 L 3.945312 8.683594 L 4.226562 7.984375 L 4.921875 7.703125 L 5.480469 7.984375 L 5.761719 8.683594 L 9.527344 8.402344 L 10.503906 7.703125 L 11.617188 8.402344 L 45.933594 7.984375 L 45.933594 4.621094 L 46.492188 3.78125 L 47.332031 3.359375 L 48.027344 3.78125 L 48.304688 4.621094 L 48.304688 6.023438 L 49.5625 5.882812 L 49.5625 4.621094 L 49.980469 3.78125 L 50.816406 3.359375 L 51.65625 3.78125 L 52.074219 4.621094 L 52.074219 5.601562 L 53.1875 5.601562 L 53.1875 4.621094 L 53.746094 3.78125 L 54.445312 3.359375 L 55.28125 3.78125 L 55.699219 4.621094 L 55.699219 5.882812 L 56.957031 5.882812 L 56.957031 4.621094 L 57.234375 3.78125 L 58.070312 3.359375 L 59.046875 3.78125 L 59.328125 4.621094 L 59.328125 5.882812 L 60.582031 6.023438 L 60.582031 4.621094 L 60.859375 3.78125 L 61.835938 3.359375 L 62.675781 3.78125 L 62.953125 4.621094 L 62.953125 6.023438 L 64.210938 6.023438 L 64.210938 4.621094 L 64.628906 3.78125 L 65.464844 3.359375 L 66.300781 3.78125 L 66.71875 4.621094 L 66.71875 6.023438 L 67.976562 6.160156 L 67.976562 4.621094 L 68.253906 3.78125 L 69.089844 3.359375 L 70.066406 3.78125 L 70.347656 4.621094 L 70.347656 5.882812 L 71.601562 5.882812 L 71.601562 4.621094 L 71.882812 3.78125 L 72.859375 3.359375 L 73.695312 3.78125 L 73.972656 4.621094 L 73.972656 5.882812 L 76.625 5.882812 L 76.625 4.761719 L 78.855469 5.601562 L 80.53125 5.179688 L 82.902344 4.480469 L 86.808594 4.203125 L 86.808594 1.261719 L 87.226562 0.421875 "/>
</g>
</svg>