<svg xmlns="http://www.w3.org/2000/svg" xmlns:xlink="http://www.w3.org/1999/xlink" width="130pt" height="28pt" viewBox="0 0 130 28" version="1.1">
<g id="surface1">
<path d="M 41.167969 7.992188 L 41.167969 9.4375 L 41.746094 9.4375 L 42.179688 9.292969 L 56.765625 9.292969 L 56.765625 7.992188 L 41.167969 7.992188 M 93.457031 13.203125 L 93.023438 13.347656 L 93.167969 14.074219 L 99.8125 22.183594 L 101.253906 21.457031 L 102.410156 20.15625 L 100.101562 14.652344 L 99.523438 13.925781 L 98.945312 13.347656 L 93.457031 13.203125 M 73.234375 13.203125 L 73.667969 13.636719 L 74.101562 14.074219 L 78.144531 14.074219 L 76.410156 11.464844 L 76.121094 11.03125 L 62.542969 11.03125 L 64.277344 12.046875 L 66.011719 13.203125 L 73.234375 13.203125 M 76.265625 2.777344 L 76.84375 2.199219 L 77.710938 2.199219 L 78.144531 2.632812 L 78.433594 2.777344 L 78.433594 3.9375 L 80.167969 3.9375 L 80.167969 0.460938 L 80.3125 0.0273438 L 82.332031 0.0273438 L 82.476562 0.460938 L 82.476562 3.9375 L 88.109375 3.9375 L 88.6875 4.371094 L 88.832031 4.515625 L 88.832031 6.253906 L 91.722656 6.253906 L 92.589844 6.398438 L 92.734375 7.265625 L 92.734375 8.136719 L 121.765625 8.136719 L 122.488281 7.992188 L 123.066406 7.121094 L 123.933594 5.382812 L 124.367188 4.660156 L 125.234375 4.660156 L 127.253906 5.238281 L 127.6875 5.671875 L 128.121094 6.542969 L 127.6875 13.203125 L 128.121094 15.519531 L 130 23.628906 L 130 24.789062 L 129.421875 25.222656 L 124.65625 27.972656 L 123.933594 27.972656 L 123.355469 27.539062 L 119.167969 20.300781 C 118.300781 18.851562 117.097656 17.980469 115.554688 17.691406 L 111.800781 18.5625 L 99.523438 24.933594 L 98.65625 24.933594 L 98.078125 24.5 L 92.300781 18.5625 L 88.832031 18.5625 L 88.253906 23.917969 L 87.246094 23.917969 C 87.726562 21.507812 87.050781 19.382812 85.222656 17.546875 L 82.042969 17.546875 L 81.035156 17.257812 L 80.167969 16.535156 L 79.445312 15.664062 L 74.101562 15.664062 L 73.8125 16.246094 L 73.234375 16.535156 L 66.011719 16.535156 L 64.277344 17.980469 L 62.109375 18.996094 L 43.621094 18.996094 L 42.898438 18.5625 L 42.464844 17.691406 L 42.464844 12.046875 L 43.042969 11.03125 L 42.179688 11.03125 L 41.746094 10.742188 L 38.421875 15.375 L 37.554688 15.953125 L 36.398438 16.390625 L 27.011719 16.390625 L 26.289062 15.953125 L 26.289062 15.375 L 29.898438 10.453125 L 30.765625 9.726562 L 30.765625 7.992188 L 0.722656 7.992188 C 0.242188 7.992188 0 7.84375 0 7.554688 L 0 4.515625 L 0.722656 3.9375 L 30.765625 3.9375 L 30.765625 2.921875 L 31.34375 2.632812 L 40.445312 2.632812 L 41.023438 2.921875 L 41.167969 3.355469 L 41.167969 3.9375 L 56.765625 3.9375 L 56.765625 2.777344 L 57.199219 2.632812 L 57.34375 2.199219 L 58.355469 2.199219 L 58.933594 2.632812 L 58.933594 3.9375 L 76.265625 3.9375 L 76.265625 2.777344 "/>
</g>
</svg>