<svg xmlns="http://www.w3.org/2000/svg" xmlns:xlink="http://www.w3.org/1999/xlink" width="128pt" height="173pt" viewBox="0 0 128 173" version="1.1">
<g id="surface1">
<path d="M 71.867188 73.308594 C 75.191406 73.308594 78.164062 72.085938 80.785156 69.648438 C 83.234375 67.035156 84.460938 63.988281 84.460938 60.503906 C 84.460938 56.847656 83.234375 53.800781 80.785156 51.363281 C 78.164062 48.921875 75.191406 47.703125 71.867188 47.703125 C 68.195312 47.703125 65.136719 48.921875 62.6875 51.363281 C 60.242188 53.800781 59.015625 56.847656 59.015625 60.503906 C 59.015625 63.988281 60.242188 67.035156 62.6875 69.648438 C 65.136719 72.085938 68.195312 73.308594 71.867188 73.308594 M 123.277344 3.550781 L 124.589844 6.949219 L 123.277344 10.082031 L 106.492188 26.804688 L 128 26.804688 L 128 35.6875 L 70.558594 92.902344 L 70.558594 154.816406 C 70.558594 158.824219 72.304688 160.828125 75.804688 160.828125 L 92.066406 160.828125 L 92.066406 172.84375 L 35.671875 172.84375 L 35.671875 160.828125 L 52.195312 160.828125 C 55.34375 160.828125 56.917969 158.824219 56.917969 154.816406 L 56.917969 92.902344 L 0 35.6875 L 0 26.804688 L 93.113281 26.804688 L 116.460938 3.550781 C 118.730469 1.289062 121.003906 1.289062 123.277344 3.550781 "/>
</g>
</svg>