<svg xmlns="http://www.w3.org/2000/svg" xmlns:xlink="http://www.w3.org/1999/xlink" width="129pt" height="41pt" viewBox="0 0 129 41" version="1.1">
<g id="surface1">
<path d="M 12.644531 14.152344 C 12.644531 15.417969 12.015625 16.050781 10.757812 16.050781 L 4.800781 16.050781 L 4.800781 24.949219 L 7.996094 27.722656 L 26.734375 27.722656 C 27.410156 27.722656 27.945312 28.015625 28.332031 28.597656 L 52.007812 28.453125 L 52.007812 28.160156 L 55.785156 22.03125 L 58.980469 16.925781 L 47.941406 17.21875 L 42.132812 19.113281 L 41.984375 19.113281 L 41.984375 20.136719 L 41.257812 20.71875 L 40.386719 20.136719 L 40.386719 19.113281 L 38.210938 19.113281 L 38.210938 20.136719 L 37.484375 20.71875 L 36.757812 20.136719 L 36.757812 19.113281 L 34.433594 19.113281 L 34.433594 20.136719 L 33.707031 20.71875 L 33.125 20.136719 L 33.125 19.113281 L 30.945312 19.113281 L 30.945312 20.136719 L 30.074219 20.71875 L 29.347656 20.136719 L 29.347656 19.113281 L 27.167969 19.113281 L 27.167969 20.136719 L 26.445312 20.71875 L 25.71875 20.136719 L 25.71875 19.113281 L 23.394531 19.113281 L 23.394531 20.136719 C 23.394531 20.523438 23.152344 20.71875 22.667969 20.71875 L 22.230469 20.136719 L 22.230469 19.113281 L 20.777344 19.113281 C 19.421875 19.113281 18.746094 18.53125 18.746094 17.363281 L 18.746094 15.027344 L 17.292969 14.152344 L 12.644531 14.152344 M 74.085938 23.636719 L 74.085938 23.34375 L 73.503906 22.03125 L 72.199219 21.449219 L 65.808594 21.449219 L 64.355469 22.03125 L 63.773438 23.34375 L 63.773438 23.636719 L 64.355469 25.097656 L 65.808594 25.535156 L 72.199219 25.535156 L 73.503906 25.097656 L 74.085938 23.636719 M 119.84375 29.765625 C 120.90625 28.695312 121.441406 27.429688 121.441406 25.972656 C 121.441406 24.414062 120.90625 23.152344 119.84375 22.179688 C 118.777344 21.109375 117.519531 20.574219 116.066406 20.574219 C 114.515625 20.574219 113.257812 21.109375 112.289062 22.179688 C 111.125 23.152344 110.546875 24.414062 110.546875 25.972656 C 110.546875 27.429688 111.125 28.695312 112.289062 29.765625 C 113.257812 30.738281 114.515625 31.222656 116.066406 31.222656 C 117.519531 31.222656 118.777344 30.738281 119.84375 29.765625 M 105.605469 19.699219 C 104.734375 18.820312 103.816406 18.382812 102.847656 18.382812 C 101.78125 18.382812 100.8125 18.820312 99.941406 19.699219 C 99.359375 20.378906 99.070312 21.300781 99.070312 22.46875 C 99.070312 23.539062 99.359375 24.414062 99.941406 25.097656 C 100.8125 25.875 101.78125 26.261719 102.847656 26.261719 C 103.816406 26.261719 104.734375 25.875 105.605469 25.097656 C 106.382812 24.414062 106.769531 23.539062 106.769531 22.46875 C 106.769531 21.300781 106.382812 20.378906 105.605469 19.699219 M 93.695312 18.09375 C 92.824219 17.21875 91.855469 16.78125 90.789062 16.78125 C 89.628906 16.78125 88.660156 17.21875 87.886719 18.09375 C 87.109375 18.773438 86.722656 19.746094 86.722656 21.011719 C 86.722656 22.179688 87.109375 23.199219 87.886719 24.074219 C 88.660156 24.753906 89.628906 25.097656 90.789062 25.097656 C 91.855469 25.097656 92.824219 24.753906 93.695312 24.074219 L 95.003906 21.011719 L 93.695312 18.09375 M 77.863281 1.75 L 78.300781 3.0625 L 78.300781 11.378906 L 77.863281 12.695312 L 76.410156 13.859375 L 75.105469 14.300781 L 82.949219 21.886719 L 84.253906 16.488281 C 84.738281 15.515625 85.902344 14.785156 87.742188 14.300781 L 92.097656 13.859375 L 105.027344 15.613281 L 117.808594 17.21875 L 121.441406 16.632812 L 123.765625 15.757812 L 126.085938 16.195312 L 128.847656 17.65625 L 128.265625 26.699219 L 127.25 36.476562 L 126.523438 39.394531 C 126.136719 40.171875 125.507812 40.609375 124.636719 40.707031 C 123.859375 40.902344 122.554688 40.417969 120.714844 39.25 L 118.390625 37.5 C 116.550781 36.136719 114.320312 34.773438 111.707031 33.414062 C 106.1875 30.398438 101.25 28.597656 96.890625 28.015625 L 90.644531 28.453125 L 87.742188 29.472656 L 86.289062 30.785156 L 84.109375 31.222656 L 81.785156 30.785156 L 78.007812 26.992188 L 63.191406 26.992188 L 61.59375 23.492188 L 60.140625 23.492188 L 59.707031 27.140625 L 61.304688 27.140625 C 61.789062 27.140625 62.175781 27.332031 62.464844 27.722656 L 63.046875 29.179688 L 63.046875 29.472656 L 62.464844 30.785156 L 61.304688 31.078125 L 53.894531 31.078125 L 52.734375 30.933594 L 52.007812 30.203125 L 28.332031 30.347656 C 27.847656 30.835938 27.316406 31.078125 26.734375 31.078125 L 2.039062 31.078125 L 2.039062 16.050781 C 0.78125 16.050781 0.152344 15.417969 0.152344 14.152344 L 0.152344 4.085938 C 0.152344 2.917969 0.78125 2.335938 2.039062 2.335938 L 10.757812 2.335938 L 12.5 3.355469 L 17 3.355469 C 17 2.089844 17.632812 1.460938 18.890625 1.460938 L 43.730469 1.460938 L 44.746094 1.3125 L 47.214844 1.3125 C 47.410156 0.535156 47.894531 0.144531 48.667969 0.144531 L 71.035156 0 L 71.90625 0.292969 L 72.488281 1.019531 L 76.554688 1.019531 L 77.863281 1.75 "/>
</g>
</svg>