<svg xmlns="http://www.w3.org/2000/svg" xmlns:xlink="http://www.w3.org/1999/xlink" width="127pt" height="119pt" viewBox="0 0 127 119" version="1.1">
<g id="surface1">
<path d="M 62.960938 119 C 51.847656 119 41.449219 116.113281 31.769531 110.34375 L 56.507812 67.074219 L 63.5 68.695312 L 69.953125 67.074219 L 95.230469 110.34375 C 85.191406 116.113281 74.433594 119 62.960938 119 M 31.769531 0 L 56.507812 43.8125 L 51.667969 48.140625 L 50.054688 55.171875 L 0.0390625 55.171875 C 0.0390625 43.992188 2.726562 33.535156 8.105469 23.800781 C 13.84375 13.703125 21.730469 5.769531 31.769531 0 M 63.5 47.058594 L 68.878906 49.761719 L 71.566406 55.171875 L 68.878906 61.121094 C 67.445312 62.566406 65.652344 63.285156 63.5 63.285156 C 60.988281 63.285156 59.019531 62.566406 57.585938 61.121094 L 55.433594 55.171875 L 57.585938 49.761719 L 63.5 47.058594 M 95.230469 0 C 104.910156 5.769531 112.621094 13.523438 118.355469 23.257812 C 124.09375 33.355469 126.960938 43.992188 126.960938 55.171875 L 76.945312 55.171875 L 74.792969 48.140625 L 69.953125 43.8125 L 95.230469 0 "/>
</g>
</svg>