<svg xmlns="http://www.w3.org/2000/svg" xmlns:xlink="http://www.w3.org/1999/xlink" width="126pt" height="30pt" viewBox="0 0 126 30" version="1.1">
<g id="surface1">
<path d="M 10.378906 8.046875 L 10.378906 9.21875 L 21.78125 9.21875 L 21.632812 8.925781 L 21.339844 8.046875 L 10.378906 8.046875 M 74.402344 1.464844 L 74.984375 0.4375 L 76.007812 0 L 76.15625 0 L 77.179688 0.4375 L 77.472656 1.464844 L 77.472656 3.804688 L 82.734375 7.316406 L 87.265625 8.195312 L 94.425781 9.074219 L 111.96875 10.976562 C 120.542969 11.953125 125.023438 12.730469 125.414062 13.316406 C 125.707031 13.804688 125.414062 15.21875 124.539062 17.5625 L 122.054688 22.828125 C 121.761719 24 121.613281 25.511719 121.613281 27.367188 L 121.613281 30 L 112.113281 26.046875 L 97.640625 18.4375 C 94.816406 16.585938 92.332031 15.367188 90.1875 14.78125 L 87.703125 14.339844 L 86.535156 16.097656 C 86.535156 16.78125 87.070312 17.902344 88.140625 19.464844 L 90.773438 23.707031 L 91.941406 27.367188 L 82.585938 28.390625 L 81.855469 27.367188 L 82.441406 25.316406 C 82.539062 23.5625 82.097656 21.757812 81.125 19.902344 L 79.808594 16.976562 L 78.640625 14.925781 C 77.664062 13.855469 74.9375 13.316406 70.453125 13.316406 L 53.644531 13.316406 C 53.839844 13.902344 53.546875 14.195312 52.769531 14.195312 L 26.457031 14.195312 C 25.582031 14.195312 24.800781 13.855469 24.117188 13.171875 L 4.09375 13.171875 L 3.214844 13.609375 L 2.191406 13.609375 C 1.21875 13.609375 0.730469 13.074219 0.730469 12 L 0.730469 10.390625 C 0.730469 9.414062 1.21875 8.925781 2.191406 8.925781 L 3.214844 8.925781 L 3.800781 9.074219 L 3.800781 8.046875 L 0.148438 8.046875 L 0.148438 4.390625 L 5.703125 4.390625 L 5.703125 1.757812 C 5.703125 0.976562 6.089844 0.585938 6.871094 0.585938 C 7.550781 0.585938 7.894531 0.976562 7.894531 1.757812 L 7.894531 4.390625 L 52.476562 4.390625 L 52.476562 3.367188 L 53.058594 2.488281 C 53.351562 2.097656 53.695312 1.902344 54.082031 1.902344 L 74.402344 1.902344 L 74.402344 1.464844 "/>
</g>
</svg>