<svg xmlns="http://www.w3.org/2000/svg" xmlns:xlink="http://www.w3.org/1999/xlink" width="128pt" height="128pt" viewBox="0 0 128 128" version="1.1">
<g id="surface1">
<path d="M 114.59375 0 C 118.363281 0 121.574219 1.328125 124.230469 3.980469 C 126.742188 6.496094 128 9.636719 128 13.40625 C 128 17.039062 126.742188 20.179688 124.230469 22.835938 L 109.355469 37.707031 C 111.03125 40.222656 111.660156 43.085938 111.242188 46.296875 C 111.101562 49.648438 109.84375 52.441406 107.46875 54.675781 L 99.71875 62.429688 C 98.183594 63.824219 95.949219 64.664062 93.015625 64.941406 L 85.683594 64.3125 L 75.417969 74.789062 L 76.464844 82.960938 C 76.324219 86.03125 75.488281 88.476562 73.949219 90.292969 L 48.183594 115.847656 C 46.367188 117.664062 44.203125 118.851562 41.6875 119.410156 L 41.6875 123.808594 C 41.6875 125.066406 41.269531 126.042969 40.433594 126.742188 C 39.734375 127.582031 38.824219 128 37.707031 128 L 34.777344 126.742188 L 33.519531 123.808594 L 33.519531 119.203125 L 28.492188 115.847656 L 12.152344 99.507812 L 9.007812 94.480469 L 4.191406 94.480469 C 2.933594 94.480469 1.886719 94.0625 1.046875 93.222656 L 0 90.5 L 1.046875 87.359375 L 4.191406 86.3125 L 8.589844 86.3125 C 9.289062 83.796875 10.476562 81.703125 12.152344 80.027344 L 37.917969 54.257812 C 39.453125 52.582031 41.828125 51.675781 45.039062 51.535156 L 53.210938 52.164062 L 63.265625 41.898438 C 62.289062 35.472656 63.058594 31.003906 65.570312 28.492188 L 73.324219 20.738281 C 75.695312 18.367188 78.488281 17.039062 81.703125 16.757812 C 84.773438 16.480469 87.707031 17.179688 90.5 18.855469 L 95.949219 13.199219 L 94.898438 12.988281 C 93.363281 12.710938 91.757812 13.269531 90.082031 14.664062 L 88.195312 17.179688 L 85.472656 14.246094 L 97.832031 1.886719 L 100.976562 8.171875 L 105.164062 3.980469 C 107.820312 1.328125 110.960938 0 114.59375 0 M 114.59375 4.609375 C 112.21875 4.609375 110.191406 5.445312 108.515625 7.121094 L 104.957031 10.894531 L 117.316406 23.253906 L 120.878906 19.484375 C 122.554688 17.808594 123.390625 15.78125 123.390625 13.40625 C 123.390625 10.894531 122.554688 8.796875 120.878906 7.121094 C 119.0625 5.445312 116.964844 4.609375 114.59375 4.609375 "/>
</g>
</svg>