<?xml version="1.0" encoding="UTF-8"?>
<svg id="Layer_1" data-name="Layer 1" xmlns="http://www.w3.org/2000/svg" viewBox="0 0 587 585">
  <defs>
    <style>
      .cls-1, .cls-2 {
        stroke-width: 0px;
      }

      .cls-2 {
        fill: #fff;
      }
    </style>
  </defs>
  <g id="BPAWGv.tif">
    <g>
      <path class="cls-2" d="m587,585H0V0h587v585Zm-329.59-203.55c9.12-9.73,17.55-19.41,26.67-28.37,94.99-93.36,190.11-186.58,285.07-279.97,2.4-2.36,4.22-5.97,4.95-9.29,2.84-13.01,5.13-26.15,7.62-39.24,1.42-7.45,2.83-14.9,4.37-23-2.22.13-3.67.12-5.08.32-8.23,1.17-16.43,2.61-24.69,3.52-4.42.49-7.59,2.41-10.7,5.48-32.23,31.81-64.52,63.56-96.98,95.13-4.35,4.24-7.27,8.78-8.64,14.69-1.37,5.89-3.39,11.63-5.24,17.82-3.93-1.81-7.04-3.34-10.24-4.66-1.14-.47-3.14-1.07-3.62-.56-5.14,5.52-11.22,10.62-14.69,17.1-3.75,7-4.99,15.34-7.47,23.58-3.91-1.7-7.17-3.3-10.58-4.49-1.35-.47-3.67-.67-4.45.11-6.36,6.36-14.17,11.53-15.81,21.64-.99,6.12-3.52,11.98-5.48,18.35-4.03-1.84-7.29-3.49-10.68-4.79-1.2-.46-3.34-.67-4.01.02-5.87,6.12-13.53,10.74-15.19,20.31-1.11,6.44-3.61,12.63-5.64,19.43-4.08-1.82-7.33-3.46-10.73-4.68-1.32-.47-3.55-.59-4.39.19-5.93,5.48-12.27,10.53-13.76,19.48-1.05,6.26-3.58,12.27-5.56,18.74-3.95-1.79-7.06-3.38-10.32-4.58-1.36-.5-3.63-.85-4.46-.11-3.79,3.38-7.8,6.53-9.1,12.08-1.74,7.4-4.24,14.62-6.6,22.53-3.86-1.74-7.09-3.38-10.46-4.62-1.34-.49-3.76-.72-4.39.03-2.92,3.46-5.9,7.06-7.87,11.1-1.95,3.98-2.69,8.56-4.01,12.85-3.04,9.88-3.12,10.02-12.57,5.47-3.14-1.51-4.98-.91-7.39,1.35-2.59,2.41-5.76,4.28-8.88,6.02-6.94,3.88-14.95,6.43-20.83,11.5-12.07,10.42-23.46,21.75-34.18,33.56-3.27,3.61-5.92,10.91-4.46,14.92,1.87,5.15,3.28,8.28.48,13.75-1.64,3.2-2.46,2.81-4.63,2.26-.96-.24-1.86-.69-2.58-.96.19,2.72,1.3,5.56.35,7.24-3.82,6.77-6.79,14.24-13.21,19.23-3.23,2.51-6.82,4.62-9.73,7.45-21.47,20.9-42.84,41.9-64.16,62.95-5.38,5.31-10.46,10.93-15.73,16.36-.79.82-1.98,2.11-2.74,1.96-6.13-1.2-10.43,3.77-16.05,4.65-3.03.47-5.52,4.53-8.2,7.02-1.21,1.13-2.05,2.95-3.44,3.51-3.8,1.53-6.38,4.07-4.32,7.87,1.62,2.99-1.11,6.36,2.54,9.28,6.59,5.28,12.24,11.73,18.3,17.68,2.23,2.19,10.92,4.01,13.71,2.68,1.07-.51,1.81-1.71,2.67-2.63,1.55-1.65,3.02-3.38,4.62-4.98,2.03-2.03,4.78-3.61,6.1-6,2.43-4.41,4.06-9.27,5.99-13.96.17-.42.28-1.11.06-1.41-2.52-3.42.25-5.18,2.28-6.98,8.79-7.81,17.79-15.39,26.45-23.35,9.31-8.55,18.35-17.39,27.46-26.16,9.68-9.32,19.31-18.69,28.97-28.03.71-.69,1.87-1.17,2.18-1.99,2.1-5.56,7.02-5.74,11.76-6.84,4.25-.99,8.31-2.88,12.37-4.58,3.13-1.31,6.03-3.2,9.2-4.37,7.74-2.84,15.82-4.88,23.32-8.25,5.73-2.58,9-7.71,8.84-14.5-.03-1.2.42-2.77,1.23-3.58,9.58-9.45,19.26-18.78,29.13-28.35,4.37,4.68,8,2.35,11.48-1.14,1.53-1.53,3.11-3.02,4.59-4.59,4.44-4.73,4.48-5.73,1.19-10.19Z"/>
      <path class="cls-1" d="m257.41,381.45c3.28,4.46,3.25,5.46-1.19,10.19-1.48,1.58-3.06,3.06-4.59,4.59-3.48,3.49-7.1,5.82-11.48,1.14-9.87,9.57-19.55,18.9-29.13,28.35-.81.8-1.26,2.38-1.23,3.58.15,6.79-3.11,11.92-8.84,14.5-7.49,3.37-15.57,5.41-23.32,8.25-3.17,1.16-6.07,3.06-9.2,4.37-4.06,1.7-8.12,3.59-12.37,4.58-4.74,1.1-9.66,1.28-11.76,6.84-.31.82-1.47,1.3-2.18,1.99-9.66,9.34-19.29,18.71-28.97,28.03-9.11,8.76-18.15,17.61-27.46,26.16-8.66,7.95-17.66,15.53-26.45,23.35-2.03,1.81-4.8,3.56-2.28,6.98.22.3.11.99-.06,1.41-1.93,4.69-3.56,9.55-5.99,13.96-1.32,2.39-4.07,3.98-6.1,6-1.6,1.6-3.07,3.33-4.62,4.98-.86.92-1.61,2.12-2.67,2.63-2.8,1.33-11.49-.49-13.71-2.68-6.06-5.95-11.71-12.4-18.3-17.68-3.64-2.92-.92-6.28-2.54-9.28-2.05-3.8.52-6.34,4.32-7.87,1.39-.56,2.24-2.38,3.44-3.51,2.68-2.5,5.17-6.55,8.2-7.02,5.62-.88,9.92-5.85,16.05-4.65.76.15,1.95-1.14,2.74-1.96,5.27-5.43,10.35-11.05,15.73-16.36,21.32-21.05,42.69-42.05,64.16-62.95,2.91-2.83,6.5-4.94,9.73-7.45,6.42-4.99,9.39-12.45,13.21-19.23.95-1.68-.16-4.52-.35-7.24.71.27,1.62.72,2.58.96,2.17.55,2.99.94,4.63-2.26,2.8-5.47,1.39-8.6-.48-13.75-1.46-4.01,1.18-11.32,4.46-14.92,10.72-11.81,22.11-23.14,34.18-33.56,5.87-5.07,13.89-7.62,20.83-11.5,3.12-1.74,6.29-3.6,8.88-6.02,2.42-2.26,4.26-2.86,7.39-1.35,9.45,4.55,9.53,4.41,12.57-5.47,1.32-4.3,2.06-8.87,4.01-12.85,1.97-4.03,4.95-7.63,7.87-11.1.63-.75,3.05-.52,4.39-.03,3.38,1.24,6.6,2.88,10.46,4.62,2.36-7.91,4.86-15.13,6.6-22.53,1.31-5.55,5.32-8.7,9.1-12.08.83-.74,3.1-.4,4.46.11,3.25,1.2,6.36,2.79,10.32,4.58,1.98-6.47,4.52-12.48,5.56-18.74,1.49-8.94,7.84-13.99,13.76-19.48.84-.78,3.08-.66,4.39-.19,3.4,1.22,6.65,2.86,10.73,4.68,2.03-6.8,4.53-13,5.64-19.43,1.65-9.57,9.32-14.19,15.19-20.31.66-.69,2.81-.48,4.01-.02,3.39,1.3,6.65,2.95,10.68,4.79,1.96-6.37,4.48-12.24,5.48-18.35,1.64-10.11,9.45-15.28,15.81-21.64.78-.78,3.1-.58,4.45-.11,3.41,1.19,6.67,2.8,10.58,4.49,2.48-8.24,3.72-16.58,7.47-23.58,3.47-6.48,9.56-11.58,14.69-17.1.48-.51,2.48.09,3.62.56,3.2,1.33,6.31,2.86,10.24,4.66,1.85-6.19,3.87-11.93,5.24-17.82,1.37-5.9,4.29-10.45,8.64-14.69,32.45-31.58,64.75-63.32,96.98-95.13,3.11-3.07,6.29-4.99,10.7-5.48,8.26-.92,16.46-2.35,24.69-3.52,1.42-.2,2.86-.19,5.08-.32-1.54,8.1-2.95,15.55-4.37,23-2.49,13.09-4.78,26.22-7.62,39.24-.72,3.33-2.54,6.93-4.95,9.29-94.96,93.39-190.08,186.61-285.07,279.97-9.12,8.97-17.55,18.64-26.67,28.37Zm-81.84,66.52c14.97-.39,28.53-7.93,29.76-16.19-4.64,1.66-5.7,13.05-13.85,4.24-2.68,5.34-6.09,4.57-9.74,1.11-2.12,3.73-3.97,6.99-6.16,10.84Zm-18.46,4.87c12.19-1.82,15.49-4.22,16.23-10.39-4.8,3.08-9.99,6.4-16.23,10.39Z"/>
      <path class="cls-2" d="m175.56,447.97c2.19-3.85,4.04-7.11,6.16-10.84,3.65,3.46,7.07,4.23,9.74-1.11,8.15,8.8,9.22-2.58,13.85-4.24-1.23,8.26-14.79,15.81-29.76,16.19Z"/>
      <path class="cls-2" d="m157.11,452.84c6.23-3.99,11.42-7.32,16.23-10.39-.74,6.17-4.04,8.57-16.23,10.39Z"/>
    </g>
  </g>
</svg>