<svg id="Layer_1" data-name="Layer 1" xmlns="http://www.w3.org/2000/svg" viewBox="0 0 597.51 597.51">
  <g id="iDrU8X.tif">
    <g>
      <path class="cls-1" d="m132.6,505.92c-1.19-9.74,4.68-16.87,8.18-25.04-.92.51-1.85,1.01-3.69,2.02.33-5.85-.46-11.34,1.17-16,2.27-6.5,4.5-12.48,1.99-19.41-1.46-4.02-.88-7.77.95-12.14,1.68-4.02-.03-9.44-.26-14.54-4.25,1.65-7.84,1.32-6.2-3.29,4.37-12.29,1.46-25.19,3.99-37.57.9-4.38,1.45-8.84,2.25-13.78-3.94,1.77-8.04,4.42-11.14-1.64,2.14-3.82,4.51-7.98,6.79-12.19.26-.49.09-1.26-.02-1.88-.59-3.32,1.11-5.23,3.18-7.8,4.07-5.04,10.05-9.2,8.95-17.54-.48-3.68,2.3-7.79,3.63-11.69,3.17-9.29,6.17-18.64,9.61-27.82,1.59-4.24,4.03-8.16,6.13-12.2.76-1.46,1.67-2.84,2.43-4.3,3.54-6.76,7.09-13.51,10.56-20.3,2.66-5.21,6.1-10.28,7.41-15.83.64-2.73-1.06-6.29,1.71-8.75,4.15-3.68,8.75-6.87,12.69-10.75,2.9-2.86,4.84-6.67,7.57-9.74,4.6-5.18,9.47-10.13,14.25-15.15,6.08-6.4,12.51-12.51,18.19-19.25,6.38-7.57,11.67-16.08,18.23-23.48,4.82-5.44,10.8-9.89,16.49-14.51,3-2.43,7.02-3.76,9.63-6.49,8.08-8.44,17.38-15.5,25.77-23.59,3.91-3.78,8.61-6.73,12.85-10.19,3.4-2.78,6.55-5.87,9.95-8.65,7.9-6.46,16.08-12.58,23.75-19.3,4.65-4.07,8.52-9.02,12.82-13.49,4.3-4.47,8.8-8.74,13.04-13.26,7.75-8.28,17.06-13.81,27.94-16.96,5.77-1.67,11.51,2.61,10.86,9.09-.88,8.82-2.55,17.55-3.53,26.37-.26,2.34.79,4.83,2.03,7.05-.55,3.18-1.33,6.33-1.6,9.53-.45,5.38-2.76,9.4-7.5,12.07-5.22,2.93-10.19,6.36-15.6,8.86-4.68,2.17-9.9,3.14-14.74,5-4.77,1.83-9.37,4.12-14.63,6.47,2.25,1.87,3.39,2.82,5.82,4.84-3.37.99-5.68,1.59-7.93,2.36-3.74,1.27-7.68,2.2-11.11,4.06-8.72,4.73-17.24,9.84-25.76,14.95-.96.58-1.16,2.32-2.03,3.19-8.78,8.8-17.38,17.81-26.55,26.2-7.8,7.15-15.42,14.37-21.94,22.74-2.4,3.08-5.65,5.53-7.88,8.71-5.2,7.43-10.55,14.85-14.76,22.85-2.19,4.17-2.03,9.56-3.06,14.37-.18.83-.94,1.55-1.49,2.27-3.37,4.45-6.81,8.84-10.11,13.33-3.34,4.53-6.76,9.02-9.71,13.8-1.26,2.04-1.41,4.76-2.09,7.17-.71,2.51-1.44,5.01-2.47,8.57-1.18-2.03-1.78-3.08-2.65-4.57-2,3.59-3.69,6.84-5.58,9.98-1.74,2.89-3.57,5.74-5.57,8.44-4.75,6.4-10.2,12.38-14.2,19.21-1.86,3.17-1,7.93-1.3,11.08-1.35,2.01-2.91,3.41-3.34,5.1-4.11,16.01-5.49,32.35-5.47,48.84,0,1.49-.63,2.98-.97,4.46-1.35,5.91-3.21,11.35,1.06,17.51,3.14,4.54.59,10.84.21,16.35-.18,2.64-1.46,5.48-.79,7.81.66,2.29,3.16,4.05,5.16,6.4-1.39.37-2.25.6-3.63.97,1.97,1.51,4.66,2.52,5.18,4.2,1.01,3.29,1.74,7.2.9,10.41-1.39,5.33-.05,9.01,4.04,12.21,4.41,3.45,6.04,8.15,6.18,14.18h-7.97c0,9.91-.34,19.87.11,29.79.37,8.26,6.87,12.86,12.61,17.38,6.9,5.43,12,9.41,6.33,18.42-3.07,4.88-6.13,10.09-7.54,15.58-1.33,5.19-.8,10.95-.52,16.43.54,10.73-1.83,15.15-11.21,19.75-3.02,1.48-6.52,5.07-8.77,4.37-3.59-1.11-6.82-4.61-9.29-7.8-4.16-5.37-7.66-11.26-11.32-17-1.91-3-3.9-6.01-5.27-9.27-2.36-5.59-4.3-11.36-6.33-17.08-1.5-4.21-2.92-8.44-4.25-12.7-.4-1.28-.38-2.69-1.45-3.21-1.31-1.06-3.35-1.88-3.8-3.23-1.38-4.12-4.21-8.24-.06-12.82.98-1.08-.69-4.58-1.17-7.12-5.18,2.63-6.95,9.63-14.34,8.59Z"/>
    </g>
  </g>
</svg>