<svg id="Layer_1" data-name="Layer 1" xmlns="http://www.w3.org/2000/svg" viewBox="0 0 510.53 510.53">
  <g id="aXZfly.tif">
    <g>
      <path class="cls-1" d="m176.56,289.82c-7.49-7.26-14.35-13.91-21.68-21.02,2.59-2.25,4.83-4.2,7.4-6.44,6.43,6.61,12.95,13.32,19.7,20.26,1.68-1.56,2.85-2.57,3.94-3.66,47.23-47.2,94.56-94.3,141.6-141.69,9.97-10.04,21.62-17.14,33.89-23.73,8.7-4.67,17.06-10.05,25.26-15.57,11.67-7.85,23.2-15.94,34.54-24.27,6.3-4.63,12.14-9.9,18.12-14.96,6.19-5.24,12.29-10.57,19.26-16.58,0,5.51-.14,10.33.03,15.13.49,14.28-2.12,28.08-7.67,41.11-3.35,7.87-7.79,15.38-12.52,22.54-12.36,18.75-29.38,33.33-45.09,49.04-22.55,22.54-45.22,44.96-67.93,67.34-19.64,19.36-39.47,38.53-59.04,57.96-3.46,3.44-6.05,7.75-8.93,11.53-10.8-4-19.66,1.01-19.84,10.69,0,.14-.09.32-.03.42,4.02,6.64-1.45,9.81-5.55,13.86,5.81,5.89,11.44,11.6,16.82,17.04-2.36,2.71-4.22,4.84-6.32,7.24-5.49-5.49-11.13-10.23-15.61-15.89-4.25-5.37-9.47-5.14-14.61-3.73-11.98,3.28-20.59,10.57-24.16,22.97-.81,2.83-1.93,5.11-5.78,5.17-13.08.21-22.89,10.33-24.1,23.21-.22,2.29-.63,3.51-3.18,3.73-15.55,1.39-21.35,8.27-23.95,22.6-.8,4.41-2.49,5.92-7.05,6.25-11.3.82-18.37,7.64-23.73,17.33-4.71,8.51-5.54,17.84-7.31,26.96-1.72,8.89-4.25,11.82-12.65,12.88-12.78,1.61-23.62-2.59-31.89-11.92-8.7-9.81-12.11-21.51-6.71-34.65,1.88-4.57,5.49-8.68,9.04-12.28,39.1-39.72,78.36-79.28,117.5-118.95,2.94-2.98,5.36-6.46,8.21-9.94Z"/>
    </g>
  </g>
</svg>