<svg id="Layer_1" data-name="Layer 1" xmlns="http://www.w3.org/2000/svg" viewBox="0 0 466.1 466.1">
  
  <g id="_29TRiw.tif" data-name="29TRiw.tif">
    <g>
      
      <path class="cls-1" d="m118.89,379.66c-1.11.48-2.89,1.34-4.73,2.04-1.6.61-3.24,1.33-4.9,1.47-2.93.24-5.94.41-8.83,0-8.89-1.28-11.58,6.43-16.3,11.05-10.33,10.13-20.46,20.47-30.7,30.69-1.41,1.41-3.28,2.43-4.44,3.99-.86,1.17-1.38,2.97-1.25,4.42.34,3.8-2.67,7.73-7.81,8.84-4.99,1.08-10.08,1.73-15.14,2.39-.75.1-2.34-.75-2.34-1.19-.05-2.64.12-5.3.47-7.92.22-1.62,1.37-3.2,1.27-4.75-.3-4.62,1.61-8.04,5.2-10.51,1.06-.73,2.81-.42,4.23-.7,1.29-.25,2.97-.25,3.75-1.06,5.69-5.94,10.96-12.29,16.81-18.06,8.97-8.84,18.3-17.31,27.48-25.94,1.53-1.44,3.31-2.75,1.56-5.3-.4-.58.13-1.78.23-2.7.22-2.23.43-4.45.66-6.68.23-2.27.37-4.55.75-6.8.48-2.84,1.33-5.63,1.72-8.47.35-2.55,3.21-5.93,5.74-6.12,2.34-.17,3.94.71,4.85,3.13,2.07,5.47,5.6,6.32,9.81,2.19,20.27-19.88,40.44-39.86,60.67-59.78,44.55-43.88,89.05-87.82,133.69-131.6,41.87-41.06,83.91-81.95,125.83-122.96,3.96-3.87,8.24-6.33,14-6.35,2.43,0,3.15.85,2.6,2.61-1.18,3.76-1.86,8.26-4.37,10.93-18.66,19.85-37.6,39.44-56.68,58.88-48.09,49.01-96.28,97.92-144.47,146.83-29.66,30.1-59.42,60.11-89.13,90.17-9.05,9.16-18.08,18.34-27.13,27.51-2.21,2.25-1.7,6.56,1.02,8.23.74.45,1.56.76,2.34,1.15,3.16,1.61,3.83,3.67,1.97,6.68-1.69,2.74-3.89,4.69-8.4,3.67Z"/>
    </g>
  </g>
</svg>