<?xml version="1.0" encoding="UTF-8"?>
<svg id="Layer_1" data-name="Layer 1" xmlns="http://www.w3.org/2000/svg" viewBox="0 0 466.1 466.1">
  <defs>
    <style>
      .cls-1, .cls-2 {
        stroke-width: 0px;
      }

      .cls-2 {
        fill: #fff;
      }
    </style>
  </defs>
  <g id="_29TRiw.tif" data-name="29TRiw.tif">
    <g>
      <path class="cls-2" d="m466.1,466.1c-155.37,0-310.73,0-466.1,0C0,310.73,0,155.37,0,0c155.37,0,310.73,0,466.1,0,0,155.37,0,310.73,0,466.1Zm-347.21-86.44c4.51,1.02,6.71-.93,8.4-3.67,1.85-3.01,1.19-5.07-1.97-6.68-.77-.39-1.6-.7-2.34-1.15-2.72-1.68-3.24-5.99-1.02-8.23,9.04-9.17,18.07-18.35,27.13-27.51,29.71-30.06,59.46-60.07,89.13-90.17,48.2-48.91,96.38-97.82,144.47-146.83,19.08-19.45,38.02-39.04,56.68-58.88,2.51-2.67,3.19-7.17,4.37-10.93.55-1.76-.17-2.62-2.6-2.61-5.76.02-10.05,2.48-14,6.35-41.92,41.01-83.96,81.9-125.83,122.96-44.64,43.79-89.14,87.72-133.69,131.6-20.23,19.92-40.4,39.9-60.67,59.78-4.2,4.12-7.74,3.28-9.81-2.19-.91-2.42-2.52-3.3-4.85-3.13-2.53.19-5.39,3.57-5.74,6.12-.39,2.85-1.24,5.63-1.72,8.47-.38,2.24-.52,4.53-.75,6.8-.23,2.22-.43,4.45-.66,6.68-.09.92-.62,2.12-.23,2.7,1.74,2.55-.03,3.86-1.56,5.3-9.17,8.63-18.51,17.1-27.48,25.94-5.85,5.77-11.12,12.12-16.81,18.06-.78.81-2.46.81-3.75,1.06-1.41.28-3.17-.03-4.23.7-3.59,2.48-5.51,5.9-5.2,10.51.1,1.55-1.05,3.13-1.27,4.75-.35,2.62-.52,5.28-.47,7.92,0,.44,1.59,1.29,2.34,1.19,5.07-.66,10.16-1.31,15.14-2.39,5.14-1.11,8.15-5.04,7.81-8.84-.13-1.45.39-3.25,1.25-4.42,1.16-1.57,3.03-2.59,4.44-3.99,10.24-10.22,20.36-20.56,30.7-30.69,4.72-4.63,7.41-12.33,16.3-11.05,2.89.42,5.9.25,8.83,0,1.67-.13,3.31-.86,4.9-1.47,1.84-.7,3.62-1.56,4.73-2.04Z"/>
      <path class="cls-1" d="m118.89,379.66c-1.11.48-2.89,1.34-4.73,2.04-1.6.61-3.24,1.33-4.9,1.47-2.93.24-5.94.41-8.83,0-8.89-1.28-11.58,6.43-16.3,11.05-10.33,10.13-20.46,20.47-30.7,30.69-1.41,1.41-3.28,2.43-4.44,3.99-.86,1.17-1.38,2.97-1.25,4.42.34,3.8-2.67,7.73-7.81,8.84-4.99,1.08-10.08,1.73-15.14,2.39-.75.1-2.34-.75-2.34-1.19-.05-2.64.12-5.3.47-7.92.22-1.62,1.37-3.2,1.27-4.75-.3-4.62,1.61-8.04,5.2-10.51,1.06-.73,2.81-.42,4.23-.7,1.29-.25,2.97-.25,3.75-1.06,5.69-5.94,10.96-12.29,16.81-18.06,8.97-8.84,18.3-17.31,27.48-25.94,1.53-1.44,3.31-2.75,1.56-5.3-.4-.58.13-1.78.23-2.7.22-2.23.43-4.45.66-6.68.23-2.27.37-4.55.75-6.8.48-2.84,1.33-5.63,1.72-8.47.35-2.55,3.21-5.93,5.74-6.12,2.34-.17,3.94.71,4.85,3.13,2.07,5.47,5.6,6.32,9.81,2.19,20.27-19.88,40.44-39.86,60.67-59.78,44.55-43.88,89.05-87.82,133.69-131.6,41.87-41.06,83.91-81.95,125.83-122.96,3.96-3.87,8.24-6.33,14-6.35,2.43,0,3.15.85,2.6,2.61-1.18,3.76-1.86,8.26-4.37,10.93-18.66,19.85-37.6,39.44-56.68,58.88-48.09,49.01-96.28,97.92-144.47,146.83-29.66,30.1-59.42,60.11-89.13,90.17-9.05,9.16-18.08,18.34-27.13,27.51-2.21,2.25-1.7,6.56,1.02,8.23.74.45,1.56.76,2.34,1.15,3.16,1.61,3.83,3.67,1.97,6.68-1.69,2.74-3.89,4.69-8.4,3.67Z"/>
    </g>
  </g>
</svg>