<?xml version="1.0" encoding="utf-8"?>
<svg version="1.1" id="Layer_1" xmlns="http://www.w3.org/2000/svg" xmlns:xlink="http://www.w3.org/1999/xlink" x="0px" y="0px"
	 viewBox="0 0 130 617" style="enable-background:new 0 0 130 617;" xml:space="preserve">
<g id="F30pkQ.tif">
	<g>
		<path d="M36,346.8c-8.5-0.1-16.9-0.2-25.3-0.2c-2.1,0-3.9,0-3.9-3c0-3,1.8-3,3.9-3c8.6,0.3,17.2,0.7,25.1,1
			c0.2-14,0.7-26.6,0.6-39.1c-0.2-43.7-0.7-87.4-1-131.1c-0.2-21.3,1.9-42.5,4.9-63.5c4.2-29.5,4.4-59.1,1.1-88.7
			c-0.2-1.6-0.2-3.2-0.3-4.8c0-0.2,0.2-0.4,0.6-1c0.8,0.6,1.6,1,2.2,1.6c12.8,12.6,23.2,26.9,32.2,42.4
			c9.8,16.8,13.3,35.1,13.6,54.1c0.6,32.5,0.5,65,0.8,97.5c0.3,33.7,0.6,67.5,1,101.2c3.1,9.5,1.4,19.5,2.1,28.8
			c8.8,0.2,17.4,0.3,26,0.6c1.3,0,3.3,0.9,3.6,1.8c0.7,2.1,0.4,4.1-2.9,4c-7.6-0.1-15.3,0.3-22.9,0.2c-2.6,0-3.6,0.8-4.1,3.4
			c-0.6,3.2-1.8,6.4-2.8,9.5c-2.7,8.5-3.2,17.1-1.9,25.9c0.6,4.1,1.8,8.5,1,12.4c-1,5.1,0.6,9.6,1.2,14.4
			c1.6,13.4,2.5,26.9,3.4,40.4c0.2,2.6-0.8,5.2-1.2,7.8c-0.1,0.9-0.5,2.2-0.1,2.7c2.7,3,2.3,6.7,2.2,10.2c-0.3,13-0.7,26.1-1.1,39.1
			c0,0.1,0,0.3,0,0.4c-4.5,6.1-0.5,13.1-2,19.6c-1.5,6.5-1.8,13.4-2.1,20.2c-0.3,5.5,0.2,11.1,0.3,16.6c0,1.2,0.1,2.8-0.5,3.5
			c-2.7,2.7-1.6,5.2-0.2,7.9c2,3.9,2.5,8.6,6.2,11.7c1.9,1.6,0.4,7.5-2.3,9c-2.2,1.2-4.7,2.4-7.2,2.5c-12.3,0.4-24.6,0.4-36.9,0.4
			c-4.5,0-8.3-1.5-10.3-6.1c-1.1-2.5-1.1-4.4,0.8-6.3c4-4.1,4.2-9.9,6.7-14.7c0.3-0.6-0.7-1.9-1-2.9c-0.5-1.4-1.5-3-1.4-4.4
			c1.2-13.6-1.3-27-2.6-40.4c-0.3-2.9,0.3-6,0.5-9c0-0.8,0-1.7-0.2-2.4c-0.9-3.1-2.4-6.2-2.6-9.3c-0.8-12.6-1.2-25.3-1.7-38
			c0-0.7-0.3-1.7,0-2.2c4.6-5.8-0.4-11.8,0.5-17.7c1-6,0.7-12.3,1.1-18.4c0.4-6.3,1-12.5,1.5-18.7c0.1-0.9-0.3-2,0.2-2.5
			c4.3-5.2,0-10.8,0.9-16.2c1-5.7,1.5-11.5,1.3-17.3c-0.2-5.6-1.3-11.2-2.5-16.7C39.2,355.7,37.4,351.3,36,346.8L36,346.8z"/>
	</g>
</g>
</svg>
