<svg id="Layer_1" data-name="Layer 1" xmlns="http://www.w3.org/2000/svg" viewBox="0 0 568 617">
  <g id="F30pkQ.tif">
    <g>
      <path class="cls-1" d="m240.6,316.49c-8.11-8.24-16.02-16.34-24.02-24.36-2.05-2.05-3.72-3.68-.85-6.55,2.91-2.91,4.67-1.13,6.58.93,7.91,8.57,15.8,17.16,23.02,25.02,13.64-13.19,26.08-24.75,38.01-36.82,41.59-42.06,83.02-84.27,124.48-126.47,20.23-20.59,42.43-38.84,65.47-56.15,32.24-24.23,60.76-52.29,85.94-83.77,1.35-1.69,2.82-3.28,4.27-4.88.18-.2.61-.18,1.47-.41.2,1.26.55,2.45.56,3.64.14,24.29-3.57,47.97-9.76,71.48-6.71,25.52-20.86,46.32-38.72,64.8-30.56,31.63-61.69,62.72-92.54,94.08-32.01,32.55-63.96,65.16-95.93,97.75-6.18,12.08-17.25,19.99-25.64,29.58,8.26,8.59,16.39,16.89,24.28,25.4,1.18,1.27,2.31,4.03,1.72,5.22-1.32,2.62-3.51,4.27-6.62,1.09-7.22-7.38-14.86-14.35-22.06-21.75-2.5-2.57-4.23-2.67-7.14-.68-3.68,2.52-7.8,4.43-11.79,6.48-10.73,5.5-19.39,13.34-26.55,23-3.37,4.54-6.42,9.85-10.92,12.88-5.89,3.96-8.57,9.77-12.62,14.91-11.32,14.37-23.41,28.15-35.44,41.94-2.28,2.62-5.74,4.2-8.61,6.33-1.01.75-2.63,1.65-2.69,2.56-.36,5.45-4.23,8.58-7.65,11.85-12.74,12.21-25.66,24.23-38.51,36.32-.12.11-.23.31-.37.33-10.17,1.5-12.98,12.02-20.63,16.85-7.68,4.85-14.51,11.16-21.28,17.3-5.53,5.02-10.39,10.77-15.62,16.12-1.11,1.14-2.55,2.8-3.82,2.79-5.19-.04-6.52,3.48-7.8,7.36-1.87,5.67-5.81,10.57-5.25,17.18.29,3.4-6.83,7.5-10.86,6.37-3.27-.92-6.86-2.22-9.25-4.47-12.12-11.43-23.98-23.14-35.73-34.95-4.27-4.29-6.52-9.35-4.04-15.74,1.32-3.4,3.09-5.28,6.82-5.31,7.7-.06,13.47-5.46,20.41-7.68.91-.29,1.18-2.47,1.8-3.74.9-1.87,1.39-4.27,2.84-5.49,14.2-11.88,24.54-27.11,36.19-41.21,2.55-3.09,6.02-5.4,9.01-8.14.81-.74,1.56-1.62,2.1-2.57,2.16-3.8,3.62-8.2,6.44-11.4,11.33-12.86,23.07-25.37,34.66-38,.68-.74,1.33-1.98,2.1-2.07,9.89-1.15,10.87-11.71,17.51-16.46,6.72-4.81,12.38-11.09,18.64-16.58,6.37-5.6,12.91-11.02,19.36-16.52.89-.76,1.67-2.17,2.6-2.26,9.08-.83,10.31-10.35,16.37-14.62,6.36-4.49,12.48-9.57,17.77-15.25,5.16-5.53,9.47-11.95,13.54-18.37,3.37-5.31,5.84-11.18,8.75-16.9Z"/>
    </g>
  </g>
</svg>