<?xml version="1.0" encoding="UTF-8"?>
<svg id="Layer_1" data-name="Layer 1" xmlns="http://www.w3.org/2000/svg" viewBox="0 0 568 617">
  <defs>
    <style>
      .cls-1, .cls-2 {
        stroke-width: 0px;
      }

      .cls-2 {
        fill: #fff;
      }
    </style>
  </defs>
  <g id="F30pkQ.tif">
    <g>
      <path class="cls-2" d="m0,0C189.33,0,378.67,0,568,0c0,205.67,0,411.33,0,617-189.33,0-378.67,0-568,0C0,411.33,0,205.67,0,0Zm240.6,316.49c-2.91,5.72-5.38,11.59-8.75,16.9-4.07,6.42-8.39,12.84-13.54,18.37-5.3,5.68-11.41,10.76-17.77,15.25-6.05,4.27-7.29,13.79-16.37,14.62-.93.09-1.71,1.5-2.6,2.26-6.46,5.51-12.99,10.92-19.36,16.52-6.25,5.49-11.91,11.77-18.64,16.58-6.64,4.75-7.62,15.31-17.51,16.46-.77.09-1.42,1.33-2.1,2.07-11.59,12.63-23.33,25.14-34.66,38-2.82,3.2-4.28,7.6-6.44,11.4-.54.95-1.29,1.83-2.1,2.57-2.99,2.73-6.47,5.05-9.01,8.14-11.64,14.11-21.98,29.33-36.19,41.21-1.46,1.22-1.94,3.62-2.84,5.49-.62,1.28-.9,3.45-1.8,3.74-6.94,2.22-12.71,7.61-20.41,7.68-3.73.03-5.5,1.91-6.82,5.31-2.48,6.39-.22,11.45,4.04,15.74,11.75,11.81,23.62,23.51,35.73,34.95,2.39,2.25,5.98,3.55,9.25,4.47,4.03,1.13,11.15-2.98,10.86-6.37-.56-6.6,3.38-11.51,5.25-17.18,1.28-3.89,2.6-7.4,7.8-7.36,1.28.01,2.71-1.65,3.82-2.79,5.23-5.35,10.09-11.1,15.62-16.12,6.77-6.14,13.6-12.45,21.28-17.3,7.65-4.84,10.46-15.35,20.63-16.85.14-.02.25-.22.37-.33,12.85-12.09,25.77-24.11,38.51-36.32,3.41-3.27,7.29-6.4,7.65-11.85.06-.91,1.68-1.81,2.69-2.56,2.87-2.13,6.32-3.71,8.61-6.33,12.03-13.79,24.12-27.57,35.44-41.94,4.05-5.14,6.73-10.95,12.62-14.91,4.5-3.02,7.55-8.34,10.92-12.88,7.16-9.66,15.82-17.49,26.55-23,3.99-2.05,8.11-3.95,11.79-6.48,2.9-1.99,4.64-1.89,7.14.68,7.2,7.4,14.84,14.37,22.06,21.75,3.11,3.18,5.3,1.53,6.62-1.09.6-1.19-.53-3.95-1.72-5.22-7.9-8.51-16.02-16.81-24.28-25.4,8.38-9.59,19.46-17.49,25.64-29.58,31.98-32.58,63.93-65.2,95.93-97.75,30.84-31.37,61.97-62.45,92.54-94.08,17.86-18.48,32.01-39.28,38.72-64.8,6.18-23.52,9.9-47.19,9.76-71.48,0-1.19-.36-2.39-.56-3.64-.87.23-1.29.21-1.47.41-1.45,1.6-2.92,3.19-4.27,4.88-25.18,31.48-53.7,59.54-85.94,83.77-23.03,17.31-45.24,35.57-65.47,56.15-41.45,42.2-82.89,84.41-124.48,126.47-11.93,12.06-24.36,23.63-38.01,36.82-7.22-7.85-15.11-16.44-23.02-25.02-1.9-2.06-3.66-3.84-6.58-.93-2.87,2.86-1.2,4.49.85,6.55,8,8.02,15.91,16.12,24.02,24.36Z"/>
      <path class="cls-1" d="m240.6,316.49c-8.11-8.24-16.02-16.34-24.02-24.36-2.05-2.05-3.72-3.68-.85-6.55,2.91-2.91,4.67-1.13,6.58.93,7.91,8.57,15.8,17.16,23.02,25.02,13.64-13.19,26.08-24.75,38.01-36.82,41.59-42.06,83.02-84.27,124.48-126.47,20.23-20.59,42.43-38.84,65.47-56.15,32.24-24.23,60.76-52.29,85.94-83.77,1.35-1.69,2.82-3.28,4.27-4.88.18-.2.61-.18,1.47-.41.2,1.26.55,2.45.56,3.64.14,24.29-3.57,47.97-9.76,71.48-6.71,25.52-20.86,46.32-38.72,64.8-30.56,31.63-61.69,62.72-92.54,94.08-32.01,32.55-63.96,65.16-95.93,97.75-6.18,12.08-17.25,19.99-25.64,29.58,8.26,8.59,16.39,16.89,24.28,25.4,1.18,1.27,2.31,4.03,1.72,5.22-1.32,2.62-3.51,4.27-6.62,1.09-7.22-7.38-14.86-14.35-22.06-21.75-2.5-2.57-4.23-2.67-7.14-.68-3.68,2.52-7.8,4.43-11.79,6.48-10.73,5.5-19.39,13.34-26.55,23-3.37,4.54-6.42,9.85-10.92,12.88-5.89,3.96-8.57,9.77-12.62,14.91-11.32,14.37-23.41,28.15-35.44,41.94-2.28,2.62-5.74,4.2-8.61,6.33-1.01.75-2.63,1.65-2.69,2.56-.36,5.45-4.23,8.58-7.65,11.85-12.74,12.21-25.66,24.23-38.51,36.32-.12.11-.23.31-.37.33-10.17,1.5-12.98,12.02-20.63,16.85-7.68,4.85-14.51,11.16-21.28,17.3-5.53,5.02-10.39,10.77-15.62,16.12-1.11,1.14-2.55,2.8-3.82,2.79-5.19-.04-6.52,3.48-7.8,7.36-1.87,5.67-5.81,10.57-5.25,17.18.29,3.4-6.83,7.5-10.86,6.37-3.27-.92-6.86-2.22-9.25-4.47-12.12-11.43-23.98-23.14-35.73-34.95-4.27-4.29-6.52-9.35-4.04-15.74,1.32-3.4,3.09-5.28,6.82-5.31,7.7-.06,13.47-5.46,20.41-7.68.91-.29,1.18-2.47,1.8-3.74.9-1.87,1.39-4.27,2.84-5.49,14.2-11.88,24.54-27.11,36.19-41.21,2.55-3.09,6.02-5.4,9.01-8.14.81-.74,1.56-1.62,2.1-2.57,2.16-3.8,3.62-8.2,6.44-11.4,11.33-12.86,23.07-25.37,34.66-38,.68-.74,1.33-1.98,2.1-2.07,9.89-1.15,10.87-11.71,17.51-16.46,6.72-4.81,12.38-11.09,18.64-16.58,6.37-5.6,12.91-11.02,19.36-16.52.89-.76,1.67-2.17,2.6-2.26,9.08-.83,10.31-10.35,16.37-14.62,6.36-4.49,12.48-9.57,17.77-15.25,5.16-5.53,9.47-11.95,13.54-18.37,3.37-5.31,5.84-11.18,8.75-16.9Z"/>
    </g>
  </g>
</svg>