<svg id="Layer_1" data-name="Layer 1" xmlns="http://www.w3.org/2000/svg" viewBox="0 0 603.16 603.16">
  <g id="W4ftJs.tif">
    <g>
      <path class="cls-1" d="m273.7,295.05c-8.28-9.32-16.29-18.26-24.19-27.28-3.93-4.49-8.3-8.76-11.33-13.82-4.89-8.17-9.07-16.81-13.06-25.47-1.71-3.71-5.42-7.01-3.71-11.85.68-1.93,1-4.21,2.26-5.67,3.49-4.07,7.45-7.73,11.12-11.65,11.8-12.6,25.13-24.15,34.89-38.18,10.9-15.65,25.61-27.07,38.31-40.65,10.62-11.35,20.83-23.5,33.12-32.79,20.79-15.71,38.52-34.56,57.87-51.7,5.45-4.83,12.97-6.42,21.16-3.51,16.59,5.9,30.95,15.52,45.75,24.65,23.11,14.26,41.18,33.89,59.67,53.21,11.62,12.15,20.87,25.98,29.16,40.41,6.49,11.29,11.96,23.2,17.26,35.11,1.21,2.71.17,6.6-.35,9.87-1.44,9.08-8.7,14.22-14.43,20.28-10.96,11.58-22.29,22.81-33.21,34.42-2.27,2.41-3.34,5.91-5.17,8.78-1.64,2.58-3.27,5.28-5.4,7.43-20.13,20.28-40.34,40.48-60.61,60.62-1.84,1.83-4.28,3.06-6.43,4.58-4.84,3.43-10.12,6.38-14.41,10.39-12.63,11.81-24.87,24.04-37.23,36.13-4.03,3.94-10.37,4.68-15.28,2.18-7.74-3.94-15.68-7.49-23.47-11.33-2.49-1.23-5.03-2.57-7.12-4.37-10.26-8.88-20.35-17.97-30.57-26.89-2.62-2.29-5.38-4.53-8.39-6.22-1.13-.64-3.55-.17-4.72.69-2.41,1.77-4.38,4.15-6.52,6.29-18.9,18.9-37.88,37.72-56.62,56.77-3.81,3.88-8.59,7.43-8.68,13.92-.01,1.15-1.76,2.36-2.82,3.42-35.78,35.76-71.61,71.48-107.33,107.31-3.34,3.35-12.83,5.55-17.86,1.7-9.82-7.54-19.51-15.36-25.17-26.84-1.8-3.64-.32-11.21,2.74-14.19,12.18-11.9,24.54-23.6,36.58-35.64,11.38-11.38,22.36-23.17,33.66-34.63,12.48-12.67,25.13-25.18,37.73-37.72,1.15-1.15,2.54-2.94,3.82-2.94,5.31.01,7.88-3.86,11.01-6.98,22.49-22.43,44.97-44.87,67.97-67.84Z"/>
    </g>
  </g>
</svg>