<?xml version="1.0" encoding="UTF-8"?>
<svg id="Layer_1" data-name="Layer 1" xmlns="http://www.w3.org/2000/svg" viewBox="0 0 603.16 603.16">
  <defs>
    <style>
      .cls-1, .cls-2 {
        stroke-width: 0px;
      }

      .cls-2 {
        fill: #fff;
      }
    </style>
  </defs>
  <g id="W4ftJs.tif">
    <g>
      <path class="cls-2" d="m603.16,603.16H0V0h603.16v603.16Zm-329.47-308.12c-23,22.96-45.48,45.41-67.97,67.84-3.13,3.12-5.7,6.99-11.01,6.98-1.28,0-2.66,1.79-3.82,2.94-12.61,12.55-25.25,25.06-37.73,37.72-11.3,11.46-22.28,23.25-33.66,34.63-12.04,12.04-24.4,23.75-36.58,35.64-3.06,2.99-4.54,10.55-2.74,14.19,5.67,11.48,15.36,19.3,25.17,26.84,5.02,3.86,14.52,1.65,17.86-1.7,35.72-35.83,71.54-71.55,107.33-107.31,1.06-1.06,2.81-2.26,2.82-3.42.08-6.49,4.86-10.04,8.68-13.92,18.74-19.05,37.72-37.87,56.62-56.77,2.14-2.14,4.11-4.51,6.52-6.29,1.17-.86,3.58-1.32,4.72-.69,3.01,1.69,5.77,3.93,8.39,6.22,10.23,8.92,20.31,18.01,30.57,26.89,2.08,1.8,4.62,3.14,7.12,4.37,7.79,3.84,15.73,7.4,23.47,11.33,4.92,2.5,11.25,1.76,15.28-2.18,12.36-12.09,24.61-24.32,37.23-36.13,4.29-4.01,9.58-6.97,14.41-10.39,2.15-1.52,4.59-2.75,6.43-4.58,20.27-20.14,40.48-40.34,60.61-60.62,2.13-2.15,3.76-4.85,5.4-7.43,1.82-2.87,2.9-6.37,5.17-8.78,10.92-11.61,22.25-22.84,33.21-34.42,5.73-6.06,13-11.2,14.43-20.28.52-3.27,1.55-7.16.35-9.87-5.31-11.91-10.78-23.82-17.26-35.11-8.29-14.42-17.54-28.26-29.16-40.41-18.49-19.32-36.56-38.95-59.67-53.21-14.8-9.13-29.15-18.75-45.75-24.65-8.2-2.91-15.71-1.32-21.16,3.51-19.35,17.14-37.08,35.99-57.87,51.7-12.29,9.28-22.5,21.43-33.12,32.79-12.7,13.58-27.4,25-38.31,40.65-9.77,14.02-23.1,25.57-34.89,38.18-3.67,3.92-7.62,7.58-11.12,11.65-1.26,1.46-1.57,3.74-2.26,5.67-1.71,4.84,2,8.14,3.71,11.85,3.99,8.66,8.17,17.3,13.06,25.47,3.02,5.06,7.4,9.33,11.33,13.82,7.9,9.03,15.92,17.96,24.19,27.28Z"/>
      <path class="cls-1" d="m273.7,295.05c-8.28-9.32-16.29-18.26-24.19-27.28-3.93-4.49-8.3-8.76-11.33-13.82-4.89-8.17-9.07-16.81-13.06-25.47-1.71-3.71-5.42-7.01-3.71-11.85.68-1.93,1-4.21,2.26-5.67,3.49-4.07,7.45-7.73,11.12-11.65,11.8-12.6,25.13-24.15,34.89-38.18,10.9-15.65,25.61-27.07,38.31-40.65,10.62-11.35,20.83-23.5,33.12-32.79,20.79-15.71,38.52-34.56,57.87-51.7,5.45-4.83,12.97-6.42,21.16-3.51,16.59,5.9,30.95,15.52,45.75,24.65,23.11,14.26,41.18,33.89,59.67,53.21,11.62,12.15,20.87,25.98,29.16,40.41,6.49,11.29,11.96,23.2,17.26,35.11,1.21,2.71.17,6.6-.35,9.87-1.44,9.08-8.7,14.22-14.43,20.28-10.96,11.58-22.29,22.81-33.21,34.42-2.27,2.41-3.34,5.91-5.17,8.78-1.64,2.58-3.27,5.28-5.4,7.43-20.13,20.28-40.34,40.48-60.61,60.62-1.84,1.83-4.28,3.06-6.43,4.58-4.84,3.43-10.12,6.38-14.41,10.39-12.63,11.81-24.87,24.04-37.23,36.13-4.03,3.94-10.37,4.68-15.28,2.18-7.74-3.94-15.68-7.49-23.47-11.33-2.49-1.23-5.03-2.57-7.12-4.37-10.26-8.88-20.35-17.97-30.57-26.89-2.62-2.29-5.38-4.53-8.39-6.22-1.13-.64-3.55-.17-4.72.69-2.41,1.77-4.38,4.15-6.52,6.29-18.9,18.9-37.88,37.72-56.62,56.77-3.81,3.88-8.59,7.43-8.68,13.92-.01,1.15-1.76,2.36-2.82,3.42-35.78,35.76-71.61,71.48-107.33,107.31-3.34,3.35-12.83,5.55-17.86,1.7-9.82-7.54-19.51-15.36-25.17-26.84-1.8-3.64-.32-11.21,2.74-14.19,12.18-11.9,24.54-23.6,36.58-35.64,11.38-11.38,22.36-23.17,33.66-34.63,12.48-12.67,25.13-25.18,37.73-37.72,1.15-1.15,2.54-2.94,3.82-2.94,5.31.01,7.88-3.86,11.01-6.98,22.49-22.43,44.97-44.87,67.97-67.84Z"/>
    </g>
  </g>
</svg>