<svg id="Layer_1" data-name="Layer 1" xmlns="http://www.w3.org/2000/svg" viewBox="0 0 535.99 535.99">
  <g id="_6TWlWx.tif" data-name="6TWlWx.tif">
    <g>
      <path class="cls-1" d="m440.89,103.52c-1.4,1.03-2.39,1.77-3.89,2.88,1.33,1.58,2.56,3.05,3.98,4.74-2.04,2.51-1.9,6.98-6.71,7.21-.31.02-1.03,2.02-.73,2.37,2.49,2.85.25,4.48-1.67,6.35.72,1.06,1.38,2.05,2.02,2.98-2.3,1.23-4.32,2.31-5.37,2.86.61,4.11,1.08,7.21,1.57,10.51-1.91.4-3.22.67-4.77,1,.36,3.38,4.06,8.14-3.55,7.96.66,2.01,1.21,3.66,1.71,5.19-1.33,2.98-9.66,0-5.88,7.44-4.03,1.07-2.59,4.22-1.96,7.22-1.62.25-3.01.45-4.63.7.25,2.85.27,5.52-3.64,5.93-.5.05-.73,2.74-1.17,4.56-.9.12-2.25.29-3.58.46.58,8.03-.54,9.44-8.05,10.91-6.72,1.32-13.53,2.42-20.07,4.38-4.25,1.27-8.2,3.71-12.08,5.97-6.46,3.77-13.79,6.61-18.13,13.07-5.59,8.31-10.82,16.87-15.82,25.55-4.64,8.07-8.52,16.58-13.21,24.61-3.7,6.32-8.04,12.28-12.33,18.24-.67.93-2.59,1.47-3.87,1.39-12.28-.79-24.54-1.76-36.82-2.6-.65-.04-1.94.73-1.94,1.13-.02,4.03-2.99,3.51-4.9,2.62-3.9-1.83-7.31-1.01-10.9.52-1.01.43-2.25.34-2.32.35-2.33,3.33-3.86,6.36-6.16,8.6-3.81,3.72-7.93,7.19-12.26,10.29-2.83,2.02-6.2,3.32-9.42,4.72-2.69,1.17-4.97,3.18-8.65,1.76-2.03-.78-5.05,1-8.18,1.75,1.68,3.51,3.03,6.32,4.78,9.95-3.86,2.87-7.8,5.8-11.74,8.74-.55.41-1.29.8-1.52,1.38-2.56,6.22-8.27,9.57-12.86,13.86-2.52,2.35-5.85,3.81-8.8,5.71-.33.21-.81.67-.77.94.62,4.47-3.47,6.23-5.33,9.25-1.38,2.23-3.28,4.02-6.42,3.24-.64-.16-1.81.22-2.17.75-1.69,2.47-3.38,4.97-4.69,7.65-2.24,4.56-5.28,6.18-9.36,3.57-4.49-2.87-7.04-1.26-10.62,1.8-4.37,3.72-4.96,8.91-7.29,13.4-1.54,2.97-3.94,5.51-5.29,8.54-4.44,9.93-1.15,19.47,1.72,29.1,2.35,7.88,7.44,13.91,12.03,20.4,4.87,6.88,9.61,13.9,12.43,21.98,1.92,5.51,1.3,9.97-3.14,12.58-2.6,1.53-6.59,2.02-9.56,1.31-5.01-1.21-9.72-3.67-14.51-5.73-6.56-2.83-12.94-6.15-19.68-8.41-1.81-.61-5.38,1.27-6.83,3.06-1.88,2.32-2.9,5.55-1.06,8.9,3.34,6.1.2,11.9-2.51,16.75-3.16,5.66-11.59,3.85-13.71-2.74-1.73-5.38-2.25-11.13-3.57-16.66-2.32-9.74-3.23-19.85-8.59-28.76-5.78-9.6-11.08-19.48-16.57-29.25-3.25-5.78-2.63-12.19-.99-17.89,1.55-5.39,4.46-11.01,8.37-14.95,5.87-5.92,13.05-10.57,19.82-15.56,4.01-2.95,8.63-5.14,12.34-8.41,2.69-2.37,3.67-7.44,6.56-8.7,9.27-4.05,14.43-12.34,21.23-18.85,11.32-10.84,21.8-22.54,33.09-33.41,6.68-6.44,14.27-11.93,21.39-17.93,3.95-3.33,9.44-6.1,11.27-10.39,2.85-6.69,8.04-11.2,11.76-16.94,2.96-4.57,6.22-8.37,11.86-9.41.63-.12,1.5-.42,1.74-.9,1.33-2.68,2.51-5.45,3.74-8.18.17-.38.27-.97.56-1.08,6.44-2.48,8.54-9.34,13.55-13.46,5.52-4.54,9.63-10.83,14.17-16.51,4.27-5.33,8.12-11,12.48-16.24,4.68-5.63,9.11-11.72,14.76-16.22,9.86-7.86,19.25-16.39,31.03-21.81,12.26-5.65,23.94-12.57,35.86-18.97,5.44-2.92,11.02-5.64,16.18-9,4.75-3.1,9.07-6.88,13.49-10.47,10.13-8.22,19.57-17.2,27.55-27.53,8.14-10.55,16.07-21.28,23.63-32.25,10.09-14.63,18.8-30.1,25.76-46.49,1.83-4.32,3.37-8.77,5.04-13.16.5-.02,1.01-.05,1.51-.07,1.64,5.83,3.57,11.6,4.82,17.52.99,4.71,1.32,9.59,1.63,14.41.42,6.41.28,6.45-5.7,12.27,1.44,1.3,2.86,2.59,4.71,4.26-1.7,1.08-3.07,1.96-4.92,3.13,1.72,1.9,3.4,3.75,5.53,6.1-1.38.95-2.78,1.92-4.4,3.04,1.31,1.48,2.22,2.51,3.74,4.24-1.38.86-2.8,1.75-4.42,2.76,1.4,1.67,2.38,2.83,3.46,4.13-.92,1.08-1.83,2.15-2.88,3.37.73.95,1.47,1.91,2.26,2.94-1.82,1.19-3.45,2.26-5.4,3.53,1.13,1.46,2.03,2.63,3.57,4.62-1.15.48-2.33.98-3.5,1.47,1.71,1.92,2.81,3.17,3.93,4.42-1.61,1.25-3,2.34-4.58,3.57,1.21,1.41,2.21,2.58,3.48,4.05Z"/>
    </g>
  </g>
</svg>