<?xml version="1.0" encoding="UTF-8"?>
<svg id="Layer_1" data-name="Layer 1" xmlns="http://www.w3.org/2000/svg" viewBox="0 0 550 631">
  <defs>
    <style>
      .cls-1, .cls-2 {
        stroke-width: 0px;
      }

      .cls-2 {
        fill: #fff;
      }
    </style>
  </defs>
  <g id="uVCx8D.tif">
    <g>
      <path class="cls-2" d="m550,631H0V0h550v631Zm-172.81-455.1c-2.51,1.39-4.97,2.12-6.55,3.72-7.32,7.49-14.39,15.24-21.58,22.86-.9.95-1.91,2.08-3.08,2.45-5.43,1.7-10.37,3.72-11.04,10.44-.05.51-.86.97-1.34,1.42-13.69,12.85-27.69,25.28-40.47,39.2-20.16,21.95-41.97,42.38-63.03,63.5-1.6,1.6-2.48,4.29-4.32,5.21-5.8,2.88-9.31,7.46-11.8,13.17-.4.92-1.48,1.56-2.3,2.26-4.51,3.83-9.25,7.43-13.48,11.55-2.34,2.28-.8,12.33,1.34,14.97,1.01,1.25,2.14,3.7,1.58,4.67-1.23,2.15-2.11,5.34-6.2,4.41-1.7-.38-4.49.66-5.67,2.02-4.58,5.26-8.32,11.28-13.07,16.36-20.47,21.92-40.93,43.85-61.95,65.23-6.31,6.42-13.96,11.9-21.83,16.34-18.83,10.61-38.25,20.17-57.26,30.47-12.3,6.67-22.33,16.17-31.07,27.03-.72.89-.82,2.27-1.21,3.43,1.22.12,2.59.65,3.62.28,3.89-1.41,7.77-2.92,11.46-4.77,10.56-5.28,21.02-10.75,31.52-16.15,10.12-5.21,20.39-3.78,30.42-.07,2.38.88,4.89,3.71,5.65,6.16,1.61,5.19,2.5,10.69,2.98,16.12,1.38,15.54,3.65,31.07.06,46.66-4,17.37-14.43,28.35-31.65,32.9-2.73.72-5.52,1.33-8.14,2.36-1.65.65-3.03,1.98-4.99,3.32,1.49,1.09,2.1,1.61,2.78,2.03,7.47,4.55,15.67,3.92,23.1,1.22,7.35-2.67,14.31-6.94,20.73-11.5,7.25-5.15,14.78-8.29,23.66-7.4,8.79.88,17.26.33,24.94-4.54,1.48-.94,2.68-2.33,4.01-3.51-1.51-1.25-2.87-2.79-4.57-3.68-1.57-.83-3.49-1.1-5.29-1.4-4.58-.74-7.64-3.22-10.21-7.13-8.9-13.54-7.67-28.59-6.61-43.48.54-7.59,2.82-15.04,3.84-22.61,1.51-11.23,5.69-21.34,13.18-29.66,9.57-10.63,19.73-20.75,29.87-30.85,8.02-7.99,17.39-14.84,24.36-23.63,7.08-8.94,15.49-15.27,25.36-20.32,5.88-3.01,10.73-6.95,9.19-14.23,4.49-3.72,8.79-3.53,13.83-2.01,4.62,1.39,9.72,1.16,14.61,1.65-.24-.6-.48-1.21-.71-1.81,1.51-1.63,2.71-4.03,4.57-4.77,6.65-2.61,10.76-6.85,10.87-14.4,2.68.12,5.11.23,7.77.35.33-2.7.62-4.97.9-7.24.39.22.78.43,1.17.65,1.38-1.89,2.77-3.77,4.42-6.04h4.39c.18-2.05.34-3.96.54-6.34,2.51.34,4.73.65,7.21.98.16-3.02.3-5.79.45-8.67,2.8-.5,5.34-.95,8.03-1.42-.48-2.23-.89-4.11-1.37-6.3,4.5-.79,9.02-1.28,9.33-6.91,2.04.16,3.64.28,5.65.44v-10.66c2.95.57,5.4,1.05,8.09,1.58-.34-2.25-.59-3.84-.89-5.82,2.54.19,4.71.36,7.34.56-1.34-3.54-2.48-6.57-3.86-10.22,3.46.28,6.19.5,9.6.77-1.25-6,3.9-4.92,6.81-6.3.21-2.34.39-4.43.6-6.77,2.26.46,4.14.83,6.49,1.31-.74-2.32-1.3-4.11-2.02-6.38,3.78-.46,7.2-.88,10.89-1.33-1.1-2.74-2.15-5.37-3.46-8.66h9.88c-4.03-9.52,5.2-4.94,7.65-7.97-1.09-5.36,2.53-6.23,6.46-6.24,1.19-2.91,2.25-5.53,3.33-8.18,2.19,1,3.55,1.63,5.33,2.44v-6.94c1.68-.37,3.1-.69,4.51-1.01v-3.82c.35.24.69.48,1.04.71,1.93-1.95,3.86-3.89,5.79-5.84-.23-.34-.46-.68-.69-1.02,3.04.2,6.08.41,9.39.63-.4-3.64-.74-6.69-1.19-10.7,6.67,1.85,7.49-2.83,8.52-6.9,2.89.2,5.35.37,7.94.55.75-2.58,1.43-4.91,2.12-7.29,1.88-.14,3.5-.26,5.58-.42v-8.05c2.86.4,5.23.73,7.93,1.12v-7.07c2.05-1.5,4.76-2.54,4.81-3.71.22-4.62,3.03-5.36,6.85-5.27l-1.14-1.31,13.32-11.54c.83-2.52,1.13-5.73,5.73-6.02.57-.04,1.46-1.02,1.56-1.66.63-4.24,3.02-6.24,6.36-5.84,1.45-2.29,2.23-5.09,3.62-5.43,4.72-1.16,6.94-3.9,6.95-8.55,1.87.14,3.31.25,4.85.37,1.76-3.4-.17-9.54,4.84-8.66,2.89-2.44,4.44-4.63,6.48-5.28,3.51-1.12,5.33-2.86,5.6-6.17,2.01-1.09,3.59-2.53,4.69-4.27,2.17-3.42,4.04-7.02,6.14-10.49.28-.46,1.16-.73,1.8-.79,6.46-.62,6.43-6.59,7.64-10.56,1.06-3.47,1.17-6.4,5.88-6.23-.45-1.53-.8-2.72-1.17-4.01,1.45-.38,2.68-.71,3.05-.81,2.38-6.02-.92-13.07,6.32-17.34-.82-2.68-1.67-5.47-2.38-7.79,1.43-2.8,3.43-5.43,4.11-8.37.97-4.2-.32-9.4,1.7-12.76,3.12-5.21,1.25-10.12,1.48-15.13.09-2.06-.68-4.17-.85-5.12,0-3.86.04-6.66,0-9.46-.09-5.09-.23-10.18-.37-15.26-.12-4.41,1.47-9.19-2.23-12.75-3.17,2.67-6.18,4.94-8.88,7.53-2.63,2.53-5.17,5.22-7.37,8.14-3.29,4.37-4.1,11.38-11.92,10.65-.14-.01-.33.11-.43.22-6.06,6.39-14.18,10.91-17.99,19.68-4.42-2.67-6.79.75-8.74,3.7-2.75,4.17-4.82,8.79-7.29,13.16-.31.55-1.39.6-1.94,1.09-5.01,4.46-14.23,6.24-9.19,18.02-7.21-6.08-11.19-3.21-14.97,1.71-3.75,4.88-8.03,9.36-11.86,14.19-2.39,3.02-4.37,6.37-6.79,9.94-.9.04-3.68-.7-5.14.37-6.01,4.41-11.62,9.37-17.4,14.16.98,1.93,1.77,3.5,2.76,5.46-3.97,3.04-7.81,5.93-11.6,8.89-7.74,6.05-15.55,11.97-18.13,22.33-.57,2.27-2.71,4.13-4.02,6.25-1.62,2.61-3.14,5.29-4.54,7.66Z"/>
      <path class="cls-1" d="m377.19,175.9c1.4-2.37,2.92-5.05,4.54-7.66,1.31-2.11,3.46-3.97,4.02-6.25,2.58-10.36,10.39-16.28,18.13-22.33,3.79-2.96,7.63-5.85,11.6-8.89-.99-1.96-1.79-3.53-2.76-5.46,5.78-4.78,11.39-9.75,17.4-14.16,1.46-1.07,4.24-.33,5.14-.37,2.42-3.57,4.4-6.92,6.79-9.94,3.83-4.83,8.1-9.31,11.86-14.19,3.78-4.92,7.76-7.78,14.97-1.71-5.03-11.79,4.19-13.56,9.19-18.02.55-.49,1.63-.54,1.94-1.09,2.47-4.37,4.54-8.98,7.29-13.16,1.95-2.95,4.32-6.37,8.74-3.7,3.81-8.77,11.93-13.29,17.99-19.68.11-.11.29-.23.43-.22,7.82.73,8.63-6.28,11.92-10.65,2.2-2.91,4.73-5.61,7.37-8.14,2.7-2.59,5.71-4.87,8.88-7.53,3.7,3.56,2.11,8.34,2.23,12.75.14,5.09.27,10.17.37,15.26.05,2.8,0,5.61,0,9.46.17.95.95,3.05.85,5.12-.23,5.01,1.64,9.92-1.48,15.13-2.02,3.37-.72,8.57-1.7,12.76-.68,2.94-2.68,5.57-4.11,8.37.71,2.32,1.56,5.11,2.38,7.79-7.24,4.28-3.94,11.32-6.32,17.34-.37.1-1.6.42-3.05.81.38,1.29.73,2.48,1.17,4.01-4.71-.17-4.82,2.76-5.88,6.23-1.21,3.97-1.18,9.94-7.64,10.56-.63.06-1.51.32-1.8.79-2.1,3.46-3.97,7.07-6.14,10.49-1.11,1.74-2.68,3.18-4.69,4.27-.27,3.31-2.1,5.05-5.6,6.17-2.04.65-3.59,2.84-6.48,5.28-5-.88-3.08,5.26-4.84,8.66-1.54-.12-2.98-.23-4.85-.37-.01,4.65-2.23,7.39-6.95,8.55-1.39.34-2.17,3.14-3.62,5.43-3.34-.4-5.73,1.6-6.36,5.84-.1.64-.98,1.62-1.56,1.66-4.6.3-4.9,3.5-5.73,6.02l-13.32,11.54,1.14,1.31c-3.82-.09-6.62.65-6.85,5.27-.06,1.17-2.77,2.2-4.81,3.71v7.07c-2.7-.38-5.07-.71-7.93-1.12v8.05c-2.08.16-3.7.28-5.58.42-.69,2.37-1.37,4.7-2.12,7.29-2.59-.18-5.05-.35-7.94-.55-1.04,4.07-1.86,8.75-8.52,6.9.45,4.01.78,7.06,1.19,10.7-3.32-.22-6.35-.43-9.39-.63.23.34.46.68.69,1.02-1.93,1.95-3.86,3.89-5.79,5.84-.35-.24-.69-.48-1.04-.71v3.82c-1.41.31-2.84.63-4.51,1.01v6.94c-1.78-.81-3.14-1.44-5.33-2.44-1.08,2.65-2.14,5.26-3.33,8.18-3.93.01-7.55.89-6.46,6.24-2.45,3.03-11.68-1.55-7.65,7.97h-9.88c1.31,3.29,2.37,5.92,3.46,8.66-3.69.45-7.11.87-10.89,1.33.72,2.27,1.29,4.06,2.02,6.38-2.36-.47-4.23-.85-6.49-1.31-.21,2.34-.39,4.42-.6,6.77-2.9,1.38-8.06.3-6.81,6.3-3.41-.27-6.14-.49-9.6-.77,1.38,3.65,2.52,6.68,3.86,10.22-2.63-.2-4.8-.37-7.34-.56.3,1.98.54,3.56.89,5.82-2.69-.52-5.14-1-8.09-1.58v10.66c-2-.16-3.61-.28-5.65-.44-.31,5.63-4.83,6.12-9.33,6.91.47,2.19.88,4.08,1.37,6.3-2.69.48-5.23.93-8.03,1.42-.15,2.88-.29,5.65-.45,8.67-2.48-.34-4.7-.64-7.21-.98-.2,2.38-.37,4.29-.54,6.34h-4.39c-1.66,2.26-3.04,4.15-4.42,6.04-.39-.22-.78-.43-1.17-.65-.28,2.27-.56,4.55-.9,7.24-2.66-.12-5.09-.23-7.77-.35-.11,7.54-4.23,11.78-10.87,14.4-1.86.73-3.07,3.13-4.57,4.77.24.6.48,1.21.71,1.81-4.89-.49-9.99-.26-14.61-1.65-5.04-1.52-9.35-1.71-13.83,2.01,1.54,7.28-3.31,11.22-9.19,14.23-9.87,5.05-18.28,11.38-25.36,20.32-6.96,8.79-16.33,15.64-24.36,23.63-10.14,10.1-20.3,20.22-29.87,30.85-7.48,8.31-11.67,18.43-13.18,29.66-1.02,7.58-3.3,15.03-3.84,22.61-1.06,14.89-2.29,29.94,6.61,43.48,2.57,3.91,5.63,6.38,10.21,7.13,1.8.29,3.71.57,5.29,1.4,1.7.89,3.06,2.43,4.57,3.68-1.33,1.18-2.53,2.57-4.01,3.51-7.68,4.87-16.15,5.43-24.94,4.54-8.88-.89-16.41,2.25-23.66,7.4-6.43,4.56-13.38,8.83-20.73,11.5-7.43,2.7-15.63,3.34-23.1-1.22-.68-.42-1.3-.94-2.78-2.03,1.96-1.34,3.34-2.67,4.99-3.32,2.62-1.03,5.41-1.64,8.14-2.36,17.23-4.55,27.65-15.53,31.65-32.9,3.59-15.59,1.32-31.13-.06-46.66-.48-5.43-1.37-10.94-2.98-16.12-.76-2.45-3.28-5.28-5.65-6.16-10.03-3.7-20.3-5.13-30.42.07-10.5,5.4-20.97,10.87-31.52,16.15-3.69,1.85-7.58,3.35-11.46,4.77-1.04.38-2.41-.16-3.62-.28.39-1.15.5-2.54,1.21-3.43,8.73-10.87,18.76-20.36,31.07-27.03,19.01-10.3,38.42-19.87,57.26-30.47,7.87-4.43,15.52-9.92,21.83-16.34,21.02-21.38,41.48-43.31,61.95-65.23,4.75-5.09,8.5-11.1,13.07-16.36,1.18-1.36,3.97-2.4,5.67-2.02,4.09.92,4.97-2.26,6.2-4.41.56-.97-.57-3.42-1.58-4.67-2.15-2.64-3.69-12.69-1.34-14.97,4.23-4.12,8.97-7.72,13.48-11.55.82-.7,1.9-1.35,2.3-2.26,2.5-5.71,6.01-10.29,11.8-13.17,1.84-.91,2.72-3.61,4.32-5.21,21.07-21.12,42.88-41.55,63.03-63.5,12.78-13.92,26.78-26.35,40.47-39.2.48-.45,1.29-.91,1.34-1.42.67-6.72,5.61-8.75,11.04-10.44,1.17-.37,2.18-1.5,3.08-2.45,7.2-7.62,14.26-15.37,21.58-22.86,1.57-1.61,4.04-2.34,6.55-3.72Z"/>
    </g>
  </g>
</svg>