<?xml version="1.0" encoding="UTF-8"?>
<svg id="Layer_1" data-name="Layer 1" xmlns="http://www.w3.org/2000/svg" viewBox="0 0 709.94 709.94">
  <defs>
    <style>
      .cls-1, .cls-2 {
        stroke-width: 0px;
      }

      .cls-2 {
        fill: #fff;
      }
    </style>
  </defs>
  <g id="_2zbb9E.tif" data-name="2zbb9E.tif">
    <g>
      <path class="cls-2" d="m709.94,709.94c-236.64,0-473.29,0-709.94,0C0,473.29,0,236.65,0,0c236.64,0,473.29,0,709.93,0,0,236.64,0,473.29,0,709.94Zm-420.41-122.96c-3.87-1.9-7.39-3.6-10.87-5.36-7.59-3.84-15.24-7.63-16.14-17.61-.5-5.54-3.42-9.68-8.17-12.18-2.83-1.49-6.16-2.03-9.3-2.89-6.82-1.88-10.18-6.91-10.49-14.01-.41-9.54-1.31-19.01-11.33-24.43-1.59-.86-3-4.81-2.35-6.52,1.83-4.86,4.5-9.47,7.33-13.87,3.53-5.5,7.55-10.7,11.1-15.68-2.2-5.97-13.42-3.76-10.67-13.35,1.64.73,3.22,1.27,4.63,2.11,10.75,6.41,22.05,10.39,34.75,7.44,4.62-1.07,9.51-2.12,11.61-8.45-12.48.62-21.58-4.38-29.08-12.86-7.53-8.52-7.28-9.81,1.78-16.94,11.92-9.37,24.01-18.58,35.3-28.66,18.39-16.41,35.93-33.68,50.73-53.6,7.93-10.67,9.41-21.14,2.96-32.82-3.85-6.98-7.4-14.12-11.16-21.32,2.26-2.58,4.79-5.45,7.31-8.33-.6-.12-1.19-.24-1.79-.36,0-2.44-1.05-5.87.17-7.16,6.66-7.05,13.95-13.51,20.88-20.33,2.51-2.47,4.61-5.37,6.76-7.92-1.44-1.89-2.39-2.98-3.16-4.19-.8-1.25-1.43-2.62-1.74-3.21,2.82-1.6,5.41-2.61,7.4-4.3,3.22-2.73,6.09-5.89,9.04-8.93,2.56-2.64,6.28-5.03,7.11-8.16.62-2.34-2.59-5.66-4.02-8.58-.77-1.57-1.38-3.22-1.7-3.98,3.34-5.31,5.62-10.9,9.55-14.87,36.47-36.87,73.22-73.47,109.94-110.09,2.44-2.43,5.95-3.98,7.82-6.72,1.39-2.04,1.12-5.34,1.12-8.08,0-.68-2.04-2.11-2.79-1.9-2.89.79-6.36,1.37-8.32,3.33-37.5,37.4-74.76,75.03-112.27,112.42-2.58,2.57-4.12,8.58-10.16,5.42-.29-.15-1.33,1.12-2,1.75q-6.68,6.17-14.56,1.59c-1.05-.61-2.11-1.19-3.4-1.93-7.57,8.08-17.22,13.82-21.8,24.22-6.71-5.59-6.74-5.63-13.6.74-1.96,1.82-3.57,3.99-5.51,5.83-6.05,5.75-12.18,11.43-18.87,17.68-1.01-.56-3.01-1.66-5.08-2.81-2.46,2.21-4.99,4.35-7.35,6.67-2.15,2.11-3.98,2.45-6.63.5-3.51-2.57-7.59-4.36-11.15-6.87-4.69-3.3-8.62-1.96-12.91.85-3.31,2.17-7.1,3.59-10.67,5.38-2.65,1.33-5.8,2.19-7.84,4.16-11.38,11.02-22.44,22.38-33.71,33.52-17.19,16.99-34.59,33.76-51.65,50.88-21.88,21.95-43.56,44.09-65.2,66.28-5.25,5.38-4.2,14.57,2.19,18.85,6.05,4.05,12.55,7.43,18.83,11.13,4.05,2.39,9.95,3.87,11.75,7.42,5.62,11.02,9.67,22.83,14.34,34.33,7.62,18.76,7.23,39.95,17.49,57.9,3.43,6.01,1.46,14.51,8.77,18.76.73.43.77,1.97,1.22,2.96,2.38,5.25,2.37,11.4,7.98,15.46,2.83,2.04,3.59,6.89,5.41,10.4.89,1.71,1.95,3.36,3.14,4.89,2.22,2.85,4.89,5.39,6.81,8.42,2,3.16,2.44,8.05,5.12,9.89,6.58,4.51,12.63,8.93,14.75,17.12.18.68,1.38,1.1,2.1,1.65,2.17,1.66,4.7,3.02,6.45,5.04,5.8,6.69,11.69,13.15,19.82,17.18,2.34,1.16,4.2,3.29,6.2,4.9-4.53,7-5.05,9.87-1.63,13.43,9.45,9.83,18.92,19.67,28.82,29.04,7.46,7.05,11.98,6.55,19.3-.76,17.21-17.2,34.59-34.25,51.55-51.7,6.73-6.92,12.74-14.56,18.68-22.19,2.7-3.47,2.52-7.34-1.05-10.82-9.37-9.15-18.53-18.51-27.84-27.73-4.88-4.84-8.63-5.3-13.98-1.07-5.76,4.56-11.12,9.63-16.06,13.96Z"/>
      <path class="cls-1" d="m289.53,586.98c4.94-4.33,10.3-9.4,16.06-13.96,5.35-4.24,9.1-3.77,13.98,1.07,9.3,9.22,18.46,18.58,27.84,27.73,3.56,3.48,3.75,7.34,1.05,10.82-5.93,7.63-11.95,15.27-18.68,22.19-16.97,17.45-34.34,34.49-51.55,51.7-7.32,7.31-11.84,7.82-19.3.76-9.9-9.37-19.37-19.21-28.82-29.04-3.42-3.56-2.9-6.43,1.63-13.43-2-1.62-3.86-3.74-6.2-4.9-8.13-4.04-14.02-10.5-19.82-17.18-1.76-2.02-4.28-3.38-6.45-5.04-.72-.55-1.92-.96-2.1-1.65-2.12-8.19-8.17-12.62-14.75-17.12-2.69-1.84-3.13-6.73-5.12-9.89-1.92-3.03-4.59-5.57-6.81-8.42-1.19-1.52-2.25-3.17-3.14-4.89-1.82-3.51-2.58-8.35-5.41-10.4-5.61-4.06-5.6-10.21-7.98-15.46-.45-.99-.49-2.54-1.22-2.96-7.31-4.25-5.33-12.75-8.77-18.76-10.25-17.94-9.86-39.13-17.49-57.9-4.67-11.5-8.72-23.31-14.34-34.33-1.81-3.55-7.7-5.03-11.75-7.42-6.28-3.7-12.78-7.09-18.83-11.13-6.39-4.28-7.45-13.46-2.19-18.85,21.64-22.19,43.32-44.33,65.2-66.28,17.06-17.12,34.47-33.89,51.65-50.88,11.27-11.14,22.33-22.5,33.71-33.52,2.04-1.98,5.18-2.83,7.84-4.16,3.56-1.79,7.36-3.21,10.67-5.38,4.29-2.81,8.23-4.15,12.91-.85,3.56,2.51,7.64,4.3,11.15,6.87,2.65,1.94,4.48,1.61,6.63-.5,2.36-2.32,4.89-4.45,7.35-6.67,2.07,1.14,4.08,2.25,5.08,2.81,6.69-6.26,12.82-11.93,18.87-17.68,1.94-1.84,3.55-4.02,5.51-5.83,6.86-6.37,6.89-6.34,13.6-.74,4.58-10.4,14.23-16.14,21.8-24.22,1.3.73,2.36,1.32,3.4,1.93q7.88,4.58,14.56-1.59c.68-.62,1.72-1.9,2-1.75,6.04,3.16,7.58-2.85,10.16-5.42,37.51-37.39,74.78-75.02,112.27-112.42,1.96-1.96,5.43-2.54,8.32-3.33.75-.21,2.79,1.22,2.79,1.9,0,2.74.27,6.04-1.12,8.08-1.87,2.74-5.38,4.29-7.82,6.72-36.72,36.62-73.46,73.23-109.94,110.09-3.93,3.97-6.21,9.56-9.55,14.87.32.76.93,2.41,1.7,3.98,1.43,2.92,4.64,6.24,4.02,8.58-.83,3.13-4.55,5.53-7.11,8.16-2.95,3.04-5.82,6.19-9.04,8.93-2,1.7-4.58,2.7-7.4,4.3.31.59.94,1.95,1.74,3.21.77,1.21,1.72,2.3,3.16,4.19-2.15,2.55-4.25,5.45-6.76,7.92-6.92,6.82-14.21,13.27-20.88,20.33-1.22,1.29-.17,4.72-.17,7.16.6.12,1.19.24,1.79.36-2.52,2.87-5.04,5.75-7.31,8.33,3.76,7.2,7.31,14.35,11.16,21.32,6.45,11.67,4.97,22.15-2.96,32.82-14.8,19.92-32.34,37.19-50.73,53.6-11.3,10.08-23.39,19.29-35.3,28.66-9.06,7.13-9.31,8.42-1.78,16.94,7.5,8.48,16.59,13.48,29.08,12.86-2.1,6.32-6.99,7.37-11.61,8.45-12.7,2.95-24-1.02-34.75-7.44-1.41-.84-2.99-1.37-4.63-2.11-2.75,9.59,8.46,7.38,10.67,13.35-3.56,4.98-7.57,10.18-11.1,15.68-2.82,4.4-5.5,9.01-7.33,13.87-.64,1.72.76,5.66,2.35,6.52,10.02,5.43,10.92,14.89,11.33,24.43.31,7.1,3.67,12.13,10.49,14.01,3.14.87,6.47,1.4,9.3,2.89,4.75,2.5,7.67,6.63,8.17,12.18.9,9.98,8.56,13.77,16.14,17.61,3.48,1.76,7,3.46,10.87,5.36Z"/>
    </g>
  </g>
</svg>