<svg id="Layer_1" data-name="Layer 1" xmlns="http://www.w3.org/2000/svg" viewBox="0 0 713.91 560.94">
  <g id="RQQ1zx.tif">
    <g>
      <path class="cls-1" d="m307.8,341.13c2.78-4.12,5.63-8.2,8.32-12.38,1.84-2.86,3.46-5.86,5.68-9.65h-4.8c.64-.95.99-1.54,1.42-2.07,3-3.76,3.03-4.6.63-9.4-.25-.49.31-1.34.35-2.03.1-1.73.74-3.78.05-5.14-5.01-9.89-1.78-19.63,1.54-28.68,2.61-7.11,7.49-13.61,12.32-19.61,3.7-4.6,9.15-7.73,13.36-11.97,12.57-12.68,24.69-25.81,37.42-38.33,10.1-9.93,20.75-19.31,31.29-28.78,7.49-6.73,15.23-13.19,22.79-19.85.79-.69,1.24-1.87,1.6-2.91,1-2.84,1.87-5.72,2.97-9.15-.19-1.26-.53-3.51-.87-5.75l1.5-.36c-7.42-9.12-14.84-18.24-22.26-27.36.51-.48,1.02-.96,1.53-1.45,3.43,2.06,7.15,3.76,10.24,6.24,8.53,6.83,18.44,8.64,28.91,8.59,5.79-.03,9.14-5.77,7.27-11.25-4.45-13.05-9.56-25.96-10.65-39.91-.08-1.05-.01-2.12-.01-4.12,3.08,7.41,5.3,14.22,8.66,20.41,3.33,6.15,7.81,11.68,12.31,18.23,6.75-7.67,13.41-14.22,18.8-21.69,3.82-5.3,9.52-9.5,14.34-10.03,9.15-1.01,13.02-7.38,18.48-12.43,8.33-7.69,16.66-15.39,24.84-23.23,1.82-1.74,3.48-3.92,4.48-6.21,5.01-11.48,15.9-16.21,25.39-22.56,1.48-.99,3.1-1.77,5.56-1.84-2.05,3.1-3.96,6.31-6.18,9.29-12.11,16.23-24.35,32.37-36.33,48.69-.89,1.21-.65,3.85,0,5.46,1.42,3.57.3,6.25-1.87,8.92-2.35,2.89-4.9,5.67-6.84,8.83-1.06,1.73-1.3,4.11-1.42,6.22-.14,2.48.11,5.02.48,7.48.15.99.92,2.03,1.69,2.73.78.71,2.05.89,2.79,1.62.21.21-.65,1.51-1.01,2.32-1.23-.6-2.46-1.22-3.7-1.8-.33-.16-.72-.21-1.18-.34-2.35,3.05-4.72,6.14-7.36,9.58,1.22,1.11,2.47,2.23,4.08,3.69-4.38-.31-8.11-.57-13.02-.91,2.44,3.78,3.8,5.89,5.19,8.04-.5.11-.96.37-1.17.23-7.08-4.35-7.33-4.31-12.98,2.66-1.29,1.59-2.53,3.22-3.86,4.77-1.35,1.57-2.79,3.07-5.33,5.85,8.76,7.31,17.48,14.58,27.14,22.63-14.28.23-25.6-4.13-36.83-12.61-11.19,12.73-22.54,25.25-33.45,38.15-12.41,14.68-24.48,29.65-36.61,44.56-19.22,23.63-38.33,47.35-57.58,70.96-8.48,10.4-17.36,20.48-25.71,30.98-4.52,5.68-1.86,12.45.74,17.42,3.65,6.96,2.16,13.43.82,19.89-1.19,5.71-3.63,11.38-6.61,16.42-1.76,2.99-6.09,4.35-8.39,7.16-1.62,1.99-2.76,5.31-2.43,7.81,2.87,21.26-2.71,39.83-16.9,55.85-9.05,10.21-19.17,18.97-30.97,26.16-8.08,4.93-16.89,5.04-25.11,5.47-11.18.58-22.95-.05-33.55-5.29-3.65-1.8-7.09-4.01-10.62-6.05-1.9-1.1-3.77-2.24-5.77-3.43-24.24,26.54-48.19,52.75-72.44,79.31-4.05-3.69-8.35-7.6-13.48-12.27,28.71-22.98,52.62-49.74,75.42-76.21-6.42-10.72-13.02-20.64-18.44-31.16-3.75-7.28-2.5-15.36-1.71-23.53,1.16-11.95,4.55-23.05,9.31-33.75,7.07-15.88,19.19-26.89,35.1-33.91,5.87-2.59,11.58-5.1,18.28-4.75,2.42.13,5.02-1.3,7.37-2.4,5.84-2.71,11.59-5.64,16.74-8.17,1.39.71,1.94.82,2.01,1.06,1.87,6.79,6.52,9.39,13.23,11.32,7.98,2.3,15.27,6.98,22.4,11.83,1.57-.62,3.13-1.24,4.7-1.86.27,1.77.54,3.53.81,5.3,1.4-.65,2.95-1.09,4.16-1.99,1.62-1.2,2.97-2.75,4.44-4.16-1.05,1.93-2.23,3.79-3.11,5.79-.8,1.82-1.27,3.78-1.88,5.68.65.28,1.31.56,1.96.84,4.75-5.85,9.64-11.58,14.15-17.6,1.36-1.82,1.67-4.42,2.82-7.66-2.44.95-3.31,1.29-4.19,1.63.67-3.68,1.34-7.36,2.02-11.04-.47-.09-.93-.18-1.4-.26-3.95,4.4-7.9,8.81-11.85,13.21Zm52.63-42.53c-.13.91.05,2.1-.45,2.7-5.11,6.1-10.76,11.8-15.38,18.24-2.9,4.04-8.37,6.92-7.85,14.72,46.91-57.49,92.91-113.86,138.91-170.23-.6-.48-1.19-.97-1.79-1.45-1.53,1.91-3.04,3.84-4.59,5.74-8.57,10.46-17.06,20.97-25.76,31.32-3.98,4.73-8.36,9.12-12.56,13.66.25-1.06.17-2.39.79-3.15,10-12.16,20.1-24.24,30.15-36.36,3.46-4.17,6.83-8.42,10.24-12.64-.37-.6-.74-1.21-1.1-1.81-1.81.95-3.78,1.69-5.4,2.89-1.89,1.41-3.48,3.22-5.21,4.85,1.34-2.47,2.67-4.94,3.93-7.26-12.94-1.38-17.23,10.04-25.22,16.3,1.49-2.17,2.98-4.35,4.91-7.17-10.38,5.72-15.11,16.24-24.69,21.96-7.67,4.59-13.97,11.64-20.44,18.04-10,9.91-18.81,20.9-29.46,30.3-9.72,8.57-19.01,17.98-24.47,30.26-.82,1.84-2.54,3.29-3.34,5.14-.4.93.34,2.35.48,3.14-1.31,2.34-2.9,4.62-3.93,7.13-2.09,5.11,2.76,11.53-2.94,16.15-.32.26.74,2.21,1.16,3.37l-.1-.12v11.04c2.14-1.69,4.1-3.23,6.05-4.77-1.41,2.17-3.04,4.23-4.19,6.53-1.31,2.62-2.19,5.45-3.25,8.18.58.23,1.15.47,1.73.7,3.79-4.78,7.41-9.71,11.41-14.31,3.93-4.53,8.22-8.74,12.35-13.1Zm-43.44,79.85c.64-.09,1.29-.17,1.93-.26,1.57-6.88,3.14-13.77,4.71-20.65-3.3,1.73-5.22,3.72-6.96,5.85-1.75,2.13-3.33,4.41-5.04,6.68,1.73,2.71,3.55,5.54,5.36,8.37Zm-10.46-12.51c6.08-.66,16.96-14.01,17.1-20.78-6.02,7.32-11.1,13.49-17.1,20.78Z"/>
      <path class="cls-1" d="m360.26,273.95c7.74-9.56,15.48-19.12,23.22-28.68.43.35.86.69,1.29,1.04-7.73,9.6-15.46,19.2-23.2,28.79-.44-.38-.88-.76-1.31-1.15Z"/>
      <path class="cls-1" d="m415.17,221.71c-3.08,4.5-5.88,9.23-9.3,13.45-4.27,5.26-9.05,10.1-13.62,15.13,3.37-4.61,6.58-9.35,10.16-13.79,4.08-5.07,8.49-9.87,12.76-14.79Z"/>
      <path class="cls-1" d="m442.57,189.17c-3.71,4.97-7.32,10.01-11.15,14.88-1.81,2.3-4.04,4.26-6.08,6.37,1.56-2.59,2.81-5.44,4.74-7.71,3.97-4.68,8.31-9.05,12.5-13.54Z"/>
      <path class="cls-1" d="m406.42,216.56c5.88-7.37,11.76-14.74,17.64-22.12.45.36.91.71,1.36,1.07-5.91,7.35-11.82,14.7-17.73,22.05-.42-.33-.85-.67-1.27-1Z"/>
      <path class="cls-1" d="m369.56,277.56c-4.98,6.12-9.96,12.24-14.95,18.36,4.98-6.12,9.96-12.24,14.95-18.36Z"/>
      <path class="cls-1" d="m336.44,304.44l12.92-16.97c.47.38.93.75,1.4,1.13-5.27,4.86-7.33,12.33-14.42,15.72,0,0,.1.12.1.12Z"/>
      <path class="cls-1" d="m452.79,176.07c-3.47,4.44-6.94,8.88-10.4,13.32,3.47-4.44,6.94-8.88,10.4-13.32Z"/>
      <path class="cls-1" d="m431.18,213.12c-5.66,7.35-11.18,14.8-17,22.01-11.9,14.75-23.85,29.46-36.01,44-5.68,6.79-11.91,13.13-17.88,19.67,3.85-5.35,7.44-10.9,11.59-16,11.69-14.41,23.62-28.64,35.44-42.95,6.75-8.16,13.44-16.38,20.26-24.48.87-1.03,2.39-1.51,3.6-2.25Z"/>
    </g>
  </g>
</svg>