<svg id="Layer_1" data-name="Layer 1" xmlns="http://www.w3.org/2000/svg" viewBox="0 0 377 300">
  
  <g id="CY2cuD.tif">
    <g>
      
      <path class="cls-1" d="m377,130.89c-2.6,3.48-5.14,7.01-7.81,10.42-4.71,6-9.2,12.21-14.34,17.82-4.39,4.81-9.27,9.29-14.47,13.21-5.18,3.9-10.81,7.4-16.65,10.21-7.88,3.8-16.08,7-24.31,9.99-3.14,1.14-6.74,1.24-10.14,1.33-2.5.07-4.2-1.16-4.66-4.17-1.58-10.24-3.2-20.48-5.31-30.62-2.16-10.42-5.14-20.63-10.08-30.18-3.07-5.95-5.7-12.13-8.64-18.15-1.29-2.65-2.77-5.24-4.42-7.68-.32-.47-2.27-.57-2.72-.11-5.86,5.99-11.58,12.1-17.33,18.19-5.72,6.06-11.5,12.06-17.11,18.22-4.19,4.6-7.96,9.58-12.24,14.08-5.82,6.13-11.98,11.94-17.94,17.94-3.06,3.08-5.86,6.43-9.03,9.39-5.02,4.68-10.08,9.35-15.44,13.62-7.84,6.23-15.91,12.17-24.01,18.06-2.41,1.75-5.24,2.92-7.85,4.41-7.36,4.2-14.83,8.24-22.03,12.71-8.8,5.47-17.77,10.96-24.3,19.14-4.58,5.74-10.05,10.8-13.09,17.9-3.41,7.97-7.81,15.55-12.18,23.07-1.83,3.16-4.28,6.31-7.22,8.34-1.76,1.21-5.32.97-7.55.08-4.5-1.79-8.78-4.27-12.89-6.86-1.99-1.25-3.53-3.32-5.08-5.18-2.84-3.4-6.05-3.68-9.31-.96-2.44,2.04-5.02,4-7.81,5.48-1.23.65-3.13.02-4.73-.04.64-1.29,1-2.88,1.99-3.78,1.53-1.39,3.6-2.16,5.22-3.47.77-.62,1.53-2,1.34-2.82-.16-.73-1.67-1.7-2.52-1.64-2.34.18-4.62,1.02-6.96,1.26-1.4.14-2.87-.35-4.3-.55.99-1.19,1.75-2.84,3.02-3.49,2.54-1.28,5.64-1.57,8-3.06,4.39-2.78,10.81-2.61,13-8.68.12-.32.73-.52.77-.81.88-7.59,8.18-10.92,11.36-17.1,2.1-4.08,5.9-7.44,9.41-10.59,7.23-6.49,14.56-12.92,22.27-18.82,8.08-6.2,16.59-11.85,25.03-17.56,4.55-3.08,9.44-5.66,14.01-8.7,7.12-4.74,14.14-9.63,21.13-14.56,4.33-3.06,8.68-6.12,12.75-9.51,5.99-4.98,11.91-10.06,17.54-15.43,5.17-4.93,10.19-10.07,14.78-15.53,4.75-5.64,9.04-11.68,13.29-17.72,4.71-6.7,9.25-13.53,13.67-20.42,3.04-4.75,5.46-9.91,8.66-14.54,4.15-6,8.74-11.7,13.26-17.44,1.17-1.48,2.96-2.47,4.08-3.97.47-.62.33-2.25-.18-2.97-2.3-3.25-4.91-6.27-7.2-9.53-.49-.7-.51-2.45.02-3.01,3.66-3.93,7.53-7.66,11.31-11.48,3.23-3.26,6.33-6.65,9.66-9.81,3.33-3.17,6.89-6.1,10.3-9.19,3.42-3.1,6.62-6.47,10.19-9.39,8.25-6.74,11.49-7.34,20.53-2.22.23.13.56.19.67.39,5.58,9.52,15.86,14.92,21.21,24.87,2.64,4.92,5.8,9.58,8.3,14.68,1.98,4.04,5.32,7.41,8.07,11.06,3.45,4.58,6.91,9.15,10.37,13.72,6.18,8.14,12.36,16.27,18.56,24.39,3.96,5.2,7.86,10.45,11.95,15.55,4.42,5.5,9.02,10.86,13.55,16.26.81.97,1.69,1.88,2.54,2.82v3.18Z"/>
    </g>
  </g>
</svg>