<?xml version="1.0" encoding="utf-8"?>
<svg version="1.1" id="Layer_1" xmlns="http://www.w3.org/2000/svg" xmlns:xlink="http://www.w3.org/1999/xlink" x="0px" y="0px"
	 viewBox="0 0 137 300" style="enable-background:new 0 0 137 300;" xml:space="preserve">
<g id="CY2cuD.tif">
	<g>
		<path d="M128.1,24.9c0.4,3.1,0.9,6.1,1.3,9.2c0.6,5.4,1.5,10.7,1.7,16.1c0.2,4.6,0,9.3-0.6,13.9c-0.6,4.6-1.7,9.1-3.2,13.5
			c-2,5.9-4.6,11.6-7.2,17.2c-1,2.1-2.8,4-4.4,5.8c-1.2,1.3-2.7,1.5-4.4,0.2c-5.9-4.3-11.9-8.7-18-12.7C86.9,83.9,80.3,80.3,73,78
			c-4.5-1.4-9-3.2-13.4-4.8c-2-0.7-4-1.2-6.1-1.6c-0.4-0.1-1.4,0.9-1.4,1.3c0.1,5.9,0.3,11.9,0.4,17.8c0.2,5.9,0.3,11.8,0.6,17.7
			c0.2,4.4,0.8,8.8,0.9,13.2c0.2,6,0,12,0,18c0,3.1,0.3,6.2,0.2,9.2c-0.2,4.9-0.4,9.8-0.9,14.6c-0.8,7.1-1.9,14.1-3,21.1
			c-0.3,2.1-1.2,4.1-1.7,6.2c-1.6,5.8-3.3,11.6-4.7,17.4c-1.7,7.2-3.4,14.4-2.6,21.8c0.6,5.2,0.4,10.5,2.4,15.6
			c2.3,5.7,3.9,11.7,5.5,17.7c0.7,2.5,1,5.3,0.6,7.8c-0.3,1.5-2.2,3.2-3.8,3.8c-3.2,1.4-6.6,2.3-9.9,3c-1.6,0.4-3.4,0.1-5.2-0.1
			c-3.1-0.3-4.9,1.2-5.2,4.2c-0.2,2.2-0.5,4.5-1.2,6.7c-0.3,0.9-1.6,1.6-2.4,2.4c-0.3-1-0.9-1.9-0.9-2.9c0.1-1.5,0.7-2.9,0.9-4.4
			c0.1-0.7-0.2-1.8-0.7-2.1c-0.4-0.3-1.7,0-2.1,0.4c-1.1,1.3-1.8,2.8-2.9,4.1c-0.6,0.8-1.6,1.3-2.4,1.9c-0.1-1.1-0.5-2.3-0.2-3.3
			c0.6-1.9,2-3.6,2.5-5.6c0.8-3.6,4.1-6.7,2.2-10.9c-0.1-0.2,0.1-0.6,0-0.8c-3.4-4.3-1.4-9.6-2.9-14.3c-1-3.1-0.8-6.7-0.6-10
			c0.4-6.9,0.8-13.8,1.7-20.6c0.9-7.2,2.4-14.3,3.8-21.4c0.7-3.8,1.9-7.6,2.7-11.4c1.2-6,2.3-11.9,3.3-17.9
			c0.6-3.7,1.3-7.4,1.6-11.2c0.5-5.5,0.9-11,1.1-16.6c0.1-5.1,0.1-10.2-0.4-15.2c-0.4-5.2-1.3-10.4-2.2-15.6
			c-1-5.7-2.1-11.4-3.4-17.1c-0.9-3.9-2.2-7.7-3-11.6c-0.9-5.1-1.5-10.3-2.1-15.4c-0.2-1.3,0.2-2.7,0.1-4c-0.1-0.5-1-1.3-1.6-1.4
			c-2.8-0.5-5.6-0.7-8.4-1.2c-0.6-0.1-1.5-1-1.5-1.5c-0.1-3.8-0.1-7.6-0.1-11.4c0-3.3-0.2-6.5-0.1-9.8c0.1-3.3,0.4-6.5,0.6-9.8
			c0.2-3.3,0.1-6.6,0.4-9.8C8.2,12.9,9.5,11,16.6,9C16.8,9,17,8.8,17.2,8.9c7.6,2,15.5-0.5,23.1,1.8c3.8,1.1,7.7,1.9,11.5,3.2
			c3,1,6.4,1,9.6,1.5c4,0.6,8.1,1.1,12.1,1.7c7.2,1,14.4,2,21.6,2.9c4.6,0.6,9.2,1.3,13.8,1.8c5,0.5,10,0.9,15,1.4
			c0.9,0.1,1.8,0.1,2.7,0.1L128.1,24.9L128.1,24.9z"/>
	</g>
</g>
</svg>
