<?xml version="1.0" encoding="UTF-8"?>
<svg id="Layer_1" data-name="Layer 1" xmlns="http://www.w3.org/2000/svg" viewBox="0 0 490.02 490.02">
  <defs>
    <style>
      .cls-1, .cls-2 {
        stroke-width: 0px;
      }

      .cls-2 {
        fill: #fff;
      }
    </style>
  </defs>
  <g id="HFbpCP.tif">
    <g>
      <path class="cls-2" d="m490.02,490.02H0V0h490.02v490.02Zm-110.2-415.4c-3.5,4.1-6.54,8.15-10.08,11.7-29.05,29.17-58.19,58.25-87.31,87.35-15.8,15.8-31.56,31.63-47.47,47.33-1.73,1.7-2.18,3.18-1.47,5.27-1.75.54-4.07.54-5.16,1.7-14.09,14.96-30.28,27.89-42.8,44.37-3.13,4.11-8.6,5.65-11.27,10.81-1.67,3.23-6.08,4.95-8.94,7.68-8.69,8.27-17.21,16.71-25.82,25.07-8.24,8-16.59,15.88-24.74,23.97-12.53,12.44-25.01,24.93-37.37,37.54-13.52,13.79-26.88,27.75-40.32,41.63-4.8,4.96-9.64,9.87-14.39,14.87-1.83,1.93-2.9,4.05-.96,6.69,2.55,3.48,4.58,7.41,7.47,10.56,6.43,7,13.21,13.64,21.48,18.59,2.14,1.28,3.63,1.26,5.38-.34,5.02-4.59,10.24-8.96,15.09-13.71,16.52-16.21,32.99-32.47,49.35-48.85,25.26-25.29,50.32-50.78,75.61-76.04,72.14-72.06,144.34-144.04,216.51-216.07,1.13-1.13,2.04-2.47,3.16-3.84,2.92,1.77,5.27,3.19,8.42,5.09,4.58-4.31,9.35-8.79,14.16-13.31,1.16.92,2.18,2.09,3.48,2.66.98.43,2.76.62,3.39.04,7.24-6.69,14.33-13.55,21.29-20.19-5.49-8.48-5.25-8.26.59-14.69,4.38-4.82,8.24-10.24,3.81-17.25-1.19-1.88-2.15-3.93-3.5-5.68-1.8-2.34-3.9-4.46-5.84-6.7-7.47-8.63-14.76-17.13-26.26-21.19-5.03-1.78-7.8.36-10.9,2.43-3.55,2.37-6.5,5.62-9.41,8.22-2.8-1.67-4.79-2.85-6.68-3.98-.33,1.03-.35,2.49-1,2.89-3,1.83-6.08,3.6-9.32,4.94-3.35,1.38-7.18,6.23-6.67,9.13-2.72-2.3-3.83.63-4.94,1.89-3.01,3.43,1.33,5.27,2.24,8.35-4.44,4.45-9.03,9.05-13.49,13.52,1.8,2.89,3.27,5.24,4.71,7.54Z"/>
      <path class="cls-1" d="m379.83,74.62c-1.44-2.3-2.9-4.65-4.71-7.54,4.46-4.47,9.06-9.08,13.49-13.52-.91-3.08-5.25-4.92-2.24-8.35,1.11-1.26,2.22-4.19,4.94-1.89-.52-2.91,3.32-7.75,6.67-9.13,3.24-1.34,6.32-3.11,9.32-4.94.66-.4.67-1.86,1-2.89,1.89,1.13,3.88,2.31,6.68,3.98,2.91-2.6,5.86-5.85,9.41-8.22,3.1-2.07,5.87-4.21,10.9-2.43,11.51,4.06,18.79,12.57,26.26,21.19,1.94,2.24,4.04,4.35,5.84,6.7,1.35,1.75,2.31,3.8,3.5,5.68,4.44,7,.57,12.43-3.81,17.25-5.84,6.42-6.08,6.2-.59,14.69-6.95,6.64-14.04,13.5-21.29,20.19-.62.58-2.41.39-3.39-.04-1.29-.57-2.32-1.74-3.48-2.66-4.81,4.52-9.58,9.01-14.16,13.31-3.15-1.91-5.49-3.32-8.42-5.09-1.12,1.37-2.03,2.71-3.16,3.84-72.16,72.03-144.37,144.01-216.51,216.07-25.29,25.26-50.35,50.74-75.61,76.04-16.35,16.38-32.82,32.64-49.35,48.85-4.85,4.76-10.07,9.13-15.09,13.71-1.75,1.6-3.24,1.62-5.38.34-8.27-4.95-15.06-11.59-21.48-18.59-2.89-3.15-4.92-7.08-7.47-10.56-1.94-2.64-.87-4.76.96-6.69,4.75-5,9.59-9.91,14.39-14.87,13.43-13.88,26.79-27.83,40.32-41.63,12.36-12.61,24.84-25.1,37.37-37.54,8.15-8.09,16.5-15.97,24.74-23.97,8.61-8.35,17.14-16.8,25.82-25.07,2.87-2.73,7.27-4.45,8.94-7.68,2.67-5.16,8.14-6.69,11.27-10.81,12.53-16.48,28.72-29.41,42.8-44.37,1.09-1.16,3.41-1.16,5.16-1.7-.72-2.1-.26-3.57,1.47-5.27,15.91-15.69,31.67-31.53,47.47-47.33,29.11-29.1,58.26-58.18,87.31-87.35,3.54-3.55,6.57-7.61,10.08-11.7Z"/>
    </g>
  </g>
</svg>