<svg id="Layer_1" data-name="Layer 1" xmlns="http://www.w3.org/2000/svg" viewBox="0 0 589.5 608.86">
  <g id="m9ekUt.tif">
    <g>
      <path class="cls-1" d="m562.43,1.52c12.31,15.17,21.25,30.21,23.22,48.77,1.24,11.64,1.96,23.39-1.32,34.5-2.73,9.25-7.27,18.19-12.29,26.5-8.84,14.62-21.85,25.53-34.57,36.76-27.03,23.86-53.71,48.13-80.21,72.58-34.43,31.77-68.71,63.73-102.77,95.9-46.71,44.11-93.18,88.49-139.7,132.8-5.76,5.49-10.75,11.9-16.97,16.78-3.78,2.96-9.23,5.28-13.92,5.26-9.21-.03-15.51,3.84-21.03,10.56-8.88,10.82-17.9,21.52-27.07,32.09-15.52,17.88-34.5,31.21-55.57,41.78-4.87,2.44-9.41,5.56-14,8.53-6.33,4.09-8.4,10.31-8.05,17.47.26,5.35.16,10.38-2.73,15.33-3.1,5.31-7.58,7.73-13.24,8.27-1.37.13-3.22-1.22-4.33-2.39-9.18-9.71-18.24-19.53-27.33-29.32-.22-.24-.42-.49-.63-.73-7.69-8.63-7.59-8.52.64-16.48,24.19-23.4,48.3-46.88,72.42-70.35,26.66-25.93,53.59-51.6,79.89-77.89,57.79-57.78,115.41-115.72,172.81-173.89,56.33-57.08,112.32-114.5,168.43-171.8,18.37-18.75,36.68-37.56,54.97-56.38,1.21-1.25,2.06-2.84,3.34-4.65Z"/>
    </g>
  </g>
</svg>