<?xml version="1.0" encoding="UTF-8"?>
<svg id="Layer_1" data-name="Layer 1" xmlns="http://www.w3.org/2000/svg" viewBox="0 0 589.5 608.86">
  <defs>
    <style>
      .cls-1, .cls-2 {
        stroke-width: 0px;
      }

      .cls-2 {
        fill: #fff;
      }
    </style>
  </defs>
  <g id="m9ekUt.tif">
    <g>
      <path class="cls-2" d="m589.5,608.86c-196.5,0-393,0-589.5,0C0,405.91,0,202.95,0,0c196.5,0,393,0,589.5,0,0,202.95,0,405.91,0,608.86ZM562.43,1.52c-1.28,1.81-2.13,3.41-3.34,4.65-18.29,18.82-36.6,37.63-54.97,56.38-56.12,57.29-112.1,114.72-168.43,171.8-57.4,58.16-115.02,116.11-172.81,173.89-26.3,26.29-53.23,51.96-79.89,77.89-24.12,23.47-48.23,46.95-72.42,70.35-8.23,7.96-8.33,7.85-.64,16.48.21.24.41.49.63.73,9.09,9.79,18.15,19.61,27.33,29.32,1.11,1.17,2.96,2.52,4.33,2.39,5.66-.54,10.14-2.96,13.24-8.27,2.89-4.95,3-9.98,2.73-15.33-.35-7.16,1.72-13.38,8.05-17.47,4.59-2.97,9.13-6.09,14-8.53,21.07-10.57,40.05-23.9,55.57-41.78,9.17-10.57,18.2-21.27,27.07-32.09,5.51-6.72,11.81-10.59,21.03-10.56,4.69.01,10.15-2.3,13.92-5.26,6.22-4.87,11.2-11.29,16.97-16.78,46.52-44.32,92.99-88.69,139.7-132.8,34.06-32.17,68.34-64.12,102.77-95.9,26.5-24.45,53.17-48.72,80.21-72.58,12.72-11.23,25.73-22.14,34.57-36.76,5.02-8.3,9.56-17.24,12.29-26.5,3.28-11.12,2.55-22.87,1.32-34.5-1.97-18.56-10.91-33.6-23.22-48.77Z"/>
      <path class="cls-1" d="m562.43,1.52c12.31,15.17,21.25,30.21,23.22,48.77,1.24,11.64,1.96,23.39-1.32,34.5-2.73,9.25-7.27,18.19-12.29,26.5-8.84,14.62-21.85,25.53-34.57,36.76-27.03,23.86-53.71,48.13-80.21,72.58-34.43,31.77-68.71,63.73-102.77,95.9-46.71,44.11-93.18,88.49-139.7,132.8-5.76,5.49-10.75,11.9-16.97,16.78-3.78,2.96-9.23,5.28-13.92,5.26-9.21-.03-15.51,3.84-21.03,10.56-8.88,10.82-17.9,21.52-27.07,32.09-15.52,17.88-34.5,31.21-55.57,41.78-4.87,2.44-9.41,5.56-14,8.53-6.33,4.09-8.4,10.31-8.05,17.47.26,5.35.16,10.38-2.73,15.33-3.1,5.31-7.58,7.73-13.24,8.27-1.37.13-3.22-1.22-4.33-2.39-9.18-9.71-18.24-19.53-27.33-29.32-.22-.24-.42-.49-.63-.73-7.69-8.63-7.59-8.52.64-16.48,24.19-23.4,48.3-46.88,72.42-70.35,26.66-25.93,53.59-51.6,79.89-77.89,57.79-57.78,115.41-115.72,172.81-173.89,56.33-57.08,112.32-114.5,168.43-171.8,18.37-18.75,36.68-37.56,54.97-56.38,1.21-1.25,2.06-2.84,3.34-4.65Z"/>
    </g>
  </g>
</svg>