<?xml version="1.0" encoding="UTF-8"?>
<svg id="Layer_1" data-name="Layer 1" xmlns="http://www.w3.org/2000/svg" viewBox="0 0 593.5 587.87">
  <defs>
    <style>
      .cls-1, .cls-2 {
        stroke-width: 0px;
      }

      .cls-2 {
        fill: #fff;
      }
    </style>
  </defs>
  <g id="_3UroWX.tif" data-name="3UroWX.tif">
    <g>
      <path class="cls-2" d="m593.5,587.87c-197.83,0-395.67,0-593.5,0C0,391.92,0,195.96,0,0c197.83,0,395.67,0,593.5,0,0,195.96,0,391.92,0,587.87Zm-490.13-89.75c2.89,1.15,4.7,2.44,6.55,2.49,5.2.15,10.49.3,15.6-.5,6.89-1.07,13.75-2.71,20.4-4.8,1.87-.59,4.09-3.55,4.2-5.52.21-4.01-2.53-6.69-6.33-8.34-6.64-2.89-7.47-8.28-2.3-13.37,10.98-10.82,21.95-21.65,32.87-32.53,26.56-26.47,53.08-52.98,79.62-79.47,15.53-15.5,31.14-30.92,46.6-46.49,32.04-32.27,63.99-64.63,96.02-96.92,20.95-21.12,42.01-42.12,62.92-63.27,23.31-23.57,46.53-47.23,69.77-70.86,17.57-17.86,35.18-35.69,52.67-53.63,4.76-4.88,8.17-10.58,8.4-17.71.1-2.92-.74-4.68-4.16-4.71-6.23-.05-11.68,1.9-16.13,6.14-25.07,23.92-50.13,47.85-75.07,71.9-29.86,28.79-59.57,57.74-89.4,86.57-17.89,17.28-35.98,34.37-53.83,51.69-21.51,20.88-42.81,41.96-64.28,62.88-19.9,19.38-40,38.57-59.86,57.99-16.53,16.17-32.8,32.6-49.26,48.84-19.06,18.79-38.35,37.34-57.2,56.33-3.67,3.7-6.54,4.81-11.56,3.21-3.88-1.23-3.75-4.61-5.72-6.74-1.47-1.59-3.54-3.75-5.25-3.68-1.99.09-4.18,2.07-5.69,3.77-.98,1.1-1.17,3.14-1.24,4.77-.38,8.63-5.57,16.58-3.24,25.65.8,3.11.31,6.57.28,9.87,0,.97-.17,2.2-.77,2.86-2.3,2.53-4.61,5.12-7.26,7.26-17.85,14.4-34.64,29.86-49.32,47.55-3.63,4.38-7.76,8.34-11.67,12.49l-.62-1.79c-2.59,0-5.46-.73-7.7.15-4.89,1.93-5.22,6.76-5.88,11.29-.52,3.55-1.89,7.01-2.16,10.56-.26,3.4-.73,7.69,1,10.04,1.38,1.88,6.88,2.96,8.88,1.72,4.52-2.83,9.23-2,13.83-2.77,9.47-1.59,11.83-5.42,8.03-14.8,25-20.41,47.86-43.46,68.26-68.12Z"/>
      <path class="cls-1" d="m103.38,498.12c-20.4,24.66-43.26,47.71-68.26,68.12,3.8,9.38,1.44,13.21-8.03,14.8-4.59.77-9.3-.05-13.83,2.77-2,1.25-7.49.16-8.88-1.72-1.73-2.35-1.26-6.65-1-10.04.28-3.55,1.64-7.01,2.16-10.56.66-4.53.99-9.36,5.88-11.29,2.24-.88,5.11-.15,7.7-.15l.62,1.79c3.9-4.15,8.03-8.12,11.67-12.49,14.68-17.69,31.47-33.15,49.32-47.55,2.65-2.14,4.96-4.73,7.26-7.26.59-.66.76-1.89.77-2.86.03-3.3.52-6.76-.28-9.87-2.33-9.07,2.86-17.02,3.24-25.65.07-1.64.26-3.67,1.24-4.77,1.51-1.69,3.71-3.68,5.69-3.77,1.71-.08,3.78,2.09,5.25,3.68,1.97,2.13,1.85,5.51,5.72,6.74,5.02,1.6,7.89.49,11.56-3.21,18.85-18.99,38.14-37.55,57.2-56.33,16.47-16.23,32.73-32.67,49.26-48.84,19.86-19.43,39.95-38.61,59.86-57.99,21.47-20.91,42.78-42,64.28-62.88,17.85-17.33,35.94-34.41,53.83-51.69,29.83-28.82,59.54-57.77,89.4-86.57,24.94-24.05,50-47.99,75.07-71.9,4.45-4.24,9.89-6.19,16.13-6.14,3.42.03,4.26,1.79,4.16,4.71-.24,7.13-3.64,12.82-8.4,17.71-17.49,17.94-35.09,35.77-52.67,53.63-23.25,23.63-46.46,47.3-69.77,70.86-20.92,21.15-41.98,42.15-62.92,63.27-32.03,32.29-63.97,64.65-96.02,96.92-15.46,15.57-31.07,30.99-46.6,46.49-26.54,26.49-53.07,53-79.62,79.47-10.92,10.88-21.89,21.71-32.87,32.53-5.16,5.09-4.34,10.48,2.3,13.37,3.79,1.65,6.54,4.33,6.33,8.34-.1,1.98-2.33,4.94-4.2,5.52-6.65,2.09-13.51,3.73-20.4,4.8-5.11.79-10.4.65-15.6.5-1.85-.05-3.66-1.35-6.55-2.49Z"/>
    </g>
  </g>
</svg>