<svg id="Layer_1" data-name="Layer 1" xmlns="http://www.w3.org/2000/svg" viewBox="0 0 593.5 587.87">
  
  <g id="_3UroWX.tif" data-name="3UroWX.tif">
    <g>
      
      <path class="cls-1" d="m103.38,498.12c-20.4,24.66-43.26,47.71-68.26,68.12,3.8,9.38,1.44,13.21-8.03,14.8-4.59.77-9.3-.05-13.83,2.77-2,1.25-7.49.16-8.88-1.72-1.73-2.35-1.26-6.65-1-10.04.28-3.55,1.64-7.01,2.16-10.56.66-4.53.99-9.36,5.88-11.29,2.24-.88,5.11-.15,7.7-.15l.62,1.79c3.9-4.15,8.03-8.12,11.67-12.49,14.68-17.69,31.47-33.15,49.32-47.55,2.65-2.14,4.96-4.73,7.26-7.26.59-.66.76-1.89.77-2.86.03-3.3.52-6.76-.28-9.87-2.33-9.07,2.86-17.02,3.24-25.65.07-1.64.26-3.67,1.24-4.77,1.51-1.69,3.71-3.68,5.69-3.77,1.71-.08,3.78,2.09,5.25,3.68,1.97,2.13,1.85,5.51,5.72,6.74,5.02,1.6,7.89.49,11.56-3.21,18.85-18.99,38.14-37.55,57.2-56.33,16.47-16.23,32.73-32.67,49.26-48.84,19.86-19.43,39.95-38.61,59.86-57.99,21.47-20.91,42.78-42,64.28-62.88,17.85-17.33,35.94-34.41,53.83-51.69,29.83-28.82,59.54-57.77,89.4-86.57,24.94-24.05,50-47.99,75.07-71.9,4.45-4.24,9.89-6.19,16.13-6.14,3.42.03,4.26,1.79,4.16,4.71-.24,7.13-3.64,12.82-8.4,17.71-17.49,17.94-35.09,35.77-52.67,53.63-23.25,23.63-46.46,47.3-69.77,70.86-20.92,21.15-41.98,42.15-62.92,63.27-32.03,32.29-63.97,64.65-96.02,96.92-15.46,15.57-31.07,30.99-46.6,46.49-26.54,26.49-53.07,53-79.62,79.47-10.92,10.88-21.89,21.71-32.87,32.53-5.16,5.09-4.34,10.48,2.3,13.37,3.79,1.65,6.54,4.33,6.33,8.34-.1,1.98-2.33,4.94-4.2,5.52-6.65,2.09-13.51,3.73-20.4,4.8-5.11.79-10.4.65-15.6.5-1.85-.05-3.66-1.35-6.55-2.49Z"/>
    </g>
  </g>
</svg>