<?xml version="1.0" encoding="UTF-8"?>
<svg id="Layer_1" data-name="Layer 1" xmlns="http://www.w3.org/2000/svg" viewBox="0 0 580.5 580.5">
  <defs>
    <style>
      .cls-1, .cls-2 {
        stroke-width: 0px;
      }

      .cls-2 {
        fill: #fff;
      }
    </style>
  </defs>
  <g id="pUtdJV.tif">
    <g>
      <path class="cls-2" d="m0,0h580.5v580.5H0V0Zm374.6,4.49c-8.54.63-17.45-.08-25.55,2.15-23.24,6.39-46.8,12.29-66.72,27.12-5.5,4.09-12.52,6.44-17.31,11.15-16.06,15.83-33.82,30.24-44.15,51.13-3.65,7.38-9.82,13.76-12.27,21.42-4.93,15.41-9,31.22-11.74,47.16-3.18,18.53-4.67,37.35-6.66,56.07-3.14,29.58-8.52,58.67-17.42,87.13-6.33,20.26-14.07,40-24.96,58.03-14.28,23.67-32.41,44.48-54.09,61.93-3.79,3.05-7.36,6.58-11.59,8.86-10.09,5.43-20.51,10.24-30.8,15.3-9.16,4.51-18.28,8.8-26.12,15.83-8.13,7.28-14.46,14.82-17.98,25.61-3.33,10.2-3.43,19.84-2.25,30.12.87,7.63,3.29,14.2,7.05,20.92,6.12,10.93,14.34,18.94,25.21,25.02,6.13,3.43,12.21,5.5,19.12,6.73,12.8,2.28,24.84,1.13,36.6-4.26,3.04-1.4,7.18-1.56,9.23-3.76,7.15-7.7,14.63-15.41,20.07-24.29,6.84-11.16,11.64-23.56,17.62-35.26,2.97-5.81,5.9-11.89,10.1-16.76,8.77-10.17,17.74-20.34,27.8-29.19,12.12-10.67,24.63-21.38,38.45-29.56,22.41-13.27,46.97-22.27,72.15-28.98,26.2-6.98,52.98-10.88,79.95-13.83,21.55-2.36,43.33-3.34,64.44-9.13,16.43-4.51,33.53-6.78,47.81-17.53,7.54-5.68,17.15-8.9,23.92-15.26,17.22-16.18,35.06-31.97,45.96-53.76,4.83-9.66,11.64-18.25,14.5-29.01,2.99-11.23,8.58-22.06,9.75-33.41,1.98-19.19,5.44-38.61,1.27-57.98-3.2-14.88-3.52-30.41-10.39-44.49-5.43-11.13-8.78-23.63-15.81-33.56-13.72-19.37-27.58-38.86-48.04-52.47-10.55-7.01-20.21-15.21-32.25-19.88-7.98-3.09-15.64-6.99-23.46-10.5-1.39-.62-2.81-1.34-4.29-1.56-22.27-3.42-44.08-11.27-67.16-7.26Z"/>
      <path class="cls-1" d="m374.6,4.49c23.08-4.01,44.89,3.84,67.16,7.26,1.48.23,2.9.94,4.29,1.56,7.82,3.5,15.48,7.41,23.46,10.5,12.04,4.66,21.7,12.86,32.25,19.88,20.47,13.61,34.32,33.09,48.04,52.47,7.04,9.93,10.38,22.43,15.81,33.56,6.87,14.08,7.19,29.61,10.39,44.49,4.17,19.38.71,38.79-1.27,57.98-1.17,11.35-6.76,22.18-9.75,33.41-2.86,10.76-9.67,19.35-14.5,29.01-10.9,21.79-28.74,37.58-45.96,53.76-6.77,6.36-16.38,9.58-23.92,15.26-14.28,10.74-31.38,13.02-47.81,17.53-21.1,5.79-42.88,6.77-64.44,9.13-26.97,2.95-53.75,6.85-79.95,13.83-25.18,6.71-49.74,15.71-72.15,28.98-13.82,8.18-26.33,18.88-38.45,29.56-10.05,8.85-19.03,19.02-27.8,29.19-4.2,4.87-7.13,10.95-10.1,16.76-5.98,11.71-10.78,24.1-17.62,35.26-5.44,8.88-12.92,16.6-20.07,24.29-2.05,2.2-6.19,2.37-9.23,3.76-11.76,5.39-23.8,6.54-36.6,4.26-6.91-1.23-12.99-3.3-19.12-6.73-10.87-6.07-19.09-14.08-25.21-25.02-3.76-6.72-6.17-13.29-7.05-20.92-1.18-10.28-1.09-19.92,2.25-30.12,3.52-10.79,9.85-18.32,17.98-25.61,7.84-7.03,16.95-11.32,26.12-15.83,10.29-5.06,20.71-9.87,30.8-15.3,4.23-2.27,7.8-5.8,11.59-8.86,21.68-17.45,39.81-38.26,54.09-61.93,10.88-18.03,18.63-37.78,24.96-58.03,8.89-28.46,14.28-57.55,17.42-87.13,1.99-18.72,3.48-37.54,6.66-56.07,2.73-15.94,6.81-31.75,11.74-47.16,2.45-7.66,8.62-14.05,12.27-21.42,10.33-20.89,28.09-35.31,44.15-51.13,4.78-4.71,11.81-7.06,17.31-11.15,19.92-14.83,43.49-20.73,66.72-27.12,8.1-2.23,17.01-1.52,25.55-2.15Z"/>
    </g>
  </g>
</svg>