<?xml version="1.0" encoding="utf-8"?>
<svg version="1.1" id="Layer_1" xmlns="http://www.w3.org/2000/svg" xmlns:xlink="http://www.w3.org/1999/xlink" x="0px" y="0px"
	 viewBox="0 0 310.1 580.5" style="enable-background:new 0 0 310.1 580.5;" xml:space="preserve">
<g id="pUtdJV.tif">
	<g>
		<path d="M39.1,62.3c10.7-15.2,27.3-23,41.6-33.5c1-0.7,2.1-1.1,3.3-1.5c6.3-2.4,12.8-4.5,19-7.3c9.3-4.1,19.3-4.9,29.2-6.9
			c19.1-3.8,37.7-0.7,56.2,2.5c9.5,1.6,18.4,6.7,27.6,9.9c11.7,4,20.6,12.5,30.7,19.1c13.2,8.5,22.1,21.3,31.7,33.1
			c5.7,7,8.6,16.2,13.2,24.1c4.4,7.6,5.4,16.2,8.1,24.3c6.1,18.3,4.9,37.1,4.4,55.8c-0.2,7.3-3.8,14.5-4.8,21.9
			c-2,14-10.3,24.8-16.9,36.6c-8.6,15-20.2,27.8-30.9,41.2c-13.4,16.7-26.2,33.9-37,52.5c-10.3,17.8-19,36.6-24.1,56.6
			c-3.2,12.3-4.2,25.3-5,38c-0.7,10.6,0,21.3,0.8,31.9c0.4,5.1,2.1,10.1,3.7,15c3.2,9.9,7.5,19.5,9.9,29.6c1.9,8,2.1,16.5,2.4,24.8
			c0.1,2.4-2.1,4.8-3.1,7.3c-3.6,9.6-9.7,17-18.1,22.9c-4.6,3.2-9.1,5.4-14.5,6.9c-9.5,2.7-18.6,2.8-28.1,0.1
			c-5.9-1.7-10.9-4-15.6-7.8c-6.4-5.1-11.8-10.5-15.6-18.1c-4.1-8-4.7-15.8-4.3-24.4c0.5-8.3,3.1-15.8,5.8-23.5
			c2.9-8.6,6.1-17.1,8.7-25.8c1.1-3.6,1.1-7.6,1.5-11.4c2.4-21.9,0.9-43.7-4.4-64.9c-4-16.2-10.7-31.6-18.5-46.4
			c-10.9-20.9-24.2-40.2-39-58.5c-9.4-11.6-19.1-22.9-27.6-35.1c-7.4-10.4-14-21.6-19.8-32.9c-2.9-5.7-3-12.7-5.1-18.8
			c-5.9-17.5-4-35.5-3.9-53.3c0-5.3,2.7-10.6,3.4-15.9C6.7,110.9,16.6,94.4,26,77.8C29.3,72,34.6,67.5,39.1,62.3L39.1,62.3z"/>
	</g>
</g>
</svg>
