<?xml version="1.0" encoding="UTF-8"?>
<svg id="Layer_1" data-name="Layer 1" xmlns="http://www.w3.org/2000/svg" viewBox="0 0 525.38 525.38">
  <defs>
    <style>
      .cls-1, .cls-2 {
        stroke-width: 0px;
      }

      .cls-2 {
        fill: #fff;
      }
    </style>
  </defs>
  <g id="i7Sbui.tif">
    <g>
      <path class="cls-2" d="m0,0c175.13,0,350.25,0,525.38,0,0,175.13,0,350.25,0,525.38-175.13,0-350.25,0-525.38,0C0,350.25,0,175.13,0,0Zm479.37,136.9c.65.05,1.31.09,1.96.14,3.71-3.38,7.28-6.92,11.16-10.09,6.99-5.71,7.77-13.4,6.25-21.24-1.56-8.02-3.88-15.98-6.68-23.67-5.88-16.18-13.84-31.19-28.29-41.51-6.63-4.73-13.86-8.48-22.53-7.12-1.76.28-3.48.76-5.21,1.19-6.12,1.54-12.93,1.91-18.2,4.93-9.09,5.21-17.72,11.22-24.59,19.74-7.04,8.72-15.52,16.29-23.51,24.22-2.81,2.79-5.51,5.42-5.87,9.71-.09,1.06-1.06,2.45-2.01,2.94-1.75.9-3.78,1.25-6.08,1.94-2.05-1.49-4.46-3.24-6.77-4.92-2.86,1.5-5.68,2.87-8.39,4.44-6.12,3.53-13.25,6.11-18.04,10.97-9.65,9.8-18.07,20.82-26.85,31.46-2.95,3.58-2.47,7.67.65,11.06,1.5,1.63,2.92,3.33,5.06,5.79-5.59-.87-8.48.33-8.55,5.6-.01.9-2.58,2.57-3.9,2.51-3.53-.16-4.93,1.39-5.16,4.58-.17,2.31-.49,4.41-3.67,3.96-3.43-.49-5.07,1.23-5.3,4.52-.25,3.59-2.54,4.81-5.71,5.76-1.61.48-3.21,2.36-3.93,4-.48,1.09.13,3.28,1.03,4.27,4.96,5.44,10.21,10.61,15.23,16,2.13,2.28,3.94,4.85,5.89,7.29.69-.24,1.38-.49,2.08-.73,1.08-2.16,1.9-4.51,3.32-6.42,1.2-1.62,2.97-3.64,4.71-3.87,3.9-.51,5.99-1.67,5.66-6.03-.07-.9,2.06-2.94,2.79-2.77,4.64,1.06,5.68-1.54,6.22-5.21.16-1.09,1.23-3.02,1.59-2.95,6.43,1.18,7.55-2.49,7.31-7.61-.01-.22.66-.47.21-.17,4.12,3.52,8.04,6.87,12.14,10.38-5.72,6.17-10.96,11.9-16.29,17.55-5.42,5.76-10.93,11.44-16.52,17.29,1.11.74,1.85,1.25,1.64,1.1-13.75,14.23-27.54,28.39-41.16,42.71-3.29,3.46-5.71,7.77-9.04,11.17-4.52,4.62-9.65,8.65-14.34,13.11-9.28,8.82-18.4,17.8-27.66,26.64-7.2,6.87-14.54,13.6-21.77,20.44-15.08,14.25-30.08,28.59-45.21,42.79-25.45,23.9-50.18,48.47-72.04,75.78-1.09,1.37-1.55,3.23-2.37,4.83-1.44,2.83-.62,7.14-4.31,7.56-.22,2.52-.74,4.57-.5,6.53.48,3.82.19,8.8,2.45,11.07,2.57,2.58,6.14,6.72,11.19,4.74,8.74-3.42,18.19-4.39,25.57-11.9,11.47-11.66,24.87-21.41,36.46-32.97,19.41-19.34,38.07-39.45,56.99-59.28,11.72-12.28,23.35-24.65,35.04-36.96,3.38-3.56,6.87-7.02,10.24-10.58,12.68-13.4,25.32-26.84,38.05-40.18,1-1.04,2.6-1.51,3.94-2.21,1.59-.83,3.55-1.26,4.73-2.48,5.68-5.87,11.13-11.96,16.7-17.94,2.46-2.64,4.94-5.28,7.54-7.78,16.39-15.76,32.81-31.47,49.23-47.19.2-.19.65-.14,1.41-.29-1.38,1.62-2.44,2.86-3.5,4.11.22.25.44.5.65.75,1.66-1.16,3.31-2.31,4.99-3.49q6.26,4.58,12.33-.66c.55-.47,1.18-.84,1.71-1.33,6.96-6.45,13.9-12.92,20.72-19.26-1.44-2.71-2.63-4.98-3.97-7.51,3.94-3.77,7.77-7.7,11.91-11.27,2.18-1.88,4.9-3.12,7.38-4.64,2.08-1.27,4.68-2.11,6.12-3.9,1.68-2.08,3-4.9,3.29-7.53.46-4.27,2.9-3.41,5.48-2.98.71.12,1.4.33,2.1.47q15,3.05,26.41-7.68c2.66-2.5,5.33-5.01,7.13-6.71-.47-6.68-9.3-4.67-8.66-11.26,0-.06-.51-.25-.78-.24-4.29.16-4.43-2.58-3.84-6-3.98.12-6.75-1.05-5.7-5.69-1.99-.31-3.65-.56-5.33-.82-.12-1.83-.22-3.4-.32-4.99-1.96-.34-3.69-.63-5.5-.94.13-1.88.24-3.53.35-5.23h-5.73c.1-1.76.18-3.24.26-4.72-.3.2-.6.39-.9.59-1.38-1.25-4.15-3.02-3.91-3.67,2.3-6.19-2.36-2.21-4.24-2.84-.06-.81-.09-1.73-.21-2.64-.2-1.59-.45-3.16-.68-4.75-1.4.81-2.87,1.51-4.16,2.47-1.27.94-2.24,2.28-3.51,3.2-7.63,5.52-13.68,12.2-17.16,21.19-.85,2.19-3.2,4.27-5.38,5.36-4.96,2.47-6.21-2.49-8.49-4.45,1.02-5.22,3.97-7.29,8.73-7.13.8.03,1.69-.89,2.43-1.5,4.07-3.42,8.31-6.68,12.12-10.37,6.37-6.17,12.39-12.71,18.73-18.91,1.19-1.16,3.22-1.46,4.87-2.15.35.85.53,1.84,1.1,2.51.83.98,1.9,1.79,2.95,2.54.6.43,2,.61,2,.88-.1,5.19,4.08,2.7,6.42,3.43.15,1.83.3,3.5.45,5.32,1.69.13,3.11.24,4.8.37-.4,4.66,3.04,4.52,6.13,4.53q-.23,3.97,5.16,4.83c.14,1.27.29,2.58.44,3.87,1.46.22,2.82.43,4.14.63.4,1.44.77,2.76,1.06,3.78,1.97,1.06,5.21-.93,5.01,3.35-.05,1.08,3.1,2.17,4.55,3.5,1.5,1.38,3.03,2.9,3.98,4.66,1.02,1.9,1.39,4.16,2.04,6.26Z"/>
      <path class="cls-1" d="m479.37,136.9c-.65-2.1-1.02-4.36-2.04-6.26-.95-1.76-2.48-3.28-3.98-4.66-1.45-1.33-4.6-2.42-4.55-3.5.2-4.27-3.04-2.28-5.01-3.35-.29-1.02-.65-2.34-1.06-3.78-1.33-.2-2.69-.41-4.14-.63-.15-1.29-.29-2.6-.44-3.87q-5.39-.86-5.16-4.83c-3.1-.01-6.53.13-6.13-4.53-1.69-.13-3.1-.24-4.8-.37-.15-1.82-.29-3.49-.45-5.32-2.34-.73-6.51,1.76-6.42-3.43,0-.27-1.4-.46-2-.88-1.06-.75-2.12-1.56-2.95-2.54-.57-.67-.74-1.66-1.1-2.51-1.64.7-3.68.99-4.87,2.15-6.35,6.2-12.36,12.74-18.73,18.91-3.81,3.69-8.04,6.96-12.12,10.37-.74.62-1.63,1.53-2.43,1.5-4.76-.17-7.71,1.91-8.73,7.13,2.27,1.96,3.52,6.92,8.49,4.45,2.18-1.08,4.54-3.17,5.38-5.36,3.48-8.98,9.52-15.67,17.16-21.19,1.28-.92,2.25-2.26,3.51-3.2,1.29-.96,2.77-1.66,4.16-2.47.23,1.58.48,3.16.68,4.75.11.91.15,1.83.21,2.64,1.88.64,6.54-3.35,4.24,2.84-.24.65,2.54,2.42,3.91,3.67.3-.2.6-.39.9-.59-.08,1.48-.16,2.96-.26,4.72h5.73c-.11,1.69-.22,3.35-.35,5.23,1.8.31,3.53.61,5.5.94.1,1.59.2,3.16.32,4.99,1.68.26,3.33.51,5.33.82-1.05,4.65,1.72,5.82,5.7,5.69-.59,3.41-.45,6.16,3.84,6,.27-.01.79.18.78.24-.65,6.59,8.19,4.58,8.66,11.26-1.81,1.7-4.47,4.2-7.13,6.71q-11.41,10.73-26.41,7.68c-.7-.14-1.39-.35-2.1-.47-2.57-.44-5.01-1.29-5.48,2.98-.29,2.63-1.61,5.45-3.29,7.53-1.44,1.78-4.04,2.62-6.12,3.9-2.48,1.52-5.21,2.77-7.38,4.64-4.14,3.57-7.97,7.51-11.91,11.27,1.34,2.53,2.53,4.79,3.97,7.51-6.82,6.34-13.76,12.81-20.72,19.26-.53.49-1.16.86-1.71,1.33q-6.07,5.23-12.33.66c-1.68,1.17-3.34,2.33-4.99,3.49-.22-.25-.44-.5-.65-.75,1.06-1.25,2.13-2.49,3.5-4.11-.76.14-1.2.09-1.41.29-16.43,15.71-32.85,31.43-49.23,47.19-2.6,2.5-5.08,5.14-7.54,7.78-5.57,5.98-11.02,12.07-16.7,17.94-1.17,1.21-3.14,1.65-4.73,2.48-1.34.7-2.95,1.17-3.94,2.21-12.73,13.35-25.37,26.79-38.05,40.18-3.37,3.56-6.86,7.02-10.24,10.58-11.69,12.31-23.31,24.68-35.04,36.96-18.93,19.83-37.58,39.93-56.99,59.28-11.59,11.55-25,21.3-36.46,32.97-7.38,7.51-16.83,8.47-25.57,11.9-5.05,1.98-8.62-2.17-11.19-4.74-2.26-2.27-1.97-7.24-2.45-11.07-.25-1.96.28-4.01.5-6.53,3.69-.42,2.87-4.73,4.31-7.56.82-1.6,1.27-3.47,2.37-4.83,21.86-27.31,46.59-51.88,72.04-75.78,15.13-14.2,30.13-28.54,45.21-42.79,7.23-6.84,14.57-13.57,21.77-20.44,9.26-8.84,18.38-17.82,27.66-26.64,4.69-4.46,9.82-8.49,14.34-13.11,3.34-3.41,5.75-7.71,9.04-11.17,13.62-14.32,27.41-28.47,41.16-42.71.21.14-.53-.36-1.64-1.1,5.59-5.84,11.09-11.53,16.52-17.29,5.32-5.65,10.57-11.38,16.29-17.55-4.11-3.51-8.03-6.86-12.14-10.38.45-.3-.22-.05-.21.17.24,5.12-.88,8.79-7.31,7.61-.36-.07-1.43,1.86-1.59,2.95-.54,3.68-1.57,6.27-6.22,5.21-.73-.17-2.86,1.87-2.79,2.77.33,4.35-1.76,5.51-5.66,6.03-1.73.23-3.5,2.25-4.71,3.87-1.42,1.91-2.24,4.26-3.32,6.42-.69.24-1.38.49-2.08.73-1.96-2.44-3.77-5.01-5.89-7.29-5.02-5.38-10.28-10.55-15.23-16-.9-.99-1.52-3.18-1.03-4.27.72-1.64,2.32-3.52,3.93-4,3.17-.94,5.46-2.16,5.71-5.76.23-3.29,1.87-5.01,5.3-4.52,3.18.45,3.5-1.64,3.67-3.96.23-3.19,1.63-4.74,5.16-4.58,1.32.06,3.89-1.6,3.9-2.51.07-5.27,2.96-6.47,8.55-5.6-2.14-2.45-3.56-4.16-5.06-5.79-3.12-3.39-3.61-7.48-.65-11.06,8.77-10.64,17.2-21.66,26.85-31.46,4.79-4.87,11.92-7.44,18.04-10.97,2.71-1.56,5.53-2.93,8.39-4.44,2.31,1.68,4.72,3.43,6.77,4.92,2.3-.69,4.33-1.04,6.08-1.94.95-.49,1.92-1.88,2.01-2.94.36-4.29,3.06-6.92,5.87-9.71,7.99-7.93,16.47-15.5,23.51-24.22,6.87-8.52,15.5-14.53,24.59-19.74,5.28-3.02,12.08-3.39,18.2-4.93,1.73-.44,3.45-.92,5.21-1.19,8.67-1.37,15.9,2.38,22.53,7.12,14.45,10.32,22.41,25.33,28.29,41.51,2.79,7.69,5.12,15.64,6.68,23.67,1.52,7.84.74,15.53-6.25,21.24-3.88,3.17-7.45,6.71-11.16,10.09-.65-.05-1.31-.09-1.96-.14Zm-143.98,54.8c-9.83,10.15-19.02,19.63-28.2,29.11,9.35-7.83,17.98-16.27,26.49-24.83.89-.9,1.04-2.52,1.72-4.28Z"/>
      <path class="cls-2" d="m335.39,191.7c-.67,1.75-.83,3.38-1.72,4.28-8.51,8.57-17.14,17.01-26.49,24.83,9.19-9.48,18.37-18.96,28.2-29.11Z"/>
    </g>
  </g>
</svg>