<?xml version="1.0" encoding="utf-8"?>
<svg version="1.1" id="Layer_1" xmlns="http://www.w3.org/2000/svg" xmlns:xlink="http://www.w3.org/1999/xlink" x="0px" y="0px"
	 viewBox="0 0 91 483" style="enable-background:new 0 0 91 483;" xml:space="preserve">
<g id="qumdfg.tif">
	<g>
		<path d="M49.7,367.9c8.1,0.4,15.9,1,23.8,1.3c10.8,0.4,10.9,0.3,10.7,10.9c-0.4,16.3-0.8,32.6-1.7,48.9
			c-0.4,6.4-1.7,12.9-3.9,18.8c-2.8,7.5-9,12-16.8,14c-3.2,0.8-6.6,1.3-9.8,2.3c-1,0.3-1.9,1.9-2.2,3.1c-1.6,6.5-3.7,9.3-9.9,9.5
			c-3.8,0.1-7.7-2.8-8.3-6.5c-1-5.9-2.2-11.9-2.2-17.9c0.1-21.2,0.5-42.4,1-63.6c0.1-4,0.7-8,1.1-12.2c-4.9-0.2-9.3-0.3-13.7-0.5
			c-3.9-0.2-7.7-1-9.9-4.7c-2-3.4-3.1-7.1-1.3-11c1.6-3.5,5.4-5.1,8.3-3.6c2.5,1.3,3.1,5.9,1.3,8.9c-0.5,0.8-1.3,1.5-2.5,3
			c6.1-0.2,11.6-0.3,17.3-0.5c2.5-120.6,5-241.1,7.5-361.6c0.4-0.1,0.7-0.1,1.1-0.2c0.7,4.3,1.8,8.7,1.9,13c0.7,25,1.2,50,1.8,75
			c0.8,34.2,1.5,68.5,2.3,102.7c0.6,26.6,1.4,53.2,2,79.8c0.6,25,0.9,50.1,1.5,75.1C49.1,357.2,49.4,362.5,49.7,367.9L49.7,367.9z
			 M79.3,375.6c-8.6,0.2-16.6,0.4-24.6,0.6c-3.9,0.1-5.6,2-5.2,5.8c0.1,0.4,0.1,0.9,0.1,1.3c0.5,15.3,1.1,30.6,1.5,46
			c0.3,9.2,0.3,18.4,0.5,27.9c2.2-0.4,4.9-0.8,7.4-1.5c6.3-1.9,12.1-4.8,14.4-11.4c1.8-5,3-10.2,3.9-15.4c0.6-3.7,0.3-7.6,0.4-11.5
			C78.3,403.7,78.8,390,79.3,375.6L79.3,375.6z"/>
	</g>
</g>
</svg>
