<svg id="Layer_1" data-name="Layer 1" xmlns="http://www.w3.org/2000/svg" viewBox="0 0 482.95 482.95">
  
  <g id="qumdfg.tif">
    <g>
      
      <path class="cls-1" d="m135.95,355.55c6.62,7.38,12.96,14.62,19.5,21.68,8.96,9.68,9.16,9.76-.22,18.7-14.46,13.77-28.89,27.59-43.83,40.83-5.83,5.16-12.6,9.66-19.65,12.94-8.91,4.13-18.17,2.54-26.65-2.43-3.54-2.07-6.82-4.62-10.46-6.47-1.11-.57-3.29.04-4.55.82-6.98,4.28-11.23,4.78-16.78-.41-3.38-3.15-4.28-9.1-1.56-12.87,4.31-5.96,8.41-12.23,13.58-17.38,18.39-18.29,37.15-36.21,55.87-54.17,3.52-3.38,7.51-6.26,11.52-9.56-4.11-4.45-7.79-8.34-11.37-12.32-3.21-3.56-5.75-7.55-4.48-12.57,1.19-4.68,3.41-8.85,8.41-10.66,4.39-1.59,9.11.29,10.32,4.09,1.03,3.22-2.4,7.85-6.6,8.78-1.18.26-2.42.23-4.8.42,5.46,5.16,10.32,9.76,15.38,14.55,106.48-102.15,212.93-204.28,319.39-306.41.36.26.72.52,1.08.79-3.17,4.33-5.91,9.06-9.57,12.93-21.02,22.26-42.26,44.32-63.41,66.45-28.96,30.3-57.93,60.58-86.87,90.9-22.48,23.56-44.85,47.22-67.36,70.74-21.18,22.14-42.5,44.14-63.72,66.25-4.48,4.67-8.76,9.54-13.18,14.37Zm18.93,32.34c-7.67-7.29-14.75-14.02-21.84-20.74q-5.19-4.92-9.5.57c-.34.43-.71.84-1.09,1.24-12.82,13.7-25.59,27.45-38.47,41.08-7.75,8.2-15.67,16.23-23.76,24.59,2.32,1.55,4.9,3.59,7.76,5.11,7.09,3.79,14.63,6.25,22.39,2.6,5.86-2.76,11.46-6.22,16.75-9.97,3.78-2.68,6.83-6.39,10.26-9.58,12.29-11.47,24.6-22.91,37.48-34.91Z"/>
      
    </g>
  </g>
</svg>