<svg id="Layer_1" data-name="Layer 1" xmlns="http://www.w3.org/2000/svg" viewBox="0 0 562.1 562.1">
  
  <g id="NGnHKM.tif">
    <g>
      
      <path class="cls-1" d="m146.5,517.85c-13.69-1.62-24.06-9.3-31.69-19.17-3.79,1.59-6.83,2.46-9.38,4.08-1.46.92-2.31,2.99-3.13,4.69-1.37,2.87-2.49,5.86-3.97,9.41-14.81-14.82-28.77-28.76-42.68-42.74-2.13-2.14-1.82-3.78,1.38-4.44,2.47-.51,4.28-3.1,7.4-2.15.44.13,1.92-3.02,2.86-4.69.72-1.27,1.1-2.82,2.04-3.86,2.94-3.26,3.14-5.22-.17-8.3-5.26-4.9-4.96-6.61.23-11.17.66-.58,1.26-1.24,1.88-1.87,4.81-4.83,4.71-4.73,9.68-.24,1.24,1.12,3.33,1.3,5.04,1.87,1.31.44,2.64.83,4.61,1.45,10.78-10.85,21.95-22.15,33.17-33.4,16.22-16.27,32.36-32.62,48.83-48.64,3.22-3.13,3.53-5.93,1.88-9.39-3.04-6.35-2.94-12.91-.35-19.06,1.21-2.88,4.27-5.71,7.19-7,7.73-3.4,15.84-5.93,23.77-8.88.91-.34,1.65-1.14,2.86-2.01-1.7-1.85-3.25-3.52-5.02-5.44,1.25-1.45,2.46-2.85,4.4-5.11-7.02.51-13.21.84-19.38,1.45-5.44.54-10.83,1.66-16.27,2.03-4.04.27-6.41-2.6-6.43-6.79-.03-5.06,1.89-7.39,6.32-7.63,10.81-.58,21.63-.99,32.43-1.77,10.63-.76,21.24-1.88,31.94-3.23-5.93-.52-10.71-2.81-14.44-7.51-.74-.93-4.2-1.23-4.66-.59-2.19,3.11-5.14,1.97-7.84,2.02-3.47.06-6.94-.09-10.41-.17-2.86-.07-4.96-.7-4.4-4.43.39-2.57-.07-4.94-3.78-4.7-.52.03-1.67-1.72-1.67-2.64,0-6.52,0-13.05.57-19.54.13-1.52,2.4-2.85,3.69-4.27.54.27,1.08.54,1.61.81,0-2.75.18-5.52-.04-8.26-.32-3.94,2.12-5.86,5.85-5.69,5.09.23,10.2.06,15.27.06,1.78,4.09,3.55,4.49,7.61,2.82,1.63-.67,3.84-.1,5.76.15,3.41.44,6.8,1.07,10.64,1.69v-13.5c7.46-1.14,14.96-1.77,22.21-3.5,10.74-2.56,20.68-7.22,29.98-13.25,1.67-1.08,3.83-1.4,5.84-2.1.59-1.01,1.21-2.82,2.42-4.04,15.86-16,31.54-32.2,47.86-47.73,7.27-6.92,15.84-12.47,23.85-18.61,6.73-5.16,13.86-9.85,20.17-15.48,13.13-11.72,25.99-23.76,38.62-36.02,5.55-5.39,7.07-5.1,13.24-2.71,2.71-1.9,4.72-3.32,6.75-4.72,3.36-2.32,7.24-4.14,9.95-7.05,3.75-4.02,8.16-5.64,13.24-5.55,2.5.04,4.97,1.32,7.65,2.1-.35,1.4-.66,2.59-1.04,4.12,2.27,1.02,4.37,2.61,6.6,2.83,5.67.55,8.43,5.11,12.28,8.15.64.51.7,1.84.91,2.82.72,3.48.56,7.45,2.25,10.35,3,5.16,3.83,10.8,5.23,16.34.35,1.4-.09,3.06-.42,4.55-.49,2.26-1.7,4.47-1.73,6.71-.07,6.42-.63,12.75-2.01,19.01-.27,1.22-.69,2.63-1.53,3.47-3.77,3.78-5.48,8.38-5.99,13.55-.06.58.02,1.27-.26,1.73-2.49,4.02-5.06,7.98-7.58,11.98-2.47,3.92-4.87,7.88-7.36,11.78-.69,1.08-1.5,2.12-2.38,3.05-.7.73-2.04,1.1-2.36,1.91-3.21,8.32-13.88,9.57-16.92,17.99-5.68.82-6.99,8.7-13.68,8.3-1.66-.1-3.48,1.96-5.17,3.11-4.6,3.13-9.17,6.32-13.77,9.46-.94.64-2.01,1.69-2.94,1.62-3.33-.28-5.55,1.45-7.49,3.65-2.51,2.84-5.73,3.52-9.24,3.4-2.65-.09-3.45.91-4.28,3.61-1.03,3.37-3.89,6.14-5.64,9.35-1.01,1.85-1.13,4.18-2.08,6.08-1.13,2.27-2.71,4.31-2.91,6.55-.4,3.19-.8,6.37-1.21,9.58-1.84-.17-3.08-.29-4.89-.46-.9,3.63-.98,7.82-2.92,10.8-2.93,4.51-3.68,11.1-11.15,12.12-3.12.43-6.24,3.2-8.73,5.57-7.91,7.57-10.56,8.25-20.88,3.98-.85,1.02-1.76,2.1-3.02,3.61-2.22-1.11-4.54-2.5-7.05-3.44-1.49-.56-3.49-.94-4.79-.34-.85.39-.88,2.64-1.2,4.08-.29,1.34-.47,2.69-.71,4.08,4.54,4.12,4.61,4.99,1.47,10.32-.44.75-.21,2.07.05,3.04,1.47,5.64-.9,8.24-6.59,7.15-.19,4.82-.4,8.6-9.02,6.68-2.38,5.39-3.87,5.95-9.74,3.44-2.23,4.15-5.6,5.45-9.92,3.15-2.59,5.18-4.8,5.79-9.62,2.88-3.44,5.45-4.81,5.24-9.57,3.53-1.25,6.69.7,11.97,6.16,16.36,6.02,4.83,10.59,11.01,14.21,17.89,4.66,8.86,2.35,16.91-3.83,23.49-10.77,11.48-22.21,22.34-33.53,33.29-1.92,1.85-4.53,3.25-7.07,4.15-13.69,4.85-22.09,14.96-28.7,27.31-2.3,4.29-5.88,8.01-9.34,11.54-12.68,12.91-25.38,25.82-38.45,38.34-6.01,5.76-17.29,5.6-23.97.48-.8-.61-.92-2.11-1.52-3.62Zm73.05-139.03c1.4,3.92.58,7.1-1.62,10.07-1.83,2.45-3.48,5.1-5.62,7.26-22.63,22.75-45.34,45.43-68.05,68.11-5.1,5.09-10.27,10.11-15.48,15.23,6.58,11.04,12.41,22.17,23.15,29.98.52,0,2.42-.59,3.5.1,4.36,2.79,10.97.82,14.38-2.59,12.17-12.19,24.37-24.35,36.35-36.72,2.82-2.91,5.47-6.32,7.11-9.99,4.88-10.9,12.67-18.47,23.55-23.27,4.35-1.92,8.95-4.05,12.35-7.24,11.45-10.8,22.49-22.04,33.52-33.28,3.13-3.19,2.98-6.6-.15-9.7-3.79-3.76-7.89-7.2-11.55-10.52-5.66,6.74-11.09,13.42-16.81,19.84-1.06,1.19-3.36,1.19-4.94,2.03-.87.46-2.19,1.82-2.01,2.24,1.38,3.31-1.12,4.35-3.14,5.13-3.35,1.3-6.94,1.96-10.37,3.08-7.4,2.42-12.77,6.89-15.11,14.67-.41,1.35-2.42,2.21-3.69,3.3-.95-1.39-2.95-3.1-2.65-4.12,1.16-3.9,2.34-8.16,4.83-11.21,5.19-6.36,11.15-12.1,16.97-17.93,1.28-1.28,3.28-1.84,4.48-2.48.31-2.32.63-4.79.96-7.25.48-.19.95-.39,1.43-.58-4.53-4.07-9.06-8.14-13.59-12.21-.32.35-.64.7-.96,1.04,1.51,1.72,3.02,3.45,4.64,5.29-2.29,2.1-4.39,4.02-6.56,6.02-1.49-1.31-3.19-2.8-4.89-4.29Zm74.98-75.95c-.42-2.64-1.34-4.61-.88-6.18,2.07-7.19,1.51-9.12-5.25-12.42,1.09-1.42,1.85-3.48,3.08-3.81,4.02-1.07,5.37-4.81,4.97-7.33-.47-3.01.8-7.73-4.64-9.45-1.51,4.02-3.49,7.79-4.31,11.79-1.64,8.04-5.91,12.23-13.94,12.53-1.8.07-3.6,0-5.4,0-.28.51-.57,1.01-.85,1.52,1.53,1.11,3.18,2.11,4.53,3.4.54.51.8,1.89.49,2.53-.26.54-1.58.93-2.35.82-3.03-.43-3.93,1.25-3.95,3.77-.01,1.42,0,2.94.48,4.24.37,1,1.38,2.29,2.29,2.46,1.78.33,4.73.7,5.37-.22,2.78-4,5.88-3.12,9.25-1.22,2.4-5.14,6-5.44,11.1-2.45Zm-99.84,34.38c2.34-2.09,4.71-3.88,6.63-6.07.73-.83.88-2.72.47-3.81-.23-.61-2.32-1.09-3.28-.77-4.22,1.44-8.47,2.93-12.44,4.94-2.62,1.32-5.07,3.64-3.94,7.07,1.08,3.28,2.64,6.45,4.38,9.44.75,1.29,2.47,2.01,3.75,2.99.22-.3.45-.6.67-.9-1.18-1.4-2.36-2.8-3.69-4.39,2.28-2.13,4.36-4.07,6.35-5.93,1.84,1.41,3.2,2.44,4.56,3.48.26-.31.52-.62.78-.93-1.16-1.41-2.32-2.82-4.23-5.14Zm256.12-138.9c9.16-9.58,19.77-16.92,25.73-28.48.45-.88.43-2.01.63-3.02-.98.11-2.34-.17-2.9.37-9.09,8.88-18.08,17.87-27.26,27,1.42,1.54,2.48,2.69,3.8,4.13Zm-198.98,158.59c-1.29.91-2.5,1.58-3.49,2.5-1.1,1.01-2,2.24-2.99,3.38-.63.73-1.13,1.77-1.92,2.1-.98.41-2.2.22-4.57.37,2.94,3.27,5.09,5.97,7.6,8.28.78.71,2.94.92,3.82.36,6.83-4.37,7.23-12.41,1.56-16.97ZM496.48,92.92c-6.02,1.33-5.86,1.31-5.4,5.61.69,6.6,1.15,13.23,1.73,20.25,2.94.88,5.24.12,4.93-4.48-.47-6.93-.83-13.88-1.26-21.38Zm-12.16,63.01c6.11-7.84,11.83-22.87,11.31-28.27-2.7-.32-5.48-.93-6.26,2.95-1.7,8.44-3.37,16.88-5.05,25.33Zm-101.9,100.33c4.84-8.81,9.69-17.62,14.83-26.97-9.94,6.73-14.82,15.54-14.83,26.97Zm47.18-44.01c-.2-.56-.4-1.12-.6-1.68-5.79,1.42-11.61,2.76-17.34,4.39-.64.18-1.43,2.62-1.09,2.98.99,1.01,2.93,2.4,3.77,2.03,5.2-2.32,10.19-5.09,15.26-7.71Zm63.12-130c-4.79-3.05-9.48-6.04-14.16-9.02-.45.52-.9,1.03-1.34,1.55,2.83,2.93,5.77,5.76,8.47,8.81,2.58,2.91,4.58,2.4,7.04-1.34Zm-193.26,239.86c-2.11-1.52-3.42-3.06-4.05-2.82-3.27,1.24-7.92.38-8.78,6.24,3.8-1.01,7.6-2.02,12.83-3.42Zm74.42-46.89c-4.34,4.33-8.6,8.57-12.58,12.55,4.38-.7,12.08-8.13,12.58-12.55Zm57.47-64.68c.1.09.19.18.29.27,3.77-2.37,7.54-4.74,11.66-7.34-1.15-1.05-1.92-1.76-2.14-1.96-3.44,3.17-6.63,6.1-9.81,9.03Zm15.2-120.58c.12.11.25.23.37.34,3.69-3.72,7.39-7.44,11.08-11.16l-.34-.32c-3.7,3.71-7.4,7.43-11.1,11.14Zm-174.17,140.54c-.41-2.48-.82-4.93-1.23-7.38-.47-.17-.95-.35-1.42-.52-.64,1.09-1.94,2.28-1.79,3.25.34,2.16-.52,5.89,4.44,4.65Zm188.97-154.21c.39.43.77.86,1.16,1.29,2.91-2.6,5.82-5.2,8.73-7.8l-1.21-1.35c-2.89,2.62-5.79,5.24-8.68,7.86Zm-200.13,149.01c1.36,1.63-1.51,6.84,4.3,4.98-1.08-2.16,1.13-6.49-4.3-4.98Z"/>
      
      
      
      
      
      
      
      
      
      
      
      
      
      
      
      
      
    </g>
  </g>
</svg>