<?xml version="1.0" encoding="utf-8"?>
<svg version="1.1" id="Layer_1" xmlns="http://www.w3.org/2000/svg" xmlns:xlink="http://www.w3.org/1999/xlink" x="0px" y="0px"
	 viewBox="0 0 192 562.1" style="enable-background:new 0 0 192 562.1;" xml:space="preserve">
<g id="NGnHKM.tif">
	<g>
		<path d="M162.1,524.5c-10,7.9-21.8,9.6-33.2,8.2c-1.4,3.5-2.9,6.1-3.5,8.8c-0.4,1.6,0.4,3.5,1,5.1c1,2.8,2.2,5.5,3.6,8.7
			c-19.4,0-37.6,0-55.8,0c-2.8,0-3.7-1.3-2-3.8c1.3-1.9,0.8-4.8,3.4-6.2c0.4-0.2-0.7-3.2-1.2-4.9c-0.4-1.3-1.1-2.6-1.2-3.9
			c-0.2-4.1-1.4-5.5-5.5-5.3c-6.6,0.2-7.6-1.1-7.1-7.4c0.1-0.8,0-1.6,0-2.5c0-6.3,0-6.2,6.2-6.5c1.5-0.1,3-1.3,4.5-2.1
			c1.1-0.6,2.3-1.2,4-2.1c0-14.1-0.1-28.8-0.2-43.5c0-21.2-0.2-42.5,0.1-63.7c0.1-4.1-1.6-6.2-4.9-7.4c-6.1-2.2-10.4-6.5-12.7-12.2
			c-1.1-2.7-0.9-6.5,0.1-9.3c2.8-7.3,6.5-14.2,9.7-21.3c0.4-0.8,0.3-1.8,0.6-3.2c-2.3-0.1-4.4-0.2-6.8-0.3c-0.1-1.8-0.3-3.5-0.5-6.2
			c-4.3,4.9-8.1,9.2-11.7,13.6c-3.2,3.9-6,8.2-9.3,12c-2.5,2.8-5.9,2.5-8.6-0.2c-3.3-3.3-3.6-6.1-0.9-9.1c6.7-7.4,13.5-14.8,20-22.3
			c6.4-7.4,12.7-15.1,18.8-23c-4.2,3.5-8.8,5.2-14.3,4.5c-1.1-0.1-3.5,1.9-3.4,2.7c0.6,3.5-2.1,4.6-3.8,6.4
			c-2.2,2.3-4.6,4.5-6.9,6.7c-1.9,1.8-3.7,2.8-5.8,0c-1.4-1.9-3.3-3.2-5.5-0.6c-0.3,0.4-2.2,0-2.8-0.6c-4.3-4.3-8.5-8.5-12.4-13.1
			c-0.9-1.1-0.3-3.4-0.4-5.2c0.5-0.2,1.1-0.4,1.6-0.5c-1.8-1.8-3.5-3.7-5.4-5.4c-2.8-2.4-2.4-5.2,0.1-7.5c3.5-3.2,6.7-6.6,10-9.9
			c3.8,1.5,5.3,0.6,6.8-3.1c0.6-1.5,2.4-2.6,3.9-3.7c2.5-1.9,5.1-3.7,8.1-5.8l-8.8-8.8c4.1-5.6,8.6-10.9,12.2-16.8
			c5.3-8.7,8.8-18.2,10.9-28.3c0.4-1.8,1.6-3.4,2.4-5.2c-0.3-1-1.1-2.6-1.1-4.2c-0.1-20.8-0.4-41.7,0.1-62.5
			c0.2-9.3,2.2-18.5,3.4-27.7c1-7.8,2.6-15.5,3.1-23.3c0.9-16.2,1.5-32.5,1.7-48.8c0.1-7.1,1.3-8,6.9-10.4c0.5-3,0.9-5.3,1.3-7.5
			c0.7-3.7,2-7.4,1.9-11.1c-0.2-5.1,1.6-9,5-12.3c1.7-1.6,4.1-2.4,6.4-3.6c0.7,1.1,1.3,2.1,2,3.4c2.1-0.8,4.6-1.2,6.2-2.5
			c4.1-3.3,8.8-2.2,13.4-2.7c0.8-0.1,1.7,0.7,2.4,1.2c2.7,1.8,5.2,4.5,8.2,5.3c5.3,1.4,9.6,4.6,14.1,7.3c1.1,0.7,1.9,2.1,2.7,3.2
			c1.2,1.8,1.8,4,3.3,5.5c4.1,4.2,7.9,8.7,11.1,13.7c0.6,1,1.3,2.2,1.3,3.3c0,4.9,1.9,9.1,4.9,12.8c0.3,0.4,0.8,0.8,1,1.3
			c1,4.3,1.9,8.5,2.9,12.8c0.9,4.2,2,8.3,2.9,12.5c0.3,1.2,0.4,2.4,0.4,3.5c0,0.9-0.6,2.1-0.3,2.8c3.3,7.5-2.8,15.3,0.7,22.8
			c-3.2,4.2,1.1,10.3-3.5,14.4c-1.2,1-1,3.6-1.3,5.4c-1,5.1-1.9,10.1-2.8,15.2c-0.2,1-0.2,2.4-0.9,3c-2.4,2-2.7,4.6-2.5,7.3
			c0.2,3.5-1.4,6-3.8,8.3c-1.8,1.7-1.7,2.8-0.4,5.2c1.5,2.9,1.5,6.6,2.4,9.8c0.5,1.9,2,3.5,2.6,5.3c0.7,2.2,1,4.6,2.4,6.2
			c1.8,2.3,3.6,4.7,5.5,7.1c-1.3,1.1-2.2,1.8-3.5,2.9c1.8,3,4.5,5.8,5.1,9c1,4.9,4.8,9.7,0.6,15.2c-1.8,2.3-2,6.2-2.1,9.3
			c-0.2,10.1-1.5,12.3-11,16.2c0.1,1.2,0.2,2.5,0.4,4.3c-2.2,0.7-4.6,1.3-6.9,2.4c-1.3,0.6-2.9,1.7-3.4,2.9
			c-0.3,0.8,1.2,2.3,1.9,3.5c0.7,1.1,1.5,2.1,2.2,3.1c5.7-0.3,6.3,0.2,7.7,5.8c0.2,0.8,1.2,1.5,2,2c4.6,2.7,4.8,6,0.4,9
			c3,3.3,5.4,5.9-1.5,10.3c2,5.1,1.4,6.4-4.1,8.6c1.3,4.2-0.1,7.2-4.4,8.5c1.7,5.1,0.6,6.9-4.4,8.2c1.3,5.8,0.3,6.6-3.9,8.6
			c3.6,5.2,8.3,7.4,14.7,6.7c7.1-0.8,14.1,0.3,21,2.4c8.8,2.7,12.6,9.5,12.8,17.9c0.5,14.5,0.1,29.1-0.2,43.7c0,2.5-0.8,5.1-1.9,7.3
			c-5.8,12.1-4.7,24.2-0.9,36.6c1.3,4.3,1.4,9.1,1.4,13.6c0.2,16.7,0.3,33.5-0.1,50.2c-0.2,7.7-7.6,15-15.4,16
			C164.6,526,163.5,525.1,162.1,524.5L162.1,524.5z M119,385.9c3.5,1.6,5,4.3,5.5,7.6c0.4,2.8,1.1,5.6,1.1,8.4
			c0.1,29.7,0.1,59.3,0,89c0,6.7-0.1,13.3-0.2,20.1c11.5,2.9,22.6,6.4,34.7,4.5c0.3-0.3,1.2-2,2.4-2.2c4.7-1,7.7-6.6,7.7-11.1
			c0-15.9,0-31.8-0.2-47.8c-0.1-3.7-0.6-7.7-1.9-11.2c-3.9-10.3-3.8-20.3,0.2-30.6c1.6-4.1,3.2-8.5,3.3-12.8
			c0.4-14.5,0.3-29.1,0.2-43.7c0-4.1-2.4-6.3-6.4-6.2c-4.9,0-9.9,0.5-14.4,0.7c0.7,8.1,1.5,16,2,24c0.1,1.5-1.4,3-1.9,4.6
			c-0.3,0.9-0.2,2.6,0.2,2.8c3.1,1.3,2.1,3.6,1.3,5.4c-1.3,3-3.3,5.8-4.8,8.8c-3.3,6.4-3.8,12.8-0.3,19.5c0.6,1.2-0.1,3-0.3,4.6
			c-1.5-0.3-4-0.1-4.4-1c-1.8-3.3-3.8-6.9-4.2-10.5c-0.8-7.5-0.6-15.2-0.6-22.8c0-1.7,0.9-3.3,1.3-4.5c-1.3-1.7-2.7-3.5-4.1-5.4
			c0.2-0.4,0.4-0.9,0.6-1.3c-5.6,0.3-11.2,0.6-16.9,0.9c0,0.4,0,0.9,0.1,1.3c2.1,0.1,4.2,0.3,6.5,0.4c-0.1,2.9-0.2,5.5-0.4,8.2
			C123.2,385.6,121.1,385.7,119,385.9L119,385.9z M118.4,287.2c-2-1.5-3.9-2.1-4.6-3.5c-3.3-6.1-5-6.9-11.5-4.7
			c-0.2-1.6-1.1-3.5-0.5-4.5c1.9-3.3,0.4-6.7-1.5-8c-2.3-1.7-4.5-5.6-9.2-3.1c1.6,3.6,2.8,7.4,4.9,10.5c4.2,6.3,4.1,11.9-0.9,17.3
			c-1.1,1.2-2.4,2.4-3.5,3.5c0.2,0.5,0.3,1,0.4,1.5c1.7-0.3,3.5-0.7,5.2-0.7c0.7,0,1.8,0.7,2,1.3c0.2,0.5-0.4,1.6-1,2.1
			c-2.3,1.7-1.8,3.4-0.1,5c0.9,0.9,1.9,1.9,3.1,2.5c0.9,0.4,2.4,0.6,3.1,0.1c1.4-0.9,3.5-2.6,3.4-3.7c-0.8-4.4,1.8-5.9,5.2-6.8
			C110.9,291.2,113.1,288.6,118.4,287.2L118.4,287.2z M75.6,374.9c0.2-2.9,0.5-5.6,0.4-8.3c-0.1-1-1.2-2.4-2.2-2.8
			c-0.5-0.2-2.2,0.8-2.6,1.6c-1.8,3.7-3.6,7.4-4.9,11.4c-0.8,2.6-0.9,5.7,2,7.2c2.8,1.4,5.9,2.5,9,3.3c1.3,0.4,2.9-0.3,4.4-0.5
			c-0.1-0.3-0.1-0.7-0.2-1c-1.7-0.1-3.4-0.3-5.3-0.5c0.1-2.9,0.2-5.5,0.3-8c2.1-0.3,3.7-0.5,5.3-0.7c0-0.4-0.1-0.7-0.1-1.1
			C80,375.4,78.3,375.2,75.6,374.9L75.6,374.9z M152.2,116.8c-0.3-12.2,1.9-24-1.8-35.4c-0.3-0.9-1-1.6-1.6-2.4
			c-0.6,0.7-1.6,1.4-1.7,2.1c-0.1,11.7-0.1,23.5-0.2,35.5C148.9,116.7,150.4,116.7,152.2,116.8z M125.8,350.5
			c-0.2,1.4-0.6,2.7-0.6,3.9c-0.1,1.4,0.2,2.8,0.3,4.2c0.1,0.9,0.4,1.9,0.1,2.6c-0.4,0.9-1.3,1.6-2.7,3.2c4.1,0.2,7.2,0.6,10.4,0.4
			c1,0,2.5-1.3,2.7-2.3C137.5,355.3,132.5,349.8,125.8,350.5L125.8,350.5z M113.1,18.1c-3.1,4.8-3,4.7,0.1,7.2
			c4.8,3.9,9.4,7.9,14.4,12.1c2.5-1.3,3.5-3.3,0.3-6.1C123.1,27,118.3,22.7,113.1,18.1z M146.4,67.2c-1.1-9.1-7.2-22.7-11.1-25.9
			c-2,1.6-4.2,3-2.2,6C137.5,54,141.9,60.6,146.4,67.2L146.4,67.2z M145.3,199.3c-2.6-8.9-5.2-17.8-7.9-27.3
			C135.3,182.9,137.9,191.9,145.3,199.3z M147.4,139.8c-0.5-0.2-1-0.5-1.5-0.7c-2.9,4.7-5.8,9.4-8.5,14.2c-0.3,0.5,0.8,2.6,1.2,2.7
			c1.3,0,3.5-0.3,3.8-1.1C144.4,149.9,145.8,144.8,147.4,139.8L147.4,139.8z M103.7,13.6c-5.1,1.1-10.1,2.2-15.1,3.4
			c0,0.6,0.1,1.3,0.1,1.9c3.8,0.1,7.5,0,11.3,0.2C103.6,19.2,104.5,17.6,103.7,13.6L103.7,13.6z M134.2,296.6
			c-2.4,0.4-4.2,0.2-4.5,0.8c-1.3,2.9-4.9,5.4-1.7,9.8C129.8,304.1,131.7,300.9,134.2,296.6L134.2,296.6z M152.1,217.3
			c0,5.7,0,11.2,0,16.4C154.5,230.4,154.7,220.5,152.1,217.3z M147.4,137.5c0.1,0,0.2,0,0.4,0c0.9-4,1.8-8,2.8-12.4
			c-1.4,0.1-2.4,0.1-2.7,0.1C147.8,129.5,147.6,133.5,147.4,137.5z M78.6,48.8c0.2,0,0.3,0,0.5,0c0-4.8,0-9.7-0.1-14.5l-0.4,0
			C78.6,39.1,78.6,43.9,78.6,48.8L78.6,48.8z M56.6,254.4c-1.9-1.4-3.8-2.7-5.6-4c-0.4,0.2-0.8,0.4-1.3,0.6c0.3,1.1,0.2,2.8,1,3.3
			C52.3,255.5,54.2,258.5,56.6,254.4L56.6,254.4z M79.3,30.2c0.5,0,1.1,0.1,1.6,0.1c0.2-3.6,0.4-7.2,0.6-10.8l-1.7-0.1
			C79.7,22.9,79.5,26.6,79.3,30.2L79.3,30.2z M45.9,258.3c2,0.2,3.5,5.5,6.1,0.4C49.9,258.1,48.5,253.8,45.9,258.3z"/>
	</g>
</g>
</svg>
