<svg id="Layer_1" data-name="Layer 1" xmlns="http://www.w3.org/2000/svg" viewBox="0 0 594 590">
  
  <g id="EhPMsu.tif">
    <g>
      
      <path class="cls-1" d="m2.71,568.59c1.09-17.14,10.37-28.65,22.25-37.98,12.15-9.55,25.42-17.65,37.85-26.86,7.64-5.66,14.07-12.55,17.94-21.63,1.68-3.93.5-6.35-1.81-9.26-4.69-5.89-9.19-11.95-13.51-18.11-.72-1.02-.76-3.43-.05-4.38,3.15-4.19,6.47-8.29,10.14-12.02,4.84-4.92,10.18-9.33,15.1-14.18,16.35-16.13,32.68-32.28,48.89-48.55,27.15-27.24,54.09-54.69,81.35-81.82,22.46-22.35,45.42-44.21,67.88-66.56,25.86-25.73,51.27-51.9,77.13-77.63,24.22-24.1,48.78-47.85,73.14-71.8,2.8-2.75,5.16-5.94,7.91-8.75,5.11-5.23,9.72-5.82,15.64-1.64,4.55,3.21,8.63,7.06,13.12,10.36,6.25,4.59,16.03,2.69,20.62-3.51,12.03-16.23,23.78-32.69,36.42-48.44,8.79-10.96,19.88-19.18,34.13-22.42,8.66-1.97,17.1.82,21.94,8.24.85,1.3,1.46,3.05,1.45,4.58-.09,10.84-3.18,20.57-9.7,29.49-7.55,10.34-18.58,16.19-28.29,23.77-11.51,8.98-23.38,17.56-34.19,27.32-3.61,3.26-6.03,9.63-6,14.56.02,3.7,5.01,7.26,7.48,11.08,3.16,4.86,6.96,9.6,8.76,14.96,2.23,6.64-4.49,9.47-8.13,13.43-.98,1.06-2.43,1.67-3.46,2.7-21.71,21.52-43.47,42.99-65.07,64.62-23.09,23.13-45.89,46.55-69.06,69.6-23.52,23.39-47.48,46.33-71,69.73-27.15,27.01-53.9,54.43-81.04,81.45-24.45,24.34-49.23,48.35-73.8,72.57-3.62,3.57-6.81,7.57-10.38,11.21-3.63,3.7-9.31,4.63-13.44,1.56-5.63-4.19-10.89-8.91-16.09-13.65-2.13-1.94-3.94-1.9-6.64-1.39-10.66,1.99-15.18,11.12-21.06,18.22-8.8,10.63-15.98,22.62-24.83,33.21-7.45,8.91-15.03,18.02-25.93,23.32-7.61,3.7-15.67,3.91-23.69,2.97-7.18-.84-13.48-11.44-11.99-18.35Z"/>
    </g>
  </g>
</svg>