<svg id="Layer_1" data-name="Layer 1" xmlns="http://www.w3.org/2000/svg" viewBox="0 0 572 625">
  <g id="kAXL01.tif">
    <g>
      <path class="cls-1" d="m561.97,1c5.01,16.29,8.51,31.28,7.82,46.88-.15,3.28-1.59,6.87-3.43,9.66-35,52.99-73.44,103.37-115.26,151.16-45.25,51.71-94.43,99.6-143.27,147.82-8.42,8.31-16.89,16.57-25.3,24.9-.74.73-1.14,1.79-1.83,2.92,6.55.3,19.93-6.57,21.51-10.75,5.5,2.52,10.6.43,15.72-1.39,1.41-.5,2.81-1.32,4.24-1.4,1.33-.07,2.71.64,4.06,1.01-.06.52-.12,1.04-.18,1.55-2,1.08-4.2,1.9-5.96,3.29-3.32,2.61-7.56,4.56-6.98,10.19.16,1.56-1.96,3.35-3.04,5.05-4.62-1.69-8.11.44-11.34,3.49-3.2,3.02-6.56,5.89-9.58,9.08-.78.82-1.01,2.69-.72,3.89.72,2.85,1.9,5.58,3.08,8.89-5.36,1.84-10.32,3.53-15.81,5.41-1.43-3.58-2.74-6.87-4.13-10.34-.7.5-1.35.71-1.43,1.05-1.72,7.46-7.63,12.21-11.81,18.03-3.56,4.95-8.45,6.31-14.92,5.45-4.58-.61-7.35-2.65-10.44-5.87-1.46,1.3-2.76,2.45-4.46,3.97,2.53,2.71,4.86,5.22,7.18,7.72q-1.73,2.66-6.69-.65c-3.51,5.42-2.78,13.64,1.6,18.1,1.29,1.31,2.58,2.6,3.87,3.91,5.21,5.29,5.21,5.71-.22,10.45-4.71,4.11-9.1,8.27-15.27,10.78-4.61,1.87-7.74,7.15-11.87,10.48-6.07,4.9-12.17,9.86-18.8,13.92-3.01,1.85-7.29,1.97-11.03,2.2-5.16.32-9.51,1.61-13.48,5.33-12.97,12.19-26.24,24.07-39.43,36.04-3.47,3.15-5.31,6.72-3.78,11.52.34,1.08.7,2.6.22,3.41-1.08,1.79-2.68,3.27-4.08,4.87-1.54-1.47-4.42-2.95-4.4-4.39.1-5.9.25-11.93,5.03-16.65,14.22-14.06,28.37-28.18,42.37-42.46,3.93-4.01,8.03-7.48,13.55-8.81,10.71-2.58,17.16-11.04,24.74-17.89,3.07-2.77,6.03-5.85,8.28-9.29,1.1-1.69.46-4.52.6-6.83-2.17.67-4.85.75-6.41,2.11-6,5.28-11.61,10.99-17.43,16.47-.73.68-1.87.93-2.82,1.38.08-.94.37-1.92.19-2.81-.29-1.45-.89-2.84-1.59-4.92-2.63,2.39-4.33,3.94-6.42,5.84-2.85-3.65-4.83-1.14-7.05,1.04-10.27,10.09-20.57,20.14-30.92,30.15-7.5,7.25-15.06,14.44-22.63,21.61-1.31,1.24-3.08,2.03-4.23,3.39-1.92,2.28-3.33,5-5.29,7.23-2.84,3.22-5.55,6.92-9.14,8.97-2.69,1.54-4.47,3.02-6.08,5.63-1.41,2.28-4.09,3.79-6.24,5.59-.36.3-1.32.38-1.32.55.21,7.99-9.33,8.02-11.46,14.08-.26.74-.68,1.52-1.24,2.05-7.24,6.86-14.53,13.68-21.8,20.51-6.1-1.44-6.61,3.05-8.59,7.09-1.81,3.7-5.66,6.41-9.16,10.13-1.3-1.79-2.44-3.37-3.72-5.13-1.62,1.03-2.82,1.8-4.36,2.78-5.21-6.14-10.45-12.33-15.69-18.51.36-.07.72-.13,1.07-.2-.13-2.78-.25-5.56-.38-8.34-.61-.28-1.23-.56-1.84-.84,5.11-4.54,10.7-8.67,15.19-13.75,4.14-4.68,11.01-6.54,13.17-13.19.35-1.07,1.96-1.7,2.89-2.63,4.18-4.19,8.54-8.23,12.41-12.7,3.79-4.38,6.72-9.66,13.75-9.04.69.06,1.9-.57,2.1-1.15,2.8-7.84,11.27-9.73,16.02-15.45,2.97-3.57,5.13-7.84,8.29-11.2,2.2-2.34,5.83-3.29,8.22-5.51,9.76-9.07,19.41-18.27,28.88-27.65,5.93-5.88,11.46-12.18,17.17-18.29.34-.36,1-.69,1.02-1.06.39-7.04,5.14-9.14,11.09-10.11.78-.13,1.38-1.35,2.25-2.26-1.52-1.98-2.99-3.9-4.64-6.05,2.24-2.05,4.31-3.94,6.61-6.04,1.99,1.65,3.84,3.19,5.64,4.68,6.27-4.41,6.29-4.64.66-13.66-1.61,1.1-3.21,2.19-5.18,3.54-1.52-1.45-3.14-2.99-5.12-4.87-5.98,5.16-11.83,10.27-17.77,15.28-1.62,1.36-3.57,2.32-5.26,3.62-.99.76-2.48,1.8-2.49,2.72-.07,7-6.4,8.66-10.27,13.33-11.4-13.08-22.39-25.7-33.75-38.72,5.12-3.49,8.12-9.56,15.38-8.42.52.08,1.26-.37,1.7-.79,6.67-6.39,13.31-12.8,19.94-19.23.71-.68,1.31-1.47,2.17-2.44-1.12-1.7-2.2-3.32-3.45-5.22,2.44-2.13,4.92-4.28,8.16-7.09,1.14,1.9,2.17,3.6,3.4,5.65,5.64-4.88,10.47-9.07,15.42-13.35-1.43-1.98-2.59-3.56-3.96-5.45,2.54-2.25,4.99-4.41,8.04-7.12,1.13,1.89,2.16,3.61,3.39,5.68,2.53-2.05,4.12-3.34,5.88-4.77-1.46-2.02-2.69-3.72-4.11-5.68,2.44-2.19,4.76-4.28,7.31-6.56,1.7,1.51,3.29,2.92,5.29,4.7,3.1-2.61,6.29-5.17,9.34-7.89,4.77-4.25,9.94-6.38,16.43-4.25,2.49.82,5.94,2.1,4.72-3.28-.2-.89,1.33-2.18,1.98-3.15,2.08,1.37,3.26,2.15,4.91,3.23.34-1.48.61-2.53.82-3.58.71-3.61,2.65-5.2,6.55-5.05,2.81.1,5.52,1.01,7.8-3.39,2.22-4.27,6.49-8.71,12.68-9.23,1.54-.13,3.19-1.33,4.41-2.46,3.66-3.39,6.87-7.3,10.75-10.39,3.67-2.93,5.51-5.44.67-9.16,2.77-2.19,5.2-4.11,7.99-6.32,3.44,5.59,6.88,3.47,10.62.55,1.76-1.37,4.05-2.37,6.25-2.79,6.56-1.26,11.86-4.16,16.87-8.82,14-13,28.58-25.39,42.89-38.06,2.44-2.16,6.05-3.71,3.63-8.44-.68-1.33,1.55-3.92,1.81-6.01.39-3.12,2-2.91,4.41-2.76,1.09.07,2.3-1.69,3.65-1.67,2.63-.59,5.27-1.18,9.24-2.07,3.03,2.78,7.28,6.67,11.74,10.76-1.27,1.81-2.47,3.52-4.03,5.75,1.77,1.74,3.51,3.45,5.74,5.65C442.73,167.3,503.81,86.21,561.97,1ZM239.63,338.96c-.37-.48-.73-.97-1.1-1.45-2.96.38-6.31.06-8.75,1.4-1.55.85-2.63,4.27-2.37,6.34.63,4.94-2.77,5.27-5.85,6.15-1.11.32-2.32.24-3.79.37,2.6,4.84,2.32,5.33-2.06,6.36-1,.23-2.31,1.31-2.55,2.24-1.28,5.06,1.54,7.95,6.62,7.33,2.27-.28,4.63.17,6.93.03,3.98-.24,8.15-.07,9.23-5.55,1.57-7.95,6.86-12.58,14.28-15.21,1.8-.64,3.82-1.53,4.95-2.94,1.6-1.99,1.91-5.23,3.75-6.76,4.11-3.4,7.42-7.12,8.97-12.27.09-.3.54-.51.58-.79.25-1.96,1.3-4.48.47-5.8-2.53-4.02-5.79-7.57-9.27-11.95-5.15,5.55-9.74,10.53-14.36,15.47-3.51,3.75-4.22,7.88-1.58,12.77-1.35,1.4-2.72,2.82-4.09,4.25Zm28.24-38.2c3.56,3.92,6.39,7.15,9.34,10.25,1.86,1.95,3.8,1.68,5.57-.27,3.4-3.75,6.64-7.67,10.27-11.2,2.31-2.25,5.09-4.07,7.82-5.83,4.4-2.82,8.63-6.5,13.48-7.91,9.71-2.82,16.23-9.27,23.08-16.88-3.69-3.44-7.23-6.74-11.32-10.56-8.95,8.31-17.92,16.47-26.69,24.84-6.87,6.56-13.36,13.47-23.82,14.13-2.29.14-4.48,1.93-7.72,3.43Zm-6.21,115.72c-3.62-1.14-7.28-2.29-10.25-3.22-2.28,5.08-4.46,9.93-7.04,15.68.18.73.68,2.72,1.17,4.7,7.95.95,14.88-6.33,16.11-17.16Zm86.61-167.14q-5.19-3.8-7.66-1.61c2.75,4.2,5.45,8.31,7.82,11.92,3.51-3.02,6.73-5.79,9.98-8.57-1.86-2.24-3.4-4.09-5.03-6.05-2.22,1.87-3.69,3.11-5.11,4.31Z"/>
    </g>
  </g>
</svg>