<svg id="Layer_1" data-name="Layer 1" xmlns="http://www.w3.org/2000/svg" viewBox="0 0 596 526">
  
  <g id="W5WUhC.tif">
    <g>
      
      <path class="cls-1" d="m587.63,286.45c-3.02-4.4-6.17-8.72-9.02-13.23-4.91-7.77-8.94-16.21-14.62-23.35-6.11-7.68-9.98-16.51-15.17-24.62-3.48-5.44-7.55-10.5-11.06-15.91-3.64-5.62-6.87-11.5-10.4-17.19-4-6.44-8.03-12.86-12.22-19.17-3.93-5.91-7.88-11.82-12.19-17.44-5.59-7.29-11.42-14.42-17.39-21.4-5.69-6.65-11.5-13.22-17.67-19.42-4.03-4.05-8.73-7.46-13.24-11.01-5.01-3.93-9.96-7.99-15.28-11.46-6.91-4.5-14.51-8-21.18-12.81-7.43-5.35-15.77-8.31-24.11-11.55-19.57-7.62-40.03-9.12-60.72-8.89-6.66.07-13.53-.89-19.76,2.67-10.4,5.94-20.92,11.66-31.16,17.86-5.02,3.04-9.84,6.59-14.16,10.55-4.1,3.75-7.65,8.17-11.04,12.6-4.11,5.38-7.89,11.01-11.6,16.68-1.26,1.92-1.91,4.24-2.75,6.41-3.71,9.59-6.95,19.39-11.21,28.73-4.53,9.94-4.97,20.59-6.97,30.98-5.03,26.26-3.31,52.71-1.87,79.12.77,14.13,2.43,28.21,3.74,42.32.28,3.02-.64,4.84-3.32,6.84-6.37,4.77-12.15,10.33-18.18,15.55-1.22,1.06-2.72,1.87-3.7,3.1-.93,1.17-2.16,2.95-1.87,4.13,2.32,9.4-1.15,16.75-7.47,23.34-2.48,2.59-4.5,5.62-7.06,8.13-6.57,6.44-13.27,12.76-20.03,19-2.96,2.73-6.51,4.87-9.26,7.78-4.44,4.71-8.45,9.82-12.62,14.77-3.61,4.29-7.32,8.5-10.75,12.93-3.98,5.15-7.61,10.57-11.55,15.74-3.38,4.43-7.09,8.63-10.5,13.04-4.25,5.5-8.24,11.2-12.54,16.66-3.45,4.39-7.18,8.56-10.81,12.81-3.27,3.83-6.31,7.9-9.89,11.42-6.45,6.32-13.04,12.54-19.96,18.34-4.74,3.97-10.18,7.09-15.23,10.7-3.33,2.38-5.98,1.92-9.74.04-6.61-3.32-12.66-7.23-17.73-12.45-4.26-4.38-8.4-9.1-11.49-14.33-2.74-4.65-.53-9.78,2.02-14.14,3.84-6.57,7.75-13.12,12.14-19.32,2.99-4.21,6.78-7.87,10.35-11.64,3.25-3.45,6.64-6.77,10.05-10.06,7.12-6.89,14.31-13.72,21.45-20.59,3.62-3.49,7.11-7.11,10.81-10.5,3.81-3.49,7.84-6.74,11.7-10.17,3.89-3.45,7.71-6.99,11.53-10.52,6.22-5.75,12.65-11.3,18.53-17.39,4.18-4.33,7.72-9.3,11.32-14.15,4.37-5.88,9.11-11.6,12.59-17.99,4.56-8.38,11.15-14.99,18.29-20.57,5.04-3.94,5.15-7.81,5.07-12.97-.43-26.27-1.27-52.56-.76-78.82.33-17.24,2.18-34.51,4.34-51.64,1.23-9.74,3.73-19.48,6.93-28.78,4.46-12.96,9.64-25.72,15.42-38.15,3.75-8.05,8.83-15.55,13.86-22.92,5.68-8.32,11.92-16.26,19.53-23,7.85-6.96,15.3-14.42,23.58-20.82,6.14-4.74,13.28-8.22,20.06-12.1,6.24-3.57,12.47-7.17,18.94-10.29,4.59-2.21,9.56-3.6,14.35-5.39,13.24-4.96,27.26-5.96,41.02-8.45,12.43-2.26,24.85-2.61,37.1-1.35,14.59,1.5,29.01,4.88,43.39,7.97,6.34,1.36,12.57,3.63,18.55,6.19,6.6,2.83,12.85,6.49,19.27,9.77,1.54.79,3.26,1.32,4.66,2.3,10.14,7.12,20.2,14.34,30.32,21.49,9.24,6.53,17.26,14.34,24.61,22.89,6.75,7.84,14.08,15.26,20.15,23.59,6.38,8.76,11.61,18.37,17.28,27.65,3.82,6.25,7.58,12.54,11.26,18.88.87,1.5,1.29,3.26,1.94,4.89,3.78,9.58,7.35,19.25,11.39,28.72,5.59,13.1,10.45,26.43,12.71,40.52,1.83,11.39,3.78,22.84,4.31,34.33.37,7.89-1.53,15.89-2.53,23.83-.43,3.44-1.15,6.85-1.73,10.27-.34.15-.68.3-1.02.46Z"/>
    </g>
  </g>
</svg>