<?xml version="1.0" encoding="utf-8"?>
<svg version="1.1" id="Layer_1" xmlns="http://www.w3.org/2000/svg" xmlns:xlink="http://www.w3.org/1999/xlink" x="0px" y="0px"
	 viewBox="0 0 345 526" style="enable-background:new 0 0 345 526;" xml:space="preserve">
<g id="W5WUhC.tif">
	<g>
		<path d="M339.7,79.8c-4.1-0.8-8.3-1.4-12.4-2.4c-7.1-1.6-14.1-4.1-21.2-4.9c-7.7-0.9-14.8-3.6-22.2-5.3c-5-1.1-10.1-1.6-15.1-2.7
			c-5.2-1.1-10.3-2.6-15.4-3.8c-5.8-1.4-11.7-2.7-17.5-3.9c-5.5-1.1-11-2.2-16.6-2.9c-7.2-0.9-14.4-1.7-21.7-2.2
			c-6.9-0.5-13.8-1-20.7-1c-4.5,0-9,0.7-13.6,1.2c-5,0.6-10,1.1-14.9,2.1c-6.4,1.3-12.6,3.6-19,4.7c-7.1,1.2-13.5,4.2-19.9,7
			c-15.2,6.7-27.5,17.3-38.9,29c-3.7,3.8-8.1,7.1-9.5,12.5c-2.5,9.1-5.2,18.2-7.4,27.4c-1.1,4.5-1.8,9.2-2,13.8
			c-0.2,4.4,0.3,8.8,0.9,13.2c0.7,5.3,1.7,10.6,2.8,15.8c0.4,1.8,1.3,3.4,2,5.1c3.3,7.4,7,14.7,9.8,22.3c3,8.1,8.7,14.3,13.4,21.2
			c11.9,17.5,27.6,31.3,43.2,45.3c8.3,7.5,17.1,14.4,25.7,21.6c1.8,1.5,2.3,3.1,2,5.7c-0.9,6.2-1,12.6-1.5,18.8
			c-0.1,1.3-0.5,2.6-0.3,3.8c0.1,1.2,0.4,2.9,1.3,3.4c6.5,4,8.7,10,8.9,17.2c0.1,2.8,0.6,5.7,0.6,8.5c-0.1,7.3-0.3,14.5-0.6,21.8
			c-0.1,3.2-0.9,6.4-0.8,9.5c0.2,5.1,0.8,10.2,1.2,15.3c0.4,4.4,0.7,8.8,1.2,13.2c0.7,5.1,1.7,10.2,2.3,15.2
			c0.6,4.4,0.9,8.8,1.4,13.2c0.7,5.4,1.7,10.9,2.3,16.3c0.5,4.4,0.8,8.8,1.1,13.2c0.3,4,0.9,7.9,0.9,11.9
			c-0.1,7.1-0.3,14.3-0.9,21.4c-0.4,4.9-1.7,9.7-2.5,14.5c-0.5,3.2-2.3,4.4-5.4,5.5c-5.5,1.8-11.1,3-16.9,3
			c-4.8-0.1-9.8-0.4-14.4-1.6c-4.1-1.1-5.8-5.2-6.8-9c-1.5-5.8-3-11.7-4-17.6c-0.7-4-0.6-8.2-0.7-12.3c-0.1-3.7-0.1-7.5,0-11.2
			c0.1-7.8,0.3-15.7,0.5-23.5c0.1-4,0-7.9,0.2-11.9c0.2-4.1,0.6-8.1,0.9-12.2c0.2-4.1,0.4-8.2,0.6-12.3c0.3-6.7,0.8-13.4,0.6-20.1
			c-0.1-4.8-0.9-9.5-1.6-14.2c-0.8-5.7-1.4-11.6-3-17.1c-2.1-7.2-2.1-14.6-1.3-21.7c0.6-5-1.5-7.2-4.4-10.1
			c-14.9-14.4-30.1-28.7-44.5-43.6c-9.4-9.8-18.1-20.5-26.4-31.3c-4.8-6.1-8.8-13-12.2-20c-4.7-9.7-9-19.8-12.7-29.9
			c-2.4-6.6-3.8-13.6-5.1-20.6c-1.5-7.8-2.4-15.7-1.9-23.8c0.5-8.3,0.5-16.6,1.5-24.8c0.8-6.1,2.8-12,4.4-18c1.5-5.5,3-11,4.8-16.3
			c1.3-3.8,3.3-7.4,5-11C27.8,80.2,35,71.8,41.3,62.7c5.7-8.2,12.4-15.3,20-21.5c9-7.3,18.9-13.5,28.7-19.8c4.3-2.8,9.1-5,13.8-6.9
			c5.3-2.1,10.8-3.6,16.2-5.3c1.3-0.4,2.6-1.1,3.9-1.3c9.6-1.7,19.3-3.3,29-4.9c8.8-1.5,17.7-1.6,26.5-1c8.2,0.6,16.4,0.7,24.4,1.9
			c8.5,1.3,16.8,3.8,25.1,5.8c5.6,1.4,11.2,2.8,16.8,4.3c1.3,0.4,2.5,1.1,3.8,1.6c7.5,3.2,14.9,6.6,22.4,9.7
			c10.4,4.2,20.6,8.9,29.7,15.5c7.4,5.3,14.9,10.7,21.6,16.8c4.6,4.2,8,9.7,11.9,14.7c1.7,2.2,3.2,4.5,4.8,6.7
			C340,79.3,339.9,79.6,339.7,79.8L339.7,79.8z"/>
	</g>
</g>
</svg>
