<?xml version="1.0" encoding="utf-8"?>
<svg version="1.1" id="Layer_1" xmlns="http://www.w3.org/2000/svg" xmlns:xlink="http://www.w3.org/1999/xlink" x="0px" y="0px"
	 viewBox="0 0 59 564" style="enable-background:new 0 0 59 564;" xml:space="preserve">
<g id="_8qwQQd.tif">
	<g>
		<path d="M27.7,7.7c5.4,5.4,7.6,11.4,9.6,17.5c3.7,11.3,5.1,23,5.4,34.8c0.7,33.3,1.3,66.6,1.9,99.9c0.3,15.7,0.7,31.4,0.9,47
			c0.4,33.6,0.7,67.3,1,100.9c0.2,22.1,0.4,44.2,0.3,66.3c0,13.9-0.3,27.9-0.7,41.8c-0.1,3.3-0.8,6.5-1.4,9.8
			c-0.1,0.7-0.8,1.3-1.7,2.7c-1-3.3-1.8-5.8-2.8-9.4c-1,1.8-2.1,2.8-2.2,3.9c-0.9,7.5-1.7,15-2.3,22.6c-0.2,2.1,0,4.3,0,6.7
			c1.3,0.1,2.4,0.2,4.4,0.5c0.4,3.4,1.2,6.9,1.3,10.5c0.2,23,0.3,46,0.3,69c0,7.3-0.4,14.6-0.7,21.9c0,0.7-0.3,1.3-0.4,2.2
			c-6.7-0.1-13.3-0.1-19.8-0.2c-2.1-7.8-1.6-15.4-1.6-23c0.2-15.6-0.2-31.1-0.2-46.7c0-9.5,0.3-19,0.3-28.5c0-3.3,0.5-5.6,4.8-5.1
			c0.2-12.5-0.1-24.6-6.4-35.5c-0.4,0-0.9,0-1.3-0.1c-0.7,2.1-1.5,4.2-2.4,6.9c-0.5-1.1-0.9-1.5-0.9-1.9
			c-0.5-28.1-1.2-56.2-1.4-84.3c-0.3-35.2-0.3-70.5-0.2-105.7c0.1-33.8,0.4-67.5,0.6-101.3c0.1-21.5,0.1-43,0.4-64.5
			c0.2-17,2.2-33.8,9.8-49.4C23.7,14,25.7,11.2,27.7,7.7L27.7,7.7z"/>
	</g>
</g>
</svg>
