<svg id="Layer_1" data-name="Layer 1" xmlns="http://www.w3.org/2000/svg" viewBox="0 0 595 564">
  <g id="_8qwQQd.tif" data-name="8qwQQd.tif">
    <g>
      <path class="cls-1" d="m592.17,3.26c-.43,11.12-4.62,19.4-9.11,27.54-8.33,15.13-19.35,28.23-31.62,40.23-34.6,33.82-69.4,67.44-104.11,101.14-16.35,15.87-32.56,31.89-49.02,47.65-35.31,33.81-70.71,67.53-106.13,101.22-23.25,22.12-46.51,44.23-69.97,66.12-14.81,13.82-29.93,27.31-45.08,40.76-3.56,3.16-7.75,5.63-11.74,8.27-.82.54-2.08.44-4.53.89,2.53-4.36,4.44-7.66,7.17-12.37-2.98.71-5.04.63-6.33,1.59-8.85,6.5-17.58,13.16-26.25,19.91-2.47,1.92-4.57,4.31-7.03,6.66,1.12,1.48,2.1,2.77,3.84,5.07-3.16,3.82-6.1,8.19-9.83,11.74-24.21,23.03-48.53,45.95-72.94,68.76-7.76,7.25-15.94,14.07-23.95,21.05-.72.63-1.64,1.03-2.78,1.73-6.59-7.16-13.07-14.19-19.52-21.2,6.15-9.97,14.7-17.03,22.89-24.55,16.66-15.28,32.84-31.08,49.35-46.53,10.07-9.43,20.49-18.48,30.53-27.94,3.52-3.32,6.52-5.03,10.14.05,13.52-12.22,26.03-24.52,31.27-42.07-.4-.48-.8-.96-1.19-1.43-2.95,1.3-5.91,2.6-9.74,4.28.63-1.56.72-2.4,1.19-2.84,29.32-28.44,58.46-57.08,88.07-85.21,37.13-35.28,74.54-70.26,112.03-105.16,35.9-33.42,72.07-66.55,108.09-99.83,22.96-21.21,45.75-42.62,68.86-63.66,18.3-16.66,38.08-31.17,62.16-38.55,4.65-1.43,9.54-2.08,15.27-3.29Z"/>
    </g>
  </g>
</svg>