<?xml version="1.0" encoding="UTF-8"?>
<svg id="Layer_1" data-name="Layer 1" xmlns="http://www.w3.org/2000/svg" viewBox="0 0 595 564">
  <defs>
    <style>
      .cls-1, .cls-2 {
        stroke-width: 0px;
      }

      .cls-2 {
        fill: #fff;
      }
    </style>
  </defs>
  <g id="_8qwQQd.tif" data-name="8qwQQd.tif">
    <g>
      <path class="cls-2" d="m595,564H0C0,376,0,188,0,0c198.33,0,396.67,0,595,0,0,188,0,376,0,564Zm-2.83-560.74c-5.73,1.21-10.62,1.86-15.27,3.29-24.08,7.38-43.86,21.89-62.16,38.55-23.11,21.04-45.9,42.45-68.86,63.66-36.03,33.28-72.19,66.41-108.09,99.83-37.49,34.9-74.9,69.88-112.03,105.16-29.61,28.14-58.75,56.77-88.07,85.21-.46.45-.55,1.28-1.19,2.84,3.83-1.68,6.78-2.98,9.74-4.28.4.48.8.96,1.19,1.43-5.24,17.55-17.75,29.84-31.27,42.07-3.62-5.09-6.62-3.37-10.14-.05-10.04,9.46-20.46,18.51-30.53,27.94-16.51,15.45-32.69,31.25-49.35,46.53-8.19,7.51-16.74,14.57-22.89,24.55,6.45,7.01,12.93,14.04,19.52,21.2,1.14-.7,2.06-1.1,2.78-1.73,8.01-6.98,16.18-13.8,23.95-21.05,24.42-22.81,48.74-45.73,72.94-68.76,3.73-3.55,6.67-7.92,9.83-11.74-1.74-2.3-2.71-3.58-3.84-5.07,2.46-2.35,4.56-4.73,7.03-6.66,8.66-6.75,17.4-13.4,26.25-19.91,1.3-.95,3.35-.88,6.33-1.59-2.73,4.71-4.64,8.01-7.17,12.37,2.46-.45,3.71-.35,4.53-.89,3.99-2.64,8.18-5.11,11.74-8.27,15.15-13.45,30.27-26.94,45.08-40.76,23.46-21.89,46.72-44.01,69.97-66.12,35.42-33.69,70.82-67.41,106.13-101.22,16.46-15.76,32.67-31.77,49.02-47.65,34.71-33.71,69.51-67.32,104.11-101.14,12.27-11.99,23.29-25.1,31.62-40.23,4.48-8.14,8.68-16.41,9.11-27.54Z"/>
      <path class="cls-1" d="m592.17,3.26c-.43,11.12-4.62,19.4-9.11,27.54-8.33,15.13-19.35,28.23-31.62,40.23-34.6,33.82-69.4,67.44-104.11,101.14-16.35,15.87-32.56,31.89-49.02,47.65-35.31,33.81-70.71,67.53-106.13,101.22-23.25,22.12-46.51,44.23-69.97,66.12-14.81,13.82-29.93,27.31-45.08,40.76-3.56,3.16-7.75,5.63-11.74,8.27-.82.54-2.08.44-4.53.89,2.53-4.36,4.44-7.66,7.17-12.37-2.98.71-5.04.63-6.33,1.59-8.85,6.5-17.58,13.16-26.25,19.91-2.47,1.92-4.57,4.31-7.03,6.66,1.12,1.48,2.1,2.77,3.84,5.07-3.16,3.82-6.1,8.19-9.83,11.74-24.21,23.03-48.53,45.95-72.94,68.76-7.76,7.25-15.94,14.07-23.95,21.05-.72.63-1.64,1.03-2.78,1.73-6.59-7.16-13.07-14.19-19.52-21.2,6.15-9.97,14.7-17.03,22.89-24.55,16.66-15.28,32.84-31.08,49.35-46.53,10.07-9.43,20.49-18.48,30.53-27.94,3.52-3.32,6.52-5.03,10.14.05,13.52-12.22,26.03-24.52,31.27-42.07-.4-.48-.8-.96-1.19-1.43-2.95,1.3-5.91,2.6-9.74,4.28.63-1.56.72-2.4,1.19-2.84,29.32-28.44,58.46-57.08,88.07-85.21,37.13-35.28,74.54-70.26,112.03-105.16,35.9-33.42,72.07-66.55,108.09-99.83,22.96-21.21,45.75-42.62,68.86-63.66,18.3-16.66,38.08-31.17,62.16-38.55,4.65-1.43,9.54-2.08,15.27-3.29Z"/>
    </g>
  </g>
</svg>