<?xml version="1.0" encoding="UTF-8"?>
<svg id="Layer_1" data-name="Layer 1" xmlns="http://www.w3.org/2000/svg" viewBox="0 0 473 476">
  <defs>
    <style>
      .cls-1, .cls-2 {
        stroke-width: 0px;
      }

      .cls-2 {
        fill: #fff;
      }
    </style>
  </defs>
  <g id="aBPB01.tif">
    <g>
      <path class="cls-2" d="m473,476H0V0h473v476Zm-164.26-216.47c-11.27-10.36-21.69-19.93-32.17-29.55,1.17-1.41,1.55-1.94,2-2.4,29.83-30.36,59.87-60.53,89.45-91.14,21.48-22.23,42.75-44.71,63.39-67.72,15.36-17.13,27.72-36.49,37.48-57.41,1.27-2.73,2.08-5.68,3.1-8.52-.47-.44-.94-.87-1.42-1.31-7.69,4.4-16.07,7.92-22.94,13.36-21.48,17-43.23,33.82-63.36,52.36-41.58,38.3-82.2,77.63-123.12,116.64-5.02,4.79-9.41,10.24-14.87,16.23-10.37-11.4-19.54-21.49-28.71-31.58-7.66,6.71-7.99,13.37-.79,21.05,5.4,5.77,10.74,11.6,15.26,16.5-2.1,2.75-3.61,4.94-5.33,6.94-9.42,10.97-18.88,21.9-28.38,32.8-.94,1.07-2.43,2.7-3.39,2.53-4.54-.79-6.32,2.38-8.13,5.25-7.89,12.46-17.69,23.26-28.58,33.1-12.09,10.92-24.83,21.17-36.34,32.67-15.41,15.38-29.8,31.77-44.82,47.55-14.54,15.28-29,30.65-44.13,45.34-8.43,8.19-18.12,15.1-27.29,22.53-3.34,2.71-4.03,5.7-.99,8.92,9.35,9.88,18.72,19.74,28.32,29.37.88.89,4,.83,5.13-.04,4.05-3.13,8.15-6.41,11.42-10.31,29.1-34.68,61.29-66.09,96.78-94.27,9.93-7.89,18.44-17.7,26.95-27.22,10.72-11.99,19.95-25.39,31.28-36.74,20.31-20.35,41.71-39.62,62.66-59.33.57-.53,1.27-.92,1.74-1.25.5.18.7.19.8.3,5.04,5.06,10.12,10.09,15.1,15.21,6.95,7.15,13.24,6.62,21.72,2.65,1.25-.59,1.99-2.27,2.18-2.5Z"/>
      <path class="cls-1" d="m308.74,259.53c-.19.23-.93,1.92-2.18,2.5-8.48,3.97-14.78,4.5-21.72-2.65-4.98-5.12-10.06-10.15-15.1-15.21-.11-.11-.3-.12-.8-.3-.47.33-1.17.72-1.74,1.25-20.96,19.71-42.35,38.98-62.66,59.33-11.32,11.35-20.56,24.75-31.28,36.74-8.51,9.52-17.01,19.34-26.95,27.22-35.48,28.17-67.67,59.59-96.78,94.27-3.27,3.9-7.37,7.18-11.42,10.31-1.12.87-4.24.93-5.13.04-9.6-9.63-18.97-19.49-28.32-29.37-3.04-3.21-2.35-6.21.99-8.92,9.17-7.43,18.86-14.34,27.29-22.53,15.12-14.69,29.58-30.06,44.13-45.34,15.02-15.78,29.41-32.17,44.82-47.55,11.51-11.49,24.25-21.74,36.34-32.67,10.89-9.84,20.69-20.63,28.58-33.1,1.82-2.87,3.6-6.05,8.13-5.25.96.17,2.45-1.46,3.39-2.53,9.5-10.9,18.96-21.83,28.38-32.8,1.72-2,3.23-4.19,5.33-6.94-4.53-4.9-9.86-10.73-15.26-16.5-7.2-7.68-6.87-14.34.79-21.05,9.17,10.09,18.35,20.17,28.71,31.58,5.45-5.99,9.84-11.44,14.87-16.23,40.91-39.01,81.54-78.34,123.12-116.64,20.13-18.54,41.88-35.36,63.36-52.36,6.87-5.44,15.25-8.96,22.94-13.36.47.44.94.87,1.42,1.31-1.02,2.85-1.83,5.79-3.1,8.52-9.76,20.92-22.12,40.28-37.48,57.41-20.64,23.02-41.9,45.49-63.39,67.72-29.58,30.61-59.61,60.78-89.45,91.14-.45.46-.83.99-2,2.4,10.48,9.63,20.89,19.2,32.17,29.55Z"/>
    </g>
  </g>
</svg>