<?xml version="1.0" encoding="UTF-8"?>
<svg id="Layer_1" data-name="Layer 1" xmlns="http://www.w3.org/2000/svg" viewBox="0 0 600 454">
  <defs>
    <style>
      .cls-1, .cls-2 {
        stroke-width: 0px;
      }

      .cls-2 {
        fill: #fff;
      }
    </style>
  </defs>
  <g id="_4gf0Ff.tif" data-name="4gf0Ff.tif">
    <g>
      <path class="cls-2" d="m600,454H0V0h600v454Zm-576.01-3.51c.96-1.69,1.64-3.64,2.93-5.03,7.75-8.38,15.42-16.84,23.51-24.88,125.68-124.88,251.4-249.71,377.19-374.48,3.86-3.83,8.23-7.25,12.75-10.29,9.54-6.42,17.67-5.38,25.94,2.78,16.35,16.15,32.6,32.4,49.13,48.35,3.83,3.69,6.21,7.43,6.34,12.84.06,2.28,1.05,5.07,2.61,6.7,12.85,13.47,25.94,26.73,38.97,40.04.19.19.63.13,1.99.37,10.02-10.7,20.46-21.85,31.28-33.41-.69-.79-1.99-2.46-3.48-3.95-9.9-9.88-20.18-19.41-29.63-29.69-4.82-5.25-10.59-6.76-16.87-6.94-3.32-.1-5.57-.89-7.86-3.12-19.19-18.72-38.45-37.37-57.7-56.02-1.19-1.15-2.38-2.38-3.79-3.21-15.98-9.38-32.21-9.38-48.2-.34-4.39,2.48-8.04,6.43-11.7,10.05-81.65,80.6-163.26,161.23-244.85,241.88-55.3,54.66-110.57,109.36-165.85,164.05-1.26,1.25-2.44,2.58-3.61,3.81,7.12,6.98,13.89,13.61,20.89,20.48Z"/>
      <path class="cls-1" d="m23.99,450.49c-7.01-6.87-13.77-13.5-20.89-20.48,1.17-1.24,2.35-2.57,3.61-3.81,55.28-54.69,110.55-109.39,165.85-164.05,81.59-80.65,163.2-161.28,244.85-241.88,3.66-3.61,7.3-7.56,11.7-10.05,15.98-9.04,32.22-9.03,48.2.34,1.41.83,2.6,2.06,3.79,3.21,19.26,18.65,38.52,37.3,57.7,56.02,2.28,2.23,4.53,3.02,7.86,3.12,6.28.18,12.05,1.69,16.87,6.94,9.45,10.29,19.73,19.81,29.63,29.69,1.49,1.49,2.79,3.17,3.48,3.95-10.83,11.56-21.26,22.7-31.28,33.41-1.37-.24-1.81-.18-1.99-.37-13.03-13.3-26.12-26.56-38.97-40.04-1.55-1.63-2.55-4.42-2.61-6.7-.14-5.41-2.52-9.15-6.34-12.84-16.54-15.95-32.79-32.2-49.13-48.35-8.26-8.16-16.4-9.21-25.94-2.78-4.52,3.04-8.89,6.46-12.75,10.29-125.78,124.77-251.51,249.6-377.19,374.48-8.09,8.04-15.76,16.51-23.51,24.88-1.29,1.39-1.97,3.34-2.93,5.03Z"/>
    </g>
  </g>
</svg>