<svg id="Layer_1" data-name="Layer 1" xmlns="http://www.w3.org/2000/svg" viewBox="0 0 596 528.49">
  <g id="IyfSV0.tif">
    <g>
      <path class="cls-1" d="m16.1,526.73c-4.78-4.81-9.22-9.29-14.41-14.51,4.15-3.26,7.44-5.83,10.72-8.43,30.73-24.3,56.63-53.67,84.44-81,46.23-45.43,92.1-91.23,137.9-137.1,60.09-60.17,119.94-120.57,179.93-180.84,21.73-21.83,43.07-44.08,65.54-65.13,12.19-11.42,25.57-22.05,39.86-30.63,18.19-10.92,37.29-8.97,53.69,4.72,15.29,12.76,20.89,29.77,17.25,49.58-4.35,23.7-21.28,35.32-41.79,43.43-3.26,1.29-6.75,2-10.1,3.1-3.61,1.18-6.49.26-8.02-3.18-3.73-8.38-4.27-15.33,6.68-17.95,8.33-1.99,17.05-4.37,24.2-8.82,14.9-9.28,21.42-24.84,14.96-42.36-4.87-13.22-14.98-21.17-28.68-23.49-11.72-1.99-21.72,3.47-29.13,11.8-51.68,58.1-109.48,110.08-164.56,164.76-48.5,48.15-97.71,95.58-146.6,143.34-56.23,54.93-112.54,109.79-168.57,164.92-6.82,6.71-12.14,14.96-18.22,22.44-1.29,1.59-2.83,2.98-5.1,5.34Z"/>
    </g>
  </g>
</svg>