<?xml version="1.0" encoding="UTF-8" standalone="no"?>
<!-- Created with Inkscape (http://www.inkscape.org/) -->

<svg
   width="105.66747mm"
   height="106.17468mm"
   viewBox="0 0 105.66747 106.17468"
   version="1.1"
   id="svg1"
   xml:space="preserve"
   xmlns="http://www.w3.org/2000/svg"
   xmlns:svg="http://www.w3.org/2000/svg"><defs
     id="defs1" /><g
     id="layer1"
     transform="translate(-52.157617,-95.412664)"><g
       id="g1"
       transform="translate(52.157614,95.412659)"><path
         style="fill:#000000"
         d="m 46.815776,105.92837 c -9.855673,-1.11156 -19.529609,-5.21873 -27.384372,-11.626345 -2.246208,-1.83237 -6.711957,-6.41263 -8.371752,-8.58642 -5.6865951,-7.44758 -9.2583861,-15.87665 -10.56876113,-24.94121 -0.780496,-5.39911 -0.616412,-12.66996 0.393447,-17.43428 C 3.1976009,32.426585 8.6166099,22.796615 16.944294,14.800425 23.252301,8.7435051 30.711385,4.3555451 38.917565,1.8741851 44.164446,0.28764515 46.223186,0.01180515 52.901196,6.0514699e-4 59.100456,-0.00979485 60.116336,0.10261515 65.204316,1.3619651 c 18.53285,4.58716 34.08833,20.3851999 38.900224,39.5067699 4.94641,19.65613 -2.07334,40.58614 -17.865844,53.26861 -8.18057,6.569575 -17.21103,10.451395 -27.13046,11.662295 -3.64889,0.44543 -8.98858,0.50135 -12.29246,0.12873 z m 10.45104,-2.60412 c 5.83467,-0.4854 11.6881,-2.08868 16.87414,-4.621925 8.58151,-4.19182 15.08166,-9.82307 20.18249,-17.48463 5.950224,-8.93735 8.932184,-19.33949 8.494944,-29.63333 -0.3085,-7.26296 -1.6841,-12.81036 -4.789484,-19.31459 -2.94017,-6.1582 -5.91645,-10.41711 -10.38317,-14.85781 C 80.342896,10.151655 71.994266,5.5728551 62.414536,3.5739451 45.887306,0.12534515 29.808844,5.4379851 17.1206,18.539925 9.3390639,26.575175 4.3952499,36.718465 3.0185639,47.473265 c -1.220567,9.53517 0.471585,18.97846 5.051065,28.18818 5.1346061,10.32612 13.1718691,18.12579 23.9734891,23.26478 7.772434,3.697835 16.128028,5.154715 25.223698,4.398025 z m -9.75987,-2.6116 c -0.22093,-0.35747 1.06852,-2.877625 2.29764,-4.490605 1.70751,-2.24078 1.70437,-2.29502 -0.0695,-1.19724 -2.26744,1.40322 -4.52034,3.24587 -5.19799,4.25143 l -0.57088,0.847145 -1.16823,-1.028325 c -0.64253,-0.56557 -2.054538,-2.23174 -3.137797,-3.7026 -1.083259,-1.47085 -2.007145,-2.56153 -2.05308,-2.42372 -0.04594,0.1378 0.329263,1.56855 0.833773,3.17944 0.50451,1.61089 0.891885,2.92889 0.860832,2.92889 -0.350939,0 -5.918083,-2.34685 -7.724592,-3.25633 -3.464264,-1.74408 -8.573833,-5.20817 -8.573833,-5.81274 0,-0.10377 0.583786,-0.91315 1.297302,-1.79861 1.514336,-1.87928 2.643683,-3.91325 3.532695,-6.36245 0.349537,-0.96297 0.959921,-2.30439 1.356407,-2.98094 1.317432,-2.24803 5.073244,-4.6492 7.42595,-4.74757 1.041993,-0.0436 1.080396,-0.0127 1.866994,1.49873 0.441715,0.84877 1.228343,2.0114 1.748063,2.58362 l 0.944946,1.04041 1.7223,-0.64828 c 0.94727,-0.35655 2.22119,-0.69477 2.83094,-0.7516 0.75926,-0.0708 1.50412,-0.40492 2.36361,-1.06038 2.15983,-1.64711 4.15983,-2.72839 6.97942,-3.77336 5.48965,-2.03452 8.5619,-3.67156 11.49753,-6.12644 0.75081,-0.62785 1.60408,-1.14156 1.89616,-1.14156 0.29207,0 0.75803,-0.3116 1.03547,-0.69246 0.50203,-0.68917 0.50865,-0.69027 1.39476,-0.23204 0.48969,0.25322 1.79068,1.14472 2.89108,1.9811 2.44398,1.85758 4.11668,2.91824 7.54622,4.78508 2.30181,1.25296 6.22848,4.39235 6.22848,4.97969 0,0.0957 -0.81883,0.38487 -1.81962,0.64268 -2.13705,0.55051 -4.49837,1.9471 -8.76108,5.18169 -1.67494,1.27095 -5.0694,3.78419 -7.54325,5.58497 -6.29063,4.57911 -10.44415,7.90474 -13.27145,10.62613 l -2.42352,2.332755 h -3.05097 c -1.67803,0 -3.11117,-0.0974 -3.18477,-0.21651 z m 1.26436,-7.276115 c 3.08789,-1.71112 3.97756,-2.53257 4.41798,-4.07922 0.44479,-1.56198 0.37522,-4.76465 -0.14217,-6.54438 -0.39205,-1.34862 -1.45753,-2.62457 -2.79175,-3.34324 -0.42111,-0.22683 -1.47868,-0.34606 -2.91042,-0.32813 -5.32437,0.0667 -8.097234,2.4996 -8.401163,7.3712 -0.211651,3.39251 0.418874,5.08856 3.399323,9.14382 l 1.27801,1.7389 1.42474,-1.34202 c 0.78361,-0.73811 2.46006,-1.91573 3.72545,-2.61693 z m -11.333067,-6.38271 c 0.01422,-2.83649 -0.01896,-3.03552 -0.529166,-3.1744 -1.45797,-0.39686 -4.041134,-2.9573 -3.514676,-3.48375 0.264339,-0.26434 2.913398,1.08277 3.8362,1.95079 l 0.865861,0.81447 0.645114,-1.27307 c 0.354813,-0.70019 0.844538,-1.4725 1.088277,-1.71624 0.253893,-0.25389 0.343076,-0.53897 0.208816,-0.6675 -0.296909,-0.28424 -4.47146,-1.06456 -5.695178,-1.06456 -1.160863,0 -2.079792,0.81056 -2.079792,1.83452 0,1.13986 0.947231,3.92925 1.916217,5.64284 0.847437,1.49865 2.836129,4.16487 3.105648,4.16372 0.07563,-3.2e-4 0.144336,-1.36239 0.152679,-3.02682 z m 18.750387,-1.62626 c 0.9479,-2.36782 1.11611,-3.77471 0.57614,-4.8189 -0.23621,-0.45677 -0.65853,-0.95309 -0.9385,-1.10292 -0.54509,-0.29172 -2.20763,-0.37251 -2.46057,-0.11956 -0.0841,0.0841 0.205,0.9176 0.64239,1.85228 0.59593,1.27347 0.83162,2.2299 0.94032,3.81589 0.0798,1.16405 0.23446,2.11646 0.34371,2.11646 0.10925,0 0.51268,-0.78446 0.89651,-1.74325 z m -3.8166,-7.21645 c 0,-0.12565 0.74414,-0.56963 1.65365,-0.98664 1.39474,-0.63948 2.01229,-0.76157 3.94432,-0.77984 2.0848,-0.0197 2.3781,-0.0883 3.26335,-0.76356 1.03789,-0.79163 5.1616,-5.80995 5.1616,-6.28137 0,-0.15478 -0.32742,-0.0636 -0.72761,0.20256 -2.2921,1.5246 -5.19358,3.10553 -6.81302,3.7122 -4.47647,1.67698 -5.40687,2.08569 -7.34373,3.22598 -1.12863,0.66447 -1.96207,1.29491 -1.85208,1.40097 0.18286,0.17634 1.07301,0.3577 2.2505,0.45851 0.25466,0.0218 0.46302,-0.0632 0.46302,-0.18881 z m 4.51571,22.472305 c 0.069,-0.58596 6.03314,-5.226865 12.26505,-9.543855 1.99568,-1.38245 5.73368,-4.08815 8.30668,-6.01268 7.38819,-5.52615 9.71703,-6.496 13.06897,-5.44258 l 1.51162,0.47505 -1.50374,1.98438 c -1.93164,2.54904 -5.24118,5.99982 -7.62841,7.95397 -6.78165,5.55135 -15.95826,9.51664 -24.38432,10.536675 -0.9095,0.1101 -1.64563,0.13217 -1.63585,0.049 z M 18.296296,85.908715 C 9.3141579,76.069965 4.8303129,64.039285 5.3625949,51.206075 5.6099979,45.241225 6.8008509,40.304925 9.4160679,34.403695 15.792398,20.015535 29.839793,8.7261751 44.891756,5.8932151 c 4.29432,-0.80824 11.25678,-0.808 15.71162,5.4e-4 9.4967,1.72362 17.90775,6.1497299 24.95158,13.1301599 15.029564,14.89427 18.903644,36.60373 9.81067,54.97675 -0.81216,1.64103 -1.71059,3.26589 -1.99651,3.61079 l -0.51985,0.6271 -3.63602,-3.70334 c -3.38209,-3.44473 -3.8485,-3.81866 -6.67872,-5.35449 -5.00211,-2.71443 -9.17776,-5.68068 -10.16587,-7.22152 -0.20642,-0.32189 -0.62425,-2.06651 -0.9285,-3.87692 l -0.55319,-3.29165 0.76463,-0.80939 c 0.42054,-0.44516 1.50738,-1.82141 2.41519,-3.05834 0.90781,-1.23693 2.44983,-3.02287 3.4267,-3.96875 1.41289,-1.36808 1.85296,-1.99034 2.15181,-3.04271 0.5478,-1.92897 0.48596,-5.26631 -0.12746,-6.87917 -0.47896,-1.25934 -1.79251,-3.22588 -2.42238,-3.6266 -0.88478,-0.56289 -1.67529,-2.33671 -2.09806,-4.70777 -0.81299,-4.55969 -2.65625,-8.46368 -5.22593,-11.06843 -2.86699,-2.90611 -7.97038,-6.17756 -10.67992,-6.84621 -1.56147,-0.38533 -1.8476,-0.376 -4.81729,0.15703 -2.5995,0.46659 -4.06293,0.55884 -8.28441,0.52222 -4.659,-0.0404 -5.270226,0.008 -6.693551,0.5269 -2.303748,0.84036 -3.548935,1.65204 -5.215919,3.40003 -2.475392,2.59568 -3.57505,5.18936 -3.938429,9.28926 -0.176745,1.99416 -0.536088,3.63064 -1.336255,6.08542 -1.010565,3.10025 -1.085966,3.5302 -0.98326,5.6067 0.134363,2.71652 0.774252,4.31391 2.44254,6.09744 1.333072,1.42517 1.576017,2.16399 1.978796,6.01777 0.632937,6.05592 1.849919,9.48302 4.482618,12.62333 3.260251,3.88885 4.003976,5.53271 4.003976,8.84999 v 1.54791 l -3.373438,0.0961 c -3.256604,0.0928 -3.431762,0.12763 -5.057499,1.00569 -3.070118,1.65817 -5.714401,4.62067 -6.792848,7.61031 -1.275517,3.53596 -3.262042,6.90324 -3.855999,6.53615 -0.13635,-0.0843 -0.23086,-0.0551 -0.210022,0.0649 0.09292,0.53492 -0.05464,0.7136 -0.28936,0.35039 -0.143428,-0.22194 -0.258266,-0.26201 -0.260532,-0.0909 -0.0023,0.1742 -0.260413,0.25668 -0.599364,0.19152 l -0.595312,-0.11443 0.595312,0.31193 c 0.594087,0.31128 0.806303,0.76023 0.35936,0.76023 -0.129774,0 -1.189238,-1.0442 -2.354364,-2.32044 z m 26.49329,-12.24433 -1.62932,-0.76092 0.13531,-2.06059 c 0.25237,-3.84341 -0.82312,-6.81849 -3.614275,-9.9981 -3.09921,-3.53053 -3.95993,-5.68182 -4.766061,-11.91233 -0.653707,-5.05244 -0.988605,-6.05623 -2.625622,-7.86977 -0.687383,-0.76151 -1.407613,-1.77642 -1.600511,-2.25536 -0.582057,-1.44516 -0.219094,-4.76549 0.876345,-8.01668 0.66008,-1.95907 1.023502,-3.63993 1.207996,-5.58709 0.49001,-5.17157 2.527062,-8.46719 6.301831,-10.19534 1.990367,-0.91122 3.928497,-1.11306 7.618107,-0.79336 2.72821,0.2364 3.56288,0.20851 5.82084,-0.19445 4.90545,-0.87544 5.67393,-0.85649 7.85876,0.19377 2.30787,1.10942 5.30833,3.12886 6.98824,4.7034 2.51032,2.35285 4.03845,5.59403 4.98541,10.57409 0.616,3.23955 0.7028,3.42709 2.38214,5.14718 2.02005,2.06906 2.77272,3.70721 2.77608,6.042 0.003,2.4093 -0.69825,3.79314 -2.66925,5.26397 -0.52362,0.39075 -1.90773,2.05763 -3.0758,3.70417 -2.37548,3.34855 -2.88315,3.8786 -4.52816,4.72781 -0.63122,0.32586 -1.2096,0.78337 -1.28528,1.01669 -1.2803,3.94683 -5.67645,7.80882 -11.19309,9.83306 -2.29697,0.84284 -6.85509,0.91745 -8.80329,0.14411 -0.69447,-0.27567 -1.32012,-0.44377 -1.39034,-0.37356 -0.0702,0.0702 -0.008,0.7585 0.13819,1.52952 0.14622,0.77102 0.26652,1.83209 0.26733,2.35793 0.002,1.50935 0.47109,2.82074 1.13536,3.17624 0.53956,0.28877 0.78661,0.20546 2.21061,-0.74545 0.88174,-0.5888 3.11927,-1.67115 4.9723,-2.40522 1.85303,-0.73407 4.10266,-1.70451 4.99918,-2.15652 4.84726,-2.44395 8.73585,-6.19667 9.47894,-9.14771 0.15604,-0.6197 0.36979,-1.12672 0.475,-1.12672 0.30161,0 0.80422,1.93933 0.80422,3.10308 0,0.9789 -0.16189,1.21246 -2.18281,3.14905 -3.45158,3.30756 -6.07656,4.89551 -12.0178,7.27005 -3.06351,1.22439 -7.50632,3.65981 -7.71571,4.22952 -0.13441,0.36572 -0.55984,0.26251 -2.33487,-0.56647 z m 9.03765,-10.35093 c 5.59412,-1.60964 9.71313,-5.63136 11.26763,-11.00149 0.18041,-0.62323 0.48845,-1.12448 0.69104,-1.12448 1.53232,0 4.43039,-2.67008 5.70231,-5.25373 1.12906,-2.29344 1.33021,-5.50995 0.48222,-7.71085 -0.96729,-2.51055 -2.03152,-3.32184 -3.82648,-2.91701 -1.52979,0.34503 -2.17735,0.92747 -3.08821,2.77768 -0.46756,0.94976 -0.93783,1.72683 -1.04505,1.72683 -0.10721,0 -0.25486,-2.05383 -0.32811,-4.56406 -0.15203,-5.21033 -0.42118,-6.72117 -1.6641,-9.34121 -0.8844,-1.86429 -3.08154,-4.41493 -5.17888,-6.01211 l -0.95638,-0.7283 -2.12127,1.19292 c -2.87965,1.6194 -6.33134,2.91076 -9.19514,3.44013 -1.30968,0.24209 -2.64378,0.49208 -2.96466,0.55553 -0.68191,0.13485 -2.712471,2.86312 -3.502293,4.7057 -0.727927,1.69819 -1.27847,3.91732 -1.489943,6.00567 l -0.17585,1.73657 2.346583,-0.0168 c 2.119983,-0.0152 2.482513,0.0585 3.754263,0.76301 1.51893,0.84141 2.13549,1.60371 1.672,2.0672 -0.19245,0.19245 -0.70311,0.0871 -1.67815,-0.34622 -1.16364,-0.51713 -1.890252,-0.63002 -4.28082,-0.66509 -3.439565,-0.0505 -3.422672,-0.0349 -3.396165,-3.13688 0.01999,-2.33963 0.899259,-5.84074 2.019303,-8.04057 0.626536,-1.23055 3.057532,-4.21349 3.778476,-4.63636 0.291636,-0.17105 0.305616,-0.30306 0.06308,-0.59531 -0.448094,-0.53992 -0.573351,-0.49164 -1.771475,0.68282 -0.819019,0.80284 -1.292266,1.05931 -1.960334,1.06238 -0.484371,0.002 -1.01712,0.0915 -1.183888,0.19844 -0.166769,0.10691 -0.391914,1.02782 -0.500324,2.04647 -0.10841,1.01864 -0.656573,3.38048 -1.218139,5.24853 -1.544203,5.13677 -1.465436,5.76559 1.293526,10.32664 0.758724,1.25431 0.921082,1.88336 1.386581,5.37228 0.859269,6.44024 1.594258,8.73954 3.70489,11.59019 2.177649,2.94116 4.739169,4.64789 7.686509,5.12147 1.80856,0.2906 3.31361,0.15009 5.67725,-0.53002 z m -9.71043,-8.04757 c -1.34833,-0.41483 -1.75208,-0.79152 -1.3159,-1.22769 0.19453,-0.19453 0.7406,-0.16497 1.8158,0.0983 1.10914,0.27158 2.05195,0.31716 3.38333,0.16358 2.11478,-0.24395 2.74024,-0.12501 2.27712,0.43301 -0.75118,0.90512 -4.02879,1.18859 -6.16035,0.53279 z m 0.52513,-2.42149 c -0.89083,-0.55246 -1.38104,-1.6771 -1.15245,-2.64396 0.0953,-0.40301 0.70754,-2.42938 1.36058,-4.50305 0.87137,-2.76699 1.29902,-3.77031 1.60701,-3.77031 0.49545,0 0.3768,1.42802 -0.45855,5.51922 -0.82113,4.02154 -0.75962,4.19662 1.55966,4.43903 0.90136,0.0942 1.63884,0.26047 1.63884,0.36946 0,0.32771 -2.06599,1.04987 -2.98191,1.04233 -0.47,-0.004 -1.17793,-0.2076 -1.57318,-0.45272 z m 6.14259,-12.09012 c 0,-0.41333 0.344,-0.55011 2.05119,-0.81562 0.94095,-0.14634 1.0999,-0.10922 0.97097,0.22677 -0.30776,0.80201 -3.02216,1.3309 -3.02216,0.58885 z m -13.317359,-0.0619 c -0.09701,-0.097 -0.176389,-0.35172 -0.176389,-0.56602 0,-0.31343 0.26574,-0.35816 1.358798,-0.2287 1.494918,0.17705 1.688833,0.27046 1.430207,0.68893 -0.189477,0.30658 -2.325342,0.39307 -2.612616,0.10579 z m 10.392399,-1.17371 c -0.26733,-0.4995 -0.23919,-0.65219 0.17948,-0.97385 1.63749,-1.25807 5.19818,-2.06887 8.03951,-1.83066 2.50505,0.21001 6.08305,1.74409 6.08305,2.60812 0,0.36598 -1.32714,0.24807 -3.43958,-0.30559 -3.54895,-0.93017 -7.89637,-0.61513 -9.96907,0.72242 -0.52196,0.33683 -0.60629,0.31603 -0.89339,-0.22044 z"
         id="path19" /></g></g></svg>
