<svg xmlns="http://www.w3.org/2000/svg" xml:space="preserve" width="399.373" height="401.29" viewBox="0 0 105.667 106.175"><path d="M46.816 105.928c-9.856-1.111-19.53-5.218-27.385-11.626-2.246-1.832-6.712-6.413-8.371-8.586C5.373 78.268 1.8 69.839.49 60.774c-.78-5.399-.616-12.67.394-17.434 2.314-10.913 7.733-20.543 16.06-28.54C23.252 8.744 30.711 4.356 38.918 1.874 44.164.288 46.223.012 52.9.001c6.2-.01 7.215.102 12.303 1.361 18.533 4.587 34.089 20.385 38.9 39.507 4.947 19.656-2.073 40.586-17.865 53.268-8.18 6.57-17.211 10.452-27.13 11.663-3.65.445-8.99.501-12.293.128m10.45-2.604c5.835-.485 11.689-2.088 16.875-4.622 8.581-4.191 15.082-9.823 20.182-17.484 5.95-8.938 8.933-19.34 8.495-29.634-.308-7.263-1.684-12.81-4.79-19.314-2.94-6.158-5.916-10.417-10.382-14.858-7.303-7.26-15.652-11.84-25.231-13.838C45.887.125 29.809 5.438 17.12 18.54 9.339 26.575 4.395 36.718 3.019 47.473c-1.221 9.535.471 18.979 5.05 28.188 5.135 10.327 13.172 18.126 23.974 23.265 7.773 3.698 16.128 5.155 25.224 4.398m-9.76-2.611c-.22-.358 1.07-2.878 2.299-4.491 1.707-2.24 1.704-2.295-.07-1.197-2.267 1.403-4.52 3.246-5.198 4.251l-.57.847-1.169-1.028c-.643-.566-2.055-2.232-3.138-3.703s-2.007-2.561-2.053-2.423.33 1.568.834 3.18c.504 1.61.892 2.928.86 2.928-.35 0-5.917-2.347-7.724-3.256-3.464-1.744-8.574-5.208-8.574-5.813 0-.104.584-.913 1.298-1.799 1.514-1.879 2.643-3.913 3.532-6.362.35-.963.96-2.304 1.357-2.981 1.317-2.248 5.073-4.65 7.426-4.748 1.042-.043 1.08-.012 1.867 1.5.441.848 1.228 2.01 1.748 2.583l.945 1.04 1.722-.648c.947-.357 2.221-.695 2.83-.752.76-.07 1.505-.405 2.364-1.06 2.16-1.647 4.16-2.728 6.98-3.773 5.49-2.035 8.562-3.672 11.497-6.127.751-.628 1.605-1.141 1.897-1.141s.758-.312 1.035-.693c.502-.69.509-.69 1.395-.232.49.253 1.79 1.145 2.89 1.981 2.445 1.858 4.118 2.918 7.547 4.785 2.302 1.253 6.229 4.393 6.229 4.98 0 .096-.82.385-1.82.643-2.137.55-4.498 1.947-8.761 5.181a589 589 0 0 1-7.543 5.585c-6.291 4.58-10.444 7.905-13.272 10.626l-2.423 2.333h-3.051c-1.678 0-3.111-.097-3.185-.216m1.265-7.276c3.088-1.712 3.978-2.533 4.418-4.08.445-1.562.376-4.764-.142-6.544-.392-1.349-1.457-2.625-2.792-3.343-.42-.227-1.478-.346-2.91-.328-5.324.066-8.097 2.5-8.401 7.37-.212 3.393.419 5.09 3.4 9.145l1.277 1.738 1.425-1.342c.783-.738 2.46-1.915 3.725-2.616m-11.333-6.383c.014-2.837-.019-3.036-.529-3.175-1.458-.396-4.041-2.957-3.515-3.483.265-.265 2.914 1.082 3.837 1.95l.865.815.646-1.273c.354-.7.844-1.473 1.088-1.716.254-.254.343-.54.209-.668-.297-.284-4.472-1.064-5.696-1.064-1.16 0-2.08.81-2.08 1.834 0 1.14.948 3.93 1.917 5.643.847 1.499 2.836 4.165 3.106 4.164.075 0 .144-1.363.152-3.027m18.75-1.626c.949-2.368 1.117-3.775.577-4.82-.236-.456-.659-.952-.939-1.102-.545-.292-2.207-.373-2.46-.12-.084.084.205.918.642 1.852.596 1.274.832 2.23.94 3.816.08 1.164.235 2.117.344 2.117.11 0 .513-.785.897-1.743m-3.816-7.217c0-.126.744-.57 1.654-.987 1.394-.639 2.012-.761 3.944-.78 2.085-.02 2.378-.088 3.263-.763 1.038-.792 5.162-5.81 5.162-6.281 0-.155-.327-.064-.728.202-2.292 1.525-5.193 3.106-6.813 3.712-4.476 1.677-5.407 2.086-7.343 3.226-1.129.665-1.962 1.295-1.852 1.401.182.177 1.073.358 2.25.459.255.022.463-.063.463-.189m4.516 22.472c.069-.586 6.033-5.226 12.265-9.543 1.995-1.383 5.733-4.089 8.306-6.013 7.389-5.526 9.717-6.496 13.07-5.443l1.511.475-1.504 1.985c-1.931 2.549-5.24 6-7.628 7.954-6.782 5.551-15.958 9.516-24.384 10.536-.91.11-1.646.133-1.636.05M18.296 85.91C9.314 76.07 4.83 64.039 5.363 51.206 5.61 45.241 6.8 40.305 9.416 34.404 15.792 20.016 29.84 8.726 44.892 5.894c4.294-.809 11.257-.809 15.711 0 9.497 1.723 17.908 6.15 24.952 13.13 15.03 14.894 18.904 36.604 9.81 54.977-.812 1.64-1.71 3.266-1.996 3.61l-.52.628-3.636-3.704c-3.382-3.445-3.848-3.818-6.678-5.354-5.003-2.715-9.178-5.681-10.166-7.222-.207-.322-.625-2.066-.929-3.877l-.553-3.291.765-.81c.42-.445 1.507-1.821 2.415-3.058s2.45-3.023 3.426-3.969c1.413-1.368 1.853-1.99 2.152-3.043.548-1.929.486-5.266-.127-6.879-.48-1.26-1.793-3.226-2.423-3.626-.884-.563-1.675-2.337-2.098-4.708-.813-4.56-2.656-8.464-5.226-11.069-2.867-2.906-7.97-6.177-10.68-6.846-1.56-.385-1.847-.376-4.817.157-2.6.467-4.063.56-8.284.523-4.66-.04-5.27.008-6.694.526-2.303.84-3.549 1.652-5.216 3.4-2.475 2.596-3.575 5.19-3.938 9.29-.177 1.994-.536 3.63-1.336 6.085-1.01 3.1-1.086 3.53-.984 5.607.135 2.716.775 4.314 2.443 6.097 1.333 1.425 1.576 2.164 1.979 6.018.633 6.056 1.85 9.483 4.482 12.623 3.26 3.89 4.004 5.533 4.004 8.85v1.548l-3.373.096c-3.257.093-3.432.128-5.058 1.006-3.07 1.658-5.714 4.62-6.792 7.61-1.276 3.536-3.262 6.904-3.856 6.537-.137-.085-.231-.056-.21.064.092.535-.055.714-.29.35-.143-.221-.258-.261-.26-.09-.003.174-.26.257-.6.191l-.595-.114.595.312c.594.311.807.76.36.76-.13 0-1.19-1.044-2.355-2.32M44.79 73.664l-1.63-.76.136-2.061c.252-3.844-.824-6.819-3.615-9.998-3.099-3.53-3.96-5.682-4.766-11.913-.653-5.052-.988-6.056-2.625-7.87-.688-.76-1.408-1.776-1.6-2.255-.583-1.445-.22-4.765.875-8.016.66-1.96 1.024-3.64 1.208-5.587.49-5.172 2.528-8.468 6.302-10.196 1.99-.911 3.929-1.113 7.618-.793 2.729.236 3.563.208 5.821-.195 4.906-.875 5.674-.856 7.859.194 2.308 1.11 5.308 3.129 6.988 4.704 2.51 2.352 4.039 5.594 4.986 10.574.616 3.24.702 3.427 2.382 5.147 2.02 2.069 2.772 3.707 2.776 6.042.003 2.41-.698 3.793-2.67 5.264-.523.39-1.907 2.057-3.075 3.704-2.376 3.349-2.883 3.879-4.528 4.728-.632.326-1.21.783-1.286 1.016-1.28 3.947-5.676 7.81-11.193 9.834-2.297.842-6.855.917-8.803.144-.694-.276-1.32-.444-1.39-.374s-.008.759.138 1.53c.146.77.266 1.832.267 2.358.002 1.509.471 2.82 1.136 3.176.54.289.786.205 2.21-.746.882-.588 3.12-1.67 4.972-2.405s4.103-1.704 5-2.156c4.847-2.444 8.735-6.197 9.479-9.148.156-.62.37-1.127.475-1.127.301 0 .804 1.94.804 3.103 0 .98-.162 1.213-2.183 3.15-3.452 3.307-6.077 4.895-12.018 7.27-3.063 1.224-7.506 3.66-7.716 4.229-.134.366-.56.262-2.334-.567m9.037-10.35c5.594-1.61 9.713-5.632 11.268-11.002.18-.623.488-1.125.69-1.125 1.533 0 4.431-2.67 5.703-5.253 1.13-2.294 1.33-5.51.482-7.711-.967-2.51-2.031-3.322-3.826-2.917-1.53.345-2.177.927-3.088 2.778-.468.95-.938 1.726-1.045 1.726-.108 0-.255-2.053-.328-4.564-.152-5.21-.422-6.72-1.665-9.34-.884-1.865-3.081-4.416-5.178-6.013l-.957-.728-2.121 1.193c-2.88 1.619-6.331 2.91-9.195 3.44-1.31.242-2.644.492-2.965.555-.682.135-2.712 2.863-3.502 4.706-.728 1.698-1.279 3.917-1.49 6.006l-.176 1.736 2.347-.017c2.12-.015 2.482.059 3.754.763 1.519.842 2.135 1.604 1.672 2.068-.193.192-.703.087-1.678-.347-1.164-.517-1.89-.63-4.281-.665-3.44-.05-3.423-.035-3.396-3.137.02-2.34.899-5.84 2.02-8.04.626-1.23 3.057-4.214 3.778-4.636.291-.172.305-.304.063-.596-.448-.54-.574-.491-1.772.683-.819.803-1.292 1.06-1.96 1.062-.485.002-1.017.092-1.184.199s-.392 1.028-.5 2.046c-.109 1.019-.657 3.38-1.219 5.249-1.544 5.137-1.465 5.765 1.294 10.327.759 1.254.921 1.883 1.387 5.372.859 6.44 1.594 8.74 3.704 11.59q3.267 4.411 7.687 5.121c1.809.291 3.314.15 5.677-.53m-9.71-8.048c-1.349-.415-1.752-.792-1.316-1.228.194-.194.74-.165 1.816.098 1.109.272 2.052.318 3.383.164 2.115-.244 2.74-.125 2.277.433-.751.905-4.029 1.189-6.16.533m.525-2.422c-.89-.552-1.381-1.677-1.153-2.644.096-.403.708-2.429 1.361-4.503.871-2.767 1.3-3.77 1.607-3.77.496 0 .377 1.428-.458 5.52-.822 4.02-.76 4.196 1.56 4.438.9.095 1.638.26 1.638.37 0 .327-2.066 1.05-2.982 1.042-.47-.004-1.178-.207-1.573-.453m6.143-12.09c0-.413.344-.55 2.05-.815.942-.147 1.1-.11.972.226-.308.802-3.022 1.331-3.022.59m-13.318-.062c-.097-.097-.176-.351-.176-.566 0-.313.266-.358 1.359-.228 1.494.177 1.688.27 1.43.689-.19.306-2.326.393-2.613.105M47.86 39.52c-.268-.5-.24-.653.179-.974 1.638-1.258 5.198-2.07 8.04-1.83 2.505.21 6.083 1.743 6.083 2.607 0 .366-1.328.248-3.44-.305-3.549-.93-7.896-.615-9.969.722-.522.337-.606.316-.893-.22" style="fill:#000"/></svg>