<?xml version="1.0" encoding="UTF-8"?>
<svg xmlns="http://www.w3.org/2000/svg" viewBox="0 0 473 472">
  <g>
    <path d="m224.52,1c8.65,0,17.3,0,25.95,0,1.29.24,2.57.58,3.88.69,24.12,2.13,48.35,3.43,72.35,6.54,31.47,4.08,62.17,11.76,91.3,24.81,14.01,6.27,27.13,13.98,38.22,24.8,9.07,8.85,14.53,19.57,16.79,31.98v6.99c-2.98,18.65-14.01,31.79-28.93,42.27-13.7,9.62-28.73,16.58-44.51,21.88-4.09,1.38-4.84,3.4-4.35,7.23,3,23.38,5.97,46.76,8.7,70.17,5.73,49.31,11.02,98.66,17.07,147.93,2.52,20.52-4.25,36.41-21.17,47.58-9.35,6.17-19.33,11.77-29.7,15.97-31.04,12.59-63.78,17.75-97,20.31-46.21,3.57-91.95.77-137.03-10.28-21.85-5.36-43.05-12.59-61.4-26.19-14.16-10.5-23.1-23.68-20.81-42.43,1.27-10.38,1.94-20.83,3.09-31.23,2.75-24.92,5.55-49.83,8.49-74.72,2.7-22.88,5.64-45.74,8.43-68.61,1.91-15.65,3.57-31.34,5.75-46.96.7-5.04-.08-7.47-5.47-9.32-19.56-6.74-38.16-15.53-53.58-29.79-24.28-22.46-24.29-51.85-.1-74.35,12.21-11.36,26.62-19.19,41.9-25.49C104.13,13.57,148.09,6.61,192.76,3.07c10.58-.84,21.17-1.39,31.76-2.07Zm-123.58,168.31c-.36,1.36-.77,2.44-.91,3.56-1.77,14.16-3.4,28.34-5.33,42.48-.52,3.82.73,5.51,4.26,6.92,40.75,16.26,83.34,22.85,126.9,24.21,26.29.82,52.46-.89,78.46-4.96,24.47-3.83,48.34-9.94,71.43-19.08,4.02-1.59,5.08-3.73,4.49-7.75-1.23-8.37-2.1-16.79-3.18-25.19-.86-6.69-1.81-13.37-2.74-20.21-91.43,21.68-182.3,21.65-273.37.02Zm135.33-55.39c32.62-.4,64.16-1.83,94.98-9.3,10.98-2.66,21.89-6.74,31.91-11.95,9.9-5.15,9.6-13.25-.04-19.09-6.02-3.65-12.73-6.52-19.48-8.56-24.61-7.41-50-10.08-75.58-11.4-40.44-2.09-80.67-.88-120.48,7.24-12.36,2.52-24.67,5.49-35.46,12.41-9.94,6.37-10.11,14.06.18,19.82,7.42,4.16,15.61,7.38,23.83,9.62,33.1,9.03,67.09,10.62,100.14,11.2Z"/>
  </g>
</svg>