<svg xmlns="http://www.w3.org/2000/svg" xml:space="preserve" width="377.332" height="409.802" viewBox="0 0 99.836 108.427"><path d="M57.992 4.469a25 25 0 0 0-1.33.052c-5.356.32-14.378 3.349-23.637 7.935-4.564 2.26-5.2 2.89-7.018 6.965-2.492 5.583-6.584 19.064-9.147 30.133C14.32 60.53 11.92 68.96 8.352 79.452c-2.885 8.48-3.8 11.595-3.44 11.719.884.306 14.285 7.082 18.096 9.151 4.378 2.376 11.773 6.822 18.043 10.848 1.455.934 2.733 1.71 2.839 1.725s-.254-.658-.8-1.495q-2.9-4.449-7.46-10.915c-1.694-2.401-3.38-4.901-3.747-5.556l-.668-1.19.194-7.408c.107-4.075.236-9.343.286-11.708.051-2.365.17-4.3.262-4.3.34 0 2.823 3.256 4.03 5.283 1.043 1.755 5.02 9.559 6.656 13.06.26.558.841 1.3 1.292 1.651 3.185 2.479 12.461 9.11 12.653 9.047.13-.043 2.49-2.458 5.247-5.366l5.01-5.286 5.061-8.28c2.784-4.553 5.1-8.241 5.146-8.195s-.024 3.117-.155 6.824c-.132 3.707-.244 8.56-.25 10.782l-.01 4.042-3.505 5.336c-4.522 6.882-8.61 13.285-8.54 13.372.031.038.938-.415 2.016-1.008 1.077-.592 3.554-1.844 5.504-2.782 5.212-2.506 8.081-4.413 14.05-9.338 3.652-3.013 4.814-3.581 12.568-6.147 3.202-1.059 5.87-1.962 5.928-2.006.163-.122-1.008-4.436-1.892-6.966-.432-1.237-1.951-5.106-3.377-8.599-3.27-8.012-3.707-9.453-5.17-17.065-2.958-15.392-3.628-18.306-6.605-28.708-1.658-5.791-2.579-8.284-4.268-11.556-1.354-2.62-1.858-3.07-4.352-3.892-1.81-.596-2.762-1.14-6.905-3.947-2.843-1.926-7.867-4.447-10.93-5.484-1.409-.477-2.046-.632-3.167-.626m12.93 35.585c.174.01.316.106.509.232.387.254 1.339.438 2.456.475 2.136.071 2.176.12 2.203 2.613.015 1.429-.067 1.79-.437 1.932-.395.152-11.283 1.464-12.18 1.468-.182 0 1.068-1.298 2.779-2.887 3.339-3.102 4.149-3.86 4.67-3.833m-27.654.814 2.596 2.402c1.427 1.32 3.058 2.88 3.624 3.465l1.028 1.063-.194 6.633c-.106 3.648-.132 6.632-.056 6.632s.808-.863 1.627-1.918c2.423-3.126 7.366-8.425 7.727-8.287.34.13 3.906 2.641 5.12 3.605l.67.533 1.844-.568c3.031-.933 5.143-2.02 7.144-3.675l1.893-1.566.182 5.279.181 5.279-2.286 3.213c-1.257 1.767-3.413 5.1-4.791 7.406s-2.552 4.193-2.608 4.193-.243-.268-.414-.596c-.898-1.722-2.748-3.878-3.642-4.244-1.702-.698-4.836-1.045-6.24-.692-.82.207-1.936.245-3.273.112-4.462-.441-5.541-.064-8.416 2.944l-1.887 1.974L42 72.025c-1.046-1.94-4.916-7.896-5.814-8.95-.235-.275-1.028-.769-1.76-1.096-.734-.328-1.484-.776-1.667-.996-.267-.322-.268-1.636-.006-6.639l.327-6.238.677.758c.373.417 1.849 1.683 3.28 2.814l2.601 2.056 2.477-.304c1.361-.167 3.177-.304 4.034-.304.858 0 1.623-.064 1.7-.141.24-.241-.837-4.982-1.181-5.196-.872-.54-10.732-2.598-12.462-2.6-.657 0-.737-.08-.599-.596.088-.328.16-.894.163-1.26.004-.647.08-.673 3.377-1.136 1.855-.26 3.991-.665 4.747-.9zm5.355 33.692c.728.004 3.494 1.268 2.844 1.299-.545.026-2.063 1.693-3.002 3.295-.394.673-.771 1.224-.837 1.224s-.41-.625-.765-1.39c-.356-.763-.649-1.825-.65-2.359-.002-.818.138-1.057.889-1.521.49-.303 1.175-.55 1.521-.548m12.056.047c.82.007 1.568.273 2.122.788.607.565.652.763.542 2.337-.066.946-.346 2.234-.623 2.863l-.502 1.144-1.113-1.697c-.612-.933-1.683-2.304-2.381-3.047l-1.269-1.351 1.24-.58a4.6 4.6 0 0 1 1.984-.457m-6.134.214c.33 0 1 .174 1.49.387.867.376.828.386-1.49.386s-2.358-.01-1.491-.386c.49-.213 1.16-.387 1.49-.387" style="fill:#000" transform="translate(-4.838 -4.468)"/></svg>