<?xml version="1.0" encoding="UTF-8" standalone="no"?>
<!-- Created with Inkscape (http://www.inkscape.org/) -->

<svg
   width="99.835732mm"
   height="108.42682mm"
   viewBox="0 0 99.835732 108.42682"
   version="1.1"
   id="svg1"
   xml:space="preserve"
   xmlns="http://www.w3.org/2000/svg"
   xmlns:svg="http://www.w3.org/2000/svg"><defs
     id="defs1" /><g
     id="layer1"
     transform="translate(-55.106088,-93.753324)"><g
       id="g1"
       transform="translate(50.268512,89.284926)"><path
         id="path6"
         style="fill:#000000"
         d="m 57.991547,4.4685245 c -0.373976,0.00178 -0.801747,0.021133 -1.330152,0.05271 -5.35572,0.3200685 -14.377048,3.3486918 -23.636283,7.9343995 -4.56446,2.26058 -5.199576,2.890694 -7.018176,6.964949 -2.49203,5.582955 -6.584167,19.06398 -9.146729,30.133045 -2.541392,10.977645 -4.94047,19.407867 -8.5085245,29.897917 -2.8847975,8.481275 -3.7989031,11.595061 -3.4401001,11.719181 0.8845075,0.30599 14.2851756,7.082532 18.0965696,9.151384 4.37735,2.37599 11.772687,6.82227 18.042827,10.8474 1.4552,0.93412 2.732616,1.71084 2.838586,1.72547 0.10596,0.0146 -0.253739,-0.65825 -0.799434,-1.495 -1.93441,-2.9661 -4.421002,-6.60364 -7.460527,-10.91458 -1.69323,-2.401462 -3.379086,-4.901812 -3.746541,-5.556247 l -0.668177,-1.190108 0.194304,-7.408334 c 0.1068,-4.07456 0.235517,-9.343117 0.286287,-11.707812 0.0508,-2.3647 0.16884,-4.299479 0.262,-4.299479 0.340235,0 2.822814,3.255124 4.028694,5.282364 1.043995,1.755065 5.021377,9.559137 6.656442,13.060702 0.260095,0.557015 0.841432,1.29962 1.292427,1.650545 3.185345,2.47861 12.461215,9.110913 12.652975,9.046993 0.12987,-0.0433 2.490703,-2.457929 5.246708,-5.365564 l 5.011064,-5.286499 5.060673,-8.279598 c 2.783435,-4.553775 5.099022,-8.241755 5.145422,-8.195365 0.0464,0.0464 -0.02344,3.117359 -0.155029,6.824389 -0.13159,3.707025 -0.243541,8.558936 -0.249081,10.781771 l -0.01033,4.041614 -3.505729,5.336108 c -4.52161,6.88246 -8.609834,13.28467 -8.539014,13.37231 0.0306,0.0378 0.937459,-0.41546 2.014864,-1.00769 1.077405,-0.59223 3.554444,-1.84449 5.504574,-2.78226 5.211495,-2.50609 8.080925,-4.41322 14.050305,-9.338447 3.65139,-3.012685 4.813128,-3.580755 12.567708,-6.146395 3.20145,-1.059205 5.86893,-1.961909 5.92781,-2.006079 0.1632,-0.12241 -1.00823,-4.435853 -1.89188,-6.965983 -0.43194,-1.236925 -1.95155,-5.106478 -3.377055,-8.598958 -3.270545,-8.01286 -3.707407,-9.453755 -5.170227,-17.065625 -2.957825,-15.391315 -3.62808,-18.306252 -6.604765,-28.707292 -1.65759,-5.79193 -2.578563,-8.28442 -4.268473,-11.5564 -1.353065,-2.61979 -1.857213,-3.070964 -4.351673,-3.892269 -1.81037,-0.59607 -2.761545,-1.139671 -6.905005,-3.947046 C 69.246322,8.6527948 64.221907,6.1319446 61.159312,5.0953596 59.750232,4.6184371 59.113466,4.4631916 57.991547,4.4685245 Z M 70.92254,40.054466 c 0.173854,0.0093 0.315774,0.10575 0.508496,0.232027 0.3873,0.25377 1.338882,0.437697 2.456181,0.474907 2.135988,0.0711 2.17607,0.118776 2.20245,2.612243 0.0151,1.429319 -0.06643,1.790639 -0.436666,1.932699 -0.39525,0.15167 -11.282869,1.463561 -12.179618,1.467611 -0.18241,8.2e-4 1.067746,-1.298334 2.778125,-2.887163 3.339139,-3.101854 4.149472,-3.86014 4.671032,-3.832324 z m -27.654126,0.813387 2.595191,2.401921 c 1.427366,1.321026 3.058398,2.880076 3.624068,3.464904 l 1.028361,1.063501 -0.193787,6.632671 c -0.10665,3.647812 -0.13198,6.632153 -0.05581,6.632153 0.0762,0 0.808059,-0.863201 1.626257,-1.918229 2.423776,-3.125304 7.366254,-8.425016 7.727694,-8.286316 0.339938,0.13045 3.905236,2.64102 5.119584,3.604948 l 0.670243,0.532267 1.843299,-0.567407 c 3.031654,-0.933478 5.143907,-2.020152 7.144783,-3.675228 l 1.892908,-1.565796 0.181384,5.278748 0.181901,5.278747 -2.286165,3.213241 c -1.257168,1.767276 -3.413301,5.099673 -4.791439,7.405749 -1.378148,2.306076 -2.55168,4.193026 -2.60811,4.193026 -0.0564,0 -0.242501,-0.267893 -0.413411,-0.595313 h 5.17e-4 c -0.899218,-1.722646 -2.749364,-3.878542 -3.642672,-4.244702 -1.702016,-0.697658 -4.836508,-1.04494 -6.240446,-0.69143 -0.819208,0.206278 -1.935799,0.244537 -3.273185,0.112137 -4.461622,-0.441688 -5.540573,-0.06432 -8.415507,2.94349 l -1.887223,1.974556 -1.095541,-2.030367 c -1.046518,-1.940176 -4.916374,-7.896533 -5.814632,-8.949841 -0.23509,-0.27567 -1.027188,-0.769134 -1.760616,-1.096574 -0.733418,-0.327438 -1.483118,-0.775385 -1.666048,-0.995805 -0.26677,-0.321428 -0.268071,-1.635811 -0.0062,-6.638871 l 0.327111,-6.237862 0.677478,0.757577 c 0.37268,0.416858 1.848479,1.6834 3.279387,2.814298 l 2.601391,2.056205 2.476335,-0.304374 c 1.361868,-0.16736 3.177518,-0.304374 4.034896,-0.304374 0.857368,0 1.622378,-0.06329 1.699638,-0.14056 0.2409,-0.2409 -0.837075,-4.981829 -1.181323,-5.195549 -0.87142,-0.540998 -10.731406,-2.598428 -12.461772,-2.600358 -0.657298,-7.3e-4 -0.73719,-0.08049 -0.59893,-0.596346 0.0877,-0.327418 0.160791,-0.893978 0.162781,-1.258838 0.004,-0.648318 0.08021,-0.674026 3.377055,-1.136364 1.855386,-0.2602 3.991557,-0.665667 4.746997,-0.901237 z m 5.354712,33.692517 c 0.727856,0.004 3.494234,1.267229 2.843754,1.298629 -0.544446,0.0263 -2.063308,1.693327 -3.001884,3.294889 -0.394386,0.67298 -0.771011,1.223698 -0.836641,1.223698 -0.0656,0 -0.410155,-0.625076 -0.765845,-1.389062 -0.35569,-0.76398 -0.648143,-1.82571 -0.649573,-2.359546 -0.002,-0.817906 0.137899,-1.057258 0.888835,-1.521354 0.49011,-0.30291 1.174728,-0.549124 1.521354,-0.547254 z m 12.055595,0.04651 c 0.820008,0.0076 1.56871,0.273491 2.121834,0.788066 0.60705,0.564735 0.652943,0.762683 0.542603,2.336808 -0.0663,0.945885 -0.346311,2.234416 -0.622701,2.863391 l -0.502812,1.143599 -1.112593,-1.696537 c -0.612,-0.932975 -1.683525,-2.304184 -2.38125,-3.047359 l -1.268657,-1.351339 1.239718,-0.580326 c 0.665402,-0.311662 1.346075,-0.462178 1.983858,-0.456303 z m -6.133992,0.214457 c 0.330387,0 1.001215,0.17395 1.490865,0.38654 0.866697,0.37628 0.827326,0.38654 -1.490865,0.38654 -2.318194,0 -2.357563,-0.01023 -1.490866,-0.38654 0.48965,-0.21259 1.160486,-0.38654 1.490866,-0.38654 z" /></g></g></svg>
