<svg xmlns="http://www.w3.org/2000/svg" xml:space="preserve" width="237.898" height="434.708" viewBox="0 0 62.944 115.016"><path d="M37.058.003c-.177-.034-.28.207-.38.708-.369 1.848-4.366 5.945-7.014 7.19-2.895 1.36-5.099 1.278-7.45-.278l-1.12-.742-.962.55c-1.97 1.128-8.68 5.588-10.998 7.31-4.965 3.69-8.115 6.907-8.632 8.816-.233.86-.162 1.232.557 2.91 2.293 5.358 3.635 9.65 5.67 18.13l.46 1.919 1.228.046 1.228.046-1.178.103c-.8.071-1.059.178-.807.333.224.139-.064.17-.732.08-.606-.08-1.65-.01-2.32.16-5.19 1.307-6.113 7.053-2.173 13.527 1.92 3.155 5.418 6.282 8.004 7.156.582.197 1.085.37 1.118.383s.369 1.089.745 2.388c.377 1.3.993 2.768 1.37 3.262.593.776.84 1.799 1.83 7.543.628 3.654 1.201 6.969 1.273 7.366.115.635-.085.895-1.655 2.148-3.341 2.666-4.163 4.119-3.528 6.238.754 2.517 5.867 8.282 10.07 11.354 4.624 3.379 10.083 5.608 15.235 6.22 6.03.716 10.992-1.208 13.044-5.06 1.542-2.891 1.736-4.236 1.535-10.641-.098-3.13-.28-6.88-.407-8.335l-.228-2.646 1.197-1.189c2.162-2.144 4.1-5.413 5.467-9.222.82-2.283 1.706-6.568 2.69-13.004.573-3.751.91-5.131 1.768-7.264 1.05-2.61 1.059-2.658.916-5.292-.087-1.613-.36-3.318-.693-4.335-.645-1.966-.694-3.417-.176-5.22.674-2.349.748-3.417.308-4.47-.226-.542-.595-2.61-.82-4.598-.632-5.608-.901-7.712-1.214-9.484-.267-1.511-.247-1.68.262-2.227.855-.918 1.444-2.716 1.243-3.79-.226-1.203-1.263-2.421-2.416-2.838-.502-.182-.913-.438-.913-.57s.342-.673.759-1.204c2.01-2.553 2.442-4.998 1.246-7.039-1.279-2.182-4.808-3.271-9.596-2.962-2.828.183-4.912.817-7.928 2.413l-2.158 1.142L40.2 5.41C39.607 3.76 39.07 2.726 37.882.94c-.397-.596-.647-.904-.824-.938m13.01 5.257c.276.025.455.091.455.207 0 .16-.268.347-.596.413s-1.187.188-1.911.272c-1.232.143-1.288.124-.873-.29.393-.394 2.098-.68 2.925-.602m5.062.279c.11-.042.363-.005.832.083 2.153.404 3.338 1.977 2.775 3.683-.457 1.384-1.682 2.929-3.383 4.264-2.21 1.736-2.704 1.608-1.426-.37.556-.861 1.164-2.109 1.35-2.773.336-1.201.267-3.54-.133-4.496-.096-.228-.126-.35-.015-.391m-35.204 5.335c.297-.067.405.054.588.304.644.88.426 1.31-1.014 2-2.577 1.234-6.695 4.177-8.455 6.043-1.747 1.851-2.855 3.977-2.855 5.476 0 .359-.09.638-.199.621-.273-.042-3.24-3.137-3.24-3.38 0-.109.876-1.082 1.948-2.163 2.76-2.785 6.412-5.349 11.5-8.073.942-.504 1.43-.76 1.727-.828m13.476 4.477c5.992-.107 12.46.428 17.33 1.553 3.57.825 5.072 1.841 6.298 4.26 1.258 2.483 2.335 7.894 2.671 13.424.16 2.646.147 2.747-.338 2.528-.278-.126-2.976-.275-5.995-.333-4.95-.093-5.49-.061-5.49.33 0 .668.712 1.892 1.43 2.457l.649.51-.648 2.225c-.743 2.556-1.098 5.004-.724 5.004.42 0 1.6-1.397 2.012-2.381.655-1.566 1.592-2.226 3.177-2.239l1.38-.01-.09 1.245c-.073 1.025.02 1.357.53 1.866.5.5.833.599 1.73.513 1.087-.104 1.116-.131 1.285-1.257.376-2.508-1.471-4.181-5.076-4.6-1.524-.177-1.12-.217 2.489-.246 3.559-.029 4.333.032 4.456.352.081.213-.041 1.143-.273 2.068-.583 2.324-.532 3.45.276 6.031.486 1.556.7 2.834.709 4.23.01 1.814-.09 2.209-1.083 4.259-1.123 2.32-2.198 3.46-3.595 3.81-.694.174-.698.187-.698 2.767 0 1.425.182 4.226.403 6.223l.403 3.633L55.931 76c-.379 1.335-1.185 3.43-1.791 4.655-1.283 2.59-2.392 3.536-4.645 3.957-.784.147-3.82.26-6.747.251-6.891-.02-8.805-.477-11.527-2.752-1.519-1.269-3.071-3.254-3.768-4.818-.682-1.533-.716-3.562-.104-6.388.5-2.304.53-4.478.11-7.894-.287-2.334-.36-2.54-.989-2.78-3.972-1.51-9.505-5.707-11.694-8.87-.917-1.324-.952-2.206-.38-9.443l.373-4.727 1.188-1.787a42 42 0 0 0 2.109-3.616c1.783-3.54 3.349-9.92 3.352-13.65 0-.837.05-1.522.11-1.522s.982-.167 2.05-.371c2.805-.536 6.23-.831 9.824-.895m25.194 2.918q.095-.008.224.12c.094.093.17.499.17.902 0 1.1-.456 1.167-.582.086-.08-.685-.002-1.092.188-1.108M38.739 36.52c-1.548.013-3.552.054-5.637.123-8.46.278-8.165.211-10.493 2.348l-1.322 1.214 5.688-.17c5.518-.165 7.377-.038 6.198.424-.28.11-1.169.207-1.975.218-2.15.027-4.433.702-6 1.773-1.18.807-1.935 1.773-1.62 2.076.05.048.962-.328 2.028-.835 1.469-.7 2.414-.959 3.903-1.071l1.964-.149v.708c0 1.726 1.072 3.072 2.446 3.072.345 0 .86.175 1.142.389s.6.392.708.397.12-.885.027-1.976c-.092-1.092-.083-1.985.02-1.985.461 0 2.644 2.093 3.247 3.113.654 1.106.664 1.211.554 5.424-.119 4.576-.523 6.324-1.852 8.014-.364.462-.608 1.23-.685 2.152-.117 1.41-.1 1.45 1.079 2.579 1.17 1.12 1.565 1.298 5.696 2.545.626.19 1.202.447 1.28.573.326.528 3.401-1.068 3.666-1.904.091-.286.658-.852 1.26-1.256 1.638-1.1 2.184-2.215 2.172-4.439-.012-2.194-.484-3.405-2.973-7.623-.928-1.574-1.84-3.227-2.028-3.672-.515-1.225-.664-.537-.24 1.109.376 1.466 1.06 2.969 3.004 6.61.853 1.598 1.056 2.252 1.056 3.391 0 .776-.126 1.647-.28 1.935s-1.174.948-2.265 1.466l-1.985.942-1.542-.822c-1.887-1.006-3.042-1.05-4.247-.16-1.092.805-1.223.813-1.608.093-.227-.424-.228-.82-.006-1.562.28-.932.424-1.038 2.345-1.724 2.216-.79 3.238-1.512 3.238-2.286 0-.27-.289-1.062-.642-1.759-.897-1.77-1.316-3.554-2.39-10.174l-.936-5.771.767-.976c.421-.537.844-1.238.939-1.558.15-.505.047-.604-.792-.762-.265-.05-1.36-.066-2.909-.054m-14.79 9.193c-.616-.05.36.599 2.837 1.861 2.427 1.237 2.822 1.36 3.885 1.215.65-.089 1.82-.547 2.6-1.019l1.416-.857-4.002-.21c-2.632-.138-4.545-.379-5.589-.704q-.841-.261-1.148-.286m27.236.832c-.84.017-1.188.117-1.127.302.127.39 1.155.93 2.958 1.551 1.435.495 1.611.458 3.312-.691l1.174-.794-2.233-.172c-1.91-.147-3.243-.213-4.084-.196M5.713 49.209c1.583.103 3.188 1.065 4.266 2.656 1.39 2.048 3.767 9.13 3.767 11.22 0 1.64-.422 2.933-1.069 3.28-.639.341-.736.33-1.974-.24-2.88-1.327-5.785-4.195-7.13-7.039C2.7 57.245 1.955 54.43 2.18 53.84c.22-.573 1.265-.975 2.52-.97 1.643.007 1.78.243 1.138 1.96-.61 1.632-.708 2.822-.293 3.596.618 1.156 4.92 3.965 6.073 3.965.75 0 .68-.336-.386-1.888-.87-1.265-.927-1.476-.933-3.5-.008-3.102-1.135-5.172-3.252-5.972-1.74-.657-4.163.16-4.824 1.628l-.391.868L2 52.204c.194-1.53.837-2.365 2.158-2.801a4.1 4.1 0 0 1 1.555-.194m38.783 22.148c-2.093 0-4.274.187-5.83.56-2.5.6-3.315.96-3.068 1.36.099.16.522.205 1 .109 1.664-.338 11.915-.474 13.493-.18 2.768.517 2.56-.41-.29-1.29-1.207-.373-3.212-.56-5.305-.56m.452 3.206c-1.754-.005-4.971 1.228-5 1.916-.004.11.795.208 1.777.219.983.01 2.203.18 2.712.376 1.24.478 1.235.478 2.104-.163.54-.4 1.029-.53 1.696-.452.795.093.889.051.62-.275-.525-.634-2.898-1.618-3.909-1.62m-26.337 8.322c.064.017.16.121.29.29.292.383.446.431.607.188.166-.25.425-.214 1.12.159.653.35 1.191 1.027 1.941 2.442 2.276 4.293 5.005 7.275 10.273 11.228 5.855 4.391 9.319 5.154 12.604 2.775 1.44-1.043 1.849-1.72 2.175-3.598.345-1.986.67-2.758 1.164-2.758.605 0 .77 1.49.792 7.144l.02 5.159-.816 1.722c-1.317 2.779-3.159 4.185-6.251 4.771-4.992.947-11.269-.918-16.614-4.935-3.405-2.56-10.847-10.184-10.847-11.114 0-.191.362-.76.804-1.264l.805-.916 2.905 1.872c1.598 1.03 2.97 1.807 3.05 1.727s-.145-.722-.498-1.428c-1.077-2.151-2.514-6.91-3.212-10.638-.402-2.142-.504-2.877-.312-2.826"/></svg>