<?xml version="1.0" encoding="UTF-8" standalone="no"?>
<svg
   ffdec:objectType="shape"
   height="100.07407"
   width="105.412"
   version="1.1"
   id="svg10"
   xmlns="http://www.w3.org/2000/svg"
   xmlns:svg="http://www.w3.org/2000/svg"
   xmlns:ffdec="https://www.free-decompiler.com/flash">
  <defs
     id="defs10" />
  <g
     transform="translate(47.700001,37.2)"
     id="g10">
    <path
       id="path1"
       style="display:inline"
       d="m -17.899219,-26.450781 c -3.966662,1.933331 -7.484117,6.150397 -10.550781,12.65039 l -0.349609,0.400391 0.949218,1.199219 c 0.3,0.299999 0.666277,0.299999 1.09961,0 0.133333,0.299999 0.01706,0.55 -0.34961,0.75 l -1.15039,0.300781 0.201172,1.25 c 0.03333,0.6333327 -0.06745,1.1507817 -0.300782,1.5507813 -0.233333,0.4333329 -0.516276,0.6484375 -0.849609,0.6484375 -0.3,-1e-7 -0.567448,-0.2151046 -0.800781,-0.6484375 -0.233333,-0.3999997 -0.34961,-0.9174486 -0.34961,-1.5507813 0,-1.066666 0.267449,-1.766276 0.800782,-2.099609 l -0.5,-1.050782 C -30.216276,-13.383724 -30.683334,-13.5 -31.45,-13.4 v 0.699219 c 0,0.133333 -0.100781,0.284505 -0.300781,0.451172 -0.166667,0.199999 -0.315886,0.25039 -0.449219,0.15039 L -33.250781,-13.15 c -0.566666,1.933331 -0.915495,3.6329442 -1.048828,5.0996094 -0.333333,4.2999957 0.482554,8.36784235 2.449218,12.2011719 2.099998,4.0333293 5.016671,6.8162777 8.75,8.3496097 H -22.95 l 0.199219,0.09961 1.300781,0.400391 5.800781,0.65039 2.59961,-0.25 -0.701172,0.548828 -3.75,0.451172 -4.84961,-0.701172 1.201172,3.400391 c 0.6,1.233332 1.29961,2.117058 2.09961,2.650391 0.166666,0.133333 0.265494,0.383333 0.298828,0.75 v 0.75 h -0.04883 l -0.75,-0.59961 -1.09961,-1.351562 -0.25,-0.398438 -0.65039,-1.351562 -1.050782,-3 -0.15039,-0.548828 h -0.148438 l -2.601562,-0.25 c -0.933333,0.03333 -1.766668,0.232943 -2.5,0.599609 l 0.40039,0.25 -0.75,0.349609 h 0.05078 l 0.199218,0.150391 0.800782,0.650391 -0.09961,-0.05078 L -26.95,16.1 l 0.449219,0.449219 h -0.148438 l -0.25,-0.199219 c -1.399998,-1.033332 -3.018231,-1.783334 -4.851562,-2.25 l -0.04883,0.300781 -0.05078,0.148438 v 0.15039 l -0.04883,0.09961 v 0.101562 l -0.15039,0.75 -0.05078,0.398438 L -32.149219,16.6 -32.2,17.449609 V 17.85 c 0,2.299998 0.44961,4.332944 1.349609,6.099609 l 0.150391,0.25 c 0.06667,0.133334 0.01628,0.284506 -0.150391,0.451172 l -0.04883,0.04883 L -31.45,24.85 c -1.566665,-0.999999 -2.79922,-2.532945 -3.699219,-4.599609 -0.699999,-1.566665 -1.167057,-3.384508 -1.40039,-5.451172 l -0.09961,-0.59961 -0.201172,0.05078 -0.09961,0.548828 c -0.866666,3.766663 -0.533332,6.784117 1,9.050781 0.1,0.133333 0.01667,0.317448 -0.25,0.550781 l -0.449219,0.148438 c -2.099998,-2.633331 -3.600001,-5.681775 -4.5,-9.148438 -0.366666,0.133333 -0.851172,0.383334 -1.451172,0.75 l -0.949218,0.648438 c -2.099998,1.466665 -3.483725,3.367841 -4.150391,5.701172 2.499997,5.533327 6.083338,10.632166 10.75,15.298828 l 1.900391,1.851562 0.09961,-0.40039 c -1.166666,-1.466666 -2.250001,-3.234117 -3.25,-5.300782 l -1,-2.048828 -0.599609,-2.15039 c -0.06667,-0.433333 0.01667,-0.501172 0.25,-0.201172 0.233333,0.333333 0.349609,0.618229 0.349609,0.851562 l 0.550781,1.34961 0.75,1.5 c 0.766666,1.599998 1.648439,3.04961 2.648438,4.349609 1.133332,1.533332 2.451173,2.765886 3.951172,3.699219 l 0.449218,0.25 0.5,0.201172 c 0.4,0.166666 0.65,0.30039 0.75,0.40039 l -0.25,-1.5 c -0.06667,-0.466666 0.0012,-0.633333 0.201172,-0.5 l 0.34961,0.798828 0.09961,0.550782 c 0.366666,0.766666 0.500391,1.332552 0.400391,1.699218 l 0.349609,1.59961 3.150391,1.951172 c 2.433331,1.366665 4.966278,2.515886 7.599609,3.449218 0.466666,-0.266666 1.017058,-0.415885 1.650391,-0.449218 2.63333,-0.1 4.482162,0.415496 5.548828,1.548828 l 0.05078,-0.04883 6.4492187,-0.25 c 2.2333311,-0.533333 4.18489755,-1.434507 5.8515625,-2.701172 -0.066666,-0.799999 -0.018229,-1.550001 0.1484375,-2.25 l 1.1503907,-4.75 C 3.1829427,41.065886 3.2992189,41.166667 3.4992187,41.6 5.3658835,40.766668 6.7496103,39.249217 7.6496094,37.049219 L 6.6007812,35.400781 6.4992187,34.500391 c 0.033333,-0.4 0.1341148,-0.4 0.3007813,0 C 6.9999998,35.00039 7.3837245,35.533334 7.9503906,36.1 l 1.5,1.349609 0.4003906,0.34961 C 10.184114,35.665888 11.416669,33.400388 13.55,31.000391 14.983332,29.367059 16.450392,28.099608 17.950391,27.199609 19.883722,26.066277 21.750002,25.667058 23.55,26.000391 L 22.8,24.699609 C 22.133334,23.532944 21.15078,22.482551 19.850781,21.549219 18.350783,20.44922 16.999999,19.984115 15.8,20.150781 c -0.2,0 -0.366667,-0.25 -0.5,-0.75 C 15.2,18.900782 15.21745,18.633333 15.35078,18.6 l 1.84961,0.199219 C 16.733724,16.932554 15.683332,15.283332 14.05,13.85 12.883335,12.816668 11.499608,12.099609 9.8996094,11.699609 c -0.5666661,1.433332 -1.3166676,2.584506 -2.25,3.451172 l -0.25,0.199219 c -0.1999998,0.03333 -0.2833333,-0.01706 -0.25,-0.150391 0.2666664,-1.133332 0.3674478,-2.44922 0.3007812,-3.949218 L 5.2492187,11.199609 C 4.1825531,14.699606 2.5003883,17.850784 0.20039062,20.650781 L -0.2,20.900781 c -0.1666665,0.06667 -0.21705723,-0.0012 -0.15039063,-0.201172 0.4333329,-1.533331 0.73372413,-3.033334 0.90039063,-4.5 l 0.30078125,-4.40039 -1.6015625,0.40039 -0.64843755,3.300782 -0.2011718,0.75 1.55078123,-0.201172 c 0.0999999,0 0.15039062,0.0349 0.15039062,0.101562 l -0.25,0.398438 -0.3515625,0.25 -1.34960935,0.101562 c -0.9333324,2.633331 -2.4837262,4.999612 -4.6503907,7.09961 -2.1666645,2.099998 -4.5484397,3.600001 -7.1484377,4.5 L -13.850391,28.35 l 0.201172,-0.349609 c 2.833331,-2.733331 5.0484394,-6.084119 6.6484377,-10.050782 -3.3333297,0.966666 -6.4321647,2.433726 -9.2988277,4.400391 L -16.7,22.40078 l 0.300781,-0.5 0.798828,-0.550781 c 2.766664,-1.799998 5.7162795,-3.150782 8.8496097,-4.050781 1.666665,-4.366663 2.4011717,-8.950005 2.2011719,-13.7500002 C -6.1829411,8.1158809 -8.4000028,11.032553 -11.2,12.299219 l -0.199219,-0.298828 0.04883,-0.300782 c 2.8333309,-1.299998 5.0833354,-4.3658899 6.7500004,-9.1992184 -0.2333331,-3.09999688 -0.8321625,-5.9662786 -1.7988282,-8.5996093 l -3.6015622,-7.7011723 c -1.466665,-3.066663 -2.315495,-5.766278 -2.548828,-8.099609 l -0.09961,-1.849609 c -1.199999,2.166664 -2.950002,4.050392 -5.25,5.65039 -2.099998,1.499999 -4.450784,2.598829 -7.050781,3.298828 -0.2,0.03333 -0.265885,-0.03255 -0.199219,-0.199218 L -24.799609,-15.9 c 1.733331,-4.366662 4.033726,-7.884117 6.90039,-10.550781 z M -30.7,-18.65 l -0.25,1.050781 c -0.3,1.466665 -0.466667,2.749611 -0.5,3.84961 l 1.449219,-0.5 0.25,0.09961 c -0.766666,-1.299999 -1.082552,-2.800002 -0.949219,-4.5 z m 15.300781,3.199219 c 0.633333,-0.1 1.499611,0.217839 2.59961,0.951172 l -1.09961,-0.05078 c -0.733332,0.03333 -1.200391,0.217449 -1.40039,0.550782 l -0.550782,1.449218 h 0.201172 c 0.333333,0 0.616277,0.217058 0.84961,0.650391 0.233333,0.4 0.349609,0.900001 0.349609,1.5 0,0.6333327 -0.116276,1.1507817 -0.349609,1.5507813 -0.233333,0.4333329 -0.516277,0.6484375 -0.84961,0.6484375 -0.333333,0 -0.600781,-0.2151046 -0.800781,-0.6484375 -0.233333,-0.3999997 -0.349609,-0.9174486 -0.349609,-1.5507813 l 0.15039,-1.150391 -1.701172,-0.15039 c -0.699999,-0.2 -0.982942,-0.548829 -0.849609,-1.048828 l 0.5,0.199218 c 0.366666,0.06667 0.64961,-0.01667 0.849609,-0.25 l 1.050782,-1.5 c 0.566666,-0.699999 1.033724,-1.083724 1.40039,-1.15039 z m -7.101562,2.65039 0.201172,0.201172 c 0.166666,0.133333 0.217057,0.332943 0.15039,0.59961 l -0.25,1.15039 -0.701172,2.2988284 -1.048828,2.75 -0.05078,0.25 0.199219,0.5 1.40039,1.4511719 c 0.133334,0.1666665 0.166276,0.3333335 0.09961,0.5 0.166666,0.2666663 0.08333,0.4488282 -0.25,0.5488281 -0.2,0.1666665 -0.432553,0.2674479 -0.699219,0.3007812 -0.366666,0.033333 -0.667058,-0.067448 -0.900391,-0.3007812 l -1.65039,-2 C -26.200781,-4.7503904 -26.266667,-5.0333337 -26.2,-5.4 l 0.09961,-0.4492187 c 1.066666,-1.6999983 1.766277,-2.9170581 2.09961,-3.6503907 l 0.701172,-1.7499996 0.298828,-0.951172 c 0.1,-0.4 0.266667,-0.59961 0.5,-0.59961 z M -27.95,3.90625e-4 -26.850391,0.40078125 -25.250781,1.0003906 -21.7,1.35 -18.500781,0.65078125 c 1.399998,-0.2999997 2.467839,-0.28450488 3.201172,0.0488281 v 0.0507813 h 0.04883 V 0.85 L -14.7,2.6 c 0.2,0.6999993 0.265885,1.3007817 0.199219,1.8007813 -0.233333,1.899998 -0.582162,3.1151047 -1.048828,3.6484375 -0.8,0.9333323 -1.850392,1.3170571 -3.150391,1.1503906 -0.966666,-0.1 -2.082944,-0.5166674 -3.349609,-1.25 -2.033332,-1.0999989 -4.200003,-1.915886 -6.5,-2.4492188 C -28.982942,3.9670588 -29.217448,2.8333326 -29.250781,2.1 L -29.2,1.6 -28.750781,0.85 Z M -12.299609,14.000391 c 0.133333,-0.03333 0.166276,0.03255 0.09961,0.199218 l -1.699219,3.201172 c -0.733332,1.266666 -1.51823,2.231772 -2.351562,2.898438 -0.7,0.533333 -1.39961,0.884115 -2.09961,1.050781 l -0.09961,-0.09961 0.25,-0.34961 0.300781,-0.25 c 1.033333,-0.266666 2.048829,-1.117449 3.048828,-2.550781 0.5,-0.766666 1.151173,-1.983726 1.951172,-3.650391 0.06667,-0.166666 0.266277,-0.315885 0.59961,-0.449217 z m 48,0 -1.451172,0.04883 c -0.533333,0.166666 -0.998438,0.368229 -1.398438,0.601562 -0.466666,0.4 -0.683724,0.733334 -0.65039,1 0,0.2 0.25,0.498438 0.75,0.898438 0.466666,0.299999 0.832943,0.716667 1.099609,1.25 0.333333,0.766666 0.333333,1.784116 0,3.050781 l -1.050781,3 c -0.6,1.666665 -0.716276,2.934115 -0.34961,3.800781 0.266667,0.933333 0.817058,1.632943 1.650391,2.09961 0.766666,0.533332 1.582553,0.783333 2.449219,0.75 L 37.100781,30.6 37.05,15.500391 c -0.266666,-0.8 -0.716277,-1.300001 -1.349609,-1.5 z m -66.701172,3.199218 0.15039,0.05078 0.25,0.04883 1,0.25 0.5,0.101562 0.201172,0.04883 h 0.04883 l 0.400391,0.09961 0.849609,0.25 2.300782,0.75 V 18.85 L -24.7,19.049219 c 1.433332,0.566666 2.867449,1.217839 4.300781,1.951172 0.166667,0.1 0.131771,0.266667 -0.101562,0.5 -0.2,0.233333 -0.366667,0.316666 -0.5,0.25 -1.399999,-0.733333 -2.832163,-1.384506 -4.298828,-1.951172 -1.799999,-0.7 -3.650784,-1.265886 -5.550782,-1.699219 l -0.75,-0.150391 -0.04883,-0.09961 0.04883,-0.150391 0.09961,-0.15039 0.05078,-0.09961 0.09961,-0.09961 z M 44.3,18.799219 c -0.933332,0.166666 -1.716277,0.567839 -2.349609,1.201172 l -0.59961,0.949218 c -0.333333,0.433333 -0.434114,0.751172 -0.300781,0.951172 0.06667,0.166667 0.334115,0.282943 0.800781,0.34961 h 0.84961 l 2.199218,0.15039 c 0.1,-0.1 0.29961,0.04922 0.59961,0.449219 l 0.25,0.699219 -0.04883,0.05078 -3.951172,0.900391 c -0.899999,0.199999 -1.566667,0.64961 -2,1.349609 -0.5,0.799999 -0.232551,1.365886 0.800781,1.699219 1.166666,0.433333 2.850783,0.167837 5.050781,-0.798828 C 46.434114,26.417058 47.083334,26.033333 47.55,25.6 c 0.799999,-0.866666 1.032552,-1.316276 0.699219,-1.349609 l -0.5,-0.34961 -0.398438,-0.75 c -0.03333,-0.133333 -0.01784,-0.201172 0.04883,-0.201172 L 48.600781,21.650781 49.3,20.699609 C 49.433333,20.39961 49.35,20.083724 49.05,19.750391 48.75,19.250391 48.05039,18.95 46.950391,18.85 Z M 9.8742187,23.588281 c 0.033333,0.025 0.026563,0.09427 -0.023437,0.210938 L 7.4503906,29.650781 C 6.2170585,31.884112 4.7674462,33.366667 3.1007812,34.1 l -3.49999995,0.400391 -3.60156255,-0.300782 -10.0996097,0.5 c -0.166666,0 -0.166666,-0.116276 0,-0.349609 l 0.5,-0.400391 12.0000004,-0.40039 2.49999997,0.101562 C 1.7662752,33.617448 2.5666674,33.415885 3.3,33.049219 4.1333325,32.615886 4.8329433,32.133333 5.3996094,31.6 l 1.5,-2.050781 C 7.4996088,28.44922 8.2496103,26.633331 9.1496094,24.1 l 0.5,-0.449219 c 0.1166665,-0.06667 0.191276,-0.0875 0.2246093,-0.0625 z M 31.3,26.299219 c -2.333331,0.133333 -4.699612,1.034507 -7.099609,2.701172 C 22.300393,30.367056 20.749999,31.816668 19.55,33.35 c -1.566665,2.066665 -2.266276,4.033726 -2.099609,5.900391 0.03333,0.433333 -0.05,0.499218 -0.25,0.199218 L 16.850781,38.6 c -0.233333,-2.733331 0.981774,-5.483336 3.648438,-8.25 -0.6,0.266666 -1.198829,0.617448 -1.798828,1.050781 -3.199997,2.133331 -5.14961,4.999613 -5.84961,8.59961 L 13.8,40.549219 14.649609,40.85 15.499219,41.250391 16.3,42.150781 16.999219,43.1 c 1.033332,1.199999 2.116668,1.816276 3.25,1.849609 L 22.100781,44.6 23.899609,43.85 c 3.666663,-1.433332 6.484508,-3.415888 8.451172,-5.949219 0.06667,-0.06667 0.132552,-0.03372 0.199219,0.09961 L 34.749219,31.85 C 33.782553,31.416667 32.984114,30.666666 32.350781,29.6 31.750782,28.566668 31.4,27.465884 31.3,26.299219 Z m -49.449219,0.75 0.298828,4.351562 c 0.03333,0.166667 -0.08294,0.333334 -0.349609,0.5 l -0.400391,0.04883 -0.298828,-4.349609 0.398438,-0.5 z m -20.566406,0.207031 c 0.02708,0.0042 0.04974,0.01797 0.06641,0.04297 1.133332,2.033331 2.065496,3.467449 2.798828,4.300781 1.299999,1.566665 2.666278,2.465886 4.09961,2.699219 l 0.90039,0.101562 4.900391,-0.15039 0.650391,-0.09961 L -20.2,33.299219 c 0.166666,-0.03333 0.166666,0.0849 0,0.351562 l -0.449219,0.398438 -4.65039,0.800781 -1.150391,0.09961 -4.400391,0.25 -1.449218,-0.15039 c -1.499999,-0.2 -2.916668,-1.099221 -4.25,-2.699219 -0.7,-0.833332 -1.616668,-2.282945 -2.75,-4.349609 -0.1,-0.133334 -0.03411,-0.300001 0.199218,-0.5 0.175,-0.175 0.303516,-0.256641 0.384766,-0.244142 z m 85.228516,1.162109 c -0.725,0.0375 -2.013283,0.580861 -3.863282,1.63086 L 41.05,30.949609 c -0.833333,0.533333 -1.232552,0.982943 -1.199219,1.34961 0.03333,0.333333 0.215495,0.567838 0.548828,0.701172 H 41.3 c 1.299999,0.03333 2.582944,-0.383335 3.849609,-1.25 l 1.5,-1.5 c 0.6,-0.8 0.733724,-1.367839 0.400391,-1.701172 -0.116667,-0.1 -0.295443,-0.14336 -0.537109,-0.13086 z m -67.16211,7.88086 1.84961,0.25 c 4.066662,0.766666 7.849612,2.400393 11.349609,4.90039 0.1333332,0.1 0.082943,0.266667 -0.1503906,0.5 -0.2333331,0.2 -0.4000001,0.267839 -0.5,0.201172 -2.6666644,-1.866665 -5.3992214,-3.234896 -8.1992184,-4.101562 L -20.600391,37.1 c -0.933332,-0.1 -1.832553,0.233334 -2.699218,1 l -1.951172,2.400391 -0.04883,0.04883 -0.400389,0.20117 c -0.166667,0 -0.166667,-0.133725 0,-0.400391 l 0.400391,-0.5 1.099609,-1.449219 1.800781,-1.701172 c 0.466666,-0.266666 1.050001,-0.40039 1.75,-0.40039 z m 2.080078,6.359375 c 2.337498,-0.03125 4.693362,0.265625 7.06836,0.890625 0.166666,0.03333 0.133723,0.167057 -0.09961,0.40039 -0.199999,0.266667 -0.366666,0.367448 -0.5,0.300782 -3.099997,-0.8 -6.183336,-1.034505 -9.25,-0.701172 -0.166666,0 -0.166666,-0.116277 0,-0.34961 l 0.451172,-0.40039 c 0.774999,-0.08333 1.550912,-0.130209 2.330078,-0.140625 z m -1.18164,4.890625 c 2.766664,0 5.468232,0.300391 8.101562,0.90039 0.133333,0.03333 0.09844,0.167058 -0.101562,0.400391 -0.2,0.266666 -0.366667,0.367448 -0.5,0.300781 L -20.2,48.299219 c -0.166667,0 -0.166667,-0.131771 0,-0.398438 z" />
    <path
       d="m 44.75,-24.1 -0.15,-0.1 1.05,-0.15 q 1.9,-0.65 3.1,-3 l 0.45,-0.9 0.9,-3.3 0.35,-2.5 0.45,-1.8 0.25,-0.7 0.35,0.95 1.5,3.1 1.65,3 0.35,0.65 q 1.6,3.2 2.2,6.05 0.8,3.55 0.35,7.25 -0.5,3.65 -2,7.05 l -1.6,3.4 -1.55,3.4 Q 51.8,0.15 51.7,1.6 L 51.65,2.05 51.7,2.3 51.15,2 Q 50.2,1.4 49.8,0.75 49.3,-0.5 48.95,-2.7 L 48.3,-6 q -0.9,-2.7 -3.7,-3.75 l 0.4,-7.1 -0.25,-7.25" />
    <path
       d="m -24.55,-15.8 0.7,-1 1.45,-2.85 1.6,-2.75 q 2.15,-3 4.2,-4.7 l 0.25,-0.4 q 0.15,-0.3 -0.15,-0.2 -7.05,2.65 -12.25,13.3 -1.65,-2.4 -1.1,-5.55 0.55,-2.75 2.55,-5.3 0.25,-0.25 0.05,-0.35 -0.2,-0.1 -0.45,0.2 -2.15,2.3 -3.3,5.55 -1.1,3.05 -1.2,6.45 -1.45,-1.6 -1.45,-4.55 -0.05,-2.25 0.75,-4.95 0.1,-0.25 -0.3,0 l -0.45,0.4 q -1.4,5.05 -0.3,8.1 -1.85,5.7 -1.75,9.9 0.05,4 1.7,7.65 1.6,3.65 4.45,6.4 -1.6,1.4 -2.45,3.65 l -0.5,1.6 -0.2,0.95 q -0.65,3.7 0.45,7.15 -1.95,-2 -2.9,-5.3 l -0.6,-2.8 -0.15,-1.6 -0.1,-1.65 q 0,-0.2 -0.4,0.1 l -0.35,0.35 -0.4,1.2 -0.05,0.15 -0.45,1.45 q -0.8,3.2 -0.45,5.9 -1.5,-2.75 -2.35,-5.9 l -0.35,-1.6 -0.25,-1.3 q -0.7,-4.65 0.05,-9.2 0.05,-0.25 -0.3,-0.05 l -0.4,0.4 q -1.35,2.7 -1.95,5.3 -0.7,2.65 -0.55,4.85 l 0.1,0.95 -0.45,-0.95 q -2.35,-5.7 1.1,-13.4 l 2.85,-6.25 q 1.65,-3.75 2.25,-6.85 l 2.1,-9.15 q 1.6,-5.05 4.15,-8.35 1.9,-2.35 5,-4.2 4.2,-2.4 5.1,0.8 0.1,0.2 0.35,0 l 0.3,-0.25 q 1.6,-1.85 4.05,-2.55 l 4.85,-0.2 q -3.45,0.65 -4.85,2.15 l -0.2,0.35 q -0.1,0.25 0.2,0.15 7.4,-2.05 12.95,4.6 3.9,4.7 6.6,13.3 0.4,1.35 1.5,3.05 l 1.85,2.9 q 3.15,4.95 4.15,9.35 0.95,4 0.75,7.9 -0.3,4.9 -2.45,7.6 Q 8.45,11.5 7.85,8 L 6.4,2 5.95,2.1 5.65,2.55 q 0.25,4.4 -1.1,8.8 -1.3,4.45 -3.95,8.05 1,-3.9 1,-8.8 Q 1.6,7 0.95,1.8 0.15,-4.5 -1.2,-9.95 l -0.4,0.1 -0.35,0.5 0.8,10.85 q 0.2,6.15 -0.35,10.9 -0.45,3.6 -1.75,6.3 -1.4,2.95 -3.9,5.25 -1.95,1.85 -4.3,3 l -0.9,0.4 Q -9,24.2 -6.85,19.1 -4.9,14.65 -4.2,9.55 q 0.7,-5.2 0.05,-10 -0.7,-5.2 -3.05,-9.45 -2,-3.75 -3,-6.25 -1.4,-3.6 -1.6,-6.75 -0.15,-1.4 0.05,-2.7 l 0.55,-1.8 -0.3,-0.05 -0.4,0.35 -0.6,1.95 q -1.65,4.1 -6.1,6.9 l -2.55,1.55 q -1.65,0.85 -2.85,1 l -0.55,-0.1 m 12.15,67.2 1.3,0.6 -3.2,-0.75 1.9,0.15" />
    <path
       d="m 43.5,-24 -0.65,0.9 v -0.25 l -0.85,0.8 -2.25,0.3 q -2.9,-0.1 -3,-2.35 l 0.3,-0.3 q 0.25,-0.75 1.1,-1.35 1,-0.55 2.2,-0.5 1.2,0.05 2.1,0.75 1.05,0.7 1.05,2 m -1.4,17.7 0.05,11.05 h 0.05 l 0.2,13.15 -0.9,0.45 q -1.2,0.85 -1.4,2.15 -0.2,1.2 0.85,2.15 l 0.35,0.3 q -1.65,0.4 -2.3,1.4 -0.5,0.6 -0.55,1.35 0.05,1 0.8,2 l 1.9,1.15 0.3,0.05 q -2.65,1.4 -2.6,2.95 l 0.5,1.15 0.75,0.75 q 0.9,0.65 2.35,0.55 l 0.4,6.8 0.65,13.55 V 55 h 0.05 v 4 q -0.2,2.35 -0.75,3.4 -0.55,0.8 -1.7,0.25 L 39.6,61.4 q -0.75,-0.95 -0.8,-3.2 l 0.1,-2.4 V 55.55 L 38.2,19.25 38.15,19.3 38,-6.1 41.35,-6 42.1,-6.3" />
    <path
       d="m 43.95,-18 0.2,4.5 q -0.1,2.7 -0.5,4.5 l -0.05,0.1 -0.2,0.7 q -0.75,1.15 -2.55,1.45 -1.7,0.3 -3,-0.35 L 37.5,-7.4 q -0.4,-0.45 -0.6,-1.3 l -0.2,-1.4 -0.05,-0.1 q -0.45,-4.55 0.2,-12.65 0.65,0.65 2,0.9 l 2.25,0.05 q 1,-0.2 1.8,-0.75 l 0.9,-0.85 v 0.3 l 0.15,5.2" />
    <path
       d="m 27.95,-29.3 0.3,-0.25 0.4,0.15 1.4,1.5 2.5,3.05 q 1.8,1.6 3.55,1.6 l -0.4,5.25 -0.2,4.45 q 0.05,2.6 0.45,4.4 l -1.85,0.2 q -1,0.15 -1.7,0.65 -1.3,0.8 -1.75,1.85 l -0.25,0.95 -0.4,1 -0.8,-1.65 -1.35,-2.4 -1.35,-2.3 q -0.75,-1.4 -1,-2.55 -0.55,-2.2 -0.15,-4.75 0.25,-1.55 1.25,-4.65 l 0.8,-2.4 0.45,-2.7 0.1,-1.4" />
    <path
       d="M -15.5,6.9 V 6.95 Q -16.25,7.6 -17.2,7.9 L -19.55,7.7 -20.9,7.1 q 3.85,0.45 5.55,-0.85 L -15.5,6.9 m 0.1,-3.6 q -0.95,0.75 -3.1,0.6 L -21.75,3.4 -25.2,2.85 Q -27.15,2.4 -28.4,1.5 l 0.2,-0.15 0.8,0.45 0.9,0.25 3.9,0.6 4,-0.65 1.4,-0.25 1.45,0.25 0.35,1.3" />
  </g>
</svg>
