<svg xmlns="http://www.w3.org/2000/svg" xml:space="preserve" width="360.044" height="541.592" viewBox="0 0 95.262 143.296"><path d="M46.32 63.259c-3.44.355-4.796 3.945-6.617 6.357-6.461 9.96-14.809 18.527-21.416 28.378-3.227 4.96-5.362 10.757-5.13 16.74-.072 6.136 2.091 12.437 6.35 16.991 4.92 5.833 11.76 9.857 19.336 10.961 6.053 1.009 12.322.693 18.438-.41 7.677-1.828 14.841-6.369 19.63-12.776 3.238-4.56 4.567-10.262 4.159-15.739-.038-5.588-1.606-11.193-4.945-15.566-7.617-10.744-17.422-19.856-24.114-31.27-1.268-1.877-3.176-3.999-5.691-3.666m.438 5.558c1.468.784 2.281 2.521 3.273 3.841 6.448 10.585 16.16 18.678 22.88 29.057 3.993 6.39 5.209 14.777 2.02 21.74-4.125 8.484-13.083 14.307-22.466 14.929-6.34.667-13.055.713-18.926-2.114-7.626-3.264-14.482-9.822-15.85-18.286-1.136-6.524 1.242-13.085 4.842-18.456 4.805-7.218 11.076-13.277 16.103-20.332 2.516-3.337 4.661-6.972 7.393-10.141.2-.157.474-.296.731-.238"/><path d="M46.332 75.115c-1.794.928-2.368 3.18-3.465 4.77-.562 1.284-1.951 2.431-1.24 3.9.708 3.307 1.111 9.498-1.322 11.64-4.421 6.043-9.35 9.441-10.968 17.062-1.008 4.766.062 7.874 3.957 10.581 1.542 1.31 2.876 1.112 4.611 2.04 1.705.85 1.702 5.023-.166 6.154-.942.778-2.256.75-3.274 1.355 2.598.455 5.03 1.357 7.675 1.75 7.613 1.342 16.005-.106 22.618-4.528 4.002-2.644 6.435-7.173 7.264-11.576 1.129-4.7.318-9.954-2.497-14.02-3.767-6.091-8.593-11.404-13.149-16.897-2.913-3.342-4.997-7.253-7.28-11.024-.855-.482-1.729-1.248-2.764-1.207M22.96.02c-2.782.464-3.535 3.534-5.154 5.41C12.94 12.794 6.443 18.995 2.093 26.707c-3.02 6.149-2.927 13.882 1.303 19.476 3.677 5.059 9.515 8.422 15.75 9.007 4.409.428 8.983.265 13.292-1.03 5.313-1.816 10.11-5.233 12.83-10.29 2.239-4.583 2.042-9.747.787-14.558-1.887-5.62-6.583-9.888-10.196-14.536-3.577-4.178-6.967-8.53-9.872-13.206C25.248.69 24.174-.138 22.96.019m.13 3.265c1.306.226 1.83 1.823 2.642 2.739 4.728 7.92 12.283 13.732 16.81 21.785 3.181 5.784 2.597 13.707-2.24 18.42-3.91 4.49-9.979 6.633-15.808 6.587-4.91.374-9.956-.713-14.04-3.535-5.011-3.14-8.696-8.9-8.02-14.963.634-6.918 5.547-12.283 9.826-17.341 3.546-4.155 6.737-8.679 9.91-13.145.234-.272.546-.535.92-.547"/><path d="M22.948 8.155c-1.61 1.25-2.207 3.443-3.35 5.103.898 2.575 2.149 6.986.157 8.684-3.259 4.483-8.02 7.075-8.544 12.935-.022 4.274 2.574 6.612 6.446 7.826 1.504.542.91 3.817-.705 4.766-.33.441-2.07.61-1.634.779 3.172.786 6.378 1.607 9.687 1.378 4.902-.314 10.444-2.043 13.55-6.202 3.024-4.414 3.591-10.805.274-15.235-3.84-6.386-9.787-11.234-13.255-17.87-.511-1.11-1.346-2.039-2.626-2.164M77.969 32.6c-1.964.52-2.562 2.817-3.783 4.216-3.405 5.147-8.05 9.422-10.919 14.924-1.996 4.264-1.791 9.714 1.053 13.4 2.763 3.873 7.27 6.284 12.007 6.55 4.412.274 9.116-.209 12.826-2.902 3.777-2.317 6.446-6.582 6.074-11.106.126-3.298-1.097-6.616-3.275-9.192C88.224 43.657 83.88 39.26 80.726 34c-.624-.88-1.608-1.674-2.757-1.399m.76 2.823c1.803 2.288 3.174 4.754 5.164 6.904 3.173 4.062 7.535 7.593 8.917 12.756.916 3.702-.179 7.827-3.064 10.388-2.795 2.92-6.913 4.118-10.873 4.057-5.435.43-11.151-2.408-13.757-7.254-2.119-3.994-.873-8.84 1.657-12.33 3.223-4.391 7.05-8.33 10.01-12.927.502-.57 1.028-1.85 1.738-1.78l.159.142z"/><path d="M78.211 38.647c-.99.916-1.416 2.302-2.163 3.412.727 2.065 1.1 5.018-.33 6.4-2.269 3.07-5.016 5.03-4.96 9.155.322 2.774 1.224 3.693 3.678 4.463 1.24.476.869 3.545-.497 4.16-1.189.413 1.381.609 1.887.81 4.342.854 9.456-.07 12.69-3.357 2.728-3.187 3.08-8.341.335-11.634-2.812-4.442-6.941-7.913-9.322-12.65-.23-.41-.845-.756-1.318-.759"/></svg>