<?xml version="1.0" encoding="UTF-8" standalone="no"?>
<!-- Created with Inkscape (http://www.inkscape.org/) -->

<svg
   width="125.17007mm"
   height="137.40224mm"
   viewBox="0 0 125.17007 137.40224"
   version="1.1"
   id="svg1"
   xml:space="preserve"
   xmlns="http://www.w3.org/2000/svg"
   xmlns:svg="http://www.w3.org/2000/svg"><defs
     id="defs1" /><g
     id="layer1"
     transform="translate(-26.868954,-79.836149)"><g
       id="g1"
       transform="matrix(1.3075613,0,0,1,24.086747,77.148907)"><path
         style="fill:#000000"
         d="m 63.224176,135.27702 c 1.51045,0.002 1.5742,0.12393 1.79369,0.60564 0.53047,1.16426 0.35234,2.15235 -0.56586,3.1378 -1.50977,1.62033 -3.40415,1.39599 -5.52783,-0.65474 -1.1415,-1.1023 -1.83819,-2.45715 -1.45882,-2.83652 0.0851,-0.0851 1.75318,-0.18555 3.70675,-0.22325 0.88427,-0.0171 1.54859,-0.0296 2.05207,-0.0289 z"
         id="path38" /><path
         style="fill:#000000"
         d="m 35.389699,132.00435 c 1.161992,0 1.561361,0.34924 1.072803,0.93792 -0.633447,0.76326 -2.606105,0.31957 -2.286165,-0.51418 0.111288,-0.29002 0.493749,-0.42374 1.213362,-0.42374 z"
         id="path37" /><path
         style="fill:#000000"
         d="m 25.629571,130.77135 c 0.68791,-0.12045 1.702459,0.1213 3.683497,0.80977 2.285001,0.79412 2.750009,1.12842 1.839681,1.32395 v -5.2e-4 c -1.493171,0.32111 -8.616517,0.32003 -9.497095,-0.001 -0.601315,-0.21924 0.60158,-1.10376 1.804541,-1.32705 0.535318,-0.0994 1.240465,-0.35452 1.566829,-0.56689 0.180402,-0.11739 0.373244,-0.19808 0.602547,-0.23823 z"
         id="path36" /><path
         style="display:inline;fill:#000000"
         d="m 61.036201,96.62767 c 0.24484,0.0802 0.20864,0.63949 -0.27027,1.62522 -0.363,0.74717 -0.76242,1.20768 -1.04748,1.20768 -0.79838,0 -0.83104,-0.52532 -0.0982,-1.58285 0.64532,-0.9312 1.17109,-1.33027 1.41593,-1.25005 z"
         id="path33" /><path
         style="fill:#000000"
         d="m 56.836971,86.54301 c 0.23679,-0.01 0.39823,0.21878 0.59635,0.68058 0.17169,0.40018 0.53618,1.05831 0.81029,1.46192 0.59425,0.87502 3.16113,2.57297 3.88916,2.57297 0.75469,0 1.07636,0.81536 0.84853,2.15026 l -0.1974,1.15704 -1.64383,0.26458 c -1.5698,0.25274 -1.69093,0.32827 -2.70475,1.68052 -0.58372,0.7786 -1.06091,1.63761 -1.06091,1.90892 0,0.27131 -0.23064,0.61624 -0.51212,0.76688 -0.28147,0.15065 -0.56031,0.27389 -0.62011,0.27389 -0.19487,0 -0.98444,-0.96158 -0.98444,-1.1989 0,-0.12713 -0.36411,-0.60631 -0.80874,-1.06505 -0.6422,-0.6626 -0.85731,-1.18174 -1.04644,-2.52594 -0.18688,-1.32831 -0.3825,-1.80818 -0.91106,-2.23139 -1.06236,-0.85061 -0.87734,-1.65048 0.71572,-3.09438 0.76398,-0.69245 1.47407,-1.2598 1.5782,-1.26039 0.10412,-5.8e-4 0.55489,-0.35822 1.00149,-0.79479 0.50115,-0.48987 0.81328,-0.73721 1.05006,-0.74672 z"
         id="path31" /><path
         style="fill:#000000"
         d="m 40.41007,82.03269 c 0.04691,0.0204 0.03716,0.13304 -0.0047,0.34882 -0.05316,0.27435 -0.245464,0.54866 -0.427364,0.60926 -0.47199,0.15715 -0.409051,-0.33375 0.09664,-0.75344 0.184884,-0.15344 0.288465,-0.22508 0.33538,-0.20464 z"
         id="path30" /><path
         style="fill:#000000"
         d="m 27.713687,74.04455 0.315226,0.58963 c 0.179118,0.33468 0.293377,1.43258 0.264067,2.53989 -0.0284,1.07291 0.08343,2.36044 0.248563,2.86081 0.547376,1.65857 0.08835,1.58979 -1.02681,-0.15348 -1.19414,-1.86673 -1.746721,-3.43614 -1.491899,-4.23902 0.0889,-0.2801 0.505633,-0.75432 0.926042,-1.05368 z"
         id="path29" /><path
         style="fill:#000000"
         d="m 24.828592,73.49729 -0.429948,0.48576 c -0.584932,0.6616 -1.970632,3.1041 -3.956865,6.97322 -0.829806,1.61644 -2.063676,3.85753 -2.741434,4.98006 -1.144872,1.89618 -1.483324,2.29597 -4.773869,5.63325 -1.947982,1.97564 -3.6707405,3.84926 -3.8281905,4.16357 -0.428651,0.85569 -3.187612,4.88078 -4.790922,6.98975 -0.776255,1.02108 -1.589681,2.19115 -1.807642,2.60036 l -0.371553,0.69763 c -0.0059,-0.1592 0.05587,-0.36084 0.194303,-0.69505 0.186914,-0.45125 0.521724,-0.97141 0.744141,-1.156 0.222416,-0.18459 0.689067,-0.7541 1.036629,-1.26556 0.347562,-0.51144 0.98594,-1.40643 1.418518,-1.9885 1.588075,-2.13694 3.698482,-5.33603 3.698482,-5.60638 0,-0.27779 0.634537,-0.93104 4.6446785,-4.78214 1.172183,-1.1257 2.433037,-2.52316 2.801896,-3.10523 1.957568,-3.08917 1.862226,-2.92344 3.112472,-5.42396 0.472933,-0.94589 0.965273,-1.89839 1.09399,-2.11667 0.128717,-0.21828 0.728762,-1.34937 1.333252,-2.51354 1.271952,-2.44961 2.237558,-3.86077 2.622062,-3.87057 z"
         id="path28" /><path
         style="fill:#000000"
         d="m 24.866312,73.49678 c 0.04625,0.0112 0.08478,0.0406 0.109037,0.10387 0.08805,0.22944 -0.01594,0.69487 -0.230994,1.03404 -0.215054,0.33918 -0.476521,1.03322 -0.580843,1.54254 -0.210457,1.0275 -3.022087,6.99847 -3.983736,8.45995 -2.679634,4.07241 -4.358028,6.21823 -6.990788,8.93796 -2.044381,2.11191 -3.7275455,4.17918 -5.1294035,6.30039 -1.14753,1.73639 -2.425274,3.63316 -2.839619,4.21525 -0.414346,0.58207 -0.955841,1.44528 -1.203545,1.91822 -0.494799,0.94472 -0.795923,1.04236 -1.539441,0.49868 -0.208519,-0.15247 -0.315618,-0.26467 -0.344681,-0.41651 l 0.344681,0.27854 c 0.600461,0.48622 0.953229,0.37891 1.44384,-0.44029 0.937823,-1.56592 5.229442,-7.79623 6.2600835,-9.08781 0.594137,-0.74457 1.906591,-2.23536 2.916618,-3.31298 3.157889,-3.36923 6.16957,-7.3717 7.801074,-10.36784 1.450026,-2.66287 3.72009,-8.03129 3.901054,-9.22528 z"
         id="path27" /><path
         style="fill:#000000"
         d="m 60.086387,72.84772 c 0.18191,0.0848 0.54224,0.22898 0.80098,0.31988 0.54358,0.19096 0.41592,0.87144 -0.3731,1.99212 -0.27195,0.38627 -0.49403,0.7706 -0.49403,0.8537 0,0.0832 -0.24673,0.54105 -0.54829,1.01751 l -0.54828,0.8661 0.18345,-0.92605 c 0.10098,-0.50932 0.28817,-0.96539 0.41599,-1.01389 0.12782,-0.0485 0.23255,-0.80274 0.23255,-1.67586 0,-1.17583 0.0858,-1.5477 0.33073,-1.43351 z"
         id="path26" /><path
         style="fill:#000000"
         d="m 37.271756,66.69409 1.58595,0.81752 1.585433,0.81804 -0.111622,2.53473 c -0.06132,1.39421 -0.199027,3.88609 -0.306441,5.53765 l -0.195337,3.00291 -1.305863,1.03198 c -0.718107,0.56763 -1.525854,1.03198 -1.795239,1.03198 -0.269386,0 -0.563251,0.11906 -0.653191,0.26458 -0.08993,0.14552 -0.460566,0.26459 -0.823205,0.26459 -0.502284,0 -0.750262,-0.21828 -1.042314,-0.91726 -0.210855,-0.50465 -0.383439,-1.01362 -0.383439,-1.1312 0,-0.39989 -2.445803,-4.14569 -3.882967,-5.94692 l -1.431954,-1.79421 1.797823,-2.08979 c 0.988551,-1.14942 1.834409,-2.05486 1.879989,-2.01176 0.280857,0.26537 0.859142,3.26221 1.008207,5.22603 0.09665,1.27331 0.260574,2.31511 0.364319,2.31511 0.103745,0 0.267432,-0.84823 0.363802,-1.88516 0.09637,-1.03694 0.256874,-2.01808 0.357084,-2.18023 0.284281,-0.45997 0.546386,0.82399 0.575675,2.82205 0.02539,1.73168 0.546846,3.36 1.075904,3.36 0.377509,0 0.576986,-0.47326 0.277502,-0.65835 -0.161425,-0.0998 -0.268717,-1.6469 -0.268717,-3.87057 0,-3.98127 0.344528,-4.71206 0.655774,-1.39061 0.185283,1.97726 0.768667,3.52854 1.407149,3.74137 0.433266,0.14442 0.402956,-0.72472 -0.04341,-1.24023 -0.247505,-0.28584 -0.41351,-1.55954 -0.526066,-4.0349 z"
         id="path25" /><path
         style="fill:#000000"
         d="m 32.949022,60.8314 c 0.197671,0 0.493051,0.29337 0.656291,0.65164 0.401534,0.88128 -0.46973,2.51299 -3.780131,7.0807 -1.400167,1.93196 -2.783133,3.72481 -3.073197,3.98426 -0.512188,0.45812 -0.536939,0.44862 -0.857829,-0.32608 -0.181726,-0.43873 -0.26856,-0.95775 -0.19327,-1.15394 0.07528,-0.19617 1.014836,-1.59773 2.087728,-3.11402 1.072892,-1.5163 2.592127,-3.7392 3.376021,-4.93975 0.783895,-1.20054 1.586717,-2.18281 1.784387,-2.18281 z"
         id="path24" /><path
         style="fill:#000000"
         d="m 36.207738,59.90536 c 0.424189,0 0.470911,1.05163 0.120923,2.71198 -0.315122,1.49494 -0.677736,0.93187 -0.596346,-0.92604 0.06029,-1.37634 0.16957,-1.78594 0.475423,-1.78594 z"
         id="path23" /><path
         style="fill:#000000"
         d="m 63.788997,55.01057 c 0.14758,0 0.11914,0.17548 -0.0646,0.39687 -0.18116,0.21828 -0.44875,0.39688 -0.59428,0.39688 -0.14759,0 -0.11863,-0.17549 0.0651,-0.39688 0.18116,-0.21828 0.44824,-0.39687 0.59376,-0.39687 z"
         id="path22" /><path
         style="display:inline;fill:#000000"
         d="m 58.433257,55.01057 c 0.12595,0 0.26664,0.32742 0.31264,0.7276 0.0758,0.6585 0.18419,0.72761 1.14205,0.72761 0.9525,0 1.05833,0.0661 1.05833,0.66145 0,0.55572 -0.32376,0.83065 -2.02468,1.7198 -2.20693,1.15366 -3.13469,1.87097 -3.13469,2.42259 0,0.52649 1.01078,0.436 3.20652,-0.28732 l 1.95285,-0.64338 0.45682,0.57723 c 0.81479,1.02874 0.75883,1.05715 -2.96364,1.50068 -1.23311,0.14693 -2.50018,0.26665 -2.81585,0.26665 -0.98938,0 -1.23157,-1.61436 -0.40153,-2.6758 0.2714,-0.34705 0.82211,-1.28633 1.22422,-2.0867 0.87501,-1.74159 1.67317,-2.91041 1.98696,-2.91041 z"
         id="path21" /><path
         style="display:inline;fill:#000000"
         d="m 39.206522,46.06589 c 0.686063,0.0666 0.940093,0.28505 1.406115,1.2082 0.869783,1.72296 3.74671,3.50314 5.66064,3.50314 0.98211,0 4.22196,-1.01788 4.22196,-1.32653 0,-0.13594 0.364,-0.43533 0.80925,-0.66559 0.44526,-0.23025 1.2832,-0.84659 1.86191,-1.36943 0.96919,-0.8756 1.10341,-0.92333 1.70377,-0.60203 0.35848,0.19185 0.65215,0.4874 0.65215,0.65629 0,0.47825 -2.83787,3.49702 -4.11086,4.37286 -0.62909,0.43282 -1.34455,0.78652 -1.58956,0.78652 -0.24501,0 -0.90435,0.25797 -1.46503,0.57309 -0.86581,0.48661 -1.0954,0.81549 -1.52497,2.18281 -1.72998,5.5065 -2.2771,9.75546 -2.2841,17.74931 -0.007,8.10561 0.0207,8.21334 2.19935,8.45219 2.5041,0.27455 8.81132,-0.44979 9.32708,-1.07125 0.45189,-0.54448 1.03559,-0.44847 1.03559,0.17053 0,0.29684 -0.23812,1.00616 -0.52916,1.57665 -0.29105,0.57049 -0.52917,1.22912 -0.52917,1.46348 0,0.55629 -2.04448,2.97583 -2.68666,3.17965 -0.27372,0.0869 -1.09955,0.73505 -1.83503,1.44022 -1.11997,1.07381 -1.36629,1.48492 -1.5167,2.53111 -0.17511,1.21809 -0.20892,1.25664 -1.36994,1.54306 -2.78151,0.6862 -14.618437,-0.91675 -15.511717,-2.10065 -0.163789,-0.21707 -0.37713,-0.89248 -0.47439,-1.50068 -0.09726,-0.6082 -0.277159,-1.23064 -0.399975,-1.38338 -0.122816,-0.15274 -0.426055,-1.69303 -0.673861,-3.42253 -0.374409,-2.61313 -0.390902,-3.18247 -0.09612,-3.3693 0.616654,-0.39085 0.726927,-0.26803 1.160653,1.28881 0.233112,0.83675 0.587473,2.05714 0.787032,2.71198 0.19956,0.65484 0.399044,1.48667 0.443384,1.84898 0.121206,0.99051 0.858781,0.94998 2.327506,-0.12816 1.403318,-1.03017 1.85415,-1.02453 1.85415,0.0227 0,0.74849 0.627186,1.10487 1.16272,0.66042 0.433392,-0.35968 0.689364,0.12476 0.689364,1.30639 0,0.88276 0.955193,1.73087 1.469161,1.30431 0.173237,-0.14377 0.398628,-1.21888 0.500744,-2.38952 0.156318,-1.79203 0.244847,-2.07925 0.559656,-1.81798 0.205654,0.17066 0.570631,0.23483 0.810801,0.14263 0.59145,-0.22696 0.359,-2.52515 -0.430462,-4.25814 -0.518132,-1.13737 -0.556979,-1.52621 -0.393258,-3.93774 0.123026,-1.81208 0.07354,-3.18883 -0.153996,-4.26382 -0.492642,-2.32749 -0.352292,-4.8512 0.321944,-5.78208 0.300942,-0.4155 0.675252,-1.50443 0.831992,-2.41949 0.2464,-1.43843 0.22377,-1.75708 -0.16692,-2.35335 -0.24854,-0.37931 -0.613642,-0.68988 -0.811833,-0.68988 -0.435361,0 -1.12355,0.99911 -1.373042,1.99316 l -0.181901,0.72502 -0.45372,-0.60099 c -0.57397,-0.76093 -0.894134,-0.34074 -0.837674,1.10019 0.0434,1.10759 -0.0032,1.15127 -0.780315,0.73535 -0.943535,-0.50497 -1.099446,-1.47311 -0.459403,-2.85098 0.39065,-0.84099 0.580739,-1.78737 0.597379,-2.97243 0.01796,-1.279 0.147191,-1.86067 0.487826,-2.20142 0.302166,-0.30228 0.463021,-0.87211 0.463021,-1.64021 0,-0.8012 0.212024,-1.51349 0.664559,-2.23035 0.61264,-0.97048 0.757171,-1.05317 1.842781,-1.05317 0.921972,0 1.241952,-0.1195 1.472262,-0.54984 0.40428,-0.75541 0.13354,-1.30224 -0.64492,-1.30224 -0.419181,0 -0.889527,-0.30487 -1.321885,-0.85731 -0.655976,-0.83818 -0.679529,-0.84561 -1.066602,-0.33073 -0.386674,0.51435 -0.415304,0.50485 -1.215429,-0.39946 -1.82223,-2.05952 -2.013173,-3.54141 -0.436149,-3.38843 z"
         id="path16" /><path
         style="fill:#000000"
         d="m 16.431168,36.71194 c 0.312713,0.0793 1.698161,1.31566 3.850927,3.44424 6.256899,6.18658 10.368893,9.41127 14.933456,11.71091 1.127785,0.56819 2.05052,1.15059 2.05052,1.29449 0,0.14393 -0.148828,0.24973 -0.330729,0.23513 -0.456417,-0.0367 -3.390343,-1.3356 -4.18114,-1.85105 -0.356295,-0.23224 -1.068405,-0.62054 -1.582849,-0.86299 -1.729825,-0.81526 -6.452387,-4.61058 -8.995833,-7.22954 -4.043387,-4.16343 -5.811532,-6.20267 -5.811532,-6.70346 0,-0.0367 0.02251,-0.0491 0.06718,-0.0377 z"
         id="path15" /><path
         style="fill:#000000"
         d="m 37.929597,33.88214 c 0.130093,0.031 0.286258,0.0973 0.436666,0.1912 0.300814,0.18786 1.039172,0.3876 1.641243,0.4439 0.602072,0.0563 1.630806,0.16924 2.285649,0.25064 1.151312,0.1432 4.005202,-0.14771 5.225522,-0.53279 0.48035,-0.15158 0.59531,-0.0869 0.59531,0.33641 0,0.39893 -0.37104,0.65979 -1.54771,1.08883 -1.52086,0.55453 -3.6206,0.91572 -4.140831,0.7121 -0.14552,-0.057 -0.7076,-0.1777 -1.249019,-0.2682 -0.541419,-0.0905 -1.33256,-0.45745 -1.758032,-0.81546 -0.425473,-0.35801 -0.957808,-0.65112 -1.182874,-0.65112 -0.464074,0 -0.84505,-0.47684 -0.587044,-0.73484 0.04698,-0.047 0.151027,-0.0516 0.28112,-0.0207 z"
         id="path14" /><path
         style="fill:#000000"
         d="m 19.843362,31.81767 5.637899,5.70973 c 7.675483,7.77311 13.486044,13.78906 13.592452,14.07304 0.158954,0.4242 -0.319376,0.22625 -2.865975,-1.18442 -3.958737,-2.19291 -6.062377,-3.6368 -9.432499,-6.47506 -3.118747,-2.62655 -9.617501,-8.84212 -9.617501,-9.19841 0,-0.10268 0.603972,-0.80295 1.342554,-1.55597 z"
         id="path13" /><path
         id="path12"
         style="fill:#000000"
         d="m 44.256388,11.13666 -1.906504,1.857768 -1.906899,1.858284 0.660795,0.784965 c 0.736711,0.87554 0.780888,1.082638 0.386517,1.819528 -0.445224,0.831905 -2.147528,0.632539 -2.65227,-0.310576 -0.194332,-0.363125 -0.147478,-0.689878 0.175079,-1.225248 0.302331,-0.501775 0.14228,-0.399551 -0.511404,0.327629 -0.523259,0.582075 -0.956442,1.177396 -0.962342,1.322916 -0.0059,0.14552 -0.433128,1.098022 -0.950091,2.116667 -2.436253,4.800505 -2.868358,13.438637 -0.899503,17.991667 0.971941,2.247635 3.177882,5.556239 4.147753,6.220809 0.507797,0.347945 1.237442,0.965657 1.621952,1.373042 0.384506,0.40739 0.909954,0.740524 1.167062,0.740524 0.257104,0 0.674478,0.119283 0.927168,0.264583 0.252675,0.1453 1.045116,0.354825 1.761066,0.465605 1.60289,0.248015 1.841991,0.726727 0.495596,0.992187 l -1.003839,0.197921 1.190774,0.328145 c 0.65485,0.18058 1.282996,0.344286 1.396286,0.363286 0.113285,0.019 0.931411,-0.331751 1.817976,-0.779281 1.605775,-0.810595 2.871218,-1.838629 2.871218,-2.332674 0,-0.14292 -0.387047,-0.297015 -0.859982,-0.342615 -0.65226,-0.0629 -0.879782,-0.223489 -0.942582,-0.664559 -0.0632,-0.443835 0.155973,-0.706708 0.925983,-1.111043 1.016075,-0.53356 3.179862,-2.700583 4.788392,-4.795573 0.615575,-0.801745 1.086126,-1.149225 1.612861,-1.190625 1.239795,-0.0975 2.207176,-0.733255 2.766091,-1.81746 0.51277,-0.994705 0.516224,-1.085496 0.09011,-2.684591 -0.24305,-0.912245 -0.374167,-2.053595 -0.291667,-2.54248 l 0.14939,-0.887285 -0.921239,1.043864 c -0.83748,0.948345 -0.966127,1.008754 -1.407747,0.661459 -1.25709,-0.988595 -1.6044,-2.366781 -0.596375,-2.366781 0.30317,0 0.508089,-0.0893 0.454889,-0.198438 -0.0532,-0.109135 -0.257348,-0.518088 -0.453703,-0.908988 -0.47326,-0.942125 -0.232251,-1.543537 0.538279,-1.342037 l 0.594004,0.155546 -0.603094,-0.976168 c -0.6378,-1.031985 -0.587434,-1.756998 0.122516,-1.756998 0.364035,0 0.342003,-0.137059 -0.151367,-0.935344 -0.802885,-1.29909 -0.549053,-2.623807 0.709802,-3.700032 0.752775,-0.64357 0.961751,-1.037211 1.073001,-2.024166 0.18559,-1.646635 -0.32899,-1.934312 -3.081075,-1.721342 L 54.596328,15.56378 52.84198,13.691026 c -1.70703,-1.82237 -1.782127,-1.868498 -2.778342,-1.712557 -3.514945,0.550207 -4.179737,0.527625 -5.011292,-0.172082 z m 7.096828,5.244641 c 0.476585,0 1.99831,1.945546 2.22465,2.844271 0.21307,0.846055 -0.111057,1.918229 -0.579777,1.918229 -0.218625,0 -0.53754,-0.30718 -0.708615,-0.682645 -0.17108,-0.37547 -0.763848,-0.913473 -1.317243,-1.195793 -0.806565,-0.41149 -1.006211,-0.66182 -1.006211,-1.260905 0,-0.801195 0.702556,-1.623157 1.387196,-1.623157 z m -12.252768,3.716053 c 0.342264,0.01 0.703767,0.331622 1.036247,0.963248 0.464901,0.883236 0.363758,2.052718 -0.244241,2.825668 -0.669993,0.851716 -0.794871,0.858675 -1.521963,0.08475 -0.668996,-0.712116 -0.731142,-1.676652 -0.191678,-2.967778 0.256728,-0.614426 0.579374,-0.915887 0.921635,-0.905887 z m 5.735321,0.814937 c 0.02424,-0.0013 0.04834,-4.58e-4 0.07232,0.0021 0.1279,0.01348 0.252271,0.08073 0.373081,0.201538 0.438337,0.43832 -0.395201,2.672621 -1.731425,4.643128 -1.062454,1.566784 -1.064908,1.577505 -0.738257,2.852022 0.258407,1.008027 0.259547,1.361632 0.0047,1.668632 -0.639427,0.770457 -1.253897,0.441058 -1.959068,-1.049549 -0.374369,-0.791357 -0.680555,-1.609033 -0.680555,-1.816943 0,-0.20792 0.656253,-1.197195 1.458333,-2.198832 0.802079,-1.001637 1.709984,-2.337071 2.017954,-2.967261 0.426253,-0.872181 0.81923,-1.316036 1.18287,-1.334802 z m 4.973747,0.859379 c 0.07195,0.0012 0.146055,0.01576 0.22211,0.04496 0.600098,0.23028 1.082911,2.070544 0.858401,3.272152 -0.31533,1.687666 -0.990059,2.049939 -1.783989,0.958081 -0.887278,-1.220208 -0.444882,-3.901641 0.494806,-4.240051 0.06712,-0.0241 0.136721,-0.03636 0.208672,-0.03514 z m -2.012421,8.633065 c 0.25919,0 1.583908,1.428953 2.329777,2.513541 0.995329,1.447309 0.985594,4.126568 -0.01857,5.130437 -0.37568,0.375539 -0.455629,0.379028 -0.676999,0.02894 -0.13803,-0.218279 -0.253307,-0.657854 -0.255307,-0.976684 -0.007,-0.957369 -0.397681,-0.925038 -2.222279,0.183451 -0.957629,0.58178 -2.010793,1.059434 -2.340842,1.061434 -0.33005,0.002 -0.778446,0.117982 -0.996726,0.256832 -0.325819,0.20729 -0.338542,0.347215 -0.06916,0.781864 0.27893,0.45009 0.251852,0.569842 -0.181007,0.801502 -0.718301,0.384429 -1.594786,0.329362 -2.594174,-0.163298 -0.992949,-0.489489 -1.100511,-1.004434 -0.29878,-1.433504 0.534676,-0.28615 0.50734,-0.331099 -0.574639,-0.945679 -0.624935,-0.354969 -1.407549,-0.938562 -1.739329,-1.296561 -0.332448,-0.35872 -0.901871,-0.651123 -1.268237,-0.651123 -0.758944,0 -1.076354,-0.475584 -1.326332,-1.986442 -0.160116,-0.967729 -0.09568,-1.137866 0.739837,-1.947685 1.005559,-0.974589 1.489234,-0.940602 1.291949,0.09147 -0.102107,0.53414 -0.02182,0.668176 0.401931,0.668176 0.291371,0 0.871183,0.177419 1.287997,0.394808 0.923574,0.48171 4.62157,0.534918 6.798838,0.09767 l 1.49983,-0.301274 v -1.153935 c 0,-0.634749 0.09525,-1.153934 0.212229,-1.153934 z" /><path
         style="fill:#000000"
         d="m 93.114347,26.96473 c 0.49596,0 0.51978,0.16127 0.44958,3.01171 -0.0868,3.52658 -0.0668,3.56474 2.57555,4.94801 0.94388,0.49412 1.71618,0.97993 1.71618,1.07953 0,0.0996 -0.35814,0.45836 -0.79582,0.79685 -0.43768,0.33849 -1.28267,1.0019 -1.8774,1.47484 -0.59474,0.47294 -1.25232,0.8599 -1.46141,0.8599 -0.20908,0 -0.4476,0.17643 -0.5302,0.3917 -0.22625,0.58961 -2.33669,1.55257 -3.05098,1.39217 -0.34021,-0.0764 -1.22829,-0.40706 -1.97352,-0.73484 l -1.35496,-0.59583 -2.83962,2.08876 c -1.5616,1.14875 -3.22948,2.41567 -3.70675,2.81585 -0.47727,0.40018 -0.94006,0.7276 -1.02836,0.7276 -0.0883,0 -0.88784,0.56556 -1.77664,1.25677 -0.8888,0.69123 -1.9916,1.52271 -2.45049,1.84744 -1.21576,0.86033 -1.93424,1.41912 -3.06648,2.3859 -0.55388,0.47294 -1.1066,0.85989 -1.22835,0.85989 -0.12175,0 -0.64313,0.40467 -1.15859,0.89917 -1.18392,1.13581 -2.38043,1.43255 -3.00343,0.74414 -0.24583,-0.27163 -0.447,-0.67064 -0.447,-0.88625 0,-0.21561 0.95874,-1.09885 2.13062,-1.96318 2.45451,-1.81037 5.4832,-4.17016 6.09368,-4.74752 0.23049,-0.21798 0.50809,-0.39636 0.61702,-0.39636 0.10894,0 1.12132,-0.71437 2.24999,-1.5875 1.12866,-0.87312 2.17959,-1.5875 2.33526,-1.5875 0.15567,0 0.80538,-0.50601 1.44384,-1.12448 0.63847,-0.61845 1.75673,-1.53347 2.48512,-2.03346 2.00629,-1.37715 2.23664,-1.80677 2.41122,-4.50154 l 0.15245,-2.35438 1.21904,-0.82475 c 2.42072,-1.63784 4.92735,-3.53416 5.13457,-3.88452 0.11637,-0.19675 0.44766,-0.35812 0.73588,-0.35812 z"
         id="path11" /><path
         id="path6"
         style="display:inline;fill:#000000"
         d="m 7.3471153,19.360448 c -0.1754998,0.006 -0.3619055,0.01944 -0.5627823,0.03824 -1.5402155,0.14433 -1.8630442,0.404686 -2.3412378,1.891874 -0.7013933,2.181338 -0.3614645,3.997828 1.0054201,5.376416 1.2758878,1.286809 2.7841297,2.474282 3.434395,2.703711 0.3801526,0.13412 0.8053946,0.34692 0.9445575,0.47284 0.1391598,0.12592 0.6178352,0.384992 1.0639112,0.576192 0.446076,0.1912 1.135765,0.619257 1.532634,0.950846 0.396868,0.33158 0.900699,0.750737 1.119636,0.931726 l 0.398374,0.329179 -0.256888,1.467094 c -0.270867,1.548569 -0.3185,2.529065 -0.152947,3.147095 0.162951,0.608309 0.436969,0.326825 0.897527,-0.920874 0.550341,-1.490939 1.441067,-2.987315 3.084237,-5.183663 0.716,-0.957039 1.301434,-1.866605 1.301434,-2.021065 0,-0.65915 -6.011211,-6.924387 -8.131493,-8.474935 C 9.2715957,19.612325 8.5756211,19.317218 7.3471153,19.360448 Z m 1.1939364,3.17655 c 0.1514746,-0.0042 0.2900388,0.05019 0.4426378,0.168465 0.2688968,0.208415 0.4650898,0.538663 0.5434169,0.914673 0.020235,0.09709 0.02211,0.125697 0.022132,0.319877 2.43e-5,0.197522 -0.00146,0.221085 -0.023318,0.325045 -0.02806,0.133884 -0.095021,0.317544 -0.1403004,0.384989 l -0.032803,0.04858 -0.050982,-0.09095 c -0.028025,-0.04987 -0.054244,-0.09043 -0.058491,-0.09043 -0.012586,0 -0.254912,0.237273 -0.254912,0.249597 0,0.0062 0.019688,0.04625 0.043869,0.08888 0.024171,0.04264 0.042477,0.07915 0.040707,0.08113 -0.011251,0.01257 -0.1564755,0.07765 -0.223295,0.100253 -0.2175813,0.07359 -0.4516532,0.09839 -0.6845077,0.07235 C 7.8292946,25.071887 7.5177342,24.909481 7.3585769,24.688811 7.2592019,24.551029 7.2120497,24.394835 7.211558,24.203052 c -4.047e-4,-0.180573 0.033043,-0.341773 0.1146115,-0.54932 0.1987872,-0.505793 0.6059837,-0.944431 0.9975159,-1.07487 0.076913,-0.02562 0.1485147,-0.03994 0.2173668,-0.04186 z" /><path
         style="display:inline;fill:#000000"
         d="m 36.534859,14.5588 c 0.325532,0.0902 0.401701,0.57931 0.183968,1.36788 -0.268704,0.97317 -0.859028,1.30955 -1.117244,0.63665 -0.216503,-0.5642 0.116085,-1.80102 0.526582,-1.95854 0.162274,-0.0623 0.298183,-0.0761 0.406694,-0.046 z"
         id="path3" /><path
         style="fill:#000000"
         d="m 52.130286,2.6892426 c 0.60603,0.0253 1.27538,0.284651 1.27538,0.572575 0,0.847924 2.83932,2.771589 4.1584,2.817399 0.57116,0.01984 2.04781,1.982106 2.63808,3.505729 0.23611,0.6094694 0.82741,1.6741874 1.31413,2.3657474 0.48671,0.69156 0.88522,1.479197 0.88522,1.750277 0,0.27108 0.23295,0.78872 0.5178,1.15084 0.66175,0.84128 1.14542,3.83527 0.92811,5.7459 -0.0921,0.80977 -0.4073,2.36523 -0.70022,3.45664 -0.58502,2.17975 -1.01027,2.91922 -1.01027,1.75596 0,-0.82125 -0.89525,-3.1016 -1.64745,-4.19612 -0.54595,-0.7944 -0.44912,-1.14454 0.76016,-2.74092 0.94496,-1.24743 1.04491,-2.26343 0.36122,-3.67575 -0.9026,-1.86418 -2.67202,-2.541909 -4.89376,-1.87327 -1.50684,0.4535 -1.34132,0.5532 -3.18326,-1.913059 -1.12909,-1.5117714 -1.46245,-1.7895624 -2.23553,-1.8634524 -0.80304,-0.07675 -1.99626,0.332424 -3.77961,1.2960454 -0.34929,0.188738 -0.7312,0.05513 -1.56063,-0.545703 -0.60416,-0.4376474 -1.30812,-0.7958174 -1.56425,-0.7958174 -0.25613,0 -1.39903,0.9499544 -2.539892,2.1104654 -2.044577,2.079791 -2.970436,2.601091 -4.02456,2.266531 -0.799318,-0.2537 -1.225215,-1.658927 -1.221115,-4.0276644 0.0039,-2.208229 0.23668,-2.94335 0.681096,-2.149222 0.136713,0.244291 0.765259,0.701836 1.396297,1.016992 1.111902,0.55531 1.17482,0.558562 2.046387,0.111104 0.49464,-0.253946 1.589948,-1.098695 2.433957,-1.877405 1.757,-1.621046 2.53559,-1.920995 3.40496,-1.312064 0.72146,0.505328 1.81647,0.547065 2.37815,0.09095 0.22401,-0.181901 0.80112,-0.894186 1.28261,-1.582849 0.48148,-0.688662 1.08465,-1.318198 1.34049,-1.399398 0.16084,-0.05105 0.35609,-0.0689 0.5581,-0.06046 z"
         id="path1" /></g><path
       style="display:inline;fill:#000000;fill-opacity:1;stroke:#000000;stroke-width:0.284545"
       d="m 377.30627,794.46348 c -4.99699,-0.7811 -7.53257,-1.91903 -8.98724,-4.03331 -1.90378,-2.76705 -4.72218,-9.52291 -8.94771,-21.44813 -5.68127,-16.03356 -15.92695,-39.81249 -20.44869,-47.45882 -0.99131,-1.67632 -3.33988,-5.86485 -5.21904,-9.30784 -1.87915,-3.443 -5.81637,-10.48548 -8.74936,-15.64996 -2.933,-5.16449 -7.20504,-12.94921 -9.49343,-17.29938 -2.28839,-4.35016 -4.65116,-8.55738 -5.25058,-9.34935 -0.59943,-0.79198 -1.02737,-1.60283 -0.95099,-1.80189 0.17019,-0.44349 -1.61634,-2.23444 -1.92477,-1.92953 -0.12151,0.12012 -1.00941,0.21841 -1.9731,0.21841 h -1.75217 l -0.0866,0.89067 c -0.0476,0.48987 0.33418,3.05078 0.84849,5.6909 0.78307,4.01972 0.93289,5.4248 0.92141,8.64157 -0.0167,4.68901 -0.351,5.84303 -4.24452,14.65405 -4.44985,10.06998 -6.24507,14.76431 -9.90227,25.89357 -3.6055,10.97195 -6.72214,21.79935 -11.54866,40.1208 -3.09986,11.76703 -4.83808,17.77113 -5.53503,19.11888 -1.04036,2.01184 -3.67124,2.4816 -12.70769,2.26906 -9.42729,-0.22174 -18.65441,-1.26544 -24.59644,-2.78217 -3.35916,-0.85744 -6.51155,-2.14567 -7.29639,-2.9817 -0.64952,-0.69187 -0.68613,-0.91591 -0.66207,-4.05232 0.0696,-9.07219 5.52343,-45.28705 10.49672,-69.7007 4.22503,-20.74046 11.75102,-53.95086 12.9271,-57.04419 0.39846,-1.04802 1.40346,-1.16842 6.59574,-0.79016 21.16651,1.54201 24.42248,1.75076 36.25389,2.32427 3.59949,0.17448 16.31271,0.39768 28.2516,0.49601 l 21.70707,0.17878 1.00033,2.98772 c 1.45769,4.3537 5.00502,10.74924 8.62869,15.55681 0.5974,0.79258 0.78827,1.25323 0.57411,1.38559 -0.20311,0.12553 0.23072,0.75675 1.1824,1.72041 1.10381,1.11768 1.59696,1.44434 1.85598,1.22937 0.25135,-0.2086 0.66565,-0.0962 1.4412,0.39119 3.54977,2.23059 7.1424,2.78578 19.22817,2.97142 7.89614,0.12129 9.60338,0.2172 9.60338,0.53951 0,0.26493 0.3543,0.392 1.09303,0.392 h 1.09303 l 0.894,2.91658 c 2.28191,7.44449 7.98755,29.27909 10.68851,40.9033 4.06163,17.48013 7.63502,38.90707 9.03995,54.20576 0.20121,2.191 0.36944,6.48051 0.37385,9.53225 0.009,6.4932 -0.1904,7.19692 -2.47711,8.72518 -2.54409,1.70027 -6.20976,2.08514 -19.56708,2.05444 -6.56612,-0.0151 -10.898,-0.14776 -12.37769,-0.37905 z"
       id="path42"
       transform="scale(0.26458333)" /><path
       style="fill:#000000;fill-opacity:1;stroke:#000000;stroke-width:0.599496"
       d="m 400.20881,628.25229 c -6.36175,-1.64346 -10.2569,-3.7741 -15.59884,-8.53255 -6.66764,-5.93935 -6.79525,-7.80506 -1.12464,-16.44265 4.14391,-6.31209 20.4127,-28.31161 23.63251,-31.95711 4.1644,-4.71499 10.41909,-13.82214 10.78113,-15.69787 0.826,-4.27952 -1.07086,-4.06283 -9.08613,1.03799 -3.0847,1.96306 -6.09033,3.56516 -6.67917,3.56022 -0.58885,-0.005 -4.98022,-1.35381 -9.7586,-2.99748 -10.10228,-3.475 -12.7332,-3.69813 -17.22314,-1.4607 -4.63018,2.30732 -4.77663,2.74613 -1.65161,4.94885 1.47599,1.04037 2.68361,2.29468 2.68361,2.78734 0,1.84995 -4.82308,21.51989 -5.46691,22.29565 -2.30277,2.77467 -24.48275,6.17713 -41.67432,6.39294 -8.38473,0.10525 -8.85769,-0.22473 -9.48692,-6.61894 -0.99664,-10.12797 2.93121,-50.55221 6.24834,-64.30594 2.2636,-9.38546 5.46877,-20.09148 6.2484,-20.87111 0.44604,-0.44604 3.20675,-1.61178 6.13492,-2.59054 8.56734,-2.8637 17.84866,-7.84005 27.80506,-14.90822 7.23343,-5.13509 9.62606,-6.53935 10.7991,-6.33807 2.06603,0.35449 10.15441,4.94199 19.38805,10.99633 l 7.70604,5.05273 -1.82653,1.11078 c -4.31862,2.6263 -6.7853,3.56825 -9.34422,3.56825 h -2.70064 l -0.17085,-6.14484 -0.17085,-6.14484 -4.89824,-0.17335 c -4.74149,-0.1678 -4.96662,-0.11332 -7.03448,1.70229 -1.17492,1.03159 -5.29573,6.10041 -9.15734,11.26403 l -7.02111,9.3884 -0.6836,-3.7684 c -0.37598,-2.07263 -0.97773,-4.06254 -1.33723,-4.42204 -0.3595,-0.3595 -1.77931,-0.68315 -3.15513,-0.71922 -3.40664,-0.0893 -4.94041,1.78195 -6.34544,7.74177 -0.59632,2.52944 -1.44134,4.73602 -1.87782,4.90352 -0.43648,0.16749 -2.17959,-0.27146 -3.87357,-0.97544 -6.74044,-2.80121 -10.06945,-2.11303 -10.06945,2.08155 0,1.72085 0.70843,2.5901 5.84509,7.17203 6.65217,5.93376 8.44125,7.85965 10.83758,11.66633 l 1.69825,2.69774 -0.57106,9.16893 c -0.31409,5.04291 -0.42547,9.31453 -0.24753,9.49247 0.17795,0.17795 1.41922,0.4705 2.75838,0.65012 2.99984,0.40236 4.87974,-0.69646 6.29539,-3.67972 0.55934,-1.17873 1.10337,-2.14314 1.20894,-2.14314 0.10558,0 0.88943,1.05395 1.74188,2.3421 2.70379,4.0857 7.38758,4.49391 12.45715,1.08568 3.14283,-2.1129 2.9592,-3.47695 -1.18836,-8.82767 -2.8,-3.61225 -3.45381,-4.82161 -2.86906,-5.30691 0.68432,-0.56794 4.86383,-1.31408 22.58248,-4.0315 12.57842,-1.92908 20.98237,-5.88443 20.98237,-9.8754 0,-1.24803 -2.30028,-2.09794 -7.19395,-2.65806 -6.19651,-0.70922 -8.20593,-2.38973 -6.55223,-5.4797 1.30943,-2.4467 14.32924,-11.39046 15.74858,-10.81825 1.05097,0.4237 11.72099,9.46007 19.5365,16.54533 11.59607,10.51257 33.28664,32.52823 35.09213,35.61807 1.61842,2.76971 1.65266,2.98278 0.77057,4.79597 -2.13849,4.39587 -18.66903,23.79083 -34.53924,40.52425 -13.44656,14.17793 -30.07514,28.96472 -32.37274,28.78711 -0.20972,-0.0162 -2.92389,-0.68631 -6.0315,-1.48911 z"
       id="path46"
       transform="scale(0.26458333)" /><path
       style="display:inline;fill:#000000;fill-opacity:1;stroke:#000000;stroke-width:0.256001"
       d="m 105.29988,694.40752 c -0.37645,-0.11365 -1.14321,-0.46447 -1.70392,-0.77961 -0.81555,-0.45836 -1.03946,-0.74421 -1.11941,-1.42902 -0.16747,-1.43447 1.60023,-3.56758 11.3453,-13.69061 8.35352,-8.6775 16.43041,-17.63395 20.94152,-23.22203 2.99866,-3.71455 6.24955,-6.4888 23.06112,-19.67999 9.85784,-7.73495 13.68696,-10.95384 16.09925,-13.53361 3.43597,-3.6745 10.03459,-12.43512 16.67224,-22.13479 15.37196,-22.46325 20.98998,-29.76292 22.62485,-29.3972 0.60323,0.13494 -0.27678,2.43883 -3.1616,8.27713 -4.15897,8.41693 -10.98286,20.01554 -15.6689,26.63257 -7.88841,11.13897 -21.20913,24.82283 -37.20584,38.22012 -12.95067,10.84622 -15.99784,13.67438 -23.77939,22.0704 -6.05994,6.53845 -14.33706,15.78237 -18.44304,20.59725 -7.22717,8.47495 -7.51699,8.717 -9.66218,8.06939 z"
       id="path49"
       transform="scale(0.26458333)" /><path
       id="path52"
       style="fill:#000000;fill-opacity:1;stroke:#000000;stroke-width:0.268863"
       transform="scale(0.26458333)"
       d="m 204.36381,564.2879 c -2.36909,-3.26456 -7.60045,-12.595 -9.31507,-16.61398 -1.77725,-4.16579 -2.24974,-6.27123 -2.26262,-10.08237 -0.0104,-3.07459 0.0482,-3.48671 0.6881,-4.83953 2.01121,-4.25197 11.08361,-14.12065 22.87845,-24.88648 11.59985,-10.58785 18.94624,-15.91576 22.6444,-16.42265 1.03947,-0.14247 1.43443,-0.0231 3.35571,1.01404 1.29498,0.69907 2.17769,1.34605 2.17785,1.59624 1.4e-4,0.23139 0.44841,0.63442 0.99615,0.89562 0.87481,0.41716 1.03145,0.42628 1.28832,0.075 0.18403,-0.25168 0.43777,-0.31909 0.6845,-0.18185 0.21565,0.11995 2.63036,0.90881 5.36604,1.75304 2.73569,0.84423 5.25028,1.67794 5.58799,1.85269 l 0.61402,0.31773 -0.73675,0.92875 c -0.40521,0.51081 -1.93031,2.00683 -3.38911,3.32447 -3.34339,3.01989 -4.19378,4.08117 -3.66514,4.57408 0.55103,0.51379 2.24,0.86251 7.23512,1.49381 5.30171,0.67004 5.99699,0.87004 6.76263,1.94528 0.97282,1.3662 1.85158,3.77298 1.52241,4.16961 -0.51171,0.61658 -2.17893,0.39784 -3.53823,-0.4642 -3.13439,-1.98777 -3.92525,-2.27103 -6.35999,-2.27789 -2.07618,-0.006 -2.47078,0.0821 -4.31158,0.96127 -2.71167,1.29505 -5.99707,4.10148 -11.22446,9.58806 -12.18662,12.79088 -27.13453,30.27454 -33.21352,38.84781 -1.44172,2.03327 -2.67657,3.69686 -2.74411,3.69686 -0.0675,0 -0.53604,-0.56943 -1.04111,-1.2654 z m 40.45127,-70.3547 2.01207,0.89646" /></g></svg>
