<svg xmlns="http://www.w3.org/2000/svg" xml:space="preserve" width="393.242" height="394.229" viewBox="0 0 104.045 104.306"><path d="M21.068 104.149c-5.998-.738-11.508-3.952-15.446-8.485 3.552 1.843-.926-3.82-1.21-5.333-2.474-4.726-1.673-10.453-.961-15.543 1.19-3.907 3.807-7.207 6.337-10.08 1.544-2.112 5.936-2.48 5.174-3.603 6.41-2.925 13.432-3.954 20.026-6.327 4.02-1.776 4.07-8.9 8.97-8.903-2.698.425 2.648 4.625 2.94 7.186 2.962 3.06 3.417 6.756-1.352 8.153-7.086 5.125-15.336 8.223-23.817 10.124-5.814 1.198-11.92 5.171-12.322 11.664-.858 7.534 4.464 17.147 12.927 16.53 3.627-.096 4.21-1.428 7.561-2.64 3.296-1.689 5.224-3.144 5.423-6.347.712-1.48 1.706-3.081.989-.016 1.046-.399.598-.226 1.591.548 1.627-1.444 1.052.043.86.498.725-.058.176 3.877 1.855 1.198 1.094-2.825 1.536-8.098-1.826-10.516-3.692-3.09-10.012-1.241-12.471 2.314-1.861 3.074.259 5.181 2.223 6.443 1.404 1.53-.047-5.092 2.158-5.972 7.113-.075 1.394 10.529-3.601 7.28-5.159-1.672-4.087-8.148-.55-10.816 1.95-3.501 9.06-4.537 10.03-2.211 3.208.5 5.67 4.487 6.228 7.743.588 8.918-8.06 15.568-16.123 16.98-1.85.322-3.751.387-5.613.13m-2.087-1.851c-1.402-.967.296.912 0 0m-.068-.705c-2.41-1.306-.875.308 0 0m1.892-.134c2.134-.482-.087-2.668-2.906-1.676.282 1.553 3.638.748 2.906 1.676m-1.058-.175c-.366-.841-.716.7 0 0M17.525 99.9c-1.223-1.198-.86.957 0 0m-5.776-.84c-.627.193.71 1.233 0 0m4.295.284c-1.474.2.76-1.248-2.17-2.071-1.798-1.834-3.07-2.639-2.541-.491 1.412.023 1.945 3.76 4.71 2.562m11.139-.222c-.356-.989-1.11.948 0 0m.926-.265c-.395-.836-.597.91 0 0M10.045 97.64c-1.305-.452-.188.545 0 0m-1.65-.895c-.197-.62-1.12.97 0 0m30.428-1.593c1.133-1.546-1.32-2.096.033.267zm-4.331-.598c-.846-.467.73 1.155 0 0m3.406.084c-1.03-1.655-.563 1.569 0 0m-.288-.846c.8-1.459-1.87-.056-.733-2.57-2.187-.216-.016.877-.153 2.438-.395 1.164.643-.64.886.132m-1.725-1.172c-.532-1.337-1.085 1.642 0 0m2.917-.017c-.383-1.211-3.04.072-.176.311zm-31.33-.095c.903-.921-2.136.987 0 0m2.116-.412c-.591-1.053-.295 1.285 0 0m20.566-1.335c-1.306-.452-.19.544 0 0m-4.296-6.716c-.197-.62-1.12.97 0 0m.723-.69c-.964-1.818.174 2.354 0 0m.978-1.364c-.702-.771-.793 1.249 0 0m2.25-1.497c4.376-3.147-1.996-.583-.157.661zm1.87-.683c-.197-.619-1.12.97 0 0m1.239-.397c.412-1.488-1.764 1.136 0 0M3.68 93.236c-1.938-1.264-3.897-10.119-1.856-4.421.107 1.271 5.051 8.833 1.856 4.42M.393 85.67c-.535-3.854-.615-7.376.343-11.414-.205-2.114 3.66-6.939 1.583-2.834-1.28 4.16-1.741 8.46-1.506 12.921.097.448-.407 2.597-.42 1.327M3.171 68.63c4.093-8.662 13.05-13.504 18.7-21.07 4.424-5.71 8.204-11.948 13.166-17.221 2.761-3.04 5.846-6.7 8.97-9.755 6.336-6.66 13.178-13.134 21.77-16.728 3.523.31 2.32-.58.81-.392 2.558-1.995 6.534-1.886 8.274-1.327.417-2.016 3.066.704 1.799 1.471-1.08 1.006-3.313 6.008-1.439 8.681 2.285 4.642 8.084 4.414 10.91.498 3.862-2.196.69-7.625.092-8.824 1.104.709 3.068.969 3.165.917-.16 2.382.664-.06 2.498.858-1.51-.736-5.044-4.54-.773-1.758 6.478 3.012 1.671 10.318-2.334 13.03-5.023 3.745-11.484 3.415-17.29 4.64-1.115 3.157 3.118 1.083 5.558 1.297 3.659-1.297 5.43.683 1.661 2.763-2.346.9-3.557 4.778-5.354.476-2.735-3.813-2.931-.017-.536 1.901 3.15 4.317 4.594 10.863 10.621 12.03 4.891.377 7.139 8.982 12.2 4.963 3.684-2.789 13.069 2.592 5.596 3.927-2.438-1.598-6.458-4.098-7.738-.604-.37 3.529 8.716 8.647 3.646 10.485-2.33-2.597-2.2-4.076-3.367-6.149.8-1.252-3.311-3.053-3.46-.712-1.374-1.07 2.132-2.031.258-2.794-.797 1.21-.624-4.399-3.095-4.914-3.872-3.416-9.57-1.67-14.25-2.717-4.461-.148-7.145-5.111-9.616-7.353-.754-3.204-5.7-5.53-4.966-9.033.284-1.958 6.283-2.795 1.056-3.232-6.024 1.485-.897 8.775.87 11.17 1.93 2.613-.459 5.82-2.68 6.217.26-2.337-4.912-7.455-3.276-2.489 2.743 5.024 3.844 10.682 5.32 16.144 3.554 3.544 9.56 3.887 13.92 6.605 4.326 2.238 10.501 3.8 11.94-2.326 1.499-2.539 4.44-9.678 4.078-4.912.353 1.566-1.815 5.52-3.75 7.366-3.614 3.813 1.884 4.49 4.21 2.845 5.804 1.381.723 5.406-2.656 2.92-3.607-3.395-7.884-2.997-12.277-2.232-7.225-.035-14.562-2.024-20.879-5.518-4.28-3.331-7.1-8.184-8.43-13.386-4.121-5.969-8.115 3.315-10.068 6.6-3.696 4.029-9.808 3.693-14.55 5.773-4.693.866-9.873 4.619-12.98 5.927-1.216.812-2.193 2.968-3.506 4.264.524.29-2.41 3.212-1.818 1.678m87.308-3.798c-1.305-.452-.19.544 0 0m-.754-.653c-1.726-.345.468 1.05 0 0m-1.027.18c-1.126-.96-.64.479 0 0m2.117-.013c-.667-1.036-.729.556 0 0m4.101-11.525c.022-1.014-1.21 1.068 0 0m-1.815-1.985c1.154.968.454-2.442-.963-.68 1.97-1.668-.224 1.894.963.68m8.293-4.034c-.162-1.772-1.941 1.073 0 0m1.256-.226c-1.306-.453-.19.544 0 0m-6.442-.516c.022-1.114-.785 1.32 0 0m.953-.02c1.654.566 2.574-.463-.255-.476-.39.899-.34 1.007.255.476m-16.4-22.44c-.667-1.036-.729.556 0 0m9.157-16.89c-1.004-.34-1.69.841 0 0m-19.74-3.924c-.891-.972-.945 1.361 0 0m1.745.252c-.6-1.214-.954.735 0 0m10.191 49.547c-3.94-5.252 7.32-5.147 3.506.067-.92 1.025-2.596.892-3.506-.067M59.16 43.89c-1.365-3.122 3.531-4.162 3.922-4.453 5.97.475-1.41 4.1-3.67 5.303l-.105-.16zm30.28-2.046c-3.462-4.96 8.098-5.846 3.387-.962-.917.66-2.306 2.443-3.386.962M72.472 23.54c-1.2-1.344 1.381.232 0 0m7.496-9.864c.152-1.434 1.95-.88 3.72-1.601 3.669-1.45-3.787-3.604.64-4.828 3.367-2.416 1.583 7.042-2.289 6.207-.579.052-1.548.735-2.07.222m-2.246-.588c-1.848-2.062-2.736-5.833-.135-4.442 3.757-.383-4.228-2.58.596-4.206 1.941-1.64 6.03-1.256 4.14 1.365 4.57-1.953-2.686 1.4-2.18 3.736-1.35-1.375-2.187 3.738-2.451.91-1.545 1.78 3.997 2.857.583 2.278 2.135 1.325.492 1.096-.553.359m-.543-2.053c.015-1.312-.757.83 0 0m.668-1.275c-1.239-.927-1.852 1.095 0 0m.22 2.134c1.526-.167-.502.466 0 0m.845-.849c-1.642-1.194 2.522.768 0 0m5.752-7.78c-2.016-1.537-5.41-1.191-6.991.077-.867-2.797 2.355-1.44 2.53-1.554-1.106-1.686-2.727-1-5.495-.806 2.592-1.388 7.61-1.27 10.772.135 3.818 1.462 2.568 1.635.489 1.072-3.73-2.048 3.427 2.35-1.305 1.076" style="fill:#000"/></svg>