<?xml version="1.0" encoding="UTF-8" standalone="no"?>
<!-- Created with Inkscape (http://www.inkscape.org/) -->

<svg
   width="104.04532mm"
   height="104.30648mm"
   viewBox="0 0 104.04532 104.30648"
   version="1.1"
   id="svg1"
   xml:space="preserve"
   xmlns="http://www.w3.org/2000/svg"
   xmlns:svg="http://www.w3.org/2000/svg"><defs
     id="defs1" /><g
     id="layer1"
     transform="translate(-52.96869,-96.346769)"><g
       id="g1"
       transform="translate(52.968695,96.346764)"><path
         style="fill:#000000"
         d="m 21.067736,104.14881 c -5.99816,-0.73821 -11.5077531,-3.95189 -15.4460571,-8.484336 3.551924,1.84256 -0.926102,-3.81967 -1.209179,-5.33325 -2.474739,-4.72601 -1.673953,-10.45325 -0.961492,-15.54335 1.190132,-3.90647 3.807374,-7.20652 6.336534,-10.08045 1.5446361,-2.11094 5.9364701,-2.47898 5.1748121,-3.60217 6.409163,-2.92559 13.431253,-3.95404 20.026101,-6.32711 4.02029,-1.776 4.069131,-8.89969 8.969439,-8.90294 -2.6981,0.42483 2.648049,4.62433 2.939995,7.18609 2.96204,3.05905 3.41691,6.75551 -1.35163,8.15256 -7.086712,5.12491 -15.335901,8.22362 -23.817413,10.12405 -5.813531,1.19804 -11.9205231,5.17144 -12.3216751,11.66366 -0.858146,7.53481 4.4636801,17.147276 12.9270831,16.53056 3.626406,-0.0961 4.210281,-1.42849 7.561214,-2.63944 3.295753,-1.68955 5.223221,-3.14473 5.422777,-6.34729 0.711277,-1.4802 1.705455,-3.08143 0.98841,-0.0161 1.046518,-0.39884 0.598015,-0.22616 1.591749,0.54763 1.626107,-1.44418 1.051385,0.043 0.859902,0.49817 0.724813,-0.0579 0.176047,3.87697 1.854817,1.19767 1.094182,-2.82469 1.535772,-8.0978 -1.826041,-10.51567 -3.692482,-3.09002 -10.011893,-1.24117 -12.471174,2.31359 -1.861405,3.07411 0.258646,5.18173 2.223338,6.44283 1.404246,1.53107 -0.04754,-5.09144 2.157729,-5.97147 7.113213,-0.0747 1.394088,10.52874 -3.601176,7.2798 -5.158595,-1.67195 -4.087186,-8.14817 -0.549571,-10.81537 1.949895,-3.50146 9.059122,-4.53791 10.029266,-2.21189 3.208657,0.50052 5.670746,4.48704 6.228738,7.74306 0.587619,8.9182 -8.060694,15.568586 -16.123097,16.979536 -1.850155,0.32257 -3.751175,0.38828 -5.613399,0.13165 z m -2.087048,-1.85088 c -1.401316,-0.96668 0.296638,0.91184 0,0 z m -0.0678,-0.70494 c -2.409472,-1.30635 -0.874859,0.30804 0,0 z m 1.892089,-0.13377 c 2.133568,-0.48266 -0.08678,-2.667736 -2.906464,-1.675936 0.282585,1.553076 3.638536,0.747426 2.906464,1.675936 z m -1.057798,-0.17553 c -0.366233,-0.84093 -0.716573,0.70077 0,0 z m -2.2217,-1.382616 c -1.22331,-1.19801 -0.860424,0.957166 0,0 z m -5.776264,-0.8394 c -0.627578,0.19245 0.710721,1.232666 0,0 z m 4.294525,0.28292 c -1.473329,0.20019 0.76019,-1.24807 -2.169276,-2.07075 -1.798323,-1.83371 -3.070839,-2.63872 -2.541427,-0.49128 1.412144,0.0231 1.944815,3.761166 4.710703,2.56199 z m 11.139031,-0.22166 c -0.355786,-0.98853 -1.110537,0.948036 0,0 z m 0.926041,-0.26458 c -0.394992,-0.83615 -0.597131,0.90871 0,0 z m -18.063324,-1.21819 c -1.3054591,-0.4521 -0.1889751,0.54445 0,0 z m -1.6500061,-0.89545 c -0.197301,-0.61886 -1.11975,0.97018 0,0 z m 30.4278001,-1.5924 c 1.132705,-1.54622 -1.319439,-2.09657 0.03238,0.2664 l -0.03238,-0.26645 z m -4.331639,-0.59785 c -0.845275,-0.46751 0.729874,1.15416 0,0 z m 3.406752,0.0832 c -1.03084,-1.6542 -0.563001,1.5691 0,0 z m -0.288515,-0.84517 c 0.800107,-1.45943 -1.870045,-0.0566 -0.732653,-2.57109 -2.187193,-0.215 -0.01626,0.87752 -0.153125,2.43829 -0.395152,1.16448 0.642648,-0.63877 0.885778,0.1328 z m -1.724621,-1.17236 c -0.532209,-1.33731 -1.085627,1.64234 0,0 z m 2.917098,-0.0174 c -0.383781,-1.21122 -3.039679,0.0724 -0.176567,0.3114 l 0.176569,-0.31164 z m -31.3310441,-0.0944 c 0.90338,-0.92168 -2.134961,0.98626 0,0 z m 2.116667,-0.41249 c -0.590975,-1.05247 -0.295052,1.28544 0,0 z m 20.5658411,-1.33486 c -1.305355,-0.45199 -0.189034,0.54438 0,0 z m -4.29584,-6.71629 c -0.1973,-0.61886 -1.11975,0.97018 0,0 z m 0.723438,-0.68882 c -0.96466,-1.81892 0.173094,2.3536 0,0 z m 0.977338,-1.36473 c -0.702019,-0.77111 -0.792652,1.24851 0,0 z m 2.249727,-1.49736 c 4.376853,-3.14674 -1.995934,-0.58288 -0.156797,0.66146 l 0.156794,-0.66146 z m 1.87033,-0.68242 c -0.197303,-0.61888 -1.119747,0.9702 0,0 z m 1.238891,-0.39761 c 0.412572,-1.48821 -1.763617,1.1366 0,0 z M 3.6814529,93.235934 c -1.938631,-1.26382 -3.89731197,-10.11892 -1.856303,-4.42095 0.107205,1.27104 5.051172,8.83302 1.856303,4.42095 z m -3.28811497,-7.56513 c -0.535744,-3.85334 -0.61559,-7.37602 0.342252,-11.41407 -0.204195,-2.11412 3.65988297,-6.93838 1.58383597,-2.83399 -1.280587,4.15964 -1.74180897,8.45956 -1.50687397,12.92154 0.09718,0.44781 -0.406977,2.59636 -0.419214,1.32652 z M 3.1707029,68.629684 c 4.093792,-8.66207 13.0499331,-13.50417 18.7001991,-21.06931 4.423932,-5.7095 8.2042,-11.94802 13.165906,-17.22152 2.761622,-3.04037 5.845702,-6.6996 8.969243,-9.75481 6.336708,-6.66072 13.178938,-13.1341905 21.771388,-16.7284005 3.52233,0.31018 2.32042,-0.57938 0.81043,-0.39206 2.557,-1.99504 6.53277,-1.88584 8.2732,-1.3264 0.41657,-2.01610997 3.06545,0.70424 1.79875,1.47114 -1.08076,1.00518 -3.31327,6.00735 -1.43835,8.6811205 2.28475,4.64134 8.08372,4.4135 10.91008,0.49785 3.8619,-2.19621 0.69006,-7.6256905 0.0911,-8.8246505 1.10406,0.70904 3.06821,0.96918 3.16573,0.91688 -0.16029,2.38258 0.66402,-0.0595 2.49758,0.85882 -1.51012,-0.73639 -5.04395,-4.54005 -0.77293,-1.75879 6.47817,3.01216 1.67119,10.3185105 -2.33363,13.0295005 -5.02307,3.74549 -11.48391,3.41573 -17.28969,4.64105 -1.11581,3.15727 3.117,1.08256 5.55775,1.2971 3.65843,-1.29763 5.43016,0.68287 1.66054,2.76312 -2.34647,0.90028 -3.55725,4.77788 -5.35398,0.47587 -2.73502,-3.81346 -2.93131,-0.0172 -0.53647,1.90084 3.14964,4.31702 4.59412,10.86297 10.62144,12.02962 4.89142,0.37715 7.13896,8.98186 12.20045,4.96309 3.68374,-2.78835 13.068391,2.59189 5.595641,3.92692 -2.438401,-1.59774 -6.457591,-4.09773 -7.738411,-0.60361 -0.36887,3.52891 8.715901,8.64673 3.6462,10.4846 -2.33066,-2.59621 -2.2007,-4.0758 -3.36672,-6.14826 0.80038,-1.25213 -3.31121,-3.05375 -3.45951,-0.7124 -1.37471,-1.07011 2.13141,-2.03119 0.25711,-2.79383 -0.79675,1.20965 -0.62359,-4.39868 -3.09509,-4.91429 -3.87117,-3.41615 -9.57,-1.67056 -14.25043,-2.71666 -4.46043,-0.14821 -7.14385,-5.11151 -9.61476,-7.35273 -0.75418,-3.2049 -5.69961,-5.5301 -4.96598,-9.0332 0.28308,-1.95863 6.28217,-2.79545 1.0558,-3.23262 -6.02468,1.48523 -0.89753,8.77486 0.8706,11.17103 1.92976,2.61222 -0.4597,5.81935 -2.68042,6.21645 0.25908,-2.33745 -4.91242,-7.45497 -3.27647,-2.48911 2.74301,5.02385 3.84413,10.68234 5.32068,16.14412 3.55378,3.54396 9.55945,3.88717 13.91879,6.60517 4.32652,2.23743 10.50165,3.80037 11.94103,-2.32626 1.49842,-2.53865 4.43928,-9.67797 4.07762,-4.9125 0.35303,1.56629 -1.81484,5.52098 -3.75049,7.36685 -3.61362,3.81255 1.88447,4.48873 4.21021,2.8445 5.80461,1.38144 0.72346,5.40573 -2.65611,2.91918 -3.60637,-3.39406 -7.88352,-2.99561 -12.27684,-2.23096 -7.22517,-0.0348 -14.56186,-2.02368 -20.87865,-5.51823 -4.27991,-3.33118 -7.09986,-8.18436 -8.429535,-13.38579 -4.121685,-5.96884 -8.116033,3.31522 -10.069182,6.6002 -3.695462,4.02863 -9.80736,3.6931 -14.549686,5.77279 -4.693127,0.86636 -9.872877,4.6187 -12.9795201,5.92689 -1.216499,0.81151 -2.193735,2.96837 -3.50672,4.26358 0.524493,0.29021 -2.409887,3.21233 -1.817863,1.67811 z m 87.3081161,-3.79787 c -1.30513,-0.4517 -0.18903,0.54431 0,0 z m -0.75342,-0.65326 c -1.72673,-0.34499 0.46807,1.05075 -10e-6,10e-6 z m -1.02701,0.17996 c -1.12661,-0.95948 -0.63971,0.47939 0,0 z m 2.11667,-0.0127 c -0.66738,-1.03607 -0.7287,0.55619 0,0 z m 4.10104,-11.52499 c 0.0222,-1.0137 -1.21001,1.06768 0,0 z m -1.81547,-1.98438 c 1.15393,0.96713 0.45404,-2.44201 -0.96247,-0.68031 1.96928,-1.66781 -0.22428,1.8939 0.96247,0.68031 z m 8.293711,-4.03489 c -0.16201,-1.77194 -1.941601,1.07356 0,0 z m 1.25531,-0.226 c -1.30546,-0.45208 -0.18897,0.54444 0,0 z m -6.441971,-0.51535 c 0.022,-1.11374 -0.78512,1.31931 0,0 z m 0.95333,-0.02 c 1.6539,0.56531 2.57405,-0.46295 -0.25526,-0.47605 -0.39024,0.89883 -0.33973,1.00652 0.25526,0.47605 z m -16.40012,-22.44022 c -0.66736,-1.03604 -0.7287,0.55616 0,0 z m 9.15711,-16.8897105 c -1.00382,-0.33965 -1.69026,0.84121 0,0 z m -19.74044,-3.92398 c -0.89059,-0.9725 -0.94422,1.36078 0,0 z m 1.74506,0.25202 c -0.59956,-1.2147 -0.95369,0.73494 0,0 z m 10.19151,49.5462805 c -3.94068,-5.25185 7.32001,-5.1466 3.50548,0.0679 -0.92018,1.02452 -2.59609,0.89146 -3.50548,-0.0679 z m -22.95526,-8.69343 c -1.36502,-3.12176 3.53142,-4.16248 3.92169,-4.45296 5.97018,0.47472 -1.40962,4.0995 -3.67009,5.30295 l -0.10403,-0.16025 -0.14753,-0.68974 z m 30.28108,-2.04578 c -3.46313,-4.96115 8.09724,-5.84659 3.38597,-0.96232 -0.91741,0.65959 -2.30556,2.443 -3.38597,0.96232 z m -16.96933,-18.30508 c -1.20053,-1.34399 1.38156,0.23212 0,0 z m 7.49652,-9.86395 c 0.15227,-1.43481 1.95019,-0.88064 3.71979,-1.60133 3.66895,-1.4496 -3.78693,-3.6041205 0.64079,-4.8279305 3.36652,-2.41599 1.58218,7.0417905 -2.28951,6.2072205 -0.57891,0.0514 -1.54826,0.73423 -2.07107,0.22204 z m -2.24651,-0.58835 c -1.8473,-2.06203 -2.73543,-5.8326705 -0.13493,-4.4419905 3.75706,-0.38349 -4.22751,-2.5795 0.59642,-4.20587 1.94135,-1.64087 6.03025,-1.25581 4.14065,1.36533 4.56937,-1.95358 -2.68676,1.39989 -2.17992,3.73514 -1.35029,-1.37467 -2.18757,3.7381705 -2.45203,0.9111005 -1.5448,1.77986 3.99672,2.85648 0.58312,2.27736 2.13471,1.32506 0.49232,1.09562 -0.55331,0.35893 z m -0.54291,-2.05303 c 0.0154,-1.3120405 -0.75681,0.82987 0,0 z m 0.66871,-1.2750605 c -1.23903,-0.92659 -1.85224,1.0946205 0,0 z m 0.21902,2.1343705 c 1.52675,-0.16683 -0.50188,0.46615 0,0 z m 0.84603,-0.84912 c -1.64261,-1.1938705 2.52122,0.76746 0,0 z m 5.75202,-7.7806105 c -2.01629,-1.53645 -5.41009,-1.19077 -6.99153,0.0774 -0.86685,-2.79701997 2.35468,-1.43934 2.53014,-1.55437 -1.1065,-1.68552997 -2.72726,-0.99905997 -5.49508,-0.80542997 2.59187,-1.38801 7.6098,-1.27035 10.77232,0.13498997 3.81783,1.46186 2.56805,1.63444 0.4885,1.0715 -3.73018,-2.04774997 3.42712,2.35108 -1.30435,1.07593 z"
         id="path25" /></g></g></svg>
