<?xml version="1.0" encoding="UTF-8"?>
<svg xmlns="http://www.w3.org/2000/svg" viewBox="0 0 358 370">
  <g>
    <path d="m212.69,214.01c-10.47,0-20.94-.11-31.4.06-4.04.06-5.64-1.35-5.6-5.5.16-15.45.14-30.9.01-46.36-.03-3.89,1.47-5.3,5.3-5.28,15.28.11,30.57.14,45.85-.01,4.24-.04,5.45,1.79,5.4,5.72-.14,11.63-.08,23.26-.02,34.89.03,5.4.55,5.61,6.74,5.73,4.06.08,5.91-.99,5.79-5.6-.32-11.95-.04-23.92-.15-35.89-.03-3.2.97-4.53,4.33-4.26,21.78,1.71,42.55,6.96,61.73,17.66,3.31,1.85,6.25,4.36,9.3,6.66,3.1,2.33,3.31,4.95.06,7.21-4.89,3.41-9.66,7.15-14.98,9.74-20.3,9.89-41.95,14.52-64.45,15.17-9.3.27-18.61.04-27.91.05Z"/>
    <path d="m180.91,75.58c-11.46,0-22.93-.11-34.39.06-4.04.06-5.64-1.33-5.6-5.49.16-15.12.15-30.24,0-45.35-.04-3.95,1.14-5.74,5.39-5.7,15.45.16,30.9.16,46.35,0,4.3-.04,5.42,1.89,5.38,5.76-.12,11.46.15,22.93-.13,34.39-.11,4.57,1.35,6.17,5.93,5.94,6.01-.31,6.29-.2,6.34-6.06.09-11.46.16-22.93.01-34.39-.06-4.48,1.86-5.89,6.08-5.41,20.44,2.33,40.25,6.89,58.42,16.94,4.17,2.3,7.86,5.51,11.67,8.42,2.18,1.66,2.21,3.69.02,5.36-3.81,2.91-7.48,6.17-11.67,8.42-19.77,10.62-41.06,15.99-63.4,16.98-10.11.45-20.26.08-30.4.08,0,.02,0,.04,0,.06Z"/>
    <path d="m249.92,351.83c-11.3,0-22.6-.14-33.89.07-4.37.08-5.88-1.62-5.84-5.85.13-14.95.13-29.91,0-44.86-.04-4.23,1.48-5.9,5.84-5.85,15.12.18,30.24.19,45.36,0,4.51-.06,5.67,1.79,5.6,5.96-.2,11.63.1,23.27-.15,34.89-.09,4.38,1.73,5.42,5.62,5.22,3.54-.19,7.06.53,6.96-5.04-.23-11.79.05-23.59-.1-35.39-.05-4.03,1.24-5.89,5.48-5.43,21.31,2.33,41.89,7.16,60.68,17.92,3.57,2.04,6.73,4.83,9.96,7.41,2.13,1.7,2.13,3.8,0,5.45-3.8,2.94-7.5,6.14-11.69,8.39-19.62,10.54-40.76,15.89-62.93,16.95-10.28.49-20.6.08-30.9.08,0,.02,0,.05,0,.07Z"/>
    <path d="m74.53,162.89c21.94,0,43.88-.01,65.82,0,5.25,0,6.64,1.42,5.67,6.57-.27,1.46-2.22,2.65-3.49,3.86-.27.26-.96.08-1.46.08-44.38,0-88.75-.02-133.13.02-3.32,0-4.73-1.25-4.86-4.7-.15-4.17,1.1-5.97,5.63-5.93,21.94.18,43.88.08,65.82.08Z"/>
    <path d="m111.74,311.79c-20.77,0-41.55,0-62.32,0-5.85,0-7.21-1.5-6.05-7.18.26-1.26,1.74-2.51,2.97-3.25.87-.53,2.27-.24,3.43-.24,41.38,0,82.76.01,124.14-.04,3.97,0,6.8.47,6.6,5.6-.15,3.93-1.67,5.21-5.45,5.16-10.97-.15-21.94-.05-32.9-.05-10.14,0-20.27,0-30.41,0Z"/>
    <path d="m83.14,208.1c-18.93,0-37.86.01-56.79,0-5.62,0-6.3-.88-6.12-6.29.1-2.95,1.34-4.24,4.22-4.23,4.65.03,9.3-.02,13.95-.03,33.88,0,67.75.03,101.63-.04,3.88,0,6.37.64,6.24,5.4-.11,3.86-1.49,5.26-5.35,5.24-19.26-.12-38.53-.06-57.79-.05Z"/>
    <path d="m128.94,346.14c-17.1,0-34.21-.06-51.31.04-3.96.02-5.69-1.3-5.62-5.51.06-3.89,1.49-5.3,5.32-5.26,11.46.14,22.92.05,34.37.05,22.92,0,45.83.08,68.75-.07,4.26-.03,5.94,1.3,5.87,5.72-.07,4.12-2.02,5.06-5.57,5.05-14.45-.07-28.89-.02-43.34-.01-2.82,0-5.65,0-8.47,0v-.02Z"/>
    <path d="m57.86,59.21c15.92,0,31.84.06,47.77-.05,3.74-.03,5.85.71,5.9,5.16.05,4.58-1.99,5.62-6.03,5.61-32.18-.08-64.35-.09-96.53,0-4.17.01-5.96-1.3-5.92-5.74.04-4.55,2.42-5.04,6.05-5.02,16.25.09,32.51.04,48.76.04Z"/>
    <path d="m71.82,35.53c-11.45,0-22.9-.08-34.35.05-3.61.04-5.6-.88-5.61-4.97-.02-3.91,1.19-5.8,5.4-5.78,23.06.1,46.13.09,69.19.01,4.01-.01,5.03,1.86,5.06,5.54.03,3.92-1.52,5.26-5.33,5.21-11.45-.15-22.9-.05-34.35-.05Z"/>
    <path d="m94.25,231.08c-9.46,0-18.92-.11-28.38.05-3.92.07-5.3-1.57-5.3-5.33,0-3.82,1.54-5.3,5.38-5.28,19.25.1,38.5.11,57.76,0,4.14-.02,4.98,2.07,4.98,5.61,0,3.61-1.42,5.04-5.06,4.99-9.79-.14-19.58-.05-29.38-.05Z"/>
    <path d="m115,139.94c8.63,0,17.26.12,25.89-.05,3.83-.08,5.37,1.31,5.36,5.21,0,3.77-1.29,5.41-5.22,5.38-17.26-.11-34.52-.12-51.78,0-4.03.03-5.68-1.38-5.64-5.5.04-3.96,1.75-5.17,5.49-5.1,8.63.17,17.26.05,25.89.05Z"/>
    <path d="m88.66,92.91c-5.96,0-11.92-.05-17.88.01-3.82.04-4.65-2.08-4.65-5.43,0-3.38.87-5.36,4.7-5.33,11.92.09,23.85.09,35.77,0,3.69-.03,4.88,1.61,4.89,5.14.01,3.59-.88,5.73-4.94,5.65-5.96-.12-11.92-.03-17.88-.03Z"/>
    <path d="m146.6,369.17c-5.96,0-11.93-.09-17.89.02-4.13.08-4.85-2.21-4.86-5.72,0-3.61,1.37-5.09,4.98-5.06,11.76.1,23.52.12,35.28-.01,3.97-.04,5.11,1.71,5.12,5.44.02,3.85-1.45,5.44-5.25,5.37-5.79-.11-11.59-.03-17.39-.04Z"/>
    <path d="m54,12.56c-1.49,0-2.97,0-4.46,0-5.92-.04-7.21-1.32-6.16-7.02.25-1.34,1.98-3.34,3.16-3.43,5.09-.39,10.22-.29,15.34-.17,3.9.09,3.53,3.06,3.63,5.75.11,2.93-.77,4.86-4.07,4.86-2.48,0-4.95,0-7.43,0v.02Z"/>
    <path d="m65.81,288.81c-1.65,0-3.3-.08-4.94.02-3.63.22-5.96-.57-6.01-5.03-.04-4.36,1.71-5.96,5.87-5.77,3.45.16,6.93.16,10.38,0,4.24-.19,5.9,1.62,5.81,5.87-.09,4.07-2.15,5.11-5.68,4.92-1.81-.1-3.63-.02-5.44-.02Z"/>
  </g>
</svg>