<?xml version="1.0" encoding="UTF-8"?>
<svg xmlns="http://www.w3.org/2000/svg" viewBox="0 0 473 472">
  <g>
    <path d="m208,1c80.67,0,161.33,0,242,0,2.16,10.88,4.76,21.69,6.39,32.64,5.09,34.25,9.87,68.54,14.63,102.84.97,7.02,1.34,14.12,1.98,21.19v23.95c-.64,4.06-1.32,8.11-1.91,12.17-8.28,56.26-55.66,99.83-112.79,103.64-6.09.41-12.2.63-18.42.94-.13,1.18-.29,1.98-.29,2.78-.02,22.12.04,44.23-.09,66.35-.02,3.26,1.4,4.18,4.26,4.8,19.65,4.24,39.28,8.6,58.9,12.98,20.56,4.59,32.98,24.28,28.29,45.62h-88.19c14.71,13.91,28.39,26.85,42.86,40.54-2.71.14-4.3.3-5.88.3-10.17.02-20.33.01-30.5.01-108.82,0-217.64-.03-326.46.1-4.17,0-6.45-1.06-7.37-5.18-3.73-16.64-7.96-33.18-11.24-49.91-1.84-9.37-2.17-19.04-3.17-28.58,0-6.99,0-13.97,0-20.96.69-9.58,1.23-19.17,2.09-28.73,1.72-19.19,4.22-38.24,9.86-56.78,1.07-3.52,2.71-4.43,6.23-4.42,50.32.11,100.65.23,150.97-.1,7.11-.05,11.99,2.11,17.01,6.91,32.14,30.69,64.56,61.09,96.95,91.53,1.21,1.13,3.21,2.52,4.53,2.26,10.07-1.99,20.07-4.37,30.05-6.62v-73.23c-2.52,0-4.8.02-7.08,0-17.3-.13-34.24-2.51-50.11-9.65-44.75-20.13-70.67-54.57-75.14-103.38-2.92-31.89,1.32-63.73,6.37-95.28,4.74-29.63,10.15-59.16,15.26-88.73Zm240.36,112.57c-4.97-30.73-9.89-61.11-14.79-91.41h-208.86c-4.92,30.48-9.81,60.83-14.74,91.41h238.4ZM49.74,298.04l-1.01,1.63c1.22.82,2.58,1.5,3.64,2.49,51.86,48.81,103.68,97.66,155.62,146.39,1.58,1.48,4.33,2.42,6.54,2.43,37.98.15,75.96.11,113.93.09,1.4,0,2.8-.17,4.84-.31-1.16-1.24-1.78-1.97-2.48-2.62-52.06-49.09-104.1-98.19-156.27-147.16-1.81-1.69-4.93-2.8-7.44-2.82-37.48-.18-74.96-.12-112.44-.12h-4.94Z"/>
    <path d="m188.89,356.73c-.09-5.37,1.94-7.52,6.54-7.4,1.62.04,3.33.32,4.83.92,10.82,4.38,18.69,11.97,22.86,22.8,1.08,2.8,1.03,7.68-.71,9.46-1.73,1.77-6.64,1.95-9.44.91-11.08-4.13-18.76-12.13-23.23-23.08-.55-1.35-.68-2.87-.84-3.6Z"/>
    <path d="m118.24,312.42c7.79.08,20.43,12.52,20.71,20.38.14,3.84-2.12,5.81-5.97,5.21-7.61-1.18-18.3-11.69-19.67-19.36-.7-3.9,1.17-6.27,4.93-6.23Z"/>
    <path d="m212.61,400.19c7.88-.02,20.5,12.49,20.64,20.46.07,3.82-1.91,5.53-5.62,5.1-7.64-.88-18.59-11.63-19.74-19.26-.64-4.28.87-6.3,4.72-6.31Z"/>
  </g>
</svg>