<?xml version="1.0" encoding="UTF-8"?>
<svg xmlns="http://www.w3.org/2000/svg" viewBox="0 0 876.36 739.56">
  <g>
    <path d="m795,313.56c34,11.08,70.55,44.76,59.06,84.18-5.74,19.69-18.45,39.13-29.58,56.19-10.95,16.79-23.54,36.62-39.03,49.61-39.92-39.84-79.69-79.54-120.12-119.89,33.35-29.36,69.49-55.26,112.66-70.09,5.67,0,11.33,0,17,0Z"/>
    <path d="m642.33,400.67c41.99,41.9,84.48,84.29,126.7,126.41-55.86,55.72-112.03,111.76-168.58,168.19-44.75-39.39-89.92-79.15-134.62-118.5,58.99-58.85,117.84-117.57,176.51-176.1Z"/>
    <path d="m579.37,716.15c-7.17,7.11-14.57,14.44-21.61,21.42-42.02-41.93-84.49-84.29-126.49-126.2,6.85-6.84,14.3-14.28,21.52-21.5,41.87,41.77,84.36,84.16,126.57,126.27Z"/>
  </g>
  <g>
    <path d="m486.55,264.72c59.07-59.07,117.71-117.7,175.96-175.95,42.19,42.2,84.57,84.59,126.46,126.49-55.42,55.42-111.54,111.53-168.03,168.03-44.21-39-89.27-78.77-134.38-118.57Z"/>
    <path d="m685.86,71.7c27.87-22.16,55.13-43.45,87.18-59.41,33.16-16.51,59.78-10.25,84.84,16.96,25.47,27.65,20.04,53.64,3.88,84.57-14.02,26.84-32.49,58.14-55.71,78.11-39.9-39.91-79.66-79.68-120.19-120.23Z"/>
    <path d="m451.85,299.55c7.27-7.27,14.53-14.53,21.41-21.4,42.14,42.14,84.49,84.51,126.36,126.38-6.77,6.77-14.19,14.21-21.38,21.41-41.7-41.7-84.09-84.09-126.39-126.38Z"/>
  </g>
  <g>
    <path d="m367.14,313.56c33.92,11.08,70.38,44.76,58.92,84.18-5.72,19.69-18.41,39.13-29.51,56.19-10.92,16.79-23.49,36.62-38.93,49.61-39.83-39.84-79.51-79.54-119.84-119.89,33.28-29.36,69.33-55.26,112.4-70.09,5.65,0,11.31,0,16.96,0Z"/>
    <path d="m214.6,400.3c42.09,42.1,84.48,84.5,126.51,126.52-55.77,55.76-111.89,111.89-168.27,168.26-44.59-39.35-89.66-79.11-134.42-118.61,59.01-59.01,117.73-117.73,176.18-176.18Z"/>
    <path d="m151.64,716.48c-6.88,6.92-14.22,14.3-21.33,21.43-42.12-42.12-84.51-84.51-126.6-126.6,7.08-7.04,14.46-14.38,21.45-21.33,41.96,41.96,84.4,84.42,126.48,126.5Z"/>
  </g>
  <g>
    <path d="m367.14,1c33.92,11.08,70.38,44.76,58.92,84.18-5.72,19.69-18.41,39.13-29.51,56.19-10.92,16.79-23.49,36.62-38.93,49.61-39.83-39.84-79.51-79.54-119.84-119.89C271.06,41.72,307.11,15.83,350.18,1c5.65,0,11.31,0,16.96,0Z"/>
    <path d="m214.6,87.74c42.09,42.1,84.48,84.5,126.51,126.52-55.77,55.76-111.89,111.89-168.27,168.26-44.59-39.35-89.66-79.11-134.42-118.61,59.01-59.01,117.73-117.73,176.18-176.18Z"/>
    <path d="m151.64,403.92c-6.88,6.92-14.22,14.3-21.33,21.43-42.12-42.12-84.51-84.51-126.6-126.6,7.08-7.04,14.46-14.38,21.45-21.33,41.96,41.96,84.4,84.42,126.48,126.5Z"/>
  </g>
</svg>