<svg xmlns="http://www.w3.org/2000/svg" width="128pt" height="164pt" viewBox="0 0 128 164"><path d="M100.965 93.805q.105 1.277 1.383 1.172 1.277-.001 1.172-1.704c-.07-1.062-.606-2.125-1.598-3.191l-2.45-2.125q-1.064-.534-1.706.531c-.426.707-.317 1.278.32 1.7l1.492 1.277zm-1.813-14.04c-.64-.28-1.136-.07-1.492.641-.426.707-.14 1.383.852 2.02l4.05 2.87 3.301 3.724c1.137 1.418 1.809 1.773 2.024 1.062l-.957-2.977-2.664-3.617q-2.451-2.763-5.114-3.722M47.81 117.098q4.047.85 7.351 2.55v6.809l-7.351-2.129zm9.48 10.101v-6.273c3.336 2.41 5.504 5.46 6.496 9.148zm-11.61-10.422v7.125l-9.906-1.273v-5.531zm.957-3.614q-8.736-.64-17.149 2.55-8.735 3.299-13.21 9.145c-.637.782-.712 1.418-.212 1.918q.212.743 1.278.532 12.25-2.235 24.605-.11 12.784 2.127 23.117 8.403.957.64 1.918-.532l.957-2.02q-.105-18.398-21.304-19.886m-8.52-28.93q-4.58 4.788-5.969 7.125-2.982 4.788-1.277 8.508 1.811 3.831 5.328 4.68l5.004-.531q1.812-.85.64-8.614-1.17-7.763-3.726-11.168M13.187 69.45c-1.562 2.34-1.843 5.852-.851 10.531.996 4.75 3.23 7.622 6.71 8.614q5.222 1.489 10.122-4.149 5.858-6.486 5.219-15.527-.64-9.679-10.227-6.168c-5.75 2.125-9.41 4.36-10.972 6.7m13.316-1.063q4.05.85 2.238 8.297-1.81 6.486-5.754 5.636-2.236-.428-3.3-2.87c-.641-1.563-.711-3.298-.215-5.216q.749-2.975 2.77-4.68 2.133-1.7 4.26-1.167m40.161.21c-10.016-5.175-15.871-4.359-17.578 2.45-1.563 5.953-.281 11.875 3.836 17.762q4.582 6.485 11.824 6.168 7.138-.323 11.504-6.915c2.91-4.394 3.766-7.835 2.555-10.316-1.278-2.555-5.325-5.601-12.14-9.148M56.542 80.406q.002-6.808 5.219-6.808 2.984 0 5.113 2.129c1.422 1.418 2.133 3.117 2.133 5.105q0 2.975-2.133 5.102-2.129 2.128-5.113 2.129c-3.477 0-5.219-2.555-5.219-7.657m-49-34.355 6.5 2.98q-3.094 4.465-5.86 10.102-4.474-4.677-.64-13.082m92.781-14.356c-.285-1.066-1.101-1.418-2.449-1.066-1.281.355-2.45 1.277-3.516 2.766q-1.6 2.127-1.918 3.722c-.285.992.07 1.633 1.067 1.914q1.49.427 2.023-.957l1.172-2.02q1.278-2.127 2.45-2.445 1.599-.427 1.171-1.914m-6.07-7.87-3.73 4.148q-2.662 3.72-3.196 7.336-.322 1.276 1.172 1.703c1.066.285 1.848-.25 2.344-1.594l.746-2.023 1.597-3.723 3.727-4.996q2.131-2.766.746-2.871-1.066-.11-3.406 2.02m20.023.956c-.71.282-1.207.817-1.492 1.594-.351.852-.176 1.453.535 1.809q10.652 6.063 14.594 11.593-3.2-.743-7.137-.105l-1.597 1.168q-.75 1.064-.32 1.914c3.195 6.383 5.003 12.16 5.433 17.336.426 4.894-.32 10.422-2.238 16.594l-1.918 5.527q-1.599-9.147-7.668-15.633l-5.754-5.316-4.262-3.086-.21-8.934q-.534-5.314-2.345-8.297l-2.449-.105q-1.705 1.172-.96 2.445 1.6 2.768 2.132 7.55l.211 8.298 4.262 2.765q4.898 2.98 7.242 5.957 7.99 9.997 7.457 18.293c-1.918-5.246-4.543-9.996-7.883-14.253-3.836-4.606-6.566-7.23-8.203-7.868q-1.384-.638-2.023.317-.637.854.425 1.597l2.664 2.34 5.22 5.317q4.688 4.893 9.054 14.89l-.746 2.02q-3.3-7.975-7.883-12.762-3.833-4.149-6.816-5.426c-.782-.351-1.278-.07-1.493.852q-.317 1.278 1.282 2.34l5.113 4.148 5.219 7.02 3.726 5.957-.32.851-1.809.422q-1.597.744-.535 2.555 7.671 6.382 2.985 15.101-4.687 8.725-14.38 7.125c-6.82 11.063-15.019 19.43-24.609 25.102-2.554 1.418-2.344 2.09.64 2.02q4.477-.212 9.907-3.618-1.598 9.788-15.976 15.848-13.851 5.96-20.454 1.066l7.032-.957q5.43-1.278 5.113-2.234l-6.711.21q-9.057-.21-20.242-5.741c-2.27-1.133-4.649-2.59-7.137-4.36a56 56 0 0 1-10.758-10.105Q8.505 123.904 5.2 107.738q-3.3-16.06.535-31.48c1.348-5.32 4.012-11.805 7.989-19.465q8.946-17.227 19.597-24.887 11.081-7.87 26.739-6.804c9.02.566 16.367 2.941 22.05 7.125l2.13-.106q.96-.64 1.171-1.809 2.131-10.636 9.055-13.296 1.493-.638 1.492-2.23 0-1.707-1.918-1.067c-5.469 2.058-9.23 6.668-11.293 13.828q-16.721-10.531-37.281-5-20.45 5.53-29.399 22.973-4.793-.534-10.226-4.465C3.28 39.21 1.367 37.473.086 35.84q4.37-.529 8.203-2.34l1.277-1.168q.64-.848.215-1.703-3.516-7.976-4.367-15.207l5.113 2.445c.711.285 1.418.106 2.13-.531.57-.637.85-1.313.85-2.02q.107-7.873 7.032-12.765-2.022 5.425-1.066 11.277.11 1.061 1.28.957.959-.001 1.599-.746c2.98-3.617 5.714-5.812 8.199-6.594q-4.577 6.594-1.063 13.188c.282.496.746.71 1.383.637l1.387-.743q2.767-3.404 8.094-4.68 7.457-1.703 8.949-2.445 2.343-1.17 8.203-7.554Q62.509.534 66.664.21 69.966 0 74.437 2.766l6.711 5 1.067 1.062 1.387.32q13.207-3.19 18.105 3.614.532.531 1.281.32 3.622-1.064 5.75-3.723.534 3.936-1.383 9.36v1.383l.957.636q5.22 0 11.079 2.13z"/></svg>