<?xml version="1.0" encoding="UTF-8"?>
<svg xmlns="http://www.w3.org/2000/svg" xmlns:xlink="http://www.w3.org/1999/xlink" width="128pt" height="164pt" viewBox="0 0 128 164" version="1.1">
  <g id="surface1">
    <path d="M 100.964844 93.804688 C 101.035156 94.65625 101.496094 95.046875 102.347656 94.976562 C 103.199219 94.976562 103.589844 94.40625 103.519531 93.273438 C 103.449219 92.210938 102.914062 91.148438 101.921875 90.082031 L 99.472656 87.957031 C 98.761719 87.601562 98.195312 87.777344 97.765625 88.488281 C 97.339844 89.195312 97.449219 89.765625 98.085938 90.1875 L 99.578125 91.464844 L 100.964844 93.804688 M 99.152344 79.765625 C 98.511719 79.484375 98.015625 79.695312 97.660156 80.40625 C 97.234375 81.113281 97.519531 81.789062 98.511719 82.425781 L 102.5625 85.296875 L 105.863281 89.019531 C 107 90.4375 107.671875 90.792969 107.886719 90.082031 L 106.929688 87.105469 L 104.265625 83.488281 C 102.632812 81.644531 100.925781 80.40625 99.152344 79.765625 M 47.808594 117.097656 C 50.507812 117.664062 52.957031 118.515625 55.160156 119.648438 L 55.160156 126.457031 L 47.808594 124.328125 L 47.808594 117.097656 M 57.289062 127.199219 L 57.289062 120.925781 C 60.625 123.335938 62.792969 126.386719 63.785156 130.074219 L 57.289062 127.199219 M 45.679688 116.777344 L 45.679688 123.902344 L 35.773438 122.628906 L 35.773438 117.097656 L 45.679688 116.777344 M 46.636719 113.164062 C 40.8125 112.738281 35.097656 113.585938 29.488281 115.714844 C 23.664062 117.914062 19.261719 120.960938 16.277344 124.859375 C 15.640625 125.640625 15.566406 126.277344 16.066406 126.777344 C 16.207031 127.273438 16.632812 127.449219 17.34375 127.308594 C 25.511719 125.820312 33.710938 125.78125 41.949219 127.199219 C 50.472656 128.617188 58.175781 131.417969 65.066406 135.601562 C 65.703125 136.027344 66.34375 135.851562 66.984375 135.070312 L 67.941406 133.050781 C 67.871094 120.785156 60.769531 114.15625 46.636719 113.164062 M 38.117188 84.234375 C 35.0625 87.425781 33.074219 89.800781 32.148438 91.359375 C 30.160156 94.550781 29.734375 97.386719 30.871094 99.867188 C 32.078125 102.421875 33.855469 103.980469 36.199219 104.546875 L 41.203125 104.015625 C 42.410156 103.449219 42.625 100.578125 41.84375 95.402344 C 41.0625 90.226562 39.820312 86.503906 38.117188 84.234375 M 13.1875 69.449219 C 11.625 71.789062 11.34375 75.300781 12.335938 79.980469 C 13.332031 84.730469 15.566406 87.601562 19.046875 88.59375 C 22.527344 89.585938 25.902344 88.203125 29.167969 84.445312 C 33.074219 80.121094 34.8125 74.945312 34.386719 68.917969 C 33.960938 62.464844 30.550781 60.410156 24.160156 62.75 C 18.410156 64.875 14.75 67.109375 13.1875 69.449219 M 26.503906 68.386719 C 29.203125 68.953125 29.949219 71.71875 28.742188 76.683594 C 27.535156 81.007812 25.617188 82.886719 22.988281 82.320312 C 21.496094 82.035156 20.398438 81.078125 19.6875 79.449219 C 19.046875 77.886719 18.976562 76.152344 19.472656 74.234375 C 19.972656 72.25 20.894531 70.691406 22.242188 69.554688 C 23.664062 68.421875 25.085938 68.03125 26.503906 68.386719 M 66.664062 68.597656 C 56.648438 63.421875 50.792969 64.238281 49.085938 71.046875 C 47.523438 77 48.804688 82.921875 52.921875 88.808594 C 55.976562 93.132812 59.917969 95.1875 64.746094 94.976562 C 69.503906 94.761719 73.339844 92.457031 76.25 88.0625 C 79.160156 83.667969 80.015625 80.226562 78.804688 77.746094 C 77.527344 75.191406 73.480469 72.144531 66.664062 68.597656 M 56.542969 80.40625 C 56.542969 75.867188 58.285156 73.597656 61.761719 73.597656 C 63.75 73.597656 65.457031 74.308594 66.875 75.726562 C 68.296875 77.144531 69.007812 78.84375 69.007812 80.832031 C 69.007812 82.816406 68.296875 84.515625 66.875 85.933594 C 65.457031 87.351562 63.75 88.0625 61.761719 88.0625 C 58.285156 88.0625 56.542969 85.507812 56.542969 80.40625 M 7.542969 46.050781 L 14.042969 49.03125 C 11.980469 52.007812 10.027344 55.375 8.183594 59.132812 C 5.199219 56.015625 4.988281 51.652344 7.542969 46.050781 M 100.324219 31.695312 C 100.039062 30.628906 99.222656 30.277344 97.875 30.628906 C 96.59375 30.984375 95.425781 31.90625 94.359375 33.394531 C 93.292969 34.8125 92.652344 36.054688 92.441406 37.117188 C 92.15625 38.109375 92.511719 38.75 93.507812 39.03125 C 94.5 39.316406 95.175781 38.996094 95.53125 38.074219 L 96.703125 36.054688 C 97.554688 34.636719 98.371094 33.820312 99.152344 33.609375 C 100.21875 33.324219 100.609375 32.6875 100.324219 31.695312 M 94.253906 23.824219 L 90.523438 27.972656 C 88.75 30.453125 87.683594 32.898438 87.328125 35.308594 C 87.113281 36.160156 87.503906 36.726562 88.5 37.011719 C 89.566406 37.296875 90.347656 36.761719 90.84375 35.417969 L 91.589844 33.394531 L 93.1875 29.671875 L 96.914062 24.675781 C 98.335938 22.832031 98.582031 21.875 97.660156 21.804688 C 96.949219 21.730469 95.8125 22.40625 94.253906 23.824219 M 114.277344 24.78125 C 113.566406 25.0625 113.070312 25.597656 112.785156 26.375 C 112.433594 27.226562 112.609375 27.828125 113.320312 28.183594 C 120.421875 32.226562 125.285156 36.089844 127.914062 39.777344 C 125.78125 39.28125 123.402344 39.246094 120.777344 39.671875 L 119.179688 40.839844 C 118.679688 41.550781 118.574219 42.1875 118.859375 42.753906 C 122.054688 49.136719 123.863281 54.914062 124.292969 60.089844 C 124.71875 64.984375 123.972656 70.511719 122.054688 76.683594 L 120.136719 82.210938 C 119.070312 76.113281 116.515625 70.902344 112.46875 66.578125 L 106.714844 61.261719 L 102.453125 58.175781 L 102.242188 49.242188 C 101.886719 45.699219 101.105469 42.933594 99.898438 40.945312 L 97.449219 40.839844 C 96.3125 41.621094 95.992188 42.4375 96.488281 43.285156 C 97.554688 45.128906 98.265625 47.648438 98.621094 50.835938 L 98.832031 59.132812 L 103.09375 61.898438 C 106.359375 63.882812 108.773438 65.871094 110.335938 67.855469 C 115.664062 74.519531 118.148438 80.617188 117.792969 86.148438 C 115.875 80.902344 113.25 76.152344 109.910156 71.894531 C 106.074219 67.289062 103.34375 64.664062 101.707031 64.027344 C 100.785156 63.601562 100.109375 63.707031 99.683594 64.34375 C 99.257812 64.914062 99.402344 65.445312 100.109375 65.941406 L 102.773438 68.28125 L 107.992188 73.597656 C 111.117188 76.859375 114.136719 81.824219 117.046875 88.488281 L 116.300781 90.507812 C 114.101562 85.191406 111.472656 80.9375 108.417969 77.746094 C 105.863281 74.980469 103.589844 73.171875 101.601562 72.320312 C 100.820312 71.96875 100.324219 72.25 100.109375 73.171875 C 99.898438 74.023438 100.324219 74.804688 101.390625 75.511719 L 106.503906 79.660156 L 111.722656 86.679688 L 115.449219 92.636719 L 115.128906 93.488281 L 113.320312 93.910156 C 112.253906 94.40625 112.078125 95.257812 112.785156 96.464844 C 117.898438 100.71875 118.894531 105.753906 115.769531 111.566406 C 112.644531 117.382812 107.851562 119.757812 101.390625 118.691406 C 94.570312 129.753906 86.371094 138.121094 76.78125 143.792969 C 74.226562 145.210938 74.4375 145.882812 77.421875 145.8125 C 80.40625 145.671875 83.707031 144.464844 87.328125 142.195312 C 86.261719 148.71875 80.9375 154.003906 71.351562 158.042969 C 62.117188 162.015625 55.300781 162.371094 50.898438 159.109375 L 57.929688 158.152344 C 61.550781 157.300781 63.253906 156.554688 63.042969 155.917969 L 56.332031 156.128906 C 50.292969 155.988281 43.546875 154.074219 36.089844 150.386719 C 33.820312 149.253906 31.441406 147.796875 28.953125 146.027344 C 24.90625 143.117188 21.320312 139.75 18.195312 135.921875 C 11.734375 127.910156 7.402344 118.515625 5.199219 107.738281 C 3 97.03125 3.175781 86.539062 5.734375 76.257812 C 7.082031 70.9375 9.746094 64.453125 13.722656 56.792969 C 19.6875 45.308594 26.21875 37.011719 33.320312 31.90625 C 40.707031 26.660156 49.621094 24.390625 60.058594 25.101562 C 69.078125 25.667969 76.425781 28.042969 82.109375 32.226562 L 84.238281 32.121094 C 84.878906 31.695312 85.269531 31.089844 85.410156 30.3125 C 86.832031 23.222656 89.847656 18.789062 94.464844 17.015625 C 95.460938 16.589844 95.957031 15.847656 95.957031 14.785156 C 95.957031 13.648438 95.316406 13.292969 94.039062 13.71875 C 88.570312 15.777344 84.808594 20.386719 82.746094 27.546875 C 71.597656 20.527344 59.171875 18.859375 45.464844 22.546875 C 31.832031 26.234375 22.03125 33.890625 16.066406 45.519531 C 12.871094 45.164062 9.460938 43.675781 5.839844 41.054688 C 3.28125 39.210938 1.367188 37.472656 0.0859375 35.839844 C 3 35.488281 5.734375 34.707031 8.289062 33.5 L 9.566406 32.332031 C 9.992188 31.765625 10.066406 31.199219 9.78125 30.628906 C 7.4375 25.3125 5.980469 20.242188 5.414062 15.421875 L 10.527344 17.867188 C 11.238281 18.152344 11.945312 17.972656 12.65625 17.335938 C 13.226562 16.699219 13.507812 16.023438 13.507812 15.316406 C 13.578125 10.066406 15.921875 5.8125 20.539062 2.550781 C 19.191406 6.167969 18.835938 9.925781 19.472656 13.828125 C 19.546875 14.535156 19.972656 14.855469 20.753906 14.785156 C 21.390625 14.785156 21.925781 14.535156 22.351562 14.039062 C 25.332031 10.421875 28.066406 8.226562 30.550781 7.445312 C 27.5 11.839844 27.144531 16.238281 29.488281 20.632812 C 29.769531 21.128906 30.234375 21.34375 30.871094 21.269531 L 32.257812 20.527344 C 34.101562 18.257812 36.800781 16.699219 40.351562 15.847656 C 45.324219 14.710938 48.304688 13.898438 49.300781 13.402344 C 50.863281 12.621094 53.597656 10.105469 57.503906 5.847656 C 60.839844 2.304688 63.894531 0.425781 66.664062 0.210938 C 68.863281 0.0703125 71.457031 0.921875 74.4375 2.765625 L 81.148438 7.765625 L 82.214844 8.828125 L 83.601562 9.148438 C 92.40625 7.019531 98.441406 8.226562 101.707031 12.761719 C 102.0625 13.117188 102.488281 13.222656 102.988281 13.082031 C 105.402344 12.371094 107.320312 11.132812 108.738281 9.359375 C 109.09375 11.984375 108.632812 15.101562 107.355469 18.71875 L 107.355469 20.101562 L 108.3125 20.738281 C 111.792969 20.738281 115.484375 21.449219 119.390625 22.867188 L 114.277344 24.78125 "/>
  </g>
</svg>
