<svg xmlns="http://www.w3.org/2000/svg" xml:space="preserve" width="528.987" height="637.948" viewBox="0 0 139.961 168.79"><path d="m71.07 0 31.007 2.098 3.73 1.166 2.098 3.497q1.632 9.325 8.16 17.951 8.393 10.958 21.448 11.657l1.166.466.466 1.4q1.632 11.423 0 22.613l-1.165 10.025-1.632 10.025-3.264 13.056-4.663 12.356q-9.092 22.148-25.645 38.7-13.522 13.756-31.94 23.547l-.932.233-1.166-.233q-36.835-19.816-54.554-55.253-7.693-15.853-11.423-34.97Q-.736 60.615.196 39.866l.233-1.865.234-.932 1.165-.467 1.632-.233q7.227-.7 12.823-4.663 5.129-3.497 9.092-9.791l4.43-8.393 2.797-8.86.466-1.398 1.4-.466L52.417.466zm-1.865 13.988-14.688.466-14.92 2.099q-.933 0-1.4.7l-.699 1.398-.932 3.73-1.166 3.497q-3.264 8.16-7.927 12.59-5.828 4.895-14.221 5.128l-1.166.234-.233 1.165-.466 4.197-.233 3.963q-.233 15.62 3.264 31.24 3.963 16.32 11.656 30.075 14.688 25.645 42.664 40.332l1.166.233 1.166-.233q12.123-6.294 21.914-14.92 22.848-20.516 31.24-51.99 5.363-20.05 3.964-41.964l-.7-1.865-1.865-.467q-11.656-.466-18.184-10.957-3.963-6.062-5.595-14.221l-.467-1.4-1.165-.465-15.154-2.099z"/><path d="m69.67 83.696-15.153-.933-15.387-.932-9.792-1.632-10.025-1.865-.932-.7-.7-.932-1.631-13.289-.234-13.522.7-1.399 1.166-.7q7.926-1.165 13.288-6.294 4.663-4.43 8.16-12.356l2.331-6.761.933-1.399 1.166-.466 24.712-1.865 1.166.233.466 1.399v62.48l-.233.467zM69.67 83.696l9.56-.466 9.325-.467 15.387-2.098 15.387-2.098 2.331-.466q-3.03 17.252-11.19 32.172-7.228 13.522-18.651 24.246-10.258 9.559-21.682 15.154l-.233-1.165V84.86z"/></svg>