<svg xmlns="http://www.w3.org/2000/svg" viewBox="0 0 473 452"><path d="M473 309.32c-1.36 8.82-2.25 17.75-4.15 26.45-12.62 57.81-60.89 103.54-119.28 113.27-79.97 13.34-155.13-37.87-171.28-116.69-16.23-79.23 36.39-158.61 115.65-174.48 80.81-16.18 158.24 34.65 175.6 115.43 1.7 7.89 2.32 16.02 3.45 24.03v11.97Zm-61.98-80.99c-.06-7.59-5.16-12.66-10.82-11.66-3 .53-6.18 2.47-8.39 4.67-50.02 49.71-99.93 99.54-149.8 149.39-1.71 1.71-3.91 3.88-4.08 5.99-.26 3.17.11 7.32 2.01 9.46 1.91 2.16 6.12 3.41 9.15 3.13 2.72-.25 5.59-2.71 7.74-4.85 39.28-39.04 78.47-78.18 117.68-117.3 10.6-10.57 21.28-21.06 31.72-31.78 2.31-2.37 3.8-5.54 4.79-7.03Z"/><path d="M1 108.76c1.65-8.61 2.69-17.38 5.06-25.79C19.97 33.56 66.68-.11 118.14 1.82c54.62 2.04 100.42 42.63 107.35 96.66 2.25 17.53.64 35.53 1.59 53.27.5 9.32-.9 16.65-9.95 21.42-3.82 2.01-6.8 5.64-10.77 9.05-.1-2.32-.23-3.89-.23-5.46-.02-20.79.08-41.57-.03-62.36-.25-46.21-33.29-84.38-78.94-91.33-50.27-7.65-99.24 30.03-104.29 80.3-.55 5.44-.84 10.94-.86 16.41-.08 33.59-.04 67.18-.04 100.77v5.91h151.3c-30.61 67.84-22.43 130.22 24.03 188.45-3.82 3.52-7.57 7.51-11.85 10.83-33.79 26.17-71.29 33.29-111.29 18.01-39.92-15.25-63.49-45.19-71.23-87.28-.75-4.06-1.3-8.16-1.94-12.24V108.75Z"/></svg>