<?xml version="1.0" encoding="UTF-8" standalone="no"?>
<svg
   width="133.90086mm"
   height="125.39816mm"
   viewBox="0 0 133.90086 125.39816"
   version="1.1"
   id="svg1"
   xml:space="preserve"
   xmlns="http://www.w3.org/2000/svg"
   xmlns:svg="http://www.w3.org/2000/svg">
  <g transform="translate(-38.358899,-98.681195)">
    <g transform="matrix(1.754234,0.74462815,-0.74462815,1.754234,103.28452,153.8363)" id="g4">
      <path d="m 2.0749111,-32.318866 c -1.21993225,0.487937 -2.22108141,1.104914 -3.3878848,2.034304 -1.2130998,0.966266 -1.4135288,1.180464 -2.3943754,2.557306 -0.5887513,0.826445 -1.2373166,1.834797 -1.4413955,2.24087 -0.9599218,1.910047 -1.0751082,4.438268 -0.3383175,7.43508 0.2003973,0.815096 0.2200939,1.095334 0.092995,1.327383 -0.1595691,0.291343 -0.6923815,0.510857 -0.9688264,0.399165 -0.066991,-0.02707 -0.6790268,-0.777059 -1.3601659,-1.666469 -1.147196,-1.497971 -1.3381861,-1.692898 -2.5938166,-2.646946 -0.982569,-0.74657 -1.632859,-1.140586 -2.36342,-1.432385 -1.227618,-0.490335 -1.197072,-0.483968 -3.103716,-0.646818 -3.328468,-0.284291 -6.305947,0.476076 -9.447759,2.413116 -2.343249,1.444699 -3.694795,2.716316 -5.109274,4.806438 -1.408956,2.081961 -2.013427,3.265714 -2.530155,4.955094 -0.704144,2.3021155 -0.915128,3.6491448 -0.919238,5.8673417 -0.0059,3.2037091 0.316935,5.8895275 0.997543,8.2961707 0.520911,1.8419503 0.639992,2.1484633 1.581977,4.0738989 0.685514,1.4012052 1.210918,2.3383387 1.606815,2.8658827 0.753833,1.004506 3.309636,3.786779 4.08377,4.445678 0.309258,0.263223 0.70045,0.560205 1.128778,0.871517 l 18.4916244,-7.7278614 2.4000469,2.3500714 0.2498241,0.149947 0.3001869,-0.04995 0.1999429,-0.200052 0.049993,-0.349974 -6.2501909,-22.599923 0.5502173,-0.349913 16.950047,22.7999773 0.2497839,0.099885 0.300121,-1.347e-4 0.2499012,-0.1496748 0.049887,-0.3502229 -2.3999364,-16.9999346 1.200108,-0.950109 4.7998707,6.1000865 0.200052,0.1999429 0.350039,1.807e-4 16.875614,-7.078139 c 0.104618,-1.5115364 0.136612,-2.8818814 0.05792,-3.7769604 -0.121227,-1.378858 -0.800163,-3.991652 -1.554743,-5.983445 -0.644975,-1.702482 -0.786662,-1.986974 -1.743804,-3.498823 -3.283171,-5.185917 -6.840032,-8.265841 -11.691154,-10.12349 -1.663163,-0.636878 -1.967902,-0.708039 -3.769082,-0.882556 -2.8615432,-0.277255 -4.8458616,-0.167163 -7.1345506,0.39606 -0.9724136,0.239301 -1.7832914,0.485619 -2.5152507,0.778382 z M 30.425576,-9.2280334 c -0.05624,0.8125467 -0.134326,1.6562828 -0.233603,2.5150188 l 5.257857,-2.1870514 -0.799761,-2.099949 z m -0.233603,2.5150188 -17.942093,7.46307892 -1.349852,-2.30007222 -0.250113,-0.1999029 -0.35004,-1.806e-4 -0.250004,0.2000921 1.34e-4,0.300121 2.550091,17.7999103 -1.800161,0.299863 -13.3499146,-18.2500493 -0.299926,-0.1999687 -0.3501828,1.749e-4 -0.2500705,0.2499042 -0.049993,0.3499734 5.5502354,20.1500675 -8.2001912,-8.100096 c -0.1,-0.1 -0.1831575,-0.149947 -0.2498241,-0.149947 l -0.3000809,0.0502 -15.4424643,6.445942 c 2.406218,1.526495 5.395208,3.186828 7.835364,4.302265 1.144694,0.523258 2.57384,1.197822 3.175641,1.499147 2.0318877,1.01738 8.9003029,3.749718 15.072159,5.995868 3.3748103,1.22821 7.355152,2.690447 8.84516,3.249414 1.49001,0.558967 2.797775,0.981286 2.90634,0.938279 0.176196,-0.0698 7.622217,-17.657468 7.673221,-18.124306 0.01056,-0.09668 0.865711,-2.34707 1.900342,-5.000894 2.550053,-6.5408749 3.992158,-11.04995485 4.533639,-14.1760474 0.154182,-0.8901275 0.282394,-1.839694 0.392584,-2.7928332 z m -52.33445,24.1091076 c -0.841414,-0.53379 -1.600069,-1.046629 -2.249078,-1.518332 l -4.95837,2.072299 0.849822,2.099909 z" />
    </g>
  </g>
</svg>
