<svg xmlns="http://www.w3.org/2000/svg" xml:space="preserve" width="506.082" height="473.946" viewBox="0 0 133.901 125.398"><path d="M92.631.005c-2.503-.052-4.719.285-7.458 1.046-2.847.792-3.359 1.018-6.104 2.703-1.649 1.012-3.537 2.298-4.198 2.858-3.106 2.636-5.19 6.985-6.13 12.791-.255 1.58-.429 2.085-.825 2.398-.497.392-1.595.38-1.997-.021-.097-.098-.612-1.87-1.145-3.937-.897-3.482-1.087-3.966-2.579-6.574-1.168-2.042-2.015-3.217-3.08-4.273-1.788-1.774-1.739-1.74-4.962-3.446C48.526.573 42.736-.31 35.783.748c-5.187.79-8.505 2.014-12.543 4.628-4.021 2.603-5.963 4.23-8.128 6.808-2.95 3.514-4.322 5.72-5.981 9.608C6.735 27.408 5.3 32.36 4.703 37.088c-.458 3.62-.477 4.246-.258 8.325.159 2.968.383 5.004.684 6.224.575 2.323 2.987 9.107 3.854 10.84.346.691.812 1.504 1.331 2.369l38.193.213 2.46 5.91.327.448.564.136.5-.202.348-.576 5.864-44.3 1.226-.204 12.757 52.618.363.361.527.223.55-.076.348-.577 8.449-31.61 2.813-.772 3.877 14.275.202.5.614.26 34.875.15c1.309-2.574 2.385-4.954 2.914-6.583.814-2.509 1.568-7.598 1.728-11.654.136-3.467.1-4.071-.454-7.436-1.898-11.542-5.844-19.594-12.97-26.465-2.444-2.355-2.926-2.707-5.955-4.354-4.814-2.618-8.377-3.902-12.811-4.618-1.884-.305-3.49-.476-4.992-.508m32.54 61.618a105 105 0 0 1-2.283 4.238l10.852.078.16-4.28zm-2.283 4.238-37.032-.269-.655-5.04-.29-.536-.614-.261-.587.164-.224.527-8.78 33.124-3.382-.814L61.495 50.8l-.377-.574-.615-.26-.624.252-.349.576-5.268 39.481L45.91 69.96q-.151-.375-.327-.45l-.564-.135-31.89-.191c3.085 4.47 7.092 9.608 10.542 13.382 1.619 1.77 3.624 4.017 4.455 4.994 2.807 3.298 12.821 13.205 21.975 21.741 5.006 4.668 10.9 10.197 13.097 12.287 2.198 2.09 4.177 3.805 4.4 3.81.361.009 26.52-25.3 26.956-26.08.09-.162 3.267-3.473 7.058-7.358 9.344-9.575 15.231-16.412 18.509-21.492a97 97 0 0 0 2.768-4.607m-109.76 3.323a83 83 0 0 1-2.814-4.338L.073 64.789 0 69.105z"/></svg>