<?xml version="1.0" encoding="UTF-8"?>
<svg xmlns="http://www.w3.org/2000/svg" viewBox="0 0 438.93 722.23">
  <g>
    <path d="m260.85,316.32c0-4.53.92-9.32-1.34-13.31-2.41,3.27-2.97,7.15-5,10.62-1.39,2.39-4.07,4.13-5.17,6.56-2.17,4.79-.55,15.95-1.08,21.34-.9,9.19.76,12.28,4.42,20.66.97,2.23,2.94,5.42,2.15,7.78-.7,2.11-3.29,2.27-4.2,3.94-3.29,5.98-.74,17.55-.88,24.48-.18,8.7-.59,17.39-.73,26.09-.14,8.83.84,17.41,1.13,26.2.15,4.67,1.12,12.75-1.18,16.81-1.38,2.42-4.37,3.04-5.78,5.66-1.18,2.19-1.01,5.6-1.1,7.93-.32,8.84,2.23,12.38,4.24,20.44,2.08,8.33.58,18.35.59,26.82,0,7.99.28,15.91.5,23.9.24,8.75,1.47,18.2.52,26.93-.93,8.59-8.65,11.85-10.65,19.39-1.16,4.37,3.27,10.91-.55,14.25-5.51,4.82-7.17-4.38-9.38-6.95-1.31,3.84.09,9.3.06,13.39-.04,5.14-.9,10.19-1.21,15.33-.27,4.41-1.71,13.41.54,17.48,1.64,2.96,5.44,3.97,7.25,7.24,3.77,6.83,4.6,61.22-9.29,57.72-3.09-.78-1.76-5.11-3.61-6.89-2.29-2.21-9-.75-11.84-.7-1.44.03-4.72-.68-6.06.17-2.14,1.36-.98,2.54-2.27,3.99-2.35,2.64-4.33,4.96-8.1.95-6.65-7.07-4.44-22.63-2.65-30.78.26-1.19,1.38-1.87,1.61-3.13.34-1.81-.22-4.24.11-6.34.6-3.84,1.55-11.85,4.23-14.46.68,4.72-1.83,9.95-1.31,15.07,4.39-1.31,3.44-14.36,3.66-17.86.29-4.55,1.35-3.96-1.09-8.37-1.79-3.23-3.76-5.5-4.75-9.22-4.52-16.98,6.28-30.2,7.96-46.37-3.39.12-8.1,5.83-11.41,4.27-1.75-.82-.74-3.16-1.61-4.42-1.34-1.93-2.27-2.87-4.03-4.47-7.23-6.55-11.86-14.83-5.93-24.6,2.48-4.08,7.36-4.35,9.71-7.48,2.75-3.67,1.03-11.15,1.04-15.58.04-13.42-.77-27.21.37-40.58.92-10.89.7-22.24-2.87-32.61-3.64-10.58-1.26-21.11-1.13-32.24.15-12.93.17-25.88-.3-38.81-.2-5.49-.92-11.39.07-16.83.87-4.79.91-6.33.89-10.62,1.2.22,2.36.6,3.48,1.13-2.78-5.45-.79-9.08,1.8-14.22,2.94-5.83,2.46-9.13,1.73-16.1-.55-5.27.44-11.89-.65-16.89-1.05-4.79-5.59-9.05-8.65-12.57-.7,8.31.14,17.78-2.4,25.79-2.68,8.43-7.58,10.17-14.51,13.4-6.76,3.15-6.46,14.29-8.07,21.71-2.04,9.43-5.93,19.68-6.57,29.27-.52,7.84,5.47,14.84,4.49,22.89-.46,3.77-2.2,6.22-1.8,10.26.56,5.62,3.47,11.98,5.14,17.4,2.96,9.61,6.07,19.15,9.48,28.6,3.42,9.48,6.78,15.83,1.07,24.94-1.96,3.13-4.27,5.3-5.36,8.86-1.07,3.51-.76,7.25-2.1,10.89-3.49,9.44-9.91,18.35-14.78,27.14-4.05,7.29-9.08,10.07-14.51,15.91-2.43,2.61-3.12,4.14-6.1,5.98-1.28.79-3.38.46-4.66,1.29-1.99,1.31-2.46,3.98-4.25,5.14-7.1,4.62-14.35-3.48-20.33-7.44-9.84-6.53-19.68-13.06-29.53-19.58-6.6-4.37-17.06-8.65-20.7-15.77-1.4-2.73-2.68-8.78-2.36-11.76.53-4.83,2.8-4.47,5.39-7.81,4.79-6.17,4.29-18.51,5.37-26.27.76-5.51,4.26-21.92-.05-25.35-1.64-1.3-10.01-1.74-12.37-2.59-3.73-1.33-7.05-3.54-10.7-5.01-8.28-3.33-18.18-2.68-23.03-11.39-5.37-9.63,1.22-10.85,9.9-11.99,4.52-.6,9.67-.88,14.08.52,3.4,1.08,5.78,2.96,9.41,3.29,1.09.1,7.3.2,8.13-1.18.74-1.24-2.18-7.07-2.04-8.97.56-7.62,8.88-11.8,15.43-8.26,2.38,1.29,4.37,3.19,5.35,5.76,1.75,4.62-1.57,6.42-1.87,10.21-.54,6.99,12.1,6.41,17.45,9.49,6.4,3.68,8.43,11.18,1.19,15.11-5.86,3.19-13.22-.54-15.41,7.25-1.17,4.17,0,10.45-.24,14.86-.29,5.44-.58,10.88-.89,16.32-.72,12.6-1.93,14.9,8.64,21.89,8.94,5.91,17.91,11.76,27.06,17.34,3.52,2.15,7.49,5.66,11.41,6.94,5.81,1.9,5.11-.88,7.37-6.63,4.01-10.21,8.3-20.4,6.93-31.62-1.4-11.43-5.2-23.04-7.8-34.26-2.39-10.3-3.67-21.63-8.15-31.28-2.12-4.57-6.06-8.91-7.3-13.82-1-3.95.45-7.35.04-11.23-.5-4.75-2.95-8.89-2.84-14.02.14-6.17,1.4-12.42,2.41-18.49,1.84-11,3.61-21.97,5-33.04,1.32-10.47,2.03-19.54,7.13-28.87,6.07-11.11,15.75-9.8,25.18-16.7-3.98-3.23-24.59-3.53-17.61-14,1.63-2.44,4.77-2.05,6.86-3.64,1.8-1.37,2.08-3.21,3.36-4.93,2.83-3.78,5.36-6.71,10.52-7.05,4.09-.27,7.36,2.06,11.29,2.52,2.96.35,15.73.79,17.65-1.56,4.26-5.21-17.64-6.26-21.39-8.62-5.15-3.24-10.09-9.88-16.17-11.38-4.94-1.22-10.91-.02-16.16-1.01-6.05-1.14-10.26-1.62-12.71-7.81-.61-1.54-1.9-4.72-1.28-6.46,1.02-2.87,2.17-1.1,3.64-3.18,7.76-11.02.57-20.15-2.24-31.53-2.81-11.34,3.06-25.28-1.55-35.9-1.84,2.96.02,6.2-1.3,9.35-2.98-3.64,2.03-11.68-1.28-14.19-.72-.55-7.02,1.79-8.16,1.71-4.85-.36-8.26-3.03-11.24-6.59-2.27-2.71-9.47-16.11-13-13.27-5.17,4.16.71,26.46,1.13,32.33.29,4.05,1.26,18.24-6.83,14.61-6.26-2.81-8.35-21.69-9.5-27.78-1.7-9.01-3.92-17.46-6.75-26.19-2.68-8.27-3.51-17.17-11.1-22.01-14.1-8.99-28.07-22.67-28.66-40.9-.56-17.48,10.05-34.42,26.54-40.4,3.3-1.2,7.21-.97,10.27-2.4,4.43-2.07,3.57-4.32,8.32-2.85,2.22.69,4.89,3.33,7.28,4.38,4.25,1.87,8.55,3.2,12.51,5.71,13.8,8.72,24.47,27.15,23.11,43.84-.57,7.03-5.73,15.78-10.05,21.37-3.87,5.01-11.52,8.51-13.36,14.42-2.56,8.21,5.03,14.38,9.75,19.89,4.4,5.15,9.42,13.81,17.51,10.04,6.98-3.25,8.18-13.31,11.38-19.4,5.17-9.83,9.29-21.06,15.79-30.09,7.99-11.11,31.42-15.95,30.46-31.28-1.05-16.71,3.24-33.73,16.28-45.29,5.97-5.29,14.67-10.56,22.63-11.75,2.98-.45,4.3.05,6.85-1.51,3.26-1.99,2.94-5.65,7.76-4.15,2.54.79,5.07,4.63,8.2,5.79,3.6,1.33,7.26,2.23,10.72,3.97,8.49,4.25,15.38,10.78,20.64,18.65,4.86,7.27,7.44,15.09,8.76,23.68.52,3.43.45,7.72,2.49,10.65,2.62,3.75,8.46,5.95,12.17,8.57,13.3,9.4,27.71,19.08,35.33,33.76,5.93,11.42,12.07,38.27,27.73,40.32,8.29,1.08,14.7-10.39,19.6-16.03,4.41-5.07,9.54-12.5,5.04-19.25-1.93-2.9-6.81-5-9.22-7.97-2.23-2.74-3.91-5.82-5.39-9.01-4.03-8.69-5.96-16.91-4.15-26.49,3.15-16.65,16.2-31.69,32.73-36.09,3.31-.88,6.98-.5,10.12-1.85,4.8-2.06,3.63-4.02,8.54-1.04,6.31,3.83,13.91,6.09,19.71,11.24,11.86,10.55,18.68,31.99,12.38,47.33-2.99,7.3-10.83,16.18-16.95,21-5.69,4.49-14.38,5.59-18.17,11.59-4.84,7.68-6.47,20.85-9.19,29.53-3.21,10.27-6.27,20.62-9.7,30.82-1.26,3.76-5.37,14.52-8.95,6.04-3.03-7.19,2.9-22.08,3.39-29.69.29-4.44,1.36-18.42-4.36-16.7-2.62.79-7.02,8.01-8.88,10.24-2.59,3.11-4.89,7.06-8.36,9.26-3.09,1.96-6.49,2.45-10.04,1.65-1.6-.36-5.83-3.59-7.38-2.49-1.93,1.37.46,19.84.14,23.04-.88,8.79-2.61,17.31-5.64,25.6-2.69,7.35-6.7,11.31-.45,16.77,5.9,5.16,8.91,9.79,5.85,17.99-3.23,8.68-11.98,9.15-20.25,9.15-10.21,0-12.35-1.12-21.04,5.02-3.58,2.52-7.64,6.16-11.76,7.75-3.99,1.54-8.34.67-12.34,1.77-8.3,2.3-1.65,4.82,3.77,5.59,8.05,1.15,13.99-.5,21.66-.97,8.66-.54,9.6,3.92,14.45,9.32,4.04,4.5,10.98,3.8,8.1,11.74-2.94,8.1-11.3,1.24-15.91,6.19-4.1,4.4,10.73,7.15,13.62,8.74,15.78,8.64,16.46,29.94,19.32,45.5,1.84,9.99,3.34,19.96,4.02,30.1.73,10.77-.36,18.38-3.01,28.52-1.16,4.45.05,8.76-1.15,13.11-1.29,4.7-5.6,8.66-7.71,13.04-4.1,8.52-5.72,18.76-8.23,27.85-5.46,19.8-13.73,39.21-7.16,59.63,1.71,5.3,4.14,18.57,9.28,19.27,2.59.35,8.25-4.46,10.56-5.74,4.87-2.68,9.74-5.37,14.58-8.12,6.96-3.96,20.26-8.69,25.34-14.96,4.95-6.1,1.5-18.83,1.43-26.21-.07-7.08,3.56-21.91-1.74-27.48-2.18-2.29-7.88-1.44-8.86-4.28-.8-2.33,2.27-5.66,3.07-7.48-7.61-1.36-26.63,6.66-31.02-3.84-5.69-13.62,22.34-13.78,28.71-14.39,6.12-.58,12.08-1.13,18.23-.62,4.8.4,8.94,1.82,12.83-.83,4.3-2.93,4.51-5.98,10.83-5.06,2.07.3,3.94.93,5.55,2.28,2.01,1.69,2.24,5.86,3.96,7,5.31,3.52,19.81-1.89,23.54,5.57,1.49,2.98-2.42,9.26-4.44,11.23-4.12,4.01-12.64,5.92-18.38,6.02-5.95.1-24.26-4.79-28.61.62-3.28,4.08.09,12.23.31,17.1.32,7.07.62,13.99,1.46,21.04.66,5.62.13,14.05,2.59,19.17,1.86,3.87,6.06,4.59,6.72,9.38,1.94,14.11-13.78,20.54-23.34,26.33-11.32,6.85-22.71,13.59-34.11,20.3-3.91,2.3-10.48,8.27-15.52,7.59-3.79-.51-6.27-5.96-9.47-7.94-2.2-1.36-3.84-.71-5.94-2.87-1.12-1.15-1.46-3.36-2.55-4.64-3.02-3.54-7.53-5.5-10.52-9.27-3.78-4.77-5.93-10.66-8.72-16.02-3.28-6.31-8.26-12.76-10.21-19.62-1.45-5.1-.14-10.24-2.34-15.16-2.32-5.16-5.95-8.33-5.53-14.56.38-5.66,3.92-11.27,5.97-16.47,2.79-7.1,5.65-14.17,8.03-21.42,2.34-7.12,5.82-15.38,6.31-22.84.4-6.11-1.82-11.14-.1-17.28,1.96-7.02,5.23-10.68,3.88-18.14-1.28-7.09-2.86-14.15-4.25-21.22-1.37-6.94-1.42-17.1-4.64-23.3-2.4-4.61-1.63-2.61-6.63-4.02-14.94-4.23-13.7-21.77-15.06-34.28.18-.02.37-.04.55-.07Zm-53.42,210.91c.18.07.36.14.54.22.85,8.85.03,11.64,9.46,11.36,7.93-.23,7.14-2.39,7.21-9.94.05-6.39,1.92-11.87-4.41-14.55-9.95-4.21-11.07,5.75-12.8,12.91Zm-155.6-68.87c-.25-.1-.35-.03-.31.22.25.1.35.02.31-.22Z"/>
  </g>
</svg>