<svg xmlns="http://www.w3.org/2000/svg" xml:space="preserve" width="404.075" height="537.38" viewBox="0 0 106.912 142.182"><path d="M41.92 1.128C34.593 2.673 27.564 6.28 22.646 12.051c-5.166 5.937-7.662 13.587-8.376 21.345-.3 2.677-.175 5.379-.15 8.057-.143.874-.283 2.495-1.528 2.31-1.715.164-3.604-.333-5.129.67-2.875 1.552-4.074 4.943-4.263 8.035-.764 4.72.093 9.589 1.7 14.048 1.173 3.233 2.993 6.217 5.27 8.78.319.995-.16 2.186-.886 2.892-.976.452-1.37-.97-1.968-1.467-.612-1.185-.822.76-1.218 1.249-1.303 2.827-2.604 5.654-3.527 8.633-.776 2.22-1.672 4.41-1.944 6.765-.642 2.938-1.165 6.232.402 8.985 2.385 4.854 4.573 9.798 6.704 14.767 1.486 2.837 2.758 5.797 4.386 8.552 1.396 1.956 2.496 4.143 4.111 5.928 1.085 1.12 2.362 2.092 3.84 2.624-1.907-6.57-3.187-13.295-4.74-19.953-.36-1.546-1.026-3.417.195-4.772.51-.77 1.474-.054 1.407.706 1.434 6.395 2.657 12.84 4.446 19.15.77 2.75 1.345 5.586 2.42 8.23.798 1.202 1.053 3.037 2.638 3.472 3.006.873 6.173.84 9.27 1.113 3.153-.045 6.321.091 9.465-.068 2.081-.262 4.158-.7 5.984-1.782 5.238-2.897 9.242-7.394 12.922-12.051 2.821-3.645 5.374-7.516 7.787-11.422.718-.827 1.171-.761 1.31.364.287 1.722-1.117 3.107-1.843 4.539-3.7 5.914-7.94 11.535-12.902 16.45-.372.472-1.81 1.304-.482 1.126 3.17.175 6.335-.259 9.496-.454 2.266-.28 4.585-.757 6.495-2.073 1.602-.845 3.085-1.86 4.403-3.105 4.288-3.597 8.006-7.869 11.536-12.228 4.378-5.227 8.446-10.706 12.571-16.124.626-1.172 1.389-2.311 1.369-3.693.307-3.052-.18-6.113-.488-9.146-.637-4.55-1.616-9.022-2.887-13.454a51.8 51.8 0 0 1-9.341 8.434c-1.084.076-.856-1.353-.708-2.055.211-1.556 1.942-2.043 2.92-3.03 4.598-3.737 8.893-8.25 11.678-13.58 1.928-3.6 2.776-8.218.763-11.963-2.139-3.755-6.555-5.355-10.605-6.01-2.338-.436-4.736-.403-7.089-.57-.74-.776-.207-2.03.168-2.88.632-.928 1.905-.392 2.839-.493 2.978.117 5.98.46 8.82 1.4.613-4.1.84-8.251.88-12.394.021-6.76-1.313-13.779-4.83-19.563-4.094-6.918-11.32-11.413-18.9-13.636A58.8 58.8 0 0 0 60.382.23C57.444.185 54.5-.07 51.568.02zm8.133 23.824c1.134.173.723 1.61.516 2.383-1.887 8.119-3.27 16.335-4.08 24.628-.214 1.116.43-.916.866-1.187.387-.904 1.228.404 1.892.457 1.697.792 3.726.408 5.17-.729 3.25-1.891 5.65-5.04 9.09-6.64 1.571-.407 3.08-1.257 4.748-.993 3.269-.04 6.574.583 9.577 1.873.692.888.085 2.15-.379 3.014-.746.74-1.821-.153-2.698-.208-2.007-.546-4.007-1.134-6.104-1.167-2.202-.351-4.592.156-6.264 1.686-.69.477-1.211.837-.118.37 2.133-.668 4.812-.896 6.62.658 2.092 2.063 1.856 5.405.902 7.956-.712 1.946-2.329 3.812-4.554 3.823-3.177.202-6.246-1.481-8.287-3.823-.553-.672-1.112-1.533-1.683-2.055-.426-.321.137-1.676-.336-1.346-1.382.91-3.009 1.596-4.694 1.462 1.941.913 3.9 1.873 5.613 3.171 2.548 1.916 3.778 5.584 2.336 8.531a4.7 4.7 0 0 1-.926 1.427c3.016-.79 6.044-1.572 9.162-1.818 1.218-.154 2.484.082 3.678.288 3.884 1.637 6.332 5.423 7.976 9.136 1.839 4.267 2.085 9.461-.204 13.607-.847 1.673-2.386 2.766-3.905 3.778-2.094 1.62-4.709 2.797-5.974 5.258-.644 1.024-1.373 2.416-2.802 2.283-2.433-.335-4.354-2.072-6.533-3.067-5.096-2.664-10.659-4.513-16.413-4.96-3.604-.499-7.227-.776-10.86-.928-3.534-.263-7.137-.181-10.578.53-1.09.115-2.273.359-3.225-.329-.904-.272-1.436-1.223-1.653-2.085-.982-3.928-3.078-7.588-3.263-11.708-.286-3.341.46-7.234 3.415-9.239 2.226-1.562 5.076-1.683 7.688-1.403 2.298.083 4.554.632 6.808 1.048 3.75.827 7.426 2.047 11.261 2.422 1.626.268 3.282-.125 4.906-.266 1.299-.296 2.605-.562 3.899-.879-2.848-.784-4.774-3.414-6.022-5.854-1.232 2.629-4.144 4.156-6.956 4.306-1.882-.108-4.038.315-5.575-1.06-2.016-1.607-1.838-4.635-.7-6.704 1.311-2.329 4.085-3.11 6.276-4.361 2.195-1 4.37-2.115 6.728-2.68a192 192 0 0 1 4.652-27.685c.145-.45.466-.973 1.007-.92M22.885 37.984c3.48-.166 6.304 2.354 8.372 4.876 1.782 2.233 3.683 4.384 5.619 6.479 1.478 1.31 3.664 1.785 5.485.918.994-.067.865 1.3.694 1.96-.108.808-.647 1.766-1.606 1.558-1.262-.051-2.598.398-3.81-.004-.851-.339-1.626-.844-2.332-1.424-.666 1.51-2.163 2.468-3.488 3.372-2.474 1.502-5.596 2.432-8.447 1.556-2.487-.858-3.185-3.862-2.856-6.203.279-2.689 1.64-5.766 4.481-6.512 1.212-.322 2.507-.185 3.682.22-1.911-2.233-4.92-4.006-7.933-3.138-1.88.504-3.582 1.609-4.863 3.07-.791-.022-1.295-.283-1.053-1.15-.066-1.883 1.69-3.045 3.048-4.01a10.27 10.27 0 0 1 5.007-1.568m23.467 15.603c.422.232-.173-.988 0 0m23.238 7.481c2.753 1.57 5.15 3.773 7.42 5.99 5.001 5.025 9.079 11.464 9.662 18.679.255 3.406-.086 6.914-1.272 10.126-.389.622-1.132 1.027-1.516.19-.304-1.302.527-2.582.594-3.89 1.09-6.456-1.594-12.916-5.437-17.989-2.903-3.886-6.633-7.067-10.585-9.843-.6-.936.04-2.13.487-3 .16-.159.408-.345.647-.263M28.671 92.841c7.271.036 14.483 1.73 21.173 4.517.883.771.239 2.103-.146 2.986-.655.96-1.719-.082-2.52-.26-8.422-3.03-17.642-4.769-26.529-2.939-1.626.302-3.17.922-4.739 1.407-.993-.33-.603-1.68-.403-2.435.29-1.334 1.906-1.355 2.94-1.803 3.303-1.025 6.77-1.473 10.224-1.473m25.67 6.585c1.013.246 1.694 1.275 2.601 1.8 2.992 2.162 6.369 4.181 10.083 4.832 1.433.042 2.947.675 4.287-.06.06-.794 1.002-1.847 1.741-1.103.465.902-.193 2.016-.305 2.984-.703.588-1.095 1.794-2.17 1.642-1.75.12-3.527.536-5.238-.055-4.59-1.187-8.613-3.91-12.17-6.959-.414-.957.102-2.124.711-2.889.118-.105.298-.207.46-.192"/><path d="M25.511 47.788c-1.608.038-3.009 1.396-2.962 3.032-.127 1.508.99 3.065 2.59 3.049 1.076.278 2.213.193 3.286-.06-1.829-.408-2.67-3.065-1.16-4.308a2.3 2.3 0 0 1 1.693-.763c-1.044-.584-2.232-1.031-3.447-.95m5.987 2.943c.129.679.015 1.411-.368 1.992.412-.336 1.617-.696 1.375-1.188-.19-.116-1.195-1.33-1.007-.804m29.656 1.46-2.851 1.51c1.318 1.484 2.935 2.94 4.918 3.364.956.093 1.347.113.5-.616-1.227-1.623.253-4.232 2.282-3.957 1.034.022 1.942.725 2.14 1.754.373 1.197.272-.188.08-.648-.577-1.892-2.876-2.634-4.614-1.943zM22.319 71.85c-1.28.08-2.379 1.03-2.791 2.223 2.346-.156 4.697-.087 7.045.016.519-.823-.697-1.297-1.284-1.628-.934-.38-1.951-.68-2.97-.611m8.066 1.359c-.601.193-1.2.508-1.592 1.013l8.093.582c-1.126-1.357-3.061-1.844-4.753-1.805zm33.725.926c-2.132.07-4.014 1.948-3.999 4.096 4.296.817 8.583 1.677 12.867 2.556-1.342-3.654-4.727-6.972-8.868-6.652m-23.493.403c-.913-.159-1.328.99-.045.7l6.963.89c.456-.776.058-1.435-.675-1.816-1.101-.23-2.346.09-3.503.072zm11.34.452c-.562.102-1.452.1-1.743.612-.535 1.2.705 1.053 1.537 1.215l6.254 1.027c.36-1.119-1.004-1.872-1.88-2.231-1.324-.478-2.767-.663-4.169-.623m-30.921 2.494c-.766.028-1.531.062-2.293.14-.213 1.245-.269 2.896 1.028 3.6.96.299 2.04.449 3.036.524 1.066-.2 2.014-.627 2.769-1.42.693-.736.417-1.84.428-2.763a67 67 0 0 0-4.968-.08m7.118.412c.245 1.296.827 2.666 2.16 3.14.708.602 1.545.708 2.44.591 1.352.149 2.865-.233 3.601-1.476.296-.584.68-2.017-.4-1.772-2.6-.225-5.196-.522-7.801-.684v.139zm10.549.825c.244 2.334 2.787 3.584 4.926 3.39 1.006.109 2.077-.022 2.915-.63-.136-.571.725-1.699.11-1.858l-7.932-1.007zm10.305 2.94c1.408 1.369 3.574 1.36 5.418 1.421 1.204-.056 2.757-.41 3.194-1.685-2.71-.436-5.414-.924-8.13-1.327zm11.109.726c.674 2.514 2.458 5.033 5.185 5.472 2.754.527 6.132-.048 7.78-2.525 1.045-1-.413-.895-1.17-1.099l-11.936-2.41z"/><path d="M43.598 57.137c-3.118 1.036-5.996 2.659-8.973 4.03-.756.314-1.372.842-1.982 1.374.314 2.023 2.657 2.64 4.412 2.468 2.357-.132 5.152-.742 6.383-2.985.024-.98.13-1.99.452-2.932.203-.77 1.335-1.048 1.565-.152.949 2.967 2.703 6.048 5.67 7.356 1.456.671 3.004-.087 4.494-.216.592-.248 1.476-.676 1.04-1.457-.43-1.34-1.592-2.28-2.473-3.317-2.696-1.777-5.4-3.266-8.479-4.234zM63.144 70.3c-2.286.42-4.87 1.001-6.904 1.611 1.249.378 2.528.967 3.268 2.096 1.234-2.276 3.843-3.867 6.47-3.356 4.642.565 8.305 4.601 9.293 9.043.297.744.177 1.924 1.278 1.825 1.066.515.218-1.04.18-1.592-1.123-3.422-3.072-6.742-6.021-8.888-1.34-1.08-3.115-1.05-4.736-1.188zm-44.61.937c-1.969.4-3.871 1.965-3.834 4.12.782-.606 1.804-.704 2.716-1.012.272-1.1.675-2.175 1.267-3.143l-.135.031zm-1.757 6.671c-.65.208-2.09.22-1.683 1.245.63 2.99 2.258 5.675 2.845 8.665.339 1.367 1.955 1.268 3.045 1.073 2.847-.554 5.737-.828 8.638-.725 4.76.042 9.482.754 14.224 1.112 5.846.54 11.407 2.7 16.562 5.426 1.906.72 3.398 2.464 5.5 2.62.954-.505 1.26-1.747 1.969-2.534 1.68-2.384 4.572-3.387 6.63-5.369 1.18-.903 2.451-1.877 2.721-3.442.37-1.141.087-.589-.776-.806-.804-.45-1.091-.027-1.262.723-1.228 2.986-4.188 5.423-7.517 5.351-1.612.218-3.302.34-4.802-.422-2.528-1.107-4.082-3.656-4.715-6.256-1.91 2.337-5.374 2.483-8.075 1.7-1.144-.281-2.049-1.015-2.717-1.968-.41-.049-.892.784-1.465.885-2.65 1.123-6.176.625-8.053-1.671-.37-.54-.573-1.222-.978-.297-2.455 3.136-8.212 2.79-9.968-.91-1.042 1.926-3.257 3.278-5.476 2.821-1.253-.035-2.644-.036-3.548-1.053-1.323-1.306-1.592-3.306-1.193-5.056.019-.349.135-.83.094-1.112"/></svg>