<?xml version="1.0" encoding="UTF-8" standalone="no"?>
<svg
   ffdec:objectType="shape"
   height="106.9px"
   width="79.3px"
   version="1.1"
   id="svg6"
   sodipodi:docname="super_mutant.svg"
   inkscape:version="1.3.2 (091e20e, 2023-11-25)"
   xmlns:inkscape="http://www.inkscape.org/namespaces/inkscape"
   xmlns:sodipodi="http://sodipodi.sourceforge.net/DTD/sodipodi-0.dtd"
   xmlns="http://www.w3.org/2000/svg"
   xmlns:svg="http://www.w3.org/2000/svg"
   xmlns:ffdec="https://www.free-decompiler.com/flash">
  <g transform="matrix(1.0, 0.0, 0.0, 1.0, 39.3, 51.15)">
    <path d="M36.85 25.6 L35.95 27.3 34.75 28.85 30.1 34.95 25.25 40.9 Q22.15 44.5 19.65 46.8 L17.05 49.0 14.15 50.7 12.25 51.3 10.25 51.6 5.15 51.95 2.1 51.85 Q4.8 49.55 7.7 45.95 11.45 41.3 13.9 36.95 14.3 36.2 14.2 35.7 L14.1 35.4 13.85 35.6 13.75 35.8 Q9.9 42.05 6.4 46.1 3.05 49.95 0.0 51.9 -1.8 53.05 -3.5 53.55 L-5.9 53.95 -8.3 53.95 -12.7 53.95 -17.1 53.6 -18.9 53.25 Q-20.0 52.95 -20.4 52.35 L-21.6 50.05 -22.35 47.55 -24.3 40.15 -26.45 30.3 Q-26.55 30.05 -26.7 30.2 L-26.95 30.55 Q-27.25 31.2 -27.15 31.75 L-27.1 32.0 -24.45 43.8 -23.2 48.4 Q-25.4 47.9 -27.35 45.6 L-30.15 41.35 -33.0 35.65 -35.55 29.8 -38.05 24.55 Q-38.8 23.05 -38.55 20.45 L-37.8 16.4 -35.8 10.7 -33.5 5.6 -33.35 5.25 -31.9 7.05 Q-31.7 7.3 -31.35 6.45 -31.05 5.65 -31.3 5.4 -33.85 2.65 -35.3 -1.55 -36.65 -5.65 -36.5 -9.65 L-36.1 -12.7 Q-35.6 -14.95 -34.35 -16.25 -33.35 -17.3 -31.9 -17.75 L-29.0 -17.8 Q-28.75 -17.7 -28.55 -18.4 L-28.4 -19.25 -28.4 -19.4 Q-28.7 -24.55 -27.65 -29.2 L-27.2 -31.05 Q-26.3 -34.15 -24.9 -36.65 -22.45 -41.0 -18.65 -43.85 -14.25 -47.2 -8.05 -48.55 L-0.65 -49.4 8.45 -49.1 Q15.9 -48.4 21.35 -45.95 28.0 -42.9 31.3 -37.4 34.0 -32.95 34.65 -26.9 34.95 -24.05 34.8 -20.75 L34.55 -16.7 34.2 -14.05 34.1 -13.65 Q30.95 -14.8 26.05 -14.8 25.7 -14.8 25.5 -13.95 25.3 -13.05 25.55 -13.05 30.65 -13.05 33.85 -11.8 37.05 -10.55 38.4 -8.15 39.15 -6.8 39.25 -5.1 39.35 -3.55 38.95 -1.95 L38.85 -1.6 Q37.75 1.95 34.4 5.85 31.55 9.2 27.75 11.95 27.4 12.2 27.3 13.0 27.2 13.9 27.45 13.7 31.5 10.75 34.4 7.25 36.1 13.0 36.8 18.5 L37.1 21.95 Q37.2 23.85 36.9 25.35 L36.85 25.6 M1.95 -9.6 L2.0 -9.6 2.0 -9.55 3.4 -7.75 Q4.25 -6.95 5.25 -6.35 6.7 -5.5 8.25 -5.45 10.05 -5.35 10.95 -6.55 11.9 -7.75 12.15 -9.45 12.45 -11.2 11.8 -12.5 11.1 -13.9 9.35 -14.0 7.95 -14.15 6.3 -13.5 4.25 -12.75 2.45 -11.3 L2.35 -11.2 2.0 -10.55 Q1.8 -9.9 1.95 -9.6 M-4.2 -10.4 Q-2.05 -9.0 0.2 -10.05 1.6 -10.7 3.85 -12.65 L7.55 -15.35 Q8.8 -15.95 10.3 -16.0 L13.15 -15.75 17.15 -14.7 Q17.4 -14.6 17.65 -15.5 17.9 -16.35 17.6 -16.45 15.55 -17.3 12.6 -17.65 L10.0 -17.7 7.6 -16.95 Q6.65 -16.45 5.6 -15.65 L3.8 -14.15 2.1 -12.75 0.25 -11.65 Q-1.75 -10.85 -3.75 -12.15 L-4.25 -11.4 Q-4.55 -10.55 -4.2 -10.4 M11.5 -2.8 L13.2 -1.55 Q18.55 2.55 21.2 7.6 24.35 13.6 22.7 19.3 L22.6 19.8 Q22.55 20.2 22.75 20.25 L23.05 19.95 23.25 19.45 Q24.5 14.95 23.6 10.8 22.95 7.7 21.1 4.75 19.5 2.1 17.05 -0.35 14.45 -2.95 11.95 -4.55 11.75 -4.65 11.5 -3.8 11.2 -2.95 11.5 -2.8 M-27.85 11.4 L-27.15 13.3 -26.5 15.2 -26.3 16.1 -25.8 16.85 -24.75 17.35 -23.55 17.3 -22.1 17.05 -20.7 16.85 -17.65 16.75 -11.45 17.1 -5.5 17.8 Q-2.35 18.35 0.25 19.35 2.2 20.1 4.45 21.25 L6.25 22.25 Q7.3 22.9 8.05 23.15 9.2 23.6 9.8 22.9 L10.5 21.85 11.2 20.8 Q12.0 19.9 13.8 18.75 L16.45 16.85 Q17.65 15.7 18.25 13.95 18.75 12.35 18.75 10.6 18.75 7.3 16.75 3.9 14.7 0.45 12.1 -0.55 L10.2 -0.75 7.35 -0.4 4.55 0.25 1.3 1.1 -1.95 1.9 -4.65 2.5 -7.35 2.75 -10.3 2.35 -13.15 1.65 -16.65 0.8 -20.1 0.2 -23.0 0.05 Q-24.6 0.15 -25.75 0.7 -28.35 2.0 -28.7 5.5 -28.95 8.25 -27.85 11.4 M-15.5 -1.55 Q-14.9 -0.4 -13.45 -0.1 L-10.85 -0.05 -10.75 -0.05 Q-7.3 -0.65 -6.25 -3.25 L-6.05 -3.75 Q-5.25 -1.85 -4.1 -0.55 -2.7 0.95 -1.05 1.2 L1.55 0.85 Q2.9 0.25 3.4 -0.95 L3.65 -1.6 Q3.9 -2.55 3.75 -3.5 3.6 -4.45 3.05 -5.3 2.4 -6.3 1.15 -7.15 L-1.2 -8.45 -3.95 -9.7 -5.2 -10.05 Q-4.75 -15.9 -3.4 -23.3 L-2.45 -28.0 -2.05 -29.65 -1.95 -30.15 Q-1.95 -30.6 -2.1 -30.6 -2.4 -30.7 -2.6 -29.8 -5.0 -19.6 -5.85 -10.05 L-6.8 -9.8 -7.7 -9.5 -10.45 -8.3 -13.2 -6.9 -14.1 -6.35 -14.85 -5.7 Q-15.45 -4.95 -15.65 -4.05 -16.05 -2.6 -15.5 -1.55 M-26.9 -17.15 Q-26.1 -18.05 -25.0 -18.65 -23.85 -19.3 -22.7 -19.45 -20.7 -19.7 -18.8 -18.35 -17.55 -17.45 -15.9 -15.35 L-16.9 -16.0 Q-18.4 -16.75 -19.75 -16.55 -21.25 -16.3 -22.1 -14.95 -22.9 -13.65 -23.05 -12.1 -23.25 -10.4 -22.6 -9.2 -21.9 -7.85 -19.9 -7.8 -18.35 -7.8 -16.75 -8.45 -14.7 -9.35 -13.3 -10.95 L-12.9 -11.85 Q-11.75 -10.8 -10.65 -10.45 L-7.95 -10.6 Q-7.65 -10.75 -7.5 -11.6 -7.4 -12.45 -7.65 -12.35 -9.9 -11.4 -12.05 -13.25 L-15.2 -16.85 Q-17.05 -19.3 -18.55 -20.25 -20.5 -21.6 -22.9 -21.05 -25.15 -20.55 -26.75 -18.75 -27.15 -18.3 -27.15 -17.55 L-27.15 -17.2 -26.9 -17.15 M-26.65 21.7 Q-23.3 20.35 -19.25 20.2 -14.0 19.95 -8.0 21.6 -5.05 22.4 -2.95 23.3 -2.7 23.45 -2.45 22.55 -2.2 21.7 -2.5 21.55 L-4.3 20.85 Q-10.0 18.8 -15.3 18.45 -21.4 18.0 -26.35 19.95 -26.65 20.1 -26.8 20.95 -26.9 21.8 -26.65 21.7 M0.5 24.8 Q2.9 26.8 5.05 28.0 7.75 29.5 10.25 29.85 L13.05 29.6 13.9 28.65 14.2 27.35 14.2 26.95 Q14.1 26.8 13.9 26.95 13.7 27.05 13.55 27.7 L13.35 27.85 12.4 28.15 9.65 27.85 Q5.55 26.85 1.1 23.15 0.85 22.95 0.55 23.8 0.25 24.6 0.5 24.8" />
    <path d="M7.8 -9.3 Q7.8 -8.7 8.25 -8.25 8.65 -7.85 9.25 -7.85 9.85 -7.85 10.3 -8.25 10.75 -8.7 10.75 -9.3 L10.3 -10.35 Q9.85 -10.75 9.25 -10.75 8.65 -10.75 8.25 -10.35 7.8 -9.9 7.8 -9.3 M4.55 -8.95 L3.2 -10.35 5.75 -11.7 8.5 -12.3 Q10.15 -12.3 10.95 -11.2 11.65 -10.25 11.45 -9.0 11.2 -7.7 10.05 -7.35 L7.1 -7.45 Q5.7 -7.95 4.55 -8.95 M-21.9 -10.7 Q-22.5 -11.65 -22.3 -12.75 -22.1 -13.95 -21.15 -14.5 -19.55 -15.4 -17.4 -14.3 -15.75 -13.45 -14.1 -11.65 -15.2 -10.7 -16.55 -10.15 -18.15 -9.5 -19.65 -9.65 L-20.9 -9.9 Q-21.55 -10.15 -21.9 -10.7 M-18.75 -12.0 Q-18.75 -11.4 -18.3 -10.95 -17.9 -10.5 -17.3 -10.5 -16.7 -10.5 -16.25 -10.95 -15.85 -11.4 -15.85 -12.0 -15.85 -12.6 -16.25 -13.0 -16.7 -13.45 -17.3 -13.45 -17.9 -13.45 -18.3 -13.0 -18.75 -12.6 -18.75 -12.0 M-2.5 6.55 L-2.35 5.2 -2.15 5.1 Q-1.25 4.6 0.25 4.75 3.55 5.05 4.1 6.8 L3.9 7.6 -2.5 6.55 M-10.3 5.5 L-9.95 4.95 -9.35 4.3 -8.95 4.4 -4.5 4.15 -4.45 4.15 Q-3.75 4.55 -3.35 5.15 L-3.65 6.35 -10.3 5.5 M-10.7 7.8 L-10.6 7.3 -3.9 8.15 -4.2 9.35 -4.3 10.0 Q-4.9 10.5 -5.9 10.65 L-7.6 10.6 Q-8.7 10.45 -9.45 9.9 -10.3 9.3 -10.6 8.3 L-10.7 7.8 M3.7 10.0 L3.65 10.0 3.6 10.15 Q2.6 11.65 -0.45 11.25 -2.65 11.0 -3.3 10.0 L-2.8 8.35 -2.05 8.45 3.7 9.4 3.75 9.75 3.7 9.9 3.7 10.0 M-17.95 4.9 L-17.8 4.35 Q-17.25 3.7 -16.4 3.45 L-14.75 3.25 Q-13.6 3.35 -12.65 3.75 -11.5 4.25 -11.1 5.1 L-11.0 5.4 -17.95 4.9 M-24.7 4.85 L-24.65 4.75 Q-24.2 3.15 -22.95 2.65 -22.0 2.25 -20.65 2.65 -19.3 3.0 -18.65 3.8 L-18.5 4.05 -18.8 4.85 -19.95 4.8 -22.3 4.75 -24.7 4.85 M-25.15 7.15 L-25.0 6.65 Q-22.65 6.4 -19.1 6.6 L-19.05 8.2 -19.1 8.45 -19.35 9.1 -20.45 10.0 -21.85 10.4 -23.95 10.05 Q-24.95 9.55 -25.15 8.5 L-25.15 7.25 -25.15 7.15 M-18.25 7.5 L-18.3 7.25 -18.3 6.65 -16.8 6.75 -11.4 7.25 -11.45 8.55 -11.6 8.9 Q-12.1 9.85 -13.4 10.25 L-15.7 10.3 -17.4 9.3 Q-18.0 8.55 -18.25 7.5 M6.05 13.1 Q4.9 11.65 4.55 9.55 L15.45 11.75 15.4 11.8 14.65 13.05 Q13.1 14.85 10.35 14.9 7.5 14.95 6.05 13.1 M4.7 7.75 L4.9 6.45 4.9 6.4 4.95 6.3 Q6.0 4.0 8.6 4.1 10.95 4.2 12.75 6.0 14.25 7.45 15.0 9.8 L9.35 8.65 4.7 7.75" />
    <path d="M-6.55 -4.05 L-6.65 -3.95 Q-7.5 -2.3 -10.45 -1.8 -11.9 -1.6 -12.95 -1.8 -14.4 -2.15 -14.9 -3.25 L-15.1 -3.95 -14.95 -4.15 -14.1 -4.85 -13.15 -5.35 -8.4 -7.6 -6.85 -8.15 -5.2 -8.2 Q-3.2 -7.6 -0.7 -6.2 L1.2 -5.0 2.65 -3.3 Q3.15 -2.4 3.1 -1.8 L3.1 -1.75 2.9 -1.5 Q2.6 -1.2 2.0 -0.95 L-0.35 -0.55 Q-1.55 -0.65 -2.55 -1.4 -3.65 -2.2 -4.55 -3.6 -5.35 -4.85 -5.8 -6.35 -5.9 -6.6 -6.05 -6.45 L-6.25 -6.15 -6.5 -4.95 -6.45 -4.6 -6.5 -4.25 -6.55 -4.05 M-27.8 7.8 L-27.65 7.35 -27.6 7.3 Q-26.9 6.9 -25.6 6.75 L-25.7 7.05 -25.95 9.25 Q-25.9 10.2 -25.45 10.9 -25.0 11.65 -24.15 11.95 L-21.85 12.1 Q-20.55 11.9 -19.8 11.05 -19.15 10.4 -18.8 9.45 -18.3 11.0 -17.15 11.65 -16.25 12.2 -14.95 12.2 -13.75 12.15 -12.8 11.6 -11.85 10.95 -11.25 9.75 -10.8 11.35 -9.4 12.0 -8.35 12.5 -7.05 12.5 -5.7 12.45 -4.8 11.85 L-4.1 11.2 -3.05 12.4 Q-2.0 13.05 -0.5 13.15 1.05 13.25 2.15 12.75 3.25 12.3 3.9 11.05 L4.1 11.95 Q4.75 14.4 6.25 15.55 7.35 16.45 8.9 16.6 L11.75 16.35 Q13.35 15.9 14.5 14.65 15.55 13.5 16.0 11.85 L17.3 12.15 17.75 11.6 17.9 10.65 17.8 10.4 16.1 10.0 15.4 7.55 Q14.35 4.85 12.2 3.45 10.95 2.6 9.6 2.4 8.0 2.1 6.85 2.75 5.5 3.5 4.7 5.2 4.25 4.1 3.15 3.6 1.95 3.05 0.55 2.95 L1.45 2.7 Q5.4 1.65 7.25 1.35 L9.45 1.0 11.65 1.25 Q12.9 1.7 14.05 2.8 15.25 4.0 16.15 5.55 17.05 7.05 17.55 8.75 L17.95 10.65 Q18.3 13.2 17.05 14.75 L14.75 16.65 12.25 18.35 Q11.2 19.2 10.4 20.6 L9.9 21.3 Q9.6 21.65 9.15 21.6 8.45 21.55 7.5 21.0 L6.05 20.1 2.4 18.3 Q-2.0 16.35 -6.05 15.85 L-14.7 15.05 Q-18.35 14.9 -20.45 15.1 L-22.95 15.5 Q-24.65 15.8 -25.3 15.15 L-25.7 14.4 -25.85 13.6 -26.4 12.0 Q-27.4 9.75 -27.8 7.8 M-26.45 2.65 Q-25.4 2.0 -23.9 1.85 -24.9 3.0 -25.35 4.95 L-26.75 5.35 Q-27.55 5.6 -28.0 6.35 -28.1 5.15 -27.8 4.25 -27.4 3.25 -26.45 2.65" />
  </g>
</svg>
