<?xml version="1.0" encoding="UTF-8" standalone="no"?>
<!-- Created with Inkscape (http://www.inkscape.org/) -->

<svg
   width="130.30264mm"
   height="137.98228mm"
   viewBox="0 0 130.30264 137.98228"
   version="1.1"
   id="svg1"
   xml:space="preserve"
   xmlns="http://www.w3.org/2000/svg"
   xmlns:svg="http://www.w3.org/2000/svg"><defs
     id="defs1" /><g
     id="layer1"
     transform="translate(-37.996324,-77.664785)"><g
       transform="matrix(1.1221333,0.19786237,-0.19786237,1.1221333,-59.420075,239.95806)"
       id="g4"><path
         d="m 80.65,-158.85 q 2.25,0.15 3.85,1.8 1.75,1.7 1.85,4.1 v 0.3 l -0.25,1.85 -2.9,-1.25 -1.15,-0.05 q -0.6,0.25 -0.85,0.85 -0.2,0.55 0,1.15 0.25,0.55 0.8,0.8 l 2.5,1.1 q -0.85,0.85 -1.9,1.3 l -1.2,0.4 -0.65,-0.75 q -2.15,-2.15 -5.15,-2.15 l -0.8,0.05 q -0.85,-1.3 -0.9,-2.85 l 2.7,-2.9 4.05,-3.75 m 90.55,103.5 h -0.45 q -2.6,0 -4.4,-1.85 -1.85,-1.8 -1.85,-4.4 0,-2.6 1.85,-4.4 1.6,-1.65 3.8,-1.8 -0.9,1.55 -0.9,3.45 l 0.1,1.25 -0.7,0.3 q -0.6,0.25 -0.85,0.85 -0.2,0.6 0.05,1.15 0.4,0.9 1.4,0.9 l 0.6,-0.15 0.6,-0.25 0.95,1.1 q 1,1 2.25,1.55 l -2.45,2.3 m -82.45,-92.2 -0.2,-0.05 -6.2,-2.65 q -0.4,-0.25 -0.25,-0.65 0.15,-0.5 0.65,-0.3 l 6.2,2.7 q 0.45,0.2 0.25,0.65 l -0.45,0.3 m -8.7,17.3 -0.45,-0.3 q -0.2,-0.45 0.25,-0.65 l 34,-14.5 q 0.5,-0.2 0.65,0.3 0.25,0.45 -0.25,0.65 l -34,14.5 h -0.2 m -1,-12 q -0.4,0 -0.5,-0.4 -0.1,-0.45 0.4,-0.55 l 24,-4.5 q 0.5,-0.1 0.6,0.4 0.1,0.45 -0.4,0.55 l -24,4.5 h -0.1 m -3.45,7.35 q 2,0 3.5,1.1 l 0.9,0.75 0.55,0.6 -1.05,0.4 q -0.55,0.2 -0.8,0.8 -0.25,0.6 0,1.15 0.4,0.95 1.4,0.95 l 0.6,-0.15 1.05,-0.45 0.1,1.1 -0.2,1.7 -0.4,1 -1.25,1.7 q -1.8,1.85 -4.4,1.85 -2.6,0 -4.4,-1.85 -1.85,-1.85 -1.85,-4.4 0,-2.6 1.85,-4.4 1.8,-1.85 4.4,-1.85 m 17.5,21.5 q 2,0 3.55,1.1 l 0.3,0.25 -0.25,0.2 q -0.5,0.35 -0.6,1 -0.1,0.6 0.3,1.1 0.5,0.6 1.2,0.6 0.45,0 0.9,-0.35 l 0.3,-0.2 q 0.55,1.15 0.55,2.55 0,2.55 -1.85,4.4 -1.8,1.85 -4.4,1.85 -2.6,0 -4.4,-1.85 -1.85,-1.85 -1.85,-4.4 0,-2.6 1.85,-4.4 0.65,-0.65 1.4,-1.1 1.35,-0.75 3,-0.75 m -10.05,-4.35 q -0.25,0 -0.4,-0.2 -0.25,-0.45 0.15,-0.7 l 38.5,-24 0.7,0.15 q 0.25,0.4 -0.15,0.7 l -38.5,24 -0.3,0.05 m -1.45,-4.15 q 1.8,0 3.2,0.9 l -2.5,1.55 q -0.5,0.35 -0.65,0.95 -0.15,0.55 0.15,1.1 0.45,0.75 1.3,0.75 0.4,0 0.8,-0.25 l 3.1,-1.9 q 0.85,1.4 0.85,3.15 0,2.55 -1.85,4.4 -1.8,1.85 -4.4,1.85 -2.6,0 -4.4,-1.85 -1.85,-1.85 -1.85,-4.4 0,-2.6 1.85,-4.4 1.8,-1.85 4.4,-1.85 m 15.95,11.65 q -0.25,0 -0.4,-0.15 -0.25,-0.45 0.1,-0.7 l 30,-23 0.7,0.05 q 0.35,0.45 -0.1,0.7 l -30,23 -0.3,0.1 m 9.55,-2.65 2.55,0.55 0.55,0.3 -2.1,1.75 q -0.45,0.4 -0.5,1 -0.05,0.6 0.35,1.1 0.45,0.55 1.15,0.55 0.55,0 0.95,-0.4 l 2.35,-1.95 q 0.95,1.45 0.95,3.35 0,2.55 -1.85,4.4 -1.8,1.85 -4.4,1.85 -2.6,0 -4.4,-1.85 -1.85,-1.85 -1.85,-4.4 0,-2.6 1.85,-4.4 1.15,-1.15 2.6,-1.6 l 1.8,-0.25 m 9.1,0.35 q 1.6,-1.6 3.8,-1.8 -0.9,1.55 -0.9,3.45 l 0.1,1.2 -0.7,0.3 q -0.55,0.25 -0.8,0.85 -0.2,0.6 0,1.15 0.4,0.9 1.4,0.9 l 0.6,-0.15 0.65,-0.25 0.9,1.1 0.8,0.7 q 0.1,1.1 0.45,2 -1.1,0.5 -1.95,1.2 -2.55,0 -4.35,-1.85 -1.85,-1.85 -1.85,-4.4 0,-2.6 1.85,-4.4 m -7.15,3.8 q -0.2,0 -0.35,-0.15 l -0.1,-0.35 q 0,-0.25 0.15,-0.35 l 16.5,-14 0.7,0.05 q 0.3,0.45 -0.05,0.7 l -16.5,14 -0.35,0.1 m 16.7,6.9 q 2.55,0 4.4,1.85 l 0.6,0.65 0.8,1.35 -2.6,0.45 q -0.6,0.1 -0.95,0.65 -0.35,0.5 -0.25,1.1 0.25,1.2 1.5,1.2 h 0.25 l 2.5,-0.45 q -0.2,2.25 -1.85,3.85 -1.8,1.8 -4.3,1.85 h -0.2 q -2.55,-0.05 -4.3,-1.85 -1.85,-1.8 -1.85,-4.4 0,-2.5 1.75,-4.25 l 0.1,-0.15 q 1.55,-1.55 3.65,-1.8 l 0.75,-0.05 m -6.35,-6.9 0.4,0.95 -0.55,0.2 -0.2,0.05 -0.45,-0.3 q -0.2,-0.45 0.25,-0.65 l 0.55,-0.25 m 10.85,-3.6 q 2.55,0 4.4,1.85 1.85,1.8 1.85,4.4 l -0.25,1.9 -2.95,-1.25 -1.1,-0.05 q -0.6,0.25 -0.85,0.8 -0.25,0.6 -0.05,1.15 0.25,0.6 0.85,0.85 l 2.45,1.05 q -1.35,1.3 -3.05,1.7 l -0.65,-0.75 q -2.15,-2.15 -5.15,-2.15 l -0.8,0.05 q -0.95,-1.45 -0.95,-3.3 0,-2.6 1.85,-4.4 1.8,-1.85 4.4,-1.85 m 8.65,11.45 -0.2,-0.05 -6.15,-2.65 q -0.45,-0.3 -0.3,-0.7 0.25,-0.4 0.7,-0.25 l 6.15,2.7 q 0.45,0.2 0.25,0.65 l -0.45,0.3 m -9.65,5.3 q -0.4,0 -0.5,-0.4 -0.1,-0.45 0.4,-0.55 l 24,-4.5 q 0.45,-0.1 0.55,0.4 0.1,0.45 -0.4,0.55 l -24,4.5 h -0.05 M 75.6,-148.4 q 2.6,0 4.4,1.85 l 1.35,1.95 -2.55,0.45 q -0.6,0.1 -0.95,0.65 -0.35,0.5 -0.25,1.1 0.1,0.55 0.55,0.9 0.45,0.35 0.95,0.35 l 2.75,-0.5 q -0.2,2.25 -1.85,3.9 -1.75,1.8 -4.3,1.85 h -0.2 q -2.55,-0.05 -4.3,-1.85 -1.85,-1.85 -1.85,-4.4 0,-2.6 1.85,-4.4 1.8,-1.85 4.4,-1.85 m 50.15,60.05 q 1.95,0 3.5,1.1 l 0.9,0.75 0.55,0.6 -1.05,0.45 -0.55,0.45 -0.25,0.35 q -0.25,0.6 0,1.15 0.4,0.9 1.4,0.9 l 0.55,-0.1 1.15,-0.45 0.05,1.05 -0.2,1.75 -0.4,0.95 q -0.45,0.95 -1.25,1.7 -1.85,1.85 -4.4,1.85 -2.6,0 -4.4,-1.85 -1.85,-1.8 -1.85,-4.4 0,-2.6 1.85,-4.4 1.8,-1.85 4.4,-1.85 m 4.5,4.75 -0.5,-0.3 q -0.2,-0.45 0.3,-0.65 l 34,-14.5 q 0.5,-0.2 0.65,0.25 0.15,0.45 -0.3,0.7 l -34,14.5 h -0.15 m 1.5,8.25 q 1.75,0 3.2,0.9 H 135 l -2.55,1.6 -0.7,0.95 q -0.15,0.6 0.2,1.1 0.45,0.7 1.3,0.7 l 0.75,-0.2 3.15,-1.95 q 0.55,0.85 0.75,1.9 l 0.1,1.25 q 0,1.5 -0.6,2.7 -0.45,0.95 -1.25,1.7 -1.85,1.85 -4.4,1.85 -2.6,0 -4.4,-1.85 -1.85,-1.8 -1.85,-4.4 0,-2.6 1.85,-4.4 1.25,-1.3 2.95,-1.65 l 1.45,-0.2 m 1.5,4.25 q -0.3,0 -0.45,-0.2 -0.25,-0.4 0.15,-0.7 l 38.5,-24 q 0.45,-0.25 0.7,0.15 0.25,0.45 -0.15,0.7 l -38.5,24 -0.25,0.05 m 10,4.25 q 2,0 3.55,1.15 l 0.3,0.25 -0.3,0.2 q -0.5,0.4 -0.55,1 -0.05,0.6 0.3,1.1 0.45,0.55 1.2,0.55 0.45,0 0.9,-0.3 l 0.35,-0.25 q 0.5,1.15 0.5,2.55 0,2.6 -1.85,4.4 -1.85,1.85 -4.4,1.85 -2.6,0 -4.4,-1.85 -1.85,-1.8 -1.85,-4.4 0,-2.6 1.85,-4.4 l 1.4,-1.1 q 1.35,-0.75 3,-0.75 m 14,0.5 q 1.4,0 2.55,0.55 l 0.6,0.3 -2.15,1.8 q -0.45,0.4 -0.5,1 -0.05,0.6 0.35,1.1 0.45,0.5 1.15,0.5 0.55,0 0.95,-0.35 l 2.35,-1.95 q 0.95,1.45 0.95,3.3 0,2.6 -1.85,4.4 -1.85,1.85 -4.4,1.85 -2.6,0 -4.4,-1.85 -1.85,-1.8 -1.85,-4.4 0,-2.6 1.85,-4.4 1.15,-1.2 2.65,-1.6 l 1.75,-0.25 m 2,4.25 -0.4,-0.15 -0.1,-0.35 0.15,-0.35 16.5,-14 0.7,0.05 q 0.35,0.35 -0.05,0.7 l -16.5,14 -0.3,0.1 m -11.5,-1.5 q -0.25,0 -0.4,-0.2 -0.3,-0.3 0.05,-0.7 l 30,-23 0.7,0.1 q 0.35,0.4 -0.05,0.7 l -30,23 -0.3,0.1 m 21.65,1.6 0.4,0.95 -0.55,0.2 -0.2,0.05 q -0.3,0 -0.45,-0.3 -0.2,-0.45 0.25,-0.65 L 169.4,-62" /><path
         d="m 174.4,-58.45 q -1.3,-0.45 -2.3,-1.5 -1.85,-1.8 -1.85,-4.4 0,-1.95 1.1,-3.45 l 0.75,-0.9 v -0.05 q 1.55,-1.6 3.75,-1.8 l 0.65,-0.05 q 1.85,0 3.35,1 l 1.05,0.85 1,1.25 0.05,0.05 q -3.35,4.7 -7.55,9 m -85.05,-94.7 q 2.6,0 4.4,1.85 1.7,1.65 1.85,4 l -12.2,2.3 q -0.2,-0.5 -0.25,-1.05 l 2.1,-1.5 0.25,-0.25 2.65,1.15 0.6,0.15 q 1,0 1.4,-0.9 0.25,-0.55 0,-1.15 l -0.8,-0.85 -2.35,-1 q 0.35,-1.05 0.35,-2.25 v -0.2 l 2,-0.3 m 35,3.5 q 2.6,0 4.4,1.85 1.85,1.8 1.85,4.4 l -0.1,1.25 -0.6,0.05 q -2.4,0.3 -4.15,2.1 -1.3,1.25 -1.8,2.85 -2.35,-0.15 -4,-1.85 l -0.2,-0.2 2.65,-1.7 q 0.55,-0.35 0.65,-0.95 0.15,-0.55 -0.2,-1.1 l -0.95,-0.7 -1.1,0.2 -2.5,1.6 -0.2,-1.55 q 0,-2.6 1.85,-4.4 l 1.4,-1.1 q 1.35,-0.75 3,-0.75 m -11,-3 q 2.6,0 4.4,1.85 1.05,1 1.5,2.3 -2.15,2.1 -2.15,5.1 l 0.25,1.8 q -1.7,1.45 -4,1.45 -2.25,0 -3.9,-1.4 l 5.25,-2.25 0.8,-0.8 -0.05,-1.15 -0.8,-0.8 q -0.6,-0.25 -1.15,0 l -5.9,2.55 q -0.5,-1.1 -0.5,-2.4 0,-2.6 1.85,-4.4 l 1.4,-1.1 q 1.35,-0.75 3,-0.75 m -10.5,-2 q 2.6,0 4.4,1.85 l 1.05,1.25 v 0.05 h -0.05 q -2.15,2.1 -2.15,5.1 0,1.5 0.55,2.8 l -3.45,1.45 h -0.35 q -2.6,0 -4.4,-1.85 l -0.6,-0.65 5.5,-1.05 q 0.65,-0.1 1,-0.65 0.3,-0.5 0.2,-1.1 l -0.65,-0.95 -1.1,-0.25 -6.15,1.15 -0.05,-0.9 q 0,-2.6 1.85,-4.4 l 1.4,-1.1 q 1.35,-0.75 3,-0.75 m -13.5,14 q -2.45,0 -4.2,-1.65 l 9.8,-1.8 -1.2,1.6 q -1.8,1.85 -4.4,1.85 m 37,23.5 q 1.9,0 3.4,1 l 1,0.85 0.95,1.2 -1.45,-0.15 q -3.4,0 -5.85,2.4 -2.25,2.3 -2.4,5.4 l -0.05,-0.05 q -1.85,-1.85 -1.85,-4.4 0,-2.6 1.85,-4.4 1.6,-1.6 3.8,-1.8 l 0.6,-0.05 m 3,-12.5 q 2.6,0 4.4,1.85 l 0.85,0.95 q 1,1.5 1,3.45 0,1.45 -0.6,2.7 -0.45,0.9 -1.25,1.7 -1.55,1.6 -3.75,1.85 -1.65,-1 -3.65,-1 H 126 q -0.55,-0.35 -1.05,-0.85 l -0.8,-1 2.4,-2.05 q 0.5,-0.35 0.55,-1 l -0.35,-1.1 q -0.4,-0.5 -1.05,-0.5 l -1.1,0.35 -1.5,1.25 v -0.35 q 0,-2.6 1.85,-4.4 1.8,-1.85 4.4,-1.85 m 1.5,-11.5 q 2.6,0 4.4,1.85 1.85,1.8 1.85,4.4 0,1.45 -0.6,2.7 l -1.25,1.7 -1.65,1.25 q -1.85,-1.4 -4.25,-1.4 l -2.55,0.5 -0.35,-0.35 -0.25,-0.25 2.3,-1.75 q 0.5,-0.4 0.6,-1 0.05,-0.6 -0.3,-1.1 -0.35,-0.5 -1,-0.55 -0.6,-0.1 -1.1,0.3 l -1.9,1.5 -0.2,-1.55 q 0,-2.6 1.85,-4.4 1.5,-1.55 3.55,-1.8 l 0.85,-0.05 m 8.65,34.55 q 2.55,0 4.4,1.85 l 0.25,0.25 q 1.5,1.6 1.6,3.8 l -12.2,2.3 -0.25,-1.05 2.1,-1.5 0.25,-0.25 2.65,1.15 0.6,0.15 q 1,0 1.35,-0.9 0.25,-0.6 0.05,-1.15 -0.25,-0.6 -0.8,-0.85 l -2.35,-1 q 0.35,-1.1 0.35,-2.3 v -0.2 l 2,-0.3 m 13.5,-1.5 q 2.55,0 4.4,1.85 l 1.05,1.3 h -0.05 q -2.15,2.1 -2.15,5.1 0,1.5 0.55,2.85 l -3.3,1.4 H 153 q -2.6,0 -4.4,-1.85 l -0.55,-0.6 5.45,-1.05 q 0.6,-0.1 0.95,-0.65 0.35,-0.5 0.25,-1.1 l -0.65,-0.95 -1.1,-0.25 -6.1,1.15 -0.1,-0.95 q 0,-2.6 1.85,-4.4 l 1.4,-1.1 q 1.35,-0.75 3,-0.75 m 10.5,2 q 2.55,0 4.4,1.85 1.05,1 1.5,2.3 -2.15,2.1 -2.15,5.1 0,0.95 0.25,1.8 -1.75,1.45 -4,1.45 -2.25,0 -3.9,-1.35 l 5.2,-2.25 q 0.6,-0.25 0.85,-0.8 l -0.05,-1.15 q -0.2,-0.6 -0.8,-0.85 l -1.15,0.05 -5.9,2.55 q -0.5,-1.15 -0.5,-2.45 0,-2.6 1.85,-4.4 0.65,-0.65 1.4,-1.1 1.35,-0.75 3,-0.75 m -24,12 q -2.4,0 -4.15,-1.6 l 9.75,-1.8 -1.2,1.55 q -1.85,1.85 -4.4,1.85 m 40,11 q 2.55,0 4.4,1.85 l 0.85,1 q 1,1.45 1,3.4 0,1.5 -0.6,2.7 l -1.25,1.7 q -1.6,1.6 -3.75,1.85 -1.65,-1 -3.65,-1 h -0.35 q -0.55,-0.35 -1.05,-0.85 l -0.8,-0.95 2.4,-2.05 q 0.5,-0.35 0.55,-1 0,-0.6 -0.4,-1.1 -0.35,-0.5 -1,-0.5 -0.6,-0.05 -1.1,0.35 l -1.5,1.3 v -0.45 q 0,-2.6 1.85,-4.4 1.8,-1.85 4.4,-1.85 m 1.5,-11.5 q 2.55,0 4.4,1.85 1.85,1.8 1.85,4.4 0,1.5 -0.6,2.7 l -1.25,1.7 -1.65,1.25 q -1.85,-1.4 -4.25,-1.4 l -2.55,0.45 -0.35,-0.3 -0.2,-0.2 2.25,-1.75 q 0.5,-0.35 0.55,-1 0.1,-0.6 -0.3,-1.1 -0.4,-0.5 -1,-0.55 l -1.1,0.3 -1.85,1.45 -0.2,-1.55 q 0,-2.6 1.85,-4.4 1.5,-1.55 3.55,-1.8 L 181,-94.6 m -6.5,-8.5 q 2.55,0 4.4,1.85 1.85,1.8 1.85,4.4 l -0.1,1.25 -0.6,0.05 q -2.4,0.3 -4.15,2.1 -1.3,1.25 -1.8,2.85 -2.35,-0.15 -4,-1.85 l -0.2,-0.2 2.6,-1.65 q 0.55,-0.35 0.7,-0.95 0.15,-0.6 -0.2,-1.1 -0.35,-0.55 -0.95,-0.7 l -1.1,0.2 -2.5,1.6 -0.2,-1.6 q 0,-2.6 1.85,-4.4 0.65,-0.65 1.4,-1.1 1.35,-0.75 3,-0.75" /><path
         d="m 95.7,-152.5 -0.15,0.25 -0.1,-0.1 0.25,-0.15 m -23.55,2.25 0.2,0.55 -1.15,0.65 0.95,-1.2 m -4.5,6 q -0.3,1 -0.3,2.15 0,2.05 0.95,3.85 0.9,1.8 2.55,2.9 -3.5,2.45 -3.5,6.75 0,3.2 2.2,5.6 2.15,2.35 5.3,2.65 -1.5,2.15 -1.5,4.75 0,3.4 2.4,5.85 2.45,2.4 5.85,2.4 1.65,0 3.3,-0.7 l -0.05,0.95 q 0,3.4 2.4,5.85 2.45,2.4 5.85,2.4 2.05,0 3.9,-1 1.8,-0.95 2.95,-2.65 1.1,1.9 3,3 1.95,1.15 4.15,1.15 2.3,0 4.25,-1.2 l 0.2,-0.1 q -1.05,1.7 -2.8,2.8 -1.95,1.2 -4.25,1.2 -2.2,0 -4.15,-1.15 -1.9,-1.15 -3,-3.05 -1.15,1.7 -2.95,2.7 -1.8,1 -3.9,1 -3.4,0 -5.85,-2.45 -2.4,-2.4 -2.4,-5.8 l 0.05,-0.95 q -1.55,0.7 -3.3,0.7 -3.4,0 -5.85,-2.45 -2.4,-2.4 -2.4,-5.8 0,-2.7 1.55,-4.8 -3.2,-0.25 -5.35,-2.6 -2.2,-2.4 -2.2,-5.6 0,-2.05 0.95,-3.85 0.9,-1.75 2.55,-2.9 -1.65,-1.15 -2.55,-2.95 -0.95,-1.8 -0.95,-3.8 v -0.15 l 2.9,-4.7 m 44.25,44.35 q 1.55,-1.1 2.45,-2.8 1.85,2.15 4.55,2.7 -1.4,2 -1.4,4.5 0,2.05 0.95,3.85 0.9,1.8 2.55,2.9 -1.65,1.15 -2.55,2.9 -0.95,1.8 -0.95,3.85 0,3.2 2.2,5.6 2.15,2.35 5.3,2.6 -1.5,2.2 -1.5,4.8 0,3.4 2.4,5.85 2.45,2.4 5.85,2.4 1.65,0 3.3,-0.7 L 135,-60.5 q 0,3.4 2.4,5.85 2.45,2.4 5.85,2.4 2.05,0 3.9,-1 1.75,-0.95 2.95,-2.65 1.05,1.9 3,3 1.9,1.15 4.15,1.15 2.3,0 4.25,-1.2 l 0.2,-0.1 q -1.05,1.7 -2.8,2.75 -1.95,1.2 -4.25,1.2 -2.2,0 -4.15,-1.15 -1.9,-1.1 -3,-3 -1.15,1.7 -2.95,2.65 -1.85,1 -3.9,1 -3.4,0 -5.85,-2.4 -2.4,-2.45 -2.4,-5.85 l 0.05,-0.9 q -1.5,0.65 -3.3,0.65 -3.4,0 -5.85,-2.4 -2.4,-2.45 -2.4,-5.85 0,-2.6 1.5,-4.75 -3.15,-0.3 -5.3,-2.65 -2.2,-2.35 -2.2,-5.6 0,-2.05 0.95,-3.8 0.9,-1.75 2.55,-2.95 -1.65,-1.15 -2.55,-2.9 -0.95,-1.8 -0.95,-3.85 0,-2.45 1.35,-4.5 -2.6,-0.6 -4.35,-2.55 m 50.15,46.6 q 1.55,-1.1 2.45,-2.8 1.85,2.15 4.5,2.7 l -3.2,2.5 q -2.15,-0.6 -3.75,-2.4 m 21.05,-15.85 -0.1,-0.15 0.3,-0.15 -0.2,0.3 m -37.2,-36.85 -0.2,0.35 -0.1,-0.1 0.3,-0.25 m -12.75,-9.45 -0.3,-0.45 0.95,-0.5 -0.1,0.15 -0.55,0.8 m -49.3,-12.45 v -0.7 l -0.05,-0.85 24.45,-10.4 q 1.1,0.9 2.75,1.4 l -3.65,2.3 -1.7,-1.05 -21.8,9.3 m 36.25,-3.05 -0.1,-1.2 v -0.45 q -2.25,-0.55 -3.9,-2.05 l -26.6,16.6 -0.35,-0.85 29.55,-18.45 q 1.65,1.6 3.9,2.05 v 0.45 l 0.2,1.8 -2.7,2.1 m -25.95,-9.2 q 1.55,-1.1 2.45,-2.8 0.85,0.95 2.05,1.7 l -3.9,1.7 -0.6,-0.6 m -1.1,1.3 -6.85,2.95 q -2.15,-0.15 -3.9,-1.3 1.15,-1.55 1.45,-3.6 2.35,2.2 5.6,2.2 2.3,0 4.25,-1.2 l 0.2,-0.1 -0.75,1.05 m 25.5,18.5 -0.05,-0.3 q 0,-1.1 0.35,-2.4 l -10.75,8.3 -0.85,-0.1 14.2,-10.9 q -0.35,1.1 -0.35,2.4 l 0.05,0.75 -2.6,2.25 m 38.95,30.8 -1.7,-1.05 -21.8,9.3 V -82 l -0.05,-0.85 24.4,-10.45 q 1.15,0.95 2.8,1.45 l -3.65,2.3 m -13.2,-4 q 1.5,-1.1 2.45,-2.8 0.85,0.95 2.05,1.7 l -3.95,1.7 -0.55,-0.6 m -1.1,1.3 -6.8,2.9 q -2.2,-0.15 -3.95,-1.3 1.1,-1.5 1.4,-3.55 2.45,2.2 5.65,2.2 2.25,0 4.2,-1.2 l 0.3,-0.15 -0.8,1.1 m -3.6,20.8 -0.35,-0.85 29.6,-18.45 q 1.7,1.6 3.9,2.05 v 0.45 l 0.15,1.8 -2.65,2.05 -0.1,-1.2 V -86 q -2.25,-0.55 -3.9,-2.1 l -26.65,16.65 m 18.6,3.3 -0.8,-0.1 14.2,-10.9 q -0.35,1.1 -0.35,2.4 V -76 l -2.55,2.2 -0.05,-0.3 q 0,-1.3 0.35,-2.35 l -10.8,8.3"/></g></g></svg>
