<svg xmlns="http://www.w3.org/2000/svg" xmlns:ffdec="https://www.free-decompiler.com/flash" ffdec:objectType="shape" width="79.3" height="106.9"><path d="m76.15 76.75-.9 1.7-1.2 1.55-4.65 6.1-4.85 5.95q-3.1 3.6-5.6 5.9l-2.6 2.2-2.9 1.7-1.9.6-2 .3-5.1.35-3.05-.1q2.7-2.3 5.6-5.9 3.75-4.65 6.2-9 .4-.75.3-1.25l-.1-.3-.25.2-.1.2q-3.85 6.25-7.35 10.3-3.35 3.85-6.4 5.8-1.8 1.15-3.5 1.65l-2.4.4h-6.8l-4.4-.35-1.8-.35q-1.1-.3-1.5-.9l-1.2-2.3-.75-2.5L15 91.3l-2.15-9.85q-.1-.25-.25-.1l-.25.35q-.3.65-.2 1.2l.05.25 2.65 11.8 1.25 4.6q-2.2-.5-4.15-2.8l-2.8-4.25-2.85-5.7-2.55-5.85-2.5-5.25q-.75-1.5-.5-4.1l.75-4.05 2-5.7 2.3-5.1.15-.35 1.45 1.8q.2.25.55-.6.3-.8.05-1.05-2.55-2.75-4-6.95-1.35-4.1-1.2-8.1l.4-3.05q.5-2.25 1.75-3.55 1-1.05 2.45-1.5l2.9-.05q.25.1.45-.6l.15-.85v-.15q-.3-5.15.75-9.8l.45-1.85q.9-3.1 2.3-5.6 2.45-4.35 6.25-7.2 4.4-3.35 10.6-4.7l7.4-.85 9.1.3q7.45.7 12.9 3.15 6.65 3.05 9.95 8.55 2.7 4.45 3.35 10.5.3 2.85.15 6.15l-.25 4.05-.35 2.65-.1.4q-3.15-1.15-8.05-1.15-.35 0-.55.85-.2.9.05.9 5.1 0 8.3 1.25T77.7 43q.75 1.35.85 3.05.1 1.55-.3 3.15l-.1.35Q77.05 53.1 73.7 57q-2.85 3.35-6.65 6.1-.35.25-.45 1.05-.1.9.15.7 4.05-2.95 6.95-6.45 1.7 5.75 2.4 11.25l.3 3.45q.1 1.9-.2 3.4zm-34.9-35.2h.05v.05l1.4 1.8q.85.8 1.85 1.4 1.45.85 3 .9 1.8.1 2.7-1.1.95-1.2 1.2-2.9.3-1.75-.35-3.05-.7-1.4-2.45-1.5-1.4-.15-3.05.5-2.05.75-3.85 2.2l-.1.1-.35.65q-.2.65-.05.95m-6.15-.8q2.15 1.4 4.4.35 1.4-.65 3.65-2.6l3.7-2.7q1.25-.6 2.75-.65l2.85.25 4 1.05q.25.1.5-.8.25-.85-.05-.95-2.05-.85-5-1.2l-2.6-.05-2.4.75q-.95.5-2 1.3L43.1 37l-1.7 1.4-1.85 1.1q-2 .8-4-.5l-.5.75q-.3.85.05 1m15.7 7.6 1.7 1.25q5.35 4.1 8 9.15 3.15 6 1.5 11.7l-.1.5q-.05.4.15.45l.3-.3.2-.5q1.25-4.5.35-8.65-.65-3.1-2.5-6.05-1.6-2.65-4.05-5.1-2.6-2.6-5.1-4.2-.2-.1-.45.75-.3.85 0 1m-39.35 14.2.7 1.9.65 1.9.2.9.5.75 1.05.5 1.2-.05 1.45-.25 1.4-.2 3.05-.1 6.2.35 5.95.7q3.15.55 5.75 1.55 1.95.75 4.2 1.9l1.8 1q1.05.65 1.8.9 1.15.45 1.75-.25l.7-1.05.7-1.05q.8-.9 2.6-2.05l2.65-1.9q1.2-1.15 1.8-2.9.5-1.6.5-3.35 0-3.3-2-6.7Q54 51.6 51.4 50.6l-1.9-.2-2.85.35-2.8.65-3.25.85-3.25.8-2.7.6-2.7.25-2.95-.4-2.85-.7-3.5-.85-3.45-.6-2.9-.15q-1.6.1-2.75.65-2.6 1.3-2.95 4.8-.25 2.75.85 5.9M23.8 49.6q.6 1.15 2.05 1.45l2.6.05h.1q3.45-.6 4.5-3.2l.2-.5q.8 1.9 1.95 3.2 1.4 1.5 3.05 1.75l2.6-.35q1.35-.6 1.85-1.8l.25-.65q.25-.95.1-1.9t-.7-1.8q-.65-1-1.9-1.85l-2.35-1.3-2.75-1.25-1.25-.35q.45-5.85 1.8-13.25l.95-4.7.4-1.65.1-.5q0-.45-.15-.45-.3-.1-.5.8-2.4 10.2-3.25 19.75l-.95.25-.9.3-2.75 1.2-2.75 1.4-.9.55-.75.65q-.6.75-.8 1.65-.4 1.45.15 2.5M12.4 34q.8-.9 1.9-1.5 1.15-.65 2.3-.8 2-.25 3.9 1.1 1.25.9 2.9 3l-1-.65q-1.5-.75-2.85-.55-1.5.25-2.35 1.6-.8 1.3-.95 2.85-.2 1.7.45 2.9.7 1.35 2.7 1.4 1.55 0 3.15-.65 2.05-.9 3.45-2.5l.4-.9q1.15 1.05 2.25 1.4l2.7-.15q.3-.15.45-1 .1-.85-.15-.75-2.25.95-4.4-.9l-3.15-3.6q-1.85-2.45-3.35-3.4-1.95-1.35-4.35-.8-2.25.5-3.85 2.3-.4.45-.4 1.2v.35zm.25 38.85q3.35-1.35 7.4-1.5 5.25-.25 11.25 1.4 2.95.8 5.05 1.7.25.15.5-.75.25-.85-.05-1L35 72q-5.7-2.05-11-2.4-6.1-.45-11.05 1.5-.3.15-.45 1-.1.85.15.75m27.15 3.1q2.4 2 4.55 3.2 2.7 1.5 5.2 1.85l2.8-.25.85-.95.3-1.3v-.4q-.1-.15-.3 0-.2.1-.35.75l-.2.15-.95.3-2.75-.3q-4.1-1-8.55-4.7-.25-.2-.55.65-.3.8-.05 1"/><path d="M47.1 41.85q0 .6.45 1.05.4.4 1 .4t1.05-.4q.45-.45.45-1.05l-.45-1.05q-.45-.4-1.05-.4t-1 .4q-.45.45-.45 1.05m-3.25.35-1.35-1.4 2.55-1.35 2.75-.6q1.65 0 2.45 1.1.7.95.5 2.2-.25 1.3-1.4 1.65l-2.95-.1q-1.4-.5-2.55-1.5M17.4 40.45q-.6-.95-.4-2.05.2-1.2 1.15-1.75 1.6-.9 3.75.2 1.65.85 3.3 2.65-1.1.95-2.45 1.5-1.6.65-3.1.5l-1.25-.25q-.65-.25-1-.8m3.15-1.3q0 .6.45 1.05.4.45 1 .45t1.05-.45q.4-.45.4-1.05t-.4-1q-.45-.45-1.05-.45t-1 .45q-.45.4-.45 1M36.8 57.7l.15-1.35.2-.1q.9-.5 2.4-.35 3.3.3 3.85 2.05l-.2.8zM29 56.65l.35-.55.6-.65.4.1 4.45-.25h.05q.7.4 1.1 1l-.3 1.2zm-.4 2.3.1-.5 6.7.85-.3 1.2-.1.65q-.6.5-1.6.65l-1.7-.05q-1.1-.15-1.85-.7-.85-.6-1.15-1.6zm14.4 2.2h-.05l-.05.15q-1 1.5-4.05 1.1-2.2-.25-2.85-1.25l.5-1.65.75.1 5.75.95.05.35-.05.15zm-21.65-5.1.15-.55q.55-.65 1.4-.9l1.65-.2q1.15.1 2.1.5 1.15.5 1.55 1.35l.1.3zM14.6 56l.05-.1q.45-1.6 1.7-2.1.95-.4 2.3 0 1.35.35 2 1.15l.15.25-.3.8-1.15-.05L17 55.9zm-.45 2.3.15-.5q2.35-.25 5.9-.05l.05 1.6-.05.25-.25.65-1.1.9-1.4.4-2.1-.35q-1-.5-1.2-1.55V58.3m6.9.35L21 58.4v-.6l1.5.1 5.4.5-.05 1.3-.15.35q-.5.95-1.8 1.35l-2.3.05-1.7-1q-.6-.75-.85-1.8m24.3 5.6q-1.15-1.45-1.5-3.55l10.9 2.2-.05.05-.75 1.25q-1.55 1.8-4.3 1.85-2.85.05-4.3-1.8M44 58.9l.2-1.3v-.05l.05-.1q1.05-2.3 3.65-2.2 2.35.1 4.15 1.9 1.5 1.45 2.25 3.8l-5.65-1.15z"/><path d="m32.75 47.1-.1.1q-.85 1.65-3.8 2.15-1.45.2-2.5 0Q24.9 49 24.4 47.9l-.2-.7.15-.2.85-.7.95-.5 4.75-2.25 1.55-.55 1.65-.05q2 .6 4.5 2l1.9 1.2 1.45 1.7q.5.9.45 1.5v.05l-.2.25q-.3.3-.9.55l-2.35.4q-1.2-.1-2.2-.85-1.1-.8-2-2.2-.8-1.25-1.25-2.75-.1-.25-.25-.1l-.2.3-.25 1.2.05.35-.05.35zM11.5 58.95l.15-.45.05-.05q.7-.4 2-.55l-.1.3-.25 2.2q.05.95.5 1.65.45.75 1.3 1.05l2.3.15q1.3-.2 2.05-1.05.65-.65 1-1.6.5 1.55 1.65 2.2.9.55 2.2.55 1.2-.05 2.15-.6.95-.65 1.55-1.85.45 1.6 1.85 2.25 1.05.5 2.35.5 1.35-.05 2.25-.65l.7-.65 1.05 1.2q1.05.65 2.55.75 1.55.1 2.65-.4 1.1-.45 1.75-1.7l.2.9q.65 2.45 2.15 3.6 1.1.9 2.65 1.05l2.85-.25q1.6-.45 2.75-1.7 1.05-1.15 1.5-2.8l1.3.3.45-.55.15-.95-.1-.25-1.7-.4-.7-2.45q-1.05-2.7-3.2-4.1-1.25-.85-2.6-1.05-1.6-.3-2.75.35-1.35.75-2.15 2.45-.45-1.1-1.55-1.6-1.2-.55-2.6-.65l.9-.25q3.95-1.05 5.8-1.35l2.2-.35 2.2.25q1.25.45 2.4 1.55 1.2 1.2 2.1 2.75.9 1.5 1.4 3.2l.4 1.9q.35 2.55-.9 4.1l-2.3 1.9-2.5 1.7q-1.05.85-1.85 2.25l-.5.7q-.3.35-.75.3-.7-.05-1.65-.6l-1.45-.9-3.65-1.8Q37.3 67.5 33.25 67l-8.65-.8q-3.65-.15-5.75.05l-2.5.4q-1.7.3-2.35-.35l-.4-.75-.15-.8-.55-1.6q-1-2.25-1.4-4.2m1.35-5.15q1.05-.65 2.55-.8-1 1.15-1.45 3.1l-1.4.4q-.8.25-1.25 1-.1-1.2.2-2.1.4-1 1.35-1.6"/></svg>