<svg xmlns="http://www.w3.org/2000/svg" xml:space="preserve" width="492.482" height="521.508" viewBox="0 0 130.303 137.982"><path d="M24.514 0q2.495.614 3.964 2.782 1.628 2.253 1.265 4.966l-.06.337-.646 2.027-3.007-1.977-1.28-.284q-.723.162-1.122.786-.334.578-.228 1.29.172.667.74 1.056l2.587 1.73q-1.122.785-2.39 1.082l-1.425.212-.58-.97q-1.988-2.838-5.354-3.432l-.908-.102q-.697-1.627-.446-3.376l3.603-2.72zm81.13 134.057-.504-.089q-2.918-.514-4.572-2.946-1.72-2.386-1.205-5.304.514-2.917 2.946-4.571 2.122-1.535 4.62-1.268-1.316 1.561-1.692 3.693l-.135 1.423-.845.198q-.723.162-1.122.785-.343.634-.171 1.3.27 1.09 1.393 1.288l.703-.05.722-.162.849 1.423q.924 1.32 2.218 2.184zM31.368 14.283l-.215-.096-6.433-4.2q-.4-.36-.152-.78.267-.53.789-.207l6.423 4.256q.465.314.152.78zM18.182 31.974l-.446-.425q-.135-.545.41-.68l41.021-9.544q.6-.125.67.465.192.555-.41.68l-41.02 9.544zm1.252-13.663q-.449-.08-.482-.548-.023-.525.558-.538l27.821-.3q.581-.014.595.567.023.524-.558.538l-27.822.3zm-5.325 7.566q2.244.396 3.71 1.927l.86 1.02.5.782-1.258.24q-.657.116-1.056.74-.4.624-.228 1.29.261 1.146 1.383 1.344l.703-.05 1.268-.297-.106 1.254-.56 1.868-.647 1.043-1.74 1.66q-2.385 1.72-5.303 1.206-2.917-.515-4.571-2.947-1.71-2.442-1.205-5.303.514-2.918 2.946-4.572 2.386-1.72 5.304-1.205m15.383 27.588q2.244.396 3.766 1.937l.287.34-.32.175q-.63.294-.871 1.003-.231.654.119 1.294.442.772 1.227.91.505.09 1.08-.214l.376-.165q.39 1.4.112 2.97-.504 2.862-2.946 4.572-2.386 1.72-5.303 1.205-2.918-.514-4.572-2.947-1.71-2.442-1.205-5.303.514-2.918 2.946-4.571.858-.601 1.789-.958 1.663-.574 3.515-.248m-10.417-6.87q-.28-.049-.41-.303-.19-.554.308-.756l47.95-19.313.756.306q.202.499-.307.756l-47.95 19.314zm-.806-4.944q2.02.356 3.413 1.643l-3.112 1.245q-.63.293-.918.937-.277.587-.049 1.264.357.93 1.31 1.099.45.079.948-.122l3.854-1.52q.677 1.74.33 3.704-.504 2.861-2.946 4.571-2.386 1.72-5.303 1.205-2.918-.514-4.572-2.946-1.71-2.442-1.205-5.304.515-2.917 2.947-4.57 2.386-1.72 5.303-1.206M33.862 57.88q-.28-.05-.42-.248-.19-.554.252-.766l38.214-19.873.776.195q.304.574-.25.766L34.217 57.827zm11.24-1.085 2.753 1.122.558.446-2.703 1.548q-.584.36-.758 1.023t.175 1.304q.396.706 1.181.844.617.11 1.145-.26l3.023-1.724q.78 1.815.403 3.947-.504 2.862-2.946 4.572-2.386 1.72-5.304 1.205-2.917-.514-4.57-2.946-1.71-2.442-1.206-5.304.514-2.917 2.946-4.571 1.518-1.063 3.234-1.281zm10.142 2.194q2.112-1.48 4.62-1.268-1.316 1.561-1.692 3.693l-.126 1.366-.844.199q-.667.171-1.066.795-.343.634-.228 1.29.27 1.09 1.393 1.287l.703-.05.779-.151.792 1.412.76.944q-.106 1.254.109 2.333-1.334.344-2.426.961-2.861-.504-4.515-2.936-1.71-2.442-1.206-5.304.515-2.917 2.947-4.571m-8.775 2.85q-.225-.04-.363-.238l-.043-.413q.05-.28.237-.363L67.587 48.38l.775.194q.248.565-.194.776L46.882 61.795zm17.374 11.047q2.862.505 4.571 2.947l.545.848.63 1.673-3.006-.01q-.693-.006-1.194.542-.492.492-.499 1.185.043 1.396 1.446 1.643l.28.05 2.895-.01q-.67 2.485-2.838 3.954-2.376 1.663-5.19 1.225l-.225-.04q-2.852-.56-4.46-2.927-1.72-2.386-1.205-5.303.495-2.805 2.805-4.423l.142-.148q2.046-1.433 4.452-1.298zm-5.76-8.999.26 1.145-.656.116-.234.016-.446-.425q-.135-.545.41-.68zm12.887-1.893q2.862.505 4.572 2.947 1.72 2.386 1.205 5.303l-.656 2.083-3.063-1.987-1.225-.273q-.723.161-1.112.73-.4.623-.284 1.28.162.722.786 1.122l2.541 1.663q-1.772 1.191-3.758 1.304l-.581-.97q-1.988-2.838-5.354-3.432l-.908-.102q-.779-1.815-.413-3.891.515-2.918 2.947-4.571 2.386-1.72 5.303-1.206m7.441 14.56-.214-.096-6.377-4.19q-.446-.426-.198-.845.36-.4.835-.142l6.367 4.247q.465.313.152.779zm-11.877 4.038q-.449-.08-.482-.548-.023-.524.558-.538l27.821-.3q.525-.024.538.557.024.525-.557.538l-27.822.3zM16.78 10.727q2.917.515 4.571 2.947l1.129 2.455h-2.95q-.694-.006-1.195.542-.492.492-.498 1.185.003.637.439 1.118t.997.581l3.184-.017q-.67 2.485-2.847 4.01-2.32 1.674-5.191 1.226l-.225-.04q-2.851-.56-4.459-2.927-1.71-2.442-1.205-5.303.514-2.918 2.946-4.572 2.386-1.72 5.304-1.205m44.393 77.307q2.188.386 3.71 1.927l.861 1.02.499.782-1.267.297-.707.396-.35.343q-.399.624-.227 1.29.27 1.09 1.393 1.288l.637-.004 1.38-.277-.152 1.188-.571 1.924-.637.987q-.693.977-1.739 1.66-2.442 1.71-5.303 1.206-2.918-.515-4.572-2.947-1.72-2.386-1.205-5.303.514-2.918 2.947-4.572 2.385-1.72 5.303-1.205m4.11 6.22-.502-.435q-.135-.545.465-.67l41.022-9.544q.6-.125.68.41.079.534-.475.726L65.45 94.284zm.05 9.555q1.964.346 3.413 1.643l.056.01-3.178 1.29-.973.928q-.287.644.007 1.274.366.875 1.32 1.043l.881-.076 3.92-1.565q.45 1.063.466 2.28l-.135 1.423q-.297 1.683-1.207 2.91-.693.978-1.74 1.661-2.441 1.71-5.303 1.206-2.917-.515-4.571-2.947-1.72-2.386-1.205-5.303.514-2.918 2.946-4.572 1.66-1.211 3.637-1.268zm.842 5.066q-.337-.06-.466-.314-.2-.498.307-.756l47.951-19.313q.555-.192.756.307.191.554-.307.756l-47.95 19.313zm10.38 6.747q2.245.396 3.756 1.993l.288.34-.377.165q-.64.35-.815 1.014-.175.663.12 1.293.395.706 1.237.855.505.089 1.07-.159l.441-.21q.334 1.388.057 2.96-.514 2.917-2.947 4.57-2.442 1.71-5.303 1.206-2.918-.514-4.571-2.946-1.72-2.386-1.206-5.304.515-2.917 2.947-4.571l1.788-.958q1.664-.574 3.515-.248m15.611 3.332q1.571.277 2.753 1.121l.614.456-2.769 1.594q-.584.36-.759 1.023-.175.664.175 1.304.406.65 1.192.789.617.108 1.135-.205l3.023-1.723q.779 1.815.413 3.89-.515 2.918-2.947 4.572-2.442 1.71-5.303 1.205-2.918-.514-4.571-2.946-1.72-2.386-1.206-5.304.515-2.917 2.947-4.571 1.528-1.12 3.29-1.271zm1.404 5.164-.42-.247-.043-.413.238-.363 21.285-12.445.776.195q.323.462-.195.775l-21.285 12.446zm-12.608-3.958q-.28-.05-.41-.304-.277-.396.195-.775l38.215-19.874.766.251q.313.518-.195.776L81.32 120.107zm23.977 6.079.261 1.145-.656.116-.235.016q-.336-.06-.445-.425-.136-.545.409-.68z"/><path d="M109.849 131.212q-1.37-.762-2.284-2.139-1.72-2.385-1.206-5.303.386-2.188 1.917-3.654l1.02-.861.01-.056q2.056-1.489 4.564-1.278l.74.072q2.075.366 3.56 1.785l1.01 1.162.875 1.6.047.066q-4.69 4.612-10.253 8.606M33.149 8.118q2.917.514 4.571 2.946 1.581 2.188 1.285 4.855l-14.145.167q-.126-.601-.073-1.228l2.653-1.268.33-.23 2.746 1.814.644.287q1.122.198 1.749-.733.39-.568.227-1.29l-.73-1.112-2.438-1.588q.6-1.109.838-2.455l.04-.225zM71.73 18.97q2.918.515 4.571 2.947 1.72 2.386 1.206 5.303l-.36 1.383-.683-.063q-2.753-.138-5.072 1.536-1.707 1.145-2.584 2.842-2.607-.634-4.123-2.868l-.184-.264 3.31-1.383q.686-.284.917-.937.277-.588-.007-1.274l-.927-.974-1.274.007-3.122 1.3.082-1.778q.514-2.918 2.947-4.571l1.788-.958q1.663-.574 3.515-.248m-11.75-5.543q2.918.515 4.571 2.947.98 1.33 1.229 2.878-2.829 1.93-3.422 5.297l-.076 2.07q-2.194 1.29-4.775.835-2.525-.445-4.1-2.343l6.337-1.486 1.056-.74.171-1.3-.74-1.055q-.623-.4-1.29-.228l-7.125 1.694q-.343-1.333-.086-2.792.515-2.918 2.947-4.571l1.788-.958q1.664-.574 3.515-.248M48.594 9.106q2.918.514 4.572 2.946l.93 1.61-.01.057-.055-.01q-2.828 1.93-3.422 5.297-.297 1.683.063 3.251l-4.158.944-.393-.069q-2.917-.514-4.571-2.946l-.545-.848 6.38-.09q.749.016 1.25-.532.436-.502.442-1.195l-.541-1.194-1.185-.499-7.129.074.122-1.02q.515-2.917 2.947-4.571l1.789-.957q1.663-.575 3.514-.248M30.676 22.144q-2.75-.485-4.387-2.682l11.353-.081-1.663 1.558q-2.386 1.72-5.303 1.205m36.869 33.691q2.132.376 3.617 1.795l.954 1.152.829 1.534-1.598-.455q-3.815-.673-7.04 1.536-2.979 2.135-3.76 5.584l-.047-.066q-1.71-2.442-1.205-5.303.514-2.918 2.946-4.571 2.112-1.48 4.62-1.268zm5.84-13.433q2.917.515 4.57 2.947l.767 1.234q.825 1.881.44 4.07-.288 1.626-1.208 2.91-.683.921-1.74 1.66-2.055 1.49-4.573 1.334-1.654-1.448-3.898-1.844l-.393-.07q-.548-.5-1.01-1.16l-.7-1.281 3.099-1.826q.63-.293.815-1.013l-.175-1.304q-.35-.64-1.08-.768l-1.303.175-1.93 1.106.068-.393q.515-2.918 2.947-4.571 2.386-1.72 5.303-1.206m3.959-12.608q2.918.515 4.571 2.947 1.72 2.386 1.206 5.303-.287 1.628-1.208 2.911l-1.739 1.66-2.099 1.077q-1.799-1.937-4.492-2.412l-2.96.057-.324-.462-.23-.33 2.926-1.51q.64-.349.872-1.002.174-.664-.12-1.294-.293-.63-1.013-.815-.653-.231-1.293.119l-2.43 1.307.083-1.779q.514-2.917 2.947-4.571 1.99-1.443 4.34-1.318zm2.87 40.482q2.862.504 4.572 2.946l.23.33q1.367 2.092 1.044 4.58l-14.145.168-.073-1.228 2.654-1.268.33-.23 2.746 1.814.643.287q1.123.198 1.693-.743.4-.623.284-1.28-.162-.723-.73-1.112l-2.439-1.587q.61-1.165.848-2.512l.04-.224zm15.446.988q2.861.504 4.571 2.946l.921 1.667-.056-.01q-2.828 1.93-3.422 5.297-.296 1.683.054 3.307l-3.98.918-.561-.099q-2.918-.514-4.572-2.946l-.498-.782 6.323-.1q.693.006 1.195-.542.492-.491.498-1.185l-.541-1.194-1.185-.498-7.073.083.076-1.086q.514-2.917 2.946-4.571l1.79-.957q1.662-.575 3.514-.248m11.387 4.321q2.861.505 4.57 2.947.981 1.33 1.23 2.878-2.829 1.93-3.423 5.297-.188 1.066-.075 2.07-2.25 1.28-4.776.835-2.524-.445-4.109-2.286l6.28-1.496q.723-.162 1.112-.73l.172-1.3q-.106-.713-.73-1.112l-1.3-.172-7.125 1.694q-.334-1.39-.076-2.848.514-2.917 2.946-4.571.858-.601 1.789-.958 1.663-.574 3.515-.248M77.74 84.302q-2.693-.475-4.34-2.616l11.297-.09-1.654 1.501q-2.442 1.71-5.303 1.205m42.709 20.258q2.861.505 4.571 2.947l.756 1.29q.835 1.825.45 4.013-.297 1.683-1.208 2.911l-1.739 1.66q-2.112 1.48-4.574 1.335-1.654-1.449-3.898-1.845l-.393-.069q-.548-.502-1.01-1.162l-.71-1.224 3.1-1.825q.63-.294.814-1.014.119-.673-.23-1.313-.295-.63-1.024-.76-.663-.174-1.304.176l-1.94 1.162.089-.505q.514-2.918 2.946-4.571 2.386-1.72 5.304-1.206m3.959-12.607q2.86.504 4.57 2.946 1.72 2.386 1.206 5.304-.297 1.683-1.207 2.91l-1.74 1.66-2.098 1.077q-1.8-1.937-4.492-2.412h-2.95l-.334-.405-.185-.264 2.871-1.519q.63-.294.815-1.013.231-.654-.119-1.294t-1.013-.815l-1.294.12-2.363 1.26.083-1.779q.514-2.917 2.946-4.571 1.99-1.443 4.34-1.318zm-5.613-10.825q2.862.505 4.572 2.947 1.72 2.386 1.205 5.303l-.36 1.383-.683-.062q-2.752-.139-5.072 1.535-1.706 1.145-2.584 2.842-2.607-.633-4.122-2.868l-.185-.264 3.244-1.337q.686-.284.973-.927.288-.644-.006-1.274-.284-.687-.928-.974l-1.274.007-3.122 1.301.092-1.835q.515-2.918 2.947-4.571.858-.601 1.789-.958 1.663-.574 3.514-.248M40.146 10.103l-.218.251-.092-.132zM13.274 7.97l.116.656-1.42.502zM7.038 13.81q-.535 1.063-.762 2.353-.406 2.3.304 4.508.654 2.198 2.287 3.76-4.412 2.056-5.263 6.881-.633 3.59 1.361 6.72 1.948 3.062 5.423 4.022-2.109 2.115-2.623 5.033-.673 3.815 1.536 7.04 2.274 3.177 6.09 3.85 1.85.326 3.84-.133l-.243 1.056q-.673 3.816 1.535 7.04 2.275 3.178 6.09 3.85 2.3.406 4.574-.35 2.208-.71 3.835-2.39.858 2.35 2.773 3.96 1.96 1.676 4.429 2.112 2.58.455 5.006-.506l.245-.073q-1.515 1.7-3.696 2.588-2.426.96-5.007.506-2.469-.435-4.43-2.112-1.904-1.666-2.762-4.016-1.627 1.68-3.845 2.446t-4.574.35q-3.815-.672-6.08-3.906-2.218-3.168-1.545-6.983l.244-1.056q-1.878.478-3.842.132-3.815-.673-6.08-3.907-2.218-3.168-1.545-6.983.534-3.03 2.69-5.08-3.542-.913-5.49-3.975-1.994-3.129-1.36-6.72.405-2.3 1.827-4.132 1.357-1.786 3.436-2.75-1.624-1.617-2.278-3.814-.71-2.208-.314-4.453l.03-.168zm40.879 58.522q1.957-.928 3.303-2.657 1.65 2.778 4.571 3.93-1.966 1.967-2.46 4.772-.406 2.3.303 4.509.654 2.197 2.288 3.758-2.079.964-3.435 2.75-1.422 1.832-1.828 4.132-.633 3.591 1.36 6.72 1.948 3.062 5.434 3.966-2.119 2.172-2.633 5.09-.673 3.814 1.535 7.038 2.275 3.178 6.09 3.851 1.851.327 3.841-.133l-.244 1.057q-.672 3.815 1.536 7.039 2.274 3.178 6.09 3.85 2.3.406 4.574-.35 2.151-.72 3.834-2.39.803 2.34 2.773 3.96 1.905 1.667 4.43 2.112 2.58.455 5.006-.506l.244-.073q-1.514 1.7-3.686 2.532-2.426.961-5.006.506-2.47-.435-4.43-2.112-1.914-1.61-2.773-3.96-1.626 1.68-3.834 2.39-2.274.756-4.574.35-3.816-.672-6.09-3.85-2.208-3.224-1.536-7.04l.235-1q-1.812.433-3.832.077-3.815-.672-6.09-3.85-2.208-3.224-1.535-7.04.514-2.917 2.623-5.033-3.476-.96-5.423-4.022-2.004-3.073-1.36-6.72.405-2.3 1.817-4.076 1.356-1.785 3.445-2.805-1.624-1.617-2.288-3.76-.71-2.207-.304-4.507.485-2.75 2.405-4.783-2.798-1.188-4.376-3.722m47.054 62.214q1.957-.927 3.304-2.657 1.65 2.779 4.515 3.92l-4.086 2.172q-2.293-1.098-3.733-3.435m26.757-13.62-.082-.189.366-.109zm-34.452-48.71-.293.352-.093-.132zM74.84 59.087l-.248-.564 1.165-.373-.142.148zM21.98 35.362l.139-.785.112-.964 29.494-6.832q1.056 1.227 2.808 2.115l-4.55 1.858-1.7-1.514zm41.28 3.75.126-1.366.09-.505q-2.417-1.062-3.972-3.072L26.372 47.534l-.224-1.023 36.81-14.856q1.534 2.121 3.97 3.072l-.09.505-.13 2.059zm-27.3-15.458q1.958-.928 3.304-2.657.766 1.234 1.964 2.313l-4.713 1.136zm-1.492 1.241-8.27 1.955q-2.383-.594-4.12-2.23 1.598-1.512 2.34-3.753 2.202 2.934 5.849 3.577 2.58.455 5.006-.506l.245-.073zm24.954 25.805.003-.346q.218-1.235.868-2.624l-13.705 7.186-.934-.28 18.09-9.422q-.61 1.165-.867 2.624l-.092.852zM97.038 92.97l-1.7-1.515-26.302 6.122.138-.785.112-.964 29.448-6.898q1.102 1.293 2.855 2.18zm-14.022-7.1q1.901-.938 3.304-2.658.766 1.234 1.964 2.313l-4.77 1.126zm-1.491 1.241-8.204 1.91q-2.44-.605-4.176-2.241 1.532-1.466 2.274-3.707 2.314 2.954 5.905 3.587 2.524.445 4.95-.516l.366-.109zm-8.155 22.628-.225-1.023 36.866-14.846q1.59 2.132 3.97 3.072l-.089.505-.187 2.05-3.38 1.775.126-1.366.079-.449q-2.416-1.062-3.961-3.128zm20.22 7.384-.879-.27 18.091-9.422q-.61 1.165-.867 2.623l-.149.842-3.296 1.964.003-.346q.257-1.46.858-2.568z"/></svg>