<svg xmlns="http://www.w3.org/2000/svg" xml:space="preserve" width="281.73" height="281.3" viewBox="0 0 74.541 74.427"><path d="M39.304 1.76q-1.296.45-4.26.529-3.135.092-4.26.397-.634.171-1.045.383-.595.304-.33.543l.317.04.688-.08.662-.093q.463 0 .529.357-.715.874-2.05 1.522l-2.303 1.005-1.772.82q-.953.41-1.694.622-1.376.384-3.836 1.786-2.368 1.35-3.823 1.693.264-.687-.093-1.243l1.429-.926 1.455-.886q.119.25.41.29l.53.027q1.441-.661 4.51-1.561 2.686-.953 4.048-2.487l-2.248-.251q-3.718 0-6.403 3.055-1.509.265-3.202 1.39-1.23.82-2.99 2.42l-1.177 1.363q-.833 1.045-1.416 1.6L9.393 15.32q-.94.728-1.19 1.297-.252.542-.358 1.627L7.7 20.108q-.053.53-.622 4.38-.384 2.658-.437 4.338 1.006-4.021 3.228-6.932 1.495-1.97 4.485-4.405.066-.37.29-.728.279-.423.345-.621 4.432-2.739 7.924-4.273L21.18 13.03q-1.085.714-1.362 1.27.886-.662 1.957-1.23 1.165-.636 1.866-.781l-.953.556q-.555.37-.78.952l-.185-.04q-.331 0-.675.291-.33.278-.238.41l1.97-1.098q1.218-.714 1.8-.754l-1.019.622q-.635.423-.661.728 1.733-1.006 3.572-1.746.397.198.767.198.33 0 .807-.198.542-.199.807-.199l.132.013q-.119.596.106 1.112.172.423.609.873l.066-.953q.04-.529.264-1.032.199-.45 1.297-1.574 1.005-1.032 1.442-1.323 1.045-.714 3.267-1.19 2.157-.477 4.168-.477l1.984.172 1.058.318 1.125.436q.9.437 2.394 1.508 1.68 1.217 1.76 1.654.092.516-.278 1.111l-.78.98q1.045.079 1.772.356.82.305 1.455.913-1.243.556-1.852.953-1.058.7-1.15 1.693 1.137-1.495 2.778-1.495 1.852 0 3.915 1.866l.45.661q.265.49.476.701.291.291.834.609l.569.397q.198.277.33 1.084.12.701.384.913.635-1.521.49-2.46.767.74 1.918 1.587l1.812 1.323q1.998 1.535 2.54 3.254.106.305.132.913.027.622.12.926.158.476.846 1.402.662.874.807 1.43-.026 1.11.397 2.208.291.794.979 1.932.291-.767.728-.767l.37.092q.74.86.9 2.448.092.9.105 2.791l.133 2.831q.066 1.667.238 2.712 1.839-3.135 2.341-7.21.463-3.757-.344-6.786-.119-.252.16-.993-.821-.674-1.046-2.116l-.384-2.382q-.224-.661-.952-1.534-.966-1.151-1.164-1.469l-.953-1.786q-.608-1.005-1.468-1.31-.066.332-.027 1.31.027.794-.211 1.403-1.998-.98-3.162-2.792-.318-.489-1.693-3.413l-.768-1.217q-.397-.714-.106-1.35.239-.303.688-.303.41 0 1.297.304.9.29 1.283.29h.12q-.583-.396-1.377-1.256l-1.362-1.429q-.556-.529-1.64-1.283-1.231-.873-1.68-1.257l-1.826-1.706q-1.046-.926-2.236-1.257l-1.111-.132-1.085-.093q-.926-.212-2.157-.82l-1.64-.834q-.833-.343-1.667-.343l-.529.013-.569.026-.94-.092q-.131-.027-.449-.225l-.436-.252-1.8-.344q-1.124-.185-1.746-.516m-1.111 6.456-.41.014q-1.164.079-2.395.661-.952.45-2.103 1.283l-1.323.966q-.794.714-.9 1.429-.132.979 1.019 1.772 1.005.688 2.566 1.02 2.474.528 4.922.528 3.175 0 4.643-.926.622-.383 1.588-1.495 1.071-1.204 1.11-1.772.107-1.469-3.333-2.554-2.897-.926-5.384-.926m5.318-3.44q-.251.794.675 1.509.886.661 1.918.661.952 0 1.27-.674.132.635-.238.965-.344.291-1.006.291-1.442 0-2.54-.9-1.19-.965-.079-1.851m15.068 12.448q-.198 0-.291-.172-.12-.185.026-.41.199.027.344.159l.225.212q-.092.211-.304.211m-6.152-5.12q-.33 0-.595-.211-.29-.225-.278-.53.12-.449.596-.449.357 0 .635.238.29.238.238.543-.146.41-.596.41m-2.328 5q-.913 0-1.561.265-.714.304-.9.86-.343 1.071 1.694 2.46 1.733 1.191 2.923 1.403l1.191.092q.886 0 1.508-.198.754-.238.913-.754.225-.715-1.085-1.945-1.177-1.098-2.54-1.746-.913-.437-2.143-.437m-5.292 15.518q-.608 0-.9.582-.33.675.226 1.151.476.423 1.217.423h.119q1.495-.092.94-1.124-.543-1.032-1.602-1.032M61.57 13.745q-.424.397-.146 1.072.146.397.596 1.177.727 1.6.979 1.958.687.952 1.931 1.31.661-1.945-.463-3.52-.979-1.388-2.897-1.997m4.934 11.126-.41-.265q-.185-.172-.053-.423l.516.198q.172.172-.053.49m-5.993 4.193-.74.133q1.098.04 2.077.86l1.52 1.415q.054-.846-.885-1.627-.926-.78-1.972-.78m-.608 1.217q-.609 0-.873.582-.384.86.939 1.865 1.23.952 2.593 1.098.145-.37.172-.86l.053-.82q-.53-.662-1.31-1.204-.926-.661-1.574-.661m10.53 12.7q-.119-1.548.768-5.16.78-3.201.357-4.762-.172-.635-1.257-2.024-.847-1.072-.648-2.117l.198-.146q.146 0 .304.331l.172.397q1.588 2.434 1.628 5.9.04 3.532-1.522 7.58M37.4 73.33q-4.736 0-9.274-1.164-7.831-2.024-13.996-7.144-5.292-4.418-8.493-10.332-3.175-5.873-4.167-12.17-1.164-7.303.727-14.513 2.05-7.818 7.223-14.01 4.406-5.265 10.253-8.48Q27.887 1.02 36.817 1.02q4.683 0 9.644 1.27 7.647 1.97 13.692 6.892 5.345 4.366 8.692 10.372 3.386 6.098 4.326 12.29 1.018 6.879-.887 14.393-1.997 7.858-6.998 14.01Q61 65.51 55.113 68.83q-3.717 2.09-8.096 3.255-4.723 1.243-9.618 1.243M2.673 24.686l.013-.067.026-.04zm22.622-14.169q-.185 0-.29-.172-.133-.185-.027-.397.198.027.344.16l.225.21q-.066.2-.252.2m-10.94.86-2.05 3.055q-1.43 2.103-2.025 3.757l-.582.423-.582.41q-.185.067-.37.702-.185.569-.437.569l-.145-.027q.992-2.805 2.751-5.146 1.19-1.574 3.44-3.744m13.97 9.776q-2.037 0-4.763 1.204-2.659 1.178-3.677 2.448-1.747 2.182-.847 4.193.78 1.747 2.937 2.461 2.54.82 5.305.82 1.892 0 3.109-.383 1.389-.45 2.884-1.853 1.68-1.574 1.958-3.135.436-2.289-1.76-3.995-2.01-1.574-4.829-1.746zm-3.559-1.68-.45.04q-.344.053-1.045.384l-1.204.582q-1.64.807-2.553 1.865-1.018 1.177-1.614 3.175 1.125-1.535 2.421-2.527 1.138-.86 2.831-1.614l1.336-.595 1.284-.423 1.534-.133q1.416 0 2.937.37 1.535.371 2.791 1.02l.887.74q.555.516 1.085.635-2.858-2.857-6.655-3.505-.542.277-1.15.277l-1.218-.145zm-5.146-6.112q.093-.687 1.058-1.23l1.561-.847q.014.146-1.071.887-1.244.846-1.548 1.19"/><path d="m2.673 24.686-.014.013-.013.04-.026.052-.014.067-.026.053-.013.066-.014.013-.052.159-.053.145Q.027 32.372.543 39.767 1.045 46.91 4.22 53.38q3.162 6.456 8.493 11.231 5.53 4.935 12.608 7.356 5.781 1.997 11.906 1.997 11.615 0 21.154-6.707l.542-.384q8.731-6.363 12.58-16.417l.305-.807.185-.542q2.421-7.078 1.905-14.473-.502-7.144-3.664-13.6-3.175-6.469-8.506-11.244-5.517-4.935-12.595-7.356Q43.353.437 37.24.437h-.013q-11.377 0-20.77 6.442l-.08.053-.145.106-.29.198-.133.093-.172.132-1.627 1.244Q6.19 15.002 2.712 24.567v.013l-.026.04zM36.83 0q4.776 0 9.79 1.296 8.056 2.077 14.3 7.197 5.305 4.366 8.811 10.49 7.276 12.688 3.546 27.412-3.837 15.08-17.701 23.111-5.966 3.48-12.356 4.498-2.646.423-5.424.423-4.908 0-9.83-1.27-8.122-2.09-14.432-7.355-5.279-4.405-8.784-10.557Q1.455 49.464.424 42.691q-1.138-7.515.78-14.857Q3.387 19.5 8.6 13.414q4.194-4.894 10.61-8.572Q27.636 0 36.83 0"/></svg>