<svg xmlns="http://www.w3.org/2000/svg" xmlns:ffdec="https://www.free-decompiler.com/flash" ffdec:objectType="shape" width="30" height="30"><path d="M14.701 29.937c-.213-.075-.34-.224-.475-.558l-.12-.299v-3.783l-.125-.016c-.982-.122-1.373-.195-1.99-.372-1.67-.48-3.112-1.345-4.41-2.65-1.461-1.468-2.41-3.246-2.798-5.244a12 12 0 0 1-.12-.74 9 9 0 0 0-.047-.359l-.013-.066H.879l-.285-.118a2 2 0 0 1-.321-.154C.229 15.533.029 15.06.029 15c0-.053.203-.59.237-.628.013-.015.146-.078.294-.14l.27-.113h3.771l.016-.095c.008-.052.03-.22.047-.374.018-.153.071-.477.12-.718.416-2.1 1.36-3.83 2.932-5.368 1.687-1.65 3.678-2.618 5.985-2.908l.405-.051V2.728L14.109.85l.124-.293.125-.293.32-.126.318-.127.3.123.299.122.121.297.121.297v3.761l.212.02c.658.064 1.618.275 2.275.5 1.559.534 2.848 1.373 4.107 2.67 1.642 1.694 2.534 3.56 2.815 5.885l.05.42 1.935.014 1.934.015.266.112.266.112.137.302c.076.167.138.318.138.336s-.065.162-.144.319l-.144.285-.305.125-.304.124H25.28v.087c0 .047-.02.242-.045.432q-.387 3.02-2.335 5.273a16 16 0 0 1-1.535 1.492c-1.49 1.194-3.174 1.888-5.132 2.115l-.389.044c-.004 0-.007.858-.007 1.906v1.905l-.122.296-.123.297-.288.144c-.308.155-.396.169-.602.096m-.595-7.475v-1.1l.136-.325c.152-.363.242-.457.519-.539a.63.63 0 0 1 .45 0c.235.07.366.214.506.555l.119.29v2.224l.14-.018c1.468-.19 2.618-.6 3.723-1.331a8.85 8.85 0 0 0 3.394-4.269c.186-.5.389-1.373.445-1.915l.019-.184h-2.173l-.317-.132c-.362-.152-.432-.206-.528-.41a.81.81 0 0 1 .114-.841c.07-.08.171-.14.385-.227l.29-.12h2.22v-.1c0-.15-.132-.904-.218-1.241-.397-1.569-1.246-2.976-2.509-4.16a8.3 8.3 0 0 0-3.85-2.047 13 13 0 0 0-1.04-.177l-.095-.013v2.21l-.122.326-.123.326-.298.096-.297.096-.319-.1-.319-.099-.119-.293-.119-.293-.014-1.13-.015-1.13-.293.036a8.5 8.5 0 0 0-7.346 7.188c-.032.221-.059.426-.059.454 0 .048.068.051 1.018.051h1.017l.28.107c.154.059.296.121.315.14.02.017.087.167.15.333l.117.3-.122.293-.121.293-.338.132-.339.132h-.988c-.893 0-.989.005-.989.048a8.782 8.782 0 0 0 .836 2.929c.433.88.919 1.563 1.598 2.246 1.324 1.333 2.936 2.145 4.824 2.431.194.03.375.055.403.056.048.003.052-.068.052-1.098"/></svg>