<?xml version="1.0" encoding="UTF-8" standalone="no"?>
<!-- Created with Inkscape (http://www.inkscape.org/) -->

<svg
   width="182.78542mm"
   height="167.31914mm"
   viewBox="0 0 182.78542 167.31914"
   version="1.1"
   id="svg1"
   xml:space="preserve"
   xmlns="http://www.w3.org/2000/svg"
   xmlns:svg="http://www.w3.org/2000/svg"><defs
     id="defs1" /><g
     id="layer1"
     transform="translate(-19.86732,-59.093241)"><g
       transform="matrix(0.97733142,0,0,0.97733142,111.27224,142.75281)"
       id="g8"><path
         d="m -93.3,4.2 q -0.45,-4.05 0,-7.8 l 0.65,-4.2 -0.2,-4.05 -0.6,-4.4 11.05,-14 8,-6.25 10,-9.15 0.35,-2 30.55,-26.7 15.75,-4.75 0.45,5.4 -13.85,4.75 -22.45,18.2 6.45,-2.6 2.75,-0.3 5.6,-3.8 4.3,-1.55 6.75,2.8 11.45,-1.9 39.05,-26.1 10.45,-1.4 -0.9,3.9 -7.4,1.7 -30.45,20.55 44.9,-8.5 2.3,2 -1.95,2.95 -54.25,9.65 -8.7,6.25 -2.3,0.15 2.3,2.2 1.4,-0.8 1.4,-0.35 q 2.7,0 4.35,3 1.35,2.45 1.35,5.3 0,0.25 -0.5,1.55 -0.55,1.6 -1.15,2.45 6.55,6.5 7.95,8.35 l 6.25,-3.95 q 1.2,-0.7 1.9,-0.7 2.15,0 2.15,3.15 l -0.1,0.8 -0.1,0.05 -7.15,5 3.9,8.75 9.45,-0.8 q 0.65,0 1.3,0.35 1,0.55 1,1.65 0,1.3 -1.5,2.15 -2.4,1.4 -8.9,2.15 2,15.2 2.7,16.55 l 0.1,2.55 0.25,1.6 q 0.05,0.8 -0.55,0.8 -0.55,0 -1.7,2.55 -1.1,2.55 -2.45,2.55 l -2.3,2.25 16.2,5.2 81.5,20 -5.9,3.65 -96.5,-21.8 -3.7,4.4 0.3,0.25 38.65,24.3 37.6,23.45 -3.95,3.95 -79.35,-46.1 -4.4,2.8 -0.2,0.15 q 12.4,10.65 17.1,15.5 2.4,2.4 2.25,2.7 l -1.5,1.85 -23,-17.45 -7.05,0.8 q -7.25,1.7 -8.3,5.9 -0.15,0.55 2.7,2.1 2.95,1.55 2.95,1.65 L 6.9,80.1 q 0.85,0.5 1.6,1.5 0.85,1.05 0.85,1.7 l -1.6,1.4 -48.4,-23.55 -1.15,0.6 -1.15,0.35 q -2.4,0 -3.9,-0.8 -1.35,-0.7 -1.35,-1.7 0,-0.6 -4.9,-2.9 -2.5,-1.15 -4.95,-2.2 l -3.3,1.35 9.85,17.35 -2.3,1.7 -10.7,-17.65 -6.6,3.05 -0.35,-0.1 -3.25,-2.8 -4.05,1.95 -8.1,-0.75 -2.4,-10.4 14.25,-7.15 -5.95,-2.6 q -6.3,-3.35 -7.75,-7.1 l -2.05,-5.95 -0.6,-2.95 0.75,-1.15 q 0.7,-1.2 0.6,-1.85 l -1.75,-7 Q -92.9,8.05 -93.3,4.2 m 65.1,-50.1 1.9,-2.8 2.1,0.25 47.9,-33.05 7.35,-1.55 1,-1.15 -9.25,2.05 -47.4,31.5 -2.65,-0.8 -3.6,2.8 -1.9,-0.2 -2.9,3 -2.25,1.1 -0.55,-0.15 -9.7,4.8 0.15,1.1 0.4,1.7 3.05,0.75 4.9,-0.4 4,-4.2 -0.1,-1.25 0.7,-0.65 1.35,-0.15 5.5,-2.7 m 67.65,-19.9 -49.35,8.25 -4.35,2.9 53.5,-10.5 0.2,-0.65 m -31.65,56 0.15,-1 -27.75,2.4 -0.05,0.6 0.45,0.85 0.35,0.2 h 0.25 L 7.8,-9.8 m -92.75,27.55 q -2.1,-7 -2.25,-12.6 -0.15,-5.65 0.9,-13.7 l 0.85,-5.65 -0.25,0.05 -0.3,-0.05 -0.3,0.15 -1.55,0.35 -0.75,4.95 q -1.15,8.25 -0.95,13.55 0.2,5.35 2.2,12.35 l 1.45,4.6 2.85,1.6 -1.9,-5.6 m -6.25,-25 q -0.9,7.4 -0.7,10.9 0.2,3.6 2.2,11.4 l 1.5,5.45 0.15,-0.05 h 0.25 l 0.3,0.15 0.7,0.5 -1.55,-5.9 Q -90.05,8.15 -90.1,5 q -0.15,-5.15 2,-18.6 l -2.35,0.5 -0.75,5.85 m 30.35,-8.95 -0.3,-1.05 0.7,-1.75 1,-1.95 q 1.35,-2.9 5.3,-7.9 l 3.75,-4.4 -1,-0.55 -1,-0.45 Q -57.8,-36 -64.85,-35.2 l -5.5,0.35 q -2,0.25 -5,1.75 l -0.05,0.05 -0.15,0.45 -7.05,9.5 -4.4,5.75 1.2,2.55 3.85,-0.75 8.45,-0.85 10.55,-0.1 1.25,0.2 0.85,0.1 m -31.25,2.8 5.75,-1.3 -0.95,-2.05 -0.05,-0.5 0.05,-0.55 2.3,-3.3 3.35,-4.45 5.05,-6.55 -2.1,1.75 -3.35,2.7 q -2.35,2.5 -6.5,7.9 l -3.7,4.9 0.15,1.45 m 11.6,31.2 q -2.3,-8.6 -2.35,-11.6 -0.1,-3.15 0.9,-13.3 l 0.85,-7.9 -0.75,0.1 -3,0.55 -0.6,6.6 q -0.85,10.2 -0.5,14.3 0.35,4.15 2.55,11.95 l 1.6,5.45 2.1,0.8 1.25,0.35 -2.05,-7.3 m 48.5,-88.95 13.45,-4.1 -0.25,-1.25 -14.05,3.95 -30.4,26.6 0.2,1.2 -9.55,8.75 -0.4,0.35 0.1,0.6 7.85,-3.25 0.8,-2 1.5,-0.55 3.6,-7.2 2.35,-1.4 24.8,-21.7 m -2.45,13.8 v -0.05 l -2.1,0.75 -2.1,0.75 v 0.05 l -3.6,2.25 -0.65,1.7 0.85,1.05 2.45,-0.25 0.55,0.6 0.3,0.7 0.05,1.55 -0.75,1.15 0.45,1.05 0.35,1 q 1.85,-0.5 2.6,-1 l 0.55,-0.45 0.55,-0.5 1.85,-2 0.5,-0.45 0.7,0.1 0.55,0.2 h 0.05 l 0.3,0.05 q 0.2,0 0.3,-0.1 l 1.3,-1.1 1.15,-0.85 1.05,-0.7 0.55,0.05 -0.1,-0.4 -1.3,-2.45 -6.4,-2.7 m -7.35,6.75 0.15,1 1.05,0.75 0.3,0.35 0.7,1.1 0.45,-0.6 0.2,-0.5 0.1,-0.65 -0.55,-1.3 -0.45,-0.4 -1.95,0.25 m 14.15,-4.05 1.3,2.35 5.25,-1.05 4.45,-3.1 -11,1.8 m -20.95,11.6 1.2,-2.75 4.85,-0.35 -0.5,-0.65 -1.05,-0.75 -0.6,-0.55 -0.1,-0.75 v -0.75 l 0.65,-0.6 0.85,-0.1 1.25,0.55 0.05,-0.4 -1.4,-1.65 -3.65,0.1 -7.95,2.05 -4.05,2.05 -3.45,7.15 -1.5,0.55 -1.5,3.05 0.15,0.3 5.15,-0.05 2.15,0.05 5.15,-2.5 4.25,-1.75 1.05,-0.35 0.15,-1.65 -1.15,-0.25 m 1.95,-0.1 1.3,0.1 1.2,-0.1 -2.05,-2.3 h -0.4 l -0.45,0.1 -0.3,0.4 -0.15,0.4 0.4,0.7 0.45,0.7 m 7,-3.4 -0.5,-0.95 -0.4,-0.75 -2.25,-1.45 -1,-0.2 -0.35,0.1 -0.3,0.5 v 0.55 l 0.05,0.45 0.55,0.45 1,0.65 1.25,1.9 0.7,1.4 0.05,-0.05 1.75,-1 h 0.15 l -0.7,-1.6 m -6.3,6.3 -0.1,0.35 -0.45,0.25 -0.5,0.05 -0.3,-0.25 0.15,-0.35 0.4,-0.25 h 0.5 q 0.25,0 0.3,0.2 m -0.95,-1.2 2.2,-1.05 -2.05,-0.1 -0.15,1.15 m 18.15,20.55 1.15,0.75 1.15,0.95 1.4,1.7 1.1,1.9 0.6,3.5 0.4,2.9 1.7,-1.05 1.85,0.3 1.65,0.7 2.5,-0.2 q 1.35,-1.2 3.05,-1.2 1.3,0 2.45,0.7 l 6.35,-0.5 Q -5,-16.05 -8.1,-21 l -7.2,4.85 -0.25,1.45 v 0.05 q -0.5,1.75 -2.35,2.05 h -0.25 l -1.3,-0.55 q -1.8,-1.2 -1.65,-3.25 l 0.15,-0.6 0.2,-0.5 q 1.35,-1.35 3.15,-1.2 l 1,0.3 7.2,-4.5 q -2.5,-3.5 -5.8,-6.7 -2.85,-2.75 -6,-4.95 l -0.1,0.2 -0.25,0.2 -0.6,-0.05 -0.6,-0.15 -1.1,-0.4 -2.25,-1.05 v -0.05 l -1.6,-1.25 -1.05,-0.95 v -0.3 l -0.1,-0.1 -0.15,-0.4 h 0.05 Q -31.9,-40.15 -35,-41 v 0.05 l -0.15,0.25 -4.4,4.45 -4.95,0.35 -3.25,-0.8 -0.25,-0.2 -0.25,-0.25 -0.55,-2.9 -3.85,1.6 v 0.05 l -5.05,2.45 5.5,1.05 1.15,0.55 0.95,0.5 0.25,0.3 0.1,0.3 0.05,0.05 q 11.75,3.6 20.8,11.95 l 0.15,0.35 m -11.5,-17.25 q 0,0.25 -0.25,0.4 -0.2,0.2 -0.45,0.2 l -0.5,-0.2 -0.2,-0.4 0.2,-0.45 0.5,-0.2 0.45,0.2 0.25,0.45 M -50.4,-43.2 q 0,0.35 -0.25,0.55 -0.25,0.3 -0.6,0.3 -0.35,0 -0.65,-0.3 l -0.25,-0.55 0.25,-0.65 0.65,-0.2 q 0.35,0 0.6,0.2 l 0.25,0.65 m -2.9,1.4 q 0,0.35 -0.25,0.6 -0.25,0.25 -0.65,0.25 l -0.6,-0.25 -0.25,-0.6 0.25,-0.6 0.6,-0.25 q 0.4,0 0.65,0.25 l 0.25,0.6 m 6.4,7.8 q 0,0.35 -0.25,0.55 -0.3,0.25 -0.65,0.25 -0.4,0 -0.7,-0.25 l -0.25,-0.55 0.25,-0.55 0.7,-0.2 0.65,0.2 0.25,0.55 m -29.1,0.7 -0.75,0.55 h 0.2 l 0.25,0.1 0.3,-0.65 m 2.45,-1.75 -1.75,1.2 1.9,-0.85 -0.15,-0.35 m 8.65,-0.8 0.35,-0.05 h -0.75 l -0.8,-0.6 -0.05,-0.3 0.05,-0.3 -3.85,1.6 5.05,-0.35 m 1.25,61.8 0.25,0.95 4.15,-0.25 0.9,-0.15 v -0.05 l -1.5,-5.6 q -0.8,-3 -1.45,-7.25 -0.6,-4.3 -0.65,-7.4 0,-2.6 1.5,-14.6 l 0.9,-7.15 -0.7,-0.05 -0.25,-0.05 -0.25,0.05 H -61 l -0.65,-0.05 h -0.1 l -0.65,-0.05 -0.3,-0.15 -0.25,0.05 h -1.55 l -0.25,1 q -1.25,5.05 -1.6,8.75 -0.5,4.8 -0.45,11 0.05,6.8 0.75,10.7 0.8,4.45 2.4,10.3 M -74.45,-9.7 q -1.3,10.35 -0.6,17.05 0.7,6.75 3.15,14.9 l 1.4,4.3 4.5,0.2 h 0.15 l 0.3,0.05 -1.25,-3.95 q -2.6,-8.65 -3.15,-17.65 -0.55,-9.05 1,-16.75 l 1,-4.25 -5.55,0.05 h -0.1 l -0.85,6.05 m -3.45,31.85 0.9,3.35 4.35,0.8 -1.5,-4.6 Q -76.4,14.1 -77.2,7.2 -78,0.3 -76.75,-9.2 l 1,-6.35 -3.6,0.35 -0.95,4.65 q -1.45,8.2 -0.65,16.2 0.8,8.05 3.05,16.5 m 33.9,-32.5 0.75,-4.35 -2.4,-0.2 -0.35,-0.1 -0.25,0.05 -3.45,-0.15 -0.25,3.1 -0.7,8.35 q -0.2,1.65 0.1,8 l 0.85,10.95 q 0.45,3.8 1.7,8.25 l 3.3,-1.3 h 0.1 l 1.55,-0.6 -1.25,-4.8 q -0.6,-3 -1.05,-16.15 -0.1,-2.7 1.35,-11.05 m 9.7,-4.95 5.1,-4.65 -0.2,-0.8 q -8.85,-8.25 -20.5,-11.85 -4.6,3.95 -7.6,9.15 l -1.9,3.75 -1.15,2.6 0.15,0.45 0.2,0.4 13.95,0.6 9,0.8 h 1.35 l 1.6,-0.45 m -18.35,4.85 0.85,-4.75 -5.75,-0.25 -1,4.85 v 0.15 0.05 l -0.65,6.25 q -0.55,6.4 -0.35,11.2 0.25,4.85 2.6,14.45 l 1.15,4.45 5.2,-1.45 0.2,-0.05 q -1.55,-5.6 -2.6,-12.2 -0.9,-5.75 -1.1,-10.15 -0.15,-3.2 1.45,-12.55 m 11.05,-0.7 q -0.8,5.8 -0.85,8.5 l 0.4,8.55 1,9.95 1,3.45 q 1.75,-2.2 2.85,-4.85 l 0.5,-1.4 -0.65,-8.75 0.55,-12.05 0.45,-6.15 -0.05,-0.15 v -0.05 -0.1 h -0.9 l -3.85,-0.35 -0.45,3.4 m 17.05,-28.95 q 0.75,0.9 1.2,0.9 l 2.4,-2.05 1.25,-0.95 0.1,0.15 -0.8,0.6 q 0.5,0.8 1.05,2.4 0.25,0.8 0.25,1.9 v 0.7 l -0.2,0.75 -0.1,0.1 0.05,-0.7 -0.9,-0.75 -0.55,-0.6 -0.3,-0.65 -0.75,-0.7 -0.65,-0.55 -0.1,0.1 -0.05,0.15 1.4,1.45 -0.05,0.35 -0.1,0.3 -0.15,0.7 0.6,0.95 q 0.85,1 1.85,1 0.9,0 1.6,-1.25 0.55,-1 0.55,-1.7 l -0.6,-3.15 q -0.95,-3.1 -2.75,-3.1 -0.5,0 -2.2,1.05 -2.05,1.35 -2.05,2.6 m 24.1,12.3 -15.75,9.8 -1.4,1 -0.1,0.15 0.05,0.4 0.2,0.35 0.25,0.2 0.2,0.1 16.95,-11.45 -0.4,-0.55 m -24.45,-12.85 0.45,-0.7 0.4,-0.75 -1.55,-2.3 -1.4,-2.45 -1,1.35 2.05,3.8 0.6,0.65 0.45,0.4 m -3.5,-0.3 q 0.25,-0.25 -0.75,-2.1 l -2,1 2.75,1.1 m -4.65,5.45 -3.95,3 -0.05,0.1 -0.75,0.65 -0.6,0.5 h -0.75 l -0.5,-0.5 0.05,-0.55 0.75,-0.85 q 1.85,-1.8 4.05,-3.05 1.85,-1.1 4,-1.65 l 0.8,0.35 -0.1,0.35 -2.95,1.65 m 4.9,-2.85 0.85,0.75 1.6,1.25 q 0.6,0.45 2.05,0.95 l 1.4,0.5 0.75,-3.05 -0.95,-0.9 -0.45,-0.35 -0.55,0.25 -0.65,-0.4 -0.7,-0.55 v -0.4 l -0.8,-0.3 -2.55,2.25 m -0.25,15.1 q 0,0.4 -0.3,0.65 -0.3,0.25 -0.75,0.25 -0.4,0 -0.7,-0.25 l -0.3,-0.65 0.3,-0.6 0.7,-0.25 0.75,0.25 0.3,0.6 m -1.2,13.3 v -0.1 l 0.45,-1.6 0.6,-1.15 h 0.65 q 1.05,1.05 1.4,2.6 l 0.35,2.9 q 0.35,5 0.4,10 0.05,3.4 -0.3,6.8 l -0.65,4.5 -0.95,0.9 -1.25,-0.35 0.15,-3.15 0.2,-4.4 -0.1,-6.05 -0.35,-5.15 -0.6,-5.75 m -4.8,37.5 3.95,-4.35 v -0.05 q 2.2,-5.65 2.75,-6.25 l 1.7,-1.4 q 1.05,-0.8 1.4,-1.55 l 0.7,-4.8 0.55,-4.55 q 0.15,-5.2 -0.4,-10.1 -1,-8.25 -1.15,-8.7 -0.35,-1.35 -1.45,-2.8 l -1.3,-1.35 -0.95,-1.1 -0.1,-0.1 -0.05,0.05 -5.5,4.85 -1.5,0.4 0.25,1.9 0.55,8 q 0.15,3.95 0.15,7.9 0,2.45 -0.25,4.9 -0.35,3.3 -1.55,6.25 -1.45,3.4 -3.9,6.05 l 0.2,0.15 3.25,3.05 2.5,2.55 0.1,0.45 -0.05,0.7 0.1,-0.1 m 14.1,-44.55 -0.15,0.65 q -0.15,1.65 1.35,2.65 0.5,0.3 1.1,0.45 0.6,-0.1 0.9,-0.55 0.25,-0.4 0,-0.45 l -0.5,-0.2 -0.5,-0.4 -0.65,-1 -0.35,-1 0.65,-1.15 q -1.05,0.15 -1.85,1 m 0.8,12.1 0.25,-0.2 -1.5,-1.75 q -0.25,-0.8 0.05,-2.8 l -0.25,-0.05 -1.4,0.8 q 0.05,1.35 0.55,2.55 0.35,0.85 1.1,1.55 l 1.2,-0.1 m 17.8,6.75 q 0,-5.1 -1.05,-9.75 l -4.65,0.55 0.05,0.1 0.45,0.8 q 1.05,0.2 1.85,1.5 0.85,1.45 0.85,3.4 0,2 -0.85,3.4 l -0.3,0.45 q -0.25,4 -2,7 -2,3.4 -4.85,3.4 -2.85,0 -4.85,-3.4 -2.05,-3.45 -2.05,-8.3 0,-3.7 1.2,-6.55 l -1.15,1.15 q -0.2,0.15 -0.4,0.15 l -1.2,0.1 -0.3,-0.05 -0.2,-0.15 Q -22,-5.15 -22.4,-6.1 l -0.25,-0.8 0.25,2.4 q 0.35,4.65 0.2,9.75 0,0.5 -0.15,0.8 l -0.35,3.3 -0.15,1.45 -0.25,2.6 q -0.35,1.5 -1.15,2.4 l -1.35,1 -1.35,1.3 -0.5,1.1 q -0.75,2 -1.6,3.5 l 1.1,0.65 0.25,0.15 -0.15,-1.5 0.1,-0.4 2.4,-4 0.3,-0.3 h 0.4 l 0.9,0.2 3.5,0.85 6.3,1.05 h 0.05 l 2.75,0.3 0.25,0.05 0.25,0.15 1.35,1.7 1.15,0.25 q 0.2,0.05 0.4,0.25 l 0.7,0.85 Q -5.7,20.55 -4.7,18 L -4.9,17.9 -5.1,17.65 -5.7,16 -5.85,15 -5.8,13.85 -5.5,12.6 -4.85,10.85 -3.9,9 l 0.3,-0.25 0.35,-0.1 1.05,0.1 q 0.5,-3.35 0.5,-6.9 m -14.25,-18.15 -1.1,0.85 -0.55,-0.4 -0.3,-0.55 v -0.4 l 0.05,-0.3 1,-0.7 -0.65,-0.2 -0.45,0.5 -0.25,0.5 -0.15,0.5 0.25,0.6 0.6,0.6 0.5,0.3 q 0.1,0 0.45,-0.25 l 0.6,-1.05 m 3.75,6.5 -1.2,0.2 1.75,-0.15 -0.55,-0.05 m -6,3.6 0.25,-0.35 h -1.25 l -0.3,-0.25 -0.45,-0.65 -0.1,-0.4 V -8.3 l 0.1,-0.35 1.65,-0.25 -1.3,-0.45 -0.5,-0.15 -0.05,0.3 q -0.5,1.6 0.55,2.95 l 0.35,0.35 0.4,0.2 0.1,0.1 0.55,-0.6 M -7.65,8.6 Q -6.2,6.15 -5.85,2.9 -6.6,3.5 -7.5,3.45 -9,3.5 -9.95,1.85 q -0.9,-1.4 -0.9,-3.4 0,-1.95 0.85,-3.4 h 0.05 q 0.95,-1.6 2.35,-1.6 l -0.05,-0.1 -0.4,-0.65 -8.9,1 q -1.65,3.1 -1.65,7.3 0,4.45 1.85,7.6 1.9,3.2 4.55,3.2 2.7,0 4.55,-3.2 m 2.8,-10.15 q 0,-1.8 -0.8,-3.05 -0.75,-1.3 -1.85,-1.3 -1.15,0 -1.9,1.3 -0.8,1.25 -0.8,3.05 0,1.8 0.8,3.05 0.75,1.3 1.9,1.3 1.1,0 1.85,-1.3 0.8,-1.25 0.8,-3.05 m -1,0.1 q 0,0.45 -0.15,0.75 -0.2,0.3 -0.4,0.3 L -6.85,-0.7 -7,-1.45 l 0.15,-0.8 0.45,-0.3 0.4,0.3 q 0.15,0.3 0.15,0.8 m 2.55,10.75 -0.95,1.8 -0.5,1.5 -0.4,1.35 0.05,1.85 0.6,1.55 2.25,0.4 H -2.2 L -2.25,17.7 -2.4,15.75 V 14 l 0.15,-1.3 0.2,-1.15 L -1.2,9.5 -3.3,9.3 m 2.7,6.6 Q 0,15.15 0.1,14.5 0.4,12.9 0.3,12.15 l -0.35,-1.2 q -0.1,-0.4 -0.55,-0.85 h -0.05 l -0.7,1.35 -0.35,1.4 -0.15,2 0.15,2.3 1.1,-1.25 m -24.2,2 -2.4,4 0.15,1.55 7.85,2.3 6.2,1.05 2.65,0.1 1.8,-3.05 -2.65,-3.5 -2.8,-0.3 -6.4,-1.05 -4.4,-1.1 m 15,9 5.05,1.1 h 0.15 l 0.15,0.05 0.5,-0.2 0.45,-0.3 0.75,-0.7 0.15,-0.4 -0.05,-0.7 L -2.9,25.2 -3.85,24.5 -7.4,23.55 -8.3,22.5 -8.95,22.35 -8.1,23.8 -9.8,26.9 m 20,1.05 -12.45,-3.95 -1.05,0.4 0.85,0.7 0.25,0.8 -0.1,0.6 -0.15,0.6 -0.35,0.5 -1.25,0.7 0.1,0.3 13.9,2.75 0.5,-0.6 0.3,-0.5 0.15,-0.8 L 10.55,28.4 10.2,27.95 M -28.5,25 l -0.15,0.5 -0.35,0.2 -0.35,-0.2 -0.15,-0.5 0.15,-0.5 q 0.15,-0.2 0.35,-0.2 l 0.35,0.2 q 0.15,0.2 0.15,0.5 m -5.45,2.95 -2.7,3.15 5.35,3.35 q 0.6,0 3.1,1.2 l 2.35,1.25 2.65,-1.5 2.4,0.4 1.05,-1.35 -0.15,-4.3 0.95,-1.45 -5.4,-2.7 -3.9,-2.05 -1.1,-0.7 q -0.4,0.5 -0.7,0.45 l -3.9,4.25 m 10.2,-0.25 -0.15,0.5 q -0.15,0.2 -0.4,0.2 l -0.4,-0.2 -0.15,-0.5 0.15,-0.5 0.4,-0.2 q 0.25,0 0.4,0.2 0.15,0.2 0.15,0.5 m -24,18.6 q 16.1,0 28.25,-9.25 l -1.2,-0.75 -0.15,0.05 -0.3,0.05 -1.9,-0.35 -2.45,1.4 -0.3,0.1 -0.35,-0.1 -2.35,-1.2 h -0.05 Q -30.8,35.15 -31.3,35.1 L -31.65,35 -37,31.7 -37.25,31.4 -37.3,31 l 0.05,-0.1 q -3.95,3.15 -8.25,5.25 l -0.2,0.05 -0.2,0.15 -0.85,0.4 -0.25,0.05 h -0.1 l -0.3,0.25 -1.45,0.55 -2.5,0.85 -0.25,0.05 -0.2,0.1 -0.15,0.05 -0.45,-0.1 -0.8,-0.2 v 0.15 l -0.1,0.4 -0.4,0.2 -3.25,0.7 -0.2,-0.05 -0.25,0.1 -1.35,0.15 h -0.3 l -0.25,-0.1 -0.1,0.1 -0.45,0.15 -2.45,0.15 -0.35,-0.1 -0.35,0.1 h -1.8 l -0.25,-0.05 -0.35,-0.1 -0.45,0.15 -1.7,-0.1 -0.4,-0.15 H -68 l -0.4,0.1 -4.15,-0.7 q 10.9,6.85 24.8,6.85 m -41.5,-23.9 1.3,3.85 2.2,3.2 1.3,-2.8 2.3,4.4 0.7,-2.2 0.9,-0.3 2.45,4.55 0.8,-2.55 0.8,-0.15 2.75,3.75 0.6,-2.8 1.9,0.35 2.05,6.25 0.05,-1.25 1.45,-5.25 2.05,-0.1 1.75,6.4 -0.05,-2.2 1.35,-4.75 0.9,-0.25 0.9,-0.05 2.3,5.35 1.45,-6.3 0.7,-0.3 0.7,-0.3 1.85,4.05 2.25,4.85 2.45,-0.85 1.45,-0.6 -4.65,-1.8 -0.3,-2.8 1.9,-4.3 1.05,-0.15 3.85,8.2 q 5.65,-2.7 10.55,-7.3 l 0.15,-1.4 -2.4,-2.45 -3.2,-3 -3.65,1.45 -6.05,2.25 q -4.25,1.5 -8.75,2.15 -3.4,0.55 -6.8,0.15 -7.2,0.1 -13.95,-2.05 -4.25,-1.35 -8,-4.25 l -1.05,0.2 -0.3,1.1 m 61.9,19.75 -0.9,0.55 -0.15,0.1 -0.05,0.1 v 0.05 l 0.05,0.15 h 0.05 l 10.75,8.95 10.7,8.7 0.4,0.2 -0.1,0.1 0.6,-0.35 q 0.2,-0.1 0,-0.3 l -0.05,-0.05 -0.1,-0.1 -0.5,-0.45 -2,-1.7 -7.9,-6.8 -10.5,-8.85 V 42.4 42.25 l -0.1,-0.1 -0.05,-0.05 -0.15,0.05 M -15.2,33.3 q 2.85,-2.75 5.1,-5.75 l -2.95,-0.1 -6.35,-1.1 -6.4,-1.8 1.75,0.85 5.35,2.7 0.3,0.25 0.1,0.35 -0.1,0.35 -0.85,1.25 0.2,1.75 3.15,1.9 0.7,-0.65 m -5,2.55 2.4,1.65 1.1,0.05 0.6,-0.3 0.45,-0.3 q 0.6,-0.5 0.45,-1.25 l -0.4,-0.6 -0.4,-0.45 -3.25,-2 -0.1,2.1 -0.85,1.1 m 2.9,2.95 q 5.75,2.8 11.45,5.55 l 0.85,0.1 0.85,-0.95 0.3,-1.05 V 42.4 l -0.5,-1.05 -10.7,-6.85 -0.35,0.1 0.35,0.4 0.2,0.5 v 0.6 q -0.05,0.55 -0.2,0.7 l -0.35,0.45 -0.9,0.6 -0.85,0.15 -0.55,-0.05 0.4,0.85 m 76,44.05 0.8,-0.5 0.75,-0.55 -63.75,-39.2 -0.25,0.8 -0.2,0.45 -0.65,0.8 63.3,38.2 M -67.4,31.8 l -1.3,5 -0.05,1.25 3.95,1.6 h 1.8 l -1.1,-1.1 -1.85,-6.8 -1.45,0.05 m 6.3,-0.9 -1.15,0.2 -1.3,4.7 0.05,1.7 4.7,1.85 1.3,-0.15 -3.6,-8.3 m -7.15,8.6 -1.7,-1.75 -1.8,-5.7 -1,-0.3 -1.15,3.95 v 2.25 l 0.75,0.7 4.9,0.85 m -6.1,-1.35 v -2.6 l 0.4,-0.85 -2.65,-3.8 -0.5,0.1 -0.95,3.5 -0.25,0.5 0.1,2.4 3.85,0.75 m -8.15,-2.3 3.7,0.65 v -1.6 l 0.5,-1.15 -2.45,-4.65 -0.4,0.1 -1.25,4.1 -0.1,2.55 m 12.2,16.85 -0.75,-8.2 -6.65,-0.45 -1.65,0.65 3.65,0.25 3.65,0.3 0.5,4.05 0.4,4 0.85,-0.6 m -10.3,-7.15 -2.2,1.05 3.5,0.05 3.6,0.15 0.55,4.1 0.45,4 2.9,-1.45 -0.8,-7.65 -8,-0.25 m 20.75,-6.05 -4,-1.65 0.2,0.5 1.3,1.3 2.5,-0.15 m -6,0.15 -2.75,-1.05 1.05,0.95 1.7,0.1 m -4.5,8.15 0.4,2.65 2.8,-1.05 -0.45,-2.95 -2.75,1.35 m 19.9,-19.8 -1.65,3.75 -0.05,2.45 5.1,1.95 0.85,-0.4 -3.7,-7.9 -0.55,0.15 m -1.5,9.95 -3.85,-8.45 -0.9,0.4 -1.4,5.75 0.2,1.2 2.8,0.5 3.05,0.65 0.1,-0.05 m -1.9,0.5 -4.05,-1.1 0.85,1.8 3.2,-0.7 m 2.45,9.9 q -1.7,2.05 -1,4.65 l 0.5,1.65 0.7,-0.05 q -0.75,-2.65 0.15,-5.1 l 0.45,-1 -0.65,-0.2 -0.15,0.05 m -4.45,1.95 h -0.8 l -0.15,0.95 0.35,2.45 0.7,0.15 -0.1,-1 V 50.3 m -15.3,4.2 v 0.1 l -1.45,0.4 3.75,1.35 q 2.45,-0.85 4.65,-2.05 l 2.95,-1.65 Q -59.4,51.6 -57.35,51 V 50.05 Q -59.6,50.9 -61.7,52 l -3.15,1.75 q -1.9,0.95 -3.95,1.5 l -2.35,-0.75 m 23.1,-5.05 -0.25,0.05 q -0.55,0.2 -0.7,0.7 -0.35,0.8 -0.3,1.75 0.05,1.7 1.65,2.35 l 0.7,-0.1 0.3,-0.8 h -0.25 l -0.5,0.2 -0.7,-0.2 -0.65,-1.6 q -0.45,-1.4 0.7,-2.35 m -31.7,-1.2 0.95,8.9 3.25,-1.7 -0.85,-8.15 -7.6,-0.25 -2.15,1.2 h 6.4 m 40.8,9.45 -0.25,1.35 45.6,23.1 Q 6.6,82.05 6.1,81.7 L 5.6,81.3 Q 5.65,81.25 -16.65,69.5 l -22.3,-11.8 m -47.2,-0.8 6.7,0.25 -1.05,-8.2 h -6.75 l 1.1,7.95 m 0.2,-23.6 3.05,0.65 V 33.2 l 0.55,-1.55 -2.15,-4.25 -1.5,3.75 0.05,2.15 m 0.8,17.4 h 3.2 l 0.5,4.85 -3.3,-0.2 -0.4,-4.65 m 174.3,-2.6 -28.6,-7.05 -49.45,-12.3 0.15,0.9 q 0,0.5 -0.4,1.2 l 48.95,11.6 27.95,6.65 q 0.3,-0.4 0.75,-0.5 l 0.65,-0.5" /><path
         d="m 39.45,-65.8 -0.2,0.65 -53.5,10.5 4.35,-2.9 49.35,-8.25 m -67.65,19.9 -5.5,2.7 -1.35,0.15 -0.7,0.65 0.1,1.25 -4,4.2 -4.9,0.4 -3.05,-0.75 -0.4,-1.7 -0.15,-1.1 9.7,-4.8 0.55,0.15 2.25,-1.1 2.9,-3 1.9,0.2 3.6,-2.8 2.65,0.8 47.4,-31.5 9.25,-2.05 -1,1.15 -7.35,1.55 -47.9,33.05 -2.1,-0.25 -1.9,2.8 m -3.8,-25.25 -24.8,21.7 -2.35,1.4 -3.6,7.2 -1.5,0.55 -0.8,2 -7.85,3.25 -0.1,-0.6 0.4,-0.35 9.55,-8.75 -0.2,-1.2 30.4,-26.6 14.05,-3.95 0.25,1.25 -13.45,4.1 m 4.35,16.5 11,-1.8 -4.45,3.1 -5.25,1.05 -1.3,-2.35 m -18.3,14.4 q -0.05,-0.2 -0.3,-0.2 h -0.5 l -0.4,0.25 -0.15,0.35 0.3,0.25 0.5,-0.05 0.45,-0.25 0.1,-0.35 m 5.7,2.1 -0.25,-0.45 -0.45,-0.2 -0.5,0.2 -0.2,0.45 0.2,0.4 0.5,0.2 q 0.25,0 0.45,-0.2 0.25,-0.15 0.25,-0.4 m 30.45,65.05 1.7,-3.1 -0.85,-1.45 0.65,0.15 0.9,1.05 3.55,0.95 0.95,0.7 0.25,0.55 0.05,0.7 -0.15,0.4 -0.75,0.7 -0.45,0.3 -0.5,0.2 L -4.6,28 H -4.75 L -9.8,26.9 m -15,-9 4.4,1.1 6.4,1.05 2.8,0.3 2.65,3.5 -1.8,3.05 -2.65,-0.1 -6.2,-1.05 -7.85,-2.3 -0.15,-1.55 2.4,-4 m 1.05,9.8 q 0,-0.3 -0.15,-0.5 -0.15,-0.2 -0.4,-0.2 l -0.4,0.2 -0.15,0.5 0.15,0.5 0.4,0.2 q 0.25,0 0.4,-0.2 l 0.15,-0.5 m -10.2,0.25 3.9,-4.25 q 0.3,0.05 0.7,-0.45 l 1.1,0.7 3.9,2.05 5.4,2.7 -0.95,1.45 0.15,4.3 -1.05,1.35 -2.4,-0.4 -2.65,1.5 -2.35,-1.25 q -2.5,-1.2 -3.1,-1.2 l -5.35,-3.35 2.7,-3.15 M -28.5,25 q 0,-0.3 -0.15,-0.5 L -29,24.3 q -0.2,0 -0.35,0.2 l -0.15,0.5 0.15,0.5 0.35,0.2 0.35,-0.2 0.15,-0.5 m 1.15,17.15 0.15,-0.05 0.05,0.05 0.1,0.1 v 0.15 0.05 l 10.5,8.85 7.9,6.8 2,1.7 0.5,0.45 0.1,0.1 0.05,0.05 q 0.2,0.2 0,0.3 l -0.6,0.35 0.1,-0.1 -0.4,-0.2 -10.7,-8.7 -10.75,-8.95 h -0.05 l -0.05,-0.15 V 42.9 l 0.05,-0.1 0.15,-0.1 0.9,-0.55 m 7.15,-6.3 0.85,-1.1 0.1,-2.1 3.25,2 0.4,0.45 0.4,0.6 q 0.15,0.75 -0.45,1.25 l -0.45,0.3 -0.6,0.3 -1.1,-0.05 -2.4,-1.65 m 78.9,47 -63.3,-38.2 0.65,-0.8 0.2,-0.45 0.25,-0.8 63.75,39.2 -0.75,0.55 -0.8,0.5 M 89.15,48.1 88.5,48.6 q -0.45,0.1 -0.75,0.5 L 59.8,42.45 10.85,30.85 q 0.4,-0.7 0.4,-1.2 l -0.15,-0.9 49.45,12.3 28.6,7.05" /><path
         d="m 7.8,-9.8 -26.6,3.05 h -0.25 l -0.35,-0.2 -0.45,-0.85 0.05,-0.6 27.75,-2.4 -0.15,1 m -42.25,-47.55 6.4,2.7 1.3,2.45 0.1,0.4 -0.55,-0.05 -1.05,0.7 -1.15,0.85 -1.3,1.1 q -0.1,0.1 -0.3,0.1 l -0.3,-0.05 h -0.05 l -0.55,-0.2 -0.7,-0.1 -0.5,0.45 -1.85,2 -0.55,0.5 -0.55,0.45 q -0.75,0.5 -2.6,1 l -0.35,-1 -0.45,-1.05 0.75,-1.15 -0.05,-1.55 -0.3,-0.7 -0.55,-0.6 -2.45,0.25 -0.85,-1.05 0.65,-1.7 3.6,-2.25 v -0.05 l 2.1,-0.75 2.1,-0.75 v 0.05 m -14.15,14.3 1.15,0.25 -0.15,1.65 -1.05,0.35 -4.25,1.75 -5.15,2.5 -2.15,-0.05 -5.15,0.05 -0.15,-0.3 1.5,-3.05 1.5,-0.55 3.45,-7.15 4.05,-2.05 7.95,-2.05 3.65,-0.1 1.4,1.65 -0.05,0.4 -1.25,-0.55 -0.85,0.1 -0.65,0.6 v 0.75 l 0.1,0.75 0.6,0.55 1.05,0.75 0.5,0.65 -4.85,0.35 -1.2,2.75 m 1.7,1.6 0.15,-1.15 2.05,0.1 -2.2,1.05 m 18.15,20.55 -0.15,-0.35 q -9.05,-8.35 -20.8,-11.95 l -0.05,-0.05 -0.1,-0.3 -0.25,-0.3 -0.95,-0.5 -1.15,-0.55 -5.5,-1.05 5.05,-2.45 v -0.05 l 3.85,-1.6 0.55,2.9 0.25,0.25 0.25,0.2 3.25,0.8 4.95,-0.35 4.4,-4.45 0.15,-0.25 V -41 q 3.1,0.85 6.05,2.15 H -29 l 0.15,0.4 0.1,0.1 v 0.3 l 1.05,0.95 1.6,1.25 v 0.05 l 2.25,1.05 1.1,0.4 0.6,0.15 0.6,0.05 0.25,-0.2 0.1,-0.2 q 3.15,2.2 6,4.95 3.3,3.2 5.8,6.7 l -7.2,4.5 -1,-0.3 q -1.8,-0.15 -3.15,1.2 l -0.2,0.5 -0.15,0.6 q -0.15,2.05 1.65,3.25 l 1.3,0.55 h 0.25 q 1.85,-0.3 2.35,-2.05 v -0.05 l 0.25,-1.45 7.2,-4.85 q 3.1,4.95 4.7,10.55 l -6.35,0.5 q -1.15,-0.7 -2.45,-0.7 -1.7,0 -3.05,1.2 l -2.5,0.2 -1.65,-0.7 -1.85,-0.3 -1.7,1.05 -0.4,-2.9 -0.6,-3.5 -1.1,-1.9 -1.4,-1.7 -1.15,-0.95 -1.15,-0.75 M -46.9,-34 l -0.25,-0.55 -0.65,-0.2 -0.7,0.2 -0.25,0.55 0.25,0.55 q 0.3,0.25 0.7,0.25 0.35,0 0.65,-0.25 0.25,-0.2 0.25,-0.55 m -6.4,-7.8 -0.25,-0.6 q -0.25,-0.25 -0.65,-0.25 l -0.6,0.25 -0.25,0.6 0.25,0.6 0.6,0.25 q 0.4,0 0.65,-0.25 0.25,-0.25 0.25,-0.6 m 2.9,-1.4 -0.25,-0.65 q -0.25,-0.2 -0.6,-0.2 l -0.65,0.2 -0.25,0.65 0.25,0.55 q 0.3,0.3 0.65,0.3 0.35,0 0.6,-0.3 0.25,-0.2 0.25,-0.55 m -14.5,7.35 -5.05,0.35 3.85,-1.6 -0.05,0.3 0.05,0.3 0.8,0.6 h 0.75 l -0.35,0.05 m 64.45,8.05 0.4,0.55 -16.95,11.45 -0.2,-0.1 -0.25,-0.2 -0.2,-0.35 -0.05,-0.4 0.1,-0.15 1.4,-1 15.75,-9.8 m -32.6,-7.7 2.95,-1.65 0.1,-0.35 -0.8,-0.35 q -2.15,0.55 -4,1.65 -2.2,1.25 -4.05,3.05 l -0.75,0.85 -0.05,0.55 0.5,0.5 h 0.75 l 0.6,-0.5 0.75,-0.65 0.05,-0.1 3.95,-3 m 4.65,12.25 -0.3,-0.6 -0.75,-0.25 -0.7,0.25 -0.3,0.6 0.3,0.65 q 0.3,0.25 0.7,0.25 0.45,0 0.75,-0.25 0.3,-0.25 0.3,-0.65 m 26.7,25.1 q 0,3.55 -0.5,6.9 L -3.25,8.65 -3.6,8.75 -3.9,9 -4.85,10.85 -5.5,12.6 -5.8,13.85 -5.85,15 l 0.15,1 0.6,1.65 0.2,0.25 0.2,0.1 q -1,2.55 -2.35,4.95 l -0.7,-0.85 q -0.2,-0.2 -0.4,-0.25 L -9.3,21.6 -10.65,19.9 -10.9,19.75 -11.15,19.7 -13.9,19.4 h -0.05 l -6.3,-1.05 -3.5,-0.85 -0.9,-0.2 h -0.4 l -0.3,0.3 -2.4,4 -0.1,0.4 0.15,1.5 -0.25,-0.15 -1.1,-0.65 q 0.85,-1.5 1.6,-3.5 l 0.5,-1.1 1.35,-1.3 1.35,-1 q 0.8,-0.9 1.15,-2.4 l 0.25,-2.6 0.15,-1.45 0.35,-3.3 q 0.15,-0.3 0.15,-0.8 0.15,-5.1 -0.2,-9.75 l -0.25,-2.4 0.25,0.8 q 0.4,0.95 1.25,1.75 l 0.2,0.15 0.3,0.05 1.2,-0.1 q 0.2,0 0.4,-0.15 l 1.15,-1.15 q -1.2,2.85 -1.2,6.55 0,4.85 2.05,8.3 2,3.4 4.85,3.4 2.85,0 4.85,-3.4 1.75,-3 2,-7 l 0.3,-0.45 q 0.85,-1.4 0.85,-3.4 0,-1.95 -0.85,-3.4 -0.8,-1.3 -1.85,-1.5 l -0.45,-0.8 -0.05,-0.1 4.65,-0.55 q 1.05,4.65 1.05,9.75 M -7.65,8.6 q -1.85,3.2 -4.55,3.2 -2.65,0 -4.55,-3.2 -1.85,-3.15 -1.85,-7.6 0,-4.2 1.65,-7.3 l 8.9,-1 0.4,0.65 0.05,0.1 q -1.4,0 -2.35,1.6 H -10 q -0.85,1.45 -0.85,3.4 0,2 0.9,3.4 Q -9,3.5 -7.5,3.45 -6.6,3.5 -5.85,2.9 -6.2,6.15 -7.65,8.6 m -31.3,49.1 22.3,11.8 Q 5.65,81.25 5.6,81.3 l 0.5,0.4 q 0.5,0.35 0.3,0.45 l -45.6,-23.1 0.25,-1.35" /><path
         d="m -91.2,-7.25 0.75,-5.85 2.35,-0.5 q -2.15,13.45 -2,18.6 0.05,3.15 1.75,10.2 l 1.55,5.9 -0.7,-0.5 -0.3,-0.15 h -0.25 l -0.15,0.05 -1.5,-5.45 q -2,-7.8 -2.2,-11.4 -0.2,-3.5 0.7,-10.9 m 6.25,25 1.9,5.6 -2.85,-1.6 -1.45,-4.6 q -2,-7 -2.2,-12.35 -0.2,-5.3 0.95,-13.55 l 0.75,-4.95 1.55,-0.35 0.3,-0.15 0.3,0.05 0.25,-0.05 -0.85,5.65 q -1.05,8.05 -0.9,13.7 0.15,5.6 2.25,12.6 m 4.45,0.05 2.05,7.3 -1.25,-0.35 -2.1,-0.8 -1.6,-5.45 q -2.2,-7.8 -2.55,-11.95 -0.35,-4.1 0.5,-14.3 l 0.6,-6.6 3,-0.55 0.75,-0.1 -0.85,7.9 q -1,10.15 -0.9,13.3 0.05,3 2.35,11.6 m 40.85,-64.35 0.7,1.6 h -0.15 l -1.75,1 -0.05,0.05 -0.7,-1.4 -1.25,-1.9 -1,-0.65 -0.55,-0.45 -0.05,-0.45 v -0.55 l 0.3,-0.5 0.35,-0.1 1,0.2 2.25,1.45 0.4,0.75 0.5,0.95 m -7,3.4 -0.45,-0.7 -0.4,-0.7 0.15,-0.4 0.3,-0.4 0.45,-0.1 h 0.4 l 2.05,2.3 -1.2,0.1 -1.3,-0.1 m 2.65,32.8 q -1.45,8.35 -1.35,11.05 0.45,13.15 1.05,16.15 l 1.25,4.8 -1.55,0.6 h -0.1 l -3.3,1.3 Q -49.25,19.1 -49.7,15.3 L -50.55,4.35 q -0.3,-6.35 -0.1,-8 l 0.7,-8.35 0.25,-3.1 3.45,0.15 0.25,-0.05 0.35,0.1 2.4,0.2 -0.75,4.35 m -33.9,32.5 q -2.25,-8.45 -3.05,-16.5 -0.8,-8 0.65,-16.2 l 0.95,-4.65 3.6,-0.35 -1,6.35 Q -78,0.3 -77.2,7.2 q 0.8,6.9 3.05,14.5 l 1.5,4.6 -4.35,-0.8 -0.9,-3.35 m 3.45,-31.85 0.85,-6.05 h 0.1 l 5.55,-0.05 -1,4.25 q -1.55,7.7 -1,16.75 0.55,9 3.15,17.65 l 1.25,3.95 -0.3,-0.05 H -66 l -4.5,-0.2 -1.4,-4.3 q -2.45,-8.15 -3.15,-14.9 -0.7,-6.7 0.6,-17.05 m 10.8,35.65 q -1.6,-5.85 -2.4,-10.3 -0.7,-3.9 -0.75,-10.7 -0.05,-6.2 0.45,-11 0.35,-3.7 1.6,-8.75 l 0.25,-1 h 1.55 l 0.25,-0.05 0.3,0.15 0.65,0.05 h 0.1 l 0.65,0.05 h 0.25 l 0.25,-0.05 0.25,0.05 0.7,0.05 -0.9,7.15 q -1.5,12 -1.5,14.6 0.05,3.1 0.65,7.4 0.65,4.25 1.45,7.25 l 1.5,5.6 v 0.05 l -0.9,0.15 -4.15,0.25 -0.25,-0.95 m 22.05,-37.1 0.45,-3.4 3.85,0.35 h 0.9 v 0.1 0.05 l 0.05,0.15 -0.45,6.15 -0.55,12.05 0.65,8.75 -0.5,1.4 q -1.1,2.65 -2.85,4.85 l -1,-3.45 -1,-9.95 -0.4,-8.55 q 0.05,-2.7 0.85,-8.5 m -11.05,0.7 q -1.6,9.35 -1.45,12.55 0.2,4.4 1.1,10.15 1.05,6.6 2.6,12.2 l -0.2,0.05 -5.2,1.45 -1.15,-4.45 q -2.35,-9.6 -2.6,-14.45 -0.2,-4.8 0.35,-11.2 l 0.65,-6.25 v -0.05 -0.15 l 1,-4.85 5.75,0.25 -0.85,4.75 m -8.45,41.35 3.6,8.3 -1.3,0.15 -4.7,-1.85 -0.05,-1.7 1.3,-4.7 1.15,-0.2 m -6.3,0.9 1.45,-0.05 1.85,6.8 1.1,1.1 h -1.8 l -3.95,-1.6 0.05,-1.25 1.3,-5 m -15.1,4.05 0.1,-2.55 1.25,-4.1 0.4,-0.1 2.45,4.65 -0.5,1.15 v 1.6 l -3.7,-0.65 m 8.15,2.3 -3.85,-0.75 -0.1,-2.4 0.25,-0.5 0.95,-3.5 0.5,-0.1 2.65,3.8 -0.4,0.85 v 2.6 m 6.1,1.35 -4.9,-0.85 -0.75,-0.7 V 35.7 l 1.15,-3.95 1,0.3 1.8,5.7 1.7,1.75 m -2.1,8.3 2.75,-1.35 0.45,2.95 -2.8,1.05 -0.4,-2.65 m 18.4,-9.85 -0.1,0.05 -3.05,-0.65 -2.8,-0.5 -0.2,-1.2 1.4,-5.75 0.9,-0.4 3.85,8.45 m 1.5,-9.95 0.55,-0.15 3.7,7.9 -0.85,0.4 -5.1,-1.95 0.05,-2.45 1.65,-3.75 m -0.95,20.35 0.15,-0.05 0.65,0.2 -0.45,1 q -0.9,2.45 -0.15,5.1 l -0.7,0.05 -0.5,-1.65 q -0.7,-2.6 1,-4.65 m 3.35,1.1 q -1.15,0.95 -0.7,2.35 l 0.65,1.6 0.7,0.2 0.5,-0.2 h 0.25 l -0.3,0.8 -0.7,0.1 q -1.6,-0.65 -1.65,-2.35 -0.05,-0.95 0.3,-1.75 0.15,-0.5 0.7,-0.7 l 0.25,-0.05 m -23.1,5.05 2.35,0.75 q 2.05,-0.55 3.95,-1.5 L -61.7,52 q 2.1,-1.1 4.35,-1.95 V 51 q -2.05,0.6 -3.9,1.65 l -2.95,1.65 q -2.2,1.2 -4.65,2.05 L -72.6,55 l 1.45,-0.4 v -0.1 m 15.3,-4.2 v 2.55 l 0.1,1 -0.7,-0.15 -0.35,-2.45 0.15,-0.95 h 0.8 m -30.1,-17 -0.05,-2.15 1.5,-3.75 2.15,4.25 -0.55,1.55 v 0.75 l -3.05,-0.65" /><path
         d="m -47.75,46.3 q -13.9,0 -24.8,-6.85 l 4.15,0.7 0.4,-0.1 h 0.05 l 0.4,0.15 1.7,0.1 0.45,-0.15 0.35,0.1 0.25,0.05 h 1.8 l 0.35,-0.1 0.35,0.1 2.45,-0.15 0.45,-0.15 0.1,-0.1 0.25,0.1 h 0.3 l 1.35,-0.15 0.25,-0.1 0.2,0.05 3.25,-0.7 0.4,-0.2 0.1,-0.4 v -0.15 l 0.8,0.2 0.45,0.1 0.15,-0.05 0.2,-0.1 0.25,-0.05 2.5,-0.85 1.45,-0.55 0.3,-0.25 h 0.1 l 0.25,-0.05 0.85,-0.4 0.2,-0.15 0.2,-0.05 q 4.3,-2.1 8.25,-5.25 l -0.05,0.1 0.05,0.4 0.25,0.3 5.35,3.3 0.35,0.1 q 0.5,0.05 2.75,1.15 h 0.05 l 2.35,1.2 0.35,0.1 0.3,-0.1 2.45,-1.4 1.9,0.35 0.3,-0.05 0.15,-0.05 1.2,0.75 q -12.15,9.25 -28.25,9.25 m 32.55,-13 -0.7,0.65 -3.15,-1.9 -0.2,-1.75 0.85,-1.25 0.1,-0.35 -0.1,-0.35 -0.3,-0.25 -5.35,-2.7 -1.75,-0.85 6.4,1.8 6.35,1.1 2.95,0.1 q -2.25,3 -5.1,5.75 m -65.4,12.25 8,0.25 0.8,7.65 -2.9,1.45 -0.45,-4 -0.55,-4.1 -3.6,-0.15 -3.5,-0.05 2.2,-1.05 m -5.55,11.35 -1.1,-7.95 h 6.75 l 1.05,8.2 -6.7,-0.25 m 1,-6.2 0.4,4.65 3.3,0.2 -0.5,-4.85 h -3.2"/></g></g></svg>
