<svg xmlns="http://www.w3.org/2000/svg" xml:space="preserve" width="630.194" height="383.934"
  viewBox="0 0 166.739 101.583">
  <g fill-rule="evenodd">
    <path
      d="M-236.882-124.932q1.964.956 9.68 5.566 1.524.573 2.075 2.346.55 1.772-.28 3.606l-.209.318-.019.099q-.663 1.457-2.117 2.216-1.338.678-2.69.287l-.533-.145-10.581-4.201q-1.721-.608-2.657-3.363-.97-2.557-.29-4.113.538-1.326 3.047-2.305 2.41-.997 4.057-.554l.516.243m-.107 3.484q.224 1.614-.912 3.444-1.216 1.715-2.846 2.037-.313.046.06.518l.696.377.246.043q1.746-.403 2.882-2.234 1.21-1.97.856-3.708.039-.5-.692-.68z"
       transform="translate(474.16 239.224)scale(1.90903)" />
    <path
      d="m-201.803-105.038-19.926-10.52q-.238-.093-.183-.692l.243-.516 19.944 10.421q.228.142.173.742-.063.649-.251.565m-2.164 1.903-15.476-7.248q-.238-.092-.183-.692l.235-.466 15.444 7.14q.189.084.183.693-.023.706-.203.573m3.633 5.312q-.064.648-.252.564l-22.521-9.91q-.237-.094-.232-.702l.252-.565 22.628 9.88q.18.133.125.733"
       transform="translate(474.16 239.224)scale(1.90903)" />
    <path
      d="M-243.172-85.303q2.213-.235 11.373-.418 1.626-.327 3.06.907 1.432 1.235 1.704 3.268l-.008.388.04.094q.213 1.618-.633 3.059-.79 1.308-2.17 1.701l-.54.163-11.414 2.083q-1.815.404-4.112-1.471-2.22-1.686-2.472-3.398-.251-1.437 1.388-3.638 1.545-2.163 3.208-2.67l.577-.068m1.79 3.069q1.064 1.274 1.072 3.469-.125 2.139-1.36 3.298-.246.209.332.415l.804-.05.236-.096q1.292-1.292 1.284-3.487-.017-2.356-1.262-3.667-.237-.454-.966-.214z"
      
      transform="translate(474.16 239.224)scale(1.90903)" />
    <path
      d="m-202.11-87.054-22.904 1.669q-.255.048-.531-.5l-.068-.577 22.865-1.763q.274-.001.55.547.296.594.088.624m-.842 2.813-17.29 2.094q-.255.048-.532-.5l-.048-.53 17.205-2.169q.208-.029.531.5.362.623.135.605m6.008 2.629q.296.594.088.624l-24.818 3.596q-.255.048-.578-.48l-.088-.624 24.893-3.682q.227.018.503.566"
      
      transform="translate(474.16 239.224)scale(1.90903)" />
    <path
      d="M-171.4-111.4q2.85.9 4.35 2.7.15.3 0 .6 0 .9-1.5 1.95-.9.75-1.95 1.35-.6.15-.45 1.2.15.9.75.9 4.5.3 6.3 2.7 1.2 1.5.75 3.6-2.1-1.2-4.5-1.05-.6 0-.6.9-.15 1.2.9 1.2l.75.15q2.7.15 4.35 1.8 1.35 1.65 1.2 4.2-.3 2.7-1.65 4.95-1.5 2.85-3.9 2.25-.9-3-3.45-4.95l-.3-.15-.6.15v.3q-.3.3-.15.75 0 .6.45.9 1.5 1.05 2.55 2.85.9 1.65.3 3.15-.6 1.95-2.85 3.75-1.8 1.5-4.05 2.55-1.4.6-2.6.6-1.95-.15-3.3-2.1-1.05-1.65-1.2-3.9-.15-1.2-.9-1.35h-.3l-.15.3q-.3.15-.15.6 0 1.5.6 3-1.8 1.2-3.9 1.2t-3.75-1.2q-1.35-.6-2.25-1.95-.9-1.5-.75-2.85.15-.3 0-.9l.6-1.5 2.1-1.2q.6-.15.3-1.05 0-.9-.75-.9h-.15q-2.7.9-3.6 3.45-1.65-1.05-2.25-2.4-.3-1.2.3-2.4.75-1.8 3.15-1.95.45 0 .6-.6v-.75q-.3-.6-.75-.75-1.65-.3-1.65-2.1l.3-1.5q.6-.75 1.5-.75.3 0 .45-.6l-.15-.75-.45-.6q-1.95-1.35-1.65-2.85 0-1.2 1.8-2.1 2.25-1.2 5.55.45h.75l.3-.45-.15-.9-.3-.6q-1.35-1.2-1.35-1.8.15-.45 1.35-.45.75 0 1.5 1.2 0 .45.45.45h.15l.45-.15q.15-.15.15-.75l-.15-.45v-.3q-1.5-3.9.15-5.85.9-1.35 3-1.2 1.5.15 2.25 1.05-2.25 1.8-2.85 4.8-.3.6.15 1.35l.3.15h.75v-.6q.6-1.8 1.95-3.3t3.3-1.95q2-.45 4.55.45m-4.4 11.1q-.15-1.2-.9-1.35h-.15q-3.9.75-6.3 4.05-.75-1.05-.6-2.25.15-1.05.9-2.1.45-.6 0-1.35-.15-.6-.6-.6h-.3l-.3.15q-1.35 1.95-1.2 4.05-.15 2.1 1.05 3.6-1.8 3.75-1.35 7.8.75 4.5 4.05 6.9l.15.15h.6v-.45l.3-.75q-.15-.6-.45-.9-2.85-1.95-3.3-5.4-.3-3.45 1.65-6.3l.15-.15q.15-.15.15-.45 2.25-3.3 5.85-3.9.6 0 .6-.75"
       transform="translate(474.16 239.224)scale(1.90903)" />
  </g>
</svg>