<?xml version="1.0" encoding="UTF-8"?>
<svg xmlns="http://www.w3.org/2000/svg" viewBox="0 0 448.45 707.09">
  <g>
    <path d="m387.24,281.08c34,11.08,70.55,44.76,59.06,84.18-5.74,19.69-18.45,39.13-29.58,56.19-10.95,16.79-23.54,36.62-39.03,49.61-39.92-39.84-79.69-79.54-120.12-119.89,33.35-29.36,69.49-55.26,112.66-70.09,5.67,0,11.33,0,17,0Z"/>
    <path d="m234.57,368.19c41.99,41.9,84.48,84.29,126.7,126.41-55.86,55.72-112.03,111.76-168.58,168.19-44.75-39.39-89.92-79.15-134.62-118.5,58.99-58.85,117.84-117.57,176.51-176.1Z"/>
    <path d="m171.61,683.67c-7.17,7.11-14.57,14.44-21.61,21.42-42.02-41.93-84.49-84.29-126.49-126.2,6.85-6.84,14.3-14.28,21.52-21.5,41.87,41.77,84.36,84.16,126.57,126.27Z"/>
  </g>
  <g>
    <path d="m38.19,264.72c59.07-59.07,117.71-117.7,175.96-175.95,42.19,42.2,84.57,84.59,126.46,126.49-55.42,55.42-111.54,111.53-168.03,168.03-44.21-39-89.27-78.77-134.38-118.57Z"/>
    <path d="m237.51,71.7c27.87-22.16,55.13-43.45,87.18-59.41,33.16-16.51,59.78-10.25,84.84,16.96,25.47,27.65,20.04,53.64,3.88,84.57-14.02,26.84-32.49,58.14-55.71,78.11-39.9-39.91-79.66-79.68-120.19-120.23Z"/>
    <path d="m3.5,299.55c7.27-7.27,14.53-14.53,21.41-21.4,42.14,42.14,84.49,84.51,126.36,126.38-6.77,6.77-14.19,14.21-21.38,21.41-41.7-41.7-84.09-84.09-126.39-126.38Z"/>
  </g>
</svg>