<svg xmlns="http://www.w3.org/2000/svg" xml:space="preserve" width="400.955" height="470.786" viewBox="0 0 106.086 124.562"><path d="M78.443 181.599c-2.446-.06.545 3.769 3.46 4.463 8.914 1.042 3.474-4.331-.83-3.715-1.211-.514-2.065-.735-2.63-.748M98.755 179.057c3.663.232 4.5 2.513.31 4.988-4.787 2.917-6.003-4-2.046-4.956a11.5 11.5 0 0 1 1.736-.032M90.496 178.307c1.567-.1 3.952.38 4.096 1.308-1.156 1.862-1.688 2.565-3.284.873-3.128-1.398-2.379-2.08-.812-2.18M84.267 172.246c2.688.097 5.569 1.365 2.807 4.198-1.238 1.151-3.08-1.166-4.466-1.373-3.527-1.848-1.03-2.922 1.659-2.825" style="display:inline;fill:#000" transform="translate(-50.535 -86.014)"/><path d="M95.335 171.894c2.33.073 3.118 1.985.932 4.95-.653 1.407-2.56.601-3.687.656-5.614 1.91-4.81-6.27-.039-5.038 1.068-.413 2.016-.593 2.794-.568M102.298 170.944c3.097-.232 5.194 2.916 2.093 6.695-.191 1.038-1.488 1.326-2.334 1.007-5.524.799-4.688-2.687-3.033-6.242 1.099-.93 2.242-1.383 3.274-1.46M75.695 169.974c1.823.041 4.045 1.047 3.902 2.812-.617 2.083-3.916.073-5.408.167-1.74-2.095-.316-3.02 1.506-2.979" style="display:inline;fill:#000" transform="translate(-50.535 -86.014)"/><path d="M90.448 111.891c-4.798-.35-8.641 7.292-12.812 9.457-3.114 1.739-4.915 2.736-.532 4.167 2.683 3.529 5.489 3.827 9.592 2.601 3.725-.446 7.713.753 11.201.861 7.139-7.022 19.717-6.676 26.388.819 7.49 7.526 6.158 21.12-2.477 27.198-8.808 7.13-23.501 3.462-27.858-7.041-3.493-3.253.598-11.44-2.673-12.626-2.578 5.412-4.976 10.91-7.452 16.37.78 2.432 6.122 11.224 1.221 6.96-2.363-1.78-4.759-3.515-7.142-5.268-5.14 3.702-11.791 4.461-17.814 2.737-.89 13.198 4.163 26.807 14.453 35.351 7.484 6.506 17.1 10.59 26.91 11.807-3.624 1.627-10.268-.435-12.527.416 4.553 4.873 11.831 5.427 18.047 4.506 5.059-1.126 10.102-3.082 14.077-6.474-3.684 2.014-8.076-.281-2.683-2.696 7.723-4.746 14.636-10.873 19.687-18.44 5.377-2.375 13.684-3.414 14.92-10.655.963-5.983-2.371-7.934-5.432-10.768-2.161-1.366-5.108-3.416-.62-3.444 2.657-1.4 4.562-4.563 1.815-6.797-3.667-5.74-8.389-10.78-13.78-14.897 2.7-2.928 12.315-6.452 7.116-12.085-4.957-4.48-12.576-.931-17.626-4.789-3.627-4.366-9.007-9.927-14.985-5.746-4.71 2.815-11.107 4.528-15.524.162-1.224-1.098-2.383-1.605-3.49-1.686m44.34 30.458c4.683 2.134 11.052 8.799 10.73 13.067l-1-.678c-2.797-3.874-10.741-7.9-9.73-12.39m-1.133 6.639q.137-.003.303.014c1.676.806 10.63 10.237 4.752 8.018-1.36-1.702-7.88-7.972-5.055-8.032m-1.371 4.921c.512.002 1.25.375 2.223 1.316 1.674.854 2.874 5.868-.425 3.628-2.685-.985-3.44-4.79-1.897-4.939q.048-.005.099-.005zm-2.254 5.633c1.054-.016 2.403.867 1.354 2.744l-.936-.1c-2.23-1.715-1.472-2.629-.418-2.644m-60.846 4.194q.436.03.94.214c5.974 3.184 12.316 6.856 19.37 5.73 5.91-.118 11.814-1.93 17.678-1.483 4.432 5.019-.562 13.315-5.34 16.553-1.758.79-3.937 3.624-5.971 2.248-7.976-5.726-16.882-10.808-26.822-11.906-3.727-1.184-4.226-11.673.145-11.356m42.425 2.996a1 1 0 0 1 .13.002c1.195.107 3.342 2.619 2.653 4.978.778 6.29-1.567 13.668-7.422 16.79l-.37-.08-.38-.353c1.908-4.938 8.604-11.32 5.217-18.374-.739-2.083-.457-2.919.172-2.963m5.766 2.194c4.68.176 4.643 11.658-.227 13.277l-.646-.14-.416-.418c2.789-3.739 2.207-8.73.822-12.7q.24-.028.467-.02" style="display:inline;fill:#000" transform="translate(-50.535 -86.014)"/><path d="M70.478 167.447c1.445-.126 3.25 1.186 2.137 3.278.036 2.625-3.465 2.264-3.311-.068-.855-2.145.05-3.112 1.174-3.21M110.445 137.856c-2.356-.076-6.082 7.203-3.292 9.796 3.432.903 4.426-4.416 4.9-6.822-.19-2.106-.823-2.949-1.608-2.974M86.875 136.7c1.05-.018 1.755.706.215 2.3-.517.276-2.12 4.801-1.945 1.19-1.542-2.212.38-3.465 1.73-3.49M72.99 135.462a1.3 1.3 0 0 0-.187.02c-2.231.379-5.702 6.172-3.554 9.084 2.531 2.897 5.011-3.547 5.185-5.469.133-2.665-.526-3.663-1.444-3.635M84.37 130.335c-.887 0-1.62.632-1.62 1.397 0 .502.424 1.074 1.115 1.501.224.138.537.38.695.539.287.287.29.287.516.06.176-.176.251-.482.334-1.351.15-1.599-.114-2.146-1.04-2.146" style="display:inline;fill:#000" transform="translate(-50.535 -86.014)"/><path d="M84.272 130.245c.8-.05 1.527.497 1.181 2.057.066.625-.148 2.72-1.189 1.263-2.87-1.49-1.328-3.235.008-3.32M94.355 129.979c-.496-.014-2.465 1.403-2.897 2.225-.143.271-.14.332.017.49.368.368.792.226 1.44-.483.7-.765 1.43-1.727 1.532-2.02.05-.145.011-.21-.092-.212" style="display:inline;fill:#000" transform="translate(-50.535 -86.014)"/><path d="M94.28 129.892c.485-.09.437.395-.985 2.006l-.569.597-.465.453c-2.705.12.95-2.859 2.018-3.056M88.824 129.888c-.203 0-.317.091-.583.373a2.1 2.1 0 0 0-.531 1.03c-.175.78-.11 2.52.105 2.778.243.293.47.236 1.314-.33 1.324-.888 1.732-1.833 1.219-2.82-.32-.614-.7-.912-1.281-1.006a1.5 1.5 0 0 0-.243-.025" style="display:inline;fill:#000" transform="translate(-50.535 -86.014)"/><path d="M88.848 129.835c1.436-.167 3.146 2.449.098 4.113-1.55 1.317-1.494-1.007-1.415-1.81.067-1.576.664-2.227 1.317-2.303M61.252 125.76c.431-.02.818.054 1.142.242-3.047 8.28-5.457 16.832-5.734 25.708l-.356 1.124c-5.411-4.285-7.315-12.315-4.423-18.59 1.164-3.497 6.356-8.337 9.371-8.484" style="display:inline;fill:#000" transform="translate(-50.535 -86.014)"/><path d="M570.514 560.049c-4.879-7.544-12.35-16.628-24.663-29.986-5.818-6.312-10.579-11.927-10.579-12.477s5.201-6.291 11.558-12.759c13.085-13.312 16.28-18.43 16.184-25.933-.13-10.113-8.428-22.905-18.009-27.76-6.575-3.332-13.746-4.313-38.282-5.235-12.714-.477-24.073-1.232-25.242-1.676-2.2-.837-7.31-6.994-18.064-21.764-8.955-12.3-16.582-18.09-25.719-19.527-5.587-.878-14.537 2.555-32.362 12.412-24.47 13.532-26.194 13.848-40.13 7.34-12.415-5.796-17.491-7.14-26.867-7.108-12.696.044-14.894 1.162-31.313 15.938-23.012 20.71-37.686 28.815-52.134 28.797-7.214-.009-11.996-2.08-18.47-7.997-5.05-4.615-9.544-12.902-11.117-20.502-1.289-6.226-1.118-18.847.338-25.024 2.056-8.72 10.997-26.077 12.845-24.935.384.238.947 3.105 1.25 6.372.643 6.918 1.718 9.288 6.1 13.45 4.537 4.309 8.226 5.928 14.536 6.38 12.37.884 26.97-5.136 37.117-15.307 19.495-19.54 28.001-27.025 34.195-30.086 6.147-3.038 6.394-3.086 14.038-2.693 6.278.322 8.75.858 12.796 2.773 9.242 4.377 18.282 3.517 27.578-2.621 2.298-1.518 9.444-7.704 15.879-13.746 19.067-17.905 24.164-20.866 35.916-20.866 11.829 0 23.756 5.493 36.109 16.63 16.262 14.661 19.399 16.535 39.96 23.878 18.898 6.75 26.103 10.375 32.485 16.344 6.48 6.061 8.71 10.388 17.652 34.24 3.532 9.423 10.52 25.594 15.529 35.936 11.486 23.717 11.919 25.436 11.908 47.218-.01 21.887-2.234 32.031-12.173 55.545-4.732 11.194-4.694 11.174-8.849 4.749z" style="fill:#000;fill-opacity:1;stroke:#000;stroke-width:.83571" transform="matrix(.26458 0 0 .26458 -50.535 -86.014)"/></svg>