<svg xmlns="http://www.w3.org/2000/svg" xml:space="preserve" width="88.511" height="204.388" viewBox="0 0 23.418 54.078"><path fill-rule="evenodd" d="m7.792.004.276.129q.212.19.219.52l.878 2.964q.727 1.825 1.815 3.535l.99 1.297q.597.656.709 1.575.153 1.012.002 2.46-.225 2.753-.184 3.558l.54 3.785.671 2.799.666 2.622q1.24-.016 1.913.778-1.368.876-2.5 2.369l-.883 1.322.058.04.382-.422q.553-.604 1.398-1.134.14-.075.235.035.495.648.735 1.722l.22 3.259q.018.25.236.338.787.293 1.117.869.109.183 0 .43l-1.03 2.643q-.824 2.377-1.416 5.348l-.079.42.175.704q.908 1.26 2.55 2.95l2.886 2.56 2.467 2.05q.236.187.297.532.543 1.502.046 1.843-.225.166-.529.17-.192.059-1.517-.697l-2.637-2.579q-1.509-1.51-3.735-4.211l-2.355-2.857-.15-.126q-2.189-.907-4.615-3.016-2.713-2.439-4.353-5.7-1.503-3.058-1.646-6.026l.126-2.305-.108-1.477-.846-2.641-.569-2.792.958.11-.008-.049-.796-.341-.401-.26.016-.484.387-2.554q.18-1.706.777-3.359l2.23-5.618q.254-.577.593-2.108l.492-1.812.439-.965.08-.116.69-.983Q6.74-.064 7.792.004M5.139 22.36l-.205-.877-.05.009-.03.259.28 2.589 1.208 4.986 1.614 4.84.928 2.524q.706 1.702 2.374 4.401l1.401 1.909 1.467 1.846q.586.734 1.193 1.439l1.55 1.883 4.484 4.434.97.894q.128.155.221-.039l.019-.18-.03-1.035q.013-.358-.335-.6l-1.704-1.324-1.615-1.389-2.69-2.595q-1.476-1.616-3.009-3.832l-1.092-1.735-2.115-3.939-1.32-2.735q-.948-2.217-1.93-5.772zm8.33 5.81q.864-1.142 1.902-2.162l.04-.057q-.52-.365-1.547-.286l-1.113-4.445-.65.343q-1.479.819-2.797 2.116-1.087 1.029-1.552 1.847l-.17.334-.053-.016.27-.631q.618-1.098 1.693-2.049 1.25-1.108 2.173-1.626l1.042-.564-.047-.27q-3.608 1.117-5.614 4.413-.007-.328.216-.646l.718-.964q1.417-1.746 3.347-2.594l1.265-.451-.407-2.16-.263-2.212-1.515.47q-2.023.61-3.215 1.76-1.348 1.277-1.82 2.476-.078.14-.043.338l.574 2.967.298 1.115 2.43 7.739q.768 2.198 1.827 3.888.85 1.372 1.721 3.146.792 1.61 1.628 2.757l.366.493.177-.868q.437-2.41 1.206-4.525l1.19-3.025-.022-.275q-.17-.249-.57-.356-.19-.068-.233.117l-1.148 2.84-.902 2.797-.126.58-.05.01-.028-.452.214-1.23 1.403-4.56.135-.53-.013-2.23-.046-.55-.05.008q-2.07 3.359-2.368 7.57l-.08-.163-.046-.55q.147-1.902.982-4.358.54-1.54 1.36-2.649.226-.294.07-.748l-.085.091q-1.02 1.118-1.847 3.192-.546 1.364-.938 3.31l-.09.498-.053-.016.09-.929.548-2.354q.71-2.306 2.055-3.736.358-.418.099-.88-.164-.351-.366-.493-1.329 1.097-2.294 2.383-.803 1.055-1.624 2.873l.045-.895q.342-1.227 1.158-2.64zm-9.15-8.735L.863 17.814q-.136-.052-.189.084l-.159.966q.026.148.133.18l.867.456 1.267.715.232.162-2.25-.39.01.202.165.934.93 2.83.418 2.944-.106 1.414.334 2.325.406.005q1.91.043 3.116 1.124l.253.285q-1.493-1.131-3.736-1.192l.228.72.174.122q1.379-.091 2.5.37l1.114.565.25.26-.046.034q-.777-.523-1.839-.792-1.004-.229-2.01-.178l.01.049q.67 1.936 1.723 3.881l.194.093q1.277-.098 2.956.797l.24.212q-1.983-.893-3.21-.804l.496.8q2.596 3.5 5.73 5.458l.868.456.016-.054-.034-.044-2.398-3.966q-.981-1.678-1.87-4.413l-1.398-4.192-1.497-5.9-.15-1.572-.115-3.1q.007-.102-.167-.223m7.54-3.562.073-.013.046-2.19-.025.005q-1.823.448-3.338 1.35-1.76 1.096-2.873 2.84-.539.83-.459 1.425l-.028.994.065-.062q.795-1.535 2.403-2.63 1.31-.916 3.169-1.447zm-3.357-1.057.298-.18q1.385-.776 3.085-1.203l.16-.104.143-2.206q.06-1.533-.75-2.531l-1.79-2.526q-.762.287-1.393.88l-.62.794q-.506.876-.85 2.23-.99 4.31-1.363 7.52l-.05.44.305-.434q1.065-1.583 2.825-2.68m-3.889 1.827-3.31-2.231-.072.165L1 15.862l.112.208 1.268.715L4.47 17.99l.243.084.178-.717.03-.41zM8.035 3.106l.105-.12q.11-.095.064-.214L7.776.92Q7.653.51 7.293.624l-.401.173-.714.557q-.716.684-.94 1.281-.498 1.204-.794 2.981-.205 1.28-.708 2.459L2.478 11.01l-1.085 2.906.088.213 3.564 2.516.72-3.678q.31-1.55.157-3.426L5.92 7.943q.06-1.1.598-1.931l.108-.248q.404-1.593 1.409-2.658m.063 3.667q.655-.598 1.461-.917-.914-1.59-1.236-2.7l-.135.1-.065.063q-.756.894-1.278 2.533l-.018.333.19 1.362-.03.842q.41-.985 1.11-1.616m-1.532-.06-.049.009q-.27.63-.258 1.415l.133 1.473.226-1.308.016-1.347zM1.916 16.74l-.97-.463-.104 1.135.096.11L4.506 19.2l.112-.806-.058-.04-2.156-1.295z"/></svg>