<?xml version="1.0" encoding="UTF-8" standalone="no"?>
<!-- Created with Inkscape (http://www.inkscape.org/) -->

<svg
   width="23.418484mm"
   height="54.077629mm"
   viewBox="0 0 23.418484 54.077629"
   version="1.1"
   id="svg1"
   xml:space="preserve"
   xmlns="http://www.w3.org/2000/svg"
   xmlns:svg="http://www.w3.org/2000/svg"><defs
     id="defs1" /><g
     id="layer1"
     transform="translate(-90.115076,-106.21665)"><g
       transform="matrix(0.08675203,0.49199523,-0.49199523,0.08675203,103.97445,105.0998)"
       id="g3"><path
         d="m 0.1,12.35 0.35,-0.5 Q 0.9,11.5 1.55,11.6 L 7.7,10.9 q 3.85,-0.8 7.6,-2.35 l 2.9,-1.5 q 1.5,-0.95 3.35,-0.85 2.05,0.05 4.85,0.85 5.35,1.4 6.95,1.6 L 41,8.9 l 5.75,-0.35 5.4,-0.4 q 0.4,-2.45 2.2,-3.5 1.25,3 3.8,5.75 l 2.3,2.2 0.1,-0.1 -0.7,-0.9 Q 58.85,10.3 58.1,8.45 58,8.15 58.25,8 59.7,7.25 61.9,7.15 l 6.5,0.7 Q 68.9,7.9 69.15,7.5 70,6.05 71.25,5.6 71.65,5.45 72.1,5.75 l 4.85,2.95 q 4.4,2.45 10.05,4.65 l 0.8,0.3 1.45,-0.1 q 2.8,-1.35 6.7,-4 L 102,4.75 106.9,0.6 q 0.45,-0.4 1.15,-0.4 3.15,-0.55 3.65,0.55 0.25,0.5 0.15,1.1 0.05,0.4 -1.9,2.75 l -6,4.3 q -3.5,2.45 -9.6,5.9 l -6.45,3.65 -0.3,0.25 q -2.55,4 -7.55,8.05 -5.75,4.5 -12.75,6.6 -6.55,1.9 -12.45,1.15 l -4.5,-1.05 -2.95,-0.3 -5.5,0.75 -5.7,0.15 0.55,-1.85 h -0.1 l -0.95,1.45 -0.65,0.7 -0.95,-0.2 -4.9,-1.65 Q 25.9,31.55 22.85,29.8 L 12.55,23.45 Q 11.5,22.75 8.6,21.55 l -3.4,-1.6 -1.75,-1.2 -0.2,-0.2 -1.7,-1.7 Q -0.4,14.4 0.1,12.35 m 43.15,13 -1.8,0.1 v 0.1 l 0.5,0.15 5.2,0.35 10.25,-0.65 10.1,-1.5 5.3,-0.95 q 3.6,-0.8 9.5,-3.15 l 4.25,-2.1 4.15,-2.25 q 1.65,-0.9 3.25,-1.85 l 4.25,-2.4 10.3,-7.3 2.1,-1.6 q 0.35,-0.2 0,-0.45 l -0.35,-0.1 -2.05,-0.3 Q 107.5,1.3 106.9,1.9 l -3.2,2.9 -3.3,2.7 -6.05,4.4 q -3.7,2.35 -8.6,4.6 l -3.8,1.55 -8.5,2.8 -5.85,1.65 q -4.7,1.1 -12.05,1.8 l -12.3,1.05 M 57.6,10.95 Q 55.65,8.85 54,6.45 L 53.9,6.35 Q 53,7.25 52.8,9.3 l -9.15,0.65 0.45,1.4 q 1.1,3.2 3.2,6.25 1.65,2.5 3.1,3.7 L 51,21.75 50.95,21.85 49.8,21.1 Q 47.85,19.5 46.35,17.05 44.6,14.2 43.9,12.2 L 43.15,9.95 H 42.6 q 0.95,7.5 6.75,12.6 -0.65,-0.1 -1.2,-0.65 L 46.5,20.15 q -2.95,-3.4 -3.95,-7.5 L 42.1,10 37.7,10.05 33.25,9.8 l 0.4,3.15 q 0.5,4.2 2.35,6.95 2.05,3.1 4.25,4.45 0.25,0.2 0.65,0.2 l 6.05,-0.1 2.3,-0.2 16.1,-2.1 q 4.6,-0.75 8.3,-2.25 3,-1.2 6.8,-2.3 3.45,-1 6,-2.25 L 87.55,14.8 85.9,14.15 Q 81.3,12.45 77.4,10.2 L 71.85,6.8 71.3,6.75 q -0.55,0.25 -0.9,1 -0.2,0.35 0.15,0.5 l 5.2,3.25 5.2,2.75 1.1,0.45 v 0.1 L 81.15,14.7 78.8,13.85 70.3,9.5 69.3,9.05 64.9,8.3 63.8,8.2 v 0.1 q 5.9,5.25 14.1,7.3 l -0.35,0.1 -1.1,-0.1 Q 72.75,14.65 68.2,12.15 65.35,10.55 63.45,8.55 62.95,8 62,8.15 l 0.15,0.2 q 1.85,2.4 5.65,4.75 2.5,1.55 6.2,3 l 0.95,0.35 -0.05,0.1 -1.8,-0.5 -4.45,-1.9 Q 64.35,11.95 62,8.8 61.3,7.95 60.3,8.3 q -0.75,0.2 -1.1,0.55 1.7,3 3.9,5.35 1.8,1.95 5.1,4.2 L 66.45,18 q -2.3,-1.1 -4.8,-3.2 L 57.6,10.95 m -20.4,15 -4.4,6.25 q -0.15,0.25 0.1,0.4 l 1.85,0.65 q 0.3,0 0.4,-0.2 l 1.2,-1.55 1.85,-2.25 0.4,-0.4 -1.55,4.3 0.4,0.05 h 1.9 l 5.9,-0.85 5.95,0.2 2.75,0.7 4.7,0.15 0.15,-0.8 q 0.75,-3.75 3.3,-5.75 l 0.65,-0.4 Q 60,29 59.1,33.4 l 1.5,-0.2 0.3,-0.3 q 0.3,-2.75 1.6,-4.8 l 1.5,-2 0.6,-0.4 0.05,0.1 q -1.3,1.35 -2.2,3.35 -0.8,1.9 -1.05,3.9 h 0.1 Q 65.55,32.4 69.75,31 L 70,30.65 q 0.25,-2.55 2.6,-5.55 l 0.5,-0.4 q -2.45,3.6 -2.7,6.05 l 1.75,-0.7 q 7.8,-3.9 12.75,-9.4 L 86.1,19.1 86,19.05 85.9,19.1 77.25,22.45 Q 73.6,23.8 67.9,24.6 L 59.15,25.9 47,26.8 43.85,26.55 37.7,25.7 q -0.2,-0.05 -0.5,0.25 M 32.8,9.85 V 9.7 L 28.5,8.85 V 8.9 q 0.25,3.75 1.5,7.05 1.55,3.85 4.6,6.65 1.45,1.35 2.65,1.4 l 1.95,0.4 -0.1,-0.15 Q 36.35,22.15 34.75,18.6 33.4,15.7 33,11.85 l -0.2,-2 M 29.55,16.1 29.3,15.45 q -1.05,-3 -1.3,-6.5 L 27.85,8.6 23.55,7.55 q -3,-0.65 -5.25,0.6 l -5.6,2.65 q 0.3,1.6 1.25,3.05 l 1.35,1.5 q 1.55,1.3 4.1,2.45 8.15,3.45 14.35,5.3 l 0.85,0.25 -0.75,-0.75 q -2.75,-2.65 -4.3,-6.5 m 2.25,8.3 -5.55,5.75 0.3,0.2 2.45,0.9 0.45,-0.15 1.85,-2.25 3.1,-3.7 0.25,-0.45 -1.35,-0.6 -0.8,-0.2 -0.7,0.5 M 6.3,12.95 6.1,12.7 Q 5.95,12.45 5.7,12.5 L 1.9,12.7 Q 1.05,12.8 1.15,13.55 L 1.35,14.4 2.2,16 q 1.1,1.65 2.2,2.3 2.2,1.4 5.6,2.6 2.45,0.85 4.6,2.25 l 5.35,3.5 5.35,3.15 0.45,-0.1 6.2,-6.15 -7,-2.7 Q 22,19.7 18.25,19.35 L 15.1,18.8 q -2.15,-0.5 -3.6,-1.85 l -0.45,-0.3 q -3,-1.35 -4.75,-3.7 m 7.25,1.15 Q 12.6,12.6 12.25,10.9 8.8,12.15 6.5,12.4 l 0.15,0.3 0.1,0.15 q 1.5,1.8 4.55,3.4 l 0.65,0.15 2.75,0.1 1.65,0.35 q -1.8,-1.15 -2.8,-2.75 m -0.65,3 v 0.1 q 1.15,0.75 2.7,1 l 2.95,0.25 -2.5,-0.9 -2.65,-0.5 -0.5,0.05 M 31.05,29.75 29.8,31.5 32,32.1 32.25,31.95 36.8,25.5 35.25,25 l -0.1,0.1 -3.3,3.8 -0.8,0.85"
         fill="#000000"
         fill-rule="evenodd"
         stroke="none"
         id="path1" /></g></g></svg>
