<svg xmlns="http://www.w3.org/2000/svg" xmlns:ffdec="https://www.free-decompiler.com/flash" ffdec:objectType="shape" width="86.55" height="92.9"><path d="M63.75 10.5q1.45-2.3 2.8-3.5 1.4-1.4 1.3-2.55l-.85-3-.55.55-3.3 5.2-.3.6Q61 8.85 57.8 11.65l-2.35 1.4-2 .6q-1.3.5-1.75 1.1l-.3 3.45 8.2 1.05.55-1.4v-.1l1.05-2.5.05-.1.05.05q1.25-2.75 2.45-4.7m-8.4 68.3-1.45 1.5q-1.7 1.4-2.8 1.45-.15 1.5-.65 1.8L47 86.4q-.45.35-1.9 2.8-1.7 2.4-3.75 2.95l-11.7.4q-4.75-.6-7.7-1.7l-1.75-.75-2.15-1.45q-2.65-1.9-5.75-5.1-5.7-5.95-8.7-12.7L2.5 68.1l-.55-1.65Q-.65 58 .25 48.9q.8-7.9 4.05-14.55Q8.2 26.2 15.6 19.8q7.35-6.4 16.05-9.2 0-2.6 1.25-4.95l.15-.2.1-.1q2.4 1.7 4.55 3.8l2.25-.25q1.25-2.6 2.9-5.25l.85-1.25 1.4-.3 2.8-.55q2.45.2 2.25 2.8-.05 2.1-.85 5.1l3.4.95.35-.4.05-.05.2-.3 7.25-4.35Q64.5 2.7 67.3 0l.1.25 1.3 3.15q.55 1.8-.3 3.1l-2.3 2.45-2.3 2.55-1.15 2.05 2.95 1.05q1.05.35 1.1 1.1.1.65-.4 1.6l-.9 1.8q1.95 2.15 3.35 4.8 3.15-2.3 8.65-1.9l9 1.45q.25.05.05.6l-.3.7q-1.4 1.7-4.35 3.35l-4.95 2.5-4.9 3.15q.45 2.85.3 6.55l.15-.1q5.2 1.55 10.25 1.8.2 0 .05.6l-.3.7-2.55 2.5L77.1 48l-2.9.25-2.9-.55q-.9 4-2.65 8.1 2.3-.6 3.5.4 1.25 1.15 1.15 3.6-.15 1.75-.9 3.8-1.55 3.8-5.35 5.5-3.85 1.75-6.95-.25-1.05 1.65-3.2 7.15zm-2.3-67.85-.15.25q-.95 1-1.4 2.85.85-1.2 2.7-1.85 3-1.15 4.9-2.75l3.8-2.9.2-.3L65.2 3q-3.75 3.15-12.15 7.95m12.45 6.8.45-.9.05-.45-.35-.3-3.5-1.25-.05-.15-.45.8 3 2.75.4.45zm2.9 7.55-.05-.05-.6.55-.9 1.55.25 4.45 2.5-1.9 8-6.3.05-.2q-6.05-.45-9.25 1.9m-1.2.25q-1.7-2.9-3.9-4.95l-2.75-2.45-.65 1.5-.25.4q-.2.6-.45.6l-8.35-1.1-.05-.4.25-2.55-.15-.2q-.2-1.55.3-3.2l-5.45-1.25-4.45-.35-8.2.95q-7.65 1.95-14.45 6.85Q12.1 24.2 7.6 30.9L1.8 44.85l-.2.95-.15 1.2-.3 3.45-.05.6.35 6.45q.4 3.2 1.3 6.2l.85 2.45 1.15 2.7.6 1.05.9 1.65 3.15 4.9q3.2 4.2 7.25 7.45l3.8 2.65 2.9 1.7.55.25.2.1 5.2 1.8 3 .45 4.95-.35 2.75-.75q.45-.2.2 1.1 4.1-4.65 8.85-8.5Q42.7 86 41.6 81.5q-.25-.7.3-1.8.5-1.05.75-.4.95 3.8 6.65.55.4-1.25.8-1.15l.75.2.1-.15v.05l.15-.05.15.2q2.75.1 4.9-3.8l3.05-6.9-1.65-2.05q-.2-.45.25-1.65.5-1.2.7-.9 1.8 3.1 5.35 3.55 3.5.45 6.15-2.1 2.15-2 1.9-4.7-.25-2.85-3.55-1.85-1.65.5-3.95 1.65l-3.7 2.15q-.3.2-.15-1.1.15-1.2.65-1.5l2.75-1.65q2.15-1.3 3.65-1.9 0-.5.2-.7 3.3-7.5 3.3-14.75l-.5-6-.05-.3q-2.5 1.1-3.7.55-3.6-1.65.35-9.45m-40.7 7.7q-1.5 1.95-1.95 4.4-.15.5-.4.65-.3.25-.1-.4.6-3.45 2.65-6l.7-.85q2.7-2.95 6.55-3.85.25-.15.15.6-.15.65-.4.75-3.4.8-5.9 3.25zm49.35-3.3 4.7-2.4q3-1.55 4.6-2.95l-6.45-1.1-.25.55-11.25 8.9.05.65 1.5.05 1.55-.55q1.15-.45 2.8-1.45zM49.6 5.2q-.1-2-1.5-2.25l-2.9.4q-1.2.3-1.9.9l-1.2 1.7-1.65 3q1.1.55 1.75.6l2.75.4 2.7.85q.6.15.95-.25 1.15-3.6 1-5.35m10.35 38.7.5-.15 2.25.15q2.05.05 2.75-1.7.4-1 .4-2-.15-1.25-.95-1.65l-1.45-.3-1.55-.05-3.05-.35q-.2.35 0 1.2l.2 1.1.4 2.6.1.65zm-.8 1.4-.95-5.4q-.4-4.35 1.9-3.85l.05.55 2.75.3 1.6.1 1.45.4q.9.8.3 4-.35 2.3-1.65 3.35-.85.6-2.6.55l-2.7.1zM41.8 49.8l-3.5-.15q-1.65-.55-2.8-1.9l.25.85v.6q-.1.85.9 1.55.75.55 1.7.8.45.1.05 1.5-.35 1.4-.75 1.3-1.5-.45-2.3-1.2-.7-.8-.7-2.35-1.35-4.35-.95-8.4.2-1.7.7-1.9l.25-.05q1.4-2.75 4.45-3.4 2.65-.55 4.9.9t2.85 4.1q.55 2.7-.9 4.95-1.55 2.25-4.15 2.8m-4.55-5.85q0 1.7 1.25 2.85 1.15 1.25 2.85 1.25t2.95-1.25q1.2-1.15 1.2-2.85T44.3 41q-1.25-1.2-2.95-1.2T38.5 41q-1.25 1.25-1.25 2.95m40.35 2.5 3.7-3.25q-5-.35-9.1-1.6l-.7 4.75 3.15.55q1.95.15 2.95-.45M51.25 67.5l-4.55-.55-4.65-.55q-5.6.3-9.75 3.85l-1.1 1q-.25.15-.2-.45l.25-.85 1.05-.9q4.8-4 10.65-4.05l3.8.5 3.85.6q3.5.2 5.3-3.55.7-1.4 2.05-6.85.1-.6.35-.55.2.05.05.65-1.55 6.65-1.9 7.3-1.7 4.2-5.2 4.4M32.9 6.75q-.85 1.65-.7 3.5l-.1.15 4.05-.95zM13.1 40.3q0 1.7 1.2 2.85 1.2 1.25 2.9 1.25t2.95-1.25q1.2-1.15 1.2-2.85 0-1.75-1.2-2.95-1.25-1.25-2.95-1.25t-2.9 1.25q-1.2 1.2-1.2 2.95m6.5 5.05q-1.8 2.2-4.45 4.35-.75.6-.55-.45.2-1 1.25-1.8l.8-.75-.55.1q-2.65.25-4.6-1.65-1.95-1.85-2.1-4.8-.1-2.9 1.7-5.15 1.75-2.2 4.4-2.45 2.6-.25 4.55 1.7 1.9 1.9 2.05 4.8.15 3.55-2.35 5.85zM12.65 65.1q.15.25-.1.85l-.3.45q-.4-.8-.45-2v-1l-.05-1.05q-.1-1.7-.45-2.55-.4-1.4-1.5-2.1l-1.15-.45-1.2-.5q-1.9-1.4-2.2-4.9-.1-3.9-.35-5.5l.25-.85.3-.35q.2 1.05.25 3.15l.25 3.05Q6.3 53.6 7.2 54.8q.7.75 1.5.95 1.05.35 1.45.6 1.85 1.1 1.95 4.1l.2 2.95.05.3zm7.5-7.25q-.7 0-1.2-.55L18.4 56q-.1-1 .5-2.7l2.4-6.4-.3 1.35q.85 4.9-.85 9.6m2.25.85q-.85-4.65 1.05-9.1.35-.9.85-.95t1.05.5q1.7 1.85 2.35 4.35.75 2.55.15 4.95v-.65q-.85 2.3-1.5 2.9-.4.45-.95.6l-.5.15q-.9.2-1.55-.35-.55-.5-.75-1.75zm.35 6.35q.45.2 2.75 1.95v-.05l.2.2.55.4-.25-.1q1.65 1.75 2.65 4.35l.7 2.35q.4 1.55.3 3.15v.05q0 1.3-.3 1.85l-.35.35Q26.15 81 22.8 81q-5-.65-7.4-2.4-2-1.55-2.45-3.25-.4-1.5.35-3.55.1-3.25 1.95-5.5 2.15-2.55 5.3-2l.3.1q1 .15 1.9.65m-.15 5.5.3-2.15-.15-.1-.5 2.2zm.4-2V71h.05l1.25.15.5.2.3-2.15zm-1.6 9.55 1.9.15.15-.45.45-1.9-.3.05h-.85l-.55-.15h-.1zm5.9-.4.1-.2-.25-1.45-1.35.15-.45 1.95zm-2.75.55.35-2.05h-.75l-.4 2.05zm1.75-6.6-.95-1.2-.2.9zm-9.4-4.25-.2 1.45.6.2.5-1.85zm5.45.7q-.95-.55-2.05-.85h-.05l-.5 2.5 2.1.65zm-3.25-1-.4 2.35.65.15.4-2.45zm-3.85 1.3.95.25.2-1.1zm.9 7.4.55-2.2-.05-.05-.75-.6-.95 1.75zm-2-2.25.8-2.25v-.15l-.4-.45-.15.85-.5 1.05q-.15.25.25.95m3.1 3 .6.3.4-2.3-1.1-.7-.65 2.2zm3.75 1.5.6-2.3-.85-.15-.6 2.2zm-1.4-.45.6-2.2-1.1-.45-.5 2.3zm-.35 5.75q2.15 1.35 4.6 1.35 2.45-.05 4.6-1.45.1-.15.05.55l-.3.75q-2.05 1.5-4.65 1.55-2.5.05-4.65-1.35-.3-.2.35-1.4"/><path d="M63.75 10.5q-1.2 1.95-2.45 4.7l-.05-.05-.05.1-1.05 2.5v.1l-.55 1.4-8.2-1.05.3-3.45q.45-.6 1.75-1.1l2-.6 2.35-1.4q3.2-2.8 5.05-3.85l.3-.6 3.3-5.2.55-.55.85 3q.1 1.15-1.3 2.55-1.35 1.2-2.8 3.5m4.65 14.8q3.2-2.35 9.25-1.9l-.05.2-8 6.3-2.5 1.9-.25-4.45.9-1.55.6-.55zm-2.9-7.55-.45.95-.4-.45-3-2.75.45-.8.05.15 3.5 1.25.35.3-.05.45zm-12.45-6.8Q61.45 6.15 65.2 3l-2.1 3.25-.2.3-3.8 2.9q-1.9 1.6-4.9 2.75-1.85.65-2.7 1.85.45-1.85 1.4-2.85zM49.6 5.2q.15 1.75-1 5.35-.35.4-.95.25l-2.7-.85-2.75-.4q-.65-.05-1.75-.6l1.65-3 1.2-1.7q.7-.6 1.9-.9l2.9-.4q1.4.25 1.5 2.25m26.25 24.75-2.75 1.7q-1.65 1-2.8 1.45l-1.55.55-1.5-.05-.05-.65 11.25-8.9.25-.55 6.45 1.1q-1.6 1.4-4.6 2.95zM59.95 43.9l-.4-.5-.1-.65-.4-2.6-.2-1.1q-.2-.85 0-1.2l3.05.35 1.55.05 1.45.3q.8.4.95 1.65 0 1-.4 2-.7 1.75-2.75 1.7l-2.25-.15zm17.65 2.55q-1 .6-2.95.45l-3.15-.55.7-4.75q4.1 1.25 9.1 1.6zM32.9 6.75l3.25 2.7-4.05.95.1-.15q-.15-1.85.7-3.5"/><path d="m63.3 20.6 2.45 2.8q-.1.8-.55.8-3.4 2.3-9.85 3.55l-11.25 1.8Q30.65 32.1 28.5 41.3q-2.25-3-2-7.95v-.1l1.3-1.45q2.5-2.45 5.9-3.25.25-.1.4-.75.1-.75-.15-.6-3.85.9-6.55 3.85l-.7.85q.6-4.4.6-6.5-1.65.8-2.95 2.65l-1.95 3.5q-3.35-6.7 2.25-11.75 4.7-4.3 12.45-5.4-6.15 2-6.15 7.35 4.15-.8 7.6-3.8 1.95-1.7 5.45-6.2l1.75.2 5.45 1.25q-.5 1.65-.3 3.2l.15.2-.25 2.55.05.4 8.35 1.1q.25 0 .45-.6l.25-.4.65-1.5zM1.45 47q.4 3.3 2.3 7.05L7.7 60.9q1.15 1.7-.5-2.15-1.4-3.5.5-.3 1 1.45 1.6 4.95l.05.3.2 1.5q.6 4.75 1.75 6.65-1.1-1.7-3.65-3.45L3.6 65.55l-.15-.2-.55-1.65q-.95-3.1-1.45-6.2l-.35-6.45.05-.6zm21.9 41.25 6-1.5 1.6-.6q.75-.35 1.35-.7 2.55-1.85 2.45-5.1l-1.55.1q-.65.15-.9.65l-.1.6q-.15-1.85.1-3.3 1.05-5.95 8.45-7.7 11.6-1.25 15.9-3.7 0 4.1-3.05 6.95-1.85 1.65-6.75 4.1-1.2 0-2.45-2.45-3.3 0-4.75 4.55-1.65 5.35-3.8 6.45l3.05-.15q2.15-1.1 3.05-1.1l-3.7 3q-2.15 1.8-3.85 2.45h-2.1l-3-.4-5.2-1.8-.2-.1zm45.3-34.95-5.1 2.9q-3.1 1.7-4.45 3.45.85-1.65 1.05-3.05l.15-3.05q-3.1.8-5.2 3.35-1.2 1.55-3.35 5.2 0-1.95 1.25-4.7 1.2-2.75 1.2-3.85-2.3 4.7-7.65 7.35-3.05 1.55-9.45 3.65 1.1-3.85 7.75-10.5 6.25-6.25 6.9-11.5 0 2.95.95 5.2.95 2.5 2.75 3.35 3.1 1.55 6.55-1.35l5.65-6q.45 0-.9 1.75-1.15 1.4.9.7 2.1-.65 3.3-3.4-.35 5.35-2.3 10.5m-43.25 8-.95 1.5-.4.6-.25.3-1.05 1.35q-.9-.5-1.9-.65l.1-.7v-.3q.1-1.45.65-2.95l.8-1.75.2.65q.2 1.25.75 1.75.65.55 1.55.35z"/></svg>