<?xml version="1.0" encoding="UTF-8" standalone="no"?>
<!-- Created with Inkscape (http://www.inkscape.org/) -->

<svg
   width="60.169914mm"
   height="123.70163mm"
   viewBox="0 0 60.169914 123.70163"
   version="1.1"
   id="svg1"
   xml:space="preserve"
   xmlns="http://www.w3.org/2000/svg"
   xmlns:svg="http://www.w3.org/2000/svg"><defs
     id="defs1" /><g
     id="layer1"
     transform="translate(-74.915041,-86.632337)"><path
       style="fill:#000000"
       d="m 93.360631,210.22577 c 0.327422,-0.0631 0.863203,-0.0631 1.190625,0 0.327422,0.0631 0.05953,0.11466 -0.595312,0.11466 -0.654844,0 -0.922734,-0.0516 -0.595313,-0.11466 z m -6.4453,-0.74078 c -4.867508,-1.43986 -16.818477,-6.54984 -18.166314,-7.76753 -1.255436,-1.13421 -2.045155,-2.6202 -2.045155,-3.8483 0,-1.2584 1.520915,-5.37169 2.148839,-5.8115 0.32175,-0.22536 0.446228,-0.5196 0.33854,-0.80022 -0.09398,-0.24491 0.0081,-0.64692 0.227806,-0.89698 0.218962,-0.24925 0.599182,-1.16755 0.844932,-2.04067 0.245751,-0.87313 0.980867,-3.31391 1.633593,-5.42396 0.652725,-2.11005 1.536385,-4.96755 1.963688,-6.35 1.219849,-3.94656 2.292688,-7.30541 3.295873,-10.31875 1.453203,-4.36509 4.44174,-15.18346 5.956851,-21.56354 0.760267,-3.20146 1.496075,-6.03895 1.63513,-6.30554 0.187016,-0.35854 0.137246,-0.56922 -0.191208,-0.80939 -0.412866,-0.30189 -0.402961,-0.46288 0.141105,-2.29342 0.762122,-2.5642 1.316155,-3.60556 2.553785,-4.80008 1.721351,-1.6614 2.625787,-1.91499 6.860587,-1.92358 l 3.729315,-0.008 1.333227,-1.45873 c 1.479725,-1.61901 1.623235,-2.0087 4.286085,-11.63814 1.84424,-6.66921 3.1426,-11.20255 3.74675,-13.08211 0.27803,-0.865 0.50552,-2.01312 0.50552,-2.551378 0,-0.564946 0.14716,-1.035125 0.34813,-1.112244 0.19148,-0.07348 0.50912,-0.830356 0.70587,-1.681954 0.42832,-1.853904 0.62851,-2.153158 1.51206,-2.260258 0.72922,-0.08839 1.20402,-1.159851 2.43797,-5.501641 0.74763,-2.630616 0.9531,-2.816397 2.72448,-2.463372 2.26879,0.452155 8.43709,2.101925 9.83839,2.631369 2.01897,0.762819 2.02614,0.832914 0.54093,5.291034 -1.05522,3.167397 -1.42828,3.98228 -1.93785,4.232829 -0.80215,0.39441 -1.0796,0.837473 -1.08468,1.732195 -0.002,0.41718 -0.23102,0.87157 -0.55151,1.09606 -0.52532,0.36794 -1.60343,4.18986 -2.62449,9.30384 -0.17433,0.87313 -1.13931,5.08912 -2.14439,9.36888 -1.00508,4.27976 -1.82741,8.28207 -1.82741,8.89401 0,1.62013 0.71634,2.39543 2.58488,2.79761 2.14336,0.46132 3.19755,1.05029 4.63991,2.59229 2.35555,2.51828 2.76463,4.50216 1.67711,8.13338 -0.3427,1.14427 -1.70279,5.65237 -3.02243,10.01799 -1.31964,4.36563 -3.413,11.44985 -4.65191,15.74271 -1.23891,4.29287 -3.76415,12.9249 -5.61165,19.18229 -3.82192,12.94465 -4.61175,15.80442 -4.61175,16.698 0,0.34772 -0.10281,0.63221 -0.22846,0.63221 -0.423,0 0.23504,-2.58257 3.38628,-13.28984 1.72471,-5.86022 3.25424,-11.07167 3.39895,-11.58099 2.27056,-7.99138 7.07861,-24.37109 8.85381,-30.1625 0.73598,-2.40109 1.67735,-5.48213 2.09191,-6.84676 1.10675,-3.64305 0.96256,-5.11721 -0.73527,-7.51747 -1.25353,-1.77212 -2.53349,-2.60797 -4.92813,-3.21818 -3.68137,-0.93809 -3.80105,-1.59518 -1.80934,-9.93426 0.74726,-3.12869 1.89195,-8.06979 2.54376,-10.9802 1.91491,-8.55037 2.14288,-9.38415 2.73925,-10.01896 0.32064,-0.34131 0.56224,-0.94673 0.56224,-1.40893 0,-0.445743 0.1786,-0.958663 0.39688,-1.139821 0.71257,-0.591382 0.42189,-1.010952 -1.09308,-1.577777 -2.70505,-1.012089 -2.56359,-0.575154 -1.49584,-4.620258 0.51642,-1.956425 0.87321,-3.728439 0.79287,-3.937809 -0.0803,-0.209369 -0.60207,-0.463024 -1.15939,-0.563677 -0.55732,-0.100652 -1.76999,-0.413343 -2.69483,-0.694866 -0.92483,-0.281524 -2.07646,-0.511862 -2.55917,-0.511862 -0.98037,0 -0.93009,-0.09758 -1.97702,3.836458 -1.02223,3.841207 -1.00266,3.802035 -1.9926,3.98775 -0.49443,0.09275 -1.00629,0.305019 -1.13747,0.471698 -0.25418,0.32297 -0.56724,1.482983 -0.68094,2.523171 -0.038,0.347941 -0.26772,0.777815 -0.51041,0.955277 -0.2427,0.177461 -0.42268,0.607157 -0.39997,0.95488 0.0227,0.347726 -0.27491,1.674016 -0.66137,2.947326 -1.25874,4.14728 -1.97691,6.63602 -2.65318,9.19427 -0.55782,2.11018 -3.26537,11.66925 -3.77885,13.34132 -0.086,0.27997 -0.69552,1.08547 -1.354536,1.79002 -1.182314,1.26398 -1.359964,1.83019 -0.41323,1.31703 0.939726,-0.50935 1.917326,-1.78528 2.973326,-3.88066 l 1.06672,-2.11667 -0.16039,1.38907 c -0.13113,1.13568 -0.0872,1.38906 0.24094,1.38906 0.22073,0 0.53357,0.15933 0.69519,0.35407 0.16162,0.19474 0.97987,0.50565 1.81833,0.69091 0.83847,0.18526 1.64354,0.42623 1.78906,0.53549 0.14553,0.10925 0.59201,0.27686 0.99219,0.37246 0.54563,0.13034 0.72761,0.33409 0.72761,0.81462 0,0.35244 0.11906,0.71439 0.26458,0.80432 0.14552,0.0899 0.26458,0.70955 0.26458,1.37691 v 1.21338 l -1.79235,-0.15026 c -1.86433,-0.1563 -8.989965,-1.68751 -9.452438,-2.03121 -0.683806,-0.50819 -7.200146,-0.52923 -8.73125,-0.0282 -2.397055,0.78441 -4.009097,2.76275 -4.765164,5.84795 -0.512333,2.09062 -0.411193,2.66012 0.455934,2.56727 0.448613,-0.048 0.625255,0.0881 0.688756,0.53071 0.06892,0.48038 -0.04136,0.59532 -0.5712,0.59532 -0.566341,0 -0.682673,0.15458 -0.846237,1.12448 -0.559145,3.31561 -5.361352,20.69354 -8.316808,30.09635 -0.708963,2.25557 -1.523236,5.05354 -1.809494,6.21771 -0.514931,2.09413 -1.579299,5.66469 -3.413705,11.4517 -0.520452,1.64187 -1.137177,3.09488 -1.370607,3.22917 -0.388367,0.22341 -0.387074,0.31089 0.01523,1.03053 0.34449,0.61623 0.36578,0.81473 0.09839,0.91734 -0.187679,0.072 -0.475656,-0.003 -0.639949,-0.16777 -0.478113,-0.47811 -0.980853,0.24782 -1.733699,2.50338 -0.821918,2.46251 -0.840583,3.1544 -0.124978,4.63264 0.844125,1.74373 2.038606,2.5295 7.122785,4.68562 9.909604,4.20251 12.568904,5.12935 15.607623,5.43968 l 1.984375,0.20265 -1.5875,0.0229 c -0.965419,0.0139 -2.428365,-0.22581 -3.733321,-0.61183 z m 22.111779,-79.08244 c 0.15468,-0.40682 0.13458,-0.98303 -0.0559,-1.60378 -0.25161,-0.81984 -0.38865,-0.94593 -0.89105,-0.81983 -0.76491,0.19198 -1.95334,-0.25904 -1.95334,-0.74131 0,-0.23968 -0.42633,-0.43731 -1.19063,-0.55192 -0.65484,-0.0982 -1.19062,-0.2816 -1.19062,-0.40754 0,-0.12595 -0.35222,-0.40471 -0.78272,-0.61946 l -0.78271,-0.39047 -0.84563,1.31779 c -0.46509,0.72478 -1.1249,1.50078 -1.46624,1.72443 -0.341341,0.22366 -0.62062,0.50177 -0.62062,0.61804 0,0.16839 3.38637,1.03665 7.54062,1.93339 1.39253,0.30059 1.99712,0.17655 2.23888,-0.45934 z m -13.015907,79.55361 c 0.475549,-0.0589 1.189924,-0.0577 1.5875,0.003 0.397576,0.0604 0.0085,0.10855 -0.864634,0.10707 -0.873125,-10e-4 -1.198415,-0.0509 -0.722866,-0.10977 z m 2.464706,-0.16928 c 0.06063,-0.053 0.765087,-0.16423 1.565451,-0.24708 0.93942,-0.0972 1.22076,-0.0724 0.79375,0.0701 -0.65555,0.21874 -2.57118,0.36247 -2.359201,0.17701 z m -10.852181,-0.71109 c -2.47273,-0.6853 -5.328287,-1.78502 -12.188616,-4.69402 -4.495693,-1.90632 -5.616404,-2.49151 -6.548438,-3.41931 -1.290044,-1.28418 -1.652995,-2.5324 -0.382397,-1.31509 0.902475,0.86463 1.237745,0.91486 0.813349,0.12187 -0.687386,-1.28439 -0.735706,-2.34916 -0.188026,-4.14329 0.293799,-0.96245 0.636666,-1.85758 0.761925,-1.98918 0.133947,-0.14072 1.006792,0.10908 2.119288,0.60651 2.470991,1.10487 8.549111,3.36601 11.229506,4.17751 2.012987,0.60945 6.985197,2.31639 9.260417,3.17907 1.230357,0.4665 6.600503,0.33988 8.543884,-0.20145 1.347,-0.37522 1.4663,-0.60215 2.98088,-5.67029 0.56534,-1.89177 2.40409,-7.96396 4.08611,-13.49375 3.29606,-10.83605 8.70004,-29.18769 9.74796,-33.10355 0.355,-1.32654 0.56902,-2.53377 0.4756,-2.68274 -0.21176,-0.33767 -1.28044,-0.62551 -6.12298,-1.64917 -2.11005,-0.44603 -4.72942,-1.09702 -5.82083,-1.44662 -1.09141,-0.3496 -5.61516,-1.61483 -10.052775,-2.81161 -4.43762,-1.19678 -8.464323,-2.34139 -8.948228,-2.54358 -0.805327,-0.33648 -0.865045,-0.43947 -0.705242,-1.21621 0.272607,-1.32504 2.00291,-4.68882 2.616636,-5.08685 1.052372,-0.68252 4.016993,-1.01651 6.047036,-0.68126 1.019451,0.16836 1.900256,0.2594 1.957345,0.20231 0.05709,-0.0571 -0.308217,-0.41806 -0.811792,-0.80215 -0.821364,-0.62649 -1.144001,-0.69836 -3.135068,-0.69836 -2.812904,0 -4.328868,0.50724 -5.72238,1.91468 -1.057841,1.06842 -1.654383,2.40752 -2.005311,4.50147 -0.09145,0.5457 -0.287972,0.99219 -0.436705,0.99219 -0.291852,0 -0.294417,0.0134 0.548365,-2.86521 0.449749,-1.53617 0.803746,-2.17518 1.703368,-3.0748 1.595118,-1.59512 2.57515,-1.87118 6.509335,-1.83363 2.451989,0.0234 3.854685,0.17702 5.423958,0.59398 4.031188,1.07112 8.745498,1.93476 11.906248,2.18118 1.74625,0.13614 3.65125,0.29242 4.23333,0.34729 2.12118,0.19995 4.78747,0.97282 5.82084,1.68727 1.26282,0.87309 2.65455,2.85502 3.07391,4.3775 0.33209,1.20559 -6.5e-4,2.96001 -1.2624,6.65621 -0.76984,2.25519 -4.90216,15.91825 -5.92162,19.57916 -1.36114,4.88791 -6.99303,24.18471 -9.96142,34.13125 -0.77708,2.60387 -1.2343,4.69669 -1.32949,6.08542 -0.085,1.24042 -0.2983,2.2929 -0.51521,2.54238 -0.20357,0.23414 -1.11101,0.6126 -2.01654,0.84102 -0.90552,0.22842 -2.18218,0.55156 -2.83702,0.7181 -0.654847,0.16653 -3.393284,0.35408 -6.085419,0.41678 -4.349278,0.10129 -5.113964,0.0533 -6.861383,-0.43103 z m 25.646802,-73.47827 c 0,-0.18035 -1.77895,-0.93094 -3.35933,-1.41739 -0.75514,-0.23244 -1.67154,0.38778 -1.23208,0.83388 0.47176,0.47888 4.59141,1.00244 4.59141,0.58351 z m -10.05417,73.20945 c 2.28709,-0.6739 3.00334,-1.23777 3.2036,-2.52205 l 0.16089,-1.0318 0.0375,0.98148 c 0.0285,0.74569 -0.12708,1.13413 -0.64771,1.61688 -0.61779,0.57285 -3.29936,1.53321 -4.1394,1.48246 -0.1841,-0.0111 0.43918,-0.24826 1.38507,-0.52697 z m -9.921874,-7.62914 c -0.488121,-0.10838 -0.770396,-0.32555 -0.733097,-0.56401 0.03336,-0.21328 0.898325,-3.60247 1.922146,-7.53153 1.023821,-3.92906 2.867946,-11.07281 4.098055,-15.875 2.04546,-7.98522 3.61293,-13.98981 6.07799,-23.28333 0.50178,-1.89177 1.22616,-4.77904 1.60972,-6.41615 0.62264,-2.65751 0.75872,-2.97686 1.26962,-2.97936 0.81468,-0.004 9.7914,1.87469 10.03596,2.10036 0.21628,0.19957 -2.7873,10.88263 -6.73753,23.9639 -1.31832,4.36562 -3.20004,10.6164 -4.18161,13.89062 -3.64276,12.15111 -4.74736,15.6705 -5.0224,16.0019 -0.57409,0.69174 -6.227747,1.16131 -8.338854,0.6926 z m -14.38883,-15.69244 c -0.298905,-0.80802 -0.06239,-1.53123 0.500757,-1.53123 0.612723,0 0.84016,0.63053 0.525741,1.45751 -0.31022,0.81594 -0.740501,0.84684 -1.026498,0.0737 z M 92.633027,183.425 c -0.571474,-0.57148 -0.686232,-1.19462 -0.267645,-1.45332 0.324312,-0.20043 2.11971,1.1986 2.119721,1.65176 1.2e-5,0.52146 -1.268042,0.38559 -1.852076,-0.19844 z m -2.25885,-0.59183 c -0.08774,-0.22865 0.144264,-1.1751 0.515568,-2.10321 0.371305,-0.92812 0.753601,-2.1004 0.849546,-2.60508 0.09595,-0.50467 0.291334,-1.06642 0.434197,-1.24832 0.358878,-0.45694 1.647468,-0.41531 2.047039,0.0661 0.274107,0.33028 0.240582,0.39687 -0.199789,0.39687 -0.291042,0 -0.680283,0.18209 -0.864981,0.40463 -0.277874,0.33482 -0.237814,0.50895 0.232186,1.00924 0.752975,0.80151 0.720973,0.91885 -0.277297,1.01676 -0.747141,0.0733 -0.909915,0.24415 -1.401747,1.47143 -0.672987,1.67932 -1.103873,2.19311 -1.334722,1.59153 z m -3.178938,-2.1863 c 0.0982,-0.65484 0.09319,-1.19062 -0.01113,-1.19062 -0.104321,0 -0.598699,0.31198 -1.098617,0.69328 -0.822276,0.62718 -0.972536,0.65925 -1.575891,0.33635 -1.200529,-0.64251 -1.204154,-1.26817 -0.02422,-4.18077 0.994518,-2.45492 1.533067,-3.25688 1.533067,-2.2829 0,0.21274 -0.296136,1.31407 -0.65808,2.4474 -0.627275,1.96413 -0.849972,3.51581 -0.504593,3.51581 0.08813,0 0.513988,-0.29766 0.946342,-0.66146 0.432354,-0.36381 0.996242,-0.66146 1.253085,-0.66146 0.312883,0 0.568117,-0.33755 0.773449,-1.02289 0.168555,-0.56258 0.306464,-1.09836 0.306464,-1.19062 0,-0.39565 -0.602347,-0.11344 -1.194955,0.55986 -0.5825,0.66182 -0.641162,0.6791 -0.648767,0.19117 -0.01789,-1.14761 1.414407,-2.41361 2.382883,-2.10622 0.64472,0.20462 0.667576,1.00242 0.108244,3.77829 -0.57706,2.86385 -0.618994,2.96541 -1.224443,2.96541 -0.491697,0 -0.524994,-0.10927 -0.362834,-1.19063 z m 1.896438,0.33073 c 0.109162,-0.32742 0.446651,-1.72517 0.749975,-3.1061 0.416875,-1.8979 0.663415,-2.53235 1.009978,-2.59909 0.348172,-0.067 0.458481,0.0928 0.458481,0.66444 0,1.04678 -0.888659,4.14708 -1.422038,4.96111 -0.554314,0.84599 -1.069057,0.89747 -0.796396,0.0796 z m -8.453094,-1.43316 c -0.375764,-0.37576 -0.149868,-2.21956 0.382475,-3.12181 0.307374,-0.52096 0.705654,-1.44436 0.885066,-2.05199 0.312347,-1.05785 0.936162,-1.69319 0.938382,-0.95571 5.85e-4,0.19403 -0.314272,1.32341 -0.699681,2.50975 -0.770628,2.37208 -0.710767,3.0024 0.285137,3.0024 0.479261,0 0.619509,0.10932 0.509163,0.39688 -0.154897,0.40365 -1.945736,0.57529 -2.300542,0.22048 z m -3.549826,-1.05192 c -0.472942,-0.19839 -0.859896,-0.44127 -0.859896,-0.53973 0,-0.36475 1.123523,-3.69727 1.65626,-4.91269 0.58972,-1.34542 1.015943,-1.52647 1.989036,-0.84489 0.681273,0.47718 0.750921,1.12372 0.199577,1.85266 -0.218321,0.28864 -0.392146,1.09619 -0.396875,1.84378 -0.01368,2.16299 -1.079235,3.2338 -2.588102,2.60087 z m 1.400832,-1.73569 c 0.196684,-0.8955 -0.172509,-1.4867 -0.593135,-0.94982 -0.416258,0.53131 -0.885056,2.09413 -0.712115,2.37395 0.245857,0.3978 1.112854,-0.54816 1.30525,-1.42413 z m 0.904963,-2.57485 c 0.40059,-0.74851 0.342368,-1.86948 -0.0971,-1.86948 -0.204046,0 -0.489524,0.32742 -0.634396,0.7276 -0.144873,0.40019 -0.347852,0.93597 -0.451066,1.19063 -0.270102,0.66643 0.823947,0.62132 1.182561,-0.0487 z m 16.774114,-1.65868 c -0.124665,-1.35287 -0.193304,-2.81695 -0.152533,-3.25351 0.269958,-2.89062 1.366462,-3.87684 1.397301,-1.25677 0.01519,1.29017 0.06154,1.43089 0.305016,0.92604 0.541683,-1.12317 0.802503,-0.64617 0.613206,1.12146 -0.196633,1.83613 -1.159535,4.6636 -1.643094,4.82479 -0.190476,0.0635 -0.372664,-0.76423 -0.519896,-2.36201 z m -3.344008,1.03905 c -0.07598,-0.198 -0.0363,-0.88765 0.08817,-1.53253 0.315212,-1.63307 0.301382,-1.83399 -0.126246,-1.83399 -0.216263,0 -0.563921,0.56695 -0.819488,1.33639 -0.734552,2.21153 -1.367584,1.18881 -0.82718,-1.33639 l 0.198177,-0.92604 -1.006178,1.12858 c -1.452704,1.62942 -2.509823,1.47351 -2.889763,-0.42619 -0.197356,-0.98678 -0.329435,-1.01494 -1.274352,-0.27167 l -0.715759,0.56302 -0.764378,-0.89374 c -0.420408,-0.49156 -0.769217,-1.03004 -0.775131,-1.19661 -0.0059,-0.16657 0.238387,-1.10948 0.542891,-2.09535 0.862848,-2.79358 2.607553,-4.09204 3.770973,-2.80648 0.523027,0.57794 0.568108,2.03708 0.09132,2.95573 -0.551988,1.06354 -0.728116,1.62883 -0.454882,1.45997 0.137955,-0.0853 0.625159,-0.85734 1.082677,-1.71573 0.965916,-1.81225 1.421454,-2.07847 2.351505,-1.37425 0.614252,0.46511 0.670789,0.66903 0.632428,2.28109 -0.02317,0.97368 0.013,1.7152 0.08038,1.64782 0.06738,-0.0674 0.342286,-0.70149 0.610905,-1.40914 0.550459,-1.45013 1.131123,-1.67116 1.33272,-0.50729 l 0.134993,0.77934 0.324954,-0.71319 c 0.343056,-0.75293 0.750252,-0.92655 0.927306,-0.39539 0.187904,0.56371 -0.295906,2.93101 -1.067362,5.22264 -0.732024,2.1745 -1.16715,2.79306 -1.44868,2.0594 z m -2.553705,-5.46668 c 0.307655,-0.64577 0.616804,-1.59827 0.686999,-2.11667 l 0.127628,-0.94254 -0.615339,0.7084 c -1.603328,1.84582 -2.476429,3.9569 -1.882238,4.55109 0.243094,0.24309 0.974374,-0.71298 1.68295,-2.20028 z m -3.595273,-1.604 c 1.028897,-2.47811 1.117645,-2.98447 0.503117,-2.87058 -1.004653,0.18618 -2.457446,4.13112 -1.773304,4.81526 0.271509,0.27151 0.487037,-0.0585 1.270187,-1.94468 z m -4.605633,1.9358 c -0.194018,-0.70268 -0.183674,-1.07756 0.03707,-1.34354 0.168397,-0.20291 0.500838,-1.28238 0.738757,-2.39882 0.312987,-1.46871 0.555538,-2.0536 0.877332,-2.1156 0.713895,-0.13756 0.822811,0.702 0.245538,1.89269 -0.607661,1.25336 -0.907029,3.11393 -0.584899,3.63515 0.272433,0.4408 -0.17092,1.30473 -0.669568,1.30473 -0.207188,0 -0.495604,-0.43632 -0.644233,-0.97461 z m 0.553383,-0.40957 c -0.196339,-0.19634 -0.230772,-0.093 -0.115685,0.34706 0.09356,0.35777 0.213492,0.4777 0.279545,0.27954 0.06363,-0.19088 -0.01011,-0.47285 -0.16386,-0.6266 z m 1.194505,-4.75084 c -0.08446,-0.21107 -0.147157,-0.14838 -0.159852,0.15985 -0.01149,0.27891 0.05105,0.43518 0.138964,0.34726 0.08792,-0.0879 0.09732,-0.31612 0.02089,-0.50711 z m -3.96376,4.90964 c -0.09188,-0.0919 0.0073,-0.41602 0.220486,-0.72033 0.497343,-0.71006 0.495052,-1.396 -0.0053,-1.588 -0.470928,-0.18071 -0.930078,0.57556 -0.930078,1.53194 0,0.73257 -0.244285,0.8579 -0.72845,0.37374 -0.221397,-0.2214 -0.227127,-0.45084 -0.02088,-0.83621 0.156328,-0.29211 0.613858,-1.5494 1.016733,-2.794 0.402876,-1.2446 0.86471,-2.30698 1.0263,-2.36084 0.43518,-0.14506 0.356344,0.62321 -0.103076,1.0045 -0.469098,0.38932 -0.526507,1.47615 -0.09215,1.7446 0.283237,0.17505 0.860225,-0.37572 1.104722,-1.05452 0.05809,-0.16126 0.20275,-0.20244 0.321476,-0.0915 0.118726,0.11093 -0.04357,0.55259 -0.360652,0.98147 -0.679732,0.91939 -0.717556,1.21964 -0.179643,1.42606 0.573302,0.21999 0.487535,1.11894 -0.180006,1.88668 -0.597058,0.68668 -0.804635,0.78126 -1.089472,0.49642 z m 14.466136,-4.98163 c -0.08859,-0.23085 0.03132,-1.1856 0.266452,-2.12167 0.235133,-0.93607 0.427514,-2.18349 0.427514,-2.77205 0,-0.77481 0.109516,-1.0701 0.396875,-1.0701 0.264583,0 0.396875,0.26458 0.396875,0.79375 0,0.87446 0.370539,0.99696 1.175049,0.38846 0.282475,-0.21365 0.669428,-0.38846 0.859896,-0.38846 0.701014,0 0.314513,0.71429 -0.818713,1.51307 -0.966294,0.6811 -1.237677,1.07111 -1.590977,2.28642 -0.454585,1.56372 -0.851359,2.05233 -1.112971,1.37058 z m -3.589899,-1.29255 c -0.828157,-0.3207 -1.58454,-0.6619 -1.680851,-0.75821 -0.09631,-0.0963 0.121531,-0.80779 0.484094,-1.58106 0.362563,-0.77328 0.742353,-1.91135 0.843978,-2.52905 0.196903,-1.19683 0.54613,-1.61805 0.980978,-1.1832 0.179579,0.17958 0.04211,0.91847 -0.419929,2.25712 -0.377797,1.09458 -0.686905,2.18105 -0.686905,2.41439 0,0.43523 0.63532,0.78666 1.918229,1.06109 0.400183,0.0856 0.727605,0.33197 0.727605,0.54748 0,0.51166 -0.351438,0.4746 -2.167199,-0.22856 z m -4.533238,-1.42113 c -0.08007,-0.12956 0.08509,-1.11414 0.367012,-2.18797 0.281925,-1.07384 0.512592,-2.16884 0.512592,-2.43334 0,-0.51946 0.395261,-0.64705 0.662914,-0.21397 0.184259,0.29813 -0.838057,4.50235 -1.179186,4.84934 -0.119764,0.12182 -0.283263,0.11549 -0.363332,-0.0141 z m -1.237063,-0.89396 c 0,-0.15931 0.266666,-1.14158 0.592592,-2.18282 0.438038,-1.3994 0.613999,-1.71518 0.674668,-1.21078 0.04514,0.37531 -0.170548,1.35757 -0.47931,2.18281 -0.54018,1.44376 -0.78795,1.82449 -0.78795,1.21079 z m 6.614583,-5.79576 c 0,-0.14552 0.119063,-0.26459 0.264583,-0.26459 0.145521,0 0.264584,0.11907 0.264584,0.26459 0,0.14552 -0.119063,0.26458 -0.264584,0.26458 -0.14552,0 -0.264583,-0.11906 -0.264583,-0.26458 z m -8.817036,-1.69401 c -0.287295,-0.74868 -0.20796,-1.392 0.214947,-1.74298 0.601955,-0.49958 0.826199,0.38804 0.351342,1.39071 -0.324566,0.68533 -0.416528,0.74254 -0.566289,0.35227 z m 1.408703,-0.40705 c 0,-0.44515 0.119063,-0.80936 0.264583,-0.80936 0.145521,0 0.264584,0.29063 0.264584,0.64584 0,0.35522 -0.119063,0.71943 -0.264584,0.80937 -0.154364,0.0954 -0.264583,-0.17364 -0.264583,-0.64585 z m 3.439583,-19.43009 c 0,-0.0549 0.20836,-0.2633 0.463021,-0.46302 0.419644,-0.32911 0.429002,-0.31975 0.09989,0.0999 -0.345644,0.44073 -0.562916,0.58088 -0.562916,0.36312 z m 27.009086,-4.44279 c -0.029,-0.59284 1.1366,-6.40998 2.07892,-10.37553 0.41898,-1.76316 0.96731,-4.15824 1.21852,-5.32241 0.25121,-1.16416 0.91455,-3.9475 1.4741,-6.18519 0.55955,-2.23769 0.95313,-4.17245 0.87463,-4.29948 -0.0785,-0.12702 -0.83833,-0.23095 -1.68849,-0.23095 -1.48367,0 -1.56751,0.0369 -2.08763,0.91842 -0.29804,0.50513 -0.62613,1.36834 -0.7291,1.91823 -0.16847,0.89974 -0.14449,0.96443 0.23958,0.6463 0.71693,-0.59384 1.04851,-0.10911 0.85143,1.24469 -0.19471,1.33755 -1.75648,7.50976 -3.22232,12.73486 -0.51031,1.81901 -1.0426,4.01133 -1.18288,4.87183 -0.14029,0.86049 -0.48577,1.88853 -0.76775,2.28454 -0.50166,0.70452 -0.53205,0.71122 -1.41303,0.31191 -0.82937,-0.37592 -0.91344,-0.52471 -1.06654,-1.88766 -0.20192,-1.79753 0.0676,-3.32361 1.6164,-9.1525 0.92194,-3.46968 2.45966,-10.1238 2.45966,-10.64359 0,-0.0396 -0.18243,-0.072 -0.4054,-0.072 -0.22298,0 -0.49948,-0.25431 -0.61446,-0.56514 -0.19939,-0.53898 -0.22275,-0.5298 -0.50478,0.19844 -0.16264,0.41996 -0.37367,1.53748 -0.46894,2.48337 -0.26096,2.59091 -0.85752,6.36523 -1.17093,7.40833 -0.42729,1.42212 -1.08616,5.18236 -1.33053,7.59354 -0.25401,2.50623 -0.43453,2.95971 -0.91606,2.30118 -0.19961,-0.27299 -0.50768,-0.38875 -0.76835,-0.28872 -0.55932,0.21463 -0.57733,-0.63357 -0.0571,-2.68864 0.20794,-0.82137 0.45072,-2.20778 0.53953,-3.0809 0.16113,-1.58422 0.16063,-1.58568 -0.24224,-0.70562 -0.22204,0.48503 -0.84152,2.27097 -1.37663,3.96874 -1.87603,5.95227 -1.85495,3.91444 0.0379,-3.66 1.32322,-5.29511 2.60422,-9.90597 3.96898,-14.28607 1.05497,-3.385862 1.08627,-4.061202 0.19409,-4.187812 -0.50277,-0.07135 -0.70542,0.14991 -1.23589,1.349392 -0.34898,0.78911 -0.77079,1.94086 -0.93736,2.55945 -0.16657,0.61859 -0.35675,1.07081 -0.42263,1.00493 -0.0659,-0.0659 0.11901,-0.88156 0.41085,-1.81264 0.29185,-0.93108 0.53217,-1.95274 0.53404,-2.270355 0.002,-0.352213 0.21993,-0.646202 0.55845,-0.753644 0.42358,-0.134438 0.52478,-0.334435 0.42728,-0.844434 -0.12738,-0.666363 -0.12348,-0.667772 1.3632,-0.493193 0.82002,0.09629 2.43004,0.408734 3.57781,0.694312 1.14778,0.285578 2.34833,0.519233 2.66789,0.519233 0.31955,0 0.65528,0.07427 0.74605,0.165044 0.0908,0.09077 1.03269,0.457219 2.09314,0.814327 1.06046,0.3571 1.97885,0.70002 2.04087,0.76204 0.062,0.062 -0.14451,0.3866 -0.45894,0.7213 -0.38396,0.40871 -0.78526,1.5596 -1.22203,3.50469 -0.35769,1.59288 -1.14057,5.03927 -1.73974,7.65864 -0.59917,2.61938 -1.54978,6.79737 -2.11245,9.28444 -0.96017,4.24399 -1.78218,6.88556 -1.83111,5.88433 z m -5.97168,-14.50731 c 0.24987,-1.211 -3.6e-4,-0.9529 -0.36296,0.37437 -0.15563,0.5697 -0.18063,0.92689 -0.0555,0.79375 0.12508,-0.13315 0.31341,-0.6588 0.4185,-1.16812 z m 0.99525,-2.77813 c 0.26916,-1.4747 1.5824,-6.34378 1.947,-7.21887 0.1991,-0.47788 0.35724,-1.31132 0.35142,-1.85208 -0.0105,-0.97424 -0.0138,-0.97718 -0.36129,-0.32175 -0.19288,0.3638 -0.73227,2.32833 -1.19864,4.36562 -0.46636,2.03729 -1.01816,4.25593 -1.22621,4.9303 -0.20805,0.67438 -0.37827,1.38548 -0.37827,1.58023 0,0.59267 0.70861,-0.62118 0.86599,-1.48345 z m -2.69719,-4.78454 c 0.0127,-0.30823 0.0754,-0.37092 0.15986,-0.15986 0.0764,0.191 0.067,0.4192 -0.0209,0.50712 -0.0879,0.0879 -0.15045,-0.0683 -0.13897,-0.34726 z m 0.26459,-1.05834 c 0.0127,-0.30822 0.0754,-0.37092 0.15985,-0.15985 0.0764,0.191 0.067,0.4192 -0.0209,0.50712 -0.0879,0.0879 -0.15045,-0.0684 -0.13896,-0.34727 z m 12.14994,-5.298626 c -0.94588,-0.370094 -2.01745,-0.712002 -2.38125,-0.759795 -0.3638,-0.04779 -1.73302,-0.333773 -3.04271,-0.635508 -1.30968,-0.301735 -2.68485,-0.551186 -3.05593,-0.554336 -0.92008,-0.0078 -1.35764,-0.480081 -1.02341,-1.104592 0.16763,-0.313236 0.55489,-0.488634 1.07885,-0.488634 1.19155,0 6.91329,1.214729 9.2182,1.957031 1.85448,0.597237 1.98438,0.688331 1.98438,1.391542 0,1.005318 -0.59836,1.047168 -2.77813,0.194292 z m 2.51354,-0.227936 c 0,-0.626733 -2.30841,-1.396558 -7.17699,-2.393435 -3.74122,-0.766042 -4.59696,-0.815387 -4.59696,-0.265076 0,0.440938 1.9e-4,0.440997 4.36562,1.319386 1.74625,0.351372 3.94891,0.938768 4.89479,1.305325 1.95882,0.759095 2.51354,0.766555 2.51354,0.0338 z m -14.91689,-6.886803 c -0.005,-0.436563 0.15536,-1.150938 0.35526,-1.5875 0.35263,-0.770125 0.36349,-0.774063 0.36481,-0.132292 7.5e-4,0.363802 -0.15912,1.078177 -0.35526,1.5875 l -0.35662,0.926042 z"
       id="path1"
       transform="translate(8.2111784,-0.00646916)" /></g></svg>
