<?xml version="1.0" encoding="UTF-8" standalone="no"?>
<!-- Created with Inkscape (http://www.inkscape.org/) -->

<svg
   width="33.60508mm"
   height="118.10118mm"
   viewBox="0 0 33.60508 118.10118"
   version="1.1"
   id="svg1"
   xml:space="preserve"
   xmlns="http://www.w3.org/2000/svg"
   xmlns:svg="http://www.w3.org/2000/svg"><defs
     id="defs1" /><g
     id="layer1"
     transform="translate(-86.96242,-88.042714)"><path
       style="fill:#000000"
       d="m 88.140406,205.66645 c -0.542309,-0.33303 -0.92034,-0.83016 -1.058333,-1.39175 -0.118071,-0.48051 -0.155143,-17.12569 -0.08238,-36.98928 l 0.132292,-36.11563 0.863511,-1.82337 c 1.223854,-2.58426 3.559647,-4.78485 6.603706,-6.22146 3.615251,-1.70618 4.119274,-2.01698 4.968199,-3.06356 l 0.793749,-0.97857 0.0773,-10.65938 0.0773,-10.659382 -0.988977,-0.891929 c -2.489693,-2.245366 -2.654944,-2.460438 -2.840206,-3.696484 -0.257318,-1.716785 0.175016,-3.34298 1.147307,-4.315525 l 0.817205,-0.817418 h 5.793531 c 5.77817,0 5.79537,0.0017 6.4822,0.645923 0.86536,0.811657 1.53417,2.979704 1.30702,4.236894 -0.27161,1.503316 -0.78443,2.265938 -2.21459,3.293409 -0.73772,0.529998 -1.45642,1.2664 -1.59711,1.636448 -0.14875,0.391231 -0.25539,4.956494 -0.25482,10.908194 9.4e-4,9.70473 0.0279,10.27955 0.52042,11.08727 0.5253,0.86154 2.4882,2.45537 3.02402,2.45544 0.16007,2e-5 1.22102,0.5959 2.35768,1.32417 3.68474,2.36088 5.6051,4.91952 6.25433,8.33308 0.21925,1.15281 0.28053,11.24014 0.22381,36.83885 l -0.0781,35.25135 -0.99646,0.99656 -0.99645,0.99657 -14.74625,0.0688 c -14.242158,0.0665 -14.775092,0.0511 -15.589911,-0.44925 z m 29.683244,-39.17478 v -33.73438 l -0.73633,-1.49918 c -1.4825,-3.01839 -5.56175,-5.92837 -9.73162,-6.94214 -2.14348,-0.52112 -5.09772,-0.53465 -7.459496,-0.0342 -3.632259,0.76971 -7.956481,3.82996 -9.596933,6.79174 l -0.786039,1.41917 -0.07206,33.59429 c -0.03963,18.47685 -0.0132,33.74766 0.05873,33.93513 0.1049,0.27336 2.92161,0.32729 14.227268,0.27238 l 14.09648,-0.0685 z m -24.702459,30.72131 c -0.278808,-0.17799 -0.318707,-0.64938 -0.175587,-2.07451 l 0.185203,-1.84418 10.362043,-0.14748 c 5.69913,-0.0811 10.38174,-0.12882 10.4058,-0.10601 0.0241,0.0228 0.0836,0.99399 0.13229,2.15816 l 0.0885,2.11666 -10.31875,0.0638 c -5.675311,0.0351 -10.481104,-0.0398 -10.679539,-0.16648 z m -0.711282,-7.77525 c -0.07118,-0.1855 -0.09721,-2.89417 -0.05784,-6.01927 l 0.07158,-5.682 10.914061,-0.0691 10.91406,-0.0691 v 6.08836 6.08835 h -10.85622 c -8.553209,0 -10.883672,-0.0716 -10.98564,-0.33727 z m 0.0017,-19.31006 c -0.07023,-0.18301 -0.09626,-4.2609 -0.05784,-9.06198 l 0.06984,-8.72923 10.914061,-0.0691 10.91406,-0.0691 v 9.13106 9.13106 h -10.85622 c -8.475931,0 -10.884213,-0.073 -10.983902,-0.33275 z m 0.0561,-25.24364 c -0.220457,-0.22046 -0.234887,-8.62372 -0.01579,-9.19468 0.142822,-0.37219 1.358215,-0.41852 10.980201,-0.41852 h 10.81961 v 4.8948 4.89479 h -10.80382 c -5.942094,0 -10.883188,-0.0794 -10.980201,-0.17639 z m 2.204861,-14.87728 c 0,-0.38652 2.479625,-1.8613 4.068396,-2.41971 2.003244,-0.70408 7.323644,-0.7245 9.316074,-0.0357 1.47259,0.50905 4.07803,2.07783 4.07803,2.45545 0,0.13482 -3.76422,0.237 -8.73125,0.237 -4.967031,0 -8.73125,-0.10218 -8.73125,-0.237 z"
       id="path1" /></g></svg>
