<?xml version="1.0" encoding="UTF-8"?>
<svg xmlns="http://www.w3.org/2000/svg" viewBox="0 0 271.47 338.18">
  <g>
    <path d="m271.47,73.83c-.67,5.19-1.15,10.41-2.05,15.56-8.62,49.24-32.57,88.36-78.13,110.87-46.09,22.78-90.87,17.17-131.71-13.56C27.21,162.34,9.54,128.67,3.31,88.88-1.07,60.89,1.81,33.57,11.88,7.09c.9-2.38,3.03-4.3,4.59-6.43,79.95,0,159.9,0,239.84,0,1.41,1.71,3.36,3.2,4.15,5.16,4.36,10.86,7.36,22.13,9,33.73.75,5.26,1.34,10.55,2,15.83v18.46Zm-14.21,1.28c.13-.86.26-1.38.29-1.91.93-19.37-1.34-38.3-7.6-56.73-.74-2.17-2-2.19-3.72-2.19-73.24.01-146.47.02-219.71-.04-2.31,0-3.23.8-3.93,2.88-5.98,18.03-8.25,36.53-7.39,55.46.04.83.28,1.65.43,2.54h241.62Z"/>
    <path d="m115.65,226.18h41.1c0,17.32.11,35.16-.08,52.99-.05,4.18,1.24,7.56,4.54,9.62,7.41,4.63,14.91,9.17,22.7,13.1,8.6,4.33,17.65,7.76,26.32,11.95,3.7,1.79,7.3,4.14,10.28,6.95,4.65,4.36,4.55,10.82.04,14.85-1.49,1.33-3.84,2.41-5.8,2.42-52.26.13-104.53.12-156.79.08-7.15,0-11.58-8.84-7.31-15.06,1.91-2.79,4.73-5.37,7.72-6.91,8.56-4.41,17.46-8.14,26.15-12.31,7.01-3.36,13.95-6.88,20.83-10.49,2.12-1.11,4-2.69,5.9-4.18,3.38-2.66,4.98-5.95,4.9-10.51-.25-14.83-.07-29.66-.11-44.49,0-2.81-.26-5.62-.38-8.03Z"/>
  </g>
</svg>