<?xml version="1.0" encoding="UTF-8" standalone="no"?>
<!-- Created with Inkscape (http://www.inkscape.org/) -->

<svg
   width="148.95312mm"
   height="195.27339mm"
   viewBox="0 0 148.95312 195.27339"
   version="1.1"
   id="svg1"
   xml:space="preserve"
   xmlns:inkscape="http://www.inkscape.org/namespaces/inkscape"
   xmlns:sodipodi="http://sodipodi.sourceforge.net/DTD/sodipodi-0.dtd"
   xmlns="http://www.w3.org/2000/svg"
   xmlns:svg="http://www.w3.org/2000/svg"><g
     transform="translate(-29.294444,-54.4994)"><path
       d="m 92.934581,55.085676 -0.144816,0.185946 c -3.682843,1.012067 -6.968131,2.982646 -9.855618,5.912586 l -2.052697,2.435627 -3.845918,0.136402 -6.351882,1.619713 -0.165157,0.02027 -5.716303,4.061073 -0.725746,0.928911 -1.431147,2.023492 -1.933445,4.772219 -0.02034,-0.165673 -1.045157,5.167134 0.0146,2.853948 0.0609,0.495985 1.413423,6.041393 0.04062,0.330829 -1.761975,2.064112 -0.124533,0.351111 c -2.268212,3.413769 -3.070792,7.823166 -2.407114,13.228396 0.406334,3.30932 1.365384,6.10275 2.876776,8.38059 l -0.02027,-0.16515 0.185437,0.14487 -0.165156,0.0203 -3.410892,-0.42104 0.185501,0.1454 c -5.98191,-0.38529 -10.340109,0.59786 -13.074699,2.94916 l -5.843452,5.75628 -0.871075,1.11493 -1.204575,2.49914 -0.874263,2.45855 -3.866952,19.1186 -0.647119,2.93467 -0.772732,12.86006 -0.08436,0.68251 c 0.305513,11.60777 3.167965,20.32598 8.586587,26.15515 5.335408,6.06332 11.10335,9.72215 17.303938,10.97632 l -0.186013,-0.14532 5.643354,0.81903 4.508086,-0.21772 -0.450321,16.85132 -2.894059,-0.31625 c -2.798399,0.008 -4.918431,1.89139 -6.360293,5.65158 l -0.145331,0.18602 c -0.776078,1.88687 -0.947196,4.59532 -0.513778,8.12527 -0.503234,3.19705 6.127063,6.58193 19.89063,10.15474 13.184918,3.41992 26.511335,5.25469 39.978865,5.50464 l 0.49599,-0.0609 56.53185,-8.7885 0.39492,-0.88829 0.53145,-6.61601 -0.0203,-0.16515 -1.10338,-6.24711 -2.29024,-2.23821 c -0.96375,-0.55351 -1.99729,-0.76273 -3.1004,-0.62729 l -2.46164,0.47042 0.16824,-1.36444 -0.0334,-50.88844 c -0.15612,-29.5419 -0.83785,-45.58237 -2.0454,-48.12148 l -0.0204,-0.16567 -1.91612,-3.29158 3.45336,0.22836 5.66754,-1.18062 c 2.41525,-1.30432 4.23173,-2.927 5.44905,-4.86806 2.005,-2.82157 3.25331,-6.33404 3.74497,-10.53743 l 0.14539,-0.1855 -0.46157,-6.494086 -0.061,-0.496502 -1.45711,-5.02754 -1.91618,-3.292096 -4.43512,-4.662404 -0.18596,-0.144818 -0.44696,-3.64014 -0.0204,-0.165674 c -1.14534,-5.681971 -3.65073,-10.58118 -7.51538,-14.69759 l -0.1855,-0.145392 -4.64455,-3.628721 -0.53712,-0.269868 -5.57921,-1.666192 -0.35116,-0.125052 -11.72532,0.264067 -0.31054,0.205782 -5.44274,2.180237 c -2.22744,-2.637825 -4.38814,-4.276376 -6.48209,-4.915053 l -0.53712,-0.269869 -4.94101,-0.568934 -1.48898,0.182825 -2.46166,0.470421 -1.28321,0.493372 -1.59368,0.699666 -1.7797,0.554339 -0.16516,0.02027 -1.30037,-1.015954 -0.18602,-0.145331 c -3.08279,-2.308812 -6.97443,-3.454382 -11.675203,-3.43707 l 0.516777,0.104198 z m 70.306189,65.922824 -0.22796,0.0472 0.33083,-0.0406 z M 94.040578,59.988677 99.024886,59.544851 c 3.584124,0.0078 6.539394,0.820354 8.865554,2.438295 l 3.48641,3.770929 0.43552,-0.557462 1.8433,-1.401943 2.44136,-0.63558 2.21473,-1.111733 2.46163,-0.470422 3.92774,0.525704 c 1.99718,0.762543 4.08828,2.745236 6.27313,5.948163 l 1.05084,1.718745 c 1.85211,-2.242945 4.45407,-3.850211 7.80598,-4.821642 l 9.8847,-0.20572 4.71125,1.436947 3.71565,2.90298 c 3.21828,3.41196 5.28416,7.469129 6.1975,12.171867 l 0.48184,6.659241 2.41789,0.542922 3.13529,3.646388 1.27689,2.194451 1.1701,4.055335 0.33963,5.501094 c -0.36583,3.40413 -1.42015,6.22102 -3.16196,8.45042 l -3.33538,2.92893 -3.59953,0.77779 c -1.44757,0.0658 -3.11457,-0.28945 -5.00145,-1.06549 -1.55594,-0.81674 -2.691,-1.85277 -3.40509,-3.10877 l -0.92631,-2.06985 -1.26291,0.65854 c -2.18109,1.38754 -4.38728,1.65843 -6.61863,0.81265 -1.84626,-0.44515 -3.2701,-1.55758 -4.27253,-3.33805 l -1.19304,-2.8769 -2.14854,-1.07998 -0.31049,0.20629 -3.58497,3.63122 -9.10373,2.46158 -4.85978,0.0927 c -2.71518,-0.22651 -5.29075,-1.14183 -7.72723,-2.74623 l -2.43562,-2.05271 -1.42803,0.67934 0.0204,0.16566 0.13646,3.84644 c -0.1298,2.59133 -1.00375,5.04996 -2.6217,7.37613 l -2.67374,2.84769 2.48187,9.26889 0.0318,4.36327 c -0.54192,1.9701 -1.71645,3.3459 -3.52402,4.12771 -1.80756,0.78181 -3.59998,0.77816 -5.376544,-0.0115 l -3.343682,-2.61283 -2.827866,-2.50799 -0.76324,-0.74609 -1.097256,0.63818 -3.332716,1.58535 -4.882725,1.27116 c -3.309328,0.40633 -6.388397,-0.50339 -9.237072,-2.72902 l -2.0636,-1.76205 -1.35871,-2.85655 -1.06799,-3.22807 0.612234,-5.95379 0.749209,-2.10739 c -2.024273,-0.98316 -3.592772,-2.3583 -4.705515,-4.12522 -1.099202,-1.65662 -1.797894,-3.69842 -2.095873,-6.12526 -0.501145,-4.0815 0.03685,-7.45053 1.614158,-10.10762 l 3.875635,-4.003245 -1.503525,-2.670605 -1.146683,-5.234347 -0.01454,-2.853432 0.751825,-3.451516 1.413993,-3.532821 1.431211,-2.022977 c 1.602442,-1.540444 3.038492,-2.612756 4.308047,-3.216532 l 5.068674,-1.126338 3.535431,0.06989 1.962531,0.934648 3.402089,-5.120714 c 2.183042,-2.283575 4.68159,-3.821946 7.495498,-4.615349 z m 44.259832,52.679993 1.93913,2.11366 0.51053,2.79252 7.38238,-0.0666 2.06672,0.41786 1.66926,2.65078 2.16518,2.58936 c 1.08956,-0.24575 2.10089,0.69361 3.03365,2.81857 0.97339,2.45587 1.52581,17.89664 1.65678,46.32194 l 0.0333,50.88793 -5.35887,1.49778 -12.30834,2.35108 -5.02524,-113.42822 0.14532,-0.186 z m -80.150412,29.82879 0.682515,0.0843 -0.165674,0.0204 4.238219,0.31945 3.95114,-0.6533 -0.886552,36.55662 -11.155853,-4.67701 0.148457,-1.53018 -0.0609,-0.49599 0.899888,-14.55528 -0.02034,-0.16567 c 0.542062,-8.35261 1.331764,-13.32027 2.369104,-14.9033 z m 29.714486,-0.1211 -2.059736,72.13992 -3.864097,-1.37278 -2.205867,-2.92071 1.156784,-65.81466 c 2.935799,0.19942 5.260167,-0.47778 6.972916,-2.03177 z" />
       </g></svg>
