<?xml version="1.0" encoding="UTF-8" standalone="no"?>
<!-- Created with Inkscape (http://www.inkscape.org/) -->

<svg
   width="108.69612mm"
   height="96.958275mm"
   viewBox="0 0 108.69612 96.958275"
   version="1.1"
   id="svg1"
   xml:space="preserve"
   xmlns:inkscape="http://www.inkscape.org/namespaces/inkscape"
   xmlns:sodipodi="http://sodipodi.sourceforge.net/DTD/sodipodi-0.dtd"
   xmlns="http://www.w3.org/2000/svg"
   xmlns:svg="http://www.w3.org/2000/svg"><sodipodi:namedview
     id="namedview1"
     pagecolor="#ffffff"
     bordercolor="#000000"
     borderopacity="0.25"
     inkscape:showpageshadow="2"
     inkscape:pageopacity="0.0"
     inkscape:pagecheckerboard="0"
     inkscape:deskcolor="#d1d1d1"
     inkscape:document-units="mm" /><defs
     id="defs1" /><g
     inkscape:label="Слой 1"
     inkscape:groupmode="layer"
     id="layer1"
     transform="translate(-44.866391,-103.94903)"><path
       id="path156"
       style="display:inline;fill:#000000;fill-opacity:1"
       d="m 106.47877,103.95179 c -3.89572,2.6545 -5.71986,7.01973 -7.642426,11.1125 -1.610479,-0.0592 -1.675684,-2.65146 -2.648883,-3.75535 -0.99599,-1.93724 -1.82948,-4.07651 -3.811187,-5.23634 -2.177914,1.29431 2.497599,4.73822 2.496126,6.83122 1.516014,1.89003 2.513117,6.41574 2.849707,6.54054 2.13819,0.38765 3.496363,-0.0416 2.929153,-2.40499 1.38126,-4.71994 3.48258,-9.21706 6.69882,-12.95942 -0.27103,-0.17743 -0.57586,-0.12022 -0.87131,-0.12816 z m 46.47003,1.37253 c -6.29807,3.01388 -13.22335,4.25279 -19.7713,6.57235 -0.76624,-0.94499 1.64518,-4.48217 -1.54664,-1.86407 -2.08769,3.06311 -3.83709,2.42736 -3.52005,-0.91462 -1.60528,-3.14114 -4.02108,2.42209 -5.28063,3.33454 -2.2063,2.6439 -3.09615,6.07618 -4.1588,9.26912 1.55168,2.39045 3.84224,6.28465 5.31648,9.56324 0.0761,2.35732 2.46173,1.85832 4.08074,2.0383 5.74045,-0.21213 11.30419,-2.3257 16.09648,-5.40917 3.13714,-2.19422 6.06968,-4.65341 8.08246,-7.98016 0.93384,-1.80507 -1.73307,-0.79155 -2.55929,-0.63027 -2.79055,1.45495 -6.40048,-0.004 -2.77657,-2.87777 2.26744,-3.46266 5.04567,-6.82305 6.65083,-10.62519 -0.20742,-0.12709 -0.39547,-0.40006 -0.61371,-0.4763 z m -20.60907,3.28145 c -0.0211,0.0126 0.0104,-0.001 0,0 z m 15.75614,1.40147 c -1.12421,0.66091 -0.94342,0.55367 0,0 z m -10.88719,0.0527 c -0.0191,0.002 0.001,0.006 0,0 z m -0.007,0.003 c -0.0664,0.0165 -0.069,0.0263 0,0 z m -10.84688,0.63614 c -1.22675,1.34838 -2.45342,2.70152 -3.13934,4.42091 0.70545,-1.73743 1.89651,-3.05242 3.13934,-4.42091 z m 16.01194,3.50056 c -2.27763,2.52484 -4.55869,5.05224 -6.83834,7.5768 2.2796,-2.52546 4.55904,-5.05106 6.83834,-7.5768 z m -39.24721,1.91048 c -0.12511,-0.0101 0.18055,0.055 0,0 z m 19.15852,0.94464 c -1.01191,2.29484 -1.75337,4.68936 -0.43015,0.97325 z m -75.187661,1.71204 c -1.385784,1.34783 0.893324,3.04775 1.216777,4.4939 1.33656,3.02974 3.320033,6.04634 3.70209,9.31626 -0.219966,1.85934 -5.15664,-0.8899 -4.124539,1.89893 0.741498,5.77782 4.029764,10.84125 8.138997,14.80613 2.22953,2.01503 5.661628,3.42117 7.933874,4.54316 1.230167,-0.2619 2.358927,-2.07284 4.437978,-1.61367 1.457042,-1.2749 0.320867,-0.48027 2.124302,-1.91018 -2.065342,-5.03557 -2.922004,-10.63957 -1.817401,-16.0211 -0.49672,-2.60094 -0.535509,-5.33722 -3.107635,-7.09423 -4.714975,-5.02063 -11.648119,-8.10717 -18.504443,-8.4192 z m 43.988013,0.27079 c -6.400366,-0.0817 -12.111168,4.04183 -15.989616,8.83167 -3.923271,3.99041 -5.771383,9.84294 -4.395689,15.27894 1.150222,4.91997 3.650216,9.51728 7.420106,12.8971 2.786694,3.21553 6.703415,5.40615 10.613654,6.88405 2.904774,0.0964 5.157261,-2.46491 8.049402,-2.77501 4.332911,-1.5973 -4.335136,-6.19961 -3.298034,-10.0022 0.546858,-2.21383 2.485392,-3.01641 4.5269,-2.86782 3.054905,1.97233 0.740352,-2.28301 1.652095,-3.93774 0.40343,-2.55424 4.76972,-2.39786 5.18694,0.28309 0.30415,2.5424 0.0602,5.21928 0.15278,7.81357 0.89276,-2.08824 2.33702,-4.8616 5.00848,-4.19096 2.43641,0.48679 2.73909,3.48995 2.16526,5.52948 -0.93292,2.64995 0.35804,2.89327 1.79783,0.73569 3.495,-3.24726 6.55203,-7.24805 7.52539,-12.00088 0.65683,-2.93544 0.43912,-5.98399 -0.073,-8.90865 -0.73902,-3.14866 -2.06328,-6.17264 -4.66908,-8.17708 -2.54763,-2.798 -6.37567,-4.09828 -10.03817,-4.61027 -5.22799,-0.11794 -10.451693,-0.10935 -15.635268,-0.78298 z m -40.362395,2.54919 c 2.511769,0.84846 2.499334,0.84548 0,0 z m 69.570433,2.23811 c 1.23715,1.82664 3.33847,5.27297 0.90695,1.37703 -0.30232,-0.45901 -0.60463,-0.91802 -0.90695,-1.37703 z m -48.77687,0.42013 c -0.02735,-0.008 -0.169368,0.10031 0,0 z m 76.71315,0.85369 c -0.32723,0.22169 0.005,0.0236 0,0 z m -67.742121,0.54932 c 1.613457,-0.48855 3.658583,0.49163 2.586287,2.2881 -1.731484,1.97268 -4.278043,3.41864 -4.79132,6.17857 0.02804,2.94245 -3.204846,5.69657 -3.149792,1.08333 -0.144173,-2.50534 0.927403,-5.20531 2.441141,-7.17054 0.907214,-0.8679 1.843636,-1.71454 2.913684,-2.37946 z m 44.570921,1.73582 c 0.0298,0.50334 0.0282,0.505 0,0 z m 19.33164,0.53278 c -0.39239,0.26054 -0.0994,0.0894 0,0 z m -56.449269,0.0729 c 1.756919,0.22646 2.633952,2.56214 1.532206,3.97962 -1.077876,1.84665 -3.780683,2.76102 -5.59294,1.75493 -2.832169,-2.3377 0.998534,-6.52941 4.060734,-5.73455 z m 35.559069,1.23662 c 0.76812,1.71085 1.12085,2.49965 0,0 z m -71.984753,2.09083 c 0.0037,0.0351 0.03633,0.1052 0,0 z m 9.439734,0.21911 c 1.69272,2.40512 2.840669,4.77762 0.639908,0.88667 z m 71.708799,1.80712 c -0.12651,0.007 -0.0276,0.0143 0,0 z m -82.853338,1.96216 c 1.951138,0.0578 3.902268,0.11579 5.853389,0.1741 -1.951137,-0.0578 -3.902267,-0.11581 -5.853389,-0.1741 z m -1.597319,2.82928 c -0.03092,0.005 0.05357,0.10314 0,0 z m 19.888709,1.37408 c -0.01503,0.83808 0.05481,5.92039 -0.0087,3.65422 0.0069,-1.21795 -0.03293,-2.43693 0.0087,-3.65422 z m 0.901753,7.15047 c 0.294271,0.79359 0.484889,1.4239 0,0 z m 0.274919,1.47536 c 0.06005,0.0927 0.06264,0.35197 0,0 z m 39.902986,0.22531 c -3.4135,2.20156 -2.85774,6.87399 -2.82751,10.42016 1.22292,4.10633 4.02528,-4.30844 4.37612,-6.6344 0.0598,-1.55328 0.49842,-3.47425 -1.54861,-3.78576 z m -12.010632,0.13591 c -5.147224,1.13658 0.293021,6.62021 1.904152,8.68934 1.32517,2.19446 3.93898,3.71203 2.09305,-0.13006 -1.317676,-2.66578 -0.72553,-7.45673 -3.997202,-8.55928 z m 40.216662,7.23986 c -3.71638,0.003 -7.46986,-0.26896 -11.02899,1.02512 -3.95424,0.93354 -7.69628,2.76823 -10.7919,5.4062 2.32305,2.54501 5.44349,4.51818 6.56499,7.92485 1.76046,3.27751 2.16142,7.02905 1.97955,10.69578 0.20704,3.93252 -1.2288,7.78538 -2.6632,11.37933 -2.87846,2.92331 0.20953,4.4113 3.38219,5.05906 6.31623,2.44683 13.86236,1.445 19.20804,-2.68436 3.51159,-2.93176 6.41008,-6.60133 7.82385,-11.02154 1.72485,-4.46598 1.81192,-9.50302 0.59402,-14.1011 -0.90272,-3.34954 -2.48703,-6.48617 -5.20983,-8.68177 -2.39951,-3.00986 -6.20856,-4.26411 -9.85872,-5.00157 z m -65.777892,3.77755 c -1.781636,0.58655 -3.977641,0.11805 -6.387243,0.14604 -4.819805,-0.52756 -9.237411,1.84592 -13.559896,3.6499 -2.046692,2.20104 -4.648898,4.00794 -5.589323,6.99338 -0.240183,-0.95916 -1.341573,3.92733 -1.080566,5.16518 -0.793939,6.20142 2.497495,12.1951 6.355148,16.7947 2.402385,2.78633 5.431912,4.59773 8.644951,6.12417 7.945155,3.78293 17.77226,1.02674 23.841958,-4.93457 -1.604284,-3.61476 -3.44379,-7.28863 -3.172879,-11.34073 -0.427212,-5.92824 2.330224,-11.61776 6.142027,-16.02329 -0.596868,-2.61673 -6.544211,-4.45139 -9.511815,-5.74616 -1.859121,-0.46434 -3.76544,-0.77339 -5.682362,-0.82862 z m 0.520898,0.53227 c 2.367261,0.008 2.289598,0.0179 0,0 z m 36.986894,1.58491 c -2.05265,0.82698 -4.07183,0.97094 -6.18014,0.30752 -3.18049,-0.54551 -6.376908,0.0213 -9.276802,1.42888 2.768458,-0.51793 4.316754,-0.96268 1.038644,-0.15594 -1.023882,-0.21436 -4.552212,2.451 -2.819417,1.02305 -2.973813,1.79732 -5.453151,4.36373 -6.998113,7.4862 -1.912411,2.68887 -2.827423,5.96568 -2.482701,9.25208 -0.362663,3.0004 0.844346,5.83711 1.95956,8.54457 2.691839,5.27466 7.668145,9.26058 13.47543,10.61522 6.135389,1.81768 12.979059,0.41409 17.716689,-3.9442 3.90914,-4.24999 6.17929,-10.05041 6.05467,-15.8508 0.33247,-4.4332 -1.17241,-8.8715 -3.74538,-12.47628 -1.97389,-3.11526 -5.25442,-5.15128 -8.74244,-6.2303 z m -8.62377,0.18139 c 2.49691,0.65254 4.99894,1.28715 7.56696,0.52629 2.14186,-0.69376 3.9823,1.06059 5.81768,1.9098 1.26485,0.68629 4.78375,5.32118 3.66768,3.81871 -1.92316,-2.82963 -4.8922,-4.98366 -8.11176,-5.91943 -2.686,0.52718 -5.3784,0.82505 -7.99722,-0.11893 -0.90917,-0.67573 -5.328401,1.03947 -2.741279,0.21923 0.599313,-0.14522 1.198626,-0.29045 1.797939,-0.43567 z m -46.055584,0.50436 c 1.417589,1.89085 -2.577533,3.73736 -3.673127,5.37836 -1.764125,1.46998 -1.897537,4.62747 -4.023841,5.57859 -2.559627,-0.95062 0.992977,-5.29384 2.019582,-6.77878 1.49128,-1.97145 3.416108,-3.26323 5.677386,-4.17817 z m 39.905575,1.1188 c 2.561822,0.33042 -0.256224,2.47178 -1.133133,3.33866 -1.865242,1.76117 -3.783881,3.4844 -4.570693,6.01245 0.0043,2.34879 -4.236697,3.507 -3.431968,0.55338 0.282727,-3.64251 3.500647,-6.02789 5.959017,-8.34029 1.058855,-0.52155 2.117801,-1.0429 3.176777,-1.5642 z m 3.418912,0.84232 c 1.93148,-0.56501 3.948697,1.55227 2.599837,3.40858 -1.286997,2.1343 -4.297227,2.74141 -5.268505,5.22613 -0.457054,1.99596 -3.467569,6.79281 -4.33805,2.71062 -0.03381,-2.59154 1.26366,-5.25277 2.663669,-7.41136 1.316152,-1.44667 2.59739,-2.98933 4.343049,-3.93397 z m -9.273852,2.97708 c -0.500521,0.50761 -1.093096,1.08268 0,0 z m -31.103011,3.37292 c 1.645131,0.047 3.51907,-0.45846 4.469228,1.26632 1.398817,0.91374 0.916673,3.3453 -0.166648,4.32662 -1.871783,1.77803 -5.111683,3.29516 -7.44244,1.57045 -2.025666,-2.8755 0.0622,-6.2303 3.13986,-7.16339 z m -11.785844,1.19424 c 0.008,1.57716 0.05886,4.61997 -0.06323,1.34529 0.01424,-0.44999 -0.142655,-0.91953 0.06323,-1.34529 z m 47.234843,11.7998 c 1.347541,0.83942 1.360969,0.84937 0,0 z m -36.025708,1.58078 c 2.282423,0.60375 1.332097,0.40922 0,0 z m 41.266732,0.47181 c 1.248985,0.008 4.209747,0.0187 4.483167,0.0255 -1.49202,-0.0232 -2.998927,0.0575 -4.483167,-0.0255 z m -34.28628,1.04696 c 2.043114,0.0147 4.086228,0.0293 6.129342,0.0439 -2.040988,-0.0337 -4.09503,0.0665 -6.129342,-0.0439 z" /></g></svg>
