<svg xmlns="http://www.w3.org/2000/svg" xml:space="preserve" width="115.614" height="94.052" viewBox="0 0 30.59 24.885"><path d="M27.211 11.093q-.277-.01-.766.19c-.855.354-1.693 1.638-1.462 2.24.236.614.71.516 1.478-.308 1.113-1.193 1.387-2.031.825-2.115zm-4.905 2.32c-3.213 0-5.26 3.161-4 6.177.447 1.067 2.363 2.75 3.306 2.903 3.416.553 6.166-2.26 5.312-5.433-.62-2.304-2.32-3.646-4.618-3.646m6.577 0c-1.574 0-3.183 1.054-2.56 1.677.474.474 3.843-.058 4.22-.668.27-.437-.67-1.008-1.66-1.008M21.98 14.82q.244.003.488.056c1.04.229.97.78-.26 2.01-1.151 1.15-2.218 1.357-2.668.515-.6-1.12.767-2.504 2.277-2.578q.082-.004.163-.003zM8.418 0c-1.172 0-1.337.896-.783 4.249l.303 1.836.953.027c.525.014 1.251.121 1.615.238 1.05.336 1.69.295 2.323-.147.937-.657.726-1.123-.6-1.322-.652-.098-1.486-.102-1.851-.01-.366.091-.666.06-.666-.07s.658-.973 1.461-1.874C12.67 1.25 12.787.794 11.718.794c-.79 0-1.95 1.157-2.586 2.58-.276.618-.538 1.124-.58 1.124-.044 0 .076-.804.266-1.786C9.323.106 9.307 0 8.418 0m-4.15.794c-1.117 0-.974.554.522 2.015.816.796 1.483 1.545 1.483 1.664 0 .12-.78.28-1.734.356-.954.077-1.79.195-1.859.263-.242.243.194.931.764 1.207.766.37.965.37 2.544.006 1.308-.302 1.343-.335 1.338-1.257C7.313 3.074 5.675.794 4.268.794m3.77 6.478q-.147 0-.292.01c-.928.056-1.807.364-2.43.949-.81.762-1.278 2.3-1.057 3.479.23 1.228 1.643 2.786 2.94 3.241 1.312.46 1.43.465 2.54.095 2.627-.878 3.652-3.856 2.085-6.056C11.08 7.945 9.7 7.35 8.331 7.28a5 5 0 0 0-.293-.008m.02 1.245c.197.004.328.098.513.282.633.633.25 1.645-.814 2.15-1.09.517-1.001.514-1.626.057-.792-.579-.257-1.754 1.02-2.24.446-.17.709-.254.906-.25M3.833 16.406q-.146 0-.291.01c-.928.055-1.807.364-2.43.948-.81.762-1.278 2.3-1.057 3.48.23 1.228 1.643 2.785 2.94 3.24 1.312.461 1.43.466 2.54.095 2.626-.878 3.652-3.856 2.085-6.056-.744-1.045-2.124-1.64-3.494-1.71a6 6 0 0 0-.293-.007zm.02 1.245c.197.005.33.097.514.282.633.633.25 1.645-.814 2.15-1.09.516-1.001.514-1.626.057-.792-.58-.257-1.754 1.02-2.24.446-.17.709-.254.906-.25M13.113 16.846q-.147 0-.292.01c-.928.055-1.807.363-2.429.948-.811.762-1.28 2.3-1.058 3.48.23 1.228 1.643 2.785 2.94 3.24 1.312.461 1.43.466 2.54.095 2.627-.878 3.652-3.856 2.086-6.056-.744-1.045-2.125-1.64-3.494-1.71a6 6 0 0 0-.293-.007zm.02 1.244c.197.005.329.098.514.283.632.633.249 1.645-.815 2.15-1.09.516-1.001.513-1.626.057-.791-.58-.257-1.755 1.02-2.24.446-.17.709-.254.906-.25M16.735 6.086q-.147 0-.292.009c-.927.056-1.807.364-2.429.949-.811.762-1.279 2.3-1.058 3.479.23 1.228 1.644 2.786 2.94 3.241 1.312.46 1.431.466 2.54.095 2.627-.878 3.652-3.856 2.086-6.056-.744-1.045-2.125-1.64-3.494-1.71a6 6 0 0 0-.293-.008zm.02 1.244c.197.005.329.098.514.283.632.633.249 1.644-.815 2.15-1.09.516-1.001.513-1.625.057-.792-.58-.257-1.755 1.02-2.24.445-.17.708-.254.906-.25"/></svg>