<?xml version="1.0" encoding="UTF-8"?>
<svg xmlns="http://www.w3.org/2000/svg" viewBox="0 0 90 90">
  <g>
    <path d="m54.31,2.41c13.3-.22,22.98,5.32,29.29,16.88,3.15,5.77,1.5,8.72-4.96,9.04-9.92.49-19.47-.24-27.32-7.41-.43-.39-1.16-.44-1.75-.65-.19.73-.63,1.49-.53,2.19.24,1.79.62,3.57,1.11,5.3,1.68,5.86,1.83,5.93,7.79,4.67,14.14-2.98,27.44,5.05,30.45,18.37,3.12,13.83-4.99,27.24-18.51,30.33-2.68.61-5.56.66-8.33.53-4.21-.2-4.67-1.15-2.97-5.37,2.38-5.9,3.62-11.91,2.49-18.32-1.24-7.05-4.04-13.42-9.46-18.01-5.16-4.37-6.35-10.15-7.59-16.11-.47-2.25-.75-4.55-1.11-6.82-.4-2.54-1.74-2.86-3.12-.9-2.08,2.94-3.82,6.13-5.68,9.23-.76,1.26-1.25,2.78-2.26,3.77-.66.65-2.2,1.01-3.03.68-.58-.23-1.12-2.03-.82-2.79,3.39-8.7,8.04-16.8,15.47-22.5,2.62-2.01,7.18-1.48,10.85-2.11Z"/>
    <path d="m56.07,63.12c-.07,15.2-11.78,26.79-27.09,26.8-15.3.01-26.91-11.58-26.92-26.87-.01-15.5,11.75-27.21,27.25-27.14,15.06.07,26.83,12.04,26.77,27.21Z"/>
  </g>
</svg>