<?xml version="1.0" encoding="UTF-8" standalone="no"?>
<!-- Created with Inkscape (http://www.inkscape.org/) -->

<svg
   width="106.91507mm"
   height="97.253731mm"
   viewBox="0 0 106.91507 97.253731"
   version="1.1"
   id="svg1"
   xml:space="preserve"
   xmlns:inkscape="http://www.inkscape.org/namespaces/inkscape"
   xmlns:sodipodi="http://sodipodi.sourceforge.net/DTD/sodipodi-0.dtd"
   xmlns="http://www.w3.org/2000/svg"
   xmlns:svg="http://www.w3.org/2000/svg"><sodipodi:namedview
     id="namedview1"
     pagecolor="#ffffff"
     bordercolor="#000000"
     borderopacity="0.25"
     inkscape:showpageshadow="2"
     inkscape:pageopacity="0.0"
     inkscape:pagecheckerboard="0"
     inkscape:deskcolor="#d1d1d1"
     inkscape:document-units="mm"
     showgrid="false" /><defs
     id="defs1" /><g
     inkscape:label="Слой 1"
     inkscape:groupmode="layer"
     id="layer1"
     transform="translate(-52.501424,-99.725415)"><path
       d="m 112.33276,100.02363 c -3.89572,2.6545 -5.71986,7.01973 -7.64242,11.1125 -1.61048,-0.0592 -1.67569,-2.65146 -2.64889,-3.75535 -0.99599,-1.93724 -1.82948,-4.07651 -3.811183,-5.23634 -2.177914,1.29431 2.497603,4.73822 2.496123,6.83122 1.51602,1.89003 2.51312,6.41574 2.84971,6.54054 2.13819,0.38765 3.49636,-0.0416 2.92915,-2.40499 1.38126,-4.71994 3.48258,-9.21706 6.69882,-12.95942 -0.27103,-0.177429 -0.57586,-0.12022 -0.87131,-0.12816 z m 46.47003,1.37253 c -7.76401,1.25434 -26.51832,12.60502 -25.10257,3.8102 0.13182,-2.30029 -0.75374,-5.508352 -1.17849,-5.480773 -2.94097,1.918283 -6.87367,14.633083 -7.99636,18.067893 1.55168,2.39045 3.6438,6.28465 5.11804,9.56324 0.83678,1.66279 2.66017,1.85832 4.27918,2.0383 5.74045,-0.21213 11.30419,-2.3257 16.09648,-5.40917 3.13714,-2.19422 6.06968,-4.65341 8.08246,-7.98016 0.93384,-1.80507 -1.73307,-0.79155 -2.55929,-0.63027 -2.79055,1.45495 -6.40048,-0.004 -2.77657,-2.87777 2.26744,-3.46266 5.04567,-6.82305 6.65083,-10.62519 -0.20742,-0.12709 -0.39547,-0.40006 -0.61371,-0.4763 z m -49.82927,10.7858 c -0.12511,-0.0101 0.18055,0.055 0,0 z m -56.029138,2.65668 c -1.385784,1.34783 0.893324,3.04775 1.216777,4.4939 1.33656,3.02974 3.320033,6.04634 3.70209,9.31626 -0.219966,1.85934 -5.15664,-0.8899 -4.124539,1.89893 0.741498,5.77782 4.029764,10.84125 8.138997,14.80613 2.22953,2.01503 5.661628,3.42117 7.933874,4.54316 1.230167,-0.2619 2.358927,-2.07284 4.437978,-1.61367 1.457042,-1.2749 0.320867,-0.48027 2.124302,-1.91018 -2.065342,-5.03557 -2.922004,-10.63957 -1.817401,-16.0211 -0.49672,-2.60094 -0.535509,-5.33722 -3.107635,-7.09423 -4.714975,-5.02063 -11.648119,-8.10717 -18.504443,-8.4192 z m 43.988013,0.27079 c -6.400366,-0.0817 -12.111168,4.04183 -15.989616,8.83167 -3.923271,3.99041 -5.771383,9.84294 -4.395689,15.27894 1.150222,4.91997 3.650216,9.51728 7.420106,12.8971 2.786694,3.21553 6.703415,5.40615 10.613654,6.88405 2.904774,0.0964 5.157261,-2.46491 8.0494,-2.77501 4.33291,-1.5973 -4.335134,-6.19961 -3.298032,-10.0022 0.546858,-2.21383 2.485392,-3.01641 4.526902,-2.86782 3.0549,1.97233 0.74035,-2.28301 1.65209,-3.93774 0.40343,-2.55424 4.76972,-2.39786 5.18694,0.28309 0.30415,2.5424 0.0602,5.21928 0.15278,7.81357 0.89276,-2.08824 2.33702,-4.8616 5.00848,-4.19096 2.43641,0.48679 2.73909,3.48995 2.16526,5.52948 -0.93292,2.64995 0.35804,2.89327 1.79783,0.73569 3.495,-3.24726 6.55203,-7.24805 7.52539,-12.00088 0.65683,-2.93544 0.43912,-5.98399 -0.073,-8.90865 -0.73902,-3.14866 -2.06328,-6.17264 -4.66908,-8.17708 -2.54763,-2.798 -6.37567,-4.09828 -10.03817,-4.61027 -5.22799,-0.11794 -10.45169,-0.10935 -15.635265,-0.78298 z M 56.57,117.65862 c 2.511769,0.84846 2.499334,0.84548 0,0 z m 20.793563,2.65824 c -0.02735,-0.008 -0.169368,0.10031 0,0 z m 76.713147,0.85369 c -0.32723,0.22169 0.005,0.0236 0,0 z m -67.742118,0.54932 c 1.613457,-0.48855 3.658583,0.49163 2.586287,2.2881 -1.731484,1.97268 -4.278043,3.41864 -4.79132,6.17857 0.02804,2.94245 -3.204846,5.69657 -3.149792,1.08333 -0.144173,-2.50534 0.927403,-5.20531 2.441141,-7.17054 0.907214,-0.8679 1.843636,-1.71454 2.913684,-2.37946 z m 63.902558,2.2686 c -0.39239,0.26054 -0.0994,0.0894 0,0 z m -56.449266,0.0729 c 1.756919,0.22646 2.633952,2.56214 1.532206,3.97962 -1.077876,1.84665 -3.780683,2.76102 -5.59294,1.75493 -2.832169,-2.3377 0.998534,-6.52941 4.060734,-5.73455 z M 57.3622,127.38882 c 0.0037,0.0351 0.03633,0.1052 0,0 z m 9.439734,0.21911 c 1.69272,2.40512 2.840669,4.77762 0.639908,0.88667 z m 71.708796,1.80712 c -0.12651,0.007 -0.0276,0.0143 0,0 z m -82.853335,1.96216 c 1.951138,0.0578 3.902268,0.11579 5.853389,0.1741 -1.951137,-0.0578 -3.902267,-0.11581 -5.853389,-0.1741 z m -1.597319,2.82928 c -0.03092,0.005 0.05357,0.10314 0,0 z m 19.888709,1.37408 c -0.01503,0.83808 0.05481,5.92039 -0.0087,3.65422 0.0069,-1.21795 -0.03293,-2.43693 0.0087,-3.65422 z m 0.901753,7.15047 c 0.294271,0.79359 0.484889,1.4239 0,0 z m 0.274919,1.47536 c 0.06005,0.0927 0.06264,0.35197 0,0 z m 68.109013,7.60108 c -3.71638,0.003 -7.46986,-0.26896 -11.02899,1.02512 -3.95424,0.93354 -7.69628,2.76823 -10.7919,5.4062 2.32305,2.54501 5.44349,4.51818 6.56499,7.92485 1.76046,3.27751 2.16142,7.02905 1.97955,10.69578 0.20704,3.93252 -1.2288,7.78538 -2.6632,11.37933 -2.87846,2.92331 0.20953,4.4113 3.38219,5.05906 6.31623,2.44683 13.86236,1.445 19.20804,-2.68436 3.51159,-2.93176 6.41008,-6.60133 7.82385,-11.02154 1.72485,-4.46598 1.81192,-9.50302 0.59402,-14.1011 -0.90272,-3.34954 -2.48703,-6.48617 -5.20983,-8.68177 -2.39951,-3.00986 -6.20856,-4.26411 -9.85872,-5.00157 z m -65.777889,3.77755 c -1.781636,0.58655 -3.977641,0.11805 -6.387243,0.14604 -4.819805,-0.52756 -11.425815,3.85858 -12.565643,4.99121 -2.294739,1.88685 -4.063273,4.86922 -5.003698,7.85466 -0.289792,0.7937 -0.779334,3.79503 -0.749837,5.23132 -0.466533,6.15465 1.347565,10.22403 4.444541,14.52597 2.402385,2.78633 5.431912,4.59773 8.644951,6.12417 7.945155,3.78293 16.246661,0.29029 22.316359,-5.67102 -1.604284,-3.61476 -4.164935,-7.49102 -3.894024,-11.54312 -0.427212,-5.92824 1.719629,-11.53612 5.531432,-15.94165 -0.596868,-2.61673 -3.686872,-3.59419 -6.654476,-4.88896 -1.859121,-0.46434 -3.76544,-0.77339 -5.682362,-0.82862 z m 0.520898,0.53227 c 2.367261,0.008 2.289598,0.0179 0,0 z m 36.986891,1.58491 c -2.05265,0.82698 -4.07183,0.97094 -6.18014,0.30752 -3.18049,-0.54551 -6.44305,-0.92955 -9.342945,0.47803 -1.198378,0.55748 -1.336511,0.47695 -2.930055,1.31345 -2.973813,1.79732 -5.833491,4.40522 -7.378453,7.52769 -1.912411,2.68887 -1.678139,6.44524 -1.598001,9.74817 0.331869,2.91772 1.555414,5.80404 2.670628,8.5115 2.691839,5.27466 7.668145,9.26058 13.475426,10.61522 6.13539,1.81768 12.97906,0.41409 17.71669,-3.9442 3.90914,-4.24999 6.17929,-10.05041 6.05467,-15.8508 0.33247,-4.4332 -1.17241,-8.8715 -3.74538,-12.47628 -1.97389,-3.11526 -5.25442,-5.15128 -8.74244,-6.2303 z m -14.77378,1.80455 c 2.56183,0.33042 -0.25622,2.47178 -1.133129,3.33866 -1.865242,1.76117 -3.783881,3.4844 -4.570693,6.01245 0.0043,2.34879 -4.236697,3.507 -3.431968,0.55338 0.282727,-3.64251 3.500647,-6.02789 5.959017,-8.34029 1.058855,-0.52155 2.117801,-1.0429 3.176773,-1.5642 z m 3.41892,0.84232 c 1.93148,-0.56501 3.94869,1.55227 2.59983,3.40858 -1.28699,2.1343 -4.29722,2.74141 -5.2685,5.22613 -0.45706,1.99596 -3.467571,6.79281 -4.338052,2.71062 -0.03381,-2.59154 1.26366,-5.25277 2.663669,-7.41136 1.316153,-1.44667 2.597393,-2.98933 4.343053,-3.93397 z m -9.273856,2.97708 c -0.500521,0.50761 -1.093096,1.08268 0,0 z M 60.884466,163.491 c 1.727813,-1.67279 5.718419,-4.29491 8.256077,-3.0993 0.0759,0.84759 -2.168938,2.51769 -3.193793,3.195 -1.364132,0.62869 -3.712914,3.82372 -4.208081,4.94759 -0.79207,1.79774 -1.994879,3.81021 -3.630261,4.40214 -1.364208,-2.8755 1.087461,-7.52015 2.776058,-9.44543 z" /></g></svg>
