<svg xmlns="http://www.w3.org/2000/svg" xml:space="preserve" width="409.783" height="409.464" viewBox="0 0 108.422 108.337"><path d="M50.658.092C29.355 1.236 9.717 16.232 2.986 36.46c-7.314 20.303-.844 44.57 15.59 58.551 16.257 14.586 41.559 17.54 60.757 7.174 19.453-9.867 31.453-32.358 28.696-54.018-2.12-21.82-18.903-41.144-40.157-46.413C62.265.266 56.442-.225 50.658.093m9.13 9.28c2.395 3.57 7.096 3.21 9.789 2.125 2.135 5.475 8.236 4.536 12.247 5.656 1.473 3.195 5.836 2.88 3.535 6.872.14 5.937 9.7 2.31 8.17 9.06 3.214 3.047-.548 8.647 4.5 10.733 3.366 3.278-.718 9.003.948 13.216-2.072 1.121-2.1 5.73-2.694 5.614-3.335-2.104-4.32-4.186-.739-6.823 3.285-2.33 1.959-9.829-2.317-5.376-2.459 2.838-4.686 6.635-7.279 1.604-6.792-7.275-13.912-14.235-20.91-21.31 2.802-3.946 7.222-7.345 8.01-12.328-2.402-7.601-9.305.59-11.299 4.346-1.241 5.578-7.254-1.066-7.239-1.278 7.312 1.408 6.034-11.196-.816-8.026-4.183.54-2.414 6.386-2.317 6.31-3.879-2.164-7.43-5.977-12.121-5.928-6.04 2.455-.126 8.504 3.716 9.684 2.763 2.126 10.361 3.616 4.658 7.093-3.276 3.48-6.51 8.66-10.009 2.662-4.383-4.393-9.507-7.934-14.026-12.172 3.498-1.499 4.236-5.962 8.973-4.82 5.066-.274 6.708-8.458 11.479-4.004 4.14 1.37 6.594-4.74 10.393-.983 2.205.773 3.557-1.252 5.349-1.928M33.784 19.09c-6.226-.631-5.778 9.312.184 8.418 5.928.124 5.696-8.639-.184-8.418m42.969 2.44c-7.965.079-2.486 11.774 3.05 6.49 2.3-2.647.64-6.77-3.05-6.49M21.73 24.72C27.082 29.89 32.302 35.2 37.476 40.545c-4.464 4.26-8.789 9.741-13.384 13.234-4.234-1.57-5.435-10.794-9.844-8.962-2.363 6.122 9.486 11.202 1.58 15.206-3.887 1.216-5.266 9.34.12 7.126 3.554-2.462 6.885-9.645 10.243-3.365 2.925 3.637 11.197 7.803 4.078 11.741-3.15 2.298-8.452 12.978-10.293 4.414-4.859-2.396-2.462-8.374-6.252-11.461-4.252-.3-4.774-3.134-1.86-5.982-.293-2.974-1.761-5.052-1.083-8.18-2.999-3.257 3.582-6.413.457-10.359 5.353-2.847-.966-8.334 4.054-11.151.789-4.389 2.657-5.97 6.438-8.085m34.8 6.105c4.69 2.913 8.453 7 12.388 10.81-4.091 2.87-8.039 10.227-12.28 10.199-3.659-3.39-7.044-7.062-10.572-10.587 3.605-3.152 6.955-8.11 10.465-10.422m-36.314.14c-5.676.907 1.242 8.453 2.375 2.379.207-1.353-1.07-2.513-2.375-2.38m67.942.062c-6.893 1.668 4.078 8.947 2.64 2.11-.171-1.21-1.434-2.163-2.64-2.11m-32.606 3.427c-5.598-.494-6.44 8.172-1.25 9.16 6.71 2.36 9.987-8.26 2.615-9.115l-.68-.061zm-33.847 1.9c-6.475-.7-5.651 9.468.398 8.27 5.237-.674 5.212-8.256-.398-8.27m65.031.485c-6.712-.11-4.196 10.62 1.812 8.588 5.94-1.02 3.94-9.727-1.812-8.588m-44.123 8.28c3.254 4.006 9.982 8 10.878 12.164-3.813 2.214-6.392 11.473.486 9.86 3.388-2.202 4.936-9.343 8.624-3.44 2.777 3.276 10.276 6.557 3.75 10.06-3.936 2.526-6.955 10.105-10.9 10.299-4.681-3.776-10.786-8.209-13.279-13.123 3.16-2.177 9.526-11.047 1.715-9.99-4.012 1.67-5.853 8.055-10.273 3.832-3.62-1.997-7.576-5.798-2.17-8.697 2.286-2.57 3.083-4.164 3.74-.151 2.654 5.55 11.927-.01 7.48-4.677-1.87-3.006-8.06-.008-3.107-3.873.858-.492 2.117-3.09 3.056-2.265m33.076 3.085c2.964 3.937 9.306 7.827 10.192 11.734-3.485 2.416-7.025 9.637-10.766 8.594-4.01-3.87-8.085-7.673-12.094-11.544 3.628-3.147 7.217-9.586 10.888-10.637zm-.865 1.895c-7.353.016-4.453 10.995 1.804 8.72 5.21-1.444 3.184-8.925-1.804-8.72m16.492 14.437c2.234 2.427 6.08 3.918 2.29 6.845.282 4.607-6.007 5.79-4.895 10.775-2.181-3.957-11.439-7.66-7.078-11.996.747-1.21 2.78 3.827 5.676 2.482 6.261-.942 1.624-8.29-.112-8.348 1.797-2.368 2.364-1.793 4.12.242m-68.853.752c-6.058-.884-6.059 9.183-.028 8.263 5.414.12 5.796-8.751.028-8.263m33.367 1.979c-6.209-.296-5.457 9.11.447 8.718 6.526.506 5.841-9.578-.447-8.718M79.99 80.2c1.905 2.779 8.012 5.409 3.277 8.239-.311 5.798-7.936 3.727-10.717 8.082-3.3-2.672-10.487-5.894-10.563-9.305 4.321-3.585 8.805-10.714 13.192-11.908zm-41.303-4.23c3.813 4.65 11.374 8.845 13.466 13.117-3.886 2.388-6.945 8.188-11.569 8.187-3.11-4.18-7.942-3.712-12.325-4.576-5.413-4.169 2.914-7.883 4.694-11.708 1.69-1.279 3.789-6.335 5.734-5.02m35.924 2.128c-9.813.615-.78 13.531 3.903 5.89 1.73-2.758-.85-6.19-3.903-5.89m-36.033 2.686c-7.521-.61-5.528 11.482 1.294 8.619 5.657-1.034 4.29-9.132-1.294-8.62M57.027 91.39c2.134 1.322 7.724 4.786 7.453 5.757-3.417 1.24-5.362 4.127-9.3 2.14-2.248 1.25-6.611.772-6.449-1.538 2.812-2.014 5.346-4.677 8.296-6.36"/></svg>