<?xml version="1.0" encoding="UTF-8"?>
<svg xmlns="http://www.w3.org/2000/svg" viewBox="0 0 163.15 303.28">
  <g>
    <path d="m163.15,100.64v10.81c-2.53,6.03-6.98,8.39-13.55,8.19-11.45-.34-22.91-.1-34.37-.1-17.86,0-35.72-.03-53.58.01-6.78.02-11.79,4.72-11.75,10.85.04,6.15,5.02,10.68,11.85,10.77.79.01,1.57,0,2.36,0,28.08,0,56.16,0,84.24,0h3.82v48.61h-3.82c-21.34,0-42.68,0-64.02,0-7.75,0-15.5-.06-23.25.03-4.83.05-8.41,2.36-10.32,6.81-1.78,4.14-.8,7.97,2.12,11.25,2.49,2.79,5.79,3.57,9.44,3.56,29.09-.04,58.18.11,87.27-.12,6.55-.05,11.02,2.15,13.55,8.19v56.06c-.21.52-.49,1.01-.62,1.55-3.68,16.11-16.13,26.12-32.6,26.13-31.9.02-63.79.03-95.69,0-18.7-.02-32.83-14.14-32.87-32.81-.03-15.3.21-30.61-.11-45.91-.14-6.51,2.52-11.98,10.74-13.44v-91.35c-7.41-1.29-10.84-5.14-10.61-12.44.92-28.16,13.07-50.38,36.41-65.93,5.3-3.53,7.71-6.9,6.77-13.03-.39-2.53.11-5.18-.1-7.75-.8-9.96,3.32-16.66,12.83-19.91,16.63,0,33.26,0,49.89,0,.39.21.76.48,1.17.63,7.69,2.71,11.6,8.15,11.63,16.22.02,5.4.14,10.8-.06,16.19-.09,2.46.72,3.72,2.85,4.97,17.8,10.54,30.16,25.59,36.44,45.38,1.71,5.4,2.64,11.04,3.93,16.58Z"/>
  </g>
</svg>