<?xml version="1.0" encoding="UTF-8"?>
<svg xmlns="http://www.w3.org/2000/svg" viewBox="0 0 176.99 505">
  <g>
    <path d="m176.99,205.59v273.46c-1.65,3.74-2.99,7.66-5.02,11.18-4.64,8.05-12.37,12-20.83,14.76H27.84c-.25-.21-.48-.51-.77-.61-17.85-5.95-25.07-15.92-25.07-34.67,0-85.29.07-170.58-.12-255.86-.02-7.78,2.06-14.37,6.76-20.26,6.1-7.65,12.36-15.18,18.55-22.76,14.96-18.3,26.36-38.51,28.78-62.36,1.7-16.81,1.26-33.83,1.61-50.76.02-1.18-1.17-2.62-2.17-3.53-3.92-3.58-5.82-7.86-5.71-13.23.16-7.64-.02-15.3.06-22.94.1-9.31,6.71-15.93,16.05-15.97,15.9-.07,31.8-.09,47.7,0,8.94.05,15.6,6.82,15.72,15.82.1,7.48-.13,14.97.07,22.44.16,5.72-1.67,10.36-5.98,14.11-.9.78-1.94,2.1-1.92,3.15.35,16.93-.13,33.96,1.57,50.77,2.42,23.83,13.9,43.98,28.69,62.42,8.98,11.2,19.83,21.07,25.33,34.84ZM26.07,384.9h126.84v-55.42c-42.38,1.34-84.5,2.67-126.84,4v51.42Zm126.81-83.6v-51.5H26.2v47.46c42.37,1.35,84.37,2.69,126.68,4.03Z"/>
  </g>
</svg>