<svg xmlns="http://www.w3.org/2000/svg" xml:space="preserve" width="321.032" height="891.287" viewBox="0 0 84.94 235.82"><path d="m24.094 0 37.312.159-.104 12.147-37.313-.159zm2.816 21.065-.077-4.254 31.675.03.076 4.255.435-.076.05 9.2.256.179 7.97 4.434 4.842 4.537q9.276 8.022 12.76 15.045l-.032 46.948-2.64 1.588q-3.024 3.229-2.871 7.918-.283 4.767 2.946 7.791l2.64 2.23-.181 11.71-2.384 1.769q-3.28 3.049-3.127 7.738-.027 4.946 2.946 7.791l2.64 2.23.075 11.89-2.64 1.588q-3.025 3.229-3.128 7.74-.026 4.945 3.203 7.97l2.383 2.05.075 11.89-2.64 1.588q-3.024 3.229-2.87 7.919-.104 4.51 2.945 7.79l2.64 2.23-.181 11.711-5.638 3.69-11.584 5.636-49.64-.007-12.197-5.486L0 226.379l.181-11.71 2.384-1.769q3.203-3.484 3.306-7.995l-3.381-7.714-2.384-2.05-.075-11.89 2.64-1.589q3.024-3.228 3.05-8.174.104-4.51-3.125-7.535l-2.383-2.05-.076-11.89 2.384-1.768q3.28-3.05 3.307-7.995-.153-4.69-3.126-7.535l-2.64-2.229.182-11.711 2.383-1.768q3.025-3.228 3.307-7.995-.153-4.69-3.382-7.714l-2.383-2.05L.2 54.3q3.281-6.867 12.406-14.99l5.049-4.484 8.175-4.586.948.283-.05-9.2.179-.255m43.816 38.318-56.148.018.047 32.11 56.148-.018z"/></svg>