<?xml version="1.0" encoding="UTF-8" standalone="no"?>
<svg
   ffdec:objectType="shape"
   height="37.9px"
   width="31.6px"
   version="1.1"
   id="svg2"
   sodipodi:docname="201.svg"
   inkscape:version="1.3.2 (091e20e, 2023-11-25)"
   xmlns:inkscape="http://www.inkscape.org/namespaces/inkscape"
   xmlns:sodipodi="http://sodipodi.sourceforge.net/DTD/sodipodi-0.dtd"
   xmlns="http://www.w3.org/2000/svg"
   xmlns:svg="http://www.w3.org/2000/svg"
   xmlns:ffdec="https://www.free-decompiler.com/flash">
  <g transform="matrix(1.0, 0.0, 0.0, 1.0, 15.1, 19.35)">
    <path d="M-13.8 -14.6 L-8.9 -18.0 -7.8 -16.4 -12.7 -13.0 -13.8 -14.6 M-11.5 -12.1 L-11.9 -12.65 -7.75 -15.55 -7.35 -15.0 -7.3 -15.05 -6.45 -13.85 -6.4 -13.85 -4.95 -14.0 -3.9 -13.85 Q-1.95 -13.65 -0.85 -13.05 L3.45 -6.9 3.25 -6.45 Q3.15 -5.75 3.6 -5.15 4.0 -4.5 4.7 -4.4 L5.25 -4.35 6.3 -2.8 6.15 -2.35 Q6.0 -1.65 6.45 -1.05 6.9 -0.4 7.55 -0.3 L8.1 -0.25 9.2 1.3 9.0 1.75 Q8.9 2.45 9.3 3.05 9.75 3.7 10.45 3.8 L10.95 3.85 12.05 5.4 11.85 5.85 Q11.75 6.55 12.2 7.15 12.6 7.75 13.3 7.9 L13.85 7.95 14.9 9.5 14.5 10.5 13.5 12.3 7.0 16.85 4.9 17.25 3.8 17.25 2.75 15.7 2.9 15.25 Q3.0 14.5 2.6 13.9 L1.45 13.2 0.95 13.15 -0.15 11.6 0.05 11.15 Q0.15 10.45 -0.3 9.8 -0.7 9.2 -1.4 9.1 L-1.9 9.05 -3.0 7.5 -2.85 7.05 Q-2.7 6.35 -3.15 5.7 -3.6 5.1 -4.25 5.0 L-4.8 4.95 -5.85 3.4 -5.7 2.95 Q-5.6 2.25 -6.0 1.6 -6.45 1.0 -7.15 0.9 L-7.65 0.85 -11.95 -5.3 Q-12.15 -6.5 -11.7 -8.4 L-11.45 -9.45 -10.8 -10.8 -10.65 -10.85 -11.5 -12.05 -11.5 -12.1 M-2.25 -11.1 L-9.6 -5.95 -6.65 -1.75 0.7 -6.9 -2.25 -11.1" />
  </g>
</svg>
