<svg xmlns="http://www.w3.org/2000/svg" xml:space="preserve" width="81.12" height="234.495" viewBox="0 0 21.463 62.044"><path d="M4.608 61.911c.257-.067.614-.063.793.01s-.031.128-.468.122c-.436-.005-.583-.065-.325-.132zm.949-.472c-.07-.07-.935-.24-1.924-.38C.83 60.66.017 59.602 0 56.325c-.006-1.12.132-3.049.306-4.286.226-1.609.29-6.803.223-18.256L.436 17.777l.576-1.077c.699-1.305 2.134-3.143 4.184-5.357 1.778-1.921 2.31-3.48 1.44-4.225-.266-.229-.424-.514-.35-.633.183-.296 8.765-.278 8.949.02.08.13-.031.304-.249.388-.27.104-.395.532-.395 1.357 0 1.101.132 1.349 1.523 2.853 2.475 2.675 3.448 3.974 4.188 5.59.69 1.507.698 1.6.673 7.258-.014 3.153-.1 9.9-.192 14.993-.14 7.715-.096 9.797.26 12.48 1.014 7.647.376 9.24-3.952 9.865-1.838.266-11.296.389-11.534.15m.813-2.326c-1.266-.853-1.466-1.809-1.089-5.204.173-1.55.314-3.745.314-4.876v-2.058l1.521.218c2.31.33 4.239.206 6.284-.403 1.019-.304 2.567-.63 3.44-.725 2.13-.232 2.778-.662 2.778-1.845 0-.803-.063-.896-.463-.682-.255.136-1.178.33-2.05.43-.874.1-2.66.47-3.97.82-2.593.694-3.73.748-5.953.282-1.372-.288-1.455-.35-1.455-1.1 0-.573.11-.766.397-.694.218.055 1.528.158 2.91.23 2.031.106 2.844.03 4.234-.398.946-.292 2.494-.615 3.44-.719 2.253-.247 2.91-.67 2.91-1.873 0-.803-.063-.896-.463-.683-.255.136-1.178.33-2.05.432-.874.101-2.501.411-3.617.688-2.001.497-5.3.627-6.967.273-.668-.141-.807-.31-.88-1.063-.074-.776-.021-.868.397-.697.266.109 1.554.259 2.864.333 1.91.109 2.774.026 4.366-.419 1.091-.304 2.699-.63 3.572-.725 2.129-.23 2.778-.66 2.778-1.844 0-.801-.064-.895-.463-.685-.255.134-1.237.327-2.183.429s-2.672.426-3.836.72c-1.641.415-2.623.504-4.366.394-2.874-.181-3.175-.304-3.175-1.296 0-.651.083-.76.463-.605.255.103 1.475.248 2.712.32 1.748.104 2.726.01 4.392-.42 1.178-.303 2.942-.665 3.92-.804 2.118-.3 2.536-.59 2.536-1.767 0-.81-.052-.868-.596-.665-.327.123-1.31.31-2.182.415-.873.105-2.6.432-3.837.727-1.706.406-2.76.5-4.365.39-2.748-.189-3.043-.314-3.043-1.297 0-.732.059-.783.727-.635 2.361.526 4.21.472 7.125-.206 1.627-.378 3.306-.688 3.731-.688 1.181 0 2.44-.524 2.443-1.018.002-.24.081-.725.175-1.077.148-.552.102-.612-.334-.437-.278.112-1.357.312-2.398.446-1.04.133-2.816.479-3.945.768-2.339.598-3.877.655-6.025.223-1.42-.285-1.5-.343-1.5-1.089 0-.692.073-.767.596-.613.328.096 1.488.242 2.58.324 1.607.122 2.513.019 4.762-.54 1.528-.38 3.158-.69 3.621-.69.994 0 2.24-.434 2.522-.877.11-.173.201-.655.203-1.07.004-.62-.079-.72-.459-.557-.254.11-1.324.3-2.377.423a31 31 0 0 0-3.831.755c-2.125.589-4.272.676-6.247.252l-1.304-.28-.178-1.807c-.316-3.214.146-5.522 1.614-8.052.496-.854.856-1.6.799-1.657-.268-.268-2.675 2.736-3.37 4.205-.708 1.496-.782 1.91-.782 4.365 0 1.491-.066 2.712-.146 2.712s-.49-.179-.91-.396c-.9-.465-1.045-.314-.863.886.105.692.324.967.993 1.247.86.359 1.385 1.35.948 1.786-.125.125-.59.038-1.037-.194-1.03-.532-1.167-.526-1.012.044.069.255.194.773.277 1.151.11.492.398.758 1.017.934.724.207.879.39.95 1.122.078.806.036.86-.53.69-.337-.103-.726-.292-.865-.421-.453-.424-.674-.247-.674.537 0 1.193.236 1.56 1.214 1.882.76.25.902.423.902 1.089 0 .697-.07.77-.595.61-.327-.098-.708-.285-.847-.414q-.673-.626-.674.5c0 .951.64 1.852 1.391 1.96.454.064.613.285.676.943.092.954-.043 1.016-1.009.463-.933-.533-1.058-.493-1.058.338 0 .957.61 1.808 1.449 2.018.527.133.667.334.667.957q.002 1.314-1.206.4c-.714-.54-.91-.5-.907.19.008 1.243.322 1.774 1.247 2.108l.928.336-.161 2.912a514 514 0 0 1-.328 5.359c-.113 1.666-.064 2.693.153 3.22.36.868 1.61 1.594 2.76 1.603l.768.006zm7.295-53.456c-.873-.119-2.987-.142-4.697-.051L5.86 5.77V3.392c0-1.744.105-2.483.391-2.769.532-.532 4.785-.816 7.112-.474.998.146 1.865.317 1.928.38.063.062.08 1.29.038 2.73l-.076 2.615zM8.187 3.171c.059-.989-.023-1.374-.313-1.486-.494-.189-.809 1.065-.556 2.215.267 1.215.78.784.87-.729m2.647-.145-.08-1.389-.992-.082-.992-.082v2.942h2.144z"/></svg>