<?xml version="1.0" encoding="UTF-8" standalone="no"?>
<!-- Created with Inkscape (http://www.inkscape.org/) -->

<svg
   width="60.747177mm"
   height="124.094mm"
   viewBox="0 0 60.747177 124.094"
   version="1.1"
   id="svg1"
   xml:space="preserve"
   xmlns:inkscape="http://www.inkscape.org/namespaces/inkscape"
   xmlns:sodipodi="http://sodipodi.sourceforge.net/DTD/sodipodi-0.dtd"
   xmlns="http://www.w3.org/2000/svg"
   xmlns:svg="http://www.w3.org/2000/svg"><g
     inkscape:label="Слой 1"
     inkscape:groupmode="layer"
     id="layer1"
     transform="translate(-70.937242,-86.028532)"><path
       style="fill:#000000"
       d="m 97.752754,209.58934 c 0.327422,-0.0631 1.4982,-0.10639 1.825622,-0.0433 0.327422,0.0631 -0.171378,0.57648 -0.82622,0.57648 -0.654844,0 -1.326823,-0.47013 -0.999402,-0.53319 z m -6.950411,-0.45214 c -4.867508,-1.43986 -16.342229,-6.39109 -17.690066,-7.60878 -1.255436,-1.13421 -2.175041,-2.90884 -2.175041,-4.13694 0,-1.2584 1.39103,-5.37169 2.018954,-5.8115 0.32175,-0.22536 0.778158,-0.56289 0.67047,-0.84351 -0.09398,-0.24491 -0.07849,-0.70465 0.141215,-0.95471 0.218962,-0.24925 0.426001,-1.22528 0.671751,-2.0984 0.245751,-0.87313 1.08189,-3.3139 1.734616,-5.42395 0.652725,-2.11005 1.406499,-4.98198 1.833802,-6.36443 1.219849,-3.94656 2.278256,-7.44972 3.281441,-10.46306 1.453203,-4.36509 4.672648,-15.09687 6.187759,-21.47695 0.760267,-3.20146 1.091986,-5.3318 1.231041,-5.59839 0.187016,-0.35854 0.58463,-0.81456 0.256176,-1.05473 -0.412866,-0.30189 -0.80705,-1.01128 -0.262984,-2.84182 0.762122,-2.5642 1.561495,-3.74988 2.799125,-4.9444 1.721351,-1.6614 3.058739,-2.20363 7.293539,-2.21222 l 3.599429,0.19405 0.958,-1.1268 c 1.42071,-1.67103 1.57994,-2.0087 4.24279,-11.63814 1.84424,-6.66921 3.34464,-11.21698 3.94879,-13.09654 0.27803,-0.865 0.47666,-1.912101 0.47666,-2.450359 0,-0.564946 0.16159,-1.136147 0.36256,-1.213266 0.19148,-0.07348 0.33594,-0.94581 0.53269,-1.797408 0.42832,-1.853904 0.59965,-2.182021 1.4832,-2.289121 0.72922,-0.08839 1.20402,-1.015534 2.43797,-5.357324 0.74763,-2.630616 1.64582,-2.700943 3.4172,-2.347918 2.26879,0.452155 8.43709,2.101925 9.83839,2.631369 2.01897,0.762819 2.02614,0.832914 0.54093,5.291034 -1.05522,3.167397 -1.18294,4.198756 -1.69251,4.449305 -0.80215,0.39441 -0.77653,0.635429 -0.78161,1.530148 -0.002,0.41718 -0.34648,1.30452 -0.66697,1.52901 -0.52532,0.36794 -1.37252,3.85793 -2.39358,8.97191 -0.17433,0.87313 -1.21147,5.19015 -2.21655,9.46991 -1.00508,4.27976 -1.78411,8.18104 -1.78411,8.79298 0,1.62013 0.45657,1.8326 2.32511,2.23478 2.14336,0.46132 3.35629,1.15131 4.79865,2.69331 2.35555,2.51828 2.89452,4.90625 1.807,8.53747 -0.3427,1.14427 -1.65949,5.73896 -2.97913,10.10458 -1.31964,4.36563 -3.48516,11.42098 -4.72407,15.71384 -1.23891,4.29287 -3.77859,12.93934 -5.62609,19.19672 -3.82192,12.94465 -4.6839,15.89101 -4.6839,16.78459 0,0.34772 -0.65122,0.41573 -0.77687,0.41573 -0.423,0 0.23504,-2.58257 3.38628,-13.28984 1.72471,-5.86021 3.25424,-11.07166 3.39895,-11.58098 2.27056,-7.99138 7.07861,-24.37109 8.85381,-30.1625 0.73598,-2.40109 1.67735,-5.48213 2.09191,-6.84676 1.10675,-3.64305 0.96256,-5.11721 -0.73527,-7.51747 -1.25353,-1.77212 -2.53349,-2.60797 -4.92813,-3.21818 -3.68137,-0.93809 -3.80105,-1.59518 -1.80934,-9.93426 0.74726,-3.12869 1.89195,-8.06979 2.54376,-10.9802 1.91491,-8.55037 2.14288,-9.38415 2.73925,-10.01896 0.32064,-0.34131 0.56224,-0.94673 0.56224,-1.408929 0,-0.445743 0.1786,-0.958663 0.39688,-1.139821 0.71257,-0.591382 0.42189,-1.010952 -1.09308,-1.577777 -2.70505,-1.012089 -2.56359,-0.575154 -1.49584,-4.620258 0.51642,-1.956425 0.75776,-3.353214 0.67742,-3.562584 -0.0803,-0.209369 -0.74639,-0.390865 -1.30371,-0.491518 -0.55732,-0.100652 -1.71226,-0.355616 -2.6371,-0.637139 -0.92483,-0.281524 -2.00608,-0.491591 -2.47258,-0.367545 -0.92265,0.24534 -0.81464,-0.747008 -1.86157,3.18703 -1.02223,3.841207 -1.00266,3.802035 -1.9926,3.98775 -0.49443,0.09275 -1.00629,0.305019 -1.13747,0.471698 -0.25418,0.32297 -0.56724,1.482983 -0.68094,2.523171 -0.038,0.347941 -0.26772,0.777815 -0.51041,0.955277 -0.2427,0.177461 -0.42268,0.607157 -0.39997,0.95488 0.0227,0.347726 -0.27491,1.674015 -0.66137,2.947325 -1.25874,4.14728 -1.97691,6.63602 -2.65318,9.19427 -0.55782,2.11018 -3.26537,11.66925 -3.77885,13.34132 -0.086,0.27997 -0.69552,1.08547 -1.35453,1.79002 -1.18232,1.26398 -1.35997,1.83019 -0.41323,1.31703 0.93972,-0.50935 1.91732,-1.78528 2.97332,-3.88066 l 1.06672,-2.11667 -0.16039,1.38907 c -0.13113,1.13568 -0.0872,1.38906 0.24094,1.38906 0.22073,0 0.53357,0.15933 0.69519,0.35407 0.16162,0.19474 0.97987,0.50565 1.81833,0.69091 0.83847,0.18526 1.64354,0.42623 1.78906,0.53549 0.14553,0.10925 0.59201,0.27686 0.99219,0.37246 0.54563,0.13034 0.72761,0.33409 0.72761,0.81462 0,0.35244 0.11906,0.71439 0.26458,0.80432 0.14552,0.0899 0.26458,0.70955 0.26458,1.37691 v 1.21338 l -1.79235,-0.15026 c -1.86433,-0.1563 -8.98996,-1.68751 -9.45243,-2.03121 -0.68381,-0.50819 -7.20015,-0.52923 -8.731254,-0.0282 -2.397055,0.78441 -4.009097,2.76275 -4.765164,5.84795 -0.512333,2.09062 -0.411193,2.66012 0.455934,2.56727 0.448613,-0.048 0.625255,0.0881 0.688756,0.53071 0.06892,0.48038 -0.04136,0.59532 -0.5712,0.59532 -0.566341,0 -0.682673,0.15458 -0.846237,1.12448 -0.559145,3.31561 -5.361352,20.69354 -8.316808,30.09635 -0.708963,2.25557 -1.523236,5.05354 -1.809494,6.21771 -0.514931,2.09413 -1.579299,5.66469 -3.413705,11.45169 -0.520452,1.64187 -1.137177,3.09488 -1.370607,3.22917 -0.388367,0.22341 -0.387074,0.31089 0.01523,1.03053 0.34449,0.61623 0.36578,0.81473 0.09839,0.91734 -0.187679,0.072 -0.475656,-0.003 -0.639949,-0.16777 -0.478113,-0.47811 -0.980853,0.24782 -1.733699,2.50338 -0.821918,2.46251 -0.840583,3.1544 -0.124978,4.63264 0.844125,1.74373 2.038606,2.5295 7.122785,4.68562 9.909604,4.20251 12.568904,5.12935 15.607623,5.43968 l 1.984375,0.20265 -1.414319,0.2971 c -0.944896,0.1985 -2.731432,0.034 -4.036388,-0.35206 z m 10.019507,0.22583 c 0.47555,-0.0589 1.18992,-0.0577 1.5875,0.003 0.39757,0.0604 0.008,0.5415 -0.86464,0.54002 -0.87312,-0.001 -1.19841,-0.48385 -0.72286,-0.54272 z m 2.4647,-0.16928 c 0.0164,-0.0788 0.76509,-0.16423 1.56545,-0.24708 0.93942,-0.0972 1.39394,0.28839 0.96693,0.43089 -0.65555,0.21874 -2.66198,0.43832 -2.60454,0.16258 z m -10.852178,-0.71109 c -2.47273,-0.6853 -5.328287,-1.78502 -12.188616,-4.69402 -4.495693,-1.90632 -5.616404,-2.49151 -6.548438,-3.41931 -1.290044,-1.28418 -1.652995,-2.5324 -0.382397,-1.31509 0.902475,0.86463 1.237745,0.91486 0.813349,0.12187 -0.687386,-1.28439 -0.735706,-2.34916 -0.188026,-4.14329 0.293799,-0.96245 0.636666,-1.85758 0.761925,-1.98918 0.133947,-0.14072 1.006792,0.10908 2.119288,0.60651 2.470991,1.10487 8.549111,3.36601 11.229506,4.17751 2.012987,0.60945 6.985197,2.31639 9.260417,3.17907 1.230357,0.4665 6.6005,0.33988 8.54388,-0.20145 1.347,-0.37522 1.4663,-0.60215 2.98088,-5.67029 0.56534,-1.89177 2.40409,-7.96396 4.08611,-13.49374 3.29606,-10.83605 8.70004,-29.18769 9.74796,-33.10355 0.355,-1.32654 0.56902,-2.53377 0.4756,-2.68274 -0.21176,-0.33767 -1.28044,-0.62551 -6.12298,-1.64917 -2.11005,-0.44603 -4.72942,-1.09702 -5.82083,-1.44662 -1.09141,-0.3496 -5.61516,-1.61483 -10.05277,-2.81161 -4.437621,-1.19678 -4.860212,-1.23142 -5.344117,-1.43361 -0.805327,-0.33648 -2.962527,-0.97157 -2.802724,-1.74831 0.272607,-1.32504 1.401024,-4.53285 1.823315,-5.13014 0.604988,-0.8557 2.046247,-2.19942 3.571176,-2.5136 0,0 2.33827,-0.59947 3.64747,-0.0364 0.79448,0.34172 14.05244,2.44578 14.05244,2.44578 1.74625,0.13614 3.65125,0.29242 4.23333,0.34729 2.12118,0.19995 4.78747,0.97282 5.82084,1.68727 1.26282,0.87309 2.65455,2.85502 3.07391,4.3775 0.33209,1.20559 -6.5e-4,2.96001 -1.2624,6.65621 -0.76984,2.25519 -4.90216,15.91825 -5.92162,19.57916 -1.36114,4.88791 -6.99303,24.1847 -9.96142,34.13124 -0.77708,2.60387 -1.2343,4.69669 -1.32949,6.08542 -0.085,1.24042 -0.2983,2.2929 -0.51521,2.54238 -0.20357,0.23414 -1.11101,0.6126 -2.01654,0.84102 -0.90552,0.22842 -2.18218,0.55156 -2.83702,0.7181 -0.65484,0.16653 -3.39328,0.35408 -6.085415,0.41678 -4.349278,0.10129 -5.113964,0.0533 -6.861383,-0.43103 z m 30.679868,-72.54842 c -1.63811,-0.0143 0.87523,2.28733 1.43788,2.85898 0.19735,0.20051 0.48332,3.32896 0.92278,3.77505 0.20141,0.20445 1.57861,-2.30708 1.00545,-3.45299 -0.70124,-1.40201 -0.0898,-3.15251 -3.36611,-3.18104 z m -15.08724,72.2796 c 2.28709,-0.6739 2.87645,-1.25048 3.14587,-2.52205 l 0.21862,-1.0318 0.3117,0.98148 c 0.22588,0.71123 -0.25696,1.63924 -0.77759,2.12199 -0.61779,0.57285 -3.45811,1.31673 -4.29815,1.26598 -0.1841,-0.0111 0.45361,-0.53689 1.3995,-0.8156 z m -9.690962,-8.32186 c -0.488121,-0.10838 -1.884469,-0.72179 -1.84717,-0.96025 0.45112,-2.88414 11.525332,-38.38918 14.995162,-51.78613 0.68436,-2.64229 0.41236,-2.11096 0.92326,-2.11346 0.81468,-0.004 7.94413,1.84583 8.18869,2.0715 0.21628,0.19957 -2.06571,9.17968 -6.01594,22.26095 -1.31832,4.36562 -2.99799,10.87617 -3.97956,14.15039 -3.64276,12.1511 -4.57418,15.353 -4.84922,15.6844 -0.57409,0.69174 -5.30411,1.16131 -7.415222,0.6926 z m 21.089632,-72.66737 c -0.029,-0.59284 1.1366,-6.40998 2.07892,-10.37553 0.41898,-1.76316 0.96731,-4.15824 1.21852,-5.32241 0.25121,-1.16416 0.91455,-3.9475 1.4741,-6.18519 0.55955,-2.23769 0.95313,-4.17245 0.87463,-4.29948 -0.0785,-0.12702 -0.83833,-0.23095 -1.68849,-0.23095 -1.48367,0 -1.56751,0.0369 -2.08763,0.91842 -0.29804,0.50513 -0.62613,1.36834 -0.7291,1.91823 -0.16847,0.89974 -0.14449,0.96443 0.23958,0.6463 0.71693,-0.59384 1.04851,-0.10911 0.85143,1.24469 -0.19471,1.33755 -1.75648,7.50976 -3.22232,12.73486 -0.51031,1.81901 -1.0426,4.01133 -1.18288,4.87183 -0.14029,0.86049 -0.48577,1.88853 -0.76775,2.28454 -0.50166,0.70452 -0.53205,0.71122 -1.41303,0.31191 -0.82937,-0.37592 -0.91344,-0.52471 -1.06654,-1.88766 -0.20192,-1.79753 0.0676,-3.32361 1.6164,-9.1525 0.92194,-3.46968 2.45966,-10.1238 2.45966,-10.64359 0,-0.0396 -0.18243,-0.072 -0.4054,-0.072 -0.22298,0 -0.49948,-0.25431 -0.61446,-0.56514 -0.19939,-0.53898 -0.22275,-0.5298 -0.50478,0.19844 -0.16264,0.41996 -0.37367,1.53748 -0.46894,2.48337 -0.26096,2.59091 -0.85752,6.36523 -1.17093,7.40833 -0.42729,1.42212 -1.08616,5.18236 -1.33053,7.59354 -0.25401,2.50623 -0.43453,2.95971 -0.91606,2.30118 -0.19961,-0.27299 -0.50768,-0.38875 -0.76835,-0.28872 -0.55932,0.21463 -0.57733,-0.63357 -0.0571,-2.68864 0.20794,-0.82137 0.45072,-2.20778 0.53953,-3.0809 0.16113,-1.58422 0.16063,-1.58568 -0.24224,-0.70562 -0.22204,0.48503 -0.84152,2.27097 -1.37663,3.96874 -1.87603,5.95227 -1.85495,3.91444 0.0379,-3.66 1.32322,-5.29511 5.28308,-17.723197 4.57106,-18.163887 l -1.08768,-0.673206 c -0.12738,-0.666363 -0.16678,-0.509023 1.3199,-0.334444 0.82002,0.09629 2.34345,0.466461 3.49122,0.752039 1.14778,0.285578 2.34246,0.590098 2.65346,0.66355 1.23659,0.292056 1.83265,0.545225 2.85362,0.806188 1.06046,0.3571 1.45931,0.36809 1.76667,0.48784 0.0817,0.0318 0.0864,0.0547 -0.22803,0.38937 -0.38396,0.40871 -0.7564,1.57403 -1.19317,3.51912 -0.35769,1.59288 -1.18386,5.03927 -1.78303,7.65864 -0.59917,2.61938 -1.59308,6.73964 -2.15575,9.22671 -0.96017,4.24399 -1.53684,6.94329 -1.58577,5.94206 z m -5.97168,-14.50731 c 0.24987,-1.211 -3.6e-4,-0.9529 -0.36296,0.37437 -0.15563,0.5697 -0.18063,0.92689 -0.0555,0.79375 0.12508,-0.13315 0.31341,-0.6588 0.4185,-1.16812 z m 0.99525,-2.77813 c 0.26916,-1.4747 1.5824,-6.34378 1.947,-7.21887 0.1991,-0.47788 0.35724,-1.31132 0.35142,-1.85208 -0.0105,-0.974239 -0.0138,-0.977179 -0.36129,-0.32175 -0.19288,0.3638 -0.73227,2.32833 -1.19864,4.36562 -0.46636,2.03729 -1.01816,4.25593 -1.22621,4.9303 -0.20805,0.67438 -0.37827,1.38548 -0.37827,1.58023 0,0.59267 0.70861,-0.62118 0.86599,-1.48345 z m 9.71734,-11.141505 c -0.94588,-0.370094 -2.01745,-0.712002 -2.38125,-0.759795 -0.3638,-0.04779 -1.73302,-0.333773 -3.04271,-0.635508 -1.30968,-0.301735 -2.68485,-0.551186 -3.05593,-0.554336 -0.92008,-0.0078 -1.35764,-0.480081 -1.02341,-1.104592 0.16763,-0.313236 0.55489,-0.488634 1.07885,-0.488634 1.19155,0 6.91329,1.214729 9.2182,1.957031 1.85448,0.597237 1.98438,0.688331 1.98438,1.391542 0,1.005318 -0.59836,1.047168 -2.77813,0.194292 z" /><rect
       id="rect1"
       width="19.212048"
       height="28.684381"
       x="127.67682"
       y="113.20762"
       ry="3.1513011"
       transform="matrix(0.9412942,0.33758736,-0.28271746,0.95920323,0,0)"
       rx="1.4022692" /></g></svg>
