<svg xmlns="http://www.w3.org/2000/svg" xml:space="preserve" width="229.596" height="469.017" viewBox="0 0 60.747 124.094"><g transform="translate(-70.937 -86.029)"><path d="M97.753 209.59c.327-.064 1.498-.107 1.825-.044.328.063-.171.577-.826.577s-1.327-.47-1-.534m-6.95-.453c-4.868-1.44-16.343-6.39-17.69-7.609-1.256-1.134-2.176-2.908-2.176-4.137 0-1.258 1.391-5.371 2.02-5.811.32-.225.777-.563.67-.844-.094-.244-.079-.704.14-.954s.427-1.226.673-2.099c.245-.873 1.082-3.314 1.734-5.424.653-2.11 1.407-4.982 1.834-6.364 1.22-3.947 2.278-7.45 3.281-10.463 1.454-4.365 4.673-15.097 6.188-21.477.76-3.201 1.092-5.332 1.231-5.598.187-.359.585-.815.256-1.055-.412-.302-.807-1.011-.263-2.842.763-2.564 1.562-3.75 2.8-4.944 1.721-1.662 3.058-2.204 7.293-2.213l3.6.194.958-1.126c1.42-1.671 1.58-2.009 4.242-11.638 1.845-6.67 3.345-11.217 3.95-13.097.277-.865.476-1.912.476-2.45 0-.565.161-1.137.362-1.214.192-.073.336-.945.533-1.797.428-1.854.6-2.182 1.483-2.29.73-.088 1.204-1.015 2.438-5.356.748-2.631 1.646-2.701 3.417-2.348 2.27.452 8.438 2.102 9.839 2.631 2.019.763 2.026.833.54 5.291-1.054 3.167-1.182 4.199-1.692 4.45-.802.394-.776.635-.781 1.53-.002.417-.347 1.304-.667 1.528-.526.368-1.373 3.858-2.394 8.972-.174.873-1.211 5.19-2.216 9.47s-1.785 8.181-1.785 8.793c0 1.62.457 1.833 2.326 2.235 2.143.461 3.356 1.151 4.798 2.693 2.356 2.519 2.895 4.907 1.807 8.538-.343 1.144-1.66 5.739-2.979 10.104-1.32 4.366-3.485 11.421-4.724 15.714a4208 4208 0 0 1-5.626 19.197c-3.822 12.945-4.684 15.891-4.684 16.785 0 .347-.651.415-.777.415-.423 0 .235-2.582 3.386-13.29 1.725-5.86 3.255-11.071 3.4-11.58 2.27-7.992 7.078-24.372 8.853-30.163.736-2.401 1.678-5.482 2.092-6.847 1.107-3.643.963-5.117-.735-7.517-1.254-1.772-2.534-2.608-4.928-3.218-3.682-.939-3.801-1.596-1.81-9.935.748-3.128 1.892-8.07 2.544-10.98 1.915-8.55 2.143-9.384 2.74-10.019.32-.341.562-.947.562-1.409 0-.446.178-.958.396-1.14.713-.591.422-1.01-1.093-1.577-2.705-1.012-2.563-.576-1.495-4.62.516-1.957.757-3.354.677-3.563s-.746-.391-1.304-.492c-.557-.1-1.712-.355-2.637-.637-.925-.281-2.006-.491-2.472-.367-.923.245-.815-.747-1.862 3.187-1.022 3.84-1.003 3.802-1.993 3.987-.494.093-1.006.305-1.137.472-.254.323-.567 1.483-.681 2.523-.038.348-.268.778-.51.955-.243.178-.423.608-.4.955.022.348-.275 1.674-.662 2.948-1.259 4.147-1.977 6.636-2.653 9.194-.558 2.11-3.265 11.67-3.779 13.341-.086.28-.695 1.086-1.354 1.79-1.183 1.264-1.36 1.83-.414 1.317.94-.509 1.918-1.785 2.974-3.88l1.066-2.117-.16 1.39c-.131 1.135-.087 1.388.241 1.388.22 0 .534.16.695.354.162.195.98.506 1.819.691.838.185 1.643.426 1.789.536.145.109.592.276.992.372.545.13.727.334.727.815 0 .352.12.714.265.804s.265.71.265 1.377v1.213l-1.793-.15c-1.864-.156-8.99-1.687-9.452-2.031-.684-.508-7.2-.53-8.731-.028-2.398.784-4.01 2.762-4.766 5.848-.512 2.09-.41 2.66.456 2.567.449-.048.626.088.69.53.068.48-.042.596-.572.596-.566 0-.683.154-.846 1.124-.56 3.316-5.362 20.694-8.317 30.097-.71 2.255-1.523 5.053-1.81 6.217-.515 2.095-1.579 5.665-3.413 11.452-.52 1.642-1.138 3.095-1.371 3.23-.388.223-.387.31.015 1.03.345.616.366.815.099.917-.188.072-.476-.003-.64-.168-.478-.478-.981.248-1.734 2.504-.822 2.462-.84 3.154-.125 4.632.844 1.744 2.039 2.53 7.123 4.686 9.91 4.203 12.569 5.13 15.607 5.44l1.985.202-1.415.297c-.944.199-2.731.034-4.036-.352zm10.019.226c.475-.059 1.19-.058 1.587.003.398.06.008.542-.864.54-.873-.001-1.199-.484-.723-.543zm2.465-.17c.016-.078.765-.163 1.565-.246.94-.098 1.394.288.967.43-.656.22-2.662.439-2.605.163zm-10.853-.71c-2.472-.686-5.328-1.785-12.188-4.694-4.496-1.907-5.617-2.492-6.549-3.42-1.29-1.284-1.653-2.532-.382-1.315.902.865 1.238.915.813.122-.687-1.284-.735-2.349-.188-4.143.294-.963.637-1.858.762-1.99.134-.14 1.007.11 2.12.607 2.47 1.105 8.549 3.366 11.229 4.178 2.013.61 6.985 2.316 9.26 3.179 1.23.466 6.6.34 8.544-.202 1.347-.375 1.467-.602 2.981-5.67.565-1.892 2.404-7.964 4.086-13.494 3.296-10.836 8.7-29.187 9.748-33.103.355-1.327.57-2.534.476-2.683-.212-.338-1.28-.626-6.123-1.65-2.11-.445-4.73-1.096-5.821-1.446s-5.615-1.615-10.053-2.811c-4.437-1.197-4.86-1.232-5.344-1.434-.805-.337-2.962-.972-2.803-1.748.273-1.325 1.401-4.533 1.824-5.13.605-.856 2.046-2.2 3.57-2.514 0 0 2.34-.6 3.648-.036.795.341 14.053 2.445 14.053 2.445 1.746.136 3.651.293 4.233.348 2.121.2 4.788.972 5.821 1.687 1.263.873 2.655 2.855 3.074 4.377.332 1.206 0 2.96-1.263 6.657-.77 2.255-4.902 15.918-5.921 19.579-1.361 4.888-6.993 24.184-9.962 34.131-.777 2.604-1.234 4.697-1.33 6.085-.084 1.24-.297 2.293-.514 2.543-.204.234-1.111.612-2.017.84l-2.837.719c-.655.166-3.393.354-6.085.417-4.35.1-5.114.053-6.862-.431m30.68-72.549c-1.638-.014.875 2.288 1.438 2.86.197.2.483 3.328.923 3.774.201.205 1.579-2.307 1.005-3.453-.7-1.402-.09-3.152-3.366-3.18m-15.087 72.28c2.287-.674 2.876-1.25 3.146-2.522l.218-1.032.312.981c.226.712-.257 1.64-.777 2.122-.618.573-3.459 1.317-4.299 1.266-.184-.01.454-.536 1.4-.815m-9.691-8.322c-.488-.108-1.884-.722-1.847-.96.451-2.884 11.525-38.39 14.995-51.786.684-2.643.412-2.111.923-2.114.815-.004 7.944 1.846 8.189 2.072.216.2-2.066 9.18-6.016 22.26-1.318 4.366-2.998 10.877-3.98 14.151-3.642 12.151-4.574 15.353-4.849 15.684-.574.692-5.304 1.162-7.415.693m21.09-72.667c-.03-.593 1.136-6.41 2.079-10.376.419-1.763.967-4.158 1.218-5.322s.915-3.948 1.474-6.186c.56-2.237.953-4.172.875-4.299-.079-.127-.838-.23-1.689-.23-1.483-.001-1.567.036-2.087.917-.298.506-.626 1.369-.73 1.919-.168.9-.144.964.24.646.717-.594 1.049-.11.852 1.245-.195 1.337-1.757 7.51-3.223 12.735-.51 1.819-1.042 4.01-1.183 4.871-.14.86-.485 1.889-.767 2.285-.502.704-.532.711-1.413.312-.83-.376-.914-.525-1.067-1.888-.202-1.797.068-3.323 1.617-9.152.921-3.47 2.46-10.124 2.46-10.644 0-.04-.183-.072-.406-.072s-.5-.254-.615-.565c-.2-.539-.222-.53-.504.198-.163.42-.374 1.538-.47 2.484-.26 2.59-.857 6.365-1.17 7.408-.428 1.422-1.087 5.182-1.33 7.594-.255 2.506-.435 2.96-.917 2.3-.2-.272-.508-.388-.768-.288-.56.215-.578-.633-.057-2.689.208-.82.45-2.207.54-3.08.16-1.585.16-1.586-.243-.706-.222.485-.842 2.27-1.377 3.969-1.876 5.952-1.855 3.914.038-3.66 1.323-5.295 5.283-17.724 4.571-18.164l-1.087-.673c-.128-.667-.167-.51 1.32-.335.82.096 2.343.467 3.49.752 1.148.286 2.343.59 2.654.664 1.237.292 1.833.545 2.854.806 1.06.357 1.46.368 1.766.488.082.032.087.054-.228.39-.384.408-.756 1.573-1.193 3.518-.357 1.593-1.184 5.04-1.783 7.659-.599 2.62-1.593 6.74-2.156 9.227-.96 4.244-1.536 6.943-1.585 5.942m-5.972-14.508c.25-1.21 0-.953-.363.375-.156.57-.18.927-.055.793.125-.133.313-.658.418-1.168m.995-2.778c.27-1.475 1.583-6.344 1.947-7.219.2-.478.357-1.311.352-1.852-.01-.974-.014-.977-.362-.322-.193.364-.732 2.329-1.198 4.366-.467 2.037-1.018 4.256-1.226 4.93-.209.675-.379 1.386-.379 1.58 0 .593.709-.62.866-1.483m9.718-11.141c-.946-.37-2.018-.712-2.382-.76-.363-.048-1.733-.334-3.042-.636-1.31-.301-2.685-.55-3.056-.554-.92-.008-1.358-.48-1.024-1.105.168-.313.555-.488 1.08-.488 1.19 0 6.912 1.215 9.217 1.957 1.855.597 1.985.688 1.985 1.391 0 1.006-.599 1.048-2.778.195" style="fill:#000"/><rect width="19.212" height="28.684" x="127.677" y="113.208" rx="1.402" ry="3.151" transform="matrix(.9413 .33759 -.28272 .9592 0 0)"/></g></svg>