<?xml version="1.0" encoding="UTF-8" standalone="no"?>
<!-- Created with Inkscape (http://www.inkscape.org/) -->

<svg
   width="135.46664mm"
   height="107.94999mm"
   viewBox="0 0 135.46664 107.94999"
   version="1.1"
   id="svg1"
   xml:space="preserve"
   xmlns="http://www.w3.org/2000/svg"
   xmlns:svg="http://www.w3.org/2000/svg"><defs
     id="defs1" /><g
     id="layer1"
     transform="translate(-37.258027,-94.525006)"><path
       style="fill:#000000"
       d="m 156.87389,190.81192 c -4.10464,-3.25825 -9.06562,-5.35168 -13.33183,-8.44526 -3.18205,-0.47731 2.38867,-0.5102 -1.2272,-0.79365 -0.89843,0.15651 -0.76196,-3.34279 -1.11441,-1.32291 -2.07213,0.21342 -0.15148,-1.51563 -2.49285,-0.1807 -5.00817,-2.23852 -10.06903,-4.46584 -14.78533,-7.25175 -1.40507,-0.59396 -1.73569,2.51163 -2.7886,3.30636 -1.71258,1.68493 -2.94903,4.26847 -5.16414,5.18442 -1.08853,-0.6016 -0.0194,-3.00772 0.0125,-4.23333 1.02495,-5.49478 2.29755,-11.00507 3.79089,-16.35233 1.72804,-1.6268 1.61936,1.78277 0.83098,2.96698 -1.40941,4.91018 -2.17195,10.0712 -4.14339,14.77945 -1.31647,3.05193 1.00459,0.66631 2.02776,-0.63897 1.89482,-2.15741 3.26493,-4.62395 3.85285,-7.44898 0.79484,-2.52604 1.9188,-4.94265 2.32838,-7.52215 0.52217,-2.16442 1.96851,-4.319 1.61446,-6.55379 -1.52485,-0.30746 -3.8868,0.20489 -4.8876,-0.5789 -0.30549,-0.89763 -2.88292,-0.92218 -2.6682,-1.65632 -0.14368,-0.85283 -3.19724,-1.48252 -4.42779,-2.27837 -7.89381,-2.59357 -15.099859,-7.18269 -22.488454,-10.96455 -5.690235,-2.84994 -11.279094,-6.18922 -17.092288,-8.73125 0.126797,0.85492 2.522997,2.00804 3.489271,3.06433 1.366418,0.65345 2.671956,1.67298 4.293596,2.34621 7.354375,3.86359 14.701351,7.74421 22.066315,11.59075 1.35607,1.16553 3.24277,1.78922 4.63426,3.1069 1.95292,0.77081 3.5777,2.45044 5.40402,3.57188 0.42575,1.5705 -2.34122,0.15443 -3.18741,-0.20564 -4.64221,-2.30496 -8.79086,-5.2084 -13.306769,-7.73285 -4.390894,-2.49554 -8.937194,-4.92646 -13.373706,-7.27506 -5.34269,-2.22799 -10.232469,-5.29828 -15.482927,-7.75104 -1.298379,-0.25339 -1.441702,-1.51036 -3.532845,-1.79304 -0.759767,1.49741 -1.915893,3.25721 -2.270937,4.98459 2.63113,2.10733 5.121519,4.50279 8.003645,6.2227 1.259542,1.37007 -2.46803,-0.34559 -3.301885,-0.85078 -2.295614,-0.0269 -4.259865,-2.21945 -6.430765,-2.30071 -0.805616,0.98049 -0.791271,2.98875 -1.509336,4.30029 -0.36881,1.59993 -1.916712,3.79226 -0.359975,5.12549 0.671774,-0.59437 -0.136493,-3.02375 1.071866,-4.23656 0.802498,-0.76475 0.800347,-4.72946 1.671715,-2.75417 -0.111099,2.26389 -1.656186,4.52888 -1.907244,6.6977 1.396844,-0.63091 2.148108,-3.02443 2.497418,-4.57031 0.111313,-3.78156 0.179015,0.96417 0.751784,-1.34268 0.04112,-3.08052 2.440046,-0.53935 3.775195,0.26542 1.690592,0.98435 2.270151,2.87483 1.183884,4.55127 -0.17047,1.67094 -1.858674,2.82406 -1.742139,4.50427 1.152045,0.37217 5.039897,1.17805 3.072726,-0.75735 -2.352065,-2.13517 1.348139,-1.11608 1.946254,-2.48988 0.742803,-1.64769 -2.114311,-3.82979 -1.690461,-1.04847 -1.441002,1.27242 -0.649093,-3.44594 1.387011,-1.99424 1.543461,0.72595 1.136806,3.70208 2.692873,2.98265 -0.680162,1.92922 -2.776715,3.46082 -2.654033,5.61631 -1.026849,-1.91965 -0.521314,2.28682 0.644617,2.25506 0.677842,2.63329 1.710288,0.23982 2.056464,1.34989 0.844868,0.4903 -0.419193,-2.79041 -0.324146,-3.86105 0.161986,-2.27835 -1.567563,3.67478 -2.104348,1.14558 0.39543,-1.50422 2.328994,-2.79637 2.674516,-4.19677 0.699931,1.26334 -0.215524,3.71664 0.475707,5.26048 0.660582,0.0342 1.583112,-3.01047 2.475035,-4.11532 1.210568,-0.99605 0.514976,-4.78429 2.423453,-2.67685 2.497045,0.75137 4.314672,2.57992 6.238886,4.23948 -0.346414,2.69468 -2.365302,4.9776 -3.704167,7.32095 -0.589508,1.12187 -1.469105,2.89299 -0.125233,2.43497 -1.470111,-0.46384 0.413939,-1.82082 0.68563,-1.08663 1.445695,-0.29616 2.371532,-3.61519 3.050435,-3.80832 0.394545,1.62095 -0.119242,3.41808 0.395995,5.13124 1.006954,-0.71593 1.346303,-2.98051 2.434615,-4.18837 0.729782,-1.24413 1.653109,-3.99892 2.455535,-1.32074 0.05057,1.40131 -1.434263,3.15353 0.691027,2.35299 0.731455,-1.78748 2.704432,-2.19291 3.836523,-0.5167 1.641604,1.65763 -2.262283,2.05181 -1.616246,3.38506 0.26718,1.83923 -0.984438,2.84438 0.626406,4.05672 0.105965,1.45212 2.488796,1.83103 2.967352,3.14356 1.756539,0.177 1.610832,1.33128 3.551465,1.58774 1.79581,0.87007 3.59162,1.74013 5.38743,2.61019 -0.34388,1.0535 -0.31137,3.35887 -2.0216,1.92261 -3.39522,-1.73235 -6.626799,-3.78056 -10.11767,-5.32087 0.80948,1.85279 -2.420164,-1.09285 -3.360616,-1.3727 -12.47695,-7.63281 -25.062393,-15.10471 -37.81365,-22.26278 -4.679662,-2.70749 -9.778543,-4.67615 -14.413965,-7.41969 2.474997,-0.67249 1.708726,0.67569 1.22921,-1.58065 0.91189,-3.90349 2.463217,-7.63865 3.284737,-11.58455 0.847065,-1.95393 1.294596,-4.28894 2.442382,-5.99229 0.724787,-1.626 1.866888,-2.08084 3.837772,-0.9729 9.58436,3.3089 18.262114,8.72303 27.539678,12.76551 1.65602,0.54094 3.123487,1.97096 4.919767,1.85053 0.379677,-1.382 2.582162,-3.69071 0.276522,-4.37087 -3.353366,-1.58822 -6.700559,-3.19202 -10.095024,-4.69089 -1.537741,-3.72522 -1.647316,-7.74632 -1.26657,-11.70302 0.192938,-3.47688 0.251081,-6.9568 0.227343,-10.43856 2.231771,-0.45464 0.366591,3.1017 2.815727,2.59963 2.715065,-0.81089 -1.624293,-1.89371 1.030544,-1.80557 1.364382,2.04154 0.781259,-0.77269 2.353393,1.49541 1.328888,-1.08957 2.992196,0.67022 4.525774,1.01855 4.623094,2.18662 9.242784,4.39022 13.977432,6.33373 7.538004,3.66682 15.183054,6.8388 22.804344,10.27306 5.83101,2.1927 11.55015,4.63078 17.15903,7.33807 2.45527,0.99522 4.58407,2.12732 7.01234,3.06527 2.26765,1.10741 4.60927,1.88685 6.85758,3.08049 -0.26669,6.53939 -0.91617,13.14563 -2.97671,19.38604 -0.32548,2.02393 2.72896,1.84852 4.01914,2.76548 5.44088,1.82823 10.47233,4.59974 15.13628,7.92858 1.00263,1.01105 4.17291,1.90877 2.81799,3.54893 -0.70148,1.64044 -1.06968,3.40401 -2.10877,4.98495 -2.7214,5.5816 -5.53829,11.298 -10.17094,15.56477 z m -1.73556,-2.63761 c 0.29521,-2.76806 -0.45364,0.62913 -0.67042,-1.24966 -2.73139,-0.69861 -0.82231,0.78539 0.67042,1.24966 z m 3.82802,-1.04515 c 0.79066,-1.78634 -1.01387,0.26912 -0.086,0.13297 z m -6.45298,-0.26458 c 8.8e-4,-0.95666 -2.33749,-1.33673 -0.24547,-0.11938 l 0.14262,0.11938 z m 2.08736,-0.52917 c 0.57358,-0.3029 -0.5475,-0.33003 0,0 z m -4.45382,-0.88194 c 0.28364,-1.32586 -0.68086,0.48141 0,0 z m 9.57231,-0.0188 c 1.22876,-2.26602 -1.22423,-0.17669 0,0 z m -10.41016,-0.68673 c 0.57358,-0.3029 -0.5475,-0.33003 0,0 z M 147.92,184.47931 c 3.54674,-0.31738 -1.11348,-0.91793 0,0 z m -0.8599,-0.52512 c 1.4899,-0.0535 -1.46428,-0.5469 0,0 z m 0.66146,-0.26458 c 0.57358,-0.3029 -0.5475,-0.33003 0,0 z m 12.55209,0 c 1.6827,-0.76756 -1.17238,-0.67782 0,0 z m -13.92554,-0.273 c 1.13965,-0.0858 -2.90471,-1.54165 -0.49088,-0.0181 0.12876,0.10683 0.34232,-0.0315 0.49088,0.0181 z m -2.06613,-1.04992 c 0.57358,-0.3029 -0.5475,-0.33003 0,0 z m 0.83785,-0.0882 c 0.28363,-1.32586 -0.68086,0.48143 0,0 z m 8.29027,0.0882 c 0.17866,-0.75691 0.0888,0.003 0,0 z m 7.54063,0 c 0.57358,-0.3029 -0.5475,-0.33003 0,0 z m -14.81667,-0.26458 c 0.57358,-0.3029 -0.5475,-0.33003 0,0 z m 8.35422,-0.0507 c 1.32437,-1.38902 -1.44453,-0.44373 0,0 z m -5.66429,-0.30207 c 0.28363,-1.32584 -0.68086,0.48142 0,0 z m 7.67922,-0.51026 c 1.73103,-2.65241 -2.01551,1.41261 0,0 z m 4.97668,0.33387 c 0.57361,-0.30289 -0.54751,-0.33004 0,0 z m -12.17083,-0.26458 c 0.57358,-0.3029 -0.5475,-0.33003 0,0 z m -3.70416,-0.52917 c 0.57359,-0.30292 -0.54753,-0.33001 0,0 z m 3.26319,0 c 2.47304,-0.73376 -1.94223,-0.2667 0,0 z m 9.70139,0 c 0.57358,-0.3029 -0.5475,-0.33003 0,0 z m -16.13958,-0.26458 c 0.57362,-0.30291 -0.54754,-0.33013 0,0 z m 12.96306,-0.16832 c 1.40325,-1.19013 -1.75201,-0.36095 0,0 z m 7.27756,-0.62543 c 1.14716,-0.6058 -1.09501,-0.66006 0,0 z m -20.71804,-0.36043 c 1.10892,-2.14299 -0.95377,0.007 0,0 z m 4.72429,-0.0782 c 1.04577,-1.24767 2.44794,0.46728 1.65013,-1.14882 0.47865,1.27503 2.00996,-0.43597 2.47298,1.45521 1.00527,-1.01081 2.68572,0.10531 2.0422,-1.98437 0.74254,2.07264 0.60586,1.153 1.99753,1.14031 1.11825,0.83162 -0.26517,-2.57111 1.1286,0.0418 -0.15506,1.11134 1.42763,-0.37068 1.24724,0.4054 1.2648,-2.4136 -0.2633,-1.78157 -0.63053,-1.37264 0.37081,-2.12331 0.6303,-1.8162 0.33073,-2.42089 -0.22751,-0.30917 -2.74855,-0.86678 -3.95166,-1.70818 -6.06951,-2.11895 -12.09591,-4.74736 -17.8204,-7.81055 -2.05456,-1.03648 -4.10911,-2.07296 -6.16367,-3.10944 -1.32554,1.9879 -0.11245,2.43843 0.12068,3.63799 0.0185,1.30956 0.84216,2.4583 1.77035,3.56988 0.77527,1.78017 -1.18205,-0.3469 -1.49678,-1.29564 -1.15205,-1.43538 -1.49823,-0.43818 -0.25904,1.4883 1.35051,1.11232 1.87405,3.06767 3.16829,3.59724 1.05595,0.78061 2.55376,3.94717 2.77978,0.79375 0.27795,-1.79571 1.28517,-1.88316 2.27972,-0.97344 -0.42128,-1.80947 0.33403,0.0915 1.00249,0.8411 -0.13433,-2.17159 0.16546,-1.37421 0.77025,-0.26459 1.04242,0.56405 1.40238,0.22392 3.16477,0.44018 1.50537,0.22503 -1.36357,3.6497 0.67855,2.20556 0.95357,-0.21466 1.28346,0.40839 3.07428,1.13988 -1.37122,0.0963 0.34147,1.2374 0.64351,1.33197 z m 0.54647,-0.88423 c -0.96953,-1.69253 0.55088,-1.89199 0,0 z m -0.82459,-0.26459 c -0.57361,-0.30289 0.54751,-0.33004 0,0 z m 3.175,0 c -0.57361,-0.30289 0.54751,-0.33004 0,0 z m 1.85208,0 c -0.57358,-0.3029 0.5475,-0.33003 0,0 z m 2.38125,0 c -0.57358,-0.3029 0.5475,-0.33003 0,0 z m -5.02708,-0.52916 c -0.57362,-0.3029 0.54752,-0.33006 0,0 z m 7.14212,0 c -1.43474,-1.77829 0.59341,-2.40826 0,0 z m -10.05254,-0.26459 c -0.57358,-0.3029 0.5475,-0.33003 0,0 z m -2.91042,-1.32291 c -0.57359,-0.30291 0.54751,-0.33005 0,0 z m 1.05834,0 c -0.57362,-0.3029 0.54752,-0.33006 0,0 z m 11.39269,-0.52917 c -1.42163,-1.04227 0.42724,-0.47547 0,0 z m -26.20936,-11.37708 c -0.57359,-0.30291 0.54751,-0.33005 0,0 z m 10.36285,14.99305 c 0.28364,-1.32586 -0.68086,0.48141 0,0 z m -1.89618,-0.17639 c 0.57359,-0.30292 -0.54753,-0.33001 0,0 z m -0.48507,-0.35278 c 0.28363,-1.32585 -0.68086,0.48143 0,0 z m 2.11666,-0.26458 c 0.28364,-1.32586 -0.68086,0.48141 0,0 z m 4.71841,0.0882 c 0.57359,-0.30293 -0.54754,-0.33003 0,0 z m -4.09274,-0.26459 c 1.20384,-1.25843 -0.71272,-0.83157 0,0 z m 1.97607,0 c 0.57358,-0.3029 -0.5475,-0.33003 0,0 z m 16.66875,0 c 2.07662,-0.65326 -1.71274,-0.28016 0,0 z m -22.85523,-0.26458 c -0.42302,-0.94303 -0.0282,-0.23258 0,0 z m 27.88231,0 c 0.57358,-0.3029 -0.5475,-0.33003 0,0 z m -29.02857,-0.26458 c 1.10066,-1.37275 -0.9138,-1.1049 0,0 z m 8.65566,0 c 0.57359,-0.30293 -0.54754,-0.33003 0,0 z m -3.96875,-0.26459 c 0.57359,-0.30292 -0.54753,-0.33001 0,0 z m 19.47927,-0.26458 c 2.3493,-0.50063 -2.77218,-1.31602 -0.19756,0 z m -18.68552,-0.79375 c 0.57359,-0.30292 -0.54753,-0.33001 0,0 z m 2.13228,-0.79375 c 0.34062,-0.39147 -1.04699,-0.92066 -0.11668,0 z m -19.2105,-3.04271 c 0.95497,-1.21595 0.99031,-5.51487 0.21466,-1.91394 -0.1923,0.579 -1.40852,3.92184 -0.21466,1.91394 z m 45.41619,0.0606 c 0.211,-2.03684 -0.53423,0.13901 0,0 z m -8.70658,-1.67481 c 1.48475,-2.96161 -2.24098,0.39534 -0.15914,0.21763 z m -2.96265,-0.89936 c 0.57361,-0.30289 -0.54751,-0.33004 0,0 z m 5.82084,-0.79375 c 0.57358,-0.3029 -0.5475,-0.33003 0,0 z m -4.7625,-0.26458 c 0.57359,-0.30291 -0.54751,-0.33005 0,0 z m -1.4601,-1.41926 c 2.44429,-1.95737 -0.67689,-1.73079 -0.86406,0.31118 -0.56873,1.50851 0.36636,0.18712 0.86406,-0.31118 z m 2.03336,0.80189 c 0.28363,-1.32585 -0.68086,0.48143 0,0 z m -33.11701,-0.17638 c 0.57359,-0.30291 -0.54751,-0.33005 0,0 z M 158.83406,167.55 c 0.57358,-0.3029 -0.5475,-0.33003 0,0 z m -33.3375,-0.26458 c 0.57359,-0.30291 -0.54751,-0.33005 0,0 z m 24.60625,-0.35908 c 2.11102,-2.82857 -1.61283,0.85038 0,0 z m 8.20208,0.0945 c 0.57361,-0.30289 -0.54751,-0.33004 0,0 z m 0.52917,-0.26458 c 0.57358,-0.3029 -0.5475,-0.33003 0,0 z m -33.07291,-0.26458 c 0.57359,-0.30293 -0.54754,-0.33003 0,0 z m 19.99872,-1.49971 c 1.7094,-3.18839 -1.65046,0.72798 -0.36372,0.71342 0.12124,-0.2378 0.24248,-0.47561 0.36372,-0.71342 z m -57.144956,0.29195 c 1.367027,-1.40801 -3.011471,-0.99731 -0.540283,-0.64433 0.187994,0.15899 0.143459,1.13455 0.540283,0.64433 z m 0.633734,0.14942 c 0.573587,-0.3029 -0.547509,-0.33003 0,0 z m -2.381249,-0.26458 c 0.573584,-0.3029 -0.547511,-0.33003 0,0 z m -0.771933,-0.33682 c -0.124026,-0.90328 0.01414,-5.02568 -0.53274,-3.97904 -0.333931,2.65922 -1.936658,2.25508 -2.672632,1.70088 0.705596,1.76634 2.287175,2.04197 2.420021,1.82584 0.23777,0.0806 0.577603,0.57468 0.785351,0.45232 z m 6.494223,-0.73089 c 1.782731,-0.74602 0.0548,-3.17272 -1.50023,-2.53461 -2.944498,0.60786 -0.379997,2.08554 1.218451,2.45794 l 0.115738,0.0662 z m 33.744721,-0.3434 c 0.28364,-1.32586 -0.68086,0.48141 0,0 z m 25.91263,0.0165 c 0.21101,-2.03687 -0.53426,0.13904 0,0 z m -10.87548,-0.4575 c 0.57359,-0.30291 -0.54751,-0.33005 0,0 z m -3.65437,-0.79375 c 2.21043,-1.59136 0.67481,-0.58575 -0.7861,-0.80587 0.2763,0.21012 0.43939,0.75638 0.7861,0.80587 z m 4.28355,0 c 0.60207,-1.91206 2.21462,-1.87873 2.67811,-1.75985 -1.32766,-2.32295 -2.48501,0.0363 -2.82143,1.01492 0.0894,0.18933 -0.29582,0.90151 0.14332,0.74493 z m -61.092772,-0.26459 c 1.761775,-0.33454 -2.182398,-1.88216 -0.239659,0 z m 55.436512,-0.52916 c 0.57359,-0.30291 -0.54751,-0.33005 0,0 z M 94.178347,161.2 c 1.998832,-0.76898 0.211916,-3.70878 -1.09324,-1.50549 -0.129982,0.56854 0.575632,1.40315 1.09324,1.50549 z m 43.706383,-0.55691 c 1.50806,0.49706 -1.71591,-1.53985 -1.50128,-1.16898 -0.41839,0.70882 0.8688,1.43162 1.50128,1.16898 z m -59.219414,-0.23684 c 0.573584,-0.3029 -0.547511,-0.33003 0,0 z m 55.086064,-0.55303 c 2.08022,-0.69594 1.27114,-3.61196 0.60823,-1.09922 -1.33746,2.05533 -3.32176,-1.61795 -1.2533,-1.58052 1.95765,1.80494 -0.25411,-1.86822 0.22879,-1.94747 -0.66421,1.11321 -3.21028,3.408 -1.18644,4.16814 0.53211,0.15847 1.07589,0.2862 1.60272,0.45907 z M 78.136149,159.6125 c 0.573588,-0.3029 -0.547512,-0.33003 0,0 z m 2.940483,-0.0168 c 1.548326,-0.49001 2.622084,-2.67634 1.278609,-4.0612 0.332053,-1.15252 2.939964,-2.23046 1.177361,-3.87611 -1.188262,-1.08899 -3.5033,-2.74145 -3.957798,-0.1392 -1.073775,1.90132 -1.716141,4.27365 -3.055902,5.88456 -1.045934,0.44289 0.665653,1.639 1.097534,0.3576 1.09929,0.69256 2.128276,1.67197 3.460196,1.83435 z m -0.719884,-2.18389 c -1.803432,0.62725 -1.108394,-3.44675 0.203826,-1.98105 0.896056,0.53701 0.851276,1.76839 -0.203826,1.98105 z m 0.690429,-3.35559 c -1.462848,-0.003 -0.261222,-3.43965 0.746778,-1.63873 0.943711,0.35594 -0.23022,1.69251 -0.746778,1.63873 z m -3.969361,5.02708 c 0.573584,-0.3029 -0.547511,-0.33003 0,0 z m 60.192704,0 c 1.48985,-0.0535 -1.46421,-0.54691 0,0 z m -1.8677,-1.5875 c 1.103,-0.60894 -0.7416,-0.59004 0,0 z m 10.21655,-0.90191 c 2.51626,0.22944 -0.32403,-2.89895 1.45934,-3.06686 -0.78947,3.03199 0.64799,-1.24281 0.54368,-2.56872 0.85257,-4.33629 1.27791,-8.72667 1.49612,-13.13774 -1.65577,-1.94863 -1.22203,2.24432 -1.6503,3.3023 -0.95247,4.99602 -1.52149,10.06699 -2.86102,14.98458 0.23679,0.51434 0.39929,0.70413 1.01218,0.48644 z M 72.315316,156.4375 c 0.573588,-0.3029 -0.547512,-0.33003 0,0 z m 62.293754,0 c 1.103,-0.60895 -0.7416,-0.59006 0,0 z m -21.01876,-0.52917 c 0.57361,-0.30289 -0.54751,-0.33004 0,0 z m -43.532013,-0.69749 c -0.366425,-1.12138 -2.772635,-0.5494 0,0 z m 0.140352,-0.89001 c 0.573587,-0.3029 -0.547509,-0.33003 0,0 z m 49.212501,0 c 0.57358,-0.3029 -0.5475,-0.33003 0,0 z m -51.329167,-0.26458 c 0.573584,-0.3029 -0.547511,-0.33003 0,0 z m 75.670827,-0.26458 c 0.57359,-0.30291 -0.54751,-0.33005 0,0 z m -8.03558,-1.21475 c 1.65053,-2.35822 -1.99336,0.97069 -1.35713,-1.72688 1.55742,-0.23695 -1.62822,0.51251 -1.05833,-0.41536 1.73805,-0.71495 0.0644,-1.96948 -0.84341,0.24583 -1.46518,-0.38054 0.93925,-3.61491 -0.80496,-2.20517 -1.42307,0.66497 1.47972,-1.60939 0.36663,-2.15647 -0.16112,-0.92298 -0.30197,-3.22449 0.22978,-0.85751 1.38131,-0.26059 0.72973,-0.84228 2.60691,-0.39908 -0.28086,-0.70807 -0.7175,-2.59827 1.16153,-2.17521 3.03459,0.14196 -1.23927,3.50745 -0.0874,0.85045 -1.15311,0.30602 -0.80483,3.01565 0.0767,2.20903 0.83687,-0.14478 1.11874,-2.33021 1.88291,-1.21684 0.77553,0.34967 -0.97536,-2.36457 -0.59136,-2.37109 0.62027,-0.26281 -0.39752,-2.26258 1.16178,-2.96928 0.0341,1.14207 1.81457,1.55103 1.71979,2.80957 -0.69873,1.65785 -0.5658,1.72038 0.81998,2.33153 0.58223,-0.21076 -0.64696,-2.41848 -0.27835,-2.24635 1.66708,0.0239 1.73988,0.56806 3.53771,-0.2955 0.4578,-0.41448 1.69036,-2.71572 1.87282,-2.04443 -0.1688,1.57738 0.61814,-1.76838 0.81609,-2.65507 0.6919,-1.95406 -2.1725,-0.63684 -3.46266,-1.42138 -3.26401,-1.21337 -6.97513,-1.28772 -10.18473,-2.84363 -1.2296,-0.4453 -3.36743,-0.8263 -4.82487,-1.73121 -1.65642,-0.72953 -3.31119,-1.46278 -4.96471,-2.19885 0.58821,-2.01874 -2.08543,-0.77022 -3.27838,-1.9628 -1.70712,-1.13338 -3.92084,-2.22543 -5.71745,-2.5734 -1.026,-0.71997 -3.6036,-1.53904 -4.23334,-2.25251 -1.61653,0.0319 -2.68868,-1.41202 -4.29662,-1.81128 -1.88909,-0.9063 -3.3652,-2.23224 -5.42418,-2.91604 -1.567762,-0.94191 -2.702658,-0.42224 -3.552146,-1.30106 -1.291032,-1.04854 -3.001024,-1.74805 -4.158863,-1.32239 -1.379379,-1.20148 -3.11831,-0.16552 -3.999119,-0.59106 -0.839166,0.24321 -2.847749,-1.21078 -3.704166,-0.0843 1.626367,0.78024 2.000807,1.62848 2.603403,3.23819 0.859057,1.31357 0.07941,3.53183 0.322243,5.1856 0.89449,-1.16329 0.895175,-4.07501 1.591264,-4.43301 0.938462,1.50743 -0.533949,3.51228 -0.599027,5.22676 -0.810102,2.05179 -0.167543,4.65929 2.077978,5.41177 1.71265,0.33962 1.953256,-1.74071 1.898459,-3.03052 -0.105821,2.30021 -2.346053,1.74168 -3.214559,0.29168 -0.653092,-2.25545 1.274123,-4.41909 0.876423,-6.74275 2.108367,-0.42216 0.674984,2.2791 0.417076,3.47615 -0.799804,1.1275 -0.644512,5.11062 0.521824,2.20545 0.824086,-1.31524 1.13606,-3.73579 1.457126,-4.47901 2.089518,-0.0912 0.641905,4.23003 2.366518,1.90339 -0.926782,3.34678 0.49319,-1.14308 1.695082,-0.25143 1.763252,0.46555 1.299121,4.27847 0.421585,2.57105 0.110345,-2.33895 -1.547841,-2.2992 -1.919292,-0.0298 -0.486479,1.71099 -2.692478,3.67773 -1.249,5.32191 1.597793,1.68643 3.057826,-0.37451 3.909223,-1.72494 0.629398,-1.69216 1.263218,-3.89333 1.599312,-5.31958 2.167786,0.78697 0.114736,3.04164 -0.183549,4.54947 -0.153249,1.15516 -2.291763,4.06359 -0.611008,4.0659 0.828868,-1.85944 1.745133,-2.88356 1.759583,-0.0929 0.078,2.95047 1.48751,-0.59776 1.94769,-1.61999 1.41673,-0.75381 0.15603,-5.12773 1.51716,-3.36381 1.79729,1.06235 -1.20713,3.19992 0.10486,3.77077 -1.94198,0.91769 1.25796,-0.1373 1.35543,0.76137 -1.07178,1.4074 1.20529,3.11479 0.80554,1.14558 -1.29341,-2.15979 0.23113,-1.14131 1.81115,-0.69306 -1.38608,0.67541 1.41539,1.42097 -0.11374,1.60538 -0.42509,1.78726 0.4356,1.53879 1.96572,2.04217 -1.38132,-0.78825 1.05874,-0.92356 0,0.52917 -0.67641,-0.47785 1.99151,2.27191 1.84798,0.19844 -1.87339,-0.60143 1.05827,-1.54675 1.26737,-0.5748 -1.31241,-0.23825 1.26451,2.33027 2.04382,1.40345 -1.27724,1.88177 0.18262,0.11489 1.37623,0.55182 -0.69023,2.68766 1.11477,0.0995 1.48869,0.38231 -0.89867,0.29395 0.53685,1.70094 -0.35129,2.30369 2.13974,-0.81513 0.60495,0.4815 1.76159,0.79709 1.19295,0.17983 1.21512,-2.6705 2.26114,-0.12127 -1.20462,1.91818 0.72445,0.60634 0.49201,-0.57488 1.48958,1.20838 0.8624,3.05746 1.08172,3.44281 0.77393,-1.6111 1.20394,0.11289 1.00877,-1.98761 2.23347,1.46945 0.39192,-1.18539 1.25669,-0.91661 1.35384,1.11303 -1.03768,1.64624 -0.98203,3.32909 0.463,-0.20321 1.90844,3.09943 1.1586,0.29906 1.30062,-1.48091 -0.28614,-1.74434 1.44765,-2.38697 -0.08,1.35894 1.03963,2.03981 -0.69055,3.26399 0.20411,1.55874 0.0535,1.23264 1.73384,1.98724 -0.52775,1.99792 2.42659,0.67678 0.31921,-0.0381 0.97745,-1.37654 -0.0976,-2.77833 1.32292,-1.04888 1.99034,-0.0386 -0.83957,0.0315 0.0312,1.59675 0.86745,-0.78019 1.96356,-1.22894 0.55926,0.21364 -2.70039,2.26335 0.48831,1.26496 0.13031,1.74632 -0.53494,1.06191 2.98291,1.76806 4.07425,2.68723 0.25823,0.0264 0.54834,0.49947 0.79573,0.22304 z m -7.44254,-5.929 c -0.1998,-0.99641 -1.82815,-2.47978 0.26458,-1.25813 -0.203,0.25278 0.37956,1.47581 -0.26458,1.25813 z m 3.04271,-0.26459 c -0.57361,-0.30289 0.54751,-0.33004 0,0 z m 0.0441,-0.61736 c -0.65667,0.28728 0.33237,-1.19693 0,0 z m -0.56563,-0.70555 c -2.40361,-1.21854 2.36209,-1.91847 0.28225,-0.82877 -1.1876,-1.03118 0.0368,0.64138 -0.28225,0.82877 z m -1.82968,-0.26459 c -0.91226,-1.83114 0.54087,-2.39083 0,0 z m 4.46788,-0.79375 c -0.57358,-0.3029 0.5475,-0.33003 0,0 z m 4.23334,0 c -0.57361,-0.30289 0.54751,-0.33004 0,0 z m -7.96836,-0.79375 c -0.65292,-1.38759 1.00917,-1.51457 0,0 z m 0.54441,0 c -0.80887,-0.68985 1.3568,-0.86982 0,0 z m 1.33853,0 c -0.57358,-0.3029 0.5475,-0.33003 0,0 z m 0.52917,0 c -0.57361,-0.30289 0.54751,-0.33004 0,0 z m 2.14497,0 c -1.12651,-1.14625 0.63574,-1.07535 0,0 z m -5.9486,-0.98777 c -0.91754,0.93298 0.61909,-1.51295 0.1057,-0.10491 z m 7.42172,-0.16255 c 0.21745,0.30392 -1.49783,-2.68978 -0.76364,0.22013 -1.36577,-0.70634 -0.0528,-2.95301 0.81327,-2.32534 1.26219,0.85356 0.42184,-1.72376 1.80526,0.66652 -1.78048,-0.42618 -0.32881,1.75552 -1.24273,1.50184 0.63718,-0.75755 -0.55542,-0.666 -0.61216,-0.0632 z m -5.99934,-0.17259 c -0.57361,-0.3029 0.54751,-0.33006 0,0 z m 12.17083,0 c -0.57358,-0.30291 0.54751,-0.33005 0,0 z m -17.4625,-0.52917 c -0.57358,-0.3029 0.5475,-0.33003 0,0 z m 19.88785,-0.0882 c -0.65666,0.28725 0.33236,-1.19692 0,0 z m -10.58334,-0.26459 c -0.65667,0.28728 0.33237,-1.19693 0,0 z m -9.78958,-0.52916 c -0.65667,0.28723 0.33238,-1.19691 0,0 z m 0.48507,0.0882 c -0.57358,-0.3029 0.5475,-0.33003 0,0 z m 4.23333,0 c -0.57358,-0.3029 0.5475,-0.33003 0,0 z m 3.70417,0 c -0.57358,-0.3029 0.5475,-0.33003 0,0 z m 2.02847,-0.26458 c -1.26457,-1.29647 1.02365,-0.62335 0,0 z m 4.32153,-0.79375 c -0.57358,-0.30291 0.54751,-0.33005 0,0 z m -16.66875,-0.26459 c -0.57358,-0.3029 0.5475,-0.33003 0,0 z m 0.79375,0 c -0.57358,-0.3029 0.5475,-0.33003 0,0 z m 18.78542,0 c -0.57361,-0.30289 0.54751,-0.33004 0,0 z M 119.00597,138.975 c -1.20382,-1.25842 0.71268,-0.83158 0,0 z m 0.93434,0 c -0.57359,-0.30292 0.54753,-0.33001 0,0 z m 20.6375,0 c -0.57358,-0.3029 0.5475,-0.33003 0,0 z m 5.29167,0 c -0.57358,-0.3029 0.5475,-0.33003 0,0 z m -25.324,-0.75717 c -1.76969,0.98043 0.36981,-1.77899 0,0 z m 5.48025,0.228 c -0.57358,-0.3029 0.5475,-0.33003 0,0 z m -6.34159,-0.64588 c -1.52866,1.60678 1.36381,-2.74231 0,0 z m 19.57076,0.3813 c -0.57361,-0.30289 0.54751,-0.33004 0,0 z m 6.87916,-0.26458 c -0.57358,-0.30291 0.54751,-0.33005 0,0 z m -29.76562,-0.79375 c -1.48238,-1.7566 0.95077,-0.97132 0,0 z m 1.42398,0 c -0.26114,-0.75356 1.03127,-0.52399 0,0 z m -2.61461,-1.05834 c -0.57359,-0.30292 0.54753,-0.33001 0,0 z m -0.52916,-0.52916 c -0.57358,-0.30291 0.54751,-0.33005 0,0 z m 0.52916,-0.26459 c -0.57359,-0.30292 0.54753,-0.33001 0,0 z m 2.11667,-0.26458 c -0.57358,-0.3029 0.5475,-0.33003 0,0 z m -7.67292,-0.79375 c -0.57359,-0.30292 0.54753,-0.33001 0,0 z m 0.95888,-0.19403 c -0.91755,0.93298 0.61908,-1.51293 0.10569,-0.10491 z m 1.15779,-0.0705 c -0.57358,-0.30291 0.54751,-0.33005 0,0 z m -1.71979,-0.26459 c -1.49021,-0.0535 1.46477,-0.54687 0,0 z m 2.24896,0 c -0.57358,-0.3029 0.5475,-0.33003 0,0 z m -3.43959,-1.5875 c -0.57359,-0.30292 0.54753,-0.33001 0,0 z m -1.19062,-1.32291 c -1.48997,-0.0535 1.4644,-0.54691 0,0 z m -2.24896,-0.52917 c -0.57358,-0.3029 0.5475,-0.33003 0,0 z m 0.79375,0 c -0.57358,-0.3029 0.5475,-0.33003 0,0 z m 2.11667,0 c -0.57358,-0.3029 0.5475,-0.33003 0,0 z m -11.601411,-1.20094 c -1.636349,1.63673 -1.75388,-3.70701 -0.153768,-1.74631 0.558152,0.44187 0.7712,1.24559 0.153768,1.74631 z m 5.659561,-0.79041 c -0.60846,-0.10633 -1.33846,-4.62251 0.26672,-2.48152 0.54108,0.65102 0.14646,1.94169 -0.26672,2.48152 z m -0.95293,-4.09407 c -0.80886,-0.68984 1.35679,-0.86982 0,0 z m -6.598972,-1.32291 c -0.573588,-0.30291 0.547513,-0.33005 0,0 z m 0.79375,-0.52917 c -0.573588,-0.3029 0.547512,-0.33003 0,0 z m -6.879166,-5.02708 c -0.573587,-0.30291 0.54751,-0.33005 0,0 z M 88.190315,116.75 c -0.573588,-0.3029 0.547512,-0.33003 0,0 z m 55.562495,35.98333 c 0.57358,-0.3029 -0.5475,-0.33003 0,0 z m -80.896348,-2.13239 c 1.1569,-1.28537 -2.80796,-2.10915 -0.400704,-0.0862 0.08117,0.14657 0.258713,0.0764 0.400704,0.0862 z m 81.160938,0.0157 c 0.57359,-0.30293 -0.54754,-0.33003 0,0 z M 65.773427,150.348 c 1.433192,-0.65096 0.287966,-3.09138 1.672817,-4.10006 1.378324,-1.55545 -0.111289,-3.32291 -1.726703,-3.83876 -1.577694,-0.29773 -1.085128,3.29272 -1.986421,4.46508 -0.670083,1.24496 -1.357458,3.5643 0.909369,2.95658 0.37398,0.16494 0.676247,0.62941 1.130938,0.51716 z m -0.469569,-0.7897 c -1.549489,-0.79194 1.891402,-1.80497 0.21487,0 z m 0.463021,-2.43016 c -1.549038,0.14385 0.578763,-4.50631 0.602552,-1.54069 -0.209537,0.50175 0.251387,1.63867 -0.602552,1.54069 z m 58.422381,2.69475 c 1.92442,-0.99858 -2.26539,-0.73589 0,0 z m 10.82754,0 c 0.64877,-1.9365 -0.99022,-1.39223 0,0 z m 0.94826,0 c 1.14018,-0.68012 -0.69994,-2.24172 -0.21589,0 z m -6.76433,-0.52917 c 0.57358,-0.3029 -0.5475,-0.33003 0,0 z m -70.379163,-0.52917 c 0.57356,-0.30291 -0.547507,-0.32994 0,0 z m 70.114583,0 c 0.57356,-0.30292 -0.54753,-0.32992 0,0 z M 102.7424,148.5 c 0.57358,-0.3029 -0.5475,-0.33003 0,0 z m 30.55937,0 c 1.48997,-0.0535 -1.4644,-0.54691 0,0 z m -74.744787,-0.26458 c 0.573587,-0.30291 -0.54751,-0.33005 0,0 z m 76.416717,-0.19007 c 2.44317,0.16836 1.05405,-0.60514 -0.82476,-0.85797 0.81787,-0.31333 -0.13382,1.36555 0.82476,0.85797 z m 2.19284,0.19007 c 0.76346,-2.21556 -1.01412,-1.84313 0,0 z m -3.99706,-0.26459 c 0.57358,-0.3029 -0.5475,-0.33003 0,0 z m 5.55625,0 c 0.57358,-0.3029 -0.5475,-0.33003 0,0 z m -6.08542,-0.26458 c 0.57358,-0.3029 -0.5475,-0.33003 0,0 z m -74.197789,-0.26458 c -0.201185,-0.32402 0.756681,-2.66681 0.09842,-1.98438 -0.418298,0.64828 -1.108487,1.52989 -0.09842,1.98438 z m 79.489459,0 c 0.57358,-0.30291 -0.54751,-0.33005 0,0 z m -13.22917,-0.26459 c 0.57358,-0.3029 -0.5475,-0.33003 0,0 z m 10.56772,0 c 0.78448,0.091 -1.00808,-3.2579 -1.41295,-1.25464 -2.19124,-0.16927 -1.19108,1.00414 0.49949,0.67003 -0.70944,-1.42153 1.24496,0.77452 0.91346,0.58461 z M 55.381984,146.9125 c 0.573584,-0.3029 -0.547511,-0.33003 0,0 z m 82.285416,0 c 0.57359,-0.30292 -0.54753,-0.33001 0,0 z m -82.814583,-0.26458 c 0.573588,-0.30291 -0.547513,-0.33005 0,0 z m 70.908333,0 c 0.57359,-0.30293 -0.54753,-0.33003 0,0 z m 11.15659,-0.35278 c 0.28364,-1.32586 -0.68086,0.48141 0,0 z m 2.07257,0.0882 c 0.57358,-0.3029 -0.5475,-0.33003 0,0 z m -85.283409,-0.26458 c 0.211456,-0.42393 -0.629146,-4.36323 -0.838531,-2.28174 -0.399035,1.1344 -2.253122,0.20616 0.05889,1.23602 0.283706,0.28252 0.300525,1.10846 0.779646,1.04572 z m 83.944879,-0.26458 c 1.33387,-0.8339 -0.74846,-0.71661 0,0 z m 1.42106,-0.66043 c -0.0468,-1.50619 0.82771,-3.55168 -0.46256,-4.76355 -0.64877,0.71433 -1.00815,2.10288 -0.0775,3.27439 2.16924,-0.63062 -1.70107,1.00556 0.54006,1.48916 z m -82.970527,-0.13332 c 2.554632,0.17201 -2.359215,-3.27213 -0.02951,-2.63012 1.479017,0.6895 3.646126,-0.95624 3.674807,-2.46927 -0.622759,-1.44831 -2.555741,-2.05874 -3.798517,-2.53145 -0.598491,2.25408 -1.859369,4.43263 -1.757728,6.80707 0.622308,0.36595 1.099991,1.04766 1.91095,0.82377 z m 0.98677,-3.96875 c -2.077193,-0.47484 0.886975,-3.44018 0.691945,-0.53866 -0.122235,0.46 -0.172611,0.64766 -0.691945,0.53866 z m 63.248107,3.96875 c 1.48997,-0.0535 -1.4644,-0.54691 0,0 z m -61.39703,-0.8092 c 1.232744,-2.29667 0.189411,-1.944 -0.228145,0.20075 -0.03493,0.82748 0.113067,0.18073 0.228145,-0.20075 z m 62.85224,0.54461 c 0.57358,-0.3029 -0.5475,-0.33003 0,0 z m 21.96041,-0.26458 c 0.57358,-0.3029 -0.5475,-0.33003 0,0 z m -20.10833,-0.26458 c 0.57358,-0.30291 -0.54751,-0.33005 0,0 z m 3.43958,-0.26459 c 0.57358,-0.3029 -0.5475,-0.33003 0,0 z m -8.59895,-0.26458 c 1.48985,-0.0535 -1.46423,-0.54692 0,0 z m 27.11979,0 c 0.57359,-0.30292 -0.54753,-0.33001 0,0 z m -96.572916,-0.26458 c 0.573585,-0.30291 -0.547512,-0.33005 0,0 z m 68.527076,0 c 0.57361,-0.3029 -0.54751,-0.33006 0,0 z m 28.31042,-1.05834 c 0.57359,-0.3029 -0.54751,-0.33006 0,0 z m -28.31042,-0.79375 c 0.57361,-0.30289 -0.54751,-0.33004 0,0 z m 3.2191,-0.0882 c 0.28364,-1.32586 -0.68086,0.48141 0,0 z m 25.3559,0.0882 c 0.57358,-0.3029 -0.5475,-0.33003 0,0 z m -28.04583,-0.26458 c 0.57358,-0.3029 -0.5475,-0.33003 0,0 z m 27.51667,-0.26458 c 0.57359,-0.30293 -0.54753,-0.33003 0,0 z m -33.07292,-0.52917 c 0.57358,-0.3029 -0.5475,-0.33003 0,0 z m -58.709936,-0.33624 c 0.210982,-2.03677 -0.534203,0.13888 0,0 z m 57.695696,-0.0165 c 0.28362,-1.32585 -0.68083,0.48142 0,0 z m 4.71841,0.0882 c 0.57358,-0.30291 -0.54751,-0.33005 0,0 z m 0.26458,-0.52917 c 0.57358,-0.3029 -0.5475,-0.33003 0,0 z m 1.05833,0 c 0.57361,-0.30289 -0.54751,-0.33004 0,0 z m -66.542701,-0.26458 c 1.147177,-0.60582 -1.095027,-0.66008 0,0 z M 109.0924,138.1813 c 0.57358,-0.3029 -0.5475,-0.33003 0,0 z m -11.266719,-0.34527 c 1.601566,-0.92037 -1.372251,-2.32136 -2.492914,-2.08266 -0.05205,-0.4631 -3.691393,-1.33759 -3.362424,-0.69798 1.758967,1.11493 3.832439,2.1887 5.79175,2.78939 z m 18.145879,0.0807 c 0.57361,-0.3029 -0.54751,-0.33006 0,0 z m -67.204159,-0.26459 c 1.608209,-0.78955 -1.586995,-0.77702 0,0 z m 59.266659,0 c 0.57361,-0.30289 -0.54751,-0.33004 0,0 z M 48.001211,137.3159 c 0.210978,-2.03681 -0.534204,0.13895 0,0 z m 65.456809,0.0717 c 1.3548,-1.22048 -1.23934,-0.92843 0,0 z m -59.354856,-0.35278 c 0.283633,-1.32584 -0.680859,0.48142 0,0 z m -7.45243,-0.44097 c 0.573588,-0.3029 -0.547512,-0.33003 0,0 z m -1.422377,-0.45861 c 1.919764,-2.79361 -1.4719,1.47159 0,0 z m 3.539044,0.19403 c 0.573585,-0.30291 -0.547512,-0.33005 0,0 z m 4.233333,0 c 0.573585,-0.30291 -0.547512,-0.33005 0,0 z m -2.38125,-0.26459 c 0.573667,-0.30289 -0.547523,-0.33033 0,0 z m 55.546886,0 c 1.33387,-0.83391 -0.74847,-0.71658 0,0 z m 1.86769,0 c 0.5737,-0.30287 -0.54753,-0.33035 0,0 z m -58.737493,-0.52916 c 0.573588,-0.30291 -0.547513,-0.33005 0,0 z m 2.447396,-0.28547 c 1.176345,-0.74859 -2.563919,-1.13494 -0.3308,-0.0209 l 0.313673,0.0198 z m 39.621352,-0.2437 c 0.573588,-0.3029 -0.547512,-0.33003 0,0 z m -45.728817,-0.35278 c 0.283633,-1.32584 -0.680859,0.48142 0,0 z m 58.395742,0.0882 c 0.28117,-0.97592 -0.80751,-1.3085 -0.11583,0 z m -53.633242,-0.35278 c 0.283636,-1.32586 -0.680861,0.48142 0,0 z m 56.885412,0.0882 c 1.11217,-0.99819 -0.33499,-2.24522 -0.21108,-0.70326 0.81716,0.22303 -0.53791,0.8506 0.21108,0.70326 z M 49.825734,134.2125 c 0.573584,-0.3029 -0.547511,-0.33003 0,0 z m 55.959376,0 c 1.14717,-0.60583 -1.09504,-0.66006 0,0 z m -59.928126,-0.26458 c 0.573588,-0.30291 -0.547513,-0.33005 0,0 z m 3.042708,-0.26459 c 1.490144,-0.0535 -1.464669,-0.54688 0,0 z m 11.758343,0 c 1.333874,-0.83388 -0.748455,-0.7166 0,0 z m 44.185415,-0.52916 c 2.08174,-0.36494 -1.85961,-0.96718 0,0 z m -17.711468,-0.26459 c 0.573584,-0.3029 -0.547511,-0.33003 0,0 z M 61.202817,132.625 c 0.573584,-0.3029 -0.547511,-0.33003 0,0 z m 46.169793,-0.13229 c 1.21047,-1.91054 -1.32218,-0.44255 0,0 z m -3.57188,-0.13229 c 0.57358,-0.30291 -0.54751,-0.33005 0,0 z m 0.79375,0 c 0.57358,-0.30291 -0.54751,-0.33005 0,0 z m -0.52917,-0.52917 c 0.57361,-0.30289 -0.54751,-0.33004 0,0 z m 0.76252,0 c 1.22565,-0.86 -0.27491,-0.61761 0,0 z m -21.94241,-3.97812 c 0.06657,-0.91723 -2.940861,-0.89514 0,0 z m 10.640659,-0.34341 c 0.283633,-1.32584 -0.680859,0.48142 0,0 z m 0.264583,-0.79375 c 0.283633,-1.32584 -0.680859,0.48142 0,0 z m -0.277822,-0.70555 c 0.582126,-2.52298 -0.697031,-2.64033 -0.10143,0 z m -0.560025,-0.26459 c 0.573588,-0.3029 -0.547512,-0.33003 0,0 z m 1.058333,-0.26458 c 0.573588,-0.3029 -0.547512,-0.33003 0,0 z m -9.021992,-0.8639 c 2.306607,-0.22843 1.914788,-3.18217 1.982361,-4.92591 0.446388,-2.34173 -2.097931,-5.59227 -4.516661,-4.33952 -1.993082,1.14018 -1.374396,3.44021 -1.598376,5.36602 0.577395,1.96975 1.740201,4.16437 4.132676,3.89941 z m -0.587193,-1.78193 c -2.071814,-0.42577 -3.017958,-3.34552 -2.207115,-5.14349 1.312995,-1.2277 3.160189,0.0556 3.66788,1.53404 0.944237,1.28007 0.154745,3.47747 -1.460765,3.60945 z m -0.109327,-1.32292 c 1.851386,-0.0365 0.377209,-4.00615 -0.295287,-2.02801 -0.118056,0.5857 -0.472189,1.85457 0.295287,2.02801 z m 36.970594,3.175 c 0.57358,-0.3029 -0.5475,-0.33003 0,0 z m -27.472568,-1.67569 c 0.283636,-1.32586 -0.680861,0.48142 0,0 z m -19.887846,-9.96597 c 0.573593,-0.30291 -0.547516,-0.33005 0,0 z m 14.552082,0 c 0.573593,-0.30291 -0.547514,-0.33005 0,0 z M 73.638233,111.9875 c 0.573584,-0.3029 -0.547511,-0.33003 0,0 z m 0.556727,-0.0717 c 0.210978,-2.03681 -0.534203,0.13895 0,0 z m 0,-1.32291 c 0.210982,-2.03678 -0.534203,0.13888 0,0 z m -0.821311,-0.62641 c 1.671763,-1.44901 -1.443707,0.35491 0,0 z m 1.102431,-1.77138 c 0.283636,-1.32586 -0.680861,0.48142 0,0 z m -0.853462,-0.9701 c 1.333871,-0.83388 -0.748455,-0.7166 0,0 z m 1.382628,-0.61736 c 0.283636,-1.32586 -0.680861,0.48142 0,0 z m 39.232184,75.21614 c -2.3024,-0.74009 -4.42197,-2.18888 -6.65611,-3.19358 1.40554,-0.16906 3.1996,1.1619 4.6861,1.69948 0.35564,0.37166 2.83502,1.52179 1.97001,1.4941 z m 27.67891,0.0137 c -1.33386,-0.83393 0.74846,-0.71659 0,0 z m -0.92604,-0.52917 c -1.68268,-0.76756 1.1724,-0.67781 0,0 z m -1.47082,-0.79375 c -0.57356,-0.3029 0.5475,-0.32997 0,0 z m -29.36875,-1.85208 c -0.57358,-0.3029 0.5475,-0.33003 0,0 z m -2.48231,-1.5875 c -1.60192,-0.71305 0.71356,-0.60063 0,0 z m -8.365605,-2.91042 c -0.573571,-0.3029 0.547507,-0.32997 0,0 z M 98.773648,173.9 c -0.573588,-0.3029 0.547512,-0.33003 0,0 z m -0.396875,-0.27884 c -0.758614,-0.21728 -4.419561,-2.51846 -1.918229,-1.33433 0.610267,0.25802 1.827661,1.01533 1.918229,1.33433 z m -3.571875,-7.39408 c -0.573588,-0.3029 0.547512,-0.33003 0,0 z m -6.320248,-9.1262 c -1.325071,1.49504 -0.885277,-3.68895 0.310962,-1.05563 0.186615,0.44859 -0.02061,0.72707 -0.310962,1.05563 z m 28.01608,-0.66338 c -0.57358,-0.3029 0.5475,-0.33003 0,0 z m -0.66146,-0.79375 c -1.48997,-0.0535 1.4644,-0.54691 0,0 z m -39.173708,-4.23333 c 0.06232,-0.69815 -1.652979,-4.34347 0.51607,-2.74885 0.852144,0.13197 -0.111947,2.5682 -0.51607,2.74885 z M 61.917191,140.08625 c -1.001151,0.49303 0.246864,-1.93956 0.09526,-0.0953 z m 4.577292,-6.40292 c -0.573588,-0.3029 0.547512,-0.33003 0,0 z m -1.058333,-1.32291 c -0.573587,-0.30291 0.54751,-0.33005 0,0 z m 1.455208,-0.26459 c -1.490144,-0.0535 1.464669,-0.54688 0,0 z m 7.291656,-27.78124 c -1.42163,-1.04226 0.427229,-0.47548 0,0 z"
       id="path1" /></g></svg>
