<?xml version="1.0" encoding="UTF-8"?>
<svg xmlns="http://www.w3.org/2000/svg" viewBox="0 0 431 401">
  <g>
    <path d="m16.96,401c-1.82-10.6-4.08-21.15-5.37-31.81-2.78-22.9-5.86-45.8-7.36-68.8-1.6-24.69-2.46-49.5-1.93-74.23.58-27.38,3.04-54.72,4.93-82.06.13-1.89,1.96-4.28,3.67-5.36,15.47-9.67,30.55-20.15,46.79-28.31,19.67-9.89,40.32-17.84,60.65-26.37,1.9-.8,4.81-.36,6.84.49,8.25,3.46,16.35,7.27,24.45,11.06,1.18.55,2.59,1.58,2.97,2.7,2.03,5.93,3.76,11.95,5.72,18.32-10.5,4.6-21.56,8.72-31.93,14.13-20.28,10.58-40.24,21.78-60.16,33.03-2,1.13-3.86,4.26-4.05,6.6-2.59,33.02-3.09,66.1-.96,99.15,1.81,27.99,4.59,55.91,6.99,84.59,119.98-1.34,239.06-2.67,358.84-4.01-1.59,12.94-3.13,25.24-4.61,37.55-.54,4.44-.96,8.89-1.43,13.33H16.96Z"/>
    <path d="m431,259.35c-.34,8.78-.69,17.56-1.02,26.34-.6,15.92-1.19,31.84-1.81,48.4-112.68-1.26-224.79-2.51-337.54-3.78-2.79-40.36-2.84-80.27-.34-119.82,56,1.26,111.56,2.5,167.64,3.76,0,5.1.07,11.16-.02,17.22-.06,3.98-.6,7.97-.47,11.95.3,9.14,6.37,15.29,14.91,15.47,8.94.2,15.55-5.64,15.94-14.94.3-7.11-.38-14.27-.59-21.4-.06-1.94,0-3.88,0-6.61,10.8,0,21.39-.1,31.98.19.88.02,2.39,2.74,2.41,4.22.15,16.78.08,33.56.02,50.34-.04,12.09,10.68,20.09,22,16.37,7.74-2.55,11.61-10.04,10.91-20.2-1.07-15.58-1.9-31.17-2.81-46.76-.08-1.29-.01-2.59-.01-3.68,25.96-1.55,51.58-3.09,77.39-4.63.48,10.81.96,21.7,1.44,32.6v14.96Z"/>
    <path d="m299.91,117.24c42.91,24.71,85.66,49.32,128.4,73.93-.11.42-.21.85-.32,1.27-109.4,0-218.8-.07-327.71-12.66-.12-.47-.24-.94-.36-1.41,8.41-5.2,16.61-10.78,25.26-15.53,15.69-8.62,31.62-16.81,47.53-25.02,1.55-.8,4.13-1.39,5.42-.66,16.36,9.33,34.25,10,52.25,8.96,13.39-.77,26.72-2.67,40.07-4.13,13.73-1.51,22.79-9.06,27.88-21.7.36-.91.89-1.74,1.57-3.05Z"/>
    <path d="m179.32,79.7c-11.77-1.87-23.42-4.63-34.14-11.77,11.6-11.96,23.52-21.78,42.04-18.63-6.61-17.35,2.07-31.36,7.07-46.14,7.59,3.7,15.21,14.17,22.4,30.51,4.67,0,9.46-.37,14.17.07,10.48.98,19.01,6.11,25.21,14.37,4.44,5.92,8.4,12.38,11.47,19.11,5.42,11.87,10.5,23.95,14.72,36.29,2.56,7.48-.9,13.42-8.34,16.28-4.41,1.7-9.25,2.83-13.96,3.12-14.21.86-28.49,2.09-42.68,1.49-19.4-.81-33.89-12.39-37.81-29.07-1.13-4.8-.17-10.08-.17-15.62Z"/>
  </g>
</svg>