<?xml version="1.0" encoding="UTF-8" standalone="no"?>
<!-- Created with Inkscape (http://www.inkscape.org/) -->

<svg
   width="7.0511441mm"
   height="6.9453125mm"
   viewBox="0 0 7.0511441 6.9453125"
   version="1.1"
   id="svg1"
   xml:space="preserve"
   xmlns="http://www.w3.org/2000/svg"
   xmlns:svg="http://www.w3.org/2000/svg"><defs
     id="defs1" /><g
     id="layer1"
     transform="translate(-101.46578,-145.02734)"><g
       transform="matrix(0.26458333,0,0,0.26458333,101.6113,144.97443)"
       id="g2"><path
         d="M 25.95,8.55 26.1,8.5 24.65,8.45 23.85,8.3 Q 23.4,8.2 23.05,7.9 L 22.55,7.25 22.5,7 V 6.5 l 0.2,-0.75 0.2,-0.3 0.1,-0.1 -0.15,-0.1 -0.55,0.1 -0.8,-0.1 -0.15,-0.1 h -0.1 V 5.05 L 21.05,4.9 20.85,4.4 20.9,4 21.2,3.6 21.1,3.5 20.15,3.75 19.55,3.8 Q 19.2,3.9 18.9,3.6 L 18.55,3 Q 18.15,1.55 18.1,0.2 H 18 l -0.2,0.2 -1.4,4.1 q 1.5,0.65 2.75,1.95 1.65,1.65 2.3,3.65 l 4.5,-1.55 m -13.05,5.4 -0.1,-0.3 0.1,-0.05 0.75,0.55 1.05,0.7 h 0.05 l 1.1,0.5 3.4,1.55 q 0.85,-1.65 0.9,-3.6 v -0.1 l -0.4,0.1 -0.7,0.2 -0.5,0.05 -4.55,-0.2 h -0.45 l -0.25,-0.1 -0.05,-0.05 0.85,-0.4 1.05,-0.65 h 0.05 l 0.9,-0.8 2.75,-2.2 L 17.9,7.95 16.2,6.7 16.05,7.4 15.8,8 15.65,8.4 q -0.95,2.15 -2.45,3.9 h -0.05 l -0.2,0.45 -0.2,0.15 H 12.7 l 0.05,-0.95 V 10.7 10.65 L 12.6,9.5 12,5.75 q -1.9,0.1 -3.4,1.1 L 8.9,7.15 9.35,7.7 9.6,8.05 q 1.45,1.85 2.15,4 L 12,12.5 12.05,12.75 11.95,12.8 11.25,12.3 10.1,11.65 9,11.2 5.75,9.95 Q 4.9,11.5 4.95,13.3 v 0.2 L 5.6,13.3 6.15,13.2 h 0.5 l 4.6,0.15 0.5,-0.05 0.15,0.1 0.05,0.05 -0.75,0.4 -1.1,0.65 -0.05,0.05 -0.95,0.7 -2.85,2.3 0.9,1.05 Q 7.8,19.25 8.5,19.7 L 8.65,19.6 Q 8.6,19.4 8.7,19.3 L 8.95,18.6 9.2,18.15 q 1,-2.05 2.6,-3.7 h 0.05 l 0.2,-0.4 0.2,-0.15 h 0.05 l -0.05,0.9 -0.05,1.3 0.1,1.15 0.4,3.6 Q 14.6,20.8 16.2,20 l -0.5,-0.6 -0.35,-0.5 -0.3,-0.4 q -1.25,-1.9 -2,-4.15 l -0.15,-0.4 m 8.15,-0.8 q 0,3.55 -2.55,6.05 -2.45,2.55 -6,2.55 -3.55,0 -6.1,-2.55 -2.5,-2.5 -2.5,-6.05 0,-3.55 2.5,-6.1 2.55,-2.5 6.1,-2.5 3.55,0 6,2.5 2.55,2.55 2.55,6.1 M 7.75,25.1 7.55,24.3 7.15,23.5 Q 6.9,23.15 6.5,23.05 L 5.75,22.95 5,23.15 4.75,23.35 4.65,23.45 4.55,23.35 4.6,22.75 4.5,21.95 4.4,21.75 4.15,21.5 3.65,21.35 H 3.25 L 2.85,21.65 2.8,21.55 3.05,20.6 3.1,20 2.85,19.4 Q 2.7,19.25 2.25,19.05 l -2.8,-0.5 V 18.5 l 0.15,-0.2 4.15,-1.4 q 0.7,1.6 2,2.9 1.65,1.65 3.6,2.3 L 7.8,26.45 Z"
         id="path2" /></g></g></svg>
