<?xml version="1.0" encoding="UTF-8" standalone="no"?>
<svg
   ffdec:objectType="shape"
   height="26.8px"
   width="27.2px"
   version="1.1"
   id="svg2"
   sodipodi:docname="147.svg"
   inkscape:version="1.3.2 (091e20e, 2023-11-25)"
   xmlns:inkscape="http://www.inkscape.org/namespaces/inkscape"
   xmlns:sodipodi="http://sodipodi.sourceforge.net/DTD/sodipodi-0.dtd"
   xmlns="http://www.w3.org/2000/svg"
   xmlns:svg="http://www.w3.org/2000/svg"
   xmlns:ffdec="https://www.free-decompiler.com/flash">
  <g transform="matrix(1.0, 0.0, 0.0, 1.0, 0.85, 0.1)">
    <path d="M25.95 8.55 L21.45 10.1 Q20.8 8.1 19.15 6.45 17.9 5.15 16.4 4.5 L17.8 0.4 18.0 0.2 18.1 0.2 Q18.15 1.55 18.55 3.0 L18.9 3.6 Q19.2 3.9 19.55 3.8 L20.15 3.75 21.1 3.5 21.2 3.6 20.9 4.0 20.85 4.4 21.05 4.9 21.25 5.05 21.25 5.15 21.35 5.15 21.5 5.25 22.3 5.35 22.85 5.25 23.0 5.35 22.9 5.45 22.7 5.75 22.5 6.5 22.5 7.0 22.55 7.25 23.05 7.9 Q23.4 8.2 23.85 8.3 L24.65 8.45 26.1 8.5 25.95 8.55 M12.9 13.95 L12.8 13.65 12.9 13.6 13.65 14.15 14.7 14.85 14.75 14.85 15.85 15.35 19.25 16.9 Q20.1 15.25 20.15 13.3 L20.15 13.2 19.75 13.3 19.05 13.5 18.55 13.55 14.0 13.35 13.55 13.35 13.3 13.25 13.25 13.2 14.1 12.8 15.15 12.15 15.2 12.15 16.1 11.35 18.85 9.15 17.9 7.95 16.2 6.7 16.05 7.4 15.8 8.0 15.65 8.4 Q14.7 10.55 13.2 12.3 L13.15 12.3 12.95 12.75 12.75 12.9 12.7 12.9 12.75 11.95 12.75 10.7 12.75 10.65 12.6 9.5 12.0 5.75 Q10.1 5.85 8.6 6.85 L8.9 7.15 9.35 7.7 9.6 8.05 Q11.05 9.9 11.75 12.05 L12.0 12.5 12.05 12.75 11.95 12.8 11.25 12.3 10.1 11.65 9.0 11.2 5.75 9.95 Q4.9 11.5 4.95 13.3 L4.95 13.5 5.6 13.3 6.15 13.2 6.65 13.2 11.25 13.35 11.75 13.3 11.9 13.4 11.95 13.45 11.2 13.85 10.1 14.5 10.05 14.55 9.1 15.25 6.25 17.55 7.15 18.6 Q7.8 19.25 8.5 19.7 L8.65 19.6 Q8.6 19.4 8.7 19.3 L8.95 18.6 9.2 18.15 Q10.2 16.1 11.8 14.45 L11.85 14.45 12.05 14.05 12.25 13.9 12.3 13.9 12.25 14.8 12.2 16.1 12.3 17.25 12.7 20.85 Q14.6 20.8 16.2 20.0 L15.7 19.4 15.35 18.9 15.05 18.5 Q13.8 16.6 13.05 14.35 L12.9 13.95 M21.05 13.15 Q21.05 16.7 18.5 19.2 16.05 21.75 12.5 21.75 8.95 21.75 6.4 19.2 3.9 16.7 3.9 13.15 3.9 9.6 6.4 7.05 8.95 4.55 12.5 4.55 16.05 4.55 18.5 7.05 21.05 9.6 21.05 13.15 M7.75 25.1 L7.55 24.3 7.15 23.5 Q6.9 23.15 6.5 23.05 L5.75 22.95 5.0 23.15 4.75 23.35 4.65 23.45 4.55 23.35 4.6 22.75 4.5 21.95 4.4 21.75 4.15 21.5 3.65 21.35 3.25 21.35 2.85 21.65 2.8 21.55 3.05 20.6 3.1 20.0 2.85 19.4 Q2.7 19.25 2.25 19.05 L-0.55 18.55 -0.55 18.5 -0.4 18.3 3.75 16.9 Q4.45 18.5 5.75 19.8 7.4 21.45 9.35 22.1 L7.8 26.45 7.75 25.1" />
    <path d="M25.95 8.55 L26.1 8.5 24.65 8.45 23.85 8.3 Q23.4 8.2 23.05 7.9 L22.55 7.25 22.5 7.0 22.5 6.5 22.7 5.75 22.9 5.45 23.0 5.35 22.85 5.25 22.3 5.35 21.5 5.25 21.35 5.15 21.25 5.15 21.25 5.05 21.05 4.9 20.85 4.4 20.9 4.0 21.2 3.6 21.1 3.5 20.15 3.75 19.55 3.8 Q19.2 3.9 18.9 3.6 L18.55 3.0 Q18.15 1.55 18.1 0.2 L18.0 0.2 17.8 0.4 16.4 4.5 Q17.9 5.15 19.15 6.45 20.8 8.1 21.45 10.1 L25.95 8.55 M12.9 13.95 L12.8 13.65 12.9 13.6 13.65 14.15 14.7 14.85 14.75 14.85 15.85 15.35 19.25 16.9 Q20.1 15.25 20.15 13.3 L20.15 13.2 19.75 13.3 19.05 13.5 18.55 13.55 14.0 13.35 13.55 13.35 13.3 13.25 13.25 13.2 14.1 12.8 15.15 12.15 15.2 12.15 16.1 11.35 18.85 9.15 17.9 7.95 16.2 6.7 16.05 7.4 15.8 8.0 15.65 8.4 Q14.7 10.55 13.2 12.3 L13.15 12.3 12.95 12.75 12.75 12.9 12.7 12.9 12.75 11.95 12.75 10.7 12.75 10.65 12.6 9.5 12.0 5.75 Q10.1 5.85 8.6 6.85 L8.9 7.15 9.35 7.7 9.6 8.05 Q11.05 9.9 11.75 12.05 L12.0 12.5 12.05 12.75 11.95 12.8 11.25 12.3 10.1 11.65 9.0 11.2 5.75 9.95 Q4.9 11.5 4.95 13.3 L4.95 13.5 5.6 13.3 6.15 13.2 6.65 13.2 11.25 13.35 11.75 13.3 11.9 13.4 11.95 13.45 11.2 13.85 10.1 14.5 10.05 14.55 9.1 15.25 6.25 17.55 7.15 18.6 Q7.8 19.25 8.5 19.7 L8.65 19.6 Q8.6 19.4 8.7 19.3 L8.95 18.6 9.2 18.15 Q10.2 16.1 11.8 14.45 L11.85 14.45 12.05 14.05 12.25 13.9 12.3 13.9 12.25 14.8 12.2 16.1 12.3 17.25 12.7 20.85 Q14.6 20.8 16.2 20.0 L15.7 19.4 15.35 18.9 15.05 18.5 Q13.8 16.6 13.05 14.35 L12.9 13.95 M21.05 13.15 Q21.05 16.7 18.5 19.2 16.05 21.75 12.5 21.75 8.95 21.75 6.4 19.2 3.9 16.7 3.9 13.15 3.9 9.6 6.4 7.05 8.95 4.55 12.5 4.55 16.05 4.55 18.5 7.05 21.05 9.6 21.05 13.15 M7.75 25.1 L7.55 24.3 7.15 23.5 Q6.9 23.15 6.5 23.05 L5.75 22.95 5.0 23.15 4.75 23.35 4.65 23.45 4.55 23.35 4.6 22.75 4.5 21.95 4.4 21.75 4.15 21.5 3.65 21.35 3.25 21.35 2.85 21.65 2.8 21.55 3.05 20.6 3.1 20.0 2.85 19.4 Q2.7 19.25 2.25 19.05 L-0.55 18.55 -0.55 18.5 -0.4 18.3 3.75 16.9 Q4.45 18.5 5.75 19.8 7.4 21.45 9.35 22.1 L7.8 26.45 7.75 25.1 Z" />
  </g>
</svg>
