<svg xmlns="http://www.w3.org/2000/svg" xml:space="preserve" width="26.65" height="26.25" viewBox="0 0 7.051 6.945"><path d="m7.011 2.21.04-.014-.384-.013-.211-.04q-.12-.026-.212-.106l-.132-.172-.013-.066v-.132l.053-.199.052-.079.027-.026-.04-.027-.145.027-.212-.027-.04-.026h-.026v-.027l-.053-.04-.053-.132.013-.106.08-.105-.027-.027-.251.066-.159.014Q5.226.979 5.146.9L5.054.74Q4.948.358 4.934 0h-.026l-.053.053-.37 1.085q.397.172.727.516.437.436.609.965zM3.56 3.638l-.027-.08.027-.013.198.146.278.185h.013l.291.132.9.41q.225-.436.238-.952V3.44l-.106.026-.185.053-.132.013L3.85 3.48h-.12l-.066-.026-.013-.013.225-.106.278-.172h.013l.238-.212.728-.582-.251-.317-.45-.331-.04.185-.066.159-.04.106q-.251.568-.648 1.031h-.013l-.053.12-.053.04h-.013l.013-.252v-.344l-.04-.304-.158-.993q-.503.027-.9.291l.08.08.118.145.067.093q.383.49.568 1.058l.067.12.013.066-.027.013-.185-.133-.304-.172-.291-.119-.86-.33q-.225.41-.212.886v.053l.172-.053.146-.026h.132l1.217.04.132-.014.04.027.013.013-.198.106-.291.172-.013.013-.252.185-.754.609.238.277q.172.172.357.291l.04-.026q-.013-.053.013-.08l.067-.185.066-.119q.264-.542.688-.979h.013l.053-.106.053-.04H3.4l-.013.239-.014.344.027.304.106.953q.502-.014.926-.225l-.133-.159-.092-.132-.08-.106q-.33-.503-.529-1.098zm2.157-.212q0 .94-.675 1.601-.648.675-1.587.675-.94 0-1.614-.675-.662-.661-.662-1.6t.662-1.615q.675-.661 1.614-.661t1.587.661q.675.675.675 1.614M2.196 6.588l-.053-.212-.106-.211q-.066-.093-.172-.12l-.198-.026-.199.053-.066.053-.026.027-.027-.027.014-.159-.027-.211-.026-.053-.066-.066-.133-.04h-.106l-.105.08-.014-.027.066-.251.014-.16L.9 5.08q-.04-.04-.16-.093L0 4.855v-.013l.04-.053 1.098-.37q.185.423.529.767.436.436.952.608l-.41 1.151Z"/></svg>