<?xml version="1.0" encoding="UTF-8" standalone="no"?>
<!-- Created with Inkscape (http://www.inkscape.org/) -->

<svg
   width="193.42989mm"
   height="213.50241mm"
   viewBox="0 0 193.42989 213.50241"
   version="1.1"
   id="svg1"
   xml:space="preserve"
   xmlns:inkscape="http://www.inkscape.org/namespaces/inkscape"
   xmlns:sodipodi="http://sodipodi.sourceforge.net/DTD/sodipodi-0.dtd"
   xmlns="http://www.w3.org/2000/svg"
   xmlns:svg="http://www.w3.org/2000/svg"><sodipodi:namedview
     id="namedview1"
     pagecolor="#ffffff"
     bordercolor="#000000"
     borderopacity="0.25"
     inkscape:showpageshadow="2"
     inkscape:pageopacity="0.0"
     inkscape:pagecheckerboard="0"
     inkscape:deskcolor="#d1d1d1"
     inkscape:document-units="mm"
     showgrid="false" /><defs
     id="defs1" /><g
     inkscape:label="Слой 1"
     inkscape:groupmode="layer"
     id="layer1"
     transform="translate(-5.7000233,-19.049182)"><path
       id="path1"
       style="fill:#000000;stroke-width:5.80617"
       d="m 105.23941,50.231069 c -4.19397,-0.0026 -8.493621,0.08245 -12.898821,0.257794 -41.854718,1.667533 -72.810382,11.490994 -81.254471,25.785615 -3.1480481,5.32995 -3.2825192,21.492067 -0.228182,27.399902 3.249615,6.28376 3.617294,4.82527 5.742264,7.53959 1.904269,2.43241 19.53564,11.19018 32.084074,13.99742 7.35082,1.64447 16.234695,3.72837 22.149093,4.47963 25.395963,3.22585 58.398943,1.23544 84.728943,-5.10972 20.47001,-4.93304 30.03724,-9.79292 35.471,-18.02055 3.65714,-5.53764 4.22022,-7.89901 4.14358,-17.378456 C 195.06013,74.722546 191.95551,70.271245 177.11738,63.282646 158.73835,54.626573 134.59681,50.249765 105.23923,50.230837 Z m -0.44127,2.652375 c 31.87814,0.07083 53.98654,3.953945 72.41822,12.712787 23.58082,11.205827 13.14485,29.4548 -0.95412,15.356163 C 163.34421,68.034475 139.71588,63.132266 96.180965,64.33304 44.025751,65.771636 22.442584,74.377369 22.442584,93.737177 c 0,10.476543 13.668541,19.881323 38.16838,26.262703 12.308154,3.20594 37.959705,5.50147 50.164046,4.48864 15.08484,-1.25187 53.30148,-8.53745 56.07188,-10.6905 1.26737,-0.98501 4.91452,-3.28176 8.10414,-5.10072 5.3973,-3.07802 5.69069,-3.10676 4.2366,-0.39017 -1.12681,2.10526 -1.0421,3.09538 0.31237,3.54652 6.00892,2.00302 -22.26569,10.78316 -47.98581,14.90009 -15.87006,2.54031 -57.006039,1.78923 -72.202125,-1.31719 -36.57476,-7.47661 -48.826305,-16.79714 -49.071906,-37.334263 -0.072,-6.008981 0.7393,-8.187339 4.770641,-12.778802 C 28.067196,60.453183 58.768375,52.78114 104.79843,52.883328 Z M 146.081,69.127719 c 15.1987,3.399455 26.25551,9.214221 31.6304,16.634333 2.47326,3.414204 4.49763,7.554759 4.49763,9.202318 -4.30504,15.40042 -40.14731,20.31046 -53.71056,22.83088 -15.54289,2.65081 -42.394644,2.43715 -56.16067,0.15585 -14.48813,-3.00454 -38.312957,-8.52496 -44.052491,-24.404894 -2.894072,-8.007211 5.878762,-13.728738 9.057259,-15.503134 7.807693,-4.358645 19.228404,-7.201204 24.604017,-7.708393 12.273484,-2.109055 21.005201,-2.645078 28.974784,-3.055825 z m -21.64125,2.714531 c -8.87338,0.122578 -12.29198,-0.322853 -27.118628,-0.04416 -22.898521,1.398847 -36.200214,2.456986 -47.001656,8.1161 -1.590426,0.505137 -4.142993,2.299359 -5.670772,3.987562 -4.178178,4.616603 -1.040059,6.923801 6.174864,4.542633 17.4376,-5.424709 22.33361,-8.151901 47.90567,-9.445583 10.802502,-0.505137 56.232032,2.338131 56.596072,1.749502 0.36405,-0.588572 -3.11001,-2.348538 -7.72011,-3.915566 L 139.222,73.979355 Z m 14.75526,4.354483 C 0,0 0,0 139.19501,76.196733 Z m 19.26569,10.897429 c -0.3089,0.312953 1.99898,3.366396 4.12247,6.957281 4.17284,7.056937 4.47315,7.814147 7.19514,4.534294 1.41549,-1.705447 0.90607,-5.255018 -4.09478,-9.21564 -3.44549,-2.728902 -6.91395,-2.588887 -7.22283,-2.275935 z M 36.892578,92.08985 c -0.642801,1.675197 0.230505,3.96817 2.385349,6.261898 4.353119,4.633672 19.412065,12.674872 27.126841,14.485992 3.280197,0.77007 9.421326,1.417 13.645897,1.44022 l 17.338392,1.36352 -19.845354,-5.89505 C 62.328781,105.22684 55.31422,99.501717 47.849864,92.302007 45.995195,90.513031 37.770135,89.919535 36.892578,92.08985 Z M 173.90987,99.698897 C 0,0 0,0 173.90987,99.698897 Z m 24.85251,1.707243 c -0.32805,-0.32804 -2.63124,2.9093 -5.11872,7.19501 -5.55209,9.56578 -12.58407,13.47153 -33.88674,18.82169 -24.64958,6.1906 -37.86425,7.46819 -70.773983,6.84693 l -30.43926,-0.57307 -17.666498,-6.06385 c -16.271564,-5.58432 -18.381236,-6.77069 -26.709784,-15.03514 -8.9661802,-8.89714 -9.0344028,-8.92983 -8.0471214,-3.99354 0.547522,2.73808 2.0546881,6.14641 3.3484772,7.57607 2.1156532,2.3375 2.1032282,2.69621 -0.1050914,3.5435 -2.164831,0.83075 -2.3996907,4.83997 -1.9862913,33.88674 l 0.4708805,32.94763 4.4375984,4.62967 c 2.441612,2.54659 8.317632,6.56707 13.057848,8.93228 15.004248,9.76229 32.064797,12.30486 49.755989,13.73275 l -9.164345,-0.37418 c -1.678722,-0.0685 46.964591,2.05115 58.770341,0.59308 13.04806,-1.44207 23.31034,-4.53148 34.84085,-7.41106 10.60046,-2.50124 31.00381,-12.76527 34.06685,-17.13837 2.02253,-2.88722 2.41833,-8.93517 2.41833,-36.78222 0,-18.32961 -0.51559,-33.61656 -1.14916,-33.97074 -0.63368,-0.35417 -0.36346,-0.46275 0.60308,-0.23979 1.63101,0.37682 4.70335,-15.68514 3.27644,-17.12344 z M 11.022947,197.50675 c -2.3289137,0 -1.8790583,7.63275 1.713277,11.90214 6.920261,8.22439 10.019858,11.10732 34.315931,16.74289 l 15.41198,3.57487 c 0.833909,0.19343 16.656314,2.34827 33.583016,2.77256 17.072059,0.42792 37.079689,-1.84259 46.783249,-4.0214 13.04368,-2.92883 27.5992,-6.03954 36.89029,-11.2652 9.23258,-5.19275 14.23409,-12.4955 14.23409,-16.99044 0,-2.93654 -1.12455,-2.92963 -5.98492,0.29727 -13.20177,8.76198 -35.88091,14.74477 -52.23519,16.65307 -6.76636,1.42841 -21.1575,2.88537 -36.481312,2.90966 -17.306498,0.0286 -56.603352,-5.85207 -63.834239,-9.84042 -5.635928,-1.28809 -12.526469,-5.90626 -18.491353,-8.89424 -2.769137,-2.11216 -5.425809,-3.84049 -5.904819,-3.84049 z m 2.793407,6.01282 c 0.999649,-0.17824 3.579979,2.3905 9.123596,5.26066 17.332411,8.97367 37.295734,14.83117 66.721934,15.77381 36.108056,1.15664 66.309646,-4.44301 88.371816,-14.44635 11.81497,-5.35719 13.18483,-7.40145 9.40508,-3.21862 -7.59157,8.40112 -34.30357,16.88139 -62.18672,19.74278 -45.030172,4.62096 -92.460265,-3.28781 -107.802203,-17.97556 -3.397366,-3.25255 -4.633151,-4.95859 -3.633503,-5.13672 z"
       sodipodi:nodetypes="ccccsssccccccccccscsccccccccccccsscsscccccccccccccccccscccccccsscccsccccscccccccccsccccsccsccssscscccccccccscccssc" /></g></svg>
