<svg xmlns="http://www.w3.org/2000/svg" xml:space="preserve" width="731.074" height="806.938" viewBox="0 0 193.43 213.502"><path d="M105.24 50.231q-6.292-.005-12.9.258c-41.854 1.667-72.81 11.49-81.254 25.785-3.148 5.33-3.282 21.493-.228 27.4 3.25 6.284 3.617 4.826 5.742 7.54 1.904 2.432 19.536 11.19 32.084 13.997 7.351 1.645 16.235 3.729 22.15 4.48 25.395 3.226 58.398 1.235 84.728-5.11 20.47-4.933 30.038-9.793 35.471-18.02 3.657-5.538 4.22-7.9 4.144-17.379-.117-14.46-3.221-18.91-18.06-25.9-18.379-8.655-42.52-13.032-71.878-13.051Zm-.442 2.652c31.878.071 53.987 3.954 72.418 12.713 23.581 11.206 13.145 29.455-.954 15.356-12.918-12.918-36.546-17.82-80.081-16.619-52.155 1.439-73.738 10.044-73.738 29.404 0 10.477 13.668 19.882 38.168 26.263 12.308 3.206 37.96 5.501 50.164 4.489 15.085-1.252 53.301-8.538 56.072-10.691 1.267-.985 4.914-3.282 8.104-5.1 5.397-3.079 5.69-3.107 4.237-.39-1.127 2.104-1.042 3.095.312 3.546 6.009 2.003-22.266 10.783-47.986 14.9-15.87 2.54-57.006 1.789-72.202-1.317-36.575-7.477-48.826-16.798-49.072-37.335-.072-6.009.74-8.187 4.77-12.779 13.057-14.87 43.758-22.542 89.788-22.44Zm41.283 16.245c15.199 3.4 26.256 9.214 31.63 16.634 2.474 3.414 4.498 7.555 4.498 9.202-4.305 15.4-40.147 20.31-53.71 22.831-15.543 2.651-42.395 2.437-56.161.156-14.488-3.004-38.313-8.525-44.053-24.405-2.894-8.007 5.88-13.729 9.058-15.503 7.807-4.359 19.228-7.201 24.604-7.708 12.273-2.11 21.005-2.645 28.974-3.056zm-21.641 2.714c-8.874.123-12.292-.323-27.119-.044-22.898 1.399-36.2 2.457-47.002 8.116-1.59.505-4.143 2.3-5.67 3.988-4.178 4.616-1.04 6.924 6.175 4.542C68.26 83.02 73.157 80.292 98.729 79c10.803-.505 56.232 2.338 56.596 1.75.364-.59-3.11-2.35-7.72-3.916l-8.383-2.854Zm14.755 4.355q-208.792-114.295 0 0m19.266 10.897c-.31.313 1.999 3.367 4.122 6.957 4.173 7.057 4.473 7.815 7.195 4.535 1.416-1.706.906-5.255-4.094-9.216-3.446-2.729-6.914-2.589-7.223-2.276M36.893 92.09c-.643 1.675.23 3.968 2.385 6.262 4.353 4.633 19.412 12.675 27.127 14.486 3.28.77 9.421 1.417 13.646 1.44l17.338 1.363-19.845-5.895c-15.215-4.52-22.23-10.244-29.694-17.444-1.855-1.789-10.08-2.382-10.957-.212m137.017 7.609q-260.865-149.548 0 0m24.852 1.707c-.328-.328-2.63 2.91-5.118 7.195-5.552 9.566-12.584 13.472-33.887 18.822-24.65 6.19-37.864 7.468-70.774 6.847l-30.44-.573-17.666-6.064c-16.271-5.584-18.381-6.77-26.71-15.035-8.966-8.897-9.034-8.93-8.047-3.994.548 2.738 2.055 6.147 3.349 7.576 2.115 2.338 2.103 2.696-.105 3.544-2.165.83-2.4 4.84-1.987 33.886l.471 32.948 4.438 4.63c2.441 2.546 8.317 6.567 13.058 8.932 15.004 9.762 32.064 12.305 49.756 13.733l-9.165-.374c-1.678-.069 46.965 2.05 58.77.593 13.049-1.442 23.311-4.532 34.842-7.411 10.6-2.502 31.003-12.766 34.066-17.139 2.023-2.887 2.419-8.935 2.419-36.782 0-18.33-.516-33.617-1.15-33.97-.633-.355-.363-.463.604-.24 1.63.376 4.703-15.686 3.276-17.124zm-187.74 96.1c-2.328 0-1.878 7.634 1.714 11.903 6.92 8.224 10.02 11.107 34.316 16.743l15.412 3.575c.834.193 16.656 2.348 33.583 2.772 17.072.428 37.08-1.842 46.783-4.021 13.044-2.929 27.6-6.04 36.89-11.265 9.233-5.193 14.235-12.496 14.235-16.99 0-2.937-1.125-2.93-5.985.296-13.202 8.762-35.881 14.745-52.235 16.654-6.767 1.428-21.158 2.885-36.482 2.91-17.306.028-56.603-5.853-63.834-9.841-5.636-1.288-12.526-5.907-18.491-8.894-2.77-2.113-5.426-3.841-5.905-3.841zm2.794 6.014c1-.179 3.58 2.39 9.124 5.26 17.332 8.974 37.296 14.831 66.722 15.774 36.108 1.157 66.31-4.443 88.372-14.446 11.815-5.357 13.185-7.402 9.405-3.219-7.592 8.401-34.304 16.881-62.187 19.743-45.03 4.62-92.46-3.288-107.802-17.976-3.398-3.252-4.633-4.958-3.634-5.136" style="fill:#000;stroke-width:5.80617" transform="translate(-5.7 -19.05)"/></svg>