<svg xmlns="http://www.w3.org/2000/svg" xml:space="preserve" width="176.445" height="289.062" viewBox="0 0 46.684 76.481"><path d="M17.295 75.927c-6.153-.716-11.741-2.778-14.688-5.42l-2.544-2.28L.03 37.728 0 7.23l1.421-1.512C5.409 1.47 13.627-.413 26.026.075c10.547.415 15.743 1.937 19.18 5.616l1.478 1.583-.058 30.477-.059 30.476-2.538 2.28c-3.217 2.891-8.739 4.757-16.215 5.48-3.151.305-5.869.526-6.039.49-.17-.035-2.186-.283-4.48-.55m15.784-2.117c4.749-1.006 9.878-3.564 11.641-5.806 1.757-2.233 1.01-2.28-1.965-.125-9.505 6.886-31.948 6.372-39.806-.91-1.476-1.369-1.58-1.386-1.58-.262 0 2.502 7.038 6.19 14.076 7.375 4.794.807 13.152.678 17.634-.272m-7.903-48.869c0-.34-2.627-.82-5.84-1.067-3.21-.247-7.582-1.012-9.713-1.7C5.02 20.687 4.46 20.646 4.46 21.8c0 .96 4.43 2.632 9.13 3.442 3.914.676 11.585.476 11.585-.3m10.476-6.29c7.105-1.77 10.24-4.216 10.24-7.986 0-2.73-1.827-4.744-5.996-6.609C34.8 1.777 28.996.931 20.935 1.292 8.91 1.83 1.337 5.382 1.19 10.554c-.078 2.737 1.148 4.25 4.853 5.991 7.229 3.398 20.604 4.35 29.609 2.106m-22.06-1.686C2.45 14.407-.933 10.285 4.937 6.42c3.464-2.282 8.913-3.53 16.94-3.882 11.018-.481 19.102 1.755 22.394 6.194.985 1.327 1.127 1.967.619 2.783-1.032 1.66-4.343 3.679-7.849 4.785-4.327 1.367-18.626 1.773-23.447.666m23.118-2.189c5.187-1.622 7.293-3.213 6.343-4.791-3.136-5.21-21.9-7.55-31.395-3.914-4.082 1.562-7.634 4.367-6.945 5.484.82 1.326 5.086 3.112 9.714 4.065 6.222 1.282 16.762.883 22.283-.844M16.1 13.681c-.91-.139-2.023-.706-2.473-1.26-.717-.882-.665-.946.419-.52.68.267 2.274.633 3.542.814 1.269.18 2.157.57 1.974.866-.338.546-.513.551-3.461.1m-6.692-1.416C7.52 8.739 13.786 5.905 23.63 5.833c7.564-.057 11.2.84 13.753 3.393 1.81 1.81 2 3.044.544 3.53-.47.156-.7-.178-.58-.847.58-3.253-9.337-5.89-17.658-4.696-6.008.862-8.745 2.318-8.71 4.633.028 1.961-.65 2.142-1.571.419"/></svg>