<svg xmlns="http://www.w3.org/2000/svg" xml:space="preserve" width="430.155" height="409.804" viewBox="0 0 113.812 108.427"><path d="M.555.018C-.055.087-.126.768.168 1.2c1.172 2.223 2.97 4.035 4.584 5.937 3.646 4.268 7.803 8.07 12.25 11.488 5.178 4.014 10.58 7.886 15.564 12.194.468.499 1.275.97 1.151 1.751-.562.742-1.498.033-2.128-.254-6.081-3.328-11.747-7.358-17.798-10.742-2.691-1.471-5.386-3.072-8.383-3.832-.65-.113-1.739-.317-1.98.5.154 1.391 1.336 2.38 2.255 3.336 3.652 3.326 7.977 5.84 12.429 7.992 4.124 1.906 8.42 3.41 12.624 5.126 1.16.522 2.512.824 3.426 1.755.19.425-.062.974-.58.87-3.74-.41-7.423-1.246-11.124-1.92-5.251-.978-10.591-1.856-15.903-1.918-.893.06-1.873-.033-2.686.386.49 1.144 1.716 1.766 2.696 2.451 3.075 1.839 6.496 2.926 9.94 3.756 4.716 1.1 9.574.43 14.316-.107 2.546-.19 5.142-.553 7.677-.086.634.108 1.392.571 1.115 1.322-.64 2.214-2.216 4.017-2.86 6.236-.792 2.236-.99 4.782-.456 7.028.342 1.49 1.06 3.11 1.968 4.443 2.22 3.323 5.577 5.612 8.676 8.039a210 210 0 0 0 5.444 3.985c-.557-1.023.423-2.01 1.025-2.757 2.083-2.28 4.242-4.511 6.602-6.506.652-.552 1.753-1.16 2.46-.364.768.85-.054 1.95-.638 2.642a74 74 0 0 1-6.627 6.622c-.589.45-1.265 1.042-2.06.9 3.324 2.374 6.773 4.617 10.238 6.812 2.66-2.391 5.113-5.04 8.03-7.126.55-.393 1.571-1.02 2.015-.174.105 1.059-.814 1.857-1.359 2.668-1.837 2.278-3.964 4.304-5.797 6.585 4.888 3.34 9.87 6.546 14.923 9.63.491.396.967-.356 1.396-.55 1.968-1.438 3.413-3.577 5.638-4.654.915-.327 1.354.907 1.072 1.612-.738 2.09-2.52 3.562-4.005 5.123-.565.448-.974.88-.063 1.17 7.364 4.727 14.72 9.588 22.383 13.76 1.704.835 3.392 1.934 5.324 2.097.982.048.975-1.239.737-1.898-1.251-2.84-3.098-5.366-4.778-7.961-5.978-8.838-12.478-17.307-18.613-26.032-.322-.758-.702-.915-1.172-.166-1.829 1.73-3.455 3.745-5.628 5.06-.512.416-1.477.15-1.343-.608.378-1.367 1.461-2.407 2.334-3.484 1.157-1.298 2.344-2.568 3.513-3.854-3.464-4.98-6.885-10.004-10.486-14.871-2.52 2.25-4.835 4.763-7.616 6.703-.644.454-1.77 1.067-2.343.207-.398-.941.564-1.762 1.065-2.457 2.238-2.503 4.69-4.8 7.042-7.196l-4.97-6.716c-1.81 1.723-3.44 3.658-5.446 5.161-.673.567-1.771.556-2.275-.23-.716-.87.122-1.906.787-2.505 1.673-1.607 3.5-3.044 5.248-4.567-1.638-2.681-3.858-5.109-6.219-7.152-1.532-1.278-3.234-2.753-5.364-2.942-4.136-.577-8.353.64-11.892 2.766-1.035.53-2.036 1.15-3.13 1.553-1.002-.125-1.1-1.368-1.294-2.15-.709-4.174-.596-8.445-.182-12.645.244-4.48-.082-9.106-1.173-13.457-.45-1.506-.828-3.187-2.006-4.305-.626-.415-1.02.474-1.058.982-.525 3.413-.254 6.898-.02 10.297.244 3.566.95 7.126 1.442 10.684.027.896.372 1.897.002 2.741-.224.552-.826.236-1.037-.16-2.194-4.364-3.847-8.974-5.804-13.443-1.854-4.116-3.744-8.292-6.535-11.872-.581-.61-1.181-1.516-2.107-1.512-.735.367-.496 1.419-.464 2.096.56 3.483 2.137 6.765 3.615 9.884 2.242 4.618 5.047 8.932 7.613 13.365.05.417.807 1.718-.002 1.062-1.387-.74-2.345-2.045-3.524-3.057C22.634 18.903 15.534 11.939 8.166 5.25 6.096 3.482 4.113 1.527 1.686.252 1.333.1.946-.053.555.018m41.48 46.54c1.129.008 1.336 1.377 1.417 2.256.28 2.191-.302 4.48.435 6.606.84 1.814 2.838 2.837 3.498 4.768.217 1.07-1.027 1.787-1.965 1.48-2.095-.56-3.768-2.19-4.898-3.986-1.551-2.615-2.202-6.017-.919-8.869.498-.961 1.304-2.057 2.432-2.254m56.99 38.864c.73.46.183 1.448-.156 2.006-1.244 1.877-2.847 3.55-4.718 4.81-.52.393-1.627.656-1.8-.209.006-1.015.926-1.734 1.5-2.484 1.359-1.416 2.69-2.9 4.307-4.025.252-.137.61-.276.868-.098"/></svg>