<?xml version="1.0" encoding="UTF-8" standalone="no"?>
<!-- Created with Inkscape (http://www.inkscape.org/) -->

<svg
   width="68.11013mm"
   height="133.79771mm"
   viewBox="0 0 68.11013 133.79771"
   version="1.1"
   id="svg1"
   xml:space="preserve"
   xmlns="http://www.w3.org/2000/svg"
   xmlns:svg="http://www.w3.org/2000/svg"><defs
     id="defs1" /><g
     id="layer1"
     transform="translate(-70.265787,-82.568494)"><path
       style="fill:#000000"
       d="m 124.83366,215.62079 c 0.68317,-3.1109 0.31819,-6.89032 -2.50006,-8.82538 -3.20696,-3.43866 -7.24629,-6.22094 -9.31609,-10.55895 -5.40039,-8.54899 -7.21507,-18.64362 -11.14123,-27.81652 -1.21313,-1.94901 -2.885392,-6.10249 -3.382189,-1.72032 -3.030551,9.93489 2.441489,19.51137 6.017659,28.52254 1.20827,4.28954 2.52005,8.74343 5.87778,11.88305 -2.73321,-1.91447 -4.61928,-4.58527 -5.49269,-7.80521 -2.44033,-5.13161 -6.105621,-9.59833 -8.112159,-14.95757 -2.720447,-5.33146 -4.60208,-11.33549 -3.814821,-17.36794 0.310874,-3.52087 1.362573,-7.00212 3.088208,-10.10021 1.184534,-2.72584 1.670434,-5.96385 4.347842,-7.69769 1.06155,-2.05634 -3.343227,-4.57906 -4.45077,-6.56262 -0.752007,-1.23768 -3.793702,-2.05035 -3.957221,-0.0908 -0.721012,3.12498 -0.844526,-1.45499 -1.835806,-0.80863 0.136979,1.62668 -2.855975,5.95513 -3.923456,2.24752 0.1399,-1.29808 0.234516,-1.51112 -0.503391,-3.43369 0.349023,-2.57116 4.059975,-2.28129 2.418949,-0.827 1.780714,-1.20546 -0.549773,-2.8756 -2.08589,-2.3221 -1.711355,0.85165 -1.83818,3.82544 -1.740188,5.67719 0.477379,2.40397 -0.309296,2.34805 -2.102555,3.37123 -1.369661,-1.7593 -1.812727,-4.56357 -1.565816,-2.42555 0.05761,1.5346 -1.484986,5.41403 -3.031957,3.10194 -0.8816,-1.45482 -0.515801,-3.71854 0.376042,-5.05985 -2.303501,1.62755 -0.265482,-2.80068 1.371621,-1.92317 0.363421,0.41624 1.079297,-2.82569 2.170525,-2.41472 -2.502553,0.56024 -4.613362,2.37134 -7.293653,1.98242 0.06128,-2.17146 0.16229,-1.58886 -1.930288,-2.41551 -3.109889,-1.06938 0.4145,-3.09262 0.642808,-3.47187 -0.57561,-2.08194 4.95633,0.55786 2.498963,-2.19176 1.965147,-0.60441 2.543726,0.1041 1.422453,-2.20563 1.018546,-2.84344 3.59181,0.34024 4.731688,-0.47789 1.874499,3.06075 0.460988,0.27477 1.529933,-0.34568 2.344043,4.24726 0.540675,-3.10373 3.755425,-0.61665 2.343036,1.56487 1.716355,-1.84481 0.211705,-2.49048 -1.068589,-1.76686 -2.934735,-1.33838 -4.68667,-1.22427 -2.88657,0.1018 -5.385282,1.96801 -7.332051,3.99137 -1.117427,1.9083 -4.302031,-0.15423 -2.324344,-1.72297 2.326838,-1.51346 -3.486258,-1.24511 -1.822327,-2.01903 -1.251516,-0.63683 -0.385724,-2.7355 0.03636,-2.98579 0.450694,-2.2975 2.011176,-0.48487 3.533748,-0.79375 1.110601,-1.5914 -3.01143,-2.66229 -3.924233,-4.3521 -1.235505,-2.74256 1.441351,-1.53683 0.859901,-3.9201 2.020238,-0.20752 3.2018,0.98317 5.225521,-0.51417 1.450565,-0.0778 1.428094,1.12523 2.991352,0.49915 2.486891,1.45964 1.302895,5.48309 4.240979,6.51825 2.414987,2.13149 3.511207,5.30066 5.196737,7.98668 0.526649,-2.91193 -2.032942,-5.01737 -3.02938,-7.53479 -2.453196,-4.40795 -4.913069,-8.81225 -7.415261,-13.19263 -2.163049,0.84858 -5.050376,0.2674 -5.688741,-2.21069 -0.657977,-1.22992 0.244312,-3.81864 1.973046,-3.32541 1.77494,-0.0548 -3.122036,-2.656899 -1.972847,-4.437609 0.09423,-3.173555 4.038303,-1.977421 3.872479,-0.281334 1.269916,-3.959042 1.577809,3.528331 2.761576,0.687642 1.616706,0.27136 3.387171,2.013294 2.890945,3.839361 -0.175399,2.22246 -0.315639,3.8519 2.38125,3.85217 0.31276,-2.3937 -2.46449,-5.553406 0.03013,-7.245413 1.563803,-1.981464 2.246371,0.433968 3.756328,0.762028 -0.176411,1.328519 1.04988,2.584115 0.787858,4.369795 0.16062,6.30746 2.328342,12.53044 6.009014,17.62206 -0.813717,-2.29281 -3.319293,-10.24732 -0.68055,-3.49531 0.762672,2.87724 2.340568,7.2485 1.55184,1.94737 -0.641476,-4.57529 -2.180861,-9.09603 -5.349959,-12.52394 -0.858735,-2.77634 2.238165,-3.7473 3.602216,-3.2731 0.5904,-1.63014 -1.715057,-3.223005 -1.231695,-5.073282 -0.339837,-1.796058 0.686276,-3.503263 2.438582,-4.004346 1.442702,0.61824 0.547081,5.004384 1.895465,2.047573 1.665929,-2.204276 0.386537,-5.360063 1.29155,-7.746529 0.805709,-1.134504 3.04634,-3.241639 3.21543,-0.618211 0.0935,3.261922 4.37981,-2.568126 6.09056,0.0049 1.38541,1.655639 -1.9908,2.093317 -3.00129,2.839721 -0.64604,0.65804 4.90376,0.342535 3.14531,2.46553 -3.80667,0.707587 -1.66058,0.92649 -0.53194,2.798934 -2.13453,0.873853 -3.04576,1.619308 -2.38125,3.95876 -1.58567,2.66306 -5.847337,4.92226 -4.06375,8.59421 0.19677,-1.89455 3.51419,-2.77128 1.60338,-0.85902 1.53422,0.68893 0.52881,2.97424 -0.51155,3.90983 -2.575943,1.90418 -2.744339,5.01186 -2.16781,7.87178 1.74556,7.88413 3.84333,15.7578 6.72152,23.29874 -0.38706,-3.33007 -0.6725,-6.65749 -1.84681,-9.8143 0.74135,-0.81726 1.67874,6.43021 1.42361,1.71068 -0.47446,-2.57236 1.74572,-5.9115 -1.2989,-7.35919 -2.12967,-1.72853 -2.1138,-4.63861 -1.84862,-7.1499 2.14553,-0.19312 1.07371,1.14541 1.78494,-1.12549 1.38398,0.64007 0.99958,4.61446 1.67618,0.0561 1.0364,-1.40762 -0.94208,-2.91917 -0.41456,-4.51084 -0.30677,-1.84116 1.91527,-2.64199 1.6354,-4.63787 1.64421,-1.13557 0.3831,-2.94932 1.0625,-4.87289 1.44735,-2.09201 4.44834,0.26574 2.69356,-3.23644 -0.74239,-2.88411 -2.52774,-6.011848 -0.91739,-8.882417 1.9686,-3.464851 4.15456,1.051569 3.75853,3.499795 3.23279,-0.04403 1.85482,-2.539164 1.02781,-4.703054 -0.96037,-2.496825 4.22697,-5.929476 3.93391,-1.858481 0.698,2.328508 1.87873,-1.7178 2.8142,-2.52526 1.13242,-1.823552 2.53823,-4.399656 5.05238,-3.957032 2.12233,2.124767 -3.68428,5.903634 1.52387,3.972705 1.70025,-0.525695 3.22483,1.896406 1.19951,2.690753 -2.2592,1.349591 -3.28489,1.836213 -1.8238,4.078155 -3.0544,0.752286 -0.47982,0.559904 -0.26458,2.241236 -2.05159,0.212232 -0.71786,3.198134 -3.06336,3.873742 -2.24134,1.328158 -3.67932,3.580288 -4.86021,5.844338 0.92603,3.38409 3.8217,-3.36523 4.07917,1.42478 0.14699,3.62287 0.78886,-2.44168 1.79667,-0.16081 1.79755,3.69023 0.68125,0.65593 1.88094,-0.68157 1.50811,1.32477 3.57252,0.19376 2.81262,2.96554 -0.10572,1.55853 -2.43288,5.67928 0.37286,4.48967 0.91074,-3.10859 5.17082,-1.2462 2.51694,0.74696 2.8616,-0.26923 -0.30875,1.08012 1.07895,1.5875 0.93434,2.08132 -2.74307,1.42944 -2.74022,2.34388 1.58955,0.7696 3.20737,3.2854 0.40893,3.63996 -2.33578,-0.0726 -4.3234,-1.77294 -6.78456,-1.22134 -2.20479,1.7234 -4.12044,3.77925 -0.386,3.13602 2.77705,0.93686 -3.16267,2.20745 1.03518,2.9565 0.32519,1.78153 -3.60071,1.09875 -3.58215,1.21436 2.7745,0.68004 3.20631,3.69213 0.0625,3.51401 -4.85795,-0.15191 0.90647,1.33806 -0.47197,1.89324 -3.13779,-0.83039 -2.21336,-1.20208 -1.62385,0.51159 -1.33999,2.06381 -2.06112,0.71277 0.27481,2.19151 -0.60583,1.90586 -4.36867,2.16752 -0.74479,2.85797 -0.19427,1.60555 -1.65281,3.25732 -3.50231,3.29836 -2.7899,0.83097 -6.39107,-3.35736 -5.90984,1.88573 -0.34804,2.31203 4.14418,1.07859 5.74345,2.52149 2.00345,1.77444 4.04143,3.5233 4.88253,6.15841 2.7741,5.29065 6.9813,9.71587 9.97932,14.89408 3.37599,5.02835 5.4523,11.03977 4.95089,17.12777 -0.1403,3.5274 1.68559,6.95936 0.51455,10.45885 -0.85475,2.12972 -1.84404,4.21981 -2.74989,6.33448 -0.95759,-1.20162 0.93435,-2.99286 1.12836,-4.43277 2.35671,-4.36111 0.20816,-9.28117 -0.10891,-13.83801 -0.86887,-6.03672 -3.81585,-11.54037 -7.9812,-15.92157 -1.56597,-1.7848 -3.13195,-3.5696 -4.69792,-5.3544 -0.53329,4.78287 1.59667,9.38659 1.35751,14.1876 0.46531,7.18864 0.49308,14.415 -0.0108,21.59133 0.0338,2.50741 -2.73959,4.73841 -0.57771,6.85034 1.5899,3.30408 3.5031,7.21891 2.04995,10.89047 -0.3702,0.28722 -1.30137,1.91217 -0.57107,0.23913 z m -4.00521,-13.9202 c 3.2151,-2.45792 1.80194,-7.55396 2.38854,-11.25044 0.0477,-6.10808 -0.27129,-12.23833 -0.5829,-18.3339 -0.79421,-4.25934 -1.51676,-8.5247 -1.23673,-12.87414 -0.51595,-0.8271 -0.43993,-2.76802 -0.44481,-4.53414 -0.0599,-2.65807 -1.87422,-4.85886 -3.83103,-6.51664 -2.67579,-2.58912 -6.83023,-1.68622 -9.97495,-0.41262 -3.42809,1.3086 -8.442369,2.48477 -8.927922,6.87714 -0.610623,6.95109 5.023762,12.10213 6.651562,18.47583 3.1913,10.26463 6.4604,21.03361 14.0122,29.04047 0.68064,0.0963 1.35122,-0.17202 1.94604,-0.47156 z m -3.21943,-1.26142 c 0.17343,-0.42541 2.17094,-4.06436 3.02883,-2.72667 0.99061,-1.17974 1.25218,-1.22761 0.90048,0.82688 1.10756,0.12066 -3.95231,-1.03191 -0.80427,-0.16546 1.15534,2.32945 -2.85794,1.4747 -3.10375,2.09973 z m -1.50111,-1.98662 c -0.46227,-2.39343 5.3318,-3.04721 2.79192,-0.94362 -0.62196,0.88117 -2.27105,-0.20434 -2.79192,0.94362 z m 1.05428,-3.90153 c 0.16536,-0.95342 3.94454,-2.29384 3.70417,-0.3105 -0.54166,0.30843 -3.91459,1.61789 -3.70417,0.3105 z m -0.47294,-3.23813 c -0.9852,-2.95945 7.43657,-2.20929 3.0304,-0.67215 -0.9729,-0.0332 -2.1535,1.34104 -3.0304,0.67215 z m -3.89269,-6.82956 c 0.88049,-1.03763 6.3855,-4.47291 6.88633,-1.86367 -2.17532,0.6038 -4.63042,2.32331 -6.88633,1.86367 z m -1.71979,-4.99498 c 0.2437,-1.43858 7.51472,-3.29886 4.85497,-0.86093 -1.29118,0.13258 -4.57429,2.37474 -4.85497,0.86093 z m -1.05833,-5.82084 c 1.27221,-1.80261 4.83071,-1.96562 7.00597,-3.09899 4.21019,0.343 -4.12679,3.01109 -5.66316,3.3184 -0.34382,-0.16932 -1.69578,0.90985 -1.34281,-0.21941 z m -1.05833,-5.29545 c 1.26279,-1.14701 5.19318,-3.54135 5.66409,-1.38081 -1.32156,0.17949 -5.16023,2.80604 -5.66409,1.38081 z m -1.05834,-8.16492 c 0.36216,-1.19912 5.72518,-3.11926 4.7388,-0.62636 -1.22541,0.0959 -4.61523,2.0518 -4.7388,0.62636 z m -5.66445,-4.52441 c 0.41158,-2.19597 9.89514,-3.71086 4.51016,-1.00998 -1.37814,0.19133 -3.18101,1.56296 -4.51016,1.00998 z m 9.89779,-4.93711 c 0.47988,-0.80276 3.65389,-2.78435 3.83645,-0.61605 -0.92911,0.27575 -3.61151,1.76028 -3.83645,0.61605 z M 95.267509,169.3603 c -0.05972,-1.17667 2.791925,1.14332 1.898167,-1.79013 1.713316,-1.95298 -1.640764,-3.18376 0.943342,-2.70079 2.389892,-2.48668 -3.302757,-1.168 -0.03789,-0.57841 -2.326544,0.67035 -0.956361,-1.47949 -0.768809,-1.37923 -2.312758,0.57327 -1.605778,-2.65216 0.435981,-0.65697 1.058464,-0.7001 -1.461387,-5.27085 -0.650904,-1.90984 -0.742549,2.12701 -1.219885,-0.0922 -0.574317,-2.18773 -1.376826,1.58196 -2.370468,9.43994 -1.412688,4.5128 1.498296,-0.3151 0.742436,2.83536 0.162974,0.55018 0.78145,3.35108 -1.503545,1.17418 -0.17911,3.80784 1.20573,0.36525 -1.029609,3.30827 0.183181,2.33219 z m 32.610301,-4.19155 c 1.94953,-1.02972 -3.86576,-5.43816 -0.68402,-1.92104 -0.36786,2.27701 -3.39486,-1.74251 -1.56945,-2.60532 -0.33257,-0.61596 -3.21045,1.26971 -1.62709,-0.76531 2.05283,-1.62117 -3.40145,-2.25415 -0.93909,0.96464 1.38608,1.36261 2.91624,4.29159 4.81965,4.32703 z m -26.04284,-19.80896 c -0.92859,-2.88522 -4.171902,-4.42509 -5.320117,-7.11596 -1.772944,-2.42827 3.359883,-1.33788 1.085372,-2.79044 -2.418369,-2.16972 -5.869944,-8.38694 -7.416532,-8.71402 0.644961,6.54124 4.630827,11.99446 9.406544,16.237 0.278646,-0.12486 2.951343,4.08972 2.244733,2.38342 z m 6.43008,-9.6263 c 1.69193,-2.49051 -0.44567,-2.68153 -0.52408,-4.48536 0.4064,1.0199 -1.30387,9.36024 0.52408,4.48536 z m -5.48264,-3.9333 c -1.23962,-4.49228 -2.32972,-9.02374 -3.465119,-13.54304 -1.372165,-0.63639 -1.882041,-1.30185 -1.99194,-0.20828 0.149274,1.99004 -0.299527,4.22073 0.201403,6.06927 3.194396,4.23885 0.293717,-2.70552 0.13114,-4.5548 2.294917,4.68094 3.288096,9.96865 5.637986,14.58055 -0.047,-0.80458 -0.31416,-1.57064 -0.51347,-2.3437 z m 15.09804,-10.13558 c 0.69495,-1.88072 2.6608,-2.38156 4.01569,-3.4947 1.5888,-2.3432 2.59053,-8.17549 -0.46006,-3.22879 -1.24992,3.04007 -4.02478,4.80895 -6.3494,6.96826 0.43753,4.24959 0.24599,2.74538 2.79377,-0.24477 z m 9.15276,21.15518 c -1.69671,-1.29579 -2.43578,-3.55253 -3.25644,-5.41688 0.98142,-3.00228 -2.07421,-0.64629 -2.76168,-2.34855 2.05671,-0.22872 4.85876,-0.90778 6.02616,-4.03804 1.26753,-0.63662 3.55685,-7.14652 4.73588,-3.84331 1.06413,-1.55613 2.57596,-1.38553 3.03525,-0.20941 1.80466,-2.72645 2.93518,1.63675 3.43143,2.28369 -2.6096,1.62742 2.16682,1.7744 -0.99376,3.36917 -2.39416,2.59889 -6.76007,0.97138 -9.37219,2.12308 3.85843,-0.118 1.8518,1.12022 1.256,1.42842 1.52913,1.18912 4.27908,-0.40322 5.61128,1.23439 -1.10904,1.66063 -3.52749,1.12034 -0.64038,3.22761 -1.30941,0.80175 1.01251,1.31776 -2.14202,2.07713 -1.68454,-1.06301 -2.04982,2.44899 -4.31422,0.63938 -0.2051,-0.17556 -0.41021,-0.35112 -0.61531,-0.52668 z"
       id="path1" /></g></svg>
