<?xml version="1.0" encoding="UTF-8" standalone="no"?>
<!-- Created with Inkscape (http://www.inkscape.org/) -->

<svg
   width="119.78293mm"
   height="173.47261mm"
   viewBox="0 0 119.78293 173.47261"
   version="1.1"
   id="svg1"
   xml:space="preserve"
   xmlns:inkscape="http://www.inkscape.org/namespaces/inkscape"
   xmlns:sodipodi="http://sodipodi.sourceforge.net/DTD/sodipodi-0.dtd"
   xmlns="http://www.w3.org/2000/svg"
   xmlns:svg="http://www.w3.org/2000/svg"><sodipodi:namedview
     id="namedview1"
     pagecolor="#ffffff"
     bordercolor="#000000"
     borderopacity="0.25"
     inkscape:showpageshadow="2"
     inkscape:pageopacity="0.0"
     inkscape:pagecheckerboard="0"
     inkscape:deskcolor="#d1d1d1"
     inkscape:document-units="mm" /><defs
     id="defs1" /><g
     inkscape:label="Слой 1"
     inkscape:groupmode="layer"
     id="layer1"
     transform="translate(-44.988793,-72.179617)"><g
       transform="matrix(1.3917222,-1.6585895,1.6585895,1.3917222,-5.6846825,151.34296)"
       id="g4"><path
         d="m 63.5,26.5 -1.15,-4.05 q 1.25,-0.95 2.9,-0.5 1.6,0.4 2.3,1.85 0.45,0.85 0.4,1.7 -0.1,1.05 -1,1.3 -1.55,0.4 -2.65,-0.7 -0.25,-0.15 -0.8,0.4 M 32.7,26.75 31.45,26.7 q -0.3,-0.05 -0.75,0.4 l -0.45,0.75 q -0.5,3.1 -3.7,1.75 -2.6,-1.1 -4.05,-3.05 -1.8,-2.25 -2.3,-5.45 -0.6,-4.5 2.35,-7.6 3,-3.05 7.5,-2.55 0.35,0.05 0.8,-0.5 L 31.3,9.65 30.75,6.3 q -0.1,-2.05 1.5,-2.4 2.05,-0.45 4.55,1.85 0.2,0.2 0.8,-0.45 0.6,-0.65 0.45,-0.9 0.1,-3.55 2.5,-2.85 l 1.8,0.7 2,1.7 q 1.7,1.8 3,4.45 -1.7,1.35 -2.7,3.55 -1,2.1 -1.1,4.45 -2.6,-1.6 -5.65,-0.45 -3,1.15 -4.5,4.05 -1.75,3.15 -0.7,6.75 M 28,26 q 0.6,-1.45 -0.05,-2.7 L 26.9,22.25 q -0.85,-0.55 -1.4,-0.15 -0.35,0.3 -0.15,1.4 l 0.5,1.45 0.95,0.85 1.2,0.2 m 5.55,10.7 1,-6.65 0.75,0.8 -0.05,0.15 q -0.85,2.7 -1.4,5.95 l -0.05,0.15 -0.35,-0.15 0.1,-0.25"
         fill="#006b33"
         fill-rule="evenodd"
         stroke="none"
         id="path2"
         style="display:inline;fill:#000000;fill-opacity:1" /><path
         d="m 62.85,35.15 -2.35,-0.95 -2.25,-1.25 -1.4,-0.7 -0.75,-1.3 q -0.9,-0.9 -1.85,-0.75 -0.8,0.2 -1.55,1.2 l -0.2,0.35 q -0.2,0.3 -0.05,0.35 l 2.8,1.35 0.45,1.25 q -0.05,2.2 -1.8,3.15 -1.3,0.75 -3.4,0.65 -2,-0.15 -4.1,-1.4 l -3.55,-2.6 -0.3,0.05 h -0.1 Q 40.7,35 39.25,36.2 37.85,37.35 37,38.95 L 35.8,38.2 36.4,37.65 39.45,32.1 V 31.75 Q 37,30.3 35.5,28.35 33.8,26.1 33.65,23.5 q -0.2,-4.4 3.5,-6.05 3.75,-1.6 6.6,1.6 0.2,0.2 0.75,-0.4 l 0.55,-0.9 q -0.7,-3.9 1.25,-6.95 2.15,-3.35 6.15,-2.5 2.75,0.6 4.05,3.55 1.4,3.15 -1.2,4.95 -0.15,0.05 -0.55,0.65 -0.4,0.6 -0.15,0.55 3.9,-0.4 5.8,4.1 1.05,2.5 2.35,7.6 l 1.35,3.4 q 0.65,2.45 -1.25,2.05 m -40.8,-23.1 1.25,-0.2 -1.4,1.3 q -0.2,-0.75 0.15,-1.1"
         fill="#00a23d"
         fill-rule="evenodd"
         stroke="none"
         id="path3"
         style="display:inline;fill:#000000;fill-opacity:1" /><path
         d="m 41.75,46.15 q 0.2,0.2 0.7,-0.35 1.4,0.95 0,4.35 -1.35,-1 -3.1,-1.85 -0.35,-0.15 -0.95,0.55 -0.55,0.7 -0.35,0.8 3.8,1.7 5.95,4.7 1.35,1.95 1.8,4.1 0.3,1.4 -0.4,2.9 -0.65,1.35 -1.9,2.4 1.1,-2.4 0.25,-5 Q 43.1,56.7 41.1,55.3 l -3.8,-2.35 q -0.3,-0.2 -0.9,0.5 -0.6,0.7 -0.35,0.85 l 3.15,1.85 -0.45,0.45 Q 28.7,71.15 12.55,81.55 l -0.1,-19.4 q 0.15,-11.5 3.25,-18.95 2.2,1.35 3.85,3.1 0.25,0.25 0.9,-0.45 0.65,-0.7 0.45,-0.95 -5.45,-5.55 -9.1,-4.1 -1.65,0.7 -2.75,2.3 0.2,-2.5 1.35,-4 1.35,-1.85 3.6,-1.6 3.2,0.35 7.5,2.65 0.3,0.2 0.9,-0.55 0.6,-0.7 0.4,-0.85 L 20.75,37.7 q 5.15,-2.25 11.55,0.8 5.4,2.6 9.45,7.65 m -17,8.75 q 2.2,-0.25 4.15,0.6 1.95,0.85 3.2,2.6 0.15,0.25 0.85,-0.45 0.7,-0.65 0.45,-0.95 -1.3,-1.8 -3.3,-2.65 -2,-0.9 -4.2,-0.6 l -0.85,0.75 q -0.5,0.75 -0.3,0.7 M 17.1,68.75 q -0.35,-0.15 -0.95,0.6 -0.6,0.7 -0.4,0.85 2.2,1.1 3.6,3.2 0.15,0.25 0.9,-0.45 Q 21,72.2 20.8,71.9 19.25,69.85 17.1,68.75 M 35.25,69 q 0.25,1.55 0,2.7 -0.2,1.35 -1.55,2.3 -0.55,1.2 -1.7,1.8 0.85,-1 1.1,-1.95 0.6,-1.7 0,-3.65 -0.45,-1.4 -1.65,-3.35 h -0.2 L 33,64.95 q 1.85,1.75 2.25,4.05 m -24.2,-7.4 q -3.8,0.4 -6.2,2.55 -2.4,2.1 -3.1,5.7 -0.7,-2.55 -0.4,-5.1 0.45,-3.8 3.35,-6.2 3.1,-2.55 6.6,-1.3 l -0.25,4.35"
         fill="#dd673e"
         fill-rule="evenodd"
         stroke="none"
         id="path4"
         style="display:inline;fill:#000000;fill-opacity:1" /></g></g></svg>
