<svg xmlns="http://www.w3.org/2000/svg" xml:space="preserve" width="452.723" height="655.645" viewBox="0 0 119.783 173.473"><g fill-rule="evenodd"><path fill="#006b33" d="m63.5 26.5-1.15-4.05q1.25-.95 2.9-.5 1.6.4 2.3 1.85.45.85.4 1.7-.1 1.05-1 1.3-1.55.4-2.65-.7-.25-.15-.8.4m-30.8.25-1.25-.05q-.3-.05-.75.4l-.45.75q-.5 3.1-3.7 1.75-2.6-1.1-4.05-3.05-1.8-2.25-2.3-5.45-.6-4.5 2.35-7.6 3-3.05 7.5-2.55.35.05.8-.5l.45-.8-.55-3.35q-.1-2.05 1.5-2.4 2.05-.45 4.55 1.85.2.2.8-.45t.45-.9q.1-3.55 2.5-2.85l1.8.7 2 1.7q1.7 1.8 3 4.45-1.7 1.35-2.7 3.55-1 2.1-1.1 4.45-2.6-1.6-5.65-.45-3 1.15-4.5 4.05-1.75 3.15-.7 6.75M28 26q.6-1.45-.05-2.7l-1.05-1.05q-.85-.55-1.4-.15-.35.3-.15 1.4l.5 1.45.95.85zm5.55 10.7 1-6.65.75.8-.05.15q-.85 2.7-1.4 5.95l-.05.15-.35-.15z" style="display:inline;fill:#000;fill-opacity:1" transform="scale(2.16514)rotate(-50 27.502 43.377)"/><path fill="#00a23d" d="m62.85 35.15-2.35-.95-2.25-1.25-1.4-.7-.75-1.3q-.9-.9-1.85-.75-.8.2-1.55 1.2l-.2.35q-.2.3-.05.35l2.8 1.35.45 1.25q-.05 2.2-1.8 3.15-1.3.75-3.4.65-2-.15-4.1-1.4l-3.55-2.6-.3.05h-.1q-1.75.45-3.2 1.65-1.4 1.15-2.25 2.75l-1.2-.75.6-.55 3.05-5.55v-.35Q37 30.3 35.5 28.35q-1.7-2.25-1.85-4.85-.2-4.4 3.5-6.05 3.75-1.6 6.6 1.6.2.2.75-.4l.55-.9q-.7-3.9 1.25-6.95 2.15-3.35 6.15-2.5 2.75.6 4.05 3.55 1.4 3.15-1.2 4.95-.15.05-.55.65t-.15.55q3.9-.4 5.8 4.1 1.05 2.5 2.35 7.6l1.35 3.4q.65 2.45-1.25 2.05m-40.8-23.1 1.25-.2-1.4 1.3q-.2-.75.15-1.1" style="display:inline;fill:#000;fill-opacity:1" transform="scale(2.16514)rotate(-50 27.502 43.377)"/><path fill="#dd673e" d="M41.75 46.15q.2.2.7-.35 1.4.95 0 4.35-1.35-1-3.1-1.85-.35-.15-.95.55-.55.7-.35.8 3.8 1.7 5.95 4.7 1.35 1.95 1.8 4.1.3 1.4-.4 2.9-.65 1.35-1.9 2.4 1.1-2.4.25-5-.65-2.05-2.65-3.45l-3.8-2.35q-.3-.2-.9.5t-.35.85l3.15 1.85-.45.45Q28.7 71.15 12.55 81.55l-.1-19.4q.15-11.5 3.25-18.95 2.2 1.35 3.85 3.1.25.25.9-.45t.45-.95q-5.45-5.55-9.1-4.1-1.65.7-2.75 2.3.2-2.5 1.35-4 1.35-1.85 3.6-1.6 3.2.35 7.5 2.65.3.2.9-.55.6-.7.4-.85l-2.05-1.05q5.15-2.25 11.55.8 5.4 2.6 9.45 7.65m-17 8.75q2.2-.25 4.15.6t3.2 2.6q.15.25.85-.45.7-.65.45-.95-1.3-1.8-3.3-2.65-2-.9-4.2-.6l-.85.75q-.5.75-.3.7M17.1 68.75q-.35-.15-.95.6-.6.7-.4.85 2.2 1.1 3.6 3.2.15.25.9-.45.75-.75.55-1.05-1.55-2.05-3.7-3.15m18.15.25q.25 1.55 0 2.7-.2 1.35-1.55 2.3-.55 1.2-1.7 1.8.85-1 1.1-1.95.6-1.7 0-3.65-.45-1.4-1.65-3.35h-.2l1.75-1.9q1.85 1.75 2.25 4.05m-24.2-7.4q-3.8.4-6.2 2.55-2.4 2.1-3.1 5.7-.7-2.55-.4-5.1.45-3.8 3.35-6.2 3.1-2.55 6.6-1.3z" style="display:inline;fill:#000;fill-opacity:1" transform="scale(2.16514)rotate(-50 27.502 43.377)"/></g></svg>