<?xml version="1.0" encoding="UTF-8"?>
<svg xmlns="http://www.w3.org/2000/svg" viewBox="0 0 403.58 240.41">
  <path d="m280.73.83c4.17,0,8.33,0,12.5,0,12.9,2.83,25.85,3.06,38.68,7.05,10.5,3.27,20.68,7.75,29.95,13.68,18.04,11.54,33.36,28.67,38.47,49.85,5.44,22.54,2.56,49.57,1.93,72.63-.58,21.3-8.93,38.67-25.33,52.39-34.49,28.86-82.85,34.71-125.89,39.3-48.92,5.22-96.1,3.8-144.92-1.4-40.15-4.28-92.39-11.37-105.29-56.3,0-24.12,0-48.25,0-72.37,3.33-5.04,3.65-12.61,7.02-18.13,3.22-5.27,7.5-9.87,12.13-13.93,9.37-8.22,20.58-13.89,32.55-17.26,12.44-3.5,25.85-5.3,38.66-3.04,14.65,2.58,28.26,7.91,43.41,7.4,30.55-1.04,50.32-20.78,73.86-36.97C230.14,8.8,255.05,3.77,280.73.83Zm-97.25,162.59c36.03-2.09,72.48-4.01,108.06-10.52,27.77-5.08,61.16-14.12,80.71-35.95,18.73-20.91,14.15-49.09-4.44-68.37-18.69-19.39-47.57-28.65-73.94-29.9-26.25-1.24-54.68,4.62-76.22,20.23-22.06,15.99-41.03,32.68-68.91,37.84-28.89,5.35-55.22-10.83-83.64-5.58-21.39,3.95-53.88,21.8-45.58,48.48,7.93,25.51,48.21,32.31,70.54,35.45,30.96,4.36,62.24,6.2,93.41,8.33Z"/>
  <path d="m344.43,51.01c-9.63,9.23-18.87,18.87-28.52,28.07-6.21,5.93-7.04,3.06-12.41-2.66-4.76-5.08-12.23-10.62-15.7-16.6-3.26-5.62,1.24-7.31,5.9-12.03,3.48-3.53,7.58-9.84,12.35-11.27,4.5-1.35,13.86,2.89,18.1,4.42,7.13,2.56,13.92,5.95,20.27,10.07Z"/>
  <path d="m298.76,95.86c-3.7,4.68-8.4,8.73-12.62,12.95-2.05,2.05-9.58,12.24-13.03,12.23-3.6-.02-12.47-11.51-14.94-13.9-2.99-2.89-10.87-8.2-10.46-12.19.36-3.54,10.99-11.59,13.41-14.09,2.82-2.91,8.32-10.98,12.23-10.41,3.6.53,9.99,9.67,12.43,12.11,4.36,4.36,9.14,8.51,13,13.31Z"/>
  <path d="m322.39,96.03c4.76-5.54,10.18-10.54,15.34-15.7,3.96-3.95,11.16-14.53,16.35-16.31,4.8-1.65,5.78.62,8.82,5.87,2.71,4.69,4.47,9.88,4.51,15.33.08,12.5-7.34,20.01-16.59,27.14-6.7,5.16-7.13,5-12.84-.74-5.18-5.21-10.4-10.39-15.6-15.58Z"/>
  <path d="m195.55,122.21c-4.72-4.1-9.02-8.72-13.46-13.12-2.29-2.27-12.78-9.81-12.65-13.45.26-7.21,20.65-18.02,26.37-19.82,6.24-1.97,7.55,1.09,12.23,5.79,2.41,2.42,13.5,10.82,13.51,14.13.02,3.4-10.25,11.09-12.67,13.5-4.36,4.35-8.49,9.16-13.33,12.97Z"/>
  <path d="m165.84,146.42c-9.01-.62-30.54,1.46-33.88-10.56-1.39-5.02,16.92-22.13,22.14-25.27,5.32-3.19,6.54.28,10.91,4.66,4.98,5,10.35,9.79,15.06,15.03,5.16,5.74,3.14,6.75-2.55,11.89-4.07,3.67-6.19,4.25-11.69,4.25Z"/>
  <path d="m207.94,134.78c3.75-4.34,7.89-8.3,11.94-12.35,3.28-3.28,9.18-11.77,13.36-13.23,4.39-1.54,24.05,16.68,26.44,21.66,4.45,9.28-11.26,11.09-17.95,11.74-6,.58-13.66,2.62-19.63,2.03-6.05-.6-9.83-5.83-14.17-9.84Z"/>
  <path d="m214.28,63.9c6.88-7.65,15.45-14.07,24.8-18.41,5.25-2.44,6.74-3.4,11.29.08,2.08,1.59,10.28,8.46,10.36,11.07.15,4.97-17.58,18.72-21.37,22.19-5.27,4.84-5.84,3.36-10.96-1.53-4.69-4.48-9.41-8.93-14.12-13.4Z"/>
  <path d="m57.95,130.13c3.32-4.11,17.16-21.73,22.41-21.8,3.2-.04,23.22,19.71,23.99,22.91,3.83,15.91-39.35,1.32-46.39-1.11Z"/>
  <path d="m117.02,122.75c-5.75-6.84-11.99-13.05-18.32-19.36-3.87-3.86-9.48-9.71-.4-12.34,5.72-1.66,16.16,3.29,22.18,3.91,7.88.82,15.49.09,23.37.09-.77,2.73-17.79,20.32-26.83,27.69Z"/>
  <path d="m328.39,125.9c-10.02,3.16-19.96,6.53-30.18,8.98-6.31,1.52-16.94,2.84-9.03-5.77,3.72-4.04,14.12-18.04,19.56-19.57,6.15-1.73,15.04,11.55,19.66,16.36Z"/>
  <path d="m42.42,122.22c-18.12-9.27,3.9-32.94,17.28-32.66,6.42.13,8.22,4.33,6.33,8.94-1.6,3.91-8.44,8.5-11.44,11.51-4.06,4.07-8.11,8.14-12.17,12.2Z"/>
  <path d="m282.12,36.08c-9.38,9.37-9.03,10.43-18.01.67,6.6-.65,12.08-1.19,17.55-1.72.15.35.3.71.46,1.06Z"/>
</svg>