<?xml version="1.0" encoding="UTF-8" standalone="no"?>
<!-- Created with Inkscape (http://www.inkscape.org/) -->

<svg
   width="108.31763mm"
   height="100.93881mm"
   viewBox="0 0 108.31763 100.93881"
   version="1.1"
   id="svg1"
   xml:space="preserve"
   xmlns="http://www.w3.org/2000/svg"
   xmlns:svg="http://www.w3.org/2000/svg"><defs
     id="defs1" /><g
     id="layer1"
     transform="translate(-50.913381,-102.06537)"><path
       style="display:inline;fill:#000000"
       d="m 82.634065,202.96574 -3.439583,-0.0371 -3.042708,-0.21623 -3.042708,-0.21623 -1.852083,-0.29852 -1.852084,-0.29852 -1.990837,-0.49619 -1.990837,-0.49619 -1.942244,-0.80092 -1.942244,-0.80092 -1.623168,-1.10107 -1.623169,-1.10108 -2.063189,-1.71288 -2.063189,-1.71289 -1.213059,-1.48795 -1.213059,-1.48796 -0.41326,-0.8651 -0.413261,-0.86511 0.403901,-0.4039 0.403901,-0.4039 0.699159,1.00889 0.69916,1.00888 1.147018,0.95879 1.147018,0.95879 1.43943,0.91949 1.43943,0.9195 1.872241,0.94169 1.872241,0.94169 2.714575,0.94488 2.714576,0.94488 2.821516,0.59631 2.821517,0.5963 9.128124,-10e-4 9.128125,-0.001 2.513541,-0.47314 2.513542,-0.47315 2.684006,-0.89803 2.684006,-0.89803 2.47537,-1.23503 2.47537,-1.23503 2.51354,-1.87174 2.51354,-1.87175 2.77813,-2.25913 2.77812,-2.25914 2.77813,-2.38884 2.77812,-2.38885 3.43958,-3.07251 3.43959,-3.07251 3.09567,-3.14621 3.09567,-3.14621 1.75685,-2.11667 1.75685,-2.11667 1.95357,-2.67063 1.95356,-2.67063 2.2659,-3.54707 2.2659,-3.54708 1.95059,-3.83868 1.95059,-3.83868 1.31637,-3.30507 1.31637,-3.30507 0.93824,-2.91042 0.93824,-2.91041 0.58857,-2.38125 0.58857,-2.38125 0.0249,-2.57824 0.0249,-2.57825 0.21108,-0.001 0.21107,-10e-4 0.64882,0.70009 0.64883,0.7001 v 1.95689 1.9569 l -0.41179,2.03936 -0.41178,2.03937 -1.05566,3.52836 -1.05565,3.52836 -1.36733,3.4831 -1.36734,3.4831 -2.39948,4.76249 -2.39949,4.7625 -2.22912,3.57188 -2.22911,3.57187 -3.09056,4.10105 -3.09055,4.10104 -3.47936,3.62455 -3.47936,3.62455 -3.23077,2.87228 -3.23078,2.87227 -7.01145,5.81982 -7.01146,5.81981 -2.11667,1.61037 -2.11667,1.61037 -1.5875,0.92235 -1.5875,0.92235 -2.38125,0.94354 -2.381245,0.94354 -2.645834,0.53662 -2.645833,0.53662 -3.571875,0.27244 -3.571874,0.27244 z m 11.804555,-7.91206 -1.485805,-0.013 -2.645833,-0.8834 -2.645834,-0.88339 -2.381249,-0.9889 -2.38125,-0.9889 -3.175,-1.39188 -3.175,-1.39187 -2.616034,-1.10504 -2.616033,-1.10504 -0.185337,0.21501 -0.185337,0.21501 -1.216904,1.85208 -1.216904,1.85209 -0.7578,0.8978 -0.7578,0.89781 -1.356008,-1.16239 -1.356007,-1.16239 -0.01948,-0.27285 -0.01948,-0.27285 1.480069,-2.59066 1.480069,-2.59065 -0.09101,-0.0594 -0.09101,-0.0594 -3.588824,-1.62256 -3.588824,-1.62256 -1.785711,-0.71487 -1.78571,-0.71487 -0.402059,-0.61362 -0.402058,-0.61362 0.08805,-0.44767 0.08805,-0.44767 0.431412,-0.27165 0.431413,-0.27165 4.198795,1.87603 4.198796,1.87603 1.769287,0.79612 1.769288,0.79612 1.834027,-2.82574 1.834027,-2.82573 1.357623,-2.10188 1.357622,-2.10189 v -0.17993 -0.17993 l -2.976562,-1.31016 -2.976562,-1.31015 -2.694585,-1.15627 -2.694585,-1.15627 -0.5842,-0.44067 -0.5842,-0.44066 0.870557,-1.8887 0.870558,-1.8887 h 0.0568 0.0568 l 3.93893,1.87509 3.93893,1.87509 2.575296,1.28215 2.575297,1.28214 0.681705,-0.97442 0.681704,-0.97442 2.530533,-3.91386 2.530532,-3.91385 -0.09899,-0.0642 -0.09899,-0.0642 -3.968749,-1.89237 -3.96875,-1.89237 -3.05538,-1.42817 -3.055379,-1.42818 -0.582641,-0.74071 -0.582642,-0.74071 v -0.83979 -0.83979 l 0.363166,-0.49666 0.363165,-0.49665 1.29048,0.82562 1.290481,0.82562 2.645833,1.23921 2.645833,1.23921 3.439584,1.57823 3.439583,1.57824 0.826645,0.50822 0.826644,0.50821 0.268876,-0.33175 0.268876,-0.33176 2.674791,-4.19265 2.674792,-4.19266 v -0.17503 -0.17503 l -5.093229,-2.16238 -5.093229,-2.16238 -1.852083,-0.6946 -1.852083,-0.6946 -0.661458,-0.32611 -0.661459,-0.3261 v -0.65131 -0.65132 l 0.983484,-0.0816 0.983484,-0.0816 1.794641,0.65618 1.794641,0.65618 3.439583,1.50343 3.439583,1.50342 2.027509,0.87868 2.027509,0.87867 0.384713,-0.44314 0.384712,-0.44313 1.724973,-2.67783 1.724974,-2.67783 0.239123,-0.14779 0.239122,-0.14778 1.246078,0.77558 1.246079,0.77558 v 0.31815 0.31816 l -1.719792,2.82171 -1.719792,2.8217 0.0045,0.23309 0.0045,0.23309 1.516839,0.64116 1.516839,0.64116 6.746876,2.97713 6.74687,2.97714 9.63825,4.46702 9.63825,4.46702 0.27914,0.44253 0.27914,0.44253 -0.46606,0.46607 -0.46607,0.46606 -1.51382,-0.57211 -1.51383,-0.57211 -6.61458,-3.07377 -6.61458,-3.07378 -1.07675,-0.4983 -1.07674,-0.49829 -5.27326,-2.36715 -5.27325,-2.36714 -3.817524,-1.67314 -3.81752,-1.67315 -0.221397,0.38119 -0.221397,0.38118 -2.652532,4.33285 -2.652532,4.33286 0.07687,0.0716 0.07687,0.0716 6.879166,3.57182 6.879166,3.57182 7.67292,4.11482 7.67292,4.11481 1.12448,0.66853 1.12448,0.66852 v 0.50328 0.50329 l -0.36652,0.30418 -0.36651,0.30417 -4.9913,-2.35867 -4.9913,-2.35868 -5.95312,-2.82289 -5.953133,-2.82289 -5.398505,-2.55933 -5.398506,-2.55933 -0.290036,0.49358 -0.290035,0.49359 -2.720986,4.2325 -2.720986,4.23249 0.07515,0.0375 0.07515,0.0375 13.940737,6.97086 13.94074,6.97086 0.14737,0.38406 0.14738,0.38405 -0.27295,0.51 -0.27294,0.51 h -0.50704 -0.50704 l -2.06334,-0.90232 -2.06334,-0.90231 -6.614578,-2.78778 -6.614583,-2.78778 -5.743362,-2.49123 -5.743361,-2.49124 -1.519272,2.41102 -1.519272,2.41102 -1.801771,2.73332 -1.801771,2.73331 0.132663,0.21466 0.132663,0.21465 2.317159,0.93655 2.317158,0.93655 3.96875,1.75442 3.96875,1.75443 2.513541,1.01258 2.513542,1.01258 1.437085,0.42607 1.437084,0.42608 h 1.153143 1.153144 l 0.981647,-0.50456 0.981647,-0.50457 1.571934,-0.95064 1.57193,-0.95064 h 0.75148 0.75147 l 0.1661,0.43284 0.16609,0.43283 -0.26256,0.42706 -0.26256,0.42706 -1.3009,0.86871 -1.300901,0.8687 -1.821486,0.91723 -1.821486,0.91723 z m 47.03855,-41.86658 -0.63477,0.0569 -1.45521,-0.67033 -1.45521,-0.67032 -4.63021,-1.92752 -4.63021,-1.92751 -0.97099,-0.34881 -0.97099,-0.34882 -0.69458,0.82546 -0.69457,0.82545 -1.2803,0.93983 -1.2803,0.93982 h -0.14798 -0.14798 l 0.78091,-1.89373 0.78091,-1.89373 0.27526,-0.33167 0.27527,-0.33168 -0.21129,-0.13028 -0.21128,-0.13029 -6.08542,-2.57538 -6.08542,-2.57538 -2.44834,-1.01325 -2.44834,-1.01325 -0.52822,-0.2827 -0.52822,-0.28269 v -0.48746 -0.48747 l 0.41429,-0.34383 0.4143,-0.34383 0.97477,0.34995 0.97476,0.34996 7.9375,3.42679 7.9375,3.42679 0.49948,0.0404 0.49947,0.0404 1.4849,-2.39594 1.4849,-2.39594 0.60969,-0.76687 0.60969,-0.76688 -1.9326,-0.73446 -1.93261,-0.73445 -7.19875,-2.78378 -7.19876,-2.78378 -2.45853,-1.09162 -2.45854,-1.09163 -6.61459,-2.76975 -6.614578,-2.76975 -2.114073,-0.76011 -2.114073,-0.76011 -0.333323,-0.45585 -0.333323,-0.45584 v -0.44776 -0.44775 l 0.725935,-0.13877 0.725934,-0.13877 1.329033,0.2163 1.329033,0.21631 7.933055,3.15064 7.93305,3.15063 3.57188,1.36528 3.57187,1.36529 3.57188,1.36399 3.57187,1.36399 4.21408,1.55234 4.21408,1.55233 h 0.20948 0.20948 l 2.82329,-4.07544 2.82329,-4.07544 -0.0739,-0.22404 -0.0739,-0.22404 -1.48444,-0.62314 -1.48445,-0.62314 -7.9375,-3.25121 -7.9375,-3.2512 -5.15937,-2.10587 -5.15938,-2.10586 -2.51354,-0.98064 -2.51354,-0.98064 -0.59531,-0.38743 -0.59531,-0.38744 v -0.7656 -0.7656 l 0.33073,-0.11906 0.33072,-0.11905 1.19063,0.46064 1.19062,0.46064 8.33438,3.36914 8.33437,3.36915 3.96875,1.58588 3.96875,1.58589 4.7238,1.82374 4.72379,1.82374 0.24343,-0.15045 0.24343,-0.15045 1.6193,-2.42789 1.61931,-2.4279 1.30987,-1.78593 1.30987,-1.78594 h 0.33213 0.33214 l 1.11041,0.80438 1.11041,0.80438 0.14991,0.39064 0.1499,0.39065 -2.68045,4.01264 -2.68045,4.01265 0.20306,0.17713 0.20306,0.17713 3.70417,1.53774 3.70416,1.53775 0.46302,0.3945 0.46302,0.39451 -0.004,0.28972 -0.004,0.28972 -0.23533,0.37171 -0.23533,0.37171 -0.79086,-0.0225 -0.79087,-0.0225 -4.15253,-1.75898 -4.15253,-1.75899 -0.0898,0.0898 -0.0898,0.0898 -1.33688,1.98141 -1.33688,1.98141 -1.46033,2.11376 -1.46033,2.11377 v 0.16924 0.16924 l 0.72761,0.27904 0.7276,0.27904 5.29167,2.01676 5.29166,2.01675 0.59531,0.38824 0.59532,0.38823 v 1.16891 1.16891 l -0.24539,0.15166 -0.24539,0.15165 -3.12805,-1.03251 -3.12805,-1.03251 -4.32272,-1.61707 -4.32273,-1.61707 h -0.19386 -0.19386 l -1.43654,1.78171 -1.43654,1.78171 -0.97828,1.35353 -0.97828,1.35354 2.3012,0.95204 2.3012,0.95204 4.25783,1.79969 4.25783,1.79969 0.63696,0.43838 0.63696,0.43837 -0.29127,0.48767 -0.29127,0.48767 z m -46.616198,-18.37413 -0.320657,0.12019 -3.704167,-1.31364 -3.704166,-1.31364 -1.984375,-0.57674 -1.984375,-0.57674 -0.08122,-0.82858 -0.08122,-0.82859 0.53983,-0.17133 0.53983,-0.17134 1.588742,0.40702 1.588742,0.40701 3.748193,1.44566 3.748192,1.44565 0.383214,0.38321 0.383213,0.38322 -0.169557,0.53423 -0.169557,0.53422 z m 24.698038,-27.59371 -0.14786,-0.006 -2.64584,-0.93608 -2.64583,-0.93608 -2.10075,-0.73231 -2.10075,-0.7323 -0.27915,-0.44254 -0.27914,-0.44254 0.29879,-0.46302 0.29879,-0.46302 0.89048,0.0303 0.89048,0.0303 2.64583,0.99362 2.64584,0.99361 1.65599,0.74651 1.65599,0.7465 0.17293,0.45067 0.17294,0.45066 -0.49043,0.35862 -0.49044,0.35861 z"
       id="path1" /></g></svg>
