<svg xmlns="http://www.w3.org/2000/svg" xml:space="preserve" width="362.667" height="285.338" viewBox="0 0 95.956 75.496"><path d="M130.218 93.16c-5.907.881-11.688 2.38-17.207 4.687-6.194 2.553-12.947 5.415-16.395 11.552 2.66 1.136 1.484-1.12 2.931-2.385.848-1.692 2.266-2.806 3.874-3.729 1.638-1.136 3.686-1.501 5.525-2.203 1.784.643.526 2.512-.764 2.94-2.584 1.631-5.106 3.424-6.823 6.004 4.969.578 9.947 1.07 14.92 1.614 2.166-.487 2.328-3.315 3.781-4.684 2.897-4.538 7.078-8.114 9.925-12.668.298-.339.221-.74.233-1.128m16.272.946c-2.873.134-5.92-.459-8.487 1.203-3.828 2.336-6.768 5.888-9.932 9.022-.541 1.125-1.862 2.239-1.953 3.37 1.182-.228 3.854.477 1.914 1.972-.676 1.381-7.406 2.4-3.9 2.54 7.767.672 15.512 1.71 23.281 2.241 1.445.13 2.467-1.195 3.093-2.129 1.775-3.015 2.13-6.574 2.141-9.985-.36-2.453-.254-5.003-1.042-7.369-1.298 1.41-3.122-.964-4.848-.801l-.237-.057zm9.7 2.878c-.816 1.032.153 2.692.032 3.968.356 4.226-.485 8.55-1.75 12.579-2.033 1.506-.388 5.478 1.346 4.07a32.7 32.7 0 0 0 2.175-11.786c-.306-2.75-.371-5.715-1.39-8.265zm-11.552 2.458c1.459.6 2.163 2.471.575 3.381-1.69 1.924-4.139 3.311-6.748 3.215-1.6.359-3.952-.412-3.485-2.487.428-1.197 1.82-2.351 3.016-2.937 2.086-1.132 4.34-1.037 6.642-1.172m-44.45 1.597a115 115 0 0 0-9.393 5.37c.283 1.935-4.793 2.578-.53 3.035 2.199.603 3.236-1.244 4.029-2.867 1.921-1.887 3.71-3.947 5.894-5.538m1.455 11.893c-3.028.466-6.17 2.016-7.08 5.18-.426 2.059-.239 4.312-.761 6.322-1.71 2.576 4.78 1.54 6.586 2.56 3.452.301 7.421 1.965 10.656 1.328 1.128-4.348 2.82-8.55 4.093-12.829-2.157.019-4.814 1.297-6.973 2.316-2.369 1.273-4.374 4.393-7.4 3.443-1.819-.695-2.38-3.118-1.201-4.765.197-1.953 6.137-3.286 2.317-3.51zM88.33 115.44c-2.512.313-5.204-.098-7.591.696-2.546.914-4.687 2.879-5.61 5.444-.275 2.613-2.211.012-2.573 1.131-1.468 1.679.392 2.737 1.919 3.17 1.85.989 3.71 1.93 5.853 1.568l5.958-.037c.85-3.942 1.086-8.03 2.044-11.972m60.868 4.222c-2.452 1.18-5.283 1.067-7.94 1.361-5.38.093-10.813-.072-16.16.18-2.919.823-4.252 3.793-6.285 5.696-1.378.921-2.948.626-4.497.467-.232 1.832 2.13 1.166 3.282 1.666 7.35 1.18 14.548 3.074 21.698 5.106 4.253-1.924 5.85-7.289 8.6-10.883.632-1.12 1.07-2.33 1.302-3.593m3.012.341c-2.31 5.564-5.292 10.86-9.106 15.538.624 2.71 2.189 2.595 3.43-.134 2.965-4.174 5.663-8.618 7.523-13.396zm-81.595 6.483c-3.285.172-3.349 4.873-5.033 6.694-3.439 1.866 3.858 2.69 5.03 3.762 4.23 1.599 8.378 3.69 12.62 5.114 1.93-.39.61-3.969 1.171-5.532.695-2.718-.703-4.412-3.513-4.944-3.481-1.579-7.002-3.104-10.275-5.094m23.181 6.35c-2.631 2.35-1.397 6.025-1.68 9.092-.492 1.364-2.414 2.07-3.573 1.146-1.267-2.304-2.36-.422-.353.496 6.578 1.827 12.89 4.456 19.333 6.688 1.99-.77 1.173-3.27 1.569-4.92.266-3.43.407-6.867.562-10.302-3.329-.133-6.653-.296-9.864-1.263-1.978-.383-3.961-.996-5.994-.937m24.179 2.606c-1.87.048-2.443 2.12-2.213 3.688-.156 4.624-.024 9.32-.356 13.9.104 1.177-2.946 2.084-1.044 2.277 4.36-.575 7.783-3.614 11.357-5.935 3.411-2.712 6.95-5.417 9.862-8.652.609-1.111 2.046-2.073 1.246-3.438-1.146.424-2.926 2.856-4.707 3.511-4.9-.92-9.275-4.142-14.145-5.351m22.339 2.892c-2.05 2.592-3.678 5.737-6.407 7.803-3.621 3.533-7.76 6.445-11.917 9.297-1.105.812-3.02.883-3.477 2.286.814 2.006 2.088 2.603 3.787.747 5.237-3.429 10.541-6.89 14.78-11.55 1.968-1.813 3.796-3.741 5.091-6.104-.221-1.062-1.121-1.756-1.857-2.479m-77.475.587c-1.003 2.858-.67 5.891-.802 8.864.058-.935.119-4.192.174-3.543.134 3.34-.064 6.76 1.46 9.854 1.57 3.839 3.884 7.668 7.694 9.62 4.846 2.775 10.448 4.185 15.99 4.574-.313-2.523-2.631-3.003-4.775-2.975-5.045-.841-10.148-2.842-13.529-6.81-2.14-1.883-2.731-4.873-4.136-7.28-.903-1.669-1.233-3.565-1.721-5.38.353 2.345 2.625 7.804 3.06 7.705-1.008-2.13-1.504-5.04.409-1.757 2.25 2.244 4.319 4.845 6.92 6.67 2.954 1.567 5.97 3.218 9.244 3.824 4.152.105.26-6.403 1.233-8.797-.403-1.414.447-4.026-.708-4.71-6.136-1.569-11.21-5.78-17.082-8.08-1.157-.533-2.504-.857-3.431-1.779m30.126 11.645c-2.156 1.176-1.505 4.144-1.556 6.186.01 1.923.994 3.935-.197 5.679-1.798.984-2.028.752.325.74 2.868.01 5.732-.02 8.476-.963 3.013-.916 6.669-1.454 8.983-3.607.668-1.174.103-2.8-.158-4.016-1.584-2.37-1.16-.275-2.938.011-2.942.588-5.822-1.347-8.516-2.316-1.456-.604-2.873-1.361-4.42-1.714m19.521 7.872c-1.445.566-.195 2.683-2.011 2.844-4.731 2.586-10.085 3.926-15.395 4.666l-5.344.306c.175 2.17 2.082 2.7 3.873 2.26 7.472.025 14.534-2.916 21.229-5.944 3.082-.35 2.813-2.571.832-3.79z" style="display:inline;fill:#000;fill-opacity:1" transform="translate(-62.038 -93.16)"/></svg>