<svg xmlns="http://www.w3.org/2000/svg" xml:space="preserve" width="204.112" height="425.917" viewBox="0 0 54.005 112.691"><path d="M117.787 201.276c-1.038-.18-2.804-.6-3.923-.932l-2.035-.604-1.324.476-1.324.476-1.681-.135-1.68-.135-1.248-.604c-.686-.332-1.644-.952-2.13-1.379l-.883-.775-.264-.968-.264-.968-.775-.438c-1.088-.614-1.584-1.485-1.914-3.362l-.286-1.624h-.39c-.213 0-.747-.359-1.186-.797l-.797-.798.09-1.274.09-1.275-.774-.666-.774-.666-.111-1.694-.112-1.693-.328-.265c-.588-.475-.943-1.4-.943-2.46v-1.038l.658-.97.658-.97-.649-.296c-.356-.162-.973-.764-1.37-1.336l-.72-1.04.019-1.317.02-1.316-.645-.423c-.354-.232-.83-.78-1.055-1.216l-.41-.795.17-1.066.17-1.066-.7-.559-.702-.558-.046-1.534-.046-1.534-.435-.243c-.239-.134-.57-.653-.735-1.154l-.3-.91.268-.971c.147-.534.468-1.192.714-1.463l.445-.493-.631-.511-.632-.512v-3.21l-.596-.418c-1.236-.866-1.732-2.78-1.089-4.194l.3-.657-.93-1.086-.93-1.086-.333-1.193-.334-1.192.3-1.003c.165-.55.538-1.217.829-1.48l.528-.478-.923-1.02-.923-1.022v-1.637l.429-.725.428-.725-.662-.661-.661-.662-.283-1.32-.284-1.32.155-.592.155-.592-.568-.398c-.673-.47-1.354-1.984-1.354-3.005v-.726l.529-.672c.633-.805.657-1.08.132-1.516l-.397-.329v-2.215l.389-.514c.529-.7.5-1.068-.153-1.951l-.558-.755-.23-1.231-.23-1.232.301-.483.302-.482-.572-.925-.572-.925v-2.299l1.455-1.354c1.518-1.412 1.723-1.814 1.059-2.069l-.397-.152v-5.6l.425-.846c.501-.998 1.373-1.759 2.022-1.767.467-.006.608-.303.293-.617-.093-.094-.145-1.208-.115-2.476l.056-2.306.358-.858.359-.858.811-.42c.447-.23 1.724-.608 2.84-.838l2.026-.42 1.798.102 1.797.102 1.007.804 1.007.804.662 1.25.661 1.249 1.339.615 1.339.615.868 1.353.869 1.354.585-.049c.322-.026.952.104 1.4.289l.813.337.71 1.304.71 1.304h.338c.187 0 .537.218.778.484l.438.484v2.146l.65.426.65.426.26.994c.144.546.357 1.516.475 2.154l.214 1.162.876.095c.482.052 1.117.223 1.412.38l.534.287.375.896c.206.493.374 1.185.374 1.538v.641l.659.165.658.166.44.67.439.671.027 1.263.026 1.262.453.452.453.453.188.983c.103.541.197 1.758.208 2.704l.021 1.72.794.397.794.396.477.926.478.927-.142 1.124-.142 1.124h.956l.6.64.601.639.03 1.014c.015.558-.06 1.2-.167 1.428l-.196.413.658.353.658.352.277.795.277.795v4.393l.463.259.463.258.09 3.11.09 3.111.806.753.806.753-.14 1.556-.142 1.556.506.132.505.132.44 1.016.44 1.016.061 2.34.062 2.338.553.589.554.588v2.144l-.53.673c-.657.836-.657 1.026 0 2.104l.528.866v1.34l.002 1.339.816.603.817.604-.09 1.383-.088 1.383.437.438.437.437.182 1.32.181 1.318-.178.81-.178.81.558.458.557.457.257 1.588c.142.873.258 2.666.259 3.984l.002 2.397-.36.491-.359.491.593.874c.326.48.673 1.3.77 1.822l.179.95-.414 1.421-.413 1.422-1.25 1.25-1.25 1.25-1.326.615c-.73.338-1.843.692-2.474.786l-1.148.173-2 2.414c-1.101 1.327-2.252 2.545-2.559 2.706l-.557.292zm2.352-2.672c.545-.656.992-1.317.992-1.469v-.276l-1.786.106-1.786.106-1.582.73-1.582.731.392.248c.215.136.688.256 1.052.266s1.078.177 1.588.37c.51.192 1.104.357 1.323.365l.397.014zm-11.453.1c-.012-.402-2.137-1.785-2.745-1.785h-.437l-.165.43-.166.431.637.484c.644.489 1.208.67 2.29.735l.596.036zm2.408-1c.282-.151.512-.443.512-.65v-.374l-1.217-.837-1.216-.838-.636.29-.635.29v1.022l.814.685.814.685h.526c.29 0 .757-.123 1.038-.274m-5.653-1.721c.858-.563.76-.855-.392-1.165-.55-.148-1.234-.447-1.521-.664-.287-.216-.61-.397-.72-.402-.303-.013-.235 1.809.091 2.419l.29.54.82-.165c.453-.09 1.097-.344 1.432-.563m8.493.354c.5-.5.409-.685-1.161-2.33l-1.479-1.551-.349.134c-.192.073-.5.498-.685.944l-.335.81 1.222 1.155 1.222 1.155h.624c.343 0 .767-.143.941-.317m2.55-1 .678-.257v-.496c0-.273-.358-.99-.795-1.594l-.796-1.098h-.77c-1.014 0-1.608.242-1.608.656 0 .486 1.928 3.04 2.298 3.044.173.002.62-.112.993-.254m3.788-.681.332-.103-.429-1.132-.429-1.132-.767-.728-.767-.728-.591.004c-.325.002-.735.096-.91.207l-.319.203.784 1.555c.432.855.916 1.713 1.077 1.907l.293.353.697-.152c.384-.084.847-.198 1.03-.254m2.804-.432.28-.445-.465-1.473-.464-1.473-.582.004c-.32.002-.748.11-.95.238l-.37.234.184 1.151c.101.633.364 1.427.584 1.763l.4.611.552-.082c.303-.045.677-.283.831-.528m2.966-.222.712-.27-.153-.949c-.085-.52-.341-1.232-.57-1.58l-.414-.634h-1.073l-.384.917c-.21.505-.383 1.153-.383 1.44v.523l.588.412c.695.487.754.492 1.677.141m-24.253-.622.302-.364-.71-2.152-.708-2.152-.515.465-.516.466.147 1.242c.08.684.335 1.606.565 2.05l.418.809h.357c.197 0 .494-.164.66-.364m6.196-.205c.318-.167.659-.428.757-.58l.18-.275-.386-.677a76 76 0 0 0-.867-1.471l-.482-.794-.885.09c-1.348.137-2.682.652-2.997 1.157l-.283.454.549.737.549.737 1.163.449c1.4.54 1.94.574 2.702.173m23.099-3.34.17-.905-.3-1.001c-.165-.551-.463-1.137-.663-1.302l-.362-.3-.43.164c-.237.091-.43.342-.43.557 0 .335.625 3.085.98 4.314l.116.397.374-.509c.206-.28.451-.916.545-1.414m-15.906-.239c0-.17-.47-.629-1.043-1.018l-1.043-.708-.346.474c-.38.52-.453 1.236-.158 1.531.104.104.73.154 1.39.11l1.2-.078zm-10.319-.926c.873-.146 1.869-.32 2.213-.387l.625-.12-.468-.517-.468-.517-1.348.02c-.741.012-1.823.164-2.404.34l-1.056.317-.094.49-.095.49.357.227.357.227.397-.152c.218-.084 1.11-.272 1.984-.418m-5.728-.508c.943-.329.991-.458.445-1.18-.214-.283-.392-.655-.397-.828s-.13-.632-.278-1.022l-.27-.708-.54.687-.54.687-.149.919c-.272 1.676.122 2.005 1.729 1.445m18.847-.57a7.4 7.4 0 0 0 1.13-1.286l.448-.69-.512-.633-.512-.632h-2.469l-.923 1.007-.922 1.007.103.316c.128.387 2.03 1.496 2.577 1.502.218.002.704-.264 1.08-.591m-7.178-.704c.148-.278.688-.764 1.2-1.08.51-.316.929-.722.929-.903 0-.46-1.067-1.377-1.814-1.558l-.624-.152-.643.245c-.354.134-.937.56-1.295.947l-.651.703v1.245l.529.53.53.529h1.568zm14.946-.007.464-.512-.208-.337c-.46-.745-1.337-1.61-2.12-2.095l-.83-.512h-2.186v.256c0 .141.633.724 1.407 1.296.774.571 1.61 1.349 1.858 1.728.538.82.987.87 1.615.176m-21.852-1.117 1.415-.319.141-.366.14-.367-.274-.275-.275-.274-1.896.32-1.895.319-.142.37c-.078.203-.068.562.022.797l.164.426.592-.156c.325-.086 1.229-.3 2.008-.475m24.327-1.155.078-.797-.413-.987-.412-.988h-.364c-.2 0-.616.209-.923.464l-.56.463.81 1.405.809 1.406.448-.085.448-.085zm-29.828-.986a80 80 0 0 0-.655-1.579l-.42-.983v-2.448l-.5-.131-.501-.131-.154-.77-.154-.77h-.363c-.2 0-.568.226-.819.504l-.456.504.085.885.084.885.847.273c1.173.38 1.234.493.76 1.409-.433.837-.531 1.81-.255 2.53l.16.418h2.576zm2.485.087c.083-.135.775-.441 1.537-.682l1.728-.546.342-.107-.285-.534-.286-.533-.718.001c-.395.001-1.163.125-1.707.276l-.99.275-.282.528-.282.527.165.52c.175.552.529.677.778.274zm29.663-.103c.074-.192.017-1.587-.125-3.102l-.26-2.754-.448-.328-.448-.327-.502.268-.502.269.169.978c.093.538.461 1.96.819 3.16l.65 2.183h.257c.141 0 .317-.156.39-.347m-21.77-1.217 1.123-1.035.788-.09.787-.089.089-.469.089-.469-.948-.948-.949-.949-.643.162-.644.161-.146-.236-.146-.237.924-.173.923-.173v-1.464l-.54-.579-.539-.579h-.561c-.31 0-1.062.293-1.674.651l-1.111.652-.32.771-.32.772.72 2.082c.75 2.18 1.331 3.274 1.736 3.274.132 0 .745-.466 1.362-1.035zm6.104.643.15-.393.341.106c.188.058.847.177 1.465.263l1.125.158v-1.476l-.412-.588-.412-.588h-.871a6.2 6.2 0 0 0-1.694.286l-.823.287-.154.485c-.084.266-.076.792.018 1.168l.172.684h.944zm9.157-1.79-.01-.596-.586-.702-.586-.703-.932-.252-.931-.252-.59.219-.59.218v.796l1.315.565c.723.311 1.452.731 1.62.934.168.202.529.368.802.368h.497zm-23.743-.463.866-.528 1.257-.167 1.256-.168v-.436c0-1.123-1.677-2.406-3.146-2.406h-.792l-.412.588-.412.588v1.11c0 1.038.195 1.947.419 1.947.053 0 .487-.237.964-.528m26.034-.916c.081-.212.048-1.551-.075-2.976l-.222-2.591-.889.042c-.489.023-1.004.157-1.145.298l-.255.256.821 2.451c.452 1.348.884 2.554.962 2.679.217.352.639.268.803-.159m-11.282-.99 1.857-.32v-.931l-.568-.304-.568-.304-1.152.13c-.633.071-1.33.278-1.549.459l-.397.33v1.258h.26c.143 0 1.095-.144 2.117-.319m7.58-1.029c-.09-.45-.396-1.344-.681-1.988l-.517-1.17-.42-.16-.421-.162-.982.374-.983.374v.999l1.381.812c.76.447 1.59 1.02 1.843 1.275.254.255.57.464.703.464h.24zm-22.786-1.45.995-.415-.165-1.576-.165-1.576-.415-.803-.416-.803-.703.082-.704.083-.63.926-.629.926.14 1.407.141 1.407.314.379c.405.488 1.004.478 2.237-.037m5.202-.907.9-1.191.99-.53.99-.528-.074-.53-.074-.529-.793-.397-.794-.397v-1.566l-.9-.606c-.494-.333-1.13-.606-1.415-.606h-.516l-.9.9-.9.9.01 1.283.009 1.283.51 1.058c.282.582.516 1.152.521 1.266s.205.507.444.872l.435.664.329-.078c.18-.043.733-.614 1.228-1.269m9.346.136 1.586-.295-.714-.715-.715-.714h-.686c-.378 0-1.038.182-1.467.404l-.781.403v1.61l.595-.198c.328-.11 1.31-.332 2.182-.495m14.553-1.878v-1.83h-1.323l-.085.601c-.047.33.113 1.2.356 1.932l.442 1.33.305-.102.305-.101zm-33.205-.267c0-.232-.235-.72-.522-1.085l-.522-.664-.16-.966c-.088-.53-.22-1.144-.293-1.362l-.132-.397-.498.926-.497.926-.01.91-.012.908.575.613.576.612h1.495zm16.991-.508c.687-.435 1.252-.855 1.257-.933s-.538-.599-1.205-1.157l-1.213-1.014-.64.291-.638.291v.355c0 .65.822 3.131 1.007 3.043.101-.047.745-.442 1.432-.876m7.284-.043c.619-.085 1.125-.221 1.125-.302s-.259-.423-.575-.76l-.576-.612-.813.001-.814.001-.86.524-.86.525v1.136l1.125-.18c.618-.098 1.63-.248 2.248-.333m5.273-.403.311-.245-.278-.798-.278-.798-.693.174c-1.26.316-1.767 1.205-1.08 1.891l.278.279.714-.129c.393-.07.854-.239 1.026-.374m-28.118-2.15c.45-.338 1.027-.692 1.282-.786.636-.234.585-.45-.336-1.434l-.797-.85-.404.155c-.222.086-.648.634-.947 1.22l-.543 1.064.284.623c.352.77.445.771 1.461.008zm21.161-.756c.6-.172 1.136-.348 1.193-.39.199-.15-.6-.923-1.358-1.315l-.763-.394-.976.311c-.536.172-1.087.415-1.223.541l-.248.23.624.664.625.665h.519c.285 0 1.008-.14 1.607-.312m4.396-.085c.182-.218.53-.396.776-.396.245 0 .661-.158.923-.35l.478-.348-.54-1.058c-.297-.582-.725-1.212-.952-1.4l-.413-.343-.654.164c-.359.09-1.068.409-1.576.708l-.922.544.911 1.194c.501.657.911 1.304.911 1.438 0 .385.695.285 1.058-.153m-12.972-.952 1.066-.556v-.576c0-.317-.185-.841-.412-1.165l-.413-.59-.58.124c-.318.067-1.264.255-2.1.416l-1.522.294v.338c0 .185.423.772.939 1.304l.939.967h.508c.28 0 .988-.25 1.575-.556m-16.041.112.179-.179-.5-.548c-.274-.302-.641-.996-.816-1.541-.375-1.173-.59-1.228-1.195-.306l-.45.686.177.701c.096.386.3.851.451 1.034l.276.332h.85c.467 0 .93-.08 1.028-.179m9.236-.937c1.102-.867 1.181-1.142.58-2l-.412-.588h-.498c-.695 0-.846-.362-.398-.953.21-.277.384-.752.389-1.058l.008-.556-.806-1.112-.806-1.112-.583.173c-.32.096-.927.507-1.347.915l-.764.742v2.06l.578 1.31c.317.72.887 1.76 1.266 2.308l.689.997.556-.172c.305-.096 1.002-.525 1.547-.954zm11.35-.892c.779-.522 1.624-1.135 1.879-1.364l.463-.414v-.568c0-.312-.143-.71-.317-.885l-.318-.317h-1.023c-1.032 0-2.026.373-2.36.887-.258.398-.002.7.594.7.658 0 .667.445.013.653l-.5.158-.158.587c-.23.858-.198 1.513.074 1.513.13 0 .875-.428 1.653-.95m-17.68-.284.746-.163-.175-.69c-.096-.38-.29-1.406-.432-2.279-.14-.873-.356-1.689-.48-1.813l-.222-.225-.817.18-.817.179-.532.677-.532.676v.908c0 .952.315 1.74 1.015 2.543l.42.48.539-.156c.296-.085.875-.228 1.286-.317m29.85-1.873c-.184-.689-.53-1.468-.768-1.731l-.434-.48-1.051.08-1.052.078-.103.314-.103.314.659.347c.362.192 1.097.924 1.633 1.628l.976 1.28.289-.29.29-.289zm-6.546.655c.568-.325 1.16-.796 1.317-1.047l.285-.457-.362-.866-.361-.867.04-.958.04-.958-.467-.569-.467-.569-1.19.353-1.191.353.084.645c.046.354.085 1.746.087 3.092l.004 2.448.574-.004c.316-.002 1.04-.27 1.607-.596zm-11.739-.725c.773-.147 1.464-.326 1.536-.398s-.035-.44-.237-.818l-.369-.688-.933.125c-.513.07-1.407.35-1.987.623l-1.055.497-.09.463-.088.462h.909c.5 0 1.541-.12 2.314-.266m-16.633-.7.484-.439v-.513c0-.576-.962-2.05-1.338-2.05-.233 0-1.043 1.668-1.043 2.148 0 .272.975 1.291 1.235 1.291.098 0 .396-.197.662-.438m15.863-2.73.696-.008.329-.397.33-.396-.33-.397-.33-.397h-2.104l-.923.438-.924.438-.21.554-.209.554.225.43.225.43 1.265-.62c.696-.341 1.578-.624 1.96-.628zm7.441.695.992.038v-.416c0-.229-.197-.633-.438-.9l-.437-.483h-.634c-.736 0-1.953.58-2.435 1.161l-.335.403.176.284.176.285.971-.206a9.7 9.7 0 0 1 1.964-.166m-24.63-2.695c-.049-.869-.195-1.69-.324-1.825l-.235-.245-.535.484-.536.485v1.86l.447.494.447.494.413-.084.413-.083zm4.767 1.031.179-.104-.136-1.386-.136-1.385.253-1.096.253-1.096-1.751-.122-1.752-.121-.33.257-.331.258.002.96c0 .528.13 1.421.286 1.986l.285 1.026.647.647.647.647.852-.183c.47-.1.933-.23 1.032-.288m28.129-.09.165-.52-.28-2.02c-.155-1.11-.348-2.126-.429-2.257-.218-.353-1.068-.287-1.396.11l-.288.346.646 1.572c.355.864.721 1.958.814 2.43.19.97.521 1.117.768.34m-23.446-.83 1.159-.5-.164-1.027-.165-1.026.23-1.232.23-1.232-1.62.171-1.622.172-.583.365-.583.365-.166.886-.166.886.312 1.167c.172.641.436 1.318.588 1.503l.276.337.558-.167c.307-.092 1.08-.392 1.716-.667m4.103.422c.336-.22 1.314-.584 2.173-.808.86-.223 1.681-.527 1.826-.675l.265-.27-.71-.615c-.39-.338-.86-.665-1.045-.727l-.336-.112.47-.99.47-.99-.423-.646-.423-.646-.986.001-.986.001-.852.52-.853.52-.174.692c-.264 1.054.406 5.146.843 5.146.07 0 .404-.18.74-.401m8.735-.838 1.032-.374.754.166.755.166v-.257c0-.14-.22-.526-.486-.856l-.486-.6-.771.025c-1.022.032-2.74.77-2.928 1.257-.082.214-.075.58.014.813l.163.424.46-.195c.254-.107.926-.363 1.493-.569m6.179-1.139.86-.004-.009-.463c-.005-.255-.17-.677-.368-.938l-.36-.475-.664.166c-.684.172-1.774 1.04-1.774 1.412 0 .403.387.592.92.45.294-.08.922-.146 1.395-.148zm-5.558-2.583c.035-.11-.21-.543-.548-.964l-.612-.766-1.372.33c-1.595.382-1.78.583-1.42 1.548.146.391.332.917.412 1.168l.147.457 1.664-.787c.915-.433 1.693-.876 1.729-.986m12.295-.27c-.032-.688-.206-1.847-.388-2.575l-.33-1.322-.53-.068c-.29-.037-.697.041-.902.174l-.374.242.702 1.435c.387.79.773 1.842.86 2.34s.21 1.072.275 1.279l.118.375.314-.314.313-.313zm-9.053.204c.57-.291 1.214-.53 1.43-.53s.468-.124.562-.276l.17-.276-.335-.405c-.185-.222-.8-.64-1.365-.93l-1.03-.524-.813.081-.814.082-.262.418-.262.42.723 1.234c.398.68.777 1.235.842 1.235s.584-.238 1.154-.53m-20.703-1.229.595-.371v-.806l-.774-.445-.775-.444.02-.696c.027-.948-.239-1.301-.98-1.301h-.625l-.814.685-.814.685v1.704l.33.436c.182.24.684.615 1.115.835l.783.4.672-.155c.37-.085.94-.322 1.267-.527m5.622-.905c0-.621-.596-1.332-1.4-1.672l-.849-.357.926-.25.926-.251.085-.442.085-.442-.719-.666-.719-.666h-1.418l-.57.608c-.315.335-.642.96-.728 1.39l-.155.78.282.74.281.74.862.374.862.375 1.125.01 1.124.01zm11.529-1.654 1.243-1.141-.307-.572c-.168-.315-.512-.678-.763-.808l-.457-.234-1.189.295-1.188.294-.35.734c-.192.403-.372 1.05-.399 1.436l-.05.704.662.19c.364.105.863.203 1.108.217l.447.027zm-6.79-.776c.592-.619 1.078-1.266 1.08-1.438.001-.172-.36-.57-.803-.885l-.805-.574-.59.148c-.324.082-.974.524-1.444.984l-.854.835v.598c0 .659.384 1.066 1.19 1.265 1.01.247 1.157.186 2.227-.933m12.988.727c.181-.218.545-.397.808-.397.262 0 .664-.186.891-.414l.414-.413-.4-.773-.4-.773-.631-.159-.632-.159-.62.32c-.933.482-1.811 1.355-1.811 1.801 0 .218.197.614.438.88l.438.484h1.176zm-30.24-.608.319-.202-.797-1.58-.796-1.579h-.62l-.243.69-.242.691.17.68c.311 1.239 1.347 1.848 2.209 1.3m3.848-2.269c.546-.25.992-.513.992-.584 0-.344-1.447-2.96-1.927-3.484l-.546-.595h-.928l-.574.727-.574.728.105 1.47.105 1.471.628 1.016.629 1.017.549-.656c.302-.36.995-.86 1.541-1.11m23.12.959c.243-.4.713-1.13 1.044-1.623l.601-.895-.255-.67c-.14-.37-.459-.826-.708-1.015l-.452-.344-.983-.008-.983-.008-.285.532-.285.533.293 1.615c.475 2.622 1.168 3.27 2.012 1.884zm-18.2-2.118 1.312-1.258-.615-.77-.614-.77-.172-.921c-.095-.507-.36-1.207-.59-1.557l-.417-.636-.547.08-.547.078-.628.927-.628.926.115 1.19c.064.655.386 1.816.718 2.58l.603 1.389h.348c.192 0 .94-.566 1.661-1.258m11.448.825c.198-.238.867-.65 1.488-.917l1.128-.483v-.441c0-.243-.248-.843-.55-1.333l-.552-.89h-1.156c-.636 0-1.447.131-1.801.293l-.645.294-.294.644c-.427.938-.392 1.046.698 2.186 1.15 1.201 1.206 1.222 1.684.647m-6.505-.632.767-.801.803-.207.804-.207.08-.668.08-.67-.4-.331-.401-.332-.928.306-.927.306-.67.797c-.67.796-.812 1.402-.51 2.189.226.589.428.53 1.301-.382m17.851-.986v-.727l-.525-.86-.524-.86h-1.348l-.13.34c-.071.186.034.81.233 1.388l.363 1.05.768.167c.422.092.857.182.966.199s.198-.296.197-.697m1.838-2.926c-.008-.828-.098-1.969-.198-2.535l-.184-1.03-.458-.288-.458-.29-.41.41-.409.41.583 2.232c.608 2.332.922 2.985 1.315 2.742l.234-.145zm-34.383.879.619-.66-.303-.663c-.166-.366-.421-.664-.567-.664s-.508-.477-.805-1.059-.647-1.058-.777-1.058c-.35 0-1.341 1.7-1.33 2.28.014.748.631 1.719 1.342 2.113.89.494 1.12.457 1.821-.29m13.774-.522 1.177-1.181.71-.16c.39-.087.84-.316 1-.509l.29-.35-.692-.823-.693-.824h-1.54v-.233c0-.129.237-.296.529-.373l.529-.138v-1.078l-.605-.704-.605-.703-.917.384c-.504.211-1.294.703-1.756 1.093l-.84.708-.174.79-.174.789 1.118 2.246c.615 1.236 1.197 2.246 1.292 2.246.096 0 .704-.531 1.351-1.18m-8.682-.97c.589-.315 1.922-1.783 1.922-2.116 0-.303-2.333-1.799-2.573-1.65-.292.18-1.264 2.115-1.264 2.515 0 .298 1.014 1.55 1.255 1.55.057 0 .354-.135.66-.299m16.805-.385.595-.12v-1.313h-2.528l-.588.412-.588.411v1.019l1.257-.145c.69-.08 1.524-.198 1.852-.264m6.576-.483.143-.373-.39-.753c-.213-.413-.609-.95-.878-1.19l-.49-.44-1.257-.185-1.257-.186v1.143l.82.45c.452.249 1.255.77 1.786 1.16 1.127.829 1.329.878 1.523.374m-25.904-2.275c.328-1.236.6-2.378.602-2.538.004-.16-.467-.504-1.046-.765l-1.052-.474-.422.35c-.489.406-1.442 2.187-1.442 2.694 0 .19.424.976.944 1.746l.943 1.402.438-.084.438-.085zm28.097 1.523c-.016-.473-.165-1.634-.331-2.58l-.302-1.72-.728-.083-.728-.084v.542c0 .297.173.99.384 1.539.21.548.513 1.503.672 2.122l.288 1.124h.773zm-12.284-1.506c.084-.137.716-.325 1.404-.417s1.422-.222 1.631-.29l.38-.123-.695-.695-.695-.695h-1.578l-.682.447-.682.447v1.575h.381c.21 0 .45-.112.536-.249m-9.318-1.466c.87-.765.903-1.09.19-1.829a32 32 0 0 1-1.35-1.549l-.813-.992h-.39c-.214 0-.737.348-1.163.773l-.773.774v1.292l.542.689c.619.786 1.725 1.434 2.5 1.463l.53.02zm17.926.044c0-.192-.183-.966-.407-1.72l-.407-1.371h-.678c-.855 0-2.477.756-2.476 1.154v.301l1.786.957c2.069 1.11 2.182 1.145 2.182.679m6.09-.584.335-.403-.166-1.78-.166-1.78-.426-.312-.427-.313-.57.216-.569.216.086.494c.204 1.17 1.174 4.065 1.363 4.065.113 0 .357-.181.54-.403m-34.635-1.042c.345-.503.896-1.06 1.225-1.235.694-.371.72-.49.248-1.135l-.349-.478-1.089.556c-.598.305-1.266.809-1.483 1.118l-.394.563.153.433c.202.57.616 1.094.863 1.094.11 0 .48-.412.826-.916m19.748-.411c.764-.347 1.389-.712 1.389-.811 0-.347-2.122-2.095-2.58-2.127-.79-.053-1.244.06-1.595.4l-.339.328.695 1.517c.382.835.773 1.474.868 1.42s.798-.381 1.562-.727m-6.439-1.574 1.213-.52v-1.333l-.76-.85-.76-.85-1.919.297c-1.055.163-2.036.414-2.18.557l-.26.26 1.418 1.46c.78.803 1.557 1.468 1.727 1.48.17.01.855-.215 1.521-.5m-7.051-.92.988-.909-.444-.744-.444-.744-.573-.088-.574-.087.18-.574c.097-.316.24-.835.317-1.154l.139-.58-.756-1.068-.755-1.068-.405-.006c-.46-.006-1.554.696-2.034 1.306l-.323.409-.008 1c-.005.55.161 1.407.368 1.902.452 1.081 2.452 3.315 2.968 3.315.202 0 .812-.41 1.356-.91zm19.842.038 1.392-.3-.085-.258c-.047-.141-.376-.472-.73-.735l-.646-.478-.983.273c-1.175.327-1.795.89-1.795 1.627v.54l.728-.184c.4-.102 1.354-.32 2.12-.485m-25.77-1.134.403-.155-.216-.573c-.12-.315-.301-1.192-.405-1.948l-.188-1.376-.335-.278-.335-.278-.899.604-.899.604-.08.967-.082.968.419.81.418.81h.898c.494 0 1.08-.07 1.301-.155m30.284-1.424.085-.86-.55-.587c-.303-.322-.485-.65-.406-.73.24-.24-.405-1.41-.972-1.763l-.53-.331-1.436.32-1.435.322v.311c0 .171.595.875 1.323 1.563.727.69 1.323 1.347 1.323 1.46 0 .115.29.523.646.906l.646.697.61-.224.611-.224zm-13.04-.575c.653-.602 1.163-1.227 1.133-1.389s.034-.558.144-.88l.199-.586-.61-.828-.61-.828-.956.127c-.526.07-1.27.333-1.654.585l-.698.457v1.262h.365c.2 0 .511-.177.69-.394l.328-.394.241.15.242.149-.669.794c-.735.874-.793 1.184-.41 2.192l.258.678h.41c.225 0 .943-.493 1.597-1.095m6.398.398 1.133-.433v-.658l-.761-.315-.762-.316-1.08.29c-.593.16-1.146.4-1.228.533l-.15.242.586.545c.705.657.82.662 2.262.112m-13.034-1.272 1.07-.318-.073-.637c-.04-.35-.167-.73-.281-.843l-.207-.207-1.543.53c-1.822.627-2.261.947-2.261 1.648v.52l1.112-.188c.611-.103 1.594-.33 2.183-.505m11.89-2.211c.421-.248.898-.66 1.059-.915l.292-.466-.408-.725-.409-.725-.517-.038c-.285-.021-.628-.051-.762-.066-.135-.016.039-.33.385-.7l.63-.67-.493-.917-.493-.916h-.496c-.273 0-.91.172-1.414.383l-.917.383.006.61c.004.334.122 1.11.264 1.725.142.614.284 1.727.316 2.472l.06 1.355 1.064-.17c.585-.094 1.41-.373 1.832-.62zm-14.053-.662c.84-.393 1.764-.714 2.05-.714.637 0 .657-.206.084-.84l-.438-.483h-1.791l-1.015.518c-.558.285-1.089.71-1.18.945l-.163.427.281.527c.155.289.363.483.462.43s.869-.417 1.71-.81m-10.128.27c0-.185-.162-.572-.36-.859s-.504-.968-.681-1.514-.381-.992-.452-.992c-.439 0-1.215.657-1.424 1.206l-.245.646.275.722c.352.927.678 1.12 1.895 1.126l.992.004zm3.704-1.447.926-.463.006-2.249c.003-1.237.062-2.426.132-2.641l.127-.393-1.588.079c-.873.043-1.777.132-2.01.198-.605.173-1.032 1.27-1.032 2.648v1.188l.534 1.048.535 1.048h.722c.397 0 1.139-.21 1.648-.463m24.128-.468.303-.667-.316-1.715c-.173-.943-.425-2.002-.559-2.355l-.243-.64-.535.14c-.295.077-.67.302-.835.501l-.3.362.555 1.77c.306.975.556 2.03.556 2.345 0 .66.204.925.712.925h.358zm-17.938-1.217c.597-.161 1.235-.336 1.417-.387.561-.16.373-.597-.728-1.698l-1.058-1.059h.405c.223 0 .474-.18.558-.399l.154-.399-.433-.659-.432-.66-.853.002h-.854l-.865.528-.866.528-.291.64-.292.639.275 1.544c.152.849.4 1.87.554 2.268l.279.725.972-.66c.534-.362 1.46-.791 2.058-.953m7.246.915 1.662-.471-.075-.377c-.04-.207-.263-.495-.494-.64l-.42-.265-.942.177c-.518.097-1.252.42-1.63.718l-.689.542v1.082l.463-.148c.255-.08 1.211-.359 2.125-.618m-.319-3.265c.304 0 .635-.081.734-.181l.181-.181-.85-.877-.85-.878h-.862c-.474 0-1.175.143-1.558.318l-.696.317.135.675c.075.371.262 1.006.416 1.41l.28.736 1.259-.67c.692-.368 1.507-.669 1.811-.669m13.342-.622v-1.68l-.296-.847-.295-.847-.432.087-.433.086.034.787c.019.433.188 1.531.377 2.44l.344 1.654h.7zm-31.09.192c.284-.527.786-1.135 1.116-1.351l.6-.394-.145-.235c-.08-.13-.54-.236-1.02-.236h-.876l-.697.549-.697.548v.722c0 .741.417 1.356.919 1.356.156 0 .516-.431.8-.959m23.086-1.416.595-.006v-.31c0-.17-.197-.528-.438-.794l-.438-.484h-.633c-.826 0-2.087.66-2.294 1.2l-.164.426.266.496.265.497 1.123-.51c.617-.28 1.39-.512 1.718-.515zm3.356-1.058.679-.258v-.449c0-.246-.19-.658-.422-.914l-.422-.466-.438.154c-.55.194-1.364.884-1.364 1.155 0 .277.776 1.036 1.06 1.036.126 0 .534-.116.907-.258m-20.577-.42.16-.415-.882-.909c-.484-.5-.996-.908-1.138-.908-.443 0-1.226.853-1.226 1.335v.46l.992.412c.546.226 1.205.417 1.464.425l.471.014zm9.87-.32.578-.468-.686-.74-.686-.741-.459.087-.458.087-.086.747c-.047.411-.021.916.058 1.122l.144.375h.508c.28 0 .768-.21 1.087-.469m3.91-.168.502-.637.642-.09.643-.091.085-.885.085-.885-.457-.504-.456-.504h-1.427l-.891.6-.89.6-.243.847-.243.846.439.67.439.67h1.272zm-20.177-.68c.088-.142.01-.98-.172-1.864l-.332-1.606-.672.078-.672.079.019 1.295.019 1.296.605.49c.682.552.973.608 1.205.233m10.268-.337.712-.33.002-.411c.002-.385-1.491-2.632-1.75-2.632-.064 0-.532.173-1.039.385l-.921.385-.227.607-.227.607.248.656c.136.361.388.746.561.856.484.308 1.85.245 2.64-.123m-6.758-1.902c.994-.493.985-.462.456-1.484l-.404-.78h-.463c-.255 0-.72.178-1.031.396l-.567.398-.174.793-.175.793.182.829.182.828.567-.673c.312-.37.954-.866 1.427-1.1m26.658 1.169c.214-.673-.064-1.988-.495-2.346l-.328-.272-.582.152-.581.152v.377c0 .207.24.848.534 1.424l.535 1.048h.747zm-16.645-.656.974-.661h1.266l.162-.421.161-.421-.43-.902-.43-.902h-1.392l.427-.652c.544-.83.541-1.43-.01-2.04l-.439-.483h-.58c-.653 0-2.187.96-2.602 1.627l-.271.436.804 2.078c.443 1.142.877 2.285.966 2.54.207.592.234.589 1.394-.199m11.29-.01c1.125-.764 1.149-.829.55-1.49-.57-.63-1.177-.613-1.894.055l-.579.54v.606c0 1.165.52 1.243 1.923.29m-18.391-1.95.77-.77 1.102-.33 1.103-.331v-.355c0-.485-.965-1.414-1.469-1.414-.225 0-.76.181-1.186.402l-.776.401-.401.776c-.418.808-.53 1.91-.225 2.214.248.248.23.258 1.082-.594m11.644-.025.33-.529h1.071l.153-.399.153-.399-.442-.674-.442-.675-.844.081-.843.082-.08 1.521-.08 1.522h.347c.19 0 .496-.238.677-.53zm-18.46-1.16c0-.056-.177-.443-.394-.86s-.396-1.03-.397-1.361l-.002-.604-.4-.153-.4-.154-.407.338-.407.337.08.943.079.943.661.332c.627.316 1.588.46 1.588.24m3.609-1.278.337-.34-.232-1.022c-.127-.563-.197-1.217-.155-1.455s.154-.866.25-1.395l.173-.961-.438-.168c-.242-.093-.842-.093-1.334 0l-.895.167-.55.697-.551.698.106 1.489.107 1.489.474.724.475.724.948-.154c.521-.084 1.1-.306 1.285-.493m3.71-1.855.881-.52-.162-.702c-.09-.386-.33-.97-.534-1.298l-.372-.595h-1.21l-.58.54-.579.54v1.29c0 .71.074 1.484.165 1.719l.164.428.673-.44c.37-.243 1.07-.676 1.554-.962m14.506.066c.177-.285-.198-1.907-.842-3.644l-.416-1.124h-.44c-.243 0-.571.13-.73.289l-.29.29.964 2.219.964 2.219.315.005a.6.6 0 0 0 .475-.254m2.963-1.335c-.082-.691-.329-1.687-.548-2.213l-.4-.956h-.542c-.299 0-.543.098-.543.217 0 .432.86 3.109 1.23 3.827l.38.736.286-.177.286-.176zm-13.675.403.622-.661h1.495v-.248c0-.135-.313-.969-.696-1.852l-.696-1.604h-1.712l-.697.548-.697.549.006.84c.003.463.235 1.347.516 1.966l.51 1.124h.364c.2 0 .644-.298.985-.661zm5.102-1.546c.468-.196 1.005-.54 1.191-.766l.34-.41-.447-.447a3.6 3.6 0 0 0-1.067-.683l-.62-.236-.638.242-.637.243.205.91c.21.933.475 1.502.697 1.502.068 0 .508-.16.976-.355m-13.2-2.452c1.292-.048 2.399-.136 2.457-.194.1-.1-.299-3.085-.577-4.314l-.128-.569-.835-.29c-1.133-.396-1.96-.366-2.864.1l-.758.393-.275.864c-.233.735-.4 2.882-.321 4.134l.022.36.463-.198c.255-.109 1.522-.237 2.815-.286zm7.139-2.24 1.48-.641.004-.298c.003-.164-.416-1.221-.931-2.35l-.936-2.054-1.354.16-1.354.161-.62.583-.621.583v.956c0 1.058.634 3.716 1.09 4.568l.292.545.735-.786.735-.786zm8.544 1.191.16-.416-1.15-1.171-1.148-1.171h-.965l-.152.395-.151.395.755.9c1.166 1.387 2.346 1.863 2.651 1.068m-5.203-2.58c0-.544 1.166-1.51 2.29-1.895l1.017-.349.085-.418.084-.418-1.166-1.234-1.166-1.235-.684.172c-.376.094-1.063.49-1.525.88l-.842.707.14.865c.298 1.833 1.767 4.266 1.767 2.925m-8.289-3.7c.412-.335 1.2-.87 1.754-1.19l1.007-.579.764.396.765.395 1.194-.727c.657-.4 1.261-.89 1.343-1.091l.149-.365-.675-1.151c-.736-1.257-1.334-1.69-2.328-1.69h-.647l-.292.351-.292.352-1.27-.26-1.27-.26-.985.185-.986.185-.44.672-.44.671-.118 2.033-.118 2.032.758.298c1.114.439 1.305.416 2.127-.256z" style="fill:#000" transform="translate(-79.062 -88.914)"/></svg>