<?xml version="1.0" encoding="UTF-8"?>
<svg xmlns="http://www.w3.org/2000/svg" viewBox="0 0 80.64 119.02">
  <g>
    <path d="m30.39.25c1.21.76,1.49,1.81,1.07,3.15-.32,1.05-.52,2.13-.79,3.2-.22.88-.75,1.51-1.67,1.53-1.16.02-2.42.1-3.27-.95-.66-.81-.54-1.69.02-2.49,1.03-1.5,2.11-2.96,3.16-4.44.49,0,.98,0,1.47,0Z"/>
    <path d="m46.57.25c1.15,1.66,2.37,3.28,3.41,5,.56.93.03,2.21-.98,2.53-2.29.71-4.05.77-4.43-2.13-.1-.76-.3-1.52-.54-2.25-.44-1.34-.13-2.39,1.07-3.15.49,0,.98,0,1.47,0Z"/>
    <path d="m34.02,119.02c0-2.95.01-5.48,0-8-.06-8.22.22-16.42,2.04-24.49,1.57-6.97,4.26-13.36,9.52-18.43,4.28-4.13,9.46-6.61,15.04-8.37,6.4-2.02,13-3.01,19.73-3.75-.09.14-.13.26-.21.31-7.09,3.93-11.02,10.23-13.21,17.79-1.32,4.54-1.71,9.22-1.73,13.93-.03,5.49-.91,10.82-3.39,15.78-4.01,8.01-10.78,12.37-19.31,14.17-2.65.56-5.39.69-8.48,1.07Z"/>
    <path d="m27.97,116.83c-7.67-2.66-12.69-7.71-15.43-15.08-1.4-3.78-2.13-7.73-2.19-11.74-.12-8.26-.29-16.51-1.27-24.72-1.14-9.51-2.9-18.86-6.86-27.67-.43-.96-.93-1.88-1.57-3.16,1.61,1.18,2.94,2.14,4.25,3.12,6.26,4.65,12.59,9.22,18.17,14.72,5.56,5.48,10.01,11.72,13.09,18.91.26.6.34,1.06-.09,1.67-3.63,5.1-5.41,10.92-6.43,17.01-1.38,8.25-1.51,16.59-1.67,24.92-.01.61,0,1.22,0,2.01Z"/>
    <path d="m37.76,40.07c1.71,0,3.43.02,5.14,0,1.72-.03,2.53.64,2.6,2.35.07,1.8.08,3.59.07,5.39,0,1.22-.61,2.05-1.79,2.08-4.04.08-8.07.07-12.11,0-1.11-.02-1.75-.83-1.75-1.98,0-1.84,0-3.68.08-5.51.07-1.7.89-2.35,2.63-2.32,1.71.03,3.42,0,5.14,0Z"/>
    <path d="m37.71,36.24c-1.63,0-3.26.05-4.89-.01-1.82-.07-2.53-.98-2.35-2.79.16-1.54.3-3.08.43-4.62.16-1.85.93-2.48,2.77-2.45,2.73.05,5.46.04,8.18,0,1.76-.03,2.55.62,2.71,2.39.15,1.62.3,3.24.45,4.87.15,1.59-.57,2.52-2.18,2.6-1.71.08-3.42.02-5.13.02,0,0,0,0,0,0Z"/>
    <path d="m30.41,54.2c.65-.13,1.29-.37,1.93-.38,3.59-.04,7.18,0,10.77-.02,1.74,0,2.46.64,2.52,2.38.06,1.92.15,3.84.14,5.76,0,.45-.35.91-.6,1.34-.12.2-.42.28-.56.47-1.55,2.08-3.75,2.2-6.04,1.98-.34-.03-.78-.23-.96-.49-2.39-3.5-4.73-7.03-7.09-10.56-.04-.06-.04-.15-.12-.47Z"/>
    <path d="m37.68,22.54c-1.14,0-2.28.03-3.42,0-1.57-.06-2.36-.89-2.16-2.43.25-1.93.62-3.85.97-5.77.2-1.06.9-1.61,1.98-1.61,1.79-.01,3.58-.01,5.37,0,1.08,0,1.78.55,1.98,1.61.36,1.92.72,3.84.97,5.77.2,1.54-.59,2.35-2.16,2.44-.08,0-.16,0-.24,0-1.1,0-2.2,0-3.3,0,0,0,0,0,0,0Z"/>
    <path d="m59.09,44.04c0,.08,0,.16.01.24.21,3.78.08,3.94-3.64,4.5-1.09.16-2.17.31-3.26.46-1.75.24-2.65-.49-2.71-2.24-.06-1.67-.13-3.34-.17-5.01-.04-1.68.54-2.38,2.19-2.66,1.64-.27,3.29-.53,4.94-.77,1.32-.19,2.23.48,2.39,1.81.14,1.21.2,2.44.3,3.65-.02,0-.03,0-.05,0Z"/>
    <path d="m20.72,24.95c1.49.24,3.1.47,4.7.78,1.23.24,1.81,1.08,1.71,2.29-.14,1.75-.29,3.5-.47,5.24-.18,1.73-1.11,2.42-2.83,2.14-1.41-.23-2.82-.4-4.22-.66-1.77-.32-2.33-1.17-2.03-2.93.28-1.69.53-3.38.83-5.07.23-1.27.99-1.87,2.32-1.8Z"/>
    <path d="m48.36,27.48c.06-.67.45-1.5,1.54-1.71,1.68-.32,3.37-.62,5.06-.81,1.14-.13,1.89.52,2.1,1.62.37,1.92.7,3.85.95,5.79.14,1.1-.36,1.97-1.49,2.21-1.83.38-3.68.7-5.54.92-1.11.13-1.96-.68-2.11-1.94-.22-1.9-.33-3.82-.52-6.08Z"/>
    <path d="m25.57,21.81c-1.08-.19-2.45-.37-3.79-.68-1.31-.31-1.85-1.28-1.47-2.58.56-1.91,1.16-3.81,1.79-5.69.37-1.12,1.2-1.59,2.38-1.39,1,.17,2.01.32,2.99.55,1.26.29,1.84,1.17,1.64,2.43-.3,1.85-.62,3.69-.94,5.53-.22,1.27-1.03,1.91-2.59,1.84Z"/>
    <path d="m49.81,21.83c-1.52-.02-2.26-.65-2.47-1.83-.33-1.84-.64-3.68-.94-5.53-.21-1.27.36-2.17,1.6-2.45,1.07-.25,2.15-.45,3.23-.6,1.01-.13,1.79.35,2.11,1.29.69,2,1.32,4.01,1.9,6.04.3,1.02-.24,2.06-1.27,2.31-1.49.37-3.03.57-4.17.77Z"/>
    <path d="m25.4,48.94c-2.97-2.5-5.74-4.76-8.4-7.16-.38-.34-.45-1.44-.19-1.95.3-.58,1.15-1.27,1.72-1.23,2.1.15,4.19.52,6.26.94.99.2,1.41,1.07,1.39,2.06-.04,1.96-.09,3.91-.21,5.86-.03.47-.34.93-.56,1.47Z"/>
    <path d="m49.55,60.23c0-1.92-.14-3.64.07-5.31.08-.6.92-1.44,1.55-1.58,1.89-.43,3.85-.64,5.79-.82,1.82-.17,3.11,1.82,2.28,3.43-.08.15-.29.27-.46.34-1.52.58-3.06,1.1-4.55,1.73-1.49.63-2.93,1.38-4.68,2.21Z"/>
    <path d="m37.73,8.88c-.6-.07-1.24-.02-1.79-.23-.94-.35-1.4-1.13-1.19-2.14.32-1.55.69-3.09,1.11-4.62.25-.91.91-1.41,1.9-1.41.99,0,1.63.52,1.89,1.43.38,1.33.7,2.67,1.01,4.01.43,1.91-.35,2.87-2.31,2.89-.2,0-.41,0-.61,0,0,.02,0,.04,0,.06Z"/>
  </g>
</svg>