<?xml version="1.0" encoding="UTF-8" standalone="no"?>
<!-- Created with Inkscape (http://www.inkscape.org/) -->

<svg
   width="54.004681mm"
   height="112.69064mm"
   viewBox="0 0 54.004681 112.69064"
   version="1.1"
   id="svg1"
   xml:space="preserve"
   xmlns="http://www.w3.org/2000/svg"
   xmlns:svg="http://www.w3.org/2000/svg"><defs
     id="defs1" /><g
     id="layer1"
     transform="translate(-79.062197,-88.913549)"><path
       style="fill:#000000"
       d="m 117.78743,201.27614 c -1.03856,-0.18046 -2.80414,-0.59998 -3.92351,-0.93229 l -2.03521,-0.60418 -1.32395,0.47608 -1.32396,0.47609 -1.68085,-0.13492 -1.68084,-0.13493 -1.24703,-0.60367 c -0.68586,-0.33202 -1.64435,-0.95253 -2.12997,-1.37892 l -0.88296,-0.77524 -0.26402,-0.96802 -0.26403,-0.96802 -0.7753,-0.43769 c -1.087603,-0.61399 -1.583425,-1.48505 -1.914192,-3.36285 l -0.28596,-1.62342 h -0.388957 c -0.213926,0 -0.747807,-0.35885 -1.186403,-0.79744 l -0.797446,-0.79745 0.0902,-1.27451 0.09019,-1.27452 -0.773979,-0.66625 -0.77398,-0.66625 -0.111753,-1.69356 -0.111752,-1.69356 -0.327821,-0.26458 c -0.588359,-0.47486 -0.943423,-1.40041 -0.943423,-2.45923 v -1.0388 l 0.658308,-0.97007 0.658308,-0.97007 -0.648732,-0.29559 c -0.356803,-0.16257 -0.973297,-0.76392 -1.369987,-1.33635 l -0.721254,-1.04077 0.01986,-1.31617 0.01986,-1.31617 -0.644617,-0.42237 c -0.354539,-0.2323 -0.82947,-0.77983 -1.055402,-1.21674 l -0.410785,-0.79437 0.17047,-1.06606 0.17047,-1.06606 -0.700868,-0.55885 -0.700867,-0.55885 -0.04623,-1.53368 -0.04623,-1.53368 -0.434429,-0.24312 c -0.238936,-0.13372 -0.569676,-0.65292 -0.734977,-1.15379 l -0.300547,-0.91067 0.268015,-0.97066 c 0.147408,-0.53387 0.468545,-1.19226 0.713638,-1.46308 l 0.445623,-0.49241 -0.631374,-0.51149 -0.631373,-0.51149 v -1.60536 -1.60536 l -0.596824,-0.41822 c -1.235113,-0.86549 -1.731957,-2.78031 -1.08809,-4.19344 l 0.299462,-0.65725 -0.929635,-1.08607 -0.929636,-1.08607 -0.333874,-1.19248 -0.333874,-1.19248 0.300305,-1.00233 c 0.165167,-0.55128 0.537908,-1.21735 0.828312,-1.48016 l 0.528007,-0.47784 -0.922597,-1.02121 -0.922598,-1.0212 v -0.81831 -0.81831 l 0.428271,-0.72501 0.428271,-0.725 -0.661661,-0.66167 -0.661661,-0.66166 -0.283081,-1.31996 -0.283081,-1.31996 0.154791,-0.59193 0.154792,-0.59192 -0.568205,-0.39798 c -0.672348,-0.47094 -1.354269,-1.98409 -1.354269,-3.00507 v -0.72575 l 0.529167,-0.67273 c 0.633288,-0.80509 0.657255,-1.07962 0.132291,-1.5153 l -0.396875,-0.32938 v -1.10766 -1.10766 l 0.388461,-0.51359 c 0.529265,-0.69975 0.500454,-1.06775 -0.152762,-1.95128 l -0.558052,-0.7548 -0.230063,-1.23147 -0.230064,-1.23147 0.301451,-0.4827 0.301451,-0.4827 -0.571669,-0.92498 -0.571669,-0.92498 v -1.14925 -1.14926 l 1.455208,-1.3543 c 1.517549,-1.41232 1.722972,-1.81391 1.058333,-2.06895 l -0.396875,-0.1523 v -2.79956 -2.79957 l 0.42544,-0.846759 c 0.501143,-0.99743 1.372251,-1.75866 2.021956,-1.766915 0.466709,-0.0059 0.607437,-0.302439 0.292852,-0.617025 -0.09359,-0.09359 -0.145215,-1.207753 -0.114716,-2.475911 l 0.05545,-2.305742 0.358455,-0.857904 0.358456,-0.857905 0.811558,-0.419673 c 0.446357,-0.23082 1.723841,-0.608337 2.838854,-0.838927 l 2.027295,-0.419253 1.797283,0.101556 1.797284,0.101555 1.007102,0.804055 1.007101,0.804056 0.661459,1.249527 0.661458,1.249528 1.338696,0.615083 1.338696,0.615082 0.868499,1.353442 0.8685,1.353442 0.58555,-0.04846 c 0.32205,-0.02665 0.95164,0.10318 1.39909,0.28852 l 0.81354,0.336982 0.70971,1.303961 0.7097,1.303965 h 0.33936 c 0.18664,0 0.5364,0.21773 0.77723,0.48385 l 0.43789,0.48385 v 1.07322 1.07322 l 0.65051,0.42623 0.65052,0.42624 0.26,0.99325 c 0.143,0.54629 0.35629,1.5159 0.47396,2.15468 l 0.21396,1.16143 0.87653,0.0949 c 0.4821,0.0522 1.11725,0.22377 1.41147,0.38123 l 0.53493,0.28628 0.37447,0.89625 c 0.20596,0.49293 0.37448,1.18482 0.37448,1.53752 v 0.64127 l 0.65811,0.16518 0.65811,0.16517 0.43953,0.67081 0.43952,0.6708 0.0268,1.26241 0.0268,1.2624 0.45262,0.45235 0.45263,0.45234 0.18794,0.98368 c 0.10337,0.54103 0.19735,1.75759 0.20884,2.70348 l 0.0209,1.71979 0.79375,0.39687 0.79375,0.39688 0.47739,0.92604 0.47738,0.92604 -0.14159,1.12448 -0.1416,1.12448 h 0.47799 0.47798 l 0.60036,0.63905 0.60036,0.63905 0.0292,1.0146 c 0.0161,0.55802 -0.0589,1.2006 -0.16661,1.42795 l -0.19585,0.41336 0.65805,0.35218 0.65805,0.35218 0.27725,0.7953 0.27724,0.79529 v 2.19633 2.19633 l 0.46302,0.25868 0.46302,0.25868 0.0901,3.11028 0.0901,3.11028 0.80586,0.75278 0.80585,0.75278 -0.14112,1.55621 -0.14111,1.55622 0.50546,0.13218 0.50547,0.13218 0.43965,1.01604 0.43965,1.01603 0.062,2.33864 0.062,2.33863 0.55318,0.58883 0.55318,0.58884 v 1.07174 1.07175 l -0.52917,0.67272 c -0.65784,0.83631 -0.65793,1.02674 -9.9e-4,2.10422 l 0.52818,0.86629 9.9e-4,1.33931 9.9e-4,1.3393 0.81658,0.60373 0.81659,0.60373 -0.089,1.38305 -0.089,1.38304 0.43724,0.43736 0.43725,0.43736 0.18143,1.31914 0.18143,1.31913 -0.17793,0.81011 -0.17793,0.8101 0.5575,0.45732 0.5575,0.45732 0.25699,1.5875 c 0.14135,0.87313 0.25768,2.66608 0.25853,3.98433 l 0.002,2.39683 -0.35919,0.49122 -0.3592,0.49122 0.59266,0.87333 c 0.32596,0.48032 0.67278,1.30044 0.77071,1.82249 l 0.17807,0.94916 -0.41339,1.422 -0.41338,1.42199 -1.25037,1.25037 -1.25036,1.25036 -1.32565,0.61418 c -0.72911,0.3378 -1.8423,0.69166 -2.47377,0.78636 l -1.14812,0.17217 -2.00054,2.41408 c -1.10029,1.32774 -2.25133,2.54558 -2.55786,2.7063 l -0.55732,0.29222 z m 2.35132,-2.67254 c 0.5457,-0.65551 0.99219,-1.3162 0.99219,-1.4682 v -0.27637 l -1.78594,0.10616 -1.78594,0.10615 -1.58192,0.73055 -1.58193,0.73055 0.3913,0.24743 c 0.21522,0.13609 0.68896,0.25598 1.05276,0.26643 0.3638,0.0104 1.07818,0.17665 1.5875,0.36936 0.50932,0.1927 1.10464,0.35698 1.32292,0.36507 l 0.39687,0.0147 z m -11.45289,0.10108 c -0.0118,-0.40303 -2.13726,-1.78593 -2.74495,-1.78593 h -0.437 l -0.16528,0.43073 -0.16529,0.43073 0.63661,0.48346 c 0.64401,0.48907 1.20784,0.6702 2.29026,0.73571 l 0.59531,0.036 z m 2.40831,-1.00149 c 0.28147,-0.15064 0.51177,-0.44258 0.51177,-0.64875 v -0.37485 l -1.21665,-0.83708 -1.21664,-0.83707 -0.63544,0.28952 -0.63544,0.28953 v 0.51132 0.51131 l 0.81405,0.68498 0.81405,0.68498 h 0.52626 c 0.28945,0 0.75656,-0.12325 1.03804,-0.27389 z m -5.65362,-1.72043 c 0.85878,-0.5627 0.76066,-0.8549 -0.39122,-1.16507 -0.5502,-0.14815 -1.23481,-0.44661 -1.52136,-0.66324 -0.28654,-0.21663 -0.61029,-0.39766 -0.71943,-0.40229 -0.30394,-0.0129 -0.23573,1.80876 0.0906,2.41842 l 0.28898,0.53997 0.82167,-0.16433 c 0.45191,-0.0904 1.09578,-0.34394 1.43081,-0.56346 z m 8.49372,0.3539 c 0.50031,-0.50031 0.40833,-0.68489 -1.16139,-2.33058 l -1.47889,-1.55046 -0.34897,0.13391 c -0.19193,0.0737 -0.50006,0.49868 -0.68473,0.94452 l -0.33577,0.81061 1.22219,1.15475 1.22218,1.15475 h 0.62394 c 0.34317,0 0.76682,-0.14287 0.94144,-0.3175 z m 2.54924,-0.99886 0.67868,-0.25804 v -0.49602 c 0,-0.27281 -0.35794,-0.99013 -0.79541,-1.59404 l -0.79541,-1.09804 h -0.77045 c -1.01358,0 -1.60748,0.24248 -1.60748,0.65629 0,0.4859 1.92748,3.03911 2.29788,3.04386 0.17243,0.002 0.61891,-0.11209 0.99219,-0.25401 z m 3.78856,-0.6822 0.33175,-0.10228 -0.42876,-1.13239 -0.42875,-1.13239 -0.76707,-0.7276 -0.76707,-0.72761 -0.59113,0.004 c -0.32513,0.002 -0.73468,0.0953 -0.91011,0.20678 l -0.31896,0.20273 0.78423,1.55476 c 0.43133,0.85512 0.91591,1.71342 1.07685,1.90733 l 0.2926,0.35257 0.69733,-0.15183 c 0.38354,-0.0835 0.84662,-0.19786 1.02909,-0.25412 z m 2.80388,-0.43142 0.27927,-0.4456 -0.4642,-1.47263 -0.46421,-1.47262 -0.58179,0.004 c -0.31998,0.002 -0.74778,0.10916 -0.95065,0.23762 l -0.36885,0.23356 0.18379,1.15145 c 0.10108,0.6333 0.36389,1.42663 0.58401,1.76297 l 0.40023,0.61152 0.55157,-0.0823 c 0.30336,-0.0453 0.67724,-0.28288 0.83083,-0.52797 z m 2.96616,-0.22208 0.71229,-0.27081 -0.1538,-0.9478 c -0.0846,-0.52129 -0.34059,-1.23286 -0.56888,-1.58127 l -0.41506,-0.63347 h -0.53657 -0.53657 l -0.38337,0.91754 c -0.21086,0.50465 -0.38338,1.15274 -0.38338,1.44021 v 0.52266 l 0.58804,0.41188 c 0.6954,0.48707 0.75421,0.49202 1.6773,0.14106 z m -24.25326,-0.62208 0.30187,-0.36374 -0.70906,-2.15216 -0.70906,-2.15216 -0.51509,0.46537 -0.515082,0.46538 0.146772,1.24254 c 0.08072,0.6834 0.33479,1.60614 0.56459,2.05052 l 0.41782,0.80798 h 0.35769 c 0.19672,0 0.49352,-0.16368 0.65955,-0.36373 z m 6.19646,-0.20505 c 0.31786,-0.1673 0.65852,-0.42815 0.75704,-0.57966 l 0.17912,-0.27548 -0.38561,-0.6771 c -0.21208,-0.37241 -0.60223,-1.03429 -0.86701,-1.47086 l -0.48141,-0.79375 -0.88558,0.09 c -1.3481,0.13709 -2.68184,0.65205 -2.99711,1.15719 l -0.28303,0.45349 0.54906,0.73713 0.54907,0.73714 1.16336,0.44863 c 1.39983,0.53983 1.93984,0.57445 2.7021,0.17322 z m 23.09837,-3.33917 0.16989,-0.9056 -0.30003,-1.00142 c -0.16502,-0.55078 -0.46299,-1.13667 -0.66216,-1.30196 l -0.36212,-0.30054 -0.43041,0.16517 c -0.23673,0.0908 -0.43041,0.34124 -0.43041,0.55645 0,0.33526 0.62534,3.08488 0.98126,4.3146 l 0.11486,0.39687 0.37462,-0.50899 c 0.20603,-0.27994 0.45106,-0.9165 0.5445,-1.41458 z m -15.90587,-0.23941 c 0,-0.17099 -0.4692,-0.6293 -1.04266,-1.01847 l -1.04267,-0.70757 -0.34639,0.47373 c -0.37953,0.51903 -0.45339,1.23574 -0.15781,1.53131 0.10372,0.10372 0.7288,0.15333 1.38906,0.11024 l 1.20047,-0.0783 z m -10.31875,-0.92668 c 0.87313,-0.14603 1.86876,-0.31989 2.21252,-0.38636 l 0.62501,-0.12084 -0.46758,-0.51667 -0.46759,-0.51668 -1.34805,0.0203 c -0.74143,0.0112 -1.82336,0.16356 -2.40428,0.33861 l -1.05623,0.31829 -0.0943,0.48957 -0.0943,0.48958 0.35676,0.22736 0.35676,0.22736 0.39688,-0.15252 c 0.21828,-0.0839 1.11125,-0.272 1.98437,-0.41804 z m -5.728019,-0.50809 c 0.942509,-0.32857 0.991229,-0.45785 0.444771,-1.18032 -0.213653,-0.28248 -0.392246,-0.65467 -0.396874,-0.8271 -0.0046,-0.17243 -0.129606,-0.63226 -0.277729,-1.02185 l -0.269314,-0.70835 -0.540403,0.68701 -0.540403,0.68701 -0.149067,0.9186 c -0.272004,1.67616 0.1218,2.00527 1.729019,1.445 z m 18.846749,-0.56976 c 0.37582,-0.32724 0.88462,-0.90577 1.13068,-1.28562 l 0.44738,-0.69063 -0.512,-0.63228 -0.51199,-0.63229 h -1.23433 -1.23434 l -0.92282,1.00698 -0.92283,1.00698 0.10383,0.31594 c 0.12729,0.38731 2.02963,1.49633 2.57624,1.50188 0.21828,0.002 0.70436,-0.26371 1.08018,-0.59096 z m -7.17826,-0.70363 c 0.1488,-0.27804 0.68877,-0.764 1.19994,-1.07991 0.51116,-0.31592 0.92939,-0.72253 0.92939,-0.90357 0,-0.46011 -1.06736,-1.37677 -1.81434,-1.55818 l -0.62371,-0.15147 -0.64319,0.24455 c -0.35376,0.1345 -0.9363,0.5608 -1.29453,0.94733 l -0.65132,0.70279 v 0.62282 0.62282 l 0.52917,0.52917 0.52917,0.52917 h 0.78444 0.78444 z m 14.94653,-0.007 0.4638,-0.51249 -0.2079,-0.3364 c -0.4606,-0.74526 -1.33648,-1.6107 -2.12056,-2.09529 l -0.82855,-0.51207 h -1.09325 -1.09324 v 0.25624 c 0,0.14093 0.63307,0.72391 1.40682,1.29552 0.77376,0.57161 1.60994,1.34927 1.85819,1.72814 0.53783,0.82083 0.98704,0.8699 1.61469,0.17635 z m -21.85242,-1.11729 1.41582,-0.31848 0.14066,-0.36657 0.14067,-0.36656 -0.27489,-0.2749 -0.2749,-0.27489 -1.89559,0.31974 -1.89559,0.31973 -0.14192,0.36982 c -0.0781,0.2034 -0.0682,0.56192 0.0219,0.79671 l 0.16381,0.42689 0.5921,-0.1565 c 0.32565,-0.0861 1.22921,-0.29982 2.00792,-0.47499 z m 24.32708,-1.15519 0.0783,-0.79626 -0.41261,-0.98751 -0.4126,-0.9875 h -0.36402 c -0.2002,0 -0.61569,0.20836 -0.92329,0.46302 l -0.55928,0.46302 0.80936,1.40561 0.80935,1.40561 0.44822,-0.0849 0.44822,-0.0849 z m -29.827465,-0.98533 c -0.129252,-0.32743 -0.423962,-1.03798 -0.65491,-1.57901 l -0.419905,-0.98369 v -1.22389 -1.22389 l -0.500781,-0.13096 -0.500781,-0.13096 -0.154063,-0.77031 -0.154063,-0.77031 H 95.64627 c -0.199366,0 -0.567904,0.22698 -0.818974,0.50441 l -0.456492,0.50442 0.08475,0.88465 0.08476,0.88464 0.847067,0.2738 c 1.17251,0.379 1.233627,0.49226 0.759942,1.40826 -0.432988,0.83731 -0.531465,1.81122 -0.255785,2.52963 l 0.160599,0.41852 h 1.28806 1.288061 z m 2.484555,0.0864 c 0.0831,-0.13439 0.7747,-0.44129 1.53697,-0.68199 0.76227,-0.2407 1.53991,-0.48616 1.72809,-0.54547 l 0.34214,-0.10783 -0.2853,-0.5331 -0.28531,-0.53309 -0.71829,0.001 c -0.39506,8.1e-4 -1.16338,0.12508 -1.70737,0.27616 l -0.98907,0.27468 -0.28236,0.52759 -0.282353,0.52758 0.164783,0.51917 c 0.17536,0.55252 0.5292,0.6775 0.77807,0.27482 z m 29.66355,-0.10326 c 0.0734,-0.19119 0.0168,-1.58688 -0.12573,-3.10154 l -0.25913,-2.75391 -0.44829,-0.3278 -0.44829,-0.3278 -0.50192,0.26862 -0.50193,0.26863 0.16877,0.97789 c 0.0928,0.53785 0.46141,1.96017 0.81907,3.16071 l 0.6503,2.18281 h 0.25688 c 0.14128,0 0.3169,-0.15642 0.39027,-0.34761 z m -21.76976,-1.21632 1.12259,-1.03476 0.78746,-0.0897 0.78747,-0.0897 0.0889,-0.46894 0.0889,-0.46894 -0.94836,-0.94836 -0.94836,-0.94836 -0.64347,0.1615 -0.64346,0.1615 -0.14619,-0.23654 -0.14619,-0.23655 0.92372,-0.17329 0.92373,-0.17329 v -0.73187 -0.73187 l -0.53947,-0.57906 -0.53948,-0.57905 h -0.56176 c -0.30897,0 -1.0619,0.2931 -1.67319,0.65134 l -1.11144,0.65135 -0.31955,0.77145 -0.31955,0.77146 0.71825,2.08293 c 0.75169,2.17991 1.33189,3.27355 1.7367,3.27355 0.13203,0 0.74523,-0.46565 1.36265,-1.03477 z m 6.10331,0.64235 0.15058,-0.39241 0.34075,0.10577 c 0.18741,0.0582 0.84676,0.17664 1.46522,0.26325 l 1.12448,0.15748 v -0.73801 -0.738 l -0.41188,-0.58804 -0.41188,-0.58804 h -0.87155 c -0.47936,0 -1.24165,0.12902 -1.69398,0.2867 l -0.82242,0.2867 -0.15379,0.48455 c -0.0846,0.2665 -0.0765,0.79233 0.0179,1.16851 l 0.17166,0.68396 h 0.47218 0.47217 z m 9.15693,-1.79039 -0.01,-0.59532 -0.58579,-0.70228 -0.5858,-0.70228 -0.93185,-0.25192 -0.93186,-0.25192 -0.5895,0.21807 -0.5895,0.21807 v 0.39805 0.39805 l 1.31459,0.56551 c 0.72302,0.31104 1.45197,0.73107 1.61989,0.9334 0.16793,0.20233 0.52886,0.36788 0.80209,0.36788 h 0.49676 z m -23.74323,-0.46183 0.86629,-0.52798 1.25677,-0.16757 1.25677,-0.16757 v -0.43621 c 0,-1.12311 -1.67794,-2.40603 -3.14686,-2.40603 h -0.791885 l -0.411878,0.58804 -0.411877,0.58803 v 1.11012 c 0,1.03821 0.195491,1.94714 0.418787,1.94714 0.05367,0 0.48742,-0.23759 0.963883,-0.52797 z m 26.03407,-0.91618 c 0.0814,-0.2122 0.0479,-1.55165 -0.0744,-2.97656 l -0.2225,-2.59075 -0.88883,0.0422 c -0.48885,0.0232 -1.0039,0.15724 -1.14456,0.2979 l -0.25574,0.25574 0.82131,2.45143 c 0.45172,1.34829 0.8845,2.55369 0.96174,2.67867 0.2175,0.35192 0.63908,0.26866 0.80303,-0.15859 z m -11.28207,-0.99095 1.857,-0.31844 v -0.466 -0.46601 l -0.56791,-0.30393 -0.56791,-0.30394 -1.15174,0.12982 c -0.63346,0.0714 -1.3304,0.27809 -1.54876,0.45931 l -0.39702,0.3295 v 0.62906 0.62907 h 0.25967 c 0.14283,0 1.09533,-0.1433 2.11667,-0.31844 z m 7.58047,-1.02828 c -0.0899,-0.44964 -0.3964,-1.34402 -0.68104,-1.9875 l -0.51753,-1.16995 -0.42031,-0.16129 -0.4203,-0.16129 -0.98225,0.37385 -0.98225,0.37385 v 0.4995 0.49951 l 1.38099,0.81241 c 0.75955,0.44683 1.58873,1.02078 1.84263,1.27544 0.25391,0.25466 0.57008,0.46302 0.7026,0.46302 h 0.24096 z m -22.785652,-1.4499 0.994112,-0.41537 -0.16469,-1.57564 -0.16468,-1.57565 -0.41537,-0.80322 -0.415366,-0.80323 -0.70393,0.0823 -0.70393,0.0823 -0.629135,0.92604 -0.629135,0.92604 0.140337,1.40734 0.140337,1.40733 0.314211,0.3786 c 0.405269,0.48832 1.004086,0.47848 2.237239,-0.0368 z m 5.201902,-0.90755 0.90047,-1.19063 0.98919,-0.52916 0.9892,-0.52917 -0.0734,-0.52917 -0.0734,-0.52916 -0.79375,-0.39702 -0.79375,-0.39702 v -0.78307 -0.78306 l -0.89902,-0.60586 c -0.49447,-0.33321 -1.13145,-0.60585 -1.41552,-0.60585 h -0.5165 l -0.89958,0.89959 -0.89959,0.89958 0.009,1.28323 0.009,1.28323 0.51121,1.05833 c 0.28117,0.58208 0.51525,1.15182 0.52019,1.26608 0.005,0.11426 0.20481,0.50662 0.44416,0.87192 l 0.43518,0.66417 0.3282,-0.0782 c 0.18051,-0.043 0.73341,-0.61395 1.22866,-1.26879 z m 9.34552,0.13695 1.58629,-0.29572 -0.71436,-0.71436 -0.71437,-0.71437 h -0.68663 c -0.37764,0 -1.03789,0.18165 -1.46723,0.40367 l -0.78061,0.40367 v 0.80478 0.80479 l 0.59531,-0.19837 c 0.32742,-0.1091 1.30914,-0.33144 2.1816,-0.49409 z m 14.5533,-1.87879 v -1.83004 h -0.66146 -0.66146 l -0.0854,0.60149 c -0.0469,0.33082 0.11347,1.20009 0.35647,1.9317 l 0.44182,1.33021 0.30499,-0.10166 0.305,-0.10167 z m -33.20521,-0.26695 c 0,-0.23171 -0.234996,-0.72004 -0.522213,-1.08517 l -0.522213,-0.66389 -0.15986,-0.96535 c -0.08792,-0.53094 -0.219525,-1.14394 -0.292449,-1.36222 l -0.132588,-0.39687 -0.497165,0.92604 -0.497165,0.92604 -0.01109,0.90899 -0.01109,0.90899 0.575287,0.61236 0.575287,0.61237 h 0.747629 0.74763 z m 16.99111,-0.50814 c 0.68663,-0.4347 1.25218,-0.85445 1.25678,-0.93277 0.005,-0.0783 -0.53763,-0.5988 -1.20495,-1.15661 l -1.21332,-1.01421 -0.63877,0.29105 -0.63877,0.29104 v 0.35453 c 0,0.64956 0.82154,3.13162 1.00747,3.04382 0.10074,-0.0476 0.74494,-0.44214 1.43156,-0.87685 z m 7.28441,-0.0429 c 0.61846,-0.0851 1.12448,-0.22094 1.12448,-0.30178 0,-0.0808 -0.25888,-0.42254 -0.57529,-0.75934 l -0.57529,-0.61236 -0.81377,9.8e-4 -0.81378,9.9e-4 -0.85989,0.52429 -0.8599,0.52429 v 0.56789 0.5679 l 1.12448,-0.17903 c 0.61846,-0.0985 1.6305,-0.24869 2.24896,-0.33383 z m 5.27223,-0.40234 0.3113,-0.24535 -0.27815,-0.79788 -0.27814,-0.79788 -0.69313,0.17396 c -1.2593,0.31606 -1.76626,1.20438 -1.07934,1.89129 l 0.2782,0.27821 0.71398,-0.1285 c 0.39269,-0.0707 0.85407,-0.23891 1.02528,-0.37385 z m -28.117516,-2.15052 c 0.450298,-0.33813 1.027083,-0.69158 1.281745,-0.78544 0.636153,-0.23447 0.585421,-0.45094 -0.336112,-1.43414 l -0.796684,-0.84999 -0.403987,0.15502 c -0.222193,0.0853 -0.648277,0.63387 -0.946854,1.21913 l -0.542867,1.06411 0.283882,0.62305 c 0.351304,0.77103 0.44439,0.77155 1.460877,0.008 z m 21.160946,-0.75584 c 0.59896,-0.17176 1.13576,-0.34748 1.19288,-0.39048 0.19868,-0.14958 -0.59934,-0.92213 -1.35755,-1.31421 l -0.76308,-0.39461 -0.97599,0.31172 c -0.53679,0.17145 -1.08752,0.41482 -1.22383,0.54084 l -0.24785,0.22911 0.6247,0.66497 0.6247,0.66496 h 0.51849 c 0.28517,0 1.00856,-0.14053 1.60753,-0.3123 z m 4.39632,-0.0846 c 0.18116,-0.21828 0.53017,-0.39687 0.77558,-0.39687 0.24541,0 0.66096,-0.15704 0.92345,-0.34898 l 0.47726,-0.34898 -0.53964,-1.05778 c -0.2968,-0.58178 -0.72539,-1.21194 -0.95242,-1.40036 l -0.41278,-0.34257 -0.65344,0.164 c -0.35939,0.0902 -1.06858,0.40894 -1.57598,0.70831 l -0.92253,0.54431 0.91108,1.19358 c 0.5011,0.65647 0.91109,1.30353 0.91109,1.4379 0,0.38517 0.69523,0.28495 1.05833,-0.15256 z m -12.97273,-0.95275 1.06648,-0.55588 v -0.57588 c 0,-0.31673 -0.18569,-0.84097 -0.41264,-1.16499 l -0.41264,-0.58912 -0.57955,0.12296 c -0.31875,0.0676 -1.26416,0.25515 -2.1009,0.41672 l -1.52135,0.29375 v 0.33753 c 0,0.18564 0.42245,0.77251 0.93877,1.30416 l 0.93878,0.96663 h 0.50828 c 0.27956,0 0.9882,-0.25015 1.57477,-0.55588 z m -16.040822,0.11249 0.178808,-0.17881 -0.498997,-0.5488 c -0.274449,-0.30183 -0.641959,-0.99528 -0.816689,-1.54098 -0.375475,-1.17265 -0.590631,-1.22773 -1.194694,-0.30581 l -0.449732,0.68638 0.17599,0.7012 c 0.0968,0.38567 0.30006,0.8507 0.4517,1.03342 l 0.27571,0.33221 h 0.849547 c 0.467251,0 0.930012,-0.0805 1.028357,-0.17881 z m 9.235952,-0.93709 c 1.10169,-0.86681 1.1815,-1.14191 0.5803,-2.00023 l -0.41187,-0.58804 h -0.49855 c -0.6945,0 -0.84526,-0.36158 -0.39743,-0.95321 0.20899,-0.2761 0.38377,-0.75203 0.3884,-1.05761 l 0.008,-0.55562 -0.8056,-1.1121 -0.80561,-1.1121 -0.58346,0.17321 c -0.3209,0.0953 -0.927116,0.50707 -1.347143,0.91513 l -0.763683,0.74193 v 1.02973 1.02974 l 0.577605,1.31035 c 0.317683,0.72069 0.887531,1.75919 1.266331,2.30778 l 0.68872,0.99744 0.55569,-0.17287 c 0.30563,-0.0951 1.00217,-0.52417 1.54788,-0.95353 z m 11.35049,-0.89165 c 0.77861,-0.52207 1.62401,-1.13583 1.87867,-1.36392 l 0.46302,-0.41472 v -0.56753 c 0,-0.31214 -0.14287,-0.71041 -0.3175,-0.88503 l -0.3175,-0.3175 h -1.02281 c -1.0318,0 -2.02615,0.37373 -2.35963,0.88687 -0.25886,0.39834 -0.003,0.70063 0.59347,0.70063 0.6582,0 0.66703,0.44479 0.013,0.65239 l -0.5006,0.15888 -0.15725,0.58655 c -0.23014,0.85845 -0.19834,1.51259 0.0735,1.51259 0.1309,0 0.87504,-0.42714 1.65365,-0.94921 z m -17.681087,-0.28474 0.747013,-0.16287 -0.175231,-0.69065 c -0.09638,-0.37986 -0.29061,-1.40503 -0.431628,-2.27815 -0.141019,-0.87313 -0.356787,-1.68884 -0.479485,-1.81271 l -0.223088,-0.2252 -0.816676,0.17937 -0.816676,0.17937 -0.532391,0.67683 -0.532391,0.67683 v 0.90775 c 0,0.95215 0.314857,1.74036 1.015782,2.54289 l 0.418618,0.47931 0.539571,-0.15495 c 0.296764,-0.0852 0.875726,-0.22823 1.286582,-0.31782 z m 29.851067,-1.87303 c -0.18415,-0.6885 -0.52992,-1.4674 -0.76838,-1.7309 l -0.43357,-0.47908 -1.05146,0.0788 -1.05146,0.0788 -0.10308,0.3137 -0.10308,0.3137 0.65824,0.34776 c 0.36203,0.19126 1.09718,0.92371 1.63366,1.62766 l 0.97541,1.2799 0.28926,-0.28926 0.28926,-0.28926 z m -6.54637,0.65523 c 0.56813,-0.32502 1.16093,-0.79629 1.31732,-1.04725 l 0.28436,-0.45629 -0.36149,-0.86662 -0.36149,-0.86663 0.0402,-0.95808 0.0402,-0.95808 -0.4669,-0.56892 -0.46691,-0.56893 -1.19062,0.35276 -1.19063,0.35276 0.0837,0.64508 c 0.0461,0.35479 0.0854,1.74641 0.0873,3.09247 l 0.004,2.4474 0.57413,-0.004 c 0.31577,-0.002 1.03896,-0.27029 1.60709,-0.59532 z m -11.73873,-0.72512 c 0.77275,-0.14654 1.46386,-0.32532 1.53582,-0.39727 0.072,-0.072 -0.0349,-0.44041 -0.23737,-0.81879 l -0.36819,-0.68797 -0.93308,0.12553 c -0.51319,0.069 -1.40773,0.34922 -1.98787,0.62263 l -1.05478,0.49711 -0.0891,0.46261 -0.0891,0.46261 h 0.90932 c 0.50014,0 1.54158,-0.11991 2.31433,-0.26646 z m -16.633291,-0.70059 0.483854,-0.43789 v -0.51346 c 0,-0.57545 -0.962033,-2.05035 -1.337382,-2.05035 -0.233237,0 -1.043868,1.66882 -1.043868,2.14897 0,0.27159 0.975852,1.29061 1.235938,1.29061 0.09768,0 0.395338,-0.19705 0.661458,-0.43788 z m 15.863431,-2.72885 0.69521,-0.008 0.32938,-0.39688 0.32938,-0.39687 -0.32938,-0.39688 -0.32938,-0.39687 h -1.05209 -1.0521 l -0.92375,0.43835 -0.92375,0.43835 -0.20945,0.55383 -0.20945,0.55384 0.22486,0.42982 0.22486,0.42982 1.26523,-0.61998 c 0.69587,-0.34099 1.57807,-0.62371 1.96043,-0.62826 z m 7.44073,0.69433 0.99219,0.0383 v -0.41575 c 0,-0.22867 -0.19704,-0.63349 -0.43788,-0.89961 l -0.43788,-0.48385 h -0.63359 c -0.73553,0 -1.95335,0.58087 -2.4353,1.16159 l -0.33424,0.40273 0.1757,0.28429 0.17571,0.28429 0.97155,-0.20512 c 0.53436,-0.11282 1.41804,-0.1879 1.96374,-0.16685 z m -24.629679,-2.69464 c -0.04927,-0.86891 -0.195285,-1.69013 -0.324478,-1.82494 l -0.234896,-0.2451 -0.535419,0.48455 -0.535418,0.48454 v 0.93035 0.93035 l 0.446747,0.49365 0.446748,0.49365 0.413148,-0.0836 0.413149,-0.0836 z m 4.766449,1.03131 0.178952,-0.10475 -0.136133,-1.38549 -0.136134,-1.38549 0.253355,-1.09586 0.253355,-1.09585 -1.751382,-0.12155 -1.751381,-0.12155 -0.33073,0.25762 -0.330729,0.25761 0.0015,0.95979 c 8.11e-4,0.52789 0.129669,1.42148 0.286351,1.98577 l 0.284875,1.02598 0.647067,0.64707 0.647066,0.64707 0.85252,-0.18281 c 0.468886,-0.10055 0.933048,-0.22995 1.031472,-0.28756 z m 28.12886,-0.0894 0.16534,-0.52095 -0.2809,-2.01964 c -0.1545,-1.11079 -0.34697,-2.12652 -0.42772,-2.25717 -0.21852,-0.35357 -1.06794,-0.28715 -1.39692,0.10924 l -0.2878,0.34679 0.64611,1.57144 c 0.35535,0.8643 0.72166,1.9584 0.81401,2.43135 0.18934,0.9696 0.52122,1.11609 0.76788,0.33894 z m -23.445362,-0.83034 1.158282,-0.50094 -0.16409,-1.02619 -0.1641,-1.0262 0.23019,-1.23216 0.2302,-1.23216 -1.621259,0.1715 -1.621256,0.1715 -0.582948,0.36514 -0.582948,0.36513 -0.166199,0.88592 -0.166198,0.88591 0.311995,1.16661 c 0.171597,0.64163 0.436225,1.31812 0.588063,1.50331 l 0.276069,0.3367 0.557958,-0.16657 c 0.306877,-0.0916 1.079185,-0.39199 1.716241,-0.6675 z m 4.102282,0.4213 c 0.33646,-0.22046 1.31454,-0.58379 2.17351,-0.8074 0.85897,-0.22361 1.68082,-0.52777 1.82634,-0.67591 l 0.26458,-0.26934 -0.70984,-0.61508 c -0.39041,-0.3383 -0.8608,-0.66541 -1.04532,-0.72691 l -0.33547,-0.11183 0.46998,-0.99042 0.46999,-0.99043 -0.42295,-0.64551 -0.42296,-0.64551 -0.98609,9.9e-4 -0.98609,9.9e-4 -0.85279,0.51997 -0.8528,0.51997 -0.17362,0.69178 c -0.26437,1.05332 0.40577,5.14547 0.84263,5.14547 0.071,0 0.40444,-0.18038 0.7409,-0.40083 z m 8.73578,-0.83777 1.03176,-0.37357 0.75417,0.16565 0.75418,0.16564 v -0.25629 c 0,-0.14096 -0.21862,-0.52628 -0.48583,-0.85627 l -0.48583,-0.59997 -0.77094,0.0244 c -1.02235,0.0324 -2.74051,0.77047 -2.92743,1.25756 -0.082,0.21368 -0.0758,0.57946 0.0138,0.81284 l 0.16283,0.42432 0.46079,-0.19538 c 0.25343,-0.10746 0.92508,-0.36349 1.49255,-0.56895 z m 6.17813,-1.13904 0.8599,-0.004 -0.008,-0.46302 c -0.005,-0.25467 -0.17056,-0.67683 -0.36874,-0.93815 l -0.36033,-0.47512 -0.66344,0.16651 c -0.68352,0.17156 -1.77407,1.03917 -1.77407,1.4114 0,0.40316 0.38728,0.59256 0.91931,0.4496 0.29474,-0.0792 0.92285,-0.14562 1.39579,-0.14761 z m -5.55783,-2.58275 c 0.0357,-0.10944 -0.21065,-0.54343 -0.54747,-0.96442 l -0.61239,-0.76542 -1.3714,0.32899 c -1.59579,0.38282 -1.77979,0.58347 -1.42005,1.54856 0.1459,0.3914 0.33116,0.91721 0.41169,1.16847 l 0.14641,0.45684 1.66414,-0.78702 c 0.91528,-0.43286 1.69336,-0.87656 1.72907,-0.986 z m 12.2953,-0.26956 c -0.0319,-0.68879 -0.20651,-1.84766 -0.38808,-2.57526 l -0.33012,-1.32292 -0.52916,-0.0677 c -0.29105,-0.0372 -0.69727,0.0413 -0.90272,0.17437 l -0.37355,0.24204 0.70201,1.43486 c 0.38611,0.78918 0.77287,1.8418 0.85947,2.33917 0.0866,0.49737 0.21058,1.07304 0.27552,1.27928 l 0.11807,0.37497 0.31326,-0.31326 0.31325,-0.31325 z m -9.05257,0.20286 c 0.57049,-0.29104 1.21356,-0.52916 1.42905,-0.52916 0.21549,0 0.46861,-0.12428 0.56249,-0.27618 l 0.17068,-0.27617 -0.33581,-0.40462 c -0.18469,-0.22255 -0.79901,-0.64094 -1.36516,-0.92977 l -1.02936,-0.52514 -0.81374,0.0815 -0.81374,0.0815 -0.26211,0.41894 -0.26211,0.41894 0.72359,1.2347 c 0.39797,0.67909 0.77655,1.23471 0.84128,1.23471 0.0647,0 0.58445,-0.23813 1.15494,-0.52917 z m -20.703646,-1.2282 0.595312,-0.3715 v -0.40308 -0.40308 l -0.774352,-0.44442 -0.774352,-0.44441 0.01978,-0.69578 c 0.02695,-0.94787 -0.239135,-1.30119 -0.979934,-1.30119 h -0.625543 l -0.81405,0.68497 -0.81405,0.68498 v 0.85195 0.85196 l 0.330729,0.43601 c 0.181901,0.23981 0.683321,0.61571 1.114266,0.83533 l 0.783537,0.3993 0.671671,-0.15477 c 0.369419,-0.0851 0.939562,-0.32194 1.266984,-0.52627 z m 5.622396,-0.90586 c 0,-0.62048 -0.5963,-1.332 -1.400453,-1.67104 l -0.848506,-0.35775 0.925637,-0.25039 0.925642,-0.25039 0.0851,-0.44177 0.0851,-0.44177 -0.71862,-0.666 -0.718621,-0.66599 h -0.708994 -0.708994 l -0.571217,0.60803 c -0.314169,0.33442 -0.641243,0.95949 -0.72683,1.38906 l -0.155614,0.78103 0.28182,0.73953 0.28182,0.73953 0.861911,0.37459 0.86191,0.3746 1.124479,0.0103 1.12448,0.0104 z m 11.52844,-1.65312 1.24292,-1.14135 -0.30633,-0.57238 c -0.16848,-0.3148 -0.51196,-0.67805 -0.76328,-0.80722 l -0.45696,-0.23484 -1.18855,0.29492 -1.18855,0.29493 -0.3499,0.73314 c -0.19244,0.40323 -0.37197,1.04969 -0.39895,1.43658 l -0.0491,0.70343 0.66146,0.19069 c 0.3638,0.10489 0.86234,0.20257 1.10786,0.21708 l 0.4464,0.0264 z m -6.78869,-0.77688 c 0.59146,-0.61846 1.07666,-1.2652 1.07823,-1.43719 0.002,-0.17199 -0.35932,-0.5706 -0.80197,-0.8858 l -0.80483,-0.57309 -0.58974,0.14802 c -0.32436,0.0814 -0.97422,0.52391 -1.44414,0.98334 l -0.85438,0.83532 v 0.59767 c 0,0.65894 0.38355,1.06637 1.19062,1.26475 1.00846,0.24789 1.15602,0.18604 2.22621,-0.93302 z m 12.98733,0.7276 c 0.18116,-0.21828 0.54442,-0.39687 0.80725,-0.39687 0.26283,0 0.66409,-0.18621 0.89168,-0.41381 l 0.41381,-0.41381 -0.39972,-0.77298 -0.39973,-0.77298 -0.632,-0.15863 -0.632,-0.15862 -0.61996,0.32015 c -0.93252,0.48155 -1.81058,1.3548 -1.81058,1.80065 0,0.21784 0.19705,0.61381 0.43788,0.87993 l 0.43789,0.48385 h 0.58805 0.58805 z m -30.240407,-0.6077 0.318964,-0.20273 -0.796542,-1.57916 -0.796543,-1.57915 h -0.3098 -0.3098 l -0.242818,0.69044 -0.242818,0.69045 0.170698,0.68011 c 0.310856,1.23855 1.346398,1.84808 2.208659,1.30004 z m 3.848223,-2.26942 c 0.545703,-0.25025 0.992187,-0.5129 0.992187,-0.58367 0,-0.34459 -1.447305,-2.96117 -1.92739,-3.48452 L 91.140782,143.7375 H 90.67694 90.213097 l -0.574217,0.7276 -0.574216,0.72761 0.105206,1.47062 0.105205,1.47063 0.628237,1.0165 0.628237,1.01651 0.549175,-0.65549 c 0.302046,-0.36051 0.995659,-0.86023 1.541362,-1.11048 z m 23.118984,0.9589 c 0.24374,-0.40019 0.71379,-1.13034 1.04456,-1.62257 l 0.60138,-0.89496 -0.2551,-0.67097 c -0.14031,-0.36904 -0.45879,-0.82573 -0.70773,-1.01486 l -0.45262,-0.34388 -0.98287,-0.008 -0.98288,-0.008 -0.28495,0.53243 -0.28494,0.53242 0.29296,1.61557 c 0.47539,2.62163 1.16788,3.26987 2.01219,1.88365 z m -18.199817,-2.11809 1.312265,-1.25819 -0.614035,-0.77007 -0.614035,-0.77007 -0.17275,-0.92084 c -0.09501,-0.50646 -0.360291,-1.20706 -0.589507,-1.55689 l -0.416756,-0.63605 -0.547094,0.0794 -0.547093,0.0794 -0.627983,0.92604 -0.627983,0.92605 0.114992,1.19062 c 0.06325,0.65484 0.386174,1.8157 0.717619,2.57969 L 95.53152,148.5 h 0.348734 c 0.191803,0 0.939253,-0.56618 1.660999,-1.25819 z m 11.448857,0.82517 c 0.19766,-0.23817 0.86708,-0.65066 1.4876,-0.91664 l 1.12823,-0.48362 v -0.44119 c 0,-0.24266 -0.24784,-0.8422 -0.55075,-1.33232 l -0.55074,-0.89113 h -1.1566 c -0.63613,0 -1.44672,0.1322 -1.80133,0.29376 l -0.64473,0.29376 -0.29376,0.64473 c -0.4271,0.9374 -0.3924,1.04598 0.69843,2.18529 1.15031,1.20143 1.20602,1.22286 1.68365,0.64736 z m -6.50559,-0.63231 0.76717,-0.80075 0.80369,-0.20673 0.80368,-0.20673 0.0795,-0.66881 0.0795,-0.66882 -0.40001,-0.33198 -0.40001,-0.33198 -0.92763,0.30614 -0.92762,0.30615 -0.67012,0.79639 c -0.67017,0.79645 -0.81131,1.4029 -0.50951,2.18935 0.22595,0.58884 0.42776,0.52956 1.30131,-0.38223 z m 17.85168,-0.98519 -9.9e-4,-0.7276 -0.52429,-0.8599 -0.52429,-0.8599 h -0.67365 -0.67365 l -0.13013,0.33912 c -0.0716,0.18652 0.0333,0.8116 0.233,1.38907 l 0.36313,1.04994 0.76749,0.16713 c 0.42212,0.0919 0.85679,0.18122 0.96593,0.19844 0.10914,0.0172 0.19799,-0.29612 0.19745,-0.6963 z m 1.83782,-2.92603 c -0.008,-0.82816 -0.0977,-1.96903 -0.19843,-2.53528 l -0.18319,-1.02954 -0.45806,-0.28889 -0.45806,-0.28889 -0.40964,0.40964 -0.40965,0.40965 0.58262,2.2317 c 0.60886,2.33221 0.92202,2.98525 1.31506,2.74234 l 0.2346,-0.14499 z m -34.383038,0.87813 0.618949,-0.65885 -0.302573,-0.66407 c -0.166415,-0.36524 -0.421768,-0.66408 -0.567451,-0.66408 -0.145684,0 -0.507843,-0.47625 -0.8048,-1.05833 -0.296957,-0.58208 -0.646854,-1.05833 -0.777548,-1.05833 -0.34893,0 -1.340657,1.70057 -1.329743,2.28019 0.01408,0.74752 0.631191,1.71874 1.342664,2.11308 0.890279,0.49344 1.119047,0.45705 1.820502,-0.28961 z m 13.774258,-0.52205 1.17716,-1.18088 0.70932,-0.15904 c 0.39013,-0.0875 0.84013,-0.31666 1.00002,-0.5093 l 0.29069,-0.35027 -0.69281,-0.82335 -0.6928,-0.82336 h -0.77023 -0.77023 v -0.23372 c 0,-0.12855 0.23812,-0.296 0.52916,-0.37211 l 0.52917,-0.13838 v -0.53918 -0.53918 l -0.605,-0.70335 -0.605,-0.70336 -0.91635,0.38392 c -0.504,0.21116 -1.294559,0.70284 -1.756803,1.09263 l -0.840444,0.70871 -0.173337,0.78919 -0.173337,0.7892 1.118055,2.24636 c 0.614931,1.2355 1.196256,2.24636 1.291836,2.24636 0.0956,0 0.70349,-0.5314 1.35093,-1.18089 z m -8.681997,-0.96935 c 0.588313,-0.31485 1.921655,-1.78309 1.921655,-2.11607 0,-0.3028 -2.332582,-1.79866 -2.573028,-1.65005 -0.291412,0.1801 -1.26343,2.11526 -1.26343,2.51533 0,0.29717 1.013522,1.54894 1.25414,1.54894 0.05696,0 0.354259,-0.13416 0.660663,-0.29815 z m 16.804467,-0.38543 0.59531,-0.12025 v -0.65642 -0.65641 h -1.26404 -1.26405 l -0.58804,0.41187 -0.58803,0.41188 v 0.50911 0.5091 l 1.25677,-0.14431 c 0.69122,-0.0794 1.52466,-0.19843 1.85208,-0.26457 z m 6.57588,-0.48316 0.14314,-0.373 -0.38893,-0.7521 c -0.21392,-0.41366 -0.60948,-0.94961 -0.87904,-1.191 l -0.49011,-0.43888 -1.25677,-0.18585 -1.25677,-0.18584 v 0.57151 0.57152 l 0.8204,0.45071 c 0.45123,0.24789 1.2549,0.76998 1.78594,1.1602 1.12639,0.82769 1.32856,0.87719 1.52214,0.37273 z m -25.904005,-2.27502 c 0.328211,-1.23573 0.599471,-2.37752 0.602801,-2.53732 0.0033,-0.1598 -0.46746,-0.50407 -1.0462,-0.76505 l -1.052254,-0.4745 -0.422292,0.35047 c -0.488476,0.4054 -1.44195,2.18676 -1.44195,2.69397 0,0.18964 0.424723,0.97548 0.943829,1.7463 l 0.943829,1.40151 0.437745,-0.0843 0.437745,-0.0843 z m 28.096965,1.52353 c -0.0157,-0.47294 -0.16454,-1.6338 -0.33073,-2.57968 l -0.30217,-1.71979 -0.72761,-0.0837 -0.7276,-0.0837 v 0.54138 c 0,0.29776 0.17253,0.99028 0.38341,1.53893 0.21087,0.54865 0.51312,1.50356 0.67165,2.12202 l 0.28825,1.12448 h 0.38668 0.38668 z m -12.28402,-1.50606 c 0.0847,-0.13712 0.71685,-0.3246 1.40468,-0.41663 0.68783,-0.092 1.42169,-0.22278 1.63079,-0.29054 l 0.38019,-0.12322 -0.69488,-0.69488 -0.69488,-0.69488 h -0.78893 -0.78893 l -0.68231,0.44707 -0.68232,0.44707 v 0.78765 0.78765 h 0.38126 c 0.20969,0 0.45059,-0.11218 0.53533,-0.24929 z m -9.317111,-1.46617 c 0.868733,-0.76462 0.902604,-1.09015 0.190263,-1.82857 -0.295538,-0.30635 -0.903184,-1.00349 -1.350326,-1.5492 l -0.812984,-0.99218 h -0.389819 c -0.2144,0 -0.737847,0.34803 -1.163216,0.77339 l -0.773397,0.7734 v 0.64613 0.64613 l 0.541762,0.68874 c 0.618799,0.78668 1.725454,1.43398 2.500946,1.46286 l 0.529167,0.0197 z m 17.925521,0.0437 c 0,-0.19186 -0.18321,-0.96577 -0.40713,-1.71979 l -0.40712,-1.37094 h -0.67737 c -0.85496,0 -2.47737,0.75645 -2.47641,1.15463 l 7.2e-4,0.30058 1.78522,0.95734 c 2.06882,1.10943 2.18209,1.14464 2.18209,0.67818 z m 6.09069,-0.58353 0.33464,-0.40323 -0.1659,-1.77959 -0.1659,-1.77958 -0.42677,-0.31265 -0.42677,-0.31264 -0.56948,0.21573 -0.56947,0.21574 0.0859,0.49378 c 0.20368,1.17069 1.17397,4.06566 1.36267,4.06566 0.11353,0 0.35701,-0.18145 0.54107,-0.40322 z m -34.635643,-1.04161 c 0.345083,-0.50362 0.896212,-1.05952 1.22473,-1.23534 0.693865,-0.37134 0.719938,-0.49056 0.248328,-1.13553 l -0.348979,-0.47726 -1.088745,0.55544 c -0.59881,0.30549 -1.266226,0.80882 -1.483145,1.11852 l -0.394399,0.56308 0.153404,0.43265 c 0.201964,0.5696 0.615824,1.0941 0.863301,1.0941 0.108944,0 0.480422,-0.41205 0.825505,-0.91566 z m 19.747553,-0.41185 c 0.76399,-0.34628 1.38907,-0.71117 1.38907,-0.81088 0,-0.34712 -2.12141,-2.09516 -2.58045,-2.12629 -0.78919,-0.0535 -1.24295,0.0603 -1.59451,0.4001 l -0.33849,0.32714 0.69481,1.51766 c 0.38214,0.83471 0.77259,1.4736 0.86766,1.41976 0.0951,-0.0539 0.79793,-0.38122 1.56191,-0.72749 z m -6.438078,-1.5735 1.212558,-0.51976 v -0.66669 -0.66669 l -0.759646,-0.85019 -0.759648,-0.8502 -1.919333,0.29709 c -1.055633,0.1634 -2.036553,0.4143 -2.179821,0.55757 l -0.260488,0.26049 1.418115,1.45931 c 0.779964,0.80262 1.557073,1.4682 1.726909,1.47907 0.169837,0.0109 0.854446,-0.21413 1.521354,-0.5 z m -7.051782,-0.91919 0.988302,-0.90979 -0.444106,-0.74386 -0.444105,-0.74385 -0.573265,-0.0879 -0.573266,-0.0879 0.178836,-0.57361 c 0.09836,-0.31549 0.241341,-0.83473 0.317736,-1.15388 l 0.1389,-0.58028 -0.755573,-1.06772 -0.755574,-1.06772 -0.404149,-0.006 c -0.4597,-0.006 -1.554797,0.69596 -2.034832,1.30512 l -0.322315,0.40902 -0.0084,1.00068 c -0.0046,0.55038 0.161099,1.4064 0.368284,1.90226 0.451659,1.08097 2.451889,3.31477 2.968175,3.31477 0.201885,0 0.811799,-0.40941 1.355366,-0.90979 z m 19.84277,0.037 1.39196,-0.30046 -0.0857,-0.2572 c -0.0472,-0.14146 -0.37588,-0.4724 -0.73051,-0.73543 l -0.64477,-0.47824 -0.98326,0.27367 c -1.17469,0.32695 -1.79487,0.88892 -1.79487,1.62639 v 0.54111 l 0.72761,-0.18469 c 0.40018,-0.10158 1.35399,-0.31989 2.11957,-0.48515 z m -25.770381,-1.13415 0.403407,-0.1548 -0.2166,-0.5728 c -0.11913,-0.31504 -0.301275,-1.19189 -0.404765,-1.94856 l -0.188165,-1.37575 -0.334801,-0.27786 -0.334801,-0.27786 -0.898973,0.60379 -0.898972,0.60379 -0.08117,0.96777 -0.08117,0.96776 0.418693,0.80966 0.418692,0.80966 h 0.897608 c 0.493684,0 1.07914,-0.0697 1.301015,-0.1548 z m 30.284311,-1.42405 0.0851,-0.8603 -0.55051,-0.58599 c -0.30278,-0.32229 -0.48543,-0.65107 -0.40589,-0.73061 0.23962,-0.23962 -0.40515,-1.40912 -0.97208,-1.76317 l -0.53006,-0.33103 -1.43549,0.32125 -1.43548,0.32124 v 0.31094 c 0,0.17102 0.59531,0.87458 1.32292,1.56348 0.7276,0.68889 1.32291,1.34608 1.32291,1.4604 0,0.11433 0.29078,0.52162 0.64617,0.9051 l 0.64616,0.69722 0.61061,-0.22411 0.6106,-0.22412 z m -13.04055,-0.57445 c 0.65334,-0.60223 1.16312,-1.22731 1.13284,-1.38906 -0.0303,-0.16175 0.0345,-0.55777 0.14396,-0.88003 l 0.19902,-0.58594 -0.61017,-0.82808 -0.61017,-0.82809 -0.95557,0.12717 c -0.52557,0.0699 -1.26971,0.33299 -1.65365,0.58455 l -0.69807,0.45739 v 0.63103 0.63103 h 0.36448 c 0.20046,0 0.51161,-0.17728 0.69144,-0.39396 l 0.32696,-0.39396 0.24143,0.14921 0.24143,0.14922 -0.66828,0.79421 c -0.73529,0.87383 -0.79335,1.18399 -0.41026,2.1916 l 0.25804,0.67868 h 0.40933 c 0.22514,0 0.94389,-0.49273 1.59724,-1.09497 z m 6.3982,0.39757 1.13333,-0.43282 v -0.32883 -0.32883 l -0.76171,-0.31551 -0.76171,-0.31551 -1.0792,0.2906 c -0.59357,0.15983 -1.14641,0.39933 -1.22854,0.53222 l -0.14933,0.24162 0.58493,0.54494 c 0.70526,0.65705 0.82039,0.66276 2.26223,0.11212 z m -13.03446,-1.27205 1.070911,-0.31734 -0.07375,-0.63692 c -0.04056,-0.3503 -0.166903,-0.73007 -0.280756,-0.84392 l -0.207005,-0.207 -1.542529,0.5307 c -1.822626,0.62708 -2.261586,0.94685 -2.261586,1.6475 v 0.52003 l 1.111901,-0.18786 c 0.611546,-0.10332 1.593811,-0.33065 2.182814,-0.50519 z m 11.88955,-2.21122 c 0.42194,-0.24725 0.89879,-0.65892 1.05968,-0.91484 l 0.29251,-0.4653 -0.40841,-0.72533 -0.40841,-0.72532 -0.51763,-0.038 c -0.2847,-0.0209 -0.62768,-0.0507 -0.76219,-0.0661 -0.1345,-0.0155 0.0391,-0.33006 0.38578,-0.69909 l 0.63034,-0.67096 -0.49359,-0.91654 -0.49359,-0.91654 h -0.496 c -0.2728,0 -0.90889,0.17252 -1.41354,0.38338 l -0.91755,0.38337 0.006,0.60881 c 0.004,0.33485 0.12246,1.11146 0.26424,1.72581 0.14177,0.61435 0.28429,1.72668 0.31671,2.47184 l 0.0589,1.35485 1.06453,-0.17023 c 0.58549,-0.0936 1.40975,-0.37251 1.8317,-0.61975 z m -14.05224,-0.66133 c 0.840894,-0.39284 1.763628,-0.71425 2.05052,-0.71425 0.636329,0 0.656865,-0.20577 0.08374,-0.83906 l -0.437882,-0.48386 h -0.895575 -0.895575 l -1.015161,0.5179 c -0.558338,0.28484 -1.088949,0.71019 -1.179135,0.94521 l -0.163975,0.42731 0.281547,0.52608 c 0.154852,0.28934 0.362784,0.48307 0.462072,0.4305 0.09929,-0.0526 0.868529,-0.41699 1.709424,-0.80983 z m -10.127856,0.27066 c 0,-0.1859 -0.161653,-0.57285 -0.359228,-0.85989 -0.197575,-0.28704 -0.504465,-0.96838 -0.681977,-1.51408 -0.177513,-0.5457 -0.380875,-0.99219 -0.451917,-0.99219 -0.438941,0 -1.214643,0.65761 -1.423411,1.20671 l -0.24537,0.64537 0.274587,0.72222 c 0.352537,0.92725 0.678436,1.12085 1.895128,1.12582 l 0.992188,0.004 z m 3.704166,-1.44834 0.926042,-0.46261 0.0055,-2.24896 c 0.003,-1.23693 0.06255,-2.42549 0.132292,-2.64125 l 0.126798,-0.3923 -1.5875,0.0781 c -0.873125,0.043 -1.777791,0.13248 -2.010368,0.19894 -0.604829,0.17284 -1.03234,1.26909 -1.03234,2.6472 v 1.18872 l 0.534544,1.04779 0.534544,1.04779 0.722227,-4.1e-4 c 0.397224,-2.3e-4 1.138945,-0.20859 1.648268,-0.46302 z m 24.12755,-0.46771 0.3037,-0.66656 -0.31596,-1.71478 c -0.17378,-0.94314 -0.42552,-2.00297 -0.55944,-2.35518 l -0.24347,-0.64039 -0.53502,0.13991 c -0.29427,0.0769 -0.67003,0.30258 -0.83505,0.50141 l -0.30001,0.3615 0.55593,1.77113 c 0.30576,0.97413 0.55594,2.0289 0.55594,2.34394 0,0.66039 0.20377,0.92558 0.71122,0.92558 h 0.35845 z m -17.937902,-1.21653 c 0.597516,-0.16171 1.235221,-0.33621 1.417123,-0.38778 0.561025,-0.15907 0.373414,-0.59686 -0.727605,-1.69788 l -1.058333,-1.05834 h 0.405179 c 0.222848,0 0.474064,-0.17951 0.558258,-0.39891 l 0.153079,-0.39892 -0.432066,-0.65942 -0.432065,-0.65941 -0.853797,9.9e-4 -0.853796,9.9e-4 -0.865291,0.52757 -0.865292,0.52757 -0.291417,0.63959 -0.291417,0.63959 0.274913,1.54383 c 0.151202,0.8491 0.400403,1.86999 0.55378,2.26862 l 0.278868,0.7248 0.971743,-0.65944 c 0.534459,-0.36269 1.46062,-0.79175 2.058136,-0.95345 z m 7.246122,0.91478 1.6618,-0.47133 -0.0743,-0.3763 c -0.0409,-0.20697 -0.26323,-0.49526 -0.49413,-0.64065 l -0.41983,-0.26434 -0.94239,0.17679 c -0.51832,0.0972 -1.25213,0.42043 -1.63069,0.71821 l -0.688304,0.54142 v 0.54082 0.54082 l 0.463021,-0.14706 c 0.254663,-0.0809 1.210833,-0.35916 2.124833,-0.61838 z m -0.31895,-3.26503 c 0.30432,0 0.63479,-0.0815 0.73436,-0.18104 l 0.18104,-0.18104 -0.8503,-0.87729 -0.85031,-0.87729 h -0.86169 c -0.473928,0 -1.175084,0.14279 -1.558122,0.31731 l -0.696434,0.31732 0.135566,0.67487 c 0.07456,0.37118 0.261759,1.00601 0.415995,1.41074 l 0.280429,0.73587 1.258072,-0.66972 c 0.691944,-0.36835 1.507064,-0.66973 1.811394,-0.66973 z m 13.34151,-0.62197 v -1.68031 l -0.29517,-0.84674 -0.29518,-0.84674 -0.43243,0.0863 -0.43243,0.0863 0.0337,0.78713 c 0.0185,0.43293 0.18839,1.53128 0.37743,2.44078 l 0.34372,1.65365 h 0.35018 0.35017 z m -31.089399,0.19234 c 0.283992,-0.52734 0.786295,-1.13568 1.116229,-1.35186 l 0.59988,-0.39305 -0.145635,-0.23565 c -0.0801,-0.1296 -0.53927,-0.23564 -1.02038,-0.23564 H 83.63147 l -0.69714,0.54837 -0.69714,0.54837 v 0.72163 c 0,0.74138 0.416687,1.35663 0.918791,1.35663 0.156085,0 0.516148,-0.43146 0.80014,-0.9588 z m 23.085759,-1.41664 0.59531,-0.006 v -0.30989 c 0,-0.17045 -0.19705,-0.52763 -0.43788,-0.79375 l -0.43789,-0.48386 h -0.63359 c -0.8261,0 -2.08662,0.65936 -2.29409,1.20001 l -0.1634,0.42583 0.26556,0.4962 0.26556,0.4962 1.12255,-0.50956 c 0.6174,-0.28026 1.39044,-0.51217 1.71787,-0.51537 z m 3.35621,-1.05759 0.67868,-0.25804 v -0.44873 c 0,-0.24681 -0.18978,-0.65844 -0.42173,-0.91475 l -0.42174,-0.46601 -0.43816,0.15466 c -0.54994,0.19413 -1.3642,0.88332 -1.3642,1.15468 0,0.27751 0.77613,1.03622 1.06001,1.03622 0.12565,0 0.53386,-0.11611 0.90714,-0.25803 z m -20.576972,-0.42087 0.158988,-0.41431 -0.880652,-0.9086 c -0.484359,-0.49973 -0.996749,-0.9086 -1.138645,-0.9086 -0.442409,0 -1.225702,0.85354 -1.225702,1.33562 v 0.45986 l 0.992187,0.41154 c 0.545703,0.22635 1.204284,0.41768 1.463512,0.42517 l 0.471325,0.0136 z m 9.869539,-0.31891 0.578763,-0.46865 -0.686279,-0.74051 -0.686274,-0.7405 -0.458485,0.0869 -0.458484,0.0869 -0.08588,0.74769 c -0.04723,0.41123 -0.0212,0.91623 0.05784,1.12222 l 0.143719,0.37452 h 0.508159 c 0.279487,0 0.7686,-0.21089 1.086916,-0.46864 z m 3.911143,-0.1682 0.50094,-0.63684 0.64275,-0.0908 0.64274,-0.0908 0.0848,-0.88465 0.0847,-0.88464 -0.45649,-0.50442 -0.45649,-0.50442 h -0.71362 -0.71361 l -0.8905,0.60011 -0.89049,0.6001 -0.24285,0.84678 -0.24286,0.84677 0.43886,0.66979 0.43886,0.66978 h 0.63616 0.63616 z m -20.177914,-0.67971 c 0.08778,-0.14203 0.01031,-0.98097 -0.172138,-1.86431 l -0.33173,-1.60608 -0.672143,0.0784 -0.672143,0.0784 0.01906,1.29558 0.01906,1.29558 0.605566,0.49035 c 0.681772,0.55207 0.972155,0.60803 1.204472,0.23214 z m 10.267866,-0.33709 0.712143,-0.33073 0.0021,-0.4109 c 0.0019,-0.38481 -1.491431,-2.63181 -1.749115,-2.63181 -0.06485,0 -0.532675,0.17331 -1.039621,0.38512 l -0.921721,0.38512 -0.226632,0.60707 -0.226632,0.60707 0.247362,0.65607 c 0.136049,0.36084 0.388741,0.74597 0.561538,0.85584 0.48422,0.3079 1.849921,0.24436 2.640614,-0.12285 z m -6.758208,-1.90239 c 0.994685,-0.49313 0.985006,-0.46164 0.456227,-1.48419 l -0.40367,-0.78061 H 86.5226 c -0.254925,0 -0.71869,0.17874 -1.030588,0.39721 l -0.567088,0.3972 -0.174264,0.79342 -0.174265,0.79342 0.181935,0.82835 0.181936,0.82834 0.566691,-0.67342 c 0.31168,-0.37038 0.953645,-0.86525 1.426587,-1.09972 z m 26.658656,1.16884 c 0.21367,-0.6732 -0.0641,-1.98776 -0.49568,-2.34595 l -0.32749,-0.27179 -0.58155,0.15208 -0.58154,0.15207 v 0.37656 c 0,0.20711 0.24054,0.84806 0.53454,1.42435 l 0.53455,1.04779 h 0.37366 0.37367 z m -16.645463,-0.65551 0.974713,-0.66146 h 0.63284 0.632841 l 0.161523,-0.42093 0.161524,-0.42092 -0.43013,-0.90199 -0.430131,-0.90199 H 97.953749 97.25758 l 0.427305,-0.65215 c 0.544327,-0.83075 0.541222,-1.42927 -0.01058,-2.039 l -0.437882,-0.48385 H 96.6551 c -0.65168,0 -2.186343,0.95996 -2.600927,1.62693 l -0.271207,0.43631 0.804362,2.07723 c 0.442399,1.14248 0.876955,2.28559 0.965682,2.54025 0.206496,0.59269 0.233636,0.58882 1.393725,-0.19843 z m 11.290493,-0.01 c 1.12459,-0.76418 1.14854,-0.82914 0.54958,-1.49098 -0.57037,-0.63025 -1.1764,-0.61245 -1.89348,0.0556 l -0.57906,0.53947 v 0.60705 c 0,1.16428 0.51974,1.24235 1.92296,0.28884 z m -18.391699,-1.95097 0.76988,-0.76988 1.102556,-0.33033 1.102556,-0.33034 v -0.35499 c 0,-0.48469 -0.964788,-1.41333 -1.468347,-1.41333 -0.225508,0 -0.759274,0.18061 -1.186147,0.40136 l -0.776132,0.40135 -0.401353,0.77613 c -0.417619,0.80759 -0.529551,1.90894 -0.224965,2.21352 0.248305,0.24831 0.230255,0.25821 1.081952,-0.59349 z m 11.644839,-0.0239 0.33047,-0.52916 h 0.53523 0.53523 l 0.15308,-0.39892 0.15308,-0.39892 -0.44226,-0.67496 -0.44225,-0.67497 -0.84361,0.0817 -0.84361,0.0817 -0.0794,1.52135 -0.0794,1.52136 h 0.34644 c 0.19053,0 0.49514,-0.23813 0.6769,-0.52917 z m -18.45943,-1.16038 c 0,-0.0561 -0.17786,-0.44308 -0.395245,-0.8599 -0.217384,-0.41681 -0.395978,-1.02947 -0.396875,-1.36146 l -0.0016,-0.60362 -0.400244,-0.15358 -0.400244,-0.15359 -0.406884,0.33768 -0.406884,0.33769 0.07952,0.9426 0.07952,0.9426 0.661458,0.33292 c 0.626133,0.31513 1.5875,0.45966 1.5875,0.23866 z m 3.607957,-1.27814 0.337311,-0.3396 -0.231814,-1.0225 c -0.127498,-0.56237 -0.19745,-1.21721 -0.155449,-1.45521 0.042,-0.23799 0.154403,-0.86538 0.249785,-1.3942 l 0.17342,-0.96149 -0.438623,-0.16831 c -0.241243,-0.0926 -0.841449,-0.0927 -1.333791,-3.8e-4 l -0.895167,0.16793 -0.550369,0.69729 -0.550369,0.69728 0.106538,1.48905 0.106538,1.48904 0.474491,0.72417 0.474491,0.72416 0.947848,-0.15381 c 0.521317,-0.0846 1.099638,-0.30664 1.28516,-0.49342 z m 3.710064,-1.85464 0.881417,-0.52005 -0.162446,-0.70225 c -0.08934,-0.38623 -0.32962,-0.97014 -0.533943,-1.29756 l -0.371498,-0.59531 h -0.605469 -0.605468 l -0.579057,0.53947 -0.579057,0.53948 v 1.29097 c 0,0.71003 0.07391,1.48357 0.164243,1.71898 l 0.164242,0.428 0.672809,-0.44084 c 0.370045,-0.24246 1.069447,-0.67486 1.554227,-0.96089 z m 14.506329,0.0659 c 0.17636,-0.28535 -0.19848,-1.90758 -0.84202,-3.64412 l -0.41672,-1.12448 h -0.44031 c -0.24216,0 -0.57054,0.13023 -0.72971,0.28941 l -0.28941,0.28941 0.9641,2.21912 0.96409,2.21911 0.31512,0.005 c 0.17331,0.003 0.387,-0.1113 0.47486,-0.25347 z m 2.9628,-1.33501 c -0.0819,-0.69156 -0.32863,-1.68749 -0.54828,-2.21319 l -0.39937,-0.95582 h -0.54267 c -0.29846,0 -0.54266,0.0974 -0.54266,0.21656 0,0.43246 0.86075,3.10919 1.23064,3.82699 l 0.37939,0.73625 0.28593,-0.17671 0.28594,-0.17672 z m -13.67465,0.40287 0.621408,-0.66146 h 0.747629 0.747629 v -0.24714 c 0,-0.13593 -0.313219,-0.96937 -0.696042,-1.85209 L 94.868021,104.05 h -0.855776 -0.855776 l -0.697139,0.54837 -0.69714,0.54837 0.0058,0.84069 c 0.0032,0.46239 0.235499,1.34671 0.51623,1.96518 l 0.51042,1.12448 h 0.363691 c 0.200029,0 0.643324,-0.29766 0.985098,-0.66146 z m 5.101727,-1.54652 c 0.468269,-0.19574 1.004333,-0.54031 1.191263,-0.76572 l 0.33986,-0.40982 -0.44707,-0.44707 c -0.24588,-0.24589 -0.726243,-0.55321 -1.067463,-0.68294 l -0.620401,-0.23588 -0.637155,0.24225 -0.637156,0.24225 0.205379,0.91062 c 0.210431,0.93302 0.474207,1.5022 0.69617,1.5022 0.06885,0 0.508304,-0.16015 0.976573,-0.35589 z m -13.201107,-2.4517 c 1.293414,-0.0483 2.399445,-0.13553 2.457848,-0.19393 0.100335,-0.10034 -0.298558,-3.08487 -0.576611,-4.314226 L 87.79663,99.34038 86.961803,99.049358 c -1.13307,-0.39499 -1.960586,-0.365731 -2.863631,0.101251 l -0.758573,0.392274 -0.274313,0.864497 c -0.23316,0.7348 -0.400141,2.88199 -0.321486,4.13395 l 0.02256,0.35904 0.463021,-0.19761 c 0.254661,-0.10869 1.521268,-0.2371 2.814682,-0.28535 z m 7.139642,-2.24006 1.479873,-0.64089 0.0045,-0.2977 c 0.0025,-0.16373 -0.416522,-1.2216 -0.931123,-2.350818 l -0.935639,-2.053124 -1.354311,0.160398 -1.354311,0.160398 -0.620467,0.582898 -0.620467,0.582898 v 0.956625 c 0,1.057495 0.634563,3.715565 1.09032,4.567155 l 0.292018,0.54564 0.734859,-0.7863 0.734859,-0.7863 z m 8.544498,1.19158 0.15983,-0.4165 -1.14926,-1.171 -1.149257,-1.17101 h -0.482382 -0.482383 l -0.151609,0.39509 -0.151609,0.39508 0.755226,0.89904 c 1.166084,1.38813 2.346434,1.86415 2.651444,1.0693 z m -5.20351,-2.5801 c 0,-0.54464 1.166366,-1.509955 2.290018,-1.895283 l 1.017273,-0.348848 0.08473,-0.418085 0.08472,-0.418085 -1.166249,-1.234351 -1.166253,-1.234351 -0.684018,0.171677 c -0.37621,0.09442 -1.062577,0.490214 -1.525261,0.879537 l -0.841243,0.70786 0.140294,0.86453 c 0.29753,1.833468 1.765992,4.265999 1.76599,2.925399 z m -8.288529,-3.699691 c 0.411347,-0.335975 1.200777,-0.871511 1.754288,-1.190078 l 1.006384,-0.579214 0.76466,0.39542 0.764659,0.395421 1.194008,-0.726697 c 0.656705,-0.399683 1.260938,-0.891044 1.342741,-1.091913 L 95.211633,93.926861 94.536944,92.77559 C 93.800632,91.519169 93.203173,91.08542 92.208856,91.08542 H 91.5624 l -0.292156,0.352026 -0.292155,0.352026 -1.269634,-0.260081 -1.269633,-0.260082 -0.986151,0.185004 -0.986152,0.185003 -0.439919,0.671401 -0.439919,0.671401 -0.117664,2.032586 -0.117665,2.032585 0.758023,0.29821 c 1.113831,0.438187 1.304574,0.415195 2.126786,-0.25636 z"
       id="path1" /></g></svg>
