<svg xmlns="http://www.w3.org/2000/svg" xml:space="preserve" width="487.299" height="477.584" viewBox="0 0 128.931 126.361"><path d="M106.544 210.407c-7.095-.943-12.801-7.433-12.665-14.594-2.427 2.284-4.847 4.614-7.696 6.372-1.544-.735-3.141 3.47-4.42.591-1.38-5.415-3.913 0-6.997-.04-2.46-.25-3.326 4.291-6.125 1.047-2.177-1.9-3.534 2.977-6.512 2.019-5.325 1.605-10.833 2.77-16.416 2.59-1.245-2.636 2.586-6.046 3.364-8.92 2.786-1.96-1.016-3.884.605-5.06 4.213-1.403 5.712-4.387 5.891-7.645 3.318-2.671 6.696-5.269 10.19-7.707.644-3.786.298-6.449-4.23-3.936-3.543.71-6.915 1.803-10.544 1.163-3.316-.688-12.221.203-12.306-3.46 3.202-3.366 12.65-5.009 9.604-9.138 2.368-1.747 5.646-2.629 8.518-3.672-.513-3.665 3.956-3.686 6.435-4.833 4.127-.587 7.896-2.445 11.213-2.344 5.382 2.535 11.067 4.432 16.36 7.094 2.354-.034 7.337-2.818 1.387-2.044-4.554-.524-9.016-1.628-12.559-4.66-6.015-6.04-10.354-14.567-9.629-23.278-.362-10.043 6.819-19.59 16.481-22.32 2.699-.557 5.552-.301 8.312-.538 1.275-1.67 1.745-3.521 1.296-5.583-1.267-5.56-5.278-10.057-9.09-14.149-3.022-2.227.252-4.753 2.268-1.669 6.352 4.913 9.36 12.59 14.604 18.424 2.86 3.276 7.58 2.883 10.84 5.528 3.918 2.658 6.644 6.847 8.693 11.057 2.91-2.342 5.72-4.817 8.628-7.167 4.841 2.945 1.895-4.703 6.3-5.077 9.304-8.213 18.753-16.257 28.242-24.25 3.15.158-1.914 3.707-2.257 4.967-4.91 6.303-9.228 13.033-13.836 19.55l2.185 6.835c-2.925 2.282-6.033 4.945-7.616 8.286-.384 1.224.706 5.517-1.301 4.384-.961-2.37-.61-5.807 1.59-7.642 1.534-4.511-6.761 1.983-8.526 3.225-3.133 2.25-4.382 6.248-6.517 9.341-1.927 2.756-2.106 5.612.91 1.925.893-2.038 8.083-5.457 3.17-1.373-1.53 1.341-10.248 8.616-4.87 6.822 4.268-.85 7.118-3.037 8.406-7.2 1.282-4.32 8.765-6.287 4.04-.955-1.828 3.167-3.448 6.567-2.964 10.3.307 3.693 3.636 6.23 6.093 8.674 4.097 1.868 8.757 3.056 11.605 6.813 5.213 4.766 7.04 12.563 6.304 19.397-1.003 8.25-6.247 16.024-14.05 19.17-3.94 1.93-8.502 2.703-12.858 2.842-4.365-.165-8.703-1.056-12.7-2.836-.483 3.886-1.89 7.782-5.126 10.208-2.98 2.782-7.705 4.113-11.724 3.466m-51.883-3.985c2.507-.785 1.356-1.65 4.169-.996 3.901-.062 3.934-1.798 3.903-4.894.972-2.841.816-6.36-2.188-2.528-1.937.45-4.311 7.557-4.38 4.066.855-2.873-8.794 5.143-7.733 4.888 2.081-.111 4.176-.154 6.23-.536m-2.796-3.712c1.82-1.195 10.386-6.119 3.652-4.116-3.23-.474-8.84 4.956-7.203 6.523 1.179-.809 2.366-1.607 3.55-2.407m14.868-1.605c3.121 2.296 5.063 1.75 7.111-.826 1.506 2.27 6.528-.923 5.438-3.577.635-4.158 2.474 5.529 2.964-.25 1.405-4.521 5.75-12.527 5.238-14.992-2.907 4.057-4.606 9.328-7.987 12.853-3.563-.439-.872 4.56-4.06 5.252-2.523-2.184.228-1.779.715-2.873-1.258-3.849 1.953-3.282 3.74-4.681 2.035-3.792 6.073-9.909 7.042-11.835-3.691 2.946-8.351 4.16-12.003 7.185-4.887 1.434-1.583 6.396-3.79 10.888-1.523 4.841-6.07-1.222-2.916-4.08 1.463-3.478-5.573-.2-3.982 2.485.72 2.06-1.593 4.218-.103 5.909 1.178 2.976 1.185-2.016 2.593-1.458m17.194-.019c1.415-4.016 3.225 1.077 4.826-2.36 1.456-2.396 6.319-3.56 5.02-6.622-1.752-4.677-.803-11.926-2.663-15.206-3.654 4.42-1.776 10.517-1.66 15.708-1.371 1.353.025 5.032-1.584 4.81-1.22-2.204 1.296-4.945.304-7.4-.29-1.87-.196-6.469-1.405-2.162-1.034 4.075-4.281 8.558-4.384 12.329.426.459.917 1.747 1.546.903m34.556-1.39c.894-1.683 1.246-4.334.338-5.905-3.292-2.917-2.81 3.529-3.078 5.3-.706 2.156 2.296 3.05 2.74.606m-65.594-1.353c1.922-.632 12.37-2.682 8.63-3.993-3.133.677-11.384 1.04-9.856 4.482zm17.425-1.676c1.394-2.367.6-9.149-.78-3.667-1.216 2.353-.773 9.843.78 3.667m32.38.75c2.816-.965 1.405-5.251-1.297-4.467-1.663.8-2.579 3.181-.792 4.37.428.807 1.493.182 2.089.097m-49.56-2.36c3.504-1.133 7.178-1.532 10.777-1.757 1.516-.713 5.5-2.167 1.595-2.204-4.155.439-8.844-.596-12.205 2.437-1 .379-3.299 2.599-.166 1.524m42.068-4.076c-.355-3.965 5.11-5.018 4.82-8.03-.503-2.441-1.454-7.028-2.316-1.643.01 2.15-4.191 9.577-2.504 9.673m-30.598-.724c3.356 1.703 11.108-3.468 3.998-2.81-3.213 1.208-12.565-3.041-12.03 2.414.224 1.83 6.506-.367 8.032.396m35.479-18.474c1.379-2.895 5.722-11.453.33-5.237-1.75 2.987-7.798 6.618-7.427 9.269.603 3.974.499 8.219 1.242 12.24 1.874-5.455 3.27-11.09 5.855-16.272M74.75 186.015c3.12-2.369-4.853-2.095-7.127-2.352-3.04.386-6.776-.688-8.751 2.408 4.838-.028 9.661.411 14.476.794zm35.31-4.376c.139-6.848-2.971 1.892-.408 2.844 1.612.47.202-2.05.408-2.844m-31.44 1.654c3.026-2.037-5.252-3.958-8.015-3.816-2.928-.324-5.357 1.006-7.421 3.026.223.85 3.944-.004 5.49.202 2.824.05 5.648.406 8.294 1.427l.549-.265zm77.624.192c1.534-.549 1.688-5.637 2.928-3.408 2.388 1.485 1.672-4.068 1.756-6.17.13-2.676-1.274-5.797-3.609-7.018-3.368-.924-4.245 2.424-2.743 5.027.986 3.473.229 7.074-.645 10.486.424.722 1.351 2.353 2.313 1.083m-52.317-.57c3.067.382 4.05-2.33 2.47-4.775-.637-3.394-2.725-6.647-2.906-10.048 1.613-1.835 2.781 7.584 4.195 9.772 2.566 3.039.242-6.636-.367-8.53-.663-2.588-1.356-9.615-3.445-3.03-.803 3.939-5.409 7.846-3.837 11.868 1.546 1.991-.116 7.029 3.89 4.742m-17.462-5.12c2.626-2.063 6.314-5.576.865-4.316-3.826.357-7.867.366-11.556 1.244-3.133 2.003-5.99 4.456-.482 4.413 4.582 1.732 7.618 4.042 11.173-1.341m45.974.329c3.61-2.264 1.798-7.94-2.119-8.457-3.496-.704-7.054 3.474-5.11 6.624 1.212 2.436 4.344 3.217 6.7 2.258l.282-.227zm-61.711-.924c3.687-1.45 3.24-3.736.112-1.98-2.009.941-2.2 3.622-2.12 1.342.902-5.23 7.474-2.986 11.665-4.257 4.054-.622 8.374-.193 12.33-.88 5.033-2.523-9.808-4.634-5.217-5.44 3.08.521 6.641 3.724 9.351 1.629-.624-2.06-6.583-2.253-9.371-3.257-2.27-.11-3.895 3.397-6.69 2.4-1.659.752-3.246 6.505-4.186 3.886 2.32-3.848-.896-2.445-3.573-.387-3.687 1.214-7.243 3.286-5.174 7.932.53.738 2.301-.8 2.873-.988m74.23-.133c3.212-1.412.049-7.304-1.905-3.253-.48 1.373-.187 3.997 1.905 3.253m-95.24-2.226c4.396 1.775 7.487-1.38 10.366-4.317 1.697-1.492 7.074-5.953 1.532-3.434-5.161 3.625-11.362 5.098-17.082 7.56 2.085-.055 4.13.592 5.184.191m13.47-1.367c5.596-2.132 11.036-5.171 14.575-10.153-4.45.559-6.785 5.78-10.829 7.14-.772-2.988 10.48-7.148 3.2-6.35-4.532 2.896-8.597 6.702-12.238 10.501 1.773-.33 3.552-.65 5.291-1.138m-19.293-.109c3.064-1.214 11.73-3.28 10.609-4.309-2.771.48-5.584.944-7.994 2.476-1.756-.786-6.58 1.157-5.548 2.127.993.474 1.992-.045 2.933-.294m4.389-3.954c2.514-1.268 11.66-1.283 4.127-2.92-1.13 1.033-.76-.958-3.203 1.16-2.407.898-5.863 3.507-.924 1.76M111 164.044c1.334-2.355-1.599-.466-3.398-.69.583 1.14 1.433 9.078 2.239 4.843.41-1.378.83-2.753 1.159-4.153m30.136 3.568c2.552-4.554-4.074-1.602 0 0m-80.86-1.463c2.257-1.957 11.153-2.087 3.77-3.07-2.881-.705-6.002.162-8.793-.64 1.353-2.116-9.666 2.194-2.726 2.557 2.462.5 5.47 3.346 7.749 1.153m40.31-1.425c4.657-2.206-2.67-2.38-4.486-3.268-2.892-1.872-10.49 3.202-3.148 3.184 2.677.396 5.438 2.798 7.633.084m-18.75.142c2.247-.104 3.544-2.534 5.723-2.343-2.027-.916-5.926-.532-7.925.914-3.444 3.443-1.762 2.67 2.201 1.429m-9.654-2.602c.895-1.073-8.191-2.998-10.959-3.56-2.892-2.778-4.063 3.004-1.273 2.593 4.08.314 8.12 1.398 12.232.967m5.903-.927c3.664-.38 6.352-.285 1.618-1.91-1.807-1.331-7.012-1.257-6.67-2.196-5.843-1.559 3.037-1.357 4.764.317 2.589.809 9.9 3.539 10.205 2.48-4.91-1.565-9.68-3.734-14.462-5.474-4.04.14-8.257.72-11.953 2.319 4.69 1.27 9.577 2.267 13.638 5.087.955-.198 1.908-.412 2.86-.623m26.398.111c2.68-2.084-4.134-2.042-5.65-1.448-4.732.258 4.492 2.881 5.65 1.448m3.857-.14c2.49-.4 10.107-5.59 3.077-3.74-1.796.391-10.271.149-5.208 2.002.846 1.362-.072 2.95 2.131 1.738m7.992-7.022c.648-2.864 2.733-5.462.05-2.686-1.415 1.896.718.465-.531 1.927-.855-1.6-.783.17-3.836 1.112-4.015.56 5.13 2.208 4.317-.353m5.17-2.091c1.887-2.816 1.732-3.612.951-4.214 3.1-1.388.963-2.282-.476-.073-1.736 1.64-6.05 8.815-1.319 5.362.43-.188.54-.749.844-1.075m16.275-.066c.49-1.666.713-8.945-.464-7.069-.73-.99 1.67-1.418-.068-2.425.991-2.449.223-2.59.025-3.691-.396-.773-.919 9.016-.863 12.493-.942 1.434 1.066 1.908 1.37.692m-6.721-.992c1.91-2.233 3.851-3.485 3.432-6.62.4-3.187 1.329-6.209-2.628-3.448-5.03.163-8.41 7.996-7.354 10.718 2.137-.305 4.644.398 6.55-.65m-5.362-9.208c.342-1.524-.043-.961.937-3.152 1.04-6.368 1.316-12.896 1.405-19.347 3.512.869.252 7.82 1.036 10.918-1.224 5.604 2.248-.665 2.156-2.91-.18-3.122.287-6.479-.278-9.46-.118-2.173 2.835-.67 1.69 1.5.165 2.605-.66 11.142 1.216 4.798-.219-2.647 2.726-8.27-1.106-8.806-2.921 1.72-7.936 4.585-8.382 7.752 1.563 6.618 1.17 13.628-1.385 19.944.925-.36 1.895-.651 2.711-1.237m12.398-5.207c1.34-3.85-.283 2.746 1.135-.966 1.052-.37-.29-1.762 1.2-2.602-.4-.032 4.11-5.943-.257-1.781-.91 1.338-3.783 8.251-2.114 5.49zm-43.705-3.244c2.98-1.857 2.376-6.481-.824-7.8-2.882-1.183-6.823 1.728-6.063 4.932.47 2.886 4.405 4.889 6.887 2.868m22.798-10.926c1.565-1.623 5.872 2.489 3.252-2.526-1.305-2.752-5.441-4.407-7.51-1.64.413 1.735 1.515 6.815 4.083 4.304zm25.846-4.081c2.312-1.383 4.261.376 6.435-2.58-1.521-2.825 3.476 1.346.536-3.435-3.344-6.283 5.61-11.225 7.814-16.862 1.102-1.491 4.196-5.542.386-2.294-3.604 3.58-10.32 6.918-12.095 10.894.281 3.12-6.126 10.435-5.456 11.722 1.781-2.825 7.378-2.898 2.114-.08-2.933 1.252-8.16 9.282-2.506 4.413a99 99 0 0 1 2.772-1.778m-4.893-.597c1.61-4.246 6.675-10.207 6.549-13.207-2.601 2.602-6.15 4.604-7.922 7.812-.121 3.086-2.589 13.926 1.373 5.395m-38.02-12.168c-.084-8.196-5.951-14.746-11.685-19.929-4.724-3.317-.163 2.351 1.363 3.36C92.41 91.11 96.11 98.73 96.41 98.1c-.521-3.406-6.122-6.768-5.24-9.41-.613.916 3.299 3.476 3.968 5.504 1.644 2.97 3.035 6.217 3.188 9.879-.837 2.795 2.504 6.051 1.792 1.633" style="fill:#000" transform="translate(-38.683 -84.207)"/></svg>