<?xml version="1.0" encoding="UTF-8" standalone="no"?>
<!-- Created with Inkscape (http://www.inkscape.org/) -->

<svg
   width="128.9313mm"
   height="126.36089mm"
   viewBox="0 0 128.9313 126.36089"
   version="1.1"
   id="svg1"
   xml:space="preserve"
   xmlns="http://www.w3.org/2000/svg"
   xmlns:svg="http://www.w3.org/2000/svg"><defs
     id="defs1" /><g
     id="layer1"
     transform="translate(-38.682595,-84.207143)"><path
       style="fill:#000000"
       d="m 106.54445,210.40687 c -7.095845,-0.94265 -12.801644,-7.43325 -12.665594,-14.59418 -2.426438,2.2842 -4.846536,4.61405 -7.695416,6.37248 -1.544261,-0.7348 -3.141883,3.47044 -4.420849,0.59088 -1.379058,-5.41496 -3.912647,4.7e-4 -6.996551,-0.0394 -2.45955,-0.25125 -3.326006,4.29038 -6.1253,1.0459 -2.177039,-1.89907 -3.534129,2.97793 -6.511882,2.0191 -5.324886,1.60571 -10.832963,2.77045 -16.415523,2.58951 -1.245111,-2.63524 2.585595,-6.04561 3.363333,-8.91973 2.786468,-1.95864 -1.015558,-3.88359 0.605414,-5.0595 4.212867,-1.40259 5.712146,-4.38707 5.890876,-7.6447 3.317733,-2.67138 6.695593,-5.26909 10.189337,-7.70701 0.644736,-3.78628 0.299107,-6.44921 -4.230087,-3.9359 -3.541756,0.71023 -6.914658,1.80223 -10.543506,1.16317 -3.315873,-0.68849 -12.22101,0.20263 -12.306106,-3.45984 3.202264,-3.36623 12.650775,-5.00934 9.604844,-9.13893 2.367524,-1.74703 5.64577,-2.62842 8.517381,-3.67189 -0.512777,-3.66438 3.956036,-3.68558 6.435363,-4.83267 4.126986,-0.58762 7.895957,-2.4447 11.213051,-2.3438 5.381541,2.53503 11.066842,4.43205 16.360204,7.09361 2.354049,-0.0343 7.336174,-2.8181 1.386161,-2.04403 -4.553848,-0.52432 -9.015927,-1.62831 -12.558494,-4.66076 -6.014611,-6.03857 -10.353626,-14.56634 -9.628618,-23.27721 -0.362559,-10.04279 6.818451,-19.59023 16.480537,-22.31964 2.698632,-0.55707 5.55202,-0.30161 8.31159,-0.53873 1.27531,-1.66877 1.74588,-3.52081 1.296813,-5.58229 -1.267897,-5.559947 -5.27864,-10.057049 -9.09007,-14.149134 -3.022214,-2.227422 0.251949,-4.753503 2.267801,-1.669117 6.351694,4.912626 9.360464,12.590319 14.604161,18.423481 2.86009,3.27608 7.57912,2.88336 10.83934,5.52832 3.91819,2.6579 6.64431,6.84675 8.69345,11.05759 2.91008,-2.34236 5.71895,-4.81774 8.6278,-7.1676 4.84156,2.94473 1.89536,-4.70315 6.30008,-5.07661 9.30356,-8.21338 18.75277,-16.257494 28.24213,-24.251097 3.15003,0.159243 -1.914,3.707925 -2.25742,4.968168 -4.90911,6.302341 -9.22741,13.032339 -13.83544,19.550559 0.72826,2.27801 1.45652,4.55601 2.18479,6.83402 -2.92522,2.28237 -6.03269,4.94501 -7.61584,8.28615 -0.38376,1.22412 0.70565,5.51694 -1.30164,4.38409 -0.96094,-2.36988 -0.60989,-5.80715 1.59005,-7.64207 1.53466,-4.51118 -6.76068,1.9825 -8.52581,3.22535 -3.13232,2.24992 -4.38189,6.2474 -6.51635,9.34082 -1.92701,2.75585 -2.10674,5.61215 0.90936,1.92465 0.89274,-2.03748 8.08275,-5.45721 3.17038,-1.37301 -1.53101,1.34119 -10.24792,8.61657 -4.86991,6.8218 4.26736,-0.84878 7.11801,-3.03637 8.40576,-7.1994 1.28203,-4.31993 8.76466,-6.28749 4.04034,-0.95521 -1.82816,3.16738 -3.44838,6.56739 -2.9647,10.30028 0.30773,3.69236 3.63581,6.23006 6.09364,8.67399 4.09669,1.86787 8.75688,3.05574 11.60513,6.81293 5.21209,4.76622 7.03882,12.56242 6.30365,19.39632 -1.00266,8.25071 -6.24688,16.02423 -14.04922,19.17007 -3.94038,1.93038 -8.50338,2.70356 -12.85857,2.84244 -4.36495,-0.16522 -8.70308,-1.05641 -12.70068,-2.83643 -0.48298,3.8868 -1.88956,7.7823 -5.12539,10.20843 -2.98085,2.78168 -7.70485,4.11292 -11.7238,3.46579 z m -51.883297,-3.98456 c 2.507179,-0.78485 1.355576,-1.6495 4.168843,-0.99635 3.901432,-0.0618 3.934442,-1.79832 3.902879,-4.89438 0.972462,-2.84061 0.815792,-6.36033 -2.18773,-2.52719 -1.937608,0.45021 -4.311525,7.55659 -4.38021,4.06565 0.854772,-2.87285 -8.793689,5.14267 -7.732457,4.88759 2.080574,-0.11071 4.175096,-0.15346 6.228675,-0.53532 z m -2.796236,-3.71256 c 1.820862,-1.19491 10.385984,-6.11873 3.651921,-4.11575 -3.229974,-0.47383 -8.839896,4.95609 -7.20323,6.52322 1.17925,-0.80913 2.366137,-1.60706 3.551309,-2.40747 z m 14.868433,-1.6049 c 3.121049,2.29655 5.062527,1.74965 7.110946,-0.82609 1.505596,2.26953 6.527214,-0.92265 5.438135,-3.57627 0.634903,-4.15874 2.473857,5.5281 2.963751,-0.2504 1.404459,-4.52147 5.74925,-12.52741 5.238299,-14.99206 -2.907364,4.05685 -4.6061,9.32765 -7.987543,12.85274 -3.563027,-0.43831 -0.871866,4.56088 -4.060406,5.25181 -2.522116,-2.18397 0.228008,-1.77859 0.715242,-2.87218 -1.257975,-3.84898 1.953265,-3.28228 3.739522,-4.68185 2.035862,-3.79115 6.073216,-9.90812 7.042245,-11.83492 -3.690554,2.94635 -8.350912,4.16118 -12.002167,7.18523 -4.887553,1.43388 -1.583464,6.39577 -3.790234,10.88823 -1.523477,4.84126 -6.070498,-1.22165 -2.916539,-4.07995 1.46305,-3.47859 -5.572467,-0.20105 -3.981837,2.48502 0.719585,2.0597 -1.593097,4.21736 -0.102699,5.90889 1.17798,2.97588 1.185198,-2.01618 2.593285,-1.4582 z m 17.194005,-0.0189 c 1.414735,-4.01589 3.224868,1.07751 4.825623,-2.35945 1.455682,-2.39632 6.318981,-3.56137 5.020293,-6.62282 -1.752507,-4.67705 -0.802809,-11.92548 -2.663227,-15.20575 -3.654287,4.42065 -1.775555,10.51733 -1.660229,15.70818 -1.371164,1.3527 0.02544,5.03154 -1.583379,4.80899 -1.220761,-2.20265 1.295095,-4.94414 0.303373,-7.39966 -0.289807,-1.86916 -0.195902,-6.46848 -1.404708,-2.16108 -1.033943,4.07446 -4.281121,8.558 -4.383674,12.32857 0.425509,0.45875 0.916781,1.7467 1.545928,0.90302 z m 34.555545,-1.38906 c 0.89408,-1.68402 1.24605,-4.33522 0.33851,-5.90551 -3.29197,-2.91775 -2.81079,3.52812 -3.0782,5.29927 -0.70635,2.15619 2.29556,3.05119 2.73969,0.60624 z m -65.593929,-1.35404 c 1.921534,-0.63216 12.369754,-2.68195 8.630447,-3.99264 -3.133231,0.67637 -11.384833,1.04048 -9.856012,4.48178 z m 17.424796,-1.67602 c 1.394178,-2.36664 0.599838,-9.14882 -0.77964,-3.66722 -1.216047,2.3529 -0.773542,9.8429 0.77964,3.66722 z m 32.379883,0.75014 c 2.81644,-0.96508 1.40496,-5.25121 -1.29675,-4.46695 -1.66333,0.80016 -2.578609,3.18143 -0.79148,4.36914 0.42783,0.80816 1.49251,0.18263 2.08823,0.0978 z m -49.558878,-2.3601 c 3.503092,-1.13312 7.177349,-1.5321 10.776469,-1.75661 1.515687,-0.7132 5.500339,-2.16707 1.595175,-2.20417 -4.155256,0.43892 -8.844773,-0.59655 -12.205905,2.4371 -0.999538,0.37842 -3.298538,2.59834 -0.165739,1.52368 z m 42.067001,-4.07541 c -0.354616,-3.96546 5.109947,-5.01816 4.820767,-8.02963 -0.503427,-2.44224 -1.454742,-7.02874 -2.316861,-1.64348 0.01064,2.15045 -4.191058,9.57701 -2.503906,9.67311 z M 64.60351,190.25665 c 3.356924,1.70376 11.108415,-3.46809 3.998837,-2.81007 -3.212981,1.2081 -12.565514,-3.04107 -12.029739,2.41402 0.223247,1.83041 6.505515,-0.36628 8.030902,0.39605 z m 35.47935,-18.47332 c 1.37889,-2.89493 5.72237,-11.45314 0.32957,-5.23707 -1.749142,2.98657 -7.797095,6.61816 -7.426585,9.26873 0.603145,3.97444 0.498966,8.21874 1.241868,12.24022 1.874532,-5.45499 3.269994,-11.09031 5.855147,-16.27188 z m -25.333007,14.2316 c 3.120282,-2.3686 -4.852763,-2.09509 -7.12682,-2.35156 -3.040774,0.38556 -6.776351,-0.68799 -8.751189,2.40746 4.838325,-0.0278 9.661339,0.41134 14.476088,0.79392 0.467307,-0.28327 0.934614,-0.56655 1.401921,-0.84982 z m 35.310517,-4.37587 c 0.13815,-6.84785 -2.97184,1.89156 -0.40875,2.84427 1.61213,0.47052 0.20207,-2.04951 0.40875,-2.84427 z m -31.439638,1.65365 c 3.024787,-2.03685 -5.252301,-3.95772 -8.016086,-3.81591 -2.928104,-0.32392 -5.357063,1.00669 -7.420664,3.02602 0.223424,0.8509 3.944068,-0.004 5.489569,0.20248 2.824314,0.0489 5.648733,0.40615 8.294164,1.42695 l 0.5493,-0.26544 1.103717,-0.57404 z m 77.623148,0.19255 c 1.53408,-0.54876 1.68813,-5.63755 2.92828,-3.40776 2.38789,1.48431 1.67174,-4.06829 1.75585,-6.17083 0.13005,-2.67526 -1.27442,-5.79636 -3.6087,-7.01813 -3.36788,-0.92351 -4.2453,2.42476 -2.74343,5.02708 0.98645,3.47342 0.22895,7.0745 -0.64494,10.4867 0.42389,0.72169 1.35155,2.35227 2.31294,1.08294 z m -52.31715,-0.57112 c 3.06713,0.38278 4.05042,-2.32919 2.47092,-4.77434 -0.63808,-3.39355 -2.72588,-6.64681 -2.90625,-10.04743 1.61258,-1.83554 2.78088,7.58361 4.19476,9.77168 2.56602,3.03855 0.24136,-6.63601 -0.36695,-8.52948 -0.66304,-2.58868 -1.35622,-9.61585 -3.44489,-3.03053 -0.80328,3.93897 -5.409257,7.8456 -3.83772,11.86772 1.54632,1.99128 -0.115314,7.02907 3.89013,4.74238 z m -17.461748,-5.11958 c 2.625567,-2.06267 6.314049,-5.57507 0.865437,-4.31527 -3.826555,0.35639 -7.867573,0.36595 -11.55683,1.24362 -3.132122,2.00303 -5.989494,4.45593 -0.481264,4.41294 4.581898,1.73253 7.618029,4.04186 11.172657,-1.34129 z m 45.974068,0.32902 c 3.61047,-2.26325 1.79806,-7.93935 -2.11897,-8.45691 -3.49578,-0.70381 -7.05402,3.47422 -5.11043,6.62428 1.21217,2.43579 4.34393,3.21745 6.69952,2.25767 l 0.28249,-0.22659 z m -61.711234,-0.92311 c 3.687519,-1.44989 3.240086,-3.7362 0.112268,-1.97979 -2.008703,0.94039 -2.200163,3.62114 -2.120814,1.34182 0.902491,-5.23139 7.47481,-2.98693 11.665837,-4.2574 4.053629,-0.6226 8.374298,-0.19264 12.329064,-0.88057 5.034279,-2.52224 -9.80688,-4.63326 -5.215748,-5.43872 3.078833,0.52023 6.640688,3.72346 9.350894,1.62801 -0.624582,-2.06037 -6.583129,-2.25254 -9.371318,-3.25648 -2.270899,-0.11079 -3.895237,3.39645 -6.690346,2.39891 -1.658523,0.75306 -3.245257,6.50593 -4.185341,3.8872 2.318978,-3.8486 -0.895832,-2.44514 -3.573801,-0.38775 -3.686301,1.21477 -7.242089,3.2866 -5.173695,7.93186 0.529988,0.73795 2.301641,-0.8005 2.873,-0.98709 z m 74.230274,-0.13331 c 3.21144,-1.41249 0.0486,-7.30381 -1.90549,-3.25359 -0.47902,1.373 -0.18699,3.99741 1.90549,3.25359 z m -95.240505,-2.2262 c 4.396341,1.77554 7.487031,-1.37995 10.366528,-4.31691 1.696717,-1.49155 7.073421,-5.95328 1.531402,-3.43439 -5.160825,3.62549 -11.3613,5.09882 -17.081448,7.56092 2.084775,-0.0558 4.130506,0.59134 5.183518,0.19038 z m 13.469606,-1.36684 c 5.596677,-2.13222 11.03653,-5.17109 14.576002,-10.15351 -4.449731,0.55901 -6.785052,5.77946 -10.828796,7.13978 -0.772179,-2.98728 10.47899,-7.14747 3.199856,-6.35008 -4.531802,2.89703 -8.597453,6.7025 -12.238728,10.5017 1.773887,-0.33041 3.552883,-0.6491 5.291666,-1.13789 z m -19.292134,-0.10899 c 3.064264,-1.21418 11.729768,-3.28072 10.608971,-4.30873 -2.771255,0.48045 -5.583638,0.94348 -7.994013,2.47553 -1.755602,-0.78587 -6.580269,1.15676 -5.547822,2.1274 0.992735,0.47323 1.991589,-0.045 2.932864,-0.2942 z m 4.388701,-3.95427 c 2.514324,-1.26768 11.66097,-1.28259 4.127248,-2.91919 -1.130665,1.03249 -0.759762,-0.9584 -3.202711,1.15929 -2.406886,0.8981 -5.863372,3.50717 -0.924537,1.7599 z m 62.717272,-5.36659 c 1.33351,-2.3556 -1.59897,-0.46585 -3.39765,-0.69011 0.58306,1.13919 1.43235,9.07741 2.23845,4.84242 0.41068,-1.37713 0.82996,-2.75274 1.1592,-4.15231 z m 30.13643,3.56782 c 2.55106,-4.55389 -4.07401,-1.60248 0,0 z m -80.860685,-1.46288 c 2.256885,-1.95716 11.153268,-2.08702 3.77077,-3.06987 -2.881895,-0.7054 -6.002503,0.16186 -8.793262,-0.63996 1.353005,-2.11655 -9.665812,2.19375 -2.726499,2.55632 2.46177,0.49943 5.470038,3.34622 7.748991,1.15351 z m 40.309435,-1.42481 c 4.65804,-2.20601 -2.669883,-2.38081 -4.484715,-3.26848 -2.892656,-1.87187 -10.490623,3.20231 -3.14868,3.18451 2.677557,0.39554 5.4382,2.79784 7.633395,0.084 z m -18.750152,0.14121 c 2.247545,-0.10359 3.544565,-2.53339 5.724029,-2.34269 -2.027446,-0.91551 -5.926302,-0.53165 -7.924734,0.91363 -3.444653,3.44326 -1.762726,2.66954 2.200705,1.42906 z m -9.653034,-2.60146 c 0.894489,-1.07308 -8.190985,-2.99778 -10.958806,-3.55991 -2.892517,-2.77779 -4.06343,3.0033 -1.273376,2.5932 4.080109,0.31319 8.120359,1.39786 12.232182,0.96671 z m 5.903397,-0.92727 c 3.663211,-0.37897 6.351924,-0.2845 1.617836,-1.90995 -1.807715,-1.33093 -7.011883,-1.25649 -6.670869,-2.1957 -5.842666,-1.5589 3.037743,-1.35738 4.764883,0.31637 2.588255,0.80892 9.90052,3.53943 10.204539,2.47996 -4.909546,-1.56423 -9.679014,-3.73369 -14.462045,-5.47391 -4.040277,0.14119 -8.256453,0.72111 -11.95309,2.31925 4.69103,1.26938 9.577648,2.26689 13.638056,5.0874 0.955692,-0.19789 1.907877,-0.41252 2.86069,-0.62342 z m 26.397529,0.11142 c 2.68073,-2.08445 -4.13399,-2.0423 -5.64949,-1.44875 -4.732658,0.25887 4.49186,2.88177 5.64949,1.44875 z m 3.85752,-0.14058 c 2.48953,-0.39967 10.10654,-5.59057 3.0767,-3.74063 -1.79619,0.39202 -10.27112,0.14963 -5.20821,2.00297 0.84578,1.36162 -0.0715,2.95022 2.13151,1.73766 z m 7.99169,-7.02217 c 0.64745,-2.86313 2.73327,-5.46142 0.0503,-2.68508 -1.41507,1.89527 0.71714,0.46446 -0.53153,1.92661 -0.85516,-1.60102 -0.78326,0.17007 -3.83619,1.11205 -4.01428,0.55947 5.13048,2.20823 4.31742,-0.35358 z m 5.16946,-2.09077 c 1.88708,-2.81624 1.73207,-3.61177 0.95134,-4.21386 3.09996,-1.38833 0.96278,-2.28213 -0.47621,-0.0725 -1.73534,1.6396 -6.05006,8.81437 -1.3187,5.36167 0.43009,-0.1879 0.5395,-0.74906 0.84357,-1.07535 z m 16.27548,-0.0661 c 0.48912,-1.66541 0.71304,-8.9447 -0.46363,-7.06824 -0.73119,-0.99073 1.67007,-1.41874 -0.0687,-2.4254 0.99163,-2.44875 0.22288,-2.58922 0.0249,-3.69131 -0.39601,-0.7723 -0.91828,9.01612 -0.86224,12.49336 -0.94268,1.43405 1.06537,1.90806 1.36974,0.69159 z m -6.72139,-0.99134 c 1.9103,-2.23341 3.85152,-3.48539 3.43231,-6.62057 0.39975,-3.18685 1.32893,-6.20868 -2.62848,-3.44729 -5.02964,0.16281 -8.41012,7.99573 -7.35347,10.71737 2.13721,-0.30501 4.64355,0.39788 6.54964,-0.64951 z m -5.36171,-9.20839 c 0.34238,-1.52355 -0.0431,-0.96139 0.93714,-3.15237 1.03902,-6.3671 1.31588,-12.89542 1.40463,-19.34697 3.51256,0.86912 0.2527,7.82086 1.0358,10.91863 -1.22329,5.60389 2.24839,-0.66528 2.15664,-2.91059 -0.18057,-3.12119 0.28705,-6.47817 -0.27777,-9.45959 -0.11816,-2.17268 2.83457,-0.67045 1.6888,1.50017 0.16584,2.60486 -0.65883,11.14217 1.21709,4.79788 -0.21913,-2.64751 2.72592,-8.2692 -1.106,-8.8059 -2.92136,1.71926 -7.93603,4.58507 -8.38281,7.75166 1.56322,6.61784 1.1703,13.62766 -1.3849,19.94373 0.92514,-0.35917 1.89514,-0.6511 2.71138,-1.23665 z m 12.398,-5.20739 c 1.33997,-3.84922 -0.28322,2.74603 1.13451,-0.96584 1.05288,-0.36879 -0.28947,-1.76217 1.2014,-2.60143 -0.40036,-0.0327 4.10999,-5.94361 -0.25795,-1.78149 -0.91012,1.33865 -3.78281,8.2512 -2.11363,5.49045 z m -43.705454,-3.24341 c 2.979974,-1.85671 2.376162,-6.48157 -0.824008,-7.80003 -2.881325,-1.18321 -6.822588,1.72748 -6.062579,4.93187 0.46973,2.88577 4.404811,4.88886 6.886587,2.86816 z m 22.798744,-10.92638 c 1.56455,-1.62266 5.87191,2.48925 3.25145,-2.52599 -1.30513,-2.7513 -5.44087,-4.40711 -7.50888,-1.64051 0.41214,1.73562 1.51458,6.81527 4.08251,4.30516 z m 25.84618,-4.08097 c 2.3116,-1.38299 4.26083,0.37601 6.43475,-2.58067 -1.52142,-2.82376 3.47555,1.34709 0.53546,-3.43422 -3.34414,-6.28266 5.61078,-11.22453 7.81428,-16.862241 1.10205,-1.490634 4.19642,-5.542002 0.38601,-2.294065 -3.60385,3.579845 -10.31983,6.918856 -12.09518,10.894236 0.28118,3.12105 -6.12551,10.43501 -5.45598,11.72246 1.78126,-2.82553 7.37776,-2.89824 2.11407,-0.08 -2.93285,1.25213 -8.15955,9.282 -2.50606,4.41286 0.91628,-0.60499 1.83659,-1.20431 2.77265,-1.77841 z m -4.89355,-0.5963 c 1.60971,-4.24642 6.67529,-10.20754 6.54859,-13.20712 -2.60047,2.60114 -6.14971,4.60411 -7.92113,7.81152 -0.12163,3.08608 -2.58911,13.92648 1.37254,5.3956 z m -38.01985,-12.1681 c -0.0837,-8.196025 -5.951414,-14.746567 -11.684706,-19.929326 -4.724106,-3.317047 -0.163609,2.351046 1.362474,3.360858 2.612772,1.971091 6.312799,9.592352 6.614122,8.962408 -0.521147,-3.406577 -6.122318,-6.768229 -5.23967,-9.409676 -0.613128,0.91506 3.298554,3.474964 3.967637,5.50361 1.643726,2.96987 3.03509,6.216726 3.188035,9.878246 -0.837363,2.79539 2.504308,6.05196 1.792108,1.63388 z"
       id="path1" /></g></svg>
