<svg xmlns="http://www.w3.org/2000/svg" xml:space="preserve" width="297.361" height="555.381" viewBox="0 0 78.677 146.945"><path d="M40.732.014c-.303.031-.57.194-.64.586.362.054.606.064.841.072-.088.066-.106.275.064.792 1.26.61.553-.539.123-.776 1.351-.001.374-.753-.388-.674m-4.537.36C32.436.382 27.752 1.654 24.613 2.9c-.85 4.223-.348-.507-1.8-.263-1.806.239-4.956-.842-4.048 2.061.451 1.621-.927 4.852.728 5.414 5.52-.307 11.236-.752 16.579-1.419 5.224.33 10.74-1.702 16.315-1.395 2.306.54 4.296.166 5.502-.923-.019-.313.088-.78.26-.263 1.067-1.18 1.34-3.04.336-5.411-4.03-.018-10.88-1.4-12.926 2.9.12-1.635.81-3.4-2.458-2.987-.622 1.956-1.692 3.828-3.547.224-.956-.327-2.106-.466-3.359-.463m21.954 5.738q-.123.138-.26.263c.014.23.086.376.299-.157-.014-.054-.026-.065-.04-.106m2.048-1.54c-.025-.094-.054.096-.075.852.208 2.256.152-.573.075-.853m-.722 3.16c-4.837 5.371-8.655 11.652-13.05 17.407-3.165 4.013.803.808 1.315.439 2.356-4.14 8.796.31 13.012 1.022 4.94 2.097 10.15 2.453 14.774 4.163 3.708.396-3.55-6.457-3.84-7.967-4.448-6.252.08 1.95.26 4.802-1.252-1.179-2.812-5.686-3.541-8.283-2.25-4.154-5.661-8.548-8.93-11.584M42.02 8.42c-.132.002-.306.08-.5.302.92.377.897-.309.5-.302m-12.471 5.826c-1.72-.205-5.712 4.986-6.66 6.423-4.882 3.076 4.802-4.273.946-5.936-3.526 2.124-6.402 5.877-8.966 8.473.297-.315 5.235.866 7.535 1.556 4.715-.13 1.834 2.474-.844 2.778.256.622 1.475-.325 1.572-.133 5.335-2.168 12.62-.71 16.8-4.68-.887-.93-5.77-1.328-9.503-.476-1.993-1.695 6.015-3.276 7.885-4.748 3.161-4.234-8.06 1.202-7.998-.914.128-1.607-.194-2.274-.767-2.343m23.233 5.86c.084-.03.21.029.38.266-.507.712-.634-.178-.38-.267m-40.212.913c-.025-.046-.062.045-.112.411.149 1.097.186-.274.112-.411m43.574.264c.055.03.119.106.193.248-.49 1.692-.576-.45-.193-.248m-5.147.229c.079.007.186.095.313.33-.534.354-.551-.352-.313-.33m7.506.482c.174.016.366.239.514.84-1.41.94-1.038-.885-.514-.84m-4.227.269c.056.032.11.107.16.242-1.02 1.44-.553-.466-.16-.242m-44.396.033a3.4 3.4 0 0 0-.803.107C6.515 25.908 2.3 28.968 1.18 33.134c.752 7.006.886 14.134.956 21.21.19 4.18-.87 2.213-1.768.213C.128 65.195-.087 75.843.07 86.482c2.052-.29 2.034 2.71 1.49 5.593C-.237 97.899.8 104.158.536 110.2c.066 5.112-.085 10.917.384 15.625-.738 5.971-.264 12.055-.411 18.076 13.918.863 27.803 2.303 41.73 3.052 1.469-.007 2.931-.203 4.392-.346 5.744-.627.427-.537-2.107-.14-4.602.7-1.062-7.457-2.016-10.276-1.209-3.854 2.195-12.766-2.008-12.783.634-.654 1.061-1.41 1.357-2.232a.4.4 0 0 1 .056-.169c1.07-3.206.144-7.414.659-11.013 1.38 3.384 1.458-1.3.84-2.746-.917-5.113-.348-11.639.06-16.699 1.308 3.015 1.734-2.432.311-2.45.452-.608 1.256-1.124 2.617-.637 3.478-1.783 6.912-1.034 9.12-1.16.622 4.665 2.98-1.919 3.192.256.362 3.712.962-.02.59-.833 1.007-1.313 3.351 1.663 3.477 1.15 1.951.72.045 4.087 2.584 3.083.257-2.787.827-4.7 1.636-.67 3.088.977-.705-3.532-.458-3.98-4.577.397 1.9-1.904 4.35-3.153 2.483-3.424 4.906.99 7.466-2.33.494-9.13.33-18.412.212-27.597-2.209-5.333-9.606 2.302-14.296.688-4.26-.31-9.54 2.959-12.771 2.516-.412 1.11-5.397 1.92-5.961 2.326.251-2.758-1.65 1.765-2.315-.78 1.388-1.23-.75-8.045.034-11.825-.95-3.325.892-9.039.035-12.595a1 1 0 0 1-.042-.15c-.419-1.565-1.39-2.689-3.421-2.95-4.643-.846-10.806.507-16.074.223-1.787-.266-11.971 1.033-7.06-.229 6.64-2.54-2.485.803-4.592.032-4.931-.894 1.867-1.303-1.112-2.45-5.14 1.52 2.403-3.3-.96-1.836-.219-.36-.977-.97-1.722-1.025 1.46-.498 2.74-1.849 1.567-1.876m50.479.298c.058.009.128.047.211.128-.44 1.246-.618-.185-.211-.128m-49.428.122c-.174.035-.069.2.824.566.527-.323-.535-.624-.824-.566m-1.983.024c.094-.036.166.024.16.278-.907.8-.44-.17-.16-.278m52.725.08c.054.008.14.05.269.14.562 1.437-.646-.194-.269-.14m-6.537.46c.03-.023.081-.025.158.007.087.035.207.111.37.242.053 1.1-.738-.097-.528-.25m-47.05 1.176c-.004-.096.22.06.89.843-.245.176-.883-.684-.89-.843m.505 1.525c.099-.008.092.115-.151.487-1.386.747-.145-.462.151-.487m-1.443.49c.063-.028.112.028.109.25-.61.662-.298-.169-.11-.25m-1.059.264c.063-.027.112.029.11.251-.61.661-.298-.17-.11-.25m44.616 2.121c-.642-.03-.87.972-.717 1.97-1.073.517-.741 1.817-.422 2.91.175.13.222.33.141.504.138.49.225.907.07 1.071-1.568 2.227 4.282 2.944.561 5.358 1.738-2.292-1.451-.61-1.519-2.294 1.51-.095.098-.638-.058-3.447a4.4 4.4 0 0 0-.65-.457 6 6 0 0 1-.347-.108 1.3 1.3 0 0 1-.237-.104c-1.373-.092-.355 3.838-2.162 3.142 1.37 1.463 1.121 3.343 2.77 4.947 1.2 2.467-.314 3.513.982 6.862-.287 1.481 2.184-.393.306-.963.019-4.562.416-.533 1.508.589-.106-.279.165-.844.643-.153-.229.233-.386.29-.495.27.324.238.7.223 1.143-.332-2.277-1.158-1.848-4.644 1.339-1.92-.04.252-1.27 2.194.99 1.157 2.428-.416-1.589-1.864 1.488-4.397 1.366 1.557-.332 3.903 3.524.788 3.857-2.04-.606-2.936 2.86-4.174.198 1.28 5.542-5.325 7.337-7.295 6.395-5.09-5.922.402-4.424 1.686 2.65-2.11.683.61-.448.922-.653-.123-1.004 5.042-2.466 3.55-2.113 1.271-4.22-3.762-5.841-2.334-2.91 2.792.794-3.36-1.218-1.288-.203 1.124-1.826 1.735-2.47.128-.602-.513-2.86-3.908-.56-2.57 2.723-1.233.238 2.828 2.77 1.488 1.342-1.098-1.13-3.343-3.648-2.419-1.741-1.463.557-.495.861-1.698-.69-.983-1.225-1.371-1.61-1.389m2.187 6.588c.205.175.22.022-.205-.772a3.4 3.4 0 0 0 .205.772m-1.256-5.793c.068-.034.143.018.203.246-.545.741-.407-.143-.203-.246m8.462 2.242c-.352.014-.514.37-.176 1.377.602.12 1.63.11 2.1-.039-.22-.44-1.337-1.363-1.924-1.338m-9.68.17c.107.029.26.212.47.646-.52 2.03-.933-.767-.47-.645m12.137.716c-.193-.072-.35.296-.274 1.6 1.3.853.698-1.44.274-1.6m-9.584.268c-.066-.036-.176.134-.338.702.337 1.365.535-.595.338-.702m-5.006.313.014.009-.008-.007zm19.869.11c.085-.025.12.065.023.379-.987.801-.278-.305-.023-.38m-27.736.136c.072-.025.218.023.47.216-.24.59-.686-.14-.47-.216m26.95 1.165c.09-.026.124.07.015.4-1.068.84-.288-.323-.016-.4m-16.113.05c.293 1.158 2.225 1.136.772 2.22-.702 1.707-1.42-1.944-.772-2.22m12.107.156c-.175-.033-.136.404.57 1.8.611-.388-.277-1.746-.57-1.8m-2.568.8c-.396.092-.725.794.203 1.834.657-1.406.193-1.926-.203-1.834m-5.966 1.277c.063-.027.112.03.11.252-.61.66-.299-.17-.11-.252m-6.312.27c.068-.034.143.018.203.246-.544.74-.407-.143-.203-.246m8.376.335c.548-.088.764.24-.566 1.782-2.13 1.551.442-.73-.86-1.077-.003-.114.878-.617 1.426-.705m-6.297 1.776c.063-.027.112.03.109.252-.61.66-.298-.17-.11-.252m2.155.535c.068-.034.143.018.203.246-.545.74-.407-.143-.203-.246m8.634.052c.074 0 .14.124.156.477-.681.635-.378-.477-.156-.477m-11.915.695c.052-.04.15.056.309.425-.218 1.052-.467-.304-.31-.425m5.485.555c.084-.03.211.03.38.267-.507.712-.634-.178-.38-.267m5.12.79c.103.131-.423 1.496.022 1.652-1.016 2.539-2.192-1.912-.93-.49.457-.698.701-1.032.821-1.135.045-.039.073-.045.088-.027m-5.2.077c.13.003.255.127.316.476-1.127.608-.702-.482-.315-.476m-3.26.894c.25-.106.671.196 1.074 1.446-1.427.044-1.49-1.27-1.074-1.446m3.394.39c.13.034.228.251.242.762-2.02 2.36-.81-.913-.242-.762m1.638.498c-.056-.04-.221.324-.568 1.451-.089 2.409.735-1.332.568-1.45m-3.472 1.23c.06-.052.137-.008.22.236-.428.94-.4-.08-.22-.236m.89.727c.058.008.129.046.212.127-.44 1.246-.619-.184-.212-.127m-1.422.28c-.174-.021-.382.111-.579.54 1.318.98 1.101-.475.58-.54m-5.309 3.801c-.003.002.007.005.01.007l.018.008c-.011-.01-.023-.02-.028-.015m1.488.63a.2.2 0 0 0-.022.046q.01-.016.014-.026c.003-.006.013-.025.008-.02m4.145.468-.143.02q.084.01.15.01zm-4.954.719-.003.002c.002.002.002-.004.003-.002m28.435.166c.993-.034 1.733.79 1.323 3.153-2.848-5.563-.727 6.973.01.773.321 5.416.185 10.885.188 16.326 1.602 4.239-3.625 3.124-3.879 6.537l-.614.172c-4.244.06-1.148-1.796.023-.742-.036-1.918-1.296-6.136.692-3.784 2.77 2.69-.393-1.664 1.651-.135.335-2.158-1.328-3.064-1.41-4.257-1.248-1.374.953-.876-1.205-3.82-4.377-5.337.865 3.27-.852 4.093.377-1.983-3.217-2.976-2.223-3.243.64-1.818 1.147-4.2-1.456-3.086-2.851-4.512 4.319.259 5.208-.033 3.917-.518-2.23-3.694 2.052-2.203.743-2.956-1.147-3.549-2.42-5.587-1.1-1.67 1.257-4.108 2.912-4.164m-7.264 1.3c.288-.059.686-.008 1.166.269-1.897 1.057-2.029-.095-1.166-.27m-2.101.407c.143-.017.323-.006.546.046-.74 1.56-1.55.071-.546-.046m-1.362.037c.15-.032.25.067.197.42-1.52.934-.643-.327-.197-.42m8.137.668c-.21.035-.138.418.633 1.43l.11.124.223.248c1.31-.274-.505-1.88-.966-1.802m-5.762.697c.068-.035.144.018.204.246-.545.74-.408-.143-.204-.246m-17.704.846-.005.003q.009-.004.003 0zm-.003.004c-.011.01-.048.034-.02.016-.02.022-.007.026.02-.016m22.638 1.583c.074 0 .14.124.156.477-.682.635-.378-.477-.156-.477m4.217 1.126c-.084-.056-.22.057-.416.51.452 1.357.668-.341.416-.51m.26 1.732c-.037-.028-.138.026-.34.247-.01.667.452-.162.34-.247m-.654 1.36c-.26.088-.327.818.364 2.647.883-1.156.201-2.523-.243-2.647a.2.2 0 0 0-.121 0m-7.89.485c-.06-.061-.166.087-.33.65.283 1.598.51-.468.33-.65m4.036.814c.076-.04.28.04.69.366.012.98-.918-.243-.69-.366m2.687.458c-.193.079-.257.581.091 1.86 1.372-.16.331-2.034-.091-1.86m.655 3.308c-.076-.005-.06.14.164.568 1.132.82.065-.552-.164-.568m-1.496 1.456c-.054.028-.082.194-.038.603.596.473.2-.686.038-.603m1.723.893c-.097.017-.177.15-.182.491.92.443.472-.544.182-.491m-4.077 2.292c.053-.04.15.056.31.425-.218 1.052-.467-.304-.31-.425m-71.342.422c.035.027.089.596.166 2.054-.122 7.891-.32-2.172-.166-2.054m69.923.227c.038-.08.213.077.63.703.396 1.889-.74-.465-.63-.703m-.82.148c.102-.024.213.043.3.29-.826.677-.607-.217-.3-.29m-26 .601c.008-.12.074.033.245.746.228 2.439-.27-.384-.246-.746m27.035 1.686c.132-.025.294.112.455.56-.974 1.044-.85-.486-.455-.56m-25.077.74c.2.05.389.274.473.803-1.768.479-1.073-.95-.473-.802m26.441.996c.074-.046.23.035.51.368-.205 1.035-.73-.232-.51-.368M46.08 77.277c.068-.035.143.018.203.246-.545.74-.407-.143-.203-.246M.949 81.16c.277 1.768-.46-.086 0 0m44.846.328c.104-.049.264.072.487.532-.59 1.299-.796-.384-.487-.532m1.122.773c.463-.142 1.086 2.592.342 3.487.975 1.583-2.569.16-.73-1.071 0-1.695.177-2.352.388-2.416m-2.614.344c.079-.019.19.02.34.142.103 2.948-.894-.01-.34-.142m27.334.527c-.003 0-.004.01-.006.012h.018c-.004 0-.008-.013-.012-.012m-8.652 1.406c.411-.046.88.318 1.118 1.537-2.659.65-2.024-1.436-1.118-1.537m-5.658 1.23c.07.047-.027.292-.462.882-1.456.602.251-1.026.462-.883m8.077.338c.054.029.118.106.192.248-.49 1.692-.575-.45-.192-.248m-.866 1.833c.06-.05.107.006.101.284-.588.99-.282-.131-.101-.284m-2.144.096c-.49-.069-.913.41-.485 1.361-2.85 1.294-1.174 2.623-.257 4.226.216.092.289.28.219.436.148.333.262.674.267 1.033-1.97-1.823-2.01 2.394-2.265-.755.04-4.695-1.544-.691-2.346-.145-2.475-.269 2.891.984 1.026 1.389-1.231.76-2.093.099-2.526-.74.048-.174-.015-.405-.186-.37-.345-1.015-.047-2.041 1.09-1.134 2.48-2.892-.682-.76-1.978-1.212-.005.064.001.13-.003.195.056-.014.156.05.328.284-.108.41-.256.236-.331.026-.014 2.36.875 5.008-1.663 6.2-.213-3.112-3.982-.21-1.454-1.463.055 2.178-.82 1.57 1.241 1.735.893 1.015 5.51-.313 2.433 1.013.015 3.918 1.029.017 1.494 1.723 2.176-2.902 2.098 1.033 3.227-1.132 3.574.086-.55-.125.26 1.685-.968-.671-1.848 1.4-.348 1.46 1.335 1.447.136-.535 2.312-.567 4.115-3.485-1.129 1.998 1.061.716 2.224 1.226 3.934 2.657-.283 1.353-.012.172-.035.415-.054.639v.002q.003.045.002.095 0 .053-.002.106a1 1 0 0 1-.02.19q-.013.057-.031.112c-.164 1.149-.632 2.388-2.288 1.863 3.056.965.626 2.27-.53.383-.814-1.972-.385 2.308-1.719-.53-2.27.441.414 1.936.858 2.194 2.676 3.103-2.829.657-.395 1.511 2.271-1.061-2.588-2.12-2.859.096-.235 3.032-.25-1.99.924-2.464-1.827-.304-2.6-5.43-1.98-1.51-1.954 3.553 1.826-.118 1.122 2.847-4.553 1.566-.115 2.452 1.036 4.326-2.67 2.616-1.17 1.977.733.826 2.107 1.76-.621-.101-.092 2.084 2.616-1.391.237 2.631 0 2.808-1.096.23-3.895 1.108-1.886 3.983-.552-4.242 1.118.177 2.77-2.577 3.133 2.26-4.1 1.095-2.086 5.223-2.219 1.237 2.048 2.71-.394 3.33-2.43-2.671-1.173 1.655.264.872-1.058 3.067 2.091 4.7-.35 7.228-.298-2.607-3.072-4.58-3.234-7.335 1.12-.395 1.868-6.198.315-2.572-2.47-.972.06-.097.147-2.03-2.281-1.107-.638 3.435-2.083 3.363-.678-2.13-.762-.989-.498 1.374 2.706.404 1.85 2.03-.254 2.159-3.431.34-1.9 1.053-2.55 3.813 1.837-1.261 1.059 2.162 2.043 2.732 1.011-3.188 1.353 3.722 2.6.264 2.345 1.23-.556-1.895 2.288-1.846-1.447 2.061.809 2.706 2.33 3.047.7-.083 5.855.51 2.435.087 2.826-1.379 5.368 2.08 9.443 1.595 6.035.478-1.243.92-3.092 1.358 3.46.463 7.975-.936 11.892-.532v-6.549c-.05-4.336-.164-7.623-.446-11.183-2.092-.626.574 3.52-1.697 3.494.005 4.848-.88.19-1.297-.584.63 5.317-2.132-1.648-4.074.572 1.877-2.558-2.218-.794-.49-2.313-2.465 2.312-1.815-1.97-2.768-.18-.475 4.203.158-1.45-1.188-.815-1.322-2.007-1.086-2.866-1.14-.184-.318 2.539-.782 1.173-.899.423-3.173 1.812.8-3.048-1.628-2.917 1.278 2.928-1.84.356-1.761 1.135-1.54-2.502.618-.673 1.19-2.203 1.3 1.218-.189-2.078 1.116-1.19 1.18-2.686.013 3.822 2.646 1.887 1.379-2.472 1.701-4.85 4.704-2.637 1.51-3.899 1.184.45 2.52-.438.81.783 3.177.767 3.178 2.752-2.384 3.52 2.1 1.322.71 2.388 2.472 1.246.867-3.075 1.312-4.458-.05-2.733.12-9.808-.31-9.324-1.067-.09-2.026-3.911-.765-5.618 1.2-1.45 1.366-4.458.893-8.22-1.679 2.36-4.895-2.592-2.224-2.41 5.358-3.76-4.03 1.427-2.133-3.422.618-.806-1.114-1.988-.758.704-2.776 1.608-1.623-.024-1.912-1.262a1.5 1.5 0 0 1-.397-.508c-.007-.012-.058-.08-.104-.145a2 2 0 0 1-.136-.181 2 2 0 0 0-.497-.184c.24-3.677-1.575.48-1.944-.182-.191.044-.261.08-.367.12.013.19.019.344.003.383.633.295 2.091.662.031 1.71-1.41.02-.884-2.558-4.117-2.97.16-1.238-.398-1.854-.889-1.922zm4.972 2.799c-.005-.066.008-.045-.001-.133-.17-.183-.176-.016-.145.18.03-.015.104-.032.146-.047m-.146.047c-.223.108-.101.212.099.312a.8.8 0 0 1-.099-.312m-3.187 36.266c.064-.037.087-.034.156-.076-.21-.562-.215-.307-.156.076m-6.92-17.598a.8.8 0 0 0 .386-.008.43.43 0 0 0-.386.008m-2.166-16.92q0-.155.003-.31c-.073.02-.056.165-.003.31m-11.423-4.096c-.245 1.17-.345.717 0 0m18.841 1.302c.065-.051.17-.007.32.239-.356.937-.516-.084-.32-.239m-5.862.318c-1.263-.06-3.179.423-2.974 1.984.448.832.98-1.538 2.032-.713 2.816-.609 2.206-1.211.942-1.27m4.625.104a.7.7 0 0 1 .235.214c-.449 1.226-.683-.417-.235-.214m-10.658.28c-1.257-.122-.353.847-.167 1.41-4.397-.867-1.753-.133-1.367 2.095-.11-.004-.174.001-.27 0 .072-.275-.341-1.099-.389-.097.06.055.093.066.138.096-1.863.024-.548.794.513 3.422 1.651-5.876 1.881-1.358 5.19-.515.14-2.162.822-4.618-2.381-4.502-1.411 2.17-.863-.772-.588-1.786a5 5 0 0 0-.68-.123m.679.123c.03.007.046.007.078.015.006-.033 0-.02.005-.049h-.072c-.005.019-.006.015-.011.034m12.15-.099c.056-.093.22-.03.558.366.072 1.605-.726-.086-.558-.366m-.357 1.163c-.517 1.742-1.266.488 0 0m1.657.104c.068-.034.144.018.204.246-.545.74-.408-.143-.204-.246m-21.076.098c-.169-.093-.263.18.025 1.295.743.029.256-1.14-.025-1.295m6.447.266c.055-.074.146-.006.28.359-.284 1.367-.445-.137-.28-.36m15.578.228c.079.007.187.095.313.33-.534.354-.551-.352-.313-.33m-1.635.192c.08-.007.195.034.354.143.23 2.29-.916-.095-.354-.143m5.305.396c.124-.008.325.113.612.477-.68.74-.986-.451-.612-.477m-10.701.329c.114-.028.273.047.465.324-.753.767-.809-.24-.465-.324m7.541.646c.075.005.192.046.366.136.716 1.505-.887-.175-.366-.136m3.84.3c.042-.026.104.179.186.822-.254 1.399-.312-.747-.186-.822m-7.04.008c.089-.01.3.134.622.594-.583-.13-.772-.576-.623-.594m-19.084.367c-.281-.111-.538 2.992-.386 4.812l-.003 1.29.007 1.125c.15 7.403 1.192-3.02.746-4.662-.102-1.8-.236-2.515-.364-2.565m17.553.58c.1-.04.068.341-.36 1.598-.336-.297.195-1.532.36-1.598m3.499.024c.063-.027.112.029.109.251-.61.662-.298-.17-.11-.251m-14.63.115c-.037.065.808.805.716 1.195.18.564 1.155.087.696-.366-1.05-.666-1.39-.869-1.412-.83m13.38.898c.173-.028.311.104.311.544-1.663 1.064-.832-.459-.312-.544m-6.427.047c.325-.016.218 1.03.963 1.92-.582 1.413-1.549-1.397-2.292-.48.783-1.037 1.134-1.43 1.329-1.44m-7.019.667c-.9 1.51-.043 1.447.385 3.6 1.831 1.25-.205-2.709-.385-3.6m9.75.075c.017-.04.202.06.69.434.706 1.048-.744-.317-.69-.434m7.979.032c.058-.027.211.034.515.27-.012.677-.69-.19-.515-.27m-5.962.167c.094-.008.169.183.17.746-.893 1.086-.45-.724-.17-.746m12.17.448c.13-.04.272 0 .378.207-1.068.751-.772-.088-.379-.207m-17.381.51c.039.009.107.049.212.132.643 1.273-.486-.194-.212-.132m.756.925c.071-.007.24.105.555.416.658 1.89-.863-.385-.555-.416m11.28.198c-.115 1.692-1.236-.03 0 0m-14.028.191c-.057-.044-.13.031-.21.345.394.987.378-.212.21-.345m4.966.474c.084-.03.211.03.38.267-.507.712-.634-.178-.38-.267m-14.55.543c-.242.071-.466.367-.554 1.047 2.16.547 1.278-1.259.553-1.047m20.812.007c.068-.034.144.018.203.246-.544.741-.407-.142-.203-.246m-2.49.857c.078.007.186.096.312.331-.534.353-.55-.353-.313-.33m-5.383.268c-.149.07-.232.418-.098 1.261 1.124.168.656-1.045.264-1.246-.058-.03-.116-.038-.166-.015m7.243.257c.099.042.16.362.107 1.18-1.045 1.07-.404-1.305-.107-1.18m-19.57.32c-.37-.167-1.698 1.29-1.32 3.152.042.785.648-1.15.504-1.05.889-1.355 1.025-2.009.816-2.103m18.523.912c.093-.036.166.024.16.278-.907.8-.44-.17-.16-.278m9.374.604c.04.009.107.049.212.132.644 1.273-.485-.193-.212-.132m-15.696.162c-1.544 1.697 1.11 1.43-.012 2.851a.56.56 0 0 1 .345.13c.817-.781.852-3.02-.333-2.98m-14.094 1.782c-.103.032-.15.498.056 1.765.44-.664.115-1.818-.056-1.765m21.882.77c.157-.06.21.15 0 .886-1.895 1.901-.474-.706 0-.886m-2.043.188c.134-.058.288.04.423.454-1.037 1.303-.823-.279-.423-.454m1.004 1.78c.488-.056.512.116-1.06.812-1.855.008.246-.718 1.06-.812m-8.591.007-.01.011c.006 0 .008-.002.014-.003zm9.264.67c.088.014.216.06.392.148.267 1.147-1.013-.253-.392-.149m9.792.179c.076-.01.21.175.424.683-.005 3.07-.754-.639-.424-.683M63.47 110.54c.384.191 1.34 6.357 1.002 1.774.425 2.785 4.33 3.508.97 4.289.254-2.895-3.25-1.138-3.418 1.4-.225 2.363-1.595-1.048-.217-1.547-2.015-1.459 1.891-.038 1.537-3.496-.067-1.883-.002-2.484.126-2.42m-8.301.313c.003-.036-.157.05-.625.383-.878.946.613-.274.625-.383m2.505.209c.085-.014.188.098.305.41l-.021.524c-.68 1.517-.652-.876-.284-.934m9.461.408c.08.007.187.095.313.33-.533.354-.55-.352-.313-.33m-7.865 1.785c.062-.027.111.029.109.251-.61.661-.298-.17-.11-.251m15.954.378c.029.014.056.182.076.6-.35 2.171-.201-.66-.076-.6m-16.18 1.744c.067-.034.142.018.202.246-.545.741-.407-.142-.203-.246m.734 1.755c.062-.09.15-.014.258.41-.407 1.626-.446-.14-.258-.41m-3.155.015c-.134-.013-.28.162-.394.696 1.082 1.092.796-.654.394-.696m6.94.216c.512-.053 1.869.56 2.827 1.04-1.14 1.406-1.99-.49-2.566-.056-.57-.682-.567-.953-.26-.984m6.673.24c.095-.057.18-.002.213.283-.846 1.057-.495-.113-.213-.283m-13.394 1.23c-.068.025.129.12.848.327 1.955.125-.642-.405-.848-.328m3.49.02c.423.026 1.072.414 1.825 1.504-2.585.146-2.754-1.558-1.824-1.503m15.404.118c.256.057.488.754-.02 1.638l.03.403-.138.168c-.409-1.681-.128-2.266.128-2.209m-12.99.632c.25-.083 1.01.932 2.168 1.51 1.41-.478 1.877-.085.586 1.259-.916 1.609-1.302-3.967-2.624-1.098-.244-1.174-.279-1.62-.13-1.67m-3.423.089c.144.006.333.223.547.83-.996 1.04-.978-.847-.547-.83m18.063.27c.126-.005.266.072.381.307-1 .484-.758-.287-.38-.306m-1.239 1.438c.188.03.534.26 1.091.847-.805.765-1.656-.938-1.09-.847m-16.68.016c.052-.04.15.056.308.425-.217 1.052-.466-.304-.309-.425m12.42.193c-.269.013-.695.059-1.323.145-2.366-.534-3.826.361-3.84 2.736.682.418 1.436-.26 2.113-.245-.968-1.162 4.925-2.724 3.05-2.636m-10.553.398c.029-.021.065-.017.11.003a.6.6 0 0 1 .184.212c-.34 1.015-.498-.068-.294-.215zm-4.536.055c.083-.007.196.109.332.455-.55.69-.58-.435-.332-.455m11.906.264c.083-.007.196.11.332.456-.55.69-.58-.435-.332-.456m2.373.139c-.392.008-.543.441.107 1.713 2.777.307.753-1.731-.107-1.713m-15.735.19c-.016.007-.115.096-.142.113.047-.001.088.003.115.017.07-.095.099-.159.027-.13m-13.104.235h-.004l.004.002zm30.801.706c-.085.041-.076.274.142.846 1.21.638.113-.968-.142-.846m-2.64.503c-.182-.06-.52.478-1.02 2.256 1.058.905 1.418-2.124 1.02-2.256m-16.606.624c-.003.006-.005.005-.008.01.014.024.023.032.036.054l-.012-.03zm5.854.456c.423.048.918.399 1.451 1.414.157.365-.466.804-.661.407-2.014.236-2.971-2.259-2.152-1.195.152.06.657-.705 1.362-.626m12.697.532c-.174.008-.365.231-.51.847 1.41 1.032 1.032-.871.51-.847m-16.765.345c-.136-.034-.252.037-.271.319 1.27.836.68-.216.271-.319m3.856 1.185c.053-.025.159.041.34.288-.18.685-.498-.213-.34-.288m9.598.013c-.03-.001-.041.023-.043.061.044.03.052.028.123.04l.038-.003.011-.016.006-.01q-.01-.007-.02-.013-.079-.06-.115-.06m.007.33.004.016c.062.025.124.05.17.058zm-3.5.352c.065-.051.17-.007.32.239-.356.937-.516-.084-.32-.239m10.059.037c-.657-.042-1.856.995-.077 1.21l-.085.445c.755-1.214.556-1.629.162-1.655m-6.657 1.21c.054-.022.136-.012.254.006.36 1.351-.63.146-.254-.005m-9.811.196c.084-.03.21.03.38.267-.507.712-.634-.178-.38-.267m-5.821.529c.084-.03.211.03.38.267-.507.712-.634-.178-.38-.267m23.056.688c.07-.065.133.006.159.358-.616 1.255-.366-.164-.159-.358m-12.406.454c.08.007.187.096.313.331-.533.353-.55-.353-.313-.33m-9.136.16c-.052-.026-.159.04-.34.288.18.684.499-.214.34-.289m-14.31.421c.028-.004.07.019.128.082.146 1.336-.32-.051-.127-.082m14.292.244c-.4-.057-.713.489-.52 2.278 2.703.885 1.4-2.154.52-2.278m18.72 2.271c.362-.05.883.118 1.607.618 1.152-.445-3.349 2.54-.877 3.102-.886.815-2.3-3.502-.73-3.72m-3.821.313c-.27.714-1.13.19 0 0m-13.614.015c-.02-.022-.083.032-.18.155.026.096.048.2.074.285.083-.214.14-.404.106-.44m14.22.28c.079.007.186.096.312.331-.533.354-.55-.353-.313-.33m3.366.461c-.081.017-.214.164-.408.547.428.529.65-.597.408-.547m-1.691.117c.017-.053.104-.005.316.255.217.984-.368-.094-.316-.255m3.985.084c-.625 2.514-1.324.198 0 0m-21.963.448c.028-.004.07.02.127.082.146 1.336-.32-.05-.127-.082m-.639.01c.065-.052.17-.008.321.238-.357.937-.517-.084-.32-.239m22.557.845c.074.008.159.051.254.142-.743 1.434-.768-.2-.254-.142m-21.553.101c.07.039.03.354-.246 1.168-1.168 1.094.036-1.284.246-1.168m2.04 3.32c.226 2.503-1.758.05 0 0m3.9.22c-.015-.063.148.019.652.396 1.052 1.289-.606-.205-.652-.396" style="fill:#000" transform="translate(-.016 -.008)"/></svg>