<?xml version="1.0" encoding="UTF-8" standalone="no"?>
<!-- Created with Inkscape (http://www.inkscape.org/) -->

<svg
   width="78.676888mm"
   height="146.94461mm"
   viewBox="0 0 78.676888 146.94461"
   version="1.1"
   id="svg1"
   xml:space="preserve"
   xmlns="http://www.w3.org/2000/svg"
   xmlns:svg="http://www.w3.org/2000/svg"><defs
     id="defs1" /><g
     id="layer1"
     transform="translate(-65.675973,-75.006704)"><g
       id="g1"
       transform="translate(65.659756,74.998635)"><path
         id="path5"
         style="fill:#000000"
         d="m 40.731683,0.01384059 c -0.302441,0.03119718 -0.56922,0.19369535 -0.640271,0.5865275 0.362406,0.0532341 0.606266,0.0636404 0.841809,0.0718302 -0.08773,0.0654061 -0.10628,0.27471429 0.06408,0.79168301 1.259441,0.610852 0.55295,-0.53884374 0.122473,-0.77618008 1.351565,-0.001138 0.374425,-0.75252256 -0.38809,-0.67386067 z M 36.195009,0.37454208 C 32.436435,0.38114608 27.752133,1.6527695 24.613287,2.8999693 23.762903,7.1226565 24.265275,2.3929575 22.813397,2.6374531 21.007355,2.8757574 17.856616,1.794576 18.765065,4.6983092 19.216202,6.3192818 17.837878,9.550373 19.492669,10.111932 25.013583,9.8050618 30.728995,9.3601134 36.072019,8.6934142 41.295975,9.022987 46.81195,6.990789 52.387302,7.2976337 c 2.305689,0.5408403 4.295916,0.1659714 5.50199,-0.9224243 -0.01906,-0.3132151 0.08814,-0.780913 0.259416,-0.263033 C 59.216045,4.9317982 59.488575,3.0728781 58.484604,0.70062037 54.454933,0.68276314 47.605726,-0.69933527 45.558778,3.6012185 45.678398,1.9664741 46.369088,0.20039493 43.101047,0.61432073 42.479146,2.5703594 41.409166,4.4419193 39.553977,0.83756292 38.598061,0.51088741 37.447887,0.37234135 36.195009,0.37454208 Z M 58.148708,6.1121764 c -0.08258,0.091321 -0.167418,0.1800167 -0.259416,0.263033 0.01402,0.2303593 0.08542,0.3761815 0.29869,-0.1576131 -0.01387,-0.054059 -0.02589,-0.064949 -0.03927,-0.1054199 z m 2.048453,-1.5409913 c -0.02562,-0.093271 -0.05372,0.096498 -0.07493,0.8526612 0.207783,2.2564667 0.151857,-0.5728596 0.07493,-0.8526612 z M 59.475242,7.731199 c -4.83689,5.372209 -8.654864,11.652661 -13.049333,17.407723 -3.165903,4.013379 0.801723,0.807984 1.313615,0.438733 2.356893,-4.140013 8.795978,0.31041 13.012125,1.02216 4.940361,2.097428 10.150543,2.452762 14.774292,4.163053 3.707934,0.395936 -3.550553,-6.457282 -3.839558,-7.966439 -4.448844,-6.252685 0.07999,1.94963 0.260449,4.801258 -1.252467,-1.178465 -2.812871,-5.68608 -3.541903,-8.282699 C 66.15426,15.161242 62.743854,10.766826 59.475242,7.731199 Z M 42.019459,8.4205626 c -0.132136,0.00215 -0.306108,0.081192 -0.500227,0.3023071 0.919514,0.3773421 0.896822,-0.3087574 0.500227,-0.3023071 z M 29.547869,14.24708 c -1.720605,-0.20528 -5.711552,4.986027 -6.660575,6.422864 -4.881523,3.07565 4.802541,-4.272917 0.946712,-5.935555 -3.526243,2.123739 -6.401766,5.876349 -8.966378,8.472351 0.297778,-0.31452 5.235435,0.86579 7.535458,1.556494 4.714726,-0.129666 1.834192,2.473366 -0.844393,2.778125 0.256661,0.622089 1.475357,-0.325702 1.571997,-0.133325 5.335101,-2.168029 12.6211,-0.710201 16.801042,-4.679301 -0.888069,-0.931264 -5.770007,-1.328297 -9.503813,-0.476973 -1.992678,-1.69427 6.014627,-3.276192 7.88479,-4.747514 3.161477,-4.234306 -8.060165,1.201419 -7.997445,-0.914156 0.127622,-1.606684 -0.193818,-2.274562 -0.767395,-2.34301 z m 23.232691,5.859074 c 0.0845,-0.02966 0.21134,0.02936 0.380338,0.266651 -0.506936,0.711814 -0.633837,-0.177666 -0.380338,-0.266651 z m -40.212016,0.91364 c -0.0248,-0.04571 -0.06202,0.04564 -0.111621,0.411344 0.1488,1.097047 0.18602,-0.274268 0.111621,-0.411344 z m 43.574601,0.264583 c 0.05469,0.02888 0.118751,0.10548 0.192753,0.248047 -0.489811,1.691345 -0.575485,-0.45023 -0.192753,-0.248047 z m -5.147489,0.22841 c 0.0793,0.0073 0.186778,0.09529 0.313159,0.330729 -0.533783,0.353346 -0.551056,-0.352746 -0.313159,-0.330729 z m 7.506002,0.482658 c 0.174515,0.01508 0.366419,0.238121 0.51418,0.840258 -1.409915,0.939105 -1.037914,-0.885506 -0.51418,-0.840258 z m -4.226616,0.2682 c 0.05615,0.03198 0.110589,0.107425 0.159164,0.242363 -1.019437,1.440776 -0.552139,-0.466238 -0.159164,-0.242363 z m -44.3962563,0.03359 c -0.195711,-0.0045 -0.4597562,0.02778 -0.802535,0.10697 -2.5614485,3.50424 -6.7760179,6.564128 -7.8961589,10.729578 0.7518774,7.005743 0.8863463,14.1344 0.956014,21.210591 0.1907128,4.180048 -0.870437,2.212907 -1.7683675,0.212907 -0.23928413,10.637664 -0.4549415,21.285273 -0.29817301,31.925183 2.05225481,-0.290061 2.03442181,2.71023 1.49034831,5.592424 -1.79662668,5.824551 -0.76043732,12.082972 -1.02371013,18.124992 0.0657538,5.11222 -0.0856139,10.9172 0.38343913,15.6254 -0.73762859,5.97121 -0.26356797,12.05461 -0.41082764,18.07539 13.91770104,0.86302 27.80284404,2.30374 41.72975304,3.05201 1.469079,-0.007 2.93146,-0.20236 4.392496,-0.34572 5.743595,-0.62656 0.426899,-0.53745 -2.107365,-0.14004 -4.601708,0.69946 -1.062019,-7.45722 -2.01538,-10.27638 -1.209234,-3.85348 2.195143,-12.76506 -2.008147,-12.78216 0.633677,-0.6547 1.061182,-1.41061 1.357023,-2.23243 0.0064,-0.0656 0.02633,-0.12212 0.05581,-0.16846 1.070352,-3.2066 0.144226,-7.41484 0.658875,-11.01328 1.379246,3.38423 1.457827,-1.29967 0.840775,-2.74609 -0.917277,-5.11326 -0.348956,-11.638699 0.05943,-16.69872 1.308031,3.01462 1.73429,-2.432304 0.311092,-2.44998 0.451628,-0.608571 1.255625,-1.124313 2.616895,-0.637687 3.477694,-1.782965 6.912229,-1.033521 9.119856,-1.160653 0.622487,4.665685 2.980349,-1.918026 3.192054,0.256832 0.362016,3.712297 0.962506,-0.02041 0.589628,-0.833024 1.006905,-1.312628 3.351481,1.663514 3.477824,1.150834 1.950643,0.718809 0.04479,4.085779 2.583304,3.082499 0.257387,-2.787578 0.827262,-4.700978 1.636593,-0.669726 3.087192,0.976804 -0.705137,-3.532922 -0.457853,-3.979602 -4.577012,0.396089 1.898919,-1.905062 4.349605,-3.153813 2.483041,-3.423648 4.906402,0.98914 7.466211,-2.330607 0.493458,-9.129651 0.330629,-18.411098 0.211357,-27.596248 -2.208152,-5.33344 -9.605205,2.301561 -14.295252,0.687296 -4.260073,-0.309313 -9.539805,2.959452 -12.77183,2.516642 -0.411361,1.110608 -5.396975,1.920234 -5.960876,2.32544 0.251726,-2.75748 -1.649376,1.765428 -2.315105,-0.779798 1.388672,-1.229947 -0.750458,-8.044674 0.03462,-11.824601 -0.950567,-3.32501 0.891468,-9.038928 0.03514,-12.595097 -0.0163,-0.04638 -0.03037,-0.09639 -0.04186,-0.150378 -0.419233,-1.565219 -1.390485,-2.688666 -3.421497,-2.950208 -4.642897,-0.845764 -10.805974,0.507545 -16.073954,0.223243 -1.787096,-0.265432 -11.971008,1.033066 -7.060551,-0.22841 6.641025,-2.540248 -2.48416,0.8027 -4.591968,0.03152 C 7.1749514,28.590045 13.973487,28.180885 10.99448,27.033897 5.8538344,28.553485 13.397421,23.733737 10.033815,25.19835 9.8151967,24.838771 9.0569138,24.228164 8.312473,24.173089 9.7711154,23.67488 11.052357,22.324382 9.8787857,22.297235 Z m 50.4790893,0.298173 c 0.05817,0.0082 0.128326,0.04658 0.211357,0.127641 -0.439969,1.245864 -0.618577,-0.18486 -0.211357,-0.127641 z m -49.427991,0.121956 c -0.173539,0.03499 -0.06882,0.199153 0.824239,0.565341 0.52708,-0.323039 -0.535007,-0.623657 -0.824239,-0.565341 z m -1.9828244,0.02377 c 0.093492,-0.0359 0.1662642,0.02407 0.1607137,0.277502 -0.907456,0.800763 -0.4411704,-0.169877 -0.1607137,-0.277502 z m 52.7249474,0.0801 c 0.05389,0.0077 0.140318,0.0497 0.268717,0.140043 0.562668,1.436329 -0.645955,-0.194132 -0.268717,-0.140043 z m -6.536552,0.458887 c 0.03008,-0.02179 0.08079,-0.0242 0.157096,0.0083 0.08721,0.03501 0.207876,0.11054 0.37052,0.241329 0.05246,1.100899 -0.738149,-0.09706 -0.527616,-0.249597 z M 8.0850967,24.456793 c -0.00407,-0.09571 0.2191214,0.06073 0.8903849,0.843359 -0.2457003,0.175558 -0.8836017,-0.68385 -0.8903849,-0.843359 z m 0.5048787,1.525488 c 0.098675,-0.0082 0.092005,0.114945 -0.1514119,0.486276 -1.3853465,0.747187 -0.1445951,-0.461633 0.1514119,-0.486276 z m -1.4433227,0.489376 c 0.062917,-0.02716 0.1119288,0.02873 0.1090373,0.251148 -0.6091712,0.660992 -0.297776,-0.16968 -0.1090373,-0.251148 z M 6.0883194,26.73624 c 0.062917,-0.02715 0.1119282,0.02873 0.1090372,0.251148 -0.6091703,0.660993 -0.2977822,-0.16968 -0.1090372,-0.251148 z m 44.6158816,2.120801 c -0.642348,-0.02911 -0.8704,0.972334 -0.717269,1.969389 -1.073112,0.517238 -0.741297,1.817353 -0.42168,2.910934 0.174975,0.12983 0.222244,0.329073 0.141077,0.503328 0.137512,0.490456 0.225057,0.907604 0.06976,1.071769 -1.567949,2.226441 4.281414,2.943321 0.561206,5.357813 1.737979,-2.292039 -1.451587,-0.610921 -1.519287,-2.294434 1.510204,-0.09468 0.09781,-0.637583 -0.05788,-3.447335 -0.250216,-0.208562 -0.458714,-0.347196 -0.649572,-0.456303 -0.116962,-0.032 -0.232528,-0.06857 -0.347266,-0.108003 -0.08358,-0.02725 -0.162328,-0.06246 -0.237195,-0.104387 -1.372803,-0.09158 -0.354996,3.838526 -2.161625,3.141927 1.369155,1.463577 1.120859,3.34334 2.76934,4.947502 1.199885,2.467187 -0.313804,3.512715 0.982369,6.862113 -0.287303,1.4808 2.184021,-0.393835 0.305408,-0.963765 0.01903,-4.561775 0.416162,-0.532926 1.507918,0.589111 -0.105309,-0.278514 0.165457,-0.843664 0.643888,-0.152962 -0.229332,0.233601 -0.386696,0.289911 -0.49506,0.270268 0.323703,0.2379 0.6999,0.222982 1.142566,-0.331763 -2.277303,-1.15797 -1.847653,-4.644684 1.338936,-1.920813 -0.03912,0.252294 -1.269423,2.194606 0.990121,1.157552 2.427737,-0.415556 -1.588542,-1.863844 1.487764,-4.397147 1.366107,1.556995 -0.331777,3.903313 3.523816,0.788582 3.857524,-2.040344 -0.605106,-2.936595 2.860291,-4.174422 0.198053,1.280871 5.542277,-5.325437 7.337536,-7.295162 6.394465,-5.089485 -5.922554,0.402135 -4.424019,1.686202 2.650439,-2.110238 0.682871,0.610899 -0.448035,0.921907 -0.653088,-0.1227 -1.003963,5.042167 -2.465999,3.549654 -2.113702,1.271501 -4.219607,-3.7615 -5.841504,-2.333707 -2.909099,2.79238 0.794523,-3.360329 -1.218013,-1.287777 -0.202441,1.124111 -1.825581,1.734394 -2.470651,0.128158 -0.600874,-0.513154 -2.859256,-3.907871 -0.559139,-2.569353 2.722716,-1.233678 0.238318,2.826797 2.769857,1.486731 1.342259,-1.098004 -1.130772,-3.343016 -3.647839,-2.418457 -1.741426,-1.463469 0.556908,-0.49541 0.860929,-1.698604 -0.690776,-0.982503 -1.225408,-1.371081 -1.610754,-1.388546 z m 2.186946,6.588229 c 0.204427,0.174503 0.219724,0.02155 -0.205155,-0.772563 0.04539,0.303296 0.117808,0.55505 0.205155,0.772563 z m -1.256254,-5.792928 c 0.068,-0.03438 0.143126,0.01783 0.203089,0.245979 -0.544883,0.74076 -0.407094,-0.14289 -0.203089,-0.245979 z m 8.462016,2.241206 c -0.352331,0.01491 -0.513644,0.371221 -0.1757,1.377694 0.601513,0.119405 1.630384,0.110467 2.099614,-0.03876 -0.219521,-0.44034 -1.336758,-1.363784 -1.923914,-1.338937 z m -9.680029,0.171049 c 0.106823,0.02797 0.260265,0.211138 0.469739,0.644922 -0.520289,2.029658 -0.932638,-0.766051 -0.469739,-0.644922 z m 12.136727,0.715719 c -0.193026,-0.07263 -0.349392,0.295504 -0.273885,1.600419 1.30034,0.852691 0.69848,-1.44064 0.273885,-1.600419 z M 52.969695,33.048 c -0.06562,-0.03582 -0.175334,0.134211 -0.337963,0.701766 0.337016,1.365387 0.534814,-0.594313 0.337963,-0.701766 z m -5.005379,0.313159 c 8e-4,10e-4 0.007,0.0046 0.01395,0.0088 -0.0033,-0.0031 -0.0043,-0.0034 -0.0083,-0.0072 -0.0044,-0.002 -0.0063,-0.0023 -0.0057,-0.0016 z m 19.868555,0.109554 c 0.08486,-0.02476 0.119236,0.06533 0.02325,0.378788 -0.986928,0.801899 -0.278086,-0.304515 -0.02325,-0.378788 z m -27.736292,0.136426 c 0.07202,-0.02522 0.218067,0.02239 0.469739,0.215491 -0.238403,0.589664 -0.685743,-0.139824 -0.469739,-0.215491 z m 26.949777,1.164787 c 0.09087,-0.02553 0.125134,0.07003 0.01602,0.400492 -1.068852,0.839867 -0.288581,-0.323901 -0.01602,-0.400492 z m -16.112712,0.04961 c 0.292934,1.158309 2.225233,1.136225 0.772046,2.220536 -0.701887,1.70646 -1.419154,-1.944042 -0.772046,-2.220536 z m 12.107788,0.156063 c -0.175396,-0.03272 -0.13619,0.40402 0.569991,1.800407 0.610648,-0.387948 -0.277663,-1.745873 -0.569991,-1.800407 z m -2.568319,0.800468 c -0.396244,0.09158 -0.725088,0.79433 0.203089,1.83348 0.656924,-1.40549 0.193218,-1.925065 -0.203089,-1.83348 z m -5.966044,1.276924 c 0.06292,-0.02716 0.111913,0.02925 0.109038,0.251665 -0.609184,0.660999 -0.297728,-0.170194 -0.109038,-0.251665 z m -6.311759,0.270268 c 0.068,-0.03439 0.143119,0.01783 0.203088,0.24598 -0.54482,0.740709 -0.407097,-0.142824 -0.203088,-0.24598 z m 8.375716,0.334864 c 0.548193,-0.08794 0.764167,0.239038 -0.565857,1.78232 -2.129742,1.550941 0.441716,-0.730992 -0.859896,-1.077454 -0.0028,-0.114281 0.877622,-0.616988 1.425753,-0.704866 z m -6.29729,1.776118 c 0.06292,-0.02716 0.111917,0.02925 0.109037,0.251665 -0.60912,0.660998 -0.297786,-0.170193 -0.109037,-0.251665 z m 2.154907,0.534852 c 0.068,-0.03438 0.143129,0.01782 0.203089,0.245979 -0.544889,0.740757 -0.407094,-0.142893 -0.203089,-0.245979 z m 8.634615,0.05168 c 0.07414,4.7e-5 0.139308,0.12377 0.156063,0.476973 -0.681545,0.635424 -0.378427,-0.477115 -0.156063,-0.476973 z m -11.915551,0.695048 c 0.05249,-0.04035 0.149926,0.05632 0.309025,0.425297 -0.217527,1.051457 -0.466496,-0.304245 -0.309025,-0.425297 z m 5.484936,0.555005 c 0.0845,-0.02966 0.211332,0.02987 0.380339,0.267167 -0.506983,0.711841 -0.633838,-0.178177 -0.380339,-0.267167 z m 5.121135,0.790649 c 0.10259,0.130895 -0.423881,1.495662 0.0217,1.651062 -1.016426,2.539137 -2.192854,-1.911229 -0.93121,-0.489892 0.457654,-0.698031 0.70212,-1.031357 0.822172,-1.134815 0.04502,-0.0388 0.07267,-0.04505 0.08733,-0.02635 z m -5.2002,0.077 c 0.129043,0.0023 0.253973,0.126294 0.315743,0.47594 -1.127568,0.607279 -0.702811,-0.482841 -0.315743,-0.47594 z m -3.260783,0.893486 c 0.249573,-0.106165 0.671519,0.196518 1.074353,1.446423 -1.427424,0.04323 -1.490245,-1.269482 -1.074353,-1.446423 z m 3.394108,0.38964 c 0.130861,0.03467 0.227698,0.251689 0.242363,0.762227 -2.01996,2.360487 -0.809365,-0.912479 -0.242363,-0.762227 z m 1.638143,0.498678 c -0.05574,-0.03949 -0.221402,0.323613 -0.567924,1.451074 -0.08864,2.408427 0.735142,-1.332676 0.567924,-1.451074 z m -3.472139,1.229899 c 0.0601,-0.05211 0.137434,-0.0086 0.220141,0.235644 -0.428032,0.939892 -0.400444,-0.07931 -0.220141,-0.235644 z m 0.890385,0.72657 c 0.05818,0.0082 0.128325,0.04658 0.211356,0.127641 -0.43991,1.245877 -0.61858,-0.184859 -0.211356,-0.127641 z m -1.422136,0.280603 c -0.174064,-0.02167 -0.382299,0.111012 -0.578776,0.539502 1.317297,0.979401 1.100969,-0.47448 0.578776,-0.539502 z m -5.30872,3.800802 c -0.003,0.002 0.0068,0.0047 0.0098,0.0067 0.006,0.003 0.01214,0.0053 0.01809,0.0083 -0.01177,-0.01081 -0.02369,-0.01921 -0.02791,-0.01499 z m 1.487248,0.630452 c -0.0099,0.0145 -0.01659,0.02966 -0.0217,0.04496 0.0049,-0.0088 0.01185,-0.02006 0.01447,-0.02532 0.003,-0.0062 0.01228,-0.02564 0.0072,-0.01964 z m 4.144967,0.467672 c -0.04749,0.0069 -0.09507,0.0138 -0.142627,0.02067 0.0554,0.0052 0.106728,0.0087 0.149861,0.0083 -0.0024,-0.0096 -0.0049,-0.01946 -0.0072,-0.02894 z m -4.953186,0.718303 c -9.75e-4,9.31e-4 -0.0021,0.0017 -0.0031,0.0026 0.0012,0.0017 0.0019,-0.0037 0.0031,-0.0026 z m 28.43444,0.166398 c 0.993008,-0.03351 1.733559,0.790961 1.323433,3.153296 -2.848126,-5.563075 -0.727165,6.972776 0.01034,0.773079 0.320433,5.415739 0.184368,10.885123 0.187068,16.325618 1.602148,4.238762 -3.624519,3.123786 -3.878316,6.537069 v 5.17e-4 l -0.614433,0.171049 c -4.244299,0.06032 -1.148326,-1.79553 0.02274,-0.742074 -0.03548,-1.917639 -1.295589,-6.135591 0.692464,-3.783748 2.76888,2.691041 -0.393149,-1.66399 1.651062,-0.134359 0.335114,-2.158273 -1.328713,-3.064415 -1.409733,-4.257621 -1.248207,-1.373323 0.952947,-0.876217 -1.205094,-3.820439 -4.377324,-5.336297 0.864785,3.270303 -0.852662,4.093807 0.376974,-1.982896 -3.216759,-2.975947 -2.22312,-3.243213 0.64108,-1.817747 1.147342,-4.199836 -1.455208,-3.085599 -2.851747,-4.512566 4.31832,0.258284 5.207434,-0.03359 3.916923,-0.517631 -2.229391,-3.693353 2.052588,-2.20245 0.74296,-2.956323 -1.147381,-3.549308 -2.420007,-5.587255 -1.100275,-1.669671 1.256395,-4.108233 2.91145,-4.164087 z m -7.26364,1.299662 c 0.2877,-0.0582 0.685661,-0.0078 1.165821,0.269234 -1.897501,1.057284 -2.028856,-0.09462 -1.165821,-0.269234 z m -2.10168,0.40721 c 0.143399,-0.01678 0.3238,-0.0056 0.546737,0.04651 -0.740249,1.559985 -1.550466,0.07094 -0.546737,-0.04651 z m -1.361157,0.03669 c 0.148668,-0.03107 0.24901,0.06745 0.196887,0.420647 -1.520971,0.933977 -0.642891,-0.327431 -0.196887,-0.420647 z m 8.136454,0.668177 c -0.209437,0.03499 -0.138331,0.41786 0.633036,1.43092 l 0.110588,0.123507 0.222209,0.248047 c 1.310688,-0.274111 -0.505073,-1.879459 -0.965833,-1.802474 z m -5.761405,0.697115 c 0.068,-0.03438 0.143129,0.01783 0.203088,0.24598 -0.544827,0.740689 -0.407094,-0.14283 -0.203088,-0.24598 z m -17.704346,0.845943 c -0.0016,0.0011 -0.0031,0.0025 -0.0047,0.0036 0.0061,-0.0035 0.0056,-0.0023 0.0021,5.17e-4 10e-4,-0.0016 0.0015,-0.0024 0.0026,-0.0041 z m -0.0031,0.0047 c -0.01126,0.0088 -0.04817,0.03395 -0.01912,0.0155 -0.02071,0.02167 -0.0078,0.02579 0.01912,-0.0155 z m 22.637895,1.582332 c 0.07414,4.7e-5 0.139308,0.123708 0.156063,0.476974 -0.681606,0.635237 -0.378488,-0.477115 -0.156063,-0.476974 z m 4.217314,1.12603 c -0.08383,-0.05627 -0.219657,0.05758 -0.415996,0.51108 0.451368,1.356398 0.667426,-0.342259 0.415996,-0.51108 z m 0.259932,1.732194 c -0.03717,-0.02819 -0.138058,0.02614 -0.341064,0.246496 -0.0087,0.667263 0.452585,-0.161927 0.341064,-0.246496 z m -0.654224,1.359607 c -0.259147,0.08883 -0.327223,0.818772 0.364319,2.647383 0.882783,-1.155523 0.200783,-2.522616 -0.243396,-2.647383 -0.04318,-0.01213 -0.08389,-0.01269 -0.120923,0 z m -7.889957,0.485241 c -0.06022,-0.06084 -0.16569,0.08747 -0.329696,0.650607 0.282927,1.597619 0.510364,-0.468074 0.329696,-0.650607 z M 72.67392,63.0023 c 0.07584,-0.04104 0.280159,0.03989 0.690914,0.365352 0.01127,0.979778 -0.918441,-0.242222 -0.690914,-0.365352 z m 2.686658,0.457336 c -0.192162,0.07913 -0.256696,0.581548 0.09147,1.859835 1.372226,-0.160322 0.331413,-2.033849 -0.09147,-1.859835 z m 0.655774,3.308842 c -0.07621,-0.0052 -0.05953,0.140172 0.163297,0.567924 1.132605,0.820359 0.06532,-0.552188 -0.163297,-0.567924 z m -1.49655,1.455725 c -0.05388,0.0276 -0.08145,0.19348 -0.03772,0.603064 0.595945,0.47245 0.199609,-0.685849 0.03772,-0.603064 z m 1.722893,0.892452 c -0.09678,0.01769 -0.176262,0.15125 -0.181385,0.491443 0.919801,0.442657 0.471661,-0.544506 0.181385,-0.491443 z m -4.076237,2.292367 c 0.05249,-0.04035 0.149921,0.05632 0.309025,0.425297 -0.217516,1.051456 -0.466495,-0.304245 -0.309025,-0.425297 z m -71.34293256,0.42168 c 0.0352426,0.02724 0.0892422,0.596625 0.16691487,2.054138 -0.12267467,7.891519 -0.31962447,-2.172233 -0.16691587,-2.054194 z m 69.92389656,0.22732 c 0.0371,-0.07938 0.213058,0.07651 0.630452,0.702799 0.39523,1.889226 -0.741762,-0.464667 -0.630452,-0.702799 z m -0.821139,0.148311 c 0.102227,-0.02433 0.21392,0.04264 0.30024,0.289388 -0.825935,0.677729 -0.606857,-0.216393 -0.30024,-0.289388 z M 43.92632,72.80733 c 0.0083,-0.120489 0.07459,0.03269 0.245463,0.745174 0.228208,2.439049 -0.270263,-0.383707 -0.245463,-0.745174 z m 27.035559,1.685685 c 0.131812,-0.02472 0.293674,0.112155 0.455269,0.560173 -0.97446,1.043709 -0.850704,-0.486004 -0.455269,-0.560173 z m -25.077022,0.740524 c 0.199797,0.04932 0.389074,0.273613 0.472839,0.802535 -1.767745,0.478487 -1.072416,-0.950507 -0.472839,-0.802535 z m 26.44128,0.995288 c 0.07368,-0.04542 0.230291,0.03485 0.509529,0.367936 -0.204579,1.035558 -0.730586,-0.231668 -0.509529,-0.367936 z m -26.247494,1.047998 c 0.068,-0.03438 0.143125,0.01783 0.203089,0.24598 -0.544882,0.740689 -0.407094,-0.14283 -0.203089,-0.24598 z m -45.1300616,3.884 c 0.2777551,1.767892 -0.45895919,-0.0856 0,0 z m 44.8468746,0.328663 c 0.103212,-0.04921 0.263631,0.07194 0.486276,0.531233 -0.590071,1.299061 -0.795849,-0.38367 -0.486276,-0.531233 z m 1.121379,0.772045 c 0.462911,-0.141065 1.086529,2.592181 0.342098,3.487643 0.974655,1.5825 -2.568611,0.159502 -0.730188,-1.071253 3.06e-4,-1.694442 0.177676,-2.352241 0.38809,-2.41639 z m -2.614311,0.344682 c 0.0791,-0.01878 0.189924,0.02005 0.340031,0.14211 0.103155,2.947532 -0.893643,-0.01063 -0.340031,-0.14211 z m 27.334249,0.526583 c -0.0027,5.98e-4 -0.0036,0.01088 -0.0062,0.01189 0.0062,1.68e-4 0.01239,3.14e-4 0.0186,5.16e-4 -0.0039,7.5e-5 -0.0086,-0.01323 -0.0124,-0.0124 z m -8.652185,1.406116 c 0.411619,-0.04576 0.879537,0.318547 1.118795,1.536857 -2.659097,0.650026 -2.024295,-1.436182 -1.118795,-1.536857 z m -5.658052,1.229382 c 0.07009,0.04786 -0.02635,0.292635 -0.461471,0.882634 -1.456017,0.602438 0.251203,-1.026227 0.461471,-0.882634 z m 8.077026,0.338481 c 0.05468,0.02888 0.118753,0.10606 0.192753,0.248563 -0.48986,1.691414 -0.575538,-0.450741 -0.192753,-0.248563 z m -0.86558,1.83348 c 0.0603,-0.05087 0.10678,0.0058 0.101285,0.28422 -0.588747,0.989416 -0.282197,-0.13169 -0.101285,-0.28422 z m -2.143539,0.0956 c -0.490302,-0.06851 -0.913474,0.410031 -0.485241,1.361157 -2.851009,1.293934 -1.174624,2.62305 -0.257349,4.226099 0.215709,0.09207 0.288964,0.279387 0.219108,0.436149 0.148408,0.332897 0.262228,0.673854 0.26665,1.033012 -1.969951,-1.823422 -2.009802,2.393653 -2.264978,-0.75551 0.04003,-4.69479 -1.544077,-0.691166 -2.34611,-0.14521 -2.47444,-0.268602 2.891549,0.984326 1.026294,1.389062 -1.230939,0.760837 -2.092968,0.09905 -2.525944,-0.740523 0.04846,-0.173041 -0.01454,-0.403855 -0.185518,-0.36897 -0.345574,-1.014827 -0.04722,-2.041176 1.089856,-1.133781 2.479762,-2.89276 -0.682231,-0.761041 -1.978174,-1.212329 -0.0046,0.06388 10e-4,0.130861 -0.0026,0.195337 0.05539,-0.01423 0.155139,0.04991 0.327112,0.283704 -0.107983,0.410777 -0.255918,0.23579 -0.330729,0.02635 -0.01355,2.36036 0.875367,5.007448 -1.662948,6.199621 -0.212469,-3.112275 -3.98181,-0.210596 -1.454175,-1.463476 0.0556,2.17839 -0.82035,1.570426 1.241268,1.735294 0.893477,1.015417 5.509578,-0.312524 2.433444,1.013367 0.01503,3.91734 1.028134,0.0171 1.493448,1.7229 2.175984,-2.902434 2.098417,1.03243 3.226677,-1.13172 3.574469,0.0852 -0.549252,-0.12519 0.260449,1.68414 -0.967747,-0.67053 -1.847509,1.40031 -0.347782,1.46141 1.335139,1.44626 0.135778,-0.53564 2.311486,-0.56844 4.114973,-3.484598 -1.128543,1.99802 1.061434,0.71675 2.223523,1.22612 3.933929,2.65637 -0.283186,1.35237 -0.01183,0.17265 -0.03541,0.41578 -0.05374,0.63924 3.6e-5,6.6e-4 -3.5e-5,10e-4 0,0.002 0.0016,0.0307 0.0024,0.0625 0.0021,0.0951 0,0.0354 -0.0011,0.071 -0.0021,0.10645 -0.0026,0.0636 -0.0068,0.12716 -0.01964,0.18966 -0.0082,0.0382 -0.01923,0.0754 -0.03152,0.11213 -0.164421,1.14874 -0.632191,2.38773 -2.288232,1.86294 3.056099,0.96522 0.626455,2.26902 -0.529167,0.38292 -0.814521,-1.97169 -0.385952,2.30785 -1.719275,-0.5302 -2.270152,0.44154 0.413267,1.93601 0.857829,2.19367 2.675375,3.10305 -2.829056,0.65746 -0.395325,1.51153 2.271244,-1.06147 -2.587449,-2.11952 -2.85874,0.0961 -0.235338,3.03177 -0.250376,-1.9899 0.923458,-2.46445 -1.826897,-0.30366 -2.599336,-5.42993 -1.978691,-1.50999 -1.954702,3.55346 1.825085,-0.11781 1.121379,2.84738 -4.553576,1.5659 -0.115737,2.45185 1.035596,4.32583 -2.668962,2.61585 -1.169797,1.97746 0.732772,0.82631 2.107089,1.76005 -0.621014,-0.10158 -0.09198,2.08359 2.616456,-1.39102 0.237184,2.63159 10e-4,2.80861 -1.096586,0.22917 -3.895385,1.10726 -1.88619,3.98219 -0.552639,-4.24122 1.117187,0.1776 2.768824,-2.5771 3.133702,2.26041 -4.098764,1.09561 -2.085661,5.22397 -2.218136,1.23685 2.047914,2.70952 -0.393775,3.33003 -2.429837,-2.67176 -1.173012,1.65426 0.264584,0.87178 -1.058827,3.06649 2.090595,4.69882 -0.34985,7.22746 -0.29816,-2.60692 -3.072673,-4.57919 -3.234944,-7.33495 1.120947,-0.3952 1.86881,-6.19787 0.315743,-2.57194 -2.469641,-0.97161 0.06039,-0.0973 0.146761,-2.03036 -2.281219,-1.10608 -0.638621,3.43522 -2.083077,3.36362 -0.678485,-2.13072 -0.762174,-0.98884 -0.498161,1.37407 2.705944,0.40379 1.85092,2.02916 -0.254248,2.15853 -3.431078,0.33954 -1.899946,1.05371 -2.550232,3.81372 1.837435,-1.26185 1.05922,2.16112 2.043803,2.7311 1.011181,-3.18749 1.352938,3.72266 2.599841,0.26458 2.344828,1.22962 -0.555713,-1.89478 2.287716,-1.84588 -1.446724,2.0609 0.809044,2.70561 2.330607,3.04632 0.698687,-0.0829 5.854725,0.51089 2.434477,0.0873 2.825626,-1.37838 5.367868,2.07921 9.443351,1.59473 6.034752,0.47837 -1.242843,0.92094 -3.092318,1.35858 3.459563,0.46305 7.974788,-0.93591 11.891781,-0.53227 v -6.54844 c -0.04937,-4.33622 -0.163213,-7.62337 -0.445968,-11.18381 -2.092073,-0.62562 0.574287,3.52066 -1.697054,3.49436 0.0049,4.84808 -0.880135,0.19001 -1.296562,-0.58395 0.629034,5.31653 -2.131733,-1.64828 -4.07417,0.57206 1.87704,-2.5586 -2.218064,-0.79396 -0.489375,-2.31355 -2.465597,2.31274 -1.815944,-1.96975 -2.768824,-0.18035 -0.475236,4.20374 0.158124,-1.44885 -1.188041,-0.81391 -1.321294,-2.00725 -1.085882,-2.86676 -1.139982,-0.18448 -0.317395,2.53899 -0.781843,1.17315 -0.898653,0.42271 -3.172835,1.81213 0.800274,-3.04708 -1.628324,-2.91662 1.278137,2.9276 -1.840233,0.3565 -1.761133,1.13534 -1.540429,-2.50262 0.618741,-0.67281 1.191141,-2.20349 1.300153,1.21811 -0.189249,-2.07819 1.115695,-1.19062 1.178788,-2.68536 0.01246,3.82273 2.645833,1.88774 1.378481,-2.4718 1.701154,-4.85067 4.704106,-2.63705 1.508936,-3.89881 1.183342,0.45071 2.520259,-0.4377 0.808554,0.78292 3.176495,0.76694 3.177067,2.75229 -2.38384,3.51922 2.099772,1.32167 0.711068,2.38796 2.471423,1.24552 0.866594,-3.07536 1.311548,-4.45812 -0.05121,-2.7336 0.120088,-9.80805 -0.310576,-9.32398 -1.066735,-0.0895 -2.025647,-3.9113 -0.764294,-5.61826 1.200161,-1.44993 1.365573,-4.458 0.892452,-8.220684 -1.678585,2.359844 -4.894476,-2.591163 -2.223637,-2.408639 5.35763,-3.759796 -4.031072,1.426575 -2.133203,-3.423047 0.618433,-0.805715 -1.113957,-1.987871 -0.757576,0.703833 -2.776694,1.60876 -1.623965,-0.02401 -1.912028,-1.261421 -0.142668,-0.112365 -0.280022,-0.279158 -0.397909,-0.508496 -0.0061,-0.01191 -0.0571,-0.07927 -0.103353,-0.144694 0.0065,0.0112 -0.05428,-0.06795 -0.06666,-0.08423 -0.02479,-0.03263 -0.04756,-0.06496 -0.06925,-0.09715 -0.139653,-0.07404 -0.299205,-0.138724 -0.497644,-0.183968 0.240069,-3.676242 -1.574951,0.480396 -1.944067,-0.181901 -0.190633,0.0443 -0.260799,0.08109 -0.366903,0.11989 0.01353,0.189948 0.01927,0.344014 0.0031,0.383439 0.633287,0.295334 2.09156,0.661751 0.03152,1.709456 -1.410413,0.02138 -0.88433,-2.557815 -4.117578,-2.969328 0.159884,-1.237862 -0.397954,-1.853858 -0.888318,-1.922363 z m 4.971273,2.798796 c -0.0047,-0.06556 0.0086,-0.04426 -0.001,-0.132292 -0.170496,-0.183626 -0.175412,-0.01595 -0.144694,0.179834 0.03043,-0.01475 0.103592,-0.03213 0.145728,-0.04754 z m -0.145728,0.04754 c -0.223235,0.108269 -0.101304,0.211541 0.0987,0.311609 -0.04481,-0.06626 -0.07556,-0.164139 -0.0987,-0.311609 z m -3.186885,36.265487 c 0.0637,-0.0364 0.08646,-0.0341 0.156063,-0.076 -0.210968,-0.56166 -0.215303,-0.3071 -0.156063,0.076 z m -6.920508,-17.59789 c 0.124091,0.0206 0.252824,0.0356 0.38654,-0.008 -0.14301,-0.0572 -0.268611,-0.0555 -0.38654,0.008 z M 54.946836,92.63041 c 5.95e-4,-0.103608 1.84e-4,-0.207719 0.0036,-0.310059 -0.07326,0.01882 -0.05689,0.164573 -0.0036,0.310059 z M 43.524277,88.534019 c -0.245376,1.169548 -0.345539,0.716988 0,0 z m 18.840711,1.302246 c 0.06538,-0.05154 0.170417,-0.0068 0.32091,0.238745 -0.356655,0.936719 -0.517037,-0.08412 -0.32091,-0.238745 z m -5.861658,0.31781 c -1.263214,-0.05988 -3.179274,0.422887 -2.974496,1.983858 0.448502,0.832221 0.979638,-1.537706 2.032435,-0.712618 2.81605,-0.608875 2.205275,-1.21136 0.942061,-1.27124 z m 4.624524,0.10387 c 0.06402,0.02904 0.14189,0.09576 0.235128,0.21394 -0.448979,1.226506 -0.68325,-0.41721 -0.235128,-0.21394 z M 50.46959,90.537514 c -1.25636,-0.121054 -0.352984,0.847108 -0.166915,1.409733 -4.397113,-0.866732 -1.753103,-0.131791 -1.366325,2.095996 -0.111029,-0.0045 -0.173898,0.0012 -0.270785,-5.17e-4 0.07283,-0.275027 -0.34062,-1.098301 -0.38809,-0.09715 0.05923,0.05521 0.0924,0.06594 0.13746,0.09663 -1.862486,0.02355 -0.548059,0.793845 0.51263,3.421496 1.651505,-5.876003 1.881673,-1.357512 5.190381,-0.514697 0.13993,-2.161677 0.821809,-4.618226 -2.38125,-4.501534 -1.411028,2.169266 -0.862942,-0.772345 -0.588078,-1.786971 -0.276032,-0.0661 -0.499543,-0.105696 -0.679028,-0.12299 z m 0.679028,0.12299 c 0.0306,0.0073 0.04664,0.0075 0.07855,0.0155 0.0055,-0.03255 -4.07e-4,-0.02068 0.0052,-0.04858 -0.02509,0.0012 -0.04955,0.0014 -0.07286,5.17e-4 -0.0049,0.01803 -0.0057,0.01368 -0.01085,0.03256 z m 12.15068,-0.09819 c 0.05598,-0.09307 0.219166,-0.02941 0.557588,0.365869 0.07184,1.60484 -0.725535,-0.08666 -0.557588,-0.365869 z m -0.357085,1.16272 c -0.517007,1.741521 -1.266179,0.487804 0,0 z m 1.657264,0.103869 c 0.068,-0.03439 0.143124,0.01783 0.203088,0.24598 -0.544812,0.740705 -0.407091,-0.142825 -0.203088,-0.24598 z m -21.076233,0.09767 c -0.168904,-0.09283 -0.263636,0.179718 0.0248,1.295528 0.74334,0.02873 0.256392,-1.140867 -0.0248,-1.295528 z m 6.446635,0.266133 c 0.05485,-0.07402 0.145963,-0.0055 0.280603,0.359151 -0.284192,1.367041 -0.445148,-0.137078 -0.280603,-0.359151 z m 15.57786,0.227893 c 0.0793,0.0073 0.186775,0.09581 0.313159,0.331246 -0.533723,0.353343 -0.551058,-0.353261 -0.313159,-0.331246 z m -1.635042,0.192237 c 0.08026,-0.0068 0.195068,0.03408 0.353983,0.143143 0.230388,2.289982 -0.915772,-0.09546 -0.353983,-0.143143 z m 5.305102,0.396358 c 0.124645,-0.0086 0.324786,0.112454 0.611849,0.476973 -0.679683,0.738888 -0.98572,-0.451148 -0.611849,-0.476973 z M 58.516644,93.33786 c 0.1144,-0.02781 0.272956,0.04716 0.465088,0.324528 -0.752409,0.766145 -0.80829,-0.241108 -0.465088,-0.324528 z m 7.541658,0.645955 c 0.07443,0.0056 0.191836,0.04586 0.365869,0.135909 0.716205,1.505341 -0.886786,-0.174846 -0.365869,-0.135909 z m 3.839559,0.299724 c 0.04196,-0.02526 0.104321,0.179481 0.186552,0.822172 -0.254783,1.399222 -0.312426,-0.74639 -0.186552,-0.822172 z m -7.040397,0.0088 c 0.08957,-0.01042 0.301008,0.133725 0.622184,0.593245 -0.582351,-0.129454 -0.77146,-0.575881 -0.622184,-0.593245 z M 43.774391,94.65871 c -0.281727,-0.11092 -0.538091,2.992249 -0.386023,4.812626 l -0.0031,1.290364 0.0067,1.12396 c 0.149298,7.4032 1.191927,-3.019611 0.746207,-4.661216 -0.102517,-1.800696 -0.235744,-2.515316 -0.363802,-2.565734 z m 17.552934,0.579809 c 0.09938,-0.0397 0.06724,0.341556 -0.361218,1.598869 -0.334766,-0.297293 0.195584,-1.532697 0.361218,-1.598869 z m 3.498494,0.02429 c 0.06292,-0.02716 0.111915,0.02924 0.109038,0.251664 -0.609187,0.661061 -0.297728,-0.170195 -0.109038,-0.251664 z m -14.630114,0.114722 c -0.03671,0.06573 0.808527,0.805281 0.716235,1.195792 0.179997,0.56402 1.154821,0.08698 0.695565,-0.365869 -1.04992,-0.666258 -1.389772,-0.86936 -1.4118,-0.829923 z m 13.379545,0.898653 c 0.173334,-0.02833 0.311923,0.103372 0.312125,0.543636 -1.663519,1.064403 -0.832128,-0.458638 -0.312125,-0.543636 z m -6.426481,0.04702 c 0.325016,-0.01665 0.218217,1.029184 0.962732,1.919263 -0.581051,1.413551 -1.548507,-1.396501 -2.291333,-0.47904 0.782874,-1.037816 1.133554,-1.430235 1.328601,-1.440223 z m -7.018693,0.667143 c -0.899174,1.508839 -0.04345,1.447131 0.384989,3.599263 1.831263,1.25052 -0.205235,-2.70862 -0.384989,-3.599263 z m 9.749275,0.07441 c 0.01773,-0.03917 0.202519,0.06049 0.689881,0.434082 0.706967,1.048411 -0.743075,-0.31658 -0.689881,-0.434082 z m 7.979358,0.03204 c 0.05837,-0.0265 0.211573,0.03453 0.515731,0.269751 C 68.3616,98.0443 67.683608,97.1763 67.858709,97.096797 Z m -5.961393,0.166915 c 0.0935,-0.0075 0.168607,0.183709 0.170532,0.746724 -0.894106,1.085422 -0.451043,-0.724303 -0.170532,-0.746724 z m 12.168766,0.448034 c 0.131182,-0.0396 0.273203,8.94e-4 0.379305,0.207223 -1.068297,0.751453 -0.772787,-0.08843 -0.379305,-0.207223 z M 56.685748,98.2218 c 0.03907,0.0088 0.106831,0.04873 0.21239,0.132291 0.643067,1.272843 -0.485847,-0.193602 -0.21239,-0.132291 z m 0.756543,0.925008 c 0.07104,-0.0072 0.239395,0.105442 0.554488,0.415995 0.658616,1.890867 -0.862312,-0.384712 -0.554488,-0.415995 z m 11.279415,0.198437 c -0.114672,1.692035 -1.235686,-0.03006 0,0 z m -14.028085,0.191203 c -0.05618,-0.04403 -0.129315,0.03051 -0.209806,0.344165 0.394429,0.987307 0.378341,-0.212063 0.209806,-0.344165 z m 4.966105,0.473352 c 0.0845,-0.02966 0.211349,0.0299 0.380339,0.26717 -0.507009,0.71189 -0.633774,-0.17818 -0.380339,-0.26717 z m -14.550533,0.54364 c -0.241625,0.0708 -0.465587,0.36633 -0.553454,1.04696 2.161119,0.54648 1.278444,-1.2592 0.553454,-1.04696 z m 20.8132,0.007 c 0.068,-0.0344 0.143122,0.0178 0.203089,0.24598 -0.544876,0.74077 -0.407093,-0.14283 -0.203089,-0.24598 z m -2.491321,0.8568 c 0.0793,0.007 0.186776,0.0953 0.31316,0.33073 -0.533784,0.35336 -0.550996,-0.35274 -0.31316,-0.33073 z m -5.381583,0.26768 v 5.2e-4 c -0.149335,0.0702 -0.23224,0.41805 -0.09819,1.26091 1.123586,0.16721 0.65611,-1.04524 0.264066,-1.24644 -0.05881,-0.0302 -0.116103,-0.0384 -0.165881,-0.015 z m 7.242452,0.25735 c 0.09897,0.0417 0.159557,0.36155 0.10697,1.17926 -1.044668,1.07114 -0.403868,-1.3045 -0.10697,-1.17926 z m -19.570382,0.31885 c -0.370152,-0.1661 -1.697436,1.29049 -1.318782,3.15329 0.0412,0.78466 0.64721,-1.14987 0.502811,-1.04955 0.888999,-1.35622 1.025653,-2.00965 0.815971,-2.10374 z m 18.523417,0.91312 c 0.09349,-0.0359 0.166269,0.0241 0.160714,0.2775 -0.907461,0.80077 -0.441128,-0.16982 -0.160714,-0.2775 z m 9.374105,0.60358 c 0.03906,0.009 0.106833,0.0487 0.21239,0.13229 0.643131,1.27291 -0.485839,-0.1936 -0.21239,-0.13229 z m -15.695683,0.16226 c -1.544075,1.69705 1.110307,1.42988 -0.0124,2.85099 0.146823,0.009 0.263381,0.0567 0.345199,0.12919 0.817189,-0.78049 0.85189,-3.01836 -0.332797,-2.98018 z m -14.094747,1.78181 c -0.102917,0.0318 -0.150365,0.4986 0.05633,1.76526 0.440758,-0.66436 0.115326,-1.81824 -0.05633,-1.76526 z m 21.881869,0.76998 c 0.157841,-0.06 0.210531,0.14976 0,0.88625 -1.894107,1.90103 -0.473523,-0.70626 0,-0.88625 z m -2.042253,0.18861 c 0.133393,-0.0583 0.287576,0.0398 0.422713,0.45321 -1.037088,1.30342 -0.822829,-0.27843 -0.422713,-0.45321 z m 1.003557,1.77974 c 0.488063,-0.056 0.512171,0.11595 -1.059884,0.81132 -1.855362,0.008 0.246342,-0.71802 1.059884,-0.81132 z m -8.591207,0.007 c -0.0033,0.004 -0.006,0.006 -0.0093,0.0109 0.0054,-4.4e-4 0.0081,-0.002 0.01344,-0.003 -0.0015,-0.003 -0.0027,-0.006 -0.0041,-0.008 z m 9.264034,0.66921 c 0.08862,0.0149 0.216026,0.0607 0.392224,0.14883 0.266681,1.14656 -1.012562,-0.25312 -0.392224,-0.14883 z m 9.792684,0.17932 c 0.07616,-0.0103 0.209709,0.17475 0.42323,0.68316 -0.0042,3.07075 -0.753268,-0.63858 -0.42323,-0.68316 z m -11.667505,1.22421 c 0.384581,0.19101 1.339774,6.35732 1.002006,1.77354 0.425173,2.78561 4.329615,3.50843 0.971,4.28914 0.252775,-2.895 -3.251585,-1.13762 -3.418396,1.40043 -0.22525,2.36253 -1.59577,-1.04796 -0.217041,-1.54667 -2.015652,-1.45905 1.890897,-0.0386 1.536857,-3.49592 -0.06751,-1.88342 -0.0026,-2.48419 0.125574,-2.42052 z m -8.301302,0.31316 c 0.0037,-0.0364 -0.156928,0.0508 -0.624768,0.38241 -0.877803,0.94619 0.61363,-0.27311 0.624768,-0.38241 z m 2.50579,0.20877 c 0.08495,-0.0134 0.187672,0.0977 0.304374,0.4098 l -0.02067,0.52451 c -0.6795,1.51691 -0.65182,-0.8764 -0.283704,-0.93431 z m 9.460921,0.40825 c 0.0793,0.007 0.186775,0.0953 0.313159,0.33073 -0.533723,0.35334 -0.551058,-0.35275 -0.313159,-0.33073 z m -7.86567,1.7849 c 0.06292,-0.0271 0.11191,0.0288 0.109038,0.25115 -0.609181,0.66108 -0.297729,-0.16967 -0.109038,-0.25115 z m 15.954582,0.37776 c 0.02887,0.014 0.05616,0.18193 0.07596,0.60099 -0.350958,2.17019 -0.20133,-0.66156 -0.07596,-0.60099 z m -16.180924,1.74459 c 0.068,-0.0344 0.143126,0.0178 0.203088,0.24598 -0.544817,0.74075 -0.407092,-0.14283 -0.203088,-0.24598 z m 0.734322,1.75442 c 0.06266,-0.09 0.150331,-0.0138 0.258382,0.40979 -0.40703,1.62611 -0.446357,-0.13993 -0.258382,-0.40979 z m -3.154847,0.0155 c -0.133904,-0.0137 -0.280591,0.16214 -0.393774,0.69556 1.08229,1.09221 0.795675,-0.65429 0.393774,-0.69556 z m 6.941179,0.21549 c 0.511588,-0.0525 1.868038,0.55949 2.826184,1.03973 -1.139996,1.40688 -1.990662,-0.48961 -2.566252,-0.0558 -0.569707,-0.68186 -0.566922,-0.95241 -0.259932,-0.98392 z m 6.672461,0.23978 c 0.09426,-0.0567 0.180603,-0.002 0.212907,0.28319 -0.846658,1.05728 -0.495678,-0.11307 -0.212907,-0.28319 z m -13.394015,1.2299 c -0.06865,0.0259 0.128248,0.11965 0.848011,0.32711 1.954497,0.12494 -0.642058,-0.40477 -0.848011,-0.32711 z m 3.490227,0.0212 c 0.422407,0.0249 1.071773,0.41314 1.824178,1.50378 -2.584897,0.14561 -2.753612,-1.55853 -1.824178,-1.50378 z m 15.403711,0.1173 c 0.256001,0.0567 0.487812,0.75446 -0.01964,1.63814 l 0.02946,0.40308 -0.137976,0.16743 c -0.4088,-1.68095 -0.127906,-2.26533 0.128158,-2.20865 z M 62.74636,119.6035 c 0.248806,-0.0839 1.010091,0.93134 2.167826,1.50999 1.409749,-0.47803 1.876427,-0.0859 0.586011,1.25832 -0.916388,1.60875 -1.302226,-3.96699 -2.624129,-1.09813 -0.244114,-1.17352 -0.279029,-1.61981 -0.129708,-1.67018 z m -3.423047,0.0884 c 0.143699,0.006 0.333078,0.22279 0.54622,0.83044 -0.995793,1.03981 -0.977317,-0.8473 -0.54622,-0.83044 z m 18.06298,0.27078 c 0.125679,-0.006 0.266142,0.071 0.380855,0.30644 -0.999972,0.4841 -0.757892,-0.28757 -0.380855,-0.30644 z m -1.239201,1.43712 c 0.188348,0.0304 0.533781,0.26043 1.09089,0.8475 -0.80535,0.76461 -1.655873,-0.93879 -1.09089,-0.8475 z m -16.680635,0.016 c 0.05249,-0.0404 0.149921,0.0563 0.309025,0.4253 -0.217516,1.05152 -0.466495,-0.30425 -0.309025,-0.4253 z m 12.419913,0.1932 c -0.267898,0.0126 -0.694168,0.0589 -1.321883,0.1447 -2.366508,-0.53323 -3.826369,0.3613 -3.841109,2.73626 0.682241,0.41786 1.436319,-0.26044 2.114083,-0.24494 -0.968544,-1.16217 4.924508,-2.72384 3.048909,-2.63602 z m -10.552844,0.39791 c 0.02912,-0.0211 0.06567,-0.0168 0.110071,0.003 0.05075,0.0297 0.111794,0.096 0.183968,0.21188 -0.339999,1.01502 -0.497867,-0.0676 -0.294039,-0.21498 z m -4.53564,0.0548 c 0.08266,-0.007 0.195976,0.10903 0.331762,0.45578 -0.549011,0.68922 -0.579727,-0.43545 -0.331762,-0.45578 z m 11.90625,0.26458 c 0.08265,-0.007 0.195978,0.10904 0.331762,0.45579 -0.549017,0.68919 -0.579728,-0.43546 -0.331762,-0.45579 z m 2.372465,0.13849 c -0.391257,0.008 -0.542275,0.44164 0.10697,1.71308 2.77708,0.30724 0.753733,-1.73125 -0.10697,-1.71308 z m -15.73444,0.19017 c -0.01639,0.007 -0.115432,0.0961 -0.142111,0.11266 0.04734,-9.3e-4 0.08837,0.003 0.114722,0.017 0.06949,-0.0943 0.09882,-0.15851 0.02739,-0.12971 z m -13.104627,0.23461 c -0.0012,1.6e-4 -0.0024,3.7e-4 -0.0036,5.2e-4 0.002,0.001 0.0016,0.001 0.0036,0.002 -2e-6,-6.9e-4 3e-6,-0.001 0,-0.002 z m 30.801738,0.70694 c -0.08499,0.0408 -0.07629,0.27391 0.14211,0.84594 1.208934,0.63799 0.11281,-0.96834 -0.14211,-0.84594 z m -2.641183,0.50229 c -0.181237,-0.0602 -0.519541,0.47814 -1.019576,2.2562 1.058428,0.90541 1.418297,-2.12365 1.019576,-2.2562 z m -16.605188,0.62374 c -0.0028,0.006 -0.0049,0.005 -0.0078,0.0109 0.01342,0.0239 0.02268,0.0316 0.03566,0.0537 -0.004,-0.0101 -0.0078,-0.0204 -0.01188,-0.0305 -0.0053,-0.0114 -0.0107,-0.0227 -0.01602,-0.0341 z m 5.854423,0.45682 c 0.422959,0.0475 0.917728,0.3986 1.451074,1.41335 0.156332,0.36539 -0.466728,0.80449 -0.661458,0.40721 -2.013745,0.23651 -2.971418,-2.25879 -2.151807,-1.19528 0.151999,0.0598 0.657322,-0.70443 1.362191,-0.62528 z m 12.696383,0.53175 c -0.174194,0.008 -0.364389,0.23105 -0.510047,0.84697 1.410014,1.03196 1.032566,-0.87129 0.510047,-0.84697 z m -16.764352,0.3452 c -0.136079,-0.0343 -0.252225,0.0367 -0.271818,0.31832 1.271034,0.83595 0.680057,-0.21552 0.271818,-0.31832 z m 3.856096,1.18442 c 0.0528,-0.025 0.158398,0.0414 0.340031,0.28835 -0.179902,0.68444 -0.498419,-0.21336 -0.340031,-0.28835 z m 9.597347,0.0129 c -0.02985,-9.8e-4 -0.04126,0.0229 -0.04237,0.0615 0.04369,0.0303 0.052,0.0276 0.122473,0.0403 0.02205,-0.002 0.03053,-0.002 0.03772,-0.003 0.0024,-0.004 0.0088,-0.012 0.01137,-0.0165 0.0018,-0.003 0.0038,-0.006 0.0057,-0.01 -0.0065,-0.004 -0.01297,-0.009 -0.01912,-0.0134 -0.05376,-0.0406 -0.09097,-0.0581 -0.115755,-0.0589 z m 0.0072,0.33073 c 0.0013,0.005 0.0023,0.0106 0.0036,0.016 0.06191,0.0245 0.124583,0.0502 0.170532,0.0579 -0.05817,-0.0244 -0.116111,-0.049 -0.17415,-0.0739 z m -3.500044,0.35191 c 0.06538,-0.0515 0.170419,-0.007 0.32091,0.23875 -0.35666,0.93678 -0.517037,-0.0841 -0.32091,-0.23875 z m 10.058817,0.0372 c -0.657121,-0.0426 -1.856062,0.99493 -0.07648,1.20923 l -0.08578,0.44493 c 0.755816,-1.21353 0.556574,-1.6286 0.162264,-1.65416 z m -6.656441,1.21026 c 0.05389,-0.023 0.136068,-0.0126 0.253731,0.005 0.360545,1.35146 -0.630926,0.14588 -0.253731,-0.005 z m -9.811804,0.19482 c 0.0845,-0.0297 0.211346,0.0299 0.380338,0.26717 -0.506954,0.71188 -0.633839,-0.17818 -0.380338,-0.26717 z m -5.820834,0.52917 c 0.0845,-0.0297 0.211336,0.0299 0.380339,0.26717 -0.50697,0.71189 -0.633769,-0.17818 -0.380339,-0.26717 z m 23.056474,0.68781 c 0.06896,-0.0648 0.1329,0.006 0.158647,0.35812 -0.61565,1.25519 -0.36552,-0.16374 -0.158647,-0.35812 z m -12.405961,0.45476 c 0.0793,0.007 0.186771,0.0953 0.313159,0.33073 -0.533711,0.35336 -0.551057,-0.35274 -0.313159,-0.33073 z m -9.135876,0.15916 c -0.0528,-0.025 -0.158914,0.0414 -0.340548,0.28835 0.179909,0.68445 0.498876,-0.21335 0.340548,-0.28835 z m -14.309721,0.42168 c 0.02763,-0.004 0.06885,0.0189 0.127124,0.0816 0.145997,1.3359 -0.320537,-0.0508 -0.127124,-0.0816 z m 14.291117,0.2434 c -0.399804,-0.0566 -0.712282,0.48898 -0.520382,2.27893 2.703998,0.88495 1.400026,-2.15431 0.520382,-2.27893 z m 18.719788,2.27169 c 0.36227,-0.0503 0.8838,0.11777 1.607137,0.61754 1.152692,-0.44483 -3.348586,2.54045 -0.876433,3.10213 -0.886143,0.81521 -2.300748,-3.50169 -0.730704,-3.71967 z m -3.820956,0.31316 c -0.269165,0.71317 -1.129076,0.1905 0,0 z m -13.613639,0.015 c -0.02083,-0.0221 -0.08257,0.0321 -0.179317,0.15503 0.02494,0.0957 0.04734,0.20049 0.07338,0.28473 0.08257,-0.21435 0.13983,-0.40386 0.105937,-0.43976 z m 14.219287,0.28008 c 0.0793,0.007 0.186773,0.0953 0.313159,0.33073 -0.533719,0.35337 -0.551058,-0.35273 -0.313159,-0.33073 z m 3.36672,0.46096 c -0.08092,0.0167 -0.213705,0.16376 -0.407727,0.54673 0.42744,0.52873 0.650432,-0.59693 0.407727,-0.54673 z m -1.69137,0.11679 c 0.01713,-0.0537 0.104842,-0.005 0.316777,0.25528 0.217015,0.98387 -0.368153,-0.0943 -0.316777,-0.25528 z m 3.985287,0.0842 c -0.624376,2.51338 -1.324244,0.19726 0,0 z m -21.962484,0.44803 c 0.02763,-0.004 0.06885,0.0189 0.127124,0.0816 0.145993,1.33591 -0.320536,-0.0506 -0.127124,-0.0816 z m -0.639238,0.009 c 0.06537,-0.0515 0.170424,-0.007 0.320911,0.23874 -0.356711,0.93678 -0.51697,-0.0841 -0.320911,-0.23874 z m 22.55728,0.84542 c 0.07354,0.008 0.158155,0.0511 0.253214,0.14211 -0.742698,1.43431 -0.767985,-0.19937 -0.253214,-0.14211 z m -21.553723,0.10129 c 0.07002,0.0386 0.02951,0.35419 -0.24598,1.16789 -1.168037,1.09416 0.03591,-1.28368 0.24598,-1.16789 z m 2.041219,3.32021 c 0.22463,2.50229 -1.758521,0.0497 0,0 z m 3.898987,0.22014 c -0.01534,-0.0634 0.148501,0.0181 0.651639,0.39584 1.052958,1.28858 -0.605683,-0.20564 -0.651639,-0.39584 z" /></g></g></svg>
