<svg xmlns="http://www.w3.org/2000/svg" xml:space="preserve" width="372.742" height="474.194" viewBox="0 0 98.621 125.464"><path d="M99.55 85.743c-7.452 0-15.071 1.659-21.31 5.873-.49 1.434-6.093 2.913-5.564 4.333 6.045-3.243-5.007 3.288-3.325 3.718 1.37.415-1.806.626-1.515.748-3.235 3.279-3.841 7.105-6.244 10.545.17 1.125 5.103-6.15 2.558-1.21-1.802 1.722-2.677 5.013-3.541 6.75 1.489-2.633 3.102-.41 1.997.23-1.073.544-1.43 4.884-2.978 4.778-1.826 1.862.926 4.173-1.043 6.772.091-4.59-1.092-1.54-.15 1.042-2.173 4.14-1.457 9.938-2.458 14.68.167 3.068-.233 6.23.924 9.984 2.77 20.844 13.98 41.782 32.921 52.07 13.447 7.17 31.226 7.285 43.526-2.386 16.013-11.99 23.052-33.114 20.86-52.583.447-1.369-1.81-7.727-.503-5.118-.675-4.934-1.777-7.322-2.569-12.22-.866-.684-.411 2.565-1.616 1.544-2.069 3.765-2.916-5.3-3.557-6.919-1.276-5.464-2.113-11.204-4.725-16.218-4.242-3.525-6-8.71-10.48-12.428 1.265-.901 6.859 6.143 3.094 1.378-2.118-3.054-8.348-6.6-7.814-6.56-1.973-2.28-10.58-6.293-15.683-7.543-3.53-.868-7.172-1.26-10.805-1.26m1.286.328c2.831.183-2.893.167 0 0m-4.498.004c1.258.2-1.257.202 0 0m9.741.538c5.323.068 12.024 5.099 13.543 8.424-1.947-1.42-4.398-1.189-3.59-2.803-3.521-1.975-7.108-3.08-7.37-1.396-4.258-1.513 3.224.292-1.385-2.244-2.693-.214-4.403-2.659-.752-1.079 3.272 1.592 1.67.231-.446-.902m-4.905.393c6.216-.464-2.09 1.87-1.911.114l.731-.091zm-5.777.622c2.21.37-1.852.34 0 0m-5.822.013c2.022 1.074-5.018.395 0 0m13.181.443c5.1 4.356-9.681 1.692-2.27.694.821-.042 1.422-.861 2.27-.694m-6.011.15c-2.685 1.713-.464 1.085-.899 2.049-3.604 1.34-1.84-2.49.899-2.049m-6.237.268c1.592 2.92-2.127 1.153 0 0m-5.133.21c.995.85-2.137.502 0 0m.245.894c-.033.879-1.498.063 0 0m20.222.172c.8.401-1.188.106 0 0m-17.871.39c3.233.878-2.399 5.373-2.62 1.866-1.566-.059 2.298-2.37 2.62-1.866m10.623.37c2.3.281 3.053 4.85.58 3.712.808-.052-4.037-2.202-1.152-1.727 2.145.083-.533-1.333-.338-1.389l.337-.45zm-17.078.093c1.124 2.344-5.23 1.034-.64.09zm11.367.701c.906.662-.591.438 0 0m18.034.002c2.66 1.067 6.056 6.86.427 4.504-.095-2.386-5.379-1.845-4.293.74 3.86-2.67 3.896 6.92.883 4.64-.885-3.305-3.26-8.754 1.992-7.376 5.345.958-.965-1.14-1.266-1.776.703-.36 1.434-.81 2.257-.732m7.941.31c3.898.67 3.306 4.317 0 0m-36.397.675c4.192 1.643-5.147 5.087-1.375 1.77-2.093.757-3.51 1.522-1.57 1.836-1.122 1.336-3.254 2.266-1.88.431-3.378.372-1.73-.902-.099-1.328-1.348-1.238 2.179-2.278 1.76-.753 2.552-1.435-1.105-.733 2.206-1.8zm2.897.072c1.705 1.112-1.555.852 0 0m-2.513.264c-1.283.711-.681 1.25 0 0m8.965.543c3.94 1.757-1.927.708 0 0m5.115.88c2.653.593-1.443.618 0 0m27.459.43c2.407 1.429 6.602 6.96 1.759 2.558-.35-.636-2.561-1.881-1.76-2.559m-34.23.402c3.73.19.238 5.03.82.466.173.534-4.23.492-.82-.466m-6.539.117c.287 1.973-4.609 1.888-.672.185zm33.565.045c3.565 1.862 7.434 3.834 9.869 7.213 2.684 2.734-1.521.007 1.045 3.008 1.768 2.192 1.909 2.806.69 3.977 1.363 1.1 4.522 2.817 3.55 4.415-2.242-3.168-6.391-4.86-7.55-8.732-2.346-1.98-5.761-5.446-7.286-7.535 2.072 1.056 5.056 3.854 6.392 3.66-1.197-2.793-6.713-3.2-6.71-6.006m-7.469.085c1.4.152.913 1.635 0 0m-8.04.462c1.725.924 4.432 3.169.16 2.484-.932-.028-1.194-2.693-.16-2.484m18.215.476c1.282.711.682 1.249 0 0m3.203.035c2.005.562 8.072 8.373 3.486 4.09-.924-1.465-2.96-2.659-3.486-4.09m-34.586.23c2.178 1.719-.779 1.92 0 0m12.085 0c.59.438-.907.66 0 0m-24.062.264c.648.665-1.424.502 0 0m34.808.033c5.124 1.226-1.81 3.52 0 0m-13.937.496c1.704 1.99-3.824 2.542.253.258-.445.303-1.427-.06-.253-.258m16.09.009c4.166.408.488 2.104 0 0m-39.728.063c.458 1.43-2.58 1.54 0 0m22.361.2c1.266.576-2.78 2.31 0 0m2.148.357c1.405.162-.522.879 0 0m-19.128.827c.987.345-.903 1.101 0 0m-.784.132c1.064.987-2.057 1.255 0 0m20.63 0c2.97.843-1.681 3.39-2.012 4.498-.507-2.327 1.824-2.04-.565-3.387 1.639-1.012 1.048.051 2.578-1.111m-8.755.033c.82.392-1.152.104 0 0m-19.278.372c.164 2.148-3.507 3.962-3.753 3.565-3.04 1.402 3.555-2.75 3.753-3.565m24.335.124c.885.776-.503 1.226 0 0m-19.168.264c1.153.761-1.395.92 0 0m11.902.063c1.127.66-3.136 1.6 0 0m41.304.126c3.284 3.932 6.748 8.218 8.477 13.16.35 2.39 2.428 9.756-.963 4.216-3.235-5.28-5.242-11.197-7.526-16.913zm-18.493.169c5.378 2.657-2.38 3 0 0m-14.76.436c-1.941 1.783 1.264 4.323 2.475 2.349.15 1.774-1.783 3.244-2.91 2.163-2.574-1.046-.571-3.486.436-4.512m9.604.1c1.404.161-.522.878 0 0m14.226.201c2.021 1.298 1.58 3.885.551 3.668 2.567 1.259-1.199 5.251-3.124 4.655-1.681-5.531-2.252 3.314 1.7 1.845 3.486 1.28 8.686 11.152 3.389 11.094-2.27 1.5-6.286.124-2.684-.462 1.967-.877 4.359 1.369 1.975-1.787-1.664-5.433-8.365-6.27-8.883-12.58-1.727-4.135 4.306-6.088 4.12-2.181 3.31.587 2.74.638.87-1.542 1.041-1.935 2.728.362 2.086-2.71m-29.41.117c1.744 1.467.658 6.375.421 4.345.882-.111-1.424-3.385-.421-4.345m-3.52.496c1.121.905-.762 1.55 0 0m1.527.273c2.228.255-.787 1.895 0 0m13.791.4c1.202.207-1.125 1.646-.282.158zm-32.92.41c.486 2.432-6.217 10.617-3.102 4.573 1.158-1.326 1.148-3.895 3.102-4.573m39.637.183c4.193 1.141.124 3.911-.549.114zm23.181.07c1.407 1.09 1.511 1.84 0 0m-46.437.53c.62.198-.971 1.12 0 0m16.024.4c3.71.053 1.615 2.877 0 0m-1.846.461c2.892 2.391-2.363 1.402 0 0m-11.794.725c1 1.433-1.081.288 0 0m.868 1.82c.568.73-.397.91 0 0m35.39.831c3.452 2.27 6.021 5.856 9.367 8.15 1.872 4.728 3.717 9.5 5.038 14.143-.034 4.086 2.83 6.048 5.459 5.055 2.931 3.499 4.772 8.967 6.807 12.653.467-4.17-4.108-6.633-3.476-9.536 1.324.012 3.714 3.072 4.204 4.064.982 2.575.161 3.94-1.163 1.7 1.363 4.403 2.824 9.505 1.704 14.014-2.075-1.363 1.287 1.42-.93 2.536-.8 4.38-3.28.356-3.98.847 1.32 3.815-5.705 3.488-5.64-.672-2.516-2.116-8.06.468-10.52 1.942 2.004-2.142-4.07 1.306-1.063-2.34-1.783-1.182-4.576-.24-1.103.244.336 2.303-3.038 2.103-4.598 4.696-2.079-.135 3.162-1.602-.607-2.256 3.06-.25 4.305-2.4.83-4.032 1.12-2.086 2.812 3.239 3.308-1.055-1.318-.037-5.113.063-7.659-1.291-2.939.118-2.698-3.71-.035-1.207 3.743-1.188-4.162-.653-1.358-3.22-.806-3.603 3.58-12.06 7.632-6.75 1.129 2.435 2.31 4.704 3.205 4.533 1.404-2.392.259 3.12 2.312.246 2.719 3.365 1.673-.542 3.407-1.307 2.276-4.354-5.831 1.227-7.16-2.93-3.147-1.199-5.066-8.357-8.548-5.069-4.628-1.667-8.718-6.943-9.738-11.98-2.325-2.428-.7-10.811 2.2-4.855 1.39 2.801 3.593 5.197 4.782 7.256-3.22-1.878-1.555 5.977.867 2.741 2.325-.995 1.44-8.232 6.013-4.274-2.196-2.199-1.066-3.195-3.28-3.637-.114-3.106 1.153-3.717 1.452-.403 2.4.589 4.451 8.835 1.496 4.963.484 3.07 2.743 6.029 3.95 8.49.015-3.134 5.154.948 4.193-2.033-5.917 2.078-.483-6.514-5.1-8.475-1.763-2.91 4.77 1.363.5-1.587-5.322-4.602 3.067-10.744-2.376-15.575-.057-.859-1.648-3.387-.392-3.789m-2.214.27c3.69 3.971-4.509.287 0 0m-17.446.095c4.775.446 7.692 9.177 3.265 12.155-4.858-.38-7.473-10.708-3.265-12.155m25.557 1.404c1.395.82-.541.842 0 0m-13.23.21c1.868.688-.935.723 0 0m-6.42.53c.591.438-.906.66 0 0m28.102.558c.918.622.139 1.08 0 0m-15.3.647c1.699.946 2.983 6.087-.088 2.49-.907-.854-.664-1.739.088-2.49m-12.288.646c1.977 2.584-1.595 1.377 0 0m-24.035.051c1.665 1.151-1.116.355 0 0m53.134.214c3.161 3.254-.396 4.324 0 0m-27.247.529c.95.676-.95.676 0 0m.272.8c3.308 1.632-2.343.683 0 0m20.191.018c1.962 1.462 2.366 4.387.336.864zm5.411.908c.591 2.35 2.672 8.236 1.276 2.46-1.312-5.36 2.64 2.638 1.227 3.755 1.974 1.335 5.378 9.14 1.522 3.509-2.44-2.785-4.519-5.817-4.025-9.724m-24.466.945c-.376 1.53-2.467 4.696 1.138 3.548 2.539 1.841-5.41 4.852-3.644-.164.56-1.51 1.623-1.933 2.506-3.384m9.894.113c3.413.047 2.079 3.497.466 1.912-.187-.516-.86-1.36-.466-1.912m-6.318.185c3.769 2.113-1.019 2.492 0 0m-1.775 1.346c5.724 2.354-4.85 1.296 0 0m-21.433.27c3.474.55-1.787.735 0 0m24.067 1.041c3.72 3.101-2.11 2.942 0 0m17.69.195c.888 1.404 3.899 4.78.671 2.318-.349-.537-1.33-1.698-.671-2.318m-41.45 1.158c.546.72-.347.929 0 0m21.83.048c1.035.971-1.297 1.309 0 0m-21.377 1.043c-.418 2.205-1.955 2.148 0 0m20.794 1.1c3.261.822 1.302 6.63.308 2.567 2.134-2.622-4.956.644-.308-2.568m23.302.938c3.586 2.034 5.481 9.622 1.69 11.821-.55-3.305-3.148-8.74-1.93-11.396l.024-.32zm-2.544.264c1.114 1.18.84 2.693 0 0m-17.772.227c2.263 1.405-.883 2.064 0 0m3.667.152c1.745 1.325-1.832.356 0 0m15.464.901c.994.962-1.64 1.621 0 0m-13.905.497c1.278 3.238-2.221.505 0 0m-9.605 1.166c3.842 1.592.666 3.296 0 0m4.94.708c1.555 2.04-1.5 1.091 0 0m5.281.276c1.652 1.404-1.18.471 0 0m-16.134 1.588c1.095 3.18-2.088 3.201 0 0m16.637.025c3.404 1.443.494 6.734 0 0m19.47.228c2.154 3.077-1.26 2.498 0 0m-5.6.632c.869.67-.002 1.117 0 0m-13.465 2.959c4.77 3.522-4.243.572 0 0m.506.741c-.522.879 1.404.162 0 0m18.252.266c.547.72-.346.928 0 0m5.482 5.059c1 1.433-1.081.288 0 0m-40.182 4.91c1.685 1.635-2.28.676 0 0m.736 1.2c.905.806-.603 1.544 0 0m27.275 1.477c-.953 3.747 6.858 5.518 6.817 10.562.747 2.937 1.965 1.224 1.119-1.177 1.74 1.156-2.524-2.097-.402-4.174-2.742-.122-4.94-3.025-7.534-5.21m-15.454 9.007c-.126 2.606 3.154 1.045 0 0m31.139 1.101c.546.72-.346.929 0 0m-12.085.632c-.096.007.072.006 0 0m12.271.462c.888.29-.505 1.073 0 0m-34.38.937c1.601 1.096-.714 1.205 0 0m2.587.133c3.56 1.273-.718 1.71 0 0m31.369.14c.87.83-.516 1.313 0 0m-32.607.962c1.974 1.8-2.129.697 0 0m32.61.338c.931.879-.499 1.178 0 0m-29.01.328c3.414.527-2.721.96 0 0m3.612.36c-1.408.022-.128 1.453 0 0m-1.661.378c.368 1.324-1.818.994 0 0m14.022.008c.42 2.228-3.008.257-.209.09zm-17.51.78c.907.661-.59.437 0 0m5.918.866c-.034 1.52-2.485 2.139 0 0m1.98.207c1.001 1.786-2.46 2.268 0 0m-.816.08c.365 1.092-1.306.436 0 0m-6.54.569c.62.197-.97 1.12 0 0m21.288.012-.067.006zm-18.094.382c.591.439-.906.66 0 0m-5.763.1c.568.73-.397.91 0 0m8.8.524c-1.758 2.528-2.692.31 0 0m7.55.484c1.074 1.127-1.151.683 0 0m-17.863.478c.47.713-.942.505 0 0m29.022.077c1.21 1.752-1.67 2.1 0 0m1.05.213c1.22 1.43-.444 1.718 0 0m-5.498 1.325c-.454 1.904-1.17.442 0 0m-16.917.237c.986.511-.943.529 0 0m15.727.794c.907.662-.591.438 0 0m-11.214.928c.924 1.07-3.133.263 0 0m10.405.262c.883 1.566-2.787.814 0 0" style="fill:#000" transform="translate(-55.977 -85.743)"/></svg>