<?xml version="1.0" encoding="UTF-8" standalone="no"?>
<!-- Created with Inkscape (http://www.inkscape.org/) -->

<svg
   width="98.621445mm"
   height="125.46376mm"
   viewBox="0 0 98.621445 125.46376"
   version="1.1"
   id="svg1"
   xml:space="preserve"
   xmlns="http://www.w3.org/2000/svg"
   xmlns:svg="http://www.w3.org/2000/svg"><defs
     id="defs1" /><g
     id="layer1"
     transform="translate(-55.977094,-85.743085)"><path
       id="path1"
       style="fill:#000000"
       d="m 99.549996,85.743087 c -7.452118,-5.75e-4 -15.071433,1.658569 -21.310309,5.873079 -0.488747,1.433345 -6.09276,2.913078 -5.563375,4.333204 6.045089,-3.243526 -5.006859,3.287473 -3.325505,3.717415 1.370583,0.415545 -1.806286,0.626615 -1.514634,0.747755 -3.234995,3.2791 -3.841531,7.10543 -6.24431,10.54559 0.169962,1.12526 5.102651,-6.15021 2.558108,-1.21043 -1.801518,1.72207 -2.676815,5.01313 -3.541218,6.75093 1.489248,-2.6333 3.102704,-0.41076 1.997253,0.2292 -1.072817,0.54404 -1.42954,4.88414 -2.977905,4.77827 -1.826025,1.86228 0.925982,4.173 -1.043039,6.77193 0.09141,-4.58935 -1.092392,-1.53921 -0.14957,1.0419 -2.173896,4.14038 -1.457605,9.93764 -2.458398,14.68068 0.167094,3.06768 -0.23332,6.23009 0.924351,9.98387 2.769577,20.84321 13.979436,41.78102 32.920815,52.06924 13.44667,7.16996 31.22579,7.2848 43.5258,-2.38584 16.01332,-11.99031 23.05156,-33.11354 20.85966,-52.58311 0.44766,-1.36839 -1.80978,-7.72662 -0.50239,-5.1179 -0.67553,-4.93359 -1.7772,-7.32167 -2.56896,-12.22001 -0.86657,-0.68406 -0.41186,2.565 -1.61684,1.54366 -2.06806,3.765 -2.91584,-5.30006 -3.55688,-6.91844 -1.27547,-5.4638 -2.11265,-11.20444 -4.72478,-16.21813 -4.24234,-3.52499 -6.00038,-8.71047 -10.48047,-12.427555 1.26587,-0.901793 6.85935,6.143075 3.09499,1.377485 -2.11864,-3.054193 -8.34866,-6.599731 -7.81463,-6.560227 -1.9732,-2.280232 -10.58017,-6.292422 -15.68275,-7.542361 -3.53058,-0.868729 -7.17171,-1.260533 -10.805014,-1.260205 z m 1.286224,0.327628 c 2.83098,0.182793 -2.893535,0.166949 0,0 z m -4.497914,0.0047 c 1.257674,0.20039 -1.257546,0.201273 0,0 z m 9.741004,0.537952 c 5.32221,0.06779 12.02363,5.098336 13.54233,8.423258 -1.94669,-1.41914 -4.39801,-1.188224 -3.59035,-2.802867 -3.52052,-1.974342 -7.10767,-3.080381 -7.36867,-1.395843 -4.25867,-1.512503 3.2236,0.291659 -1.3859,-2.243487 -2.69285,-0.214021 -4.40322,-2.659028 -0.75195,-1.079307 3.27236,1.591484 1.67034,0.231321 -0.44546,-0.901754 z m -4.90512,0.392741 c 6.2156,-0.463699 -2.090698,1.869434 -1.911487,0.114188 l 0.731472,-0.09137 1.180015,-0.02282 z m -5.777429,0.622184 c 2.209793,0.36982 -1.85197,0.339967 0,0 z m -5.82135,0.01292 c 2.021933,1.073827 -5.018699,0.394322 0,0 z m 13.180589,0.44235 c 5.09939,4.355975 -9.6811,1.692903 -2.27089,0.694907 0.82212,-0.04254 1.42334,-0.861921 2.27089,-0.694907 z m -6.011001,0.150896 c -2.685187,1.712243 -0.464283,1.084724 -0.898653,2.048454 -3.604641,1.339648 -1.839744,-2.490718 0.898653,-2.048454 z m -6.236828,0.267167 c 1.592154,2.919927 -2.12707,1.153298 0,0 z m -5.13302,0.210323 c 0.99487,0.849973 -2.136818,0.501552 0,0 z m 0.244429,0.894002 c -0.03211,0.878559 -1.497587,0.06269 0,0 z m 20.22202,0.172083 c 0.79959,0.401298 -1.18746,0.106184 0,0 z M 87.970858,90.16814 c 3.232753,0.877912 -2.398802,5.37245 -2.619995,1.865534 -1.565631,-0.05828 2.297948,-2.369233 2.619995,-1.865534 z m 10.623641,0.37052 c 2.299771,0.280584 3.052341,4.850137 0.578975,3.711313 0.808072,-0.05148 -4.036699,-2.201823 -1.15155,-1.726936 2.145296,0.08291 -0.532859,-1.333357 -0.337964,-1.389063 l 0.337453,-0.449994 0.573086,-0.145318 z m -17.078028,0.0925 c 1.123067,2.34408 -5.23003,1.033934 -0.640259,0.0906 z m 11.366748,0.70125 c 0.905989,0.661826 -0.59127,0.437836 0,0 z m 18.034041,0.0016 c 2.6589,1.067225 6.05595,6.859085 0.42667,4.504245 -0.0946,-2.386621 -5.37884,-1.845613 -4.29258,0.738846 3.8604,-2.669307 3.89559,6.921319 0.88259,4.641209 -0.88508,-3.304979 -3.25977,-8.754085 1.99177,-7.376799 5.34521,0.958698 -0.96441,-1.139273 -1.26534,-1.775011 0.70279,-0.360807 1.43313,-0.810895 2.25689,-0.73249 z m 7.94112,0.309542 c 3.89793,0.670482 3.3055,4.317207 0,0 z m -36.397263,0.675411 c 4.191959,1.643142 -5.147332,5.086845 -1.375023,1.77012 -2.093446,0.75682 -3.510233,1.521606 -1.570534,1.835861 -1.121502,1.335608 -3.253771,2.266408 -1.879719,0.43136 -3.377529,0.372053 -1.730083,-0.902263 -0.09885,-1.327944 -1.348192,-1.23805 2.178526,-2.278249 1.759693,-0.753234 2.552796,-1.434949 -1.104888,-0.732773 2.206571,-1.800485 z m 2.89698,0.07183 c 1.705269,1.112112 -1.555003,0.851716 0,0 z m -2.513541,0.264583 c -1.282658,0.710809 -0.680668,1.249421 0,0 z m 8.965344,0.542603 c 3.939411,1.756707 -1.926549,0.707538 0,0 z m 5.11545,0.88005 c 2.653149,0.592599 -1.443672,0.618296 0,0 z m 27.45827,0.429431 c 2.40699,1.429538 6.60246,6.96095 1.75907,2.559017 -0.34966,-0.636707 -2.56118,-1.881593 -1.75907,-2.559017 z m -34.228916,0.402559 c 3.72845,0.190805 0.237158,5.03085 0.820095,0.465557 0.17227,0.534102 -4.230992,0.492807 -0.820095,-0.465557 z m -6.539653,0.116789 c 0.286905,1.973569 -4.608611,1.887952 -0.672385,0.185603 z m 33.565389,0.04496 c 3.56416,1.861782 7.43332,3.833925 9.86814,7.213512 2.68442,2.73354 -1.52104,0.007 1.04592,3.00757 1.76772,2.1921 1.90812,2.80598 0.68915,3.97694 1.36363,1.09968 4.52204,2.81727 3.55077,4.41538 -2.24266,-3.16803 -6.39156,-4.86063 -7.54957,-8.73212 -2.34692,-1.98002 -5.76196,-5.44598 -7.28658,-7.535172 2.0716,1.056439 5.05561,3.854352 6.39202,3.659812 -1.19699,-2.792968 -6.71286,-3.199358 -6.70985,-6.005922 z m -7.46931,0.08527 c 1.40082,0.151509 0.91302,1.635216 0,0 z m -8.03982,0.461988 c 1.72499,0.923607 4.43189,3.16887 0.1603,2.483886 -0.93256,-0.02779 -1.1951,-2.692633 -0.1603,-2.483886 z m 18.21491,0.47594 c 1.28162,0.711095 0.68206,1.249008 0,0 z m 3.20291,0.03514 c 2.00529,0.561879 8.07159,8.372974 3.48568,4.089984 -0.92423,-1.464875 -2.95972,-2.659023 -3.48568,-4.089984 z m -34.586005,0.229443 c 2.178367,1.71927 -0.778748,1.919667 0,0 z m 12.084535,0 c 0.59041,0.438744 -0.906717,0.660926 0,0 z m -24.061582,0.264583 c 0.647717,0.664767 -1.42429,0.502281 0,0 z m 34.808212,0.03256 c 5.12366,1.226239 -1.81106,3.520798 0,0 z m -13.937651,0.496611 c 1.704847,1.988998 -3.823637,2.542025 0.253589,0.257558 -0.445642,0.302768 -1.427047,-0.05928 -0.253589,-0.257558 z m 16.091011,0.0083 c 4.16491,0.408805 0.48742,2.10414 0,0 z m -39.728328,0.06304 c 0.458162,1.430545 -2.580232,1.540345 0,0 z m 22.360909,0.200505 c 1.265322,0.575627 -2.780401,2.310349 0,0 z m 2.148189,0.356567 c 1.404312,0.161919 -0.522049,0.878919 0,0 z m -19.128031,0.826823 c 0.987068,0.34517 -0.903864,1.101722 0,0 z m -0.784448,0.132292 c 1.064322,0.987002 -2.057303,1.255542 0,0 z m 20.630782,0 c 2.969577,0.843416 -1.682197,3.39064 -2.012797,4.49843 -0.507292,-2.32758 1.823727,-2.03973 -0.564864,-3.387251 1.638732,-1.011746 1.047922,0.05129 2.577658,-1.111169 z m -8.755538,0.03307 c 0.820131,0.391627 -1.152372,0.104366 0,0 z m -19.27841,0.372587 c 0.163766,2.147903 -3.507105,3.961023 -3.753122,3.564383 -3.039946,1.40211 3.554983,-2.750206 3.753122,-3.564383 z m 24.335466,0.123423 c 0.884443,0.77658 -0.502755,1.22627 0,0 z m -19.168339,0.264583 c 1.153228,0.760817 -1.395336,0.919217 0,0 z m 11.901599,0.06253 c 1.127005,0.659777 -3.135715,1.599927 1.5e-5,0 z m 41.304459,0.125574 c 3.28429,3.932183 6.74842,8.218353 8.47753,13.161243 0.34933,2.38941 2.4275,9.7549 -0.96369,4.21566 -3.23493,-5.28135 -5.24144,-11.19798 -7.52584,-16.91389 z m -18.49293,0.168982 c 5.37806,2.657671 -2.38014,3.000991 0,0 z m -14.759308,0.436671 c -1.942007,1.7827 1.263247,4.32227 2.474272,2.34869 0.149646,1.77415 -1.783034,3.24438 -2.910935,2.16318 -2.573344,-1.04653 -0.57032,-3.48637 0.436663,-4.51187 z m 9.603028,0.0992 c 1.40432,0.16191 -0.52205,0.87891 0,0 z m 14.22601,0.20153 c 2.02128,1.29843 1.5798,3.88463 0.55139,3.668 2.56728,1.25889 -1.19881,5.25122 -3.12371,4.65525 -1.68177,-5.53139 -2.25259,3.31415 1.69974,1.84478 3.48604,1.2806 8.68617,11.1515 3.38843,11.09433 -2.26895,1.49903 -6.28601,0.12357 -2.6838,-0.46259 1.96754,-0.87684 4.35882,1.36923 1.97566,-1.78716 -1.66446,-5.43243 -8.36541,-6.26958 -8.88347,-12.57876 -1.72714,-4.13617 4.30641,-6.08894 4.11976,-2.18211 3.31055,0.58695 2.73968,0.63815 0.87085,-1.54183 1.04073,-1.93516 2.72723,0.36205 2.08515,-2.70991 z m -29.410092,0.11731 c 1.744263,1.46669 0.658618,6.37487 0.421679,4.34444 0.881582,-0.11106 -1.424409,-3.38458 -0.421679,-4.34444 z m -3.519682,0.49609 c 1.121263,0.90414 -0.761865,1.5494 0,0 z m 1.526522,0.27234 c 2.228773,0.25544 -0.786907,1.89568 0,0 z m 13.791922,0.40101 c 1.20166,0.20606 -1.1251,1.64514 -0.28283,0.1576 z M 69.370959,102.325 c 0.485771,2.43171 -6.21733,10.61688 -3.102107,4.57262 1.158319,-1.32546 1.14811,-3.8944 3.102107,-4.57262 z m 39.636861,0.18294 c 4.19365,1.1412 0.12381,3.91114 -0.54865,0.11414 z m 23.18153,0.0692 c 1.40659,1.09029 1.5107,1.84046 0,0 z m -46.436961,0.53124 c 0.61885,0.19789 -0.971458,1.11988 0,0 z m 16.023311,0.39894 c 3.71117,0.0541 1.61574,2.87801 0,0 z m -1.845882,0.46199 c 2.892482,2.39066 -2.363246,1.40194 0,0 z m -11.793596,0.7245 c 0.998984,1.43274 -1.08171,0.28853 0,0 z m 0.867648,1.82005 c 0.568035,0.73011 -0.397214,0.90965 0,0 z m 35.3906,0.83147 c 3.4518,2.27052 6.02055,5.85594 9.36608,8.15016 1.87255,4.72791 3.71723,9.49913 5.03823,14.14212 -0.0335,4.08614 2.83076,6.04844 5.45919,5.05577 2.93143,3.49839 4.77242,8.96704 6.80671,12.6526 0.46708,-4.16944 -4.10774,-6.6329 -3.47571,-9.53584 1.32371,0.0116 3.71407,3.07203 4.20431,4.06349 0.98159,2.57557 0.16097,3.94101 -1.16327,1.70091 1.36258,4.40275 2.82363,9.5042 1.70439,14.01321 -2.07501,-1.36235 1.28706,1.41945 -0.93072,2.53628 -0.79925,4.38023 -3.27981,0.35611 -3.97891,0.84666 1.31907,3.81507 -5.70555,3.48848 -5.64051,-0.67126 -2.51655,-2.11678 -8.05949,0.46794 -10.52044,1.94126 2.0045,-2.14184 -4.07004,1.3061 -1.06331,-2.3401 -1.78251,-1.18117 -4.57546,-0.24041 -1.1022,0.24459 0.33565,2.30254 -3.03795,2.10309 -4.59782,4.69613 -2.07915,-0.13492 3.16135,-1.60262 -0.60704,-2.2561 3.05869,-0.24927 4.30449,-2.40056 0.83019,-4.03191 1.11933,-2.08615 2.81138,3.23822 3.30736,-1.05536 -1.31839,-0.0367 -5.11266,0.0627 -7.6589,-1.2912 -2.93894,0.11846 -2.69769,-3.71017 -0.0355,-1.20715 3.74318,-1.18715 -4.16197,-0.6521 -1.35806,-3.21945 -0.80528,-3.6029 3.58071,-12.06067 7.63279,-6.75012 1.12871,2.43496 2.30902,4.70387 3.20428,4.5332 1.40463,-2.39209 0.25939,3.12033 2.31201,0.24597 2.71916,3.36508 1.67348,-0.54233 3.40703,-1.30741 2.27657,-4.35417 -5.831,1.22736 -7.15977,-2.93006 -3.14651,-1.19853 -5.06576,-8.35716 -8.54814,-5.06829 -4.62725,-1.66789 -8.71741,-6.9439 -9.73808,-11.98028 -2.32417,-2.42814 -0.70033,-10.81138 2.20038,-4.85552 1.38993,2.80159 3.5934,5.19745 4.78207,7.25652 -3.2209,-1.87809 -1.55495,5.97712 0.8672,2.74132 2.32464,-0.99559 1.43877,-8.23261 6.01306,-4.27491 -2.19615,-2.19844 -1.06609,-3.19465 -3.28053,-3.63703 -0.11357,-3.10568 1.15296,-3.7165 1.4526,-0.40276 2.39923,0.58921 4.45098,8.83481 1.49527,4.96279 0.48431,3.06956 2.74323,6.02908 3.95052,8.4901 0.0149,-3.13381 5.15331,0.94847 4.193,-2.03269 -5.91679,2.0785 -0.4831,-6.51384 -5.10015,-8.47459 -1.76301,-2.91125 4.76993,1.3626 0.4993,-1.58783 -5.32146,-4.6016 3.0681,-10.7439 -2.37542,-15.5747 -0.0571,-0.85851 -1.64772,-3.38705 -0.39146,-3.78852 z m -2.21485,0.26923 c 3.68988,3.97185 -4.50827,0.28731 0,0 z m -17.44596,0.0951 c 4.77559,0.44647 7.6923,9.17766 3.2651,12.15534 -4.85747,-0.37942 -7.47265,-10.70775 -3.2651,-12.15534 z m 25.55709,1.40405 c 1.39486,0.8212 -0.54117,0.84188 0,0 z m -13.23019,0.21032 c 1.8685,0.68773 -0.93455,0.72315 0,0 z m -6.41874,0.52917 c 0.59042,0.43875 -0.90671,0.66093 0,0 z m 28.10165,0.55862 c 0.91708,0.62182 0.13815,1.08022 0,0 z m -15.30088,0.64751 c 1.69931,0.94615 2.98296,6.08645 -0.0874,2.48985 -0.9073,-0.85408 -0.66465,-1.73893 0.0874,-2.48985 z m -12.28762,0.64596 c 1.97655,2.58327 -1.59467,1.37697 0,0 z m -24.034706,0.0511 c 1.664624,1.15061 -1.115939,0.35466 0,0 z m 53.133706,0.21343 c 3.16119,3.25408 -0.39622,4.32379 0,0 z m -27.24691,0.52917 c 0.94918,0.67599 -0.94918,0.67599 0,0 z m 0.27233,0.79943 c 3.30777,1.6321 -2.34294,0.68355 0,0 z m 20.19102,0.0186 c 1.96198,1.46166 2.36582,4.38728 0.33522,0.86423 l -0.33526,-0.86423 z m 5.41103,0.90796 c 0.59094,2.34908 2.67171,8.23603 1.2759,2.45979 -1.31272,-5.36016 2.63885,2.63818 1.22626,3.75533 1.97395,1.33534 5.37856,9.13982 1.52238,3.50883 -2.44007,-2.78473 -4.51884,-5.81651 -4.02454,-9.72395 z m -24.46672,0.94516 c -0.37593,1.53075 -2.46625,4.69557 1.13792,3.5481 2.53918,1.84093 -5.40992,4.85206 -3.64319,-0.16433 0.56044,-1.50955 1.62251,-1.93261 2.50527,-3.38377 z m 9.89449,0.11317 c 3.41301,0.0462 2.07831,3.49651 0.46561,1.91204 -0.18673,-0.51655 -0.85941,-1.36031 -0.46561,-1.91204 z m -6.31848,0.185 c 3.76928,2.11292 -1.01858,2.49152 0,0 z m -1.77508,1.34565 c 5.72444,2.3543 -4.84952,1.29607 0,0 z m -21.432288,0.26976 c 3.473612,0.54979 -1.787511,0.73494 0,0 z m 24.066748,1.04128 c 3.71921,3.10125 -2.11066,2.94182 0,0 z m 17.68988,0.19482 c 0.88805,1.40457 3.89904,4.78036 0.67127,2.31821 -0.34887,-0.53742 -1.33114,-1.69755 -0.67127,-2.31821 z m -41.450704,1.15858 c 0.546699,0.72033 -0.345823,0.92828 0,0 z m 21.831224,0.0475 c 1.034,0.97112 -1.29712,1.30886 0,0 z m -21.377505,1.04283 c -0.417803,2.20568 -1.955419,2.14805 0,0 z m 20.793565,1.09967 c 3.26164,0.82247 1.30204,6.63051 0.30851,2.56781 2.13361,-2.62237 -4.95658,0.64356 -0.30851,-2.56781 z m 23.30193,0.93897 c 3.58684,2.03382 5.48157,9.62208 1.69082,11.82103 -0.55102,-3.30518 -3.14863,-8.74021 -1.93008,-11.39625 l 0.0236,-0.32036 z m -2.54351,0.26406 c 1.11364,1.17866 0.84011,2.69263 0,0 z m -17.77152,0.22686 c 2.26245,1.40452 -0.8835,2.06357 0,0 z m 3.66696,0.15193 c 1.74418,1.32443 -1.83256,0.35602 0,0 z m 15.46313,0.90124 c 0.99451,0.96198 -1.63978,1.62051 0,0 z m -13.90457,0.49661 c 1.2782,3.23752 -2.22149,0.50487 0,0 z m -9.60458,1.16582 c 3.8415,1.59221 0.66599,3.29565 0,0 z m 4.93923,0.70797 c 1.55575,2.04101 -1.49883,1.09138 0,0 z m 5.28185,0.27595 c 1.65109,1.40381 -1.17986,0.47149 0,0 z m -16.13494,1.58853 c 1.09565,3.17898 -2.08759,3.20069 0,0 z m 16.63723,0.0248 c 3.40427,1.44241 0.49388,6.73362 0,0 z m 19.47013,0.22738 c 2.154,3.07779 -1.2604,2.49826 -1e-5,0 z m -5.59914,0.63252 c 0.86803,0.67003 -0.003,1.11714 0,0 z m -13.46585,2.95899 c 4.76966,3.52244 -4.24327,0.57195 0,0 z m 0.50592,0.74104 c -0.52205,0.87893 1.40431,0.16192 0,0 z m 18.25211,0.26562 c 0.54669,0.72046 -0.34595,0.92817 0,0 z m 5.48235,5.05912 c 0.999,1.43274 -1.08171,0.28852 0,0 z m -40.18255,4.91081 c 1.68491,1.63406 -2.27971,0.67548 0,0 z m 0.73587,1.19993 c 0.90556,0.80572 -0.60267,1.54322 0,0 z m 27.27533,1.47691 c -0.9529,3.74651 6.85787,5.51797 6.81682,10.56164 0.74682,2.93674 1.96539,1.2239 1.11875,-1.17751 1.74092,1.15627 -2.52378,-2.09656 -0.40129,-4.1736 -2.74258,-0.12179 -4.94076,-3.02501 -7.53428,-5.21053 z m -15.45435,9.00617 c -0.12547,2.60597 3.15465,1.04498 0,0 z m 31.13919,1.10174 c 0.54669,0.72045 -0.34591,0.92818 0,0 z m -12.08454,0.632 c -0.0962,0.007 0.0718,0.006 0,0 z m 12.27109,0.46148 c 0.88729,0.29104 -0.50534,1.07275 0,0 z m -34.37981,0.93741 c 1.60067,1.09524 -0.7142,1.20509 0,0 z m 2.58692,0.1328 c 3.55871,1.27277 -0.71872,1.70914 0,0 z m 31.36811,0.13953 c 0.86965,0.82952 -0.51552,1.31339 0,0 z m -32.6068,0.96273 c 1.97407,1.7988 -2.12866,0.69674 0,0 z m 32.61093,0.33797 c 0.9306,0.87834 -0.49972,1.17779 0,0 z m -29.01011,0.32763 c 3.41353,0.52677 -2.72155,0.96026 0,0 z m 3.61115,0.3607 c -1.40787,0.0216 -0.12747,1.45202 0,0 z m -1.66088,0.37723 c 0.36781,1.32444 -1.81824,0.99402 0,0 z m 14.02188,0.008 c 0.42063,2.22797 -3.00813,0.25698 -0.20826,0.0904 z m -17.50901,0.77979 c 0.90599,0.66183 -0.59127,0.43784 0,0 z m 5.91695,0.8661 c -0.0334,1.51978 -2.48442,2.1391 0,0 z m 1.98024,0.20722 c 1.00113,1.78652 -2.45935,2.26808 0,0 z m -0.81545,0.0801 c 0.36481,1.09205 -1.3063,0.4359 0,0 z m -6.53965,0.56844 c 0.6188,0.19757 -0.9714,1.12106 0,0 z m 21.28758,0.0124 -0.0672,0.006 z m -18.09398,0.38241 c 0.59057,0.43827 -0.90678,0.66052 0,0 z m -5.76296,0.0992 c 0.56804,0.7301 -0.39721,0.90967 0,0 z m 8.79998,0.524 c -1.75798,2.52876 -2.69232,0.31028 0,0 z m 7.55045,0.48472 c 1.07287,1.12677 -1.15194,0.68276 0,0 z m -17.86351,0.47801 c 0.47001,0.71294 -0.94215,0.50515 0,0 z m 29.022,0.077 c 1.20883,1.75194 -1.66984,2.09926 0,0 z m 1.04955,0.2129 c 1.21917,1.43063 -0.44428,1.71816 0,0 z m -5.49838,1.32499 c -0.45386,1.90435 -1.17032,0.44145 0,0 z m -16.91628,0.23719 c 0.98586,0.51093 -0.94375,0.5285 0,0 z m 15.72721,0.79375 c 0.90613,0.66213 -0.59152,0.43807 0,0 z m -11.2143,0.92759 c 0.92342,1.07043 -3.13282,0.26381 0,-1e-5 z m 10.40505,0.262 c 0.8824,1.56613 -2.78674,0.81384 0,0 z" /></g></svg>
