<svg xmlns="http://www.w3.org/2000/svg" xml:space="preserve" width="309.771" height="462.492" viewBox="0 0 81.96 122.368"><path d="m101.9 209.58-8.418-.038-2.91-.207-2.91-.206-2.065-.3-2.063-.301-1.112-.389-1.11-.388-1.533-.941-1.532-.941-2.366-.485-2.365-.484-1.394-.645-1.394-.645-1.588-1.206-1.587-1.206-.986-1.3-.986-1.301-.652-1.434-.653-1.435-.315-1.834-.316-1.835.175-2.487.175-2.488.53-2.75.531-2.75.91-2.999.908-2.999.94-3.82.938-3.82 1.303-6.614 1.303-6.614.522-3.704.521-3.705.17-6.35.168-6.35.365-2.799.364-2.8.435-1.698.435-1.698.898-1.853.897-1.852 1.764-2.058 1.764-2.059.884-2.439.885-2.44-1.091-1.058-1.091-1.058-.358-.852-.357-.85v-1.836l.264-.693.263-.694 1.308-1.382 1.307-1.382.083-5.02.082-5.018.637-.85.637-.848 1.754-.922 1.755-.922 2.239-.645 2.239-.646 3.175-.486 3.175-.486 7.673-.007 7.673-.007 2.38.341 2.382.341 2.456.646 2.457.647 2.029.937 2.029.938.513.455.513.455.486 1.059.486 1.058.006 4.561.006 4.562 1.292 1.426 1.292 1.427.323.98.324.98-.343 1.226-.343 1.225-1.181 1.18-1.181 1.182.844 2.575.845 2.576 1.49 1.67 1.489 1.67 1.017 1.574 1.018 1.574.43 1.343.43 1.342.204 7.012.204 7.011.54 3.44.54 3.44.692 3.836.693 3.836 1.026 5.424 1.026 5.424 1.217 5.82 1.217 5.822.964 4.63.964 4.63.016 3.982.016 3.982-.99 2.006-.992 2.006-1.712 1.602-1.713 1.602-2.19 1.072-2.192 1.073-1.577.4-1.577.399h-.883l-.346.418-.347.417-1.222.62-1.223.62-1.971.407-1.971.407-7.191.54-7.191.54zm-.807-2.38 7.61.038 6.81-.41 6.809-.41 2.579-.377 2.579-.377.786-.407.787-.406.265-.496.265-.495.904-.17.903-.17.325-1.25.326-1.25.117-3.704.117-3.705-.24-.348-.241-.348-8.044.663-8.043.663-6.35.166-6.35.165-6.35-.43-6.35-.43-3.44-.102-3.44-.1-2.75-.419-2.75-.418-.086.087-.086.086-.438 1.706-.439 1.705.15 2.382.15 2.38.43 1.237.432 1.237.997.168.997.169.812.86.812.861 1.017.303 1.017.303 1.852.285 1.853.285 3.042.217 3.043.218zm-.467-13.504 5.556.028 4.101-.247 4.101-.246 4.511-.384 4.51-.385 3.769-.33 3.768-.33.4-.292.399-.292-.534-4.756-.533-4.757-.276-4.233-.276-4.233-.265-11.907-.265-11.906-.275-2.778-.275-2.778-.254-1.852-.254-1.852-.556-2.778-.555-2.779-.997-2.83-.996-2.832-1.488-2.542-1.488-2.541v-.574l-2.844.155-2.845.156-4.762.307-4.763.307-7.856-.325-7.857-.326-.615.155-.616.154-.49 1.267-.489 1.267-1.011 2.816-1.012 2.816-.403 2.74-.404 2.74-.41 7.145-.408 7.143-.405 4.234-.405 4.233-.526 4.233-.526 4.234-.809 4.762-.808 4.763-.881 3.44-.88 3.439-1.054 2.981-1.054 2.982.437.226.436.226 3.175.44 3.175.44 1.323.279 1.323.279 3.44.335 3.44.336zm-2.25-70.372 2.514.039 6.35-.264 6.35-.264 4.366-.422 4.366-.421 1.852-.382 1.852-.38 1.146-.555 1.145-.553.15-.391.15-.39-.29-1.258-.29-1.257-.651-1.473-.652-1.473-2.398.772-2.399.771-2.321.509-2.322.508-2.513.342-2.514.342-5.953-.006-5.953-.006-4.233-.464-4.234-.465-2.513-.484-2.514-.484-1.645-.555-1.645-.556h-.315l-.77 1.7-.771 1.7-.174 1.085-.173 1.085.467.517.468.517 1.353.503 1.353.502 1.852.282 1.852.28 2.779.409 2.778.407.793.098.794.097z" style="fill:#000" transform="translate(-63.645 -87.251)"/></svg>