<?xml version="1.0" encoding="UTF-8" standalone="no"?>
<!-- Created with Inkscape (http://www.inkscape.org/) -->

<svg
   width="81.960243mm"
   height="122.36767mm"
   viewBox="0 0 81.960243 122.36767"
   version="1.1"
   id="svg1"
   xml:space="preserve"
   xmlns="http://www.w3.org/2000/svg"
   xmlns:svg="http://www.w3.org/2000/svg"><defs
     id="defs1" /><g
     id="layer1"
     transform="translate(-63.645093,-87.251111)"><path
       style="fill:#000000"
       d="m 101.89929,209.58045 -8.417308,-0.0383 -2.910417,-0.20672 -2.910417,-0.20673 -2.063781,-0.30056 -2.063782,-0.30057 -1.111218,-0.3883 -1.111218,-0.3883 -1.532115,-0.94105 -1.532115,-0.94106 -2.365532,-0.48465 -2.365533,-0.48464 -1.394019,-0.6447 -1.394019,-0.6447 -1.5875,-1.20609 -1.5875,-1.20608 -0.986064,-1.30053 -0.986065,-1.30054 -0.652171,-1.43441 -0.652171,-1.43441 -0.315626,-1.83458 -0.315626,-1.83459 0.174839,-2.48729 0.174839,-2.4873 0.530722,-2.75014 0.530723,-2.75014 0.909124,-2.99892 0.909124,-2.99892 0.938786,-3.81968 0.938786,-3.81969 1.303098,-6.61458 1.303098,-6.61458 0.521624,-3.70417 0.521625,-3.70416 0.16899,-6.35 0.168991,-6.35 0.364323,-2.79923 0.364323,-2.79922 0.435054,-1.6987 0.435054,-1.69869 0.897627,-1.85208 0.897626,-1.85208 1.763739,-2.0585 1.763739,-2.0585 0.884436,-2.43942 0.884436,-2.43942 -1.091078,-1.05833 -1.091078,-1.05833 -0.35732,-0.8514 -0.357319,-0.8514 v -0.91731 -0.91732 l 0.263702,-0.69359 0.263702,-0.69359 1.307174,-1.38214 1.307174,-1.38214 0.08277,-5.0191 0.08277,-5.019095 0.637058,-0.849059 0.637057,-0.849059 1.754043,-0.921723 1.754043,-0.921724 2.239108,-0.645638 2.239108,-0.645639 3.174999,-0.486118 3.175,-0.486119 7.672918,-0.0068 7.67291,-0.0068 2.38125,0.341077 2.38125,0.341078 2.45626,0.646132 2.45626,0.646132 2.02922,0.937559 2.02922,0.93756 0.51283,0.455421 0.51282,0.455421 0.48599,1.058334 0.48599,1.058333 0.006,4.561261 0.006,4.561266 1.29209,1.42677 1.29208,1.42676 0.32344,0.98002 0.32343,0.98002 -0.34307,1.22532 -0.34306,1.22532 -1.18082,1.18081 -1.18082,1.18082 0.84435,2.57597 0.84434,2.57598 1.48966,1.66948 1.48965,1.66948 1.01752,1.57431 1.01752,1.57431 0.42982,1.34251 0.42982,1.34251 0.20407,7.01146 0.20407,7.01146 0.54021,3.43958 0.54022,3.43959 0.6922,3.83645 0.6922,3.83646 1.02641,5.42396 1.0264,5.42396 1.21703,5.82083 1.21702,5.82083 0.96366,4.63021 0.96365,4.63021 0.0163,3.9819 0.0163,3.9819 -0.99119,2.0061 -0.99118,2.00609 -1.71225,1.60172 -1.71225,1.60173 -2.19136,1.07275 -2.19136,1.07276 -1.57694,0.3995 -1.57694,0.39951 h -0.44118 -0.44119 l -0.3465,0.41751 -0.34651,0.41752 -1.22288,0.61968 -1.22288,0.61968 -1.97109,0.40714 -1.97109,0.40714 -7.19075,0.54004 -7.19076,0.54004 z m -0.80635,-2.38074 7.61096,0.0378 6.80883,-0.41015 6.80883,-0.41016 2.57922,-0.37656 2.57921,-0.37656 0.78638,-0.40665 0.78638,-0.40665 0.26526,-0.49564 0.26526,-0.49563 0.90341,-0.16949 0.90341,-0.16948 0.32531,-1.25037 0.32531,-1.25037 0.11716,-3.70417 0.11717,-3.70416 -0.24071,-0.3483 -0.24071,-0.34829 -8.04332,0.66321 -8.04332,0.66321 -6.35,0.16547 -6.35,0.16547 -6.349999,-0.4305 -6.349999,-0.4305 -3.439583,-0.10099 -3.439584,-0.10099 -2.75009,-0.4179 -2.75009,-0.41791 -0.08635,0.0864 -0.08635,0.0864 -0.438329,1.70557 -0.438329,1.70557 0.149607,2.38125 0.149607,2.38125 0.431168,1.23655 0.431168,1.23655 0.997188,0.16848 0.997189,0.16847 0.811812,0.86068 0.811813,0.86068 1.017287,0.303 1.017288,0.303 1.852083,0.28483 1.852083,0.28484 3.042708,0.21753 3.042709,0.21753 z m -0.46721,-13.50347 5.55625,0.0274 4.10104,-0.24643 4.10104,-0.24642 4.51089,-0.38426 4.51089,-0.38426 3.76809,-0.33013 3.7681,-0.33014 0.39948,-0.2921 0.39948,-0.29211 -0.53355,-4.75628 -0.53354,-4.75628 -0.27576,-4.23334 -0.27577,-4.23333 -0.26508,-11.90625 -0.26507,-11.90625 -0.27494,-2.77812 -0.27494,-2.77813 -0.2542,-1.85208 -0.25421,-1.85208 -0.55569,-2.77813 -0.55569,-2.77812 -0.99645,-2.83131 -0.99645,-2.83131 -1.4879,-2.54141 -1.4879,-2.54142 v -0.28714 -0.28714 l -2.84427,0.15574 -2.84427,0.15575 -4.7625,0.30717 -4.7625,0.30717 -7.856596,-0.32554 -7.8566,-0.32554 -0.615348,0.15444 -0.615348,0.15444 -0.48949,1.26701 -0.48949,1.267 -1.011486,2.81573 -1.011487,2.81572 -0.403581,2.74053 -0.403581,2.74052 -0.409381,7.14375 -0.40938,7.14375 -0.4048,4.23333 -0.4048,4.23334 -0.525906,4.23333 -0.525906,4.23333 -0.808799,4.7625 -0.8088,4.7625 -0.880688,3.43959 -0.880689,3.43958 -1.053435,2.98139 -1.053435,2.9814 0.436599,0.22606 0.436599,0.22607 3.175,0.44011 3.175,0.44011 1.322917,0.27891 1.322916,0.27892 3.439583,0.33555 3.439583,0.33555 z m -2.248957,-70.37215 2.513537,0.0388 6.35,-0.26383 6.35,-0.26383 4.36563,-0.42176 4.36562,-0.42175 1.85209,-0.38132 1.85208,-0.38132 1.1458,-0.55367 1.1458,-0.55366 0.14998,-0.39083 0.14997,-0.39084 -0.2902,-1.25721 -0.2902,-1.25722 -0.65127,-1.47263 -0.65126,-1.47263 -2.39856,0.77133 -2.39856,0.77133 -2.32138,0.50848 -2.32137,0.50847 -2.51354,0.34217 -2.51354,0.34217 -5.95313,-0.006 -5.95312,-0.006 -4.233335,-0.46454 -4.233333,-0.46453 -2.513542,-0.48404 -2.513541,-0.48403 -1.6453,-0.55539 -1.645299,-0.55539 h -0.157232 -0.157231 l -0.770891,1.70016 -0.770892,1.70017 -0.173452,1.08471 -0.173453,1.08471 0.46776,0.51687 0.46776,0.51687 1.353073,0.50278 1.353073,0.50278 1.852084,0.2812 1.852083,0.28121 2.778125,0.40777 2.778124,0.40778 0.79375,0.0971 0.79375,0.0971 z"
       id="path2" /></g></svg>
