<svg xmlns="http://www.w3.org/2000/svg" xml:space="preserve" width="220.572" height="225.967" viewBox="0 0 58.36 59.787"><path d="M29.544 0c-.985 0-3.552 3.07-4.163 4.982-.171.534-.606 1.627-.967 2.426-1.832 4.067-1.805 10.154.067 14.649.172.414.116.465-.35.317-.61-.194-1.641.616-1.641 1.287 0 .75.826 1.248 1.934 1.167.761-.054 1.103.036 1.188.314.065.214.424.717.797 1.117.832.894 1.113.904 1.883.086l.604-.642-.707-.927c-.89-1.166-2.472-5.553-2.758-7.646-.316-2.309.053-3.676 1.295-4.798 1.23-1.111 2.555-1.426 3.882-.92 2.189.833 2.673 3.02 1.574 7.109-.371 1.382-.97 3.561-1.331 4.842l-.656 2.328.837.51.838.51.327-.59c.188-.338.26-.966.17-1.476-.125-.71.064-1.323.94-3.043 2.33-4.573 2.762-9.509 1.232-14.062C33.413 4.188 30.638 0 29.544 0M7.654 10.621q-.313 0-.616.025c-2.497.173-2.916 1.162-1.827 4.302 1.084 3.128 4.628 7.493 7.579 9.335 1.911 1.193 3.567 1.815 8.222 3.09 1.88.515 3.46.978 3.51 1.03.052.05-1.565.655-3.592 1.343-2.138.726-4.538 1.758-5.716 2.46-3.872 2.303-7.076 6.07-9.438 11.092-1.113 2.368-1.303 3.854-.55 4.324.768.48 5.742.14 7.728-.53 4.053-1.364 7.684-3.83 7.684-5.218 0-.518-.098-.618-.464-.473-1.377.545-3.831.872-4.714.628-2.39-.66-3.468-3.118-2.24-5.106 1.411-2.283 7.571-5.536 11.582-6.117 1.716-.248 1.92-.474 1.92-2.126 0-1.737-.224-1.916-3.58-2.854-6.59-1.841-10.464-4.51-10.537-7.26-.03-1.193.644-2.347 1.581-2.703 1.184-.45 2.327-.272 4.298.673 1.062.51 2.066.926 2.229.926.418 0-1.508-1.945-3.311-3.345-2.584-2.005-6.114-3.33-9.115-3.48q-.32-.016-.634-.016m43.303.12c-2.358.027-5.333.74-7.61 1.823-1.696.806-4.855 3.135-5.417 3.993-.623.952-.18 1.29.708.541 1.992-1.676 5.327-1.973 6.524-.581.715.831.818 2.423.231 3.558-.489.945-2.226 2.513-3.51 3.168-.553.282-2.731 1.08-4.841 1.775-2.11.693-3.986 1.376-4.168 1.515-.181.14-.33.537-.33.883 0 .54.128.63.912.63 1.62 0 8.36-2.088 11.259-3.487 2.393-1.155 3.07-1.64 4.894-3.491 2.717-2.76 4.366-6.025 4.366-8.642 0-1.442-.49-1.715-3.018-1.686M29.061 21.165c-1.191 0-1.674 1.436-.868 2.587.566.807 1.54.764 1.927-.086.671-1.473.236-2.501-1.06-2.501m5.05 1.1c-.34-.005-.58.162-.951.595-.674.782-.784 1.47-.313 1.942.404.404 1.814.126 2.456-.484.43-.408.463-.59.208-1.15-.168-.369-.623-.746-1.019-.845a1.7 1.7 0 0 0-.381-.059M8.41 24.881a5 5 0 0 0-.49.02 8.9 8.9 0 0 0-2.272.535C2.654 26.557 0 28.474 0 29.516c0 .912 3.537 3.204 6.35 4.115 1.79.58 3.27.626 3.694.115.266-.32.043-.51-1.357-1.145-4.312-1.957-4.575-5.58-.485-6.695 1.548-.421 1.717-.527 1.285-.8-.235-.15-.613-.222-1.077-.224m41.189.221c-.432.061-.238.364.767.836 1.48.696 2.022 1.385 2.022 2.575 0 1.752-1.314 3.212-3.877 4.31l-1.255.539.772.507c.84.552 1.102.53 3.83-.325 2.251-.705 5.035-2.16 5.94-3.106.604-.63.675-.842.43-1.299-.619-1.155-3.757-2.926-6.57-3.705-.576-.16-1.056-.26-1.424-.309a2.6 2.6 0 0 0-.635-.023M29.204 26.6c-.537.05-.989.3-1.297.74-.543.776-.491 1.158.26 1.908 1.239 1.24 2.853.66 3.216-1.154.156-.778.095-.873-.793-1.244a3.4 3.4 0 0 0-.82-.233 2.4 2.4 0 0 0-.566-.017m3.975 2.131q-.212-.001-.369.037c-.42.103-.556.423-.478.974.064.447.661.757 3.122 1.624 3.618 1.274 4.946 1.931 6.844 3.38 1.595 1.218 3.21 3.42 3.21 4.377 0 .89-.969 2.356-1.864 2.82-1.064.55-2.6.484-4.192-.178-.75-.311-1.439-.492-1.53-.401-.281.281 1.224 2.211 2.501 3.206 1.635 1.274 3.49 2.149 5.88 2.772 2.294.599 6.582.737 7.09.23.175-.175.317-.572.317-.881 0-1.04-1.362-3.94-3.04-6.475-4.084-6.168-7.766-8.78-15.685-11.127-.789-.234-1.382-.355-1.806-.358m-5.86 1.555a.4.4 0 0 0-.19.018c-.236.086-.41.428-.64 1.07-.203.57-.875 2.169-1.492 3.55-1.542 3.456-1.978 5.604-1.978 9.746 0 3.847.606 6.566 2.15 9.647.982 1.96 2.973 4.824 3.611 5.196.251.146.535.27.63.274.507.023 2.691-2.935 3.86-5.226 1.853-3.637 2.285-5.74 2.123-10.339-.115-3.25-.221-3.885-1.068-6.387-.517-1.528-1.29-3.612-1.716-4.63-.716-1.713-.84-1.859-1.647-1.938-.74-.073-.844-.015-.692.38.098.257.595 1.917 1.103 3.69 1.501 5.235 1.647 8.519.448 10.133-1.61 2.169-4.796 1.672-5.778-.9-.922-2.415.183-8.843 2.043-11.886l.804-1.315-.753-.602c-.357-.286-.613-.452-.818-.481m-2.758 1.163c-.541-.026-1.176.175-1.686.685-.76.76-.798 1.017-.234 1.58.431.432 1.625.553 2.113.214.154-.107.475-.48.715-.83.635-.93-.005-1.606-.908-1.65m8.994.348c-.761.073-.87.173-.81.746.037.364.318.87.624 1.124.637.53 1.11.579 1.838.19 1.25-.67.007-2.22-1.652-2.06m-4.45.746c-1.047 0-1.797 2.331-1.006 3.122.797.797 2.328-.026 2.328-1.252 0-.899-.687-1.87-1.323-1.87"/></svg>