<?xml version="1.0" encoding="UTF-8" standalone="no"?>
<svg
   ffdec:objectType="shape"
   height="33.3px"
   width="21.15px"
   version="1.1"
   id="svg2"
   sodipodi:docname="153.svg"
   inkscape:version="1.3.2 (091e20e, 2023-11-25)"
   xmlns:inkscape="http://www.inkscape.org/namespaces/inkscape"
   xmlns:sodipodi="http://sodipodi.sourceforge.net/DTD/sodipodi-0.dtd"
   xmlns="http://www.w3.org/2000/svg"
   xmlns:svg="http://www.w3.org/2000/svg"
   xmlns:ffdec="https://www.free-decompiler.com/flash">
  <g transform="matrix(1.0, 0.0, 0.0, 1.0, 10.55, 16.65)">
    <path d="M-5.8 -15.95 L-5.2 -15.95 Q-4.75 -15.95 -4.75 -15.55 L-4.75 -8.6 Q-4.75 -8.2 -4.25 -8.2 L-3.1 -8.2 Q-2.6 -8.2 -2.6 -8.6 L-2.6 -15.55 Q-2.6 -15.95 -2.15 -15.95 L-1.55 -15.95 Q-1.1 -15.95 -1.1 -15.55 L-1.1 -4.5 Q-1.1 -4.05 -1.5 -3.9 L-4.0 -2.65 -4.2 -2.4 -4.35 -1.6 Q-3.85 2.0 -3.4 8.0 L-3.05 13.95 Q-3.05 14.8 -3.75 15.4 -4.5 16.0 -5.5 16.0 -6.5 16.0 -7.25 15.4 -7.95 14.8 -7.95 13.95 L-7.6 8.0 -6.65 -1.6 -6.8 -2.4 -7.05 -2.65 -9.5 -3.9 Q-9.9 -4.05 -9.9 -4.5 L-9.9 -15.55 Q-9.9 -15.95 -9.45 -15.95 L-8.85 -15.95 Q-8.4 -15.95 -8.4 -15.55 L-8.4 -8.6 Q-8.4 -8.2 -7.9 -8.2 L-6.75 -8.2 Q-6.25 -8.2 -6.25 -8.6 L-6.25 -15.55 Q-6.25 -15.95 -5.8 -15.95 M3.35 -6.25 L3.15 -13.15 Q3.2 -16.0 4.4 -16.0 6.05 -16.0 7.9 -13.15 9.95 -10.0 9.95 -6.25 9.95 -2.7 8.2 -0.15 L6.4 2.5 7.2 13.95 Q7.2 14.8 6.5 15.4 5.8 16.0 4.8 16.0 3.8 16.0 3.05 15.4 2.35 14.8 2.35 13.95 2.35 12.35 2.7 8.15 3.35 -0.3 3.35 -6.25"/>
  </g>
</svg>
