<svg xmlns="http://www.w3.org/2000/svg" xml:space="preserve" width="261.08" height="336.257" viewBox="0 0 69.077 88.968"><path d="M36.503.007c-1.473-.06-2.314 1.375-2.926 2.5-1.839 3.707-3.082 7.692-3.975 11.724-.173.33-.068 1.456-.41 1.25-1.863-1.872-4.432-3.043-7.092-3.01-1.742-.172-3.298 1.006-4.303 2.32-1.255 1.655-1.298 4.29.364 5.693 1.005.846 2.185 1.442 3.34 2.054-3.377 1.41-6.618 3.207-9.376 5.634C6.69 32.798 2.68 39.09.926 46.021c-1.045 3.771-.993 7.735-.847 11.613.15 4.417 1.636 8.674 3.55 12.615 3.63 7.395 10.325 13.013 17.867 16.14 4.472 1.887 9.35 2.707 14.193 2.563 5.9-.095 11.793-1.675 16.91-4.622 3.956-2.38 7.298-5.689 10.107-9.328a32.3 32.3 0 0 0 6.062-14.303c.367-3.744.425-7.532.077-11.279-1.355-8.92-6.174-17.347-13.441-22.756-2.24-1.715-4.74-3.04-7.284-4.24 1.297-.604 2.742-1.286 3.289-2.717.772-1.348.492-3.003-.245-4.299-1.056-1.973-3.2-3.41-5.453-3.5-2.19.142-4.157 1.347-5.804 2.724-.193-4.066-.036-8.145-.326-12.205-.069-.974-.424-2.243-1.573-2.371-.498-.078-1.004-.053-1.506-.049m-1.934 25.496c4.195.017 8.327.793 12.16 2.5 4.997 2.274 9.472 5.854 12.594 10.4 2.468 3.603 4.239 7.722 4.947 12.01.486 3.655.612 7.344.035 10.99-.722 3.533-1.783 7.042-3.5 10.227-4.017 7.124-11.152 12.436-19.135 14.223-5.896 1.23-12.161 1.025-17.822-1.137-5.158-1.885-9.945-5.045-13.215-9.513-2.566-3.49-4.37-7.69-5.33-11.971-2.062-9.03-.14-19.026 5.666-26.323 4.606-5.891 11.607-9.686 18.887-10.967a30 30 0 0 1 4.713-.439m-7.576 3.91c-2.61.173-5.352 1.774-6.011 4.441-.507 1.771.178 3.583 1.092 5.093 2.422 4.18 4.924 8.331 7.773 12.238.71 1.176 2.178 2.091 3.564 1.588 1.215-.557 1.079-2.122 1.09-3.237-.257-4.538-.412-9.084-.816-13.612-.187-1.989-.547-4.264-2.302-5.506-1.226-.977-2.882-1.112-4.39-1.005m13.935.116c-1.504.013-3.029.737-3.73 2.116-.946 1.6-.871 3.548-1.072 5.337-.252 4.422-.32 8.86-.193 13.286-.05 1.036.496 2.191 1.593 2.4 1.379.165 2.387-1.05 3.29-1.908 3.095-3.278 6.222-6.542 9.009-10.089 1.055-1.513 1-3.554.502-5.262-.759-2.017-2.468-3.516-4.188-4.727-1.162-.825-2.567-1.26-3.995-1.176-.405-.011-.81.014-1.216.023M15.434 40.88c-3.302.22-5.845 3.229-6.285 6.384-.328 2.123-.041 4.6 1.709 6.061 1.73 1.481 3.914 2.264 6.012 3.067-2.032-.084-4.083-.64-6.14-.442-1.609.457-2.107 2.344-2.112 3.827-.063 1.185.138 2.54 1.228 3.23 1.236 1.133 3.016.583 4.452.241 4.079-1.06 8.006-2.607 12.116-3.552 1.346-.386 2.934.2 4.117-.703 1.24-.861 1.782-2.638.977-3.97-1.087-1.58-2.525-2.89-3.81-4.308-2.616-2.683-5.099-5.503-7.828-8.071-1.213-1.108-2.754-1.893-4.436-1.764m38.861 1.434c-2.304.107-3.894 1.968-5.48 3.407-3.08 2.936-6.186 5.857-9.075 8.982-.919 1.157-1.04 3.252.402 4.052 1.518.65 3.237.413 4.842.643 3.176.322 6.075 1.787 9.034 2.878 1.468.494 2.963 1.352 4.559 1.121 1.468-.415 2.265-2.059 2.328-3.494.103-1.842-1.193-4-3.207-3.997-1.894.018-3.733.583-5.627.649-1.012.107-.28-.015.27-.135 2.421-.559 5.2-.82 6.953-2.8 1.782-1.94 1.63-4.905.69-7.199-1.02-2.03-2.885-3.99-5.287-4.106-.133 0-.268-.007-.402-.001M43.378 60.888c-1.625-.079-3.286 1.135-3.354 2.828-.18 1.621 1.154 2.769 2.11 3.877 2.523 2.648 5.109 5.269 8.01 7.506.92.59 2.016 1.167 3.144 1.027 2.002-.474 3.623-2.045 4.318-3.963 1.041-2.415.224-5.325-1.674-7.076-2.031-1.999-4.92-2.599-7.55-3.408-1.637-.413-3.306-.808-5.004-.791m-16.348.531c-2.472.258-4.795 1.247-7.164 1.94-2.197.803-4.579 1.338-6.476 2.768-1.726 1.366-1.913 3.877-1.313 5.85.964 2.407 3.304 4.447 5.983 4.483 2.785.024 5.116-1.864 6.86-3.857 1.803-2.039 3.674-4.05 5.166-6.332.608-1.067.67-2.507-.218-3.444-.688-.87-1.687-1.522-2.838-1.408m10.27 4.62c-.886.115-1.4.95-2.018 1.5.202 3.811.154 7.65.7 11.434.166 1.457 1.023 2.794 2.337 3.472 1.407.553 3.028.289 4.42-.205 1.272-.534 2.62-1.342 3.168-2.668.457-1.528.257-3.234-.665-4.555-1.626-2.508-3.474-4.87-5.357-7.19-.702-.74-1.446-1.822-2.586-1.789m-5.131.638c-1.303.026-1.938 1.311-2.715 2.157-1.713 2.178-3.468 4.353-4.86 6.756-.717 1.519-1.08 3.604.217 4.928 1.587 1.984 4.403 2.595 6.792 2.004 1.564-.623 2.33-2.363 2.55-3.937.44-3.046.728-6.136.601-9.217-.033-1.012-.305-2.282-1.44-2.57a2.9 2.9 0 0 0-1.145-.12"/></svg>