<svg xmlns="http://www.w3.org/2000/svg" xml:space="preserve" width="249.486" height="404.69" viewBox="0 0 66.01 107.074"><path d="M30.535.022c-5.99.158-11.964.57-17.823 1.81-2.21.509-4.343.948-6.32 2.103-.55.284-1.233 1.039-.56 1.574 1.36 1.227 3.227 1.704 4.9 2.22 5.607 1.475 11.426 2.017 17.175 2.223 7.644.243 15.276-.009 22.832-1.257 2.931-.538 5.94-1.123 8.612-2.52.513-.337 1.425-.788 1.162-1.524-.917-1.182-2.499-1.53-3.842-2.02C50.541.87 44.15.342 37.831.082a140 140 0 0 0-7.296-.059m2.65 1.166c5.2.06 10.41.362 15.552 1.161 1.762.359 3.679.607 5.146 1.73.725.512.796 1.72-.07 2.133-1.79.906-3.85 1.024-5.794 1.385-4.293.684-8.657.621-12.99.76-4.95.039-9.926.199-14.842-.497-2.518-.339-5.094-.557-7.51-1.38-.934-.265-1.333-1.579-.514-2.205 1.452-1.165 3.384-1.445 5.15-1.85 5.228-.959 10.564-1.23 15.872-1.237M4.027 8.808c.047 2.486.067 4.978.327 7.422.156 1.261 1.555 1.712 2.538 2.193 3.667 1.433 7.527 1.988 11.428 2.471 2.95.285 5.938.594 8.922.715 5.742-.002 11.523-.096 17.224-.444 3.918-.338 7.822-.827 11.617-1.782 1.842-.532 3.839-.994 5.307-2.298.7-.863.419-2.085.508-3.12.014-1.82.023-3.642-.047-5.462-2.574 1.522-5.47 2.37-8.394 2.907-11.436 2.214-23.207 2.167-34.754.922-4.366-.56-8.807-1.225-12.865-3.012a11 11 0 0 1-1.801-1.03zM60.185 21.46c-4.34 1.783-9.06 2.297-13.69 2.78-9.22.808-18.52.827-27.738-.02-4.268-.437-8.574-1.045-12.586-2.637-.232 1.67.137 3.406-.324 5.041-.8 1.75-2.857 2.41-3.85 4.027C.947 32.146.087 34.074.2 36.005-.028 46.31.008 56.617 0 66.923c.037 7.848-.018 15.7.236 23.545.544 4.674 3.025 9.217 7.055 11.762 3.613 2.313 7.837 3.273 12.004 3.955 3.471.555 6.947.943 10.486.883 4.981-.011 9.983-.05 14.93-.477 4.109-.555 8.282-1.194 12.006-3 3.6-1.714 6.65-4.667 8.16-8.389.603-1.35.964-2.801.968-4.281.245-8.61.12-17.224.163-25.836.004-10.32 0-20.64.002-30.96-.526-1.462-1.146-2.933-2.296-4.025-1.118-1.294-2.665-2.303-3.35-3.917-.487-1.543-.16-3.166-.114-4.737zm.955 22.832c.169 8.26.031 16.523.043 24.784-.064 7.648.033 15.298-.208 22.943-.037 2.648-.755 4.135-2.372 6.185-2.442 1.706-5.833 2.174-10.022 3.099-4.785 1.043-9.688 1.425-14.579 1.409-3.35.048-6.706-.007-10.03-.458-5.05-.608-10.29-1.355-14.725-4.02-3.448-1.904-3.396-5.94-3.56-9.42-.018-15.036-.174-30.073.009-45.107 0 0 .111-1.107.863-.88 1.872.565 18.554 1.69 26.51 1.744 7.284-.039 14.577-.136 21.74-1.337 7.645-.475 6.077-1.92 6.33 1.058"/><path d="M33.597 47.675q-4.015 2.337-8.035 4.672.012 4.8.03 9.603c2.774 1.594 5.552 3.183 8.327 4.776q4.148-2.416 8.3-4.827-.013-4.8-.03-9.603-4.163-2.388-8.328-4.774zM33.658 81.214q-4.018 2.337-8.035 4.672.013 4.8.03 9.603 4.165 2.388 8.329 4.774 4.149-2.415 8.299-4.825l-.031-9.603c-2.775-1.594-5.553-3.183-8.329-4.775zM44.406 64.394q-4.015 2.336-8.035 4.671.013 4.803.03 9.604c2.776 1.594 5.553 3.183 8.329 4.775q4.149-2.415 8.299-4.826l-.031-9.601q-4.164-2.39-8.329-4.776zM23.086 64.515q-4.015 2.337-8.034 4.671.013 4.802.03 9.602 4.163 2.389 8.328 4.775 4.148-2.413 8.299-4.824-.013-4.802-.03-9.603c-2.775-1.594-5.552-3.183-8.328-4.776z"/></svg>