<?xml version="1.0" encoding="UTF-8" standalone="no"?>
<!-- Created with Inkscape (http://www.inkscape.org/) -->

<svg
   width="127.24409mm"
   height="198.6953mm"
   viewBox="0 0 127.24409 198.6953"
   version="1.1"
   id="svg1"
   xml:space="preserve"
   xmlns:inkscape="http://www.inkscape.org/namespaces/inkscape"
   xmlns:sodipodi="http://sodipodi.sourceforge.net/DTD/sodipodi-0.dtd"
   xmlns="http://www.w3.org/2000/svg"
   xmlns:svg="http://www.w3.org/2000/svg"><sodipodi:namedview
     id="namedview1"
     pagecolor="#ffffff"
     bordercolor="#000000"
     borderopacity="0.25"
     inkscape:showpageshadow="2"
     inkscape:pageopacity="0.0"
     inkscape:pagecheckerboard="0"
     inkscape:deskcolor="#d1d1d1"
     inkscape:document-units="mm"
     showgrid="false" /><defs
     id="defs1" /><g
     inkscape:label="Слой 1"
     inkscape:groupmode="layer"
     id="layer1"
     transform="translate(-35.721948,-48.639487)"><path
       id="path9"
       style="display:inline;fill:#000000;fill-opacity:1;stroke-width:0.353553"
       d="m 354.08399,183.83594 c -8.42831,0.0826 -16.16761,3.26305 -23.21875,9.54297 -6.16977,5.64091 -8.10802,11.28096 -5.81641,16.92187 l 3.96485,5.55469 c 2.64418,43.01197 11.01879,84.96665 25.12109,125.86328 l 6.875,24.06055 c -40.72034,11.98693 -81.35438,22.91747 -121.89844,32.78906 l -85.14258,22.47461 -3.70117,-0.79296 c -8.2851,1.93905 -13.04534,4.84844 -14.2793,8.72656 -2.11534,10.40043 -0.79272,18.86246 3.9668,25.38476 l 20.35938,97.04102 c 22.56364,104.70946 43.10013,211.0062 61.60937,318.88868 l -0.52734,0.79297 c 0,4.05443 1.76152,7.14051 5.28711,9.25585 l 20.625,8.72461 c 37.54733,17.27537 76.682,32.34845 117.40234,45.2168 l 2.64453,0.52735 0.79297,-0.52735 h 0.5293 l 61.34375,-20.89062 182.18555,-62.93164 1.58594,-0.52735 c 1.58651,-1.23393 2.29133,-2.91004 2.11523,-5.02539 v -0.52734 L 583.1211,589.74219 556.94337,368.16016 l -2.64453,-5.02344 c -1.41022,-2.29161 -3.61265,-3.52686 -6.60938,-3.70312 l -27.76563,0.26562 -6.08007,0.52735 -13.22071,0.79492 -0.26562,-0.79492 v -0.52735 c -1.05768,-3.87812 -3.43683,-6.25922 -7.13867,-7.14062 l -29.08594,-0.79297 -11.3711,0.26562 h -40.45507 -3.4375 l -13.48633,3.96485 C 384.27729,312.45527 374.67131,269.17799 366.5625,226.16602 l 1.84961,0.26562 3.70313,2.64453 c 41.42545,9.51904 83.38017,17.71498 125.86328,24.58985 l 5.55274,1.85156 h 1.84961 c 7.40369,0.70512 14.01483,-2.20427 19.83203,-8.72656 5.28835,-9.1665 5.11162,-17.89265 -0.5293,-26.17774 -2.46791,-3.70186 -5.7288,-5.28665 -9.7832,-4.75781 -25.73667,-9.69534 -51.8258,-15.24992 -78.26758,-16.66015 -22.38738,-1.41024 -44.24647,-5.28679 -65.57617,-11.63282 L 370,187.03321 c -5.55277,-2.18145 -10.85902,-3.24685 -15.91601,-3.19727 z m 9.83398,12.1875 c -5.81719,1.23395 -8.63721,4.84833 -8.46093,10.8418 0.52883,3.173 2.11362,5.81629 4.75781,7.93164 l -4.75781,1.32226 c -7.05113,-5.64091 -8.28637,-12.25205 -3.70313,-19.83203 z m -16.13086,1.85156 c -2.11535,7.22743 -0.17514,13.57248 5.81836,19.03711 l -2.9082,2.11524 c -3.87814,-0.35258 -7.13902,-2.90845 -9.7832,-7.66797 l -2.38086,-3.17383 -1.05664,-2.37891 0.26367,-0.26367 3.17383,-3.4375 z m 22.21289,0 h 0.26368 l 1.05859,0.52735 2.9082,0.79297 0.79297,0.26562 c 21.15343,5.81719 42.7484,9.51896 64.78321,11.10547 22.2111,1.76277 43.71671,5.72868 64.51758,11.89844 -4.40696,2.99673 -6.61133,7.31611 -6.61133,12.95703 0,2.64418 0.61761,5.02332 1.85156,7.13867 -43.01197,-6.87487 -85.49493,-15.07081 -127.44922,-24.58984 l -1.05859,-0.79493 -4.23047,-1.84961 c -2.11534,-3.3493 -2.64362,-7.14041 -1.58594,-11.37109 0.70511,-2.46791 2.29186,-4.49357 4.75976,-6.08008 z m -5.55273,0.52735 -0.79492,1.58789 c -2.29163,5.11208 -1.93814,10.0471 1.05859,14.80664 h -1.05859 c -4.75952,-2.11535 -6.61041,-5.55298 -5.55274,-10.3125 1.05766,-3.3493 3.17464,-5.37694 6.34766,-6.08203 z m -23.5332,15.60156 3.96484,3.9668 4.75977,2.9082 -1.05664,1.84961 v 1.85156 l -2.38086,-0.26367 -4.23047,-5.28906 -1.05664,-1.85157 z m 0,5.55273 5.28711,6.60938 3.70312,0.79492 c 2.29163,2.11533 4.05316,2.46688 5.28711,1.05664 l 0.79297,-1.05664 0.26562,1.05664 c -4.58324,3.87812 -9.60763,4.67247 -15.07226,2.38086 l -0.26367,-1.32227 z m 167.9043,4.23047 8.46289,3.4375 c 0.70511,5.64092 -0.88163,10.31183 -4.75977,14.01367 -2.99673,1.76279 -6.34698,2.64454 -10.04883,2.64454 -2.11535,-2.4679 -2.9971,-5.7288 -2.64453,-9.78321 0.52884,-3.34928 2.1156,-6.25865 4.75977,-8.72656 z m -152.30469,7.93164 c 9.16649,45.83242 19.65613,91.49085 31.46679,136.97071 0.70512,1.76279 2.20252,3.26019 4.49414,4.49414 l -10.04687,2.9082 -7.66992,0.5293 v -0.5293 l -20.62305,-71.12891 c -6.69859,-23.79761 -11.01796,-48.03585 -12.95703,-72.71484 z m 130.88672,128.77344 3.4375,0.5293 v 0.26367 h -0.52735 C 398.46943,394.60178 304.42388,420.3394 208.17578,438.4961 h -0.26562 l -0.79297,0.52734 c -2.46791,3.87814 -2.99616,9.43078 -1.58594,16.65821 l 4.49414,17.45312 6.34571,37.54688 0.26562,1.32226 -15.07226,18.24414 -24.5918,-29.8789 C 166.39595,486.44313 157.75914,471.37193 151.06055,455.1543 l -0.26367,-1.05859 c -8.10882,-11.10555 -6.43468,-18.50909 5.02343,-22.21094 l 0.79297,-1.32226 C 227.301,412.58207 297.81329,393.63237 368.14844,373.7129 l 2.11524,2.3789 h -1.0586 c -0.52883,0.70512 -0.0879,1.41014 1.32227,2.11524 l 21.94726,-1.58594 c 2.46791,-1.05768 3.1729,-2.64443 2.11524,-4.75977 v -0.52929 l -1.05664,-5.02344 h 0.79297 l 18.24414,-5.02344 h 42.83594 z m 7.40429,8.19727 0.26563,0.26367 2.64258,0.5293 2.11523,0.26367 20.625,-0.79297 h 20.0957 c -87.37395,26.49291 -178.04035,48.83311 -265.79297,73.72266 -0.5917,-0.16897 -1.14767,-0.11672 -1.63476,0.37695 25.70761,160.79126 54.70324,320.8435 86.9668,480.15821 -37.01814,-12.02137 -73.56198,-26.09877 -109.60547,-42.34375 l -19.30274,-8.46094 -0.5293,-1.84961 C 212.31739,762.14533 191.78094,655.14166 169.04102,549.55079 l -16.39453,-80.11914 c 4.93579,10.57671 10.84193,20.53808 17.71679,29.88086 l 30.40821,37.28125 c 1.58651,2.29159 3.34803,3.17335 5.28711,2.64453 l 31.20312,-41.24805 c 9.69532,-13.22088 19.03713,-27.76384 28.02735,-43.62891 1.23393,-4.75952 0.96982,-6.78714 -0.79297,-6.08203 -12.51577,20.80087 -26.7072,39.92734 -42.57227,57.37891 l -4.23047,-24.32617 -2.3789,-14.01563 -1.85157,-17.71484 c 2.11535,-0.8814 2.9097,-2.46816 2.38086,-4.75977 95.01414,-17.98042 188.00121,-43.36453 278.96094,-76.15234 z m -51.9414,124.65625 c 19.4788,-0.33121 38.02572,5.44814 55.64258,17.33594 31.90644,23.44507 51.03287,58.34768 57.3789,104.70898 4.40697,41.77806 -1.32046,78.97435 -17.18554,111.58594 -16.04137,33.14038 -38.43063,54.11767 -67.16407,62.93164 -51.78664,13.58335 -111.94206,-28.41305 -132.47266,-119.51758 -7.93253,-42.13061 -4.05404,-79.59106 11.63477,-112.3789 16.04136,-32.61157 40.27956,-53.41213 72.71484,-62.40235 l 5.81641,-1.05664 c 4.59427,-0.72715 9.13966,-1.1306 13.63477,-1.20703 z m 41.46484,54.53711 c -9.45294,-0.0333 -23.76523,2.46238 -42.93555,7.48633 -46.18502,13.57345 -74.03759,27.58616 -83.55664,42.04101 -9.34277,14.45486 -11.98604,25.20862 -7.93164,32.25977 l 2.37891,2.38086 c 0.88139,1.76279 1.93987,2.46779 3.17383,2.11523 10.40044,-4.40696 18.24483,-1.85108 23.5332,7.66797 l 0.79297,1.32227 c 5.46463,15.15997 7.31552,30.93613 5.55273,47.33008 -1.93906,16.21762 1.85009,31.37813 11.36914,45.48047 1.23395,1.23392 1.06734,1.66406 3.1875,2.72656 12.16324,9.51901 27.13289,12.87407 44.40821,11.81641 16.92275,-0.7051 32.26003,-4.14272 46.00976,-10.31251 l 27.76368,-14.54296 c 8.99021,-6.52237 15.86547,-14.19 20.625,-23.00391 4.40696,-13.39718 1.67434,-24.94333 -8.19727,-34.63867 5.46464,-1.23395 10.13555,-4.05593 14.01367,-8.46289 3.70186,-4.58326 4.14272,-9.69503 1.32227,-15.33594 -1.58651,-2.46791 -2.99652,-3.61378 -4.23047,-3.4375 l -4.23047,-1.05664 h -0.5293 c -3.52557,1.23395 -4.05384,0.96786 -1.58593,-0.79492 0.7051,-4.58326 2.29185,-9.69503 4.75976,-15.33594 2.4679,-12.86835 1.23268,-26.26539 -3.70312,-40.19141 -4.58325,-14.10229 -14.1018,-21.85734 -28.55664,-23.26758 l -1.58594,-3.17382 c -1.05767,-3.52558 -5.73053,-6.2582 -14.01563,-8.19727 -2.07127,-0.57291 -4.68104,-0.86398 -7.83203,-0.875 z m 0.0645,4.72656 c 9.58516,0.0333 15.70153,2.09878 18.34571,6.19727 1.05767,2.29162 0.0866,5.19903 -2.91016,8.72461 0,-1.76279 -2.64327,-3.8778 -7.93164,-6.34571 l -39.92773,2.37891 c -16.21765,3.17302 -32.52405,8.19739 -48.91797,15.07227 -16.74649,6.87486 -30.58439,16.57015 -41.51368,29.08593 -1.23394,1.41023 -1.14461,1.49957 0.26563,0.26563 30.6725,-22.3874 59.4942,-35.34357 86.46484,-38.86914 l 49.18165,1.32031 -6.34571,5.81836 c -11.6344,9.69533 -24.50316,17.01145 -38.60547,21.94727 -30.6725,10.04788 -61.60921,18.94881 -92.81055,26.70507 -1.5865,0.70512 -1.23498,0.96925 1.05665,0.79297 19.39065,-5.46464 38.78121,-9.8714 58.17187,-13.2207 19.39066,-3.17302 38.16556,-9.34327 56.32227,-18.50977 6.69858,-3.173 14.80711,-8.63631 24.32617,-16.39257 -0.17626,15.86508 1.76199,31.20039 5.81641,46.00781 -3.87814,-2.29163 -8.37229,-3.17337 -13.48438,-2.64453 l -39.13477,4.75976 c -13.74973,2.99674 -27.14678,7.05198 -40.1914,12.16407 -9.87161,2.64417 -18.42101,7.22768 -25.64844,13.75 l -4.49414,-11.10547 -0.79492,-0.79297 c -6.87488,-10.57673 -16.21667,-14.1037 -28.02735,-10.57813 -3.34929,-6.52231 -1.58581,-15.42323 5.28907,-26.70508 6.87486,-11.28182 29.34957,-24.15062 67.42578,-38.60546 15.6888,-5.64093 31.46695,-9.16595 47.33203,-10.57618 3.96627,-0.44068 7.54519,-0.65554 10.74023,-0.64453 z m 23.36915,12.01367 c 11.4581,0.52884 19.30251,5.64061 23.5332,15.33594 4.40696,9.69533 6.25785,19.30322 5.55273,28.82227 -0.52883,10.753 -3.34885,20.97654 -8.46093,30.67187 0,1.41023 0.61566,2.46872 1.8496,3.17383 l 5.28907,2.37891 c 6.69858,1.93906 7.84446,5.90495 3.4375,11.89844 -2.99674,3.52556 -6.7859,5.64254 -11.36914,6.34765 l -4.75977,-7.93359 -1.58789,-1.58594 -4.75977,-10.57617 c 13.74975,-13.39719 17.89237,-29.17533 12.42774,-47.33203 -4.40698,-12.5158 -12.6029,-19.47845 -24.58984,-20.88868 v -2.9082 z m -0.0957,15.1211 c 8.03996,0.0771 13.44822,4.20398 16.22461,12.3789 3.17303,9.34278 3.79063,17.71543 1.85156,25.11915 -2.29161,7.93253 -6.25752,14.54366 -11.89843,19.83203 -6.87488,-18.15672 -10.13577,-37.19574 -9.78321,-57.11524 1.25599,-0.15426 2.4569,-0.22589 3.60547,-0.21484 z m -12.15039,42.83594 c 4.19764,0.0992 7.75156,1.1399 10.66016,3.12304 0.34781,1.12622 0.76557,2.22492 1.13672,3.3418 -32.30316,15.44639 -83.63073,30.02604 -119.38477,26.07617 7.14701,-7.31207 15.97008,-12.19402 26.49414,-14.60937 10.04789,-3.87814 20.27143,-7.22837 30.67188,-10.04883 9.8716,-2.46791 19.92036,-4.31878 30.14453,-5.55274 l 15.86523,-2.11523 c 1.54244,-0.17626 3.0129,-0.2479 4.41211,-0.21484 z"
       transform="scale(0.26458333)"
       sodipodi:nodetypes="scccccccccccccccccccccccccccccccccccccccccccccccccccsccccccccccccccccccccccscccccccccccccccccccccccccccccccccccccccccccccccccccccccccccccccccccccccccccccccccccccccccccccccccccccsccccccccscccccccccccccccccccccccccccccccccccccccccccccccccccccscccccccccccccccccccsccccscccccccs" /><path
       d="M 52.45,45.15 52.2,44.7 q 0.4,-0.8 1.3,-0.9 0.5,0.2 0.35,0.5 -0.7,0 -1.05,0.5 4.35,0.95 7.9,-1.7 0.4,0 0.4,0.35 -3.9,3 -8.65,1.7"
       id="path3"
       transform="matrix(1.3992166,0,0,1.3992166,22.128046,38.08217)"
       style="display:inline" /><path
       d="m 37.5,79.25 c 3,21.03333 6.9,41.91667 11.7,62.65 0.266667,0.3 0.283333,0.45 0.05,0.45 L 48.9,142.2 c -6.766667,-2.03333 -13.283333,-4.73333 -19.55,-8.1 l -0.2,-0.45 -0.45,-0.4 c -1.533333,-9.86667 -3.266667,-19.66667 -5.2,-29.4 L 23.35,103.2 C 21.45,93.833333 19.333333,84.5 17,75.2 l 0.1,-0.1 0.1,-0.1 c 6.433333,2 12.983333,3.35 19.65,4.05 v -0.2 c 0.2,-0.133333 0.416667,0 0.65,0.4"
       id="path4"
       sodipodi:nodetypes="ccccccccccccccc"
       transform="matrix(1.3992166,0,0,1.3992166,22.128046,38.08217)"
       style="display:inline" /></g></svg>
