<?xml version="1.0" encoding="UTF-8" standalone="no"?>
<!-- Created with Inkscape (http://www.inkscape.org/) -->

<svg
   width="127.24422mm"
   height="198.69576mm"
   viewBox="0 0 127.24422 198.69576"
   version="1.1"
   id="svg1"
   xml:space="preserve"
   xmlns="http://www.w3.org/2000/svg"
   xmlns:svg="http://www.w3.org/2000/svg"><defs
     id="defs1" /><g
     id="layer1"
     transform="translate(-38.571656,-53.517298)"><g
       transform="matrix(1.3992166,0,0,1.3992166,24.977728,42.960207)"
       id="g10"><path
         d="m 23.9,62.25 -0.85,-3.3 q -0.4,-2.05 0.3,-3.15 l 0.15,-0.1 h 0.05 Q 50.85,50.55 76.9,41.1 H 77 v -0.05 l -0.65,-0.1 -6.05,0.15 h -8.1 l -3.45,0.95 H 58.6 L 58.8,43 v 0.1 q 0.3,0.6 -0.4,0.9 l -4.15,0.3 Q 53.85,44.1 54,43.9 h 0.2 L 53.8,43.45 Q 33.85,49.1 13.8,54.2 l -0.15,0.25 q -3.25,1.05 -0.95,4.2 l 0.05,0.2 q 1.9,4.6 4.9,8.55 l 4.65,5.65 2.85,-3.45 -0.05,-0.25 -1.2,-7.1 M 48.7,16.7 q 0.55,7 2.45,13.75 l 3.9,13.45 V 44 l 1.45,-0.1 1.9,-0.55 Q 57.75,43 57.55,42.5 54.2,29.6 51.6,16.6 l -2.9,0.1 m -0.05,-2.4 v 1.8 l 0.05,0.25 Q 50.25,17 51.55,15.9 l -0.05,-0.2 -0.15,0.2 q -0.35,0.4 -1,-0.2 l -0.7,-0.15 -1,-1.25 m 1.45,0.95 V 14.9 L 50.3,14.55 49.4,14 48.65,13.25 v 0.6 l 0.2,0.35 0.8,1 0.45,0.05 m -0.15,-5.05 -1.3,0.8 -0.6,0.65 -0.05,0.05 0.2,0.45 0.45,0.6 q 0.75,1.35 1.85,1.45 l 0.55,-0.4 q -1.7,-1.55 -1.1,-3.6 m 1.45,1.7 Q 51.35,10.2 53,9.85 L 50.7,9.9 q -1.3,2.15 0.7,3.75 l 0.9,-0.25 q -0.75,-0.6 -0.9,-1.5 m 1.55,-1.3 0.15,-0.3 q -0.9,0.2 -1.2,1.15 -0.3,1.35 1.05,1.95 h 0.2 q -0.85,-1.35 -0.2,-2.8 m 25.35,6.7 q 0,-1.6 1.25,-2.45 Q 73.65,13.1 67.35,12.6 61.1,12.15 55.1,10.5 L 54.95,10.45 54.4,10.3 54.2,10.2 h -0.05 q -0.7,0.45 -0.9,1.15 -0.3,1.2 0.3,2.15 l 0.8,0.35 0.2,0.15 q 11.9,2.7 24.1,4.65 -0.35,-0.6 -0.35,-1.35 m 2.8,1.1 q 1.1,-1.05 0.9,-2.65 l -1.6,-0.65 -0.8,0.3 q -0.75,0.7 -0.9,1.65 -0.1,1.15 0.5,1.85 1.05,0 1.9,-0.5 M 31.55,139.35 q 10.65,4.8 21.6,8.3 L 98.85,132 92.8,84.55 Q 90.05,62.7 87.85,43.1 62.65,50.85 37.15,58.1 36.3,57.8 36.5,57.2 61.5,50.1 86.4,42.55 H 82.6 L 78.7,42.7 78.3,42.65 77.8,42.55 77.75,42.5 Q 51.95,51.8 25,56.9 q 0.15,0.65 -0.45,0.9 l 0.35,3.35 0.45,2.65 0.8,4.6 q 4.5,-4.95 8.05,-10.85 0.5,-0.2 0.15,1.15 -2.55,4.5 -5.3,8.25 l -5.9,7.8 q -0.55,0.15 -1,-0.5 L 16.4,67.2 q -1.95,-2.65 -3.35,-5.65 l 3.1,15.15 q 6.45,29.95 11.65,60.7 l 0.1,0.35 3.65,1.6 M 89.5,42.4 l 4.95,41.9 6.2,48.15 v 0.1 q 0.05,0.6 -0.4,0.95 l -0.3,0.1 -34.45,11.9 -11.6,3.95 h -0.1 l -0.15,0.1 -0.5,-0.1 Q 41.6,145.8 30.95,140.9 l -3.9,-1.65 q -1,-0.6 -1,-1.75 l 0.1,-0.15 Q 20.9,106.75 14.5,77.05 L 10.65,58.7 Q 9.3,56.85 9.9,53.9 q 0.35,-1.1 2.7,-1.65 l 0.7,0.15 16.1,-4.25 q 11.5,-2.8 23.05,-6.2 l -1.3,-4.55 q -4,-11.6 -4.75,-23.8 l -0.75,-1.05 q -0.65,-1.6 1.1,-3.2 3.2,-2.85 7.4,-1.2 l 0.2,0.1 q 6.05,1.8 12.4,2.2 7.5,0.4 14.8,3.15 1.15,-0.15 1.85,0.9 1.6,2.35 0.1,4.95 -1.65,1.85 -3.75,1.65 H 79.4 L 78.35,20.75 Q 66.3,18.8 54.55,16.1 l -0.7,-0.5 -0.35,-0.05 q 2.3,12.2 5.45,24.55 l 2.55,-0.75 h 0.65 7.65 l 2.15,-0.05 5.5,0.15 q 1.05,0.25 1.35,1.35 v 0.1 l 0.05,0.15 2.5,-0.15 1.15,-0.1 5.25,-0.05 q 0.85,0.05 1.25,0.7 l 0.5,0.95" /><path
         d="m 35.830829,56.561846 q 0.367622,-0.372578 0.945315,0.58548 7.352457,45.827124 16.543027,91.281664 -0.315105,0.63871 -0.892798,-0.31935 -9.243088,-45.56099 -16.595544,-91.547794" /><path
         d="M 52.45,45.15 52.2,44.7 q 0.4,-0.8 1.3,-0.9 0.5,0.2 0.35,0.5 -0.7,0 -1.05,0.5 4.35,0.95 7.9,-1.7 0.4,0 0.4,0.35 -3.9,3 -8.65,1.7" /><path
         d="m 23.2,99.8 0.8,3.65 17.65,5 -0.6,-3.5 L 23.2,99.8 m 0.85,4.25 3.05,16.25 18.05,5.7 -3.35,-16.8 -17.75,-5.15 m 5.3,29.55 q 9.2,4.95 19.2,7.95 l -2.85,-12.7 -18.1,-6 1.75,10.75 M 21.55,92 22.7,97.3 40.55,102.25 39.7,97.3 21.55,92 m -0.15,-0.6 18.2,5.15 -1.3,-7.95 -18.7,-5 1.8,7.8 M 17.7,75.7 18.95,80.95 37.9,85.75 37,79.7 q -9.8,-1.05 -19.3,-4 m 19.8,3.55 q 4.5,31.55 11.7,62.65 0.4,0.45 0.05,0.45 L 48.9,142.2 q -10.15,-3.05 -19.55,-8.1 l -0.2,-0.45 -0.45,-0.4 q -2.3,-14.8 -5.2,-29.4 L 23.35,103.2 Q 20.5,89.15 17,75.2 l 0.1,-0.1 0.1,-0.1 q 9.65,3 19.65,4.05 v -0.2 q 0.3,-0.2 0.65,0.4" /><path
         d="m 51.05,91.75 q 3.35,-1 5.3,2 l 0.15,0.15 0.85,2.1 q 2.05,-1.85 4.85,-2.6 3.7,-1.45 7.6,-2.3 l 7.4,-0.9 q 1.45,-0.15 2.55,0.5 -1.15,-4.2 -1.1,-8.7 -2.7,2.2 -4.6,3.1 -5.15,2.6 -10.65,3.5 -5.5,0.95 -11,2.5 -0.65,0.05 -0.2,-0.15 8.85,-2.2 17.55,-5.05 4,-1.4 7.3,-4.15 l 1.2,-1.1 -9.3,-0.25 q -7.65,1 -16.35,7.35 -0.4,0.35 -0.05,-0.05 3.1,-3.55 7.85,-5.5 4.65,-1.95 9.25,-2.85 L 77.2,78.9 q 1.5,0.7 1.5,1.2 0.85,-1 0.55,-1.65 -1,-1.55 -5.5,-1.05 -4.5,0.4 -8.95,2 -10.8,4.1 -12.75,7.3 -1.95,3.2 -1,5.05 m 28.45,-9.3 q -0.1,5.65 1.85,10.8 1.6,-1.5 2.25,-3.75 0.55,-2.1 -0.35,-4.75 -0.9,-2.65 -3.75,-2.3 m 5.7,22.5 q 0.85,-2.15 -0.1,-3.8 L 82.9,97.8 82.75,97.6 q -1.8,-3.1 -2.85,-6.5 -1.1,-0.75 -2.85,-0.55 l -3,0.4 q -2.9,0.35 -5.7,1.05 -2.95,0.8 -5.8,1.9 -3.05,0.7 -5.1,2.85 0.5,3.35 0.3,6.8 -0.3,3.5 1,6.55 l 0.1,0.25 q 3.3,4.35 9.55,3.55 6.2,-0.85 10.4,-3.25 4.05,-1.95 6.4,-5.7 M 67.65,77.8 q 7.25,-1.9 9.6,-1.25 2.35,0.55 2.65,1.55 l 0.3,0.6 q 4.1,0.4 5.4,4.4 1.4,3.95 0.7,7.6 -0.7,1.6 -0.9,2.9 -0.7,0.5 0.3,0.15 h 0.1 l 0.8,0.2 q 0.35,-0.05 0.8,0.65 0.8,1.6 -0.25,2.9 -1.1,1.25 -2.65,1.6 2.8,2.75 1.55,6.55 -1.35,2.5 -3.9,4.35 l -5.25,2.75 q -3.9,1.75 -8.7,1.95 -4.9,0.3 -8.35,-2.4 -0.3,0 -0.65,-0.35 -2.7,-4 -2.15,-8.6 Q 57.55,98.7 56,94.4 l -0.15,-0.25 q -1.5,-2.7 -4.45,-1.45 -0.35,0.1 -0.6,-0.4 l -0.45,-0.45 q -1.15,-2 1.5,-6.1 2.7,-4.1 15.8,-7.95 m 12.55,1.75 -0.65,1.4 v 0.55 q 3.4,0.4 4.65,3.95 1.55,5.15 -2.35,8.95 l 0.9,2 0.3,0.3 0.9,1.5 Q 85.25,98 86.1,97 87.35,95.3 85.45,94.75 l -1,-0.45 q -0.35,-0.2 -0.35,-0.6 1.45,-2.75 1.6,-5.8 0.2,-2.7 -1.05,-5.45 -1.2,-2.75 -4.45,-2.9" /><path
         d="m 78.1,93.7 q 0.4,0.1 0.35,0.45 -9.25,4.5 -19.6,3.15 -0.4,-0.3 -0.2,-0.4 10.2,1.25 19.45,-3.2" /><path
         d="m 53.35,100.3 q -0.1,-1.45 -1.4,-2.65 -0.45,1.2 -0.4,2.3 l 0.05,0.95 q 0.8,1 1.35,0.35 l 0.4,-0.95 m -1.8,-3.75 q 0.35,-0.3 0.85,0.4 l 1.8,3.15 q 0.3,1.95 -1.45,2.45 -1.75,-0.45 -2.05,-2.3 -0.2,-1 0.1,-2.05 0.05,-0.95 0.6,-1.65 h 0.15" /><path
         d="m 78.7,68.95 q 9.3,6.7 11.15,20.15 1.25,11.95 -3.4,21.5 -4.6,9.5 -12.95,12.05 L 71.95,123 Q 66.4,123.9 60.9,120.55 50.95,114.1 47.7,99.65 45.5,87.5 50.1,78 54.7,68.55 64,66.05 q 7.9,-1.75 14.7,2.9 m 10.6,20.2 Q 87.5,76 78.45,69.35 72.3,65.2 65.35,66.3 l -1.1,0.2 q -9.2,2.55 -13.75,11.8 -4.45,9.3 -2.2,21.25 3.2,14.2 12.85,20.6 6.1,3.6 12.2,2 8.15,-2.5 12.7,-11.9 4.5,-9.25 3.25,-21.1" /><path
         d="m 62.15,110.95 -0.65,-0.4 q -0.55,-0.5 -1.3,-2.75 -0.55,-2.85 -0.5,-8.05 0.05,-5.3 -1.2,-7.45 0.15,-0.2 1.4,1.5 1.35,1.9 2.75,8.45 0.95,6.45 0.35,7.75 -0.65,1.25 -0.85,0.95"/><path
         d="m 375.09118,941.18939 c -0.2067,-0.7112 -3.70776,-18.08487 -7.78016,-38.60816 -23.50585,-118.46046 -42.68193,-223.08937 -63.92089,-348.76655 -5.02943,-29.76061 -13.73655,-83.04725 -13.73655,-84.06619 0,-0.32561 0.58189,-0.60187 1.29309,-0.61388 3.40429,-0.0575 156.63506,-45.02774 237.83608,-69.80019 15.89977,-4.85063 29.24499,-8.81933 29.65607,-8.81933 0.41108,0 0.95273,1.74568 1.20367,3.87929 0.25093,2.13361 2.12943,18.50975 4.17445,36.39142 9.21878,80.60928 15.99034,135.36527 40.64015,328.62322 6.98435,54.75824 12.52958,100.00145 12.32274,100.54046 -0.20683,0.53901 -14.29235,5.73378 -31.30115,11.54395 -17.0088,5.81017 -70.60772,24.1596 -119.10871,40.7765 -48.501,16.61691 -88.79549,30.21256 -89.54332,30.21256 -0.74782,0 -1.52879,-0.58189 -1.73547,-1.2931 z M 479.03717,811.66735 c 7.14157,-1.53852 17.58632,-5.73109 24.9579,-10.01822 35.07196,-20.397 60.51374,-67.29481 65.78323,-121.26074 1.29917,-13.30496 0.48746,-42.77173 -1.48173,-53.79086 -6.47508,-36.23291 -19.84751,-63.81729 -41.4026,-85.40447 -14.87057,-14.89271 -31.53337,-24.65889 -49.82887,-29.20504 -10.08331,-2.50554 -25.7236,-3.14231 -36.52059,-1.48686 -23.00351,3.52699 -47.0347,17.27109 -62.38677,35.68071 -35.78304,42.90965 -44.99944,108.43795 -23.83339,169.45458 9.44335,27.22291 21.47043,47.17053 39.35495,65.27247 26.24972,26.56886 55.64178,37.16019 85.35787,30.75843 z"
         transform="matrix(0.18909391,0,0,0.18909391,-17.851223,-30.703043)" /><path
         d="m 283.36473,813.2356 c -24.83718,-7.87642 -45.44461,-14.85818 -45.79429,-15.51503 -0.61343,-1.15227 -15.63085,-80.9478 -15.63085,-83.05498 0,-0.57073 0.8882,-1.03803 1.97377,-1.03844 2.24139,-8.6e-4 90.21746,25.30412 91.23652,26.24279 0.36429,0.33556 4.4028,19.3392 8.97446,42.23031 4.57166,22.89112 8.52473,42.50841 8.7846,43.59398 0.40545,1.69372 0.12782,1.96585 -1.95661,1.91795 -1.33601,-0.0307 -22.75043,-6.50017 -47.5876,-14.37658 z"
         transform="matrix(0.18909391,0,0,0.18909391,-17.851223,-30.703043)" /><path
         d="m 333.15279,905.32243 c -25.42664,-8.65922 -51.30392,-19.71708 -77.53196,-33.13091 l -6.2328,-3.18764 -4.15472,-25.71202 c -2.2851,-14.14161 -4.36543,-26.79759 -4.62295,-28.1244 -0.40715,-2.09777 -0.19649,-2.40367 1.61521,-2.34553 1.14589,0.0368 22.79929,7.04366 48.11869,15.57086 l 46.03525,15.504 7.21048,32.01895 c 3.96576,17.61043 7.23121,32.5124 7.25656,33.1155 0.0791,1.88174 -3.44992,1.14203 -17.69376,-3.70881 z"
         transform="matrix(0.18909391,0,0,0.18909391,-17.851223,-30.703043)" /><path
         d="m 432.47517,764.05133 c -13.40214,-3.68896 -25.33617,-13.04394 -28.84392,-22.61049 -3.43629,-9.37166 -4.63012,-19.13111 -3.99242,-32.63772 0.35208,-7.45708 0.16923,-16.76081 -0.4655,-23.68525 l -1.04533,-11.40401 3.68985,-3.29009 c 6.02172,-5.36933 11.68328,-8.01062 31.09594,-14.50722 21.48495,-7.19012 33.25008,-9.97067 55.14237,-13.03227 25.49649,-3.56565 27.28562,-3.02067 32.09426,9.77602 4.4704,11.89656 10.08107,22.81507 17.39876,33.85846 7.72417,11.65679 8.87314,13.9048 9.52041,18.6271 1.44269,10.52565 -8.68153,25.06691 -25.38626,36.46187 -7.14306,4.87255 -23.41172,12.75574 -32.57244,15.7834 -20.59347,6.80621 -45.47498,9.73221 -56.63572,6.6602 z"
         transform="matrix(0.18909391,0,0,0.18909391,-17.851223,-30.703043)" /></g></g></svg>
