<?xml version="1.0" encoding="UTF-8"?>
<svg xmlns="http://www.w3.org/2000/svg" viewBox="0 0 109.67 105.15">
  <g>
    <path d="m31.51,97.28c8.11-12.87,17.43-23.35,33.61-24.54v-10.49c-3.46-.1-6.75.49-9.98,1.42-7.59,2.17-14.06,6.29-19.76,11.65-7.56,7.1-13.61,15.28-17.28,25.07-.57,1.52-.94,3.11-1.42,4.76H6.01c.35-7.55,4.03-13.76,7.45-19.88-2.04-2.16-4.21-4.16-6.01-6.45-3.75-4.76-5.71-10.3-6.43-16.29-1.54-12.69,2.05-24.16,8.47-34.91C15.72,17.19,23.83,8.41,33.5,1.06c.13-.1.28-.17.41-.25,5.94,6.47,15.65,24.24,16.98,31.02-3.23,1.38-6.45,2.77-9.83,4.21-2.25-6.7-5.28-13.16-9.18-19.48-1.92,2.12-3.82,4.1-5.59,6.19-5.7,6.76-10.45,14.09-13.04,22.63-2.15,7.1-2.63,14.25-.14,21.39,1.12,3.21,3.2,6.29,5.53,8.23,2.47-11.35,3.37-22.75,3.57-34.31h10.88c-.27,5.45-.53,10.88-.81,16.55.39-.42.66-.7.91-.99,6.16-7.07,13.48-12.35,22.73-14.55,8.8-2.09,17.45-1.12,25.9,1.72,10.53,3.53,19.64,9.38,27.31,17.43.25.26.4.96.23,1.21-4.69,7.06-9.28,14.2-15.02,20.51-8.36,9.18-18.56,14.93-30.91,16.66-6.49.91-12.99.77-19.47-.07-4.03-.52-8.03-1.22-12.47-1.9Z"/>
  </g>
</svg>