<?xml version="1.0" encoding="UTF-8" standalone="no"?>
<!-- Created with Inkscape (http://www.inkscape.org/) -->

<svg
   width="119.40818mm"
   height="120.61037mm"
   viewBox="0 0 119.40818 120.61037"
   version="1.1"
   id="svg1"
   xml:space="preserve"
   xmlns="http://www.w3.org/2000/svg"
   xmlns:svg="http://www.w3.org/2000/svg"><g
     transform="translate(-44.960565,-89.196729)"><path
       style="display:inline;fill:#000000"
       d="m 94.408023,209.71643 c -14.739259,-1.03844 -26.959601,-3.26425 -33.971873,-6.18762 -5.50361,-2.29442 -9.429953,-6.29659 -11.082424,-11.29645 -1.901909,-5.75458 -2.74108,-19.61111 -3.097153,-51.14069 -0.182681,-16.17612 -0.261801,-18.56363 -0.657599,-19.84375 -0.705365,-2.28136 -0.86664,-8.73083 -0.279516,-11.178 1.298961,-5.41415 4.988379,-9.23267 12.476769,-12.913362 6.769861,-3.327518 16.15577,-5.710616 27.483672,-6.978151 12.441968,-1.392193 28.417081,-1.296344 40.216661,0.241295 12.52221,1.631806 24.67226,5.321764 31.10739,9.447286 4.59626,2.946632 7.05449,6.863432 7.66453,12.212222 0.28991,2.54189 -0.0714,6.71768 -0.7934,9.16871 -0.64762,2.19863 -0.73353,3.14898 -1.20784,13.36146 -0.56474,12.15945 -1.93488,33.32216 -2.9121,44.97916 -1.04897,12.51293 -1.92655,15.52412 -5.69991,19.55786 -1.69645,1.8135 -4.00743,3.4221 -6.5,4.52444 -5.29513,2.34175 -15.23875,4.42879 -26.55346,5.57321 -3.90168,0.39464 -22.529135,0.73056 -26.193747,0.47238 z m 20.127797,-0.63875 c 11.72606,-0.66499 23.40123,-2.58144 29.93297,-4.91343 3.66435,-1.30825 6.00804,-2.71503 8.33146,-5.00088 2.732,-2.68781 4.04941,-5.22837 4.84834,-9.34979 0.97137,-5.01093 3.16366,-34.80301 4.10122,-55.73337 0.39539,-8.82678 0.55624,-10.30883 1.59369,-14.68438 0.24616,-1.03817 0.41481,-3.03058 0.42552,-5.02708 0.0154,-2.87465 -0.0731,-3.58963 -0.67644,-5.4656 -0.77834,-2.41997 -2.27358,-4.84216 -3.89133,-6.3037 -5.77628,-5.218519 -18.40906,-9.594417 -33.5724,-11.62922 -16.69469,-2.240298 -38.030911,-1.499277 -53.231742,1.848772 -7.962873,1.753858 -14.876801,4.541173 -19.667633,7.928908 -2.217832,1.56829 -4.952512,4.54766 -5.780336,6.29754 -1.237698,2.61628 -1.561349,4.6428 -1.401994,8.77851 0.09029,2.34314 0.334633,4.48189 0.665019,5.82083 0.486423,1.9713 0.532155,3.37045 0.665894,20.37292 0.235884,29.98808 1.054102,43.90108 2.925291,49.74166 1.540656,4.80889 4.657536,8.23619 9.811968,10.78916 6.380922,3.16046 20.964328,5.83826 36.115623,6.63156 3.863041,0.20226 14.44911,0.14461 18.80488,-0.10241 z m -19.334047,-1.56461 c -10.307205,-0.60649 -22.244603,-2.51414 -29.897915,-4.77783 -7.831837,-2.31648 -12.262012,-6.345 -14.016971,-12.74611 -0.988026,-3.60377 -1.654916,-9.73913 -1.058606,-9.73913 0.290581,0 0.343343,0.10979 1.583418,3.29501 1.554598,3.99308 3.738144,6.74003 7.362699,9.26244 8.157035,5.67667 33.690504,9.47679 54.283622,8.07899 13.1032,-0.88941 25.37784,-3.13889 31.34132,-5.74369 4.0065,-1.75 8.34744,-5.49073 10.29673,-8.87303 0.56348,-0.97771 1.14469,-1.70339 1.29157,-1.61262 0.70762,0.43734 -0.56704,6.4322 -1.97631,9.29484 -1.50086,3.04868 -4.78342,6.0631 -8.29225,7.61486 -5.50349,2.43391 -15.63312,4.47697 -27.50168,5.54686 -5.28914,0.47679 -18.32246,0.6991 -23.415627,0.39941 z m 1.439782,-8.73418 c -11.097001,-0.61636 -22.583427,-2.48001 -29.592613,-4.80134 -6.211201,-2.05705 -10.887343,-5.62567 -12.313428,-9.39706 -1.30465,-3.45025 -2.421698,-20.46678 -2.724553,-41.50445 l -0.06856,-4.7625 0.661459,0.0344 c 0.363802,0.0189 1.554427,0.41649 2.645833,0.8835 2.676961,1.14548 12.014059,3.48025 17.859374,4.46581 9.587557,1.61652 17.703274,2.15711 32.374663,2.15648 17.38485,-7.5e-4 27.11453,-0.94199 38.30755,-3.70581 6.17938,-1.52584 11.9608,-3.63645 12.59133,-4.59668 0.30776,-0.46868 0.2345,-1.34174 -0.15756,-1.87792 -0.3449,-0.47168 -0.46459,-0.44709 -2.84427,0.5842 -8.74891,3.79156 -20.63509,6.12859 -35.30717,6.94202 -6.15097,0.34101 -20.6969,0.34216 -26.443711,0.002 -4.943819,-0.29255 -10.848648,-0.86083 -15.345832,-1.47689 -10.136254,-1.38853 -23.155036,-5.27761 -24.199412,-7.22904 -0.353824,-0.66113 -0.356931,-3.11147 -0.0042,-3.32946 0.148678,-0.0919 0.833287,0.17789 1.521354,0.59951 1.834434,1.12405 2.865432,1.43733 3.240986,0.98482 0.524011,-0.6314 0.171632,-1.24924 -1.290822,-2.26327 -1.694854,-1.17518 -3.587739,-2.98567 -4.265674,-4.08001 -0.767939,-1.23962 -3.355619,-7.81654 -3.566494,-9.0647 -0.239426,-1.41715 0.324316,-1.5388 1.213466,-0.26186 2.510653,3.60564 4.855954,5.22942 11.475819,7.94533 7.661633,3.14331 18.331137,5.44922 29.236456,6.31863 6.58911,0.52531 24.825874,0.44949 30.294784,-0.12594 11.34149,-1.19334 23.08923,-3.60764 28.75321,-5.90912 5.35672,-2.17663 9.74327,-5.18226 12.29922,-8.42734 0.72792,-0.92418 0.85834,-0.99651 1.02887,-0.57064 0.11525,0.28782 -0.13989,1.80685 -0.62254,3.70631 -0.6417,2.52547 -0.87863,4.2153 -1.10018,7.84668 -0.1553,2.54544 -0.51699,8.43807 -0.80376,13.09474 -0.28677,4.65666 -0.64546,10.90744 -0.79709,13.89062 -0.30148,5.9313 -1.14018,16.77029 -1.69618,21.92059 -0.27635,2.5599 -0.47278,3.41932 -0.90712,3.96875 -0.30491,0.3857 -1.46216,2.03943 -2.57167,3.67493 -2.42609,3.57626 -5.34941,6.43656 -8.00409,7.83155 -4.99718,2.62595 -16.50634,5.13977 -27.98626,6.11274 -5.6625,0.47993 -16.05402,0.689 -20.891162,0.42033 z m -3.46641,-69.33039 c -3.830324,-0.20121 -5.565086,-0.41466 -13.054621,-1.60628 -8.657001,-1.37737 -15.301813,-3.28123 -21.595791,-6.18759 -4.498853,-2.07743 -8.302124,-5.54865 -8.302124,-7.5773 0,-0.41072 0.296136,-1.67402 0.65808,-2.80735 0.640833,-2.00659 0.832751,-3.25123 0.501328,-3.25123 -0.08993,0 -0.570323,0.35719 -1.06754,0.79375 -1.021451,0.89685 -1.360964,0.97729 -1.591307,0.37702 -0.51061,-1.33063 3.25805,-6.04964 6.432317,-8.05437 7.204296,-4.549921 18.334853,-7.709242 32.241078,-9.151374 5.468797,-0.567136 22.631155,-0.798892 28.547725,-0.385501 9.81666,0.685891 20.37959,2.594021 28.18189,5.090886 6.68336,2.138786 12.60965,5.482679 14.60948,8.243359 0.94589,1.30577 0.97263,1.73061 0.0984,1.56349 -0.73809,-0.1411 -0.76136,-0.0974 -0.42252,0.79383 0.42011,1.10496 0.83966,5.47322 0.66225,6.89504 -0.15658,1.25479 -0.32426,1.52571 -1.92541,3.11077 -1.94719,1.92761 -4.05764,3.37528 -6.64869,4.56069 -4.74244,2.16966 -12.71882,4.43338 -19.83844,5.63022 -2.11297,0.3552 -4.00883,0.70742 -4.21302,0.78271 -0.20418,0.0753 -2.34731,0.388 -4.7625,0.69492 -3.65639,0.46465 -6.07377,0.5695 -14.44542,0.62652 -5.52979,0.0377 -11.859113,-0.0263 -14.065165,-0.14221 z m 26.368295,-1.19594 c 2.40109,-0.22085 5.10498,-0.53773 6.00865,-0.70416 1.47195,-0.27111 1.67167,-0.38481 1.91823,-1.09207 0.44288,-1.27047 0.3232,-3.09011 -0.28602,-4.34858 -1.06556,-2.20115 -4.09249,-3.42923 -7.76382,-3.14991 -2.43826,0.1855 -8.44304,1.52505 -9.662,2.1554 -1.1139,0.57601 -1.85451,1.8702 -1.85572,3.24277 -8.1e-4,0.92292 0.17222,1.31544 0.96838,2.19669 1.99817,2.21174 3.13629,2.39301 10.6723,1.69986 z m -29.802206,-2.49737 c 2.608309,-0.66709 6.957852,-2.8178 7.684972,-3.79997 0.776033,-1.04825 0.747551,-3.58841 -0.05754,-5.13186 l -0.582787,-1.11727 0.654452,-0.42881 c 0.850333,-0.55716 1.733283,-0.40564 7.229079,1.24056 4.60464,1.37927 5.72486,1.54255 5.98218,0.87198 0.32661,-0.85113 0.14418,-1.42843 -0.56701,-1.79427 -0.96399,-0.4959 -9.23537,-2.8143 -10.04059,-2.8143 -0.34667,0 -0.95291,0.23448 -1.3472,0.52106 -0.886316,0.64421 -2.942006,1.02837 -7.06689,1.32065 -4.427112,0.31369 -8.551638,1.73388 -10.820175,3.72568 -1.640964,1.44078 -2.49683,4.02501 -1.681387,5.07682 0.533044,0.68755 2.884737,2.37484 3.621544,2.59838 1.320592,0.40065 4.91436,0.26256 6.991354,-0.26865 z m 49.125876,-4.44113 c -0.12021,-0.40018 -0.30323,-0.93596 -0.40672,-1.19062 -0.28686,-0.70592 0.21216,-0.55328 1.04992,0.32116 0.62859,0.65611 0.69621,0.85057 0.41398,1.19063 -0.4596,0.55379 -0.10578,0.51127 0.74497,-0.0895 0.38627,-0.27278 1.59527,-0.94075 2.68668,-1.48438 1.0914,-0.54364 2.66158,-1.39614 3.48928,-1.89446 1.0919,-0.65738 1.68499,-0.86084 2.16108,-0.74135 0.48032,0.12055 0.72333,0.0344 0.90682,-0.32156 0.36421,-0.70654 0.60661,-6.43671 0.29677,-7.01566 -0.25981,-0.48545 -1.66848,-0.6878 -1.92285,-0.27621 -0.07,0.11321 -0.16322,1.83015 -0.20722,3.81542 -0.044,1.98527 -0.17237,3.55249 -0.28527,3.48271 -0.11291,-0.0698 -0.20528,-0.45981 -0.20528,-0.86673 0,-0.5366 -0.4426,-1.22289 -1.61094,-2.49793 -0.88602,-0.96693 -1.80875,-1.75633 -2.05052,-1.75421 -0.87164,0.008 -2.83543,0.84115 -3.52326,1.49543 -0.44312,0.42149 -1.55774,0.90903 -3.01928,1.32065 -2.6166,0.7369 -4.08254,1.41509 -4.858,2.24745 -0.75318,0.80844 -0.48286,1.00035 1.16889,0.82987 1.35105,-0.13944 1.53987,-0.0843 2.88742,0.84384 1.30088,0.89594 1.61944,1.32643 2.10904,2.85006 0.24666,0.76757 0.41009,0.51975 0.17449,-0.26459 z m -2.65492,-3.25989 c -0.84538,-0.72872 -1.0528,-0.7871 -2.38125,-0.67021 -1.21252,0.10668 -1.38045,0.0725 -1.00695,-0.20519 0.24655,-0.18328 1.15865,-0.35281 2.0269,-0.37674 1.54449,-0.0426 1.5906,-0.0232 2.13143,0.8934 0.87052,1.47543 0.64641,1.57982 -0.77013,0.35874 z m -67.733332,2.11824 c 0,-0.15497 -0.577945,-0.8447 -1.284322,-1.53273 -0.706377,-0.68804 -1.424845,-1.67676 -1.596595,-2.19717 -0.284617,-0.8624 -0.232953,-1.12025 0.58338,-2.91157 0.845541,-1.85542 0.997784,-2.02612 2.721074,-3.05094 2.879678,-1.7125 4.504022,-3.58846 3.594097,-4.15083 -0.258839,-0.15997 -5.405949,1.43049 -6.531176,2.01814 -1.097342,0.57308 -2.692687,2.21827 -3.529915,3.64019 -0.56596,0.96121 -0.701268,1.5258 -0.702228,2.93011 -10e-4,1.50075 0.10109,1.87371 0.744031,2.71743 0.912466,1.1974 1.691834,1.72377 3.454262,2.33291 1.5484,0.53518 2.547392,0.61536 2.547392,0.20446 z m 2.124239,-1.37189 c 1.588156,-1.52307 4.306668,-3.21543 6.673156,-4.15426 0.836745,-0.33195 1.521354,-0.68096 1.521354,-0.77557 0,-0.0946 -1.345007,-1.51322 -2.988904,-3.15245 l -2.988904,-2.98043 -0.638804,0.67998 c -0.351342,0.37398 -1.563244,1.27298 -2.693115,1.99776 -1.129872,0.72478 -2.20406,1.58333 -2.387086,1.90789 -0.553829,0.9821 -1.267325,2.93943 -1.267554,3.47727 -3.61e-4,0.84852 1.263621,2.7217 2.246402,3.32909 0.51061,0.31558 0.928382,0.68313 0.928382,0.81678 0,0.37234 0.047,0.33857 1.595073,-1.14606 z m 63.360133,-4.23192 c 5.50518,-1.94936 6.41033,-2.47284 7.30419,-4.2242 1.10753,-2.17002 0.4714,-4.02954 -1.75033,-5.11653 -1.30061,-0.63633 -1.68241,-0.70242 -3.37782,-0.58474 -1.90138,0.13198 -6.55328,1.48273 -9.33397,2.71028 -2.85479,1.26025 -4.59111,3.6116 -4.06744,5.50818 0.29983,1.08592 1.45967,2.10333 2.89099,2.53598 0.50933,0.15395 1.99761,0.24121 3.3073,0.19391 1.90658,-0.0689 2.90865,-0.27275 5.02708,-1.02288 z m -24.1713,-2.77509 c 0.54529,-1.09545 0.77253,-1.29106 1.81401,-1.56153 1.14927,-0.29846 1.15978,-0.3101 0.30242,-0.33517 -0.67498,-0.0197 -0.85164,-0.12125 -0.73591,-0.42285 0.0838,-0.21828 0.037,-0.39687 -0.10398,-0.39687 -0.14096,0 -0.25628,-0.11907 -0.25628,-0.26459 0,-0.37321 0.88001,-0.32922 1.32338,0.0661 0.31124,0.27753 0.31943,0.26215 0.0509,-0.0957 -0.18076,-0.24089 -0.88568,-0.4934 -1.62026,-0.5804 -0.71515,-0.0847 -1.93464,-0.47587 -2.70997,-0.86926 -2.11541,-1.07334 -5.82806,-2.21536 -6.32952,-1.94699 -0.2321,0.12422 -0.76657,0.67803 -1.18772,1.2307 -0.421151,0.55267 -1.064709,1.27328 -1.430129,1.60136 -0.491222,0.44102 -0.536718,0.55165 -0.174544,0.42441 0.377703,-0.13268 0.46825,-0.0599 0.395486,0.31794 -0.0519,0.26952 -0.391402,0.56341 -0.754439,0.65309 -0.554999,0.13711 -0.468674,0.19288 0.542306,0.35039 0.661307,0.10302 3.04256,0.8269 5.29167,1.60861 2.24911,0.78171 4.28501,1.43293 4.52424,1.44715 0.26737,0.0159 0.67512,-0.45663 1.05833,-1.22646 z m -22.79224,-1.52766 c 2.757486,-1.55739 6.544397,-3.43277 11.467884,-5.67921 l 4.191846,-1.91261 1.23211,0.46959 c 0.67767,0.25828 3.7281,1.63944 6.77875,3.06924 3.05065,1.4298 5.74474,2.59964 5.98688,2.59964 0.61957,0 1.09039,-0.65476 0.98836,-1.3745 -0.069,-0.48654 -0.78202,-0.96759 -3.52604,-2.37878 -1.89177,-0.97289 -4.74927,-2.32334 -6.35,-3.001 -1.60073,-0.67765 -3.15171,-1.51712 -3.44662,-1.86548 l -0.53621,-0.633385 -3.69713,1.546855 c -4.577631,1.91524 -10.163413,4.57158 -14.082017,6.69673 -2.867044,1.55487 -2.976563,1.64646 -2.976563,2.48939 0,0.98163 0.608252,1.50503 1.455209,1.25222 0.291041,-0.0869 1.422135,-0.66229 2.513541,-1.2787 z"
       id="path2" /></g></svg>
