<svg xmlns="http://www.w3.org/2000/svg" xml:space="preserve" width="189.131" height="198.208" viewBox="0 0 50.041 52.443"><path d="M2.626 35.98C.84 35.5 0 34.598 0 33.16c0-1.393.762-2.147 2.77-2.744 1.968-.584 2.065-.555 2.065.621 0 .997-.036 1.036-1.191 1.327-1.836.462-1.525 1.284.661 1.75 1.069.226 1.314.508 1.32 1.519.003.649-.09.725-.856.71-.473-.01-1.438-.174-2.143-.363m41.73-.447c.092-.454.166-.917.166-1.028s.534-.281 1.188-.38c.653-.097 1.38-.37 1.616-.607.397-.396.393-.456-.042-.774-.26-.19-.871-.42-1.359-.512-.855-.16-.88-.2-.713-1.128.096-.529.209-1.002.252-1.052.255-.298 3.218.903 3.892 1.577.677.677.766.924.632 1.767-.273 1.718-2.423 2.964-5.115 2.964-.622 0-.667-.072-.516-.827M21.084 52.256c-2.148-.393-4.08-1.041-4.808-1.613-.57-.448-.703-.773-.703-1.707 0-1.087-.077-1.206-1.296-2.032-5.273-3.568-8.273-9.013-8.675-15.743-.115-1.916-.063-2.933.178-3.515 1.557-3.757 10.838-6.407 21.038-6.006 6.566.259 11.994 1.558 15.22 3.643 2.03 1.311 2.375 2.018 2.375 4.867 0 6.805-3.279 13.128-8.658 16.698-1.332.884-1.397.981-1.397 2.085 0 1.44-.646 2.017-3.145 2.81-1.958.62-7.899.921-10.129.513m11.82-17.584c4.75-.828 8.503-2.395 9.545-3.986.397-.606.408-.775.084-1.384-2.3-4.321-17.367-6.472-27.544-3.93-4.475 1.117-7.618 3.074-7.618 4.743 0 1.863 5.502 4.103 12.047 4.905 2.891.355 10.592.156 13.485-.348m-8.42-.803c-.974-.347-1.742-1.047-1.758-1.6-.013-.474 1.008-1.944 1.553-2.236 2.296-1.229 6.458.045 6.69 2.047.092.805-.717 1.75-1.305 1.524-.198-.076-.296-.035-.218.09.37.6-3.4.732-4.962.175m-6.974-1.098c-.149-.388.286-.885.783-.895.4-.008.528.846.163 1.077-.536.34-.762.296-.946-.182M12 31.872c-.244-.395.096-.794.677-.794.337 0 .514.182.514.53 0 .56-.886.757-1.191.264m21.826.033c-1.576-.517-2.38-1.104-2.38-1.74 0-.794 1.207-2.262 1.86-2.262.27 0 .559-.11.642-.245.191-.309 2.969-.18 3.849.18 1.708.696 2.26 2.64 1.016 3.574-.778.583-3.8.882-4.987.493m-18.75-.827c-3.187-.753-2.954-3.635.36-4.47 2.007-.505 4.15.137 5.15 1.542.659.925.512 2.134-.258 2.134-.263 0-.518.117-.567.26-.088.258-2.552.823-3.365.772-.235-.015-.83-.122-1.32-.238m8.169-2.734c0-.497.254-.693.687-.527.563.216.444.88-.158.88-.291 0-.53-.159-.53-.353m5.434-.798c-.68-.496-.287-.966.807-.966.599 0 .976.148 1.082.424.308.803-1.014 1.183-1.89.542m-5.16-.822c-.421-.507-.13-.937.635-.937.802 0 1.312.583.884 1.011a1.03 1.03 0 0 1-1.519-.074m-.177-9.987c.026-1.044-.184-1.92-.825-3.434-1.246-2.944-1.081-5.231.497-6.911.564-.6.712-.679.512-.268-.558 1.147-.325 2.742.687 4.696.786 1.52.965 2.147.954 3.35-.015 1.55-.452 2.695-1.335 3.494-.517.468-.524.455-.49-.927m3.837-1.186c.422-.815.351-2.934-.14-4.184-1.49-3.796-1.735-4.763-1.566-6.197.215-1.83.917-3.38 1.983-4.381l.84-.789-.44 1.052c-.652 1.56-.384 3.55.783 5.817.83 1.613.953 2.091.949 3.704-.006 2.16-.552 3.57-1.846 4.763-.695.64-.804.681-.563.215"/></svg>