<svg xmlns="http://www.w3.org/2000/svg" xml:space="preserve" width="451.307" height="455.85" viewBox="0 0 119.408 120.61"><path d="M94.408 209.716c-14.74-1.038-26.96-3.264-33.972-6.187-5.503-2.295-9.43-6.297-11.082-11.297-1.902-5.754-2.741-19.61-3.097-51.14-.183-16.176-.262-18.564-.658-19.844-.705-2.281-.867-8.73-.28-11.178 1.3-5.414 4.989-9.233 12.477-12.913 6.77-3.328 16.156-5.711 27.484-6.979 12.442-1.392 28.417-1.296 40.217.242 12.522 1.632 24.672 5.321 31.107 9.447 4.596 2.947 7.054 6.863 7.664 12.212.29 2.542-.07 6.718-.793 9.169-.648 2.199-.733 3.149-1.208 13.361-.564 12.16-1.935 33.323-2.912 44.98-1.049 12.512-1.926 15.524-5.7 19.557-1.696 1.814-4.007 3.423-6.5 4.525-5.295 2.342-15.239 4.429-26.553 5.573-3.902.395-22.53.73-26.194.472m20.128-.638c11.726-.665 23.401-2.582 29.933-4.914 3.664-1.308 6.008-2.715 8.331-5 2.732-2.688 4.05-5.229 4.849-9.35.971-5.011 3.163-34.803 4.1-55.734.396-8.827.557-10.309 1.595-14.684.246-1.038.414-3.03.425-5.027.015-2.875-.073-3.59-.676-5.466-.779-2.42-2.274-4.842-3.892-6.304-5.776-5.218-18.409-9.594-33.572-11.629-16.695-2.24-38.031-1.499-53.232 1.849-7.963 1.754-14.877 4.541-19.668 7.929-2.217 1.568-4.952 4.548-5.78 6.297-1.238 2.617-1.561 4.643-1.402 8.779.09 2.343.335 4.482.665 5.82.487 1.972.532 3.371.666 20.374.236 29.988 1.054 43.9 2.925 49.741 1.541 4.81 4.658 8.237 9.812 10.79 6.381 3.16 20.965 5.838 36.116 6.631 3.863.202 14.45.145 18.805-.102m-19.334-1.565c-10.307-.606-22.245-2.514-29.898-4.778-7.832-2.316-12.262-6.345-14.017-12.746-.988-3.604-1.655-9.739-1.059-9.739.29 0 .344.11 1.584 3.295 1.554 3.993 3.738 6.74 7.362 9.262 8.157 5.677 33.69 9.477 54.284 8.08 13.103-.89 25.378-3.14 31.341-5.744 4.007-1.75 8.348-5.491 10.297-8.873.564-.978 1.145-1.704 1.292-1.613.707.437-.567 6.432-1.977 9.295-1.5 3.049-4.783 6.063-8.292 7.615-5.503 2.434-15.633 4.477-27.502 5.547-5.289.476-18.322.699-23.415.4m1.44-8.734c-11.097-.616-22.584-2.48-29.593-4.801-6.211-2.058-10.887-5.626-12.313-9.398-1.305-3.45-2.422-20.466-2.725-41.504l-.069-4.762.662.034c.364.019 1.554.416 2.646.883 2.677 1.146 12.014 3.48 17.86 4.466 9.587 1.617 17.702 2.157 32.374 2.157 17.385-.001 27.114-.942 38.307-3.706 6.18-1.526 11.961-3.637 12.592-4.597.307-.468.234-1.341-.158-1.878-.345-.471-.465-.447-2.844.585-8.75 3.791-20.635 6.128-35.307 6.942-6.151.34-20.697.342-26.444.002-4.944-.293-10.849-.861-15.346-1.477-10.136-1.389-23.155-5.278-24.2-7.23-.353-.66-.356-3.11-.004-3.329.15-.092.834.178 1.522.6 1.834 1.124 2.865 1.437 3.24.984.525-.63.172-1.249-1.29-2.263-1.695-1.175-3.588-2.985-4.266-4.08-.768-1.24-3.355-7.816-3.566-9.064-.24-1.418.324-1.54 1.213-.262 2.51 3.605 4.856 5.23 11.476 7.945 7.662 3.143 18.331 5.45 29.237 6.319 6.589.525 24.825.45 30.294-.126 11.342-1.194 23.09-3.608 28.754-5.91 5.356-2.176 9.743-5.182 12.299-8.427.728-.924.858-.996 1.029-.57.115.287-.14 1.806-.623 3.706-.642 2.525-.879 4.215-1.1 7.847-.155 2.545-.517 8.438-.804 13.094-.287 4.657-.645 10.908-.797 13.89-.301 5.932-1.14 16.771-1.696 21.922-.276 2.56-.473 3.419-.907 3.968-.305.386-1.462 2.04-2.572 3.675-2.426 3.576-5.35 6.437-8.004 7.832-4.997 2.626-16.506 5.14-27.986 6.112-5.663.48-16.054.69-20.891.42m-3.467-69.33c-3.83-.202-5.565-.415-13.054-1.607-8.657-1.377-15.302-3.281-21.596-6.187-4.5-2.078-8.302-5.549-8.302-7.578 0-.41.296-1.674.658-2.807.64-2.007.832-3.251.501-3.251-.09 0-.57.357-1.068.794-1.021.896-1.36.977-1.59.377-.511-1.331 3.257-6.05 6.431-8.055 7.205-4.55 18.335-7.71 32.242-9.151 5.468-.567 22.63-.8 28.547-.386 9.817.686 20.38 2.594 28.182 5.091 6.684 2.139 12.61 5.483 14.61 8.244.946 1.305.972 1.73.098 1.563-.738-.141-.761-.097-.422.794.42 1.105.84 5.473.662 6.895-.157 1.255-.324 1.526-1.926 3.11-1.947 1.928-4.057 3.376-6.648 4.561-4.743 2.17-12.72 4.434-19.839 5.63-2.113.356-4.009.708-4.213.783s-2.347.388-4.762.695c-3.657.465-6.074.57-14.446.627-5.53.037-11.859-.027-14.065-.143m26.368-1.196c2.402-.221 5.105-.538 6.01-.705 1.471-.27 1.67-.384 1.917-1.092.443-1.27.324-3.09-.286-4.348-1.065-2.201-4.092-3.43-7.764-3.15-2.438.185-8.443 1.525-9.662 2.155-1.113.576-1.854 1.87-1.855 3.243-.001.923.172 1.315.968 2.197 1.998 2.211 3.136 2.393 10.672 1.7m-29.802-2.498c2.609-.667 6.958-2.818 7.685-3.8.776-1.048.748-3.588-.057-5.132l-.583-1.117.654-.429c.85-.557 1.734-.405 7.23 1.24 4.604 1.38 5.724 1.543 5.982.873.326-.851.144-1.429-.567-1.794-.964-.496-9.236-2.815-10.041-2.815-.347 0-.953.235-1.347.521-.887.645-2.942 1.029-7.067 1.321-4.427.314-8.552 1.734-10.82 3.726-1.641 1.44-2.497 4.025-1.682 5.076.533.688 2.885 2.375 3.622 2.599 1.32.4 4.914.262 6.991-.269m49.126-4.44c-.12-.401-.303-.937-.407-1.192-.286-.705.213-.553 1.05.322.629.656.697.85.414 1.19-.46.554-.105.512.745-.09.387-.272 1.596-.94 2.687-1.484a61 61 0 0 0 3.49-1.894c1.091-.657 1.684-.86 2.16-.741.48.12.724.034.907-.322.364-.707.607-6.437.297-7.016-.26-.485-1.669-.687-1.923-.276-.07.113-.163 1.83-.207 3.816s-.173 3.552-.285 3.482c-.113-.07-.206-.46-.206-.866 0-.537-.442-1.223-1.61-2.498-.887-.967-1.81-1.757-2.051-1.755-.872.008-2.836.842-3.523 1.496-.444.421-1.558.909-3.02 1.32-2.616.737-4.082 1.416-4.858 2.248-.753.808-.483 1 1.17.83 1.35-.14 1.539-.085 2.887.844 1.3.896 1.619 1.326 2.109 2.85.246.767.41.52.174-.265m-2.655-3.26c-.845-.73-1.053-.788-2.381-.671-1.213.107-1.38.072-1.007-.205.247-.184 1.159-.353 2.027-.377 1.544-.043 1.59-.023 2.131.893.87 1.476.647 1.58-.77.36m-67.733 2.117c0-.155-.578-.844-1.284-1.532s-1.425-1.677-1.597-2.197c-.285-.863-.233-1.12.583-2.912.846-1.855.998-2.026 2.721-3.051 2.88-1.712 4.504-3.588 3.594-4.15-.258-.16-5.405 1.43-6.53 2.017-1.098.573-2.693 2.219-3.53 3.64-.567.962-.702 1.526-.703 2.93 0 1.501.101 1.874.744 2.718.913 1.197 1.692 1.724 3.454 2.333 1.549.535 2.548.615 2.548.204m2.124-1.371c1.588-1.524 4.307-3.216 6.673-4.155.837-.332 1.522-.68 1.522-.775s-1.345-1.514-2.99-3.153l-2.988-2.98-.639.68c-.351.374-1.563 1.273-2.693 1.998-1.13.724-2.204 1.583-2.387 1.907-.554.983-1.268 2.94-1.268 3.478 0 .848 1.264 2.721 2.247 3.329.51.315.928.683.928.817 0 .372.047.338 1.595-1.146m63.36-4.232c5.505-1.95 6.41-2.473 7.304-4.225 1.108-2.17.472-4.03-1.75-5.116-1.3-.636-1.682-.703-3.378-.585-1.901.132-6.553 1.483-9.334 2.71-2.854 1.26-4.59 3.612-4.067 5.509.3 1.086 1.46 2.103 2.89 2.536.51.154 1.998.24 3.308.193 1.907-.068 2.909-.272 5.027-1.022m-24.171-2.775c.545-1.096.772-1.292 1.814-1.562 1.15-.298 1.16-.31.302-.335-.675-.02-.851-.121-.736-.423.084-.218.037-.397-.104-.397a.26.26 0 0 1-.256-.264c0-.374.88-.33 1.324.066.31.277.319.262.05-.096-.18-.241-.885-.493-1.62-.58-.715-.085-1.934-.476-2.71-.87-2.115-1.073-5.828-2.215-6.33-1.947-.231.124-.766.678-1.187 1.231s-1.065 1.273-1.43 1.601c-.491.441-.537.552-.175.425.378-.133.469-.06.396.318-.052.27-.392.563-.755.653-.555.137-.468.193.543.35.661.103 3.042.827 5.291 1.609 2.25.781 4.285 1.433 4.525 1.447.267.016.675-.457 1.058-1.227M87 110.266c2.757-1.558 6.544-3.433 11.468-5.68l4.191-1.912 1.233.47c.677.258 3.728 1.64 6.778 3.069s5.745 2.6 5.987 2.6c.62 0 1.09-.655.989-1.375-.07-.487-.783-.968-3.527-2.379-1.891-.973-4.749-2.323-6.35-3-1.6-.678-3.151-1.518-3.446-1.866l-.536-.634-3.697 1.547c-4.578 1.915-10.164 4.572-14.082 6.697-2.868 1.555-2.977 1.646-2.977 2.49 0 .981.608 1.504 1.455 1.252.291-.087 1.422-.663 2.514-1.28" style="display:inline;fill:#000" transform="translate(-44.96 -89.197)"/></svg>