<svg xmlns="http://www.w3.org/2000/svg" xml:space="preserve" width="467.694" height="446.367" viewBox="0 0 123.744 118.101"><path d="M84.35 208.801c-6.98-.725-15.113-5.643-14.508-13.573 1.212-13.878 4.092-27.579 5.313-41.45-5.637-3.394-11.384-1.088-16.977.81-5.969 1.029-14.888-1.276-15.492-8.379 1.565-10.057 9.798-17.536 17.814-23.022 5.01-3.407 4.374-10.415 7.26-15.245 5.882-11.484 19.96-20.197 32.911-15.842 10.613 3.851 17.244 14.274 19.849 24.844 1.743 6.313 9.193 7.657 13.294 12.06 4.474 4.22 9.104 9.62 9.086 16.097-3.47 4.584 5.189 2.731 7.586 5.07 5.913 2.586 12.437 5.895 15.412 11.927 2.738 6.888-5.719 9.663-11.01 9.875-3.154 1.731-11.606-1.39-11.53 2.719 2.158 5.28.27 10.31 4.652 14.805 3.896 6.067-2.589 11.228-8.268 11.76-7.829 1.361-16.974 1.534-23.564-3.539-4.616-5.453 1.634-11.48 3.16-16.658-1.094-4.032 3.752-10.727-3.153-9.883-4.106.314-11.577-4.125-13.544-.898-.128 9.634 1.764 19.276.663 28.889-2.094 8.238-11.52 10.774-18.955 9.633m8.22-3.309c5.667-1.183 8.935-6.951 8.096-12.492-.377-8.438-1-16.868-1.103-25.318-3.91-3.767.42-8.004.808-12.028 1.176-5.937-1.807-14.632 5.776-17.104 6.41-5.162-3.052-8.92-7.736-7.438-5.475.03-11.037-.173-16.436.758-3.474 4.78-.099 11.093-1.315 16.476a421 421 0 0 1-3.637 39.47c-1.746 6.803 1.32 15.107 8.997 16.23-.804 2.338-3.87 1.065.606 1.797 1.979.06 4.002.096 5.944-.35m-6.154-.023c1.527-.167-.502.466 0 0m50.32-6.73c6.134-.13 11.8-5.335 6.79-11.054-2.777-5.343-10.429-.672-15.291-2.295-3.597-1.38-6.168.922-6.999 4.506-.93 5.308 2.627 9.456 7.675 9.031 2.604.36 5.24.27 7.826-.188m3.507-16.98c2.037-3.773-1.648-9.55-.698-14.209-3.71 1.584-6.003-1.245-9.66.462-2.558-2.862-4.436 1.65-3.175 3.03 1.829 1.041 3.99-.575.426 2.348-2.762 5.67.42 10.183 6.57 8.838 2.175.023 4.434.188 6.537-.47m-9.39-10.692c2.848-.35-.283.442 0 0m-.797-2.37c1.646-.262.02.458 0 0m-2.1-1.063c1.527-.167-.502.466 0 0m-1.883 2.954c-.398-1.614-2.022 2.279-.683.537zm22.173-.672c4.814-1.216 12.16-.031 14.683-5.043-.372-6.439-5.429-1.243-8.785-.94-3.752 2.3-13.248-1.086-10.925 5.768-.212 1.854 4.028-.325 5.027.215m-26.493-1.32c3.496-4.938-8.628-4.062-7.962-4.486 2.716 1.638-6.456-1.935-7.476.176-8.038 1.102 3.19 2.714 5.914 3.413 2.858.078 7.246 2.725 9.524.898m-19.412-3.55c-2.368-1.837-.476.242 0 0m9.596-1.638c-3.687-.153.646.336 0 0m-2.524-.516c-1.305-.451-.189.545 0 0m-7.592-1.824c.872-1.571-1.61 2.077 0 0m2.637 0c-1.743-1.468.666 1.48 0 0m-1.257-.837c-1.647-.262-.02.458 0 0m2.979-6.224c1.42-1.113-4.843-1.39-2.78 1.946.887-.701 1.759-1.44 2.78-1.946m-46.428-2.304c4.203-4.614 10.606-3.08 15.85-1.738 4.261-6.75-8.835-10.773-2.336-16.936.625-2.028-6.625 1.405-8.998 1.708-4.954 1.647-10.167 3.608-13.414 7.57-1.917 1.6-5.056 6.044-4.73 2.961.229 4.928 7.379 8.399 11.783 7.745l.871-.543zm51.85-1.32c6.23-2.73-3.892-4.985-6.9-4.44-1.296.898-1.512 5.627 1.756 4.309 1.74.435 3.478 1.45 5.143.13m-31.825-5.253c-.433-.263.357 3.516 0 0m41.308 1.264c5.275-1.174 10.686-.949 16.023-.554 6.733-3.247-4.493-8.51-7.227-10.895-6.577-4.794-14.937-6.028-22.753-6.92 6.294 2.838 6.194 12.448-.756 14.382 5.572-.684 9.76 5.024 14.713 3.987m-74.298-2.26c.872-1.57-1.609 2.078 0 0m5.476-3.467c-1.305-.452-.189.545 0 0" style="fill:#000" transform="translate(-42.686 -90.958)"/></svg>