<svg xmlns="http://www.w3.org/2000/svg" xml:space="preserve" width="373.099" height="416.135" viewBox="0 0 98.716 110.102"><path d="M86.226 93.423c-1.323 3.304 2.173 10.467-4.752 7.442-4.534-1.757-7.768 3.727-4.468 7.09-2.609-2.824-7.859-3.913-7.433 1.24-1.923 1.664-4.312 2.703-6.449 4.08 5.748-.902 8.048 4.55 5.064 8.969 1.158 4.48 8.498-2.85 10.421 2.081 2.19 2.097 3.7 5.267-.594 4.474-7.088.707-12.419 6.607-15.619 12.515-1.701 3.818-2.955 7.918-5.52 11.13.573 4.224-1.627 9.205-.753 13.715-.64 4.931 1.185 9.601 1.632 14.57 1.384 7.417 6.488 13.955 13.378 17.026 5.878 4.426 13.589 3.999 20.434 5.578 8.372.904 16.521-1.533 24.424-3.995 6.712-2.478 12.803-6.705 17.874-11.706 3.477-2.395 4.861-10.687 6.386-11.638.802 3.826 7.783 1.636 6.054 7.425-.487 2.954 1.194 5.603 1.874 1.184 3.121-4.73 9.688-10.363 4.553-16.232-2.88-1.841-.286-4.268 1.196-4.797-1.843-3.156-5.21-5.426-9.026-4.622 1.282-3.163.126-5.944-3.497-4.706-1.756-3.196-7.212.804-5.888-4.35-.537-4.548-3.216-8.445-6.735-11.25 3.79.662 10.776 2.187 7.516-3.795-2.422-5.785 8.934-1.772 4.228-6.652-3.4-4.547 2.94-6.175 5.974-6.157-5.335-1.97-10.18 3.827-5.463 7.81.032 1.393-7.066-.093-5.401 4.418.578 2.626 1.755 5.514-2.11 4.316-5.21.499-10.694-3.215-15.53-.388-2.14 2.4-2.372-.172-3.058 3.2-3.549.668-1.012-7.11-1.948-9.925-.325-4.897-.879-10.14-3.413-14.394-.028 4.278 2.683 9.502 2.507 14.363-5.603-2.385-4.215-9.074-6.92-13.666-2.074-5.416-5.367-10.371-9.688-14.255-1.723 2.053 4.89 5.646 5.622 8.846 2.565 4.409 4.455 9.283 5.66 14.196-2.743-.284-8.55-4.096-9.671-6.506.889-5.23-1.77 2.562-3.905-1.13-4.244-2.32-8.234-4.398-8.846-9.32-1.342 1.56 1.606 5.464-2.009 2.685-2.598-2.605-5.668-.257-1.36.739 2.725.368 3.316 2.326 1.322 3.781 4.964-2.67 9.719 3.833 14.515 5.732 3.15 1.377 4.574 2.884.7 4.2-3.987 2.92 3.483-1.51-1.066 1.696 3.508-.17 4.654-5.469 6.917-1.708 2.471 1.372 4.378 2.675 4.148 5.653.597-2.66-.097-1.882.561.107 1.005-4.422 6.426 2.907 4.42 5.466-1.977 7.157 7.026 3.833 10.901 5.272 2.043 2.954 5.15 4.623 5.883 8.776 2.38 6.148 8.08-.951 11.45 2.473 1.314 1.92 5.523-1.405 3.843 2.878-1.039 4.25 7.431.713 8.188 5.697.056.596-3.754 2.803-1.043 5.028 4.322 4.078 1.722 10.161-2.284 13.28-1.193 2.283-3.092 5.415-2.623.761.925-5.652-6.542-2.803-7.037-7.912-2.995 2.066-4.19-.026-5.6-2.344-1.474 1.738-3.798 3.35-3.619-.38-2.824-5.438-8.547 6.578-8.206-.893.75-4.63 4.994-8.157 6.652-12.636 1.522-3.829-2.529-.152-2.53 2.037-1.105 3.285-6.491 10.988-7.058 3.99.416-3.296-4.211-3.273-3.96-6.898-3.226-3.106-6.615 3.557-8.71-1.035-4.168.66-7.928-.993-12.323-.342 2.041-3.678 1.728-8.389-3.377-7.21.803-3.616-3.839-2.387-5.466-4.837-4.09.764-7.935-.383-2.703-3.264 2.663-.663-4.954 3.296.206.893 6.84-2.556 14.403-2.507 21.466-.955 4.074 2.301.289 4.852-2.375 4.357 2.925 3.474 6.382-3.94 9.577.583 2.275 1.53 5.048 1.81 1.303.111-5.132-2.205 1.191-.137 2.932 1.352-4.15-2.952-9.017-5.097-13.096-8.306 2.488 1.556-3.166.982-.086.68-6.496-1.675-13.365-1-19.731.872-1.39.25-.33-4.574-3.053-2.149-1.332-3.758-8.011.135-6.2-3.92-7.245-.82 3.273-4.795 5.818-4.234 5.477.3-2.108-10.835-5.91-7.182-2.53.584-6.967 1.48-4.12-2.28 1.854-3.512-.73-8.108-4.897-7.176 3.908-1.07 5.857-4.427 7.216-7.179 2.22.318 7.33 5.346 4.944.363-2.654-6.19 5.453-4.581 8.797-4.413 3.819-1.202-2.386-9.813 2.842-6.02 4.786-1.414 7.767 3.164 9.178 6.664 3.66-.808-1.623-10.175 3.089-4.85 3.28 1.273 7.49 1.89 9.551 4.298 2.52-2.524 7.782 1.377 8.891-3.212 1.286 3.565-3.227 11.475 3.695 10.106 3.987-2.613 14.422-.325 9.945 5.553-2.484 4.142 1.554 4.86 4.583 3.412 3.468.577 5.773 4.348 9.598 4.133-4.313-1.045-7.665-6.225-12.33-4.24-5.561-.074 4.07-7.255-2.007-9.055-3.726-3.704-8.88 1.074-12.975-.824-1.052-2.552 1.843-8.46-.752-9.439-1.602 3.37-7.777 2.03-9.452 2.1-3.1-2.722-9.477-2.381-11.014-6.228-1.876 1.477 1.47 8.97-1.114 6.417-1.13-5.01-5.792-5.585-9.784-5.832-.366-.546-.902-.93-1.371-1.376m21.683 9.774c-2.755 1.801 2.843 3.445 0 0m-5.213.456c-.238 2.084.391 4.412 0 0m.528 0c-.237 3.428.453 3.706 0 0m4.665.057c1.045 1.89-.728.897 0 0m-12.788.089c1.589 1.483 3.65 3.838.733 1.13-.24-.282-.856-.633-.733-1.13m-3.285.439c-1.322 1.482.201 6.894-3.36 3.175-4.713-.291 5.518 6.077 3.832-.11-.112-1.018.322-2.214-.472-3.065m-.257.209c.554 2.01-.349 1.692 0 0m6.206 2.381c3.43 3.518 2.098 3.148.022.028zm4.58.31c-.532 1.165.854.431 0 0m-10.583.264c.852.427-.46 1.115 0 0m11.113 0c-.533 1.165.853.432 0 0m-15.478.356c.9-.048 2.412 1.588.71.541zm4.498.97c-.923 1.673-3.725 0-.673.44zm21.034.046v7.486c1.44-.554 1.619-7.227 0-7.486m.336.17c.489 1.776-.25 3.011 0 0m-29.176.839c.851.427-.46 1.115 0 0m16.35.552c1.641 1.205.878 1.995 0 0m-16.043.197c.702.845-.433 1.411 0 0m-5.466.945c2.464.418 2.072 1.604 0 0m34.732.114c.386 2.876-1.014 5.301-.177.83zm-29.043.044c.85.427-.46 1.115 0 0m16.914.353c1.16.485.731 2.116 0 0m-20.619.264c.785-.188-.199.764 0 0m.957.265c1.957.8.349 1.048-.33.045zm3.198.131c-.205 2.539 1.807 2.193-.982 3.088.324-1.364.79-1.698.982-3.088m-20.823.31c1.226.612-1.174.347 0 0m18.785.352c.785-.188-.2.765 0 0m19.315 0c.784-.188-.2.765 0 0m-18.786.265c.785-.189-.199.764 0 0m19.05.264c.785-.188-.199.764 0 0m.265.53c.784-.189-.2.763 0 0m-28.28 0c-1.325 1.214.886.098 0 0m28.544.528c.785-.188-.199.765 0 0m24.134.266c-4.16 1.938-11.305 2.104-13.653 5.015 3.586.16 12.108-5.474 8.648 1.786-1.598 4.866 8.252 4.09 8.733 2.57-4.265-.051-9.909.13-6.645-5.693-.771-3.616 10.107-2.078 3.89-3.669zm-40.935.234c1.312.184 1.408 1.636 0 0m17.066.03c.785-.188-.2.764 0 0m-29.867 0c-1.325 1.215.886.099 0 0m55.695 0c3.387 1.124-5.97.19 0 0m-25.547.397c1.101 1.148-.081 1.616 0 0m22.77.077c.91.673-1.744.164 0 0m-42.867.061c-.295 1.16-1.701.126 0 0m41.776.17c1.227.613-1.173.348 0 0m-37.703.059c1.312.184 1.408 1.636 0 0m36.985.282c-.026 1.13-1.98.424 0 0m-35.611.46c1.014.203.464 1.229 0 0m34.246.026c.91.673-1.745.164 0 0m-13.75.187c.704.845-.433 1.41 0 0m12.692.078c.909.672-1.745.164 0 0m-18.025.055c.784-.188-.2.764 0 0m-14.42.235c1.312.184 1.408 1.636 0 0m30.956.067c2.543-.102-3.353 1.097 0 0m3.085.095c.702.845-.433 1.411 0 0m-19.357.044c.853.427-.46 1.114 0 0m14.85.298c.91.672-1.745.164 0 0m-9.558.23c.852.428-.46 1.115 0 0m8.467.001c1.226.612-1.174.348 0 0m-27.12.059c1.312.183 1.408 1.635 0 0m5.688.03c.785-.189-.199.763 0 0m7.938.175c.852.427-.46 1.115 0 0m12.303.127c2.543-.102-3.354 1.097 0 0m-20.505.138c.852.427-.46 1.116 0 0m13.494.265c.851.427-.46 1.115 0 0m5.556 0c1.226.612-1.173.348 0 0m7.937 0c.851.428-.46 1.116 0 0m-31.038.006c1.015.204.464 1.23 0 0m22.307.258c1.226.613-1.173.348 0 0m-9.79.088c.785-.188-.199.765 0 0m-8.508.133c.213 2.123-1.577 2.404 0 0m-3.133.113c1.745.58 2.043 2.227 0 0m20.637.02c.785-.189-.199.764 0 0m9.516.132c-1.398 2.71-.025 5.808 2.275 4.981-3.812 1.342-3.419-2.839-2.275-4.981m-18.247.043c.852.427-.46 1.116 0 0m5.027 0c.852.427-.46 1.116 0 0m-4.746.75c1.101 1.148-.081 1.617 0 0m5.01.044c.853.427-.46 1.115 0 0m.265.794c.852.427-.46 1.115 0 0m-14.287.07c1.745.579 2.043 2.226 0 0m9.525.459c.852.427-.46 1.115 0 0m5.027.264c.852.428-.46 1.116 0 0m-4.763.53c.853.427-.46 1.114 0 0m-7.805.06c3.23 2.097 8.332 4.64 9.42 6.031 1.275 1.554-5.025-3.279-6.85-4.298a711 711 0 0 1-2.57-1.733m12.874.425c.704.844-.433 1.41 0 0m-4.762.264c.704.845-.434 1.41 0 0m5.027 1.059c.704.844-.434 1.41 0 0m-4.804.044c.852.427-.46 1.114 0 0m21.166.05c2.882.363-2.882.369 0 0m3.206.039c-1.095 1.38-2.765-.234 0 0m-30.407.756c-1.773 1.883-3.156 1.164 0 0m6.341.17c.704.844-.434 1.409 0 0m4.782.528c.548 1.771-.407 1.51 0 0m-21.717.642c-2.896-.573-11.717 2.61-4.882 3.373 3.094.855 5.78 2.797 8.887.723 1.544 1.351 7.723 5.167 5.162.716-2.354-2.99-5.627-3.846-9.167-4.812m44.131.55c-5.809 2.317-11.969 4.013-17.84 5.848-1.917 3.036 4.142-1.798 4.134 2.089.083-3.795 6.102-4.305 8.886-2.145.287-1.162-3.059-2.845.79-3.144 2.712-1.84 6.468-1.376 8.134-.447.422-2.171-2.657-2.308-4.104-2.202m-43.908.177c1.087.486-1.12.493 0 0m45.245.043c2.154.43-1.743.318 0 0M87 127.598c.792-.196-.196.793 0 0m47.658.21c.91.672-1.745.163 0 0m-48.981.055c.789-.21-.185.722 0 0m50.834 0c2.167 1.112 1.084 1.717 0 0m-48.32.002c2.158-.47 7.54 1.83 6.973 2.096-3.613-1.031-1.752-.307.421-.04-2.418-.869-6.258-2.76-7.395-2.056m44.979.27c2.126-.31-2.167 1.215 0 0m-45.835.1c-4.873.516-.29 1.529-1.038 1.125-4.092.347-1.06-1.089 1.038-1.126m24.872.025c.49 1.775-.25 3.01 0 0m19.772.308c1.226.612-1.173.348 0 0m-37.57.089c.784-.188-.2.764 0 0m36.776.176c1.227.612-1.173.347 0 0m-51.848.312c2.13.45-2.822.28 0 0m12.296.039c4.213 2.135-6.263 1.478-1.004 1.865 1.13.026 3.821-1.485 1.004-1.865m4.098.002c.785-.188-.2.764 0 0m34.528.008c1.685.015-2.524 1.133 0 0m-42.65.2c2.613.842 1.028 1.811 0 0m-11.192.056c.784-.188-.2.764 0 0m17.226 0 .212.003zm2.673.003c1.541 1.425 4.726 4.411.702 2.094-.572-.416-1.333-1.414-.702-2.094m12.512.13c1.61 1.167 1.135 1.596 0 0m20.24.043c1.227.612-1.173.348 0 0m-21.43.089c.784-.188-.2.764 0 0m20.637.176c1.226.612-1.174.347 0 0m-53.446.088c.785-.188-.2.765 0 0m18.785 0c.785-.188-.199.765 0 0m.53 0c.784-.188-.2.765 0 0m-20.109.265c.785-.188-.199.764 0 0m18.786 0c.784-.188-.2.764 0 0m1.852 0c.784-.188-.2.764 0 0m32.869 0c-.568 1.512 3.528 3.523.183 1.515-1.17-.805-2.626-.831-.183-1.515m-54.036.264c.785-.188-.2.765 0 0m22.093.133c1.61 1.168 1.135 1.596 0 0m16.862 0c.552 2.01-.347 1.691 0 0m-39.484.132c.784-.188-.2.764 0 0m37.196 0c1.924 1.056 3.836 4.184 0 0m15.191.176c1.227.612-1.173.348 0 0m-52.916.089c.784-.188-.2.764 0 0m16.669 0c.784-.188-.2.764 0 0m8.764.209c-1.678.07.744.71 0 0m26.723 0c.91.672-1.745.164 0 0m-52.685.055c.784-.188-.2.764 0 0m51.593.176c1.227.613-1.173.348 0 0m-.76.298c.91.672-1.745.164 0 0m-51.627.055c.784-.188-.2.765 0 0m50.568.21c.91.672-1.744.164 0 0m-.719.25c-.579 2.949-2.727.223 0 0m-50.612.07c.727.259-1.033.918 0 0m48.686.474c.909.672-1.745.163 0 0m-20.936.055c.785-.188-.199.764 0 0m.794.176c1.226.612-1.173.348 0 0m19.05 0c1.227.612-1.173.347 0 0m-47.89.088c.785-.188-.199.765 0 0m46.964.273c1.684.015-2.524 1.133 0 0m-45.481.24c4.327 2.856-1.818-1.8-3.389 1.307.407-1.129 2.288-1.222 3.389-1.306m49.053.457c.85.428-.46 1.116 0 0m-26.194.353c.521 3.314 6.54 1.609 1.386.313l-.997-.313h-.295zm.794.441c1.226.612-1.173.348 0 0m-27.436.108c-.065 1.888-2.682 1.411 0 0m28.23.157c1.226.612-1.174.347 0 0m-23.25.306c-.174 2.063 7.5.707 5.618 1.886-.854-2.265-6.076.888-5.619-1.886m23.779.047c.784-.188-.2.764 0 0m7.673.264c.343 3.797 4.01-.346 0 0m-7.172.006c1.456.052.475 1.224 0 0m7.436.259c1.318-.025 1.288 2.133 0 0m-37.697.374c-1.498 1.431-3.875 6.118-1.78 1.893zm55.424 1.125c1.228.611-1.173.348 0 0m-2.38.353c.784-.188-.2.764 0 0m-38.454.024c.228 4.18-.835 2.775 0 0m43.61.056c-3.017-.387-8.572 2.18-8.39 3.377-.306-2.1 5.722-3.822 8.39-3.377m-45.847.161c2.532.536 1.368.88 0 0m47.916.206c.219 1.724-5.056-.781-.935.304l.575-.071zm-31.826.044c2.651.485-3.14.22 0 0m2.904.258c2.154.431-1.744.318 0 0m-6.608.006c2.651.486-3.14.22 0 0m-26.445.057-.269.474zm53.03.114c-1.06 1.648-1.102.475 0 0m-50.442.044c1.472 1.723-2.432 5.405.128 2.008 1.123-3.163-3.468-.289-.128-2.008m21.744.047c2.13.45-2.823.282 0 0m10.838.002c2.882.364-2.883.37 0 0m27.775.058c.189.98-1.722-.029 0 0m-39.913.19c.911.673-1.745.165 0 0m-1.058.265c.911.673-1.745.164 0 0m-23.052.055c.785-.188-.2.765 0 0m40.45 0c1.175 1.419-1.513-.518 0 0m24.367.06c.56 2.006 1.97.572 1.733 2.067-.344-.19-3.479-2.167-1.733-2.067m-63.192.066c-1.778 2.6-2.291 2.575 0 0m47.1.007c.732.924-.567 1.9 0 0m-27.03.044c1.229.611-1.173.348 0 0m19.206.22c1.34 2.463 8.301 4.567 2.446 3.296-2.29 2.869 1.519-2.09-1.726-2.487zm-19.966.077c.911.673-1.745.165 0 0m-18.024.026c.037 3.373-4.795 3.359-.887.481zm.529.559c.784-.188-.2.764 0 0m13.254.024c-.324 2.202-1.61 2.78 0 0m-17.13.003c-.52 2.564-1.782 3.965 0 0m54.526.144c.868.534-.869.534 0 0m-.115.093c-.188.785.764-.199 0 0m-5.292.177c.851.427-.46 1.115 0 0m-45.508.088c.785-.188-.2.764 0 0m53.076.1c1.81 1.153 4.084.943.691.958-1.358-1.684-4.25-.245-.69-.958m-53.34.43c.784-.189-.2.763 0 0m52.122 0c.785-.189-.199.763 0 0m1.323 0c.785-.189-.199.763 0 0m10.862.027c-.27.928-1.654-.197 0 0m-67.482.365c-.267 1.237-.411 1.838 0 0m16.146.076c-1.121 1.598-.727 2.413 0 0m51.036.076c2.687 2.773 4.743 8.474 2.954 11.765-3.416.164-4.33-2.314-4.784-5.528-1.323 4.492 7.934 7.38 5.072 1.233-.237-2.77-1.701-5.23-3.242-7.47m-6.857.115c1.517 1.952.138.726 0 0m-57.135.16c-1.586 1.403-2.598 1.19-.122.133zm-4.778.737c.836-.978-.583 2.966 0 0m70.38.824c.784-.188-.2.765 0 0m-7.383.08c.597.768-1.041 1.046 0 0m-45.56.136c2.447.073 8.675.884 2.977.28-.993-.085-1.988-.16-2.977-.28m6.407.05c-.81.83-1.504-.17 0 0m16.271.264c2.315.338 2.989 1.712 0 0m3.277 0c.784-.188-.2.764 0 0m-43.59 0c.025.835-.752 1.739 0 0m63.433.123c2.132.445 2.958 1.91 0 0m-20.372.141c.784-.188-.2.764 0 0m27.78 0c-.187.785.765-.2 0 0m-47.09.005c2.35.728 7.316 4.698 2.578 1.645-1-.315-1.431-1.655-2.578-1.645m-8.404.348c3.756-.822-2.328 1.27 0 0m1.533.154c1.092.357 1.882 1.03 0 0m-17.74.287c.784-.188-.2.764 0 0m66.386.018c1.51 1.695 1.477 3.755.37.471zm-.24.246c.784-.188-.2.765 0 0m-65.595.125c-.974 1.866-1.003.377 0 0m18.597.025.216.595zm-3.685.06c.336.732-.174.762 0 0m-6.664.032c1.616 1.96-.054 4.72.689.679l-.252-.342zm7.623.023c4.884-.63-2.475 3.972 0 0m-7.74.058c-1.302 1.225-2.419 1.974 0 0m10.109.179c.928.13-.072 1.206 0 0m-3.74.292c-.282 2.164 1.289 3.56 0 0m-6.82.53c3.127 2.535-4.292 6.767-1.826 2.05.766-.53 1.197-1.386 1.826-2.05m10.32 0c.727.259-1.033.917 0 0m-19.012 0c.332 2.295-.834 2.8 0 0m19.545.035c-3.723 2.548-1.444 1.003 0 0m33.328.493c-6.263 1.329-13.14 2.564-18.054 6.922 2.287-.893 2.053-1.476 1.258.017 5.885-3.255 12.536-5.479 19.285-5.862 3.965-.582 8.943 4.103 11.157 3.457-3.386-3.526-8.881-4.685-13.646-4.534m-45.682.213c-1.532 1.304-2.011 5.12-.99 1.233l.545-.61zm46.583.075c4.766-.116-6.556 1.375-1.292.29l.712-.155zm3.053.201c2.13.45-2.823.281 0 0m-41.02.04c.784-.188-.2.765 0 0m42.366.21c.91.672-1.745.164 0 0m-58.77.055c.784-.188-.2.764 0 0m30.13.041c1.416 1.791 5.97-.687 4.232 3.266 1.545-4.998-2.673-.742-4.232-3.266m29.698.169c.91.672-1.745.163 0 0m-9.293.01c2.154.43-1.743.319 0 0m-1.025.254c.909.673-1.745.163 0 0m11.476.08c3.31.9-1.469.568 0 0m-12.535.185c.91.672-1.745.163 0 0m-1.058.264c.91.673-1.745.164 0 0m-1.092.232c1.227.612-1.173.347 0 0m16.902.088c1.177 1.418-1.513-.517 0 0m-63.468.013c-1.427.554-2.699 5.043-.05 2.048-2.923 3.846-2.051-1.032.05-2.048m33.95.141c1.481 2.267-5.285 7.808-1.185 3.115 1.17-2.791 1.75-.376 1.185-3.115m-23.458.043c-1.223 1.8-4.384 2.915-.82 1.205l.43-.582zm35.678.06c-3.06 1.451-3.866.804 0 0m-12.295.006c-3.408 5.658-7.76 11.363-14.445 13.184-3.938 1.55-8.339 1.554-12.252 2.966-6.36 2.288-5.432 9.76-7.72 14.168 1.968-1.23.63-8.36 3.795-11.042 3.55-4.917 10.013-3.88 15.08-5.803a22.82 22.82 0 0 0 13.728-10.824c.605-.882 1.188-1.78 1.814-2.65m-33.426.222-.353.895zm63.448.039c3.456 1.457 3.62 2.91 0 0m-21.3.71c1.227.613-1.173.348 0 0m-42.533.331c.11 2.184-.003 1.607 0 0m41.608.031c1.684.015-2.524 1.133 0 0m-6.747.256c.784-.188-.2.765 0 0m-28.276.211.3.325zm33.832.054c.785-.188-.2.764 0 0m-.53.265c.785-.189-.198.764 0 0m30.163 0c.785-.189-.199.764 0 0m-30.691.264c.784-.188-.2.764 0 0m35.718 0c.785-.188-.199.764 0 0m-41.656.191c.73.205-.625.32 0 0m5.673.055c-.486 1.16-2.116.731 0 0m-4.616.025c.21 2.075-.898 2.182 0 0m40.6.17c.85.428-.46 1.116 0 0m-41.753.088.19.012zm1.271 0c.785-.188-.2.765 0 0m-34.727.247c-2.027 1.988-2.23.332 0 0m34.118.484c.481 1.433-.247.933 0 0m-.843.503c.7.18-.603.38 0 0m-35.415.003c.044 1.102-.98 10.792-.384 4.577-.511-1.737 1.141-3.212.384-4.577m36.026.32c-1.789 2.504 2.646 8.503 3.107 9.252-1.864-2.494-4.664-7.191-3.107-9.253m-12.036 1.342c1.478 1.436.614.599 0 0m-.352.04c.246.766-1.156.315 0 0m12.17.236c.785-.188-.198.764 0 0m-12.888.056c-.814.762-1.57 1.148 0 0m20.51.076c-4.56-.795-9.061 1.362-4.354 5.683 3.136 4.627 7.532 8.197 12.002 11.47 1.579-3.858-.118 2.43-1.978-1.245-5.106-4.051-10.657-8.619-12.53-15.113 1.108-1.633 4.986-.357 6.86-.795m-20.586.133c.785-.188-.199.764 0 0m26.218 0c2.084 2.51 1.992 2.053-.29.469-2.01.288-3.67.286-.924-.24-1.6-.44 1.141-.092 1.214-.23m21.936 0c1.514.62-1.385 2.21 0 0m-27.048.04c2.558 1.344.976.49-.798.306zm4.559.136c-1.23.61 1.173.349 0 0m-24.325.06c.175 3.891-5.393 2.348 0 0m8.335.005c-2.15 2.684-2.576 2.97 0 0m23.134.023c.784-.188-.2.765 0 0m-33.206.225c-1.167 1.31-1.928.86 0 0m31.882.172c3 .013 3.605.36.043.452-4.343 1.232.402-.038-.043-.452m22.626.113c-4.322.56.177 10.921.702 7.445-2.42-2.188-1.38-8.542 2.186-4.288 4.088 1.524 7.173 8.518 10.512 8.452-3.587-4.637-8.123-8.84-13.4-11.61m.007.533c2.759 1.277-2.976.275 0 0m-52.48.015c.676.14-.085 1.586 0 0m33.023 0c.785-.187-.2.765 0 0m-46.394.212c4.82-2.21.072 6.904 2.654 1.357-.13-2.972-5.981-.276-4.17 1.674-1.319-2.154.564-2.067 1.516-3.031m59.359.053c.784-.188-.2.764 0 0m-49.649.149c-.22 2.964 6.395.137 1.498 1.52-1.06.184-1.64-.552-1.498-1.52m-7.501.116c.784-.188-.2.764 0 0m43.976 0c1.66 2.167.703 2.511 0 0m-54.525.16c1.35 1.8-1.238 4.377.615.853.144-1.183-3.305-.262-.615-.853m49.31.02c.621.525-2.305.326 0 0m25.93.055c1.312.183 1.406 1.637 0 0m-53.844.03c.785-.189-.199.764 0 0m46.038 0c.785-.189-.2.764 0 0m-68.733.282c-1.712 1.877-1.492 1.275 0 0m11.318.1c-.542 4.67-5.358.149 0 0m63.055.014c.345 3.617-.18 3.44 0 0m-73.515.132c.786 5.703-6.13 3.754 0 0m7.55 0c.785-.188-.2.765 0 0m60.06 0c.785-.188-.199.765 0 0m-39.577.116c-2.785 2.225-3.757 2.715 0 0m49.02.067c1.014.204.467 1.23 0 0m-9.707.347c.784-.188-.2.764 0 0m10.501.183c1.013.204.466 1.229 0 0m-67.122.081c.785-.188-.2.764 0 0m56.37.265c.266 1.41-1.705 2.169 0 0m11.546.183c1.013.204.466 1.23 0 0m-22.806.34c1.185-.01.32 1.223 0 0m23.55.138c1.647 1.057.475 1.103 0 0m-22.272.307c-.204 1.272-1.306-.041 0 0m-50.36.111c1.554.669 1.531 1.45 0 0m50.985.234c1.612.88 1.653 3.454.758.773-.431-.252-2.53-.676-.758-.773m-48.893.016c1.416.002.218.747 0 0m15.869.15c-3.129 1.589-3.257 1.454 0 0m-24.607.348c-1.323 1.978-1.318 1.594 0 0m65.935.024c.623 1.076-1.65 1.603 0 0m14.678 0c1.97 1.253 5.965 6.003 2.057 2.103-.675-.711-1.32-1.453-2.057-2.102m-31.847.623c1.047.28-4.672.583-.46.02l.296-.013zm24.823.083c.85.428-.46 1.116 0 0m-38.761.043c.726.446-.727.446 0 0m-.133.046c-.188.784.764-.2 0 0m15.114.05c2.68 1.676-4.788 5.668-.131 2.292.772-.852.655-1.287.13-2.291m-15.382.028c-1.992.245-3.46.204 0 0m-.018.126c1.107 2.432-1.428 5.302.407 1.411.66-.854-.89-.866-.407-1.411m12.721.06c.785-.188-.199.765 0 0m-50.603.059c4.178.378-1.801-.512.238 2.598 4.32 4.217-.321 9.33 1.754 14.192-2.32-4.459 2.697-9.973-1.682-13.365zm35.072.051-.618.475zm-.048.155c.727.26-1.034.918 0 0m15.05 0c.785-.188-.199.764 0 0m18.583 0c-.417 2.143-5.684 8.349-2.072 3.176.723-1.037 1.355-2.134 2.072-3.176m-18.884.053c-.929 2.293 1.689 5.071-.688 1.733l.1-.791zm2.1.168c3.138 1.253-4.446 3.76-.8.169zm10.08.03c.51 2.068.343 3.358 0 0m15.373.013c.785-.188-.199.765 0 0m-53.55.021c-2.681.966-3.41 1.115 0 0m10.666.132c.62 1.119-.431.984 0 0m2.979.342c-.932 4.417-4.6-.38 0 0m15.828.035c.785-.188-.199.764 0 0m24.342 0c.785-.188-.2.764 0 0m-43.392.281c-.94 2.942 4.918 3.457-.007 2.097-.294-.702.234-1.387.007-2.097m6.612.243c3.276 3.809 7.173 7.026 11.178 9.981-3.366-2.404-7.17-5.287-9.977-8.652l-.609-.657zm37.177.137c1.648 1.057.475 1.103 0 0m-57.964.003c-4.437 1.316-9.86.967-12.897 5.14-2.091 2.059-2.417 6.494-2.116 8.318-1.33-5.979 3.752-12.164 9.806-12.355 1.743-.33 3.484-.677 5.207-1.103m32.828.527c-1.059 1.649-1.1.474 0 0m-15.131.315c-.279 1.155-1.098.265 0 0m.302.547-.028.314zm.145.065.016.238zm50.138.131c2.804 2.512 3.383 3.69 0 0m-25.774.008c2.552 2.175 1.687 3.214 0 0m-26.216.3c1.226.612-1.174.348 0 0m-34.998 1.688c.788 1.908.192 6.387-1.596 2.269-.282-1.239.09-2.613 1.596-2.269m25.284.057c1.544 1.12 1.431 1.343 0 0m-.055.022c-.511 1.116-1.08.772 0 0m-14.073.433c-2.638.192-2.967.031 0 0m.186.02c3.376 1.958-1.385 5.206-1.744 3.954 2.518.962 3.975-2.738 1.744-3.955m-3.067.148c.325 1.02-1.023-.332 0 0m-.498.14c.367 1.059-.68.782 0 0m16.104.02-.279.412zm38.882.009c1.68 1.856 1.13 3.305 0 0m-37.026.086c2.02 3.006-4.328 6.63-2.255 2.095.857-.568 1.49-1.415 2.255-2.095m-1.19.027c-2.995 3.254-2.936 1.754 0 0m-13.362.35c.996 5.909-6.377-.92 0 0m-3.129.469c.655 3.484-.698 1.008 0 0m18.494.378c.5.627-.852 1.755 0 0m-4.25.207v.253zm49.045.012c1.388 1.395 2.197 6.459 1.023 1.776-2.824-4.615-7.638 5.864-8.299-.47.148 5.564 5.296-2.285 7.276-1.306m-2.707.552c.944.464-2.29 1.486 0 0m-15.23.183c3.46.087-3.807.06 0 0m-26.745.046c-1.025 2.688-1.362 3.602 0 0m-18.653.004c.785-.188-.2.765 0 0m46.806.092c1.93 2.247.051 1.323 0 0m-2.633.072c.172.979-1.833.988 0 0m-30.156.056c-.265 1.905.077 1.968 0 0m30.698.573c5.853 1.068-3.73 3.971 0 0m23.414.446c.171 2.306 5.672 4.318 3.828 4.607 2.036-1.406-6.029-2.906-3.828-4.607m-50.106.349c.726.26-1.034.917 0 0m29.073.264c.785-.188-.2.765 0 0m-32.75.365c.747 1.654 3.507.314.472.894l-.257-.321zm53.394.13c-1.475 1.903-2.133 3.361-.57.4zm14.546.004c-1.182.327-.073 2.288 0 0m-65.617.03c.784-.187-.2.765 0 0m50.006 0c.785-.187-.2.764 0 0m-19.825.007c1.062-.199.103 1.404 0 0m35.965.17c-1.355 1.64-.203 1.53 0 0m-35.851.22c-1.06 1.65-1.101.475 0 0m-3.578.344c2.376 1.077-2.117.038 0 0m3.656.058c-2.075 2.094 4.214 6.507 5.694 4.349 4.335-2.49-2.714 3.928-3.561-.223-.863-1.219-5.263-2.895-2.133-4.126m18.13.26c1.835 3.227-4.652 7.6-7.357 9.866-3.913 4.946-3.82-4.178-2.91-4.709-1.275 3.273-.074 8.348 3.6 3.99 2.79-2.277 7.103-5.028 6.667-9.147m7.506.447c1.014.204.466 1.23 0 0m-.447.082c.785-.188-.199.764 0 0m-28.196.004c1.723 1.667-.24-.095 0 0m-16.08.08c1.655.029 2.65.248 0 0m-.441.047-.473.156zm2.763.173c1.145 2.048.465 2.673 0 0m-3.252.072c-1.069 1.177-.246.806 0 0m17.688.07c1.609 1.237 8.452 8.158 3.813 3.621-.88-1.62-2.898-2.304-3.813-3.62m-15.08.312c1.078 3.745-4.755.86-.627.214zm-3.501.375c.359 2.477.281 2.594 0 0m46.282.108c1.013.204.466 1.23 0 0m-6.545.664c-.577.99-1.887 2.744-.527.749zm6.362.123c.852.427-.46 1.116 0 0m-42.158.267c1.553 1.82-5.29 1.613-.11.927.49 0 .444-.746.11-.927m-3.35.086c.785-.188-.2.765 0 0m45.204.343.148.387zm-75.542.239c2.05 1.486-.507 6.492.778 2.006.037-.724.137-1.684-.778-2.006m75.367.22c.377 1.591-.484.872 0 0m-45.244.387.222.385zm27.6.085c2.115 4.147-6.752 4.907-1.588 1.385l.794-.693zm17.229.273c-.012 2.012.189 1.382 0 0m-44.4.04.807.008zm-30.88.007c1.855 3.798-4.82 3.745-1.562.85l.586-.388zm68.243.193c-1.822 2.215-2.401 2.574 0 0m-67.668.197c.49 1.775-.251 3.009 0 0m11.021 1.11c-.658 1.381-1.96 1.593 0 0m63.26.082c.486 1.658-1.404.85 0 0m-62.975.014c2.263-.128.563 1.225 0 0m11.951.076c1.695 1.586.93 3.786.428.326-2.2-.43-6.423 6.237-3.052 1.674q1.314-.998 2.624-2m-10.59.162c.481.98-.809.69 0 0m-16.707.011c.784-.188-.2.764 0 0m77.676.476c1.025 1-.892 1.158 0 0m-5.593.012c1.452.022-.918.1 0 0m.413.055c.999.607-.178.911 0 0m-.814.005c-2.135 2.628-.719.322 0 0m-54.673.17c-.48 2.168-.169.66 0 0m-3.593.001c.162 1.87-.809 1.33 0 0m-13.152.075c.785-.188-.199.764 0 0m57.149.061-.013.827zm-42.076.107c1.78 3.432-4.48 2.425 0 0m11.915.036c2.152 3.602-5.218 5.066-2.066 1.43.628-.563 1.36-.977 2.066-1.43m46.066.092c1.14.568.098 1.18 0 0m-4.197.096c-2.23 2.001-7.385 4.34-6.05 7.013-1.359-3.854 4.201-4.643 6.05-7.013m-68.592.137c.785-.188-.2.764 0 0m70.644 0c.784-.188-.2.765 0 0m6.524.025-.196.643zm-5.166.17c1.674 3.19-4.853 3.562 0 0m1.552.066.013.759zm-73.025.004c.785-.188-.2.764 0 0m59.53.16c1.259 1.504 1.893 3.566-.531 4.094 3.033-1.103 1.05-3.294.53-4.094m-59.034.04c3.9.722-1.29-.873.297 2.103.394 3.211-.228-1.676-.297-2.102m75.586.003-.638.995zm-60.924.078c.706.682-.08 1.752 0 0m31.975.047c1.68.235 1.293.31 0 0m-.051.01c-2.466.799-2.462.533 0 0m11.567.103c1.384-.044.425 1.014 0 0m-2.27.022c2.391 1.991.186-.769 0 0m-8.005.18c1.503 3.4-5.246 5.222-.133 2.871-1.405-.864 1.34-1.27.133-2.872m-.484.063c.85.428-.46 1.116 0 0m-36.248.077c-.713 3.455 5.546.903.965 1.84-1.002.143-1.46-1.084-.965-1.84m64.558.011c.785-.188-.2.765 0 0m-6.885.04c1.01.535-.755.774 0 0m-41.808.056c-.41 2.056-.153.667 0 0m45.484.03c.026 4.126-5.722 1.536-4.42 1.216.446 2.966 4.023.583 4.42-1.216m-14.15.112c-2.09.52-1.974.325 0 0m-36.056.027c.727.26-1.033.918 0 0m53.062.023c.548 1.52-1.05.271 0 0m-61.12.155c1.244.07-.1.998 0 0m30.088.041c.941 1.12-.902.303 0 0m-44.815.046c.785-.189-.2.764 0 0m72.262 0c.727.26-1.034.917 0 0m3.01.165c-.915 2.704-1.317 2.182 0 0zm-27.911.065c-.538 3.929-4.124-.072 0 0m-2.91.027c.445 3.933-.13 2.518 0 0m24.605.007c.785-.188-.199.765 0 0m-42.333.265c.785-.188-.2.764 0 0m45.376.132c-1.06 1.65-1.1.475 0 0m-3.11.111c1.006 1.745-.686.934 0 0m-41.817.194c-1.295 1.92-2.859 1.881 0 0m-4.728.531.257.669zm3.485.355c.785-.188-.199.764 0 0m48.546.14c-.5 1.434-1.815 1.289 0 0m-73.163.3c.64.434-.867.881 0 0m59.46.008c1.015.203.465 1.229 0 0m-37.497.081c1.282.735-.018.776.208-.035zm21.44 0c.784-.188-.2.764 0 0m1.852 0c.784-.188-.2.764 0 0m-22.226.05c2.148-.02.291.778 0 0m-22.753.185.165.924zm44.45.03c.784-.188-.2.764 0 0m27.204.422c-1.18 1.345-2.376 2.187 0 0m-71.195.088c.614.716.864 2.598.205.746zm58.025.019c2.222.747-2.115 3.881-.473.927zm-1.375.252c.465.9-.858.913 0 0m-21.207.259-.223.021zm23.629.018c.784-.188-.2.764 0 0m-23.266.023c1.067.467 1.2 1.691 0 0m-.823.01c.198.804-1.376-.068 0 0m-30.323.094c2.995 1.764-1.604 5.489 2.106 7.364-3.582-2.174.045-4.69-1.725-7.145-1.672-.348-2.714.535-.381-.22m29.047.083c2.53.546-.702.456 0 0m-28.642.32c.41 1.506-3.223-.913 0 0m51.04.007c1.023 1.485-.412.715 0 0m-53.39.022c.284.936-.691 1.22 0 0m-2.116.01-.03.198zm31.921.008c1.477 1.013-2.008 2.496 0 0m-31.656.021.016.14zm32.543.195c.785-.188-.199.764 0 0m1.918.243c1.23 2.313-4.45 1.12-.68.272zm20.57.007c.143 4.022 4.365-1.19 3.513 2.132-.032-2-4.512 1.231-3.513-2.132m-54.653.035c-.909 1.583 2.754 1.04.092 1.334-.37-.115-.852-1.287-.092-1.334m68.149.1-.013.131zm-66.146.144c3.811-.488-.164 5.139 0 0m32.808 0c.785-.188-.2.764 0 0m33.34 0c.755-.004-.513.378 0 0m-32.828.172-.258 1.04zm32.437.029c-1.75 1.23.007 1.317 0 0m-67.452.026-.016.334zm-.157.102-.01.164zm57.383.068c.104 1.422 1.165.644 0 0m-2.697.05c1.015.204.466 1.23 0 0m-20.285.584c.77.136.09 1.435 0 0m-33.343.027c.785-.188-.2.765 0 0m30.19.006c.512 1.467-1.082.102 0 0m35.162.06c-.428.82-1.633.718 0 0m-7.643.003-.226.64zm-57.709.372c1.226.612-1.173.347 0 0m32.015.088c.784-.188-.2.765 0 0m.529.265c2.07-.8-.345.95 0 0m31.742.04c1.089 1.056-2.285.408 0 0m-33.802.005c1.781.23 2.132.834 0 0m-29.955.484c.785-.188-.2.764 0 0m56.757.234c3.109.716-3.198.713 0 0m-55.698.03c.784-.188-.2.765 0 0m61.645.049c-1.318 1.563-2.786 1.89 0 0m-7.35.26c-1.484 2.124-1.36 1.136 0 0m-54.825.19c1.387.375-.377 1.056 0 0m54.271.295c.726.26-1.034.918 0 0m3.109.206c.072 2.569-2.022 3.14.201.701zm-.759.024c-.038 2.051-4.546 4.385-1.956.85.422-.645 1.215-.968 1.956-.85m-40.634.034c4.71 2.374-5.814 5.813-.216 3.635 4.242-6.3-5.614-1.723-2.956-.908-.782-2.6 1.256-2.634 3.172-2.727m-14.993.265c2.451 1.84-1.856-.208 0 0m59.26.019c-1.492 1.641-1.477.999 0 0m-43.85.158c1.227.612-1.173.347 0 0m.922.058c.206.045-.209.045 0 0m-4.096.03c.784-.188-.2.764 0 0m3.991.265.203.036zm39.96 0c.727.26-1.034.917 0 0m-3.79.032c.06 2.676-1.09 5 .01.888zm-11.383.182-.565.491zm.129.013c1.318.111.775.72 0 0m1.516.077c1.759 1.07 1.722 2.753.353.226zm-41.832.225c1.04-.412.412 1.425 0 0m11.938 0c5.23-1.162-1.31 4.753 0 0m44.91.02-.835.563zm-42.264.244c.784-.188-.2.765 0 0m24.905.047c0 1.39-.169 1.383 0 0m-38.165.16c.921.084-.867.1 0 0m.284.073c1.237.36.738 2.17 0 0m54.267.179c.168.64-1.057.234 0 0m-27.058.02c1.72-.715 4.626.864 2.358 2.586 3.998-4.82-5.912-1.147-2.358-2.585m12.061.315c4.007.519-3.26 2.705 0 0m14.168.02c.352.885-1.155.584 0 0m-51.577.226.07.024zm51.043.026c-.394.807-2.717.274 0 0m-51.324.016c.459.846-.9.162 0 0m.553.018c.893.934.193 2.298 0 0m25.104.223c5.928-.05-4.386 3.988-.942.487zm-1.83.08c-3.463 2.12 3.743 3.903-.953 2.131-.512-.945.247-1.621.953-2.132m15.546.112c1.087 1.213.153-.47 0 0m-29.036.073c.785-.188-.199.764 0 0m25.4.016c.67 1.751.74 1.315 0 0m-34.23.29.371.236zm-.166.192c1.387.376-.377 1.056 0 0m6.88.031c.784-.188-.2.764 0 0m.793 0c.785-.188-.199.764 0 0m19.132 0c.106 1.006-1.919 1.344 0 0m21.879 0c.784-.188-.2.764 0 0m-.265.047c.006 1.224-2.589-.21 0 0m-10.162.091-.681.746zm-37.5.17c.884.592.55 1.959 0 0m36.285.221c.785-.188-.2.765 0 0m-35.46.243c.647.018-.431.053 0 0m.21.038.257.663zm32.869.02c2.844.553 2.511.174 0 0m11.767.007c-.54.907-1.873.96 0 0m-44.278.212c.813.568 1.076 1.779 0 0m43.333 0 .01.012zm-20.052.01c.727.259-1.033.917 0 0m19.825.034c-.597 1.049-2.118.4 0 0m-23.56.23c.785-.188-.2.764 0 0m4.125.134c-3.205 1.288-3.167 1.234 0 0m-1.214.13c.784-.187-.2.765 0 0m19.284.003c1.14.793-.414.658 0 0m-40.665.352c3.487 1.16 1.133 1.1 0 0m40.19.025c-2.054.743-1.737.507 0 0m-3.108.627c2.382.243-3.223 1.679 0 0m-36.074.052c.784-.188-.2.765 0 0m16.087.167c4.262.283-2.101-.395-1.459 2.02.029-.836.522-1.912 1.459-2.02m18.742.087-.163.013zm-33.217.023c1.778-.585.928.82-.136.286zm32.829.02c-2.043 1.404-1.661.892 0 0m-15.718.143c2.297 1.367 3.611 5.558 1.39 1.108-.245-.657-1.107-.469-1.39-1.108m-16.061.114c1.56.769 3.079.104 0 0m2.423.236c1.337 1.26 2.051.34-.24.542zm13.098.242c4.873 4.132-6.74-.154 0 0m14.198.031c-1.96 1.313-6.503 1.268-7.113 1.58 2.633-.609 4.678-.678 7.113-1.58m.427.26c.785-.188-.2.764 0 0m-25.334.045c1.206.331 9.506 1.73 2.884.953.668-1.77-6.332.358-2.884-.953m1.82.43c.908.672-1.746.162 0 0m5.523.54c-.578 1.533-2.097.343 0 0m.793.043c.785-.188-.2.764 0 0m11.113.265c.784-.188-.2.764 0 0m-2.48.253c-1.341 1.015-2.428.391 0 0m-8.633.276c.785-.188-.2.764 0 0m2.117 0c.784-.188-.2.764 0 0" style="fill:#000" transform="translate(-55.915 -93.423)"/></svg>