<?xml version="1.0" encoding="UTF-8" standalone="no"?>
<!-- Created with Inkscape (http://www.inkscape.org/) -->

<svg
   width="98.715691mm"
   height="110.10228mm"
   viewBox="0 0 98.715691 110.10228"
   version="1.1"
   id="svg1"
   xml:space="preserve"
   xmlns="http://www.w3.org/2000/svg"
   xmlns:svg="http://www.w3.org/2000/svg"><defs
     id="defs1" /><g
     id="layer1"
     transform="translate(-55.915227,-93.423238)"><path
       id="path3"
       style="fill:#000000"
       d="m 86.225745,93.423238 c -1.322616,3.303598 2.173685,10.466842 -4.752213,7.442262 -4.533103,-1.757594 -7.767573,3.72629 -4.467248,7.08885 -2.609317,-2.8234 -7.859172,-3.91239 -7.433699,1.24 -1.923083,1.6642 -4.311791,2.70391 -6.448273,4.08035 5.748045,-0.90163 8.048041,4.54968 5.063698,8.96893 1.15788,4.47982 8.497524,-2.85014 10.421027,2.08167 2.190274,2.09679 3.700534,5.26671 -0.594476,4.47357 -7.088008,0.70716 -12.418292,6.60673 -15.618219,12.515 -1.701811,3.81787 -2.954843,7.91831 -5.519644,11.12927 0.572186,4.22501 -1.627276,9.20537 -0.753635,13.71588 -0.639153,4.93142 1.184584,9.60104 1.631731,14.56976 1.384618,7.41693 6.488455,13.95527 13.378598,17.02589 5.877708,4.42667 13.588137,3.99924 20.434045,5.57829 8.371753,0.90386 16.520523,-1.53346 24.423583,-3.9951 6.71227,-2.47766 12.80348,-6.70532 17.87385,-11.70537 3.47723,-2.39581 4.86138,-10.68732 6.38567,-11.63847 0.80214,3.82558 7.783,1.63613 6.0549,7.42532 -0.48751,2.95394 1.19399,5.60274 1.87402,1.18361 3.12077,-4.7304 9.68708,-10.36246 4.55297,-16.23235 -2.88019,-1.84081 -0.28606,-4.26724 1.19557,-4.79611 -1.84263,-3.15615 -5.20925,-5.42603 -9.02567,-4.62288 1.28172,-3.16265 0.1252,-5.94381 -3.49782,-4.70598 -1.75564,-3.19526 -7.21111,0.80475 -5.88702,-4.34909 -0.53798,-4.54808 -3.21618,-8.44549 -6.7351,-11.25067 3.79033,0.66168 10.77568,2.18704 7.51525,-3.79478 -2.42188,-5.78479 8.93439,-1.7725 4.22845,-6.65231 -3.40035,-4.54723 2.93907,-6.17428 5.97408,-6.15659 -5.33483,-1.96926 -10.17945,3.8269 -5.46301,7.81069 0.0317,1.39231 -7.06664,-0.0938 -5.4016,4.41674 0.57878,2.62633 1.75513,5.514 -2.11041,4.31642 -5.20951,0.49883 -10.69295,-3.21463 -15.52946,-0.38795 -2.14056,2.40001 -2.37198,-0.1718 -3.05798,3.19999 -3.54867,0.66804 -1.01156,-7.11088 -1.9475,-9.92545 -0.32546,-4.89643 -0.87873,-10.14006 -3.413,-14.39326 -0.0278,4.27725 2.68238,9.50136 2.50671,14.36221 -5.60263,-2.3842 -4.21443,-9.07377 -6.91971,-13.66513 -2.07468,-5.41653 -5.367704,-10.37172 -9.688029,-14.25567 -1.722882,2.05304 4.890059,5.64669 5.622199,8.84606 2.56474,4.40893 4.4545,9.28301 5.66041,14.19569 -2.74427,-0.28361 -8.549853,-4.09548 -9.671776,-6.50582 0.888775,-5.22904 -1.769229,2.56233 -3.905371,-1.13056 -4.243903,-2.31924 -8.23332,-4.397 -8.846059,-9.32001 -1.341685,1.56145 1.606303,5.46443 -2.008158,2.6855 -2.598141,-2.60485 -5.668897,-0.25695 -1.360102,0.73891 2.724425,0.36813 3.315405,2.32656 1.322123,3.78186 4.96346,-2.66949 9.718337,3.83303 14.514851,5.73174 3.149998,1.37712 4.573322,2.8838 0.699569,4.19949 -3.987152,2.92 3.482693,-1.50908 -1.06576,1.6961 3.507436,-0.16944 4.653793,-5.46832 6.917013,-1.70797 2.4711,1.37263 4.37836,2.67481 4.14819,5.65369 0.59627,-2.6614 -0.0978,-1.88238 0.56106,0.10679 1.00439,-4.42259 6.42571,2.90632 4.41891,5.46621 -1.97631,7.15689 7.0264,3.83207 10.90173,5.27122 2.04267,2.95442 5.14932,4.62357 5.88285,8.77677 2.37982,6.148 8.07936,-0.95145 11.44936,2.47279 1.31441,1.91921 5.52397,-1.40474 3.8441,2.87774 -1.03922,4.24991 7.43069,0.71267 8.1872,5.69718 0.0561,0.5959 -3.75339,2.80247 -1.04228,5.02777 4.32209,4.07768 1.72192,10.16111 -2.28415,13.27944 -1.19346,2.28395 -3.09248,5.41523 -2.62318,0.76206 0.92496,-5.65283 -6.54212,-2.80316 -7.03656,-7.91289 -2.99563,2.06602 -4.18968,-0.0256 -5.59946,-2.34323 -1.47498,1.73808 -3.79907,3.34941 -3.61959,-0.38071 -2.82382,-5.43757 -8.54724,6.57827 -8.20616,-0.89306 0.7507,-4.62948 4.99365,-8.15666 6.65147,-12.63579 1.52284,-3.82859 -2.52815,-0.15168 -2.52878,2.03748 -1.10587,3.28491 -6.49224,10.98783 -7.05927,3.98898 0.41633,-3.29544 -4.21089,-3.27214 -3.95947,-6.89675 -3.22601,-3.10641 -6.61554,3.55684 -8.70957,-1.03562 -4.16804,0.66046 -7.92816,-0.99271 -12.323744,-0.3421 2.041477,-3.67783 1.727752,-8.3884 -3.376379,-7.209 0.803021,-3.61691 -3.839204,-2.38734 -5.466818,-4.8379 -4.088641,0.76415 -7.934837,-0.38234 -2.702247,-3.26421 2.662368,-0.66272 -4.954485,3.29659 0.205231,0.89357 6.839651,-2.55572 14.403758,-2.50742 21.465937,-0.95519 4.07448,2.30127 0.28946,4.85173 -2.37464,4.35681 2.92477,3.47436 6.38262,-3.9406 9.57763,0.58293 2.27474,1.53095 5.04705,1.81072 1.30272,0.11131 -5.13179,-2.20458 1.19114,-0.13696 2.93218,1.35177 -4.15035,-2.95218 -9.01746,-5.09637 -13.09688,-8.30544 2.48807,1.55539 -3.165153,0.98205 -0.086,0.68007 -6.495232,-1.67521 -13.364116,-0.99987 -19.7307,0.87162 -1.390166,0.24978 -0.330482,-4.57452 -3.053148,-2.14894 -1.332032,-3.75775 -8.010934,0.13469 -6.199757,-3.91937 -7.245106,-0.82118 3.273029,-4.79579 5.818088,-4.23498 5.476916,0.29961 -2.108157,-10.83511 -5.909251,-7.18228 -2.531512,0.58428 -6.967857,1.47998 -4.120254,-2.27903 1.853076,-3.51265 -0.730988,-8.10802 -4.897597,-7.17675 3.90829,-1.07064 5.856615,-4.42653 7.216214,-7.17839 2.220374,0.31796 7.32915,5.34553 4.944273,0.3631 -2.654508,-6.19007 5.452299,-4.5816 8.796348,-4.41305 3.818975,-1.20279 -2.385571,-9.81352 2.842337,-6.021335 4.785867,-1.413207 7.766675,3.164904 9.178389,6.664745 3.660278,-0.80813 -1.623361,-10.175157 3.088428,-4.850592 3.27985,1.273713 7.49031,1.89134 9.55114,4.299022 2.52088,-2.524055 7.7823,1.37659 8.89123,-3.212299 1.28567,3.565129 -3.22684,11.475289 3.69472,10.105899 3.98723,-2.61247 14.42221,-0.32521 9.94502,5.55341 -2.48394,4.14206 1.55366,4.86028 4.58302,3.41145 3.46815,0.57726 5.77329,4.34855 9.59777,4.13352 -4.31313,-1.04479 -7.66436,-6.22497 -12.32887,-4.24011 -5.56199,-0.0739 4.06814,-7.25516 -2.00768,-9.05472 -3.72604,-3.70402 -8.87959,1.0735 -12.97543,-0.82401 -1.05171,-2.55195 1.84322,-8.461054 -0.75166,-9.43932 -1.60262,3.37062 -7.77726,2.02952 -9.45229,2.10034 -3.10045,-2.722377 -9.47707,-2.38186 -11.013364,-6.228259 -1.876893,1.476866 1.470308,8.970419 -1.114714,6.416389 -1.130637,-5.009339 -5.791872,-5.584208 -9.783876,-5.8314 -0.366256,-0.546159 -0.901782,-0.929488 -1.371151,-1.375882 z m 21.682915,9.774082 c -2.75453,1.80078 2.84293,3.44469 0,0 z m -5.21312,0.45578 c -0.23708,2.08345 0.39161,4.4115 0,0 z m 0.52813,0 c -0.23641,3.42782 0.45348,3.70594 0,0 z m 4.66535,0.0569 c 1.04487,1.88994 -0.72754,0.89709 0,0 z m -12.788365,0.0889 c 1.589305,1.48358 3.650172,3.83792 0.733501,1.13093 -0.241014,-0.28315 -0.855664,-0.63391 -0.733501,-1.13093 z m -3.285071,0.43874 c -1.322072,1.48243 0.20172,6.89472 -3.358914,3.17573 -4.713617,-0.29172 5.517752,6.07644 3.831305,-0.11099 -0.112096,-1.01782 0.322078,-2.21386 -0.472391,-3.06474 z m -0.256832,0.20928 c 0.55381,2.01 -0.348374,1.69171 0,0 z m 6.20634,2.38125 c 3.429138,3.5182 2.098359,3.14753 0.02153,0.0279 z m 4.580598,0.30903 c -0.53304,1.16544 0.85318,0.43217 0,0 z m -10.583332,0.26458 c 0.851513,0.42679 -0.460399,1.11531 0,0 z m 11.112502,0 c -0.53305,1.16546 0.85316,0.43219 0,0 z m -15.478127,0.35657 c 0.900107,-0.0486 2.412041,1.58797 0.710767,0.54078 z m 4.497916,0.96945 c -0.922817,1.67283 -3.72418,-3.5e-4 -0.672278,0.44045 z m 21.034371,0.046 c 0,2.49546 0,4.99091 0,7.48637 1.43957,-0.55374 1.6186,-7.22762 0,-7.48637 z m 0.33642,0.17105 c 0.48847,1.77472 -0.25026,3.01021 0,0 z m -29.175999,0.83768 c 0.850772,0.42758 -0.460149,1.1156 0,0 z m 16.348869,0.55242 c 1.64212,1.2047 0.87865,1.99458 0,0 z m -16.042428,0.1974 c 0.702038,0.84452 -0.432742,1.41088 0,0 z m -5.465816,0.94465 c 2.463703,0.41821 2.072231,1.60407 0,0 z m 34.731734,0.11368 c 0.38648,2.87669 -1.01354,5.30174 -0.17686,0.83122 z m -29.043192,0.0439 c 0.85078,0.42759 -0.460149,1.11559 0,0 z m 16.914732,0.35295 c 1.16031,0.48577 0.73112,2.116 0,0 z m -20.618899,0.26458 c 0.784553,-0.18808 -0.199323,0.76422 0,0 z m 0.957047,0.26459 c 1.956227,0.80045 0.34838,1.04878 -0.329573,0.0454 z m 3.197221,0.13177 c -0.205004,2.53818 1.807064,2.19265 -0.981558,3.08785 0.324256,-1.36388 0.790736,-1.69832 0.981558,-3.08785 z m -20.823018,0.30903 c 1.226254,0.61214 -1.173303,0.34749 0,0 z m 18.785417,0.35295 c 0.784549,-0.1881 -0.199309,0.7642 0,0 z m 19.314582,0 c 0.78455,-0.18809 -0.19931,0.7642 0,0 z m -18.785416,0.26406 c 0.784555,-0.18809 -0.199323,0.76422 0,0 z m 19.049996,0.26459 c 0.78456,-0.1881 -0.1993,0.7642 0,0 z m 0.26459,0.52916 c 0.78454,-0.18808 -0.19933,0.76422 0,0 z m -28.279413,5.2e-4 c -1.325352,1.21461 0.885591,0.0984 0,0 z m 28.543993,0.52865 c 0.78455,-0.18809 -0.19931,0.7642 0,0 z m 24.13341,0.2651 c -4.16038,1.9388 -11.30464,2.10399 -13.65264,5.01522 3.58551,0.16017 12.10742,-5.47354 8.64824,1.78594 -1.59867,4.86641 8.25192,4.09088 8.7325,2.57042 -4.26528,-0.0512 -9.90853,0.13003 -6.64447,-5.69288 -0.77188,-3.61584 10.1061,-2.07813 3.8892,-3.66921 z m -40.934451,0.23461 c 1.311864,0.1838 1.407661,1.63573 0,0 z m 17.065621,0.0295 c 0.78456,-0.1881 -0.1993,0.7642 0,0 z m -29.866907,5.1e-4 c -1.325349,1.21461 0.885594,0.0984 0,0 z m 55.694797,0 c 3.38756,1.12404 -5.96946,0.18905 0,0 z m -25.54728,0.39636 c 1.10138,1.14849 -0.0809,1.61669 0,0 z m 22.77122,0.0775 c 0.90948,0.67281 -1.74461,0.164 0,0 z m -42.868187,0.061 c -0.294615,1.15913 -1.700786,0.12549 0,0 z m 41.776777,0.17054 c 1.22625,0.61214 -1.1733,0.34749 0,0 z m -37.703124,0.0584 c 1.311669,0.18383 1.407935,1.63563 0,0 z m 36.984824,0.28215 c -0.0263,1.12939 -1.98043,0.4236 0,0 z m -35.611265,0.45941 c 1.014288,0.20398 0.463872,1.22917 0,0 z m 34.245975,0.0269 c 0.90949,0.67282 -1.7446,0.16402 0,0 z m -13.74955,0.18707 c 0.70384,0.84444 -0.43373,1.40978 0,0 z m 12.69121,0.0775 c 0.90946,0.67233 -1.74468,0.16397 0,0 z m -18.02474,0.0548 c 0.78456,-0.1881 -0.1993,0.7642 0,0 z m -14.419787,0.23513 c 1.311873,0.1838 1.407648,1.63571 0,0 z m 30.956247,0.0672 c 2.54286,-0.10195 -3.35356,1.09717 0,0 z m 3.08457,0.0951 c 0.702,0.84449 -0.43267,1.4109 0,0 z m -19.35644,0.0434 c 0.85243,0.42697 -0.46042,1.11454 0,0 z m 14.84974,0.29817 c 0.90947,0.67233 -1.74468,0.16397 0,0 z m -9.55808,0.231 c 0.85243,0.42696 -0.46043,1.11456 0,0 z m 8.46667,5.1e-4 c 1.22624,0.61214 -1.17329,0.34749 0,0 z m -27.119791,0.0584 c 1.311873,0.1838 1.407647,1.63571 0,0 z m 5.688542,0.0295 c 0.784553,-0.18808 -0.199323,0.76422 0,0 z m 7.937499,0.17622 c 0.85243,0.42697 -0.46042,1.11455 0,0 z m 12.30313,0.12609 c 2.54285,-0.10194 -3.35358,1.09717 0,0 z m -20.505212,0.13849 c 0.851795,0.42734 -0.460487,1.11551 0,0 z m 13.493752,0.26459 c 0.85179,0.42733 -0.46049,1.1155 0,0 z m 5.55625,5.1e-4 c 1.22623,0.61215 -1.17329,0.34749 0,0 z m 7.9375,0 c 0.85076,0.4276 -0.46014,1.11558 0,0 z m -31.037901,0.006 c 1.014297,0.20398 0.463861,1.22918 0,0 z m 22.306651,0.25839 c 1.22624,0.61215 -1.1733,0.34749 0,0 z m -9.78959,0.0879 c 0.78456,-0.1881 -0.1993,0.7642 0,0 z m -8.50852,0.13229 c 0.213267,2.1229 -1.577395,2.40388 0,0 z m -3.133142,0.11369 c 1.745011,0.57913 2.042714,2.22691 0,0 z m 20.637502,0.0191 c 0.78455,-0.18809 -0.19931,0.7642 0,0 z m 9.5157,0.13229 c -1.39808,2.70939 -0.0247,5.80845 2.27498,4.98125 -3.81171,1.34206 -3.41908,-2.83853 -2.27498,-4.98125 z m -18.24695,0.0434 c 0.85179,0.42733 -0.46049,1.1155 0,0 z m 5.02708,0 c 0.85179,0.42733 -0.46049,1.11551 0,0 z m -4.74648,0.74982 c 1.10138,1.14849 -0.0809,1.61669 0,0 z m 5.01106,0.0439 c 0.85179,0.42733 -0.46049,1.11551 0,0 z m 0.26459,0.79375 c 0.85179,0.42733 -0.46049,1.1155 0,0 z m -14.287502,0.0698 c 1.745009,0.57913 2.042719,2.22692 0,0 z m 9.525002,0.4594 c 0.85179,0.42735 -0.46049,1.1155 0,0 z m 5.02708,0.26459 c 0.85179,0.42733 -0.46049,1.11551 0,0 z m -4.7625,0.52916 c 0.85243,0.42697 -0.46043,1.11458 0,0 z m -7.805207,0.06 c 3.229497,2.09777 8.332017,4.64092 9.419707,6.03155 1.2754,1.55371 -5.02508,-3.27899 -6.85058,-4.29794 -0.8575,-0.5762 -1.714147,-1.15368 -2.569127,-1.73361 z m 12.874147,0.42529 c 0.70384,0.84446 -0.43372,1.40979 0,0 z m -4.7625,0.26459 c 0.70384,0.84444 -0.43373,1.40978 0,0 z m 5.02709,1.05833 c 0.70382,0.84444 -0.43372,1.40978 0,0 z m -4.80436,0.0439 c 0.85242,0.42697 -0.46042,1.11454 0,0 z m 21.16666,0.0501 c 2.88156,0.36354 -2.88255,0.36883 0,0 z m 3.20601,0.0388 c -1.09523,1.38064 -2.76511,-0.234 0,0 z m -30.40693,0.75603 c -1.773188,1.88329 -3.155915,1.16406 0,0 z m 6.3407,0.16949 c 0.70384,0.84446 -0.43372,1.40979 0,0 z m 4.78214,0.52917 c 0.54795,1.77071 -0.407,1.50879 0,0 z m -21.717542,0.64182 c -2.895675,-0.5735 -11.717028,2.61017 -4.881605,3.3732 3.094106,0.85504 5.779822,2.79702 8.886823,0.72232 1.544364,1.35187 7.723304,5.16704 5.161714,0.71663 -2.354056,-2.98934 -5.626398,-3.84659 -9.166932,-4.81215 z m 44.131672,0.54932 c -5.80898,2.31733 -11.96889,4.01393 -17.84078,5.84884 -1.91696,3.03607 4.14223,-1.79848 4.13445,2.08866 0.0834,-3.79484 6.10212,-4.30468 8.88576,-2.14452 0.28694,-1.16264 -3.0585,-2.84499 0.79029,-3.14454 2.71228,-1.84064 6.46815,-1.37553 8.13362,-0.44677 0.4226,-2.17117 -2.65702,-2.3084 -4.10334,-2.20167 z m -43.907913,0.17725 c 1.086527,0.48601 -1.119987,0.49359 0,0 z m 45.244783,0.0434 c 2.15382,0.42964 -1.74287,0.31804 0,0 z m -48.683332,0.0439 c 0.792269,-0.19593 -0.195391,0.79315 0,0 z m 47.658072,0.20929 c 0.90947,0.67231 -1.74468,0.16395 0,0 z m -48.980989,0.0553 c 0.788874,-0.20992 -0.184864,0.72225 0,0 z m 50.833589,0 c 2.16707,1.11258 1.08439,1.71711 0,0 z m -48.320047,0.002 c 2.158731,-0.46957 7.540094,1.82969 6.973527,2.09597 -3.613058,-1.03079 -1.751805,-0.30696 0.421383,-0.0387 -2.418205,-0.86946 -6.258877,-2.76042 -7.39491,-2.05725 z m 44.979167,0.2713 c 2.12586,-0.3107 -2.16675,1.21455 0,0 z m -45.834929,0.0982 c -4.872988,0.51726 -0.290419,1.52994 -1.037524,1.12565 -4.092091,0.34719 -1.059997,-1.08845 1.037524,-1.12565 z m 24.872379,0.0258 c 0.48954,1.77491 -0.25069,3.00958 0,0 z m 19.77192,0.30851 c 1.22628,0.61213 -1.17331,0.3475 0,0 z m -37.570829,0.0884 c 0.784549,-0.1881 -0.199309,0.7642 0,0 z m 36.777079,0.17622 c 1.22628,0.61213 -1.17331,0.3475 0,0 z m -51.848511,0.31161 c 2.130406,0.45026 -2.822194,0.27949 0,0 z m 12.295891,0.0393 c 4.213048,2.13486 -6.262826,1.4786 -1.003679,1.86486 1.12962,0.0259 3.821,-1.48509 1.003679,-1.86486 z m 4.098458,0.002 c 0.784549,-0.1881 -0.199309,0.7642 0,0 z m 34.528122,0.008 c 1.68444,0.0147 -2.52405,1.13279 0,0 z m -42.650624,0.20051 c 2.613415,0.84111 1.028689,1.81103 0,0 z m -11.192082,0.0558 c 0.784551,-0.1881 -0.199308,0.7642 0,0 z m 17.226856,0 0.211902,0.003 z m 2.672188,0.003 c 1.541872,1.42438 4.726322,4.41111 0.702734,2.09374 -0.572673,-0.41608 -1.332841,-1.41398 -0.702734,-2.09374 z m 12.512412,0.12919 c 1.61011,1.16795 1.13506,1.59625 0,0 z m 20.24063,0.0439 c 1.22642,0.61208 -1.17353,0.34745 0,0 z m -21.43125,0.0884 c 0.78454,-0.18808 -0.19933,0.76422 0,0 z m 20.6375,0.17622 c 1.22642,0.61209 -1.17353,0.34745 0,0 z m -53.445836,0.0884 c 0.784551,-0.1881 -0.199308,0.7642 0,0 z m 18.785417,0 c 0.784549,-0.1881 -0.199309,0.7642 0,0 z m 0.529167,0 c 0.784549,-0.1881 -0.199309,0.7642 0,0 z m -20.108334,0.26458 c 0.784551,-0.1881 -0.199308,0.7642 0,0 z m 18.785417,0 c 0.784549,-0.1881 -0.199309,0.7642 0,0 z m 1.852083,0 c 0.784551,-0.1881 -0.199308,0.7642 0,0 z m 32.868796,0 c -0.56764,1.51223 3.52886,3.52359 0.1838,1.51558 -1.17038,-0.80515 -2.62642,-0.83154 -0.1838,-1.51558 z m -54.035462,0.26458 c 0.784553,-0.18808 -0.199323,0.76422 0,0 z m 22.092708,0.13229 c 1.609906,1.16812 1.134932,1.59613 0,0 z m 16.862534,0 c 0.55214,2.01014 -0.34739,1.69167 0,0 z m -39.484409,0.1323 c 0.784549,-0.1881 -0.199309,0.7642 0,0 z m 37.196179,0 c 1.92341,1.05584 3.83614,4.18375 0,0 z m 15.19132,0.17621 c 1.22624,0.61214 -1.17329,0.34749 0,0 z m -52.916666,0.0884 c 0.784551,-0.1881 -0.199308,0.7642 0,0 z m 16.66875,0 c 0.784551,-0.1881 -0.199308,0.7642 0,0 z m 8.764323,0.20929 c -1.678041,0.0705 0.744178,0.70986 0,0 z m 26.722913,0 c 0.90946,0.67233 -1.74468,0.16397 0,0 z m -52.685152,0.0553 c 0.784553,-0.18808 -0.199323,0.76422 0,0 z m 51.593752,0.17622 c 1.22642,0.61209 -1.17353,0.34745 0,0 z m -0.76068,0.29766 c 0.90947,0.67231 -1.74468,0.16395 0,0 z m -51.626822,0.0553 c 0.784549,-0.1881 -0.199309,0.7642 0,0 z m 50.568492,0.20929 c 0.90947,0.67233 -1.74468,0.16397 0,0 z m -0.71934,0.25011 c -0.57869,2.94887 -2.72691,0.22268 0,0 z m -50.611897,0.0698 c 0.726597,0.25931 -1.032847,0.91787 0,0 z m 48.685397,0.47387 c 0.90946,0.67233 -1.74468,0.16397 0,0 z m -20.935152,0.0553 c 0.784553,-0.18808 -0.199323,0.76422 0,0 z m 0.79375,0.17622 c 1.226252,0.61214 -1.173302,0.34749 0,0 z m 19.050002,0 c 1.22642,0.61209 -1.17353,0.34745 0,0 z m -47.889586,0.0884 c 0.784551,-0.1881 -0.199308,0.7642 0,0 z m 46.963546,0.27285 c 1.68441,0.0148 -2.52406,1.13275 0,0 z m -45.481466,0.24029 c 4.327497,2.85584 -1.817609,-1.79989 -3.388629,1.30675 0.406592,-1.12926 2.287954,-1.2221 3.388629,-1.30675 z m 49.053336,0.45682 c 0.85077,0.42759 -0.46014,1.1156 0,0 z m -26.193749,0.35295 c 0.520994,3.31317 6.540089,1.60862 1.385891,0.31302 l -0.996768,-0.31293 -0.295717,-7e-5 h -9.1e-5 z m 0.79375,0.4408 c 1.226251,0.61214 -1.173298,0.34749 0,0 z m -27.436052,0.10801 c -0.06462,1.88806 -2.681436,1.41101 0,0 z m 28.229802,0.15658 c 1.226254,0.61214 -1.173303,0.34749 0,0 z m -23.25026,0.30644 c -0.173864,2.06297 7.50086,0.70641 5.618217,1.88595 -0.853723,-2.26531 -6.075544,0.88772 -5.618217,-1.88595 z m 23.779427,0.0465 c 0.784549,-0.1881 -0.199309,0.7642 0,0 z m 7.672912,0.26458 c 0.34275,3.79691 4.00961,-0.34595 0,0 z m -7.171651,0.006 c 1.456359,0.0517 0.475146,1.22334 0,0 z m 7.436241,0.25838 c 1.31808,-0.0246 1.28794,2.13315 0,0 z m -37.696926,0.37466 c -1.498285,1.43104 -3.87531,6.11723 -1.780118,1.89239 0.593424,-0.63075 1.186805,-1.26154 1.780118,-1.89239 z m 55.424006,1.12448 c 1.228,0.61139 -1.17371,0.34826 0,0 z m -2.38125,0.35295 c 0.78455,-0.18809 -0.19931,0.7642 0,0 z m -38.452949,0.0243 c 0.227795,4.18035 -0.835163,2.77503 0,0 z m 43.609229,0.0558 c -3.01613,-0.38645 -8.57132,2.17985 -8.38853,3.37703 -0.30722,-2.10015 5.72139,-3.82231 8.38853,-3.37703 z m -45.846302,0.16124 c 2.532133,0.53571 1.367589,0.87963 0,0 z m 47.915422,0.20618 c 0.21901,1.72419 -5.05528,-0.78143 -0.93421,0.30358 l 0.57504,-0.0713 z m -31.825448,0.0434 c 2.651195,0.48585 -3.139486,0.22027 0,0 z m 2.904216,0.25838 c 2.153162,0.43133 -1.74432,0.31802 0,0 z m -6.608383,0.006 c 2.651195,0.48585 -3.139485,0.22027 0,0 z m -26.444897,0.0568 -0.268767,0.47439 z m 53.029322,0.11369 c -1.05854,1.64885 -1.10123,0.47517 0,0 z m -50.441366,0.0444 c 1.471686,1.72278 -2.431959,5.40528 0.128365,2.00789 1.122289,-3.16258 -3.468035,-0.28872 -0.128365,-2.00789 z m 21.743892,0.0475 c 2.130444,0.44913 -2.822497,0.28113 0,0 z m 10.838094,0.002 c 2.88156,0.36353 -2.882546,0.36883 0,0 z m 27.77505,0.0579 c 0.18846,0.97979 -1.72249,-0.0292 0,0 z m -39.912806,0.19017 c 0.911028,0.67265 -1.745108,0.1644 0,0 z m -1.058333,0.26458 c 0.911026,0.67265 -1.74511,0.1644 0,0 z m -23.051823,0.0553 c 0.784549,-0.1881 -0.199309,0.7642 0,0 z m 40.450242,0 c 1.17482,1.4183 -1.5132,-0.51796 0,0 z m 24.36699,0.0599 c 0.56051,2.00592 1.97016,0.5719 1.7327,2.06677 -0.34419,-0.18918 -3.47886,-2.16702 -1.7327,-2.06677 z m -63.192525,0.0656 c -1.778172,2.5997 -2.290835,2.57469 0,0 z m 47.100485,0.007 c 0.73188,0.92455 -0.56731,1.90079 0,0 z m -27.029359,0.0439 c 1.227817,0.61146 -1.173465,0.34831 0,0 z m 19.205549,0.22066 c 1.33936,2.46286 8.30094,4.56695 2.44533,3.29528 -2.29024,2.86915 1.519,-2.08992 -1.72592,-2.48628 z m -19.966226,0.077 c 0.911028,0.67265 -1.745108,0.1644 0,0 z m -18.02474,0.0253 c 0.03706,3.37348 -4.794595,3.3588 -0.886697,0.4816 z m 0.529167,0.55914 c 0.784549,-0.1881 -0.199309,0.7642 0,0 z m 13.253971,0.0238 c -0.323807,2.20223 -1.609094,2.77986 0,0 z m -17.13022,0.003 c -0.518596,2.56482 -1.781666,3.96552 0,0 z m 54.526388,0.1447 c 0.86858,0.53378 -0.86859,0.53375 0,0 z m -0.11472,0.093 c -0.1881,0.78456 0.7642,-0.19931 0,0 z m -5.29167,0.17622 c 0.85078,0.42759 -0.46014,1.1156 0,0 z m -45.508332,0.0884 c 0.784549,-0.1881 -0.199309,0.7642 0,0 z m 53.076342,0.10025 c 1.8103,1.15289 4.08373,0.94325 0.69092,0.9581 -1.35806,-1.68394 -4.2506,-0.24573 -0.69092,-0.95817 z m -53.340926,0.42891 c 0.784555,-0.18809 -0.199323,0.76422 0,0 z m 52.122916,0 c 0.78454,-0.18808 -0.19933,0.76422 0,0 z m 1.32292,0 c 0.78454,-0.18808 -0.19933,0.76422 0,0 z m 10.86187,0.0279 c -0.27049,0.92764 -1.65407,-0.19731 0,0 z m -67.482706,0.36483 c -0.266096,1.23716 -0.410901,1.83858 0,0 z m 16.146818,0.076 c -1.121708,1.59858 -0.727432,2.41323 0,0 z m 51.035648,0.0765 c 2.68696,2.77286 4.74318,8.47412 2.95367,11.76431 -3.41592,0.16433 -4.32961,-2.3135 -4.78354,-5.52726 -1.32269,4.49136 7.93401,7.38048 5.07145,1.23232 -0.23643,-2.77038 -1.70073,-5.2304 -3.24158,-7.46937 z m -6.85747,0.1142 c 1.51743,1.95193 0.13893,0.72649 0,0 z m -57.13501,0.15968 c -1.585684,1.40384 -2.597226,1.19075 -0.121591,0.13334 z m -4.777486,0.73794 c 0.835932,-0.97827 -0.582911,2.96578 0,0 z m 70.379166,0.82424 c 0.78454,-0.18808 -0.19933,0.76422 0,0 z m -7.38198,0.0796 c 0.59677,0.76761 -1.04148,1.04557 0,0 z m -45.560524,0.13591 c 2.447386,0.0735 8.675288,0.88438 2.977234,0.27994 -0.993155,-0.0848 -1.987451,-0.16025 -2.977234,-0.27994 z m 6.406844,0.0501 c -0.81035,0.8303 -1.50367,-0.16969 0,0 z m 16.27188,0.26355 c 2.31487,0.3389 2.98844,1.71229 0,0 z m 3.27628,0 c 0.78455,-0.18809 -0.19931,0.7642 0,0 z m -43.590103,0.001 c 0.02529,0.8341 -0.751092,1.73808 0,0 z m 63.433853,0.12196 c 2.13203,0.44582 2.9573,1.91087 0,0 z m -20.37292,0.14159 c 0.78457,-0.1881 -0.19932,0.76423 0,0 z m 27.78125,0 c -0.1881,0.78458 0.76422,-0.19931 0,0 z m -47.090661,0.005 c 2.349873,0.7274 7.315461,4.69818 2.578213,1.64441 -1.000032,-0.31468 -1.431467,-1.65428 -2.578213,-1.64441 z m -8.404139,0.34778 c 3.75575,-0.8215 -2.327533,1.26922 0,0 z m 1.53324,0.154 c 1.091332,0.35754 1.881948,1.02971 0,0 z m -17.740519,0.2868 c 0.784553,-0.18808 -0.199323,0.76422 0,0 z m 66.386129,0.0181 c 1.51109,1.69536 1.4768,3.75531 0.37054,0.47129 z m -0.2403,0.2465 c 0.78456,-0.1881 -0.1993,0.7642 0,0 z m -65.594958,0.12454 c -0.973801,1.86618 -1.002808,0.37688 0,0 z m 18.597831,0.0253 0.215129,0.59464 z m -3.685046,0.0599 c 0.335661,0.73184 -0.174806,0.76186 0,0 z m -6.664193,0.032 c 1.615999,1.95988 -0.05438,4.71976 0.688861,0.67876 l -0.251952,-0.34211 z m 7.623307,0.0227 c 4.88348,-0.62892 -2.475908,3.97267 0,0 z m -7.739579,0.0579 c -1.303009,1.2258 -2.419886,1.97438 0,0 z m 10.10791,0.17931 c 0.928495,0.12977 -0.07209,1.20608 0,0 z m -3.739823,0.29198 c -0.282432,2.16438 1.288613,3.55992 0,0 z m -6.820256,0.52916 c 3.127606,2.53568 -4.292006,6.76743 -1.825938,2.05128 0.766457,-0.53124 1.197391,-1.38676 1.825938,-2.05128 z m 10.320817,0 c 0.726469,0.2596 -1.03383,0.91772 0,0 z m -19.012793,0.001 c 0.331838,2.29531 -0.833393,2.80075 0,0 z m 19.54506,0.0351 c -3.722579,2.5478 -1.444282,1.00274 0,0 z M 113.483,147.7062 c -6.26331,1.32844 -13.14006,2.56403 -18.053759,6.92148 2.287251,-0.89295 2.052658,-1.47521 1.258168,0.0177 5.884101,-3.25503 12.535921,-5.47937 19.284541,-5.86205 3.96482,-0.5828 8.94275,4.10271 11.15707,3.45637 -3.38573,-3.5258 -8.8814,-4.68461 -13.64602,-4.53354 z m -45.681971,0.21239 c -1.532353,1.3042 -2.011189,5.12023 -0.99092,1.23358 l 0.546221,-0.60983 z m 46.583201,0.0754 c 4.76531,-0.11633 -6.55656,1.37484 -1.29244,0.29044 l 0.71248,-0.15538 z m 3.05253,0.20102 c 2.12976,0.44915 -2.8223,0.28105 0,0 z m -41.020236,0.0403 c 0.784551,-0.1881 -0.199308,0.7642 0,0 z m 42.366406,0.2098 c 0.90914,0.67174 -1.74461,0.1637 0,0 z m -58.770572,0.0548 c 0.784549,-0.1881 -0.199309,0.7642 0,0 z m 30.130977,0.0413 c 1.415926,1.79077 5.96954,-0.68693 4.2318,3.26551 1.544604,-4.99765 -2.673309,-0.74151 -4.2318,-3.26551 z m 29.697925,0.16847 c 0.90918,0.6722 -1.7449,0.16285 0,0 z m -9.29349,0.0109 c 2.15392,0.42958 -1.74283,0.31807 0,0 z m -1.02526,0.25373 c 0.90918,0.6722 -1.7449,0.16285 0,0 z m 11.47631,0.0791 c 3.3104,0.90003 -1.46883,0.56842 0,0 z m -12.53464,0.18552 c 0.90918,0.6722 -1.7449,0.16285 0,0 z m -1.05833,0.26407 c 0.90949,0.67282 -1.7446,0.16402 0,0 z m -1.09141,0.23151 c 1.22625,0.61214 -1.1733,0.34749 0,0 z m 16.90181,0.0884 c 1.17678,1.41785 -1.51325,-0.51709 0,0 z m -63.468476,0.0129 c -1.426969,0.55371 -2.698438,5.04332 -0.05023,2.04858 -2.922858,3.84608 -2.050897,-1.03201 0.05023,-2.04858 z m 33.950383,0.14159 c 1.481333,2.26662 -5.285375,7.80731 -1.184832,3.1148 1.168994,-2.79127 1.748889,-0.37654 1.184832,-3.1148 z m -23.458,0.0424 c -1.223203,1.79937 -4.383692,2.91527 -0.81958,1.20499 l 0.429259,-0.5818 z m 35.677413,0.06 c -3.05985,1.45147 -3.86591,0.80402 0,0 z m -12.294861,0.006 c -3.407569,5.6579 -7.759769,11.36282 -14.44429,13.18439 -3.938525,1.54941 -8.339223,1.55373 -12.252139,2.96555 -6.359676,2.28827 -5.431902,9.76083 -7.719646,14.16807 1.967563,-1.22952 0.630083,-8.35924 3.7946,-11.04213 3.548926,-4.91649 10.012296,-3.87963 15.080296,-5.80294 5.81687,-1.62988 10.789146,-5.55438 13.727152,-10.82353 0.605286,-0.88271 1.188234,-1.78087 1.814027,-2.64941 z m -33.425867,0.22221 -0.352675,0.89452 z m 63.447808,0.0388 c 3.4562,1.45744 3.62124,2.91071 0,0 z m -21.29896,0.71107 c 1.22625,0.61214 -1.1733,0.34749 0,0 z m -42.533837,0.33021 c 0.109725,2.18391 -0.0031,1.60676 0,0 z m 41.607797,0.031 c 1.68444,0.0147 -2.524055,1.13279 0,0 z m -6.746876,0.25632 c 0.784551,-0.1881 -0.199308,0.7642 0,0 z m -28.275793,0.21084 0.300737,0.32465 z m 33.832039,0.0537 c 0.78457,-0.1881 -0.19932,0.76423 0,0 z m -0.529162,0.26459 c 0.784552,-0.18809 -0.199309,0.7642 0,0 z m 30.162502,0 c 0.78455,-0.18809 -0.19931,0.7642 0,0 z m -30.691669,0.26458 c 0.784549,-0.1881 -0.199309,0.7642 0,0 z m 35.718749,0 c 0.78455,-0.18809 -0.19931,0.7642 0,0 z m -41.656371,0.1912 c 0.73073,0.20513 -0.625069,0.31964 0,0 z m 5.673039,0.0548 c -0.48578,1.16036 -2.115973,0.73106 0,0 z m -4.616256,0.0248 c 0.209213,2.07505 -0.897676,2.18229 0,0 z m 40.599588,0.17002 c 0.85078,0.42759 -0.46014,1.1156 0,0 z m -41.751973,0.0884 0.189249,0.0115 z m 1.270724,0 c 0.784549,-0.1881 -0.199309,0.7642 0,0 z m -34.727079,0.24649 c -2.0274,1.98837 -2.229837,0.33245 0,0 z m 34.117814,0.48421 c 0.481377,1.43312 -0.247067,0.93262 0,0 z m -0.84336,0.50333 c 0.700254,0.17872 -0.602318,0.37986 0,0 z m -35.414375,0.003 c 0.04355,1.1017 -0.980664,10.79126 -0.384554,4.57664 -0.510717,-1.73689 1.141601,-3.21201 0.384554,-4.57664 z m 36.025708,0.31884 c -1.788844,2.5046 2.645873,8.50352 3.106651,9.25295 -1.863999,-2.49455 -4.66333,-7.19116 -3.106651,-9.25295 z m -12.035441,1.34304 c 1.477096,1.43625 0.613684,0.5987 0,0 z m -0.352434,0.0403 c 0.246028,0.76561 -1.156519,0.31405 0,0 z m 12.170834,0.23565 c 0.784549,-0.1881 -0.199309,0.7642 0,0 z m -12.888619,0.0558 c -0.814224,0.76171 -1.56997,1.14772 0,0 z m 20.510371,0.0765 c -4.560461,-0.79554 -9.062105,1.36146 -4.355085,5.68215 3.136331,4.62699 7.532435,8.19779 12.002165,11.47029 1.57883,-3.85838 -0.1173,2.43054 -1.9778,-1.2452 -5.10603,-4.05085 -10.656605,-8.61825 -12.529309,-15.1124 1.107784,-1.63337 4.98572,-0.35769 6.860029,-0.79484 z m -20.586336,0.13229 c 0.784551,-0.1881 -0.199308,0.7642 0,0 z m 26.217526,0 c 2.08421,2.51063 1.99191,2.05322 -0.29007,0.46924 -2.01035,0.2878 -3.67046,0.28596 -0.92349,-0.23949 -1.59948,-0.4401 1.14118,-0.0927 1.21356,-0.22975 z m 21.93664,0 c 1.51394,0.62012 -1.38547,2.21105 0,0 z m -27.04848,0.0398 c 2.55801,1.34452 0.97623,0.4912 -0.79788,0.30631 z m 4.5589,0.13643 c -1.22902,0.6109 1.1732,0.3488 0,0 z m -24.324616,0.0605 c 0.175,3.89063 -5.393701,2.34759 0,0 z m 8.334892,0.004 c -2.149845,2.68497 -2.575924,2.97117 0,0 z m 23.133474,0.0238 c 0.78454,-0.18808 -0.19933,0.76422 0,0 z m -33.205211,0.22428 c -1.167754,1.31019 -1.928397,0.86095 0,0 z m 31.881771,0.1726 c 2.99951,0.0132 3.60463,0.359 0.0428,0.45169 -4.34296,1.23237 0.40226,-0.0379 -0.0428,-0.45169 z m 22.6255,0.11265 c -4.32205,0.56065 0.17744,10.92122 0.7022,7.44473 -2.41898,-2.1875 -1.37902,-8.5413 2.18563,-4.28799 4.08808,1.52395 7.17387,8.51816 10.51219,8.45266 -3.58626,-4.63708 -8.12233,-8.83932 -13.40002,-11.6094 z m 0.007,0.5333 c 2.7593,1.2764 -2.97596,0.27486 0,0 z m -52.480513,0.015 c 0.677214,0.14051 -0.08397,1.58634 0,0 z m 33.023823,5.2e-4 c 0.78455,-0.18809 -0.19931,0.7642 0,0 z m -46.39355,0.21084 c 4.820112,-2.20967 0.072,6.9048 2.65345,1.35786 -0.130106,-2.97223 -5.981249,-0.27662 -4.169798,1.67372 -1.318722,-2.15409 0.563979,-2.06724 1.516348,-3.03158 z m 59.35813,0.0537 c 0.78456,-0.1881 -0.1993,0.7642 0,0 z m -49.648128,0.14831 c -0.220528,2.96438 6.394188,0.13732 1.497251,1.52037 -1.060277,0.18412 -1.639497,-0.55204 -1.497251,-1.52037 z m -7.501868,0.11627 c 0.784555,-0.18809 -0.199323,0.76422 0,0 z m 43.976126,0 c 1.66036,2.16692 0.70366,2.51166 0,0 z m -54.524836,0.1602 c 1.349335,1.80033 -1.237995,4.37719 0.615291,0.85308 0.143456,-1.18297 -3.305475,-0.26242 -0.615291,-0.85308 z m 49.310166,0.0207 c 0.62145,0.52475 -2.30492,0.32575 0,0 z m 25.92917,0.0548 c 1.3129,0.18256 1.40636,1.6361 0,0 z m -53.842709,0.0289 c 0.784549,-0.1881 -0.199309,0.7642 0,0 z m 46.037499,0 c 0.78455,-0.18809 -0.19931,0.7642 0,0 z m -68.733271,0.28215 c -1.711963,1.87754 -1.49213,1.27551 0,0 z m 11.318689,0.10077 c -0.542042,4.67021 -5.358762,0.14852 0,0 z m 63.055062,0.0139 c 0.34425,3.61727 -0.18141,3.44073 0,0 z m -73.515923,0.13229 c 0.786458,5.70299 -6.130251,3.75396 0,0 z m 7.550444,0 c 0.784553,-0.18808 -0.199323,0.76422 0,0 z m 60.060419,0 c 0.78454,-0.18808 -0.19933,0.76422 0,0 z m -39.576915,0.11524 c -2.785978,2.22524 -3.757285,2.71534 0,0 z m 49.019745,0.0677 c 1.01329,0.20394 0.46643,1.22932 0,0 z m -9.70742,0.34623 c 0.78456,-0.1881 -0.1993,0.7642 0,0 z m 10.50117,0.18293 c 1.01329,0.20395 0.46643,1.22934 0,0 z m -67.121999,0.0816 c 0.784553,-0.18808 -0.199323,0.76422 0,0 z m 56.369689,0.26459 c 0.26676,1.41004 -1.70497,2.16894 0,0 z m 11.54606,0.18293 c 1.01329,0.20395 0.46643,1.22934 0,0 z m -22.80584,0.34003 c 1.1853,-0.009 0.32069,1.2231 0,0 z m 23.54947,0.13849 c 1.64807,1.05687 0.47531,1.10292 0,0 z m -22.271,0.30696 c -0.2044,1.27164 -1.30639,-0.0413 0,0 z m -50.359713,0.11111 c 1.553478,0.6683 1.530452,1.44907 0,0 z m 50.983973,0.23409 c 1.61226,0.88011 1.65312,3.4533 0.75879,0.77287 -0.43173,-0.25197 -2.53133,-0.67637 -0.75879,-0.77287 z m -48.892628,0.0155 c 1.416316,0.002 0.217635,0.74677 0,0 z m 15.868799,0.15038 c -3.128362,1.58861 -3.257185,1.45421 0,0 z m -24.607283,0.34727 c -1.322265,1.9783 -1.317281,1.59434 0,0 z m 65.934992,0.0248 c 0.62337,1.07582 -1.64903,1.60225 0,0 z m 14.67869,5.2e-4 c 1.97059,1.25231 5.96494,6.00216 2.05658,2.10216 -0.67454,-0.71102 -1.31959,-1.45332 -2.05658,-2.10216 z m -31.84715,0.62167 c 1.04657,0.28112 -4.67242,0.58351 -0.4591,0.0206 l 0.29542,-0.0133 z m 24.82277,0.0837 c 0.85079,0.42759 -0.46015,1.11559 0,0 z m -38.760937,0.0424 c 0.726517,0.44646 -0.726518,0.44645 0,0 z m -0.132809,0.046 c -0.188089,0.78455 0.764205,-0.19932 0,0 z m 15.113806,0.0512 c 2.67992,1.67515 -4.78825,5.66722 -0.13118,2.29166 0.77254,-0.85237 0.65556,-1.28737 0.13118,-2.29166 z m -15.38149,0.0269 c -1.992478,0.24491 -3.461146,0.20379 0,0 z m -0.0186,0.12609 c 1.107716,2.43234 -1.428002,5.30231 0.407622,1.41138 0.659372,-0.85393 -0.8899,-0.86597 -0.407622,-1.41138 z m 12.7217,0.0605 c 0.78454,-0.18808 -0.19933,0.76422 0,0 z m -50.603626,0.0584 c 4.178491,0.37855 -1.801354,-0.51126 0.238641,2.59801 4.31892,4.21685 -0.321667,9.33103 1.753864,14.19239 -2.3197,-4.45872 2.696895,-9.973 -1.6821,-13.36539 -0.103467,-1.14167 -0.206936,-2.28334 -0.310405,-3.42501 z m 35.071761,0.0517 -0.61803,0.47423 z m -0.04754,0.15452 c 0.726468,0.25959 -1.033844,0.9177 0,0 z m 15.050235,0 c 0.78456,-0.1881 -0.1993,0.7642 0,0 z m 18.58285,0 c -0.41697,2.14268 -5.68466,8.34906 -2.07247,3.17637 0.72305,-1.03764 1.35549,-2.13469 2.07247,-3.17637 z m -18.88412,0.0532 c -0.92864,2.29252 1.68872,5.07112 -0.68771,1.73294 l 0.0997,-0.79133 z m 2.0991,0.16743 c 3.13896,1.2539 -4.44537,3.76091 -0.79937,0.16943 z m 10.08052,0.03 c 0.50989,2.0686 0.34291,3.35867 0,0 z m 15.37374,0.0139 c 0.78455,-0.18809 -0.19931,0.7642 0,0 z m -53.5497,0.0207 c -2.681921,0.96554 -3.410581,1.11465 0,0 z m 10.664982,0.13178 c 0.620524,1.11873 -0.430656,0.98396 0,0 z m 2.979146,0.34209 c -0.931426,4.41651 -4.599775,-0.37963 0,0 z m 15.828482,0.0346 c 0.78456,-0.1881 -0.1993,0.7642 0,0 z m 24.34167,0 c 0.78455,-0.18809 -0.19931,0.7642 0,0 z m -43.391661,0.28163 c -0.940608,2.94125 4.917904,3.45666 -0.0077,2.09666 -0.293308,-0.70204 0.233913,-1.38645 0.0077,-2.09666 z m 6.612,0.24288 c 3.275401,3.8085 7.172801,7.0254 11.177651,9.98127 -3.36644,-2.4042 -7.16922,-5.28709 -9.977034,-8.65252 l -0.608677,-0.65681 z m 37.176541,0.13694 c 1.64807,1.05687 0.47531,1.10292 0,0 z m -57.963386,0.003 c -4.437192,1.31581 -9.859792,0.96658 -12.897435,5.13935 -2.091319,2.05925 -2.416979,6.49448 -2.116276,8.31851 -1.33016,-5.97856 3.752384,-12.16361 9.805811,-12.35489 1.743486,-0.33044 3.484733,-0.67747 5.2079,-1.10297 z m 32.827966,0.52658 c -1.05926,1.64922 -1.1007,0.47459 0,0 z m -15.131889,0.31523 c -0.278166,1.1554 -1.097383,0.26462 0,0 z m 0.302824,0.54725 -0.02807,0.31419 z m 0.144694,0.0651 0.01589,0.23743 z M 144.81132,166.36 c 2.80367,2.51175 3.3827,3.68926 0,0 z m -25.77466,0.008 c 2.55214,2.17451 1.68747,3.21438 0,0 z m -26.215964,0.30024 c 1.226251,0.61214 -1.173298,0.34749 0,0 z M 57.823349,168.356 c 0.78746,1.90818 0.191515,6.3867 -1.596556,2.26902 -0.281906,-1.23879 0.09033,-2.6133 1.596556,-2.26902 z m 25.283211,0.0574 c 1.544816,1.12006 1.431439,1.34217 0,0 z m -0.05426,0.0212 c -0.511773,1.11621 -1.079553,0.77284 0,0 z m -14.07356,0.43357 c -2.637789,0.1916 -2.966332,0.0311 4e-6,0 z m 0.186036,0.0191 c 3.376566,1.95908 -1.385041,5.20709 -1.744079,3.95478 2.517958,0.96244 3.97495,-2.73759 1.744079,-3.95478 z m -3.066997,0.14883 c 0.324871,1.01942 -1.023147,-0.33175 0,0 z m -0.498161,0.13952 c 0.367449,1.05911 -0.680556,0.78252 0,0 z m 16.103927,0.0202 -0.278139,0.41252 z m 38.882895,0.009 c 1.67947,1.85606 1.13018,3.30515 0,0 z m -37.026161,0.0858 c 2.019301,3.00684 -4.328275,6.63002 -2.255259,2.09581 0.856647,-0.5687 1.490019,-1.41585 2.255259,-2.09581 z m -1.191142,0.0274 c -2.993843,3.25444 -2.934806,1.75429 0,0 z m -13.360941,0.34934 c 0.99545,5.90922 -6.377306,-0.91939 0,0 z m -3.129008,0.46922 c 0.655308,3.48398 -0.698507,1.00795 0,0 z m 18.493445,0.37827 c 0.499525,0.62666 -0.851771,1.75512 0,0 z m -4.24987,0.20671 6.38e-4,0.25363 z m 49.045577,0.0124 c 1.38814,1.39494 2.19636,6.45903 1.02316,1.77559 -2.82467,-4.61439 -7.63838,5.86409 -8.29927,-0.46987 0.14817,5.56466 5.29586,-2.28419 7.27611,-1.30572 z m -2.70733,0.55242 c 0.94373,0.46352 -2.29065,1.48545 0,0 z m -15.22956,0.18242 c 3.45934,0.0871 -3.80699,0.06 0,0 z m -26.745129,0.0465 c -1.025364,2.68721 -1.362061,3.60208 0,0 z m -18.653125,0.004 c 0.784549,-0.1881 -0.199309,0.7642 0,0 z m 46.805924,0.0915 c 1.92897,2.24675 0.0513,1.32308 0,0 z m -2.63343,0.0718 c 0.17199,0.97917 -1.83228,0.98889 0,0 z m -30.155262,0.0568 c -0.265498,1.90499 0.07644,1.96736 0,0 z m 30.697342,0.57309 c 5.85358,1.06766 -3.72935,3.97047 0,0 z m 23.41408,0.44597 c 0.17151,2.30507 5.67212,4.31783 3.82768,4.60612 2.0368,-1.40559 -6.02823,-2.90561 -3.82768,-4.60612 z m -50.105982,0.3483 c 0.726465,0.2596 -1.033837,0.91772 0,0 z m 29.073152,0.26407 c 0.78472,-0.18775 -0.19999,0.76537 0,0 z m -32.750446,0.36483 c 0.747443,1.65395 3.507803,0.31483 0.47289,0.89446 l -0.257394,-0.32115 z m 53.394666,0.13023 c -1.47485,1.90283 -2.13316,3.3611 -0.57102,0.39997 z m 14.54537,0.004 c -1.18182,0.32745 -0.0726,2.28819 0,0 z m -65.616664,0.031 c 0.784549,-0.1881 -0.199309,0.7642 0,0 z m 50.006244,0 c 0.7848,-0.18836 -0.19951,0.76348 0,0 z m -19.82515,0.006 c 1.0617,-0.1987 0.10282,1.40428 0,0 z m 35.96473,0.17002 c -1.35502,1.63987 -0.20316,1.53041 0,0 z m -35.85104,0.22014 c -1.05898,1.64965 -1.10099,0.47506 0,0 z m -3.57807,0.34365 c 2.37595,1.07743 -2.1168,0.038 0,0 z m 3.6561,0.0584 c -2.07484,2.09367 4.21403,6.50667 5.69394,4.34874 4.33566,-2.49035 -2.71361,3.92782 -3.561,-0.22285 -0.86306,-1.21893 -5.26241,-2.89526 -2.13294,-4.12589 z m 18.13016,0.25993 c 1.83529,3.22686 -4.65226,7.60006 -7.35718,9.86617 -3.91322,4.94575 -3.81974,-4.17809 -2.9096,-4.70901 -1.27505,3.27289 -0.0738,8.34773 3.59982,3.9889 2.79045,-2.2758 7.10301,-5.02729 6.66696,-9.14606 z m 7.50652,0.447 c 1.01402,0.20443 0.46581,1.22993 0,0 z m -0.447,0.0817 c 0.78454,-0.18808 -0.19933,0.76422 0,0 z m -28.19621,0.004 c 1.72274,1.66684 -0.24081,-0.0952 0,0 z m -16.080151,0.0801 c 1.654633,0.029 2.649566,0.2482 0,0 z m -0.441317,0.047 -0.472558,0.15576 z m 2.763139,0.17312 c 1.14475,2.04805 0.464759,2.67258 0,0 z m -3.251481,0.0723 c -1.06929,1.1766 -0.246755,0.8062 0,0 z m 17.6878,0.0703 c 1.60847,1.23641 8.45185,8.15698 3.81281,3.62066 -0.87911,-1.62005 -2.89807,-2.30372 -3.81281,-3.62066 z m -15.079691,0.31161 c 1.077714,3.7449 -4.755936,0.8595 -0.627987,0.21432 z m -3.501595,0.37517 c 0.35883,2.47711 0.281129,2.59361 0,0 z m 46.281926,0.10749 c 1.01333,0.20416 0.46652,1.22925 0,0 z m -6.54482,0.66456 c -0.57689,0.98921 -1.88728,2.74316 -0.52688,0.74833 z m 6.3624,0.12299 c 0.85151,0.42678 -0.4604,1.11531 0,0 z m -42.158661,0.26613 c 1.552935,1.82129 -5.290601,1.6134 -0.109845,0.92781 0.490997,4.7e-4 0.443906,-0.74619 0.109845,-0.92781 z m -3.349666,0.0868 c 0.784549,-0.1881 -0.199309,0.7642 0,0 z m 45.203437,0.34313 0.14846,0.3861 z m -75.541637,0.23823 c 2.050618,1.48596 -0.506792,6.49265 0.777614,2.0065 0.03768,-0.7239 0.13768,-1.68454 -0.777614,-2.0065 z m 75.366967,0.22014 c 0.37718,1.59153 -0.4843,0.87245 0,0 z m -45.243741,0.38757 0.221832,0.3851 z m 27.599341,0.0848 c 2.11574,4.14675 -6.75181,4.90705 -1.58745,1.38442 l 0.79372,-0.69221 z m 17.22944,0.27286 c -0.0116,2.01158 0.18876,1.38216 0,0 z m -44.400384,0.0408 0.807402,0.007 z m -30.879252,0.006 c 1.854359,3.79776 -4.819756,3.74541 -1.562486,0.85033 l 0.5867,-0.38827 z m 68.242856,0.19327 c -1.8225,2.21449 -2.40157,2.57437 0,0 z m -67.667697,0.19689 c 0.489001,1.77509 -0.251643,3.00905 0,0 z m 11.020516,1.11001 c -0.657491,1.38117 -1.960766,1.59342 0,0 z m 63.259701,0.0822 c 0.48654,1.65768 -1.40321,0.84934 0,0 z m -62.974964,0.014 c 2.26369,-0.12771 0.563736,1.2247 0,0 z m 11.951725,0.0754 c 1.69485,1.58629 0.930129,3.78604 0.427952,0.32625 -2.200715,-0.43048 -6.42303,6.23668 -3.052543,1.67428 0.876524,-0.66467 1.749991,-1.33334 2.624591,-2.00053 z m -10.590568,0.16227 c 0.481605,0.98021 -0.808837,0.69101 0,0 z m -16.70699,0.0114 c 0.784549,-0.1881 -0.199309,0.7642 0,0 z m 77.675877,0.47542 c 1.02504,1.00028 -0.89173,1.15785 0,0 z m -5.59294,0.0119 c 1.45173,0.022 -0.91776,0.10112 0,0 z m 0.41289,0.0558 c 0.99935,0.60627 -0.17816,0.91071 0,0 z m -0.8139,0.005 c -2.13443,2.62801 -0.71854,0.32114 0,0 z m -54.67263,0.17002 c -0.479708,2.16751 -0.168795,0.65932 0,0 z m -3.593579,0.001 c 0.162539,1.86939 -0.80851,1.32906 0,0 z m -13.151135,0.0744 c 0.784549,-0.1881 -0.199309,0.7642 0,0 z m 57.148444,0.0615 -0.0126,0.82635 z m -42.075979,0.10697 c 1.779295,3.43152 -4.48014,2.42462 0,0 z m 11.915035,0.0357 c 2.152077,3.6021 -5.218274,5.06649 -2.066028,1.42916 0.627787,-0.562 1.360994,-0.97656 2.066028,-1.42916 z m 46.065914,0.092 c 1.13953,0.56756 0.0983,1.17942 0,0 z m -4.19664,0.0961 c -2.22959,2.00141 -7.38546,4.34013 -6.05081,7.01282 -1.35841,-3.85347 4.20201,-4.64309 6.05081,-7.01282 z m -68.592191,0.13694 c 0.784555,-0.18809 -0.199323,0.76422 0,0 z m 70.643741,5.2e-4 c 0.78456,-0.1881 -0.1993,0.7642 0,0 z m 6.52467,0.0243 -0.19679,0.64364 z m -5.16609,0.17001 c 1.67413,3.18942 -4.85382,3.56187 0,0 z m 1.55184,0.0662 0.0124,0.75879 z m -73.024994,0.004 c 0.784553,-0.18808 -0.199323,0.76422 0,0 z m 59.529694,0.15968 c 1.25864,1.50418 1.89356,3.56629 -0.5309,4.09433 3.0332,-1.10265 1.04941,-3.29455 0.5309,-4.09433 z m -59.034117,0.0408 c 3.899431,0.72158 -1.289744,-0.87321 0.297701,2.10228 0.393955,3.21139 -0.228702,-1.67576 -0.297701,-2.10228 z m 75.586597,0.002 -0.63839,0.99563 z m -60.924443,0.0786 c 0.706138,0.68147 -0.07933,1.75223 0,0 z m 31.975303,0.0465 c 1.67927,0.23497 1.2926,0.31047 0,0 z m -0.0517,0.0109 c -2.46541,0.7984 -2.4614,0.5327 0,0 z m 11.56777,0.10232 c 1.38378,-0.0441 0.42511,1.0143 0,0 z m -2.27014,0.0217 c 2.39098,1.99187 0.18623,-0.76859 0,0 z m -8.0052,0.17983 c 1.50279,3.40023 -5.24632,5.22271 -0.13344,2.87188 -1.40462,-0.86447 1.34047,-1.27113 0.13344,-2.87188 z m -0.48421,0.0636 c 0.85079,0.42757 -0.46016,1.1156 0,0 z m -36.247907,0.0775 c -0.713221,3.45408 5.545954,0.90261 0.965356,1.83989 -1.002366,0.14281 -1.460455,-1.08424 -0.965356,-1.83989 z m 64.558327,0.0109 c 0.78454,-0.18808 -0.19933,0.76422 0,0 z m -6.88537,0.0403 c 1.01015,0.53473 -0.75517,0.77374 0,0 z m -41.808293,0.0558 c -0.409058,2.05591 -0.152054,0.66666 0,0 z m 45.484043,0.03 c 0.0269,4.12537 -5.72163,1.53583 -4.41995,1.21516 0.44622,2.96661 4.0238,0.58345 4.41995,-1.21516 z m -14.15004,0.11111 c -2.09013,0.51969 -1.97344,0.32587 0,0 z m -36.055162,0.0274 c 0.726465,0.25959 -1.033831,0.9177 0,0 z m 53.061872,0.0232 c 0.54744,1.52043 -1.04962,0.27116 0,0 z m -61.120294,0.15451 c 1.24455,0.0695 -0.09949,0.99829 0,0 z m 30.088084,0.0413 c 0.94123,1.11951 -0.90235,0.30295 0,0 z m -44.814834,0.0455 c 0.784549,-0.1881 -0.199309,0.7642 0,0 z m 72.262254,0 c 0.72646,0.25966 -1.03394,0.91767 0,0 z m 3.00963,0.16536 c -0.91487,2.7044 -1.3169,2.18175 7.8e-4,-3e-5 z m -27.91147,0.0656 c -0.53727,3.92816 -4.12352,-0.0725 0,0 z m -2.91042,0.0269 c 0.44573,3.93307 -0.12951,2.51716 0,0 z m 24.60625,0.007 c 0.78454,-0.18808 -0.19933,0.76422 0,0 z m -42.333327,0.26459 c 0.784549,-0.1881 -0.199309,0.7642 0,0 z m 45.376037,0.13229 c -1.05926,1.64922 -1.1007,0.47459 0,0 z m -3.10989,0.1111 c 1.00541,1.74437 -0.68658,0.93387 0,0 z m -41.817596,0.19379 c -1.29444,1.919 -2.858688,1.88101 0,0 z m -4.727877,0.53123 0.256893,0.66822 z m 3.485576,0.3545 c 0.784553,-0.18808 -0.199323,0.76422 0,0 z m 48.545347,0.13953 c -0.5001,1.43469 -1.81427,1.28923 0,0 z m -73.162449,0.30127 c 0.639556,0.43323 -0.867418,0.88035 0,0 z m 59.459929,0.007 c 1.01451,0.20355 0.46519,1.2293 0,0 z m -37.497446,0.0816 c 1.28252,0.73467 -0.01808,0.77617 0.208514,-0.0353 z m 21.440026,0 c 0.78456,-0.1881 -0.1993,0.7642 0,0 z m 1.85209,0 c 0.78455,-0.18809 -0.19931,0.7642 0,0 z m -22.226031,0.0496 c 2.148541,-0.0202 0.291417,0.77768 0,0 z m -22.753133,0.185 0.16487,0.92433 z m 44.449994,0.03 c 0.78454,-0.18808 -0.19933,0.76422 0,0 z m 27.20403,0.42168 c -1.18035,1.34509 -2.37595,2.18745 0,0 z m -71.195137,0.0884 c 0.614878,0.71592 0.864926,2.59771 0.204949,0.74631 z m 58.025397,0.0191 c 2.22238,0.74651 -2.11459,3.88129 -0.473,0.92655 z m -1.37511,0.25218 c 0.46495,0.8989 -0.85813,0.91243 0,0 z m -21.206973,0.25838 -0.222502,0.0216 z m 23.629043,0.0186 c 0.78455,-0.18809 -0.19931,0.7642 0,0 z m -23.266274,0.0232 c 1.067824,0.46708 1.200643,1.69061 0,0 z m -0.822689,0.009 c 0.197568,0.80478 -1.375488,-0.0677 0,0 z m -30.323214,0.0941 c 2.995321,1.76454 -1.60369,5.48904 2.106384,7.36487 -3.582274,-2.17467 0.04533,-4.68972 -1.725365,-7.14505 -1.67185,-0.34846 -2.713967,0.53426 -0.381019,-0.21982 z m 29.047323,0.0832 c 2.53087,0.5459 -0.702151,0.45627 0,0 z m -28.641663,0.31987 c 0.409665,1.50664 -3.223866,-0.91292 0,0 z m 51.040287,0.007 c 1.02215,1.48589 -0.41258,0.71548 0,0 z m -53.390014,0.0227 c 0.283414,0.93554 -0.692146,1.21911 0,0 z m -2.116667,0.009 -0.03006,0.19852 z m 31.921049,0.009 c 1.47665,1.01284 -2.008332,2.49567 0,0 z m -31.656465,0.0212 0.01673,0.13976 z m 32.54375,0.19482 c 0.784549,-0.1881 -0.199309,0.7642 0,0 z m 1.917712,0.24236 c 1.230684,2.31287 -4.450496,1.11996 -0.679175,0.27187 z m 20.570315,0.007 c 0.14287,4.02237 4.36431,-1.18919 3.51296,2.13269 -0.0326,-2.00027 -4.51214,1.23078 -3.51296,-2.13269 z m -54.653506,0.0357 c -0.908583,1.5828 2.754475,1.03954 0.09168,1.33323 -0.369893,-0.11425 -0.851307,-1.28638 -0.09168,-1.33323 z m 68.148806,0.0987 -0.0128,0.13229 z m -66.145827,0.14521 c 3.811167,-0.4887 -0.163465,5.13832 0,0 z m 32.808333,0 c 0.784553,-0.18808 -0.199323,0.76422 0,0 z m 33.339564,0 c 0.75503,-0.004 -0.51258,0.37729 0,0 z m -32.827967,0.17157 -0.257736,1.03974 z m 32.436777,0.0289 c -1.74863,1.23084 0.007,1.31678 0,0 z m -67.451178,0.0258 -0.01667,0.33419 z m -0.157613,0.10232 -0.0098,0.16371 z m 57.383051,0.0682 c 0.10445,1.42226 1.16526,0.64434 0,0 z m -2.69647,0.0506 c 1.01452,0.20357 0.46517,1.2293 0,0 z m -20.285063,0.58343 c 0.769089,0.13575 0.0894,1.43491 0,0 z m -33.343184,0.0274 c 0.784549,-0.1881 -0.199309,0.7642 0,0 z m 30.189888,0.006 c 0.512237,1.4663 -1.081787,0.10165 0,0 z m 35.162189,0.0599 c -0.42856,0.81964 -1.63312,0.71722 0,0 z m -7.64346,0.003 -0.22558,0.63972 z m -57.708617,0.37156 c 1.226254,0.61214 -1.173302,0.34749 0,0 z m 32.014583,0.0884 c 0.784553,-0.18808 -0.199323,0.76422 0,0 z m 0.529167,0.26459 c 2.069505,-0.80034 -0.344504,0.95006 0,0 z m 31.742247,0.0403 c 1.08885,1.05556 -2.28535,0.40811 0,0 z m -33.802587,0.005 c 1.781956,0.22957 2.132297,0.83331 0,0 z m -29.954244,0.48369 c 0.784555,-0.18809 -0.199323,0.76422 0,0 z m 56.756741,0.2341 c 3.10884,0.71617 -3.19761,0.71279 0,0 z m -55.698407,0.0305 c 0.784549,-0.1881 -0.199309,0.7642 0,0 z m 61.645847,0.0481 c -1.31848,1.56294 -2.78612,1.89099 0,0 z m -7.35046,0.26044 c -1.4838,2.12377 -1.36085,1.13633 0,0 z m -54.824554,0.18966 c 1.386494,0.37548 -0.377534,1.05589 0,0 z m 54.270584,0.29559 c 0.72647,0.25965 -1.03392,0.91765 0,0 z m 3.10885,0.20619 c 0.0722,2.56847 -2.02226,3.13945 0.20137,0.70073 z m -0.75861,0.0232 c -0.0385,2.05167 -4.54674,4.38568 -1.95627,0.85014 0.42252,-0.64477 1.21525,-0.9681 1.95627,-0.85014 z m -40.63472,0.0341 c 4.709764,2.37461 -5.813718,5.81341 -0.215884,3.63507 4.24272,-6.29898 -5.613925,-1.72249 -2.955587,-0.90752 -0.781878,-2.59945 1.25561,-2.63458 3.171471,-2.72755 z m -14.992883,0.26561 c 2.451656,1.8387 -1.855872,-0.2085 0,0 z m 59.259943,0.0186 c -1.49111,1.64148 -1.47618,0.99861 0,0 z m -43.848997,0.15761 c 1.226254,0.61214 -1.173302,0.34749 0,0 z m 0.92139,0.0584 c 0.206433,0.0454 -0.208687,0.0446 0,0 z m -4.09639,0.03 c 0.784549,-0.1881 -0.199309,0.7642 0,0 z m 3.991487,0.26456 0.203167,0.0363 z m 39.96035,0 c 0.72646,0.25966 -1.03394,0.91767 0,0 z m -3.79099,0.0326 c 0.06,2.67596 -1.09027,4.9997 0.0102,0.88756 z m -11.38276,0.18138 -0.56502,0.49149 z m 0.12919,0.0134 c 1.3177,0.11138 0.77517,0.72077 0,0 z m 1.51618,0.0775 c 1.75861,1.06997 1.72196,2.75233 0.35269,0.2256 z m -41.832063,0.22428 c 1.040545,-0.41162 0.411668,1.4255 0,0 z m 11.937772,0 c 5.230559,-1.16192 -1.310059,4.75294 0,0 z m 44.909401,0.0202 -0.83408,0.56309 z m -42.263567,0.24443 c 0.784549,-0.1881 -0.199309,0.7642 0,0 z m 24.904937,0.0465 c 0.001,1.39035 -0.1683,1.38359 0,0 z m -38.164593,0.1602 c 0.921122,0.0843 -0.867403,0.0991 0,0 z m 0.28422,0.0734 c 1.237317,0.3596 0.738053,2.16873 0,0 z m 54.266963,0.17828 c 0.16799,0.6397 -1.05754,0.23377 0,0 z m -27.058288,0.0212 c 1.719563,-0.71602 4.626498,0.86291 2.358464,2.58527 3.997954,-4.8204 -5.912566,-1.14748 -2.358464,-2.58527 z m 12.061278,0.31419 c 4.00676,0.51841 -3.25986,2.7045 0,0 z m 14.16761,0.0207 c 0.35275,0.88393 -1.15433,0.58304 0,0 z m -51.576694,0.22479 0.06961,0.024 z m 51.042874,0.0264 c -0.39421,0.80679 -2.71675,0.27395 0,0 z m -51.323478,0.0155 c 0.45857,0.84696 -0.90014,0.16232 0,0 z m 0.552422,0.0181 c 0.893058,0.93395 0.192732,2.29817 0,0 z m 25.103894,0.22376 c 5.927792,-0.0507 -4.386174,3.98794 -0.942056,0.48697 z m -1.829346,0.0791 c -3.463747,2.12002 3.742167,3.90302 -0.953476,2.13153 -0.51205,-0.9452 0.247409,-1.62149 0.953476,-2.13153 z m 15.545298,0.11266 c 1.08707,1.21309 0.1535,-0.47082 0,0 z m -29.035431,0.0729 c 0.784551,-0.1881 -0.199308,0.7642 0,0 z m 25.399991,0.016 c 0.66934,1.75091 0.73922,1.31507 0,0 z m -34.230976,0.2899 0.371889,0.23602 z m -0.164848,0.19224 c 1.38618,0.37588 -0.377495,1.05559 0,0 z m 6.879167,0.031 c 0.784549,-0.1881 -0.199309,0.7642 0,0 z m 0.79375,0 c 0.784549,-0.1881 -0.199309,0.7642 0,0 z m 19.131648,0 c 0.106375,1.00592 -1.91885,1.344 0,0 z m 21.878759,0 c 0.78456,-0.1881 -0.1993,0.7642 0,0 z m -0.26458,0.047 c 0.006,1.22334 -2.5891,-0.20948 0,0 z m -10.16217,0.091 -0.68113,0.74543 z m -37.500548,0.16898 c 0.884344,0.5928 0.550918,1.95952 0,0 z m 36.285638,0.22221 c 0.78454,-0.18808 -0.19933,0.76422 0,0 z m -35.459848,0.24288 c 0.64647,0.0181 -0.43174,0.0529 0,0 z m 0.209806,0.0382 0.256771,0.66254 z m 32.868792,0.0186 c 2.84459,0.55349 2.51147,0.17467 0,0 z m 11.76724,0.008 c -0.54082,0.90711 -1.87326,0.96046 0,0 z m -44.278431,0.21239 c 0.813426,0.56706 1.075986,1.77831 0,0 z m 43.333271,0 0.0101,0.0118 z m -20.051488,0.009 c 0.726462,0.2596 -1.033837,0.91771 0,0 z m 19.824108,0.0341 c -0.59683,1.04924 -2.11791,0.3997 0,0 z m -23.559281,0.23047 c 0.784555,-0.18809 -0.199323,0.76422 0,0 z m 4.124296,0.13384 c -3.205019,1.28807 -3.166154,1.23455 0,0 z m -1.213879,0.13075 c 0.784549,-0.1881 -0.199309,0.7642 0,0 z m 19.284604,0.002 c 1.13902,0.79365 -0.41403,0.65825 0,0 z M 74.615069,198.596 c 3.486932,1.16065 1.132804,1.10025 0,0 z m 40.190311,0.0253 c -2.05419,0.74255 -1.73713,0.50688 0,0 z m -3.10886,0.62684 c 2.38281,0.2424 -3.22267,1.67846 0,0 z m -36.073761,0.0522 c 0.784551,-0.1881 -0.199308,0.7642 0,0 z m 16.086874,0.16691 c 4.262527,0.28319 -2.101009,-0.39554 -1.45849,2.02023 0.02851,-0.83679 0.521435,-1.9123 1.45849,-2.02023 z m 18.742007,0.0868 -0.16266,0.0129 z m -33.217093,0.0227 c 1.777994,-0.58473 0.92803,0.8205 -0.135722,0.28659 z m 32.829003,0.0212 c -2.04253,1.40294 -1.66074,0.89099 0,0 z m -15.717386,0.14211 c 2.296478,1.36691 3.610995,5.5583 1.39063,1.10814 -0.246248,-0.65768 -1.10777,-0.46919 -1.39063,-1.10814 z m -16.061552,0.11368 c 1.561032,0.76883 3.079024,0.10437 0,0 z m 2.423625,0.23617 c 1.336326,1.25944 2.05102,0.34094 -0.240647,0.54225 z m 13.097908,0.24184 c 4.87327,4.13209 -6.74092,-0.15352 0,0 z m 14.198095,0.0315 c -1.95986,1.31235 -6.50369,1.26811 -7.11281,1.58056 2.63227,-0.60953 4.67727,-0.67861 7.11281,-1.58056 z m 0.42685,0.25994 c 0.78455,-0.18809 -0.19931,0.7642 0,0 z m -25.334368,0.0444 c 1.205961,0.33178 9.506261,1.73058 2.884578,0.95338 0.667827,-1.77033 -6.331806,0.35781 -2.884578,-0.95338 z m 1.819527,0.42995 c 0.909187,0.6722 -1.744897,0.16285 0,0 z m 5.523694,0.54026 c -0.57803,1.53283 -2.096581,0.34341 0,0 z m 0.793233,0.0434 c 0.784549,-0.1881 -0.199309,0.7642 0,0 z m 11.112494,0.26458 c 0.78454,-0.18808 -0.19933,0.76422 0,0 z m -2.479946,0.25322 c -1.34109,1.01491 -2.427591,0.39115 0,0 z m -8.632548,0.27595 c 0.784549,-0.1881 -0.199309,0.7642 0,0 z m 2.116667,0 c 0.784549,-0.1881 -0.199309,0.7642 0,0 z" /></g></svg>
