<?xml version="1.0" encoding="UTF-8" standalone="no"?>
<svg
   ffdec:objectType="shape"
   height="41.05px"
   width="20.2px"
   version="1.1"
   id="svg3"
   sodipodi:docname="198.svg"
   inkscape:version="1.3.2 (091e20e, 2023-11-25)"
   xmlns:inkscape="http://www.inkscape.org/namespaces/inkscape"
   xmlns:sodipodi="http://sodipodi.sourceforge.net/DTD/sodipodi-0.dtd"
   xmlns="http://www.w3.org/2000/svg"
   xmlns:svg="http://www.w3.org/2000/svg"
   xmlns:ffdec="https://www.free-decompiler.com/flash">
  <g transform="matrix(1.0, 0.0, 0.0, 1.0, 8.1, 24.25)">
    <path d="M-0.85 -21.8 L-0.8 -22.0 -0.8 -22.2 -0.9 -22.35 -0.95 -22.4 -0.75 -22.65 -0.7 -22.9 -0.45 -22.95 4.4 -22.95 4.6 -22.9 Q4.75 -22.8 5.0 -22.65 L4.9 -22.45 4.9 -22.35 4.95 -22.15 4.8 -22.0 4.7 -21.75 4.95 -21.55 4.95 -21.45 5.05 -21.3 4.9 -21.3 4.5 -21.3 4.05 -21.3 3.45 -21.3 2.9 -21.3 2.5 -21.3 2.1 -21.3 1.85 -21.3 1.55 -21.3 1.1 -21.3 0.5 -21.35 0.0 -21.3 -0.55 -21.3 -0.9 -21.3 -1.05 -21.35 -1.0 -21.4 -0.9 -21.55 -0.85 -21.8 M-7.1 11.55 L-7.05 10.7 -7.0 10.2 -6.95 10.1 -6.9 10.0 -6.8 9.8 -6.6 9.75 -6.25 9.4 -5.85 9.0 -5.55 8.75 -5.25 8.4 -5.0 8.05 -4.9 7.8 -4.95 7.5 -4.95 7.3 -5.0 6.75 -5.15 5.55 -5.25 3.8 -5.15 1.45 -4.95 -1.7 -4.55 -3.95 -4.5 -4.35 -3.85 -6.8 -3.25 -9.1 -2.4 -11.2 -1.75 -12.9 -1.15 -14.15 -0.7 -15.05 -0.5 -15.25 -0.5 -17.9 -0.75 -18.1 -1.0 -18.35 -1.05 -18.6 -1.05 -19.25 -1.0 -19.65 -0.8 -19.85 -0.5 -20.0 -0.45 -20.7 4.55 -20.75 4.45 -20.0 Q4.6 -20.0 4.75 -19.8 L4.95 -19.65 5.05 -19.3 5.05 -18.6 4.95 -18.35 4.75 -18.05 4.5 -17.9 4.5 -15.25 4.6 -15.05 5.1 -14.15 5.7 -12.85 6.4 -11.3 6.5 -11.15 7.15 -9.15 7.9 -6.75 8.5 -4.35 8.85 -1.7 9.1 1.4 9.2 3.85 9.15 5.55 9.05 6.7 8.95 7.3 8.8 7.55 8.85 7.8 8.9 8.05 9.15 8.4 9.45 8.75 9.9 9.05 10.15 9.4 10.5 9.7 10.8 9.85 10.9 10.0 10.9 10.1 10.95 10.25 11.05 10.75 11.05 11.5 11.1 12.4 11.05 13.15 11.05 13.9 11.1 14.6 11.0 15.0 11.1 15.2 11.05 15.4 11.05 15.5 10.85 15.65 10.6 15.75 10.3 15.75 9.6 15.8 8.8 15.75 7.75 15.75 6.7 15.75 5.5 15.75 4.45 15.75 3.4 15.75 2.7 15.7 2.15 15.75 2.0 15.75 1.75 15.75 1.25 15.75 0.5 15.75 -0.45 15.75 -1.55 15.75 -2.7 15.7 -3.8 15.8 -4.8 15.75 -5.7 15.75 -6.35 15.75 -6.65 15.75 -6.85 15.65 -7.0 15.5 -7.05 15.35 -7.1 15.25 -7.1 15.0 -7.05 14.65 -7.05 13.9 -7.1 13.15 -7.1 12.35 -7.1 11.55 M2.15 7.15 L3.75 6.85 Q4.45 6.6 5.2 6.15 L6.4 5.05 7.3 3.4 7.95 1.55 8.05 -0.5 7.9 -2.55 7.25 -4.4 6.4 -5.95 5.15 -7.1 3.75 -7.95 2.2 -8.25 0.5 -7.95 Q-0.2 -7.7 -0.95 -7.1 L-2.1 -6.0 -3.05 -4.4 -3.2 -3.9 -3.7 -2.55 -3.85 -0.45 -3.65 1.55 -3.0 3.4 -2.1 5.0 -0.9 6.2 0.55 6.9 2.15 7.15 M2.05 5.1 L0.9 4.9 -0.1 4.35 -1.05 3.55 -1.7 2.4 -2.1 1.05 -2.3 -0.5 -2.15 -2.0 -1.75 -2.9 -1.7 -3.25 -1.0 -4.45 -0.15 -5.3 0.9 -5.9 2.1 -6.15 3.25 -5.9 4.25 -5.35 5.2 -4.4 5.8 -3.3 6.25 -1.95 6.45 -0.45 6.3 1.0 5.8 2.35 5.15 3.55 4.25 4.3 3.25 4.9 2.05 5.1"/>
  </g>
</svg>
