<svg xmlns="http://www.w3.org/2000/svg" xml:space="preserve" width="255.177" height="577.9" viewBox="0 0 67.516 152.903"><path d="M100.612 224.809c1.342-5.695-2.598-8.544-7.981-7.472-6.445-.525-13.378 1.124-19.48-1.372-3.322-4.763-1.274-11.315-1.723-16.84-.788-6.148 7.489-9.619 4.975-15.823-2.436-14.385-1.185-29.278 2.856-43.248 4.108-13.414 8.939-26.613 12.667-40.138.488-5.693 1.873-12.949-.405-17.875-6.116-2.59 3.439-10.553 4.041-8.837-2.646 2.515 3.168-1.612 4.626-.283 5.095 1.376 11.075-2.363 15.27.827 4.152 1.832 4.749 7.497.958 9.44-.093 8.387-.64 17.086 2.768 24.984 4.492 14.714 10.133 29.124 13.424 44.175 2.33 11.462 1.193 23.276-.722 34.705 4.66 2.716 6.06 8.628 6.44 13.766-.432 5.056 2.58 13.23-3.268 15.808-7.85 1.39-15.935-.076-23.802 1.162-3.518 1.605.106 10.038-6.497 6.8-2.003-1.191-2.28.96-4.147.221m3.427-7.378c.944-8.207-.247-17.18.758-25.598-.079-3.43-3.784 2.31-2.662 4.47-.097 5.411-.683 11.023.351 16.313-.196 1.659-.67 5.906 1.553 4.815m4.935-27.569c.13-3.42-.201-7.845 2.617-11.192.323-2.288 8.154-8.12 1.875-5.768-4.952 2.682-11.203 2.342-16.56.91-2.968-.792-5.224-1.442-6.731-1.923 2.743 1.418 3.135 3.84 5.401 5.57 3.722 2.512 6.75 5.446 5.247 10.566-.475 4.025 2.418-4.38 3.638.354 1.91-.134 1.933-3.682 2.76.293.164.494 1.046 1.949 1.753 1.19m-1.085-5.107c1.754-2.85.89 1.753 0 0m-1.024-2.339c-.328-1.977 2.337 1.59 0 0m-11.522-5.523c-2.46-2 2.675.625 0 0m5.274 10.737c-.466-.502.167 1.526 0 0m5.619-13.722c3.102.03 5.296-2.689.794-.68-1.817 1.291-9.586-.889-8.213.132 2.335 1.044 4.953.848 7.419.548m-8.975-1.31c-2.99-2.085-1.31-2.025-5.024-3.278-3.394-1.597-6.905-6.753-8.019-8.423 2.199 5.264 6.777 9.866 12.178 11.919-.192.417 2.485.455.865-.218m21.976-5.644c1.947-1.79 5.285-7.977 1.646-2.684-.703.801-5.162 5.986-1.646 2.684m-25.351-1.391c2.99-1.822 5.33-5.296 7.143-.597 3.325 1.391 5.025-5.726 7.187-1.21 2.692-1.77 5.55 1.073 7.469-1.883 1.133 3.796 5.024-1.521 1.603-1.587 1.618-2.67 1.698-6.053-2.201-3.611-2.107.844-6.611 8.813-6.15 2.84 2.99-3.718 4.213-11.194 10.34-9.817 4.424 1.728 8.505-3.46 5.945-5.384-3.455 4-10.822.637-15.649.31-3.4-.52-9.73-2.893-11.82-.886 2.048 1.968 1.066 5.886 5.181 3.95 4.299.606 8.49 3.25 12.046.238-4.051 2.412-6.093 7.364-8.476 11.468-2.652 4.565-7.432 1.31-2.04-1.099 5.6-4.348-3.719-1.18-4.85 1.637-2.742 2.215-10.348 6.288-8.118-.823.155-3.137 6.238-9.065 7.014-7.32-4.7 1.01-7.519 12.663-1.27 5.608 3.72-2.206 5.204-10.532-1.222-6.922-5.055 2.453-9.654 8.526-7.685 14.295 1.09 2.114 3.823 1.747 5.553.793m19.515-4.694c.832-1.985 5.902-6.27 2.468-1.73-.384.439-1.69 2.96-2.468 1.73m-17.326-4.61c3.776-5.834.788.789 0 0m14.416-.925c.936-3.344 3.652-5.486.932-1-.134.12-.92 1.958-.932 1m-13.495 10.12c-.974-1.065-1.015 1.035 0 0m-.354-6.416c-.459-.086.278 1.768 0 0m-9.275-.92c-.942-.238.412 1.544 0 0m-4.129-2.531c2.326-5.458 9.108-8.005 14.536-8.446.303-6.513-10.043-2.794-12.546.503-1.46 1.9-3.884 4.956-2.635.472.437-4.813 2.65-10.326 3.407-13.818.816-4.216-3.202 5.822-3.06 8.16-.655 4.469-1.914 11.508-.063 14.702l.256-.655zm8.202-4.103c-1.505-5.202-1.473.626 0 0m-1.72-1.435c-.504-1.01-1.038 1.512 0 0m-8.423-1.065c-.46-.086.277 1.768 0 0m5.301-4.113c2.223-3.318 3.435-8.727 6.457-10.667-2.436 1.872-4.254 11.388.48 6.359 1.037-2.444 8.657-9.013 3.108-8.699-1.275 1.86-1.294 3.603-1.621.358-5.674-.381-8.46 7.597-9.614 12.318.145.476.821.68 1.19.331m32.566-.807c.68-3.035-3.652-.923 0 0m-2.324-1.644c-2.038-.576-1.052-6.189-2.155-1.883-.654.765 1.986 3.924 2.155 1.883m-9.171-.183c-1.408-2.704.93-6.38 2.012-4.885-.717-2.193 5.64-7.04-.044-3.882-2.196 2.045-9.883 8.068-4.143 2.509 3.522-6.056-5.441.836-6.485 2.923.648-1.14 3.839-6.41-.884-3.352-3.456 3.091-2.68 8.306 1.993 4.481.825 3.914 5.636-.748 5.61.84-.162.87 1.197 2.479 1.94 1.366m4.091-.648c2.381-.354-.405-5.302.387-.95-3.014 2.404-.919-4.968-2.93-1.052-.218 1.205 1.376 3.062 2.543 2.002m-25.374-2.13c1.101-1.808 6.494-10.51 1.508-5.1-2.053.77-5.173 11.164-1.508 5.1m38.106-.058c-1.372-4.822.705 5.357 0 0m-36.797-8.086c-.498-1.582-1.146 2.28 0 0m1.465-.976c2.396-3.543-3.964 2.784 0 0m30.072.205c-.856-1.647-6.472-5.308-3.582-4.803-.367-2.632-5.015-4.311-3.763-4.707-5.33-2.595-12.876-2.444-16.993 2.244.197 2.28-7.446 7.155-2.368 3.813 6.26-5.25 15.816-5.242 22.182-.184 1.023.19 5.59 5.59 4.524 3.637m-13.769-8.16c1.114-.984 1.608.847 0 0m-5.73 6.679c-1.346-1.23-.651 1.591 0 0m8.905-.915c-.583-2.482-.975 2.638 0 0m-8.55-.05c-.467-.502.166 1.527 0 0m8.658-10.14c.3-5.744-.504-11.798-.518-17.682 1.172-4.018-1.064-8.716-.168-11.606.055-4.538-3.263-2.313-6.147-3.062-2.223 5.6-.006 11.717-1.295 17.537-.642 4.933-1.322 10.345.383 14.917 2.115.543 6.41 1.267 7.745-.104m-.88-21.45c.244-.99.112 1.15 0 0m-.022-1.58c.602-.983.476 1.248 0 0m-5.556-6.997c.676-.949.676.95 0 0m8.445-3.793c4.56-2.296-8.11-1.008-10.43-.97 3.707.005 6.75 1.728 10.43.97m-4.526-.62c1.456-.142-.407.44 0 0m-12.035-.259c-.328-2.104-1.639.672 0 0m17.297-.843c5.57-1.934-4.85-4.206-7.479-3.346-5.24-.893-6.563 4.452-.393 3.57 2.625.133 5.258.033 7.872-.224m1.932-2.142c-.544-1.387-.733.919 0 0m4.758-.611c-.39-1.333-.501 1.72 0 0m-5.817-1.918c-3.218-1.332 1.433 1.464 0 0m-2.728-.303c-2.124-1.142-12.194-.052-4.889.196 1.372-.144 4.158.566 4.889-.196m1.336-2.014c.022-2.253-7.848-1.374-2.54.664 1.856.165 1.845 2.43 2.54-.664m-1.11.35c.067-1.412.909.848 0 0m6.206 1.592c-.592-3.284-1.415 1.205 0 0m-11.051-2.073c-3.418-5.21-.086 2.922 0 0m.911-.504c.83-2.564-1.641.584 0 0" style="display:inline;fill:#000" transform="translate(-71.209 -72.42)"/></svg>