<?xml version="1.0" encoding="UTF-8" standalone="no"?>
<!-- Created with Inkscape (http://www.inkscape.org/) -->

<svg
   width="67.515533mm"
   height="152.90279mm"
   viewBox="0 0 67.515533 152.90279"
   version="1.1"
   id="svg1"
   xml:space="preserve"
   xmlns="http://www.w3.org/2000/svg"
   xmlns:svg="http://www.w3.org/2000/svg"><defs
     id="defs1" /><g
     id="layer1"
     transform="translate(-71.20878,-72.419393)"><path
       style="display:inline;fill:#000000"
       d="m 100.61235,224.80902 c 1.34116,-5.69552 -2.598117,-8.54443 -7.98179,-7.4724 -6.444599,-0.52483 -13.377338,1.12427 -19.479192,-1.37185 -3.322725,-4.76247 -1.274388,-11.31505 -1.723017,-16.83917 -0.788565,-6.14839 7.488411,-9.61935 4.974689,-15.82388 -2.436361,-14.38437 -1.184818,-29.27735 2.855941,-43.24756 4.108392,-13.4138 8.939056,-26.61356 12.667073,-40.137768 0.488264,-5.693473 1.872715,-12.949167 -0.404663,-17.875374 -6.116147,-2.589528 3.438211,-10.553008 4.040983,-8.837438 -2.646396,2.515103 3.167815,-1.611273 4.625556,-0.282091 5.09522,1.375428 11.07526,-2.363928 15.27057,0.826786 4.15192,1.832174 4.74819,7.496264 0.9576,9.439731 -0.0935,8.387421 -0.63917,17.085654 2.76804,24.983854 4.49234,14.7145 10.13259,29.12374 13.42427,44.1753 2.33028,11.46167 1.1928,23.2755 -0.72245,34.70446 4.65995,2.71598 6.05955,8.62805 6.4407,13.76633 -0.43276,5.05592 2.57972,13.22994 -3.26885,15.80816 -7.84994,1.39043 -15.9345,-0.0759 -23.80151,1.16161 -3.51864,1.60489 0.1055,10.03861 -6.4976,6.80086 -2.00315,-1.19161 -2.28001,0.96011 -4.14635,0.22044 z m 3.42682,-7.37798 c 0.94431,-8.20732 -0.247,-17.18004 0.7576,-25.59852 -0.0785,-3.42951 -3.78382,2.3107 -2.6622,4.47095 -0.0968,5.4108 -0.68248,11.02245 0.35191,16.31267 -0.19682,1.65862 -0.67064,5.90615 1.55269,4.8149 z m 4.93491,-27.56907 c 0.12904,-3.42011 -0.20133,-7.84472 2.61707,-11.19219 0.32266,-2.28814 8.15343,-8.11918 1.87458,-5.76729 -4.95172,2.68126 -11.20315,2.3412 -16.559728,0.90968 -2.967774,-0.79179 -5.22371,-1.44186 -6.730974,-1.92288 2.742902,1.4181 3.134756,3.8399 5.401287,5.56944 3.721576,2.51254 6.750505,5.44602 5.246325,10.56605 -0.47459,4.02536 2.41812,-4.37945 3.63806,0.35401 1.90999,-0.13336 1.93317,-3.68174 2.76015,0.29354 0.16411,0.49378 1.04592,1.9482 1.75323,1.18964 z m -1.08513,-5.10704 c 1.75451,-2.85032 0.88968,1.75283 0,0 z m -1.02378,-2.33891 c -0.32804,-1.97748 2.33694,1.59053 0,0 z m -11.522438,-5.52265 c -2.459438,-2.00102 2.675188,0.62474 0,0 z m 5.273968,10.73618 c -0.46616,-0.50186 0.16685,1.52675 0,0 z m 5.61929,-13.72179 c 3.10233,0.0309 5.29603,-2.68847 0.79403,-0.67887 -1.81657,1.29017 -9.586032,-0.88962 -8.212528,0.13125 2.334048,1.04385 4.952118,0.84818 7.418498,0.54762 z m -8.975029,-1.30985 c -2.990326,-2.08523 -1.31085,-2.02533 -5.024023,-3.27812 -3.394415,-1.59691 -6.905387,-6.7531 -8.018817,-8.42253 2.198866,5.26362 6.77691,9.86581 12.178253,11.91848 -0.192299,0.41708 2.484823,0.45522 0.864587,-0.21783 z m 21.976329,-5.64406 c 1.94674,-1.79079 5.28466,-7.97643 1.64609,-2.68367 -0.7036,0.8008 -5.16255,5.98616 -1.64609,2.68367 z m -25.351401,-1.39088 c 2.990793,-1.82223 5.329395,-5.29554 7.143071,-0.59697 3.32483,1.39102 5.02473,-5.72595 7.18678,-1.21081 2.69217,-1.76951 5.55029,1.07341 7.46926,-1.88218 1.13284,3.79612 5.02377,-1.52108 1.60294,-1.58717 1.61776,-2.67074 1.69834,-6.05245 -2.20133,-3.6111 -2.10709,0.8444 -6.61097,8.81294 -6.14893,2.84047 2.98861,-3.71804 4.21202,-11.19408 10.33897,-9.81675 4.42407,1.72791 8.5058,-3.46044 5.9451,-5.3848 -3.45513,4.00029 -10.82198,0.63743 -15.64836,0.31129 -3.40002,-0.52094 -9.729713,-2.89357 -11.820732,-0.88668 2.048352,1.96813 1.066483,5.88603 5.181752,3.94908 4.29848,0.60617 8.4897,3.25138 12.04521,0.23816 -4.05074,2.4128 -6.09245,7.36424 -8.47536,11.46862 -2.65249,4.56491 -7.432495,1.30962 -2.0394,-1.09901 5.59961,-4.3484 -3.71982,-1.17972 -4.850795,1.63716 -2.741853,2.21502 -10.348015,6.28762 -8.11761,-0.82294 0.155015,-3.13777 6.237097,-9.06493 7.013137,-7.31943 -4.699324,1.00893 -7.518375,12.66213 -1.268821,5.60724 3.718619,-2.2058 5.202899,-10.53191 -1.222872,-6.92217 -5.054826,2.45254 -9.654368,8.52615 -7.685001,14.29456 1.090406,2.11469 3.823299,1.74767 5.552991,0.79343 z m 19.514651,-4.69393 c 0.83213,-1.98474 5.90245,-6.26985 2.46848,-1.72985 -0.38438,0.43856 -1.68998,2.9592 -2.46848,1.72985 z m -17.32562,-4.60915 c 3.775649,-5.83535 0.787883,0.78814 0,0 z m 14.41577,-0.92605 c 0.93599,-3.34394 3.65248,-5.48627 0.93214,-0.99958 -0.13392,0.12042 -0.92028,1.95738 -0.93214,0.99958 z m -13.494312,10.12032 c -0.97423,-1.06479 -1.015067,1.03503 0,0 z m -0.353938,-6.41615 c -0.458988,-0.0856 0.277774,1.76796 0,0 z m -9.275793,-0.92053 c -0.941311,-0.23707 0.412064,1.54451 0,0 z m -4.128602,-2.53085 c 2.326191,-5.45777 9.107522,-8.00424 14.535926,-8.44523 0.303361,-6.51353 -10.042613,-2.79402 -12.545995,0.50233 -1.460553,1.90009 -3.884061,4.95613 -2.634883,0.47271 0.437065,-4.81332 2.650084,-10.32692 3.40721,-13.81805 0.815284,-4.21611 -3.202155,5.82122 -3.060905,8.15899 -0.654663,4.46914 -1.913706,11.50911 -0.06288,14.70219 l 0.25637,-0.6547 z m 8.202083,-4.10264 c -1.50514,-5.20213 -1.473325,0.62635 0,0 z m -1.719792,-1.43468 c -0.503955,-1.01011 -1.038082,1.51195 0,0 z m -8.423729,-1.06547 c -0.458983,-0.0856 0.277768,1.76795 0,0 z m 5.301533,-4.11246 c 2.222625,-3.31797 3.434513,-8.72688 6.457355,-10.66751 -2.436565,1.87167 -4.254053,11.38836 0.479518,6.3587 1.036791,-2.44393 8.656487,-9.01223 3.107868,-8.6982 -1.274771,1.85971 -1.293936,3.60261 -1.621239,0.35794 -5.673337,-0.38164 -8.458902,7.59697 -9.61335,12.31747 0.144744,0.47659 0.820718,0.68037 1.189848,0.3316 z m 32.56605,-0.80753 c 0.67931,-3.0351 -3.65263,-0.92306 0,0 z m -2.32407,-1.64406 c -2.03856,-0.5757 -1.05239,-6.18849 -2.15502,-1.88312 -0.65368,0.76506 1.98575,3.92452 2.15502,1.88312 z m -9.17118,-0.18282 c -1.40843,-2.70438 0.9306,-6.38004 2.01192,-4.88526 -0.71643,-2.19242 5.63949,-7.03997 -0.0439,-3.88197 -2.19626,2.04561 -9.882899,8.06848 -4.14299,2.50929 3.52183,-6.05588 -5.44109,0.83603 -6.484617,2.9231 0.647413,-1.14023 3.838467,-6.41089 -0.884553,-3.35233 -3.455593,3.09157 -2.680393,8.30609 1.99288,4.48116 0.82552,3.91372 5.63606,-0.74834 5.60993,0.8394 -0.16147,0.87145 1.19766,2.47935 1.9413,1.36661 z m 4.09118,-0.64823 c 2.3811,-0.35365 -0.4056,-5.30173 0.38696,-0.94994 -3.01438,2.40394 -0.91878,-4.96762 -2.92948,-1.0514 -0.21849,1.20424 1.37541,3.06159 2.54252,2.00134 z m -25.373698,-2.13016 c 1.100601,-1.80765 6.49352,-10.51021 1.507727,-5.09948 -2.053038,0.77028 -5.173618,11.16416 -1.507727,5.09948 z m 38.105378,-0.0574 c -1.37143,-4.82213 0.70503,5.35634 0,0 z m -36.796573,-8.08631 c -0.497804,-1.58233 -1.145783,2.28053 0,0 z m 1.465163,-0.97619 c 2.395698,-3.54263 -3.964194,2.78452 0,0 z m 30.07118,0.20483 c -0.85509,-1.64687 -6.47152,-5.30777 -3.58154,-4.80241 -0.36726,-2.63165 -5.01506,-4.31153 -3.76269,-4.70735 -5.32968,-2.59521 -12.876712,-2.44404 -16.9934,2.24376 0.196876,2.27965 -7.445983,7.15555 -2.36752,3.81397 6.260132,-5.25024 15.81542,-5.24284 22.18121,-0.18473 1.02309,0.19084 5.59013,5.59003 4.52394,3.63676 z m -13.76853,-8.1601 c 1.11349,-0.98361 1.60817,0.84739 0,0 z m -5.72944,6.67939 c -1.346211,-1.22978 -0.652054,1.5914 0,0 z m 8.90444,-0.91486 c -0.58289,-2.48201 -0.97514,2.63764 0,0 z m -8.55051,-0.0496 c -0.466156,-0.50188 0.16684,1.52673 0,0 z m 8.6583,-10.14029 c 0.29952,-5.74406 -0.50386,-11.79786 -0.51823,-17.68184 1.17284,-4.018158 -1.06384,-8.716701 -0.16769,-11.60571 0.0553,-4.538274 -3.26313,-2.313815 -6.14674,-3.062027 -2.223288,5.600305 -0.006,11.717012 -1.29523,17.536347 -0.641816,4.9327 -1.32227,10.34514 0.38345,14.91708 2.1147,0.54307 6.41039,1.26696 7.74444,-0.10385 z m -0.88065,-21.44986 c 0.24447,-0.990271 0.11302,1.149646 0,0 z m -0.0209,-1.581066 c 0.60196,-0.982182 0.47563,1.249043 0,0 z m -5.55625,-6.995843 c 0.676,-0.949192 0.67601,0.94919 0,0 z m 8.44496,-3.793693 c 4.56042,-2.295937 -8.11049,-1.007984 -10.42933,-0.968808 3.70603,0.0041 6.74861,1.727499 10.42933,0.968808 z m -4.52582,-0.620382 c 1.45584,-0.14143 -0.40734,0.439901 0,0 z M 94.17186,83.25923 c -0.328244,-2.103777 -1.63866,0.671626 0,0 z m 17.29745,-0.8435 c 5.56952,-1.933722 -4.85117,-4.205717 -7.47925,-3.345293 -5.239913,-0.893845 -6.563536,4.451191 -0.39279,3.56995 2.62457,0.132871 5.25798,0.03278 7.87204,-0.224657 z m 1.93123,-2.141791 c -0.54314,-1.38703 -0.7321,0.918943 0,0 z m 4.75845,-0.610928 c -0.39012,-1.333271 -0.50117,1.720602 0,0 z m -5.81678,-1.918229 c -3.21773,-1.331635 1.43258,1.463917 0,0 z m -2.72859,-0.303237 c -2.12322,-1.141977 -12.193575,-0.0512 -4.88858,0.195955 1.37151,-0.143117 4.15748,0.566615 4.88858,-0.195955 z m 1.33654,-2.013489 c 0.0216,-2.252557 -7.84851,-1.373893 -2.53951,0.664223 1.85583,0.164773 1.84452,2.430252 2.53951,-0.664223 z m -1.1102,0.350633 c 0.067,-1.41304 0.90884,0.847226 0,0 z m 6.20641,1.590858 c -0.59222,-3.283368 -1.41585,1.205035 0,0 z m -11.05143,-2.072161 c -3.41759,-5.209734 -0.0864,2.921831 0,0 z m 0.91137,-0.504823 c 0.82906,-2.563894 -1.64139,0.584431 0,0 z"
       id="path2" /></g></svg>
