<?xml version="1.0" encoding="UTF-8" standalone="no"?>
<!-- Created with Inkscape (http://www.inkscape.org/) -->

<svg
   width="64.19548mm"
   height="85.777496mm"
   viewBox="0 0 64.19548 85.777496"
   version="1.1"
   id="svg1"
   xml:space="preserve"
   xmlns="http://www.w3.org/2000/svg"
   xmlns:svg="http://www.w3.org/2000/svg"><defs
     id="defs1" /><g
     id="layer1"
     transform="translate(-69.966509,-102.64163)"><path
       style="fill:#000000"
       d="m 107.56481,188.30175 c -1.42078,0.35018 -2.7988,-0.10895 -3.89637,-1.03529 -0.19751,-1.45634 1.85641,-0.50069 2.48105,-1.27144 0.92552,-0.72385 -2.11236,-0.0282 -2.86123,-0.15242 -1.31293,-0.17932 -2.5885,-1.22568 -3.1739,-2.37388 -0.024,-1.43638 -0.59198,-2.99132 0.49237,-4.18612 0.4822,-1.33291 1.76228,-2.19146 2.96355,-2.73677 1.34788,-0.30408 2.32103,0.35126 3.16059,1.34865 0.97388,0.88894 1.68518,0.82532 0.98551,1.30464 1.41822,-0.69758 2.14544,0.78945 3.09193,1.58328 1.60316,1.21777 2.40047,3.20998 2.12055,5.19609 -1.33336,1.45678 -3.39403,2.31307 -5.36405,2.32326 z m 0.77793,-4.96495 c 0.7578,-1.40805 -1.07343,0.47014 0,0 z m -0.0441,-3.61597 c 0.57358,-0.3029 -0.5475,-0.33003 0,0 z m -13.758335,7.65983 c -1.3138,-0.0468 -3.024017,-0.54692 -3.703978,-1.65625 0.347027,-1.42457 -1.697674,-1.13535 -2.549388,-1.70096 -1.017533,-0.92911 -2.104347,-1.81697 -2.205418,-3.29172 -0.379198,-1.31437 -0.02999,-2.79555 0.181971,-4.10324 0.464681,-1.2667 1.460658,-1.97643 2.677126,-2.455 1.204766,-0.85908 2.847909,-0.5463 4.195051,-0.42457 1.241655,0.49502 1.970808,1.43015 2.30067,2.70814 0.37863,0.86644 -0.281579,3.27917 1.245277,2.43649 1.20181,1.55946 1.096869,3.92907 2.431593,5.5241 0.587621,1.00321 -1.370747,1.99939 -2.17005,2.52636 -0.798001,0.19398 -1.565112,0.55184 -2.402854,0.43665 z m 33.315445,-5.81356 c -1.28653,-0.32562 -2.77936,-0.3478 -4.16884,-0.58597 -1.41523,-0.42963 -1.84346,-0.70722 -1.4993,-0.92146 -1.21786,-0.52853 -2.62496,-0.72599 -1.65982,-0.0971 -0.67944,-0.0596 -3.40836,-1.15417 -1.57091,-0.79323 0.79116,-0.25228 -1.95209,-0.87455 -2.60741,-1.19487 -0.73192,-0.24763 -3.17733,-1.14436 -1.43625,-0.0597 -2.15875,-0.79476 -4.5962,-0.15376 -6.75385,-0.71159 -0.80201,-0.18924 1.21523,1.62945 -0.3711,0.43077 -0.88382,-0.50692 -0.49913,0.69912 -0.8632,-0.55875 -0.78583,-0.28427 -2.0011,-1.49868 -2.3546,-1.54867 -0.18538,-0.74731 -1.99241,-1.12508 -2.8289,-1.62548 -2.163721,-0.59933 -4.404736,-0.98675 -6.374617,-2.11752 -1.796735,0.12848 -3.354627,-1.03101 -5.038211,-1.51269 2.113469,-0.6625 0.900228,-1.10899 -0.586185,-1.53775 -0.945411,-0.59581 -2.147929,1.01049 -1.155377,-0.41119 -0.475392,-0.40276 -1.775785,0.6391 -1.780643,-0.46966 1.8436,0.3216 -0.616655,-0.23047 -0.600607,0.0128 -0.609636,-0.85982 -2.387701,-0.87412 -3.442172,-1.41204 -1.391438,-0.25942 -2.768512,-1.07706 -2.399017,-1.20319 -1.220815,0.60882 -1.294144,-0.87936 -2.761435,-0.9012 -1.388116,-0.45964 -2.735443,-1.02879 -4.097375,-1.55873 0.08622,0.74292 2.181548,1.00955 0.0204,0.73645 -2.152146,0.12037 0.477637,-1.32924 -0.822347,-0.60632 -0.641182,-1.02739 -2.413168,-0.87781 -1.84398,-2.49251 -1.133059,-1.24957 0.05792,-2.90791 0.130058,-4.37045 0.196433,-1.16983 -1.638462,-1.87829 -0.805334,-3.22784 -0.334405,-1.12519 1.173867,-1.97298 0.73324,-2.86551 0.02076,-1.27491 0.493539,-2.67804 0.264731,-3.88062 -0.891765,-1.04555 -0.224268,-2.64172 -0.45499,-3.92071 0.674471,-1.72574 2.246075,-0.60215 1.937737,-1.30972 0.009,-1.14353 -1.044086,-2.27478 0.366981,-2.95372 1.441924,0.0881 2.039198,1.11479 1.770568,2.26804 1.156318,0.7393 0.333914,2.51363 1.365564,3.42535 0.99534,1.20417 1.521607,-1.36856 2.050065,-1.70668 0.837072,0.48982 0.863296,2.27309 1.308232,2.99962 1.541103,1.15888 1.360077,-0.54891 2.054821,-1.44653 1.310078,-0.77141 1.265308,1.20391 1.482304,2.09407 -0.199363,1.33203 1.931127,1.92073 2.042649,0.40929 0.506588,-1.30505 1.029226,0.0737 1.789504,-0.0141 0.01771,0.97094 0.937695,2.88618 1.611793,1.48576 -0.453009,-1.64426 1.212732,-2.11389 1.90942,-1.09038 -0.496818,0.82543 1.233142,0.56557 1.154898,2.18598 1.088963,0.70353 0.0613,0.12697 0.626484,1.34482 0.520182,0.36305 1.895976,-0.51987 1.944611,-1.64977 -0.930614,0.80164 0.06481,-1.98115 -1.279652,0.16269 -0.918849,-0.6408 0.508179,-2.46102 1.336216,-1.5345 1.234624,1.15022 0.239055,1.9785 0.980378,3.13335 0.600067,2.23755 1.060709,-2.33483 1.05352,-0.42671 -0.175935,0.7612 -0.898504,2.68982 0.34553,1.45414 0.693349,-0.80834 -0.387184,-2.75419 0.697432,-2.75774 1.663885,-0.31142 1.425519,1.30681 1.364497,2.44317 0.01753,1.42214 1.630409,1.86699 2.116659,0.48765 -0.73578,-1.26067 1.65374,-1.63632 1.32292,-0.40167 0.46772,0.74661 0.26543,0.66863 0.46357,2.19311 -0.0263,1.26482 2.28879,1.19539 1.6531,-0.19945 -0.14568,-1.18166 2.11135,-2.12499 1.81826,-0.71336 -0.61182,1.5734 0.27095,2.03859 0.55784,1.77825 0.0224,2.08332 1.51863,0.17066 1.27286,-1.01753 0.16018,-1.21175 2.23159,0.0865 1.87163,1.16197 1.10564,0.30427 -0.41242,2.83749 1.38989,2.33765 0.57562,-0.87899 0.19229,-3.07924 1.95291,-2.24265 1.57346,0.10976 -0.16561,2.39514 0.56139,2.90413 1.70001,0.26971 0.72001,-2.44311 1.8474,-2.00213 0.62134,0.0175 2.64916,2.11277 1.06993,1.63845 -1.62537,-0.94177 -0.0236,2.57838 0.47263,1.02508 0.51085,-1.09476 1.25901,-2.64243 1.60552,-0.51052 -0.12662,1.01039 1.20939,2.52563 1.80926,1.29662 -0.14325,-1.54738 1.79681,-1.25935 2.29202,-0.40846 -0.15325,0.88711 -0.0256,3.43544 1.06456,1.79319 0.095,-1.21374 0.72232,-1.80317 2.0146,-1.20132 0.38794,0.93468 -0.47438,2.60053 0.84109,3.1567 1.2129,-0.74667 0.24335,-2.62195 1.8055,-2.6768 1.50352,0.40532 0.0524,2.73144 1.33336,3.46465 0.83874,0.19477 1.93076,-1.19573 1.5391,-2.24571 0.95959,-0.96715 2.28468,1.84463 1.72686,1.30466 -0.27052,-0.5433 -0.21562,2.39093 0.43081,2.24459 0.6734,0.0501 -1.16614,1.63379 -0.43809,2.68107 0.28036,2.05498 -0.67512,4.06652 -0.71937,6.03633 0.76932,1.32867 1.55785,2.97628 0.38873,4.33733 -0.25251,1.31621 -1.55225,1.56569 -1.80211,2.73733 -0.15306,1.34556 -1.84257,1.64421 -2.92557,1.92783 z m -8.18003,-2.11085 c 0.57358,-0.3029 -0.5475,-0.33003 0,0 z m -6.48229,-2.38125 c 1.29587,-0.28254 -1.29371,-0.30352 0,0 z m -1.45521,-0.52917 c 0.57358,-0.3029 -0.5475,-0.33003 0,0 z m -1.45521,-0.52916 c 1.29587,-0.28254 -1.29371,-0.30352 0,0 z m -4.35001,-1.5875 c 0.40605,-0.50658 -1.12604,-0.80276 0,0 z M 104.72677,173.9 c 1.29587,-0.28254 -1.29371,-0.30352 0,0 z m -5.556247,-2.11667 c 1.295867,-0.28254 -1.293706,-0.30352 0,0 z m -0.926042,-0.26458 c 0.573587,-0.3029 -0.547509,-0.33003 0,0 z m 14.163509,-16.40417 c 1.59067,-1.19603 -0.54144,-0.99501 0,0 z m -4.24163,-1.05833 c 1.44629,-1.8198 -1.0132,-0.79435 0,0 z m -10.520838,-4.23333 c 0.963101,-0.88786 -1.356864,-2.0448 -0.44023,-0.20134 0.139169,0.14457 0.206822,0.28406 0.44023,0.20134 z m -8.264582,-2.64584 c 0.996178,-0.95569 -1.096829,-1.23732 -0.05041,0 z m -16.227777,-6.70277 c 0.757909,-1.40821 -1.073461,0.47019 0,0 z M 121.26323,180.25 c -0.57358,-0.3029 0.5475,-0.33003 0,0 z m -3.32974,-1.21228 c -1.5575,-0.29961 -1.38032,-1.03102 0.11064,-0.11068 z m -1.82963,-0.6398 c -1.29588,-0.28252 1.29369,-0.30354 0,0 z m -0.79375,-0.26459 c -1.29588,-0.28252 1.29369,-0.30354 0,0 z m -25.267712,-8.20208 c -0.573584,-0.3029 0.547511,-0.33003 0,0 z m -5.556249,-2.11667 c -0.573587,-0.3029 0.547509,-0.33003 0,0 z m -3.96875,-1.32291 c -0.573593,-0.30291 0.547516,-0.33005 0,0 z m -1.852083,-0.52917 c -0.573587,-0.3029 0.547509,-0.33003 0,0 z m -2.910417,-1.05833 c -0.573593,-0.30291 0.547516,-0.33005 0,0 z m 0.79375,0 c -0.573593,-0.30291 0.547516,-0.33005 0,0 z m -2.38125,-0.52917 c -0.573584,-0.3029 0.547511,-0.33003 0,0 z m 0.926042,-0.0418 c -2.554074,-0.0547 2.238641,-0.2807 0,0 z M 129.46531,161.2 c -0.57358,-0.3029 0.5475,-0.33003 0,0 z m 3.70417,-0.26458 c -0.57359,-0.30291 0.54751,-0.33005 0,0 z m -2.25509,-4.57693 c -2.08732,-0.0318 -4.12976,-0.85581 -6.18024,-1.26341 -10.28196,-3.71936 -20.59554,-7.35791 -30.944906,-10.87879 -5.234829,-2.50706 -10.484744,-4.97947 -15.924362,-7.01628 -1.541561,-0.75681 -3.083122,-1.51361 -4.624683,-2.27042 2.010517,-2.24163 5.015191,-3.27882 7.6258,-4.68724 5.028633,-2.52594 10.38594,-4.38897 15.733966,-6.08401 0.528466,0.87889 0.05805,2.5663 1.285941,3.2133 2.553684,1.00647 5.488274,0.28711 8.204814,0.29047 1.42294,0.0663 3.20338,-0.27093 3.56423,-1.88098 0.69692,-1.38796 1.56387,-2.73935 1.18775,-4.35808 0.37023,-1.39647 -0.57729,-2.21571 -1.08108,-3.2766 -0.13252,-1.27165 -0.18221,-2.57826 -1.23431,-3.46199 -0.25718,-1.61517 0.51471,-3.3568 1.18702,-4.8678 -0.12359,-1.75144 1.49104,-1.55994 2.055,-2.73449 -0.0973,-1.69023 1.69667,-0.81997 2.74943,-0.95321 1.15143,0.0516 1.23722,-1.80504 2.86709,-0.91957 1.50736,1.21327 0.5811,-1.63612 0.83471,-2.51584 1.64324,-0.319 2.0536,0.88142 2.33143,2.24517 0.41076,0.64694 0.41812,3.64531 1.21986,1.96697 0.52143,-0.55449 1.2986,-2.72838 1.97842,-1.31781 0.50429,1.15602 -0.89868,2.35827 -1.19209,3.53362 0.12305,1.56834 -2.08882,1.36899 -1.81944,2.35133 1.21828,1.01831 1.03809,-1.04752 1.96435,-1.45814 0.99515,-1.03569 2.67825,-0.43716 3.98414,-0.73469 0.68945,1.05839 -1.88457,2.24787 -0.16372,2.50276 2.52358,-0.0574 -1.06535,1.20493 -0.10357,1.65682 2.4204,0.7014 3.11604,3.46449 4.17499,5.46854 0.83127,1.03694 0.51059,2.75231 1.08328,3.66269 0.40113,0.93486 0.0795,2.59904 0.20282,3.81424 0.0306,3.31471 0.0628,6.6294 0.094,9.9441 0.70122,0.32888 0.23301,0.80295 0.6239,0.939 0.44935,0.95829 0.19609,1.14444 -0.0866,2.52977 -0.84986,3.02418 -0.28942,6.21198 -0.41587,9.32178 -0.0537,2.06961 0.16135,4.20122 -0.0545,6.23343 -0.28501,0.53246 -0.36133,1.16915 -1.12746,1.00536 z m -9.03919,-7.36535 c 1.38895,0.1494 2.7206,0.0377 3.89716,-0.78075 1.94286,-0.76836 3.21236,-2.59341 4.64833,-4.01892 0.76951,-1.46963 1.70891,-2.89364 1.48528,-4.63 0.17426,-1.60427 0.22516,-3.188 -0.63211,-4.6206 -1.08967,-2.56537 -2.75189,-5.05725 -5.12064,-6.59069 -1.27384,0.62914 -2.59122,0.66813 -3.94119,0.26531 -1.03533,-0.0626 -2.64252,-0.66961 -3.36718,-0.24565 -0.59887,1.54573 1.5892,1.36992 2.5505,1.04833 2.24421,-0.2773 0.45188,0.68303 -0.87545,0.5537 -2.00513,0.20919 -3.91443,-0.44522 -5.85075,-0.85616 -1.664,1.6421 -2.55695,3.85916 -3.41888,5.96999 -0.22972,1.95291 -0.31178,3.89607 0.2946,5.79375 0.69804,2.04092 1.75171,4.00486 3.38659,5.46273 0.93671,1.119 1.88996,2.21184 3.42136,2.39105 1.161,0.2762 2.33775,0.24139 3.52238,0.25791 z m -5.27786,-12.13481 c -1.30826,0.299 -2.42352,-1.05491 -2.08098,-2.31163 -0.19152,-1.20161 1.3468,-2.14936 2.46512,-1.9217 1.2688,-0.4035 2.09038,0.77484 1.96264,1.94202 0.57268,1.2275 -0.87174,2.29906 -1.96664,2.29131 h -0.21417 z m 8.11275,-0.80179 c -1.26876,0.27557 -2.2771,-0.58435 -2.26904,-1.85485 0.43487,-1.41888 2.09701,-1.91549 3.45239,-1.84122 1.06263,0.6255 1.38337,2.00453 0.88291,3.00328 -0.64501,0.53878 -1.18974,0.86404 -2.06626,0.69279 z M 123.11531,129.45 c -0.57358,-0.3029 0.5475,-0.33003 0,0 z m -16.93333,8.56887 c 1.69569,-0.25294 3.3459,-1.12321 4.6071,-2.27997 0.47224,-1.93237 1.8343,-3.97014 1.19459,-5.93523 -0.73,-1.16581 -1.92955,-1.382 -3.21778,-1.15944 -2.34387,0.15879 -4.6515,0.69973 -6.9579,1.13824 -0.93454,0.98653 -2.510127,1.63414 -2.317614,3.21654 -0.282879,1.10137 0.434799,2.34774 1.178384,3.08467 1.42096,1.04219 3.13741,1.90612 4.87856,2.02963 0.21156,-0.0315 0.42311,-0.063 0.63466,-0.0944 z m 11.1125,-8.56887 c 0.57358,-0.3029 -0.5475,-0.33003 0,0 z m 0.92604,0 c 1.29587,-0.28254 -1.29371,-0.30352 0,0 z m 5.70279,-1.08902 c 1.46475,0.45202 2.30158,-0.59839 3.15653,-1.60546 1.05844,-1.53535 1.66153,-3.47139 0.89372,-5.26967 -0.35498,-0.96251 -0.97989,-2.42282 -2.00623,-2.61917 -0.71196,0.0471 -3.01153,-0.17774 -2.43733,-0.9475 0.3445,-0.77455 -1.10148,-1.74301 -0.73541,-2.98289 0.19073,-0.82177 0.87537,-0.88998 1.776,-1.02617 -0.24383,-0.84847 -2.54347,0.35886 -1.85208,-1.42483 -1.25864,-1.05665 -0.33019,1.04652 -0.86382,1.6966 -2.19596,0.84172 0.5724,0.19827 0.3631,1.80022 0.86604,1.91236 -0.76745,1.24839 -2.02005,1.33862 -1.32012,0.3615 -2.11322,1.2849 -2.79953,2.40239 -0.96506,1.12128 -1.93012,2.24257 -2.89517,3.36385 0.16277,1.22504 0.66748,2.34225 1.15723,3.46417 2.7979,0.41288 5.38759,1.97731 8.26304,1.80984 z m -6.36425,-0.2339 c 0.57361,-0.30289 -0.54751,-0.33004 0,0 z m -4.10104,-7.14375 c 1.32327,-0.6369 -1.25253,-0.83188 0,0 z m 1.96876,-1.32291 c 1.24097,-0.77297 -0.70648,-0.72916 0,0 z m -3.01879,-1.32292 c 1.21923,-0.46028 -0.10289,-1.86651 -0.26878,-0.19844 -0.14774,0.29874 0.12487,0.18553 0.26878,0.19844 z m 3.0061,0 c 1.1486,-0.82077 -0.89719,-1.37949 -0.21081,0 z m -1.16232,-1.05833 c 1.29587,-0.28254 -1.29371,-0.30352 0,0 z m 2.39687,-1.05833 c 1.02436,-0.79649 -1.56347,-0.88186 -0.0348,0 z m 4.06889,-0.0827 c 1.25492,-1.06747 -1.7808,-1.33966 -0.31158,0.0632 0.072,0.11407 0.21187,-0.0597 0.31158,-0.0632 z m -6.62282,-0.44648 c 0.95424,-0.58189 -0.96192,-2.18653 -0.3721,-0.0346 -0.0303,0.16591 0.3153,-0.0442 0.3721,0.0346 z m 3.86123,-1.05833 c 1.60913,-0.79176 -1.70725,-1.03916 -0.0192,0 z m -6.99656,-0.31151 c 1.96678,-1.50629 -1.82745,-0.13709 0,0 z m 9.14095,-0.63167 c 1.17231,-1.02588 -1.19312,-1.81939 -0.39688,-0.27061 0.14593,0.19202 0.0513,0.67141 0.39688,0.27061 z m -7.11175,-0.59822 c 0.84664,-2.09964 -1.57419,0.58701 0,0 z m 2.07256,-0.0461 c 1.04587,-0.78408 -1.46077,-0.7739 -0.0348,0 z m 1.96876,-0.43349 c 1.80244,-1.35027 -1.96424,-0.22752 0,0 z m 1.71979,-0.0957 c 1.32325,-0.63693 -1.25252,-0.83187 0,0 z m 0.52917,-0.79375 c 1.32329,-0.63693 -1.2526,-0.83188 0,0 z m -4.7625,-0.52917 c 0.86765,-0.32713 -1.02,-0.66748 -0.0504,0 z m 3.14377,0 c 2.19292,-0.55541 -1.0171,-0.70299 0,0 z m -4.73958,-0.52916 c 1.14577,-1.11204 -1.55604,-1.14961 -0.0587,0 z m 3.08532,-0.58237 c 1.30203,-0.55675 -0.93731,-2.93306 -0.0933,-1.13278 0.32792,0.29882 -1.03111,2.22275 0.0933,1.13278 z m -5.85514,43.70945 c -0.57359,-0.30291 0.54751,-0.33005 0,0 z m -10.847915,-3.43959 c -0.573587,-0.3029 0.547509,-0.33003 0,0 z m -3.852902,-0.79375 c -1.054009,-1.16249 1.037992,-1.34813 0,0 z m -2.761681,-0.26458 c -0.573587,-0.3029 0.547509,-0.33003 0,0 z m -1.058334,-1.85208 c -0.573585,-0.30291 0.547512,-0.33005 0,0 z m -14.948957,-7.67292 c -1.323275,-0.63692 1.252549,-0.83188 0,0 z m -5.115278,-0.88194 c -0.361634,0.48524 -0.228941,-1.10742 0.176389,-0.17639 l -0.151441,0.15144 z m -0.79375,-1.05834 c -0.361625,0.48527 -0.228955,-1.10741 0.176389,-0.17639 l -0.151441,0.15144 z m 0.220486,-0.70555 c -0.573585,-0.30291 0.547512,-0.33005 0,0 z M 73.638233,135.8 c -0.573587,-0.3029 0.547509,-0.33003 0,0 z m -0.79375,-0.52917 c -0.573587,-0.3029 0.547509,-0.33003 0,0 z m 61.183147,-5.92933 c -0.38891,-0.56244 -0.28201,-2.50039 -0.48105,-3.58955 0.38144,-1.31029 0.38772,1.82303 0.52434,2.50749 -0.0565,0.33585 0.26202,0.84103 -0.0433,1.08206 z m -0.55063,-4.85244 c -0.36626,0.6886 9.8e-4,-2.12023 0.0533,-0.13212 z m -0.60041,-0.59531 c -0.67739,-1.02533 1.1303,-1.19266 0,0 z m -0.19218,-1.41111 c -0.36163,0.48527 -0.22895,-1.10743 0.17639,-0.17639 l -0.15144,0.15144 z m -0.79375,-1.05833 c -0.36163,0.48527 -0.22895,-1.10743 0.17639,-0.17639 l -0.15144,0.15144 z m -2.68993,-7.58472 c -0.57359,-0.30291 0.54751,-0.33005 0,0 z m -0.52917,-0.52917 c -0.57358,-0.3029 0.5475,-0.33003 0,0 z"
       id="path1" /></g></svg>
