<svg xmlns="http://www.w3.org/2000/svg" xml:space="preserve" width="66.195" height="66.022" viewBox="0 0 17.514 17.468"><g transform="translate(-43.483 -124.698)"><path d="M51.394 124.698q-.12.002-.252.032a1 1 0 0 0-.583.304l-.211-.026q-.94.04-1.072.952a1.34 1.34 0 0 0-.846-.45 1.1 1.1 0 0 0-.9.344 1.2 1.2 0 0 0-.635-.304.88.88 0 0 0-.662.198.83.83 0 0 0-.29.37q-.61-.436-1.337-.184-.9.33-.966 1.243.066.543.53.754l.013.027v.013a.5.5 0 0 0-.291.198q-.186.291-.12.688.08.503.57.741.316.106.568-.08l.503 3.282a.56.56 0 0 0-.384.278.66.66 0 0 0-.026.515q.12.24.318.331h.013q.066.225.251.291l.159 1.323q-.29-.066-.463.212a.45.45 0 0 0-.026.37.82.82 0 0 0-.345.596q.027.449.41.634l-.145.172q-.635-.092-1.124.41-.715.86-.53 1.879.16.622.662.9l.529.172.37-.04.582-.026.225-.04.08.066 1.257.132 4.458.57 4.339.62a9 9 0 0 1 1.945-.806l.714-.212.013-.04v-.092l-.013-.027-.027-.04q-.198-.476.172-.872.08-.12.027-.199-.132-.516.344-.82.357-.185.807-.093l.053-.013.08.04.158.026.08-.092-.08-.212-.013-1.72v-5.424h.145l.08-.04.026-.066q.318-.263.397-.674l.066-.146-.053-.132v-.04q-.026-.185-.225-.251l-.052.04-.067-.054-.74-.224-.424-.133-2.5-.886q-2.898-1.151-4.683-2.632l.118-.424-.026-.251a1.02 1.02 0 0 0-.33-.728.85.85 0 0 0-.62-.23m.674 1.765a16.4 16.4 0 0 0 4.087 2.447 37 37 0 0 0 2.329.9l1.084.37.609.199.212.066.238.053q-.027.053.04.119a1.1 1.1 0 0 1-.397.621l-.014.014a38.9 38.9 0 0 1-14.684-2.66q-.067-.012-.04.106-.093-.105-.092.014.582 2.672.873 5.41 0 .12.105.199a28 28 0 0 0 6.72 1.35l6.88.356v.728l-6.88-.37a27.6 27.6 0 0 1-6.706-1.337q-.093.014.026.173-.04 0-.04.066.24 2.725.172 5.476-.278.026-.33-.304l-.013-1.56-.053-1.575-.013-.04q.066-.08-.04-.185l-.014-.132.04-.053-.066-.132a104 104 0 0 0-1.032-7.713l.014-.04-.04-.08-.093-.489.013-.092-.04-.067v-.013q.147-.384.437-.49l.093.054a73 73 0 0 1 6.615-1.39zm3.018 7.001a.994.994 0 1 1 0 1.988.994.994 0 0 1 0-1.988m-5.267 3.834a1.198 1.198 0 1 1 0 2.395 1.198 1.198 0 0 1 0-2.395" style="fill:#000;fill-opacity:1;stroke-width:.264583"/><circle cx="55" cy="127.661" r="2.084"/></g></svg>