<svg xmlns="http://www.w3.org/2000/svg" xml:space="preserve" width="406.002" height="389.297" viewBox="0 0 107.421 103.001"><path d="M104.37 97.08c-4.514.274 2.739.986 0 0m4.046.008c3.167-.533 4.446 5.728 5.103 1.533-1.474-1.093-3.37-1.187-5.103-1.533m-6.324.087c-1.45.212.008.883 0 0m17.062 1.008c-2.494.955-2.729 8.757-4.49 3.833-2.731 6.355-5.595-7.822-8.2-1.568 2.1 4.591-6.09 8.548-5.297 2.095-.002-4.254-5.886-3.942-3.552.37-1.188 2.717-3.23-.142-5.466.381-3.06-1.519 2.859-3.523-1.59-3.062-6.034-.544-13.84 1.835-16.18 7.782 1.134 2.478-1.381 10.18-2.916 5.21.542 3.937-6.412 6.924-4.385 1.246.07-2.73 6.066-6.863.758-4.195-2.856 3.73-3.74 9.264-8.836 10.37-7 7.914-8.838 19.381-7.112 29.533 1.581 8.05 6.037 15.08 9.148 22.544-2.031-1.906-4.663-10.171-2.754-3.402 4.033 15.201 18.139 25.413 32.84 28.999 5.815 1.4 11.783 2.204 17.747 1.446 18.136-.536 36.671-11.9 42.194-29.742 1.152-7.213 5.73-13.36 6.776-20.6-.615-1.608.83-1.092.182-4.062-1.856 2.348-7.436 4.91-5.55-.56.964-.891-3.383 1.294-1.32-1.287 3.049-1.745 8.903-1.856 7.27-7.335-.46-5.947-6.166-7.877-8.512-12.726-1.965 2.276-3.124-5.418-7.09-4.986-2.689-.033-2.783-7.306 1.532-3.659 1.756.73 6.158 6.775 3.333 1.923-3.463-1.793-5.413-8.874-9.3-4.623-3.773 4.026-2.83-6.524-7.356-4.004-1.455-3.701-11.722.329-8.38-6.422 2.183-1.505 4.387 4.637 2.315-.119-1.245-2.106-3.543-2.979-5.809-3.38m38.685 51.24c.373-.218-.134-1.367 0 0m-63.1-46.232-.314-.634zm8.33-3.257c-1.994 2.663 2.618 3.346.639.293zm-16.79 1.307c3.57 1.629-.869 11.159-1.434 4.543.512-1.48-.554-3.949 1.434-4.543m-4.115.27c1.513 1.27-1.237.863 0 0m1.64.098c1.2 1.436-.996.614 0 0m7.492 1.727c3.916.938-1.403 2.648-.342.11zm38.882.274c2.058 1.54 7.504 4.165 7.628 4.902-1.431-2.882-4.683-4.181-7.628-4.902m-46.73.657c2.545 1.468 2 7.187-2.082 5.344-2.303.7-3.537 3.752-5.33-.434-1.461-3.693 1.29-3.204 3.301-1.821 3.045.044 2.42-1.881 4.112-3.089m27.82 1.209c3.133-.014 3.64 2.65.118 1.842-3.712.44-3.595-1.799-.117-1.842m-3.899 1.149c2.433.836-2.28.985 0 0m13.931.619c3.542.72 5.376 4.6 8.776 5.376-3.952.855-3.984 6.194.523 5.881-3.592.145-3.756-4.33-.465-3.452 1.198 1.11 3.399 2.32.748 3.045 1.579 1.32 6.059-1.995 6.975 1.296-2.898-2.114-1.772 2.746-4.614 3.194-1.24 4.055 7.633 4.887 3.207.862-2.748-4.002 9.1.261 3.203 3.182 1.37.461 7.06 1.021 5.656 5.448-1.934 3.643 5.562 1.664 3.315 6.094-1.781 3.417-2.054 8.14-4.263 10.877-.749-2.927.182-2.163-.221-3.422-.725 2.384-2.453 3.642-2.412 5.468-3.628-1.381-10.609-2.371-9.88 3.752 2.099 2.116 5.375-.135 2.187 2.836 1.08 2.435 5.134-.568 3.76 3.848.25 4.786-5.309 1.478-4.27.186-.871-.816 1.408-2.605-.639-.228-1.353 4.254 6.065 5 .258 7.15-1.828 1.748-6.327 3.863-10.062 5.554-3.044 1.531-8.846-.322-7.77 4.161-.89-1.124-2.419 4.644-5.738 4.067-4.472 2.04-5.03-6.454-8.89-1.39-2.662 3.848-11.234-.044-7.639-3.369 1.189 1.406 7.16 3.375 6.364 1.499-1.19-.886.137-1.619-2.647-1.568-2.762-1.999-2.837-7.565-5.746-6.718 3.094 2.685-4.03 4.481-2.044-.095-.44 4.817-7.728 4.24-9.169 1.619-.486 2.328.763 7.8 2.878 3.876 6.868.11-1.72 7.35-3.607 1.846-1.781-2.494-6.505-.058-4.898-4.292-4.033-4.286 2.344-3.878 3.584-.718 4.702 1.085-.845-3.73-.368-5.986 1.396-2.954-3.842-5.488-2.904-4.957.979-1.386-4.233-1.512-2.544 1.856-2.78 1.16-6.173-5.924-1.793-7.63 4.931-3.254-.012-6.041-3.757-6.041-3.333-3.713-3.024-10.24-.43-14.36 2.323-4.034 8.533-5.505 7.87-10.316 3.687-1.841 2.638-5.033 6.43-5.983 3.508-2.876-5.278-6.219 1.225-6.564 5.735-.27 10.098-5.642 16.005-4.783 3.12.711 6.56-1.648 9.593-.041.822 2.283-1.775 5.545 1.445 2.35 3.955-4.134 6.251 6.378.498 2.965-2.775.355.992 5.143.613 5.535-.457 2.294-3.453 4.213-2.356.243-1.663-2.587-7.1 4.262-3.84 5.089-2.1-1.401-4.046-.919-6.447.75-1.798-1.39-7.226-3.484-6.524 1.864.175 3.979 4.795 3.556 5.389 6.349 1.81-1.474 7.99-.344 2.999.302-2.843 1.936.921 9.444-2.548 6.69.707 6.099 12.536 2.704 11.489-2.114-.613-3.221 2.095-8.533 5.641-5.037-5.054-.617.54 5.501 2.42 1.2.042-1.898-3.154-5.3-.854-5.177 2.474.82 6.433-1.51 4.67-4.845-.644-2.695-7.035-3.008-1.923-4.779 5.639 2.298 9.311-6.267 2.47-6.924-1.59-.05-6.464-.206-4.163-2.824 2.841-2.163 7.095-.037 8.585 1.291.282-2.273-4.732-3.026-3.35-3.988m-3.847 5.12c-.084-.26-.797.09 0 0m13.146 6.137c.273.312 1.353-.364 0 0m-.317-10.013c.074 2.396-3.34 1.397 0 0m-19.794.09c6.092.324-3.338 1.175 0 0m2.697.501c1.215.363-.514.829 0 0m-12.128.63c-4.205.779 4.121 4.43.597.188l-.292-.188zm-11.138.72c-3.712 1.444 1.68 1.388 0 0m7.495.181c.297 1.88 4.233 1.207.53 0zm-1.736 1.314c-2.382 2.179 3.217 2.425 3.603 3.73 2.976-2.423-3.32-2.397-3.603-3.73m20.048.199c1.023.416-.567 1.233 0 0m2.367.543c5.275 1.302-3.334 2.714 0 0m19.796.125c.198 1.526-1.334.9 0 0m-6.01.169c4.606 1.509-1.304.747 0 0m-16.778.448c2.401 2.982-5.018 2.496 0 0m-51.177.26c-2.004 1.673-4.014 7.563-1.252 2.391.435-.785.976-1.527 1.252-2.39m21.28.072c-.018.01.01.05 0 0m23.616.303c1.136.465.865 1.364 0 0m8.123.104c-.206 1.328-1.61 1.339 0 0m.697.337c1.667.97-.693 1.037 0 0m-5.2.29c.715.644-.199 1.361 0 0m9.167.448c.154 1.412-2.055.761 0 0m-33.82.273c-4.774 1.777 3.301-.172 2.748 3.43-4.864-1.632-1.037 9.522.347 2.402 1.281-2.737.394-5.824-3.094-5.832m-1.841 1.246c-.463-.007.11.38 0 0m25.38-.768c2.76 3.228-5.143 1.401 0 0m6.59.034c2.457 3.147-6.072 2.002-.616.051zm-43.259.265c4.309-.012.583 3.215 0 0m61.787.028c.493 1.353-.795.812 0 0m-58.717.182c.513.864-.854.884 0 0m61.122.267c1.215.363-.513.829 0 0m-58.874.038c2.372 3.692-3.985 3.077 0 0m39.979.242c1.6 1.648-.91.812 0 0m2.076.12c1.045.587.288 1.47 0 0m-34.316.08c-1.86 2.49 3.53 1.284 0 0m-7.992.426c-.417.31.036 1.14 0 0m-8.183.577c2.145-.274 4.487 3.205 1.93 2.165-1.15-.804-2.628 3.974-1.904.236-1.357-2.918-1.567 2.545-3.063-.575.396-1.217 1.9-1.676 3.037-1.826m48.942.264c1.33 1.642-.882.079 0 0m-45.218.21c1.729.693-.47.737 0 0m-11.875 1.09c5.789.831-3.565 5.236-4.238 7.724-2.17 2.346 3.428 5.589-1.36 4.54-3.835-3.267-.574-10.96 3.929-12.029l.85-.162zm49.328.103c.592 1.24-.012 1.54 0 0m12.923.377c-5.886 1.64 4.81 4.22 2.557.585-.796-.38-1.679-.558-2.557-.585m-36.222.032c1.267.151.343.96 0 0m22.18.255c1.168 1.595-.84 1.576 0 0m-6.095.345c2.215.9-1.15 1.28 0 0m45.548.3c-2.298 3.115 6.297 8.57 2.281 2.906-.73-.934-1.103-2.464-2.28-2.905m-77.172.084c1.786 1.233-1.621 1.325 0 0m35.763.62c1.022.417-.568 1.233 0 0m-5.15.182c.898 2.15-2.735 1.58 0 0m8.285.22c-.597 1.59-1.25-.008 0 0m.288.089c1.097.994-.62 2.282 0 0m-40.028.121c1.914.968.981 2.025 0 0m33.227.154c.597 2.009-2.33.895 0 0m-26.743.36c-.022.075.09-.01 0 0m-9.571.022c1.088.454-.838.885 0 0m39.55.309c1.52.237-.483.861 0 0m-32.454.453c.078.04.02-.005 0 0m15.74.118c.422 2.616-2.836 1.163 0 0m21.689.2c.797.266-.442 1.056 0 0m-46.161.07c3.733.533.16 1.304 0 0m2.24.08c1.18 1.148-.032 1.464 0 0m64.063.135c1.215.365-.514.829 0 0m-24.277.37c1.447 1.591.855 2.126 2.325.832.995 4.798-4.171 2.602-2.325-.832m21.034.084c-2.485.79-.936 2.554 0 0m-63.465.004c3.464.533-1.24 1.768-1.114 2.48-1.718-.332.14-2.443 1.114-2.48m49.91.25c3.208 2.107-4.301 4.112-1.598.166 2.004.743.48 1.493 1.597-.167m-21.066.483c-.999 1.853-1.76.013 0 0m-12.375.217c-2.273.465-4.779 1.72-2.236 2.468-.807 1.644-3.678 2.743-1.483 4.975-4.483-2.018-9.284 7.716-2.071 6.907 2.217-.053 5.818-.074 2.549 2.48-.422 3.85 7.67 2.067 3.132-1.018.446-2.497 6.101.331 2.35.9 2.584 2.922-7.646 3.332-1.251 3.82 4.858.335 8.28-6.078 2.484-7.926-1.388-3.226 1.309-4.757.216-9.341-.48-1.648-1.883-3.188-3.69-3.265m3.374 9.8c.426-.06-.138-.404 0 0m-16.923-9.744c.858.682-1.193.573 0 0m35.922.03c2.642 2.646.718 7.214-2.853 4.553-.363-2.286-4.543-2.468-.266-2.147 1.277-1.955 3.36.274 3.119-2.406m2.04.037c.82 2.841-2.435.753 0 0m6.153.065c.674 1.714-.377 1.974 0 0m-13.495.176c4.914.607-.191 3.233-.669.127zm-4.216.154c-1.062 2.542 3.298 6.923-.502 4.264-1.186-1.375-1-3.221.502-4.264m-3.186.22c.956.926-.321 2.974 0 0m50.35.248c2.312 1.702-1.99 1.557 0 0m-34.902.124c.716.259-.515 1.862 0 0m-10.09.29c2.146 3.697-4.54 2.7 0 0m29.316.145c-1.718 3.247 4.276 3.753 1.207.565l-.972-.553zm-59.936.055c1.97.351-1.251 2.005 1.279 1.396-1.361 3.131-6.016-1.018-1.279-1.396m22.894.112c.667.285-.556 1.671 0 0m26.764.037c.798.268-.442 1.057 0 0m-57.649.019c.513.866-.854.886 0 0m45.819.022c.27 2.224 2.646 1.636 0 0m-22.581.456c1.734 2.576-2.007.144 0 0m64.019.058c1.764 4.177-3.794 1.839 0 0m-82.77.013c1.303.19-.038 1.79 0 0m-3.1.189c-.248 2.283-1.237.337 0 0m1.57.47c1.196 1.895-2.115 2.99 0 0m2.136.177c1.255.594-.03 1.798 0 0m26.966.1c2.837.398-.904 1.125 0 0m17.586.015c-.997 1.617-2.205.954 0 0m41.623.043c5.176 2.101-4.672 7.603-1.444 2.383 1.587-1.311-1.674-1.514 1.444-2.383m-19.624.247c-.02.02.027.014 0 0m-70.467.055c1.567 2.267-1.77 2.512 0 0m65.902.077c-1.084 1.981-2.283 5.933-.007 2.27.731-1.51 2.334-.61.007-2.27m-67.89.127c.9.77-.835.699 0 0m35.645.031c1.97 1.366-.617 1.118 0 0m4.828.617c1.449.64-.893 1.156 0 0m-17.427.132c3.71.02 1.22 5.618-1.056 1.69-2.825-2.262 1.654-.532 1.056-1.69m2.156.123c1.523 1.154.48 1.593 0 0m41.714.167c-.505.191-.314.119 0 0m7.343.099c-.264.258.034.109 0 0m-69.332.175c1.147.416-.814.606 0 0m69.906.167c-2.208 1.458.619 1.755.516 1.718 1.009 2.595 2.237-3.793.1-.98l-.169-.509zm-70.856.07c3.007 1.56-2.653 1.803 0 0m38.263.192c4.464-.503 2.163 3.24-.542.845-1.135-.46.119-1.143.542-.845m50.14.412c-.483.861 1.52.236 0 0m-86.277.126c1.623 1.1-1.526.714 0 0m-10.467.121c3.047-.35 6.737 8.025 1.812 4.028-4.144-4.278 4.135 5.572-1.481 2.64-1.819 2.003 6.48 7.68.97 5.18-3.12-2.13-5.716-10.124-1.3-11.848m9.576.18c1.477 1.664-.223 2.148 0 0m41.158.185c3.256 1.779-2.371 1.382 0 0m-20.124.146c-.237 1.995-1.278 1.217 0 0m-16.9.165c-.165-.046-.074.295 0 0m-5.248.204c2.21 1.52-1.26 2.191 0 0m18.698.6c2.115 1.02-.055 1.265 0 0m42.414.305c-1.926.569-4.74 3.414-3.406.73-7.227 5.292 10.78 3.688 3.406-.73m-20.571.12c.51 1.489 1.056-.448.75 1.219 3.847.027-3.752 2.753-1.34-1.023l.59-.195zm-23.332.176c1.2 1.094.688 1.165 0 0m75.352.04c3.368 2.759-5.563 2.608-.638.107zm-77.036.116c1.458.518-.971 1.194 0 0m-16.4.065c2.945 1.91-2.245 1.727 0 0m62.385.327c-.155 1.938-2.378 1.573 0 0m-23.287.015c.797.265-.442 1.057 0 0m-37.349.254c2.564.66-1.434 2.256 0 0m37.076.59c5.523 2.327-2.973 2.234 0 0m-26.097.559c.117 2.33-2.438-.068 0 0m2.29.126c.483 2.27-4 3.094-.875.58zm1.48.062c3.728.303-.766 2.14 0 0m.64.751c.057.028.005-.038 0 0m74.466-.44c4.522 1.546-3.83 3.6-.791.094zm-78.4.363c.628 2.296-2.295.04 0 0m-8.257.557.026.037zm14.626.115c2.04.26-1.116 1.6 0 0m-15.505.3c-4.946 1.007.418 2.397 1.64 3.48 1.086-1.062-.357-3.299-1.64-3.48m39.352.229c.47 1.692 1.374-.924-.348 1.986-3.531 1.69-2.631-2.515.348-1.986m-26.806.134c.105 1.686-1.328-.184 0 0m7.114.197c.83.227-.328 1.442 0 0m-24.707.29c1.096 1.373-.291 2.199 0 0m43.37.075c-2.618 1.498 1.293 1.876 0 0m42.845 0c1.278.486.681 2.653 0 0m5.25.059c6.017 3.201-7.091 3.09 0 0m-72.139.133c2.768.448-1.568 1.752 0 0m20.145.017c.56 1.062-.662 2.077 0 0m-21.437.084c.882.28-1.116 1.545 0 0m20.34.059c.154 2.506-1.2.614 0 0m33.216.114-.088.019zm-81.759.196c.249 2.843-.494 2.399 0 0m76.766.064c-2.775 1.232-6.94 4.524-7.999 2.023-.848 4.028 10.263 2.678 8.694-1.656l-.304-.282zm-29.719.51c2.412 2.27-2.243 1.975 0 0m51.005.052c1.318 1.168-.844.575 0 0m-11.85.417c-4.65.387 2.032 2.441 0 0zm-9.63.078c1.613.71-1.228 1.648 0 0m-27.496.297c.694 2.288-1.814 1.85 0 0m-33.767.077c-4.118 2.303 3.26 5.586 1.734 1.348-1.025.083-.86-1.213-1.734-1.348m72.943 0c-2.426 2.016-4.162 2.551-6.913 2.127-.673 3.013-1.011 3.001 2.359 2.47 2.06.859 6.345-2.753 4.554-4.597m-80.95.052c3.207 2.726-2.619 1.046 0 0m36.414.92c.742 2.393-4.258-.056-5.265 3.242-3.5 2.643-.08 6.462-1.034 9.118-3.003 1.408-3.642-6.648-3.972-.767 1.069 2.092-1.903 5.023-1.535 1.648-5.156-1.397-9.793 7.747-2.664 9.09 3.45 1.098 3.908 3.266 1.69 5.202-.52 4.822 6.577-.734 8.876-2.234 5.644-1.131 4.252-6.405 2.983-10.334 1.077-1.849 3.71-4.207 4.05-.727 1.355 2.375 4.83 4.033 3.138-.08-.148-2.296-1.093.29-.23-2.807-.175-3.845-2.657-2.724-4.265-1.613-4.748-3.018 2.721-7.72-1.772-9.738zm6.23 12.563c.207-.17-.139-.115 0 0m24.893-12.552c.974 1.665-1.58.056 0 0m21.957.228c.82.505-.43 1.112 0 0m-64.845.087c1.12.491.528 1.34 0 0m-1.308.117c.562 2.153-.916 1.606 0 0m41.275.06c.724.715-.158 1.326 0 0m-19.617.113c-.819.408.124.318 0 0m-33.347.175c-.882.423-1.32.633 0 0m-2.982.372c.967.112-.777.792 0 0m77.491.007c-2.184 2.037-.185 4.357 0 0m-57.613.186c2.56.16-.21 1.891 0 0m27.728.117c-6.568.251-1.656 8.302 2.543 5.157 5.564-.768.891-5.436-2.543-5.157m33.515.11c.787.884-.553 2.065 0 0m-15.154.386c1.39 1.556-1.883.691 0 0m-19.445.14c5.399.356-4.055 4.222-.737.601zm-59.292.332c5.638 2.047-4.078 1.931 0 0m-3.575 1.011c1.318 1.168-.844.575 0 0m8.614.502c1.785 1.096.001 1.38 0 0m53.916.464c1.448.639-.894 1.156 0 0m-19.626.538c1.098 3.438-3.678 1.973 0 0m-1.508.015c.55 1.872-1.398 1.321 0 0m22.664.083c1.573 1.424-.076 2.135 0 0m13.973.098c1.8.877 1.018.028 0 0m-39.177.034c2.382 1.646-1.636 1.402 0 0m39.01.184c-1.45-.579-4.262 2.53-2.261.108-4.114 2.976 1.323 6.896 4.194 3.337a2.362 2.362 0 0 0-1.933-3.445m-11.967.533c.695.415-.654 1.049 0 0m-65.136.013c1.219 2.415 1.863 8.803 2.412 9.223-1.67-2.786-1.795-6.117-2.412-9.223m47.308.102c.018.027.105.04 0 0m.062.037.036.024zm47.326.628c1.586.651-.998 1.924 0 0m-57.113.188c2.522 1.59-.829.524 0 0m58.504.162c.707 1.928-1.825 4.678-.618.866l.323-.665zm-19.736.243c.726 2.595-3.333.997 0 0m-72.499.135c3.68-.486 5.143 7.404 1.132 5.084.297-2.549-.338-3.54-1.623-3.857-.1-.39-.09-1.18.491-1.227m-4.081.027c1.33 1.642-.881.08 0 0m84.531.38c-.429.202.76.165 0 0m9.037.086c.374 1.374-1.654 1.38 0 0m-16.485.044c.857.684-1.192.574 0 0m-34.504.021c-.554 1.942-4.38 4.728-2.567 1.114.67-.693 1.643-.991 2.567-1.114m58.134.248c4.914 1.13-2.255 7.565-2.233 1.603.035-1.083 1.444-1.363 2.233-1.603m-100.448.28c1.33 1.642-.882.079 0 0m94.676.077c.942 1.64-2.1 2.977-.303.202zm-4.498.028c3.158.599-1.443 2.587 0 0m-8.927.227c-.25 2.101-1.819 1.2 0 0m-21.155.171c-3.553-.712-4.25 5.402-.239 2.879 1.13-.548-.084-3.382 2.264-.843 3.515 1.33.03-2.904-2.025-2.036m-46.704.2c.726 2.24-1.562 1.426 0 0m79.476.09c1.331 1.642-.88.08 0 0m-49.83.018c2.674 1.678-2.772 4.923-.793.678l.373-.487zm38.474.163c.32 1.578-1.272 1.197 0 0m-65.237.012c2.148 1.43.176 2.676 0 0m-16.016.055c1.318 1.167-.844.575 0 0m84.482.012c4.188-.818 2.525 6.947.726 4.548.88-1.948 2.154-4.637-1.264-3.846l-.138-.578zm-69.512.658c2.013 1.55-1.15 1.124 0 0m75.944.101c1.268.15.343.962 0 0m-10.982.596c.87.567-.319 1.215 0 0m-37.134.022c-1.046 1.027-.088 1.513 0 0m17.135.224c1.099.47-.806.843 0 0m36.932.019c.87.566-.318 1.214 0 0m-12.615.222c1.548 1.013-.69.486 0 0m6.31.003c.89.316-.538 1.818 0 0m-77.404.088c.906 1.719-.447 2.5 0 0m69.878.126c1.543.443-.744 1.096 0 0m-67.992.26c2.067.528-3.163.659 0 0m1.378.103c.13 2.086-1.568 1.451 0 0m64.675.098c1.612.922-1.212.756 0 0m-60.054.001.141.2zm64.484.114c.211 1.619-2.114.995 0 0m12.01.604c4.696 2.284-7.18 4.638-2.363.806.553-.76 1.537-.74 2.364-.806m-65.015.102c-.359.655.292 1.318 0 0m59.573.42c.695.415-.654 1.049 0 0m-56.038.013c.944.163.05 1.217 0 0m27.605.366c-4.316 3.34 2.058 9.907 5.689 10.654 2.88-4.027-.49-10.967-5.689-10.654m-35.547.193c3.168.176 1.166 2.504 1.72 2.168.113 1.636-1.26 6.574-2.291 2.073.258-1.255-1.055-3.648.571-4.24m-4.159.021.133.23zM90.28 156c2.98.572.797 2.132 2.494 3.98-2.913 1.38-6.44-2.432-2.494-3.98m41.208.172c-1.578 2.325-5.077.994-6.046 4.74 1.873-2.001 8.063-.022 6.046-4.74m14.218.204c.901.77-.834.699 0 0m-23.02.106c.011.008.058.008 0 0m-49.691.051c-5.566.714.994 5.239 2.672 1.232-.224-1.11-1.794-1.13-2.672-1.232m70.588.104c.096 2.532-2.198.059 0 0m-24.468.034c.759.42-.635.89 0 0m-54.573.127c.194 1.664-1.872 1.896 0 0m-6.451.02c4.037 3.139 8.863 6.528 11.572 11.156 1.487 4.35-2.624 4.063-3.31.41.35-6.494-9.668-3.857-9.622-9.956-.1-.75.476-1.775 1.36-1.61m57.717.087c.901.77-.834.698 0 0m29.103.148c.494 1.354-.797.81 0 0m-13.52.015c-.075 2.654-2.18 1.182 0 0m-24.756.192c-3.867.074-3.147 5.656-.102 2.523.52-.544 1.016-2.168.102-2.523m13.443.063c1.397.354.193 1.117 0 0m-48.191.273c1.247.23-.428 1.463 0 0m-5.862.539c1.513 1.269-1.238.863 0 0m78.082.14c.797.268-.442 1.057 0 0m-37.452.003c-.972 2.447-3.254 1.37 0 0m8.88.135c3.004 1.765-1.875.772 0 0m-48.554.23c1.186.584-.67.985 0 0m50.868.05c2.322 2.744-2.802 1.558 0 0m25.386.82c1.33 1.641-.882.078 0 0m-32.042.006c-4.433 1.788 1.035 6.749 1.543 5.027-.003-.572 4.26-1.012.433-2.229-2.576-.361-1.036-1.405-1.976-2.798m39.578.378c3.83 2.634-4.88 5.635-6.776 7.788-1.86 3.64-7.58-1.41-2.298-1.5.413-1.807 5.794-7.742 3.12-3.391-1.816 4.608 4.672-3.884 5.954-2.897m-65.153.356c.82.505-.43 1.112 0 0m57.158.07c1.002 1.928-2.066 2.322 0 0m-7.597.25c-1.338 1.023-1.025 1.246 0 0m-13.297.084c.797.265-.442 1.056 0 0m-29.07.02c1.214.364-.513.828 0 0m26.012.246c1.064.174-.73 1.02 0 0m-32.508.15c.717 2.028-.155 2.16 0 0m-12.04.084c-.551.158.736.451 0 0m16.126.008c2.54 2.405-2.123 1.806 0 0m2.263.114c1.33 1.27-1.074 1.789 0 0m32.319.043c-.026.101.25.08 0 0m-45.23.1c1.864 1.602 2.144 4.026-.133 1.257-.017-.194-.389-1.126.132-1.256m45.347.01c.014.016.088.056 0 0m-40.934.04c2.703.936 3.786 5.266.47 2.038-.077-.602-.799-1.405-.47-2.038m10.077.089c1.68 1.173-.052.875 0 0m45.517.331c2.612.955-2.285 1.843 0 0m-17.462.084c1.488 1.711-1.36 1.64 0 0m-10.892.135c3.58 1.483-2.014 2.063 0 0m29.79.133c.797.266-.442 1.057 0 0m-12.662.086c-2.667.31-3.133 2.665-1.353 2.298-6.614 7.398 11.562 1.12 1.6-2.265zm-10.403.004c.373 1.305-.97.143 0 0m-28.872.09c1.33 1.642-.881.079 0 0m-.794.264c1.33 1.642-.881.08 0 0m10.491.32c-5.494 1.321 6.059 1.851.852 5.064-3.472-.016-1.87 2.747-1.317 2.261 2.31-.45 2.135-1.552 2.936.961 4.005-.278 2.134-7.724-1.876-8.222zm1.63 7.125c-.327-.2-.039.318 0 0m-8.559-7.017c.734.254.123 1.34 0 0m9.817.311c.986 2.452 1.724 1.56 0 0m-18.017.176c2.508 1.109-.855.469 0 0m36.478.182c.901.77-.834.698 0 0m-45.746.086c1.077 2.125-3.957 2.472 0 0m17.114.4c3.305 1.686-2.601.984 0 0m-1.78.124c4.563 2.378-3.124 1.642 0 0m11.362.184c.901.77-.834.698 0 0m-23.915.179c-.418.31.036 1.14 0 0m50.87.096c.142 2.098-1.767.525 0 0m-39.861.2c1.266 1.345-1.741.979 0 0m41.683.029c.735 1.029-1.037.223 0 0m-60.105.616c3.256 1.916-2.209 1.956 0 0m-11.1.076c1.892 2.563-.811 1.204 0 0m29.981.173c.797.266-.442 1.057 0 0m12.802.27c3.22 1.746-.761 2.622 0 0m27.765.114c.931.731.15 2.157 0 0m-21.187.7c-3.452.17-1.36 3.972-.946 4.527-2.927.041-5.335 3.22-.78 1.98 3.402 2.753 7.91-5.684 1.726-6.507m-46.105.175c.418.885-1.14.611 0 0m75.431.569c1.328.453-1.579 1.31 0 0m-76.26.402c.772 2.353 4.883 9.1 2.146 2.982-.29-2.874 5.228 8.219.786 4.155-1.146-2.29-1.985-4.777-2.932-7.137m43.41.321-.03.061zm-33.393.01c3.313 2.231-3.565 4.748 0 0m31.583.171c.387 1.787-1.266.942 0 0m30.074.145c.695.415-.654 1.049 0 0m-14.557.022c-2.678-.057-4.121 3.95-1.231 1.491.433-.063 3.658-1.62 1.231-1.491m-10.592.19c1.331 1.642-.88.079 0 0m13.297.01c-4.779 1.488 5.039 3.634 1.192.258l-.644-.186zm-33.691.099c1.066.236-.509 1.16 0 0m48.782.005c4.845-.45 4.492 3.2 1.015 4.576-3.13.622-5.255-4.587-1.015-4.576m-4.2.057c-.662.38.506.225 0 0m-68.25.559c3.687 5.23 10.497 6.993 14.606 11.624-5.13-3.465-11.748-5.665-14.605-11.624m66.031 2.023c2.947-.63 2.962 5.458 1.141 1.86.491 4.653-3.301 3.078-3.157-.579.11-.931 1.177-1.393 2.016-1.28m-22.667.297c-.431 1.64-1.887 1.472 0 0m40.197.838c.508 1.665-1.162.18 0 0m-5.283.647c-1.054 1.615-1.636.293 0 0m-79.067.075c1.33 1.862.488 1.864 0 0m63.262 1.017c5.43.362-.746 7.41-1.599 1.518-.403-.986.695-1.747 1.599-1.518m-3.644.345c1.222.777-2.235.67 0 0m-25.342.015c-4.121 3.936 5.114 2.134 0 0m41.792.147c.883.28-1.115 1.545 0 0m-24.251.237c-1.797.734 1.519.38 0 0m-.615.472c-2.674.796-9.279 1.195-9.519 1.403 3.206.157 8.847 3.198 9.519-1.403m-10.274 1.269c-2.124-.399-3.919-.096-.73-.014zm-2.93-.184c-.266-.325-1.166.52 0 0m-.546.082c-1.71.564-1.57 1.097 0 0m21.415-1.259c.91 1.109-1.392.09 0 0m15.3.598c-3.242 2.478 2.1-1.406-.023 1.525-2.663 2.053-8.063 3.107-12.276 5.298-2.013.999-10.72 1.973-4.013 1.388 1.455-1.207-3.35 4.702-2.401 3.972-1.948-4.766-8.576-2.622-12.302-2.382-4.126 2.597.146 10.284-2.198 11.846.122-5.574-.008-14.306-8.057-12.419-3.208.248-11.474-1.765-10.715-3.063 9.54 2.77 19.588 3.954 29.439 2.232 7.955-1.27 15.933-3.66 22.546-8.397m-75.204.165c1.01 1.025.176 1.623 0 0m5.07.152c1.707 2.12 3.643 9.311.699 3.54-.145-1.159-.833-2.439-.7-3.54m22.624.627c.916 2.764-2.733 4.072 0 0m1.202.235c-.142 1.461-1.302 2.53-.246.455zm-22.453.107c2.816.976 3.748 9.87 1.322 4.207-.17-1.421-1.583-2.906-1.322-4.207m53.481.415c.695.415-.653 1.048 0 0m1.74.681c.931.73.15 2.158 0 0m-1.455.16c1.122.273.099 1.617 0 0m12.017.592c-.315 2.238-1.14 1.126 0 0m-64.553.341c1.058 3.185 1.185 1.6 0 0m4.577.148c3.604 2.59 3.54 8.057 5.523 11.845.468 2.26-3.173-4.222-3.354-5.542-.421-1.916-2.643-5-2.17-6.303m-2.277 3.221c3.35 3.953-.047 3.491 0 0m52.584.625c1.331 1.643-.881.08 0 0m-54.54.709c1.461.43 3.267 2.419.827 1.862-.212-.647-.527-1.253-.828-1.862m43.086.647c-2.493-.076.888.496 0 0m-30.902.4c2.336 2.605 5.654 7.843 4.069 10.86-3.417-3.82-1.082-6.608-4.34-10.853zm42.438.11c.685 2.79-2.112.701 0 0m-36.087.425c.707 1.89.6-.425 1.877 1.992.923 2.476 1.94 8.731 1.603 9.093-1.979-2.114-2.426-4.835-2.934-8.724-.132-.797-.294-1.592-.546-2.361m42.655.215c.68 2.43-1.635 5.27-.415 1.043l.135-.586zm-46.697.301c2.316.964 2.197 6.704.617 2.01-.181-.656-.765-1.276-.617-2.01m-12.104.025c.98.65.346 2.093 0 0m53.054 1.258c.738.501-.466 1.321 0 0m-41.999.018c.05.93 1.51.846 0 0m-1.204.3c.373 1.306-.972.144 0 0m35.21.05c1.4.547-.251 4.091.878 1.353-.11 2.194-1.132 8.7-1.898 2.934.463-1.229-.527-3.775 1.02-4.286m-22.832.814c1.395 1.79.29 2.031 0 0m3.01.153c.565 2.015 1.185 5.36 1.109 1.084 1.228-2.686 1.368 8.712.245 2.404-.37 2.62-.526 8.099-1.86 2.716-.982-2.297-1.613-6.286.165-5.131.205-.171-.102-1.063.342-1.073m26.038.019c1.006.434-.339 1.94 0 0m-13.075.356c.437 2.048.269 7.377-.416 7.836-.196-2.604-.373-5.31.416-7.836m-27.886.015c2.308 1.951-.912 1.112 0 0m26.649.424c1.469 1.89-.483 1.757 0 0m2.29.522c.46 2.084-.758 1.78 0 0m-34.182.716c1.969 1.365-.618 1.117 0 0m40.162.527c-.266.821.208 1.595 0 0m-22.079.166c1.622 1.1-1.526.714 0 0m16.555.28c1.318 1.167-.844.574 0 0m-2.54.333c.29 2.197-.685 1.797 0 0m-8.154.298c1.416 1.666-.13 1.63 0 0m22.87.178c1.33 1.643-.882.08 0 0m-27.358.163c.306 1.527 1.06.726 0 0m26.035.102c1.33 1.643-.881.08 0 0m-6.613.38c1.239 1.555-.758.897 0 0m-5.103.056c.35 2.89-.388 2.887 0 0m-25.42.513c-1.115 1.43 2.762 2.622 0 0m26.878.027c.668 1.574-1.173.479 0 0m-.855.084c1.331 1.642-.881.079 0 0m-16.147 1.064c1.787 1.706.143 2.113 0 0m13.563 1c.821.503-.43 1.111 0 0m-10.2 1.961c2.223 1.245-1.885 1.398 0 0" style="display:inline;fill:#000" transform="translate(-51.282 -97.055)"/></svg>