<?xml version="1.0" encoding="UTF-8" standalone="no"?>
<!-- Created with Inkscape (http://www.inkscape.org/) -->

<svg
   width="107.4213mm"
   height="103.0014mm"
   viewBox="0 0 107.4213 103.0014"
   version="1.1"
   id="svg1"
   xml:space="preserve"
   xmlns="http://www.w3.org/2000/svg"
   xmlns:svg="http://www.w3.org/2000/svg"><defs
     id="defs1" /><g
     id="layer1"
     transform="translate(-51.281911,-97.055181)"><path
       id="path1"
       style="display:inline;fill:#000000"
       d="m 104.36986,97.080896 c -4.513749,0.2728 2.73875,0.985514 0,0 z m 4.04574,0.0067 c 3.16741,-0.532366 4.44609,5.728084 5.1034,1.53291 -1.47448,-1.092205 -3.3707,-1.186798 -5.1034,-1.53291 z m -6.32364,0.08785 c -1.44967,0.211376 0.008,0.882181 0,0 z m 17.06252,1.00769 c -2.49475,0.954508 -2.72924,8.756534 -4.49108,3.833264 -2.73072,6.35505 -5.59425,-7.822095 -8.19865,-1.56836 2.0997,4.59126 -6.09046,8.54779 -5.29753,2.09504 -0.002,-4.254317 -5.886502,-3.941942 -3.55214,0.3699 -1.188477,2.71696 -3.229772,-0.14185 -5.4658,0.38145 -3.061104,-1.519 2.858631,-3.523913 -1.589705,-3.06278 -6.034349,-0.543602 -13.840417,1.83583 -16.181424,7.78285 1.134366,2.47745 -1.380637,10.17993 -2.914819,5.21028 0.541212,3.93575 -6.41219,6.92318 -4.385197,1.24567 0.06908,-2.72965 6.065776,-6.86303 0.75754,-4.1959 -2.85551,3.7309 -3.740625,9.26442 -8.836038,10.3711 -6.999831,7.91341 -8.837703,19.38051 -7.111954,29.53225 1.581286,8.05017 6.037692,15.07934 9.148334,22.54423 -2.031498,-1.9062 -4.663069,-10.17141 -2.753534,-3.40169 4.032096,15.2009 18.1385,25.41304 32.840171,28.99855 5.814643,1.3998 11.782006,2.20436 17.746586,1.44586 18.13612,-0.53577 36.67119,-11.90001 42.19337,-29.7422 1.15225,-7.21263 5.73079,-13.35957 6.77633,-20.59978 -0.61474,-1.60769 0.83092,-1.09162 0.18212,-4.06146 -1.85568,2.34769 -7.43643,4.90879 -5.54978,-0.55958 0.96344,-0.89213 -3.38331,1.29283 -1.32093,-1.28802 3.04915,-1.74493 8.90372,-1.85558 7.27059,-7.3348 -0.45967,-5.9474 -6.16643,-7.87695 -8.51188,-12.72587 -1.9648,2.27606 -3.12379,-5.41838 -7.08923,-4.98625 -2.68982,-0.0331 -2.7839,-7.30616 1.53139,-3.65869 1.75601,0.72891 6.15803,6.77466 3.33233,1.9226 -3.46255,-1.79266 -5.41269,-8.87351 -9.29891,-4.62245 -3.77388,4.02529 -2.83113,-6.52459 -7.35665,-4.0044 -1.45467,-3.7013 -11.72215,0.3286 -8.3809,-6.42243 2.18436,-1.50403 4.38804,4.63701 2.31556,-0.11812 -1.24481,-2.105966 -3.54232,-2.979005 -5.80817,-3.380264 z m 38.68446,51.239764 c 0.37338,-0.21825 -0.13351,-1.36717 0,0 z m -63.10002,-46.2323 -0.313676,-0.63407 z m 8.33076,-3.256131 c -1.99502,2.662151 2.61754,3.345221 0.63811,0.292081 z m -16.790192,1.306381 c 3.570203,1.62873 -0.869331,11.15891 -1.434084,4.54356 0.511372,-1.48041 -0.554121,-3.94919 1.434084,-4.54356 z m -4.114994,0.26975 c 1.51247,1.27025 -1.237559,0.8629 0,0 z m 1.64021,0.0987 c 1.198824,1.43583 -0.996618,0.61336 0,0 z m 7.491532,1.72703 c 3.915697,0.9376 -1.403428,2.64792 -0.342473,0.11023 z m 38.881864,0.27388 c 2.05814,1.53979 7.50437,4.16498 7.62775,4.90188 -1.43115,-2.88256 -4.68298,-4.18153 -7.62775,-4.90188 z m -46.729447,0.65681 c 2.544753,1.46818 1.998631,7.18667 -2.082359,5.34435 -2.303177,0.69928 -3.537148,3.75208 -5.330459,-0.4343 -1.461155,-3.69339 1.290917,-3.20438 3.301295,-1.82151 3.044685,0.0443 2.420088,-1.88057 4.111523,-3.08854 z m 27.820007,1.20871 c 3.13189,-0.0141 3.63877,2.65057 0.11714,1.84267 -3.71218,0.43911 -3.59522,-1.79927 -0.11714,-1.84267 z m -3.8995,1.14929 c 2.43292,0.8364 -2.2795,0.98518 0,0 z m 13.93093,0.61856 c 3.54141,0.72116 5.37605,4.59965 8.77602,5.37608 -3.95185,0.85519 -3.9844,6.1943 0.52315,5.88163 -3.59259,0.14427 -3.75662,-4.33061 -0.46562,-3.45262 1.19853,1.10977 3.39916,2.31991 0.74801,3.04502 1.57921,1.3206 6.05939,-1.99468 6.97501,1.29582 -2.89807,-2.11356 -1.77158,2.74693 -4.61332,3.19467 -1.24025,4.05485 7.63268,4.88665 3.20715,0.86138 -2.74801,-4.00134 9.09971,0.26143 3.2021,3.18252 1.37056,0.4612 7.05997,1.02117 5.65625,5.44806 -1.93369,3.64246 5.56241,1.66395 3.31565,6.09392 -1.78186,3.41666 -2.05425,8.13961 -4.26366,10.87738 -0.74847,-2.92739 0.1826,-2.16327 -0.22091,-3.42269 -0.72452,2.3847 -2.45289,3.64219 -2.41147,5.46875 -3.62812,-1.38177 -10.60904,-2.37185 -9.87952,3.75115 2.09773,2.11684 5.37454,-0.13457 2.18648,2.83649 1.07962,2.43472 5.13358,-0.56799 3.75908,3.84764 0.24996,4.78636 -5.30845,1.47812 -4.26977,0.18612 -0.87115,-0.81567 1.40782,-2.60449 -0.63832,-0.22826 -1.35344,4.25405 6.06429,5.00034 0.25772,7.15077 -1.82779,1.74728 -6.32757,3.86217 -10.0626,5.55342 -3.04315,1.53131 -8.84564,-0.32146 -7.76922,4.16116 -0.89082,-1.1243 -2.41917,4.64415 -5.73789,4.06724 -4.47253,2.0398 -5.02998,-6.45388 -8.89072,-1.39023 -2.66163,3.84845 -11.233605,-0.0442 -7.638227,-3.36861 1.188075,1.40606 7.160287,3.37474 6.363319,1.49833 -1.19032,-0.88558 0.137185,-1.61849 -2.646511,-1.56785 -2.762304,-1.99855 -2.837307,-7.56475 -5.746558,-6.71784 3.094419,2.68482 -4.030131,4.48129 -2.043374,-0.0952 -0.440263,4.81721 -7.728669,4.24015 -9.169111,1.61921 -0.486407,2.32783 0.762345,7.80011 2.877881,3.87591 6.868333,0.10989 -1.720895,7.34944 -3.60712,1.84635 -1.781147,-2.49395 -6.504772,-0.0583 -4.898178,-4.29267 -4.032791,-4.28585 2.344567,-3.87772 3.584395,-0.7173 4.701717,1.08464 -0.845158,-3.73126 -0.367864,-5.98661 1.395764,-2.95416 -3.842634,-5.48786 -2.903954,-4.95694 0.9784,-1.38584 -4.232957,-1.51207 -2.5439,1.85579 -2.779565,1.15988 -6.173227,-5.92328 -1.793978,-7.62916 4.931822,-3.25471 -0.01163,-6.04175 -3.756857,-6.0419 -3.332811,-3.71208 -3.023445,-10.23994 -0.429335,-14.35912 2.3223,-4.034 8.533001,-5.5055 7.869292,-10.31603 3.687147,-1.84162 2.638221,-5.0334 6.429719,-5.98306 3.508533,-2.876 -5.277488,-6.21887 1.225182,-6.56402 5.735714,-0.26952 10.098529,-5.64273 16.005867,-4.78283 3.119802,0.71075 6.560082,-1.64889 9.592872,-0.0418 0.82178,2.28318 -1.77553,5.54509 1.4444,2.34993 3.95567,-4.13368 6.25153,6.37843 0.49788,2.96525 -2.7746,0.35529 0.99261,5.14316 0.61367,5.53548 -0.45768,2.29328 -3.45297,4.21299 -2.35663,0.24309 -1.66282,-2.58781 -7.09974,4.26124 -3.83876,5.08838 -2.09989,-1.4012 -4.047123,-0.9185 -6.448122,0.75094 -1.79798,-1.39104 -7.225667,-3.48471 -6.52395,1.86302 0.175016,3.97928 4.795698,3.55636 5.388999,6.34897 1.810807,-1.47405 7.991153,-0.34407 2.999227,0.3019 -2.843387,1.93605 0.921197,9.44488 -2.547607,6.69129 0.706682,6.09799 12.535663,2.70273 11.488643,-2.11506 -0.61284,-3.22102 2.09503,-8.53269 5.64107,-5.03695 -5.05427,-0.61644 0.53942,5.50143 2.42047,1.19922 0.0419,-1.89749 -3.15446,-5.30006 -0.85468,-5.17624 2.47462,0.82013 6.43324,-1.50913 4.66963,-4.84522 -0.64317,-2.69431 -7.03495,-3.00781 -1.92241,-4.77855 5.63875,2.29763 9.31088,-6.26665 2.47071,-6.92362 -1.59108,-0.0511 -6.4648,-0.20675 -4.16402,-2.82418 2.8416,-2.16366 7.09557,-0.0376 8.58515,1.29091 0.28225,-2.27303 -4.73212,-3.02643 -3.35083,-3.98863 z m -3.84731,5.12114 c -0.0837,-0.26093 -0.79637,0.0901 0,0 z m 13.14648,6.13657 c 0.27283,0.31209 1.35301,-0.36383 0,0 z m -0.31729,-10.01282 c 0.0743,2.39562 -3.33959,1.39619 0,0 z m -19.79362,0.0899 c 6.09166,0.32377 -3.33875,1.17441 0,0 z m 2.69647,0.50074 c 1.21487,0.36309 -0.5137,0.82869 0,0 z m -12.12794,0.62942 c -4.204406,0.77904 4.12161,4.43115 0.59711,0.1885 l -0.2916,-0.1878 z m -11.137821,0.71985 c -3.711562,1.44438 1.680548,1.38871 0,0 z m 7.494633,0.1819 c 0.296992,1.88045 4.233438,1.20662 0.52936,3.9e-4 z m -1.735294,1.31362 c -2.382296,2.17912 3.216941,2.42529 3.602313,3.73011 2.976139,-2.42269 -3.319081,-2.39745 -3.602313,-3.73011 z m 20.047872,0.19895 c 1.02237,0.41617 -0.56768,1.2334 0,0 z m 2.36678,0.54364 c 5.27461,1.30113 -3.33383,2.71317 0,0 z m 19.79621,0.12454 c 0.19727,1.52563 -1.3342,0.90092 0,0 z m -6.00997,0.16898 c 4.60548,1.50893 -1.30451,0.74685 0,0 z m -16.77831,0.44752 c 2.40149,2.98289 -5.01818,2.49634 0,0 z m -51.177233,0.26096 c -2.00377,1.67285 -4.013838,7.56209 -1.25212,2.39056 0.435078,-0.78521 0.975889,-1.52749 1.25212,-2.39056 z m 21.280871,0.0718 c -0.01911,0.01 0.0093,0.0501 0,0 z m 23.615092,0.30283 c 1.13613,0.46534 0.86514,1.364 0,0 z m 8.12302,0.10387 c -0.20555,1.3284 -1.61044,1.3386 0,0 z m 0.69712,0.33693 c 1.66716,0.97073 -0.69255,1.03745 0,0 z m -5.19917,0.28939 c 0.71418,0.64494 -0.19927,1.3618 0,0 z m 9.16637,0.44855 c 0.15395,1.41186 -2.05501,0.76161 0,0 z m -33.819127,0.27337 c -4.774457,1.77677 3.300425,-0.17225 2.747119,3.42924 -4.863913,-1.63156 -1.03663,9.52225 0.346649,2.40285 1.28134,-2.73682 0.39449,-5.82437 -3.093768,-5.83209 z m -1.842265,1.24591 c -0.46269,-0.007 0.111147,0.37944 0,0 z m 25.380882,-0.76842 c 2.7589,3.22807 -5.14321,1.40177 2e-5,0 z m 6.59029,0.0341 c 2.45573,3.14688 -6.07311,2.00198 -0.61691,0.0513 l 0.61693,-0.0513 z m -43.259372,0.26562 c 4.308193,-0.0129 0.582781,3.21472 0,0 z m 61.786412,0.0279 c 0.49293,1.35217 -0.79459,0.81197 0,0 z m -58.717348,0.18191 c 0.513038,0.86397 -0.853906,0.88353 0,0 z m 61.122888,0.26716 c 1.21475,0.36306 -0.51344,0.82862 0,0 z m -58.87393,0.0372 c 2.371285,3.69208 -3.985767,3.07725 0,0 z m 39.97844,0.24288 c 1.59956,1.64749 -0.91062,0.81201 0,0 z m 2.07584,0.11937 c 1.0453,0.58676 0.28868,1.47006 0,0 z m -34.316251,0.0801 c -1.860166,2.48953 3.531234,1.28453 0,0 z m -7.991243,0.42633 c -0.417566,0.31026 0.03576,1.13943 0,0 z m -8.182963,0.57671 c 2.144935,-0.27383 4.486577,3.20474 1.929598,2.16524 -1.149374,-0.80406 -2.627531,3.97378 -1.903693,0.23599 -1.356813,-2.91779 -1.567206,2.5448 -3.063125,-0.57475 0.39595,-1.2178 1.900054,-1.67665 3.03722,-1.82648 z m 48.941197,0.26355 c 1.33071,1.64235 -0.88124,0.079 0,0 z m -45.21791,0.20981 c 1.729247,0.69397 -0.469856,0.73781 0,0 z m -11.874211,1.09037 c 5.788131,0.83127 -3.565767,5.23604 -4.237997,7.72427 -2.169469,2.34559 3.427752,5.589 -1.359545,4.53927 -3.835856,-3.26584 -0.575065,-10.95833 3.92804,-12.02827 l 0.850882,-0.16186 z m 49.327741,0.10283 c 0.59138,1.2403 -0.0123,1.54064 0,0 z m 12.92324,0.37724 c -5.88672,1.64076 4.80931,4.22005 2.55666,0.5854 -0.79643,-0.37928 -1.67905,-0.55783 -2.55666,-0.5854 z m -36.222596,0.032 c 1.266934,0.15157 0.343113,0.9599 0,0 z m 22.180046,0.25477 c 1.16828,1.59542 -0.84047,1.57653 0,0 z m -6.09524,0.3452 c 2.21562,0.90021 -1.14927,1.28116 0,0 z m 45.54864,0.30075 c -2.2986,3.1141 6.2967,8.5697 2.28098,2.90519 -0.72969,-0.93372 -1.10347,-2.46358 -2.28098,-2.90519 z m -77.172549,0.0832 c 1.78603,1.2335 -1.621098,1.32568 0,0 z m 35.763189,0.62012 c 1.02234,0.41738 -0.56775,1.23351 0,0 z m -5.14955,0.18242 c 0.89744,2.14995 -2.73489,1.58013 0,0 z m 8.28425,0.2191 c -0.59698,1.59046 -1.24999,-0.007 0,0 z m 0.28887,0.0894 c 1.09647,0.99382 -0.62111,2.28184 0,0 z m -40.028568,0.12144 c 1.914511,0.96744 0.981219,2.02472 0,0 z m 33.227428,0.154 c 0.59712,2.00841 -2.32998,0.89488 0,0 z m -26.743069,0.35967 c -0.02207,0.075 0.09006,-0.0104 0,0 z m -9.571509,0.0217 c 1.088587,0.45465 -0.837988,0.88522 0,0 z m 39.551078,0.30903 c 1.51925,0.23737 -0.48329,0.86169 0,0 z m -32.454354,0.45372 c 0.07734,0.039 0.01885,-0.005 0,0 z m 15.739608,0.1173 c 0.42189,2.61654 -2.835787,1.16357 0,0 z m 21.688596,0.19999 c 0.79741,0.26593 -0.44194,1.05672 0,0 z m -46.161004,0.0708 c 3.733126,0.53278 0.159523,1.30316 0,0 z m 2.24069,0.0801 c 1.180192,1.14713 -0.03247,1.4639 0,0 z m 64.062754,0.13436 c 1.21498,0.36522 -0.51392,0.82892 0,0 z m -24.27707,0.37052 c 1.44699,1.59101 0.85495,2.12593 2.32516,0.83151 0.99487,4.79817 -4.1714,2.60255 -2.32516,-0.83151 z m 21.03386,0.0832 c -2.4852,0.79104 -0.93622,2.55468 0,0 z m -63.46486,0.004 c 3.464499,0.5336 -1.240753,1.76826 -1.114082,2.48136 -1.717975,-0.33266 0.140793,-2.44427 1.114082,-2.48136 z m 49.9091,0.24959 c 3.20882,2.1079 -4.30042,4.11312 -1.59726,0.16652 2.0042,0.74281 0.47931,1.49352 1.59726,-0.16652 z m -21.064866,0.48421 c -0.999107,1.85284 -1.760065,0.0131 0,0 z m -12.374955,0.21704 c -2.273726,0.4642 -4.779143,1.72021 -2.236066,2.46785 -0.807094,1.6437 -3.678025,2.74285 -1.483604,4.97512 -4.48278,-2.01849 -9.283922,7.71598 -2.071026,6.90645 2.217869,-0.0532 5.818107,-0.0743 2.549341,2.48086 -0.421988,3.84971 7.66928,2.06646 3.132375,-1.01917 0.445631,-2.49606 6.100992,0.33191 2.349149,0.90105 2.584919,2.92187 -7.645075,3.3316 -1.25088,3.81923 4.858651,0.33558 8.280384,-6.07771 2.484162,-7.92532 -1.387621,-3.22679 1.308862,-4.75771 0.216359,-9.34163 -0.480252,-1.64827 -1.882896,-3.18776 -3.68981,-3.26444 z m 3.373437,9.7994 c 0.426513,-0.0598 -0.138044,-0.40411 0,0 z m -16.922998,-9.7441 c 0.857857,0.68271 -1.19251,0.57348 0,0 z m 35.921842,0.0305 c 2.64284,2.64607 0.7181,7.21357 -2.8521,4.55325 -0.36318,-2.28615 -4.543421,-2.46829 -0.26648,-2.14782 1.27704,-1.95477 3.36002,0.27437 3.11858,-2.40543 z m 2.0407,0.0367 c 0.81973,2.84119 -2.43536,0.75354 0,0 z m 6.15311,0.0651 c 0.67385,1.7138 -0.3776,1.9737 0,0 z m -13.4953,0.17622 c 4.91398,0.60679 -0.19105,3.23301 -0.66888,0.12676 l 0.66888,-0.12677 z m -4.216279,0.15347 c -1.06217,2.54256 3.298039,6.92336 -0.501696,4.26389 -1.186533,-1.37415 -0.999314,-3.22098 0.501696,-4.26389 z m -3.185335,0.22066 c 0.955348,0.92577 -0.321861,2.97347 0,0 z m 50.349384,0.24753 c 2.31224,1.70186 -1.99071,1.55668 0,0 z m -34.90175,0.12454 c 0.7157,0.25849 -0.51522,1.86156 0,0 z m -10.089822,0.28991 c 2.145562,3.69667 -4.540288,2.69978 0,0 z m 29.316042,0.14469 c -1.71793,3.24709 4.276,3.75316 1.20631,0.56506 l -0.9717,-0.55266 z m -59.935878,0.0553 c 1.970428,0.35083 -1.251578,2.00481 1.278137,1.39551 -1.360813,3.13139 -6.015685,-1.01804 -1.278137,-1.39551 z m 22.893693,0.11213 c 0.666615,0.28415 -0.556006,1.67069 0,0 z m 26.764255,0.0367 c 0.79733,0.2678 -0.44195,1.05723 0,0 z m -57.649192,0.0186 c 0.513168,0.86619 -0.853728,0.88595 0,0 z m 45.818392,0.0227 c 0.27083,2.22366 2.64637,1.63552 0,0 z M 84.031047,128.079 c 1.733809,2.57554 -2.006604,0.14395 0,0 z m 64.018833,0.0584 c 1.76365,4.17677 -3.79341,1.83857 0,0 z m -82.769627,0.0124 c 1.302711,0.19088 -0.03782,1.79008 0,0 z m -3.100586,0.18914 c -0.247698,2.28318 -1.236836,0.3372 0,0 z m 1.569413,0.46922 c 1.19665,1.89609 -2.114114,2.99103 0,0 z m 2.136821,0.17828 c 1.254875,0.59374 -0.03041,1.79733 0,0 z m 26.966313,0.0987 c 2.836981,0.39889 -0.90436,1.12568 0,0 z m 17.585486,0.0155 c -0.99632,1.6178 -2.20465,0.95414 0,0 z m 41.6233,0.0429 c 5.176,2.10193 -4.6716,7.6038 -1.44408,2.38351 1.58703,-1.31123 -1.67408,-1.51376 1.44408,-2.38351 z m -19.62361,0.24701 c -0.0205,0.0195 0.0271,0.0148 0,0 z m -70.467529,0.0553 c 1.566735,2.26747 -1.770205,2.51252 0,0 z m 65.902439,0.077 c -1.08383,1.98118 -2.28352,5.93347 -0.007,2.27026 0.73089,-1.51094 2.33333,-0.60926 0.007,-2.27026 z m -67.890948,0.12764 c 0.900812,0.77006 -0.834164,0.69823 0,0 z m 35.645886,0.031 c 1.968933,1.36522 -0.61773,1.11715 0,0 z m 4.828132,0.6165 c 1.4486,0.63916 -0.893841,1.15627 0,0 z m -17.427363,0.13177 c 3.709725,0.0196 1.219533,5.61858 -1.056033,1.68938 -2.824754,-2.2614 1.654226,-0.53126 1.056033,-1.68938 z m 2.156458,0.12351 c 1.522675,1.1541 0.478634,1.59303 0,0 z m 41.713735,0.1664 c -0.50548,0.19173 -0.31458,0.11932 0,0 z m 7.3427,0.0992 c -0.26387,0.25826 0.0341,0.10892 0,0 z m -69.331684,0.17466 c 1.147176,0.41693 -0.81373,0.606 0,0 z m 69.905294,0.16744 c -2.20725,1.45811 0.61915,1.75534 0.51604,1.718 1.00897,2.595 2.23774,-3.79255 0.0999,-0.98006 l -0.16838,-0.50872 z m -70.855623,0.0708 c 3.006624,1.56014 -2.652408,1.80222 0,0 z m 38.262783,0.19121 c 4.46471,-0.50249 2.16296,3.24018 -0.54198,0.84535 -1.13506,-0.45979 0.11905,-1.14341 0.54198,-0.84535 z m 50.14061,0.41186 c -0.4831,0.86149 1.51916,0.23628 0,0 z m -86.276908,0.12609 c 1.622177,1.10075 -1.526026,0.71381 0,0 z m -10.467061,0.12144 c 3.046529,-0.35081 6.736418,8.02466 1.811258,4.02766 -4.143426,-4.27782 4.13593,5.5718 -1.481032,2.64036 -1.818514,2.00262 6.48011,7.68019 0.969859,5.1793 -3.119054,-2.12885 -5.715166,-10.12399 -1.300085,-11.84732 z m 9.576159,0.18035 c 1.476286,1.6634 -0.223913,2.14689 0,0 z m 41.15769,0.18397 c 3.25617,1.77903 -2.37119,1.38264 0,0 z m -20.124348,0.14676 c -0.236875,1.995 -1.277722,1.21623 0,0 z m -16.899744,0.16433 c -0.165164,-0.0457 -0.07413,0.29565 0,0 z m -5.247742,0.20464 c 2.209666,1.51872 -1.259701,2.19064 0,0 z m 18.698084,0.60048 c 2.114186,1.01842 -0.05539,1.26407 0,0 z m 42.41395,0.30385 c -1.92588,0.56892 -4.74017,3.41456 -3.40646,0.7305 -7.22662,5.29172 10.78092,3.68824 3.40646,-0.7305 z m -20.57136,0.12093 c 0.51005,1.48788 1.05561,-0.44876 0.7492,1.21796 3.84827,0.0277 -3.75153,2.75337 -1.33974,-1.02265 l 0.59054,-0.19479 z m -23.332422,0.1757 c 1.20042,1.0938 0.688733,1.16465 0,0 z m 75.352502,0.0398 c 3.36828,2.75865 -5.56308,2.60823 -0.63764,0.10697 z m -77.035603,0.11575 c 1.457706,0.51797 -0.97179,1.19397 0,0 z m -16.400033,0.0646 c 2.944736,1.91005 -2.245908,1.72778 0,0 z m 62.384306,0.32711 c -0.15497,1.93863 -2.37731,1.57286 0,0 z m -23.28695,0.0155 c 0.79746,0.26498 -0.44195,1.05653 0,0 z m -37.348625,0.25373 c 2.563677,0.65964 -1.433937,2.25595 0,0 z m 37.076285,0.58963 c 5.52231,2.32708 -2.973387,2.23413 0,0 z m -26.09711,0.55914 c 0.116819,2.33072 -2.438483,-0.0673 0,0 z m 2.290299,0.12609 c 0.482423,2.26937 -4.000614,3.09397 -0.8752,0.57962 z m 1.478463,0.062 c 3.728885,0.30362 -0.765332,2.14088 0,0 z m 0.640788,0.75138 c 0.0574,0.0278 0.0052,-0.0378 0,0 z m 74.46574,-0.4408 c 4.52248,1.54707 -3.8287,3.6012 -0.79094,0.0948 z m -78.400384,0.36328 c 0.628327,2.29648 -2.294612,0.0403 0,0 z m -8.255827,0.55759 0.02584,0.0367 z m 14.625981,0.11473 c 2.039556,0.26011 -1.116772,1.60037 0,0 z m -15.505514,0.30075 c -4.946173,1.0067 0.41822,2.39671 1.640637,3.47875 1.08536,-1.06184 -0.357105,-3.29827 -1.640637,-3.47875 z m 39.351604,0.22789 c 0.4713,1.69256 1.37478,-0.92371 -0.34721,1.98682 -3.53174,1.68875 -2.6313,-2.51566 0.34721,-1.98682 z m -26.805599,0.13488 c 0.105441,1.6856 -1.327619,-0.18429 0,0 z m 7.113777,0.19637 c 0.830868,0.22713 -0.327696,1.44245 0,0 z m -24.706502,0.29042 c 1.095895,1.37309 -0.291262,2.19857 0,0 z m 43.370484,0.0744 c -2.61909,1.4984 1.29246,1.87595 0,0 z m 42.84389,0 c 1.27887,0.48596 0.68192,2.65354 0,0 z m 5.24981,0.0589 c 6.01774,3.20189 -7.09071,3.08993 0,0 z m -72.138232,0.13384 c 2.768142,0.4472 -1.568312,1.75133 0,0 z m 20.145022,0.0165 c 0.55982,1.062 -0.66176,2.07761 0,0 z m -21.437449,0.0842 c 0.882409,0.28049 -1.115363,1.54517 0,0 z m 20.340359,0.0589 c 0.1542,2.50648 -1.199743,0.61438 0,0 z m 33.21554,0.1142 -0.0873,0.0186 z m -81.758312,0.19534 c 0.248483,2.84371 -0.494418,2.39905 0,0 z m 76.765342,0.0646 c -2.77501,1.23238 -6.9392,4.52387 -7.99861,2.02274 -0.84825,4.02807 10.26336,2.678 8.6939,-1.65555 l -0.30377,-0.28228 -0.39151,-0.0849 z m -29.718602,0.51004 c 2.411512,2.26954 -2.242687,1.97475 0,0 z m 51.004642,0.0522 c 1.31854,1.16728 -0.84366,0.57485 0,0 z m -11.85044,0.41703 c -4.6492,0.38627 2.03264,2.44058 7.6e-4,-2e-5 z m -9.62887,0.0775 c 1.61239,0.71088 -1.2288,1.64787 0,0 z m -27.496,0.29714 c 0.69348,2.2884 -1.814293,1.85024 0,0 z m -33.767446,0.077 c -4.118146,2.30347 3.260843,5.58645 1.734321,1.34753 -1.025711,0.0838 -0.859319,-1.21263 -1.734321,-1.34753 z m 72.943356,0 c -2.42583,2.01551 -4.1624,2.55135 -6.91333,2.12702 -0.67282,3.01295 -1.0114,3.0012 2.35856,2.47011 2.06037,0.85886 6.34528,-2.75352 4.55477,-4.59713 z m -80.949586,0.0522 c 3.206257,2.72597 -2.619366,1.04626 0,0 z m 36.413281,0.91932 c 0.741677,2.39358 -4.258403,-0.0552 -5.264489,3.24204 -3.501202,2.64374 -0.08024,6.46205 -1.034328,9.1184 -3.003036,1.40829 -3.642565,-6.64818 -3.971932,-0.76741 1.068345,2.09286 -1.902752,5.02348 -1.534888,1.64852 -5.155869,-1.39732 -9.79355,7.74713 -2.664808,9.08903 3.45072,1.09848 3.908603,3.26717 1.691378,5.20311 -0.520692,4.82197 6.575769,-0.73379 8.875528,-2.23466 5.64393,-1.13053 4.251673,-6.40436 2.982657,-10.33307 1.077211,-1.84943 3.710643,-4.20713 4.049989,-0.72712 1.355158,2.37508 4.830598,4.03299 3.138198,-0.0795 -0.14806,-2.29668 -1.09356,0.28874 -0.22982,-2.80796 -0.17554,-3.84503 -2.657723,-2.7242 -4.265365,-1.61302 -4.747778,-3.01756 2.721225,-7.72008 -1.772158,-9.73783 z m 6.229595,12.56358 c 0.20773,-0.16932 -0.13807,-0.11503 0,0 z m 24.89357,-12.55221 c 0.97405,1.66469 -1.58055,0.0564 0,0 z m 21.9568,0.22841 c 0.82082,0.5042 -0.43054,1.112 0,0 z m -64.845138,0.0868 c 1.119684,0.49094 0.528028,1.34042 0,0 z m -1.30793,0.11731 c 0.561666,2.15223 -0.915819,1.60533 0,0 z m 41.275518,0.0589 c 0.72328,0.71518 -0.15797,1.32629 0,0 z m -19.61689,0.11368 c -0.81907,0.40788 0.12355,0.31784 0,0 z m -33.347837,0.17519 c -0.881248,0.42276 -1.320056,0.63327 0,0 z m -2.98173,0.37155 c 0.967426,0.11199 -0.776936,0.79192 0,0 z m 77.491397,0.007 c -2.18401,2.03745 -0.1849,4.35759 0,0 z m -57.613024,0.18603 c 2.55985,0.16045 -0.210128,1.89161 0,0 z m 27.728024,0.11679 c -6.56864,0.25192 -1.6562,8.30262 2.543,5.15783 5.56341,-0.76802 0.8909,-5.43642 -2.543,-5.15783 z m 33.51423,0.11111 c 0.78782,0.88294 -0.55227,2.06429 0,0 z m -15.15359,0.38499 c 1.39094,1.55647 -1.88338,0.69163 0,0 z m -19.44481,0.13952 c 5.3985,0.35679 -4.05482,4.22255 -0.73748,0.60213 l 0.73748,-0.60163 z m -59.292507,0.3328 c 5.638447,2.04746 -4.07755,1.93132 0,0 z m -3.574976,1.01131 c 1.318448,1.16727 -0.843545,0.57487 0,0 z m 8.613944,0.50126 c 1.785622,1.09637 0.0016,1.37958 0,0 z m 53.916089,0.46405 c 1.44863,0.63916 -0.89385,1.15628 0,0 z m -19.625675,0.53795 c 1.098433,3.43844 -3.678345,1.97327 -5e-6,0 z m -1.508435,0.0155 c 0.550807,1.87168 -1.397536,1.32121 0,0 z m 22.66477,0.0832 c 1.57266,1.42379 -0.076,2.13428 0,0 z m 13.97227,0.0977 c 1.80034,0.87728 1.01845,0.0282 0,0 z m -39.176937,0.0341 c 2.382746,1.64582 -1.635678,1.40179 0,0 z m 39.010537,0.18397 c -1.45049,-0.57862 -4.2626,2.53052 -2.26138,0.10764 -4.1136,2.97589 1.32312,6.89674 4.1946,3.33711 0.76951,-1.49205 -0.1956,-3.29837 -1.93322,-3.44475 z m -11.96723,0.5333 c 0.69503,0.41501 -0.65362,1.04846 0,0 z m -65.136072,0.0124 c 1.218662,2.41566 1.86292,8.80368 2.412224,9.22325 -1.670039,-2.78575 -1.795442,-6.11728 -2.412224,-9.22325 z m 47.308223,0.10232 c 0.01778,0.0273 0.104603,0.0393 0,0 z m 0.0615,0.0367 0.03669,0.0243 z m 47.326819,0.62787 c 1.58509,0.65175 -0.9989,1.92459 0,0 z m -57.113301,0.18862 c 2.521674,1.58899 -0.828969,0.52381 0,0 z m 58.503921,0.16226 c 0.70645,1.92727 -1.82514,4.67711 -0.61814,0.86572 l 0.32354,-0.66515 z m -19.73575,0.24288 c 0.72607,2.59471 -3.33337,0.99635 0,0 z m -72.498929,0.13436 c 3.679548,-0.48569 5.142147,7.40425 1.131741,5.08425 0.296922,-2.54871 -0.337946,-3.53928 -1.623102,-3.85659 -0.09983,-0.39076 -0.08982,-1.18015 0.491361,-1.22766 z m -4.081405,0.0274 c 1.330565,1.64231 -0.881081,0.079 0,0 z m 84.531274,0.38034 c -0.42878,0.20112 0.75955,0.16467 0,0 z m 9.03665,0.0858 c 0.37409,1.37329 -1.65391,1.37891 0,0 z m -16.4853,0.0434 c 0.85773,0.6839 -1.19142,0.57403 0,0 z m -34.503311,0.0217 c -0.554116,1.94199 -4.38068,4.7278 -2.567276,1.11412 0.669478,-0.69306 1.642676,-0.99152 2.567276,-1.11412 z m 58.133921,0.24753 c 4.91375,1.13095 -2.2557,7.56482 -2.2335,1.60265 0.0348,-1.08269 1.44411,-1.36234 2.2335,-1.60265 z m -100.44865,0.28009 c 1.330562,1.64235 -0.88123,0.079 0,0 z m 94.6764,0.0775 c 0.94226,1.63865 -2.09937,2.97653 -0.30276,0.20116 l 0.30278,-0.2014 z m -4.49792,0.0274 c 3.15772,0.59903 -1.44346,2.58687 0,0 z m -8.92659,0.22686 c -0.2505,2.1017 -1.81935,1.20037 0,0 z m -21.1553,0.17157 c -3.55357,-0.71271 -4.24944,5.40217 -0.23871,2.87854 1.12868,-0.54776 -0.0849,-3.38172 2.26304,-0.84255 3.51579,1.32904 0.0301,-2.90415 -2.02433,-2.03599 z m -46.704126,0.19947 c 0.725886,2.24036 -1.56246,1.42628 0,0 z m 79.476286,0.0899 c 1.33073,1.64215 -0.87976,0.0794 0,0 z m -49.830034,0.0181 c 2.673719,1.67837 -2.772429,4.9234 -0.793506,0.67787 l 0.373277,-0.48706 z m 38.473624,0.1633 c 0.32089,1.57752 -1.27146,1.19726 0,0 z m -65.236848,0.0124 c 2.148344,1.42983 0.176142,2.67507 0,0 z M 52.742,151.55509 c 1.318442,1.16726 -0.843539,0.57486 0,0 z m 84.48167,0.0119 c 4.18853,-0.81756 2.52563,6.9467 0.72627,4.54836 0.87939,-1.94883 2.15389,-4.63756 -1.26356,-3.8463 l -0.13813,-0.57804 z m -69.511524,0.65835 c 2.012393,1.54917 -1.149606,1.12385 0,0 z m 75.944204,0.10077 c 1.26748,0.14937 0.34294,0.96181 0,0 z m -10.98228,0.59635 c 0.87045,0.56604 -0.31885,1.21429 0,0 z m -37.133648,0.0212 c -1.046323,1.02716 -0.08866,1.51305 0,0 z m 17.134868,0.22479 c 1.09826,0.46864 -0.80674,0.8427 0,0 z m 36.93212,0.0181 c 0.87041,0.56693 -0.31886,1.21456 0,0 z m -12.61577,0.22272 c 1.54824,1.01301 -0.68874,0.4859 0,0 z m 6.31021,0.003 c 0.88973,0.31618 -0.53835,1.81786 0,0 z m -77.403547,0.0873 c 0.905513,1.71901 -0.446928,2.49984 0,0 z m 69.877387,0.12609 c 1.5431,0.44355 -0.7439,1.09651 0,0 z m -67.991714,0.26045 c 2.067473,0.52762 -3.162627,0.65888 0,0 z m 1.378211,0.10336 c 0.129538,2.08538 -1.568112,1.4507 0,0 z m 64.675123,0.0977 c 1.61142,0.92211 -1.21281,0.7563 0,0 z m -60.054734,0.001 0.141594,0.19999 z m 64.483924,0.11369 c 0.21182,1.61881 -2.11318,0.99556 0,0 z m 12.01115,0.60461 c 4.69506,2.28364 -7.17994,4.63793 -2.36361,0.80601 0.55294,-0.7608 1.53669,-0.73986 2.36361,-0.80601 z m -65.015671,0.1018 c -0.358563,0.6549 0.292371,1.31775 0,0 z m 59.573111,0.42013 c 0.695,0.41503 -0.65362,1.04846 0,0 z m -56.038443,0.0124 c 0.944158,0.16291 0.05037,1.21688 0,0 z m 27.605553,0.36638 c -4.31591,3.34075 2.05738,9.90649 5.68866,10.65421 2.87928,-4.02712 -0.49019,-10.96706 -5.68866,-10.65421 z m -35.547187,0.19327 c 3.167495,0.17532 1.166216,2.5037 1.719884,2.16781 0.113125,1.63543 -1.259977,6.57386 -2.291117,2.07309 0.257899,-1.25541 -1.054344,-3.64851 0.571233,-4.2409 z m -4.158919,0.0207 0.133325,0.22893 z m 13.583667,0.078 c 2.980148,0.57215 0.797328,2.13227 2.494718,3.97899 -2.913068,1.38093 -6.440759,-2.43076 -2.494718,-3.97899 z m 41.207819,0.17209 c -1.57766,2.32488 -5.07694,0.99356 -6.04566,4.74028 1.87288,-2.00166 8.06327,-0.0227 6.04566,-4.74028 z m 14.21877,0.20412 c 0.90081,0.77007 -0.83417,0.69825 0,0 z m -23.0203,0.10593 c 0.0112,0.008 0.0577,0.008 0,0 z m -49.691022,0.0512 c -5.565689,0.71382 0.994088,5.23852 2.6718,1.23105 -0.224263,-1.10983 -1.793784,-1.12904 -2.6718,-1.23105 z m 70.588452,0.10336 c 0.0954,2.53245 -2.19834,0.0591 0,0 z m -24.46879,0.0341 c 0.75918,0.42021 -0.63434,0.88945 0,0 z m -54.572376,0.12713 c 0.193343,1.66372 -1.871877,1.89582 0,0 z m -6.451803,0.0207 c 4.037478,3.13789 8.863571,6.52771 11.572934,11.15501 1.486426,4.35023 -2.624082,4.06326 -3.309593,0.40955 0.349056,-6.49293 -9.669205,-3.85608 -9.622676,-9.95503 -0.09957,-0.75092 0.475804,-1.77493 1.359335,-1.60953 z m 57.717929,0.0863 c 0.90081,0.77008 -0.83418,0.69823 0,0 z m 29.10209,0.14779 c 0.49418,1.35392 -0.79692,0.80923 0,0 z m -13.51907,0.0155 c -0.0753,2.65319 -2.18033,1.18132 0,0 z m -24.75611,0.1912 c -3.8673,0.0741 -3.14699,5.6568 -0.10237,2.52341 0.52087,-0.54427 1.01592,-2.16802 0.10237,-2.52341 z m 13.44259,0.0636 c 1.39682,0.3535 0.19296,1.11655 0,0 z m -48.191372,0.27233 c 1.24789,0.23144 -0.427468,1.46356 0,0 z m -5.861658,0.53951 c 1.513115,1.2686 -1.23771,0.86331 0,0 z m 78.08206,0.14004 c 0.79729,0.26784 -0.44191,1.05713 0,0 z m -37.45198,0.003 c -0.97246,2.4467 -3.25395,1.36925 0,0 z m 8.88059,0.13539 c 3.00354,1.76448 -1.8754,0.77137 0,0 z m -48.554139,0.23048 c 1.185853,0.58331 -0.669763,0.98399 0,0 z m 50.867179,0.0496 c 2.32268,2.74325 -2.80165,1.55721 0,0 z m 25.38605,0.81855 c 1.33075,1.64238 -0.88124,0.079 0,0 z m -32.04146,0.007 c -4.43331,1.7881 1.03468,6.74844 1.54262,5.02729 -0.003,-0.57219 4.25988,-1.01254 0.43278,-2.22893 -2.57586,-0.36164 -1.03574,-1.40494 -1.9754,-2.79836 z m 39.57743,0.37827 c 3.82942,2.63393 -4.88012,5.63478 -6.77534,7.78785 -1.86079,3.63886 -7.58119,-1.41102 -2.29783,-1.49968 0.41247,-1.80755 5.79334,-7.74217 3.12028,-3.3917 -1.81661,4.60792 4.67084,-3.88416 5.95289,-2.89647 z m -65.153127,0.35554 c 0.820762,0.50504 -0.430383,1.11233 0,0 z m 57.158787,0.0703 c 1.00183,1.9282 -2.06677,2.32213 0,0 z m -7.59747,0.25063 c -1.3376,1.0224 -1.02452,1.24498 0,0 z m -13.29686,0.0827 c 0.79739,0.26595 -0.44195,1.05673 0,0 z m -29.069547,0.0202 c 1.213597,0.36467 -0.513834,0.82842 0,0 z m 26.011327,0.24598 c 1.06426,0.17434 -0.73036,1.02007 0,0 z m -32.507572,0.14987 c 0.717085,2.02856 -0.155298,2.16137 0,0 z m -12.040092,0.0847 c -0.551407,0.15804 0.735625,0.4511 0,0 z m 16.125631,0.008 c 2.541115,2.40445 -2.122307,1.80557 0,0 z m 2.262911,0.11369 c 1.330464,1.26988 -1.073404,1.78863 0,0 z m 32.318962,0.0434 c -0.0259,0.10086 0.24967,0.0801 0,0 z m -45.230319,0.10025 c 1.865128,1.60099 2.144993,4.02526 -0.132679,1.25678 -0.01638,-0.19414 -0.388294,-1.12661 0.132679,-1.25678 z m 45.347619,0.009 c 0.0142,0.0169 0.0879,0.0562 0,0 z m -40.933934,0.0408 c 2.703434,0.93578 3.786431,5.2657 0.469222,2.0376 -0.07649,-0.60181 -0.797768,-1.4045 -0.469222,-2.0376 z m 10.076904,0.0884 c 1.679224,1.17311 -0.05155,0.8751 0,0 z m 45.51763,0.33124 c 2.61132,0.95541 -2.28545,1.84301 0,0 z m -17.4625,0.0842 c 1.48776,1.71084 -1.36027,1.63962 0,0 z M 111.40715,162.11 c 3.57895,1.48336 -2.01413,2.06295 0,0 z m 29.7894,0.13281 c 0.79741,0.26593 -0.44194,1.05672 0,0 z m -12.66176,0.0858 c -2.66648,0.30995 -3.13248,2.66547 -1.35313,2.29861 -6.61373,7.39738 11.56234,1.11884 1.60114,-2.26502 l -0.24805,-0.0336 z m -10.40247,0.004 c 0.37251,1.30554 -0.97084,0.14328 0,0 z m -28.872652,0.0899 c 1.330581,1.64236 -0.881084,0.079 0,0 z m -0.79375,0.26459 c 1.33059,1.64233 -0.88109,0.079 0,0 z m 10.491349,0.31987 c -5.494755,1.32104 6.058463,1.85134 0.851289,5.06365 -3.47173,-0.0161 -1.869544,2.74786 -1.316311,2.26179 2.310575,-0.44959 2.134785,-1.55223 2.935675,0.96088 4.00484,-0.2779 2.13436,-7.72404 -1.875922,-8.22236 l -0.594191,-0.0639 z m 1.629363,7.12515 c -0.32652,-0.1993 -0.0382,0.31817 0,0 z m -8.558656,-7.01663 c 0.734424,0.25313 0.122999,1.34001 0,0 z m 9.816976,0.31058 c 0.98642,2.45218 1.72363,1.55968 0,0 z m -18.016992,0.17622 c 2.507812,1.10845 -0.854582,0.46863 0,0 z m 36.478392,0.1819 c 0.90081,0.77006 -0.83416,0.69822 0,0 z m -45.74656,0.0863 c 1.077452,2.12495 -3.956663,2.47165 0,0 z m 17.114201,0.39997 c 3.304972,1.68594 -2.601122,0.98345 0,0 z m -1.77922,0.12351 c 4.561785,2.37811 -3.124564,1.6424 0,0 z m 11.361579,0.18397 c 0.90081,0.77006 -0.83416,0.69822 0,0 z m -23.915334,0.1788 c -0.417561,0.31068 0.03625,1.13963 0,0 z m 50.869764,0.0961 c 0.14259,2.09823 -1.76646,0.52534 0,0 z m -39.861134,0.19947 c 1.266266,1.3456 -1.740769,0.97962 0,0 z m 41.683764,0.0294 c 0.7343,1.02883 -1.03744,0.22361 0,0 z m -60.105379,0.61599 c 3.255495,1.91675 -2.208994,1.95599 0,0 z m -11.09958,0.0765 c 1.891963,2.56267 -0.811713,1.2039 0,0 z m 29.980598,0.17311 c 0.797407,0.26588 -0.441923,1.05686 0,0 z m 12.801801,0.26975 c 3.22088,1.74628 -0.76106,2.62151 0,0 z m 27.76523,0.11369 c 0.93141,0.73124 0.15042,2.15755 0,0 z m -21.18733,0.70022 c -3.45187,0.16921 -1.36042,3.97235 -0.94539,4.52698 -2.92704,0.0412 -5.33502,3.21922 -0.78026,1.98096 3.40208,2.75231 7.90938,-5.6852 1.72565,-6.50794 z m -46.105201,0.17518 c 0.418408,0.88491 -1.139935,0.61101 0,0 z m 75.431571,0.56844 c 1.32829,0.45314 -1.57909,1.30969 0,0 z m -76.259944,0.40204 c 0.77178,2.35317 4.882691,9.10064 2.145733,2.98195 -0.289546,-2.87327 5.228128,8.21917 0.786354,4.15496 -1.146647,-2.28886 -1.985632,-4.77703 -2.932087,-7.13691 z m 43.409234,0.32143 -0.0289,0.061 z m -33.392275,0.009 c 3.312366,2.23226 -3.564803,4.74862 0,0 z m 31.582565,0.17208 c 0.38689,1.78718 -1.26534,0.94191 0,0 z m 30.07414,0.14521 c 0.695,0.41503 -0.65361,1.04847 0,0 z m -14.55674,0.0212 c -2.6784,-0.0566 -4.12109,3.94982 -1.23145,1.4919 0.43318,-0.0639 3.65879,-1.62121 1.23145,-1.4919 z m -10.5916,0.19017 c 1.3307,1.64233 -0.88125,0.079 0,0 z m 13.29635,0.0103 c -4.7788,1.48805 5.03876,3.63443 1.19217,0.25838 l -0.64397,-0.18601 z m -33.690969,0.0987 c 1.065862,0.23582 -0.508711,1.16111 0,0 z m 48.782549,0.005 c 4.84427,-0.45031 4.49161,3.201 1.01433,4.57668 -3.13044,0.62114 -5.25435,-4.58768 -1.01433,-4.57668 z m -4.20129,0.0574 c -0.66066,0.37924 0.50646,0.22482 0,0 z m -68.248549,0.55863 c 3.686072,5.22973 10.495988,6.99294 14.605306,11.62461 -5.130637,-3.46497 -11.748086,-5.66493 -14.605306,-11.62461 z m 66.030599,2.02364 c 2.94724,-0.62997 2.96152,5.45741 1.14105,1.85873 0.49107,4.65423 -3.30159,3.07858 -3.1575,-0.57812 0.10939,-0.93102 1.17733,-1.39299 2.01645,-1.28061 z m -22.66684,0.29611 c -0.43133,1.64039 -1.88761,1.47204 0,0 z m 40.19703,0.83819 c 0.50752,1.66572 -1.16234,0.17976 0,0 z m -5.2834,0.64699 c -1.05414,1.61549 -1.63587,0.29301 0,0 z m -79.067005,0.0749 c 1.329934,1.86196 0.487723,1.86416 0,0 z m 63.261775,1.01751 c 5.43089,0.36207 -0.7462,7.41084 -1.59865,1.51742 -0.40301,-0.98547 0.69454,-1.74611 1.59865,-1.51742 z m -3.64422,0.34468 c 1.22202,0.77691 -2.23493,0.66973 0,0 z m -25.341611,0.0155 c -4.120902,3.9361 5.113661,2.13402 0,0 z m 41.792281,0.14676 c 0.88245,0.28052 -1.11551,1.5452 0,0 z m -24.25123,0.23667 c -1.79734,0.73423 1.51885,0.37972 0,0 z m -0.61547,0.47181 c -2.67356,0.79662 -9.27854,1.19575 -9.51831,1.40376 3.2058,0.15717 8.84654,3.19768 9.51831,-1.40376 z m -10.27327,1.26917 c -2.12453,-0.3985 -3.918858,-0.0956 -0.72968,-0.0135 z m -2.93006,-0.18396 c -0.26626,-0.32493 -1.166483,0.52087 0,0 z m -0.54622,0.0822 c -1.709399,0.56451 -1.570817,1.09713 0,0 z m 21.41523,-1.25884 c 0.90902,1.10872 -1.39203,0.089 0,0 z m 15.29933,0.5979 c -3.24129,2.47782 2.1013,-1.40646 -0.0227,1.52519 -2.66266,2.05255 -8.06268,3.10728 -12.27559,5.29764 -2.01353,0.99917 -10.72095,1.97271 -4.01371,1.38831 1.45546,-1.20681 -3.34876,4.70162 -2.40073,3.97201 -1.94822,-4.76618 -8.57601,-2.62243 -12.30176,-2.38183 -4.12588,2.5969 0.14602,10.2836 -2.19844,11.84594 0.122,-5.57433 -0.008,-14.30613 -8.057067,-12.41913 -3.208007,0.2478 -11.473216,-1.76523 -10.714696,-3.06288 9.540202,2.77022 19.588093,3.95345 29.438933,2.23199 7.95515,-1.27045 15.93347,-3.66106 22.54579,-8.39724 z m -75.203164,0.16485 c 1.009503,1.02472 0.175566,1.62357 0,0 z m 5.068941,0.15193 c 1.707701,2.12078 3.643231,9.31161 0.69969,3.54048 -0.144541,-1.1588 -0.832755,-2.43906 -0.69969,-3.54048 z m 22.624976,0.62683 c 0.915428,2.76404 -2.732836,4.07245 0,0 z m 1.201994,0.23565 c -0.142055,1.46112 -1.302596,2.52901 -0.246184,0.45466 z m -22.45341,0.10697 c 2.816468,0.97564 3.748581,9.86976 1.321747,4.20723 -0.169801,-1.42178 -1.582901,-2.90649 -1.321747,-4.20723 z m 53.481493,0.41444 c 0.695,0.41503 -0.65362,1.04846 0,0 z m 1.73891,0.68161 c 0.93189,0.73048 0.15002,2.15742 0,0 z m -1.45418,0.15968 c 1.12235,0.27343 0.0988,1.61737 0,0 z m 12.01736,0.59221 c -0.31565,2.23796 -1.14021,1.12573 0,0 z m -64.553684,0.34107 c 1.058257,3.18451 1.185038,1.60021 0,0 z m 4.576982,0.14779 c 3.604219,2.58906 3.540234,8.05716 5.523177,11.84476 0.468247,2.26108 -3.172514,-4.22187 -3.354176,-5.54184 -0.420782,-1.91596 -2.643157,-5.00002 -2.169001,-6.30292 z m -2.276864,3.221 c 3.350721,3.95348 -0.04733,3.49126 0,0 z m 52.584386,0.62528 c 1.33071,1.64236 -0.88124,0.079 0,0 z m -54.540856,0.70848 c 1.461775,0.43012 3.267225,2.41909 0.827664,1.86221 -0.211624,-0.64725 -0.526869,-1.2533 -0.827664,-1.86221 z m 43.086776,0.64699 c -2.49305,-0.076 0.88831,0.49615 0,0 z m -30.90199,0.39946 c 2.336292,2.60538 5.653741,7.84342 4.06837,10.86065 -3.416458,-3.81992 -1.081873,-6.60761 -4.339154,-10.85238 l 0.270784,-0.008 z m 42.43772,0.11162 c 0.68475,2.78893 -2.11152,0.70027 0,0 z m -36.087203,0.42375 c 0.706922,1.8911 0.600525,-0.42426 1.876992,1.99212 0.923695,2.47673 1.94102,8.73157 1.603177,9.09363 -1.978748,-2.11435 -2.426328,-4.83563 -2.933408,-8.72421 -0.132595,-0.79731 -0.294921,-1.59232 -0.546761,-2.36154 z m 42.655793,0.21497 c 0.67966,2.43065 -1.63579,5.27098 -0.41598,1.04373 l 0.13587,-0.5861 z m -46.697407,0.30179 c 2.315867,0.96372 2.197196,6.70391 0.6165,2.0097 -0.180947,-0.65637 -0.764773,-1.27565 -0.6165,-2.0097 z m -12.103654,0.0248 c 0.979069,0.64993 0.345179,2.09329 0,0 z m 53.053611,1.25832 c 0.73786,0.50055 -0.46609,1.32061 0,0 z m -41.998988,0.0176 c 0.05071,0.93083 1.509392,0.84575 0,0 z m -1.204061,0.30076 c 0.372512,1.3056 -0.971796,0.14307 0,0 z m 35.209219,0.0501 c 1.40029,0.54585 -0.25027,4.09054 0.87902,1.35186 -0.10932,2.19385 -1.132,8.70028 -1.8981,2.93457 0.46297,-1.22913 -0.52666,-3.77504 1.01908,-4.28643 z m -22.83168,0.81287 c 1.395574,1.79055 0.289874,2.03149 0,0 z m 3.011186,0.15297 c 0.564564,2.01559 1.184407,5.35989 1.108248,1.08469 1.228211,-2.68629 1.368256,8.71166 0.244969,2.40364 -0.369051,2.6199 -0.526252,8.09887 -1.860244,2.71611 -0.981246,-2.29715 -1.612497,-6.28667 0.165324,-5.13156 0.205171,-0.17073 -0.102144,-1.06303 0.341703,-1.07288 z m 26.037174,0.0191 c 1.00619,0.43363 -0.33893,1.93977 0,0 z m -13.07517,0.35605 c 0.43705,2.04805 0.26912,7.37681 -0.41584,7.83578 -0.19569,-2.6034 -0.37245,-5.31003 0.41584,-7.83578 z m -27.886158,0.015 c 2.308588,1.95139 -0.911569,1.1118 0,0 z m 26.649018,0.42427 c 1.46916,1.8907 -0.48208,1.75637 0,0 z m 2.29133,0.52141 c 0.45822,2.0847 -0.75856,1.78027 0,0 z m -34.182922,0.71624 c 1.968518,1.36549 -0.617598,1.11697 0,0 z m 40.161892,0.52761 c -0.26611,0.82056 0.20824,1.595 0,0 z m -22.078758,0.16537 c 1.622097,1.10065 -1.52599,0.71385 0,0 z m 16.554548,0.27957 c 1.31861,1.16726 -0.84368,0.57487 0,0 z m -2.5399,0.33383 c 0.29044,2.1972 -0.68493,1.79636 0,0 z m -8.15351,0.29765 c 1.41616,1.66605 -0.13031,1.62997 0,0 z m 22.86941,0.17829 c 1.33075,1.64238 -0.88124,0.079 0,0 z m -27.357505,0.16329 c 0.306042,1.52653 1.059192,0.7255 0,0 z m 26.034585,0.10181 c 1.33071,1.64236 -0.88124,0.079 0,0 z m -6.61251,0.38034 c 1.23859,1.55462 -0.75845,0.89665 0,0 z m -5.10357,0.0558 c 0.34958,2.88965 -0.3875,2.88619 0,0 z m -25.41912,0.51211 c -1.115773,1.43114 2.761186,2.62224 0,0 z m 26.87795,0.0279 c 0.66785,1.57391 -1.17369,0.47858 0,0 z m -0.85525,0.0832 c 1.33071,1.64236 -0.88124,0.079 0,0 z m -16.147333,1.06454 c 1.787324,1.70586 0.143237,2.11325 0,0 z m 13.563513,0.9989 c 0.82082,0.5042 -0.43054,1.112 0,0 z m -10.199895,1.96216 c 2.222395,1.24465 -1.885646,1.39748 0,0 z" /></g></svg>
