<svg xmlns="http://www.w3.org/2000/svg" xmlns:ffdec="https://www.free-decompiler.com/flash" ffdec:objectType="shape" width="31.9" height="35.85"><path d="M13.027 19.115c-.19-.06-.49-.229-.773-.438-.345-.254-2.473-2.627-2.846-3.174-1.016-1.49-1.66-2.9-1.66-3.64 0-.363.093-.521.333-.566.631-.118 2.264 1.267 3.548 3.012 1.246 1.692 2.075 3.396 2.077 4.268 0 .49-.235.677-.679.538M14.48 16.209c-.465-.284-.905-1.628-1.09-3.33-.069-.63-.058-2.715.017-3.383.175-1.55.479-2.467.887-2.678.179-.093.327-.066.495.088.45.415.82 1.708.99 3.46.067.695.057 2.604-.018 3.22-.122 1.015-.36 1.972-.581 2.34-.193.322-.459.429-.7.283M10.81 11.782c-.44-.155-.65-.304-1.807-1.278L7.86 9.539l-.917-1.164c-.929-1.18-1.114-1.46-1.239-1.881a1.6 1.6 0 0 1-.055-.374c0-.166.013-.2.117-.303.102-.102.14-.118.287-.118.202 0 .446.08.807.263.238.12 1.28.945 2.375 1.88.166.143.478.52 1.114 1.351.707.925.912 1.217 1.033 1.473q.415.882.139 1.12c-.123.106-.404.104-.71-.004M9.895 6.351a2.6 2.6 0 0 1-.38-.267c-.196-.166-.35-.365-.964-1.246C7.659 3.556 7.37 3.02 7.018 1.98c-.212-.624-.277-.936-.281-1.35-.004-.322.004-.379.068-.465A.4.4 0 0 1 7 .038C7.104.01 7.153.02 7.311.1c.38.193.592.433 1.36 1.545.396.572.737 1.073.759 1.114.074.139.945 2.406.976 2.542.066.282.095.64.065.8-.056.3-.28.396-.576.25M12.044 9.077c-.303-.266-.576-1.132-.738-2.344-.088-.658-.088-2.43 0-3.103.127-.972.335-1.645.59-1.911.11-.114.172-.152.25-.152.241 0 .482.294.648.792.092.278.372 2.247.427 3.017.054.743-.036 1.869-.209 2.614-.186.801-.417 1.188-.71 1.188a.34.34 0 0 1-.258-.101M15.308 25.986c-.701-.25-1.83-1.085-2.819-2.086-1.553-1.571-2.895-3.504-3.288-4.736-.283-.89-.108-1.296.516-1.2.695.107 2.087 1.133 3.264 2.407 1.468 1.588 2.19 2.586 2.785 3.846.252.535.353.844.376 1.156.015.214.007.295-.043.405-.12.265-.414.342-.791.208M18.43 35.654c-.013-.15-.203-.67-.384-1.05-1.246-2.616-4.006-5.439-8.231-8.42-2.412-1.701-4.546-3.07-6.371-4.09-.764-.427-1.954-1.016-2.575-1.275-.683-.285-.67-.279-.525-.258l1.963.259c1.86.245 2.018.273 2.86.515a22.6 22.6 0 0 1 6.456 3.023c3.847 2.62 6.072 5.729 6.734 9.408.1.557.155 1.38.113 1.688-.02.142-.038.232-.04.2M17.925 30.65c.113-1.611.811-3.74 1.742-5.306 1.42-2.39 3.767-4.318 7.05-5.788 1.12-.502 1.658-.69 3.344-1.17.898-.254 1.645-.459 1.66-.453.015.005-.278.225-.651.49-.736.521-5.823 4.358-6.412 4.836a32 32 0 0 0-4.768 4.79c-.178.22-.697.966-1.155 1.656l-.832 1.255zM20.316 21.234c-.106-.106-.11-.119-.091-.323.022-.254.13-.527.412-1.04.372-.68.788-1.227 1.582-2.084.735-.793 1.148-1.143 1.902-1.616.526-.33.84-.446 1.035-.382.16.053.225.153.225.344 0 .413-.19.753-1.106 1.996l-.771 1.046-1.008.907c-.935.842-1.03.918-1.334 1.066-.234.114-.384.164-.531.177-.196.018-.21.013-.315-.091M22.304 15.926c-.244-.192-.185-.725.183-1.649.641-1.61 2.197-3.71 3.29-4.441.318-.213.547-.274.717-.194a.35.35 0 0 1 .166.167c.063.148.047.497-.04.832-.07.277-.16.455-1.048 2.084l-.347.637-.901 1.053c-.66.773-.968 1.105-1.153 1.247-.426.326-.687.405-.867.264M19.499 18.957c-.275-.256-.408-1.118-.375-2.427q.064-2.486.957-4.26c.294-.583.66-.663.887-.193.203.42.22.611.193 2.094l-.025 1.326-.323 1.274c-.341 1.345-.445 1.633-.718 1.99-.2.261-.441.34-.596.196"/></svg>