<?xml version="1.0" encoding="UTF-8" standalone="no"?>
<svg
   ffdec:objectType="shape"
   height="34.1px"
   width="28.75px"
   version="1.1"
   id="svg4"
   sodipodi:docname="meat_3.svg"
   inkscape:version="1.3.2 (091e20e, 2023-11-25)"
   xmlns:inkscape="http://www.inkscape.org/namespaces/inkscape"
   xmlns:sodipodi="http://sodipodi.sourceforge.net/DTD/sodipodi-0.dtd"
   xmlns="http://www.w3.org/2000/svg"
   xmlns:svg="http://www.w3.org/2000/svg"
   xmlns:ffdec="https://www.free-decompiler.com/flash">
  <g transform="matrix(1.0, 0.0, 0.0, 1.0, 14.35, 17.05)">
    <path d="m -0.75000057,1.4500018 -0.50000003,1.05 -0.05,0.25 -0.1,0.3 -0.6,1.5 -1.15,3.05 -0.1,1.3 q -0.1,0.7 -0.35,1.2499982 l -2.9,0.9 0.1,-0.35 0.95,-2.8499982 0.7,-2.85 0.35,-1.45 0.5,-1.4 0.35,-0.9 0.95,-1.44999991 1.15,-1.45000009 1.50000003,-2.35 1.54999997,-2.4 h 0.05 l 0.05,-0.25 v -0.2 l -1.54999997,0.8 -1.05,0.95 q -0.50000003,0.35 -0.75000003,0.4 l -0.05,-0.05 -0.65,-0.25 -0.3,-0.2 -1.25,-0.9 -1.6,-1.25 -0.1,0.1 -0.1,0.4 q -0.15,0.85 0.3,1.8 l 0.8,1.45 q 1.05,1.85 0.4,3.65000009 l -0.25,0.55 -0.6,1.34999991 -0.3,0.85 -0.65,1.35 -0.35,0.75 -0.5,1.15 -2.6,5.7499982 L -10.15,12 l -0.8,0.25 -0.85,0.1 -0.35,-0.5 V 11 9.0500018 q 1.15,-0.15 2.4499994,-0.9 l 0.05,-0.15 0.15,-0.25 -0.2,-0.1 -1.4999994,0.65 -0.9,0.4 v -1 l 1,-0.05 0.2,-0.2 0.1,-0.2 q 0,-0.1 -0.15,-0.1 l -1.15,0.1 0.25,-5.65 q 0.25,-3.25 0.9,-5.95 l 1.8499994,-0.05 0.2,-0.2 0.1,-0.2 -0.2,-0.1 H -10.75 l 0.2,-0.8 1.2999994,0.15 -0.4,-0.35 -0.6999994,-0.35 0.3999992,-0.95 0.1500002,-0.3 0.85,-0.8 v 0.1 l 1.5,0.4 q 0.85,0 1.75,-0.35 l 0.95,-0.25 h 0.45 q 0.25,0 0.35,0.2 l 0.6,0.4 0.7,0.2 0.15,-0.5 -0.05,-0.05 q -0.35,0 -1,-0.4 l -0.15,-0.2 -1.2,-0.2 -0.95,0.35 -0.9,0.25 -1.75,-0.3 0.9,-0.5 q 1.2,-0.75 2.55,-1.1000018 l 2.45,-0.55 2.50000003,-0.25 2.59999997,-0.45 1.85,-0.8 q 1.8,-0.8 1.95,-0.95 l 1.85,-0.85 q 1.15,-0.55 1.65,-0.3 L 10.1,-13.8 l -1.3500006,0.5 -0.15,0.1 -0.05,0.25 q -0.05,0.2 0.05,0.15 L 10.05,-13.3 9.7499994,-12.35 h -0.05 l -1.05,0.1 q -0.55,0.15 -1.15,0.65 l -0.75,0.65 -0.85,0.1 -0.5,-0.1 h -0.65 l -0.2,0.15 v 0.25 l 0.05,0.1 0.75,0.05 0.6,0.2 0.6,-0.15 0.55,-0.45 0.5,-0.4 q 0.4,-0.4 0.95,-0.6 h 0.65 0.4 l -0.1,0.15 0.05,0.7 -2.65,1.0000014 -0.1,0.1500004 -0.1,0.2 0.05,0.15 2.8,-1.0500018 v 0.6500018 l -0.25,1.5 -0.4,1.3 0.05,0.05 -2.55,2.75 -2.35,2.1 -0.9,0.75 -1.25,0.65000009 -1.34999997,0.6 q -0.65,0.3 -1.05,1.05 l -0.25,0.54999991 M -7.4500006,11.3 l -0.9,0.3 1.9,-3.8499982 q -0.2,1.65 -1,3.5499982" />
    <path d="m -12.6,16.25 -0.5,-0.7 V 15.6 L -13.65,14 q -0.7,-1.9 -0.6,-2.55 L -14.3,6.4000018 v -0.05 l 0.55,-5.39999995 0.7,-4.35000005 q -0.75,-0.55 0.55,-3.4 l 1.4,-2.55 0.9,-0.9000018 2.0499994,-1.2 0.05,-0.05 q 2.65,-1.4 5.2,-1.55 l 0.3,0.1 3.45000003,-0.8 4.99999997,-1.75 2.35,-1.2 0.1,-0.05 Q 10.3,-17.5 12.15,-16.35 q 2.25,1.35 2.25,5.85 0.2,4.2500018 -1.65,6.4500018 l -0.05,0.05 -0.6,0.6 v 0.05 l -6.1500006,5.35 v 0.05 q -0.65,0.6 -2.5,1.35 l -0.3,1.05 -0.05,0.1 q -0.8,1.8 -2.24999997,5.8999982 l -0.05,0.05 -0.85,2.15 q -0.1,0.55 -0.90000001,1.55 l -1.35000002,1.25 -0.5,0.35 q -1.45,0.8 -3.4,1.25 h -0.15 l -2.05,-0.85 q -0.8,-0.4 -1.1,-0.3 L -10.75,16.55 -10.9,16.6 q -0.8,0.2 -1.7,-0.35 m 6.0499994,-0.3 0.25,0.1 3,-1.1 0.4,-0.3 1.2,-1.15 v 0.05 l 0.65,-1.1 0.05,-0.05 0.90000003,-2.3 Q 1.3499994,6.0500018 2.1499994,4.2500018 q 0.3,-1.35 0.65,-1.65 l 0.2,-0.1 q 1.7,-0.65 2.25,-1.2 h 0.05 l 6.0000006,-5.3 h 0.05 l 0.65,-0.7 0.05,-0.05 q 1.55,-1.95 1.35,-5.7000018 v -0.05 q 0,-3.8 -1.8,-5 -1.4,-0.9 -2.9500006,-0.3 l 0.05,-0.05 q -1.85,1 -2.5,1.3 l -5.05,1.75 q -3.35,1 -4.15,0.75 -2.3,0.2 -4.65,1.45 l -2,1.2000018 h -0.1 l -0.4999994,0.6 -1.35,2.4 -0.85,2.15 0.1,0.1 q 0.25,0.1 -0.4,5.25 l -0.55,5.4 L -13.25,11.5 v 0.05 l 0.25,1.25 0.3,0.9 0.5,1.45 0.15,0.25 0.35,0.2 0.25,0.05 h 0.2 l 0.1,-0.05 1.1999992,-0.6 -0.05,0.05 0.95,-0.15 0.4,0.1 0.7,0.3 0.3,0.15 1.1,0.5" />
  </g>
</svg>
