<?xml version="1.0" encoding="UTF-8"?>
<svg xmlns="http://www.w3.org/2000/svg" viewBox="0 0 6.33 5.4">
  <g>
    <path d="m4.75,5.4h-.86c-.32-.16-.68-.24-.96-.47-.44-.35-.89-.46-1.46-.25-.59.22-1.19-.1-1.28-.67C.04,3.07.05,2.14.83,1.39,1.42.83,2.09.41,2.89.22c1.49-.35,2.79.25,3.28,1.52.05.14.1.29.16.43v1.45c-.18.9-.72,1.48-1.58,1.78ZM3.49.58c-1,.06-2,.56-2.68,1.61-.2.31-.34.66-.07,1.01.27.35.61.21.93.09.39-.14.74-.1,1.09.14.31.21.61.42.97.54,1.03.33,1.92-.09,2.09-1,.25-1.33-.68-2.39-2.33-2.39Z"/>
    <path d="m3.16,2.86c.02.21-.08.24-.21.15-.44-.27-.89-.31-1.37-.08-.15.08-.38.11-.5-.09-.12-.19-.01-.35.1-.51.16-.22.36-.41.58-.58.52-.41,1.03-.25,1.2.39.07.24.14.48.2.7Z"/>
    <path d="m5.42,2.33c0,.62-.11.7-.61.48-.83-.35-.74-.23-.38-1.02.07-.16.1-.43.29-.44.22-.02.36.21.49.39.15.2.22.42.21.59Z"/>
    <path d="m3.66,1s.09,0,.13,0c.5.1.68.03.36.62-.07.13-.13.28-.19.41-.06.14-.11.31-.31.28-.19-.03-.37-.1-.41-.32-.05-.26-.15-.46-.41-.58-.19-.08-.14-.19.03-.27.13-.06.6-.15.8-.15Z"/>
    <path d="m4.29,3.62c-.57,0-.82-.25-.8-.79,0-.17.1-.18.22-.13.37.15.75.3,1.12.47.19.09.17.21,0,.31-.17.1-.36.15-.53.14Z"/>
  </g>
</svg>