<svg xmlns="http://www.w3.org/2000/svg" xml:space="preserve" width="452.595" height="537.325" viewBox="0 0 119.749 142.167"><path d="M56.498 77.121 54.413 81.5l-.208 1.043-.417 1.25-2.502 6.255-4.795 12.717-.417 5.421q-.417 2.919-1.46 5.212l-12.091 3.753.417-1.46 3.961-11.883 2.919-11.884 1.46-6.045 2.084-5.838 1.46-3.753 3.96-6.045 4.796-6.046 6.254-9.799 6.463-10.007h.208l.209-1.042v-.834l-6.463 3.335-4.378 3.961q-2.085 1.46-3.127 1.668l-.209-.208-2.71-1.043-1.251-.834-5.212-3.752-6.671-5.212-.417.417-.417 1.668q-.626 3.544 1.25 7.505l3.336 6.046q4.378 7.714 1.668 15.219l-1.042 2.293-2.502 5.63-1.251 3.543-2.71 5.63-1.46 3.127-2.084 4.795-10.841 23.975-2.92.834-3.335 1.042-3.544.417-1.46-2.085v-11.674q4.796-.626 10.216-3.753l.209-.626.625-1.042-.834-.417-6.254 2.71-3.753 1.668v-4.17l4.17-.208.834-.834.417-.834q0-.417-.626-.417l-4.795.417 1.043-23.558q1.042-13.551 3.752-24.81l7.714-.208.834-.834.417-.834-.834-.417h-7.297l.834-3.335 5.42.625-1.667-1.46-2.919-1.459 1.668-3.96.625-1.252 3.544-3.335v.417l6.255 1.667q3.544 0 7.297-1.459l3.96-1.042h1.877q1.043 0 1.46.834l2.501 1.667 2.919.834.625-2.084-.208-.209q-1.46 0-4.17-1.668l-.625-.834-5.004-.834-3.96 1.46-3.753 1.042-7.297-1.25 3.752-2.086q5.004-3.127 10.633-4.586l10.215-2.293L59.208 25l10.841-1.876 7.714-3.336q7.506-3.335 8.131-3.96l7.714-3.545q4.795-2.293 6.88-1.251l1.25 2.502-5.628 2.085-.626.417-.208 1.042q-.209.834.208.625l6.046-2.084-1.25 3.96h-.21l-4.377.418q-2.294.625-4.795 2.71l-3.128 2.71-3.544.417-2.085-.417h-2.71l-.834.626v1.042l.209.417 3.127.208 2.502.834 2.501-.625 2.294-1.876 2.085-1.668q1.667-1.668 3.96-2.502h4.379l-.417.625.208 2.92-11.05 4.169-.416.625-.417.834.208.626 11.675-4.379v2.71l-1.042 6.255-1.668 5.42.208.21-10.632 11.466-9.799 8.756-3.752 3.127-5.212 2.71-5.63 2.502q-2.71 1.25-4.377 4.378zm-27.936 41.071-3.753 1.25 7.922-16.052q-.833 6.88-4.17 14.802"/><path d="m7.088 138.832-2.084-2.92v.21L2.71 129.45q-2.918-7.922-2.502-10.633L0 97.761v-.209l2.293-22.515 2.919-18.138q-3.127-2.294 2.293-14.177l5.838-10.632 3.752-3.753 8.548-5.004.209-.208q11.05-5.838 21.682-6.463l1.25.417 14.386-3.336 20.848-7.297 9.798-5.003.417-.209q8.34-3.127 16.053 1.668 9.382 5.63 9.382 24.392.834 17.721-6.88 26.895l-.208.208-2.502 2.502v.208L84.435 79.415v.208q-2.71 2.502-10.424 5.63L72.76 89.63l-.209.417q-3.335 7.505-9.381 24.6l-.209.21-3.544 8.964q-.417 2.293-3.753 6.463l-5.629 5.212-2.084 1.46q-6.046 3.335-14.177 5.211h-.626l-8.547-3.544q-3.336-1.668-4.587-1.25l-5.212 2.71-.625.208q-3.336.834-7.089-1.46m25.226-1.25 1.043.417 12.509-4.587 1.668-1.25 5.003-4.796v.209l2.71-4.587.209-.208 3.752-9.59q6.046-16.887 9.382-24.393 1.251-5.629 2.71-6.88l.834-.417q7.089-2.71 9.382-5.003h.208l25.018-22.099h.209l2.71-2.919.208-.208q6.463-8.131 5.63-23.767v-.209q0-15.844-7.506-20.848-5.838-3.752-12.3-1.25l.208-.209q-7.714 4.17-10.424 5.42l-21.056 7.297q-13.969 4.17-17.304 3.128-9.59.834-19.39 6.046L19.39 31.88h-.417l-2.085 2.502-5.629 10.007-3.544 8.965.417.417q1.042.417-1.668 21.89L4.17 98.178l.208 20.848v.208l1.042 5.212 1.251 3.753 2.085 6.046.626 1.042 1.459.834 1.042.209h.834l.417-.209 5.004-2.501-.209.208 3.961-.625 1.668.417 2.919 1.25 1.25.626z"/></svg>