<?xml version="1.0" encoding="UTF-8" standalone="no"?>
<!-- Created with Inkscape (http://www.inkscape.org/) -->

<svg
   width="58.688534mm"
   height="47.095123mm"
   viewBox="0 0 58.688534 47.095123"
   version="1.1"
   id="svg1"
   xml:space="preserve"
   xmlns="http://www.w3.org/2000/svg"
   xmlns:svg="http://www.w3.org/2000/svg"><defs
     id="defs1" /><g
     id="layer1"
     transform="translate(-76.284212,-89.498929)"><path
       id="path1"
       style="fill:#000000"
       d="m 91.737553,89.49893 -0.450619,0.791683 -0.450618,0.792199 -0.190169,0.0016 -0.19017,0.0021 0.168982,-0.440283 0.168982,-0.440284 -0.309542,0.191203 -0.309541,0.191203 -0.0021,0.447518 -0.0016,0.447518 -0.858345,0.522449 -0.858346,0.522965 -0.198437,0.09457 -0.198438,0.09457 v -0.283187 -0.283187 l 0.926042,-0.38654 0.926558,-0.387056 v -0.124024 -0.12454 L 89.749561,90.711259 89.588847,90.29268 h -0.341065 -0.341064 l -0.821139,0.935343 -0.821655,0.934827 v -0.220658 -0.220659 l 0.313159,-0.313159 0.31316,-0.313159 -0.114722,-0.10697 -0.114722,-0.106454 -1.190108,0.617534 -1.190625,0.617533 -0.549321,0.254248 -0.548803,0.254248 -2.806031,2.39882 -2.805513,2.398303 -0.689364,0.903821 -0.689363,0.903821 -0.253732,1.550291 -0.254248,1.55081 -10e-4,1.62109 -0.0016,1.62109 0.396875,0.3297 0.396875,0.32918 v -0.27544 -0.27544 l 0.945162,-0.58394 0.945678,-0.58446 0.290939,0.29094 0.290938,0.29145 -0.498678,1.02578 -0.499194,1.02578 -0.485759,-0.12713 -0.485758,-0.12712 0.08888,-0.4284 0.0894,-0.42891 0.452685,0.0367 0.453203,0.0367 v -0.36742 -0.36742 h -0.366386 -0.366903 l -0.390674,0.59686 -0.39119,0.59635 -0.03514,1.52239 -0.03514,1.52238 -0.533818,2.06034 -0.534334,2.06034 -0.06201,1.36529 -0.06253,1.36581 0.264583,0.0155 0.264583,0.0155 0.132292,-1.79007 0.132292,-1.79008 0.294555,0.0543 0.294556,0.0537 -0.08992,-0.76998 -0.0894,-0.76998 0.208256,-0.12867 0.207739,-0.12868 -0.05994,-0.86816 -0.05994,-0.86765 0.240295,-0.44907 0.239779,-0.44907 -0.309025,-0.10283 -0.309542,-0.10335 0.207222,-0.33435 0.206706,-0.33486 0.408761,0.74724 0.408243,0.74724 0.188619,1.32291 0.188619,1.32292 -0.492476,0.63097 -0.492476,0.63097 v 0.3328 0.33279 l 0.396875,0.15245 0.396875,0.15244 v 0.37466 0.37517 l -0.395325,0.75757 -0.395325,0.7581 0.0026,0.52916 0.0021,0.52917 0.245463,0.38809 0.245463,0.38809 -0.281636,0.33952 -0.282154,0.33951 0.363286,0.005 0.363285,0.005 0.919324,1.91306 0.919323,1.91254 1.858802,1.8526 1.858801,1.85312 1.719792,0.84336 1.719791,0.84336 0.566891,0.52917 0.567407,0.52865 0.127641,-0.12764 0.128157,-0.12816 1.553394,1.7694 1.553393,1.7694 1.17719,0.89917 1.177189,0.89865 0.05633,0.38603 0.05684,0.38602 -0.307475,0.0238 -0.306958,0.0238 1.322917,0.36794 1.322917,0.36793 2.778125,0.0243 2.778119,0.0238 2.05052,0.18656 2.05052,0.18655 v -0.15245 -0.15244 l -0.29455,-0.29456 -0.29456,-0.29455 0.17777,-0.28733 0.17777,-0.28783 h 0.28112 0.28163 l -0.32918,0.39687 -0.32969,0.39688 h 0.37569 0.37568 l 1.04593,-1.07126 1.04594,-1.07073 -0.0801,-0.18604 -0.0801,-0.18552 0.44493,-0.092 0.44545,-0.0925 0.19792,0.31988 0.19741,0.31987 -0.12971,0.49713 -0.13022,0.49661 -0.23151,-0.14263 -0.23151,-0.14314 0.12247,0.34417 0.12195,0.34468 -0.68781,0.50074 -0.68833,0.50075 -0.5612,0.061 -0.56173,0.0605 -0.26458,0.077 -0.26458,0.077 1.4552,0.17829 1.45521,0.17828 0.20412,0.0434 0.20309,0.0429 0.28732,-0.7276 0.28732,-0.72761 0.23203,-0.45268 0.23151,-0.45269 -0.15606,-0.40721 -0.15658,-0.40721 h 0.40669 0.40618 l 0.41755,0.41755 0.41754,0.41754 0.2558,0.47801 0.2558,0.478 -0.4563,-0.0357 -0.45579,-0.0357 -0.22324,-0.26458 -0.22376,-0.26459 0.15761,0.48473 0.1571,0.48472 0.008,0.44132 0.008,0.44132 0.27802,-0.47853 0.27853,-0.47852 0.47232,0.54467 0.47233,0.54467 h 0.31832 0.31885 l -0.416,-0.416 -0.41548,-0.41547 v -0.26407 -0.26407 l 0.59532,0.0842 0.59531,0.0847 -0.0212,0.59532 -0.0212,0.59531 h 0.48421 0.48421 v -0.28009 -0.28008 l 0.26148,0.16123 0.26149,0.16174 -0.1447,-0.37672 -0.14469,-0.37672 0.66042,-0.12609 0.65991,-0.12661 0.41341,0.41393 0.41393,0.41341 v -0.4532 -0.45372 l -0.0661,-0.11317 -0.0661,-0.11317 1.0666,-0.77256 1.06609,-0.77257 0.60926,-0.32607 0.60927,-0.32608 -0.0486,0.88108 -0.0491,0.88108 0.0269,0.59532 0.0269,0.59531 h 0.7121 0.71159 l -0.50333,-0.36845 -0.50385,-0.36794 0.35037,-0.4222 0.35037,-0.42219 -0.15555,-0.40618 -0.15606,-0.40618 0.49712,-0.49712 0.49713,-0.49713 0.51987,-0.16485 0.51986,-0.16485 -0.10025,0.73381 -0.0997,0.73432 0.51263,-1.05833 0.51263,-1.05834 0.0196,0.20464 0.0191,0.20464 0.66146,-0.43356 0.66146,-0.43357 v 0.54932 0.54932 l 0.3576,0.33332 0.35708,0.33383 -0.35708,0.35708 -0.3576,0.35708 v 0.2279 0.22789 l 0.58394,0.185 0.58343,0.18552 0.0951,-0.28474 0.0946,-0.28473 0.39067,0.14986 0.39068,0.14986 -0.0393,-0.231 -0.0393,-0.23099 0.19069,-0.59221 0.1912,-0.59221 0.2067,0.12764 0.20671,0.12764 0.14211,-0.36949 0.14159,-0.36948 -0.39997,-0.48886 -0.40049,-0.48886 0.13797,0.4439 0.13849,0.44338 -0.38137,0.31626 -0.38137,0.31626 v 0.36484 0.36432 h -0.36845 -0.36846 l -0.20825,-0.46302 -0.20774,-0.46303 -0.0517,-0.52399 -0.0517,-0.52452 0.42994,-0.34055 0.42944,-0.34055 1.04231,-0.52399 1.0418,-0.52452 h 0.0827 0.0822 v 0.38137 0.38189 l 0.29301,0.18087 0.293,0.18138 -0.17828,-0.56224 -0.1788,-0.56275 h 0.56276 0.56275 l -0.16381,0.26458 -0.1633,0.26458 h 0.26769 0.26768 l -0.0951,-0.75137 -0.0951,-0.75189 0.21032,-0.34055 0.21033,-0.34055 0.27595,0.17053 0.27595,0.17053 0.1912,-0.30954 0.19172,-0.31006 -0.3054,0.18914 -0.30541,0.18862 v -0.14935 -0.14934 l 0.65939,-1.36736 0.65991,-1.36736 -0.13333,-0.13332 -0.13332,-0.13333 -0.38551,0.51005 -0.38602,0.50953 -0.008,-0.39068 -0.008,-0.39119 -0.8599,1.0449 -0.85989,1.04542 0.0574,0.17983 0.0579,0.17983 -0.92035,0.43667 -0.92036,0.43667 -0.26148,-0.16175 -0.262,-0.16175 v 0.23823 0.23823 l -1.12448,0.32659 -1.12448,0.32608 -1.67897,0.66043 -1.67897,0.6599 -0.14107,-0.14056 -0.14108,-0.14107 0.70332,-0.3204 0.7028,-0.32039 -0.2713,-0.16795 -0.27079,-0.16743 0.92501,-0.89659 0.92501,-0.89658 v 0.36587 0.36587 l 0.81649,-0.77722 0.81648,-0.77721 0.25115,-0.46302 0.25115,-0.46302 h -0.10542 -0.10594 l -0.89555,0.78393 -0.89607,0.78393 -0.0879,-0.25425 -0.0879,-0.25425 0.58084,-0.94051 0.58136,-0.93999 -0.12557,-0.12558 -0.12558,-0.12557 -0.69814,0.91519 -0.69867,0.91571 v 0.38395 0.38344 l -1.05885,0.95705 -1.05937,0.95653 h -0.18086 -0.18087 l 0.71107,-0.74207 0.71055,-0.74208 v -0.35346 -0.35399 l 1.1498,-1.35134 1.1498,-1.35185 0.32659,-0.61754 0.32712,-0.61805 -0.15142,-0.15141 -0.15141,-0.15141 0.32866,-0.40618 0.32815,-0.40566 -0.33228,0.19999 -0.3328,0.19947 -0.42943,0.83044 -0.42891,0.82993 -0.29662,0.34313 -0.29663,0.34261 -0.92604,1.17409 -0.92604,1.17461 -0.26458,-0.0724 -0.26459,-0.0718 0.0641,-0.7705 0.0636,-0.77049 -0.27647,0.65732 -0.27698,0.65784 0.11782,0.44959 0.11731,0.44958 -0.33952,0.13074 -0.33951,0.13023 -0.0212,-1.51567 -0.0212,-1.51619 0.75655,-1.57354 0.75706,-1.57407 1.81591,-2.24121 1.81642,-2.24069 0.89866,-0.60358 0.89917,-0.60306 h 0.71881 0.71882 l 0.63614,0.49971 0.63562,0.50023 0.56069,1.15342 0.56069,1.15393 1.11621,2.31511 1.11569,2.3151 h 0.23203 0.23151 l 0.1788,-0.71365 0.17932,-0.71314 -0.28319,-1.73426 -0.28318,-1.73374 -0.32453,-1.22267 -0.32453,-1.22214 -0.55862,0.13384 -0.55811,0.13384 0.33073,-0.35347 0.33073,-0.35346 v -0.82011 -0.82062 l 0.2558,-0.2558 0.2558,-0.2558 -0.15555,-0.59479 -0.15554,-0.5948 -0.62736,1.17874 -0.62735,1.17822 0.16433,0.47904 0.16433,0.47956 -0.67076,-0.68936 -0.67024,-0.68885 -0.59221,-1.16324 -0.5917,-1.16272 -1.19372,-1.5875 -1.19424,-1.5875 -1.08366,-1.14721 -1.08314,-1.1467 -1.7942,-1.16841 -1.79421,-1.16788 h -0.30954 -0.30903 l 0.3173,-0.31781 0.31781,-0.3173 v -0.47645 -0.47594 h -0.25632 -0.25631 l 0.15916,-0.41548 0.15968,-0.41548 0.48111,0.7338 0.48162,0.73381 0.1726,-0.45062 0.17312,-0.45062 h 0.38447 0.38396 l -0.14831,-0.23978 -0.1478,-0.23977 -0.52917,0.13797 -0.52865,0.13849 v -0.57774 -0.57774 l -0.52916,0.16795 -0.52917,0.16795 -0.015,-0.74569 -0.0145,-0.745178 -1.50689,-0.954981 -1.50637,-0.954464 -1.85208,-1.073319 -1.85208,-1.07332 -1.7198,-1.511019 -1.71979,-1.511018 -1.18804,-0.536402 -1.18752,-0.536401 -2.51665,-0.04806 -2.51612,-0.04806 -4.233331,-0.82579 -4.233333,-0.825789 -0.924492,-0.276469 -0.924491,-0.275952 h -0.873849 z m 1.850533,0.271818 0.159163,0.257349 0.159164,0.257348 -0.407211,-0.156063 -0.406693,-0.156063 -0.249597,0.655774 -0.249081,0.655774 -0.852144,0.29714 -0.852144,0.297139 h -0.108521 -0.10852 l 0.142627,-0.230477 0.14211,-0.230476 0.799434,-0.159681 0.799435,-0.15968 v -0.302307 -0.30179 l -0.529167,0.137976 -0.529167,0.138493 v -0.207223 -0.207739 l 0.330729,-0.248564 0.33073,-0.24908 0.714168,-0.04393 z m -4.471562,1.050065 h 0.280087 0.280086 l -0.163298,0.264583 -0.163814,0.264584 h -0.116789 -0.116272 v -0.264584 z m 7.227983,1.583883 0.12454,0.12454 0.12454,0.12454 -0.762227,0.941545 -0.761711,0.941544 -0.859896,1.018026 -0.859895,1.018542 0.0083,0.364836 0.0083,0.364836 0.392741,-0.519348 0.393258,-0.519865 1.384411,-1.570447 1.384929,-1.570447 0.08785,-0.224792 0.08837,-0.22531 h 0.903821 0.903821 v 0.376722 0.376204 l -0.623735,0.748275 -0.624251,0.747758 -0.447518,0.926041 -0.447001,0.926042 0.47594,-0.568958 0.47594,-0.568957 0.761194,-0.980302 0.761194,-0.979785 0.226859,0.358118 0.227376,0.358634 0.0041,-0.595313 0.0041,-0.595312 h 0.248563 0.24908 l 0.16382,0.264583 0.16329,0.264584 0.57981,0.0057 0.57981,0.0062 -0.54312,0.45682 -0.5426,0.457336 -0.714169,0.974618 -0.713651,0.974617 v 0.225826 0.226343 l -0.783415,0.915707 -0.782898,0.916223 -0.01085,0.293522 -0.01033,0.293522 -1.09089,1.239206 -1.091406,1.23972 0.143144,0.14261 0.142627,0.14263 0.572575,-0.57257 0.572575,-0.57205 1.830896,-2.615351 1.830902,-2.615344 V 95.625186 95.38334 l 0.43976,-0.362768 0.44029,-0.363286 -0.35244,0.661459 -0.35243,0.661458 0.93586,-0.992188 0.93586,-0.992187 h 0.94516 0.94516 l 0.14367,0.232544 0.14366,0.232027 -1.0542,1.197343 -1.05369,1.197343 v 0.276986 0.276985 l -0.46095,0.257866 -0.46095,0.257865 0.22324,0.218591 0.22272,0.218075 0.43667,-0.618567 0.43615,-0.61805 0.81545,-0.96945 0.81597,-0.968933 0.16795,-0.463021 0.16847,-0.463021 h 0.83561 0.8356 l -0.1235,1.256771 -0.12299,1.256771 -0.82786,1.852083 -0.82786,1.852084 -0.293,-0.0729 -0.29249,-0.0724 0.16485,0.26717 0.16536,0.26768 -0.7276,1.26039 -0.72761,1.26039 -0.37568,0.22944 -0.37569,0.22945 0.31419,0.19378 0.31368,0.19431 -0.57464,1.03198 -0.57465,1.03146 -0.94257,1.24385 -0.943103,1.24384 -1.080038,0.77153 -1.07952,0.77102 -1.058334,0.52864 -1.058333,0.52917 -1.058333,0.32866 -1.058334,0.32866 -1.385962,0.6625 -1.385962,0.66249 -0.399975,-0.15348 -0.399976,-0.15348 v 0.22789 0.22841 l -0.463021,0.18914 -0.46302,0.18913 -1.455209,0.35864 -1.455208,0.35915 -0.79375,-0.0217 -0.79375,-0.0212 -0.529167,-0.12661 -0.529166,-0.12661 -0.855245,-0.81597 -0.854729,-0.81544 -0.299206,-0.90641 -0.299207,-0.9064 0.131258,-1.49398 0.131259,-1.49396 1.920296,-3.70417 1.920296,-3.70417 0.766362,-1.058324 0.766361,-1.058333 0.715202,-1.124479 0.715718,-1.124479 h 0.3483 0.348299 l -0.153996,-0.248564 -0.153479,-0.24908 0.570508,-0.531751 0.571024,-0.53175 0.902271,-0.427881 0.90227,-0.428398 0.318844,0.107487 0.318844,0.107487 0.350366,-0.420129 0.350366,-0.42013 -0.205672,0.392224 -0.205156,0.391708 0.780831,-0.6165 0.781348,-0.617017 0.08785,0.58136 0.08785,0.58136 -0.615983,0.701766 -0.6165,0.701766 0.858862,-0.777214 0.859379,-0.777213 v -0.446484 -0.446485 l 0.835608,-0.167431 z m -9.609233,0.0036 h 0.132292 0.132292 v 0.132292 0.132291 h -0.132292 -0.132292 v -0.132291 z m 6.910173,0.79375 -0.163298,0.264583 -0.163814,0.264584 h 0.280086 0.280603 v -0.264584 -0.264583 h -0.116788 z m -1.511019,1.225248 -0.322461,0.198954 -0.321944,0.199471 -0.52555,1.029395 -0.525032,1.029911 v 0.187069 0.187069 l 0.09353,-0.110588 0.09354,-0.110071 0.753959,-1.305346 z m -1.436605,0.334863 -0.261483,0.161748 -0.261482,0.16123 v 0.249081 0.24908 h 0.103869 0.10387 l 0.157613,-0.410828 z m 15.087447,0.02739 v 0.132292 0.132291 h 0.1323 0.13229 v -0.132291 -0.132292 h -0.13229 z m -3.175,0.264583 v 0.132292 0.132292 h 0.1323 0.13229 V 95.186422 95.05413 h -0.13229 z m 2.72749,0.264584 -0.47853,0.529166 -0.47904,0.529167 h 0.24185 0.24184 l 0.33073,-0.529167 0.33022,-0.529166 h -0.0935 z m -18.867069,0.220658 v 0.274402 0.274402 l -0.60048,0.607715 -0.60048,0.607198 -1.564763,2.778121 -1.564762,2.77812 -0.06305,0.0894 -0.06356,0.0899 -1.007691,-0.68471 -1.008207,-0.68523 H 79.69436 79.391536 l -0.312125,0.3762 -0.312643,0.37673 -0.778247,0.2713 -0.778247,0.2713 v -0.13591 -0.13591 l 0.290939,-0.54364 0.290938,-0.54415 -0.290938,0.17983 -0.290939,0.17984 v -0.26458 -0.26459 l 0.304374,-0.1881 0.304891,-0.1881 0.327112,0.44752 0.327629,0.44751 0.366386,-0.34106 0.366386,-0.34107 0.390673,-0.0775 0.390674,-0.0775 0.473356,-0.56018 0.473356,-0.560166 -0.274918,-0.274918 -0.274919,-0.275436 v -0.220658 -0.221175 l 0.50953,0.272851 0.510046,0.272852 0.09922,-0.461987 0.09922,-0.461988 -0.112138,-0.468705 -0.112138,-0.468705 -0.430981,0.336413 -0.430465,0.336414 0.362768,-0.463021 0.363286,-0.463021 h 0.21394 0.213424 l 0.104903,0.595313 0.104903,0.595312 0.293522,-0.661458 0.294039,-0.661458 0.01654,0.204638 0.01705,0.204639 0.595312,-0.359151 0.595313,-0.358635 0.264583,0.02584 0.264584,0.02635 0.330729,0.209806 0.330729,0.209806 v -0.645955 -0.646472 l 0.463021,-0.163298 0.463021,-0.163297 0.330729,-0.153996 z m 3.695898,0.176217 -0.256315,0.396875 -0.256832,0.396875 v 0.264583 0.264583 l 0.256832,-0.396875 0.256315,-0.396875 v -0.264583 z m 18.988501,0 h 0.36587 0.36536 l 0.0879,0.769462 0.0873,0.769462 -0.1602,0.854728 -0.16071,0.855245 -0.52348,0.136942 -0.524,0.136943 0.14831,0.385506 0.14779,0.385503 -0.60978,1.26556 -0.60978,1.26607 -1.68155,0.8723 -1.68155,0.87178 0.38137,-0.44804 0.38085,-0.44855 0.31368,-0.79375 0.31368,-0.79375 0.80977,-0.46302 0.80977,-0.46302 0.44131,-0.004 0.44184,-0.004 -0.30438,-0.1943 -0.30386,-0.19431 0.10646,-0.911047 0.10645,-0.910539 0.27285,-0.168982 0.27285,-0.168465 -0.14417,-0.375687 -0.14366,-0.375688 0.49712,-0.926042 z m -10.747143,0.132291 -0.163298,0.264584 -0.163814,0.264583 h 0.280086 0.280603 V 96.11248 95.847896 h -0.116788 z m 3.469043,0 -0.46251,0.727604 -0.46302,0.727605 -0.83457,0.806152 -0.834061,0.806669 -0.585494,0.822172 -0.584977,0.821648 v 0.34262 0.34313 l 0.21239,-0.25166 0.21239,-0.25115 1.124996,-1.498615 1.125516,-1.498616 0.31574,-0.125574 0.31626,-0.125574 0.47801,-0.823205 0.478,-0.823206 h -0.24908 z m -9.850049,0.264584 v 0.132291 0.132292 h 0.132292 0.132291 V 96.244771 96.11248 h -0.132291 z m -3.704167,0.4408 v 0.35295 0.35295 l 0.176217,-0.176734 0.176217,-0.176216 -0.176217,-0.176217 z m 9.325529,0.06563 -0.180351,0.474389 -0.180867,0.47439 0.328662,-0.326078 0.328662,-0.326595 -0.147794,-0.148312 z m 7.916317,0.429948 -0.55087,0.498677 -0.55139,0.499195 v 0.223242 0.223759 h 0.22169 0.22221 l 0.32918,-0.722437 z m -16.448096,0.121956 v 0.132292 0.132291 h 0.132292 0.132292 V 97.30309 97.170798 h -0.132292 z m 3.219442,0 -1.212846,1.613855 -1.213363,1.613847 -0.40876,0.86197 -0.409277,0.86196 -1.244369,1.30018 -1.244368,1.30069 -1.079521,1.31672 -1.079521,1.31723 -0.19327,0.33073 -0.192753,0.33073 h 0.250114 0.249597 l 0.444934,-0.67903 0.444935,-0.67903 0.376204,-0.44545 0.376721,-0.44545 1.33842,-1.42162 1.337903,-1.4211 0.913639,-1.42834 0.913639,-1.42782 v -0.127115 -0.127124 l 0.406177,-0.463021 0.406694,-0.46302 0.675411,-0.859896 0.67541,-0.859896 H 92.6021 Z m -2.479435,0.132292 -1.030945,1.190625 -1.030945,1.190625 -5.17e-4,0.44079 -5.16e-4,0.44029 -0.79375,0.74931 -0.79375,0.7493 v 0.33125 0.33176 h -0.252181 -0.251665 l -0.83199,1.25677 -0.832508,1.25677 1.414901,-1.46037 1.414901,-1.46089 0.729154,-0.87695 0.729672,-0.87695 -0.12144,-0.19637 -0.12144,-0.19586 1.052649,-1.273815 1.052132,-1.273824 -0.165881,-0.161231 z m 3.31866,0 -0.360701,0.79375 -0.360702,0.79375 -0.305924,0.396875 -0.305408,0.396875 -0.163814,0.46302 -0.164331,0.46302 h 0.111104 0.111104 l 0.824756,-1.198375 0.824239,-1.19786 -0.10542,-0.455786 z m 3.61425,0.09457 -0.396875,0.396875 -0.396875,0.396875 v 0.183451 0.183451 l 0.396875,-0.329179 0.396875,-0.329179 V 97.64882 Z m -13.54646,0.03772 -0.744657,0.797368 -0.745175,0.797884 0.393258,0.392741 0.393258,0.393257 h 0.128674 0.129191 l -0.149862,-0.242362 -0.149861,-0.242363 0.266133,-0.699699 0.266134,-0.699698 0.2651,0.163814 0.2651,0.163814 V 97.847758 97.43538 h -0.158646 z m 20.779609,0 -0.8077,1.124479 -0.80719,1.12448 -0.0884,0.264583 -0.0879,0.264578 -0.67076,0.75396 -0.67076,0.75396 -0.004,0.33125 -0.004,0.33072 -0.86506,1.03198 -0.865063,1.03146 -0.255281,0.31937 -0.255282,0.31987 v 0.29249 0.29249 l 1.445906,-1.65778 1.44539,-1.65778 -0.10594,-0.10594 -0.10645,-0.10645 1.0418,-1.52601 1.04128,-1.525997 v -0.215491 -0.21549 l 0.57567,-0.612366 0.57516,-0.612366 h -0.26613 z m 8.45272,0 h 0.44183 0.44183 l 0.76068,0.79375 0.76016,0.79375 h -0.26148 -0.26097 l -0.55087,1.13274 -0.55035,1.13327 -0.71624,0.85111 -0.71623,0.85163 h -0.21653 -0.21652 l 0.13849,-0.52917 0.13849,-0.52917 h -0.29559 -0.29507 v 0.26459 0.26458 h -0.26458 -0.26459 v -0.37465 -0.37466 l 0.96377,-2.138882 z m -24.61659,0.241846 -0.180351,0.47439 -0.180867,0.474389 0.328662,-0.326078 0.328662,-0.326595 -0.147795,-0.148311 z m -4.033862,0.198954 v 0.35295 0.35295 l 0.176216,-0.176733 0.176217,-0.176217 -0.176217,-0.176216 z m 10.648445,0.330213 -0.180351,0.474389 -0.180867,0.47439 0.328662,-0.326078 0.328662,-0.326595 -0.147794,-0.148312 z m 17.926557,0.02274 v 0.132292 0.132292 h 0.13229 0.13229 v -0.132292 -0.132292 h -0.13229 z m 0.79375,0 v 0.132292 0.132292 h 0.13229 0.13229 v -0.132292 -0.132292 h -0.13229 z m 0.62167,0.145728 -0.16382,0.626835 -0.16381,0.626835 0.27957,-0.279569 0.27957,-0.27957 -0.11576,-0.347266 z m -5.11959,0.118856 v 0.132291 0.132292 h 0.13229 0.13229 V 98.626021 98.49373 h -0.13229 z m -4.49792,0.176216 -0.17673,0.176734 -0.17622,0.176216 h 0.35295 0.35244 l -0.17622,-0.176216 z m -7.672912,0.0062 -0.502812,0.45527 -0.502812,0.454752 -0.133842,0.512115 -0.133842,0.51212 h 0.232544 0.233061 l 0.40411,-0.780839 0.403593,-0.780314 v -0.186552 z m -14.2875,0.08217 h 0.132291 0.132292 v 0.132292 0.132291 h -0.132292 -0.132291 v -0.132291 z m 19.375042,0 -0.42116,0.642855 -0.42116,0.642852 -0.799955,0.47284 -0.799434,0.47232 v 0.20723 0.20774 h 0.208256 0.208256 l 1.303277,-1.32292 1.30277,-1.322917 h -0.29043 z m 6.55412,0 v 0.132292 0.132291 h 0.1323 0.13229 v -0.132291 -0.132292 h -0.13229 z m -28.798238,0.132292 0.13901,0.347265 0.139009,0.347266 -0.15968,0.15968 -0.15968,0.160197 0.02067,-0.507463 z m 40.175328,0.308508 0.17621,0.176733 0.17622,0.176217 -0.17622,0.176217 -0.17621,0.176733 v -0.35295 z m -36.512502,0.08837 v 0.132291 0.132292 h 0.132291 0.132292 V 99.419771 99.28748 h -0.132292 z m 32.146872,0.01705 0.2651,0.189652 0.2651,0.19017 0.72709,1.072805 0.72709,1.07228 v 0.21239 0.21291 l -0.39688,-0.15245 -0.39687,-0.15244 v 0.26303 0.26252 l -0.59531,0.22272 -0.59532,0.22273 -0.52916,0.12867 -0.52917,0.12816 -0.59531,-0.11162 -0.59532,-0.1111 v -0.12506 -0.12557 l 1.01545,-1.3777 1.01595,-1.377692 0.10853,-0.322461 z m -21.631752,0.24753 -1.090373,0.947747 -1.090372,0.94774 -1.964738,1.89653 -1.964222,1.89652 -1.496549,1.98438 -1.49655,1.98437 -0.472322,0.72761 -0.471806,0.7276 h 0.129708 0.129708 l 1.686719,-2.18229 1.686718,-2.1823 3.40496,-3.37395 3.405477,-3.373957 h -0.198437 z m 14.915882,0.264583 -0.16329,0.264584 -0.16382,0.26458 h 0.13229 0.13229 l 0.16382,-0.26458 0.1633,-0.264584 h -0.13229 z m 4.71599,0.132292 -0.26975,0.463022 -0.26975,0.46302 h -0.38395 -0.38344 l 10e-4,0.59531 0.001,0.59531 0.65061,-0.79375 0.65216,-0.79375 0.001,-0.26458 z m 2.05724,0 0.12919,0.264582 0.12868,0.26458 0.2036,0.52917 0.20413,0.52917 0.13229,-0.35657 0.13177,-0.35708 -0.46457,-0.43667 z m -32.733399,0.04393 v 0.352952 0.35295 l 0.176217,-0.17673 0.176216,-0.17622 -0.176216,-0.17621 z m 36.777079,0.08837 h 0.1323 0.13229 v 0.13229 0.13229 h -0.13229 -0.1323 v -0.13229 z m 1.65882,0.20774 -0.16743,0.66818 -0.16795,0.66765 0.23616,0.0884 0.23616,0.0878 -0.17467,1.0573 -0.17466,1.0573 -0.61444,-0.99425 -0.61494,-0.99477 -0.0734,-0.66818 -0.0734,-0.66869 0.29559,0.10697 0.29559,0.10697 0.49868,-0.25735 z m -41.346316,0.0568 h 0.132292 0.132292 v 0.13229 0.1323 h -0.132292 -0.132292 v -0.1323 z m 1.852084,0 v 0.13229 0.1323 h 0.132291 0.132292 v -0.1323 -0.13229 h -0.132292 z m 5.027083,0.26459 v 0.26458 0.26458 h 0.116272 0.116789 l 0.163814,-0.26458 0.163297,-0.26458 h -0.280086 z m 7.968506,0 -0.163298,0.26458 -0.163814,0.26458 h 0.264583 0.264584 l 0.163814,-0.26458 0.163297,-0.26458 H 94.70378 Z m -11.937256,0.17621 -0.176733,0.17674 -0.176217,0.17621 h 0.35295 0.352433 l -0.176216,-0.17621 z m 37.306249,0.26459 v 0.35295 0.35295 l 0.17622,-0.17674 0.17621,-0.17621 -0.17621,-0.17622 z m -19.28823,0.22065 -1.733225,1.83969 -1.732711,1.84019 v 0.21033 0.21084 h 0.09457 0.09405 l 1.63866,-2.05052 z m -18.547186,0.0439 v 0.35295 0.35295 l 0.176217,-0.17673 0.176217,-0.17622 -0.176217,-0.17622 z m 3.175,0.0884 v 0.13229 0.13229 h 0.132292 0.132292 v -0.13229 -0.13229 h -0.132292 z m 8.202084,0 v 0.26458 0.26458 h 0.116272 0.116788 l 0.163815,-0.26458 0.163297,-0.26458 h -0.280086 z m 5.423958,0.17776 -0.391191,0.12971 -0.39119,0.12971 -1.642794,1.96422 -1.643311,1.96422 -0.01654,0.23978 -0.01602,0.23978 1.012342,-1.03353 1.012341,-1.03353 1.038179,-1.30018 z m -4.014742,0.21911 -0.440283,0.36329 -0.439767,0.36277 v 0.23254 0.23203 h 0.12299 0.12299 l 0.316777,-0.59532 z m -1.948202,0.0346 -1.053682,1.02837 -1.053166,1.02887 v 0.21084 0.21084 h 0.152962 0.152963 l 1.032495,-1.10742 1.032495,-1.10743 -0.131775,-0.13229 z m 9.005648,0.0977 v 0.13229 0.1323 h 0.1323 0.13229 v -0.1323 -0.13229 h -0.13229 z m -5.260657,0.26459 -0.163297,0.26458 -0.163814,0.26458 h 0.132291 0.132292 l 0.163814,-0.26458 0.163298,-0.26458 h -0.132292 z m 6.054407,0 v 0.26458 0.26458 h 0.11628 0.11678 l 0.16382,-0.26458 0.1633,-0.26458 h -0.28009 z m 3.70417,0 v 0.13229 0.13229 h 0.13229 0.13229 v -0.13229 -0.13229 h -0.13229 z m 7.90598,0 0.16381,0.26458 0.1633,0.26458 h 0.11679 0.11679 v -0.26458 -0.26458 h -0.28061 z m -18.508433,0.13229 -0.650606,0.79375 -0.650606,0.79375 -0.0016,0.24443 -0.001,0.24494 0.661458,-0.62166 0.661459,-0.62115 -0.0098,-0.41703 z m -2.102197,0.26458 -0.866614,0.92604 -0.866614,0.92604 -0.586527,1.00718 -0.586011,1.00769 v 0.11679 0.1173 h 0.09612 0.09612 l 0.763777,-1.12448 0.763778,-1.12448 0.595312,-0.65887 0.595313,-0.65836 -0.0026,-0.26768 z m 8.7328,0.26458 -0.65061,0.79375 -0.6506,0.79375 -0.008,0.26459 -0.008,0.26458 0.6506,-0.79375 0.65061,-0.79375 0.008,-0.26458 z m -18.253149,0.39688 v 0.13229 0.13229 h 0.132292 0.132291 v -0.13229 -0.13229 h -0.132291 z m 38.893749,0 v 0.24236 0.24288 l 0.33073,0.13333 0.33073,0.13332 0.33073,0.0212 0.33073,0.0207 v -0.39688 -0.39687 h -0.66146 z m -20.6375,1.02733 -0.26458,0.16329 -0.26459,0.1633 v 0.26459 0.26458 l 0.26459,-0.1633 0.26458,-0.1633 v -0.26458 z m 22.75417,0.031 v 0.26459 0.26458 h 0.11627 0.11679 l 0.16381,-0.26458 0.1633,-0.26459 h -0.28009 z m -34.797878,0.26459 -0.33073,0.52916 -0.330212,0.52917 h 0.203088 0.203089 l 0.330729,-0.52917 0.330212,-0.52916 H 90.50507 Z m 17.104898,0.21135 0.17312,0.17312 0.17311,0.17363 -0.28732,0.18397 -0.28732,0.18397 -0.18448,0.66146 -0.18449,0.66145 0.5395,-0.66145 0.54002,-0.66146 0.006,-0.34623 0.006,-0.34675 0.30127,0.18655 0.30127,0.18603 1.08779,0.0822 1.08779,0.0816 1.39682,0.16433 1.39733,0.16433 -0.95653,1.30328 -0.95653,1.30276 h 0.26768 0.2682 l 0.51987,-0.66146 0.52038,-0.66094 0.14366,0.37414 0.14366,0.37465 -1.5043,1.3224 -1.50482,1.32292 -0.72605,0.56948 -0.72658,0.56999 0.15968,-0.41497 0.15917,-0.41496 h 0.23616 0.23616 v -0.41237 -0.4129 l 0.26458,0.16381 0.26459,0.1633 v -0.28008 -0.28009 h -0.39016 -0.39016 l -0.44596,0.8599 -0.44649,0.85989 -0.10542,-0.31264 -0.10594,-0.31316 0.41962,-0.74517 0.42013,-0.7457 1.04799,-1.65364 1.04852,-1.65365 h -0.14004 -0.13953 l -0.77256,0.57103 -0.77308,0.57154 0.12454,0.20154 0.12454,0.20102 -0.78652,1.4335 -0.78651,1.43299 -0.27905,0.73484 -0.27957,0.73484 0.40204,-0.15451 0.40152,-0.154 v 0.22324 0.22273 l -1.12448,1.07797 -1.12447,1.07745 -0.8599,0.81029 -0.8599,0.80977 v 0.1788 0.17931 l -0.57515,0.61237 -0.57516,0.61237 h 0.29559 0.29559 l 1.66863,-1.39682 1.66863,-1.39733 0.76119,-0.48266 0.76068,-0.48317 0.21394,0.34571 0.21394,0.34624 -0.13746,0.22169 -0.13694,0.22221 -0.57309,-0.16072 -0.57309,-0.16019 0.34003,0.23667 0.33951,0.2372 -0.1695,0.44183 -0.1695,0.44184 h 0.26252 0.262 l 0.43563,-0.66405 0.43512,-0.66455 -0.26717,-0.49868 -0.26665,-0.49868 0.32504,-0.26407 0.32505,-0.26406 1.05833,-0.58343 1.05834,-0.58343 0.85989,-0.52451 0.8599,-0.52504 v 0.27802 0.27802 l 0.41238,-0.15813 0.41186,-0.15813 -0.13746,-0.35863 -0.13798,-0.35864 0.47904,-0.25631 0.47853,-0.25632 0.3054,0.3049 0.30489,0.3054 v -0.44183 -0.44132 l 0.33073,0.12299 0.33073,0.12299 0.49765,-1.04076 0.49764,-1.04128 -0.1695,-0.44132 -0.16898,-0.44131 -0.65939,0.16536 -0.65888,0.16536 v -0.32246 -0.32246 l -0.31729,0.3173 -0.31781,0.31781 h -0.21136 -0.21187 l -0.0263,-0.46302 -0.0264,-0.46303 -0.17932,0.64183 -0.17931,0.64182 -0.3235,0.108 -0.32349,0.10749 v -0.63045 -0.63046 l 0.31781,-0.31781 0.31729,-0.31729 h 2.04535 2.04536 l -0.2465,0.85835 -0.24598,0.85782 v 0.10904 0.10904 l 0.52917,-0.47904 0.52916,-0.47904 V 106.22706 105.84 l 0.59532,0.17415 0.59531,0.17415 0.88057,0.12661 0.88005,0.12609 1.07538,0.5488 1.0759,0.54881 1.32396,1.23196 1.32446,1.23248 0.6196,1.32292 0.62012,1.32292 0.003,0.33383 0.003,0.33331 -2.07171,2.04794 -2.07171,2.04742 -1.27589,1.5875 -1.27589,1.5875 -0.81959,1.71979 -0.81958,1.71979 -0.0129,3.3445 -0.0124,3.3445 -0.74569,0.97772 -0.74569,0.9772 -0.8294,0.50591 -0.82889,0.5054 -0.1323,-0.009 -0.13229,-0.01 -0.29094,-0.33279 -0.29042,-0.3328 -0.12815,-0.38396 -0.12816,-0.38395 -0.32711,0.61133 -0.32763,0.61185 -0.37827,-0.31419 -0.37828,-0.31368 v -0.3483 -0.34778 l 1.17461,-1.27331 1.17512,-1.27331 0.56172,-0.99218 0.56173,-0.99219 -0.21549,0.01 -0.21498,0.0103 -0.66146,0.89091 -0.66145,0.8909 -1.17461,1.45572 -1.1746,1.45573 -0.832,-0.63459 -0.83199,-0.63459 -0.83767,-0.16743 -0.83768,-0.16795 v -0.23151 -0.23151 h -0.66145 -0.66146 v -0.22841 -0.22892 l 0.52916,-0.67283 0.52917,-0.67283 v -0.1757 -0.17518 l -0.87798,0.93069 -0.87798,0.93069 -1.90015,-0.0258 -1.90014,-0.0258 v -0.56844 -0.56896 l 0.25063,-0.25115 0.25063,-0.25166 0.41445,-0.99219 0.41393,-0.99219 h -0.0997 -0.0997 l -0.69763,1.00666 -0.69763,1.00614 -0.004,0.51521 -0.004,0.5147 -0.23048,0.3638 -0.22996,0.36329 -0.89038,-0.49558 -0.88987,-0.49609 -0.0951,-0.0507 -0.0951,-0.0511 0.35812,-0.80874 0.35812,-0.80925 h 0.19998 0.19999 v -0.26459 -0.26458 l -0.33073,0.002 -0.33073,0.002 -0.66146,0.971 -0.66145,0.971 -0.077,-0.39739 -0.0765,-0.39791 1.08985,-1.63194 1.08986,-1.63194 0.43977,-0.2465 0.43976,-0.24598 -0.17053,-0.17053 -0.17053,-0.17053 -0.55501,0.34675 -0.55449,0.34623 v 0.33331 0.33332 h -0.2222 -0.22221 l -0.30799,0.67644 -0.30851,0.67645 -0.24495,-0.15142 -0.24546,-0.15193 -0.19121,0.31006 -0.191715,0.30955 0.305405,-0.18862 0.30593,-0.18862 v 0.28577 0.28577 l -0.64079,0.29197 -0.640271,0.29146 0.157096,0.41031 0.157097,0.40979 -0.464055,-0.17828 -0.464571,-0.17829 h -0.151929 -0.151412 l 0.479041,-0.52916 0.478524,-0.52917 h -0.462504 -0.462504 l -0.14056,0.5364 -0.140043,0.53692 -0.562757,-0.1726 -0.562239,-0.1726 -0.09354,-0.0822 -0.09302,-0.0827 0.365352,-0.52193 0.365869,-0.52141 2.718176,-2.83291 2.7187,-2.83238 -0.13901,-0.13849 -0.13849,-0.1385 -2.05828,2.0929 -2.058265,2.09289 -1.267623,1.38286 -1.267106,1.38287 h -1.18029 -1.179773 v -0.24547 -0.24546 l 0.666626,-0.52452 0.666626,-0.52451 -0.327112,-0.10904 -0.326595,-0.10904 1.005107,-1.36942 1.005623,-1.36943 -0.102319,-0.30592 -0.101803,-0.30541 -0.941028,1.42989 -0.941544,1.42937 -0.451136,0.96428 -0.451135,0.96428 -0.973584,-0.10128 0.136943,-0.37207 0.145727,-0.39688 0.403593,-0.46302 0.403076,-0.46302 H 93.277233 93.12272 l -0.415995,0.41599 -0.415479,0.41548 0.02067,0.44442 0.02015,0.41806 -0.256315,-0.0263 -1.239718,-0.12816 -0.09508,-0.093 -0.09508,-0.093 0.514697,-0.74311 0.514697,-0.74259 0.197921,-0.39688 0.197921,-0.39687 -0.809253,0.92604 -0.808736,0.92604 -0.0072,0.30593 -0.0067,0.30592 -0.489893,-0.12816 -0.489375,-0.12764 -0.001,-0.83974 -5.17e-4,-0.83923 0.112655,0.46303 0.113171,0.46302 h 0.192237 0.190686 l 0.30334,-0.30334 0.302824,-0.30283 -0.142627,-0.71468 -0.142627,-0.71417 1.592151,-2.09135 1.591634,-2.09134 3.182752,-3.26492 3.182234,-3.2644 0.318325,0.19637 0.31833,0.19689 -0.17002,-0.27544 -0.17053,-0.27543 0.44493,-0.3607 0.44442,-0.36071 -0.19844,0.33073 -0.19895,0.33073 h 0.25838 0.25838 l 0.13384,-0.33073 0.13436,-0.33073 0.28061,0.39688 0.2806,0.39687 0.004,-0.31522 0.004,-0.31523 -0.27751,-0.17105 -0.2775,-0.17156 0.32298,-0.38913 0.32298,-0.38912 0.94671,-0.46354 0.94671,-0.46302 0.59531,-0.31471 0.59532,-0.31471 0.48627,-0.24029 0.48679,-0.2403 0.36587,0.22583 0.36587,0.22634 -0.45578,0.17467 -0.45527,0.17518 v 0.32246 0.32246 l -0.66146,0.62115 -0.66146,0.62115 v 0.23151 0.231 l -0.92604,1.44797 -0.92604,1.44746 v 0.16795 0.16846 l 0.52916,-0.47904 0.52917,-0.47904 v -0.19534 -0.19585 l 0.76585,-0.8201 0.76636,-0.82011 0.16588,0.43305 0.1664,0.43356 0.14417,-0.14469 0.1447,-0.14418 -0.34934,-0.56327 -0.34881,-0.56276 0.29094,-0.19068 0.29145,-0.19017 0.71055,-1.1343 0.71055,-1.1343 -0.15761,-0.25476 -0.15761,-0.25477 h 0.30386 0.30437 l 0.49661,-0.59531 0.49661,-0.59531 0.009,-0.29507 0.009,-0.29508 0.55966,-0.71106 0.55914,-0.71107 -0.18242,-0.18242 -0.1819,-0.1819 -0.22686,0.39429 -0.22686,0.39481 -0.67955,0.91105 -0.67954,0.91158 v -0.33332 -0.33331 l 0.2899,-0.57826 0.28991,-0.57774 -0.81907,0.84542 -0.81908,0.84595 -2.00763,0.93999 -2.00814,0.94051 h -0.0837 -0.0837 l 0.30127,-0.63872 0.30179,-0.63924 0.17467,0.10853 0.17518,0.108 0.1571,-0.40928 0.15709,-0.40876 -0.26148,0.16175 -0.26148,0.16123 v -0.15865 -0.15916 l 0.52916,-0.56793 0.52917,-0.56792 -0.004,-0.28112 -0.004,-0.2806 -0.24598,0.38912 -0.24649,0.38913 -0.15348,-0.15348 -0.154,-0.154 0.97927,-0.74724 0.97978,-0.74724 0.68937,-0.032 0.68988,-0.0326 0.34003,-0.2098 z m -14.057022,0.0532 v 0.13229 0.13229 h 0.132291 0.132292 v -0.13229 -0.13229 h -0.132292 z m 6.879162,0.26458 v 0.13229 0.1323 h 0.1323 0.13229 v -0.1323 -0.13229 h -0.13229 z m 25.92917,0.0496 -0.52917,0.1385 -0.52916,0.13797 v 0.18965 0.18966 l 0.17621,0.17673 0.17622,0.17622 h 0.35295 0.35295 v -0.50437 z m 1.86449,0.13953 -0.39998,0.33228 -0.40049,0.33228 0.1695,0.27492 0.17001,0.2744 0.35399,-0.48369 0.35346,-0.48369 -0.12299,-0.12351 z m -26.47074,0.0755 v 0.13229 0.13229 h 0.13229 0.13229 v -0.13229 -0.13229 h -0.13229 z m 3.74603,0.13229 -0.0212,0.50694 -0.0207,0.50747 0.15968,-0.1602 0.15968,-0.15968 -0.13901,-0.34727 z m -22.002279,0.0444 v 0.35243 0.35295 l 0.176217,-0.17621 0.176216,-0.17674 -0.176216,-0.17621 z m 17.727079,0.0879 v 0.13229 0.13229 h 0.1323 0.13229 v -0.13229 -0.13229 h -0.13229 z m -1.366321,0.13332 -0.375171,0.51315 -0.37517,0.51315 0.0088,0.28009 0.0088,0.28008 0.527099,-0.63252 0.526583,-0.63303 -0.160197,-0.16072 z m -11.069091,0.13126 v 0.26459 0.26458 h 0.116272 0.116788 l 0.163815,-0.26458 0.163297,-0.26459 h -0.280086 z m 9.260416,0 v 0.26459 0.26458 h 0.264584 0.264583 v -0.26458 -0.26459 h -0.264583 z m 14.036356,0 -0.43719,0.8599 -0.4377,0.85989 0.69557,-0.6413 0.69505,-0.64182 v -0.21808 -0.21859 h -0.25787 z m 14.80323,0 v 0.13229 0.1323 h 0.13229 0.13229 v -0.1323 -0.13229 h -0.13229 z m -20.90209,0.17622 v 0.35295 0.35295 l 0.17622,-0.17673 0.17622,-0.17622 -0.17622,-0.17622 z m -9.225272,0.0357 -0.282154,0.17415 -0.282153,0.17415 v 0.28163 0.28112 l 0.403076,-0.33434 0.403076,-0.33487 -0.120923,-0.12092 z m 3.998722,0.03 -0.18035,0.47439 -0.18087,0.47439 0.32866,-0.32608 0.32867,-0.3266 -0.1478,-0.14779 z m 4.23333,0 -0.18035,0.47439 -0.18087,0.47439 0.32867,-0.32608 0.32866,-0.3266 -0.1478,-0.14831 z m 23.45128,0.0227 0.16382,0.26458 0.1633,0.26458 h 0.23357 0.23306 l 0.16382,-0.26458 0.1633,-0.26458 h -0.56018 z m -44.683056,0.52916 v 0.13229 0.1323 h 0.132292 0.132292 v -0.1323 -0.13229 h -0.132292 z m 4.528923,0 -0.163298,0.26459 -0.163814,0.26458 h 0.132292 0.132291 l 0.163815,-0.26458 0.163297,-0.26459 h -0.132292 z m 25.633573,0 v 0.13229 0.1323 h 0.1323 0.13229 v -0.1323 -0.13229 h -0.13229 z m 5.82084,0 v 0.13229 0.1323 h 0.13229 0.13229 v -0.1323 -0.13229 h -0.13229 z m 1.09399,0 -0.16795,0.52917 -0.16795,0.52917 h -0.22738 -0.22737 l -0.41651,0.83457 -0.416,0.83406 v 0.13281 0.13281 l 0.51883,-0.46974 0.51935,-0.46974 0.53485,-1.02681 0.53485,-1.0263 h -0.24236 z m 0.98805,0.13229 0.16743,0.59532 0.16743,0.59531 h -0.28267 -0.28215 v 0.39687 0.39688 h -0.21601 -0.21549 l -0.44596,0.93483 -0.44546,0.93534 v 0.1819 0.18242 l 0.45682,-0.65423 0.45734,-0.65422 0.40256,-0.50953 0.40308,-0.50901 0.58291,-0.61547 0.58342,-0.61495 h -0.25269 -0.25219 l -0.16898,0.0227 -0.16898,0.0222 -0.24546,-0.35295 z m -29.863292,0.1323 v 0.13229 0.13229 h 0.132291 0.132292 v -0.13229 -0.13229 h -0.132292 z m 13.493752,0 v 0.13229 0.13229 h 0.13229 0.13229 v -0.13229 -0.13229 h -0.13229 z m -7.725629,0.13229 -1.054716,1.18391 -1.054199,1.18339 -0.251664,0.47025 -0.251148,0.46974 0.207739,-0.0284 0.20774,-0.0284 1.298628,-1.42886 1.298629,-1.42885 -0.200504,-0.19637 z m 21.261239,0 -0.0212,0.50694 -0.0207,0.50747 0.15968,-0.1602 0.15968,-0.15968 -0.13901,-0.34727 z m -18.836064,0.0351 -0.326595,0.32918 -0.326078,0.32866 0.474389,-0.18087 0.474388,-0.18035 -0.14831,-0.14831 z m 27.826204,0.0884 -0.16588,0.26924 -0.1664,0.26872 h 0.41238 0.4129 v -0.11679 -0.11679 l -0.2465,-0.15193 z m -37.342419,0.009 v 0.13229 0.13229 h 0.132292 0.132291 v -0.13229 -0.13229 h -0.132291 z m 12.699999,0 h 0.13229 0.13229 v 0.13229 0.13229 h -0.13229 -0.13229 v -0.13229 z m 1.05833,0 v 0.26458 0.26459 h 0.26459 0.26458 v -0.26459 -0.26458 h -0.26458 z m -8.495601,0.14779 -0.24598,0.38913 -0.24598,0.38912 -0.0041,0.24908 -0.0041,0.24908 0.375171,-0.51314 0.375171,-0.51315 -0.125057,-0.12506 z m 33.895601,0.0284 v 0.35295 0.35295 l 0.17622,-0.17674 0.17622,-0.17621 -0.17622,-0.17622 z m -30.884416,0.22065 -0.697631,0.64131 -0.697115,0.64182 v 0.25063 0.25063 l 0.411344,-0.34106 0.411344,-0.34158 0.285771,-0.55087 z m 3.927926,0.1323 h 0.11679 0.11679 v 0.26458 0.26458 h -0.28061 -0.28008 l 0.16381,-0.26458 z m -12.174451,0.006 -0.410827,0.15761 -0.410311,0.15761 v 0.10387 0.10387 h 0.248564 0.24908 l 0.161747,-0.26148 z m 2.440162,0.12609 -0.439767,0.36328 -0.440283,0.36277 v 0.23255 0.23202 h 0.12299 0.12299 l 0.316776,-0.59531 z m -6.171717,0.0439 v 0.35295 0.35295 l 0.176217,-0.17673 0.176217,-0.17622 -0.176217,-0.17621 z m 12.7,0.0884 v 0.13229 0.13229 h 0.132292 0.132292 v -0.13229 -0.13229 h -0.132292 z m -17.727083,0.26458 v 0.13229 0.1323 h 0.132292 0.132291 v -0.1323 -0.13229 h -0.132291 z m 9.356535,0.008 -0.907955,1.23507 -0.907955,1.23506 -0.488859,0.81132 -0.488342,0.81132 -0.52555,0.8599 -0.525032,0.8599 0.39119,-0.14987 0.391191,-0.15037 0.854211,-1.60301 0.854212,-1.603 0.47594,-0.47542 0.47594,-0.47594 0.305924,-0.57206 0.306441,-0.57206 -0.105936,-0.10542 z m -8.827368,0.25632 v 0.13229 0.13229 h 0.132291 0.132292 v -0.13229 -0.13229 h -0.132292 z m 1.071769,0 -0.444418,0.85989 -0.444934,0.8599 0.452686,-0.37517 0.452169,-0.37517 0.259415,-0.48473 0.259416,-0.48472 h -0.267167 z m 23.565483,0 h 0.1323 0.13229 l -0.1633,0.26458 -0.16382,0.26458 h -0.13229 -0.13229 l 0.16382,-0.26458 z m 3.67316,0 v 0.13229 0.13229 h 0.1323 0.13229 v -0.13229 -0.13229 h -0.13229 z m 0.92605,0.13229 -0.46302,0.36328 -0.46303,0.36277 v 0.10025 0.0997 h 0.0997 0.0997 l 0.36328,-0.46302 z m -22.061707,0.13229 -0.163297,0.26458 -0.163814,0.26459 h 0.264583 0.264583 l 0.163815,-0.26459 0.163297,-0.26458 h -0.264583 z m 5.525245,0.23358 -0.26355,0.16226 -0.263033,0.16278 -0.29869,0.58084 -0.29869,0.58033 0.561723,-0.58446 0.56224,-0.58394 v -0.15917 z m -12.964584,0.031 v 0.13229 0.1323 h 0.132292 0.132292 v -0.1323 -0.13229 h -0.132292 z m 28.045836,0 v 0.13229 0.1323 h 0.13229 0.13229 v -0.1323 -0.13229 h -0.13229 z m -16.908531,0.20154 -0.409277,0.4098 -0.409278,0.40927 v 0.31264 0.31265 l 0.506429,-0.62425 0.506429,-0.62477 -0.09715,-0.0977 z m 24.828971,0.19534 -0.34829,0.45888 -0.34882,0.45889 -0.21446,-0.1943 -0.21446,-0.19431 0.20464,0.3545 0.20516,0.35451 -1.00976,1.03456 -1.01027,1.03456 0.38447,-0.0129 0.38344,-0.0124 0.99219,-1.24282 0.99218,-1.24333 -0.008,-0.39791 z m 12.71706,0.13229 v 0.13229 0.13229 h 0.13229 0.13229 v -0.13229 -0.13229 h -0.13229 z m 1.10019,0.39687 -0.0212,0.50695 -0.0207,0.50746 0.15968,-0.16019 0.15968,-0.15968 -0.13901,-0.34727 z m -17.23978,0.10129 v 0.28009 0.28008 h 0.26459 0.26458 v -0.11679 -0.11678 l -0.26458,-0.1633 z m 1.6738,0.1633 -0.43976,0.36328 -0.44029,0.36277 v 0.23255 0.23202 h 0.12299 0.12299 l 0.31678,-0.59531 z m -21.782129,0.13229 v 0.13229 0.13229 h 0.132292 0.132291 v -0.13229 -0.13229 h -0.132291 z m -2.38125,0.1726 -0.661458,0.62115 -0.661459,0.62167 v 0.37103 0.37104 l 0.661459,-0.78651 0.661458,-0.786 v -0.20619 z m 3.206006,0.092 -0.163298,0.26459 -0.163814,0.26458 h 0.280086 0.280603 v -0.26458 -0.26459 h -0.116788 z m 23.044073,0 -0.15245,0.39688 -0.15193,0.39687 h 0.0915 0.0915 l 0.32969,-0.39687 0.32918,-0.39688 h -0.26871 z m -27.572996,0.23358 -0.264583,0.1633 -0.264583,0.1633 v 0.26458 0.26458 l 0.264583,-0.1633 0.264583,-0.16329 v -0.26459 z m 3.439584,0 -0.264584,0.1633 -0.264583,0.1633 v 0.26458 0.26458 l 0.264583,-0.1633 0.264584,-0.16329 v -0.26459 z m 30.956252,0.031 v 0.13229 0.13229 h 0.13229 0.13229 v -0.13229 -0.13229 h -0.13229 z m -5.29167,0.17621 v 0.35295 0.35295 l 0.17622,-0.17673 0.17621,-0.17622 -0.17621,-0.17621 z m -34.660416,0.0884 v 0.13229 0.13229 h 0.132292 0.132292 v -0.13229 -0.13229 h -0.132292 z m 1.846399,0.17105 -0.791166,0.75758 -0.790649,0.75809 v -0.34675 -0.34623 l -0.396875,0.32918 -0.396875,0.32918 v 0.26096 0.26097 l 0.727604,-0.17725 0.727604,-0.17725 0.647506,-0.63717 0.646989,-0.63717 -0.187069,-0.18707 z m 35.724437,0.005 v 0.35295 0.35295 l 0.17621,-0.17674 0.17622,-0.17621 -0.17622,-0.17622 z m 2.38125,0.0574 -0.26459,0.16329 -0.26458,0.1633 v 0.39688 0.39687 l 0.26458,-0.1633 0.26459,-0.16329 v -0.39688 z m 6.87916,0.031 v 0.39688 0.39687 h 0.10387 0.10387 l 0.15245,-0.39687 0.15244,-0.39688 h -0.25631 z m -16.66875,0.19999 -0.39687,0.32918 -0.39688,0.32918 v 0.26458 0.26459 l 0.39688,-0.32918 0.39687,-0.32918 v -0.26459 z m -37.337768,0.0646 0.163814,0.26458 0.163297,0.26458 h 0.264584 0.264583 l -0.163297,-0.26458 -0.163815,-0.26458 h -0.264583 z m 6.941695,0 -0.163298,0.26458 -0.163814,0.26458 h 0.132292 0.132291 l 0.163815,-0.26458 0.163297,-0.26458 h -0.132292 z m 27.353373,0.0677 -0.0393,0.64492 -0.0393,0.64441 0.0481,-0.0832 0.0475,-0.0832 0.32918,-0.43201 0.32866,-0.43202 -0.33745,-0.12971 z m -5.15938,0.10852 v 0.35295 0.35295 l 0.17622,-0.17673 0.17621,-0.17622 -0.17621,-0.17621 z m 10.59522,0.0134 -0.40308,0.33435 -0.40256,0.33434 v 0.10025 0.0997 h 0.23617 0.23616 l 0.16691,-0.43408 z m -5.91385,0.0501 -0.21549,0.2155 -0.21549,0.21549 0.15451,0.59066 0.15451,0.59066 h 0.0837 0.0837 l -0.0227,-0.80615 z m -29.287619,0.0248 v 0.13229 0.13229 h 0.132292 0.132291 v -0.13229 -0.13229 h -0.132291 z m 40.013059,0.14934 -0.42736,0.3545 -0.42737,0.35451 v 0.25424 0.25425 l 0.33073,-0.11007 0.33073,-0.11007 0.0966,-0.49868 z m -2.97139,0.0269 -0.78652,0.77153 -0.78651,0.77152 -0.0243,0.39688 -0.0238,0.39687 -0.23926,-0.59531 -0.23927,-0.59531 h -0.42271 -0.42323 l -0.5116,0.27388 -0.51159,0.27441 v -0.27441 -0.27388 h -0.39688 -0.39687 v 0.35243 0.35192 l -0.59531,0.29094 -0.59532,0.29094 -1.71979,0.7307 -1.71979,0.73071 -1.99781,1.26348 -1.9973,1.26401 -1.90531,1.96474 -1.90479,1.96422 v 0.27388 0.27389 l -0.41599,0.41599 -0.41548,0.41548 h 0.24753 0.24804 l 0.63097,-0.49402 0.63097,-0.49403 1.24695,-0.56637 1.24747,-0.56689 0.73691,-0.92346 0.73742,-0.92398 h 0.19534 0.19534 l 0.46612,-0.37465 0.46612,-0.37466 1.48828,-1.18855 1.48828,-1.18908 0.82682,-0.42736 0.82683,-0.42788 v 0.1235 0.12351 l 0.70848,-0.36794 0.70849,-0.36742 0.21755,0.13436 0.21756,0.13436 v -0.28008 -0.28061 l 0.19844,0.0662 0.19844,0.0661 1.418,-0.38654 1.418,-0.38602 0.63252,-0.8294 0.63252,-0.82889 v -0.34985 z m -8.75451,0.22065 -0.37362,1.048 -0.3731,1.04852 0.1204,0.1204 0.12041,0.12041 v -0.32453 -0.32401 l 0.26872,0.16588 0.26872,0.1664 -0.12454,0.20205 -0.12506,0.20206 h 0.38499 0.3855 v -0.22014 -0.22066 h -0.26458 -0.26458 l -0.0119,-0.99219 z m 13.60331,0.26459 -0.44029,0.36328 -0.43976,0.36277 v 0.23255 0.23202 h 0.12299 0.12299 l 0.31677,-0.59531 z m -21.51755,0.13229 v 0.13229 0.13229 h 0.13229 0.13229 v -0.13229 -0.13229 h -0.13229 z m -6.375324,0.19895 0.43925,0.16847 0.439249,0.16846 -0.324528,0.39119 -0.324011,0.39068 -0.23151,-0.14315 -0.232027,-0.14314 0.143143,0.37311 0.143661,0.3731 -2.138371,2.08824 -2.137854,2.08773 -1.117244,1.45108 -1.116728,1.45055 -0.79375,0.80254 -0.79375,0.80202 -1.007691,0.59117 -1.007173,0.59118 h -0.249597 -0.249081 v -0.37465 -0.37466 l -0.330729,-0.11213 -0.330729,-0.11162 0.926042,-1.09503 0.926041,-1.09502 0.761711,-0.94155 0.762227,-0.94154 0.118339,0.11834 0.118339,0.11834 -0.963248,1.41283 -0.963766,1.41232 -0.578259,0.48627 -0.578259,0.48576 0.314192,-0.16071 0.31471,-0.16072 0.272851,0.46819 0.272852,0.46871 0.0279,-0.13229 0.02842,-0.1323 0.08217,-0.41857 0.08217,-0.41807 1.088306,-1.79162 1.088306,-1.7911 v -0.12093 -0.12092 l -0.264584,0.1633 -0.264583,0.16381 v -0.1111 -0.11111 l 0.926042,-0.98185 0.926041,-0.98185 v -0.23048 -0.23047 l -2.050521,2.03501 -2.05052,2.03554 0.04444,0.0889 0.04496,0.0889 -1.02061,1.34927 -1.021126,1.34875 0.447001,0.33952 0.447001,0.34003 -0.321944,0.008 -0.321944,0.009 -0.934827,-0.85783 -0.934826,-0.85834 v -0.21704 -0.21756 l 0.79375,-0.66766 0.79375,-0.66818 v -0.32297 -0.32246 l 2.116666,-1.92082 2.116667,-1.92029 v -0.48059 -0.48008 l 0.495577,-0.12971 0.495577,-0.1297 -0.115755,0.44131 -0.115239,0.44184 -1.346171,1.57509 -1.345654,1.57562 -0.357084,-0.0775 -0.357084,-0.078 v 0.29507 0.29508 l -0.33073,0.36897 -0.330729,0.36897 -0.330729,0.3948 -0.330729,0.39481 v 0.27595 0.27544 h 0.246496 0.247014 l 0.151929,-0.47904 0.151928,-0.47904 1.841748,-1.75855 1.842265,-1.75855 0.377238,-0.90279 0.377238,-0.90278 0.60203,-0.42168 0.602031,-0.42168 2.587956,-0.83664 z m 13.254484,0.24185 v 0.35295 0.35295 l 0.17622,-0.17673 0.17622,-0.17622 -0.17622,-0.17622 z m 11.37709,0 v 0.35295 0.35295 l 0.17621,-0.17673 0.17622,-0.17622 -0.17622,-0.17622 z m -19.84117,0.0884 -1.324466,1.29656 -1.32395,1.29708 -0.02636,0.35656 -0.02635,0.35709 -0.181901,-0.65113 -0.181384,-0.65112 -0.468705,0.98806 -0.469222,0.98805 -0.249081,-0.154 -0.24908,-0.15399 v 0.41031 0.40979 l -0.529167,0.33073 -0.529166,0.33021 v 0.3204 0.31987 l -0.463021,0.26976 -0.463021,0.26975 0.334863,0.008 0.33538,0.008 1.185974,-1.23765 1.186491,-1.23817 v -0.19379 -0.1943 l 0.653707,0.0718 0.654224,0.0718 -0.114205,-0.185 -0.114722,-0.185 1.444872,-1.51567 1.44487,-1.51567 v -0.11421 -0.1142 h -0.26355 z m -17.200499,0.26458 v 0.13229 0.13229 h 0.132292 0.132291 v -0.13229 -0.13229 h -0.132291 z m 37.832829,0.13229 -0.76998,1.16117 -0.76997,1.16065 -1.5503,1.35289 -1.55029,1.35237 -2.01796,2.11667 -2.01745,2.11667 -1.03301,1.32291 -1.03302,1.32292 -0.19947,0.33073 -0.19999,0.33073 0.21395,-0.016 0.21394,-0.016 0.92604,-1.19838 0.92604,-1.19837 1.86345,-1.89446 1.86345,-1.89446 1.43506,-1.5875 1.43505,-1.5875 0.14108,0.11731 0.14108,0.11679 0.98443,-1.43971 0.98392,-1.44022 0.007,-0.26459 z m -27.686678,0.13229 -0.641305,0.70435 -0.641304,0.70384 0.330729,-0.19069 0.330729,-0.19017 v 0.29559 0.29559 l 0.282153,-0.17415 0.282154,-0.17363 -0.151929,-0.15245 -0.152446,-0.15193 0.730188,-0.48111 0.729672,-0.4811 -0.549321,-0.002 z m 8.110098,0 v 0.26459 0.26458 h 0.11627 0.11679 l 0.16382,-0.26458 0.16329,-0.26459 h -0.28008 z m -6.622334,0.13229 -1.047998,1.16221 -1.047998,1.1622 -0.361735,-0.29972 -0.361218,-0.30024 -0.17415,0.17415 -0.174149,0.17415 v 0.21187 0.21239 l 0.396875,-0.15245 0.396875,-0.15244 v 0.24133 0.24081 l -0.877466,0.85059 -0.877466,0.85008 -0.183451,-0.18345 -0.183452,-0.18345 0.597897,-0.6811 0.597896,-0.68109 -0.744657,0.65732 -0.744658,0.65784 -0.380338,0.80099 -0.379822,0.80098 -0.920874,1.05472 -0.920874,1.05523 -0.0047,0.24391 -0.0052,0.2434 -0.463021,0.53278 -0.46302,0.53279 0.989603,-0.73949 0.989604,-0.74001 -0.145728,-0.23513 -0.14521,-0.23512 0.180867,-0.29301 0.181384,-0.29249 0.198438,0.32091 0.198437,0.32091 0.180868,-0.29248 0.180867,-0.29301 h -0.329695 -0.329696 l 0.777214,-0.81649 0.777213,-0.817 1.623674,-1.32189 1.623673,-1.32188 0.486792,-0.90434 0.486792,-0.90382 h 0.204639 0.204639 l -0.0041,-0.33073 z m 27.495484,0.0155 -0.2465,0.38912 -0.24598,0.38912 -0.004,0.24909 -0.004,0.24908 0.37517,-0.51315 0.37517,-0.51315 -0.12506,-0.12506 z m 9.61905,0.0941 0.14831,0.14779 0.14779,0.14831 -0.32866,0.3266 -0.32866,0.32608 0.18087,-0.47439 z m -28.11095,0.0227 v 0.13229 0.13229 h 0.13229 0.13229 v -0.13229 -0.13229 h -0.13229 z m 28.88144,0.13229 -0.0212,0.50694 -0.0207,0.50747 0.15968,-0.1602 0.15968,-0.15968 -0.13901,-0.34727 z m -52.807627,0.66042 1.049031,0.54364 1.049032,0.54312 0.661458,0.0884 0.661459,0.0884 0.192236,0.03 0.192753,0.03 -1.190108,1.09709 -1.190108,1.09709 0.137976,0.13849 0.138492,0.13798 -0.357084,0.41858 -0.357601,0.41806 -0.147277,0.41909 -0.147278,0.4191 0.867647,-0.0222 0.867131,-0.0217 1.29036,-1.45055 1.290361,-1.45056 0.85111,-0.86455 0.851111,-0.86454 h 0.547254 0.547253 l -0.254248,0.46302 -0.253731,0.46302 -0.5271,0.4408 -0.526583,0.44131 -0.128157,-0.12815 -0.128158,-0.12816 -0.886251,0.90227 -0.88625,0.90279 -0.541053,0.69246 -0.541052,0.69298 -0.8816,0.37052 -0.8816,0.37052 0.280086,0.17312 0.27957,0.1726 0.166398,-0.26872 0.165881,-0.26923 h 0.289905 0.289905 l -0.478524,0.52916 -0.47904,0.52969 -0.157613,-0.003 -0.157097,-0.004 -0.604097,-0.93224 -0.603581,-0.93173 -0.12144,-0.71882 -0.121956,-0.7183 0.460954,-0.90692 0.460954,-0.90641 0.396875,-0.11885 0.396875,-0.11834 -0.33073,0.35088 -0.330729,0.35037 v 0.25786 0.25787 l 0.661459,-0.62167 0.661458,-0.62115 v -0.2713 -0.27182 l -0.308508,0.30851 -0.308509,0.30851 -0.356567,-0.45424 -0.357084,-0.45372 0.06976,0.26458 0.07028,0.26459 -0.198438,0.0661 -0.198437,0.0662 h -0.396875 -0.396875 l -0.03101,-0.59531 -0.03049,-0.59532 -0.127641,0.52917 -0.127124,0.52917 -0.238745,0.25166 -0.238745,0.25115 0.0093,-0.38344 0.0093,-0.38396 0.33073,-0.59531 z m 17.840771,10e-4 v 0.13229 0.13229 h 0.132292 0.132292 v -0.13229 -0.13229 h -0.132292 z m 11.244796,0.0599 -0.71211,0.66611 -0.71158,0.66559 -0.38292,-0.14676 -0.38241,-0.14676 0.13901,0.53175 0.13901,0.53175 0.16175,-0.22737 0.16175,-0.22686 0.79375,-0.51315 0.79375,-0.51315 0.26458,-0.0357 0.26458,-0.0357 0.26459,-0.0589 0.26458,-0.0589 -0.52917,-0.21601 z m 10.15752,0.0878 -0.2465,0.38912 -0.24598,0.38913 -0.004,0.24908 -0.004,0.24908 0.37517,-0.51315 0.37517,-0.51315 -0.12506,-0.12505 z m -18.46089,0.11679 -0.1633,0.26458 -0.16382,0.26459 h 0.1323 0.13229 l 0.16381,-0.26459 0.1633,-0.26458 h -0.13229 z m 5.52524,0 v 0.13229 0.13229 h 0.13229 0.13229 v -0.13229 -0.13229 h -0.13229 z m 15.06213,0.13229 -0.58601,0.75241 -0.58549,0.75293 -0.8599,0.92707 -0.8599,0.92759 v 0.10387 0.10336 l -0.96479,1.25935 -0.96429,1.25884 -0.36638,0.79375 -0.36587,0.79375 -0.48473,0.79375 -0.48421,0.79375 -2.16524,2.18281 -2.16472,2.18281 h -0.37621 -0.3762 l -0.29352,0.54777 -0.29301,0.54829 0.73432,-0.48111 0.73484,-0.48111 -0.185,0.52814 -0.185,0.52865 1.12396,-1.23507 1.12396,-1.23558 1.50327,-1.68414 1.50378,-1.68465 0.72347,-1.44591 0.72347,-1.4459 1.06816,-1.45521 1.06815,-1.45521 1.13636,-1.3994 1.13688,-1.39939 -0.0103,-0.18811 z m -15.24506,0.26458 -0.40928,0.33952 -0.40928,0.33951 -0.13591,0.52038 -0.13591,0.52039 h 0.10026 0.10076 l 0.44494,-0.8599 z m -29.185819,0.0439 -0.176733,0.17673 -0.176217,0.17622 h 0.35295 0.352433 l -0.176216,-0.17622 z m 37.835419,0.0574 v 0.2465 0.24701 l -0.92449,1.00924 -0.9245,1.00924 -0.663,1.26814 -0.66301,1.26814 v 0.18862 0.18862 l 0.64854,-0.91106 0.64905,-0.91157 0.60772,-0.87798 0.60823,-0.8785 0.60203,-0.75551 0.60203,-0.75551 -0.2713,-0.16795 z m -13.22917,0.031 v 0.13229 0.13229 h 0.13229 0.13229 v -0.13229 -0.13229 h -0.13229 z m -1.20096,0.13229 -0.47025,0.37362 -0.47026,0.3731 -0.534852,0.75138 -0.534851,0.75086 h 0.128158 0.128158 l 0.876947,-1.12448 z m 2.25929,0.13229 v 0.13229 0.13229 h 0.1323 0.13229 v -0.13229 -0.13229 h -0.13229 z m 3.70417,0 v 0.13229 0.13229 h 0.13229 0.13229 v -0.13229 -0.13229 h -0.13229 z m 7.65586,0.0232 -0.3545,0.13591 -0.35398,0.13643 -1.37253,1.69137 -1.37252,1.69188 -0.51367,0.16279 -0.51314,0.16278 v 0.22531 0.2253 l -0.96222,0.88109 -0.96273,0.8816 -0.42633,0.49557 -0.42685,0.49558 -0.46715,0.45424 -0.46767,0.45423 -0.72296,0.36742 -0.72347,0.36794 -0.7276,0.78083 -0.72761,0.78031 -0.002,-0.24598 -0.002,-0.24598 -0.39481,0.7581 -0.39532,0.75757 v 0.10232 0.10181 h 0.13281 0.13384 l 0.95601,-1.05834 0.95602,-1.05833 h 0.34881 0.34882 l 3.60908,-3.50573 3.60857,-3.50573 0.89761,-1.24488 z m -29.042151,0.19844 0.104904,0.1049 0.104903,0.10491 -1.053683,1.02836 -1.053165,1.02888 0.0083,-0.38448 0.0083,-0.38447 0.322461,-0.41961 0.322461,-0.42013 0.61805,-0.32918 z m 31.440461,0.0594 -0.34468,0.13229 -0.3452,0.13229 -0.49971,0.85163 -0.50023,0.85163 0.84491,-0.79272 0.84491,-0.79323 v -0.19069 z m 12.43541,0.15968 v 0.35295 0.35295 l 0.17622,-0.17673 0.17622,-0.17622 -0.17622,-0.17622 z m -48.757226,0.0439 0.150895,0.39326 0.150895,0.39326 -0.15813,0.15813 -0.15813,0.15813 h -0.220658 -0.220659 l 0.0041,-0.19844 0.0041,-0.19844 0.223759,-0.35295 z m 20.975976,0.0134 -0.26458,0.1633 -0.26458,0.1633 v 0.24908 0.24908 h 0.26458 0.26458 v -0.41238 z m 5.23896,0.26097 -0.53227,0.48059 -0.53226,0.48007 -1.05369,1.25677 -1.05368,1.25677 h 0.15865 0.15813 l 1.57871,-1.49241 1.57872,-1.49242 -0.15141,-0.24443 z m -2.32854,0.0346 v 0.11059 0.11058 l 0.15968,0.41703 0.1602,0.41703 0.22531,-0.13901 0.22531,-0.13952 -0.14883,-0.38809 -0.14935,-0.38861 h -0.23616 z m 7.67292,0 v 0.13229 0.13229 h 0.13229 0.13229 v -0.13229 -0.13229 h -0.13229 z m 14.81666,0 v 0.13229 0.13229 h 0.1323 0.13229 v -0.13229 -0.13229 h -0.13229 z m 1.76992,0.18293 0.17777,0.28733 0.17725,0.2868 -0.26872,0.1664 -0.26872,0.1664 v 0.24856 0.24908 h 0.12299 0.12299 l 0.27441,-0.51315 0.2744,-0.51314 -0.30593,-0.18914 z m -52.317735,0.006 -0.132291,0.13229 -0.132292,0.13229 0.171049,0.44597 0.171049,0.44596 0.132292,-0.13229 0.132291,-0.13229 -0.171049,-0.44597 z m 41.318405,0.0754 -0.16329,0.26459 -0.16382,0.26458 h 0.13229 0.13229 l 0.16382,-0.26458 0.1633,-0.26459 h -0.13229 z m -13.56713,0.13436 -0.90485,0.98702 -0.90486,0.98754 v 0.30231 0.30282 l 1.03198,-1.15859 1.03198,-1.15858 -0.12712,-0.13126 z m 23.85488,0.0481 -0.53847,0.48731 -0.53847,0.48731 0.14056,0.3669 0.14056,0.36639 -0.66042,0.86558 -0.66043,0.86609 v 0.34262 0.34313 l 0.92346,-1.16169 0.92242,-1.16168 0.003,-0.19844 0.003,-0.19844 h -0.30592 -0.30541 l 0.4377,-0.48369 0.43822,-0.48421 v -0.21859 z m -29.765627,0.18759 -0.859896,0.86919 -0.859896,0.86972 v 0.30076 0.30075 l 0.396875,-0.32918 0.396875,-0.32918 v -0.28163 -0.28112 l 0.463021,-0.55966 z m 2.066027,0.15916 -0.47853,0.52917 -0.479038,0.52916 h -0.356051 -0.355533 v 0.40618 0.40618 l 0.522965,-0.28009 0.522966,-0.27957 0.284221,-0.53072 0.2837,-0.53071 0.23306,0.14417 0.23306,0.14418 0.1664,-0.26923 0.16588,-0.26872 h -0.37155 z m 2.2996,0 v 0.13229 0.13229 h 0.13229 0.13229 v -0.13229 -0.13229 h -0.13229 z m 14.02291,0 v 0.13229 0.13229 h 0.1323 0.13229 v -0.13229 -0.13229 h -0.13229 z m -5.25652,0.47646 -0.28681,0.17673 -0.28628,0.17725 0.16949,0.2744 0.17002,0.2744 0.21704,-0.35088 0.21704,-0.3514 -0.10025,-0.10025 z m 4.77748,0.015 -0.55448,0.47439 -0.55398,0.47491 v 0.25166 0.25218 l 0.66043,-0.62063 0.66042,-0.62063 -0.10645,-0.10594 z m -13.73146,0.17002 -0.59221,0.52606 -0.59221,0.52659 -0.27854,0.53175 -0.27853,0.53226 0.59221,-0.52606 0.59221,-0.52658 0.27854,-0.53175 z m 7.8605,0.0439 -0.17673,0.17674 -0.17622,0.17621 h 0.35295 0.35244 l -0.17622,-0.17621 z m -32.808329,0.0884 v 0.13229 0.13229 h 0.132292 0.132291 v -0.13229 -0.13229 h -0.132291 z m 5.291667,0 h 0.264583 0.264583 v 0.11989 0.11989 l -0.307475,0.67386 -0.306958,0.67386 h -0.274918 -0.274919 l 0.317294,-0.31729 0.31781,-0.31781 v -0.47594 z m 32.014582,0 v 0.13229 0.13229 h 0.13229 0.13229 v -0.13229 -0.13229 h -0.13229 z m 10.2924,0 0.25063,0.44752 0.25011,0.44803 -0.39998,0.6103 -0.39997,0.61082 0.22893,-0.0191 0.22892,-0.0191 0.79169,-0.95033 0.79168,-0.95085 -0.59325,0.31781 -0.59324,0.31729 v -0.40617 -0.40618 h -0.27802 z m -43.629899,0.26458 v 0.13229 0.1323 h 0.132292 0.132291 v -0.1323 -0.13229 h -0.132291 z m 27.781249,0.26459 v 0.13229 0.13229 h 0.13229 0.13229 v -0.13229 -0.13229 h -0.13229 z m -32.279166,0.17621 v 0.35295 0.35295 l 0.176217,-0.17673 0.176217,-0.17622 -0.176217,-0.17621 z m 22.869926,0.0884 -0.317297,0.8599 -0.317293,0.85989 0.517797,-0.66146 0.517803,-0.66146 0.006,-0.19843 0.006,-0.19844 h -0.20671 z m 3.85299,0 v 0.13229 0.13229 h 0.13229 0.13229 v -0.13229 -0.13229 h -0.13229 z m 6.35,0 v 0.13229 0.13229 h 0.13229 0.13229 v -0.13229 -0.13229 h -0.13229 z m -0.27905,0.13229 -0.92243,0.99219 -0.92242,0.99219 h -0.16381 -0.16382 l -0.49403,0.56947 -0.49402,0.56999 v 0.27027 0.27027 l 0.46302,-0.41496 0.4625,-0.41497 1.12448,-1.05523 1.12448,-1.05575 -0.007,-0.36173 z m -13.479282,0.0398 -0.678512,0.63717 -0.678512,0.63769 -0.423746,0.93018 -0.42323,0.92965 -0.531751,0.59532 -0.53175,0.59531 0.509013,0.0139 0.38964,0.0109 0.03566,-0.15709 0.438733,-0.78755 0.439249,-0.78755 0.727604,-1.03818 0.727605,-1.03766 v -0.2713 z m -2.368848,4.35012 -0.02325,0.10284 0.143143,-0.0997 z m -0.02325,0.10284 -0.452169,0.31574 -0.595313,0.41497 v 0.36483 0.36432 h 0.222209 0.221692 l 0.271301,-0.59531 0.271301,-0.59532 0.05994,-0.26458 z m -16.393315,-4.36046 v 0.13229 0.1323 h 0.132292 0.132291 v -0.1323 -0.13229 h -0.132291 z m 20.396171,0.35295 0.135909,0.22014 0.136426,0.22066 h 0.101286 0.100769 l 0.136425,-0.22066 0.136426,-0.22014 h -0.37362 z m -3.662309,0.15348 -0.180351,0.47439 -0.180867,0.47439 0.328662,-0.32608 0.328662,-0.32659 -0.147794,-0.14831 z m -16.508553,0.23823 -0.133842,0.13384 -0.133842,0.13384 0.448552,0.68472 0.448034,0.68419 h 0.109038 0.10852 l -0.42323,-0.81803 z m 42.637186,0.0491 v 0.13229 0.1323 h 0.13229 0.13229 v -0.1323 -0.13229 h -0.13229 z m 11.1125,0 v 0.13229 0.1323 h 0.13229 0.13229 v -0.1323 -0.13229 h -0.13229 z m -30.98519,0.1478 -0.24649,0.38912 -0.24598,0.38912 -0.004,0.25529 -0.004,0.25476 0.44701,-0.447 0.44751,-0.44752 -0.1974,-0.19689 z m -7.114805,0.11679 v 0.13229 0.13229 h 0.132292 0.132291 v -0.13229 -0.13229 h -0.132291 z m 3.999756,0 -0.163298,0.26458 -0.163814,0.26458 h 0.280086 0.280603 v -0.26458 -0.26458 H 97.73099 Z m 26.956489,0.17621 v 0.35295 0.35295 l 0.17622,-0.17673 0.17621,-0.17622 -0.17621,-0.17621 z m 6.87917,0.0574 -0.26459,0.1633 -0.26458,0.16382 v 0.24856 0.24908 h 0.26458 0.26459 v -0.41238 z m -37.306248,0.20051 -0.79375,0.88883 -0.79375,0.88884 v 0.34933 0.34933 h 0.122473 0.12299 l 0.67076,-0.98753 0.671277,-0.98754 v -0.25063 z m 31.534508,0.0563 -1.28158,1.58853 -1.28106,1.58853 -0.33073,0.0186 -0.33073,0.0181 v 0.52917 0.52917 h 0.26459 0.26458 v -0.26097 -0.26097 l 1.47898,-1.74356 1.47898,-1.74356 -0.13126,-0.13178 z m -13.72113,0.17104 -0.44028,0.36329 -0.43977,0.36277 v 0.23254 0.23203 h 0.12299 0.12299 l 0.31678,-0.59531 z m 20.35276,0.0517 v 0.72192 0.7214 l 0.2589,-0.2589 0.2589,-0.25889 -0.2589,-0.46302 z m -19.08514,0.0806 -0.16329,0.26458 -0.16382,0.26458 h 0.13229 0.13229 l 0.16382,-0.26458 0.1633,-0.26458 h -0.13229 z m -13.260165,0.22376 -0.743107,0.74775 -0.743107,0.74776 -0.174667,0.46302 -0.174666,0.46302 h 0.103353 0.10387 l 0.813903,-0.8139 0.814421,-0.8139 v -0.39688 z m -3.143994,0.0408 -0.163298,0.26458 -0.163814,0.26459 h 0.132292 0.132291 l 0.163815,-0.26459 0.163297,-0.26458 h -0.132292 z m 19.548159,0.26458 v 0.13229 0.1323 h 0.13229 0.13229 v -0.1323 -0.13229 h -0.13229 z m 1.88309,0 -0.1633,0.26459 -0.16382,0.26458 h 0.1323 0.13229 l 0.16381,-0.26458 0.1633,-0.26459 h -0.13229 z m 5.37435,0 -0.46871,0.79375 -0.4687,0.79375 h 0.0971 0.0977 l 0.58704,-0.79375 0.58653,-0.79375 h -0.21549 z m 7.03006,0.17622 v 0.35295 0.35295 l 0.17621,-0.17673 0.17622,-0.17622 -0.17622,-0.17622 z m -18.25625,0.0238 -0.39688,0.32918 -0.39687,0.32918 v 0.22427 0.22376 l 0.39687,-0.15244 0.39688,-0.15245 v -0.40049 z m -27.516665,0.046 -0.529167,0.28319 -0.529166,0.28319 v 0.25528 0.25528 h 0.211356 0.211874 l 0.317293,-0.31729 0.31781,-0.31781 v -0.22066 z m 30.427075,0.0186 v 0.13229 0.13229 h 0.1323 0.13229 v -0.13229 -0.13229 h -0.13229 z m -17.991658,0.26458 v 0.13229 0.13229 h 0.132291 0.132292 v -0.13229 -0.13229 h -0.132292 z m 18.551838,0 -0.1633,0.26458 -0.16382,0.26459 h 0.1323 0.13229 l 0.16381,-0.26459 0.1633,-0.26458 h -0.13229 z m 15.88585,0.13229 v 0.66146 0.66146 l 0.13332,-0.33073 0.13333,-0.33073 -0.13333,-0.33073 z m 1.25884,0.005 -0.2496,0.39429 -0.2496,0.39481 -0.004,0.20051 -0.004,0.20102 0.52245,-0.3266 0.52245,-0.32608 -0.26924,-0.26923 z m -28.0324,0.0305 -0.3266,0.32918 -0.32607,0.32866 0.47439,-0.18087 0.47439,-0.18035 -0.14832,-0.14831 z m 5.6224,0.0667 -0.54209,0.76171 -0.5426,0.76223 -1.86759,2.21124 -1.86759,2.21071 v 0.22686 0.22635 l 0.49145,-0.26304 0.49196,-0.26303 0.46302,-0.70693 0.46302,-0.70694 0.61185,-0.69298 0.61236,-0.69298 0.96739,-1.41232 0.96686,-1.41283 -0.12402,-0.12402 z m -18.566826,0.0233 -0.667143,0.58032 -0.667143,0.58033 v 0.23254 0.23255 l 0.330729,-0.18655 0.33073,-0.18707 -0.33073,0.35657 -0.330729,0.35605 v 0.27078 0.27027 l 0.497128,-0.52193 0.49661,-0.52194 0.170532,-0.7307 z m 13.482376,0.007 v 0.13229 0.1323 h 0.13229 0.13229 v -0.1323 -0.13229 h -0.13229 z m 24.60625,0.4408 -0.17673,0.17674 -0.17622,0.17621 h 0.35295 0.35243 l -0.17621,-0.17621 z m -25.96896,0.0749 -0.13487,0.27286 -0.13539,0.27285 -0.24185,-0.14935 -0.24185,-0.14986 v 0.30231 0.3023 l 0.3142,-0.1049 0.31419,-0.10438 0.0625,-0.32092 z m 14.62288,0.0134 -0.16329,0.26458 -0.16382,0.26459 h 0.13229 0.13229 l 0.16382,-0.26459 0.1633,-0.26458 h -0.13229 z m 3.18586,0.13229 v 0.66146 0.66146 l 0.13332,-0.33073 0.13333,-0.33073 -0.13333,-0.33073 z m -16.55197,0.0522 -0.10128,0.30438 -0.1018,0.30386 -0.30851,0.007 -0.30851,0.007 -1.26659,0.92914 -1.26659,0.92914 0.14573,0.23565 0.14521,0.23513 1.83916,-1.36943 1.83865,-1.37046 -0.30747,-0.10542 z m 27.62261,0.16847 v 0.48472 0.48525 h 0.23616 0.23616 l 0.16071,-0.41858 0.16072,-0.41858 v -0.0667 -0.0662 h -0.39688 z m -10.58334,0.17622 v 0.13229 0.13229 h 0.1323 0.13229 v -0.13229 -0.13229 h -0.13229 z m -11.10009,0.18913 -0.41755,0.34675 -0.41754,0.34675 -0.28474,0.55087 -0.28422,0.55087 0.82527,-0.77463 0.82527,-0.77411 -0.12299,-0.12351 z m -21.411612,0.0196 0.149345,0.14934 0.149344,0.14935 -0.826822,0.69608 -0.826823,0.69557 v 0.37362 0.3731 l -0.33073,-0.004 -0.330729,-0.004 -0.396875,-0.2775 -0.396875,-0.27802 0.635104,0.18035 0.63562,0.17983 -0.162781,-0.42426 -0.162781,-0.42426 0.188619,0.0589 0.189136,0.0589 0.743624,-0.75138 z m 28.278372,0.0553 v 0.26459 0.26458 h 0.11627 0.11679 l 0.16382,-0.26458 0.16329,-0.26459 h -0.28008 z m -26.193745,0.26459 v 0.13229 0.13229 h 0.132292 0.132291 v -0.13229 -0.13229 h -0.132291 z m 37.072665,5.1e-4 -0.16329,0.26459 -0.16382,0.26458 h 0.28009 0.2806 v -0.26458 -0.26459 h -0.11679 z m 1.82108,0 v 0.13229 0.1323 h 0.13229 0.13229 v -0.1323 -0.13229 h -0.13229 z m -29.55633,0.13229 -0.56793,0.50385 -0.56741,0.50436 v 0.23926 0.23927 l 0.26304,-0.16279 0.26303,-0.16278 0.30437,-0.58032 z m 32.83365,0 -0.39998,0.39688 -0.40049,0.39687 -0.15554,0.59532 -0.15503,0.59531 h 0.20877 0.20877 l 0.13333,-0.46302 0.13281,-0.46302 0.21394,-0.52917 z m -19.94607,0.13178 v 0.13229 0.13229 h 0.13229 0.13229 v -0.13229 -0.13229 h -0.13229 z m 3.43958,0 v 0.13229 0.13229 h 0.1323 0.13229 v -0.13229 -0.13229 h -0.13229 z m -27.781242,0.17725 0.176217,0.17622 0.176217,0.17621 -0.176217,0.17674 -0.176217,0.17621 v -0.35295 z m 27.287222,0.0351 -0.28216,0.17415 -0.28215,0.17467 v 0.28112 0.28112 l 0.40308,-0.33435 0.40307,-0.33486 -0.12092,-0.12093 z m -3.93051,0.185 -1.22112,1.45521 -1.22163,1.45521 -0.006,0.38344 -0.006,0.38395 0.19895,-0.25166 0.19999,-0.25115 0.82992,-0.92604 0.82993,-0.92604 0.19792,-0.66146 z m -17.535878,0.39688 v 0.13229 0.13229 h 0.132291 0.132292 v -0.13229 -0.13229 h -0.132292 z m 32.279158,0.17621 v 0.35295 0.35295 l 0.17622,-0.17673 0.17622,-0.17622 -0.17622,-0.17621 z m 1.90841,0.0884 -0.15192,0.39687 -0.15245,0.39688 h 0.0915 0.0915 l 0.32969,-0.39688 0.32918,-0.39687 h -0.26872 z m -30.993965,0.26458 -0.283187,0.52917 -0.283187,0.52917 h 0.373621 0.373621 l 0.295072,-0.35502 0.294556,-0.35502 -0.17415,-0.17415 -0.174149,-0.17415 h -0.211357 z m 17.474895,0 -0.16329,0.26459 -0.16382,0.26458 h 0.28009 0.2806 v -0.26458 -0.26459 h -0.11679 z m 15.40475,0.002 0.0884,0.0884 0.0884,0.0884 -0.41754,0.83664 -0.41703,0.83665 h -0.0977 -0.0971 l -0.1757,-0.28422 -0.1757,-0.28371 0.60203,-0.6413 z m -25.48992,0.23151 -0.26458,0.1633 -0.26459,0.1633 v 0.26458 0.26458 l 0.26459,-0.1633 0.26458,-0.16329 v -0.26459 z m 3.75946,0.031 -1.21853,1.15083 -1.21801,1.15083 v 0.16382 0.16381 l 0.34881,-0.13384 0.34934,-0.13436 0.98702,-1.18029 0.98702,-1.1808 h -0.11783 z m -14.210497,0.13229 -0.463021,0.36328 -0.46302,0.36277 v 0.10025 0.0997 h 0.09973 0.09974 l 0.363285,-0.46302 z m 21.034367,0.30851 v 0.35295 0.35295 l 0.17622,-0.17674 0.17622,-0.17621 -0.17622,-0.17622 z m 16.13959,0.58652 -0.26459,0.1633 -0.26458,0.1633 v 0.26458 0.26459 l 0.26458,-0.1633 0.26459,-0.1633 v -0.26458 z m -10.32495,0.004 -0.15762,0.41083 -0.15761,0.41031 h -0.10387 -0.10387 v -0.24856 -0.24908 l 0.26148,-0.16175 z m -12.77597,0.42426 -0.0677,0.46303 -0.0682,0.46302 h 0.24133 0.24133 v -0.26459 -0.26458 h -0.13229 -0.13229 v -0.13229 -0.13229 h 0.13229 0.13229 l -0.17312,-0.0661 z m 11.72383,0.57361 0.17622,0.17622 0.17622,0.17622 h -0.35244 -0.35295 l 0.17622,-0.17622 z m -18.98488,0.0651 -0.18035,0.47439 -0.18087,0.47438 0.32866,-0.32607 0.32866,-0.3266 -0.14779,-0.14831 z m 21.8953,0.0227 v 0.13229 0.1323 h 0.13229 0.13229 v -0.1323 -0.13229 h -0.13229 z m -37.306245,0.26459 v 0.13229 0.13229 h 0.132292 0.132291 v -0.13229 -0.13229 h -0.132291 z m 30.162495,0 v 0.13229 0.13229 h 0.13229 0.13229 v -0.13229 -0.13229 h -0.13229 z m -29.633328,0.26458 v 0.13229 0.13229 h 0.132291 0.132292 v -0.13229 -0.13229 h -0.132292 z m 16.404158,0.17622 v 0.35295 0.35295 l 0.17622,-0.17674 0.17622,-0.17621 -0.17622,-0.17622 z m 17.39688,0.0656 0.15657,0.40824 0.1571,0.40824 h -0.10852 -0.10852 l -0.17415,-0.28215 -0.17467,-0.28215 0.12609,-0.12609 z m -35.123955,0.28732 v 0.13229 0.13229 h 0.132292 0.132291 v -0.13229 -0.13229 h -0.132291 z m 30.162495,0 v 0.39687 0.39688 h -0.23668 -0.23616 l -0.15193,0.39687 -0.15244,0.39688 h 0.19895 0.19947 l 0.46871,-0.79375 0.46922,-0.79375 h -0.27957 z m 5.55625,0 h 0.13229 0.13229 v 0.13229 0.13229 h -0.13229 -0.13229 v -0.13229 z m -29.135684,0.26458 0.189135,0.30541 0.188619,0.30592 -0.350366,-0.21704 -0.350366,-0.21652 0.168982,0.44028 0.168982,0.44028 -0.05788,-0.006 -0.05788,-0.006 -0.661459,-0.51728 -0.661458,-0.51728 0.711584,-0.006 z m 2.987931,0.20516 0.305408,0.3054 0.305407,0.30541 -0.394808,0.2496 -0.394291,0.24959 -0.198437,0.004 -0.198438,0.004 v -0.38138 -0.38085 l 0.287321,-0.17777 z m -7.718909,0.0594 v 0.13229 0.1323 h 0.132292 0.132292 v -0.1323 -0.13229 H 88.45507 Z m 5.291667,0 h 0.132292 0.132291 v 0.13229 0.1323 h -0.132291 -0.132292 v -0.1323 z m 0.906405,0 h 0.372587 0.373103 l -0.3545,0.46302 -0.3545,0.46302 -0.06046,0.0961 -0.06046,0.0961 0.04186,-0.55914 z m 26.87484,0.23358 0.26458,0.1633 0.26459,0.16381 v 0.11679 0.11627 h -0.26459 -0.26458 v -0.28008 z m -32.014578,0.031 v 0.13229 0.13229 h 0.132291 0.132292 v -0.13229 -0.13229 h -0.132292 z m 8.489404,0.19947 0.145211,0.14469 0.14521,0.14521 -0.342098,0.9462 -0.342098,0.94568 H 97.30931 97.141878 l -0.130741,-0.13075 -0.130742,-0.13074 0.11989,-0.81648 0.119889,-0.81597 0.375171,-0.14418 z m -7.788155,0.0315 -0.211874,0.37827 -0.211873,0.37827 -0.733805,-0.13952 -0.734322,-0.13953 0.367936,0.44545 0.367936,0.44545 0.49196,-0.15606 0.491959,-0.15606 v 0.47335 0.47388 l 0.419613,-0.59945 0.420129,-0.59945 -0.333829,-0.40204 z m 3.532084,0.29817 h 0.132292 0.132291 v 0.13229 0.1323 h -0.132291 -0.132292 v -0.1323 z m 34.660415,0 v 0.13229 0.1323 h 0.13229 0.13229 v -0.1323 -0.13229 h -0.13229 z m 2.91041,0 v 0.13229 0.1323 h 0.1323 0.13229 v -0.1323 -0.13229 h -0.13229 z m -1.32291,0.15865 -0.29456,0.29456 -0.29455,0.29455 0.17776,0.28732 0.17777,0.28784 h 0.11679 0.11679 v -0.58188 z m -34.26354,0.28577 0.348816,0.20154 0.348299,0.20102 -0.141593,0.37052 -0.142111,0.37 h 0.256315 0.256316 v 0.26459 0.26458 l -0.198438,-0.004 -0.198437,-0.004 -0.379822,-0.24029 -0.379822,-0.2403 0.311092,-0.37517 0.311609,-0.37517 -0.19637,-0.21653 z m -1.256254,0.062 0.156579,0.40825 0.157097,0.40824 h -0.108521 -0.10852 l -0.17415,-0.28215 -0.174666,-0.28216 0.12609,-0.12609 z m 4.498433,0.0227 h 0.54622 0.545703 l 0.134358,0.21704 0.13436,0.21704 -0.511597,0.84129 -0.511597,0.8413 h -0.268717 -0.268201 v -0.36432 -0.36484 l 0.399976,-0.33176 0.399975,-0.33228 -0.30024,-0.36174 z m 31.586181,0 -0.16278,0.51211 -0.16226,0.51212 -0.45062,0.11885 -0.45062,0.11834 0.41651,0.031 0.41703,0.0305 0.62167,-0.66146 0.62115,-0.66146 h -0.4253 z m -3.1688,0.13229 -0.0212,0.50695 -0.0207,0.50746 0.15968,-0.1602 0.15968,-0.15968 -0.13901,-0.34726 z m -36.289768,0.66146 v 0.26458 0.26459 h 0.264583 0.264583 v -0.26459 -0.26458 h -0.264583 z m 24.341658,0 v 0.13229 0.13229 h 0.1323 0.13229 v -0.13229 -0.13229 h -0.13229 z m -9.67951,0.108 0.74673,0.10956 0.7462,0.10955 -0.16588,0.56379 -0.1664,0.56431 -0.70176,0.6966 -0.70125,0.69711 -0.46044,0.55966 -0.46043,0.56017 h -0.26717 -0.26717 v -0.34313 -0.34313 l 1.05833,-1.03353 1.05834,-1.03353 v -0.31471 -0.31471 l -0.37207,-0.14314 -0.37207,-0.14263 -0.48783,0.54674 -0.48782,0.54622 0.66145,-0.20103 0.66146,-0.20153 -0.74621,0.6997 -0.74569,0.69969 -0.20774,-0.12867 -0.20773,-0.12816 -0.57051,0.60668 -0.56999,0.60669 0.1788,0.1788 0.1788,0.1788 h -0.30851 -0.30851 v -0.38138 -0.38137 l 0.26458,-0.1633 0.26459,-0.16329 v -0.46096 -0.46095 l 0.32659,-0.69246 0.3266,-0.69195 1.0511,-0.10025 z m 10.50427,0.15658 -0.1633,0.26459 -0.16381,0.26458 h 0.28008 0.28061 v -0.26458 -0.26459 h -0.11679 z m -7.67963,0.20102 0.18241,0.18242 0.1819,0.1819 -0.63045,0.47594 -0.63097,0.47594 0.33383,0.11111 0.33435,0.11162 -0.72347,0.32918 -0.72295,0.32969 0.20205,-0.4718 0.20257,-0.47181 0.0181,-0.47232 0.0186,-0.47232 0.61702,-0.15452 z m -6.6089,0.0636 h 0.39946 0.39997 l -0.18552,0.59531 -0.185,0.59531 -0.22944,0.0884 -0.22945,0.0879 v 0.45423 0.45424 l -0.31781,0.31781 -0.31729,0.31729 h -0.34416 -0.34365 v -0.293 -0.29301 l 0.37052,0.14263 0.37103,0.14211 0.13333,-0.51108 0.13384,-0.51108 -0.23978,0.14831 -0.23978,0.1478 v -0.35347 -0.35347 l 0.41187,-0.58808 z m 27.48669,0.23357 -0.26458,0.1633 -0.26459,0.1633 v 0.26458 0.26459 l 0.26459,-0.1633 0.26458,-0.1633 v -0.26458 z m -37.570828,0.031 v 0.13229 0.13229 h 0.132291 0.132292 v -0.13229 -0.13229 h -0.132292 z m 29.897908,0 h 0.1323 0.13229 v 0.13229 0.13229 h -0.13229 -0.1323 v -0.13229 z m -19.57916,0.23358 -0.26459,0.16329 -0.26458,0.1633 v 0.26459 0.26458 l 0.26458,-0.1633 0.26459,-0.1633 v -0.26458 z m -10.879438,0.031 -0.315226,0.004 -0.314709,0.004 0.396875,0.25632 0.396875,0.25631 0.08165,0.004 0.08165,0.004 -0.163297,-0.26458 z m 31.595488,0.13229 -0.10749,1.25678 -0.10749,1.25677 h 0.18242 0.18293 l 0.14573,-0.46302 0.14573,-0.46303 -0.22066,-0.79375 z m -19.65772,0.0439 v 0.35295 0.35295 l 0.17622,-0.17673 0.17621,-0.17622 -0.17621,-0.17622 z m 0.79375,0 v 0.35295 0.35295 l 0.17622,-0.17673 0.17621,-0.17622 -0.17621,-0.17622 z m 17.19792,0 0.17621,0.17673 0.17622,0.17622 -0.17622,0.17622 -0.17621,0.17673 v -0.35295 z m -23.018748,0.0884 h 0.132291 0.132292 v 0.13229 0.13229 h -0.132292 -0.132291 v -0.13229 z m 26.458328,0.26458 v 0.13229 0.13229 h 0.13229 0.13229 v -0.13229 -0.13229 h -0.13229 z m 2.11667,0 h 0.13229 0.13229 v 0.13229 0.13229 h -0.13229 -0.13229 v -0.13229 z m -7.14375,0.4408 v 0.35295 0.35295 l 0.17621,-0.17673 0.17622,-0.17622 -0.17622,-0.17622 z m -27.252082,0.0884 v 0.13229 0.13229 h 0.132292 0.132292 v -0.13229 -0.13229 H 92.42382 Z m 29.135172,0 h 0.13229 0.13229 l -0.1633,0.26458 -0.16381,0.26458 h -0.13229 -0.1323 l 0.16382,-0.26458 z m 3.96875,0 -0.1633,0.26458 -0.16382,0.26458 h 0.1323 0.13229 l 0.16381,-0.26458 0.1633,-0.26458 h -0.13229 z m -0.82476,0.17621 v 0.35295 0.35295 l 0.17622,-0.17673 0.17621,-0.17622 -0.17621,-0.17621 z m -0.79375,0.0884 v 0.13229 0.13229 h 0.13229 0.13229 v -0.13229 -0.13229 h -0.13229 z m -30.129422,0.20929 -0.347266,0.13901 -0.347265,0.13901 0.506945,0.0212 0.506946,0.0207 -0.15968,-0.15968 z m 25.366922,0.0243 -0.26458,0.16329 -0.26459,0.1633 0.004,0.44752 0.004,0.44752 0.25683,-0.39688 0.25631,-0.39687 0.004,-0.21394 z m -7.9375,0.56017 v 0.13229 0.13229 h 0.13229 0.13229 v -0.13229 -0.13229 h -0.13229 z m 8.76226,0 -0.1633,0.26458 -0.16382,0.26459 h 0.28009 0.2806 v -0.26459 -0.26458 h -0.11678 z m -12.20184,0.26458 v 0.13229 0.1323 h 0.13229 0.13229 v -0.1323 -0.13229 h -0.13229 z m 1.5875,0.26459 h 0.41238 0.41237 l -0.16329,0.26458 -0.16382,0.26458 h -0.24908 -0.24856 v -0.26458 z m 6.87916,0.52916 v 0.26459 0.26458 h 0.39688 0.39687 v -0.26458 -0.26459 h -0.39687 z m 2.11667,0 v 0.13229 0.1323 h 0.13229 0.13229 v -0.1323 -0.13229 h -0.13229 z" /></g></svg>
