<?xml version="1.0" encoding="UTF-8" standalone="no"?>
<!-- Created with Inkscape (http://www.inkscape.org/) -->

<svg
   width="124.47627mm"
   height="90.780487mm"
   viewBox="0 0 124.47627 90.780487"
   version="1.1"
   id="svg1"
   xml:space="preserve"
   xmlns="http://www.w3.org/2000/svg"
   xmlns:svg="http://www.w3.org/2000/svg"><defs
     id="defs1" /><g
     id="layer1"
     transform="translate(-42.82787,-103.28048)"><path
       style="fill:#000000"
       d="m 127.97183,193.87909 c -5.11891,-0.0192 -9.3265,-3.08484 -13.18944,-6.06153 -5.5495,-3.18943 -12.01138,-4.75689 -16.822552,-9.21818 C 92.311348,174.3049 87.513,168.91174 81.167463,165.56453 73.712691,159.89075 66.696042,152.9488 57.272686,150.71148 c -4.906046,-1.66057 -11.733524,-2.69892 -13.044071,-8.7045 -1.839662,-4.05373 -2.997509,-12.17878 4.045987,-9.27059 4.361138,-0.58858 -0.660022,-2.86717 -2.795459,-2.21538 -1.27946,-4.85384 0.708844,-11.06773 4.728388,-14.11752 4.738707,-1.3512 9.604059,-3.18873 13.999717,-5.38333 -3.814827,0.50961 -7.997633,2.16234 -11.814487,3.2012 2.513423,-2.97108 8.662699,-4.80374 13.156566,-4.55386 7.467918,-0.12352 15.005329,0.59101 22.376715,-0.98376 -2.289296,4.24232 -8.019218,5.03033 -12.178624,7.01411 -3.360806,4.43671 -9.132387,6.77732 -14.685444,6.66882 -2.569381,-0.16489 -8.118762,3.3928 -2.578883,1.16408 2.814741,-0.69379 7.36518,-0.9857 3.869994,2.69367 -1.085555,6.13216 -8.533337,-1.67228 -10.257016,1.37453 0.285875,5.20081 9.672493,2.61677 13.084934,0.78921 6.223206,-2.19627 12.833523,-0.60174 19.036258,0.71447 4.518309,1.76508 9.817199,3.69376 13.9279,1.05476 4.688579,-1.43056 9.548759,-2.59696 14.520109,-2.01173 5.00678,-0.43504 9.4918,2.1043 14.44073,1.96909 2.43953,0.52301 3.48568,-2.61352 5.14214,-3.87105 4.39786,-5.34539 3.29826,-13.16087 7.40776,-18.61775 4.87556,0.34734 10.42188,5.04654 12.61943,9.87674 1.71254,4.90424 4.90144,8.89501 7.89603,13.02108 3.32122,6.47172 3.53387,14.12264 7.01736,20.50519 1.04155,14.60472 -5.09124,28.76627 -13.34165,40.509 -3.31158,4.30089 -9.07559,0.9049 -13.57166,1.90101 -4.10395,0.0923 -8.20372,1.00159 -12.30358,0.44012 z m 6.71851,-0.57453 c -2.71643,-0.6695 -10.33972,0.22692 -3.58841,0.23393 1.19699,-0.0333 2.41164,0.0367 3.58841,-0.23393 z m -7.90913,-0.21868 c 0.91402,-1.03515 -2.82545,0.83546 0,0 z m 10.18645,0 c -2.3646,-0.84086 -1.69614,0.49434 0.18051,0.20108 z m 14.08527,-0.11111 c 1.28851,-0.1732 3.16376,-2.14468 3.80924,-3.77855 1.08192,-1.07757 1.52303,-2.36325 2.36124,-3.49423 -0.046,-0.86991 -2.55751,3.61018 -3.36371,4.70467 -3.12936,3.29676 -7.11713,2.04043 -11.93516,1.89934 -2.21631,-0.20836 -6.28302,0.71836 -1.62636,0.69892 1.37787,-0.982 5.79822,-0.0281 7.50403,0.14688 1.035,0.16989 2.26534,0.2328 3.25072,-0.17703 z m 0.99598,-0.50085 c 2.17191,-2.26573 2.15825,-1.7671 0,0 z m -26.72291,0.34737 c 0.37795,-1.15038 -1.86159,0.91674 0,0 z m -1.19063,-0.26458 c 0.0222,-1.0137 -1.21,1.06768 0,0 z m -1.19302,-0.58183 c -2.95165,-0.15514 1.45815,0.83624 0,0 z m 7.78871,-0.36311 c 3.96663,-2.89022 1.06072,-7.5132 -3.28068,-5.54134 -4.65918,2.4621 -0.18229,6.89495 3.28068,5.54134 z m -9.75828,-0.49112 c -2.42388,-2.10811 -9.21333,-6.28745 -10.06191,-6.15983 0.75266,0.69041 1.69363,0.84396 2.48115,1.39532 1.3841,0.68874 2.34313,1.42335 3.94318,2.81736 1.13545,0.66763 4.1727,3.20937 3.63762,1.94715 z m 19.58233,0.002 c 1.52615,-2.12577 -0.46981,-5.45553 1.18516,-7.44498 1.89869,-3.14441 2.24946,-9.17119 -2.21514,-10.55333 -3.78658,-2.42168 -10.11479,1.14011 -11.09102,-4.86487 -2.86374,-2.42447 -8.96293,-2.61226 -12.74392,-1.91933 -2.41784,-4.03115 -0.42279,-10.50718 -5.27365,-13.78546 0.15879,-1.41334 5.26681,-0.006 7.22838,-1.54039 7.13536,0.25775 14.25296,4.92485 16.14932,12.0408 1.7242,5.61585 6.37121,9.39242 11.65754,11.49519 2.89253,0.32692 8.4728,6.48316 3.56659,6.4846 -3.99206,-1.35546 -1.21608,8.7725 3.01063,5.89534 1.16505,-4.21611 3.44479,-8.438 5.61521,-12.42822 3.09314,-6.2736 6.31611,-12.51805 8.66454,-19.11983 -0.19816,2.35294 0.82964,4.43481 0.48177,0.50771 -0.34916,-5.84732 -1.97716,4.11487 -3.40957,5.87642 -3.0511,6.45158 -5.97761,13.06752 -9.85205,19.04954 -0.92438,-3.42617 -6.09128,-6.90865 -10.31886,-8.36082 -5.45902,-2.01981 -8.08357,-7.60443 -9.77474,-12.75272 -3.1109,-5.90381 -9.85265,-9.69512 -16.46492,-9.66786 -5.16838,2.81227 -11.71442,1.26172 -16.34698,-2.01117 -5.686676,-2.94483 -6.661457,8.51351 -12.112865,4.24817 -2.302024,0.032 -4.812384,-2.7294 -4.392852,1.31113 -1.83965,2.4077 -4.993584,4.40209 -4.792321,-0.31577 -4.396518,-0.61274 -12.854687,1.23957 -13.606127,-6.11841 -0.665816,-3.00452 -5.83982,-5.88165 -4.175076,-0.74121 -0.46845,3.16027 -2.625829,4.6726 1.544526,5.55416 2.513662,1.68293 5.13498,2.43326 6.873246,4.23567 2.414604,1.30787 4.276967,3.6017 6.710027,5.16286 1.786802,1.59855 3.689115,3.32023 5.62373,4.26629 -3.882959,-3.74313 -8.620689,-6.74301 -12.532195,-10.51738 1.606029,-2.51908 7.374559,-1.94778 9.359202,-0.9295 -0.188109,6.25201 4.572971,-1.22794 7.194489,2.37754 4.104019,1.08546 9.975307,-0.85655 10.319469,5.30577 0.189443,4.43921 7.151117,10.93918 9.751557,4.81144 3.54164,-0.25291 3.66152,9.24536 8.33985,7.25487 3.32874,-3.06667 4.1539,5.7507 8.42239,5.61288 5.68604,2.65362 10.70363,6.42479 15.02044,10.95798 0.625,0.67 1.52129,1.36639 2.38422,0.62289 z m 8.80242,-5.08224 c -4.15118,-2.25336 6.52692,-4.82145 2.27851,0.0781 -0.66186,0.58931 -1.58783,0.21462 -2.27851,-0.0781 z m -15.99454,-2.70334 c -2.19384,-0.59791 -8.54144,-3.80633 -3.08546,-3.60885 0.31626,1.52549 5.59143,3.92675 3.08546,3.60885 z m -3.87144,-6.77211 c 2.25483,-1.06914 -2.31171,-5.24058 1.32415,-2.69317 2.10622,0.66445 -0.27572,4.90366 -1.32415,2.69317 z M 77.402665,161.93119 c -0.913269,-1.29989 1.62487,1.58025 0,0 z m -1.711181,-1.45521 c -1.677447,-1.89615 2.15528,1.96362 0,0 z m 34.405556,24.16817 c -3.88648,-1.45088 -1.72942,-0.53848 -0.41273,0.23957 l 0.41269,-0.23964 z m 47.8937,-0.007 c 0.0334,-1.47213 -1.17038,1.10967 0,0 z m -52.90548,-2.36469 c -7.978457,-4.26572 -13.73486,-11.55697 -21.419259,-16.20613 -2.370343,-0.36174 0.915507,0.56359 1.463267,1.48834 2.954149,1.60604 5.688003,4.59751 8.452587,6.87412 1.979947,1.77667 4.118302,3.30055 6.090513,4.97481 1.397542,0.80262 2.959082,2.1601 4.092612,2.56535 0.44574,0.33569 1.58231,0.96319 2.43331,1.16613 1.51086,1.30849 0.39503,-0.32683 -1.11303,-0.86262 z m -12.58184,-8.96453 c -3.043877,-3.26179 3.24622,3.12851 0,0 z m -2.78902,-2.51354 c -1.677446,-1.89615 2.155278,1.96362 0,0 z m -1.728402,-1.45521 c -0.858146,-1.21755 1.476286,1.39154 0,0 z m 70.545202,13.95677 c 0.49058,-0.79537 0.69538,-1.75518 1.35562,-2.45233 1.03215,-2.74108 -2.63329,3.44398 -1.35562,2.45233 z m -1.79652,-8.88148 c 3.79579,-7.42095 7.86259,-14.94944 9.70033,-23.08357 1.2197,-0.16537 -3.23257,-1.42925 -2.34728,1.80255 -1.66226,6.64404 -4.35728,13.21224 -8.74223,18.52084 -0.27022,-4.08573 -7.45143,-7.8308 -3.54755,-11.45323 0.49523,3.29599 3.9038,9.60686 5.95748,3.39946 2.93312,-7.54752 5.93742,-15.57598 4.36162,-23.80023 -0.57896,-5.36959 -2.74772,-10.50934 -6.75847,-14.20632 -2.75535,-3.2811 -3.99499,-7.57542 -6.08108,-9.80684 -2.33373,2.66656 -9.18124,7.14984 -4.4864,8.89782 1.61445,3.56591 2.84627,10.54694 7.25781,10.43324 -1.73607,4.42386 -5.66157,7.75113 -5.02708,13.1244 2.45764,-0.0541 6.91925,-0.96333 5.17597,3.67658 -2.44077,1.11375 -3.54933,5.26251 -5.21074,0.99112 -3.70234,-2.92589 0.0751,-10.16762 -0.33939,-14.73832 1.87311,-4.3798 -6.08862,0.83079 -6.83654,2.84449 -3.20528,2.95784 -1.88592,6.86211 -0.71738,9.99454 -1.94785,1.56869 -3.87465,4.72987 -3.96097,-0.0377 -1.00372,-4.35946 -0.89414,-7.78861 3.2054,-9.97298 2.49694,-4.74212 0.0895,-11.78746 -2.99926,-15.22214 -4.00707,1.18972 -2.47466,10.92288 -6.87327,6.93018 -3.99645,-0.41053 -2.30506,2.52995 -2.55273,3.74967 -4.42709,-2.56646 -7.98152,3.47568 -12.12264,-1.31061 -5.25251,-2.82377 -11.44607,-6.29527 -17.45635,-3.52496 -1.85917,3.30133 6.9576,2.83347 9.39275,4.28148 4.65941,2.36618 9.5246,4.9672 14.94726,4.24303 3.78561,1.18945 8.61976,-4.49202 10.61603,0.84407 -3.59858,1.91639 -10.86971,-0.59374 -12.84317,4.72732 -0.42386,2.66165 -2.82532,5.16579 -5.60191,5.11712 -4.77846,0.22117 -10.04466,-1.02681 -13.038412,-4.98402 -1.715059,-5.70049 -8.533503,-8.06601 -13.944169,-8.36614 -4.31268,-1.11589 -9.539865,-4.10539 -13.427824,0.45024 -1.277492,-2.43244 -3.933633,-6.25508 1.054252,-4.92538 5.266847,1.0035 10.203436,-2.00511 15.471664,-1.28424 -7.421322,-3.69923 -15.928865,-2.10667 -23.813069,-1.33906 -4.831122,-0.52758 -6.117669,3.06663 -8.50504,6.01473 -4.32194,-0.30154 -9.35623,-4.52133 -13.254231,-2.41691 0.292763,4.85283 0.971961,11.42603 6.106378,13.58034 2.610267,1.08667 -5.96448,-3.36653 -4.756022,-6.68902 -1.645622,-4.08152 -1.413167,-9.65015 4.319872,-6.08962 3.806026,1.4577 10.249844,4.03194 10.687364,-2.21696 4.336509,-0.67191 9.850171,-1.10036 14.732521,-1.86459 2.567622,-0.3419 8.776494,-1.13176 9.146919,0.43115 -4.593696,2.99269 -10.78699,0.54269 -15.070054,2.28037 2.92458,1.10056 2.764315,8.1452 6.103932,3.52968 5.148143,-2.56864 10.301508,2.02958 15.684491,1.74847 6.316802,0.80819 7.606371,7.44731 12.438068,10.13997 3.25173,2.26366 7.54605,2.39072 11.30542,2.25279 4.17218,-3.27336 9.72319,-0.69801 13.65363,1.75294 5.7968,2.86955 6.75291,9.43511 9.75084,14.44064 3.92346,5.64386 12.18419,5.78681 16.12383,11.49272 1.30872,0.35147 2.2118,-3.48883 3.11943,-4.35909 z M 132.61763,140.4515 c -2.25402,-1.69831 -1.10295,-7.01165 0.3665,-1.90973 0.42577,0.51678 1.55836,3.26275 -0.3665,1.90973 z m -17.87497,-0.81362 c -5.26744,-2.01544 -10.12068,-5.2666 -15.877646,-5.81688 -6.570237,-1.38717 1.146566,-3.76898 3.739636,-2.25203 5.95363,1.02456 10.72989,4.95889 16.06507,7.44346 2.27616,0.48366 12.70405,-2.17143 6.22954,0.35933 -3.35046,0.50199 -6.78492,0.55409 -10.1566,0.26612 z m -0.64446,-2.09607 c -4.58112,-3.36217 -10.20142,-6.0776 -16.010968,-5.72608 -2.450036,2.08734 5.882268,1.75217 7.311788,3.13416 2.16709,0.26713 8.20987,5.09369 8.69918,2.59192 z m 5.93613,-0.28336 c 0.97426,-1.06477 1.01504,1.03504 0,0 z m 40.87812,41.275 c 1.47938,-2.42237 -1.43802,0.58249 0,0 z m -52.61672,-1.18736 c -0.047,-3.17556 -5.59529,-6.54865 -3.87119,-1.01406 0.17493,1.72791 2.81556,1.72845 3.87119,1.01406 z m 53.54277,-0.40014 c -0.63366,-1.05705 -0.42196,0.98399 0,0 z m 0.13229,-0.79375 c 0.8462,-1.90512 -1.10748,0.83169 0,0 z m 0.66146,-1.05833 c -0.63365,-1.05704 -0.42198,0.98396 0,0 z m 0.13229,-0.79375 c 0.84572,-1.90432 -1.10669,0.83029 0,0 z m 0.66146,-1.17501 c -0.66739,-1.03606 -0.72869,0.55619 0,0 z m 0.26458,-0.67707 c -0.63363,-1.05707 -0.42199,0.98397 0,0 z m 0.26458,-0.79375 c -0.67596,-0.94919 -0.67601,0.94918 0,0 z m 0.26459,-0.64585 c -0.6674,-1.03603 -0.72868,0.55618 0,0 z m 0.26458,-0.94165 c -0.67598,-0.9492 -0.67603,0.94919 0,0 z m 0.26458,-0.79375 c -0.67596,-0.94919 -0.67601,0.94918 0,0 z m 0.0485,-1.11566 c -0.93991,-0.56553 0.65363,1.37643 0,0 z m 0.48066,-0.72081 c -0.54314,-1.38702 -0.7321,0.91895 0,0 z m 0.0298,-1.67918 c -0.97662,-0.14123 0.75943,1.55314 0,0 z m -41.83783,-0.73947 c 6.2005,-2.15739 0.51511,-11.01072 -4.41875,-6.28365 -3.19315,2.93801 0.96276,7.5307 4.41875,6.28365 z m 42.33724,0.0374 c -0.54314,-1.38702 -0.7321,0.91896 0,0 z m 0.0298,-1.67918 c -0.97664,-0.14124 0.75944,1.55315 0,0 z m 0.26159,-1.43532 c -0.98282,-1.07863 0.65331,2.48048 0,0 z m 0.49834,-1.46518 c -0.95227,-3.95184 -0.4691,2.39906 0,0 z m -90.483442,-7.87135 c -1.722324,-1.07636 -2.24689,1.02235 0,0 z m -13.758333,-0.79375 c -2.064607,-0.94932 0.815802,0.88639 0,0 z m -1.322986,-0.52883 c -2.064608,-0.94932 0.815798,0.88639 0,0 z m -3.439584,-1.19062 c -2.776523,-1.07279 -0.206211,0.61585 0.537437,0.25185 z m -2.645833,-0.79375 c -2.776524,-1.07279 -0.206211,0.61585 0.537436,0.25185 z m -2.116666,-0.6375 c -2.159799,-1.06416 -1.138584,0.11393 0.254525,0.18996 z m 2.910416,-0.49426 c -0.862845,-2.85498 -6.507192,-3.3378 -1.712293,-1.27469 0.115102,0.51207 1.267089,1.96683 1.712293,1.27469 z m 57.878238,-5.53122 c 1.91398,0.0557 9.15507,-0.89908 7.73846,-1.56992 -4.49583,-0.15217 -9.11639,-0.4303 -13.02689,-2.92873 -2.29459,-1.5298 -8.751032,-3.14353 -7.74206,1.27657 4.1103,1.46791 8.39219,5.03379 13.03049,3.22208 z m -9.23174,-3.25872 c -0.52016,-3.87718 5.2504,1.96053 0,0 z m 24.44846,1.16458 c -0.07,-2.26575 -3.61271,0.88033 -4e-5,3e-5 z m -38.296454,-3.74445 c -1.997322,-6.04073 4.773789,1.0965 5.781256,-2.39394 -2.839796,-3.30315 -11.296633,-0.23129 -10.450637,2.05298 1.06139,-0.6144 4.691135,1.45309 4.669381,0.34096 z m -15.087047,-1.91823 c 3.825502,-1.80479 -7.761794,-1.22428 -1.77026,0.7196 l 0.725984,-0.24263 1.044276,-0.47709 z m 1.407465,-2.97656 c -1.690395,-1.69392 -11.089198,0.45568 -4.09173,0.46735 0.983023,-0.34959 3.877152,0.90494 4.09173,-0.46735 z m 51.059876,0.2068 c -1.23089,-1.91082 -7.18619,0.77473 -1.98947,0.26294 0.66596,-0.0548 1.34573,-0.0557 1.98947,-0.26294 z m -77.700234,-5.61079 c 1.046947,-6.38189 9.310943,-5.30935 12.732895,-9.96603 -0.153027,-5.66481 -6.980902,2.29527 -10.033937,2.90302 -2.51575,1.94395 -10.744909,7.64155 -3.649982,8.43382 1.178439,0.31451 0.737934,-0.59908 0.951024,-1.37081 z m 22.388623,-1.94646 c -0.912748,-6.18565 8.908624,-6.21649 12.175627,-9.86558 3.830138,-3.9401 8.732198,-7.45233 14.524076,-6.57071 3.561968,0.4601 9.414628,-1.3364 11.578738,0.7682 -3.76922,3.0661 -6.8492,-0.39884 -10.63347,3.22037 -4.78435,-1.94175 -9.518618,7.4461 -11.437267,5.6461 1.447819,-1.79402 8.653807,-6.73659 2.921522,-3.78756 -4.407593,3.027 -9.803369,4.77715 -13.14098,9.04695 -1.73095,0.99871 -3.943624,2.1991 -5.988246,1.54223 z m 18.586978,-3.30782 c -0.349633,-2.76902 7.699665,-7.58614 3.780268,-3.25984 -1.738221,0.42249 -2.481016,3.19443 -3.780268,3.25984 z m 35.321873,-2.76933 c -5.62219,-0.12977 2.19235,-2.46989 2.37976,-5.12477 3.65343,-2.93178 8.36581,-1.4599 4.91953,3.4836 -1.06519,2.41846 -5.14491,1.93165 -7.29929,1.64117 z m -2.83825,-7.25758 c -5.01416,-1.24451 6.68361,-2.4467 8.4345,-4.53973 2.2948,-1.95546 4.37547,-5.91881 6.44229,-1.10238 -1.94136,5.87272 -9.74589,6.41525 -14.87679,5.64211 z m 4.21709,-0.41616 c -4.33331,-0.94895 5.14585,-2.03961 6.47918,-2.86583 5.1323,-1.68099 -4.8248,4.26335 0.99732,0.9366 5.06242,-5.9576 -5.52428,0.55382 -8.42695,0.69423 -6.89758,1.3361 6.35422,1.77471 0.95045,1.235 z m 2.79338,-0.17273 c -3.69004,-0.15269 0.64732,0.33634 0,0 z m 1.64862,-0.35562 c 1.19512,-0.78356 -3.02369,0.78659 0,0 z m 0.52916,-0.93864 c 2.1388,-1.10576 -5.45948,1.53326 -0.83261,0.29561 z"
       id="path1" /></g></svg>
