<?xml version="1.0" encoding="UTF-8" standalone="no"?>
<svg
   ffdec:objectType="shape"
   height="35.85px"
   width="31.9px"
   version="1.1"
   id="svg12"
   sodipodi:docname="plant.svg"
   inkscape:version="1.3.2 (091e20e, 2023-11-25)"
   xmlns:inkscape="http://www.inkscape.org/namespaces/inkscape"
   xmlns:sodipodi="http://sodipodi.sourceforge.net/DTD/sodipodi-0.dtd"
   xmlns="http://www.w3.org/2000/svg"
   xmlns:svg="http://www.w3.org/2000/svg"
   xmlns:ffdec="https://www.free-decompiler.com/flash">
  <g transform="matrix(1.0, 0.0, 0.0, 1.0, 0.0, 0.0)">
    <path d="M 13.027473,19.11482 C 12.836201,19.055043 12.537818,18.886182 12.253798,18.676984 11.908592,18.422719 9.7812547,16.04993 9.4082912,15.503163 8.39166,14.012776 7.7485587,12.60207 7.7485587,11.862376 c 0,-0.362612 0.092682,-0.520439 0.3319877,-0.565333 0.6316005,-0.118488 2.2642286,1.267266 3.5485456,3.011962 1.245815,1.692393 2.074735,3.395966 2.076738,4.268054 0.0011,0.489594 -0.234587,0.676452 -0.678357,0.537761 z" />
    <path d="m 14.48093,16.208549 c -0.465567,-0.283921 -0.905972,-1.627384 -1.091198,-3.328722 -0.06862,-0.630236 -0.05787,-2.715871 0.01743,-3.3833893 0.17483,-1.549805 0.478666,-2.4677785 0.886626,-2.6787426 0.179139,-0.092637 0.327111,-0.066109 0.495127,0.088762 0.449658,0.4144803 0.819674,1.7078145 0.989714,3.4593929 0.06751,0.695407 0.0573,2.604484 -0.01721,3.219956 -0.122912,1.015205 -0.360833,1.972357 -0.581815,2.340633 -0.192798,0.321306 -0.458486,0.428585 -0.698673,0.28211 z" />
    <path d="M 10.809905,11.782147 C 10.370136,11.626904 10.159236,11.477655 9.0032168,10.503602 L 7.8588147,9.5393368 6.9422593,8.3753409 C 6.013114,7.1953563 5.8283586,6.9147566 5.7033091,6.4936692 5.6728002,6.3909346 5.6478384,6.2229079 5.6478384,6.1202766 c 0,-0.1662972 0.012741,-0.1993437 0.1170893,-0.3036918 0.1015794,-0.1015794 0.1396401,-0.1170894 0.2873321,-0.1170894 0.2019996,0 0.4458941,0.079204 0.8071239,0.26211 0.2377924,0.1204047 1.2789,0.9450538 2.3746406,1.880925 0.1664142,0.1421345 0.4777448,0.519775 1.1136837,1.3508863 0.70739,0.9244913 0.912605,1.2170263 1.033291,1.4729593 0.276422,0.586196 0.322919,0.96156 0.138734,1.119989 -0.122461,0.105337 -0.404225,0.103662 -0.709828,-0.0042 z" />
    <path d="M 9.8947605,6.3513961 C 9.8156001,6.3122122 9.6451318,6.1917021 9.515942,6.083596 9.3186169,5.9184742 9.1642324,5.7192071 8.5506005,4.8376119 7.6588036,3.5563811 7.3718155,3.0214104 7.0182235,1.9811284 6.8062272,1.3574267 6.7410858,1.0452031 6.7366097,0.63135098 6.7331199,0.30868508 6.7414164,0.25213106 6.8048127,0.16643745 6.8460302,0.11072324 6.9298417,0.05546704 7.0002086,0.0376146 7.1041836,0.01123561 7.152748,0.02118744 7.3111546,0.10133387 7.6917353,0.29389015 7.9031693,0.53396272 8.6717777,1.6462523 c 0.3952279,0.5719531 0.7362168,1.073019 0.757753,1.1134797 0.073987,0.1390008 0.9452443,2.4060203 0.9769293,2.5419793 0.0659,0.2827811 0.0948,0.6402303 0.06477,0.8010198 -0.05593,0.2993833 -0.279326,0.3957475 -0.5764645,0.248665 z" />
    <path d="M 12.044031,9.0767719 C 11.740818,8.8105473 11.46847,7.9451156 11.306341,6.7326366 c -0.0879,-0.6573364 -0.08807,-2.4305014 -2.97e-4,-3.1023688 0.127036,-0.9724419 0.334692,-1.6450688 0.590194,-1.911726 0.108972,-0.1137295 0.171286,-0.151611 0.249394,-0.151611 0.241746,0 0.482139,0.2937395 0.648014,0.7918193 0.09274,0.278478 0.371904,2.2469946 0.427838,3.0169079 0.05399,0.7431571 -0.0362,1.868889 -0.20942,2.613967 -0.186343,0.8015192 -0.417555,1.1881124 -0.710583,1.1881124 -0.108442,0 -0.169914,-0.024108 -0.25745,-0.1009655 z" />
    <path d="M 15.307708,25.98597 C 14.606833,25.736155 13.478671,24.901272 12.489067,23.900068 10.935775,22.328568 9.5940718,20.395685 9.2013883,19.163776 8.9180154,18.274791 9.0927758,17.868407 9.717263,17.964172 c 0.694713,0.106534 2.08693,1.133065 3.263657,2.40641 1.467754,1.588268 2.190324,2.586207 2.784789,3.846063 0.252377,0.534863 0.35287,0.843946 0.375913,1.156176 0.01583,0.214477 0.0074,0.294789 -0.04237,0.405234 -0.119472,0.264942 -0.414286,0.342381 -0.791542,0.207915 z" />
    <path d="M 18.429345,35.653757 C 18.416542,35.503828 18.226599,34.984036 18.046049,34.604842 16.800286,31.988473 14.040359,29.165079 9.8148411,26.184351 7.4030285,24.483031 5.2693895,23.113111 3.4438039,22.093774 2.6796222,21.667085 1.4902878,21.078076 0.86921975,20.81873 0.18620555,20.533518 0.19994477,20.540276 0.34438039,20.560549 c 0.0662932,0.0093 0.94962891,0.126035 1.96296821,0.259401 1.8598876,0.244779 2.0173958,0.273163 2.8588828,0.515182 2.3094355,0.664213 4.4969218,1.688323 6.4566066,3.022775 3.847164,2.619734 6.072555,5.728871 6.734279,9.40859 0.100079,0.556517 0.155011,1.379145 0.112682,1.687464 -0.0195,0.142057 -0.03771,0.231965 -0.04045,0.199796 z" />
    <path d="m 17.925061,30.649855 c 0.11253,-1.611302 0.81104,-3.738957 1.741895,-5.305799 1.419964,-2.390126 3.767538,-4.317648 7.049864,-5.78843 1.120022,-0.501872 1.658012,-0.689922 3.344347,-1.168993 0.897912,-0.255087 1.644855,-0.459434 1.659875,-0.454104 0.01502,0.0053 -0.277967,0.225958 -0.651082,0.490287 -0.735932,0.521363 -5.822762,4.357891 -6.412324,4.836226 -1.747378,1.417719 -3.347532,3.025351 -4.767406,4.789684 -0.17773,0.220847 -0.697471,0.966185 -1.15498,1.656306 l -0.831835,1.254765 z" />
    <path d="m 20.315838,21.233744 c -0.105471,-0.105471 -0.109086,-0.118303 -0.09105,-0.323157 0.02232,-0.25352 0.130575,-0.526794 0.411936,-1.039839 0.372636,-0.679479 0.788105,-1.226451 1.582586,-2.083501 0.734896,-0.792772 1.147817,-1.143731 1.902103,-1.616677 0.525245,-0.329335 0.839956,-0.44529 1.034392,-0.38112 0.159534,0.05265 0.225076,0.152876 0.22484,0.343824 -5.08e-4,0.412659 -0.188798,0.75263 -1.10541,1.995898 l -0.77127,1.046129 -1.007593,0.90671 c -0.935297,0.841654 -1.031018,0.918106 -1.334095,1.065544 -0.234774,0.114211 -0.38411,0.164058 -0.531553,0.177428 -0.195566,0.01773 -0.210131,0.01351 -0.314883,-0.09124 z" />
    <path d="m 22.304105,15.925746 c -0.244141,-0.192041 -0.185034,-0.725049 0.182784,-1.648292 0.641433,-1.610027 2.197578,-3.710328 3.290781,-4.4415067 0.317736,-0.2125146 0.546652,-0.2743864 0.716677,-0.1937042 0.07269,0.034494 0.138104,0.1000162 0.166127,0.1664047 0.06274,0.1486389 0.04609,0.4971802 -0.0398,0.8327062 -0.0709,0.277 -0.160136,0.454305 -1.048604,2.083501 l -0.347439,0.637104 -0.900843,1.053375 c -0.660731,0.772607 -0.968069,1.104814 -1.153061,1.246359 -0.42607,0.326007 -0.686852,0.405465 -0.866627,0.264053 z" />
    <path d="m 19.498792,18.957142 c -0.275029,-0.256229 -0.408046,-1.11825 -0.374489,-2.426883 0.0425,-1.657345 0.361392,-3.077233 0.95669,-4.259728 0.293861,-0.583725 0.659967,-0.663567 0.887093,-0.193462 0.202484,0.419102 0.220183,0.611335 0.192809,2.094184 l -0.02448,1.325864 -0.323408,1.274208 c -0.341182,1.344235 -0.445193,1.63256 -0.717668,1.989409 -0.199476,0.261246 -0.441445,0.340911 -0.596551,0.196408 z" />
  </g>
</svg>
