<svg xmlns="http://www.w3.org/2000/svg" xml:space="preserve" width="418.407" height="439.486" viewBox="0 0 110.703 116.281"><path d="M99.456 206.229c-18.592-2.888-36.522-15.204-43.184-33.206-.9-2.29-3.67-12.6-.252-6.143 5.394 1.88 8 8.305 12.578 11.713 3.972 3.367 10.536 2.104 14.393 6.488 4.122 4.018 10.028 2.842 15.191 2.617 5.096.236 10.504.527 14.685.093 4.525-1.22 12.212-1.853 13.688-6.564-4.988-1.404-10.39 1.643-15.199 3.197-4.234-1.84-11.138-1.484-16.547-1.605-5.654 1.663-9.386-2.657-14.308-4.532-5.532-1.44-10.583-3.616-14.35-8.102-3.362-4.156-8.51-6.832-10.836-11.214-1.69-5.359-3.534-10.681-5.281-16.003-1.567-8.838 1.68-17.467 5.002-25.492 1.384-3.222 4.333-11.11 5.965-11.074-1.016 2.12-2.098 7.262.777 2.89 3.95-2.837 6.582-6.785 11.436-9.526-3.033-2.866 6.715-4.168 9.484-5.149 9.313-2.13 18.883-2.728 28.32-4.088 6.863-.898 13.34 1.943 19.134 5.305 5.982 1.97 11.524 4.742 15.271 10 5.3 6.012 10.31 12.651 13.116 20.223 2.257 8.56 2.857 18.27-1.024 26.45-3.896 1.442-3.793 8.157-7.697 11.572-3.138 3.25-8.24 4.268-10.34 8.49-4.129 2.363-7.28 6.552-11.724 7.871 1.056 6.04 9.549 5.536 10.763-.46 3.227-4.541 8.281-7.298 12.398-10.94 2.319-.49 5.692-8.401 6.499-5.51-6.491 24.874-31.317 46.383-57.958 42.699m10.656-10.24c-1.34-2.72-4.193 1.583 0 0m3.188-1.922c-1.703-1.624 5.233-3.22.393-2.84-2.746.87 1.251-2.666-1.782-1.016-4.768-1.168-6.274 1.997-1.53 3.43 2.318-1.985 1.185 1.65 2.919.426m-1.907-1.744c.357-1.783 1.554 1.026 0 0m4.307-2.797c-.906-2.362-2.782 2.457 0 0m2.194-.582c2.64-.186 10.052-3.477 8.738-4.869-2.193 2.823-8.86 2.97-9.831 5.083zm-4.457-6.01c5.052-2.916 11.473-1.713 16.19-4.178 4.804-1.708 8.412-6.51 12.106-9.88 5.993-2.676 10.267-7.17 12.116-13.77 2.777-8.133-1.154-16.536-6.22-22.8-5.341-5.975-11.197-11.55-17.46-16.548-2.285.661-7.872-.95-11.767-1.299-5.723-.654-11.346-1.717-17.14-1.553-2.188-.687-5.957-.21-4.374 1.38-3.736 2.462-6.074 5.871-9.72 7.007-2.822-2.262-4.651.8-.965 1.279 1.144 2.132 7.318 3.213 3.572 5.695-1.333-.638-3.143 4.017.209 2.059 2.09-1.276 6.617-3.32 4.162 1.378.177 5.1 5.065 3.078 6.837 6.092 5.172.817 10.227 1.304 15.252-.537-.558-2.854-6.058-3.264-3.893-7.56-.067-2.787-.043-10.715-2.737-10.244-.84 2.865-.351 14.1-4.74 7.598-.645-2.385-3.044-4.336-2.467-4.23 2.322-.692 3.604-2.398.16-1.431-3.941-1.442-6.35-7.17-.304-7.867 5.393-.098 10.288 1.054 15.896 1.252 5.007 1.558 10.997-.077 14.246 3.254 3.533 2.142 5.459 6.181 8.76 8.149 2.824 2.571 5.292 5.353 6.847 8.904-2.473 1.789-2.603-2.51-4.538-1.671-1.396-1.716-7.45 2.176-2.845 3.266-.756 4.709-4.023-.266-4.098 4.106 4.585-2.344 7.827.825 9.286 4.977 3.366.723 8.954-3.75 7.977 2.207.925 3.891-.384 8.905-3.281 11.745-.385 4.906-6.589 6.39-9.856 9.702-3.707 2.265-6.071 7.477-10.756 8.807-6.1 1.651-12.453 2.544-18.279 5.101-7.156-1.85-14.83-1.039-22.18-1.348-2.894-3.216-10.013-2.498-6.161-7.992 1.176-2.537 6.32-3.564 3.304-7.836 3.795-3.955-.408 6.125 3.604 1.119 2.398 5.532 2.597-3.503 5.282-5.056-.334-1.538-4.45-.708-4.161-3.69-1.633.672-2.756 1.758-4.2.148.904 1.51.493 8.538-.256 3.635.665-4.647-8.806-5.137-3.075-8.837 5.97-1.058-3.895-2.556-4.852.289-1.35-2.24-2.699-3.71-4.151-1.152-4.717-.607 1.871 5.492-3.07 4.967-4.304-.882-.12 8.741.428 7.986-.1-3.273 4.655-11.38 5.448-4.16-.296 2.912 1.847 5.914 1.8.965-.567-3.575 1.48-6.437 3.875-2.039 2.887 1.82 2.877 9.962-.306 4.325-1.324-.691 2.229 9.282-1.283 3.295-4.379-.306.81 11.573-5.966 7.801-5.404-.91-8.393-6.225-12.18-9.704-2.713-4.35-8.514-5.383-8.481-11.663 2.053-4.244-2.357 1.357.532 3.314 2.159 5.157 7.529 6.446 10.58 11.488 3.312 5.261 8.988 6.72 14.429 8.569 4.997 1.428 8.813 6.023 14.46 4.51 5.49.183 11.306-.262 16.517 1.467l.743-.248zM82.5 171.384c-2.175-4.042-.342-1.972 0 0m2.965-8.267c-1.117-1.665-2.3-5.484.007-1.827.864.476.746 4.307-.007 1.827m-13.438-.664c-2.139-4.806 6.409-4.51 1.797-8.569 5.113.912-.509 6.532-1.797 8.57m81.453-8.994c.812-.881-.011.89 0 0m-76.861-1.043c.632-1.972.63 1.616 0 0m68.262-9.276c.678-1.8.518 1.744 0 0m5.646-1.058c-1.817-1.968-1.435-7.073 1.073-2.288 1.915 1.337 1.157 2.794-1.073 2.288m-7.564-1.874c-1.815-.785-4.59-.132-2.055-2.334.662-2.197-3.719-3.735.275-2.208 1.23-.046 4.807 6.973 1.78 4.542m1.918-.11c.67-1.378.54 1.328 0 0m-44.12-3.366c-1.914-1.892 4.582 1.543 0 0m46.501-.198c.809-.585 1.198.924 0 0m-2.793-.666c-.807-1.033 2.875 1.35 0 0m-48.085-4.313c-2.472-4.04 1.921-.286 2.17-3.124 1.66 2.255 5.887 4.558.3 3.84-.861-.002-1.908.103-2.47-.716m8.881.14c-.138-2.306-3.413-5.902-.288-2.022.376.063 1.104 2.828.288 2.021m-5.513-4.37c-2.605-.989-4.178-2.281-.253-3.466 2.994-1.221-.866 1.977.547 3.348l-.286.223zm-15.09-5.76c-.177-2.229 4.112 1.817.308.545zm14.314-.662c.71-.417 2.924.811 0 0m-9.269-.53c-.248-1.285 1.243.61 0 0m7.401-.277c.56-3.969 2.712.503 0 0m-2.885-1.281c.612-.837 1.07.793 0 0m1.451-1.478c.843-.153.28-.11 0 0m5.425 61.488c1.102-2.843 2.072-3.291 4.576-2.238 3.537-2.743-7.293-3.267-9.347-2.189-6.311 4.641 8.692-.413 3.354 5.062-.463 1.244 1.324-.626 1.417-.635m-5.43-3.492c1.604-2.14 9.078-.331 3.255-.089-1.08.063-2.175.257-3.255.09m25.362 1.323c-1.078-4.148 2.455-8.478 5.984-4.751-.183-4.163-3.89-7.128-6.123-2.612-2.914 1.833-6.153 2.767-8.232 5.279 3.396-1.751 5.609 2.846 8.37 2.084m9.927-7.851c5.793-1.365 2.335-9.506 2.399-13.548.914-4.065 9.68-5.16 8.446-8.63-4.103.337-3.16-1.997-.436-3.689-1.345-4.001-6 .642-6.096-3.433-2.938.81-4.541 3.677-7.381 2.825 1.933 5.677-4.528 2.873-7.237 4.683-1.61-2.992-2.562-2.039-1.027.576-.93 4.07 2.857 5.81 5.753 4.878-6.225-2.766 6.477-.898 2.17 2.453 3.652 1.486 7.277 9.205 3.597 10.776-1.892-1.118-6.408 1.382-3.353 4.028 1.02-.402 2.034-.932 3.165-.92m2.212-5.628c-.184-1.666-2.178-7.526.32-3.226 1.05.752.154 8.1-.32 3.226m-12.101-11.699c.86-1.764 1.706 1.022 0 0m3.968-2.602c-2.796-.824 2.682-2.034-.644-1.849 4.075-2.409 7.891 3.286.644 1.849m3.11-1.172c-1.522-1.51-1.654 1.656 0 0m9.083.108c-5.299-2.552 8.344-.902 1.754.213l-.891-.005zm-2.403-2.431c1.907-2.562 2.305 1.703 0 0m-1.984-1.976c1.216-.941.017.904 0 0m1.25-.681c1.009-.873.42.378-.305.365zm-16.36 24.674c-1.011-2.043-1.749-6.567 1.986-5.63-3.952-6.044 7.931-1.216 6.893-6.614-3.822-3.772-8.47 4.73-10.041 3.067-.636-2.84-4.71 6.417-5.088 1.071 4.743-3.686-4.086-11.072-4.685-5.237 2.618 3.524-2.742.574-.212 4.153.683 7.877-9.945 2.585-8.953-2.929-.792-2.163 2.725-7.413-.752-3.254-2.456 4.8-.727 12.791 5.159 13.851 3.95.032 6.832-4.363 9.518.9 1.933 1.277 4.567-.078 6.122 1.338zm-18.615-5.19c-.461-3.247 4.296 2.39 0 0m9.89-5.141c1.147-6.101 3.05-.75 0 0m11.682-.404c1.42-2.63 7.166-1.02 2.249-.17-.654.262-1.605.678-2.25.17m2.704 6.883c-2.294-2.17-.82 2.238 0 0m-62.197-5.495c-1.445-4.071-2.86.57 0 0m5.385-.368c1.672-4.72-4.97.524 0 0m-1.025-.804c1.126-1.073.684 1.15 0 0m27.353-.448c2.29-4.22-4.076-.132 0 0m-.795-.56c.323-1.755 1.387.65 0 0m-29.43-1.867c1.73-2.849 7.102-7.783 2.85-10.57 1.093-2.626.427-7.72 2.53-9.058.171 2.312 1.544 10.08 2.354 3.34 1.293-4.335 3.27 9.348 5.224 5.645.685-3.268 3.36-7.42 4.206-11.192 5.919-.55 3.107-8.84-.981-5.433-1.728.89-5.595 3.497-3.459-.381-1.623-4.402-4.513 4.56-6.227 1.237-3.874 2.704-1 10.177-6.066 10.651-3.87 1.683-5.65 7.848-4.88 11.945.593 1.853 2.085 4.485 4.45 3.816m.215-7.887c-1.72-2.96 1.38-6.451 1.24-1.332.146.678-.39 3.002-1.24 1.332m.644-1.455c-.95-5.432-.68 4.322 0 0m10.736-6.747c-.492-1.417 1.116 1.354 1.037.529-.43.932-1.31.26-1.037-.53m1.322-.596c.199-1.462.198 1.463 0 0m.265-1.764c-.606-3.88.534 1.36 0 0m-1.568-.882c.147-1.806.147 1.807 0 0m.224-1.322c.646-2.147 1.742-.221 0 0m-7.159-1.33c.407-2.197 3.16-5.91 1.066-1.69-.362.55-.527 1.263-1.066 1.69m1.854-.787c.284-1.827.92-.567.043.264zm4.431 20.49c1.835-4.21-4.904 1.17 0 0m-1.528-.597c1.165-2.246 3.103.825 0 0m-15.655-6.267c.71-9.05 5.756-18.07 14.187-21.985 2.024-2.094 8.934-4.499 8.935-5.207-4.895 2.026-9.453 4.58-13.571 7.849-6.903 5.163-9.935 13.825-10.092 22.197-.305 5.31.296.605.44-1.743zm-2.174 3.605c-1.448-7.385-.515-15.436 2.962-22.182 2.09-2.497 2.275-11.275-1.94-5.804-4.815 8.362-5.624 18.951-2.642 28.067.29 1.684 1.294 1.383 1.62-.081m31.983.407c1.324-1.602 4.942.092 2.653-3.72 2.374-2.406 4.04-10.873-2.306-7.199-3.66 2.913 1.85 8.926-2.77 10.362.031 1.348 1.952 2.138 2.423.557m-1.533.186c-.979-4 2.9.526 0 0m2.822-2.076c-.055-1.79 1.204.955 0 0m-.825-2.339c-2.271-2.058 1.603-7.575.987-2.405-.755.423.726 5.06-.987 2.405m70.582-.638c.732-5.448 1.32-11.795-2.178-16.442-2.203 1.99-3.678 6.464-2.545 10.777 2.366 1.207 2.677 9.438 4.219 7.734l.231-.883zm-35.988 2.326c-.724-1.49-.95.865 0 0m1.32-3.328c-3.196-1.36.145 3.958 0 0m-38.662-.342c2.509-3.396-1.304-4.662-1.287-.502-.327 1.143.81 1.728 1.287.502m18.714.439c-1.183-3.121-2.084 1.394 0 0m27.492-5.499c3.55-1.052 2.894-4.585.415-4.27.377-6.091-5.54-9.754-11.008-9.893-4.595.014-4.88 13.077.407 9.633 1.04-3.686 4.455-10.05 7.711-4.018 2.995 1.833-2.432 10.757 2.475 8.548m-.926-.494c.996-2.803 4.9-4.13 1.663-.515-.334.108-1.338 1.181-1.663.515m.19-2.963c-.541-2.565-1.541-9.002.342-2.748.031.362.36 2.912-.342 2.748m-11.742-1.482c-2.71-2.715 2.367-13.106 2.471-5.264-.036 1.522.3 7.21-2.47 5.264m1.725-3.743c-.182-3.474-.378 4.316 0 0m-55.306 5.192c2.249-2.947-3.091.59-.664.575zm-.748-.2c.776-1.532.57.705 0 0m74.347-7.44c-.676-.949-.676.95 0 0m.998-1.008c-.782-1.173-.915 1.337 0 0m-3.555-.692c-.71-2.776-1.962 1.562 0 0m-51.348-8.111c2.098-.862 9.829-2.653 8.846-2.786-3.782.688-9.202 2.542-11.757 3.496.965-.259 1.938-.482 2.91-.71m11.506-3.071c-2.269-.257-.097.426 0 0" style="fill:#000" transform="translate(-49.628 -90.361)"/></svg>