<?xml version="1.0" encoding="UTF-8" standalone="no"?>
<!-- Created with Inkscape (http://www.inkscape.org/) -->

<svg
   width="110.70346mm"
   height="116.28054mm"
   viewBox="0 0 110.70346 116.28054"
   version="1.1"
   id="svg1"
   xml:space="preserve"
   xmlns="http://www.w3.org/2000/svg"
   xmlns:svg="http://www.w3.org/2000/svg"><defs
     id="defs1" /><g
     id="layer1"
     transform="translate(-49.62798,-90.361318)"><path
       style="fill:#000000"
       d="m 99.455989,206.22881 c -18.591654,-2.88819 -36.522304,-15.20393 -43.184,-33.20605 -0.90069,-2.29013 -3.670386,-12.59925 -0.251921,-6.14326 5.394057,1.87994 7.9994,8.30505 12.578276,11.71325 3.972044,3.36682 10.535644,2.10449 14.392863,6.48783 4.121488,4.01886 10.027861,2.84201 15.191047,2.61693 5.096236,0.23686 10.503406,0.52775 14.684376,0.0939 4.52582,-1.22113 12.21281,-1.85303 13.68799,-6.56392 -4.98793,-1.40479 -10.38891,1.64228 -15.19825,3.19694 -4.23476,-1.84056 -11.13861,-1.48457 -16.547744,-1.60556 -5.653213,1.66275 -9.386061,-2.65689 -14.307203,-4.53195 -5.532438,-1.43908 -10.583202,-3.61607 -14.350986,-8.10207 -3.361738,-4.15557 -8.51021,-6.83204 -10.835553,-11.21394 -1.689693,-5.35875 -3.534012,-10.68126 -5.280896,-16.00254 -1.567252,-8.83872 1.680191,-17.46691 5.001828,-25.49274 1.383805,-3.22122 4.333216,-11.10984 5.964865,-11.07339 -1.015723,2.11894 -2.097913,7.26181 0.777466,2.88972 3.950146,-2.83734 6.581586,-6.78528 11.435736,-9.526376 -3.033038,-2.865842 6.714711,-4.167998 9.484264,-5.14828 9.313128,-2.129408 18.883143,-2.727809 28.319813,-4.088152 6.86286,-0.898101 13.34006,1.943191 19.13441,5.304724 5.98184,1.970689 11.52382,4.741764 15.27102,10.000084 5.29917,6.01228 10.31052,12.65102 13.11602,20.22329 2.25665,8.56044 2.85612,18.26979 -1.02417,26.4503 -3.89605,1.44171 -3.79352,8.15687 -7.69756,11.57164 -3.13765,3.24945 -8.24021,4.26735 -10.33976,8.48939 -4.12875,2.36351 -7.28068,6.55262 -11.72397,7.87179 1.0557,6.04007 9.54857,5.53553 10.76299,-0.45976 3.22723,-4.54184 8.28122,-7.29873 12.39842,-10.94013 2.31834,-0.49106 5.69192,-8.40163 6.49853,-5.50965 -6.49099,24.87335 -31.31712,46.38202 -57.957901,42.69802 z m 10.656191,-10.23974 c -1.33994,-2.7196 -4.19345,1.58322 0,0 z m 3.18734,-1.92213 c -1.70236,-1.6244 5.23352,-3.22067 0.3938,-2.84055 -2.74671,0.87081 1.25065,-2.6655 -1.78219,-1.0149 -4.76838,-1.16863 -6.27452,1.99608 -1.5292,3.42941 2.31673,-1.98465 1.18455,1.65084 2.91759,0.42604 z m -1.90638,-1.74385 c 0.35697,-1.7832 1.55369,1.0259 0,0 z m 4.30669,-2.79667 c -0.90616,-2.36247 -2.78185,2.45624 0,0 z m 2.19388,-0.58261 c 2.64079,-0.1863 10.05183,-3.47695 8.7383,-4.86872 -2.19307,2.8234 -8.86084,2.96995 -9.83136,5.08325 l 1.09306,-0.21452 z m -4.45648,-6.01005 c 5.05142,-2.91558 11.47304,-1.71309 16.19062,-4.17728 4.80362,-1.70832 8.41066,-6.51023 12.1049,-9.88089 5.99295,-2.67598 10.26726,-7.16948 12.11599,-13.77015 2.77729,-8.13198 -1.15333,-16.53523 -6.22013,-22.79977 -5.34069,-5.97443 -11.19696,-11.54954 -17.45868,-16.54764 -2.2855,0.66104 -7.87315,-0.9508 -11.76793,-1.29864 -5.72332,-0.65478 -11.34602,-1.71716 -17.14011,-1.55294 -2.187849,-0.68756 -5.956654,-0.21105 -4.373853,1.38047 -3.736066,2.4614 -6.074448,5.87048 -9.719691,7.00651 -2.822496,-2.26253 -4.651354,0.79986 -0.964993,1.27822 1.143878,2.13285 7.317845,3.2131 3.571793,5.69584 -1.33287,-0.63823 -3.143413,4.01661 0.208874,2.05851 2.089224,-1.27609 6.617014,-3.31911 4.162436,1.37834 0.176125,5.09995 5.064923,3.07745 6.836074,6.09133 5.17273,0.81686 10.22771,1.30441 15.25224,-0.53622 -0.55766,-2.8548 -6.05758,-3.26462 -3.89271,-7.55969 -0.0668,-2.7874 -0.0426,-10.71552 -2.73723,-10.24485 -0.84031,2.86503 -0.35126,14.10051 -4.73981,7.59812 -0.64453,-2.38511 -3.0441,-4.33577 -2.46701,-4.23051 2.322,-0.69167 3.60357,-2.39801 0.15977,-1.43088 -3.941186,-1.44163 -6.35019,-7.16932 -0.30368,-7.86635 5.39283,-0.0986 10.28794,1.05362 15.89635,1.2516 5.00631,1.55851 10.9965,-0.0766 14.24575,3.25391 3.53278,2.14218 5.45875,6.18116 8.75976,8.14896 2.82412,2.57134 5.29234,5.35302 6.8466,8.90439 -2.47246,1.78836 -2.60248,-2.50972 -4.53718,-1.6713 -1.39678,-1.71601 -7.4498,2.17621 -2.84488,3.26585 -0.75636,4.70926 -4.02382,-0.26545 -4.09874,4.10601 4.58482,-2.3441 7.82685,0.82522 9.28594,4.97756 3.36653,0.72279 8.95402,-3.74981 7.97737,2.20673 0.92472,3.8912 -0.38397,8.90527 -3.2814,11.74534 -0.38493,4.90526 -6.58871,6.39041 -9.85573,9.70122 -3.70658,2.2658 -6.07098,7.47734 -10.75631,8.80727 -6.10052,1.65141 -12.45232,2.54396 -18.27867,5.10127 -7.1561,-1.84957 -14.830508,-1.03867 -22.179662,-1.34841 -2.894486,-3.216 -10.013763,-2.49815 -6.161474,-7.99202 1.176403,-2.53644 6.320886,-3.56361 3.30438,-7.83531 3.794419,-3.95489 -0.407903,6.12476 3.60333,1.11818 2.398076,5.53279 2.597837,-3.50257 5.282771,-5.05597 -0.334458,-1.53744 -4.450806,-0.70777 -4.161771,-3.6901 -1.632233,0.67279 -2.755671,1.75876 -4.200277,0.14804 0.904925,1.51122 0.494175,8.5387 -0.2553,3.63561 0.664783,-4.64746 -8.80605,-5.13716 -3.075182,-8.83752 5.971035,-1.05727 -3.894982,-2.55609 -4.851767,0.28897 -1.349495,-2.23995 -2.698521,-3.71035 -4.151323,-1.1512 -4.716685,-0.60778 1.871616,5.49156 -3.069264,4.9669 -4.3044,-0.88232 -0.120929,8.74121 0.427724,7.98599 -0.0996,-3.27363 4.654538,-11.3804 5.447592,-4.16077 -0.295608,2.91252 1.847248,5.91442 1.80077,0.96557 -0.567655,-3.57538 1.479178,-6.43693 3.874098,-2.0387 2.887454,1.81894 2.877339,9.96124 -0.305575,4.32501 -1.324294,-0.6917 2.228563,9.2816 -1.283185,3.29489 -4.378518,-0.30581 0.810537,11.57257 -5.966122,7.8008 -5.404011,-0.91014 -8.393181,-6.22492 -12.179714,-9.70364 -2.713499,-4.34972 -8.513808,-5.38326 -8.48137,-11.66361 2.053179,-4.24385 -2.356776,1.35739 0.532187,3.31414 2.158962,5.15685 7.528787,6.44631 10.580173,11.48767 3.312251,5.26144 8.988088,6.71987 14.428832,8.56888 4.997022,1.42865 8.813558,6.02328 14.460134,4.51131 5.489495,0.18248 11.305615,-0.26246 16.517275,1.46618 l 0.74267,-0.24755 1.14437,-0.5436 z M 82.499568,171.38444 c -2.174454,-4.04233 -0.34168,-1.97254 0,0 z m 2.965468,-8.26696 c -1.117038,-1.66535 -2.299236,-5.48416 0.0071,-1.82749 0.86399,0.47636 0.746112,4.3069 -0.0071,1.82749 z M 72.027165,162.4534 c -2.13908,-4.80641 6.408352,-4.50991 1.79634,-8.56901 5.113933,0.91144 -0.508523,6.53115 -1.79634,8.56901 z m 81.453005,-8.99448 c 0.81227,-0.8814 -0.0116,0.88968 0,0 z M 76.618714,152.4162 c 0.632574,-1.97223 0.62973,1.61537 0,0 z m 68.262496,-9.27603 c 0.67733,-1.79949 0.51731,1.74346 0,0 z m 5.64566,-1.05774 c -1.81666,-1.96851 -1.43529,-7.07368 1.0729,-2.28794 1.91563,1.33663 1.15766,2.79396 -1.0729,2.28794 z m -7.56389,-1.87472 c -1.8154,-0.7845 -4.5897,-0.13132 -2.05518,-2.33355 0.66267,-2.19755 -3.71879,-3.73494 0.2748,-2.20846 1.23048,-0.0455 4.80761,6.97314 1.78038,4.54201 z m 1.91823,-0.11025 c 0.66949,-1.37775 0.53917,1.32818 0,0 z m -44.11927,-3.36563 c -1.915205,-1.89171 4.58096,1.54312 0,0 z m 46.50052,-0.19794 c 0.80857,-0.58506 1.19793,0.92446 0,0 z m -2.7937,-0.66613 c -0.80649,-1.03273 2.87563,1.35104 0,0 z m -48.084276,-4.31257 c -2.472073,-4.04063 1.921003,-0.28602 2.169862,-3.12439 1.659264,2.25487 5.887144,4.558 0.299414,3.83974 -0.86089,-0.002 -1.907463,0.10301 -2.469276,-0.71535 z m 8.880786,0.1389 c -0.13831,-2.30507 -3.41363,-5.9014 -0.28791,-2.02096 0.3754,0.0633 1.10338,2.82813 0.28791,2.02096 z m -5.513741,-4.36832 c -2.60467,-0.98947 -4.177556,-2.28213 -0.25264,-3.46654 2.994601,-1.22133 -0.866059,1.97677 0.546661,3.34803 l -0.285441,0.22241 -0.0086,-0.1039 z M 84.66177,121.56431 c -0.176357,-2.22795 4.112125,1.81815 0.308679,0.54605 l -0.308682,-0.54605 z m 14.314234,-0.66149 c 0.710425,-0.41691 2.923666,0.81145 0,0 z m -9.268628,-0.5301 c -0.248624,-1.28452 1.242918,0.61022 0,0 z m 7.400953,-0.27653 c 0.559357,-3.96888 2.71157,0.50245 0,0 z m -2.884928,-1.28167 c 0.611867,-0.83659 1.069324,0.79376 0,0 z m 1.450618,-1.47762 c 0.842797,-0.15318 0.279286,-0.1102 0,0 z m 5.424561,61.48832 c 1.10258,-2.84369 2.07287,-3.2917 4.5768,-2.23839 3.53622,-2.74319 -7.293704,-3.26729 -9.346929,-2.18879 -6.311422,4.64096 8.692029,-0.41346 3.353938,5.06246 -0.463028,1.24344 1.323211,-0.62613 1.416191,-0.63528 z m -5.429867,-3.49176 c 1.604372,-2.14073 9.078187,-0.33159 3.255594,-0.0891 -1.080143,0.0625 -2.175608,0.25675 -3.255594,0.0891 z m 25.361937,1.32237 c -1.07755,-4.14761 2.45572,-8.47748 5.98451,-4.75092 -0.18291,-4.16255 -3.88936,-7.12795 -6.12356,-2.61209 -2.91392,1.83296 -6.1525,2.76767 -8.23153,5.27891 3.39555,-1.75073 5.6089,2.84662 8.37058,2.0841 z m 9.92776,-7.85108 c 5.79285,-1.36497 2.33491,-9.50558 2.39824,-13.54797 0.91459,-4.06446 9.67996,-5.15976 8.44596,-8.63058 -4.10255,0.33739 -3.16019,-1.99584 -0.43607,-3.68816 -1.34412,-4.00102 -5.99913,0.64175 -6.09599,-3.43276 -2.93722,0.80888 -4.54058,3.67675 -7.38087,2.82444 1.93284,5.67712 -4.52757,2.87293 -7.237,4.68285 -1.60941,-2.99204 -2.5621,-2.03836 -1.02631,0.5768 -0.92948,4.06901 2.85652,5.80914 5.75285,4.87741 -6.22486,-2.76574 6.47714,-0.89758 2.16886,2.45344 3.65329,1.48529 7.27773,9.20522 3.59839,10.77573 -1.89257,-1.11808 -6.40818,1.38185 -3.35366,4.02831 1.02053,-0.40223 2.0346,-0.93253 3.1656,-0.91951 z m 2.21204,-5.62762 c -0.18457,-1.66636 -2.17865,-7.52567 0.31914,-3.22574 1.05014,0.75174 0.15479,8.09946 -0.31914,3.22574 z m -12.10174,-11.69905 c 0.86112,-1.76438 1.70612,1.02153 0,0 z m 3.96875,-2.60222 c -2.7962,-0.82362 2.68115,-2.03423 -0.64491,-1.84874 4.07554,-2.40893 7.89153,3.28637 0.64491,1.84874 z m 3.11018,-1.17163 c -1.52242,-1.51063 -1.6548,1.65569 0,0 z m 9.08203,0.10791 c -5.29863,-2.55262 8.3445,-0.90181 1.75445,0.2132 l -0.8911,-0.005 z m -2.40262,-2.43154 c 1.90664,-2.56161 2.30465,1.70353 0,0 z m -1.98438,-1.97585 c 1.21663,-0.9409 0.0171,0.90377 0,0 z m 1.25047,-0.68094 c 1.00877,-0.8731 0.41995,0.37848 -0.30465,0.36567 z m -16.36102,24.67433 c -1.01015,-2.04349 -1.74772,-6.56697 1.98715,-5.62936 -3.95209,-6.04514 7.9309,-1.21642 6.89261,-6.61489 -3.8219,-3.77168 -8.46946,4.73009 -10.04108,3.06731 -0.6354,-2.84086 -4.71008,6.41656 -5.08771,1.07085 4.74249,-3.68559 -4.08575,-11.0723 -4.68557,-5.23726 2.61853,3.52418 -2.74192,0.57434 -0.21145,4.15354 0.68319,7.87655 -9.944749,2.58491 -8.952979,-2.92924 -0.792504,-2.16319 2.724999,-7.41314 -0.752526,-3.25406 -2.455645,4.80009 -0.726483,12.79124 5.158985,13.85094 3.95122,0.0323 6.83242,-4.36295 9.51818,0.90036 1.93355,1.27705 4.5676,-0.0783 6.12217,1.33797 l 0.0522,-0.71633 z m -18.614515,-5.19058 c -0.460644,-3.24699 4.296285,2.39044 0,0 z m 9.889755,-5.1408 c 1.14788,-6.10083 3.04997,-0.74884 0,0 z m 11.68243,-0.4038 c 1.41987,-2.6294 7.16587,-1.01986 2.24892,-0.1706 -0.65327,0.26309 -1.60481,0.67882 -2.24892,0.1706 z m 2.70431,6.88298 c -2.2942,-2.17029 -0.81984,2.23819 0,0 z m -62.196769,-5.49475 c -1.444832,-4.07124 -2.860332,0.56988 0,0 z m 5.384611,-0.36825 c 1.671707,-4.72071 -4.970054,0.52418 0,0 z m -1.025016,-0.80428 c 1.126173,-1.07289 0.684465,1.1511 0,0 z m 27.352961,-0.44723 c 2.29023,-4.22118 -4.076095,-0.13225 0,0 z m -0.794521,-0.56128 c 0.322214,-1.75419 1.386147,0.65157 0,0 z m -29.429908,-1.86586 c 1.730342,-2.84899 7.101104,-7.78372 2.848817,-10.57047 1.093977,-2.62613 0.427818,-7.71969 2.530872,-9.05732 0.171257,2.31177 1.544233,10.07887 2.353984,3.33971 1.29268,-4.33472 3.270094,9.34783 5.223569,5.64508 0.685393,-3.2681 3.360922,-7.4206 4.205868,-11.19274 5.919359,-0.55033 3.107767,-8.83967 -0.980809,-5.43283 -1.728071,0.89111 -5.595085,3.49712 -3.458651,-0.38111 -1.622651,-4.40186 -4.5127,4.56008 -6.227054,1.23725 -3.874202,2.70417 -0.999765,10.17748 -6.065704,10.65163 -3.869627,1.68275 -5.650104,7.84726 -4.880251,11.94415 0.592863,1.85345 2.085024,4.48524 4.449359,3.81665 z m 0.214958,-7.88756 c -1.720714,-2.96051 1.379045,-6.4511 1.239552,-1.33151 0.145782,0.67783 -0.389989,3.00185 -1.239552,1.33151 z m 0.643511,-1.45521 c -0.950163,-5.43167 -0.679569,4.32236 0,0 z m 10.73588,-6.74687 c -0.492051,-1.41714 1.115716,1.35416 1.036979,0.52917 -0.430535,0.93247 -1.309898,0.26094 -1.036979,-0.52917 z m 1.32235,-0.59531 c 0.19844,-1.46275 0.19832,1.46268 0,0 z m 0.26515,-1.7643 c -0.606414,-3.88067 0.534096,1.36033 0,0 z m -1.568459,-0.88154 c 0.146819,-1.80623 0.146816,1.80624 0,0 z m 0.224022,-1.32291 c 0.646517,-2.14671 1.742125,-0.22104 0,0 z m -7.158425,-1.33038 c 0.406382,-2.19605 3.159771,-5.90994 1.066022,-1.68926 -0.362898,0.54943 -0.527445,1.26307 -1.066022,1.68926 z m 1.854039,-0.78629 c 0.283941,-1.82661 0.918824,-0.56659 0.04275,0.26458 z m 4.430942,20.49021 c 1.834981,-4.20989 -4.904662,1.17014 0,-3e-5 z m -1.528629,-0.5973 c 1.164965,-2.2457 3.103307,0.82508 0,0 z m -15.654526,-6.26687 c 0.710583,-9.04959 5.755526,-18.06971 14.186617,-21.98455 2.024142,-2.09403 8.934596,-4.49933 8.935187,-5.2071 -4.895308,2.02522 -9.453482,4.5805 -13.57117,7.84864 -6.903356,5.16333 -9.934504,13.82507 -10.091767,22.19746 -0.304987,5.30918 0.295489,0.60481 0.439906,-1.74365 z m -2.174127,3.60469 c -1.448342,-7.3848 -0.51468,-15.43578 2.96136,-22.18173 2.089556,-2.49659 2.275111,-11.27479 -1.938979,-5.80348 -4.815794,8.36181 -5.624429,18.95092 -2.642904,28.06646 0.290441,1.68408 1.294676,1.38337 1.620523,-0.0812 z m 31.982872,0.40724 c 1.323729,-1.60216 4.942409,0.0918 2.652869,-3.72045 2.374445,-2.40573 4.039402,-10.87212 -2.305734,-7.19839 -3.660727,2.91326 1.849869,8.92619 -2.770444,10.36173 0.03139,1.34862 1.952363,2.13868 2.423309,0.55711 z m -1.533267,0.18645 c -0.97877,-4.00111 2.900063,0.52577 0,0 z m 2.822618,-2.07635 c -0.05562,-1.78975 1.203909,0.9551 0,0 z m -0.825341,-2.33865 c -2.271129,-2.05835 1.603411,-7.57575 0.986546,-2.4057 -0.754511,0.42323 0.726184,5.06122 -0.986546,2.4057 z m 70.582364,-0.63852 c 0.73194,-5.44768 1.3196,-11.79513 -2.17796,-16.44231 -2.20358,1.99135 -3.67893,6.46458 -2.54524,10.77709 2.36575,1.20735 2.67661,9.43868 4.21842,7.73439 l 0.23161,-0.88249 z m -35.98809,2.32596 c -0.72422,-1.4898 -0.94999,0.86527 0,0 z m 1.31927,-3.32729 c -3.19548,-1.35957 0.14511,3.95749 0,0 z m -38.661132,-0.34248 c 2.508568,-3.39641 -1.304574,-4.66185 -1.287308,-0.50152 -0.327377,1.14293 0.81032,1.72752 1.287308,0.50152 z m 18.713542,0.43902 c -1.18281,-3.12143 -2.08379,1.39418 0,0 z m 27.49186,-5.49885 c 3.5495,-1.05213 2.89444,-4.58525 0.4155,-4.26935 0.37703,-6.0919 -5.54107,-9.75438 -11.00876,-9.894 -4.59459,0.0146 -4.87944,13.07736 0.4079,9.63287 1.03874,-3.68589 4.4541,-10.04878 7.71054,-4.01792 2.99495,1.83316 -2.43203,10.75731 2.47482,8.5484 z m -0.92604,-0.49452 c 0.99604,-2.8024 4.90085,-4.12955 1.66313,-0.51493 -0.33388,0.1086 -1.33824,1.18142 -1.66313,0.51493 z m 0.19015,-2.96232 c -0.54126,-2.56497 -1.54122,-9.00191 0.34239,-2.74831 0.0307,0.36238 0.36057,2.91193 -0.34239,2.74831 z m -11.74166,-1.48238 c -2.71021,-2.71531 2.36704,-13.10637 2.47111,-5.26426 -0.0369,1.52236 0.29969,7.21077 -2.47111,5.26426 z m 1.72438,-3.74314 c -0.18162,-3.47416 -0.37732,4.3159 0,0 z m -55.306097,5.1918 c 2.24934,-2.94692 -3.090755,0.59095 -0.663423,0.57499 z m -0.748025,-0.19964 c 0.776432,-1.53194 0.569877,0.70504 0,0 z m 74.347912,-7.43956 c -0.676,-0.94918 -0.676,0.94918 0,0 z m 0.9977,-1.00872 c -0.78168,-1.17246 -0.91519,1.33779 0,0 z m -3.55527,-0.69173 c -0.70991,-2.77619 -1.96221,1.56215 0,0 z m -51.348167,-8.1111 c 2.098645,-0.86165 9.829059,-2.65297 8.846607,-2.7854 -3.782036,0.688 -9.202334,2.54142 -11.75702,3.49591 0.964574,-0.25922 1.938104,-0.48284 2.910413,-0.71051 z m 11.506261,-3.07083 c -2.2687,-0.25742 -0.09745,0.42606 0,0 z"
       id="path1" /></g></svg>
