<svg xmlns="http://www.w3.org/2000/svg" xml:space="preserve" width="439.577" height="461.995" viewBox="0 0 116.305 122.236"><path d="M122.887 75.275c-1.853 1.49-4.023 2.423-6.18 3.377-18.12 5.959-36.354 11.573-54.43 17.67-4.99 1.847-10.326 2.889-15.095 5.238-.799 1.198-4.272 1.515-2.371-.235 1.667-1.514 1.605-3.294.324-.622-.501-.927-.772-1.367-.926-.398-.896-1.4-1.202-.712-1.866-.928-.078-.502-.952.336-1.588.393a.22.22 0 0 1-.136.005c-.241-.029-.434-.201-.5-.689-.436 1.09-.864-.088-1.86-.594-.59 1.056-.88-.12-1.338-.675.071.119.149.272.228.615-.46-.173-.512-.67-.407-.77-.23-.163-.5-.15-.865.35.032.579-3.001.567-3.157 1.318-1.335.411-4.042 1.011-3.844 1.116-.548-.58-2.89 1.029-4.346.798.454 2.717 1.679.914 1.04 2.925.917-.542.391 1.04.46 1.863.843-.23.598 1.52.962 2.493.519.43 1.13 3.053 1.699 4.659 1.298 3.305 1.182 7.14 2.98 10.198 1.138 6.508 3.468 12.982 5.41 19.417.782 2.428 1.066 1.735 1.33 4.217.13 1.875 1.835 3.925 1.383 4.49l3.24 10.857c.404 2.1 1.592 4.075 1.518 4.624.817.474-.243 1.651.764 1.707l1.733 6.69c.202 1.983 1.466 3.305.922 5.008.588-.285 1.166 3.08 1.795 4.411-.127 1.498.59 2.451.98 4.312.83 1.31.331 5.152 1.468 3.748-.415 1.965 4.267.81 4.06 1.647 1.811.312 3.947.583 5.216.684 1.538.584.95.292 2.464.73-.72-.557 2.151.236 2.8.438 1.086.872 3.198.534 4.507 1.149h.371c21.891-11.704 43.958-23.085 65.858-34.769 1.404-.978 5.56-2.269 1.827-2.664-1.569-1.081-3.494-.677-5.116.212-.932.837-2.427 1.071-3.868 2.08-1.296-.063-2.166 1.192-2.875 1.252-1.841.286-.863.99-3.22 1.38.593.547-1.537 1.002-2.34 1.277-1.612 1.04-2.71 1.237-4.21 2.183.163-.327-2.269.41-2.023.739-.685.708-2.982 1.177-3.966 1.856-.828.564-2.25 1.128-3.326 1.288-.143.66-2.76 1.33-4.013 2.15-.951-.03-3.976 2.725-3.035 1.216-1.75 1.458-3.838 2.36-5.785 3.498-3.084 1.41-5.676 3.124-8.73 4.322-1.67.44-3.105 1.494-4.648 2.29-1.434.596-2.128 1.054-3.907 1.925-2.223 1.455-2.04.05-3.03 1.347-1.282-1.2-2.61 2.386-2.37-.1 1.218.317-.169-1.876-.219.296-.636-.407-1.097 1.125-.787-.364-1.333-.464.776-2.613-1.13-1.65-.414-.513 1.593-3.497-.254-1.67-.86-1.672.7.314.313-1.784-.408-.524.867-3.047-.616-2.594-.08.232.73-.832.86-1.88.06.095.156.211.457.437.246-.273-.256-.577-.46-.588.032-.578-.152-1.133-.854-1.437-.945-.645.47-.95.618-1.246.585-1.238-.94-.65-1.036-1.182-.597-.263 1.008-.344.069-1.956-1.727-4.712-4.172-9.237-5.973-13.964-1.458-2.443-1.5-5.164-1.346-7.923.053-1.09 1.479-4.316.762-3.748-.297.167-.322-.987-.129-1.788-1.734.066-.56-.003.032-.485q-.112-.21-.226-.416l-.118-.216c-.295.158-.574.33-.694.477-1.35-.663-.376-.19.544-.76a6 6 0 0 1-.203-.44c-.038.047-.048-.015-.053-.096a7 7 0 0 1-.3-.398c-.449.573-.73.364-.655-.261 1.268-1.297-.85.209.18-1.503a9 9 0 0 0-.196-.203 1 1 0 0 1-.312.297c-.235-.367-.197-.564-.085-.656-.18-.128-.215-.283-.16-.385l-.528-.337c-.272-.172-.242-.403-.072-.469-.075-.136-.098-.3-.027-.544-2.152-2.286-3.382-5.226-4.26-8.2-.247-2.142-.835-3.554-1.287-4.622.415-1.876-1.54-1.852-1.296-3-.88-.642-.298-1.222.151-1.525l-.014-.036c-.03.013-.002.003-.036.018.015-.02.01-.028.025-.047l-.02-.05q-.114-.298-.227-.597c-.616.017-1.51.3-.37-.629-1.49-1.099-.082-.14-.703-1.688-1.803.253 1.16-.354-.002-1.193-.98.447-.033-.214-.755-.935l-.022-.005c-.224.172-.45.485-.361 1.047l-.185-.559c.007.043-.063.183-.433.671-1.083.866.2-.581.425-.696-.386-1.177-.791-2.38-.508-1.05-1.74-.772 1.655-1.987-.52-1.43-.714.585.26-.643-.702-1.44-.17.336-.015.844-.645-.68-.423-.39-.85-1.64-1.161-2.58-.123-1.086-.864-1.703-.786-2.628.168-.963-1.4-1.555.466-1.704 1.177-.349.72-.987 2.878-1.162.639-1.047 2.19-.278 3.167-1.813 1.29.543 2.79-1.382 4.004-1.058.096-.249 1.134-.789 1.844-1.106 1.802.142 1.647-1.021 3.148-1.112 1.556-.574 1.436-.489 2.844-1.25 1.833-.523 1.65-.425 2.422-.817.33-1.513 1.786.72 1.266-1.06 1.409.623 1.96-1.16 2.746-.36 1.923-.667 2.599-2.098 3.98-1.054.743-1.975.662.107 2.122-1.482 1.898-.627 2.516-.335 3.405-1.072 1.465-.466 2.59-.49 3.743-1.392 1.94.4 2.015-1.809 2.923-.62 1.166-.973 2.948-2.052 4.505-1.44-.152-.032 1.595-1.506 2.126-.593-.01-.017 3.116-1.13 3.009-.54 1.541-.49 1.237-.228 1.812-.628.226-.001.351-.013.513-.02.014.01.002.013.021.024.023-.012.008-.016.026-.027l-.047.002c-.4-.282.46-.26.047-.002.93-.05.966-.22 1.785-.637-.443.385 2.491.289 3.283-.308 1.949.046 2.048-.966 3.456-.55.145-.735 2.255-.454 3.47-.964 1.237-.793 1.849-.283 3.304-.892 1.85-.937.998-.343 2.404-.75 2.156-1.16.919-.263 2.457-.963.937-1.184 2.77-.47 3.198-1.649 1.993-1.421.676-3.663-.005-5.43zM120.4 82.18c-.14.003-.285.086.01.237.274-.165.14-.24-.01-.237m-2.361.265c.14.003.285.085-.01.237-.273-.165-.139-.24.01-.237m-15.081 3.968c.14.004.285.086-.01.238-.274-.165-.139-.241.01-.238m13.455.495c-1.882.071-3.748.648-5.354 1.7-2.432 1.515-4.485 3.853-5.768 6.448-.563.708 3.222 1.414 3.256 1.784.752 1.545 1.3 1.852 2.008 3.673.853 1.623.286 3.1-.416 4.721-.762 2.306-2.462 4.329-5.066 4.342-1.314.002-4.098-.77-3.226-1.846-.83.81-1.037-1.32-1.744-2.59-.683-3.954 2.403-6.828 4.524-9.746-1.917-1.898-4.48-2.914-7.106-3.35-3.276-.27-6.689-.063-9.732 1.33-4.26 2.109-7.965 5.413-10.29 9.601-.895 1.427-.683 5.027-3.066 3.53-3.927-.001-8.159-.666-11.874.916-2.823 1.178-5.252 3.46-6.105 6.45-1.139 4.8.565 9.68 1.269 14.451.485 5.036 3.221 9.404 6.567 13.063.828 1.563 4.24 2.332 2.51 4.33-2.203 3.645-2.744 8.163-1.132 12.142 2.508 6.958 5.71 13.675 8.867 20.366.979 1.277 1.133 4.369 3.227 3.89 1.68.393 1.625-1.703 2.393-2.683.67-2.355 1.785-3.483 4.082-2.034 4.398.118 8.724-1.589 12.212-4.24 4.189-3.002 5.828-8.156 9.397-11.718 1.422-1.04 3.478.8 5.143 1.06 4.66 1.19 9.513-.657 13.804-2.443 4.26-1.398 5.486-6.172 5.807-10.169.493.014 1.804 3.106 3.665 2.234 1.964-.224.817-3.132.699-4.54-1.256-5.094-.976-10.375-1.63-15.528-1.032-5.79-3.694-11.032-6.44-16.169.176-5.612-1.293-11.105-1.963-16.652-.843-3.688-1.4-7.575-3.074-10.985-1.666-.973-3.564-1.408-5.444-1.338m-26.95 2.151c.141.004.277.086-.009.237-.274-.165-.13-.24.01-.237m27.329 5.403q.5.007.999.07c1.524.347 3.23 2.83 2.489 2.407 1.44 2.613-.273 6.219-2.916 7.253-1.662.918-3.908-.499-4.71-2.002-.587-1.716-2.07-3.139-1.967-4.984 1.46-1.902 3.772-2.775 6.105-2.744m-76.148 1.792v.003l.002-.002zm80.305 1.272c.14.003.285.086-.01.237-.274-.165-.138-.24.01-.237m-76.223 1.28c.01.007.002.01.013.015.008-.004.002-.005.009-.01q-.011-.001-.022-.004m-7.914.043c.14.003.276.085-.01.237-.274-.165-.13-.24.01-.237m2.116.529c.14.003.277.086-.01.237-.273-.165-.129-.24.01-.237m-.529.264c.14.004.276.086-.01.238-.273-.165-.13-.24.01-.238m4.498.265c.14.003.276.086-.01.237-.273-.165-.13-.24.01-.237m50.388.186c1.36-.024 2.71.911 3.457 2.123 1.594 1.603.582.266 1.306 1.503 0 0 .91 1.702 1.062 3.142.275 2.612-.142 3.86-.142 3.86-.863 1.913-2.473 4.38-4.783 4.503-1.059.232-1.737-.843-2.592-1.285-2.017-2.057-4.407-4.661-4.12-7.768.728-2.263 2.547-4.3 4.469-5.708.434-.247.89-.362 1.343-.37m-50.917.343c.14.003.276.086-.01.237-.274-.165-.13-.24.01-.237m1.323.265c.14.003.276.086-.01.237-.274-.165-.13-.24.01-.237m.794 0c.14.003.276.086-.01.237-.274-.165-.13-.24.01-.237m-2.326.449c.04.022.047.158-.021.494-.502.39-.098-.561.02-.494m4.442 4.578c.14.003.276.086-.01.237-.273-.165-.129-.24.01-.237m36.625 1.603c1.127.033 2.226.437 2.571 1.015 1.776.809 2.33 2.212 2.419 3.434.828-.882.299 1.71.71 2.963-.607 3.027-2.724 6.307-6.219 5.892l-1.31.1c-2.132-.265-3.74-2.532-4.482-4.5-1.319-3.465 1.512-6.9 4.41-8.52.54-.29 1.225-.403 1.901-.384m-14.422 3.756c.632.002 1.268.024 1.902.037 2.149 1.419 4.077 3.761 4.315 6.35-1.28 3.951-4.852 7.167-9.115 7.243-2.276-.14-4.652-1.288-5.57-3.45-1.88-3.29.835-6.63 3.108-8.803 1.614-1.2 3.465-1.383 5.36-1.377m39.593.209c1.966-.103 4.028.556 5.476 1.846 1.85 1.053 2.23 4.162 1.834 5.92-.701 2.29-2.269 5.083-5.012 4.885-2.563-.252-5.654-1.58-6.848-4.016-1.5-2.472-1.31-5.932 1.269-7.602.957-.637 2.102-.972 3.281-1.033M51.5 113.983v.008zm-2.516 1.005c.14.003.276.086-.01.238-.274-.165-.13-.241.01-.238m.529.794c.14.003.276.086-.01.237-.274-.164-.13-.24.01-.237m.53 1.084c.204.02.497.198.27.476-.587-.357-.473-.495-.27-.476m-.53.239c.14.003.276.086-.01.237-.274-.165-.13-.24.01-.237m.529 1.588c.14.003.276.085-.01.237-.274-.165-.13-.24.01-.237m.794 0c.14.003.276.085-.01.237-.274-.165-.13-.24.01-.237m.001.555c.204.02.496.197.269.475-.586-.356-.472-.495-.269-.475m.528.767c.14.003.276.086-.01.238-.274-.165-.13-.241.01-.238m.264.53c.14.003.277.085-.01.237-.273-.165-.129-.24.01-.237m0 .529c.14.003.277.085-.01.237-.273-.165-.129-.24.01-.237m31.93.346q.387.006.805.163c.95.183 3.927 4.009 3.025 2.292 1.376.645 2.258 3.167 2.268 3.61.087.428.708 3.153.036 4.508-.701 2.166-2.761 4.287-5.039 4.626-.888.242-1.73.245-2.557-.188-1.45-.028-2.002-2.803-2.762-2.43-1.1-2.87-1.315-6.19.296-8.91.817-1.49 2.12-3.71 3.928-3.671m-30.871.712c.14.003.276.086-.01.237-.274-.164-.13-.24.01-.237m1.126 1.57c-.39-.03-.72.455.451.76.037-.539-.218-.742-.451-.76m-.332 1.076c.14.003.276.086-.01.237-.274-.165-.13-.24.01-.237m-21.167.794c.14.003.276.085-.01.237-.274-.165-.13-.24.01-.237m80.236.508q.523-.014 1.05.077c3.22.295 6.255 3.288 5.733 6.63-.349 1.976-2.244 4.212-4.479 4.025-1.837.55-3.627-.852-4.984-1.947-.976-1.398-3.173-2.742-2.716-4.608.686-2.428 2.96-4.116 5.396-4.177m-58.276.285c.14.003.276.086-.01.238-.273-.165-.129-.241.01-.238m-21.431.794c.14.003.276.086-.01.237-.274-.165-.13-.24.01-.237m22.225 1.588c.14.003.276.085-.01.237-.274-.165-.13-.24.01-.237m47.111.983c1.426.117 3.117.882 2.638.11 1.55.885 2.218 3.076 2.761 4.669.421 4.083-2.922 8.023-6.97 8.396l-1.1.093c-2.672-1.128-4.344-4.112-3.836-6.99.876-2.513 2.236-5.702 5.259-6.1.327-.185.773-.218 1.248-.178m-68.278 1.133c.14.003.277.086-.01.238-.273-.165-.129-.241.01-.238m.794 2.646c.14.003.276.086-.01.237-.273-.165-.13-.24.01-.237m.85 2.566c.039.022.046.158-.022.494-.502.39-.097-.561.021-.494m.264.794c.04.022.047.158-.021.494-.502.39-.098-.562.02-.494m53.236.743a8.2 8.2 0 0 1 3.363.61c2.514 1.287 4.16 4.363 3.756 7.166-1.458 2.413-3.926 4.242-6.842 4.144-2.18.488-4.223-1.001-5.38-2.752-.369-1.977-1.139-4.72.487-6.416.907-1.867 2.712-2.682 4.616-2.752m-52.972.05c.04.023.047.159-.02.494-.502.39-.098-.56.02-.494m.21 1.139c.14.003.276.086-.01.237-.274-.165-.13-.24.01-.237m80.686.688c1.553.017 2.96 1.472 3.983 1.709 1.058 1.77 2.637 3.295 3 5.395-.563 2.674-2.335 5.828-5.261 6.537-.285-.002-.574.224-.856.084-1.887.249-3.368-2.406-4.182-2.23-.834-1.79-1.407-3.824-1.201-5.794.044-2.494 1.329-4.916 3.843-5.613.227-.064.452-.09.674-.088m-80.422.106c.14.003.276.085-.01.237-.273-.165-.13-.24.01-.237m.265.793c.14.003.276.086-.01.237-.274-.164-.13-.24.01-.237m40.122.222c.41.004.834.065 1.268.193 2.436 1.094 3.95 3.902 4.233 6.515-.59 2.848-2.22 6.313-5.338 7.048-.852.39-1.628-.044-2.461-.25-1.959.947-3.01-3.304-3.063-1.717-1.37-1.797-.97-4.343-.614-6.385.856-2.637 3.102-5.432 5.975-5.404m-16.574.572c.14.003.276.086-.01.237-.274-.164-.13-.24.01-.237m.529 1.588c.14.003.276.085-.01.237-.274-.165-.13-.24.01-.237m44.779 1.404c.62-.013 1.37.121 2.286.734 1.96 1.682 3.552 4.374 3.366 7.039-.236 2.68-1.558 6.152-4.668 6.482-2.212.524-3.684-1.232-5.132-2.59-2.093-3.83-.425-8.76 2.622-11.51.41.02.904-.141 1.526-.155m-44.513 1.003c.203.02.496.197.269.476-.586-.357-.472-.496-.269-.476m2.385 1.01c-.025.304-.01.692.126 1.066q.048-.12.105-.237l.075-.155-.018-.047a3 3 0 0 0-.143-.34zm-2.122.551c.14.003.276.086-.01.237-.274-.164-.13-.24.01-.237m.794 0c.14.003.276.086-.01.237-.274-.164-.13-.24.01-.237m.264.53c.14.002.277.085-.01.237-.273-.165-.129-.24.01-.238m-1.058.529c.14.003.276.085-.01.237-.274-.165-.13-.24.01-.237m1.323.529c.14.003.276.085-.01.237-.274-.165-.13-.24.01-.237m-22.49 3.44c.14.002.277.085-.01.237-.273-.165-.129-.241.01-.238m54.128.193c.705-.01 1.411.02 2.085.044 1.93 1.483 3.634 3.707 3.706 6.192-.935 3.534-4.038 6.789-7.806 7.154-2.843.636-4.863-1.853-5.555-4.348-.388-2.357.057-5.171 2.155-6.638 1.196-1.991 3.3-2.376 5.415-2.404m-53.863.6c.14.003.276.086-.01.237-.274-.165-.13-.24.01-.237m32.26.53c-.14.002-.277.085.01.236.273-.164.129-.24-.01-.237m6.759 3.641c.995.077 1.984.331 2.83.804 1.745 1.954 3.619 4.434 3.297 7.18-.36 2.775-1.72 6.291-4.767 6.982-.62.2-1.218-.206-1.826-.304-2.107-1.489-4.164-3.37-5.055-5.904-.943-2.95.072-6.62 2.651-8.488a8.5 8.5 0 0 1 2.87-.27m27.127 16.996c.14.003.285.085-.01.237-.274-.165-.139-.24.01-.237m-36.513 2.116c.14.003.276.086-.01.238-.273-.165-.129-.24.01-.238m32.015 0c.14.003.285.086-.01.238-.273-.165-.139-.24.01-.238m-32.435.355c.04.007-.07.204-.482.747-1.134.906.36-.769.482-.747m1.459.175c-.14.003-.276.085.01.237.274-.165.13-.24-.01-.237m-.322.786c-.274-.054-.452.587.396 1.038-.032-.723-.231-1.006-.396-1.038m-1.775.272c.14.003.276.086-.01.237-.274-.165-.13-.24.01-.237m-.265.53c.14.002.276.085-.01.236-.273-.165-.129-.24.01-.237m.794 0c.14.002.276.085-.01.236-.273-.165-.13-.24.01-.237m2.097.264c-.14.003-.276.085.01.237.274-.165.13-.24-.01-.237m-1.617.259c.44-.01.898.399-.256.427l-.166.211c-.1-.477.157-.633.422-.638m13.262.043a1 1 0 0 1 .139.2c-.128-.163-.156-.215-.139-.2m-11.91.227c-.14.003-.276.086.01.237.274-.165.13-.24-.01-.237m10.94.023c-.133.007-.954 1.308-.181.55.193-.41.225-.553.18-.55m-12.781.908c2.062.506.257-.09.172.864-.064-.32-.715-.69-.172-.864m2.635.127c-.14.003-.276.086.01.237.274-.165.13-.24-.01-.237m9.617.023c-.133.007-.955 1.309-.181.55.193-.41.225-.552.18-.55m-10.052.255c-.137-.073-.837.506-.67.996.631-.674.752-.952.67-.996m-23.093.78c.14.004.276.086-.01.238-.274-.165-.13-.24.01-.237m23 0c-.141.004-.277.086.009.238.274-.165.13-.24-.01-.237m9.524 0c-.14.004-.276.086.01.238.274-.165.13-.24-.01-.237m-9.79.53c-.14.003-.276.085.01.237.274-.165.13-.24-.01-.237m-1.512.184c.04.023.047.158-.021.494-.502.39-.098-.561.021-.494m.887.03c.047.007-.049.25-.431.933-1.146 1.172.288-.95.43-.932m1.948.05c-.14.003-.276.086.01.237.274-.164.13-.24-.01-.237m-1.055.288c-.162-.03-.42.102-.289.479.516-.262.45-.45.289-.48m.262.506c-.14.003-.276.086.01.237.273-.164.129-.24-.01-.237m8.39.114c-.164.066-.461.439-.462.917h.133c.528-.744.495-.984.33-.917m.606.415c-.14.003-.277.086.01.237.273-.165.129-.24-.01-.237m-9.624.101c-.026.122-.066.377-.04.4.08-.509.067-.521.04-.4m-1.47.164c.14.003.277.085-.01.237-.273-.165-.129-.24.01-.237m2.362.529c-.14.003-.276.086.01.237.274-.165.13-.24-.01-.237m-2.097.265c.14.003.276.085-.01.237-.273-.165-.13-.24.01-.237m1.304 0c-.14.003-.277.085.01.237.273-.165.129-.24-.01-.237m7.672 0c-.14.003-.276.085.01.237.274-.165.13-.24-.01-.237m-6.085.264c-.14.003-.276.086.01.237.274-.165.13-.24-.01-.237m11.377 0c-.14.003-.276.086.01.237.274-.165.13-.24-.01-.237m-10.848.265c-.14.003-.276.085.01.237.274-.165.13-.24-.01-.237m3.969 0c-.14.003-.276.085.01.237.273-.165.13-.24-.01-.237m-5.556.264c-.14.003-.276.086.01.238.273-.165.129-.241-.01-.238m.529.265c-.14.003-.276.086.01.237.273-.165.13-.24-.01-.237m8.731.264c-.14.003-.276.086.01.238.274-.165.13-.24-.01-.238m-9.26.265c-.14.003-.276.086.01.237.273-.164.129-.24-.01-.237m.531.287c-.161-.028-.418.103-.288.48.516-.263.45-.45.288-.48m-1.11.056c-.347-.05-.656.347.382.684.048-.462-.173-.654-.382-.684m6.929.186c-.14.003-.276.086.01.237.273-.165.129-.24-.01-.237m-5.821.53c-.14.002-.276.085.01.237.273-.165.13-.241-.01-.238m2.646.264c-.14.003-.276.086.01.237.273-.165.129-.24-.01-.237m.793 0c-.14.003-.276.086.01.237.274-.165.13-.24-.01-.237m3.175 0c-.14.003-.276.086.01.237.274-.165.13-.24-.01-.237m-5.818.023c-.161-.029-.419.102-.288.479.515-.262.45-.45.288-.48m.527.242c-.14.003-.276.085.01.237.273-.165.13-.24-.01-.237m4.233 0c-.14.003-.276.085.01.237.274-.165.13-.24-.01-.237m-5.556.264c-.14.003-.276.086.01.237.273-.165.13-.24-.01-.237m3.175 0c-.14.003-.276.086.01.237.273-.165.13-.24-.01-.237m-3.969.265c-.14.003-.276.085.01.237.274-.165.13-.24-.01-.237m1.852 0c-.14.003-.276.085.01.237.274-.165.13-.24-.01-.237m2.646 0c-.14.003-.276.085.01.237.274-.165.13-.24-.01-.237m-3.969.264c-.14.003-.276.086.01.237.274-.164.13-.24-.01-.237m2.646.53c-.14.002-.276.085.01.237.274-.165.13-.24-.01-.238m-2.362 1.322c.14.003.277.086-.01.238-.273-.165-.129-.241.01-.238m-.529.265c.14.003.276.086-.01.237-.273-.165-.129-.24.01-.237m-6.37 6.085c-.14.003-.275.086.01.238.274-.165.13-.241-.01-.238" style="display:inline;fill:#000" transform="translate(-24.53 -75.275)"/></svg>