<?xml version="1.0" encoding="UTF-8" standalone="no"?>
<!-- Created with Inkscape (http://www.inkscape.org/) -->

<svg
   width="116.30466mm"
   height="122.23626mm"
   viewBox="0 0 116.30466 122.23626"
   version="1.1"
   id="svg1"
   xml:space="preserve"
   xmlns:inkscape="http://www.inkscape.org/namespaces/inkscape"
   xmlns:sodipodi="http://sodipodi.sourceforge.net/DTD/sodipodi-0.dtd"
   xmlns="http://www.w3.org/2000/svg"
   xmlns:svg="http://www.w3.org/2000/svg"><sodipodi:namedview
     id="namedview1"
     pagecolor="#ffffff"
     bordercolor="#000000"
     borderopacity="0.25"
     inkscape:showpageshadow="2"
     inkscape:pageopacity="0.0"
     inkscape:pagecheckerboard="0"
     inkscape:deskcolor="#d1d1d1"
     inkscape:document-units="mm"
     showgrid="false" /><defs
     id="defs1" /><g
     inkscape:label="Слой 1"
     inkscape:groupmode="layer"
     id="layer1"
     transform="translate(-24.529769,-75.274717)"><path
       id="path4"
       style="display:inline;fill:#000000"
       d="m 122.88656,75.274992 c -1.85253,1.490899 -4.02223,2.422878 -6.17947,3.376538 -18.120425,5.959145 -36.354205,11.572982 -54.429754,17.670756 -4.990105,1.847068 -10.326595,2.888623 -15.095203,5.237924 -0.798933,1.19806 -4.271984,1.51459 -2.371432,-0.23565 1.667759,-1.513601 1.605155,-3.293895 0.324528,-0.62115 -0.501246,-0.927847 -0.772476,-1.367057 -0.926558,-0.39842 -0.895923,-1.400887 -1.201271,-0.712389 -1.866036,-0.927593 -0.07773,-0.502134 -0.95197,0.336066 -1.588017,0.392224 -0.05155,0.01683 -0.09786,0.0168 -0.135392,0.0052 -0.241183,-0.02878 -0.434416,-0.200841 -0.500745,-0.68833 -0.435471,1.089909 -0.863713,-0.08855 -1.860351,-0.594279 -0.588234,1.055848 -0.87871,-0.119486 -1.337386,-0.675411 0.0717,0.119161 0.148885,0.271751 0.227893,0.61495 -0.460243,-0.173053 -0.512136,-0.668944 -0.406694,-0.769462 -0.229193,-0.163752 -0.499676,-0.150129 -0.865063,0.349849 0.03203,0.57853 -3.001008,0.566372 -3.156397,1.318266 -1.335326,0.4108 -4.042523,1.011036 -3.844209,1.115696 -0.548183,-0.580838 -2.889941,1.02861 -4.346505,0.7984 0.454143,2.71676 1.678834,0.91318 1.03973,2.92437 0.917915,-0.54205 0.391819,1.03973 0.460953,1.86293 0.842569,-0.22967 0.597444,1.521 0.961699,2.49339 0.518841,0.43012 1.129705,3.0533 1.698604,4.65863 1.297945,3.30502 1.181805,7.14026 2.979663,10.19834 1.138852,6.50804 3.468274,12.98191 5.41104,19.41639 0.781158,2.42811 1.065677,1.73576 1.329117,4.21783 0.129816,1.87479 1.834996,3.92491 1.383895,4.48965 1.079873,3.61861 2.159722,7.23815 3.239596,10.85722 0.40392,2.09914 1.591901,4.07468 1.517737,4.62349 0.816794,0.47381 -0.242951,1.65137 0.764294,1.70687 0.577661,2.23013 1.155522,4.4599 1.733228,6.69003 0.201863,1.98345 1.465365,3.30542 0.921907,5.00848 0.587441,-0.28482 1.166247,3.08014 1.794723,4.4111 -0.126753,1.49747 0.590951,2.45094 0.980302,4.31136 0.829505,1.31075 0.331188,5.15288 1.468127,3.7481 -0.415258,1.96484 4.266649,0.81021 4.060217,1.64692 1.810784,0.31193 3.946167,0.58321 5.215703,0.68472 1.537876,0.58379 0.949927,0.29161 2.463415,0.72915 -0.720649,-0.55689 2.151443,0.23698 2.799829,0.43873 1.086055,0.87161 3.198445,0.53415 4.507219,1.14877 h 0.03307 0.337963 c 21.891169,-11.70407 43.95779,-23.08484 65.85852,-34.76897 1.40408,-0.97785 5.55978,-2.26864 1.82676,-2.66392 -1.56869,-1.08127 -3.49443,-0.67724 -5.11649,0.21239 -0.93145,0.83629 -2.42639,1.07065 -3.86746,2.07998 -1.29614,-0.0636 -2.16579,1.19159 -2.87476,1.25109 -1.84145,0.28615 -0.86343,0.99137 -3.22048,1.38027 0.59354,0.54712 -1.53696,1.00245 -2.33939,1.27693 -1.61279,1.04083 -2.71007,1.2377 -4.21008,2.18333 0.16291,-0.32749 -2.26933,0.40983 -2.02365,0.73845 -0.68519,0.70893 -2.98154,1.17762 -3.96564,1.85674 -0.82836,0.56378 -2.24953,1.12782 -3.32642,1.28726 -0.14273,0.66131 -2.7605,1.32991 -4.01267,2.15077 -0.95116,-0.0299 -3.97603,2.72437 -3.03548,1.21595 -1.748658,1.45782 -3.83781,2.3601 -5.784138,3.49798 -3.084282,1.41036 -5.675944,3.1235 -8.73125,4.32221 -1.669534,0.44042 -3.104354,1.49386 -4.647262,2.2903 -1.433474,0.59512 -2.127748,1.05368 -3.906738,1.92392 -2.222964,1.45556 -2.040249,0.0501 -3.02979,1.34772 -1.282631,-1.19994 -2.610771,2.38589 -2.369881,-0.10077 1.217867,0.31697 -0.169218,-1.87571 -0.219108,0.2961 -0.636035,-0.40696 -1.097374,1.1256 -0.787032,-0.36328 -1.333247,-0.4641 0.775888,-2.61319 -1.130163,-1.64951 -0.414138,-0.51373 1.592347,-3.49753 -0.254248,-1.67122 -0.860679,-1.67126 0.700823,0.31474 0.313159,-1.78335 -0.408042,-0.52402 0.866973,-3.04745 -0.615983,-2.59416 -0.08066,0.23197 0.73016,-0.83228 0.859379,-1.87947 0.06127,0.0941 0.156399,0.21071 0.457336,0.43615 0.246601,-0.27286 -0.256237,-0.57656 -0.460437,-0.58808 0.03214,-0.57754 -0.15132,-1.13259 -0.853695,-1.4366 -0.944456,-0.64565 0.47086,-0.9501 0.618051,-1.24644 0.585443,-1.23759 -0.939176,-0.64938 -1.035596,-1.18132 -0.596874,-0.26368 1.007368,-0.34469 0.06873,-1.95596 -1.727369,-4.71213 -4.171809,-9.23762 -5.973279,-13.96452 -1.457907,-2.44316 -1.49871,-5.16412 -1.345655,-7.92251 0.05266,-1.09083 1.479023,-4.31688 0.761711,-3.74861 -0.297088,0.16727 -0.32154,-0.9872 -0.128674,-1.78749 -1.733746,0.0652 -0.559114,-0.003 0.03152,-0.48576 -0.07426,-0.13925 -0.149116,-0.27814 -0.225826,-0.41599 -0.03939,-0.0718 -0.07859,-0.14363 -0.117822,-0.21549 -0.295282,0.15817 -0.57373,0.32986 -0.693498,0.47645 -1.349726,-0.66301 -0.37687,-0.1899 0.543636,-0.75912 -0.0242,-0.0476 -0.04834,-0.0954 -0.07131,-0.14366 -0.04652,-0.0974 -0.0911,-0.1959 -0.131258,-0.29611 -0.0384,0.0463 -0.04857,-0.0155 -0.05323,-0.0971 -0.103607,-0.1299 -0.206217,-0.26085 -0.299723,-0.39791 -0.449391,0.57374 -0.730194,0.36442 -0.655774,-0.26097 1.268086,-1.29712 -0.849581,0.20926 0.180351,-1.50275 -0.06417,-0.0687 -0.12949,-0.13649 -0.195854,-0.20308 -0.05627,0.0907 -0.146029,0.18894 -0.312126,0.29765 -0.235435,-0.36783 -0.197411,-0.56447 -0.08527,-0.65681 -0.179023,-0.12738 -0.214515,-0.28274 -0.160197,-0.38447 -0.175364,-0.11301 -0.351395,-0.22538 -0.527616,-0.33693 -0.271965,-0.17216 -0.242156,-0.40334 -0.07235,-0.46922 -0.07433,-0.13608 -0.09728,-0.30033 -0.02636,-0.54415 -2.152334,-2.2858 -3.382508,-5.22586 -4.259688,-8.19899 -0.247708,-2.1425 -0.835125,-3.55541 -1.287777,-4.62245 0.415258,-1.87609 -1.538915,-1.85221 -1.295528,-3.00034 -0.880895,-0.64207 -0.298302,-1.22205 0.150895,-1.52497 -0.0046,-0.0121 -0.0094,-0.0241 -0.01395,-0.0362 -0.02958,0.0132 -0.0027,0.003 -0.03669,0.0181 0.01583,-0.021 0.01122,-0.0278 0.02532,-0.0475 -0.0062,-0.0164 -0.01293,-0.0327 -0.01912,-0.0491 -0.07568,-0.19941 -0.153812,-0.39776 -0.227376,-0.5979 -0.615917,0.0177 -1.509912,0.29967 -0.369487,-0.62838 -1.491043,-1.09873 -0.08251,-0.14014 -0.703833,-1.68827 -1.803248,0.2532 1.159223,-0.35357 -0.0021,-1.19269 -0.980756,0.44719 -0.03298,-0.21461 -0.754992,-0.93535 -0.0074,-0.002 -0.01478,-0.003 -0.02222,-0.005 -0.223339,0.17163 -0.449316,0.48465 -0.361219,1.04748 -0.05996,-0.18227 -0.119166,-0.36007 -0.184484,-0.55914 0.0072,0.0429 -0.06318,0.18324 -0.433049,0.67077 -1.083197,0.86578 0.199684,-0.58129 0.425297,-0.69557 -0.386384,-1.17725 -0.791312,-2.3806 -0.507979,-1.05058 -1.740291,-0.77192 1.654846,-1.98635 -0.520382,-1.42937 -0.713719,0.58431 0.260495,-0.64351 -0.701766,-1.43971 -0.169549,0.33547 -0.01489,0.84362 -0.644922,-0.68161 -0.423623,-0.38919 -0.849401,-1.63923 -1.161686,-2.57917 -0.122793,-1.08563 -0.863522,-1.70315 -0.785482,-2.62826 0.167595,-0.9629 -1.399298,-1.55516 0.465605,-1.70378 1.177279,-0.34861 0.719529,-0.98741 2.878377,-1.16168 0.638606,-1.04713 2.189586,-0.27814 3.166732,-1.81333 1.290454,0.54266 2.790644,-1.38162 4.004407,-1.05833 0.09571,-0.24824 1.133943,-0.78818 1.843815,-1.10536 1.80171,0.14132 1.646808,-1.021493 3.147611,-1.112593 1.556064,-0.57333 1.436278,-0.488429 2.844271,-1.250053 1.833012,-0.522325 1.649175,-0.42475 2.422591,-0.817005 0.330293,-1.512643 1.785938,0.720488 1.265039,-1.05885 1.408999,0.622485 1.960494,-1.160102 2.746603,-0.361218 1.92322,-0.666474 2.598425,-2.09751 3.980635,-1.053166 0.742511,-1.975118 0.660955,0.106664 2.120801,-1.48208 1.898158,-0.627034 2.516286,-0.335451 3.40496,-1.072286 1.465454,-0.465699 2.590147,-0.490572 3.743441,-1.391646 1.939868,0.40041 2.015045,-1.809334 2.922819,-0.6196 1.166514,-0.973654 2.948353,-2.053209 4.505151,-1.440739 -0.152224,-0.03153 1.594816,-1.50585 2.126486,-0.593246 -0.01134,-0.01655 3.115745,-1.129236 3.008085,-0.539502 1.541488,-0.489524 1.237168,-0.227826 1.812292,-0.628385 0.226371,-0.0011 0.351304,-0.01297 0.513147,-0.02067 0.01438,0.01038 0.0022,0.01338 0.02119,0.02481 0.02252,-0.01189 0.0083,-0.01635 0.02584,-0.02739 -0.01437,7.66e-4 -0.03219,0.0014 -0.04703,0.0021 -0.400714,-0.281902 0.459177,-0.260638 0.04703,-0.0021 0.92972,-0.04956 0.96609,-0.218912 1.78542,-0.636136 -0.44341,0.384364 2.49107,0.288133 3.28249,-0.307992 1.94879,0.04574 2.04814,-0.966353 3.45612,-0.551388 0.14455,-0.734531 2.25546,-0.452926 3.47007,-0.962731 1.23733,-0.792998 1.84882,-0.283212 3.30419,-0.891936 1.85019,-0.937153 0.99817,-0.343153 2.40347,-0.750858 2.1565,-1.160259 0.919,-0.262542 2.45773,-0.962215 0.93612,-1.1848 2.76936,-0.471118 3.19722,-1.648995 1.99361,-1.4217 0.67661,-3.663064 -0.005,-5.429643 z m -2.48512,6.905005 c -0.14014,0.0034 -0.28507,0.08574 0.01,0.237195 0.27376,-0.16502 0.13887,-0.240587 -0.01,-0.237195 z m -2.36162,0.264583 c 0.14014,0.0034 0.28507,0.08574 -0.01,0.237195 -0.2733,-0.165018 -0.13841,-0.240586 0.01,-0.237195 z m -15.08125,3.96875 c 0.14014,0.0034 0.28507,0.08574 -0.01,0.237195 -0.2733,-0.165018 -0.13841,-0.240586 0.01,-0.237195 z m 13.455,0.49506 c -1.88135,0.07081 -3.74755,0.648005 -5.35317,1.700155 -2.43217,1.513978 -4.48499,3.851986 -5.76812,6.447668 -0.56315,0.70792 3.22202,1.414081 3.25562,1.783871 0.75182,1.544798 1.29991,1.851871 2.00763,3.672646 0.85305,1.62321 0.28628,3.09973 -0.41548,4.72167 -0.76252,2.30518 -2.46238,4.32836 -5.06636,4.34186 -1.31373,0.002 -4.09747,-0.76997 -3.22564,-1.8464 -0.83086,0.80934 -1.03709,-1.31953 -1.74357,-2.59002 -0.683671,-3.9543 2.40235,-6.827562 4.52324,-9.74618 -1.91708,-1.897828 -4.47879,-2.913353 -7.106024,-3.350183 -3.276022,-0.268894 -6.688334,-0.06295 -9.731706,1.329635 -4.259876,2.109878 -7.964756,5.414245 -10.290844,9.601998 -0.894119,1.42713 -0.682043,5.02648 -3.06493,3.53053 -3.927274,-0.002 -8.158834,-0.66649 -11.87421,0.91571 -2.822604,1.17781 -5.25234,3.45983 -6.104537,6.44922 -1.139372,4.80099 0.564912,9.68061 1.268139,14.45183 0.485585,5.03514 3.221368,9.40356 6.567558,13.06225 0.828112,1.56373 4.239179,2.33185 2.510441,4.331 -2.203871,3.64441 -2.744591,8.1628 -1.132747,12.14138 2.50855,6.95766 5.709862,13.67475 8.866642,20.3662 0.979164,1.27678 1.133687,4.36828 3.227193,3.8902 1.679786,0.39303 1.625652,-1.7037 2.393136,-2.68356 0.669904,-2.35506 1.785669,-3.48258 4.081921,-2.03398 4.398306,0.11799 8.72448,-1.58858 12.212692,-4.23902 4.188296,-3.00293 5.827656,-8.15677 9.396846,-11.71866 1.4215,-1.03941 3.47762,0.7997 5.14283,1.05988 4.66031,1.1907 9.51321,-0.65664 13.80433,-2.44274 4.25963,-1.39812 5.48514,-6.17223 5.80636,-10.16889 0.49336,0.0133 1.80442,3.10562 3.6649,2.23397 1.96384,-0.22486 0.81735,-3.13232 0.69918,-4.54132 -1.2559,-5.09274 -0.9761,-10.3739 -1.63039,-15.52671 -1.03153,-5.79016 -3.6937,-11.03214 -6.44044,-16.16903 0.17663,-5.61263 -1.29221,-11.10523 -1.96215,-16.652218 -0.84302,-3.688036 -1.39982,-7.575247 -3.07372,-10.984859 -1.66635,-0.97314 -3.56372,-1.40871 -5.44462,-1.337903 z m -26.948747,2.150773 c 0.140135,0.0034 0.276162,0.08575 -0.0098,0.237195 -0.27375,-0.165015 -0.129461,-0.240586 0.0098,-0.237195 z m 27.328047,5.403288 c 0.33326,0.0045 0.66726,0.02766 0.99891,0.06873 1.52401,0.348004 3.23021,2.830846 2.48873,2.408122 1.44024,2.613082 -0.27237,6.218497 -2.91558,7.252787 -1.6617,0.91823 -3.90796,-0.49897 -4.71031,-2.00195 -0.5867,-1.71658 -2.06987,-3.138812 -1.9668,-4.98367 1.4597,-1.902675 3.77226,-2.775633 6.10505,-2.744019 z m -76.147806,1.791622 c 6.8e-5,8.87e-4 3.34e-4,0.0017 5.17e-4,0.0031 2.98e-4,-8.71e-4 8.79e-4,-0.0017 10e-4,-0.0026 -2.49e-4,-3.52e-4 -0.0013,-1.69e-4 -0.0016,-5.17e-4 z m 80.305176,1.271757 c 0.14014,0.0034 0.28507,0.08573 -0.01,0.237195 -0.27376,-0.165 -0.13842,-0.240579 0.01,-0.237195 z m -76.223254,1.281059 c 0.01037,0.006 0.0017,0.0082 0.01344,0.01447 0.0075,-0.0045 0.0014,-0.0055 0.0083,-0.0098 -0.0072,-0.0014 -0.01447,-0.0032 -0.0217,-0.0047 z m -7.914246,0.04186 c 0.140137,0.0034 0.27612,0.08575 -0.0098,0.237195 -0.273756,-0.165015 -0.129509,-0.240587 0.0098,-0.237195 z m 2.116667,0.529166 c 0.140136,0.0034 0.276118,0.08574 -0.0098,0.237195 -0.273755,-0.165015 -0.129463,-0.240586 0.0098,-0.237195 z m -0.529167,0.264584 c 0.140137,0.0034 0.27612,0.08574 -0.0098,0.237195 -0.273756,-0.165015 -0.129509,-0.240587 0.0098,-0.237195 z m 4.497917,0.264583 c 0.140138,0.0034 0.276122,0.08591 -0.0098,0.237188 -0.273757,-0.164786 -0.129464,-0.24058 0.0098,-0.237188 z m 50.387622,0.186038 c 1.36105,-0.0242 2.710986,0.91102 3.457153,2.12338 1.593714,1.60202 0.582554,0.26544 1.305864,1.50275 0,0 0.911152,1.70143 1.062467,3.14141 0.274557,2.6128 -0.14211,3.86023 -0.14211,3.86023 -0.863614,1.91359 -2.472876,4.37961 -4.782654,4.50308 -1.059064,0.23154 -1.737316,-0.84272 -2.59209,-1.28519 -2.017238,-2.05667 -4.407506,-4.66101 -4.120162,-7.76748 0.72741,-2.26312 2.546443,-4.29976 4.468461,-5.7087 0.434335,-0.24651 0.889357,-0.36141 1.343071,-0.36948 z m -50.916789,0.34313 c 0.140137,0.003 0.276118,0.0857 -0.0098,0.23719 -0.273756,-0.165 -0.129509,-0.24057 0.0098,-0.23719 z m 1.322917,0.26458 c 0.140138,0.003 0.276122,0.0857 -0.0098,0.23719 -0.273757,-0.16457 -0.129464,-0.24058 0.0098,-0.23719 z m 0.79375,0 c 0.140138,0.003 0.276122,0.0857 -0.0098,0.23719 -0.273757,-0.16457 -0.129464,-0.24058 0.0098,-0.23719 z m -2.325956,0.44907 c 0.03949,0.0224 0.04687,0.15859 -0.02119,0.49402 -0.501538,0.38941 -0.09728,-0.56127 0.02119,-0.49402 z m 4.442622,4.57801 c 0.140138,0.003 0.276166,0.0857 -0.0098,0.2372 -0.273756,-0.16503 -0.129464,-0.24059 0.0098,-0.2372 z m 36.624638,1.60352 c 1.12663,0.033 2.226095,0.43705 2.57142,1.01493 1.775838,0.80837 2.329257,2.2119 2.418457,3.43338 0.827674,-0.8822 0.298887,1.71025 0.709517,2.96364 -0.606234,3.0262 -2.723139,6.30681 -6.218225,5.89112 -0.43675,0.0333 -0.873248,0.0669 -1.309998,0.10025 -2.132265,-0.26517 -3.74053,-2.53166 -4.481897,-4.5005 -1.319103,-3.4645 1.511709,-6.89887 4.410067,-8.51834 0.538976,-0.29003 1.224699,-0.40427 1.900659,-0.38448 z m -14.421858,3.75533 c 0.631581,0.002 1.268046,0.0247 1.902209,0.0377 2.14862,1.41823 4.076933,3.76052 4.314982,6.35 -1.280483,3.95079 -4.852364,7.16696 -9.115206,7.24246 -2.276476,-0.1395 -4.651884,-1.28842 -5.569686,-3.45044 -1.87981,-3.28997 0.834532,-6.62914 3.107304,-8.80256 1.614593,-1.19996 3.465562,-1.38285 5.360397,-1.37718 z m 39.592927,0.20877 c 1.96588,-0.10215 4.02766,0.5562 5.47616,1.8464 1.85041,1.05341 2.23053,4.16223 1.83399,5.92057 -0.70116,2.29009 -2.26873,5.0828 -5.01209,4.88497 -2.56347,-0.25268 -5.65458,-1.58063 -6.84817,-4.01629 -1.50034,-2.47213 -1.30954,-5.9318 1.26866,-7.60264 0.95708,-0.63673 2.10238,-0.97173 3.28145,-1.03301 z m -56.898331,2.68769 c 4.31e-4,0.003 10e-4,0.005 10e-4,0.008 -0.0011,-0.003 -7.31e-4,-0.005 -10e-4,-0.008 z m -2.516126,1.00511 c 0.140137,0.003 0.276164,0.0857 -0.0098,0.23719 -0.273755,-0.16456 -0.129463,-0.24058 0.0098,-0.23719 z m 0.529167,0.79375 c 0.140137,0.003 0.27612,0.0858 -0.0098,0.23719 -0.273755,-0.16456 -0.129509,-0.24058 0.0098,-0.23719 z m 0.530717,1.08417 c 0.203345,0.0197 0.496234,0.19785 0.268717,0.47594 -0.585816,-0.35673 -0.472062,-0.4956 -0.268717,-0.47594 z M 49.51274,117.105 c 0.140137,0.003 0.27612,0.0857 -0.0098,0.23719 -0.273755,-0.165 -0.129509,-0.24057 0.0098,-0.23719 z m 0.529167,1.5875 c 0.140137,0.003 0.27612,0.0857 -0.0098,0.23719 -0.273756,-0.16501 -0.129464,-0.24058 0.0098,-0.23719 z m 0.79375,0 c 0.140137,0.003 0.27612,0.0857 -0.0098,0.23719 -0.273756,-0.16501 -0.129464,-0.24058 0.0098,-0.23719 z m 0.0016,0.555 c 0.203344,0.0197 0.496233,0.19785 0.268717,0.47594 -0.585816,-0.35673 -0.472061,-0.4956 -0.268717,-0.47594 z m 0.527616,0.76791 c 0.140137,0.003 0.276164,0.0857 -0.0098,0.2372 -0.273756,-0.16503 -0.129464,-0.24059 0.0098,-0.2372 z m 0.264584,0.52917 c 0.140137,0.003 0.27612,0.0858 -0.0098,0.23719 -0.273756,-0.16456 -0.129464,-0.24058 0.0098,-0.23719 z m 0,0.52917 c 0.140137,0.003 0.27612,0.0857 -0.0098,0.23719 -0.273756,-0.16501 -0.129464,-0.24058 0.0098,-0.23719 z m 31.929317,0.34623 c 0.25826,0.005 0.52669,0.057 0.805636,0.1633 0.949124,0.18228 3.927065,4.00849 3.024621,2.29185 1.375624,0.64492 2.258079,3.16716 2.268079,3.61063 0.0869,0.42772 0.707976,3.15228 0.03566,4.50773 -0.701174,2.16575 -2.761064,4.28632 -5.038452,4.62504 -0.888584,0.24202 -1.72961,0.24534 -2.55695,-0.18758 -1.450988,-0.0278 -2.001941,-2.80329 -2.762105,-2.42983 -1.101072,-2.86995 -1.314792,-6.19032 0.295589,-8.91005 0.817635,-1.48932 2.120199,-3.70932 3.927926,-3.67109 z m -30.870984,0.7121 c 0.140137,0.003 0.27612,0.0858 -0.0098,0.23719 -0.273755,-0.16456 -0.129509,-0.24058 0.0098,-0.23719 z m 1.12603,1.57045 c -0.389472,-0.0297 -0.720672,0.45449 0.451652,0.75861 0.03677,-0.53795 -0.218015,-0.74077 -0.451652,-0.75861 z m -0.33228,1.07538 c 0.140137,0.003 0.27612,0.0857 -0.0098,0.2372 -0.273755,-0.16503 -0.129509,-0.24059 0.0098,-0.2372 z m -21.166667,0.79375 c 0.140137,0.003 0.276164,0.0857 -0.0098,0.2372 -0.273756,-0.16503 -0.129464,-0.24059 0.0098,-0.2372 z m 80.236447,0.5085 c 0.34795,-0.009 0.69917,0.0161 1.04955,0.0765 3.21927,0.29577 6.25536,3.28804 5.73298,6.6306 -0.34871,1.97583 -2.24348,4.21153 -4.4788,4.02456 -1.83682,0.55043 -3.62702,-0.85195 -4.98419,-1.94716 -0.97615,-1.39753 -3.17311,-2.74163 -2.71559,-4.60799 0.68612,-2.4273 2.96039,-4.11588 5.39605,-4.17649 z m -58.27603,0.28525 c 0.140138,0.003 0.27612,0.0857 -0.0098,0.2372 -0.273757,-0.16503 -0.129509,-0.24059 0.0098,-0.2372 z m -21.43125,0.79375 c 0.140137,0.003 0.27612,0.0857 -0.0098,0.2372 -0.273755,-0.16503 -0.129509,-0.24059 0.0098,-0.2372 z m 22.225,1.5875 c 0.140138,0.003 0.27612,0.0857 -0.0098,0.2372 -0.273757,-0.16503 -0.129509,-0.24059 0.0098,-0.2372 z m 47.11134,0.98289 c 1.42607,0.11776 3.11684,0.88282 2.63808,0.10955 1.5497,0.88558 2.21779,3.07739 2.76055,4.66949 0.42111,4.08371 -2.92163,8.02306 -6.96908,8.3969 -0.36684,0.0308 -0.733914,0.0617 -1.100708,0.0925 -2.672218,-1.12774 -4.343933,-4.1121 -3.836459,-6.99027 0.875814,-2.51257 2.236668,-5.7021 5.259107,-6.09885 0.3268,-0.18559 0.773,-0.21857 1.24851,-0.17932 z m -68.278007,1.13378 c 0.140137,0.003 0.276164,0.0858 -0.0098,0.23719 -0.273755,-0.16456 -0.129463,-0.24058 0.0098,-0.23719 z m 0.79375,2.64583 c 0.140137,0.003 0.276164,0.0857 -0.0098,0.2372 -0.273756,-0.16503 -0.129464,-0.24059 0.0098,-0.2372 z m 0.849044,2.56574 c 0.03949,0.0224 0.04687,0.15859 -0.02119,0.49402 -0.501583,0.3894 -0.09728,-0.56127 0.02119,-0.49402 z m 0.264584,0.79375 c 0.03949,0.0224 0.04687,0.15859 -0.02119,0.49402 -0.501538,0.3894 -0.09728,-0.56127 0.02119,-0.49402 z m 53.236027,0.74311 c 1.142495,-0.0424 2.32121,0.1831 3.363102,0.61029 2.514112,1.28675 4.160077,4.36294 3.755843,7.16597 -1.457954,2.4131 -3.926048,4.24205 -6.84196,4.14445 -2.180298,0.48713 -4.222556,-1.00187 -5.379,-2.7528 -0.369274,-1.97691 -1.139805,-4.7203 0.485759,-6.41614 0.907329,-1.86615 2.711992,-2.6811 4.616256,-2.75177 z m -52.971444,0.0506 c 0.03949,0.0224 0.04687,0.15859 -0.02119,0.49402 -0.501583,0.3894 -0.09728,-0.56127 0.02119,-0.49402 z m 0.209289,1.13843 c 0.140137,0.003 0.276165,0.0858 -0.0098,0.23719 -0.273754,-0.16456 -0.129463,-0.24058 0.0098,-0.23719 z m 80.686027,0.68781 c 1.55352,0.0173 2.95952,1.47194 3.98322,1.70894 1.05856,1.77046 2.63708,3.29521 2.9993,5.39502 -0.56198,2.67486 -2.33404,5.82837 -5.26066,6.53759 -0.28477,-0.002 -0.57322,0.22338 -0.85576,0.0842 -1.8866,0.2485 -3.36797,-2.40643 -4.18217,-2.23087 -0.83393,-1.79002 -1.40618,-3.82345 -1.20096,-5.79345 0.0443,-2.4937 1.32928,-4.91613 3.84317,-5.61309 0.22727,-0.0639 0.45193,-0.0908 0.67386,-0.0884 z m -80.421443,0.10594 c 0.140136,0.003 0.276118,0.0857 -0.0098,0.23719 -0.273755,-0.16456 -0.129463,-0.24058 0.0098,-0.23719 z m 0.264583,0.79375 c 0.140137,0.003 0.27612,0.0857 -0.0098,0.23719 -0.273756,-0.16456 -0.129509,-0.24058 0.0098,-0.23719 z m 40.122099,0.22169 c 0.410405,0.004 0.833755,0.0653 1.267623,0.19327 2.436046,1.09369 3.950073,3.90212 4.233333,6.51433 -0.589314,2.84864 -2.219351,6.31305 -5.337659,7.04867 -0.851923,0.39044 -1.627701,-0.044 -2.461348,-0.2496 -1.958795,0.94618 -3.008961,-3.3048 -3.062345,-1.71721 -1.370811,-1.79727 -0.970268,-4.34305 -0.614433,-6.38565 0.856388,-2.63664 3.10181,-5.43179 5.974829,-5.40381 z m -16.574182,0.57206 c 0.140137,0.003 0.276119,0.0857 -0.0098,0.23719 -0.273754,-0.16456 -0.129463,-0.24058 0.0098,-0.23719 z m 0.529166,1.5875 c 0.140138,0.003 0.276166,0.0858 -0.0098,0.23719 -0.273756,-0.16456 -0.129464,-0.24058 0.0098,-0.23719 z m 11.5502,1.20406 c 0.0073,0.0391 0.05086,0.26152 0.109037,0.54932 -0.08737,-0.4442 -0.116336,-0.58842 -0.109037,-0.54932 z m 33.228467,0.20051 c 0.62122,-0.0136 1.37028,0.12085 2.28616,0.73432 1.961,1.68168 3.55192,4.37346 3.3662,7.03833 -0.2364,2.67934 -1.55758,6.15223 -4.66793,6.48177 -2.21201,0.52477 -3.68386,-1.2315 -5.13198,-2.5895 -2.092579,-3.83003 -0.42462,-8.76097 2.62154,-11.51093 0.40955,0.0216 0.90433,-0.14039 1.52601,-0.15399 z m -44.512533,1.00252 c 0.203345,0.0197 0.496235,0.19785 0.268717,0.47594 -0.585818,-0.35674 -0.472062,-0.4956 -0.268717,-0.47594 z m 2.385384,1.01131 c -0.02576,0.30346 -0.0098,0.69102 0.126091,1.06505 0.03176,-0.0802 0.06619,-0.15938 0.104386,-0.23668 0.02466,-0.0519 0.05057,-0.10322 0.07545,-0.15503 -0.0064,-0.015 -0.01293,-0.0305 -0.0186,-0.047 -0.04001,-0.11672 -0.08753,-0.23056 -0.142627,-0.34106 -0.0472,-0.0956 -0.09578,-0.19053 -0.144694,-0.28525 z m -2.122351,0.55035 c 0.140137,0.003 0.276118,0.0858 -0.0098,0.23719 -0.273756,-0.16456 -0.129509,-0.24058 0.0098,-0.23719 z m 0.79375,0 c 0.140137,0.003 0.276118,0.0858 -0.0098,0.23719 -0.273756,-0.16456 -0.129509,-0.24058 0.0098,-0.23719 z m 0.264583,0.52917 c 0.140138,0.003 0.276166,0.0857 -0.0098,0.23719 -0.273756,-0.16501 -0.129464,-0.24058 0.0098,-0.23719 z m -1.058333,0.52916 c 0.140138,0.003 0.276121,0.0857 -0.0098,0.2372 -0.273758,-0.16503 -0.12951,-0.24059 0.0098,-0.2372 z m 1.322917,0.52917 c 0.140137,0.003 0.276119,0.0857 -0.0098,0.23719 -0.273754,-0.16456 -0.129463,-0.24058 0.0098,-0.23719 z m -22.489584,3.43958 c 0.140139,0.003 0.276168,0.0857 -0.0098,0.2372 -0.273757,-0.16503 -0.129465,-0.24059 0.0098,-0.2372 z m 54.127446,0.19327 c 0.704856,-0.009 1.411197,0.0206 2.085144,0.0439 1.930658,1.4837 3.634117,3.70722 3.705717,6.19239 -0.934905,3.53386 -4.037972,6.78871 -7.805208,7.15408 -2.843868,0.63582 -4.863373,-1.85349 -5.555217,-4.34805 -0.3885,-2.35694 0.05647,-5.17095 2.154907,-6.63836 1.195747,-1.99095 3.300042,-2.37564 5.414657,-2.40399 z m -53.862862,0.60048 c 0.140138,0.003 0.276121,0.0857 -0.0098,0.2372 -0.273758,-0.16503 -0.129464,-0.24059 0.0098,-0.2372 z m 32.259529,0.52917 c -0.140091,0.003 -0.276119,0.0857 0.0098,0.23719 0.273754,-0.16456 0.129463,-0.24058 -0.0098,-0.23719 z m 6.759278,3.64216 c 0.995125,0.0762 1.983796,0.33095 2.830835,0.80356 1.744588,1.95412 3.618079,4.43446 3.296439,7.17993 -0.359524,2.77464 -1.720782,6.29152 -4.766634,6.982 -0.620924,0.19933 -1.218531,-0.20606 -1.826245,-0.30386 -2.107585,-1.48888 -4.163732,-3.36941 -5.055505,-5.90455 -0.942993,-2.95028 0.07256,-6.61989 2.651517,-8.48785 0.873126,-0.24286 1.874467,-0.34542 2.869593,-0.26923 z m 27.127026,16.99534 c 0.14014,0.003 0.28508,0.0857 -0.01,0.23719 -0.27376,-0.16455 -0.13842,-0.24058 0.01,-0.23719 z m -36.5125,2.11667 c 0.140137,0.003 0.27612,0.0857 -0.0098,0.23719 -0.273755,-0.16502 -0.129509,-0.24059 0.0098,-0.23719 z m 32.01458,0 c 0.14014,0.003 0.28507,0.0857 -0.01,0.23719 -0.2733,-0.16502 -0.13841,-0.24059 0.01,-0.23719 z m -32.434709,0.35501 c 0.04078,0.007 -0.07063,0.20356 -0.482658,0.74673 -1.133105,0.90579 0.360311,-0.7692 0.482658,-0.74673 z m 1.458825,0.17415 c -0.140092,0.003 -0.276123,0.0858 0.0098,0.2372 0.273752,-0.16502 0.129464,-0.24059 -0.0098,-0.2372 z m -0.321944,0.786 c -0.27425,-0.0539 -0.452393,0.58709 0.396358,1.0387 -0.03272,-0.72375 -0.231808,-1.00633 -0.396358,-1.0387 z M 69.091907,177.43 c 0.140137,0.003 0.27612,0.0857 -0.0098,0.23719 -0.273756,-0.16502 -0.129464,-0.24059 0.0098,-0.23719 z m -0.264584,0.52916 c 0.140137,0.003 0.276164,0.0857 -0.0098,0.2372 -0.273755,-0.16502 -0.129463,-0.24059 0.0098,-0.2372 z m 0.79375,0 c 0.140137,0.003 0.276164,0.0857 -0.0098,0.2372 -0.273755,-0.16502 -0.129463,-0.24059 0.0098,-0.2372 z m 2.09703,0.26459 c -0.140137,0.003 -0.276119,0.0857 0.0098,0.23719 0.27371,-0.16502 0.129463,-0.24059 -0.0098,-0.23719 z m -1.617472,0.2589 c 0.440323,-0.009 0.898298,0.39898 -0.255799,0.42736 l -0.165881,0.21136 c -0.100692,-0.47785 0.157459,-0.63336 0.42168,-0.63872 z m 13.262756,0.0434 c 0.0178,0.0148 0.08183,0.0961 0.138493,0.19947 -0.12787,-0.16204 -0.156294,-0.21424 -0.138493,-0.19947 z m -11.909867,0.22686 c -0.140138,0.003 -0.27612,0.0857 0.0098,0.2372 0.273756,-0.16502 0.129509,-0.24059 -0.0098,-0.2372 z m 10.939384,0.0227 c -0.133003,0.007 -0.954282,1.30888 -0.180868,0.54984 0.19325,-0.41002 0.225202,-0.55203 0.180868,-0.54984 z m -12.781132,0.90847 c 2.062269,0.50629 0.257021,-0.0899 0.172082,0.86403 -0.06376,-0.31931 -0.715191,-0.68934 -0.172082,-0.86403 z m 2.635498,0.12713 c -0.140138,0.003 -0.27612,0.0857 0.0098,0.23719 0.273756,-0.16502 0.129509,-0.24059 -0.0098,-0.23719 z m 9.616467,0.0227 c -0.133005,0.007 -0.954297,1.30894 -0.180868,0.54984 0.193255,-0.41005 0.225203,-0.55202 0.180868,-0.54984 z m -10.0521,0.25477 c -0.136764,-0.0731 -0.83648,0.50628 -0.670243,0.99632 0.631729,-0.67385 0.752329,-0.95249 0.670243,-0.99632 z m -23.092647,0.78083 c 0.140137,0.003 0.27612,0.0857 -0.0098,0.23719 -0.273755,-0.16456 -0.129509,-0.24058 0.0098,-0.23719 z m 22.999113,0 c -0.140137,0.003 -0.276118,0.0857 0.0098,0.23719 0.27371,-0.16456 0.129463,-0.24058 -0.0098,-0.23719 z m 9.525,0 c -0.140135,0.003 -0.276116,0.0857 0.0098,0.23719 0.273704,-0.16456 0.129461,-0.24058 -0.0098,-0.23719 z m -9.789583,0.52917 c -0.140138,0.003 -0.27612,0.0857 0.0098,0.23719 0.273756,-0.16502 0.129509,-0.24059 -0.0098,-0.23719 z m -1.512569,0.18448 c 0.03949,0.0224 0.04687,0.15814 -0.02119,0.49403 -0.501538,0.3894 -0.09728,-0.56128 0.02119,-0.49403 z m 0.886767,0.0305 c 0.04755,0.006 -0.04825,0.24973 -0.430981,0.93276 -1.145321,1.17205 0.288339,-0.9507 0.430981,-0.93276 z m 1.948718,0.0496 c -0.140091,0.003 -0.276119,0.0857 0.0098,0.23719 0.273754,-0.16456 0.129463,-0.24058 -0.0098,-0.23719 z m -1.055749,0.28732 c -0.161553,-0.0287 -0.418927,0.10226 -0.288355,0.47904 0.515641,-0.262 0.449908,-0.45034 0.288355,-0.47904 z m 0.261999,0.50643 c -0.140091,0.003 -0.276119,0.0858 0.0098,0.23719 0.273754,-0.16456 0.129463,-0.24058 -0.0098,-0.23719 z m 8.391219,0.11369 c -0.164992,0.0664 -0.462114,0.43882 -0.462504,0.91725 h 0.132292 c 0.52825,-0.74406 0.49525,-0.98366 0.330212,-0.91725 z m 0.604615,0.41548 c -0.14014,0.003 -0.276121,0.0857 0.0098,0.23719 0.273765,-0.16501 0.129512,-0.24058 -0.0098,-0.23719 z m -9.623186,0.10128 c -0.02647,0.12161 -0.06629,0.37654 -0.03979,0.40049 0.07938,-0.50993 0.06626,-0.5221 0.03979,-0.40049 z m -1.469677,0.1633 c 0.140137,0.003 0.27612,0.0857 -0.0098,0.23719 -0.273756,-0.16456 -0.129464,-0.24058 0.0098,-0.23719 z M 72.24727,183.78 c -0.140138,0.003 -0.27612,0.0857 0.0098,0.23719 0.273756,-0.16502 0.129509,-0.24059 -0.0098,-0.23719 z m -2.09703,0.26458 c 0.140137,0.003 0.27612,0.0857 -0.0098,0.23719 -0.273755,-0.16456 -0.129509,-0.24058 0.0098,-0.23719 z m 1.30328,0 c -0.140138,0.003 -0.27612,0.0857 0.0098,0.23719 0.273756,-0.16456 0.129509,-0.24058 -0.0098,-0.23719 z m 7.672916,0 c -0.140091,0.003 -0.276118,0.0857 0.0098,0.23719 0.273754,-0.16456 0.129463,-0.24058 -0.0098,-0.23719 z m -6.085416,0.26458 c -0.140137,0.003 -0.27612,0.0858 0.0098,0.2372 0.273754,-0.16502 0.129509,-0.24059 -0.0098,-0.2372 z m 11.377083,0 c -0.140135,0.003 -0.276116,0.0858 0.0098,0.2372 0.273704,-0.16502 0.129461,-0.24059 -0.0098,-0.2372 z m -10.847917,0.26459 c -0.140092,0.003 -0.276118,0.0857 0.0098,0.23719 0.273756,-0.16502 0.129463,-0.24059 -0.0098,-0.23719 z m 3.96875,0 c -0.140092,0.003 -0.276118,0.0857 0.0098,0.23719 0.273756,-0.16502 0.129463,-0.24059 -0.0098,-0.23719 z m -5.55625,0.26458 c -0.140091,0.003 -0.276119,0.0857 0.0098,0.23719 0.273754,-0.16456 0.129463,-0.24058 -0.0098,-0.23719 z m 0.529167,0.26458 c -0.140137,0.003 -0.276118,0.0857 0.0098,0.2372 0.27371,-0.16502 0.129463,-0.24059 -0.0098,-0.2372 z m 8.73125,0.26459 c -0.140136,0.003 -0.276116,0.0857 0.0098,0.23719 0.273709,-0.16502 0.129462,-0.24059 -0.0098,-0.23719 z m -9.260417,0.26458 c -0.140091,0.003 -0.276119,0.0857 0.0098,0.23719 0.273754,-0.16456 0.129463,-0.24058 -0.0098,-0.23719 z m 0.531751,0.28732 c -0.161553,-0.0287 -0.418927,0.10226 -0.288355,0.47904 0.515641,-0.262 0.449908,-0.45034 0.288355,-0.47904 z m -1.11001,0.0553 c -0.346983,-0.0504 -0.656792,0.34739 0.381372,0.68472 0.04854,-0.46272 -0.173182,-0.65445 -0.381372,-0.68472 z m 6.928259,0.18656 c -0.140092,0.003 -0.276118,0.0857 0.0098,0.23719 0.273756,-0.16502 0.129463,-0.24059 -0.0098,-0.23719 z m -5.820833,0.52916 c -0.140137,0.003 -0.276118,0.0857 0.0098,0.2372 0.27371,-0.16502 0.129463,-0.24059 -0.0098,-0.2372 z m 2.645833,0.26459 c -0.140092,0.003 -0.276118,0.0857 0.0098,0.23719 0.273756,-0.16502 0.129463,-0.24059 -0.0098,-0.23719 z m 0.79375,0 c -0.140092,0.003 -0.276118,0.0857 0.0098,0.23719 0.273756,-0.16502 0.129463,-0.24059 -0.0098,-0.23719 z m 3.175,0 c -0.140091,0.003 -0.276118,0.0857 0.0098,0.23719 0.273754,-0.16502 0.129463,-0.24059 -0.0098,-0.23719 z m -5.818249,0.0227 c -0.161551,-0.0287 -0.418922,0.10271 -0.288355,0.47904 0.515638,-0.26153 0.449906,-0.45034 0.288355,-0.47904 z m 0.526583,0.24185 c -0.140137,0.003 -0.27612,0.0857 0.0098,0.23719 0.273754,-0.16456 0.129509,-0.24058 -0.0098,-0.23719 z m 4.233333,0 c -0.140137,0.003 -0.27612,0.0857 0.0098,0.23719 0.27371,-0.16456 0.129463,-0.24058 -0.0098,-0.23719 z m -5.55625,0.26458 c -0.140137,0.003 -0.276118,0.0857 0.0098,0.2372 0.27371,-0.16502 0.129463,-0.24059 -0.0098,-0.2372 z m 3.175,0 c -0.140137,0.003 -0.27612,0.0857 0.0098,0.2372 0.27371,-0.16502 0.129463,-0.24059 -0.0098,-0.2372 z m -3.96875,0.26459 c -0.140137,0.003 -0.276119,0.0857 0.0098,0.23719 0.27371,-0.16502 0.129463,-0.24059 -0.0098,-0.23719 z m 1.852083,0 c -0.140092,0.003 -0.276118,0.0857 0.0098,0.23719 0.273756,-0.16502 0.129463,-0.24059 -0.0098,-0.23719 z m 2.645834,0 c -0.140137,0.003 -0.27612,0.0857 0.0098,0.23719 0.273755,-0.16502 0.129509,-0.24059 -0.0098,-0.23719 z m -3.96875,0.26458 c -0.140138,0.003 -0.27612,0.0857 0.0098,0.23719 0.273756,-0.16456 0.129509,-0.24058 -0.0098,-0.23719 z m 2.645833,0.52917 c -0.140137,0.003 -0.27612,0.0857 0.0098,0.23719 0.273711,-0.16502 0.129464,-0.24059 -0.0098,-0.23719 z m -2.361613,1.32291 c 0.140137,0.003 0.27612,0.0857 -0.0098,0.2372 -0.273755,-0.16502 -0.129509,-0.24059 0.0098,-0.2372 z M 72.002323,190.13 c 0.140137,0.003 0.276164,0.0857 -0.0098,0.23719 -0.273756,-0.16502 -0.129464,-0.24059 0.0098,-0.23719 z m -6.369637,6.08541 c -0.140092,0.003 -0.27612,0.0858 0.0098,0.2372 0.273756,-0.16502 0.129464,-0.24059 -0.0098,-0.2372 z" /></g></svg>
