<?xml version="1.0" encoding="UTF-8" standalone="no"?>
<!-- Created with Inkscape (http://www.inkscape.org/) -->

<svg
   width="116.30459mm"
   height="122.23689mm"
   viewBox="0 0 116.30459 122.23689"
   version="1.1"
   id="svg1"
   xml:space="preserve"
   xmlns="http://www.w3.org/2000/svg"
   xmlns:svg="http://www.w3.org/2000/svg"><defs
     id="defs1" /><g
     id="layer1"
     transform="translate(-45.225713,-88.175611)"><path
       style="display:inline;fill:#000000"
       d="m 91.956599,210.4125 c -1.30882,-0.61462 -3.421293,-0.27725 -4.507394,-1.14886 -0.648432,-0.20175 -3.52023,-0.9955 -2.799535,-0.43861 -1.51358,-0.43754 -0.925527,-0.14547 -2.463495,-0.72926 -1.269582,-0.10151 -3.404772,-0.37272 -5.215648,-0.68465 0.206432,-0.83717 -4.475539,0.31829 -4.060281,-1.64701 -1.136985,1.40478 -0.638606,-2.43767 -1.468157,-3.74842 -0.389351,-1.86088 -1.10707,-2.81343 -0.980317,-4.3109 -0.628476,-1.33096 -1.207622,-4.69635 -1.795063,-4.41153 0.543458,-1.70306 -0.719823,-3.02471 -0.921732,-5.00816 -0.577706,-2.23013 -1.155413,-4.46026 -1.73312,-6.69039 -1.007291,-0.0555 0.05276,-1.23309 -0.76408,-1.7069 0.07421,-0.54881 -1.114022,-2.52347 -1.517988,-4.62307 -1.07992,-3.61907 -2.15984,-7.23814 -3.239759,-10.85721 0.451101,-0.56474 -1.253943,-2.61519 -1.383759,-4.48998 -0.263486,-2.48207 -0.547666,-1.78936 -1.32887,-4.21747 -1.942812,-6.43494 -4.272519,-12.90871 -5.411417,-19.41675 -1.79795,-3.05854 -1.68175,-6.89339 -2.979741,-10.19841 -0.568945,-1.60533 -1.179332,-4.22845 -1.698219,-4.65857 -0.364255,-0.97239 -0.119145,-2.72305 -0.961714,-2.49338 -0.06918,-0.8232 0.457004,-2.40505 -0.460957,-1.863 0.63915,-2.01119 -0.585451,-0.20714 -1.03964,-2.92436 1.456656,0.23021 3.797998,-1.37879 4.346181,-0.79813 -0.198314,-0.10466 2.509002,-0.70474 3.84442,-1.11554 0.155389,-0.75194 3.188296,-0.73998 3.15627,-1.31851 1.270986,-1.73931 1.455631,2.14167 2.38125,0.48016 0.996684,0.50573 1.424878,1.68394 1.860395,0.59402 0.24185,1.77752 2.109508,-0.45096 2.224341,0.29089 0.664811,0.21525 0.96992,-0.47292 1.865889,0.92797 0.154082,-0.96864 0.425007,-0.52969 0.926299,0.39839 1.280673,-2.67307 1.343331,-0.89291 -0.324474,0.62097 -1.900644,1.75024 1.572453,1.43385 2.371432,0.23579 4.768838,-2.34935 10.105012,-3.39104 15.095347,-5.2382 18.076377,-6.09805 36.308567,-11.711275 54.429727,-17.670696 2.15746,-0.953803 4.32726,-1.88586 6.17991,-3.377115 0.68842,1.766736 1.99877,4.008546 0.005,5.430405 -0.42786,1.177969 -2.26149,0.464083 -3.19761,1.648929 -1.53873,0.699719 -0.30127,-0.197891 -2.45777,0.962414 -1.4053,0.407751 -0.55296,-0.186606 -2.40315,0.750593 -1.45537,0.608724 -2.0672,0.09879 -3.30453,0.891788 -1.21461,0.509851 -3.32552,0.228181 -3.47007,0.962758 -1.40798,-0.415011 -1.507,0.597145 -3.45579,0.551402 -0.79142,0.596171 -3.72595,0.692862 -3.28254,0.308452 -0.97017,0.49409 -0.75631,0.65052 -2.34572,0.65846 -0.57517,0.40056 -0.27087,0.13886 -1.81245,0.62843 0.10766,-0.58978 -3.01938,0.52291 -3.00804,0.53946 -0.53167,-0.91265 -2.27841,0.5618 -2.12614,0.59333 -1.55689,-0.61247 -3.3388,0.46693 -4.50536,1.44063 -0.90782,-1.18978 -0.9827,1.02001 -2.92266,0.6196 -1.15334,0.90112 -2.2782,0.92638 -3.7437,1.39208 -0.88872,0.73688 -1.50658,0.44471 -3.40483,1.07179 -1.459938,1.58879 -1.378534,-0.49299 -2.121045,1.48222 -1.382302,-1.04439 -2.057227,0.3867 -3.980539,1.05322 -0.786155,-0.79893 -1.337604,0.98388 -2.746649,0.36135 0.520899,1.77943 -0.934719,-0.4538 -1.265012,1.05889 -0.773462,0.3923 -0.589453,0.29476 -2.422557,0.81713 -1.408085,0.76167 -1.288161,0.67666 -2.844271,1.24999 -1.500895,0.0911 -1.345557,1.25382 -3.147359,1.1125 -0.709918,0.31718 -1.748293,0.85703 -1.844007,1.10527 -1.213809,-0.32329 -2.714039,1.60096 -4.004539,1.0583 -0.977192,1.53564 -2.528036,0.76649 -3.166642,1.81362 -2.15894,0.17427 -1.701049,0.81297 -2.878374,1.16159 -1.864995,0.14862 -0.297705,0.74062 -0.4653,1.70352 -0.07804,0.92511 0.662328,1.54291 0.785121,2.62854 0.312285,0.93994 0.738038,2.18964 1.161707,2.57883 0.630028,1.52523 0.47558,1.0171 0.645129,0.68163 0.962307,0.7962 -0.01221,2.02401 0.701555,1.4397 2.17532,-0.55698 -1.219891,0.65741 0.520492,1.42933 -0.497382,-2.33481 1.152047,3.21819 1.034229,2.52916 -1.335333,-2.29242 1.456294,-2.15424 -0.23424,-2.17675 1.268976,0.801 -0.05091,1.67227 1.0387,1.17546 1.159851,0.83912 -1.80124,1.44594 0.0021,1.19274 0.621324,1.54813 -0.787312,0.58955 0.703823,1.68828 -1.876656,1.52707 1.762198,-0.2295 0.590869,1.32247 1.563771,-0.68071 -1.683648,0.38928 -0.100264,1.54334 -0.243387,1.14813 1.710572,1.12397 1.295268,3.00006 0.452698,1.06704 1.040243,2.47996 1.287951,4.62292 0.877226,2.97313 2.107042,5.91274 4.259468,8.19854 -0.316088,1.08658 1.036741,0.71042 2.039723,2.3737 2.262387,2.60122 1.265529,1.6071 -0.5426,-0.28195 -1.37543,2.09251 1.025397,0.35431 -0.2977,1.70812 -0.09626,0.80892 0.367201,1.10149 1.070515,-0.3495 -0.504067,2.83499 0.458009,-0.71207 0.470068,1.29603 -0.978565,0.96018 -2.38642,0.26507 -0.872852,1.00852 0.384018,-0.47001 2.419625,-1.3219 1.301194,-0.48825 0.275097,1.06795 -2.616558,1.21607 -0.295758,1.12891 -0.192866,0.80029 -0.168003,1.95478 0.129085,1.78751 0.717358,-0.56827 -0.70905,2.65773 -0.761706,3.74856 -0.153101,2.75885 -0.112527,5.47973 1.345426,7.92289 1.801562,4.7269 4.246046,9.25145 5.973461,13.96404 0.938684,1.61127 -0.665764,1.69247 -0.06889,1.95615 0.09642,0.53194 1.620956,-0.0564 1.035467,1.18119 -0.147191,0.29634 -1.562358,0.60074 -0.617856,1.24639 2.032591,0.87977 -0.131928,3.84009 -0.0026,3.46813 1.483048,-0.45329 0.207626,2.07006 0.615668,2.59408 0.38771,2.09809 -1.173446,0.1125 -0.312767,1.78376 1.846687,-1.82631 -0.159897,1.15712 0.254241,1.67085 1.906143,-0.96368 -0.203297,1.18569 1.129996,1.64979 -0.310342,1.48888 0.150845,-0.0436 0.786926,0.36336 0.04989,-2.17227 1.437157,0.0209 0.219244,-0.29607 -0.240936,2.48666 1.086975,-1.09937 2.369698,0.10057 0.989587,-1.29764 0.807145,0.1083 3.030201,-1.34772 1.779082,-0.87024 2.472912,-1.32891 3.906432,-1.92403 1.543,-0.79644 2.97797,-1.84972 4.64755,-2.29014 3.05549,-1.19871 5.64683,-2.91157 8.73125,-4.32239 1.94642,-1.13788 4.03516,-2.04016 5.78409,-3.49798 -0.94101,1.50842 2.08429,-1.24574 3.03545,-1.21582 1.25217,-0.82086 3.87002,-1.48961 4.01275,-2.15092 1.07689,-0.15944 2.49772,-0.72339 3.32608,-1.28717 0.98456,-0.67912 3.27992,-1.14756 3.96557,-1.85649 -0.24568,-0.32908 2.187,-1.06618 2.02409,-0.73869 1.50001,-0.94563 2.59703,-1.14248 4.20982,-2.18331 0.80243,-0.27448 2.93297,-0.72989 2.33943,-1.27701 2.35705,-0.38936 1.37924,-1.09409 3.22069,-1.38024 0.70897,-0.0595 1.57859,-1.31483 2.87473,-1.25119 1.44107,-1.00933 2.93558,-1.24343 3.86749,-2.07972 1.62206,-0.89009 3.5474,-1.29449 5.11609,-0.21276 3.73348,0.39528 -0.42208,1.68576 -1.82662,2.66407 -21.90165,11.68459 -43.96637,23.06474 -65.858515,34.76921 l -0.338039,4e-5 z m -18.715241,-3.96875 c 0.255758,-0.32498 0.113293,-0.20684 0,0 z m 19.446874,-3.175 c 0.573585,-0.30291 -0.547512,-0.33005 0,0 z m 0.529166,-0.26459 c 0.573587,-0.3029 -0.547509,-0.33003 0,0 z M 94.93719,202.475 c 0.178588,-0.75692 0.08884,0.003 0,0 z m -4.101042,-5.29167 c 0.573587,-0.3029 -0.547509,-0.33003 0,0 z m -0.264583,-0.79375 c 0.573588,-0.3029 -0.547512,-0.33003 0,0 z m 0.520752,-0.94162 c 1.530912,-2.73211 -1.527156,1.56274 0,0 z m -0.476655,-0.46949 c 0.272217,-1.34356 -0.668778,0.5192 0,0 z m -21.210763,-0.97014 c 0.573587,-0.3029 -0.547509,-0.33003 0,0 z m 21.055443,-0.40989 c -0.125627,-1.19186 2.02076,-0.47947 -0.152756,-1.01304 -0.630267,0.20272 0.352205,0.66882 0.152756,1.01304 z m 0.0802,-1.78695 c 1.846629,-0.0454 -0.434245,-1.06313 -0.165732,0.21114 z m -1.02731,-0.71358 c 0.573584,-0.3029 -0.547511,-0.33003 0,0 z m 0.79375,0 c 0.573584,-0.3029 -0.547511,-0.33003 0,0 z m -0.529167,-0.52916 c 0.573588,-0.30291 -0.547513,-0.33005 0,0 z m 0.165123,-0.7232 c 1.648094,-2.17266 -1.510868,1.20772 0,0 z m 0.89321,-0.8643 c 0.573587,-0.30291 -0.54751,-0.33005 0,0 z m 32.014582,0 c 0.57358,-0.30291 -0.54751,-0.33005 0,0 z m 4.49792,-2.11667 c 0.57359,-0.30292 -0.54753,-0.33001 0,0 z M 61.202817,165.69792 c 0.57359,-0.30292 -0.547516,-0.33005 0,0 z m -0.264584,-0.79375 c 0.573593,-0.30291 -0.547514,-0.33005 0,0 z m 22.489582,-3.43959 c 0.573587,-0.3029 -0.547509,-0.33003 0,0 z m -1.322916,-0.52916 c 0.57359,-0.30292 -0.547516,-0.33005 0,0 z m 1.058333,-0.52917 c 0.573588,-0.3029 -0.547512,-0.33003 0,0 z m -1.058333,-0.52917 c 0.573584,-0.3029 -0.547511,-0.33003 0,0 z m 0.79375,0 c 0.573584,-0.3029 -0.547511,-0.33003 0,0 z m -0.778135,-1.32291 c 0.455036,-0.55618 -1.171728,-0.71347 0,0 z m -0.544782,-2.64584 c 0.573588,-0.3029 -0.547512,-0.33003 0,0 z M 81.824701,154.85 c 1.151245,-0.75348 -0.745861,-1.1651 0,0 z m -0.778136,-0.52917 c 0.573587,-0.3029 -0.547509,-0.33003 0,0 z M 57.49865,153.52708 c 0.573588,-0.3029 -0.547512,-0.33003 0,0 z m -0.264583,-0.79375 c 0.573584,-0.3029 -0.547511,-0.33003 0,0 z m -0.264584,-0.79375 c 0.573587,-0.3029 -0.547509,-0.33003 0,0 z m -0.220486,-0.88194 c 0.272217,-1.34356 -0.668778,0.5192 0,0 z m -0.264583,-0.79375 c 0.272217,-1.34356 -0.668778,0.5192 0,0 z m -0.264583,-0.79375 c 0.272217,-1.34356 -0.668778,0.5192 0,0 z m -0.837847,-2.82222 c 0.573585,-0.30291 -0.547512,-0.33005 0,0 z m -0.79375,-2.64584 c 0.573584,-0.3029 -0.547511,-0.33003 0,0 z m 21.166665,-2.11666 c 0.573588,-0.30291 -0.547513,-0.33005 0,0 z M 53.5299,140.29792 c 0.573587,-0.30291 -0.54751,-0.33005 0,0 z m 21.431249,-0.79375 c 0.573588,-0.30291 -0.547513,-0.33005 0,0 z m -21.960415,-0.79375 c 0.573585,-0.30291 -0.547512,-0.33005 0,0 z m 21.166665,-0.79375 c 0.573587,-0.30291 -0.54751,-0.33005 0,0 z m -0.79375,-2.64584 c 0.573587,-0.3029 -0.547509,-0.33003 0,0 z m -1.058333,-1.05833 c 0.573588,-0.3029 -0.547512,-0.33003 0,0 z m 0,-0.52917 c 0.573588,-0.3029 -0.547512,-0.33003 0,0 z m -0.264583,-0.52916 c 0.573585,-0.30291 -0.547512,-0.33005 0,0 z M 71.801764,132.625 c 0.455032,-0.55618 -1.171724,-0.71346 0,0 z m -1.073948,-0.79375 c 0.573588,-0.3029 -0.547512,-0.33003 0,0 z m 0.79375,0 c 0.573588,-0.3029 -0.547512,-0.33003 0,0 z m -0.364043,-0.72319 c 1.648517,-2.17291 -1.511281,1.20791 0,0 z m -0.958874,-0.86431 c 0.573587,-0.3029 -0.547509,-0.33003 0,0 z m 0.809365,0 c 0.455033,-0.55618 -1.171725,-0.71346 0,0 z m -0.809365,-1.32292 c 0.573587,-0.3029 -0.547509,-0.33003 0,0 z m -0.529166,-0.79375 c 0.573584,-0.3029 -0.547511,-0.33003 0,0 z m -2.38125,-9.26041 c 0.573588,-0.30291 -0.547513,-0.33005 0,0 z m -4.453819,-4.32153 c 0.272217,-1.34356 -0.668778,0.5192 0,0 z m 1.543402,-0.70555 c 0.573593,-0.30291 -0.547514,-0.33005 0,0 z m 0.79375,0 c 0.573593,-0.30291 -0.547514,-0.33005 0,0 z M 63.0549,113.575 c 0.573584,-0.3029 -0.547511,-0.33003 0,0 z m 0.529166,-0.52916 c 0.573593,-0.30291 -0.547514,-0.33005 0,0 z m -4.497916,-0.26459 c 0.573588,-0.3029 -0.547512,-0.33003 0,0 z m 0.529167,-0.26458 c 0.573584,-0.3029 -0.547511,-0.33003 0,0 z M 57.49865,111.9875 c 0.573588,-0.3029 -0.547512,-0.33003 0,0 z m -0.396875,-0.52916 c 0.255768,-0.32498 0.11328,-0.20685 0,0 z m 0.742652,-0.1253 c -0.377414,-1.63943 -0.806083,-0.30309 0,0 z m 52.306303,-9.13512 c 0.57358,-0.3029 -0.5475,-0.33003 0,0 z m 10.05417,-1.85208 c 0.57359,-0.30291 -0.54751,-0.33005 0,0 z m 3.43958,-0.793754 c 0.57358,-0.302905 -0.54751,-0.330037 0,0 z m 15.08125,-3.96875 c 0.57358,-0.302905 -0.54751,-0.330037 0,0 z M 86.338232,209.35416 c -0.573588,-0.3029 0.547512,-0.33003 0,0 z m 9.260416,-7.67291 c -0.573588,-0.30291 0.547513,-0.33005 0,0 z m -2.645833,-0.52917 c -0.573588,-0.3029 0.547512,-0.33003 0,0 z m -0.529167,-0.26458 c -0.573585,-0.30291 0.547512,-0.33005 0,0 z m 1.852083,0 c -0.573585,-0.30291 0.547512,-0.33005 0,0 z m 2.645834,0 c -0.573587,-0.30291 0.54751,-0.33005 0,0 z m -3.704167,-0.26459 c -0.573584,-0.3029 0.547511,-0.33003 0,0 z m 3.175,0 c -0.573588,-0.3029 0.547512,-0.33003 0,0 z m -2.677063,-0.26458 c -0.261135,-0.75357 1.031277,-0.52398 0,0 z m 0.82498,0 c -0.573587,-0.3029 0.547509,-0.33003 0,0 z m 4.233333,0 c -0.573588,-0.3029 0.547512,-0.33003 0,0 z m -2.910417,-0.26458 c -0.573585,-0.30291 0.547512,-0.33005 0,0 z m 0.79375,0 c -0.573585,-0.30291 0.547512,-0.33005 0,0 z m 3.175,0 c -0.573585,-0.30291 0.547509,-0.33005 0,0 z m -6.614583,-0.26459 c -0.573584,-0.3029 0.547511,-0.33003 0,0 z m -0.735908,-0.26863 c -1.661137,-0.53972 0.12945,-1.23391 0,0 z M 92.921585,199.3 c -0.261145,-0.75356 1.031282,-0.524 0,0 z m 6.116646,0 c -0.573585,-0.30291 0.547512,-0.33005 0,0 z m -6.349999,-0.52917 c -0.573587,-0.3029 0.547509,-0.33003 0,0 z m 9.260418,-0.26458 c -0.57358,-0.30291 0.54751,-0.33005 0,0 z m -8.731252,-0.26459 c -0.573584,-0.3029 0.547511,-0.33003 0,0 z m -0.529166,-0.26458 c -0.573587,-0.3029 0.547509,-0.33003 0,0 z m 1.587499,-0.26458 c -0.573585,-0.30291 0.547512,-0.33005 0,0 z m 3.96875,0 c -0.573585,-0.30291 0.547512,-0.33005 0,0 z m -4.497916,-0.26459 c -0.573587,-0.3029 0.547509,-0.33003 0,0 z m 11.377085,0 c -0.57358,-0.3029 0.5475,-0.33003 0,0 z m -12.964585,-0.26458 c -0.573588,-0.3029 0.547512,-0.33003 0,0 z m 7.672916,0 c -0.573584,-0.3029 0.547509,-0.33003 0,0 z m -6.879166,-0.26458 c -0.573588,-0.30291 0.547513,-0.33005 0,0 z m -0.941657,-0.52917 c 0.158755,-1.02078 -0.05301,-0.0479 0,0 z m 8.595952,0 c 7.8e-4,-0.95778 1.18879,-1.48903 0.13229,0 z m 1.07695,-0.26458 c -0.57359,-0.30293 0.54753,-0.33003 0,0 z m -8.995828,-0.52917 c -0.573587,-0.3029 0.547509,-0.33003 0,0 z m -0.560397,-0.26458 c -0.261145,-0.75356 1.031282,-0.524 0,0 z m 6.330653,-0.31628 c -2.093598,0.47808 -2.248051,-2.61339 -3.227261,-3.89017 -3.156918,-6.69191 -6.357902,-13.40819 -8.86659,-20.36631 -1.61189,-3.97904 -1.071379,-8.49714 1.132584,-12.14155 1.728784,-1.99961 -1.682197,-2.76705 -2.510355,-4.33078 -3.346374,-3.65915 -6.081796,-8.0266 -6.567381,-13.0622 -0.703273,-4.77122 -2.407531,-9.65034 -1.268113,-14.45179 0.852243,-2.98939 3.281793,-5.2717 6.104535,-6.44951 3.71556,-1.5822 7.946505,-0.9177 11.873963,-0.9159 2.382979,1.49595 2.170705,-2.10337 3.064824,-3.5305 2.326226,-4.18794 6.030976,-7.49181 10.291036,-9.60178 3.04351,-1.39259 6.45534,-1.59871 9.7315,-1.32977 2.62724,0.43683 5.18924,1.45253 7.10632,3.35045 -2.12089,2.91871 -5.20713,5.79149 -4.52323,9.74579 0.70648,1.27095 0.91266,3.39937 1.74352,2.59003 -0.87183,1.07643 1.9117,1.84824 3.22543,1.84647 2.60398,-0.0135 4.30391,-2.03664 5.06643,-4.34182 0.70213,-1.6224 0.92134,-3.59428 0.0682,-5.21749 0.89632,-0.23343 -0.9084,-1.63166 -1.66022,-3.17655 -0.0336,-0.36979 -3.81889,-1.07627 -3.25574,-1.78419 1.28313,-2.59582 3.33557,-4.93356 5.7682,-6.44763 3.21124,-2.104392 7.46422,-2.308613 10.79784,-0.36224 1.6739,3.40975 2.23064,7.29671 3.07366,10.98493 0.66994,5.54745 2.13901,11.03965 1.96238,16.65228 2.74674,5.13735 5.40847,10.37841 6.44,16.16903 0.65429,5.15281 0.37473,10.43391 1.63063,15.52665 0.11817,1.40946 1.26497,4.31641 -0.69933,4.54127 -1.86048,0.87165 -3.17146,-2.22035 -3.66482,-2.23366 -0.32122,3.99712 -1.54661,8.77057 -5.80624,10.16869 -4.29112,1.78656 -9.14429,3.63322 -13.8046,2.44252 -1.66567,-0.26018 -3.72056,-2.09935 -5.14252,-1.05994 -3.56919,3.56235 -5.2086,8.71567 -9.3969,11.71906 -3.48835,2.65044 -7.81417,4.35708 -12.21266,4.23909 -2.29639,-1.4486 -3.41206,-0.32188 -4.08201,2.03364 -0.76753,0.97986 -0.71328,3.07691 -2.393112,2.68388 z m 3.133552,-10.41765 c 3.04599,-0.69048 4.40712,-4.20673 4.76669,-6.98183 0.32164,-2.74547 -1.55155,-5.22587 -3.29623,-7.17999 -1.69417,-0.94522 -3.954644,-1.02019 -5.700897,-0.53448 -2.57896,1.86796 -3.59445,5.53728 -2.651411,8.48802 0.891819,2.53514 2.947811,4.41553 5.055488,5.90441 0.60776,0.0978 1.20539,0.5032 1.82636,0.30387 z m -1.760059,-3.02441 c -0.573584,-0.3029 0.547509,-0.33003 0,0 z m -2.910416,-1.05833 c -0.573587,-0.3029 0.547509,-0.33003 0,0 z m 3.439585,-0.52916 c -0.573586,-0.30291 0.54751,-0.33005 0,0 z m 1.85208,-0.52917 c -0.57358,-0.3029 0.5475,-0.33003 0,0 z m -3.174999,-0.79375 c -0.573584,-0.3029 0.547511,-0.33003 0,0 z m -0.79375,-0.26458 c -0.57359,-0.30292 0.547516,-0.33005 0,0 z m 2.116669,-0.52917 c -0.57358,-0.3029 0.5475,-0.33003 0,0 z m -2.381252,-0.52917 c -0.573588,-0.3029 0.547512,-0.33003 0,0 z m 1.322917,-1.32291 c -0.573593,-0.30291 0.547514,-0.33005 0,0 z m 2.160765,-0.35278 c -0.64652,0.30902 0.30423,-1.21036 0,0 z m -2.160765,-0.17639 c -0.573587,-0.3029 0.547509,-0.33003 0,0 z m 1.322915,-0.26458 c -0.57359,-0.30291 0.54751,-0.33005 0,0 z m 1.5875,0 c -0.57359,-0.30291 0.54751,-0.33005 0,0 z m -4.233332,-0.26459 c -0.573588,-0.3029 0.547512,-0.33003 0,0 z m 3.672932,-0.79375 c -0.26113,-0.75357 1.03129,-0.52396 0,0 z M 99.038231,173.9 c -0.573584,-0.3029 0.547511,-0.33003 0,0 z m 1.338529,0 c -1.427218,-1.06921 0.42751,-0.47301 0,0 z m -2.132279,-0.26458 c -0.57359,-0.30292 0.547516,-0.33005 0,0 z m 1.322917,0 c -0.573593,-0.30291 0.547512,-0.33005 0,0 z m 2.910412,-0.26459 c -0.57359,-0.30292 0.54753,-0.33001 0,0 z m -2.38125,-0.26458 c -0.573576,-0.30292 0.54753,-0.33001 0,0 z m 0.79375,0 c -0.57359,-0.30292 0.54753,-0.33001 0,0 z m -1.322912,-0.26458 c -0.573593,-0.30291 0.547512,-0.33005 0,0 z m 2.350022,0 c -0.26114,-0.75356 1.03127,-0.52399 0,0 z m -1.55627,-0.26459 c -1.429804,-0.64812 1.42514,-0.66336 0,0 z m 1.03002,0 c -0.51911,-0.75508 1.0996,-1.25989 0,0 z m -1.29461,-0.79375 c -0.573576,-0.30292 0.54753,-0.33001 0,0 z m 12.96459,6.46721 c 3.76742,-0.36537 6.87026,-3.62003 7.80521,-7.15435 -0.0716,-2.48517 -1.77495,-4.70832 -3.7057,-6.19202 -2.69597,-0.0933 -5.90524,-0.29501 -7.49963,2.3596 -2.09844,1.46741 -2.54374,4.28153 -2.15524,6.63847 0.69189,2.49502 2.7114,4.98412 5.55536,4.3483 z m -5.29167,-5.93804 c -0.57358,-0.3029 0.5475,-0.33003 0,0 z m 19.57917,-0.98266 c 3.11035,-0.32954 4.4316,-3.80211 4.668,-6.48145 0.18572,-2.66487 -1.40538,-5.35681 -3.36638,-7.03849 -1.83177,-1.22693 -2.99305,-0.53741 -3.81215,-0.58066 -3.04616,2.74996 -4.71387,7.68097 -2.62143,11.511 1.44858,1.358 2.91995,3.11437 5.13196,2.5896 z m -29.555046,-4.06208 c 3.118446,-0.73562 4.748516,-4.20002 5.337876,-7.04866 -0.28326,-2.61267 -1.79734,-5.42066 -4.233524,-6.51435 -3.470948,-1.02342 -6.263496,2.1971 -7.242278,5.2104 -0.355835,2.04306 -0.756344,4.58816 0.614513,6.38589 0.05343,-1.58759 1.103571,2.66296 3.062458,1.71678 0.833693,0.20562 1.608986,0.64038 2.460955,0.24994 z m -4.311622,-1.04068 c -0.573587,-0.3029 0.547509,-0.33003 0,0 z m -0.237023,-8.80291 c -0.174744,-0.88841 -0.116354,-0.57561 0,0 z m 46.142231,8.60727 c 2.92662,-0.70922 4.69864,-3.86269 5.26062,-6.53755 -0.36222,-2.09981 -1.94047,-3.62446 -2.99903,-5.39492 -1.16995,-0.27086 -2.83935,-2.13186 -4.65746,-1.62045 -2.51435,0.69696 -3.79853,3.11882 -3.84282,5.61298 -0.20522,1.97 0.36659,4.00332 1.20052,5.79334 0.8142,-0.17556 2.29573,2.47967 4.18233,2.23117 0.28254,0.1378 0.57107,-0.0871 0.85584,-0.0846 z m -29.36875,-3.59759 c 2.91605,0.0976 5.3838,-1.73141 6.8418,-4.14451 0.40428,-2.80349 -1.24156,-5.87894 -3.75581,-7.16569 -2.7785,-1.13918 -6.52759,-0.84439 -7.97939,2.14144 -1.62561,1.6963 -0.85498,4.43908 -0.48566,6.41599 1.15649,1.75093 3.19867,3.2399 5.37906,2.75277 z m 40.34896,-2.82135 c 0.57359,-0.30292 -0.54753,-0.33001 0,0 z m 0.79375,0 c 0.57359,-0.30292 -0.54753,-0.33001 0,0 z m -1.32292,-0.26458 c 0.57359,-0.30291 -0.54751,-0.33005 0,0 z m 1.5875,-0.26459 c 0.57358,-0.3029 -0.5475,-0.33003 0,0 z m -1.85208,-0.26458 c 0.57359,-0.30292 -0.54753,-0.33001 0,0 z m 2.11666,-0.26458 c 0.57359,-0.30291 -0.54751,-0.33005 0,0 z m 0.51465,-1.05834 c 0.41486,-1.88774 1.72812,-1.94144 0.27842,-3.99501 1.46886,-1.21736 0.47375,-2.46863 -0.17377,-0.44603 0.47203,-2.41457 -0.84852,-2.38466 -1.25594,-3.47095 -1.32597,-1.48445 -2.76472,-0.6287 -1.42148,-0.60017 1.13269,1.70169 2.72438,3.44527 2.45426,5.63294 1.33858,-0.45249 -0.87295,3.47636 -0.10209,3.25011 l 0.17281,-0.29054 z m 0.80827,-2.38125 c -0.57358,-0.3029 0.5475,-0.33003 0,0 z m -1.01424,-3.79236 c -0.64652,0.30903 0.30422,-1.21035 0,0 z m -1.32291,-1.5875 c -0.64651,0.30905 0.3042,-1.21036 0,0 z m -29.37066,6.07198 c 4.04745,-0.37384 7.39038,-4.31264 6.96927,-8.39681 -0.54276,-1.5921 -1.2109,-3.78363 -2.7606,-4.66921 0.63835,1.03102 -2.57936,-0.67305 -3.88654,0.0693 -3.02276,0.39675 -4.38325,3.58654 -5.25911,6.09911 -0.50752,2.87817 1.16415,5.86236 3.83646,6.9901 0.36684,-0.0308 0.73368,-0.0617 1.10052,-0.0925 z m 23.24114,-0.69212 c 0.57358,-0.3029 -0.5475,-0.33003 0,0 z m -0.60379,-0.481 c 0.73428,-2.01353 -0.72226,-0.0421 -0.0175,0.0175 z m 3.77879,0.21642 c 0.57358,-0.3029 -0.5475,-0.33003 0,0 z m -3.175,-0.26458 c 0.57359,-0.30291 -0.54751,-0.33005 0,0 z m 6.92327,-0.35278 c 0.27221,-1.34357 -0.66878,0.51921 0,0 z m -6.59912,-0.17639 c 0.27003,-1.46682 2.33719,-3.541 2.0571,-4.84734 1.054,0.55772 3.07722,-1.81138 0.45985,-0.55286 -0.34548,0.94763 -2.30302,0.46048 -1.90867,1.90151 -0.29726,-0.95194 -1.83848,2.91024 -0.79988,0.92721 1.20873,0.0993 -1.33405,1.20455 -0.0166,2.57138 z m -0.0596,-0.52917 c -0.57361,-0.30289 0.54751,-0.33004 0,0 z m 1.05833,-2.91041 c -0.57359,-0.30291 0.54751,-0.33005 0,0 z m 7.18785,3.0868 c 0.2722,-1.34356 -0.66877,0.51921 0,0 z m -2.95452,-0.17639 c 0.57358,-0.3029 -0.5475,-0.33003 0,0 z m -0.52916,-0.26458 c 0.57359,-0.30292 -0.54753,-0.33001 0,0 z m -3.175,-0.26458 c 0.57359,-0.30293 -0.54754,-0.33003 0,0 z m 2.64583,0 c 0.57359,-0.30291 -0.54751,-0.33005 0,0 z m 2.38125,0 c 0.57359,-0.30291 -0.54751,-0.33005 0,0 z m -1.05833,-0.26459 c 0.57359,-0.30292 -0.54753,-0.33001 0,0 z m -2.38125,-0.79375 c 0.57359,-0.30292 -0.54753,-0.33001 0,0 z m -0.74966,-0.88194 c 0.27222,-1.34356 -0.66878,0.5192 0,0 z m 0.48507,-0.44097 c 0.57359,-0.30291 -0.54751,-0.33005 0,0 z m 2.11667,0 c 0.57359,-0.30291 -0.54751,-0.33005 0,0 z m 2.64583,0 c 0.57359,-0.30291 -0.54751,-0.33005 0,0 z m -47.13425,-1.09675 c 2.27748,-0.33872 4.33765,-2.4594 5.03887,-4.62515 0.6725,-1.35591 0.0509,-4.07988 -0.036,-4.5076 -0.01,-0.44347 -0.8924,-2.96568 -2.26807,-3.6106 0.90249,1.7171 -2.07509,-2.10946 -3.02426,-2.29174 -2.23157,-0.8508 -3.79926,1.80571 -4.7337,3.5078 -1.610473,2.71973 -1.396578,6.03935 -0.29546,8.90976 0.76021,-0.37346 1.31089,2.40182 2.76197,2.42966 0.82734,0.43292 1.66804,0.42989 2.55667,0.18787 z m 4.00717,-10.28034 c -0.57358,-0.3029 0.5475,-0.33003 0,0 z m -0.26458,-0.52916 c -0.57358,-0.30291 0.54751,-0.33005 0,0 z m -0.24897,-0.52917 c -1.42723,-1.06919 0.4275,-0.47301 0,0 z m 26.7073,11.53202 c 2.23532,0.18697 4.13031,-2.04888 4.47902,-4.02471 0.52238,-3.34302 -2.51361,-6.33478 -5.73334,-6.63055 -2.80304,-0.48294 -5.66148,1.32588 -6.44562,4.09994 -0.45752,1.86636 1.73953,3.2106 2.71568,4.60813 1.35717,1.09521 3.14698,2.49762 4.98426,1.94719 z m 12.96458,-0.41952 c 0.57358,-0.3029 -0.5475,-0.33003 0,0 z m -51.329162,-2.91042 c 0.573588,-0.3029 -0.547512,-0.33003 0,0 z m -8.995833,-0.26458 c 0.573588,-0.3029 -0.547512,-0.33003 0,0 z m 9.046787,-0.26863 c -0.299047,-2.1289 -0.915629,-1.86128 0.156184,-3.18292 -1.127593,-0.34316 -1.317845,-0.53744 -0.90006,2.05952 0.03269,0.59023 0.16596,0.91213 0.743876,1.1234 z M 96.921565,145.325 c -0.573587,-0.3029 0.547509,-0.33003 0,0 z m -9.313486,-0.8599 c 1.282299,-1.20426 -0.460731,-1.41385 0.979111,-2.3151 -0.474189,-1.75507 -1.751832,3.24532 -1.142391,2.72832 l 0.124225,-0.31438 z m 0.317653,0.59532 c 0.573585,-0.30291 -0.547512,-0.33005 0,0 z m 0.529166,0 c 0.573587,-0.30291 -0.54751,-0.33005 0,0 z m -0.02052,-0.52917 c 1.074587,-0.70953 1.02538,-3.0878 2.355554,-4.00531 -0.159104,-0.53685 1.74149,-1.93902 -0.504451,-0.75302 -0.505203,1.4247 -1.521905,1.01307 -1.564846,3.10078 -0.231753,-0.90112 -0.799854,1.99482 -0.286257,1.65755 z m 0.02052,-0.26458 c -0.573585,-0.30291 0.547512,-0.33005 0,0 z m 8.995833,0.26458 c 0.573587,-0.3029 -0.547509,-0.33003 0,0 z M 90.571565,142.15 c 0.573588,-0.3029 -0.547512,-0.33003 0,0 z m 5.301116,-0.004 c 2.466076,-0.79806 -0.336101,-1.12883 0,0 z m 44.705129,-0.26053 c 0.57358,-0.30291 -0.54751,-0.33005 0,0 z m 7.9375,0 c 0.57358,-0.30291 -0.54751,-0.33005 0,0 z m -52.8156,-0.26459 c 2.324799,-0.98691 -2.760747,-3.05965 -0.894812,-1.37845 0.61186,-0.14102 0.0797,0.51126 0.894812,1.37845 z m 0.03123,-0.79375 c -0.255627,-0.32505 -0.11345,-0.20675 0,0 z m -6.746875,0.26459 c 0.573588,-0.30291 -0.547513,-0.33005 0,0 z m 2.645833,-0.26459 c 0.573587,-0.3029 -0.547509,-0.33003 0,0 z m 0.79375,0 c 0.573587,-0.3029 -0.547509,-0.33003 0,0 z m 48.154162,0 c 0.57358,-0.3029 -0.5475,-0.33003 0,0 z m -0.36691,-0.46033 c 0.0815,-0.8455 -0.14454,-0.50854 0.66676,-2.3213 1.14222,-0.33958 -1.58305,-2.06015 1.02307,-1.18395 -1.42552,-0.72206 1.74079,-3.38486 -1.04109,-1.08635 -0.96795,0.49823 -2.56947,5.3412 -0.94737,2.80298 0.1583,0.45197 -0.75503,2.4454 0.29863,1.78862 z m 0.11794,-1.65633 c -1.42723,-1.06921 0.42752,-0.473 0,0 z m -0.1479,-0.79375 c -0.25581,-0.32496 -0.11322,-0.20688 0,0 z m 0.39687,-0.52917 c -0.57358,-0.3029 0.5475,-0.33003 0,0 z m 7.92004,3.175 c 0.41509,-2.36611 -1.35288,-2.57196 -0.0836,0 z m -55.368646,-0.68871 c 0.853704,-1.41525 -0.924366,-0.0526 0,0 z m 55.915276,0.15954 c 0.57358,-0.3029 -0.5475,-0.33003 0,0 z m -8.20208,-0.26458 c 0.57359,-0.30292 -0.54753,-0.33001 0,0 z m -47.095835,-0.26458 c 0.573585,-0.30291 -0.547512,-0.33005 0,0 z m 55.360405,-0.10659 c 0.0426,-1.52049 -1.47095,-4.05834 -2.14548,-2.39931 1.44162,0.0481 -0.44618,0.6044 0.90798,1.18298 0.14958,-1.97946 0.74806,1.12249 1.2375,1.21633 z m -57.095812,-0.158 c 1.103025,-0.60891 -0.741603,-0.59022 0,0 z M 146.66323,138.975 c 0.57358,-0.3029 -0.5475,-0.33003 0,0 z m 0.52917,0 c 0.57359,-0.30292 -0.54753,-0.33001 0,0 z m -33.53079,-0.99721 c 0.5357,-0.89626 1.22851,-2.65666 2.02652,-4.42675 1.45066,-1.28616 1.36115,-1.9911 1.80433,-1.93022 0.25624,0.9286 2.49227,-0.90486 2.75014,0.87477 0.94604,-0.22761 0.61026,0.73595 1.1428,1.24777 -0.0333,-1.53277 -1.17209,-2.2933 -2.47194,-2.81347 -1.26266,-0.75394 -2.66612,0.57396 -3.76281,1.17717 -0.9172,1.46435 -2.53213,2.99207 -1.63593,4.81759 -1.28604,-1.44711 0.45748,3.50768 0.14689,1.05314 z m 0.45787,-1.11946 c -0.57358,-0.3029 0.5475,-0.33003 0,0 z m -0.39687,-1.19062 c -1.0222,1.62876 0.86925,-2.91779 0,0 z m 0.44097,-1.27882 c -0.64652,0.30902 0.30423,-1.21036 0,0 z m 0.48507,-0.97014 c -0.57358,-0.3029 0.5475,-0.33003 0,0 z m 0.52916,-0.79375 c -0.57359,-0.30292 0.54753,-0.33001 0,0 z m 4.01285,-0.88194 c -0.64652,0.30902 0.30423,-1.21036 0,0 z m 26.9434,6.70277 c 0.57358,-0.3029 -0.5475,-0.33003 0,0 z m -2.91041,-0.52916 c 0.57359,-0.30293 -0.54753,-0.33003 0,0 z m 1.36701,-0.0882 c 0.27222,-1.34354 -0.66878,0.5192 0,0 z m -57.987845,-0.20994 c 4.263026,-0.0755 7.834853,-3.29182 9.115382,-7.24261 -0.238049,-2.58994 -2.166252,-4.93168 -4.314964,-6.3499 -2.536833,-0.052 -5.110131,-0.26079 -7.262984,1.33917 -2.272864,2.17388 -4.986948,5.51246 -3.107046,8.80243 0.917848,2.16202 3.293044,3.31141 5.569612,3.45091 z m 58.208335,-0.49561 c 0.57359,-0.30293 -0.54753,-0.33003 0,0 z m 0.76252,0 c 1.22566,-0.86007 -0.27497,-0.61753 0,0 z m -14.18163,-0.27413 c 2.74382,0.19782 4.31055,-2.59469 5.01171,-4.88479 -0.88969,-1.92204 -2.69607,-3.67451 -1.83378,-5.92062 -2.31759,-2.0643 -6.20568,-2.5113 -8.75789,-0.81334 -2.5782,1.67085 -2.76903,5.13046 -1.26823,7.6026 1.19359,2.43566 4.28472,3.76346 6.84819,4.01615 z m 11.03786,0.01 c 0.57359,-0.30292 -0.54753,-0.33001 0,0 z m 2.39288,-0.35277 c 0.28522,-0.49704 0.19622,-0.16157 0,0 z m 1.97274,-0.0441 c 0.52239,-2.0254 -1.36966,-0.82563 -0.79759,-0.53039 0.82527,-0.25296 0.24962,1.08946 0.79759,0.53039 z m -0.13229,-0.39688 c -0.57396,-0.30284 0.54756,-0.33142 0,0 z m -4.49792,0.26459 c 0.57358,-0.30291 -0.54751,-0.33005 0,0 z m 3.43959,0 c 0.57359,-0.30293 -0.54753,-0.33003 0,0 z m -2.51355,-0.26459 c 0.25592,-0.32488 0.11312,-0.20693 0,0 z m 0.70556,-0.0882 c 0.27222,-1.34356 -0.66878,0.5192 0,0 z m 0.52917,0 c 0.27271,-1.34251 -0.66909,0.51721 0,0 z M 142.2976,135.8 c 0.25574,-0.325 0.11333,-0.20682 0,0 z m -26.32604,-0.26458 c 0.57361,-0.3029 -0.54751,-0.33006 0,0 z m 29.08855,0 c 1.01376,-0.96645 -1.75254,-0.98052 0,0 z m -2.05695,-0.35278 c 0.27222,-1.34356 -0.66878,0.5192 0,0 z m 0.91478,-0.10583 c 1.64866,-2.17298 -1.51143,1.20798 0,0 z m -22.08145,-0.68792 c 0.27221,-1.34356 -0.66875,0.51919 0,0 z m -5.60034,-0.17639 c 0.57358,-0.3029 -0.5475,-0.33003 0,0 z m 0.79375,-0.26458 c 0.57358,-0.30291 -0.54751,-0.33005 0,0 z m -13.62604,-0.41195 c 3.49527,0.41569 5.61172,-2.86479 6.218,-5.89099 -0.41063,-1.25385 0.1185,-3.84633 -0.70922,-2.96413 -0.0892,-1.22148 -0.64279,-2.62456 -2.41872,-3.43293 -0.55252,-0.9246 -3.03476,-1.40433 -4.47203,-0.63092 -2.898496,1.61993 -5.728876,5.05385 -4.409681,8.51835 0.741367,1.96884 2.349034,4.23547 4.481391,4.50064 0.43675,-0.0333 0.87351,-0.0667 1.31026,-0.10002 z m 13.09687,0.14736 c 0.57358,-0.3029 -0.5475,-0.33003 0,0 z m 5.29167,0 c 0.57358,-0.3029 -0.5475,-0.33003 0,0 z m -5.02709,-0.52916 c 0.57361,-0.3029 -0.54751,-0.33006 0,0 z m 2.91042,0 c 0.57358,-0.30291 -0.54751,-0.33005 0,0 z m -1.5875,-0.26459 c 0.57358,-0.3029 -0.5475,-0.33003 0,0 z M 117.0299,132.625 c 0.57358,-0.3029 -0.5475,-0.33003 0,0 z m 23.54791,-0.52917 c 0.57358,-0.3029 -0.5475,-0.33003 0,0 z m -0.0542,-0.39687 c 1.53256,-0.40884 1.61049,-0.15189 3.12369,-1.6074 1.13386,-0.56659 1.51156,-3.56391 1.10851,-2.44686 -1.13923,2.31112 -0.42328,-0.0758 -0.52114,-1.50199 1.0895,-0.82861 -1.01702,-2.01675 -0.30984,-3.1085 -1.00487,0.80371 0.52854,3.19143 -0.0398,4.82829 -0.62638,0.46124 -2.17743,2.12481 -3.41089,3.10829 -1.20546,-1.06175 -1.9837,-1.54475 -2.67517,-1.46417 -0.79132,1.32742 0.72754,-2.09619 -0.51326,-0.7892 -0.24308,-1.13928 -0.87218,-3.07574 0.0341,-4.95587 -1.01494,1.81758 -0.19127,-1.83572 0.48018,-2.10271 1.18401,-2.46927 -1.98703,0.0708 -2.11857,1.43647 -1.0184,1.41707 -0.6771,3.86333 0.54023,4.1927 0.71292,2.44661 -0.0247,1.33897 0.84564,2.0298 0.25411,1.7134 1.30895,1.79681 3.07903,2.3812 l 0.33804,-4e-5 z m -0.47494,-0.39688 c -0.57361,-0.30289 0.54751,-0.33004 0,0 z m -0.79375,-0.26458 c -0.57361,-0.30289 0.54751,-0.33004 0,0 z m -0.36405,-0.45861 c -1.0313,1.01214 0.77302,-1.64023 0,0 z m 2.7129,-0.0706 c 0.0145,-0.77505 1.53724,-1.25022 0,0 z m 0.95844,0 c -0.25599,-0.32484 -0.11301,-0.20699 0,0 z m 0.67707,-0.26458 c -1.15125,-0.75348 0.74587,-1.1651 0,0 z m 0.52917,-0.79375 c -1.42721,-1.06917 0.42746,-0.47305 0,0 z m -6.6302,-1.32292 c -0.57358,-0.3029 0.5475,-0.33003 0,0 z m -0.89321,-1.51694 c -1.0313,1.01211 0.773,-1.64016 0,0 z m -0.67868,-0.86431 c -1.42723,-1.06919 0.42752,-0.473 0,0 z M 136.34448,123.1 c -0.57358,-0.3029 0.5475,-0.33003 0,0 z m 1.45521,-1.85208 c -0.25581,-0.32496 -0.11322,-0.20688 0,0 z m 2.76251,9.26041 c 1.33388,-0.8339 -0.74847,-0.71658 0,0 z m 0.80936,-1.05833 c 0.57358,-0.3029 -0.5475,-0.33003 0,0 z m 0.26459,-0.52917 c 0.57359,-0.30292 -0.54753,-0.33001 0,0 z m -5.46585,-0.80036 c -0.45271,-2.51181 -0.89843,0.81042 0,0 z m -21.2883,0.005 c 2.30987,-0.12347 3.91938,-2.58941 4.78304,-4.503 0.24489,-1.1513 1.08468,-4.94998 -0.1864,-4.42014 0.96566,-1.30648 -1.1669,-2.14487 -0.73397,-2.58171 -0.72331,-1.23731 0.28764,0.0992 -1.30612,-1.50282 -0.99495,-1.6165 -3.06273,-2.73996 -4.80007,-1.75392 -1.92211,1.40893 -3.74111,3.44581 -4.46852,5.70893 -0.28739,3.10692 2.10287,5.7107 4.1202,7.76737 0.85482,0.44247 1.53273,1.51683 2.59184,1.28529 z m 4.52915,-9.78798 c -0.57358,-0.3029 0.5475,-0.33003 0,0 z m 19.57916,9.525 c 0.57358,-0.3029 -0.5475,-0.33003 0,0 z m -4.23333,-0.26458 c 0.57358,-0.30291 -0.54751,-0.33005 0,0 z m 4.7625,0 c 0.57358,-0.30291 -0.54751,-0.33005 0,0 z m 5.31923,-0.86541 c 0.19118,-2.09208 -0.52238,0.16224 0,0 z m -5.58381,-0.19293 c 0.57359,-0.30292 -0.54753,-0.33001 0,0 z m 1.5875,0 c 0.57359,-0.30292 -0.54753,-0.33001 0,0 z m -3.43959,-0.26458 c 0.57358,-0.3029 -0.5475,-0.33003 0,0 z m 1.85209,-0.79375 c 0.57359,-0.30292 -0.54753,-0.33001 0,0 z m -1.32292,-0.26458 c 0.57358,-0.30291 -0.54751,-0.33005 0,0 z m 0.52917,0 c 0.57359,-0.30293 -0.54753,-0.33003 0,0 z m 2.66144,0 c 0.45506,-0.55616 -1.17173,-0.71348 0,0 z m -3.71978,-1.5875 c 0.57358,-0.30291 -0.54751,-0.33005 0,0 z m 0.52917,-0.26459 c 0.57357,-0.3029 -0.5475,-0.33 0,0 z m 5.57186,-0.52916 c 0.45506,-0.55616 -1.17173,-0.71348 0,0 z m -5.33967,-0.79375 c 1.86075,-1.38008 0.32772,-0.97533 0,0 z m 4.79489,0 c 0.57358,-0.30291 -0.54751,-0.33005 0,0 z m -0.26458,-0.52917 c 0.57358,-0.3029 -0.5475,-0.33003 0,0 z m -3.42397,-0.26458 c 0.45504,-0.55616 -1.17172,-0.71349 0,0 z m 0.77814,0 c 0.57359,-0.30293 -0.54753,-0.33003 0,0 z m 2.13228,0 c 0.45502,-0.5562 -1.17173,-0.71344 0,0 z m -0.80937,-0.26459 c 0.57358,-0.3029 -0.5475,-0.33003 0,0 z m -2.86632,-0.35277 c 0.27222,-1.34356 -0.66878,0.5192 0,0 z m 1.32292,0 c 0.27222,-1.34356 -0.66878,0.5192 0,0 z m -0.83785,-0.17639 c 0.57358,-0.30291 -0.54751,-0.33005 0,0 z m -0.92965,-3.36055 c 2.64321,-1.03429 4.35587,-4.63981 2.91563,-7.25303 0.74148,0.42277 -0.96489,-2.06024 -2.4889,-2.40829 -2.65316,-0.32853 -5.43562,0.50083 -7.10385,2.67542 -0.10307,1.84495 1.38035,3.26694 1.96705,4.98398 0.80235,1.50298 3.04837,2.92015 4.71007,2.00192 z m -18.9141,0.18555 c 0.57361,-0.3029 -0.54751,-0.33006 0,0 z m 13.13483,-2.17618 c 0.14683,-1.78764 -1.35461,-2.28474 -0.21456,0.32157 0.0377,0.15356 0.14693,-0.24432 0.21456,-0.32157 z m -0.43483,-2.05715 c 0.57359,-0.30291 -0.54751,-0.33005 0,0 z m 9.78959,-2.38125 c 0.57358,-0.30293 -0.54753,-0.33 0,0 z m -48.154168,84.1375 c -0.573587,-0.3029 0.547509,-0.33003 0,0 z m -1.322917,-0.26458 c -0.573588,-0.30291 0.547513,-0.33005 0,0 z m -0.322007,-0.55122 c -0.26598,-0.78407 1.684733,-1.79694 0,0 z m 0.58659,0.0221 c -0.573584,-0.3029 0.547511,-0.33003 0,0 z m 9.525002,0 c -0.57358,-0.3029 0.5475,-0.33003 0,0 z m 0.4297,-0.72319 c -1.0313,1.01213 0.77302,-1.64022 0,0 z M 92.952815,192.95 c -0.573588,-0.30291 0.547513,-0.33005 0,0 z m -0.778135,-0.26459 c -1.427222,-1.06918 0.427497,-0.47302 0,0 z m 10.73284,-0.45861 c -1.03128,1.01206 0.773,-1.64009 0,0 z m -10.748455,-0.33514 c -0.573588,-0.3029 0.547512,-0.33003 0,0 z m 12.038545,-0.26458 c -0.25574,-0.325 -0.11333,-0.20682 0,0 z M 92.423648,191.3625 c -0.573585,-0.30291 0.547512,-0.33005 0,0 z m -0.464373,-0.26459 c -1.358075,-0.72257 -0.08726,-1.92999 0,0 z m -0.06479,-1.5875 c -0.573595,-0.30289 0.547504,-0.33004 0,0 z m 31.220825,-7.40833 c -0.57358,-0.3029 0.5475,-0.33003 0,0 z m 1.85209,-3.175 c -0.57361,-0.30289 0.54751,-0.33004 0,0 z m 0.26458,-0.52916 c -0.57359,-0.30291 0.54751,-0.33005 0,0 z m 0.23335,-0.52917 c -0.26113,-0.75359 1.03129,-0.52397 0,0 z m 0.82498,-1.32292 c -0.57358,-0.3029 0.5475,-0.33003 0,0 z M 84.457305,160.40625 c -0.522445,-0.91707 -0.146207,-2.91115 0.211936,-0.76208 1.404797,-2.1226 0.338762,0.23022 -0.211936,0.76208 z m 1.2523,-2.04611 c -1.031295,1.01211 0.773007,-1.64018 0,0 z m -0.958873,-0.0706 c -0.573588,-0.3029 0.547512,-0.33003 0,0 z m 0.529167,-0.79375 c -0.573587,-0.3029 0.547509,-0.33003 0,0 z m -10.31875,-20.13327 c -1.875792,-0.48659 0.09806,-1.43453 0,0 z M 74.299691,135.8 c -0.255768,-0.32498 -0.11328,-0.20685 0,0 z m -0.132292,-1.85208 c -0.573585,-0.30291 0.547512,-0.33005 0,0 z m -0.264583,-0.79375 c -0.573588,-0.30291 0.547513,-0.33005 0,0 z m -0.264583,-0.79375 c -0.573587,-0.30291 0.54751,-0.33005 0,0 z m 0,-0.52917 c -0.573587,-0.3029 0.547509,-0.33003 0,0 z m -0.264584,-0.79375 c -0.573584,-0.3029 0.547511,-0.33003 0,0 z m -0.264583,-0.79375 c -0.573588,-0.3029 0.547512,-0.33003 0,0 z m -1.21798,-1.20737 c -0.660962,-0.38556 0.509089,-1.92164 0.126342,-0.12633 z m -1.16327,-1.96763 c -0.573588,-0.3029 0.547512,-0.33003 0,0 z m 1.322917,0 c -0.573587,-0.3029 0.547509,-0.33003 0,0 z m -1.5875,-0.52917 c -0.573587,-0.3029 0.547509,-0.33003 0,0 z m -0.529167,-0.52916 c -0.573588,-0.30291 0.547513,-0.33005 0,0 z m 0.79375,0 c -0.573588,-0.30291 0.547513,-0.33005 0,0 z m -1.377651,-0.41389 c 0.01612,-0.45387 -0.196427,-0.0956 0,0 z m 1.642234,-0.11528 c -0.573584,-0.3029 0.547511,-0.33003 0,0 z m 0.79375,-1.32292 c -0.573584,-0.3029 0.547511,-0.33003 0,0 z m 0.264584,-0.52916 c -0.573587,-0.30291 0.54751,-0.33005 0,0 z m -3.175,-1.05834 c -0.573587,-0.3029 0.547509,-0.33003 0,0 z m 1.852083,-0.26458 c -0.573588,-0.3029 0.547512,-0.33003 0,0 z m -2.38125,-0.26458 c -0.573588,-0.30291 0.547513,-0.33005 0,0 z m 1.322917,-0.26459 c -0.573587,-0.3029 0.547509,-0.33003 0,0 z M 67.78617,119.925 c -0.261136,-0.75357 1.031276,-0.52398 0,0 z m 1.089563,0 c -0.573587,-0.3029 0.547509,-0.33003 0,0 z m -7.423948,-7.40833 c -0.808844,-0.68989 1.356772,-0.8698 0,0 z m 3.984365,-0.26458 c -0.573593,-0.30291 0.547514,-0.33005 0,0 z m -12.7,-0.26459 c -0.573584,-0.3029 0.547511,-0.33003 0,0 z m 11.773958,0 c -0.255768,-0.32498 -0.11328,-0.20685 0,0 z m -3.439583,-0.26458 c -0.255768,-0.32498 -0.11328,-0.20685 0,0 z m 4.365625,0 c -0.573587,-0.3029 0.547509,-0.33003 0,0 z m -6.047578,-0.273 c -1.657395,-1.30655 0.69314,-1.41412 -0.11746,-0.58962 1.650984,-1.44859 0.310573,0.52395 0.11746,0.58962 z m 0.755911,0.008 c -0.57359,-0.30292 0.547516,-0.33005 0,0 z m 2.38125,0 c -0.573593,-0.30291 0.547516,-0.33005 0,0 z m 1.852083,0 c -0.57359,-0.30292 0.547516,-0.33005 0,0 z m 2.38125,0 c -0.57359,-0.30292 0.547516,-0.33005 0,0 z m 1.5875,0 c -0.573593,-0.30291 0.547516,-0.33005 0,0 z M 67.8174,110.92917 c -0.573587,-0.3029 0.547509,-0.33003 0,0 z m -7.408333,-0.79375 c -0.573587,-0.3029 0.547509,-0.33003 0,0 z m -0.79375,-0.26458 c -0.573593,-0.30291 0.547514,-0.33005 0,0 z m 1.5875,-0.52917 c -0.573587,-0.3029 0.547509,-0.33003 0,0 z m 37.350345,-2.20486 c -0.64652,0.30902 0.304224,-1.21036 0,0 z m 3.130898,-0.70556 c -0.57359,-0.30292 0.54753,-0.33001 0,0 z m 22.75417,-0.26458 c -0.57358,-0.3029 0.5475,-0.33003 0,0 z m -22.225,-0.26458 c -0.57359,-0.30291 0.54751,-0.33005 0,0 z m 5.02708,-1.5875 c -0.57359,-0.30293 0.54754,-0.33003 0,0 z m 2.11667,-1.05834 c -0.57358,-0.3029 0.5475,-0.33003 0,0 z m 2.11667,-0.52916 c -0.57359,-0.30291 0.54751,-0.33005 0,0 z m 29.63333,-7.408337 c -0.57358,-0.302905 0.54751,-0.330039 0,0 z"
       id="path4" /></g></svg>
