<?xml version="1.0" encoding="UTF-8" standalone="no"?>
<!-- Created with Inkscape (http://www.inkscape.org/) -->

<svg
   width="119.40742mm"
   height="113.3332mm"
   viewBox="0 0 119.40742 113.3332"
   version="1.1"
   id="svg1"
   xml:space="preserve"
   xmlns:inkscape="http://www.inkscape.org/namespaces/inkscape"
   xmlns:sodipodi="http://sodipodi.sourceforge.net/DTD/sodipodi-0.dtd"
   xmlns="http://www.w3.org/2000/svg"
   xmlns:svg="http://www.w3.org/2000/svg"><sodipodi:namedview
     id="namedview1"
     pagecolor="#ffffff"
     bordercolor="#000000"
     borderopacity="0.25"
     inkscape:showpageshadow="2"
     inkscape:pageopacity="0.0"
     inkscape:pagecheckerboard="0"
     inkscape:deskcolor="#d1d1d1"
     inkscape:document-units="mm" /><defs
     id="defs1" /><g
     inkscape:label="Слой 1"
     inkscape:groupmode="layer"
     id="layer1"
     transform="translate(-5.2866079,-111.29975)"><path
       style="fill:#000000"
       d="m 63.871804,224.13712 c -8.688122,-2.37563 -11.843832,-5.75346 -17.551652,-9.62314 -4.683933,-3.11847 -10.006558,-9.07652 -11.086839,-11.11419 -0.41678,-0.78615 -1.445251,-2.66869 -2.144379,-3.7601 l -5.603686,-8.58453 -4.12818,-1.33018 C 11.830291,186.01084 7.6639127,183.55718 5.6812168,179.3269 c -0.46081,-0.98319 -0.3897952,-6.98609 -0.3917162,-8.33974 -0.0037,-2.63113 1.4603955,-4.24026 3.0203804,-5.80989 1.919939,-1.93182 3.734896,-1.87833 8.220836,-1.87955 4.041815,-0.001 2.798508,2.68521 1.666884,-0.7478 -0.359761,-1.0914 -1.118125,-3.14117 -1.340095,-4.92846 -0.665132,-5.35562 -0.709155,-5.89879 0.0052,-10.34281 1.209338,-7.52325 4.523551,-11.78284 10.563164,-18.17354 6.365905,-7.38889 10.166723,-11.43841 19.918147,-15.09792 4.018082,-1.50791 8.946923,-2.72365 15.874589,-2.70728 15.681239,0.037 26.24342,2.57789 34.675721,6.69193 4.742153,2.31365 14.399073,7.76034 18.049273,11.38567 5.21335,5.20583 7.68585,13.35826 8.44971,20.22226 1.44336,12.96991 -2.54085,25.57596 -7.00238,38.23348 -1.09625,3.11009 -5.6762,8.09086 -7.64438,10.39693 -0.8073,0.94588 -1.86659,3.01884 -3.05953,4.46546 -4.07642,4.94328 -8.802916,9.25705 -14.406946,13.14891 -5.035011,3.89728 -6.620827,4.63176 -13.309037,7.6665 -2.55556,1.15958 -11.870689,1.50887 -15.09924,0.62607 z m 15.077498,-5.23352 c 3.13328,-0.78856 7.42483,-2.58818 8.68399,-3.64155 0.60808,-0.50869 2.870992,-1.95518 3.899812,-2.64999 4.05301,-2.73717 9.972236,-8.35249 11.694096,-10.74399 0.77796,-1.08051 0.22579,-0.71902 -3.02266,1.97884 -8.847948,7.34827 -15.825638,11.62593 -21.132988,12.95553 -2.89902,0.72626 -9.45146,0.98736 -13.13686,0.52347 -6.849846,-0.86219 -10.745733,-2.78833 -18.999971,-9.39365 -5.574046,-4.46053 -6.299773,-5.26982 -9.534013,-10.6318 -3.849031,-6.38123 -4.178048,-6.97146 -3.990619,-7.15889 0.23505,-0.23505 3.332049,0.67207 4.267147,1.24986 0.447095,0.27626 1.332881,1.39971 2.01864,2.56027 0.672078,1.13741 2.120155,3.58282 3.21795,5.43425 5.083037,8.57253 9.13353,12.15537 16.330354,14.44489 4.657573,1.48172 6.563262,1.76804 11.767622,1.76804 3.73351,0 5.13408,-0.10124 6.48229,-0.46859 2.6321,-0.71716 5.64472,-2.28727 8.99584,-4.68841 6.10863,-4.37696 10.37054,-8.52924 18.469128,-17.99404 2.55257,-2.98318 6.31957,-7.15037 8.37112,-9.26042 3.5086,-3.60866 4.99628,-5.55791 4.56839,-5.98579 -0.10221,-0.10222 -1.04949,0.6864 -2.10506,1.75249 -7.47861,7.55316 -16.778918,11.85922 -30.097328,13.9351 -2.43258,0.37915 -4.66089,0.47418 -11.1125,0.4739 -9.02042,-4e-4 -12.351516,-0.51497 -18.795044,-1.6996 -4.663936,-0.85746 -3.906635,-0.94908 -7.194012,-1.86977 -0.862005,-0.24142 -0.529069,-1.26928 0.09948,-1.66508 0.328417,-0.2068 0.830911,-0.0978 2.029733,0.44017 2.153778,0.96656 4.955174,1.65406 9.288805,2.27959 15.875518,2.29153 30.575108,0.56426 41.238316,-4.84569 7.9075,-4.01184 14.88102,-9.73062 18.41101,-15.09833 1.0904,-1.65807 2.20871,-4.43035 2.41684,-5.99135 l 0.15633,-1.17251 -0.60854,1.01932 c -1.73221,2.90147 -2.72737,4.28653 -4.88887,6.80435 -2.93036,3.41341 -5.09511,5.39465 -8.08389,7.39856 -4.91674,3.29659 -10.397318,5.2895 -17.798288,6.47203 -14.2199,2.27206 -22.08428,2.94841 -29.119725,2.50436 -4.158694,-0.26248 -9.61102,-1.23704 -12.57545,-2.24775 -1.078592,-0.36774 -2.675452,-0.85373 -3.548577,-1.07999 -2.072999,-0.53718 -4.840986,-2.47765 -7.491925,-3.93439 -0.723899,-0.3978 0.447391,-0.0529 -3.392029,-3.1661 -20.074791,-16.2779 -14.230047,-19.04687 -14.382263,-17.34227 -0.554036,6.2044 5.330762,11.58785 -7.009404,6.30935 -0.875053,0.15379 -1.768318,1.35558 -2.521092,2.14872 -1.5429762,1.62572 -2.6972779,4.06396 -1.9931229,6.48617 1.014207,3.48875 1.029083,6.8439 6.6293509,9.57981 2.202877,1.07617 8.143911,1.43366 10.66231,2.48775 4.495843,1.88174 4.591534,1.9385 5.274953,3.12892 0.382825,0.66682 1.775129,2.96999 3.094009,5.11816 1.31888,2.14816 2.863336,4.76753 3.432125,5.82083 1.457274,2.69861 5.635587,6.64321 11.401255,10.76352 1.309687,0.93594 2.773357,2.03749 3.252599,2.44788 1.856213,1.58955 6.401689,3.39831 10.780904,4.29 5.139492,1.0465 11.792212,1.1121 15.599832,0.15382 z M 20.866627,182.63584 c -4.75813,-3.2e-4 -4.367726,0.48005 -6.636507,-4.19311 -0.787623,-1.92345 -0.607949,-1.98865 -0.730209,-2.87934 -0.147993,-1.07816 0.620185,-4.09199 2.836345,-4.95938 2.21616,-0.86739 6.723463,0.31035 7.84368,2.88993 l 1.18705,2.73379 0.887595,2.48813 c 0.814774,2.28399 0.680463,2.8929 0.244391,3.12442 -0.723044,0.38389 -3.609501,0.7957 -5.632345,0.79556 z m 57.288965,2.41805 c 7.900277,-0.71985 13.373639,-0.78947 14.41979,-0.96925 l -14.41979,0.9692 z m 2.38362,-7.03876 c 1.75511,-0.888 2.81343,-2.24666 2.85359,-3.66337 0.0556,-1.96052 -1.2418,-3.07059 -3.58871,-3.07059 -1.90547,0 -2.49523,-0.49341 -3.6032,-3.01457 -0.81038,-1.84402 -0.94896,-2.01251 -1.65522,-2.01251 -0.89247,0 -3.4807,1.24301 -4.66737,2.24152 -1.51229,1.27251 -1.77354,3.89787 -0.61403,6.17069 0.69288,1.35816 2.92126,3.34588 4.33376,3.86573 1.83649,0.67589 5.0578,0.436 6.94118,-0.5169 z m -31.256926,0.27517 c 3.15768,-0.82247 5.331899,-3.26537 4.67574,-5.25355 -0.402865,-1.2207 -1.144185,-1.82643 -2.452139,-2.00364 l -1.098372,-0.14881 -1.471794,-3.19023 c -0.809487,-1.75462 -2.18617,-4.52141 -3.059295,-6.14842 -1.815014,-3.38216 -1.998247,-3.47991 -4.260072,-2.27262 -0.712897,0.38052 -2.583095,1.3529 -4.155995,2.16084 -2.667576,1.37025 -3.887057,2.33907 -3.887057,3.08809 0,0.17224 0.189103,0.94995 0.420229,1.72823 0.305915,1.03013 0.805438,1.81892 1.836289,2.89966 0.778832,0.81652 1.650814,2.03225 1.937738,2.70162 0.527171,1.22984 2.560507,3.36265 4.101957,4.30263 l 0.964203,0.57512 c 0,0.20195 2.054541,1.28498 2.996188,1.57942 1.448367,0.45288 1.647307,0.45182 3.45238,-0.0183 z m 46.352556,-10.7859 c 2.71416,-1.37771 4.08425,-3.79702 4.08425,-7.21197 0,-1.84879 -0.37745,-3.18392 -0.96372,-3.4089 -0.62163,-0.23854 -10.79254,2.41181 -13.7868,3.59258 -1.61718,0.63773 -1.70008,0.94848 -0.75211,2.8192 2.19935,4.34021 7.39034,6.25373 11.41838,4.20909 z m 22.807618,-2.8356 c 0.53292,-0.79914 1.24461,-2.13545 1.58152,-2.96956 1.38859,-3.4378 1.03116,-5.71778 0.68446,-12.67674 -0.22013,-4.4184 -2.28664,-8.1919 -3.95404,-11.30456 -2.41556,-4.50933 -2.18777,-6.0389 -15.01188,-13.20117 -12.845538,-7.17425 -17.466592,-8.35888 -25.459162,-9.06632 -11.572828,-1.02433 -25.417235,0.86458 -33.667699,5.30898 -2.695575,1.45207 -4.704101,3.06061 -7.003877,5.6091 -1.083192,1.20034 -3.280914,3.63525 -4.883828,5.4109 -5.003476,5.54269 -7.469794,9.23205 -8.814497,13.1856 -1.621374,4.76698 -1.288918,9.15853 1.065842,14.07916 1.035104,2.16302 1.756807,2.88518 1.454279,1.45521 -0.08466,-0.40018 -0.212317,-1.01165 -0.283675,-1.35881 -0.07136,-0.34717 -0.12965,-2.19264 -0.129539,-4.10104 3.62e-4,-6.2515 1.213861,-9.31679 5.305471,-13.4016 2.187258,-2.18362 2.902627,-2.7123 5.312298,-3.92593 1.906631,-0.96028 3.02595,-1.37429 3.549906,-1.31303 0.744583,0.0871 0.722135,0.11963 -0.831441,1.20631 -3.718086,2.60069 -7.5158,6.80671 -9.424667,10.43794 -2.041293,3.88316 -2.299931,8.68046 -0.728609,13.5145 0.461195,1.41882 0.94782,2.57968 1.081388,2.57968 0.472645,0 0.790637,-1.04321 0.790637,-2.59378 0,-1.97164 0.637262,-5.7394 1.35132,-7.98955 1.83057,-5.76853 6.218298,-10.08524 13.16131,-12.94831 3.174986,-1.30926 3.556354,-1.31461 4.907819,-0.0689 1.501228,1.38379 2.456887,1.86067 4.641549,2.31619 0.983832,0.20513 3.287504,-0.129 3.718925,-0.32927 1.795805,-0.83362 1.781795,-0.92707 3.04124,-2.06974 1.32896,-1.20575 1.066326,-3.0545 2.69534,-3.04011 l 9.014282,0.0796 c 8.27367,0.14805 10.79103,0.40385 16.44679,1.67126 6.19319,1.38785 12.873008,4.12423 17.366848,7.11433 2.74283,1.82502 6.31489,5.56539 8.0916,8.47286 0.7534,1.2329 1.45658,2.24163 1.56263,2.24163 0.39725,0 0.4591,-1.10426 0.13142,-2.34643 -0.47731,-1.8094 -2.02607,-4.65045 -3.58628,-6.57869 -4.65283,-5.75036 -15.225748,-11.62577 -26.340158,-14.63733 -4.5258,-1.22631 -4.55842,-1.40047 -0.24524,-1.30944 7.3788,0.15572 16.984858,4.50134 23.979548,10.84796 4.17135,3.78487 6.56749,7.06782 9.06547,12.42059 1.396,2.99142 1.44325,4.99134 0.18871,7.98775 -0.46488,1.11033 -1.19394,2.47955 -1.62014,3.04271 -0.4262,0.56316 -0.77339,1.14299 -0.77152,1.28851 0.005,0.36336 1.39265,-1.28151 2.56567,-3.0405 z M 51.432637,141.21037 c -1.320298,-0.69245 -3.013288,-2.51051 -3.482926,-3.74024 -0.553257,-1.44868 -0.241818,-1.72731 1.320459,-1.18136 1.53815,0.53753 3.912011,0.27539 7.83801,-0.86553 1.767882,-0.51376 3.3415,-0.85551 3.496929,-0.75945 0.447583,0.27662 0.03169,2.44218 -0.713081,3.71304 -0.706072,1.20482 -2.311125,2.45613 -3.802519,2.96446 -1.265607,0.43138 -3.716077,0.36248 -4.656872,-0.13092 z m 22.266505,20.68054 c 1.7243,-0.51206 3.975283,-1.88206 3.62944,-2.48991 0,0 0.06645,-0.0397 -0.658833,-1.15795 -0.725279,-1.11825 -2.477522,0.16569 -3.220141,-0.23262 -0.943132,-0.50586 -1.605826,-2.10186 -1.605826,-2.10186 -0.52003,-0.78564 -1.69387,-2.91672 -2.60854,-4.73573 -0.98511,-1.95911 -1.84041,-3.33998 -2.09818,-3.38747 -0.73605,-0.13562 -4.810184,1.58065 -5.580278,2.35074 -0.861663,0.86167 -0.812901,1.49148 0.330561,4.26949 2.451379,5.95555 7.081857,8.88996 11.811797,7.48531 z m -24.745098,-5.04186 c 2.326548,-0.82085 4.198385,-2.72384 4.198385,-4.26826 0,-0.54512 -0.669446,-1.62689 -1.310775,-2.11811 -0.224959,-0.1723 -0.91307,-0.44142 -1.529136,-0.59802 -1.300171,-0.33051 -1.361302,-0.48078 -1.459078,-3.58661 l -0.06664,-2.11667 -1.000188,-0.0826 c -1.840156,-0.15196 -5.495897,1.22221 -7.308071,2.74705 -2.472371,2.08037 -2.50693,5.62545 -0.07934,8.13912 2.272989,2.35359 5.321317,3.02495 8.554842,1.88409 z m 31.435718,-1.56194 c 1.52799,-1.35707 2.47099,-1.61502 4.96861,-1.35913 2.03579,0.20857 3.1879,0.64736 4.5664,1.73916 1.17834,0.93325 1.4763,0.97934 1.84751,0.28572 0.75861,-1.41746 -0.21906,-4.56365 -1.84268,-5.92984 -2.62383,-2.2078 -5.92273,-2.8337 -9.2673,-1.75828 -3.94011,1.26691 -5.60723,3.60294 -4.29269,6.01507 0.42935,0.78784 2.02144,2.18483 2.48997,2.18483 0.11239,0 0.80097,-0.52989 1.53018,-1.17753 z" /></g></svg>
