<?xml version="1.0" encoding="UTF-8" standalone="no"?>
<!-- Created with Inkscape (http://www.inkscape.org/) -->

<svg
   width="115.8431mm"
   height="110.02408mm"
   viewBox="0 0 115.8431 110.02408"
   version="1.1"
   id="svg1"
   xml:space="preserve"
   xmlns="http://www.w3.org/2000/svg"
   xmlns:svg="http://www.w3.org/2000/svg"><defs
     id="defs1" /><g
     id="layer1"
     transform="translate(-43.346002,-94.4689)"><path
       style="fill:#000000"
       d="m 99.734706,204.18941 c -7.19587,-1.09303 -11.568376,-3.38737 -12.448865,-6.53217 -0.303157,-1.08277 -0.55231,-1.36718 -2.100985,-2.39825 -4.683933,-3.11847 -10.699282,-8.49925 -11.779563,-10.53692 -0.41678,-0.78615 -1.329797,-2.32233 -2.028925,-3.41374 -0.699128,-1.0914 -2.271941,-3.65125 -3.495141,-5.68854 l -2.223999,-3.70417 -4.936357,-2.0229 c -11.205959,-4.59216 -14.769524,-6.97598 -16.75222,-11.20626 -0.46081,-0.98319 -0.620703,-1.79066 -0.622624,-3.14431 -0.0037,-2.63113 0.42131,-3.77845 1.981295,-5.34808 1.919939,-1.93182 3.27308,-2.34014 7.75902,-2.34136 4.041815,-0.001 3.72214,0.37613 2.590516,-3.05688 -0.359761,-1.0914 -1.014758,-3.41312 -1.455549,-5.15937 -0.440791,-1.74625 -1.053987,-4.06797 -1.362658,-5.15938 -0.472792,-1.6717 -0.539233,-2.44295 -0.421672,-4.89479 0.347921,-7.25617 3.349204,-12.42774 10.485629,-18.06799 3.373832,-2.66649 4.703976,-3.95985 7.132382,-6.93513 3.978868,-4.874903 7.16126,-7.098192 12.286031,-8.583293 4.122115,-1.194542 7.388294,-1.542795 14.31596,-1.526425 15.681239,0.03705 30.196869,2.535884 38.629169,6.649918 4.74216,2.31365 13.18051,8.28518 16.83071,11.91051 3.37493,3.35194 4.19935,5.56978 4.38255,11.78991 0.10291,3.49376 0.23481,4.58001 0.75501,6.21771 2.02334,6.36994 2.36701,9.70747 1.46039,14.18238 -1.05701,5.21724 -5.59009,18.00513 -8.11641,22.89656 -1.51325,2.92993 -4.86802,7.97541 -6.8362,10.28148 -0.8073,0.94588 -2.44386,2.90339 -3.6368,4.35001 -4.07642,4.94328 -8.80292,9.25705 -14.40695,13.14891 -1.64788,1.1444 -2.70677,2.10461 -3.3073,2.99905 -1.63328,2.43269 -4.50539,4.0945 -8.70373,5.03602 -2.73832,0.61409 -10.6636,0.76015 -13.972714,0.2575 z m 14.384774,-3.0399 c 3.13328,-0.78856 7.42483,-2.58818 8.68399,-3.64155 0.60808,-0.50869 1.94736,-1.49336 2.97618,-2.18817 4.05301,-2.73717 10.89587,-8.81431 12.61773,-11.20581 0.77796,-1.08051 0.22579,-0.71902 -3.02266,1.97884 -8.84795,7.34827 -15.82564,11.62593 -21.13299,12.95553 -2.89902,0.72626 -9.45146,0.98736 -13.13686,0.52347 -6.849846,-0.86219 -10.745733,-2.78833 -18.999971,-9.39365 -5.574046,-4.46053 -6.299773,-5.26982 -9.534013,-10.6318 -3.849031,-6.38123 -4.178048,-6.97146 -3.990619,-7.15889 0.23505,-0.23505 3.332049,0.67207 4.267147,1.24986 0.447095,0.27626 1.332881,1.39971 2.01864,2.56027 0.672078,1.13741 2.120155,3.58282 3.21795,5.43425 5.083037,8.57253 9.13353,12.15537 16.330354,14.44489 4.657573,1.48172 6.563262,1.76804 11.767622,1.76804 3.73351,0 5.13408,-0.10124 6.48229,-0.46859 2.6321,-0.71716 5.64472,-2.28727 8.99584,-4.68841 6.10863,-4.37696 10.37054,-8.52924 18.46913,-17.99404 2.55257,-2.98318 6.31957,-7.15037 8.37112,-9.26042 3.5086,-3.60866 4.99628,-5.55791 4.56839,-5.98579 -0.10221,-0.10222 -1.04949,0.6864 -2.10506,1.75249 -7.47861,7.55316 -16.77892,11.85922 -30.09733,13.9351 -2.43258,0.37915 -4.66089,0.47418 -11.1125,0.4739 -9.02042,-4e-4 -12.842195,-0.39952 -19.314587,-2.0171 -1.81901,-0.45461 -3.954318,-0.85327 -4.745128,-0.88592 -1.13672,-0.0469 -1.540769,-0.18648 -1.929341,-0.66635 -0.56334,-0.69569 -0.529069,-1.26928 0.09948,-1.66508 0.328417,-0.2068 0.830911,-0.0978 2.029733,0.44017 2.153778,0.96656 4.955174,1.65406 9.288805,2.27959 15.875518,2.29153 30.575108,0.56426 41.238318,-4.84569 7.9075,-4.01184 14.88102,-9.73062 18.41101,-15.09833 1.0904,-1.65807 2.20871,-4.43035 2.41684,-5.99135 l 0.15633,-1.17251 -0.60854,1.01932 c -1.73221,2.90147 -2.72737,4.28653 -4.88887,6.80435 -2.93036,3.41341 -5.09511,5.39465 -8.08389,7.39856 -4.91674,3.29659 -10.39732,5.2895 -17.79829,6.47203 -14.2199,2.27206 -22.08428,2.94841 -29.119725,2.50436 -4.158694,-0.26248 -9.61102,-1.23704 -12.57545,-2.24775 -1.078592,-0.36774 -2.675452,-0.85373 -3.548577,-1.07999 -2.072999,-0.53718 -5.076031,-2.11422 -7.491925,-3.93439 -1.064622,-0.8021 -1.987356,-1.45837 -2.050521,-1.45837 -0.368846,0 0.02067,0.89685 0.95805,2.20589 0.590092,0.82405 0.96455,1.49828 0.83213,1.49828 -0.766985,0 -4.54831,-4.79517 -6.350311,-8.05294 -0.64804,-1.17157 -2.036137,-3.08339 -3.08466,-4.24849 -3.169865,-3.52229 -5.531891,-6.60184 -6.839746,-8.91747 -0.911488,-1.61384 -1.240308,-2.02121 -1.239234,-1.53527 0.0026,1.16249 0.537465,2.6735 2.553574,7.21349 1.083305,2.43945 1.88782,4.56776 1.787812,4.72957 -0.250466,0.40526 -3.672542,0.0748 -5.673075,-0.54783 -3.201441,-0.9964 -5.386305,-2.81432 -5.236162,-4.35674 0.06731,-0.69147 -0.0023,-0.80634 -0.441553,-0.72914 -0.875053,0.15379 -2.345588,1.00922 -3.098362,1.80236 -1.542976,1.62572 -2.120008,4.41032 -1.415853,6.83253 1.014207,3.48875 3.107254,5.45845 8.707522,8.19436 2.202877,1.07617 6.06574,2.81911 8.584139,3.8732 4.495843,1.88174 4.591534,1.9385 5.274953,3.12892 0.382825,0.66682 1.775129,2.96999 3.094009,5.11816 1.31888,2.14816 2.863336,4.76753 3.432125,5.82083 1.457274,2.69861 5.635587,6.64321 11.401255,10.76352 1.309687,0.93594 2.773357,2.03749 3.252599,2.44788 1.856213,1.58955 6.401689,3.39831 10.780904,4.29 5.139492,1.0465 11.792212,1.1121 15.599832,0.15382 z M 63.803837,167.17163 c -3.07127,-1.11544 -6.187941,-2.67172 -7.297537,-3.64396 l -0.859733,-0.75331 0.926041,0.37581 c 0.509323,0.20669 1.402292,0.58599 1.984375,0.84288 0.582084,0.25689 2.840801,1.15188 5.019372,1.98887 2.178571,0.837 4.004195,1.65128 4.056944,1.80953 0.174891,0.52467 -1.364052,0.27559 -3.829462,-0.61982 z m -5.246854,-4.94417 c -3.347035,-1.26733 -8.284812,-2.68098 -10.552012,-3.02097 -0.996765,-0.14947 -1.151128,-0.10064 -1.392613,0.44055 l -0.271589,0.60865 -0.472334,-0.72087 c -0.259784,-0.39648 -0.6313,-1.16628 -0.825592,-1.71066 -0.781085,-2.18851 -0.162598,-6.16603 0.830617,-5.34174 0.20922,0.17364 0.380399,0.4696 0.380399,0.6577 0,0.49867 2.310051,2.45539 3.780537,3.20228 1.711349,0.86924 4.217761,1.38856 7.823871,1.62109 l 3.00545,0.1938 0.887595,2.48813 c 0.814774,2.28399 0.91699,2.97887 0.428077,2.91012 -0.100552,-0.0141 -1.730635,-0.61177 -3.622406,-1.32808 z m 0.0061,-1.57572 c 0.09571,-0.30155 0.103843,-0.82784 0.01808,-1.16954 -0.138465,-0.55169 -0.356001,-0.64044 -1.942119,-0.79233 -0.982404,-0.0941 -2.649392,-0.32258 -3.704418,-0.50778 -1.055026,-0.1852 -1.918229,-0.29132 -1.918229,-0.23584 0,0.53931 1.562594,1.43356 3.915441,2.24076 3.376701,1.15844 3.409725,1.16267 3.631245,0.46473 z m 54.762687,6.64806 c 3.05594,-0.27845 7.40172,-0.58486 9.65729,-0.68092 2.25557,-0.0961 4.3987,-0.22581 4.7625,-0.28833 0.3638,-0.0625 1.43537,-0.21979 2.38125,-0.34948 2.02254,-0.27731 4.56915,-1.27677 4.31226,-1.69241 -0.12082,-0.1955 -0.20893,-0.1851 -0.28171,0.0332 -0.0582,0.17473 -0.22206,0.31769 -0.36405,0.31769 -0.14198,0 -0.1854,-0.1177 -0.0965,-0.26155 0.0927,-0.14998 -0.0135,-0.19434 -0.24897,-0.10398 -0.22583,0.0867 -0.41061,0.25443 -0.41061,0.37282 0,0.35797 -1.39526,0.55201 -4.54597,0.63218 -1.80066,0.0458 -3.43126,0.23362 -4.08971,0.47103 -0.91448,0.32972 -1.19806,0.33771 -1.71979,0.0484 -0.9261,-0.51352 -6.11047,-0.44268 -12.00182,0.164 -7.23464,0.745 -9.49306,0.69177 -17.991669,-0.42407 -1.053086,-0.13826 -1.259677,-0.10615 -1.012864,0.15743 0.17053,0.18212 0.253247,0.47916 0.183816,0.66009 -0.120477,0.31396 2.952967,1.03615 5.459256,1.28281 2.901081,0.28551 11.046831,0.11302 16.007291,-0.33896 z m -31.072004,-1.61842 c 0.747579,-0.74758 0.54905,-1.09572 -0.828086,-1.45212 -0.645054,-0.16694 -2.118217,-0.7544 -3.273696,-1.30547 -1.6592,-0.79129 -2.582966,-1.48108 -4.394032,-3.28109 -1.436148,-1.42738 -2.364332,-2.5758 -2.483595,-3.07291 -0.470122,-1.95953 -0.908064,-2.45865 -2.6725,-3.04581 -2.106964,-0.70115 -2.908191,-1.32481 -3.315532,-2.58072 -0.46903,-1.44611 -1.159475,-2.30749 -2.460947,-3.07021 -2.653021,-1.55477 -5.407899,-5.66609 -6.666788,-9.94936 -0.608358,-2.06989 -1.168001,-2.76413 -1.755022,-2.17711 -0.384701,0.3847 0.01851,1.70594 1.590829,5.2128 1.915382,4.27201 4.03556,7.11512 9.970958,13.37081 1.600729,1.68711 3.981979,4.19705 5.291667,5.57763 2.495635,2.63074 5.280443,4.66935 7.787277,5.70066 1.831002,0.75327 2.513595,0.76877 3.209467,0.0729 z m 30.542834,-0.60771 c 2.18282,-0.23299 7.00485,-0.53591 10.71563,-0.67317 7.72674,-0.2858 9.30082,-0.58189 13.38902,-2.51849 1.36729,-0.64769 2.48598,-1.23794 2.48598,-1.31168 0,-0.0737 -0.85623,0.21901 -1.90274,0.65056 -3.90663,1.61096 -5.03835,1.76566 -15.29518,2.09071 -5.1857,0.16433 -8.78005,0.41765 -11.50937,0.81112 -4.83905,0.69762 -10.9312,0.59308 -15.61042,-0.26788 -1.600729,-0.29453 -5.092176,-0.71305 -7.758772,-0.93005 -3.632764,-0.29563 -5.150363,-0.52814 -6.052904,-0.92738 -1.527954,-0.67589 -1.722503,-0.66838 -1.618704,0.0625 0.132293,0.93148 1.695353,1.52396 4.77265,1.80907 3.395624,0.3146 9.111693,0.99206 12.24523,1.45128 3.02734,0.44366 10.78295,0.32517 16.13958,-0.24658 z m 2.91279,-4.81263 c 1.75511,-0.888 2.81343,-2.24666 2.85359,-3.66337 0.0556,-1.96052 -1.2418,-3.07059 -3.58871,-3.07059 -1.90547,0 -2.49523,-0.49341 -3.6032,-3.01457 -0.81038,-1.84402 -0.94896,-2.01251 -1.65522,-2.01251 -0.89247,0 -3.4807,1.24301 -4.66737,2.24152 -1.51229,1.27251 -1.77354,3.89787 -0.61403,6.17069 0.69288,1.35816 2.92126,3.34588 4.33376,3.86573 1.83649,0.67589 5.0578,0.436 6.94118,-0.5169 z m -6.94214,-0.67366 c -1.25847,-0.62293 -2.61723,-2.0449 -3.11789,-3.26293 -0.55723,-1.35565 -0.73549,-3.02979 -0.40703,-3.82275 0.32049,-0.77374 3.34628,-2.94337 4.10485,-2.94337 0.26765,0 0.64773,0.4861 0.98267,1.25677 1.12271,2.58326 2.52692,3.77032 4.46002,3.77032 3.00869,0 2.53443,3.57707 -0.67035,5.05617 -1.47941,0.68279 -3.91316,0.65814 -5.35227,-0.0542 z m -24.314786,0.94883 c 3.15768,-0.82247 5.331899,-3.26537 4.67574,-5.25355 -0.402865,-1.2207 -1.144185,-1.82643 -2.452139,-2.00364 l -1.098372,-0.14881 -1.471794,-3.19023 c -0.809487,-1.75462 -2.18617,-4.52141 -3.059295,-6.14842 -1.815014,-3.38216 -1.998247,-3.47991 -4.260072,-2.27262 -0.712897,0.38052 -2.583095,1.3529 -4.155995,2.16084 -2.667576,1.37025 -3.887057,2.33907 -3.887057,3.08809 0,0.17224 0.189103,0.94995 0.420229,1.72823 0.305915,1.03013 0.805438,1.81892 1.836289,2.89966 0.778832,0.81652 1.650814,2.03225 1.937738,2.70162 0.527171,1.22984 2.560507,3.36265 4.101957,4.30263 0.727601,0.44369 0.677673,0.34417 -0.398187,-0.79375 -1.4823,-1.5678 -2.709724,-3.8959 -2.498243,-4.73851 0.102745,-0.40937 0.584531,-0.77677 1.542013,-1.17591 0.765918,-0.31928 2.268467,-0.95702 3.338997,-1.41721 l 1.946418,-0.8367 0.528759,0.65299 c 0.290818,0.35914 0.802129,1.18991 1.136247,1.84614 0.88743,1.74298 1.781251,2.46849 3.249044,2.63725 1.157919,0.13312 1.252912,0.20088 1.325891,0.94567 0.111,1.1328 -0.88975,2.49313 -2.468274,3.35514 -1.886161,1.03001 -3.257636,1.17622 -5.165514,0.55069 -0.865121,-0.28364 -1.572948,-0.48645 -1.572948,-0.45068 0,0.20195 2.054541,1.28498 2.996188,1.57942 1.448367,0.45288 1.647307,0.45182 3.45238,-0.0183 z M 70.970398,150.30867 c -0.73866,-1.45768 -0.892896,-2.90428 -0.376052,-3.52704 0.723668,-0.87197 7.022359,-4.20944 7.447934,-3.94643 0.171747,0.10615 0.220027,0.60439 0.1227,1.26626 -0.165414,1.12491 -0.02225,1.07816 0.781287,-0.25513 0.408432,-0.6777 0.802215,-0.29442 1.434921,1.39664 0.886458,2.36927 0.7524,2.66133 -1.715872,3.73825 -1.164167,0.50793 -3.024621,1.32182 -4.134343,1.80865 -1.109721,0.48682 -2.209044,0.88513 -2.442938,0.88513 -0.246346,0 -0.71656,-0.57485 -1.117637,-1.36633 z m 5.474783,-0.79371 c 2.094199,-0.89698 3.885217,-1.74825 3.980039,-1.89172 0.203963,-0.3086 -0.496262,-2.84264 -0.890957,-3.22428 -0.183497,-0.17743 -0.315532,-0.14979 -0.400823,0.0839 -0.498241,1.36516 -5.091158,3.75255 -7.219258,3.75255 -0.772686,0 -1.054074,0.10876 -1.054074,0.40741 0,0.67046 1.042026,2.503 1.423263,2.503 0.194796,0 2.06761,-0.73389 4.16181,-1.63087 z m 77.751939,0.3741 c 1.96024,-2.35592 3.43158,-6.58828 3.44172,-9.90023 0.009,-3.0645 -0.65654,-3.18311 -0.86421,-0.15393 -0.19931,2.90702 -0.92297,4.86767 -2.96141,8.02342 -1.44318,2.23422 -1.62941,2.65289 -1.24814,2.8059 0.71844,0.2883 0.76599,0.26572 1.63204,-0.77516 z m -23.3921,-0.13875 c 2.71416,-1.37771 4.08425,-3.79702 4.08425,-7.21197 0,-1.84879 -0.37745,-3.18392 -0.96372,-3.4089 -0.62163,-0.23854 -10.79254,2.41181 -13.7868,3.59258 -1.61718,0.63773 -1.70008,0.94848 -0.75211,2.8192 2.19935,4.34021 7.39034,6.25373 11.41838,4.20909 z m -5.26286,-0.82774 c -0.70253,-0.19316 -1.76356,-0.69468 -2.35784,-1.11449 -1.20259,-0.84952 -2.91095,-3.15017 -2.7918,-3.75971 0.051,-0.26116 1.05684,-0.64681 2.98738,-1.14546 1.60073,-0.41346 4.42965,-1.18101 6.28649,-1.70566 1.85684,-0.52466 3.56866,-0.88002 3.80404,-0.7897 0.35846,0.13756 0.40825,0.49648 0.30662,2.21011 -0.12914,2.17732 -0.58534,3.38101 -1.76225,4.6498 -1.50768,1.62536 -4.13623,2.2975 -6.47264,1.65511 z m 3.86424,-0.43848 c 1.31142,-0.36418 2.81125,-1.70555 3.38438,-3.0268 0.25249,-0.58208 0.54189,-1.80175 0.64312,-2.71038 0.15345,-1.37746 0.11423,-1.67885 -0.23599,-1.81323 -0.23101,-0.0887 -1.93926,0.2633 -3.7961,0.78211 -1.85685,0.51881 -4.49326,1.24148 -5.85871,1.60593 -1.36545,0.36445 -2.54633,0.72634 -2.62418,0.80419 -0.24917,0.24917 0.57438,1.51642 1.75156,2.69525 1.69547,1.69786 4.29722,2.34016 6.73592,1.66293 z m 24.20624,-1.56938 c 0.53292,-0.79914 1.24461,-2.13545 1.58152,-2.96956 1.38859,-3.4378 1.41007,-6.02455 0.10719,-12.90765 -0.42695,-2.25557 -0.98379,-5.22907 -1.23741,-6.60777 -0.25363,-1.3787 -0.74137,-3.33063 -1.08386,-4.33762 -1.64725,-4.8431 -3.24327,-6.16716 -16.06738,-13.32943 -12.84554,-7.174243 -17.35114,-8.878414 -25.34371,-9.585855 -11.572828,-1.024337 -25.532689,1.384121 -33.783153,5.828515 -2.695575,1.45207 -4.704101,3.06061 -7.003877,5.6091 -1.083192,1.20034 -3.280914,3.63525 -4.883828,5.4109 -5.003476,5.54269 -7.469794,9.23205 -8.814497,13.1856 -1.621374,4.76698 -1.288918,9.15853 1.065842,14.07916 1.035104,2.16302 1.756807,2.88518 1.454279,1.45521 -0.08466,-0.40018 -0.212317,-1.01165 -0.283675,-1.35881 -0.07136,-0.34717 -0.12965,-2.19264 -0.129539,-4.10104 3.62e-4,-6.2515 1.213861,-9.31679 5.305471,-13.4016 2.187258,-2.18362 2.902627,-2.7123 5.312298,-3.92593 1.906631,-0.96028 3.02595,-1.37429 3.549906,-1.31303 0.744583,0.0871 0.722135,0.11963 -0.831441,1.20631 -3.718086,2.60069 -7.5158,6.80671 -9.424667,10.43794 -2.041293,3.88316 -2.299931,8.68046 -0.728609,13.5145 0.461195,1.41882 0.94782,2.57968 1.081388,2.57968 0.472645,0 0.790637,-1.04321 0.790637,-2.59378 0,-1.97164 0.637262,-5.7394 1.35132,-7.98955 1.83057,-5.76853 6.218298,-10.08524 13.16131,-12.94831 3.174986,-1.30926 3.556354,-1.31461 4.907819,-0.0689 1.501228,1.38379 2.456887,1.86067 4.641549,2.31619 0.983832,0.20513 2.133843,0.55292 2.55558,0.77285 1.10188,0.57464 3.606521,0.51746 4.837282,-0.11043 1.972951,-1.00652 3.200359,-3.0261 3.204079,-5.27199 l 0.0015,-0.89078 7.871346,0.14085 c 8.27367,0.14805 10.79103,0.40385 16.44679,1.67126 6.19319,1.38785 12.87301,4.12423 17.36685,7.11433 2.74283,1.82502 6.31489,5.56539 8.0916,8.47286 0.7534,1.2329 1.45658,2.24163 1.56263,2.24163 0.39725,0 0.4591,-1.10426 0.13142,-2.34643 -0.47731,-1.8094 -2.02607,-4.65045 -3.58628,-6.57869 -4.65283,-5.75036 -15.22575,-11.62577 -26.34016,-14.63733 -4.5258,-1.22631 -4.55842,-1.40047 -0.24524,-1.30944 7.3788,0.15572 16.98486,4.50134 23.97955,10.84796 4.17135,3.78487 6.56749,7.06782 9.06547,12.42059 1.396,2.99142 1.44325,4.99134 0.18871,7.98775 -0.46488,1.11033 -1.19394,2.47955 -1.62014,3.04271 -0.4262,0.56316 -0.77339,1.14299 -0.77152,1.28851 0.005,0.36336 1.39265,-1.28151 2.56567,-3.0405 z M 86.602815,123.45628 c -1.320298,-0.69245 -3.013288,-2.51051 -3.482926,-3.74024 -0.553257,-1.44868 -0.241818,-1.72731 1.320459,-1.18136 1.53815,0.53753 3.912011,0.27539 7.83801,-0.86553 1.767882,-0.51376 3.3415,-0.85551 3.496929,-0.75945 0.447583,0.27662 0.03169,2.44218 -0.713081,3.71304 -0.706072,1.20482 -2.311125,2.45613 -3.802519,2.96446 -1.265607,0.43138 -3.716077,0.36248 -4.656872,-0.13092 z m 5.228229,-0.56554 c 2.058629,-0.91063 3.635312,-3.0142 3.635312,-4.85013 0,-0.41879 -0.0633,-0.76144 -0.140669,-0.76144 -0.07737,0 -1.344382,0.35759 -2.815586,0.79466 -3.823387,1.13584 -5.799587,1.40934 -7.553011,1.04533 -0.791422,-0.16429 -1.513582,-0.22409 -1.6048,-0.13287 -0.267856,0.26786 0.710337,1.86363 1.786609,2.91458 1.811282,1.76867 4.149622,2.11455 6.692145,0.98987 z m -6.94802,-5.58988 c 0,-0.3037 0.349194,-0.42543 3.082385,-1.07457 4.408732,-1.04707 6.945804,-1.32728 11.734281,-1.296 5.51089,0.036 7.36704,0.30526 3.96875,0.57575 -4.039731,0.32155 -6.80294,0.31368 -7.205611,-0.0205 -0.297664,-0.24704 -0.930505,-0.17506 -2.938019,0.33419 -2.178674,0.55267 -4.535613,1.02602 -7.914182,1.58945 -0.400183,0.0667 -0.727604,0.018 -0.727604,-0.10832 z m 23.986296,26.83596 c 1.7243,-0.51206 2.97571,-1.37057 3.62944,-2.48991 l 0.52457,-0.89818 -0.72345,-0.62228 c -0.76007,-0.65379 -2.70521,-0.94022 -2.06977,-0.30478 0.93216,0.93217 -0.33175,2.58446 -2.40378,3.14239 -3.43578,0.92517 -6.55792,-1.2156 -9.077837,-6.22442 -1.641616,-3.26303 -1.572869,-3.65803 0.811273,-4.66135 1.014444,-0.42691 2.029714,-0.77621 2.256144,-0.77621 0.25392,0 0.85049,0.8872 1.55674,2.31511 0.98903,1.99966 3.30531,5.62239 3.59481,5.62239 0.0535,0 0.2986,0.0773 0.54465,0.17167 0.30599,0.11742 0.14858,-0.27972 -0.49815,-1.25677 -0.52003,-0.78564 -1.69387,-2.91672 -2.60854,-4.73573 -0.98511,-1.95911 -1.84041,-3.33998 -2.09818,-3.38747 -0.73605,-0.13562 -4.810184,1.58065 -5.580278,2.35074 -0.861663,0.86167 -0.812901,1.49148 0.330561,4.26949 2.451379,5.95555 7.081857,8.88996 11.811797,7.48531 z m -0.16371,-2.05297 c 1.6912,-0.85282 1.66558,-1.3582 -0.0888,-1.75081 -2.04691,-0.45807 -3.46317,-2.11817 -5.8423,-6.84814 -0.53066,-1.05503 -1.00951,-1.91823 -1.06411,-1.91823 -0.26692,0 -3.61547,1.66589 -3.733981,1.85765 -0.222445,0.35992 0.88078,2.89939 2.142301,4.93128 1.2516,2.01591 2.59812,3.37007 3.92599,3.94827 1.27988,0.55731 3.30936,0.4615 4.66086,-0.22002 z m -24.581388,-2.98889 c 2.326548,-0.82085 4.198385,-2.72384 4.198385,-4.26826 0,-0.54512 -0.669446,-1.62689 -1.310775,-2.11811 -0.224959,-0.1723 -0.91307,-0.44142 -1.529136,-0.59802 -1.300171,-0.33051 -1.361302,-0.48078 -1.459078,-3.58661 l -0.06664,-2.11667 -1.000188,-0.0826 c -1.840156,-0.15196 -5.495897,1.22221 -7.308071,2.74705 -2.472371,2.08037 -2.50693,5.62545 -0.07934,8.13912 2.272989,2.35359 5.321317,3.02495 8.554842,1.88409 z m -4.97214,-1.55794 c -2.316057,-0.72434 -3.529475,-2.22667 -3.529475,-4.36983 0,-2.04801 1.131904,-3.34136 4.056031,-4.63455 2.210437,-0.97756 2.558552,-0.91811 2.558552,0.43695 0,0.6089 0.257711,1.63945 0.57269,2.29011 0.463587,0.95764 0.816425,1.28599 1.852083,1.72355 1.178442,0.49787 1.279394,0.61268 1.279394,1.45502 0,0.71549 -0.219864,1.12365 -1.01033,1.8756 -1.583683,1.50652 -3.545303,1.92171 -5.778945,1.22315 z m 36.407858,-0.004 c 1.52799,-1.35707 2.47099,-1.61502 4.96861,-1.35913 2.03579,0.20857 3.1879,0.64736 4.5664,1.73916 1.17834,0.93325 1.4763,0.97934 1.84751,0.28572 0.75861,-1.41746 -0.21906,-4.56365 -1.84268,-5.92984 -2.62383,-2.2078 -5.92273,-2.8337 -9.2673,-1.75828 -3.94011,1.26691 -5.60723,3.60294 -4.29269,6.01507 0.42935,0.78784 2.02144,2.18483 2.48997,2.18483 0.11239,0 0.80097,-0.52989 1.53018,-1.17753 z m -2.35719,-1.18633 c -0.15064,-0.28147 -0.27389,-0.93632 -0.27389,-1.45521 0,-1.93128 2.96592,-3.85644 5.935,-3.85237 3.15982,0.004 6.42721,2.33196 6.1893,4.40914 -0.10085,0.88046 -0.22431,0.88964 -3.26008,0.24228 -2.5186,-0.53707 -4.22254,-0.3874 -6.01508,0.52837 -1.51323,0.77307 -2.21137,0.80771 -2.57525,0.12779 z"
       id="path1" /></g></svg>
