<svg xmlns="http://www.w3.org/2000/svg" xml:space="preserve" width="451.304" height="428.346" viewBox="0 0 119.407 113.333"><path d="M63.872 224.137c-8.688-2.376-11.844-5.753-17.552-9.623-4.684-3.118-10.006-9.077-11.087-11.114-.416-.786-1.445-2.669-2.144-3.76l-5.604-8.585-4.128-1.33c-11.527-3.714-15.693-6.168-17.676-10.398-.46-.983-.39-6.986-.391-8.34-.004-2.631 1.46-4.24 3.02-5.81 1.92-1.932 3.735-1.878 8.22-1.88 4.043 0 2.8 2.686 1.668-.747-.36-1.091-1.119-3.141-1.34-4.929-.666-5.355-.71-5.898.005-10.342 1.209-7.524 4.523-11.783 10.563-18.174 6.366-7.389 10.167-11.438 19.918-15.098 4.018-1.508 8.947-2.723 15.875-2.707 15.68.037 26.243 2.578 34.675 6.692 4.742 2.313 14.4 7.76 18.05 11.386 5.213 5.205 7.685 13.358 8.45 20.222 1.443 12.97-2.542 25.576-7.003 38.233-1.096 3.11-5.676 8.091-7.644 10.397-.808.946-1.867 3.019-3.06 4.466-4.076 4.943-8.803 9.257-14.407 13.149-5.035 3.897-6.62 4.631-13.309 7.666-2.556 1.16-11.87 1.509-15.1.626m15.077-5.233c3.134-.789 7.425-2.589 8.684-3.642.608-.509 2.871-1.955 3.9-2.65 4.053-2.737 9.972-8.352 11.694-10.744.778-1.08.226-.719-3.022 1.979-8.848 7.348-15.826 11.626-21.133 12.955-2.9.727-9.452.988-13.137.524-6.85-.862-10.746-2.788-19-9.394-5.574-4.46-6.3-5.27-9.534-10.632-3.85-6.38-4.178-6.971-3.99-7.158.234-.235 3.331.672 4.266 1.25.447.276 1.333 1.4 2.019 2.56l3.218 5.434c5.083 8.572 9.133 12.155 16.33 14.445 4.658 1.482 6.563 1.768 11.768 1.768 3.733 0 5.134-.101 6.482-.469 2.632-.717 5.645-2.287 8.996-4.688 6.109-4.377 10.37-8.53 18.47-17.994 2.552-2.983 6.319-7.15 8.37-9.26 3.509-3.61 4.996-5.558 4.569-5.986-.103-.103-1.05.686-2.105 1.752-7.48 7.553-16.78 11.86-30.098 13.935-2.432.38-4.66.474-11.112.474-9.02 0-12.352-.515-18.795-1.7-4.664-.857-3.907-.949-7.194-1.87-.862-.24-.53-1.269.1-1.664.328-.207.83-.098 2.029.44 2.154.966 4.955 1.654 9.289 2.28 15.875 2.291 30.575.564 41.238-4.846 7.907-4.012 14.881-9.73 18.411-15.099 1.09-1.658 2.209-4.43 2.417-5.99l.156-1.173-.608 1.019c-1.733 2.901-2.728 4.286-4.89 6.804-2.93 3.414-5.094 5.395-8.083 7.399-4.917 3.296-10.397 5.29-17.798 6.472-14.22 2.272-22.085 2.948-29.12 2.504-4.159-.262-9.611-1.237-12.576-2.248a61 61 0 0 0-3.548-1.08c-2.073-.537-4.841-2.477-7.492-3.934-.724-.398.447-.053-3.392-3.166-20.075-16.278-14.23-19.047-14.382-17.342-.554 6.204 5.33 11.588-7.01 6.309-.875.154-1.768 1.356-2.52 2.149-1.544 1.625-2.698 4.064-1.994 6.486 1.014 3.489 1.029 6.844 6.63 9.58 2.202 1.076 8.143 1.433 10.662 2.487 4.495 1.882 4.591 1.939 5.275 3.13.382.666 1.775 2.97 3.094 5.118s2.863 4.767 3.432 5.82c1.457 2.699 5.635 6.644 11.401 10.764 1.31.936 2.773 2.037 3.253 2.448 1.856 1.59 6.401 3.398 10.78 4.29 5.14 1.046 11.793 1.112 15.6.154m-58.082-36.268c-4.759 0-4.368.48-6.637-4.193-.788-1.924-.608-1.989-.73-2.88-.148-1.078.62-4.092 2.836-4.959s6.724.31 7.844 2.89l1.187 2.734.888 2.488c.814 2.284.68 2.893.244 3.124-.723.384-3.61.796-5.632.796m57.289 2.418c7.9-.72 13.373-.79 14.42-.97zm2.383-7.039c1.755-.888 2.814-2.247 2.854-3.663.055-1.96-1.242-3.07-3.589-3.07-1.905 0-2.495-.494-3.603-3.015-.81-1.844-.95-2.013-1.655-2.013-.893 0-3.481 1.243-4.668 2.242-1.512 1.272-1.773 3.897-.614 6.17.693 1.358 2.922 3.346 4.334 3.866 1.837.676 5.058.436 6.941-.517m-31.257.275c3.158-.822 5.332-3.265 4.676-5.253-.403-1.22-1.144-1.827-2.452-2.004l-1.098-.149-1.472-3.19a138 138 0 0 0-3.06-6.148c-1.815-3.383-1.998-3.48-4.26-2.273-.713.38-2.583 1.353-4.156 2.16-2.667 1.371-3.887 2.34-3.887 3.089 0 .172.19.95.42 1.728.306 1.03.806 1.82 1.837 2.9.779.816 1.65 2.032 1.938 2.701.527 1.23 2.56 3.363 4.102 4.303l.964.575c0 .202 2.054 1.285 2.996 1.58 1.448.453 1.647.451 3.452-.019m46.353-10.786c2.714-1.377 4.084-3.797 4.084-7.212 0-1.848-.377-3.183-.964-3.408-.621-.239-10.792 2.411-13.786 3.592-1.618.638-1.7.949-.753 2.82 2.2 4.34 7.39 6.253 11.419 4.208m22.807-2.835c.533-.8 1.245-2.136 1.582-2.97 1.389-3.438 1.031-5.718.684-12.677-.22-4.418-2.286-8.191-3.954-11.304-2.415-4.51-2.187-6.039-15.011-13.201-12.846-7.174-17.467-8.36-25.46-9.067-11.572-1.024-25.417.865-33.667 5.31-2.696 1.451-4.704 3.06-7.004 5.609l-4.884 5.41c-5.004 5.543-7.47 9.232-8.815 13.186-1.62 4.767-1.288 9.159 1.066 14.08 1.035 2.162 1.757 2.884 1.455 1.454-.085-.4-.213-1.011-.284-1.358s-.13-2.193-.13-4.101c0-6.252 1.214-9.317 5.306-13.402 2.187-2.184 2.902-2.712 5.312-3.926 1.907-.96 3.026-1.374 3.55-1.313.745.087.722.12-.831 1.206-3.718 2.601-7.516 6.807-9.425 10.438-2.041 3.883-2.3 8.68-.729 13.515.462 1.419.948 2.58 1.082 2.58.472 0 .79-1.044.79-2.594 0-1.972.638-5.74 1.352-7.99q2.746-8.653 13.161-12.948c3.175-1.31 3.556-1.315 4.908-.07 1.501 1.385 2.457 1.862 4.641 2.317.984.205 3.288-.129 3.72-.33 1.795-.833 1.781-.926 3.04-2.069 1.33-1.206 1.067-3.054 2.696-3.04l9.014.08c8.274.148 10.791.403 16.447 1.67 6.193 1.389 12.873 4.125 17.367 7.115 2.743 1.825 6.315 5.566 8.091 8.473.754 1.233 1.457 2.242 1.563 2.242.397 0 .46-1.105.131-2.347-.477-1.81-2.026-4.65-3.586-6.578-4.653-5.75-15.226-11.626-26.34-14.638-4.526-1.226-4.558-1.4-.245-1.31 7.379.156 16.985 4.502 23.98 10.849 4.17 3.785 6.567 7.068 9.065 12.42 1.396 2.992 1.443 4.992.188 7.988-.464 1.11-1.193 2.48-1.62 3.043-.426.563-.773 1.143-.771 1.288.005.364 1.392-1.281 2.565-3.04m-67.01-23.459c-1.32-.692-3.013-2.51-3.482-3.74-.554-1.449-.242-1.727 1.32-1.181 1.538.537 3.912.275 7.838-.866 1.768-.514 3.342-.855 3.497-.76.448.277.032 2.443-.713 3.714-.706 1.205-2.311 2.456-3.802 2.964-1.266.432-3.717.363-4.657-.13M73.7 161.89c1.724-.511 3.975-1.881 3.63-2.489 0 0 .066-.04-.66-1.158-.725-1.118-2.477.166-3.22-.233-.943-.505-1.605-2.101-1.605-2.101-.52-.786-1.694-2.917-2.609-4.736-.985-1.96-1.84-3.34-2.098-3.388-.736-.135-4.81 1.581-5.58 2.351-.862.862-.813 1.492.33 4.27 2.452 5.955 7.082 8.89 11.812 7.485m-24.745-5.04c2.327-.822 4.198-2.725 4.198-4.27 0-.544-.669-1.626-1.31-2.117-.225-.173-.913-.442-1.53-.598-1.3-.33-1.36-.481-1.459-3.587l-.066-2.117-1-.082c-1.84-.152-5.496 1.222-7.308 2.747-2.473 2.08-2.507 5.625-.08 8.139 2.273 2.354 5.322 3.025 8.555 1.884m31.436-1.563c1.528-1.357 2.47-1.615 4.968-1.359 2.036.209 3.188.647 4.567 1.74 1.178.932 1.476.978 1.847.285.759-1.418-.219-4.564-1.842-5.93-2.624-2.208-5.923-2.834-9.268-1.758-3.94 1.267-5.607 3.603-4.292 6.015.429.788 2.021 2.185 2.49 2.185.112 0 .8-.53 1.53-1.178" style="fill:#000" transform="translate(-5.287 -111.3)"/></svg>