<?xml version="1.0" encoding="UTF-8"?>
<svg xmlns="http://www.w3.org/2000/svg" viewBox="0 0 124.32 118.89">
  <g>
    <path d="m92.63,110.78c.18,1.23.52,2.27.45,3.28-.2,2.89-2.39,4.71-5.57,4.72-6.22.02-12.44,0-18.66,0-10.58,0-21.16,0-31.74,0-3.17,0-5.37-1.8-5.6-4.7-.08-1.01.27-2.05.45-3.27-7.66-3.11-14.09-8.04-18.9-14.98-4.81-6.95-7.15-14.71-7.3-23.17-.6-.15-1.13-.26-1.63-.43-2.43-.81-3.83-3.12-3.44-5.65.35-2.31,2.4-4.11,4.8-4.22.25-.01.5,0,.75,0,37.36,0,74.72,0,112.08,0,3.82,0,6.38,2.94,5.49,6.29-.57,2.16-1.88,3.24-5.05,4.05-.16,8.36-2.46,16.13-7.27,23.08-4.78,6.9-11.13,11.88-18.87,14.98Z"/>
    <path d="m72.55,45.56c-.06.9,0,1.82-.21,2.68-.6,2.5-2.97,4.05-5.58,3.75-2.36-.27-4.4-2.35-4.36-4.8.1-5.53-1.49-10.54-4.1-15.33-4.36-8-6.28-16.61-6.19-25.7.03-3.26,2.07-5.49,5.07-5.49,2.98,0,5.09,2.24,5.06,5.5-.07,7.46,1.47,14.48,5.08,21.07,3.11,5.68,5.11,11.74,5.23,18.32Z"/>
    <path d="m46.86,45.95c.38,4.74-3.74,7-6.88,5.75-1.93-.77-3.23-2.19-3.21-4.3.06-6.05-1.88-11.46-4.7-16.7-2.31-4.29-3.9-8.87-4.74-13.7-.49-2.79,1.16-5.34,3.95-5.98,2.52-.58,5.4,1.01,5.89,3.65.99,5.35,3.3,10.15,5.69,14.94,2.56,5.14,3.84,10.6,4.01,16.34Z"/>
    <path d="m98.13,45.05c0,.85.07,1.71-.01,2.55-.25,2.4-2.22,4.27-4.58,4.4-2.54.15-4.8-1.35-5.26-3.76-.33-1.71-.26-3.49-.43-5.23-.35-3.65-1.72-6.98-3.38-10.2-2.51-4.87-4.67-9.86-5.68-15.29-.6-3.23.95-5.89,3.95-6.52,2.75-.58,5.38,1.28,5.98,4.36.78,4.02,2.23,7.78,4.12,11.4,2.5,4.78,4.47,9.74,5.08,15.15.12,1.04.17,2.1.26,3.15-.01,0-.03,0-.04,0Z"/>
  </g>
</svg>