<svg xmlns="http://www.w3.org/2000/svg" xml:space="preserve" width="463.883" height="470.803" viewBox="0 0 122.736 124.567"><path d="m128.627 210.115-1.543-.033-3.44-.363-3.44-.363-5.423-.661-5.424-.66-4.63-.539-4.63-.538-9.129-1.06-9.128-1.06-8.73-.922-8.732-.922-2.91-.401-2.911-.401-3.836-.244-3.837-.244-.486-.606-.486-.607-.673-.794-.673-.794-2.352-2.392-2.353-2.392 1.88-5.413 1.882-5.413 2.103-6.218 2.104-6.218 3.014-8.996 3.013-8.995.123-.926.122-.926.438-1.262.438-1.262.935-2.178.934-2.178 1.194-3.287 1.193-3.288 1.017-2.4 1.016-2.402.582-2.204.583-2.205.782-2.029.782-2.028 1.323-4.63 1.323-4.63.998-3.044 1-3.042 1.862-5.556 1.862-5.557 1.779-5.953 1.778-5.953.166-.172.166-.173 1.72.47 1.72.469 7.01 1.87 7.012 1.871 3.44 1.05 3.44 1.048 1.984.544 1.984.543 13.626 3.46 13.626 3.461 7.144 2.088 7.144 2.087 7.54 1.984 7.541 1.983.706.27.707.269-.538 1.8-.537 1.8-1.703 4.763-1.703 4.763-.277.661-.277.662-2.325 6.614-2.325 6.615-3.829 11.113-3.828 11.112-1.616 5.027-1.616 5.027-1.055 2.778-1.055 2.778-.61-.015-.609-.016-.555-.188-.555-.188-.155 2.717-.155 2.718-.659 2.778-.66 2.778-.794 2.646-.794 2.645-2.496 6.35-2.496 6.35-1.166 2.382-1.167 2.381-.436 1.124-.437 1.125zm-3.954-4.34 1.15-.062.76-.364.759-.364 1.908-3.679 1.908-3.678.344-.218.345-.219-.252-.004-.251-.004.317-.317.318-.318v-.952h.529v-.72l.654-.963.653-.963h-.285l.547-.768.548-.769v-.844h.56l-.145-.235-.145-.234.391-.325.391-.324-.145-.235-.145-.235h.649l-.174-.174-.174-.174.241-.29.242-.292.38-1.102.379-1.102-.16-.25-.16-.248-1.72-.287-1.72-.288-1.191-.159-1.19-.16-8.997-1.454-8.995-1.455-4.664-.78-4.664-.78h-2.27l.14.14.14.14-1.316 1.436-1.316 1.437-1.889 1.842-1.889 1.841-3.811 3.726-3.812 3.725-.157.015-.157.015-1.3 1.598-1.299 1.599-.619.912-.618.911v.544l.364.365.365.365.628.142.627.143.794.155.793.154.926.096.926.096 1.701.268 1.7.268.218-.134.218-.135v.506l.99-.066.99-.066.928.256.927.256.53.072.53.072 2.381.304 2.381.304.397.111.397.111 1.72.148 1.72.148.793.128.794.129.794.123.794.124 1.322.153 1.323.154.847.116.847.116 1.535.16 1.534.158 1.19.089 1.191.088 1.985.177 1.984.178.071.068.071.07zm6.115-8.063h-.132v-.264h.265v.264zm-50.11-15.877.184-.659.024-1.984.025-1.985.395-4.233.396-4.233.274-2.674.274-2.674.529-1.956.529-1.957.277-.546.277-.547 2.069-1.397 2.068-1.396.493.094.492.094.169 1.585.168 1.584.405 1.094.404 1.095.428.828.429.828-1.619 1.914-1.618 1.914-.342.661-.341.662-.177.573-.177.573.684-.075.684-.075.319-.4.32-.4 1.852-1.534 1.852-1.534 1.919-1.805 1.919-1.805h.584l-.145-.378-.145-.377.378-.314.379-.314-.127-.205-.126-.204.46-.361.46-.36-.363.462-.363.463h.676l-.372.48-.372.479 1.058-1.111 1.059-1.112.438-.228.438-.228 1.736-1.645 1.736-1.645.247.44.246.44 1.02-.768 1.018-.768.088-.21.088-.21h.584l.612-.574.612-.576v-.685l-.463.163-.463.163 1.059-.78 1.058-.779 1.675-1.011 1.674-1.011.258.258.258.258-.43 3.147-.43 3.148-.231 1.058-.233 1.058-.152.961-.152.96-1.277 1.687-1.276 1.686-.473.925-.474.925.581-.519.582-.518.976.046.976.047 1.19.154 1.191.154.662.093.661.093.066.06.067.06.463.048.463.048 1.19.229 1.19.228.742-.067.74-.067.372.308.37.308.476-.103.476-.103 1.058.414 1.059.414.661-.002.661-.002.133.172.132.172.844.133.843.133.215.127.215.126 1.323.162 1.323.161.595.134.595.135.595.137.596.137.883.148.884.147 1.1.397 1.102.397.516.107.516.107.893.424.894.424.328-.447.327-.448 1.404-3.742 1.404-3.741 1.59-4.101 1.59-4.101 2.184-5.557 2.184-5.556 1.058-3.175 1.057-3.175 3.353-9.26 3.353-9.26.111-.338.112-.336-.485-.485-.485-.485-2.22-.321-2.222-.321-4.233-1.335-4.234-1.334-2.767-.917-2.768-.917-1.052-.508-1.053-.509h-.126l.818 1.587.819 1.588-.021 1.124-.021 1.125-1.222 3.043-1.222 3.042-1.354 2.382-1.354 2.38-.62.84-.618.837-.732.161-.732.16-2.426-.497-2.426-.497-1.674 1.696-1.674 1.696-.87.543-.872.543-1.245-.18-1.246-.181-2.249-.744-2.249-.744-1.516-.313-1.516-.312-.988-1.252-.988-1.253-1.093-.824-1.092-.823-.459-1.634-.458-1.633-1.282-.532-1.281-.533-.518-1.23-.519-1.23-.312-.977-.311-.976.42-.814.422-.814 2.041-2.054 2.042-2.053 1.521-.786 1.522-.787.688-1.404.688-1.404 1.325-1.047 1.324-1.047-2.211-1.012-2.211-1.012-.702-.037-.701-.038-1.68-.64-1.68-.64-2.513-.966-2.514-.968-2.646-.786-2.646-.786-.448-.139-.448-.139-.396.609-.395.608-1.712 5.953-1.711 5.953-1.373 4.63-1.372 4.63-.117.662-.117.662-.284.926-.285.926-1.015 2.285-1.015 2.285-1.372 4.197-1.372 4.197-2.375 6.615-2.375 6.615-1.415 3.636-1.416 3.637-.407 1.372-.408 1.372v.088l.728.027.727.027.926.126.926.125 1.812.456 1.812.456.526.556.526.557.397.759.397.758-.01 2.152-.01 2.152-.41 4.63-.408 4.63-.243 3.037-.244 3.038.166.267.165.267zm7.248-13.227h-.133v-.264h.265v.264zm.545-.529h-.117l-.164-.264-.163-.265h.56v.529zm.604-.794h-.223v-.56l.264.164.265.163v-.504l.448-.172.448-.172-.489.54-.49.541zm1.497-1.322h-.133v-.265h.265v.265zm1.277-3.705h-.122l.188-.595.188-.595 3.268-3.601 3.268-3.601 2.898-2.55 2.897-2.551h6.996l-.156.155-.156.156-1.09.245-1.091.245-1.113.715-1.113.714-2.249 1.738-2.249 1.739-4.342 3.165-4.341 3.165-.78.728-.78.728zm4.279-1.852h-.132v-.264h.264v.264zm2.381-1.587h-.132v-.265h.264v.265zm.794-.53h-.132v-.264h.264v.265zm6.658-4.32-.176.175v-.705l.176.176.177.177zm34.824-.246-1.266.12-.619-.664-.619-.663.093-.487.093-.486 1.055-.225 1.056-.224.397-.2.397-.2.09-.606.089-.607-.308-1.098-.307-1.098.446-1.116.447-1.115.738-.526.738-.526h1.821l.438.484.438.484v1.084l-.427.354-.426.354-.963.009-.962.009.09 2.778.09 2.778-.677.634-.677.633zm-7.292-.306-1.646.133-.894-.458-.894-.458-.494-.81-.495-.81v-.596l-.002-.595-.198.004-.198.004-1.059.381-1.058.381-1.005.012-1.006.012-.767-.397-.767-.397-.675-.885-.675-.885.001-1.43.001-1.43.274-.987.274-.987 1.299-1.119 1.299-1.119 1.133-.606 1.134-.606h1.346l.59.413.589.413.395.764.395.765v2.666l-.529 1.392-.529 1.392v.397h1.304l.274.512.274.511v1.094h.443l.726-1.482.725-1.481.377-1.067.376-1.066-1.191.134-1.191.134v-1.215l.16-.415.159-.416 1.044-.281 1.044-.281.516.164.516.163v-1.286l1.142-.157 1.14-.156.645.164.645.164.573.369.572.369.42.884.42.884v1.522l-.42.6-.42.599-1.035.653-1.036.654v.523h1.252l.697-.549.697-.548v1.061l-1.187.973-1.187.972-.558.904-.559.904-.775.4-.776.402zm.197-2.536h.67l.546-.545.545-.546-.085-.446-.085-.447-.527-.07-.526-.072-.772.624-.772.624.168.44.169.438zm-8.647-3.179 1.247-.004.323-.205.323-.205.405-1.147.405-1.147v-2.05l-.199.007-.198.007-2.117.761-2.117.762.049 1.068.049 1.068.291.544.291.545zm11.22-1.101.875-.294.344-.27.344-.27-.08-.684-.079-.684h-1.315l-.306.661-.306.662-.176.587-.176.587zm-28.934 6.406-.618.317.457-.478.457-.478.16.161.162.161zm-1.147-.009h-.132v-.264h.264v.264zm9.689-1.145-1.255.149-.447-.447-.446-.446v-.46l.26-.162.262-.161.959.265.959.264 1.227-.415 1.227-.415.743-.526.743-.527.162.162.162.162-.64.686-.64.687-1.01.518-1.011.518zm-.243-2.028-.608-.001-.677-.728-.677-.728.14-1.322.14-1.323.93-2.723.932-2.722.854-1.854.854-1.853.886-.778.887-.778.68-.171.68-.17.992.296.991.297.452.499.45.498.147.903.147.902-.298 1.104-.297 1.103-.86 1.136-.859 1.136-.853.378-.853.379v.433h.775l.279.52.278.52-.175 1.134-.176 1.134-.965.926-.965.926-1.312.464-1.31.464zm.332-1.854h.179l.578-.297.577-.297.728-.678.728-.679v-.665l-.588-.411-.588-.412h-.662l-.382.736-.38.737-.185.983-.185.983zm2.459-5.907.992-.155.831-.948.831-.949.138-.717.138-.716-.274-.331-.273-.33-.563.003-.563.004-.315.2-.315.2-.81 1.805-.81 1.805v.285zm-14.333 4.849h-.312l-.317-.318-.318-.317v-1.175l.678-2.865.678-2.866.134-.463.133-.463h-1.389l.082-1.124.081-1.125 1.144-.082 1.144-.082.378.313.377.313v1.542l.987-.671.988-.671h1.623l.318.317.317.318v1.205l-.595.373-.595.373-1.374.443-1.373.442-.396 1.109-.395 1.108-.582 1.852-.581 1.853-.262.33-.262.331zm-2.638-1.384-.606.276-.294-.181-.294-.182-.18-1.123-.18-1.122-.19-.118-.19-.118-1.022.521-1.02.52h-1.529l-.753-.805-.752-.806-.915.998-.915.998h-2.139l-.655-.615-.655-.615-.31-.748-.309-.747.855-2.784.855-2.785.397-.153.397-.152.136.136.136.136-.438 1.994-.439 1.995v1.043h1.323v-.788l.797-2.837.796-2.836.236-.236.236-.236.801.176.802.177.255.313.255.314-.892 2.91-.892 2.91-.006.2-.007.198h.758l.59-.83.591-.83.508.698.508.697h.736l.423-.817.423-.818-.144-.373-.143-.373-.603-.004-.604-.004-.366-.232-.367-.232.162-.647.163-.647.554-.705.554-.704h.955l.319.384.319.384-.164.515-.163.515 1.476-.544 1.476-.543.302.302.303.303.016 1.232.017 1.233-.873.298-.873.298-.247.391-.248.391-.004.227-.004.228.728-.174.728-.173.463-.138.463-.138v1.122l-.41 1.802-.41 1.801zm-15.667-2.32h-.95l-.768-.822-.767-.822v-.443l.588-.412.588-.412h1.24l.511-.274.512-.273v-.586l.001-.586-1.231-1.805-1.232-1.804-.118-1.238-.118-1.239.886-1.304.886-1.304.961-.767.961-.768 1.051-.236 1.05-.236.87.249.869.25.492.445.493.446-.004.951-.003.951-.631 1.985-.632 1.984-.8.081-.8.082.367-1.537.368-1.536.009-.435.01-.434-.663-.166-.661-.166-1.04.53-1.041.531-.415.592-.414.591v.758l1.07 1.018 1.069 1.017h1.036v.331l-.548 2.335-.548 2.334-.777 1.072-.776 1.072zm-3.708 37.96.365-.522-.19-1.259-.192-1.26-.174-.173-.174-.174v3.91zm.93-1.033.29-.18.275-.514.275-.514h-.222l-.455.694-.455.694zm-.268-.792.233-.144.005-1.129.004-1.128-.219.53-.219.529-.019.743-.018.743zm1.167-1.607.229-1.058.525-2.117.524-2.117.387-.595.387-.595h-.477l-.327.394-.327.394-.21-.13-.21-.13.126-.595.126-.595-.305.48-.305.478.146.381.146.381h-.6l.167.167.167.167-.269.502-.268.502-.229-.141-.228-.141.075.464.075.464-.157.265-.158.265-.085.618-.085.618.233-.143.232-.144v.747l-.22-.136-.22-.137v.334l.411.412.413.412-.149.387-.148.387.19.306.189.307zm-.166-1.279-.176.176v-.705l.176.176.177.177zm-.044-.705h-.132v-.265h.265v.265zm.044-1.147-.176.176v-.705l.176.176.177.177zm.221-.706h-.132v-.265h.264v.265zm.53-.265h-.133v-.264h.264v.264zm.264-.793h-.133v-.265h.265v.265zm-2.619 3.632.16-.16-.139-.347-.139-.347-.02.507-.021.507zm.28-1.979.134-.33-.134-.331-.133-.33v1.322zm14.208-1.389.41-.397.29-1.984.288-1.984.537-2.514.537-2.513.138-.49.139-.49-3.4 2.961-3.4 2.963-.594.703-.594.703-.001.167-.002.167 2.82-.895 2.82-.895h.228l-.145.993-.144.992-.17 1.455-.168 1.455zm-13.942-.088.177-.176-.177-.177-.176-.176v.705zm15.709-1.022.228-.08 1.733-1.543 1.733-1.544v-.514l-1.211 1.139-1.21 1.139-.212.077-.212.077-.13-.685-.131-.684.609-2.039.61-2.038.685-1.842.685-1.842.372-.566.371-.567.178-1.031.179-1.031-.385.53-.385.528-.677 1.72-.677 1.72-.685 2.263-.685 2.263-.506 2.315-.506 2.316zm-15.356-.477.256-.397-.014-.397-.015-.397-.227.53-.227.528-.015.265-.015.265zm.705-.353.177-.176-.177-.177-.176-.176v.705zm1.307.016.16-.16-.14-.347-.138-.347-.021.507-.021.507zm1.163-.192h.353l-.177-.177-.176-.176-.176.176-.177.177zm-.662-.265h.133v-.265h-.265v.265zm1.059-.265h.132v-.264h-.264v.264zm14.112-1.494 1.28-1.286.476-1.454.476-1.454 1.163-3.144 1.163-3.145-.105-.105-.106-.106-.877 2.126-.878 2.125h-.416l.15.463.148.463-.285-.397-.286-.397-.004.375-.004.375-.153-.154-.154-.153.438-.667.437-.668-.086-.725-.085-.725-.397.774-.397.774-.327.346-.326.346-.698 2.3-.697 2.3-.365 1.134-.365 1.134v.832zm2.027-7.237h-.132v-.264h.265v.264zm-15.61 8.202h.132v-.264H87v.264zm-3.427-.994.387-.861.305-1.255.304-1.255.487-1.588.486-1.587-.106.595-.106.595h.48l-.005.463-.004.463-.214-.337-.214-.337-.302.998-.302 1 .48-.628.479-.628.161.42.162.421-.253.157-.253.156.03.448.031.447.122-.466.121-.467.311.178.31.178-.188-.21-.19-.209.267-.498.267-.498-.342.07-.342.07.098-.397.098-.397.034-.702.034-.701.199.122.198.122v-.334l-.397-.397-.397-.397v-.491l.503.503.503.502v1.905l-.305.004-.304.004.37.234.369.234-.163.424-.162.423h.512l.01-.86.011-.86.337-1.917.336-1.917-.21-.332-.211-.331-.004.595-.004.595h-.513l.174.454.175.455-.416-.388-.415-.389.226-.595.226-.595h-.312l.469-.728.468-.727-.552.487-.552.487-.671 1.678-.672 1.677-.778 2.995-.778 2.994-.145.794-.146.794zm2.413-5.444-.177.176v-.705l.177.176.176.177zm.75-1.764h-.133v-.264H87v.264zm-.516 7.408h.058l.117-.793.116-.794h-.702v1.235l.177.176.176.177zm16.126-.793h.132v-.265h-.264v.265zm3.44-.53h.132v-.264h-.265v.265zm-19.844-.529h.132v-.264h-.265v.264zm.661-.132.265-.163-.019-.58-.019-.58-.227.53-.227.529-.019.214-.018.214zm-1.455-.132h.132v-.265h-.264v.265zm19.58-2.381h.131v-.265h-.264v.265zm1.042-1.588h.116l.164-.264.164-.265h-.56v.529zm1.163-.784.618-.317-.162-.161-.161-.162-.457.479-.456.478zm-.618-.274h.132v-.265h-.265v.265zm1.547-.283.225.018.926-.992.925-.992.344-.397.343-.397.424-1.437.425-1.437v-.922l-.702.575-.703.575-1.43 1.323-1.428 1.323-.393.735-.393.736.159.257.159.256h-.56v.56l.198-.114.198-.115.53.213.528.213zm.576-.78-.404.334v-.562l.283-.175.282-.175.12.121.122.121zm-21.438-.79h.132v-.264H87v.265zm.265-1.058h.132v-.264h-.265v.264zm15.313-.793h.1l.363-.463.363-.463-.463.363-.463.363v.2zm2.943-1.059h.132v-.264h-.264v.264zm-1.415-.529h.132l.621-.661.622-.662h-.265l-.621.662-.622.661zm2.211-1.226.32-.758-.102-.117-.1-.116-.401.4-.4.4.182.475.182.475zm4.07-1.42h.237l.166-.434.167-.434-.403.334-.403.334v.2zm-1.385-2.397.704-.267.893-.785.893-.784h-.36l-1.417.94-1.416.94v.223zm2.064-.17.65-.475.142-.348.141-.347-.792.564-.791.563v.518zm.805-1.666h.132v-.265h-.264v.265zm43.92-20.902h.133v-.265h-.265v.265zm-24.309-5.292h.365v-.994l-.428-1.024-.428-1.025.02-.128.019-.128 1.399-.269 1.398-.268.068-.397.068-.397-.24-.373-.24-.372-.884.41-.884.411-.926.191-.926.19-.331.267-.331.267v-.355l.728-.632.727-.632-.453-.46-.453-.461-.17.444-.171.444h-.732l-.598-.923-.598-.923-.463-.003-.463-.003v.815l.56.758.56.758-.16.26-.16.26-.893.167-.892.167-.48.53-.48.53.31.312.311.31 1.258-.45 1.257-.45h.198l.199.001v1.588h.867l.327-.448.328-.447.462.91.463.91.264.331.264.331zm-10.477-2.782.259-.16v-1.19l-.389-.514-.388-.513-.008-.315-.008-.316 1.124-.222 1.125-.222v-1.041l-.566-.081-.565-.081-.89.543-.89.542-.301.001-.301.001-.174-.927-.174-.927-1.036-.528-1.035-.528h-.765l.144-1.125.143-1.124.085-.1.084-.098.457.959.458.959h.754l-.181-.993-.182-.992-.458-.793-.457-.793-.433-.083-.434-.084-.388.752-.389.752-.553 3.025-.552 3.026v1.548l1.607-.146 1.607-.146.51-.461.509-.461v1.176l.463-.137.463-.137.734 1.057.733 1.057zm-4.71-3.143-.852.17v-1.1l.307-.673.307-.674h.452l.519.853.518.853-.2.2-.2.2zm40.29-5.716h.133v-.265h-.265v.265zm-25.4-5.028h.133v-.264h-.265v.264zm2.646 0h.133v-.264h-.265v.264zM108.3 99.288h.132v-.265h-.265v.265zm-1.852-.794h.132v-.265h-.265v.265zm1.587 0h.132v-.265h-.264v.265zm-13.23-3.44h.133v-.264h-.264v.264zm.265-1.058h.133v-.265h-.265v.265z" style="fill:#000" transform="translate(-43.86 -85.581)"/></svg>