<?xml version="1.0" encoding="UTF-8" standalone="no"?>
<!-- Created with Inkscape (http://www.inkscape.org/) -->

<svg
   width="122.7358mm"
   height="124.56665mm"
   viewBox="0 0 122.7358 124.56665"
   version="1.1"
   id="svg1"
   xml:space="preserve"
   xmlns="http://www.w3.org/2000/svg"
   xmlns:svg="http://www.w3.org/2000/svg"><defs
     id="defs1" /><g
     id="layer1"
     transform="translate(-43.860833,-85.581266)"><path
       style="fill:#000000"
       d="m 128.6267,210.11505 -1.54264,-0.0329 -3.43958,-0.36325 -3.43958,-0.36325 -5.42396,-0.66064 -5.42396,-0.66063 -4.63021,-0.53833 -4.63021,-0.53834 -9.12812,-1.05972 -9.128125,-1.05972 -8.731249,-0.92236 -8.73125,-0.92235 -2.910416,-0.40083 -2.910417,-0.40084 -3.836458,-0.24373 -3.836458,-0.24373 -0.485828,-0.60692 -0.485827,-0.60692 -0.673079,-0.79375 -0.67308,-0.79375 -2.352709,-2.39213 -2.35271,-2.39213 1.881036,-5.41308 1.881035,-5.41307 2.103431,-6.21771 2.103431,-6.21771 3.013758,-8.99583 3.013758,-8.99584 0.122331,-0.92604 0.122331,-0.92604 0.438201,-1.26193 0.4382,-1.26193 0.934202,-2.17765 0.934203,-2.17765 1.193758,-3.28764 1.193758,-3.28763 1.016259,-2.40091 1.016258,-2.40091 0.582585,-2.20466 0.582586,-2.20467 0.782255,-2.02867 0.782256,-2.02866 1.322616,-4.63021 1.322616,-4.63021 0.998679,-3.04271 0.998678,-3.04271 1.862659,-5.55625 1.862658,-5.556246 1.778406,-5.953124 1.778405,-5.953125 0.165816,-0.172374 0.165817,-0.172373 1.719791,0.469274 1.719792,0.469275 7.011458,1.870687 7.011458,1.870686 3.439585,1.049063 3.43958,1.049063 1.98438,0.543501 1.98437,0.543501 13.62604,3.460557 13.62604,3.460555 7.14375,2.08721 7.14375,2.08721 7.54063,1.98371 7.54062,1.9837 0.70628,0.26924 0.70629,0.26925 -0.53738,1.80059 -0.53738,1.80059 -1.70279,4.7625 -1.7028,4.7625 -0.2771,0.66146 -0.2771,0.66146 -2.32524,6.61458 -2.32524,6.61458 -3.82849,11.1125 -3.82848,11.1125 -1.61602,5.02708 -1.61601,5.02709 -1.05486,2.77812 -1.05486,2.77813 -0.6092,-0.0158 -0.6092,-0.0158 -0.55516,-0.18771 -0.55516,-0.18771 -0.15505,2.71707 -0.15505,2.71706 -0.65906,2.77812 -0.65906,2.77813 -0.79461,2.64583 -0.7946,2.64584 -2.49564,6.35 -2.49565,6.35 -1.16669,2.38125 -1.16669,2.38125 -0.43636,1.12447 -0.43636,1.12448 z m -3.95404,-4.34043 1.15029,-0.062 0.7595,-0.36402 0.7595,-0.36402 1.90813,-3.67828 1.90813,-3.67828 0.34418,-0.21831 0.34417,-0.21832 -0.25135,-0.004 -0.25136,-0.004 0.3175,-0.3175 0.3175,-0.3175 v -0.47625 -0.47625 h 0.26459 0.26458 v -0.35995 -0.35996 l 0.65349,-0.96296 0.65348,-0.96296 h -0.14233 -0.14234 l 0.54718,-0.76845 0.54719,-0.76845 v -0.42218 -0.42217 h 0.2802 0.28019 l -0.14499,-0.23461 -0.14499,-0.2346 0.39105,-0.32454 0.39104,-0.32454 -0.14499,-0.23461 -0.14499,-0.2346 h 0.32429 0.3243 l -0.17409,-0.1741 -0.1741,-0.17409 0.24152,-0.29101 0.24152,-0.29102 0.37969,-1.10204 0.37968,-1.10205 -0.16048,-0.24922 -0.16048,-0.24923 -1.71979,-0.28704 -1.71979,-0.28704 -1.19063,-0.15948 -1.19062,-0.15947 -8.99583,-1.45458 -8.99584,-1.45458 -4.66356,-0.78044 -4.66356,-0.78044 h -1.13522 -1.13523 l 0.13987,0.13986 0.13986,0.13986 -1.31606,1.43687 -1.316057,1.43686 -1.888561,1.84174 -1.888561,1.84173 -3.811963,3.72529 -3.811964,3.72528 -0.156786,0.015 -0.156786,0.015 -1.299392,1.59836 -1.299392,1.59835 -0.618837,0.91191 -0.618837,0.91191 v 0.27173 0.27173 l 0.364913,0.36492 0.364914,0.36491 0.627274,0.1426 0.627274,0.1426 0.79375,0.15473 0.79375,0.15473 0.926041,0.0957 0.926042,0.0957 1.700671,0.26808 1.700672,0.26807 0.217558,-0.13445 0.217557,-0.13446 v 0.25313 0.25313 l 0.990294,-0.0662 0.990294,-0.0662 0.927087,0.25598 0.927087,0.25598 0.530015,0.0721 0.530014,0.0721 2.38125,0.30392 2.381249,0.30393 0.39688,0.11106 0.39687,0.11107 1.71979,0.14814 1.71979,0.14813 0.79375,0.12809 0.79375,0.1281 0.79375,0.12373 0.79375,0.12373 1.32292,0.15328 1.32292,0.15329 0.84685,0.11626 0.84685,0.11626 1.5344,0.15901 1.5344,0.15901 1.19062,0.0886 1.19063,0.0886 1.98437,0.17712 1.98438,0.17712 0.0712,0.0689 0.0712,0.0689 z m 6.11557,-8.06212 h -0.13229 v -0.13229 -0.1323 h 0.13229 0.13229 v 0.1323 0.13229 z m -50.110066,-15.87767 0.183362,-0.65879 0.02454,-1.98437 0.02454,-1.98438 0.395522,-4.23333 0.395522,-4.23334 0.274051,-2.67381 0.274051,-2.67381 0.529129,-1.9564 0.529129,-1.95639 0.277004,-0.54665 0.277004,-0.54664 2.068671,-1.39663 2.068671,-1.39664 0.492354,0.0942 0.492354,0.0942 0.16853,1.58452 0.16853,1.58452 0.404433,1.0944 0.404433,1.0944 0.428312,0.82826 0.428311,0.82827 -1.618437,1.91379 -1.618436,1.9138 -0.341507,0.66146 -0.341506,0.66145 -0.176622,0.57321 -0.176623,0.5732 0.683549,-0.075 0.683548,-0.075 0.319451,-0.40064 0.319451,-0.40064 1.852083,-1.53347 1.852083,-1.53348 1.919027,-1.8052 1.919027,-1.8052 h 0.292093 0.292093 l -0.144872,-0.37753 -0.144872,-0.37753 0.378235,-0.31391 0.378234,-0.3139 -0.126465,-0.20463 -0.126465,-0.20462 0.460107,-0.36071 0.460108,-0.36071 -0.363126,0.46302 -0.363126,0.46302 h 0.337987 0.337988 l -0.371737,0.47938 -0.371736,0.47938 1.058333,-1.11134 1.058334,-1.11135 0.437878,-0.22793 0.437874,-0.22793 1.73644,-1.64534 1.73643,-1.64534 0.24641,0.44032 0.24642,0.44031 1.01885,-0.76839 1.01886,-0.76839 0.0882,-0.2094 0.0882,-0.20939 h 0.29163 0.29163 l 0.61236,-0.57529 0.61237,-0.57529 v -0.34245 -0.34245 l -0.46303,0.16285 -0.46302,0.16285 1.05834,-0.77946 1.05833,-0.77946 1.67465,-1.01111 1.67465,-1.01111 0.25806,0.25806 0.25805,0.25806 -0.42983,3.1473 -0.42984,3.14729 -0.23217,1.05833 -0.23217,1.05833 -0.15232,0.96079 -0.15232,0.96078 -1.27626,1.6859 -1.27625,1.6859 -0.47364,0.92519 -0.47363,0.92519 0.58147,-0.5186 0.58146,-0.5186 0.97609,0.0466 0.97608,0.0466 1.19063,0.15414 1.19062,0.15414 0.66146,0.0931 0.66146,0.0931 0.0662,0.0593 0.0661,0.0593 0.46302,0.0487 0.46302,0.0487 1.19063,0.2283 1.19062,0.22831 0.74093,-0.0668 0.74093,-0.0668 0.37084,0.30777 0.37084,0.30777 0.47573,-0.10318 0.47573,-0.10319 1.05834,0.41395 1.05833,0.41395 0.66146,-0.002 0.66146,-0.002 0.13229,0.17236 0.13229,0.17236 0.84368,0.13273 0.84368,0.13273 0.21465,0.12684 0.21466,0.12683 1.32291,0.1613 1.32292,0.16129 0.59531,0.13439 0.59531,0.13438 0.59532,0.13708 0.59531,0.13708 0.88353,0.14758 0.88354,0.14758 1.10084,0.39689 1.10084,0.3969 0.51606,0.10722 0.51607,0.10722 0.89371,0.42409 0.89371,0.42409 0.32756,-0.44796 0.32757,-0.44797 1.4041,-3.74146 1.4041,-3.74147 1.59005,-4.10104 1.59004,-4.10104 2.18374,-5.55625 2.18373,-5.55625 1.05777,-3.175 1.05778,-3.175 3.35265,-9.26041 3.35264,-9.26042 0.11159,-0.33673 0.11158,-0.33673 -0.48486,-0.48486 -0.48486,-0.48486 -2.22112,-0.32118 -2.22111,-0.32118 -4.23333,-1.33423 -4.23334,-1.33424 -2.76748,-0.91707 -2.76748,-0.91708 -1.05253,-0.50852 -1.05253,-0.50853 h -0.0634 -0.0634 l 0.81868,1.58739 0.81868,1.58739 -0.021,1.12459 -0.021,1.12459 -1.22179,3.04271 -1.2218,3.04271 -1.35434,2.38125 -1.35434,2.38125 -0.61891,0.83819 -0.6189,0.8382 -0.73201,0.16077 -0.73201,0.16078 -2.42566,-0.49753 -2.42566,-0.49752 -1.67406,1.69596 -1.67407,1.69595 -0.87091,0.54297 -0.87092,0.54296 -1.24575,-0.18056 -1.24575,-0.18055 -2.24896,-0.74394 -2.24896,-0.74394 -1.51593,-0.31215 -1.51593,-0.31215 -0.98812,-1.2526 -0.98811,-1.2526 -1.09274,-0.82374 -1.09274,-0.82373 -0.45826,-1.63324 -0.45826,-1.63324 -1.28157,-0.53259 -1.28157,-0.5326 -0.51828,-1.2303 -0.51829,-1.2303 -0.31183,-0.97599 -0.31184,-0.97599 0.42109,-0.81428 0.42108,-0.81428 2.04148,-2.0534 2.04149,-2.05341 1.52164,-0.78653 1.52165,-0.78654 0.68799,-1.40411 0.68799,-1.40411 1.32464,-1.04707 1.32464,-1.04707 -2.21136,-1.01168 -2.21136,-1.01167 -0.70143,-0.0377 -0.70144,-0.0377 -1.67981,-0.63945 -1.67982,-0.63946 -2.51354,-0.967424 -2.513536,-0.967425 -2.645833,-0.785813 -2.645833,-0.785814 -0.4483,-0.139135 -0.448301,-0.139135 -0.395583,0.60847 -0.395582,0.60847 -1.711435,5.953126 -1.711435,5.95312 -1.372374,4.63021 -1.372374,4.63021 -0.116725,0.66146 -0.116726,0.66146 -0.284644,0.92604 -0.284644,0.92604 -1.015077,2.2851 -1.015077,2.2851 -1.372262,4.19719 -1.372262,4.19719 -2.374542,6.61459 -2.374543,6.61458 -1.415599,3.63669 -1.4156,3.63669 -0.407519,1.37227 -0.40752,1.37227 v 0.044 0.044 l 0.727604,0.027 0.727604,0.027 0.926042,0.12547 0.926041,0.12547 1.811605,0.45557 1.811605,0.45558 0.525951,0.5567 0.525952,0.55669 0.397295,0.7587 0.397295,0.7587 -0.01027,2.15172 -0.01027,2.15172 -0.408957,4.63021 -0.408956,4.6302 -0.24323,3.03722 -0.24323,3.03722 0.165265,0.26741 0.165265,0.2674 z m 7.247568,-13.2265 H 87.79344 v -0.13229 -0.13229 h 0.132292 0.132291 v 0.13229 0.13229 z m 0.544781,-0.52916 H 88.353837 L 88.190315,167.81458 88.026794,167.55 h 0.280198 0.280198 v 0.26458 0.26459 z m 0.604837,-0.79375 h -0.223577 v -0.2802 -0.2802 l 0.264584,0.16352 0.264583,0.16352 v -0.25189 -0.25189 l 0.448186,-0.17198 0.448187,-0.17199 -0.489194,0.54055 -0.489193,0.54056 z m 1.496215,-1.32292 h -0.132292 v -0.13229 -0.13229 h 0.132292 0.132292 v 0.13229 0.13229 z m 1.277106,-3.70417 h -0.12214 l 0.188124,-0.59531 0.188125,-0.59531 3.268352,-3.60091 3.268353,-3.6009 2.897045,-2.55066 2.89704,-2.55066 h 3.49799 3.49799 l -0.15579,0.15579 -0.15578,0.15579 -1.09058,0.24503 -1.09057,0.24504 -1.11284,0.71432 -1.11284,0.71432 -2.24896,1.73853 -2.24896,1.73853 -4.341739,3.16507 -4.34174,3.16506 -0.77947,0.72814 -0.77947,0.72813 z m 4.279144,-1.85208 h -0.132292 v -0.13229 -0.13229 h 0.132292 0.132291 v 0.13229 0.13229 z m 2.38125,-1.5875 h -0.132292 v -0.13229 -0.13229 h 0.132292 0.132291 v 0.13229 0.13229 z m 0.79375,-0.52917 h -0.132292 v -0.13229 -0.13229 h 0.132292 0.132291 v 0.13229 0.13229 z m 6.658675,-4.32152 -0.17638,0.17638 v -0.35277 -0.35278 l 0.17638,0.17639 0.17639,0.17639 z m 34.82339,-0.24529 -1.2654,0.11966 -0.61926,-0.66324 -0.61926,-0.66323 0.0929,-0.48663 0.0929,-0.48662 1.05553,-0.22423 1.05552,-0.22422 0.39688,-0.19967 0.39687,-0.19967 0.0897,-0.60718 0.0896,-0.60718 -0.30743,-1.09803 -0.30743,-1.09803 0.44632,-1.11545 0.44631,-1.11546 0.73836,-0.52575 0.73835,-0.52576 h 0.91034 0.91034 l 0.43788,0.48386 0.43788,0.48385 v 0.54208 0.54209 l -0.42655,0.354 -0.42655,0.35401 -0.96251,0.009 -0.96251,0.009 0.0905,2.77812 0.0905,2.77813 -0.67716,0.63332 -0.67716,0.63332 z m -7.29213,-0.30572 -1.64619,0.13324 -0.89389,-0.45799 -0.8939,-0.458 -0.49418,-0.81038 -0.49417,-0.81038 -9.9e-4,-0.59531 -9.9e-4,-0.59531 -0.19844,0.004 -0.19844,0.004 -1.05833,0.38128 -1.05833,0.38128 -1.00533,0.0116 -1.00533,0.0116 -0.76693,-0.3966 -0.76693,-0.3966 -0.67514,-0.88515 -0.67513,-0.88514 10e-4,-1.43024 0.001,-1.43023 0.2741,-0.98698 0.27411,-0.98699 1.29868,-1.11865 1.29868,-1.11866 1.13362,-0.60634 1.13363,-0.60634 h 0.67282 0.67283 l 0.58955,0.41294 0.58955,0.41293 0.39536,0.76455 0.39536,0.76455 v 1.33322 1.33322 l -0.52903,1.3919 -0.52903,1.3919 -1.4e-4,0.19844 -1.3e-4,0.19843 h 0.65215 0.65215 l 0.27389,0.51178 0.27389,0.51177 v 0.54656 0.54656 h 0.22166 0.22165 l 0.72536,-1.48138 0.72536,-1.48138 0.37632,-1.06662 0.37633,-1.06662 -1.19105,0.13425 -1.19104,0.13425 v -0.60732 -0.60732 l 0.15949,-0.41564 0.1595,-0.41564 1.04414,-0.28116 1.04413,-0.28115 0.51616,0.16382 0.51616,0.16382 v -0.64333 -0.64332 l 1.14118,-0.15642 1.14117,-0.15641 0.64477,0.16394 0.64476,0.16394 0.57251,0.36888 0.57252,0.36888 0.41967,0.88439 0.41967,0.88439 v 0.76104 0.76103 l -0.4196,0.59907 -0.4196,0.59907 -1.03561,0.65375 -1.03561,0.65374 v 0.26127 0.26126 h 0.62578 0.62578 l 0.69714,-0.54837 0.69714,-0.54837 v 0.53066 0.53066 l -1.18682,0.9725 -1.18681,0.9725 -0.55852,0.90371 -0.55852,0.90371 -0.77567,0.40111 -0.77566,0.40111 z m 0.19759,-2.5358 h 0.66976 l 0.54544,-0.54543 0.54543,-0.54544 -0.0851,-0.44675 -0.0851,-0.44676 -0.52646,-0.0708 -0.52647,-0.0708 -0.77214,0.62382 -0.77215,0.62383 0.16853,0.43918 0.16853,0.43918 z m -8.64749,-3.17905 1.24746,-0.004 0.32294,-0.20519 0.32294,-0.20519 0.40467,-1.14694 0.40466,-1.14694 v -1.02507 -1.02507 l -0.19844,0.007 -0.19843,0.007 -2.11667,0.7615 -2.11667,0.7615 0.0486,1.06797 0.0486,1.06797 0.29148,0.54463 0.29148,0.54464 z m 11.22035,-1.10116 0.87503,-0.29448 0.34411,-0.2697 0.3441,-0.26969 -0.0795,-0.68411 -0.0795,-0.6841 h -0.6579 -0.65789 l -0.30565,0.66146 -0.30566,0.66146 -0.17607,0.58682 -0.17606,0.58683 z m -28.93408,6.40635 -0.61797,0.31692 0.45672,-0.47817 0.45672,-0.47818 0.16125,0.16125 0.16125,0.16125 z m -1.14714,-0.009 h -0.13229 v -0.1323 -0.13229 h 0.13229 0.13229 v 0.13229 0.1323 z m 9.68905,-1.14507 -1.25498,0.14863 -0.44672,-0.44672 -0.44672,-0.44672 v -0.23007 -0.23007 l 0.26102,-0.16133 0.26103,-0.16132 0.95914,0.26483 0.95914,0.26483 1.22723,-0.41501 1.22723,-0.41501 0.74283,-0.52673 0.74284,-0.52672 0.1622,0.1622 0.1622,0.1622 -0.64045,0.68616 -0.64046,0.68616 -1.01028,0.51803 -1.01028,0.51803 z m -0.24283,-2.02862 -0.60795,-0.001 -0.67736,-0.72761 -0.67736,-0.7276 0.13977,-1.32292 0.13976,-1.32291 0.93123,-2.72258 0.93122,-2.72257 0.85421,-1.85322 0.8542,-1.85322 0.88632,-0.77819 0.88632,-0.7782 0.68058,-0.17082 0.68057,-0.17081 0.99129,0.297 0.99129,0.29699 0.45126,0.49864 0.45126,0.49864 0.14641,0.90226 0.14642,0.90227 -0.29722,1.1038 -0.29722,1.1038 -0.85935,1.1356 -0.85936,1.13561 -0.85323,0.37847 -0.85324,0.37848 v 0.21684 0.21683 h 0.38757 0.38756 l 0.27845,0.52027 0.27844,0.52028 -0.17537,1.13337 -0.17536,1.13337 -0.96526,0.92604 -0.96527,0.92604 -1.31131,0.46433 -1.31132,0.46433 z m 0.33131,-1.8534 h 0.17913 l 0.57792,-0.29691 0.57792,-0.29691 0.7276,-0.67863 0.72761,-0.67863 v -0.33237 -0.33237 l -0.58804,-0.41188 -0.58804,-0.41188 h -0.33121 -0.33121 l -0.38098,0.73675 -0.38099,0.73674 -0.18442,0.98305 -0.18442,0.98304 z m 2.45945,-5.90689 0.99219,-0.1553 0.83111,-0.94844 0.83111,-0.94844 0.13762,-0.71682 0.13762,-0.71681 -0.27353,-0.33073 -0.27352,-0.33073 -0.56291,0.004 -0.56292,0.004 -0.31467,0.20008 -0.31467,0.20007 -0.80981,1.80491 -0.80981,1.80491 v 0.14225 0.14225 z m -14.33313,4.84856 h -0.31156 l -0.3175,-0.3175 -0.3175,-0.3175 v -0.58736 -0.58736 l 0.67784,-2.86545 0.67783,-2.86545 0.13375,-0.46303 0.13374,-0.46302 h -0.6945 -0.6945 l 0.0814,-1.12448 0.0814,-1.12447 1.14403,-0.0823 1.14403,-0.0823 0.37732,0.31315 0.37733,0.31314 v 0.7709 0.77089 l 0.98746,-0.671 0.98746,-0.671 h 0.8117 0.81171 l 0.3175,0.3175 0.3175,0.3175 v 0.60245 0.60244 l -0.59531,0.373 -0.59532,0.37299 -1.3733,0.44288 -1.3733,0.44288 -0.39576,1.10845 -0.39577,1.10846 -0.58125,1.85208 -0.58126,1.85208 -0.26176,0.33073 -0.26176,0.33073 z m -2.63745,-1.38423 -0.6068,0.27648 -0.29392,-0.18166 -0.29393,-0.18166 -0.17948,-1.12241 -0.179484,-1.12241 -0.190697,-0.11786 -0.190697,-0.11786 -1.021118,0.5206 -1.021119,0.52059 h -0.763944 -0.763944 l -0.752871,-0.80595 -0.75287,-0.80595 -0.914942,0.99838 -0.914942,0.99837 h -1.069259 -1.06926 l -0.655099,-0.61543 -0.655099,-0.61544 -0.309447,-0.74707 -0.309447,-0.74707 0.855078,-2.78484 0.855078,-2.78484 0.397006,-0.15235 0.397006,-0.15235 0.135825,0.13583 0.135825,0.13583 -0.438278,1.99458 -0.438278,1.99459 v 0.52165 0.52165 h 0.661459 0.661458 v -0.39409 -0.39409 l 0.796495,-2.83657 0.796494,-2.83658 0.235688,-0.23568 0.235688,-0.23569 0.801619,0.17606 0.801618,0.17607 0.255099,0.31372 0.2551,0.31372 -0.891898,2.91042 -0.891898,2.91042 -0.0064,0.19843 -0.0064,0.19844 h 0.378858 0.378859 l 0.590597,-0.82942 0.590597,-0.82941 0.507821,0.69712 0.50782,0.69713 h 0.368013 0.368012 l 0.422813,-0.81763 0.422814,-0.81763 -0.143132,-0.373 -0.143131,-0.37299 -0.603617,-0.004 -0.603616,-0.004 -0.36654,-0.23213 -0.36654,-0.23213 0.162354,-0.64687 0.162353,-0.64687 0.554119,-0.70444 0.554119,-0.70445 h 0.477567 0.477566 l 0.318839,0.38418 0.31884,0.38417 -0.163381,0.51477 -0.163381,0.51477 1.475782,-0.54364 1.47578,-0.54364 0.30253,0.30253 0.30253,0.30252 0.0168,1.2326 0.0169,1.2326 -0.87313,0.29817 -0.87312,0.29817 -0.2473,0.39109 -0.24731,0.39108 -0.004,0.22712 -0.004,0.22712 0.7276,-0.17354 0.72761,-0.17354 0.46302,-0.13755 0.46302,-0.13756 v 0.56091 0.56091 l -0.40976,1.80157 -0.40976,1.80157 z M 85.781267,143.2088 h -0.95052 l -0.767612,-0.82173 -0.767611,-0.82173 v -0.2216 -0.2216 l 0.588038,-0.41187 0.588038,-0.41188 h 0.619981 0.619981 l 0.511772,-0.2739 0.511773,-0.27389 6.11e-4,-0.586 6.1e-4,-0.586 -1.231824,-1.80415 -1.231825,-1.80415 -0.117736,-1.23856 -0.117736,-1.23856 0.885929,-1.30386 0.885929,-1.30386 0.961155,-0.76781 0.961155,-0.76782 1.05065,-0.23606 1.050651,-0.23607 0.868923,0.24921 0.868923,0.2492 0.492709,0.4459 0.492709,0.44589 -0.0035,0.95118 -0.0035,0.95118 -0.631277,1.98438 -0.631277,1.98437 -0.800067,0.0814 -0.800068,0.0814 0.367129,-1.5366 0.36713,-1.5366 0.0094,-0.43434 0.0094,-0.43434 -0.6619,-0.16613 -0.6619,-0.16612 -1.040408,0.53077 -1.040407,0.53078 -0.414359,0.59158 -0.414359,0.59158 v 0.37897 0.37897 l 1.069474,1.01737 1.069474,1.01736 h 0.518026 0.518026 v 0.16569 0.16569 l -0.547992,2.33414 -0.547993,2.33415 -0.776584,1.07204 -0.776583,1.07204 z m -3.70804,37.96044 0.365204,-0.5219 -0.191351,-1.2593 -0.191351,-1.25931 -0.173853,-0.17385 -0.173852,-0.17386 v 1.95506 1.95505 z m 0.928846,-1.03322 0.290605,-0.17961 0.275315,-0.51443 0.275315,-0.51443 h -0.111171 -0.111171 l -0.454749,0.69404 -0.454749,0.69403 z m -0.266957,-0.79229 0.233342,-0.14421 0.0044,-1.12817 0.0044,-1.12817 -0.2191,0.52916 -0.2191,0.52917 -0.0186,0.74322 -0.0186,0.74322 z m 1.166678,-1.60713 0.229095,-1.05801 0.524735,-2.11666 0.524735,-2.11667 0.386598,-0.59531 0.386599,-0.59531 H 85.71527 85.476984 l -0.326959,0.39396 -0.32696,0.39396 -0.209765,-0.12964 -0.209765,-0.12964 0.125657,-0.59505 0.125656,-0.59505 -0.304928,0.47909 -0.304928,0.47909 0.146129,0.3808 0.146128,0.38081 h -0.300376 -0.300377 l 0.16708,0.16708 0.16708,0.16708 -0.26855,0.50179 -0.268549,0.50179 -0.228082,-0.14097 -0.228082,-0.14096 0.0748,0.46428 0.0748,0.46428 -0.15747,0.26459 -0.157469,0.26458 -0.08499,0.61844 -0.08499,0.61843 0.232634,-0.14377 0.232634,-0.14378 v 0.3736 0.37359 l -0.220486,-0.13626 -0.220486,-0.13627 v 0.1668 0.16681 l 0.412091,0.41209 0.412092,0.41209 -0.148367,0.38664 -0.148366,0.38663 0.189446,0.30654 0.189447,0.30653 z m -0.165298,-1.27849 -0.176389,0.17639 v -0.35278 -0.35278 l 0.176389,0.17639 0.176389,0.17639 z m -0.0441,-0.70556 h -0.132292 v -0.13229 -0.13229 h 0.132292 0.132291 v 0.13229 0.13229 z m 0.0441,-1.14653 -0.176389,0.17639 v -0.35277 -0.35278 l 0.176389,0.17639 0.176389,0.17639 z M 83.956982,173.9 H 83.82469 v -0.13229 -0.13229 h 0.132292 0.132292 v 0.13229 0.13229 z m 0.529167,-0.26458 h -0.132292 v -0.1323 -0.13229 h 0.132292 0.132291 v 0.13229 0.1323 z m 0.264583,-0.79375 H 84.61844 v -0.1323 -0.13229 h 0.132292 0.132292 v 0.13229 0.1323 z m -2.618272,3.6325 0.159852,-0.15985 -0.138964,-0.34726 -0.138965,-0.34727 -0.02089,0.50712 -0.02089,0.50712 z m 0.279959,-1.97886 0.133452,-0.33073 -0.133452,-0.33073 -0.133452,-0.33073 v 0.66146 0.66146 z m 14.207324,-1.38906 0.410965,-0.39688 0.288402,-1.98437 0.288403,-1.98438 0.537279,-2.51354 0.537279,-2.51354 0.138384,-0.49018 0.138383,-0.49018 -3.399886,2.96221 -3.399887,2.96221 -0.593998,0.70297 -0.593999,0.70297 -0.0013,0.16722 -0.0013,0.16722 2.819684,-0.89482 2.819683,-0.89483 h 0.113989 0.11399 l -0.144518,0.99219 -0.144518,0.99219 -0.168986,1.45521 -0.168987,1.4552 z m -13.94158,-0.0882 0.176389,-0.17638 -0.176389,-0.17639 -0.176389,-0.17639 v 0.35278 0.35277 z m 15.708427,-1.02191 0.228319,-0.0805 1.733011,-1.54309 1.73302,-1.5431 v -0.25741 -0.25741 l -1.21093,1.13905 -1.210934,1.13905 -0.211317,0.0772 -0.211318,0.0772 -0.130896,-0.68473 -0.130896,-0.68474 0.609279,-2.03831 0.609282,-2.0383 0.68546,-1.8418 0.68545,-1.84181 0.37146,-0.56691 0.37145,-0.56691 0.17833,-1.03087 0.17832,-1.03087 -0.38486,0.52917 -0.38486,0.52917 -0.67673,1.71979 -0.67674,1.71979 -0.685177,2.26325 -0.685176,2.26324 -0.505933,2.31519 -0.505933,2.31518 z m -15.35565,-0.47739 0.256481,-0.39688 -0.01454,-0.39687 -0.01454,-0.39688 -0.227391,0.52917 -0.22739,0.52917 -0.01454,0.26458 -0.01454,0.26458 z m 0.705556,-0.35278 0.176389,-0.17639 -0.176389,-0.17639 -0.176389,-0.17639 v 0.35278 0.35278 z m 1.30638,0.0165 0.159852,-0.15985 -0.138964,-0.34727 -0.138964,-0.34727 -0.02089,0.50712 -0.02089,0.50712 z m 1.163064,-0.19293 h 0.352778 l -0.176389,-0.17639 -0.176389,-0.17639 -0.176389,0.17639 -0.176389,0.17639 z M 85.544482,170.725 h 0.132292 v -0.13229 -0.13229 H 85.544482 85.41219 v 0.13229 0.13229 z m 1.058333,-0.26458 h 0.132292 v -0.1323 -0.13229 h -0.132292 -0.132291 v 0.13229 0.1323 z m 14.112425,-1.49397 1.28014,-1.28688 0.47598,-1.45385 0.47598,-1.45385 1.16288,-3.14437 1.16288,-3.14437 -0.10537,-0.10537 -0.10537,-0.10537 -0.87746,2.12526 -0.87746,2.12527 h -0.20807 -0.20807 l 0.14894,0.46302 0.14895,0.46302 -0.28549,-0.39688 -0.28549,-0.39687 -0.004,0.37482 -0.004,0.37483 -0.15344,-0.15343 -0.15343,-0.15343 0.43724,-0.66732 0.43724,-0.66731 -0.0854,-0.72522 -0.0854,-0.72523 -0.39687,0.77427 -0.39688,0.77427 -0.32687,0.34577 -0.32687,0.34577 -0.69737,2.30006 -0.69736,2.30006 -0.364827,1.13373 -0.364827,1.13373 v 0.41638 0.41638 z m 2.02716,-7.23728 h -0.13229 v -0.1323 -0.13229 h 0.13229 0.13229 v 0.13229 0.1323 z m -15.610418,8.20208 h 0.132291 v -0.13229 -0.13229 H 87.131982 86.99969 v 0.13229 0.13229 z m -3.427108,-0.99401 0.387408,-0.86173 0.30459,-1.25494 0.30459,-1.25495 0.486337,-1.5875 0.486337,-1.5875 -0.106203,0.59532 -0.106202,0.59531 h 0.239813 0.239813 l -0.0041,0.46302 -0.0041,0.46302 -0.214103,-0.33737 -0.214103,-0.33736 -0.302172,0.99882 -0.302173,0.99883 0.479645,-0.62756 0.479644,-0.62757 0.161419,0.42066 0.161418,0.42065 -0.253028,0.15638 -0.253027,0.15638 0.03069,0.4474 0.03069,0.44741 0.121623,-0.46626 0.121624,-0.46626 0.310705,0.17795 0.310705,0.17795 -0.189128,-0.2095 -0.189129,-0.2095 0.266605,-0.49816 0.266604,-0.49815 -0.342059,0.0699 -0.342059,0.0699 0.09832,-0.39687 0.09833,-0.39688 0.03397,-0.70159 0.03397,-0.70159 0.198437,0.12189 0.198438,0.1219 v -0.16681 -0.1668 l -0.396875,-0.39688 -0.396875,-0.39687 V 161.44568 161.2 l 0.502708,0.50271 0.502709,0.50271 v 0.9525 0.9525 l -0.304271,0.004 -0.304271,0.004 0.369283,0.23383 0.369284,0.23383 -0.162542,0.42357 -0.162542,0.42358 h 0.256279 0.256279 l 0.0105,-0.85989 0.0105,-0.8599 0.336464,-1.91722 0.336464,-1.91723 -0.210622,-0.33173 -0.210623,-0.33174 -0.0041,0.59532 -0.0041,0.59531 h -0.25628 -0.256279 l 0.174352,0.45435 0.174352,0.45436 -0.415552,-0.38819 -0.415551,-0.38818 0.226347,-0.59534 0.226347,-0.59533 H 86.83042 86.674247 l 0.468263,-0.72761 0.468263,-0.7276 -0.551747,0.48739 -0.551747,0.4874 -0.671425,1.67719 -0.671424,1.67719 -0.777971,2.99479 -0.777972,2.99479 -0.145511,0.79375 -0.145511,0.79375 z m 2.412872,-5.44419 -0.176389,0.17639 v -0.35277 -0.35278 l 0.176389,0.17639 0.176389,0.17639 z m 0.749653,-1.76388 h -0.132292 v -0.1323 -0.13229 h 0.132292 0.132291 v 0.13229 0.1323 z m -0.5151,7.40833 h 0.05816 l 0.116498,-0.79375 0.116498,-0.79375 h -0.351051 -0.351051 v 0.61736 0.61736 l 0.176389,0.17639 0.176389,0.17639 z m 16.125511,-0.79375 h 0.1323 v -0.13229 -0.13229 h -0.1323 -0.13229 v 0.13229 0.13229 z m 3.43959,-0.52917 h 0.13229 V 167.68229 167.55 h -0.13229 -0.13229 v 0.13229 0.13229 z m -19.843751,-0.52916 h 0.132291 v -0.1323 -0.13229 h -0.132291 -0.132292 v 0.13229 0.1323 z m 0.661458,-0.1323 0.264583,-0.16352 -0.0186,-0.5797 -0.0186,-0.57969 -0.227391,0.52916 -0.227391,0.52917 -0.0186,0.21405 -0.0186,0.21406 z m -1.455208,-0.13229 h 0.132291 v -0.13229 -0.13229 h -0.132291 -0.132292 v 0.13229 0.13229 z m 19.579161,-2.38125 h 0.1323 v -0.13229 -0.13229 h -0.1323 -0.13229 v 0.13229 0.13229 z m 1.04272,-1.5875 h 0.11668 l 0.16352,-0.26458 0.16352,-0.26458 h -0.2802 -0.28019 v 0.26458 0.26458 z m 1.16276,-0.78428 0.61797,-0.31692 -0.16125,-0.16126 -0.16125,-0.16125 -0.45672,0.47818 -0.45673,0.47818 z m -0.61798,-0.27405 h 0.1323 v -0.13229 -0.13229 h -0.1323 -0.13229 v 0.13229 0.13229 z m 1.54782,-0.28318 0.22489,0.0186 0.92545,-0.99219 0.92544,-0.99219 0.34334,-0.39687 0.34334,-0.39688 0.42455,-1.43708 0.42455,-1.43709 v -0.46112 -0.46113 l -0.70229,0.5753 -0.70229,0.57529 -1.42941,1.32291 -1.4294,1.32292 -0.39266,0.73538 -0.39266,0.73537 0.15872,0.25681 0.15872,0.25682 h -0.2802 -0.2802 v 0.28019 0.2802 l 0.19844,-0.1148 0.19844,-0.1148 0.52916,0.21288 0.52917,0.21288 z m 0.57524,-0.78046 -0.40326,0.33468 v -0.28136 -0.28137 l 0.28218,-0.1744 0.28219,-0.1744 0.12108,0.12108 0.12108,0.12109 z m -21.437638,-0.78844 h 0.132291 v -0.1323 -0.13229 H 87.131982 86.99969 v 0.13229 0.1323 z m 0.264583,-1.05834 h 0.132292 v -0.13229 -0.13229 h -0.132292 -0.132292 v 0.13229 0.13229 z M 102.71,158.28958 h 0.0999 l 0.36312,-0.46302 0.36313,-0.46302 -0.46302,0.36313 -0.46302,0.36312 v 0.0999 0.0999 z m 2.94281,-1.05833 h 0.1323 v -0.13229 -0.13229 h -0.1323 -0.13229 v 0.13229 0.13229 z m -1.41515,-0.52917 h 0.13229 l 0.62141,-0.66146 0.6214,-0.66145 h -0.13229 -0.13229 l -0.62141,0.66145 -0.62141,0.66146 z m 2.21159,-1.22574 0.31912,-0.75863 -0.10106,-0.11654 -0.10105,-0.11655 -0.4003,0.4003 -0.4003,0.4003 0.18223,0.47488 0.18223,0.47488 z m 4.07005,-1.42009 h 0.23627 l 0.16666,-0.4343 0.16666,-0.4343 -0.40294,0.33441 -0.40293,0.3344 v 0.0999 0.0999 z m -1.385,-2.39718 0.70336,-0.26742 0.89335,-0.78437 0.89334,-0.78436 h -0.18026 -0.18025 l -1.41645,0.94018 -1.41645,0.94019 v 0.1116 0.1116 z m 2.06352,-0.17016 0.65021,-0.47537 0.14163,-0.34738 0.14162,-0.34739 -0.79184,0.56384 -0.79183,0.56384 v 0.25892 0.25892 z m 0.80499,-1.66599 h 0.1323 v -0.1323 -0.13229 h -0.1323 -0.13229 v 0.13229 0.1323 z m 43.92083,-20.90209 h 0.1323 v -0.13229 -0.13229 h -0.1323 -0.13229 v 0.13229 0.13229 z m -24.30926,-5.29166 h 0.36447 v -0.49686 -0.49685 l -0.42806,-1.0245 -0.42806,-1.0245 0.0196,-0.12821 0.0197,-0.12821 1.39858,-0.26866 1.39857,-0.26867 0.0678,-0.39688 0.0679,-0.39687 -0.23959,-0.37258 -0.23959,-0.37258 -0.88456,0.41082 -0.88456,0.41082 -0.92604,0.19075 -0.92604,0.19075 -0.33073,0.26643 -0.33073,0.26643 v -0.17738 -0.17738 l 0.72761,-0.63212 0.7276,-0.63212 -0.4533,-0.4605 -0.4533,-0.4605 -0.17032,0.44385 -0.17032,0.44385 h -0.36614 -0.36613 l -0.59775,-0.92276 -0.59774,-0.92277 -0.46302,-0.003 -0.46302,-0.003 v 0.40759 0.40759 l 0.56033,0.75788 0.56032,0.75788 -0.16053,0.25974 -0.16053,0.25975 -0.89264,0.16746 -0.89264,0.16746 -0.47986,0.53024 -0.47986,0.53024 0.31077,0.31078 0.31077,0.31077 1.25724,-0.45063 1.25725,-0.45062 0.19844,0.001 0.19844,10e-4 v 0.79375 0.79375 h 0.43385 0.43385 l 0.32705,-0.44726 0.32705,-0.44727 0.46279,0.91029 0.46279,0.91028 0.26392,0.33073 0.26391,0.33073 z m -10.47747,-2.78182 0.25861,-0.15983 v -0.59527 -0.59528 l -0.38846,-0.51359 -0.38846,-0.51359 -0.008,-0.31516 -0.008,-0.31515 1.12448,-0.22238 1.12448,-0.22238 v -0.52079 -0.5208 l -0.56516,-0.0806 -0.56515,-0.0806 -0.89005,0.54263 -0.89006,0.54263 -0.30128,9.9e-4 -0.30128,9.9e-4 -0.17388,-0.92686 -0.17388,-0.92686 -1.03565,-0.52835 -1.03565,-0.52835 h -0.38224 -0.38224 l 0.14352,-1.12448 0.14351,-1.12448 0.0846,-0.0989 0.0845,-0.0989 0.45722,0.9588 0.45722,0.9588 h 0.37732 0.37731 l -0.18172,-0.99219 -0.18173,-0.99219 -0.45736,-0.79288 -0.45735,-0.79289 -0.4334,-0.0835 -0.43339,-0.0835 -0.38866,0.75159 -0.38866,0.75159 -0.55269,3.0258 -0.55268,3.0258 v 0.77373 0.77373 l 1.60705,-0.14573 1.60705,-0.14572 0.50962,-0.4612 0.50962,-0.4612 v 0.58801 0.588 l 0.46302,-0.13703 0.46302,-0.13703 0.73357,1.05716 0.73358,1.05717 z m -4.71059,-3.14319 -0.85163,0.17032 v -0.54979 -0.54979 l 0.30705,-0.67391 0.30705,-0.6739 h 0.22601 0.226 l 0.51882,0.85312 0.51881,0.85313 -0.20024,0.20024 -0.20025,0.20025 z m 40.29107,-5.71666 h 0.1323 v -0.13229 -0.13229 h -0.1323 -0.13229 v 0.13229 0.13229 z m -25.39999,-5.02708 h 0.13229 v -0.13229 -0.13229 h -0.13229 -0.1323 v 0.13229 0.13229 z m 2.64583,0 h 0.13229 v -0.13229 -0.13229 h -0.13229 -0.13229 v 0.13229 0.13229 z m -25.66458,-7.672917 h 0.13229 v -0.132292 -0.132292 h -0.13229 -0.13229 v 0.132292 0.132292 z m -1.85209,-0.79375 h 0.1323 v -0.132292 -0.132292 h -0.1323 -0.13229 v 0.132292 0.132292 z m 1.5875,0 h 0.1323 v -0.132292 -0.132292 h -0.1323 -0.13229 v 0.132292 0.132292 z M 94.804898,95.054169 h 0.132292 v -0.132291 -0.132292 h -0.132292 -0.132292 v 0.132292 0.132291 z m 0.264583,-1.058333 h 0.132292 V 93.863545 93.731253 H 95.069481 94.93719 v 0.132292 0.132291 z"
       id="path1" /></g></svg>
