<?xml version="1.0" encoding="UTF-8" standalone="no"?>
<!-- Created with Inkscape (http://www.inkscape.org/) -->

<svg
   width="99.169899mm"
   height="97.909348mm"
   viewBox="0 0 99.169899 97.909348"
   version="1.1"
   id="svg1"
   xml:space="preserve"
   xmlns="http://www.w3.org/2000/svg"
   xmlns:svg="http://www.w3.org/2000/svg"><defs
     id="defs1" /><g
     id="layer1"
     transform="translate(-55.278859,-94.165174)"><path
       style="fill:#000000"
       d="m 101.09608,191.89162 c -2.352808,-0.24704 -5.704103,-1.08168 -7.043437,-1.75415 -0.459385,-0.23066 -1.371026,-0.92779 -2.02587,-1.54918 -1.187326,-1.12667 -1.197488,-1.13026 -3.668272,-1.29373 -13.186017,-0.87239 -25.373112,-10.58355 -30.589321,-24.37477 -2.032773,-5.37448 -2.969315,-13.47283 -2.249756,-19.45381 1.508948,-12.54242 8.190618,-23.58894 18.317246,-30.28313 1.175592,-0.77712 1.521354,-1.15543 1.521354,-1.66459 0,-2.08667 6.604296,-4.82242 11.641666,-4.82242 3.508582,0 8.050827,1.39937 10.733727,3.30684 0.696238,0.49501 1.34615,0.85041 1.44425,0.78978 0.0981,-0.0606 0.260449,-1.39412 0.360778,-2.96332 0.478525,-7.48444 3.050085,-14.571474 4.923505,-13.568851 0.67724,0.36245 1.45172,2.540041 2.74718,7.724241 0.60704,2.42925 1.18661,4.49972 1.28794,4.60105 0.10133,0.10133 0.9473,-0.52958 1.87993,-1.40201 4.22532,-3.95258 11.98356,-7.274477 13.48436,-5.773684 0.24452,0.244519 0.44458,0.595644 0.44458,0.780274 0,0.18462 -0.96367,1.39067 -2.14149,2.68009 -1.84596,2.02087 -5.26684,6.48387 -5.26684,6.87129 0,0.0711 1.48049,0.1293 3.28999,0.1293 8.13653,0 14.78843,2.94746 21.18396,9.38665 3.59816,3.62271 5.97101,6.9155 8.20293,11.38314 2.10205,4.20766 3.58722,8.68807 4.37157,13.18794 0.51843,2.97429 0.57361,3.9813 0.4422,8.06979 -0.20656,6.42683 -1.06199,10.07821 -3.66203,15.63125 -2.60273,5.55879 -6.68641,10.61171 -11.47112,14.19376 -5.06597,3.7926 -11.18222,5.90501 -17.54875,6.06092 -2.92773,0.0717 -3.01571,0.0917 -3.83646,0.87191 -2.65958,2.52826 -10.00853,3.94577 -16.77382,3.23542 z m 10.97228,-3.72755 c 3.00129,-0.57176 4.0355,-0.94719 4.0355,-1.46494 0,-0.36081 0.79727,-0.89288 1.33791,-0.89288 0.23611,0 0.23238,0.0988 -0.015,0.39687 -0.62865,0.75748 0.90896,0.44757 2.11538,-0.42636 1.46906,-1.06417 2.36578,-1.31883 4.6315,-1.31526 2.51833,0.004 4.36115,-0.39808 6.69076,-1.45972 9.28874,-4.23301 15.46842,-11.13586 18.56511,-20.73766 1.22127,-3.78672 2.01913,-9.00162 1.37722,-9.00162 -0.12216,0 -0.34853,-0.27745 -0.50304,-0.61656 -0.22521,-0.49429 -0.1612,-0.85274 0.32279,-1.80751 0.55922,-1.10318 0.57542,-1.25762 0.21978,-2.09542 -0.26773,-0.63073 -0.33862,-1.41664 -0.2342,-2.59675 0.22748,-2.57086 -1.26999,-8.45293 -3.28117,-12.8885 -0.8822,-1.94565 -3.82363,-6.72147 -5.4541,-8.85549 -1.49978,-1.96298 -6.29249,-6.49856 -7.53885,-7.13441 -0.54603,-0.27856 -1.55642,-0.88687 -2.2453,-1.35179 -1.54888,-1.04532 -3.97377,-2.06183 -4.93849,-2.0702 -0.57464,-0.005 -3.77442,0.93848 -6.81697,2.01001 -0.29008,0.10216 -0.11207,0.36385 0.66146,0.97244 1.67911,1.32108 5.15889,4.7194 5.98855,5.84836 0.41708,0.56754 0.75832,1.36581 0.75832,1.77395 0,0.63975 -0.12873,0.76621 -0.93373,0.91723 -2.45736,0.461 -8.65447,-0.51017 -13.00186,-2.03756 -2.89354,-1.01661 -2.93426,-1.01012 -3.12104,0.49731 -0.45045,3.63528 -0.78662,5.41901 -1.37163,7.27786 -0.71566,2.27397 -1.3977,2.9898 -2.56865,2.69592 -1.52967,-0.38393 -4.14194,-4.18128 -5.89471,-8.56892 -0.65539,-1.64063 -1.092961,-2.39704 -1.386619,-2.39701 -0.235977,3e-5 -1.38155,0.18418 -2.545716,0.40923 -4.847189,0.93704 -11.263674,0.74777 -12.376521,-0.36508 -0.46713,-0.46713 -0.474565,-0.56329 -0.09961,-1.28837 0.222859,-0.43097 1.335221,-1.59544 2.471915,-2.58772 1.136694,-0.99229 2.1053,-1.96525 2.152457,-2.16213 0.15858,-0.6621 -4.848098,-2.35626 -8.900655,-3.01181 l -1.671166,-0.27033 -2.033001,1.2469 c -8.90752,5.46325 -15.31215,14.79505 -17.677168,25.75635 -0.686471,3.18163 -0.702214,12.60398 -0.02661,15.92321 0.993574,4.88139 2.902498,9.40749 5.789035,13.72595 5.199689,7.77908 14.185869,13.58184 22.061988,14.24638 2.423926,0.20452 2.543392,0.24505 3.368485,1.14279 0.644602,0.70136 1.207543,1.0055 2.284107,1.23403 0.785771,0.1668 1.47877,0.25318 1.539998,0.19195 0.06123,-0.0612 -0.626652,-0.50466 -1.528622,-0.9854 -2.392191,-1.27503 -1.400729,-1.2739 1.153058,10e-4 1.193165,0.59579 3.002828,1.26628 4.021473,1.48998 1.018646,0.22369 2.328334,0.53436 2.910422,0.69037 3.02353,0.81035 7.25575,0.78902 11.70721,-0.059 z"
       id="path2" /></g></svg>
