<?xml version="1.0" encoding="UTF-8" standalone="no"?>
<svg
   width="56.532207mm"
   height="54.040565mm"
   viewBox="0 0 56.532207 54.040565"
   version="1.1"
   id="svg1"
   xml:space="preserve"
   xmlns:inkscape="http://www.inkscape.org/namespaces/inkscape"
   xmlns:sodipodi="http://sodipodi.sourceforge.net/DTD/sodipodi-0.dtd"
   xmlns="http://www.w3.org/2000/svg"
   xmlns:svg="http://www.w3.org/2000/svg"><defs
     id="defs1" /><g
     inkscape:label="Слой 1"
     inkscape:groupmode="layer"
     id="layer1"
     transform="translate(-73.548158,-136.88281)"><path
       id="path179"
       d="m 101.59018,136.89449 c -1.911091,-0.0363 -3.59093,0.0103 -3.74499,0.16433 -0.104803,0.10481 0.300993,0.94498 0.901754,1.86707 1.267406,1.94529 2.220556,4.18667 2.696996,6.34276 0.1849,0.83674 0.34927,1.52136 0.36587,1.52136 0.0166,0 1.21825,-0.30616 2.67012,-0.68007 2.72634,-0.70213 8.8612,-1.22018 8.8532,-0.74775 -0.0109,0.64382 -5.78456,4.07365 -6.85746,4.07365 -0.6697,0 -0.1461,0.48052 1.84227,1.69137 1.16827,0.71144 2.18726,1.39586 2.26446,1.52084 0.19117,0.30928 -3.0695,0.27784 -5.18263,-0.0501 -0.94589,-0.14682 -2.31511,-0.33323 -3.04271,-0.41393 l -1.32292,-0.14624 -1.396294,4.32118 c -0.768105,2.37685 -1.393163,4.64221 -1.389063,5.0338 0.01364,1.29596 -0.475222,1.03779 -0.965315,-0.51004 -0.382159,-1.20695 -0.482658,-2.39158 -0.482658,-5.68286 v -4.15789 l -0.661459,-0.30954 c -0.760163,-0.35541 -1.146651,-0.50669 -3.241145,-1.27072 -0.836745,-0.30523 -2.146434,-0.78439 -2.910417,-1.06454 -0.763982,-0.28015 -1.84644,-0.65005 -2.405538,-0.82217 -1.284861,-0.39554 -0.997585,-0.72333 1.05885,-1.20716 2.348244,-0.55249 4.240466,-0.42364 8.66097,0.58808 l 0.766362,0.17518 -0.147278,-3.67626 c -0.150514,-3.75559 -0.666046,-6.08283 -1.410767,-6.3686 -0.581768,-0.22325 -5.582055,1.51289 -8.18503,2.8422 -8.255514,4.21599 -12.950667,9.5783 -14.333492,16.36954 -0.64283,3.15704 -0.575032,10.6083 0.12454,13.6679 0.687907,3.0086 2.07799,6.73967 3.25975,8.75037 1.734988,2.95202 7.297177,7.82542 10.561112,9.25319 1.663539,0.72768 2.781641,1.18251 3.836458,1.56011 0.624326,0.2235 1.995481,0.54544 4.365625,1.02577 2.330607,0.47235 7.879929,0.49447 10.318749,0.0408 3.68265,-0.68497 6.88066,-1.70428 8.92969,-2.84582 4.07381,-2.26959 4.66272,-2.70396 7.26364,-5.35471 4.45382,-4.53919 6.79298,-9.75629 7.31635,-16.31994 0.51752,-6.49039 -0.74263,-11.87084 -3.91449,-16.71681 -3.35076,-5.11925 -8.22555,-8.75895 -14.56811,-10.87737 -1.52794,-0.51034 -3.6711,-1.07472 -4.7625,-1.25419 -1.07924,-0.17747 -3.2214,-0.29651 -5.1325,-0.33279 z m -15.562873,24.42435 c 1.241295,-0.0252 2.487711,0.569 3.417879,1.78852 0.624703,0.81902 0.74079,1.22451 0.73949,2.57968 -0.002,2.04753 -0.790728,3.43691 -2.354378,4.14704 -2.395967,1.08813 -4.535303,0.35436 -5.677173,-1.94717 -0.78268,-1.57756 -0.621824,-3.11242 0.486275,-4.64209 0.910429,-1.25681 2.146612,-1.90083 3.387907,-1.92598 z" /></g></svg>
