<svg xmlns="http://www.w3.org/2000/svg" xml:space="preserve" width="213.665" height="204.248" viewBox="0 0 56.532 54.041"><path d="M28.042.012c-1.911-.037-3.59.01-3.745.164-.105.105.301.945.902 1.867 1.267 1.945 2.22 4.187 2.697 6.343.185.837.35 1.521.366 1.521s1.218-.306 2.67-.68c2.726-.702 8.861-1.22 8.853-.748-.01.644-5.785 4.074-6.857 4.074-.67 0-.147.48 1.842 1.691 1.168.712 2.187 1.396 2.264 1.521.191.31-3.07.278-5.182-.05a87 87 0 0 0-3.043-.414l-1.323-.146-1.396 4.321c-.768 2.377-1.393 4.642-1.39 5.034.014 1.296-.475 1.038-.965-.51-.382-1.207-.482-2.392-.482-5.683v-4.158l-.662-.31c-.76-.355-1.146-.506-3.241-1.27-.837-.305-2.146-.784-2.91-1.065s-1.847-.65-2.406-.822c-1.285-.395-.997-.723 1.059-1.207 2.348-.552 4.24-.424 8.66.588l.767.175-.147-3.676c-.15-3.756-.666-6.083-1.41-6.369-.583-.223-5.583 1.513-8.186 2.843C6.522 7.262 1.827 12.624.444 19.416-.2 22.571-.131 30.022.568 33.082c.688 3.009 2.078 6.74 3.26 8.75 1.735 2.952 7.297 7.826 10.561 9.254 1.664.727 2.782 1.182 3.837 1.56.624.223 1.995.545 4.365 1.026 2.33.472 7.88.494 10.319.04 3.683-.685 6.88-1.704 8.93-2.846 4.073-2.27 4.662-2.703 7.263-5.354 4.454-4.54 6.793-9.757 7.317-16.32.517-6.49-.743-11.871-3.915-16.717-3.35-5.12-8.225-8.759-14.568-10.877-1.528-.51-3.671-1.075-4.762-1.255-1.08-.177-3.222-.296-5.133-.332M12.479 24.436c1.241-.025 2.488.569 3.418 1.789.625.819.74 1.224.74 2.58-.002 2.047-.791 3.436-2.355 4.146-2.396 1.088-4.535.355-5.677-1.947-.783-1.577-.622-3.112.486-4.642.91-1.257 2.147-1.9 3.388-1.926"/></svg>