<svg xmlns="http://www.w3.org/2000/svg" xml:space="preserve" width="174.338" height="303.044" viewBox="0 0 46.127 80.18"><path d="m18.795 5.3-2.217 3.566-.964 3.566.675 2.505 1.35 3.373 2.698 3.277 1.349 3.18q.674 3.566-.964 6.168l-3.758 4.433-2.313 2.217-1.157.192.868-1.445 2.794-5.879q.771-2.698.579-5.108-.193-2.216-3.47-7.035-3.084-4.336-2.794-7.035.289-2.12 1.638-3.95Q15.904 3.083 21.782 0l.386.771-2.988 4.24z"/><path d="M3.664 71.314Q-.094 55.317.002 45.005l.193-4.433-.096-.964q0-3.854 4.818-6.65 4.626-2.505 10.89-2.698l-1.445 2.506-7.035 1.542q-3.759 1.542-3.759 3.758 0 2.313 3.759 3.759 4.047 1.638 9.637 1.638 5.493 0 9.444-1.638 3.855-1.446 3.855-3.759 0-2.216-3.855-3.758l-5.011-1.35.096-.096 1.542-1.252.096-.193.386-.482 5.204 2.024q4.915 2.795 4.915 6.65l-.097.963.193 4.433v1.638q2.217-1.638 5.3-2.12l3.374.29 1.927 1.734q2.12 2.891 1.735 6.842l-1.831 7.132q-2.217 5.59-4.915 9.348l-1.35 1.734q-1.541 1.253-3.854 1.542l-4.048-.674-.289-.097-1.156 3.855q-5.108 3.951-11.758 3.951T5.014 76.23zM41.25 58.882l1.446-5.01q.289-2.892-.868-4.82l-.77-.963-1.543-.096q-2.698.578-3.758 1.445l-1.831 1.831-.482.386q-.675 7.227-2.698 16.575l.192.193.868.868q.289.385.963.385 1.735.193 2.795-.867l1.542-1.735z"/></svg>