<svg xmlns="http://www.w3.org/2000/svg" xml:space="preserve" width="408.425" height="534.224" viewBox="0 0 108.062 141.347"><path d="M60.2 20.37c-1.484 0-3.272 1.943-3.638 3.95-.344 1.892.61 4.707 2.673 7.884.958 1.474 1.87 3.264 2.026 3.976.433 1.974-.142 4.77-1.307 6.349-1.176 1.593-1.277 2.13-.536 2.872 1.026 1.026 3.644-.416 5.302-2.92 2.485-3.756 2.577-8.063.252-11.771-2.696-4.3-3.146-5.395-2.959-7.199.233-2.248-.283-3.14-1.813-3.14M58.047.01a3 3 0 0 0-.98.084c-1.097.276-1.14.396-1.14 3.19 0 4.096-1.445 6.749-6.874 12.617-5.554 6.005-6.47 7.866-6.243 12.689.187 3.98 1.63 7.495 4.085 9.959 1.726 1.73 3.307 1.86 4.006.327.417-.915.305-1.46-.754-3.677-1.042-2.179-1.244-3.135-1.244-5.879 0-3.065.1-3.425 1.553-5.58.854-1.268 3.11-4.03 5.013-6.136 3.99-4.418 6.063-8.174 6.302-11.419.243-3.296-1.497-6-3.724-6.176M45.91 140.967c-17.448-2.061-36-12.383-42.965-23.902-6.558-10.85-1.995-22.148 12.009-29.73 2.476-1.34 8.123-3.63 8.952-3.63.581 0 .684.42.973 3.968l.162 1.985-2.067.761c-7.33 2.7-13.03 7.036-15.307 11.643-.803 1.626-1.02 2.395-1.122 3.997-.137 2.133.23 4.545.95 6.236l.447 1.052.026-1.932c.081-6.025 4.797-11.984 12.41-15.68 2.673-1.298 5.186-2.292 5.364-2.121.04.038.307 1.664.592 3.613 1.297 8.841 3.423 14.11 7.02 17.398 1.707 1.56 3.092 2.361 6.296 3.644 7.128 2.851 18.42 3.278 26.306.994 3.6-1.042 7.234-3.067 9.373-5.223 3.526-3.554 5.708-9.583 6.717-18.562.098-.873.227-1.672.287-1.776s.968.119 2.018.496c5.868 2.108 10.516 5.57 13.34 9.937 1.498 2.314 2.175 4.227 2.408 6.794l.183 2.012.497-1.455c.273-.8.555-2.485.626-3.742.107-1.882.027-2.594-.447-4.02-1.126-3.382-3.658-6.374-7.693-9.09-2.315-1.558-6.647-3.771-8.696-4.443l-1.426-.468.167-2.15c.092-1.182.168-2.547.17-3.034l.001-.884 1.337.183c1.192.164 1.45.105 2.4-.554 1.759-1.218 2.655-3.627 1.964-5.279-.556-1.33-1.784-1.971-3.783-1.973h-1.653v-2.354c0-2.74-.069-2.673 2.733-2.675 2.36-.002 4.114.6 5.624 1.929 3.451 3.038 3.509 8.509.128 12.177l-1.087 1.18 2.665 1.509c7.61 4.309 12.347 9.673 13.901 15.745.329 1.282.409 2.45.317 4.63-.104 2.49-.248 3.238-.986 5.125-.476 1.216-1.593 3.3-2.484 4.63-1.875 2.805-6.163 7.237-9.456 9.774-7.354 5.667-17.933 10.428-27.76 12.496-5.442 1.144-15.268 1.497-21.43.77zm19.182-10.922c8.785-1.545 15.075-4.213 15.603-6.618.175-.796-.229-2.15-.736-2.473-.646-.41-1.541-.181-2.785.712-2.682 1.927-9.173 4.024-14.823 4.789-3.709.502-11.523.564-15.25.12-7.626-.906-13.443-2.645-16.997-5.082-.967-.662-1.204-.725-1.72-.454-.822.433-.986.743-.99 1.87-.004.746.195 1.17.855 1.832 2.071 2.075 9.83 4.593 17 5.518 1.164.15 2.473.323 2.91.385.436.061 3.77.067 7.408.012 5-.075 7.325-.224 9.525-.61M50.54 116.493c-5.704-.78-10.22-2.952-13.8-6.638-4.797-4.938-6.78-11.078-9.369-29.005-.582-4.033-1.358-8.642-1.725-10.243-1.355-5.917-1.477-6.637-1.348-7.955.797-8.087 15.273-14.415 31.534-13.784 13.483.524 23.982 4.828 27.127 11.122 1.112 2.226 1.079 4.046-.14 7.689-.509 1.522-.926 3.107-.926 3.521 0 .848-1.634 12.878-2.274 16.738-.662 3.996-2.365 11.041-3.265 13.513-1.275 3.5-2.96 6.153-5.546 8.735-3.237 3.231-6.517 5.003-10.943 5.911-2.621.538-6.947.721-9.325.396m12.486-43.24c5.461-.787 10.873-2.762 12.772-4.66.71-.71.825-.988.69-1.664-.45-2.253-3.14-4.4-7.853-6.268-3.846-1.524-10.351-3.149-12.616-3.15h-.606l.672 1.147c.684 1.167.855 2.388.43 3.06-.35.554-1.533.41-3.461-.422-1.567-.676-1.991-.74-4.763-.722-2.444.016-3.355.134-4.63.602-2.393.879-4.271 2.219-6.625 4.728-1.988 2.118-2.168 2.246-2.735 1.943-.717-.384-1.35-1.768-1.367-2.986l-.012-.868L32.391 65c-.367.695-.507 1.392-.452 2.249.078 1.201.135 1.278 1.742 2.356 2.858 1.916 8.596 3.477 14.869 4.046 3.429.312 10.994.103 14.476-.399"/></svg>