<?xml version="1.0" encoding="UTF-8" standalone="no"?>
<svg
   ffdec:objectType="shape"
   height="43.8px"
   width="26.55px"
   version="1.1"
   id="svg4"
   sodipodi:docname="195.svg"
   inkscape:version="1.3.2 (091e20e, 2023-11-25)"
   xmlns:inkscape="http://www.inkscape.org/namespaces/inkscape"
   xmlns:sodipodi="http://sodipodi.sourceforge.net/DTD/sodipodi-0.dtd"
   xmlns="http://www.w3.org/2000/svg"
   xmlns:svg="http://www.w3.org/2000/svg"
   xmlns:ffdec="https://www.free-decompiler.com/flash">
  <g transform="matrix(1.0, 0.0, 0.0, 1.0, 11.7, 22.5)">
    <path d="M -8.5,15.4 C -9.8,9.8666667 -10.433333,5.3166667 -10.4,1.75 l 0.1,-2.3 -0.05,-0.5 c 0,-1.3333333 0.8333333,-2.4833333 2.5,-3.45 1.6,-0.8666667 3.4833333,-1.3333333 5.65,-1.4 l -0.75,1.3 -3.65,0.8 c -1.3,0.5333333 -1.95,1.1833333 -1.95,1.95 0,0.8 0.65,1.45 1.95,1.95 1.4,0.56666667 3.0666667,0.85 5,0.85 1.9,0 3.5333333,-0.28333333 4.9,-0.85 1.3333333,-0.5 2,-1.15 2,-1.95 0,-0.7666667 -0.6666667,-1.4166667 -2,-1.95 L 0.7,-4.5 0.75,-4.55 1.55,-5.2 1.6,-5.3 1.8,-5.55 4.5,-4.5 c 1.7,0.9666667 2.55,2.1166667 2.55,3.45 L 7,-0.55 7.1,1.75 V 2.6 C 7.3626236,2.4058869 7.6428486,2.2352422 7.940675,2.088066 8.5122811,1.8055966 9.1487228,1.6095746 9.85,1.5 l 1.75,0.15 1,0.9 c 0.733333,1 1.033333,2.1833333 0.9,3.55 l -0.95,3.7 c -0.766667,1.933333 -1.616667,3.55 -2.55,4.85 l -0.7,0.9 c -0.5333333,0.433333 -1.2,0.7 -2,0.8 L 5.2,16 5.05,15.95 l -0.6,2 C 2.6833333,19.316667 0.65,20 -1.65,20 -3.95,20 -6,19.316667 -7.8,17.95 L -8.5,15.4 M 11,8.95 11.75,6.35 c 0.1,-1 -0.05,-1.8333333 -0.45,-2.5 L 10.9,3.35 10.1,3.3 C 9.8376956,3.3562081 9.5977698,3.4163654 9.3802229,3.4804718 8.8236928,3.6444694 8.4136185,3.8343121 8.15,4.05 L 7.2,5 6.95,5.2 c -0.2333333,2.5 -0.7,5.366667 -1.4,8.6 l 0.1,0.1 0.45,0.45 c 0.1,0.133333 0.2666667,0.2 0.5,0.2 0.6,0.06667 1.0833333,-0.08333 1.45,-0.45 l 0.8,-0.9 z"/>
    <path d="M-0.65 -18.85 L-1.8 -17.0 -2.3 -15.15 -1.95 -13.85 -1.25 -12.1 0.15 -10.4 0.85 -8.75 Q1.2 -6.9 0.35 -5.55 L-1.6 -3.25 -2.8 -2.1 -3.4 -2.0 -2.95 -2.75 -1.5 -5.8 Q-1.1 -7.2 -1.2 -8.45 -1.3 -9.6 -3.0 -12.1 -4.6 -14.35 -4.45 -15.75 -4.3 -16.85 -3.6 -17.8 -2.15 -20.0 0.9 -21.6 L1.1 -21.2 -0.45 -19.0 -0.65 -18.85 Z" />
  </g>
</svg>
