<?xml version="1.0" encoding="UTF-8"?>
<svg xmlns="http://www.w3.org/2000/svg" viewBox="0 0 55.79 60.74">
  <g>
    <path d="m33.6,60.74H11.41c-.06-.04-.11-.12-.18-.13-3.13-.71-5.04-2.65-5.87-5.74-1.49-5.55-2.68-11.16-3.54-16.84-.83-5.46-1.35-10.95-1.49-16.47-.08-3.06,2.07-5.21,5.12-5.21,5.83,0,11.66,0,17.49,0,.25,0,.49.02.73.03v13.53c-.42,0-.78-.01-1.14,0-1.44.06-2.48,1.06-2.49,2.51-.03,2.85-.03,5.7,0,8.55.01,1.43,1.06,2.48,2.5,2.49,2.44.03,4.88.03,7.32,0,1.44-.02,2.48-1.06,2.49-2.5.03-2.85.03-5.7,0-8.55-.02-1.44-1.06-2.44-2.5-2.5-.38-.01-.75,0-1.13,0v-13.56c.21,0,.36,0,.51,0,6.42,0,12.84,0,19.26,0,2.94,0,5.6,1.82,6.73,4.56.23.56.38,1.16.56,1.75v13.26c-.05.12-.11.23-.14.35-.86,3.69-3.69,5.96-7.45,5.96-1.64,0-3.28.02-4.93-.01-.58-.01-.81.11-.95.75-.85,3.95-1.74,7.89-2.68,11.83-.75,3.13-2.7,5.1-5.87,5.81-.07.01-.12.09-.18.13Zm9.85-23.43c1.64,0,3.33.04,5.02-.01,1.35-.04,2.37-1.08,2.38-2.45.03-3.7.03-7.4,0-11.09,0-1.26-.85-2.29-2.07-2.4-1.34-.12-2.7-.03-3.93-.03-.47,5.35-.93,10.63-1.4,15.99Z"/>
    <path d="m24.96,6.47c0,1.23.01,2.47,0,3.7-.02,1.43-1.09,2.48-2.5,2.46-1.35-.01-2.41-1.08-2.42-2.47-.01-2.47-.01-4.93,0-7.4,0-1.43,1.08-2.47,2.5-2.46,1.36.01,2.41,1.07,2.42,2.46.01,1.23,0,2.47,0,3.7Z"/>
    <path d="m10.18,8.28c0-.62-.01-1.23,0-1.85.03-1.38,1.09-2.42,2.46-2.42,1.36,0,2.44,1.05,2.46,2.43.02,1.26.02,2.52,0,3.78-.02,1.38-1.1,2.42-2.46,2.42-1.36,0-2.43-1.05-2.46-2.43-.01-.64,0-1.28,0-1.93Z"/>
    <path d="m34.83,8.36c0,.62.01,1.23,0,1.85-.03,1.38-1.09,2.43-2.46,2.43-1.36,0-2.44-1.05-2.46-2.42-.02-1.26-.02-2.52,0-3.78.02-1.38,1.08-2.43,2.45-2.43,1.37,0,2.44,1.04,2.47,2.42.01.64,0,1.28,0,1.93Z"/>
  </g>
</svg>