<svg xmlns="http://www.w3.org/2000/svg" xml:space="preserve" width="386.55" height="625.109" viewBox="0 0 102.275 165.394"><path d="m104.86 231.485-28.311.048-2.778-.376-2.779-.376-2.778-.554-2.778-.555-2.117-.661-2.116-.661-2.023-1.047-2.024-1.046-1.62-1.688-1.622-1.688-.853-1.803-.854-1.802v-96.837l.453-1.637.453-1.637.814-2.11.814-2.11 1.515-2.412 1.515-2.412 1.77-2.09 1.768-2.091 2.064-1.775 2.063-1.775 2.381-1.579 2.382-1.578 1.735-.877 1.735-.876.343-.414.344-.414-.822-1.241-.822-1.241v-5.896l-.818-.777-.819-.777-.636-1.248-.637-1.248v-2.862l.406-1.15.405-1.15.55-.585.55-.585-.995-.874-.995-.873-.358-.856-.357-.855v-1.631l.373-.715.374-.714.75-.713.752-.712 1.455-.662 1.455-.661 2.646-.534 2.646-.534 3.837-.394 3.836-.395 6.085-.315 6.086-.315 8.466.162 8.467.161 3.44.277 3.44.276 3.415.548 3.415.547 1.652.51 1.652.51 1.277.857 1.277.858.596 1.058.597 1.058.004.737.004.736-.358.851-.357.851-.818.872-.817.87.63.929.63.927.31.94.31.939-.11 1.627-.11 1.628-.465.962-.464.963-.778.87-.778.872v5.746l-.529 1.038-.53 1.037.001.341v.342l2.183 1.16 2.183 1.161 2.645 1.742 2.646 1.742 2.53 2.521 2.53 2.521 1.221 1.727 1.221 1.726.975 1.713.976 1.714.873 2.249.873 2.249.427 2.072.427 2.073-.01 47.301-.01 47.302-.424 1.426-.423 1.426-.666 1.315-.666 1.315-1.62 1.617-1.62 1.618-2.248 1.098-2.25 1.098-2.606.665-2.608.666-3.081.59-3.081.592zm1.851-2.725 23.019-.04 2.381-.147 2.381-.147 2.91-.552 2.911-.551 2.381-.672 2.382-.672 1.532-.815 1.533-.814 1.378-1.49 1.378-1.49.601-1.71.601-1.71.06-47.094.06-47.095-.478-2.04-.48-2.042-.637-1.626-.637-1.626-.947-1.723-.947-1.723-1.614-2.12-1.613-2.119-1.968-1.95-1.969-1.948-2.739-1.832-2.739-1.831-2.236-1.078-2.237-1.077-.153-.399-.152-.398h-.602l.152.399.153.398-1.028.649-1.028.649-.42.599-.419.599v1.352l.415.593.415.593 2.959 1.472 2.958 1.471 2.57 1.706 2.569 1.706 1.728 1.91 1.728 1.911 1.188 1.588 1.189 1.587.787 1.473.787 1.472.644 2.364.643 2.364.275 1.72.274 1.72-.026 42.598-.025 42.598-.207 2.258-.206 2.258-.409.784-.409.785-.002.21-.002.208-.595.85-.596.849-.924.889-.925.888-1.55.783-1.552.783-2.022.56-2.022.56-10.848.082-10.848.083-21.167-.002-21.167-.002-.926-.136-.926-.137-2.61-.54-2.61-.54-.961-.438-.962-.438-1.49-.987-1.49-.988-.767-1.003-.766-1.004-.424-.934-.423-.934-.314-1.447-.313-1.447.097-44.847.098-44.847.45-1.81.45-1.812.803-2.025.805-2.026.733-1.058.734-1.058.71-1.24.711-1.239 2.844-2.875 2.843-2.875 3.16-2.104 3.161-2.103.544-.218.544-.218 1.572-.127 1.572-.128 1.553-.363 1.553-.362.673-.44.674-.442-.166-.827-.165-.827-.248-.248-.248-.248-3.506-.502-3.506-.501-.408.536-.409.537-1.628.66-1.627.659-1.378.812-1.378.813-2.154 1.627-2.153 1.627-2.01 2-2.008 2.001-1.57 2.126-1.57 2.127-1.085 2.107-1.084 2.107-.586 1.72-.587 1.72-.439 1.984-.439 1.984v77.523l.133 7.688.132 7.687.996 2.015.996 2.014 1.3 1.088 1.299 1.088 1.938.884 1.938.884 2.778.684 2.778.684 1.323.158 1.323.16 1.29.283 1.291.284 5.06.164 5.059.164zm-44.979-3.53H61.6v-.265h.264v.264zm87.312-12.172h-.132v-.264h.265v.264zm.265-2.645h-.132v-.265h.264v.265zm-93.398-3.97h-.132v-.264h.264v.265zm93.927-2.38h-.132v-.265h.265v.265zm0-9.525h-.132v-.265h.265v.265zm-.529-7.938h-.132v-.265h.264v.265zm1.058-4.498h-.132v-.265h.265v.265zm-.661-.53h-.353l.177-.175.176-.177.176.177.177.176zm.397-14.022h-.132v-.265h.264v.265zm-.22-.617-.177.176v-.706l.176.177.177.176zm.22-5.204h-.132v-.264h.264v.264zm-.53-.794h-.132v-.264h.265v.264zm1.324-8.995h-.133v-.265h.265v.265zm.264-3.175h-.132v-.265h.264v.265zm-1.058-3.97h-.132v-.264h.264v.265zm.264-2.645h-.132v-.265h.265v.265zm-1.19-4.498h-.353l.176-.176.177-.177.176.177.177.176zm-45.773 48.343 34.263-.056L139 185.2l1.331-.738.731-.916.732-.917.387-1.098.387-1.098v-18.49l-.002-18.492-.427-.849-.428-.849-.83-.883-.83-.883-1-.515-1-.516-12.23.041-12.229.041-11.245.025-11.244.025-11.402-.1-11.4-.1-1.24.6-1.24.6-.686.898-.685.898-.354.993-.354.993-.012 18.535-.012 18.535.683 1.37.682 1.368 1.057.838 1.058.837.972.35.972.349zm-44.582-11.83h.132v-.265h-.265v.265zm47.228-77.132 9.922-.098 3.44-.291 3.439-.292 2.606-.381 2.607-.382 1.062-.286 1.062-.286.63-.63.632-.632V89.97l-.596.146-.595.146-3.88.54-3.88.542-3.925.329-3.925.329-10.848-.005-10.848-.005-3.969-.33-3.969-.332-4.233-.517-4.233-.517-.728-.128-.728-.128v3.355l.53.672.528.673 1.237.421 1.237.422 4.783.535 4.782.536 3.97.238 3.968.238zm-3.668-8.368 7.049.04 4.725-.268 4.726-.268 3.043-.276 3.042-.276 3.17-.532 3.171-.531.896-.425.896-.425.497-.815.497-.815v-1.398l.002-1.399-.46-.718-.46-.718-.4-.323-.4-.322-.794-.006-.794-.006-2.602.526-2.602.526-3.086.382-3.087.381-5.118.316-5.118.315-9.17-.15-9.169-.151-3.969-.403-3.968-.402-4.432-.718-4.433-.718-.665.625-.666.625-.294.982-.294.982.18 1.198.18 1.198.52.661.52.661.855.267.856.268 2.513.405 2.514.405 3.704.414 3.704.414 3.837.217 3.836.216zm-20.806-1.548h-.133v-.265h.265v.265zm21.431-8.517 8.467.042 3.968-.26 3.97-.26 2.513-.278 2.513-.277 2.91-.508 2.911-.507 1.575-.543 1.575-.542.608-.571.608-.572v-1.138l-.596-.544-.595-.545-.853-.43-.854-.432-2.189-.514-2.19-.514-3.174-.406-3.175-.406-5.292-.263-5.292-.264-6.879.004-6.879.005-5.424.238-5.424.238-3.572.431-3.572.432-2.249.523-2.249.523-1.323.717-1.322.718-.084.73-.084.73.745.745.745.745 2.177.586 2.176.587 3.38.495 3.38.495 4.101.294 4.101.294 1.19.08 1.191.08z" transform="translate(-52.207 -66.14)"/></svg>