<?xml version="1.0" encoding="UTF-8"?>
<svg xmlns="http://www.w3.org/2000/svg" viewBox="0 0 261.64 261.17">
  <g>
    <path d="m261.64,139.47c-.69,4.84-1.18,9.72-2.1,14.51-6.36,32.87-22.14,60.58-46.62,83.22-10.59,9.79-23.86,15.02-37.65,18.69-18.44,4.9-37.23,6.04-56.22,4.82-14-.9-27.72-3.16-41.04-7.73-16.13-5.53-29.29-14.96-40.19-28.19-14.09-17.1-25.04-35.73-31.37-57-3.87-13-5.84-26.28-5.4-39.86.23-7.22,4.11-12.57,9.43-17.01,5.9-4.93,12.62-8.52,19.66-11.52,3.23-1.38,6.25-.3,7.45,2.59,1.18,2.84-.1,5.41-3.2,6.99-4.74,2.42-9.56,4.74-14.05,7.58-2.58,1.64-4.86,3.99-6.74,6.44-2.99,3.88-2.74,7,.23,10.88,3.11,4.07,7.34,6.75,11.77,9.12,12.14,6.49,25.25,10.09,38.65,12.77,26.48,5.3,53.26,6.99,80.19,6.03,26.06-.93,51.86-3.81,76.76-12.15,7.81-2.62,15.46-5.68,22.06-10.71,2.51-1.91,4.71-4.37,6.59-6.92,2.01-2.72,1.86-6.03-.4-8.48-2.84-3.07-5.91-6.13-9.41-8.35-9.16-5.8-19.4-9.13-29.84-11.83-.65-.17-1.32-.31-1.95-.56-2.69-1.07-4.01-3.69-3.24-6.35.79-2.71,3.31-4.39,6.09-3.67,11.58,2.97,22.95,6.56,33.35,12.63,7.94,4.64,14.57,10.5,17.18,19.8v14.25Z"/>
    <path d="m49.88.51c2.53,1.7,3.36,4.11,3.46,7.1.43,12.86,6,23.76,13.39,34.36,1.04-1.91,1.88-3.59,2.83-5.2,6.38-10.71,15.22-18.16,27.82-20.19,10.2-1.64,19.73.91,28.58,5.87,17.05,9.57,31.44,22.37,44.12,37.15,12,13.98,21.28,29.72,29.92,45.89,3.74,7.01,7.15,14.22,12.57,20.23,2.44,2.7,1.21,6.52-2.56,7.99-8.65,3.39-17.28,6.93-26.13,9.72-17.25,5.45-35,7.91-53.11,7.17-22.51-.92-43.71-6.29-62.28-19.67-11.63-8.38-20.91-18.82-24.33-33.08-3.4-14.19-1.64-27.68,8.65-38.96,2.3-2.52,5.31-4.41,8.23-6.78-.85-1.17-1.88-2.58-2.89-4-7.03-9.91-12.51-20.53-14.58-32.64-.55-3.24-.61-6.57-.81-9.86-.16-2.59,1.66-3.9,3.55-5.12h3.56Zm11.52,52.15c3.56,3.97,6.78,7.79,10.25,11.39,14.72,15.29,31.58,27.94,49.45,39.25,8.29,5.25,16.84,10.08,25.34,15,3.67,2.12,7.33.61,8.18-3.13.53-2.3-.76-4.28-3.62-6.05-12.86-8-25.95-15.66-38.47-24.17-15.32-10.41-29.33-22.45-41.2-36.81-1.48-1.79-2.89-3.62-4.28-5.37-2.91,2.81-.72,7.99-5.65,9.89Z"/>
  </g>
</svg>