<svg xmlns="http://www.w3.org/2000/svg" xml:space="preserve" width="119.312" height="374.891" viewBox="0 0 31.568 99.19"><path d="M8.482 0c-.024.005-.053.009-.068.013-.005.001-.017.007-.012.01.006.006.017.001.025 0h.016c.015-.01.023-.01.04-.023m-.089.051L8.376.06c-.009.006-.036.015-.026.018.007.001.03-.02.043-.026m7.68 1.238c-5.803 0-5.913.01-6.318.588-.418.598-.56 2.086-.231 2.415.1.1 3.106.15 6.681.11l6.5-.07-.022-1.11c-.038-1.954.035-1.933-6.61-1.933m.113 5.292c-5.46 0-5.828.03-5.648.463.107.255.32.782.476 1.172.21.526.128 2.595-.323 8.07-.333 4.048-.66 7.45-.727 7.56-.067.108-.05.317.04.462h.001c.101.164 2.428.265 6.101.265h5.938l-.003-.993c-.002-.545-.299-3.85-.66-7.342s-.658-6.66-.66-7.04c0-.38.294-1.125.653-1.654l.654-.963zM9.74 26.821l-.18 1.72c-.1.946-.3 2.87-.444 4.276s-.455 2.926-.689 3.378-1.32 1.555-2.413 2.453C3.722 40.53 1.78 43.225.88 45.777.444 47.01.25 48.29.152 50.568l-.134 3.109h31.55v-2.465c0-3.292-.38-5.207-1.509-7.59-.77-1.626-1.412-2.447-3.56-4.552-1.518-1.486-2.797-2.987-3.038-3.565s-.544-2.615-.719-4.84l-.302-3.843h-6.35zm2.91 29.105-.069 9.194c-.077 10.212-.027 10.58 1.575 11.583 1.712 1.073 3.88.178 4.465-1.844.17-.59.243-4.307.194-9.937l-.08-8.996h-3.042zm8.467 0-.132 9.966-.133 9.965-.796 1.147c-2.344 3.37-7.304 3.009-9.01-.656-.638-1.37-.639-1.392-.642-10.787-.001-5.178-.052-9.465-.112-9.525s-2.37-.076-5.13-.033l-5.02.077-.113 14.475C-.04 79.32.015 85.16.165 85.36c.332.444 30.746.487 31.02.043.22-.356.191-29.097-.03-29.319-.088-.088-2.382-.16-5.099-.16zM.083 87.809v11.38l15.676-.067 15.677-.069.075-5.027c.042-2.764.01-5.295-.071-5.622l-.146-.595H15.689Z"/></svg>