<svg xmlns="http://www.w3.org/2000/svg" xml:space="preserve" width="362.812" height="609.068" viewBox="0 0 95.994 161.149"><path d="m64.747 99.685-.626.181c2.805 3.813 3.636 5.73 3.622 8.406-.01 2.164-.517 3.945-2.686 9.464-6.759 17.195-7.927 22.835-7.67 37.04.172 9.517 1.072 15.366 3.428 22.286 1.017 2.988 3.797 8.62 5.664 11.478 6.685 10.23 15.505 18.732 23.724 22.87 1.727.87 6.42 2.762 8.33 3.36 3.404 1.065 4.828 1.266 8.854 1.247 3.648-.016 3.85-.04 6.512-.747 1.511-.402 3.793-1.104 5.071-1.56s2.358-.794 2.4-.752c.246.245-1.494 1.241-3.943 2.256-1.549.641-3.136 1.33-3.528 1.53-1.057.543-2.672.835-5.292.959-3.665.174-5.703-.162-8.94-1.474-1.506-.61-2.829-1.11-2.94-1.11s.503.485 1.365 1.078c1.685 1.157 2.252 1.85 2.951 3.604.657 1.646.859 3.264.749 6.003-.227 5.643-.305 13.353-.135 13.248.1-.061 1.31-.427 1.577-1.24.472-1.44.5-1.94.5-8.465 0-6.345.09-6.871-.362-8.759-.263-1.099-.422-1.132-.373-1.181s-.404-.096.202.02c1.904.367 4.94.3 7.251.049 1.216-.133.983-.112 1.027-.068.043.043.166-.059-.127.66-.815 1.999-.858 3.99-.865 8.058-.006 3.677.61 6.886 1.254 9.435.455 1.797 1.991 5.145 3.169 6.585 2.645 3.234 7.554 5.463 14.097 6.919 2.71.603 2.005.15 2.005.384 0 .335-1.34.513-3.265.84-4.315.732-20.277 1.165-25.392.903-1.408-.072-1.568.815-1.899 1.114-.218.198-.396.495-.396.662 0 .265 1.083.287 8.7.183 12.497-.17 22.075-.998 24.423-2.109.587-.278 1.07-.567 1.074-.643s.151-.204.3-.4c.246-.324.317-.236 1.199.03 1.208.363 1.4.613 1.4 1.321 0 1.302-1.417 1.873-5.147 2.82-3.188.808-5.603 1.108-12.47 1.634-5.136.394-7.41.624-16.29.623-10.623 0-16.055-.267-21.267-1.023-4.694-.681-7.243-1.632-7.243-3.06 0-.611.926-1.361 1.98-1.679.68-.205.507-.504 1.171.16.512.511 1.012.772 1.821.946 1.5.324 7.686.973 11.907 1.25l3.428.225.366-.474c.2-.262.905-1.302.907-1.37s-1.981-.092-3.408-.169c-6.779-.363-12.015-.373-12.516-.874-.262-.262-.087-.29.588-.572.422-.177 2.17-.377 4.056-.873 1.887-.497 4.521-1.348 5.284-1.635 6.59-2.478 9.43-7.204 10.584-14.853.357-2.374-.359-4.374-.645-5.882-.39-2.057-.535-1.762-.913 1.855-.763 7.299-2.04 10.713-5.174 13.835-2.49 2.48-3.936 3.136-11.623 5.273-7.18 1.996-7.645 2.162-8.535 3.053-1.397 1.396-1.204 2.888.536 4.155 2.017 1.468 4.71 2.076 12.685 2.86 2.854.282 5.602.545 6.106.585 1.897.152 18.108.082 20.351-.087 14.043-1.06 19.607-1.957 22.85-3.686 1.56-.83 2.183-1.58 2.183-2.625 0-2.31-1.35-3.012-8.937-4.646-4.212-.908-6.493-1.64-8.337-2.679-4.593-2.586-7.19-6.592-8.05-12.417-.367-2.49-.43-8.717-.107-10.76.296-1.875.935-3.703 1.63-4.664.718-.99 1.584-1.562 4.67-3.084 2.428-1.196 2.82-1.504 3.23-2.53.187-.468.704-.865 2.221-1.704 5.679-3.143 9.528-6.367 13.868-11.615 4.136-5.003 9.01-14.845 11.343-22.906 1.334-4.612 2.494-11.482 2.938-17.401.305-4.075.125-15.16-.31-19.03-1.062-9.46-3.196-16.88-7.696-26.767-2.115-4.645-2.786-6.202-3.232-7.498-.413-1.2-.445-3.392-.516-4.356-.663-.742-.521-.682-1.36-1.089-.363-.177-1.266-.402-1.67-.39-3.596.098-11.832.2-34.995.104-21.249-.088-32.902-.119-33.122-.005-.199.103-.405 1.508-.344 1.607.382.618 7.952.932 33.376.902 26.961-.032 34.434.27 35.22 1.057.107.108.806.174.838.718.076 1.315.573 4.353 2.903 9.412 3.474 7.544 5.746 13.877 6.994 20.42.982 5.148 1.84 13.395 1.663 20.039-.109 4.064-.066 7.775-.67 9.43l-.323.885-.758-.588c-6.039-1.585-27.385-2.767-49.188-2.417-12.067.194-20.655.668-24.974 1.095-1.087.108-.82 1.229-.82 1.708v.517l2.493-.136c16.945-.918 36.233-1.118 49.811-.516 13.815.612 21.87 1.329 23.29 2.073.36.19.334.236-.321.572-3.376 1.732-15.587 2.974-34.06 3.464-10.788.286-26.752-.034-36.736-.736a675 675 0 0 0-4.325-.296c-.185-.003-.184.489-.053.758-.09.037-.064.48-.004 1.111.055.596.198 2.32.316 3.83.587 7.496 2.276 14.832 4.478 19.446.353.74.575 1.407.494 1.482s-.188.022-.238-.118-.18-.254-.29-.254-.138.096-.066.214c.084.135-.077.191-.434.152-.493-.053-.591.031-.765.652-.262.935-.285.952-.652.494-1.573-1.969-2.9-4.613-4.27-8.517a249 249 0 0 0-1.589-4.41c-.887-2.332-2.261-9.908-2.416-13.33-.046-1.02-.114-1.225-.381-1.155-.02.005-.079 0-.104.003.274-.043.325-.165.29-.412-.059-.413-.273-.494-2.163-.822-2.802-.487-5.004-1.187-5.087-1.616-.083-.428.737-.66 3.823-1.08 3.336-.455 3.495-.245 3.495-.827 0-.603-.214-1.68-2.935-1.275-3.134.468-3.638 1.199-4.547 1.81-.461.31-.355-.119-.439-.202-.603-.603-.612-9.749-.42-15.477.371-11.066 1.254-15.773 6.832-29.978 1.012-2.576 1.872-5.6 2.157-6.494 1.215-5.438.603-8.965-3.303-14.413zm-4.855 68.422c.006 0 .051.029.061.032-.023 0-.031.003-.057.003.001-.002-.006-.035-.004-.035zm.217 1.357c.002.013.01.027.011.04q.014.066.021.115zm6.774.328.093.012zm.98 18.57c.303.46.603.92.923 1.38-.038-.055-.08-.109-.118-.164-.273-.392-.538-.806-.805-1.216m2.335 3.317c.275.368.55.737.837 1.106q-.423-.55-.837-1.106m17.794 16.984q.409.2.8.435c.075.043.147.093.221.14-.345-.19-.691-.38-1.021-.575m-9.297 51.483c.801.087 2.967.109 6.237.11a74 74 0 0 0-3.975-.073q-1.131-.006-2.262-.037" style="display:inline;fill:#000;fill-opacity:1" transform="translate(-57.355 -99.107)"/></svg>