<?xml version="1.0" encoding="UTF-8" standalone="no"?>
<!-- Created with Inkscape (http://www.inkscape.org/) -->

<svg
   width="95.994057mm"
   height="161.1492mm"
   viewBox="0 0 95.994057 161.1492"
   version="1.1"
   id="svg1"
   xml:space="preserve"
   xmlns:inkscape="http://www.inkscape.org/namespaces/inkscape"
   xmlns:sodipodi="http://sodipodi.sourceforge.net/DTD/sodipodi-0.dtd"
   xmlns="http://www.w3.org/2000/svg"
   xmlns:svg="http://www.w3.org/2000/svg"><sodipodi:namedview
     id="namedview1"
     pagecolor="#ffffff"
     bordercolor="#000000"
     borderopacity="0.25"
     inkscape:showpageshadow="2"
     inkscape:pageopacity="0.0"
     inkscape:pagecheckerboard="0"
     inkscape:deskcolor="#d1d1d1"
     inkscape:document-units="mm" /><defs
     id="defs1" /><g
     inkscape:label="Слой 1"
     inkscape:groupmode="layer"
     id="layer1"
     transform="translate(-57.354982,-99.106801)"><g
       id="g30"><path
         id="path31"
         style="display:inline;fill:#000000;fill-opacity:1"
         d="m 64.747469,99.684871 -0.626318,0.181385 c 2.804507,3.813014 3.635712,5.730454 3.622001,8.406204 -0.01109,2.1633 -0.516841,3.94474 -2.686141,9.46351 -6.759013,17.195 -7.926921,22.83535 -7.669816,37.04063 0.172244,9.51654 1.07196,15.36559 3.427698,22.28494 1.017583,2.98892 3.796771,8.62069 5.664253,11.47837 6.684679,10.22927 15.505155,18.73224 23.723617,22.86992 1.727075,0.86954 6.419427,2.76246 8.330758,3.36052 3.403039,1.06482 4.827769,1.26536 8.853209,1.24696 3.64799,-0.0167 3.85017,-0.04 6.51226,-0.74776 1.51113,-0.40179 3.79305,-1.10361 5.07101,-1.5596 1.27797,-0.45599 2.35785,-0.79441 2.39985,-0.75241 0.24572,0.24573 -1.49425,1.24144 -3.94291,2.2562 -1.54857,0.64175 -3.13617,1.33052 -3.52795,1.53117 -1.05747,0.54159 -2.67237,0.83396 -5.29167,0.95808 -3.66561,0.1737 -5.70355,-0.16223 -8.941052,-1.47433 -1.505218,-0.61003 -2.82778,-1.10897 -2.938839,-1.10897 -0.111059,0 0.502981,0.48465 1.364775,1.07693 1.684388,1.15762 2.251846,1.85014 2.951236,3.60392 0.65659,1.6464 0.85832,3.26404 0.74828,6.00377 -0.22664,5.64238 -0.3051,13.35298 -0.13488,13.24777 0.0995,-0.0615 1.31094,-0.42674 1.57766,-1.24085 0.47125,-1.43829 0.4987,-1.93856 0.4987,-8.46451 0,-6.34453 0.0899,-6.87068 -0.36153,-8.75847 -0.2628,-1.09907 -0.42124,-1.13245 -0.37244,-1.18125 0.0488,-0.0488 -0.40418,-0.0965 0.20159,0.0205 1.90372,0.36615 4.94045,0.29959 7.2513,0.0482 1.21588,-0.13225 0.98322,-0.11141 1.02642,-0.0682 0.0432,0.0432 0.16663,-0.0585 -0.12632,0.65996 -0.81531,1.99953 -0.85792,3.98959 -0.86492,8.05816 -0.006,3.67742 0.60915,6.88681 1.25411,9.43489 0.45507,1.79788 1.99081,5.14541 3.16852,6.58526 2.64537,3.23411 7.55364,5.46276 14.09728,6.91897 2.71053,0.60319 2.00432,0.1501 2.00432,0.38386 0,0.33532 -1.33902,0.51385 -3.26428,0.84036 -4.31536,0.73187 -20.27756,1.16513 -25.39176,0.90326 -1.40877,-0.0721 -1.56847,0.815 -1.89909,1.11423 -0.21809,0.19737 -0.39636,0.49502 -0.39636,0.66146 0,0.26497 1.08288,0.28751 8.70025,0.18345 12.49658,-0.17072 22.0749,-0.9979 24.42228,-2.10891 0.58766,-0.27815 1.07087,-0.56768 1.07487,-0.64338 0.004,-0.0757 0.15103,-0.20409 0.29934,-0.39945 0.24659,-0.32481 0.3172,-0.23635 1.19895,0.029 1.20791,0.36353 1.40085,0.61321 1.40085,1.3214 0,1.30163 -1.41778,1.87339 -5.14778,2.81955 -3.18732,0.80849 -5.60277,1.10874 -12.46992,1.63491 -5.13629,0.39353 -7.4097,0.62359 -16.28943,0.62259 -10.623414,-0.001 -16.05591,-0.26674 -21.267293,-1.0232 -4.693948,-0.68135 -7.242929,-1.63203 -7.242929,-3.05952 0,-0.6117 0.926067,-1.36162 1.980019,-1.67932 0.680526,-0.20514 0.50691,-0.50429 1.171089,0.1599 0.511386,0.51139 1.012118,0.77158 1.821078,0.94619 1.499704,0.3237 7.685631,0.97314 11.90625,1.25006 l 3.428731,0.22531 0.365352,-0.47491 c 0.20088,-0.26114 0.904867,-1.30204 0.907367,-1.36964 0.0025,-0.0676 -1.981374,-0.092 -3.408536,-0.16846 -6.778515,-0.36323 -12.014482,-0.37352 -12.515112,-0.87415 -0.262167,-0.26217 -0.08795,-0.29073 0.587186,-0.57282 0.422612,-0.17658 2.170764,-0.37648 4.056844,-0.87291 1.886074,-0.49643 4.52099,-1.34737 5.283447,-1.63417 6.590191,-2.47884 9.430665,-7.2042 10.583637,-14.85387 0.3577,-2.3733 -0.3586,-4.37389 -0.64448,-5.88132 -0.390099,-2.05687 -0.534948,-1.76269 -0.913125,1.85467 -0.763073,7.29881 -2.04008,10.71342 -5.173845,13.83533 -2.489442,2.48003 -3.936149,3.13614 -11.62358,5.27306 -7.180138,1.9959 -7.644219,2.16187 -8.534879,3.05253 -1.396249,1.39626 -1.203824,2.88779 0.536401,4.15478 2.016731,1.4683 4.71031,2.0759 12.685014,2.86133 2.854318,0.28112 5.60187,0.54426 6.10557,0.58446 1.897202,0.15136 18.108214,0.0815 20.351734,-0.0879 14.04217,-1.05916 19.60655,-1.9564 22.84976,-3.68505 1.55973,-0.83133 2.18333,-1.58062 2.18333,-2.62516 0,-2.31008 -1.35087,-3.01237 -8.93744,-4.64675 -4.2123,-0.90747 -6.49292,-1.63998 -8.33695,-2.67839 -4.59298,-2.58623 -7.18975,-6.59218 -8.04964,-12.41681 -0.36766,-2.49036 -0.42983,-8.71698 -0.10749,-10.76007 0.29594,-1.87562 0.93457,-3.70325 1.63039,-4.66379 0.71757,-0.99058 1.58388,-1.56267 4.67,-3.08405 2.4277,-1.19679 2.82007,-1.50412 3.22978,-2.53008 0.18699,-0.46828 0.70437,-0.86549 2.22105,-1.70481 5.67866,-3.14245 9.52793,-6.36623 13.86737,-11.61428 4.13679,-5.00283 9.01113,-14.8455 11.3435,-22.90661 1.33428,-4.61175 2.49403,-11.48147 2.9378,-17.401 0.30542,-4.07421 0.12513,-15.15882 -0.30954,-19.02881 -1.06268,-9.46141 -3.19602,-16.8815 -7.69669,-26.76788 -2.11478,-4.64544 -2.78591,-6.20161 -3.23184,-7.49773 -0.41319,-1.20094 -0.44476,-3.39184 -0.51625,-4.35581 -0.66241,-0.74278 -0.521,-0.68233 -1.36012,-1.08934 -0.36228,-0.17682 -1.26546,-0.40174 -1.66864,-0.39067 -3.59665,0.0987 -11.8323,0.20125 -34.99579,0.1049 -21.248873,-0.0884 -32.902116,-0.11927 -33.121773,-0.005 -0.199012,0.1031 -0.405562,1.50786 -0.344692,1.60636 0.382026,0.61813 7.952092,0.93255 33.376565,0.90215 26.96113,-0.0322 34.43343,0.27095 35.21979,1.05732 0.10763,0.10762 0.80607,0.17338 0.83787,0.71824 0.0767,1.31468 0.57304,4.35287 2.90309,9.41193 3.47446,7.54367 5.74648,13.87689 6.99428,20.41912 0.982,5.1482 1.83977,13.39563 1.66246,20.03945 -0.10848,4.06448 -0.0652,7.77532 -0.6697,9.43005 l -0.32316,0.88462 -0.75789,-0.5872 c -6.03861,-1.58541 -27.38435,-2.76753 -49.18815,-2.41705 -12.066447,0.19396 -20.65513,0.66729 -24.973969,1.0949 -1.086691,0.10761 -0.81968,1.22877 -0.81968,1.70828 v 0.51625 l 2.492871,-0.13539 c 16.945285,-0.91856 36.233068,-1.11847 49.811428,-0.51676 13.81466,0.6121 21.86903,1.32911 23.28902,2.07325 0.36124,0.18931 0.33495,0.23637 -0.32039,0.57258 -3.37575,1.73186 -15.58697,2.97371 -34.06046,3.46335 -10.78707,0.2859 -26.751924,-0.0341 -36.735223,-0.73587 -2.294643,-0.1613 -4.24085,-0.29411 -4.3248,-0.29611 -0.184979,-0.003 -0.184069,0.48903 -0.05374,0.75861 -0.0893,0.0366 -0.06328,0.48036 -0.0041,1.11105 0.05585,0.59544 0.198553,2.31916 0.316777,3.83026 0.586415,7.49563 2.275136,14.8308 4.477246,19.4448 0.353164,0.74008 0.575733,1.4074 0.494543,1.4826 -0.08119,0.0752 -0.188258,0.0221 -0.238228,-0.11782 -0.04997,-0.13992 -0.180175,-0.25425 -0.289388,-0.25425 -0.10922,0 -0.138772,0.0962 -0.06615,0.21394 0.08334,0.13484 -0.07757,0.19115 -0.434082,0.15245 -0.493019,-0.0536 -0.591765,0.0308 -0.765328,0.65112 -0.261752,0.93554 -0.284663,0.95269 -0.65164,0.49403 -1.573852,-1.96826 -2.899991,-4.6127 -4.271057,-8.5168 -0.59278,-1.68806 -1.307205,-3.67291 -1.588017,-4.41006 -0.887686,-2.33123 -2.261279,-9.90815 -2.41639,-13.33046 -0.04617,-1.01876 -0.114059,-1.22384 -0.381372,-1.15445 -0.02015,0.005 -0.07826,-5.6e-4 -0.103869,0.003 0.274485,-0.0425 0.325462,-0.16512 0.290421,-0.41186 -0.0586,-0.4126 -0.272654,-0.49371 -2.163175,-0.82217 -2.801708,-0.48677 -5.004408,-1.18638 -5.087028,-1.61541 -0.08244,-0.4281 0.73714,-0.65958 3.823539,-1.08055 3.335924,-0.45499 3.494127,-0.24437 3.494127,-0.8268 0,-0.60301 -0.213669,-1.68096 -2.934725,-1.27472 -3.133807,0.46787 -3.637774,1.19873 -4.547273,1.80956 -0.460848,0.30951 -0.354731,-0.11843 -0.438571,-0.20223 -0.602601,-0.6026 -0.612257,-9.74816 -0.419977,-15.47693 0.371422,-11.0661 1.254249,-15.77311 6.831897,-29.97771 1.011614,-2.57629 1.87256,-5.60022 2.157035,-6.49392 1.215416,-5.43807 0.603214,-8.96489 -3.30334,-14.413259 z m -4.855001,68.422179 c 0.0055,0 0.05078,0.0289 0.06098,0.032 -0.02352,-0.001 -0.03156,0.003 -0.05788,0.003 0.0017,-0.002 -0.0052,-0.0346 -0.0031,-0.0346 z m 0.216525,1.35702 c 0.0019,0.0131 0.0098,0.0273 0.01137,0.0403 0.009,0.0446 0.0148,0.0808 0.02067,0.11421 -0.01215,-0.0565 -0.02066,-0.10054 -0.03204,-0.15452 z m 6.774263,0.32763 c 0.02753,0.004 0.06633,0.009 0.09302,0.0124 -0.03223,-0.004 -0.06014,-0.008 -0.09302,-0.0124 z m 0.752409,0.0848 c 0.154452,0.0148 0.282743,0.0221 0.394291,0.0258 -0.116966,-0.004 -0.246418,-0.0123 -0.394291,-0.0258 z m 0.227376,18.48518 c 0.302904,0.46004 0.603316,0.92066 0.923458,1.38028 -0.0385,-0.0551 -0.08053,-0.10868 -0.118856,-0.16382 -0.272623,-0.39219 -0.537953,-0.80633 -0.804602,-1.21646 z m 2.334741,3.31763 c 0.275654,0.36805 0.550653,0.73649 0.837675,1.10536 -0.283653,-0.36652 -0.560896,-0.73453 -0.837675,-1.10536 z m 2.082561,2.67167 c 0.47991,0.58654 0.978572,1.17569 1.487764,1.76681 -0.502467,-0.58254 -0.999842,-1.16758 -1.487764,-1.76681 z m 2.448429,2.87838 c 0.811285,0.91111 1.644968,1.80635 2.497522,2.6727 -0.844467,-0.86013 -1.676828,-1.75528 -2.497522,-2.6727 z m 3.294889,3.45146 c 0.671317,0.66169 1.346523,1.31177 2.027267,1.93219 -0.679322,-0.62056 -1.354164,-1.26678 -2.027267,-1.93219 z m 2.866492,2.67994 c 0.694595,0.61212 1.387533,1.19657 2.076876,1.75235 -0.691914,-0.55719 -1.382994,-1.13988 -2.076876,-1.75235 z m 2.994132,2.49029 c 0.171404,0.1323 0.341766,0.2605 0.512114,0.38861 -0.170738,-0.12809 -0.340856,-0.2567 -0.512114,-0.38861 z m 4.107243,2.81223 c 0.27253,0.13281 0.539623,0.27744 0.799951,0.4346 0.07601,0.0435 0.147911,0.0935 0.221692,0.14056 -0.345481,-0.19093 -0.691622,-0.38007 -1.021643,-0.57516 z m -9.296073,51.48265 c 0.801026,0.0875 2.966867,0.10909 6.236312,0.11007 -1.323968,-0.0626 -2.648908,-0.0818 -3.974951,-0.0734 -0.753604,-0.005 -1.507845,-0.0149 -2.261361,-0.0367 z"
         sodipodi:nodetypes="ccscsscssssssssssssssssssscssscsssssssssssscssscsssssccsscssscssssssssscssscssssscccsssscccssccssccssccssscccssssccsscsssccscccsscssssssscsscccccsccccccccccscscccccccccccccccccccccccccccccsc" /></g></g></svg>
