<svg xmlns="http://www.w3.org/2000/svg" xml:space="preserve" width="366.854" height="613.487" viewBox="0 0 97.063 162.318"><path d="M9.065.17c-.846.398-1.72.72-2.629.941 1.755 2.501 3.925 5.106 3.95 8.323.108 2.996-1.223 5.811-2.233 8.604C5.041 26.13 1.678 34.27.561 42.93-.2 49.04-.051 55.221.217 61.357c.338 6.565 1.522 13.13 3.98 19.245 1.977 4.681 4.373 9.208 7.438 13.274 4.978 6.773 10.904 12.972 17.998 17.547 3.114 2.06 6.607 3.425 10.075 4.755-.588.053-.417.646-.133.949 1.397 1.175 3.239 2.02 3.916 3.846 1.47 3.05.853 6.506.84 9.76.022.943-.062.784-.215-.025-.247-.775-.169-1.713-.735-2.347-.699-.366-1.05.505-1.072 1.073-.539 3.927-.716 7.977-2.328 11.676-1.186 2.63-3.198 4.896-5.648 6.415-2.929 1.563-6.181 2.236-9.324 3.183-2.413.745-4.93 1.224-7.23 2.288-1.347.753-2.528 2.431-1.823 3.996.906 1.826 2.958 2.696 4.816 3.233l9.182 1.267c.534.197 1.127.092 1.509.263 2.822.267 5.64.624 8.481.555 5.724.003 11.454.053 17.174-.178 6.039-.51 12.118-.872 18.064-2.101 2.272-.536 4.68-1.179 6.441-2.795 1.403-1.333.937-3.98-.807-4.804-2.393-1.27-5.127-1.644-7.73-2.284-3.644-.798-7.46-1.664-10.4-4.107-3.19-2.481-4.974-6.367-5.536-10.303-.42-3.328-.421-6.706-.238-10.053.22-1.934.667-3.96 1.868-5.537 1.55-1.557 3.718-2.241 5.594-3.312.953-.461 1.832-1.17 2.175-2.205 1.022-1.05 2.477-1.537 3.68-2.348 5.522-3.23 10.221-7.764 13.939-12.948 3.76-5.54 6.623-11.656 8.849-17.958 2.094-6.084 3.101-12.483 3.75-18.865.45-4.889.283-9.809.173-14.71-.14-7.22-1.358-14.415-3.531-21.3-1.793-5.792-4.43-11.263-6.872-16.796-.623-1.39-1.227-2.972-1.257-4.397-.098-.77-.017-1.613-.205-2.343-.986-1.424-2.854-1.855-4.492-1.701-14.227.221-28.456.08-42.683.05-8.102-.008-16.206-.105-24.308.013-.897.024-.858 1.194-.99 1.848-.201.887.867 1.065 1.51 1.146 4.6.479 9.237.425 13.857.518 15.483.19 30.971-.108 46.451.311 2.263.12 4.51.092 6.739.583.28.172.629.278.88.471.485 5.231 3.231 9.839 5.158 14.622 2.516 6.014 4.475 12.33 5.323 18.801.907 6.33 1.274 12.7 1.017 19.09-.091 2.183-.002 4.238-.514 6.354-.04.758-.633-.071-1.106.029-5.131-1.019-10.374-1.31-15.584-1.662-16.604-.933-33.256-.878-49.865-.103-2.872.165-4.139.372-6.995.712-1.033.24-1.278 1.11-1.162 1.968-.147.756.232 1.31 1.028 1.07 16.496-.907 31.416-1.173 47.932-.646 7.253.317 14.514.615 21.707 1.392 1.043.13 2.09.257 3.112.504-3.062 1.137-6.355 1.437-9.574 1.847-9.106.967-18.247 1.284-27.402 1.471-12.379.122-23.406-.152-35.738-1.068-.569-.195-1.136.25-1.056.898.193 3.273.455 6.49.878 9.753.76 5.348 2.09 10.627 4.404 15.537-.247.346-2.257.354-2.627.55-.444.191-.389 1.287-.781.463-2.6-3.777-3.785-8.27-5.385-12.512-1.106-3.93-1.775-7.982-2.183-12.043-.033-.883-.12-1.764-.336-2.601-.537-.853-1.733-.706-2.595-.962-1.39-.273-3.005-.556-4.19-1.118 2.102-.51 4.229-.592 6.37-.965.956-.39.632-1.843-.076-2.34-1.341-.836-3.008-.33-4.447-.06a7.2 7.2 0 0 0-2.955 1.418c-.394-2.165-.318-4.373-.379-6.616-.012-5.846.046-11.687.735-17.483.776-6.274 2.923-12.295 5.17-18.194 1.257-3.182 2.46-6.403 3.293-9.723.724-3.207.624-6.67-.804-9.677C11.636 3.159 10.567 1.559 9.463 0zM3.577 69.61c-.703.826-.775.03-.414-.344zm54.625 47.596c-1.32.619-2.667 1.24-4.148 1.33-2.75.279-5.585.432-8.307-.314-.92-.241-1.942-.636-2.875-1.004 3.492 1.084 7.193.908 10.8.808 1.956-.146 3.827-.792 5.704-1.318zm-4.309 4.596c-.932 2.72-.708 5.651-.745 8.48.078 3.423.588 6.857 1.628 10.12 1.029 2.695 2.276 5.476 4.59 7.318 3.606 2.956 8.18 4.357 12.652 5.396-4.536.786-9.124.811-13.708 1.021-4.42.138-8.846.195-13.265.089-1.05.033-1.604 1.005-2.166 1.74-.398.506-.055 1.239.594 1.232 3.187.198 6.386.014 9.577.01 6.675-.148 13.375-.326 19.993-1.268 1.657-.28 3.435-.533 4.788-1.615.144-.44.523-.488.913-.253.474.146 1.253.302 1.051.98-.328.981-1.546 1.165-2.396 1.507-3.997 1.276-8.18 1.764-12.348 2.077-5.428.468-10.835.829-16.29.801-7.198-.004-14.45.061-21.555-.75-2.552-.36-5.195-.6-7.616-1.649-.475-.256-1.326-.677-1.068-1.328.463-.636 1.297-.951 1.994-1.137 1.212 1.424 3.21 1.394 4.906 1.649 4.334.53 8.691.849 13.05 1.119.678-.858 1.318-1.752 1.818-2.727-1.478-.45-3.054-.227-4.576-.383-3.597-.21-7.197-.245-10.77-.545 3.237-.548 6.401-1.49 9.467-2.652 3.443-1.372 6.405-3.975 7.995-7.345.852-1.735 1.427-3.596 1.811-5.487.04.888-.064 1.799.13 2.672.307.52.762.192 1.179.004.924-.36 1.51-1.228 1.629-2.196.446-2.474.214-5.012.288-7.513-.056-2.68.153-5.376-.155-8.043a12 12 0 0 0-.336-1.527c2.34.279 4.712.163 7.05-.082z"/></svg>