<svg xmlns="http://www.w3.org/2000/svg" xml:space="preserve" width="498.244" height="551.331" viewBox="0 0 131.827 145.873"><path d="M49.714 145.507c-10.995-1.097-32.276-5.975-37.29-8.546-3.866-1.984-4.756-3.813-5.555-11.415C6.076 118 .645 26.388.018 9.986-.142 5.82.7 4.72 4.988 3.488c16.626-4.779 109.222-4.6 121.908.236l4.931 1.88-1.12 14.158c-1.606 20.3-6.124 97.291-6.145 104.711-.026 9.35-4.212 13.058-18.94 16.773-12.92 3.26-42.984 5.55-55.908 4.26m55.525-9.65c9.384-2.627 11.967-4.053 10.322-5.697-.525-.525-10.911-.046-23.08 1.066-21.38 1.953-50.066 1.241-68.202-1.692-4.528-.733-8.614-.715-9.08.039-1.274 2.061 4.834 4.792 16.856 7.537 13.984 3.192 60.129 2.402 73.184-1.253zm-18.653-13.444c12.847-2.085 26.088-7.377 30.412-12.155 2.495-2.757 3.393-9.384 5.166-38.117 1.18-19.128 2.612-40.316 3.18-47.083l1.034-12.303-6.507 1.51c-3.58.832-10.765 1.45-15.97 1.373l-9.46-.137 8.6-2.507c13.774-4.013 14.29-4.33 9.462-5.802-5.433-1.657-87.107-1.735-92.894-.088l-4.3 1.224 3.757 2.045c2.067 1.125 5.55 2.057 7.741 2.072 2.191.013 5.145.776 6.564 1.694 3.5 2.261-14.333 2.302-22.184.052l-5.82-1.67 1.268 22.743c.696 12.508 1.835 33.761 2.53 47.23 1.433 27.786 1.887 28.795 15.61 34.699 15.242 6.557 40.452 8.686 61.811 5.22zm-37.88-5.116c-14.654-1.713-28.572-7.68-31.547-13.523-1.255-2.466-2.842-10.595-3.527-18.064-1.17-12.774-1.055-13.507 1.937-12.324 11.19 4.425 28.567 6.4 49.627 5.638 30.975-1.12 38.33-4.42 10.178-4.568-22.126-.116-40.796-2.868-39.797-5.866 1.371-4.114 33.287-8.708 70.045-10.083l12.902-.482-.463 11.172c-.74 17.84-2.38 31.563-4.182 34.988-2.578 4.896-18.457 11.306-32.533 13.133-14.26 1.851-16.643 1.85-32.64-.02z"/></svg>