<svg xmlns="http://www.w3.org/2000/svg" xml:space="preserve" width="248.242" height="571.993" viewBox="0 0 65.681 151.34"><path d="M103.77 170.7c-1.15-3.54-4.782-6.833 1.045-4.913 2.427.635 5.837-1.628 2.896 1.066-2.083 2.067-.57 5.083-3.942 3.848m-.406-9.308c-4.38-.712-9.702-3.592-12.734-5.601-2.92-2.286-7.677-5.768-10.037-9.602-2.648-3.926-3.09-10.246-3.445-15.311 1.23-4.702.115-14.045 3.768-15.74 1.972-.618-.915 9.712-.62 12.907-1.845 11.041 1.885 20.882 13.03 24.245 6.473.109-3.934-3.23-4.522-5.866-7.04-9.316-4.059-19.703-2.859-30.342 3.763-.683 8.151-.562 13.363-.925 9.071.155 16.918-.348 25.946.32 3.967.416 5.658.694 6.172 4.509 1.699 10.293 3.862 20.974-3.847 29.258-2.344 2.366-3.448 3.403-5.905 5.055-1.811 1.307-3.627 2.407-5.144 3.352-2.957 1.437-4.255 2.85-7.568 3.403-1.627.115-4 .66-5.598.338m-7.001-49.83c1.48-.229-.455.453 0 0m87.296-32.01c1.646-.262.02.458 0 0" style="display:inline;fill:#000;fill-opacity:1" transform="translate(-72.049 -83.8)"/><path d="M96.544 234.97c-7.836-.4-14.893-1.593-16.553-2.444-.84-.431-1.936-2.155-1.78-2.408.077-.123 1.408-.493 2.212-.645 3.843-.725 9.5-2.608 12.753-5.646 3.732-3.485 4.745-6.609 5.936-12.524.748-3.715 1.393-13.046 1.273-26.76-.112-12.879-.15-12.845-1.707-16.094-1.098-2.29-4.491-5.24-7.712-6.995-8.038-4.379-13.054-9.627-16.086-15.95-3.128-6.527-3.528-13.03-1.868-25.514 1.492-11.222 1.62-14.982 1.62-23.642-.001-5.968.371-7.724.722-8.464 1.324-2.79 10.288-4.085 29.549-4.084 17.113.001 25.461 1.127 27.799 3.412l1.103 1.079.19 5.664c.313 9.305.908 14.623 3.017 28.106.628 4.015.703 5.556.717 10.833.013 5.4-.213 6.713-.72 8.708-2.19 8.607-7.256 14.462-17.328 19.927-3.724 2.021-5.7 2.526-7.426 4.566-1.571 1.859-1.723 3.28-2.417 5.624-.758 2.553-.93 10.787-.777 24.426.115 10.105.43 11.91.905 14.466 1.369 7.363 4.079 11.675 8.849 14.841 1.918 1.273 8.568 3.068 10.921 4.084l1.994.862-.795.758c-1.025.976-2.722 1.815-4.428 2.21-5.812 1.346-19.37 2.143-29.963 1.603m22.226-3.093c2.722-.3 7.05-.977 7.871-1.23.255-.078.463-.224.463-.324s-1.815-.64-4.035-1.201c-5.605-1.417-7.464-2.344-10.164-5.066-1.788-1.804-2.363-2.606-3.34-4.66-1.37-2.885-2.128-5.4-2.741-9.096-.357-2.153-.46-5.246-.553-16.61-.174-21.417.283-24.616 4.03-28.26.794-.77 1.404-1.442 1.355-1.491-.05-.049-1.133.093-2.41.316-3.073.536-5.037.505-8.07-.125-1.383-.287-2.56-.524-2.617-.526s.458.596 1.143 1.328c1.46 1.561 2.32 3.33 2.951 6.077.393 1.707.465 3.722.512 14.42.066 14.763-.184 22.941-.795 26.042-1.165 5.912-3.111 10.07-6.124 13.082-2.622 2.623-4.71 3.648-9.716 4.771-3.428.77-4.337 1.063-3.975 1.287.57.352 7.502 1.128 14.519 1.626 2.728.193 19.153-.08 21.696-.36m-8.51-69.395c1.142-.297 3.702-1.344 5.69-2.328 10.857-5.374 16.082-10.992 18.326-19.704.529-2.054.614-3.037.618-7.144.003-2.62-.145-5.834-.328-7.144-.976-6.953-1.736-11.666-1.912-11.863-.31-.346-7.32-.905-15.736-1.254-8.067-.334-20.823-.196-26.459.286-1.746.15-3.532.3-3.968.334-.663.052-.779-.025-.703-.467.05-.291.122-.562.16-.6.625-.655 26.59-1.094 36.437-.617 3.396.165 7.07.372 8.166.46l1.992.162-.476-4.598c-.262-2.528-.563-7.415-.669-10.859s-.266-6.335-.356-6.425-.738.515-1.813.801c-4.354 1.159-11.836 1.697-24.824 1.697-5.53 0-12.002-.272-14.24-.433-4.606-.331-9.675-1.003-10.977-1.6-.482-.221-.661-.814-.37-.747 4.853 1.126 8.33 1.455 17.758 1.68 13.74.327 26.998-.244 32.34-1.392 2.809-.604 2.897-1.367.258-2.229-4.4-1.436-13.539-2.02-28.264-1.806-12.822.186-18.996.752-21.815 1.999-1.3.575-1.7 1.047-1.171 1.381.302.191.296.232-.032.235-.344.003-.385.815-.31 6.052.058 3.969-.056 7.772-.33 11.06-.23 2.755-.419 5.437-.419 5.959v.948l.993-.33c2.065-.69 2.447-.717 2.447-.179 0 .4-.35.572-1.786.878l-1.786.38-.445 3.03c-1.677 11.432-1.69 16.778-.053 22.427 1.285 4.433 3.43 7.916 7.222 11.727 5.119 5.144 14.437 10.147 20.119 10.802 2.23.257 4.133.093 6.717-.58" style="display:inline;fill:#000;fill-opacity:1" transform="translate(-72.049 -83.8)"/></svg>