<svg xmlns="http://www.w3.org/2000/svg" xml:space="preserve" width="252.246" height="575.992" viewBox="0 0 66.74 152.398"><path d="M32.249 87.425c-1.15-3.54-4.782-6.833 1.045-4.913 2.427.635 5.837-1.628 2.896 1.066-2.083 2.067-.57 5.083-3.942 3.848m-.406-9.308c-4.38-.712-9.702-3.592-12.734-5.601-2.92-2.286-7.677-5.768-10.037-9.602-2.648-3.926-3.09-10.246-3.445-15.31 1.23-4.703.115-14.046 3.768-15.74 1.972-.619-.915 9.711-.62 12.906-1.845 11.041 1.885 20.882 13.03 24.245 6.473.109-3.934-3.23-4.522-5.866-7.04-9.316-4.059-19.703-2.859-30.342 3.763-.683 8.151-.562 13.363-.925 9.07.155 16.918-.348 25.946.32 3.967.416 5.658.694 6.172 4.51 1.699 10.292 3.862 20.973-3.847 29.257-2.344 2.366-3.448 3.403-5.905 5.055-1.811 1.307-3.627 2.407-5.144 3.352-2.957 1.437-4.255 2.85-7.568 3.403-1.627.115-4 .66-5.598.338m-7.001-49.83c1.48-.229-.455.453 0 0"/><path d="M29.89.01C23.242.123 16.555.194 9.983 1.29c-2.091.433-4.366.823-6.022 2.275-1.17 1.158-1.066 2.96-1.25 4.476-.272 5.516.01 11.07-.428 16.561C1.773 32.68.017 40.65.002 48.761c-.044 4.87.853 9.804 3.11 14.153 3.04 6.24 8.28 11.17 14.21 14.658 2.183 1.229 4.448 2.495 6.273 4.17 1.602 1.367 2.985 3.03 3.717 5.028.974 2.331.82 4.863.932 7.321.15 10.02.269 20.106-.648 30.06-.355 3.438-1.03 6.865-2.205 10.12-1.553 4.09-4.979 7.27-8.954 8.984-2.768 1.309-5.75 2.054-8.731 2.681-.554.214-1.493.213-1.57.945.246 1.131 1.063 2.118 1.992 2.783 2.05.918 4.328 1.16 6.523 1.545 9.892 1.456 19.93 1.408 29.893.743 3.8-.314 7.636-.599 11.339-1.557 1.895-.543 3.578-1.652 4.909-3.096.827-.502-.546-.614-.922-.9-3.856-1.797-8.093-2.607-11.926-4.452-3.562-2.137-6.248-5.588-7.596-9.504-1.514-4.211-2.048-8.732-2.145-13.15-.197-7.89-.27-15.79-.056-23.68.13-2.872.158-5.73 1.088-8.487.482-2.228 1.745-4.326 3.71-5.539 2.436-1.446 5.075-2.517 7.489-4.01 5.293-3.092 10.264-7.168 13.13-12.694 1.884-3.65 3.105-7.709 3.136-11.84.066-4.785.156-9.607-.686-14.337-1.346-8.631-2.657-17.306-2.93-26.028-.114-2.63-.185-5.261-.279-7.892-.986-1.02-2.024-2.057-3.408-2.508C55.853.997 52.047.73 48.319.421 42.187-.004 36.034-.022 29.89.01m4.76 3.893c6.265.027 12.57.077 18.731.926 1.817.324 3.861.585 5.54 1.527-.24.275-.92.386-1.348.51-4.349.89-8.794 1.074-13.22 1.305-9.312.363-18.645.314-27.95-.206-3.096-.185-6.11-.65-9.129-1.332-.8-.009-.128-.515.294-.63 2.763-1.18 5.826-1.303 8.779-1.586 6.068-.409 12.204-.478 18.304-.514M6.683 7.573c.475 1.113 1.883 1.123 2.897 1.386 7.22 1.286 14.58 1.387 21.893 1.505 7.48-.014 14.995.012 22.427-.94 1.746-.313 3.584-.46 5.187-1.273.314 5.243.36 10.577.872 15.84.138 1.554.317 3.105.472 4.658a258 258 0 0 0-21.626-.773c-7.49.047-14.988.067-22.464.538-.774.106-1.64.014-2.324.444-.3.592-.575 1.676.274 1.937 1.662.055 3.328-.256 4.992-.335 7.654-.504 15.39-.502 23.082-.358 5.887.205 11.747.43 17.601 1.096.563-.03.936.183.887.796A246 246 0 0 1 62.62 43.92c.23 3.505.331 7.073.09 10.615-.319 2.582-1.1 4.927-2.163 7.292-2.328 5.146-6.701 9.044-11.47 11.906-3.32 1.98-6.843 3.806-10.487 4.965-3.195.919-6.649.895-9.804-.178-3.926-1.258-7.574-3.188-10.972-5.444-4.604-3.079-8.722-7.122-11.179-12.14-2.28-4.79-2.906-10.202-2.556-15.453.256-4.396.92-8.84 1.572-13.242 1.111-.332 2.418-.292 3.361-1.027.633-.579.097-1.792-.789-1.567-.82.115-1.597.421-2.383.67.19-4.278.728-8.627.746-12.952.094-3.24-.13-6.484.041-9.72-.091-.017.074-.177.055-.072m22.87 73.8c2.774.642 5.667.65 8.456.095.604-.141 1.124-.227.397.314-1.791 1.622-2.934 3.853-3.366 6.218-.856 4.564-.767 9.236-.841 13.86 0 7.045.018 14.091.234 21.133.156 5.275 1.456 10.575 4.095 15.168 1.222 1.902 2.88 3.505 4.645 4.904 3.163 2.355 7.177 2.895 10.862 4.001-3.465.604-6.96 1.165-10.454 1.191-5.998.157-12.002.33-18.001.175-4.325-.328-8.628-.676-12.92-1.284 3.744-.928 7.807-1.514 10.867-4.07 3.563-2.817 5.81-6.969 7.004-11.29.874-2.855 1.247-5.828 1.36-8.803.42-9.682.295-19.378.213-29.065-.05-2.905-.047-5.89-1.135-8.633a11.3 11.3 0 0 0-2.532-4.138z"/></svg>