<?xml version="1.0" encoding="UTF-8" standalone="no"?>
<!-- Created with Inkscape (http://www.inkscape.org/) -->

<svg
   width="65.680672mm"
   height="151.33989mm"
   viewBox="0 0 65.680672 151.33989"
   version="1.1"
   id="svg1"
   xml:space="preserve"
   xmlns:inkscape="http://www.inkscape.org/namespaces/inkscape"
   xmlns:sodipodi="http://sodipodi.sourceforge.net/DTD/sodipodi-0.dtd"
   xmlns="http://www.w3.org/2000/svg"
   xmlns:svg="http://www.w3.org/2000/svg"><sodipodi:namedview
     id="namedview1"
     pagecolor="#ffffff"
     bordercolor="#000000"
     borderopacity="0.25"
     inkscape:showpageshadow="2"
     inkscape:pageopacity="0.0"
     inkscape:pagecheckerboard="0"
     inkscape:deskcolor="#d1d1d1"
     inkscape:document-units="mm" /><defs
     id="defs1" /><g
     inkscape:label="Слой 1"
     inkscape:groupmode="layer"
     id="layer1"
     transform="translate(-72.048578,-83.79997)"><path
       style="display:inline;fill:#000000;fill-opacity:1"
       d="m 103.76919,170.70075 c -1.14967,-3.54036 -4.78116,-6.83418 1.04612,-4.91373 2.42708,0.63516 5.83651,-1.62833 2.89573,1.06561 -2.08292,2.06779 -0.57092,5.08308 -3.94185,3.84812 z m -0.40519,-9.30834 c -4.380489,-0.71226 -9.702127,-3.59202 -12.734378,-5.60191 -2.920245,-2.28575 -7.676723,-5.76763 -10.036831,-9.60143 -2.64825,-3.92608 -3.089365,-10.24645 -3.444896,-15.31118 1.230753,-4.70203 0.115441,-14.04478 3.768412,-15.74014 1.971969,-0.61789 -0.914947,9.71258 -0.620436,12.90713 -1.844684,11.0413 1.885164,20.88248 13.029731,24.24468 6.473893,0.10937 -3.933888,-3.22991 -4.521463,-5.86514 -7.04094,-9.31626 -4.058751,-19.70321 -2.858725,-30.34259 3.762837,-0.68323 8.150802,-0.56203 13.36303,-0.92468 9.070746,0.15529 16.917906,-0.34862 25.945296,0.31947 3.96731,0.41594 5.65814,0.69437 6.17228,4.50904 1.69874,10.29299 3.86223,20.97402 -3.8471,29.2579 -2.34391,2.36658 -3.44815,3.40364 -5.90477,5.05499 -1.81151,1.30742 -3.62701,2.40788 -5.1445,3.35291 -2.95701,1.43674 -4.25466,2.84863 -7.56757,3.4024 -1.62694,0.11539 -3.99971,0.66081 -5.59808,0.33855 z m -7.001028,-49.8307 c 1.47916,-0.2284 -0.454926,0.45366 0,0 z M 183.65894,79.552635 c 1.64644,-0.262453 0.0205,0.457781 0,0 z"
       id="path83"
       sodipodi:nodetypes="ccccccccccccccccccccccccc" /><path
       style="display:inline;fill:#000000;fill-opacity:1"
       d="m 96.544185,234.96938 c -7.835752,-0.39917 -14.893375,-1.59235 -16.552957,-2.44332 -0.840897,-0.43118 -1.935833,-2.15529 -1.77984,-2.4077 0.07618,-0.12325 1.407335,-0.49322 2.212014,-0.64504 3.842609,-0.72497 9.499142,-2.60795 12.75214,-5.64589 3.731964,-3.48524 4.745375,-6.60925 5.93606,-12.52416 0.74791,-3.71537 1.393378,-13.04602 1.273858,-26.76077 -0.11223,-12.87836 -0.14985,-12.84418 -1.707483,-16.09301 -1.098039,-2.29024 -4.491358,-5.24041 -7.712094,-6.99502 -8.038293,-4.37915 -13.054146,-9.62707 -16.085418,-15.95056 -3.128553,-6.52642 -3.528507,-13.03066 -1.868676,-25.51384 1.492169,-11.22222 1.619919,-14.98242 1.619316,-23.641608 -4.16e-4,-5.968094 0.372199,-7.724764 0.723242,-8.464531 1.323809,-2.789719 10.287598,-4.085295 29.548293,-4.083958 17.1129,0.0012 25.46159,1.126969 27.79927,3.41224 l 1.10331,1.078572 0.19016,5.664144 c 0.3124,9.304741 0.90807,14.622841 3.0169,28.106271 0.628,4.01528 0.70286,5.55532 0.71638,10.83255 0.0138,5.39944 -0.2126,6.71311 -0.7201,8.70856 -2.18881,8.60623 -7.25557,14.46141 -17.32732,19.92712 -3.72378,2.02081 -5.70074,2.52605 -7.42585,4.56599 -1.57139,1.85815 -1.72317,3.28041 -2.4178,5.62312 -0.75711,2.55345 -0.93035,10.78773 -0.77611,24.42599 0.11427,10.10531 0.42999,11.91119 0.90486,14.46656 1.3683,7.36309 4.07855,11.67471 8.84864,14.84092 1.91808,1.27315 8.56835,3.0681 10.92117,4.08434 l 1.99424,0.86135 -0.79538,0.75784 c -1.02507,0.97668 -2.72246,1.8159 -4.42777,2.21064 -5.81199,1.34536 -19.37039,2.14283 -29.963055,1.6032 z m 22.225685,-3.09247 c 2.72171,-0.30041 7.05085,-0.97662 7.87136,-1.2295 0.25466,-0.0785 0.46302,-0.22437 0.46302,-0.32418 0,-0.0998 -1.81571,-0.64053 -4.0349,-1.2016 -5.60498,-1.41709 -7.46422,-2.34377 -10.16393,-5.06591 -1.78855,-1.80341 -2.36323,-2.60525 -3.33971,-4.65982 -1.37102,-2.88469 -2.12903,-5.39919 -2.7421,-9.09616 -0.35705,-2.15312 -0.4599,-5.24621 -0.55226,-16.60954 -0.17409,-21.41739 0.28219,-24.61662 4.03052,-28.25976 0.79358,-0.7713 1.40279,-1.44244 1.35381,-1.49142 -0.049,-0.049 -1.13306,0.093 -2.40907,0.31552 -3.07352,0.53597 -5.03802,0.50565 -8.07153,-0.12459 -1.382447,-0.28722 -2.559599,-0.52378 -2.615892,-0.52569 -0.05629,-0.002 0.458049,0.59563 1.142985,1.32789 1.460237,1.56111 2.319217,3.3299 2.951177,6.07696 0.3927,1.70704 0.46422,3.72234 0.51175,14.41979 0.0656,14.76263 -0.18409,22.94127 -0.79505,26.04191 -1.16487,5.91179 -3.111274,10.07 -6.12373,13.08246 -2.622603,2.6226 -4.711082,3.64808 -9.716353,4.77091 -3.42839,0.76908 -4.33714,1.0633 -3.975163,1.28702 0.569957,0.35225 7.501956,1.12828 14.519236,1.62542 2.728099,0.19327 19.15302,-0.079 21.69583,-0.35971 z m -8.509,-69.39496 c 1.14088,-0.29672 3.70073,-1.34443 5.68854,-2.32824 10.85745,-5.37358 16.0827,-10.99162 18.32637,-19.70397 0.52888,-2.0537 0.61398,-3.03635 0.61863,-7.14375 0.003,-2.61938 -0.14502,-5.83406 -0.32885,-7.14375 -0.97593,-6.95285 -1.73554,-11.66629 -1.9119,-11.86334 -0.3097,-0.34606 -7.32061,-0.90451 -15.73587,-1.25342 -8.06724,-0.33448 -20.822869,-0.19666 -26.458334,0.28589 -1.74625,0.14952 -3.532187,0.29967 -3.96875,0.33366 -0.663084,0.0516 -0.77872,-0.0253 -0.70245,-0.46738 0.05021,-0.29104 0.121947,-0.56121 0.159404,-0.60037 0.625618,-0.65414 26.59098,-1.09302 36.43784,-0.61588 3.39568,0.16454 7.07036,0.3716 8.16596,0.46014 l 1.99201,0.16098 -0.47612,-4.59723 c -0.26186,-2.52847 -0.56295,-7.41508 -0.66909,-10.859127 -0.10613,-3.444049 -0.26641,-6.335301 -0.35617,-6.425003 -0.0898,-0.0897 -0.73824,0.515116 -1.81265,0.800959 -4.35406,1.158394 -11.83649,1.697157 -24.82456,1.697157 -5.529793,0 -12.001948,-0.272029 -14.239653,-0.43301 -4.605834,-0.331345 -9.67499,-1.00355 -10.977564,-1.600557 -0.48161,-0.220735 -0.660915,-0.813821 -0.369873,-0.746308 4.852823,1.125714 8.331054,1.454578 17.758317,1.679037 13.740563,0.327157 26.998123,-0.243224 32.339503,-1.391345 2.80924,-0.60384 2.89769,-1.36749 0.25817,-2.228875 -4.39965,-1.435788 -13.53838,-2.01979 -28.26328,-1.80614 -12.822023,0.18604 -18.996493,0.751793 -21.815876,1.99894 -1.298864,0.57455 -1.698902,1.046521 -1.170627,1.381125 0.301608,0.191036 0.296035,0.231615 -0.03225,0.234794 -0.343666,0.0033 -0.385161,0.814768 -0.309499,6.052343 0.05733,3.96869 -0.05639,7.77139 -0.330729,11.059 -0.229958,2.75577 -0.418105,5.43746 -0.418105,5.9593 v 0.94881 l 0.992187,-0.33097 c 2.065637,-0.68905 2.447396,-0.71685 2.447396,-0.1782 0,0.40005 -0.349423,0.57181 -1.785938,0.8779 l -1.785937,0.38054 -0.444623,3.02975 c -1.677584,11.43138 -1.69032,16.77753 -0.05343,22.42611 1.284904,4.43394 3.429558,7.91653 7.222008,11.72744 5.118681,5.1436 14.436936,10.14667 20.118723,10.80197 2.22968,0.25715 4.13289,0.0931 6.71706,-0.57898 z"
       id="path81"
       sodipodi:nodetypes="ssssssssssssssscssssssssssscssssssssssssssscssssssssssssssssssscsscsssssssssssssscssscssscssssss" /></g></svg>
