<svg xmlns="http://www.w3.org/2000/svg" width="128pt" height="172" viewBox="0 0 128 129"><path d="M101.504 36.188c-34.336.996-56.629.996-66.887 0q-8.12-.644-22.222-9.403C7.69 23.934 3.563 21.156 0 18.45l11.754-7.906C21.012 4.988 28.633 1.781 34.617.93l39.32-.856 27.567.64zM128 .715v35.473h-18.164V.715zm-26.496 45.73v35.47c-34.336 1-56.629 1-66.887 0q-8.12-.855-22.222-9.403L0 64.18l11.754-8.121q13.887-8.12 22.863-9.403 9.831-1.283 39.32-.855zm26.496 0v35.47h-18.164v-35.47zm0 45.727v35.473h-18.164V92.172zm-26.496 35.473c-34.336.855-56.629.855-66.887 0q-8.12-.855-22.222-9.403L0 109.695q5.127-3.847 11.754-7.906 13.887-8.12 22.863-9.402 9.831-1.283 39.32-.856l27.567.64z"/></svg>