<svg xmlns="http://www.w3.org/2000/svg" xml:space="preserve" width="264.821" height="375.545" viewBox="0 0 70.067 99.363"><path d="M39.246 0C38.114 0 36.678.008 34.843.023c-4.547.038-8.436.181-8.696.32-.87.465-1.1 1.382-1.179 4.674l-.078 3.245 9.979-.07 9.978-.069.085-2.549c.1-3.05-.244-4.559-1.183-5.174-.455-.298-1.109-.395-4.503-.4M26.723 11.003v2.914h16.14v-2.914h-8.07zm-.397 5.957-.167 1.871c-.092 1.03-.358 2.24-.59 2.689-.407.786-2.183 2.452-2.615 2.452-.116 0-1.411.597-2.88 1.327-7.204 3.581-12.648 8.992-16.1 16.003C1.116 47.108 0 52.294 0 59.782c0 8.04 1.112 13.468 3.968 19.37 2.142 4.426 4.051 7.053 7.61 10.468 5.116 4.911 11.33 8.134 18.011 9.343 4.283.775 10.126.402 14.729-.94 2.795-.816 7.978-3.429 10.357-5.221 10.822-8.155 15.892-19.614 15.353-34.7-.232-6.5-1.273-11.033-3.744-16.304-2.028-4.327-5.354-8.659-8.996-11.716-2.944-2.471-3.374-2.746-7.903-5.04-3.645-1.845-4.073-2.137-4.754-3.238-.54-.874-.797-1.714-.927-3.027l-.18-1.817h-8.599Zm10.87 10.513c.455.06.914.333 1.252.787.526.708.527.749.06 3.229-.517 2.75-.45 5.068.285 9.68.99 6.213 3.18 11.582 7.985 19.577 4.784 7.958 6.116 12.304 5.36 17.478-1.084 7.407-5.31 12.79-11.657 14.846-2.52.816-7.4.934-9.968.24-2.259-.61-3.124-1.03-5.286-2.56-3.316-2.347-5.571-5.72-6.755-10.104-.7-2.591-.755-7.792-.119-11.32 1.25-6.928 4.852-16.793 10.282-28.156 2.02-4.225 6.932-12.951 7.565-13.44.166-.127.352-.208.547-.245a1.4 1.4 0 0 1 .449-.012m-4.042 26.331-.167 1.216c-.21 1.539-1.383 4.135-2.826 6.26-1.537 2.264-3.535 6.362-4.204 8.625-.85 2.873-.66 6.81.432 8.948l.396.775-1.156-.885c-.635-.487-1.9-1.606-2.809-2.487l-1.653-1.601v1.722c0 3.158 1.528 7.317 3.558 9.685 1.994 2.326 5.262 4.121 8.308 4.562 4.969.72 10.157-1.382 12.764-5.171l.773-1.124-1.817-.18-1.818-.178.824-1.623c.787-1.55.823-1.765.819-4.798-.005-2.974-.06-3.31-.871-5.292-.822-2.008-1.967-3.905-5.382-8.918-.822-1.207-2.321-3.846-3.332-5.865z"/></svg>