<svg xmlns="http://www.w3.org/2000/svg" xml:space="preserve" width="368.438" height="564.078" viewBox="0 0 97.483 149.246"><path d="m103.978 223.857-4.146-.049-1.455-.085-1.455-.085-4.862-.537-4.863-.536-3.869-.797-3.869-.797-1.984-.547-1.985-.546-3.175-1.574-3.175-1.574-3.042-2.016-3.043-2.015-2.398-2.428-2.398-2.428-1.37-1.824-1.37-1.824v-17.198l3.424-1.578 3.425-1.578-.1-.1-.099-.1-2.07.928-2.071.926-1.025.42-1.024.42h-.53l.173-11.707.173-11.708.124-32.676.125-32.676v-.641l.556-.519.557-.519-.176-1.283-.177-1.283.253-.656.254-.656 2.573-2.72 2.573-2.722 1.887-1.533 1.886-1.533 2.065-1.386 2.065-1.386 1.904-.891 1.903-.891 3.175-.783 3.175-.784 3.44-.681 3.44-.682 2.513-.383 2.514-.384 2.513-.182 2.514-.181.19-.114.19-.115 6.875.007 6.875.006 2.46.275 2.46.274 1.19.147 1.191.147 3.043.53 3.042.53 4.027.897 4.026.897 1.916.965 1.916.965 2.668 1.79 2.668 1.79 2.17 2.041 2.17 2.041 1.328 1.76 1.33 1.76.161.616.162.616-.33.615-.328.615-2.285-.643-2.284-.643-3.572-.903-3.572-.902-2.494-.429-2.494-.43-5.046-.652-5.047-.654-.926-.105-.926-.106-3.047-.17-3.048-.172-5.287-.07-5.287-.07-5.82.336-5.822.337-1.587.168-1.588.168-3.704.638-3.704.638-3.175.782-3.175.781-.661.266-.662.266.265.013.264.014 1.456-.4 1.455-.4 4.121-.788 4.122-.788 2.096-.272 2.096-.272 3.44-.256 3.44-.255.66-.134.662-.135 6.218-.148 6.218-.148 2.057.215 2.057.215-.43.613-.43.612-.503-.455-.502-.454-.521.601-.522.601-.396-.152-.396-.152-.138.223-.138.223.526.138.526.137v1.125l-.463.175-.463.175-.303.28-.303.28-.821.658-.822.658v.44l-.378.379-.378.378h-.502l-.33.397-.329.397h1.917v.519l-.661.166-.662.166v.736h1.066l.534.33.533.331.23-.369.23-.37.423.163.424.163v.431l-1.35.058-1.35.06-.242.149-.242.149.172.277.171.278 1.156-.159 1.156-.158v.784h.529v.529h-1.027l-.164-.265-.163-.264h-.555l.153.397.152.396h-.808l.161-.261.162-.262-.429.165-.428.164.296.296.295.295h2.355v.453l.633-.61.633-.609-.132-.344-.132-.345h-1.002v-.498l.305-.188.304-.188.32.437.32.437h1.397v-.617l.13.13.129.129-.328.706-.328.706-.214.002-.214.002.163-.264.164-.265h-.617l.17.442.169.442-.332.205-.332.205.227.213.227.213.118-.33.118-.332h.724l.27-.463.269-.463.008.331.008.33h1.058v-.545l-.595-.263-.595-.264.836.128.836.128.15-.391.15-.392.514.321.513.321.459-.38.459-.381h2.168v-.795l-.572.08-.572.078-.16-.258-.159-.258.6-.191.598-.191.86.031.86.032v-.448l-.393-.327-.394-.327-.665.167-.664.167.008-.203.008-.204.344-.454.345-.453.297.297.297.297.408-.339.408-.339v-.729h-.498l-.166.27-.166.268-.312-.196-.313-.196-.463.076-.463.076V94.04l.16-.419.161-.418h.738V91.91l-.306-.188-.305-.19.145.24.145.24-.352.325-.353.326-.166-.522-.166-.522.18-.292.181-.292.63.121.631.12v-.614l-.288-.288-.287-.287.317-.196.317-.196.17.232.168.232.442.034.442.033-.14-.364-.14-.364-.434-.038-.435-.037-.595-.014-.595-.014v-.426l.86.018.86.019.482.19.483.19-.04.248-.039.247.285.095.284.095-.16-.419-.161-.419h.305l5.233.663 5.234.662 3.307.654 3.307.653 3.837 1.053 3.836 1.054 1.191.446 1.19.447 1.191.16 1.19.161.17 9.26.169 9.261.16 15.346.16 15.346.176 11.046.176 11.047h-.843l-.745-1.11-.745-1.11-1.852-1.228-1.852-1.228-2.381-.943-2.382-.943-1.323-.44-1.323-.438-2.91-.763-2.91-.763-3.308-.537-3.307-.537-2.99-.405-2.99-.405-3.89-.413-3.888-.413-7.178.007-7.178.007-4.067.274-4.067.274-1.72.15-1.72.15-2.116.255-2.117.255-4.233.672-4.233.672-3.043.75-3.043.75-1.455.533-1.455.532-1.323.514-1.323.514-1.125.497-1.124.497v.669h-1.001l-.14.364-.14.365.298.299.299.298-.49.462-.488.46.185-.33.185-.33h-.595l.173-.547.174-.545-.557.347-.557.347.401.294.402.294.008.368.008.367.39.515.39.515.33-.35.329-.349-.33-.121-.332-.122v-.542l.662.166.661.166v-.804h-.402l-.322-.517-.323-.517.255-.158.255-.157.835.853.834.854-.566.21-.566.209v.957l.463.426.463.426.475.625.474.625-.546.444-.546.444.27.167.27.167v1.027h.529v.738l-.396.152-.397.152v1.34h.477l.581-.986.582-.985.304.4.305.4.463-.096.463-.095v.624l-.354-.135-.354-.136-.82.396-.818.397.143.372.143.373h-.586v.737l.435.167.434.167-.192.192-.192.192h-.462l-.38.52-.38.518-.432-.358-.431-.359-.17.17-.171.171.354.661.353.661h.424l-.153-.397-.152-.396h.785l.32.385.32.385-.184.298-.184.297-.632-.158-.633-.16v.31l.26.486.26.485-.389.149-.388.15.657.709.658.71v.452h-.793v-.567l-.378-.378-.378-.378h-.567v.708l.661.302.662.301v.467l.683-.13.683-.13.138-.361.138-.36.234.144.233.144 3.113-.917 3.112-.917 2.733-.687 2.734-.687 3.22-.501 3.22-.502 2.116-.166 2.116-.167 1.72-.135 1.72-.135 3.042-.262 3.042-.262 7.674.053 7.673.053 3.704.204 3.705.203 3.483.274 3.483.274 3.793.56 3.793.56 4.365.88 4.366.88 2.249.825 2.249.824 2.888 1.448 2.888 1.449.066-.067.066-.066-.229-2.779-.228-2.778-.187-5.35-.187-5.35.459-.176.458-.176.364.367.364.367.302 8.02.302 8.02-.32.772-.32.772.146.6.145.601.08 5.862.082 5.862-.43.488-.432.488.13.834.128.834-.443 1.547-.444 1.547-.916 1.683-.917 1.682-1.404 1.89-1.405 1.89-2.24 2.14-2.24 2.142-1.967 1.328-1.967 1.327-1.89.952-1.89.952-2.633.782-2.632.782-3.944.795-3.945.796-2.513.28-2.514.28-4.056.27-4.056.27zm5.644-25.086h.132v-.265h-.265v.265zm-.46-.478.62-.118-.146-.694-.146-.695.33-.64.33-.642.794-.48.794-.479.601-.264.601-.264 4.904-.028 4.904-.028-.091-.44-.091-.439-.481.042-.481.041.261-.261.262-.262.534.333.534.334-.121.316-.122.316.677.13.677.128v-1.795l-.572-.212-.571-.211.423-.163.424-.162.346.8.347.8.86-.136.86-.137v.496h.529v-.794h-.794v-.529h-1.632l.117-.33.117-.331.427.035.428.036-.279-.52-.278-.521-.515.465-.514.466-.311-.311-.312-.312.274-.273.274-.274 1.014-.057 1.014-.057.11-.33.11-.332h-.573l-.008.331-.008.33-.371-.49-.372-.49-.605.425-.605.423h-.427l.57-.772.572-.772.32.123.32.123.33-.398.33-.397-.17-.277-.172-.277-.496.266-.495.265h-.62l.131-.344.132-.344-.773.054-.773.053-.395.328-.396.328-.157-.157-.158-.158.461-.46.461-.462.43-.046.431-.047.463-.195.463-.194v.585h.762l.171-.276.171-.276-.32-.385-.32-.386h.595v-.733l-1.192-.179-1.19-.178.264-.496.265-.495v-.3h-.728l-.33.397-.33.397.31.373.31.374-.21.113-.212.113-.619-.324-.619-.324.288-.178.288-.178v-.8l.378-.379.378-.378h.611l-.11-.33-.112-.331-.374-.036-.374-.035-.478-.03-.479-.031.171-.278.172-.277.35.29.35.29.185-.3.186-.3.48.125.479.125-.133-.346-.133-.347-.355-.136-.354-.136-.16.416-.16.417-.523-.474-.524-.474v.611h-1.001l-.167-.435-.167-.434.147-.147.147-.147 1.056.282 1.056.282.146-.236.145-.236-.218.048-.218.049-.529-.221-.529-.221-.142-.21-.143-.208-.717.372-.718.372v-.471l.463-.292.463-.292-.86.1-.86.101-.004-.417-.004-.417-.252.397-.253.397-.572-.355-.573-.355-.234.355-.234.355-.326-.4-.326-.399-3.968-.117-3.97-.118-4.497.04-4.498.041-1.058.119-1.059.119-.702.026-.703.027.138.53.138.529h-.546l-.088-.257-.089-.256-.397.252-.396.252.433.004.433.004.12.819.12.818-.355.136-.355.136v1.033l.244-.15.243-.15.418.418.418.418v.435l-.397.152-.396.152v.546h1.014l.1-.303.102-.302.59.316.59.315-.169.273-.168.273-.65-.163-.648-.163-.504.605-.504.604-.01-.463-.008-.463h-.794v.529h-.733l-.433.662-.433.661h.435l.257-.256.256-.257 1.318-.142 1.318-.142-.465.28-.466.281-.244-.15-.244-.152-.191.31-.192.31.306-.189.305-.189v1.62h-.737l-.167.434-.167.435.108.107.107.107.956-.537.957-.537-.298.476-.297.476-.544.247-.545.246-.113.353-.112.353.823-.426.823-.426v-.479l.794.228.793.228v-.523l.27.166.268.166-.152.246-.152.247h-1.448l-.016 1.124-.016 1.125-.203.471-.203.472.694-.316.693-.316v-.678l-.278-.17-.277-.172.678-.678.678-.678.18.179.178.178-.436.436-.436.436.452.35.451.35-.926.789-.926.79-.368-.133-.368-.132.334.403.335.403h.487l.702-.65.702-.652.342.284.342.284-.138.223-.138.223-.368-.141-.368-.141-.294.55-.294.55h1.077v.769l.661-.662.662-.661v-.505h.793v.501l-.661.715-.662.713v.452h.794v-.794h.529l.484-.483.483-.483.17-.443.17-.443h.514l.17.276.17.275-.686.54-.686.54.133.215.134.216-.413.158-.412.158.163.263.163.264-.391-.15-.392-.15.143.543.142.544.5-.268.5-.267v-.775h.775l.283-.53.283-.529h1.04l-.496.496-.496.497-.307.102-.307.102.36.491.359.492.579-.362.578-.361.148-.464.147-.464h.51l.157.41.158.411-.601.64-.601.64-.208-.129-.208-.128-.192.31-.191.31.305-.19.306-.188v.825h.493l.168-.53.168-.528h.758v.485l-.304.101-.304.101.11.33.11.329.586-.547.587-.547.666.167.666.167v.508l.595-.186.596-.185.088-.23.088-.229h.452l-.04.53-.04.528h-.945v.486l.32.106.321.107zm-3.333-1.903h-.22l-.173-.173-.172-.172.46-.348.458-.349.33-.008.331-.008v.529h-.793v.529zm1.544 0h-.353l.176-.177.177-.176.176.176.176.177zm.677-.265h-.117l-.189-.305-.189-.306.306.189.305.189v.233zm1.027 0h-.117v-.529h.56l-.163.264-.164.265zm-1.043-.794h-.132v-.264h.264v.264zm-1.984-.529h-.353l.176-.176.177-.177.176.177.176.176zm-.942-.53h-.412l.166-.268.166-.269.246.152.247.153v.233zm-7.128-.528h-.132v-.265h.264v.265zm10.186 0h-.352l.176-.177.176-.176.177.176.176.177zm4.311-.414-.474.18.326-.328.326-.329.149.148.148.148zm8.522.15h-.133v-.265h.265v.264zm-16.653-.265h-.117l-.164-.265-.163-.265h.56v.53zm1.55-.021-.508-.021.348-.14.347-.138.16.16.16.16zm-2.654-.402-.426.164.153-.4.154-.4h-.866l.157-.156.156-.157.55.175.548.174v.437zm15.508.158h-.353l.176-.176.177-.177.176.177.176.176zm-20.01-.342-.264.088-.182-.181-.182-.182v-.441h1.103l-.105.314-.105.314zm1.423.073-.199.004v-.545l.409-.157.408-.157.18.18.179.179-.39.246-.389.246zm4.74-.084-.176.177v-.706l.176.176.177.177zm2.999.088h-.353l.176-.176.177-.176.176.176.177.176zm-.926-.529h-.133v-.264h.265v.264zm-1.19-.264h-.265v-.529h.529v.529zm-4.263-.265h-.5v-.586l.39.15.389.15.402-.574.401-.574.32.32.32.32h-.916l-.152.397-.153.397zm6.29-.088-.176.176v-.705l.177.176.176.177zm14.493.088h-.413l.167-.269.166-.269.246.153.246.152v.233zm-22.887-.264h-.28l.164-.265.163-.265h.234v.53zm4.624-.021-.507-.021.347-.14.348-.138.16.16.16.16zm10.87.02h-.132v-.264h.265v.265zm-16.669-.264h-.396v-.794h.793v.794zm1.985-.265h-.353l.176-.176.177-.176.176.176.177.176zm4.365 0h-.132v-.264h.265v.264zm16.14 0h-.132v-.264h.264v.264zm-14.552-.264h-.132v-.265h.264v.265zm15.081 0h-.132v-.265h.265v.265zm1.308-.265h-.413l.164-.264.163-.265h.498v.529zm-22.494-.536-.25.25-.387-.24-.387-.24.467-.178.467-.18.17.17.169.17zm1.32.25-.507-.02.348-.14.347-.138.16.16.16.16zm17.205.022h-.117v-.53h.56l-.163.265-.164.265zm2.926 0h-.132v-.265h.264v.265zm-17.86-.265h-.352l.176-.176.176-.177.177.177.176.176zm4.895-.265h-.132v-.264h.265v.264zm12.634-.183-.198.112-.331-.119-.33-.118v-.485h1.058v.498zm-23.151-.153-.595.041.467-.348.468-.348-.162-.496-.162-.497.286.397.285.397.004.406.004.407zm4.564.072h-.353l.177-.177.176-.176.176.176.177.177zm2.91 0h-.352l.176-.177.177-.176.176.176.176.177zm-4.497-.265h-.353l.176-.176.177-.176.176.176.176.176zm21.85 0h-.684v-.83l.575.084.574.085.11.33.108.331zm-5.314-.264h-.132v-.265h.264v.265zm-18.14-.265h-.544l.163-.265.164-.264h.762v.529zm2.133-.042h-.662l.331-.133.33-.134.331.134.331.133zm17.727.042h-.353l.176-.176.177-.177.176.177.177.176zm-15.478-.265h-.133v-.264h.265v.264zm4.762 0h-.132v-.264h.265v.264zm-11.89-.264h-.118l.109-.565.109-.565.102-.103.103-.102.414.159.415.159-.509.508-.509.509zm19.695-.265h-.352l.176-.176.176-.176.177.176.176.176zm-21.166-.264h-.573l.11-.331.11-.33h.706l.11.33.11.33zm3.415 0h-.224l.153-.397.152-.397h.802l-.33.397-.329.397zm1.927-.004-.447-.004.396-.257.397-.256.214-.004.214-.004-.163.264-.164.265zm20.058.004h-.635l.317-.318.318-.317.317.317.318.318zm-17.595-.265h-.397v-.512l.397.152.397.152v.208zm16.404 0h-.132v-.264h.264v.264zm-13.494-.264h-.132v-.265h.265v.265zm-6.085-.265H99.7v-.265h.264v.265zm18.785 0h-.132v-.265h.265v.265Zm-22.44-.265h-.547l.513-.388.514-.389.363-.008.363-.008-.33.397-.329.397zm2.134-.008-.199.008v-.529h.529v-.793h.819l-.476.653-.475.653zm16.47.008h-.353l.177-.176.176-.176.176.176.177.176zm6.911 0h-.232l-.332-.4-.332-.4-.405.334-.404.334.13-.397.132-.397.309.027.308.026.53.04.529.04v.794zm-21.346-.264h-.117v-.529h.56l-.163.264-.164.265zm16.926-.021-.507-.021.348-.139.347-.139.16.16.16.16zm1.875-.244h-.133v-.264h.265v.264zm4.706 0h-.517l-.177-.176-.176-.177v-.44h.729l.33.396.329.397zm-28.122-.529h-.353l.177-.176.176-.177.176.177.177.176zm22.225 0h-.265v-.56l.265.163.265.164v.233zm-20.472-.269-.23.004.327-.394.327-.393.262.162.263.162-.359.228-.359.227zm4.2.004h-.132v-.264h.264v.264zm-1.323-.529h-.132v-.264h.264v.264zm5.16 0h-.353l.176-.176.177-.177.176.177.176.176zm11.377 0h-.265v-.56l.265.163.264.164v.233zm2.365-.01-.381-.01-.357-.404-.358-.404.142-.142.141-.141.597.555.596.556zm1.074-.254h-.264v-.53h.529v.53zm-21.034-.265h-.397v-.529h.794v.529zm16.007-.264h-.353l.177-.177.176-.176.176.176.177.177zm-17.796-.265h-.233l.397-.397.396-.397.35.008.35.008-.514.389-.514.388zm3.758 0h-.28l.163-.265.163-.264h.234v.529zm2.793 0h-.132v-.265h.265v.265zm15.25-.265h-.244l-.152-.396-.153-.397h-.81v-.794h.43l.586.794.587.793zm-22.648-.352h-.386l-.327-.203-.328-.202.714-.325.714-.325v-.445h.794v.53h-.794v.97zm23.943.045-.612.09.17-.442.17-.442v-.172l.54.141.54.141-.099.297-.097.297zm-4.506-.222h-.353l.176-.176.177-.177.176.177.177.176zm1.323 0h-.353l.176-.176.177-.177.176.177.177.176zm-15.17-.353-.176.177v-.706l.176.177.177.176zm-3.367-.176h-.28l.164-.265.163-.264h.234v.529zm-3.408-.265h-.192l-.176-.176-.177-.176v-.441h1.041l-.151.397-.153.396zm8.319 0h-.133v-.264h.265v.264zm15.875 0h-.441l.095-.284.094-.284h.503l.095.284.095.284zm-18.786-.264h-.132v-.265h.265v.265zm15.759 0h-.25l-.163-.265-.163-.264h.825v.529zm-2.81-.265h-.116v-.529h.56l-.164.265-.163.264zm-17.277-.42-.228.141-.17-.169-.168-.17v-.44h.793v.498zm22.518-.04-.198.099-.638-.614-.639-.614.129-.129.128-.128.706.328.707.328.002.315.002.315zm-20.703-.069h-.353l.176-.176.177-.177.176.177.177.176zm1.168-.02-.507-.022.347-.139.348-.139.16.16.16.16zm17.75.02h-.133v-.264h.265v.264zm-22.027-.694-.33.196v-.495l.408-.34.409-.34-.11-.287-.111-.289h1.255l-.004.132-.005.133-.59.547-.591.548zm1.918-.1h-.397v-.472l.397-.152.397-.153v.777zm3.175 0h-.132v-.264h.264v.264zm16.007 0h-.264v-.498l.264-.163.265-.164v.825zm-17.021-.617-.176.176v-.705l.176.176.176.177zm3.13.088h-.131v-.264h.264v.264zm11.775 0h-.353l.176-.176.177-.177.176.177.177.176zm-16.288-.529h-.116v-.529h.56l-.164.264-.163.265zm2.662-.265h-.133v-.264h.265v.264zm1.455-.264h-.353l.177-.177.176-.176.176.176.177.177zm3.804 19.844h.1l.304-.366.303-.366-.403-.155-.404-.155v1.042zm44.526-.353.177-.177-.177-.176-.176-.176v.705zm.794-.53.177-.176-.177-.176-.176-.176v.705zm-49.389-.705h.265v-.529h-.529v.529zm27.443-1.344.322.021-.152-.397-.153-.397h.674l-.17-.17-.17-.17-.391.326-.392.325-.276-.171-.276-.17v.516l.33.133.331.133zm-1.424-.714.221-.118-.221-.212-.222-.21-1.37-.131-1.37-.131-.176.173-.177.174 1.547.286 1.546.286zm.504-.653.24-.08-.02-.192-.02-.192v-1.059h-.44v1.603zm22.028-.464h.133v-.264h-.265v.264zm.794 0h.132v-.264h-.264v.264zm-56.67-.529h.317l.293-.939.294-.938-.427.088-.428.088.071.424.071.423-.418.16-.419.161.165.267.165.266zm-1.935-.265h.265v-.529h-.53v.529zm35.719-.793h.352l-.176-.177-.176-.176-.177.176-.176.177zm-36.38-.53h.132v-.264h-.265v.265zm35.057-.132.264-.163v-.529l-.264.163-.265.164v.529zm-32.497-.362.587-.217.102-.306.102-.305h-.82l-.28.522-.279.523zm-1.386-.3h.25l.161-.26.162-.262-.41.157-.411.158v.208zm-6.466-.264h.132v-.264h-.264v.264zm3.153-.02.507.02-.16-.16-.16-.16-.347.14-.347.138zm1.653-.068.177-.176-.177-.177-.176-.176v.705zm.75-.441h.132v-.265h-.264v.265zm55.812-.53h.116l.164-.264.163-.264h-.56v.529zm-55.415-.528h.353l-.177-.177-.176-.176-.176.176-.177.177zm52.52-.794h.132v-.265h-.265v.265zm4.233 0h.132v-.265h-.264v.265zm-58.208-.265h.397v-.512l-.397.152-.397.152v.208zm2.088-.264h.369l.152-.397.152-.397h-1.041v.794zm33.91-.794h.325l.15-.388.148-.389-.229-.141-.229-.142-.42.161-.421.162v.384l.176.177.176.176zm21.416-.265h.133v-.264h-.265v.264zm2.646-.264h.132v-.265h-.264v.265zm-59.928-.453.53-.138-.005-.168-.004-.167-.25-.396-.25-.395-.384.525-.384.525.11.176.108.177zm34.628.188h.232l.335-.403.335-.403-.159-.159-.159-.158-.408.156-.408.157v.81zm-33.186-1.358.499-.097.114-.344.114-.344-.82-.31-.82-.309v-.396l-.397.152-.397.152v.449l.933.175.933.175-.329.397-.33.396zm-2.324-.582.176-.176-.176-.177-.176-.176v.705zm33.51.088h.414l.152-.246.152-.246-.239-.148-.239-.148-.327.394-.327.394zm25.448 0h.132v-.264h-.264v.264zm-86.626-.287.157.023 1.563-.555 1.562-.554 1.323-.375 1.323-.374 3.988-.791 3.987-.792 1.569-.144 1.569-.144 1.984-.372 1.984-.373-2.38.138-2.382.137-3.878.653-3.878.653-3.232.921-3.232.922-1.092.502-1.092.503zm65.311.023h.28v-.53h-.233l-.163.265-.164.265zm-33.992-.265h.67v-.464l-.378-.314-.378-.314-.293.546-.292.546zm31.958 0h.431l.175-.282.174-.282-.093-.093-.093-.094-.513.376-.513.375zm-36.932-.353.177-.176-.177-.177-.176-.176v.706zm35.495-.176h.28l.175-.282.175-.283-.121-.12-.121-.122-.335.404-.335.403zm-34.364-.265h.28v-.529h-.233l-.164.265-.163.264zm2.236 0h.369l.167-.434.167-.435-.126-.126-.126-.126-.41.41-.41.409v.302zm31.362 0h.228l.152-.397.152-.396h-.456l-.152.396-.152.397zm-66.12-.529h.24l.295-.552.296-.552-.153-.152-.152-.152-.524.475-.525.475.142.229.142.23zm69.976 0h.133v-.264h-.265v.264zm-36.777-.264h.132v-.265h-.264v.264zm45.773 0h.132v-.265h-.264v.264zm-76.659-.461.338-.13-.671-.67-.671-.672-.154.155-.155.154.488.646.487.647zm29.68-.069h.249l.162-.261.161-.262-.41.158-.411.157v.208zm2.38-.315.512-.32-.139-.224-.139-.225-.373.31-.373.31v.469zm34.545.315h.132v-.264h-.264v.264zm-33.328-.268.255-.004.39-.246.388-.247-.197-.197-.197-.197-.447.448-.447.447zm31.873.004h.352l-.176-.177-.176-.176-.177.176-.176.177zm-67.716-.265h.247v-.868l.463-.367.463-.368-.633.074-.634.074-.076.727-.076.728zm66.393 0h.264v-.529h-.529v.529zm-31.038-.798.214-.004.397-.256.397-.257-.448-.004-.447-.004-.164.265-.163.265zm-35.637-.79h.264v-.529h-.529v.53zm27.252 0h.353l-.177-.176-.176-.176-.177.176-.176.177zm38.761 0h.133v-.264h-.265v.265zm-64.029-.264h.397v-.468l-.661-.434-.662-.433v.541h.529v.794zm62.971 0h.132v-.265h-.264v.265zm-28.25-.43.721-.131.117-.117.116-.116h-1.676v.494zm25.34-.1h.132v-.264h-.265v.265zm-61.996-.324.315-.105.104-.314.105-.315h-.517l-.16.42-.161.418zm2.903-.098.269-.166-.283-.283-.284-.284-.163.164-.163.163.177.286.177.287zm-1.1-1.165h.264v-.529h-.529v.529zm-1.852-.264h.264v-.529h-.529v.529zm3.572-2.382h.132v-.264h-.265v.265zm.044-.617.176-.176-.176-.177-.177-.176v.706zm-.58-1.169.705-.134-.285-.285-.285-.285-.42.42-.42.42zm.933-.86h.352l-.176-.176-.176-.176-.177.176-.176.177zm-.265-.529h.265v-.233l-.265-.163-.265-.164v.56zm-.942-.793h.117l.163-.265.164-.264h-.56v.529zm.928-.794h.163l.318-.842.317-.843-.09-.09-.09-.09-.39.15-.39.15v1.565zm-2.169-.538.199-.008.515-.39.514-.389-.305-.305-.305-.305-.408.339-.408.338v.729zm-1.086-1.447.435-.435.223.35.222.35.004-.463.004-.463h.9l-.29-.289-.289-.289-.557.298-.558.299v-1.606h-.529v2.683zm2.711.133h.237l.16-.419.16-.418v-.221h-.793v1.058zm-2.75-2.91h.133v-.265h-.265v.265zm94.457-1.853h.132v-.264h-.264v.264zm-2.015-3.968h.233l.139-.53.138-.529h-1.043l-.496-.265-.496-.265-.164.265-.164.265h.56l.53.53.529.529zm-.896-1.588h.133v-.264h-.265v.264zm-2.91-.264h.132v-.265h-.264v.265zm-2.646-1.059h.133v-.264h-.265v.264zm-1.058-1.058h.397v-.529h-.794v.529zm-2.91-.265h.132v-.264h-.265v.264zm-4.763-.529h.132v-.264h-.264v.264zm-6.57-.353.176-.176-.177-.176-.176-.177v.706zm-47.67-.176h.133v-.265h-.265v.265zm46.038 0h.132v-.265h-.264v.265zm.573-.088.177-.177-.177-.176-.176-.176v.705zm4.719.088h.132v-.265h-.265v.265zm4.1 0h.353l-.176-.176-.176-.177-.177.177-.176.176zm-11.178-.295 1.257-.03-.463-.122-.463-.12v-.481l.661-.166.662-.166v-.737h-.498l-.157.253-.156.253-.4-.153-.399-.153.043.231.042.23-.032.332-.03.33h-1.324v.529zm5.755.03h.132v-.264h-.265v.265zm2.91 0h.132v-.264h-.264v.265zm-49.477-.264h.132v-.265h-.264v.265zm38.027 0h1.03l-.163-.265-.164-.264-.976-.021-.977-.021.33-.133.332-.134v-.485h-.492l-.414.414-.413.413-.267-.164-.267-.165v-.529l.23.141.229.142.473-.523.473-.523-.24-.004-.239-.004.397-.256.397-.257-.33-.004-.331-.004v-.635l.297.297.296.297.365-.14.365-.14v1.071l-.331.133-.33.134.61.02.611.022-.154-.25-.153-.248.532-.496.532-.495-4.272-.593-4.272-.593-.2.322-.198.322-.44-.44-.44-.44h-.491v.594l-.36-.298-.358-.298-3.015-.034-3.014-.034-2.9.043-2.9.043-.229.323-.229.323-.12-.288-.12-.288-1.185.18-1.186.18-.144.144-.144.144-.042.56-.042.558h-.416v-.529h-.541l.42.643.421.642-.53.284-.53.283-.347-.008-.349-.008.464-.351.463-.352v-.603h-.541l-.301.662-.302.661-.42.02-.42.02-.488.093-.487.092-.147.147-.147.147 4.206-.092 4.206-.092.264-.077.265-.077.48.209.48.209.612-.28.612-.278.254.254.255.254 2.093.102 2.093.101 6.086.186 6.085.185.11.1.11.1zm-3.115-.53h-.088l-.146-.236-.147-.237.382-.146.382-.147-.147.383-.147.384zm-12.901-.528h-.082l-.513-.384-.514-.384.595.15.596.15v.468zm4.447 0h-.132v-.265h.265v.265zm4.467 0h-.132l.163-.265.164-.265h.264l-.163.265-.164.265zm1.222 0h-.353l.176-.177.177-.176.176.176.177.177zm-8.747-.265h-.28l.163-.265.164-.264h.233v.529zm1.603 0h-.353l.177-.176.176-.177.176.177.177.176zm4.895 0h-.132v-.265h.264v.265zm-16.42-.265h-.412l.163-.264.164-.265h.498v.529zm1.383-.088-.177.177v-.706l.177.176.176.177zm.734.088h-.413l.164-.264.163-.265h.498v.529zm1.307 0h-.132l.163-.264.164-.265h.264l-.163.265-.164.264zm2.016 0h-.265v-.529h.529v.529zm15.478-.264h-.132v-.265h.264v.265zm-4.101-.265h-.353l.176-.176.177-.177.176.177.177.176zm5.688 0h-.132v-.264h.265v.264zm-21.43-.264h-.133v-.265h.264v.265zm18.255 0h-.132v-.265h.265v.265zm-16.287-.265h-.28l.163-.264.164-.265h.233v.529zm-2.485-.633-.603.285.127-.487.128-.488h.7l.126.203.125.203zm4.75.104h-.133v-.265h.265v.265zm12.479-.088-.176.176v-.705l.176.176.176.176zm.617-.177h-.264v-.56l.264.163.265.164v.233zm-14.552-.264h-.353l.177-.177.176-.176.177.176.176.177zm9.922 0h-.132v-.265h.264v.265zm1.058 0h-.132v-.265h.265v.265zm15.613 3.534.392-.15-.15-.241-.148-.241-.23.142-.23.142-.273-.469-.273-.468-.008.216-.008.215.268.502.27.502zm4.231.17h.132v-.265h-.264v.265zm-46.567-.265h.133v-.264h-.265v.264zm44.158 0h.104l.152-.397.152-.396h-.512v.793zm-39.278-.264h.28v-.529h-.233l-.164.264-.164.265zm1.735 0h.132v-.265h-.264v.265zm31-.008.045.008.419-.16.418-.161v-.17l-.001-.17-.912-.02-.912-.02.45.342.45.342zm10.156-.008.913-.017-.64-.256-.64-.256-.273.273-.273.273zm-2.394-.248h.264v-.233l-.264-.164-.265-.163v.56zm.661 0h.132v-.265h-.264v.265zm6.085 0h.133v-.265h-.265v.265zm-44.935-.617.177-.177-.177-.176-.176-.177v.706zm30.813-.22.224-.354.004-.154.004-.154h-.794v.133l.169.44.17.441zm4.862.308h.132v-.265h-.264v.265zm.573-.088.177-.177-.177-.176-.176-.177v.706zm-41.054-.177h.132v-.264h-.265v.264zm5.754 0h.432l.175-.282.174-.282-.093-.093-.093-.093-.513.375-.513.375zm30.494-.008h.264l.397-.256.397-.257h-.529l-.397.257-.397.256zm3.44.008h.132v-.264h-.265v.264zm2.38 0h.133v-.264h-.265v.264zm-3.704-.264h.133v-.265h-.265v.265zm-33.602-.265h.133v-.265h-.265v.265zm28.884-.088.176-.177-.176-.176-.176-.176v.705zm-31.794-.177h.132v-.264h-.264v.264zm36.248 0h.132v-.264h-.265v.264zm-32.676-.264h.264v-.234l-.264-.163-.265-.164v.56zm1.424 0h.132l.163-.265.164-.264h-.265l-.163.264-.164.265zm29.267-.042h.662l-.33-.133-.332-.134-.33.134-.331.133zm-29.765-.224h.132v-.264h-.265v.264zm43.111 0h.117l.163-.264.164-.265h-.56v.53zm.81 0h.132v-.264h-.265v.264zm-4.483-.27.545.006.503-.368.503-.367-1.143-3.403-1.143-3.402-1.018-2.117-1.017-2.117-1.347-1.556-1.346-1.557-1.227-1.75-1.228-1.751-2.093-2.88-2.093-2.88-1.47-2.677-1.47-2.676-1.112-1.72-1.113-1.72-1.184-1.322-1.184-1.323-2.508-3.307-2.508-3.308-1.012-1.323-1.012-1.323-.41-.86-.41-.86-.15.006-.15.005-.982 1.649-.983 1.649-2.457 3.215-2.457 3.216-2.194 2.808-2.193 2.807-1.937 2.311-1.936 2.311-2.67 3.97-2.67 3.968-3.35 4.366-3.352 4.365-1.54 3.175-1.539 3.175-.611 1.015-.611 1.014.495.363.496.362 2.413-.117 2.414-.117 3.307-.412 3.307-.413.344-.116.345-.117 6.402-.396 6.403-.396 1.863-.139 1.862-.138 5.017-.007 5.016-.007 2.382.152 2.381.153 4.101.536 4.101.536 1.23.262 1.23.263 1.813.64 1.812.639zm-37.41-5.469-1.764.131-.661-.131-.662-.132-.328-.27-.328-.269.162-.697.161-.698.404-.322.405-.322-.473-1.266-.472-1.265-.316-.397-.316-.396-.75-1.323-.749-1.323-.75-.92-.75-.92v-.938h2.051l.99.413.989.413.337-.129.337-.13.426-.853.426-.854v-.874l-.662-.898-.663-.897.222-.222.222-.222.985-.16.984-.16.148.567.148.566h.109l1.254-.427 1.255-.428-.15-.39-.15-.392-.167-.703-.167-.703-.324-.397-.324-.396-.302-.9-.302-.9v-.968l2.315.06 2.315.062.366-.236.365-.235-.205-1.881-.204-1.882-.029-.793-.028-.794h3.969l.07 1.058.07 1.058.134.596.133.595h4.488v1.241l-.53.479-.529.479v2.024l.596.121.595.121 2.086.131 2.085.131.225.225.225.225-.544 1.098-.544 1.1.086.744.085.745 1.984.02 1.985.02.463.046.463.046v.804l-.632 1.001-.632 1.001-.956 1.898-.955 1.897v.542h2.085l.16.26.16.26.451-.28.451-.28.728.279.727.278v.481l-.599.393-.6.393-.783 1.498-.784 1.497-.733.703-.734.703v.676l-.514.275-.513.275-4.05-.083-4.051-.084-4.718.19-4.719.19zm-1.962-.894.463-.018.53-.215.528-.214-.992.02-.992.022v.424zm9.66-.076 4.171-.01.29-.18.291-.18.074-.892.074-.892.03-.227.028-.227.377.145.377.145.946-.261.946-.261-.003-.186-.003-.186-1.092-.46-1.092-.458.155-1.135.156-1.134-1.015.097-1.014.097-.188-.305-.188-.305-.462-1.638-.462-1.639-.24.067-.241.066-.485 1.455-.485 1.455h-.693l-.423-1.058-.424-1.059h-.451l-.441.488-.441.487-.612 1.812-.61 1.812-.303.1-.301.101-.164-.746-.165-.746-.101-.331-.102-.33h-.483l-.312 1.256-.311 1.257-.79.992-.791.992H99.7v.997l-.53.138-.529.139v.541l.596.11.595.108zm10.647.095h.132v-.265h-.265v.265zm-1.28-2.999.177-.176-.176-.176-.177-.177v.706zm-2.028-1.276h.662l-.33-.134-.332-.133-.33.133-.331.134zm4.483-.223h.28v-.529h-.233l-.164.264-.164.265zm-5.276-.265h.264l-.004-.595-.004-.595-.256.397-.257.397-.004.198-.004.198zm3.704-.529h.353l-.177-.176-.176-.177-.177.177-.176.176zm-.94-.285.516.02-.27-.27-.271-.27-.576-.112-.576-.11v.454l.33.133.332.134zm-18.064-.842.517.039-.1-.3-.1-.299-.281-.093-.282-.094-.135.354-.136.354zm16.27-.02.176-.176-.176-.176-.177-.176v.705zm.983-.176h.102l.138-.529.138-.529h-.48v1.058zm-4.285-.325.314-.105.105-.314.105-.314-.42.16-.418.161v.517zm-8.384-.204h.132v-.264H99.7v.264zm11.377 0h.132v-.264h-.264v.264zm-2.117-.264h.133v-.265h-.265v.265zm-1.72-2.382h.353l-.176-.176-.176-.176-.177.176-.176.176zm-8.334-.264h.133v-.265h-.265v.265zm-.926-.794h.353l-.176-.176-.177-.177-.176.177-.177.176zm14.155-.53h.133v-.264h-.265v.265zm1.191 0h.353l-.177-.176-.176-.176-.176.176-.177.177zm-9.393-.793h.133v-.264h-.265v.264zm9.128-.264h.353l-.176-.177-.177-.176-.176.176-.176.177zm-10.715-.53h.132v-.264h-.264v.264zm2.646 0h.132v-.264h-.265v.264zm4.762-1.323h.132v-.264h-.264v.264zm-3.925-1.146.177-.176-.177-.177-.176-.176v.705zm1.544-.706h.132v-.264h-.264v.264zm2.117-1.058h.132v-.265h-.265v.265zm-.794-.265h.132v-.264h-.264v.264zm-1.323-.529h.132v-.264h-.264v.264zm-1.323-.793h.397v-.53h-.794v.53zm-1.043-1.059h.117v-.233l-.306-.189-.305-.189.189.306.189.305zm-1.248-2.123.102-.304-.295-.295-.294-.294v.811l.193.193.193.193zm-7.763 28.052h.132v-.264h-.264v.264zm41.143-.264h.264l-.019-.199-.018-.198-.227-.53-.228-.528-.018.727-.02.728zm-43.26-.265h.132v-.264h-.264v.264zm43.127-1.323h.133v-.264h-.265v.264zm-.22-.617.176-.176-.176-.177-.177-.176v.705zm-.237-.822.114-.113-.584-2.068-.584-2.068-.287-.794-.288-.794-.646-.992-.645-.992h-.205l.497.992.497.992 1.01 2.975 1.008 2.975zm.193-2.265h.132v-.264h-.265v.264zM74.3 142.68h.264v-.529h-.529v.529zm.661-1.323h.132v-.264h-.264v.264zm-.794-.529h.133v-.264h-.265v.264zm1.059-.264h.132v-.265h-.265v.265zm72.231 0h.132v-.265h-.264v.265zm-14.272-2.91h.117v-.234l-.306-.19-.305-.188.189.306.188.305zm-.81-1.324h.133v-.264h-.265v.264zm-53.753-.264h.094l.478-.53.48-.529h-.485l-.33.53-.33.529zm52.74-1.147.176-.176-.177-.177-.176-.176v.705zm-51.623-.44h.117v-.234l-.306-.19-.305-.188.189.306.189.305zm51.05-.265h.132v-.265h-.265v.265zm-.514-.53h.116v-.825l-.269.167-.268.166.152.246.152.246zm19.034-1.058h.132v-.265h-.264v.265zm-20.108-.53h.132v-.264h-.265v.265zm-.53-.793h.133v-.264h-.265v.264zm20.373-.264h.133v-.265h-.265v.265zm-20.902-.53h.133v-.264h-.265v.264zm-45.54-.264h.133l.164-.265.163-.264h-.264l-.164.264-.163.265zm44.498-1.059h.116v-.233l-.305-.189-.306-.189.19.306.188.305zm-43.143-.529h.132v-.264h-.264v.264zm.794-1.058h.132v-.265h-.265v.265zm40.525-.617.176-.177-.176-.176-.176-.177v.706zm-40.79-.97h.132v-.265h-.264v.264zm1.455-.265h.353l-.176-.177-.177-.176-.176.176-.176.177zm38.497-1.058h.133v-.265h-.265v.265zm24.65-.353.177-.177-.176-.176-.177-.176v.705zm-25.163-.177h.116v-.529h-.56l.163.265.164.264zm-1.074-1.323h.044v-.793h-.441v.44l.176.177.177.176zm25.664-.264h.133v-.265h-.265v.265zm-60.092-.265h.1l.363-.463.363-.463-.463.363-.463.363v.2zm-.497-.264h.132v-.265h-.265v.265zm34.131-.53h.132v-.264h-.264v.265zm0-1.587h.132v-.265h-.264v.265zm25.93-1.587h.131v-.265h-.264v.265zm-54.77-3.44h.133v-.265h-.265v.265zm25.4-.265h.133v-.264h-.265v.264zm-1.058-.264h.132v-.265h-.264v.265zm-28.575-.794h.132v-.265h-.264v.265zm5.292-.53h.132v-.264h-.265v.265zm23.812-.264h.133v-.264h-.265v.264zm-2.264-.529h.28v-.529h-.233l-.164.265-.164.264zm-.867-1.146.177-.177-.177-.176-.176-.177v.706zm-17.11-.838.265-.164v-.529l-.264.164-.265.163v.529zm17.595.132h.133v-.265h-.265v.265zm-1.688-.53h.264l-.163-.264-.164-.264h-.529l.164.264.163.265zm-15.245-.264h.132v-.264h-.264v.264zm1.18-.915.54-.49v-.447h-1.323v.529h.586l-.172.449-.172.448zm12.955.122h.256l-1.309-1.9-1.308-1.899v-.7h-.529v-.793h-.513l.166.463.165.463 1.408 2.183 1.408 2.183zm35.342-.53h.132v-.264h-.264v.264zm1.058-1.058h.133v-.265h-.265v.265zm-48.947-.53h.132v-.264h-.265v.265zm.793 0h.133v-.264h-.265v.265zm.794-1.057h.132v-.265h-.264v.265zm9.393-.265h.353l-.177-.176-.176-.177-.177.177-.176.176zm38.497 0h.132v-.265h-.265v.265zm-1.28-.882.177-.176-.176-.177-.177-.176v.705zm-32.058-1.5h.132v-.264h-.264v.265zm-7.408-.528h.132v-.265h-.264v.265zm10.098-.089.176-.176-.176-.176-.176-.177v.706zm-15.14-.97h.412v-.529h-.498l-.164.265-.163.264zm4.248 0h.132v-.264h-.264v.264zm6.725 0H115l.089-.24.088-.239.661-.09.662-.092-.075.355-.074.356.339-.124.339-.124-.074-.32-.073-.321.536-.14.537-.14v-.733h-.486l-.402.154-.401.154.143.375.144.375h-.411l-.463-.418-.462-.418-.55.55-.552.551v.529zm33.344 0h.28v-.529h-.233l-.164.265-.163.264zm-30.007-.264h.16l.511-.274.512-.274v-.511h-.775l-.283.53-.284.529zm-10.96-.944.237-.146v-.498h-.778l.152.395.152.396zm2.221-.115h.132v-.264h-.264v.264zm-5.82-.529h.131v-.265h-.264v.265zm1.29-.265h.133l.164-.264.163-.265h-.264l-.164.265-.163.264zm1.664-.088.176-.176-.176-.176-.177-.177v.706zm34.351-.176h.133v-.265h-.265v.265zm6.187 0h.264l.164-.265.163-.264h-.529l-.163.264-.164.265zm2.545 0h.132v-.265h-.265v.265zm-91.745-.805.199-.011.926-.507.926-.507-.344-.011-.344-.011-.78.404-.781.403v.251zm63.519-.253h.28l.175-.283.175-.282-.121-.12-.121-.122-.335.403-.335.404zm2.34-.089.177-.176-.176-.176-.177-.177v.706Zm22.578.089h.265v-.53h-.529v.53zm1.72-.265h.132v-.265h-.264v.265zm-87.842-.53h.133v-.264h-.265v.265zm.927-.415.661-.177.397-.246.397-.245-.662.177-.661.177-.397.245-.397.246zm84.534-.113h.132v-.265h-.264v.265zm-82.815-.53h.133v-.264h-.265v.265zm59.465-.007.199.008v-.302l-.378-.379-.378-.378h-.567v.503l.463.27.463.27zm1.125.008h.397v-.53h-.794v.53zm20.342 0h.132l.163-.265.164-.265h-.265l-.163.265-.164.265zm4.396-.133.265-.163v-.529l-.265.163-.264.164v.529zm-84.799-.155.265-.014.53-.228.528-.227-.396-.015-.397-.014-.397.256-.397.257zm1.72-.506h.353l-.176-.177-.177-.176-.176.176-.177.177zm40.922-.088.177-.177-.177-.176-.176-.177v.706zm-40.26-.177h.132v-.264h-.265v.264zm.793-.264h.133v-.265h-.265v.265zm52.803-.144.246-.152v-.763h-.497l-.164.265-.164.264.167.27.166.268zm-52.141-.121h.353l-.177-.176-.176-.177-.176.177-.177.176zm39.71 0h.55l-.11-.33-.11-.331-.44-.086-.442-.086v.833zM68.06 94.24l.507.02-.16-.16-.16-.16-.347.14-.347.139zm54.923.02h.353l-.177-.176-.176-.176-.176.176-.177.176zm-53.314-.529h.133v-.264h-.265v.264zm52.507-.04.318-.105-.02-.192-.02-.192-.192-.02-.192-.02-.106.318-.105.317zm-51.713-.224h.133v-.265h-.265v.265zm36.248-.36.397-.396v-.367l-.397.329-.397.33v.501zm1.323.36h.132v-.265h-.264v.265zm12.221-.019.214-.019.53-.227.529-.227-.58-.019-.58-.019-.163.265-.164.265zm28.245.019h.381l.13-.21.13-.21-.512-.038-.51-.039v.497zm-77.11-.265h.352l-.176-.176-.177-.177-.176.177-.177.176zm.925-.264h.133v-.265h-.265v.265zm31.338 0h.28v-.53h-.233l-.164.265-.163.265zm4.895 0h.116l.164-.265.163-.265h-.56v.53zm-35.461-.286.507.02-.16-.159-.16-.16-.347.14-.347.138zm22.247.02h.132v-.264h-.264v.265zm12.37-.064.33-.109.087-.64.087-.641-.41.529-.408.529-.008.22-.008.221zm38.695.065h.132v-.265h-.265v.265zm-54.24-.265h.132v-.264h-.264v.264zm27.809-.071.16-.16-.14-.347-.138-.348-.021.507-.021.508zm-15.374-.193h.133v-.265h-.265v.265zm1.059-.265h.132v-.264h-.264v.264zm1.175 0h.28v-.529h-.233l-.164.265-.163.264zm2.386 0h.254l.334-.357.333-.357.537.11.537.111-.444-.285-.445-.286-.68.31-.68.31v.444zm11.338-.264h.253l.142-.545.142-.544-.31.103-.31.103-.085.441-.086.442zm-11.989-.794h.133v-.265h-.265v.265zm35.984 0h.132v-.265h-.265v.265zm-35.073-.53h.249l.163-.264.164-.265h-.825v.53zm15.493 0h.133v-.264h-.265v.265zm-2.38-.264h.131v-.265h-.264v.265zm1.057 0h.133v-.265h-.265v.265zm5.214-.825.451.031-.649-.649-.649-.649-.78.1-.78.098-.46.258-.46.257 1.438.261 1.438.261zm-4.404-.498h.942l-.137-.22-.136-.22-.805.117-.806.119v.204zm-1.603-.264h.132v-.265h-.265v.265zm-1.852-.265h.132v-.265h-.265v.265zm7.673 0h.132v-.265h-.265v.265zm-25.02-.53h.281v-.528h-.233l-.164.264-.163.265zm1.191 0h.413v-.528h-.498l-.164.264-.163.265zm1.339 0h.132v-.264h-.264v.265zm3.836 0h.353l-.176-.176-.177-.176-.176.176-.176.177zm4.366 0h.132v-.264h-.264v.265zm2.117 0h.397v-.207l-.397-.152-.397-.153v.513zm.793 0h.133v-.264h-.265v.265zm7.673 0h.133v-.264h-.265v.265zm-16.404-.264h.133v-.264h-.265v.264zm-1.618-.264h.132l.163-.265.164-.265h-.265l-.163.265-.164.265zm33.617-.53h.413v-.233l-.247-.152-.246-.152-.166.269-.166.268zm-12.353-.268.463-.004.316-.202.317-.201-.213-.344-.212-.344-.369.073-.369.073-1.058-.546-1.058-.546-1.059-.335-1.058-.335-.265-.204-.264-.204-.53-.077-.528-.077-1.23.195-1.228.196-.756-.195-.755-.194.661-.204.662-.205-1.256.058-1.257.058-.066-.171-.067-.17-1.504-.113-1.503-.112-.126.482-.126.481-.62-.115-.62-.114-.33-.02-.33-.02v-.882l-.199.199-.198.198-.034.243-.033.242-.033.265-.033.265h-.472l-.175-.699-.175-.698-4.285.17-4.286.171-2.658.225-2.658.225-.583.312-.583.312v.843l2.844-.172 2.845-.172 5.25-.035 5.249-.035.136-.356.137-.356h.473v.794l.86-.027.86-.026-.662-.212-.662-.212 1.025-.026 1.025-.026-.33-.397-.33-.397h.551l.419.16.419.161v.688l.499-.131.5-.13.202.328.203.328-.262-.161-.262-.162-.77.238-.772.238 2.249.015 2.249.015 1.587.255 1.588.255 2.093.54 2.093.538h.973v.529zm-5.358-2.113h-.133v-.264h.265v.264zm-4.385-.48-.378.142-.51-.181-.51-.182.378-.142.378-.142.51.182.51.182zm-2.098-.578h-.352l.176-.176.176-.177.177.177.176.176zm11.774 1.587h.133v-.264h-.265v.264zm1.323-.793h.133v-.265h-.265v.265zm-2.646-.265h.133v-.265h-.265v.265zm-31.75-.53h.133v-.264h-.265v.265zm18.521-.793h.133v-.264h-.265v.264zm-21.96-.794h.132v-.264h-.264v.264zm1.018-.661.427-.53.208.313.208.313.657-.516.657-.515-.705.254-.705.254-.154-.401-.154-.401.264-.493.263-.492v-.417l-.42.6-.421.601-.387-.32-.386-.322-2.164.331-2.163.331-.535.298-.535.298-.142-.037-.142-.037v.888l1.2-.05 1.2-.051 1.636-.307 1.636-.307.271.168.27.167-.156.455-.156.454zm2.421.132h.693l-.163-.264-.164-.265h-.731l-.164.265-.163.264zm22.49-.264h.132v-.265h-.264v.265zm1.588 0h.132v-.265h-.265v.265zm-23.416-.265h.265v-.529h-.53v.529zm11.245 0h.132v-.264h-.265v.264zm.661 0h.353l-.176-.176-.177-.177-.176.177-.177.176zm1.588 0h.352l-.176-.176-.176-.177-.177.177-.176.176zm6.55-.051.417-.081.131-.397.131-.397-.428.354-.428.353-.317-.196-.317-.196.198.32.197.32zm1.255-.214h.132v-.264h-.264v.265zm4.498 0h.132v-.264h-.264v.265zm-13.23-.793h.133v-.265h-.265v.265zm-12.39-.353.176-.176-.177-.177-.176-.176v.705zm9.508-.513.16-.16-.14-.347-.138-.347-.021.507-.021.507zm5 .072h.132v-.265h-.265v.265zm-1.052-.794h.109l-.157-.408-.157-.408-.126.126-.126.126.175.282.174.282zm-16.396-.529h.117v-.233l-.305-.19-.306-.188.189.306.189.305zm3.16 0h.132v-.264h-.264v.264zm11.95-.088.177-.176-.177-.177-.176-.176v.705zm-17.639-.176h.353l-.176-.177-.177-.176-.176.176-.177.177zm6.218-.265h.132v-.265h-.264v.265zm12.7 0h.132v-.265h-.264v.265zm-18.52-.265h.131v-.264h-.264v.264zm2.623-.55.507.021-.16-.16-.16-.16-.347.14-.347.138zm1.08-.243h.133v-.265h-.265v.265zm.794 0h.132v-.265h-.264v.265zm.53 0h.132v-.265h-.265v.265zm.793 0h.132v-.265h-.264v.265zM63.125 179.607l-.075.074-.46-.258-.461-.258v-.502h.737l.167.434.167.435zm1.253-.15h-.132v-.265h.264v.264zm-.082-.53h-.258l-.161-.419-.161-.419.314.105.315.105.104.314.105.314zm1.537-.132-.265.163v-.825h.53v.498zm-3.836-.662H61.6v-.529h.793v.529zm1.968-.264h-.28l.164-.265.163-.264h.234v.529zm2.81 0h-.117l-.164-.265-.163-.264h.56v.529zm-2.133-.265h-.132v-.264h.265v.264zm2.926 0h-.116l-.164-.264-.163-.265h.56v.529zm1.572-.264h-.132v-.265h.265v.265zm-5.622-.331-.33.11v-.781l.415-.16.416-.16-.085.44-.085.44zm1.638.066h-.117v-.529h.56l-.163.264-.163.265zm1.058-.794h-.116v-.529h.56l-.164.265-.163.264zm5.415-.132h-.813l-.11-.11-.11-.11v-4.94l.463-.04.463-.042.661-.056.661-.056 2.051-.188 2.05-.189v1.064l-.595.085-.595.084.034 1.364.035 1.364-1.201.18-1.201.18-.637.242-.638.242.147.463.147.463zm1.237-2.353.419-.16h2.073l-.008-.199-.009-.198-.372-.491-.371-.49-.81.403-.811.405-.019-.31-.018-.311-.228.529-.227.53-.019.226-.018.227zm1.015-1.769.507.02-.16-.159-.16-.16-.347.14-.347.138zm1.874-.773h.132v-.264h-.264v.264zm-10.945 4.279-.213.574-.196-.317-.196-.317.616-.513.615-.513.199-.01.198-.008v.529h-.811zm-1.87.17-.348.115.116-.347.115-.347.348-.116.347-.116-.116.347-.116.348zm1.013-.745h-.237v-1.001l-.397-.153-.396-.152v-.546h.508l.52.558.52.559-.14.367-.142.368zm3.203 0h-.265v-.498l.265-.163.265-.164v.825zm66.382-.529h-.558l.16-.64.16-.64-.27-.616-.27-.617.135.69.134.692-1.05-.192-1.049-.192-.402-.333-.401-.333-.04.363-.04.363-.062.265-.062.264-.03.33-.03.332h-.808l-.258-.68-.258-.678v-2.611h1.1l.793.794.794.793h.28l.988-.782.988-.783.307.306.306.307v3.599zm-52.437-.264h-.634l-.482-.533-.482-.533-.223-1.633-.224-1.632.334-.212.334-.212.57-.004.57-.004-.13.504-.133.503.308 1.48.307 1.482h1l.271-.992.272-.992.21-1.191.209-1.19.539-.079.538-.078-.201 1.887-.202 1.886-.325.392-.325.392-.734.38-.734.379zm2.46-3.97h.264v-.824l-.265.163-.264.164v.498zm-15.214 3.44h-.133v-.264h.265v.264zm56.488 0h-.264v-.529h.529v.529zm1.946 0h-.684l-.968-1.058-.967-1.058h-.352l-.083.857-.083.858-.427.081-.427.081-.168-.84-.168-.839v-2.58h3.863l.317.318.318.318v1.009l-.728-.15-.727-.15.33.143.331.144v.678l.484.631.484.631.17.463.168.463zm-2.327-2.91h.942l-.164-.265-.164-.264h-1.556v.529zm-59.304 2.646h-.42l.105-.314.105-.315.314-.104.314-.105v.838zm24.099-.392-2.382.18-.198-.203-.198-.203v-2.226l.165-.827.165-.827h1.522v2.646l1.389.031 1.389.031.334-.043.334-.044.164.427.164.427-.234.226-.233.225zm-21.896-.489-.115.484-.206-.474-.206-.475.165-.165.165-.165.156.156.155.155zm-3.107.087h-.265v-.56l.265.163.264.164v.233zm51.877-.265h-1.33l-.392-.599-.393-.599-.077-1.31-.076-1.312.463-.093.463-.094.004 1.011.004 1.012.335.661.334.662h1.308l.079-1.67.079-1.67.582.082.583.083.08.966.08.966-.397.952-.398.952zm1.48-1.94.177-.176-.177-.177-.176-.176v.706zm-9.215 1.621-1.763.078-.417-.595-.416-.595-.43-1.292-.429-1.293.303-.303.303-.302 2.298.077 2.298.078.336.279.335.279-.192.3-.193.301-.135 1.455-.135 1.455zm-1.412-.739h.132v-.264h-.265v.264zm1.576-.32.54-.077.084-.727.084-.728h-1.622v1.235l.187.187.187.188zm-.077-.21h-.373l.294-.354.295-.355-.174-.174-.174-.174h.584l-.04.529-.04.529zm-2-1.923.159-.16-.139-.347-.139-.347-.02.507-.022.507zm2.111-.026 1.83.002-1.276-.249-1.276-.248-.553.247-.553.246zm-2.625-.255.177-.176-.177-.177-.176-.176v.705zM65.5 171.254h-.13l-.342-.411-.341-.411.573-.574.574-.574v.912h-.48l.139.529.138.53zm7.61-.794h-.132v-.264h.264v.264zm-9.922-.282-.397-.002-.312-.357-.313-.356.511-.549.511-.548v-.816h.794v1.071l-.662.252-.661.251v.516l.463.27.463.27zm1.455-1.04h-.132v-.265h.265v.264zm2.271-.87-1.08.145v-4.472l.663-.577.664-.576.329.004.328.004-.355.225-.355.225 1.943-.114 1.942-.113.52-.05.518-.05.096.463.096.462-.681.259-.68.259v.511l.268.166.269.166-.152.247-.153.246-.976.004-.977.004-.304.194-.305.195-.14.884-.138.885-.13.13-.13.13zm-2.006-.983h-.132v-.264h.264v.264zm72.01-.034-.837-.035-2.421-.53-2.422-.529-.158-.792-.158-.791v-4.697h.147l1.977.632 1.977.633.935.162.935.163.575.403.575.403-.155.403-.154.403-.827-.173-.826-.174-.844-.392-.844-.391-.457.089-.457.088-.11.33-.11.332.617.016.617.016 1.456.456 1.455.457v.717l-.446.281-.446.281-.745-.35-.744-.348-.474-.243-.474-.243-.254.157-.254.157v.776l.596.225.595.225 1.393.19 1.394.191.224.438.225.437-.119.33-.118.332zm-74.515-.23h-.273v-.75l-.307-.102-.307-.102.257-.46.257-.458.479.53.479.528-.156.407-.156.407zm2.013-.265h-.17l.006-.198.006-.199.518-.661.517-.662-.002.397-.003.397-.351.463-.352.463zm16.396-.747-.897.105-.294-.098-.293-.097v-5.01l.952-.398.952-.398 3.176-.16 3.177-.16-.096.505-.096.505-.924.075-.924.075-1.389.274-1.389.275v.492H84.9l.162.423.163.424-.37.234-.369.234-1.257.004-1.256.004-.033.264-.034.265-.066.264-.066.265-.033.765-.033.765zm-17.075-1.42-.284.095v-.882l.284.095.285.094v.503zm30.54-.139-1.059.11-.586-.11-.586-.11-.702-.834-.702-.834.135-1.686.135-1.687.227-.21.227-.208 1.296-.186 1.295-.185-.15 1.65-.149 1.648.237.622.236.622h2.071l.625-.505.625-.506.132-1.81.132-1.81.359.076.358.076.37-.307.369-.306.023.231.024.23-.047 1.321-.046 1.32-.346.828-.346.828-.888.675-.888.676-.661.136-.662.137zm-31.92-.564-.095.437-.33-.36-.331-.36v-.494l.418-.16.419-.161h.55l-.268.33-.269.331zm45.263.224h-4.68l-.328-.396-.33-.396.044-2.558.043-2.558.137-.22.136-.222h1.778l.418.161.419.16v4.146l.202.125.201.125 3.632.089 3.631.09.15.39.15.389-.462.338-.462.337zm-42.005-.883-.49.306-.373-.266-.373-.265.446.143.446.142.096-.29.097-.289.32.107.32.107zm-4.632-.528-.176.177v-.706l.176.177.177.176zm7.1.089h-.132v-.265h.264v.265zm-6.07-.265h-.116l-.153-.246-.152-.247.269-.166.269-.166v.825zm1.572-.265h-.132v-.264h.264v.264zm1.292 0h-.133l.164-.264.164-.265h.264l-.163.265-.164.264zm57.776-.053-1.389-.053-2.05-.09-2.05-.09v-.507h.81l.162-.424.163-.424-.362-.223-.362-.224.455-.175.456-.175v-.799l-.55.144-.55.144.138-.36.139-.362-.448-.118-.449-.118.73-.03.731-.031 2.445.375 2.444.376 1.522.172 1.521.173v.825l-.992-.167-.992-.168-2.67-.17-2.669-.169-.181.473-.181.472.114.115.115.114 2.67.443 2.67.442v.662zm-59.597-.476h-.132v-.264h.264v.264zm51.197-1.19-.228.529-.014-.397-.015-.397.257-.397.256-.397-.014.265-.015.264zm2.424-1.28-.464.29-.038-.497-.037-.498.182.004.182.004.32.204.32.203zm-1.53-.176h-.132l.164-.264.163-.265h.265l-.164.265-.163.264zm-2.53-60.526-.397.152-.365-.225-.365-.226.152-.152.153-.153.61.226.61.226zm1.677.043-.27.167-.176-.287-.177-.286.163-.163.163-.163.283.283.283.283zm2.34-.148h-.661l.33-.133.331-.134.33.134.331.133zm-1.44-.223h-.086l-.142-.544-.142-.544.373.31.373.309-.145.235-.145.234zm2.41-.088-.176.176v-.705l.176.176.177.177zm-6.394-.441h-.132v-.265h.264v.265zm-2.464-.325-.314.105v-.838h.838l-.105.314-.105.314zm1.723-.433-.143.361-.021-.33-.021-.331h-.794v-.529l.199.004.198.004.363.23.363.23zm7.091-.036h-.132v-.264h.264v.264zm-3.82-.264h-.25l-.163-.265-.164-.264h.825v.529zm2.248 0h-.117l-.163-.265-.164-.264h.56v.529zm.794-.265h-.117l-.189-.305-.188-.306.305.189.306.189v.233zm1.127 0h-.281l.334-.403.335-.403.121.12.121.122-.174.282-.175.282zm-6.699-.264h-.132v-.265h.264v.264zm3.704 0h-.132v-.265h.265v.264zm-5.928-.477-.764.112.133-.347.134-.347h.97l.145.235.145.235zm4.076.212h-.132v-.265h.264v.265zm.81-.794h-.413v-.529h.498l.163.265.164.264zm1.836 0h-.132v-.264h.264v.264zm1.455 0h-.498l-.174-.282-.175-.282.16-.159.158-.159v.68l.653-.126.654-.125-.14.227-.14.226zm-5.688-.264h-.397v-.53h.794v.53Zm-1.903-.273-.315.008-.164-.265-.163-.264h1.045l.104-.312.104-.311.33.204.332.205-.479.363-.479.363zm2.945-.521h-.38v-.529h1.089l-.164.264-.163.265zm2.02-.458-.51.133.142-.367.14-.367h.738v.468zm2.935.091-.573.03v-.457h.485l.455-.174.455-.175-.124.373-.125.373zm-6.246-.162h-.117l-.164-.265-.163-.264h.56v.529zm4.996-.265h-.117v-.529h.56l-.163.265-.164.264zm-3.16-.53h-.132v-.264h.264v.265zm2.662 0h-.117l-.189-.305-.189-.305.306.189.305.189v.233zm1.57-.385-.407.518.072-.736.072-.735.258-.012.258-.012.076.23.076.228zm-5.158.121h-.264v-.56l.264.163.265.164v.233zm1.973-.164-.368.141-.157-.253-.156-.253h.808l-.153-.4-.154-.4.41.158.41.157-.137.354-.136.355zm2.128-.63h-.132v-.264h.264v.265zm-3.373-.295-.331-.03-.463-.121-.463-.121v-.649l.317-.318.318-.317h.459l-.168.529-.168.529h.829v.529zm2.58-.763h-.133v-.264h.265v.264zm2.888 0h-.42l.106-.314.104-.314.315-.105.314-.105v.838zm-3.963-.264h-.116v-.825l.269.166.269.166-.153.246-.152.247zm2.63 0h-.132l.164-.265.163-.264h.265l-.164.264-.163.265zm-1.159-.265h-.264v-.529h.529v.529zm-1.206-.794h-.117v-.529h.56l-.163.265-.163.264zm1.339 0h-.397v-.529h.793v.529zm1.19 0h-.353l.177-.176.176-.176.177.176.176.176zm.926 0h-.132v-.264h.265v.264z" style="fill:#000" transform="translate(-55.449 -74.66)"/></svg>