<svg xmlns="http://www.w3.org/2000/svg" xml:space="preserve" width="312.862" height="433.212" viewBox="0 0 82.778 114.621"><path d="M107.25 203.771c-3.115.08-6.296-1.583-8.115-4.025-1.098-1.447-.637-3.048-.198-4.647 1.118-1.176 2.169-2.443 3.75-2.996-1.555-.574 2.883-.653-.675-.74-.752.998-1.14-.962-3.332-.383-1.829-.271-3.909-.023-5.598-.456-3.567-1.035-7.545-1.49-11.013-3.127-3.552-1.454-7.12-2.967-10.202-5.294-2.18.713-1.333-1.613-.051-2.392 1.077-1.372 1.47-2.583 2.706-.634 3.926 2.027 7.765 4.266 12.109 5.276 5.23 1.659 10.755 2.405 16.223 2.517 6.883-.111 13.875-.39 20.516-2.31 1.394-1.034 3.064-.287 4.532-1.12 5.098-1.716 10.358-3.798 13.99-7.932.795-2.059 2.704 1.245 1.11 1.654.234-2.574-.43.424.084 1.622-3.544 3.311-7.644 6.072-12.322 7.494-6.813 2.488-13.955 3.88-21.142 4.74 2.001.66 4.001 1.303 5.282 3.091 1.026 1.075 1.59 2.948 1.271 4.393-.797 3.475-4.729 4.804-7.874 5.29zm1.644-1.734c2.448-.33 5.382-1.789 5.887-4.387-2.305.125-4.571.613-6.88.592.377 1.05-.909 4.58.993 3.795m-2.547-.091c.292-.652 1.077-4.072-.514-3.615-.087 1.207.454 1.174-.1 2.28 1.315.635-1.592.336.614 1.335m-5.677-3.528c.3-1.3-.698.431 0 0m13.516-1.291c1.049-.6-.963-2.837-2.103-3.05-1.066-.468-3.819-1.77-3.288.328.876.915-1.696-.994-.885 1.748.04 1.607 3.063.443 4.37.873.634.042 1.28-.018 1.906.1m-4.564-3.119c-.574-.303.547-.33 0 0m-9.063 2.91c1.804-2.447-.853-.784 0 0m6.022 0c.859-1.334-.66-3.035-.254-.22l-.01.22zm-1.987-.264c.574-.303-.547-.33 0 0m.794 0c.574-.303-.547-.33 0 0m.397-.529c1.147-.606-1.095-.66 0 0m-4.249-.53c1.292-.822-.968-.331 0 0m1.206-.793c.574-.303-.547-.33 0 0m3.689-.264c1.15-.618-.79-1.345 0 0m.28-1.059c.574-.303-.547-.33 0 0m1.455 0c.993-.32-1.267-.734 0 0m-5.424 9.79c-.573-.303.548-.33 0 0m-10.583-.265c-.574-.303.548-.33 0 0m9.525 0c-.574-.303.548-.33 0 0m-5.122-4.388c-1.757-.419.766-3.432.227-.477-.084.155.163.493-.227.477m-4.932-1.168c-.574-.303.547-.33 0 0m-.12-.815c-1.799-.132 1.967-.774.828.17-.332-.12-.635-.944-.827-.17m5.94.286c-.573-.303.548-.33 0 0m.959-1.189c-.693 2.911-.989-2.353-.561-.367.384-.917 1.697-1.512.56.367m-.958.66c-.574-.303.547-.33 0 0m-1.28-.618c-.655.292.339-1.185 0 0m1.06-.793c-.656.291.337-1.186 0 0m-1.345-.706c-1.613-1.333 2.966-.829 0 0m2.143-.42c-1.596 1.286.646-1.971.032-.043zm.959.42c-.031-1.327 2.22-1.584 0 0m-8.946-.265c-.573-.303.548-.33 0 0m7.343-1.168c-1.357-.357 2.285-2.236.99-.387-.334.122-.676.218-.99.387m3.59-.155c-1.625-.964-.174-1.86 0 0m-7.345-1.058c-1.96-.817 1.329-.701 0 0m-4.514-.529c-3.051.455 2.346-.74 0 0m-1.323-.265c-1.225-.74 1.035-.361 0 0m11.525-6.879c-1.292-.811.723-.741 0 0m2.763-1.852c-3.052.456 2.346-.74 0 0m-3.704-1.852c-1.125-.148-2.286-1.811-.147-.918.173.14.811 1.047.147.918m7.82-.53c-1.419-1.009.433-.474 0 0m-2.729-1.64c-2.204.836-2.338-1.706-2.18-3.274.286-1.416 3.807-1.247 3.969-.34-.353 1.362.785 4.2-1.548 3.602zm4.434.053c-1.015-.32-.484-3.619-.114-4.365 1.185.457.292 3.067.664 4.365h-.283zm-16.04-.264c-2.307.729-1.278-2.071-1.394-3.39-.798-2.154-2.435-.534-1.877 1.24 1.542 1.689.591 1.866-1.549 1.281-2.256.207-1.98-2.05-1.894-3.606-.426-2.086 2.592-.568 3.842-.693 1.719.651 1.891-.362 3.265.67 2.009-.32 1.023 2.611 1.08 3.896.277 1.08-.92.424-1.473.602m-.298-2.39c2.488-.777-1.657-.631-.161-.002zm6.019 2.39c-2.431.719-2.141-1.012-2.256-2.811-.649-2.05 2.03-1.322 3.215-1.49 2.09.097.81 2.66 1.158 4.034-.11.61-1.54.1-2.117.267m14.805-.056c-2.292.86-2.284-1.281-2.105-2.92-.254-1.816 2.628-1.032 3.837-1.257-.048.904.64 3.856-.566 4.126zm5.422-.209c-2.066.539-1.396-2.218-1.225-3.43.347-1.22 3.983-1.577 3.153.48.248 1.537.17 3.35-1.928 2.95m.326-1.856c2.131-.485-.53-2.345-.217.004zm4.567.963c-2.014.681-.633-2.619-1.043-3.818.998-.231 3.998-1.528 3.44.491.31 1.798-.03 3.42-2.193 3.295zm.535-1.488c2.379-1.634-1.417-1.423 0 0m-48.012.794c-.574-.303.547-.33 0 0m-2.881-.53c-1.166-.647-3.734-1.422-2.734-3.06.198-1.415-.55-3.75.213-4.612 1.213 1.1 3.296 1.668 3.072 3.648.062 1.191.354 3.376-.551 4.025m54.9-.264c-.494-.778-1.356-3.821.368-3.939 1.763-.533 3.132-.46 2.462 1.705.187 2.045-1.3 1.877-2.83 2.234m12.133-1.054c-1.975 1.536-.676-2.265-1.042-3.352-.067-1.187 2.265-2.576 2.639-2.499-.312 1.937.976 5.116-1.597 5.851m.67-3.709c.574-.302-.547-.33 0 0m-33.961 3.55c-2.03-.35 1.145-1.967 0 0m-4.412-.898c-1.67 1.807-1.171-.683-1.095-1.697-.48-1.06 2.228-2.211-.616-1.157-.724.638.154 2.486-1.487 2.319-1.012.144.414-2.371-.566-3.515-1.038.06-1.737-2.791-2.822-1.89-1.817.698-.765-1.43-.039-2.07-.658-2.591-.353-.297-.847-.039-1.305-1.325-1.1 2.457-2.208-.192-.816-2.888-.304 1.519-1.567.232-.532.133-3.414-.185-1.94 1.233.577.546 1.832 2.406.384 1.365-1.943-.68-1.105.18-1.097-1.21-1.768.478-2.139-2.592.057-1.587-.143-2.223-2.771.47-3.574-.849-1.564 1.223 1.94 1.254-.734 2.173.607-1.161-1.081-1.72-1.801-2.903-1.258-.98.026 1.839-.966 1.274 1.03-.107 2.184 2.687.492 1.404-1.747-2.379-.693 1.854-1.644-.245-.996-1.165.098-3.348-2.174-3.234-1.126-.71-2.758.268-2.589-1.853-1.335 1.765-.69-1.813-1.839-1-.194 2.624-.746 2.074-1.217 1.265-1.672 1.805 1.604 1.268.926 3.274-.37.96.835 4.485-.765 3.571-1.515-.817-2.946-2.01-2.41-3.9-.977-2.732 1.456-1.691 1.315-2.426-.108-.39-.049-.818.684-.94-1.267-1.314-2.871-.715-2.379-1.695.036-2.167-.338-2.749-.445-.794-2.458.328.212-2.144-.498-3.471-1.066.18.02-1.366-1.323-2.44.213-1.09-.717-4.926 1.182-3.206 2.64 1.623-.872-.78-.689-1.974-.488-2.798-.244-5.793-1.053-8.488 1.4 1.008 2.921 1.475 1.405-.737-.938-1.818-2.346-3.46-3.221-5.235-.06-6.537-.508-13.106-.322-19.623.652-2.048 2.701-3.44 4.107-5.013 2.515-1.508 5.046-3.42 7.984-3.841-1.225-.346-2.732.275-1.795-1.617-1.726.672.315-1.054-1.084-1.77 2.384-1.317-1.474-.512-2.43-.24-2.653.653.832-1.01 1.791-1.26 1.893-.389 1.568-2.384 1.93-2.626 1.182-.832 2.875.097 4.234.245-1.03-1.542-3.988-.603-.876-1.915 1.654-1.46 1.985-.092 3.76-.294 3.155-.197-3.223-.493-.354-1.182 2.319-.62 4.73-1.741 7.032-1.908-1.005.962-3.32 1.443-4.634 2.545-1.523 1.402-3.801 1.791-4.612 3.87-1.033 2.243-.161 4.864 1.597 6.517 1.573 1.573 3.707 2.684 5.78 3.486 6.022 2.044 12.413 2.988 18.758 3.113 5.005-.15 10.039-.004 14.94-1.199 3.883-.989 8.02-2.093 10.833-5.148 1.817-1.173 1.43-3.662 1.197-5.44-1.117-1.676-2.255-3.657-4.342-4.184.425-1.043 2.83.718 4.103.6 2.295.232-.997.37-1.5.213.993 2.015 2.84.391 4.347.341 1.164.09 3.146 2.12.957.727-2.423.075-1.923 1.567.253 1.446 3.287.29 5.839 2.462 7.999 4.773-.581 1.485 1.493 2.658 2.011 4.014.417 5.692.046 11.465.101 17.187-.318 2.865-.166 5.93-.769 8.673-1.3 1.703-1.485 4.25-3.396 5.567-.327 1.211-1.61 1.159-2.975 2.209-5.074 3.465-11.168 5.092-17.132 6.265-8.332 1.4-16.804 1.683-25.224 1.074-4.518-.094-8.948-1.222-13.375-1.927-2.175.185 1.437 1.09 2.173 1.298 4.566 1.42 9.317 1.839 14.076 1.904 4.88.303 9.772.184 14.659.244-.873 1.679-2.548-.658-1.992.869-1.685.937.72 2.103-.984 2.53-1.841.558.988 1.262.52 3.008 2.116.02 1.227.225-.085 1.25.411 1.755-3.555 1.305-1.163 1.859 1.537 2.187-2.268.32-.53 2.35.567 1.544-1.11 1.504-1.388 1.986 1.439-.835.344 2.896 1.26 2.322 2.667-.602-.388 1.605-1.284-.136-1.162-1.742-.604.588.288 1.163-.803-.002-2.77-1.373-1.264.921 1.034 1.73-.174 1.956-.852.888-.327-1.073-2.143-3.663-1.422-1.325 1.68 1.625-1.394 2.013 1.157 1.854.6 1.127.823 2.786-.532 1.372-.961-.249-1.49-1.513-3.04.478 1.926-.295 2.38-.788 1.033 1.346-.786.078-1.576-.11-2.364.778m-.403-.006c1.96-.817-1.329-.701 0 0m.677-1.323c.573-.302-.548-.33 0 0m1.058-.264c.574-.303-.548-.33 0 0m-3.526-.7c-.127-1.31 2.602-2.477.194-2.135-1.27.475-1.347-1.907-1.241.23 3.477-.046-1.968 1.673 1.047 1.905m3.526-.358c.574-.303-.548-.33 0 0m-.91-1.588c1.134-1.21-2.434-.57-.416-.269.15.07.109.481.416.269m.778-.661c1.252-1.262-1.267-.07 0 0m-1.72-.926c.573-.303-.548-.33 0 0m-3.83-.265c.393-.808.155-2.386-1.254-2.218-1.136.634 1.089 1.436 1.254 2.218m8.063-1.058c.574-.303-.547-.33 0 0m-6.498-.53c1.292-.822-.968-.331 0 0m7.197-.155c1.178-1.995-1.988-.36 0 0m-16.913-1.198c1.796-.9-2.947-.896-.647-.081.207.084.431.056.647.08m3.539.03c1-.304 2.028-2.613.21-1.134-.307.23-1.235 1.285-.21 1.135m14.94 0c1.207-1.05-1.665-.726 0 0m-22.82-.793c-.205-1.125-2.21-1.007 0 0m1.968-.004c1.027-.986-2.375-.468 0 0m4.093.004c.903-1.338-.908-3.085-.52-.817.197.213.11.927.52.817m14.627 0c3.052.455-2.346-.74 0 0m-10.54-.794c1.347-1.443-1.72-.6 0 0m13.602 0c1.376-.784-1.555-1.517-.133 0zm-20.26-.265c.992-.32-1.268-.734 0 0m-1.098-.665c-.166-1.664-1.146.009 0 0m1.627-.393c3.053.456-2.346-.74 0 0m3.49-.06c1.55-1.212-1.944-.9-.046.014zm5.124.06c.85-1.39-1.147-.562 0 0m-3.41-.353c.299-1.3-.698.431 0 0m-12.48-.176c.573-.303-.548-.33 0 0m1.565 0c2.226-1.357-1.665-.632 0 0m6.621 0c1.15-.618-.789-1.345 0 0m18.272-1.323c.574-.303-.547-.33 0 0m-34.956-.265c1.02-1.464-.51-1.176 0 0m2.81 0c1.146-.605-1.096-.66 0 0m8.516-.264c.804-.443-1.32-1.429-.258 0zm11.21 0c1.452-.312-1.715-.892 0 0m-17.875-.265c1.21-.94-.951-.821 0 0m-4.66-.794c.988-1.56-.661-1.75 0 0m36.395-.264c1.291-.823-.969-.332 0 0m1.113-.265c2.539-1.098-2.207-1.873-.224 0zm-39.38-1.614c.343-1.09-2.94-.235 0 0m38.257-.124c-.174-1.506-1.674-.013 0 0m.29-.908c1.147-.605-1.095-.66 0 0m-15.743-.529c.574-.303-.547-.33 0 0m1.323-1.323c.574-.303-.547-.33 0 0m13.23-.529c.573-.303-.548-.33 0 0m1.13-1.323c1.463-.256-1.05-1.709-.022-.441.345.16-.8.595.022.441m1.647-.378c1.9-.639-1.86-.648 0 0m-4.1-6.787c2.953-.636-.042.022-1.374-.554-1.109-.338-3.039-1.29-3.477-1.25-.199-.433-2.504-1.082-2.161-2.672-1.14.465 1.225 2.631 2.21 3.081 1.448.783 3.156 1.317 4.801 1.395m2.328-.249c2.092-.243 2.441-1.658.171-.3-.255.196-1.222.37-.171.3m-2.36-.588c2.1-.042 1.38-2.459 1.487-3.868 1.546.13 4.022-.495 4.984.107-.422 2.457 1.06-1.297.174-2.264-.911-1.149-3.332-.302-4.847-.652-.293-1.113.542-3.643-1.502-3.842-1.927.29-1.411 2.584-1.455 4.04l-5.302-.255c-.7 1.648.245 3.362 2.161 2.756 1.474.169 3.932-.618 3.14 1.75-.018.9-.224 2.474 1.16 2.228m4.35-.729c2.024-1.304 1.051-1.655-.218 0zm1.735-.53c.823-.872.156-.335 0 0m-11.578-.528c.13-.566-1.811-1.568 0 0m12.42 0c.547-.355-1.533-1.183 0 0m-14.288-2.117c.548-.355-1.532-1.183 0 0m-.421-.794c.736-.656-.97-1.354 0 0m16.085-1.213c-.088-1.827-.902-3.819-2.546-4.835-2.354-1.724-5.575-2.308-8.394-1.447-1.302.673-3.099 1.353-3.784 2.701.99-.481 2.565-2.082 4.164-1.656 3.029 0 6.583-.124 8.71 2.402 1.322.166 1.761 3.963 1.85 2.835m-15.15-2.755c.573-.303-.548-.33 0 0m-16.008-10.716c.967-3.16-1.026 1.646 0 0m17.505-1.19c.65-2.199 1.307-4.399 1.616-6.69-1.576.638-.195-2.416 1.44-1.51 2.569-.227 5.376.068 7.796-.486.395-.789-2.716.273-3.728.018-1.946-.107-4.168.614-5.934-.03-2.195-1.151-1.989 1.527-1.747 3.053.677 2.173.142 4.565.286 6.835zm.09-6.88c-.574-.303.547-.33 0 0m16.478 7.938c.1-1.659-.014-3.984-.466-5.812-.453-1.482-.773-3.031-1.863-4.2 2.68-.927 5.623-1.02 8.217-2.196-.655-.879-2.478.788-3.756.652-2.005.361-3.988 1.06-6.043.972.661 2.602 2.928 4.668 2.92 7.47.351.975.46 2.366.99 3.114m-33.42-1.522c.714-.581.165-2.788.75-2.19 1.797-2.1-.668-.97.78-2.23 1.527-1.713 2.747-3.74 3.945-5.695-3.058-.212-3.54 3.358-4.746 5.419-.41 1.759-.865 3.509-1.163 5.292zm-12.69-3.857c.683-1.442 1.006-3.071 2.355-4.146 1.505-2.18 4.194-3.189 5.934-5.052-.742-.717-2.722 1.173-3.89 1.52-2.23 2.06-4.418 4.618-4.646 7.81-.377 1.196-.138.447.248-.132m43.904.351c1.149-.617-.79-1.344 0 0m14.567-.793c.574-.303-.547-.33 0 0m-.256-.582c.142-2.675-1.68-4.962-3.587-6.722 1.72-.52 3.245-1.834 5.034-1.957-.018-2.006-2.465.856-3.628.81-.77.892-4.498.532-2.487 1.83.923 1.307 3.014 2.162 3.204 3.431.264.821 1 2.121 1.464 2.608m-54.28-3.652c1.894-1.057-.486-.903 0 0m14.32-.264c.573-.303-.548-.33 0 0m49.31-1.73c-1.398-2.26-3.799-4.6-6.57-5.474-2.152.87.853.843 1.541 1.791 1.88.886 3.397 2.789 5.029 3.683m-17.56-.916c.573-.303-.548-.33 0 0m.661-.287c3.028-.784-.652-.459 0 0m1.529-.507c1.446-.42 3.085-1.198 4.292-1.949-1.276.332-3.204 1.189-4.586 1.95h.283zm4.689-2.116c.573-.303-.548-.33 0 0m1.855-1.256c1.365-.848 2.644-2.495 2.456-4.168-.25 1.91-1.819 3.065-2.983 4.452zm-52.08-1.39c-.14-1.26-2.2-2.744 0 0m55.893-.528c1.868-.17 2.37-.893.03-1.214-.221.008-.502 2.413-.03 1.214m1.211.263c.574-.303-.548-.33 0 0m2.117 0c.573-.303-.548-.33 0 0m3.571 0c.993-.32-1.267-.734 0 0m-4.35-.264c.547-.356-1.531-1.182 0 0m3.705-.265c.548-.354-1.532-1.183 0 0m-.876-.54c.143-.464-3.28-1.862-.82-2.781 1.898-.466-1.69-1.375-.816.146-.47-1.777-1.303-.38-2.982-.623.342-.219-.285-1.645-1.258.11 2.401.41-.725 1.986 1.98 1.66 1.385.313 2.641.906 3.896 1.488m-2.167-1.577c-.428-1.244-.153-.085-1.993-1.017 1.034-.565 3.15-.334 1.993 1.017m5.607 1.573c.344-1.076-2.714-2.545-.443-.325.168.07.172.448.443.325m-65.815-.514c.23-1.479-.253-3.323.648-4.763-1.321.553-1.146 3.11-.769 4.491l.054.272zm-1.344-2.382c-.092-.885 1.561-3.858-.244-2.513.053.849-.308 5.237.059 3.402zm62.992 1.588c.573-.303-.548-.33 0 0m2.132-.53c.547-.355-1.532-1.181 0 0m-.794-.528c.703-.842-1.171-.703 0 0m-7.424-1.059c.574-.303-.547-.33 0 0m.194-1.085c.542-2.26-2.216-1.112-.222.6zm-58.8-.502c3.053.455-2.345-.74 0 0m3.012-2.91c.823-.874.155-.335 0 0m.93 0c2.06-1.563-.937-.408 0 0m24.502 77.787c-.574-.303.547-.33 0 0m.529 0c-.574-.303.547-.33 0 0m1.587-.53c-.573-.302.548-.33 0 0m5.837 0c-1.292-.81.723-.74 0 0m-14.551-.264c-2.464-.983 1.094-2.104.368-.03-.055.131-.251.01-.368.03m-19.067-.264c-.574-.303.547-.33 0 0m28.03-.265c-1.486-.61 1.823-.666.098 0zm2.132-.53c-.573-.302.548-.33 0 0m-29.897-.264c-.574-.303.547-.33 0 0m17.197 0c-1.323-.133 1.437-.788.114 0zm13.627-.264c-1.97.224 1.903-2.091.03-.016zm-20.514-.53c-1.738-1.01 1.325-.848 0 0m4.374 0c-1.147-.605 1.095-.66 0 0m20.24-.264c-.573-.303.548-.33 0 0m-29.78-.265c-.76-.24 1.032-1.148 0 0m-4.455-.264c-1.767-1.179 1.27-1.033 0 0m17.435 0c-2.048-1.216 2.043-1.165 0 0m-9.409-.265c-.702-.842 1.172-.702 0 0m2.1-.077c-2.429-.641 1.803-1.315 0 0m-3.968-.654c-2.479.193-.03-1.243 0 0m.901-.026c-.683.728-.266-1.504 0 0m7.878-.037c-2.632-.974 1.815-.802 0 0m1.82 0c-.702-.842 1.172-.702 0 0m13.686 0c-1.657-.837 1.112-1.56 0 0m-26.057-.264c-1.998-.792.245-1.651.479-.262-.042.34-.246.265-.48.262m7.395-.004c-.709-1.14-.056-2.564 1.541-2.122 1.556 2.075-1.62-.474-.887 1.405.955.036-.454.75-.654.717m-14.852-.525c-.573-.303.548-.33 0 0m9.42-.133c-2.678.172.626-.78-.255-1.403 1.776-.989 2.96 1.385.58 1.35l-.28.046zm-5.932-.661c-1.463-1.38.696-.967.115 0zm1.54 0c-.574-.303.547-.33 0 0m58.09 0c-.362-.733-.697-3.684.593-4.24 1.973-1.843 1.934.341 1.767 2 .123 1.135-1.515 1.94-2.36 2.24m-62.958-.679c-1.907-.65 1.151-1.778 0 0m1.621-.644c-2.226-.784.512-2.746.374-.4-.149.098-.027.59-.374.4m34.335-.53c-3.052.456 2.346-.74 0 0m-.786-.528c-1.57-.724.849-1.102 0 0m2.903 0c-1.148-.606 1.095-.66 0 0m-26.326-.265c-.574-.303.547-.33 0 0m-11.766-.708c-2.715.998 2.11-2.387.034-.02zm36.504.311c-1.06.214 1.054-1.445.024-.014zm-1.323-.397c-1.225-.74 1.034-.362 0 0m-42.223-1.079c-1.547-.25 1.643-.222 0 0m43.546-.508c-1.225-.74 1.034-.362 0 0m-.545-.794c-.758-.241 1.034-1.148 0 0m27.225-.794c-.573-1.034-.025-2.986.1-4.365 1.579-1.16 3.23-1.434 2.589 1.085.482 1.737-1.55 2.52-2.69 3.28m-26.778-.802c-1.446-.419 2.83-1.336.28.004zm1.686-4.225c-1.226-.74 1.034-.362 0 0m-1.323-1.058c-1.883-.623 1.872-.702.007 0zm2.148-.794c-1.88-.98.951-.418 0 0m31.423-.41c-.415.415-.535-4.175.457-2.747-.203.88.079 2.021-.457 2.747m-81.776-1.322c-.064 3.261-1.055-2.05-.198-1.533.553.318.12 1.031.198 1.533m50.173.938c-.702-.842 1.172-.702 0 0m-.91-.264c-1.225-.74 1.034-.362 0 0m2.117-.836c-2.21-.16 2.226-.213 0 0m-2.778-.487c-.574-.303.547-.33 0 0m1.587 0c-1.323-.133 1.436-.788.114 0zm2.778-.265c-3.052.456 2.346-.74 0 0m-1.704-.793c-1.292-.812.723-.742 0 0m2.658-.072c-.352.172-.089-1.55.16-.16zm-53.754-38.822c-.702-.842 1.172-.703 0 0m.514-.794c-.301-.646 1.15-.834 0 0m38.295-1.058c-1.88-.98.951-.419 0 0m-30.327-4.763c-.573-.303.548-.33 0 0m58.606-.529c-1.058 1.242.996-2.45 0 0m-40.482-1.058c-1.147-.606 1.095-.66 0 0m9.658-.064c-4.613-.008-9.265-1.272-13.268-3.523-1.456-1.128-2.778-2.31-2.078-4.3.824-.206 2-1.945 3.332-2.452 3.078-2.156 7.084-2.292 10.708-2.681.83.333 4.887-.104 3.158.84-2.35-.15-4.65.756-6.818 1.488-1.353 1.439-3.89 1.696-4.692 3.541-.006 2.194 2.137-1.197 3.158-.267 1.144.039 2.173.581 3.32 1.332a21.6 21.6 0 0 0 10.903 1.081c1.41-.538 3.676-.345 4.312-1.07 1.371-.434 2.77-1.513 2.65-3.082-1.892-2.53-5.256-2.508-8.09-3.013-2.728.166-1.072-1.382.749-1.13 4.32.19 8.804.772 12.68 2.75 1.345.89 3 1.905 3.656 3.323-.61.742-2.15-2.377-3.362-1.478.091 1.79-.666-1.437-1.136-.705-2.028-.134-1.78.489-3.204-.26-1.898-1.245-2.658-.231-.328.49 1.755.715 2.602 2.688 4.366 3.4-1.254-2.34.57-.396.366-.147-2.472.729 1.129.893-.438 1.164.435.385-.803 1.245-.616 1.845 2.702-.734-.826 1.007-1.946.669.172 1.076-2.257-.922-3.293.15-1.471.679-2.743.906-4.654.823-3.379.141-6.77.106-10.13.538.725.755 4.063.652.695.674m18.272-2.318c.548-.354-1.533-1.183 0 0m-.81-.264c.574-.303-.547-.33 0 0m1.323 0c.574-.303-.547-.33 0 0m12.463 2.574c-.352.172-.088-1.55.16-.16zm-62.788-1.665c-1.572.545 1.608-1.203 0 0m51.664-1.703c-1.42-1.01.432-.475 0 0m1.042 0c-.573-.303.548-.33 0 0m16.455-1.323c-1.898-1.043-.688-1.086 0 0m-64.741-.794c-3.052.456 2.346-.74 0 0m50.932 0c-.573-.302.548-.33 0 0m-4.895-1.587c-3.051.455 2.346-.74 0 0m1.985-.265c-.574-.303.547-.33 0 0m-27.225-.6c-.352.172-.088-1.55.16-.16zm24.933.002c-2.208.162 2.147-1.079 0 0m2.424.07c-1.225-.74 1.034-.363 0 0m-17.066-.314c-1.185-.186-3.99.285-3.571-1.554.502-2.149 1.702-.661 2.273-1.208.487-1.308.8-4.529 1.689-1.64.035 1.612-.286 3.585 2.009 3.048 2.717-.032-.438 1.636-1.643 1.358zm27.253.026c-3.042-.725.144-.683 0 0m-4.58-.515c-2.17-1.458-.995-.834.745-.976 1.994.294-.379.37-.745.976" style="fill:#000" transform="translate(-63.65 -89.172)"/></svg>