<?xml version="1.0" encoding="UTF-8" standalone="no"?>
<!-- Created with Inkscape (http://www.inkscape.org/) -->

<svg
   width="82.778198mm"
   height="114.62072mm"
   viewBox="0 0 82.778198 114.62072"
   version="1.1"
   id="svg1"
   xml:space="preserve"
   xmlns="http://www.w3.org/2000/svg"
   xmlns:svg="http://www.w3.org/2000/svg"><defs
     id="defs1" /><g
     id="layer1"
     transform="translate(-63.649782,-89.171644)"><path
       style="fill:#000000"
       d="m 107.25087,203.77134 c -3.11597,0.0802 -6.2964,-1.58381 -8.116171,-4.02488 -1.097438,-1.44767 -0.636675,-3.04878 -0.197995,-4.64771 1.118246,-1.17625 2.169106,-2.44323 3.750456,-2.99596 -1.55472,-0.5739 2.88309,-0.65304 -0.67538,-0.73983 -0.75193,0.99851 -1.1391,-0.96232 -3.331668,-0.38322 -1.829041,-0.27117 -3.908799,-0.0226 -5.597697,-0.4561 -3.567586,-1.0346 -7.545551,-1.48948 -11.012921,-3.12654 -3.55231,-1.45457 -7.119632,-2.96687 -10.202962,-5.29404 -2.17902,0.71302 -1.332729,-1.61259 -0.05051,-2.39157 1.077353,-1.3725 1.469316,-2.58301 2.706189,-0.63401 3.926036,2.02653 7.764663,4.26562 12.108685,5.27575 5.230242,1.65853 10.754971,2.40432 16.222774,2.51699 6.88313,-0.11121 13.87517,-0.39092 20.51663,-2.31082 1.39417,-1.03387 3.06392,-0.28645 4.53172,-1.11902 5.09844,-1.71601 10.35795,-3.79823 13.98906,-7.93242 0.79565,-2.05873 2.70469,1.24535 1.11045,1.65397 0.2344,-2.57389 -0.42969,0.42419 0.084,1.62227 -3.54346,3.3108 -7.6432,6.07141 -12.32103,7.49429 -6.81342,2.4878 -13.95576,3.8788 -21.14286,4.73918 2.0018,0.66004 4.00152,1.30309 5.28277,3.09149 1.02552,1.07455 1.58921,2.94823 1.271,4.39307 -0.79714,3.47503 -4.72901,4.80393 -7.87415,5.29013 -0.35014,-0.007 -0.70027,-0.014 -1.05041,-0.021 z m 1.64309,-1.73407 c 2.44761,-0.32978 5.38232,-1.78929 5.88698,-4.38694 -2.30505,0.12467 -4.57102,0.61271 -6.87917,0.59124 0.37609,1.04974 -0.90955,4.58004 0.99219,3.7957 z m -2.54729,-0.0914 c 0.29221,-0.65223 1.07781,-4.07139 -0.51319,-3.61466 -0.087,1.20701 0.45384,1.17355 -0.0996,2.28042 1.31424,0.6347 -1.5924,0.33579 0.61275,1.33424 z m -5.67684,-3.52778 c 0.29978,-1.30039 -0.697485,0.43109 0,0 z m 13.5158,-1.29128 c 1.049,-0.60075 -0.96245,-2.83673 -2.10302,-3.05056 -1.0652,-0.46691 -3.81859,-1.76889 -3.28769,0.32904 0.87619,0.91485 -1.69559,-0.99462 -0.8848,1.74761 0.0393,1.60745 3.06268,0.44357 4.37067,0.87278 0.63324,0.0427 1.27966,-0.018 1.90484,0.10113 z m -4.56407,-3.11844 c -0.57359,-0.30292 0.54753,-0.33001 0,0 z m -9.06285,2.91042 c 1.80424,-2.44737 -0.853046,-0.78472 0,0 z m 6.02205,0 c 0.85915,-1.33515 -0.6599,-3.03531 -0.25396,-0.22019 l -0.009,0.22019 z m -1.98628,-0.26459 c 0.57358,-0.3029 -0.5475,-0.33003 0,0 z m 0.79375,0 c 0.57358,-0.3029 -0.5475,-0.33003 0,0 z m 0.39688,-0.52916 c 1.14717,-0.60583 -1.09504,-0.66006 0,0 z m -4.24895,-0.52917 c 1.29172,-0.82247 -0.96819,-0.33196 0,0 z m 1.20624,-0.79375 c 0.57358,-0.3029 -0.5475,-0.33003 0,0 z m 3.68855,-0.26458 c 1.14942,-0.61749 -0.78904,-1.34468 0,0 z m 0.2802,-1.05834 c 0.57358,-0.3029 -0.5475,-0.33003 0,0 z m 1.45521,0 c 0.99274,-0.32049 -1.26767,-0.73418 0,0 z m -5.42396,9.78959 c -0.57358,-0.30291 0.54751,-0.33005 0,0 z M 92.159065,203.0042 c -0.573588,-0.3029 0.547512,-0.33003 0,0 z m 9.524995,0 c -0.57359,-0.30292 0.54753,-0.33001 0,0 z m -5.122466,-4.38843 c -1.756661,-0.41829 0.766315,-3.43141 0.227679,-0.47638 -0.08422,0.15415 0.162333,0.49272 -0.227679,0.47638 z m -4.931696,-1.16782 c -0.573584,-0.3029 0.547511,-0.33003 0,0 z m -0.119384,-0.81463 c -1.799151,-0.13203 1.966156,-0.77461 0.827478,0.16938 -0.3322,-0.11879 -0.635233,-0.94361 -0.827478,-0.16938 z m 5.940217,0.28547 c -0.573585,-0.30291 0.547512,-0.33005 0,0 z m 0.957868,-1.18868 c -0.692116,2.91112 -0.988229,-2.35329 -0.560993,-0.36759 0.384428,-0.91681 1.697481,-1.51149 0.560993,0.36759 z m -0.957868,0.65951 c -0.573584,-0.3029 0.547511,-0.33003 0,0 z m -1.278819,-0.61736 c -0.655688,0.29179 0.338127,-1.18572 0,0 z m 1.058333,-0.79375 c -0.655688,0.29179 0.338127,-1.18572 0,0 z m -1.344556,-0.70556 c -1.612296,-1.33283 2.966791,-0.82886 0,0 z m 2.143753,-0.41988 c -1.596924,1.28623 0.645804,-1.97122 0.03129,-0.0428 z m 0.958473,0.41988 c -0.03113,-1.32735 2.220435,-1.58403 0,0 z m -8.945517,-0.26458 c -0.573584,-0.3029 0.547511,-0.33003 0,0 z m 7.342609,-1.16855 c -1.357152,-0.35649 2.284906,-2.23583 0.989248,-0.38637 -0.33288,0.1219 -0.675332,0.21793 -0.989248,0.38637 z m 3.590623,-0.15437 c -1.625417,-0.96407 -0.1746,-1.86001 0,0 z m -7.345742,-1.05833 c -1.960204,-0.81735 1.328621,-0.70141 0,0 z m -4.513531,-0.52917 c -3.051792,0.45543 2.345407,-0.74032 0,0 z m -1.322917,-0.26458 c -1.225244,-0.73991 1.034125,-0.36179 0,0 z m 11.524989,-6.87917 c -1.292099,-0.81163 0.723021,-0.74119 0,0 z m 2.762511,-1.85208 c -3.052066,0.45553 2.34557,-0.7404 0,0 z M 98.376773,180.25 c -1.124654,-0.14781 -2.285795,-1.81125 -0.147088,-0.91796 0.173782,0.13986 0.811537,1.04692 0.147088,0.91796 z m 7.820827,-0.52917 c -1.41911,-1.0097 0.43266,-0.4752 0,0 z m -2.72933,-1.64097 c -2.20475,0.83592 -2.33812,-1.70579 -2.18108,-3.27408 0.2871,-1.41549 3.8075,-1.24681 3.96967,-0.33973 -0.35293,1.36218 0.78475,4.20027 -1.5478,3.60234 z m 4.4335,0.0535 c -1.01429,-0.32026 -0.48347,-3.61928 -0.11363,-4.36562 1.18493,0.45714 0.29164,3.06693 0.66422,4.36562 h -0.28323 z m -16.040052,-0.26458 c -2.306913,0.72896 -1.277913,-2.07079 -1.393659,-3.38885 -0.798473,-2.15488 -2.435133,-0.53463 -1.876982,1.23884 1.541804,1.68894 0.591264,1.86622 -1.548738,1.28132 -2.25661,0.20706 -1.98062,-2.04998 -1.894732,-3.60641 -0.425886,-2.08526 2.592699,-0.5673 3.842514,-0.69224 1.718456,0.65053 1.891213,-0.36238 3.264573,0.66934 2.009269,-0.31981 1.023016,2.6114 1.079402,3.89579 0.277837,1.08059 -0.918652,0.42447 -1.472378,0.60221 z m -0.297966,-2.38967 c 2.48839,-0.77736 -1.656388,-0.63134 -0.161187,-0.002 z m 6.019271,2.38967 c -2.431264,0.7189 -2.141509,-1.0117 -2.256137,-2.8112 -0.648777,-2.04889 2.030058,-1.32192 3.214766,-1.48951 2.090688,0.097 0.811028,2.66044 1.158038,4.03347 -0.109783,0.60973 -1.539683,0.0998 -2.116667,0.26724 z m 14.805457,-0.0553 c -2.2927,0.85881 -2.28433,-1.28155 -2.10546,-2.92051 -0.25367,-1.8162 2.62758,-1.03213 3.83737,-1.25721 -0.0483,0.90418 0.63957,3.85657 -0.56686,4.1258 -0.38835,0.0173 -0.7767,0.0346 -1.16505,0.0519 z m 5.42131,-0.20927 c -2.06567,0.53836 -1.39566,-2.21784 -1.22453,-3.42958 0.34641,-1.22157 3.98304,-1.57797 3.15292,0.47882 0.24758,1.53803 0.17034,3.35094 -1.92839,2.95076 z m 0.32618,-1.85614 c 2.13112,-0.48545 -0.53034,-2.3449 -0.21684,0.004 z m 4.56693,0.96327 c -2.01361,0.68078 -0.63255,-2.61908 -1.04279,-3.81844 0.99818,-0.231 3.99801,-1.5279 3.43958,0.49159 0.30955,1.79729 -0.029,3.41951 -2.19302,3.29427 z m 0.5354,-1.48838 c 2.37836,-1.63402 -1.41764,-1.42301 0,0 z m -48.012568,0.79375 c -0.57359,-0.30292 0.547516,-0.33005 0,0 z m -2.880875,-0.52917 c -1.165609,-0.64804 -3.733981,-1.42304 -2.733428,-3.06127 0.197563,-1.41379 -0.550936,-3.75006 0.212939,-4.61165 1.212522,1.10064 3.295502,1.66862 3.07175,3.64816 0.06147,1.19146 0.353701,3.37582 -0.551261,4.02476 z m 54.900773,-0.26458 c -0.49509,-0.77821 -1.35692,-3.82135 0.3676,-3.93861 1.76282,-0.53355 3.13141,-0.45969 2.46131,1.70449 0.18723,2.04511 -1.30014,1.87693 -2.82891,2.23412 z m 12.13271,-1.05382 c -1.97559,1.53552 -0.67641,-2.26495 -1.04238,-3.35216 -0.0673,-1.18689 2.26537,-2.57628 2.63862,-2.49901 -0.31177,1.93667 0.97665,5.11571 -1.59624,5.85117 z m 0.67031,-3.70868 c 0.57359,-0.30293 -0.54754,-0.33003 0,0 z m -33.96206,3.54906 c -2.03001,-0.35019 1.14534,-1.96659 0,0 z m -4.41139,-0.89714 c -1.66982,1.80615 -1.17164,-0.68352 -1.09569,-1.69735 -0.47886,-1.06032 2.22832,-2.21108 -0.615237,-1.15744 -0.724088,0.63833 0.153517,2.48662 -1.487607,2.31944 -1.011953,0.14406 0.41483,-2.37142 -0.565842,-3.51487 -1.037331,0.059 -1.736486,-2.79137 -2.821912,-1.89069 -1.816723,0.69833 -0.764704,-1.42971 -0.03875,-2.06892 -0.658282,-2.59174 -0.353197,-0.29796 -0.847289,-0.0393 -1.30521,-1.32523 -1.100159,2.45714 -2.207515,-0.19227 -0.816294,-2.88845 -0.304737,1.5186 -1.56775,0.23159 -0.531119,0.13335 -3.413294,-0.18422 -1.939302,1.2335 0.576622,0.54604 1.832097,2.40603 0.384049,1.36482 -1.943766,-0.67949 -1.105124,0.17986 -1.097564,-1.20925 -1.768044,0.47748 -2.138439,-2.59237 0.05745,-1.5875 -0.143092,-2.22279 -2.77167,0.4706 -3.573851,-0.84897 -1.564432,1.22302 1.939017,1.25338 -0.733943,2.1725 0.606544,-1.16075 -1.081788,-1.71934 -1.801769,-2.90257 -1.257196,-0.97945 0.02619,1.83866 -0.965961,1.27419 1.02958,-0.10752 2.183949,2.68629 0.492686,1.40416 -1.747422,-2.37911 -0.693765,1.85339 -1.643914,-0.24519 -0.996354,-1.16477 0.09784,-3.34814 -2.174341,-3.23475 -1.126438,-0.70961 -2.758044,0.26842 -2.589058,-1.85209 -1.335149,1.7645 -0.690666,-1.81309 -1.838819,-1.00097 -0.194727,2.62439 -0.746121,2.07409 -1.217119,1.26556 -1.672031,1.8047 1.603451,1.2681 0.926042,3.27422 -0.369973,0.96065 0.834998,4.4847 -0.764718,3.57117 -1.515871,-0.81711 -2.946606,-2.01004 -2.410282,-3.89992 -0.977359,-2.73256 1.455528,-1.69152 1.315254,-2.42664 -0.108508,-0.38958 -0.04912,-0.81789 0.683262,-0.93889 -1.26715,-1.31489 -2.871121,-0.71558 -2.378233,-1.69642 0.03599,-2.16618 -0.338881,-2.74816 -0.445909,-0.79375 -2.458023,0.32851 0.212156,-2.14395 -0.497291,-3.47081 -1.066668,0.18082 0.01949,-1.36625 -1.322916,-2.44003 0.212437,-1.0902 -0.717455,-4.92626 1.182108,-3.20584 2.639296,1.62277 -0.872033,-0.77943 -0.689278,-1.97442 -0.488066,-2.79793 -0.244215,-5.7928 -1.053237,-8.48807 1.400768,1.00839 2.921456,1.47538 1.40512,-0.73687 -0.937973,-1.81745 -2.346434,-3.4606 -3.221369,-5.23482 -0.05957,-6.53688 -0.507865,-13.10589 -0.322112,-19.62249 0.652569,-2.0488 2.701709,-3.44098 4.107674,-5.01381 2.515035,-1.50763 5.046032,-3.41932 7.983792,-3.84064 -1.225192,-0.34611 -2.73224,0.27543 -1.795503,-1.61706 -1.725682,0.67214 0.315877,-1.0541 -1.083756,-1.76977 2.383709,-1.317413 -1.473957,-0.51183 -2.430341,-0.23934 -2.652529,0.65188 0.832924,-1.010843 1.791854,-1.261205 1.892943,-0.38861 1.567427,-2.383735 1.930252,-2.625513 1.181472,-0.83169 2.874136,0.09682 4.233333,0.245112 -1.030492,-1.542182 -3.988121,-0.602734 -0.876389,-1.914876 1.654006,-1.460157 1.985461,-0.09214 3.761353,-0.294517 3.154351,-0.196314 -3.223527,-0.49284 -0.354423,-1.182145 2.318261,-0.620525 4.730382,-1.740823 7.031148,-1.907314 -1.004366,0.961301 -3.318847,1.442614 -4.633556,2.544378 -1.522793,1.402353 -3.801317,1.791274 -4.611948,3.869861 -1.033238,2.243469 -0.161043,4.864609 1.597,6.517099 1.572682,1.57303 3.707317,2.68443 5.780002,3.48658 6.022125,2.0442 12.412934,2.98816 18.757525,3.1129 5.00492,-0.14954 10.03938,-0.004 14.93956,-1.19909 3.88409,-0.98864 8.02022,-2.09297 10.83348,-5.14793 1.81724,-1.17313 1.42958,-3.66235 1.19723,-5.440387 -1.11669,-1.675343 -2.25451,-3.657252 -4.34153,-4.184229 0.42431,-1.042369 2.82979,0.718255 4.10263,0.600453 2.29545,0.231705 -0.99715,0.369141 -1.50089,0.213396 0.99342,2.014124 2.84114,0.390844 4.34789,0.340624 1.16424,0.0902 3.14588,2.120653 0.95684,0.726578 -2.4226,0.0756 -1.92319,1.567839 0.25293,1.446762 3.28678,0.289134 5.8389,2.461153 7.99892,4.772393 -0.58078,1.48495 1.49382,2.65788 2.01145,4.01378 0.41733,5.69294 0.0456,11.46561 0.10123,17.18737 -0.31795,2.86489 -0.16664,5.92927 -0.7692,8.67318 -1.29954,1.70309 -1.4849,4.25027 -3.39574,5.56722 -0.32761,1.21106 -1.60989,1.15843 -2.97512,2.20871 -5.07448,3.46493 -11.16871,5.09236 -17.13229,6.26476 -8.3321,1.40003 -16.8039,1.68374 -25.224348,1.0743 -4.517728,-0.0939 -8.948095,-1.22209 -13.374237,-1.92686 -2.175732,0.18459 1.436087,1.08912 2.172732,1.29734 4.565542,1.42068 9.317202,1.8394 14.076177,1.90428 4.880426,0.3033 9.771626,0.18463 14.658276,0.24421 -0.87249,1.67877 -2.54775,-0.65795 -1.99171,0.8686 -1.6845,0.93741 0.71938,2.10324 -0.98434,2.53071 -1.84089,0.55801 0.98842,1.2615 0.52106,3.00761 2.11552,0.0207 1.22659,0.22504 -0.0856,1.24956 0.41138,1.75558 -3.55479,1.30566 -1.1631,1.85954 1.53712,2.18654 -2.2676,0.32069 -0.53052,2.34995 0.56758,1.54434 -1.10909,1.50373 -1.38771,1.98624 1.43915,-0.83533 0.34441,2.89569 1.25941,2.32154 2.66749,-0.602 -0.38714,1.6052 -1.28299,-0.13604 -1.16227,-1.74125 -0.60459,0.58851 0.28817,1.16321 -0.80369,-0.002 -2.76967,-1.37289 -1.26436,0.92141 1.03454,1.72927 -0.1735,1.95581 -0.85237,0.88739 -0.32634,-1.07322 -2.14254,-3.66258 -1.42133,-1.32451 1.67935,1.62429 -1.39459,2.01255 1.15675,1.85369 0.60068,1.12687 0.82287,2.78574 -0.53194,1.37211 -0.96122,-0.24866 -1.49088,-1.51311 -3.03994,0.47831 1.92569,-0.29485 2.38052,-0.78844 1.03329,1.34615 -0.78616,0.0775 -1.5765,-0.11062 -2.3642,0.7779 z m -0.40363,-0.006 c 1.96021,-0.81734 -1.328594,-0.70142 0,0 z m 0.67708,-1.32292 c 0.57358,-0.3029 -0.5475,-0.33003 0,0 z m 1.05833,-0.26458 c 0.57358,-0.3029 -0.5475,-0.33003 0,0 z m -3.526084,-0.7002 c -0.126415,-1.3093 2.602174,-2.47638 0.193636,-2.13455 -1.268955,0.47499 -1.346348,-1.90675 -1.240575,0.22988 3.476593,-0.0457 -1.967607,1.67312 1.046939,1.90467 z m 3.526084,-0.35813 c 0.57359,-0.30291 -0.54751,-0.33005 0,0 z m -0.91043,-1.5875 c 1.13427,-1.20964 -2.43329,-0.56923 -0.41515,-0.2689 0.14925,0.0701 0.10853,0.48103 0.41515,0.2689 z m 0.77814,-0.66146 c 1.25211,-1.26156 -1.26688,-0.0696 0,0 z m -1.71979,-0.92604 c 0.57359,-0.30291 -0.54751,-0.33005 0,0 z m -3.830372,-0.26459 c 0.393397,-0.80827 0.155283,-2.38643 -1.253849,-2.21805 -1.135735,0.63419 1.088922,1.43596 1.253849,2.21805 z m 8.063702,-1.05833 c 0.57358,-0.3029 -0.5475,-0.33003 0,0 z m -6.497905,-0.52917 c 1.291705,-0.82247 -0.968185,-0.33194 0,0 z m 7.196265,-0.1551 c 1.17858,-1.99489 -1.98786,-0.36099 0,0 z m -16.912391,-1.19851 c 1.795596,-0.90067 -2.946902,-0.89566 -0.646917,-0.0808 0.206365,0.0839 0.430922,0.0561 0.646917,0.0808 z m 3.538803,0.0307 c 0.999655,-0.30456 2.027825,-2.61306 0.210729,-1.13425 -0.307577,0.23056 -1.235987,1.28498 -0.210729,1.13425 z m 14.939798,0 c 1.20682,-1.05058 -1.66458,-0.72691 0,0 z M 84.833699,163.3168 c -0.205327,-1.12493 -2.210286,-1.00655 0,0 z m 1.967554,-0.004 c 1.027083,-0.98535 -2.37575,-0.46823 0,0 z m 4.092737,0.004 c 0.902823,-1.33773 -0.908069,-3.08438 -0.520089,-0.81658 0.196756,0.21298 0.110968,0.92645 0.520089,0.81658 z m 14.62653,0 c 3.05207,0.45553 -2.34557,-0.7404 0,0 z m -10.539233,-0.79375 c 1.346356,-1.44268 -1.720481,-0.60021 0,0 z m 13.601343,0 c 1.37633,-0.78371 -1.5549,-1.51669 -0.13294,0 z m -20.260023,-0.26459 c 0.992752,-0.32047 -1.267659,-0.7342 0,0 z m -1.098021,-0.66587 c -0.165552,-1.66395 -1.145991,0.009 0,0 z M 88.851773,161.2 c 3.052832,0.45569 -2.345865,-0.74047 0,0 z m 3.489332,-0.0607 c 1.551409,-1.21143 -1.942789,-0.89905 -0.04536,0.0151 z m 5.125241,0.0607 c 0.849917,-1.39033 -1.147743,-0.56173 0,0 z m -3.411101,-0.35278 c 0.299776,-1.30042 -0.697483,0.43108 0,0 z m -12.479513,-0.17639 c 0.573588,-0.3029 -0.547512,-0.33003 0,0 z m 1.565451,0 c 2.225737,-1.35712 -1.665531,-0.63196 0,0 z m 6.621017,0 c 1.149419,-0.61749 -0.789032,-1.34469 0,0 z m 18.27186,-1.32291 c 0.57362,-0.3029 -0.54752,-0.33006 0,0 z m -34.955853,-0.26459 c 1.020295,-1.46436 -0.510747,-1.17678 0,0 z m 2.808984,0 c 1.147172,-0.60581 -1.095023,-0.66006 0,0 z m 8.517022,-0.26458 c 0.803973,-0.44302 -1.320328,-1.42834 -0.258324,0 z m 11.21005,0 c 1.451665,-0.31142 -1.715528,-0.89218 0,0 z m -17.874989,-0.26458 c 1.209847,-0.93943 -0.95139,-0.82125 0,0 z m -4.661067,-0.79375 c 0.988771,-1.5612 -0.660452,-1.751 0,0 z m 36.395453,-0.26459 c 1.29171,-0.82247 -0.96819,-0.33194 0,0 z m 1.11311,-0.26458 c 2.53877,-1.09796 -2.20658,-1.87285 -0.22338,0 z m -39.380318,-1.61387 c 0.343621,-1.09121 -2.939795,-0.2355 0,0 z m 38.257518,-0.12472 c -0.174,-1.50605 -1.67434,-0.013 0,0 z m 0.28989,-0.90724 c 1.14717,-0.60583 -1.09504,-0.66006 0,0 z m -15.742712,-0.52917 c 0.573588,-0.3029 -0.547512,-0.33003 0,0 z m 1.322917,-1.32292 c 0.573584,-0.3029 -0.547511,-0.33003 0,0 z m 13.229165,-0.52916 c 0.57359,-0.30291 -0.54751,-0.33005 0,0 z m 1.13091,-1.32292 c 1.46296,-0.25608 -1.0509,-1.70922 -0.0221,-0.44121 0.34459,0.16053 -0.80022,0.59536 0.0221,0.44121 z m 1.64722,-0.37798 c 1.89896,-0.63886 -1.86113,-0.64846 0,0 z m -4.10105,-6.78723 c 2.95333,-0.63596 -0.0409,0.0222 -1.37349,-0.55367 -1.10871,-0.33851 -3.03886,-1.28943 -3.47687,-1.25032 -0.19871,-0.43306 -2.503616,-1.08205 -2.16109,-2.67251 -1.140073,0.46554 1.22506,2.63145 2.21048,3.08147 1.44756,0.78312 3.15616,1.31689 4.80097,1.39503 z m 2.32825,-0.24893 c 2.09198,-0.24263 2.44165,-1.65787 0.17186,-0.29963 -0.25564,0.19529 -1.2225,0.36936 -0.17186,0.29963 z m -2.36047,-0.58854 c 2.1004,-0.0413 1.38104,-2.45854 1.48743,-3.86728 1.5461,0.12889 4.02245,-0.49563 4.98445,0.10633 -0.42221,2.45747 1.06012,-1.29712 0.17371,-2.26331 -0.91116,-1.14904 -3.33164,-0.30191 -4.84643,-0.65259 -0.29301,-1.11258 0.54215,-3.64319 -1.50234,-3.84137 -1.92659,0.2889 -1.41137,2.58357 -1.45521,4.0395 -1.76722,-0.0851 -3.53445,-0.1702 -5.30167,-0.2553 -0.70008,1.64843 0.24477,3.3624 2.16095,2.75666 1.47435,0.16839 3.93207,-0.61797 3.14072,1.75013 -0.0191,0.89875 -0.22488,2.47388 1.15839,2.22723 z m 4.35173,-0.72857 c 2.02349,-1.30369 1.05056,-1.6552 -0.21846,0 z m 1.73468,-0.52917 c 0.82237,-0.87238 0.15508,-0.33538 0,0 z m -11.57804,-0.52916 c 0.12888,-0.56589 -1.811508,-1.56766 0,0 z m 12.41864,0 c 0.54762,-0.35486 -1.5319,-1.18269 0,0 z M 99.847596,138.975 c 0.547954,-0.35451 -1.532044,-1.18298 0,0 z m -0.420794,-0.79375 c 0.736618,-0.65634 -0.970692,-1.35431 0,0 z m 16.085668,-1.21299 c -0.088,-1.82708 -0.90231,-3.81899 -2.54651,-4.83539 -2.35359,-1.72418 -5.57465,-2.30822 -8.39368,-1.44717 -1.30194,0.67342 -3.09893,1.3529 -3.78393,2.70135 0.99044,-0.48137 2.56481,-2.08208 4.16396,-1.65651 3.02829,6.3e-4 6.58289,-0.12362 8.71009,2.40239 1.32195,0.16644 1.76107,3.96279 1.85007,2.83533 z m -15.15132,-2.75576 c 0.57358,-0.3029 -0.547505,-0.33003 0,0 z M 84.353857,123.49688 c 0.966722,-3.16048 -1.026156,1.64594 0,0 z m 17.504843,-1.19063 c 0.65084,-2.19777 1.30705,-4.39828 1.61625,-6.68975 -1.57639,0.63877 -0.19534,-2.41596 1.43948,-1.50997 2.56938,-0.2269 5.37609,0.0681 7.79694,-0.48541 0.39479,-0.78891 -2.71617,0.27289 -3.72883,0.0178 -1.94569,-0.1066 -4.1675,0.61449 -5.93394,-0.0294 -2.19439,-1.15156 -1.98831,1.52635 -1.74614,3.05288 0.67678,2.17253 0.14115,4.56476 0.2854,6.83445 0.0903,-0.39688 0.18056,-0.79375 0.27084,-1.19063 z m 0.09,-6.87916 c -0.57359,-0.30291 0.54751,-0.33005 0,0 z m 16.47808,7.93749 c 0.0993,-1.65853 -0.0141,-3.98376 -0.46537,-5.81163 -0.45373,-1.48244 -0.77315,-3.03116 -1.86302,-4.19967 2.67995,-0.92743 5.6226,-1.02041 8.21623,-2.19609 -0.65488,-0.87886 -2.47801,0.78784 -3.75578,0.6523 -2.00503,0.36064 -3.98801,1.05867 -6.04243,0.97176 0.66108,2.60208 2.92778,4.6673 2.91874,7.47049 0.35191,0.97474 0.45995,2.36571 0.99163,3.11284 z m -33.419063,-1.52181 c 0.713765,-0.58122 0.164471,-2.78772 0.749076,-2.19058 1.796751,-2.0983 -0.667756,-0.96935 0.779902,-2.23007 1.527542,-1.71219 2.747423,-3.74004 3.944893,-5.69379 -3.057095,-0.2125 -3.539527,3.35769 -4.745864,5.41853 -0.410255,1.7591 -0.864329,3.50888 -1.163215,5.29166 0.145069,-0.19858 0.290139,-0.39717 0.435208,-0.59575 z m -12.690083,-3.85634 c 0.682261,-1.44246 1.005646,-3.07155 2.354435,-4.14682 1.505385,-2.17893 4.193875,-3.18842 5.933564,-5.05197 -0.742052,-0.71695 -2.721418,1.17379 -3.889211,1.52025 -2.230578,2.06095 -4.418353,4.61858 -4.645972,7.80925 -0.377065,1.19667 -0.138568,0.44754 0.247184,-0.13071 z m 43.902946,0.35107 c 1.1494,-0.61745 -0.78901,-1.34472 0,0 z m 14.5677,-0.79375 c 0.57358,-0.3029 -0.5475,-0.33003 0,0 z m -0.2561,-0.58174 c 0.14229,-2.67488 -1.68003,-4.96235 -3.58753,-6.72157 1.7195,-0.52107 3.24521,-1.83419 5.03422,-1.95707 -0.0175,-2.00685 -2.46535,0.85592 -3.62826,0.81041 -0.76942,0.89075 -4.49808,0.53126 -2.48644,1.82886 0.92308,1.3075 3.01402,2.16247 3.2043,3.43147 0.26312,0.82127 0.99875,2.12127 1.46371,2.6079 z m -54.280461,-3.65159 c 1.894486,-1.05695 -0.485526,-0.90337 0,0 z m 14.319896,-0.26458 c 0.573593,-0.30291 -0.547516,-0.33005 0,0 z m 49.309995,-1.72956 c -1.39795,-2.26107 -3.79827,-4.60054 -6.57027,-5.47443 -2.15102,0.86969 0.85356,0.84319 1.54194,1.79119 1.88063,0.8858 3.39709,2.78872 5.02833,3.68324 z m -17.56,-0.91628 c 0.57358,-0.3029 -0.5475,-0.33003 0,0 z m 0.66146,-0.28723 c 3.02794,-0.78382 -0.65204,-0.45857 0,0 z m 1.52875,-0.50652 c 1.4457,-0.41974 3.08502,-1.19874 4.29208,-1.94913 -1.27607,0.33198 -3.20361,1.18866 -4.58611,1.94907 l 0.28323,6e-5 z m 4.68896,-2.11666 c 0.57359,-0.30291 -0.54751,-0.33005 0,0 z m 1.85484,-1.25539 c 1.36536,-0.84846 2.64408,-2.49537 2.45678,-4.16857 -0.25058,1.9109 -1.81897,3.06552 -2.98317,4.45209 0.17546,-0.0945 0.35093,-0.18901 0.52639,-0.28352 z m -52.080283,-1.39045 c -0.139335,-1.25926 -2.19932,-2.744 0,0 z m 55.893513,-0.52746 c 1.86795,-0.17044 2.37086,-0.8937 0.0299,-1.2146 -0.22078,0.008 -0.5021,2.41304 -0.0299,1.2146 z m 1.2111,0.26288 c 0.57359,-0.30292 -0.54753,-0.33001 0,0 z m 2.11666,0 c 0.57358,-0.3029 -0.5475,-0.33003 0,0 z m 3.57188,0 c 0.99274,-0.32049 -1.26768,-0.73419 0,0 z m -4.35001,-0.26458 c 0.54679,-0.3558 -1.53146,-1.18189 0,0 z m 3.70416,-0.26459 c 0.54813,-0.35431 -1.53212,-1.18315 0,0 z m -0.87551,-0.53976 c 0.14264,-0.46468 -3.27973,-1.86195 -0.82038,-2.78132 1.89867,-0.46564 -1.69023,-1.374488 -0.81543,0.14615 -0.46966,-1.776592 -1.30356,-0.38098 -2.98257,-0.62267 0.34211,-0.21897 -0.28515,-1.645417 -1.25816,0.1096 2.40149,0.40922 -0.72458,1.98621 1.98038,1.65966 1.38515,0.31364 2.6412,0.90667 3.89616,1.48858 z m -2.16719,-1.5769 c -0.42831,-1.24443 -0.15278,-0.0849 -1.99251,-1.01693 1.03343,-0.56567 3.1488,-0.33472 1.99251,1.01693 z m 5.60678,1.57286 c 0.34451,-1.07575 -2.7135,-2.54555 -0.44296,-0.32472 0.16795,0.0701 0.17255,0.44751 0.44296,0.32472 z m -65.815104,-0.51453 c 0.229686,-1.47863 -0.252971,-3.322423 0.648258,-4.762501 -1.320858,0.553302 -1.145778,3.109711 -0.768776,4.491141 l 0.05427,0.27136 z m -1.34313,-2.38125 c -0.09296,-0.88578 1.560776,-3.857961 -0.24437,-2.513445 0.05297,0.848981 -0.308175,5.237245 0.05892,3.401585 0.06182,-0.29605 0.123635,-0.59209 0.185453,-0.88814 z m 62.991044,1.5875 c 0.57358,-0.3029 -0.5475,-0.33003 0,0 z m 2.13228,-0.52917 c 0.54693,-0.35567 -1.53152,-1.18197 0,0 z m -0.79375,-0.52916 c 0.70254,-0.84187 -1.17143,-0.70258 0,0 z m -7.42395,-1.05834 c 0.57358,-0.302902 -0.5475,-0.330034 0,0 z m 0.19416,-1.085598 c 0.54204,-2.260329 -2.21609,-1.111599 -0.22179,0.599644 0.0739,-0.199881 0.14786,-0.399763 0.22179,-0.599644 z M 74.828857,98.493753 c 3.052606,0.455645 -2.345779,-0.740449 0,0 z m 3.011479,-2.910417 c 0.822312,-0.873047 0.155079,-0.334495 0,0 z m 0.928964,0 c 2.060285,-1.56225 -0.936102,-0.407769 0,0 z m 24.50226,77.787494 c -0.57359,-0.30292 0.54753,-0.33001 0,0 z m 0.52917,0 c -0.57358,-0.3029 0.5475,-0.33003 0,0 z m 1.5875,-0.52916 c -0.57359,-0.30291 0.54751,-0.33005 0,0 z m 5.83645,0 c -1.29211,-0.81161 0.72305,-0.74111 0,0 z m -14.550917,-0.26459 c -2.464042,-0.98281 1.094694,-2.10425 0.368048,-0.031 -0.05481,0.13208 -0.250918,0.0107 -0.368048,0.031 z M 77.606982,172.3125 c -0.573584,-0.3029 0.547511,-0.33003 0,0 z m 28.030218,-0.26458 c -1.48655,-0.61063 1.82316,-0.66582 0.098,0 z m 2.13228,-0.52917 c -0.57358,-0.3029 0.5475,-0.33003 0,0 z m -29.897914,-0.26458 c -0.573593,-0.30291 0.547514,-0.33005 0,0 z m 17.197915,0 c -1.323388,-0.13288 1.436104,-0.78804 0.113645,0 z m 13.626039,-0.26459 c -1.96959,0.22397 1.9032,-2.09092 0.0297,-0.0159 z m -20.513509,-0.52916 c -1.737705,-1.01102 1.325092,-0.84841 0,0 z m 4.373929,0 c -1.147177,-0.60582 1.095025,-0.66008 0,0 z m 20.24062,-0.26459 c -0.57359,-0.30292 0.54753,-0.33001 0,0 z m -29.781235,-0.26458 c -0.758411,-0.24109 1.033048,-1.14822 0,0 z m -4.453994,-0.26458 c -1.767153,-1.17844 1.269142,-1.0329 0,0 z m 17.434192,0 c -2.047925,-1.21539 2.043133,-1.16451 0,0 z M 86.5872,169.40208 c -0.702523,-0.84186 1.171428,-0.70256 0,0 z m 2.099209,-0.0772 c -2.428193,-0.64089 1.803762,-1.31537 0,0 z m -3.967846,-0.65401 c -2.478432,0.19324 -0.03018,-1.24266 0,0 z m 0.901921,-0.026 c -0.683683,0.72783 -0.26664,-1.50372 0,0 z m 7.877112,-0.0366 c -2.631936,-0.97393 1.815577,-0.80213 0,0 z m 1.820854,0 c -0.702527,-0.84185 1.171429,-0.70257 0,0 z m 13.68575,0 c -1.65709,-0.83755 1.11131,-1.5595 0,0 z m -26.057522,-0.26458 c -1.998026,-0.79186 0.24582,-1.65092 0.479348,-0.26169 -0.04187,0.33919 -0.246151,0.26462 -0.479348,0.26169 z m 7.395591,-0.004 c -0.708926,-1.1394 -0.05577,-2.56326 1.540999,-2.12197 1.555401,2.07575 -1.620019,-0.47325 -0.887548,1.40529 0.955477,0.0356 -0.453259,0.75041 -0.653451,0.71668 z m -14.851953,-0.52511 c -0.573587,-0.3029 0.547509,-0.33003 0,0 z m 9.419041,-0.13222 c -2.6775,0.17157 0.626715,-0.77987 -0.2543,-1.40314 1.776043,-0.98927 2.959527,1.38446 0.580248,1.34934 l -0.279448,0.0461 z m -5.931446,-0.66153 c -1.462655,-1.37891 0.696155,-0.96668 0.115509,-1e-4 z m 1.539488,0 c -0.573588,-0.3029 0.547512,-0.33003 0,0 z m 58.089751,0 c -0.36073,-0.73257 -0.69642,-3.68352 0.59358,-4.23988 1.97289,-1.84247 1.93381,0.3413 1.76714,2.00006 0.12304,1.13454 -1.51483,1.93983 -2.36072,2.23982 z m -62.956818,-0.67859 c -1.907731,-0.64955 1.150856,-1.77856 0,0 z m 1.620996,-0.64432 c -2.226105,-0.78345 0.511456,-2.74562 0.373559,-0.40025 -0.148539,0.0985 -0.02676,0.59022 -0.373559,0.40025 z m 34.334612,-0.52917 c -3.05207,0.45553 2.34557,-0.7404 0,0 z m -0.78644,-0.52917 c -1.57043,-0.72315 0.84917,-1.10179 0,0 z m 2.90311,0 c -1.14719,-0.60579 1.09502,-0.66008 0,0 z M 87.396565,164.375 c -0.573588,-0.3029 0.547512,-0.33003 0,0 z m -11.765776,-0.70838 c -2.715205,0.99789 2.109319,-2.38617 0.03393,-0.02 z m 36.504321,0.3115 c -1.06045,0.21379 1.05382,-1.44532 0.0237,-0.0146 z m -1.32292,-0.39687 c -1.22524,-0.7399 1.03412,-0.36181 0,0 z m -42.223089,-1.07922 c -1.546679,-0.24996 1.642501,-0.22229 0,0 z m 43.546009,-0.50828 c -1.22526,-0.73989 1.03412,-0.36182 0,0 z M 111.59032,161.2 c -0.75862,-0.24114 1.03337,-1.14822 0,0 z m 27.22428,-0.79375 c -0.57242,-1.03449 -0.0249,-2.98585 0.10114,-4.36563 1.57799,-1.15981 3.22896,-1.43373 2.58811,1.08569 0.48214,1.73675 -1.55036,2.51885 -2.68925,3.27994 z m -26.77804,-0.80217 c -1.44525,-0.41912 2.83019,-1.33569 0.27973,0.004 z m 1.68605,-4.22491 c -1.22527,-0.73989 1.03413,-0.36183 0,0 z m -1.32292,-1.05834 c -1.8825,-0.62283 1.87187,-0.70233 0.007,0 z m 2.1479,-0.79375 c -1.87935,-0.97948 0.95188,-0.41834 0,0 z m 31.42315,-0.4101 c -0.4145,0.41478 -0.53434,-4.17532 0.45724,-2.74738 -0.20339,0.88021 0.0786,2.02158 -0.45724,2.74738 z m -81.775357,-1.32202 c -0.06391,3.26117 -1.055454,-2.0496 -0.198437,-1.53271 0.553108,0.31795 0.11943,1.03118 0.198437,1.53271 z m 50.173067,0.93837 c -0.70254,-0.84185 1.17144,-0.70256 0,0 z m -0.91043,-0.26458 c -1.22525,-0.73991 1.03415,-0.36179 0,0 z m 2.11667,-0.83553 c -2.20926,-0.15984 2.22604,-0.21367 0,0 z m -2.77813,-0.48739 c -0.57359,-0.30292 0.54753,-0.33001 0,0 z m 1.5875,0 c -1.32337,-0.13288 1.43611,-0.78804 0.11365,0 z m 2.77813,-0.26458 c -3.05207,0.45553 2.34557,-0.7404 0,0 z m -1.70418,-0.79375 c -1.29211,-0.8116 0.72306,-0.74111 0,0 z m 2.65778,-0.0717 c -0.35228,0.17241 -0.0884,-1.54983 0.15988,-0.15985 z M 64.362201,111.19375 c -0.702523,-0.84186 1.171428,-0.70256 0,0 z M 64.875753,110.4 c -0.301021,-0.64585 1.150572,-0.83444 0,0 z m 38.294747,-1.05833 c -1.87934,-0.97952 0.9519,-0.41831 0,0 z m -30.326017,-4.7625 c -0.573587,-0.3029 0.547509,-0.33003 0,0 z M 131.44969,104.05 c -1.05802,1.24241 0.99653,-2.45062 0,0 z m -40.48125,-1.05833 c -1.147172,-0.60581 1.095021,-0.66008 0,0 z m 9.65729,-0.0639 c -4.612344,-0.008 -9.265035,-1.27196 -13.267879,-3.522373 -1.455941,-1.128432 -2.777888,-2.310412 -2.077944,-4.300381 0.824516,-0.206196 1.999828,-1.945138 3.332261,-2.452132 3.077446,-2.155956 7.083558,-2.292187 10.708015,-2.681241 0.830067,0.333544 4.887047,-0.104059 3.157637,0.84113 -2.35031,-0.151038 -4.650731,0.755655 -6.817573,1.487691 -1.353556,1.43855 -3.890162,1.695131 -4.691799,3.540972 -0.0062,2.193815 2.136442,-1.197376 3.157453,-0.267353 1.144336,0.03869 2.172802,0.581016 3.32004,1.331589 3.425419,1.284141 7.284769,1.669214 10.903039,1.081467 1.41026,-0.538385 3.67586,-0.344978 4.31218,-1.070677 1.37132,-0.433432 2.76933,-1.51234 2.64889,-3.081179 -1.89106,-2.529561 -5.25468,-2.508133 -8.08844,-3.013621 -2.72887,0.166079 -1.07241,-1.381918 0.74842,-1.129262 4.3197,0.189589 8.80389,0.771968 12.67975,2.748824 1.34484,0.890615 2.99983,1.905801 3.6561,3.324263 -0.60967,0.741559 -2.14993,-2.377797 -3.36153,-1.478182 0.0909,1.790059 -0.66632,-1.436893 -1.13639,-0.704995 -2.02796,-0.134399 -1.78004,0.488536 -3.20365,-0.259635 -1.8986,-1.24566 -2.65789,-0.231856 -0.32792,0.489461 1.75459,0.715233 2.60196,2.688175 4.36538,3.398972 -1.25386,-2.338826 0.56991,-0.395321 0.36629,-0.145783 -2.47241,0.728481 1.12883,0.892576 -0.43758,1.164067 0.43439,0.384905 -0.80299,1.244705 -0.61605,1.844758 2.70194,-0.734473 -0.82648,1.0065 -1.94653,0.66878 0.17195,1.07582 -2.25677,-0.92212 -3.29317,0.14929 -1.47071,0.67935 -2.74303,0.90664 -4.6537,0.82363 -3.37893,0.14154 -6.76957,0.10635 -10.129288,0.53808 0.723938,0.75461 4.062678,0.65248 0.693988,0.67384 z m 18.27187,-2.31735 c 0.54841,-0.35397 -1.5323,-1.183446 0,0 z m -0.80937,-0.26458 c 0.57359,-0.30291 -0.54751,-0.33005 0,0 z m 1.32292,0 c 0.57359,-0.30291 -0.54751,-0.33005 0,0 z m 12.46297,2.57417 c -0.35227,0.1724 -0.0885,-1.54983 0.15988,-0.15985 z m -62.788539,-1.66514 c -1.572002,0.54509 1.607985,-1.2032 0,0 z m 51.664099,-1.702784 c -1.41914,-1.009733 0.43272,-0.475166 0,0 z m 1.04272,0 c -0.57358,-0.302905 0.54751,-0.330037 0,0 z m 16.45473,-1.322917 c -1.89817,-1.042831 -0.68768,-1.085934 0,0 z m -64.741189,-0.79375 c -3.052424,0.455605 2.345708,-0.740432 0,0 z m 50.932289,0 c -0.57358,-0.302904 0.54751,-0.330037 0,0 z m -4.89479,-1.5875 c -3.05174,0.455452 2.34543,-0.740367 0,0 z m 1.98437,-0.264583 c -0.57359,-0.302922 0.54753,-0.330017 0,0 z M 94.303292,94.982511 c -0.352282,0.172417 -0.08848,-1.549844 0.159857,-0.159852 z m 24.932968,0.0021 c -2.2079,0.162634 2.14712,-1.078322 0,0 z m 2.42385,0.06954 c -1.22526,-0.73989 1.03413,-0.361817 0,0 z M 104.59448,94.7409 c -1.18569,-0.186314 -3.98973,0.284721 -3.57187,-1.553844 0.50274,-2.149021 1.70233,-0.661424 2.27385,-1.208233 0.4865,-1.308149 0.79861,-4.528448 1.68839,-1.639352 0.0354,1.61164 -0.28595,3.584615 2.00893,3.047911 2.71681,-0.03283 -0.43756,1.635812 -1.64283,1.358091 -0.25216,-0.0015 -0.50431,-0.003 -0.75647,-0.0046 z m 27.25208,0.02602 c -3.04181,-0.72468 0.14461,-0.682637 0,0 z m -4.57967,-0.515321 c -2.16899,-1.457208 -0.99539,-0.833502 0.7456,-0.975873 1.99399,0.293906 -0.37932,0.371047 -0.7456,0.975873 z"
       id="path1" /></g></svg>
