<svg xmlns="http://www.w3.org/2000/svg" xmlns:ffdec="https://www.free-decompiler.com/flash" ffdec:objectType="shape" width="22.9" height="22.9"><path d="M8.577 19.018c-.319-.124-.323-.127-.627-.382-.453-.381-3.188-3.111-3.61-3.606l-.337-.393-.147-.342-.147-.343.072-.563c.063-.49.088-.616.196-.988l.123-.425 3.037-3.039c1.67-1.671 3.04-3.028 3.045-3.014.004.013-.017.05-.047.084a2.6 2.6 0 0 0-.253.406 2 2 0 0 0-.09.334l-.05.256 1.51 1.561a115 115 0 0 0 3.079 3.078l1.567 1.516.25-.05c.286-.057.574-.192.755-.355.058-.052.112-.087.118-.077s-1.362 1.392-3.04 3.07l-3.05 3.051-.412.121c-.401.118-.426.123-.938.165l-.605.052c-.055.005-.172-.029-.399-.117m2.732-5.936c.495-.102.927-.584.993-1.107.014-.106.004-.136-.193-.578-.195-.438-.214-.472-.316-.553a1.4 1.4 0 0 0-.816-.293q-.468-.005-.861.384c-.368.362-.461.8-.276 1.294.22.586.887.973 1.469.853"/><path d="M15.35 12.139c-.899-.83-3.577-3.506-4.462-4.457-.803-.865-.758-.796-.692-1.05.018-.07.095-.252.171-.403q.244-.485.244-.676c0-.09.01-.101.7-.788.384-.383.755-.737.824-.787.217-.157.422-.273.48-.273.032 0 .406-.066.832-.146s.78-.145.79-.145.087-.119.173-.263c.127-.213.18-.336.283-.644l.126-.38v-.338c0-.31-.004-.342-.045-.379-.024-.022-.045-.048-.045-.056 0-.01.084-.08.185-.158.102-.077.3-.254.442-.393l.258-.251.369-.172c.34-.158.404-.18.81-.27.477-.107.639-.12.845-.065.475.122.878.425 1.803 1.353l.65.65-.476.476-.476.476.358.358.359.357.285-.283c.157-.157.381-.36.498-.453l.213-.17.656.655c.378.377.736.757.845.895.187.24.19.243.364.717l.175.476-.106.514c-.104.51-.107.52-.275.873-.17.356-.17.358-.413.604a6 6 0 0 0-.394.443 1.3 1.3 0 0 1-.168.196c-.01 0-.075-.02-.147-.045-.101-.035-.188-.045-.392-.045-.26 0-.263 0-.651.132a8 8 0 0 0-.648.254l-.258.122-.12.804-.12.804-.121.198a4 4 0 0 0-.191.347c-.062.133-.14.22-.765.848l-.696.7h-.134c-.27 0-.38.032-.571.166-.15.105-.217.135-.447.2l-.27.076zm.417-3.692c.13-.063.204-.203.168-.315-.017-.05-.199-.248-.553-.605-.529-.531-.64-.62-.704-.556-.014.013-.072.024-.13.024-.16 0-.207.096-.143.296.034.107.088.169.545.63.279.281.537.525.574.542.093.042.13.04.243-.016m1.791-1.79a.27.27 0 0 0 .149-.155c.042-.09.046-.117.025-.181-.035-.104-1.058-1.123-1.163-1.158-.095-.031-.29.008-.345.07-.045.05-.051.175-.014.287.03.09 1.021 1.104 1.127 1.152.09.041.107.04.221-.016"/><path d="m19.626 3.262-.218-.218.442-.44c.324-.32.477-.456.573-.507.094-.05.14-.063.168-.048.02.011.073.035.116.052.064.024.085.05.107.12.065.218.023.285-.507.818-.242.243-.445.442-.452.442-.006 0-.11-.098-.23-.219M10.805 12.515a.8.8 0 0 1-.2-.094c-.08-.056-.106-.097-.188-.3a1.6 1.6 0 0 1-.095-.28c0-.024.043-.143.094-.265l.094-.22.246-.099.246-.098.246.098.247.099.098.246.098.246-.098.249-.098.249-.258.1c-.285.111-.279.11-.432.069M5.16 20.548l-.493-.346-.97-.968c-1.025-1.024-1.27-1.3-1.562-1.76l-.173-.274.944-.944.944-.945 1.847 1.847 1.847 1.847-.946.944-.946.945zm.993-.846.657-.658-.026-.081c-.03-.092-.058-.098-.206-.047-.078.028-.202.139-.631.565-.294.292-.548.564-.566.603a.5.5 0 0 0-.031.15c0 .063.01.08.062.1l.073.024c.006 0 .307-.295.668-.656m-3.375-2.166c.117-.038 1.17-1.094 1.204-1.206.044-.148.034-.191-.05-.217l-.077-.024-.651.653c-.359.358-.652.663-.652.678 0 .014.01.052.022.084.024.064.08.073.204.032M1.385 16.627c-.333-.338-.64-.71-.765-.924a1 1 0 0 1-.084-.222l-.026-.12.747-.749c.751-.754 2.368-2.298 2.387-2.279.006.006-.027.102-.072.215a6 6 0 0 0-.156.478l-.075.273.03.413c.015.227.05.554.075.726.042.278.044.34.021.536-.02.18-.039.245-.093.336-.04.068-.379.426-.842.891-.426.428-.78.778-.787.778-.006 0-.168-.159-.36-.352M2.024 17.986c-.079-.027-.252-.147-.563-.389l-.45-.35-.399-.497C.195 16.231 0 15.962 0 15.904c0-.032.332-.38.362-.38.008 0 .097.154.198.341.15.279.226.39.408.6.795.913.98 1.144 1.082 1.346.056.111.099.205.095.208a.5.5 0 0 1-.12-.033M6.854 22.808c-.09-.047-.374-.255-.678-.499l-.523-.418-.35-.449c-.255-.326-.36-.48-.389-.565-.021-.065-.033-.123-.026-.13s.108.042.225.108c.166.093.366.25.902.712.663.57.702.6 1.013.768.178.096.334.184.346.196.025.025-.29.358-.337.358-.014 0-.096-.036-.183-.08M7.42 22.365c-.166-.037-.337-.147-.525-.34a8 8 0 0 0-.493-.434 7 7 0 0 1-.408-.351l-.084-.087.823-.82c.452-.45.844-.83.87-.844.146-.074.8-.091 1.056-.027.099.025.339.055.564.07l.391.026.325-.09c.179-.05.384-.112.457-.137a.6.6 0 0 1 .14-.04c.017.019-1.54 1.646-2.234 2.335l-.77.764z"/></svg>