<?xml version="1.0" encoding="UTF-8" standalone="no"?>
<!-- Created with Inkscape (http://www.inkscape.org/) -->

<svg
   width="132.31924mm"
   height="111.13914mm"
   viewBox="0 0 132.31924 111.13914"
   version="1.1"
   id="svg1"
   xml:space="preserve"
   xmlns="http://www.w3.org/2000/svg"
   xmlns:svg="http://www.w3.org/2000/svg"><defs
     id="defs1" /><g
     id="layer1"
     transform="translate(-38.84546,-95.543737)"><path
       style="fill:#000000"
       d="m 107.76948,206.56683 -5.82083,0.11605 -2.645838,-0.36665 -2.645833,-0.36665 -1.819201,-0.31206 -1.819201,-0.31205 0.363993,-0.24265 0.363992,-0.24265 -0.661458,0.1511 -0.661459,0.1511 -2.775639,-0.82592 -2.775639,-0.82592 -1.896929,-0.87644 -1.89693,-0.87643 -1.842084,-1.19164 -1.842083,-1.19164 -1.885869,-1.77903 -1.885868,-1.77903 v -0.2436 -0.2436 l -0.561792,-0.58425 -0.561791,-0.58425 -0.694979,-1.45521 -0.69498,-1.4552 -0.08064,-7.87136 -0.08064,-7.87135 -0.316231,-0.0283 -0.316232,-0.0283 -1.917715,0.0517 -1.917715,0.0517 -2.44791,-0.30221 -2.44791,-0.3022 -3.241146,-0.56652 -3.241146,-0.56651 v -0.22856 -0.22855 l -0.259656,0.16048 -0.259656,0.16047 -2.849198,-0.95102 -2.849198,-0.95102 -1.852084,-0.91317 -1.852083,-0.91316 -1.530259,-1.20195 -1.530258,-1.20195 0.182076,-0.2946 0.182077,-0.29461 -0.305464,0.18879 -0.305464,0.18879 v -0.41249 -0.41249 l -0.240512,0.0661 -0.240512,0.0662 -0.817821,-0.90755 -0.817821,-0.90755 v -0.21693 -0.21693 h -0.396875 -0.396875 v -0.51602 -0.51602 l -0.33073,-0.21158 -0.330729,-0.21159 -0.608084,-1.11708 -0.608083,-1.11708 0.07892,-6.70892 0.07892,-6.70892 0.79375,-0.91749 0.79375,-0.91749 0.979936,-0.78151 0.979936,-0.78151 0.01225,-0.20803 0.01225,-0.20803 -1.357434,-1.77634 -1.357434,-1.77635 -0.252664,-0.16187 -0.252664,-0.16187 0.0226,-0.16886 0.0226,-0.16886 -0.0041,-0.46302 -0.0041,-0.46302 -0.223824,0.3531 -0.223824,0.35309 -0.165387,-0.61768 -0.165387,-0.61767 -0.0036,-5.37053 -0.0036,-5.37052 0.893538,-1.37635 0.893538,-1.37635 0.56167,-0.58425 0.561671,-0.58425 v -0.45703 -0.45703 l -0.495814,-0.54622 -0.495813,-0.54622 -0.737224,-1.32292 -0.737224,-1.32292 0.05574,-4.74318 0.05574,-4.74318 0.173812,-0.28124 0.173811,-0.28123 0.183363,0.65879 0.183363,0.65879 0.02999,-0.79375 0.02999,-0.79375 0.158759,-0.59233 0.15876,-0.59234 0.234503,0.14493 0.234503,0.14493 0.0186,-0.34634 0.0186,-0.34635 0.227391,0.52917 0.227391,0.52917 0.0186,0.84997 0.0186,0.84997 0.537765,1.4373 0.537765,1.43731 0.775111,1.07001 0.77511,1.07001 1.526212,1.14063 1.526212,1.14063 0.402058,0.31445 0.402059,0.31445 1.190625,0.97752 1.190625,0.97753 0.661458,0.28499 0.661459,0.28499 0.661458,0.51492 0.661458,0.51491 -0.508013,-0.18261 -0.508013,-0.18261 -0.21554,0.33969 -0.215539,0.33969 -0.0041,-0.29404 -0.0041,-0.29404 -0.703579,0.1345 -0.703579,0.13449 0.489566,0.35798 0.489565,0.35798 h -0.165637 -0.165637 l -0.693804,-0.26378 -0.693803,-0.26379 0.135931,0.21994 0.135931,0.21995 2.194294,1.08489 2.194294,1.08489 3.166364,1.08531 3.166364,1.0853 3.183636,0.67073 3.183636,0.67073 5.159375,0.12962 5.159375,0.12962 2.910417,-0.37666 2.910416,-0.37667 0.07216,0.0577 0.07216,0.0577 -1.711506,1.74553 -1.711506,1.74554 -0.16548,0.88208 -0.165479,0.88208 0.65686,2.63598 0.656859,2.63599 0.169937,1.19062 0.169938,1.19063 0.13919,0.72778 0.13919,0.72778 0.875,1.0473 0.875,1.04731 2.345085,1.98666 2.345084,1.98666 2.174163,1.2975 2.174163,1.2975 3.27959,1.0906 3.279591,1.09059 3.145206,0.56176 3.1452,0.56176 4.69534,0.13422 4.69533,0.13421 2.55342,-0.3214 2.55342,-0.3214 3.06999,-0.75615 3.07,-0.75616 1.91823,-0.65927 1.91823,-0.65927 v 0.10808 0.10808 l -0.695,0.36415 -0.695,0.36414 0.43042,0.16517 0.43041,0.16517 v -0.30685 -0.30685 l 0.40071,0.51359 0.40071,0.51359 -0.07,-0.39688 -0.07,-0.39687 0.56495,-0.009 0.56494,-0.009 0.36997,-0.30705 0.36997,-0.30705 0.388,0.2454 0.38801,0.24539 -0.52917,0.0249 -0.52917,0.0249 0.33198,0.13387 0.33199,0.13387 0.85864,-0.70652 0.85864,-0.70652 2.08684,-2.02792 2.08685,-2.02793 -0.63164,1.14962 -0.63163,1.14961 -1.80482,1.95148 -1.80483,1.95147 -1.76705,1.17156 -1.76705,1.17155 -1.49657,0.73126 -1.49656,0.73125 0.13581,0.35391 0.13581,0.35392 h -0.40041 -0.40042 l 0.13875,0.53057 0.13875,0.53058 -0.32541,0.39209 -0.32541,0.3921 0.14703,0.38315 0.14703,0.38315 -0.31587,0.12924 -0.31586,0.12925 0.39687,0.30487 0.39688,0.30487 -0.33073,0.13419 -0.33073,0.1342 v 0.27339 0.2734 l 0.52916,-0.13838 0.52917,-0.13838 v 0.11407 0.11407 l -0.7276,0.28957 -0.72761,0.28957 0.29077,0.10948 0.29076,0.10948 1.9582,-0.70342 1.95819,-0.70343 1.85208,-0.92828 1.85209,-0.92828 1.44741,-0.9246 1.44741,-0.9246 1.66144,-1.5954 1.66144,-1.5954 v 0.61793 0.61792 l -1.0351,2.13852 -1.0351,2.13852 -1.62307,1.77129 -1.62306,1.77129 -1.77361,1.17144 -1.7736,1.17144 -1.33686,0.67076 -1.33686,0.67077 -2.74874,0.95678 -2.74874,0.95677 -3.27378,0.66287 -3.27379,0.66287 -4.67916,0.37826 -4.67915,0.37826 -4.95851,0.0298 -4.958508,0.0298 -0.132598,0.21455 -0.132597,0.21454 0.857774,0.13027 0.857773,0.13027 2.116667,0.43983 2.116669,0.43983 3.57187,0.1862 3.57188,0.18621 3.57187,-0.17023 3.57188,-0.17024 3.175,-0.56872 3.175,-0.56873 1.85208,-0.54805 1.85208,-0.54805 2.57522,-1.13262 2.57522,-1.13262 2.18728,-1.27703 2.18728,-1.27703 1.27988,-1.1898 1.27987,-1.1898 0.38504,-0.74459 0.38504,-0.74458 0.25987,0.16061 0.25987,0.16061 -0.0379,-0.21811 -0.0379,-0.2181 0.0313,-2.53948 0.0313,-2.53948 2.83715,-0.17359 2.83715,-0.1736 2.90504,-0.54824 2.90505,-0.54825 3.15929,-1.03741 3.15929,-1.03742 2.14487,-1.17424 2.14487,-1.17424 1.65354,-1.33889 1.65353,-1.33888 -0.46291,0.86071 -0.46291,0.86071 -0.92604,1.02274 -0.92604,1.02274 -2.41179,2.01799 -2.41179,2.01799 -2.21842,1.09429 -2.21842,1.09429 -1.71979,0.56352 -1.71979,0.56352 -1.32292,1.19787 -1.32292,1.19786 0.0742,0.27743 0.0742,0.27743 -0.86798,0.80836 -0.86798,0.80837 0.52917,-0.36959 0.52917,-0.3696 -0.36313,0.46303 -0.36313,0.46302 h -0.49677 -0.49677 v 0.27766 0.27766 l -1.25677,-0.0507 -1.25677,-0.0507 -1.15202,0.35236 -1.15202,0.35235 -0.0918,0.2806 -0.0918,0.2806 -0.0791,2.6871 -0.0791,2.68711 0.19844,-0.12304 0.19843,-0.12303 v -1.27899 -1.279 l 0.41062,-0.15756 0.41062,-0.15757 -0.15035,0.24327 -0.15035,0.24327 0.28175,0.17413 0.28174,0.17413 -0.30982,0.37332 -0.30983,0.37332 h 0.28867 0.28868 l -0.15345,0.39987 -0.15344,0.39988 0.42481,-0.16302 0.42482,-0.16302 -0.14639,-0.23686 -0.14639,-0.23685 h 0.27089 0.27089 l 0.26458,0.49437 0.26459,0.49438 -0.16708,0.16708 -0.16708,0.16708 h 0.49984 0.49984 l -0.5885,0.41221 -0.5885,0.4122 -0.26412,-0.16324 -0.26412,-0.16323 v 0.28105 0.28105 l 0.8599,-0.067 0.85989,-0.067 -0.0197,1.64057 -0.0197,1.64056 0.21816,-0.13482 0.21815,-0.13483 v 0.39044 0.39044 l -0.33073,0.12127 -0.33073,0.12127 0.33073,0.35057 0.33073,0.35058 v 0.22728 0.22728 l -0.2463,-0.15222 -0.2463,-0.15223 -0.17628,0.28522 -0.17628,0.28522 -0.67617,0.25709 -0.67618,0.25708 0.50344,0.48484 0.50344,0.48485 0.38583,0.56008 0.38583,0.56007 2.12771,-0.15035 2.12772,-0.15035 1.71979,-0.38517 1.71979,-0.38517 2.51354,-0.81387 2.51354,-0.81388 2.00367,-0.98848 2.00367,-0.98847 2.11479,-1.48188 2.1148,-1.48188 1.75133,-1.70875 1.75132,-1.70876 0.55174,-1.08148 0.55173,-1.08149 h 0.14794 0.14793 l -0.18614,0.85989 -0.18615,0.8599 -0.79332,1.578 -0.79332,1.578 -1.57796,1.64328 -1.57796,1.64328 -1.76308,1.17775 -1.76307,1.17774 -1.67442,0.84079 -1.67442,0.84079 -2.76441,0.92503 -2.76441,0.92503 -0.87936,0.0789 -0.87936,0.0789 -0.24083,0.14884 -0.24083,0.14884 -3.43681,0.43508 -3.43682,0.43508 -2.11666,-0.0808 -2.11667,-0.0808 -0.0822,-1.5875 -0.0822,-1.5875 0.16037,-0.8599 0.16037,-0.85989 0.18645,-4.8e-4 0.18645,-4.9e-4 -0.0889,1.57326 -0.0889,1.57325 0.52048,-0.0392 0.52048,-0.0392 -0.27958,-0.44769 -0.27958,-0.44769 0.47822,-0.47822 0.47822,-0.47823 -0.19554,0.61611 -0.19554,0.61611 0.29293,-0.18104 0.29292,-0.18104 v -0.66146 -0.66146 l -0.19843,0.12229 -0.19844,0.12229 -0.0866,-0.96657 -0.0866,-0.96657 -0.0898,-0.66146 -0.0898,-0.66146 -0.022,-0.33073 -0.0221,-0.33073 h -0.26458 -0.26458 v 0.64585 0.64584 l -0.24718,0.15276 -0.24718,0.15277 0.10212,-1.02642 0.10211,-1.02642 0.57474,-0.97411 0.57474,-0.97411 -0.15887,-0.15887 -0.15886,-0.15886 -0.18955,0.50089 -0.18955,0.50089 -0.74272,1.17628 -0.74272,1.17628 v -0.20439 -0.2044 l -0.71017,0.8802 -0.71018,0.8802 -1.73722,1.80649 -1.73722,1.80649 -1.34006,1.00993 -1.34006,1.00992 -2.23182,1.19393 -2.23181,1.19393 -2.64583,0.98458 -2.64584,0.98458 -3.04271,0.61238 -3.0427,0.61239 -4.04336,0.29005 -4.04336,0.29005 -0.24545,-0.15169 -0.24545,-0.1517 -6.012371,-0.12758 -6.012377,-0.12758 -3.854025,-0.39557 -3.854026,-0.39557 -0.79375,-0.14601 -0.79375,-0.146 2.925846,1.43321 2.925847,1.43321 2.498112,0.82632 2.498112,0.82631 2.212064,0.52269 2.212065,0.52269 3.211893,0.31223 3.21189,0.31222 3.96875,-0.15682 3.96875,-0.15683 2.77813,-0.42618 2.77812,-0.42618 1.85209,-0.49439 1.85208,-0.49438 2.37919,-0.80971 2.37919,-0.80971 h 0.1006 0.1006 l -0.31975,0.38529 -0.31976,0.38528 0.17068,0.27618 0.17069,0.27617 h -0.52552 -0.52551 l 0.10153,0.80226 0.10153,0.80227 -0.29397,-0.18169 -0.29397,-0.18168 0.17344,0.28062 0.17343,0.28063 0.59505,-0.15293 0.59505,-0.15292 1.19062,-0.65602 1.19063,-0.65603 1.63487,-1.16042 1.63488,-1.16041 0.11484,-0.3209 0.11484,-0.3209 0.19189,0.17772 0.1919,0.17772 -1.80932,1.77746 -1.80932,1.77747 -1.80619,1.27104 -1.80619,1.27104 0.53109,-0.04 0.53109,-0.04 -0.14709,-0.23801 -0.1471,-0.238 0.62845,0.17797 0.62844,0.17797 -0.39687,-0.30688 -0.39688,-0.30687 0.44593,0.14239 0.44593,0.14238 0.12849,-0.31586 0.1285,-0.31587 0.0209,0.31183 0.0209,0.31183 -0.35199,0.35199 -0.35199,0.35199 0.10137,0.30412 0.10137,0.30412 -0.27855,0.17216 -0.27855,0.17215 v -0.2802 -0.2802 h -0.26682 -0.26683 l 0.31327,0.50163 0.31327,0.50162 -0.45245,0.45245 -0.45245,0.45245 0.28777,0.34674 0.28776,0.34674 -0.47707,0.1237 -0.47707,0.12371 0.52189,0.0307 0.52189,0.0307 -0.61498,0.43075 -0.61499,0.43075 0.33906,0.20955 0.33906,0.20955 0.0615,0.41929 0.0615,0.4193 -0.24567,-0.15184 -0.24567,-0.15183 0.1286,-0.20808 0.1286,-0.20808 -0.65345,0.12491 -0.65345,0.12492 v 0.20897 0.20897 l 0.57095,-0.14931 0.57095,-0.14931 -0.1493,0.57095 -0.14931,0.57096 h 0.21629 0.21629 l 0.68897,-0.8599 0.68897,-0.85989 0.1987,-0.26459 0.1987,-0.26458 1.09162,-1.32292 1.09161,-1.32291 0.79717,-1.45521 0.79717,-1.45521 1.10504,-3.03375 1.10503,-3.03374 0.33641,-0.64205 0.3364,-0.64205 0.18006,0.29135 0.18006,0.29134 -0.2809,2.26053 -0.2809,2.26053 -0.49356,1.58579 -0.49355,1.58579 -1.23777,1.98591 -1.23776,1.98592 -1.10544,0.78799 -1.10544,0.78799 -0.79375,0.69169 -0.79375,0.69169 0.26458,-0.0995 0.26458,-0.0995 0.72872,-0.36522 0.72873,-0.36522 0.19732,0.19732 0.19732,0.19732 v 1.14331 1.14331 l 0.23931,-0.14791 0.23932,-0.1479 -0.18632,0.30147 -0.18632,0.30147 -1.83983,1.07452 -1.83983,1.07452 -1.78504,0.68157 -1.78504,0.68157 -2.59997,0.75745 -2.59996,0.75744 -0.83962,0.117 -0.83962,0.11699 -1.45521,0.2874 -1.45521,0.28739 z m 17.99167,-7.53142 h 0.13229 v -0.13229 -0.13229 h -0.13229 -0.1323 v 0.13229 0.13229 z m 0.52916,0 h 0.13229 v -0.13229 -0.13229 h -0.13229 -0.13229 v 0.13229 0.13229 z m 0,-2.11666 h 0.13229 v -0.13229 -0.1323 h -0.13229 -0.13229 v 0.1323 0.13229 z m 0,-0.79375 h 0.13229 v -0.13229 -0.1323 h -0.13229 -0.13229 v 0.1323 0.13229 z m -1.21667,-0.52917 h 0.2594 l 0.1744,-0.28219 0.1744,-0.28218 -0.0926,-0.088 -0.0926,-0.088 -0.34116,0.37019 -0.34116,0.37019 z m 1.36458,0 h 0.24897 v -0.22049 -0.22048 h -0.38524 -0.38524 l 0.13627,0.22048 0.13627,0.22049 z m -0.54478,-5.02708 h 0.35278 l -0.17639,-0.17639 -0.17639,-0.17639 -0.17639,0.17639 -0.17639,0.17639 z M 140.5622,178.6625 h 0.91042 l 0.12566,-0.20331 0.12565,-0.20331 -1.03608,0.0988 -1.03608,0.0988 v 0.1045 0.1045 z m 1.22884,-0.94001 0.25061,-0.15489 -0.15489,-0.25062 -0.15489,-0.25061 -0.25061,0.15489 -0.25062,0.15489 0.15489,0.25061 0.15489,0.25062 z m -1.47781,-7.26207 h 0.13229 v -0.1323 -0.13229 h -0.13229 -0.13229 v 0.13229 0.1323 z m -44.714584,-0.52917 h 0.132291 v -0.13229 -0.13229 h -0.132291 -0.132292 v 0.13229 0.13229 z m -0.79375,-0.26458 h 0.132291 v -0.1323 -0.13229 h -0.132291 -0.132292 v 0.13229 0.1323 z m 46.037504,0 h 0.13229 v -0.1323 -0.13229 h -0.13229 -0.1323 v 0.13229 0.1323 z m -68.064067,-4.26309 3.902604,0.0298 v -4.26929 -4.2693 l -1.256771,0.17253 -1.256771,0.17253 -7.408333,0.28664 -7.408334,0.28663 -3.042708,-0.17525 -3.042708,-0.17525 -1.91823,-0.3305 -1.918229,-0.33051 v 0.0772 0.0772 l 0.992188,0.50219 0.992187,0.50219 3.441603,1.19375 3.441603,1.19375 2.776106,0.57708 2.776105,0.57707 3.175,0.37038 3.175,0.37037 -2.910416,-0.17295 -2.910417,-0.17295 -0.992188,-0.0177 -0.992187,-0.0177 v -0.21405 -0.21406 l -0.277254,0.17135 -0.277253,0.17136 -0.450351,-0.19064 -0.450351,-0.19064 -1.200843,-0.0472 -1.200844,-0.0472 -0.350092,-0.21637 -0.350092,-0.21637 -0.206076,0.33344 -0.206077,0.33344 -0.176691,-0.5567 -0.176691,-0.55671 -0.496579,0.31012 -0.496578,0.31012 0.119493,0.19334 0.119494,0.19335 -0.298481,0.18447 -0.29848,0.18447 -0.235002,-0.36463 -0.235002,-0.36462 -0.233076,0.36151 -0.233075,0.36151 -0.494529,-0.28732 -0.494529,-0.28732 0.661459,-0.0483 0.661458,-0.0483 0.396875,-0.0382 0.396875,-0.0382 -0.0727,-0.33804 -0.0727,-0.33803 0.337285,0.19077 0.337285,0.19077 -0.363802,-0.36954 -0.363802,-0.36955 -0.125942,0.34476 -0.125942,0.34475 -0.386774,-0.47704 -0.386773,-0.47705 -0.137719,0.33073 -0.137719,0.33073 H 54.15369 53.89554 l 0.188787,-0.30546 0.188787,-0.30547 -0.305464,0.18879 -0.305463,0.18879 -0.0041,0.4474 -0.0041,0.44741 -0.227459,-0.35898 -0.227459,-0.35898 -0.187631,0.3036 -0.187631,0.30359 -0.573046,-0.15272 -0.573046,-0.15272 0.729087,0.41577 0.729087,0.41577 2.338987,0.89259 2.338986,0.89259 2.805921,0.70257 2.805921,0.70257 2.724964,0.35023 2.724964,0.35023 z M 57.498645,162.7875 h -0.132292 v -0.13229 -0.13229 h 0.132292 0.132292 v 0.13229 0.13229 z m 1.322917,0 H 58.68927 v -0.13229 -0.13229 h 0.132292 0.132291 v 0.13229 0.13229 z m -1.852084,-0.26458 h -0.132291 v -0.1323 -0.13229 h 0.132291 0.132292 v 0.13229 0.1323 z m -0.264583,-0.52917 h -0.132292 v -0.13229 -0.13229 h 0.132292 0.132292 v 0.13229 0.13229 z m 3.93752,0 h -0.132291 l 0.163521,-0.26458 0.163522,-0.26459 h 0.132291 0.132292 l -0.163522,0.26459 -0.163521,0.26458 z m -6.054187,-1.05833 h -0.132291 v -0.1323 -0.13229 h 0.132291 0.132292 v 0.13229 0.1323 z m 0.264584,-0.52917 H 54.72052 v -0.13229 -0.13229 h 0.132292 0.132291 v 0.13229 0.13229 z m 1.058333,1.05833 h 0.132292 V 161.33229 161.2 h -0.132292 -0.132292 v 0.13229 0.13229 z m 68.527085,0 h 0.13229 V 161.33229 161.2 h -0.13229 -0.13229 v 0.13229 0.13229 z M 58.556978,161.2 h 0.132292 v -0.13229 -0.13229 h -0.132292 -0.132291 v 0.13229 0.13229 z m 87.545852,-0.26458 h 0.13229 l 0.16353,-0.26459 0.16352,-0.26458 h -0.13229 -0.1323 l -0.16352,0.26458 -0.16352,0.26459 z m -94.673987,-0.26459 h 0.116677 v -0.11667 -0.11668 l -0.305464,-0.18879 -0.305463,-0.18878 0.188787,0.30546 0.188786,0.30546 z m 2.105612,-0.82537 0.524607,-0.42849 0.396875,0.11791 0.396875,0.11791 -0.396875,-0.28068 -0.396875,-0.28067 -0.374827,-0.004 -0.374826,-0.004 0.174093,0.1741 0.174094,0.17409 -0.323874,0.42122 -0.323874,0.42122 z m -1.035333,-0.04 0.159853,-0.15985 -0.138964,-0.34726 -0.138965,-0.34727 -0.02089,0.50712 -0.02089,0.50712 z m 0.501606,-0.19292 h 0.132292 v -0.13229 -0.13229 h -0.132292 -0.132291 v 0.13229 0.13229 z m 72.231252,-3.43958 h 0.13229 v -0.1323 -0.13229 h -0.13229 -0.13229 v 0.13229 0.1323 z m 0.52917,-0.26459 h 0.13229 v -0.13229 -0.13229 h -0.13229 -0.1323 v 0.13229 0.13229 z m 4.34727,-4.13228 0.8121,-0.47973 v -0.18276 -0.18277 l -0.47613,0.12451 -0.47613,0.12451 -0.33598,0.53798 -0.33597,0.53798 z m -1.17227,0.16353 h 0.13229 v -0.13229 -0.13229 h -0.13229 -0.1323 v 0.13229 0.13229 z m -56.819276,-5.8543 4.29948,0.0335 4.4e-5,-4.0349 4.5e-5,-4.03489 -7.209941,0.11997 -7.20994,0.11998 -5.423959,-0.0124 -5.423958,-0.0124 -2.040026,-0.42353 -2.040025,-0.42353 -1.664141,-0.6622 -1.664141,-0.6622 1.322916,1.22024 1.322917,1.22025 2.242678,1.46727 2.242679,1.46727 2.268501,0.978 2.2685,0.97801 2.235696,0.66823 2.235696,0.66823 2.116667,0.4136 2.116666,0.41359 1.852084,0.23226 1.852083,0.23225 z m -32.080729,-35.9499 h 0.132292 v -0.13229 -0.13229 h -0.132292 -0.132292 v 0.13229 0.13229 z m 91.810415,89.69374 h -0.13229 v -0.13229 -0.13229 h 0.13229 0.13229 v 0.13229 0.13229 z m -3.96875,-2.64583 h -0.13229 v -0.13229 -0.13229 h 0.13229 0.13229 v 0.13229 0.13229 z m -0.24897,-0.52917 h -0.11667 l -0.16352,-0.26458 -0.16353,-0.26458 h 0.2802 0.2802 v 0.26458 0.26458 z m 0.51356,0 h -0.1323 v -0.13229 -0.13229 h 0.1323 0.13229 v 0.13229 0.13229 z m 0.52916,-2.38125 h -0.13229 v -0.13229 -0.13229 h 0.13229 0.13229 v 0.13229 0.13229 z m 0,-0.52916 h -0.13229 v -0.13229 -0.1323 h 0.13229 0.13229 v 0.1323 0.13229 z m 0.52917,-1.32292 h -0.13229 v -0.13229 -0.13229 h 0.13229 0.13229 v 0.13229 0.13229 z m 2.11667,0 h -0.1323 v -0.13229 -0.13229 h 0.1323 0.13229 v 0.13229 0.13229 z m -1.5875,-1.32292 h -0.1323 v -0.13229 -0.13229 h 0.1323 0.13229 v 0.13229 0.13229 z m 2.64583,-1.05833 h -0.13229 v -0.13229 -0.13229 h 0.13229 0.13229 v 0.13229 0.13229 z m -1.05833,-0.52917 h -0.1323 v -0.13229 -0.13229 h 0.1323 0.13229 v 0.13229 0.13229 z m 1.05833,0 h -0.13229 v -0.13229 -0.13229 h 0.13229 0.13229 v 0.13229 0.13229 z m 0.52917,-0.26458 h -0.1323 v -0.13229 -0.13229 h 0.1323 0.13229 v 0.13229 0.13229 z m -4.64583,-2.11667 h -0.24897 v -0.10398 -0.10398 l 0.41062,-0.15757 0.41062,-0.15757 -0.16165,0.26155 -0.16165,0.26155 z m 13.50937,-10.58333 h -0.35278 l 0.17639,-0.17639 0.17639,-0.17639 0.17639,0.17639 0.17639,0.17639 z m -3.175,-1.32291 h -0.26459 v -0.24897 -0.24897 l 0.26459,-0.16352 0.26458,-0.16352 v 0.41249 0.41249 z m 4.86356,-3.43959 h -0.13229 l 0.16352,-0.26458 0.16352,-0.26458 h 0.13229 0.13229 l -0.16352,0.26458 -0.16352,0.26458 z m 15.52839,-0.26458 h -0.28362 l 10e-4,-0.19844 0.001,-0.19844 1.12315,-0.92379 1.12315,-0.92379 1.14594,-1.19288 1.14595,-1.19287 1.13191,-1.45521 1.13191,-1.45521 0.70643,-1.32291 0.70644,-1.32292 -0.17375,0.66146 -0.17376,0.66146 -0.49345,1.32291 -0.49345,1.32292 -0.77675,1.16613 -0.77676,1.16613 -1.2303,1.26826 -1.2303,1.26825 -1.1509,0.67447 -1.15089,0.67447 z M 143.48823,170.725 h -0.13229 v -0.13229 -0.13229 h 0.13229 0.13229 v 0.13229 0.13229 z m -1.97607,-2.91042 h -0.25628 l 0.15229,-0.39687 0.1523,-0.39688 0.6993,0.036 0.69929,0.036 -0.59531,0.11466 -0.59531,0.11466 v 0.24618 0.24618 z m 0.12399,-1.05833 h -0.1323 v -0.13229 -0.13229 h 0.1323 0.13229 v 0.13229 0.13229 z m 1.03628,-0.0209 -0.50712,-0.0209 0.34727,-0.13896 0.34726,-0.13897 0.15986,0.15986 0.15985,0.15985 z m 17.08767,-0.66431 -1.19062,0.71886 0.94868,-0.87673 0.94868,-0.87672 2.02233,-1.55347 2.02232,-1.55347 0.8852,-1.09237 0.8852,-1.09236 0.70535,-1.19062 0.70536,-1.19063 2e-5,0.26458 2e-5,0.26459 -0.76183,1.32291 -0.76183,1.32292 -1.11527,1.26247 -1.11527,1.26247 -1.49386,1.14436 -1.49385,1.14436 z M 42.417395,165.9625 h -0.132292 v -0.13229 -0.13229 h 0.132292 0.132292 v 0.13229 0.13229 z m 84.137505,-5.55625 h -0.1323 v -0.13229 -0.13229 h 0.1323 0.13229 v 0.13229 0.13229 z m 20.90536,0 h -0.43139 l 0.16619,-0.2689 0.16619,-0.2689 0.22802,0.14092 0.22802,0.14093 0.16619,-0.2689 0.16619,-0.2689 h 0.26786 0.26787 l -0.39687,0.39687 -0.39688,0.39688 z m 1.58422,-1.05833 h -0.13229 v -0.1323 -0.13229 h 0.13229 0.13229 v 0.13229 0.1323 z m 0.52917,-0.52917 h -0.1323 v -0.13229 -0.13229 h 0.1323 0.13229 v 0.13229 0.13229 z m 12.43541,-1.05833 h -0.13229 v -0.1323 -0.13229 h 0.13229 0.13229 v 0.13229 0.1323 z m -35.71875,-1.05834 h -0.13229 v -0.13229 -0.13229 h 0.13229 0.13229 v 0.13229 0.13229 z m 0.79375,-1.05833 h -0.13229 v -0.13229 -0.13229 h 0.13229 0.13229 v 0.13229 0.13229 z m 0.52917,-0.26458 h -0.13229 v -0.1323 -0.13229 h 0.13229 0.13229 v 0.13229 0.1323 z m 14.87045,-3.2382 -2.83191,0.20985 0.004,-0.27176 0.004,-0.27177 0.38128,-1.05833 0.38127,-1.05834 0.0116,-1.62235 0.0116,-1.62235 2.31511,-0.18009 2.3151,-0.18009 2.51354,-0.38082 2.51354,-0.38083 1.32292,-0.28588 1.32292,-0.28589 2.51354,-0.80644 2.51354,-0.80644 2.11667,-1.00124 2.11666,-1.00124 2.05747,-1.34476 2.05747,-1.34475 1.69197,-1.71715 1.69197,-1.71714 0.82839,-2.05397 0.82839,-2.05398 -0.13352,0.92604 -0.13352,0.92604 -0.12983,0.59631 -0.12983,0.59631 -0.14894,0.24099 -0.14894,0.24099 0.33238,0.11186 0.33238,0.11186 -0.36313,0.43991 -0.36313,0.4399 h 0.29698 0.29698 v 0.50994 0.50994 l -0.94051,1.80516 -0.94052,1.80517 -0.68747,0.71819 -0.68747,0.7182 -0.22107,-0.13663 -0.22106,-0.13662 0.13851,0.36095 0.13851,0.36096 -0.67071,0.35895 -0.67071,0.35896 v 0.18781 0.18782 l -2.04507,1.53925 -2.04508,1.53925 -2.3867,1.24987 -2.38669,1.24988 -2.76268,0.95583 -2.76268,0.95584 -3.20281,0.64849 -3.2028,0.6485 z m 27.99205,-15.8118 h 0.13229 v -0.13229 -0.1323 h -0.13229 -0.13229 v 0.1323 0.13229 z m -38.62917,13.75833 h -0.13229 v -0.13229 -0.13229 h 0.13229 0.13229 v 0.13229 0.13229 z m -2.11666,-0.26458 h -0.1323 v -0.1323 -0.13229 h 0.1323 0.13229 v 0.13229 0.1323 z m -18.52084,-1.23531 -2.64583,0.11872 -2.93055,-0.23239 -2.93054,-0.23239 -2.52807,-0.6413 -2.528066,-0.64129 -1.685138,-0.82399 -1.685137,-0.82399 -0.697768,-0.61609 -0.697769,-0.6161 -0.294419,-0.55012 -0.294419,-0.55013 v -1.68524 -1.68523 l 0.685332,-1.37529 0.685332,-1.37528 0.968314,-0.80248 0.968314,-0.80249 1.245925,-0.58616 1.245926,-0.58616 0.01085,-1.22274 0.01085,-1.22275 1.03179,-1.1585 1.031793,-1.15851 0.19408,1.02313 0.19409,1.02313 0.80083,0.91209 0.80082,0.91209 1.21445,0.61496 1.21444,0.61496 1.45521,0.43291 1.45521,0.4329 2.29507,0.16397 2.29508,0.16396 -0.0751,1.97376 -0.0751,1.97375 -0.36787,0.23296 -0.36787,0.23295 0.92604,-0.005 0.92605,-0.005 2.06032,-0.36729 2.06032,-0.36729 1.73574,-0.81225 1.73575,-0.81226 0.83414,-0.698 0.83414,-0.69799 0.18844,-0.4905 0.18844,-0.4905 -1.51135,1.18742 -1.51136,1.18742 -0.0773,-1.98515 -0.0773,-1.98515 h -0.28759 -0.28759 l -1.83372,0.66146 -1.83371,0.66146 h -1.24101 -1.241 l -0.0464,-0.99219 -0.0464,-0.99218 -0.10316,-3.57188 -0.10316,-3.57187 -0.64417,-0.34993 -0.64418,-0.34994 2.38125,0.169 2.38125,0.169 2.9499,0.50261 2.9499,0.50261 1.37169,0.5212 1.37169,0.5212 1.76383,1.05194 1.76383,1.05193 1.28133,1.28019 1.28134,1.28019 0.67761,1.32291 0.67762,1.32292 0.0127,1.45521 0.0128,1.45521 -0.45174,1.32291 -0.45173,1.32292 -1.08592,1.26659 -1.08593,1.2666 -1.56375,1.06192 -1.56376,1.06193 -1.75406,0.78699 -1.75406,0.787 -2.2756,0.64027 -2.27559,0.64027 -1.98438,0.26355 -1.98437,0.26356 z m 4.71197,-4.85325 0.31512,-0.003 1.32291,-0.35391 1.32292,-0.35391 1.32292,-0.67269 1.32291,-0.67268 0.48133,-0.53268 0.48132,-0.53267 -0.74591,0.0777 -0.7459,0.0778 -2.38125,1.04557 -2.38125,1.04557 -0.47979,0.17264 -0.4798,0.17264 0.16468,0.26645 0.16468,0.26645 z m 7.19428,-3.43644 h 0.13229 v -0.13229 -0.1323 h -0.13229 -0.13229 v 0.1323 0.13229 z m 0.526,-0.82062 0.35888,-0.37001 0.66769,-1.26919 0.66769,-1.26919 0.17815,-1.18798 0.17815,-1.18798 -0.83398,-1.69405 -0.83397,-1.69405 -1.20566,-1.27274 -1.20566,-1.27273 0.55292,0.76328 0.55292,0.76329 v 0.87313 0.87314 l 0.25694,0.67581 0.25694,0.67581 0.38996,2.42259 0.38996,2.42259 -0.3649,1.05915 -0.36491,1.05915 z m -0.79058,-4.47105 h 0.13229 v -0.13229 -0.13229 h -0.13229 -0.13229 v 0.13229 0.13229 z m 18.52083,3.96655 -1.05833,2.3e-4 -0.0871,-2.47299 -0.0871,-2.47299 3.23057,-0.32353 3.23058,-0.32352 1.9909,-0.38092 1.9909,-0.38092 1.61249,-0.41769 1.61248,-0.41768 1.98437,-0.65669 1.98438,-0.65669 2.91042,-1.4276 2.91041,-1.42761 1.84742,-1.3972 1.84742,-1.39721 1.63065,-2.02346 1.63065,-2.02347 0.15995,0.79977 0.15995,0.79977 v 0.78813 0.78813 l -0.93371,1.77687 -0.93372,1.77687 -1.64597,1.6577 -1.64597,1.65771 -2.11667,1.40374 -2.11666,1.40375 -1.5875,0.79253 -1.5875,0.79253 -2.33362,0.82308 -2.33362,0.82308 -2.15839,0.55109 -2.15838,0.55108 -3.4455,0.50694 -3.44549,0.50693 z m 29.10417,-15.34363 h 0.13229 v -0.13229 -0.1323 h -0.13229 -0.13229 v 0.1323 0.13229 z m -30.03021,4.68285 -3.83646,0.14666 -0.52916,-0.59249 -0.52917,-0.59249 -2.11033,-1.22695 -2.11033,-1.22696 -1.32925,-0.60814 -1.32926,-0.60815 0.79375,0.16073 0.79375,0.16072 0.92604,0.50868 0.92605,0.50867 1.83586,0.9594 1.83586,0.9594 4.64643,-0.1197 4.64643,-0.11969 2.77812,-0.59895 2.77813,-0.59894 2.16162,-0.62544 2.16163,-0.62545 2.40516,-1.03692 2.40517,-1.03692 1.83291,-1.10747 1.83292,-1.10746 2.05646,-1.75467 2.05645,-1.75466 -0.75651,0.99183 -0.75651,0.99184 -1.87882,1.62192 -1.87881,1.62191 -1.41,0.90265 -1.41,0.90265 -2.42646,1.16164 -2.42646,1.16164 -2.77813,0.79045 -2.77812,0.79045 -2.38125,0.42678 -2.38125,0.42677 z m -88.238542,-7.0641 h -0.132291 v -0.13229 -0.1323 h 0.132291 0.132292 v 0.1323 0.13229 z m 0.762521,0 h -0.132292 l 0.163521,-0.26459 0.163522,-0.26458 h 0.132291 0.132292 l -0.163521,0.26458 -0.163522,0.26459 z m 0.824979,0 h -0.132291 v -0.13229 -0.1323 h 0.132291 0.132292 v 0.1323 0.13229 z m 62.044792,-0.33083 -0.92604,-0.0415 -4.55333,-0.14456 -4.55333,-0.14457 -0.40016,-0.52917 -0.40016,-0.52916 0.11329,-0.32226 0.11329,-0.32226 -0.29391,-0.18164 -0.29391,-0.18165 0.18879,0.30547 0.18878,0.30546 h -0.14253 -0.14252 l -0.58445,-1.12448 -0.58445,-1.12448 -0.11495,-3.41423 -0.11494,-3.41424 0.42943,0.16479 0.42943,0.16478 0.01,-0.32242 0.01,-0.32243 0.6918,1.45521 0.6918,1.45521 2.16089,2.11667 2.16089,2.11666 2.16266,1.54614 2.16266,1.54614 1.25884,0.49201 1.25884,0.492 z m -12.03854,-9.45875 h 0.13229 v -0.1323 -0.13229 h -0.13229 -0.13229 v 0.13229 0.1323 z m 0.13229,-0.52917 h 0.35278 l -0.17639,-0.17639 -0.17639,-0.17639 -0.17639,0.17639 -0.17639,0.17639 z m 34.79271,7.63909 -4.49792,-0.0307 -1.5875,-0.22894 -1.5875,-0.22893 -1.85208,-0.55521 -1.85208,-0.55522 -2.07695,-1.10071 -2.07695,-1.10071 -1.03191,-0.95265 -1.0319,-0.95265 0.006,-1.29742 0.006,-1.29741 0.48502,-1.06774 0.48502,-1.06775 1.32143,-1.10636 1.32143,-1.10637 1.62732,-0.83288 1.62732,-0.83288 0.001,-0.82947 0.001,-0.82947 0.25983,-0.93529 0.25984,-0.9353 1.0616,-1.036627 1.06161,-1.03663 v 0.860586 0.860581 l 0.37173,0.71447 0.37174,0.71446 0.62045,0.57686 0.62045,0.57685 1.7026,0.80361 1.7026,0.80362 1.34011,0.25548 1.34011,0.25549 1.23542,0.163 1.23543,0.16299 0.28593,0.82022 0.28593,0.82022 v 1.18952 1.18952 l 1.78594,-0.1541 1.78593,-0.15409 1.75978,-0.54829 1.75977,-0.54829 0.56617,-0.46047 0.56617,-0.46047 0.15983,-1.91823 0.15982,-1.91823 h -0.28573 -0.28573 l -0.63421,0.24113 -0.63422,0.24113 -1.37571,0.40854 -1.37572,0.40854 0.15623,-0.25279 0.15624,-0.2528 h -0.29581 -0.29582 l 0.16353,-0.26458 0.16352,-0.26458 -0.2058,-0.33073 -0.2058,-0.33073 -0.0229,-0.92604 -0.0229,-0.92605 -0.22877,-0.50642 -0.22877,-0.506425 0.33595,0.207625 0.33594,0.20762 -0.31616,-0.59074 -0.31616,-0.590745 0.12078,-0.63181 0.12078,-0.631809 h -0.2372 -0.2372 l 0.29225,-0.546079 0.29225,-0.54608 -0.34909,-0.446108 -0.34909,-0.446108 -0.26458,-0.218234 -0.26458,-0.218234 1.052,0.175299 1.052,0.175299 1.99071,0.631513 1.9907,0.631513 1.00591,0.687054 1.00591,0.687054 0.25086,0.659821 0.25086,0.659822 0.0112,0.974962 0.0112,0.97496 0.36316,1.45521 0.36316,1.45521 0.0265,-0.26458 0.0266,-0.26459 0.25648,0.39688 0.25648,0.39687 0.004,1.50413 0.004,1.50413 -0.27198,0.71538 -0.27199,0.71538 0.13229,0.13229 0.13229,0.13229 0.28678,-0.7643 0.28677,-0.7643 0.66816,-0.97127 0.66817,-0.97128 -0.008,-1.64401 -0.008,-1.64402 -0.66375,-1.35346 -0.66376,-1.35346 -1.64139,-1.852079 -1.6414,-1.852083 -0.7802,-0.213521 -0.7802,-0.213521 0.0952,-0.09425 0.0952,-0.09425 1.05833,0.224194 1.05833,0.224194 1.19063,0.293036 1.19062,0.293037 2.16752,1.067605 2.16752,1.067606 1.37706,1.355522 1.37707,1.35552 0.65203,1.42422 0.65203,1.42422 -0.10759,1.63174 -0.10759,1.63173 -0.67095,1.45583 -0.67095,1.45583 -1.30141,1.30332 -1.3014,1.30331 -1.51476,0.98039 -1.51475,0.98039 -1.79254,0.72393 -1.79254,0.72393 -1.71979,0.50602 -1.71979,0.50602 -2.51354,0.38677 -2.51354,0.38677 z m 7.26562,-4.81813 1.50397,-0.1572 1.45033,-0.55501 1.45033,-0.55501 0.84561,-0.79028 0.8456,-0.79028 V 110.65117 110.4 h -0.12475 -0.12475 l -1.39712,0.61787 -1.39711,0.61788 -2.24845,0.74056 -2.24845,0.74056 -0.20275,0.11506 -0.20275,0.11505 0.17315,0.28018 0.17316,0.28017 z m 6.7573,-3.61471 h 0.13229 v -0.13229 -0.13229 h -0.13229 -0.1323 v 0.13229 0.13229 z m -81.754633,8.16445 -2.382872,-0.0376 -3.175,-0.22321 -3.175,-0.2232 -1.284486,-0.27148 -1.284485,-0.27148 -1.890515,-0.94576 -1.890514,-0.94576 -0.822662,-0.62366 -0.822662,-0.62365 -0.445109,-0.938 -0.445109,-0.938 0.275511,-1.02317 0.275511,-1.02317 0.910857,-1.19291 0.910856,-1.19291 1.40432,-0.91462 1.40432,-0.91462 1.256771,-0.46604 1.256771,-0.46603 9.89e-4,-0.83801 9.89e-4,-0.83802 0.494591,-0.81106 0.494591,-0.81106 1.057733,-0.83774 1.057732,-0.83774 0.147102,1.09673 0.147102,1.09673 0.503961,0.68436 0.503962,0.68437 1.395188,0.84391 1.395189,0.84391 1.361373,0.31043 1.361373,0.31044 2.116667,0.11601 2.116667,0.11602 0.587675,0.12183 0.587675,0.12182 0.299538,0.55969 0.299537,0.55969 -0.358046,0.25139 -0.358046,0.25139 2.135888,-0.12451 2.135889,-0.12451 1.36034,-0.68934 1.360341,-0.68933 0.237279,-0.46338 0.237278,-0.46338 0.155294,-1.00963 0.155293,-1.00964 -0.187909,0.0836 -0.18791,0.0836 -1.451933,0.71535 -1.451933,0.71534 -0.738038,0.17585 -0.738038,0.17585 0.05316,-0.22974 0.05316,-0.22974 -0.309202,-0.7498 -0.309201,-0.74981 0.175065,-0.28326 0.175065,-0.28326 -0.287182,0.17749 -0.287181,0.17748 -0.166189,-0.2689 -0.166189,-0.26889 h 0.289507 0.289508 l -0.274608,-0.51311 -0.274608,-0.51311 0.266014,-0.16441 0.266015,-0.16441 -0.256522,-0.47931 -0.256521,-0.47932 0.252427,-0.880158 0.252428,-0.880164 -0.195059,-0.145818 -0.195059,-0.145819 -0.02101,-0.595312 -0.02101,-0.595313 h 0.720743 0.720742 l 1.71828,0.530723 1.71828,0.530722 0.955423,1.05754 0.955424,1.057539 0.0036,0.59455 0.0036,0.59455 0.170357,0.63669 0.170357,0.63668 -0.287979,-0.17798 -0.287979,-0.17798 -0.142099,0.22992 -0.142098,0.22992 0.379985,0.502 0.379985,0.502 0.03457,-0.52917 0.03457,-0.52916 0.370438,1.18153 0.370437,1.18153 -0.149345,0.53826 -0.149345,0.53826 0.277864,-0.39687 0.277863,-0.39688 0.0041,0.50327 0.0041,0.50328 -0.859895,1.13408 -0.859896,1.13407 -1.322917,0.67073 -1.322917,0.67072 -1.190625,0.41859 -1.190625,0.41859 -1.803235,0.38219 -1.803235,0.38219 -2.165515,0.0375 -2.165515,0.0376 1.058334,0.16089 1.058333,0.16089 -0.08642,0.99219 -0.08642,0.99219 h 1.584497 1.584496 l 1.941505,-0.37355 1.941504,-0.37356 1.468127,-0.55158 1.468127,-0.55159 1.203517,-0.76324 1.203516,-0.76325 0.994683,-1.77866 0.994683,-1.77866 -0.101879,-1.75848 -0.101879,-1.75847 -0.600261,-1.23358 -0.600261,-1.23358 -1.068444,-1.213818 -1.068443,-1.213816 h 0.241453 0.241453 l 1.699262,0.686799 1.699262,0.686795 1.484906,0.89772 1.484907,0.89772 1.114958,1.20958 1.114958,1.20959 0.411456,0.97621 0.411457,0.97621 0.003,1.38855 0.003,1.38856 -0.943971,1.42172 -0.943971,1.42172 -1.144348,0.92806 -1.144347,0.92806 -1.471399,0.82279 -1.471398,0.82279 -1.57131,0.54642 -1.57131,0.54642 -2.116667,0.51818 -2.116666,0.51819 -3.305671,0.39354 -3.30567,0.39354 z m 96.835883,-2.34362 h -0.1323 v -0.13229 -0.13229 h 0.1323 0.13229 v 0.13229 0.13229 z M 52.736145,113.575 h -0.132292 v -0.13229 -0.13229 h 0.132292 0.132292 v 0.13229 0.13229 z m 33.065598,-2.99759 -0.389556,0.38956 v -0.26787 -0.26787 l 0.264583,-0.16352 0.264584,-0.16352 v -1.04272 -1.04272 h 0.298399 0.298399 l -0.173426,1.08455 -0.173427,1.08455 z m -1.051014,0.0872 H 84.618437 V 110.53229 110.4 h 0.132292 0.132291 v 0.13229 0.1323 z m 19.225661,-0.95285 -0.19811,0.12244 -0.0385,-0.51084 -0.0385,-0.51084 h 0.0876 0.0875 l 0.14904,0.3884 0.14904,0.38841 z m -0.17566,-1.16382 h -0.13229 v -0.13229 -0.13229 h 0.13229 0.13229 v 0.13229 0.13229 z m -25.664585,-7.14375 h -0.132291 v -0.13229 -0.13229 h 0.132291 0.132292 v 0.13229 0.13229 z m 6.085417,-2.645834 H 84.08927 v -0.132292 -0.132291 h 0.132292 0.132292 v 0.132291 0.132292 z"
       id="path1" /></g></svg>
