<?xml version="1.0" encoding="UTF-8" standalone="no"?>
<!-- Created with Inkscape (http://www.inkscape.org/) -->

<svg
   width="143.19965mm"
   height="102.28047mm"
   viewBox="0 0 143.19965 102.28047"
   version="1.1"
   id="svg1"
   xml:space="preserve"
   xmlns="http://www.w3.org/2000/svg"
   xmlns:svg="http://www.w3.org/2000/svg"><defs
     id="defs1" /><g
     id="layer1"
     transform="translate(-34.570886,-101.23946)"><path
       style="fill:#000000"
       d="m 87.396562,203.4818 -2.645833,-0.0412 -3.042709,-0.18237 -3.042708,-0.18236 -0.79375,-0.17969 -0.79375,-0.17969 -2.20128,-0.51704 -2.20128,-0.51705 -2.759509,-1.07892 -2.759508,-1.07891 -4.123428,-2.0962 -4.123428,-2.0962 -1.895992,-1.31795 -1.895992,-1.31796 -1.5875,-1.59038 -1.5875,-1.59037 -0.48402,-0.46557 -0.48402,-0.46557 -1.068951,-1.05833 -1.068951,-1.05833 -1.367696,-1.7198 -1.367695,-1.71979 -1.327019,-1.85208 -1.327018,-1.85208 -1.394407,-2.31831 -1.394406,-2.31831 -1.543605,-3.23794 -1.543604,-3.23794 -1.106803,-3.52559 -1.106803,-3.52559 -0.321055,-2.17145 -0.321055,-2.17145 -0.0722,-2.68835 -0.0722,-2.68834 0.530914,-0.33156 0.530914,-0.33156 -0.46326,-0.67577 -0.463259,-0.67576 0.111925,-1.25677 0.111925,-1.25677 h 0.221306 0.221307 l -0.148847,0.91724 -0.148848,0.91724 0.496211,-0.11941 0.496212,-0.11942 0.90626,-0.20931 0.90626,-0.20932 0.120252,-0.36075 0.120253,-0.36076 -0.365054,0.2146 -0.365055,0.2146 0.48894,-0.55797 0.48894,-0.55798 -0.20063,-0.3474 -0.20063,-0.3474 0.223162,0.20279 0.223161,0.20279 0.471739,-0.99654 0.471738,-0.99654 0.009,-0.33073 0.009,-0.33073 h 0.241172 0.241172 l -0.0749,-0.46302 -0.0749,-0.46302 0.253382,-0.31914 0.253382,-0.31914 -0.170684,-0.27617 -0.170685,-0.27618 h 0.255428 0.255428 l -0.13838,-0.52916 -0.13838,-0.52917 h 0.311057 0.311057 l -0.163521,-0.26458 -0.163522,-0.26459 h 0.295813 0.295813 l -0.163999,-0.26535 -0.163999,-0.26536 0.652137,-1.256 0.652137,-1.25599 0.488435,-1.66686 0.488435,-1.66685 0.434892,-0.4747 0.434892,-0.47471 0.398404,-0.76886 0.398405,-0.76886 0.818058,-0.7276 0.818059,-0.72761 h 0.12735 0.12735 l 1.396295,-0.64689 1.396295,-0.6469 0.526768,-0.0807 0.526768,-0.0807 0.263576,0.59531 0.263576,0.59531 h 0.201844 0.201843 v 0.51355 0.51355 l 0.277431,0.17147 0.277431,0.17146 -0.273272,0.32927 -0.273273,0.32927 0.09193,1.22791 0.09193,1.22791 -0.228377,-0.14114 -0.228378,-0.14115 v 0.38908 0.38908 l 0.448678,-0.0659 0.448678,-0.0658 0.09446,-0.28337 0.09445,-0.28336 -0.243066,-0.15023 -0.243067,-0.15022 0.128401,-0.67168 0.1284,-0.67169 0.194771,-0.12037 0.19477,-0.12038 -0.132205,0.69159 -0.132205,0.69159 0.587758,-0.58776 0.587759,-0.58776 -0.139275,-0.36294 -0.139274,-0.36295 0.3234,0.1241 0.323399,0.1241 0.360783,-0.86518 0.360782,-0.86517 0.05152,-0.1323 0.05152,-0.13229 0.205548,-0.7276 0.205548,-0.72761 h 0.240103 0.240103 l -0.06048,0.79375 -0.06048,0.79375 h -0.193113 -0.193113 l 0.101909,0.52917 0.101908,0.52917 h -0.192346 -0.192345 l -0.4692,0.79429 -0.469201,0.79429 0.146167,0.23651 0.146167,0.2365 -0.393841,0.75514 -0.393841,0.75514 -0.0016,0.35904 -0.0016,0.35904 -0.34161,-0.13109 -0.341609,-0.13109 -0.05426,0.65558 -0.05426,0.65558 -0.166372,0.2692 -0.166372,0.2692 -0.19469,-0.31502 -0.19469,-0.31501 -0.166082,0.4328 -0.166081,0.4328 0.261553,-0.16165 0.261552,-0.16165 v 0.41249 0.41249 H 51.54552 51.280937 v 0.37483 0.37482 l -0.317352,0.10579 -0.317351,0.10578 0.449643,0.17255 0.449643,0.17254 v -0.50453 -0.50453 l 0.727604,0.0498 0.727604,0.0498 -0.0727,-0.3504 -0.0727,-0.3504 0.287811,0.17788 0.287811,0.17788 0.497408,-0.45015 0.497407,-0.45015 -0.02397,-1.76631 -0.02397,-1.76631 0.425341,-0.78602 0.425341,-0.78602 0.01059,0.74965 0.01059,0.74965 0.330729,-0.11564 0.330729,-0.11565 -0.07317,-0.41564 -0.07317,-0.41565 0.566565,-0.39684 0.566565,-0.39684 0.347196,0.13323 0.347195,0.13323 -0.0965,-0.48392 -0.0965,-0.48392 -0.132145,-0.99218 -0.132144,-0.99219 h 0.229547 0.229547 l 0.114662,0.59531 0.114662,0.59531 0.03603,-0.9527 0.03603,-0.95271 -0.294233,-0.89938 -0.294234,-0.89937 -0.519974,-1.19063 -0.519974,-1.19062 -0.342265,-0.66146 -0.342266,-0.66146 -0.168807,-0.94088 -0.168808,-0.94088 -0.514389,-1.00894 -0.51439,-1.00895 -0.475434,-0.53607 -0.475434,-0.53607 0.529166,0.28273 0.529167,0.28272 1.179568,1.21098 1.179567,1.21098 h 0.341787 0.341786 v -0.16623 -0.16623 l -0.813168,-1.42127 -0.813168,-1.42127 h 0.231085 0.231085 l 0.3175,0.3175 0.3175,0.3175 v -0.33255 -0.33256 l 1.389062,1.67487 1.389063,1.67488 0.341601,0.60296 0.341602,0.60296 1.444336,3.68076 1.444336,3.68077 v 0.22614 0.22615 l 0.395871,1.30479 0.395871,1.30479 0.241576,0.37364 0.241576,0.37364 0.420886,-0.42089 0.420886,-0.42088 v -0.25518 -0.25517 l 0.396875,-0.1523 0.396875,-0.15229 v 0.15176 0.15176 l -0.827876,1.22668 -0.827877,1.22669 0.201016,2.25127 0.201017,2.25127 0.06259,1.05834 0.06259,1.05833 0.208949,1.45521 0.20895,1.45521 0.04125,0.45763 0.04125,0.45763 0.145979,0.14598 0.145978,0.14597 0.572034,0.11017 0.572034,0.11016 -0.141008,-0.22815 -0.141007,-0.22816 0.332378,-0.134 0.332378,-0.134 -0.3585,-0.0209 -0.3585,-0.0209 0.602339,-0.62583 0.60234,-0.62582 0.06648,-0.45299 0.06648,-0.45298 -0.376469,0.14447 -0.376469,0.14446 v -0.22797 -0.22797 l 0.381501,-0.1464 0.381502,-0.14639 -0.04093,-0.54337 -0.04093,-0.54337 H 67.5048 67.172534 l 0.166977,-0.43514 0.166977,-0.43513 -0.489333,-0.35781 -0.489333,-0.35781 -0.01668,-1.23134 -0.01668,-1.23133 0.330729,-0.11444 0.330729,-0.11443 0.0014,0.48507 0.0014,0.48507 0.622313,1.02806 0.622314,1.02807 0.185696,-0.30046 0.185696,-0.30047 -0.214053,-0.002 -0.214052,-0.002 -0.06162,-1.25493 -0.06162,-1.25493 0.392657,-0.29398 0.392656,-0.29398 0.677278,0.12947 0.677278,0.12947 0.367427,0.56139 0.367428,0.56138 -0.103173,1.26262 -0.103172,1.26262 0.223941,-0.1384 0.223942,-0.13841 -0.110386,-0.59505 -0.110387,-0.59504 0.157824,0.33237 0.157823,0.33238 0.217311,-0.1343 0.21731,-0.13431 -0.130666,0.49967 -0.130667,0.49967 0.274358,0.16957 0.274358,0.16956 0.287168,-0.53658 0.287167,-0.53658 -0.207747,5e-5 -0.207746,5e-5 0.03401,-1.25682 0.03401,-1.25682 -0.4769,-2.51354 -0.4769,-2.51354 -0.571263,-3.175 -0.571263,-3.175 -0.629223,-1.71979 -0.629222,-1.71979 -0.129002,-0.66146 -0.129002,-0.66146 -0.134734,-0.61645 -0.134734,-0.61645 -0.176889,-0.57417 -0.176889,-0.57418 -1.04187,-1.79509 -1.041871,-1.79508 -1.310866,-1.3529 -1.310865,-1.35291 0.106033,-0.10603 0.106033,-0.10603 0.710659,0.17836 0.710659,0.17836 1.326609,1.59409 1.326609,1.59408 0.258102,0.67886 0.258103,0.67886 0.215468,-0.34864 0.215468,-0.34863 -0.224347,-0.96532 -0.224348,-0.96531 -0.0063,-0.26144 -0.0063,-0.26144 0.697114,0.97976 0.697115,0.97977 1.252436,-1.77666 1.252437,-1.77666 0.563991,-0.50403 0.563991,-0.50403 v 0.31671 0.3167 l -1.719792,1.97194 -1.719792,1.97194 0.01021,0.46435 0.01021,0.46434 0.868258,2.22204 0.868258,2.22204 0.555528,-1.16371 0.555528,-1.16371 1.8733,-1.84498 1.8733,-1.84499 v 0.34443 0.34443 l -1.544822,1.89743 -1.544822,1.89743 -0.69264,1.05834 -0.69264,1.05833 0.497307,1.5007 0.497307,1.5007 0.294255,0.54982 0.294256,0.54982 h 0.257024 0.257024 l 0.593563,-0.70525 0.593563,-0.70524 0.762815,-0.89114 0.762815,-0.89114 0.115553,0.11555 0.115553,0.11555 -1.114013,1.81157 -1.114013,1.81156 -0.41738,0.70448 -0.41738,0.70449 0.362476,1.67676 0.362476,1.67677 0.198233,1.19062 0.198233,1.19063 0.239627,0.77873 0.239626,0.77873 1.074604,-1.0746 1.074603,-1.07461 0.76136,-1.35442 0.76136,-1.35443 0.342405,-0.13139 0.342404,-0.13139 -0.985596,1.78169 -0.985596,1.78169 -1.288111,1.42589 -1.288111,1.4259 0.146466,0.38168 0.146466,0.38168 v 0.78773 0.78772 l 0.215215,-0.13301 0.215216,-0.13301 -0.07232,0.91836 -0.07233,0.91836 0.358876,-0.20565 0.358876,-0.20565 1.094369,-1.32292 1.09437,-1.32291 0.145161,-0.66146 0.145162,-0.66146 0.275176,-0.72761 0.275176,-0.7276 h 0.268913 0.268912 l -0.176975,1.50578 -0.176976,1.50579 -1.86212,1.86765 -1.86212,1.86766 0.159314,1.44367 0.159314,1.44368 0.474661,0.44221 0.474662,0.44222 0.637768,-0.34133 0.637767,-0.34132 0.198727,0.12282 0.198727,0.12282 -0.150706,-0.39273 -0.150706,-0.39273 0.791291,-0.4092 0.79129,-0.40919 0.135308,-0.3363 0.135308,-0.33629 0.02089,0.35603 0.02089,0.35603 -0.581489,0.81663 -0.581489,0.81662 -1.33674,1.43163 -1.33674,1.43162 -0.14725,0.8353 -0.147249,0.83531 0.359767,0.74169 0.359768,0.74169 -0.142801,0.89855 -0.142801,0.89854 0.26288,0.16247 0.262881,0.16247 0.183616,-0.47849 0.183615,-0.4785 1.424226,-1.84332 1.424226,-1.84332 0.394174,-0.76225 0.394175,-0.76225 0.120185,0.12018 0.120185,0.12019 -0.256175,0.67379 -0.256174,0.67379 -2.129774,2.80248 -2.129775,2.80249 0.195734,0.0313 0.195733,0.0313 0.198438,-0.0313 0.198437,-0.0313 v 0.39184 0.39183 l 0.705899,0.17717 0.7059,0.17717 0.815455,-0.91373 0.815455,-0.91374 0.86708,-1.04433 0.86708,-1.04433 -0.397376,0.83383 -0.397375,0.83383 -1.458544,1.812 -1.458544,1.812 -0.0033,0.19844 -0.0033,0.19844 h -0.38126 -0.381261 l -0.19131,0.30955 -0.19131,0.30954 0.477702,-0.18331 0.477703,-0.18331 -0.334404,0.40293 -0.334404,0.40293 -0.430624,0.004 -0.430624,0.004 0.362473,0.22962 0.362473,0.22962 -0.494764,0.28745 -0.494765,0.28744 0.346615,0.008 0.346616,0.008 -0.164247,0.85989 -0.164246,0.8599 0.0078,0.39687 0.0078,0.39688 -0.0022,2.97398 -0.0022,2.97398 0.732651,-0.27856 0.73265,-0.27855 0.155434,-0.2515 0.155433,-0.25149 1.43022,-0.90178 1.43022,-0.90178 0.205669,0.12711 0.205669,0.12711 v 0.38126 0.38126 h 0.343958 0.343959 l 0.261433,-0.26143 0.261432,-0.26144 0.0406,0.53894 0.0406,0.53893 -0.530623,-0.16841 -0.530623,-0.16841 0.08307,0.45877 0.08307,0.45878 -0.37289,0.12969 -0.372891,0.1297 0.173504,-0.45214 0.173504,-0.45215 -0.272943,-0.51 -0.272944,-0.51 h -0.235874 -0.235874 l -0.08555,0.34591 -0.08555,0.34591 -1.584161,1.42822 -1.584161,1.42823 -0.610209,0.72519 -0.610208,0.72519 -0.251494,1.53557 -0.251494,1.53557 0.0345,0.92605 0.0345,0.92604 0.120283,-0.63821 0.120283,-0.6382 0.233029,0.37362 0.233029,0.37362 0.470552,-0.29099 0.470553,-0.29099 1.653646,-1.8897 1.653646,-1.88971 v 0.13377 0.13376 l -0.23525,0.45943 -0.23525,0.45943 -0.492354,1.01728 -0.492355,1.01729 -0.79375,0.72909 -0.79375,0.72908 -1.455208,1.53207 -1.455208,1.53207 0.332967,-0.18658 0.332967,-0.18659 0.226521,0.61231 0.226522,0.61231 -0.267449,0.58702 -0.267449,0.58702 -0.225894,-0.13961 -0.225894,-0.13961 v 0.30345 0.30345 l 1.097639,-0.18544 1.097638,-0.18545 -0.586488,0.82365 -0.586489,0.82365 h 0.386585 0.386584 l 0.16373,-0.42668 0.16373,-0.42667 0.375292,0.31147 0.375293,0.31146 0.292344,-0.54625 0.292344,-0.54625 h 0.387566 0.387566 v -0.26458 -0.26458 h 0.264583 0.264583 v 0.21382 0.21383 l -1.071186,0.77836 -1.071186,0.77836 -1.205574,0.89324 -1.205575,0.89325 0.31457,0.19441 0.31457,0.19442 -0.485205,0.21111 -0.485205,0.21112 -0.218104,-0.0486 -0.218104,-0.0486 0.168015,0.27185 0.168015,0.27186 0.51311,-0.27461 0.513109,-0.27461 v 0.39304 0.39304 l -0.463021,0.2591 -0.46302,0.25911 -0.02068,1.07696 -0.02068,1.07695 h 0.367023 0.367024 l -0.161649,-0.26155 -0.161648,-0.26155 0.378762,0.14534 0.378762,0.14535 0.55011,-0.69935 0.55011,-0.69936 0.428945,-0.0629 0.428944,-0.063 0.239374,-0.37825 0.239374,-0.37826 0.0041,0.46302 0.0041,0.46302 h -0.207538 -0.207537 l -0.4797,0.81207 -0.4797,0.81207 0.133912,0.13391 0.133913,0.13392 0.16136,-0.5084 0.16136,-0.50841 1.119569,-0.007 1.119569,-0.007 0.309913,0.24577 0.309914,0.24577 -0.142335,-0.54428 -0.142334,-0.54429 h 0.57564 0.57564 l -0.144993,-0.23461 -0.144994,-0.2346 0.406003,-0.33695 0.406003,-0.33696 -0.129469,-0.33739 -0.129469,-0.33739 0.256723,-0.0856 0.256723,-0.0856 0.516507,-2.11433 0.516508,-2.11433 0.146631,-1.5875 0.146632,-1.5875 0.507843,-1.71979 0.507844,-1.71979 0.282753,-2.24896 0.282752,-2.24896 0.06062,-5.33292 0.06062,-5.33293 -0.264584,0.1582 -0.264583,0.15819 0.29675,-0.38152 0.29675,-0.38152 -0.07509,-0.46428 -0.07509,-0.46428 0.225248,0.13921 0.225248,0.13921 -0.05004,-1.19631 -0.05004,-1.19631 0.198438,3e-5 0.198437,2e-5 -0.0093,-1.91823 -0.0093,-1.91823 -0.354783,-1.65364 -0.354783,-1.65365 h 0.213316 0.213317 l -0.222498,-0.7758 -0.222498,-0.77581 0.01397,-2.76052 0.01397,-2.76053 -0.150337,-0.24325 -0.150338,-0.24325 -0.300403,-2.76885 -0.300403,-2.76886 -0.155204,-0.92604 -0.155205,-0.92604 0.01865,-0.40853 0.01865,-0.40854 -0.772441,-0.51751 -0.772441,-0.51751 -7.61e-4,-0.22674 -7.6e-4,-0.22675 0.396875,0.1523 0.396875,0.15229 v -0.27189 -0.2719 l 0.301204,0.18616 0.301205,0.18615 -0.18456,-1.03043 -0.184559,-1.03044 -0.627528,-2.51354 -0.627528,-2.51354 -0.181397,-0.46957 -0.181397,-0.46957 0.831092,0.0633 0.831092,0.0633 -0.113586,0.296 -0.113587,0.296 h 0.371649 0.37165 v -0.31669 -0.3167 l -0.727604,-0.73194 -0.727605,-0.73193 -0.716793,-0.2523 -0.716793,-0.2523 -0.170111,-0.5732 -0.170112,-0.5732 -1.072922,-2.72493 -1.072923,-2.72494 -0.523314,-0.28006 -0.523314,-0.28007 0.366475,-0.2321 0.366474,-0.23209 -0.434713,-0.004 -0.434714,-0.004 -0.202329,-0.46302 -0.202329,-0.46302 0.06525,-0.38265 0.06525,-0.38265 -0.486542,0.37393 -0.486542,0.37392 0.196142,-0.23151 0.196142,-0.23152 -0.299711,-0.36113 -0.299712,-0.36113 0.434299,0.16665 0.434299,0.16666 v -0.1807 -0.18069 l -1.199127,-1.55836 -1.199127,-1.55835 -0.470713,-0.33978 -0.470714,-0.33978 -0.223123,-0.37161 -0.223124,-0.37161 0.304469,0.18818 0.304469,0.18817 0.574344,0.11061 0.574343,0.11061 0.770857,0.93518 0.770856,0.93518 0.284175,-0.17563 0.284175,-0.17563 -0.17443,0.28224 -0.17443,0.28223 1.125737,0.86313 1.125738,0.86312 0.876123,0.81375 0.876123,0.81375 -0.177978,-0.46602 -0.177978,-0.46602 0.431268,0.16549 0.431267,0.16549 -0.262968,-0.69166 -0.262968,-0.69165 0.191889,-0.004 0.191888,-0.004 -0.348319,-0.22087 -0.34832,-0.22087 -0.056,-0.37039 -0.05599,-0.37039 -0.191856,-0.30685 -0.191855,-0.30685 0.161457,-0.42076 0.161458,-0.42075 h 0.241948 0.241948 l 0.301381,0.66146 0.30138,0.66146 0.28826,0.008 0.288259,0.008 -0.529166,0.40898 -0.529167,0.40898 0.44567,-0.0867 0.445671,-0.0867 -0.0488,0.26458 -0.04879,0.26458 -0.198437,-0.0661 -0.198438,-0.0661 v 0.44979 0.4498 l 0.3175,-0.3175 0.3175,-0.3175 h 0.211667 0.211666 v 0.42927 0.42927 l 0.402932,-0.3344 0.402932,-0.33441 -0.172713,0.45008 -0.172712,0.45009 0.560555,0.14658 0.560555,0.14659 -0.144931,0.23451 -0.144931,0.2345 h 0.254316 0.254315 l 0.273702,0.7276 0.273702,0.72761 0.697766,1.67599 0.697765,1.67599 -0.468219,0.96984 -0.468218,0.96984 -0.05249,2.07544 -0.05249,2.07543 -0.292586,0.29259 -0.292586,0.29258 -0.03069,0.5424 -0.03069,0.5424 -0.116662,-0.4405 -0.116661,-0.44049 -0.336379,-0.12908 -0.336378,-0.12908 0.336959,1.29901 0.33696,1.29901 0.187754,0.3038 0.187754,0.30379 0.587673,1.74489 0.587674,1.7449 h 0.341484 0.341484 l 0.122519,0.36755 0.12252,0.36756 -0.298909,-0.18473 -0.298908,-0.18474 v 0.4535 0.4535 l 0.529167,-0.47889 0.529166,-0.47889 v -0.47255 -0.47254 l 0.305464,-0.18879 0.305464,-0.18879 -0.155714,0.25195 -0.155714,0.25195 0.243074,0.38425 0.243073,0.38424 0.0081,-0.52917 0.0081,-0.52916 0.254492,0.39687 0.254492,0.39688 -0.144081,0.46302 -0.144082,0.46302 h 0.282413 0.282413 v 0.51553 0.51554 l 0.656502,0.70837 0.656501,0.70838 -0.14295,0.2313 -0.142949,0.23129 h 0.252209 0.252209 l 0.0096,0.59532 0.0096,0.59531 0.154512,1.55274 0.154512,1.55274 0.186004,0.29934 0.186004,0.29935 0.04669,1.71979 0.04669,1.71979 0.274411,3.85267 0.274411,3.85266 -0.230587,3.95254 -0.230587,3.95254 -0.188719,2.33692 -0.18872,2.33691 -0.353803,0.35381 -0.353803,0.3538 0.230925,0.0874 0.230924,0.0874 -0.486048,3.3073 -0.486049,3.30729 -0.408697,1.93552 -0.408697,1.93553 -0.0024,1.63635 -0.0024,1.63635 -0.396897,3.04271 -0.396897,3.0427 -0.142574,1.85209 -0.142574,1.85208 0.508696,-0.92604 0.508695,-0.92604 0.679626,-2.38125 0.679627,-2.38125 0.287345,-1.80273 0.287345,-1.80273 0.107298,-2.16602 0.107299,-2.16602 0.267512,-1.19063 0.267512,-1.19062 0.158859,-1.45521 0.158859,-1.45521 0.373731,-1.45521 0.373732,-1.45521 0.263729,-3.24742 0.26373,-3.24742 0.203568,-0.32445 0.203569,-0.32446 -0.08107,-0.49194 -0.08107,-0.49194 0.286115,0.17683 0.286114,0.17683 v -0.26459 -0.26458 l -0.212877,-0.13157 -0.212878,-0.13156 0.05893,-1.14082 0.05893,-1.14082 0.0062,-1.5875 0.0062,-1.5875 -0.113012,-3.47409 -0.113011,-3.47409 -0.110652,-0.36237 -0.110652,-0.36237 -0.291655,-3.04271 -0.291654,-3.0427 -0.06641,-1.25616 -0.06641,-1.25615 0.266441,-0.13291 0.26644,-0.13291 -0.330729,-0.15434 -0.330729,-0.15434 v -0.48507 -0.48507 l 0.198437,-0.11097 0.198438,-0.11098 -0.330729,0.0806 -0.33073,0.0806 -0.04238,-0.58701 -0.04239,-0.58701 -0.108525,-1.45521 -0.108525,-1.45521 -0.13816,-1.52135 -0.13816,-1.52136 0.222924,0.004 0.222925,0.004 0.363802,0.23044 0.363802,0.23044 v 0.68672 0.68673 l 0.202074,-0.12489 0.202073,-0.12489 0.644227,0.85732 0.644227,0.85732 0.154481,0.42086 0.15448,0.42087 -0.222499,0.36001 -0.222499,0.36002 0.792051,0.48167 0.792052,0.48168 0.218596,-0.1351 0.218597,-0.1351 0.137602,0.52619 0.137602,0.52619 h 0.553937 0.553937 v 0.94387 0.94387 l -0.526799,-0.1672 -0.5268,-0.1672 -0.333096,0.21147 -0.333097,0.21146 -0.264583,0.004 -0.264584,0.004 0.04941,2.24894 0.04941,2.24893 0.144699,4.63021 0.144698,4.63021 0.16556,4.36562 0.165561,4.36562 -9.46e-4,0.59532 -9.46e-4,0.59531 h 0.205736 0.205735 l 0.13838,0.52917 0.13838,0.52916 h -0.193989 -0.193989 l 0.116973,0.79699 0.116973,0.79699 0.234078,0.14467 0.234078,0.14467 0.0041,-0.47864 0.0041,-0.47864 0.249514,0.39467 0.249515,0.39466 -0.253566,0.25357 -0.253566,0.25356 v 0.1869 0.1869 l 0.516316,-0.13502 0.516316,-0.13502 0.674309,0.72759 0.674309,0.72759 v 0.32993 0.32993 l 0.42136,0.1617 0.421353,0.16169 0.13801,-0.52772 0.138,-0.52773 0.63126,0.15844 0.63126,0.15844 0.0206,-0.624 0.0206,-0.62399 2.4e-4,-2.30549 2.5e-4,-2.30549 -0.16106,-0.50745 -0.16106,-0.50745 0.43221,-0.16585 0.43221,-0.16586 -0.14303,-0.37275 -0.14304,-0.37274 0.38017,-0.14589 0.38017,-0.14588 v -0.41833 -0.41832 l 0.45818,0.25641 0.45818,0.25641 0.0601,1.60882 0.0601,1.60882 h -0.29473 -0.29472 l 0.4638,0.51249 0.4638,0.5125 -0.16252,0.26297 -0.16253,0.26297 0.28473,0.17598 0.28473,0.17597 -0.47885,0.36306 -0.47885,0.36306 0.41203,0.008 0.41204,0.008 -0.0579,0.83628 -0.0579,0.83627 -0.42585,0.23832 -0.42586,0.23832 0.12666,0.20493 0.12665,0.20493 0.60652,-0.0548 0.60651,-0.0548 -0.063,-0.2892 -0.063,-0.28919 0.36694,0.1408 0.36694,0.14081 0.19295,-0.3122 0.19295,-0.3122 -0.31253,-0.19315 -0.31252,-0.19316 -0.0236,-1.43091 -0.0236,-1.43091 -0.25932,-0.33073 -0.25932,-0.33073 h 0.29698 0.29698 v -1.45521 -1.45521 l 0.33073,0.0661 0.33073,0.0661 0.13629,0.17966 0.1363,0.17965 -0.0346,1.87087 -0.0346,1.87087 h 0.20073 0.20074 l 0.10374,-0.33073 0.10374,-0.33073 -0.0216,-1.51372 -0.0216,-1.51372 0.32194,-0.12354 0.32194,-0.12354 0.0872,1.83346 0.0872,1.83346 -0.33723,0.12872 -0.33723,0.12872 0.17537,0.73341 0.17537,0.73341 0.1537,0.26459 0.15369,0.26458 -0.0787,0.60932 -0.0788,0.60932 0.31775,0.38287 0.31775,0.38287 h 0.20215 0.20214 l 0.21156,-1.25677 0.21156,-1.25678 -0.0305,-0.99218 -0.0305,-0.99219 h 0.24588 0.24588 v 0.50328 0.50329 l 0.79375,0.2767 0.79375,0.2767 v -0.49979 -0.49978 l 0.26458,-0.16353 0.26458,-0.16352 v -0.64584 -0.64584 h 0.28122 0.28121 l -0.0471,-0.46302 -0.0471,-0.46303 0.0533,-0.26458 0.0533,-0.26458 0.0434,-0.90273 0.0433,-0.90272 0.33073,-0.11151 0.33073,-0.11151 0.0305,2.46944 0.0305,2.46944 0.0356,0.3741 0.0356,0.3741 0.27984,0.094 0.27983,0.094 0.64621,-0.70283 0.64621,-0.70284 -0.3268,-0.11674 -0.3268,-0.11673 0.39106,-0.75623 0.39106,-0.75624 0.27302,-0.16873 0.27303,-0.16874 -0.0707,0.2181 -0.0707,0.21811 0.41855,0.59363 0.41856,0.59363 0.23212,-0.19676 0.23213,-0.19675 -0.35943,0.46908 -0.35943,0.46907 0.4373,-0.1678 0.4373,-0.16781 -0.16489,0.4297 -0.16489,0.42971 0.32378,0.39013 0.32379,0.39014 -0.15034,0.39177 -0.15034,0.39177 0.25303,0.15638 0.25303,0.15638 v -0.5604 -0.56039 l 0.26458,0.16352 0.26458,0.16352 v -0.2802 -0.2802 h -0.26458 -0.26458 v -0.26458 -0.26458 h 0.67076 0.67077 l -0.2832,0.52916 -0.2832,0.52917 h 0.10112 0.10111 l 0.57509,-0.49877 0.57509,-0.49877 -0.41908,-0.16082 -0.41909,-0.16082 0.18214,-0.2947 0.18213,-0.2947 0.22746,0.35898 0.22746,0.35897 0.004,-0.61092 0.004,-0.61093 0.26459,0.16352 0.26458,0.16352 v -0.40418 -0.40419 l 0.36214,0.13897 0.36213,0.13896 -0.0808,-0.7357 -0.0808,-0.73571 0.31394,-0.38839 0.31394,-0.3884 -0.33073,0.1987 -0.33073,0.19869 v -0.21655 -0.21655 l 0.55519,-0.34673 0.55519,-0.34672 -0.13778,-0.52686 -0.13778,-0.52685 0.37634,-0.14442 0.37634,-0.14441 v -0.36857 -0.36857 h 0.2802 0.28019 l -0.16352,-0.26458 -0.16352,-0.26458 h 0.53164 0.53163 l 0.21158,0.37808 0.21159,0.37808 0.14086,-0.0473 0.14087,-0.0474 1.1159,0.50321 1.11591,0.5032 v 0.63689 0.63689 l -0.26458,-0.16352 -0.26459,-0.16352 -0.0414,0.61093 -0.0414,0.61092 -0.0516,0.74085 -0.0516,0.74084 0.42376,-0.14618 0.42375,-0.14618 -0.45891,0.35754 -0.4589,0.35754 0.15404,0.15405 0.15405,0.15404 0.32691,-0.12544 0.32691,-0.12545 0.0286,0.34211 0.0286,0.34212 0.12756,0.52916 0.12755,0.52917 0.0202,0.74322 0.0203,0.74322 0.26458,-0.16352 0.26458,-0.16352 v 1.15673 1.15674 l -0.74208,0.71096 -0.74208,0.71096 h -0.29705 -0.29705 l -0.57233,0.72761 -0.57233,0.7276 -0.1449,-0.0436 -0.14489,-0.0435 -0.22397,-0.35333 -0.22396,-0.35333 -0.004,0.34634 -0.004,0.34635 -0.30546,-0.18879 -0.30546,-0.18878 0.16384,0.2651 0.16384,0.2651 0.68719,-0.0367 0.68719,-0.0367 0.26551,-0.38595 0.26552,-0.38595 -0.15562,0.55804 -0.15563,0.55804 0.17478,0.45546 0.17478,0.45547 0.45127,-0.11801 0.45126,-0.11801 0.31716,0.50786 0.31716,0.50785 0.48521,-0.154 0.4852,-0.154 0.1517,0.5801 0.1517,0.5801 0.46105,-0.37424 0.46106,-0.37424 -0.1987,0.33073 -0.19869,0.33073 0.21405,-0.002 0.21405,-0.002 0.34076,-0.72554 0.34075,-0.72554 1.04831,-4.58833 1.04831,-4.58833 0.004,-0.83563 0.004,-0.83563 0.25648,0.39688 0.25648,0.39687 0.0261,-0.13229 0.0261,-0.13229 0.0678,-0.61962 0.0678,-0.61963 0.37315,-0.23622 0.37316,-0.23622 0.19843,-0.004 0.19844,-0.004 v 0.49832 0.49832 l 0.63549,0.12148 0.63549,0.12148 0.7109,-0.7532 0.7109,-0.7532 0.24111,0.14901 0.24111,0.14902 v -0.0835 -0.0835 l 0.25997,-0.90645 0.25996,-0.90645 -0.23428,0.24674 -0.23429,0.24674 -0.12728,0.52916 -0.12728,0.52917 -0.0307,-0.67469 -0.0307,-0.67468 0.28237,-0.28237 0.28236,-0.28237 -0.41466,-0.15912 -0.41466,-0.15912 v 0.38857 0.38857 h -0.23151 -0.23151 v -0.65043 -0.65043 l 0.29766,0.0551 0.29766,0.0551 -0.0665,-0.52917 -0.0665,-0.52917 -0.13408,-1.71979 -0.13409,-1.71979 -0.15841,-0.79375 -0.15841,-0.79375 -1.27909,-3.77031 -1.2791,-3.77031 h 0.12601 0.12601 l -0.28717,-0.53658 -0.28717,-0.53658 -0.18516,0.11199 -0.18516,0.11198 -0.0623,-1.27299 -0.0623,-1.27298 -1.33108,-3.96334 -1.33108,-3.96335 -1.06804,-2.31178 -1.06805,-2.31178 -1.05716,-1.55673 -1.05716,-1.55674 0.14569,-0.23572 0.14569,-0.23573 -1.05201,-1.33088 -1.052,-1.33088 1.22102,-1.07479 1.22103,-1.07479 h 0.24208 0.24209 l -0.71861,0.61812 -0.71861,0.61813 0.1903,0.30792 0.19031,0.30792 h 0.53094 0.53095 l 0.57792,0.32493 0.57792,0.32493 0.66145,0.0412 0.66146,0.0412 1.10669,0.0969 1.10669,0.0969 -0.004,0.92604 -0.004,0.92604 0.53647,1.5875 0.53647,1.5875 1.5362,4.34368 1.53621,4.34369 0.39688,0.13111 0.39687,0.13111 -0.39687,-0.49069 -0.39688,-0.49069 0.33073,0.1987 0.33073,0.19869 0.0268,-0.34634 0.0268,-0.34634 0.10473,-5.02709 0.10473,-5.02708 8e-4,-0.33073 8e-4,-0.33073 h 0.24223 0.24222 l 0.006,2.97656 0.006,2.97657 0.28537,3.0427 0.28538,3.04271 0.16924,5.36444 0.16925,5.36444 0.32643,0.4464 0.32642,0.44641 0.36761,-0.30509 0.36761,-0.30509 0.48935,-1.36083 0.48935,-1.36084 1.46004,-1.57701 1.46003,-1.57701 0.5534,-0.29618 0.55341,-0.29617 0.66396,-0.10238 0.66396,-0.10239 2.51354,-0.0527 2.51354,-0.0527 2.11667,0.15461 2.11667,0.15462 -1.98438,0.0479 -1.98437,0.0479 -0.36463,0.23095 -0.36463,0.23095 0.17051,0.27589 0.1705,0.27588 -0.30978,0.19145 -0.30978,0.19146 0.1928,-0.37161 0.19279,-0.37161 -0.41437,0.51068 -0.41437,0.51068 0.34001,0.41536 0.34002,0.41536 0.29092,0.66146 0.29093,0.66146 0.55756,1.42434 0.55756,1.42435 0.002,0.9569 0.002,0.95691 0.50069,2.11667 0.50069,2.11666 0.15932,3.48515 0.15932,3.48515 0.16019,0.41746 0.16019,0.41745 h 0.31227 0.31226 l 0.0399,0.52917 0.0399,0.52916 h -0.37539 -0.37539 l -0.1922,0.72761 -0.19219,0.7276 0.0699,0.34579 0.0699,0.34578 0.51411,0.51411 0.51411,0.51411 v -0.26458 -0.26458 l 0.19844,0.0504 0.19843,0.0504 0.85337,-0.20228 0.85337,-0.20228 -0.0596,-0.31114 -0.0596,-0.31115 0.52917,0.0736 0.52917,0.0736 0.60613,0.1326 0.60613,0.1326 -0.1794,0.29029 -0.17941,0.29028 0.48827,-0.27325 0.48828,-0.27325 0.36139,0.43823 0.36139,0.43823 -0.15623,-0.31245 -0.15623,-0.31244 0.2689,-0.16619 0.2689,-0.16619 v 0.5604 0.56039 l 0.2895,-0.17892 0.2895,-0.17892 -0.11802,-0.61738 -0.11802,-0.61738 0.15925,0.0183 0.15925,0.0183 0.33073,-0.0313 0.33073,-0.0313 v -0.79375 -0.79375 h -0.24518 -0.24519 l -0.11372,0.33073 -0.11371,0.33073 0.11801,-0.52917 0.11802,-0.52916 0.28033,-3.43959 0.28034,-3.43958 -0.32619,-3.01759 -0.32618,-3.0176 -0.22732,-0.59791 -0.22733,-0.59792 0.39318,-0.15088 0.39317,-0.15087 -0.29059,-0.54298 -0.29059,-0.54298 -0.24828,-3.04611 -0.24828,-3.04611 -0.16085,-0.71431 -0.16086,-0.71432 -1.18982,-4.10104 -1.18983,-4.10104 -0.78969,-1.98438 -0.7897,-1.98437 -0.40184,-0.83261 -0.40184,-0.83262 -1.2298,-1.8624 -1.2298,-1.8624 -3.87583,-3.95038 -3.87582,-3.95039 6.30108,0.0308 6.30108,0.0308 -0.0799,0.08 -0.08,0.08 -3.99113,0.18454 -3.99112,0.18454 1.92712,1.98437 1.92711,1.98438 0.59662,0.85989 0.59662,0.8599 h 0.29188 0.29188 l 0.54544,0.46302 0.54544,0.46302 -0.39231,-0.50605 -0.39232,-0.50605 0.33238,-0.11186 0.33237,-0.11186 -0.13825,-0.2237 -0.13826,-0.22371 0.26588,-0.16432 0.26587,-0.16432 1.51011,2.31672 1.51011,2.31671 1.76974,4.11318 1.76974,4.11318 0.96549,2.64583 0.96549,2.64583 0.24993,0.59532 0.24993,0.59531 2.32078,0.0477 2.32077,0.0477 -1.98437,0.15077 -1.98438,0.15077 -0.49081,-0.14841 -0.49082,-0.14842 -1.12347,-3.02658 -1.12347,-3.02659 -0.80166,-1.98437 -0.80166,-1.98438 -0.99131,-2.11666 -0.9913,-2.11667 -0.29692,-0.19439 -0.29691,-0.19438 0.26458,-0.0125 0.26459,-0.0125 -0.42313,-0.32232 -0.42314,-0.32231 -0.0399,-0.19844 -0.0399,-0.19844 v -0.24814 -0.24814 l -0.52274,0.0394 -0.52274,0.0394 -0.26905,0.77179 -0.26905,0.77179 1.48616,4.00103 1.48616,4.00104 0.24269,0.26237 0.24269,0.26237 0.2205,-0.35677 0.22049,-0.35676 0.18098,0.29283 0.18098,0.29283 h -0.2719 -0.27189 l 0.0806,0.33073 0.0806,0.33073 -0.11098,-0.19844 -0.11098,-0.19844 h -0.21776 -0.21776 l 0.14865,0.59532 0.14865,0.59531 0.35574,0.52189 0.35575,0.52189 v -0.27053 -0.27054 l -0.26604,-0.26605 -0.26605,-0.26604 0.5464,-0.58649 0.5464,-0.58649 0.24881,0.15377 0.24881,0.15378 v 0.26458 0.26458 l -0.26458,-0.16352 -0.26459,-0.16352 v 0.41249 0.41249 h 0.39688 0.39687 v 0.26458 0.26459 h -0.26458 -0.26458 v 0.2359 0.2359 l 0.65212,0.16367 0.65212,0.16367 -0.14485,0.37747 -0.14485,0.37747 -0.33088,-0.12697 -0.33088,-0.12697 v 0.38495 0.38495 l 0.60799,-0.23116 0.60799,-0.23116 0.18254,0.29535 0.18254,0.29536 -0.27774,-0.17166 -0.27774,-0.17165 -0.16001,0.417 -0.16002,0.41699 v 0.12627 0.12626 l 0.30626,-0.18928 0.30626,-0.18928 -0.1492,0.57054 -0.14919,0.57054 0.30595,0.004 0.30596,0.004 -0.36928,0.23383 -0.36928,0.23382 0.17541,0.45712 0.17541,0.45711 -0.25506,0.30733 -0.25506,0.30732 0.0521,1.77501 0.0521,1.77501 0.19014,8e-4 0.19013,7.9e-4 -0.15229,0.39688 -0.1523,0.39687 h 0.29289 0.29289 v 0.51718 0.51718 l 0.90776,0.17029 0.90775,0.1703 -0.14231,0.37086 -0.14231,0.37086 h -0.36857 -0.36857 v 0.24897 0.24897 l 0.30547,0.18878 0.30546,0.18879 -0.18879,-0.30546 -0.18879,-0.30547 h 0.67708 0.67707 v -0.39687 -0.39688 h 0.28241 0.28242 l -0.17112,0.59532 -0.17111,0.59531 -0.12913,0.46302 -0.12913,0.46302 h 0.29803 0.29803 l -0.1574,-0.25468 -0.1574,-0.25467 0.80272,0.0562 0.80271,0.0562 5.3e-4,0.40597 5.2e-4,0.40597 0.79375,0.46888 0.79375,0.46888 v 0.23622 0.23621 l -0.83701,0.78226 -0.83701,0.78225 -0.33332,-0.1279 -0.33332,-0.12791 -0.31127,0.58162 -0.31128,0.58161 0.27771,-0.17163 0.2777,-0.17163 0.28717,0.53658 0.28717,0.53657 h 0.50424 0.50424 l 0.16786,0.2716 0.16786,0.2716 0.31078,-0.0384 0.31078,-0.0384 0.46302,0.0314 0.46302,0.0314 v 1.75064 1.75063 l 0.6482,-0.12391 0.6482,-0.12391 0.1446,0.37682 0.1446,0.37681 -0.26363,0.49261 -0.26364,0.4926 v 0.28198 0.28198 h 0.39688 0.39687 v -0.66146 -0.66146 h 0.26458 0.26459 v 0.26459 0.26458 h 0.52916 0.52917 v 0.20617 0.20618 l -0.52917,0.3814 -0.52916,0.3814 v 0.20618 0.20617 h 0.3544 0.35441 l 0.29707,0.65201 0.29708,0.65201 -0.23425,0.14477 -0.23425,0.14478 -0.17367,0.79071 -0.17367,0.79072 h -0.39147 -0.39146 l 0.15637,0.25303 0.15638,0.25303 0.38841,-0.14905 0.3884,-0.14904 v 0.43348 0.43349 l -0.38107,0.14623 -0.38107,0.14623 0.29125,0.63922 0.29124,0.63921 h 0.22212 0.22211 v 0.37483 0.37483 l -0.27972,0.0932 -0.27973,0.0932 0.17574,0.45797 0.17574,0.45798 h 0.25189 0.25189 l -0.16477,-0.26662 -0.16478,-0.26661 0.39485,-0.39485 0.39484,-0.39484 0.48192,0.0179 0.48192,0.0179 -0.59072,0.28506 -0.59072,0.28506 0.15714,0.62607 0.15713,0.62606 -0.42631,-0.16359 -0.42631,-0.16359 v 0.4408 0.4408 l 0.28485,-0.17605 0.28485,-0.17604 0.51921,0.5573 0.51921,0.55731 -0.20875,0.004 -0.20874,0.004 0.39687,0.27157 0.39688,0.27156 -0.39688,-0.0424 -0.39687,-0.0424 -0.45472,0.0314 -0.45472,0.0313 0.15985,0.41655 0.15985,0.41656 0.6256,-0.15701 0.62559,-0.15702 v 0.28524 0.28524 l -0.23685,-0.14639 -0.23686,-0.14638 -0.16002,0.41699 -0.16002,0.417 v 0.54853 0.54853 l 0.5029,-0.45511 0.5029,-0.45512 0.15565,0.25184 0.15565,0.25184 -0.37824,0.3139 -0.37823,0.31391 0.14865,0.38739 0.14865,0.38738 -0.43006,0.47522 -0.43006,0.47521 h 0.43427 0.43428 l 0.12685,-0.48507 0.12685,-0.48507 h 0.38491 0.38492 l -0.40583,0.40583 -0.40582,0.40582 0.23592,0.62051 0.23592,0.62051 -0.0618,0.42122 -0.0618,0.42121 -0.18404,0.18405 -0.18405,0.18405 v 0.22048 0.22049 h 0.26458 0.26458 v -0.38373 -0.38373 l 0.40163,-0.22476 0.40163,-0.22476 0.23084,-1.17745 0.23084,-1.17745 0.029,0.5789 0.029,0.57889 -0.41419,1.78596 -0.41419,1.78596 -0.24168,0.45159 -0.24169,0.45159 -0.86548,0.30201 -0.86548,0.30202 -4.89243,-0.032 -4.89244,-0.032 -0.49444,2.00442 -0.49444,2.00443 -0.16937,-0.10321 -0.16938,-0.10321 -0.0473,0.83316 -0.0473,0.83316 -0.80223,2.43952 -0.80222,2.43951 -1.46127,3.06279 -1.46127,3.06279 -0.84608,1.24457 -0.84609,1.24457 -1.01031,1.16173 -1.01031,1.16173 v 0.59181 0.59181 l 0.33073,0.26101 0.33073,0.261 4.6302,0.17352 4.63021,0.17351 0.0919,0.27038 0.0919,0.27038 0.37115,-0.30803 0.37114,-0.30802 v 0.26458 0.26459 l -0.33072,0.27095 -0.33073,0.27095 -1.85057,0.19606 -1.85057,0.19607 -1.8536,0.67866 -1.8536,0.67865 -6.87916,0.0975 -6.87917,0.0975 -1.19063,0.18369 -1.19062,0.1837 -0.92604,-0.19351 -0.92604,-0.1935 -2.31364,-0.56395 -2.31363,-0.56396 -2.65542,0.0271 -2.65542,0.0271 -0.78563,-0.40627 -0.78564,-0.40627 v -0.27669 -0.27669 l 0.41577,0.41578 0.41578,0.41577 h 0.24568 0.24569 v -0.20578 -0.20578 l -0.5652,-0.48394 -0.5652,-0.48394 0.32111,-0.19846 0.32111,-0.19845 -2.32736,-1.55922 -2.32735,-1.55922 -0.58574,-0.87258 -0.58573,-0.87258 -0.11014,-0.31804 -0.11015,-0.31805 -1.31241,1.22016 -1.31241,1.22016 -1.64995,1.21462 -1.64994,1.21462 -3.62605,1.80994 -3.62605,1.80994 -1.98438,0.69687 -1.98437,0.69687 -2.38125,0.67551 -2.38125,0.67551 -1.984373,0.41737 -1.984375,0.41738 -3.307292,0.37651 -3.307292,0.37651 z m 58.935938,-4.18585 0.99219,0.004 v -0.10145 -0.10145 l -0.64436,-0.12317 -0.64435,-0.12318 -0.34783,0.22057 -0.34784,0.22057 z m -2.3151,-0.26054 h 0.13229 v -0.13229 -0.13229 h -0.13229 -0.1323 v 0.13229 0.13229 z m -13.49375,-1.5875 h 0.13229 v -0.13229 -0.13229 h -0.13229 -0.1323 v 0.13229 0.13229 z m -0.77814,-0.26458 h 0.11668 v -0.11668 -0.11667 l -0.30547,-0.18879 -0.30546,-0.18879 0.18879,0.30547 0.18878,0.30546 z m 34.24793,0 h 0.35278 l -0.17639,-0.17639 -0.17639,-0.17639 -0.17639,0.17639 -0.17639,0.17639 z m -35.05729,-0.52917 h 0.13229 v -0.13229 -0.13229 h -0.13229 -0.1323 v 0.13229 0.13229 z m 4.81451,-3.43958 h 0.14114 l -0.42819,-0.65349 -0.42818,-0.65349 0.39775,0.15263 0.39776,0.15263 v 0.23628 0.23627 h 0.79375 0.79375 v -0.37482 -0.37483 l 0.3175,-0.10583 0.3175,-0.10584 v -0.97454 -0.97455 l 0.27781,-0.004 0.27781,-0.004 -0.26458,-0.19438 -0.26458,-0.19439 -0.0315,-2.75993 -0.0315,-2.75994 0.35183,0.48116 0.35183,0.48115 -0.0171,1.43542 -0.0172,1.43542 0.15823,0.15823 0.15823,0.15823 0.51183,-0.46319 0.51183,-0.4632 0.61427,0.20856 0.61428,0.20856 0.19843,-0.0524 0.19844,-0.0524 v 0.39687 0.39688 h 0.16927 0.16927 l 0.35148,-0.46302 0.35149,-0.46302 0.008,0.59755 0.008,0.59756 0.53724,-0.33298 0.53724,-0.33297 0.22759,0.36569 0.22758,0.36569 0.17905,-0.56413 0.17905,-0.56412 h 0.37904 0.37905 v 0.29289 0.29289 l 0.42101,-0.16156 0.42102,-0.16156 0.96804,0.4502 0.96805,0.45019 0.21858,0.27837 0.21858,0.27837 0.14418,-0.36067 0.14418,-0.36067 0.21239,0.34366 0.21239,0.34365 0.41704,-0.34611 0.41704,-0.34611 v 0.53325 0.53326 l 0.36693,0.1408 0.36692,0.14081 -0.13423,-0.51331 -0.13423,-0.5133 0.41807,0.16043 0.41807,0.16043 0.0768,2.02344 0.0768,2.02345 0.42739,0.0815 0.42739,0.0816 0.87008,-1.3559 0.87008,-1.3559 1.03701,-1.23633 1.03701,-1.23632 1.71456,-3.54263 1.71456,-3.54264 -0.14774,-0.38501 -0.14774,-0.38501 0.57142,-1.23173 0.57143,-1.23173 -0.0599,-0.36271 -0.0599,-0.36271 0.52906,-2.15083 0.52906,-2.15084 0.26509,-1.19062 0.26508,-1.19063 0.185,-2.18281 0.18501,-2.18281 h -0.43671 -0.43672 l -0.85087,1.78594 -0.85088,1.78593 -1.08556,1.08918 -1.08556,1.08918 -1.43133,0.4772 -1.43132,0.4772 -4.36664,-0.0265 -4.36664,-0.0265 -1.19857,-0.51376 -1.19857,-0.51377 -0.89625,-1.02078 -0.89626,-1.02077 -0.88873,-1.92356 -0.88874,-1.92355 h -0.23874 -0.23875 l -0.14652,0.46302 -0.14652,0.46302 -0.40048,3.79857 -0.40047,3.79857 -0.0152,1.88997 -0.0152,1.88997 -0.21891,1.05833 -0.21891,1.05834 -0.0304,-0.48845 -0.0304,-0.48844 -0.42991,-1.47886 -0.42992,-1.47886 -0.33655,0.64439 -0.33655,0.64438 -1.10783,3.25804 -1.10783,3.25804 -0.14752,2.47269 -0.14752,2.47268 0.32198,1.28074 0.32199,1.28073 0.53079,0.8599 0.53078,0.85989 z m -0.58118,-1.5875 h -0.13229 v -0.13229 -0.13229 h 0.13229 0.13229 v 0.13229 0.13229 z m 3.04271,-8.99583 h -0.26459 l 0.0186,-1.25677 0.0186,-1.25677 0.22739,0.52916 0.22739,0.52917 0.0186,0.7276 0.0186,0.72761 z m -1.71979,10.58333 h 0.13229 V 193.08229 192.95 h -0.13229 -0.1323 v 0.13229 0.13229 z m 22.225,-1.85208 h 0.13229 v -0.13229 -0.1323 h -0.13229 -0.1323 v 0.1323 0.13229 z m -8.20209,-1.05834 h 0.13229 v -0.13229 -0.13229 h -0.13229 -0.13229 v 0.13229 0.13229 z m -95.779165,-0.26458 h 0.132292 v -0.13229 -0.13229 h -0.132292 -0.132292 v 0.13229 0.13229 z m 84.276335,0 h 0.23942 l 0.29972,-0.56003 0.29973,-0.56004 -0.42271,-0.4227 -0.4227,-0.4227 -0.0302,0.25513 -0.0302,0.25513 -0.0863,0.72761 -0.0863,0.7276 z m 0.12575,-0.26458 h -0.13229 v -0.13229 -0.1323 h 0.13229 0.13229 v 0.1323 0.13229 z m 0.26458,-0.52917 h -0.13229 v -0.13229 -0.13229 h 0.13229 0.13229 v 0.13229 0.13229 z m 19.84375,0.79375 h 0.13229 v -0.13229 -0.13229 h -0.13229 -0.13229 v 0.13229 0.13229 z m 0.52917,-0.26458 h 0.13229 v -0.13229 -0.1323 h -0.13229 -0.13229 v 0.1323 0.13229 z m -81.21147,-0.52917 h 0.116677 v -0.11668 -0.11667 l -0.305464,-0.18879 -0.305463,-0.18879 0.188786,0.30547 0.188787,0.30546 z m 2.630219,-1.85208 h 0.132291 v -0.13229 -0.1323 h -0.132291 -0.132292 v 0.1323 0.13229 z m -4.233334,-0.52917 h 0.132292 V 186.73229 186.6 h -0.132292 -0.132291 v 0.13229 0.13229 z m 0.529167,0 h 0.132292 V 186.73229 186.6 H 75.490312 75.35802 v 0.13229 0.13229 z M 78.136145,186.6 h 0.132292 v -0.13229 -0.1323 h -0.132292 -0.132291 v 0.1323 0.13229 z m 83.387845,-5.11528 0.17639,-0.17639 -0.17639,-0.17639 -0.17639,-0.17639 v 0.35278 0.35278 z m 0.35278,-1.10243 0.22739,-0.52917 0.0145,-0.26458 0.0145,-0.26458 -0.25648,0.39687 -0.25648,0.39688 0.0145,0.39687 0.0145,0.39688 z m -87.444791,-3.04271 h 0.132291 v -0.13229 -0.13229 h -0.132291 -0.132292 v 0.13229 0.13229 z m 88.679511,-1.14653 0.17639,-0.17638 -0.17639,-0.17639 -0.17639,-0.17639 v 0.35278 0.35277 z m 1.80799,-3.0868 h 0.13229 v -0.13229 -0.13229 h -0.13229 -0.13229 v 0.13229 0.13229 z m 0.79375,0 h 0.13229 v -0.13229 -0.13229 h -0.13229 -0.13229 v 0.13229 0.13229 z m 10.05417,-1.5875 h 0.13229 v -0.13229 -0.13229 h -0.13229 -0.1323 v 0.13229 0.13229 z m -0.63886,-2.26293 0.25061,-0.15489 -0.15489,-0.25061 -0.15489,-0.25062 -0.25061,0.15489 -0.25062,0.15489 0.15489,0.25062 0.15489,0.25061 z m -0.15489,-0.11832 h -0.1323 v -0.13229 -0.13229 h 0.1323 0.13229 v 0.13229 0.13229 z M 154.60073,167.55 h 0.13229 v -0.13229 -0.13229 h -0.13229 -0.13229 v 0.13229 0.13229 z m 3.70417,0 h 0.13229 v -0.13229 -0.13229 h -0.13229 -0.1323 v 0.13229 0.13229 z m -89.826046,-0.52917 h 0.233353 l 0.129577,-0.20966 0.129577,-0.20966 -0.516556,-0.0389 -0.516555,-0.0389 0.153625,0.24857 0.153625,0.24857 z m 8.334375,-0.26458 h 0.132291 v -0.13229 -0.13229 h -0.132291 -0.132292 v 0.13229 0.13229 z m -4.233334,-0.26458 h 0.132292 v -0.1323 -0.13229 h -0.132292 -0.132291 v 0.13229 0.1323 z m 0.529167,0 h 0.132292 v -0.1323 -0.13229 H 73.109062 72.97677 v 0.13229 0.1323 z m -5.55625,-0.26459 h 0.132292 v -0.13229 -0.13229 H 67.552812 67.42052 v 0.13229 0.13229 z m 9.260417,0 h 0.132291 v -0.13229 -0.13229 h -0.132291 -0.132292 v 0.13229 0.13229 z m -3.96875,-0.26458 h 0.132291 v -0.13229 -0.13229 h -0.132291 -0.132292 v 0.13229 0.13229 z m 76.264251,-0.79375 0.39754,-0.92604 0.63629,-2.36145 0.63629,-2.36144 0.16077,-1.90188 0.16077,-1.90188 -0.98435,-0.18466 -0.98434,-0.18467 -2.02799,0.17691 -2.02798,0.1769 v 0.6078 0.6078 l 0.18609,-0.11501 0.18609,-0.11501 0.29265,1.13246 0.29265,1.13246 1.1867,3.175 1.1867,3.175 0.1523,0.39688 0.15229,0.39687 z m -77.322585,0.52917 h 0.132292 v -0.1323 -0.13229 h -0.132292 -0.132291 v 0.13229 0.1323 z m 50.270835,0 h 0.13229 v -0.1323 -0.13229 h -0.13229 -0.13229 v 0.13229 0.1323 z m 1.32292,0 h 0.13229 v -0.1323 -0.13229 h -0.13229 -0.1323 v 0.13229 0.1323 z m 32.80833,0 h 0.13229 v -0.1323 -0.13229 h -0.13229 -0.13229 v 0.13229 0.1323 z m -83.608335,-0.26459 h 0.132292 v -0.13229 -0.13229 h -0.132292 -0.132291 v 0.13229 0.13229 z m 50.667705,-0.26458 h 0.35278 l -0.17639,-0.17639 -0.17639,-0.17639 -0.17638,0.17639 -0.17639,0.17639 z m -1.33853,-0.52917 h 0.24897 l 0.16165,-0.26155 0.16165,-0.26155 -0.41062,0.15757 -0.41062,0.15756 v 0.10399 0.10398 z m -0.11667,-1.05833 h 0.13229 v -0.13229 -0.13229 h -0.13229 -0.1323 v 0.13229 0.13229 z m -1.17501,-0.26458 h 0.28019 l -0.15222,-0.24631 -0.15222,-0.2463 0.27321,-0.16885 0.27322,-0.16886 -0.15489,-0.25062 -0.15489,-0.25061 -0.2463,0.15222 -0.2463,0.15222 v 0.51355 0.51356 z m 0.11667,-0.79375 h -0.13229 v -0.1323 -0.13229 h 0.13229 0.13229 v 0.13229 0.1323 z m 0.52917,0.52916 h 0.13229 v -0.13229 -0.13229 h -0.13229 -0.13229 v 0.13229 0.13229 z m -17.68299,-0.35278 0.17639,-0.17638 -0.17639,-0.17639 -0.17639,-0.17639 v 0.35278 0.35277 z m 69.27674,0.0882 h 0.13229 v -0.13229 -0.13229 h -0.13229 -0.13229 v 0.13229 0.13229 z m -10.01035,-0.26458 h 0.0699 l 0.24065,-0.46302 0.24065,-0.46303 -0.19334,-0.52916 -0.19334,-0.52917 -0.11717,0.99219 -0.11716,0.99219 z m -61.98755,-0.26459 h 0.13229 l 0.16353,-0.26458 0.16352,-0.26458 h -0.13229 -0.1323 l -0.16352,0.26458 -0.16352,0.26458 z m 2.192,-0.0882 0.17639,-0.17639 -0.17639,-0.17639 -0.17639,-0.17639 v 0.35278 0.35278 z m -29.942018,-0.17639 h 0.132292 v -0.13229 -0.13229 H 73.109062 72.97677 v 0.13229 0.13229 z m 32.131258,0 h 0.24897 l 0.13627,-0.22049 0.13627,-0.22048 h -0.38524 -0.38524 v 0.22048 0.22049 z m -69.115986,-0.6302 0.123858,-0.12386 -0.280791,-0.48287 -0.28079,-0.48286 -0.008,0.1768 -0.008,0.17679 0.164978,0.42993 0.164978,0.42992 z m 136.071186,0.10103 h 0.26458 V 161.2 160.93542 h -0.26458 -0.26458 v 0.26458 0.26458 z m -8.15751,-0.4679 0.27954,-0.27955 -0.11568,-0.34705 -0.11569,-0.34706 -0.16386,0.6266 -0.16386,0.62661 z m -90.928948,-0.0613 h 0.132292 v -0.1323 -0.13229 H 73.109062 72.97677 v 0.13229 0.1323 z m 45.989638,-0.18792 0.31245,-0.19654 -0.48245,-0.0955 -0.48245,-0.0955 0.14341,-0.37374 0.14342,-0.37373 h -0.27189 -0.2719 l 0.18879,-0.30546 0.18878,-0.30547 -0.30546,0.18879 -0.30546,0.18879 v 0.38126 0.38126 h -0.2802 -0.2802 l 0.17467,0.28262 0.17467,0.28262 0.36164,-0.13878 0.36164,-0.13877 0.15904,0.25734 0.15905,0.25735 z m -12.12297,-0.0767 h 0.13229 v -0.13229 -0.13229 h -0.13229 -0.13229 v 0.13229 0.13229 z m 19.84375,-0.26458 h 0.13229 v -0.13229 -0.13229 h -0.13229 -0.13229 v 0.13229 0.13229 z m 36.38021,-0.13229 0.26458,-0.16352 v -0.26459 -0.26458 l -0.26458,0.16352 -0.26459,0.16352 v 0.26459 0.26458 z m -90.090628,-0.13229 h 0.132292 v -0.1323 -0.13229 H 73.109062 72.97677 v 0.13229 0.1323 z m 23.547917,0 h 0.132292 v -0.1323 -0.13229 h -0.132292 -0.132292 v 0.13229 0.1323 z m 55.992141,-0.30855 0.22371,-0.35291 0.004,-0.46302 0.004,-0.46302 h -0.23628 -0.23627 l -0.1523,0.39687 -0.15229,0.39688 0.1608,0.41906 0.16081,0.41905 z m 18.66446,0.22035 0.17639,-0.17639 -0.17639,-0.17639 -0.17639,-0.17639 v 0.35278 0.35278 z M 117.55906,159.877 h 0.13229 v -0.13229 -0.13229 h -0.13229 -0.13229 v 0.13229 0.13229 z m 46.30209,0 h 0.13229 v -0.13229 -0.13229 h -0.13229 -0.1323 v 0.13229 0.13229 z m -60.325,-0.26458 h 0.13229 v -0.13229 -0.13229 h -0.13229 -0.1323 v 0.13229 0.13229 z m 7.18784,-0.0882 0.17639,-0.17638 -0.17639,-0.17639 -0.17639,-0.17639 v 0.35278 0.35277 z m 8.95174,0.0882 h 0.13229 v -0.13229 -0.13229 h -0.13229 -0.13229 v 0.13229 0.13229 z m -17.19792,-0.26458 h 0.13229 v -0.1323 -0.13229 h -0.13229 -0.13229 v 0.13229 0.1323 z m 15.08125,0 h 0.13229 v -0.1323 -0.13229 h -0.13229 -0.13229 v 0.13229 0.1323 z m -40.745831,-0.26459 h 0.132291 v -0.13229 -0.13229 h -0.132291 -0.132292 v 0.13229 0.13229 z m 29.633331,0 h 0.13229 v -0.13229 -0.13229 h -0.13229 -0.13229 v 0.13229 0.13229 z m 13.22917,0 h 0.13229 v -0.13229 -0.13229 h -0.13229 -0.13229 v 0.13229 0.13229 z m 40.78709,-0.1934 0.13177,-0.32569 -0.12196,-0.46806 -0.12197,-0.46806 -0.01,0.79375 -0.01,0.79375 z m -87.309661,-0.15937 0.176389,-0.17639 -0.176389,-0.17639 -0.176389,-0.17639 v 0.35278 0.35277 z m 45.993401,0.0882 h 0.13229 v -0.13229 -0.13229 h -0.13229 -0.13229 v 0.13229 0.13229 z m 0.52917,-0.26458 h 0.13229 v -0.1323 -0.13229 h -0.13229 -0.13229 v 0.13229 0.1323 z m 36.5125,-0.26459 h 0.13229 v -0.13229 -0.13229 h -0.13229 -0.13229 v 0.13229 0.13229 z m 0.79375,0 h 0.13229 v -0.13229 -0.13229 h -0.13229 -0.13229 v 0.13229 0.13229 z m 9.83368,-0.61736 0.17639,-0.17639 -0.17639,-0.17639 -0.17639,-0.17638 v 0.35277 0.35278 z m -47.13993,-0.17639 h 0.13229 v -0.13229 -0.13229 h -0.13229 -0.13229 v 0.13229 0.13229 z m 45.92952,-0.33629 0.27279,-0.46859 0.31447,0.18028 0.31447,0.18028 -0.2061,-0.22647 -0.20609,-0.22647 -0.38922,-0.0571 -0.38922,-0.0571 0.008,0.5719 0.008,0.5719 z m 0.37256,0.33629 h 0.13229 v -0.13229 -0.13229 h -0.13229 -0.13229 v 0.13229 0.13229 z m -92.659009,-0.26458 h 0.07745 l 0.02303,-1.32292 0.02303,-1.32291 h -0.07459 -0.07459 l -0.279861,0.80281 -0.279861,0.80281 0.275509,-0.17028 0.27551,-0.17027 -0.052,0.49194 -0.052,0.49194 0.03047,0.19844 0.03047,0.19844 z m 61.438179,-0.79375 h 0.13229 v -0.13229 -0.13229 h -0.13229 -0.13229 v 0.13229 0.13229 z m -99.175746,-1.54017 0.385945,-1.14174 -0.08218,-0.55655 -0.08218,-0.55655 -0.303067,-0.0997 -0.303067,-0.0997 -0.09381,1.13731 -0.09381,1.13731 0.09311,0.66068 0.09311,0.66067 z m 126.956996,1.011 h 0.13229 v -0.13229 -0.13229 h -0.13229 -0.13229 v 0.13229 0.13229 z m -27.2677,-0.26458 h 0.11668 l 0.16352,-0.26458 0.16352,-0.26459 h -0.2802 -0.2802 v 0.26459 0.26458 z M 66.229895,155.3791 h 0.132292 v -0.1323 -0.13229 h -0.132292 -0.132292 v 0.13229 0.1323 z m 54.768755,0 h 0.13229 v -0.1323 -0.13229 h -0.13229 -0.1323 v 0.13229 0.1323 z M 72.844479,154.85 h 0.132291 v -0.13229 -0.13229 h -0.132291 -0.132292 v 0.13229 0.13229 z m 5.55625,0 h 0.132291 v -0.13229 -0.13229 h -0.132291 -0.132292 v 0.13229 0.13229 z m -5.55625,-0.52917 h 0.132291 v -0.13229 -0.13229 h -0.132291 -0.132292 v 0.13229 0.13229 z m 4.7625,0 h 0.132291 v -0.13229 -0.13229 h -0.132291 -0.132292 v 0.13229 0.13229 z m 25.104191,0 h 0.13229 l 0.16352,-0.26458 0.16352,-0.26458 h -0.13229 -0.13229 l -0.16352,0.26458 -0.16353,0.26458 z m 22.52081,0 h 0.13229 v -0.13229 -0.13229 h -0.13229 -0.13229 v 0.13229 0.13229 z m -51.814238,-0.35277 0.176389,-0.17639 -0.176389,-0.17639 -0.176388,-0.17639 v 0.35278 0.35277 z m 98.513198,0.0882 h 0.35278 l -0.17639,-0.17639 -0.17639,-0.17639 -0.17639,0.17639 -0.17639,0.17639 z M 65.965312,153.79167 h 0.132291 v -0.1323 -0.13229 H 65.965312 65.83302 v 0.13229 0.1323 z m 11.377083,0 h 0.132292 v -0.1323 -0.13229 h -0.132292 -0.132291 v 0.13229 0.1323 z M 65.934467,153.2625 h 0.101448 l 0.126446,-0.66146 0.126445,-0.66146 H 66.060913 65.83302 v 0.66146 0.66146 z m 7.482115,-0.19844 0.133452,-0.33073 -0.133452,-0.33073 -0.133452,-0.33073 v 0.66146 0.66146 z m 51.815398,-0.0661 h 0.13229 v -0.1323 -0.13229 h -0.13229 -0.13229 v 0.13229 0.1323 z m 0.52917,0 h 0.13229 v -0.1323 -0.13229 h -0.13229 -0.1323 v 0.13229 0.1323 z m -3.96875,-0.26459 h 0.13229 v -0.13229 -0.13229 h -0.13229 -0.1323 v 0.13229 0.13229 z m -49.212505,-0.79375 h 0.132292 v -0.13229 -0.13229 h -0.132292 -0.132291 v 0.13229 0.13229 z m 0.821311,-0.0717 0.159852,-0.15986 -0.138964,-0.34726 -0.138964,-0.34727 -0.02089,0.50712 -0.02089,0.50712 z m -7.171311,-0.45751 h 0.132292 v -0.1323 -0.13229 h -0.132292 -0.132292 v 0.13229 0.1323 z m 56.620835,-0.26459 h 0.13229 v -0.13229 -0.13229 h -0.13229 -0.13229 v 0.13229 0.13229 z m -49.713361,-0.26458 h 0.368568 v -0.2802 -0.2802 l -0.264583,0.16352 -0.264584,0.16353 v -0.26459 -0.26458 l 0.264584,-0.16352 0.264583,-0.16352 -0.02089,-0.31512 -0.02089,-0.31511 -0.134002,0.33238 -0.134002,0.33237 -0.282865,-0.17482 -0.282866,-0.17482 0.188787,0.30547 0.188787,0.30546 h -0.271894 -0.271895 l 0.152296,0.39687 0.152295,0.39688 z m 93.341301,0 h 0.10399 l 0.15757,-0.41062 0.15756,-0.41061 -0.26155,0.16164 -0.26155,0.16165 v 0.24897 0.24897 z m -18.27186,-0.26458 h 2.79081 l 0.13004,-0.21041 0.13004,-0.21041 -0.26521,-3.81029 -0.26521,-3.81029 -0.26399,-0.49328 -0.26399,-0.49327 -0.56217,0.0822 -0.56217,0.0822 -0.9923,1.98437 -0.9923,1.98438 -0.71539,2.11666 -0.71539,2.11667 -0.12179,0.33073 -0.1218,0.33073 z M 35.506998,150.35208 h 0.132292 l 0.163521,-0.26458 0.163522,-0.26458 H 35.834041 35.70175 l -0.163522,0.26458 -0.163521,0.26458 z m 30.502411,-0.0882 0.176389,-0.17639 -0.176389,-0.17639 -0.176389,-0.17639 v 0.35278 0.35278 z m 28.001737,0.0882 h 0.132291 v -0.13229 -0.13229 h -0.132291 -0.132292 v 0.13229 0.13229 z m 69.894094,-0.35277 0.17639,-0.17639 -0.17639,-0.17639 -0.17639,-0.17639 v 0.35278 0.35277 z m -97.939928,-0.44098 h 0.132291 v -0.13229 -0.13229 H 65.965312 65.83302 v 0.13229 0.13229 z m -30.956251,-0.26458 h 0.132292 v -0.13229 -0.13229 H 35.009061 34.87677 v 0.13229 0.13229 z m 129.954519,-0.0882 0.17639,-0.17639 -0.17639,-0.17639 -0.17639,-0.17639 v 0.35278 0.35277 z m -98.954171,-0.26459 0.176389,-0.17639 -0.176389,-0.17639 -0.176389,-0.17638 v 0.35277 0.35278 z m 7.31506,-0.15322 0.215407,-0.21586 -0.08795,-1.16042 -0.08795,-1.16043 -0.127457,1.37628 -0.127458,1.37628 z m 92.152481,0.24142 h 0.10399 v -0.71438 -0.71437 l -0.27326,0.27325 -0.27326,0.27326 0.16928,0.44112 0.16927,0.44112 z m -1.6158,-0.26459 h 0.13229 V 148.63229 148.5 h -0.13229 -0.1323 v 0.13229 0.13229 z M 72.844479,148.5 h 0.132291 v -0.13229 -0.13229 h -0.132291 -0.132292 v 0.13229 0.13229 z m 91.016671,-0.26458 h 0.13229 v -0.13229 -0.1323 h -0.13229 -0.1323 v 0.1323 0.13229 z m 0.79375,-0.26459 h 0.13229 v -0.13229 -0.13229 h -0.13229 -0.1323 v 0.13229 0.13229 z m 0.15012,-0.52916 h 0.24675 v -0.41578 -0.41577 l 0.41578,0.41577 0.41577,0.41578 h 0.37798 0.37797 v -0.35314 -0.35314 l -0.73373,-0.65376 -0.73373,-0.65375 -0.48131,0.45696 -0.48132,0.45696 0.17454,0.54993 0.17454,0.54994 z m 0.37904,-1.05834 h -0.13229 v -0.13229 -0.13229 h 0.13229 0.13229 v 0.13229 0.13229 z m -1.55994,0.7221 0.15986,-0.15986 -0.13897,-0.34726 -0.13896,-0.34727 -0.0209,0.50712 -0.0209,0.50712 z M 72.315312,146.9125 h 0.132292 v -0.13229 -0.13229 H 72.315312 72.18302 v 0.13229 0.13229 z m 73.818748,0 h 0.13229 v -0.13229 -0.13229 h -0.13229 -0.13229 v 0.13229 0.13229 z m -80.168748,-0.52917 h 0.132291 v -0.13229 -0.13229 H 65.965312 65.83302 v 0.13229 0.13229 z m 0.529167,0 h 0.132291 v -0.13229 -0.13229 h -0.132291 -0.132292 v 0.13229 0.13229 z m 0.0441,-0.52916 h 0.617361 v -0.28122 -0.28121 l -0.463021,0.0762 -0.463021,0.0762 -0.330729,-0.20744 -0.330729,-0.20745 v 0.2361 0.2361 l 0.176389,0.17639 0.176389,0.17639 z m 5.776736,0 h 0.132292 v -0.13229 -0.1323 H 72.315312 72.18302 v 0.1323 0.13229 z m 0.818976,-0.0882 h 0.371649 v -0.35278 -0.35277 h -0.236276 -0.236276 l -0.135373,0.35277 -0.135374,0.35278 z m 73.528939,0.0882 h 0.13229 v -0.13229 -0.1323 h -0.13229 -0.13229 v 0.1323 0.13229 z m -98.954165,-1.05834 h 0.132291 v -0.13229 -0.13229 H 47.709062 47.57677 v 0.13229 0.13229 z m 25.415615,0 h 0.116677 v -0.26458 -0.26458 H 72.961158 72.68096 l 0.163522,0.26458 0.163521,0.26458 z m 90.13301,-0.26458 h 0.20658 v -0.66976 -0.66976 l -0.39535,-0.15172 -0.39536,-0.15171 0.14639,-0.23686 0.14638,-0.23686 h -0.43453 -0.43454 l 0.10865,0.19844 0.10865,0.19844 0.36828,0.85989 0.36828,0.8599 z M 39.771561,144.26667 h 0.132292 v -0.13229 -0.1323 H 39.771561 39.63927 v 0.1323 0.13229 z m 33.337501,-0.26459 h 0.132292 v -0.13229 -0.13229 H 73.109062 72.97677 v 0.13229 0.13229 z m -0.79375,-0.26458 h 0.132292 v -0.13229 -0.13229 H 72.315312 72.18302 v 0.13229 0.13229 z m 0.869752,-0.75717 0.111411,-0.33424 -0.159852,-0.15985 -0.159853,-0.15985 -0.158786,0.15879 -0.158785,0.15878 0.207227,0.3353 0.207227,0.3353 z m -0.340585,-1.3595 h 0.132291 v -0.13229 -0.13229 h -0.132291 -0.132292 v 0.13229 0.13229 z m 91.693741,0 h 0.24897 v -0.22048 -0.22049 h -0.38524 -0.38523 l 0.13626,0.22049 0.13627,0.22048 z m -91.693741,-0.52916 h 0.132291 v -0.13229 -0.1323 h -0.132291 -0.132292 v 0.1323 0.13229 z m -25.664584,-0.26459 h 0.132292 v -0.13229 -0.13229 h -0.132292 -0.132292 v 0.13229 0.13229 z m 25.4,-0.52916 h 0.132292 v -0.13229 -0.1323 h -0.132292 -0.132291 v 0.1323 0.13229 z m -4.233333,-0.52917 h 0.132292 v -0.13229 -0.13229 H 68.346562 68.21427 v 0.13229 0.13229 z m 0.529167,0 h 0.132291 v -0.13229 -0.13229 h -0.132291 -0.132292 v 0.13229 0.13229 z m -1.058334,-0.26458 h 0.132292 v -0.13229 -0.1323 h -0.132292 -0.132291 v 0.1323 0.13229 z m -12.7,-1.05834 h 0.132292 v -0.13229 -0.13229 h -0.132292 -0.132292 v 0.13229 0.13229 z m -4.734939,-0.8654 0.159852,-0.15986 -0.138964,-0.34726 -0.138964,-0.34727 -0.02089,0.50712 -0.02089,0.50712 z m 4.073481,-0.19293 h 0.352777 l -0.176388,-0.17639 -0.176389,-0.17639 -0.176389,0.17639 -0.176389,0.17639 z m 107.051523,-0.0717 0.15985,-0.15985 -0.13896,-0.34727 -0.13897,-0.34726 -0.0209,0.50712 -0.0209,0.50712 z m -82.147858,-0.65153 0.328766,-0.32632 -0.148113,-0.14812 -0.148112,-0.14811 -0.180653,0.47443 -0.180654,0.47444 z m -29.26929,-0.59973 h 0.132291 V 135.93229 135.8 H 50.090312 49.95802 v 0.13229 0.13229 z M 51.236839,135.8 h 0.132292 l -0.172276,-0.17228 -0.172277,-0.17227 0.458909,-0.34848 0.458908,-0.34847 -0.434713,-0.008 -0.434714,-0.008 -0.142369,0.37101 -0.142369,0.371 0.158159,0.15816 0.158159,0.15816 z m 28.222223,-0.52917 h 0.132292 v -0.13229 -0.13229 H 79.459062 79.32677 v 0.13229 0.13229 z m -28.839584,-0.26458 h 0.132292 v -0.13229 -0.13229 h -0.132292 -0.132291 v 0.13229 0.13229 z m 4.233334,0 h 0.132291 v -0.13229 -0.13229 H 54.852812 54.72052 v 0.13229 0.13229 z m 93.927088,-0.26458 h 0.13229 v -0.13229 -0.1323 h -0.13229 -0.1323 v 0.1323 0.13229 z m -98.160422,-0.26459 h 0.132292 v -0.13229 -0.13229 h -0.132292 -0.132291 v 0.13229 0.13229 z m 96.837502,-0.0516 0.79375,0.01 -0.32569,-0.13178 -0.3257,-0.13177 -0.46805,0.12197 -0.46806,0.12197 z m 13.75833,0.0516 h 0.13229 v -0.13229 -0.13229 h -0.13229 -0.13229 v 0.13229 0.13229 z M 53.000728,133.94792 h 0.132292 v -0.13229 -0.1323 h -0.132292 -0.132291 v 0.1323 0.13229 z m 107.950002,-0.52917 h 0.13229 v -0.13229 -0.13229 h -0.13229 -0.13229 v 0.13229 0.13229 z m 1.05833,-0.52917 h 0.13229 v -0.13229 -0.13229 h -0.13229 -0.13229 v 0.13229 0.13229 z M 56.572603,132.09583 h 0.264584 v -0.11667 -0.11668 l -0.264584,-0.16352 -0.264583,-0.16352 v 0.2802 0.28019 z m 0.661459,-0.26458 h 0.132291 v -0.13229 -0.13229 H 57.234062 57.10177 v 0.13229 0.13229 z M 161.4799,130.50833 h 0.13229 v -0.13229 -0.13229 h -0.13229 -0.1323 v 0.13229 0.13229 z m -0.92605,-0.26458 h 0.35278 l -0.17639,-0.17639 -0.17639,-0.17639 -0.17638,0.17639 -0.17639,0.17639 z M 160.42156,129.45 h 0.13229 v -0.13229 -0.13229 h -0.13229 -0.13229 v 0.13229 0.13229 z m -67.689234,-1.14653 0.176389,-0.17639 -0.176389,-0.17638 -0.176389,-0.17639 v 0.35277 0.35278 z m 67.733334,-0.52916 0.17639,-0.17639 -0.17639,-0.17639 -0.17639,-0.17639 v 0.35278 0.35278 z m -66.719098,-0.17639 h 0.132292 v -0.13229 -0.1323 h -0.132292 -0.132291 v 0.1323 0.13229 z m 62.205568,-12.17083 h 0.0726 l 0.15222,-0.24631 0.15222,-0.2463 -0.2248,-0.13893 -0.2248,-0.13894 v 0.38524 0.38524 z m 0.74965,0 h 0.11668 l 0.16352,-0.26459 0.16352,-0.26458 h -0.2802 -0.2802 v 0.26458 0.26459 z m -32.37605,-0.45769 0.50937,-0.1332 v -0.23372 -0.23373 h -0.36856 -0.36857 l -0.1408,0.36693 -0.14081,0.36693 z m 31.8625,-0.86523 h 0.13229 v -0.13229 -0.13229 h -0.13229 -0.13229 v 0.13229 0.13229 z m -74.612501,-2.91042 h 0.132291 v -0.13229 -0.13229 h -0.132291 -0.132292 v 0.13229 0.13229 z m -3.704167,-0.26458 h 0.132292 v -0.13229 -0.13229 H 77.871562 77.73927 v 0.13229 0.13229 z m 68.494688,-2.91042 h 0.0999 l 0.36313,-0.46302 0.36313,-0.46302 -0.46302,0.36313 -0.46303,0.36312 v 0.0999 0.0999 z m -65.271181,-0.35719 0.180799,-0.18079 -0.283228,-0.28323 -0.283227,-0.28323 -0.203035,0.32852 -0.203035,0.32852 0.305464,-0.18879 0.305463,-0.18879 v 0.3243 0.32429 z m -1.402653,77.8801 h -0.132292 l 0.163521,-0.26458 0.163522,-0.26458 h 0.132291 0.132292 l -0.163521,0.26458 -0.163522,0.26458 z m -0.497937,-0.26458 h -0.132292 v -0.13229 -0.13229 h 0.132292 0.132291 v 0.13229 0.13229 z m 2.116666,-1.05833 h -0.132291 v -0.13229 -0.1323 h 0.132291 0.132292 v 0.1323 0.13229 z m -0.501606,-4.30499 -0.159852,0.15985 0.02089,-0.50712 0.02089,-0.50712 0.138965,0.34727 0.138964,0.34726 z m 0.237023,-1.25126 H 80.91427 v -0.13229 -0.13229 h 0.132292 0.132292 v 0.13229 0.13229 z m -3.96875,-0.26458 H 76.94552 v -0.1323 -0.13229 h 0.132292 0.132292 v 0.13229 0.1323 z m 1.5875,0 H 78.53302 v -0.1323 -0.13229 h 0.132292 0.132292 v 0.13229 0.1323 z m 2.356039,-0.28664 -0.107081,0.11025 v -0.95453 -0.95452 l 0.265738,-0.16424 0.265739,-0.16423 -0.158658,1.00851 -0.158658,1.00852 z m -1.54146,-0.56696 -0.47684,0.45672 0.350281,-0.58328 0.350282,-0.58328 0.126558,0.12656 0.126559,0.12656 z m -2.931246,-0.7339 h -0.132291 v -0.1323 -0.13229 h 0.132291 0.132292 v 0.13229 0.1323 z m 0.116677,-0.52917 h -0.280198 l 0.163521,-0.26458 0.163522,-0.26459 h 0.116677 0.116676 v 0.26459 0.26458 z m 3.58749,-0.26458 H 80.12052 v -0.1323 -0.13229 h 0.132292 0.132292 v 0.13229 0.1323 z m -2.353689,-0.86541 -0.159853,0.15985 0.02089,-0.50712 0.02089,-0.50712 0.138964,0.34727 0.138964,0.34726 z m 3.175,-0.79375 -0.159853,0.15985 0.02089,-0.50712 0.02089,-0.50712 0.138964,0.34727 0.138964,0.34726 z m -2.437118,-0.19293 H 78.53302 v -0.24897 -0.24896 l 0.261553,-0.16165 0.261553,-0.16165 -0.157569,0.41062 -0.157568,0.41061 z m 97.394975,-5.02708 h -0.13229 v -0.13229 -0.13229 h 0.13229 0.13229 v 0.13229 0.13229 z m 0,-1.05833 h -0.13229 v -0.1323 -0.13229 h 0.13229 0.13229 v 0.13229 0.1323 z m 0.26458,-0.52917 h -0.13229 v -0.13229 -0.13229 h 0.13229 0.13229 v 0.13229 0.13229 z m 0.84385,-1.65365 -0.121,0.46302 v -0.92604 -0.92604 l 0.121,0.46302 0.121,0.46302 z m -93.977181,-0.19843 h -0.132292 v -0.1323 -0.13229 h 0.132292 0.132291 v 0.13229 0.1323 z m 94.234601,-2.05052 -0.13345,0.33072 v -0.66145 -0.66146 l 0.13345,0.33073 0.13346,0.33073 z m -94.234601,-0.0661 h -0.132292 v -0.13229 -0.13229 h 0.132292 0.132291 v 0.13229 0.13229 z m -0.176389,-1.15072 -0.48507,0.43898 v -0.27628 -0.27627 l 0.48507,-0.59904 0.485069,-0.59903 v 0.43633 0.43633 z m 94.41215,-0.26039 -0.17639,0.17639 v -0.35278 -0.35278 l 0.17639,0.17639 0.17639,0.17639 z m -77.30243,-0.44097 h -0.132289 v -0.1323 -0.13229 h 0.132289 0.13229 v 0.13229 0.1323 z m 27.51667,0 h -0.13229 v -0.1323 -0.13229 h 0.13229 0.13229 v 0.13229 0.1323 z M 107.76948,161.2 h -0.13229 v -0.13229 -0.13229 h 0.13229 0.13229 v 0.13229 0.13229 z m 66.675,-0.52917 h -0.13229 v -0.13229 -0.13229 h 0.13229 0.13229 v 0.13229 0.13229 z m 3.175,0 h -0.13229 v -0.13229 -0.13229 h 0.13229 0.13229 v 0.13229 0.13229 z m -76.72917,-0.52916 h -0.13229 v -0.1323 -0.13229 h 0.13229 0.13229 v 0.13229 0.1323 z m 74.08334,-0.26459 h -0.1323 v -0.13229 -0.13229 h 0.1323 0.13229 v 0.13229 0.13229 z m -74.09164,-0.26458 h -0.1406 l -0.15912,-0.41466 -0.15912,-0.41466 0.29972,-0.29972 0.29971,-0.29971 v 0.71437 0.71438 z m 0.53747,0 h -0.13229 v -0.13229 -0.13229 h 0.13229 0.13229 v 0.13229 0.13229 z m 3.175,0 h -0.13229 v -0.13229 -0.13229 h 0.13229 0.13229 v 0.13229 0.13229 z m 68.79167,-0.26458 h -0.1323 v -0.1323 -0.13229 h 0.1323 0.13229 v 0.13229 0.1323 z m -71.96667,-1.05834 h -0.13229 v -0.13229 -0.13229 h 0.13229 0.13229 v 0.13229 0.13229 z m 8.74686,0 h -0.11667 l -0.15223,-0.2463 -0.15222,-0.2463 0.2689,-0.16619 0.2689,-0.16619 v 0.41249 0.41249 z M 82.634062,158.025 H 82.50177 v -0.13229 -0.13229 h 0.132292 0.132292 v 0.13229 0.13229 z m 30.925018,0 h -0.13229 l 0.16352,-0.26458 0.16352,-0.26459 h 0.1323 0.13229 l -0.16352,0.26459 -0.16353,0.26458 z m 3.20623,0 h -0.13229 v -0.13229 -0.13229 h 0.13229 0.13229 v 0.13229 0.13229 z m 36.38021,-0.26458 h -0.35278 l 0.17639,-0.17639 0.17639,-0.17639 0.17639,0.17639 0.17639,0.17639 z m -51.96306,-0.33625 -0.15986,0.15986 0.0209,-0.50712 0.0209,-0.50712 0.13896,0.34727 0.13897,0.34726 z m 16.77348,0.0717 h -0.26459 v -0.24897 -0.24896 l 0.26459,-0.16353 0.26458,-0.16352 v 0.41249 0.41249 z m 42.20104,-0.26458 h -0.13229 v -0.13229 -0.13229 h 0.13229 0.13229 v 0.13229 0.13229 z m 17.52771,-2.59376 -0.0859,2.72605 -4.3e-4,-5.29167 -4.2e-4,-5.29166 0.0863,2.56561 0.0863,2.56561 z m -67.54574,2.32918 h -0.0893 l -0.1177,-0.19844 -0.11769,-0.19844 0.067,-1.12448 0.067,-1.12448 h -0.36183 -0.36183 v -0.23627 -0.23628 l 0.41851,-0.1606 0.41852,-0.1606 h 0.0463 0.0463 l 0.037,1.71979 0.037,1.7198 z m 0.80553,-0.52917 h -0.13229 v -0.13229 -0.13229 h 0.13229 0.13229 v 0.13229 0.13229 z m 7.18785,-0.0882 -0.17639,0.17638 v -0.35277 -0.35278 l 0.17639,0.17639 0.17639,0.17639 z m -1.88057,-0.17639 h -0.11668 l -0.18878,-0.30547 -0.18879,-0.30546 0.30546,0.18879 0.30547,0.18878 v 0.11668 0.11668 z m -33.236438,-0.26459 h -0.280198 l 0.163521,-0.26458 0.163522,-0.26458 h 0.116677 0.116676 v 0.26458 0.26458 z m 17.610408,0 h -0.13229 v -0.13229 -0.13229 h 0.13229 0.13229 v 0.13229 0.13229 z m 0.52917,-0.26458 h -0.1323 v -0.13229 -0.13229 h 0.1323 0.13229 v 0.13229 0.13229 z m 15.34583,0 h -0.13229 v -0.13229 -0.13229 h 0.13229 0.13229 v 0.13229 0.13229 z m 1.32292,0 h -0.1323 v -0.13229 -0.13229 h 0.1323 0.13229 v 0.13229 0.13229 z m -17.19792,-0.26458 h -0.13229 v -0.1323 -0.13229 h 0.13229 0.13229 v 0.13229 0.1323 z m 25.51509,-0.12166 -0.21082,0.13029 -0.15108,-0.24447 -0.15109,-0.24446 0.22421,-0.60611 0.22422,-0.60611 0.13769,0.72028 0.13769,0.72028 z m -0.11509,-0.14293 h 0.13229 V 154.98229 154.85 h -0.13229 -0.13229 v 0.13229 0.13229 z m 29.10417,0 h -0.1323 V 154.98229 154.85 h 0.1323 0.13229 v 0.13229 0.13229 z m 1.08268,-0.17824 -0.36949,0.14178 -0.15816,-0.15816 -0.15816,-0.15815 v -0.23611 -0.2361 l 0.30547,0.18879 0.30546,0.18879 -0.20204,-0.32691 -0.20203,-0.3269 -0.61638,0.1547 -0.61638,0.15471 -0.15016,-0.24296 -0.15015,-0.24296 0.33238,-0.134 0.33237,-0.134 -0.33073,-0.0209 -0.33073,-0.0209 v -0.65843 -0.65843 l 0.45568,-0.5322 0.45568,-0.53219 h 0.69394 0.69394 l 0.43788,0.48386 0.43788,0.48385 v 0.534 0.53399 l -0.52367,0.6038 -0.52367,0.60381 0.12528,0.2027 0.12528,0.20271 z m 0.8135,0.09 -0.17639,0.17639 V 154.85 154.49722 l 0.17639,0.17639 0.17639,0.17639 z m -71.966671,-0.26458 -0.176389,0.17638 v -0.35277 -0.35278 l 0.176389,0.17639 0.176389,0.17639 z m 15.401631,0.0882 h -0.23219 v -0.52917 -0.52916 h 0.11066 0.11065 l 0.42527,0.16319 0.42526,0.16319 -0.30373,0.36597 -0.30373,0.36598 z m 15.53921,-0.26458 h -0.16098 l -0.0296,-0.33073 -0.0296,-0.33073 -0.10027,-0.86933 -0.10027,-0.86933 0.59287,-0.23838 0.59286,-0.23838 -0.32242,-0.0168 -0.32243,-0.0168 0.16081,-0.41906 0.16081,-0.41906 0.1912,0.30937 0.1912,0.30936 0.21121,10e-4 0.21122,0.001 0.24358,-0.43525 0.24358,-0.43526 0.36393,0.30204 0.36392,0.30203 0.25485,-0.1575 0.25484,-0.1575 0.4308,0.4308 0.43081,0.43081 -0.15928,0.15927 -0.15927,0.15928 -0.18406,-0.28446 -0.18405,-0.28445 -0.52916,0.5312 -0.52917,0.53121 0.31956,-0.18165 0.31955,-0.18165 -0.37676,0.72622 -0.37677,0.72622 0.1895,0.14238 0.1895,0.14239 0.07,0.39687 0.07,0.39688 -0.36072,-0.45891 -0.36073,-0.45891 -0.21469,0.19433 -0.2147,0.19432 0.21812,-0.37569 0.21811,-0.37569 -0.44028,0.16895 -0.44028,0.16895 v -0.25628 -0.25628 h -0.5342 -0.53421 l 0.16601,0.66146 0.16602,0.66146 z m 0.52804,-0.0717 -0.15985,0.15985 0.0209,-0.50712 0.0209,-0.50712 0.13897,0.34727 0.13896,0.34727 z m 17.43494,0.0717 h -0.13229 v -0.1323 -0.13229 h 0.13229 0.13229 v 0.13229 0.1323 z m -25.09132,-0.35278 -0.17639,0.17639 v -0.35278 -0.35278 l 0.17639,0.17639 0.17639,0.17639 z m 48.11007,0.0882 h -0.13229 v -0.13229 -0.13229 h 0.13229 0.13229 v 0.13229 0.13229 z m 0.57326,-0.0882 -0.17639,0.17639 v -0.35278 -0.35278 l 0.17639,0.17639 0.17639,0.17639 z m -37.61493,-0.17639 h -0.13229 v -0.13229 -0.13229 h 0.13229 0.13229 v 0.13229 0.13229 z m -13.22916,-0.26458 h -0.1323 v -0.1323 -0.13229 h 0.1323 0.13229 v 0.13229 0.1323 z m 28.31041,0 h -0.13229 v -0.1323 -0.13229 h 0.13229 0.13229 v 0.13229 0.1323 z m -2.38125,-0.26459 h -0.13229 v -0.13229 -0.13229 h 0.13229 0.13229 v 0.13229 0.13229 z m -30.42708,-0.79375 h -0.13229 v -0.13229 -0.13229 h 0.13229 0.13229 v 0.13229 0.13229 z m 7.80521,0 h -0.26459 v -0.39687 -0.39688 h 0.26459 0.26458 v 0.39688 0.39687 z m 10.18646,0 h -0.1323 v -0.13229 -0.13229 h 0.1323 0.13229 v 0.13229 0.13229 z m -35.93227,-0.26458 h -0.289193 l 0.296824,-0.29682 0.296824,-0.29683 -0.139923,-0.36463 -0.139923,-0.36464 h 0.292891 0.29289 v 0.24295 0.24294 l -0.160599,0.41852 -0.160599,0.41851 z m 15.94507,0 h -0.253429 l -0.0036,-0.46302 -0.0036,-0.46302 -0.168801,-0.63074 -0.168801,-0.63073 0.370851,0.12323 0.37086,0.12323 0.055,0.97052 0.055,0.97053 z m 3.09796,-0.35278 -0.17639,0.17639 v -0.35278 -0.35277 l 0.17639,0.17638 0.17639,0.17639 z m 4.20485,0.0882 h -0.11668 l -0.18878,-0.30547 -0.18879,-0.30546 0.30546,0.18879 0.30547,0.18878 v 0.11668 0.11668 z m -23.828115,-0.26459 h -0.132291 v -0.13229 -0.13229 h 0.132291 0.132292 v 0.13229 0.13229 z m 42.377435,-0.0882 -0.17639,0.17639 v -0.35278 -0.35278 l 0.17639,0.17639 0.17639,0.17639 z m -18.68637,-0.72311 -0.20929,0.33863 -0.16111,-0.26067 -0.1611,-0.26067 -0.12786,-1.6858 -0.12787,-1.68581 -0.23897,-1.71979 -0.23898,-1.71979 0.231,-0.44697 0.23101,-0.44696 -0.26962,-0.16663 -0.26961,-0.16663 0.14884,-0.24084 0.14884,-0.24083 -0.27753,-0.51858 -0.27754,-0.51858 0.2653,-0.16396 0.2653,-0.16396 v -1.4396 -1.43959 h 0.29289 0.29289 l -0.15183,0.39568 -0.15184,0.39568 0.23675,1.39026 0.23676,1.39026 0.17807,3.0427 0.17807,3.04271 0.0834,1.47555 0.0834,1.47555 z m 2.63244,0.28214 h -0.20543 l -0.16036,-0.4179 -0.16037,-0.4179 0.17166,-0.68394 0.17166,-0.68394 -0.46594,0.1788 -0.46593,0.17879 0.19797,-0.46602 0.19798,-0.46602 -0.009,-0.52916 -0.009,-0.52917 -0.17962,-2.48666 -0.17962,-2.48665 -0.12758,-2.14355 -0.12758,-2.14356 -0.0509,-2.49126 -0.0509,-2.49126 0.39687,-0.10857 0.39688,-0.10857 -0.39688,0.28068 -0.39687,0.28067 0.31874,0.004 0.31874,0.004 0.16989,0.90559 0.16989,0.90558 0.0264,0.93 0.0264,0.92999 0.27876,-0.16657 0.27876,-0.16658 -0.34177,0.42193 -0.34178,0.42194 0.23858,0.0919 0.23857,0.0919 0.19966,3.57187 0.19967,3.57188 0.0672,1.57828 0.0672,1.57828 -0.21029,0.73325 -0.2103,0.73326 0.20961,0.12955 0.20961,0.12954 -0.12766,0.66777 -0.12765,0.66778 z m -0.39434,-12.4354 h 0.13229 v -0.13229 -0.13229 h -0.13229 -0.13229 v 0.13229 0.13229 z m 44.58229,12.43542 h -0.35277 l 0.17639,-0.17639 0.17638,-0.17639 0.17639,0.17639 0.17639,0.17639 z m -21.85643,-0.26459 h -0.10398 v -0.39687 -0.39688 h 0.25628 0.25628 l -0.1523,0.39688 -0.15229,0.39687 z m -15.27343,-0.35277 -0.17639,0.17638 v -0.35277 -0.35278 l 0.17639,0.17639 0.17639,0.17639 z m 7.09966,0.0882 h -0.1323 v -0.13229 -0.13229 h 0.1323 0.13229 v 0.13229 0.13229 z m -39.687505,-0.26458 h -0.132291 v -0.1323 -0.13229 h 0.132291 0.132292 v 0.13229 0.1323 z m 28.839585,-0.52917 h -0.13229 v -0.13229 -0.13229 h 0.13229 0.13229 v 0.13229 0.13229 z m 1.34226,-0.17633 -0.37753,0.14488 -0.31632,-0.38115 -0.31633,-0.38115 h 0.69386 0.69385 v 0.23628 0.23627 z m 1.30357,0.17633 h -0.13229 v -0.13229 -0.13229 h 0.13229 0.13229 v 0.13229 0.13229 z m -3.30729,-0.52917 h -0.52917 l -0.0313,-0.46302 -0.0313,-0.46302 0.0453,-0.24034 0.0453,-0.24033 -0.27893,-0.17239 -0.27893,-0.17239 0.52955,-0.5684 0.52954,-0.5684 v -0.17166 -0.17166 l -0.37498,0.14389 -0.37498,0.14389 -0.15252,-0.39747 -0.15252,-0.39747 0.59364,0.18526 0.59365,0.18525 0.19439,0.29507 0.19438,0.29507 0.0371,0.59531 0.0371,0.59531 v 0.39688 0.39687 l -0.0331,0.39688 -0.0331,0.39687 z m -10.18646,-0.79375 h -0.13229 V 148.63229 148.5 h 0.13229 0.13229 v 0.13229 0.13229 z m -0.1479,-1.05833 h -0.2802 l 0.16352,-0.26458 0.16352,-0.26459 h 0.11668 0.11667 v 0.26459 0.26458 z m 1.61441,0 h -0.27588 v -0.48507 -0.48507 l -0.1741,-0.17409 -0.17409,-0.1741 -0.35507,0.29469 -0.35508,0.29468 v -0.28136 -0.28137 l 0.26459,-0.16352 0.26458,-0.16352 v -0.24066 -0.24067 l -0.39687,0.1523 -0.39688,0.15229 v -0.66772 -0.66771 l -0.19844,-0.11098 -0.19843,-0.11098 0.31138,0.0732 0.31138,0.0732 0.35008,-0.42703 0.35007,-0.42704 -0.57429,0.14791 -0.57429,0.14791 0.0963,-0.49989 0.0963,-0.4999 0.16291,-0.26359 0.1629,-0.26359 h -0.28019 -0.2802 v -0.60854 -0.60854 l 0.30628,-0.30629 0.30629,-0.30628 -0.33868,-0.40809 -0.33869,-0.40809 h 0.56157 0.56156 l 0.0314,0.59531 0.0314,0.59532 -0.043,0.33072 -0.043,0.33073 h 0.21949 0.21948 l 0.029,0.46302 0.029,0.46303 0.15985,0.66145 0.15986,0.66146 0.14369,1.91823 0.14369,1.91823 z m -0.93734,-2.38125 h 0.13229 v -0.13229 -0.13229 h -0.13229 -0.13229 v 0.13229 0.13229 z m 0.26458,-1.85208 h 0.13229 v -0.13229 -0.1323 h -0.13229 -0.13229 v 0.1323 0.13229 z M 102.47781,142.15 h 0.13229 v -0.13229 -0.13229 h -0.13229 -0.13229 v 0.13229 0.13229 z m 0.79375,5.29167 h -0.13229 v -0.13229 -0.1323 h 0.13229 0.13229 v 0.1323 0.13229 z m -68.035136,-1.08039 -0.09507,0.11025 v -0.83785 -0.83785 h 0.269624 0.269624 l -0.174553,0.72761 -0.174553,0.7276 z m 64.066388,-0.50711 h -0.132291 v -0.13229 -0.1323 h 0.132291 0.132292 v 0.1323 0.13229 z m 78.102178,-0.33073 -0.121,0.46302 v -0.92604 -0.92604 l 0.121,0.46302 0.121,0.46302 z m -75.45634,0.0661 h -0.1323 v -0.13229 -0.13229 h 0.1323 0.13229 v 0.13229 0.13229 z m 10.43542,0 h -0.24897 v -1.30127 -1.30128 l -0.15389,-0.48466 -0.15389,-0.48466 0.3584,0.43143 0.3584,0.43144 -0.0451,0.95877 -0.0451,0.95878 0.24178,0.14943 0.24178,0.14942 -0.15223,0.2463 -0.15222,0.2463 z M 37.81299,145.325 h -0.493281 l -0.1184,-0.61937 -0.1184,-0.61937 0.218587,-0.5909 0.218588,-0.5909 0.461242,0.0888 0.461242,0.0888 0.09262,0.48091 0.09261,0.48091 -0.160763,0.64053 -0.160764,0.64053 z m 63.34191,-0.26458 h -0.1323 v -0.13229 -0.1323 h 0.1323 0.13229 v 0.1323 0.13229 z m 65.0875,0 h -0.1323 v -0.13229 -0.1323 h 0.1323 0.13229 v 0.1323 0.13229 z m -67.953824,-0.35278 -0.176389,0.17639 v -0.35278 -0.35278 l 0.176389,0.17639 0.176389,0.17639 z m -62.330221,-0.58001 -0.204139,0.52242 -0.127772,-0.38332 -0.127771,-0.38331 0.376954,-1.32973 0.376954,-1.32973 0.900737,-3.01386 0.900736,-3.01385 1.07704,-2.45582 1.077039,-2.45583 1.33004,-2.33553 1.33004,-2.33553 0.26025,-0.26458 0.26025,-0.26458 -1.855822,3.57187 -1.855822,3.57188 -0.657707,1.71979 -0.657706,1.71979 -1.080985,3.45981 -1.080985,3.4598 -0.0186,0.50895 -0.0186,0.50894 z m 30.336251,0.29481 -0.08004,0.08 -0.3091,-0.19104 -0.3091,-0.19103 0.213796,-0.34593 0.213797,-0.34593 0.17534,0.45693 0.17534,0.45693 z m 32.743623,-0.32468 -0.396875,0.1523 0.0084,-0.85159 0.0084,-0.85159 0.388461,0.51359 0.38846,0.51359 v 0.1857 0.18571 z m -60.060418,-0.0957 H 38.84552 v -0.13229 -0.13229 h 0.132291 0.132292 v 0.13229 0.13229 z m 86.276219,0 h -0.41893 v -0.41892 -0.41892 l 0.3142,0.10473 0.31419,0.10473 0.10473,0.31419 0.10473,0.31419 z m 52.15036,-0.32764 -0.1204,0.45994 0.005,-1.05834 0.005,-1.05833 0.11506,0.5984 0.11507,0.59839 z m -138.14638,-0.2015 h -0.116677 l -0.188787,-0.30547 -0.188787,-0.30546 0.305464,0.18879 0.305463,0.18878 v 0.11668 0.11668 z m 59.029406,-0.19844 -0.133452,0.33073 v -0.66146 -0.66146 l 0.133452,0.33073 0.133452,0.33073 z M 67.552812,142.67917 H 67.42052 v -0.13229 -0.1323 h 0.132292 0.132292 v 0.1323 0.13229 z m 60.553588,0 h -0.0651 l -0.16352,-0.26459 -0.16352,-0.26458 0.16352,-0.26458 0.16352,-0.26459 h -0.25151 -0.25152 l -0.20554,-0.7276 -0.20555,-0.7276 -0.0438,-0.1323 -0.0437,-0.13229 -0.3073,-0.74153 -0.30731,-0.74153 0.0365,-0.84597 0.0364,-0.84597 -0.19545,-0.82182 -0.19544,-0.82182 0.40885,-0.15689 0.40886,-0.15689 -0.14712,0.3834 -0.14713,0.3834 h 0.42519 0.42518 l -0.0662,0.24591 -0.0661,0.2459 0.52916,0.40714 0.52917,0.40713 -0.32418,0.008 -0.32418,0.008 0.23317,0.61328 0.23316,0.61328 -0.0267,2.29714 -0.0267,2.29714 z m -1.28692,-4.49792 h 0.13229 v -0.13229 -0.13229 h -0.13229 -0.13229 v 0.13229 0.13229 z m -33.602084,4.23333 H 93.085104 V 142.28229 142.15 h 0.132292 0.132291 v 0.13229 0.13229 z M 159.62781,142.15 h -0.13229 v -0.13229 -0.13229 h 0.13229 0.13229 v 0.13229 0.13229 z m -43.65625,-0.52917 h -0.13229 v -0.13229 -0.13229 h 0.13229 0.13229 v 0.13229 0.13229 z m 61.11875,0 h -0.13229 v -0.13229 -0.13229 h 0.13229 0.13229 v 0.13229 0.13229 z M 67.560123,141.35625 H 67.45175 l -0.174401,-0.28219 -0.174401,-0.28218 0.1261,-0.1261 0.1261,-0.1261 0.156674,0.40828 0.156674,0.40829 z m 12.412491,-0.52917 h -0.116677 v -0.26458 -0.26458 h 0.280198 0.280199 l -0.163522,0.26458 -0.163521,0.26458 z m 79.672256,-0.0611 -0.14935,0.14935 v -0.57327 -0.57326 h -0.2227 -0.2227 l -0.32968,-1.10036 -0.32968,-1.10037 -0.63842,-1.01132 -0.63842,-1.01132 -1.25659,-0.65412 -1.2566,-0.65412 0.39687,-0.0113 0.39688,-0.0113 0.85189,0.51942 0.8519,0.51942 0.80175,1.10679 0.80175,1.10679 v 0.32478 0.32478 l 0.3692,0.3064 0.3692,0.30641 0.17703,0.94365 0.17703,0.94365 z m 6.77635,-0.0999 -0.27455,0.16968 -0.17707,-0.28651 -0.17707,-0.2865 0.10031,-0.1003 0.1003,-0.1003 0.35131,0.21712 0.35132,0.21712 z m 10.71203,-0.30198 -0.13345,0.33073 v -0.66146 -0.66145 l 0.13345,0.33072 0.13345,0.33073 z M 67.023645,139.50417 h -0.132291 v -0.13229 -0.1323 h 0.132291 0.132292 v 0.1323 0.13229 z m 59.266665,0 h -0.13229 v -0.13229 -0.1323 h 0.13229 0.13229 v 0.1323 0.13229 z m 32.27917,0 h -0.13229 v -0.13229 -0.1323 h 0.13229 0.13229 v 0.1323 0.13229 z m 18.52083,-0.26459 h -0.13229 v -0.13229 -0.13229 h 0.13229 0.13229 v 0.13229 0.13229 z M 72.050729,138.975 h -0.132292 v -0.13229 -0.13229 h 0.132292 0.132291 v 0.13229 0.13229 z m 30.508981,0 h -0.21419 v -0.64363 -0.64363 l -0.52917,-0.16795 -0.52916,-0.16795 -0.0179,-0.18061 -0.0179,-0.1806 -0.13691,-0.92605 -0.1369,-0.92604 -0.0437,-0.92604 -0.0437,-0.92604 -0.13229,-0.13229 -0.13229,-0.13229 -0.50554,-0.99377 -0.505534,-0.99377 0.19644,-0.19644 0.196444,-0.19644 0.37524,0.51317 0.37524,0.51318 v 0.62872 0.62871 l 0.56919,-0.18065 0.56919,-0.18065 -0.16928,0.44114 -0.16929,0.44115 0.26155,-0.16164 0.26156,-0.16165 0.0197,0.34634 0.0197,0.34635 0.12118,0.66145 0.12118,0.66146 0.20564,1.91823 0.20563,1.91823 z m -3.959833,-0.58611 -0.438352,0.0862 -0.171961,-0.27824 -0.17196,-0.27823 -0.106171,-0.5513 -0.10617,-0.5513 -0.161242,-0.50803 L 97.282778,135.8 h 0.406401 0.4064 l -0.169921,-0.44281 -0.169922,-0.44281 0.464918,0.17841 0.464917,0.1784 -0.117151,-0.33091 -0.11715,-0.3309 -0.716106,0.0522 -0.716106,0.0522 0.105469,-0.31677 0.105469,-0.31678 0.440675,-0.0855 0.440675,-0.0855 0.444331,0.44433 0.444331,0.44433 0.01911,1.75235 0.01911,1.75235 z m -0.355398,-0.73681 h 0.132292 v -0.13229 -0.13229 h -0.132292 -0.132292 v 0.13229 0.13229 z m 78.581251,0.79375 h -0.13229 v -0.13229 -0.13229 h 0.13229 0.13229 v 0.13229 0.13229 z m -65.28159,-0.47605 -0.1059,0.3177 -0.14584,-0.25155 -0.14584,-0.25155 -0.61424,-2.38125 -0.61425,-2.38125 -0.17497,-0.1323 -0.17497,-0.13229 -0.17172,-0.7276 -0.17172,-0.72761 -0.1749,-0.72295 -0.17489,-0.72296 -0.3567,-0.35671 -0.35671,-0.3567 0.15034,-0.24326 0.15034,-0.24325 h -0.29582 -0.29581 l 0.12926,-0.20914 0.12926,-0.20915 -0.33914,-0.78304 -0.33915,-0.78304 -0.40511,-1.64188 -0.40511,-1.64188 0.28497,-0.095 0.28496,-0.095 0.6088,0.28166 0.6088,0.28166 0.3983,0.83374 0.39831,0.83373 v 0.39106 0.39107 l 0.69252,1.51266 0.69252,1.51266 0.0351,1.49587 0.0351,1.49588 0.32206,0.34096 0.32207,0.34097 -0.1567,0.78351 -0.15671,0.78351 h 0.29766 0.29766 v 0.37483 0.37483 l -0.2936,0.0979 -0.29359,0.0979 0.47667,0.3872 0.47668,0.38721 -0.1874,-0.31245 -0.18739,-0.31245 0.26889,-0.16619 0.2689,-0.16619 v 0.3801 0.38009 l -0.39687,0.32938 -0.39688,0.32937 v 0.36448 0.36448 h 0.24254 0.24253 l 0.0882,-0.23852 0.0882,-0.23851 0.34116,0.37081 0.34116,0.3708 h -0.51755 -0.51755 z m -2.45174,-10.37186 h 0.13229 v -0.13229 -0.1323 h -0.13229 -0.1323 v 0.1323 0.13229 z m -1.32292,-1.32292 h 0.13229 v -0.13229 -0.13229 h -0.13229 -0.13229 v 0.13229 0.13229 z m 56.09167,11.64167 h -0.1323 v -0.13229 -0.1323 h 0.1323 0.13229 v 0.1323 0.13229 z m 12.96458,0 h -0.13229 v -0.13229 -0.1323 h 0.13229 0.13229 v 0.1323 0.13229 z m -46.37768,-0.79375 h -0.20789 v -0.52917 -0.52917 h 0.20789 0.20789 v 0.52917 0.52917 z m 0.60476,0 h -0.13229 v -0.13229 -0.1323 h 0.13229 0.13229 v 0.1323 0.13229 z m -8.95173,-0.35278 -0.17639,0.17639 v -0.35278 -0.35278 l 0.17639,0.17639 0.17639,0.17639 z m -7.84931,-0.44097 h -0.23335 l -0.1744,-0.28219 -0.1744,-0.28219 0.12091,-0.12091 0.12092,-0.12092 0.43322,0.16625 0.43323,0.16624 -0.14639,0.23686 -0.14639,0.23686 z m 8.47408,-0.53314 -0.53658,0.28717 v -0.53847 -0.53848 h 0.38126 0.38126 l 0.15532,0.25131 0.15532,0.25131 z M 52.736145,135.8 h -0.132292 v -0.13229 -0.13229 h 0.132292 0.132292 v 0.13229 0.13229 z m 75.185765,-0.0882 -0.17639,0.17639 v -0.35278 -0.35278 l 0.17639,0.17639 0.17639,0.17639 z m 3.66007,0.0882 h -0.13229 v -0.13229 -0.13229 h 0.13229 0.13229 v 0.13229 0.13229 z m -34.351737,-0.35278 -0.176389,0.17639 v -0.35278 -0.35277 l 0.176389,0.17639 0.176389,0.17638 z m -0.8135,-0.8838 -0.369488,0.14179 -0.158159,-0.15816 -0.158159,-0.15816 v -0.22049 -0.22048 h 0.38126 0.38126 l 0.146387,0.23686 0.146387,0.23686 z m 31.328777,0.17825 h -0.26458 v -0.38857 -0.38857 l -0.39688,0.15229 -0.39687,0.1523 v -0.3212 -0.3212 l -0.39688,0.15229 -0.39687,0.1523 v -0.25628 -0.25628 h 0.66146 0.66145 l 0.008,-0.33073 0.008,-0.33073 0.38846,0.51359 0.38846,0.51359 v 0.4786 0.4786 z m -21.16667,-0.79375 h -0.35277 l 0.17639,-0.17639 0.17638,-0.17639 0.17639,0.17639 0.17639,0.17639 z m -8.746861,-0.26459 h -0.544782 l 0.15638,-0.25302 0.15638,-0.25303 0.388402,0.14904 0.388402,0.14905 v 0.10398 0.10398 z m 8.758851,-0.26458 h -0.27657 v -0.51355 -0.51355 l -0.2689,-0.16619 -0.2689,-0.16619 0.15942,-0.25794 0.15941,-0.25793 -0.41968,-0.64052 -0.41968,-0.64051 v -0.53848 -0.53847 h -0.21001 -0.21 l -0.35046,-1.57971 -0.35046,-1.57971 0.16172,-0.42144 0.16172,-0.42143 0.26645,0.16467 0.26645,0.16468 0.002,0.5797 0.002,0.5797 0.38408,0.73631 0.38407,0.73632 -0.31956,-0.1918 -0.31955,-0.19179 0.30572,0.38152 0.30572,0.38152 0.40024,1.45521 0.40025,1.45521 0.16592,0.99218 0.16592,0.99219 z m -10.992194,-0.26458 h -0.132292 v -0.13229 -0.1323 h 0.132292 0.132291 v 0.1323 0.13229 z m -41.275001,-0.79375 h -0.132292 v -0.13229 -0.1323 h 0.132292 0.132292 v 0.1323 0.13229 z m 10.022937,-0.26459 H 64.21429 l 0.163522,-0.26458 0.163521,-0.26458 h 0.132292 0.132292 l -0.163522,0.26458 -0.163521,0.26458 z m 98.720818,-0.26458 h -0.1323 v -0.13229 -0.13229 h 0.1323 0.13229 v 0.13229 0.13229 z m 0.52916,0 h -0.13229 v -0.13229 -0.13229 h 0.13229 0.13229 v 0.13229 0.13229 z m -38.32048,-1.14653 -0.17639,0.17639 v -0.35278 -0.35277 l 0.17639,0.17639 0.17639,0.17638 z m 37.52673,-0.17639 h -0.13229 v -0.13229 -0.13229 h 0.13229 0.13229 v 0.13229 0.13229 z M 51.677812,130.24375 H 51.54552 v -0.13229 -0.13229 h 0.132292 0.132291 v 0.13229 0.13229 z m 68.262498,0 h -0.13229 v -0.13229 -0.13229 h 0.13229 0.13229 v 0.13229 0.13229 z m 5.30728,-0.26458 h -0.11667 l -0.15223,-0.2463 -0.15222,-0.2463 0.2689,-0.16619 0.2689,-0.16619 v 0.41249 0.41249 z m -4.77811,-1.05834 h -0.13229 v -0.13229 -0.13229 h 0.13229 0.13229 v 0.13229 0.13229 z m -34.395835,-0.26458 h -0.132291 v -0.13229 -0.13229 h 0.132291 0.132292 v 0.13229 0.13229 z m 2.614604,-0.26458 h -0.132292 l 0.163522,-0.26459 0.163521,-0.26458 h 0.132292 0.132292 l -0.163522,0.26458 -0.163521,0.26459 z m 26.489561,0 h -0.13229 v -0.13229 -0.1323 h 0.13229 0.13229 v 0.1323 0.13229 z m 5.163,-0.66698 -0.50811,0.77457 -0.17236,-0.44915 -0.17235,-0.44915 -0.19368,0.1197 -0.19368,0.1197 -0.57235,-1.07227 -0.57234,-1.07226 v -0.37187 -0.37188 h -0.23373 -0.23372 l -0.14534,-0.55578 -0.14535,-0.55579 -0.34853,0.2097 -0.34854,0.2097 0.3257,-0.40257 0.32571,-0.40258 -0.85487,-0.87438 -0.85487,-0.87438 -0.0229,-0.1629 -0.0228,-0.16289 -0.20389,-0.46302 -0.20389,-0.46302 h -0.63925 -0.63925 l 0.41182,0.62852 0.41182,0.62852 0.11232,0.58324 0.11232,0.58324 0.17176,0.54116 0.17176,0.54117 -0.29293,-0.18104 -0.29293,-0.18104 v 0.29581 0.29581 l -0.28411,-0.17559 -0.28412,-0.17559 0.2648,0.49071 0.26481,0.4907 0.19217,0.52917 0.19218,0.52917 0.0256,0.39687 0.0256,0.39688 -0.24757,0.17827 -0.24757,0.17827 0.34611,0.41704 0.34611,0.41704 h -0.42927 -0.42927 v -0.41249 -0.41249 l -0.22471,0.13888 -0.2247,0.13887 -0.37061,-0.71857 -0.3706,-0.71857 -0.37372,-0.29247 -0.37372,-0.29247 0.14955,-0.38973 0.14955,-0.38973 -0.75045,-1.16988 -0.75046,-1.16989 -0.41444,-0.46302 -0.41444,-0.46302 h 0.18521 0.18521 l -0.3175,-0.3175 -0.3175,-0.3175 v -0.47625 -0.47625 l -0.31871,0.0661 -0.3187,0.0661 -0.0349,-0.26458 -0.0349,-0.26459 -0.22838,-0.52916 -0.22837,-0.52917 -0.47638,-0.51291 -0.47638,-0.51291 v -0.2147 -0.21469 h -0.66146 -0.66146 v -0.23374 -0.23374 l -0.64783,-0.12384 -0.64784,-0.12384 -0.31702,0.29144 -0.31702,0.29143 0.17147,-0.30605 0.17147,-0.30606 -0.52288,0.13674 -0.52288,0.13673 0.56857,0.4604 0.56857,0.4604 -0.69951,0.13372 -0.6995,0.13372 0.12016,-0.19441 0.12015,-0.19442 -0.68406,-0.68406 -0.68407,-0.68406 -0.50243,-0.15947 -0.50243,-0.15946 v -0.24676 -0.24675 h -0.44219 -0.44218 l -0.48386,-0.43788 -0.483853,-0.43789 v 0.64617 0.64616 l -0.595312,0.0563 -0.595313,0.0563 -0.60467,-0.13966 -0.604671,-0.13967 -0.25473,-0.66999 -0.25473,-0.66999 -0.266947,0.16499 -0.266948,0.16498 -0.15873,-0.41365 -0.15873,-0.41364 H 95.661623 95.38434 l 0.395618,0.46302 0.395619,0.46302 -0.320459,0.61055 -0.320458,0.61054 -0.151581,-0.39501 -0.151581,-0.39502 0.22523,-0.0832 0.225231,-0.0832 -0.703115,-0.51684 -0.703115,-0.51685 0.3948,0.48887 0.3948,0.48886 -0.603577,-0.19157 -0.603577,-0.19156 0.171314,0.68257 0.171314,0.68257 h -0.690141 -0.690141 v 0.28241 0.28241 l -0.494715,-0.15702 -0.494715,-0.15701 -0.152261,0.7613 -0.152261,0.76131 0.148668,0.56851 0.148668,0.5685 h 0.243033 0.243034 l -0.23814,0.46302 -0.23814,0.46302 0.118588,0.33073 0.118588,0.33073 h 0.258149 0.25815 l -0.163522,-0.26458 -0.163521,-0.26459 h 0.271894 0.271895 l -0.08062,-0.33072 -0.08062,-0.33073 0.110976,0.19843 0.110977,0.19844 h 0.486095 0.486096 l 0.174337,0.79375 0.174336,0.79375 h 0.186515 0.186515 l 0.4692,0.79429 0.4692,0.7943 -0.163628,0.26475 -0.163628,0.26476 -0.513109,-0.27461 -0.51311,-0.27461 v -0.63653 -0.63654 l -0.306261,-0.18928 -0.306262,-0.18928 0.160811,0.63669 0.16081,0.63669 -0.383716,-0.51359 -0.383715,-0.51359 v -0.21402 -0.21401 h 0.264583 0.264584 v -0.52917 -0.52917 h -0.396875 -0.396875 v 0.2241 0.2241 l -0.529167,0.61014 -0.529167,0.61013 v -0.43736 -0.43736 h -0.280198 -0.280198 l 0.167019,0.27025 0.167019,0.27024 -0.801321,-0.0611 -0.801321,-0.0611 -0.524902,-1.46595 -0.524901,-1.46596 -0.421326,-1.52566 -0.421326,-1.52566 -0.878706,-1.91392 -0.878707,-1.91392 -1.328076,-1.98438 -1.328076,-1.98437 -0.682357,-0.72761 -0.682356,-0.7276 h 0.24585 0.245851 l 0.440444,0.6722 0.440444,0.6722 0.525345,0.28116 0.525345,0.28116 0.199621,-0.323 0.199621,-0.32299 1.155794,-0.11693 1.155793,-0.11694 1.437656,-0.24884 1.437656,-0.24885 h 2.364846 2.364847 l 2.812081,0.40849 2.812084,0.4085 1.9819,0.5342 1.9819,0.53421 1.85456,0.74434 1.85456,0.74434 3.93207,1.92465 3.93208,1.92464 1.62417,1.07111 1.62418,1.07111 1.91725,1.55111 1.91725,1.55111 0.16908,0.67366 0.16908,0.67366 -0.36654,0.23213 -0.36654,0.23213 0.26458,0.0125 0.26459,0.0125 -0.39688,0.32328 -0.39687,0.32327 -0.0466,0.26362 -0.0465,0.26363 -0.19686,0.50642 -0.19686,0.50643 0.29628,-0.18311 0.29627,-0.1831 0.28716,0.53657 0.28717,0.53658 -0.20774,0.0313 -0.20775,0.0313 -0.2181,-0.0379 -0.21811,-0.0379 0.17024,0.27546 0.17024,0.27545 0.31245,-0.17388 0.31245,-0.17388 -0.44358,0.4714 -0.44357,0.47139 0.50972,0.95102 0.50972,0.95102 -0.0104,0.66538 -0.0104,0.66538 -0.39393,-0.79375 -0.39393,-0.79375 -0.38557,-0.66146 -0.38556,-0.66146 -0.004,0.3813 -0.004,0.3813 -0.36205,-0.49513 -0.36205,-0.49513 -0.26781,0.51071 -0.26782,0.5107 0.092,0.80058 0.092,0.80059 z m -6.08904,-0.92052 h 0.26458 v -0.26459 -0.26458 h -0.26458 -0.26458 v 0.26458 0.26459 z m -0.61736,-0.88195 0.17639,-0.17639 -0.17639,-0.17638 -0.17639,-0.17639 v 0.35277 0.35278 z m 6.55487,-0.44097 h 0.11668 l 0.15222,-0.2463 0.15222,-0.2463 -0.2689,-0.16619 -0.2689,-0.16619 v 0.41249 0.41249 z m -0.24897,-1.05833 h 0.13229 v -0.13229 -0.1323 h -0.13229 -0.13229 v 0.1323 0.13229 z m -5.80522,-0.79375 h 0.11668 v -0.11668 -0.11668 l -0.30546,-0.18878 -0.30547,-0.18879 0.18879,0.30546 0.18879,0.30547 z m 7.98622,-0.35144 0.11474,-0.48373 -0.15568,-0.15568 -0.15568,-0.15568 -0.16498,0.16498 -0.16498,0.16498 0.20593,0.47443 0.20592,0.47443 z m -1.38725,-0.97148 h 0.13229 v -0.13229 -0.13229 h -0.13229 -0.13229 v 0.13229 0.13229 z m -6.61458,-0.26458 h 0.13229 v -0.13229 -0.1323 h -0.13229 -0.13229 v 0.1323 0.13229 z m 5.11528,0 h 0.22048 v -0.38524 -0.38523 l -0.22048,0.13626 -0.22049,0.13627 v 0.24897 0.24897 z m -5.51216,-1.85209 h 0.26459 l -0.009,-0.19843 -0.009,-0.19844 -0.37205,-0.66146 -0.37205,-0.66146 0.0867,0.79375 0.0867,0.79375 0.0302,0.0662 0.0302,0.0661 z M 90.571562,119.925 h 0.132292 v -0.13229 -0.13229 H 90.571562 90.43927 v 0.13229 0.13229 z m 8.202084,-6.08541 h 0.132291 v -0.1323 -0.13229 h -0.132291 -0.132292 v 0.13229 0.1323 z m 0.809365,0 h 0.116676 v -0.11668 -0.11668 l -0.305463,-0.18879 -0.305464,-0.18878 0.188787,0.30546 0.188787,0.30547 z m 8.232589,-2.64584 h 0.35075 v -0.23218 -0.23219 l -0.33073,-0.2646 -0.33072,-0.2646 -0.66146,-0.19754 -0.66146,-0.19753 0.64143,0.69432 0.64144,0.69432 z M 57.498645,127.8625 h -0.132292 v -0.13229 -0.13229 h 0.132292 0.132292 v 0.13229 0.13229 z m 104.273395,-0.0717 -0.15985,0.15986 0.0209,-0.50712 0.0209,-0.50712 0.13897,0.34727 0.13896,0.34726 z m -82.999024,-0.60303 -0.239996,0.25136 v -0.41031 -0.41031 l 0.290467,-0.83323 0.290466,-0.83324 h 0.217373 0.217373 l -0.267844,0.99219 -0.267844,0.99219 z m -24.032652,-0.16977 -0.284427,0.0948 v -0.44097 -0.44098 l 0.284427,0.0948 0.284427,0.0948 v 0.25136 0.25135 z m 73.411336,-0.21387 h -0.12298 l -0.2832,-0.52917 -0.2832,-0.52917 h 0.40618 0.40619 v 0.52917 0.52917 z m 1.04903,0 h -0.13229 v -0.13229 -0.1323 h 0.13229 0.13229 v 0.1323 0.13229 z m -74.562146,-0.88821 -0.132291,0.1323 -0.182648,-0.83159 -0.182647,-0.83159 0.132291,-0.13229 0.132292,-0.13229 0.182647,0.83158 0.182648,0.83159 z m 71.313776,-0.28482 -0.26049,0.46548 -0.18796,-0.59221 -0.18796,-0.5922 0.16086,-0.16086 0.16086,-0.16086 0.28759,0.28759 0.2876,0.28759 z m 2.9994,0.37928 h -0.11668 l -0.18878,-0.30547 -0.18879,-0.30546 0.30546,0.18879 0.30547,0.18878 v 0.11668 0.11668 z m -63.91249,-0.79375 h -0.264583 v -0.39688 -0.39687 h 0.264583 0.264583 v 0.39687 0.39688 z m 39.17103,0 h -0.22066 l -0.14905,-0.3884 -0.14904,-0.38841 0.19951,-0.1233 0.19952,-0.12331 0.35199,0.21754 0.35199,0.21755 -0.1818,0.29416 -0.1818,0.29417 z m 56.47585,0 h -0.1323 v -0.13229 -0.1323 h 0.1323 0.13229 v 0.1323 0.13229 z m -37.33456,-0.52917 h -0.10399 v -0.39687 -0.39688 h 0.25628 0.25628 l -0.15229,0.39688 -0.1523,0.39687 z m -69.248431,-1.14653 -0.176389,0.17639 v -0.35278 -0.35277 l 0.176389,0.17639 0.176389,0.17638 z m 41.495487,0.0882 h -0.132292 v -0.13229 -0.1323 h 0.132292 0.132291 v 0.1323 0.13229 z M 116.15187,123.1 h -0.28137 l -0.1744,-0.28219 -0.1744,-0.28218 0.12108,-0.12108 0.12108,-0.12109 0.33469,0.40327 0.33468,0.40327 z m -28.259215,-1.5875 h -0.115826 l -0.156674,-0.40828 -0.156674,-0.40829 0.131375,-0.13138 0.131375,-0.13137 0.141125,0.53966 0.141124,0.53966 z m 14.865355,0 h -0.11668 l -0.16352,-0.26458 -0.16352,-0.26459 h 0.2802 0.2802 v 0.26459 0.26458 z m -19.594781,-0.52917 h -0.132292 v -0.13229 -0.13229 h 0.132292 0.132291 v 0.13229 0.13229 z m 4.233333,-0.79375 H 87.26427 v -0.13229 -0.13229 h 0.132292 0.132292 v 0.13229 0.13229 z m -0.264583,-0.52916 h -0.132292 v -0.13229 -0.1323 h 0.132292 0.132291 v 0.1323 0.13229 z m -9.527242,-0.52917 h -0.663701 l 0.32207,-0.51571 0.322069,-0.51572 0.341631,0.28353 0.341631,0.28353 v 0.23219 0.23218 z m -1.011994,-0.35278 -0.176389,0.17639 v -0.35278 -0.35277 l 0.176389,0.17639 0.176388,0.17638 z m 28.442707,0.0882 h -0.48507 l -0.17639,-0.17639 -0.17639,-0.17639 v -0.19707 -0.19708 l 0.46302,0.0886 0.46303,0.0886 0.19843,0.0203 0.19844,0.0202 v 0.26458 0.26459 z M 92.423645,117.01458 H 92.291354 V 116.88229 116.75 h 0.132291 0.132292 v 0.13229 0.13229 z m 65.087505,0 h -0.1323 V 116.88229 116.75 h 0.1323 0.13229 v 0.13229 0.13229 z M 53.016343,116.75 h -0.116677 l -0.188786,-0.30546 -0.188787,-0.30547 0.305463,0.18879 0.305464,0.18879 v 0.11667 0.11668 z m 103.436467,-0.26458 h -0.13229 v -0.13229 -0.13229 h 0.13229 0.13229 v 0.13229 0.13229 z m -94.478052,-0.26458 h -0.336664 l -0.561251,-0.71352 -0.561252,-0.71352 0.07903,-0.80783 0.07903,-0.80784 0.744706,-0.0854 0.744705,-0.0854 0.667675,0.43747 0.667674,0.43748 -0.176223,0.70623 -0.176223,0.70622 -0.417268,0.46302 -0.417268,0.46303 z m 34.957747,-0.84879 -0.100361,0.10036 -0.286736,-0.53577 -0.286735,-0.53577 0.235218,-0.14538 0.235219,-0.14537 0.151878,0.58078 0.151877,0.58078 z m 28.564055,-1.0033 h -0.13229 v -0.13229 -0.13229 h 0.13229 0.13229 v 0.13229 0.13229 z m 10.66777,0 h -0.25238 l 0.17985,-0.59531 0.17986,-0.59531 0.19024,-0.20675 0.19025,-0.20675 -0.11772,0.80206 -0.11772,0.80206 z m 17.90723,-1.32291 h -0.13229 v -0.1323 -0.13229 h 0.13229 0.13229 v 0.13229 0.1323 z m 0.57327,-0.0882 -0.17639,0.17639 v -0.35278 -0.35278 l 0.17639,0.17639 0.17639,0.17639 z m -28.08993,-0.17639 h -0.1323 v -0.13229 -0.13229 h 0.1323 0.13229 v 0.13229 0.13229 z M 74.696562,112.51667 H 74.56427 v -0.13229 -0.13229 h 0.132292 0.132292 v 0.13229 0.13229 z m 80.448948,-0.52917 h -0.11668 l -0.18878,-0.30546 -0.18879,-0.30547 0.30546,0.18879 0.30547,0.18879 v 0.11668 0.11667 z m -27.3047,-0.52916 h -0.0953 v -0.2739 -0.27389 l 0.42731,-0.65215 0.4273,-0.65215 h -0.27718 -0.27719 l -0.17411,-0.5486 -0.17412,-0.54859 0.48702,-0.36092 0.48701,-0.36091 2.11667,0.12984 2.11667,0.12984 0.85989,0.1302 0.8599,0.1302 v 0.22783 0.22782 l -0.53787,-0.14065 -0.53787,-0.14066 -0.45432,0.40546 -0.45432,0.40547 -2.3521,1.08288 -2.35211,1.08288 z m 2.41825,-1.5875 h 0.13229 v -0.1323 -0.13229 h -0.13229 -0.13229 v 0.13229 0.1323 z m 0.0505,-0.53278 1.00781,-0.004 0.57701,-0.15475 0.57701,-0.15475 0.14893,-0.3881 0.14892,-0.38811 -0.59237,0.18802 -0.59238,0.18801 -0.72887,-0.0207 -0.72888,-0.0207 v 0.2625 0.26251 l -0.2463,-0.15223 -0.2463,-0.15222 -0.16619,0.2689 -0.16619,0.2689 z m 0.21406,-0.26097 h -0.1323 v -0.1323 -0.13229 h 0.1323 0.13229 v 0.13229 0.1323 z m -2.24896,-0.1323 0.26458,-0.16352 v -0.26458 -0.26458 l -0.26458,0.16352 -0.26459,0.16352 v 0.26458 0.26459 z m 0.66146,-0.39687 h 0.13229 v -0.13229 -0.13229 h -0.13229 -0.1323 v 0.13229 0.13229 z m 33.30959,2.8624 -1.82418,-0.0588 -2.89161,-0.20562 -2.89162,-0.20563 -0.27015,-0.27015 -0.27016,-0.27016 0.29586,-0.29586 0.29587,-0.29586 3.65965,0.1785 3.65966,0.17849 1.3897,0.0927 1.3897,0.0927 0.2559,-0.43839 0.2559,-0.4384 0.008,0.58921 0.008,0.58922 -0.62322,0.40835 -0.62322,0.40835 z m 1.08624,-0.21657 h 0.13229 v -0.13229 -0.13229 h -0.13229 -0.13229 v 0.13229 0.13229 z m -83.037462,-1.05833 h -0.109204 l -0.334683,-0.40327 -0.334684,-0.40327 0.148558,-0.14856 0.148559,-0.14856 0.295329,0.55183 0.295329,0.55183 z m 83.434332,-0.84233 -1.4552,0.0238 -1.19063,-0.48257 -1.19062,-0.48257 -1.19063,-0.56931 -1.19062,-0.5693 0.52916,0.12067 0.52917,0.12068 1.19062,0.41635 1.19063,0.41636 0.52917,0.30779 0.52916,0.3078 1.5875,0.18322 1.5875,0.18323 z M 79.459062,108.54792 H 79.32677 v -0.13229 -0.13229 h 0.132292 0.132292 v 0.13229 0.13229 z m -1.543403,-0.88195 -0.176389,0.17639 v -0.35277 -0.35278 l 0.176389,0.17639 0.176389,0.17639 z m 32.102781,-0.70555 h -0.35278 l 0.17639,-0.17639 0.17639,-0.17639 0.17639,0.17639 0.17639,0.17639 z M 78.797604,106.69584 H 78.53302 v -0.2802 -0.2802 l 0.264584,0.16352 0.264583,0.16352 v 0.11668 0.11668 z m 0.692688,-0.52917 h -0.396875 l -0.163522,-0.26458 -0.163521,-0.26459 h 0.396875 0.396875 l 0.163521,0.26459 0.163522,0.26458 z m 27.353148,-0.52917 h -0.35278 l 0.17639,-0.17639 0.17639,-0.17639 0.17639,0.17639 0.17639,0.17639 z m -0.79375,-0.26458 h -0.35278 l 0.17639,-0.17639 0.17639,-0.17639 0.17639,0.17639 0.17639,0.17639 z m -0.79375,-0.26458 h -0.35278 l 0.17639,-0.17639 0.17639,-0.17639 0.17639,0.17639 0.17639,0.17639 z m -23.812503,-0.26459 h -0.352778 l 0.176389,-0.17639 0.176389,-0.17639 0.176389,0.17639 0.176389,0.17639 z m 23.151043,0 h -0.13229 v -0.13229 -0.13229 h 0.13229 0.13229 v 0.13229 0.13229 z m -0.79375,-0.26458 h -0.13229 v -0.13229 -0.13229 h 0.13229 0.13229 v 0.13229 0.13229 z m -0.92604,-0.26458 h -0.35278 l 0.17639,-0.17639 0.17639,-0.17639 0.17639,0.17639 0.17639,0.17639 z M 101.81635,104.05 h -0.35277 l 0.17639,-0.17639 0.17638,-0.17639 0.17639,0.17639 0.17639,0.17639 z m -0.94809,-0.28547 -0.50711,-0.0209 0.34726,-0.13896 0.34727,-0.13897 0.15985,0.15986 0.15985,0.15985 z m -0.903989,-0.29359 -0.396875,-0.0127 -0.79375,-0.20198 -0.79375,-0.20197 0.661458,-0.0127 0.661458,-0.0127 0.529167,0.22739 0.529171,0.22739 z m -2.645834,-0.47927 h -0.352778 l 0.176389,-0.17639 0.176389,-0.17639 0.176389,0.17639 0.176389,0.17639 z m -1.719791,-0.26458 h -0.132292 v -0.1323 -0.13229 h 0.132292 0.132291 v 0.13229 0.1323 z m -1.852084,-0.26459 h -0.132291 v -0.13229 -0.13229 h 0.132291 0.132292 v 0.13229 0.13229 z m -14.120073,-0.4748 -1.684657,0.11618 0.478455,-0.34986 0.478456,-0.34985 2.264535,0.029 2.264534,0.029 -1.058333,0.20469 -1.058334,0.20469 z m 12.378233,0.15272 -1.168577,-0.0575 -3.373437,-0.0827 -3.373438,-0.0827 v -0.22838 -0.22837 l 0.33073,-0.11065 0.330729,-0.11066 4.015273,0.28079 4.015273,0.28078 0.196012,0.19844 0.196011,0.19844 z"
       id="path1" /></g></svg>
