<?xml version="1.0" encoding="UTF-8" standalone="no"?>
<svg
   ffdec:objectType="shape"
   height="146.2px"
   width="177.8px"
   version="1.1"
   id="svg4"
   sodipodi:docname="nuke.svg"
   inkscape:version="1.3.2 (091e20e, 2023-11-25)"
   xmlns:inkscape="http://www.inkscape.org/namespaces/inkscape"
   xmlns:sodipodi="http://sodipodi.sourceforge.net/DTD/sodipodi-0.dtd"
   xmlns="http://www.w3.org/2000/svg"
   xmlns:svg="http://www.w3.org/2000/svg"
   xmlns:ffdec="https://www.free-decompiler.com/flash">
  <defs
     id="defs4" />
  <sodipodi:namedview
     id="namedview4"
     pagecolor="#ffffff"
     bordercolor="#000000"
     borderopacity="0.25"
     inkscape:showpageshadow="2"
     inkscape:pageopacity="0.0"
     inkscape:pagecheckerboard="0"
     inkscape:deskcolor="#d1d1d1"
     inkscape:zoom="5.7536557"
     inkscape:cx="88.900002"
     inkscape:cy="73.08397"
     inkscape:window-width="1536"
     inkscape:window-height="1212"
     inkscape:window-x="0"
     inkscape:window-y="25"
     inkscape:window-maximized="0"
     inkscape:current-layer="svg4" />
  <g
     transform="matrix(1.0, 0.0, 0.0, 1.0, 14.1, 4.4)"
     id="g4">
    <path
       d="M95.25 32.7 L95.25 24.95 132.85 24.95 135.75 24.95 135.75 31.4 135.75 76.65 120.45 76.65 116.7 76.65 109.2 76.65 105.4 76.65 99.35 76.65 95.25 76.65 95.25 60.0 95.25 52.95 95.25 46.9 95.25 37.4 95.25 32.7"
       fill="#99802b"
       fill-rule="evenodd"
       stroke="none"
       id="path1"
       style="fill:#ffffff;fill-opacity:0" />
    <path
       d="M132.85 24.95 L137.6 20.2 Q138.85 18.85 138.95 17.05 L138.75 15.25 138.4 14.45 137.25 12.75 136.45 11.7 134.7 9.75 Q131.1 6.3 126.25 3.95 121.8 1.9 116.6 0.8 L111.45 0.1 Q108.9 0.1 106.15 1.15 L103.7 2.25 102.55 3.0 97.3 6.95 91.05 11.1 Q86.35 14.05 84.95 15.3 80.55 17.75 78.1 22.25 L77.3 23.45 Q87.3 26.9 95.25 32.7 M135.75 31.4 L136.75 32.8 Q139.5 36.85 141.7 41.35 L142.8 43.55 143.75 45.8 145.45 50.45 Q146.4 53.15 147.4 57.75 L156.35 51.45 156.45 51.4 157.95 51.35 Q158.75 51.7 159.05 52.4 L159.2 53.1 159.2 54.4 159.05 57.8 158.2 64.55 156.55 71.15 Q155.25 74.85 153.75 77.5 L152.85 79.0 151.3 80.45 148.45 82.25 142.7 85.7 136.85 89.0 131.0 92.15 Q128.8 94.5 126.05 96.0 123.35 97.35 120.1 97.9 121.7 86.75 120.45 76.65 M116.7 76.65 Q118.0 86.9 116.3 98.15 L111.3 97.5 110.1 97.25 Q111.05 86.45 109.2 76.65 M105.4 76.65 Q107.3 86.35 106.35 97.15 101.65 105.05 94.55 112.15 L88.5 117.6 Q83.6 121.8 76.85 125.85 67.8 131.15 57.1 134.25 L56.1 134.5 56.0 134.7 55.45 134.85 47.0 136.5 37.45 137.3 33.95 137.3 Q21.85 136.9 12.0 132.2 6.8 129.7 2.5 125.85 -1.9 121.9 -4.75 116.95 -7.55 112.0 -8.75 106.2 -9.9 100.6 -9.45 94.8 -9.0 89.15 -7.15 83.4 L-5.2 78.1 -2.7 72.85 Q-0.15 67.6 5.2 61.2 L5.5 60.8 5.6 60.75 6.35 59.9 Q13.1 52.15 22.5 45.65 27.1 42.5 31.7 40.05 36.05 37.75 41.6 35.6 47.1 33.5 52.1 32.5 L56.8 31.85 64.4 30.95 Q82.75 36.95 93.8 51.0 L95.25 52.95 M95.25 46.9 Q86.65 36.75 74.1 30.8 L75.2 27.45 75.5 26.75 Q86.75 30.55 95.25 37.4 M99.35 76.65 L99.35 78.0 Q99.35 90.6 93.1 99.55 86.85 108.5 78.05 108.5 69.25 108.5 63.0 99.55 56.75 90.6 56.75 78.0 56.75 65.4 63.0 56.45 69.25 47.45 78.05 47.45 86.85 47.45 93.1 56.45 L95.25 60.0 M81.15 54.25 Q85.35 55.5 88.6 59.4 91.95 63.45 93.55 69.35 L82.9 75.1 Q82.4 73.25 81.3 72.0 80.25 70.75 78.95 70.35 L81.15 54.25 M75.65 101.45 L77.2 85.15 Q78.5 85.45 79.75 84.8 81.05 84.15 81.95 82.6 L90.7 93.4 Q87.85 98.15 83.8 100.3 79.85 102.35 75.65 101.45 M59.65 112.45 Q58.2 123.35 51.8 132.1 L51.5 132.55 51.0 132.7 Q44.25 134.45 38.85 134.45 L33.4 134.25 28.1 133.9 32.9 131.55 Q41.6 127.3 43.55 112.65 44.3 106.95 42.75 101.4 41.25 95.8 37.7 91.35 34.25 87.0 29.5 84.35 24.75 81.7 19.3 81.1 13.6 80.5 8.7 81.05 1.2 81.85 -2.2 85.25 L-6.2 89.2 -4.55 83.85 Q-2.95 78.45 -0.75 74.55 1.4 70.7 5.4 65.85 L5.65 65.5 6.1 65.4 Q14.3 63.25 22.6 64.3 40.15 66.6 51.05 80.7 61.95 94.85 59.65 112.45 M73.0 80.45 L62.25 86.25 Q60.7 80.3 61.3 74.15 61.9 68.15 64.4 63.3 L73.65 73.2 Q72.85 74.8 72.65 76.65 72.5 78.6 73.0 80.45 M77.2 73.55 Q78.5 72.95 79.7 73.8 80.85 74.7 81.2 76.55 81.55 78.4 80.9 80.15 80.2 81.85 78.9 82.45 77.6 83.05 76.45 82.15 75.25 81.25 74.9 79.4 74.55 77.6 75.2 75.85 75.9 74.1 77.2 73.55 M15.75 123.2 Q12.5 125.75 8.0 124.6 3.45 123.45 0.25 119.3 -2.9 115.15 -2.9 110.5 -2.85 105.8 0.4 103.3 3.65 100.8 8.2 101.95 12.75 103.1 15.9 107.25 19.1 111.35 19.05 116.05 19.0 120.75 15.75 123.2 Z"
       fill="none"
       stroke="#99802b"
       stroke-linecap="round"
       stroke-linejoin="round"
       stroke-width="9.0"
       id="path2"
       style="stroke:#000000;stroke-opacity:0" />
    <path
       d="M159.2 53.1 L159.2 54.4 159.05 57.8 158.2 64.55 156.55 71.15 Q155.25 74.85 153.75 77.5 L152.85 79.0 151.3 80.45 148.45 82.25 142.7 85.7 136.85 89.0 131.0 92.15 Q128.8 94.5 126.05 96.0 123.35 97.35 120.1 97.9 122.95 77.75 116.65 60.95 L116.95 60.75 Q118.2 60.0 119.7 60.15 121.2 60.3 122.2 61.35 L134.15 73.7 134.55 69.75 133.8 62.55 131.8 54.7 128.8 47.05 125.5 40.8 120.6 33.7 115.9 28.45 114.05 27.0 111.85 35.65 Q110.6 40.45 106.6 43.45 95.25 29.6 77.3 23.45 L78.1 22.25 Q80.55 17.75 84.95 15.3 86.35 14.05 91.05 11.1 L97.3 6.95 102.55 3.0 103.7 2.25 106.15 1.15 Q108.9 0.1 111.45 0.1 L116.6 0.8 Q121.8 1.9 126.25 3.95 131.1 6.3 134.7 9.75 L136.45 11.7 137.25 12.75 138.4 14.45 138.75 15.25 138.95 17.05 Q138.85 18.85 137.6 20.2 L131.7 26.1 133.9 28.8 136.75 32.8 Q139.5 36.85 141.7 41.35 L142.8 43.55 143.75 45.8 145.45 50.45 Q146.4 53.15 147.4 57.75 L156.35 51.45 156.45 51.4 157.95 51.35 Q158.75 51.7 159.05 52.4 L159.2 53.1 M81.15 54.25 Q85.35 55.5 88.6 59.4 91.95 63.45 93.55 69.35 L82.9 75.1 Q82.4 73.25 81.3 72.0 80.25 70.75 78.95 70.35 L81.15 54.25 M75.65 101.45 L77.2 85.15 Q78.5 85.45 79.75 84.8 81.05 84.15 81.95 82.6 L90.7 93.4 Q87.85 98.15 83.8 100.3 79.85 102.35 75.65 101.45 M93.8 51.0 Q101.15 60.35 104.35 72.15 107.5 83.85 106.35 97.15 101.65 105.05 94.55 112.15 L88.5 117.6 Q83.6 121.8 76.85 125.85 67.8 131.15 57.1 134.25 L56.1 134.5 56.0 134.7 55.45 134.85 47.0 136.5 37.45 137.3 33.95 137.3 Q21.85 136.9 12.0 132.2 6.8 129.7 2.5 125.85 -1.9 121.9 -4.75 116.95 -7.55 112.0 -8.75 106.2 -9.9 100.6 -9.45 94.8 -9.0 89.15 -7.15 83.4 L-5.2 78.1 -2.7 72.85 Q-0.15 67.6 5.2 61.2 L5.5 60.8 5.6 60.75 6.35 59.9 Q13.1 52.15 22.5 45.65 27.1 42.5 31.7 40.05 36.05 37.75 41.6 35.6 47.1 33.5 52.1 32.5 L56.8 31.85 64.4 30.95 Q82.75 36.95 93.8 51.0 M75.5 26.75 Q93.5 32.8 104.4 46.65 112.45 56.9 115.5 70.1 118.55 83.25 116.3 98.15 L111.3 97.5 110.1 97.25 Q111.3 83.3 107.9 71.0 104.5 58.55 96.75 48.7 87.75 37.3 74.1 30.8 L75.2 27.45 75.5 26.75 M59.65 112.45 Q61.95 94.85 51.05 80.7 40.15 66.6 22.6 64.3 14.3 63.25 6.1 65.4 L5.65 65.5 5.4 65.85 Q1.4 70.7 -0.75 74.55 -2.95 78.45 -4.55 83.85 L-6.2 89.2 -2.2 85.25 Q1.2 81.85 8.7 81.05 13.6 80.5 19.3 81.1 24.75 81.7 29.5 84.35 34.25 87.0 37.7 91.35 41.25 95.8 42.75 101.4 44.3 106.95 43.55 112.65 41.6 127.3 32.9 131.55 L28.1 133.9 33.4 134.25 38.85 134.45 Q44.25 134.45 51.0 132.7 L51.5 132.55 51.8 132.1 Q58.2 123.35 59.65 112.45 M78.05 108.5 Q86.85 108.5 93.1 99.55 99.35 90.6 99.35 78.0 99.35 65.4 93.1 56.45 86.85 47.45 78.05 47.45 69.25 47.45 63.0 56.45 56.75 65.4 56.75 78.0 56.75 90.6 63.0 99.55 69.25 108.5 78.05 108.5 M73.0 80.45 L62.25 86.25 Q60.7 80.3 61.3 74.15 61.9 68.15 64.4 63.3 L73.65 73.2 Q72.85 74.8 72.65 76.65 72.5 78.6 73.0 80.45 M77.2 73.55 Q78.5 72.95 79.7 73.8 80.85 74.7 81.2 76.55 81.55 78.4 80.9 80.15 80.2 81.85 78.9 82.45 77.6 83.05 76.45 82.15 75.25 81.25 74.9 79.4 74.55 77.6 75.2 75.85 75.9 74.1 77.2 73.55 M15.75 123.2 Q19.0 120.75 19.05 116.05 19.1 111.35 15.9 107.25 12.75 103.1 8.2 101.95 3.65 100.8 0.4 103.3 -2.85 105.8 -2.9 110.5 -2.9 115.15 0.25 119.3 3.45 123.45 8.0 124.6 12.5 125.75 15.75 123.2"
       fill="#fffec8"
       fill-rule="evenodd"
       stroke="none"
       id="path3"
       style="fill:#000000;fill-opacity:0" />
    <path
       d="M75.65 101.45 Q79.85 102.35 83.8 100.3 87.85 98.15 90.7 93.4 L81.95 82.6 Q81.05 84.15 79.75 84.8 78.5 85.45 77.2 85.15 L75.65 101.45 M81.15 54.25 L78.95 70.35 Q80.25 70.75 81.3 72.0 82.4 73.25 82.9 75.1 L93.55 69.35 Q91.95 63.45 88.6 59.4 85.35 55.5 81.15 54.25 M78.05 108.5 Q69.25 108.5 63.0 99.55 56.75 90.6 56.75 78.0 56.75 65.4 63.0 56.45 69.25 47.45 78.05 47.45 86.85 47.45 93.1 56.45 99.35 65.4 99.35 78.0 99.35 90.6 93.1 99.55 86.85 108.5 78.05 108.5 M59.65 112.45 Q58.2 123.35 51.8 132.1 L51.5 132.55 51.0 132.7 Q44.25 134.45 38.85 134.45 L33.4 134.25 28.1 133.9 32.9 131.55 Q41.6 127.3 43.55 112.65 44.3 106.95 42.75 101.4 41.25 95.8 37.7 91.35 34.25 87.0 29.5 84.35 24.75 81.7 19.3 81.1 13.6 80.5 8.7 81.05 1.2 81.85 -2.2 85.25 L-6.2 89.2 -4.55 83.85 Q-2.95 78.45 -0.75 74.55 1.4 70.7 5.4 65.85 L5.65 65.5 6.1 65.4 Q14.3 63.25 22.6 64.3 40.15 66.6 51.05 80.7 61.95 94.85 59.65 112.45 M77.2 73.55 Q75.9 74.1 75.2 75.85 74.55 77.6 74.9 79.4 75.25 81.25 76.45 82.15 77.6 83.05 78.9 82.45 80.2 81.85 80.9 80.15 81.55 78.4 81.2 76.55 80.85 74.7 79.7 73.8 78.5 72.95 77.2 73.55 M73.0 80.45 Q72.5 78.6 72.65 76.65 72.85 74.8 73.65 73.2 L64.4 63.3 Q61.9 68.15 61.3 74.15 60.7 80.3 62.25 86.25 L73.0 80.45 M15.75 123.2 Q12.5 125.75 8.0 124.6 3.45 123.45 0.25 119.3 -2.9 115.15 -2.9 110.5 -2.85 105.8 0.4 103.3 3.65 100.8 8.2 101.95 12.75 103.1 15.9 107.25 19.1 111.35 19.05 116.05 19.0 120.75 15.75 123.2"
       fill="#99802b"
       fill-rule="evenodd"
       stroke="none"
       id="path4" />
  </g>
  <path
     style="fill:#000000;stroke:#f5cb5b;stroke-width:0.173803;stroke-opacity:0"
     d="m 47.882601,138.60673 c -1.529462,-0.0807 -3.367424,-0.2009 -4.08436,-0.26713 l -1.303519,-0.12043 2.955412,-1.45227 c 4.411046,-2.16757 6.240842,-3.76004 8.376392,-7.28998 1.715889,-2.83627 3.156767,-7.34293 3.794317,-11.86754 0.39677,-2.81582 0.278291,-7.48841 -0.252551,-9.96015 C 55.504385,98.970357 50.132624,91.941287 42.44161,88.117323 38.090076,85.953746 34.226581,85.185006 27.721506,85.188387 c -4.651899,0.0024 -7.775323,0.423427 -10.822129,1.458722 -2.483209,0.843787 -3.543282,1.559905 -6.253971,4.22479 -1.3621776,1.339159 -2.4766864,2.349842 -2.4766864,2.245962 0,-0.407852 2.3188344,-7.662278 2.9798594,-9.32243 1.540173,-3.868116 3.57276,-7.301536 6.839984,-11.554014 l 1.738026,-2.262139 1.564223,-0.370215 c 10.75874,-2.546346 22.490145,-0.818327 31.702305,4.669701 9.391089,5.594624 17.02263,15.698047 19.729175,26.119516 1.038196,3.99754 1.227074,5.61302 1.226198,10.48774 -5.93e-4,3.30079 -0.07521,4.82543 -0.310458,6.3438 -1.038085,6.70002 -3.197858,12.36628 -6.760693,17.73696 -1.419743,2.14015 -1.089148,1.93895 -4.395324,2.67502 -4.442319,0.989 -8.7484,1.27361 -14.599414,0.96493 z"
     id="path5" />
  <path
     style="fill:#2a2a2a;stroke:#000000;stroke-width:0.173803;stroke-opacity:0;fill-opacity:1"
     d="M 44.927958,145.96389 C 31.068861,144.79341 19.413885,139.68838 11.372851,131.2663 6.5520014,126.21701 3.2998756,120.36692 1.546106,113.58946 0.62321279,110.02293 0.32192456,107.74255 0.22446856,103.58632 0.05907948,96.532921 1.0134269,91.177102 3.7704974,83.685925 5.0023082,80.338999 8.0671555,73.901869 9.6231276,71.393587 15.90293,61.270321 26.320068,51.144524 37.777083,44.027024 c 9.455835,-5.874296 20.552509,-10.35804 28.7371,-11.611572 3.673932,-0.562689 10.822372,-1.40195 11.957666,-1.403887 0.821311,-0.0014 1.556023,0.184852 3.458935,0.87685 1.328866,0.483246 2.432731,0.857891 2.453035,0.832545 0.0203,-0.02535 0.253764,-0.710876 0.5188,-1.523403 0.597389,-1.831422 0.824721,-2.285537 1.549558,-3.095378 0.31573,-0.352757 0.624827,-0.91939 0.686883,-1.259181 0.244085,-1.336517 3.541203,-6.045169 5.497696,-7.851325 1.486422,-1.372204 2.533697,-2.112107 10.601954,-7.49032 3.20231,-2.1346264 7.12953,-4.870125 8.72716,-6.0788858 3.03349,-2.2951393 5.13026,-3.4680764 7.79537,-4.3607632 1.54836,-0.51862701 4.01466,-0.97485259 5.26901,-0.97468107 1.20276,1.6446e-4 6.6407,0.78039055 8.36621,1.20037027 9.10123,2.2151904 16.80041,6.9336886 21.32861,13.0713808 1.96584,2.664582 2.45455,3.796907 2.65825,6.159051 0.15121,1.753574 -0.0967,3.045066 -0.91577,4.770445 -0.52677,1.10967 -0.97977,1.670229 -3.04618,3.769426 l -2.42739,2.465909 0.58507,0.245143 c 1.0024,0.420005 1.63906,1.101531 3.16421,3.387196 2.5184,3.774184 5.15347,8.590514 6.67764,12.205249 0.75283,1.785413 2.38207,6.219547 2.57039,6.995553 0.0638,0.262876 0.15006,0.477957 0.19169,0.477957 0.0416,0 0.95213,-0.615447 2.02334,-1.367659 2.92641,-2.054963 2.84092,-2.021491 5.16299,-2.021491 2.30116,0 2.88297,0.213421 4.36764,1.602155 1.71583,1.604959 2.12223,3.232808 1.88677,7.557439 -0.44638,8.198357 -2.31577,16.250832 -5.03755,21.69935 -1.69272,3.388545 -3.02311,5.044859 -5.21432,6.491798 -3.24661,2.143853 -11.42244,6.915265 -16.85885,9.838813 -1.76666,0.950062 -3.04508,1.770812 -3.71408,2.384472 -3.63943,3.33833 -9.41624,5.80237 -13.04222,5.56302 -0.82965,-0.0548 -1.51254,0.006 -2.09011,0.18633 -0.7822,0.24407 -1.08111,0.24037 -3.38915,-0.0419 -1.39222,-0.17027 -3.11788,-0.41865 -3.83482,-0.55195 -0.71693,-0.1333 -1.3511,-0.24238 -1.40926,-0.2424 -0.0582,-2e-5 -0.40322,0.44968 -0.76679,0.99934 -3.61716,5.46843 -8.24756,10.71184 -14.1394,16.01127 -4.6709,4.20125 -7.6744,6.50129 -12.448869,9.53318 -6.326555,4.01748 -12.051257,6.68951 -20.211248,9.43368 -6.381694,2.14613 -11.113878,3.11808 -18.199115,3.73795 -4.46217,0.39038 -9.830212,0.52775 -12.33998,0.31579 z m 11.644096,-4.5884 c 3.448173,-0.28603 5.279059,-0.54092 8.864604,-1.23408 2.485376,-0.48047 4.597077,-0.93266 4.692669,-1.00487 0.09559,-0.0722 1.268758,-0.46351 2.607038,-0.86955 10.215097,-3.09934 19.975373,-8.20777 28.069115,-14.69108 2.71553,-2.17522 7.6205,-6.64153 9.6872,-8.82087 3.29658,-3.47624 5.73068,-6.54769 8.40205,-10.60203 l 1.68791,-2.56175 0.12851,-2.565425 c 0.17251,-3.444205 -0.003,-10.037039 -0.34139,-12.819773 -1.80068,-14.81005 -7.7495,-27.110781 -17.78886,-36.78307 C 96.372258,43.44136 89.126941,39.036483 80.333252,35.897266 l -1.788451,-0.63845 -2.730416,0.316968 c -8.845392,1.026839 -12.030933,1.613805 -16.39159,3.020304 -13.87716,4.475977 -27.733973,13.344929 -37.590818,24.059729 -5.401793,5.871975 -8.088296,9.696639 -11.048381,15.729131 -3.0461766,6.20794 -4.7892145,11.351982 -5.7771643,17.04953 -0.337031,1.943672 -0.3891806,2.867974 -0.3912899,6.935222 -0.0026,5.02055 0.1274147,6.2506 1.0461884,9.89751 2.2778428,9.0415 7.6450358,16.46838 15.7163828,21.74761 6.419301,4.19868 14.649782,6.85628 23.550245,7.60429 2.307561,0.19394 7.73926,0.0803 11.644096,-0.24362 z m 74.185836,-40.87417 c 1.03787,-7.903061 0.78762,-16.814581 -0.67718,-24.115102 C 126.4048,58.06568 115.34409,43.326633 99.029866,35.009142 c -3.92052,-1.998799 -9.323704,-4.127659 -9.554293,-3.764398 -0.197337,0.310877 -1.404886,3.961996 -1.33225,4.028161 0.03381,0.03079 0.855205,0.452764 1.82533,0.93771 9.062956,4.530389 17.295237,11.681173 23.041537,20.014508 6.66512,9.665801 10.40437,20.849133 11.27382,33.717694 0.19696,2.915199 0.12817,9.159929 -0.12093,10.977303 l -0.10996,0.80221 1.19412,0.20423 c 1.47708,0.25263 4.36897,0.66002 4.8637,0.68517 0.34073,0.0173 0.38761,-0.1356 0.64695,-2.11041 z m 6.67735,1.08004 c 2.53859,-0.8092 4.66164,-2.060876 6.6405,-3.915012 0.81551,-0.764104 1.84773,-1.447158 3.65642,-2.419561 6.03636,-3.245314 14.46097,-8.141917 17.2235,-10.010741 1.36282,-0.921936 2.36918,-2.109115 3.31964,-3.916097 2.21947,-4.219581 3.80536,-9.789689 4.54694,-15.970192 0.98543,-8.212848 0.77598,-9.646041 -1.40967,-9.646041 -0.93699,0 -0.94837,0.0066 -5.38651,3.134669 l -4.44754,3.13467 -0.73294,-2.917417 c -2.28531,-9.096514 -7.01417,-18.503434 -13.42124,-26.698271 l -1.47122,-1.881734 3.30557,-3.333375 c 3.12037,-3.14662 3.32205,-3.390067 3.59974,-4.345273 0.22197,-0.763565 0.26429,-1.309418 0.17242,-2.224209 -0.10939,-1.089219 -0.22289,-1.36578 -1.11789,-2.723823 -1.86074,-2.823441 -4.05975,-4.96279 -7.3671,-7.167221 -4.71093,-3.1399576 -10.09902,-5.0785665 -16.46439,-5.9238166 -2.61815,-0.34766 -3.12732,-0.3690285 -4.40195,-0.1847366 -3.14877,0.4552651 -5.52576,1.5907123 -9.40435,4.4923035 -1.62505,1.2157097 -5.57471,3.9592747 -8.77703,6.0968107 -8.516484,5.684738 -8.821509,5.903703 -10.346934,7.427679 -1.263807,1.262606 -3.731068,4.738865 -3.731068,5.256908 0,0.101501 0.215081,0.237614 0.477957,0.302472 1.209819,0.298496 5.290965,2.040336 8.212175,3.504968 4.72463,2.368835 8.18865,4.607504 12.16617,7.86256 1.99066,1.629075 6.45129,6.028463 7.56041,7.456605 0.38237,0.492346 0.79042,0.898312 0.90677,0.902145 0.33864,0.01116 2.68581,-2.416667 3.4323,-3.550233 1.04525,-1.587247 1.53258,-2.97526 2.80518,-7.989624 0.64443,-2.539244 1.22612,-4.616809 1.29263,-4.616809 0.35711,0 2.08253,1.654917 4.12464,3.95609 6.66204,7.507208 11.76143,17.166127 14.38451,27.246184 0.84819,3.259444 1.05183,4.358558 1.39,7.502215 0.34181,3.177451 0.37103,3.94282 0.2128,5.57319 l -0.18341,1.889912 -5.97997,-6.181498 c -3.28899,-3.399824 -6.22396,-6.354907 -6.52217,-6.566854 -0.85104,-0.604849 -2.20347,-0.84222 -3.34416,-0.586944 -0.52281,0.117001 -1.11514,0.345987 -1.31628,0.508858 l -0.3657,0.296128 0.79654,2.384174 c 3.2468,9.718135 4.29735,21.072297 2.95483,31.93534 -0.3737,3.023741 -0.4499,2.795871 0.83647,2.501071 0.59745,-0.13691 1.57548,-0.40488 2.17341,-0.59547 z"
     id="path6" />
  <path
     style="fill:#000000;stroke:#f5cb5b;stroke-width:0.173803;stroke-opacity:0"
     d="m 90.029718,112.70653 c -1.433864,-0.19891 -3.800596,-0.93294 -5.038876,-1.56278 -5.670721,-2.88437 -10.693149,-10.02094 -12.778524,-18.157517 -0.947955,-3.698669 -1.197083,-5.875862 -1.203408,-10.516926 -0.0059,-4.333199 0.155888,-6.054078 0.877212,-9.330193 1.992212,-9.048247 7.424071,-16.893273 13.706664,-19.79601 2.138067,-0.987848 3.978041,-1.357561 6.696365,-1.345526 2.866628,0.01269 4.34412,0.358818 6.865201,1.608286 6.737188,3.339006 12.140688,11.992219 13.745448,22.012109 0.37581,2.346454 0.51985,8.679216 0.2571,11.303556 -0.61414,6.134237 -2.52424,11.733566 -5.54232,16.247021 -4.2161,6.30504 -8.866323,9.31792 -14.839491,9.61448 -0.888611,0.0441 -2.124027,0.01 -2.745371,-0.0765 z m 4.949618,-6.86711 c 2.582929,-0.67276 4.683155,-1.91794 6.758934,-4.00723 1.42521,-1.43448 3.14591,-3.791058 3.00782,-4.119331 -0.10371,-0.246549 -7.788484,-9.758762 -8.351219,-10.337146 l -0.383897,-0.394572 -0.502089,0.667491 c -0.938534,1.247714 -2.475204,2.051238 -3.658603,1.913084 l -0.587889,-0.06863 -0.100562,0.876625 c -0.09053,0.78915 -1.479718,15.315819 -1.479718,15.473309 0,0.32321 4.053093,0.32046 5.297223,-0.004 z m -13.205239,-18.03955 5.214077,-2.821949 -0.04148,-0.602547 c -0.191822,-2.786481 -0.104183,-4.096 0.365006,-5.453974 l 0.4752,-1.375378 -0.673076,-0.710253 c -0.370192,-0.39064 -2.424889,-2.587322 -4.565993,-4.881516 -2.141103,-2.294193 -3.941628,-4.193321 -4.001166,-4.220284 -0.17273,-0.07822 -1.291034,2.504874 -1.868146,4.315111 -1.144147,3.588863 -1.60907,7.536355 -1.401254,11.897549 0.130437,2.737336 0.818666,6.705606 1.159103,6.683294 0.06801,-0.0045 2.469987,-1.277983 5.337729,-2.830053 z m 11.317342,-0.970399 c 2.617418,-1.188618 3.196259,-6.381602 0.938675,-8.421194 -0.842605,-0.761243 -1.625393,-0.93085 -2.538428,-0.55 -1.447375,0.603735 -2.458503,2.172899 -2.631824,4.084318 -0.185138,2.04173 0.684745,4.168437 1.985842,4.85503 0.827873,0.43687 1.337918,0.444104 2.245735,0.03185 z m 7.906351,-9.416088 c 2.14063,-1.155704 4.5297,-2.446146 5.30905,-2.86765 l 1.41701,-0.76637 -0.34617,-1.173258 c -1.05522,-3.576439 -3.28361,-7.499462 -5.68344,-10.005548 -1.58867,-1.65902 -4.893705,-3.74429 -6.060733,-3.82395 l -0.459228,-0.03135 -0.996313,7.299707 c -0.54797,4.014839 -1.042268,7.612551 -1.098437,7.994917 -0.100281,0.682662 -0.08772,0.702821 0.695637,1.116876 1.263428,0.667796 2.33336,2.042597 3.01955,3.879947 0.09817,0.262876 0.20832,0.477957 0.244766,0.477957 0.03645,0 1.817686,-0.945576 3.958308,-2.101281 z"
     id="path7" />
  <path
     style="fill:#000000;stroke:#f5cb5b;stroke-width:0.173803;stroke-opacity:0"
     d="m 21.963892,128.88742 c -5.015529,-1.35195 -9.413772,-6.18239 -10.4206,-11.44461 -0.931662,-4.86936 0.756515,-8.78845 4.564709,-10.59696 1.210572,-0.57489 1.533224,-0.65069 3.024942,-0.71061 3.862942,-0.15515 7.504709,1.60393 10.351103,4.9999 2.301203,2.74551 3.359012,5.3257 3.496221,8.52791 0.05113,1.19327 0.0046,2.3885 -0.11552,2.96594 -0.532046,2.55813 -2.240222,4.70697 -4.65512,5.856 -1.264238,0.60153 -1.48205,0.64884 -3.182061,0.69103 -1.368057,0.034 -2.135046,-0.0383 -3.063674,-0.2886 z"
     id="path8" />
</svg>
