<svg xmlns="http://www.w3.org/2000/svg" width="128pt" height="127pt" viewBox="0 0 128 127"><path d="m64.602 55.059.8 1.406 17.45 16.883 1.804 1.203 1.805.804 6.82 2.012 1.805.801 1.805 1.406 30.683 30.746.403 1.207-1.004.805-3.61 1.203h-1.804l-1.805-1.004-7.82-8.039-1.606-.402-1.605.402-.2.606 10.63 10.449.402 1.203-.403 1.41-1.203.602-1.402-.602-10.633-10.453-.398.203-.602 1.406.602 1.407 8.02 8.238.804 1.406v2.012l-1.004 3.617-1.004 1.004-1.203-.402-30.684-30.946-1.203-1.609-1.004-1.809-1.804-6.629-1.004-2.011-1.203-1.606L56.379 65.11q-1.003-1.206-2.809 0l-2.605 2.61c-.27.535-.735.804-1.406.804q-1.003-.001-1.403-.804l-8.422-8.239c-.937-1.207-1.004-2.074-.203-2.613q.803-1.406-.601-2.61L3.434 18.489q-1.606-1.207-1.606-3.617L.023 1.81Q.023-.001 2.027 0l13.239 1.61q1.804 0 3.609 1.605l35.5 35.77 2.605.199 2.606.402 8.426 8.238q1.2 1.61 0 3.016l-2.61 2.812z"/></svg>