<svg xmlns="http://www.w3.org/2000/svg" xml:space="preserve" width="766.447" height="150.766" viewBox="0 0 202.789 39.89"><path d="M101.273 1.937c-2.093.22-4.024.431-5.956.619-.5.048-1.048.164-1.503.021-3.36-1.048-6.8-.405-10.2-.54-.835-.034-1.671-.171-2.502-.148-.55.016-1.32.059-1.598.402-.95 1.17-2.191 1.18-3.469 1.13-1.773-.071-3.638-.619-5.292-.23-3.299.775-7.236.21-9.45 3.818-.252.413-1.17.566-1.79.59-7.135.251-14.27.495-21.41.65-4.029.09-8.061.086-12.088-.026-1.159-.031-2.305-.584-3.456-.902-.632-.174-1.251-.466-1.894-.518a18.6 18.6 0 0 0-3.188-.005c-2.37.217-4.514-.315-6.522-1.588-1.86-1.18-3.961-1.175-6.014-.78C2.015 4.99-.054 7.493 0 10.147c.058 2.744 2.339 5.316 5.326 5.845 2.067.365 4.146.368 5.99-.863 1.84-1.227 3.829-1.558 6.028-1.468 2.177.087 4.46.513 6.4-1.196.476-.42 1.508-.296 2.283-.299 5.877-.021 11.756-.093 17.632.013 5.517.1 11.028.379 16.54.646.494.024 1.102.442 1.417.857 1.532 2.008 3.628 2.881 6.046 2.992 2.273.104 4.556.016 6.834.019 1.381 0 2.733.106 3.815-1.125.35-.4 1.228-.531 1.84-.481 6.058.505 12.112 1.058 18.163 1.643.979.095 1.94.413 2.892.624q.476 2.773 3.426 2.781c3.919.003 7.837.016 11.756-.01 1.979-.014 4.048.33 5.725-1.204.17-.156.537-.138.813-.138 6.14-.008 12.284-.005 18.581-.005.252 3.768-.72 6.829-3.42 9.168-.967.833-2.263 1.283-3.393 1.937-.394.227-.963.481-1.053.825-.098.381.138 1.037.455 1.283.326.254 1.088.381 1.379.175 2.114-1.495 4.32-2.916 6.175-4.694 2.254-2.161 2.966-5.143 3.344-8.16 4.072.276 6.567 2.075 7.713 6.126.982 3.474 3.188 5.286 6.612 5.64 1.249.13 2.63-.206 3.831-.65 1.611-.593 3.075-1.564 4.66-2.239 1.206-.513 2.423-.362 3.4.63 1.83 1.865 3.786 3.633 5.431 5.646 2.474 3.027 5.683 4.57 9.414 5.287 2.667.513 4.842-.408 6.2-2.646 1.695-2.8 3.328-5.673 4.595-8.679 1.918-4.542 3.358-9.284 5.284-13.824 1.013-2.394.992-4.366-1.088-5.921-1.002-.752-2.357-1.315-3.6-1.424-4.63-.405-8.933.73-12.984 3.043-5.477 3.13-11.139 5.837-17.253 7.623-4.186 1.222-7.252-.572-10.319-2.84-.132-.097-.323-.219-.347-.351-.584-3.371-3.595-4.406-5.971-5.927-2.17-1.392-4.5-2.707-6.945-3.458-4.03-1.238-8.203-2.024-12.327-2.94-1.329-.296-2.67-.222-3.445-1.796-.48-.971-1.477-.67-2.244.092-.987.98-4.016.919-5.133.135-.635-.447-1.505-.775-2.275-.788-4.869-.071-9.74-.05-14.608-.034-1.188.003-2.273.232-2.326 1.918z" class="cls-1"/></svg>