<svg xmlns="http://www.w3.org/2000/svg" xml:space="preserve" width="430.063" height="135.565" viewBox="0 0 113.787 35.868"><path d="M11.045 12.458q0 1.67-1.67 1.67H4.11v7.833l2.825 2.44h16.567q.9 0 1.413.77l20.934-.127v-.257l3.339-5.394 2.825-4.495-9.76.257-5.137 1.67h-.129v.898l-.642.514-.77-.514v-.899h-1.927v.9l-.642.513-.642-.514v-.899h-2.055v.9l-.642.513-.514-.514v-.899h-1.926v.9l-.77.513-.643-.514v-.899h-1.926v.9l-.642.513-.643-.514v-.899H20.55v.9q0 .513-.643.513l-.385-.514v-.899h-1.284q-1.798 0-1.798-1.541v-2.055l-1.284-.77zm54.325 8.347v-.256l-.514-1.156-1.156-.514h-5.65l-1.285.514-.513 1.156v.256l.513 1.285 1.285.385h5.65l1.156-.385zm40.455 5.394q1.413-1.412 1.413-3.339 0-2.055-1.413-3.339-1.413-1.413-3.34-1.413-2.054 0-3.338 1.413-1.542 1.284-1.542 3.34 0 1.926 1.542 3.338 1.284 1.285 3.339 1.285 1.926 0 3.339-1.285m-12.586-8.861q-1.156-1.156-2.44-1.156-1.413 0-2.569 1.156-.77.899-.77 2.44 0 1.413.77 2.312 1.156 1.027 2.569 1.027 1.284 0 2.44-1.027 1.027-.9 1.027-2.312 0-1.541-1.027-2.44m-10.531-1.413q-1.156-1.156-2.569-1.156-1.54 0-2.568 1.156-1.028.9-1.028 2.569 0 1.54 1.028 2.697 1.027.899 2.568.899 1.413 0 2.569-.9l1.156-2.696zM67.553.9l1.156.642.385 1.156v7.32l-.385 1.156-1.284 1.028-1.156.385 6.935 6.678 1.156-4.752q.642-1.284 3.082-1.926l3.853-.385 11.43 1.54 11.302 1.414 3.21-.514 2.055-.77 2.055.385 2.44 1.284-.513 7.962-.9 8.605-.641 2.569q-.514 1.027-1.67 1.155-1.027.257-3.468-1.284l-2.054-1.54q-2.44-1.799-5.908-3.597-7.32-3.981-13.1-4.752l-5.522.386-2.569.899-1.284 1.155-1.926.386-2.055-.386-3.34-3.339h-13.1l-1.412-3.082h-1.284l-.385 3.21h1.412q.642 0 1.028.514l.513 1.285v.257l-.513 1.155-1.028.257h-6.55l-1.027-.128-.642-.642-20.934.128q-.642.642-1.413.642H1.67V14.127q-1.67 0-1.67-1.67V3.597q0-1.541 1.67-1.541h7.705l1.541.899h3.982q0-1.67 1.67-1.67h21.96l.9-.128h2.183Q41.868.128 42.895.128L62.673 0l.77.257.514.642z"/></svg>