<svg xmlns="http://www.w3.org/2000/svg" xml:space="preserve" width="501.329" height="121.823" viewBox="0 0 132.643 32.232"><path d="m109.917 26.142 6.981 3.714 1.931-4.01-8.02-3.417-14.706-.446-1.04 1.337q.892 2.08 2.228 3.565 1.634 1.931 3.862 2.525l6.09-1.04 1.634-1.04zM30.45 10.1v2.674h16.636V10.1zm-13.22 0-.445.595v1.485l.445.594H28.52V10.1zm51.097 1.189v.594h13.368v-.594zm0-3.565V9.06h13.368V7.724zm0-2.97v.742h13.368v-.743zm14.11-2.08 1.04.298.446 1.188v.446l.594-1.04 1.04-.297h1.04l1.04.445.445 1.04V6.09l1.04-.446q.891 0 1.188.595l.594 1.188v.891l.595-.148h.297l.89.445.595 1.188v.149h.297l4.605 1.782.148-5.941L101.6 6.98l.743 3.565q.742 3.714 2.228 4.753l1.93.446 2.377-.743 2.674-.891 2.97-.149 16.043 3.565q-1.634 2.971 0 7.427l2.08 3.862-.743 1.783q-.743.594-1.931 0l-9.507-4.308-2.822 5.941-7.427-4.01-3.416 2.08-5.793.594Q98.33 30.3 96.4 28.222l-2.525-3.565-2.376 2.97-13.22-9.06H48.57q-1.485 0-1.485-1.485H4.456v3.862q0 1.485-1.634 1.485H1.634Q0 22.429 0 20.944V7.13q0-1.486 1.634-1.486h1.188q1.634 0 1.634 1.486v.594h12.329v.446h11.734v-.595q0-1.336 1.04-1.336.891 0 .891 1.336v.595h16.636q0-1.783 1.485-1.783h10.844q.742 0 1.188.594l.594 1.189v3.861h2.08V6.24l.594-1.189V.743l.148-.594.743-.149.297.149.446.594V5.05l.594 1.189v-2.08l.594-1.188 1.04-.297z"/></svg>