<svg xmlns="http://www.w3.org/2000/svg" xml:space="preserve" width="393.213" height="104.215" viewBox="0 0 104.038 27.573"><path d="M78.897.348h.116l1.854.231 1.738-.347V.116L82.836 0h4.519l1.39.116.116.116.116.116v.695l.231.231h.116l.464.348.347.348.116.115h.463l.232.116.116.116.116.811v.463l.116.116L92.8 4.75v-.232l.231-.116v.116l.116-.116 1.506-.231.116.116V4.17l.232-.116h1.506l.116.116.116.116v.695l.116-.116v.116h2.433v6.835h-.232v1.275h.232v1.737h-1.854l-.116.116v.232h-.463l-.116-.116-.811.464-.116.115-.116-.115h-2.665l-.115.115-.116-.115-.116-.116v-2.433h-3.36v.116h-6.14v-.116H82.14l-.116 1.158-.927 1.043-.115 1.159v.231l-.58.811-.116.116h-.115l-.116.116h-.464l-.116-.116v-.232h.116v-2.664l1.043-1.043h-1.97l-.115.116-.116.116-.348.463-.347.232h-.116l-.232.116h-.347l-.464.579-1.043.695-.347.695-.116.116-.116.232-1.506.695v.116h-2.548v.232l-.233.347-.347.58-.348.115-.926.464-1.622.579v-1.275l.115-.115v-.348l-.115-.232H54.916v-.115h-.117l-3.012-2.086-.232-.232v-.115l-.115-.116h-.811v-.232h-.116l-.348.116h-.463l-.695-.232-.116-.232v-.115h-.116V2.78h.116v-.116l-.116-.116h9.384V.579h.116l.927.116h.232l.115.232v.116l.464-.116h.116L60.36.81l2.317-.58h.348l1.506.232 1.043.116.232.116.115.232h1.159V.579l.232-.116 1.042-.115L69.63.232h.347l.811.231.695.116.58.116.463.116.232.116L72.64.81l.116-.116.116-.116h.811l.347.116.58.348.231.116.116-.116h1.622l.811.116q.116.115.58.347l-.117-.695.232-.232zM48.891.927h.116l.115.116v.116h4.171L54.8.927l.811.232h1.506l.232-.116.464-.348h.115v1.622H36.958l-.116-.116-2.433-1.042h-.232v-.116h.116V.927h7.299V.579l.347-.116.116.116h.58l.231.348zm21.78 7.53q0-1.274-.926-2.2-.927-.928-2.317-.928-1.275 0-2.202.927T64.3 8.457q0 1.39.927 2.318.927.926 2.202.926h.347q1.159 0 1.97-.81.926-.927.926-2.086v-.348m18.421-6.256v-.116l-.231-.115-.232-.116h-.116l-.695.116-4.402-.348h-.811l-.58.348v.115l.116.232.116.232h.116l.116.232h.116l1.737.115.695.116 2.781.58v-.116l.116-.695v-.348l.116-.116h.116zm-81.446 7.3V8.225h3.824V9.5zm5.793-6.835.116.116v.115l.116.116v11.702l-.232.231h-1.622V2.665zm2.78 13.67v-.115l-2.2-1.39V3.011l2.317-1.622h17.61l.115.116h.116V1.39l.116.116 2.549 1.043v.116h.232l.115-.116h1.97v12.628h-1.738l-6.488.116v-.116h-.116l-.115.116v.58h-.58v.463H16.683v.115h-.232v-.115zM2.896 2.78v12.28l-.115.116L0 15.061V2.665h2.665zm.232.81h8.342v1.854H3.128zm27.226 14.714.116-.116v-2.085h.232l.115.116.116-.116.116-.116v-.116h-.116v-.116h20.275l.347.348 2.897 2.085h.116l.231.232.116-.116h12.28v1.97l-.115.231-.116.116-.58.348-.347.116-.695.231h-.347l-.464-.116-.232-.347h-6.72l-.115.116-.927.347-.695-.116h-.348l-.347-.231H31.513l-.116-.116h-.58l-.347-.464-.116-.231zm73.568-8.341v.115l-.116.116-.463.116V7.415l.231.116h.232l.116.115.116 1.622v.116zm-1.275-3.824.348.58v.231l.116 1.506v2.665l-.232.232-.116.231-.116.116h-.115l-1.043.232V6.024h.81l.117.116h.231m-5.56 5.793h-.348v1.159h.347zM85.964 25.488 83.3 13.323h5.56l-.579.116-.347.116 2.433 11.006v.116h.116v.232l-.116.116-.58.231.116.232.58.116h.116l.115.116v.116l.116.81-.927.348h-.115l-.927.116h-.116v.116h-.232l-2.085.347-.464-.926.927-.811-.116-.116h-.695l-.116-.116zm6.14-18.073V6.95h-3.938v3.592h.231l3.013.232.695-.464h-3.708V7.415zm8.92-3.244.232.463v10.89l-3.823-.115v-.116l.116-.232h1.969V4.866h-.116V4.75h-2.085v-.232l.116-.116 2.201-.231h1.39M39.507 14.829l-.116.116V2.55h9.152v12.165h-9.036zm-7.531 1.507v.347H50.86v-.347H31.976m-28.848-3.94h8.342v1.507H3.128zm47.732 5.33v-.232H31.976v.232H50.86m0 .927v-.348H31.976v.348zm0 .926v-.347H31.976v.347H50.86"/></svg>