<?xml version="1.0" encoding="UTF-8"?>
<svg id="Layer_1" data-name="Layer 1" xmlns="http://www.w3.org/2000/svg" viewBox="0 0 604 227.44">
  <defs>
    <style>
      .cls-1, .cls-2 {
        stroke-width: 0px;
      }

      .cls-2 {
        fill: #fff;
      }
    </style>
  </defs>
  <g id="TI8L0I.tif">
    <g>
      <path class="cls-2" d="m604,227.44H0V0h604v227.44ZM104.12,55.25c-3.74-1.89-6.17-2.94-8.4-4.29-7.1-4.3-14.05-8.87-21.22-13.06-6.92-4.04-11.53-3.52-16.61,1.48-14.19,13.97-28.7,27.64-42.38,42.08-8.9,9.39-13.83,20.17-6.8,33.2.97,1.8,2.97,3.55,4.89,4.24,8.53,3.07,17.31,5.44,25.79,8.61,18.35,6.86,36.54,14.16,54.88,21.06,4.49,1.69,8.94,2.29,11.64,7.51,2.13,4.12,6.72,6.93,9.9,10.59,2.25,2.59,4.65,3.57,8.12,3.56,35.34-.13,70.68-.09,106.02-.07,4.69,0,10.62-1.51,13.75.75,3.31,2.39,4.12,8.4,5.7,12.93,1.24,3.56,2.48,6.98,6.83,7.4,4.29.42,6.29-2.68,8.31-5.81,4.23-6.54,8.42-13.12,13.02-19.39,3.91-5.33,8.28-10.32,12.65-15.28,1-1.13,2.84-2.02,4.36-2.13,7.76-.57,15.55-1.15,23.33-1.19,27.33-.14,54.66,0,81.99-.11,3.04-.01,4.7.69,6,3.7,2.78,6.46,5.55,13.04,9.34,18.92,21.04,32.72,50.9,51.09,90,53.79,14.86,1.02,29.31-1.32,43.78-6.27-1.25-3.8-2.41-7.32-3.52-10.7,4.86-2.97,9.54-5.78,14.17-8.67,1.85-1.15,2.7-2.45.81-4.5-4.77-5.18-9.51-10.4-14.03-15.79-2.08-2.49-3.96-5.26-5.33-8.19-1.65-3.51-2.44-7.42-4.04-10.95-1.26-2.77-.62-4.29,1.47-6.43,11.13-11.4,15.51-25.11,12.9-40.88-.92-5.58,3.03-10.17,8.71-10.26,6.12-.1,11.55.91,15.12,6.58.61.97,1.85,1.54,2.71,2.22,7.39-4.58,10.28-3.75,12.58,3.36.24.74.25,1.56.51,2.29,1.73,4.84,3.51,9.67,5.27,14.5,2.87-9.69,2.09-18.97.62-28.32-2.05-12.94-8.45-24.16-13.69-35.83-1.51-3.36-3.64-6.59-6.06-9.38-7.81-9.04-17.99-14.99-28.21-20.86-2.62-1.5-4-.91-4.94,1.76-2.28,6.48-4.39,13.04-6.98,19.4-1.62,3.98-3.68,7.87-6.12,11.41-2.28,3.3-5.33,6.06-8.28,9.33-11.57-3.94-23.33-3.53-34.8,1.97-6.54,3.14-10.83,1.13-12.97-5.87-1.8-5.88-1.81-11.38,2.5-16.32.76-.87,1.15-2.07,1.72-3.13-.74-.67-1.19-1.1-1.67-1.49-5.03-4.1-5.1-6.32-.05-10.18,2.36-1.81,5.01-3.23,7.42-4.97,2.3-1.66,4.47-3.52,6.7-5.28-.26-.39-.51-.79-.77-1.18-10.95,1.02-21.25,4.49-30.6,10.18-19.18,11.67-36.53,25.16-41.77,48.93-4.84-1.23-8.89-2.4-13.02-3.2-1.16-.23-2.59.49-3.79,1.02-1.45.65-2.77,2.25-4.15,2.26-26.7.14-53.4.11-80.1.07-1.21,0-3.28-.03-3.49-.58-1.25-3.39-3.98-2.34-6.3-2.41-3.14-.1-6.29-.17-9.42,0-6.64.36-9.07-1.1-8.53-8.49.16-2.2.13-5.08-1.1-6.58-2.74-3.32-6.42-5.85-9.51-8.91-4.57-4.51-9.43-8.85-13.27-13.94-2.7-3.58-5.09-6.68-9.93-7.28,1.54-.41,3.08-.82,5.83-1.56-2.69-.71-4.23-1.11-6.25-1.64,1.95-.53,3.44-.93,4.94-1.33-.03-.25-.06-.5-.09-.75l-4.54-.62-.02-.65c1.56-.44,3.13-.88,4.69-1.32-.04-.25-.09-.5-.13-.76-1.46-.32-2.91-.65-5.02-1.11,2.19-.58,3.73-.99,5.34-1.42-1.23-1.62-2.68-2.78-3.13-4.24-2.22-7.2-2.67-7.79-10.22-7.88-2.74-.03-3.97-.87-4.31-3.61-.38-3.09-.92-6.2-1.84-9.17-.46-1.49-1.67-3.39-2.95-3.79-1.15-.36-3.29.69-4.27,1.76-2.94,3.24-5.61,6.74-8.24,10.24-5.17,6.88-10.38,13.74-15.32,20.79-2.25,3.21-3.84,6.88-5.78,10.31-.77,1.35-1.69,2.61-3.23,4.96-1.21-7.81-1.21-7.96-3.6-8.02-4.55-.11-9.17-.48-13.65.1-4.74.61-10.97-.19-10.85,7.55-5.1-.25-3.8-4.4-4.2-6.76-1.33-7.93-6.15-11.99-13.53-13.74-4.38-1.04-7.79-.08-9.4,4.58-.84,2.41-2.23,3.46-5.12,3.73-3.49.32-7.78.92-7.44,6.36-2.82.49-5.71,1.51-6.72-2.23-1.25-4.61-3.96-5.09-7.8-3.28-3.78,1.78-7.37,2.94-10.28,7.02-1.88,2.64-6.14,3.63-4.52,9.59Z"/>
      <path class="cls-1" d="m104.12,55.25c-1.62-5.96,2.64-6.96,4.52-9.59,2.91-4.08,6.5-5.24,10.28-7.02,3.84-1.81,6.55-1.34,7.8,3.28,1.01,3.74,3.9,2.72,6.72,2.23-.34-5.44,3.95-6.03,7.44-6.36,2.88-.27,4.28-1.32,5.12-3.73,1.61-4.66,5.02-5.62,9.4-4.58,7.38,1.75,12.2,5.81,13.53,13.74.4,2.36-.89,6.51,4.2,6.76-.12-7.74,6.11-6.94,10.85-7.55,4.48-.57,9.1-.21,13.65-.1,2.39.06,2.39.21,3.6,8.02,1.54-2.35,2.46-3.61,3.23-4.96,1.95-3.43,3.54-7.09,5.78-10.31,4.93-7.05,10.14-13.91,15.32-20.79,2.63-3.5,5.3-7,8.24-10.24.98-1.08,3.11-2.13,4.27-1.76,1.28.4,2.49,2.3,2.95,3.79.91,2.97,1.46,6.08,1.84,9.17.33,2.74,1.57,3.58,4.31,3.61,7.55.1,8.01.69,10.22,7.88.45,1.46,1.89,2.61,3.13,4.24-1.61.43-3.15.84-5.34,1.42,2.1.47,3.56.79,5.02,1.11.04.25.09.5.13.76-1.56.44-3.13.88-4.69,1.32l.02.65,4.54.62c.03.25.06.5.09.75-1.49.4-2.98.81-4.94,1.33,2.02.53,3.56.93,6.25,1.64-2.76.74-4.29,1.15-5.83,1.56,4.84.6,7.23,3.7,9.93,7.28,3.84,5.08,8.7,9.42,13.27,13.94,3.09,3.06,6.77,5.59,9.51,8.91,1.24,1.5,1.27,4.38,1.1,6.58-.55,7.39,1.89,8.85,8.53,8.49,3.13-.17,6.28-.1,9.42,0,2.31.07,5.04-.98,6.3,2.41.2.55,2.28.58,3.49.58,26.7.03,53.4.06,80.1-.07,1.38,0,2.7-1.61,4.15-2.26,1.2-.53,2.63-1.25,3.79-1.02,4.13.81,8.18,1.98,13.02,3.2,5.24-23.77,22.59-37.26,41.77-48.93,9.34-5.69,19.65-9.16,30.6-10.18.26.39.51.79.77,1.18-2.23,1.77-4.39,3.62-6.7,5.28-2.41,1.74-5.06,3.16-7.42,4.97-5.04,3.87-4.98,6.08.05,10.18.48.39.92.82,1.67,1.49-.57,1.06-.96,2.26-1.72,3.13-4.31,4.94-4.3,10.44-2.5,16.32,2.15,7,6.43,9.01,12.97,5.87,11.47-5.5,23.23-5.91,34.8-1.97,2.95-3.27,6-6.03,8.28-9.33,2.44-3.53,4.5-7.43,6.12-11.41,2.59-6.36,4.7-12.91,6.98-19.4.94-2.67,2.32-3.26,4.94-1.76,10.23,5.87,20.4,11.82,28.21,20.86,2.42,2.8,4.55,6.02,6.06,9.38,5.24,11.67,11.65,22.89,13.69,35.83,1.48,9.35,2.26,18.63-.62,28.32-1.76-4.83-3.53-9.66-5.27-14.5-.26-.73-.27-1.55-.51-2.29-2.3-7.11-5.2-7.94-12.58-3.36-.86-.68-2.1-1.25-2.71-2.22-3.57-5.66-9-6.68-15.12-6.58-5.68.09-9.63,4.69-8.71,10.26,2.61,15.77-1.76,29.47-12.9,40.88-2.09,2.14-2.72,3.66-1.47,6.43,1.61,3.53,2.39,7.45,4.04,10.95,1.38,2.92,3.25,5.7,5.33,8.19,4.52,5.39,9.26,10.61,14.03,15.79,1.89,2.05,1.04,3.35-.81,4.5-4.63,2.88-9.3,5.7-14.17,8.67,1.11,3.38,2.27,6.9,3.52,10.7-14.47,4.95-28.92,7.3-43.78,6.27-39.1-2.7-68.96-21.07-90-53.79-3.79-5.88-6.56-12.47-9.34-18.92-1.29-3-2.96-3.71-6-3.7-27.33.11-54.66-.02-81.99.11-7.78.04-15.57.62-23.33,1.19-1.52.11-3.36,1-4.36,2.13-4.38,4.96-8.75,9.96-12.65,15.28-4.6,6.27-8.79,12.85-13.02,19.39-2.02,3.13-4.02,6.23-8.31,5.81-4.34-.42-5.59-3.84-6.83-7.4-1.58-4.54-2.39-10.54-5.7-12.93-3.13-2.26-9.05-.75-13.75-.75-35.34-.02-70.68-.06-106.02.07-3.47.01-5.87-.97-8.12-3.56-3.18-3.66-7.77-6.46-9.9-10.59-2.7-5.23-7.15-5.82-11.64-7.51-18.34-6.9-36.53-14.2-54.88-21.06-8.48-3.17-17.26-5.55-25.79-8.61-1.92-.69-3.92-2.44-4.89-4.24-7.03-13.03-2.1-23.81,6.8-33.2,13.68-14.45,28.19-28.12,42.38-42.08,5.08-5,9.69-5.52,16.61-1.48,7.17,4.19,14.12,8.76,21.22,13.06,2.24,1.36,4.67,2.4,8.4,4.29Zm-48.22,4.95c-3.93,3.36-8.07,6.46-11.68,10.1-7.22,7.29-15.73,13.51-19.83,23.5-2.53,6.16-1.27,12.49,3.17,14.02,15.85,5.48,31.68,10.99,47.54,16.45,4.83,1.66,9.71,3.19,15.35,5.04,0-3-.06-5.16,0-7.31.42-13.92-.09-27.97,1.66-41.73,1.15-9.06,1.88-16.34-7.93-20.45-.41-.17-.78-.42-.7-.38-2.07,1.24-3.84,2.31-6.31,3.79.19-2.15.43-3.37.36-4.57-.07-1.41-.4-2.81-.62-4.22-1.54.24-3.57-.05-4.52.83-3.28,3.03-6.18,6.47-9.52,10.07-1.7-1.25-4.2-3.1-6.99-5.15ZM223.87,23.56c-.54-.29-1.08-.57-1.62-.86-3.35,8.71-12.9,13.31-15.47,23.44,7.25-1.94,11.93,1.69,11.59,8-.27,5.12,1.4,6.3,6.39,4.37-1.74-.32-3.37-.63-5-.93l.11-.86c1.46-.26,2.91-.53,4.82-.87-1.94-.64-3.46-1.14-5.95-1.96,2.63-.67,4.19-1.07,6.8-1.74-2.66-.51-4.19-.79-5.71-1.08,0-.27-.01-.53-.02-.8,1.51-.34,3.01-.68,5.4-1.22-2.35-.66-3.91-1.1-6.66-1.87,2.68-.7,4.23-1.11,6.38-1.67-2.11-.44-3.62-.75-5.12-1.06l.02-.82c1.62-.31,3.24-.62,6.06-1.17-2.78-.73-4.41-1.15-7.4-1.94,3-.69,4.57-1.05,6.74-1.55-2.19-.58-3.77-1-5.34-1.42.06-.26.11-.53.17-.79,1.56-.17,3.13-.33,4.69-.5,0-.22,0-.44,0-.66-1.62-.42-3.24-.84-6.2-1.6,2.95-.74,4.5-1.12,6.73-1.68-2.3-.53-3.88-.89-4.8-1.11,1.2-2.7,2.3-5.17,3.41-7.65Zm-63.5,24.27c2.4.18,4.31.32,6.25.46,0-10.24-4.3-15.7-12.73-16.44-2.1-.19-4.87-.67-5,2.58-.12,2.89,2.07,3.17,4.54,3.24,5.15.15,6.83,2.18,6.71,7.4-.02.75.12,1.51.24,2.77Zm63.6-27.47c3.64-.6,6.62-1.06,9.59-1.6,1-.18,2.63-.32,2.83-.88,1.5-4.24,3.92-8.51.52-14.19-4.5,5.8-8.61,11.09-12.94,16.67Zm-47.78,24.48c.48,2.33.89,4.31,1.29,6.28.56.15,1.12.3,1.68.46.96-2.02,1.91-4.04,3.18-6.74h-6.16Z"/>
      <path class="cls-2" d="m55.9,60.2c2.79,2.06,5.29,3.9,6.99,5.15,3.34-3.6,6.24-7.04,9.52-10.07.95-.88,2.98-.58,4.52-.83.22,1.41.55,2.81.62,4.22.06,1.2-.18,2.42-.36,4.57,2.47-1.48,4.24-2.55,6.31-3.79-.08-.04.3.21.7.38,9.81,4.11,9.08,11.38,7.93,20.45-1.75,13.76-1.24,27.8-1.66,41.73-.07,2.15,0,4.31,0,7.31-5.65-1.85-10.52-3.38-15.35-5.04-15.85-5.46-31.69-10.97-47.54-16.45-4.45-1.54-5.7-7.86-3.17-14.02,4.1-9.99,12.6-16.21,19.83-23.5,3.6-3.64,7.75-6.74,11.68-10.1Z"/>
      <path class="cls-2" d="m223.87,23.56c-1.1,2.48-2.21,4.96-3.41,7.65.93.21,2.5.58,4.8,1.11-2.23.56-3.77.94-6.73,1.68,2.96.77,4.58,1.19,6.2,1.6,0,.22,0,.44,0,.66-1.56.17-3.13.33-4.69.5-.06.26-.11.53-.17.79,1.57.42,3.15.84,5.34,1.42-2.17.5-3.74.86-6.74,1.55,2.99.78,4.62,1.21,7.4,1.94-2.82.54-4.44.86-6.06,1.17l-.02.82c1.51.31,3.01.62,5.12,1.06-2.15.56-3.69.97-6.38,1.67,2.75.77,4.31,1.21,6.66,1.87-2.39.54-3.9.88-5.4,1.22,0,.27.01.53.02.8,1.53.29,3.05.58,5.71,1.08-2.61.67-4.17,1.06-6.8,1.74,2.5.82,4.01,1.32,5.95,1.96-1.9.34-3.36.61-4.82.87l-.11.86c1.63.3,3.26.61,5,.93-4.99,1.93-6.66.75-6.39-4.37.33-6.31-4.34-9.95-11.59-8,2.57-10.13,12.12-14.73,15.47-23.44.54.29,1.08.57,1.62.86Z"/>
      <path class="cls-2" d="m160.37,47.83c-.11-1.26-.25-2.02-.24-2.77.11-5.22-1.56-7.25-6.71-7.4-2.47-.07-4.65-.35-4.54-3.24.13-3.25,2.9-2.77,5-2.58,8.44.75,12.73,6.21,12.73,16.44-1.93-.14-3.85-.28-6.25-.46Z"/>
      <path class="cls-2" d="m223.97,20.37c4.33-5.57,8.44-10.87,12.94-16.67,3.4,5.68.97,9.95-.52,14.19-.2.56-1.83.7-2.83.88-2.97.54-5.95,1-9.59,1.6Z"/>
      <path class="cls-2" d="m176.19,44.85h6.16c-1.27,2.69-2.23,4.71-3.18,6.74-.56-.15-1.12-.3-1.68-.46-.41-1.97-.81-3.95-1.29-6.28Z"/>
    </g>
  </g>
</svg>