<?xml version="1.0" encoding="UTF-8"?>
<svg id="Layer_1" data-name="Layer 1" xmlns="http://www.w3.org/2000/svg" viewBox="0 0 470.23 470.23">
  <defs>
    <style>
      .cls-1, .cls-2 {
        stroke-width: 0px;
      }

      .cls-2 {
        fill: #fff;
      }
    </style>
  </defs>
  <g id="Kn9Au7.tif">
    <g>
      <path class="cls-2" d="m470.23,470.23H0V0h470.23v470.23ZM9.97,423.46c.19,4.83.9,6.9,4.83,10.95,6.06,6.25,12.16,12.49,18.58,18.37,2.88,2.63,6.5,4.49,9.92,6.47,4.22,2.45,8.36,1.78,12.07-1.18,4.13-3.3,7.35-7.11,5.24-12.95-1.28-3.54-.07-6.38,1.9-9.3,3.78-5.61,7.2-11.46,11-17.06,3.82-5.63,7.42-11.52,11.98-16.51,10.44-11.43,21.36-22.42,32.16-33.5,24.68-25.32,49.98-49.99,77.11-72.72,9.02-7.55,17.88-15.29,26.82-22.94,8.63-7.4,17.3-14.75,25.88-22.21,11.89-10.33,24.11-20.31,35.46-31.2,19.53-18.74,38.51-38.06,57.69-57.17,30.07-29.94,60.11-59.91,90.17-89.87,6.73-6.71,13.6-13.28,20.14-20.17,3.46-3.64,6.03-8.36,4.34-13.37-2.79-8.3-9.05-14.27-15.89-19.4-7.25-5.44-15.01-5.7-22.22,1.78-18.7,19.39-37.73,38.45-56.69,57.58-25.56,25.79-51.22,51.49-76.77,77.29-17.13,17.29-34.57,34.29-51.1,52.14-12.32,13.3-23.39,27.77-35.07,41.67-8.89,10.59-17.8,21.16-26.8,31.64-3.13,3.65-6.58,7.03-9.87,10.54-14.51,15.45-28.84,31.09-43.6,46.3-8.59,8.85-18.41,16.53-26.71,25.62-16.14,17.65-34.8,31.98-55.13,44.32-3.4,2.06-6.69,3.77-11.21,2.83-6.23-1.31-14.44,6.1-14.21,12.05Z"/>
      <path class="cls-1" d="m9.97,423.46c-.23-5.95,7.98-13.36,14.21-12.05,4.52.95,7.81-.76,11.21-2.83,20.33-12.34,38.99-26.66,55.13-44.32,8.31-9.08,18.13-16.77,26.71-25.62,14.76-15.21,29.09-30.84,43.6-46.3,3.3-3.51,6.74-6.89,9.87-10.54,9-10.49,17.91-21.06,26.8-31.64,11.67-13.91,22.74-28.37,35.07-41.67,16.53-17.84,33.97-34.85,51.1-52.14,25.56-25.8,51.21-51.5,76.77-77.29,18.96-19.13,37.99-38.19,56.69-57.58,7.21-7.48,14.97-7.22,22.22-1.78,6.84,5.13,13.1,11.1,15.89,19.4,1.69,5.01-.89,9.73-4.34,13.37-6.54,6.89-13.41,13.46-20.14,20.17-30.06,29.96-60.1,59.92-90.17,89.87-19.18,19.1-38.16,38.42-57.69,57.17-11.35,10.89-23.58,20.87-35.46,31.2-8.58,7.46-17.24,14.81-25.88,22.21-8.93,7.66-17.8,15.39-26.82,22.94-27.13,22.73-52.44,47.39-77.11,72.72-10.81,11.09-21.73,22.08-32.16,33.5-4.56,4.99-8.16,10.88-11.98,16.51-3.79,5.6-7.21,11.45-11,17.06-1.97,2.92-3.18,5.76-1.9,9.3,2.11,5.84-1.1,9.65-5.24,12.95-3.71,2.96-7.85,3.63-12.07,1.18-3.42-1.98-7.04-3.84-9.92-6.47-6.42-5.87-12.52-12.11-18.58-18.37-3.93-4.05-4.65-6.12-4.83-10.95Z"/>
    </g>
  </g>
</svg>