<svg id="Layer_1" data-name="Layer 1" xmlns="http://www.w3.org/2000/svg" viewBox="0 0 453.96 453.96">
  
  <g id="JJCeVC.tif">
    <g>
      
      <path class="cls-1" d="m20.26,441.49c-1.68-1.96-3.03-3.86-4.71-5.41-1.85-1.72-3.84-3.43-6.06-4.59-2.17-1.13-2.96-2.34-2.02-4.61,1.8-4.32,4.03-8.17,7.5-11.58,27.95-27.49,55.79-55.08,83.49-82.82,29.59-29.64,58.91-59.55,88.46-89.23,21.36-21.45,42.86-42.77,64.4-64.04,3.97-3.92,8.69-7.08,12.6-11.04,8.08-8.17,15.69-16.8,23.76-24.98,36.95-37.44,73.94-74.84,111.06-112.1,3.53-3.55,8.09-6.09,12.29-8.94.84-.57,3.04-.75,3.17-.46.55,1.22.58,2.69.74,4.07.02.19-.31.4-.38.63-.49,1.63-.96,3.28-1.43,4.92,1.84-.42,4.1-.3,5.42-1.36,3.27-2.6,7.25-1.74,10.75-2.93,1.6-.55,3.58-.67,4.74-1.71,2.44-2.17,3.98-2.01,5.29,1.32-1.18,1.05-2.55,2.26-3.92,3.47.7,2.56,2.14,2.53,3.91,1.06,2.14-1.77,4.24-3.6,6.36-5.41.32.32.63.64.95.96-4.9,5.78-9.52,11.85-14.77,17.3-19.53,20.27-39.25,40.35-58.95,60.46-8.15,8.32-16.41,16.52-24.63,24.76-9.24,9.26-18.42,18.59-27.81,27.7-1.75,1.7-4.27,3.02-6.65,3.53-2.98.64-4.15,2.72-4.15,4.87,0,2.67-1.42,3.99-2.96,5.52-15.52,15.47-31.02,30.97-46.57,46.42-13.43,13.35-26.96,26.6-40.37,39.97-13.73,13.69-27.37,27.47-41.05,41.2-.74.75-1.57,1.42-2.89,1.74,1.3-3.22,2.6-6.44,4.26-10.58-3.63,4.1-7.96,3.62-11.64,4.89-1.28.44-2.52,1.09-3.67,1.81-1.33.84-2.52,2.74-3.86-.08-.09-.18-2.21.44-3.27.93-13.11,6.18-21.63,18.04-32.75,26.7-3.29,2.56-5.53,6.43-8.5,9.46-24.53,25.05-49.17,49.99-73.63,75.11-5.01,5.14-9.43,10.87-13.95,16.46-.65.81-.81,2.64-.36,3.61,1.16,2.48.54,4.13-1.36,5.87-2.21,2.02-4.17,4.3-6.84,7.1Z"/>
    </g>
  </g>
</svg>