<?xml version="1.0" encoding="UTF-8"?>
<svg id="Layer_1" data-name="Layer 1" xmlns="http://www.w3.org/2000/svg" viewBox="0 0 538.11 538.11">
  <defs>
    <style>
      .cls-1, .cls-2 {
        stroke-width: 0px;
      }

      .cls-2 {
        fill: #fff;
      }
    </style>
  </defs>
  <g id="_8nbqdZ.tif" data-name="8nbqdZ.tif">
    <g>
      <path class="cls-2" d="m538.11,538.11c-179.37,0-358.74,0-538.11,0C0,358.74,0,179.37,0,0c179.37,0,358.74,0,538.11,0,0,179.37,0,358.74,0,538.11Zm-51.1-485.81c-.41-.38-.82-.75-1.23-1.13-1.27.3-2.67.37-3.8.96-2.99,1.54-6.17,2.94-8.69,5.08-2.17,1.85-3.93,1.02-6.07.69-2.76-.42-5.61-.84-8.36-.58-9.47.9-16.75,7.21-25.21,10.65-1.65.67-3.53,1.32-4.69,2.55-2.03,2.14-3.58,4.72-5.88,7.87-.42-3.57-.71-6.06-1.01-8.56-.45-.15-.9-.3-1.34-.45-2.82,3.92-6.48,7.49-8.24,11.84-2.52,6.23-5.82,10.64-12.11,13.74-6.7,3.31-11.96,9.19-19.12,12.14-2.75,1.13-4.94,3.65-7.31,5.63-2.2,1.84-4.26,3.87-6.47,5.7-.95.79-2.3,1.12-3.19,1.96-6.34,5.99-12.59,12.07-18.9,18.09-.69.65-1.6,1.07-2.39,1.62-2.83,1.97-5.77,3.8-8.43,5.97-3.24,2.64-6.21,5.62-9.39,8.33-.75.64-1.91.81-2.89,1.19-.27-1.11-.8-2.22-.76-3.32.09-2.6.44-5.19.69-7.78-.53-.08-1.06-.15-1.59-.23-1.28,4.34-2.95,8.6-3.73,13.03-.81,4.57-3.98,6.95-7.04,9.65-1.69,1.49-3.36,3.03-4.82,4.74-1.77,2.07-3.01,4.33-6.59,3.76-2.07-.32-4.39.97-6.59,1.53-.02.34-.04.69-.06,1.03,1.84.43,3.68.86,6.27,1.47-1.95,1.32-3.39,2.14-4.65,3.18-4.34,3.54-8.78,6.97-12.86,10.78-3.98,3.72-7.54,7.89-11.36,11.78-1.58,1.61-3.54,2.85-5.06,4.5-9.92,10.84-19.69,21.82-29.69,32.58-2.93,3.15-6.55,5.65-9.69,8.62-3.6,3.4-7.02,6.98-10.51,10.49-.7.7-1.41,1.38-2.05,2.13-2.19,2.57-4.26,5.24-6.54,7.72-2.88,3.14-6.46,5.78-8.78,9.27-3.52,5.3-7.98,9.39-12.99,13.12-2.57,1.91-4.55,4.66-7.23,6.35-3.8,2.4-8,4.18-13.2,6.82,2.59,1.1,3.93,1.67,5.46,2.32-3.67,3.26-6.79,7.36-10.94,9.41-6.59,3.26-10.3,8.47-13.69,14.5-1.75,3.12-4.22,5.97-6.82,8.47-6.08,5.84-12.46,11.38-18.67,17.1-.59.55-.82,1.48-1.32,2.15-1.13,1.53-2.14,3.2-3.52,4.47-2.48,2.27-5.29,4.17-7.78,6.43-4.5,4.08-8.55,8.7-13.36,12.36-5.05,3.84-10.77,6.81-16.37,10.27.02.09.23.85.58,2.11-7.58,1.76-14.97,3.34-22.29,5.23-6.53,1.69-12.95,3.98-17.52,9.21-2.11,2.42-2.85,6.02-4.91,8.51-2.78,3.35-5.37,6.47-7.09,10.73-3.18,7.9-7.06,14.81-3.78,24.25,1.81,5.19,4.13,9.58,7.37,13.55,1.78,2.18,5.16,4.87,7.41,4.54,7.69-1.14,16.47,1,22.49-6.31,1.32,1.07,2.45,1.99,4.16,3.37.9-3.55,1.32-6.59,2.44-9.34,1.57-3.84,3.97-7.35,5.48-11.21,5.25-13.37,13.25-24.67,24.2-34.01,5.48-4.68,10.24-9.91,13.48-16.65,2.38-4.96,6.27-9.19,9.85-14.26,1.11,2,1.64,2.96,2.33,4.19.92-.81,1.85-1.24,2.09-1.91,3.28-9.12,10.84-14.64,17.51-20.88,4.93-4.61,10.39-8.68,15.14-13.46,5.18-5.22,9.49-11.32,14.75-16.45,9.12-8.9,18.78-17.24,28-26.04,4.46-4.26,8.32-9.14,12.69-13.5,6.47-6.46,13.33-12.55,19.7-19.11,6.91-7.11,13.31-14.71,20.2-21.83,11.86-12.26,23.81-24.42,35.94-36.4,6.3-6.22,12.16-13,20.58-16.8,4.14-1.87,8.27-4.26,11.63-7.29,11.5-10.37,22.55-21.27,36.15-28.98,1.31-.74,3.09-.9,4.65-.93,6.17-.1,12.34-.04,18.89-.04-.31-6.18-6.31-5.98-9.11-8.54,6.14-3.85,12.07-7.55,17.99-11.26,1.07-.67,2.05-1.59,3.21-1.96,9.54-3.05,18.45-8.69,29.13-7.29.8.1,2.08-.36,2.5-.99,4.79-7.19,12.92-7.39,20.04-9.52,2.72-.82,4.98.25,7.49,2.68,4.61,4.46,8.64,10.4,15.82,11.28,4.1.5,8.29.18,12.43.49,6.73.5,11.98-1.87,16.46-6.97,3.84-4.37,5.86-9.15,6.09-14.89.11-2.74-.16-5.87,1.05-8.12,3.54-6.62,4.75-13.33,2.76-20.55-.62-2.25-1.07-4.73-2.35-6.58-4.2-6.05-10.11-9.58-17.4-11.06-4.95-1-5.94-4.16-3.39-8.33,2.11-3.45,3.83-7.14,5.73-10.73Z"/>
      <path class="cls-1" d="m487.01,52.3c-1.89,3.59-3.61,7.28-5.73,10.73-2.55,4.17-1.56,7.33,3.39,8.33,7.29,1.48,13.2,5,17.4,11.06,1.28,1.85,1.73,4.33,2.35,6.58,1.99,7.23.78,13.94-2.76,20.55-1.21,2.25-.94,5.38-1.05,8.12-.23,5.73-2.25,10.52-6.09,14.89-4.49,5.1-9.73,7.47-16.46,6.97-4.13-.31-8.33.01-12.43-.49-7.17-.87-11.2-6.81-15.82-11.28-2.51-2.43-4.77-3.49-7.49-2.68-7.12,2.13-15.25,2.33-20.04,9.52-.42.63-1.7,1.09-2.5.99-10.68-1.4-19.58,4.24-29.13,7.29-1.16.37-2.15,1.29-3.21,1.96-5.92,3.71-11.85,7.42-17.99,11.26,2.8,2.56,8.79,2.36,9.11,8.54-6.55,0-12.72-.06-18.89.04-1.57.03-3.34.18-4.65.93-13.6,7.71-24.65,18.61-36.15,28.98-3.35,3.02-7.48,5.42-11.63,7.29-8.42,3.79-14.28,10.57-20.58,16.8-12.13,11.98-24.08,24.15-35.94,36.4-6.89,7.13-13.29,14.73-20.2,21.83-6.38,6.55-13.23,12.64-19.7,19.11-4.37,4.36-8.23,9.25-12.69,13.5-9.22,8.79-18.88,17.14-28,26.04-5.26,5.13-9.57,11.23-14.75,16.45-4.75,4.78-10.21,8.84-15.14,13.46-6.66,6.24-14.23,11.76-17.51,20.88-.24.67-1.17,1.1-2.09,1.91-.68-1.23-1.21-2.18-2.33-4.19-3.58,5.07-7.47,9.31-9.85,14.26-3.24,6.74-8,11.97-13.48,16.65-10.94,9.33-18.95,20.63-24.2,34.01-1.52,3.86-3.91,7.37-5.48,11.21-1.12,2.75-1.55,5.79-2.44,9.34-1.71-1.39-2.84-2.31-4.16-3.37-6.02,7.31-14.8,5.17-22.49,6.31-2.24.33-5.62-2.35-7.41-4.54-3.25-3.97-5.57-8.37-7.37-13.55-3.29-9.44.59-16.35,3.78-24.25,1.72-4.27,4.31-7.38,7.09-10.73,2.06-2.49,2.8-6.09,4.91-8.51,4.57-5.23,10.99-7.53,17.52-9.21,7.32-1.89,14.72-3.47,22.29-5.23-.35-1.26-.55-2.02-.58-2.11,5.6-3.46,11.32-6.43,16.37-10.27,4.81-3.65,8.86-8.28,13.36-12.36,2.49-2.26,5.31-4.16,7.78-6.43,1.38-1.27,2.4-2.94,3.52-4.47.5-.68.72-1.61,1.32-2.15,6.21-5.71,12.58-11.25,18.67-17.1,2.6-2.5,5.06-5.34,6.82-8.47,3.39-6.03,7.09-11.24,13.69-14.5,4.14-2.05,7.27-6.15,10.94-9.41-1.53-.65-2.87-1.22-5.46-2.32,5.2-2.64,9.39-4.42,13.2-6.82,2.68-1.69,4.66-4.44,7.23-6.35,5.01-3.73,9.47-7.82,12.99-13.12,2.32-3.49,5.89-6.13,8.78-9.27,2.28-2.48,4.35-5.15,6.54-7.72.64-.75,1.36-1.43,2.05-2.13,3.49-3.51,6.91-7.09,10.51-10.49,3.14-2.97,6.76-5.47,9.69-8.62,10-10.76,19.77-21.74,29.69-32.58,1.52-1.66,3.48-2.9,5.06-4.5,3.83-3.89,7.38-8.06,11.36-11.78,4.09-3.81,8.53-7.24,12.86-10.78,1.27-1.03,2.71-1.86,4.65-3.18-2.59-.61-4.43-1.04-6.27-1.47.02-.34.04-.69.06-1.03,2.21-.56,4.53-1.86,6.59-1.53,3.58.56,4.82-1.69,6.59-3.76,1.46-1.71,3.13-3.25,4.82-4.74,3.06-2.7,6.23-5.08,7.04-9.65.78-4.42,2.45-8.69,3.73-13.03.53.08,1.06.15,1.59.23-.25,2.59-.6,5.18-.69,7.78-.04,1.1.49,2.21.76,3.32.97-.38,2.13-.55,2.89-1.19,3.19-2.71,6.15-5.69,9.39-8.33,2.67-2.17,5.61-4,8.43-5.97.79-.55,1.7-.96,2.39-1.62,6.31-6.02,12.56-12.1,18.9-18.09.89-.84,2.23-1.17,3.19-1.96,2.21-1.83,4.27-3.86,6.47-5.7,2.37-1.98,4.56-4.5,7.31-5.63,7.16-2.96,12.42-8.84,19.12-12.14,6.29-3.1,9.59-7.52,12.11-13.74,1.76-4.35,5.43-7.92,8.24-11.84.45.15.9.3,1.34.45.29,2.5.59,4.99,1.01,8.56,2.3-3.15,3.86-5.73,5.88-7.87,1.17-1.23,3.04-1.88,4.69-2.55,8.46-3.44,15.73-9.75,25.21-10.65,2.75-.26,5.6.16,8.36.58,2.14.33,3.9,1.15,6.07-.69,2.52-2.14,5.7-3.54,8.69-5.08,1.13-.58,2.53-.65,3.8-.96.41.38.82.75,1.23,1.13Z"/>
    </g>
  </g>
</svg>