<svg id="Layer_1" data-name="Layer 1" xmlns="http://www.w3.org/2000/svg" viewBox="0 0 549.94 143.5">
  <g id="ICOR9S.tif">
    <g>
      <path class="cls-1" d="m232.24,42.91V10.73h9.99c.15,2.18.4,4.53.47,6.88.29,10.07.62,20.15.73,30.22.04,3.95-.59,7.9-.62,11.85,0,1.32.89,2.67,1.47,3.96.04.08.92-.21,1.4-.32-.39-1.34-.78-2.67-1.45-4.96,1.16-.05,2.63-.57,3.54-.08,5.37,2.92,10.61,6.08,15.77,9.09.34,4.65-3.24,2.64-6.03,3.34,2.48,2.38,4.2,5.39,6.55,6,4.2,1.09,8.78.74,13.2.96.24.01.63-.18.71-.37,2.2-5.13,6.87-3.51,10.74-3.8,8.41-.62,16.83-1.06,25.25-1.5,2.37-.13,4.75-.02,8.23-.02-5.64,3.81-10.48,7.09-15.67,10.6,1.07,1.15,1.8,1.92,2.52,2.7.05-.44.09-.87.14-1.31,1.74,0,3.5.19,5.2-.06,1.64-.24,3.22-.91,4.81-1.45,1.07-.36,2.52-1.46,3.08-1.1,2.72,1.71,4.89,1.31,7.22-.69.58-.5,1.89-.19,2.86-.2,1.23,0,2.71.49,3.66-.02,3.44-1.85,7.05-.48,10.53-.98.31-.04.56-.42.87-.48,1.4-.29,3.48-1.23,4.09-.65,2.34,2.21,3.79.21,5.58-.56,1-.43,2.72-1.23,3.06-.88,2.68,2.82,4.51.31,6.67-.7.83-.39,2.64-.56,2.8-.24,1.67,3.38,3.57.46,5.31.3,2.99-.27,5.98-.67,8.97-1.01.51-.06,1.26.11,1.5-.17,2.38-2.83,4.03-1.45,5.18.65,3.41-.04,5.71-4.68,9.54-1.07.65.62,3.12-.69,4.76-1.09,1.12-.27,3.04-.99,3.24-.66,2.06,3.29,4.12.39,6.16.23,1.72-.13,3.46-.03,5.24.47,3.03.24,5.78-4.45,9.18.33.32.45,2.97-.77,4.55-1.18,1.3-.34,3.45-1.26,3.78-.82,2.18,2.84,4.33.54,6.34.15,2.02-.38,3.96-1.87,5.39.97.15.31,1.25.14,1.91.21,1.08.1,2.16.21,3.71.37,1.48-1.67,3.46-3.75,6.48-.49.42.45,1.94-.15,2.95-.21.81-.05,1.62,0,3.31,0,.84-.82,2.16-3.57,4.98-.27.55.65,3.07-.3,4.66-.62,1.26-.25,3.11-1.33,3.63-.87,2.43,2.18,4.32,1.41,6.59-.15.69-.48,2.12.12,3.21.23,1.84.19,4.29,1.22,5.4.41,2.95-2.15,4.13-.64,5.07,1.33,3.41.36,6.21-4.24,9.64-.1.43.51,3.05-.84,4.68-1.24,1.04-.25,2.73-.84,3.08-.42,2.44,2.96,4.49,2.03,6.95.03.67-.54,2.33.06,3.52.25,2.13.34,4.27.66,6.36,1.17,1.34.33,2.75.78,3.84,1.57,1.68,1.2,3.36,2.56,4.6,4.18,1.08,1.4,1.58,3.25,2.27,4.93.2.5-.05,1.27.25,1.62,4.54,5.33.04,9.97-1.32,14.74-.32,1.11-2.81,1.59-4.3,2.38-1.57.83-3.43,1.38-4.62,2.58-2.1,2.13-3.82,2.39-5.37.36-3.53-.1-5.26,5.6-9.54,1.99-.4-.34-1.94.88-3.01,1.05-3.04.47-6.13.65-9.15,1.2-1.43.26-2.93,1.83-4.07,1.54-1.86-.48-3.34-2.36-5.52-.6-.59.47-1.57.55-2.39.63-1.64.16-3.3.18-5.02-.21-3.1.51-5.46,5.06-9.5,1.19-.35-.33-2.22,1.23-3.46,1.43-1.62.25-3.34-.14-4.98.05-1.7.19-3.35.79-5.04,1.13-1.3.26-2.99,1.01-3.85.48-2.34-1.43-4.05-.29-6.06.51-1.04.41-2.47.51-3.5.13-1.9-.7-3.86-.52-5.73.76-.73.5-2.34.93-2.71.56-2.48-2.47-4.36-.47-6.67.28-1.54.5-3.55-.45-5.33-1.15-3.02.08-5.58,5.15-8.59,1.19-1.64-.09-2.67-.19-3.7-.18-.41,0-.84.22-1.24.39-1.17.51-2.98,1.8-3.4,1.45-2.7-2.27-4.49-.39-6.64.81-.88.49-2.83.67-3.19.18-1.39-1.86-2.48-1-4.19-.56-2.23.57-5.15,2.78-7.07-.94-.09-.17-1.8.68-2.78.76-2.97.26-6.21-.3-8.88.69-4.28,1.59-8.7-1.17-12.97,1.25-1.5.85-4.65-1.34-6.33-.58-4.07,1.85-8.36-1.71-12.43,1.23-1.24.9-4.2-.77-6.38-.86-1.36-.05-3.16,1.39-4.06.89-2.99-1.66-5.96.7-8.1.14-4.2-1.11-7.91-.46-11.86.13-.54.08-1.24-.94-1.22-.93-1.64.62-2.83,1.27-4.1,1.5-3.79.69-7.66.99-11.4,1.84-7.24,1.64-7.53,2.9-2.54,8.18,2.4,2.55,4.58,5.31,6.82,7.94-9.23-1.17-18.95-2.25-28.6-3.77-1.56-.24-3.29-2.2-4.09-3.79-1.58-3.13-2.56-6.56-4.02-10.48-9.81,1.46-20.14,3.01-29.84,4.45-.18,2.79.29,5.56-.64,7.73-2.03,4.72-8.12,4.8-11.07.56-1.1-1.58-2.57-2.9-4.4-4.2.37,4.9-2.28,5.11-5.72,5.11-33.88-.08-67.76-.02-101.65-.08-2.34,0-5.34,1.18-6.48-2.44-.09-.3-1.3-.39-1.97-.34-5.45.36-10.9.78-16.86,1.22.42-1.54.61-2.22.86-3.12-21.76,0-43.34-.09-64.91.08-4.35.03-7.55-.94-10.2-4.66-3.88-5.44-8.24-10.55-12.54-15.67-1.43-1.71-3.32-3.04-5.01-4.54-.54.1-1.07.19-1.61.29,1.22-15.57,2.28-31.15,3.82-46.68.27-2.74,2.08-5.72,4.02-7.83,13.36-14.62,26.65-29.33,40.55-43.44,8.66-8.78,13.06-8.48,22.34-.27,3.6,3.19,6.77,6.91,9.84,10.62,4.72,5.7,4.9,11.73,1.1,18.16-8.41,14.23-19.57,26.2-30.89,38.06-2.36,2.47-4.99,4.7-7.28,7.22-4.11,4.52-8.9,5.25-14.37,3.02-1.85-.75-3.73-1.43-5.55-2.25-3.9-1.75-5.8-1.18-6.67,3.16-.97,4.83-.96,9.85-1.55,14.76-1.14,9.49,6.97,13.37,11.73,19.27.41.51,1.58.56,2.4.56,22.15.03,44.3.02,66.83-.98-3.57-1.37-7.05-3.11-10.74-4.02-7.23-1.78-12.29-6.84-17.98-10.97-1.84-1.33-4.07-2.59-5.11-4.44-2.25-4.01-1.04-6.24,3.32-7.48,1.23-.35,2.47-.83,3.73-.95,3.56-.35,5.22-1.57,5.36-5.76.2-6.39,5.15-9.34,10.82-11.03,0-1.53.12-2.95-.02-4.34-.36-3.37.46-6.47,3.47-8.05,5.17-2.72,8.11-6.14,5.08-12.63.39-.09.77-.18,1.16-.27,3.2,1.62,6.46,3.13,9.59,4.88,1.89,1.06,3.13,2.47,5.34-.11,1.12-1.32,4.2-1.1,6.42-1.34,2.92-.31,4.23-1.81,4.35-4.69.19-4.29,2.26-6.55,6.65-8,19.62-6.47,39.61-9.94,60.28-8.56,13.05.87,25.63,4.09,37.82,8.78,1.3.5,2.64.9,4.7,1.59l-.02.03Zm-176-10.06c-2.87,3.09-5.13,5.48-7.34,7.92-1.4,1.55-2.59,3.29-4.08,4.75-4.09,4.02-9.08,7.19-11.82,12.48-8.24,2.25-9.05,8.37-8.2,15.44.58,4.85,4.53,6.09,8.08,7.76,3.14,1.48,5.98,1.21,8.51-1.48,5.44-5.81,11.21-11.34,16.43-17.34,6.97-8.02,13.54-16.37,20.32-24.65-4.08-4.12-4.3-7.83-1.3-11.41-1.88-4.32-5.63-3.5-8.63-3.02-5.7.92-4.74,6.96-7.27,10.75-1.88-.48-3.77-.96-4.71-1.2h0Zm429.26,61.67c.56.03,1.11.06,1.67.09.88-1.19,2.53-2.45,2.41-3.54-.12-1.15-1.77-2.65-3.02-2.99-.7-.19-2.64,1.58-2.79,2.64-.16,1.16,1.09,2.52,1.72,3.8h0ZM79.06,27.71c-3.79,3.48-3.72,4.94,0,7.24,0,0,0-7.24,0-7.24Z"/>
    </g>
  </g>
</svg>