<?xml version="1.0" encoding="UTF-8"?>
<svg id="Layer_1" data-name="Layer 1" xmlns="http://www.w3.org/2000/svg" viewBox="0 0 549.94 143.5">
  <defs>
    <style>
      .cls-1, .cls-2 {
        stroke-width: 0px;
      }

      .cls-2 {
        fill: #fff;
      }
    </style>
  </defs>
  <g id="ICOR9S.tif">
    <g>
      <path class="cls-2" d="m549.94,143.5H0V0h549.94v143.5ZM232.24,42.91c-2.07-.7-3.4-1.09-4.7-1.59-12.2-4.69-24.77-7.91-37.82-8.78-20.67-1.38-40.66,2.09-60.28,8.56-4.39,1.45-6.46,3.71-6.65,8-.12,2.88-1.43,4.38-4.35,4.69-2.22.24-5.29.02-6.42,1.34-2.21,2.59-3.45,1.18-5.34.11-3.12-1.76-6.38-3.27-9.59-4.88-.39.09-.77.18-1.16.27,3.03,6.49.09,9.91-5.08,12.63-3.01,1.58-3.83,4.68-3.47,8.05.15,1.39.02,2.81.02,4.34-5.67,1.69-10.62,4.64-10.82,11.03-.13,4.19-1.8,5.41-5.36,5.76-1.26.13-2.49.6-3.73.95-4.36,1.24-5.57,3.47-3.32,7.48,1.04,1.85,3.28,3.11,5.11,4.44,5.69,4.13,10.76,9.19,17.98,10.97,3.69.91,7.16,2.65,10.74,4.02-22.53,1-44.68,1.01-66.83.98-.82,0-1.99-.05-2.4-.56-4.75-5.9-12.87-9.78-11.73-19.27.59-4.92.58-9.93,1.55-14.76.87-4.34,2.77-4.91,6.67-3.16,1.82.82,3.7,1.5,5.55,2.25,5.48,2.23,10.27,1.5,14.37-3.02,2.3-2.52,4.92-4.75,7.28-7.22,11.32-11.86,22.49-23.83,30.89-38.06,3.8-6.44,3.62-12.46-1.1-18.16-3.07-3.72-6.24-7.44-9.84-10.62C63.16.48,58.75.18,50.1,8.96c-13.9,14.1-27.19,28.81-40.55,43.44-1.93,2.11-3.74,5.09-4.02,7.83-1.54,15.53-2.6,31.12-3.82,46.68.54-.1,1.07-.19,1.61-.29,1.68,1.5,3.57,2.83,5.01,4.54,4.3,5.13,8.66,10.24,12.54,15.67,2.65,3.71,5.85,4.69,10.2,4.66,21.57-.17,43.15-.08,64.91-.08-.25.9-.43,1.58-.86,3.12,5.96-.44,11.41-.86,16.86-1.22.67-.04,1.88.05,1.97.34,1.14,3.61,4.14,2.43,6.48,2.44,33.88.05,67.76,0,101.65.08,3.44,0,6.09-.21,5.72-5.11,1.83,1.3,3.3,2.62,4.4,4.2,2.95,4.24,9.04,4.16,11.07-.56.93-2.17.46-4.93.64-7.73,9.7-1.45,20.03-2.99,29.84-4.45,1.45,3.92,2.44,7.35,4.02,10.48.8,1.59,2.53,3.55,4.09,3.79,9.65,1.52,19.37,2.6,28.6,3.77-2.25-2.63-4.42-5.39-6.82-7.94-4.99-5.29-4.7-6.54,2.54-8.18,3.75-.85,7.62-1.15,11.4-1.84,1.27-.23,2.46-.88,4.1-1.5-.02-.01.68,1.01,1.22.93,3.95-.58,7.66-1.24,11.86-.13,2.14.57,5.11-1.79,8.1-.14.9.5,2.7-.94,4.06-.89,2.19.09,5.14,1.76,6.38.86,4.06-2.94,8.36.62,12.43-1.23,1.68-.76,4.83,1.43,6.33.58,4.27-2.42,8.69.33,12.97-1.25,2.67-.99,5.91-.43,8.88-.69.98-.08,2.7-.93,2.78-.76,1.92,3.71,4.84,1.51,7.07.94,1.71-.44,2.8-1.3,4.19.56.36.49,2.31.3,3.19-.18,2.15-1.2,3.94-3.08,6.64-.81.42.35,2.22-.94,3.4-1.45.4-.17.82-.39,1.24-.39,1.03-.01,2.06.09,3.7.18,3.01,3.96,5.57-1.11,8.59-1.19,1.78.7,3.79,1.65,5.33,1.15,2.3-.74,4.19-2.74,6.67-.28.37.37,1.98-.06,2.71-.56,1.87-1.27,3.83-1.45,5.73-.76,1.03.38,2.46.28,3.5-.13,2.01-.79,3.71-1.94,6.06-.51.86.53,2.56-.22,3.85-.48,1.69-.34,3.34-.94,5.04-1.13,1.64-.19,3.36.21,4.98-.05,1.24-.19,3.11-1.76,3.46-1.43,4.05,3.87,6.41-.68,9.5-1.19,1.72.4,3.38.37,5.02.21.82-.08,1.81-.16,2.39-.63,2.18-1.76,3.66.12,5.52.6,1.14.29,2.64-1.28,4.07-1.54,3.02-.55,6.11-.73,9.15-1.2,1.06-.17,2.6-1.39,3.01-1.05,4.28,3.61,6.01-2.08,9.54-1.99,1.55,2.02,3.27,1.76,5.37-.36,1.19-1.2,3.05-1.75,4.62-2.58,1.48-.79,3.98-1.27,4.3-2.38,1.36-4.76,5.86-9.41,1.32-14.74-.3-.35-.05-1.12-.25-1.62-.68-1.68-1.19-3.53-2.27-4.93-1.24-1.62-2.92-2.98-4.6-4.18-1.1-.78-2.51-1.24-3.84-1.57-2.09-.52-4.23-.84-6.36-1.17-1.19-.19-2.85-.79-3.52-.25-2.47,2-4.51,2.92-6.95-.03-.35-.42-2.04.16-3.08.42-1.63.4-4.25,1.75-4.68,1.24-3.43-4.14-6.24.47-9.64.1-.94-1.97-2.12-3.48-5.07-1.33-1.11.81-3.56-.23-5.4-.41-1.09-.11-2.53-.7-3.21-.23-2.27,1.57-4.16,2.34-6.59.15-.52-.47-2.37.62-3.63.87-1.59.31-4.11,1.27-4.66.62-2.81-3.3-4.14-.55-4.98.27-1.68,0-2.5-.04-3.31,0-1.01.06-2.54.66-2.95.21-3.02-3.26-5-1.18-6.48.49-1.56-.16-2.64-.27-3.71-.37-.66-.06-1.76.1-1.91-.21-1.42-2.85-3.36-1.36-5.39-.97-2.01.38-4.16,2.68-6.34-.15-.33-.43-2.48.48-3.78.82-1.58.41-4.23,1.63-4.55,1.18-3.4-4.79-6.15-.09-9.18-.33-1.78-.5-3.52-.6-5.24-.47-2.04.16-4.1,3.05-6.16-.23-.2-.32-2.12.4-3.24.66-1.64.39-4.11,1.7-4.76,1.09-3.83-3.61-6.13,1.03-9.54,1.07-1.15-2.1-2.8-3.48-5.18-.65-.23.28-.99.11-1.5.17-2.99.34-5.97.74-8.97,1.01-1.74.16-3.64,3.08-5.31-.3-.16-.32-1.96-.14-2.8.24-2.16,1.01-3.98,3.52-6.67.7-.34-.36-2.06.44-3.06.88-1.79.77-3.24,2.77-5.58.56-.61-.58-2.7.36-4.09.65-.31.06-.56.44-.87.48-3.48.49-7.09-.87-10.53.98-.95.51-2.42,0-3.66.02-.97,0-2.28-.3-2.86.2-2.33,2-4.5,2.39-7.22.69-.57-.36-2.02.74-3.08,1.1-1.59.53-3.17,1.21-4.81,1.45-1.7.25-3.47.06-5.2.06-.05.44-.09.87-.14,1.31-.72-.77-1.45-1.55-2.52-2.7,5.18-3.51,10.03-6.78,15.67-10.6-3.48,0-5.86-.11-8.23.02-8.42.44-16.84.88-25.25,1.5-3.86.29-8.54-1.33-10.74,3.8-.08.2-.47.38-.71.37-4.42-.22-9,.13-13.2-.96-2.35-.61-4.07-3.62-6.55-6,2.8-.71,6.37,1.31,6.03-3.34-5.15-3.01-10.4-6.17-15.77-9.09-.91-.49-2.38.03-3.54.08.67,2.28,1.06,3.62,1.45,4.96-.49.12-1.36.41-1.4.32-.58-1.29-1.48-2.63-1.47-3.96.02-3.95.66-7.9.62-11.85-.11-10.08-.44-20.15-.73-30.22-.07-2.35-.32-4.7-.47-6.88h-9.99v32.17h-.01Z"/>
      <path class="cls-1" d="m232.24,42.91V10.73h9.99c.15,2.18.4,4.53.47,6.88.29,10.07.62,20.15.73,30.22.04,3.95-.59,7.9-.62,11.85,0,1.32.89,2.67,1.47,3.96.04.08.92-.21,1.4-.32-.39-1.34-.78-2.67-1.45-4.96,1.16-.05,2.63-.57,3.54-.08,5.37,2.92,10.61,6.08,15.77,9.09.34,4.65-3.24,2.64-6.03,3.34,2.48,2.38,4.2,5.39,6.55,6,4.2,1.09,8.78.74,13.2.96.24.01.63-.18.71-.37,2.2-5.13,6.87-3.51,10.74-3.8,8.41-.62,16.83-1.06,25.25-1.5,2.37-.13,4.75-.02,8.23-.02-5.64,3.81-10.48,7.09-15.67,10.6,1.07,1.15,1.8,1.92,2.52,2.7.05-.44.09-.87.14-1.31,1.74,0,3.5.19,5.2-.06,1.64-.24,3.22-.91,4.81-1.45,1.07-.36,2.52-1.46,3.08-1.1,2.72,1.71,4.89,1.31,7.22-.69.58-.5,1.89-.19,2.86-.2,1.23,0,2.71.49,3.66-.02,3.44-1.85,7.05-.48,10.53-.98.31-.04.56-.42.87-.48,1.4-.29,3.48-1.23,4.09-.65,2.34,2.21,3.79.21,5.58-.56,1-.43,2.72-1.23,3.06-.88,2.68,2.82,4.51.31,6.67-.7.83-.39,2.64-.56,2.8-.24,1.67,3.38,3.57.46,5.31.3,2.99-.27,5.98-.67,8.97-1.01.51-.06,1.26.11,1.5-.17,2.38-2.83,4.03-1.45,5.18.65,3.41-.04,5.71-4.68,9.54-1.07.65.62,3.12-.69,4.76-1.09,1.12-.27,3.04-.99,3.24-.66,2.06,3.29,4.12.39,6.16.23,1.72-.13,3.46-.03,5.24.47,3.03.24,5.78-4.45,9.18.33.32.45,2.97-.77,4.55-1.18,1.3-.34,3.45-1.26,3.78-.82,2.18,2.84,4.33.54,6.34.15,2.02-.38,3.96-1.87,5.39.97.15.31,1.25.14,1.91.21,1.08.1,2.16.21,3.71.37,1.48-1.67,3.46-3.75,6.48-.49.42.45,1.94-.15,2.95-.21.81-.05,1.62,0,3.31,0,.84-.82,2.16-3.57,4.98-.27.55.65,3.07-.3,4.66-.62,1.26-.25,3.11-1.33,3.63-.87,2.43,2.18,4.32,1.41,6.59-.15.69-.48,2.12.12,3.21.23,1.84.19,4.29,1.22,5.4.41,2.95-2.15,4.13-.64,5.07,1.33,3.41.36,6.21-4.24,9.64-.1.43.51,3.05-.84,4.68-1.24,1.04-.25,2.73-.84,3.08-.42,2.44,2.96,4.49,2.03,6.95.03.67-.54,2.33.06,3.52.25,2.13.34,4.27.66,6.36,1.17,1.34.33,2.75.78,3.84,1.57,1.68,1.2,3.36,2.56,4.6,4.18,1.08,1.4,1.58,3.25,2.27,4.93.2.5-.05,1.27.25,1.62,4.54,5.33.04,9.97-1.32,14.74-.32,1.11-2.81,1.59-4.3,2.38-1.57.83-3.43,1.38-4.62,2.58-2.1,2.13-3.82,2.39-5.37.36-3.53-.1-5.26,5.6-9.54,1.99-.4-.34-1.94.88-3.01,1.05-3.04.47-6.13.65-9.15,1.2-1.43.26-2.93,1.83-4.07,1.54-1.86-.48-3.34-2.36-5.52-.6-.59.47-1.57.55-2.39.63-1.64.16-3.3.18-5.02-.21-3.1.51-5.46,5.06-9.5,1.19-.35-.33-2.22,1.23-3.46,1.43-1.62.25-3.34-.14-4.98.05-1.7.19-3.35.79-5.04,1.13-1.3.26-2.99,1.01-3.85.48-2.34-1.43-4.05-.29-6.06.51-1.04.41-2.47.51-3.5.13-1.9-.7-3.86-.52-5.73.76-.73.5-2.34.93-2.71.56-2.48-2.47-4.36-.47-6.67.28-1.54.5-3.55-.45-5.33-1.15-3.02.08-5.58,5.15-8.59,1.19-1.64-.09-2.67-.19-3.7-.18-.41,0-.84.22-1.24.39-1.17.51-2.98,1.8-3.4,1.45-2.7-2.27-4.49-.39-6.64.81-.88.49-2.83.67-3.19.18-1.39-1.86-2.48-1-4.19-.56-2.23.57-5.15,2.78-7.07-.94-.09-.17-1.8.68-2.78.76-2.97.26-6.21-.3-8.88.69-4.28,1.59-8.7-1.17-12.97,1.25-1.5.85-4.65-1.34-6.33-.58-4.07,1.85-8.36-1.71-12.43,1.23-1.24.9-4.2-.77-6.38-.86-1.36-.05-3.16,1.39-4.06.89-2.99-1.66-5.96.7-8.1.14-4.2-1.11-7.91-.46-11.86.13-.54.08-1.24-.94-1.22-.93-1.64.62-2.83,1.27-4.1,1.5-3.79.69-7.66.99-11.4,1.84-7.24,1.64-7.53,2.9-2.54,8.18,2.4,2.55,4.58,5.31,6.82,7.94-9.23-1.17-18.95-2.25-28.6-3.77-1.56-.24-3.29-2.2-4.09-3.79-1.58-3.13-2.56-6.56-4.02-10.48-9.81,1.46-20.14,3.01-29.84,4.45-.18,2.79.29,5.56-.64,7.73-2.03,4.72-8.12,4.8-11.07.56-1.1-1.58-2.57-2.9-4.4-4.2.37,4.9-2.28,5.11-5.72,5.11-33.88-.08-67.76-.02-101.65-.08-2.34,0-5.34,1.18-6.48-2.44-.09-.3-1.3-.39-1.97-.34-5.45.36-10.9.78-16.86,1.22.42-1.54.61-2.22.86-3.12-21.76,0-43.34-.09-64.91.08-4.35.03-7.55-.94-10.2-4.66-3.88-5.44-8.24-10.55-12.54-15.67-1.43-1.71-3.32-3.04-5.01-4.54-.54.1-1.07.19-1.61.29,1.22-15.57,2.28-31.15,3.82-46.68.27-2.74,2.08-5.72,4.02-7.83,13.36-14.62,26.65-29.33,40.55-43.44,8.66-8.78,13.06-8.48,22.34-.27,3.6,3.19,6.77,6.91,9.84,10.62,4.72,5.7,4.9,11.73,1.1,18.16-8.41,14.23-19.57,26.2-30.89,38.06-2.36,2.47-4.99,4.7-7.28,7.22-4.11,4.52-8.9,5.25-14.37,3.02-1.85-.75-3.73-1.43-5.55-2.25-3.9-1.75-5.8-1.18-6.67,3.16-.97,4.83-.96,9.85-1.55,14.76-1.14,9.49,6.97,13.37,11.73,19.27.41.51,1.58.56,2.4.56,22.15.03,44.3.02,66.83-.98-3.57-1.37-7.05-3.11-10.74-4.02-7.23-1.78-12.29-6.84-17.98-10.97-1.84-1.33-4.07-2.59-5.11-4.44-2.25-4.01-1.04-6.24,3.32-7.48,1.23-.35,2.47-.83,3.73-.95,3.56-.35,5.22-1.57,5.36-5.76.2-6.39,5.15-9.34,10.82-11.03,0-1.53.12-2.95-.02-4.34-.36-3.37.46-6.47,3.47-8.05,5.17-2.72,8.11-6.14,5.08-12.63.39-.09.77-.18,1.16-.27,3.2,1.62,6.46,3.13,9.59,4.88,1.89,1.06,3.13,2.47,5.34-.11,1.12-1.32,4.2-1.1,6.42-1.34,2.92-.31,4.23-1.81,4.35-4.69.19-4.29,2.26-6.55,6.65-8,19.62-6.47,39.61-9.94,60.28-8.56,13.05.87,25.63,4.09,37.82,8.78,1.3.5,2.64.9,4.7,1.59l-.02.03Zm-176-10.06c-2.87,3.09-5.13,5.48-7.34,7.92-1.4,1.55-2.59,3.29-4.08,4.75-4.09,4.02-9.08,7.19-11.82,12.48-8.24,2.25-9.05,8.37-8.2,15.44.58,4.85,4.53,6.09,8.08,7.76,3.14,1.48,5.98,1.21,8.51-1.48,5.44-5.81,11.21-11.34,16.43-17.34,6.97-8.02,13.54-16.37,20.32-24.65-4.08-4.12-4.3-7.83-1.3-11.41-1.88-4.32-5.63-3.5-8.63-3.02-5.7.92-4.74,6.96-7.27,10.75-1.88-.48-3.77-.96-4.71-1.2h0Zm429.26,61.67c.56.03,1.11.06,1.67.09.88-1.19,2.53-2.45,2.41-3.54-.12-1.15-1.77-2.65-3.02-2.99-.7-.19-2.64,1.58-2.79,2.64-.16,1.16,1.09,2.52,1.72,3.8h0ZM79.06,27.71c-3.79,3.48-3.72,4.94,0,7.24,0,0,0-7.24,0-7.24Z"/>
      <path class="cls-2" d="m56.24,32.85c.94.24,2.83.72,4.71,1.2,2.53-3.78,1.56-9.83,7.27-10.75,3-.48,6.75-1.3,8.63,3.02-3,3.58-2.78,7.29,1.3,11.41-6.79,8.27-13.36,16.63-20.32,24.65-5.22,6-10.99,11.53-16.43,17.34-2.53,2.7-5.37,2.96-8.51,1.48-3.55-1.67-7.51-2.91-8.08-7.76-.84-7.07-.04-13.19,8.2-15.44,2.74-5.29,7.73-8.46,11.82-12.48,1.48-1.46,2.68-3.2,4.08-4.75,2.21-2.44,4.47-4.84,7.34-7.92h0Z"/>
      <path class="cls-2" d="m485.5,94.51c-.63-1.27-1.89-2.63-1.72-3.8.15-1.06,2.08-2.82,2.79-2.64,1.25.34,2.9,1.84,3.02,2.99.11,1.09-1.54,2.35-2.41,3.54-.56-.03-1.11-.06-1.67-.09h0Z"/>
      <path class="cls-2" d="m79.06,27.71v7.24c-3.72-2.3-3.79-3.75,0-7.24Z"/>
    </g>
  </g>
</svg>