<?xml version="1.0" encoding="UTF-8"?>
<svg id="Layer_1" data-name="Layer 1" xmlns="http://www.w3.org/2000/svg" viewBox="0 0 480.83 480.83">
  <defs>
    <style>
      .cls-1, .cls-2 {
        stroke-width: 0px;
      }

      .cls-2 {
        fill: #fff;
      }
    </style>
  </defs>
  <g id="rRVdxS.tif">
    <g>
      <path class="cls-2" d="m480.83,480.83c-160.28,0-320.55,0-480.83,0C0,320.56,0,160.28,0,0c160.28,0,320.55,0,480.83,0,0,160.28,0,320.55,0,480.83Zm-223.57-282.09c-.76,2.14-1.82,3.81-1.84,5.49-.03,3.5-1.41,5.92-3.88,8.38-37.88,37.72-75.66,75.53-113.43,113.36-2.82,2.83-5.37,5.36-9.93,5.55-4.61.19-4.98,1.63-4.6,6.21.13,1.55-1.11,3.34-2.04,4.82-.64,1.02-1.87,1.65-2.75,2.54-2.84,2.89-5.57,5.89-8.48,8.72-5.73,5.57-11.63,10.96-17.29,16.59-6.93,6.89-13.62,14.01-20.59,20.86-.87.86-2.9,1.1-4.22.83-3.26-.68-4.64.11-5.43,3.63-1.07,4.81-2.81,9.1-6.76,12.56-6.28,5.5-11.3,12.46-19.52,15.59-1.4.53-2.39,2.28-3.42,3.59-.93,1.18-1.43,2.77-2.52,3.74-2.24,1.99-4.67,3.8-7.17,5.46-3.54,2.34-5.04,9.54-2.26,12.84,2.5,2.96,5.21,5.78,8.08,8.39,2.98,2.71,11.37,2.28,14.12-.5.32-.32.27-.99.57-1.33,2.76-3.17,5.5-6.36,8.39-9.41,1.6-1.7,3.84-2.89,5.12-4.77,1.98-2.9,2.92-6.58,5.14-9.23,3.75-4.46,8.16-8.38,12.32-12.49.62-.62,1.7-1.65,2.11-1.47,3.82,1.71,5.88-1.88,8.76-2.85.9-.31,1.84-1.8,1.97-2.85.35-2.95-.15-5.38,3.23-7.88,4.94-3.64,8.55-9.09,12.7-13.79,2.42-2.74,4.57-5.75,7.18-8.28,3.84-3.72,8-7.11,11.98-10.69,2-1.8,3.93-3.69,5.85-5.58,2.62-2.57,6.1-4.77,7.54-7.89,1.3-2.81,3.2-2.83,4.92-2.69,5.03.4,7.29-1.55,7.51-6.77.07-1.58.65-3.54,1.71-4.63,14.88-15.27,29.79-30.51,44.88-45.57,24.01-23.98,48.18-47.8,72.23-71.74,1.85-1.84,3.58-2.86,6.39-2.73,2.05.09,4.17-1.26,6.81-2.16-1.68-2.14-2.78-3.54-3.68-4.68,11.39-11.48,22.68-22.86,33.97-34.24.62-.76,1.8-1.13,2.52-1.93.8-.89,5.63-5.94,6.77-6.78.69-.5,1.08-1.39,1.68-2.03,1.97-2.11,3.97-4.18,6.89-7.24.44-2.21,2.1-3.51,5.14-2.38,1.93.72,3.84,2.16,5.08-.66.82-1.87,1.21-3.92,1.79-5.89.46-1.58.47-3.57,1.46-4.68,3.65-4.05,7.57-7.88,11.53-11.63,1.94-1.84,4.6-3.03,6.26-5.06,6.44-7.91,13.98-14.09,23.95-16.99,7.22-2.1,14.65-3.78,21.55-6.68,16.29-6.86,26.36-19.28,31.06-36.35,3.24-11.74,8.41-22.7,15.75-32.5,3.87-5.16,6.74-10.27,3.94-17.05-1.43-3.46-3.89-5.05-6.95-3.95-4.72,1.7-9.24,4.11-13.57,6.67-2.96,1.76-5.16,4.96-8.22,6.36-7.61,3.46-15.46,6.38-23.31,9.27-10.77,3.97-20.47,9.61-27.77,18.56-6.64,8.14-10.1,17.9-12.64,28.01-2.02,8.06-5.29,15.39-11.59,21.25-6.83,6.36-13.33,13.08-19.86,19.75-3.81,3.89-7.15,8.22-13.5,7.99-3.03-.11-3.8,1.79-2.57,4.63.33.76.08,2.21-.47,2.85-3,3.53-6.16,6.91-9.3,10.32-2.36,2.56-4.68,5.17-7.17,7.59-4.71,4.57-9.63,8.93-14.27,13.56-2.92,2.91-5.3,6.36-8.26,9.21-5.03,4.84-10.33,9.41-15.72,14.27-.86-.75-1.99-1.74-3.88-3.38Z"/>
      <path class="cls-1" d="m257.26,198.74c1.88,1.64,3.02,2.63,3.88,3.38,5.39-4.86,10.69-9.43,15.72-14.27,2.96-2.85,5.35-6.3,8.26-9.21,4.64-4.63,9.56-8.99,14.27-13.56,2.5-2.42,4.81-5.03,7.17-7.59,3.14-3.41,6.3-6.8,9.3-10.32.55-.65.8-2.09.47-2.85-1.23-2.84-.46-4.74,2.57-4.63,6.35.23,9.69-4.1,13.5-7.99,6.53-6.67,13.03-13.39,19.86-19.75,6.3-5.86,9.57-13.19,11.59-21.25,2.53-10.11,5.99-19.87,12.64-28.01,7.3-8.95,16.99-14.59,27.77-18.56,7.85-2.89,15.71-5.81,23.31-9.27,3.07-1.39,5.26-4.6,8.22-6.36,4.33-2.57,8.85-4.97,13.57-6.67,3.06-1.1,5.52.49,6.95,3.95,2.8,6.79-.08,11.9-3.94,17.05-7.35,9.8-12.52,20.75-15.75,32.5-4.7,17.07-14.77,29.49-31.06,36.35-6.9,2.9-14.32,4.58-21.55,6.68-9.97,2.9-17.5,9.09-23.95,16.99-1.66,2.03-4.31,3.22-6.26,5.06-3.96,3.76-7.87,7.59-11.53,11.63-.99,1.1-1,3.09-1.46,4.68-.58,1.97-.98,4.02-1.79,5.89-1.23,2.83-3.15,1.38-5.08.66-3.04-1.13-4.71.17-5.14,2.38-2.92,3.06-4.92,5.14-6.89,7.24-.6.64-1,1.53-1.68,2.03-1.14.84-5.97,5.89-6.77,6.78-.72.79-1.9,1.17-2.52,1.93-11.29,11.38-22.58,22.76-33.97,34.24.9,1.14,2,2.55,3.68,4.68-2.64.9-4.75,2.25-6.81,2.16-2.81-.12-4.54.89-6.39,2.73-24.05,23.94-48.22,47.76-72.23,71.74-15.09,15.06-30,30.3-44.88,45.57-1.06,1.09-1.65,3.04-1.71,4.63-.22,5.22-2.48,7.17-7.51,6.77-1.72-.14-3.63-.12-4.92,2.69-1.44,3.13-4.92,5.32-7.54,7.89-1.92,1.89-3.85,3.78-5.85,5.58-3.98,3.58-8.14,6.96-11.98,10.69-2.61,2.53-4.77,5.54-7.18,8.28-4.14,4.71-7.76,10.15-12.7,13.79-3.38,2.49-2.87,4.92-3.23,7.88-.13,1.05-1.06,2.54-1.97,2.85-2.88.98-4.94,4.56-8.76,2.85-.41-.18-1.49.85-2.11,1.47-4.16,4.11-8.57,8.03-12.32,12.49-2.22,2.64-3.16,6.33-5.14,9.23-1.28,1.88-3.52,3.07-5.12,4.77-2.88,3.06-5.62,6.25-8.39,9.41-.3.35-.25,1.01-.57,1.33-2.75,2.78-11.14,3.21-14.12.5-2.87-2.61-5.58-5.43-8.08-8.39-2.78-3.3-1.28-10.5,2.26-12.84,2.5-1.65,4.93-3.47,7.17-5.46,1.09-.96,1.59-2.56,2.52-3.74,1.03-1.31,2.02-3.05,3.42-3.59,8.22-3.13,13.25-10.1,19.52-15.59,3.95-3.46,5.69-7.75,6.76-12.56.79-3.52,2.17-4.31,5.43-3.63,1.32.28,3.35.03,4.22-.83,6.97-6.85,13.67-13.97,20.59-20.86,5.66-5.63,11.57-11.02,17.29-16.59,2.9-2.83,5.63-5.83,8.48-8.72.88-.89,2.11-1.52,2.75-2.54.93-1.48,2.17-3.27,2.04-4.82-.39-4.58-.02-6.02,4.6-6.21,4.56-.18,7.11-2.72,9.93-5.55,37.76-37.83,75.55-75.64,113.43-113.36,2.47-2.46,3.85-4.88,3.88-8.38.02-1.68,1.08-3.35,1.84-5.49Z"/>
    </g>
  </g>
</svg>