<svg id="Layer_1" data-name="Layer 1" xmlns="http://www.w3.org/2000/svg" viewBox="0 0 594 509.56">
  <g id="fno67g.tif">
    <g>
      <path class="cls-1" d="m422.29,3.55c2.16.96,4.38,1.82,6.48,2.91,18.98,9.83,35.37,23,49.86,38.65,6.47,6.99,12.79,14.16,19.73,20.65,5.12,4.78,11.2,8.5,16.71,12.88,1.6,1.27,2.88,3.06,3.98,4.81,1.58,2.53,2.8,5.28,4.29,7.87,16.27,28.13,41.34,48.48,63.39,71.49,5.32,5.56,5.92,6.01,1.06,12.03-18.64,23.08-41.14,41.22-68.71,52.72-3.61,1.51-4.91-.56-6.2-3.26-6.86-14.4-13.35-29-20.8-43.09-6.38-12.07-13.89-23.55-20.97-35.41-21.1,12.63-39.44,27.45-57.86,42.17-32.65,26.09-65.14,52.38-98.12,78.05-14.62,11.38-31,20.56-45.29,32.29-39.46,32.4-85.63,55.06-125.19,87.23-23.27,18.93-47.41,36.87-67.79,59.12-1.26,1.37-3.26,2.04-4.62,3.35-1.71,1.64-3.06,3.66-4.66,5.42-1.22,1.33-2.41,3.16-3.95,3.63-3.78,1.16-5.31,3.34-4.82,7.15.37,2.95-.48,4.99-3.23,6.84-2.66,1.79-3.98,4.71-2.54,8.47.55,1.45-.24,4.2-1.41,5.36-2.64,2.63-3.65,5.45-2.08,8.66,2.06,4.2.13,6.85-2.99,9-8.47,5.82-21.44,5.61-30.12-.38-4.8-3.32-8.89-7.12-11.69-12.54-2.6-5.03-2.32-9.52.89-13.49,6.99-8.63,13.99-17.34,21.77-25.23,43.3-43.9,91.01-82.61,141.09-118.42,24.14-17.26,48.05-35.06,73.49-50.23,36.14-21.55,69.38-46.92,101.92-73.22,21.55-17.42,42.14-36.2,58.81-58.67,7.84-10.56,16.84-19.84,27.27-27.91,4.85-3.75,8.72-8.77,13.25-13.44,0,.12.12-.23,0-.46q-3.64-7.07,2.72-12.05c7.6-5.99,15.21-11.98,22.78-18,5.29-4.21,5.62-5.72,1.45-11.08-10.6-13.63-21.37-27.12-32.07-40.68-4.6-5.83-9.21-11.64-13.76-17.5-1.14-1.47-2.09-3.1-3.12-4.65.35-.34.7-.69,1.05-1.03ZM23.15,479.47c-.07,4.85,2.3,7.7,6.51,7.84,4.38.15,8.01-3.03,8.15-7.12.15-4.54-3.28-8.3-7.57-8.29-3.93.01-7.03,3.32-7.09,7.56Z"/>
    </g>
  </g>
</svg>