<?xml version="1.0" encoding="UTF-8"?>
<svg id="Layer_1" data-name="Layer 1" xmlns="http://www.w3.org/2000/svg" viewBox="0 0 594 509.56">
  <defs>
    <style>
      .cls-1, .cls-2 {
        stroke-width: 0px;
      }

      .cls-2 {
        fill: #fff;
      }
    </style>
  </defs>
  <g id="fno67g.tif">
    <g>
      <path class="cls-2" d="m594,509.56H0C0,339.71,0,169.85,0,0c198,0,396,0,594,0,0,169.85,0,339.71,0,509.56ZM422.29,3.55c-.35.34-.7.69-1.05,1.03,1.03,1.55,1.98,3.18,3.12,4.65,4.55,5.86,9.17,11.68,13.76,17.5,10.7,13.55,21.47,27.05,32.07,40.68,4.17,5.36,3.84,6.88-1.45,11.08-7.57,6.02-15.18,12.01-22.78,18q-6.35,5-2.72,12.05c.12.23-.01.58,0,.46-4.54,4.68-8.41,9.69-13.25,13.44-10.43,8.07-19.43,17.35-27.27,27.91-16.67,22.47-37.25,41.26-58.81,58.67-32.54,26.3-65.78,51.66-101.92,73.22-25.44,15.17-49.35,32.97-73.49,50.23-50.08,35.81-97.79,74.53-141.09,118.42-7.79,7.89-14.78,16.6-21.77,25.23-3.22,3.97-3.49,8.47-.89,13.49,2.8,5.42,6.89,9.22,11.69,12.54,8.68,5.99,21.65,6.21,30.12.38,3.12-2.14,5.05-4.79,2.99-9-1.57-3.21-.56-6.03,2.08-8.66,1.17-1.17,1.96-3.91,1.41-5.36-1.43-3.76-.12-6.68,2.54-8.47,2.75-1.85,3.6-3.89,3.23-6.84-.48-3.82,1.05-5.99,4.82-7.15,1.55-.47,2.73-2.3,3.95-3.63,1.61-1.76,2.96-3.77,4.66-5.42,1.36-1.31,3.36-1.98,4.62-3.35,20.38-22.26,44.51-40.19,67.79-59.12,39.55-32.17,85.73-54.83,125.19-87.23,14.3-11.74,30.67-20.91,45.29-32.29,32.98-25.67,65.47-51.96,98.12-78.05,18.42-14.72,36.76-29.54,57.86-42.17,7.08,11.86,14.59,23.34,20.97,35.41,7.45,14.09,13.94,28.69,20.8,43.09,1.29,2.71,2.59,4.77,6.2,3.26,27.58-11.5,50.08-29.64,68.71-52.72,4.86-6.01,4.26-6.47-1.06-12.03-22.05-23.01-47.12-43.36-63.39-71.49-1.5-2.59-2.71-5.34-4.29-7.87-1.1-1.76-2.38-3.54-3.98-4.81-5.51-4.38-11.6-8.1-16.71-12.88-6.95-6.49-13.26-13.66-19.73-20.65-14.49-15.65-30.87-28.82-49.86-38.65-2.1-1.09-4.32-1.95-6.48-2.91Z"/>
      <path class="cls-1" d="m422.29,3.55c2.16.96,4.38,1.82,6.48,2.91,18.98,9.83,35.37,23,49.86,38.65,6.47,6.99,12.79,14.16,19.73,20.65,5.12,4.78,11.2,8.5,16.71,12.88,1.6,1.27,2.88,3.06,3.98,4.81,1.58,2.53,2.8,5.28,4.29,7.87,16.27,28.13,41.34,48.48,63.39,71.49,5.32,5.56,5.92,6.01,1.06,12.03-18.64,23.08-41.14,41.22-68.71,52.72-3.61,1.51-4.91-.56-6.2-3.26-6.86-14.4-13.35-29-20.8-43.09-6.38-12.07-13.89-23.55-20.97-35.41-21.1,12.63-39.44,27.45-57.86,42.17-32.65,26.09-65.14,52.38-98.12,78.05-14.62,11.38-31,20.56-45.29,32.29-39.46,32.4-85.63,55.06-125.19,87.23-23.27,18.93-47.41,36.87-67.79,59.12-1.26,1.37-3.26,2.04-4.62,3.35-1.71,1.64-3.06,3.66-4.66,5.42-1.22,1.33-2.41,3.16-3.95,3.63-3.78,1.16-5.31,3.34-4.82,7.15.37,2.95-.48,4.99-3.23,6.84-2.66,1.79-3.98,4.71-2.54,8.47.55,1.45-.24,4.2-1.41,5.36-2.64,2.63-3.65,5.45-2.08,8.66,2.06,4.2.13,6.85-2.99,9-8.47,5.82-21.44,5.61-30.12-.38-4.8-3.32-8.89-7.12-11.69-12.54-2.6-5.03-2.32-9.52.89-13.49,6.99-8.63,13.99-17.34,21.77-25.23,43.3-43.9,91.01-82.61,141.09-118.42,24.14-17.26,48.05-35.06,73.49-50.23,36.14-21.55,69.38-46.92,101.92-73.22,21.55-17.42,42.14-36.2,58.81-58.67,7.84-10.56,16.84-19.84,27.27-27.91,4.85-3.75,8.72-8.77,13.25-13.44,0,.12.12-.23,0-.46q-3.64-7.07,2.72-12.05c7.6-5.99,15.21-11.98,22.78-18,5.29-4.21,5.62-5.72,1.45-11.08-10.6-13.63-21.37-27.12-32.07-40.68-4.6-5.83-9.21-11.64-13.76-17.5-1.14-1.47-2.09-3.1-3.12-4.65.35-.34.7-.69,1.05-1.03ZM23.15,479.47c-.07,4.85,2.3,7.7,6.51,7.84,4.38.15,8.01-3.03,8.15-7.12.15-4.54-3.28-8.3-7.57-8.29-3.93.01-7.03,3.32-7.09,7.56Z"/>
      <path class="cls-2" d="m23.15,479.47c.06-4.24,3.17-7.55,7.09-7.56,4.29-.01,7.72,3.74,7.57,8.29-.14,4.09-3.77,7.27-8.15,7.12-4.21-.14-6.58-3-6.51-7.84Z"/>
    </g>
  </g>
</svg>