<svg id="Layer_1" data-name="Layer 1" xmlns="http://www.w3.org/2000/svg" viewBox="0 0 586 575">
  <g id="F9kkbD.tif">
    <g>
      <path class="cls-1" d="m423.36,125.08c-20.09-14.7-39.9-12.07-59.97-.45-.33-.46-.66-.91-.99-1.37,1.52-11.6,2.44-23.32,4.77-34.75,1.68-8.23,4.18-16.66,8.21-23.97,5.24-9.51,11.64-18.63,18.84-26.78,11.17-12.65,25.66-21.11,41.36-26.99,8.97-3.36,18.54-5.18,27.93-7.3.81-.18,3.2,2.5,3.27,3.92.24,4.96-.52,9.97-.32,14.94.14,3.51.4,7.44,2.04,10.38,5.46,9.8,11.56,19.23,17.39,28.77,3.47-2.01,5.79-4.53,7.87-4.35,8.83.74,17.29,3.25,21.95,11.63,1.56,2.81.98,6.74,1.79,10.05,1.11,4.52,1.29,4.47-2.47,9.29,9.98,11.98,29.01,18.24,43.34,10.84,6.21-3.2,12.27-6.68,18.46-9.91,1.99-1.04,4.21-1.66,6.31-2.47,0,7.69-.2,14.78.04,21.86.69,21.12-8.28,40.16-12.82,60.14-.3,1.34-1.45,2.57-2.43,3.66-5.88,6.57-11.72,13.18-17.79,19.58-2.26,2.38-4.96,4.39-7.65,6.29-22.93,16.2-48.82,25.27-75.9,31.6-15.06,3.52-27.6,11.1-36.56,24.53-4.22-8.88-1.54-17.16,1.53-25,2.58-6.58,6.6-12.61,10.01-18.86,4.05-7.4,9.39-14.38,11.91-22.27,3.71-11.59,4.22-23.68-3.73-35.17-1.96,1.87-3.59,3.24-5,4.8-2.24,2.48-4.34,4.1-8.15,2.6-1.46-.58-4.41.66-5.76,2-72.44,72.38-144.78,144.85-217.14,217.31-1.64,1.64-3.41,2.96-1.97,5.92.39.8-1.5,3.02-2.7,4.22-26.45,26.53-53,52.97-79.43,79.51-32.54,32.68-64.99,65.45-97.49,98.18-5.62,5.66-15.18,5.72-20.74.18-1.42-1.41-2.7-2.98-4.27-4.2-3.55-2.77-3.32-5.97-3.28-10.3.07-7.49,4.84-11,9.14-15.27,57.66-57.24,115.34-114.47,173.02-171.69,1.6-1.59,2.85-3.58,5.9-2.14.83.39,3.05-1.47,4.26-2.67,25.66-25.44,51.27-50.92,76.87-76.42,46.48-46.3,92.92-92.63,139.46-138.87,2.44-2.42,3.67-4.49,2.8-8.09-.43-1.79.61-4.32,1.73-6.02,1.52-2.32,3.76-4.18,6.34-6.92Z"/>
    </g>
  </g>
</svg>