<?xml version="1.0" encoding="UTF-8"?>
<svg id="Layer_1" data-name="Layer 1" xmlns="http://www.w3.org/2000/svg" viewBox="0 0 563 507.96">
  <defs>
    <style>
      .cls-1, .cls-2 {
        stroke-width: 0px;
      }

      .cls-2 {
        fill: #fff;
      }
    </style>
  </defs>
  <g id="mmqPrX.tif">
    <g>
      <path class="cls-2" d="m563,507.96H0V0h563v507.96Zm-541.07-1.89c10.16-.64,19.63-8.48,19.55-18.58-.06-7.58,3.76-10.15,9.44-12.69,2.03-.9,3.48-3.35,4.89-5.31,1.3-1.81,1.75-4.41,3.33-5.8,8.53-7.51,17.31-14.75,25.99-22.1,19.07-16.15,38.16-32.27,57.17-48.49,2.09-1.78,3.65-2.42,6.28-.83,1.81,1.1,5.1,2.13,6.39,1.24,2.82-1.92,4.85-5.04,7.09-7.77,2.59-3.15,4.78-6.66,7.63-9.52,3.14-3.16,6.88-5.71,10.3-8.6,25.23-21.35,50.44-42.73,75.7-64.04,1.06-.9,2.61-1.86,3.87-1.79,6.95.39,10.59-3.23,9.86-9.91-.11-.99.85-2.38,1.71-3.14,9.07-8.04,18.12-16.11,27.41-23.9,3.98-3.33,8.34-6.31,12.87-8.82,1.38-.77,4.39-.07,5.85,1.03,7.71,5.79,15.05,12.07,22.77,17.84,1.75,1.31,4.62,2.12,6.72,1.74,3.44-.62,6.83-2.1,9.96-3.75,21.57-11.43,40.38-26.67,59.11-42.17,46.69-38.65,93.7-76.91,140.75-115.13,3.9-3.17,5.02-6.48,3.94-10.84-1.73-6.96-3.62-13.89-5.64-20.77-4.58-15.61-10.59-30.46-21.05-43.3-11.6-14.25-26.2-24.83-41.12-35.11-4.13-2.85-8.22-2.57-11.94.7-13.48,11.87-26.89,23.81-40.32,35.74-14.1,12.52-28.17,25.08-42.28,37.59-14.33,12.71-28.69,25.39-43.03,38.09-12.33,10.91-24.51,21.99-37,32.7-14.44,12.38-26.26,27.03-37.54,42.17-2.81,3.77-2.97,8.17-.75,12.33,2.41,4.53,5.12,8.91,7.73,13.34,2.97,5.03,6.11,9.97,8.85,15.13.64,1.21.62,3.68-.2,4.58-2.99,3.3-6.4,6.24-9.74,9.21-9.18,8.14-18.36,16.29-27.69,24.26-1.36,1.16-3.74,2.17-5.34,1.82-4.04-.87-10.63,2.39-10.59,6.48.03,3.17-1.69,4.61-3.52,6.18-29.74,25.54-59.52,51.04-89.31,76.53-.76.65-1.95,1.65-2.58,1.44-6.01-2.08-7.48,3.41-10.4,6.21-1.89,1.82-3.68,4.16-1.7,7.11,1.64,2.44.6,3.74-1.47,5.5-26.08,22.22-52.03,44.61-78.08,66.87-3.01,2.57-6.25,6.16-9.71,6.58-4.53.55-7.04,2.09-9.09,5.82-2.13,3.87-5.24,6.89-10.14,5.74-10.24-2.4-21.6,4.83-23.35,15.79-1.19,7.48.31,16.9,7.28,19.5,3.6,1.34,7.42,2.08,11.13,3.1Z"/>
      <path class="cls-1" d="m21.93,506.07c-3.72-1.01-7.54-1.76-11.13-3.1-6.97-2.59-8.47-12.02-7.28-19.5,1.75-10.96,13.11-18.19,23.35-15.79,4.91,1.15,8.01-1.87,10.14-5.74,2.05-3.73,4.56-5.27,9.09-5.82,3.46-.42,6.7-4.01,9.71-6.58,26.05-22.26,52-44.65,78.08-66.87,2.06-1.76,3.1-3.06,1.47-5.5-1.98-2.95-.2-5.29,1.7-7.11,2.93-2.81,4.4-8.29,10.4-6.21.63.22,1.82-.79,2.58-1.44,29.79-25.48,59.57-50.98,89.31-76.53,1.83-1.57,3.55-3.01,3.52-6.18-.04-4.09,6.55-7.35,10.59-6.48,1.6.34,3.98-.66,5.34-1.82,9.33-7.97,18.51-16.12,27.69-24.26,3.35-2.97,6.75-5.91,9.74-9.21.81-.9.84-3.37.2-4.58-2.74-5.15-5.88-10.09-8.85-15.13-2.61-4.43-5.31-8.81-7.73-13.34-2.22-4.17-2.06-8.57.75-12.33,11.28-15.14,23.1-29.79,37.54-42.17,12.49-10.72,24.68-21.79,37-32.7,14.34-12.7,28.7-25.38,43.03-38.09,14.11-12.52,28.18-25.07,42.28-37.59,13.43-11.93,26.85-23.86,40.32-35.74,3.71-3.27,7.8-3.55,11.94-.7,14.92,10.28,29.51,20.86,41.12,35.11,10.46,12.84,16.47,27.69,21.05,43.3,2.02,6.88,3.91,13.81,5.64,20.77,1.08,4.36-.04,7.67-3.94,10.84-47.04,38.22-94.06,76.48-140.75,115.13-18.73,15.5-37.54,30.75-59.11,42.17-3.13,1.66-6.52,3.13-9.96,3.75-2.1.38-4.97-.43-6.72-1.74-7.72-5.78-15.07-12.05-22.77-17.84-1.46-1.1-4.47-1.79-5.85-1.03-4.53,2.51-8.89,5.48-12.87,8.82-9.29,7.79-18.33,15.86-27.41,23.9-.86.76-1.82,2.15-1.71,3.14.72,6.67-2.91,10.3-9.86,9.91-1.26-.07-2.81.89-3.87,1.79-25.26,21.32-50.47,42.7-75.7,64.04-3.42,2.89-7.16,5.45-10.3,8.6-2.85,2.86-5.05,6.38-7.63,9.52-2.24,2.72-4.27,5.84-7.09,7.77-1.3.89-4.58-.14-6.39-1.24-2.63-1.6-4.19-.95-6.28.83-19.01,16.22-38.1,32.35-57.17,48.49-8.68,7.35-17.46,14.59-25.99,22.1-1.58,1.39-2.03,3.99-3.33,5.8-1.41,1.96-2.86,4.4-4.89,5.31-5.69,2.54-9.51,5.11-9.44,12.69.09,10.1-9.38,17.94-19.55,18.58ZM464.92,119.32c0-.84.06-1.89,0-2.94-.62-9.66-13.69-20.44-23.54-12.91-2.31,1.76-4.19,4.18-5.94,6.54-7.37,9.95-5.28,23.89,4.91,30.17,2.63,1.62,6.84,2.58,9.63,1.69,8.6-2.76,15.84-11.43,14.96-22.55Zm-130.85,85.9c.8,11.27,5.47,18.09,18.06,16.78,10-1.04,20.32-11.57,17.2-25.32-1.32-5.83-7.9-12.58-12.75-12.5-12.5.19-21.63,8.78-22.51,21.04Zm77.66-41.48c0-.9.1-1.81-.02-2.69-.76-6.13-7-11.01-11.89-9.33-9.71,3.33-12.73,16.57-5.65,24.02,2.24,2.36,4.6,2.54,7.31,1.76,5.92-1.71,10.19-7.51,10.25-13.75Zm103.84-87.69c-2.75-4.11-4.64-8.05-7.59-10.85-1.42-1.34-5.64-1.66-7.25-.53-7.14,5-9.72,17.94-.56,24.56,2.81,2.03,5.94,2.27,8-.52,2.73-3.71,4.72-7.97,7.41-12.65Z"/>
      <path class="cls-2" d="m464.92,119.32c.89,11.12-6.36,19.79-14.96,22.55-2.79.9-7-.07-9.63-1.69-10.19-6.28-12.28-20.22-4.91-30.17,1.75-2.36,3.64-4.78,5.94-6.54,9.85-7.53,22.92,3.24,23.54,12.91.07,1.04,0,2.09,0,2.94Z"/>
      <path class="cls-2" d="m334.07,205.22c.88-12.26,10.01-20.85,22.51-21.04,4.85-.07,11.43,6.67,12.75,12.5,3.13,13.75-7.2,24.28-17.2,25.32-12.59,1.31-17.27-5.51-18.06-16.78Z"/>
      <path class="cls-2" d="m411.73,163.74c-.06,6.24-4.33,12.04-10.25,13.75-2.7.78-5.06.6-7.31-1.76-7.08-7.44-4.07-20.68,5.65-24.02,4.88-1.67,11.12,3.2,11.89,9.33.11.88.02,1.8.02,2.69Z"/>
      <path class="cls-2" d="m515.58,76.05c-2.69,4.69-4.68,8.94-7.41,12.65-2.05,2.79-5.19,2.55-8,.52-9.16-6.62-6.58-19.56.56-24.56,1.61-1.13,5.84-.81,7.25.53,2.95,2.8,4.84,6.74,7.59,10.85Z"/>
    </g>
  </g>
</svg>