<svg id="Layer_1" data-name="Layer 1" xmlns="http://www.w3.org/2000/svg" viewBox="0 0 568 493.07">
  <g id="QWlVtJ.tif">
    <g>
      <path class="cls-1" d="m565.89,112.28c-18.43,34.48-47.8,54.88-83.08,69.74-6.32-29.07-20.74-53.81-39.53-76.82-5.1,4.63-10.2,9.22-15.26,13.87-72.99,66.96-147.74,131.91-223.36,195.87-32.29,27.31-64.48,54.74-96.67,82.16-8.61,7.33-15.8,15.92-21.85,25.46-9.06,14.28-18.08,28.58-27.07,42.9-.97,1.55-2.11,3.21-2.37,4.94-1.37,9.03-8.11,13.95-15.15,17.19-8.65,3.99-18.31,5.74-27.55.74-5.98-3.24-9.79-8.5-10.86-15.14-.35-2.16.96-5.77,2.69-6.91,22.01-14.42,35.44-36.51,50.77-56.77,14.82-19.58,33.02-35.48,51.56-51.23,60.11-51.08,120.08-102.31,180.07-153.52,27.88-23.8,54.54-48.93,77.93-77.19,14.98-18.1,28.77-37.2,42.93-55.98.73-.97.52-3.54-.27-4.62-2.72-3.71-5.88-7.1-8.9-10.59-2.46-2.84-2.64-5.16.14-8.35,14.55-16.67,30.79-31.34,49.36-43.42,2.73-1.77,4.5-1.64,6.76.62,13.53,13.52,28.59,25.71,39.34,41.71,16.81,25.02,40.94,42.06,63.91,60.43,2.02,1.62,4.13,3.14,6.48,4.92Z"/>
    </g>
  </g>
</svg>