<svg id="Layer_1" data-name="Layer 1" xmlns="http://www.w3.org/2000/svg" viewBox="0 0 499.92 499.92">
  <g id="iibJMx.tif">
    <g>
      <path class="cls-1" d="m450.35,109.92c-1.5-1.19-2.79-1.99-3.8-3.05-2.14-2.26-4.49-2.69-7.54-2.08-1.66.33-4.58-.21-5.22-1.34-1.29-2.24-2.51-5.52-1.79-7.72,2.08-6.26,7.39-9.38,13.49-11.39,2.32-.76,4.39-2.29,6.57-3.46,1.78-.96,3.63-1.81,5.34-2.88,5.47-3.42,7.67-10.37,5.52-16.51-3.29-9.41-10.63-15.02-18.48-20.24-3.95-2.63-7.94-2.5-12.51-1.8-12.89,1.96-22.09,9.78-29.62,19.23-4.79,6.01-7.13,13.94-10.88,20.84-3.61,6.64-4.7,13.88-6.07,21.11-.37,1.98-1.41,4.07-2.74,5.58-4.57,5.16-9.78,9.79-14.03,15.19-3.94,5-6.88,10.78-10.42,16.11-2.42,3.65-5.28,7.01-7.61,10.71-2.2,3.49-5.46,5.46-8.81,7.52-.87.54-1.06,2.19-1.82,2.86-1.26,1.22-2.52,2.44-3.77,3.67-.19.19-.37.6-.53.59-5.16-.36-5.62,5.04-8.75,7.09-14.67,9.63-26.49,22.54-39.48,34.1-9.39,8.35-18.7,16.81-27.65,25.62-3.34,3.29-6.13,7.45-8.19,11.69-8.52,17.49-19.87,32.82-34.49,45.58-5.1,4.45-10.99,8.07-16.76,11.67-7.16,4.45-12.14,10.93-17.28,17.33-3.17,3.95-6.4,7.86-9.77,11.65-3.9,4.38-7.84,8.75-12.03,12.84-17.39,16.99-34.68,34.09-52.42,50.7-8.11,7.59-17.41,13.9-25.77,21.25-4.31,3.79-7.48,8.85-11.63,12.85-5.22,5.04-10.74,9.81-16.45,14.27-5.67,4.43-7.88,10.54-9.69,17.02-.62,2.22-.94,4.64-2.06,6.58-.74,1.28-2.65,2.55-4.09,2.61-2.77.12-5.41-.65-6.49-3.97-3.33-10.17-2.41-20.23,2.07-29.57,1.48-3.09,6.07-5.03,9.61-6.68,3.07-1.43,5.38-2.94,6.78-6.17,3.78-8.74,10.84-14.26,18.7-19.26,9.14-5.81,18.13-11.98,26.52-18.81,9.08-7.39,17.75-15.38,25.98-23.72,12.9-13.07,25.25-26.68,37.88-40.01,2.58-2.72,5.54-5.08,8.06-7.84,3.89-4.26,7.28-9.02,11.41-13.02,4.38-4.24,9.17-8.12,14.14-11.65,9.74-6.92,18.97-14.24,26.9-23.37,7.44-8.57,10.9-19.12,16.5-28.58,1.56-2.63,3.09-5.44,5.25-7.53,21.48-20.76,43.08-41.41,64.69-62.05,3.12-2.98,6.61-5.59,9.73-8.58,4.61-4.43,9.1-8.99,13.52-13.61,8.72-9.09,17.04-18.6,26.13-27.3,9.35-8.96,15.48-19.48,19.5-31.71,4.53-13.79,10.63-27.11,19.23-38.76,3.95-5.35,10.57-9.02,16.51-12.55,11.29-6.71,24.05-8.55,36.48-5.52,11.98,2.92,21.88,9.93,26.23,22.65,2.66,7.8,4.35,15.72,3.14,23.91-.39,2.64-1.95,5.31-3.58,7.51-2.37,3.2-7.15,5.77-7.54,9.02-.6,4.95-5.28,5.4-6.77,9.04-1.43,3.51-4.21,6.49-6.49,9.62-.69.95-1.72,1.65-2.83,2.69Z"/>
    </g>
  </g>
</svg>