<?xml version="1.0" encoding="UTF-8"?>
<svg id="Layer_1" data-name="Layer 1" xmlns="http://www.w3.org/2000/svg" viewBox="0 0 527.66 550">
  <defs>
    <style>
      .cls-1, .cls-2 {
        stroke-width: 0px;
      }

      .cls-2 {
        fill: #fff;
      }
    </style>
  </defs>
  <g id="xt4yQ1.tif">
    <g>
      <path class="cls-2" d="m0,0h527.66v550H0V0Zm525.24,54.51c-.63-5.22-.72-10.57-1.98-15.63-2.89-11.55-7.46-22.06-18.55-28.56-8.55-5.02-17.87-6.66-27.38-7.53-21.37-1.95-40.79,4.94-58.65,15.49-27.58,16.29-50.74,37.86-70.25,63.31q-3.83,5,1.38,8.58c12.89,8.89,24.73,18.9,34.04,31.68,1.66,2.28,2.14,4.21.52,6.53-2.67,3.83-4.93,8.05-8.1,11.41-10,10.61-20.45,20.8-30.47,31.39-2.26,2.38-3.01,6.18-5.25,8.59-24.68,26.62-49.48,53.13-74.32,79.61-30.6,32.63-61.19,65.28-91.93,97.79-27.64,29.22-55.46,58.26-83.22,87.38-1.97,2.06-3.84,4.27-6.05,6.03-10.8,8.58-23.08,12.53-36.96,12.3-5.3-.09-10.86.84-15.91,2.5-11.41,3.77-19.62,11.85-26.42,21.53-3.34,4.75-3.36,7.8.43,12.3.64.76,1.44,1.39,2.17,2.08,6.02,5.7,11.98,11.47,18.09,17.08,8.2,7.54,16.06,15.56,24.9,22.28,12.16,9.24,9.89,10.16,22.05-1.76,11.62-11.4,16.85-24.94,15.71-41.33-.45-6.39.2-13.21,2.03-19.33,3.38-11.28,9.03-21.37,20.45-26.84,1.01-.48,1.48-2.14,2.13-3.3,1.4-2.49,2.31-5.43,4.21-7.46,24.57-26.35,49.28-52.56,73.94-78.83,29.06-30.96,58.09-61.94,87.14-92.9,21.52-22.93,43.06-45.85,64.58-68.78,6.28-6.69,12.49-13.42,21.62-16.42.85-.28,1.03-2.28,1.79-3.28.83-1.09,2-1.91,2.95-2.92,1-1.06,2.04-2.11,2.84-3.32.46-.69.22-1.88.73-2.48,7.68-9.04,15.44-18.01,23.14-27.03,2.93-3.43,6.42-3.31,10.08-1.7,1.68.74,3.36,1.72,4.7,2.96,7.84,7.29,15.61,14.64,23.33,22.06,2.98,2.87,5.69,6.01,8.64,8.91,1.88,1.85,3.56,1.84,5.87-.08,17.45-14.57,32.08-31.73,45.79-49.71,16.38-21.47,28.39-44.79,30.2-72.59Z"/>
      <path class="cls-1" d="m525.24,54.51c-1.81,27.8-13.82,51.12-30.2,72.59-13.72,17.98-28.34,35.14-45.79,49.71-2.31,1.93-3.99,1.93-5.87.08-2.95-2.9-5.66-6.05-8.64-8.91-7.72-7.42-15.49-14.77-23.33-22.06-1.34-1.24-3.02-2.22-4.7-2.96-3.66-1.61-7.15-1.74-10.08,1.7-7.7,9.02-15.47,17.99-23.14,27.03-.51.6-.27,1.79-.73,2.48-.8,1.2-1.84,2.26-2.84,3.32-.95,1-2.13,1.83-2.95,2.92-.76,1-.94,3-1.79,3.28-9.13,3-15.34,9.73-21.62,16.42-21.52,22.93-43.06,45.85-64.58,68.78-29.05,30.96-58.08,61.94-87.14,92.9-24.66,26.27-49.37,52.48-73.94,78.83-1.89,2.03-2.8,4.97-4.21,7.46-.65,1.15-1.12,2.81-2.13,3.3-11.42,5.47-17.07,15.56-20.45,26.84-1.83,6.12-2.48,12.94-2.03,19.33,1.14,16.39-4.09,29.93-15.71,41.33-12.16,11.92-9.89,11-22.05,1.76-8.84-6.72-16.7-14.74-24.9-22.28-6.11-5.61-12.06-11.38-18.09-17.08-.73-.69-1.52-1.32-2.17-2.08-3.8-4.5-3.78-7.56-.43-12.3,6.81-9.67,15.01-17.76,26.42-21.53,5.05-1.67,10.61-2.59,15.91-2.5,13.88.23,26.16-3.72,36.96-12.3,2.22-1.76,4.09-3.97,6.05-6.03,27.75-29.11,55.58-58.15,83.22-87.38,30.74-32.51,61.32-65.16,91.93-97.79,24.83-26.48,49.64-52.99,74.32-79.61,2.24-2.41,3-6.21,5.25-8.59,10.02-10.59,20.47-20.78,30.47-31.39,3.17-3.36,5.43-7.58,8.1-11.41,1.62-2.32,1.14-4.24-.52-6.53-9.31-12.78-21.15-22.78-34.04-31.68q-5.22-3.6-1.38-8.58c19.51-25.45,42.67-47.02,70.25-63.31,17.86-10.55,37.28-17.44,58.65-15.49,9.51.87,18.83,2.52,27.38,7.53,11.09,6.51,15.66,17.02,18.55,28.56,1.27,5.06,1.36,10.41,1.98,15.63ZM16.22,484.41c1.09,1.4,1.9,2.78,3.03,3.83,15.17,14.08,30.42,28.09,45.58,42.19,2.74,2.55,4.7,2.74,7.43-.27,8.43-9.32,11.25-20.3,10.04-32.46-.94-9.43.14-18.49,3.77-27.23.91-2.19,2.13-4.58-.55-5.98-2.03-1.06-5.07-2.23-6.81-1.45-9.87,4.43-20.15,6-30.82,5.93-13.01-.08-23.26,5.53-31.66,15.43Z"/>
      <path class="cls-2" d="m16.22,484.41c8.4-9.9,18.65-15.51,31.66-15.43,10.68.07,20.96-1.5,30.82-5.93,1.74-.78,4.78.39,6.81,1.45,2.68,1.4,1.46,3.79.55,5.98-3.64,8.73-4.71,17.8-3.77,27.23,1.21,12.16-1.61,23.13-10.04,32.46-2.73,3.02-4.69,2.82-7.43.27-15.16-14.1-30.4-28.11-45.58-42.19-1.12-1.04-1.93-2.43-3.03-3.83Z"/>
    </g>
  </g>
</svg>