<svg id="Layer_1" data-name="Layer 1" xmlns="http://www.w3.org/2000/svg" viewBox="0 0 520.43 520.43">
  
  <g id="_48KaeR.tif" data-name="48KaeR.tif">
    <g>
      
      <path class="cls-1" d="m427.79,76.5c-10.97-11.65-21.77-23.13-32.6-34.6-3.18-3.37-3.43-8.7-.18-12.05,6.07-6.27,12.27-12.42,18.5-18.53,2.83-2.77,6.73-2.69,9.64.14,3.65,3.54,7.03,7.39,10.83,10.77,9.88,8.8,20.12,17.2,29.82,26.19,7.55,7,15.97,13.72,21.35,22.25,6.5,10.31,15.79,17.53,23.58,26.33,3.22,3.64,3.65,6.56.19,10.19-6.21,6.52-12.64,12.82-19.12,19.08-2.68,2.59-7.08,2.51-9.98.2-.57-.45-1.04-1.02-1.57-1.52-11.36-10.73-22.72-21.47-34.24-32.34-1.67,1.58-3.17,2.93-4.6,4.36-64.93,64.92-129.85,129.86-194.81,194.74-3.06,3.05-6.74,5.48-9.77,8.55-34.62,35.07-69.26,70.12-103.7,105.37-19.36,19.81-38.39,39.94-57.45,60.05-2.01,2.12-3.36,4.93-4.72,7.58-2.09,4.07-5.29,4.52-9.04,1.99-6.19-4.17-11.29-9.23-15.37-15.45-1.51-2.3-2.72-4.8.26-6.21,9.87-4.67,16.4-13.22,24.23-20.23,6.39-5.72,12.4-11.86,18.52-17.87,31.33-30.73,62.73-61.38,93.93-92.24,50.46-49.91,100.91-99.85,151.13-150,30.95-30.91,61.48-62.24,92.19-93.39,1.01-1.02,1.91-2.14,2.97-3.33Z"/>
    </g>
  </g>
</svg>