<svg id="Layer_1" data-name="Layer 1" xmlns="http://www.w3.org/2000/svg" viewBox="0 0 512.5 421.72">
  <g id="icc8z0.tif">
    <g>
      <path class="cls-1" d="m509.77,2.24c-1.09,1.83-1.58,2.88-2.26,3.78-15.52,20.69-33.79,38.57-54.91,53.49-2.07,1.47-5.01,1.65-7.42,2.72-2.65,1.18-5.67,2.17-7.62,4.15-20.86,21.18-44.68,38.93-67.53,57.76-89.16,73.47-178.6,146.61-267.93,219.88-29.71,24.36-59.39,48.75-89.09,73.12-4.3,3.53-6.97,3.64-9.51.44-2.41-3.04-1.52-5.51,1.24-7.76,10.2-8.33,20.37-16.69,30.55-25.05,68.49-56.24,136.99-112.48,205.47-168.74,24.38-20.03,48.7-40.12,73.09-60.14,31.38-25.76,62.73-51.57,94.25-77.16,7.54-6.12,15.89-11.26,23.45-17.35,2.94-2.37,4.77-6.13,7.08-9.28.8-1.1,1.33-2.45,2.29-3.37,19.56-19,41.78-34.15,66.47-45.7.44-.21.93-.32,2.39-.8Z"/>
    </g>
  </g>
</svg>