<?xml version="1.0" encoding="UTF-8"?>
<svg id="Layer_1" data-name="Layer 1" xmlns="http://www.w3.org/2000/svg" viewBox="0 0 548.01 548.01">
  <defs>
    <style>
      .cls-1, .cls-2 {
        stroke-width: 0px;
      }

      .cls-2 {
        fill: #fff;
      }
    </style>
  </defs>
  <g id="pbCFDJ.tif">
    <g>
      <path class="cls-2" d="m548.01,548.01H0V0h548.01v548.01Zm-462.25-91.88c.91,3.66,1.48,6.58,2.37,9.4,1.46,4.62,4.76,5.65,8.07,2.26,14.98-15.35,32.21-28.57,44.35-46.63,4.62-6.87,9.34-13.67,13.75-20.68,2.72-4.31,4.35-9.4,7.46-13.36,15.3-19.46,35.35-33.79,54.2-49.42,13-10.78,25.45-22.22,37.98-33.55,2.59-2.34,5.54-5.14,6.51-8.29,4.21-13.79,13.39-24.16,23.42-33.53,8.5-7.94,18.48-14.3,27.86-21.29,2.44-1.82,4.98-3.55,7.63-5.05,9.44-5.33,19.41-9.86,26.99-17.97,4.29-4.59,9.1-8.82,12.76-13.86,3.71-5.12,6.3-11.05,9.37-16.59,8.08,3.44,8.48,10.92,10.86,18.23,5.43,2.71,5.38,2.68,1.92,9.38-1.83,3.54-3.47,7.18-5.09,10.56,4.9,3.44,7.57,3.05,9.38-1.87.97-2.65,2.88-5.05,4.74-7.26.9-1.07,2.71-2.14,3.99-2.01,4.39.44,8.71,1.57,13.1,2.15,8.52,1.11,12.79,5.83,12.7,14.35,0,.95.02,1.89-.03,2.84-.19,3.33,2.11,4.32,4.53,3.72,1.35-.33,3.03-2.48,3.17-3.94.42-4.36.15-8.78.15-12.79,2.3-.93,4.28-1.89,6.35-2.55,7.06-2.22,14.13-4.41,21.26-6.35.77-.21,2.3,1.08,2.98,2.03,1.86,2.6,3.66,5.29,5.09,8.14,1.7,3.4,4.48,2.77,6.37,1.25,1.02-.82,1.06-4,.36-5.6-1.28-2.89-3.56-5.32-5.17-8.09-.63-1.08-1.22-2.98-.7-3.8,2.9-4.56,5.99-9.01,9.33-13.26,1.54-1.95,4.37-2.99,5.59-5.05,1.75-2.95,3.58-2.59,5.98-1.48,4.01,1.85,8.03,3.66,12.71,5.8.97-2.56,1.76-4.65,2.62-6.91-4.01-2.06-7.65-3.76-11.1-5.78-1.6-.94-4.04-2.53-4.01-3.77.09-3.8,1.03-7.61,1.97-11.33.88-3.48,3.01-5.19,6.93-4.15,2.07.55,4.31.59,6.47.61,2.98.03,4.81-.77,4.87-4.59.06-3.82-1.9-4.29-4.66-4.38-2.56-.09-5.15-.19-7.7.05-3.15.29-4.23-1.38-4.73-4.07-1.01-5.54-2.19-11.05-3.16-16.6-1.44-8.27-.2-10.4,7.83-13.63,1.91-.77,3.87-1.48,5.88-1.9,2.74-.58,4.89-1.73,3.66-4.81-1.03-2.58-2.64-4.66-6.36-3.06-4.38,1.88-9.06,3.04-13.64,4.53-3.11-6.82-5.8-12.71-9.01-19.75-1.83,3.03-2.83,4.68-3.5,5.79-2.16-3.59-4.34-7.19-6.48-10.82-.29-.49-.48-1.15-.45-1.71.41-6.74-.31-7.77-7.09-9.94-5.63-1.8-7.56-4.88-5.06-9.1,2.58-4.35.5-7.04-4.35-11.79-3.96,5.2-7.93,10.4-12.67,16.62-1.27-4.64-2.41-7.47-2.76-10.39-.71-5.89-2.33-7.2-8.04-5.56-1.64.47-3.19,1.23-3.9,1.51-6.88-3.63-13.22-6.89-19.47-10.3-4.86-2.65-9.83-5.17-14.34-8.33-2.56-1.79-4.35-4.71-6.37-7.21-2.68-3.32-5.29-2.91-8.05-.13-12.3,12.39-24.7,24.67-36.88,37.17-7.31,7.5-14.25,15.36-21.4,23.01-6.53,6.98-6.65,8.18-.09,15.05,4.71,4.93,7.98,10.23,10.1,17.02,2.28,7.3,7.68,13.58,11.19,20.57,2.07,4.13,6.27,7.73,2.6,13.67-3.03,4.92,1.32,10.61,7.01,10.46.97-.02,1.95.5,3.03.8-3.57,6.4-7.01,12.33-10.22,18.38-3.56,6.71-8.77,11.69-15.14,15.68-6.27,3.93-13.13,7.3-18.46,12.27-9.88,9.23-18.83,19.45-28.18,29.25-5.57,5.83-11.07,11.73-16.77,17.43-4.29,4.29-8.93,8.23-13.25,12.49-2.86,2.82-5.04,6.47-8.21,8.81-15.64,11.57-28.49,25.72-39.67,41.51-4.46,6.29-9.5,12.26-13.24,18.95-3.81,6.81-8.85,12.07-14.94,16.69-4.07,3.09-7.92,6.52-11.64,10.03-1.96,1.85-3.25,4.41-5.19,6.3-24.91,24.28-49.99,48.39-74.73,72.84-3.23,3.2-4.89,8.02-7.1,12.18-.33.62.27,1.73.4,2.39,7.05,1.51,10.25-3.93,15.17-7.9Z"/>
      <path class="cls-1" d="m85.76,456.12c-4.92,3.98-8.12,9.41-15.17,7.9-.13-.66-.73-1.77-.4-2.39,2.22-4.16,3.87-8.98,7.1-12.18,24.74-24.45,49.81-48.56,74.73-72.84,1.94-1.89,3.22-4.45,5.19-6.3,3.73-3.51,7.57-6.94,11.64-10.03,6.09-4.62,11.13-9.88,14.94-16.69,3.74-6.69,8.78-12.66,13.24-18.95,11.18-15.79,24.03-29.94,39.67-41.51,3.17-2.35,5.35-5.99,8.21-8.81,4.32-4.26,8.96-8.2,13.25-12.49,5.7-5.7,11.21-11.6,16.77-17.43,9.35-9.8,18.3-20.02,28.18-29.25,5.33-4.98,12.18-8.35,18.46-12.27,6.37-3.99,11.58-8.97,15.14-15.68,3.21-6.05,6.65-11.98,10.22-18.38-1.08-.3-2.06-.82-3.03-.8-5.69.14-10.04-5.54-7.01-10.46,3.66-5.94-.53-9.54-2.6-13.67-3.51-6.99-8.91-13.27-11.19-20.57-2.12-6.79-5.39-12.09-10.1-17.02-6.56-6.88-6.44-8.07.09-15.05,7.15-7.65,14.09-15.51,21.4-23.01,12.18-12.5,24.58-24.78,36.88-37.17,2.76-2.78,5.37-3.18,8.05.13,2.02,2.5,3.82,5.42,6.37,7.21,4.51,3.16,9.48,5.69,14.34,8.33,6.26,3.41,12.59,6.67,19.47,10.3.71-.28,2.26-1.04,3.9-1.51,5.71-1.65,7.33-.34,8.04,5.56.35,2.92,1.49,5.75,2.76,10.39,4.74-6.22,8.7-11.42,12.67-16.62,4.84,4.74,6.93,7.44,4.35,11.79-2.5,4.22-.57,7.3,5.06,9.1,6.78,2.17,7.5,3.2,7.09,9.94-.03.56.16,1.22.45,1.71,2.13,3.63,4.32,7.23,6.48,10.82.67-1.11,1.67-2.76,3.5-5.79,3.21,7.04,5.89,12.92,9.01,19.75,4.58-1.48,9.27-2.65,13.64-4.53,3.72-1.6,5.33.48,6.36,3.06,1.23,3.08-.92,4.23-3.66,4.81-2,.42-3.97,1.13-5.88,1.9-8.03,3.23-9.27,5.36-7.83,13.63.97,5.55,2.15,11.06,3.16,16.6.49,2.69,1.58,4.36,4.73,4.07,2.55-.24,5.13-.14,7.7-.05,2.76.09,4.72.56,4.66,4.38-.06,3.82-1.89,4.62-4.87,4.59-2.16-.02-4.41-.06-6.47-.61-3.91-1.04-6.05.66-6.93,4.15-.94,3.72-1.87,7.54-1.97,11.33-.03,1.24,2.41,2.83,4.01,3.77,3.45,2.02,7.09,3.72,11.1,5.78-.86,2.26-1.65,4.36-2.62,6.91-4.68-2.13-8.7-3.95-12.71-5.8-2.4-1.11-4.23-1.47-5.98,1.48-1.22,2.06-4.05,3.1-5.59,5.05-3.34,4.24-6.43,8.7-9.33,13.26-.52.81.07,2.72.7,3.8,1.61,2.77,3.89,5.2,5.17,8.09.7,1.59.67,4.78-.36,5.6-1.89,1.52-4.67,2.15-6.37-1.25-1.42-2.85-3.23-5.54-5.09-8.14-.68-.95-2.2-2.24-2.98-2.03-7.14,1.94-14.2,4.13-21.26,6.35-2.08.65-4.06,1.61-6.35,2.55,0,4.01.27,8.43-.15,12.79-.14,1.46-1.82,3.61-3.17,3.94-2.42.6-4.72-.39-4.53-3.72.05-.94.02-1.89.03-2.84.09-8.52-4.19-13.24-12.7-14.35-4.38-.57-8.7-1.71-13.1-2.15-1.28-.13-3.09.93-3.99,2.01-1.85,2.21-3.76,4.6-4.74,7.26-1.81,4.92-4.48,5.31-9.38,1.87,1.62-3.38,3.25-7.02,5.09-10.56,3.46-6.69,3.51-6.67-1.92-9.38-2.38-7.31-2.78-14.79-10.86-18.23-3.06,5.54-5.65,11.47-9.37,16.59-3.66,5.05-8.47,9.27-12.76,13.86-7.59,8.11-17.55,12.64-26.99,17.97-2.65,1.5-5.19,3.23-7.63,5.05-9.38,6.99-19.36,13.35-27.86,21.29-10.03,9.37-19.2,19.74-23.42,33.53-.96,3.15-3.91,5.95-6.51,8.29-12.53,11.32-24.99,22.77-37.98,33.55-18.86,15.64-38.9,29.96-54.2,49.42-3.11,3.96-4.75,9.04-7.46,13.36-4.41,7-9.13,13.81-13.75,20.68-12.14,18.05-29.37,31.27-44.35,46.63-3.31,3.39-6.61,2.36-8.07-2.26-.89-2.82-1.46-5.74-2.37-9.4Z"/>
    </g>
  </g>
</svg>