<?xml version="1.0" encoding="UTF-8"?>
<svg id="Layer_1" data-name="Layer 1" xmlns="http://www.w3.org/2000/svg" viewBox="0 0 548 615">
  <defs>
    <style>
      .cls-1, .cls-2 {
        stroke-width: 0px;
      }

      .cls-2 {
        fill: #fff;
      }
    </style>
  </defs>
  <g id="nouHJy.tif">
    <g>
      <path class="cls-2" d="m0,0c182.67,0,365.33,0,548,0,0,205,0,410,0,615-182.67,0-365.33,0-548,0C0,410,0,205,0,0Zm430.74,94.11c-.39-.02-2-.61-3.1-.09-4.51,2.13-5.84-.58-6.74-4.06-1.11-4.32-1.05-9.34-3.35-12.87-6.62-10.19-10.43-21.08-11.23-33.09-.52-7.88-4.86-13.17-11.09-17.34-10.37-6.94-20.72-13.91-31.12-20.8-1.49-.99-3.25-1.57-4.88-2.34,1.22,5.83,3.31,10.67,5.07,15.64.55,1.55.83,3.74.15,5.09-2.29,4.57-5.06,8.9-7.8,13.59-3.12-1.88-6.16-3.3-8.73-5.32-6.24-4.9-12.7-4.12-19.63-1.78-8.91,3.01-12.92,10.42-17.19,17.76-.74,1.27-1.95,2.5-3.24,3.16-7.02,3.6-13.2,7.57-16.9,15.29-4.81,10.04-11.78,18.4-23.45,21.5-1.8.48-3.58,2.78-4.44,4.66-2.26,4.98-4.18,10.13-5.91,15.33-1.44,4.31-1.82,9.07-3.78,13.09-1.78,3.65,1.21,10.17-6.97,10.77,2.36.34,3.76.55,5.79.84-1.44,4.67-4.01,9.07-3.75,13.29.26,4.25,3.34,8.32,5.65,13.54-15.49-2.8-29.15-9.59-44.01-12.57.76,1.91,1.76,3.36,2.98,4.6,8.07,8.17,16.45,16.06,24.21,24.5,5.97,6.49,13.02,10.1,21.66,10.99,3.31.34,6.63.71,9.9,1.3,9.29,1.68,17.96,4.27,24.31,12.24,5.06,6.36,11.07,11.96,16.57,17.97,1.53,1.68,4.19,3.97,3.85,5.4-.92,3.92-3.01,7.6-4.92,11.23-1.62,3.08-4.6,5.75-5.27,8.96-1.32,6.4-3.96,11.64-8.32,16.55-14.24,16.07-28.12,32.46-42.16,48.71-15.01,17.39-29.66,35.11-45.17,52.05-15.47,16.9-27.99,36.43-46.52,50.71-7.24,5.58-12.77,13.54-18.53,20.84-4.01,5.09-6.52,11.4-10.68,16.35-15.94,19-31.87,38.04-48.58,56.36-16.7,18.3-31.12,38.52-50.09,54.98-12.43,10.79-23.57,23.62-30.4,39.84,4.18,3.57,8.68,7.42,12.7,10.86,4.04-2.71,7.99-4.58,10.92-7.49,5.43-5.38,10.6-11.1,15.26-17.15,5.27-6.84,9.37-14.59,14.84-21.24,11.31-13.75,22.87-27.34,34.91-40.45,21.27-23.15,38.98-49.48,63.31-69.93,6.05-5.08,11.01-11.57,15.9-17.87,4.36-5.62,7.34-12.36,11.94-17.75,34.61-40.49,69.46-80.78,104.25-121.12,1.07-1.24,2.23-2.41,3.34-3.62.51,1.72.25,2.83.1,3.95-.7,5.22,2.69,8.39,7.78,7.22,1.61-.37,3.14-1.08,4.7-1.65,15.44-5.72,30.87-11.47,46.34-17.11,1.25-.46,3.05-.67,4.14-.11,9.58,4.91,9.49,4.91,16.93-3.19,1.35-1.47,3.95-3.54,5.17-3.11,6.44,2.28,12.48-.36,18.67-.71,9.59-.54,13.05,4.07,9.85,13.08-.53,1.49-.95,3.02-1.42,4.54.22.07.44.14.66.21,1.57-3.21,3.15-6.42,4.73-9.65,6.43,6.39,12.52,12.46,18.65,18.56-2.07,4.33-4.13,8.64-6.2,12.95l.73.37c2.43-3.9,4.87-7.81,6.31-10.12,6.42,0,11.62-.2,16.79.12,1.61.1,3.12,1.63,4.22,2.25.42-1.2.54-3.64,1.58-4.14,9.9-4.75,15.22-12.89,17.73-23.16,3.45-.23,6.61-.45,9.78-.66-.03-.31-.06-.62-.08-.93-3.22-.22-6.45-.44-8.35-.58-2.25-5.06-3.45-9.69-6.11-13.22-2.7-3.59-6.85-6.1-11-9.63,5.52-3.34,9.35-5.66,13.18-7.99-4.13,1.04-7.76,2.98-11.57,4.47-.87.34-2.35-.86-3.56-1.35,2.01-4.87,3.38-10.15,6.16-14.53,4.93-7.78,11.2-14.73,15.99-22.59,3.82-6.26,6.26-13.35,9.44-20.34,2.6,1.8,5.15,3.56,7.93,5.49-2.35,4.24-4.46,8.06-6.58,11.87.25.14.49.28.74.43,2.56-3.54,5.11-7.08,7.87-10.9,1.51,1.13,2.65,1.98,3.87,2.9-2.33,3.89-4.48,7.49-6.63,11.08,2.38-1.59,4.16-3.54,5.57-5.73,1.85-2.88,4.88-2.88,7.18-2.14,7.01,2.27,13.27,1.29,19.4-2.54,10.61-6.63,15.37-18.64,14.33-27.24-.52-4.34-.24-6.65,4.45-7.13,1.21-.13,2.38-.75,3.56-1.15-2.25-.27-4.36.33-6.47.31-1.44-.01-3.16-.54-4.27-1.43-4.23-3.38-8.04-7.32-12.43-10.47-8.62-6.19-8.74-6.03-6.48-16.25.03-.15-.27-.37-.58-.77-1.31,3.11-2.55,6.08-3.8,9.04-1.22-.99-1.75-2.15-1.37-2.79,3.98-6.86,7.84-13.81,12.26-20.38,4.62-6.87,10.48-13.07,10.73-21.97.17-6.22-3.1-8.96-9.13-7.62-2.53.56-4.9,1.87-7.29,2.96-1.39.63-2.67,1.48-3.02,1.68.28-5.07,1.37-10.35.55-15.31-.51-3.08-.92-4.82,1.97-6.38,1-.54,1.77-1.49,2.65-2.25-.15-.18-.3-.36-.46-.54-2.27,1.23-4.54,2.46-6.99,3.79-1.76-1.56-3.42-3.02-4.87-4.31,3.75-2.96,7.14-5.63,10.52-8.3-7.23,2.76-14.32,10.46-20.71-1.27.8-1.82,1.7-3.88,2.6-5.93-.18-.06-.36-.12-.54-.18-1.32,1.62-2.64,3.25-4.17,5.12-6.68-5.77-12.9-11.55-19.57-16.75-4.12-3.21-5.45-6.05-1.96-10.5,1.67-2.13,2.66-4.79,3.96-7.21-.22-.14-.45-.29-.67-.43-2.64,3.86-5.28,7.71-6.8,9.93-6.47.4-11.97-.57-16.26,1.27-9.01,3.87-16.19,10.41-20.46,19.63-4.62,9.99-4.94,17.39,4.8,24.54,1.19.88,2.58,1.5,4.75,2.73-3.52,3.07-5.6,4.88-7.68,6.7-.42-1.58-.83-3.16-1.49-5.65Z"/>
      <path class="cls-1" d="m430.74,94.11c.66,2.49,1.07,4.07,1.49,5.65,2.08-1.82,4.16-3.63,7.68-6.7-2.17-1.24-3.55-1.86-4.75-2.73-9.74-7.15-9.42-14.54-4.8-24.54,4.27-9.22,11.45-15.76,20.46-19.63,4.29-1.84,9.79-.87,16.26-1.27,1.52-2.22,4.16-6.07,6.8-9.93.22.14.45.29.67.43-1.3,2.42-2.28,5.08-3.96,7.21-3.49,4.44-2.16,7.29,1.96,10.5,6.68,5.2,12.9,10.98,19.57,16.75,1.53-1.88,2.85-3.5,4.17-5.12.18.06.36.12.54.18-.9,2.06-1.8,4.11-2.6,5.93,6.39,11.73,13.48,4.03,20.71,1.27-3.39,2.67-6.77,5.34-10.52,8.3,1.45,1.28,3.11,2.75,4.87,4.31,2.46-1.33,4.72-2.56,6.99-3.79.15.18.3.36.46.54-.88.76-1.65,1.71-2.65,2.25-2.9,1.56-2.48,3.3-1.97,6.38.82,4.96-.27,10.23-.55,15.31.35-.2,1.63-1.05,3.02-1.68,2.39-1.08,4.76-2.4,7.29-2.96,6.03-1.34,9.31,1.4,9.13,7.62-.25,8.9-6.11,15.1-10.73,21.97-4.42,6.57-8.28,13.53-12.26,20.38-.37.64.15,1.8,1.37,2.79,1.25-2.96,2.49-5.93,3.8-9.04.31.4.61.62.58.77-2.26,10.23-2.15,10.07,6.48,16.25,4.39,3.15,8.2,7.09,12.43,10.47,1.11.89,2.83,1.41,4.27,1.43,2.1.02,4.21-.58,6.47-.31-1.19.4-2.35,1.02-3.56,1.15-4.69.48-4.97,2.79-4.45,7.13,1.03,8.6-3.72,20.61-14.33,27.24-6.12,3.83-12.39,4.81-19.4,2.54-2.29-.74-5.33-.74-7.18,2.14-1.41,2.19-3.19,4.14-5.57,5.73,2.15-3.59,4.3-7.19,6.63-11.08-1.23-.92-2.36-1.77-3.87-2.9-2.75,3.82-5.31,7.36-7.87,10.9-.25-.14-.49-.28-.74-.43,2.11-3.81,4.22-7.62,6.58-11.87-2.78-1.92-5.32-3.68-7.93-5.49-3.18,6.99-5.63,14.08-9.44,20.34-4.79,7.86-11.06,14.81-15.99,22.59-2.78,4.39-4.15,9.66-6.16,14.53,1.2.49,2.68,1.69,3.56,1.35,3.81-1.49,7.44-3.43,11.57-4.47-3.83,2.32-7.66,4.64-13.18,7.99,4.15,3.53,8.29,6.04,11,9.63,2.66,3.53,3.86,8.16,6.11,13.22,1.9.13,5.13.35,8.35.58.03.31.06.62.08.93-3.17.21-6.34.43-9.78.66-2.52,10.27-7.84,18.41-17.73,23.16-1.04.5-1.15,2.94-1.58,4.14-1.1-.62-2.62-2.15-4.22-2.25-5.17-.32-10.37-.12-16.79-.12-1.44,2.32-3.88,6.22-6.31,10.12l-.73-.37c2.06-4.31,4.13-8.62,6.2-12.95-6.13-6.1-12.22-12.16-18.65-18.56-1.58,3.23-3.16,6.44-4.73,9.65-.22-.07-.44-.14-.66-.21.47-1.51.89-3.04,1.42-4.54,3.2-9.01-.26-13.62-9.85-13.08-6.19.35-12.23,2.99-18.67.71-1.23-.43-3.82,1.64-5.17,3.11-7.44,8.1-7.34,8.11-16.93,3.19-1.09-.56-2.89-.35-4.14.11-15.47,5.64-30.9,11.39-46.34,17.11-1.56.58-3.09,1.28-4.7,1.65-5.09,1.18-8.47-2-7.78-7.22.15-1.13.41-2.24-.1-3.95-1.12,1.2-2.27,2.37-3.34,3.62-34.79,40.34-69.64,80.62-104.25,121.12-4.6,5.38-7.58,12.13-11.94,17.75-4.88,6.29-9.85,12.79-15.9,17.87-24.33,20.44-42.04,46.77-63.31,69.93-12.05,13.11-23.6,26.7-34.91,40.45-5.47,6.65-9.57,14.4-14.84,21.24-4.66,6.05-9.83,11.77-15.26,17.15-2.93,2.9-6.88,4.78-10.92,7.49-4.03-3.44-8.53-7.29-12.7-10.86,6.83-16.22,17.97-29.05,30.4-39.84,18.96-16.46,33.39-36.68,50.09-54.98,16.71-18.32,32.64-37.36,48.58-56.36,4.15-4.95,6.66-11.25,10.68-16.35,5.76-7.31,11.28-15.26,18.53-20.84,18.53-14.28,31.04-33.8,46.52-50.71,15.51-16.94,30.16-34.66,45.17-52.05,14.03-16.25,27.91-32.64,42.16-48.71,4.35-4.91,6.99-10.15,8.32-16.55.66-3.21,3.65-5.88,5.27-8.96,1.91-3.63,4-7.32,4.92-11.23.34-1.43-2.32-3.72-3.85-5.4-5.5-6.01-11.51-11.62-16.57-17.97-6.35-7.97-15.02-10.56-24.31-12.24-3.27-.59-6.59-.96-9.9-1.3-8.65-.89-15.69-4.5-21.66-10.99-7.77-8.44-16.14-16.33-24.21-24.5-1.22-1.24-2.22-2.69-2.98-4.6,14.86,2.98,28.52,9.78,44.01,12.57-2.31-5.22-5.39-9.29-5.65-13.54-.26-4.23,2.31-8.62,3.75-13.29-2.03-.3-3.43-.5-5.79-.84,8.18-.6,5.19-7.12,6.97-10.77,1.96-4.02,2.34-8.78,3.78-13.09,1.73-5.19,3.65-10.35,5.91-15.33.85-1.88,2.64-4.18,4.44-4.66,11.67-3.1,18.64-11.46,23.45-21.5,3.7-7.72,9.88-11.69,16.9-15.29,1.29-.66,2.5-1.9,3.24-3.16,4.28-7.34,8.28-14.75,17.19-17.76,6.93-2.34,13.38-3.13,19.63,1.78,2.57,2.02,5.61,3.45,8.73,5.32,2.74-4.68,5.52-9.01,7.8-13.59.68-1.36.4-3.54-.15-5.09-1.76-4.96-3.84-9.81-5.07-15.64,1.63.77,3.39,1.36,4.88,2.34,10.4,6.89,20.75,13.87,31.12,20.8,6.23,4.17,10.57,9.46,11.09,17.34.79,12,4.61,22.9,11.23,33.09,2.29,3.53,2.24,8.55,3.35,12.87.89,3.47,2.23,6.18,6.74,4.06,1.09-.52,2.71.07,3.1.09Zm-134.49,207.12c17.39-6.45,34.19-12.68,51.42-19.07-8.66-8.51-16.74-16.46-25.03-24.6-4.76,5.52-9.21,11.58-14.57,16.68-7.56,7.19-10.51,16.09-11.82,26.98Zm62.43-262.13c2.26,1.42,3.97,3.24,5.9,3.51,1.97.27,4.24-.79,6.19-1.67.67-.3,1.34-2,1.08-2.74-1.64-4.68-3.53-9.27-5.78-14.99-2.77,5.95-4.96,10.68-7.39,15.9Zm146.26,111.86c2.97-4.34,5.74-8.39,8.51-12.44-.29-.37-.57-.73-.86-1.1-5.99,4.5-12.21,7.89-19.98,3.62-.02.45-.04.91-.05,1.36,3.98,2.74,7.95,5.49,12.39,8.55Zm-62.37-53.8c-1.37,2.61-2.6,4.79-3.58,7.08-.09.21,1.84,1.72,2.05,1.57,1.99-1.47,3.8-3.17,5.98-5.08-1.71-1.38-2.8-2.25-4.44-3.57Z"/>
      <path class="cls-2" d="m296.24,301.22c1.31-10.89,4.26-19.79,11.82-26.98,5.36-5.1,9.81-11.16,14.57-16.68,8.28,8.14,16.37,16.09,25.03,24.6-17.23,6.39-34.03,12.62-51.42,19.07Z"/>
      <path class="cls-2" d="m358.67,39.09c2.43-5.22,4.62-9.95,7.39-15.9,2.25,5.73,4.14,10.31,5.78,14.99.26.74-.41,2.44-1.08,2.74-1.96.88-4.22,1.94-6.19,1.67-1.93-.26-3.64-2.08-5.9-3.51Z"/>
      <path class="cls-2" d="m504.93,150.95c-4.44-3.06-8.41-5.81-12.39-8.55.02-.45.04-.91.05-1.36,7.77,4.27,13.99.88,19.98-3.62.29.37.57.73.86,1.1-2.77,4.05-5.54,8.1-8.51,12.44Z"/>
      <path class="cls-2" d="m442.56,97.15c1.65,1.32,2.73,2.2,4.44,3.57-2.17,1.91-3.99,3.61-5.98,5.08-.2.15-2.14-1.36-2.05-1.57.98-2.29,2.21-4.47,3.58-7.08Z"/>
    </g>
  </g>
</svg>