<?xml version="1.0" encoding="UTF-8" standalone="no"?>
<svg
   width="53.748676mm"
   height="70.695854mm"
   viewBox="0 0 53.748676 70.695854"
   version="1.1"
   xml:space="preserve"
   xmlns="http://www.w3.org/2000/svg"
   xmlns:svg="http://www.w3.org/2000/svg"><g
     transform="translate(-79.072155,-112.61909)"><path
       style="fill:#000000"
       d="m 105.70104,112.62 c -3.70121,0.0382 -6.463063,1.57056 -8.118366,4.5036 -0.897721,1.59067 -0.880111,1.58012 -5.898865,3.42615 -1.74302,0.64113 -3.313414,1.313 -3.490226,1.49293 -0.573392,0.58352 -9.024648,15.27166 -9.094018,15.80524 -0.135345,1.04109 0.154803,1.35964 2.61276,2.87011 3.882549,2.38591 7.298195,4.05692 8.592757,4.20284 1.068958,0.12049 1.190107,0.0684 1.690853,-0.72244 l 0.539502,-0.85162 0.192236,1.28105 c 0.105692,0.7048 0.480327,2.42438 0.832508,3.82096 l 0.640271,2.53938 -4.502568,12.62869 c -2.476268,6.94593 -4.502051,12.93098 -4.502051,13.29996 0,0.91157 1.133079,1.91209 3.629753,3.20446 2.932632,1.51804 6.499909,2.48222 11.319204,3.06027 1.89394,0.22716 10.25882,0.14838 12.43542,-0.1173 6.08889,-0.74322 12.64696,-3.37981 13.75988,-5.53196 0.45411,-0.87814 0.51738,-0.64087 -2.06499,-7.80211 -3.12217,-8.65819 -6.23356,-17.48679 -6.40891,-18.18545 -0.0876,-0.34913 0.0884,-1.57956 0.39119,-2.7342 0.30276,-1.15464 0.6246,-2.72733 0.7152,-3.4954 0.17975,-1.52403 0.48193,-1.96579 0.75551,-1.10381 0.53323,1.68007 2.8623,0.95736 9.23251,-2.86442 3.24211,-1.94509 3.86023,-2.46546 3.86023,-3.25097 0,-0.30021 -1.324,-2.83028 -2.94245,-5.62239 -5.51518,-9.51465 -6.2616,-10.67862 -7.04247,-10.9859 -0.40199,-0.15818 -2.24564,-0.83919 -4.09742,-1.51308 l -3.36724,-1.22525 -1.26297,-1.89394 c -2.00135,-3.0005 -4.53195,-4.2754 -8.40724,-4.2354 z m 0.40566,1.78129 c 0.47237,0.003 0.93729,0.0574 1.45469,0.16484 1.37414,0.28527 1.44839,0.34447 1.72341,1.36581 0.15809,0.58708 0.25002,1.10504 0.20412,1.15084 -0.10922,0.10895 -7.09618,0.28502 -7.09569,0.1788 8.5e-4,-0.18474 0.59683,-2.43241 0.64493,-2.43241 0.0288,0 0.73482,-0.12633 1.56941,-0.28061 0.54669,-0.10107 1.02677,-0.15009 1.49913,-0.14727 z m 5.08445,1.72082 0.61133,0.57413 c 1.16528,1.09473 2.4298,3.96696 3.05046,6.92929 0.32764,1.56378 0.53517,2.90338 0.46147,2.97708 -0.0737,0.0737 -0.82677,-0.10442 -1.6738,-0.39584 -0.84702,-0.29142 -1.67023,-0.52945 -1.82935,-0.52917 -0.15911,2.8e-4 -0.67946,0.57334 -1.15652,1.27331 -0.81899,1.20169 -3.76307,4.31181 -3.76307,3.97547 0,-0.086 0.52625,-1.29004 1.16943,-2.67581 1.98167,-4.26964 2.87388,-7.17397 3.00964,-9.79837 z m -10.51409,0.0258 0.0346,2.05259 c 0.0416,2.46764 0.7901,4.87365 2.89026,9.29194 0.79657,1.6758 1.41273,3.15356 1.36943,3.28352 -0.10462,0.31385 -2.51119,-2.25818 -3.59513,-3.84215 -0.48812,-0.71331 -1.06518,-1.25677 -1.3348,-1.25677 -0.261268,0 -1.153169,0.23323 -1.981792,0.51832 l -1.506885,0.51831 0.168982,-0.98133 c 0.855435,-4.97001 1.46467,-6.65214 3.110921,-8.59018 z M 95.65721,121.02 c 0.11426,0.005 0.09102,0.11844 0.02325,0.34469 -0.07837,0.26164 -0.331647,1.60703 -0.562757,2.98948 -0.231111,1.38245 -0.478547,2.70932 -0.549837,2.94865 -0.177727,0.59669 0.574607,1.28468 1.405082,1.28468 0.376998,0 1.33764,-0.20555 2.134754,-0.45682 l 1.449524,-0.45682 0.949814,1.18442 c 0.52227,0.65145 2.11275,2.38175 3.53467,3.84525 1.58151,1.62777 2.58537,2.87398 2.58537,3.2091 0,0.67845 0.65107,1.25263 1.18701,1.04697 0.48979,-0.18793 0.54866,-2.20093 0.0935,-3.19981 -0.28495,-0.6254 -0.19472,-0.79169 1.26142,-2.3275 0.86252,-0.90971 1.93756,-2.12406 2.389,-2.69855 l 0.82062,-1.04489 1.56786,0.4749 c 3.13977,0.95065 3.56697,0.46297 2.92127,-3.33829 -0.25413,-1.4961 -0.52933,-2.97382 -0.61133,-3.28352 -0.14038,-0.52995 0.0317,-0.49731 2.92799,0.55397 1.74271,0.63255 3.22936,1.33595 3.42769,1.6216 0.19262,0.27743 1.80602,3.00074 3.58532,6.05183 l 3.23493,5.54747 -0.67644,0.5395 c -0.37202,0.29664 -2.52635,1.63199 -4.78783,2.96777 l -4.11189,2.4288 v -2.32803 c 0,-1.86873 0.0974,-2.45305 0.49299,-2.95951 0.85588,-1.09589 1.62783,-2.83675 1.79319,-4.04316 0.13661,-0.99671 0.0813,-1.20701 -0.38344,-1.45572 -0.63326,-0.3389 -1.37356,0.20989 -1.37356,1.01802 0,0.68534 -0.64736,2.11548 -1.43661,3.17345 -0.5195,0.69637 -0.68061,1.22678 -0.68161,2.24896 -0.002,1.89751 -0.96896,8.35661 -1.62626,10.8629 -0.30532,1.16417 -0.6089,2.47386 -0.6749,2.91042 -0.11056,0.73175 1.72563,6.14303 7.72201,22.75416 1.33376,3.69477 1.38331,3.51943 -1.40612,4.98523 -2.57072,1.35088 -5.34184,2.20222 -8.6434,2.65565 -9.11755,1.2522 -18.010584,0.274 -23.894142,-2.62826 -1.354712,-0.66826 -2.519543,-1.36187 -2.588473,-1.54151 -0.06893,-0.17964 0.6384,-2.46258 1.571997,-5.07359 4.448858,-12.44222 6.806358,-18.96719 7.155119,-19.80189 0.34255,-0.81984 0.331502,-1.07646 -0.111104,-2.49856 -1.012124,-3.25196 -2.280553,-11.6253 -1.973006,-13.02556 0.12227,-0.55669 -0.01804,-0.92421 -0.613916,-1.60817 -0.978128,-1.12271 -1.544213,-2.22701 -1.776636,-3.46594 -0.118116,-0.62961 -0.364277,-1.03193 -0.696598,-1.1374 -0.611619,-0.19412 -1.282609,0.29261 -1.282609,0.93018 0,0.82864 1.017921,3.43022 1.684651,4.3062 0.560545,0.73647 0.668084,1.19857 0.742074,3.17758 0.04762,1.27365 0.03501,2.31544 -0.02842,2.3151 -0.100505,-5.4e-4 -9.239837,-5.24832 -9.513631,-5.46271 -0.05712,-0.0447 0.05565,-0.27356 0.25063,-0.5085 0.194984,-0.23494 1.849081,-2.99631 3.675745,-6.13657 l 3.321244,-5.70973 2.116667,-0.72089 c 1.164167,-0.39665 2.572835,-0.91814 3.130558,-1.15859 0.482285,-0.20793 0.734267,-0.31148 0.848527,-0.30644 z m 17.1049,13.52062 c -1.20721,0 -1.72203,0.12522 -2.17506,0.52917 -1.8247,1.62702 -1.50635,4.47616 0.61701,5.52318 1.79705,0.88611 3.84764,0.1698 4.58836,-1.603 0.52342,-1.25272 0.282,-2.51245 -0.69092,-3.60133 -0.69282,-0.77539 -0.89368,-0.84802 -2.33939,-0.84802 z m 0.24236,1.57149 c 0.53658,0.0665 1.04018,0.3932 1.27899,1.02526 0.22267,0.58932 -0.0739,1.4672 -0.61856,1.83089 -0.91989,0.61422 -2.5399,-0.16695 -2.5399,-1.22473 0,-1.12977 0.98518,-1.74231 1.87947,-1.63142 z m 17.4656,1.20147 c 0.0659,4.9e-4 0.11415,0.0155 0.1478,0.0434 0.19308,0.16024 0.35088,0.38653 0.35088,0.50333 0,0.1168 -0.89764,0.75763 -1.99471,1.42368 -1.09708,0.66605 -3.21043,1.85881 -4.69635,2.65049 -2.11303,1.12579 -2.80338,1.38152 -3.16932,1.17409 -0.38836,-0.22013 0.34991,-0.75647 4.34495,-3.15433 3.22924,-1.93821 4.55542,-2.64407 5.01675,-2.64067 z m -48.988739,0.005 c 0.108825,0 1.73356,0.92274 3.610116,2.05052 1.876557,1.12779 3.917732,2.27709 4.536157,2.55385 0.618424,0.27676 1.124479,0.66372 1.124479,0.8599 0,0.50481 -0.467912,0.44187 -1.984375,-0.26665 -1.035522,-0.48382 -7.417074,-4.00116 -7.745263,-4.26899 -0.139523,-0.11386 0.263062,-0.92863 0.458886,-0.92863 z m 22.288559,6.23114 v 5.35627 h -5.356259 v 4.17855 h 5.356259 v 5.35626 h 4.17856 v -5.35626 h 5.35626 v -4.17855 h -5.35626 v -5.35627 z m -10.6009,19.58744 c -0.506693,-0.009 -0.662101,0.0982 -0.871265,0.31471 -0.4617,0.47791 -1.6646,7.32669 -1.370459,7.80262 0.08313,0.13451 1.179144,1.00365 2.435511,1.93167 1.256367,0.92803 2.460327,1.6915 2.675805,1.6955 0.590234,0.0119 5.112418,-1.61572 5.520598,-1.98696 0.21845,-0.19867 0.49986,-1.63994 0.72812,-3.72845 0.20466,-1.87261 0.42906,-3.55669 0.49816,-3.74189 0.24292,-0.65097 -0.85549,-1.38286 -2.07481,-1.38286 -0.6346,0 -2.687675,-0.23518 -4.562514,-0.52297 -1.614488,-0.24786 -2.472453,-0.37266 -2.979146,-0.38137 z m 26.23096,0.0693 c -0.53775,-0.0449 -1.70916,0.0869 -3.90933,0.42529 -1.45521,0.2238 -3.25757,0.40739 -4.00544,0.40825 -0.90471,0.001 -1.5463,0.1565 -1.91667,0.46457 l -0.55656,0.46302 0.47594,3.89485 c 0.2616,2.14225 0.55711,3.97654 0.65681,4.07624 0.0997,0.0997 1.28378,0.57256 2.63136,1.05058 1.34758,0.47802 2.62902,0.8757 2.84789,0.8847 0.54363,0.0213 5.29063,-3.36396 5.29063,-3.7729 0,-0.73957 -1.04243,-7.66116 -1.17357,-7.79229 -0.0531,-0.0531 -0.16181,-0.0873 -0.34106,-0.10231 z m -1.30897,1.85518 c 0.11859,-7e-5 0.18479,0.009 0.18604,0.0289 0.005,0.078 0.1775,1.32338 0.38395,2.76779 0.20643,1.44441 0.32044,2.71459 0.25374,2.82256 -0.0667,0.10797 -0.83297,0.68236 -1.70326,1.27641 -0.87029,0.59406 -1.67308,1.07077 -1.78387,1.05937 -0.77095,-0.0791 -3.5952,-1.25929 -3.76928,-1.5751 -0.11784,-0.21378 -0.29944,-1.54018 -0.40359,-2.94762 l -0.18965,-2.55902 1.28674,-0.15761 c 0.70768,-0.0868 2.32854,-0.30907 3.60185,-0.49351 0.95497,-0.13845 1.78158,-0.22199 2.13733,-0.22221 z m -23.86624,0.17725 c 0.317148,0.009 0.730915,0.0486 1.165303,0.11575 1.274286,0.19687 3.240004,0.39304 5.251877,0.524 0.21636,0.0141 0.0696,2.53648 -0.28164,4.84364 -0.14569,0.95695 -0.21114,1.01069 -1.864483,1.52135 -0.942632,0.29115 -1.90989,0.52328 -2.149223,0.51728 -0.340211,-0.009 -2.826362,-1.63006 -3.437,-2.24069 -0.159386,-0.15939 0.514622,-4.97154 0.730705,-5.21673 0.0468,-0.0531 0.267312,-0.0738 0.584461,-0.0646 z" /></g></svg>
