<?xml version="1.0" encoding="UTF-8" standalone="no"?>
<svg
   width="49.955002mm"
   height="67.208321mm"
   viewBox="0 0 49.955002 67.208321"
   version="1.1"
   xml:space="preserve"
   xmlns="http://www.w3.org/2000/svg"
   xmlns:svg="http://www.w3.org/2000/svg"><path
     style="fill:#000000;stroke-width:1.1468"
     d="M 25.092923,1.2931794e-4 C 24.620563,-0.00287068 24.140483,0.04632932 23.593793,0.14740932 c -0.83459,0.15428 -1.54061,0.2806 -1.56941,0.2806 -0.0481,0 -0.64407,2.24766998 -0.64492,2.43240998 -4.9e-4,0.10622 6.98647,-0.0699 7.09569,-0.1788 0.0459,-0.0458 -0.046,-0.56375 -0.20413,-1.15083 -0.27502,-1.02133998 -0.34926,-1.08053998 -1.7234,-1.36580998 -0.5174,-0.10744 -0.98233,-0.16185 -1.4547,-0.16485000206 z m 5.08445,1.72082998206 -0.12041,2.33009 c -0.13576,2.6244 -1.02796,5.52872 -3.00963,9.7983597 -0.64318,1.38577 -1.16944,2.58981 -1.16944,2.67581 0,0.33634 2.94409,-2.77378 3.76308,-3.97547 0.47706,-0.69997 0.9974,-1.27303 1.15651,-1.27331 0.15912,-2.8e-4 0.98233,0.23775 1.82935,0.52917 0.84703,0.29142 1.6001,0.46954 1.6738,0.39584 0.0737,-0.0737 -0.13383,-1.4133 -0.46147,-2.9770797 -0.62066,-2.96233 -1.88518,-5.83456 -3.05046,-6.92929 z m -10.51409,0.0258 -0.84439,0.99426 c -1.64625,1.93804 -2.25549,3.62016 -3.11092,8.5901697 l -0.16899,0.98134 1.50689,-0.51832 c 0.82863,-0.28509 1.72053,-0.51831 1.98179,-0.51831 0.26962,0 0.84668,0.54346 1.3348,1.25677 1.08394,1.58397 3.49051,4.15599 3.59513,3.84214 0.0433,-0.12996 -0.57285,-1.60772 -1.36942,-3.28352 -2.10016,-4.4182897 -2.84867,-6.8242997 -2.89027,-9.2919397 z m -5.01985,4.87206 c -0.11426,-0.005 -0.36623,0.0985 -0.84852,0.30644 -0.55772,0.24045 -1.9664,0.76193 -3.13056,1.15858 l -2.1166703,0.72089 -3.321244,5.7097297 c -1.826664,3.14026 -3.480761,5.90164 -3.675745,6.13658 -0.142173,0.17131 -0.238654,0.33776 -0.259415,0.43356 -0.52324799,0.89189 -1.38706999,2.67634 -1.28260899,2.76159 0.328189,0.26783 6.70974099,3.78517 7.74526299,4.26899 1.51647,0.70852 1.76126,0.71947 1.98438,0.26665 0.5251803,-1.06583 0.8688403,-1.53404 1.0330103,-1.78387 8.2e-4,2.2e-4 0.0419,0.0243 0.0424,0.0243 0.009,5e-5 1.1739,-1.40562 2.00298,-2.42518 0.26491,3.08452 1.17518,8.47102 1.94148,10.93319 0.44261,1.4221 0.45366,1.67871 0.11111,2.49855 -0.34877,0.8347 -2.70627,7.35967 -7.1551213,19.80189 -0.933597,2.61101 -1.640927,4.89396 -1.571997,5.0736 0.06893,0.17964 1.233783,0.87324 2.588468,1.5415 5.8835603,2.90226 14.7766003,3.88047 23.8941503,2.62827 3.30156,-0.45343 6.07268,-1.30478 8.6434,-2.65566 2.78943,-1.4658 2.73988,-1.29045 1.40612,-4.98522 -5.99638,-16.61113 -7.83257,-22.02242 -7.72201,-22.75417 0.066,-0.43656 0.36957,-1.74624 0.67489,-2.91041 0.4654,-1.77456 1.07235,-5.48857 1.39578,-8.20415 0.70433,1.19278 2.98901,3.4266 3.07165,3.54293 0.2436,0.34292 1.05629,-0.0483 3.16932,-1.17409 1.48592,-0.79168 3.59927,-1.98443 4.69635,-2.65048 1.09707,-0.66605 1.99471,-1.30689 1.99471,-1.42369 0,-0.1168 -0.1578,-0.34309 -0.35088,-0.50333 -0.0326,-0.0271 -1.08986,-1.90263 -1.2144,-2.01744 l 0.0289,-0.0227 -3.23494,-5.54747 c -1.7793,-3.05109 -3.39269,-5.7743897 -3.58531,-6.0518197 -0.19833,-0.28565 -1.68499,-0.98906 -3.4277,-1.62161 -2.89629,-1.05128 -4.27519,-1.10437 -4.13481,-0.57442 0.082,0.3097 0.54129,1.72605 0.79542,3.2221497 0.6457,3.80126 0.52533,3.16395 -1.46898,2.52012 l -2.3656,-0.69991 -1.37289,1.61763 c -0.45144,0.57449 -1.81285,2.03428 -2.67537,2.94399 -1.45614,1.53581 -0.33955,2.00893 -0.0546,2.63433 0.45516,0.99888 0.41654,1.31414 -0.073,1.50207 -0.53594,0.20566 -0.83927,-0.38896 -0.83927,-1.06741 0,-0.33512 -0.86069,-0.88589 -2.4422,-2.51366 -1.42192,-1.4635 -2.95102,-2.92788 -3.47329,-3.57933 l -1.33846,-1.51169 -2.10406,0.57954 c -0.79712,0.25127 -1.5123,0.57954 -1.8893,0.57954 -0.83047,0 -0.35555,-0.83116 -0.17782,-1.42785 0.0713,-0.23933 0.25737,-1.46394 0.48848,-2.8463897 0.23111,-1.38245 0.38209,-2.54374 0.46049,-2.80538 0.0677,-0.22625 -0.74764,0.35577 -0.86194,0.35077 z m 8.11269,22.5298897 h 4.17855 v 5.35626 h 5.35626 v 4.17856 h -5.35626 v 5.35626 h -4.17855 v -5.35626 h -5.35627 v -4.17856 h 5.35627 z m -10.60091,19.58743 c 0.5067,0.009 1.36466,0.13352 2.97915,0.38138 1.87484,0.28779 3.92791,0.52296 4.56251,0.52296 1.21932,0 2.31773,0.73189 2.07481,1.38286 -0.0691,0.1852 -0.2935,1.86928 -0.49816,3.74189 -0.22826,2.08851 -0.50967,3.52979 -0.72812,3.72846 -0.40818,0.37124 -4.93037,1.99886 -5.5206,1.98696 -0.21548,-0.004 -1.41943,-0.76748 -2.6758,-1.69551 -1.25637,-0.92802 -2.3524103,-1.79715 -2.4355103,-1.93166 -0.29414,-0.47593 0.9087603,-7.32472 1.3704603,-7.80263 0.20916,-0.21651 0.36457,-0.32371 0.87126,-0.31471 z m 25.99893,0.061 c 0.0877,10e-6 0.16481,0.003 0.23203,0.008 0.17925,0.015 0.28796,0.0492 0.34106,0.10232 0.13114,0.13113 1.17358,7.05272 1.17358,7.79229 0,0.40894 -4.74701,3.7942 -5.29064,3.7729 -0.21887,-0.009 -1.50031,-0.40668 -2.84789,-0.8847 -1.34758,-0.47802 -2.53166,-0.95088 -2.63136,-1.05058 -0.0997,-0.0997 -0.39521,-1.93399 -0.65681,-4.07624 l -0.47594,-3.89485 0.55656,-0.46302 c 0.37037,-0.30807 1.01197,-0.46358 1.91668,-0.46458 0.74787,-8.6e-4 2.55023,-0.18444 4.00544,-0.40824 1.65012,-0.2538 2.72173,-0.39131 3.38119,-0.4253 0.1099,-0.006 0.20835,-0.008 0.2961,-0.008 z m -0.52751,1.18832 c -0.40881,2.5e-4 -1.3588,0.0962 -2.45618,0.25528 -1.4632,0.21195 -3.32556,0.46767 -4.13877,0.56741 l -1.47897,0.18087 0.21807,2.9409 c 0.11992,1.61732 0.32813,3.14122 0.46354,3.38688 0.20004,0.3629 3.4456,1.71932 4.33152,1.81022 0.12732,0.0131 1.04993,-0.53484 2.05,-1.21749 1.00008,-0.68264 1.88085,-1.34251 1.9575,-1.46658 0.0766,-0.12407 -0.0548,-1.58392 -0.29197,-3.24373 -0.23724,-1.65981 -0.65474,-3.21376 -0.65474,-3.21376 z m -25.18584,0.42203 c -0.22708,0.005 -0.37936,0.0293 -0.41961,0.0749 -0.2478,0.28119 -1.02046,5.7998 -0.83768,5.98258 0.70028,0.70027 3.55122,2.55955 3.94137,2.56987 0.27446,0.007 1.38396,-0.25936 2.46496,-0.59325 1.89605,-0.58563 1.97078,-0.64717 2.13785,-1.7446 0.40281,-2.64584 0.5711,-5.53853 0.32298,-5.5547 -2.30721,-0.15019 -4.56155,-0.37522 -6.02289,-0.60099 -0.49816,-0.077 -0.97265,-0.12249 -1.33635,-0.13281 -0.0909,-0.002 -0.17494,-0.003 -0.25063,-0.001 z" /></svg>
