<svg xmlns="http://www.w3.org/2000/svg" xml:space="preserve" width="179.404" height="104.001" viewBox="0 0 47.467 27.517"><path d="M18.633 27.173c-3.185-.434-5.85-1.212-7.932-2.316-1.774-.94-2.539-1.971-2.54-3.424l-.001-.992h31.22v1.038c0 1.92-1.829 3.377-5.82 4.64-4.346 1.373-9.767 1.756-14.927 1.054M8.16 17.155c0-1.225.072-2.414.16-2.643.087-.229.593-.53 1.124-.668 2.153-.564 9.775-.885 17.103-.72 7.884.177 11.58.475 12.192.983.277.23.377.97.377 2.794v2.481H8.16Zm-2.646-2.902c-2.658-1.111-4.157-1.98-4.86-2.815C-.496 10.07-.183 9.18 2.02 7.553 6.8 4.027 18.448-.019 23.771 0c6.599.023 21.933 6.157 23.492 9.397.285.593.276.835-.055 1.476-.498.963-2.5 2.26-4.975 3.223l-1.907.742-.472-.776c-.26-.427-.74-.888-1.068-1.025-2.944-1.233-24.696-1.369-29.493-.185-1.027.254-1.34.473-1.662 1.167-.219.47-.457.852-.53.849-.072-.003-.787-.28-1.587-.615m17.279-5.086c.82-.391.96-.391 1.715 0 1.137.588 1.184.56.989-.593-.144-.853-.062-1.149.506-1.824.373-.443.678-.878.678-.966s-.415-.16-.921-.16c-.811 0-.986-.129-1.474-1.084-.61-1.195-.635-1.193-1.266.07-.295.59-.659.908-1.102.96-1.364.164-1.422.27-.678 1.246.574.753.67 1.091.529 1.85-.2 1.063-.177 1.074 1.024.501"/></svg>