<svg xmlns="http://www.w3.org/2000/svg" xml:space="preserve" width="769.723" height="475.03" viewBox="0 0 203.656 125.685"><path d="M118.24 123.172c-5.278-1.383-14.035-4.4-19.46-6.702-12.615-5.355-33.166-15.977-31.081-16.065.877-.035 10.54-1.606 21.471-3.486 21.965-3.778 42.33-8.649 53.259-12.737l7.138-2.671 7.848 3.593c4.317 1.977 15.655 6.441 25.195 9.922l17.345 6.329-7.292 5.387c-9.717 7.178-24.285 14.399-34.273 16.987-10.837 2.808-28.236 2.567-40.15-.557m69.529-7.91c-1.343-.851-.66-1.84 2.707-3.922 2.476-1.53 5.956-4.33 7.733-6.221 4.152-4.42 5.447-4.34 5.447.336 0 7.19-10.14 13.45-15.887 9.807zM1.895 102.87C-.096 95.577-.678 72.18.925 63.883 5.06 42.477 19.747 23.124 38.82 13.95c9.49-4.565 23.366-8.56 24.79-7.137.37.372-.026 2.997-.886 5.834-2.417 7.987-3.209 46.489-1.394 67.777 1.233 14.462 1.244 19.19.046 19.93-1.665 1.03-24.317 3.438-45.73 4.862-12.756.848-12.888.825-13.754-2.347zm62.71-15.616c-1.808-17.821-1.385-61.746.695-72.064 1.393-6.911 1.48-9.46.335-9.841-2.21-.737-1.912-4.317.359-4.317 1.047 0 2.858-.367 4.026-.815 1.493-.572 2.123-.03 2.123 1.828 0 2.311 1.253 2.756 9.985 3.548 34.374 3.114 56.583 22.215 63.238 54.386 1.133 5.48 1.88 12.123 1.659 14.761-.38 4.518-.833 4.942-7.784 7.277-12.86 4.32-32.257 8.911-52.083 12.328-10.563 1.82-19.721 3.309-20.351 3.309s-1.62-4.68-2.201-10.4z"/></svg>