<svg xmlns="http://www.w3.org/2000/svg" xml:space="preserve" width="507.831" height="499.86" viewBox="0 0 134.364 132.255"><path d="M90.113 129.164c0-2.626-.391-3.83-1.842-5.665-1.013-1.281-4.821-7.324-8.462-13.428-6.938-11.63-13.927-21.26-15.43-21.26-2.357 0-15.094 16.173-27.277 34.635-.609.922-1.308 3.018-1.554 4.657-.245 1.64-.75 2.88-1.119 2.756-.37-.123-5.777-3.96-12.017-8.526l-11.344-8.303 1.516-1.62c2.725-2.915 3.496-3.008 6.996-.84 1.774 1.099 4.182 2.187 5.351 2.418 1.955.385 2.231.211 3.437-2.166 3.189-6.288 20.892-50.801 20.892-52.532 0-1.675-1.21-2.14-11.05-4.242-10.75-2.298-15.166-4.543-20.715-10.537-4.677-5.052-7.391-6.518-12.158-6.57-1.504-.015-2.933-.227-3.175-.47-.828-.828 1.048-2.238 2.978-2.238 2.41 0 2.503-1.154.165-2.042-2.57-.978-5.676-3.328-5.269-3.987.194-.313 1.327-.266 2.52.105 1.192.371 2.77.849 3.507 1.061.878.254.115-.918-2.216-3.404C1.892 24.882.481 22.87.712 22.496c.497-.804 1.075-.499 4.865 2.57 1.575 1.276 2.989 2.194 3.141 2.042s-.608-1.702-1.69-3.442c-3.785-6.08-1.965-6.976 2.383-1.174l2.68 3.575.199-4.124c.11-2.267.474-4.123.81-4.123.56 0 .893.997 2.357 7.032l.487 2.01.921-2.177c.507-1.197 1.416-2.177 2.02-2.177.944 0 1.038.572.67 4.088-.415 3.976-.368 4.142 1.747 6.131 1.195 1.125 4.087 2.944 6.425 4.044 6.143 2.887 11.229 3.109 20.287.882 3.92-.964 8.664-1.827 10.544-1.919 1.879-.091 3.419-.262 3.422-.378.003-.117-.82-1.292-1.826-2.612-1.617-2.12-1.87-3.145-2.176-8.829-.43-7.986-1.772-10.541-6.866-13.08-6.873-3.425-12.243-1.37-15.634 5.98l-1.545 3.35-.038-3.873c-.065-6.516 2.848-11.216 8.922-14.398 4.886-2.56 11.851-2.522 17.294.094 3.566 1.714 9.91 7.654 9.91 9.28 0 .368 1.32-.798 2.933-2.592 11.277-12.543 31.636-7.829 33.04 7.65.199 2.194.066 4.517-.294 5.161-.543.969-.787.652-1.412-1.827-.91-3.615-4.932-7.58-8.336-8.219-7.225-1.355-14.546 5.106-14.546 12.838 0 3.65-2.022 8.332-4.411 10.21-2.06 1.621-2.038 2.083.104 2.083.946 0 4.906 1.055 8.8 2.344 11.238 3.722 19.1 3.006 26.666-2.428 3.054-2.193 3.08-2.243 2.984-5.919-.131-5.054-.088-5.382.71-5.382.384 0 1.23 1.253 1.88 2.783l1.182 2.784.827-3.698c.455-2.034 1.275-4.266 1.822-4.96.902-1.145.977-.843.81 3.249l-.186 4.51 3.459-3.749c1.918-2.08 3.783-3.548 4.187-3.297.877.542.318 1.702-2.568 5.327-1.145 1.438-1.938 2.758-1.763 2.933s1.787-.625 3.583-1.777c5.723-3.672 6.657-2.417 1.447 1.945-1.856 1.554-3.26 2.942-3.118 3.083s1.548-.198 3.125-.754c3.508-1.238 3.369-1.24 3.369.03 0 .618-1.497 1.703-3.684 2.67-2.026.896-3.683 1.772-3.683 1.946 0 .175 1.225.648 2.722 1.05 3.505.945 3.078 2.197-.805 2.36-5.03.213-7.95 1.602-12.66 6.026-6.79 6.378-11.454 8.335-23.978 10.065-4.294.593-8.183 1.39-8.644 1.771-.46.381-.837 1.542-.837 2.58 0 2.281 14.126 49.748 15.725 52.84 1.001 1.936 1.36 2.134 3.193 1.767 1.137-.227 3.678-1.229 5.648-2.226l3.582-1.814 2.132 2.133c1.173 1.172 1.998 2.245 1.832 2.383-1.735 1.45-22.634 14.8-23.539 15.036-1.042.273-1.206-.137-1.206-3.019"/></svg>