<?xml version="1.0" encoding="UTF-8" standalone="no"?>
<svg
   width="74.940514mm"
   height="93.955399mm"
   viewBox="0 0 74.940514 93.955399"
   version="1.1"
   xml:space="preserve"
   xmlns="http://www.w3.org/2000/svg"
   xmlns:svg="http://www.w3.org/2000/svg"><g
     transform="translate(-65.854384,-72.334863)"><path
       style="fill:#000000"
       d="m 79.531126,166.15258 c -0.512941,-2.38494 3.284666,-4.37754 0.01494,-6.06404 -2.562401,-3.74002 3.092071,-2.16671 3.938838,-3.55906 1.131763,-3.54386 -1.472136,-6.25698 -0.453401,-9.80269 -0.213061,-2.31291 1.807012,-9.65026 0.715833,-9.59127 -1.554658,2.39339 -4.439521,4.29156 -5.149805,6.92866 -0.502117,4.79273 -5.751637,5.42154 -8.573358,1.83142 -3.700274,-1.82654 -6.298803,-5.81113 -1.744271,-8.48284 3.661534,-1.79477 4.534934,-7.30151 7.643951,-10.18446 2.513798,-3.48473 5.504429,-6.81956 7.839085,-10.30574 2.713294,-2.86156 7.446837,-2.45538 9.70894,-5.68674 2.590747,-0.90746 2.681729,-2.04704 0.499149,-3.45698 -2.362918,-1.28833 -1.766908,-5.38468 -4.372422,-5.88836 -6.426662,-1.44234 -13.71201,-4.140255 -16.350803,-10.749418 -1.972926,-3.905738 0.6905,-8.92863 5.224612,-8.846707 4.415918,-0.215635 8.20567,2.414932 12.177732,3.880125 1.782652,-4.141512 3.103283,-8.883887 5.705871,-12.767178 2.077806,-2.513863 5.114983,0.03404 7.319143,1.136599 2.22519,-1.191887 5.55524,-3.707271 7.29827,-0.531907 2.35211,4.377002 3.82327,9.264791 5.30897,13.936069 5.13068,-1.843271 9.80343,-6.780699 15.72472,-5.152005 4.68083,1.621101 3.72382,7.596076 1.36167,10.79568 -3.08652,5.319288 -9.67715,6.619682 -15.16034,8.082722 -3.40239,0.83592 -4.00912,5.98047 -6.7958,8.08654 2.64897,2.58118 5.64039,4.75297 9.33488,5.76929 3.68691,1.98714 5.45579,6.31583 8.28004,9.35926 3.0698,3.90504 5.91396,7.9807 8.27648,12.35138 3.3485,0.43313 5.37261,5.90508 0.94554,7.47082 -2.99132,3.09036 -8.0834,6.1236 -10.0569,0.32451 0.46931,-2.81056 -4.28155,-6.57361 -5.40835,-7.46364 0.19201,4.59769 1.41406,9.17607 1.13721,13.77253 -2.34848,1.41766 0.9145,5.32131 -0.99863,6.53749 -5.19667,1.60095 -10.78244,1.0181 -16.03584,2.30006 -4.08873,0.57727 -8.029886,-0.59157 -12.047851,-0.95169 -2.62333,-1.01869 -2.974377,1.75671 -4.590364,3.17835 -2.655003,2.75505 -6.916063,4.37963 -10.717743,3.74322 z m 28.915804,-8.07132 c 1.1305,-3.17077 1.19726,-10.14159 -4.03042,-8.94442 -1.54644,0.24222 -3.58848,-0.69024 -4.583023,0.8938 -1.605711,1.01024 -0.642623,3.08501 -0.899083,4.65378 -1.082252,5.46102 5.823966,3.97139 9.077366,3.71223 z m -7.59865,-0.22862 c -2.512413,-3.24401 -1.073457,-9.84493 4.27746,-7.91843 4.45433,-1.30098 4.01948,7.04271 1.51858,8.14088 -1.92781,0.0527 -3.88983,0.10943 -5.79604,-0.22245 z m 15.01896,-6.87357 c 1.70372,-0.73563 6.46168,0.47056 6.509,-1.64831 0.87779,-3.83795 -3.15266,-1.20039 -5.17915,-1.53073 -2.9538,0.83864 -5.22894,-0.0177 -4.63712,-3.29587 3.01024,-0.35735 6.12193,-0.40903 8.98996,-1.44901 -0.42624,-4.14414 -0.38608,-8.44815 -1.85659,-12.37878 -0.9479,-4.31351 -0.53658,-8.86877 0.96189,-13.01016 -1.53854,-0.96175 -6.80356,-4.40953 -5.12113,-0.29726 -1.09321,5.75319 -3.74926,11.21964 -3.49502,17.20229 -0.0726,5.18789 -0.14348,10.39126 0.16636,15.57035 -2.05965,-3.15729 -0.52663,-8.49388 -0.93524,-12.47946 -0.11389,-5.69203 0.70166,-11.34584 2.6606,-16.70373 0.65088,-2.98426 -1.34634,3.17109 -1.62652,4.32839 -1.93781,7.9504 -2.18414,16.26401 -1.80439,24.41191 -0.61591,3.29705 3.55407,0.84195 5.36733,1.28037 z m -19.991102,-0.51526 c 0.624536,-7.90211 0.46256,-16.01068 -1.441668,-23.73858 -1.304848,-1.63264 -1.677123,-6.31534 -2.835013,-6.63888 0.364196,2.30204 1.889815,6.20999 1.712051,7.56621 -2.263703,-2.06697 -0.631459,-9.72384 -4.848443,-8.22326 0.128278,4.14715 2.10917,8.06329 1.610323,12.28858 0.688852,3.34475 -1.681061,8.66675 2.235348,10.27403 2.759092,1.99249 -0.311977,7.40406 2.514788,8.85969 0.377047,0.1613 0.887201,0.006 1.052614,-0.38779 z m -3.027646,-2.27419 c -1.685292,-0.47782 -5.495255,0.0676 -1.653646,0.11703 0.546216,-0.0606 1.119001,0.0497 1.653646,-0.11703 z M 104.2876,135.07534 c -0.13365,-4.13818 0.2704,-8.58779 -0.36754,-12.53891 -0.37865,7.93644 -0.18894,15.91017 -0.007,23.85625 0.39537,1.08536 0.28266,-4.12905 0.34756,-5.73293 0.0183,-1.86141 0.0255,-3.72292 0.0273,-5.58441 z m -11.968275,11.04763 c -1.049411,-2.70642 -5.59799,0.81058 -1.543405,0.62684 0.40292,-0.10777 1.696599,0.26085 1.543405,-0.62684 z m 8.786375,-0.71761 c 0.36757,-7.50584 0.51732,-15.03714 0.37796,-22.55028 -3.557471,-0.92584 -2.406672,6.472 -2.145348,9.19922 0.544073,4.82487 0.533111,9.69382 0.835838,14.52463 0.66664,0.56714 0.86037,-0.86725 0.93155,-1.17357 z m 18.86605,1.04558 c 3.53537,-0.0803 1.07494,-2.67126 -1.23155,-1.38043 -1.9049,-0.4649 -7.31975,1.43108 -2.75147,1.6793 1.33199,-0.016 2.66337,-0.11793 3.98302,-0.29887 z m -13.00683,-6.64311 c -0.2232,-4.42234 1.06567,-8.66362 1.80909,-12.97631 -1.53397,-1.24118 -4.71085,-6.1405 -3.51538,-2.0421 2.24727,1.30916 -1.90311,2.77455 -0.5034,5.25977 -0.6212,2.53371 0.7074,4.6089 1.04791,6.3656 -1.97896,0.80139 -1.55003,5.51743 0.65534,6.01167 -1.71416,0.55073 -2.35912,3.56165 -0.0896,3.87555 0.70519,-2.04983 0.43302,-4.3501 0.59607,-6.49418 z m -30.520594,5.09796 c -2.023246,-1.59155 -6.408107,-5.07545 -7.255626,-4.95586 1.060963,1.89934 5.982655,3.56783 3.224805,4.34921 1.240648,-0.0164 3.073502,1.0384 4.030821,0.60665 z m 62.011174,-2.87314 c 2.01118,-2.11305 -2.15994,-3.3349 -3.131,-0.57969 -1.99862,1.09809 -3.50596,3.6108 -0.22039,1.30436 3.9694,-2.68247 -0.61718,0.26408 -0.56755,2.16662 1.53391,-0.53012 2.7409,-1.8176 3.91894,-2.89129 z m -6.31826,2.07436 c -0.27395,-0.60941 -1.10441,0.92121 0,0 z m -52.782497,-8.1113 c 2.060029,-2.32972 5.126318,-8.59713 3.074247,-10.22141 -2.771442,3.85852 -5.995502,7.67116 -7.515719,12.2189 -0.05441,3.11749 1.209908,4.18579 2.437029,0.93654 0.660507,-0.9832 1.329166,-1.96092 2.004443,-2.93403 z m 55.297907,3.83344 c 1.85526,-1.78484 -1.43182,0.12509 -0.748,-0.25554 -2.81623,-1.93635 4.18996,-0.19196 1.03622,-3.09876 -3.37015,-5.96422 -7.76517,-11.25144 -11.79758,-16.76761 -1.99124,4.87592 1.49288,9.61795 3.39918,13.92148 1.58116,2.96229 3.60019,7.09341 6.92237,6.35849 0.75655,0.19129 -2.59587,2.17228 0.2482,0.67751 l 0.43085,-0.37248 0.50877,-0.46305 z m -23.45276,-18.2809 c 1.25114,-3.04742 4.18938,-8.46574 -0.31681,-10.02558 -0.86913,1.04416 -5.3087,3.26458 -5.10369,4.75407 1.46245,2.31189 2.84038,4.68128 4.40589,6.92515 0.39922,-0.51195 0.69005,-1.09484 1.01461,-1.65364 z m -1.18482,-0.34396 c -0.43686,-1.13603 -4.98127,-6.88501 -1.78987,-3.53521 0.0192,0.86919 3.23182,3.27686 1.78987,3.53521 z m -10.358766,-2.78424 c 1.417836,-1.68945 3.183996,-3.64787 -0.326893,-3.61366 -4.574698,-2.13196 -4.057095,9.06367 -0.747905,3.51289 1.529804,-2.22487 2.283594,-2.05738 0.457031,0.27485 -1.383122,1.47295 -2.035014,3.28618 -0.05361,0.70181 l 0.332137,-0.42538 z m 22.254726,-0.11295 c -1.24363,1.76551 -0.40971,2.37035 0,0 z m 9.27543,-24.571049 c 3.07201,-2.796147 3.83747,-10.708992 -2.25271,-9.291836 -4.04396,0.389168 -7.34989,3.255508 -10.95447,4.92717 -7.2548,4.14834 -16.50759,4.346848 -23.964505,0.589774 -2.010154,-0.760944 -7.380392,-3.49851 -3.223611,-0.4019 7.011937,3.699052 15.504726,5.978884 23.273606,3.331188 4.96661,-1.398866 9.68309,-4.203772 14.92587,-4.2903 4.23228,0.119647 0.63307,5.684742 1.39722,6.060405 l 0.35012,-0.380085 z M 109.82693,90.25178 c 5.44451,-0.200375 -5.21825,-3.493186 -4.32049,0.406364 1.45185,0.04211 2.9002,-0.09697 4.32049,-0.406364 z m 4.71739,-1.85921 c -1.57369,-4.785781 -2.97158,-9.723368 -5.42628,-14.140517 -2.6168,2.777854 -6.80001,2.850146 -9.735298,0.0019 1.167288,1.517337 2.234508,3.729181 0.107741,1.112278 -2.467884,-2.406309 2.120427,2.863005 -0.93319,3.763615 -1.035145,2.50089 -2.145277,6.154043 -1.567462,8.487072 5.811929,0.122111 11.691179,-0.279032 17.414019,0.881485 l 0.14047,-0.105856 z" /></g></svg>
