<?xml version="1.0" encoding="UTF-8" standalone="no"?>
<svg
   width="109.89546mm"
   height="65.549988mm"
   viewBox="0 0 109.89546 65.549988"
   version="1.1"
   xml:space="preserve"
   xmlns="http://www.w3.org/2000/svg"
   xmlns:svg="http://www.w3.org/2000/svg"><g
     transform="translate(-49.91175,-112.30788)"><path
       style="fill:#000000"
       d="m 64.868545,177.39544 c -6.947591,-0.98538 -13.325957,-6.08904 -14.748855,-13.11259 -1.272803,-9.58853 3.43796,-19.25715 10.287239,-25.76526 4.356752,-3.78719 10.073497,-6.36679 15.945262,-5.70436 2.388093,0.21934 4.594037,1.05744 4.360165,-2.10624 1.121077,-4.25615 1.21596,-9.00627 3.805385,-12.6813 6.005134,-5.60097 15.252003,-6.87503 22.989389,-4.74442 4.36547,-0.22793 9.63317,-2.4802 13.44382,0.85907 6.00716,6.15241 6.8634,15.17827 8.81167,23.15206 0.23909,2.7024 0.98303,6.1607 4.04202,3.20194 6.68707,-3.61906 15.42502,-6.34527 22.42743,-2.07137 5.11205,3.24383 4.52966,11.40577 -0.39528,14.55573 -5.90956,4.42163 -13.47625,5.04211 -20.48971,6.30403 -11.44723,6.0686 -24.06351,9.59018 -36.545856,12.86737 -5.696724,1.31165 -11.494488,2.17222 -16.992221,4.24243 -5.462183,1.46939 -11.350512,1.89102 -16.940458,1.00291 z m 10.54182,-0.95407 c 5.726405,-0.98574 11.107566,-3.31807 16.175197,-6.09012 1.979831,-0.70299 3.072755,-1.76144 5.092272,-2.86345 1.361636,-1.00365 3.393986,-1.96147 5.434046,-3.71546 11.08505,-8.09753 21.99453,-16.59129 34.09166,-23.14658 6.40385,-3.34955 15.03466,-5.02002 21.15093,-0.20249 -4.1288,-4.51399 -11.11742,-3.95525 -16.48792,-2.3761 -11.71922,4.58519 -21.72717,12.49236 -31.88559,19.74103 -10.250834,7.58423 -21.075415,15.49032 -33.877894,17.88628 -6.910773,0.74862 -14.846403,0.17174 -19.790161,-5.36861 -5.462839,-5.70977 -4.735919,-14.73088 -1.093048,-21.19333 3.169593,-6.96334 8.991185,-12.78251 16.342266,-15.19025 -4.59922,0.79501 -10.504737,4.8458 -13.663405,9.2983 -4.509433,6.80978 -8.560396,15.61399 -5.06269,23.74069 3.982373,8.8775 14.900016,10.89641 23.574337,9.48009 z m -2.029384,-1.19528 c 9.863088,-1.04346 18.538218,-6.45897 26.670289,-11.74199 -6.739234,-0.91429 -13.501962,-2.17786 -20.009516,-4.20273 -3.70101,-0.38392 -4.30871,-5.89624 -4.954006,-7.05949 -5.67022,4.21431 -14.172384,5.05228 -17.502299,12.01177 -3.182077,4.17002 0.06538,9.04655 4.729844,9.90048 3.532114,1.19255 7.367346,1.58999 11.065688,1.09196 z m 11.386552,-17.63761 c 4.258423,-2.26653 -5.885539,-5.8541 -5.205293,-2.03481 -0.432795,1.14934 4.580088,2.44328 5.205293,2.03481 z m 19.843157,-3.2466 c 2.49012,-0.32147 8.86397,-0.93647 9.17886,-1.70003 -9.78701,1.65543 -19.904201,1.99574 -29.71664,0.3636 -2.118483,0.54331 -6.609999,-3.77244 -6.965671,-2.17155 5.165663,4.33162 12.511161,4.08017 18.879124,4.14569 2.882709,-0.078 5.760077,-0.30728 8.624327,-0.63771 z m -5.280238,-4.12868 c 0.965898,-4.25819 0.115781,-9.03052 -0.270485,-13.43138 -1.034745,-3.72838 -2.865479,-8.10562 -0.442243,-11.62266 1.582566,-1.44338 1.566516,-2.77902 3.397766,-4.45868 3.6502,-0.96254 3.7117,5.99341 6.9128,7.47475 3.54868,3.44335 8.75664,7.50781 13.92616,5.13827 3.58652,-2.64694 2.98293,-8.1894 1.80645,-11.99344 -1.48876,-4.33815 -5.079,-9.19923 -10.27804,-8.30395 -7.93238,0.25673 -14.34779,5.41375 -21.524366,8.06182 -6.146231,0.237 -0.897783,-7.45275 2.98931,-7.02617 2.226518,-0.82755 9.260766,0.22996 9.004246,-0.66956 -6.958446,-0.94667 -14.839106,0.14645 -20.033568,5.24537 -2.523489,5.01231 -2.898743,10.80769 -4.241149,16.21127 -0.808769,3.97709 -1.609426,7.95583 -2.413669,11.93384 1.576113,2.34996 4.469361,2.82159 6.740213,3.74256 4.623725,0.47241 9.356718,0.44554 13.978661,0.006 z m 15.760238,-20.2355 c -4.40217,-1.68414 -9.51704,-5.05762 -9.8139,-10.22197 0.3106,-4.52799 6.24943,-5.51315 9.9137,-5.94581 5.46627,-0.83591 8.95115,4.84322 9.28458,9.61886 0.2286,2.1564 0.43678,4.08373 -0.40551,1.00861 -0.60187,-1.85582 -1.54972,-7.38871 -2.02116,-2.30909 -0.61068,3.94176 -1.41092,9.56796 -6.95771,7.8494 z m -42.952959,3.54488 c -1.646476,-0.26247 -0.02047,0.4578 0,0 z" /></g></svg>
