<svg xmlns="http://www.w3.org/2000/svg" width="128pt" height="128pt" viewBox="0 0 128 128"><path d="M73.938 3.645q2.777 3.41 2.777 8.105L74.793 19q-2.354 3.41-6.625 3.41l-1.07.856q-.64 1.066-.641 4.476v.64h9.188l1.285 5.122h11.324L128 65.28l-12.18 15.781-27.566-22.394 3.848 68.887-9.403.425-16.242-1.066-15.387-1.277-14.316 1.918 4.062-68.035-27.355 21.753L0 65.281l40.816-31.777h10.47l1.71-5.121h9.828v-.64q0-8.956 3.633-8.958c3.133 0 4.988-.71 5.555-2.133l1.07-4.902c0-2.562-.57-4.55-1.71-5.973q-2.135-2.132-7.052-2.132c-2.136 0-3.773.566-4.914 1.707l-1.922 3.41-.855 3.414q0 1.493-1.711 1.492-1.71 0-1.711-1.918 0-3.841 2.352-7.895Q57.909.02 64.32.02c4.418 0 7.621 1.207 9.618 3.625"/></svg>