<?xml version="1.0" encoding="UTF-8" standalone="no"?>
<svg
   width="67.803848mm"
   height="89.038269mm"
   viewBox="0 0 67.803848 89.038269"
   version="1.1"
   xml:space="preserve"
   xmlns="http://www.w3.org/2000/svg"
   xmlns:svg="http://www.w3.org/2000/svg"><path
     style="fill:#000000"
     d="m 30.18001,88.711454 c -3.08926,-0.58375 -6.32894,-1.91299 -8.731254,-3.58242 l -1.058334,-0.73547 -2.116666,0.39331 c -3.850927,0.71556 -7.700209,0.2805 -14.8776132,-1.68154 -3.20201297,-0.87532 -3.48996297,-1.00421 -3.37661897,-1.51143 0.06815,-0.30498 0.659619,-3.00451 1.31437297,-5.99895 0.654754,-2.99444 1.556348,-6.67606 2.003541,-8.18137 3.620266,-12.18627 9.9060452,-23.30597 18.0199772,-31.87778 l 2.098675,-2.21711 0.98071,0.41837 c 2.41431,1.02994 4.71162,1.45853 8.52133,1.58979 4.2982,0.14808 7.02057,-0.22357 9.76874,-1.33361 l 1.60413,-0.64793 2.46676,2.57001 c 4.41128,4.59592 8.40092,10.21623 11.65532,16.41912 3.17771,6.05675 5.31871,11.85197 7.17495,19.42108 0.85741,3.49619 2.27538,10.2792 2.17029,10.38177 -0.0261,0.0255 -1.83342,0.53814 -4.01623,1.13922 -6.57044,1.80931 -10.38714,2.20441 -14.41979,1.4927 -1.98333,-0.35003 -1.98494,-0.34984 -3.04271,0.3722 -4.72842,3.22761 -10.82043,4.57515 -16.13958,3.57004 z m 7.40074,-5.29384 c 2.38046,-0.50425 5.17987,-1.84221 7.06206,-3.37527 l 1.49212,-1.21535 1.54754,0.42602 c 2.42028,0.66629 7.69567,0.58842 11.53555,-0.17028 2.70872,-0.53519 3.10886,-0.68134 3.10886,-1.13544 0,-0.28665 -0.41432,-2.44664 -0.92072,-4.79996 -1.35056,-6.2764 -2.95008,-10.77663 -6.21145,-17.47593 -1.72026,-3.53363 -4.90343,-9.16014 -5.1823,-9.16014 -0.0707,0 0.21609,0.68461 0.63734,1.52136 3.67068,7.29121 6.36677,17.81551 6.38061,24.90698 l 0.005,2.48355 -1.58573,-3.22203 c -1.79057,-3.63825 -3.37109,-7.20682 -6.34277,-14.32097 -1.7994,-4.30775 -3.20127,-7.30718 -2.82522,-6.04483 0.0703,0.2361 0.37302,1.25242 0.67265,2.2585 2.18945,7.35178 2.6018,15.38778 1.04576,20.38003 l -0.56199,1.80303 -0.85424,-4.23333 c -1.80173,-8.92881 -5.23706,-21.79078 -6.8548,-25.66458 -0.8366,-2.00331 -0.83864,-1.81812 -0.0191,1.74048 2.96337,12.8676 2.76836,23.53796 -0.55867,30.56789 -1.48733,3.1427 -1.57332,3.02885 -1.48373,-1.96449 0.056,-3.12117 -0.12525,-6.79698 -0.62188,-12.61196 -0.87382,-10.2315 -1.10775,-11.5755 -1.15214,-6.61942 -0.0182,2.03729 -0.15017,5.13292 -0.29316,6.87917 -0.28993,3.54088 -1.25083,9.67361 -1.56728,10.00293 -0.11276,0.11734 -0.28744,-0.35891 -0.38818,-1.05834 -1.00721,-6.99278 -1.24839,-9.41752 -1.40285,-14.10397 -0.11485,-3.48449 -0.24595,-5.04552 -0.36664,-4.36562 -0.44744,2.52073 -1.38342,15.04333 -1.53262,20.5052 l -0.16261,5.95313 -0.87776,-1.5875 c -1.10769,-2.00337 -2.06081,-4.87912 -2.63073,-7.9375 -0.53733,-2.88351 -0.58501,-10.31897 -0.0916,-14.2875 0.2782,-2.23758 1.89542,-11.06157 2.29285,-12.51035 0.44467,-1.62097 -0.87284,1.77197 -1.87842,4.83743 -1.81225,5.5246 -6.207033,23.57693 -6.207033,25.4965 0,1.0133 -0.499731,0.59505 -0.900176,-0.7534 -0.636003,-2.14165 -1.037557,-6.52641 -0.860598,-9.39726 0.182274,-2.9571 0.942052,-7.45105 1.766922,-10.45105 0.30009,-1.0914 0.604414,-2.2225 0.676276,-2.51354 0.29547,-1.19665 -0.864645,1.30299 -2.936959,6.32811 -2.156526,5.22933 -5.333033,12.25316 -6.950004,15.36772 l -0.824174,1.5875 -0.01251,-1.4552 c -0.06093,-7.09049 2.357142,-17.19317 5.920995,-24.73784 1.677229,-3.55068 1.549716,-3.66654 -0.403177,-0.3663 -3.309471,5.59275 -6.210316,11.93611 -8.0923722,17.6958 -1.1522,3.5261 -2.876941,11.18996 -2.614023,11.61537 0.07449,0.12053 1.418308,0.50099 2.986262,0.84547 2.3088032,0.50725 3.5550932,0.62038 6.5549922,0.59502 2.23123,-0.0189 4.28282,-0.18038 5.159375,-0.40619 l 1.455208,-0.37486 1.455206,1.17871 c 3.83572,3.10692 9.41814,4.40237 14.4122,3.3445 z M 21.946584,51.127734 c 0.09035,-0.23546 0.046,-0.34166 -0.103984,-0.24897 -0.143854,0.0889 -0.261553,0.27368 -0.261553,0.41062 0,0.38058 0.189645,0.29672 0.365537,-0.16165 z m 7.133166,-19.03083 c -1.0417,-0.18902 -2.48311,-0.53936 -3.20314,-0.77851 l -1.30915,-0.43483 -0.15276,-2.57104 c -0.10717,-1.80369 -0.51969,-3.99247 -1.38216,-7.33355 -0.949602,-3.67864 -1.269718,-5.454967 -1.406588,-7.805207 l -0.177196,-3.042708 -0.569086,1.455208 c -0.312997,0.800365 -0.687908,1.429457 -0.833136,1.397982 -0.21625,-0.04687 -6.360924,-3.6764157 -6.610057,-3.9044427 -0.170057,-0.155651 4.299028,-7.330442 4.699559,-7.5448 0.542033,-0.290087 5.856704,-1.64816003 5.977434,-1.52743103 0.0485,0.04849 0.33149,1.69127203 0.62888,3.65061903 0.80691,5.316198 0.63757,4.901941 2.21195,5.410942 2.31366,0.74801 4.58352,1.9853507 5.82601,3.1758677 l 1.18388,1.134352 1.15061,-1.179006 c 1.17614,-1.205153 3.94998,-2.7149077 5.9593,-3.2435517 1.26987,-0.334094 1.14826,-0.004 1.95189,-5.298604 0.29739,-1.959347 0.5648,-3.58653603 0.59425,-3.61597703 0.10886,-0.108869 5.55761,1.24957003 6.03339,1.50419903 0.27123,0.145157 1.16458,1.42171 1.98523,2.836783 0.82065,1.415073 1.78415,3.030269 2.14112,3.589325 0.35697,0.559055 0.61035,1.049664 0.56307,1.090241 -0.0835,0.0717 -3.8445,2.3638927 -5.83727,3.5576427 l -0.9888,0.592336 -0.6215,-1.408551 -0.62151,-1.408551 -0.15028,3.042708 c -0.12121,2.45397 -0.39176,3.964214 -1.39825,7.805204 -0.87809,3.35096 -1.28843,5.48889 -1.38449,7.21329 l -0.13653,2.45078 -1.74971,0.52006 c -3.69207,1.09737 -8.56365,1.36082 -12.37496,0.66922 z" /></svg>
