<?xml version="1.0" encoding="UTF-8" standalone="no"?>
<svg
   width="109.85811mm"
   height="113.2169mm"
   viewBox="0 0 109.85811 113.2169"
   version="1.1"
   xml:space="preserve"
   xmlns="http://www.w3.org/2000/svg"
   xmlns:svg="http://www.w3.org/2000/svg"><path
     style="fill:#000000"
     d="m 55.316782,110.91882 c 0.58328,-3.63567 -3.27052,-5.77692 -3.79494,-9.20194 -1.96002,-4.503578 2.28772,-10.877178 -0.93067,-14.249788 -1.51404,4.64548 -6.49908,8.38307 -8.144134,13.113388 1.152346,2.57636 -0.913665,11.50668 -1.840536,4.64126 -4.104796,-5.422958 1.158022,-10.082838 2.300281,-15.178018 0.446079,-2.47073 0.8768,-11.6231 -1.534921,-4.974 -1.455328,3.17101 -2.879928,9.2677 -6.026151,9.74168 -0.633345,-2.71878 4.282657,-11.92664 -0.335575,-5.67179 -4.089177,1.87501 -8.786718,2.53605 -9.509413,7.90795 -0.520327,2.76195 -9.307228,4.478518 -4.432767,0.94177 2.383051,-5.3144 2.91147,-12.23038 8.944655,-15.05845 2.370277,-1.23906 8.711434,-6.35603 5.019814,-7.11643 -2.680701,3.12314 -7.944014,3.37492 -11.336519,4.09778 1.929931,-3.0497 10.487553,-6.96772 7.726758,-9.83183 -3.682454,3.87998 -10.57459,4.32308 -11.999362,10.22472 -0.153852,3.11767 -8.217425,6.25334 -3.79222,1.5154 0.870497,-5.69605 4.352018,-10.11885 9.423065,-12.74433 1.869738,-1.63902 8.069417,-9.55068 1.932315,-5.44263 -3.956993,4.40046 -11.031876,2.69294 -14.713429,6.95464 -4.418545,5.89626 -0.864746,-7.08287 3.756074,-5.38999 2.66005,0.5885 8.327391,-3.68742 7.9342,-4.21847 -3.332926,1.96498 -6.889773,3.59686 -10.856271,3.42612 3.152071,-1.99166 8.76244,-4.04281 12.741385,-6.12598 2.378944,-0.71473 5.819439,-2.84313 1.239545,-1.22901 -5.082707,2.9552 -10.382835,1.78499 -15.032276,-1.01001 C 8.241559,58.026922 1.653616,59.745102 0,54.576882 c 5.938861,2.11422 9.865629,-4.37987 15.535522,-4.34392 3.740418,-0.16443 12.444369,2.89435 13.24143,0.0941 -4.12473,-1.86444 -9.036535,-3.21359 -11.503261,-7.32286 3.665846,1.09334 11.130867,3.03574 12.899126,1.1424 -6.036729,0.80011 -9.601156,-5.2417 -14.913363,-5.92061 -2.152123,1.5952 -12.595893,0.72042 -5.599899,-0.99307 5.123947,-4.1664 10.932656,-2.22937 15.545583,1.54471 2.938629,0.91939 12.31076,-0.56252 4.813338,-2.55372 -6.017435,-0.19418 -8.473656,-6.56044 -13.946423,-7.66268 4.059487,-3.16232 7.026702,4.6117 11.271566,3.75208 -2.436526,-0.88665 -9.514931,-6.69207 -2.823972,-3.68406 4.446097,2.06972 9.633953,4.55935 13.639498,6.38691 -4.277759,-3.32093 -11.268407,-4.64953 -11.661924,-11.19061 -2.564229,-2.95886 -11.302322,-4.00137 -8.562219,-9.008551 3.994307,4.601061 11.508214,1.561683 15.328189,6.543051 2.823453,3.10037 6.728877,10.68976 10.079166,10.20055 -3.900393,-4.50393 0.922775,-11.93745 -3.445048,-15.866161 -3.248753,-0.126925 -7.001599,-7.8376639 -2.041054,-3.852526 6.317927,0.707464 8.859787,6.429717 8.023617,12.174247 -0.83808,1.90711 5.34728,7.73904 2.8506,3.92781 -2.30435,-2.93851 -2.12811,-11.3112 -0.8019,-12.070528 1.45048,4.427778 1.6218,9.880608 4.85955,14.062458 1.64517,-1.30585 -4.09667,-8.8261 -1.7238,-12.5573 4.32244,-3.899189 2.71763,-8.5163639 1.43433,-13.1970789 0.67023,-3.35997402 4.66148,-6.857775 3.21159,-1.147128 0.89633,4.763246 5.7895,8.5950679 4.17384,13.9031069 -0.65681,4.16509 -3.33398,10.62436 0.51319,13.58638 -0.0791,-5.26086 3.4773,-9.39146 7.49979,-12.42802 4.3875,-1.815408 -0.97997,-12.2523569 2.54155,-11.1519119 1.8068,4.7023769 5.05143,10.9266919 -0.65245,14.5078619 -3.3918,2.43575 -2.79764,8.90668 -0.7634,11.4144 0.724,-5.61901 1.39775,-11.91269 6.48641,-15.43853 1.46747,1.90436 -4.33961,7.94608 -3.27895,12.15685 -0.34278,2.15542 1.31259,8.98333 0.56489,3.17664 -1.47542,-5.94137 2.65166,-11.26861 8.5853,-11.83636 2.46501,-3.20476 3.13505,-9.98566 8.90192,-8.717667 -4.45746,3.671893 -2.2473,10.402587 -6.25218,14.334567 -2.95424,3.26745 -8.7922,6.00449 -8.27718,10.90587 3.47461,-4.66108 9.4718,-4.1827 14.29611,-6.18651 2.27353,-1.38384 3.59247,-7.65037 6.40315,-6.30688 -1.55859,4.79865 -3.07693,10.56976 -9.03865,11.4364 -3.77201,0.77944 -8.51498,6.7682 -7.2216,9.30051 3.47345,-3.58808 7.92112,-6.87298 13.20635,-6.15532 4.03914,1.75444 5.6229,-4.63111 8.115838,-4.06517 -0.32588,6.65667 -6.509538,7.97407 -11.939898,7.96827 -2.41372,1.6213 -6.25902,6.15478 -6.6297,7.61272 4.60073,-3.05215 9.70199,-6.78679 15.25131,-5.93256 -4.99961,2.62186 -11.16945,3.90277 -15.86957,7.76243 0.39284,0.62162 8.02107,-6.27701 11.5367,-2.41906 4.3833,4.98306 9.758208,-3.15432 14.342218,0.98796 5.88723,4.22945 -5.73194,0.27807 -7.19463,4.58619 -5.619128,4.32394 -13.149738,-0.43447 -19.014258,2.7793 -1.66827,2.83597 6.45351,0.85677 7.88179,3.37616 2.17923,0.88958 5.89706,4.37771 1.01445,2.43216 -3.08954,-1.77115 -10.30665,-0.0559 -3.51446,0.0924 4.71563,1.88078 9.29569,5.29199 14.489878,2.46539 3.00153,-0.66224 4.81825,0.83065 0.90913,1.80361 -4.226368,3.90077 -9.944688,2.89165 -14.539528,0.29046 -2.21536,-0.88134 -10.44747,-1.68015 -9.41648,1.29753 6.27668,0.13276 8.27873,7.20713 13.29776,9.13032 2.50213,-0.30156 9.053468,-1.01378 3.39739,1.4206 -5.3277,4.24291 -9.57019,-1.77261 -13.29057,-4.72152 -1.94675,-0.56268 -11.26482,-2.05984 -4.88726,0.42656 3.79477,1.29885 9.07871,3.73134 9.73515,7.58981 -2.90633,-2.71203 -12.00807,-7.90197 -12.93085,-6.36423 5.48977,1.20335 10.54922,5.18486 10.18877,11.27998 2.41605,2.53434 9.49488,3.87151 7.3491,8.7383 -3.82784,-4.04026 -10.93926,-2.35387 -13.87324,-7.69246 -2.38596,-2.72326 -5.77301,-10.32673 -9.26124,-8.42611 4.4993,4.33261 -0.4903,12.39881 4.9747,16.11379 2.81234,1.16759 3.81988,7.465598 0.12317,3.287608 -6.17666,-1.632638 -6.52669,-7.887288 -8.04726,-12.885268 -1.57625,-4.72183 -6.07944,-1.77275 -2.79847,1.71657 0.99827,2.40129 0.75359,12.129328 -1.37991,5.0715 0.25518,-2.89096 -4.58916,-10.59244 -1.99,-3.81124 2.49165,5.66125 -5.86737,9.958298 -1.09778,15.458458 1.27714,1.74692 -3.34591,10.35366 -3.0138,4.01262 z m 1.99746,-26.221298 c 6.28303,-2.9331 12.09635,-7.43421 16.13315,-13.10638 1.33515,-1.78428 3.75649,-6.83587 0.88592,-2.51568 -1.28067,2.4019 -4.78382,5.00627 -2.16032,0.46982 2.93822,-4.12642 -1.15082,-1.17279 -3.0734,-1.05889 3.08067,-4.15334 9.05065,-6.906 8.42822,-13.01796 -0.0237,-2.59738 -3.78733,4.31764 -6.07822,4.46974 -4.17835,2.2047 -11.42828,0.6588 -14.21383,-1.75901 -0.60442,-5.09578 1.20781,-12.08566 7.24692,-12.69993 3.71849,-1.86895 10.97869,4.79848 11.8936,1.90487 -1.76545,-5.46178 -5.46703,-10.46625 -11.27876,-11.97999 -9.1388,-2.9326 -20.87686,-2.12263 -27.59082,5.4264 -1.753468,2.54911 -6.150455,10.39348 0.113731,6.4924 4.551208,-2.64455 11.610849,-3.06015 14.475269,2.20025 3.15315,5.00384 -0.3804,11.07676 1.26507,16.11485 3.0535,3.65764 4.10344,-4.41498 4.8745,0.0619 2.28377,0.73447 0.21073,-5.06752 2.45938,-1.01049 1.23281,4.06546 -4.46434,1.77845 -5.48098,4.88856 -5.96515,0.53507 -7.87623,-5.45064 -4.75413,-9.86378 -5.14441,1.88269 -11.57986,2.01669 -15.180685,-2.83586 -3.617462,-5.60596 -1.868929,5.83951 1.402701,6.61092 2.577449,1.22988 7.914024,7.33271 1.94847,3.89646 -2.694195,-1.80706 4.579547,9.1772 -0.534866,3.4916 -1.90326,-2.64529 -4.228656,-5.05893 -1.543259,-0.62006 3.258377,5.87366 8.911629,10.05568 14.556139,13.46674 1.90361,0.93719 4.09365,1.81355 6.2062,0.97356 z m -4.33013,-5.90785 c -3.77392,0.27812 -4.36302,-4.5759 -6.26537,-6.56492 2.97849,1.59047 5.45682,-3.17037 8.12504,-0.53192 2.86976,-1.64773 6.31364,1.94319 8.71569,0.92021 -1.7406,2.01165 -7.1518,4.6712 -7.60677,5.82512 2.98281,0.5166 -0.82725,0.55162 -2.96859,0.35151 z m 4.74424,-3.06518 c 4.27184,-1.34625 -5.25154,-2.04524 -6.25287,-0.79224 1.18126,1.84944 4.39305,1.52095 6.25287,0.79224 z m -10.50887,-18.21965 c 6.24683,-0.81117 -2.50766,-8.21321 -6.079056,-5.53462 -3.029355,0.11359 -5.943179,1.00317 -2.47329,3.66875 2.160367,2.42486 5.619036,2.31664 8.552346,1.86587 z m 22.82228,-0.54025 c 3.45112,-1.48442 5.18714,-5.50011 -0.003,-4.8788 -4.67541,-3.5765 -13.81318,6.34156 -5.16423,5.61787 1.7343,0.0343 3.59703,0.13174 5.16764,-0.73907 z" /></svg>
