<?xml version="1.0" encoding="UTF-8" standalone="no"?>
<svg
   width="104.93787mm"
   height="111.6646mm"
   viewBox="0 0 104.93787 111.6646"
   version="1.1"
   xml:space="preserve"
   xmlns="http://www.w3.org/2000/svg"
   xmlns:svg="http://www.w3.org/2000/svg"><g
     transform="translate(-43.450436,-88.427552)"><path
       style="fill:#000000"
       d="m 93.497706,199.83458 c -2.092117,-0.30477 -3.864972,-0.912 -5.090179,-1.74344 -0.550866,-0.37383 -2.981349,-2.2589 -5.401074,-4.18905 C 74.792559,187.35011 70.417355,182.95065 67.140241,177.94793 65.283102,175.11288 57.031149,159.03895 55.857587,155.9705 l -0.66805,-1.74671 -0.01848,-3.175 c -0.01217,-2.08959 0.182763,-4.42927 0.570198,-6.84394 l 0.588683,-3.66894 -0.642495,-0.84236 c -0.353372,-0.46329 -1.896983,-3.06585 -3.430247,-5.78345 -3.356433,-5.94905 -3.985834,-6.8917 -6.310987,-9.45193 -2.039975,-2.24623 -2.685887,-3.38816 -2.449405,-4.33038 0.255601,-1.01839 1.283398,-1.80244 2.548419,-1.94404 2.011181,-0.22513 6.426056,1.6024 9.69948,4.01508 0.923648,0.68077 1.71107,1.19973 1.749828,1.15324 0.18263,-0.21907 -1.015353,-6.19206 -2.245752,-11.19703 -2.002497,-8.14568 -2.239386,-12.420671 -1.038216,-18.736067 0.730129,-3.838806 1.621776,-5.020473 3.765955,-4.990881 l 1.053337,0.01454 0.752773,0.721203 c 0.414026,0.396662 0.890828,1.148048 1.059562,1.669748 1.016248,3.142099 3.503939,7.048326 6.165792,9.681657 2.475122,2.4486 4.864956,3.98837 10.569711,6.81005 2.599814,1.28591 5.425179,2.8122 6.278589,3.39174 1.913491,1.29942 2.355934,1.48238 2.355934,0.97422 0,-0.21346 0.863203,-1.67621 1.918229,-3.25056 1.055026,-1.57435 3.049323,-5.12749 4.43177,-7.89587 1.382448,-2.768372 2.705718,-5.147304 2.9406,-5.286511 0.234882,-0.139207 0.625102,-0.177107 0.867157,-0.08422 0.242054,0.09289 1.503532,2.373199 2.803284,5.067361 1.299744,2.69416 3.261014,6.25814 4.358364,7.91995 1.09734,1.66181 1.99517,3.14389 1.99517,3.2935 0,0.68248 0.65267,0.47558 2.69501,-0.85434 1.20988,-0.78784 4.25362,-2.4452 6.76386,-3.68303 8.63586,-4.25842 12.14398,-7.591334 15.46704,-14.694585 0.72612,-1.552135 1.57633,-3.027776 1.88934,-3.279201 0.72366,-0.581261 2.38623,-0.597632 3.34223,-0.03291 0.94906,0.560623 1.45815,1.653832 2.0392,4.378895 l 0.46837,2.19657 0.005,5.159381 0.005,5.15937 -1.11699,4.39849 c -1.03333,4.06906 -2.16478,9.40417 -2.55676,12.05593 l -0.16387,1.10858 2.50733,-1.67638 c 4.38087,-2.929 8.29243,-4.16987 10.13727,-3.21587 0.97742,0.50545 1.37948,1.15216 1.37948,2.21892 v 0.76925 l -2.35434,2.72773 c -2.17634,2.52151 -3.95584,5.23671 -6.50387,9.92377 -0.55377,1.01864 -1.66028,2.91776 -2.45891,4.22027 l -1.45205,2.36819 0.5985,4.244 0.59849,4.24401 -0.1462,2.64822 c -0.0908,1.64482 -0.35076,3.2292 -0.68607,4.18155 -0.58266,1.65488 -7.19604,14.94387 -9.37567,18.83959 -1.9608,3.50457 -3.265,5.37341 -5.67407,8.13058 -4.84923,5.54991 -16.24418,14.95353 -19.51184,16.10202 -1.40747,0.49468 -4.644737,1.04811 -5.818336,0.99467 -0.291042,-0.0132 -1.239288,-0.12754 -2.107214,-0.25398 z m 4.458145,-3.66783 c 1.665131,-0.27269 3.343819,-1.02289 4.361699,-1.94923 0.34497,-0.31395 1.55111,-1.94503 2.68033,-3.62463 2.84957,-4.23846 4.84204,-6.63807 7.62431,-9.18225 4.26972,-3.90434 5.91092,-6.65462 7.43298,-12.456 l 0.74569,-2.84226 -0.83864,0.0979 c -1.27987,0.14942 -3.76058,-0.39295 -5.4116,-1.18316 l -1.4832,-0.70989 1.85208,-0.22953 c 3.59693,-0.44578 6.63347,-1.25824 8.23747,-2.20403 3.21127,-1.8935 5.65467,-5.42531 5.86354,-8.47544 l 0.1102,-1.60931 -0.58607,-1.16882 c -0.7423,-1.4804 -1.94205,-3.41669 -2.1174,-3.41731 -0.0737,-2.6e-4 -0.6684,0.90616 -1.32166,2.01427 -3.20855,5.44263 -7.6775,7.3476 -12.83191,5.46983 -1.01865,-0.37109 -2.52176,-0.86104 -3.34025,-1.08876 l -1.48816,-0.41404 -1.0796,0.32345 c -1.52054,0.45557 -2.53282,1.40149 -3.77389,3.5265 -0.59115,1.01219 -1.21178,1.79469 -1.37918,1.73889 -0.49043,-0.16347 -1.788823,-4.6275 -2.066419,-7.10461 l -0.255605,-2.28087 0.397916,-2.66125 c 1.983208,-6.9685 4.251058,-11.139 10.381398,-14.24699 1.1873,-0.61154 2.11569,-1.15492 2.06309,-1.20752 -0.0526,-0.0526 0.20728,-0.12071 0.57752,-0.15135 0.37023,-0.0306 1.3583,-0.23325 2.19571,-0.45024 2.0665,-0.53549 6.66974,-1.01455 8.38323,-0.87246 l 1.40021,0.11612 -0.18716,-1.21146 c -0.10294,-0.6663 -0.18202,-2.40208 -0.17572,-3.85729 l 0.0114,-2.64583 0.57474,-1.85209 c 0.31611,-1.01864 1.10606,-2.74505 1.75543,-3.83645 0.99612,-1.67418 2.27715,-5.36523 2.27715,-6.5612 0,-0.14043 -0.95706,0.37433 -2.12681,1.14392 -1.16975,0.76958 -4.96857,2.8468 -8.44182,4.61604 -8.35793,4.25745 -11.96819,6.72741 -15.49763,10.60271 -1.92332,2.1118 -2.961603,3.99883 -4.185522,7.60697 -1.119598,3.3006 -1.58837,4.08482 -2.37483,3.97287 -0.684411,-0.0974 -1.336144,-1.33643 -2.610636,-4.96307 -1.043328,-2.96885 -2.332774,-5.0615 -4.544019,-7.37454 -3.324331,-3.47736 -7.273377,-6.07972 -15.680209,-10.33304 -2.927617,-1.48118 -6.380429,-3.39233 -7.672916,-4.247 -1.292487,-0.85466 -2.370736,-1.53529 -2.39611,-1.51249 -0.198106,0.17796 1.564882,5.68187 2.015013,6.2907 1.089046,1.47302 2.354403,4.49472 2.67289,6.38292 0.309914,1.83738 0.231411,6.23297 -0.126802,7.09999 l -0.17421,0.42165 3.518162,0.1895 c 4.235646,0.22815 4.696895,0.28422 6.560871,0.79756 6.156053,1.69537 10.802361,5.32507 13.236615,10.34046 1.479399,3.04807 1.856314,4.76135 1.862631,8.46667 l 0.0054,3.175 -0.52795,1.98728 c -0.607314,2.28603 -1.267342,3.97069 -1.54953,3.95503 -0.107188,-0.006 -0.622183,-0.75008 -1.144435,-1.65364 -1.11578,-1.93044 -2.794598,-3.20935 -4.560518,-3.47416 -1.19697,-0.1795 -1.440393,-0.11783 -5.529677,1.40101 -1.021946,0.37957 -2.128655,0.5626 -3.401757,0.5626 h -1.887012 l -1.693225,-0.8081 c -2.15189,-1.027 -4.017688,-2.89032 -5.570932,-5.56354 -0.66951,-1.15226 -1.25008,-2.09502 -1.290155,-2.09502 -0.215722,0 -2.205708,3.45762 -2.49157,4.32913 -1.153548,3.51682 1.920853,8.98036 6.191666,11.00326 1.751476,0.8296 6.110041,1.86552 7.849052,1.86552 h 1.095345 l -0.313983,0.37833 c -0.542434,0.65359 -3.450845,1.47376 -5.226143,1.47376 -0.917629,0 -1.668417,0.0615 -1.668417,0.13664 0,0.38218 1.716073,6.25222 2.15026,7.35522 0.918354,2.33299 2.380938,4.24703 6.304727,8.25084 3.624001,3.69791 5.586151,6.14528 8.060836,10.05417 1.368927,2.16229 1.91882,2.71932 3.457568,3.50241 1.967852,1.00146 4.455249,1.30547 7.116081,0.86972 z m -5.757709,-13.38788 c -1.32365,-0.42313 -3.160776,-1.46026 -3.46843,-1.95805 -0.09505,-0.15379 -0.28365,-0.21112 -0.419116,-0.1274 -0.135466,0.0837 -0.246301,-0.008 -0.246301,-0.20433 0,-0.45993 -3.139251,-3.43964 -6.568317,-6.23449 l -2.692099,-2.1942 -0.0041,0.6067 c -0.0022,0.33368 -0.123709,0.78528 -0.269958,1.00356 l -0.265907,0.39688 -0.523792,-0.62463 c -1.469527,-1.75241 0.306993,-5.01968 2.582226,-4.74906 0.921063,0.10955 1.053536,0.63823 0.212798,0.84924 -0.37014,0.0929 -0.672982,0.26331 -0.672982,0.37869 0,0.30666 1.27395,1.19833 2.923345,2.04612 l 1.44228,0.74134 2.38125,0.11098 c 1.721401,0.0802 2.821149,-0.0133 3.968749,-0.33759 2.7364,-0.77321 3.046758,-0.78308 4.233786,-0.13464 l 1.1028,0.60243 1.168165,-0.68204 1.168166,-0.68204 2.476645,0.64528 c 1.36216,0.35491 3.10579,0.64529 3.87473,0.64529 1.91443,0 4.49609,-0.86492 6.08404,-2.03832 l 1.32292,-0.97755 -0.66146,-0.15764 c -1.04654,-0.24941 -0.82237,-0.91425 0.34062,-1.01024 l 1.00209,-0.0827 0.91614,0.91614 0.91615,0.91615 v 1.30836 1.30837 l -0.5125,0.4638 c -0.62298,0.56379 -1.075,0.34106 -1.075,-0.52969 0,-0.35521 -0.0638,-0.64584 -0.14185,-0.64584 -0.38187,0 -6.34572,5.11947 -8.32482,7.14617 l -2.24896,2.30304 -1.5875,0.60303 -1.587495,0.60302 -2.778125,0.0941 c -2.007855,0.068 -3.135825,-0.0202 -4.068236,-0.31828 z m 3.517021,-4.18615 c -0.06063,-0.0578 -1.419931,-0.36189 -3.02066,-0.67584 -1.600729,-0.31396 -3.436623,-0.7426 -4.079764,-0.95254 -1.573457,-0.51363 -1.71723,-0.25393 -0.224881,0.4062 1.548412,0.68494 7.868169,1.73935 7.325305,1.22218 z m -3.02066,-3.97746 1.322917,-0.36811 -0.926042,-0.0121 c -0.509323,-0.007 -1.640417,0.14909 -2.513542,0.34611 l -1.587499,0.35822 1.190625,0.022 c 0.654843,0.0121 1.785937,-0.14364 2.513541,-0.3461 z m 1.786253,-5.05532 c -0.319247,-0.22361 -0.707601,-0.87878 -0.86301,-1.45592 -0.161209,-0.59868 -0.557292,-1.22936 -0.922252,-1.4685 l -0.63969,-0.41914 -0.599418,0.41985 c -0.805834,0.56443 -2.836756,0.53644 -3.559562,-0.0491 -0.85102,-0.68936 -1.155446,-1.47152 -1.155446,-2.96869 v -1.35571 l 1.188716,-1.24137 1.188716,-1.24137 0.239123,0.3682 c 0.15978,0.24604 0.02873,0.7639 -0.394966,1.56076 -0.699144,1.31491 -0.800675,2.16424 -0.316589,2.64833 0.426305,0.42631 0.740834,0.40076 0.740834,-0.0602 0,-0.20772 0.325542,-0.63374 0.723428,-0.94672 0.950375,-0.74757 1.801762,-0.56713 3.740345,0.79271 0.831787,0.58347 1.73303,1.06085 2.002762,1.06085 0.269733,0 1.00398,-0.42082 1.631661,-0.93516 2.326873,-1.9067 3.829112,-2.02982 4.823122,-0.3953 0.92712,1.52453 1.20174,-0.35695 0.30785,-2.10913 -0.29104,-0.57048 -0.52917,-1.22059 -0.52917,-1.44466 0,-1.29215 2.42974,0.79432 2.95099,2.53407 l 0.32793,1.09455 -0.41604,1.15698 c -0.22883,0.63634 -0.31174,1.15698 -0.18426,1.15698 0.47812,0 0.20262,0.61126 -0.66779,1.48167 -0.57811,0.57811 -1.15446,0.89958 -1.61282,0.89958 -0.97499,0 -2.23986,-0.79313 -2.42196,-1.51869 -0.08254,-0.32889 -0.313348,-0.59798 -0.512896,-0.59798 -0.389807,0 -1.431903,1.82638 -1.431903,2.50955 0,0.87868 -2.597023,1.2524 -3.637705,0.52348 z M 59.861565,145.22796 c 0.35064,-2.03729 0.707164,-4.19628 0.792275,-4.79776 l 0.154747,-1.09358 -0.401456,-0.33318 c -0.220801,-0.18325 -0.434978,-0.28645 -0.47595,-0.22933 -0.287106,0.40024 -1.088789,8.43435 -1.132423,11.34864 l -0.05348,3.57187 0.239379,-2.38125 c 0.131659,-1.30968 0.526267,-4.04812 0.876908,-6.08541 z m 27.806645,4.20997 c -2.511479,-6.67239 -6.674753,-10.20204 -12.013179,-10.18487 -1.10579,0.004 -3.463688,0.28137 -5.239775,0.61735 l -3.229248,0.61088 0.652782,1.14924 c 0.937918,1.65123 3.157795,4.37341 4.298126,5.27068 0.538132,0.42343 1.514203,1.0536 2.169046,1.40039 l 1.190625,0.63052 4.347506,-0.0635 4.347505,-0.0636 1.341036,0.62032 c 0.73757,0.34118 1.638692,0.87183 2.002494,1.17923 0.363802,0.30741 0.690201,0.56288 0.725331,0.56772 0.03513,0.005 -0.231382,-0.77562 -0.592249,-1.73435 z m 19.4006,-0.36127 c 0.54532,-0.14684 2.83247,-0.23943 5.08255,-0.20576 l 4.09106,0.0612 1.26472,-0.62818 c 2.23806,-1.11165 4.73544,-3.70231 6.4868,-6.72913 0.32057,-0.55402 0.58285,-1.04307 0.58285,-1.08679 0,-0.0437 -0.72365,-0.15511 -1.60811,-0.24755 -0.88446,-0.0924 -2.34298,-0.35962 -3.24115,-0.59373 -1.10629,-0.28835 -2.35991,-0.39164 -3.88656,-0.32023 l -2.25354,0.10541 -1.7743,0.83029 c -3.23269,1.51276 -5.7536,4.45317 -7.33621,8.55702 -0.44121,1.14411 -0.80221,2.14278 -0.80221,2.21928 0,0.0765 0.54058,-0.27356 1.2013,-0.77789 0.66071,-0.50434 1.64747,-1.03711 2.1928,-1.18396 z M 72.453879,132.66025 c 0.218281,-0.14107 0.337344,-0.26437 0.264583,-0.27402 -0.07276,-0.01 -2.037291,-0.11627 -4.365624,-0.23695 l -4.233333,-0.21941 -1.510047,-0.57563 c -1.779923,-0.67851 -5.041593,-2.75359 -7.088911,-4.50997 -1.752841,-1.50376 -3.638342,-2.84367 -5.423958,-3.85447 l -1.322917,-0.74888 0.529167,0.60761 c 0.291041,0.33419 0.970515,0.83287 1.509941,1.10818 0.539427,0.27531 2.325364,1.63281 3.96875,3.01667 l 2.987975,2.51611 2.910416,1.45004 c 1.600729,0.79753 3.386667,1.55852 3.96875,1.6911 1.434117,0.32664 7.311094,0.34894 7.805208,0.0296 z m -10.592076,-9.12813 c -0.412683,-3.10077 -1.569511,-9.21154 -2.779894,-14.68437 l -0.96551,-4.36562 -0.04116,-5.622306 c -0.02264,-3.092265 -0.116938,-5.622343 -0.209562,-5.622395 -0.334637,-1.88e-4 -0.510288,1.810825 -0.654371,6.74678 l -0.146743,5.027081 0.818605,3.04271 c 1.626779,6.04664 2.931073,12.77585 3.454297,17.82166 0.148529,1.43237 0.358999,2.7412 0.467711,2.90851 0.348243,0.53596 0.384116,-2.79138 0.05662,-5.25205 z m 27.217226,-4.26584 c 0.202748,-3.01053 1.012802,-5.32583 2.887073,-8.25186 0.530291,-0.82787 1.546082,-2.75537 2.257312,-4.28334 l 1.293146,-2.77812 -0.145143,3.49575 c -0.09021,2.17262 -0.04646,3.55673 0.115578,3.65688 0.167976,0.10381 0.248867,-1.51619 0.227397,-4.55408 l -0.03332,-4.71522 -0.273197,0.66146 c -0.804331,1.94743 -2.441639,4.99101 -4.200637,7.80854 -2.534634,4.05993 -2.746064,4.59951 -2.746064,7.00813 0,2.51748 0.478058,4.0277 0.617859,1.95186 z m 19.178001,-2.99296 c 2.56369,-1.96497 4.11074,-2.89852 9.45439,-5.70517 2.68455,-1.41 5.6549,-3.11552 6.60079,-3.79003 2.46544,-1.7581 5.74252,-4.95675 6.89809,-6.733 0.81515,-1.252985 2.62691,-5.543766 2.62691,-6.221308 0,-0.09879 -0.44781,0.711109 -0.99514,1.799768 -1.29738,2.580555 -3.81658,5.86636 -6.06924,7.91613 -2.57867,2.34643 -5.33515,4.08934 -11.07532,7.0029 -5.7665,2.92692 -10.21786,6.05338 -9.73378,6.83663 0.23077,0.37339 0.58797,0.20113 2.2933,-1.10592 z" /></g></svg>
