<svg xmlns="http://www.w3.org/2000/svg" xml:space="preserve" width="142.445" height="200.542" viewBox="0 0 37.688 53.06"><path d="M17.072 52.501c-.928-.468-1.734-1.33-3.772-4.035-1.425-1.891-3.747-4.732-5.16-6.312-3.41-3.815-4.655-5.489-5.735-7.71-3.11-6.399-3.209-16.2-.266-26.484.617-2.153 2.537-6.414 3.43-7.608.554-.742.93-.285.93 1.13 0 3.095 1.268 6.563 3.052 8.347 4.203 4.203 15.28 3.932 19.046-.466 1.599-1.869 2.76-5.186 2.769-7.91.002-.683.114-1.31.248-1.393.75-.463 3.451 5.34 4.624 9.934 1.279 5.011 1.579 7.88 1.406 13.423-.272 8.675-1.402 11.37-7.728 18.435-1.563 1.746-3.573 4.173-4.465 5.393-3.056 4.18-3.639 4.833-4.756 5.34-1.44.655-2.193.637-3.623-.084m5.566-8.263c1.46-.741 4.853-3.907 6.09-5.68l.637-.914-1.738 1.24c-.956.682-2.558 1.626-3.562 2.098-1.631.768-2.125.87-4.683.96-2.6.092-3.04.036-4.848-.624-1.104-.402-2.865-1.354-3.959-2.138-2.297-1.649-2.198-1.286.428 1.554 3.217 3.479 5.174 4.498 8.328 4.338 1.371-.07 2.23-.287 3.307-.834m-2.91-5.577c.218-.183.685-.373 1.038-.423 1.026-.145.956-.72-.144-1.18-1.074-.448-3.345-.327-3.996.213-.596.495-.384 1.009.415 1.009.414 0 .966.235 1.226.523.47.519.698.497 1.461-.142m-3.696-8.645c-.568-3.66-2.09-5.982-4.672-7.124-.616-.272-2.42-.667-4.012-.877-1.59-.21-3.41-.56-4.043-.778s-1.171-.372-1.195-.342.403 1.162.95 2.515c1.949 4.826 5.078 7.197 9.498 7.197 1.961 0 2.977.5 3.369 1.66.364 1.078.424-.198.105-2.25m7.125.883c.37-.14 1.572-.303 2.67-.362 3.659-.198 6.6-2.174 8.248-5.54.877-1.792 1.827-4.18 1.662-4.18-.068 0-.572.178-1.12.395-.55.216-2.368.57-4.041.787-2.257.292-3.417.585-4.49 1.132-2.55 1.3-4.078 4.059-4.414 7.97l-.128 1.49.47-.718c.26-.395.774-.833 1.143-.974"/></svg>