<svg xmlns="http://www.w3.org/2000/svg" xml:space="preserve" width="491.079" height="289.757" viewBox="0 0 129.931 76.665"><path d="M46.496 75.801C31.38 73.669 18.642 69.347 9.229 63.159c-7.391-4.86-10.176-9.26-8.95-14.145.976-3.887 9.825-6.955 20.064-6.955h4.824l1.652-9.628C29.892 14.52 34.193 4.31 39.89 1.403c4.336-2.212 6.995-1.88 14.607 1.825 9.26 4.507 11.633 4.5 20.716-.07C81.235.13 82.448-.233 85.426.102c1.858.21 4.24 1.019 5.293 1.799 5.095 3.771 9.341 14.611 11.958 30.527l1.583 9.624 4.36.009c9.857.02 17.49 2.272 20.222 5.966 1.311 1.775 1.367 2.277.552 4.996-2.632 8.783-20.606 18.356-41.482 22.093-9.647 1.727-31.47 2.088-41.416.685zM81.97 62.018c7.961-1.524 16.27-4.446 19.697-6.929 2.605-1.887 2.955-2.484 2.955-5.043 0-1.596-.17-2.901-.377-2.901-.208 0-1.732.855-3.387 1.9s-5.304 2.68-8.108 3.633c-19.543 6.647-45.492 5.54-62.707-2.676-2.455-1.172-4.598-2.13-4.763-2.13-.164 0-.374 1.27-.465 2.822-.155 2.624.053 2.951 2.946 4.634 6.253 3.64 17.845 6.916 28.543 8.07 4.968.535 19.834-.264 25.666-1.38"/></svg>