<?xml version="1.0" encoding="UTF-8" standalone="no"?>
<svg
   width="51.515209mm"
   height="116.03994mm"
   viewBox="0 0 51.515209 116.03994"
   version="1.1"
   xml:space="preserve"
   xmlns="http://www.w3.org/2000/svg"
   xmlns:svg="http://www.w3.org/2000/svg"><path
     style="fill:#000000"
     d="m 8.9172514,115.09482 c -4.802187,-0.50284 -8.80848198,-0.99525 -8.90287698,-1.09425 -0.09439,-0.099 0.286152,-5.895 0.845659,-12.88 C 1.4195394,94.135568 2.3614744,82.229318 2.9532214,74.662238 c 1.936166,-24.75912 2.217289,-26.95805 4.388111,-34.32356 0.782896,-2.65634 0.914461,-3.49484 0.914461,-5.82811 0,-3.81267 0.076,-3.90027 3.3884396,-3.9055 2.985621,-0.005 3.35065,-0.14967 3.11209,-1.23583 -0.168716,-0.76816 -0.187819,-0.77557 -1.71496,-0.6651 l -1.544344,0.11171 -0.467436,-1.22397 c -0.448271,-1.17378 -0.447911,-1.24553 0.0088,-1.75017 0.556975,-0.61545 0.84198,0.93206 -2.5519716,-13.856577 -1.29879,-5.6592861 -2.324911,-10.3261371 -2.280268,-10.3707801 0.249081,-0.249081 6.3141946,-1.75390898 6.4642456,-1.60385798 0.09882,0.09882 1.390244,5.50588798 2.869835,12.01571008 2.082589,9.162839 2.784839,11.854595 3.109339,11.918215 0.23055,0.0452 0.48658,0.43215 0.56897,0.8599 0.0824,0.42774 0.21696,1.12662 0.29906,1.55307 0.17003,0.88316 -0.1878,1.17565 -1.81071,1.48011 -1.1957,0.22432 -1.321648,0.3953 -1.112561,1.51035 l 0.162086,0.86439 8.877745,-0.0532 c 4.88276,-0.0293 8.90746,-0.0888 8.94378,-0.13229 0.0363,-0.0435 0.14312,-0.50622 0.23734,-1.02829 l 0.17132,-0.9492 -1.45463,-0.32553 c -0.80004,-0.17904 -1.5126,-0.41935 -1.58347,-0.53402 -0.0709,-0.11467 -0.0544,-0.83694 0.0366,-1.60504 0.12198,-1.02994 0.28928,-1.42895 0.63729,-1.51996 0.32114,-0.084 0.56437,-0.55866 0.76137,-1.485845 1.10903,-5.219689 5.13572,-22.30591208 5.29873,-22.48382108 0.11052,-0.120612 1.64704,0.163335 3.4145,0.630994 2.62368,0.69421098 3.18902,0.92873198 3.07985,1.27762798 -0.0735,0.235037 -0.43271,1.737027 -0.79813,3.337756 -0.36543,1.600729 -1.53972,6.7204161 -2.60954,11.3770821 -1.65337,7.196686 -1.89181,8.529326 -1.58963,8.884376 0.47104,0.55345 0.44931,1.41155 -0.0607,2.39784 -0.39938,0.7723 -0.47652,0.80123 -1.90513,0.71446 -1.48012,-0.0899 -1.48991,-0.0856 -1.66017,0.73599 l -0.17128,0.82641 1.58605,0.16577 c 0.87232,0.0912 2.14544,0.16578 2.82914,0.16578 1.86552,0 2.11886,0.41757 2.11886,3.49244 0,2.13457 0.14298,2.99 0.92518,5.53542 2.02014,6.57393 2.48343,9.68363 3.82747,25.69064 1.34447,16.01221 3.60158,44.420782 3.77916,47.565382 l 0.0671,1.1891 -9.12661,0.97318 c -5.01963,0.53525 -9.16683,0.93296 -9.21601,0.88378 -0.25647,-0.25647 -7.18967,-47.498082 -7.18967,-48.989202 0,-0.34209 -0.0893,-0.62121 -0.19844,-0.62024 -0.10914,9.6e-4 -1.0054,5.68619 -1.99169,12.63385 -1.87443,13.20388 -5.11246,35.126152 -5.37329,36.378462 -0.0833,0.40018 -0.29091,0.714 -0.46125,0.69737 -0.17033,-0.0166 -4.238767,-0.44164 -9.0409546,-0.94448 z M 11.298501,47.725868 c 2.037292,-2.34826 3.742662,-4.42174 3.789713,-4.60774 0.277316,-1.09628 -1.163811,0.17375 -4.577208,4.0338 -3.5180926,3.97844 -4.1510946,4.93152 -3.2317856,4.86597 0.173313,-0.0124 1.98199,-1.94377 4.0192806,-4.29203 z m 33.205202,3.94247 c 0,-0.20461 -1.1463,-1.66313 -2.54733,-3.24114 -4.2693,-4.80861 -5.15842,-5.69126 -5.57284,-5.53224 -0.46974,0.18026 -0.39928,0.2719 4.15142,5.39918 3.12583,3.52186 3.96875,4.23851 3.96875,3.3742 z m -27.51666,-15.50297 c 1.58483,-1.58483 -0.634226,-4.15591 -2.340657,-2.71198 -0.84387,0.71406 -0.959861,1.6873 -0.300929,2.52499 0.685863,0.87194 1.872632,0.95594 2.641586,0.18699 z m 19.71455,-0.003 c 1.00842,-1.11429 0.23823,-3.17158 -1.18735,-3.17158 -0.83351,0 -1.85845,1.03202 -1.85845,1.87129 0,1.58764 2.00941,2.44549 3.0458,1.30029 z" /></svg>
