<?xml version="1.0" encoding="UTF-8" standalone="no"?>
<svg
   width="111.44872mm"
   height="67.843651mm"
   viewBox="0 0 111.44872 67.843651"
   version="1.1"
   xml:space="preserve"
   xmlns="http://www.w3.org/2000/svg"
   xmlns:svg="http://www.w3.org/2000/svg"><path
     style="fill:#000000"
     d="m 38.593191,67.638251 c -11.278425,-0.77125 -22.973384,-2.09538 -33.1125621,-7.45231 -3.60456,-1.69176 -7.154459,-6.07111 -4.62805703,-10.05451 3.49390203,-3.37405 4.56614403,-8.73204 9.29512313,-10.93964 3.842974,-2.61188 8.290571,-4.06131 12.445366,-6.02581 1.46638,-4.38368 4.448473,-8.1099 5.487316,-12.86994 1.636518,-4.0457 3.111542,-8.2249 5.477197,-11.9134604 4.61015,-3.59149 10.007558,-6.29738 15.593399,-8.01564001 7.75603,-1.02472 15.61843,0.33686 23.34192,1.15763001 4.39016,0.98176 10.48594,0.2759 12.69533,5.1687 2.41172,5.4523004 3.09509,11.5304104 4.99221,17.1170004 1.172,2.03519 2.00558,3.65178 4.58548,3.72675 6.013737,1.74269 12.780127,4.1369 16.043427,9.88564 2.38436,6.28247 -2.31797,12.52086 -7.20915,16.04699 -10.654117,7.43198 -23.580767,10.75532 -36.238507,12.84968 -9.51008,1.43362 -19.16781,1.81234 -28.768492,1.31892 z m 22.665202,-5.94862 c 14.34536,-1.77375 29.46787,-4.17057 41.334417,-13.04138 3.18057,-2.40461 6.66357,-7.01813 3.93563,-10.97383 -3.34782,-4.28872 -9.050497,-5.91749 -14.147477,-6.95915 4.79181,1.83645 11.068597,3.10593 13.007547,8.55169 1.09082,4.75207 -3.56307,7.90394 -6.789837,10.44908 -6.65565,3.99498 -13.77006,7.56037 -21.551,8.60738 -13.34079,2.58752 -27.11578,3.72986 -40.646665,2.13432 -8.133771,-1.27725 -16.641239,-2.64015 -23.691683,-7.14187 -4.4408701,-2.52514 -3.8039741,-8.80363 0.544096,-11.03673 3.361524,-3.76719 -5.4931081,1.89698 -5.2416921,4.42917 -1.395138,5.21287 4.3122721,8.33107 8.2864231,10.02319 11.808184,4.48129 24.62934,5.73862 37.186241,5.28117 2.59276,-0.0577 5.18814,-0.11363 7.774,-0.32304 z m -7.55617,-1.72356 c 10.3062,-0.82756 20.68391,-1.87959 30.6784,-4.6138 -2.34043,0.28785 -4.65702,0.50509 -0.91403,-0.67449 2.00307,-0.7198 7.03602,-2.01995 2.54827,-0.0114 -1.56175,1.28749 4.28247,-1.82328 5.47595,-2.39111 4.83689,-2.40564 10.225427,-4.97844 12.649767,-10.1108 1.50434,-5.24105 -4.849927,-7.93166 -8.777427,-9.48893 -1.72878,-0.68405 -3.77346,-2.05046 -2.49009,0.92329 -0.23556,4.30449 -1.44787,8.07523 -5.38122,10.64087 -4.39948,2.91478 -8.70716,6.79512 -14.21283,7.12514 1.62159,-0.52445 6.54408,-2.38777 1.99111,-1.14624 -2.12391,0.73914 -7.60324,1.50202 -7.89228,1.95587 2.33059,-0.0691 7.54235,-0.72748 8.01023,-0.0553 -7.19042,1.48851 -14.58796,1.42185 -21.85003,2.26252 -5.32852,2.79617 -11.988843,3.04442 -17.548368,0.77862 -0.996798,-4.56215 -6.823415,-0.1321 -10.568436,-1.34675 -3.28566,0.71583 -10.566656,-2.79807 -4.558231,-5.20038 -2.246465,-0.16153 -5.473985,-4.32953 -7.334417,-3.68694 -3.353428,0.79512 0.709262,9.06058 -1.985192,4.52053 -2.2782801,-2.3466 5.145688,-8.69948 0.512162,-4.67525 -3.4716781,3.55114 0.748062,8.3009 4.41103,9.44489 11.308196,4.52625 23.556862,6.74344 35.738842,5.83842 l 0.78103,-0.0419 z m -23.37802,-1.95146 c -4.075294,-0.8068 -8.657262,-2.14568 -12.115706,-3.77349 2.304273,-1.2563 5.905963,2.03745 8.92047,2.26105 3.46212,1.2812 8.540108,1.488 11.115119,2.34104 -2.650778,0.2438 -5.322316,-0.35966 -7.919883,-0.8286 z m 26.66874,0.45196 c -2.46466,-0.80054 5.04003,-0.34803 6.50988,-0.9429 7.74882,-0.59564 15.21735,-2.89342 22.56471,-5.25246 1.97066,-0.55817 9.23256,-1.26108 3.5768,0.13093 -3.74933,1.10245 -7.48734,2.12851 -11.18355,3.43497 -7.01125,1.61208 -14.23864,3.07926 -21.46784,2.62946 z m 42.98051,-13.66303 c 3.873727,-3.48334 0.375027,-8.02368 -3.18185,-9.69644 -1.8532,-0.63763 -5.2232,-2.83679 -1.16292,-1.47615 3.1439,1.45062 8.383847,3.22395 7.715567,7.51706 0.39075,1.72123 -5.413627,5.83064 -3.793217,4.13743 0.14081,-0.16063 0.28161,-0.32127 0.42242,-0.4819 z m -47.79184,6.40281 c 1.79792,-0.27077 5.65312,-5.0063 1.96584,-1.72281 -3.93586,3.86553 -12.194261,2.28046 -12.711382,-3.73856 -0.108434,-5.82858 7.514382,-6.9867 11.463592,-4.28686 2.08493,1.69896 4.02729,2.31968 1.03047,-0.0499 -3.80011,-3.01246 -11.083715,-2.9152 -12.767316,2.41051 -1.570183,4.06686 2.242639,8.33563 6.399906,8.14216 1.56756,0.10686 3.17989,-0.1025 4.61889,-0.75452 z m -1.77018,-2.89787 c 0.93466,-1.70755 -1.7922,-8.75522 0.7452,-3.8497 0.22406,2.7334 -0.57778,6.17665 3.08361,3.62511 2.36281,-1.27133 1.02691,-0.95219 -0.65984,-0.40464 1.6407,-1.3796 1.92453,-1.15721 -0.243,-1.14863 2.62115,-1.03239 1.29637,-1.16852 0.1726,-1.54871 3.72585,0.37976 -2.78477,-2.31849 0.88775,-1.14495 4.61064,1.39578 -3.67799,-2.83311 -5.21816,-2.07947 -6.774811,-1.2519 -5.427683,9.62541 0.91574,7.25613 l 0.19663,-0.24398 0.11948,-0.46119 z m -4.21229,-1.14552 c -2.951719,-3.39412 3.87952,-5.46421 2.6313,-0.81714 -0.39762,1.17378 -1.69624,2.08062 -2.6313,0.81714 z m -12.579547,1.42588 c 1.716186,-0.0838 5.830712,-2.8404 1.716945,-0.94989 -4.091967,2.56387 -12.617309,-0.64887 -9.987064,-6.20593 3.078138,-4.17435 9.431163,-3.08917 13.015669,-0.21843 -2.262988,-3.1946 -7.319602,-4.02284 -10.790566,-2.40359 -4.864134,1.80579 -3.753368,9.27363 1.315646,9.76149 1.544593,0.38806 3.180572,0.37207 4.72937,0.0164 z m 33.660927,-0.5071 c 2.7286,-0.5683 9.16719,-1.5298 9.71579,-2.90084 -5.5952,1.83849 -11.44145,2.80457 -17.29139,3.45673 0.46169,-2.41086 -0.9888,-6.11027 -0.0642,-7.3963 5.62535,0.0195 11.21438,-1.15345 16.52196,-2.94877 -2.01762,-0.53928 -8.41454,2.35064 -12.15822,2.12363 -2.7555,0.41318 -8.09023,-0.84844 -4.90422,3.52133 0.96642,2.61404 -1.8895,6.15854 2.21966,4.83384 1.99464,-0.15263 3.98199,-0.3971 5.96065,-0.68962 z m -34.265442,-2.12144 c 2.378182,-3.85128 -3.270294,-8.92791 -5.415033,-3.53737 -0.95346,3.32064 3.131676,3.97526 5.415033,3.53737 z m -4.013732,-1.60066 c -2.574902,-4.91813 5.386989,-3.07515 1.696637,0.32977 -0.552497,0.32961 -1.295758,0.15943 -1.696637,-0.32977 z m 7.287951,1.58858 c -0.21412,-0.5888 -2.479897,0.90512 0,0 z m 33.205203,-0.42266 c 3.22762,-0.3478 9.67943,-2.26108 6.6423,-5.8371 -4.78045,0.86182 -6.88263,2.57825 -11.13707,3.03975 -1.36347,1.12269 4.69302,0.23779 5.93755,-0.69558 2.90439,-0.0945 -5.69369,1.85109 -2.48573,2.91422 -2.7638,1.31259 -2.54226,1.51135 0.26119,0.7424 l 0.78176,-0.1637 z m -33.337495,-0.35901 c 2.983687,-0.43511 -2.96668,-1.15739 1.069603,-1.75565 -3.230277,10e-4 1.991163,-0.71246 -0.896307,-1.28398 4.459575,0.56759 -6.760083,-4.942 -2.193039,0.0783 0.649129,1.19799 -0.497775,4.35217 2.019743,2.96132 z m 44.846875,-1.69651 c -0.18777,-1.97676 -0.82581,-7.21738 -2.07105,-7.09076 1.19799,2.09167 0.47545,6.88856 1.97582,7.77692 z m 4.93722,-5.2971 c 1.94915,-1.25117 3.63464,-5.90822 1.00554,-4.02786 4.17475,-4.54708 -3.21307,1.70051 -3.09859,2.15436 3.49631,-2.58649 -3.6708,3.66834 0.23271,2.72319 -2.57892,2.41985 0.91592,0.0627 1.86034,-0.84969 z m -24.2518,-0.28242 c 8.23767,-0.78369 17.03792,-3.11046 23.02045,-9.1513 3.10605,-3.12329 -0.0468,-7.78885 -0.40568,-11.50403 -1.73397,-2.97856 -0.60747,-10.5223504 -5.1768,-9.7998004 -8.46806,0.85369 -16.86712,2.53661 -24.74987,5.8234304 -4.71321,1.6079 -9.56444,4.84392 -14.685261,2.92274 -3.037467,1.03891 -4.229047,-5.46352 -2.271094,-4.09499 2.037178,3.70685 7.197745,3.36163 10.418025,1.53282 2.24384,-1.02573 6.80972,-2.68789 7.63252,-3.51661 -4.46747,0.98925 -8.82925,4.70586 -13.507817,2.94333 -0.281642,-3.5899404 6.718407,-4.7788904 9.768987,-6.0626304 6.7554,-1.16009 13.78942,-2.41085 20.57366,-1.04538 0.41669,0.54823 6.84711,-0.17912 1.6445,-0.53955 -8.0034,-0.77397 -16.12906,-2.00688 -24.15376,-0.976 -4.66816,1.00285 -8.743429,3.72841 -12.867281,6.0370504 -2.894058,7.50126 -6.600751,14.76267 -8.515373,22.58251 2.29587,1.76809 8.55219,3.1311 9.253123,2.79389 -3.714682,-1.41016 -11.676828,-1.26434 -7.597856,-6.85941 1.792739,-4.62158 3.289799,-9.3933 5.469185,-13.84374 3.719613,2.49918 8.429112,3.71498 12.854332,2.39537 4.5075,-0.98924 8.89798,-2.4425 13.23286,-3.9984 -5.10873,4.59297 -11.72997,7.50768 -18.554058,8.20492 -2.210719,-0.0682 -5.301829,-0.18781 -6.801471,-0.6426 1.92907,1.51966 3.29628,2.97562 0.0902,1.61491 -5.325149,-2.33074 5.283459,4.43926 -0.124335,2.52973 -5.320392,-1.60648 1.600117,2.02687 1.113977,2.89021 -2.214433,-0.0549 -6.233977,-2.09322 -2.663549,0.70903 2.868091,1.42274 2.697553,2.8949 6.678238,4.10643 2.988728,0.91246 8.801168,0.67797 10.380128,0.69779 -1.74768,0.0868 -9.368544,-0.76738 -3.94539,-0.88735 3.34254,0.29765 9.53155,0.0174 11.32337,1.17046 -2.30556,-0.26668 -6.4502,0.91783 -1.76219,0.58503 5.55926,-0.0621 11.60951,0.38517 16.26996,-3.27497 3.56158,-1.84941 6.50767,-4.70491 8.90707,-7.79018 -1.1013,4.78805 -5.15469,8.07574 -9.65211,9.55647 1.61042,1.26987 6.94557,-2.94298 8.11789,-3.55048 -2.05413,4.01712 -7.39586,4.88841 -11.34757,6.39164 -4.31856,1.30654 -8.82691,1.88261 -13.30856,2.06574 1.58794,0.67266 3.61001,-0.10062 5.34155,-0.0161 z m 19.91944,-9.03934 c 2.90488,-3.878 2.15213,-8.85248 0.92264,-13.20442 -0.54276,-1.72525 -0.52454,-4.34178 0.35056,-1.15214 0.92491,4.34124 4.05157,10.0092 -7.1e-4,13.66508 -0.21122,0.1676 -1.402,1.78812 -1.27249,0.69148 z m -38.70486,-5.38046 c 3.39974,-1.02682 8.48754,-2.59975 12.36996,-4.31426 2.10797,-1.19554 5.60505,-3.81393 2.24905,-0.21671 -3.44211,3.15669 -8.34542,4.37463 -12.89087,4.82703 l -1.033101,-0.0619 z m 12.43542,-9.86509 c 5.78947,-2.56485 12.09269,-4.4147404 18.46204,-4.2754204 -6.08927,1.3931804 -12.22177,2.7097104 -18.26942,4.3221104 z m 28.20968,20.98092 c 1.81288,-1.21351 5.70675,-4.65838 5.05575,-5.90904 -1.30229,2.98625 -5.85692,5.14325 -7.00333,6.96405 0.70469,-0.2414 1.32147,-0.66484 1.94758,-1.05501 z" /></svg>
