<?xml version="1.0" encoding="UTF-8" standalone="no"?>
<svg
   width="79.067368mm"
   height="72.577232mm"
   viewBox="0 0 79.067368 72.577232"
   version="1.1"
   xml:space="preserve"
   xmlns="http://www.w3.org/2000/svg"
   xmlns:svg="http://www.w3.org/2000/svg"><g
     transform="translate(-63.006904,-114.67732)"><path
       style="fill:#000000"
       d="m 96.123133,187.03832 c -2.265628,-0.53739 -4.031084,-2.7069 -4.031084,-4.95367 0,-1.70347 1.207371,-3.74676 2.649765,-4.48433 1.870873,-0.95667 3.734863,-0.84135 7.404406,0.4581 4.22063,1.4946 3.96875,1.43998 3.96875,0.86051 0,-0.36016 -0.66096,-0.86093 -2.33164,-1.76658 -4.361402,-2.36423 -6.442801,-4.42127 -8.526843,-8.42707 -0.937369,-1.80174 -2.106104,-4.70559 -2.106104,-5.23285 0,-0.0958 0.403726,-0.36668 0.89717,-0.60199 l 0.897171,-0.42783 0.588208,1.6356 c 1.886886,5.24675 4.834458,8.86534 8.994538,11.04214 1.23692,0.64723 2.42755,1.13821 2.64583,1.09107 0.21828,-0.0472 0.87312,-0.16621 1.45521,-0.26458 1.04418,-0.17648 1.0786,-0.21954 2.57474,-3.22158 2.35433,-4.72399 3.529,-9.4878 3.82682,-15.51947 l 0.15881,-3.21634 1.06014,-0.41644 1.06015,-0.41644 -0.17168,3.77826 c -0.0944,2.07804 -0.39622,5.02248 -0.67066,6.5432 -0.81022,4.48954 -2.87193,10.02313 -4.75318,12.75743 -0.59196,0.86039 -0.80016,1.45949 -0.78897,2.27033 0.008,0.60582 -0.14317,1.29233 -0.33675,1.52558 -0.45171,0.54428 0.0761,0.96473 1.98256,1.57923 2.4249,0.7816 3.16006,1.64802 2.12632,2.50595 -0.34431,0.28575 -0.68945,0.24128 -2.05052,-0.26417 -2.96152,-1.09979 -2.79244,-1.17099 -2.88166,1.21353 l -0.0778,2.07914 h -0.92604 -0.92604 l 0.0504,-2.44739 c 0.0376,-1.82787 -0.0346,-2.4474 -0.28544,-2.4474 -0.18471,0 -1.16449,0.64387 -2.17728,1.43081 -2.2816,1.77281 -4.63365,2.987 -6.455528,3.33251 -1.548846,0.29373 -1.624836,0.29386 -2.843779,0.005 z m 4.117827,-2.5362 c 1.16413,-0.48494 4.55109,-2.76901 4.55109,-3.06912 0,-0.13072 -0.14883,-0.28604 -0.33073,-0.34515 -0.1819,-0.0591 -1.48639,-0.53162 -2.89886,-1.05003 -2.798062,-1.02694 -4.519523,-1.19039 -5.763322,-0.54719 -2.28491,1.18157 -2.072303,4.22871 0.371512,5.32461 0.913337,0.40958 2.657557,0.2754 4.07031,-0.31312 z m -27.463493,-19.1702 c -2.511742,-0.34147 -5.774676,-1.47762 -7.174829,-2.49826 -2.320953,-1.69185 -3.153046,-4.58389 -2.221452,-7.72091 1.223003,-4.1183 6.43684,-9.04556 13.929475,-13.16384 l 1.75507,-0.96466 0.153661,1.12998 c 0.08451,0.6215 0.232524,2.22749 0.328913,3.56888 0.151946,2.11456 0.252697,2.48964 0.757612,2.82047 2.010523,1.31735 7.134256,1.62015 11.690861,0.69091 7.819216,-1.59459 17.283402,-5.81006 25.892142,-11.53269 4.11271,-2.73391 5.68854,-4.06586 5.68854,-4.80814 0,-0.27262 -0.35766,-1.15604 -0.79482,-1.96315 l -0.79482,-1.46748 2.71305,-0.56437 c 8.0045,-1.6651 14.80049,-1.02281 16.67738,1.57618 2.18282,3.02263 -0.84479,7.80814 -8.0112,12.6627 -2.98944,2.02506 -8.40787,4.96054 -12.20793,6.61375 -4.53249,1.97186 -9.48791,3.71472 -9.48791,3.33697 0,-0.37804 0.61978,-0.8006 7.67292,-5.23136 2.98318,-1.87402 5.58441,-3.56633 5.78052,-3.76069 0.27573,-0.27327 0.28861,-0.48033 0.0568,-0.91341 -0.16484,-0.30802 -0.42161,-0.56004 -0.57058,-0.56004 -0.33924,0 -12.11281,7.35535 -15.8501,9.9021 -9.896508,6.74388 -18.562473,10.76681 -26.458333,12.28251 -3.389287,0.65062 -7.221295,0.87774 -9.525,0.56455 z m 10.521889,-17.54518 c -0.834159,-0.18913 -1.585609,-0.41283 -1.669888,-0.49711 -0.08428,-0.0843 -0.219227,-0.79085 -0.299884,-1.57016 l -0.146649,-1.41691 1.684245,0.0938 c 6.877007,0.3831 20.78817,-4.06887 34.49258,-11.03862 1.89177,-0.96211 3.50836,-1.78347 3.59243,-1.82525 0.0841,-0.0418 0.28401,0.21194 0.44433,0.5638 0.35058,0.76944 0.14962,0.98158 -2.99427,3.16092 -6.26923,4.34582 -14.66973,8.59231 -21.415409,10.82558 -4.892806,1.61985 -10.809702,2.35643 -13.687485,1.70393 z m -2.181783,-5.5347 c -0.191585,-0.57628 -0.726869,-9.98532 -0.763901,-13.42761 -0.03161,-2.93801 0.03247,-3.455 0.573918,-4.63021 0.797332,-1.73061 1.711148,-2.66355 3.491543,-3.5646 2.204901,-1.1159 9.85891,-3.46572 10.194779,-3.12985 0.151747,0.15174 -6.946573,3.91633 -7.384445,3.91633 -0.412133,0 -1.222834,0.84084 -1.222834,1.26829 0,0.16533 0.237917,0.42792 0.528705,0.58355 0.443066,0.23712 1.418048,-0.1762 6.01927,-2.55174 10.651742,-5.4993 11.994382,-6.02534 15.412442,-6.03839 2.0071,-0.008 2.40134,0.0758 3.66595,0.77627 0.77934,0.43167 1.76672,1.20557 2.19416,1.71979 0.76449,0.91967 3.81271,6.71285 5.62741,10.69493 l 0.92535,2.03056 -5.08196,2.49382 c -10.69269,5.24712 -20.1039,8.6342 -27.17466,9.7801 -3.122219,0.506 -6.849757,0.5479 -7.005727,0.0788 z" /></g></svg>
