<?xml version="1.0" encoding="UTF-8" standalone="no"?>
<svg
   width="108.37705mm"
   height="102.8494mm"
   viewBox="0 0 108.37705 102.8494"
   version="1.1"
   xml:space="preserve"
   xmlns="http://www.w3.org/2000/svg"
   xmlns:svg="http://www.w3.org/2000/svg"><path
     style="fill:#000000"
     d="m 37.833861,102.64428 c -0.323259,-2.28237 3.729567,-9.034248 0.737807,-8.328148 -1.814276,1.47096 -9.852502,4.16401 -9.488851,1.29433 0.730476,-4.08444 7.949795,-7.76848 8.047775,-9.29289 -5.449015,-0.76199 -10.783103,2.31522 -16.374557,1.65618 -2.640599,-0.71911 -8.459633,1.71269 -9.108289,-0.058 2.29163,-4.27978 5.320154,-8.2999 10.363168,-9.35381 -2.943449,-0.40977 -6.015631,0.1626 -8.758346,-1.26309 -3.144386,-1.51039 -7.914436,-4.3692 -9.411374,-6.29586 3.448373,-1.573 7.0314,-3.47365 10.940742,-2.81795 4.223088,0.21528 8.170592,2.78686 11.562506,4.55423 -4.563528,-4.05791 -10.674408,-5.37924 -15.908655,-8.22328 C 6.005098,60.789902 2.716859,55.872642 0,50.812712 c 4.759876,0.31815 10.116387,2.77526 14.884531,4.46681 4.304086,0.8738 -3.999901,-4.70988 -5.623473,-6.12658 -4.150875,-3.10154 -7.414189,-10.05157 -6.531615,-14.32429 4.414225,2.63232 7.894022,6.5041 11.454838,10.15549 0.163242,-3.76585 -1.931543,-6.8816 -4.015829,-9.83096 -2.111145,-3.46298 -3.255754,-7.47876 -2.878698,-11.52641 -0.404638,-2.63136 0.332263,-8.00179 2.820399,-3.22585 3.193561,2.43989 4.775424,8.02816 6.298537,10.30542 0.486809,-5.32223 -2.069684,-10.46124 -1.163935,-15.83421 0.08795,-5.4103902 3.957569,2.00496 4.847425,4.25673 -0.38745,-5.73409 2.274013,-11.2513702 5.762563,-15.6262902 1.992704,3.1462 1.687748,9.4057502 0.436054,13.5096202 1.807709,-1.14367 4.171011,-2.72135 4.071817,-5.28328 0.443803,-5.0211702 4.930506,-7.5579402 9.005848,-9.4274172 3.859204,-2.75705396 -0.458918,5.418407 4.027229,2.170637 7.223885,-3.320824 1.093077,5.7994602 -1.33178,8.1230002 -1.44206,2.28506 -3.951344,2.53383 -6.346728,2.30039 -1.950926,0.23155 -4.33645,-0.72627 -5.703512,1.10315 -1.987919,1.87577 -6.486386,6.1454 -6.16843,7.24457 3.911179,-3.30044 9.279919,-6.59397 14.467978,-4.09161 6.899369,1.53101 -4.02684,5.4576 -6.51149,6.1671 -3.769558,1.37474 -9.12104,-0.10975 -11.786272,3.36171 -3.045787,5.83517 -4.403355,12.59052 -3.206343,19.10196 0.718658,-3.41742 0.264473,-7.14574 2.353846,-10.13943 2.252201,-2.94697 6.943749,-8.64701 9.143004,-8.89277 -0.32342,6.74802 -5.174141,11.79285 -9.124521,16.78025 -1.616841,2.3743 -1.145973,5.45593 -0.95532,8.12653 0.408905,-4.89403 3.163469,-9.38602 6.630698,-12.83229 1.09156,4.33816 0.405774,9.3763 -0.997507,13.66112 -1.253155,2.90711 -2.33953,6.2243 -0.875875,9.23501 0.48914,-0.74768 0.71385,-5.36612 1.644174,-7.2954 0.338426,-1.99404 1.443539,-3.51311 3.005921,-4.74891 2.327555,-2.29999 4.671837,-4.58294 7.017903,-6.86402 1.447644,4.23099 -1.169104,9.12704 -2.615844,13.22415 -1.529215,4.28268 -7.039527,8.1987 -3.999153,12.99604 1.707009,3.1693 2.085513,2.74772 1.305068,-0.11039 -0.08443,-2.77638 1.123734,-7.32401 2.854508,-8.36538 -0.437075,2.53967 -2.040459,4.79433 -1.743224,7.48221 -0.777559,1.82947 2.587207,6.78412 0.859015,2.2858 -1.367406,-5.41456 2.764608,-9.78383 3.721641,-14.78252 3.372284,2.52604 2.10596,9.34701 1.231971,13.41446 -1.253722,3.28509 0.09313,4.79391 2.283187,1.69264 0.336586,-3.07996 5.451437,-1.20526 2.358386,-4.2466 -1.49829,-2.79929 -3.658165,-7.62595 1.343826,-4.68866 4.264078,-1.13191 5.535421,7.73137 8.197318,1.78282 2.06114,-2.80745 5.05162,1.6642 7.85222,-0.44551 3.95295,0.004 3.34387,9.39913 7.12464,4.05443 3.10725,-0.22811 3.09008,-6.46908 4.98386,-1.67233 2.58861,1.79183 2.66971,9.20794 3.42593,9.02021 0.65471,-4.97368 -2.5102,-9.69998 -1.80946,-14.78599 0.78066,-2.97333 0.1595,-10.56391 2.63964,-10.70891 3.58152,4.00225 5.03591,9.54212 5.4802,14.7598 0.0922,2.68144 -2.971,10.86717 0.19592,4.68659 2.19363,-4.28985 3.64536,-9.58902 0.70676,-13.93169 -1.52394,-3.04162 -2.44472,-6.35355 -1.70892,-9.72431 -0.0684,-4.39243 1.61416,-10.11518 4.64454,-3.49475 3.34979,4.10125 4.83533,9.57312 3.59293,14.76798 1.11,-1.92961 -0.28705,2.7734 0.9822,-0.87017 1.20733,-3.91421 2.03719,-8.44798 0.33594,-12.28408 -2.4683,-2.84069 -5.82526,-5.07256 -7.00598,-8.79933 -1.64889,-2.62366 -2.33461,-8.54255 1.68357,-4.10638 4.09236,3.08261 5.25916,8.26484 6.93385,12.8308 -0.23982,-5.74752 -2.26092,-11.32099 -4.75021,-16.45227 -6.65116,-2.94504 -14.7577,-2.00401 -20.44152,-7.17182 -3.18055,-2.43365 3.73923,-2.5454 5.61962,-3.59771 4.84021,-0.71609 8.75439,3.59993 11.88106,6.6836 -2.03847,-3.49156 -5.09734,-6.45836 -8.22843,-9.01638 -3.43957,-0.24879 -7.23811,0.51993 -10.22778,-1.53235 -2.4846,-2.94629 -5.50979,-5.8799902 -6.35969,-9.7337902 2.71012,-1.224656 8.82329,4.35897 6.54097,-1.258853 -1.49181,-6.118762 4.15329,-0.06666 6.62512,0.556203 4.56472,2.08796 6.05848,7.2535602 6.17427,11.8900902 1.72728,1.80907 3.27368,3.97187 5.15316,5.506 -2.59234,-4.39207 -2.53997,-9.51832 -2.02061,-14.4336002 0.13209,-6.86572596 3.8196,2.03186 4.86677,4.3094802 0.64827,1.61391 1.90411,3.0914 1.54246,4.93207 -0.40653,4.65727 4.83918,-7.1340202 3.8881,0.13394 0.59539,5.87018 -2.43405,11.76138 0.003,17.46151 0.8256,4.27956 1.13405,2.27882 1.06671,-0.77916 0.35814,-5.4576 2.5194,-10.78908 5.19181,-15.41698 3.362414,6.84669 2.82152,15.68203 -1.57247,21.99439 -1.8181,3.64898 0.79402,0.60911 2.01076,-0.62083 2.2063,-1.89586 6.621464,-9.37198 6.211514,-2.35791 0.78689,6.09457 -2.93009,11.6072 -7.964904,14.68146 -2.50589,1.50979 -6.82352,7.62251 -5.57522,8.66305 4.35633,-4.84257 10.676544,-7.79893 17.256894,-7.18602 3.58099,0.96914 -3.69159,7.31093 -5.24373,9.62515 -5.232924,4.11231 -12.198184,4.80689 -17.779014,8.31387 5.62943,-0.33462 11.61344,-0.25896 16.714154,2.32485 -3.731264,2.08336 -8.132014,4.46206 -12.671274,4.73646 -1.93305,0.32723 -8.54885,0.15746 -3.27111,1.22876 3.74887,1.38749 9.29477,6.68017 9.5659,9.3345 -5.26714,0.15745 -10.59077,0.54558 -15.8426,0.33464 -2.62899,-0.394 -5.54057,-1.68213 -8.07162,-0.99875 -3.35753,2.75617 5.79949,1.90887 6.66953,5.00178 3.44178,1.72651 3.01429,3.68411 -1.13932,3.01745 -3.38073,0.83471 -8.04242,-1.8207 -10.18371,-1.98903 1.47915,2.81908 4.36417,7.948578 -0.71229,5.06624 -4.18885,-3.16071 -8.78912,2.957898 -12.49214,-1.93667 -1.97631,-2.57812 -4.101793,3.01975 -7.022159,2.00008 -2.626728,0.0848 -5.213799,5.893548 -8.083826,4.537398 z m 21.466085,-6.521708 c 2.81632,-1.02455 8.33237,-2.92902 3.20159,-5.81999 -2.48725,-1.75649 -4.08378,-2.33195 -2.83873,-0.4701 -3.59311,-3.7388 2.60469,6.38896 -1.2429,0.97653 -2.02045,-2.82738 1.43248,5.70344 -1.25449,1.01378 -1.6783,-3.39395 -0.97249,-0.51926 -1.59176,0.29468 -0.23593,-2.78975 -0.6777,1.5326 -1.28786,-1.81603 -2.06166,1.97914 1.87562,8.09121 5.0142,5.82083 z m -11.248663,0.0259 c 2.817563,-0.19625 4.772693,-8.59925 1.943533,-4.01767 -3.213176,3.74757 0.5851,-1.47196 -1.40756,-1.86219 -4.278382,3.95825 3.31935,-5.36244 -1.329617,-0.76521 -4.301353,3.43088 3.914347,-4.56728 -1.67981,-1.3482 -4.658453,1.91397 5.013787,-3.10823 -0.622765,-1.03116 -2.648121,1.15052 -1.746422,0.21921 -2.241247,0.0409 -1.099942,-0.0642 5.217986,-3.63019 0.13148,-1.68036 -3.124453,0.89478 -4.832177,6.12054 -1.536168,7.77964 3.645173,0.11069 1.716368,6.026 6.742154,2.88429 z m 18.754453,-8.22561 c 3.06299,-1.3305 4.64074,-3.4149 2.60109,-6.27226 0.98178,-3.12309 0.0476,-6.6798 -3.81152,-6.00986 -2.50966,-0.55914 -9.69849,4.60675 -3.82444,1.88182 6.41972,-2.35818 -4.48677,2.46842 -0.88282,2.0636 2.05486,-0.26618 4.52332,0.56817 1.15519,0.53722 0.57275,1.39934 -0.55172,2.16179 2.98226,1.33778 4.11711,0.0578 -6.77689,1.24491 -0.57402,1.47096 -1.99393,0.74484 -5.74663,-0.0696 -2.62737,1.15772 3.71344,0.0566 2.38964,0.97734 -0.23545,0.79392 -2.18769,-0.0831 5.05619,2.50919 -0.73386,1.42988 -4.65798,-0.62039 4.85031,4.36039 5.95094,1.60922 z m -5.23103,-2.14655 c -1.30546,-0.4521 -0.18898,0.54445 0,0 z m -19.671028,-2.76988 c -2.614578,-0.82979 -5.99182,-4.63796 -1.397104,-1.44948 3.514337,1.51874 6.182113,1.03371 2.785312,-0.35279 5.016816,1.35404 -3.045976,-2.54314 0.210548,-1.91553 -4.262956,-4.63254 4.820957,3.08877 0.929873,-1.34369 -1.527412,-2.49993 4.073869,2.65479 0.809887,-1.64905 1.885501,0.6121 3.864905,2.711 1.472687,-0.41462 -2.428502,-3.07934 -0.804901,-1.57755 1.173254,-0.46356 -0.39034,-3.44323 -5.270946,-5.12462 -7.669956,-3.18908 -1.07863,3.17198 -5.414122,3.84348 -2.548755,7.82365 -0.871043,2.97466 10.056102,5.11002 4.234254,2.95415 z m 4.573238,-8.35915 c -1.200389,-1.34397 1.381481,0.23212 0,0 z m -0.408141,1.95791 c -1.048179,-1.31977 0.69438,1.4711 0,0 z m 10.427011,-3.63365 c -0.60879,4.30286 2.52728,-4.59195 1.12148,0.92982 -1.98415,5.90336 4.58357,-6.19358 2.01294,0.63032 1.82674,0.26089 2.55045,-4.64182 0.0303,-6.85378 -0.95603,-2.86639 -4.07321,0.29189 -5.8921,-1.19972 -2.74075,-2.57087 -5.64994,3.80496 -5.301461,6.30814 0.04815,0.47004 2.193931,2.63478 2.601421,1.12881 1.01884,3.63843 0.7529,0.34165 0.7475,-1.6919 0.31095,-4.27706 0.93284,4.36749 1.36055,0.13243 0.43907,4.20917 0.41855,3.60968 1.3409,-0.0658 1.27927,-1.62849 -0.62405,6.8432 1.03511,2.33537 0.28847,-0.56385 0.52611,-1.16611 0.94334,-1.65365 z m 4.36895,1.82942 c 0.64755,-1.96201 -1.51265,1.8653 0,0 z m 34.63523,-10.83034 c 12.322274,-7.11081 0,0 0,0 z"/></svg>
