<?xml version="1.0" encoding="UTF-8" standalone="no"?>
<svg
   width="108.37705mm"
   height="102.8494mm"
   viewBox="0 0 108.37705 102.8494"
   version="1.1"
   xml:space="preserve"
   xmlns="http://www.w3.org/2000/svg"
   xmlns:svg="http://www.w3.org/2000/svg"><g
     transform="translate(-37.043223,-97.155551)"><path
       style="fill:#000000"
       d="m 74.877084,199.79983 c -0.323259,-2.28237 3.729567,-9.03425 0.737807,-8.32815 -1.814276,1.47096 -9.852502,4.16401 -9.488851,1.29433 0.730476,-4.08444 7.949795,-7.76848 8.047775,-9.29289 -5.449015,-0.76199 -10.783103,2.31522 -16.374557,1.65618 -2.640599,-0.71911 -8.459633,1.71269 -9.108289,-0.058 2.29163,-4.27978 5.320154,-8.2999 10.363168,-9.35381 -2.943449,-0.40977 -6.015631,0.1626 -8.758346,-1.26309 -3.144386,-1.51039 -7.914436,-4.3692 -9.411374,-6.29586 3.448373,-1.573 7.0314,-3.47365 10.940742,-2.81795 4.223088,0.21528 8.170592,2.78686 11.562506,4.55423 -4.563528,-4.05791 -10.674408,-5.37924 -15.908655,-8.22328 -4.430689,-3.72609 -7.718928,-8.64335 -10.435787,-13.70328 4.759876,0.31815 10.116387,2.77526 14.884531,4.46681 4.304086,0.8738 -3.999901,-4.70988 -5.623473,-6.12658 -4.150875,-3.10154 -7.414189,-10.05157 -6.531615,-14.32429 4.414225,2.63232 7.894022,6.5041 11.454838,10.15549 0.163242,-3.76585 -1.931543,-6.8816 -4.015829,-9.83096 -2.111145,-3.46298 -3.255754,-7.47876 -2.878698,-11.52641 -0.404638,-2.63136 0.332263,-8.00179 2.820399,-3.22585 3.193561,2.43989 4.775424,8.02816 6.298537,10.30542 0.486809,-5.32223 -2.069684,-10.46124 -1.163935,-15.83421 0.08795,-5.41039 3.957569,2.00496 4.847425,4.25673 -0.38745,-5.73409 2.274013,-11.25137 5.762563,-15.62629 1.992704,3.1462 1.687748,9.40575 0.436054,13.50962 1.807709,-1.14367 4.171011,-2.72135 4.071817,-5.28328 0.443803,-5.02117 4.930506,-7.55794 9.005848,-9.427414 3.859204,-2.757054 -0.458918,5.418404 4.027229,2.170634 7.223887,-3.320821 1.093077,5.79946 -1.33178,8.123 -1.44206,2.28506 -3.951344,2.53383 -6.346728,2.30039 -1.950926,0.23155 -4.33645,-0.72627 -5.703512,1.10315 -1.987919,1.87577 -6.486386,6.1454 -6.16843,7.24457 3.911179,-3.30044 9.279919,-6.59397 14.467978,-4.09161 6.899369,1.53101 -4.02684,5.4576 -6.51149,6.1671 -3.769558,1.37474 -9.12104,-0.10975 -11.786272,3.36171 -3.045787,5.83517 -4.403355,12.59052 -3.206343,19.10196 0.718658,-3.41742 0.264473,-7.14574 2.353846,-10.13943 2.252201,-2.94697 6.943749,-8.64701 9.143004,-8.89277 -0.32342,6.74802 -5.174141,11.79285 -9.124521,16.78025 -1.616841,2.3743 -1.145973,5.45593 -0.95532,8.12653 0.408905,-4.89403 3.163469,-9.38602 6.630698,-12.83229 1.09156,4.33816 0.405774,9.3763 -0.997507,13.66112 -1.253155,2.90711 -2.33953,6.2243 -0.875875,9.23501 0.48914,-0.74768 0.71385,-5.36612 1.644174,-7.2954 0.338426,-1.99404 1.443539,-3.51311 3.005921,-4.74891 2.327555,-2.29999 4.671837,-4.58294 7.017903,-6.86402 1.447644,4.23099 -1.169104,9.12704 -2.615844,13.22415 -1.529215,4.28268 -7.039527,8.1987 -3.999153,12.99604 1.707009,3.1693 2.085513,2.74772 1.305068,-0.11039 -0.08443,-2.77638 1.123734,-7.32401 2.854508,-8.36538 -0.437075,2.53967 -2.040459,4.79433 -1.743224,7.48221 -0.777559,1.82947 2.587207,6.78412 0.859015,2.2858 -1.367406,-5.41456 2.764608,-9.78383 3.721641,-14.78252 3.372284,2.52604 2.10596,9.34701 1.231971,13.41446 -1.253722,3.28509 0.09313,4.79391 2.283187,1.69264 0.336586,-3.07996 5.451437,-1.20526 2.358386,-4.2466 -1.49829,-2.79929 -3.658165,-7.62595 1.343826,-4.68866 4.264078,-1.13191 5.535421,7.73137 8.197318,1.78282 2.061143,-2.80745 5.051623,1.6642 7.852219,-0.44551 3.95295,0.004 3.343875,9.39913 7.124642,4.05443 3.10725,-0.22811 3.09008,-6.46908 4.98386,-1.67233 2.58861,1.79183 2.66971,9.20794 3.42593,9.02021 0.65471,-4.97368 -2.5102,-9.69998 -1.80946,-14.78599 0.78066,-2.97333 0.1595,-10.56391 2.63964,-10.70891 3.58152,4.00225 5.03591,9.54212 5.4802,14.7598 0.0922,2.68144 -2.971,10.86717 0.19592,4.68659 2.19363,-4.28985 3.64536,-9.58902 0.70676,-13.93169 -1.52394,-3.04162 -2.44472,-6.35355 -1.70892,-9.72431 -0.0684,-4.39243 1.61416,-10.11518 4.64454,-3.49475 3.34979,4.10125 4.83533,9.57312 3.59293,14.76798 1.11,-1.92961 -0.28705,2.7734 0.9822,-0.87017 1.20733,-3.91421 2.03719,-8.44798 0.33594,-12.28408 -2.4683,-2.84069 -5.82526,-5.07256 -7.00598,-8.79933 -1.64889,-2.62366 -2.33461,-8.54255 1.68357,-4.10638 4.09236,3.08261 5.25916,8.26484 6.93385,12.8308 -0.23982,-5.74752 -2.26092,-11.32099 -4.75021,-16.45227 -6.65116,-2.94504 -14.7577,-2.00401 -20.44152,-7.17182 -3.180556,-2.43365 3.73923,-2.5454 5.61962,-3.59771 4.84021,-0.71609 8.75439,3.59993 11.88106,6.6836 -2.03847,-3.49156 -5.09734,-6.45836 -8.22843,-9.01638 -3.43957,-0.24879 -7.23811,0.51993 -10.22778,-1.53235 -2.484606,-2.94629 -5.509793,-5.87999 -6.359695,-9.73379 2.710124,-1.224653 8.823295,4.35897 6.540975,-1.25885 -1.49181,-6.118762 4.15329,-0.06666 6.62512,0.5562 4.56472,2.08796 6.05848,7.25356 6.17427,11.89009 1.72728,1.80907 3.27368,3.97187 5.15316,5.506 -2.59234,-4.39207 -2.53997,-9.51832 -2.02061,-14.4336 0.13209,-6.865723 3.8196,2.03186 4.86677,4.30948 0.64827,1.61391 1.90411,3.0914 1.54246,4.93207 -0.40653,4.65727 4.83918,-7.13402 3.8881,0.13394 0.59539,5.87018 -2.43405,11.76138 0.003,17.46151 0.8256,4.27956 1.13405,2.27882 1.06671,-0.77916 0.35814,-5.4576 2.5194,-10.78908 5.19181,-15.41698 3.36241,6.84669 2.82152,15.68203 -1.57247,21.99439 -1.8181,3.64898 0.79402,0.60911 2.01076,-0.62083 2.2063,-1.89586 6.62146,-9.37198 6.21151,-2.35791 0.78689,6.09457 -2.93009,11.6072 -7.9649,14.68146 -2.50589,1.50979 -6.82352,7.62251 -5.57522,8.66305 4.35633,-4.84257 10.67654,-7.79893 17.25689,-7.18602 3.58099,0.96914 -3.69159,7.31093 -5.24373,9.62515 -5.23292,4.11231 -12.19818,4.80689 -17.77901,8.31387 5.62943,-0.33462 11.61344,-0.25896 16.71415,2.32485 -3.73126,2.08336 -8.13201,4.46206 -12.67127,4.73646 -1.93305,0.32723 -8.54885,0.15746 -3.27111,1.22876 3.74887,1.38749 9.29477,6.68017 9.5659,9.3345 -5.26714,0.15745 -10.59077,0.54558 -15.8426,0.33464 -2.62899,-0.394 -5.54057,-1.68213 -8.07162,-0.99875 -3.35753,2.75617 5.79949,1.90887 6.66953,5.00178 3.44178,1.72651 3.01429,3.68411 -1.13932,3.01745 -3.38073,0.83471 -8.04242,-1.8207 -10.18371,-1.98903 1.47915,2.81908 4.36417,7.94858 -0.71229,5.06624 -4.188851,-3.16071 -8.789126,2.9579 -12.492145,-1.93667 -1.976309,-2.57812 -4.101789,3.01975 -7.022155,2.00008 -2.626728,0.0848 -5.213799,5.89355 -8.083826,4.5374 z m 21.466089,-6.52171 c 2.816314,-1.02455 8.332367,-2.92902 3.201583,-5.81999 -2.487245,-1.75649 -4.083781,-2.33195 -2.838726,-0.4701 -3.593114,-3.7388 2.604684,6.38896 -1.242899,0.97653 -2.020455,-2.82738 1.432473,5.70344 -1.254497,1.01378 -1.6783,-3.39395 -0.972487,-0.51926 -1.591755,0.29468 -0.235928,-2.78975 -0.677704,1.5326 -1.28786,-1.81603 -2.061663,1.97914 1.875622,8.09121 5.014201,5.82083 z m -11.248667,0.0259 c 2.817563,-0.19625 4.772697,-8.59925 1.943532,-4.01767 -3.213175,3.74757 0.585103,-1.47196 -1.407559,-1.86219 -4.278382,3.95825 3.319347,-5.36244 -1.329617,-0.76521 -4.301353,3.43088 3.914349,-4.56728 -1.67981,-1.3482 -4.658453,1.91397 5.013784,-3.10823 -0.622765,-1.03116 -2.648121,1.15052 -1.746422,0.21921 -2.241247,0.0409 -1.099942,-0.0642 5.217986,-3.63019 0.13148,-1.68036 -3.124453,0.89478 -4.832177,6.12054 -1.536168,7.77964 3.645173,0.11069 1.716368,6.026 6.742154,2.88429 z m 7.774243,-0.0937 c -1.943914,-0.83928 -4.310568,-6.41379 -2.516399,-1.52057 -0.281026,0.574 3.955874,2.97162 2.516399,1.52057 z M 69.88375,192.1765 c 0.949277,-1.21899 -2.303275,1.42762 0,0 z m -0.298333,-1.47046 c 2.576643,-1.02488 5.397085,-2.99548 4.242284,-3.78073 4.592893,-4.13372 -4.094345,0.60001 -4.481154,2.77043 -0.832104,0.89268 -1.354293,2.16853 0.23887,1.0103 z m 40.145003,-0.10128 c -1.30509,-0.45167 -0.18904,0.54429 0,0 z m 4.83416,0.0508 c -1.49735,-1.99152 -7.96278,-4.78746 -8.29137,-3.51967 1.7763,2.12626 4.37467,2.61086 6.91345,3.28781 0.1658,-0.61497 1.09492,0.7048 1.37792,0.23186 z m -10.71562,-5.57715 c 3.06299,-1.3305 4.64074,-3.4149 2.60109,-6.27226 0.98178,-3.12309 0.0476,-6.6798 -3.81152,-6.00986 -2.50966,-0.55914 -9.698496,4.60675 -3.82444,1.88182 6.41972,-2.35818 -4.486774,2.46842 -0.882825,2.0636 2.054863,-0.26618 4.523325,0.56817 1.155192,0.53722 0.572748,1.39934 -0.551722,2.16179 2.982263,1.33778 4.11711,0.0578 -6.776892,1.24491 -0.57402,1.47096 -1.993929,0.74484 -5.746632,-0.0696 -2.62737,1.15772 3.71344,0.0566 2.38964,0.97734 -0.235452,0.79392 -2.187688,-0.0831 5.056192,2.50919 -0.733863,1.42988 -4.657975,-0.62039 4.850315,4.36039 5.950945,1.60922 z m -39.952084,-1.44082 c 3.402256,-0.28654 -3.359312,-0.31535 1.014323,-0.9377 1.011946,-0.22441 -9.620974,0.86084 -3.602335,-0.23525 2.114657,-0.1125 8.746289,-1.64894 3.419611,-1.06177 -2.370701,0.60319 -1.846716,-0.8422 -4.696912,0.39661 -2.667781,0.9054 -5.146794,0.67469 -0.861629,-0.41866 3.906475,-1.85121 -11.575315,3.3181 -4.367245,2.60439 3.031824,-0.0644 6.071693,-0.0837 9.094187,-0.34762 z m 61.358864,0.0729 c 5.16692,-0.25682 -4.29326,-1.78025 -5.69802,-2.47488 -2.59978,-0.71995 -8.51842,-0.0519 -3.08948,0.12802 2.02317,-0.0271 6.17914,1.8944 1.50399,1.44097 -4.62146,-0.36033 0.59834,2.205 2.41318,1.21084 1.62444,-0.0844 3.24829,-0.18238 4.87033,-0.30495 z m 3.87727,-1.39189 c -2.62337,-2.61192 -5.51495,-6.62899 -9.69769,-5.97376 -2.2316,-0.0571 -4.50091,-0.23267 -6.38312,1.20144 -1.8741,0.91677 -5.47404,3.28987 -1.21852,1.47772 3.67385,-1.14871 3.59078,-0.65323 0.77559,0.75073 5.97877,-2.04994 11.93195,0.94146 17.21429,3.49581 l -0.69055,-0.95198 z m -71.485782,-2.40189 c 2.633827,-1.92238 5.951838,-0.72374 8.959519,-0.90379 5.16355,0.44828 -1.151904,-0.41304 -1.21971,-1.18311 2.10235,-0.22805 9.831393,2.71061 4.37022,-0.25888 -3.630024,-2.21387 -8.166707,-1.82751 -11.920316,-0.19259 -4.396729,0.65094 -8.732618,8.19114 -2.147088,3.49243 l 0.97202,-0.49599 0.985355,-0.45821 z m 40.970696,3.01515 c -1.305459,-0.4521 -0.188975,0.54445 0,0 z m 19.915406,-0.6339 c -3.35574,-0.96534 1.1777,1.04219 0,0 z m -54.046654,-1.48277 c -1.305042,-0.45155 -0.189019,0.54424 0,0 z m 14.460225,-0.65321 c -2.614578,-0.82979 -5.99182,-4.63796 -1.397104,-1.44948 3.514337,1.51874 6.182113,1.03371 2.785312,-0.35279 5.016816,1.35404 -3.045976,-2.54314 0.210548,-1.91553 -4.262956,-4.63254 4.820957,3.08877 0.929873,-1.34369 -1.527412,-2.49993 4.073869,2.65479 0.809887,-1.64905 1.885501,0.6121 3.864905,2.711 1.472687,-0.41462 -2.428502,-3.07934 -0.804901,-1.57755 1.173254,-0.46356 -0.39034,-3.44323 -5.270946,-5.12462 -7.669956,-3.18908 -1.07863,3.17198 -5.414122,3.84348 -2.548755,7.82365 -0.871043,2.97466 10.056102,5.11002 4.234254,2.95415 z m 4.573238,-8.35915 c -1.200389,-1.34397 1.381481,0.23212 0,0 z m -0.408141,1.95791 c -1.048179,-1.31977 0.69438,1.4711 0,0 z m -26.22658,0.0335 c -2.207497,0.40902 -10.68824,-3.22058 -4.485881,-2.08535 2.619432,0.51045 6.315591,0.0444 1.478784,-0.71041 -2.43842,-0.26708 -6.513361,-1.10662 -8.134986,-0.58721 3.663858,3.32111 8.664232,3.9043 13.391041,3.61426 -0.749653,-0.0771 -1.499305,-0.15419 -2.248958,-0.23129 z m 36.653591,-3.66715 c -0.608789,4.30286 2.527277,-4.59195 1.121477,0.92982 -1.984146,5.90336 4.583569,-6.19358 2.012944,0.63032 1.826737,0.26089 2.550444,-4.64182 0.03032,-6.85378 -0.956027,-2.86639 -4.073207,0.29189 -5.892106,-1.19972 -2.740744,-2.57087 -5.649935,3.80496 -5.301456,6.30814 0.04815,0.47004 2.193929,2.63478 2.601417,1.12881 1.018847,3.63843 0.752899,0.34165 0.747507,-1.6919 0.310947,-4.27706 0.932834,4.36749 1.360545,0.13243 0.439073,4.20917 0.418548,3.60968 1.340902,-0.0658 1.279267,-1.62849 -0.624048,6.8432 1.035111,2.33537 0.288473,-0.56385 0.526109,-1.16611 0.943336,-1.65365 z m 34.757651,2.50147 c 2.20553,-0.97947 7.56505,-2.79353 2.51194,-2.1611 -5.34478,-0.64444 -4.43447,2.12693 -9.33069,2.29534 -3.0801,1.03848 5.94478,0.22272 6.81875,-0.13424 z m -30.3887,-0.67205 c 0.647545,-1.96201 -1.512651,1.8653 0,0 z m -36.147065,-1.42278 c -4.715046,-3.24192 -11.211231,-5.73593 -16.669944,-2.8525 4.785986,0.89842 10.1691,-1.08748 14.468182,2.35328 0.292243,0.16295 3.727999,1.80123 2.201762,0.49922 z m 59.130625,-0.7403 c 3.07817,-1.13646 6.50861,-0.43526 9.73938,-0.77566 3.47826,0.0719 2.5388,-0.2829 -0.38704,-0.62163 -4.0231,-0.002 -9.23879,-1.47961 -12.07775,2.27046 -1.81406,1.48799 2.50898,-1.09231 2.72541,-0.87317 z m -0.8203,-0.37625 c 1.52674,-0.16685 -0.50186,0.46618 0,0 z m -70.726427,0.18657 c -2.491044,-0.55639 -7.482882,-0.4698 -2.222882,0.0573 0.644561,0.087 5.609561,0.30217 2.222882,-0.0573 z m 21.381942,-3.89479 c 0.842579,-2.60195 1.264363,-8.08374 -0.453702,-2.66281 -1.676247,1.64075 -0.243026,10.07645 0.213841,4.07883 l 0.08474,-0.67143 z m -12.843809,3.73994 c -1.403778,-1.02189 -8.52133,-1.26501 -7.117223,-1.03038 2.36044,0.22837 4.913402,1.03323 7.117223,1.03038 z m 56.731874,-8.44993 c -0.043,-3.4036 -1.51831,-6.54137 -2.72367,-9.65729 -0.14261,4.63786 0.29622,9.81956 2.0243,14.00228 0.41505,0.77484 -0.035,2.51584 0.63253,-0.1377 0.59792,-1.37092 0.13308,-2.7801 0.0668,-4.20729 z m -2.42742,-5.09323 c 0.299,-2.80736 0.36649,2.1313 0,0 z m -40.278391,7.87135 c -0.01741,-2.42286 -0.784167,4.70727 0,0 z m 6.704559,0.086 c -0.963944,-1.21089 0.718179,1.95215 0,0 z m 1.589894,-0.17648 c -2.489833,-4.0488 -1.264898,-0.3302 0,0 z m -8.061546,-1.56315 c -0.458984,-0.0856 0.277764,1.76794 0,0 z m -14.642031,-2.09071 c -1.604426,-3.07516 -3.840476,-5.97377 -7.275327,-7.00677 -3.393174,-1.39743 -6.986077,-2.22845 -10.404744,-3.56446 3.986147,3.50646 8.732753,6.02265 13.018153,9.14725 1.538227,0.75411 -5.291578,-3.9441 -1.087974,-1.71891 1.013731,0.17249 4.238916,3.86848 2.963416,1.28049 1.38574,1.20808 5.645015,6.87702 2.786476,1.8624 z m 75.043325,1.09342 c 4.70581,-1.37781 8.20977,-5.01456 10.64368,-9.12303 -2.10128,2.20438 -4.79034,4.40839 -6.92646,6.08545 -0.99771,1.48858 -9.8476,4.91174 -3.71722,3.03761 z m -82.425653,-0.75466 c -1.672593,-1.55868 -6.199868,-2.83532 -1.033064,-1.71347 3.810304,1.81968 -5.666148,-5.25613 -5.683227,-3.92327 -0.830609,-1.38803 -1.500299,-1.90277 -2.343774,-2.16379 2.385477,3.1436 4.65436,7.31438 8.848682,7.97842 l 0.211383,-0.17791 z m 12.717556,-4.20425 c 0.03412,-2.1756 1.394244,0.68644 1.822999,-2.46298 1.073386,-1.82496 5.433861,-7.15771 3.651232,-6.95552 -3.359121,2.87822 -6.363322,6.63592 -6.396823,11.27234 0.630779,-0.38111 0.813759,-1.1822 0.922592,-1.85384 z m 65.620117,1.25984 c 0.36433,-1.76208 8.79047,-3.9954 4.37973,-1.76521 -5.26269,3.50816 3.37937,-1.15557 4.85433,-2.13534 1.74554,-1.05828 8.22237,-4.24296 2.55613,-3.04846 -4.52261,0.17345 -10.5638,3.96937 -11.75702,7.13588 z M 68.3887,153.85521 c 1.385787,-2.29146 3.324535,-10.37721 0.599945,-4.09556 -1.068741,2.08377 -4.931781,8.51467 -1.262918,3.28999 1.63402,-1.64748 -3.121011,7.56937 -0.07906,2.30713 l 0.360769,-0.71062 0.381262,-0.79091 z m 56.49463,2.66144 c -0.66739,-1.03604 -0.72869,0.55618 0,0 z m 15.55145,-2.99455 c -0.63605,-0.27308 -5.39437,3.30266 -1.50081,1.01527 l 0.57046,-0.35503 z m -17.7931,-3.83408 c -0.18949,-5.8574 0.68098,2.51346 1.15928,1.64263 0.13509,-2.39833 -0.17171,-4.73452 -1.55941,-6.74352 -1.13617,-2.56793 -3.34125,-5.26383 -1.61171,-0.75435 0.88355,2.12225 1.80988,8.24027 2.08502,7.77058 l -0.0202,-0.86233 -0.0529,-1.05301 z m -10.89183,0.99219 c -0.75309,-1.28181 -0.0535,1.32411 0,0 z m 6.78748,-0.52435 c -0.0976,-1.06278 1.81668,1.64938 0.57167,-1.26823 -0.60252,-1.8428 -1.4883,-10.01824 -1.72096,-3.80626 -0.48791,0.66753 0.86604,7.72057 1.14929,5.07449 z m 15.32887,-6.22253 c 1.77828,-1.68231 6.48149,-10.26129 2.0826,-4.84345 -2.13422,2.38563 -7.45995,8.41442 -6.34587,9.80645 1.5328,-1.55359 2.8899,-3.27024 4.26327,-4.963 z m -75.128699,3.94811 c 1.468902,-0.82308 3.582215,-9.10201 1.42236,-6.28432 -0.382617,0.58727 -3.783236,9.64536 -1.42236,6.28432 z m 2.032824,-0.29355 c -0.466152,-0.50186 0.166856,1.52675 0,0 z m 58.937835,-2.40396 c -0.7693,-2.36029 -1.61341,-4.62325 -0.86822,-0.71126 0.89001,1.87629 1.61608,5.1216 0.86826,0.71126 z m -71.024825,0.17054 c -2.005364,-1.68262 -6.112437,-7.69663 -6.733197,-7.00812 0.300196,2.04101 5.773513,9.35147 3.3196,4.55178 1.032941,0.77648 2.391079,2.29722 3.413597,2.45634 z m 88.701235,-3.51046 c 1.91525,-1.83659 3.16811,-11.38208 1.10363,-4.70313 -0.14003,1.82641 -4.28772,7.67607 -2.97343,6.84352 0.70572,-0.63508 1.3167,-1.37076 1.8698,-2.14039 z m -88.287225,1.05871 c 1.458243,-1.33243 -2.534034,-3.28929 -3.277169,-4.7836 -1.653652,-1.87479 -6.058409,-5.06909 -2.400762,-0.95804 1.64761,1.95562 4.063307,4.73872 5.677931,5.74164 z m 10.81151,-8.99446 c 1.224411,-1.53038 4.886229,-6.99325 1.335727,-3.30928 -1.607813,1.17046 -5.849284,6.05922 -2.691277,3.50038 -1.14715,2.1615 -1.352983,4.13726 0.549144,0.89582 l 0.393846,-0.52961 0.41256,-0.55726 z m 64.560855,2.55059 c -0.47257,-2.0908 -4.53846,-7.46666 -4.72665,-6.15401 1.01775,1.3197 3.63578,7.3603 4.72665,6.15401 z m 6.38845,-7.26488 c 1.46261,-1.54661 2.29605,-6.00031 2.69538,-9.58638 0.50605,-5.5773 -2.46602,3.84509 -2.74474,5.32293 -0.27637,1.01266 -1.85945,9.7876 0.0494,4.26345 z m 4.19977,-5.10439 c 0.54439,-4.7956 -1.30928,3.79286 -1.56567,5.15938 -0.57832,3.81808 1.88183,-4.8208 1.56567,-5.15938 z m -83.725383,2.68193 c -0.52986,-2.22553 -3.091196,-7.31636 -4.253257,-7.09107 -0.477386,1.50106 2.238381,7.78764 1.905236,4.98706 -1.435311,-4.87409 1.543367,2.96353 2.193686,4.42353 0.361819,-0.62184 0.383346,-1.58839 0.154335,-2.31952 z m -4.688855,-0.7059 c -1.134402,-2.69521 -0.739154,-3.65667 0.311316,-0.37783 0.954766,1.59934 -2.370334,-9.98256 -1.663303,-3.47313 -0.787024,1.98367 3.544516,9.17663 1.351987,3.85096 z m 8.307443,-1.38071 c -0.412287,0.0166 0.244202,2.3416 0,0 z m 71.536875,-5.95353 c 0.48084,-3.20525 0.13395,-6.08143 -0.59706,-1.65324 -0.96125,1.03258 -1.26037,10.25024 -0.34091,6.46894 0.35417,-1.59672 0.6787,-3.20068 0.93797,-4.8157 z m -71.114994,3.81354 c -0.49437,-2.40753 -0.626328,-8.39385 -2.156147,-8.76103 -0.04636,2.84963 0.206785,9.2434 2.114902,9.80214 l 0.04125,-1.04111 z m 79.599944,-1.53868 c -0.82893,-1.36917 0.23051,2.32129 0,0 z m -64.294256,-0.32274 c 2.913928,-0.84565 5.769152,-2.80617 0.83172,-1.46677 -2.519044,0.0443 -5.90797,1.94579 -1.847578,1.79348 l 1.015858,-0.32673 z m 39.917126,-0.44721 c -2.12331,-0.40597 -8.54889,-2.72817 -3.37093,-0.13439 0.95768,1.0329 8.69457,1.03273 4.39132,0.36995 -0.34013,-0.0785 -0.68026,-0.15704 -1.02039,-0.23556 z m 6.87917,0.035 c -3.37129,-3.3207 -8.31022,-5.77694 -12.91687,-3.37619 -0.86937,0.95703 5.25644,1.39136 6.94876,2.04592 4.21397,1.01298 -5.76386,-2.55693 -0.67174,-1.38251 2.31232,0.54045 4.57927,2.00048 6.63985,2.71278 z M 65.264168,119.0717 c 2.14763,-1.26101 5.444492,-2.17062 1.807708,-0.2494 2.490631,-0.66399 11.206262,-1.29573 4.306401,-2.40565 -1.490223,-0.41086 -10.212056,3.99785 -6.114109,2.65505 z m -4.061351,-3.25037 c 1.892444,-2.48377 2.700503,-10.08977 1.332405,-10.53462 -0.08944,3.6137 -2.256725,9.99183 -2.018176,11.70251 l 0.318212,-0.52581 0.367562,-0.64208 z m 58.357023,-6.27473 c 0.11807,-2.49583 -0.71046,-8.96963 -1.13264,-2.72283 -0.3196,1.99791 0.27184,7.78657 1.30922,7.76623 -0.0189,-1.68227 -0.0982,-3.3631 -0.17658,-5.0434 z m -59.054098,1.26419 c -0.466156,-0.50186 0.166859,1.52674 0,0 z m 60.024118,-2.33164 c -1.03374,-3.73592 0.58848,5.44407 0.25764,1.03518 z m -59.169173,-0.13229 c -1.083588,0.40792 -0.05566,1.91999 0,0 z m 16.60428,-0.0115 c 3.336002,-2.05314 1.873756,-2.20186 -0.838925,-1.17219 5.146315,-0.26611 -7.166459,2.54598 -0.356216,1.50408 l 0.672922,-0.15913 0.522219,-0.17271 z m 26.016283,-0.21623 c -2.48894,-1.12004 -7.31339,-3.00866 -3.17532,-0.2362 1.05463,0.0697 2.1244,0.3472 3.17532,0.2362 z m 5.90263,-0.76444 c -1.48488,-1.67695 -4.93262,-6.54178 -0.87555,-2.25908 2.80384,-1.09604 -9.257226,-9.381768 -4.32417,-3.29717 1.3366,1.84652 3.74956,5.28543 5.19972,5.55625 z m -8.04331,-1.42395 c 2.37734,-0.6234 -7.67629,-2.51607 -1.69578,-1.91826 -2.435971,-2.13113 -4.648313,-1.70825 -1.800521,1.34289 0.956539,0.77803 2.340711,0.80079 3.496301,0.57537 z m -20.832236,-0.82501 c 2.951031,-4.13208 -0.452778,-0.89936 -2.559376,0.44619 0.853996,-0.0455 1.868376,0.21177 2.559376,-0.44619 z m -6.501188,-1.57979 c 4.922837,-3.630014 -3.376924,-1.14239 -1.374637,-0.23151 -0.75364,2.56144 -1.19637,2.49609 1.374637,0.23151 z m 0.375635,0.71189 c 1.336276,-2.46619 -2.139185,2.76764 0,0 z m -2.563551,-0.65808 c -1.158535,-0.77437 -2.132936,2.335 -0.319027,0.082 z m 37.48285,-0.49214 c -0.88132,-1.09841 -1.24966,-0.70959 0,0 z m -5.78853,-1.40162 c -0.96395,-1.21089 0.71817,1.95215 0,0 z" /></g></svg>
