<?xml version="1.0" encoding="UTF-8" standalone="no"?>
<svg
   width="108.44814mm"
   height="117.22683mm"
   viewBox="0 0 108.44814 117.22683"
   version="1.1"
   xml:space="preserve"
   xmlns="http://www.w3.org/2000/svg"
   xmlns:svg="http://www.w3.org/2000/svg"><path
     style="fill:#000000"
     d="m 28.32301,117.08399 c -0.601619,-0.16608 -1.665094,-1.06023 -3.341957,-2.80988 -2.686573,-2.80318 -9.726282,-10.733 -12.788812,-14.405854 -4.1579494,-4.98657 -10.7327154,-13.68197 -11.67610837,-15.44214 -1.026026,-1.91434 -0.525141,-3.65273 1.52794397,-5.30294 0.677704,-0.54472 3.196721,-2.61778 5.597815,-4.6068 5.7579184,-4.76976 6.1260604,-5.00959 7.6895384,-5.00959 1.571206,0 1.936429,0.29105 5.565394,4.43517 1.495676,1.708 2.8712,3.27534 3.05672,3.48298 0.286778,0.32098 0.571935,0.1932 1.903458,-0.8529 l 1.566149,-1.23044 2.392099,2.96957 c 1.315655,1.63327 4.365808,5.3878 6.77812,8.34342 2.412311,2.95562 4.386063,5.45593 4.386116,5.55625 5.3e-5,0.10032 -0.625025,0.73534 -1.389062,1.41116 l -1.389159,1.22875 0.907152,1.28479 c 5.333986,7.554464 5.539927,7.980984 4.721161,9.777984 -0.289081,0.63446 -10.829118,9.77538 -12.409378,10.76211 -0.866852,0.54128 -2.050393,0.69732 -3.09719,0.40836 z m 12.607409,-14.84228 c 0.140627,-0.73021 -2.680753,-4.537184 -10.126191,-13.663544 -4.670154,-5.72452 -9.636757,-11.5304 -12.224335,-14.29007 -1.344827,-1.43427 -1.963673,-1.91926 -2.289456,-1.79425 -0.752102,0.28861 -0.48384,1.04807 0.907512,2.56919 6.316675,6.9058 18.247473,21.43419 22.337464,27.200794 0.48891,0.68933 1.260349,0.6771 1.395006,-0.0221 z m 36.911118,14.50357 c -0.87225,-0.37939 -11.984502,-9.14463 -12.917357,-10.18908 -0.396703,-0.44416 -0.529166,-0.96635 -0.529166,-2.08605 0,-1.44493 0.07247,-1.59699 2.224934,-4.668574 1.223713,-1.74625 2.583929,-3.63508 3.022709,-4.19739 0.90134,-1.1551 1.05136,-0.83571 -1.243366,-2.64704 -0.528863,-0.41745 -0.961569,-0.8683 -0.961569,-1.00188 0,-0.13358 1.879425,-2.59 4.176505,-5.4587 4.76233,-5.94743 9.00257,-11.19232 9.32341,-11.53243 0.1209,-0.12817 0.79472,0.25503 1.51205,0.85989 0.71168,0.6001 1.42705,1.09109 1.58971,1.09109 0.16266,0 1.76234,-1.66957 3.55485,-3.71015 3.73598,-4.25303 4.86191,-5.03387 6.53553,-4.53244 0.53946,0.16163 1.4517,0.69167 2.0272,1.17788 0.5755,0.4862 3.45788,2.81921 6.405293,5.18445 2.9474,2.36524 5.47748,4.52197 5.62239,4.79274 0.14492,0.27078 0.26348,1.07469 0.26348,1.78648 0,1.19161 -0.18443,1.56545 -2.3276,4.71806 -4.48039,6.59066 -10.136513,13.758904 -17.621923,22.332984 -7.10796,8.14173 -8.35017,9.08357 -10.65708,8.08016 z m -7.23587,-16.870534 c 3.86031,-5.27704 13.18687,-16.87009 19.24552,-23.92247 1.64259,-1.912 2.98653,-3.65544 2.98653,-3.87429 0,-0.86846 -0.86039,-0.73523 -1.82173,0.28208 -4.1795,4.42279 -17.44935,20.76207 -21.82557,26.874 -1.51701,2.118694 -1.893312,3.346484 -1.025091,3.344664 0.281143,-5.9e-4 1.239731,-1.06273 2.440341,-2.703984 z m -19.694761,-1.6853 c -3.847495,-0.85884 -6.241431,-2.58482 -8.551164,-6.16519 -1.550326,-2.4032 -4.012896,-5.55155 -10.444271,-13.35278 -2.262813,-2.74479 -4.662856,-5.95948 -5.33343,-7.14375 -3.292999,-5.81566 -5.863504,-15.54928 -6.368062,-24.11365 -0.08573,-1.45521 -0.219653,-3.27091 -0.297603,-4.0349 l -0.141728,-1.38906 h -2.480007 -2.480006 l -0.08064,1.25677 -0.08064,1.25677 -1.785938,0.0782 -1.785937,0.0782 v -5.56834 -5.56833 h 1.852083 1.852083 v 1.32291 1.32292 h 2.477576 2.477575 l 0.178171,-3.10886 c 0.383781,-6.69646 1.2527,-10.65573 3.283335,-14.96067 3.834848,-8.1298758 9.839455,-13.4698838 18.240938,-16.2220058 9.407027,-3.081513 21.605145,-2.31348496 29.971946,1.887119 3.79182,1.90371 8.71237,6.3160598 11.09349,9.9477398 1.55904,2.377839 3.2837,6.060317 4.07381,8.698347 0.83461,2.78658 1.49273,7.19052 1.49273,9.9889 0,1.16368 0.0752,2.49197 0.1672,2.95177 l 0.1672,0.83598 2.54478,-0.0753 2.54478,-0.0753 -0.0428,-1.25677 -0.0428,-1.25677 h 1.82877 1.82878 v 5.55624 5.55625 h -1.71979 -1.7198 v -1.32291 -1.32292 h -2.61752 c -3.05303,0 -2.93753,-0.11254 -2.94127,2.86591 -0.0103,8.23395 -2.81566,20.04465 -6.19744,26.09183 -0.53378,0.9545 -3.94912,5.45581 -7.58965,10.00291 -3.64052,4.54711 -7.405153,9.43633 -8.365853,10.86494 -1.868804,2.77901 -3.194064,4.09721 -5.09659,5.06945 -2.928839,1.49672 -6.780003,2.00347 -9.912233,1.30429 z m 7.667847,-13.96635 c 2.647875,-1.21224 4.604696,-3.01983 5.929647,-5.47745 1.567846,-2.90816 2.033595,-6.69384 1.211735,-9.84918 -1.26384,-4.85221 -5.213868,-8.49028 -9.926063,-9.14214 -5.368372,-0.74264 -10.222323,1.97889 -12.674927,7.10662 -0.944253,1.97418 -0.94913,2.00273 -0.94913,5.55625 v 3.57188 l 0.988165,2.06951 c 1.18386,2.47935 3.194302,4.57475 5.511645,5.74454 2.182815,1.10188 3.190522,1.30666 5.958663,1.21091 1.927558,-0.0667 2.710854,-0.22352 3.950265,-0.79094 z m -7.524268,-2.45104 c -2.549006,-0.89232 -4.396801,-2.59395 -5.482427,-5.04874 -0.343155,-0.77593 -0.623918,-1.44875 -0.623918,-1.49514 0,-0.0464 1.425281,-0.15602 3.167291,-0.24361 3.276423,-0.16474 4.241042,-0.42884 4.241042,-1.16117 0,-0.37999 -0.358331,-0.40701 -3.2392,-0.2442 -1.78156,0.10069 -3.507966,0.25052 -3.836458,0.33297 -0.558743,0.14023 -0.597258,0.0668 -0.597258,-1.13919 v -1.28909 l 3.836458,0.0992 c 3.693082,0.0955 3.836458,0.0794 3.836458,-0.42995 0,-0.63366 -0.509907,-0.74551 -4.564062,-1.00109 -1.96486,-0.12388 -2.844271,-0.27919 -2.844271,-0.50233 0,-0.79721 1.71201,-3.6299 2.799856,-4.63264 1.332397,-1.22816 3.577545,-2.38292 4.640707,-2.38689 l 0.693688,-0.003 0.118378,3.70925 c 0.120284,3.76899 0.370321,4.70697 1.068595,4.00869 0.215834,-0.21583 0.359852,-1.58023 0.427743,-4.05236 l 0.102353,-3.72697 1.022966,0.1372 c 2.68763,0.36049 5.835474,2.95443 6.838456,5.63514 0.309164,0.82631 0.528163,1.53166 0.486665,1.56745 -0.0415,0.0358 -1.65183,0.19095 -3.578517,0.34482 -3.721039,0.29717 -4.037557,0.37691 -4.037557,1.01721 0,0.35217 0.526845,0.39481 3.902604,0.31593 l 3.902604,-0.0912 0.08445,1.03059 c 0.04645,0.56683 -0.03944,1.10717 -0.190864,1.20075 -0.151426,0.0936 -1.141931,0.0833 -2.201122,-0.0229 -3.391004,-0.33987 -5.497677,-0.27785 -5.497677,0.16183 0,0.68297 0.955341,0.93428 4.218636,1.10975 3.611557,0.19419 3.56774,0.1555 2.519202,2.22468 -1.241445,2.44988 -3.92764,4.50059 -6.416571,4.89859 l -1.045382,0.16716 -0.11928,-3.7375 c -0.109593,-3.434 -0.381396,-4.7074 -0.895123,-4.19367 -0.376826,0.37683 -0.630543,2.38227 -0.63642,5.03041 -0.0071,3.21105 0.03842,3.15884 -2.10205,2.40954 z m -9.606591,-27.33374 c 2.96158,-1.58171 5.879851,-5.13554 8.157981,-9.93466 1.93675,-4.07997 2.565378,-6.61375 2.593803,-10.45475 0.02403,-3.24723 0.0073,-3.34592 -0.867416,-5.1246 -1.055555,-2.14633 -2.344993,-3.47424 -4.477028,-4.6106 -4.040095,-2.15335 -9.812125,-2.16195 -13.829698,-0.0206 -3.102126,1.65342 -5.706215,5.35674 -6.774784,9.63454 -0.705216,2.82319 -0.631925,8.55959 0.146955,11.50206 1.859476,7.02477 5.373705,10.16993 11.1421,9.97192 1.9623,-0.0674 2.460435,-0.19014 3.908087,-0.9633 z m -6.950795,-0.36511 c -3.516735,-1.15839 -5.679552,-3.93935 -7.030932,-9.04038 -0.789076,-2.97851 -0.797218,-8.14831 -0.01742,-11.06327 2.118706,-7.91999 8.334283,-11.67315 16.06801,-9.70237 3.82596,0.97496 6.418537,3.17933 7.396684,6.28912 2.049016,6.51435 -3.986333,20.1937 -10.15562,23.01809 -1.752996,0.80255 -4.640257,1.03259 -6.260719,0.49881 z m 4.30737,-2.96218 c 4.161754,-1.2359 9.575411,-10.93655 9.678891,-17.34345 0.03386,-2.09658 -0.02433,-2.36807 -0.76409,-3.56488 -1.584187,-2.56294 -5.454326,-3.93541 -9.377376,-3.32551 -3.567688,0.55466 -5.676929,2.08171 -7.12765,5.16028 -1.03177,2.18953 -1.348203,3.89892 -1.342759,7.2537 0.0077,4.73782 1.121268,8.60124 3.029107,10.50908 1.624401,1.6244 3.468858,2.03391 5.903877,1.31078 z m 36.711458,3.45427 c 3.10954,-1.52135 5.33873,-4.76196 6.47076,-9.40661 1.96125,-8.04694 -0.15217,-16.39338 -5.06398,-19.99898 -3.94551,-2.89628 -10.672669,-3.28934 -15.736894,-0.91951 -4.414826,2.06595 -6.513901,5.94651 -5.933284,10.96887 0.989337,8.55779 6.877636,17.68312 12.771023,19.79176 2.071135,0.74105 5.494255,0.54206 7.492375,-0.43553 z m -6.952767,-0.50895 c -3.647187,-1.19515 -7.160567,-5.09369 -10.000588,-11.09692 -1.681451,-3.55425 -2.34558,-6.1441 -2.358716,-9.19807 -0.01029,-2.39139 0.04333,-2.64658 0.915117,-4.35566 1.113471,-2.1829 2.668763,-3.47255 5.416922,-4.49172 5.642276,-2.09249 11.590682,-1.19556 14.951032,2.25438 1.46825,1.5074 2.94771,4.31161 3.63202,6.88426 0.67808,2.54919 0.60228,7.91768 -0.15104,10.69791 -1.25689,4.63871 -3.36104,7.62876 -6.27582,8.9181 -1.56128,0.69063 -4.61501,0.88381 -6.128927,0.38772 z m 5.857617,-3.5224 c 1.40392,-0.98671 2.31544,-2.38725 3.14983,-4.83966 1.82723,-5.37057 1.39086,-11.14184 -1.14073,-15.08698 -2.41102,-3.75725 -7.67775,-4.89123 -13.193957,-2.84079 -1.8206,0.67673 -3.319133,2.03399 -3.886782,3.52036 -2.026777,5.30704 4.517323,18.13209 10.203539,19.99678 1.32105,0.43321 3.70806,0.0656 4.8681,-0.74971 z" /></svg>
