<?xml version="1.0" encoding="UTF-8" standalone="no"?>
<svg
   width="99.746407mm"
   height="34.322018mm"
   viewBox="0 0 99.746407 34.322018"
   version="1.1"
   xml:space="preserve"
   xmlns="http://www.w3.org/2000/svg"
   xmlns:svg="http://www.w3.org/2000/svg"><path
     style="fill:#000000"
     d="m 19.521149,33.950058 c -2.556339,-0.39805 -5.332603,-1.40068 -6.970078,-2.51721 -3.3272745,-2.26872 -5.5742065,-6.91897 -6.7222805,-13.91241 -0.307056,-1.87042 -0.624796,-3.73704 -0.706087,-4.14803 -0.239583,-1.21128 -1.553274,-2.4754 -3.086023,-2.96956 -0.757199,-0.24412 -1.52885104,-0.6363004 -1.71478304,-0.8715104 -0.531772,-0.6727 -0.363765,-6.35151 0.204728,-6.92001 C 1.2839435,1.8540176 7.2662435,0.78638758 13.940606,0.21740758 c 4.952304,-0.42217 16.182416,-0.19749 19.895613,0.39806 1.512054,0.24252 5.083924,1.04442002 7.937504,1.78202002 4.65617,1.20353 5.47325,1.34033 7.96644,1.33381 2.46035,-0.006 3.37369,-0.16015 7.98499,-1.34384 7.41011,-1.90214002 9.57446,-2.19736002 17.23603,-2.35102002 8.48303,-0.17013 14.9478,0.32865 21.74252,1.67753002 3.04281,0.60406 3.0427,0.60391 3.0427,4.47681 0,3.65081 0.0172,3.61555 -2.06278,4.2332304 -2.30052,0.68319 -2.80246,1.59436 -3.63906,6.60608 -0.98952,5.9278 -2.80605,10.37977 -5.29013,12.96508 -2.95869,3.07928 -7.83142,4.55382 -14.14344,4.27996 -6.98983,-0.30328 -11.55147,-2.10254 -14.41468,-5.68564 -1.72979,-2.16471 -3.62054,-6.17393 -5.16917,-10.96094 -0.8403,-2.59747 -1.60237,-4.46742 -2.02564,-4.97044 -1.80782,-2.14847 -4.62263,-2.11599 -6.25816,0.0722 -0.3536,0.4731 -1.2586,2.70564 -2.01111,4.96122 -3.86171,11.5751 -7.64923,15.23864 -16.945547,16.39086 -2.880088,0.35697 -5.380108,0.31694 -8.265537,-0.13235 z m -7.701288,-19.10844 c 0.180396,-0.8913 0.689124,-2.33594 1.130507,-3.21031 1.547179,-3.0649504 3.25797,-4.4262704 6.642766,-5.2858504 1.913477,-0.48594 2.542328,-0.93666 1.737645,-1.24545 -0.224154,-0.086 -1.466738,-0.0433 -2.761296,0.095 -4.241984,0.45303 -6.366118,1.95753 -7.338343,5.1976704 -0.461623,1.53844 -0.807357,5.18248 -0.554271,5.84201 0.319354,0.83222 0.814824,0.22835 1.142992,-1.39305 z m 50.096902,-1.97872 c 1.78423,-3.5399504 4.89004,-5.5745204 9.12235,-5.9759104 1.39184,-0.132 1.85209,-0.27428 1.85209,-0.57253 0,-0.32577 -0.55131,-0.41018 -3.07722,-0.47114 -2.61278,-0.0631 -3.3049,0.0109 -4.58575,0.49014 -2.6691,0.99864 -3.91766,2.50312 -4.75315,5.7273704 -0.74537,2.87647 0.14614,3.37245 1.44168,0.80207 z M 8.5534195,6.4660976 c 0.276871,-0.72151 -0.626726,-1.07768 -2.73409,-1.07768 -2.207114,0 -3.18503,0.40864 -2.616699,1.09344 0.437621,0.5273 5.147721,0.51343 5.350789,-0.0158 z m 87.9888535,0.0158 c 0.56833,-0.6848 -0.40958,-1.09344 -2.6167,-1.09344 -2.20711,0 -3.18503,0.40864 -2.6167,1.09344 0.2121,0.25556 0.98031,0.36177 2.6167,0.36177 1.63639,0 2.4046,-0.10621 2.6167,-0.36177 z"/></svg>
