<?xml version="1.0" encoding="UTF-8" standalone="no"?>
<svg
   width="107.17847mm"
   height="57.938354mm"
   viewBox="0 0 107.17847 57.938354"
   version="1.1"
   xml:space="preserve"
   xmlns="http://www.w3.org/2000/svg"
   xmlns:svg="http://www.w3.org/2000/svg"><g
     transform="translate(-48.44158,-71.926317)"><path
       style="fill:#000000"
       d="m 70.114584,129.66252 c -6.20328,-1.15688 -10.741458,-4.63395 -13.610446,-10.42807 -1.222969,-2.46988 -2.264553,-5.91031 -2.264553,-7.48001 0,-0.52289 -0.205452,-1.06482 -0.511943,-1.35036 -0.789196,-0.73524 -1.075557,-1.78066 -1.075557,-3.92651 v -1.96715 l -0.992188,-0.0149 c -0.545703,-0.008 -1.408906,-0.15704 -1.918229,-0.33073 -0.872295,-0.29746 -0.93604,-0.40025 -1.098312,-1.771 -0.09475,-0.80036 -0.184046,-2.17859 -0.198438,-3.062733 -0.02292,-1.408314 0.0591,-1.687014 0.661906,-2.248958 0.37844,-0.352788 1.832144,-2.308308 3.230453,-4.3456 3.910222,-5.69707 11.097257,-15.159242 12.894571,-16.976494 2.605119,-2.634018 4.291523,-2.766462 7.183858,-0.564192 0.756295,0.575854 1.873628,1.587867 2.482964,2.248918 l 1.107882,1.20191 -0.14415,2.103106 c -0.155734,2.272107 -0.602075,3.123211 -1.637894,3.123211 -0.69966,0 -1.396076,-0.630707 -2.810454,-2.545279 -1.258703,-1.703844 -2.335989,-2.289532 -3.478606,-1.891214 -1.335197,0.465452 -2.278933,1.952033 -8.267256,13.022648 -1.394004,2.577096 -1.405366,2.573692 1.222462,0.366187 0.634776,-0.533243 1.987576,-1.388758 3.006222,-1.901144 3.654739,-1.83836 6.70544,-2.537985 11.112499,-2.548458 1.309688,-0.0031 4.405312,-0.244195 6.879166,-0.535737 10.344864,-1.219139 13.318695,-1.379964 22.754169,-1.230548 6.85049,0.108481 10.0685,0.275515 13.49375,0.700406 2.47385,0.306873 6.81963,0.663765 9.65729,0.793092 7.66181,0.34919 11.42737,1.555128 15.44932,4.947704 2.54387,2.145794 3.07881,2.544901 3.22078,2.402929 0.22904,-0.229039 -6.69361,-12.227772 -8.5298,-14.784323 -1.30122,-1.811724 -2.60352,-2.617096 -4.23186,-2.617096 -1.62861,0 -2.32477,0.485565 -3.79034,2.643724 -1.23549,1.81933 -2.53471,2.71771 -3.75876,2.599079 -1.23364,-0.119561 -1.59369,-0.943543 -1.43925,-3.293749 0.18859,-2.869959 0.63731,-3.473126 4.53512,-6.095995 2.44431,-1.644805 3.26044,-1.989633 4.68292,-1.978614 1.5922,0.01233 3.00705,0.787566 4.7437,2.599188 1.68428,1.757 8.4772,10.284697 10.78273,13.536437 4.41367,6.225053 5.67453,8.14 5.64816,8.578176 -0.0154,0.255358 0.12336,0.755932 0.30829,1.112387 0.26948,0.519425 0.27258,1.178221 0.0156,3.318192 -0.17636,1.46855 -0.38868,2.73811 -0.47181,2.82124 -0.0831,0.0831 -0.72258,0.20372 -1.421,0.26797 -2.58682,0.23795 -2.46046,0.11712 -2.46046,2.35285 0,2.02239 -0.41796,3.35288 -1.14035,3.63009 -0.2326,0.0892 -0.42408,0.75245 -0.52489,1.818 -0.44226,4.6744 -3.57507,10.84573 -6.88083,13.55455 -3.38963,2.77755 -6.89776,4.08506 -11.56148,4.30908 -8.41609,0.40425 -14.12099,-2.24574 -18.50526,-8.59592 -0.33281,-0.48204 -1.46612,-2.44657 -2.51846,-4.36562 -1.05235,-1.91906 -2.52162,-4.29177 -3.26506,-5.2727 -1.94778,-2.57002 -2.22122,-4.49698 -0.65963,-4.64845 0.94956,-0.0921 1.0172,-0.23083 1.27187,-2.60853 0.16242,-1.51646 0.13095,-1.66035 -0.44399,-2.02984 -1.7378,-1.11684 -7.004371,-1.23932 -9.316233,-0.21668 -1.35786,0.60065 -1.367477,0.63267 -0.935291,3.11447 0.278328,1.59827 0.320393,1.66342 1.124479,1.74146 0.693423,0.0673 0.849729,0.20645 0.920058,0.81907 0.107779,0.93883 -0.696021,2.60065 -2.186006,4.51945 -0.642835,0.82785 -1.850115,2.84109 -2.682844,4.47387 -1.7566,3.44426 -2.979483,5.32128 -4.746599,7.28561 -2.055574,2.28497 -5.455791,4.37086 -8.475346,5.19925 -1.809286,0.49636 -8.572336,0.77008 -10.436634,0.42239 z m 7.408333,-1.19781 c 7.703741,-1.1777 11.433321,-3.98896 15.172702,-11.43681 1.71282,-3.41148 2.289797,-5.67762 2.289797,-8.99341 0,-3.17312 -0.323597,-4.91684 -1.316853,-7.09595 -1.670974,-3.665948 -4.535497,-6.444052 -8.605022,-8.345415 -3.54187,-1.654832 -5.188458,-1.966809 -10.318749,-1.955079 -4.333564,0.0099 -4.58976,0.04095 -7.011458,0.849485 -5.071598,1.693265 -8.282815,4.417719 -10.434747,8.853029 -1.559231,3.2137 -2.812249,8.40319 -2.028977,8.40319 0.312801,0 0.556511,-0.66967 0.561537,-1.54299 0.0071,-1.24131 1.021767,-4.79554 1.885796,-6.60595 1.297501,-2.71867 4.219074,-5.491471 7.39399,-7.017475 3.567623,-1.714755 5.830598,-2.165489 10.824484,-2.155996 3.528015,0.0067 4.378312,0.09352 6.085416,0.621348 6.147808,1.900853 10.399893,6.106163 11.803826,11.673983 0.819312,3.24928 0.11163,9.29243 -1.512534,12.91606 -2.364539,5.27546 -6.266926,8.85202 -11.349625,10.40199 -1.673709,0.5104 -2.564284,0.6035 -5.688542,0.59467 -3.258968,-0.009 -3.98918,-0.0972 -6.075565,-0.73196 -5.361723,-1.63128 -8.504282,-4.14195 -10.58099,-8.45344 -1.120608,-2.32651 -2.525151,-6.8015 -2.525546,-8.04659 -2.35e-4,-0.74098 -0.297428,-0.76287 -0.739822,-0.0545 -0.832282,1.33269 1.155376,7.38073 3.517801,10.70395 2.863129,4.02756 6.759962,6.50933 11.641623,7.41416 2.483536,0.46034 4.019023,0.46114 7.011458,0.004 z m 54.409963,0.11893 c 7.78986,-0.97677 13.24969,-5.68829 15.78573,-13.62218 0.91759,-2.87063 1.09727,-4.18057 0.66777,-4.86831 -0.19085,-0.30561 -0.41685,-0.55565 -0.50221,-0.55565 -0.0854,0 -0.30088,0.79059 -0.47892,1.75687 -0.47651,2.58609 -1.92572,6.71127 -2.96201,8.43133 -1.23055,2.0425 -4.05075,4.65183 -6.10592,5.64936 -10.55882,5.12503 -21.95985,1.67891 -26.57397,-8.03235 -1.40887,-2.96523 -1.95561,-5.25926 -2.14912,-9.01727 -0.17752,-3.44752 0.10447,-4.969 1.42617,-7.69504 2.06856,-4.266479 6.15921,-7.451428 11.1971,-8.717976 2.95419,-0.742698 9.38994,-0.683758 12.30312,0.112674 5.66641,1.549133 10.01744,5.078227 11.96803,9.707192 0.70728,1.67845 1.39343,4.61798 1.39343,5.96955 0,0.77702 0.10721,1.04191 0.4217,1.04191 0.3551,0 0.39339,-0.21938 0.2424,-1.38906 -0.32772,-2.53876 -0.94333,-4.53825 -2.17906,-7.07761 -0.99246,-2.03943 -1.60124,-2.887844 -3.22754,-4.497973 -2.76449,-2.736987 -5.71374,-4.18504 -10.28579,-5.050223 -2.30129,-0.435479 -8.07562,-0.156412 -10.64157,0.514296 -8.489,2.218922 -13.58262,8.542771 -13.56326,16.83911 0.008,3.37507 0.50801,5.30987 2.32535,8.99583 3.64063,7.384 8.4517,10.7573 16.53485,11.59348 1.80796,0.18703 2.28695,0.17746 4.40372,-0.088 z m -77.34422,-27.2294 c 1.691606,-0.64462 0.144063,-2.110252 -1.804284,-1.708778 -1.060969,0.218623 -1.455208,0.572728 -1.455208,1.307078 0,0.91042 1.454217,1.08964 3.259492,0.4017 z m -2.730325,-0.52845 c 0,-0.33994 1.058731,-0.62234 1.891317,-0.50449 1.088206,0.15403 0.669813,0.61419 -0.634547,0.69788 -0.742275,0.0476 -1.25677,-0.0315 -1.25677,-0.19339 z m 100.478795,0.44348 c 0.49053,-0.60873 -0.0982,-1.477956 -1.13244,-1.67198 -2.09048,-0.392176 -3.57527,0.85304 -1.97969,1.66027 0.85299,0.43154 2.76801,0.43875 3.11213,0.0117 z m -2.70644,-0.55615 c -0.46209,-0.33789 -0.45125,-0.36724 0.19565,-0.5296 0.76168,-0.191168 2.04449,0.19545 2.04449,0.61618 0,0.39599 -1.66837,0.33151 -2.24014,-0.0866 z m -44.67488,-0.818486 c -0.15535,-0.46822 -1.63159,-0.705445 -3.51522,-0.564881 -1.03356,0.07713 -2.075353,0.215506 -2.315102,0.307506 -1.027422,0.394261 -0.23742,0.546461 2.738712,0.527621 1.86731,-0.0118 3.14043,-0.1231 3.09161,-0.270246 z m -7.589608,-1.866273 c 2.615634,-1.325443 6.416858,-1.320655 9.068968,0.01142 0.71155,0.35739 1.38902,0.649801 1.50549,0.649801 0.11647,0 0.72096,-0.781541 1.34331,-1.736758 1.45033,-2.226055 4.23298,-4.757677 5.87592,-5.345855 0.69123,-0.247459 1.25677,-0.529053 1.25677,-0.625764 0,-0.548299 -18.098001,-0.80533 -25.796869,-0.366372 l -3.704166,0.211197 1.513094,0.69063 c 1.972858,0.900483 4.008474,2.693035 5.875947,5.174324 0.827303,1.099229 1.560997,1.998598 1.630431,1.998598 0.06943,0 0.713431,-0.29755 1.431105,-0.661223 z M 56.305791,96.109897 c 0.283107,-0.400183 2.269887,-3.823229 4.415066,-7.606771 2.14518,-3.783541 4.416425,-7.607111 5.047213,-8.496821 2.13405,-3.010026 4.155665,-3.189675 6.230358,-0.553656 0.596319,0.757659 1.189576,1.417004 1.31835,1.465213 0.245092,0.09175 0.766556,-1.049257 0.766556,-1.677295 0,-0.623673 -2.886289,-3.520731 -3.812031,-3.826253 -1.893757,-0.624996 -3.08563,0.405779 -7.835798,6.776684 -3.015551,4.044444 -8.660956,11.976116 -9.906842,13.918899 l -0.466604,0.727604 h 1.864496 c 1.732822,0 1.900848,-0.05138 2.379236,-0.727604 z m 96.358789,0.49644 c 0,-0.388276 -2.81144,-4.420504 -6.45821,-9.262497 -1.90502,-2.529378 -4.03621,-5.386878 -4.73598,-6.349999 -2.09579,-2.88451 -4.67395,-5.777187 -5.83675,-6.548797 -0.79085,-0.524792 -1.4277,-0.725683 -2.30363,-0.726679 -1.41027,-0.0016 -2.27269,0.513119 -4.54408,2.712042 -1.31582,1.273847 -1.52135,1.605874 -1.52135,2.457677 0,0.54167 0.12503,1.062126 0.27784,1.156568 0.15281,0.09444 0.86868,-0.380951 1.59082,-1.05643 1.50594,-1.408629 3.68605,-2.517288 4.9575,-2.521052 1.21526,-0.0036 2.17413,0.55638 3.52447,2.058282 1.11545,1.240656 10.81604,17.144221 10.81604,17.732294 0,0.158135 0.62507,0.331246 1.38906,0.384693 0.76398,0.05345 1.71648,0.1192 2.11667,0.146119 0.40018,0.02692 0.7276,-0.05508 0.7276,-0.182221 z m -38.23229,-7.173014 c 1.40739,-0.155114 -1.83539,-0.549825 -6.84976,-0.833754 -4.27703,-0.242179 -6.7674,-0.241063 -11.012791,0.0049 -5.755082,0.333473 -7.462063,0.518926 -7.292514,0.792288 0.09094,0.14663 23.843145,0.181127 25.155065,0.03654 z" /></g></svg>
