<svg xmlns="http://www.w3.org/2000/svg" xml:space="preserve" width="424.91" height="151.092" viewBox="0 0 112.424 39.976"><path d="M17.769 38.97c-6.95-2.174-9.491-6.045-11.493-17.51-1.13-6.482-2.968-9.914-5.308-9.914-.703 0-.968-1.28-.968-4.684V2.177l3.833-.882C9.455 0 27.85-.455 34.31.539c3.012.464 9.19 1.715 13.73 2.78l8.254 1.938 8.171-1.952C68.961 2.23 74.902.976 77.67.516c5.875-.976 25.98-.445 31.287.827l3.467.831V6.86c0 3.405-.264 4.686-.968 4.686-2.342 0-4.177 3.43-5.305 9.92-1.407 8.095-2.964 11.697-6.335 14.656-3.325 2.92-8.596 4.15-16.266 3.795-11.265-.52-17.343-5.408-21.209-17.055-2.253-6.788-3.426-8.395-6.129-8.395-2.662 0-4.213 1.927-5.82 7.232-2.663 8.797-7.816 14.916-14.47 17.184-4.045 1.378-13.874 1.425-18.153.087m.94-24.178c1.555-.624 6.381-2.829 10.726-4.9 8.856-4.222 8.847-4.778-.075-4.864-5.825-.057-9.138.996-11.608 3.687-1.852 2.018-3.347 5.575-2.749 6.543.526.85.38.87 3.706-.466m57.803-4.414c3.49-1.446 8.646-3.225 11.456-3.953l5.11-1.324-4.38-.2c-12.83-.584-19.1 1.088-20.806 5.55-1.276 3.338.418 3.324 8.62-.073zM9.49 7.166c0-.401-.985-.73-2.19-.73-1.204 0-2.19.329-2.19.73 0 .402.986.73 2.19.73 1.205 0 2.19-.328 2.19-.73m97.824 0c0-.401-.986-.73-2.19-.73-1.205 0-2.19.329-2.19.73 0 .402.985.73 2.19.73 1.204 0 2.19-.328 2.19-.73"/></svg>