<?xml version="1.0" encoding="UTF-8" standalone="no"?>
<svg
   width="101.54922mm"
   height="106.32036mm"
   viewBox="0 0 101.54922 106.32036"
   version="1.1"
   xml:space="preserve"
   xmlns="http://www.w3.org/2000/svg"
   xmlns:svg="http://www.w3.org/2000/svg"><path
     style="fill:#000000"
     d="M 46.805465,105.99413 C 42.1398,105.70802 38.757071,99.959177 34.092694,102.86834 22.92998,105.11249 12.226528,97.536397 6.4703274,88.486097 c -9.099824,-13.90746 -8.936193,-34.20475 2.62917,-46.67045 4.3432286,-4.45901 10.0276116,-9.66451 16.8024076,-7.86937 4.681273,-2.54231 10.385035,-6.90895 15.794141,-3.11565 3.526642,-0.0163 4.540157,-7.98577 5.353322,-11.594855 1.01124,-5.596455 -1.886059,-12.5190412 -8.100812,-13.2979722 -5.411865,-1.324972 -8.233104,4.5306592 -8.735178,7.9898812 -4.740089,-3.21644 -0.511661,-10.2364722 3.651777,-12.1248812 8.773853,-5.218248 21.221583,1.574746 22.090143,11.6213202 0.95166,5.911864 -1.80871,12.603847 2.29475,17.756517 3.88637,-2.14911 9.29266,-2.59163 13.03874,0.46772 3.93513,4.29473 10.17996,0.0632 14.34508,4.27334 8.0291,5.28515 13.8397,13.78292 15.271062,23.35095 3.16629,16.87023 -5.528052,36.13824 -21.889432,42.648573 -4.97626,1.96416 -10.59734,1.73589 -15.52039,-0.26027 -4.74201,3.73756 -10.70207,5.42187 -16.689643,4.33318 z m 7.408333,-14.711423 c 3.654,-0.45898 9.17177,-0.29829 6.91741,-5.29502 2.60728,-2.0688 6.86484,-2.87418 7.26601,1.11368 8.1319,-4.79493 14.16454,-12.93694 16.84633,-21.94695 -3.58902,2.66269 -7.11142,5.84433 -11.45858,7.44352 -5.42297,2.37487 -11.27428,3.53369 -17.12757,4.22095 1.51487,4.2261 -2.06789,5.57029 -5.78235,4.59717 -2.63647,-0.63842 0.37846,-5.7192 -3.63757,-4.51539 -3.588557,0.31039 -9.315037,-3.10402 -9.537411,2.58567 -1.742853,-0.27368 -6.138595,-0.14261 -6.210545,-2.35903 2.23351,-4.44492 -3.861124,-3.64036 -6.136706,-5.66847 -3.084797,-0.7403 -7.669153,-6.52498 -8.881234,-5.33536 3.514324,11.25124 12.025487,21.85025 23.889371,24.59431 1.038723,-2.22651 0.910821,-6.10205 4.785066,-4.09711 5.063609,-0.81521 0.320464,7.10057 6.173109,4.87322 0.96686,-0.0381 1.93285,-0.10556 2.89467,-0.21119 z m 0.72343,-21.04869 c -1.62965,-3.00088 -4.26752,-11.02631 -6.3851,-4.06435 -1.48133,2.09458 -3.347947,5.21272 0.89243,4.21086 1.82881,-0.0191 3.67303,0.0597 5.49267,-0.14651 z m -18.035514,-6.62646 c 3.638555,-0.98793 11.183224,-5.11968 3.961566,-6.95644 -5.011851,-2.33167 -9.044634,-7.91267 -13.385476,-9.96432 -2.481997,4.7759 -4.099989,11.83185 0.77108,15.73071 2.394655,1.91668 5.8166,1.85703 8.65283,1.19005 z m 35.415524,-0.51063 c 5.71478,-3.10909 4.73683,-10.83216 2.24025,-15.76643 -1.8357,-2.49147 -4.97632,4.03377 -7.58371,4.9558 -2.11629,3.02856 -9.4862,4.58795 -9.44275,7.37186 4.04952,3.30656 9.67657,5.78909 14.78621,3.43877 z m 26.19464,-4.8783 c -1.90468,-9.35868 -7.27655,-18.74354 -16.04094,-23.14089 -1.8659,-1.90445 -10.35535,-0.3793 -8.41427,1.05233 6.9846,-2.53804 13.42676,3.01216 17.33531,8.25169 3.55006,4.60517 5.70871,10.07574 7.29747,15.61393 0.0264,-0.59856 -0.0977,-1.18779 -0.17757,-1.77706 z M 6.2910104,50.871137 c 3.460286,-6.65108 8.6238246,-13.83232 16.4477456,-15.32563 1.755549,-0.3999 8.546089,1.67999 3.754682,-0.83721 -6.670545,-2.25813 -12.471418,3.21004 -16.325764,8.00969 -3.7190136,4.62699 -6.1437556,10.28325 -7.0970116,16.12264 1.16627,-2.6095 1.88609,-5.41968 3.220348,-7.96949 z m 78.0744576,0.94123 c -2.85255,-7.2031 -7.52567,-14.8024 -15.23999,-17.39115 -3.81723,-2.02918 -7.52172,2.17944 -10.47667,1.82898 -4.65204,-3.82949 -11.776494,-3.70146 -16.239165,0.37715 -4.437021,-3.64792 -11.391286,-3.13464 -15.444565,0.95262 -4.807132,4.11217 -8.293375,9.73668 -10.120652,15.76366 3.977819,-7.45461 9.878157,-15.38636 18.912182,-16.47737 3.049208,-0.45123 7.935268,-0.18233 3.975725,2.97711 -1.425037,1.62158 -4.2976,7.70362 -3.433793,7.70208 3.197735,-7.14332 11.806508,-12.20036 19.456208,-9.01765 4.60048,0.82866 8.90659,8.21147 10.02894,9.41301 -1.26817,-3.8404 -3.0041,-7.6614 -5.90897,-10.55098 8.22215,-2.47245 16.53574,2.72971 20.95001,9.47358 0.95148,0.74029 5.80583,10.84611 3.54074,4.94896 z" /></svg>
