<?xml version="1.0" encoding="UTF-8" standalone="no"?>
<svg
   width="97.83683mm"
   height="85.320847mm"
   viewBox="0 0 97.83683 85.320847"
   version="1.1"
   xml:space="preserve"
   xmlns="http://www.w3.org/2000/svg"
   xmlns:svg="http://www.w3.org/2000/svg"><path
     style="fill:#000000"
     d="m 46.917247,85.22691 c -2.80102,0.16375 -5.17146,-2.77864 -7.7595,-2.15514 C 32.60525,85.55798 24.841347,84.07663 19.67482,79.33628 15.66535,77.50493 11.154792,76.3374 7.9431566,73.05128 2.4797426,68.23045 -0.56803235,60.85325 0.08808665,53.57238 -0.17584235,44.00912 5.4836906,34.69361 13.46951,29.6437 c 3.863308,-2.49444 8.445959,-3.35538 12.987402,-3.15414 4.156681,-1.80856 8.553608,-4.3459 13.375845,-3.02517 3.67052,-1.68241 2.68264,-8.25152 4.46232,-11.78625 1.74268,-5.6057096 7.14938,-9.3836496 12.89034,-9.9039096 2.66374,0.70607 4.5598,-3.93623 6.12136,-0.48127 1.97283,2.1994 2.03905,9.0395896 -1.39092,8.52293 -4.95796,-2.32818 -10.53254,4.0489596 -9.02513,8.9529896 0.7432,3.14623 3.13119,6.10549 6.48229,4.51037 4.74456,-1.10589 8.40584,2.90746 12.78298,2.95825 11.2862,-0.70635 20.8323,8.49815 24.10869,18.71558 3.01297,8.45845 1.72407,18.40246 -4.11576,25.36487 -3.29125,4.38464 -8.41389,6.86889 -13.55878,8.3428 -4.45509,4.12645 -10.66899,6.57797 -16.77071,5.30854 -4.30946,-2.4649 -7.94931,1.12469 -12.29154,1.29426 -0.86818,0.0756 -1.74562,0.0887 -2.61065,-0.0366 z m 7.82473,-6.86756 c 4.58073,-0.68126 8.78746,-2.67015 12.94025,-4.60318 0.88275,2.06302 -5.33666,6.27336 0.27697,4.16323 8.78341,-3.09234 14.76963,-11.93801 16.14295,-20.92101 0.4045,-2.71058 -0.38245,-7.81597 0.56321,-9.10111 2.92385,6.1957 3.9834,13.23664 2.72585,19.98667 7.18781,-8.80178 5.99337,-22.50548 -1.27622,-30.8999 -5.24668,-6.42031 -14.40095,-9.52137 -22.3879,-7.41289 5.02103,1.41192 9.47901,5.31224 11.54347,10.15793 -4.29643,-4.74729 -10.54979,-8.33751 -17.10852,-8.20288 3.1723,4.73935 3.82753,10.51631 4.04675,16.07855 2.74121,-2.52794 5.29098,-5.62499 8.68496,-7.14211 3.09424,3.34604 4.09881,8.6374 2.93019,13.04818 -2.00071,4.4191 -7.78509,3.91003 -11.82263,3.63005 -3.26107,-0.30099 -8.16042,-2.2855 -3.67866,-5.30232 1.04169,-1.43633 2.75865,-2.69136 3.4286,-4.21666 -1.23801,-6.30877 -3.68531,-13.78254 -10.43009,-16.00691 -6.34399,-1.97863 -12.468807,3.28813 -14.292846,9.10161 -0.448276,2.61012 -3.110068,6.36622 -0.468501,8.46595 1.664947,1.9113 3.366927,3.79222 4.955947,5.76791 -4.989494,2.68338 -11.591861,3.67925 -16.634828,0.67602 -3.508424,-4.03227 -1.72043,-10.51929 0.897809,-14.59918 3.240044,-0.53511 6.155078,4.22704 8.897973,6.1875 0.43336,-1.62625 -0.03086,-5.1335 0.63184,-7.34158 0.449591,-2.76048 1.712809,-5.26795 2.972448,-7.73072 -5.746698,-0.0448 -11.283983,1.76718 -16.268166,4.55418 0.541694,-1.58125 5.686933,-4.84795 8.500043,-5.9429 C 36.6391,29.1228 27.318641,29.12573 25.243148,29.58021 13.122423,31.30638 4.6318226,43.73331 5.6923376,55.62018 c 0.115531,5.22693 2.70935,10.22828 6.2340644,13.95008 -0.979002,-6.42393 -0.867815,-13.35522 2.066379,-19.30692 -0.109126,5.08691 -0.799996,10.844 1.903628,15.59495 2.708111,6.11081 8.568745,10.77067 15.135155,11.95371 -1.697693,-1.50642 -5.764079,-7.84096 -1.568142,-4.49932 7.367383,5.07412 16.579685,6.23709 25.278555,5.04667 z m -10.60285,-1.69487 c -3.21077,-0.34038 -8.292451,-0.43455 -6.23131,-4.99448 -2.412621,-1.57636 -4.267791,-0.93808 -5.041826,1.82159 -5.544316,-2.65847 -10.30411,-7.79192 -11.274175,-14.0167 5.882962,2.92374 12.182984,5.09266 18.732311,5.84194 2.84171,0.43892 -1.15689,5.36922 3.14108,4.27009 3.22736,1.68117 1.44621,-3.07671 3.17774,-3.65693 3.73772,-0.16131 7.48594,-0.23869 11.20142,-0.70812 -0.3475,3.43617 3.32349,4.42003 5.13365,1.69991 -1.94184,-4.6247 5.71846,-3.30183 8.30642,-5.4925 2.20408,-1.29535 6.03333,-2.80024 3.46197,1.35517 -3.3518,8.59772 -12.82108,13.07395 -21.53725,13.93384 -0.42533,-1.2182 0.43279,-3.92532 -1.66631,-3.20176 -1.70983,0.034 -3.79951,-0.37212 -3.19747,2.08797 0.1066,2.30072 -2.91334,0.90154 -4.20625,1.05998 z M 43.609957,60.8823 c 1.59947,-2.66044 3.28706,-7.59832 5.27688,-8.70811 0.91316,2.60609 5.42775,7.25731 3.91571,8.816 -3.05846,0.0531 -6.14614,0.18852 -9.19259,-0.10789 z" /></svg>
