<svg xmlns="http://www.w3.org/2000/svg" xml:space="preserve" width="578.4" height="612.75" viewBox="0 0 153.035 162.124"><path d="M119.15 160.063c-1.104-1.22-1.82-3.827-1.728-6.285.146-3.89-.782-5.125-12.53-16.695-6.978-6.872-15.631-16.708-19.229-21.857l-6.54-9.363-6.67 2.279c-5.93 2.025-8.654 2.202-24.58 1.59C21.995 108.74 2.054 104.328.07 99.16c-.39-1.015.857-4.585 2.81-8.044 3.243-5.746 3.59-7.477 4.575-22.775.586-9.106 1.863-19.587 2.838-23.291C17.98 15.828 40.898.02 75.608 0c32.757-.022 53.085 14.955 63.474 46.761 2.113 6.471 3.006 7.812 5.632 8.457 4.383 1.077 8.32 3.826 8.32 5.808 0 3.9-11.276 6.912-32.047 8.56-16.697 1.324-19.26 2.712-24.406 13.227l-3.873 7.911 3.473 3.643c9.22 9.672 22.963 32.162 26.703 43.698.755 2.327 2.06 4.496 2.901 4.818 1.913.734 6.449 9.944 6.449 13.094 0 5.486-9.214 8.363-13.084 4.086m-11.227-37.1c-3.976-7.005-9.83-15.654-13.008-19.22-5.745-6.447-5.793-6.472-8.05-4.215s-2.242 2.315 2.676 9.621c4.91 7.295 24.143 28.019 25.107 27.054.277-.277-2.75-6.234-6.725-13.24"/></svg>