<?xml version="1.0" encoding="UTF-8" standalone="no"?>
<svg
   width="108.04626mm"
   height="102.62244mm"
   viewBox="0 0 108.04626 102.62244"
   version="1.1"
   xml:space="preserve"
   xmlns="http://www.w3.org/2000/svg"
   xmlns:svg="http://www.w3.org/2000/svg"><path
     style="fill:#000000"
     d="m 26.951171,102.26307 c -5.413367,-0.98231 -9.602219,-3.4522 -11.580843,-6.82847 -0.949385,-1.62 -1.566685,-4.25402 -1.376397,-5.87307 0.08651,-0.73604 0.463146,-2.22864 0.836978,-3.3169 1.469713,-4.27848 1.720109,-5.87561 1.892806,-12.07308 l 0.163324,-5.86109 -1.15466,-0.58907 C 12.194173,65.91634 9.6964947,61.40413 8.6828257,54.98596 L 8.2300407,52.1191 5.9698977,52.1181 C 3.2469597,52.1161 2.0153877,51.80826 1.1094367,50.90231 0.02592773,49.8188 -0.26600627,48.59193 0.24271773,47.25985 0.62028273,46.27121 1.1819197,45.78223 5.2974707,42.85901 l 4.629993,-3.28862 v -1.40682 c 0,-1.6208 0.4995153,-3.00581 1.2816503,-3.55364 0.388995,-0.27246 0.692188,-1.05433 1.065063,-2.74656 3.031517,-13.75801 13.156222,-24.918943 26.615485,-29.339486 11.996637,-3.940159 25.018966,-3.24661904 36.389886,1.938044 14.37613,6.554921 23.05457,19.219352 23.72847,34.626922 0.1255,2.86938 0.24862,3.77031 0.51524,3.77031 0.876362,0 1.142252,1.12176 1.078172,4.54868 -0.0513,2.74098 -0.14507,3.43371 -0.52136,3.8495 -0.252372,0.27887 -0.458862,0.59398 -0.458862,0.70026 0,0.10627 0.470752,1.16846 1.046122,2.36041 1.27172,2.63454 2.77554,7.08225 3.22093,9.52624 0.29728,1.63123 0.40573,1.83505 1.1396,2.14182 1.03082,0.4309 1.38594,0.86775 1.99238,2.45089 0.26913,0.70258 0.63696,1.64162 0.81741,2.08676 0.48067,1.18578 0.11167,2.68941 -0.91096,3.71204 -1.43942,1.43942 -6.66587,2.78336 -14.889432,3.82868 -4.81908,0.61257 -8.53088,0.57286 -12.12751,-0.12975 -1.01864,-0.19899 -1.8624,-0.34403 -1.87501,-0.32231 -0.0126,0.0217 -0.38806,0.69433 -0.83433,1.4947 -0.89097,1.59789 -1.06633,1.91543 -3.50688,6.35 -3.11113,5.65304 -2.4071,5.02287 -9.88975,8.85213 -8.4649,4.33193 -15.645275,6.70407 -24.012355,7.93282 -3.389983,0.49783 -10.152899,0.50917 -12.840252,0.0215 z m 10.43724,-5.17398 c 7.352369,-0.78339 14.593195,-3.01875 21.354677,-6.59253 5.68792,-3.00635 7.60316,-4.13184 7.87795,-4.62946 0.97014,-1.75689 5.48351,-11.37085 5.48351,-11.68049 0,-0.20442 -0.20836,-0.36702 -0.46303,-0.36133 -0.33988,0.008 -1.20046,1.56199 -3.23592,5.84474 l -2.77291,5.8344 -1.72501,0.992 c -8.63531,4.96588 -15.996949,7.88136 -23.156258,9.17073 -4.041472,0.72785 -11.381079,0.67377 -14.552082,-0.10723 -4.572133,-1.12609 -7.325822,-3.0805 -8.066218,-5.72494 -0.438716,-1.56693 -0.20408,-2.95775 1.068861,-6.33573 1.40544,-3.72959 1.611463,-5.99605 1.517656,-16.69578 -0.0662,-7.5507 -0.13021,-8.73125 -0.473424,-8.73125 -0.343321,0 -0.419883,1.4281 -0.567384,10.58334 -0.09528,5.91388 -0.298896,11.20859 -0.461499,12.00048 -0.160045,0.77943 -0.708394,2.66454 -1.218553,4.18913 -1.184527,3.53991 -1.215239,4.99599 -0.144744,6.86242 1.301126,2.26855 3.445269,3.65126 7.151747,4.61203 3.864142,1.00163 7.868411,1.25046 12.382631,0.76947 z m 0.529167,-3.44849 c 6.564749,-0.72223 13.314458,-3.00668 21.22238,-7.18275 4.27966,-2.26003 4.36539,-2.33545 5.7193,-5.03124 1.0346,-2.06 4.59945,-9.68662 4.59945,-9.84002 0,-0.0294 -0.36311,-0.32186 -0.80692,-0.64998 -1.47718,-1.09212 -9.6356,-2.19651 -20.016875,-2.70963 -6.279495,-0.31038 -13.423527,-0.15196 -21.275528,0.4718 l -2.014953,0.16007 -0.149855,5.85148 c -0.165775,6.4731 -0.332466,7.45197 -2.028498,11.91204 -0.58728,1.54438 -1.067783,3.09391 -1.067783,3.44341 0,2.60575 8.063977,4.42804 15.819282,3.57482 z m 52.71474,-19.30703 c 1.23311,-0.15132 2.95639,-0.44065 3.82952,-0.64297 0.87312,-0.20232 2.03398,-0.4411 2.57968,-0.53062 0.54571,-0.0895 0.99219,-0.25548 0.99219,-0.36879 0,-0.1133 -1.45851,0.0163 -3.24114,0.28809 -4.59921,0.70113 -11.6808,0.54841 -14.35365,-0.30956 -4.55628,-1.46252 -7.35938,-3.69753 -11.2989,-9.00896 -2.04656,-2.75926 -4.17922,-5.14891 -4.17922,-4.68282 0,0.10091 0.74414,1.19075 1.65364,2.42185 0.90951,1.23111 2.28279,3.11752 3.05174,4.19204 1.46911,2.05291 3.87553,4.5885 5.21649,5.49651 4.22137,2.85843 9.49853,3.91229 15.74965,3.14523 z m 1.24425,-3.02144 c 5.39255,-0.6359 7.60413,-1.07487 8.406102,-1.66852 0.42157,-0.31206 0.43486,-0.35982 0.0654,-0.23486 -1.815002,0.61377 -5.791752,1.06848 -9.470212,1.08284 l -4.11318,0.0161 -1.97224,-0.97495 c -1.08472,-0.53622 -2.49748,-1.42516 -3.13945,-1.97543 -2.50984,-2.15131 -4.25806,-5.97805 -4.25526,-9.31447 0.002,-2.4307 0.39027,-3.60518 1.6398,-4.96077 l 1.07195,-1.16292 -2.21651,-0.002 c -4.64324,-0.004 -11.79011,-1.44343 -21.00193,-4.23101 C 41.594802,43.25735 29.36711,41.28036 17.944272,41.58916 l -4.286355,0.11588 -1.928602,1.28243 c -1.06073,0.70534 -2.3976993,1.62225 -2.9710423,2.03758 l -1.042441,0.75514 5.9344813,-0.1737 c 11.571264,-0.33869 27.795325,1.16895 39.007397,3.62482 8.939818,1.95816 11.999358,3.27986 15.213538,6.57215 2.09585,2.14678 3.68697,4.64054 3.24368,5.08382 -0.26003,0.26003 -0.59357,-0.0763 -2.97909,-3.00442 -2.43707,-2.99134 -5.68273,-4.77407 -11.24033,-6.17393 -6.456255,-1.62621 -12.305807,-2.55352 -23.590815,-3.73978 -6.219501,-0.65378 -7.777814,-0.7189 -17.159481,-0.71701 -9.8046613,0.002 -11.7386693,0.12818 -11.9546403,0.78012 -0.05086,0.15355 3.365706,0.25924 8.8463013,0.27366 11.910909,0.0313 19.189739,0.61836 34.461462,2.77924 15.072413,2.13268 17.951573,3.55188 23.104833,11.38884 3.03341,4.61313 5.67673,6.81938 9.77155,8.15579 3.46698,1.13152 6.27743,1.29819 11.50189,0.68212 z m -5.579,-6.39642 c 3.16274,-1.50082 2.16091,-8.55126 -1.47894,-10.40817 -1.80924,-0.92301 -3.79352,-0.60705 -4.67949,0.74512 -0.24937,0.38059 -0.49418,1.43498 -0.5659,2.43737 -0.16368,2.28763 0.40943,4.0407 1.85955,5.68812 1.68246,1.91138 3.11973,2.36564 4.86478,1.53756 z m 5.12156,-16.22988 c 0.94841,-0.12799 -0.61806,-0.20968 -4.49792,-0.23456 C 75.172578,48.37597 68.613498,47.34738 53.65289,43.23428 44.514567,40.7219 38.515063,39.50762 30.168087,38.48106 25.759002,37.93881 13.63163,37.62985 13.63163,38.05978 c 0,0.21182 1.234509,0.30354 4.167187,0.3096 10.883689,0.0225 21.385486,1.73134 37.636981,6.12431 10.57825,2.85942 14.42479,3.63714 20.6375,4.17262 1.81901,0.15678 3.78354,0.33126 4.36562,0.38773 1.41766,0.13753 9.15549,-0.12194 10.98021,-0.36821 z m 2.24896,-2.901 c 3.31122,-0.55598 2.80345,-0.62643 -2.09955,-0.29131 -9.10821,0.62256 -24.41291,-1.02176 -31.50254,-3.3846 -2.35364,-0.78443 -2.7911,-1.34272 -1.47823,-1.88653 0.66977,-0.27743 1.19457,-0.24156 3.32698,0.22741 6.49598,1.42862 11.76549,0.1877 15.91434,-3.74768 3.15357,-2.99131 4.59421,-6.41214 4.59421,-10.909062 0,-2.849988 -0.47589,-4.862897 -1.77058,-7.489244 -1.64931,-3.345691 -5.78648,-7.260652 -9.44064,-8.933585 -1.40819,-0.64469 -1.91808,-1.171961 -1.13333,-1.171961 0.65902,0 3.38019,1.038412 5.5546,2.119666 1.63791,0.814472 1.977,0.919941 1.40344,0.436515 -2.46752,-2.07974 -10.41387,-5.006498 -15.95846,-5.877733 -3.9223,-0.616322 -11.99113,-0.409459 -15.794404,0.404926 -8.015443,1.716325 -14.739851,5.215416 -19.623397,10.211166 -3.509526,3.59016 -6.767237,9.239211 -8.4658,14.680162 -0.519978,1.66563 -1.218951,3.7545 -1.553272,4.64193 l -0.607858,1.6135 4.921412,0.16373 c 5.655106,0.18814 9.262394,0.5071 14.31412,1.26569 6.931783,1.0409 16.193995,2.94581 21.695829,4.46206 7.31271,2.01531 14.69819,3.42746 20.76979,3.97131 3.99262,0.35762 13.47677,0.074 16.93334,-0.50636 z" /></svg>
