<?xml version="1.0" encoding="UTF-8" standalone="no"?>
<svg
   width="99.974792mm"
   height="93.678955mm"
   viewBox="0 0 99.974792 93.678955"
   version="1.1"
   xml:space="preserve"
   xmlns="http://www.w3.org/2000/svg"
   xmlns:svg="http://www.w3.org/2000/svg"><path
     style="fill:#000000"
     d="m 59.080695,93.571824 c -4.26294,-0.21042 -6.82822,-0.61942 -9.01626,-1.43753 -6.07625,-2.27191 -9.855708,-7.86776 -13.152554,-19.47361 l -0.700041,-2.46434 -4.810608,-0.0447 C 24.125183,70.084044 15.252933,69.000514 8.863541,67.399104 1.995959,65.677854 0,64.349824 0,61.501694 c 0,-1.62059 0.553325,-2.65634 1.859623,-3.48097 0.635743,-0.40133 1.050793,-0.86613 1.050793,-1.17674 0,-1.2018 0.713034,-2.02953 2.126776,-2.46887 0.579562,-0.18011 1.19658,-4.42166 1.840328,-12.65091 0.803536,-10.27189 1.57374,-13.88561 4.087285,-19.17715 C 16.989188,9.8644636 28.94315,1.8880846 44.482195,0.18230457 c 3.3263,-0.365141 10.25751,-0.157577 13.59384,0.407084 13.67161,2.31387003 24.51526,10.18873543 29.93171,21.73699543 2.07072,4.4149 2.74941,7.26655 3.82081,16.05378 0.21673,1.77753 0.42139,2.57969 0.65816,2.57969 0.61414,0 1.46631,1.36647 1.3846,2.22023 -0.0721,0.75344 -0.0101,0.81114 1.07526,1.00032 2.71265,0.47283 4.81996,2.49654 5.00057,4.80218 0.194825,2.48709 -0.47816,2.74541 -7.34298,2.81863 -3.31401,0.0353 -5.91569,0.2778 -6.21728,0.57939 -0.0697,0.0697 -0.17468,5.23789 -0.2332,11.48479 -0.1091,11.64607 -0.35117,15.01648 -1.35904,18.92237 -0.95608,3.7052 -3.32446,6.98799 -6.14304,8.51485 -3.3663,1.82355 -10.90075,2.69715 -19.57091,2.26918 z m 12.48909,-7.65365 c 3.66721,-0.50764 5.56708,-2.15154 6.30892,-5.45892 0.72358,-3.22598 1.04812,-8.98412 1.02559,-18.19643 -0.0208,-8.50692 -0.0492,-9.01386 -0.52575,-9.39979 -0.41936,-0.33957 -1.00985,-0.37805 -3.52397,-0.22965 -1.66111,0.0981 -5.81817,0.31899 -9.23791,0.49099 -11.0087,0.55367 -11.85278,0.95092 -16.29496,7.66885 -1.45192,2.19574 -2.91679,4.03767 -4.09527,5.14939 -1.00912,0.95196 -1.83477,1.93272 -1.83477,2.17948 0,0.24676 0.42293,1.82644 0.93985,3.51041 2.8634,9.32809 5.37827,13.00663 9.63939,14.09969 2.68019,0.68753 13.17457,0.79843 17.59888,0.18598 z M 34.528123,62.383034 c 2.349641,-0.33264 4.789358,-1.51486 6.125901,-2.96844 0.568675,-0.61848 1.619798,-2.077 2.335831,-3.24117 4.52087,-7.3503 8.41809,-9.87679 16.14452,-10.46614 3.3758,-0.2575 20.7969,-1.17797 27.64895,-1.46088 4.46237,-0.18425 5.29167,-0.42978 5.29167,-1.56673 0,-1.20096 -0.79145,-1.3958 -4.7625,-1.17244 -1.96453,0.1105 -6.54844,0.33701 -10.18646,0.50334 -11.75242,0.53735 -20.07216,1.0528 -21.6244,1.33975 -5.9226,1.09485 -10.72342,4.72172 -14.561363,11.00064 -1.972072,3.22633 -2.413776,3.7183 -4.163191,4.63687 -1.120209,0.5882 -1.456639,0.62425 -5.688541,0.60957 -7.267796,-0.0252 -15.385669,-1.10949 -22.052267,-2.94546 -3.793107,-1.04461 -4.334196,-1.01766 -4.484734,0.22343 -0.113304,0.93411 0.564826,1.4052 3.121377,2.1684 5.963007,1.7801 11.049837,2.58148 21.828124,3.43881 2.202871,0.17522 3.229891,0.15488 5.027083,-0.0995 z" /></svg>
