<?xml version="1.0" encoding="UTF-8" standalone="no"?>
<svg
   width="78.631218mm"
   height="79.944489mm"
   viewBox="0 0 78.631218 79.944489"
   version="1.1"
   xml:space="preserve"
   xmlns="http://www.w3.org/2000/svg"
   xmlns:svg="http://www.w3.org/2000/svg"><path
     style="fill:#000000"
     d="m 43.8894,79.783579 c -1.712989,-0.22227 -5.336315,-0.91318 -6.154345,-1.17353 -0.474472,-0.15101 -1.010254,-0.55025 -1.190625,-0.88719 -0.461512,-0.86212 -6.321595,-3.82569 -6.874809,-3.47673 -0.300767,0.18972 -0.701384,0.0252 -1.559162,-0.64018 -3.294676,-2.55581 -6.71447,-6.13291 -6.470651,-6.76829 0.07591,-0.19783 -0.526536,-1.28374 -1.338777,-2.41314 -0.812241,-1.1294 -1.538792,-2.21187 -1.614558,-2.4055 -0.08203,-0.20965 -0.361676,-0.29349 -0.691335,-0.20728 -0.878476,0.22972 -1.898662,-0.96843 -2.443019,-2.8692 l -0.475098,-1.65894 -2.498847,-0.30709 c -3.4887818,-0.42874 -5.6500918,-0.99787 -8.1289388,-2.14056 -5.722939,-2.63814 -5.876365,-5.49622 -0.740728,-13.79859 2.817409,-4.55468 3.698316,-7.14634 4.449912,-13.09179 0.947748,-7.4971 3.5965838,-13.23453 8.4629198,-18.3308497 C 22.588051,3.3660293 30.423812,0.01852933 39.1269,1.693315e-4 42.94274,-0.00783067 44.949773,0.26553933 48.426548,1.2670593 c 8.371076,2.41137 15.567476,8.66011 19.405376,16.8499597 1.3323,2.84308 2.23093,6.27611 2.76849,10.57649 0.43986,3.51878 1.37138,7.19549 2.26862,8.95423 0.29048,0.56939 1.18976,2.05026 1.99841,3.29083 1.93238,2.96454 3.5371,6.428 3.729,8.0483 0.31436,2.6543 -1.50174,4.75107 -5.49319,6.34212 -2.24447,0.89468 -5.19505,1.55151 -8.05596,1.79335 -1.96696,0.16627 -1.9756,0.17037 -1.9756,0.93705 0,1.06374 -0.48864,2.8867 -0.93609,3.49223 -0.20461,0.2769 -0.81887,0.5761 -1.36502,0.66487 l -0.99299,0.16141 -0.57088,2.24554 c -0.31398,1.23505 -0.65484,2.75156 -0.75746,3.37002 -0.16583,0.99943 -0.1297,1.12448 0.32484,1.12448 0.80874,0 1.47995,0.91728 1.2734,1.74024 -0.12059,0.48047 -0.0381,0.85616 0.26037,1.18598 0.24029,0.26551 0.3949,0.60006 0.34358,0.74344 -0.14854,0.41506 -6.14828,5.84656 -6.46332,5.85117 -0.15653,0.002 -0.55371,-0.28227 -0.8826,-0.63237 l -0.598,-0.63653 -1.10177,0.47793 c -0.60597,0.26286 -1.631847,0.56383 -2.279716,0.66882 -0.769592,0.12472 -1.349511,0.40901 -1.67285,0.82007 -0.502602,0.63895 -1.432578,0.74937 -3.763788,0.44689 z m 13.584054,-7.12532 c 0.0497,-0.0335 0.0126,-0.30556 -0.0823,-0.60465 -0.28167,-0.88748 -2.01478,-0.62838 -3.14878,0.47073 l -0.90352,0.87573 0.56694,0.86916 0.56693,0.86917 1.45521,-1.20964 c 0.80036,-0.66531 1.49584,-1.23703 1.54551,-1.2705 z m -7.572364,1.05196 c 0.598259,-0.13085 0.676537,-0.23873 0.462873,-0.63797 -0.216054,-0.4037 0.05669,-0.73695 1.706571,-2.08511 1.08005,-0.88254 2.08675,-1.60462 2.23712,-1.60462 0.15036,0 0.32615,-0.38695 0.39063,-0.85989 0.61225,-4.49051 1.05626,-6.53521 1.77449,-8.17164 1.08758,-2.47795 1.55859,-4.76089 1.75263,-8.49481 l 0.16144,-3.10656 -1.19331,-0.52786 c -1.69925,-0.75166 -6.16679,-1.77482 -9.811956,-2.24715 -8.001396,-1.03679 -20.089542,-0.13495 -26.16641,1.95216 l -1.402851,0.48181 0.0819,2.48333 c 0.106001,3.21421 0.708062,6.14729 1.568786,7.6427 1.408848,2.44771 3.341336,5.1279 4.269465,5.92138 0.52746,0.45093 2.111857,1.92595 3.520884,3.27781 2.222984,2.1328 2.934884,2.63612 5.381803,3.80499 2.521985,1.20473 2.886208,1.31159 3.447144,1.01139 0.670216,-0.35869 1.70006,-0.29953 6.733144,0.38684 1.961519,0.26749 2.855897,0.50392 3.042708,0.80433 0.164197,0.26404 0.465357,0.36873 0.79375,0.27591 0.291042,-0.0823 0.853178,-0.22042 1.249191,-0.30704 z M 5.3925272,45.291369 c 1.974771,-1.32623 6.2771838,-3.30098 9.9218738,-4.554 16.136491,-5.54762 36.247513,-5.82428 50.837713,-0.69935 3.04833,1.07076 5.69089,2.30803 7.50291,3.51294 l 1.45521,0.96765 -1.61161,-1.54483 c -3.79742,-3.64006 -11.8569,-6.50397 -22.24493,-7.90465 -4.86696,-0.65624 -18.474212,-0.65192 -22.97471,0.007 -6.976145,1.02184 -11.981633,2.40523 -16.404166,4.53372 -3.4609948,1.66571 -5.7941188,3.35741 -7.5647108,5.48499 -1.425534,1.71295 -1.610882,2.08946 -0.703518,1.4291 0.327422,-0.23829 1.131094,-0.79308 1.785938,-1.23286 z M 23.962327,20.787409 c 5.917863,-3.10975 10.39603,-11.5477197 7.466089,-14.0679497 -0.641071,-0.55142 -0.924358,-0.61661 -2.136174,-0.49154 -4.050132,0.41801 -9.989461,5.6828497 -11.617999,10.2986197 -0.438375,1.24248 -0.493544,3.45764 -0.104232,4.18508 0.864419,1.61518 3.405509,1.64531 6.392316,0.0758 z" /></svg>
