<svg xmlns="http://www.w3.org/2000/svg" xml:space="preserve" width="317.497" height="993.942" viewBox="0 0 84.004 262.98"><path d="M21.939 0a21.5 21.5 0 0 0-7.579 2.777c-.035.615.22 1.344.3 1.996 1.322 6.94 3.178 13.806 3.676 20.877.362 4.4.475 8.918-.643 13.224-.926 3.048-3.166 5.458-5.413 7.618-1.225 1.107-2.491 2.21-3.793 3.203 1.24 11.149 2.842 22.277 3.603 33.478.041 1.09.012 2.18.01 3.27h28.583V26.055H28.946C26.72 17.804 24.814 9.474 22.45 1.258 22.27.878 22.233.234 21.94 0m41.263.045c-.79.542-.873 1.64-1.203 2.475-1.845 6.151-2.83 12.56-5.172 18.558-.864 2.139-2.46 4.237-4.841 4.72-2.481.612-5.06.51-7.59.724.066 3.164-.046 6.35-.049 9.523l-.473 50.397H72.47c-.073-5.533.684-11.031 1.226-16.526.727-6.752 1.545-13.493 2.323-20.24-2.897-2.429-6.064-4.796-7.765-8.28-2.449-4.74-2.69-10.3-1.976-15.496.751-5.979 2.003-11.886 3.443-17.732.41-1.652.928-3.29 1.302-4.942-.33-.943-1.46-1.215-2.274-1.61C66.992.94 65.092.355 63.202.046m-3.064 19.84c2.074-.074 4.46 1.332 4.594 3.57.084 1.791-2.009 3.149-3.626 2.418-1.763-.573-3.418-2.158-3.425-4.103.097-1.21 1.37-1.842 2.457-1.885m-35.994.933c1.547.004 3.21 1.407 2.803 3.054-.506 1.905-2.89 2.525-4.587 1.942-1.308-.361-2.577-1.8-1.931-3.197.68-1.335 2.312-1.817 3.715-1.799m.627 6.602c2.79.095 5.25 3.077 4.416 5.83-.671 1.541-1.89 3.126-3.641 3.418-2.069.16-3.729-1.677-4.305-3.51-.674-1.995-.007-4.653 2.088-5.486.46-.171.95-.26 1.442-.252m34.25.355c1.534-.126 3.434.387 3.976 2.004.511 1.599.828 3.526-.103 5.028-1.541 2.07-5.053 2.002-6.652.026-1.395-1.596-1.725-4.342-.178-5.946.79-.745 1.889-1.076 2.957-1.112m-13.342 61.89c-.6 0-1.2.005-1.799-.004l-.467 29.232c-.313.543-.487 1.594-1.336 1.36-.706-.682-.867-1.779-.81-2.734-.205-9.285-.416-18.575-.623-27.862-3.556.043-7.123-.112-10.67.166-.796.108-1.796.3-2.013 1.217-.531 1.541-1.748 2.694-2.78 3.91-3.084 3.27-6.552 6.17-10.183 8.812a24 24 0 0 1-5.62 3.026c-.937.383-1.776 1.248-1.634 2.334-.488 12.195-1.134 24.385-1.715 36.577-1.399 28.553-2.88 57.102-4.201 85.66-.27 6.568-.643 13.136-.686 19.71.018.963-.056 2.003.357 2.89.844.616 1.986.451 2.97.634 7.65.582 15.364.547 23.05.713 1.185-8.912 1.897-17.873 2.772-26.823 2.552-27.61 5.3-55.202 8.655-82.727.459-3.545.851-7.11 1.593-10.607.271-.864.64-1.93 1.542-2.287 1.067-.29 1.727.893 1.84 1.787.866 3.69 1.094 7.487 1.6 11.235 3.203 27.508 6.097 55.057 8.971 82.598.898 8.78 1.824 17.565 2.521 26.357.402.217 1.131.156 1.63.228 4.695.275 9.509.031 14.247-.156 3.213-.178 6.465-.37 9.65-.97.711-.185.515-1.101.684-1.654.312-3.656-.03-7.329-.144-10.987-2.105-40.58-4.122-81.165-6.13-121.75-.276-3.65-.266-7.457-1.386-11.003-.555-1.345-1.65-2.27-2.913-2.857-4.625-2.392-8.533-5.933-12.153-9.627-1.907-1.867-3.513-4.1-5.78-5.56-1.664-1.04-3.712-.738-5.578-.854-1.154-.007-2.308.008-3.461.016m-35.57 3.322c-.92 3.517-1.93 7.051-2.223 10.686-.077.566.6.163.897.11 2.267-.953 4.234-2.595 6.171-4.007 3.422-2.7 6.735-5.596 9.51-8.97.322-.396.776-.923-.049-.835-4.041-.493-8.125-.249-12.186-.314-.617 0-1.381-.197-1.346.672zm52.939-3.32c-1.362.085-2.744-.052-4.086.248 1.082 1.89 2.744 3.365 4.246 4.922 3.67 3.498 7.641 6.83 12.305 8.914.34-.13.188-1.014.22-1.45-.206-4.3-1.383-8.463-2.312-12.644q-5.187-.003-10.373.01m-2.55 11.035c1.398-.119 2.19 1.766 1.29 2.771.116.177.95-.122 1.354-.109.908-.038 1.98-.295 2.77.27.737.659.31 1.911-.55 2.237-.253.188-.94.39-.304.345 1.346.082 2.774.084 4.015.662 1.498.925 1.189 3.274-.131 4.212-1.58 1.133-3.638 1.016-5.483 1.249-2.647.154-5.311.316-7.961.164-1.203-.05-2.516-.76-2.673-2.065-.254-1.294-.053-2.996 1.288-3.614.491-.158-.401-.27-.522-.528-.933-.827-1.097-2.315-.6-3.412.438-.866 1.646-.994 2.326-.338.793.605 1.651 1.212 2.694 1.202.607.242.145-.38.217-.67-.076-1.295.947-2.436 2.27-2.376m22.04 156.707c-4.174.426-8.37.586-12.559.812-3.971.212-7.952.235-11.89.825-.474.09-1.115.275-1.014.888-.066.868.053 1.8.42 2.577 3.362.428 6.762.404 10.177.367 4.817-.155 9.677-.206 14.419-1.152.756-.12 1.909-.354 1.857-1.344.027-1.044.187-2.137-.193-3.137zM.032 259.432c.089.785-.21 1.964.662 2.384 2.757.721 5.59.585 8.412.775 6.136.245 12.277.279 18.417.39v-4.448c-9.042.014-18.125.07-27.095-1.22-.756-.22-.248.986-.396 1.453z"/></svg>