<?xml version="1.0" encoding="UTF-8" standalone="no"?>
<svg
   width="86.75296mm"
   height="115.23154mm"
   viewBox="0 0 86.75296 115.23154"
   version="1.1"
   xml:space="preserve"
   xmlns="http://www.w3.org/2000/svg"
   xmlns:svg="http://www.w3.org/2000/svg"><path
     style="fill:#000000"
     d="m 36.899778,115.05209 c -11.528303,-1.08612 -23.309982,-5.09113 -31.8822902,-10.83791 -5.43978096,-3.64677 -5.96461596,-4.416594 -3.902604,-5.724254 5.414715,-3.43384 6.606144,-4.34022 9.4474772,-7.18716 2.918526,-2.92428 3.07245,-3.03669 4.136334,-3.02061 l 1.105003,0.0167 0.169719,-1.36469 c 0.09335,-0.75058 0.413909,-2.6836 0.712363,-4.2956 l 0.542644,-2.93091 -0.847101,-1.43472 c -2.110834,-3.57506 -4.180316,-9.41513 -5.24316,-14.79617 -1.077501,-5.45524 -1.2262232,-7.33698 -1.2128512,-15.34583 0.01122,-6.72241 0.09526,-8.33743 0.6057572,-11.64167 1.27027,-8.22193 3.411955,-16.284813 5.348924,-20.137313 4.233932,-8.4210007 12.962809,-14.4615877 23.065182,-15.96164573 3.449335,-0.512177 5.44321,-0.518772 8.670229,-0.02868 10.48741,1.59274103 18.90531,7.39378603 23.29142,16.05086673 1.36545,2.695069 2.94419,7.934544 4.07287,13.516922 1.6709,8.2642 1.85953,10.14407 1.86615,18.5984 0.005,6.71537 -0.0686,8.13517 -0.59167,11.37708 -1.09221,6.7691 -2.91775,12.61755 -5.40614,17.31958 l -1.32458,2.50292 0.74005,4.17781 0.74005,4.17781 h 0.99865 c 0.92167,0 1.23881,0.23961 4.11477,3.10886 2.94145,2.93459 4.12264,3.85134 8.73853,6.78219 2.94955,1.87282 2.74776,2.324284 -2.65629,5.943174 -8.15446,5.46073 -17.67924,9.01582 -28.49736,10.63654 -4.17292,0.62516 -12.75424,0.87966 -16.802076,0.4983 z M 47.361494,93.901836 c 2.42388,-0.45968 4.15454,-1.44075 6.18829,-3.508 2.17268,-2.20847 4.33264,-5.37274 6.20842,-9.09511 2.93716,-5.82862 3.98814,-9.38654 4.1898,-14.18393 l 0.1418,-3.37343 -2.21793,-0.003 c -2.20214,-0.003 -4.29212,-0.40135 -5.53743,-1.0551 -0.35709,-0.18747 -2.07122,-1.288 -3.80919,-2.44563 -5.26487,-3.50684 -7.778998,-4.59385 -10.076575,-4.35672 -1.838149,0.18972 -3.538098,1.0271 -7.668916,3.77766 -1.889929,1.25844 -3.972016,2.55893 -4.626859,2.88998 -1.573508,0.79547 -3.85038,1.24601 -5.878641,1.16323 l -1.645655,-0.0672 -0.225766,1.04063 c -0.487964,2.24918 0.427702,7.54575 2.044037,11.82351 1.008749,2.66973 3.196727,6.93 4.817766,9.38079 1.72488,2.60778 4.00817,5.16931 4.394808,4.93036 0.155238,-0.0959 0.202115,-0.0477 0.105496,0.10868 -0.190847,0.3088 1.041993,1.446 2.238227,2.0646 2.045627,1.05783 8.042401,1.53764 11.358318,0.90879 z m -7.238027,-15.70386 c -1.137388,-0.34505 -2.173232,-0.73262 -2.301875,-0.86126 -0.135474,-0.13547 2.098589,-0.2339 5.309123,-0.2339 3.048659,0 5.543019,0.0659 5.543019,0.14636 0,0.27875 -3.745445,1.35122 -5.110859,1.46344 -0.953839,0.0784 -2.001116,-0.0783 -3.439408,-0.51464 z m -4.017439,-3.61225 c -1.455208,-0.10183 -3.00302,-0.27879 -3.439583,-0.39324 -1.205586,-0.31604 -3.114012,-1.33061 -3.679028,-1.95586 -0.621896,-0.6882 -0.341079,-0.72077 0.595476,-0.0691 0.386266,0.26879 1.107022,0.62598 1.60168,0.79375 1.244761,0.4222 4.686849,0.38179 6.690975,-0.0786 2.196255,-0.50447 9.036646,-0.38312 12.089776,0.21448 1.68548,0.3299 2.58489,0.37492 3.74811,0.18758 1.53012,-0.24641 2.98321,-0.83739 3.29351,-1.33948 0.31578,-0.51093 0.69057,-0.28388 0.40676,0.24641 -0.15097,0.28209 -1.02017,0.87998 -1.93155,1.32865 -1.34042,0.65989 -2.18717,0.86354 -4.43118,1.06572 -3.11411,0.28057 -10.933045,0.28037 -14.944946,-3.8e-4 z m 6.928563,-4.15932 c -0.0657,-0.11151 -0.204665,-0.61947 -0.308805,-1.12879 -0.104141,-0.50933 -0.474843,-1.42267 -0.823784,-2.02965 -0.663088,-1.15344 -1.270137,-1.46942 -3.480122,-1.81145 -0.618053,-0.0957 -1.378043,-0.37984 -1.688868,-0.63153 -0.478407,-0.38739 -0.517697,-0.54626 -0.256021,-1.03521 0.238945,-0.44647 0.550223,-0.57758 1.371277,-0.57758 1.144215,0 2.096933,0.40907 3.762203,1.61539 0.581484,0.42122 1.247739,0.76548 1.480567,0.76502 0.232828,-4.7e-4 1.137698,-0.47665 2.010823,-1.05818 2.136803,-1.4232 3.084163,-1.72233 4.027383,-1.27165 0.82286,0.39318 1.08738,1.28956 0.5196,1.76078 -0.20534,0.17042 -1.07429,0.43155 -1.931,0.58028 -0.85671,0.14874 -1.81012,0.37626 -2.11869,0.50561 -0.632103,0.26496 -1.952501,2.71395 -1.952501,3.62138 0,0.60794 -0.397521,1.05971 -0.612062,0.69558 z M 31.540342,54.004886 c 1.920903,-0.94566 4.241841,-2.88396 4.841268,-4.04312 1.163667,-2.25029 -0.645178,-4.9498 -4.91037,-7.32823 -3.180862,-1.77376 -7.384165,-2.20471 -9.932007,-1.0183 -4.279063,1.99256 -5.051614,7.25576 -1.58743,10.81477 1.870487,1.92169 3.850899,2.59975 7.31155,2.50335 2.244708,-0.0625 2.733595,-0.16866 4.276989,-0.92847 z m 31.571322,0.45122 c 1.48756,-0.45946 2.05349,-0.81383 3.31607,-2.07641 1.21192,-1.21192 1.61272,-1.83312 1.96533,-3.04604 0.91346,-3.14221 -0.26028,-6.18672 -2.90657,-7.53923 -1.57497,-0.80496 -4.48816,-1.04106 -6.74051,-0.54628 -2.17658,0.47812 -4.95816,2.04197 -6.83031,3.84009 -2.76686,2.65745 -2.91905,4.08972 -0.67321,6.33557 3.2738,3.27379 7.55018,4.36631 11.8692,3.0323 z" /></svg>
