<?xml version="1.0" encoding="UTF-8" standalone="no"?>
<svg
   width="76.133644mm"
   height="119.60699mm"
   viewBox="0 0 76.133644 119.60699"
   version="1.1"
   xml:space="preserve"
   xmlns="http://www.w3.org/2000/svg"
   xmlns:svg="http://www.w3.org/2000/svg"><g
     transform="translate(-50.204238,-80.735232)"><path
       style="fill:#000000"
       d="m 87.179546,184.45934 v -15.88245 l -0.859896,-6e-5 -0.859896,-6e-5 0.07229,15.78393 0.07229,15.78394 -3.379584,-0.16894 c -5.482303,-0.27404 -11.807058,-1.33421 -17.204063,-2.88378 -1.569545,-0.45064 -1.91823,-0.64828 -1.91823,-1.08728 0,-0.79833 1.723038,-8.11297 3.193993,-13.55915 1.168882,-4.32776 3.820902,-12.50649 4.854453,-14.97094 l 0.406824,-0.97005 1.527052,0.35135 c 2.294201,0.52785 5.196771,0.92497 8.328004,1.1394 2.702637,0.18509 2.798122,0.17349 2.540207,-0.30843 -0.152631,-0.28519 -0.227688,-1.76742 -0.174366,-3.44335 l 0.09362,-2.94262 -1.852083,-0.065 c -3.369707,-0.11823 -9.919185,-1.03476 -10.329994,-1.44557 -0.06254,-0.0625 -0.354118,-1.53418 -0.647958,-3.27032 -0.582207,-3.43996 -1.629596,-8.28358 -2.198752,-10.16808 l -0.359592,-1.19063 -0.177253,0.79375 c -0.215843,0.96656 -2.217161,13.74311 -3.494967,22.3121 -0.513656,3.4446 -0.980866,6.3995 -1.038243,6.56646 -0.123755,0.3601 -2.423651,-0.0232 -6.839367,-1.13984 -2.682437,-0.67833 -2.828785,-0.74917 -2.343282,-1.13424 0.889309,-0.70536 0.956125,-1.50807 0.189352,-2.27484 -0.500013,-0.50001 -0.840161,-0.63543 -1.273202,-0.50686 -1.114666,0.33095 -1.657356,1.72785 -0.947165,2.43804 0.230545,0.23055 0.06875,0.23264 -0.661458,0.009 -0.531663,-0.16317 -0.966659,-0.43993 -0.966659,-0.61501 0,-1.23589 1.479237,-14.2274 2.130502,-18.7113 1.853265,-12.75954 6.185122,-33.2029 7.168092,-33.82841 0.197283,-0.12554 2.442291,-0.88931 4.988905,-1.69727 2.546614,-0.80796 6.143252,-1.97645 7.992529,-2.59665 l 3.362321,-1.12764 0.563581,0.76229 c 0.30997,0.41925 0.523332,0.79057 0.474137,0.82515 -0.04919,0.0346 -3.482725,1.16735 -7.630068,2.51725 -4.147344,1.34991 -7.580037,2.49268 -7.628207,2.5395 -0.182746,0.17762 0.517621,1.18886 0.824495,1.19046 0.176781,9.2e-4 3.786578,-1.13883 8.021771,-2.53279 l 7.70035,-2.53447 1.635507,1.05708 c 0.899529,0.58139 2.406663,1.33364 3.349188,1.67167 l 1.71368,0.61459 -0.06933,20.44032 -0.06933,20.44031 0.859896,-3e-5 0.859896,-3e-5 V 140.30172 119.9636 l 1.918229,-0.13385 c 2.226211,-0.15534 4.153757,-0.83146 6.632504,-2.32646 l 1.765979,-1.06511 7.748172,2.52167 c 4.2615,1.38691 7.88918,2.52166 8.0615,2.52166 0.29902,0 0.99927,-1.01585 0.8164,-1.18435 -0.0482,-0.0444 -3.48086,-1.17689 -7.6282,-2.51667 -4.14735,-1.33979 -7.6315,-2.5212 -7.742568,-2.62536 -0.111068,-0.10415 0.102191,-0.47509 0.473909,-0.8243 l 0.675852,-0.63493 4.156297,1.36255 c 2.28597,0.74941 5.89976,1.90811 8.03066,2.57489 2.13089,0.66679 4.00807,1.37346 4.1715,1.57038 0.55182,0.66491 2.78953,9.96944 4.65163,19.34174 1.68972,8.50471 3.13071,18.24971 3.95175,26.72459 0.22556,2.32834 0.47516,4.79888 0.55465,5.49011 0.11373,0.98887 0.0626,1.25677 -0.23981,1.25677 -0.21139,0 -0.54417,0.0613 -0.73951,0.13629 -0.25101,0.0963 -0.35434,-0.1074 -0.35237,-0.6947 0.002,-0.59509 -0.19946,-0.98323 -0.70966,-1.36727 -0.6628,-0.4989 -0.75716,-0.50699 -1.35375,-0.11609 -0.89215,0.58456 -1.03285,1.36961 -0.39158,2.18485 0.29356,0.37319 0.4904,0.716 0.43743,0.76179 -0.48406,0.41844 -9.1678,2.31124 -9.33824,2.03546 -0.0593,-0.0959 -0.83286,-4.87459 -1.71911,-10.61932 -0.88625,-5.74473 -1.94607,-12.4095 -2.35515,-14.81059 l -0.74378,-4.36563 -0.45473,1.53113 c -0.71621,2.41161 -1.68134,6.93008 -2.1723,10.17019 -0.33972,2.24199 -0.55479,3.00123 -0.87735,3.09719 -2.00239,0.59571 -11.457615,1.62278 -12.022197,1.30591 -0.207527,-0.11648 -0.20107,-0.0559 0.01936,0.18156 0.531174,0.57226 0.446896,5.77993 -0.106937,6.60775 -0.240716,0.3598 -0.276435,0.50536 -0.07937,0.32346 0.19706,-0.1819 0.994015,-0.33073 1.771011,-0.33073 2.058511,0 6.221023,-0.49341 8.755093,-1.0378 l 2.20386,-0.47345 0.26858,0.68948 c 0.89661,2.30166 4.29625,12.87792 5.06935,15.77073 0.9002,3.36841 2.63185,10.7287 2.95787,12.57227 l 0.16456,0.93061 -2.72987,0.76005 c -5.95596,1.65826 -12.057674,2.54035 -20.258517,2.92868 l -3.241145,0.15348 z m 3.439583,-19.8512 v -2.38125 h -2.38125 -2.38125 v 2.38125 2.38125 h 2.38125 2.38125 z m 0.211666,-10.10708 c 0.449534,-0.44953 0.393761,-1.68511 -0.09827,-2.17714 -0.54189,-0.54189 -1.664212,-0.53099 -2.275372,0.0221 -0.592254,0.53598 -0.614192,1.11037 -0.07198,1.88449 0.459235,0.65565 1.901019,0.81515 2.445622,0.27054 z m -0.270538,-9.88396 c 1.122103,-0.78595 0.472251,-2.76312 -0.908177,-2.76312 -1.133484,0 -2.054546,1.41723 -1.476296,2.27157 0.235293,0.34763 1.149029,0.88427 1.524577,0.89538 0.149522,0.004 0.536475,-0.1773 0.859896,-0.40383 z m -8.916041,-5.41963 c 1.691164,-0.86276 2.093596,-1.78836 2.094757,-4.81797 l 9.89e-4,-2.57969 h -8.334374 -8.334375 v 2.75783 c 0,2.61024 0.03823,2.80326 0.714487,3.60694 1.201981,1.42847 1.795025,1.55097 7.564282,1.56238 4.760422,0.009 5.332185,-0.0387 6.294234,-0.52949 z m -9.900699,-1.04405 c -2.698808,-0.17679 -3.084804,-0.57875 -3.084804,-3.21239 v -1.82723 l 6.813021,0.0706 6.81302,0.0706 0.08222,1.29545 c 0.09428,1.48542 -0.307612,2.65547 -1.1036,3.213 -0.720017,0.50432 -5.485963,0.57014 -4.984664,0.0688 0.174625,-0.17462 0.3175,-0.64237 0.3175,-1.03943 0,-1.53656 -1.734192,-2.1186 -2.559489,-0.85903 -0.420855,0.6423 -0.42307,0.75012 -0.0295,1.43588 0.528811,0.92139 0.418963,0.95942 -2.263709,0.78369 z m 35.443443,1.1544 c 1.64565,-0.78092 2.0733,-1.7237 2.17552,-4.79603 l 0.0902,-2.71198 h -8.49075 -8.490748 v 2.05227 c 0,3.24955 0.654918,4.68566 2.513541,5.51173 1.257362,0.55884 11.000757,0.51413 12.202207,-0.056 z m -12.354851,-1.9314 c -0.698017,-0.69802 -0.773397,-0.94301 -0.773397,-2.51355 v -1.74014 h 6.879168 6.87916 v 1.86411 c 0,1.6264 -0.0828,1.94692 -0.64943,2.51354 -0.58962,0.58962 -0.86064,0.64943 -2.94281,0.64943 -1.96215,0 -2.24788,-0.0548 -1.97835,-0.37959 0.42486,-0.51192 0.24803,-2.01714 -0.27543,-2.34466 -1.24885,-0.78139 -2.775891,0.85347 -1.96011,2.09851 l 0.41,0.62574 h -2.407702 c -2.308366,0 -2.43961,-0.0319 -3.181099,-0.77339 z m -4.167668,-3.63324 c 1.392756,-1.26043 -0.473054,-3.54577 -1.964636,-2.40639 -0.740695,0.5658 -0.846423,1.66603 -0.220271,2.29218 0.664509,0.66451 1.527016,0.70959 2.184907,0.11421 z m -0.104184,-9.49899 c 1.122103,-0.78596 0.472251,-2.76313 -0.908177,-2.76313 -0.759333,0 -1.678785,0.86946 -1.678785,1.5875 0,0.65586 0.897096,1.5875 1.528629,1.5875 0.258662,0 0.734912,-0.18534 1.058333,-0.41187 z m -31.95571,63.21722 c -2.911694,-0.63107 -7.61893,-1.98566 -8.085333,-2.3267 -0.411572,-0.30095 -0.414385,-0.70805 -0.04017,-5.81388 0.221314,-3.01964 0.465664,-5.55354 0.543,-5.63087 0.07734,-0.0773 1.070897,0.16694 2.207913,0.54284 2.089162,0.69069 6.664212,1.81313 8.766453,2.15077 0.628596,0.10096 1.197186,0.32502 1.263533,0.49792 0.06635,0.1729 -0.269364,2.69111 -0.746026,5.59603 -0.994828,6.06276 -0.695019,5.68055 -3.909367,4.98389 z m 56.242203,0.19501 c -0.13389,-0.21664 -1.22673,-6.59415 -1.81501,-10.59192 -0.0391,-0.26535 0.45059,-0.47103 1.66447,-0.6992 2.54614,-0.47858 8.00105,-1.89334 9.50815,-2.466 l 1.3163,-0.50015 0.14375,1.0946 c 0.15425,1.17459 0.67347,8.7766 0.67347,9.8604 0,0.82941 -0.74705,1.15384 -5.38329,2.33783 -4.29978,1.09807 -5.87183,1.3463 -6.10784,0.96444 z M 85.195171,118.07678 c -2.272862,-0.65311 -4.089636,-1.72357 -5.710171,-3.36449 l -1.411921,-1.42968 1.152635,-2.35156 1.152635,-2.35156 1.217786,0.93457 c 1.385798,1.0635 3.475944,2.0559 4.887973,2.32079 l 0.960021,0.18011 v 3.27784 c 0,2.45594 -0.08293,3.27312 -0.330729,3.259 -0.181901,-0.0104 -1.045104,-0.22413 -1.918229,-0.47502 z m -0.238047,-2.08987 c 0.160116,-0.10691 0.440153,-0.47715 0.622304,-0.82274 0.282822,-0.5366 0.255534,-0.72978 -0.186868,-1.32292 -0.645986,-0.86608 -1.228778,-0.99205 -2.062482,-0.44578 -0.765225,0.50139 -0.86425,1.58776 -0.210567,2.31007 0.448191,0.49525 1.317872,0.62841 1.837613,0.28137 z m 4.074505,-0.67309 v -3.29886 l 0.859896,-0.16173 c 1.120212,-0.21068 4.060078,-1.60603 5.176752,-2.45704 0.4825,-0.36771 0.932378,-0.61346 0.999728,-0.54611 0.06735,0.0673 0.600626,1.11125 1.185056,2.31978 l 1.0626,2.19732 -1.136287,1.16363 c -1.841155,1.88546 -4.480192,3.29692 -7.287849,3.89784 l -0.859896,0.18404 z m 4.278645,0.43769 c 0.577357,-0.5225 0.635817,-1.75245 0.104263,-2.1936 -0.653721,-0.54254 -2.070021,-0.23153 -2.506832,0.55048 -0.348729,0.62432 -0.342047,0.76937 0.06399,1.38906 0.529675,0.80839 1.59783,0.92443 2.338577,0.25406 z M 81.829297,104.56723 c -2.809603,-0.60961 -4.462332,-1.46475 -4.825225,-2.49663 -0.670503,-1.90656 2.578211,-2.682244 11.233807,-2.682244 6.65362,0 9.598077,0.389947 10.899046,1.443404 1.350805,1.09382 -0.266496,2.58583 -3.915753,3.6124 -2.481448,0.69806 -10.4062,0.77089 -13.391875,0.12307 z m 14.95357,-6.128801 c -1.193851,-0.245552 -3.373156,-0.532526 -4.842901,-0.637722 -2.445994,-0.175069 -2.640102,-0.227967 -2.292429,-0.624724 0.643438,-0.734278 0.758287,-1.551201 0.333552,-2.372549 -0.657981,-1.272394 -2.070332,-1.502136 -3.020006,-0.491254 -0.66522,0.708094 -0.750021,1.930842 -0.189417,2.731215 0.380432,0.543143 0.351534,0.55339 -2.050521,0.727162 -1.340015,0.09694 -3.553508,0.36302 -4.918873,0.591287 -2.623585,0.438623 -2.927343,0.362212 -2.937424,-0.738908 -0.0055,-0.596499 2.406518,-2.689798 4.361573,-3.785303 3.463478,-1.940743 7.810189,-2.408823 11.331011,-1.220192 2.868865,0.968531 7.05753,4.026938 7.05753,5.153146 0,0.179302 -0.148829,0.503371 -0.33073,0.720152 -0.292474,0.348557 -0.5818,0.342507 -2.501365,-0.05231 z M 75.441221,95.79621 c -0.320011,-1.600053 -0.165475,-4.165249 0.35175,-5.838838 1.701402,-5.505237 6.709091,-9.22214 12.424756,-9.22214 7.532267,0 13.556793,6.418162 12.887783,13.729846 -0.0851,0.930217 -0.20487,1.741417 -0.26612,1.802666 -0.0613,0.06125 -0.68922,-0.450393 -1.395498,-1.136983 -3.80594,-3.699851 -9.146323,-5.33668 -14.190999,-4.349544 -3.119057,0.610333 -6.545794,2.542718 -8.819484,4.973431 l -0.824263,0.881187 z" /></g></svg>
