<?xml version="1.0" encoding="UTF-8" standalone="no"?>
<svg
   width="110.08239mm"
   height="58.517227mm"
   viewBox="0 0 110.08239 58.517227"
   version="1.1"
   xml:space="preserve"
   xmlns="http://www.w3.org/2000/svg"
   xmlns:svg="http://www.w3.org/2000/svg"><path
     style="fill:#000000"
     d="m 46.141412,58.390105 c -14.848036,-0.90773 -28.191226,-4.37323 -30.327683,-7.87672 -0.597297,-0.97948 -0.636317,-2.59606 -0.0994,-4.11786 0.258546,-0.73279 0.396875,-2.11769 0.396875,-3.97333 0,-2.73498 0.02372,-2.8542 0.595313,-2.99225 2.395244,-0.57849 9.62242,-1.85024 13.692187,-2.40938 7.660635,-1.05249 13.477581,-1.47918 22.489578,-1.64967 13.62978,-0.25784 25.5754,0.73798 37.27304,3.1072 2.10096,0.42553 3.8609,0.77368 3.91095,0.77368 0.0501,0 0.091,1.29472 0.091,2.87715 0,1.88114 0.13739,3.26656 0.39687,4.00202 0.21828,0.61867 0.39688,1.70486 0.39688,2.41375 0,1.11672 -0.13254,1.43636 -0.99219,2.39291 -3.05208,3.3961 -14.08066,6.22901 -28.62789,7.35364 -3.17184,0.24521 -15.74258,0.30995 -19.19555,0.0989 z m 22.48959,-3.40029 c 13.41489,-1.36179 23.80343,-4.44854 25.40681,-7.54914 0.61636,-1.1919 0.29442,-1.25598 -0.68808,-0.13697 -2.70095,3.07622 -13.15145,5.8149 -26.96769,7.06722 -4.65612,0.42204 -17.60562,0.42458 -22.489584,0.004 -13.372698,-1.15046 -24.128491,-3.93817 -26.86,-6.96162 -0.873077,-0.96639 -1.473961,-0.98617 -0.956253,-0.0315 1.815569,3.34806 13.285109,6.63267 27.022503,7.7386 5.719414,0.46045 6.374114,0.47849 14.022914,0.38635 4.10034,-0.0494 9.12373,-0.2752 11.50938,-0.51738 z M 13.696086,34.737895 c -0.205952,-0.30928 -1.471496,-0.98089 -2.92516,-1.55235 -5.9090766,-2.32294 -9.4849036,-5.1726 -10.55342963,-8.41026 -0.438497,-1.32866 -0.191903,-3.70678 0.541454,-5.22169 C 3.3884704,14.121735 14.293985,7.7110148 27.295308,3.9544048 37.261386,1.0748088 44.76497,0.00908176 55.137252,4.5755383e-5 64.892832,-0.00845424 73.279512,1.1669598 82.521622,3.8380248 c 7.14018,2.06359 15.0281,5.5241 19.774818,8.6754302 6.53464,4.33831 9.08435,9.03191 7.16048,13.18131 -1.24307,2.68108 -5.20742,5.589 -10.103468,7.41107 -1.32662,0.49371 -2.6045,1.14373 -2.83974,1.44449 l -0.4277,0.54684 -5.52542,-1.09358 c -11.88295,-2.35183 -21.13074,-3.21775 -34.36953,-3.2182 -14.207583,-4.8e-4 -25.443727,1.10993 -38.727175,3.82719 -1.802642,0.36875 -3.306167,0.67045 -3.341166,0.67045 -0.035,0 -0.226985,-0.24531 -0.426635,-0.54513 z m 3.605748,-5.39892 c 6.481617,-1.8829 19.557351,-4.10009 24.22495,-4.10771 1.767321,-0.003 2.65939,-0.50764 2.198015,-1.24368 -0.257105,-0.41016 -0.616141,-0.46805 -2.513541,-0.40527 -5.101438,0.16882 -13.86021,1.6896 -19.411507,3.37042 -3.064515,0.92788 -7.540625,2.81675 -7.540625,3.18206 0,0.0978 0.20836,0.0971 0.463021,-0.002 0.254661,-0.0986 1.415521,-0.45605 2.579687,-0.79424 z m 77.126038,-0.12403 c -4.84826,-2.50196 -14.78729,-4.83807 -23.76139,-5.58497 -3.61959,-0.30126 -4.28444,-0.19326 -4.28444,0.69593 0,0.61312 0.8341,0.8254 3.90036,0.99265 5.58925,0.30488 14.53,1.85099 21.49964,3.71791 4.10432,1.0994 4.47941,1.1247 2.64583,0.17848 z m -37.305,-3.07837 c 1.13015,-0.25704 2.41411,-0.79564 3.37076,-1.41395 1.65122,-1.06723 3.46725,-3.09594 3.07993,-3.44063 -0.12883,-0.11465 -0.79978,-0.36054 -1.491,-0.54643 -1.18636,-0.31904 -1.71072,-0.79837 -0.87336,-0.79837 1.00383,0 2.57258,-3.31439 2.9326,-6.19586 0.1722,-1.3783 0.14779,-1.47706 -0.36518,-1.47706 -1.11212,0 -3.60259,1.16013 -4.7626,2.21854 -0.79875,0.72879 -1.12668,0.9138 -0.99187,0.55959 0.4637,-1.2184 0.47863,-3.243 0.0352,-4.76851 -0.67833,-2.3333702 -2.35944,-5.4206702 -2.94922,-5.4161402 -0.33549,0.003 -1.27635,1.45585 -2.14,3.30548 -0.65921,1.41179 -0.74125,1.8851702 -0.74125,4.2768402 v 2.68935 l -0.92604,-0.93971 c -0.95387,-0.96794 -3.06701,-2.08414 -4.23333,-2.23612 -0.63325,-0.0825 -0.66007,-0.0291 -0.62885,1.25211 0.055,2.25623 0.77762,4.22009 2.03621,5.53362 l 1.12543,1.17456 -1.53098,0.4586 c -0.84204,0.25224 -1.53098,0.57206 -1.53098,0.71074 0,0.53558 2.48511,3.12589 3.65991,3.81483 1.00107,0.58705 3.93254,1.56993 4.88682,1.63847 0.11679,0.008 1.03383,-0.17159 2.03785,-0.39995 z" /></svg>
