<?xml version="1.0" encoding="UTF-8" standalone="no"?>
<svg
   width="103.4502mm"
   height="65.255905mm"
   viewBox="0 0 103.4502 65.255905"
   version="1.1"
   xml:space="preserve"
   xmlns="http://www.w3.org/2000/svg"
   xmlns:svg="http://www.w3.org/2000/svg"><g
     transform="translate(-52.883598,-115.93054)"><path
       style="fill:#000000"
       d="m 92.128081,180.94572 c 9.585289,-0.52167 18.371019,-2.18222 24.617429,-4.65282 2.34735,-0.92843 5.7806,-2.7622 6.08075,-3.24784 0.0846,-0.13697 0.29892,-0.19873 0.47616,-0.13725 0.51015,0.17695 9.13816,1.1403 14.1627,1.58132 3.2264,0.28318 4.73169,0.32082 5.09322,0.12733 0.28227,-0.15106 0.51388,-0.30024 0.5147,-0.3315 8.1e-4,-0.0313 0.23827,-1.84277 0.52768,-4.02558 0.28941,-2.18282 0.52687,-4.06329 0.52769,-4.17883 8.1e-4,-0.11555 1.6506,-0.12846 3.66619,-0.0287 3.54806,0.17562 3.71109,0.16016 5.12153,-0.48556 2.36143,-1.0811 3.41766,-2.843 3.41766,-5.70099 0,-1.95678 -0.6355,-3.49656 -1.94843,-4.72092 -2.40965,-2.24708 -34.11848,-23.90351 -41.13689,-28.09559 -9.26082,-5.53145 -17.122739,-8.98814 -23.887329,-10.50264 -3.03978,-0.68056 -9.96556,-0.83176 -12.70194,-0.2773 -7.22132,1.46323 -11.532,5.15514 -12.48103,10.68945 -0.5284,3.08144 0.3183,6.34452 2.46582,9.50294 0.4691,0.68991 2.14095,2.58003 3.71523,4.20028 l 2.86234,2.94591 v 3.71642 c 0,3.65263 -0.0102,3.71787 -0.59532,3.80097 -0.90639,0.12873 -1.68427,2.03988 -2.23199,5.4837 l -0.47998,3.0179 -2.38125,1.12186 c -1.30969,0.61703 -4.70161,2.21071 -7.5376,3.54151 -2.836,1.3308 -5.48238,2.732 -5.88087,3.11377 -1.52065,1.45688 -1.64833,4.05787 -0.29427,5.99453 2.6938,3.85285 12.8286,6.71512 26.80961,7.57159 4.79642,0.29382 5.69337,0.29196 11.49819,-0.024 z m -19.70027,-5.75592 c -6.77952,-1.024 -10.67686,-1.97078 -13.41531,-3.25896 -1.61462,-0.75952 -3.10152,-2.12723 -2.9164,-2.6826 0.0519,-0.15568 2.52737,-1.39669 5.50105,-2.7578 2.97369,-1.3611 6.37888,-2.93482 7.56709,-3.49714 l 2.1604,-1.0224 3.79273,1.16843 c 2.086,0.64263 5.4596,1.59216 7.49689,2.11007 2.0373,0.51791 4.42511,1.16137 5.30626,1.42993 4.81014,1.46601 17.825769,3.97829 23.295959,4.4966 1.57552,0.14928 3.28353,0.35001 3.79556,0.44607 l 0.93098,0.17465 -1.05396,0.37055 c -3.3127,1.16468 -11.01668,2.6876 -17.114999,3.38329 -5.05538,0.57672 -20.60506,0.35544 -25.34625,-0.36069 z m 58.454419,-5.39824 c -1.64372,-1.1077 -1.64149,-3.27202 0.004,-4.24426 1.06069,-0.62656 1.95904,-0.55764 2.88478,0.22131 1.52173,1.28046 1.28731,3.27161 -0.48972,4.15963 -1.18558,0.59245 -1.32967,0.58424 -2.39944,-0.13668 z m -7.52213,-2.32235 c -5.32779,-0.4592 -10.26281,-1.05495 -12.15347,-1.46715 -5.22805,-1.13983 -9.0342,-1.71682 -13.048629,-1.9781 -5.40555,-0.35183 -6.68982,-0.59596 -12.19695,-2.31863 -2.37937,-0.74428 -5.70714,-1.66297 -7.39503,-2.04153 -1.6879,-0.37857 -3.61067,-0.9474 -4.27283,-1.26407 l -1.20393,-0.57577 0.0739,-1.58205 c 0.0407,-0.87013 0.18658,-1.6947 0.32427,-1.83239 0.1574,-0.1574 1.7016,0.15302 4.1594,0.83615 9.97283,2.77187 29.428499,6.52612 46.374699,8.94865 2.69213,0.38485 4.94367,0.74534 5.00341,0.80108 0.0597,0.0558 -0.0772,0.31045 -0.30438,0.566 -0.22715,0.25555 -0.60321,0.92508 -0.83568,1.48783 -0.36027,0.87212 -0.51065,0.99718 -1.01854,0.84701 -0.32772,-0.0969 -1.90554,-0.28906 -3.50627,-0.42703 z m 18.52966,-12.55269 c -4.92882,-2.21225 -12.58005,-6.03298 -16.11714,-8.04829 -4.18925,-2.38689 -5.9743,-3.51988 -12.06981,-7.66083 -15.182939,-10.31442 -20.596849,-13.35804 -27.111909,-15.2419 -7.81059,-2.25848 -15.0384,-1.83886 -17.91748,1.04021 -0.38761,0.38761 -0.9515,1.20325 -1.25309,1.81254 -0.65228,1.31774 -0.72075,0.78074 -0.12383,-0.97113 0.67035,-1.96735 2.69079,-3.96923 5.23267,-5.1846 3.32785,-1.59116 5.49792,-1.95847 10.57934,-1.79066 4.47099,0.14765 7.0874,0.63655 11.47258,2.14377 4.68763,1.61117 11.210889,4.8806 18.592549,9.3185 6.71296,4.03587 34.51531,23.10587 36.90937,25.31662 0.31419,0.29013 -8.7114,-4.31689 -14.15521,-7.22538 -2.11005,-1.12734 -5.43213,-2.90223 -7.38241,-3.94418 -3.97387,-2.12308 -8.04835,-4.79262 -13.91654,-9.11791 -11.5634,-8.52308 -19.394939,-12.5857 -27.648959,-14.34292 -2.62902,-0.5597 -10.68352,-0.65657 -12.03854,-0.14478 -0.67478,0.25486 -0.51616,0.279 1.05833,0.16104 3.64964,-0.27342 9.15004,0.80158 14.41979,2.81821 5.36254,2.05213 13.039139,6.64538 23.728349,14.19771 2.20929,1.56095 4.53101,3.15288 5.15938,3.53763 0.62836,0.38475 2.19162,1.37368 3.47389,2.19762 1.28228,0.82393 3.4254,2.09571 4.7625,2.82617 3.52759,1.92712 14.75421,7.4354 17.38005,8.52743 6.55163,2.72468 8.33505,3.59794 8.41781,4.1218 0.0741,0.469 -0.34087,0.35468 -3.70417,-1.02056 -2.08318,-0.85181 -5.56956,-2.34855 -7.74752,-3.32611 z m -59.407789,-0.5706 c -3.1287,-0.79401 -5.84806,-1.60137 -6.04303,-1.79414 -0.25304,-0.25019 -0.39626,-1.55437 -0.50048,-4.55754 l -0.14599,-4.20706 1.54827,-1.84515 c 2.66893,-3.18069 7.07149,-8.06286 7.27079,-8.06286 0.1586,0 2.07405,3.24915 4.70932,7.98832 1.86546,3.35476 3.47987,6.5276 3.47987,6.83905 0,0.33475 -1.51442,5.15215 -2.12215,6.7506 -0.2443,0.64256 -0.34481,0.67974 -1.38573,0.51262 -0.61728,-0.0991 -3.68217,-0.82983 -6.81087,-1.62384 z m 3.39101,-2.9138 c -0.0784,-0.659 -0.23149,-0.73374 -2.43035,-1.18675 -2.49417,-0.51385 -2.81274,-0.4805 -2.81274,0.29446 0,0.40015 0.43972,0.59109 2.40123,1.04272 3.00248,0.6913 2.94244,0.69448 2.84186,-0.15043 z m 2.92761,-2.50882 c 0.29677,-0.77972 0.51009,-0.69535 -5.12702,-2.02766 -3.27522,-0.77409 -4.55002,-0.97943 -4.6923,-0.7558 -0.54199,0.85182 0.0258,1.16142 3.90513,2.12921 5.57474,1.39075 5.63149,1.39703 5.91419,0.65425 z m -3.01008,-3.46861 c 0.48367,-1.368 0.57667,-2.58423 0.22022,-2.88006 -0.59706,-0.49551 -1.13539,0.25215 -1.32318,1.8377 -0.15191,1.28263 -0.12478,1.37309 0.41171,1.37309 0.31587,0 0.62694,-0.14883 0.69125,-0.33073 z m -3.15534,-1.11359 c 0.0898,-0.35781 0.18137,-1.04241 0.20348,-1.52135 0.0325,-0.70342 -0.0685,-0.88629 -0.52525,-0.95142 -0.48005,-0.0685 -0.61345,0.11945 -0.88327,1.24421 -0.35025,1.46 -0.23131,1.87913 0.53325,1.87913 0.31948,0 0.56921,-0.24184 0.67179,-0.65057 z" /></g></svg>
