<?xml version="1.0" encoding="UTF-8" standalone="no"?>
<svg
   width="77.644508mm"
   height="98.253204mm"
   viewBox="0 0 77.644508 98.253204"
   version="1.1"
   xml:space="preserve"
   xmlns="http://www.w3.org/2000/svg"
   xmlns:svg="http://www.w3.org/2000/svg"><path
     style="fill:#000000"
     d="m 22.021923,98.056279 c -5.411187,0.36849 -3.689471,-5.86229 -4.46743,-9.37924 -1.634824,-16.93267 -1.547416,-34.02139 0.361988,-50.92654 -2.745758,3.27432 -3.721407,8.41413 -7.262984,10.92133 C 7.219986,47.019529 0.02261,46.354139 0,41.982059 3.629181,31.993939 7.181805,21.627569 13.788015,13.148839 16.041872,9.081899 20.067107,7.168279 24.233351,5.505269 27.322718,4.156809 29.751383,1.38775 32.736005,0.02484 36.815511,0.671745 40.958531,0.605726 45.040671,0 c 4.07671,3.094239 8.32095,5.977319 13.14394,7.791729 3.97796,2.1394 6.2881,6.56052 8.92584,10.15517 4.53373,7.80494 7.98778,16.26321 10.53406,24.90642 -1.63873,3.47969 -7.58533,4.79308 -11.18961,5.70114 -3.04853,-3.12469 -4.55701,-7.47333 -6.86768,-11.15259 1.20323,13.63225 1.9628,27.34307 0.96927,41.01943 -0.44019,5.88512 -0.64433,11.81516 -1.53441,17.64984 -2.73206,3.42869 -8.50684,1.80025 -12.49922,1.76559 -3.39652,-2.37932 -1.67269,-8.00457 -2.6095,-11.77039 -0.59285,-5.59671 -0.27049,-11.34871 -1.56938,-16.8385 -1.08215,-5.71713 -7.584942,-3.62309 -7.666032,1.27656 -0.935443,8.56681 -1.000337,17.23117 -2.211428,25.76726 -1.873936,3.0735 -7.245704,1.4166 -10.444598,1.78462 z m 3.208657,-13.93934 c -0.08316,-12.99687 3.038911,-25.84944 1.930787,-38.87161 -0.595434,-9.96796 -0.192027,-19.95299 -0.359348,-29.92514 -0.09093,-2.35654 -3.185817,-2.36968 -1.837688,-5.13841 1.236192,-3.32923 -0.611028,-2.75085 -2.988389,-1.61227 3.228806,7.91901 2.001386,16.66489 2.341947,25.00043 -0.05714,11.81158 0.63946,23.70271 -1.296257,35.41323 -0.811243,7.14854 -1.233185,14.41292 -0.199325,21.56106 2.643491,1.39511 2.555888,-0.88192 2.389769,-2.75489 0.0062,-1.22414 0.01234,-2.44827 0.0185,-3.6724 z m 4.094606,-0.85949 c -0.199798,-9.14278 2.382077,-18.06784 2.005059,-27.22067 0.01825,-11.82878 -0.133808,-23.65709 -0.203653,-35.48558 -1.76628,-1.42832 -3.655237,-3.29498 -3.061064,0.33398 -0.385987,11.39668 0.29704,22.78723 0.344364,34.17892 -0.337678,11.9357 -3.010945,23.78324 -1.957232,35.75937 1.524078,-0.0519 3.401442,0.23684 2.750783,-1.91183 0.04058,-1.88473 0.08116,-3.76946 0.121743,-5.65419 z m 20.874865,0.15334 c 0.34852,-13.96693 -2.58782,-27.77103 -2.08293,-41.74115 0.0273,-7.51493 -0.0667,-15.03933 0.32686,-22.54458 -4.84611,1.81405 -2.78346,7.73782 -3.39622,11.67817 -0.28181,12.84659 -0.49673,25.7666 1.63592,38.48822 1.04003,7.11726 1.45287,14.31675 1.40017,21.50663 1.90845,0.45087 2.51868,-0.39639 2.11653,-2.25596 -1.1e-4,-1.71045 -2.2e-4,-3.42089 -3.3e-4,-5.13133 z m 3.55027,6.3951 c 1.28342,-14.37824 0.79729,-28.92743 -1.13923,-43.2253 -2.02785,-0.6353 -4.28712,-0.99673 -3.46921,1.76698 0.50614,11.8353 2.39327,23.59102 2.31227,35.46324 0.0514,2.32909 0.10272,4.65818 0.15408,6.98727 0.82898,-0.0707 2.2554,0.36433 2.14209,-0.99219 z m -22.511524,-0.52917 c 0.760286,-7.58719 0.675548,-15.33819 2.338521,-22.7784 4.060013,-1.83633 1.263355,-6.94833 1.922959,-10.59028 0.0846,-9.88678 -0.554769,-19.84333 0.547284,-29.6841 1.52246,-1.32298 -3.298901,-5.35027 -3.606179,-3.76513 -0.600131,14.59969 0.239987,29.23922 -0.37086,43.84034 -1.427829,7.90794 -1.898034,15.97778 -1.595462,23.99862 0.409978,0.90731 0.961485,-1.06607 0.763737,-1.02105 z m 15.253504,-12.50156 c -1.54078,-11.25935 -3.11882,-22.57655 -2.77877,-33.97797 0.0466,-6.73528 0.36148,-13.47003 0.28152,-20.2048 -4.8573,1.08448 -2.78304,5.69097 -2.9759,9.23824 0.0906,10.75979 0.0391,21.52014 0.0528,32.2802 2.56837,2.13409 3.85059,5.31767 3.91045,8.63599 0.62346,5.8255 0.42379,11.74817 1.45763,17.52209 0.50512,-4.42602 0.25012,-9.0268 0.0523,-13.49375 z m 11.03675,13.14253 c 1.30596,-8.39117 1.34901,-16.96608 1.61704,-25.45297 -0.11445,-6.1055 -0.10818,-12.26921 -0.90873,-18.32161 -2.83297,-0.69744 -5.59894,0.72779 -4.05178,4.08081 1.39033,13.38264 2.05951,26.95269 0.60144,40.35631 0.92225,-0.1628 1.91742,-0.16605 2.74203,-0.66254 z m -36.0252,-0.1118 c -1.106897,-10.54584 0.423073,-21.10271 1.631828,-31.56832 0.333172,-13.64382 0.123577,-27.30757 -0.20792,-40.95077 -0.667027,-2.42444 -0.190816,-9.66692 -3.828856,-7.44076 0.896847,3.51524 2.578062,7.33076 2.190065,11.25975 0.235367,8.77724 -1.880359,17.40809 -2.27395,26.16195 -1.172555,14.15291 -0.715166,28.41986 0.58684,42.52936 0.349069,0.2909 2.152398,0.90479 1.901993,0.009 z m 17.53297,-33.57936 c -1.75031,-3.0617 -2.29254,2.56151 0,0 z m 0.18302,-10.51107 c -1.42269,-3.10053 -2.54798,2.45877 0,0 z m -24.167148,-7.24188 c 2.373455,-4.24671 4.229444,-8.89234 4.298833,-13.82133 -2.553831,5.28803 -4.868884,10.84488 -6.993307,16.22894 1.517799,1.4367 1.928593,-1.66366 2.694474,-2.40761 z m 49.567148,2.58283 c 4.19387,-1.21022 -1.16451,-6.22878 -1.79853,-8.8569 -1.36223,-1.98832 -3.47897,-7.48331 -4.65972,-7.11683 0.0412,5.78013 2.93385,10.97222 5.68785,15.868 l 0.37176,0.37031 z m -53.048959,-1.07304 c 2.354615,-6.13603 5.124789,-12.11537 7.778661,-18.11811 0.560091,-2.60802 0.09352,-5.20357 -1.502905,-1.25704 -3.175585,6.18092 -6.164936,12.46137 -8.880985,18.85837 0.696859,0.1497 2.264889,1.47604 2.605229,0.51678 z m 41.010419,-9.22143 c -0.11036,-7.4809 0.11749,-15.08171 2.50607,-22.2397 -2.50606,-2.20628 -3.72436,-0.63572 -2.48895,2.21996 0.64266,2.98395 -3.80706,2.89918 -2.65882,6.51578 -1.09927,7.50405 -0.87908,15.13892 -0.4354,22.68445 2.21335,1.0422 3.74648,0.22079 3.0771,-2.1864 0,-2.33136 0,-4.66273 0,-6.99409 z m 4.98115,9.10567 c -0.31577,-9.66297 -3.70553,-20.01977 0.8908,-29.19649 -1.13106,-3.53653 -4.08364,0.87725 -3.6497,3.33987 -1.61744,8.06577 -0.89364,16.3541 -1.19563,24.53356 -0.86416,3.20998 2.19429,1.11652 3.95453,1.32306 z m 12.18437,-1.07186 c -1.98192,-5.81907 -5.02092,-11.31146 -8.22637,-16.55961 -1.142,-2.09474 -4.11927,-5.98769 -3.44696,-1.16935 1.4194,3.73554 4.05386,7.07497 5.78895,10.75181 1.42086,2.56597 2.67156,5.21884 3.90705,7.87731 0.66239,-0.29107 1.35682,-0.52244 1.97733,-0.90016 z M 8.938519,36.756929 c 2.95628,-6.95278 6.430103,-13.71223 9.90449,-20.38666 -0.645528,-5.67391 -4.303361,2.80229 -5.564295,4.62887 -2.999233,5.46618 -5.160125,11.32066 -7.252276,17.17736 1.717784,1.0856 2.405574,0.66883 2.912081,-1.41957 z m 62.870302,0.96971 c -1.38524,-5.98135 -4.53271,-11.47327 -7.26886,-16.94992 -0.94417,-1.97624 -5.74966,-9.41509 -5.77801,-4.0878 5.24788,6.28799 8.90005,13.71731 11.98868,21.25864 0.27408,0.38466 0.90898,0.16637 1.05819,-0.22092 z M 6.99967,32.325159 c 2.682437,-7.02056 6.075245,-14.12072 10.539938,-20.00013 -4.141316,2.93853 -6.181782,7.97178 -8.542824,12.32183 -1.989995,4.04101 -3.613521,8.24462 -5.290565,12.42099 2.584821,1.41695 2.110471,-3.52086 3.293451,-4.74269 z m 66.236451,3.37344 c -2.91714,-7.35795 -5.89141,-14.91805 -10.78566,-21.21531 -1.11748,-2.41513 -4.22815,-2.86368 -1.40988,-0.20773 5.46747,5.47244 7.92127,13.07945 11.01767,19.99724 0.18531,0.93111 2.06371,4.84249 1.17787,1.4258 z m -34.01482,0.59294 c 0.0281,-3.79805 -3.895985,1.31297 0,0 z m -0.44508,-9.08153 c -0.83443,-1.61116 -0.87621,1.76848 0,0 z m 0.61952,-8.84162 c 1.07814,-3.37096 0.44119,-7.01479 0.61789,-10.51719 -2.24009,-0.93808 -1.25176,1.74493 -1.45521,3.09121 0.0191,2.89411 -0.0599,5.79369 0.11991,8.68279 l 0.26023,-0.36917 0.45722,-0.8876 z m -10.009563,-2.6175 c 2.221094,-1.07809 -0.788353,-1.94851 -1.41113,-1.66378 0.08613,1.26046 -0.387213,4.41513 1.41113,1.66378 z m 7.922383,-7.78051 c -6.218342,-2.25882 -1.24484,4.74873 -0.42418,7.55374 0.85462,2.4122 0.38249,-1.53935 0.54425,-2.45042 0.004,-1.69854 0.11718,-3.41818 -0.12007,-5.10332 z m 11.79053,7.21546 c 0.15009,-2.43176 -3.38291,0.31735 -0.33583,1.2018 l 0.13367,-0.38805 z m -5.51363,-7.4174 c -2.26446,-1.07626 -2.76789,0.76084 -2.37087,2.70774 0.137,0.80906 -0.32158,4.69402 0.39077,2.53167 0.68397,-1.73583 1.47354,-3.4417 1.9801,-5.23941 z" /></svg>
