<?xml version="1.0" encoding="UTF-8" standalone="no"?>
<svg
   width="93.425957mm"
   height="98.198082mm"
   viewBox="0 0 93.425957 98.198082"
   version="1.1"
   xml:space="preserve"
   xmlns="http://www.w3.org/2000/svg"
   xmlns:svg="http://www.w3.org/2000/svg"><path
     style="fill:#000000"
     d="m 39.481686,98.144163 c -9.716656,-1.30953 -20.358044,-3.89347 -27.025828,-11.63129 -3.7907574,-4.65661 0.08897,-9.26136 1.855145,-13.30626 3.287449,-2.20063 -1.818626,-5.1487 -1.984971,-8.00058 -1.400724,-1.37025 -0.756001,-5.40484 -3.1049714,-5.26299 -4.41241,0.71907 -8.674829,-2.1766 -8.891509,-6.85108 -0.32822,-4.36264 -1.200412,-9.98926 2.491252,-13.17926 1.623494,-1.88961 6.136347,0.25522 5.491176,-3.15681 C 9.7065746,21.803313 19.50001,7.6299936 33.806058,2.3962666 c 16.116348,-6.519817 35.761858,0.808922 44.765938,15.3939224 4.08681,6.269014 6.25567,13.580644 7.00806,20.986184 4.8154,-0.87588 8.22454,3.68376 7.81213,8.17282 0.11907,4.31892 0.12545,10.35102 -4.43921,12.44806 -1.8175,1.54616 -5.8458,-0.84157 -6.57348,1.57987 -0.65896,1.98009 -4.61167,9.64944 -0.77729,5.42346 4.41694,-5.39586 10.6257,2.79658 5.14363,6.23221 -2.96203,3.21997 -7.54667,-4.91363 -8.97624,-0.77136 1.71445,4.45363 6.07423,7.92108 3.50212,13.27624 -4.66846,7.04643 -13.28171,9.94979 -21.11885,11.91163 -6.7897,1.3655 -13.78273,1.1681 -20.67118,1.09486 z m 12.17083,-1.79117 c 2.07762,0.97434 10.13294,-4.21459 4.67926,-3.21192 -13.45954,1.58161 -28.149703,0.47386 -39.583856,-7.46243 -2.054335,-1.0067 -4.773919,-6.38848 -3.488206,-1.08043 5.365032,7.04417 14.372433,9.85626 22.846734,11.17562 5.133268,0.77189 10.371118,1.12532 15.546068,0.57916 z m 2.18185,-3.73116 c 8.61902,-1.11374 17.75068,-3.45205 24.19078,-9.62127 2.38273,-1.3368 2.30696,-6.58215 0.52276,-2.07571 -4.8077,5.72433 -12.4876,7.9075 -19.50235,9.59548 -6.98,1.41608 -14.22696,1.22015 -21.28731,0.63668 -7.85478,-1.64344 -16.386714,-3.46068 -22.303419,-9.277 -1.035666,-1.44543 -3.363796,-4.77713 -2.016217,-0.88434 4.105974,6.47203 12.134355,8.69426 19.132425,10.49749 6.965301,1.68517 14.159141,1.76791 21.263331,1.12867 z m -1.85109,-1.72022 c 8.21145,-0.65524 16.5783,-2.83468 23.39056,-7.58929 2.55473,-0.27544 3.94448,-7.10663 2.75075,-5.49066 -1.08926,4.60228 -6.51755,6.87722 -10.52395,8.68245 -5.01333,1.79962 -10.3227,3.26586 -15.67512,3.23103 7.96171,-0.95588 16.23026,-2.93389 22.72563,-7.84099 2.71471,-1.18755 4.26964,-5.95993 2.40945,-7.5164 -5.87037,8.27063 -16.42709,11.22575 -26.01614,12.3378 -11.227,0.71609 -23.165238,-1.72718 -32.016237,-8.99056 -1.694656,-1.29532 -3.526231,-6.17217 -4.189541,-1.33313 -2.43082,4.91194 4.399684,7.75548 7.804043,9.69438 9.121193,4.18962 19.372465,5.65615 29.340555,4.81537 z m -15.08628,-1.49102 c -7.655928,-1.53715 -15.859006,-3.94128 -21.236768,-9.9451 -1.348386,-2.85046 3.261618,3.52198 5.288161,3.87679 7.355532,4.44259 15.970037,6.25292 24.486417,6.41622 -2.84942,0.0228 -5.70984,0.0666 -8.53781,-0.34791 z m 16.7399,-3.79131 c 3.83225,-1.45968 8.48887,-1.48477 11.428,-4.67958 -12.60412,4.40827 -27.24067,4.98792 -39.173226,-1.72091 -3.338058,-0.8116 -6.835003,-5.9169 -8.837938,-5.90642 0.709191,4.09326 5.216784,5.97401 8.430729,7.91546 8.64203,4.49835 18.560175,5.78595 28.152435,4.39145 z m 0.66145,-2.93093 c 7.00231,-1.33911 14.00907,-4.14814 19.15078,-9.21506 0.8389,-1.40098 -1.76635,-2.70001 -0.87417,-0.3095 -2.73264,-3.99372 -6.22386,3.65719 -10.01064,3.72768 -16.12671,7.28847 -37.35618,1.74977 -47.212734,-13.1104 -3.214306,-5.35749 -3.931796,-11.69371 -3.69561,-17.82115 0.815663,-2.19477 -2.4758244,-8.93818 -1.501228,-3.29529 1.604193,7.84233 0.407291,16.36648 4.475929,23.58404 3.695015,9.55618 13.770852,14.47013 23.271493,16.28952 5.39651,1.02589 10.9841,1.11664 16.39618,0.15016 z m -0.52916,-3.8095 c 6.48151,-1.39534 13.26463,-3.89753 17.66558,-9.05274 3.45357,-2.92239 7.34044,-6.2522 8.27183,-11.31386 2.23064,-8.79758 1.92333,-18.68246 -2.37354,-26.82325 -6.44332,-11.473814 -20.68653,-16.147308 -33.22028,-15.272581 -9.096993,0.482855 -18.389462,4.112246 -24.620846,10.896271 -6.904715,7.94445 -8.491226,19.36142 -6.358322,29.39862 1.163344,5.72108 4.755303,10.49902 9.316685,14.00127 8.564473,7.08614 20.375453,10.27546 31.318893,8.16627 z m -12.43542,-1.1999 c -10.086239,-1.79246 -20.407562,-7.15839 -25.230815,-16.56681 -2.445533,-5.36095 -2.524349,-11.55109 -1.941226,-17.31127 0.867305,-6.45513 4.068563,-12.53351 9.384377,-16.41499 12.960284,-9.658153 31.856264,-9.694693 45.492154,-1.36714 4.46105,3.08735 8.94165,7.27045 10.05566,12.7855 0.14751,4.7412 1.24277,9.50079 0.34078,14.26828 -0.49918,4.80506 -2.26286,9.55129 -5.33958,13.29311 -4.14714,3.02023 -7.62179,7.10384 -12.64511,8.79785 -6.3027,2.60887 -13.36082,3.71465 -20.11624,2.51547 z m 19.05553,-6.7324 c 7.87354,-4.87459 13.97525,-13.71716 13.88193,-23.19247 -1.07696,-5.90848 -3.47113,3.05446 -4.09975,4.94239 -2.0608,6.50311 -6.59538,11.72543 -11.43771,16.34948 -2.67316,2.38995 -1.63534,4.28927 1.65553,1.9006 z m -34.9564,-18.2368 c 0.931333,-5.89267 1.742236,-12.00435 5.183963,-17.07422 1.834126,-3.902 6.364057,-6.45106 7.792607,-10.20755 -6.812075,-0.38312 -12.373795,5.4251 -14.804966,11.33304 -1.927202,5.22838 -2.786494,11.61914 0.28338,16.57515 0.506671,0.93329 1.559582,0.12997 1.545016,-0.62642 z m 4.545422,-10.18423 c 0.216399,-3.12972 5.416637,-7.69206 3.957297,-9.38697 -2.226073,2.58504 -6.538368,8.06096 -4.609328,10.63263 l 0.335808,-0.46504 z m 48.677118,-4.89923 c -4.89056,-10.78871 -16.79998,-16.08028 -28.03098,-17.115792 -11.79397,-0.899186 -24.939611,2.874342 -32.19456,12.741912 -0.828656,1.96872 3.831561,-4.0946 5.650574,-4.85967 14.612096,-10.688949 36.920416,-9.460919 49.925076,3.25314 1.5738,1.01038 4.40491,6.53852 4.64989,5.98041 z m 8.416,32.5853 c 3.2947,-3.67427 -5.36768,-5.71672 -2.89842,-2.10859 0.25023,1.10538 -0.82971,5.94511 2.33752,2.89581 z m -8.42683,-4.51386 c 2.45771,-4.19636 2.96242,-9.0083 3.35529,-13.75318 -0.11111,-3.76844 2.27834,-8.95148 1.2749,-11.78633 -2.14376,3.63291 -1.07532,8.29365 -1.67506,12.3783 -0.3704,5.38405 -2.70156,10.35543 -5.59923,14.81489 1.10309,2.28101 2.15926,-0.722 2.6441,-1.65368 z M 7.2314196,55.577413 c -0.144029,-4.90872 -0.276275,-9.82668 -0.711413,-14.71844 -3.209399,-1.04108 -0.198521,4.88037 -1.019449,6.5993 0.641297,2.74316 -0.610022,10.4233 1.690297,10.2821 0.07401,-0.7191 0.04702,-1.44198 0.04057,-2.16296 z m 80.1726464,1.84886 c 0.26334,-5.49128 0.83403,-10.98964 0.91391,-16.48566 -2.82058,0.16118 -1.13144,7.85178 -1.88143,10.87636 0.23122,1.14522 -1.39215,8.84971 0.96752,5.6093 z M 5.3042136,56.053113 c -0.429896,-4.96083 -0.524964,-9.95317 -0.825802,-14.91538 -4.091579,1.53756 -2.779303,8.47329 -2.422981,12.24027 -0.475686,1.79994 4.175908,7.23162 3.248783,2.67511 z m 80.0430624,-2.32596 c 0.8859,-4.37523 0.5977,-8.94053 0.96992,-13.39884 -3.85537,1.57989 -2.56753,8.11253 -3.70004,11.74335 0.37809,0.86895 1.72492,2.12761 2.73012,1.65549 z m 3.88879,3.50301 c 3.57248,-3.71371 3.13376,-10.23782 1.5805,-14.81696 -1.98949,-3.62103 -1.87045,-0.26241 -1.88779,1.68468 -0.0841,4.54731 -0.7682,9.238 -0.82846,13.68343 l 0.41343,-0.11031 z M 9.9536516,46.052423 c 0.3815624,-2.3811 -2.526171,-8.82376 -2.500328,-3.18172 0.877749,3.00662 -1.147331,10.16944 2.302503,10.40032 1.4673424,-2.04774 0.4723534,-4.94177 0.197825,-7.2186 z m 2.9720384,-7.65815 c 3.277676,-13.15047 16.538968,-21.453974 29.501516,-22.422414 11.91802,-1.165157 25.07429,2.164396 32.98738,11.621744 3.30184,4.11638 5.18394,9.23255 6.13585,14.35777 1.39795,-1.96501 3.28768,-4.19502 1.71899,-7.50159 C 81.131686,21.448253 72.574676,9.3255546 60.127896,4.4181416 45.886316,-2.0030994 28.157551,3.2443346 18.716883,15.400914 c -5.60693,6.608069 -8.438466,15.253189 -8.9774594,23.803639 2.8063404,0.81726 1.6086944,6.52275 2.6590374,1.21079 l 0.256629,-1.00826 z" /></svg>
