<?xml version="1.0" encoding="UTF-8" standalone="no"?>
<svg
   width="50.632877mm"
   height="97.302193mm"
   viewBox="0 0 50.632877 97.302193"
   version="1.1"
   xml:space="preserve"
   xmlns="http://www.w3.org/2000/svg"
   xmlns:svg="http://www.w3.org/2000/svg"><g
     transform="translate(-95.190502,-91.081205)"><path
       style="fill:#000000"
       d="m 103.22547,188.32235 c -0.29105,-0.0716 -1.39237,-0.3123 -2.4474,-0.53486 -1.896729,-0.40011 -1.918165,-0.41408 -1.912419,-1.24649 0.008,-1.15673 0.837059,-2.88292 1.717129,-3.57518 0.95334,-0.7499 3.0699,-1.36771 4.68562,-1.36771 1.50673,0 3.09319,0.72378 3.84318,1.75337 0.34656,0.47575 0.66499,0.65809 0.95493,0.54683 0.59984,-0.23018 0.55217,-0.47155 -0.33498,-1.69622 -0.80524,-1.11161 -2.64245,-2.18859 -3.74533,-2.19553 -1.19302,-0.008 -1.29598,-0.26443 -1.48039,-3.69411 -0.16969,-3.15584 -0.15809,-3.26272 0.33023,-3.04406 0.27835,0.12464 2.81182,0.25782 5.62994,0.29595 2.81812,0.0381 5.15738,0.10515 5.19836,0.14894 0.041,0.0438 -0.20647,1.68697 -0.54988,3.6515 -0.34341,1.96453 -0.62884,4.61179 -0.63429,5.8828 -0.009,2.14101 -0.0635,2.37088 -0.73845,3.1263 -0.99669,1.11549 -3.61513,1.83134 -7.20896,1.97084 -1.52797,0.0593 -3.01625,0.0493 -3.30729,-0.0224 z m 27.64895,-0.22671 c -2.31876,-0.4909 -3.16949,-0.84436 -4.05733,-1.68572 -0.72643,-0.68838 -0.7446,-0.76979 -0.5769,-2.58464 0.12697,-1.37412 0.0298,-2.64424 -0.3642,-4.7625 -0.29555,-1.58874 -0.61308,-3.48394 -0.70564,-4.21154 l -0.16828,-1.32292 3.63373,0.0809 c 1.99855,0.0445 4.46717,-0.0484 5.48582,-0.20644 1.01864,-0.15804 1.8996,-0.23984 1.95768,-0.18176 0.0581,0.0581 0.0242,1.54517 -0.0752,3.30465 l -0.18079,3.19905 -1.39891,0.29042 c -2.25942,0.46905 -4.60136,2.38353 -4.60657,3.76576 -0.003,0.73316 0.61189,0.54317 1.6,-0.49457 1.13445,-1.19142 2.26121,-1.68824 3.82885,-1.68824 3.63616,0 5.9463,1.8057 6.2622,4.89479 0.0793,0.77586 0.0394,0.80457 -1.77092,1.27362 -2.46376,0.63836 -6.66587,0.7944 -8.86354,0.32912 z m -23.68021,-16.04825 c -2.77552,-0.39474 -2.82037,-0.4173 -2.72806,-1.37242 0.071,-0.73444 0.17271,-0.84021 0.74369,-0.77325 0.3638,0.0427 2.99513,0.14552 5.8474,0.22856 l 5.18595,0.15097 -0.16877,0.82979 c -0.15848,0.77916 -0.25694,0.84029 -1.61407,1.00205 -1.98332,0.2364 -5.35644,0.2059 -7.26614,-0.0657 z m 19.24844,0.0944 c -1.05669,-0.06 -1.65495,-0.20877 -1.65726,-0.41204 -0.002,-0.17496 -0.0737,-0.57947 -0.15935,-0.89891 -0.15519,-0.57871 -0.14158,-0.58083 3.77392,-0.58799 2.16132,-0.004 4.64405,-0.12885 5.51717,-0.27756 2.25565,-0.38417 2.24896,-0.38606 2.24896,0.63477 0,1.0479 -0.0251,1.06015 -2.99571,1.45943 -1.99699,0.26842 -3.19353,0.28306 -6.72773,0.0823 z m -19.71146,-3.57389 -2.05052,-0.26207 -0.003,-1.09293 c -0.001,-0.60111 0.13276,-3.17652 0.29828,-5.72313 0.28036,-4.31327 0.34461,-4.67719 0.93866,-5.31651 0.90143,-0.97015 1.0596,-2.30025 0.42145,-3.54413 -0.40371,-0.78692 -0.47159,-1.24412 -0.31065,-2.09242 0.11327,-0.59702 0.45937,-2.69283 0.76912,-4.65736 0.30975,-1.96453 1.04636,-5.951 1.63691,-8.85882 1.29029,-6.35329 1.28888,-7.86617 -0.01,-10.46497 -0.45768,-0.91589 -0.78609,-1.71132 -0.72979,-1.76761 0.0563,-0.0563 0.68165,0.26509 1.38967,0.7142 2.9291,1.85794 7.69913,2.80869 12.88465,2.56814 4.12215,-0.19122 6.89534,-0.8295 9.70163,-2.23293 1.09141,-0.54581 2.06663,-1.02972 2.16715,-1.07536 0.10053,-0.0456 -0.22988,0.72827 -0.73424,1.71979 -0.50436,0.99153 -1.055,2.47466 -1.22365,3.29585 -0.30628,1.49133 -0.14912,2.78693 1.11872,9.22255 0.129,0.65484 0.48517,2.8575 0.79149,4.89479 0.30631,2.03729 0.72641,4.64976 0.93355,5.80549 0.33908,1.89182 0.33443,2.14794 -0.0466,2.56895 -0.23276,0.25719 -0.48139,0.98395 -0.55252,1.61502 -0.11049,0.98021 -0.0192,1.27802 0.6266,2.04386 l 0.75593,0.89647 0.26458,5.6436 c 0.23163,4.94066 0.21515,5.65887 -0.13229,5.76625 -1.8962,0.58605 -11.37708,0.9497 -11.37708,0.43638 0,-0.1249 -0.24648,-1.86679 -0.54773,-3.87086 l -0.54772,-3.64376 0.87845,-0.9248 c 1.50857,-1.58816 4.69612,-4.22885 5.65232,-4.6826 0.92734,-0.44005 1.20492,-1.10819 0.56277,-1.35461 -0.51193,-0.19645 -3.45847,1.54612 -5.54813,3.28112 -4.29548,3.56645 -4.48091,3.56362 -8.8496,-0.13512 -1.30857,-1.1079 -4.90813,-3.25894 -5.45352,-3.25894 -0.0594,0 -0.16939,0.23463 -0.24438,0.52139 -0.10957,0.41899 0.18469,0.70092 1.49844,1.43561 0.89914,0.50283 2.6312,1.84846 3.84903,2.9903 l 2.21423,2.07607 -0.64097,3.83051 -0.64097,3.8305 -3.83017,0.0321 c -2.1066,0.0176 -4.75291,-0.0858 -5.8807,-0.22999 z m 7.44835,-18.86721 c 0.35917,-0.60875 0.5553,-1.3963 0.5553,-2.22976 0,-1.08033 -0.11385,-1.37814 -0.70445,-1.84271 -0.9089,-0.71494 -1.71725,-0.90814 -2.88392,-0.68927 -1.19287,0.22378 -1.89075,0.92167 -2.11453,2.11453 -0.21887,1.16667 -0.0257,1.97502 0.68927,2.88392 0.49579,0.6303 0.73038,0.70445 2.22857,0.70445 1.63833,0 1.68644,-0.0203 2.22976,-0.94116 z m -3.18037,-0.88323 c -0.5323,-0.43103 -0.58211,-0.60721 -0.35457,-1.2542 0.28313,-0.80509 0.8334,-1.03447 1.86221,-0.77626 1.24087,0.31144 0.68338,2.53193 -0.63568,2.53193 -0.13897,0 -0.53135,-0.22566 -0.87196,-0.50147 z m 17.99519,-5.5578 0.82173,-0.76762 v -5.03599 c 0,-2.7698 -0.11395,-5.3357 -0.25322,-5.70201 -0.51569,-1.35638 -1.24793,-1.4851 -8.44767,-1.4851 -3.63577,0 -6.90968,0.11374 -7.27534,0.25277 -1.38862,0.52795 -1.61056,1.31764 -1.7085,6.07894 -0.0994,4.83174 0.10819,6.03205 1.19032,6.88326 0.6577,0.51734 1.02975,0.54336 7.77086,0.54336 h 7.08009 z m -14.89811,-1.32379 c -0.40079,-0.44287 -0.44581,-1.03458 -0.37173,-4.88605 0.0727,-3.78224 0.14892,-4.44674 0.55648,-4.85391 0.42044,-0.42006 1.15,-0.48169 6.65629,-0.56235 7.93848,-0.11628 7.2913,-0.60408 7.2913,5.49564 0,3.71906 -0.0705,4.54957 -0.41578,4.89479 -0.35513,0.35514 -1.3524,0.41578 -6.83815,0.41578 -5.979,0 -6.45387,-0.0348 -6.87841,-0.5039 z m 13.02021,-2.48402 0.0785,-1.79728 -2.06287,0.0775 -2.06287,0.0775 -0.0812,1.42367 c -0.12247,2.14793 -0.0864,2.18337 2.12787,2.09373 l 1.92205,-0.0778 z m -2.66809,0.97159 c -0.10369,-0.10369 -0.18853,-0.47389 -0.18853,-0.82266 0,-0.55604 0.10588,-0.62391 0.85989,-0.55121 0.71873,0.0693 0.8599,0.1915 0.8599,0.74437 0,0.51119 -0.15251,0.67924 -0.67136,0.73975 -0.36925,0.0431 -0.7562,-0.007 -0.8599,-0.11025 z m 1.90635,-3.17838 0.8381,-0.16762 -0.0774,-1.7506 -0.0774,-1.75061 h -1.98437 -1.98438 l -0.0777,1.7643 c -0.0667,1.51302 -0.0101,1.78186 0.39688,1.88754 0.74317,0.19296 2.04911,0.20044 2.96637,0.017 z m -2.18308,-1.0671 c -0.097,-0.097 -0.17638,-0.39467 -0.17638,-0.66146 0,-0.3873 0.2076,-0.48506 1.03002,-0.48506 1.01284,0 1.39098,0.32402 1.15791,0.99218 -0.11968,0.34311 -1.70142,0.46447 -2.01155,0.15434 z m -0.0441,-2.20486 c 0.0899,-0.14552 0.56618,-0.26458 1.05833,-0.26458 0.49215,0 0.9684,0.11906 1.05833,0.26458 0.1,0.1618 -0.31113,0.26459 -1.05833,0.26459 -0.74719,0 -1.15833,-0.10279 -1.05833,-0.26459 z m -6.1724,1.67879 c 0.66317,-0.60017 0.63,-1.84654 -0.059,-2.21526 -0.81496,-0.43615 -1.6417,-0.20858 -2.07844,0.57213 -0.34944,0.62466 -0.34285,0.76904 0.0634,1.38906 0.51954,0.79293 1.36422,0.8964 2.07399,0.25407 z m -20.814824,23.00855 c -1.770711,-1.81924 -2.075763,-2.73448 -1.910578,-5.73222 0.09688,-1.75817 0.261243,-2.70209 0.498268,-2.8615 0.396851,-0.2669 3.23654,-0.0602 4.851614,0.35319 2.26313,0.57923 4.78003,4.45527 2.89302,4.45527 -0.82775,0 -1.60934,-0.38388 -2.53243,-1.24384 -0.60495,-0.56358 -0.76958,-0.60516 -1.237939,-0.31266 -0.991577,0.61925 -1.169729,1.45467 -0.563577,2.64283 0.374092,0.73328 0.517701,1.44849 0.462561,2.30366 -0.07224,1.12034 -0.147666,1.24806 -0.78032,1.32131 -0.523513,0.0606 -0.947872,-0.17321 -1.680619,-0.92604 z m 43.907954,0.3598 c -0.0852,-0.3396 0.0911,-1.34788 0.39184,-2.24062 0.70903,-2.10473 0.68964,-2.54742 -0.14015,-3.20013 l -0.68695,-0.54036 -0.98973,0.79538 c -0.54435,0.43745 -1.42585,0.86614 -1.95888,0.95264 -0.9348,0.1517 -0.96916,0.12923 -0.96916,-0.63385 0,-1.18893 1.79372,-3.10226 3.37877,-3.60407 1.5443,-0.48892 4.57502,-0.7856 5.02102,-0.49152 0.48797,0.32175 0.74827,4.74518 0.35021,5.95132 -0.17508,0.53048 -0.85727,1.56395 -1.51597,2.29658 -0.91329,1.0158 -1.37909,1.33207 -1.96184,1.33207 -0.57995,0 -0.80155,-0.14886 -0.91916,-0.61744 z M 99.521299,148.755 c -1.455209,-0.25941 -3.041517,-0.47677 -3.52513,-0.48302 -0.693664,-0.009 -0.859509,-0.10912 -0.785569,-0.47439 0.200083,-0.98844 7.35341,-0.15994 7.35341,0.85167 0,0.59556 -0.24686,0.60414 -3.042711,0.10574 z m 39.026041,0.0131 c 0,-0.54672 0.93429,-0.8756 3.75458,-1.32167 2.44561,-0.38681 3.52146,-0.25931 3.52146,0.41735 0,0.47658 -0.23664,0.54712 -2.38125,0.70991 -1.30969,0.0994 -2.9468,0.2924 -3.63802,0.42886 -1.13062,0.22321 -1.25677,0.19968 -1.25677,-0.23445 z m -37.43854,-2.36841 c -1.01865,-0.2703 -2.723311,-0.49795 -3.788143,-0.50588 -1.71613,-0.0128 -1.920483,-0.067 -1.79894,-0.47743 0.07542,-0.25466 0.382788,-1.44199 0.68305,-2.6385 0.909258,-3.62332 0.887374,-3.58969 2.194207,-3.37122 1.634216,0.2732 4.682796,1.09276 5.797786,1.55864 l 0.96548,0.4034 -0.48761,1.66004 c -0.26818,0.91302 -0.61925,2.16605 -0.78014,2.78452 -0.32986,1.26792 -0.2672,1.25473 -2.78569,0.58643 z m 35.73944,-1.9744 c -0.39837,-1.40377 -0.66388,-2.70979 -0.59002,-2.90227 0.23586,-0.61463 7.31822,-2.60896 7.74598,-2.1812 0.20199,0.20199 1.4223,5.27273 1.4223,5.91005 0,0.58063 -0.10382,0.62754 -1.38906,0.62758 -1.22692,4e-5 -4.34773,0.49679 -5.91135,0.94092 -0.50315,0.14292 -0.61947,-0.0751 -1.27785,-2.39508 z m -33.49048,-5.30981 c -0.94589,-0.32935 -2.583,-0.75135 -3.638024,-0.93779 -1.283605,-0.22683 -1.918229,-0.45898 -1.918229,-0.7017 0,-0.61067 2.365203,-5.12703 3.573003,-6.82265 0.62683,-0.88 1.95095,-2.3589 2.94249,-3.28644 l 1.8028,-1.68643 0.65649,1.43436 c 1.17139,2.55936 1.01726,5.24692 -0.60574,10.56207 -0.32772,1.07325 -0.70772,1.97073 -0.84443,1.99438 -0.13671,0.0237 -1.02248,-0.22645 -1.96836,-0.5558 z m 32.05031,0.11009 c -1.21992,-3.21344 -1.98574,-7.83885 -1.61848,-9.77538 0.30104,-1.58741 1.02817,-3.2046 1.50758,-3.35302 0.43566,-0.13488 2.7439,2.0606 4.23139,4.02468 0.98975,1.30686 4.03435,7.01003 4.04343,7.57418 0.001,0.0831 -0.88879,0.28955 -1.97806,0.4589 -1.69217,0.26307 -3.64222,0.8013 -5.49031,1.51537 -0.33055,0.12772 -0.52557,0.003 -0.69555,-0.44473 z m -17.10136,-12.66185 c -5.0517,-0.36317 -10.42066,-2.51636 -9.23384,-3.70318 0.19597,-0.19597 0.7861,-0.0421 1.97843,0.51582 5.92617,2.77305 14.14542,2.72241 19.86718,-0.12239 1.28901,-0.64089 1.54344,-0.61438 1.54344,0.1608 0,0.94033 -4.69542,2.69549 -8.06979,3.0165 -3.02511,0.28779 -3.71555,0.30282 -6.08542,0.13245 z m -14.83498,-2.26901 c 0.24101,-1.31736 0.65609,-1.95503 1.92867,-2.96293 1.01716,-0.80561 1.02103,-0.80631 1.67125,-0.30499 l 0.65173,0.50249 -1.45521,1.32829 c -0.80036,0.73055 -1.79968,1.58614 -2.2207,1.9013 l -0.76549,0.57302 z m 32.42978,-0.93769 c -1.89347,-1.74486 -1.96085,-1.84661 -1.47079,-2.22084 0.68125,-0.52023 0.67778,-0.52104 1.9494,0.45629 1.10292,0.84768 1.75499,2.11318 1.59091,3.08756 -0.0696,0.41314 -0.44817,0.17111 -2.06952,-1.32301 z m -17.77731,-0.23037 c -7.55391,-0.93545 -12.89188,-5.49985 -13.9806,-11.95456 -0.95503,-5.66203 0.79543,-11.06352 4.91638,-15.170771 5.20756,-5.190249 13.56058,-6.429344 20.04455,-2.973427 3.25242,1.733525 6.46641,5.443365 7.85161,9.062968 1.2737,3.32822 0.9578,9.51007 -0.66736,13.0599 -0.90157,1.96929 -3.99437,4.98887 -6.22995,6.08246 -3.27957,1.60428 -8.09737,2.36863 -11.93463,1.89343 z m 8.26908,-2.28792 c 2.63853,-0.87204 5.77822,-2.88174 6.91959,-4.4292 3.60018,-4.88106 3.22973,-11.40341 -0.88115,-15.5143 -1.44334,-1.443336 -4.66443,-3.136046 -7.11355,-3.738231 -2.19245,-0.539075 -7.94151,-0.459528 -9.92187,0.137285 -5.27247,1.588934 -8.61527,5.103286 -9.44245,9.927036 -0.59395,3.46368 0.80106,7.55503 3.50912,10.29168 1.66508,1.68266 4.87996,3.34681 7.52083,3.89308 2.79653,0.57846 6.64464,0.34644 9.40948,-0.56735 z m 6.14216,-11.94314 c -0.46595,-2.50552 -1.31764,-3.97478 -3.59039,-6.19384 -2.15261,-2.10175 -2.57164,-3.068778 -1.26662,-2.923033 1.87666,0.209587 4.96032,3.328373 5.58514,5.648763 0.34321,1.27461 0.22994,4.78828 -0.1585,4.91655 -0.15968,0.0527 -0.40778,-0.57814 -0.56963,-1.44844 z m -30.83114,4.77079 c -0.92289,-0.96739 -1.25696,-1.92798 -1.25696,-3.61424 0,-1.01735 0.13149,-1.51597 0.48385,-1.83485 0.82887,-0.75012 1.02497,-0.50069 1.20978,1.53878 0.0985,1.08716 0.35178,2.54568 0.5628,3.24114 0.46489,1.53214 0.46082,1.39678 0.042,1.39678 -0.19106,0 -0.65973,-0.32743 -1.0415,-0.72761 z m 36.9614,0.13229 c 0.099,-0.32742 0.37296,-1.8157 0.60871,-3.30729 0.27774,-1.75725 0.54456,-2.71198 0.75793,-2.71198 1.57576,0 1.533,3.91531 -0.0635,5.81262 -0.81892,0.97323 -1.57113,1.09251 -1.30316,0.20665 z" /></g></svg>
