<?xml version="1.0" encoding="UTF-8" standalone="no"?>
<svg
   width="83.143318mm"
   height="81.526031mm"
   viewBox="0 0 83.143318 81.526031"
   version="1.1"
   xml:space="preserve"
   xmlns="http://www.w3.org/2000/svg"
   xmlns:svg="http://www.w3.org/2000/svg"><g
     transform="translate(-61.838268,-94.562216)"><path
       style="fill:#000000"
       d="m 93.415713,175.98995 c -14.518333,-1.28004 -21.912805,-2.8902 -24.595587,-5.35573 -0.956404,-0.87896 -1.060103,-1.10837 -1.21188,-2.681 -0.151306,-1.56775 -0.104272,-1.81042 0.532013,-2.74494 0.603473,-0.88632 0.660214,-1.13351 0.419015,-1.82542 -0.779982,-2.23745 0.0289,-4.7 1.886823,-5.74421 0.574796,-0.32305 0.985066,-0.72404 0.911711,-0.89109 -0.07336,-0.16704 -0.551784,-1.25621 -1.063176,-2.42038 -0.805449,-1.83358 -1.905666,-5.32266 -2.387539,-7.57153 -0.117301,-0.54744 -0.345269,-0.72433 -1.08905,-0.84502 -1.441489,-0.23393 -2.610157,-1.09909 -3.364678,-2.49087 -2.198421,-4.05517 -2.14116,-13.83427 0.102261,-17.4642 0.66913,-1.08268 1.933013,-1.92079 2.89866,-1.92218 0.637856,-9.2e-4 0.729298,-0.15869 1.265649,-2.1838 3.963792,-14.96614 17.061173,-25.911839 32.496055,-27.157486 11.09577,-0.895466 21.49453,2.862909 29.19085,10.550316 2.8894,2.88606 5.3407,6.20726 6.9359,9.39727 0.76243,1.52467 2.04008,5.11325 3.06022,8.5953 0.14343,0.48958 0.42823,0.69695 1.11367,0.81091 0.50652,0.0842 1.18511,0.29641 1.50797,0.47155 2.19132,1.18873 3.55373,8.19779 2.69877,13.88406 -0.39224,2.60872 -0.95189,4.47659 -1.65298,5.51694 -0.68497,1.01643 -2.39017,2.06373 -3.37036,2.07001 -0.62919,0.004 -0.71422,0.15544 -1.15413,2.05488 -0.49739,2.14766 -1.9871,6.39558 -2.82006,8.04145 l -0.4878,0.96385 0.75358,0.31215 c 1.47241,0.60989 2.22603,1.70678 2.34998,3.42039 0.062,0.85785 -0.0292,1.99022 -0.2029,2.51637 -0.29166,0.88374 -0.26168,1.02086 0.39342,1.7994 0.65227,0.77518 0.7014,0.99588 0.61272,2.75216 -0.11728,2.32237 -0.40834,2.70576 -2.98946,3.93763 -3.37511,1.61082 -9.11053,2.86695 -17.00719,3.7248 -3.70965,0.403 -22.603705,0.75427 -25.732477,0.47842 z m 23.283337,-4.31713 c 10.32877,-0.98955 19.98476,-3.44941 20.573,-5.24095 0.15619,-0.47569 -0.47027,-0.40784 -1.69419,0.18349 -2.65442,1.28248 -9.34828,2.58641 -17.29131,3.36826 -5.84018,0.57485 -22.082505,0.65629 -27.648962,0.13862 -8.942396,-0.83162 -17.325055,-2.44708 -19.739513,-3.80408 -0.779164,-0.43791 -1.110838,-0.50688 -1.33925,-0.27846 -0.411696,0.41169 0.09739,1.00107 1.469171,1.70091 3.915614,1.99759 12.003216,3.48859 22.652301,4.17607 4.34456,0.28048 19.187103,0.12324 23.018753,-0.24386 z m -0.66146,-3.30036 c 5.73134,-0.68692 8.05825,-1.15119 10.05112,-2.00543 1.55962,-0.66853 1.39718,-0.95747 -0.3134,-0.55746 -0.69908,0.16347 -2.8784,0.47104 -4.84293,0.68349 -17.21906,1.86207 -39.120515,0.53324 -47.724367,-2.89558 l -1.620424,-0.64578 0.79375,0.65024 c 2.515174,2.06041 11.475544,4.28749 20.637499,5.12941 3.972079,0.365 18.923942,0.13188 23.018752,-0.35889 z m -5.59905,-2.27648 c 6.13084,-0.26452 12.15162,-0.82004 14.2398,-1.31386 0.63186,-0.14942 2.07975,-0.44861 3.21754,-0.66486 4.20844,-0.79987 7.24978,-2.01312 8.0308,-3.20364 0.32284,-0.49211 0.30089,-0.63139 -0.1876,-1.19062 -0.43475,-0.49771 -0.58626,-0.55156 -0.70758,-0.25148 -0.31394,0.7765 -1.34031,1.54251 -2.79713,2.08758 -1.73838,0.65041 -5.96784,1.54839 -8.25928,1.75357 -0.87313,0.0782 -3.07578,0.32814 -4.89479,0.55545 -2.11564,0.26438 -6.65276,0.46694 -12.59221,0.56217 -12.360843,0.19819 -19.628978,-0.31123 -27.624459,-1.93619 -4.251606,-0.86407 -6.029005,-1.56431 -6.771002,-2.66754 -0.530764,-0.78917 -0.600222,-0.81784 -0.961346,-0.39688 -1.033058,1.20425 -0.854191,1.70523 0.931992,2.61035 4.304269,2.18114 13.439547,3.6571 25.056605,4.04831 3.1287,0.10536 6.04573,0.20884 6.48229,0.22996 0.43656,0.0211 3.51293,-0.0789 6.83637,-0.22232 z m 4.40842,-3.57263 c 6.85344,-0.5349 11.77832,-1.31701 15.13438,-2.40345 1.07945,-0.34945 1.38401,-0.62472 2.3055,-2.0838 1.99098,-3.15249 4.46007,-9.54037 4.91075,-12.70475 0.12548,-0.88109 0.0466,-0.77031 -0.47113,0.66146 -0.34202,0.94588 -0.83556,2.13651 -1.09676,2.64583 -2.86909,5.59457 -9.77249,8.885 -21.99848,10.48532 -4.17672,0.54672 -14.713654,0.62731 -19.090615,0.14603 -10.265316,-1.12876 -18.585644,-4.2967 -21.846502,-8.318 -3.925068,-4.8404 -5.333622,-16.49525 -3.077516,-25.46439 2.647302,-10.52434 12.406293,-18.85752 25.277336,-21.58425 3.384648,-0.71704 10.149407,-0.97336 13.744837,-0.5208 10.52794,1.32516 19.96179,6.59248 24.81014,13.85257 1.96483,2.9422 2.67692,4.43438 3.64604,7.6403 0.78766,2.60561 0.83104,2.99179 0.96055,8.5511 0.12316,5.28629 0.008,7.26924 -0.58923,10.18504 -0.0746,0.3638 -0.0648,0.51263 0.0217,0.33073 0.0865,-0.1819 0.3671,-0.33073 0.62356,-0.33073 0.41195,0 0.48634,-0.39311 0.63834,-3.37344 0.21372,-4.19042 0.15973,-14.60481 -0.0682,-13.16302 -0.19166,1.21215 -0.10008,1.45143 -1.16455,-3.04271 -3.50197,-14.78523 -14.50111,-24.901899 -29.48139,-27.116074 -5.85376,-0.865222 -12.081664,-0.126074 -17.791344,2.111532 -4.148043,1.625602 -9.000879,4.898762 -12.099772,8.161092 -4.366887,4.59719 -8.107528,11.8397 -9.109333,17.6372 -0.29659,1.71639 -0.6937,2.37119 -1.074628,1.77197 -0.110753,-0.17422 -0.203192,3.58254 -0.20542,8.34834 l -0.0041,8.66511 0.595313,-0.0209 c 0.327422,-0.0115 0.446484,-0.0809 0.264583,-0.15434 -0.181901,-0.0734 -0.330729,-0.31063 -0.330729,-0.52718 0,-0.34201 0.04986,-0.34386 0.379586,-0.0141 0.208772,0.20877 0.732951,1.8015 1.164842,3.5394 1.630104,6.55942 4.525959,12.72735 6.334749,13.49248 2.261716,0.95673 9.979285,2.26533 15.933322,2.70169 5.226784,0.38305 17.207961,0.32765 22.754161,-0.10523 z m -6.21771,-4.36928 c 11.15729,-0.74772 19.69682,-3.3592 23.51658,-7.19163 1.93564,-1.94206 2.85415,-3.71804 3.75059,-7.25192 1.70286,-6.71286 1.29497,-15.72107 -0.95676,-21.12997 -4.37844,-10.51748 -15.99033,-17.66608 -29.74999,-18.3149 -14.731111,-0.69463 -28.806265,6.97694 -33.359426,18.18233 -2.893558,7.1211 -2.735349,19.08396 0.335876,25.39691 3.113922,6.40072 13.86729,10.09513 30.6423,10.52742 1.01865,0.0263 3.63802,-0.072 5.82083,-0.21824 z m -12.170829,-1.05538 c -6.516804,-0.58345 -11.307202,-1.58931 -15.553615,-3.26583 -5.375969,-2.12249 -7.877211,-4.81402 -9.154005,-9.85044 -0.898603,-3.54461 -1.173644,-6.53224 -0.996265,-10.8219 0.172384,-4.1689 0.567002,-6.63417 1.479539,-9.24305 5.541634,-15.84316 28.469805,-23.44605 46.832485,-15.52946 7.36709,3.17612 12.80843,8.54783 15.36262,15.16601 1.20038,3.11033 1.67859,6.30729 1.67442,11.194 -0.007,7.84373 -1.55389,13.06744 -4.73026,15.97047 -3.17356,2.90045 -8.76176,4.85023 -17.19475,5.99942 -3.52335,0.48014 -14.07729,0.70693 -17.720169,0.38078 z m 31.632489,-6.56674 c 1.25438,-1.01573 0.42965,-3.21623 -1.20541,-3.21623 -1.11604,0 -1.87148,0.99924 -1.75026,2.31511 0.0529,0.57363 1.06311,1.38906 1.72095,1.38906 0.34768,0 0.90331,-0.21957 1.23472,-0.48794 z M 82.273338,137.2768 c 1.301403,-0.66393 1.865264,-1.55371 2.160865,-3.4099 0.974187,-6.11729 1.085693,-6.56307 2.228302,-8.90847 2.889652,-5.93149 8.086624,-10.34749 15.293365,-12.99517 3.54133,-1.30104 2.15228,-2.0991 -3.24849,-1.86635 -7.805388,0.33638 -14.458559,3.98297 -18.528292,10.15534 -3.058326,4.63841 -4.889988,13.4212 -3.258364,15.6238 1.37824,1.86055 3.409414,2.3921 5.352614,1.40075 z m -15.87129,-4.84389 c 0.0217,-4.55327 -0.03732,-5.4901 -0.34588,-5.4901 -0.247041,0 -0.434739,0.45582 -0.558633,1.35664 -0.207715,1.51027 0.100142,11.8535 0.365188,12.2694 0.309121,0.48505 0.512887,-2.58884 0.539325,-8.13594 z m -1.548398,3.42544 c 0.209606,-4.43379 0.05944,-7.08609 -0.40981,-7.23825 -0.247818,-0.0804 -0.36991,6.28102 -0.198438,10.3392 0.117263,2.77522 0.398153,1.3432 0.608248,-3.10095 z m 76.41922,-5.80669 c 0.0303,-2.90282 -0.001,-3.10885 -0.47666,-3.10885 -0.48791,0 -0.50531,0.2119 -0.41829,5.09414 0.10979,6.15966 0.44828,8.05576 0.69652,3.90169 0.0913,-1.52797 0.1806,-4.17711 0.19843,-5.88698 z m 1.29376,2.26325 c -0.0448,-2.37898 -0.16313,-3.66398 -0.3228,-3.50499 -0.37193,0.37036 -0.49974,3.3389 -0.27009,6.27345 0.29734,3.79957 0.68267,2.00028 0.59289,-2.76846 z" /></g></svg>
