<?xml version="1.0" encoding="UTF-8" standalone="no"?>
<svg
   width="97.613731mm"
   height="119.52768mm"
   viewBox="0 0 97.613731 119.52768"
   version="1.1"
   xml:space="preserve"
   xmlns="http://www.w3.org/2000/svg"
   xmlns:svg="http://www.w3.org/2000/svg"><path
     style="fill:#000000"
     d="m 21.943194,119.39741 c -1.929563,-0.15692 -6.167018,-1.35374 -6.457577,-1.82388 -0.232346,-0.37594 2.067709,-14.80292 4.365312,-27.381201 1.940096,-10.62109 1.955206,-13.20732 0.129854,-22.22513 -1.284925,-6.34793 -1.334104,-6.48598 -1.555207,-4.36562 -0.227691,2.18353 -2.406942,33.13809 -2.803377,39.819791 -0.164046,2.76489 -0.349912,5.28255 -0.413036,5.59479 -0.100187,0.49558 -0.406418,0.60912 -2.409882,0.89351 -2.67829,0.38019 -9.929717,0.20297 -11.670116,-0.2852 L 0,109.30774 0.13918,108.08435 c 0.278824,-2.45087 2.227329,-34.744431 2.907468,-48.186941 0.217203,-4.29287 0.634582,-13.93693 0.927509,-21.43125 0.292928,-7.49432 0.660416,-14.34042 0.816641,-15.21354 0.322039,-1.799845 1.274935,-4.062988 2.247722,-5.338378 0.441737,-0.579147 1.0254,-0.955656 1.775403,-1.145276 6.498465,-1.642981 13.232257,-3.7976 18.976697,-6.071996 l 1.455208,-0.57616 -1.354406,1.40653 c -1.994014,2.070753 -3.837146,4.447704 -3.664918,4.726375 0.08281,0.133996 1.155641,0.944889 2.38406,1.801985 l 2.233489,1.558356 -2.467623,1.627141 c -1.357193,0.894928 -2.78071,1.953933 -3.163372,2.353343 -0.691736,0.72202 -0.693612,0.73534 -0.325257,2.30881 1.220808,5.21482 5.950733,16.35854 13.249533,31.21593 4.49286,9.14566 7.27445,14.03824 9.74614,17.14267 l 0.79863,1.00307 -0.43206,1.11359 c -0.23763,0.61248 -0.81169,2.00656 -1.27569,3.09796 -2.5421,5.97947 -1.96489,11.54311 2.00218,19.29867 l 1.50976,2.951561 -0.99375,1.50874 c -4.88439,7.41561 -12.06962,13.69721 -17.671455,15.44903 -2.035445,0.63653 -5.245005,0.92695 -7.877895,0.71284 z m 49.63597,0.035 c -2.02258,-0.23412 -4.37167,-0.92313 -6.07412,-1.78158 -4.32346,-2.1801 -9.7587,-6.96521 -13.30777,-11.71597 -3.64843,-4.88377 -6.78698,-11.442671 -7.65978,-16.007291 -0.47119,-2.46427 -0.35692,-6.53729 0.21299,-7.59139 0.20369,-0.37674 1.36253,-1.79937 2.5752,-3.16139 3.58986,-4.03196 7.0721,-9.30928 10.14096,-15.36858 0.75718,-1.49502 3.42469,-7.30213 5.92778,-12.90468 l 4.55108,-10.18646 3.93349,-0.1837 c 5.21728,-0.24365 6.18251,-0.39307 6.18225,-0.95699 -3.2e-4,-0.67678 -1.41064,-3.50938 -2.2314,-4.48171 -0.39922,-0.47294 -0.93225,-0.85989 -1.18451,-0.85989 -0.25226,0 -1.14172,0.36996 -1.97657,0.82213 -1.6029,0.86817 -1.97016,0.87539 -1.51764,0.0298 0.53366,-0.99715 3.43176,-8.97408 3.61475,-9.94947 0.23582,-1.25705 -0.15702,-1.69485 -3.49701,-3.897229 -1.36921,-0.902851 -2.39531,-1.72243 -2.28021,-1.821287 0.11509,-0.09886 1.19152,-0.86202 2.39207,-1.69592 1.20054,-0.833899 2.18281,-1.62086 2.18281,-1.748803 0,-0.278535 -2.2905,-3.110458 -3.8096,-4.710119 l -1.08519,-1.142731 1.45521,0.593234 c 2.79599,1.139821 13.65238,4.715625 16.79991,5.533441 1.74563,0.453563 3.38747,1.017966 3.64854,1.254229 0.87975,0.796164 2.28832,4.099327 2.56586,6.017055 0.14742,1.01865 0.50955,8.10287 0.80472,15.74271 0.84902,21.97475 1.87955,41.47811 3.30525,62.553481 0.54775,8.09702 0.6097,7.43595 -0.7321,7.81123 -1.72171,0.48154 -8.68742,0.66075 -11.44077,0.29435 -1.30673,-0.17389 -2.39028,-0.33777 -2.40787,-0.36418 -0.0176,-0.0264 -0.41475,-5.82254 -0.88257,-12.880301 -1.731,-26.11511 -2.31921,-34.40267 -2.45108,-34.53455 -0.14849,-0.14849 -1.6005,6.40996 -2.2379,10.10813 -0.66131,3.83697 -0.54842,9.5508 0.27874,14.10767 1.26921,6.9922 3.5602,20.700471 4.24495,25.400001 0.37106,2.54661 0.73598,4.89579 0.81095,5.2204 0.11196,0.48483 -0.0415,0.66575 -0.85965,1.01346 -2.75995,1.17295 -7.01514,1.78742 -9.99177,1.44286 z M 49.834574,88.958309 c 1.37987,-0.73493 1.64711,-2.21894 0.58995,-3.2761 -0.81676,-0.81676 -1.76019,-0.82724 -2.68721,-0.0299 -1.17857,1.01376 -0.89023,2.77848 0.54933,3.36199 0.74254,0.30098 0.88744,0.29574 1.54793,-0.056 z m -3.3861,-11.06929 c 0.5014,-1.23692 0.91381,-2.41528 0.91647,-2.61858 0.003,-0.20329 -0.39522,-0.85814 -0.88419,-1.45521 -2.892,-3.53137 -8.41076,-13.86251 -14.838637,-27.77795 -3.657065,-7.91702 -8.351391,-19.92022 -8.348698,-21.34727 3.94e-4,-0.20851 1.48327,-1.39114 3.295281,-2.628065 1.812011,-1.236927 3.29997,-2.333909 3.306576,-2.437738 0.0066,-0.103828 -1.059552,-0.931353 -2.369239,-1.838944 -1.309688,-0.907591 -2.378689,-1.775141 -2.375558,-1.927888 0.0086,-0.421807 5.603937,-6.4058447 8.593266,-9.1903017 l 2.645829,-2.464503 0.16569,6.6145827 c 0.37197,14.849527 3.52577,34.776207 7.5795,47.889577 l 0.49075,1.5875 0.18429,-12.43541 c 0.10137,-6.83948 0.30659,-14.57854 0.45606,-17.19792 0.30251,-5.30116 1.10448,-12.230249 1.66087,-14.349988 l 0.36364,-1.385409 -0.88634,-1.316133 c -0.48748,-0.723873 -0.88633,-1.381744 -0.88633,-1.461935 0,-0.08019 0.38695,-0.737593 0.85989,-1.460892 l 0.8599,-1.3150897 1.74639,-0.0048 1.74639,-0.0048 0.8333,1.3404967 c 0.45831,0.737274 0.83329,1.433785 0.83329,1.547802 0,0.114018 -0.37013,0.718263 -0.82252,1.342767 l -0.82252,1.135461 0.41643,2.145382 c 1.2091,6.229138 1.51135,11.333248 1.6754,28.293098 0.0829,8.56679 0.24836,15.19943 0.37606,15.07173 0.38853,-0.38853 3.59581,-13.43905 4.57052,-18.59757 2.0912,-11.06738 3.32674,-21.884261 3.52838,-30.890104 0.079,-3.5288797 0.2242,-6.4161457 0.32266,-6.4161457 0.0984,0 1.95803,1.76225 4.1324,3.916112 3.95185,3.9145777 6.74927,7.0946177 6.67964,7.5932627 -0.0203,0.14552 -1.04936,0.978958 -2.28677,1.852083 -1.2374,0.873125 -2.28495,1.706562 -2.32789,1.852083 -0.0429,0.145521 1.35711,1.217083 3.11121,2.38125 3.18227,2.112019 3.18901,2.118709 3.06714,3.042709 -0.13143,0.99643 -2.42925,7.30375 -3.62565,9.9521 -0.70302,1.55621 -0.80309,1.65105 -2.63124,2.4937 -1.92241,0.8861 -2.39866,1.35507 -2.39866,2.362 0,0.53496 0.95351,1.14468 1.38906,0.88823 0.47868,-0.28185 -0.007,0.94721 -3.39589,8.59978 -7.31118,16.5079 -11.36176,23.72787 -16.50233,29.4146 l -1.31545,1.45521 z m -1.4539,-69.6193327 c -3.75008,-1.006535 -7.67895,-3.542359 -7.67895,-4.956244 0,-1.932568 5.20273,-3.36395795 12.03854,-3.31207595 5.75835,0.04371 9.27051,0.809513 10.82031,2.35931395 1.17161,1.171615 -0.2577,2.848387 -3.94115,4.623477 -3.98335,1.919617 -7.4142,2.31205 -11.23875,1.285529 z" /></svg>
