<?xml version="1.0" encoding="UTF-8" standalone="no"?>
<svg
   width="56.468193mm"
   height="115.62459mm"
   viewBox="0 0 56.468193 115.62459"
   version="1.1"
   xml:space="preserve"
   xmlns="http://www.w3.org/2000/svg"
   xmlns:svg="http://www.w3.org/2000/svg"><path
     style="fill:#000000"
     d="m 25.735755,115.52268 c -5.007079,0.35247 -6.075955,-5.2176 -8.791462,-8.27703 C 12.045989,100.05827 6.563143,93.216307 0,87.472637 c 0.893767,-7.27776 5.09955,-13.42491 8.293138,-19.83295 3.101809,-6.6154 0.780072,-14.10552 -1.478163,-20.60185 -1.907174,-3.6322 -5.431842,-6.76727 -5.091148,-11.30977 0.154509,-6.67803 4.728814,-12.33213 4.789481,-19.05956 0.49566,-5.12319 -0.375482,-10.2979098 0.214896,-15.3972398 3.51614,-3.66344 6.412891,1.40275 5.757422,4.95611 1.326098,7.7354998 2.109381,16.6624998 8.40962,22.1746898 3.063791,2.8246 6.796863,5.57211 7.295353,10.05488 0.550388,-1.22456 2.620039,-7.09114 5.686781,-8.4549 3.938624,-3.1762 6.984074,-7.38717 8.062489,-12.39894 1.689573,-5.45893 1.732659,-11.2947198 3.224458,-16.75652976 4.149256,-2.80284004 5.608896,2.13026996 4.763426,5.50375996 0.0514,6.8671798 -0.46807,14.0614098 2.75882,20.3871598 2.42527,5.40091 3.5811,12.64877 -1.06555,17.23913 -2.75545,3.51976 -3.24262,8.29356 -4.425015,12.50462 -1.023239,4.75842 -0.0838,9.69647 2.479065,13.82281 2.89819,5.47501 6.3435,10.96578 6.79312,17.30713 -8.88709,7.48953 -15.431064,17.274573 -21.724237,26.926633 -2.785225,1.188 -6.032305,1.18901 -9.008201,0.98486 z m 3.021068,-2.80438 c 0.750118,-7.32303 0.231627,-14.816153 0.415314,-22.202803 0.0061,-14.77053 0.002,-29.54107 0.0032,-44.3116 -2.150098,-0.68207 -1.554384,1.3969 -1.603136,2.82783 -0.0545,21.23018 -0.274134,42.46926 0.147925,63.693953 l 0.497684,0.12547 0.539009,-0.13247 z m 4.15051,-9.89357 c 1.444482,-3.234503 0.687626,-6.806203 0.873898,-10.233433 -0.01867,-15.2241 0.09756,-30.45008 -0.107975,-45.67258 -2.579624,-1.67948 -1.739489,1.2879 -1.852417,2.84975 -0.04857,18.83232 0.126178,37.66874 -0.180933,56.497673 0.66001,-1.00629 0.839946,-2.31597 1.267427,-3.44141 z M 24.815378,46.518237 c -2.759839,-0.50711 -1.646684,2.34862 -1.867342,3.96597 -0.04357,16.34441 -0.08714,32.68882 -0.130706,49.03323 0.597425,1.477253 1.664685,7.093073 1.841194,4.971823 0.269124,-19.321113 0.300996,-38.649163 0.156854,-57.971023 z m -4.238998,24.99397 c 0,-8.05626 0,-16.11253 0,-24.16879 -3.342166,1.89929 -0.823955,7.64052 -1.674019,10.99972 -0.06349,11.67165 -0.02435,23.34351 -0.03081,35.01526 2.786628,5.2507 1.330159,-3.23829 1.690926,-5.61756 0.01049,-5.40953 0.01377,-10.81912 0.01391,-16.22863 z m 17.270928,-0.91024 c -0.117368,-7.36744 0.16909,-14.7553 -0.339257,-22.10842 -2.016997,-2.74044 -0.996449,4.75516 -1.306938,6.19003 -0.09621,13.69502 -0.09665,27.39052 -0.143216,41.08577 0.919511,-1.37118 2.337641,-2.58318 1.8566,-4.40146 -0.0224,-6.92197 -0.04479,-13.84395 -0.06719,-20.76592 z M 16.60763,69.751837 c 0,-7.14375 0,-14.2875 0,-21.43125 -2.278616,-0.68295 -2.089168,1.10459 -1.963968,2.82784 0.119501,12.04973 -0.389798,24.10427 -0.117834,36.14812 -0.318501,2.50536 3.135671,5.69086 2.076565,1.29003 0.0046,-6.27824 0.005,-12.55651 0.0052,-18.83474 z m 25.539646,17.40243 c 0.513582,-9.57945 -0.267565,-19.18584 -0.20958,-28.77793 -0.04666,-3.35193 -0.09332,-6.70385 -0.139985,-10.05578 -2.177241,-0.6851 -1.634819,1.34908 -1.647866,2.82787 0.0019,13.32018 0.0037,26.64035 0.0056,39.96053 1.515089,-0.82084 1.961488,-2.26659 1.991828,-3.95469 z m -30.032367,0.39077 c -0.228628,-6.67152 -0.353182,-13.38018 0.146942,-20.04218 -2.98454,4.93248 -2.158509,11.06195 -2.219665,16.5745 0.0943,1.71214 -0.336878,3.8955 2.029448,4.13344 l 0.121554,-0.1838 -0.07828,-0.48196 z m 33.441148,0.0783 c 2.251676,-4.16775 0.693292,-9.81214 0.627498,-14.51091 0.04269,-1.35848 -1.910359,-7.28457 -1.530093,-3.20405 0.01836,6.03314 -0.05406,12.06787 0.07928,18.09966 l 0.82331,-0.3847 z M 8.022259,82.517987 c -0.238758,-2.30026 1.27179,-10.31022 -1.244879,-4.68193 -0.196776,2.30194 -1.732047,7.91518 1.110981,8.03044 0.11581,-1.11198 0.122945,-2.23176 0.133898,-3.34851 z m 41.999774,3.03515 c 0.92392,-2.49423 0.0916,-9.72967 -1.69331,-9.07641 1.08542,2.11735 -1.347894,10.20567 1.69331,9.07641 z M 11.951049,48.642987 c -1.999996,-3.13384 0.003,4.51276 0,0 z m 33.799718,-0.76852 c -2.089725,-0.06 -0.158602,4.18262 -0.0056,0.43585 l 0.0056,-0.43608 z m -32.719596,-3.45651 c -0.944092,-6.99591 0.03629,-14.0875 -0.02767,-21.07812 -0.505138,-1.41858 -1.010274,-2.83715 -1.515409,-4.25573 0.03785,7.67528 -1.555769,15.36215 -0.656657,23.01875 -0.07245,0.60768 1.493802,4.13263 2.199732,2.3151 z m 4.133852,0.0443 c -0.90114,-5.03773 0.249125,-10.21063 -0.396617,-15.23483 -1.610763,-3.17728 -1.854311,-0.94542 -1.664413,1.18339 0.04666,4.75535 -0.366691,9.6032 0.44932,14.29461 0.270113,0.20986 1.888419,0.44344 1.61171,-0.24317 z m 24.169356,-1.34484 c 0.30621,-5.30495 0.409332,-10.6586 0.0359,-15.95786 -1.712827,1.20908 -1.839105,3.07922 -1.677808,4.96283 -0.02203,4.25289 -0.04406,8.50579 -0.06609,12.75869 1.287607,0.22758 1.671448,-0.47178 1.707998,-1.76366 z m 3.005891,1.51747 c 2.725318,-3.31378 1.716694,-8.18893 1.593976,-12.20298 -0.290529,-4.62128 -0.663127,-9.24369 -0.659471,-13.87696 -0.763119,2.5916 -2.288649,5.07602 -1.691955,7.85878 0.369553,6.11948 0.55064,12.30032 -0.0469,18.38978 l 0.263307,0.0181 0.541035,-0.18672 z m -6.951854,-1.94864 c 0.450024,-3.70082 -0.05235,-7.43495 -0.143288,-11.14797 -1.514886,0.91061 -2.119304,2.17576 -1.554168,3.89636 0.995181,2.50038 -0.910706,7.69477 1.274988,8.60039 l 0.204574,-0.47389 0.217893,-0.87489 z m -16.761041,-1.97245 c -0.170739,-2.15161 1.427789,-9.40958 -1.153154,-7.95264 0.20273,3.4478 -1.844602,9.04355 0.905762,11.21439 0.365101,-1.03689 0.157931,-2.18709 0.247392,-3.26175 z m 13.026268,-0.28019 c 0.236286,-2.04377 -0.413128,-7.51223 -1.600393,-2.5348 -0.208379,1.92809 -2.278003,6.04051 1.302839,5.49929 0.531909,-0.86643 0.185075,-2.01041 0.297554,-2.96449 z m -8.541732,2.46039 c 0.678145,-2.07059 -1.737072,-10.33364 -2.108938,-4.44503 0.01932,1.5947 -0.994759,6.40956 2.108938,4.44503 z M 8.251704,41.507547 c -0.79098,-6.96875 1.106896,-14.26162 1.20937,-20.99558 -1.217452,4.68458 -3.174288,9.22436 -3.008458,14.16761 -0.799651,1.46985 0.371405,9.72524 1.799088,6.82797 z m 41.376139,-0.28433 c 1.4929,-4.17372 0.10692,-8.92171 -0.27003,-13.25147 -0.77529,-1.56083 -2.135414,-8.01563 -2.333205,-7.09966 0.70248,7.13596 2.029905,14.39859 1.325145,21.52047 0.61383,-0.092 0.9116,-0.7705 1.27809,-1.16934 z" /></svg>
