<?xml version="1.0" encoding="UTF-8" standalone="no"?>
<svg
   width="88.130257mm"
   height="98.518272mm"
   viewBox="0 0 88.130257 98.518272"
   version="1.1"
   xml:space="preserve"
   xmlns="http://www.w3.org/2000/svg"
   xmlns:svg="http://www.w3.org/2000/svg"><path
     style="fill:#000000"
     d="m 30.166005,98.335744 c -8.377245,-0.8008 -16.992594,-1.40315 -24.9305174,-4.38342 -3.297059,-1.63504 -5.65144496,-5.25609 -5.12289096,-8.96759 0.06136,-7.01324 -0.480666,-14.07071 0.380007,-21.04393 0.411116,-4.07018 4.79904696,-5.65822 7.18043896,-7.85032 2.3678184,-11.77059 9.0411564,-22.92737 19.5022204,-29.17594 2.277032,-0.8649 3.237872,-1.99006 1.258632,-3.86233 -2.390202,-3.82986 -1.458947,-8.471 -0.147621,-12.38837 1.560831,-5.0829568 6.015331,-7.6377228 10.449981,-9.88105576 4.40278,-1.122839 9.65355,-1.382323 13.35912,1.58708496 4.05693,1.689968 6.71862,5.344945 8.46386,9.3192608 1.02191,4.52934 0.96337,9.55631 -2.16736,13.36327 2.62399,2.22568 6.0644,3.78433 8.56181,6.34949 7.30924,6.50871 11.78286,15.67039 13.61044,25.19458 3.46379,1.30693 6.9776,4.19481 7.41839,8.01791 0.0493,7.73015 0.0985,15.4603 0.14774,23.19045 -1.26301,4.02088 -4.95537,6.60736 -8.97509,7.42504 -15.68969,4.00334 -32.02158,3.29056 -48.07098,3.1504 l -0.91817,-0.0445 z M 17.143256,85.386024 c 19.772709,-2.61945 40.019949,-2.4856 59.660159,1.1075 1.80721,-0.10175 4.08542,2.44212 5.31113,0.24347 0.71011,-1.44143 0.13784,-3.42034 0.34562,-5.07231 -0.1096,-5.62122 0.55551,-11.33213 -0.4331,-16.87603 -2.15247,-3.86251 -7.32907,-3.53762 -11.0828,-4.62657 -3.96056,-0.46359 -8.3276,-2.05523 -12.10624,-1.33429 -0.0122,1.43121 0.6097,6.52953 0.26805,6.33589 -0.63226,-2.41908 -1.6059,-4.72674 -2.68604,-6.97619 -9.51965,-0.68473 -19.09623,-0.52167 -28.603594,0.28195 -0.964735,2.25582 -1.726874,4.58945 -2.429965,6.93813 -0.37755,-2.0399 1.482642,-6.61624 -1.145928,-6.47972 -5.480553,1.06707 -11.275563,1.5314 -16.3465864,3.99378 -3.625912,3.3501 -1.458318,8.97115 -2.069637,13.34385 v 9.95258 c 0.945251,1.52584 2.189313,1.70105 3.683696,0.74482 2.4635084,-0.84958 5.0706364,-1.17967 7.6352354,-1.57686 z m -10.0973444,0.75523 c -0.88879,-1.77758 -2.546808,-0.68557 4.9974534,-3.5379 4.169794,-1.55668 11.878232,-0.0982 12.795692,-5.7483 0.327037,-2.23631 0.373442,-6.7976 0.72456,-2.05478 -1.541827,3.75951 4.312678,8.59527 5.707358,3.75032 0.50005,-2.19599 0.42178,-8.97922 1.18638,-8.34441 0.39545,3.70042 -0.73437,11.12821 5.26516,9.80391 4.17627,-0.41586 9.08496,0.16592 12.53582,-2.53408 0.91988,-3.04854 0.95684,-6.26892 1.22318,-9.42261 0.5444,3.82907 0.7901,7.7536 1.83747,11.46856 4.31878,3.51811 5.42894,-5.70606 6.05524,-7.34504 -0.0336,4.13996 0.0732,9.83058 5.78736,7.17863 4.72075,-0.55164 7.17952,-5.19979 7.58431,-9.50011 -0.17731,-3.55433 1.59287,-5.74591 5.21344,-4.81542 1.44466,-0.94239 -0.86477,-3.52658 1.85969,-1.45548 3.44636,3.69066 1.344,9.45999 1.93479,14.07966 -0.093,3.7076 1.28311,11.55698 -4.82539,7.94224 -15.84533,-3.26151 -32.11861,-2.97462 -48.202609,-2.43722 -7.133541,0.6373 -14.420516,1.3767 -21.2509374,3.37913 l -0.428972,-0.40711 z m 9.8909264,-31.33043 c 13.097977,-2.59595 26.527717,-2.73874 39.812687,-1.94544 5.85779,0.54063 11.7169,1.36653 17.46933,2.50127 -0.60807,-5.03235 -3.03116,-9.91794 -5.90323,-14.10606 -6.24136,-8.8987 -17.05268,-15.31782 -28.17006,-13.48364 -11.182955,1.94995 -20.430601,10.86516 -24.469034,21.24291 -0.370265,2.49629 -4.450043,8.46447 1.260307,5.79096 z m 51.799347,-1.1831 c -5.62791,-0.95936 -11.31526,-1.51602 -17.00664,-1.93014 3.62221,-0.53402 8.65412,-1.07113 9.388,-5.47691 1.24101,-5.70479 -2.06559,-10.9844 -5.64221,-15.0765 8.94699,4.591 15.55655,13.46959 17.77036,23.22111 -1.50002,-0.13029 -3.00899,-0.52352 -4.50951,-0.73756 z m -17.5249,-29.71372 c 3.07134,-0.90616 3.95331,-3.56694 4.56374,-5.86049 -3.021,-1.08991 0.2348,-3.00111 -0.40719,-3.68402 -0.98906,-1.16593 -1.3409,-2.40998 -2.71445,-3.14386 1.13333,-3.5807588 -4.03871,-2.1301398 -4.22617,-5.0638158 -1.99397,2.660246 -3.30188,-0.324749 -4.42287,-0.861791 -1.04653,4.531437 -4.74006,-2.129591 -4.79452,2.638932 -2.05151,0.124262 -3.95461,-0.331548 -3.22299,2.6547548 -3.0599,-0.44391 -0.77889,3.20664 -3.70416,3.53647 4.06718,1.93816 -2.44661,3.82606 0.99855,5.40247 -0.31836,5.52115 7.50424,4.85364 10.85539,3.02569 1.97599,1.45088 4.70302,2.10828 7.07467,1.35566 z m -3.45049,-0.60626 c -2.92311,-2.0295 -5.02791,-2.02689 -7.97757,-0.2633 -2.11739,1.69539 -7.6084,-3.24554 -5.22927,-2.88154 3.55476,2.03953 7.98734,-1.45647 11.76241,0.0213 5.69736,0.0201 3.43193,-7.0341 3.93065,-10.04192 3.09691,-1.9412768 2.97967,4.5252 3.75747,6.56813 1.31765,4.21089 -2.10515,7.33312 -6.24369,6.59729 z" /></svg>
