<?xml version="1.0" encoding="UTF-8" standalone="no"?>
<svg
   width="101.27557mm"
   height="105.02293mm"
   viewBox="0 0 101.27557 105.02293"
   version="1.1"
   xml:space="preserve"
   xmlns="http://www.w3.org/2000/svg"
   xmlns:svg="http://www.w3.org/2000/svg"><path
     style="fill:#000000"
     d="m 82.572503,104.99294 c -2.09811,-0.15031 -2.91937,-1.04934 -3.18106,-3.48226 l -0.15723,-1.46175 H 50.659223 22.08422 l -0.157226,1.46175 c -0.323958,3.01187 -0.937716,3.43304 -5.002774,3.43304 -4.777098,0 -12.9582328,-1.18418 -15.0149608,-2.17334 C 0.66679817,102.17283 -0.00960983,100.84324 1.0316842e-4,99.01762 0.01544317,96.13453 0.68502617,90.2801 1.0699002,89.66396 c 0.204554,-0.32746 0.741498,-0.77077 1.19321,-0.98512 l 0.821294,-0.38973 0.31877,-3.90967 c 0.823427,-10.09923 2.035804,-19.55919 4.010608,-31.29405 1.373589,-8.16226 4.1981888,-21.39229 5.1327728,-24.04118 1.33184,-3.77484 4.269868,-7.42726 7.144462,-8.88167 1.406899,-0.71183 1.544865,-0.87574 2.809554,-3.337827 C 28.267563,5.5975661 40.803175,-1.1277589 53.569633,0.15623613 64.677253,1.2733931 73.978613,7.4662751 78.920713,17.035078 c 1.11419,2.157292 1.36543,2.461962 2.47173,2.997522 1.64668,0.79714 4.50777,3.54316 5.62669,5.40038 1.37462,2.28166 2.2498,5.06686 3.84738,12.24415 3.20681,14.40687 5.58711,30.07162 6.88441,45.30618 0.21685,2.54661 0.39579,4.77345 0.39764,4.94852 0.002,0.17508 0.43473,0.52301 0.96195,0.7732 0.5878,0.27893 1.088447,0.76986 1.294287,1.26918 0.18463,0.44787 0.48613,2.91789 0.67,5.48893 0.26575,3.71573 0.26726,4.83654 0.007,5.46397 -0.73,1.76235 -2.126997,2.36129 -7.545777,3.23511 -3.52677,0.56871 -8.91858,0.97725 -10.96389,0.83072 z m -63.445742,-3.95182 c 0.08409,-0.5457 0.298484,-2.52025 0.476444,-4.38788 0.253187,-2.65711 0.25389,-3.43875 0.0032,-3.59366 -0.176181,-0.10889 -2.36966,-0.39243 -4.874399,-0.63008 -2.504738,-0.23766 -5.9640478,-0.63382 -7.6873538,-0.88034 -2.439968,-0.34905 -3.17739,-0.37687 -3.332613,-0.12571 -0.217458,0.35185 -0.899144,8.49238 -0.725676,8.66585 0.212589,0.21259 5.403288,1.11956 7.9853228,1.39527 4.113734,0.43927 4.386247,0.46135 6.250038,0.50639 l 1.752121,0.0423 z m 68.971002,0.72629 c 3.11261,-0.27795 9.5831,-1.29505 10.04167,-1.57846 0.21963,-0.13574 0.22574,-1.07926 0.0232,-3.57408 -0.15139,-1.86431 -0.27707,-3.69979 -0.2793,-4.07884 -0.008,-1.41352 -0.16888,-1.45687 -3.60342,-0.97283 -1.72667,0.24335 -5.24929,0.6513 -7.82804,0.90655 -2.57875,0.25525 -4.76912,0.54457 -4.86748,0.64293 -0.17098,0.17098 0.31799,6.67588 0.61586,8.19302 0.13586,0.69197 0.21575,0.72717 1.63114,0.7187 0.81855,-0.005 2.73844,-0.12055 4.26641,-0.25699 z M 43.594844,97.21789 c 0.239791,-0.23979 0.318625,-4.2062 0.322094,-16.20573 0.0051,-17.52017 0.04833,-18.0865 1.627916,-21.31218 1.626831,-3.32215 4.225039,-5.46663 21.999059,-18.15735 4.19335,-2.99406 7.55376,-5.52109 7.46758,-5.6156 -0.0862,-0.0945 -2.2029,-2.22423 -4.70382,-4.73271 -2.97615,-2.98513 -4.45737,-4.65064 -4.2873,-4.82071 0.14292,-0.14291 2.75778,-0.44719 5.8108,-0.67617 3.05303,-0.22898 5.6861,-0.46169 5.85126,-0.51712 0.61781,-0.20737 -0.40053,-3.81936 -1.94185,-6.887634 -1.31769,-2.623096 -2.89347,-4.736843 -5.14259,-6.898259 C 62.758353,3.8605011 51.474693,1.4370891 40.96013,5.0290451 33.038354,7.7352601 26.521321,14.143195 24.10707,21.59998 c -0.306246,0.94588 -0.589013,2.13651 -0.628371,2.64583 l -0.07156,0.92604 5.820833,0.48657 c 3.201458,0.2676 5.925338,0.58642 6.053066,0.70848 0.129421,0.12367 -1.856271,2.28256 -4.485295,4.87652 -4.65733,4.59521 -4.710936,4.661 -4.200983,5.1558 0.824704,0.80021 17.683971,12.70166 18.00454,12.70993 0.340217,0.009 4.604713,-8.75217 4.604713,-9.45989 0,-0.26452 -0.10836,-0.59406 -0.24079,-0.7323 -0.40644,-0.42429 -4.416113,-8.5743 -5.460658,-11.09927 -2.266342,-5.47842 -3.283483,-9.495557 -3.29024,-12.99462 -0.0056,-2.906876 0.359103,-4.621784 1.454345,-6.8383819 1.035756,-2.096208 1.701049,-2.692785 2.516353,-2.256448 0.729412,0.390369 0.653726,1.177655 -0.270677,2.815608 -0.986325,1.7476719 -1.03251,2.3255049 -0.168542,2.1086629 3.006038,-0.7544679 8.332039,-0.8917049 11.931579,-0.307445 1.30368,0.211607 2.43277,0.322298 2.50909,0.245979 0.0763,-0.07632 -0.31129,-0.9617019 -0.86135,-1.9675189 -0.83415,-1.525285 -0.9512,-1.920152 -0.70536,-2.379509 0.20717,-0.387098 0.50248,-0.526386 0.99382,-0.46875 0.88012,0.103243 1.89062,1.545543 2.73686,3.906366 0.53433,1.4906609 0.61688,2.1925429 0.59265,5.0391789 -0.0538,6.323718 -0.78111,8.243898 -11.67521,30.823958 -3.787926,7.85119 -5.492333,11.82694 -6.595659,15.38521 l -0.726153,2.34187 -0.0888,16.79391 c -0.0832,15.73506 -0.05967,16.81521 0.37325,17.13177 0.577097,0.42198 0.959015,0.42767 1.366329,0.0204 z m 13.017499,-6.01195 c 1.51569,-1.06555 1.66584,-3.04729 0.32743,-4.32171 -1.18167,-1.1252 -2.83419,-1.08887 -4.01124,0.0882 -1.63092,1.63091 -0.84535,4.05285 1.56714,4.83156 0.54619,0.1763 1.33039,-0.0453 2.11667,-0.59803 z M 26.074899,86.93386 c 0.204372,-0.16962 0.748508,-0.97905 1.209191,-1.79874 0.460684,-0.8197 2.381322,-4.14702 4.268087,-7.39406 1.927189,-3.31661 3.43048,-6.19577 3.43048,-6.57018 0,-1.99651 -2.520771,-3.26838 -3.98777,-2.01205 -0.720066,0.61666 -9.045573,15.2232 -9.033583,15.84882 0.01408,0.73486 0.631464,1.70852 1.342664,2.11749 0.694212,0.39921 2.183292,0.29642 2.770931,-0.19128 z m 52.431714,-0.3845 c 0.8886,-1.02269 0.77243,-2.20572 -0.4082,-4.1567 -0.55193,-0.91207 -2.4778,-4.23831 -4.2797,-7.39165 -3.26316,-5.71055 -3.74048,-6.3052 -5.06113,-6.3052 -1.50818,0 -2.93165,1.78861 -2.44205,3.06847 0.50359,1.3164 8.05652,14.10512 8.7939,14.88994 0.74288,0.79066 0.9511,0.87491 1.82035,0.73653 0.58619,-0.0933 1.22129,-0.4322 1.57683,-0.84139 z M 56.374783,74.17604 c 1.13659,-0.76512 1.65956,-1.82642 1.45011,-2.94285 -0.17512,-0.93347 -1.25773,-2.10706 -2.20889,-2.39451 -0.84308,-0.25479 -2.33709,0.30018 -2.96827,1.10259 -1.12094,1.42504 -0.32601,4.05081 1.37485,4.54133 1.27446,0.36756 1.3691,0.35522 2.3522,-0.30656 z" /></svg>
