<?xml version="1.0" encoding="UTF-8" standalone="no"?>
<svg
   width="75.239395mm"
   height="93.135155mm"
   viewBox="0 0 75.239395 93.135155"
   version="1.1"
   xml:space="preserve"
   xmlns="http://www.w3.org/2000/svg"
   xmlns:svg="http://www.w3.org/2000/svg"><path
     style="fill:#000000"
     d="m 32.034284,93.024088 c -8.704986,-0.38769 -19.250786,-1.2547 -20.35146,-1.67317 -0.344358,-0.13093 -1.859278,-0.21836 -3.366488,-0.19431 -2.888582,0.0461 -4.211695,-0.34704 -5.289241,-1.57163 -2.15002497,-2.44344 -3.47944797,-9.99146 -2.88495397,-16.3798 0.416854,-4.47944 1.07930497,-5.91528 3.24046097,-7.02358 1.111007,-0.56976 2.592799,-0.6596 3.066478,-0.18592 0.45432,0.45432 0.395039,1.20043 -0.238277,2.99896 -1.056005,2.99891 -0.971629,10.58877 0.18019,16.20858 0.560189,2.7332 0.894551,3.38041 1.699019,3.28872 0.811125,-0.0925 1.105936,-0.54367 0.903296,-1.38251 -1.091761,-4.51944 -1.609797,-11.06888 -1.198638,-15.15417 0.153856,-1.52872 0.425658,-3.09974 0.604005,-3.49117 0.617867,-1.35607 3.121908,-2.12009 4.825583,-1.47235 0.988341,0.37576 1.125542,1.3754 0.469896,3.42362 -0.94699,2.95837 -1.188648,5.35443 -1.016585,10.07948 0.164807,4.52583 0.661989,7.42521 1.416164,8.25856 0.459635,0.5079 1.276558,0.62853 1.525762,0.2253 0.08409,-0.13606 -0.04862,-1.71364 -0.294925,-3.50572 -0.294406,-2.1421 -0.454737,-5.16181 -0.46801,-8.81459 -0.02322,-6.39149 0.234643,-7.61181 1.814835,-8.58842 1.292897,-0.79905 3.152302,-0.73581 4.025014,0.1369 0.755532,0.75553 0.752966,0.9637 -0.05363,4.35047 -0.991391,4.1627 -0.431851,15.56312 0.832414,16.96012 0.553905,0.61206 1.247205,0.64574 1.714012,0.0833 0.289567,-0.34891 0.244209,-1.04696 -0.270775,-4.16719 -0.725056,-4.39302 -1.015735,-11.38801 -0.573558,-13.80224 0.233507,-1.27491 0.472923,-1.75682 1.215891,-2.44739 0.813474,-0.75612 1.102686,-0.8599 2.396251,-0.8599 1.20915,0 1.58676,0.11565 2.12055,0.64943 0.77305,0.77306 0.77543,0.80822 0.1946,2.88425 -0.86615,3.09585 -0.4834,15.74668 0.54148,17.89757 0.36853,0.77341 1.27228,0.99109 1.74582,0.42051 0.26422,-0.31836 0.26589,-1.29466 0.008,-4.84141 -0.17746,-2.44345 -0.33188,-6.52623 -0.34317,-9.07285 -0.0174,-3.93623 0.0492,-4.76084 0.44441,-5.5018 0.98191,-1.84081 3.43851,-2.48747 4.84704,-1.27591 0.68933,0.59294 0.72579,0.73129 0.61006,2.31511 -0.18999,2.60027 -0.11617,17.20554 0.091,18.00486 0.33061,1.27556 1.87635,1.26757 2.23559,-0.0115 0.21885,-0.77923 0.27078,-15.38023 0.0639,-17.95494 -0.11718,-1.45813 -0.0635,-1.71495 0.47037,-2.24896 0.47979,-0.47994 0.89664,-0.60285 2.04451,-0.60285 1.20506,0 1.5564,0.11455 2.13934,0.69749 0.405,0.405 0.79102,1.18168 0.92053,1.85208 0.31718,1.64194 0.29682,7.74758 -0.0447,13.39818 -0.22835,3.77834 -0.22143,4.92056 0.0317,5.22552 0.47383,0.57094 1.24969,0.47669 1.68784,-0.20504 1.02013,-1.58727 1.46703,-14.5567 0.61687,-17.90203 -0.46115,-1.81459 -0.33689,-2.43238 0.58889,-2.92785 0.80576,-0.43122 1.91257,-0.309 3.05404,0.33725 2.41165,1.36538 2.61227,3.77757 1.53705,18.48125 -0.13536,1.85119 -0.10172,2.04827 0.3951,2.31415 0.69067,0.36964 1.22876,0.16282 1.57958,-0.60716 1.03796,-2.27808 1.37129,-13.32171 0.51873,-17.18641 -0.586,-2.6564 -0.58275,-2.71586 0.19085,-3.48946 1.31386,-1.31386 4.11252,-0.58031 5.01118,1.31347 1.05189,2.2167 1.06815,9.90966 0.0342,16.16106 -0.50836,3.07349 -0.51056,3.04271 0.21735,3.04271 1.7242,0 2.55594,-3.01122 2.74057,-9.92188 0.11985,-4.48577 0.0743,-5.27862 -0.42273,-7.36308 -0.30637,-1.28479 -0.55704,-2.60579 -0.55704,-2.93555 0,-0.92524 0.80705,-1.47533 2.16452,-1.47533 1.66009,0 2.85679,0.847 3.36915,2.38461 0.58905,1.76773 0.5297,10.40251 -0.0945,13.75498 -0.83126,4.46424 -0.8312,4.44904 -0.0195,4.65277 1.00217,0.25153 1.33616,-0.20418 1.95563,-2.6684 1.29907,-5.16756 1.46291,-13.01544 0.33643,-16.11486 -0.70877,-1.95011 -0.70994,-2.39632 -0.008,-3.09814 0.46368,-0.46369 0.78527,-0.53822 1.87179,-0.43382 3.51309,0.33756 4.60245,3.064 4.36135,10.91557 -0.15469,5.03773 -0.67868,7.75082 -2.05318,10.63082 -1.27322,2.66778 -3.41944,3.66591 -7.15434,3.32725 -0.84613,-0.0767 -1.89199,-10e-4 -2.38941,0.17287 -0.48655,0.17012 -3.38494,0.53864 -6.44088,0.81892 -9.52933,0.87399 -18.39659,1.1868 -25.13542,0.88668 z m -0.62036,-25.23459 c -1.34875,-1.12385 -4.32068,-1.32536 -6.085673,-0.41265 -0.708136,0.36619 -0.814849,0.36359 -1.138704,-0.0278 -0.538375,-0.65061 -2.353093,-1.39394 -3.419064,-1.4005 -0.51978,-0.003 -1.501531,0.1838 -2.181669,0.41555 -1.2226,0.41658 -1.245716,0.4137 -2.039724,-0.25442 -1.41677,-1.19213 -3.519409,-1.52771 -5.19237,-0.82871 -0.928449,0.38793 -0.96923,0.3789 -1.873083,-0.41469 -0.828257,-0.72722 -1.078508,-0.80404 -2.415826,-0.74157 l -1.491856,0.0697 -0.08178,-2.49927 c -0.177765,-5.43283 0.793634,-12.21208 2.411263,-16.82783 3.356261,-9.57679 10.92804,-17.99273 19.470296,-21.64099 l 1.95602,-0.83538 7.6e-4,-1.30899 7.5e-4,-1.30899 -3.54428,-0.14593 c -1.949356,-0.0803 -3.841939,-0.27496 -4.205741,-0.43266 -1.100309,-0.47695 -1.707765,-1.35344 -1.707765,-2.46412 0,-1.18446 0.628797,-2.01197 1.709129,-2.24925 0.876624,-0.19254 3.713063,0.70581 6.593307,2.08821 1.47052,0.70579 2.05189,0.87029 2.31219,0.65426 0.4803,-0.39861 0.25075,-0.66691 -1.19928,-1.40169 -1.82492,-0.92476 -5.410618,-3.65295 -6.253455,-4.75797 -1.082407,-1.4191098 -1.054216,-2.8745198 0.07522,-3.8836698 1.743173,-1.557529 2.683155,-0.98096 6.267605,3.8443798 2.53405,3.41131 3.58012,4.45881 3.58012,3.585 0,-0.14776 -0.71845,-1.70188 -1.59656,-3.4536 -2.65234,-5.2910748 -2.89933,-7.5475898 -0.95585,-8.7326528 0.99645,-0.607595 1.79123,-0.643247 2.79287,-0.125281 1.03185,0.53359 1.2879,1.35906 1.62717,5.245814 0.46985,5.3826698 0.56936,5.8791598 1.17835,5.8791598 0.49847,0 0.53453,-0.24146 0.69131,-4.6302098 0.22514,-6.302019 0.84689,-8.08406098 3.03337,-8.69413898 1.65973,-0.463102 3.54809,0.771115 3.54809,2.31899698 0,1.199591 -0.97992,4.257302 -2.50419,7.8139618 -1.10243,2.57237 -1.38455,3.47558 -1.13508,3.63397 0.18259,0.11593 0.39262,0.2126 0.46674,0.21483 0.0741,0.002 0.83671,-1.27587 1.69464,-2.84022 2.25703,-4.1154398 3.80071,-6.3723368 4.66383,-6.8186778 2.64898,-1.369841 5.16329,0.990573 3.82071,3.586848 -0.22094,0.42723 -2.03664,2.1556698 -4.0349,3.8409698 -1.99826,1.68531 -3.67287,3.17524 -3.72135,3.31098 -0.0485,0.13573 0.10053,0.31919 0.33114,0.40769 0.26199,0.10053 1.48619,-0.53243 3.26315,-1.6872 5.05254,-3.2834 6.71677,-3.84849 7.95014,-2.69943 1.20027,1.11822 1.00388,2.6559 -0.47608,3.7275 -0.3638,0.26342 -2.5496,1.04303 -4.85733,1.73248 -2.31585,0.69186 -4.25804,1.41552 -4.33461,1.61506 -0.31337,0.81661 0.39733,0.86231 3.12679,0.20105 3.5755,-0.86623 5.004,-0.87346 5.98425,-0.0303 0.61643,0.53022 0.74236,0.8483 0.74236,1.87499 0,1.04043 -0.12346,1.34264 -0.77879,1.90633 -0.76068,0.65431 -0.8468,0.66615 -3.70416,0.50967 -1.60896,-0.0881 -3.38671,-0.23604 -3.95055,-0.32872 -1.91362,-0.31453 -0.91602,0.46773 1.69992,1.33297 7.60019,2.51385 13.63631,8.06773 17.74618,16.32839 3.25905,6.55054 4.46599,12.02928 4.46491,20.26784 l -6.1e-4,4.6981 h -1.97911 c -1.86596,0 -2.02658,0.0475 -2.80953,0.83086 l -0.83042,0.83085 -1.19505,-0.52863 c -1.73145,-0.7659 -4.2681,-0.58421 -5.28476,0.37853 l -0.73219,0.69336 -1.5875,-0.41645 c -1.9711,-0.51707 -3.68502,-0.30094 -5.07073,0.63943 l -1.00313,0.68074 -1.23855,-0.69622 c -2.24306,-1.26088 -4.59224,-1.17285 -6.41571,0.24042 l -0.76354,0.59178 -1.27837,-0.66324 c -1.84542,-0.95744 -4.18229,-0.95132 -5.91209,0.0155 -1.5005,0.83864 -1.43259,0.83327 -2.22158,0.17586 z" /></svg>
