<?xml version="1.0" encoding="UTF-8" standalone="no"?>
<svg
   width="99.626297mm"
   height="95.610794mm"
   viewBox="0 0 99.626297 95.610794"
   version="1.1"
   xml:space="preserve"
   xmlns="http://www.w3.org/2000/svg"
   xmlns:svg="http://www.w3.org/2000/svg"><path
     style="fill:#000000"
     d="m 47.923735,95.445487 c -6.960923,-0.56349 -14.068778,-0.36985 -20.833553,-2.45293 -6.138328,0.0122 -1.534507,-7.01844 -5.172738,-9.71924 -0.667393,-4.71928 1.288434,-9.39234 0.996901,-14.1553 0.12449,-2.99282 0.991358,-8.03664 0.513258,-10.10933 -0.954566,3.64138 -3.608552,5.81038 -3.616475,9.44879 -0.578447,5.89661 -2.854348,11.44929 -3.354343,17.34355 -2.42545,2.0305 -2.335467,5.06091 -3.492977,7.92152 -3.9784245,-0.58619 -11.8197805,0.34111 -12.81204253,-3.99819 0.527056,-3.96395 -1.35391497,-7.56882 1.35268703,-11.24489 -0.53410303,-5.33912 2.477279,-9.87119 2.046637,-15.29348 0.484364,-4.03663 -0.467417,-7.85773 2.736108,-11.07907 1.450799,-8.69755 5.7176105,-16.54442 8.4857015,-24.84498 1.639276,-4.43266 4.634969,-8.49473 9.174415,-10.18687 3.768085,-1.50812 2.377557,-7.8851504 7.383542,-8.7992304 4.44137,-2.08754 6.793594,-7.74445403 12.216336,-7.76586903 5.514343,-0.563182 11.584433,-1.214 16.677223,1.38562503 3.32303,3.743654 7.86866,6.010404 11.48544,9.2906344 -0.27144,6.68582 7.71858,5.93801 10.10593,11.2313 3.55866,5.91752 4.9812,12.80248 7.90727,19.02371 2.36431,4.16917 1.45962,9.67666 5.05208,13.13559 1.42482,4.15556 0.9905,9.0491 1.8703,13.5868 0.0871,2.46033 2.65413,3.96905 1.67771,6.56034 -0.2061,1.87504 -0.39984,3.74774 0.79016,5.35749 1.339665,3.36479 -0.4575,6.91253 0.30405,10.51292 -3.87735,0.68084 -10.48187,4.47194 -13.08696,0.86363 -0.56614,-4.55014 -3.86138,-7.41279 -3.61372,-12.41399 -1.44234,-4.54437 -2.25702,-9.26401 -2.67015,-14.00474 -2.7572,-0.46057 -2.24175,-7.25241 -3.71258,-6.38761 0.46121,5.76835 0.8096,11.55709 1.37927,17.30983 1.21195,3.56944 0.49928,7.43355 -1.51364,10.18076 0.50763,3.2512 0.64473,6.98285 -3.86871,6.83065 -7.82849,2.04863 -16.00059,2.54284 -24.05854,2.63789 l -0.34902,-0.16536 z m -0.62037,-1.95534 c -0.18895,-3.8186 -0.6934,-7.71877 -0.73843,-11.01122 -0.67023,-3.85564 -0.45659,-6.99604 -0.97838,-11.08093 -0.21264,-3.40382 -0.719371,-7.63738 -0.765438,-10.5711 -0.836018,-2.85916 -1.593524,1.60661 -0.928795,2.62899 -0.200806,2.10522 -0.246229,4.15526 0.570418,7.79767 -0.432867,1.48866 0.310863,6.76 0.463433,9.78216 0.631002,2.96639 0.402752,7.13208 0.898662,10.9195 -0.0817,0.72739 1.64029,4.28584 1.47853,1.53493 z M 9.0299865,84.978997 c 0.432377,-2.49979 -8.52979703,-0.18631 -6.738732,-3.22858 1.258669,-2.17079 7.439606,-4.68233 1.447065,-3.42651 -1.306078,-1.98792 -1.135439,-5.14582 2.035657,-5.49494 2.747257,-0.44203 9.1601415,-4.23855 3.511166,-2.31121 -4.799345,1.73269 5.0257505,-3.66759 -0.351379,-0.94052 -2.633188,1.17699 -4.997997,3.66143 -3.835706,-1.00617 -0.612224,-2.67222 3.277253,-6.16605 3.241627,-7.08234 -2.474263,1.22445 -3.597624,4.18668 -2.485027,-0.27777 -1.719449,-5.12139 2.470538,-8.32791 7.1141865,-8.75453 -1.767888,-0.64966 -5.5384605,1.38992 -4.2509645,-1.88682 -1.592237,-3.56266 8.7446275,-5.82249 2.2860225,-4.59318 -2.7766895,0.49135 1.382876,-6.75908 2.76239,-8.26735 -0.205275,-2.87629 2.149802,-8.43846 4.069407,-12.23109 1.251652,-1.82472 3.167621,-6.73832 3.799839,-2.16703 0.81275,-3.31598 -1.518442,-4.37099 -3.100961,-1.21392 -4.185455,6.05413 -5.431,13.54318 -8.5824675,20.1214 -2.285423,4.37891 -1.554672,9.83738 -4.914788,13.65081 -0.449306,4.48459 -0.611569,9.28781 -1.112431,13.97557 -2.134833,4.3823 -0.977089,9.48819 -3.51638003,13.80274 2.45783903,1.13526 5.85144703,1.22636 8.62147603,1.33144 z m 85.9242085,-1.07842 c 5.203855,0.45307 3.68773,-3.25714 2.36361,-6.38084 1.08434,-4.87937 -2.26817,-8.59368 -1.99328,-13.46968 -1.09832,-2.81395 0.17639,-6.29724 -1.07934,-8.83268 -3.32109,-2.82525 -2.99331,-7.38356 -4.51714,-11.15151 -2.38813,-6.14646 -4.73735,-12.31153 -7.07765,-18.47539 -0.85015,-1.4121 -4.64928,-8.29488 -5.34711,-5.58066 -0.23389,1.45584 -0.38533,7.15444 0.0793,2.96817 0.89086,-4.9293 4.00683,3.11801 4.97598,5.03863 1.12854,2.99577 4.01762,7.68261 2.03414,9.59943 2.41836,0.50872 5.32374,7.00107 3.36113,6.90746 -6.1668,-1.41075 3.57246,1.36902 2.30001,4.49591 1.09258,3.00879 -0.64732,3.27705 -3.24391,2.75139 -3.42219,0.45411 3.95331,0.7899 4.74586,2.32897 3.04248,1.25583 2.29976,7.21729 1.80279,8.49782 -1.59505,-1.60909 -4.59107,-3.28405 -1.54871,-0.3817 3.1965,2.40239 5.34254,11.22214 -1.12128,7.79541 -2.55047,-0.90391 -4.51297,-0.6209 -1.00345,0.61893 3.3141,0.74384 9.97822,2.6803 5.88328,6.78247 -1.52007,-0.98116 -4.10432,0.23164 -0.51138,1.1584 3.65316,1.83705 2.51382,4.65467 -1.26838,4.48675 -2.61257,-0.10136 -5.30446,1.52455 -1.00505,1.11912 0.72505,-0.0767 1.45028,-0.17416 2.1706,-0.2764 z m -22.29765,-7.53291 c -1.32361,-2.8245 -9.6741,-14.31654 -9.23225,-10.86175 1.63518,2.84951 4.46957,6.6164 6.26662,9.47069 0.46364,0.33815 2.23154,2.21954 2.96563,1.39106 z m -2.7533,-8.20444 c -1.89327,-2.32734 -3.90561,-5.0619 -6.27282,-6.45078 -3.3415,0.57697 -3.23302,4.44501 -0.88221,4.93052 -0.70799,-2.06905 -1.28746,-2.67616 1.16944,-3.5997 1.35155,1.07169 3.48437,4.52859 5.67235,6.39551 0.99325,1.34303 0.70927,-0.84588 0.31324,-1.27555 z m -36.52149,1.06301 c 0.813392,-1.46654 3.72888,-6.86218 0.432542,-5.75892 -1.057052,2.21916 -4.957049,10.00359 -5.053685,11.64643 0.527536,0.64429 4.384524,-5.49188 4.621143,-5.88751 z m 2.533984,-2.72322 c 3.828824,-2.2239 -1.116516,-7.01117 -2.561477,-3.81847 4.220439,-0.0368 2.28527,4.19651 2.561477,3.81847 z m 9.049586,-8.9241 c 0.35898,-6.38815 -4.15227,-0.14867 -0.755657,1.26294 0.602209,0.0496 0.949487,-0.75954 0.755657,-1.26294 z m 0.05454,-3.85964 c 1.09464,-3.65411 -4.170191,-0.63874 -0.926041,0.67868 0.526215,-0.0679 0.644989,-0.26603 0.926041,-0.67868 z m -1.38097,-4.25722 c -1.158943,-1.58403 -0.437233,-3.56889 -1.924983,-5.1654 -1.320779,-3.07747 0.180602,5.25997 1.065297,5.95438 -0.0546,1.58955 1.878107,0.53668 0.859686,-0.78898 z m 4.19296,-1.98244 c 6.91098,-4.28405 14.37185,-7.59491 21.37817,-11.70071 0.40241,-3.90674 -6.28573,-6.92919 -8.20742,-10.81497 -1.51207,-2.27354 -3.32015,-7.42516 -4.4937,-1.99557 -2.66521,7.2246 -5.49792,14.37765 -9.08821,21.20214 -0.7202,2.30322 -4.831298,7.70364 0.41116,3.30911 z m 0.2643,-6.63783 c 0.58144,-1.53393 2.22116,-3.0646 0.79381,-4.60471 -2.77205,-5.32355 -4.159862,-11.29992 -7.516763,-16.32581 -2.218847,4.94501 -5.722952,9.0839 -9.513453,12.90473 -4.400376,2.83975 1.304427,4.35585 3.675932,5.71666 3.540793,1.59499 7.968302,4.45391 11.041374,5.14506 0.58052,-0.90322 1.04055,-1.87701 1.5191,-2.83593 z m 27.75486,-16.78916 c 1.27695,-2.10731 -0.23468,-8.19499 -1.98453,-5.83505 2.77244,0.86692 1.04723,3.94648 1.37723,6.05133 -0.19113,2.27522 -0.34114,9.99572 0.25221,3.58841 0.12621,-1.26748 0.24199,-2.53598 0.35509,-3.80469 z m -51.58327,5.01148 c -0.08227,-3.72438 -2.208086,-8.84473 1.23893,-11.13971 -2.069954,-0.45428 -3.989058,1.28006 -2.789339,3.45613 0.499687,2.55002 0.943406,7.27984 1.64002,8.57117 l -0.08962,-0.88759 z m 4.908093,-2.44408 c 3.696616,-1.47883 9.178831,-0.15622 10.309104,-5.19209 3.137412,-4.20122 -0.545137,-9.63046 2.32736,-13.9113204 2.933753,-4.391548 -2.746905,6.1692204 1.840969,3.3778804 4.234664,-1.6336504 11.332924,0.95576 13.857664,-0.58768 -0.76164,-1.8846504 -1.55867,-5.8387704 0.21589,-1.9687804 2.48616,4.3879504 -1.17928,9.9209504 2.63379,13.8766304 1.88528,4.63229 7.70887,2.90415 11.46534,4.79357 5.12987,-1.1464 -0.0411,-8.65131 -0.0221,-12.32571 -0.34655,-5.4170804 -6.86004,-5.8556504 -9.57637,-9.7049104 -3.61978,-4.62986603 -10.04315,-4.06985303 -15.28176,-3.92306 -5.479977,-0.67811803 -9.270101,3.00644 -12.814222,6.517 -4.766156,1.93514 -7.499893,5.8390904 -7.835309,10.9509404 -0.955922,3.02935 -3.646523,11.30332 2.879684,8.09753 z" /></svg>
