<?xml version="1.0" encoding="UTF-8" standalone="no"?>
<!-- Created with Inkscape (http://www.inkscape.org/) -->

<svg
   width="108.17999mm"
   height="173.10004mm"
   viewBox="0 0 108.17999 173.10004"
   version="1.1"
   id="svg1"
   xml:space="preserve"
   xmlns="http://www.w3.org/2000/svg"
   xmlns:svg="http://www.w3.org/2000/svg"><defs
     id="defs1" /><g
     id="layer1"
     transform="translate(-53.8015,-52.30691)"><path
       style="display:inline;fill:#000000"
       d="m 128.74849,222.93211 c -12.63921,-4.42264 -44.704875,-15.42027 -46.873928,-16.07646 -2.627175,-0.79477 -3.045834,-1.11223 -3.678573,-2.78938 -0.506881,-1.34354 -0.572596,-1.39789 -2.501597,-2.06912 -1.089576,-0.37913 -5.248658,-1.66822 -9.242408,-2.86463 -3.99375,-1.19642 -7.310396,-2.26023 -7.370321,-2.36402 -0.05992,-0.10378 0.231067,-0.83348 0.646647,-1.62153 0.415575,-0.78805 0.828827,-1.59626 0.91833,-1.79602 0.224931,-0.50203 -0.698689,0.4841 -1.02347,1.09267 -0.192228,0.36024 -0.247281,0.38488 -0.21609,0.0967 0.03625,-0.33496 1.172781,-1.99488 1.492118,-2.17925 0.06228,-0.036 0.09162,0.11084 0.06519,0.32623 -0.02642,0.21538 0.303713,-0.13909 0.733628,-0.78773 0.429915,-0.64864 0.95207,-1.42317 1.16034,-1.72119 0.208269,-0.29803 0.726412,-2.3034 1.151428,-4.45638 0.425017,-2.15298 0.889745,-4.50022 1.032729,-5.21608 l 0.259975,-1.30155 -4.282565,-7.48808 c -2.355415,-4.11844 -4.449226,-7.56724 -4.65292,-7.66402 -1.375741,-0.6536 8.097959,2.27842 14.694201,4.5477 2.343135,0.8061 4.197016,1.35612 4.119726,1.22225 -0.28868,-0.50001 0.503945,-2.49545 1.136249,-2.86051 0.868773,-0.50159 1.903796,-0.22903 10.775454,2.83751 4.159714,1.43782 9.982786,3.4513 12.940167,4.4744 2.95737,1.02309 5.50417,1.78677 5.65955,1.69706 0.15538,-0.0897 0.50673,-0.73197 0.78078,-1.42726 0.5474,-1.38878 1.00819,-1.19331 0.6642,0.28177 -0.23461,1.00605 0.043,1.38151 2.6154,3.53671 1.89527,1.58791 2.85817,2.13185 2.42952,1.37241 -0.13712,-0.2429 -0.12741,-0.42156 0.0216,-0.397 0.14894,0.0245 0.38064,-0.18304 0.51489,-0.46124 0.13423,-0.27825 0.47471,-0.68058 0.75662,-0.89407 0.28194,-0.21346 0.71482,-0.66907 0.96199,-1.01242 0.24718,-0.34335 0.74835,-0.75963 1.11372,-0.92506 0.36537,-0.16544 0.60393,-0.40537 0.53015,-0.53316 -0.0738,-0.12781 0.13727,-0.3367 0.46903,-0.46419 0.33178,-0.12747 0.62023,-0.37068 0.64105,-0.54041 0.0208,-0.16973 0.25194,-0.43219 0.51358,-0.58325 0.26165,-0.15106 1.2912,-1.07864 2.2879,-2.06131 0.99671,-0.98265 2.32193,-2.16715 2.94494,-2.63224 l 1.13276,-0.8456 2.07612,0.87902 c 2.13765,0.90506 6.91333,2.06301 5.70191,1.38253 -0.36879,-0.20716 -0.69571,-0.43086 -0.72649,-0.49711 -0.0308,-0.0663 -0.85292,-0.41653 -1.82697,-0.77842 -4.53028,-1.68308 -13.56523,-7.52306 -16.29813,-10.53471 -0.6802,-0.74957 -0.67813,-0.76161 0.18229,-1.0578 0.47866,-0.16481 1.41007,-0.44122 2.06976,-0.6143 l 1.19944,-0.3147 -0.42705,-1.16452 c -0.23488,-0.64049 -1.29482,-4.03183 -2.35541,-7.5363 l -1.92835,-6.37178 1.77454,-7.89861 c 0.976,-4.34422 2.99087,-13.34396 4.4775,-19.99941 1.48663,-6.65545 3.52025,-15.665999 4.51914,-20.023457 0.99889,-4.357452 2.38131,-10.499431 3.07204,-13.648849 0.69073,-3.149404 1.93722,-8.612182 2.76998,-12.139494 0.83276,-3.527307 1.68004,-7.219729 1.88285,-8.205375 0.49203,-2.39124 1.29726,-4.108759 2.40997,-5.140337 2.83988,-2.632835 6.49635,-3.096859 11.54929,-1.465694 8.18501,2.642259 16.14078,9.806447 17.45036,15.71409 0.58281,2.629083 0.40766,6.293846 -0.48876,10.226385 -0.46097,2.022247 -2.62103,11.442764 -4.80012,20.934491 -2.17909,9.49171 -4.32195,18.8403 -4.7619,20.77463 -3.49873,15.38313 -4.54638,20.04309 -5.06259,22.51856 -0.32612,1.56389 -1.14054,5.26812 -1.80982,8.23161 -0.66928,2.9635 -1.2278,5.67611 -1.24115,6.02803 -0.026,0.68686 -1.29475,1.70559 -7.55937,6.07003 l -2.92287,2.0363 1.68591,2.35922 c 1.40569,1.96708 1.65459,2.4639 1.49751,2.98904 -0.10362,0.3464 -0.25655,2.3645 -0.33984,4.48466 -0.0833,2.12018 -0.4612,5.20517 -0.83979,6.85556 -0.37859,1.65038 -0.72967,3.213 -0.78017,3.47249 -0.0656,0.33724 0.1147,0.47525 0.6323,0.48389 0.70746,0.0118 0.83429,0.22154 5.51561,9.12074 l 4.7915,9.10864 0.0197,1.92938 c 0.0343,3.36279 -1.56796,8.28903 -4.01913,12.35678 -1.0504,1.74315 -4.32811,6.2587 -4.6844,6.4535 -0.14301,0.0779 -3.6202,-1.03381 -7.72734,-2.47095 z m -17.62877,-61.1748 c -0.0262,-0.0453 0.1628,-0.60742 0.41992,-1.24912 0.25712,-0.64169 0.48046,-0.96821 0.49632,-0.7256 0.0259,0.39571 -0.80011,2.17587 -0.91624,1.97472 z m -52.547616,28.96804 -1.208938,0.16381 -0.839523,-1.6539 c -2.510207,-4.94522 -3.176611,-8.59448 -2.439064,-13.35642 0.577639,-3.72949 1.334973,-6.73336 1.683371,-6.67684 0.149922,0.0243 1.169099,1.40603 2.264805,3.07047 1.0957,1.66443 2.542665,3.767 3.215475,4.67237 l 1.223289,1.64612 -0.490629,3.55791 c -0.269848,1.95684 -0.846818,4.48168 -1.282157,5.61074 -0.43534,1.12907 -0.725549,2.16713 -0.644909,2.3068 0.20039,0.34709 -0.07107,0.46781 -1.48172,0.65894 z"
       id="path1" /></g></svg>
