<?xml version="1.0" encoding="UTF-8" standalone="no"?>
<!-- Created with Inkscape (http://www.inkscape.org/) -->

<svg
   width="83.791412mm"
   height="86.185799mm"
   viewBox="0 0 83.791412 86.185799"
   version="1.1"
   id="svg1"
   xml:space="preserve"
   xmlns="http://www.w3.org/2000/svg"
   xmlns:svg="http://www.w3.org/2000/svg"><g
     id="layer1"
     transform="translate(-64.972131,-108.5925)"><g
       transform="matrix(1.5848804,0,0,1.5848804,65.002612,108.5925)"
       id="g6"><path
         d="m 50.55,19.1 -0.35,-0.7 -2.6,-0.55 -3.25,3.05 -1.85,2.7 5.25,1 1.6,-1.95 1.2,-3.55 M 31.1,1.05 l 0.3,0.1 15.9,11.65 0.1,0.7 v 0.05 l 4.5,3.5 0.95,1.9 -1.6,4.7 -2.6,3.15 -7,-1.35 -3.7,-2.7 -2.55,-0.65 -0.35,-0.05 -1.9,-1.45 -3.45,4.2 -0.65,0.1 -0.15,0.05 v 3.55 l -0.3,0.4 v 0.05 L 13.2,52.6 13.05,52.7 Q 12.4,53.4 11.15,53.9 9.6,54.5 7.9,54.35 5.75,54.1 3.65,52.7 q -3.2,-2.15 -3.6,-4.85 -0.3,-2 0.7,-3.15 L 15.9,21.15 16.15,20.7 19.75,19.1 Q 19.6,18.5 19.8,18.05 L 19.85,17.9 22.45,12.3 18.7,9.45 21.45,4.6 27,0 31.1,1.05 M 49.75,18 45.5,14.7 l -2.75,-0.65 -3.3,2.7 -2.05,3.1 4.85,3.65 1.9,-2.8 3.35,-3.15 2.25,0.45 M 45.4,14.4 45.3,14 l -2.8,-0.85 -0.9,-0.1 -4.3,3.35 -1.3,3.85 2.1,0.5 -1.1,-0.8 2.25,-3.4 3.45,-2.8 2.7,0.65 M 44.7,13.5 30.35,3 l -3,-0.75 -4.35,3.6 14.15,10.3 4.4,-3.4 1,0.1 2.15,0.65 m 0.55,7.9 2.65,-2.1 1.8,0.4 -0.8,2.75 -1.2,1.45 -3.4,-0.65 0.95,-1.85 m -20.6,-9.25 -1.5,3.15 q 1.7,0 3.75,1.15 l 2.3,1.2 3,0.75 0.35,-0.4 -7.9,-5.85 M 21.2,8.9 32.9,17.95 h 0.05 L 35.7,20.1 37,16.4 22.8,6.05 21.2,8.9 M 28.45,22.95 32,18.7 29.6,18.15 27.35,17 Q 25.9,16.25 25.25,16 L 23,15.6 l -1.4,3.05 0.25,0.7 q 0.55,0.95 2.1,2.05 2.65,1.85 4.5,1.55 m -1.7,4.95 V 23.2 Q 23.6,22.15 21.95,20.25 L 17.45,22.3 2.25,45.85 2,46.35 q -0.2,0.6 -0.1,1.25 0.3,1.75 2.75,3.45 2.6,1.75 4.9,1.2 Q 10.8,52 11.5,51.3 L 26.75,27.9" /><path
         d="m 45.4,14.4 -2.7,-0.65 -3.45,2.8 -2.25,3.4 1.1,0.8 -2.1,-0.5 1.3,-3.85 4.3,-3.35 0.9,0.1 2.8,0.85 0.1,0.4" /><path
         d="M 26.75,27.9 11.5,51.3 Q 10.8,52 9.55,52.25 7.25,52.8 4.65,51.05 2.2,49.35 1.9,47.6 1.8,46.95 2,46.35 l 0.25,-0.5 15.2,-23.55 4.5,-2.05 q 1.65,1.9 4.8,2.95 v 4.7" /></g></g></svg>
