<svg xmlns="http://www.w3.org/2000/svg" xml:space="preserve" width="316.692" height="325.742" viewBox="0 0 83.791 86.186"><path d="m80.146 30.271-.555-1.11-4.12-.87-5.151 4.833-2.932 4.28 8.32 1.584 2.536-3.09zM49.32 1.664l.476.159 25.2 18.463.158 1.11v.08l7.132 5.546 1.505 3.011-2.535 7.45-4.121 4.992-11.094-2.14-5.864-4.279-4.042-1.03-.554-.08-3.012-2.297-5.468 6.656-1.03.159-.237.079v5.626l-.476.634v.08L20.951 83.364l-.238.158q-1.03 1.11-3.011 1.902-2.457.951-5.151.713-3.407-.396-6.736-2.615Q.744 80.116.11 75.837q-.476-3.17 1.11-4.993L25.23 33.52l.396-.713 5.706-2.536q-.238-.95.08-1.664l.078-.238 4.121-8.875-5.943-4.517 4.358-7.687L42.822 0zm29.558 26.864-6.735-5.23-4.359-1.03-5.23 4.279-3.249 4.913 7.687 5.785 3.011-4.438 5.31-4.992zm-6.894-5.706-.158-.634-4.438-1.347-1.426-.158-6.815 5.309-2.06 6.102 3.327.792-1.743-1.268 3.566-5.388 5.468-4.438zm-1.11-1.426L48.132 4.755l-4.755-1.189-6.894 5.706 22.426 16.324 6.973-5.389 1.585.159zm.871 12.52 4.2-3.328 2.853.634-1.268 4.359-1.902 2.298-5.388-1.03zm-32.648-14.66L36.72 24.25q2.695 0 5.944 1.822l3.645 1.902 4.755 1.189.554-.634zm-5.468-5.15 18.543 14.343h.08l4.358 3.407 2.06-5.864L36.166 9.589zm11.49 22.268 5.627-6.736-3.804-.871-3.566-1.823q-2.298-1.189-3.328-1.585l-3.566-.634-2.22 4.834.397 1.11q.872 1.505 3.328 3.248 4.2 2.932 7.132 2.457m-2.694 7.845V36.77q-4.992-1.664-7.607-4.675l-7.132 3.249-24.09 37.324-.397.792q-.317.951-.158 1.981.475 2.774 4.358 5.468 4.12 2.774 7.766 1.902 1.981-.396 3.09-1.506z"/><path d="m71.984 22.822-4.28-1.03-5.467 4.438-3.566 5.388 1.743 1.268-3.328-.792 2.06-6.102 6.816-5.31 1.426.16 4.438 1.346zM42.426 44.218l-24.17 37.086q-1.109 1.11-3.09 1.506-3.645.872-7.766-1.902-3.883-2.694-4.358-5.468-.159-1.03.158-1.98l.396-.793 24.09-37.324 7.133-3.25q2.615 3.012 7.607 4.676z"/></svg>