<svg xmlns="http://www.w3.org/2000/svg" xml:space="preserve" width="167.138" height="324.012" viewBox="0 0 44.222 85.728"><g transform="translate(-72.192 -118.478)"><path d="M307.609 771.508c-9.83-.401-13.952-1.232-17.374-3.504-5.389-3.577-9.739-9.347-11.566-15.342-1.48-4.854-2.024-35.023-1.803-99.916.154-45.173.435-62.398 1.131-69.397.382-3.832 1.872-7.05 4.633-10 2.38-2.545 4.814-4.159 10.2-6.763 4.645-2.247 6.17-3.559 6.8-5.849.536-1.952-.026-4.374-1.331-5.734-1.422-1.48-2.696-2.057-7.545-3.415-5.504-1.54-7.043-2.35-9.953-5.237-8.364-8.295-5.89-18.756 6.25-26.426l3.336-2.108 62.695-.146c41.636-.097 63.731-.04 65.781.17 5.49.563 8.672 2.112 12.815 6.238 2.111 2.103 2.887 3.143 3.914 5.246 2.807 5.744 2.472 10.048-1.159 14.87-2.793 3.71-6.671 6.11-12.022 7.443-3.609.898-5.714 1.943-7.177 3.564-1.963 2.172-2.263 5.523-.664 7.423.917 1.09 3.697 2.88 7.237 4.657 5.576 2.802 7.862 4.708 11.134 9.288l2.12 2.967v174.105l-1.576 2.855c-2.694 4.88-5.585 8.092-10.196 11.33-2.847 2-4.753 2.684-8.643 3.099-7.031.75-91.628 1.21-107.037.582m53.894-47.804c7.575-.605 13.134-1.766 19.307-4.032 9.211-3.382 14.212-6.658 22.182-14.532 12.138-11.992 17.572-22.32 19.614-37.275.65-4.765.741-17.172.158-21.753-1.848-14.532-7.07-24.809-18.701-36.81-7.113-7.337-11.162-10.262-19.532-14.106-10.44-4.795-16.343-6.013-29.142-6.011-12.227.002-16.54.938-27.188 5.904-8.213 3.83-11.513 6.045-17.147 11.51-12.406 12.036-18.11 22.556-20.287 37.419-.672 4.587-.76 17.434-.155 22.459 1.731 14.367 6.687 24.889 16.89 35.86 11.878 12.774 25.766 19.914 41.781 21.48 2.455.24 8.497.185 12.22-.113" style="fill:#000;fill-opacity:1;stroke-width:.308554" transform="scale(.26458)"/><path d="M276.7 485.613c-1.057-.522-2.225-1.613-2.595-2.425-.972-2.132-1.583-14.486-1.062-21.442.385-5.127.7-6.35 2.233-8.663.981-1.482 2.514-3.027 3.405-3.433 3.814-1.738 15.292-1.988 82.993-1.81l68.857.18 3.036 1.855c4.862 2.97 5.928 5.784 6.296 16.625.401 11.805-.069 15.257-2.446 17.964l-1.867 2.126-78.463-.014c-69.336-.013-78.686-.125-80.386-.963m28.488-14.731c2.052-2.052 2.177-7.416.221-9.515-2.999-3.22-6.803-3.105-9.788.295-1.986 2.262-2.488 5.355-1.245 7.678 1.715 3.205 8.221 4.133 10.812 1.542m36.634.618c4.908-2.539 3.427-11.038-2.168-12.443-3.848-.965-8.991 4.199-8.023 8.056.24.956 1.234 2.536 2.209 3.511 2.026 2.027 5.103 2.364 7.982.876m37.772-1.5c2.86-2.859 3.057-4.746.78-7.452-3.513-4.175-7.494-4.621-10.401-1.167-1.722 2.047-2.127 6.234-.768 7.958 1.437 1.825 3.816 3.057 5.898 3.057 1.611 0 2.649-.553 4.491-2.396m36.284 1.498c1.656-.856 3.758-4.208 3.753-5.983-.005-1.751-2.586-4.957-4.703-5.842-2.986-1.247-5.322-.619-7.679 2.066-1.696 1.932-1.902 2.539-1.607 4.74.654 4.875 5.715 7.357 10.236 5.019M292.57 504.76c-.712-1.208-1.295-2.604-1.295-3.102 0-2.362 1.338-2.41 66.516-2.414 68.315-.004 64.277-.201 64.302 3.14.018 2.575-1.96 3.446-9.068 3.994-3.662.282-31.972.528-62.91.545l-56.25.031z" style="fill:#000;fill-opacity:1;stroke-width:.617108" transform="scale(.26458)"/><rect width="6.939" height="28.247" x="90.863" y="159.501" ry="1.388" style="fill:#000;fill-opacity:1;stroke-width:.295813"/><rect width="6.939" height="27.594" x="-177.025" y="80.615" ry="1.356" style="fill:#000;fill-opacity:1;stroke-width:.292373" transform="rotate(-90)"/></g></svg>