<svg xmlns="http://www.w3.org/2000/svg" xml:space="preserve" width="414.228" height="626.62" viewBox="0 0 109.598 165.793"><path d="M54.618.1c-10.194.365-21.63 1.48-29.012 9.398-2.938-.1-6.008 8.978.109 8.377 16.534-7.48 48.558-2.458 54.665-.29 5.642 2.003 10.424 7.29 13.371 11.99 2.533 4.04 1.067 80.565-.725 89.894-7.683 11.253-21.25 9.791-41.917 9.773-8.197.078-20.366 3.611-33.527-8.422-2.736-1.955-1.59-28.146-2.303-31.018l-1.072-52.28c.129-.262-1.359-14.024 4.16-18.336 2.73-1.681 3.996-10.325-2.715-6.163C6.792 17.833.094 27.331.1 37.62 5.427 41.7 2.016 48.872 2.43 54.674c-.67 13.82-.396 27.698-.95 41.504-1.023 4.413-1.588 8.866-1.224 13.398-.413 14.148 9.042 27.108 21.336 33.405.173 3.96-.33 14.614.133 18.502 2.174 6.212 14.745 4.976 12.186-1.346-1.18-4.388-.585-16.285 3.706-16.195 6.502-1.082 12.098 8.85 9.59 18.216-.088 5.828 14.387 3.712 12.31-1.015-1.713-8.23 5.34-16.364 10.262-17.735 4.4-1.91 7.34-3.19 11.244.039 7.666 2.23 17.1-2.812 17.518-11.233 2.928-3.492 7.6-6.443 8.923-11.404 3.29-8.926 1.47-18.627 1.98-27.922-.06-19.653.134-39.337-.072-58.976-2.544-15.586-16.765-26.11-31.057-30.462C70.672 1.033 62.604.195 54.618.1"/><path d="m102.027 93.906 11.306 14.59q11.307 16.21 11.307 23.936 0 9.345-6.612 15.925-6.61 6.58-16.001 6.58-9.295 0-15.906-6.58t-6.611-15.925q0-7.726 11.306-23.935 5.557-8.013 11.21-14.59m-2.586 10.679.095-.667-.766.19q-3.833 4.483-8.432 12.397-6.037 10.49-6.037 15.734 0 11.73 11.306 17.165 2.301 1.145 4.217-1.048 1.917-2.194.095-3.338-4.215-2.002-6.898-5.245-2.875-3.528-2.875-7.534 0-4.004 2.971-12.682 2.778-8.201 6.324-14.972" style="stroke-width:.352778" transform="translate(-47.045 -51.186)"/></svg>