<svg xmlns="http://www.w3.org/2000/svg" xml:space="preserve" width="414.23" height="598.289" viewBox="0 0 109.598 158.297"><path d="M104.644 63.266c-10.194.366-21.63 1.48-29.012 9.399-2.938-.101-8.875 2.886-2.758 2.285 5.874 2.084 6.883-6.623 12.202-3.466 3.405-2.13 6.145-1.997 8.06-3.407 2.898 2.737 7.249 1.718 10.217-.404 3.421-5.422 7.31 4.326 12.563.733 5.734-6.614 7.634 9.164 14.914 3.6 2.674.026 5.144 7.148 9.2 2.993 2.1 5.508 8.07 8.126 11.809 11.831.364 3.356-.896 6.957-.106 10.152 2.695 4.465 4.732 10.123 1.419 14.798-1.896 3.671-1.965 6.13 2.319 7.876.747 3.672-5.002 5.14-3.023 9.048 1.184 11.119.574 22.354-.982 33.4.388 4.562 4.812 6.007 2.126 10.441 1.302 3.716 3.805 5.224 1.14 8.522 1.592 3.996.245 5.321-3.26 3.36-6.464 1.741-.22 8.744-4.766 11.063-3.934 1.275-7.002 5.99-11.26 2.361-5.03 3.523-10.614-5.101-15.271 1.723-4.704-5.774-11.703-2.4-17.786-1.97-16.618 1.87-34.52-2.48-46.606-14.513-2.736-1.955-.873-6.11-1.586-8.982.361-4.848-3.31-7.758.783-11.573.412-3.307-4.4-5.148-.663-8.208-1.162-3.263 3.562-5.132 2.537-8.65 1.104-2.72-3.484-4.047-.59-6.258 2.248-4.26 1.717-10.434-2.872-12.8 6.028-3.333 2.225-10.16.839-13.35 3.208-3.7 1.529-8.705 1.94-13.118 1.39-2.843-2.671-5.256-1.334-7.282 1.873-4.73 3.531-8.678 8.54-11.234 2.73-1.681 9.012-9.608 2.301-5.446C56.817 81 50.12 90.498 50.125 100.786c5.328 4.081 1.917 11.253 2.33 17.055-.67 13.82-.396 27.698-.951 41.504-1.022 4.413-1.587 8.866-1.223 13.398-.413 14.148 9.042 27.107 21.336 33.404.173 3.96-.142 8.042.32 11.93 2.174 6.212 11.297 2.816 8.738-3.506-1.18-4.388 2.676-7.553 6.967-7.463 6.502-1.082 16.177-.978 13.668 8.388-.087 5.828 7.947 3.12 5.87-1.607-1.713-8.23 7.702-5.944 12.624-7.315 4.4-1.91 7.34-3.19 11.244.039 7.666 2.23 17.1-2.812 17.518-11.233 2.928-3.491 7.6-6.442 8.923-11.403 3.29-8.926 1.47-18.627 1.98-27.922-.06-19.653.134-39.337-.072-58.976-2.544-15.586-16.765-26.11-31.057-30.462-7.642-2.417-15.71-3.255-23.696-3.351Zm1.301 3.514c-3.33 3.263-8.631 5.225-12.883 2.521-3.32 2.11-8.115 2.932-12.113 3.284-2.998 6.038-11.73.366-14.258 7.433-4.652 3.903-9.517 6.911-10.618 13.184-.616 1.997 2.003 4.035.997 6.478-.262 3.78.328 7.766-.485 11.413-1.625 2.05-1.516 3.782.84 5.107.321 3.541.718 7.732-2.28 10.353 4.586 3.317 4.018 10.235 1.367 14.653 3.997 5.416-1.687 10.46-2.218 15.692 3.245 3.357-.109 7.864.03 10.863 1.62 4.232.624 9.01.966 13.492 10.205 10.105 24.335 15.916 38.714 15.75 12.59.542 24.908-3.4 35.813-9.501 2.26-2.07 4.001-1.093 5.518 1.21 4.308 6.238 3.883-5.474 8.95-6.166 4.341-6.722 5.937-15.057 6.346-22.896-1.075-3.037.032 6.09-2.044 7.254-1.694 3.228-.739 9.024-4.278 10.712-3.587 2.109-7.289 2.473-6.461-3.21-1.538-6.457-.717 9.753-5.406 3.455-2.913-2.418-7.547-7.316-7.379-1.61-16.225-2.846-32.796-1.301-49.175-1.315-4.799-1.027-13.929 2.891-16.258-.647a2670 2670 0 0 0 2.458-89.234c8.451-3.895 17.467-6.53 26.818-6.881 19.27-1.306 39.048-.092 57.336 6.463 2.116.21-5.253-3.008-5.025-5.62-1.508-4.282-8.234-.225-10.088-5.93-5.327 3.427-9.594-3.591-12.299-5.103-3.753 2.598-9.874 2.56-12.885-1.204zm5.158 5.796c5.192.268 10.618.24 15.5 2.053-4.127-.034-8.75-1.322-13.102-1.722zm39.628 91.688c-.348 6.716-2.147 13.66-6.203 19.084-5.063 1.413-4.808 13.633-10 5.555-2.251-4.44-5.674.931-8.929 1.593-3.56 1.72-7.243 3.16-10.942 4.549 2.92.425 5.083 5.499 7.406 1.807 5.127-3.394 9.158 2.932 14.295.159 3.76 3.69 7.169-2.021 10.89-3.455-.947-4.071.599-12.154 7.112-9.236-1.792-4.262 2.55-6.75-1.393-10.201.349-4.564.555-6.031-2.236-9.855z" style="display:inline;fill:#000;fill-opacity:1;stroke:#000;stroke-width:.198482;stroke-opacity:1" transform="translate(-50.025 -63.167)"/></svg>