<svg xmlns="http://www.w3.org/2000/svg" xml:space="preserve" width="358.962" height="441.355" viewBox="0 0 94.975 116.775"><path d="M58.89 0c-1.24-.017-2.495.338-3.723 1.2-3.66 2.943-7.731 6.413-12.81 4.888-5.462-1.43-10.244 1.926-14.055 5.413-4.295 4.823-12.445-.621-6.824-5.677-1.802-2.497-8.952 2.986-10.657 6.047-3.464 4.426.682 10.594-3.55 14.594-2.572 4.435-.756 9.314.6 13.776-2.271 4.066-4.504 8.201-5.734 12.723-3.093 12.058-3.308 25.628 2.582 36.902 3.062 6.223 8.283 10.984 13.82 14.92 2.535 5.298 6.803 10.036 12.797 11.292 7.648 1.851 16.123-.004 22.008-5.313 5.093-3.795 5.906-10.988 11.408-14.334 3.499-4.685 8.955-4.866 13.788-6.995 5.4-3.019 6.88-9.888 4.89-15.295 4.962-7.648 9.527-15.854 10.966-24.995 1.79-7.327-.819-14.656-4.397-20.994-3.44-4.667-7.845-8.539-9.496-14.382-2.245-4.917-8.521-4.337-12.148-7.483C66.176 3.409 62.61.045 58.89.001M35.743 22.28c1.759.05 3.502.819 4.938 2.416 1.362 1.662 3.316 1.047 5.16.848 5.186-.95 11.49-.961 14.496 4.21 2.768 5.87 9.806 3.055 14.817 3.735 5.34.594 6.494 8.68 1.667 10.951-5.868 1.064-1.805 4.916.87 7.338 4.021 3.967 5.32 9.596 5.19 15.056-1.916-5.508-3.756-11.278-7.792-15.646-5.074-3.036-.053 3.532 1.195 5.054 2.204 3.967 5.322 8.185 5.185 12.842-1.832-3.098-3.085-7.524-5.738-10.535-1.197-3.337-5.772-3.082-2.499.464 2.52 3.519 7.425 8.949 5.884 12.969-1.507 3.14 3.499 8.618-.592 12.363-2.288 3.818-6.886 3.777-10.79 3.765-5.124 5.602-11.02 10.599-18.032 13.67-6.175 2.85 3.497 2.51 5.604.992-1.554 5.096-8.104 7.885-13.158 9.114-3.011.61-6.164.924-9.198.284-6.193-1.56 1.867-1.557 4.199-2.332-1.468-1.775-8.257-1.216-11.317-3.596C13.594 100.66 5.474 88.27 3.69 75.127 1.163 60.08 6.517 44.456 16.607 33.21c4.064-2.867 9.459-3.722 12.895-7.79 1.69-2.084 3.978-3.206 6.239-3.14M25.016 32.538c-3.185-.094-9.21 3.304-4.47 3.48 1.595-.077 4.956 1.427 5.775-.554 1.004-2.117.142-2.882-1.305-2.926m28.68 4.439c-5.624 2.594.547 5.227 3.005 7.463.727.61 1.44 1.299 2.352 1.623 1.308-2.211-2.288-9.202-5.357-9.086M19.33 43.592c-2.522.328-5.026 7.05-2.451 9.204 3.309 2.07 5.345-4.59 4.79-6.994-.656-1.717-1.499-2.318-2.34-2.21m16.576 3.885c-3.293-.033-6.177 7.02-9.851 9.094-5.533 2.376-3.635 7.785-.794 11.53 6.211 2.027 1.856-3.797 1.266-6.329 2.766-4.97 7.439-8.852 9.38-14.293m14.315 2.21c-2.387.111-5.22 6.685-2.742 9.013 3.056 2.689 5.396-4.169 4.767-6.573-.484-1.797-1.23-2.478-2.025-2.44m22.042 12.196c-3.64.185 2.545 5.065 3.277 7.108l.62 1.073c1.6-.436-1.399-7.172-3.895-8.18M70.43 67.58c-.487.08-.55.842.497 2.71.457.781.83 1.7 1.672 2.166 2.04-1.926-1.096-5.054-2.169-4.876m-59.012 1.425c-.835.114-2.208 1.476-3.37 2.62-1.96 1.658 1.226 11.65 3.184 6.295 4.412 3.362 8.962 7.228 14.594 8.53 3.747.443 7.496-.68 11.071-1.66 3.417-.662 11.608-6.294 9.842 1.04 1.365 1.087 3.477-5.422 3.555-7.616-1.941-3.14-4.906-5.462-7.453-8.095 1.997 4.885-3.1 5.848-6.976 5.79-8.09 1.312-16.822.142-23.82-4.217.35-2.11.024-2.775-.627-2.687m.99 5.08c2.308-.088 6.49 3.02 8.866 2.905 7.074 2.228 14.431.65 21.6.013 6.048 1.055-.382 4.667-3.276 4.676-4.735 1.229-9.752 2.22-14.632 1.3-5.045-1.553-10.237-3.924-14.106-7.503.216-.977.78-1.362 1.548-1.392zm8.066 13.627c-1.892.1-.376 2.153 2.068 3.057.952.442 2.004.734 3.06.674 5.03-1.5-.62-4.01-3.243-3.45-.83-.223-1.448-.304-1.885-.281"/></svg>