<svg xmlns="http://www.w3.org/2000/svg" xml:space="preserve" width="202.425" height="248.887" viewBox="0 0 53.558 65.851"><path d="M105.002 129.34c-.699-.01-1.407.19-2.099.676-2.064 1.66-4.36 3.617-7.224 2.757-3.08-.807-5.777 1.086-7.926 3.052-2.422 2.72-7.018-.35-3.848-3.201-1.016-1.408-5.048 1.684-6.01 3.41-1.953 2.496.385 5.974-2.002 8.23-1.45 2.501-.426 5.252.339 7.768-1.281 2.293-2.54 4.625-3.234 7.175-1.744 6.8-1.865 14.452 1.456 20.81 1.727 3.509 4.671 6.194 7.794 8.413 1.429 2.988 3.836 5.66 7.216 6.368 4.313 1.044 9.092-.002 12.411-2.996 2.872-2.14 3.33-6.196 6.433-8.083 1.973-2.642 5.05-2.744 7.775-3.945 3.045-1.702 3.88-5.576 2.758-8.625 2.798-4.313 5.372-8.94 6.184-14.095 1.009-4.132-.462-8.265-2.48-11.839-1.94-2.632-4.424-4.815-5.355-8.11-1.266-2.773-4.805-2.446-6.85-4.22-1.229-1.623-3.24-3.52-5.338-3.545m.227 1.464q.292-.001.606.068c2.5 1.418 4.13 4.072 6.967 5.006 3.592 1.002 4.47 4.883 6.416 7.541 3.91 4.334 5.077 10.795 3.034 16.26-.693 1.919-1.422 3.865-2.516 5.598-.298-1.931-1.003-4.498-2.389-6.264-.064-1.04-2.941-2.473-1.718-3.187 2.322-1.107 4.613-3.738 3.225-6.395-1.14-2.913-4.731-3.34-7.382-2.497-3.208 1.569-4.389-2.442-6.027-4.33-.614-1.253-1.486-1.731-2.47-1.8.768.043 1.272.251 1.775.754.231.231.48.537.554.678.073.142.307.496.52.787.213.29.713 1.028 1.11 1.638 1.557 2.39 2.534 2.928 4.26 2.342 1.107-.375 1.612-.458 2.773-.453 1.24.005 1.903.14 2.815.577 1.134.544 2.05 1.723 2.41 3.098.491 1.889-.682 3.976-3.01 5.354-.398.236-.742.476-.764.533-.096.248.12.582.905 1.404.462.484.89 1.004.95 1.156.062.153.254.489.427.747.791 1.181 1.518 3.038 1.878 4.797.22 1.076.16 1.113 1.002-.613.998-2.046 1.968-4.709 2.284-6.273.714-3.53.248-7.128-1.345-10.381-.545-1.114-1.14-2.038-2-3.103-.666-.826-.946-1.266-1.914-3.02-1.203-2.179-1.882-3.103-2.85-3.876-.64-.512-.803-.597-1.958-1.03-1.514-.565-2.128-.99-4.636-3.208-1.25-1.106-2.062-1.692-2.505-1.811-.467-.126-1.044-.02-1.716.316-.493.246-.823.527-2.08 1.767-.359.353-.624.6-.896.853 1.324-1.296 2.532-3.03 4.265-3.033m-4.426 3.186c-.102.093-.215.198-.307.278q.154-.134.307-.278m-6.702.019c1.232 0 2.487.418 3.633 1.113a7 7 0 0 1-.66-.293c-1.078-.53-1.906-.742-2.918-.744-1.348-.003-2.298.354-3.497 1.316-2.871 2.304-4.89 3.203-6.582 2.933-.563-.09-1.899-.63-2.182-.883-.242-.216-.472-.725-.741-1.637-.29-.984-.42-1.126-.745-.822-.682.633-1.465 2.111-1.808 3.409-.287 1.088-.302 2.825-.034 3.813.327 1.206.82 2.076 1.616 2.854.51.498.853.616 1.794.616 1.449 0 2.772-.69 5.172-2.697 1.268-1.06 3.063-2.301 3.606-2.493.474-.167 1.212-.146 1.805.052.279.094.959.427 1.51.741 1.236.704 1.745.931 2.312 1.036.603.111.957.031 2.652-.6 1.77-.66 2.587-.88 3.377-.92.088-.004.178-.018.266-.018.073 0 .13.01.197.013a4 4 0 0 0-.463.005c-1.558.111-3.312 1.027-4.745 1.47-2.762 1.023-4.988-3.578-7.855-1.172-2.971 1.587-5.27 5.482-9.112 4.476-3.083-2.19-2.972-7.12-.873-9.963 1.788-2.696.73 1.74 2.78 2.147 2.848 1.69 5.696-.649 7.914-2.295 1.07-1.02 2.313-1.457 3.58-1.457zm6.318.324c-.86.734-1.32.9-2.02.9-.171 0-.304-.014-.443-.045.943.14 1.733-.248 2.463-.855m-8.47 7.571c.992.029 1.975.462 2.785 1.363.768.937 1.87.59 2.91.478 2.924-.536 6.479-.542 8.174 2.374 1.561 3.31 5.53 1.723 8.356 2.106 3.011.335 3.662 4.895.94 6.176-3.309.6-1.018 2.772.49 4.138 2.268 2.237 3 5.411 2.927 8.49-1.08-3.106-2.118-6.36-4.394-8.823-2.861-1.712-.03 1.992.674 2.85 1.243 2.237 3.001 4.616 2.924 7.242-1.033-1.747-1.74-4.243-3.236-5.941-.675-1.882-3.255-1.738-1.409.262 1.421 1.984 4.187 5.046 3.318 7.313-.85 1.771 1.973 4.86-.334 6.972-1.29 2.153-3.883 2.13-6.084 2.123-2.89 3.159-6.215 5.977-10.169 7.709-3.482 1.607 1.972 1.415 3.16.559-.876 2.874-4.57 4.447-7.42 5.14-1.698.344-3.476.521-5.187.16-3.492-.88 1.053-.878 2.368-1.315-.828-1.001-4.656-.686-6.382-2.028-6.901-3.148-11.48-10.135-12.486-17.547-1.425-8.485 1.594-17.296 7.284-23.637 2.292-1.617 5.334-2.099 7.272-4.393.953-1.175 2.243-1.808 3.518-1.771m-14.007 2.975c.707.026 1.592.844 2.152 1.734-.512 1.113-1.386 2.02-2.125 2.99-1.292 2.325-1.455-1.994-1.117-3.015.098-1.273.54-1.73 1.09-1.71m-.09.068q-.421.016-.656.477c-.552 1.081-.545 4.417.01 4.76.161.1.302-.017.785-.652l1.02-1.343c.745-.979 1.046-1.516.95-1.696-.173-.324-.952-1.084-1.337-1.305q-.444-.255-.771-.241m8.048 2.743c-1.796-.053-5.194 1.863-2.521 1.962.9-.043 2.795.805 3.257-.312.566-1.194.08-1.625-.736-1.65m16.173 2.503c-3.171 1.463.309 2.948 1.695 4.209.41.344.812.732 1.326.915.738-1.247-1.29-5.189-3.021-5.124m-19.379 3.73c-1.422.185-2.834 3.976-1.382 5.19 1.866 1.168 3.014-2.588 2.701-3.944-.37-.968-.845-1.307-1.319-1.246m9.347 2.191c-1.857-.019-3.483 3.959-5.555 5.128-3.12 1.34-2.05 4.39-.448 6.502 3.503 1.143 1.047-2.141.714-3.569 1.56-2.803 4.195-4.992 5.29-8.06m8.072 1.246c-1.346.063-2.943 3.77-1.546 5.083 1.723 1.516 3.043-2.351 2.688-3.707-.273-1.013-.694-1.397-1.142-1.376m12.43 6.878c-2.053.104 1.435 2.856 1.848 4.008l.35.605c.902-.246-.789-4.044-2.197-4.613m-1.035 3.211c-.275.045-.31.475.28 1.529.258.44.468.958.943 1.221 1.15-1.086-.618-2.85-1.223-2.75m-33.278.804c-.471.064-1.245.832-1.901 1.477-1.105.935.692 6.57 1.796 3.55 2.488 1.896 5.054 4.076 8.23 4.81 2.113.25 4.227-.383 6.243-.936 1.927-.373 6.546-3.549 5.55.587.77.613 1.961-3.058 2.005-4.295-1.095-1.771-2.767-3.08-4.203-4.565 1.126 2.755-1.748 3.298-3.934 3.265-4.562.74-9.486.08-13.433-2.378.198-1.19.014-1.565-.353-1.515m.558 2.865c1.302-.05 3.66 1.703 5 1.638 3.989 1.256 8.138.366 12.181.007 3.41.595-.216 2.632-1.848 2.637-2.67.693-5.499 1.252-8.251.733-2.845-.876-5.773-2.213-7.955-4.231.122-.551.44-.768.873-.785zm4.549 7.684c-1.067.056-.212 1.214 1.166 1.724.537.249 1.13.414 1.726.38 2.836-.846-.35-2.261-1.829-1.945-.468-.126-.817-.172-1.063-.159" style="fill:#000" transform="translate(-71.793 -129.34)"/></svg>