<?xml version="1.0" encoding="UTF-8"?>
<svg xmlns="http://www.w3.org/2000/svg" viewBox="0 0 148.72 257.63">
  <g>
    <path d="m55.77,257.63c-9.18-2.63-18.63-4.55-27.46-8.06-13.3-5.28-14.48-10.79-8.87-24.11,5.33-12.65,13.07-21.55,27.04-24.25,2.41-.47,5.81-3.19,6.24-5.38,2.99-15.18,5.45-30.47,7.78-45.77,1-6.54-1.89-9.73-8.81-8.58-2.35.39-4.86.61-7.19.21-5.59-.95-14.04-.53-16.05-3.88-3.89-6.48-6.2-13.51-1.5-23.36,5.84-12.24,15.85-25.35,4.81-42.21-9.67-14.78-6.61-30.3,5.54-45.62,7.19-9.07,16.52-13.45,24.39-20.5,1.58-1.42,4.8-2.58,6.56-1.93,10.57,3.9,21.3,7.64,31.25,12.85,7.74,4.06,8.83,4.18,9.95-5.58,8.33,2.53,11.73,7.75,12.4,16.67.9,11.89,2.84,23.87,5.87,35.39,5.77,21.94-.52,41.94-19.14,56.59,16.51,18.04,15.94,18.98.12,48.63-4.25,7.96-4.08,18.35-5.46,27.7-.13.87,3.23,3.21,5.03,3.28,19.75.77,29.17,13.93,36.83,29.86,3.95,8.21.92,14.16-5.89,17.18-10.21,4.52-21.17,7.33-31.8,10.87h-51.64ZM103.44,36.53c13.49-.11,15.42-2.7,12.77-12.51-7.96-1.94-14.11-3.38-20.24-4.96-3.82-.99-7.6-2.18-11.39-3.27-3.54-1.02-8.02-1.03-10.42-3.28-5.13-4.81-9.01-5.14-14.01-.09-2.32,2.34-6.03,3.22-8.69,5.31-10.1,7.95-23.42,25.41-19.24,41.82,1.72,6.76,4.45,9.79,11.08,5.18-.05,4.34.24,8.72-.21,13.02-1.05,10.01-5.08,21.24,11.26,22.52,1.31.1,2.72,2.09,3.63,3.5,2.52,3.9,4.03,8.81,7.32,11.78,9.91,8.98,44.48,1.47,52.17-10.49,11.5-17.89,11.97-50.15-14.02-68.52Zm3.04,125.69c2.01-2.74,5.12-9.12-5.13-8.37-10.76.79-9.7-5.77-10.42-12.28-.66-5.98-1.65-11.93-2.51-17.99h-10.34c1.51,7.44,3.26,14.97,4.51,22.58,1.48,9-2.85,11.6-11.15,9.73-2.1-.47-4.47.21-6.71.36,1.73,2.48,3.38,7.01,5.21,7.09,7.86.34,15.78-.7,23.68-1.1,3.35-.17,6.71-.03,12.86-.03Zm-70.7-58.73c-8.22,3.44-1.59,8.99-.32,12.55-2.74,3.02-6.98,5.65-6.79,7.89.43,4.97,2.2,10.48,5.3,14.18,1.08,1.29,10.06-1.02,11.22-3.61,1.94-4.29,1.69-10.55.13-15.22-1.83-5.51-6.04-10.21-9.55-15.79Zm24.38,12.37c.26-1.16.53-2.33.79-3.49-4.88-2.94-9.68-6.05-14.77-8.55-.52-.25-2.82,3.18-4.3,4.9,4.33,3.03,8.52,6.3,13.09,8.9,1.06.6,3.43-1.11,5.19-1.76Z"/>
    <path d="m45.36,61.25c-1.37-3.04-2.42-6.28-4.18-9.08-5.24-8.31-2.23-15.7,7.28-15.36,7.52.27,13.12-1.2,17.35-7.67.96-1.47,3.36-2.75,5.12-2.78,7.43-.15,14.87.13,22.3.53.7.04,1.3,2.03,1.94,3.12-7.09.6-14.8-.36-21.13,2.16-9.06,3.6-17.26,9.29-27.56,9.38-.14,0-1.62,7.46-.08,8.99,4.66,4.64,2.94,7.5-1.03,10.7Z"/>
    <path d="m93.06,60.29c14.54,11.11,15.06,12.85,6.83,18.81-2.09-5.75-4.24-11.67-6.83-18.81Z"/>
    <path d="m80.25,93.72c-2.03.32-4.06.63-6.08.95.58-2.77.56-7.54,1.84-7.92,3.65-1.08,7.82-.38,11.83-.38-3.22,3.13-5.5,5.33-7.77,7.54l.18-.18Z"/>
    <path d="m80.07,93.9c8.74.73,17.48,1.45,28.59,2.37-11.74,7.08-20.09,2.53-28.4-2.57,0,0-.19.19-.19.19Z"/>
  </g>
</svg>