<?xml version="1.0" encoding="UTF-8" standalone="no"?>
<!-- Created with Inkscape (http://www.inkscape.org/) -->

<svg
   width="93.205566mm"
   height="112.86509mm"
   viewBox="0 0 93.205566 112.86509"
   version="1.1"
   id="svg1"
   xml:space="preserve"
   xmlns="http://www.w3.org/2000/svg"
   xmlns:svg="http://www.w3.org/2000/svg"><defs
     id="defs1" /><g
     id="layer1"
     transform="translate(-59.142396,-93.729657)"><path
       id="path3"
       style="fill:#000000"
       d="m 126.92145,93.729679 c -1.77123,0.251942 -3.49122,2.036373 -4.96027,3.318276 -2.96971,4.073645 -8.53795,4.659065 -13.01085,6.169985 -2.71961,0.8284 -8.15435,2.36249 -6.58863,0.24625 -8.417506,1.97168 -16.698714,4.79326 -25.311876,5.77107 -5.943739,-0.008 -11.887478,-0.017 -17.831216,-0.0259 -0.328133,2.21836 0.423789,4.36388 1.860986,5.64652 -0.715985,2.80891 0.911287,5.53099 1.310763,8.2981 1.615667,3.59144 1.349912,7.06245 1.308243,10.48653 2.35128,1.64543 5.873606,1.26585 2.915017,5.12994 -1.32619,3.0419 -2.227222,6.33338 -2.632506,9.60576 0.423834,11.38836 3.749012,22.46227 7.132927,33.27594 2.897495,7.7406 5.876372,15.57439 10.108914,22.68629 4.014108,1.95483 8.670719,1.28356 12.889134,2.2563 9.156844,-0.13476 18.128694,-2.25504 27.135814,-3.71334 5.09347,-1.15626 10.10211,-2.95096 14.77351,-5.27626 4.40752,-3.46586 10.73521,-4.20559 14.21252,-8.85435 1.20184,-1.43845 2.99007,-4.21965 1.61985,-5.82682 -3.8353,-0.0971 -7.68597,4.4435 -11.7102,5.88269 -6.9504,3.39011 -14.39792,6.10274 -21.95754,7.57717 -2.1606,-1.6025 -4.20033,-3.31256 -5.50226,-5.55705 -4.03541,-3.92591 -4.2646,-9.7456 -5.12675,-15.0027 -1.5433,-3.14831 -1.4324,-6.75359 -1.36184,-10.21695 0.49925,-2.54633 -0.17232,-5.35133 0.7726,-7.78815 -0.24829,-0.74839 1.89872,-1.55666 2.41832,-2.14109 7.17059,-4.20001 14.80655,-7.53885 21.92897,-11.82132 3.39592,-1.75813 7.13398,-4.00678 9.38905,-6.99308 -1.72167,-4.60679 -4.51512,-8.8995 -7.5023,-12.81477 -1.42016,-1.9487 -6.09784,-4.45582 -2.14268,-5.9058 1.16592,-1.41466 1.45129,-4.36943 -0.90887,-4.51551 -2.7331,-0.16662 -1.39444,-4.21485 -2.02445,-6.14459 -0.0336,-2.23668 -1.40996,-4.17149 -1.03277,-6.46732 0.14299,-1.691535 -0.63227,-3.607117 0.54393,-5.024315 0.31858,-0.855937 -0.24134,-1.61007 -0.71554,-2.261526 z m -4.18631,5.557801 c 1.4363,0.357145 1.60229,3.50231 2.8779,2.88896 -0.22915,2.42807 1.63684,1.06271 0.49602,2.81812 -0.756,3.49981 0.70643,6.77458 1.42857,10.14105 -1.54816,1.85954 -2.54875,-0.45325 -4.02205,1.03315 -2.39677,-4.37132 -2.54851,-0.83058 -2.91932,1.51478 -4.62016,4.09472 -3.41938,-5.4251 -4.92335,-8.03194 -0.78423,-2.53253 -1.25064,-4.60067 1.31139,-5.44426 -0.52306,-2.90672 1.67037,-1.95939 2.21755,-0.42202 4.91402,-0.29793 0.79917,-3.44314 3.53329,-4.49784 z m -12.48502,6.58151 c 2.31862,2.22349 1.08976,6.27542 2.4103,9.16149 1.45862,2.12968 0.0659,7.60228 -0.86245,2.58451 -0.65098,-3.36035 -2.25635,-6.66185 -2.26227,-10.10112 0.15357,-0.69971 -0.29336,-1.5919 0.71442,-1.64488 z m -7.922,2.67891 c 1.52858,4.15611 2.83845,8.97052 2.67477,13.35422 -2.12284,-2.20809 -1.99774,-7.39624 -3.05978,-10.64531 -0.2339,-0.89353 0.17046,-1.86003 0.38501,-2.70891 z m -9.000483,1.19527 c 1.802823,4.37413 2.417849,9.31709 3.284037,13.98985 -0.725728,3.70595 -2.234951,-4.35023 -2.544499,-5.35701 -0.590059,-2.83832 -2.025341,-5.78536 -0.739538,-8.63284 z m -10.031946,2.47014 c 2.357523,1.29615 0.893662,6.37801 2.184176,8.94383 0.560487,2.03554 0.836024,5.82955 -0.124108,1.48255 -0.580671,-3.47564 -2.306929,-6.85518 -2.060068,-10.42638 z m -8.995833,1.62625 c 1.883354,2.17906 2.327033,8.51114 2.610453,10.19778 -1.010812,-3.33376 -2.326079,-6.71336 -2.610453,-10.19778 z m 49.741662,19.05 c 1.6181,0.92315 1.24098,2.92399 -0.0388,3.96875 -1.8963,0.58189 -5.03179,-2.11869 -3.01011,-3.558 0.90166,-0.67684 2.00729,-0.31536 3.04886,-0.41075 z m -7.17062,5.06378 c 2.48029,-0.16791 2.26416,3.40977 0.33177,4.19668 -1.90121,0.53127 -3.16684,-1.18698 -2.68615,-2.95407 0.35469,-0.77555 1.52142,-1.21466 2.35438,-1.24261 z m 3.13521,18.50223 c 0.5087,0.89735 0.22248,0.19131 0,0 z m 12.09849,7.77368 c -0.0851,0.0519 -0.25624,0.30485 0,0 z" /></g></svg>
