<?xml version="1.0" encoding="UTF-8" standalone="no"?>
<!-- Created with Inkscape (http://www.inkscape.org/) -->

<svg
   width="78.436905mm"
   height="105.80307mm"
   viewBox="0 0 78.436905 105.80307"
   version="1.1"
   id="svg1"
   xml:space="preserve"
   xmlns="http://www.w3.org/2000/svg"
   xmlns:svg="http://www.w3.org/2000/svg"><defs
     id="defs1" /><g
     id="layer1"
     transform="translate(-65.635164,-95.671018)"><path
       id="path70"
       style="fill:#000000;fill-opacity:1;stroke:#000000;stroke-width:0.0232866"
       d="m 119.57492,165.55431 c -1.5796,-2.38902 4.14291,-0.56015 0,0 z m 2.62642,-4.9629 c -0.59706,-0.50972 0.41439,0.31205 0,0 z m 0.1001,0.67641 c -0.0409,-0.59066 0.0986,-0.80428 0,0 z m -2.2936,9.71278 c -1.19565,-2.77299 -2.81933,-13.67818 2.72405,-10.20856 -0.64402,1.65913 -5.21698,3.11256 -0.79286,3.38047 -0.94357,1.24848 -1.4005,4.6756 -1.51986,6.91017 l -0.41138,-0.0821 z m -0.26565,-5.26685 c 3.86087,-0.8851 -1.84206,-2.67905 0,0 z m 0.98681,-4.07984 c 3.03478,-2.12109 -2.87253,-0.63345 -0.22998,-0.44118 l 0.0665,0.52237 0.16361,-0.0812 z m 1.62337,-0.46428 c 0.0186,-0.6618 -0.53825,-1.40423 0,0 z m -2.25534,9.85149 c -1.01601,-0.72532 -0.70937,-2.16743 -0.92037,-3.25899 -0.0838,-2.47111 -0.42986,-5.07466 0.29239,-7.47891 0.88835,-0.73262 2.78402,-0.57129 3.2692,0.54964 -0.15363,1.1348 -1.58542,1.25141 -2.20641,2.09972 -0.46818,0.33564 -1.70509,1.00689 0.16246,0.89757 0.67893,-0.35939 2.34596,0.68766 1.25013,1.20609 -1.88628,0.70819 -1.2201,3.02016 -1.21095,4.55674 -0.0305,0.48655 0.22095,1.74123 -0.63642,1.42814 z m -0.40553,-5.29166 c 0.57214,-0.21504 1.25298,-0.58673 1.51703,-1.16162 -0.34608,-0.16224 -0.79994,0.45383 -0.79404,-0.21828 -1.08921,-0.82413 -1.07439,0.89508 -0.72299,1.37994 z m 1.00636,-4.07758 c 1.18817,-0.0903 1.2604,-1.70469 0.12624,-1.38858 -0.63973,-0.16672 -1.35813,0.90926 -0.93369,0.96402 0.37022,-0.50903 0.75174,-0.47407 0.61704,0.26696 0.0129,0.0931 0.008,0.35956 0.19045,0.1576 z m 1.59987,-0.33189 c 0.52476,-0.40434 -0.68729,-1.35902 -0.006,-0.55278 0.0176,0.17121 0.004,0.46433 0.006,0.55278 z m -1.75891,0.25831 c -1.25337,-0.28952 -0.32911,-1.75985 1.09892,-0.93408 0.20281,0.55357 -0.90934,1.15309 -1.09892,0.93408 z m 1.22632,-1.17954 c 0.54364,1.03034 -2.29115,1.79542 -0.5032,1.66108 0.77404,-0.14238 1.39457,-1.19465 0.5032,-1.66108 z m -1.08058,3.56351 c -2.58125,-0.90731 -0.0671,0.91462 0.15155,0.18086 z m -6.88594,3.98644 c -0.41034,-2.5222 0.4728,-3.13539 0,0 z m 10.92975,-3.09036 c -0.85415,-2.88542 0.88018,-1.27991 0,0 z m -0.28315,-2.32738 c 0.43982,-1.55196 1.75858,-0.30705 0,0 z m 1.18511,8.4382 c -0.97566,-3.48501 -4.67063,-12.82329 2.15154,-11.34418 1.08668,1.80062 -4.65969,2.77275 -1.17409,4.37006 1.38061,0.90415 -2.09788,3.70013 -0.57488,6.00892 -0.015,0.14328 0.14756,1.36659 -0.40256,0.96521 z m -0.72851,-5.95931 c 0.53074,-3.02285 -1.39602,-1.55048 0,0 z m -0.24709,-2.42711 c 1.96795,-1.05087 -0.56827,-1.11825 0,0 z m -0.29651,-1.01426 c 0.73665,-1.04416 5.48016,-0.99943 1.68574,-1.83144 -0.49315,0.20814 -2.48198,1.11602 -1.68574,1.83144 z m -0.14251,-0.0976 c 0.4949,-3.38246 6.053,-0.30596 1.14176,-0.56006 -0.35812,-0.66342 -0.84521,1.08447 -1.14176,0.56006 z m 1.68218,-1.09174 c 2.53844,-0.23556 -1.65098,-0.50544 -1e-5,0 z m -0.4138,-0.0672 c 0.63361,-0.89508 2.51218,0.52671 0,0 z m -0.0257,10.35762 c -0.61044,-3.54259 -4.36417,-11.62494 1.85919,-11.25358 2.54251,1.56349 -4.66677,3.30488 -0.59279,4.61864 0.68702,1.04417 -2.1502,4.01712 -0.71152,6.37416 0.38796,0.49542 -0.56462,0.93025 -0.55488,0.26078 z m -0.5238,-5.76644 c 0.44903,-3.06285 -1.33136,-0.82915 0,0 z m -0.28231,-2.29427 c 2.37876,-1.36412 -1.17819,-0.88765 0,0 z m 0.0301,-1.32356 c 1.07396,-0.45854 4.71671,-0.89934 1.55547,-1.62572 -0.71587,-0.55018 -3.24583,2.68094 -1.55547,1.62572 z m 0.92575,9.60663 c -0.73359,-3.49412 -4.63708,-11.92221 1.71272,-11.47553 2.52464,1.66685 -4.49238,2.94605 -0.80851,4.59495 1.34589,0.77369 -2.19354,3.60139 -0.51678,5.88907 -0.0457,0.0794 0.19394,1.53814 -0.38743,0.99151 z m -0.67037,-5.872 c 0.61435,-3.47359 -1.61996,-0.98423 0,0 z m -0.21657,-2.42316 c 2.67987,-1.61175 -1.69801,-0.5258 0,0 z m -0.0123,-1.31081 c 1.37033,-0.23666 4.719,-1.22518 1.28122,-1.56906 -0.7883,-0.30344 -2.91529,2.5272 -1.28122,1.56906 z m -47.880481,35.71097 c -4.01741,-1.88083 -10.042166,-3.96437 -10.370834,-9.11161 -0.437041,-18.1043 -1.061121,-36.2214 -0.705533,-54.33108 1.509744,-4.4258 7.227801,-7.04884 7.374136,-11.88674 0.176409,-3.44452 -2.339166,-9.90614 3.519056,-7.04736 4.101907,2.19129 2.276522,-3.48157 2.713531,-5.91158 0.410529,-2.35764 -0.709322,-7.11026 -0.264353,-2.2479 -0.237558,1.87124 0.138933,8.09976 -0.639057,7.44728 -0.314877,-2.33638 0.258988,-9.32183 -0.507914,-9.07369 -0.72213,3.69978 1.908918,11.66428 -4.205254,8.67629 -2.641103,-1.5591 0.848657,-7.42855 -0.248664,-10.39034 -1.03655,0.0568 -0.506346,7.56488 -1.698172,9.50396 -0.156909,-2.75778 -0.482909,-4.49772 -1.017262,-0.67374 -0.922293,-2.31501 0.341926,-7.9015 -0.323266,-10.75411 -0.420623,2.72296 -0.405968,8.45402 -1.1884,9.59953 0.408067,-5.02174 -0.229261,-10.14819 0.66671,-15.111961 4.077391,-0.06149 8.982484,2.218767 13.439718,2.840982 8.341629,1.498569 16.938329,1.375875 25.338589,1.577709 -2.40603,0.25213 -4.56061,2.0511 -0.61814,2.6235 0.87466,-3.562442 -0.15804,0.43115 3.1315,0.0422 3.2634,1.58896 11.25809,-1.26176 11.07471,2.93441 -0.58533,1.62976 -0.14881,8.86913 -0.79933,7.40304 -0.6325,-2.17285 0.94219,-8.02063 -1.04753,-7.98384 -0.93499,3.4256 1.23662,9.6329 -1.01916,11.4929 -0.30505,-2.09125 0.97167,-9.63968 -1.91247,-7.09711 -4.18751,-0.79275 -3.508,5.26447 -3.94799,7.99447 -1.62645,-2.27699 0.30771,-8.29625 -0.81203,-11.9343 -2.75272,-3.12346 -0.13972,4.52081 -0.79789,6.73217 0.32512,2.98862 0.59306,6.48207 -3.3292,5.18911 -2.23209,-0.46686 -5.50578,0.46547 -2.50355,2.29506 -2.21627,3.66788 2.76997,1.81431 4.8016,2.31378 8.55634,-0.24768 17.32833,-0.52073 25.49012,-3.37635 -0.83773,4.4031 1.78827,8.20233 4.62257,11.28981 3.70467,3.52124 3.96856,12.12031 -1.82221,13.32085 -8.0777,3.71008 -17.11628,3.63421 -25.66961,5.38061 3.49586,0.8747 8.77038,-0.18724 12.89597,-0.69705 4.03062,-0.40623 10.05615,-2.25231 12.61849,-2.78555 -3.29873,1.97534 -8.9807,1.61007 -11.00658,3.91413 -1.96941,-0.7073 -10.13854,1.47297 -3.80531,1.21818 -1.42027,0.64147 -6.97309,-0.20172 -9.18448,2.2562 -4.75031,-0.19091 -6.8046,-0.98397 -10.73123,-0.0551 -4.811096,-0.39775 -7.033132,4.462 -7.573644,8.52278 -1.38623,9.41142 -1.035441,19.08521 0.243911,28.49325 1.127725,5.45247 9.371493,1.57555 13.420763,2.88891 11.29189,0.072 22.7656,-1.74633 32.9682,-6.72467 -4.10916,3.10623 -9.56248,4.17437 -14.52877,5.43177 -7.69813,1.90195 -15.65607,1.46681 -23.48271,2.03455 3.6713,2.04309 8.86374,1.17997 13.14249,1.16135 8.24737,-0.67831 16.39497,-2.70581 23.93018,-6.13709 2.62138,2.8656 -3.35044,8.29468 -7.23164,8.8277 -13.45975,4.47834 -27.98898,5.18664 -42.016129,3.66145 -5.550205,-0.83824 -11.077418,-1.85342 -16.383932,-3.73675 z m 8.348247,-81.05775 c -1.502515,-1.59911 0.388378,-10.09876 -0.897071,-10.6198 0.892977,2.36148 -2.253223,10.46838 0.897071,10.6198 z m 8.100697,0.52608 c 0.288119,-2.67243 -0.410821,-7.76808 -0.504457,-2.19063 0.03238,0.27209 -0.23213,4.71865 0.504457,2.19063 z m 1.528308,1.11846 c 2.050795,0.59201 8.934919,0.25788 3.233256,-0.0766 -3.544094,0.6904 -4.27068,-1.84481 -3.678794,-4.96779 0.315105,-2.19701 -0.204784,-11.03589 -0.577135,-4.45027 0.77958,2.56615 -1.469953,8.81623 1.022673,9.49469 z m 8.794559,0.87261 c 0.49839,-3.7682 0.63592,-9.68649 -1.24362,-12.36937 -0.35289,4.00493 0.31391,9.14368 0.58279,12.65096 z m -18.180535,-4.93202 c -0.330903,-0.59972 -0.207441,1.52177 0,0 z m 0.385637,-7.73999 c -0.572648,-3.74479 -0.687595,3.10021 -0.04309,0.97606 z m 18.188818,-4.27961 c -0.515,-3.730748 -2.94743,3.00064 0,0 z m 17.73441,2.82152 c -1.41887,-0.66341 -1.12976,0.47126 0,0 z M 98.266435,184.324 c 0.134744,-3.83233 0.613441,2.02169 0,0 z m 24.028165,4.75882 c 1.54145,-2.34559 10.35411,0.52688 4.61247,0.63965 -1.51294,-0.10182 -3.2372,0.0711 -4.61247,-0.63965 z m 21.05897,-1.8906 c 0.30256,-0.92456 0.55491,1.05698 0,0 z m -39.66509,-16.61699 c -1.71759,-4.16757 0.003,-9.51395 0.18179,-14.07015 1.0975,-3.94802 0.64508,-1.30076 0.59349,-0.12093 3.82917,-1.961 9.04564,3.06497 4.91464,6.1158 3.70653,3.06838 0.28176,10.52666 -4.92853,8.34373 l -0.76136,-0.26846 z m 3.7157,-2.20656 c 3.86248,-1.60688 -2.11289,-6.69646 -1.22814,-1.93348 0.24222,0.66481 -0.32592,2.81179 1.22814,1.93348 z m 0.37539,-7.78972 c 0.6275,-2.38986 -0.96719,0.70774 -1.35313,-1.4007 -0.99583,1.56639 -0.0876,5.19011 1.35313,1.4007 z m 5.80508,9.84763 c -1.28694,-2.33301 -1.8568,-7.90004 0.004,-9.27965 1.4098,2.57223 -0.14855,7.23803 2.31157,7.88944 -0.39583,1.00803 -2.4161,0.20985 -0.1083,1.18473 1.99324,-2.17407 0.37653,-9.23486 2.32927,-9.46492 -0.0735,3.25505 0.83868,12.10853 -4.53611,9.67043 z m 0.36573,-3.65418 c -0.47075,-3.47722 -0.0813,3.65932 0,0 z m 5.63643,3.75812 c -0.48748,-3.08895 -2.23555,-13.15791 3.15036,-9.65069 -0.18702,2.05854 -1.74347,-2.96338 -3.02761,0.47062 3.3326,-0.84497 -1.58961,3.3792 0.31602,4.25566 2.59919,-0.83715 -1.53072,-2.1192 2.10822,-1.35997 -1.92038,1.14567 -0.8684,5.43206 -2.03662,6.77168 z m 5.6752,-0.19378 c -0.70294,-3.51515 -4.01533,-12.45774 2.57368,-10.64035 0.92793,1.7406 -4.63348,2.63271 -1.30842,4.29282 1.79868,0.71319 -2.29849,3.33079 -0.50283,5.57238 0.16697,0.67509 -0.0355,2.54805 -0.76245,0.77515 z m -0.3423,-6.07674 c -0.45609,-3.5396 -0.57386,2.77846 0,0 z m -0.0273,-2.00164 c 2.07489,-1.38408 -1.76418,0.72871 0,0 z m 0.3904,-1.44093 c 4.36885,0.8525 0.93054,-2.89566 -0.93149,-0.0406 -0.56124,1.51929 0.42152,0.2198 0.93149,0.0406 z m 0.27821,-0.69407 c 1.85505,-0.37942 1.24921,0.64606 0,0 z m 3.56675,7.69397 c -1.99711,-2.34181 1.25748,-11.69992 3.67149,-7.74249 0.15092,2.25706 0.97451,12.60272 -3.67149,7.74249 z m 2.32245,0.88046 c 1.61441,-1.76964 0.59891,-11.80885 -1.45918,-5.90567 -1.23892,2.48753 2.18486,5.32241 -0.13053,5.51253 0.41167,0.39885 1.04015,0.54186 1.58972,0.39327 z m 2.41514,-1.91416 c -0.23327,-1.97897 -0.64808,-8.68527 0.59924,-8.19413 0.72146,2.13195 -0.37274,6.74202 1.39978,7.56842 0.83967,-2.25037 -0.53838,-7.63677 0.34617,-8.10182 0.56588,1.90039 1.43534,12.46095 -2.34515,8.72753 z m 4.73,0.14407 c 0.20505,-2.38282 -1.90239,-9.12767 -0.1601,-8.82183 0.51875,2.39138 1.19161,7.71366 0.1601,8.82183 z m -26.0984,-9.039 c -0.82706,-5.37542 2.80219,0.0439 1.34728,1.14323 -0.72061,-3.71992 -0.76595,-2.25258 -0.88866,0.57477 -0.61993,0.22084 -0.29026,-1.45905 -0.45862,-1.718 z m 3.78441,0.28158 c -0.37731,-3.99883 1.8456,-1.92865 1.72901,0.51622 -0.52626,-0.2017 -1.66071,0.26909 -1.72901,-0.51622 z m 0.96029,-0.22411 c -0.17306,-2.42349 -1.33734,0.75052 0,0 z m 3.16807,0.60149 c 0.79534,-3.92701 -1.03419,-2.27786 -1.30197,-2.60797 2.73598,-3.57209 1.91457,1.016 1.30197,2.60797 z m 2.49486,-1.81343 c -2.12367,-3.19753 2.11088,-3.22715 0.71766,0.54407 0.24835,2.51571 -0.68136,0.42004 -0.71766,-0.54407 z m 4.14088,0.69157 c -0.95216,-2.36461 1.4746,-5.6568 0.82639,-1.43791 -0.009,0.49802 -0.10178,2.82824 -0.82639,1.43791 z m 16.31401,2.4046 c 0.50928,-7.55024 0.35015,5.58491 0,0 z m -12.34808,-3.4215 c -1.21627,-2.86268 2.65889,2.66679 0,0 z m -1.71761,-0.59739 c -1.162,-4.27543 1.22402,-1.54249 0,0 z m 3.66404,0.22521 c -0.27979,-3.12165 0.69155,-4.11428 0.69813,-0.40508 0.86072,1.27381 -0.83844,1.74802 -0.69813,0.40508 z m -2.63034,-1.54204 c 1.05349,-4.6734 0.27583,3.14696 0,0 z m 7.60702,1.99227 c -0.27793,-2.85905 -2.82874,0.30279 -1.36098,-3.50262 1.07781,-3.94132 2.90447,5.80457 1.36098,3.50262 z m -0.51139,-3.27374 c -0.3309,-0.59973 -0.20745,1.52176 0,0 z m -2.33099,0.83128 c -0.21836,-4.58764 0.94689,0.80843 0.37674,2.2754 -0.29655,-0.72256 -0.29212,-1.51348 -0.37674,-2.2754 z m 8.34238,1.29582 c -0.12659,-3.32359 0.71595,-1.11355 0.0823,0.80676 z m -2.10868,-0.44681 c -4.03275,-0.39708 1.05016,-6.16554 -0.76173,-1.5562 0.60253,0.67252 3.24554,3.41998 0.76173,1.5562 z m 2.04079,-3.90002 c 0.14447,-1.39757 -0.0851,-8.93854 -0.5244,-5.51293 -1.75088,-2.9998 1.76036,-5.22802 1.14471,-0.67649 0.0236,0.9692 -0.12525,10.62484 -0.62031,6.18942 z M 106.57235,118.713 c -0.199,-1.92598 0.86765,1.42241 0,0 z m 14.8072,-3.39791 c 0.56057,-1.44596 -0.29013,1.63657 0,0 z m 6.73149,0.79609 c 0.34567,-3.87717 -0.60727,-8.18798 0.0306,-11.78989 1.63715,3.67994 0.84396,8.25334 0.22083,12.2046 l -0.16747,-0.0919 z m 1.44179,-0.85353 c 0.53914,-2.95516 0.11653,-10.53744 0.79985,-10.93045 0.95387,1.34686 -0.40607,9.55642 -0.79985,10.93045 z m 3.25629,-0.0328 c 0.62424,-4.26134 -0.67169,-9.22605 0.41648,-13.10098 1.25234,2.88031 0.21649,8.6571 0.36778,12.60283 0.18428,0.37633 -0.65219,1.24135 -0.78427,0.49815 z m 2.0988,-2.37689 c 0.052,-4.25386 1.02243,-1.79087 0,0 z m 0.0853,-4.42718 c -0.34968,-1.84097 0.0629,-8.915903 2.02684,-7.152 -0.84246,0.91817 -1.44819,9.48456 -2.02684,7.152 z m -25.83436,-8.26034 c 2.27673,-0.546639 1.62873,0.33899 -0.0448,0.0648 z m 2.30616,-0.183354 c 1.52175,0.207474 -0.59974,0.330894 0,0 z m 19.35405,3.512024 c 0.9829,-1.17487 0.20183,1.41916 0,0 z" /></g></svg>
