<?xml version="1.0" encoding="UTF-8" standalone="no"?>
<!-- Created with Inkscape (http://www.inkscape.org/) -->

<svg
   width="112.84479mm"
   height="99.947441mm"
   viewBox="0 0 112.84479 99.947441"
   version="1.1"
   id="svg1"
   xml:space="preserve"
   xmlns="http://www.w3.org/2000/svg"
   xmlns:svg="http://www.w3.org/2000/svg"><defs
     id="defs1" /><g
     id="layer1"
     transform="translate(-48.577604,-98.509427)"><path
       id="path1"
       style="fill:#000000"
       d="m 113.83491,101.09202 c -0.30464,-3.3e-4 -0.65832,0.0142 -1.05936,0.0434 -1.29185,0.0942 -1.50188,0.31335 -0.92605,0.96738 0.3898,0.44274 0.72761,0.50372 0.72761,0.13126 0,-0.14552 0.41672,-0.26458 0.92604,-0.26458 0.50932,0 0.92604,-0.11536 0.92604,-0.25632 0,-0.14098 0.1786,-0.18767 0.39688,-0.10387 0.21828,0.0838 0.39687,0.029 0.39687,-0.12195 0,-0.26094 -0.47411,-0.39435 -1.38803,-0.39533 z m 2.29857,0.0837 c -0.37239,0 -0.6082,0.11178 -0.524,0.24804 0.18186,0.29423 1.20096,0.26045 1.20096,-0.0398 0,-0.11458 -0.30457,-0.20825 -0.67696,-0.20825 z m -8.48785,0.39325 c -5.25633,-0.0161 -15.577045,0.18716 -17.91674,0.41342 -1.434245,0.13869 -4.648938,0.26415 -7.14375,0.27905 -3.550062,0.0211 -4.349248,0.0869 -3.676261,0.30282 1.22034,0.39147 1.06548,0.74536 -0.264584,0.60462 -0.883729,-0.0935 -0.994005,-0.0651 -0.516247,0.13125 0.730944,0.29997 8.574994,0.29554 8.389152,-0.005 -0.07158,-0.11582 0.196653,-0.30134 0.595829,-0.41238 1.225996,-0.34104 1.491441,-0.36149 1.775085,-0.13746 0.356486,0.28155 3.813187,0.75032 7.152535,0.96997 1.455207,0.0957 2.824428,0.28131 3.042709,0.41237 0.218281,0.1311 0.992192,0.17312 1.719792,0.093 0.72761,-0.0801 1.50151,-0.16113 1.71979,-0.17983 0.21829,-0.0187 0.48426,-0.16464 0.59118,-0.32453 0.12973,-0.1941 0.19544,-0.17008 0.19844,0.0724 0.003,0.24736 0.10957,0.28306 0.33486,0.11265 0.1819,-0.13758 0.74569,-0.27471 1.25264,-0.30541 0.50695,-0.0307 1.03658,-0.171 1.17719,-0.31161 0.14062,-0.14061 1.0061,-0.25579 1.92288,-0.25579 1.00908,0 1.66656,-0.11208 1.66656,-0.28371 0,-0.15594 0.3271,-0.24523 0.72657,-0.19843 0.80125,0.0939 1.05664,-0.57252 0.33745,-0.88057 -0.14352,-0.0615 -1.33297,-0.0913 -3.08508,-0.0966 z m 16.44137,0.92966 c -0.64929,0 -0.45148,0.67603 0.31626,1.08004 0.90522,0.47636 1.71796,1.23397 2.31562,2.15904 0.26685,0.41304 0.59865,0.64763 0.7705,0.54467 0.16603,-0.0994 0.13937,0.0191 -0.0589,0.26355 -0.30821,0.37999 -0.29882,0.46826 0.0646,0.60772 0.23379,0.0897 0.36796,0.25621 0.29766,0.37 -0.0703,0.11378 0.0458,0.35116 0.25838,0.52762 0.33146,0.27508 0.33376,0.37369 0.016,0.69143 -0.20383,0.20383 -0.45201,0.37052 -0.55191,0.37052 -0.0999,0 -1.09085,-0.87264 -2.20193,-1.93942 -1.76091,-1.69071 -4.42216,-3.61683 -4.99763,-3.61683 -0.1054,0 0.58065,0.52039 1.52497,1.156 2.18909,1.47343 6.06264,5.49119 7.14841,7.41505 0.86428,1.53142 1.21505,1.87534 0.9741,0.95395 -0.0762,-0.29124 -0.0446,-0.47171 0.0698,-0.40101 0.11438,0.0707 0.27047,0.36846 0.34727,0.66197 0.0872,0.33343 0.035,0.46929 -0.13901,0.36174 -0.18803,-0.11617 -0.2093,0.077 -0.0656,0.59479 0.11707,0.42189 0.2975,1.30267 0.40049,1.95751 0.103,0.65483 0.20271,0.92964 0.22221,0.61081 0.0194,-0.31883 0.15479,-0.65342 0.30075,-0.74362 0.15895,-0.098 0.21973,0.0823 0.15193,0.44752 -0.0623,0.33629 -0.12394,0.96852 -0.13694,1.40508 -0.0183,0.61327 -0.0819,0.7035 -0.28009,0.39687 -0.19064,-0.29503 -0.24976,-0.15925 -0.22996,0.52917 0.0146,0.50932 0.0813,0.71768 0.1478,0.46302 0.0666,-0.25466 0.23102,-0.46302 0.36587,-0.46302 0.2864,0 0.32951,0.62185 0.0615,0.88987 -0.33039,0.33042 -0.32595,1.04873 0.0279,4.27261 0.28588,2.60458 0.49832,3.47296 1.17667,4.81676 1.02788,2.0362 2.09104,3.26433 3.7667,4.35012 0.71382,0.46253 1.29811,0.9233 1.29811,1.02371 0,0.20178 -2.78014,2.13395 -3.49178,2.42672 -0.85559,0.35199 -1.10944,2.17622 -0.75861,5.45342 0.24945,2.33122 0.24999,3.07678 0.002,3.3755 -0.41121,0.49548 -0.1518,2.13772 0.44132,2.79311 0.26874,0.29696 0.80477,0.4961 1.33428,0.4961 0.80173,0 1.33482,0.51715 0.55449,0.53795 -0.1819,0.005 -0.0462,0.24604 0.30179,0.53588 0.857,0.7137 0.55576,0.92846 -0.32763,0.23358 -0.92772,-0.72974 -0.88798,-0.42712 0.11007,0.83302 0.81895,1.03395 0.83743,1.56373 0.0543,1.56373 -0.23398,0 -0.35028,-0.075 -0.25838,-0.16691 0.20118,-0.20118 -0.2734,-1.156 -0.57464,-1.156 -0.29195,0 -0.82683,1.2263 -0.82683,1.89549 0,0.41156 -0.12762,0.51409 -0.51263,0.41341 -0.78367,-0.20494 -1.40948,1.49477 -0.95446,2.59261 0.26762,0.64609 0.2659,0.90122 -0.01,1.32291 -0.34301,0.52458 -0.51275,3.82549 -0.37362,7.26933 0.0382,0.94589 -0.02,2.07698 -0.12919,2.51354 l 0.001,-5.2e-4 c -0.19014,0.75985 -0.18096,0.77114 0.22015,0.26458 0.23046,-0.29104 0.42236,-1.02174 0.42736,-1.62367 l 0.008,-1.09451 1.31155,0.12299 c 1.19376,0.11206 1.42526,0.0364 2.57968,-0.84697 l 1.26814,-0.97049 0.15245,1.6769 c 0.0945,1.03745 0.17024,-0.11389 0.19844,-3.01893 l 0.046,-4.69636 h 2.23345 c 1.22833,0 2.29599,0.10182 2.37299,0.22635 0.077,0.12453 2.25677,0.3008 4.84414,0.3917 2.58738,0.0909 5.74643,0.24383 7.01973,0.34003 l 2.3151,0.17467 v -2.94762 c 0,-2.32393 -0.19288,-3.28178 -0.36121,-2.76108 -0.93056,-0.4443 -0.90538,-0.49486 -1.84279,-0.71985 -0.76462,-0.18351 -1.3824,-0.31176 -2.19366,-0.46199 -0.62902,-0.11648 0.28407,0.0223 -0.57723,-0.23099 -0.48296,-0.14205 -1.00967,-0.16559 -1.50068,-0.28835 -0.0181,-0.005 -1.32317,-0.34133 -1.32808,-0.34624 -0.0136,-0.0136 0.0183,-0.0518 0,-0.0579 -0.42962,-0.14321 -0.87107,-0.15113 -1.30948,-0.21136 l 8.74882,2.32957 c -0.0957,0.30621 -0.18354,1.08025 -0.2217,2.38022 l -0.0754,2.57969 -3.04271,-0.009 -3.04271,-0.009 0.0537,-0.7183 c 0.008,-0.11189 0.006,-0.19287 0.003,-0.27337 0.004,0.093 0.004,0.19875 0.002,0.33435 l -0.0103,0.60926 1.62677,0.0165 c 0.89486,0.009 2.24149,0.022 2.99258,0.0294 l 1.36581,0.0134 0.0326,-0.53382 c 0.018,-0.29368 0.0481,-1.09246 0.0667,-1.77508 0.0313,-1.15031 0.0994,-2.13601 0.17208,-2.48254 l 0.0305,-0.14418 -4.43177,-1.17615 c -2.4375,-0.64688 -4.80538,-1.27802 -5.26169,-1.4025 -0.45631,-0.12448 -0.8344,-0.21866 -0.84078,-0.20929 -0.006,0.009 -0.0575,0.14094 -0.11369,0.29249 -0.14124,0.3811 -0.46377,0.84465 -1.01285,1.45624 -0.59455,0.66224 -0.81025,1.07494 -0.81184,1.55339 -0.001,0.3508 -0.0418,0.68326 -0.17725,1.45005 -0.084,0.47541 -0.0494,0.66927 0.13281,0.74879 0.0795,0.0347 0.2045,0.20755 0.31316,0.43305 0.19651,0.40785 0.39767,0.57669 0.68884,0.57722 0.23786,4.1e-4 0.69427,0.14017 1.23817,0.37931 0.60446,0.26576 1.172,0.37909 1.9327,0.38602 0.8342,0.008 1.25069,-0.0841 1.52239,-0.33486 0.17487,-0.1614 0.19908,-0.21039 0.14573,-0.29714 -0.0352,-0.0572 -0.16049,-0.13084 -0.27802,-0.16382 -0.15646,-0.0439 -0.22518,-0.085 -0.21136,-0.11782 -0.002,0.0227 0.07,0.0512 0.24908,0.0977 0.37872,0.0982 0.41279,0.20117 0.16588,0.49868 -0.41316,0.49787 -2.54513,0.4834 -3.51761,-0.0238 -0.41682,-0.21739 -0.99354,-0.39532 -1.28158,-0.39532 -0.30117,0 -0.58237,-0.22485 -0.66197,-0.52917 -0.0761,-0.29104 -0.25263,-0.52916 -0.39275,-0.52916 -0.1515,0 -0.17525,-0.3485 -0.0579,-0.8599 0.10853,-0.47295 0.17939,-1.12508 0.15709,-1.44952 -0.0244,-0.35367 0.31236,-0.94281 0.84078,-1.47123 0.48476,-0.48476 0.9606,-1.19695 1.0573,-1.58233 0.018,-0.0717 0.0182,-0.11435 0.0294,-0.17312 0.006,-8e-5 0.012,1.3e-4 0.0176,0 l -0.017,-0.005 c 0.0881,-0.46754 -0.059,-0.57894 -0.98133,-0.83147 -0.61974,-0.16969 -2.01953,-0.32749 -3.11093,-0.35089 l -1.98437,-0.0429 -1.65365,1.58957 c -0.90951,0.87419 -1.65364,1.44377 -1.65364,1.26607 0,-0.17769 0.13874,-0.32298 0.30851,-0.32298 0.16979,0 0.23531,-0.0737 0.14521,-0.16381 -0.0901,-0.0901 0.004,-0.33124 0.20877,-0.5364 0.49535,-0.49536 0.21624,-1.151 -0.49248,-1.156 -0.43798,-0.003 -0.4817,-0.0578 -0.19172,-0.24133 0.26396,-0.16707 -0.011,-0.28885 -0.92604,-0.4098 -0.7158,-0.0946 -1.47981,-0.19827 -1.69809,-0.23047 -0.29853,-0.0441 -0.38534,-0.38043 -0.34984,-1.35651 0.0406,-1.11679 0.17434,-1.41058 0.95808,-2.10737 0.50089,-0.44532 1.12383,-1.28602 1.38441,-1.8681 0.26057,-0.58209 0.69395,-1.35696 0.96325,-1.72237 0.56464,-0.76617 0.79572,-1.54953 0.89658,-3.04013 0.0394,-0.58209 0.19298,-1.35599 0.34158,-1.71979 0.21038,-0.51505 0.27976,-0.0173 0.31316,2.24896 0.0236,1.60073 0.13328,3.56525 0.24392,4.36562 0.11064,0.80036 0.21824,-4.75108 0.23874,-12.33671 0.0323,-11.9678 -0.0153,-13.83581 -0.35967,-14.12162 -0.21828,-0.18116 -0.39687,-0.54671 -0.39687,-0.81235 0,-0.6956 -2.54153,-5.28467 -3.36,-6.06682 l -0.69247,-0.66146 0.71727,1.19063 c 2.50997,4.16519 3.90684,8.19846 3.3321,9.62215 -0.12535,0.31043 -0.23595,0.41892 -0.24495,0.24133 -0.009,-0.17759 -0.29538,-0.95149 -0.63614,-1.71979 -0.34075,-0.76829 -0.96598,-2.32512 -1.38906,-3.45974 -0.73456,-1.9699 -1.71273,-3.49985 -3.86385,-6.04201 -0.53773,-0.6355 -1.32618,-1.59899 -1.75183,-2.14095 -2.03452,-2.5905 -3.48559,-3.61857 -5.27409,-3.73724 -0.32742,-0.0217 -0.59532,-0.12909 -0.59532,-0.23823 0,-0.10914 -0.17858,-0.19844 -0.39687,-0.19844 z m 21.96868,47.11599 1.40354,0.37362 c -0.15244,-0.0626 -0.30302,-0.1364 -0.4284,-0.18655 -0.35036,-0.14014 -0.10542,-0.008 -0.40411,-0.0579 -0.12004,-0.02 -0.22671,-0.0952 -0.34675,-0.11524 -0.10963,-0.0183 -0.16696,-0.0153 -0.22428,-0.0139 z m 1.40354,0.37362 c 0.10937,0.0449 0.2197,0.0848 0.32194,0.1018 0.0444,0.007 0.0888,0.0135 0.13333,0.0196 z M 88.21167,103.43813 c -0.534512,0.0268 -1.120644,0.11709 -1.249536,0.24598 -0.07565,0.0756 0.351548,0.13746 0.949296,0.13746 0.597748,0 1.155181,-0.11106 1.239201,-0.24701 0.07809,-0.12635 -0.40445,-0.1632 -0.938961,-0.13643 z m 28.0262,0.91519 c -0.39512,-10e-4 -0.87683,0.0157 -1.50275,0.0408 -1.66597,0.0669 -2.7816,0.23516 -3.05305,0.46044 -0.23527,0.19531 -0.42788,0.27257 -0.42788,0.17208 0,-0.10049 -0.37657,0.086 -0.83716,0.41393 -0.4606,0.32797 -1.56191,0.85864 -2.44739,1.17926 -0.88547,0.32062 -1.56142,0.6855 -1.50172,0.8108 0.0596,0.1253 1.44829,0.54184 3.0856,0.92604 5.27549,1.23791 7.58506,2.31278 8.29923,3.86127 0.57874,1.25483 0.843,8.26288 0.53796,14.27303 -0.44681,8.80334 -0.76759,27.42392 -0.72399,42.0212 0.0613,20.54317 0.19089,19.00187 -1.74615,20.70262 -1.45666,1.27896 -2.44635,1.48059 -6.36188,1.29501 -1.905,-0.0903 -9.05982,-0.23234 -15.899291,-0.31574 -6.839472,-0.0834 -12.711871,-0.20809 -13.049849,-0.27699 l -0.614433,-0.12557 0.142627,-4.00596 c 0.135991,-3.82458 0.175697,-4.05571 0.879016,-5.11493 3.304216,-4.9763 5.059465,-7.26364 5.574854,-7.26364 0.225053,0 0.325691,-0.0831 0.223759,-0.18501 -0.1999,-0.19989 5.620181,-6.16499 6.015136,-6.16499 0.136318,0 0.185219,1.75848 0.113689,4.11189 -0.06874,2.26151 -0.03302,4.1689 0.07958,4.2385 0.112603,0.0696 0.242048,-1.92961 0.287838,-4.44262 l 0.0832,-4.56923 1.532723,-1.52136 c 0.842905,-0.83675 1.626209,-1.52135 1.740979,-1.52135 0.11477,0 0.377641,-0.31525 0.583944,-0.70073 0.42427,-0.79276 4.710428,-4.85265 5.129918,-4.85965 0.15023,-0.002 0.68956,-0.86329 1.19889,-1.91307 1.03035,-2.12369 2.44566,-3.78812 4.94337,-5.81463 0.91926,-0.74584 1.67122,-1.50805 1.67122,-1.69343 0,-0.18537 0.29766,-0.65804 0.66146,-1.05059 0.92299,-0.99592 0.87804,-1.69498 -0.10956,-1.69498 -0.6165,0 -1.33374,0.53681 -3.57084,2.6727 -1.53958,1.46993 -3.62213,3.76188 -4.62762,5.09323 -1.00549,1.33135 -3.446636,4.02627 -5.424996,5.98878 l -3.597196,3.56826 -0.04444,-1.71617 c -0.02798,-1.07963 -0.07699,-1.32365 -0.132292,-0.65785 -0.276343,3.32733 0.02869,2.86383 -5.060156,7.69669 -2.576534,2.44693 -5.801049,5.70496 -7.165454,7.23987 -1.364405,1.53491 -2.584797,2.76078 -2.711979,2.72438 -0.127182,-0.0364 -0.24521,0.0827 -0.262,0.26459 -0.01679,0.1819 -0.04655,0.4835 -0.06615,0.67024 -0.01959,0.18675 -0.194276,0.43857 -0.388606,0.55914 -0.194326,0.12057 -0.325752,0.26544 -0.291972,0.32194 0.03378,0.0565 -0.02622,0.37877 -0.133325,0.71624 -0.185788,0.58536 -0.212751,0.59145 -0.587561,0.13229 -0.216073,-0.2647 -0.338805,-0.36256 -0.272335,-0.21704 0.183421,0.40158 -0.306674,1.51102 -0.590145,1.33583 -0.136696,-0.0845 -0.334467,-0.0143 -0.439766,0.15607 -0.119572,0.1935 -0.07709,0.23882 0.113688,0.12092 0.168005,-0.10385 0.305407,-0.0626 0.305407,0.0915 0,0.15411 -0.105607,0.28008 -0.234611,0.28008 -0.129004,0 -0.285866,0.35093 -0.348816,0.7798 -0.06294,0.42888 -0.0249,0.72472 0.08423,0.65732 0.109134,-0.0675 0.264692,-0.0146 0.346232,0.11731 0.08154,0.13194 -0.263007,0.31704 -0.765845,0.41134 -0.661409,0.12408 -1.209292,0.021 -1.981791,-0.3731 -0.940043,-0.47957 -1.073443,-0.66295 -1.112593,-1.53169 l -0.04444,-0.98702 -0.102836,0.97824 c -0.08307,0.78926 -0.189448,0.94552 -0.550871,0.80873 -0.397172,-0.15033 -0.394135,-0.1151 0.02894,0.31161 0.262406,0.26466 0.440995,0.73406 0.396875,1.04335 -0.07126,0.49942 -0.24278,0.55957 -1.535307,0.53537 -0.800364,-0.015 -1.956133,-0.11871 -2.568319,-0.23048 -1.073967,-0.19608 -1.119005,-0.24483 -1.29036,-1.38751 -0.108849,-0.72586 -0.04826,-1.57712 0.157096,-2.19935 0.184271,-0.55835 0.261713,-1.38223 0.172083,-1.83038 -0.152305,-0.76152 -0.120109,-0.80396 0.488859,-0.65112 0.519899,0.13048 0.699964,0.0377 0.891935,-0.45941 0.312301,-0.80868 1.229492,-1.85094 1.441772,-1.63866 0.260245,0.26025 0.959788,-0.44448 0.921908,-0.92862 -0.129827,-1.65913 0.419046,-1.83889 0.729154,-0.23875 l 0.218075,1.12448 0.09715,-1.00821 c 0.150477,-1.55767 0.831232,-1.16262 1.962671,1.13947 0.535078,1.08871 1.298306,2.25981 1.69602,2.60191 0.661568,0.56906 0.744671,0.58326 0.975651,0.17053 0.570582,-1.01958 0.05171,-3.14743 -1.636076,-6.71018 -1.217602,-2.57024 -1.616561,-3.67921 -1.496032,-4.15944 0.183416,-0.73079 0.677994,-0.61355 0.677994,0.16071 0,0.27386 0.103243,0.56176 0.229444,0.63976 0.346764,0.21431 0.532442,-1.80594 0.414445,-4.51497 -0.06817,-1.56521 0.01591,-2.77218 0.238745,-3.41581 l 0.344682,-0.99529 1.209745,1.56373 c 1.521654,1.96641 3.141324,2.90808 4.547526,2.64428 0.541109,-0.10151 1.182004,-0.41581 1.424202,-0.69867 0.242198,-0.28287 0.545244,-0.51469 0.673861,-0.51469 0.349612,0 1.327518,-1.30857 1.667082,-2.23139 0.164113,-0.446 0.72966,-1.44813 1.256771,-2.22674 0.527109,-0.77861 0.960015,-1.73112 0.962215,-2.11667 0.0032,-0.54979 0.0593,-0.61562 0.260449,-0.30437 0.199152,0.30816 0.257349,0.23085 0.260449,-0.34623 0.0022,-0.40877 0.114074,-0.67553 0.248047,-0.59273 0.452952,0.27993 0.45755,-3.85782 0.0062,-5.57744 -0.48207,-1.83668 -1.95037,-3.64223 -3.885034,-4.778 -0.960542,-0.56389 -1.082511,-0.73093 -0.850594,-1.16427 0.148905,-0.27823 0.39258,-0.50591 0.541569,-0.50591 0.148985,0 0.198307,-0.11809 0.109037,-0.26252 -0.393475,-0.63666 -4.880807,2.43868 -6.0849,4.17029 -2.116357,3.04355 -2.407395,3.7934 -2.755387,7.09414 -0.407633,3.86644 -0.74769,5.54378 -1.200443,5.91953 -0.271433,0.22527 -0.779157,-0.51619 -2.363164,-3.45198 -1.109537,-2.05641 -2.017448,-3.84057 -2.017448,-3.96462 0,-0.33148 -1.026211,-0.82425 -1.328084,-0.63768 -0.337938,0.20888 -0.334538,1.10935 0.0052,1.31929 0.145521,0.0899 0.264583,0.56674 0.264583,1.05937 0,0.65537 0.2487,1.166 0.926042,1.90273 1.117756,1.21576 2.666568,4.08889 2.909383,5.39657 0.18154,0.97769 -0.223097,3.01297 -0.65164,3.27783 -0.132754,0.082 -0.678626,-0.59785 -1.213363,-1.5105 -0.534736,-0.91264 -1.564184,-2.40347 -2.287715,-3.31297 -1.236349,-1.55413 -1.799374,-1.99119 -1.799374,-1.39734 0,0.14096 -0.170353,0.19111 -0.378788,0.11111 -0.56628,-0.2173 -0.351658,1.27423 0.475423,3.30419 0.378037,0.92784 0.622753,1.79105 0.544153,1.91823 -0.0786,0.12719 -0.02855,0.23099 0.111105,0.23099 0.247248,0 0.221172,0.96986 -0.106454,3.96875 -0.237939,2.17796 -1.35944,6.78822 -2.1146,8.69198 l -0.666626,1.68 0.691948,1.18029 c 0.380417,0.64914 0.860721,1.24558 1.067635,1.32498 0.236644,0.0908 0.376204,0.52873 0.376204,1.18081 0,0.94015 -0.07388,1.0513 -0.79375,1.19528 -0.436561,0.0873 -0.79375,0.27155 -0.79375,0.40927 0,0.61221 -0.77362,-0.6016 -0.936377,-1.46916 -0.280344,-1.49437 -0.694599,-1.1559 -0.488342,0.39894 0.12521,0.94388 0.0933,1.30855 -0.103353,1.18701 -0.156171,-0.0965 -0.345446,0.0345 -0.420646,0.29094 -0.0752,0.25645 -0.101041,0.0471 -0.05736,-0.46509 0.04368,-0.51218 -0.07074,-1.52421 -0.254248,-2.24896 -0.308736,-1.2193 -0.914673,-6.83109 -0.914673,-8.47131 0,-0.59162 0.09349,-0.68882 0.549838,-0.56948 0.521339,0.13633 0.517907,0.11403 -0.06615,-0.43201 l -0.615983,-0.5762 -0.203089,0.66146 c -0.111853,0.3638 -0.08832,1.91162 0.05271,3.43959 0.309898,3.35765 0.560575,8.78199 0.375688,8.13283 -0.07304,-0.25644 -0.233971,-0.40351 -0.357601,-0.32711 -0.12363,0.0764 -0.36934,-0.75571 -0.545703,-1.84898 -0.176364,-1.09328 -0.39759,-1.98799 -0.49196,-1.98799 -0.09437,0 -0.179202,-0.20836 -0.188102,-0.46302 -0.0089,-0.25466 -0.163237,-1.88243 -0.343131,-3.61735 -0.284755,-2.74623 -0.210978,-6.24128 0.14366,-6.81509 0.06386,-0.10333 0.120374,-1.38786 0.125574,-2.85409 0.0056,-1.59193 0.109514,-2.60369 0.257865,-2.51199 0.136637,0.0844 0.248047,0.0371 0.248047,-0.10491 0,-0.14198 -0.112936,-0.29773 -0.251147,-0.34623 -0.138213,-0.0485 -0.2805,-0.59438 -0.31626,-1.21284 -0.03576,-0.61846 -0.160948,-1.12448 -0.278019,-1.12448 -0.117075,0 -0.212907,-0.10845 -0.212907,-0.24133 0,-0.47396 1.567026,0.35806 1.6769,0.89038 0.387208,1.87597 -0.296228,-11.95886 -0.770496,-15.59801 l -0.137976,-1.05834 0.500228,1.05834 c 0.595175,1.26009 1.222484,1.8362 1.770951,1.62574 0.565093,-0.21685 0.505501,-0.97356 -0.511596,-6.52002 -0.493623,-2.69183 -0.851174,-4.94019 -0.794784,-4.99659 0.217722,-0.21772 1.431893,0.79487 2.406572,2.00711 0.560804,0.69749 1.478821,1.76744 2.040185,2.37763 0.895115,0.97297 1.085382,1.07069 1.546159,0.79427 0.584617,-0.35071 0.576695,-0.99778 -0.08837,-6.92981 -0.317397,-2.83105 -0.364015,-8.12912 -0.113688,-12.96458 0.10355,-2.00023 0.08264,-2.18254 -0.131775,-1.13998 -0.140388,0.68264 -0.350128,2.46858 -0.465604,3.96875 l -0.209807,2.72748 -0.466638,-1.52136 c -0.484657,-1.57967 -0.637143,-1.73636 -1.169954,-1.20354 -0.43522,0.43522 -0.400717,1.45567 0.188102,5.5547 0.278123,1.93614 0.511965,4.09691 0.519865,4.80177 0.0169,1.51159 0.137293,1.56534 -2.877861,-1.28106 -1.091405,-1.03031 -2.419087,-2.22585 -2.950724,-2.65668 -0.653232,-0.52938 -1.064127,-1.14798 -1.267106,-1.90789 -0.165196,-0.61846 -0.405616,-1.12448 -0.534334,-1.12448 -0.128718,0 -0.591283,0.35719 -1.027845,0.79375 -0.436562,0.43657 -0.859857,0.79375 -0.941027,0.79375 -0.08118,0 -0.08468,-0.56555 -0.0072,-1.25677 0.408787,-3.6489 0.736057,-6.04978 1.195276,-8.77363 0.279958,-1.66056 0.457431,-3.07107 0.394291,-3.13417 -0.06314,-0.0631 -0.328586,0.13489 -0.589628,0.43976 -0.261042,0.30488 -0.71571,0.55776 -1.010791,0.56276 -1.381995,0.0227 -2.955158,2.63081 -4.656563,7.72046 -1.944577,5.81706 -2.094145,6.74802 -2.394686,14.89263 -0.150355,4.07458 -0.304478,8.95615 -0.342098,10.84791 -0.128298,6.45167 -0.147646,6.74688 -0.448035,6.74688 -0.1696,0 -0.233639,-0.25103 -0.151929,-0.59531 0.07771,-0.32742 0.224235,-5.65548 0.325562,-11.84011 0.101327,-6.18463 0.272477,-11.42338 0.380338,-11.64166 0.107862,-0.21828 0.273977,-1.09201 0.369487,-1.942 0.231039,-2.05615 1.871288,-8.35453 2.581754,-9.91309 0.891788,-1.95633 1.033755,-2.63545 0.586528,-2.80707 -0.21267,-0.0816 -0.328585,-0.0545 -0.257865,0.06 0.170943,0.27659 -0.114973,0.64859 -0.762745,0.99322 -0.47896,0.25482 -1.59492,2.19408 -1.876888,3.2613 -0.512957,1.94149 -1.339371,6.11702 -1.231966,6.22442 0.07381,0.0738 -0.103088,0.64512 -0.392741,1.26918 -1.158655,2.49632 -1.221018,3.38276 -1.241268,17.53846 l -0.01964,13.49375 0.890385,3.175 c 0.88273,3.14858 0.888484,3.20895 0.731222,7.22333 -0.116688,2.97867 -0.0791,3.9994 0.141077,3.86333 0.20854,-0.12889 0.245597,0.0272 0.122989,0.51573 -0.09675,0.38551 -0.06631,0.70074 0.0677,0.70074 0.134004,0 0.326513,0.71463 0.42788,1.58801 0.101367,0.87339 0.293789,1.6558 0.427365,1.7384 0.133576,0.0825 0.179135,0.25282 0.101285,0.37879 -0.131099,0.21212 0.959095,3.32968 1.480013,4.2323 0.125974,0.21828 0.665341,1.17077 1.198377,2.11666 2.99398,5.31288 4.082272,6.68156 6.582544,8.27547 0.727603,0.46384 1.36299,0.93533 1.4118,1.048 0.04881,0.11269 0.197637,0.13759 0.330729,0.0553 0.133092,-0.0823 0.241846,-0.0234 0.241846,0.13074 0,0.15411 0.178594,0.28009 0.396875,0.28009 0.218281,0 0.396875,0.10328 0.396875,0.22944 0,0.12617 2.232425,0.3166 4.960937,0.42271 2.728514,0.10612 5.110823,0.31543 5.293734,0.46561 0.215748,0.1771 1.354239,0.20705 3.241146,0.0847 1.778128,-0.11526 2.908349,-0.0915 2.908349,0.061 0,0.14124 2.266151,0.33313 5.224488,0.44235 2.887422,0.10661 5.295431,0.30838 5.38365,0.45113 0.08882,0.14375 1.219372,0.23487 2.548682,0.20567 1.313891,-0.0289 2.526376,0.0321 2.694409,0.13591 0.168033,0.10387 1.462638,0.16436 2.876827,0.13436 1.41419,-0.03 2.789798,0.0371 3.057178,0.14883 0.455326,0.19031 1.837416,-0.0443 6.392896,-1.08469 2.1663,-0.49477 5.14386,-0.3711 6.35,0.26355 0.43656,0.2297 0.94258,0.4182 1.12448,0.4191 0.1819,9e-4 0.33073,0.12061 0.33073,0.26613 0,0.14552 0.21451,0.26458 0.47645,0.26458 0.26194,0 0.59805,0.12159 0.74673,0.27027 0.14868,0.14868 0.79736,0.38016 1.44177,0.51418 0.96446,0.20059 3.04494,0.15701 5.27255,-0.11007 0.60908,-0.073 3.21139,-0.96328 4.10104,-1.40301 0.43656,-0.21578 1.4486,-0.945 2.24896,-1.62058 2.45669,-2.07366 3.75066,-3.05434 5.95312,-4.51135 2.91192,-1.92633 3.44299,-2.48282 4.2199,-4.4235 0.58826,-1.46934 0.67489,-2.08175 0.67489,-4.76354 v -3.07681 l 5.49011,0.18758 c 3.01956,0.10341 6.62121,0.29573 8.00364,0.42737 1.38245,0.13164 3.49581,0.2425 4.69636,0.2465 l 2.18281,0.007 v -4.48706 -4.48707 l -0.79323,0.0553 c -0.39404,0.0276 -0.61056,0.0988 -0.70177,0.18603 -0.40526,-0.0772 -0.80088,-0.18098 -1.24695,-0.24856 -1.1438,-0.1733 -2.31806,0.0462 -3.46387,-0.0579 -1.56449,-0.14222 -3.16069,-0.0574 -4.73356,-0.0574 h -1.96267 c -0.25775,0 -0.55516,-0.0422 -0.80822,0 -0.0996,0.0166 -0.19401,0.0284 -0.28836,0.0377 -0.30968,-0.0334 -0.53946,-0.0633 -0.95033,-0.10387 -2.84035,-0.28057 -3.29635,-0.19993 -4.29069,0.75758 -0.46823,0.45088 -1.06563,0.83543 -1.32757,0.85473 -0.68713,0.0506 -1.16346,0.40037 -0.97048,0.71262 0.19518,0.3158 -0.66266,2.33991 -0.99167,2.33991 -0.21795,0 -0.33173,-0.58433 -0.24443,-1.25677 0.0732,-0.56355 -0.21317,-0.36593 -0.6258,0.43201 -0.21694,0.41951 -0.67574,0.83354 -1.01958,0.91984 -0.34385,0.0863 -0.94338,0.452 -1.33222,0.81235 -0.84711,0.78508 -0.90377,0.6414 -0.15968,-0.40359 0.30093,-0.42264 0.47591,-0.76843 0.38861,-0.76843 -0.0873,0 0.0116,-0.32549 0.22014,-0.72347 0.34749,-0.66321 0.32426,-0.82332 -0.28112,-1.91823 -0.36329,-0.65705 -0.9174,-1.47174 -1.23093,-1.81074 -0.50759,-0.54876 -0.56372,-0.88251 -0.51522,-3.04271 0.21101,-9.39878 0.25364,-10.12716 0.64958,-11.02568 0.32886,-0.74629 0.38872,-1.7734 0.30902,-5.29167 -0.1814,-8.00596 -0.2718,-10.18022 -0.4563,-10.94868 -0.10068,-0.41939 -0.0466,-1.43142 0.11989,-2.24896 0.3209,-1.57538 1.5127,-4.06802 1.8464,-3.86178 0.33791,0.20884 -0.77703,-3.06114 -1.29657,-3.80287 -1.02438,-1.46249 -1.88219,-5.30428 -1.88619,-8.44445 -0.002,-2.02803 -0.89217,-7.72018 -1.45675,-9.32036 -0.61852,-1.75306 -7.32265,-8.44778 -9.58133,-9.56789 -1.1753,-0.58285 -1.58038,-0.74709 -2.76572,-0.75034 z m -31.792378,1.31051 c -1.650214,-0.0209 -3.044152,0.005 -3.882968,0.0946 -0.800364,0.0853 -1.623707,0.16043 -1.829862,0.16743 -0.206152,0.007 -0.308406,0.0787 -0.227376,0.15968 0.08103,0.081 2.630785,0.21236 5.66632,0.29146 3.035534,0.0791 7.18592,0.233 9.22321,0.3421 2.037289,0.10911 4.120886,0.20649 4.630208,0.21549 l 0.926042,0.0165 -0.79375,-0.25476 c -1.503109,-0.48242 -8.761183,-0.96971 -13.711824,-1.0325 z m 18.342028,1.62988 c -0.16784,0 -0.33569,0.0163 -0.46302,0.0496 -0.25466,0.0665 -0.0463,0.12144 0.46302,0.12144 0.50932,0 0.71768,-0.0549 0.46303,-0.12144 -0.12733,-0.0333 -0.29518,-0.0496 -0.46303,-0.0496 z m -14.196028,4.01577 c -1.181585,0.0226 -3.251412,0.75754 -5.908684,2.11977 -1.380503,0.70771 -2.628569,1.35993 -2.773474,1.44953 -0.144904,0.0895 -0.452151,0.17678 -0.683162,0.19378 -0.23101,0.017 -0.970728,0.1848 -1.643311,0.37311 -0.96626,0.27054 -1.278445,0.50245 -1.488798,1.10587 -0.146424,0.42002 -0.198248,0.76378 -0.115238,0.76378 0.08301,0 0.0072,0.17291 -0.167949,0.38396 -0.271179,0.32675 -0.456675,0.25799 -1.249019,-0.46303 -1.07163,-0.97515 -1.531768,-1.06913 -1.559078,-0.31781 -0.02466,0.6782 -1.171187,3.3073 -1.442289,3.3073 -0.113144,0 -0.313055,0.44648 -0.444417,0.99218 -0.215041,0.89327 -0.316602,0.98541 -1.018543,0.92191 -0.665438,-0.0602 -0.868929,0.0866 -1.388029,1.00097 -0.700765,1.23443 -1.236236,4.98959 -0.980302,6.87452 0.352643,2.59717 0.790532,4.05033 1.257805,4.17339 0.254661,0.0671 0.46302,0.21549 0.46302,0.33021 0,0.11472 0.546475,0.52872 1.21388,0.91984 1.034216,0.60605 1.407294,0.68731 2.527494,0.55087 0.722893,-0.088 1.596205,-0.34443 1.94045,-0.56999 0.344245,-0.22555 0.843644,-0.37303 1.11001,-0.32763 0.438083,0.0747 0.501019,-0.2077 0.656807,-2.96002 0.09473,-1.67349 0.306955,-3.69756 0.471806,-4.49792 0.191676,-0.93059 0.235506,-2.57398 0.12144,-4.55838 -0.18693,-3.25203 -0.02576,-3.93067 0.899686,-3.78891 0.265982,0.0407 0.521845,-0.1595 0.623218,-0.48783 0.146987,-0.47606 0.175908,-0.44831 0.198438,0.1912 0.02414,0.68508 0.09198,0.73428 0.7953,0.57981 0.440878,-0.0968 0.842255,-0.0496 0.941545,0.11111 0.0952,0.15404 0.35171,0.28008 0.569991,0.28008 0.253113,0 0.320482,-0.1198 0.186552,-0.33073 -0.348667,-0.54911 -0.255163,-0.83209 0.479557,-1.4552 0.782149,-0.66333 1.278656,-0.76408 1.303796,-0.26459 0.161084,3.20012 0.485411,4.74077 1.249536,5.93246 0.450647,0.7028 0.948559,1.85463 1.106393,2.56005 0.157833,0.70541 0.462477,1.45828 0.676961,1.67276 0.769295,0.7693 0.596619,1.00177 -2.828251,3.80494 -0.631052,0.5165 -1.564453,1.21987 -2.073775,1.56321 -0.509323,0.34333 -1.311041,0.98429 -1.781804,1.4242 -0.470762,0.4399 -0.940622,0.71457 -1.04438,0.61082 -0.103758,-0.10376 -0.314072,0.0315 -0.467155,0.30024 -0.304708,0.53499 -4.212833,4.29018 -4.464844,4.29018 -0.08586,0 -0.19731,-0.8632 -0.24753,-1.91823 l -0.09095,-1.91823 -0.05271,2.00814 c -0.05045,1.92707 -0.08957,2.04173 -0.971517,2.84428 -0.505444,0.45994 -1.003026,0.83612 -1.105875,0.83612 -0.102848,0 -0.67726,0.50602 -1.276408,1.12448 -1.594931,1.64635 -4.391085,3.76568 -5.018298,3.80338 -1.215092,0.0731 -1.266695,0.1014 -1.128614,0.62942 0.104131,0.3982 -0.01983,0.57035 -0.498161,0.6904 -0.350336,0.0879 -0.63717,0.27301 -0.63717,0.41134 0,0.1383 0.114934,0.18076 0.255282,0.0941 0.140348,-0.0867 0.06885,0.28752 -0.158647,0.83199 -0.378614,0.90614 -0.377399,0.96008 0.0098,0.63872 0.469672,-0.3898 0.541737,-0.21756 0.192753,0.45888 -0.126447,0.2451 -0.293377,1.74926 -0.371037,3.34295 -0.146012,2.9965 0.135169,3.33365 0.452169,0.54209 0.232928,-2.0512 0.37609,-2.51354 0.778247,-2.51354 0.181035,0 0.58999,-0.2428 0.908471,-0.53951 0.480866,-0.448 0.578776,-0.46769 0.578776,-0.1173 0,0.29965 0.189371,0.20681 0.653191,-0.32039 0.359202,-0.40863 0.656858,-0.59377 0.661458,-0.41187 0.0046,0.1819 0.129154,0.33073 0.276986,0.33073 0.147827,0 0.241182,-0.36458 0.207222,-0.81028 -0.05703,-0.74841 -0.08974,-0.77369 -0.428398,-0.33073 -0.3398,0.44446 -0.353343,0.43509 -0.185518,-0.12713 0.213107,-0.71392 2.036296,-2.70061 2.478402,-2.70061 0.168053,0 0.305407,-0.11905 0.305407,-0.26458 0,-0.14552 0.156424,-0.26458 0.347266,-0.26458 0.190842,0 0.585067,-0.22206 0.876432,-0.49351 0.527584,-0.49152 0.529622,-0.48447 0.413929,1.71979 -0.07111,1.35476 -0.01528,2.2133 0.144177,2.2133 0.145571,0 0.283879,-0.95925 0.313159,-2.17403 0.02882,-1.19567 0.17882,-2.32676 0.33383,-2.51354 0.15501,-0.18677 0.184278,-0.33951 0.06459,-0.33951 -0.119685,0 -0.08543,-0.13213 0.07648,-0.29404 0.530931,-0.53093 1.64259,0.54286 1.6738,1.61695 0.06184,2.12813 0.453001,1.92422 0.550871,-0.28732 0.0877,-1.98159 0.199698,-2.42114 0.879016,-3.43958 1.028627,-1.54213 2.550295,-3.15226 2.979146,-3.15226 0.188748,0 0.343132,-0.10452 0.343132,-0.23255 0,-0.12804 0.667128,-0.73655 1.48208,-1.35185 0.814952,-0.61529 1.885847,-1.56636 2.380216,-2.11357 1.093715,-1.21061 8.079633,-6.51805 9.36687,-7.11636 0.509323,-0.23673 1.021545,-0.57929 1.137915,-0.76119 0.116372,-0.1819 0.354497,-0.33452 0.529167,-0.33952 0.577256,-0.016 1.551251,-1.02608 1.451591,-1.50533 -0.153495,-0.73814 -1.114245,-0.48531 -4.207495,1.10846 -2.720239,1.40158 -3.597129,1.60935 -2.723865,0.6444 0.352311,-0.3893 0.386679,-0.80695 0.208773,-2.53524 -0.187528,-1.82179 -0.230517,-1.94268 -0.362252,-1.0108 -0.124094,0.87785 -0.181515,0.6748 -0.33693,-1.19062 -0.103052,-1.23693 -0.203672,-3.59044 -0.223242,-5.23017 l -0.03566,-2.98122 0.891935,-0.65732 c 0.490572,-0.36157 1.100296,-0.7307 1.354956,-0.8201 0.548542,-0.19246 0.615151,-1.23259 0.105937,-1.6552 -0.185341,-0.15382 -0.480504,-0.2256 -0.874365,-0.21808 z m 41.331848,0.44959 c 0.0642,0 0.11627,0.11906 0.11627,0.26458 0,0.14552 -0.12598,0.26459 -0.28009,0.26459 -0.15408,0 -0.20669,-0.11907 -0.11679,-0.26459 0.0899,-0.14552 0.21641,-0.26458 0.28061,-0.26458 z m -78.45103,5.32732 c -0.07503,-0.01 -0.142788,0.005 -0.190169,0.0527 -0.07765,0.0777 -0.06285,0.26802 0.03307,0.42323 0.215558,0.34877 0.67231,0.37172 0.67231,0.0336 0,-0.23412 -0.290125,-0.48093 -0.515214,-0.50953 z m 22.046717,3.95273 c 0.139841,-0.002 0.263727,0.38284 0.421163,1.06867 0.179992,0.7841 0.493966,1.93547 0.697115,2.55902 0.761713,2.33802 0.356528,6.51531 -0.714169,7.36286 -0.948431,0.75078 -2.402229,0.609 -3.15898,-0.30799 -0.358638,-0.43459 -0.344443,-0.4471 0.190169,-0.16227 0.317855,0.16934 0.684949,0.30799 0.815971,0.30799 0.131023,0 0.189595,-0.92274 0.130225,-2.05052 -0.0802,-1.52355 0.06447,-2.85077 0.562756,-5.16454 0.546143,-2.53599 0.822681,-3.61046 1.05575,-3.61322 z m 14.329358,0.0331 c -0.04208,-0.0534 -0.07327,0.17219 -0.07545,0.60874 -0.0029,0.5821 0.04902,0.85138 0.115238,0.59842 0.06618,-0.25297 0.06846,-0.72923 0.0052,-1.05834 -0.01582,-0.0823 -0.03093,-0.13104 -0.04496,-0.14882 z m 11.367264,2.50372 -0.719336,0.50746 c -0.395608,0.27935 -0.723004,0.677 -0.727604,0.88315 -0.0046,0.20619 0.0215,0.32519 0.05788,0.26459 0.03638,-0.0606 0.363802,-0.45827 0.727604,-0.88315 z m -1.233516,4.38009 c -0.359369,-0.003 -0.738562,0.008 -1.140499,0.0305 -1.313667,0.0736 -2.41825,0.14323 -2.45463,0.15503 -0.03638,0.012 -0.144753,0.0109 -0.240813,-0.002 -0.09606,-0.013 -0.280958,0.16698 -0.411344,0.39997 -0.224181,0.40059 0.929319,4.31399 2.000395,6.78563 0.216507,0.49961 0.590778,1.36061 0.831473,1.91358 0.769108,1.76693 1.541148,4.26758 1.503268,4.86895 -0.02019,0.3205 0.192139,1.11646 0.471806,1.76889 0.4577,1.06778 0.609122,1.19658 1.517221,1.29088 0.55488,0.0577 1.04395,0.12484 1.08675,0.14934 0.0428,0.0245 0.0582,-0.10439 0.0346,-0.28629 -0.0858,-0.66095 0.0262,-0.99218 0.33589,-0.99218 0.44292,0 1.80041,-1.3458 1.80041,-1.78491 0,-0.19961 0.1012,-0.30067 0.22479,-0.22427 0.12359,0.0764 0.38767,-0.18408 0.58705,-0.5793 0.19939,-0.39521 0.69557,-1.15488 1.10226,-1.68775 2.42602,-3.17868 1.98499,-6.07083 -1.43558,-9.41544 -1.74281,-1.70413 -3.29749,-2.37115 -5.813077,-2.39056 z m 40.406317,1.95802 c 0.0132,0.0131 0.0277,0.0674 0.0429,0.16744 0.0606,0.40018 0.0606,1.05502 0,1.4552 -0.0606,0.40018 -0.11007,0.0728 -0.11007,-0.7276 0,-0.60031 0.0277,-0.93427 0.0672,-0.89504 z m -40.652297,1.0201 c 0.363518,-0.0523 0.91222,0.0417 1.74408,0.26768 0.915687,0.24871 1.192327,0.42516 2.865977,1.82935 1.44052,1.20861 2.2934,2.53831 2.2934,3.57497 0,0.97789 -0.94828,2.34412 -2.25258,3.2458 -0.58013,0.40105 -1.12519,0.73294 -1.21129,0.73794 -0.16992,0.01 -3.044043,-5.97236 -3.49178,-7.26726 -0.150949,-0.43657 -0.380956,-0.86424 -0.51108,-0.95084 -0.13012,-0.0866 -0.160773,-0.45908 -0.06821,-0.82786 0.09001,-0.35863 0.267969,-0.55746 0.631486,-0.60978 z m -42.975154,1.39319 c 0.05422,0.0239 0.03315,1.63607 -0.07545,4.83175 -0.101373,2.98317 -0.16546,6.49553 -0.14211,7.80521 0.02335,1.30969 0.103604,5.41735 0.178283,9.12812 0.175199,8.70558 -0.11385,10.6927 -0.60358,4.14704 -0.367544,-4.91253 -0.274441,-12.32755 0.26665,-21.21266 0.19237,-3.15882 0.321982,-4.72332 0.376205,-4.69946 z m 12.178584,0.81546 c -0.04523,-0.0469 -0.07967,0.117 -0.08371,0.44441 -0.0054,0.43656 0.04948,0.64732 0.121956,0.46819 0.07247,-0.17913 0.0769,-0.53632 0.0098,-0.79375 -0.01677,-0.0643 -0.03298,-0.10321 -0.04806,-0.11885 z m 70.952257,1.72599 c 0.22329,0.22329 -0.19205,0.72598 -0.46199,0.55914 -0.13547,-0.0837 -0.24649,-0.045 -0.24649,0.0858 0,0.13075 -0.2679,0.36918 -0.59531,0.5302 -0.32743,0.16103 -1.00532,0.56426 -1.50689,0.89555 -0.50156,0.33128 -0.82199,0.45615 -0.71158,0.27751 0.28877,-0.46724 3.35742,-2.51303 3.52226,-2.34818 z m -79.993048,0.95756 c 0.03368,-0.0858 0.0951,0.16224 0.213423,0.67128 0.135337,0.58208 0.193768,1.56507 0.129708,2.18385 -0.06406,0.61879 -0.0091,1.19127 0.121956,1.27227 0.131109,0.081 0.229855,0.34872 0.219625,0.5948 -0.01516,0.36468 -0.06061,0.34921 -0.24598,-0.0822 -0.185366,-0.43142 -0.230819,-0.44638 -0.245979,-0.0816 -0.01023,0.24607 0.100459,0.52092 0.245979,0.61082 0.145521,0.0899 0.264584,0.34241 0.264584,0.56069 0,0.24708 -0.124828,0.32162 -0.330729,0.19792 -0.233203,-0.1401 -0.225515,-0.0691 0.02532,0.24029 0.195656,0.24132 0.294138,0.59197 0.219108,0.77877 -0.109256,0.27173 -0.140366,0.27015 -0.157096,-0.007 -0.01149,-0.19083 -0.140251,-0.27283 -0.285771,-0.18293 -0.280659,0.17346 -0.3601,-0.53917 -0.28112,-2.51354 0.0262,-0.65484 0.05348,-1.96454 0.06098,-2.91042 0.0065,-0.82719 0.01231,-1.24691 0.04599,-1.33274 z m 33.455322,0.8754 c -0.335916,-0.043 -0.681621,-0.0426 -1.033529,0.005 -3.489968,0.46811 -5.072884,4.41925 -3.697449,9.2289 0.705012,2.4653 1.083144,3.15349 2.1146,3.84783 1.069386,0.71986 1.404875,0.73871 3.146578,0.17621 1.129735,-0.36487 1.50485,-0.67403 2.50734,-2.06757 1.482251,-2.06045 1.892003,-3.26843 1.671733,-4.9289 -0.467355,-3.5231 -2.357866,-5.95998 -4.709273,-6.26112 z m 1.005623,2.94349 c 0.553273,0.21231 1.431954,2.16503 1.431954,3.18224 0,1.54121 -0.989897,3.80803 -1.859318,4.25762 -0.418107,0.21622 -0.983353,0.39274 -1.256254,0.39274 -0.604586,0 -1.511867,-0.92687 -1.893941,-1.93528 -0.327037,-0.86315 -0.379395,-2.82722 -0.07545,-2.82722 0.113617,0 0.333617,-0.33648 0.488859,-0.74776 0.315973,-0.83711 2.622718,-2.5301 3.164148,-2.32234 z m -28.890743,4.6576 c -0.05719,0 -0.104386,0.1786 -0.104386,0.39687 0,0.21828 0.115362,0.39688 0.256315,0.39688 0.140955,0 0.187629,-0.1786 0.103869,-0.39688 -0.08376,-0.21827 -0.198608,-0.39687 -0.255798,-0.39687 z m -0.413411,0.95498 c -0.113027,0.007 -0.180725,0.0327 -0.1757,0.0765 0.01005,0.0876 -0.01281,0.27823 -0.05116,0.42375 -0.03835,0.14552 -0.08241,0.69351 -0.09767,1.21749 -0.02418,0.82999 0.02959,0.91662 0.418062,0.67438 0.245245,-0.15293 0.387166,-0.37297 0.315226,-0.48937 -0.07194,-0.11642 0.0022,-0.21188 0.164848,-0.21188 0.162701,0 0.223989,-0.11638 0.135909,-0.2589 -0.08808,-0.14251 -0.03859,-0.48652 0.110071,-0.76429 0.227054,-0.42425 0.16764,-0.5248 -0.371554,-0.62787 -0.176512,-0.0337 -0.335007,-0.0464 -0.448034,-0.0398 z m 51.881067,0.93018 c -0.0919,-0.004 -0.19699,0.013 -0.29248,0.0512 -0.21107,0.0845 -0.14803,0.14698 0.16019,0.15968 0.27887,0.0115 0.43517,-0.0511 0.34727,-0.13901 -0.044,-0.0439 -0.12306,-0.068 -0.21498,-0.0718 z m -56.260645,0.59634 c 0.02782,-0.0278 0.06474,0.009 0.10697,0.11472 0.07643,0.19099 0.06725,0.41957 -0.02067,0.50747 -0.08791,0.0879 -0.1505,-0.0684 -0.13901,-0.34727 0.0063,-0.15411 0.02489,-0.2471 0.05271,-0.27492 z m 6.132442,0.2527 c 0.211879,0 0.324031,0.0994 0.249081,0.22066 -0.07495,0.12128 -0.248575,0.22014 -0.385507,0.22014 -0.136932,0 -0.24908,-0.0989 -0.24908,-0.22014 0,-0.12129 0.173627,-0.22066 0.385506,-0.22066 z m -5.811531,0.83923 c 0.08234,0.002 0.128274,0.25171 0.130224,0.72605 0.0022,0.54571 -0.04135,0.99219 -0.09715,0.99219 -0.229288,0 -0.331372,-1.31451 -0.127124,-1.6366 0.03515,-0.0554 0.06661,-0.0822 0.09405,-0.0816 z m 97.485524,0.39532 c -0.15408,0 -0.20669,0.11906 -0.11679,0.26458 0.0899,0.14552 0.2164,0.26459 0.2806,0.26459 0.0642,0 0.11627,-0.11907 0.11627,-0.26459 0,-0.14552 -0.12597,-0.26458 -0.28008,-0.26458 z m -1.08004,0.12247 c -0.22209,-0.0531 -0.2856,0.0989 -0.10335,0.39378 0.0974,0.15763 0.30065,0.21009 0.45165,0.11679 0.17773,-0.10987 0.15099,-0.24647 -0.0765,-0.38706 -0.10614,-0.0656 -0.19779,-0.1058 -0.27182,-0.12351 z m -93.91158,0.17519 c -0.09192,-0.004 -0.19699,0.013 -0.292488,0.0512 -0.211067,0.0845 -0.148027,0.14698 0.160197,0.15968 0.278915,0.0115 0.435185,-0.0511 0.347265,-0.13901 -0.04396,-0.044 -0.123059,-0.068 -0.214974,-0.0718 z m 89.42917,0 c -0.0919,-0.004 -0.19699,0.013 -0.29249,0.0512 -0.21107,0.0845 -0.14802,0.14698 0.1602,0.15968 0.27887,0.0115 0.43516,-0.0511 0.34726,-0.13901 -0.044,-0.044 -0.12306,-0.068 -0.21497,-0.0718 z m -94.751842,0.76067 c 0.546015,0 0.84646,0.76478 0.84646,2.15388 0,0.83543 -0.117629,1.59213 -0.261483,1.68103 -0.149985,0.0927 -0.19422,-0.0136 -0.10387,-0.24908 0.102121,-0.26612 0.0079,-0.41083 -0.267684,-0.41083 -0.343281,0 -0.425297,-0.30581 -0.425297,-1.5875 0,-0.87313 0.09546,-1.5875 0.211874,-1.5875 z m 26.295036,0.33848 c 0.508333,-0.0835 1.099902,0.53336 1.530656,1.68466 0.545274,1.45737 0.736158,4.06228 0.297656,4.06228 -0.131895,0 -0.185876,0.20835 -0.120406,0.46302 0.06547,0.25466 -0.09454,1.15401 -0.355534,1.99833 l -0.474907,1.53531 -0.951363,-3.51969 c -0.523285,-1.93572 -0.85737,-3.64265 -0.74259,-3.79305 0.114776,-0.1504 0.09828,-0.44806 -0.03669,-0.66146 -0.277048,-0.43804 -0.3468,-1.49556 -0.08113,-1.22989 0.09475,0.0948 0.303111,-0.003 0.463021,-0.21653 0.141881,-0.18965 0.301844,-0.29513 0.471289,-0.32298 z m -23.530864,0.76998 c 0.117047,-0.0815 0.442889,2.67288 0.72347,6.2482 0.163354,2.08153 0.363161,3.95678 0.443901,4.16719 0.08075,0.21042 0.03767,0.3824 -0.0956,0.3824 -0.514077,0 -1.218836,-0.74062 -1.283125,-1.34823 -0.03702,-0.34992 -0.141961,-1.33771 -0.233061,-2.19522 -0.0911,-0.85751 -0.229692,-1.66286 -0.307992,-1.78955 -0.222446,-0.35992 -0.232061,-4.94851 -0.01085,-5.16971 0.108653,-0.10865 0.308004,-0.0224 0.443384,0.19171 0.192125,0.3038 0.254257,0.24397 0.283187,-0.27233 0.0075,-0.13325 0.01997,-0.20282 0.03669,-0.21446 z m 18.808671,1.61024 c 0.16513,-0.0349 0.521328,0.37044 0.728638,0.91571 0.140617,0.36985 0.222868,0.70377 0.182418,0.74207 -0.128269,0.12153 -0.999939,-1.15549 -0.999939,-1.46503 0,-0.12063 0.03384,-0.18112 0.08888,-0.19275 z m 57.077139,0.4563 c 0.15408,0 0.20617,0.11907 0.11627,0.26459 -0.0899,0.14552 -0.21589,0.26458 -0.28009,0.26458 -0.0642,0 -0.11679,-0.11906 -0.11679,-0.26458 0,-0.14552 0.12651,-0.26459 0.28061,-0.26459 z m -57.572199,0.14986 c 0.369801,0.13933 1.197318,1.38226 1.198893,1.90066 5.44e-4,0.1819 0.120097,0.33073 0.265617,0.33073 0.145521,0 0.268352,-0.14883 0.272852,-0.33073 0.01478,-0.59179 1.295584,1.74494 1.841231,3.35897 0.599257,1.77262 0.687107,3.32557 0.214457,3.79822 -0.802828,0.80283 -2.817519,-0.1621 -3.718119,-1.78077 -0.883331,-1.58763 -1.018061,-6.44523 -0.201538,-7.26364 0.0304,-0.0305 0.07378,-0.0333 0.126607,-0.0134 z m 70.661839,1.9172 c 0.0618,0.0118 0.10256,0.20186 0.10335,0.51883 5.9e-4,0.2555 -0.0254,0.40447 -0.0786,0.44855 -0.0629,0.0522 -0.087,0.0385 -0.11472,-0.0651 -0.0551,-0.20563 -0.0411,-0.75694 0.0217,-0.85266 0.007,-0.0114 0.0146,-0.0169 0.0217,-0.0243 -0.0238,0.0594 -0.0404,0.20368 -0.0429,0.42116 -0.005,0.43656 0.0495,0.64732 0.12195,0.46819 0.0727,-0.17914 0.0769,-0.53632 0.01,-0.79375 -0.0327,-0.1255 -0.0631,-0.1515 -0.0868,-0.0982 0.0156,-0.0155 0.0307,-0.0254 0.0444,-0.0227 z m 2.04587,1.38441 c 0.26462,0.001 0.35359,0.0617 0.37879,0.33176 -0.0354,-0.26506 -0.17784,-0.33101 -0.5271,-0.31264 -0.21588,0.0114 -0.31304,0.0255 -0.34314,0.0455 0.0319,-0.029 0.13363,-0.0508 0.31058,-0.0594 0.0679,-0.003 0.12791,-0.005 0.18087,-0.005 z m -88.102635,0.35295 c -0.02782,0.0278 -0.04636,0.12081 -0.05271,0.27492 -0.01149,0.27887 0.05109,0.43517 0.13901,0.34727 0.08792,-0.0879 0.0971,-0.31648 0.02067,-0.50747 -0.04223,-0.10553 -0.07915,-0.14254 -0.10697,-0.11472 z m -15.109155,2.67374 c 0.03611,-0.0556 0.100768,0.0283 0.19482,0.26872 0.113845,0.29104 0.35798,1.60522 0.542602,2.92023 0.480641,3.42346 0.230938,3.91404 -0.321944,0.63252 -0.375931,-2.23125 -0.523804,-3.65476 -0.415478,-3.82147 z m 62.00862,3.3321 c -0.65563,0.0315 -0.87875,0.75571 -1.02733,2.95796 -0.0907,1.34494 -0.20708,2.98111 -0.25838,3.63595 -0.16,2.04356 -2.44702,6.35049 -3.14348,5.92005 -0.13268,-0.082 -0.21278,-0.82237 -0.17828,-1.64538 0.069,-1.64667 -0.16702,-2.96952 -0.72502,-4.06176 -0.40345,-0.78973 -0.58112,-1.56275 -0.61082,-2.66031 -0.0108,-0.40018 -0.11736,-0.7276 -0.23668,-0.7276 -0.22819,0 -0.84584,4.70863 -0.84284,6.42958 8.3e-4,0.55293 -0.17199,1.34146 -0.38447,1.75235 -0.21248,0.41089 -0.32362,0.80965 -0.24702,0.88625 0.0766,0.0766 0.0121,0.21778 -0.14314,0.31368 -0.16189,0.10005 -0.28215,-0.0388 -0.28215,-0.32608 0,-0.78345 -0.788478,-0.60856 -0.824758,0.18293 -0.01723,0.37593 -0.0047,0.80223 0.02791,0.94775 0.03264,0.14552 0.115398,0.62176 0.183968,1.05833 0.11859,0.75503 1.40663,2.32561 1.40663,1.71514 0,-0.52061 0.52815,0.0197 0.90795,0.92863 0.36872,0.88248 1.4324,1.78144 2.24069,1.89394 0.23281,0.0324 0.9189,0.13156 1.52447,0.22066 0.61658,0.0906 1.17077,0.0486 1.25987,-0.0956 0.20251,-0.32767 -0.38505,-1.64583 -0.65836,-1.47692 -0.11251,0.0695 -0.37085,-0.0396 -0.57361,-0.24236 -0.39795,-0.39799 -0.32332,-2.28203 0.0904,-2.28203 0.1296,0 0.23564,-0.10891 0.23564,-0.24236 0,-0.27283 0.87555,-2.18974 1.46038,-3.19722 0.34358,-0.59189 0.38951,0.0621 0.43821,6.2177 l 0.0548,6.87917 0.17157,-6.87917 c 0.16425,-6.57667 0.20379,-6.97084 0.89452,-8.96896 0.69632,-2.01431 0.74305,-3.23544 0.13849,-3.60908 -0.1368,-0.0845 -0.15477,-0.88129 -0.0419,-1.85467 0.25981,-2.23987 0.0663,-3.52604 -0.5488,-3.6437 -0.11236,-0.0215 -0.21485,-0.0314 -0.30851,-0.0269 z M 60.325,163.04069 c -0.04523,-0.0469 -0.07967,0.11699 -0.08372,0.44442 -0.0054,0.43655 0.04949,0.64732 0.121957,0.46819 0.07247,-0.17913 0.0769,-0.53632 0.0098,-0.79375 -0.01677,-0.0644 -0.03298,-0.10322 -0.04806,-0.11886 z m 0.252698,2.81585 c -0.04786,-0.0178 -0.08165,0.13385 -0.08165,0.4067 0,0.36383 0.05992,0.51263 0.133325,0.33073 0.0734,-0.1819 0.0734,-0.47956 0,-0.66146 -0.01835,-0.0455 -0.03572,-0.07 -0.05168,-0.076 z m -12.681397,0.19482 c 0.01403,0.0178 0.02914,0.0666 0.04496,0.14883 0.06333,0.32912 0.06105,0.80537 -0.0052,1.05833 -0.06623,0.25297 -0.118138,-0.0163 -0.115238,-0.59841 0.0022,-0.43657 0.03337,-0.6621 0.07545,-0.60875 z m 83.824339,2.30374 c -0.0345,-0.0507 -0.0482,0.14765 -0.062,0.56431 -0.0171,0.51486 0.23637,1.46166 0.56379,2.10426 0.58252,1.14327 0.62616,1.17002 2.02778,1.24592 0.78782,0.0427 1.49208,0.13764 1.56528,0.21084 0.21194,0.21192 0.79437,0.15411 0.94775,-0.0941 0.0772,-0.12487 -0.65464,-0.30143 -1.62678,-0.39223 -2.18777,-0.2043 -2.91135,-0.8108 -3.22926,-2.70939 -0.097,-0.57921 -0.15201,-0.87899 -0.18655,-0.92966 z m -83.313776,0.94103 c 0.01595,0.006 0.03333,0.0305 0.05168,0.076 0.0734,0.18191 0.0734,0.47956 0,0.66146 -0.0734,0.1819 -0.133325,0.0331 -0.133325,-0.33073 0,-0.27287 0.03379,-0.42453 0.08165,-0.40669 z m 19.382797,0.73225 c 0.111904,0.069 0.04901,0.6045 -0.189136,1.65881 -0.472357,2.09117 -0.741445,2.91874 -0.768945,2.36368 -0.04245,-0.85696 0.518317,-3.65892 0.788065,-3.93774 0.0761,-0.0787 0.132714,-0.10776 0.170016,-0.0848 z m -18.85363,2.17816 c 0.01595,0.006 0.03333,0.0305 0.05168,0.076 0.0734,0.1819 0.0734,0.47956 0,0.66146 -0.0734,0.1819 -0.133326,0.0331 -0.133326,-0.33073 0,-0.27288 0.03379,-0.42453 0.08165,-0.4067 z m 47.836873,0.2744 -0.03514,1.38907 c -0.01944,0.76399 -0.154719,1.40855 -0.30024,1.43195 -0.14552,0.0233 -0.739465,0.0614 -1.319816,0.0847 -1.060543,0.0427 -1.854952,0.39766 -0.906921,0.40566 0.278915,0.002 0.68554,0.12634 0.903821,0.27595 0.286968,0.19639 -0.05399,0.25092 -1.231966,0.19482 -0.896024,-0.0427 -1.573722,0.0113 -1.505852,0.12041 0.06787,0.10914 -0.06364,0.19844 -0.292488,0.19844 -0.228844,0 -0.682761,0.14883 -1.008207,0.33073 -0.325448,0.1819 -0.635081,0.35443 -0.688331,0.38343 -0.05325,0.029 -0.190101,0.44572 -0.303857,0.92605 -0.154904,0.65407 -0.217791,0.27551 -0.250631,-1.50792 -0.05341,-2.90024 -0.394138,-2.33473 -0.637687,1.05833 -0.09401,1.30969 -0.210529,2.6854 -0.258899,3.05718 -0.08946,0.68754 -0.678281,1.91795 -0.692981,1.44797 -0.0044,-0.14152 -0.185475,-0.004 -0.402042,0.30489 -0.418312,0.59722 -0.61009,2.70535 -0.293006,3.21841 0.104077,0.1684 0.347962,0.30593 0.542086,0.30593 0.194124,0 0.421119,0.17859 0.504879,0.39687 0.08376,0.21829 0.341655,0.39688 0.573091,0.39688 0.231432,0 0.362832,0.0941 0.291972,0.20877 -0.07086,0.11465 0.190119,0.23165 0.57981,0.26045 0.38969,0.0288 0.946609,0.32994 1.23765,0.66869 0.494144,0.57516 0.534987,0.58222 0.617017,0.11059 0.06726,-0.38666 0.222295,-0.46218 0.661458,-0.32246 2.286321,0.72736 4.67465,-0.006 4.67465,-1.43609 0,-0.90388 0.747385,-0.63991 0.882117,0.31161 0.06697,0.47294 0.05719,-0.56886 -0.0217,-2.31511 -0.07889,-1.74624 -0.151964,-3.97866 -0.162264,-4.96093 -0.01329,-1.26779 -0.116973,-1.78594 -0.358118,-1.78594 -0.225613,0 -0.347895,-0.42207 -0.363285,-1.25677 -0.01275,-0.69122 -0.115598,-1.85209 -0.228927,-2.57969 z m 47.711816,0.37724 4.79919,0.1416 c -0.0332,0.01 -0.1547,0.0152 -0.16536,0.0258 -0.0307,0.0307 0.20712,0.0582 0.57774,0.0791 -0.24953,-0.0118 -0.44997,-0.0245 -0.58756,-0.0388 -0.42862,-0.0446 -1.45447,-0.095 -2.27997,-0.11214 -1.34632,-0.0279 -1.47153,-0.0233 -1.21439,0.0486 0.1733,0.0485 0.342,0.14433 0.42633,0.24236 0.12896,0.14991 0.1366,0.19549 0.10542,0.5979 -0.0458,0.59072 -0.22881,1.15422 -0.46819,1.44074 -0.1553,0.18588 -0.22256,0.34975 -0.32194,0.786 -0.0974,0.4276 -0.17183,0.61176 -0.33125,0.82062 -0.26332,0.34497 -0.31412,0.57765 -0.23668,1.0821 0.19481,1.26893 0.85392,2.23553 1.70429,2.49907 1.15911,0.35923 2.98656,0.57355 5.96449,0.6997 1.34363,0.0569 4.54166,0.0646 4.73305,0.0114 0.11187,-0.0311 0.15264,-0.0904 0.18293,-0.2682 0.16562,-0.97183 0.26058,-6.44533 0.11886,-6.84454 -0.0953,-0.26852 -0.27037,-0.42945 -0.58963,-0.54209 -0.14106,-0.0498 -0.312,-0.14299 -0.37982,-0.2067 -0.11965,-0.11241 -0.22001,-0.11638 -3.37861,-0.1447 -1.47908,-0.0133 -2.53246,-0.0351 -3.24166,-0.0641 0.39,0.0172 0.86521,0.0305 1.43661,0.0305 0.53999,0 0.97048,-0.0196 1.34462,-0.0424 l 3.86281,0.1142 c -0.006,0.10058 0.1342,0.21494 0.48111,0.32505 0.36872,0.11703 0.54216,0.42352 0.57206,1.01027 0.0785,1.5432 -0.0976,6.39465 -0.24082,6.63164 -0.12935,0.21402 -7.05004,0.0134 -8.74778,-0.25373 -2.19875,-0.34593 -2.582,-0.46923 -3.01584,-0.96945 -0.72223,-0.83274 -1.1412,-2.61553 -0.6966,-2.96468 0.19521,-0.1533 0.38788,-0.57118 0.42788,-0.92862 0.04,-0.35744 0.19296,-0.72456 0.34003,-0.81546 0.14707,-0.0909 0.33645,-0.5896 0.42065,-1.10846 0.14673,-0.90418 0.0665,-1.08355 -1.60197,-1.28261 z m -9.28264,1.03767 c -0.0434,-0.025 -0.0739,0.18748 -0.0739,0.56947 0,0.50932 0.0543,0.71769 0.12092,0.46302 0.0665,-0.25466 0.0665,-0.67138 0,-0.92604 -0.0166,-0.0637 -0.0326,-0.0981 -0.047,-0.10645 z m -36.836508,1.65106 c -0.05019,7.9e-4 -0.09091,0.14771 -0.109037,0.46198 -0.01819,0.31529 -0.05187,0.72193 -0.07493,0.90383 -0.02306,0.1819 0.08112,0.41812 0.23151,0.52503 0.15039,0.10694 0.287021,0.19644 0.303341,0.19844 0.01632,0.002 -0.01899,-0.43781 -0.07855,-0.97824 -0.07804,-0.70819 -0.18868,-1.11236 -0.272334,-1.11104 z m -11.877311,0.8723 c -0.0286,-0.0348 -0.05119,0.13149 -0.06356,0.55965 -0.02523,0.87312 -0.167436,2.95672 -0.31626,4.63021 -0.207486,2.33307 -0.193219,3.30688 0.06201,4.17494 0.47544,1.61701 0.707784,0.79343 0.692464,-2.45515 -0.01333,-2.82566 -0.250722,-6.75879 -0.374654,-6.90965 z m -2.233455,0.42736 c -0.279336,0 -0.337296,5.44861 -0.0739,6.94531 0.257867,1.46523 0.350366,0.64299 0.350366,-3.10885 0,-2.49248 -0.09676,-3.83646 -0.276468,-3.83646 z m 64.978974,2.02055 c 0.007,4.8e-4 0.0139,0.004 0.0212,0.0114 0.0578,0.0577 0.10437,0.71128 0.0625,0.87798 -0.0423,0.16843 -0.12119,0.19507 -0.17363,0.0584 -0.0928,-0.24174 -0.0155,-0.95498 0.0899,-0.94774 z m -0.009,0.0486 c -0.0453,-0.0469 -0.08,0.117 -0.0837,0.44442 -0.005,0.43656 0.0495,0.64732 0.12196,0.46819 0.0727,-0.17913 0.0769,-0.53632 0.01,-0.79375 -0.0168,-0.0644 -0.0329,-0.10322 -0.0481,-0.11886 z m -2.53783,0.0222 c 0.11332,-0.003 0.25153,0.0192 0.37,0.0687 0.1899,0.0794 0.21012,0.10786 0.19379,0.27699 -0.004,0.0412 -0.0132,0.0759 -0.0243,0.10645 0.008,-0.0399 0.0108,-0.0903 0.0108,-0.16226 0,-0.14552 -0.20835,-0.26245 -0.46302,-0.26045 -0.19287,0.002 -0.28704,0.0135 -0.30075,0.0486 0.0237,-0.048 0.10629,-0.075 0.21342,-0.078 z m -0.21704,0.0827 c -0.006,0.0376 0.0715,0.0995 0.23823,0.20722 0.3564,0.23035 0.46956,0.28921 0.50746,0.19069 -0.0187,0.038 -0.0426,0.0626 -0.0698,0.0667 -0.12382,0.0182 -0.70549,-0.37769 -0.678,-0.46147 3.7e-4,-0.001 0.002,-0.002 0.002,-0.003 z m -15.00942,0.28577 c 0.0792,-0.0793 0.0728,0.31734 -0.0139,0.88108 -0.0868,0.56373 -0.32639,1.32239 -0.53279,1.6862 l -0.37568,0.66146 0.16536,-0.66146 c 0.51604,-2.06417 0.62615,-2.43637 0.75706,-2.56728 z m 20.54397,0.71675 c 0.0944,0.003 0.18657,0.0137 0.26458,0.0346 0.0646,0.0173 0.11634,0.0611 0.12609,0.10181 -0.002,-0.0144 -0.0179,-0.0297 -0.0594,-0.0465 -0.17913,-0.0727 -0.53632,-0.0774 -0.79375,-0.0103 v 5.2e-4 c -0.0641,0.0167 -0.10258,0.033 -0.11834,0.0481 0.0427,-0.0822 0.3201,-0.13631 0.58085,-0.12816 z m -0.58136,0.12867 c -0.0454,0.0451 0.11807,0.0795 0.44441,0.0832 0.32222,0.004 0.51898,-0.0252 0.52917,-0.0698 3.3e-4,0.002 0.002,0.005 0.002,0.007 0,0.0617 -0.11113,0.0801 -0.49041,0.0801 -0.37785,0 -0.49093,-0.0185 -0.49093,-0.0796 0,-0.007 0.002,-0.0142 0.006,-0.0212 z m -67.826872,2.10892 c -0.04786,-0.0178 -0.08165,0.13384 -0.08165,0.40669 0,0.36383 0.05993,0.51263 0.133325,0.33073 0.0734,-0.18191 0.0734,-0.47956 0,-0.66146 -0.01835,-0.0455 -0.03572,-0.07 -0.05168,-0.076 z m 13.708724,0.77153 c 0.02782,-0.0278 0.06474,0.009 0.10697,0.11472 0.07643,0.191 0.06725,0.41956 -0.02067,0.50746 -0.08791,0.0879 -0.150499,-0.0683 -0.139009,-0.34726 0.0063,-0.15412 0.02489,-0.2471 0.05271,-0.27492 z m -25.162805,1.53427 c 0.161471,-0.0549 0.476588,0.0728 1.02526,0.35657 0.802138,0.4148 1.036257,0.90406 0.449585,0.93896 -0.181902,0.0108 -0.585188,0.068 -0.896586,0.12661 -0.457892,0.0862 -0.588639,-0.0446 -0.682129,-0.68161 -0.06575,-0.448 -0.0576,-0.6856 0.10387,-0.74053 z m 1.839681,8.01657 c 0.597339,-0.0223 1.295425,-0.0188 1.950268,0.0165 1.309686,0.0706 4.345784,0.19821 6.746875,0.28371 8.73335,0.31089 6.997285,0.49988 -4.640027,0.50488 -6.542896,0.003 -12.194946,0.0873 -12.559957,0.18758 -0.36501,0.10034 -0.818402,0.0865 -1.00769,-0.0305 -0.190399,-0.11767 1.352628,-0.29292 3.453536,-0.39222 2.088658,-0.0987 4.208926,-0.29232 4.711857,-0.43047 0.251465,-0.0691 0.747798,-0.11726 1.345138,-0.13952 z"
       transform="translate(3.3368991,-2.5825851)" /></g></svg>
