<svg xmlns="http://www.w3.org/2000/svg" xml:space="preserve" width="413.47" height="625.865" viewBox="0 0 109.397 165.593"><path d="M54.518 0c-10.194.365-21.63 1.48-29.012 9.398-2.938-.1-6.008 8.978.109 8.377 16.534-7.48 48.558-2.458 54.665-.29 5.642 2.003 10.424 7.29 13.37 11.99 2.534 4.04 1.068 80.565-.724 89.894-7.683 11.253-21.25 9.79-41.917 9.773-8.197.078-20.366 3.61-33.527-8.422-2.736-1.955-1.59-28.146-2.303-31.018l-1.072-52.28c.129-.262-1.359-14.024 4.16-18.336 2.73-1.681 3.996-10.325-2.715-6.163C6.692 17.733-.006 27.231 0 37.52c5.327 4.08 1.916 11.252 2.33 17.054-.67 13.82-.396 27.698-.95 41.504-1.023 4.413-1.588 8.866-1.224 13.398-.413 14.148 9.042 27.108 21.336 33.405.173 3.96-.33 14.614.133 18.502 2.174 6.212 14.745 4.976 12.186-1.346-1.18-4.388-.585-16.285 3.706-16.195 6.502-1.082 12.098 8.85 9.59 18.216-.088 5.828 14.387 3.712 12.31-1.015-1.713-8.23 5.34-16.364 10.262-17.735 4.4-1.91 7.34-3.19 11.244.039 7.666 2.23 17.1-2.812 17.518-11.233 2.928-3.492 7.6-6.443 8.923-11.404 3.29-8.926 1.47-18.627 1.98-27.922-.06-19.653.134-39.337-.072-58.976-2.544-15.586-16.765-26.11-31.057-30.462C70.572.933 62.504.095 54.518 0"/><path d="m90.54 92.806-.423-.212-.21-.21v-.212l.105-.42q.948-3.06.527-6.224-.316-3.059-1.792-5.8-1.478-2.742-3.797-4.746l-5.59-2.953-5.061-.632-4.852.843q-2.32.845-4.324 2.426-2.004 1.477-3.48 3.691l-.211.316q-.632-.42-.949-.527l-.844-.527-.21-.211v-.105l.104-.211.106-1.793-.527-1.582-1.055-1.266-1.582-.843-.21-.106-.317-.105v-2.32q7.171-.528 11.496-5.906l2.635-4.43q.845-2.425.95-5.167.106-2.848-.844-5.59-.949-2.637-2.743-4.745-1.686-2.215-4.112-3.586-2.32-1.477-5.167-2.004v-.844l.843.106.844.211q3.27.632 6.222 2.32 2.953 1.582 5.273 3.902l3.902 5.378 2.214 6.328q.634 3.796.106 7.487v.423l.317.21q5.905 2.426 9.385 6.856 3.481 4.323 4.64 10.652 1.056 5.8-1.264 11.705z"/><path d="M44.117 61.976c-1.343-1.644-1.58-1.97-1.47-2.031l2.767-1.619 2.638-1.546 3.264-.633 3.262-.637 3.462.48c3.45.481 3.467.486 4.387.845 1.599.624 3.424 1.634 4.862 2.695l.525.389-.17.282c-.734 1.231-2.101 2.953-2.768 3.484l-.317.253-.722-.472c-1.007-.655-3.03-1.635-4.14-2.002-3.775-1.244-7.578-.919-11.368.97-.621.309-1.456.775-1.851 1.035a19 19 0 0 1-.743.47c-.01 0-.738-.881-1.618-1.963"/><path d="M19.5 91.9a36 36 0 0 1-1.023-3.895c-.327-1.79-.443-4.43-.27-6.144.41-4.06 2.19-8.395 4.767-11.602 2.362-2.934 5.181-5.141 8.432-6.595 1.574-.704 1.445-.557 1.325-1.518-.359-2.865-.217-5.583.426-8.222.388-1.584.854-2.835 1.709-4.563.83-1.687 1.89-3.33 2.957-4.597.616-.733.974-1.042 3.48-3.013 2.854-2.244 3.252-2.51 4.782-3.167a23.3 23.3 0 0 1 4.763-1.473c1.312-.266 1.237-.263 1.264-.018.048.385-.083.495-.816.673a14.7 14.7 0 0 0-3.305 1.212c-1.014.517-1.162.622-2.84 2.059l-1.773 1.513-1.324 2.02-1.329 2.018-.688 2.329-.688 2.328.174 2.873c.19 3.151.253 3.522.858 5.046.714 1.792 1.027 2.257 3.065 4.546 1.867 2.095 2.214 2.405 3.656 3.253 1.772 1.04 4.436 1.917 6.27 2.063 1.03.082.93-.051.93 1.232v1.113l-.369.093a4.6 4.6 0 0 0-1.607.78c-.627.482-.955.985-1.338 2.043l-.343.948.023 1.12.026 1.123-.894.569-.892.565-.117-.175a25 25 0 0 0-1.786-2.253c-2.955-3.193-7.448-5.013-11.956-4.847-2.49.094-4.512.593-6.528 1.617-.814.41-1.088.613-2.834 2.094-2.414 2.046-2.427 2.056-3.055 2.902a14.3 14.3 0 0 0-2.523 5.23c-.372 1.471-.459 2.2-.459 3.894 0 1.737.08 2.393.491 3.99.282 1.09.287 1.214.061 1.419-.361.325-.395.295-.7-.587"/><path d="M47.28 94.592a18 18 0 0 1-4.867-2.83c-.347-.28-1.245-1.283-2.713-3.036-1.978-2.362-2.234-2.7-2.6-3.438-1.52-3.039-2.283-6.222-2.283-9.495 0-1.224.105-2.744.2-2.841.063-.066 3.354.242 3.797.356.258.066.6.147.766.179.521.106.538.152.434 1.286-.194 2.144.17 4.403 1.05 6.56 1.6 3.903 3.877 6.398 7.416 8.121.576.28 1.06.52 1.075.534.037.034-.275 1.212-.5 1.898-.197.591-1.09 2.494-1.285 2.731-.097.121-.133.119-.493-.025"/><path d="M38.93 106.712c-6.517-.675-11.63-3.352-15.678-8.21-.37-.442-.367-.453.1-.722.152-.09.06-.157 2.804 2.092.96.786 1.437 1.117 2.135 1.476a15.8 15.8 0 0 0 3.416 1.32c1.476.372 2.013.433 3.808.433h1.668l2.331-.646 2.329-.645 2.046-1.293c1.59-1.004 2.201-1.439 2.735-1.941 1.357-1.276 2.292-2.56 3.144-4.323.82-1.692 1.21-2.93 1.46-4.62.44-2.98.102-5.68-1.08-8.614-.233-.576-.397-1.07-.365-1.098.202-.195 1.832-1.068 1.906-1.025.049.031.43.309.84.62.731.552.771.568 1.622.761.479.11.95.198 1.048.198.363 0 1.873-.411 2.244-.612a5 5 0 0 0 .825-.612l.442-.406.845.512c.463.283.87.538.905.57.034.03-.206.823-.53 1.759-.837 2.395-1.044 3.505-1.046 5.558 0 3.007.856 6.015 2.383 8.369 2.287 3.514 5.536 5.971 9.15 6.92 1.55.401 2.19.452 4.963.38l2.484-.064 2.343-.855c3.011-1.104 3.764-1.551 5.626-3.341l.996-.958.274.169c.147.092.271.198.271.237 0 .125-1.123 1.42-1.907 2.198-2.45 2.435-5.597 4.306-9.194 5.468-1.084.35-2.612.711-3.262.77-.232.02-2.382-.056-4.773-.17l-4.347-.21-1.245-.413a23.8 23.8 0 0 1-6.84-3.582 7 7 0 0 0-.595-.418c-.02 0-.428.28-.9.617-3.195 2.288-6.603 3.682-10.362 4.244-.933.139-4.063.206-5.018.107"/><path d="M62.423 94.428a19 19 0 0 1-1.16-2.542c-.226-.666-.542-1.864-.504-1.898a53 53 0 0 1 1.202-.616c3.696-1.865 6.285-4.828 7.545-8.627.542-1.635.612-2.126.67-4.696.03-1.261.08-2.314.106-2.347.09-.09 4.838-.779 4.906-.706.036.036.122.533.196 1.11.158 1.257.12 3.707-.079 4.932-.404 2.513-1.224 4.696-2.71 7.208-1.62 2.738-3.64 4.888-6.18 6.584-.754.505-2.705 1.517-3.473 1.802l-.327.123z"/></svg>