<svg xmlns="http://www.w3.org/2000/svg" xml:space="preserve" width="426.5" height="377.754" viewBox="0 0 112.845 99.947"><path d="M113.835 101.092q-.457 0-1.06.043c-1.291.095-1.501.314-.926.968.39.443.728.504.728.131 0-.145.417-.265.926-.265s.926-.115.926-.256c0-.14.179-.188.397-.104s.397.03.397-.122c0-.26-.474-.394-1.388-.395m2.298.084c-.372 0-.608.111-.524.248.182.294 1.201.26 1.201-.04 0-.115-.304-.208-.677-.208m-8.487.393c-5.257-.016-15.577.187-17.917.413-1.434.14-4.649.265-7.144.28-3.55.02-4.35.086-3.676.302 1.22.392 1.065.746-.265.605-.883-.094-.994-.065-.516.131.731.3 8.575.296 8.39-.005-.072-.116.196-.301.595-.412 1.226-.341 1.491-.362 1.775-.138.357.282 3.813.75 7.153.97 1.455.096 2.824.282 3.042.413.219.13.993.173 1.72.093.728-.08 1.502-.162 1.72-.18.218-.019.484-.165.591-.325q.195-.291.199.073c.003.247.11.283.334.112.182-.137.746-.274 1.253-.305s1.037-.171 1.177-.312 1.006-.255 1.923-.255c1.01 0 1.667-.113 1.667-.284 0-.156.327-.245.726-.199.802.094 1.057-.572.338-.88-.144-.062-1.333-.092-3.085-.097m16.441.93c-.65 0-.451.676.316 1.08.905.476 1.718 1.234 2.316 2.159.267.413.599.647.77.544.166-.099.14.02-.059.264-.308.38-.298.468.065.608.234.09.368.256.298.37s.046.35.258.527c.332.275.334.374.016.692-.204.204-.452.37-.552.37s-1.09-.872-2.202-1.94c-1.76-1.69-4.422-3.616-4.997-3.616-.106 0 .58.52 1.525 1.156 2.189 1.473 6.062 5.491 7.148 7.415.864 1.531 1.215 1.875.974.954-.076-.291-.044-.472.07-.401s.27.368.347.662c.087.333.035.47-.139.362-.188-.117-.21.077-.065.594.117.422.297 1.303.4 1.958s.203.93.222.61c.02-.318.155-.653.301-.743.159-.098.22.082.152.448-.062.336-.124.968-.137 1.405-.018.613-.082.703-.28.397-.19-.295-.25-.16-.23.529.015.51.081.717.148.463.066-.255.23-.463.366-.463.286 0 .33.622.061.89-.33.33-.326 1.048.028 4.272.286 2.605.498 3.473 1.177 4.817 1.028 2.036 2.09 3.264 3.766 4.35.714.463 1.299.923 1.299 1.024 0 .202-2.78 2.134-3.492 2.427-.856.352-1.11 2.176-.759 5.453.25 2.331.25 3.077.002 3.376-.411.495-.152 2.137.441 2.793.27.297.805.496 1.335.496.801 0 1.335.517.554.538-.182.005-.046.246.302.536.857.713.556.928-.328.233-.927-.73-.888-.427.11.833.82 1.034.838 1.564.055 1.564-.234 0-.35-.075-.259-.167.202-.201-.273-1.156-.574-1.156-.292 0-.827 1.226-.827 1.895 0 .412-.128.515-.513.414-.783-.205-1.41 1.495-.954 2.592.267.647.266.902-.01 1.323-.343.525-.513 3.826-.374 7.27.038.946-.02 2.077-.129 2.513h.001c-.19.76-.181.77.22.264.23-.29.423-1.021.428-1.623l.008-1.095 1.311.123c1.194.112 1.425.037 2.58-.847l1.268-.97.152 1.677c.095 1.037.17-.114.199-3.02l.046-4.696h2.233c1.229 0 2.296.102 2.373.227.077.124 2.257.3 4.844.391s5.747.244 7.02.34l2.315.175v-2.948c0-2.324-.193-3.281-.361-2.76-.93-.445-.905-.496-1.843-.72a40 40 0 0 0-2.193-.463c-.63-.116.284.023-.578-.23-.483-.143-1.01-.166-1.5-.289-.018-.005-1.324-.341-1.328-.346-.014-.014.018-.052 0-.058-.43-.143-.872-.151-1.31-.211l8.749 2.33c-.096.305-.184 1.08-.222 2.38l-.075 2.58-3.043-.01-3.043-.009.054-.718c.008-.112.006-.193.003-.274.004.093.004.2.002.335l-.01.61 1.627.016 2.992.029 1.366.013.033-.533c.018-.294.048-1.093.066-1.776.032-1.15.1-2.136.172-2.482l.03-.144-4.431-1.176a1656 1656 0 0 1-5.262-1.403c-.456-.124-.834-.219-.84-.21a6 6 0 0 0-.114.293c-.141.381-.464.845-1.013 1.457-.595.662-.81 1.074-.812 1.553 0 .35-.042.683-.177 1.45-.084.475-.05.67.133.749.08.034.204.207.313.433.196.408.398.577.689.577.238 0 .694.14 1.238.38.604.265 1.172.378 1.933.385.834.008 1.25-.084 1.522-.334.175-.162.2-.21.146-.298-.035-.057-.16-.13-.278-.163-.157-.044-.225-.085-.212-.118-.002.022.07.05.25.097.378.099.412.202.165.5-.413.497-2.545.483-3.517-.025-.417-.217-.994-.395-1.282-.395a.71.71 0 0 1-.662-.53c-.076-.29-.252-.528-.393-.528-.151 0-.175-.349-.058-.86.109-.473.18-1.125.158-1.45-.025-.353.312-.943.84-1.471.485-.485.961-1.197 1.058-1.582.018-.072.018-.115.03-.173h.017l-.017-.005c.088-.468-.06-.58-.982-.832-.62-.17-2.02-.327-3.11-.35l-1.985-.044-1.654 1.59c-.91.874-1.653 1.444-1.653 1.266s.138-.323.308-.323.236-.074.145-.164c-.09-.09.004-.331.21-.536.495-.496.215-1.151-.493-1.156-.438-.003-.482-.058-.192-.242.264-.167-.011-.288-.926-.41-.716-.094-1.48-.198-1.698-.23-.299-.044-.385-.38-.35-1.356.04-1.117.174-1.41.958-2.108.501-.445 1.124-1.286 1.385-1.868s.694-1.357.963-1.722c.564-.766.796-1.55.896-3.04.04-.582.193-1.356.342-1.72.21-.515.28-.017.313 2.249.024 1.6.133 3.565.244 4.365s.218-4.75.239-12.336c.032-11.968-.016-13.836-.36-14.122-.218-.181-.397-.547-.397-.812 0-.696-2.541-5.285-3.36-6.067l-.692-.661.717 1.19c2.51 4.165 3.907 8.199 3.332 9.622-.125.31-.236.42-.245.242s-.295-.952-.636-1.72a77 77 0 0 1-1.389-3.46c-.735-1.97-1.713-3.5-3.864-6.042a93 93 0 0 1-1.752-2.14c-2.034-2.591-3.485-3.62-5.274-3.738-.327-.022-.595-.13-.595-.238 0-.11-.179-.199-.397-.199zm21.969 47.116 1.403.373c-.152-.062-.303-.136-.428-.186-.35-.14-.106-.008-.404-.058-.12-.02-.227-.095-.347-.115-.11-.019-.167-.016-.224-.014m1.403.373a1.6 1.6 0 0 0 .455.122zm-59.247-46.55c-.535.027-1.121.117-1.25.246-.076.076.352.138.95.138.597 0 1.155-.111 1.239-.247.078-.127-.405-.164-.94-.137m28.026.915c-.395 0-.877.016-1.503.041-1.666.067-2.781.235-3.053.46-.235.196-.428.273-.428.173s-.376.086-.837.414-1.562.858-2.447 1.179c-.886.32-1.562.685-1.502.81.06.126 1.448.542 3.086.927 5.275 1.238 7.585 2.312 8.299 3.86.578 1.256.843 8.264.538 14.274-.447 8.803-.768 27.424-.724 42.021.061 20.543.19 19.002-1.746 20.703-1.457 1.279-2.447 1.48-6.362 1.295-1.905-.09-9.06-.233-15.9-.316s-12.711-.208-13.05-.277l-.614-.126.143-4.005c.136-3.825.175-4.056.879-5.115 3.304-4.977 5.06-7.264 5.575-7.264.225 0 .325-.083.223-.185-.2-.2 5.62-6.165 6.016-6.165.136 0 .185 1.758.113 4.112-.069 2.261-.033 4.169.08 4.238.112.07.242-1.93.288-4.442l.083-4.57 1.533-1.52c.842-.838 1.626-1.522 1.74-1.522s.378-.315.584-.7c.425-.794 4.71-4.854 5.13-4.86.15-.003.69-.864 1.2-1.914 1.03-2.123 2.445-3.788 4.943-5.814.919-.746 1.67-1.508 1.67-1.694s.299-.658.662-1.05c.923-.996.878-1.695-.11-1.695-.616 0-1.333.537-3.57 2.672-1.54 1.47-3.622 3.762-4.628 5.094-1.005 1.331-3.446 4.026-5.425 5.988l-3.597 3.569-.044-1.716c-.028-1.08-.077-1.324-.133-.658-.276 3.327.03 2.863-5.06 7.696-2.576 2.447-5.8 5.705-7.165 7.24s-2.585 2.761-2.712 2.725-.245.082-.262.264l-.066.67c-.02.187-.195.439-.389.56-.194.12-.326.265-.292.322s-.026.378-.133.716c-.186.585-.213.591-.588.132-.216-.265-.339-.363-.272-.217.183.402-.307 1.511-.59 1.336-.137-.085-.335-.014-.44.156-.12.193-.077.239.114.12.168-.103.305-.062.305.092s-.106.28-.235.28-.285.351-.348.78-.025.725.084.658c.109-.068.265-.015.346.117.082.132-.263.317-.766.411-.661.124-1.21.021-1.982-.373-.94-.48-1.073-.663-1.112-1.532l-.045-.987-.102.979c-.084.789-.19.945-.551.808-.397-.15-.394-.115.029.312.262.265.44.734.396 1.043-.07.5-.242.56-1.535.536-.8-.015-1.956-.119-2.568-.23-1.074-.197-1.12-.246-1.29-1.388-.11-.726-.049-1.577.157-2.2.184-.558.261-1.382.172-1.83-.153-.762-.12-.804.489-.651.52.13.7.038.891-.46.313-.808 1.23-1.85 1.442-1.638.26.26.96-.445.922-.929-.13-1.659.42-1.839.73-.239l.217 1.125.098-1.008c.15-1.558.83-1.163 1.962 1.14.535 1.088 1.299 2.259 1.696 2.601.662.57.745.583.976.17.57-1.019.052-3.147-1.636-6.71-1.218-2.57-1.617-3.679-1.496-4.159.183-.73.678-.614.678.16 0 .275.103.562.23.64.346.215.532-1.806.414-4.515-.069-1.565.016-2.772.238-3.415l.345-.996 1.21 1.564c1.521 1.966 3.141 2.908 4.547 2.644.541-.101 1.182-.415 1.425-.698.242-.283.545-.515.673-.515.35 0 1.328-1.309 1.668-2.231.164-.446.73-1.449 1.256-2.227.527-.779.96-1.731.962-2.117.004-.55.06-.615.26-.304.2.308.258.23.261-.346.003-.41.114-.676.248-.593.453.28.458-3.858.007-5.578-.482-1.836-1.95-3.642-3.885-4.778-.96-.563-1.083-.73-.851-1.164.149-.278.393-.506.542-.506s.198-.118.109-.262c-.394-.637-4.881 2.438-6.085 4.17-2.117 3.044-2.408 3.793-2.756 7.094-.407 3.867-.747 5.544-1.2 5.92-.272.225-.78-.516-2.363-3.452-1.11-2.057-2.018-3.84-2.018-3.965 0-.331-1.026-.824-1.328-.638-.338.21-.334 1.11.005 1.32.146.09.265.566.265 1.06 0 .654.249 1.165.926 1.902 1.118 1.216 2.667 4.089 2.91 5.396.18.978-.224 3.013-.652 3.278-.133.082-.679-.598-1.214-1.51-.534-.913-1.564-2.404-2.287-3.313-1.237-1.554-1.8-1.991-1.8-1.398 0 .141-.17.192-.378.112-.567-.218-.352 1.274.475 3.304.378.928.623 1.79.544 1.918s-.028.23.111.23c.247 0 .221.97-.106 3.97-.238 2.178-1.36 6.788-2.115 8.692l-.666 1.68.691 1.18c.38.65.861 1.246 1.068 1.325.237.09.376.529.376 1.18 0 .94-.074 1.052-.793 1.196-.437.087-.794.272-.794.41 0 .611-.774-.602-.937-1.47-.28-1.494-.694-1.156-.488.4.125.943.093 1.308-.103 1.186-.156-.096-.346.035-.42.291-.076.256-.102.047-.058-.465s-.071-1.524-.255-2.249c-.308-1.22-.914-6.831-.914-8.471 0-.592.093-.69.55-.57.521.136.518.114-.067-.432l-.615-.576-.204.661c-.111.364-.088 1.912.053 3.44.31 3.358.56 8.782.376 8.133-.073-.257-.234-.404-.358-.327-.123.076-.37-.756-.545-1.85-.177-1.093-.398-1.987-.492-1.987-.095 0-.18-.209-.189-.463-.008-.255-.163-1.883-.343-3.618-.284-2.746-.21-6.24.144-6.815.064-.103.12-1.388.126-2.854.005-1.592.11-2.603.257-2.512.137.085.248.037.248-.105a.4.4 0 0 0-.25-.346c-.139-.048-.281-.594-.317-1.213-.036-.618-.16-1.124-.278-1.124-.117 0-.213-.109-.213-.242 0-.474 1.567.358 1.677.89.387 1.877-.296-11.958-.77-15.597l-.138-1.059.5 1.059c.595 1.26 1.222 1.836 1.77 1.626.566-.217.506-.974-.51-6.52-.494-2.692-.852-4.94-.796-4.997.218-.218 1.432.795 2.407 2.007.56.698 1.479 1.767 2.04 2.378.895.973 1.085 1.07 1.546.794.585-.35.577-.998-.088-6.93-.317-2.83-.364-8.129-.114-12.964.104-2 .083-2.183-.132-1.14-.14.682-.35 2.468-.465 3.968l-.21 2.728-.467-1.522c-.484-1.58-.637-1.736-1.17-1.203-.435.435-.4 1.456.189 5.555.278 1.936.512 4.097.52 4.801.016 1.512.137 1.566-2.878-1.28-1.092-1.031-2.42-2.227-2.951-2.657-.653-.53-1.064-1.148-1.267-1.908-.165-.619-.406-1.125-.535-1.125-.128 0-.59.357-1.027.794s-.86.794-.941.794c-.082 0-.085-.566-.008-1.257.41-3.649.736-6.05 1.196-8.774.28-1.66.457-3.07.394-3.134-.063-.063-.329.135-.59.44s-.715.558-1.01.563c-1.383.022-2.956 2.63-4.657 7.72-1.945 5.817-2.094 6.748-2.395 14.893-.15 4.074-.304 8.956-.342 10.848-.128 6.451-.148 6.747-.448 6.747-.17 0-.234-.251-.152-.596.078-.327.224-5.655.326-11.84.101-6.184.272-11.423.38-11.641.108-.219.274-1.093.37-1.942.23-2.057 1.87-8.355 2.581-9.914.892-1.956 1.034-2.635.587-2.807-.213-.081-.329-.054-.258.06.17.277-.115.649-.763.994-.479.254-1.595 2.194-1.877 3.26-.513 1.942-1.34 6.118-1.232 6.225.074.074-.103.645-.392 1.27-1.159 2.496-1.221 3.382-1.242 17.538l-.02 13.494.891 3.175c.883 3.148.889 3.209.731 7.223-.116 2.979-.079 4 .141 3.863.209-.129.246.028.123.516-.096.386-.066.7.068.7s.327.715.428 1.589c.101.873.294 1.656.427 1.738.134.083.18.253.102.379-.131.212.959 3.33 1.48 4.232.126.219.665 1.171 1.198 2.117 2.994 5.313 4.082 6.682 6.583 8.275.727.464 1.363.936 1.411 1.048.05.113.198.138.331.056s.242-.024.242.13c0 .155.179.28.397.28s.397.104.397.23 2.232.317 4.96.423c2.73.106 5.111.315 5.294.465.216.177 1.355.207 3.241.085 1.779-.115 2.909-.091 2.909.061 0 .141 2.266.333 5.224.442 2.888.107 5.296.309 5.384.452s1.22.234 2.549.205c1.314-.029 2.526.032 2.694.136s1.463.164 2.877.134 2.79.038 3.057.15c.455.19 1.837-.045 6.393-1.085 2.166-.495 5.144-.372 6.35.263.437.23.943.418 1.124.42.182 0 .331.12.331.265s.215.265.477.265.598.122.746.27.798.38 1.442.514c.965.201 3.045.157 5.273-.11.609-.073 3.211-.963 4.1-1.403.437-.215 1.45-.945 2.25-1.62 2.456-2.074 3.75-3.055 5.953-4.512 2.912-1.926 3.443-2.482 4.22-4.423.588-1.47.675-2.082.675-4.764v-3.076l5.49.187c3.02.104 6.62.296 8.003.427 1.383.132 3.496.243 4.697.247l2.182.007V172.9l-.793.055c-.394.028-.61.099-.702.186-.405-.077-.8-.18-1.246-.248-1.144-.174-2.319.046-3.464-.058-1.565-.142-3.161-.058-4.734-.058h-1.963c-.257 0-.555-.042-.808 0q-.148.025-.288.038c-.31-.033-.54-.063-.95-.104-2.84-.28-3.297-.2-4.291.758-.468.45-1.066.835-1.328.854-.687.051-1.163.4-.97.713.195.316-.663 2.34-.992 2.34-.218 0-.332-.584-.244-1.257.073-.563-.213-.366-.626.432-.217.42-.676.834-1.02.92s-.943.452-1.332.812c-.847.786-.904.642-.16-.403.301-.423.476-.769.389-.769s.012-.325.22-.723c.348-.663.324-.823-.281-1.918-.363-.657-.917-1.472-1.23-1.811-.508-.549-.565-.883-.516-3.043.21-9.399.254-10.127.65-11.025.328-.747.388-1.774.308-5.292-.18-8.006-.271-10.18-.456-10.949-.1-.42-.046-1.431.12-2.249.321-1.575 1.513-4.068 1.846-3.862.338.21-.777-3.06-1.296-3.802-1.024-1.463-1.882-5.305-1.886-8.445-.002-2.028-.892-7.72-1.457-9.32-.619-1.753-7.323-8.448-9.581-9.568-1.176-.583-1.58-.747-2.766-.75zm-31.793 1.31c-1.65-.02-3.044.006-3.882.095-.8.086-1.624.16-1.83.168-.206.007-.309.079-.228.16.081.08 2.631.212 5.667.291 3.035.08 7.186.233 9.223.342s4.12.207 4.63.216l.926.016-.794-.255c-1.503-.482-8.76-.97-13.712-1.032m18.343 1.63c-.168 0-.336.017-.463.05-.255.067-.047.122.463.122.509 0 .717-.055.463-.122a2 2 0 0 0-.463-.05M88.59 111.31c-1.181.023-3.25.758-5.908 2.12-1.38.708-2.629 1.36-2.774 1.45s-.452.177-.683.194c-.23.017-.97.184-1.643.373-.966.27-1.279.502-1.489 1.106-.146.42-.198.763-.115.763s.007.173-.168.384c-.271.327-.457.258-1.25-.463-1.07-.975-1.53-1.069-1.558-.318-.025.679-1.171 3.308-1.443 3.308-.113 0-.313.446-.444.992-.215.893-.317.985-1.018.922-.666-.06-.87.086-1.388 1-.701 1.235-1.237 4.99-.98 6.875.352 2.597.79 4.05 1.257 4.174.255.067.463.215.463.33s.546.529 1.214.92c1.034.606 1.407.687 2.527.55.723-.087 1.597-.344 1.94-.57.345-.225.844-.372 1.11-.327.439.075.502-.208.658-2.96.094-1.674.307-3.698.471-4.498.192-.93.236-2.574.122-4.558-.187-3.252-.026-3.931.9-3.79.266.041.521-.159.623-.487.147-.476.176-.448.198.191.024.685.092.734.796.58.44-.097.842-.05.941.111.095.154.352.28.57.28.253 0 .32-.12.187-.33-.349-.55-.256-.833.48-1.456.781-.663 1.278-.764 1.303-.264.161 3.2.485 4.74 1.25 5.932.45.703.948 1.855 1.106 2.56s.462 1.458.677 1.673c.77.77.597 1.002-2.828 3.805a35 35 0 0 1-2.074 1.563 17 17 0 0 0-1.782 1.424c-.47.44-.94.715-1.044.611s-.314.032-.467.3c-.305.535-4.213 4.29-4.465 4.29-.086 0-.198-.863-.248-1.918l-.09-1.918-.054 2.008c-.05 1.927-.09 2.042-.971 2.844-.505.46-1.003.837-1.106.837s-.677.506-1.276 1.124c-1.595 1.646-4.391 3.766-5.019 3.803-1.215.074-1.266.102-1.128.63.104.398-.02.57-.498.69-.35.088-.638.273-.638.412s.115.18.256.094c.14-.087.069.287-.159.832-.379.906-.377.96.01.638.47-.39.542-.217.193.46-.127.244-.294 1.749-.371 3.342-.146 2.997.135 3.334.452.542.233-2.05.376-2.513.778-2.513.181 0 .59-.243.908-.54.481-.448.58-.467.58-.117 0 .3.189.207.652-.32.36-.41.657-.594.662-.412s.13.33.277.33.241-.364.207-.81c-.057-.748-.09-.774-.428-.33-.34.444-.354.435-.186-.128.213-.714 2.036-2.7 2.479-2.7.168 0 .305-.12.305-.265s.156-.264.347-.264.585-.223.877-.494c.527-.492.53-.484.414 1.72-.071 1.355-.016 2.213.144 2.213.145 0 .284-.96.313-2.174.029-1.196.179-2.327.334-2.513.155-.187.184-.34.064-.34s-.085-.132.077-.294c.53-.53 1.642.543 1.674 1.617.062 2.128.453 1.924.55-.287.088-1.982.2-2.422.88-3.44 1.028-1.542 2.55-3.152 2.979-3.152.188 0 .343-.105.343-.233s.667-.736 1.482-1.352c.815-.615 1.886-1.566 2.38-2.113 1.094-1.21 8.08-6.518 9.367-7.117.51-.236 1.022-.579 1.138-.76.116-.183.354-.335.53-.34.576-.016 1.55-1.026 1.45-1.506-.153-.738-1.114-.485-4.207 1.109-2.72 1.401-3.597 1.61-2.724.644.353-.389.387-.807.21-2.535-.188-1.822-.231-1.943-.363-1.01-.124.877-.182.674-.337-1.191-.103-1.237-.204-3.59-.223-5.23l-.036-2.982.892-.657c.49-.362 1.1-.73 1.355-.82.548-.193.615-1.233.106-1.655q-.28-.23-.875-.218m41.332.45c.065 0 .117.12.117.265s-.126.264-.28.264-.207-.119-.117-.264.216-.265.28-.265m-78.45 5.327c-.076-.01-.143.005-.19.053-.079.078-.064.268.032.423.216.35.673.372.673.034 0-.234-.29-.481-.516-.51m22.046 3.953c.14-.002.264.383.421 1.069.18.784.494 1.935.697 2.559.762 2.338.357 6.515-.714 7.363-.948.75-2.402.609-3.159-.308-.358-.435-.344-.447.19-.163.318.17.685.308.816.308s.19-.922.13-2.05c-.08-1.524.065-2.85.563-5.165.546-2.536.823-3.61 1.056-3.613m14.33.033c-.043-.053-.074.172-.076.609-.003.582.049.851.115.598s.069-.729.005-1.058a.4.4 0 0 0-.045-.149m11.367 2.504-.72.507c-.395.28-.723.677-.727.884s.021.325.058.264c.036-.06.363-.458.727-.883zm-1.234 4.38q-.538-.004-1.14.03c-1.314.074-2.419.144-2.455.156a.8.8 0 0 1-.24-.002c-.097-.013-.282.167-.412.4-.224.4.93 4.314 2 6.785l.832 1.914c.769 1.767 1.54 4.267 1.503 4.869-.02.32.192 1.116.472 1.769.457 1.067.609 1.196 1.517 1.29.555.058 1.044.125 1.087.15s.058-.105.034-.286q-.127-.992.336-.993c.443 0 1.8-1.345 1.8-1.785 0-.2.102-.3.225-.224.124.077.388-.184.588-.58.199-.394.695-1.154 1.102-1.687 2.426-3.179 1.985-6.07-1.436-9.415-1.743-1.704-3.297-2.371-5.813-2.39m40.406 1.958q.02.018.043.167c.06.4.06 1.056 0 1.456s-.11.072-.11-.728c0-.6.028-.934.067-.895m-40.652 1.02c.364-.052.912.042 1.744.268.916.249 1.193.425 2.866 1.83 1.44 1.208 2.294 2.537 2.294 3.574 0 .978-.949 2.344-2.253 3.246-.58.401-1.125.733-1.211.738-.17.01-3.044-5.972-3.492-7.267-.151-.437-.381-.865-.511-.951-.13-.087-.16-.46-.068-.828.09-.359.268-.558.631-.61m-42.975 1.393c.054.024.033 1.636-.075 4.832-.102 2.983-.166 6.496-.143 7.805.024 1.31.104 5.418.179 9.128.175 8.706-.114 10.693-.604 4.147-.367-4.912-.274-12.327.267-21.212.192-3.159.322-4.724.376-4.7m12.179.816c-.046-.047-.08.117-.084.444-.006.437.05.648.122.468.072-.179.077-.536.01-.793a.3.3 0 0 0-.048-.12m70.952 1.726c.223.223-.192.726-.462.559-.136-.084-.247-.045-.247.086 0 .13-.268.369-.595.53s-1.005.564-1.507.895c-.501.332-.822.457-.711.278.288-.467 3.357-2.513 3.522-2.348m-79.993.957c.033-.085.095.163.213.672.136.582.194 1.565.13 2.183-.064.62-.01 1.192.122 1.273.131.08.23.348.22.595-.016.364-.061.349-.246-.083-.186-.431-.231-.446-.246-.081-.01.246.1.52.246.61.145.09.264.343.264.561 0 .247-.125.322-.33.198-.234-.14-.226-.069.025.24.195.242.294.592.219.78-.11.271-.14.27-.157-.008-.012-.19-.14-.273-.286-.183-.28.174-.36-.539-.281-2.513.026-.655.053-1.965.06-2.91.007-.828.013-1.248.047-1.333zm33.455.876a4 4 0 0 0-1.033.005c-3.49.468-5.073 4.419-3.698 9.229.705 2.465 1.083 3.153 2.115 3.847 1.07.72 1.405.74 3.146.177 1.13-.365 1.505-.674 2.508-2.068 1.482-2.06 1.892-3.268 1.671-4.929-.467-3.523-2.357-5.96-4.709-6.26zm1.006 2.943c.553.213 1.432 2.165 1.432 3.182 0 1.542-.99 3.809-1.86 4.258-.418.216-.983.393-1.256.393-.604 0-1.512-.927-1.894-1.935-.327-.864-.38-2.828-.075-2.828.113 0 .333-.336.489-.747.316-.838 2.622-2.53 3.164-2.323m-28.891 4.658c-.057 0-.104.178-.104.397 0 .218.115.397.256.397.14 0 .188-.179.104-.397s-.199-.397-.256-.397m-.413.955c-.113.007-.181.033-.176.076.01.088-.013.279-.051.424-.039.146-.083.694-.098 1.218-.024.83.03.916.418.674.245-.153.387-.373.315-.49s.003-.211.165-.211c.163 0 .224-.117.136-.26-.088-.142-.038-.486.11-.763.227-.425.168-.525-.371-.628a2 2 0 0 0-.448-.04m51.88.93a.7.7 0 0 0-.292.051c-.21.085-.148.147.16.16.28.011.436-.051.348-.14-.044-.043-.123-.067-.215-.07m-56.26.596q.043-.041.107.115c.076.191.067.42-.02.508-.089.087-.151-.069-.14-.348q.01-.232.053-.275m6.132.253c.212 0 .324.1.25.22a.5.5 0 0 1-.386.22c-.137 0-.25-.098-.25-.22 0-.12.175-.22.386-.22m-5.811.84c.082.001.128.251.13.725.002.546-.041.993-.097.993-.23 0-.331-1.315-.127-1.637q.052-.082.094-.082m97.485.395c-.154 0-.206.119-.116.264s.216.265.28.265.117-.12.117-.265-.126-.264-.28-.264m-1.08.122c-.222-.053-.285.099-.103.394.097.157.3.21.452.117.177-.11.15-.247-.077-.387a1 1 0 0 0-.272-.124m-93.911.175a.7.7 0 0 0-.293.051c-.21.085-.148.147.16.16.28.012.436-.051.348-.139-.044-.044-.123-.068-.215-.072m89.429 0a.7.7 0 0 0-.293.051c-.21.085-.148.147.16.16.28.012.436-.051.348-.139-.044-.044-.123-.068-.215-.072m-94.752.76c.546 0 .847.766.847 2.155 0 .835-.118 1.592-.262 1.68-.15.094-.194-.013-.104-.248.102-.266.008-.411-.267-.411-.344 0-.426-.306-.426-1.588 0-.873.096-1.587.212-1.587m26.295.34c.509-.084 1.1.533 1.53 1.684.546 1.457.737 4.062.298 4.062-.131 0-.185.209-.12.463.066.255-.094 1.154-.355 1.999l-.475 1.535-.952-3.52c-.523-1.935-.857-3.642-.742-3.793.114-.15.098-.448-.037-.661-.277-.438-.347-1.496-.081-1.23.095.095.303-.003.463-.217.142-.19.302-.295.471-.323m-23.53.77c.116-.082.442 2.672.723 6.248.163 2.081.363 3.956.444 4.167.08.21.037.382-.096.382-.514 0-1.219-.74-1.283-1.348l-.233-2.195c-.091-.858-.23-1.663-.308-1.79-.223-.36-.232-4.948-.01-5.17.108-.108.307-.022.442.192.193.304.255.244.284-.272q.011-.198.036-.215m18.808 1.61c.165-.035.521.37.729.915.14.37.222.704.182.742-.128.122-1-1.155-1-1.465 0-.12.034-.18.089-.192m57.077.456c.154 0 .206.119.116.265-.09.145-.215.264-.28.264-.064 0-.116-.119-.116-.264s.126-.265.28-.265m-57.572.15c.37.14 1.197 1.382 1.199 1.9 0 .182.12.331.265.331s.269-.149.273-.33c.015-.592 1.296 1.744 1.842 3.358.599 1.773.687 3.326.214 3.799-.803.802-2.818-.162-3.718-1.781-.883-1.588-1.018-6.445-.202-7.264q.046-.044.127-.013m70.662 1.917c.062.012.102.202.103.519q0 .382-.078.448c-.063.053-.087.039-.115-.065-.055-.205-.041-.757.021-.852.008-.012.015-.017.022-.025-.024.06-.04.204-.043.421-.005.437.05.648.122.469.073-.18.077-.537.01-.794-.032-.126-.063-.152-.087-.098q.024-.026.045-.023m2.046 1.384c.264.001.353.062.378.332-.035-.265-.177-.33-.527-.312-.216.01-.313.025-.343.045q.047-.044.31-.06.103-.004.182-.004zm-88.103.353q-.042.043-.053.275c-.011.28.051.435.14.348.087-.088.096-.317.02-.508q-.065-.156-.107-.115m-15.11 2.674c.037-.056.102.028.196.269.114.29.358 1.605.542 2.92.48 3.423.231 3.914-.322.633-.376-2.232-.523-3.655-.415-3.822m62.01 3.332c-.656.032-.88.756-1.028 2.958-.09 1.345-.207 2.981-.258 3.636-.16 2.044-2.447 6.35-3.144 5.92-.132-.082-.212-.822-.178-1.645.069-1.647-.167-2.97-.725-4.062-.403-.79-.581-1.563-.61-2.66-.012-.4-.118-.728-.238-.728-.228 0-.845 4.709-.842 6.43 0 .553-.172 1.341-.385 1.752-.212.41-.323.81-.247.886.077.077.012.218-.143.314-.162.1-.282-.039-.282-.326 0-.784-.789-.609-.825.183-.017.376-.005.802.028.948s.115.621.184 1.058c.119.755 1.407 2.325 1.407 1.715 0-.52.528.02.908.929.368.882 1.432 1.781 2.24 1.894.233.032.92.131 1.525.22.616.09 1.17.049 1.26-.095.202-.328-.385-1.646-.659-1.477-.112.07-.37-.04-.573-.243-.398-.398-.324-2.282.09-2.282a.24.24 0 0 0 .236-.242c0-.273.875-2.19 1.46-3.197.344-.592.39.062.438 6.217l.055 6.88.172-6.88c.164-6.576.203-6.97.894-8.968.696-2.015.743-3.236.139-3.61-.137-.084-.155-.88-.042-1.854.26-2.24.066-3.526-.55-3.644a1.3 1.3 0 0 0-.308-.027m-48.426.726c-.045-.047-.08.117-.084.444-.005.437.05.647.122.468.073-.179.077-.536.01-.793a.3.3 0 0 0-.048-.12m.253 2.816c-.048-.018-.082.133-.082.406 0 .364.06.513.133.331s.074-.48 0-.661q-.027-.068-.051-.076m-12.682.194q.022.026.045.15c.064.328.061.805-.005 1.058-.066.252-.118-.017-.115-.599.002-.436.033-.662.075-.609m83.825 2.304c-.035-.05-.049.148-.062.564-.017.515.236 1.462.563 2.105.583 1.143.627 1.17 2.028 1.246.788.042 1.492.137 1.565.21.212.212.795.155.948-.094.077-.125-.654-.301-1.627-.392-2.187-.204-2.91-.81-3.229-2.71-.097-.578-.152-.878-.186-.929m-83.314.941q.024.008.052.076c.073.182.073.48 0 .662-.074.181-.134.033-.134-.331 0-.273.034-.425.082-.407m19.383.732c.112.07.049.605-.19 1.66-.472 2.09-.74 2.918-.768 2.363-.043-.857.518-3.659.788-3.938q.113-.119.17-.085m-18.854 2.179q.024.008.052.076c.073.181.073.48 0 .661-.074.182-.134.033-.134-.33 0-.274.034-.425.082-.407m47.837.274-.035 1.389c-.02.764-.155 1.409-.3 1.432-.146.023-.74.061-1.32.085-1.06.042-1.855.397-.907.405.279.002.685.127.904.276.287.197-.054.251-1.232.195-.896-.043-1.574.011-1.506.12.068.11-.064.199-.293.199s-.682.149-1.008.33c-.325.183-.635.355-.688.384s-.19.446-.304.926c-.155.654-.218.276-.25-1.508-.054-2.9-.395-2.334-.638 1.059-.094 1.31-.21 2.685-.26 3.057-.089.687-.678 1.918-.692 1.448-.005-.142-.186-.004-.402.305-.419.597-.61 2.705-.293 3.218a.71.71 0 0 0 .542.306c.194 0 .42.179.505.397a.66.66 0 0 0 .573.397c.231 0 .363.094.292.208-.071.115.19.232.58.26.39.03.946.33 1.237.67.494.575.535.582.617.11.067-.386.222-.462.662-.322 2.286.727 4.674-.006 4.674-1.436 0-.904.748-.64.882.311.067.473.058-.569-.021-2.315a186 186 0 0 1-.163-4.96c-.013-1.269-.117-1.787-.358-1.787-.225 0-.348-.422-.363-1.256a23 23 0 0 0-.229-2.58zm47.712.377 4.799.142c-.033.01-.155.015-.165.026-.031.03.207.058.577.079-.25-.012-.45-.025-.587-.04a36 36 0 0 0-2.28-.111c-1.347-.028-1.472-.024-1.215.048a.93.93 0 0 1 .427.243c.129.15.136.195.105.598-.046.59-.229 1.154-.468 1.44-.155.186-.223.35-.322.786-.097.428-.172.612-.331.821-.264.345-.314.578-.237 1.082.195 1.269.854 2.236 1.704 2.5 1.16.358 2.987.573 5.965.699 1.343.057 4.542.064 4.733.011.112-.03.153-.09.183-.268.165-.972.26-6.445.119-6.845-.096-.268-.27-.429-.59-.542a1.3 1.3 0 0 1-.38-.206c-.12-.113-.22-.117-3.378-.145-1.48-.013-2.533-.035-3.242-.064.39.017.865.03 1.437.03.54 0 .97-.02 1.344-.042l3.863.114c-.006.1.134.215.481.325.369.117.542.424.572 1.01.079 1.544-.097 6.395-.24 6.632-.13.214-7.05.014-8.748-.254-2.2-.345-2.582-.469-3.016-.969-.723-.833-1.141-2.616-.697-2.965.195-.153.388-.57.428-.928s.193-.725.34-.816.336-.59.42-1.108c.147-.904.067-1.084-1.601-1.283m-9.283 1.038c-.043-.025-.074.187-.074.57 0 .509.054.717.121.462a2.2 2.2 0 0 0 0-.926q-.026-.094-.047-.106m-36.836 1.65c-.05.002-.091.149-.11.463-.018.315-.051.722-.074.904a.62.62 0 0 0 .231.525c.15.107.287.196.303.198s-.019-.438-.078-.978c-.078-.708-.189-1.112-.272-1.111m-11.878.873c-.028-.035-.05.132-.063.56-.026.873-.168 2.957-.317 4.63-.207 2.333-.193 3.307.062 4.175.476 1.617.708.793.693-2.455-.013-2.826-.25-6.759-.375-6.91m-2.233.428c-.28 0-.337 5.448-.074 6.945.258 1.465.35.643.35-3.109 0-2.492-.096-3.836-.276-3.836m64.979 2.02q.01 0 .021.012c.058.057.104.71.062.878s-.12.195-.173.058c-.093-.242-.016-.955.09-.948m-.01.049c-.045-.047-.08.117-.083.444-.005.437.05.647.122.468.073-.179.077-.536.01-.793a.3.3 0 0 0-.048-.12zm-2.537.022a.9.9 0 0 1 .37.069c.19.079.21.107.194.277a.4.4 0 0 1-.025.106 1 1 0 0 0 .011-.162c0-.146-.208-.263-.463-.26-.193.001-.287.013-.3.048.023-.048.106-.075.213-.078m-.217.083c-.006.037.071.1.238.207.357.23.47.289.508.19q-.03.06-.07.067c-.124.018-.706-.377-.678-.461zm-15.01.285c.08-.079.073.318-.013.881-.087.564-.327 1.323-.533 1.687l-.376.661.165-.661c.517-2.064.627-2.437.758-2.568m20.544.717c.095.003.187.014.265.035.065.017.116.06.126.102-.002-.015-.018-.03-.06-.047-.178-.073-.536-.077-.793-.01a.3.3 0 0 0-.118.048c.042-.082.32-.136.58-.128m-.58.129c-.046.045.117.08.444.083.322.004.518-.025.529-.07l.002.007c0 .062-.111.08-.49.08s-.492-.018-.492-.08q0-.01.006-.02zm-67.828 2.109c-.048-.018-.081.134-.081.406 0 .364.06.513.133.331s.073-.48 0-.661q-.028-.068-.052-.076m13.709.771q.043-.042.107.115c.076.191.067.42-.02.507-.089.088-.151-.068-.14-.347q.01-.232.053-.275m-25.163 1.535c.162-.055.477.072 1.025.356.803.415 1.037.904.45.94-.182.01-.585.067-.897.126-.457.086-.588-.045-.682-.682-.065-.448-.057-.686.104-.74m1.84 8.016a22 22 0 0 1 1.95.017c1.31.07 4.346.198 6.747.283 8.733.311 6.997.5-4.64.505-6.543.003-12.195.087-12.56.188-.365.1-.818.086-1.008-.03-.19-.118 1.353-.294 3.454-.393 2.088-.099 4.209-.292 4.712-.43.251-.07.747-.118 1.345-.14" style="fill:#000" transform="translate(-45.24 -101.092)"/></svg>