<svg xmlns="http://www.w3.org/2000/svg" xml:space="preserve" width="414.228" height="626.62" viewBox="0 0 109.598 165.793"><path d="M54.618.1c-10.194.365-21.63 1.48-29.012 9.398-2.938-.1-6.008 8.978.109 8.377 16.534-7.48 48.558-2.458 54.665-.29 5.642 2.003 10.424 7.29 13.371 11.99 2.533 4.04 1.067 80.565-.725 89.894-7.683 11.253-21.25 9.791-41.917 9.773-8.197.078-20.366 3.611-33.527-8.422-2.736-1.955-1.59-28.146-2.303-31.018l-1.072-52.28c.129-.262-1.359-14.024 4.16-18.336 2.73-1.681 3.996-10.325-2.715-6.163C6.792 17.833.094 27.331.1 37.62 5.427 41.7 2.016 48.872 2.43 54.674c-.67 13.82-.396 27.698-.95 41.504-1.023 4.413-1.588 8.866-1.224 13.398-.413 14.148 9.042 27.108 21.336 33.405.173 3.96-.33 14.614.133 18.502 2.174 6.212 14.745 4.976 12.186-1.346-1.18-4.388-.585-16.285 3.706-16.195 6.502-1.082 12.098 8.85 9.59 18.216-.088 5.828 14.387 3.712 12.31-1.015-1.713-8.23 5.34-16.364 10.262-17.735 4.4-1.91 7.34-3.19 11.244.039 7.666 2.23 17.1-2.812 17.518-11.233 2.928-3.492 7.6-6.443 8.923-11.404 3.29-8.926 1.47-18.627 1.98-27.922-.06-19.653.134-39.337-.072-58.976-2.544-15.586-16.765-26.11-31.057-30.462C70.672 1.033 62.604.195 54.618.1"/><path d="m85.549 90.27-.374-.187-.187-.187v-.187l.094-.373q.84-2.71.467-5.513-.28-2.71-1.588-5.138-1.309-2.43-3.364-4.205l-4.952-2.616-4.484-.56-4.298.747q-2.056.748-3.831 2.149-1.775 1.308-3.083 3.27l-.187.28q-.56-.373-.84-.467l-.748-.467-.187-.187v-.093l.093-.187.094-1.588-.467-1.402-.935-1.121-1.401-.747-.187-.094-.28-.093v-2.056q6.353-.467 10.184-5.232l2.335-3.924q.748-2.149.841-4.578.094-2.523-.747-4.952-.841-2.336-2.43-4.204-1.494-1.962-3.643-3.177-2.056-1.308-4.578-1.775v-.748l.747.094.748.187q2.896.56 5.512 2.055 2.616 1.402 4.671 3.457l3.457 4.765 1.962 5.606q.561 3.363.094 6.633v.374l.28.187q5.232 2.149 8.315 6.073 3.084 3.83 4.111 9.437.935 5.138-1.12 10.37z"/><path d="M44.423 62.958c-1.19-1.457-1.4-1.745-1.303-1.8l2.452-1.434 2.337-1.37 2.891-.56 2.89-.565 3.067.426c3.057.426 3.072.43 3.887.748 1.416.553 3.033 1.448 4.307 2.388l.465.344-.15.25c-.651 1.091-1.862 2.616-2.453 3.087l-.28.224-.64-.418c-.892-.581-2.684-1.449-3.667-1.774-3.345-1.102-6.714-.814-10.072.86-.55.273-1.29.686-1.64.916a17 17 0 0 1-.658.416c-.008 0-.654-.78-1.433-1.738"/><path d="M22.614 89.467a32 32 0 0 1-.906-3.45c-.29-1.586-.393-3.924-.24-5.443.363-3.597 1.94-7.437 4.224-10.278 2.092-2.6 4.59-4.555 7.47-5.843 1.394-.624 1.28-.493 1.174-1.345-.318-2.538-.193-4.946.377-7.284.344-1.403.757-2.511 1.514-4.042.736-1.495 1.674-2.95 2.62-4.073.545-.649.863-.923 3.083-2.669 2.528-1.988 2.881-2.223 4.236-2.806a20.6 20.6 0 0 1 4.22-1.305c1.162-.235 1.096-.233 1.12-.016.042.341-.074.439-.723.597a13 13 0 0 0-2.928 1.073c-.899.458-1.03.551-2.517 1.824l-1.57 1.341-1.173 1.789-1.177 1.788-.61 2.063-.609 2.063.154 2.545c.168 2.792.224 3.12.76 4.47.632 1.588.91 2 2.715 4.028 1.654 1.856 1.962 2.13 3.239 2.882 1.57.921 3.93 1.698 5.555 1.827.912.073.824-.045.824 1.092v.986l-.327.082a4.1 4.1 0 0 0-1.424.692c-.555.426-.846.872-1.185 1.809l-.304.84.02.993.023.994-.792.504-.79.501-.104-.155a22 22 0 0 0-1.582-1.996c-2.618-2.829-6.598-4.441-10.592-4.294-2.205.083-3.997.525-5.783 1.432-.721.364-.964.543-2.511 1.855-2.138 1.813-2.15 1.822-2.706 2.571a12.7 12.7 0 0 0-2.235 4.633c-.33 1.304-.407 1.949-.407 3.45 0 1.539.07 2.12.435 3.535.25.966.254 1.076.054 1.257-.32.288-.35.262-.62-.52"/><path d="M47.224 91.853a16 16 0 0 1-4.311-2.508c-.307-.247-1.103-1.136-2.403-2.689-1.753-2.093-1.98-2.392-2.304-3.046-1.346-2.692-2.022-5.512-2.022-8.412 0-1.084.093-2.431.177-2.517.056-.058 2.971.215 3.364.316.228.058.532.13.678.158.462.094.477.135.385 1.14-.172 1.899.15 3.9.93 5.812 1.417 3.457 3.435 5.667 6.57 7.194.51.248.939.461.952.473.033.03-.243 1.074-.443 1.681-.174.524-.966 2.21-1.138 2.42-.086.107-.118.105-.437-.022"/><path d="M39.828 102.59c-5.774-.598-10.304-2.97-13.89-7.273-.327-.392-.325-.402.088-.64.135-.08.054-.139 2.485 1.853.85.697 1.273.99 1.891 1.308a14 14 0 0 0 3.026 1.17c1.308.329 1.784.383 3.374.383h1.478l2.065-.572 2.063-.572 1.813-1.145c1.409-.89 1.95-1.275 2.423-1.72 1.202-1.13 2.03-2.268 2.785-3.83.726-1.499 1.072-2.596 1.294-4.092.39-2.64.09-5.032-.958-7.632-.206-.51-.351-.947-.323-.973.179-.172 1.623-.946 1.689-.908.043.028.38.274.744.549.648.49.683.504 1.437.675.424.097.842.175.928.175.322 0 1.66-.364 1.988-.542a4.4 4.4 0 0 0 .731-.542l.392-.36.748.454c.411.25.772.476.802.504s-.182.73-.47 1.559c-.741 2.122-.924 3.105-.926 4.924 0 2.664.758 5.329 2.111 7.414 2.026 3.113 4.905 5.29 8.106 6.13 1.374.356 1.94.401 4.397.337l2.201-.056 2.075-.758c2.668-.978 3.335-1.374 4.985-2.96l.882-.848.243.149c.13.082.24.176.24.21 0 .111-.995 1.259-1.69 1.948-2.17 2.157-4.958 3.814-8.145 4.844-.96.31-2.314.63-2.89.682-.205.018-2.11-.05-4.228-.15l-3.851-.187-1.103-.366a21.1 21.1 0 0 1-6.06-3.173 6 6 0 0 0-.527-.37c-.018 0-.379.247-.797.546-2.831 2.027-5.85 3.262-9.18 3.76-.827.123-3.6.183-4.446.095"/><path d="M60.64 91.707a17 17 0 0 1-1.028-2.252c-.2-.59-.48-1.651-.446-1.681.013-.012.491-.256 1.065-.546 3.274-1.652 5.568-4.277 6.684-7.643.48-1.448.542-1.883.594-4.16.026-1.117.07-2.05.094-2.079.08-.08 4.286-.69 4.346-.626.032.032.108.473.174.983.14 1.114.106 3.285-.07 4.37-.358 2.226-1.085 4.16-2.402 6.386-1.435 2.425-3.224 4.33-5.475 5.833-.667.447-2.396 1.344-3.076 1.596l-.29.109z"/></svg>