<svg xmlns="http://www.w3.org/2000/svg" xml:space="preserve" width="271.003" height="391.322" viewBox="0 0 71.703 103.537"><path d="M18.94.004c-1.584.057-3.04.707-4.182 1.99-2.064 2.317-2.094 5.025-.087 7.97 1.274 1.87 3.274 3.574 8.786 7.488 0 0 3.262 4.21 5.667 4.713 1.425.297 3.355-.025 4.193-1.214.715-1.015-.23-3.715-.23-3.715-1.936-7.36-3.252-9.31-6.06-12.755C24.568 1.46 21.579-.092 18.94.004zm31.946 5.384c-2.013-.016-4.359.904-6.336 2.863-2.33 2.308-3.975 3.262-5.206 9.787-.53 2.81.323 4.167.782 4.436 1.496 1.093 1.927.882 5.818-2.106 7.146-4.72 9.57-7.377 9.57-10.496 0-2.895-2.04-4.463-4.628-4.484m4.068 16.374c-.147 0-.708.447-1.247.992-1.019 1.034-4.115 2.972-7.246 4.537l-1.827.913 2.224 1.043c1.222.574 3.413 1.553 4.868 2.176s3.658 1.61 4.895 2.194 2.308 1.036 2.381 1.006c1.083-.455 6.1-2.962 6.601-3.3.371-.25 1.33-.743 2.13-1.095 2.827-1.244 2.855-1.129-.679-2.805-1.736-.824-5.109-2.435-7.494-3.58-2.386-1.144-4.458-2.081-4.606-2.081m-38.071.05-3.348 1.598a485 485 0 0 1-6.92 3.218c-4.01 1.82-4.234 1.941-4.234 2.3 0 .141 2.527 1.485 5.615 2.987 3.564 1.734 5.81 2.683 6.151 2.599 1.563-.386 13.37-5.803 13.37-6.134 0-.1-.328-.33-.728-.511-1.52-.687-7.266-4.072-8.558-5.043zm19.293 1.025a3.37 3.37 0 0 0-3.372 3.372 3.37 3.37 0 0 0 3.372 3.372 3.37 3.37 0 0 0 3.372-3.372 3.37 3.37 0 0 0-3.372-3.372M.401 30.333a.2.2 0 0 0-.047.008C.08 30.446 0 31.393 0 34.554v4.078l.806.789c.745.728 3.516 2.378 8.454 5.036 1.092.588 2.128 1.08 2.304 1.093.237.018.34-1.259.397-4.912l.078-4.937-3.572-1.697A373 373 0 0 1 2.8 31.256c-1.079-.542-2.114-.938-2.4-.924zm38.563.06a.4.4 0 0 0-.133.006c-.191.036-.446.191-.884.488-1.245.845-2.372.836-3.622-.007-.543-.369-.987-.55-.987-.404 0 .332-3.372 1.973-8.709 4.24-2.244.953-4.12 1.852-4.17 1.999-.084.253 5.175 2.914 12.35 6.248 1.818.845 3.335 1.54 3.37 1.545.408.055 15.822-7.252 16.038-7.603.214-.345-3.63-2.249-8.164-4.044-3.859-1.528-4.16-1.67-4.726-2.236-.134-.135-.239-.215-.363-.231m32.54.092c-.11-.004-2.67 1.212-5.689 2.703l-5.49 2.712v4.837c0 2.66.067 4.838.149 4.838.132 0 2.871-1.436 5.804-3.042 2.239-1.226 4.876-3.043 5.144-3.544.317-.593.394-8.491.082-8.504M18.05 38.102c-.24.08-.324 1.386-.323 5.047l.001 4.94 8.653 4.413c4.759 2.427 8.747 4.355 8.862 4.284.264-.164.272-10.178.008-10.586-.205-.316-1.768-1.081-13.96-6.83-1.604-.757-3.063-1.327-3.241-1.268m35.93.487a.7.7 0 0 0-.198.024c-.506.115-1.738.663-4.66 2.035-1.433.672-2.64 1.222-2.681 1.222-.042 0-1.564.706-3.382 1.567-1.817.862-3.796 1.714-4.397 1.894l-1.092.327v11.303l8.167-4.097c7.776-3.9 8.176-4.137 8.335-4.932.211-1.058.22-9.095.01-9.305q-.031-.032-.103-.038m15.958 4.616c-.134-.147-4.75 2.163-7.497 3.752l-1.985 1.148-.067 20.82c.029 15.504-.138 14.45.303 14.286.255-.095.94-.43 1.523-.745.582-.315 2.443-1.306 4.136-2.202 1.692-.896 3.24-1.826 3.44-2.067.3-.365.439 2.512.357-14.474-.055-11.218-.149-20.452-.21-20.518m-67.414.193a1 1 0 0 0-.262.002c-.2.033-.318.148-.411.323-.17.316-.264 7.636-.264 20.326 0 18.497-.063 13.508.369 14.03.255.308 2.487 1.625 4.96 2.925 2.475 1.3 4.588 2.372 4.697 2.38.11.008.292-3.016.292-14.494V48.021l-4.077-2.16c-3.179-1.686-4.598-2.382-5.304-2.463m15.202 6.966v21.258l-.093 14.897 1.52.824c.838.453 3.665 1.919 6.285 3.258s5.715 2.934 6.879 3.544 2.266 1.122 2.449 1.136c.264.02.412 2.037.358-14.972l-.068-21.358-7.937-4.027c-4.366-2.215-8.265-4.146-8.665-4.293zm36.059.767c-.104 0-3.859 1.814-8.343 4.03l-8.154 4.031.047 19.98c.026 10.99.008 14.191.075 14.89s.199 1.234.293 1.19c.16-.074 4.665-2.426 12.672-6.614l3.505-1.834.094-14.656c.074-11.56-.085-21.017-.19-21.017M35.17 103.474l.087.063.03-.015c-.034-.01-.083-.037-.117-.048"/></svg>