<?xml version="1.0" encoding="UTF-8" standalone="no"?>
<svg
   ffdec:objectType="shape"
   height="31.5px"
   width="40.2px"
   version="1.1"
   id="svg2"
   sodipodi:docname="138.svg"
   inkscape:version="1.3.2 (091e20e, 2023-11-25)"
   xmlns:inkscape="http://www.inkscape.org/namespaces/inkscape"
   xmlns:sodipodi="http://sodipodi.sourceforge.net/DTD/sodipodi-0.dtd"
   xmlns="http://www.w3.org/2000/svg"
   xmlns:svg="http://www.w3.org/2000/svg"
   xmlns:ffdec="https://www.free-decompiler.com/flash">
  <g transform="matrix(1.0, 0.0, 0.0, 1.0, 20.45, 18.0)">
    <path d="M -5.3,-13.3 6.4,-13.35 5.55,-15.8 H -4.5 l -0.8,2.5 m -14.65,2.3 c 0.133333,-1.4 0.9,-2.166667 2.3,-2.3 l 8.45,-0.05 1.1,-3.2 V -17.5 H 6.2 l 2.65,0.55 v 1.05 l 0.75,2.55 h 4.35 l 3.45,1.05 c -18.6,0 -28.266667,0.1 -29,0.3 -0.8,0.466667 -1.25,1.1 -1.35,1.9 v 21.7 l 0.25,1 -5.4,-0.95 c -0.5,-0.1 -0.916667,-0.35 -1.25,-0.75 -0.4,-0.5 -0.6,-1.0833333 -0.6,-1.75 V -11 m 28.2,-4.8 h -2.2 l 0.85,2.45 h 2 L 8.25,-15.8 M -0.3,-0.6 -0.45,0.1 h -0.1 -2.65 -2.7 c -0.4333333,0 -0.8166667,0.15 -1.15,0.45 l -0.1,0.1 V 0.9 l 0.75,0.45 0.3,0.1 h 0.35 5.3 L -0.3,2.2 h -0.05 -0.9 -0.9 c -0.4333333,0 -0.8,0.15 -1.1,0.45 L -3.4,2.8 -3.45,2.9 -3.4,3 -3.15,3.2 -2.9,3.35 -2.5,3.5 -2,3.55 H 0.4 0.5 L 0.55,3.6 c 0.6,0.7333333 1.3666667,1.2 2.3,1.4 l 1.8,0.05 C 5.5166667,4.8833333 6.2666667,4.4833333 6.9,3.85 L 7.15,3.6 9.75,3.55 10.25,3.5 11.1,3.05 11.2,2.9 11.15,2.75 10.65,2.4 C 10.516667,2.3 10.333333,2.2333333 10.1,2.2 H 9.85 7.95 l 0.2,-0.75 h 5.3 L 13.95,1.4 14.8,0.95 14.9,0.8 14.85,0.65 c -0.2,-0.23333333 -0.466667,-0.4 -0.8,-0.5 L 13.75,0.1 H 13.4 8.15 l -0.2,-0.7 1.8,-0.05 0.55,-0.05 c 0.333333,-0.0666667 0.616667,-0.21666667 0.85,-0.45 l 0.05,-0.15 -0.05,-0.1 -0.5,-0.4 -0.6,-0.15 H 9.8 7.3 7.2 L 7.15,-2 C 6.5166667,-2.7333333 5.75,-3.2166667 4.85,-3.45 4.2166667,-3.5833333 3.6,-3.5833333 3,-3.45 2.1333333,-3.2833333 1.3833333,-2.9 0.75,-2.3 l -0.2,0.25 -0.05,0.1 H 0.4 -0.9 -2.15 c -0.4666667,0 -0.8666667,0.1666667 -1.2,0.5 l -0.05,0.05 -0.05,0.15 0.1,0.1 c 0.1666667,0.2 0.4,0.35 0.7,0.45 l 0.35,0.05 0.3,0.05 h 1.7 m 0.95,1.4 c 0,-0.43333333 0.0833333,-0.85 0.25,-1.25 l 0.65,-1 c 0.3,-0.3 0.6333333,-0.5333333 1,-0.7 l 1.2,-0.25 1.3,0.25 c 0.4,0.1666667 0.75,0.4 1.05,0.7 l 0.7,1 0.25,1.2 L 6.8,2 6.1,3.05 5.1,3.7 3.95,4 2.65,3.75 1.6,3.05 0.9,2.05 0.65,0.8 m 1.3,0 L 2.1,1.5 2.5,2.1 3.1,2.55 3.85,2.7 4.6,2.55 5.15,2.1 5.55,1.5 5.7,0.8 5.55,0.05 5.15,-0.55 4.55,-0.95 3.8,-1.1 3.1,-0.95 2.5,-0.5 2.1,0.1 1.95,0.8 M -9.25,9.6 V -7.9 l 0.45,-0.95 1.05,-0.5 h 23 c 0.9,0.1 1.383333,0.5833333 1.45,1.45 V 9.55 c -0.1,0.9 -0.583333,1.383333 -1.45,1.45 h -23 L -8.3,10.9 -8.6,10.75 -8.8,10.5 -9,10.35 -9.25,9.6 m -1.05,0.65 0.25,0.85 0.2,0.15 0.25,0.25 0.3,0.15 0.6,0.15 h 24.85 c 0.933333,-0.1 1.466667,-0.633333 1.6,-1.6 V -8.65 c -0.1,-0.9333333 -0.633333,-1.45 -1.6,-1.55 H 7.3991581 -8.7 c -0.5,0.06667 -0.8833333,0.25 -1.15,0.55 -0.266667,0.2333333 -0.416667,0.5666667 -0.45,1 v 18.9 m -1.6,1 V -9.7 c 0.03333,-0.5 0.2,-0.883333 0.5,-1.15 0.3,-0.333333 0.733333,-0.533333 1.3,-0.6 H 7.0804267 17.5 c 1.066667,0.133333 1.65,0.716667 1.75,1.75 v 20.9 c -0.133333,1.066667 -0.716667,1.666667 -1.75,1.8 h -27.6 l -0.65,-0.15 -0.35,-0.2 -0.3,-0.25 -0.2,-0.2 -0.3,-0.95 m 6.85,-27.05 -2.45,-0.6 -1.15,3.05 2.8,0.05 0.8,-2.5" />
  </g>
</svg>
