<?xml version="1.0" encoding="UTF-8"?><svg id="Layer_1" xmlns="http://www.w3.org/2000/svg" viewBox="0 0 197.99 171.74"><defs><style>.cls-1{stroke-width:0px;}</style></defs><g id="hk3ziN.tif"><path class="cls-1" d="m197.99,41.68v3.97c-.84,3.67-1.81,7.32-2.48,11.02-4.2,23.05-8.36,46.1-12.47,69.17-1.2,6.75-3.07,12.99-8.16,18.15-3.55,3.59-6.97,7.74-9.02,12.28-3.86,8.55-11.11,12.29-19.06,15.23-1.89.7-4.46-.29-6.69-.66-1.1-.18-2.11-.87-3.21-1.09-20.39-4.07-40.77-8.15-61.17-12.14-10.23-2-20.51-3.74-30.74-5.73-9.23-1.79-14.54-8.54-17.78-16.35-2.94-7.08-4.11-14.91-6.01-22.42-5.58-22.04-10.98-44.12-16.82-66.09-1.79-6.74-1.65-12.65,3.02-18.06-.35,1.44-.56,2.93-1.08,4.31-3.4,9.13-.46,16.93,5.46,23.78,1.82,2.11,3.14,4.14,3.76,6.75,2.18,9.16,4.31,18.33,6.57,27.47,1.17,4.75,2.58,9.44,3.87,14.15.45-.73.44-1.36.3-1.96-3.52-15.29-7.08-30.58-10.54-45.88-.5-2.22-.94-4.61-.64-6.82.69-4.99,3.89-7.42,9.66-7.09,8.1.48,16.18,1.38,24.26,2.16,19.13,1.87,38.26,3.66,57.37,5.71,8.36.9,16.66,2.41,25,3.52,2.1.28,4.27.04,6.41.04,0-.35,0-.7,0-1.05-15.18-2.7-30.86-2.34-46.08-6.61,2.02-1.67,3.46-3.17,5.19-4.18,1.16-.68,2.9-1.24,4.09-.89,7,2.07,14.15,1.19,21.24,1.37,2.65.07,5.14-.48,7.41-2.83-11.07-2.63-22.5-1.88-33.53-7.23,16.2,1.43,31.54,2.78,46.87,4.13-12.93-2.2-25.92-3.65-38.91-5.11-3.95-.44-7.85-.89-11.72.82-1.26.56-2.95.4-4.41.24-10.51-1.15-21-2.43-31.52-3.54-1.94-.21-3.95.1-5.92.23-.98.07-1.97.5-2.91.39-4.26-.5-8.49-1.43-12.75-1.65-9.2-.47-18.41-3.01-27.63-.09,11.89-6.4,24.4-6.71,38.04-3.7-6.56,1.08-12.34-2.07-18.9.04,7.21.75,13.63,1.38,20.03,2.1,6.08.68,12.15,1.48,18.23,2.19,4.13.48,4.69-.05,4.71-4.39-2.3,0-4.6.1-6.9-.02-3.63-.2-7.25-.52-10.87-.9-.55-.06-1.32-.62-1.48-1.1-.14-.44.28-1.43.7-1.61,2.98-1.28,5.97-3.23,9.05-3.39,4.13-.22,6.47-1.78,8.73-5.1,4.18-6.15,9.44-11,17.78-10.48,12.38.78,24.78,1.42,37.15,2.28,1.36.09,3.12.88,3.88,1.93,3.36,4.63,8.3,8.08,10.21,13.81.73,2.18,2.44,3.16,4.95,3.32,13.04.83,26.05,1.98,39.09,2.77,3.71.23,6.43,1.79,9.32,3.91,3.86,2.84,5.11,7.03,7.03,10.95Zm-101.01,12.3c.04-.34.08-.68.12-1.02-4.93-.48-9.86-.93-14.79-1.45-17.62-1.85-35.24-3.74-52.86-5.58-1.48-.15-2.99-.22-4.47-.13-3.27.19-5.27,1.75-5.92,4.97-.39,1.91-.59,4.02-.18,5.89,2.86,13.07,5.88,26.1,8.92,39.13.24,1.04.9,2.59,1.67,2.79,6.7,1.8,11.78,6.69,18.25,9.12,4.81,1.81,7.99.43,12.63-1.84-2.79-.9-4.64-1.49-7.6-2.44,2.22-.11,3.27-.39,4.17-.15,1.49.4,2.88,1.13,4.31,1.72-.55,1.31-.79,2.92-1.72,3.88-1.97,2.04-1.98,3.58-1.06,6.45,1.38,4.28,4.31,4.66,8.13,5.47-.84-2.21-1.54-4.06-2.29-6.05,1.63-.3,3.23-.59,4.98-.91-.05,1.09-.09,1.96-.15,3.23,3.15-1.16,5.98-2.2,8.81-3.24,2.35,3.89,5.46-2,7.95,1.43.18-3.06-.18-5.94,3.21-5.78,1.39.06,2.71,1.46,4.07,2.25-.79.78-1.59,1.56-2.23,2.19.55.69,1.3,1.63,2.05,2.57-.99.69-1.88,1.68-2.98,2-3.89,1.14-4.97,4.12-5.64,7.54,2.92-1.35,5.55-2.95,8.05-4.73,1.99-1.41,2.93-3.25,2.73-5.93-.32-4.3.5-5.03,4.82-5.75,1.15-.19,2.31-.32,3.35-.46-1.38-1.63-2.55-3.01-3.99-4.71,5.81-.77,5.91-.91,5.7-5.9-.08-1.78-.98-3.86,1.81-5.34.46,3.85.88,7.28,1.29,10.71,4.5-5.26-.46-10.13-.29-15.76,1.23.66,1.81.91,2.33,1.25,3.56,2.33,6.94,4.8,11.28,5.9,3.29.83,7.16,2.19,9.16,4.63,3.06,3.73,7.16,4.56,11.05,6.13,3.45,1.4,4.66.46,5.37-3.33.49-2.59,1.22-5.14,1.6-7.75.98-6.68,1.83-13.37,2.71-20.06.06-.48.03-1.01-.12-1.47-2.12-6.61-6.13-11.15-13.42-12.05-8.88-1.1-17.76-2.2-26.63-3.3-17.89-2.23-35.78-4.48-53.67-6.68-8.41-1.04-16.82-1.98-25.23-2.97.03-.31.07-.63.1-.94,21.54,2.16,43.07,4.32,64.61,6.48Zm-21.47-35.59c4.72.39,8.74.21,12.48,1.15,5.58,1.39,10.98,3.16,16.88,2.58,2.92-.29,5.92.16,8.88.32,4.23.23,8.45.5,12.86.76-1.72-7.57-5.54-11.73-11.74-12.29-9.7-.87-19.43-1.41-29.16-1.84-1.61-.07-3.73.66-4.82,1.79-1.99,2.05-3.4,4.68-5.38,7.54Zm23.77,6.34c.61,1.32,1.23,2.28,1.52,3.34.71,2.51,2.44,3.7,4.8,3.11,3.51-.87,6.73.03,10.09.64,4.06.74,8.19,1.09,12.3,1.53,10.31,1.09,20.61,2.64,30.95,2.99,5.04.17,9.31,1.04,13.46,3.75,4.21,2.75,10.76,1.57,14.04-2.19,1.14-1.31,1.09-2.63-.58-3.1-3.31-.93-6.69-1.67-10.09-2.16-1.1-.16-2.35.73-3.75,1.22.16.16-.14-.02-.26-.28-1.97-4.2-4.27-4.76-7.63-1.8-1.91,1.68-3.3,1.38-4.81-.66-2.22-3-3.78-2.97-5.67.21-1.25,2.12-3.09,2.38-5.05,2.31-4.63-.18-9.25-.54-13.88-.87-2.16-.15-3.68-1.12-4.48-3.28-.28-.76-1.17-1.61-1.95-1.83-9.41-2.63-19.03-3.1-29.02-2.94Zm.83,118.66c.43-.3,2.76-1.66,2.65-1.88-1.66-3.5,3.24-2,3.09-4.22-.14-1.93-.31-3.89-.14-5.81.08-.89,1.17-1.67,1.36-2.59.29-1.39.71-3.15.11-4.23-.68-1.24-2.3-2.2-3.72-2.65-.47-.15-1.74,1.51-2.34,2.52-1.18,1.98-2.32,4.02-3.17,6.15-1.09,2.7-2.11,5.48-2.74,8.31-.63,2.86.86,4.37,4.9,4.39Zm23.98-18.39c.11.49.21.97.32,1.46,1.2.2,2.63.91,3.57.5,2.05-.88,3.87-2.29,5.72-3.58.26-.18.17-.92.15-1.4-.05-1.45-.04-2.91-.27-4.34-.14-.85-.46-1.87-1.06-2.41-2.68-2.41-6.67-2.54-9.56-.48-2.31,1.64-2.19,4.16.45,5.34,1.25.56,2.85.29,4.24.62.73.17,1.35.81,2.18,1.34-2.21,1.13-3.98,2.03-5.74,2.94Zm4.34,4.43c-2.63-.72-4.25.16-4.97,2.68-.94,3.26-1.93,6.51-2.85,9.79-.12.42-.07,1.16.21,1.38,2.12,1.69,4.11,3.77,6.54,4.79,2.63,1.1,3.2-1.95,4.93-3.38-1.79-.61-3.21-.98-4.52-1.58-.84-.39-1.8-.96-2.24-1.72-1.14-1.98.72-9.62,2.9-11.96Z"/><path class="cls-1" d="m110.97,67.18c2.11,1.16,3.32,1.82,5.15,2.82-1.72.92-2.87,1.53-4.17,2.23.35.41.58.85.94,1.06.96.57,2.15.88,2.9,1.63.4.4.36,1.67.01,2.25-.24.41-1.37.53-2.03.41-1.11-.2-2.14-.9-3.24-1.02-2.14-.23-2.69-1.57-2.87-3.36-.24-2.46-.48-4.91-.74-7.37-.59-5.5.55-6.6,5.9-5.31.99.24,2.4,1.48,2.43,2.29.04,1.16-.93,2.42-1.68,3.49-.28.4-1.13.4-2.6.85Z"/><path class="cls-1" d="m67.57,67.68c-.12-1.83-.21-3.66-.36-5.49-.11-1.31-.52-2.65-.34-3.91.1-.7,1.11-1.71,1.77-1.76.69-.05,2.01.83,2.08,1.42.44,3.59.82,7.22.71,10.82-.03.91-2.1,2.64-2.92,2.47-2.1-.43-5.2-1.26-5.77-2.74-1.33-3.45-1.48-7.36-1.88-11.12-.05-.48,1.29-1.59,1.91-1.53.7.07,1.73,1.04,1.86,1.76.44,2.42.48,4.91.81,7.36.13.99.62,1.94.95,2.9.39-.06.78-.12,1.17-.17Z"/><path class="cls-1" d="m128.12,64.76c-1.04,1.05-1.79,2.45-2.81,2.69-1.84.43-3.47,1.08-3.13,3,.25,1.39,1.59,2.64,2.62,3.8.36.41,1.54.18,1.8.59.53.84,1.03,1.98.87,2.87-.1.58-1.38,1.3-2.16,1.35-2.38.13-6.23-3.51-7.27-6.6-1.09-3.25.64-8.93,3.63-10.55,1.26-.69,3.15-.66,4.62-.35.68.14,1.05,1.74,1.84,3.19Z"/><path class="cls-1" d="m60.73,70.72c-3.88-1.04-6.45-2.85-9.43-1.47-.15.07-1.51-1.41-1.42-2.06.53-4.07,1.28-8.11,2.07-12.14.1-.49,1.02-1.27,1.3-1.17.84.29,1.62.88,2.29,1.5.31.29.26.93.42,1.39,1.47,4.31,2.95,8.62,4.78,13.95Z"/><path class="cls-1" d="m43.64,59.94c.2-1.62.4-3.23.59-4.85.19-1.61,1.11-2.56,2.64-1.92.79.33,1.78,1.65,1.67,2.37-.55,3.73-1.34,7.43-2.25,11.1-.19.75-1.29,1.85-1.88,1.79-.94-.09-2.27-.82-2.61-1.62-1.59-3.78-2.99-7.65-4.21-11.56-.24-.77.38-2.44,1.01-2.71,1.47-.61,2.35.33,2.64,1.94.34,1.88.92,3.72,1.39,5.58.34-.05.67-.09,1.01-.14Z"/><path class="cls-1" d="m99.57,59.22c.68.06,1.66.14,2.65.23,2.57.23,3.35,2.46,2.25,3.81-2.31,2.85-1.65,5.72-1.4,8.75.11,1.34.85,3.17-1.58,3.35-1.99.15-2.43-1.23-2.71-2.81-.61-3.43.07-7.05-2.87-10.08-1.65-1.69.08-3.37,3.66-3.25Z"/><path class="cls-1" d="m82.82,57.48c6.19.35,6.44.99,5.19,5.9-.63,2.45-.06,5.18-.31,7.75-.08.83-1.02,1.59-1.57,2.38-.79-.66-2.02-1.18-2.29-2.01-.5-1.53-.25-3.28-.65-4.85-.38-1.49-1.26-2.85-1.8-4.31-.47-1.27-1.24-2.7-.96-3.85.16-.66,2.11-.9,2.4-1.01Z"/><path class="cls-1" d="m81.8,71.64c-6.01,1.78-6.88,1.27-7.57-3.91-.37-2.78-.78-5.58-.85-8.38-.02-.8,1.12-1.63,1.72-2.44.88.75,2.13,1.34,2.54,2.29.49,1.15.27,2.6.33,3.92.14,3.26-.1,6.67,3.83,8.52Z"/><path class="cls-1" d="m57.13,44.93c-7.03-1.18-13.81-2.36-20.61-3.44-2.93-.46-5.89-.69-8.83-1.08-1.46-.19-3-.25-4.35-.77-2.35-.92-2.66-3.33-.44-4.45,1.82-.92,4.13-1.51,6.14-1.34,6.73.56,13.43,1.5,20.14,2.34,1.96.25,3.93.56,5.86.99,1.27.28,2.87.49,3.64,1.34,1.22,1.34,1.88,3.2,2.77,4.84-1.44.52-2.88,1.04-4.32,1.57Z"/></g></svg>