<?xml version="1.0" encoding="UTF-8"?>
<svg xmlns="http://www.w3.org/2000/svg" viewBox="0 0 473 475">
  <g>
    <path d="m331.3,475h-13.97c-1.8-.25-3.59-.66-5.39-.71-27.95-.7-55.7-3.59-83.19-8.58-57.22-10.37-111.89-28.48-162.76-56.81-19.96-11.12-38.68-24.49-57.69-37.23-6.82-4.57-7.48-8.89-4.24-15.37C54.28,255.88,104.56,155.48,154.6,54.97c3.63-7.3,8.38-10.05,16.37-10,42.61.28,85.03-2.58,127.02-10.04,34.05-6.05,67.58-13.99,98.17-31.11,4-2.24,8.09-1.73,11.56,1.34,3.66,3.24,4.3,7.3,2.59,11.78-.41,1.08-.91,2.14-1.42,3.18-56.02,114.47-112.06,228.93-168,343.45-2.27,4.65-5.46,7.61-10.12,9.63-35.88,15.61-73.63,19.1-112.17,17.36-9.43-.43-18.84-1.32-28.26-2,33.96,12.44,69.05,19.02,105.05,20.51,24.11,1,48.16-.1,72.1-3.63,4.59-.68,6.88-2.42,8.83-6.41,28.11-57.72,56.37-115.38,84.6-173.05,24.07-49.18,48.14-98.36,72.2-147.54.22-.45.45-.89.68-1.33,3.57-7.14,8.96-9.67,14.71-6.89,5.8,2.8,7.25,8.73,3.78,15.84-53.81,110.01-107.65,220.01-161.37,330.06-2.52,5.17-6.11,7.93-11.68,8.77-22.04,3.32-44.16,5.82-66.49,5.18-16.41-.47-32.8-1.42-48.69-2.14.91.32,2.41.88,3.94,1.36,48.98,15.23,99.12,23.18,150.4,24.23,3.76.08,5.5-1.07,7.11-4.37,20.52-42.24,41.19-84.4,61.83-126.58,21.58-44.11,43.19-88.21,64.7-132.36,2.2-4.51,4.99-7.97,10.28-8.17,5.35-.21,8.25,3.45,10.7,7.55v4.99c-.82,1.62-1.66,3.23-2.46,4.85-43.29,88.44-86.6,176.88-129.8,265.37-2.19,4.48-4.78,8.19-9.44,10.18Z"/>
  </g>
</svg>