<svg xmlns="http://www.w3.org/2000/svg" xml:space="preserve" width="462.625" height="497.81" viewBox="0 0 122.403 131.712"><path d="m62.431 85.47-.242-46.24 3.398-2.813c9.599-7.941 31.387-15.575 48.044-16.833l8.11-.612.08 15.234c.044 8.38.248 29.21.452 46.292.289 24.208.122 31.215-.757 31.774-.621.394-3.297.722-5.947.73-2.65.007-8.888.843-13.863 1.857-14.782 3.012-23.994 6.66-34.073 13.491l-4.96 3.362zm28.066 19.04c4.04-1.207 8.462-2.432 9.826-2.723 1.758-.375 2.48-1.084 2.48-2.438 0-1.739-.355-1.86-3.995-1.361-2.198.301-6.763 1.472-10.145 2.602-4.927 1.647-6.208 2.459-6.438 4.084-.355 2.495-.653 2.5 8.272-.164zM78.46 75.138c4.705-2.4 18.052-6.17 24.794-7.002l5.41-.668V35.914l-4.509.26c-5.996.346-17.369 3.29-24.714 6.4l-5.946 2.518-.246 15.927c-.167 10.799.062 15.926.712 15.926.527 0 2.552-.813 4.5-1.807zm-23.453 54.128c-9.031-6.566-28.885-13.67-41.575-14.875-3.172-.301-7.492-.759-9.6-1.017L0 112.905V20.133l2.48.007c5.382.017 18.246 1.866 25.058 3.603 7.588 1.936 23.524 9.3 27.692 12.798l2.475 2.078.072 45.848c.039 25.217-.061 45.98-.223 46.143-.162.162-1.308-.443-2.547-1.344zm-5.572-21.886c-.466-3.282-13.38-9.238-26.186-12.076-10.785-2.39-13.33-2.366-13.33.127 0 1.671-.496 1.502 12.773 4.353 6.798 1.461 13.177 3.535 18.036 5.864 4.134 1.983 7.85 3.64 8.256 3.683s.61-.835.451-1.951m.163-12.338c0-.959-1.22-2.61-2.71-3.672-5.698-4.057-25.69-9.916-33.837-9.916-2.842 0-3.22.252-2.969 1.983.256 1.763 1.152 2.108 8.036 3.099 8.844 1.272 20.436 4.872 25.664 7.969 4.444 2.631 5.816 2.758 5.816.537m0-13.194c0-1.962-.852-2.696-5.636-4.86-11.255-5.09-31.163-9.595-33.237-7.522-2.13 2.13.297 3.54 8.016 4.653 8.623 1.244 18.73 4.345 25.284 7.758 5.327 2.774 5.573 2.773 5.573-.03zm1.946-51.823c-9.48-6.85-24.516-11.764-41.691-13.627L0 15.33v-3.07c0-2.49.298-2.987 1.578-2.632.868.24 4.013.697 6.989 1.015 7.869.84 21.613 4.715 27.907 7.869 6.314 3.164 15.303 9.392 18.466 12.795 2.856 3.073 2.386 2.895-3.396-1.282m18.344-2.253c9.238-8.451 24.504-15.088 41.374-17.987 10.74-1.845 10.478-1.886 10.478 1.651v3.027l-6.989.593c-16.719 1.42-32.774 6.39-43.985 13.613l-6.289 4.053zM26.152 10.415c-.744-.307-4.977-1.612-9.407-2.899-8.217-2.388-9.223-3.08-7.78-5.363.673-1.065 2.64-.394 11.032 3.767 5.617 2.784 9.604 5.06 8.86 5.057s-1.961-.256-2.705-.562m69.437-2.043C102.77 4.216 113.36-.571 113.987.056c.297.296.539 1.266.539 2.157 0 1.148-1.114 1.904-3.833 2.604-2.108.542-6.876 2.011-10.596 3.265s-7.372 2.478-8.116 2.72.88-.851 3.608-2.43"/></svg>