<svg xmlns="http://www.w3.org/2000/svg" xmlns:ffdec="https://www.free-decompiler.com/flash" ffdec:objectType="shape" width="31.3" height="24.85"><path d="M25.25 13.95v2.1H19v-2.1zm0 6.15H19v-2.15h6.25zM6.4 16.05v-2.1h6.25v2.1zm6.25 1.9v2.15H6.4v-2.15zM6.4 5.85h6.25V8H6.4zm0 6.2V9.9h6.25v2.15zm8.55-8.75q-1.45-.8-3.9-.8-1.3 0-2.9.85-1.3.75-2.2.7l-2.6-.25v18.55h11.6zM19 5.85h6.25v6.6H19zM15.65 1.7Q17.3.65 20.7.65q1.8 0 3.9 1.1 1.2.6 1.7.55h.1l3.3-.45.65.1.3.55v21q0 .7-.75.7H1.35q-.7 0-.7-.7v-21l.3-.55.65-.1 3.25.45h.1q.6.05 1.7-.55Q8.75.65 10.6.65q3.4 0 5.05 1.05m9.7 2.35q-.95.05-2.2-.7-1.7-.85-2.95-.85-2.45 0-3.9.8v19.05h11.65V3.8z"/><path d="m25.35 4.05 2.6-.25v18.55H16.3V3.3q1.45-.8 3.9-.8 1.25 0 2.95.85 1.25.75 2.2.7m-9.7-2.35Q14 .65 10.6.65q-1.85 0-3.95 1.1-1.1.6-1.7.55h-.1L1.6 1.85l-.65.1-.3.55v21q0 .7.7.7H29.9q.75 0 .75-.7v-21l-.3-.55-.65-.1-3.3.45h-.1q-.5.05-1.7-.55-2.1-1.1-3.9-1.1-3.4 0-5.05 1.05M19 5.85v6.6h6.25v-6.6zM14.95 3.3v19.05H3.35V3.8l2.6.25q.9.05 2.2-.7 1.6-.85 2.9-.85 2.45 0 3.9.8M6.4 12.05h6.25V9.9H6.4zm0-6.2V8h6.25V5.85zm6.25 12.1H6.4v2.15h6.25zm-6.25-1.9h6.25v-2.1H6.4zm18.85 4.05v-2.15H19v2.15zm0-6.15H19v2.1h6.25z"/></svg>