<svg xmlns="http://www.w3.org/2000/svg" xml:space="preserve" width="608.988" height="597.539" viewBox="0 0 161.128 158.099"><path d="M59.705 52.055 27.97 20.673l-5.837 5.595L54.11 57.892Zm35.268 25.052-2.676-.73-8.27 7.54q-2.431-.73-.243-2.92l7.054-8.025-2.432-.487-5.595 4.622-2.675 2.918q-2.431-.73-.243-2.918l7.053-8.027-2.432-.486-8.27 7.54q-2.431-.487 0-2.92l6.81-8.025-2.675-.73-8.27 7.54q-2.43-.73-.242-2.92l7.053-8.025-2.432-.486-5.594 4.62-2.676 2.92q-2.431-.73-.243-2.92l7.053-8.026-2.675-2.675-17.512 17.269 67.13 67.129 17.511-17.512-4.62-4.378q-1.46-1.945-2.677-.73l-5.594 4.62-2.675 2.92q-2.431-.73-.243-2.92l7.053-8.025q-1.46-1.46-2.675-.73l-5.594 4.622-2.676 2.918q-2.431-.73-.243-2.918l7.053-8.027q-1.46-1.46-2.675-.73l-8.27 7.54q-1.944-.243 0-2.675l7.054-8.026-2.432-.487-5.595 4.622-2.675 2.918q-2.431-.73-.243-2.918l7.053-8.027-2.675-.73-8.27 7.54q-2.431-.73-.243-2.918l7.053-8.026q-1.458-1.46-2.432-.487l-8.27 7.54q-2.187-.73 0-2.92l6.81-8.025-2.43-.486-5.595 4.62-2.676 2.92q-2.431-.73-.243-2.92l7.053-8.026-2.675-.73-8.27 7.54q-2.431-.73-.243-2.918l7.054-8.026-2.433-.487-8.27 7.54q-2.43-.73-.242-2.92l7.053-8.025-2.432-.486-8.27 7.54q-2.431-.73-.243-2.92zm49.616 39.158 4.378 13.864q2.19 9.972 3.891 13.134l8.27 14.836-15.08-8.026-14.593-3.648q-9.243-.974-13.62-3.405l-75.81-71.896c.398-.486 5.517-6.665 5.517-6.665L15.565 32.835l-9.972 7.783L0 35.024 35.024 0l5.594 5.594-7.54 9.972 31.735 31.382 5.749-5.098"/></svg>