<svg xmlns="http://www.w3.org/2000/svg" xml:space="preserve" width="449.221" height="878.498" viewBox="0 0 118.856 232.436"><path d="M122.19 23.022c-5.163-.009-13.39.742-16.342 2.999 3.725-1.166 12.03-1.523 2.938-.19-5.794.312-13.158 2.344-19.476 7.687-8.395 7.651 7.256-5.387-.513 1.077-4.157 2.703-9.511 12.13-2.371 4.102 9.05-8.51 22.203-11.56 34.218-12.07 7.2.73 5.146.01 3.404-.425 4.42-.153 15.293 3.463 13.024 3.563 4.222.566 16.225 8.262 7.09 1.976 3.973-1.223 9.114 9.892 7.614 17.017.58-.405 5.092 2.633 7.61.662-2.234-8.998-6.895-19.264-16.836-21.659-6.763-1.618-13.375-4.284-20.36-4.739m-2.36 1.581c11.42-.4-17.828 3.08-5.096.477a37 37 0 0 1 5.096-.477m-17.337 5.85c-8.785 1.91-16.766 8.227-20.779 15.963-3.715 10.059 3.313-7.077 7.48-8.133 4.007-3.365 8.577-5.72 13.299-7.83m-3.04 2.065c-4.857 5.376 4.61 8.037 1.474 13.712.937 6.789 15.368.915 4.52 3.12 1.658 1.045 10.567-6.417 4.329-.098-10.801-.706 1.966 7.979 1.36 12.2 2.495 3.865 5.743 11.326 6.848 17.053 1.865 3.486-2.55 19.294 1.513 8.276.672-4.606.237-7.525.886-1.071 1.02 4.552-9.093 15.876-7.528 15.034 2.707-6.89 7.704-17.21 3.101-23.55-3.855-.748 1.508 14.211-1.81 16.809-4.984 7.191-5.774 16.751-11.571 23.423-2.343 4.66-16.06 1.234-4.974 1.7 1.154-.608-10.891-.657-13.484-4.386-6.038-6.146 2.07 6.705-4.128-.24-3.012-5.252-13.068-6.879-15.282-1.442-2.811 2.002-7.161 13.115-7.7 11.404-.934-1.685-.834 3.231-1.069 5.255.908 4.928.136 10.928.392 16.28.53 4.477-1.903 10.934 3.76 12.667 21.552.504 43.167-.013 64.741.28 15.53.092 31.071-.18 46.59.276-4.977 2.307 4.518.045 2.653-4.342l.159-74.914c-5.562-5.077-15.18-1.256-22.348-2.482-10.89-.014-21.78-.015-32.67-.023-1.292-7.608-6.42-13.79-8.635-21.112-2.47-4.452-6.787-5.374-.037-6.919 5.846-1.397 1.055-9.972 2.888-7.93-3.585-7.091-16.871 3.302-13.979-8.98m8.496 7.374c6.66-1.678 5.269 12.073 3.853 2.591.508-3.063-9.475-2.095-3.853-2.59m-2.864.569c.79.187-1.159.648 0 0m2.805.08c9.25 4.034-8.627 11.985-3.9 1.625 1.023-1.016 2.447-1.654 3.9-1.624m-3.876 8.092c2.648-.453-.599 1.401 0 0m54.959 1.618c-5.753-.821-8.435 1.868-13.546 1.588-12.306-1.916-6.832 13.676-7.88 20.838 1.022 4.082 1.865 4.346.478.264 4.743 7.613 17.08 2.315 24.965 3.983 13.022 2.657 7.48-13.62 8.37-21.233.137-7.105-9.56-2.006-12.387-5.44m-78.888 1.114c-.32.873.582.782 0 0m-.123.826c-1.982 3.744.412 10.47-2.157 12.522-5.708.38-16.2-1.873-14.177 7.288 1.561 8.178 10.394-.545 13.17 2.998 5.014 3.953 5.152-8.645 6.21-1.333 6.884 1.825 11.992.167 17.798-1.43-4.472 4.393 4.067 5.489 7.488.382 7.514-4.814-6.302-9.634-11.616-7.664-4.332-1.227-15.682 3.206-16.6-3.087-.399-3.215-.305-6.451-.116-9.676m25.579.493c2.066 6.962 4.68 11.86 6.57 18.096 1.476 4.478.472-4.26 1.622 2.73 2.773 3.652-.584-9.618-3.179-12.526-1.575-2.777-2.763-6.027-5.013-8.3M82.5 66.158c3.973-.137 9.713.317 2.271.674-.625.742-5.765.192-2.27-.674m-.31 1.852c1.516.635-.391 1.169 0 0m31.426 9.508c-18.641.19-37.31-.316-55.929.47-3.903 1.897-1.334 6.861-2.01 10.429-.014 2.727-.238 8.144 1.44 2.415-.39 4.341-1.783 10.14-.12 11.115-.453 5.612-.995 9.244 1.269 7.06 6.785-7.32 17.148-3.714 23.53 2.083 4.517 4.094 15.955 8.504 18.738 5.52 1.469-.85 7.588-9.222 8.451-14.578 4.904-7.575 7.594-15.539 4.631-24.514m5.898 1.688c.54 1.044-.259.816 0 0m43.704 3.255c12.225.655 3.558 18.243-4.33 10.452-3.936-3.484-.917-10.772 4.33-10.452m-96.074.946c11.941.53 3.834 18.396-4.33 10.453-3.937-3.485-.918-10.773 4.33-10.453m49.05 5.503c-.467 4.68-1.448 3.586 0 0M56.272 99.255c.583.781-.32.873 0 0m7.852 7.055c-4.248.474-9.434 10.573-2.422 3.21 4.067-2.18 8.996-4.344 1.508-2.316l.396-.349zm-5.545.914c.98.679-.948 1.017 0 0m25.182 9.443c1.57 1.598-1.132.906 0 0m1.319 1.64c2.255 1.112-1.431.385 0 0m10.564 2.014c.057 2.747-5.204 3.581 0 0m-36.932 3.175c.949.676-.95.676 0 0m-2.382 5.724v.345zm10.72 14.083c11.942.53 3.835 18.397-4.33 10.453-3.936-3.485-.917-10.772 4.33-10.453m96.479.476c11.941.53 3.835 18.395-4.33 10.452-3.937-3.484-.918-10.773 4.33-10.452m3.487 9.895.04.02zm-60.941 8.456c-11.588-2.116-3.658 14.233-6.406 20.936.543 5.125-2.912 6.1-1.667 6.576-.552.065 3.52 1.925-2.736 1.404-5.322 2.348 9.8 1.503 7.385 1.972-4.597-.41-9.651 2.425-1.655 2.208 8.04.307-11.527.841-1.29 1.03 8.633.821-12.117 2.63-14.916-1.83-5.882-2.406-7.332-6.028-4.595-11.234-3.792-4.419-7.668-9.049-7.279-15.647-.25 8.37-.768-7.297-2.283.424-.526 6.137 5.548 10.301 1.74 14.926 2.638 7.837 10.865 13.13 18.465 15.057 8.906 1.289 18.014.816 26.978.554 2.405-2.09 13.021.228 5.174-1.756-10.082 1.338 9.615-2.527 2.453 3.198-4.239 4.659 4.998 3.316 4.099 2.62-2.991 7.44 9.344-5.14-.33-5.642-1.922-4.236-11.898-1.711-2.81-1.48 5.024 3.916-5.185-2.173-7.639.999-6.321 1.91-9.53-2.163-4.201-4.92-2.328-1.515-.325-6.027-.95-8.728l.17-20.348c-2.546-.408-5.14-.272-7.707-.32m59.228 1.928c-5.992 1.903-13.502.35-19.57 2.218-7.825.23-4.341 8.997-5.09 14.836-1.065 7.916-.434 18.62 10.481 15.543 8.6.925 21.408 1.41 17.475-11.164-1.727-6.642 3.162-18.564-3.296-21.433m-69.775 1.34c-.687 3.973.447 2.986 0 0m-.512 2.916c-.522 6.71-.353 17.165.15 21.797-.008-7.21.887-14.74-.15-21.797m-21.8 6.106c3.346 4.925 1.89 6.886 0 0m.77 7.937c2.653 4.87 6.573-3.029 4.059 3.472-2.3 2.806-4.853-1.63-4.058-3.472m3.908 2.39c-.96 1.32 1.02.703 0 0m-4.221 2.86c1.031 1.77 1.612.715 0 0m2.867 2.035c-.457.917 1.236.438 0 0m23.91 2.189c4.406-.367.875.368 0 0m6.485 3.445c2.32-.385.48.408 0 0m17.163 2.58c-.74.556 2.586.825 0 0m-2.356.59c3.199 2.504 4.029.803 0 0m-17.64 2.044c-8.942-.535-.092 12.91-2.061 18.81.63 12.043.378 24.171 1.56 36.158 1.76-9.02 1.071-19.324 1.998-28.802.018-8.823 1.79-17.448 2.75-26.166zm52.348.245c-7.876 2.368 2.639 8.47 2.29 1.734l-1.043-1.307zm-30.005.996c-1.124 1.545-2.422 1.356 0 0m-3.112 2.277c-1.133 3.501 2.406 2.774 0 0m8.843.466c-2.775 4.362 4.517 11.574 8.877 13.292 5.463 3.206 15.434-4.921 14.36-6.759-.339 1.181 1.438-8.92-1.558-1.776-4.132 12.853-18.99 4.665-21.679-4.757m-8.988.799c1.27.927.547 1.52 0 0m2.992 1.046c-3.928.68 1.487.41 0 0m11.642 9.221c1.647.879 2.004 1.823 0 0m1.852 1.109c1.935.513 1.039 1.159 0 0" style="display:inline;fill:#000;fill-opacity:1;stroke-width:.264583" transform="translate(-55.464 -23.022)"/></svg>