<?xml version="1.0" encoding="UTF-8" standalone="no"?>
<!-- Created with Inkscape (http://www.inkscape.org/) -->

<svg
   width="124.76474mm"
   height="99.689896mm"
   viewBox="0 0 124.76474 99.689896"
   version="1.1"
   id="svg1"
   xml:space="preserve"
   xmlns="http://www.w3.org/2000/svg"
   xmlns:svg="http://www.w3.org/2000/svg"><defs
     id="defs1" /><g
     id="layer1"
     transform="translate(-42.617627,-98.638196)"><path
       style="fill:#000000"
       d="m 52.000205,199.63093 c -2.755883,-1.87267 -4.984627,-8.03145 -4.984627,-13.77422 0,-3.64777 1.281939,-5.94701 3.315749,-5.94701 1.770043,0 3.048878,1.16709 3.422195,3.12315 0.06399,0.33528 0.417935,1.36346 0.786545,2.28485 0.36861,0.92138 0.796742,2.31393 0.951403,3.09456 0.677244,3.41827 0.839991,3.93286 1.24384,3.93286 0.34589,0 0.386812,0.3651 0.274313,2.44739 -0.141982,2.62802 -0.580217,4.02174 -1.548112,4.92347 -0.832318,0.77542 -2.246132,0.74068 -3.461306,-0.085 z m 4.799375,-9.33451 c -0.0037,-1.19515 -0.21452,-2.37977 -0.635898,-3.5737 -0.346675,-0.98226 -0.579869,-1.78593 -0.518209,-1.78593 0.158733,0 -0.929228,-2.11144 -1.520696,-2.95126 -0.553599,-0.78606 -0.66523,-1.29394 -0.177116,-0.80583 0.454021,0.45402 1.181149,0.39249 2.008318,-0.16996 0.394289,-0.2681 1.431265,-0.96333 2.30439,-1.54495 6.105411,-4.06704 10.569094,-7.37469 10.914386,-8.08772 0.158607,-0.32752 0.35684,-1.17383 0.440518,-1.8807 0.538261,-4.5469 1.963688,-7.89262 3.525473,-8.27488 0.401521,-0.0983 0.78957,-0.25423 0.862331,-0.34657 0.630059,-0.79959 6.288854,-3.98397 7.079707,-3.98397 0.154872,0 0.582139,-0.35718 0.949482,-0.79375 0.367344,-0.43656 0.764881,-0.79389 0.883416,-0.79407 0.118535,-1.8e-4 0.56146,-0.29783 0.984276,-0.66146 0.422817,-0.36362 0.958598,-0.67633 1.190625,-0.6949 0.232027,-0.0186 0.682152,-0.0615 1.000277,-0.0954 0.318126,-0.0339 1.078283,-0.55158 1.68924,-1.15047 0.610956,-0.59889 1.213875,-1.0252 1.339819,-0.94736 0.125945,0.0778 0.22899,0.0374 0.22899,-0.09 0,-0.12731 0.446484,-0.48855 0.992187,-0.80276 0.545704,-0.31421 1.366978,-0.90168 1.825056,-1.30549 0.458077,-0.40381 1.093451,-0.9128 1.411942,-1.13108 0.911494,-0.6247 6.414371,-4.77926 7.147896,-5.39652 0.74903,-0.6303 1.70564,-2.01091 1.39516,-2.01356 -0.11249,-9.6e-4 0.15265,-0.2383 0.58922,-0.52742 0.43656,-0.28913 1.0351,-0.52647 1.33009,-0.52742 0.29499,-9.6e-4 0.92742,-0.35894 1.4054,-0.7955 0.47797,-0.43656 0.98075,-0.79375 1.11729,-0.79375 0.13654,0 0.24826,-0.17048 0.24826,-0.37886 0,-0.5287 1.50454,-1.54487 2.39053,-1.61457 0.40508,-0.0319 0.99848,-0.30201 1.31868,-0.60031 0.32019,-0.29831 0.7548,-0.47613 0.9658,-0.39516 0.24168,0.0927 0.43788,-0.0602 0.53023,-0.41334 0.0806,-0.30831 0.24479,-0.49986 0.36483,-0.42568 0.12003,0.0742 0.31485,-0.0328 0.43294,-0.23769 0.21548,-0.37394 1.60392,-1.5793 3.24087,-2.81355 0.4825,-0.36381 1.0904,-0.8599 1.3509,-1.10243 0.26049,-0.24254 0.5303,-0.38429 0.59959,-0.31501 0.0693,0.0693 0.57454,-0.11446 1.12281,-0.40832 0.54827,-0.29385 1.09545,-0.47333 1.21597,-0.39885 0.12052,0.0745 0.14072,-0.0689 0.0449,-0.3186 -0.10342,-0.26949 -0.068,-0.38837 0.0871,-0.29249 0.14375,0.0888 0.42839,-0.0702 0.63254,-0.35348 0.39112,-0.54264 1.04812,-0.69961 1.04812,-0.25041 0,0.14552 0.12325,0.26459 0.27389,0.26459 0.1888,0 0.1888,-0.159 0,-0.51178 -0.39086,-0.73034 -0.34143,-0.8659 0.20845,-0.57162 0.39905,0.21357 0.479,0.15949 0.46302,-0.31316 -0.0116,-0.34221 0.16636,-0.60892 0.4437,-0.66511 0.28453,-0.0576 0.46302,0.0667 0.46302,0.32247 0,0.46313 0.22271,0.5186 0.74716,0.18609 0.28437,-0.1803 0.27193,-0.30043 -0.0661,-0.63851 -0.58584,-0.58584 -0.52278,-0.84075 0.31118,-1.25799 0.40018,-0.20022 0.9062,-0.50256 1.12448,-0.67187 0.39698,-0.30793 2.40288,-1.45636 3.76694,-2.15668 0.39833,-0.2045 0.87458,-0.28147 1.05834,-0.17104 0.23335,0.14023 0.22459,0.0658 -0.029,-0.24689 -0.37154,-0.45803 -0.20999,-0.57636 0.65142,-0.47716 0.15856,0.0183 0.43123,-0.44388 0.60593,-1.02698 0.19503,-0.65096 0.47766,-1.06019 0.7322,-1.06019 0.25008,0 0.35717,-0.14958 0.2699,-0.37699 -0.12903,-0.33624 1.7717,-2.03974 3.26187,-2.92339 0.25181,-0.14932 1.09923,-0.65733 1.88316,-1.12891 0.78392,-0.47158 1.69938,-0.85853 2.03434,-0.85989 0.98095,-0.004 6.11963,-1.02739 8.00096,-1.59342 0.95195,-0.28641 2.27634,-0.59552 2.94307,-0.68691 1.15119,-0.15778 1.23696,-0.12433 1.70275,0.6642 0.26978,0.4567 0.64166,0.77235 0.82642,0.70145 0.44396,-0.17036 3.87833,-2.48738 6.68756,-4.5118 1.23693,-0.89137 3.38005,-2.38052 4.7625,-3.30923 1.38245,-0.9287 3.38205,-2.33475 4.44356,-3.12455 1.06151,-0.7898 1.98395,-1.38208 2.04985,-1.31618 0.1284,0.1284 -4.65254,3.90372 -8.34549,6.5901 -2.26605,1.6484 -6.78369,5.30608 -8.91983,7.2219 -1.09004,0.9776 -1.14517,1.09483 -0.99552,2.11667 0.13587,0.92773 -1.6e-4,1.3831 -0.95541,3.19841 -0.61261,1.16416 -1.85581,3.30729 -2.76267,4.7625 -0.90686,1.45521 -2.06948,3.47927 -2.5836,4.49791 -1.01892,2.01886 -2.58493,3.51561 -6.71648,6.41943 -1.18794,0.83494 -4.28271,3.17844 -6.87726,5.20777 -5.76231,4.507 -10.80994,8.42887 -13.97777,10.86034 -1.30969,1.00525 -4.13658,3.23421 -6.28197,4.95324 -2.1454,1.71904 -4.34805,3.37672 -4.89479,3.68373 -0.54674,0.30702 -1.88704,1.29979 -2.97845,2.20618 -1.0914,0.90638 -2.491,1.9652 -3.11022,2.35293 -0.61922,0.38772 -1.89555,1.35792 -2.836304,2.15598 -0.940751,0.79807 -1.807066,1.45103 -1.925144,1.45103 -0.118077,0 -0.925334,0.7204 -1.793904,1.6009 -0.86857,0.88049 -2.410734,2.16041 -3.427032,2.84427 -1.016298,0.68385 -2.961819,2.13634 -4.323381,3.22774 -1.361561,1.09141 -2.792232,2.16297 -3.179268,2.38125 -0.387037,0.21828 -1.884787,1.33025 -3.328335,2.47104 -1.443547,1.14078 -2.929334,2.19 -3.301749,2.33159 -0.372415,0.14159 -1.274924,0.17726 -2.005576,0.0793 -1.125426,-0.15096 -1.499759,-0.36068 -2.449292,-1.37223 -1.08161,-1.15225 -1.141794,-1.17915 -1.719792,-0.76882 -1.751738,1.2436 -4.544603,3.2564 -8.12846,5.85813 -2.204988,1.60073 -4.716874,3.41725 -5.58197,4.03672 l -1.572902,1.12629 z m 58.09217,-53.50959 c 1.52055,-1.16648 2.82076,-2.12087 2.88936,-2.12087 0.0686,0 1.33562,-0.92274 2.81562,-2.05053 1.47999,-1.12778 3.1807,-2.40054 3.77935,-2.82834 2.52105,-1.80157 7.57496,-5.62654 9.34835,-7.07515 1.05045,-0.85806 1.99997,-1.5466 2.11006,-1.53008 0.11008,0.0165 0.24281,-0.098 0.29495,-0.25439 0.0522,-0.15644 -0.0151,-0.28443 -0.14933,-0.28443 -0.41081,0 -4.34984,2.64736 -7.67667,5.15937 -1.73451,1.30969 -4.86341,3.63141 -6.9531,5.15938 -2.08969,1.52797 -4.75731,3.49901 -5.92804,4.3801 -1.17073,0.88108 -2.59707,1.91904 -3.16965,2.30657 l -1.04104,0.70459 -1.37241,-0.78521 c -1.53739,-0.87961 -1.711,-0.92628 -1.69051,-0.45449 0.0265,0.60994 2.43303,2.02536 3.2388,1.90492 0.40679,-0.0608 1.98371,-1.06496 3.50426,-2.23144 z m -0.30239,-2.07678 c 0.075,-0.12126 -0.0319,-0.22048 -0.23733,-0.22048 -0.20548,0 -0.31227,0.0992 -0.23733,0.22048 0.075,0.12127 0.18175,0.22049 0.23733,0.22049 0.0556,0 0.16239,-0.0992 0.23733,-0.22049 z m 1.74705,-1.48369 c 0,-0.0642 -0.11906,-0.19026 -0.26459,-0.2802 -0.14552,-0.0899 -0.26458,-0.0374 -0.26458,0.11668 0,0.15411 0.11906,0.2802 0.26458,0.2802 0.14553,0 0.26459,-0.0525 0.26459,-0.11668 z"
       id="path1"
       transform="translate(-4.3979502,-1.9466359)" /></g></svg>
