<?xml version="1.0" encoding="UTF-8" standalone="no"?>
<!-- Created with Inkscape (http://www.inkscape.org/) -->

<svg
   width="158.1149mm"
   height="98.423882mm"
   viewBox="0 0 158.1149 98.423882"
   version="1.1"
   id="svg1"
   xml:space="preserve"
   xmlns="http://www.w3.org/2000/svg"
   xmlns:svg="http://www.w3.org/2000/svg"><defs
     id="defs1" /><g
     id="layer1"
     transform="translate(-25.152564,-100.61065)"><path
       style="fill:#000000"
       d="m 48.606125,199.02738 c -3.359097,-1.39878 -6.965829,-3.08536 -9.626868,-5.62643 -1.568644,-3.05715 2.149109,0.0608 3.206909,0.71266 1.904053,1.35607 3.957304,2.47305 5.971575,3.6525 4.130576,-3.79755 8.391151,-7.69212 12.435516,-11.43068 0.336174,1.35213 2.092811,4.01353 4.137316,3.43295 13.132262,-0.75241 26.221735,-2.1514 39.334737,-3.19393 -5.124028,2.71465 -10.278444,5.44964 -15.345831,8.18564 -6.244869,0.0392 -12.414349,1.38723 -18.653124,1.2323 -1.141515,0.74963 -3.915409,0.0627 -5.696792,0.73686 -4.634044,0.35306 -9.403684,0.51255 -13.894807,1.59559 -0.624326,0.20571 -1.187557,0.78004 -1.868631,0.70254 z m 20.66648,-2.90238 c 1.170124,-0.24646 -1.113253,-0.26755 0,0 z m 1.984375,-0.26459 c 0.573584,-0.3029 -0.547511,-0.33003 0,0 z m 21.341339,-1.45766 c -4.085695,0.71611 0.632286,-1.62493 2.026489,-2.26802 3.789322,-1.81259 7.383482,-4.16009 11.187132,-5.84211 10.30419,-0.97819 20.43305,-1.37636 30.75883,-2.16174 12.87786,-0.62928 25.77038,-1.28837 38.60954,-2.44304 1.58261,-0.53689 5.59965,-1.11958 2.88122,0.81251 -5.62726,2.43984 -11.20138,5.00418 -16.79574,7.51971 -1.6605,-1.07909 -3.93502,0.72143 -5.47444,-0.50958 -1.32638,1.12313 -3.31688,-0.005 -3.89595,0.82325 -3.33056,0.25042 -7.03927,0.1096 -10.12535,0.517 -2.0759,0.44783 -4.77059,0.29594 -7.09618,0.3798 0.97923,1.16739 -4.13973,-0.77797 -2.71015,0.40626 -2.69176,0.38849 -2.08476,-0.29248 -4.0915,0.31161 -4.24626,0.45421 -8.54846,0.39503 -12.76649,1.04936 -0.83359,-0.48068 -3.84561,0.26585 -4.26292,-0.041 -1.94715,0.50128 -3.70532,0.0305 -4.74139,0.48142 -1.94218,-0.50514 -3.8469,0.96073 -5.76301,0.23934 -0.502198,0.24265 -3.11696,0.57066 -5.063566,0.52892 -0.894514,0.0304 -1.784437,0.12874 -2.676525,0.19628 z m 4.323243,-0.446 c 2.386609,-0.10416 -2.2869,-0.18134 -0.04816,-5.8e-4 z m 1.852084,-0.213 c 0.573585,-0.30291 -0.547512,-0.33005 0,0 z m 2.116664,-0.26459 c 0.57358,-0.3029 -0.5475,-0.33003 0,0 z m 0.79375,0 c 0.57358,-0.3029 -0.5475,-0.33003 0,0 z m 0.52917,0 c 0.57358,-0.3029 -0.5475,-0.33003 0,0 z m 22.09271,-1.5875 c 1.17011,-0.24645 -1.11325,-0.26753 0,0 z m 2.38125,-0.0418 c 2.39436,-0.33769 -2.28872,-0.0689 0,0 z m 22.48958,-1.54573 c 1.17013,-0.24644 -1.11326,-0.26754 0,0 z m 10.31875,-0.79375 c 1.17013,-0.24644 -1.11326,-0.26754 0,0 z m -120.417474,1.84235 c -0.830535,-3.4714 -1.164409,-7.65319 -1.945878,-11.38192 -1.620426,-10.12073 -3.422105,-20.22839 -5.386729,-30.27996 -1.358004,-6.62214 -3.149437,-13.2281 -3.615538,-19.97604 -0.514386,-1.10325 -0.68909,-3.16417 -1.186848,-5.08468 -0.23064,-2.8594 -0.260812,-2.49062 -0.374509,-3.64475 -0.597653,-1.82202 -0.310755,-2.94958 -0.855646,-4.67104 -1.525981,-2.38804 0.636106,-3.34531 2.429552,-4.71402 3.368162,-2.76943 6.96704,-5.24138 10.279743,-8.0793 -2.2287,0.85161 -4.004419,2.98299 -6.058959,4.32664 2.820296,-2.89018 6.338177,-5.07843 9.750933,-7.23701 2.812044,0.22209 -0.21164,2.42749 -1.461571,2.99882 -1.092779,0.94594 1.341928,3.2852 1.321736,5.07101 0.699229,1.90627 0.908229,4.28559 1.55232,5.77699 0.115078,2.80271 1.689064,5.65078 1.347684,8.37822 1.293203,0.94531 0.815156,4.04179 1.546422,5.80461 1.112554,5.87303 2.366243,11.68996 3.376773,17.5599 0.555752,1.43724 0.306884,4.34725 1.176568,4.41674 -0.653011,2.49885 0.469767,1.69684 0.548359,3.66106 -0.273245,1.69664 0.68352,0.73363 0.736826,3.18805 -0.498697,1.42664 -0.287056,2.05599 0.185937,2.51673 -0.710202,2.32336 0.862615,0.43826 0.547513,2.77699 0.827666,0.50454 0.283211,1.88934 0.748478,2.84943 -0.414717,0.32286 1.633008,2.48168 0.61429,2.57804 -1.328629,0.75113 1.919852,0.67685 1.967992,2.40564 -0.201544,-2.09332 -0.115237,-3.20872 -0.305786,-5.24111 -0.84684,-1.07862 0.105344,-0.90074 -0.685585,-3.90395 -1.717516,-10.14397 -3.663673,-20.25472 -5.333482,-30.40752 -1.669529,-8.61168 -3.037562,-17.28372 -4.525211,-25.93179 2.493299,-0.41319 0.742371,3.39326 1.594452,4.95589 2.458646,17.36591 6.027508,34.57155 10.04294,51.63824 0.483446,3.6959 0.439788,7.54595 2.631354,10.74232 1.976819,4.08149 3.930518,8.1741 5.893325,12.26233 11.447094,0.48498 22.849265,-1.30546 34.258109,-2.04582 13.26068,-1.0998 26.5292,-2.15606 39.80334,-3.04435 13.64097,-0.56394 27.21949,-2.18024 40.83304,-3.07912 1.46178,-1.25129 -0.64968,-3.96974 -0.57758,-5.79164 -0.57183,-2.37578 -1.1506,-5.02295 -1.51539,-7.20843 -1.34271,-5.0095 -2.63643,-10.16791 -3.4649,-15.32252 -0.59471,-2.50378 -1.19021,-5.23096 -1.68783,-7.75569 0.19164,-1.19981 -0.33104,-1.46478 -0.2544,-2.58674 -0.86343,0.13009 0.31671,-2.46497 -0.75324,-2.1474 0.50447,-1.57774 -0.90655,-2.39899 -0.77983,-4.48974 -0.57286,-0.8285 -0.53604,-1.95832 -0.5909,-3.54107 -0.39994,-1.28993 -0.91659,-1.52202 -0.63483,-3.78724 -1.14421,-0.63467 -1.06659,-4.16271 -1.74078,-5.91039 -0.77484,-3.9645 -1.918,-7.86938 -2.23287,-11.9092 1.92601,2.37397 1.89824,6.04287 2.73755,9.011 1.76545,9.13432 3.47288,18.27857 5.63973,27.3279 -0.17133,2.14092 0.70377,2.13607 1.04262,4.74373 1.75226,7.37803 3.86245,14.68781 5.75102,22.00985 -0.0851,2.45635 0.56622,3.02066 1.04724,5.22493 0.0555,1.37741 2.0404,3.92502 -0.6744,3.67123 -11.53055,1.59242 -23.2284,1.37894 -34.8233,2.32168 -1.12511,-0.253 -3.76085,0.41849 -5.54935,0.30022 -17.5957,1.04416 -35.18046,2.29801 -52.709823,4.15047 -8.272238,0.72569 -16.541921,1.49696 -24.792541,2.43966 -1.662763,-2.06606 -2.218128,-4.82282 -3.429164,-7.17063 -0.297936,-0.40942 -1.460621,-3.24725 -1.621954,-4.01933 -0.429057,-1.38938 -2.426708,-5.18001 -2.487091,-5.04255 0.188326,1.46536 -2.066798,1.98126 -2.669923,3.29428 -1.866378,1.36684 -3.74036,3.89453 -5.673411,5.65432 -0.70197,0.86578 -1.763659,1.5705 -2.510593,-1.55442 -1.758928,-5.42228 -2.668879,-11.10412 -3.554947,-16.70414 1.479035,0.95803 -1.430932,-2.53041 -0.824398,-4.32686 -2.39501,-13.7062 -4.180001,-27.58906 -6.870482,-41.19807 -0.635746,-0.1187 0.312943,3.71361 0.317397,5.05266 2.777691,16.99632 5.399157,34.03449 8.67979,50.94418 0.558807,3.40346 1.664388,6.67224 2.966583,9.85597 -2.627477,2.90674 -4.89129,6.2588 -7.209947,9.27871 z m 97.001854,-10.5736 c 0.57359,-0.30292 -0.54753,-0.33001 0,0 z m 9.54061,-0.52916 c 0.53376,-0.45024 -1.20843,-0.85254 0,0 z m 1.57188,-0.26458 c 0.57362,-0.3029 -0.54752,-0.33006 0,0 z m 1.85209,0 c 0.57359,-0.30291 -0.54751,-0.33005 0,0 z m 31.88229,-9.525 c 1.17013,-0.24645 -1.11326,-0.26755 0,0 z M 42.68198,163.84583 c 0.573588,-0.3029 -0.547512,-0.33003 0,0 z m 10.054167,-1.32291 c 0.57359,-0.30292 -0.547516,-0.33005 0,0 z m -19.05,-5.02709 c 0.573588,-0.3029 -0.547512,-0.33003 0,0 z m 143.668743,-1.85208 c 0.57361,-0.30289 -0.54751,-0.33004 0,0 z M 41.359063,153.52708 c 0.573587,-0.3029 -0.547509,-0.33003 0,0 z m 133.923257,-6.43819 c 0.35631,-1.217 -0.78117,0.34353 0,0 z m -0.83784,-3.61597 c 0.57358,-0.30291 -0.54751,-0.33005 0,0 z m -0.26459,-1.05834 c 0.57361,-0.30289 -0.54751,-0.33004 0,0 z m -0.26458,-1.05833 c 0.57358,-0.3029 -0.5475,-0.33003 0,0 z m -0.52917,-2.38125 c 0.57361,-0.30289 -0.54751,-0.33004 0,0 z M 38.184064,134.47708 c 0.573584,-0.3029 -0.547511,-0.33003 0,0 z m -9.260417,-1.05833 c 0.573588,-0.3029 -0.547512,-0.33003 0,0 z m -0.264583,-1.05833 c 0.573585,-0.30291 -0.547512,-0.33005 0,0 z m 143.183676,-0.61736 c 0.35632,-1.217 -0.78121,0.34354 0,0 z M 27.865314,127.59792 c 0.573585,-0.30291 -0.547512,-0.33005 0,0 z m -0.529167,-2.64584 c 0.573588,-0.3029 -0.547512,-0.33003 0,0 z m 142.874993,-1.5875 c 0.57361,-0.30289 -0.54751,-0.33004 0,0 z m -0.22164,-0.99218 c 0.12166,-2.32877 -0.41935,0.44247 0,0 z m -0.27996,-1.46072 c 0.16107,-2.24095 -0.50467,0.2374 0,0 z M 26.80698,119.925 c 0.573587,-0.3029 -0.547509,-0.33003 0,0 z m 142.65335,-0.19844 c 0.12166,-2.32876 -0.41935,0.44249 0,0 z m -0.26975,-1.20634 c -0.0759,-2.93742 -0.99062,-2.10285 0,0 z m -0.51255,-2.39787 c 0.1298,-1.93044 -1.20285,-4.9129 -0.36165,-1.14084 0.15215,0.16399 0.073,1.48218 0.36165,1.14084 z M 33.919872,115.69167 c 1.0057,-1.34117 -0.651066,-2.01806 0,0 z m -7.937871,-0.52917 c 1.225645,-0.86002 -0.274933,-0.61756 0,0 z m 7.968729,-1.5875 c 0.573587,-0.3029 -0.547509,-0.33003 0,0 z m 133.90673,-1.12999 c 0.16104,-2.24086 -0.50465,0.23734 0,0 z m -0.29215,-0.98667 c 0.57359,-0.30291 -0.54751,-0.33005 0,0 z m -0.23702,-0.86541 c 0.16107,-2.24095 -0.50467,0.2374 0,0 z m -0.29215,-1.25126 c 0.57361,-0.30289 -0.54751,-0.33004 0,0 z m -47.09583,75.93541 c -0.57358,-0.3029 0.5475,-0.33003 0,0 z m -58.737497,-2.38125 c -0.573588,-0.3029 0.547512,-0.33003 0,0 z m -0.79375,-1.5875 c -0.573588,-0.3029 0.547512,-0.33003 0,0 z m -0.529167,-1.5875 c -0.573584,-0.3029 0.547511,-0.33003 0,0 z m 23.106603,-6.23268 c -0.46898,-0.1948 -1.86369,-2.21942 -3.140428,-2.76315 -1.998398,-1.65487 -4.661767,-2.88088 -6.660777,-4.51618 -0.606944,1.09796 -1.682545,-1.56384 -3.627076,-1.59223 -1.59946,-1.10616 -4.49852,-1.55113 -5.312694,-2.09367 2.065306,-0.64813 2.289188,-2.71984 3.354483,-2.98499 1.924388,-1.96063 4.183187,-3.57604 6.227523,-5.41462 -1.609159,-1.59131 3.169336,0.14413 3.972303,-0.75173 2.304054,-0.52874 3.569195,0.9631 3.643608,-0.63767 -0.134614,1.37896 2.754349,-0.38006 4.285662,0.0466 2.792566,-0.33998 2.689609,1.09698 4.842463,-0.0804 2.624247,0.0172 1.304352,-0.34647 3.634958,0.10303 3.037213,-0.55559 1.619226,1.09534 0.201507,0.42433 0.983423,1.89824 2.964028,-1.36655 4.848585,-0.37641 2.276414,-0.11615 2.522664,-0.0422 4.760364,-0.11509 1.72685,-0.29538 4.66457,0.47926 5.60459,-0.26655 0.24048,0.26565 3.18167,0.45688 4.65143,0.16456 2.21404,-0.036 4.30459,-0.27326 6.09374,-0.14268 2.00321,-0.41963 4.06197,0.3286 6.05587,-0.27539 0.0522,0.7934 3.12325,0.14509 1.53014,-0.18856 1.19646,0.82813 2.51513,-0.7138 4.026,-0.0552 -1.63669,1.28388 0.70993,-0.17111 2.29543,-0.28011 2.6697,-1.13044 0.88337,2.49143 2.33138,0.29791 0.97353,-0.72927 1.64982,1.30201 2.78865,-0.63568 2.14237,-0.13902 -2.40907,1.68278 0.91892,0.89476 2.58389,0.65701 2.66494,-1.62719 4.10083,-1.23275 1.92067,-0.58579 4.42667,0.38528 6.03852,-0.95312 2.06422,-0.0665 0.51374,2.50216 2.33336,0.51678 2.46009,-2.9788 0.68853,-0.19855 1.93177,-0.46871 1.32213,1.42803 2.72005,1.28635 4.19655,2.36967 1.32355,0.73721 2.93438,1.47814 4.85761,2.15124 2.03495,0.49391 1.68082,0.4355 2.3439,0.48377 0.81053,1.6688 2.58416,1.10025 4.5566,1.78026 2.34419,0.62479 3.71745,0.43551 1.55047,1.89898 0.38152,1.049 -0.92277,1.67375 -1.12522,3.45844 -1.40577,1.43447 -1.38083,2.86479 -2.59811,4.3717 -0.57264,1.59413 -2.20944,4.16893 -3.46121,1.90317 -0.63817,0.84742 -3.34252,1.6594 -2.92365,0.0165 -1.51087,0.86356 -2.68831,-0.54498 -3.67627,0.69962 -1.41901,-0.94701 -0.60304,-0.105 -2.48949,-0.10583 -1.18772,-0.8981 -3.97235,-0.23414 -5.81969,-0.4866 -2.41311,-0.42192 -3.66849,0.71487 -4.97993,-0.0284 -3.07468,-0.69122 -0.70998,1.49169 -2.44265,0.77065 -2.02438,1.09252 -2.49511,-2.11002 -2.42045,0.27358 -2.11209,-2.44397 -1.33091,1.49911 -3.27893,-0.41249 -0.89232,-0.97364 -1.74422,0.34085 -1.79499,0.75898 -1.2433,-0.0868 -0.96471,-1.94169 -1.15117,0.23501 -1.63007,-0.0333 -3.8178,-0.43989 -4.77455,0.28008 -2.58884,0.93787 -5.39765,0.80394 -8.07892,1.33773 -5.90169,0.66025 -12.13985,1.46273 -18.08352,-0.18702 -0.7307,-1.27899 -1.54322,-0.30724 -2.4154,-0.39266 -0.750947,-0.27152 -1.579516,1.04608 -2.077609,-0.48853 -2.106991,-1.24517 -4.531777,2.52225 -3.977686,0.42103 -0.574411,0.83717 -1.421339,-0.56187 -3.476889,0.0355 0.311522,2.44742 -1.862468,-0.78163 -1.903705,0.70555 -1.973192,-1.54996 -0.211232,0.29897 -2.368122,0.29192 -1.018947,-1.24978 -0.753387,0.48089 -1.462636,-0.54447 -0.678849,0.49298 -0.691442,1.12601 -2.909026,-0.17804 0.100553,0.64455 0.717211,1.2985 0.453582,1.95759 z m 4.674647,-1.44834 c 0.459013,-0.34636 -2.015425,-0.8714 -0.264583,0 z m 2.617526,0.008 c 1.152555,-1.18053 -0.63168,-1.06884 0,0 z m 13.985078,-1.06239 c 0.94494,-0.75634 -2.109,-0.69124 -0.19844,-0.004 z m 16.20573,0.004 c 0.57358,-0.3029 -0.5475,-0.33003 0,0 z m -38.247935,-0.38721 c 12.268293,-1.03138 24.679625,-1.50639 37.000295,-2.34089 15.92459,-0.79901 31.94037,-0.76622 47.83241,-1.05587 1.53696,-3.00837 3.03399,-6.03903 4.57093,-9.04823 -6.06728,-1.68745 -12.10675,-3.90182 -17.72948,-6.68457 -3.30939,1.5107 -7.2111,0.8607 -10.76394,1.48333 -14.5574,0.92431 -29.13019,1.60562 -43.72068,1.41407 -8.001237,0.15409 -16.037541,0.20727 -24.015174,0.57332 -3.340336,0.87638 -5.062785,4.48845 -8.074993,6.10423 -3.311637,1.47755 0.957743,1.66812 2.348552,2.30977 4.321934,2.1121 8.31632,4.78729 12.372797,7.35574 z m 17.081267,0.12263 c 0.573587,-0.3029 -0.547509,-0.33003 0,0 z m 1.455208,0 c 1.17013,-0.24645 -1.11326,-0.26755 0,0 z m 4.23333,0 c 0.17856,-0.75689 0.0889,0.002 0,0 z m 20.11672,0 c 0.92136,-0.80957 2.76462,-1.87969 0.0533,-1.32214 0.0955,0.28798 -0.55355,1.40284 -0.0533,1.32214 z m -0.93442,-0.26458 c 0.57359,-0.30293 -0.54754,-0.33003 0,0 z m -2.91042,-0.26459 c 0.57358,-0.3029 -0.5475,-0.33003 0,0 z m 6.24031,-0.41084 c 0.73195,-1.24541 -1.42363,0.0158 0,0 z m 4.06282,0.14626 c 1.14387,-0.74525 -0.73855,-1.18177 0,0 z m 1.8942,-0.0706 c -0.9619,-1.81341 -1.4987,-0.1565 0,0 z m -2.6218,-0.19805 c 1.1232,-0.89569 -1.95261,-0.59781 -0.0506,-0.004 z m 7.09322,-0.26053 c 0.57358,-0.3029 -0.5475,-0.33003 0,0 z m 3.96875,0 c 1.8421,-1.10456 -1.60288,-0.43369 0,0 z m -2.64583,-0.52916 c 0.57359,-0.30293 -0.54754,-0.33003 0,0 z m 17.19791,0 c 0.57359,-0.30291 -0.54751,-0.33005 0,0 z m 13.49375,-11.64167 c 0.57358,-0.3029 -0.5475,-0.33003 0,0 z m -87.047914,-3.175 c 0.573588,-0.3029 -0.547512,-0.33003 0,0 z m 3.789211,-0.29528 c 2.108497,-0.75038 -1.976175,-0.44329 -0.133605,-0.005 z m 4.156593,0.0307 c 1.516725,-0.83591 -1.19719,-0.77583 -0.01575,0 z m 2.637529,-0.26459 c 0.573587,-0.3029 -0.547509,-0.33003 0,0 z m 66.939581,0 c 0.57358,-0.3029 -0.5475,-0.33003 0,0 z m -59.53125,-0.26458 c 0.57358,-0.3029 -0.5475,-0.33003 0,0 z m 26.45834,-0.26458 c 0.57359,-0.30293 -0.54754,-0.33003 0,0 z m 2.38125,-0.26459 c 0.57359,-0.30292 -0.54753,-0.33001 0,0 z m 0.66145,0 c 1.14719,-0.60579 -1.09502,-0.66008 0,0 z m 4.8948,0 c 0.57359,-0.30292 -0.54753,-0.33001 0,0 z m -1.5875,-0.26458 c 0.57359,-0.30292 -0.54753,-0.33001 0,0 z m 1.71979,-0.26458 c 1.17011,-0.24647 -1.11325,-0.26754 0,0 z m 16.00729,-1.32292 c 0.57358,-0.3029 -0.5475,-0.33003 0,0 z M 93.217396,172.3125 c -0.573588,-0.3029 0.547512,-0.33003 0,0 z m -0.79375,-0.26458 c -1.321638,-1.12998 1.308011,-0.98059 0,0 z m 5.27607,-0.19685 c -2.068354,0.19016 1.536539,-1.58483 0,0 z m -1.439612,-0.0677 c -1.166522,-0.97535 0.929459,-0.80653 0,0 z m -17.065625,-0.52916 c -0.57359,-0.30292 0.547516,-0.33005 0,0 z M 78.634083,170.725 c -0.261135,-0.75357 1.031277,-0.52398 0,0 z m 57.181227,-0.26458 c -0.57359,-0.30291 0.54751,-0.33005 0,0 z m -58.737497,-0.52917 c -0.573587,-0.3029 0.547509,-0.33003 0,0 z m 78.332277,0 c -1.33389,-0.8339 0.74847,-0.71661 0,0 z m -11.2604,-0.26458 c -1.1472,-0.6058 1.09502,-0.66009 0,0 z m 1.71979,0 c -0.57359,-0.30291 0.54751,-0.33005 0,0 z m 15.19792,0 c 0.15888,-1.02071 -0.0531,-0.0481 0,0 z m -15.85938,-0.26459 c -1.23685,-0.72786 1.05178,-0.39548 0,0 z m 2.82222,-0.0882 c -0.70888,0.35076 0.39494,-1.13371 0,0 z m 1.01424,0.0882 c -0.57358,-0.3029 0.5475,-0.33003 0,0 z m 4.23333,0 c -0.57358,-0.3029 0.5475,-0.33003 0,0 z m 5.68854,0 c -1.17011,-0.24647 1.11325,-0.26754 0,0 z M 75.871573,169.1375 c 0.158756,-1.02078 -0.05302,-0.0479 0,0 z m -20.197449,-0.60083 c -0.346573,0.15253 -0.09413,-1.55901 0.159856,-0.15985 z m 18.890147,0.0717 c -1.236865,-0.72787 1.051796,-0.39547 0,0 z m -19.579166,-2.11666 c -1.170127,-0.24645 1.113253,-0.26755 0,0 z m 16.801041,0 c -0.57359,-0.30292 0.547516,-0.33005 0,0 z m -1.058333,-0.52917 c -0.573588,-0.3029 0.547512,-0.33003 0,0 z m -15.566319,-0.35278 c -0.70888,0.35076 0.39494,-1.13371 0,0 z m -0.837847,-2.02847 c -0.573587,-0.3029 0.547509,-0.33003 0,0 z m 0.79375,-0.26458 c -0.573593,-0.30291 0.547514,-0.33005 0,0 z m -1.322917,-1.85213 c -0.573588,-0.3029 0.547512,-0.33003 0,0 z m 1.058333,0 c -0.573584,-0.3029 0.547511,-0.33003 0,0 z m -1.322916,-1.32291 c -0.573593,-0.30291 0.547514,-0.33005 0,0 z m 1.10243,-0.0882 c -0.70888,0.35076 0.39494,-1.13371 0,0 z m -1.367014,-0.70555 c -0.57359,-0.30292 0.547516,-0.33005 0,0 z m -0.661458,-0.79375 c -1.170127,-0.24645 1.113253,-0.26755 0,0 z m 1.455208,-0.52917 c -0.573584,-0.3029 0.547511,-0.33003 0,0 z m 35.189583,-5.02708 c -0.573593,-0.30291 0.547516,-0.33005 0,0 z m -38.055902,-0.61736 c -0.708881,0.35072 0.394948,-1.13369 0,0 z m 73.245486,0.0882 c -0.57358,-0.3029 0.5475,-0.33003 0,0 z m 13.53785,-0.61736 c -0.70887,0.35077 0.39492,-1.13372 0,0 z m 2.73402,0.0882 c -1.14717,-0.60582 1.09504,-0.66004 0,0 z m 0.80206,0 c -0.39449,-0.66363 0.57646,-1.27693 0,0 z m 0.94604,0 c -1.15256,-1.18054 0.63171,-1.06882 0,0 z m -30.4222,-4.56118 c -1.90476,0.30042 -3.31513,-1.13796 -4.6634,-2.12764 -0.62007,-0.90288 -2.41543,-0.50647 -2.67292,-2.01542 -1.63019,0.0844 -2.87621,-1.6563 -3.87037,-1.58392 -1.262377,-1.61671 -2.940487,-1.47448 -4.436914,-3.08647 -3.58711,-2.37532 -7.169387,-4.90633 -10.573911,-7.10713 -7.297545,-5.31581 -14.890205,-10.20913 -22.133531,-15.60327 -2.861162,-1.82327 -5.400191,-4.35003 -8.24334,-6.0232 -2.437013,0.23314 -5.629811,-0.70153 -5.483583,-3.658 0.302346,-1.7711 3.861381,-0.38727 5.423958,-0.93751 6.047649,5.56387 12.764694,10.33631 19.586567,14.8947 2.782223,-0.21709 -1.197312,0.29057 2.588238,1.67586 9.255283,6.085 19.113066,11.29625 28.608736,16.90396 -0.312,-1.24459 1.37038,1.60396 3.19384,1.89068 2.69226,1.41152 5.37884,2.82488 7.78867,4.69628 5.76699,-5.10063 12.22055,-9.57008 18.13124,-14.5792 6.78128,-5.15396 13.03144,-11.01831 18.07635,-17.9062 1.41798,-1.09304 2.13121,-4.09848 3.83499,-4.09322 1.45985,0.3549 4.81874,-0.16326 3.17977,2.3343 -1.54414,2.08986 -1.92652,1.61607 -2.97014,3.05812 -2.91433,3.08812 -5.93912,6.50389 -9.08402,8.95386 -1.98497,2.17545 -4.39959,3.35021 -6.2832,5.56638 -0.77831,0.85511 -2.77972,2.1887 -3.96806,3.48527 -0.97625,0.30596 -2.84388,2.77253 -4.15624,3.89317 -2.56336,1.86069 -4.78124,4.12745 -7.42987,6.1377 -1.76972,1.29832 -3.24457,3.16116 -5.08627,3.98908 -1.03885,1.11126 -2.83718,-0.0946 -3.70123,0.22208 0.65856,-0.29164 4.33167,-4.24592 1.87266,-2.02403 -1.61004,1.73623 -2.80636,2.05936 -3.8606,1.34104 -1.01575,1.06084 -2.76358,0.43217 -3.66742,1.70273 z m 1.8189,-3.11173 c 0.57359,-0.30293 -0.54753,-0.33003 0,0 z m 7.93422,-1.38663 c 3.57411,-2.74959 -3.25003,1.87402 0,0 z m 1.32619,-0.99462 c 0.57358,-0.30291 -0.54751,-0.33005 0,0 z m 0.71174,-0.52917 c 1.07989,-0.56592 1.44973,-2.10508 0,0 z m 1.9341,-1.5875 c 0.57359,-0.30292 -0.54753,-0.33001 0,0 z m 0.98387,-0.6827 c 2.33015,-2.21747 -1.89348,1.16664 -0.11069,0.0781 z m 1.23678,-0.9048 c 2.074,-1.66927 -0.92073,-0.38163 0,0 z m 1.21893,-0.96265 c 1.8483,-1.62498 -1.54066,0.44329 0,0 z m 0.76235,-0.36027 c 2.1411,-1.99645 0.97704,-2.20414 -0.10089,0 z m 2.46166,-2.28976 c 4.30354,-2.69171 -1.5565,-0.0687 0,0 z m 2.06766,-1.58331 c 1.84816,-1.62483 -1.54058,0.44323 0,0 z m 2.08959,-1.50679 c 3.25691,-2.82531 -0.9851,-0.36879 0,0 z m 1.34999,-1.4993 c 0.57358,-0.30291 -0.54751,-0.33005 0,0 z m 1.05503,-0.45445 c 2.20208,-1.31939 0.5398,-1.73085 -0.64876,0.47158 0.21625,-0.15719 0.43251,-0.31439 0.64876,-0.47158 z m 1.5908,-1.13305 c 0.57358,-0.30291 -0.54751,-0.33005 0,0 z m 0.54478,-0.52917 c 0.80886,-0.68987 -1.35678,-0.86982 0,0 z m 0.51356,-0.52917 c 0.57359,-0.30292 -0.54753,-0.33001 0,0 z m 0.52916,-0.79375 c 0.57358,-0.3029 -0.5475,-0.33003 0,0 z m 0.57433,-0.26458 c 2.56342,-1.57804 0.0498,-1.31715 0,0 z m 2.42037,-2.38125 c 1.97769,-1.22185 -0.89325,-0.51835 0,0 z m 1.96624,-1.97665 c 5.12181,-4.43398 -2.73314,1.65444 0,0 z m -39.35677,24.46623 c -0.57358,-0.3029 0.5475,-0.33003 0,0 z m -0.79375,-0.26458 c -0.57358,-0.3029 0.5475,-0.33003 0,0 z m -1.71979,-0.66146 c -1.19927,0.26628 1.19743,-1.53768 0,0 z m 0.79375,-0.13229 c -1.17013,-0.24645 1.11326,-0.26755 0,0 z m -1.98438,-0.52917 c -0.57358,-0.3029 0.5475,-0.33003 0,0 z m 0.52917,-0.52916 c -0.57358,-0.30291 0.54751,-0.33005 0,0 z m -1.32292,-0.26459 c -0.57358,-0.3029 0.5475,-0.33003 0,0 z m -0.79375,-0.79375 c -0.57358,-0.3029 0.5475,-0.33003 0,0 z m 14.6211,-0.0303 c -10.64082,-5.80062 -21.366578,-11.45769 -31.43863,-18.22596 -3.645632,-2.00437 -7.280158,-4.61312 -10.738273,-6.63094 -6.130779,-4.09375 -12.890064,-7.56551 -18.204895,-12.65496 0.895779,-0.86799 4.34211,-0.0134 6.180135,-0.24504 10.708344,0.15924 21.41203,0.50156 32.117143,0.79755 3.765389,3.54181 8.68973,7.13404 14.14972,5.63074 3.5639,-0.56559 6.7085,-2.6651 9.47949,-4.89224 11.2443,0.5888 22.51717,0.38928 33.77085,0.78425 2.11192,0.53821 0.25264,0.21105 2.33444,1.14634 0.75788,-1.79448 0.12006,1.56205 -1.83668,2.1105 -2.2592,-1.40721 -0.0477,-0.22742 -0.84734,0.898 -1.21226,-0.52052 -1.38484,-0.13541 -0.66522,1.05263 -0.86747,-0.20285 -2.61276,0.64575 -3.16322,2.15517 2.01336,-1.35916 -0.0677,0.80634 -0.8543,1.77477 -0.25172,1.01446 -3.16583,0.63214 -1.51387,0.97548 1.10232,1.57474 -2.73978,0.41002 -1.18938,0.98107 0.004,1.56131 -1.10707,1.8865 -2.56769,3.4516 -2.19509,2.06976 -3.71751,4.28186 -6.28153,5.97661 -6.22294,4.97545 -12.42545,10.15024 -18.73075,14.91443 z m 24.00807,-20.60721 c 0.57358,-0.3029 -0.5475,-0.33003 0,0 z m -0.39688,-1.32291 c 1.1472,-0.6058 -1.09502,-0.66009 0,0 z m 2.49793,-0.52917 c 1.14386,-0.74528 -0.73858,-1.18173 0,0 z m -0.46945,-0.88194 c 0.35632,-1.21702 -0.78119,0.34357 0,0 z m 0.88194,-1.49931 c 1.17013,-0.24645 -1.11326,-0.26755 0,0 z m 0.92383,-0.82689 c 0.16214,-1.66596 -1.91127,0.0182 0,0 z m 1.04401,-1.12992 c 1.95432,-1.20731 -3.23941,-0.83446 0,0 z m 1.49651,0.10473 c 1.71105,-0.44238 -1.17401,-2.40756 0,0 z m -1.19978,-1.32292 c 0.53376,-0.45026 -1.20841,-0.85248 0,0 z m 0.49794,-0.26458 c 1.33388,-0.83389 -0.74847,-0.71662 0,0 z m 1.05833,0 c 1.33387,-0.83387 -0.74843,-0.71664 0,0 z m 0.24897,-1.5875 c 1.22562,-0.86001 -0.2749,-0.6176 0,0 z m 0.82498,-0.52917 c 0.57358,-0.3029 -0.5475,-0.33003 0,0 z m 0.2802,-0.52916 c 0.80885,-0.68986 -1.35677,-0.86983 0,0 z m -0.2802,-0.79375 c 0.57359,-0.30291 -0.54751,-0.33005 0,0 z m 1.71979,-0.52917 c 1.1472,-0.6058 -1.09502,-0.66012 0,0 z m 3.30729,-1.5875 c 0.57361,-0.30289 -0.54751,-0.33004 0,0 z m 0.80937,0 c 0.53376,-0.45025 -1.20843,-0.85251 0,0 z m -1.8677,-0.52917 c 0.57358,-0.3029 -0.5475,-0.33003 0,0 z m -40.74583,32.27917 c -0.57358,-0.30291 0.54751,-0.33005 0,0 z m -4.35001,-2.11667 c -2.35831,-1.14178 1.33471,-0.0756 0,0 z M 84.750729,125.48125 c -0.573584,-0.3029 0.547511,-0.33003 0,0 z m -2.116666,-1.05833 c -0.573587,-0.30291 0.54751,-0.33005 0,0 z m -1.344966,-0.81464 c -1.717989,-0.007 1.827594,-0.46725 0,0 z m -1.300868,-0.77286 c -0.573585,-0.30291 0.547512,-0.33005 0,0 z m -5.159374,-3.43959 c -1.170124,-0.24644 1.113249,-0.26754 0,0 z m -0.661459,-0.52916 c -0.573585,-0.30291 0.547512,-0.33005 0,0 z m -6.35,-4.23333 c -0.57359,-0.30292 0.547516,-0.33005 0,0 z M 149.807,114.36875 c -0.26114,-0.75355 1.03127,-0.52398 0,0 z M 25.188251,113.31042 c -0.261138,-0.75357 1.031277,-0.52398 0,0 z m 2.743209,-2.09249 c -3.136748,2.67761 -1.562476,0.59382 0.647271,-0.85238 2.578092,-2.01813 0.840341,-0.0371 -0.647271,0.85238 z m 78.25052,0.47382 c -3.89291,0.093 -7.380959,-2.55136 -9.866297,-5.22005 0.687177,-0.0224 4.028137,0.43595 5.754307,0.27092 5.03073,0.0733 10.06097,0.18572 15.0922,0.21781 -1.24085,2.05234 -4.2597,3.01615 -6.47106,4.07806 -1.50055,0.25873 -2.96753,0.82127 -4.50915,0.65326 z m -2.64583,-0.76258 c 0.57359,-0.30292 -0.54753,-0.33001 0,0 z m -2.11667,-1.05833 c 0.57359,-0.30291 -0.54751,-0.33005 0,0 z m -70.94073,-0.52917 c 0.04847,-0.72535 1.412916,-1.22121 0.09989,-10e-6 z m 1.324084,-1.05833 c -0.261145,-0.75355 1.031282,-0.524 0,0 z m 118.696856,-3.175 c -1.17012,-0.24645 1.11323,-0.26756 0,0 z m 3.175,0 c -1.17012,-0.24645 1.11323,-0.26756 0,0 z m 1.19062,0 c -0.57359,-0.30291 0.54751,-0.33005 0,0 z m -11.66371,-0.28548 c -1.71796,-0.007 1.82754,-0.46728 0,0 z m 21.40555,-0.0288 c -14.30703,-0.62815 -28.63071,-0.579 -42.94705,-0.83045 0.21523,-2.55616 2.5594,-1.69979 4.37765,-1.75385 12.29905,0.0401 24.5981,0.0802 36.89715,0.12032 -0.93254,2.34581 4.6601,0.32814 2.83938,2.50162 -0.38904,-0.0126 -0.77809,-0.0251 -1.16713,-0.0376 z m -28.79184,-1.27323 c 0.57359,-0.30291 -0.54751,-0.33005 0,0 z m 4.10104,0 c 1.17012,-0.24645 -1.11323,-0.26756 0,0 z m -16.80104,-0.79375 c 0.57359,-0.30291 -0.54751,-0.33005 0,0 z m -9.19427,1.49437 c -6.68162,0.0421 -13.35637,-0.27455 -20.034482,-0.436 -2.49858,-2.39544 0.05764,-2.4673 2.294941,-2.18408 8.298281,0.0491 16.595711,0.1935 24.892821,0.33204 0.71683,2.2934 -1.84381,2.65317 -3.82789,2.30757 -1.10846,-0.007 -2.21693,-0.013 -3.32539,-0.0195 z m -11.44323,-1.75896 c 0.57358,-0.3029 -0.5475,-0.33003 0,0 z m 2.35002,0 c 1.22565,-0.86 -0.27493,-0.61758 0,0 z m 3.33852,-0.26458 c 1.17013,-0.24644 -1.11323,-0.26756 0,0 z M 92.864618,104.05 c -3.65261,-0.84173 -7.887042,-0.35475 -11.769677,-0.65511 -8.744629,-0.24815 -17.494962,-0.13505 -26.242128,-0.22257 -2.617635,-1.99449 2.033308,-0.35258 3.355268,-0.87153 8.935744,-0.0784 17.871488,-0.15677 26.807232,-0.23515 -6.450684,-0.52567 -13.077035,-0.12412 -19.436818,-0.56513 1.496273,-0.32637 4.496195,-0.0183 6.568309,-0.10169 6.473389,0.19868 13.024683,-0.2358 19.448485,0.36589 0.453533,0.21389 1.991257,1.99665 1.269329,2.28529 z m -7.584722,-1.85208 c 0.573588,-0.3029 -0.547512,-0.33003 0,0 z m 0.529167,0 c 0.573584,-0.3029 -0.547511,-0.33003 0,0 z m -37.108414,0.88553 c -1.940332,0.32043 -5.453465,-0.78983 -1.411668,-1.41461 1.36976,0.43863 3.377469,0.36813 5.629335,0.23633 2.277968,1.60303 -2.362973,0.8941 -3.472733,1.02137 -0.241575,0.0761 -0.564742,-0.13646 -0.744934,0.15691 z m -2.579086,-0.35636 c 0.573593,-0.30291 -0.547514,-0.33005 0,0 z m 1.455209,-0.52917 c 1.170124,-0.24646 -1.113253,-0.26755 0,0 z m 6.217708,-0.52917 c -0.573588,-0.3029 0.547512,-0.33003 0,0 z m 8.202083,0 c -0.573588,-0.3029 0.547512,-0.33003 0,0 z m 0.771701,-0.0209 c -1.717964,-0.007 1.827562,-0.46727 0,0 z m 1.344966,0.0209 c -1.473433,-0.24585 1.565228,-0.65314 0,0 z m 0.926041,0 c -1.170124,-0.24646 1.113253,-0.26755 0,0 z"
       id="path1" /></g></svg>
