<svg xmlns="http://www.w3.org/2000/svg" xml:space="preserve" width="597.6" height="371.996" viewBox="0 0 158.115 98.424"><path d="M48.606 199.027c-3.359-1.398-6.966-3.085-9.627-5.626-1.568-3.057 2.15.06 3.207.713 1.904 1.356 3.957 2.473 5.972 3.652 4.13-3.797 8.39-7.692 12.435-11.43.336 1.352 2.093 4.013 4.138 3.432 13.132-.752 26.221-2.151 39.334-3.194a2216 2216 0 0 0-15.346 8.186c-6.244.04-12.414 1.387-18.653 1.232-1.141.75-3.915.063-5.696.737-4.634.353-9.404.513-13.895 1.596-.625.206-1.188.78-1.869.702m20.667-2.902c1.17-.246-1.114-.268 0 0m1.984-.265c.574-.302-.548-.33 0 0m21.341-1.457c-4.085.716.633-1.625 2.027-2.268 3.79-1.813 7.383-4.16 11.187-5.842 10.304-.979 20.433-1.377 30.759-2.162 12.878-.63 25.77-1.288 38.61-2.443 1.582-.537 5.599-1.12 2.88.812-5.627 2.44-11.2 5.005-16.795 7.52-1.66-1.079-3.935.721-5.475-.51-1.326 1.124-3.317-.005-3.896.824-3.33.25-7.039.11-10.125.517-2.076.448-4.77.296-7.096.38.98 1.167-4.14-.778-2.71.406-2.692.388-2.085-.293-4.092.311-4.246.455-8.548.395-12.766 1.05-.834-.48-3.846.266-4.263-.041-1.947.501-3.706.03-4.742.481-1.942-.505-3.846.96-5.763.24-.502.242-3.117.57-5.063.528-.895.03-1.785.13-2.677.197m4.324-.446c2.386-.104-2.287-.182-.049 0zm1.852-.213c.573-.303-.548-.33 0 0m2.116-.265c.574-.303-.547-.33 0 0m.794 0c.574-.303-.547-.33 0 0m.53 0c.573-.303-.548-.33 0 0m22.092-1.587c1.17-.247-1.113-.268 0 0m2.381-.042c2.395-.338-2.289-.069 0 0m22.49-1.546c1.17-.246-1.113-.267 0 0m10.319-.794c1.17-.246-1.114-.267 0 0m-120.418 1.843c-.83-3.472-1.164-7.653-1.946-11.382a898 898 0 0 0-5.387-30.28c-1.358-6.622-3.149-13.228-3.615-19.976-.514-1.103-.69-3.164-1.187-5.085-.23-2.86-.26-2.49-.374-3.645-.598-1.822-.311-2.95-.856-4.67-1.526-2.389.636-3.346 2.43-4.715 3.368-2.77 6.966-5.241 10.28-8.079-2.23.852-4.005 2.983-6.06 4.327 2.82-2.89 6.338-5.079 9.751-7.237 2.812.222-.211 2.427-1.461 2.998-1.093.946 1.342 3.286 1.321 5.071.7 1.907.909 4.286 1.553 5.777.115 2.803 1.689 5.651 1.347 8.379 1.294.945.815 4.041 1.547 5.804 1.112 5.873 2.366 11.69 3.377 17.56.555 1.437.306 4.347 1.176 4.417-.653 2.499.47 1.697.548 3.661-.273 1.697.684.734.737 3.188-.498 1.427-.287 2.056.186 2.517-.71 2.323.863.438.548 2.777.827.504.283 1.89.748 2.85-.415.322 1.633 2.48.615 2.577-1.33.751 1.92.677 1.967 2.406-.201-2.093-.115-3.209-.305-5.241-.847-1.079.105-.901-.686-3.904-1.717-10.144-3.664-20.255-5.333-30.408-1.67-8.611-3.038-17.283-4.526-25.931 2.494-.414.743 3.393 1.595 4.955 2.459 17.366 6.027 34.572 10.043 51.639.483 3.696.44 7.546 2.631 10.742 1.977 4.081 3.93 8.174 5.894 12.262 11.447.485 22.849-1.305 34.258-2.046 13.26-1.1 26.529-2.156 39.803-3.044 13.64-.564 27.22-2.18 40.833-3.079 1.462-1.251-.65-3.97-.578-5.792-.571-2.375-1.15-5.023-1.515-7.208-1.343-5.01-2.636-10.168-3.465-15.323a212 212 0 0 1-1.688-7.755c.192-1.2-.33-1.465-.254-2.587-.864.13.317-2.465-.753-2.147.504-1.578-.907-2.4-.78-4.49-.573-.829-.536-1.958-.591-3.541-.4-1.29-.917-1.522-.635-3.787-1.144-.635-1.066-4.163-1.74-5.91-.776-3.965-1.919-7.87-2.234-11.91 1.926 2.374 1.899 6.043 2.738 9.01 1.765 9.135 3.473 18.28 5.64 27.329-.172 2.14.703 2.136 1.042 4.744 1.753 7.378 3.863 14.687 5.751 22.01-.085 2.456.567 3.02 1.048 5.224.055 1.378 2.04 3.925-.675 3.672-11.53 1.592-23.228 1.379-34.823 2.321-1.125-.253-3.761.419-5.55.3-17.595 1.045-35.18 2.298-52.71 4.151-8.272.726-16.541 1.497-24.792 2.44-1.663-2.066-2.218-4.823-3.429-7.171-.298-.41-1.46-3.247-1.622-4.02-.429-1.389-2.427-5.18-2.487-5.042.188 1.465-2.067 1.981-2.67 3.294-1.866 1.367-3.74 3.895-5.673 5.655-.702.865-1.764 1.57-2.511-1.555-1.759-5.422-2.669-11.104-3.555-16.704 1.48.958-1.43-2.53-.824-4.327-2.395-13.706-4.18-27.589-6.87-41.198-.637-.118.312 3.714.317 5.053 2.777 16.996 5.399 34.034 8.68 50.944.558 3.404 1.664 6.672 2.966 9.856-2.627 2.907-4.891 6.259-7.21 9.279m97.002-10.574c.573-.303-.548-.33 0 0m9.54-.529c.534-.45-1.208-.853 0 0m1.572-.265c.574-.303-.547-.33 0 0m1.852 0c.574-.303-.547-.33 0 0m31.883-9.525c1.17-.246-1.113-.267 0 0m-138.245-6.614c.574-.303-.548-.33 0 0m10.054-1.323c.574-.303-.547-.33 0 0m-19.05-5.027c.574-.303-.547-.33 0 0m143.669-1.852c.574-.303-.548-.33 0 0m-135.996-2.117c.574-.303-.547-.33 0 0m133.923-6.438c.357-1.217-.78.343 0 0m-.838-3.616c.574-.303-.547-.33 0 0m-.264-1.058c.573-.303-.548-.33 0 0m-.265-1.059c.574-.303-.547-.33 0 0m-.529-2.381c.574-.303-.547-.33 0 0m-135.202-4.498c.574-.303-.547-.33 0 0m-9.26-1.058c.573-.303-.548-.33 0 0m-.265-1.059c.574-.302-.547-.33 0 0m143.184-.617c.356-1.217-.781.344 0 0m-143.978-4.145c.574-.303-.547-.33 0 0m-.529-2.646c.574-.303-.547-.33 0 0m142.875-1.587c.574-.303-.547-.33 0 0m-.222-.993c.122-2.328-.419.443 0 0m-.28-1.46c.162-2.241-.504.237 0 0m-142.902-.987c.574-.303-.548-.33 0 0m142.653-.198c.122-2.33-.419.442 0 0m-.27-1.207c-.075-2.937-.99-2.103 0 0m-.512-2.398c.13-1.93-1.203-4.913-.362-1.14.153.164.073 1.482.362 1.14m-134.758-.43c1.006-1.341-.651-2.018 0 0m-7.938-.53c1.226-.86-.275-.617 0 0m7.969-1.587c.573-.303-.548-.33 0 0m133.906-1.13c.162-2.24-.504.237 0 0m-.292-.987c.574-.303-.547-.33 0 0m-.237-.865c.161-2.241-.504.237 0 0m-.292-1.251c.574-.303-.547-.33 0 0m-47.096 75.935c-.573-.303.548-.33 0 0m-58.737-2.381c-.574-.303.547-.33 0 0m-.794-1.588c-.574-.303.548-.33 0 0m-.53-1.587c-.573-.303.548-.33 0 0m23.107-6.233c-.468-.195-1.863-2.22-3.14-2.763-1.998-1.655-4.662-2.88-6.66-4.516-.608 1.098-1.683-1.564-3.628-1.592-1.6-1.107-4.498-1.552-5.312-2.094 2.065-.648 2.289-2.72 3.354-2.985 1.924-1.96 4.183-3.576 6.228-5.415-1.61-1.591 3.169.144 3.972-.751 2.304-.53 3.569.963 3.643-.638-.134 1.379 2.755-.38 4.286.047 2.793-.34 2.69 1.096 4.843-.08 2.624.016 1.304-.347 3.635.102 3.037-.555 1.619 1.095.201.424.983 1.899 2.964-1.366 4.849-.376 2.276-.116 2.522-.042 4.76-.115 1.727-.295 4.665.48 5.605-.267.24.266 3.181.457 4.651.165 2.214-.036 4.305-.273 6.094-.143 2.003-.42 4.062.329 6.056-.275.052.793 3.123.145 1.53-.189 1.196.828 2.515-.713 4.026-.055-1.637 1.284.71-.171 2.295-.28 2.67-1.13.884 2.491 2.332.298.973-.73 1.65 1.302 2.788-.636 2.143-.139-2.409 1.683.92.895 2.583.657 2.664-1.627 4.1-1.233 1.92-.586 4.427.386 6.038-.953 2.065-.066.514 2.502 2.334.517 2.46-2.979.688-.199 1.932-.469 1.322 1.428 2.72 1.287 4.196 2.37 1.324.737 2.935 1.478 4.858 2.151 2.035.494 1.68.436 2.344.484.81 1.669 2.584 1.1 4.556 1.78 2.344.625 3.718.436 1.55 1.9.382 1.048-.922 1.673-1.124 3.458-1.406 1.434-1.381 2.864-2.599 4.371-.572 1.594-2.209 4.17-3.46 1.903-.639.848-3.343 1.66-2.924.017-1.511.864-2.689-.545-3.677.7-1.419-.947-.603-.105-2.49-.106-1.187-.898-3.972-.234-5.819-.487-2.413-.422-3.668.715-4.98-.028-3.075-.691-.71 1.491-2.442.77-2.025 1.093-2.496-2.11-2.42.274-2.113-2.444-1.332 1.5-3.28-.413-.892-.973-1.744.341-1.795.76-1.243-.087-.965-1.942-1.151.234-1.63-.033-3.818-.44-4.775.28-2.588.938-5.397.804-8.078 1.338-5.902.66-12.14 1.463-18.084-.187-.73-1.279-1.543-.307-2.415-.392-.751-.272-1.58 1.046-2.078-.489-2.107-1.245-4.532 2.522-3.978.421-.574.837-1.421-.562-3.477.036.312 2.447-1.862-.782-1.903.705-1.973-1.55-.212.3-2.368.292-1.02-1.25-.754.481-1.463-.544-.679.493-.691 1.126-2.91-.178.101.644.718 1.298.454 1.957m4.675-1.448c.46-.347-2.015-.872-.264 0zm2.618.008c1.152-1.18-.632-1.069 0 0m13.985-1.063c.945-.756-2.11-.69-.199-.004zm16.205.004c.574-.302-.547-.33 0 0m-38.247-.387c12.268-1.031 24.68-1.506 37-2.34 15.924-.8 31.94-.767 47.832-1.057 1.537-3.008 3.034-6.039 4.571-9.048-6.067-1.687-12.107-3.902-17.73-6.684-3.309 1.51-7.21.86-10.763 1.483-14.558.924-29.13 1.606-43.72 1.414-8.002.154-16.038.207-24.016.573-3.34.877-5.063 4.489-8.075 6.105-3.312 1.477.958 1.668 2.348 2.31 4.322 2.111 8.317 4.787 12.373 7.355zm17.08.123c.574-.303-.547-.33 0 0m1.456 0c1.17-.247-1.113-.268 0 0m4.233 0c.179-.757.09.002 0 0m20.117 0c.921-.81 2.765-1.88.053-1.322.096.288-.553 1.403-.053 1.322m-.934-.265c.573-.303-.548-.33 0 0m-2.91-.264c.573-.303-.548-.33 0 0m6.24-.411c.731-1.246-1.424.016 0 0m4.062.146c1.144-.745-.738-1.182 0 0m1.895-.07c-.962-1.814-1.5-.157 0 0m-2.622-.199c1.123-.895-1.953-.597-.05-.004zm7.093-.26c.574-.303-.548-.33 0 0m3.969 0c1.842-1.105-1.603-.434 0 0m-2.646-.53c.573-.302-.548-.33 0 0m17.198 0c.573-.302-.548-.33 0 0m13.494-11.64c.573-.304-.548-.33 0 0m-87.048-3.176c.573-.303-.548-.33 0 0m3.789-.295c2.108-.75-1.976-.443-.134-.005zm4.156.03c1.517-.835-1.197-.775-.015 0zm2.638-.264c.574-.303-.548-.33 0 0m66.94 0c.573-.303-.548-.33 0 0m-59.532-.265c.574-.303-.547-.33 0 0m26.459-.264c.573-.303-.548-.33 0 0m2.38-.265c.574-.303-.547-.33 0 0m.662 0c1.148-.606-1.095-.66 0 0m4.895 0c.574-.303-.547-.33 0 0m-1.587-.264c.573-.303-.548-.33 0 0m1.72-.265c1.17-.246-1.114-.268 0 0m16.007-1.323c.573-.303-.548-.33 0 0m-58.209 21.432c-.573-.303.548-.33 0 0m-.793-.265c-1.322-1.13 1.308-.98 0 0m5.276-.197c-2.069.19 1.536-1.585 0 0m-1.44-.068c-1.166-.975.93-.806 0 0m-17.066-.529c-.573-.303.548-.33 0 0m-.56-.529c-.261-.754 1.031-.524 0 0m57.181-.265c-.573-.302.548-.33 0 0m-58.737-.529c-.574-.303.547-.33 0 0m78.332 0c-1.334-.834.749-.716 0 0m-11.26-.264c-1.148-.606 1.095-.66 0 0m1.72 0c-.574-.303.547-.33 0 0m15.197 0c.16-1.021-.053-.048 0 0m-15.859-.265c-1.237-.728 1.052-.395 0 0m2.822-.088c-.709.35.395-1.134 0 0m1.014.088c-.573-.303.548-.33 0 0m4.234 0c-.574-.303.547-.33 0 0m5.688 0c-1.17-.246 1.114-.267 0 0m-83.094-.264c.158-1.021-.053-.048 0 0m-20.198-.601c-.346.152-.094-1.56.16-.16zm18.89.071c-1.237-.728 1.052-.395 0 0m-19.579-2.116c-1.17-.247 1.113-.268 0 0m16.801 0c-.573-.303.548-.33 0 0m-1.058-.53c-.574-.302.547-.33 0 0m-15.567-.352c-.708.35.395-1.134 0 0m-.837-2.029c-.574-.303.547-.33 0 0m.793-.264c-.573-.303.548-.33 0 0m-1.323-1.852c-.573-.303.548-.33 0 0m1.059 0c-.574-.303.547-.33 0 0m-1.323-1.323c-.574-.303.547-.33 0 0m1.102-.089c-.709.351.395-1.133 0 0m-1.367-.705c-.573-.303.548-.33 0 0m-.661-.794c-1.17-.246 1.113-.267 0 0m1.455-.529c-.574-.303.548-.33 0 0m35.19-5.027c-.574-.303.547-.33 0 0m-38.056-.617c-.71.35.395-1.134 0 0m73.245.088c-.573-.303.548-.33 0 0m13.538-.618c-.709.351.395-1.133 0 0m2.734.089c-1.147-.606 1.095-.66 0 0m.802 0c-.394-.664.577-1.277 0 0m.946 0c-1.152-1.18.632-1.07 0 0m-30.422-4.562c-1.905.3-3.315-1.138-4.663-2.127-.62-.903-2.416-.507-2.673-2.016-1.63.085-2.877-1.656-3.87-1.584-1.263-1.616-2.941-1.474-4.438-3.086-3.587-2.375-7.169-4.906-10.574-7.107-7.297-5.316-14.89-10.21-22.133-15.603-2.861-1.824-5.4-4.35-8.243-6.024-2.437.234-5.63-.701-5.484-3.658.302-1.77 3.861-.387 5.424-.937 6.048 5.564 12.765 10.336 19.587 14.895 2.782-.218-1.198.29 2.588 1.675 9.255 6.085 19.113 11.297 28.609 16.904-.312-1.244 1.37 1.604 3.193 1.891 2.693 1.412 5.38 2.825 7.789 4.696 5.767-5.1 12.22-9.57 18.131-14.579 6.782-5.154 13.032-11.018 18.077-17.906 1.418-1.093 2.13-4.099 3.835-4.093 1.46.355 4.818-.164 3.18 2.334-1.545 2.09-1.927 1.616-2.97 3.058-2.915 3.088-5.94 6.504-9.085 8.954-1.985 2.175-4.4 3.35-6.283 5.566-.778.855-2.78 2.19-3.968 3.486-.976.306-2.844 2.772-4.156 3.893-2.564 1.86-4.782 4.127-7.43 6.138-1.77 1.298-3.245 3.16-5.086 3.989-1.04 1.11-2.838-.095-3.702.222.659-.292 4.332-4.246 1.873-2.024-1.61 1.736-2.806 2.059-3.86 1.34-1.016 1.062-2.764.433-3.668 1.703m1.819-3.111c.573-.303-.548-.33 0 0m7.934-1.387c3.574-2.75-3.25 1.874 0 0m1.326-.995c.574-.302-.547-.33 0 0m.712-.529c1.08-.566 1.45-2.105 0 0m1.934-1.587c.574-.303-.547-.33 0 0m.984-.683c2.33-2.217-1.893 1.167-.11.078zm1.237-.905c2.074-1.669-.92-.381 0 0m1.219-.962c1.848-1.625-1.54.443 0 0m.762-.36c2.141-1.997.977-2.205-.1 0zm2.462-2.29c4.303-2.692-1.557-.07 0 0m2.067-1.584c1.849-1.625-1.54.444 0 0m2.09-1.507c3.257-2.825-.985-.368 0 0m1.35-1.499c.574-.303-.548-.33 0 0m1.055-.454c2.202-1.32.54-1.731-.649.471zm1.59-1.133c.574-.303-.547-.33 0 0m.546-.53c.808-.69-1.357-.87 0 0m.513-.529c.574-.303-.547-.33 0 0m.53-.793c.573-.303-.548-.33 0 0m.574-.265c2.563-1.578.05-1.317 0 0m2.42-2.381c1.978-1.222-.893-.519 0 0m1.966-1.977c5.122-4.434-2.733 1.655 0 0m-39.357 24.466c-.573-.303.548-.33 0 0m-.793-.264c-.574-.303.547-.33 0 0m-1.72-.662c-1.2.267 1.197-1.537 0 0m.794-.132c-1.17-.246 1.113-.268 0 0m-1.985-.53c-.573-.302.548-.33 0 0m.53-.528c-.574-.303.547-.33 0 0m-1.323-.265c-.574-.303.547-.33 0 0m-.794-.794c-.574-.303.547-.33 0 0m14.62-.03c-10.64-5.8-21.366-11.458-31.438-18.226-3.645-2.004-7.28-4.613-10.738-6.63-6.13-4.095-12.89-7.566-18.205-12.656.896-.868 4.342-.013 6.18-.245 10.709.16 21.412.502 32.117.798 3.766 3.542 8.69 7.134 14.15 5.63 3.564-.565 6.709-2.665 9.48-4.892 11.244.589 22.517.39 33.77.784 2.112.539.253.212 2.335 1.147.758-1.795.12 1.562-1.837 2.11-2.259-1.407-.047-.227-.847.898-1.212-.52-1.385-.135-.665 1.053-.868-.203-2.613.646-3.164 2.155 2.014-1.36-.067.806-.854 1.775-.252 1.014-3.166.632-1.514.975 1.103 1.575-2.74.41-1.19.981.005 1.562-1.106 1.887-2.567 3.452-2.195 2.07-3.717 4.282-6.281 5.977-6.223 4.975-12.426 10.15-18.731 14.914m24.009-20.607c.574-.303-.548-.33 0 0m-.397-1.323c1.147-.606-1.095-.66 0 0m2.498-.53c1.144-.745-.739-1.181 0 0m-.47-.881c.357-1.217-.78.343 0 0m.883-1.5c1.17-.246-1.114-.267 0 0m.923-.826c.162-1.666-1.91.018 0 0m1.044-1.13c1.955-1.208-3.24-.835 0 0m1.497.104c1.71-.442-1.174-2.407 0 0m-1.2-1.322c.534-.45-1.208-.853 0 0m.498-.265c1.334-.834-.748-.717 0 0m1.058 0c1.334-.834-.748-.717 0 0m.25-1.588c1.225-.86-.276-.617 0 0m.824-.529c.574-.303-.547-.33 0 0m.28-.529c.81-.69-1.356-.87 0 0m-.28-.794c.574-.303-.547-.33 0 0m1.72-.529c1.147-.606-1.095-.66 0 0m3.307-1.587c.574-.303-.547-.33 0 0m.81 0c.534-.45-1.209-.853 0 0m-1.868-.53c.574-.302-.547-.33 0 0m-40.746 32.28c-.573-.303.548-.33 0 0m-4.35-2.117c-2.358-1.142 1.335-.076 0 0m-22.637-13.494c-.574-.303.547-.33 0 0m-2.117-1.058c-.574-.303.548-.33 0 0m-1.345-.815c-1.718-.007 1.828-.467 0 0m-1.3-.773c-.574-.302.547-.33 0 0m-5.16-3.44c-1.17-.246 1.113-.267 0 0m-.662-.528c-.573-.303.548-.33 0 0m-6.35-4.234c-.573-.303.548-.33 0 0m81.99-.264c-.261-.754 1.031-.524 0 0m-124.62-1.059c-.26-.753 1.032-.524 0 0m2.743-2.092c-3.136 2.678-1.562.594.648-.852 2.578-2.019.84-.038-.648.852m78.251.474c-3.893.093-7.381-2.552-9.866-5.22.687-.023 4.028.436 5.754.27 5.03.074 10.061.186 15.092.218-1.24 2.053-4.26 3.017-6.47 4.078-1.501.26-2.968.822-4.51.654m-2.646-.763c.574-.303-.547-.33 0 0m-2.117-1.058c.574-.303-.547-.33 0 0m-70.94-.53c.048-.725 1.413-1.22.1 0zm1.324-1.058c-.261-.753 1.031-.524 0 0m118.697-3.175c-1.17-.246 1.113-.267 0 0m3.175 0c-1.17-.246 1.113-.267 0 0m1.19 0c-.573-.303.548-.33 0 0m-11.663-.285c-1.718-.007 1.827-.467 0 0m21.405-.029c-14.307-.628-28.63-.579-42.947-.83.215-2.557 2.56-1.7 4.378-1.754l36.897.12c-.933 2.346 4.66.328 2.84 2.502zm-28.792-1.273c.574-.303-.547-.33 0 0m4.101 0c1.17-.247-1.113-.268 0 0m-16.8-.794c.573-.303-.548-.33 0 0m-9.195 1.494c-6.682.043-13.356-.274-20.034-.436-2.499-2.395.057-2.467 2.294-2.184 8.299.05 16.596.194 24.893.332.717 2.294-1.843 2.654-3.828 2.308zm-11.443-1.759c.573-.302-.548-.33 0 0m2.35 0c1.225-.86-.275-.617 0 0m3.338-.264c1.17-.247-1.113-.268 0 0m-15.301 1.852c-3.653-.842-7.887-.355-11.77-.655-8.745-.248-17.495-.135-26.242-.223-2.618-1.994 2.033-.352 3.355-.871l26.807-.235c-6.45-.526-13.077-.124-19.437-.565 1.497-.327 4.497-.019 6.569-.102 6.473.198 13.024-.236 19.448.366.454.214 1.992 1.996 1.27 2.285m-7.585-1.852c.573-.303-.548-.33 0 0m.53 0c.573-.303-.548-.33 0 0m-37.11.885c-1.94.32-5.453-.79-1.411-1.414 1.37.438 3.377.368 5.63.236 2.277 1.603-2.364.894-3.473 1.022-.242.076-.565-.137-.745.156m-2.578-.356c.573-.303-.548-.33 0 0m1.455-.53c1.17-.246-1.113-.267 0 0m6.217-.528c-.573-.303.548-.33 0 0m8.203 0c-.574-.303.547-.33 0 0m.771-.021c-1.718-.007 1.828-.467 0 0m1.345.02c-1.473-.245 1.565-.652 0 0m.926 0c-1.17-.246 1.114-.267 0 0" style="fill:#000" transform="translate(-25.153 -100.61)"/></svg>