<svg xmlns="http://www.w3.org/2000/svg" xml:space="preserve" width="602.976" height="602.489" viewBox="0 0 159.537 159.408"><path d="M35.024 0 0 35.024l5.593 5.594 9.972-7.783 31.977 31.624S30.823 82.05 30.425 82.536l75.81 71.896c2.918 1.62 17.467-7.347 23.63-6.698l14.593 3.649 15.08 8.025-8.27-14.836q-1.701-3.162-3.892-13.133c-.394-5.134 8.888-20.817 7.919-25.536L83.91 28.95c-6.616 6.429-12.597 11.912-19.097 17.998L33.078 15.566l7.54-9.972zM27.97 20.673l31.735 31.382s-4.473 4.902-5.595 5.837L22.133 26.268zm57.289 20.97 2.58 2.766-7.329 7.775q-2.263 2.112.141 2.927l2.776-2.826 5.752-4.422 2.414.57-7.33 7.775q-2.262 2.112.141 2.927l8.528-7.247 2.648.823-7.086 7.782q-2.514 2.347-.102 2.918l8.528-7.246 2.414.57-7.329 7.776q-2.263 2.11.14 2.925l2.776-2.823 5.753-4.424 2.414.572-7.33 7.774q-2.263 2.112.14 2.926l8.529-7.247 2.648.824-7.329 7.773q-2.263 2.112.14 2.927l8.529-7.247 2.414.571-7.33 7.774q-2.262 2.112.141 2.927l8.528-7.247 2.414.571-7.33 7.775q-2.261 2.11.142 2.925l8.528-7.247 2.647.823-7.328 7.775q-2.264 2.112.14 2.927l2.777-2.825 5.753-4.422 2.412.57-7.086 7.783q-2.263 2.111-.103 2.918l8.529-7.246q1.007-.94 2.413.571l-7.329 7.775q-2.264 2.11.141 2.925l8.528-7.247 2.648.823-7.329 7.776q-2.262 2.11.142 2.924l2.775-2.823 5.753-4.423 2.413.571-7.33 7.775q-2.027 2.362-.093 2.673l8.528-7.246q1.24-.687 2.648.822l-7.329 7.777q-2.263 2.11.141 2.924l2.776-2.822 5.752-4.425q1.24-.687 2.648.824l-7.329 7.773q-2.262 2.113.141 2.927l2.775-2.825 5.753-4.422q1.258-1.171 2.649.823l4.465 4.537-17.525 16.343-17.52-17.612L67.155 58.29zM60.753 65.9l2.675 2.674-7.053 8.026q-2.188 2.19.243 2.92l2.676-2.92 5.594-4.62 2.432.486-7.053 8.025q-2.187 2.19.242 2.92l8.27-7.54 2.675.73-6.81 8.025q-2.43 2.433 0 2.92l8.27-7.54 2.432.486-7.053 8.027q-2.187 2.189.243 2.919l2.675-2.919 5.595-4.622 2.432.487-7.054 8.025q-2.188 2.19.243 2.92l8.27-7.54 2.676.73-7.054 8.025q-2.188 2.19.243 2.92l8.27-7.54 2.432.486-7.053 8.025q-2.187 2.19.242 2.92l8.27-7.54 2.433.487-7.054 8.026q-2.188 2.189.243 2.918l8.27-7.54 2.675.73-7.053 8.026q-2.187 2.19.243 2.92l2.676-2.92 5.595-4.62 2.43.486-6.81 8.025q-2.187 2.19 0 2.92l8.27-7.54q.974-.973 2.432.487l-7.053 8.026q-2.187 2.189.243 2.918l8.27-7.54 2.675.73-7.053 8.027q-2.187 2.189.243 2.918l2.675-2.918 5.595-4.622 2.432.487-7.054 8.026q-1.944 2.433 0 2.675l8.27-7.54q1.215-.73 2.675.73l-7.053 8.027q-2.187 2.189.243 2.918l2.676-2.918 5.594-4.622q1.215-.73 2.675.73l-7.053 8.025q-2.188 2.19.243 2.92l2.675-2.92 5.594-4.62q1.218-1.214 2.677.73l4.62 4.378-17.51 17.512-67.13-67.129z"/></svg>