<?xml version="1.0" encoding="UTF-8" standalone="no"?>
<!-- Created with Inkscape (http://www.inkscape.org/) -->

<svg
   width="74.988083mm"
   height="104.48339mm"
   viewBox="0 0 74.988083 104.48339"
   version="1.1"
   id="svg1"
   xml:space="preserve"
   xmlns="http://www.w3.org/2000/svg"
   xmlns:svg="http://www.w3.org/2000/svg"><defs
     id="defs1" /><g
     id="layer1"
     transform="translate(-69.236772,-95.345784)"><path
       style="fill:#000000"
       d="m 94.253683,199.80828 c -1.531787,-0.25438 1.623081,-0.20569 0,0 z m 0.815798,0.0209 c -0.573584,-0.3029 0.547511,-0.33003 0,0 z M 94.804898,199.3 c -1.447326,-0.0903 -1.778279,-2.6088 -0.241842,-2.91386 1.340538,-1.04095 1.711698,-3.00434 2.673085,-4.40608 -1.830529,-0.91145 -0.01983,-2.63247 -0.953484,-3.21694 -1.06432,-0.47073 -2.425433,-1.82518 -0.651612,-2.16312 0.900172,0.80851 2.646445,1.50707 0.461661,-0.0682 -0.785459,-2.17984 3.000883,0.30341 1.972725,-0.91423 -1.558286,-0.0484 -1.72077,-3.36413 -0.01805,-1.90385 2.292939,0.38226 -1.60599,-0.78967 -1.258042,-1.77037 1.040661,-1.60895 2.456788,0.41951 3.559621,0.92066 0.53065,-0.78076 -2.720586,-2.10509 -1.115467,-3.07797 0.826737,-0.99651 1.142477,-2.45853 2.513237,-0.82566 1.71001,0.37088 -1.14851,-1.05554 -1.5576,-1.7593 0.0469,-2.07076 1.47566,-0.69787 2.32315,-0.12606 -0.23324,-1.18915 1.15931,-1.62538 1.75497,-2.80145 0.41041,-1.70012 1.42322,-1.94226 -0.63198,-2.55337 -1.06016,-0.95272 -2.83483,-1.93509 -1.91378,-3.55124 1.65984,-1.1213 1.11331,-2.26196 0.67305,-3.92623 -0.46792,-1.78891 -1.65932,-3.75318 -0.14948,-5.37083 0.94081,-0.94416 1.25931,-3.09081 2.5985,-3.26518 1.68089,0.0858 3.36177,0.17168 5.04266,0.25752 -1.90661,-0.50456 -3.86397,-0.489 -5.82084,-0.47843 -0.95832,1.69904 -2.31413,3.28252 -3.0427,5.04834 0.0169,2.20077 0.87886,4.37 1.86567,6.32221 -1.35434,-0.11209 -1.28228,-2.38831 -1.76724,-3.46072 -0.0143,-2.1648 -1.05787,-1.58634 -2.288948,-0.50803 -1.595027,-0.004 -3.22119,0.17604 -4.688726,-0.58093 -0.102239,-1.88961 2.363784,-2.81661 2.910416,-4.46302 -0.738667,-1.07766 -1.487211,2.88963 -2.015433,0.65327 -0.28177,-2.64063 0.609261,2.41228 0.394287,-0.73119 0.388901,-2.78949 -1.042615,-0.46628 -1.394333,0.88071 -0.581299,1.39265 -1.844491,2.92341 0.05397,3.81378 2.107421,0.84293 -0.495506,2.49896 -0.443784,1.1096 -1.040488,0.0854 -1.521975,1.98621 -2.160392,2.87995 -1.299912,0.23109 -2.722121,-1.20921 -4.059336,-1.66193 -1.175653,-0.15593 -3.417423,-2.15315 -1.334337,-2.42984 1.087692,1.33266 -0.005,-0.28011 -0.682313,-1.04438 1.796313,1.12688 2.054085,-1.26602 3.175055,-1.86531 0.567268,-0.29846 -1.840198,-1.71441 -2.39524,-2.43448 -0.894623,-1.25849 -1.324266,-3.20456 0.183332,-4.18634 1.930462,-2.10316 -0.324771,-0.57024 -1.047394,0.65496 -1.384503,2.26475 -0.01082,-0.82166 0.935252,-1.37807 1.334478,-1.20061 2.356125,-3.18087 2.993056,-4.56232 -0.915966,1.52045 -2.12511,0.19698 -3.290695,-0.39688 -2.413609,-2.12634 -5.187162,-4.02438 -7.158062,-6.54125 -0.865946,-1.31546 -1.202416,-2.95297 0.163133,-4.05903 1.60973,-3.51766 3.858498,-6.97302 5.675076,-10.49852 2.995347,-5.47185 6.00619,-10.93516 9.033707,-16.38928 -0.454414,-1.52433 -0.307303,-2.89001 0.946938,-3.96369 1.115844,-0.92561 1.02035,-3.2365 2.452704,-3.53188 1.41552,0.6724 -0.278079,2.26363 -0.872385,3.08195 3.794172,0.93895 7.780422,1.64036 11.298242,3.51346 1.25905,0.35978 -1.96231,0.14584 -2.65546,-0.53354 -2.92193,-1.2474 -6.098197,-1.62039 -9.1185,-2.5472 0.454949,1.55893 -1.840373,2.85188 0.491959,2.2682 3.441833,1.70822 6.393801,4.27187 9.779801,6.03419 0.83431,-2.04375 1.76789,-4.0284 3.27648,-5.6708 -1.76213,1.04218 -0.52153,-1.68334 -2.49358,-1.24373 -0.2157,1.9825 -0.80466,-1.40141 1.4656,0.15498 1.55018,0.0614 -2.18246,-1.10236 -2.89979,-1.47748 -2.57945,-1.027 -5.17565,-2.01621 -7.636095,-3.31171 -0.152963,-1.53691 2.607195,-0.66489 3.573585,-0.2669 4.73595,1.71599 9.25452,3.94023 13.45963,6.71829 1.25458,0.55284 2.63652,1.54611 3.81871,1.84858 1.854,-4.24158 4.39471,-8.12997 6.45465,-12.268729 1.91094,-1.685889 4.39598,-2.445392 6.93085,-2.247633 1.4747,-0.0999 2.91398,0.05936 4.30586,0.565575 0.63921,-1.747539 2.4695,-0.275148 3.77292,-0.22708 1.3794,0.433857 3.37589,0.502343 4.11818,1.781641 0.3748,1.41404 -0.70596,2.946976 -2.04668,3.170256 -2.01758,-0.34145 -3.96944,-1.22276 -5.91039,-1.91621 -0.32414,-1.955972 -2.09263,-1.537689 -3.6162,-1.522007 -2.31691,-0.0081 -5.16924,-0.354869 -6.65474,1.840161 -1.00944,0.899616 -0.59099,2.708686 -0.28567,3.895466 1.48616,4.76401 5.09249,8.40909 8.02289,12.3147 1.21796,1.80395 1.83914,4.01101 1.6594,6.15773 -0.73347,1.29702 0.0129,2.95265 -0.87816,4.07782 -1.42361,0.90527 -0.27268,2.70782 -1.5576,3.60581 -1.13441,0.77212 -1.40262,2.29895 -1.25003,3.3563 1.65557,1.33206 4.16004,2.82483 3.38829,5.30213 -0.30021,1.85001 -1.65022,1.78511 -0.13155,0.1944 -0.52235,-0.4615 -2.09761,1.18127 -2.60509,1.75591 -1.37825,1.26983 0.15525,2.73837 -0.28742,4.03771 -4.29187,8.44724 -8.95415,16.72041 -13.01001,25.27867 0.01,0.97336 -1.50671,3.79445 -0.70619,1.60375 0.6,-2.36464 -0.78971,1.15413 -1.22162,1.84077 -0.84916,1.5732 -1.49478,4.23743 -3.77582,3.84777 -1.36733,-0.74953 -2.86652,-1.92214 -3.29193,0.34998 -1.06046,1.50641 -1.45098,2.39747 0.23726,3.25221 1.07963,2.17638 -3.09305,-0.31051 -0.86108,1.46134 0.39066,1.69154 -3.37331,-1.10781 -2.51202,0.051 1.30256,1.22716 0.37002,1.83268 1.67083,1.53456 -0.68232,0.35461 -1.13599,2.22714 -0.83378,0.23496 -1.57383,-1.16391 -2.50286,0.79614 -0.55169,1.26587 1.53285,1.23686 -0.76101,1.71558 -1.59399,0.58282 -1.11055,-1.82243 -0.79367,0.28448 0.55972,0.7206 1.89454,0.89159 0.15246,2.07244 -1.06553,1.11232 -2.61496,-1.74433 0.83188,0.4635 0.26227,1.44204 -1.8374,0.12462 -2.8182,-0.79841 -0.85878,1.10114 -0.0996,2.56712 -1.58313,-0.1759 -2.20808,0.4073 1.38201,0.53087 2.178,2.53314 -0.0302,1.66312 -0.14742,1.055 -1.13657,1.47306 -2.16802,-0.33849 -0.974212,0.74387 -1.842155,0.49873 -1.480362,1.15328 -0.386324,1.0992 -1.320088,2.91507 -2.5342,3.27712 -0.997577,0.0395 1.213138,1.9978 -0.64305,2.73869 -0.113948,0.27292 -0.348316,0.21874 -0.57559,0.2154 z m 2.910417,-6.08542 c 0.573584,-0.3029 -0.547511,-0.33003 0,0 z m 3.666545,-1.32292 c 0.01,-0.62293 -2.257397,-0.94283 -9.8e-4,0 z m -1.549879,-0.79375 c 0.573589,-0.3029 -0.547509,-0.33003 0,0 z m -2.116666,-3.175 c 0.573584,-0.3029 -0.547511,-0.33003 0,0 z m 1.5875,-3.70416 c 0.573585,-0.30291 -0.547512,-0.33005 0,0 z m 9.048645,-2.91042 c -0.15515,-1.49556 -2.08792,-0.93825 0,0 z m -7.5556,-0.27263 c 1.4478,-0.69729 -1.845806,-2.61732 -1.09617,-0.54746 0.37347,0.13747 0.68564,0.54375 1.09617,0.54746 z m 11.86841,-6.60653 c 1.57698,-0.27156 -1.60727,-0.31292 0,0 z M 112.13511,173.9 c 1.57699,-0.27158 -1.60731,-0.31291 0,0 z m -0.66146,-0.26458 c 0.57359,-0.30291 -0.54751,-0.33005 0,0 z m -0.79375,-0.52917 c 0.57358,-0.3029 -0.5475,-0.33003 0,0 z m -0.46302,-0.26757 c -0.4871,-0.857 -2.32741,-1.45503 -3.31353,-2.20908 -1.52686,-0.42251 1.92036,1.33157 2.58765,1.8123 0.24487,0.10636 0.46604,0.34503 0.72588,0.39678 z m -4.58611,-2.39915 c 1.61352,-0.30596 -1.53449,-0.1337 0,0 z M 103.80073,167.55 c 0.57358,-0.3029 -0.5475,-0.33003 0,0 z m -12.816675,-2.11667 c 1.219419,-1.02851 -1.696807,-0.75296 0,0 z m -0.988402,-0.55005 c 0.973928,-1.88689 -2.678204,-0.72034 0,0 z m 14.598827,0.0209 c 0.57359,-0.30291 -0.54751,-0.33005 0,0 z m -12.633853,-0.54209 c 0.348865,-1.19128 -0.188032,-0.5026 0.807125,-1.59735 0.194308,-1.60106 -2.240982,-1.78215 -3.260221,-2.64094 -1.170646,-1.00668 -2.840423,1.89685 -1.391015,1.89276 1.320765,0.62871 2.452825,1.94366 3.844111,2.34553 z m -0.661458,-1.34069 c -1.611504,-0.19445 -1.625498,-1.21345 -2.776414,-1.19328 -1.775681,-1.17133 1.15202,-0.69297 1.879397,-0.099 -0.245827,-0.5739 -2.86344,-2.07264 -0.664734,-1.11823 1.49798,0.7769 1.675485,1.17906 0.966468,1.62432 0.740995,-0.27865 1.15837,0.53453 0.595283,0.78614 z m 0.595313,-0.76306 c -0.573587,-0.3029 0.547509,-0.33003 0,0 z m 12.964578,2.11667 c 0.57361,-0.30289 -0.54751,-0.33004 0,0 z m -16.419776,-0.52917 c 1.284664,-0.81022 -0.732349,-0.71314 0,0 z m 16.652536,-0.0221 c 0.29441,-0.50146 2.08743,-3.75541 0.99891,-2.42964 -0.23619,0.70314 -1.32015,2.08821 -0.99891,2.42964 z m -17.667694,-0.31419 c 0.248764,-1.93584 -0.555328,0.0879 0,0 z m 10.064444,-2.05089 c 1.785449,0.33232 0.09963,-2.9296 0.699725,-0.97972 -0.199145,0.29688 -2.08955,1.23823 -0.699725,0.97972 z m -1.162318,-0.32352 c 0.578624,-0.59207 1.481562,-3.51895 0.06963,-1.43112 -0.378745,0.11537 -0.762866,1.90223 -0.06963,1.43112 z m 2.587991,-0.19976 c 1.168677,-1.10616 -0.693061,-0.92811 0,0 z m 7.796907,-0.26459 c 0.57358,-0.3029 -0.5475,-0.33003 0,0 z m 0.24596,-0.52916 c 1.10506,-0.95745 0.48306,-1.81955 0,0 z m -8.57618,-0.80048 c 0.223883,-2.26064 -1.599485,-0.21746 -0.07668,0.12407 z m -0.120834,-0.25786 c -1.417464,-0.98215 0.438522,-0.47576 0,0 z m 0.513552,0.52917 c 0.573588,-0.3029 -0.547512,-0.33003 0,0 z m -9.184414,-2.08009 c 0.301207,-2.30344 -1.080184,1.22965 0,0 z m 6.318095,-0.12477 c 0.312812,-1.27567 -0.709891,0.38466 0,0 z m -6.413669,-1.04858 c 0.950403,-1.92884 -0.896508,-1.35607 -0.3604,0.47531 0.120133,-0.15844 0.240267,-0.31687 0.3604,-0.47531 z m -1.505258,-0.12 c 1.771914,-0.79878 -0.349164,-0.53196 -0.910728,-1.73762 -0.794133,-0.19667 0.953206,2.69201 0.910728,1.73762 z m 2.053996,0.19844 c 0.573587,-0.3029 -0.547509,-0.33003 0,0 z m 21.828122,-0.52917 c 1.57697,-0.27155 -1.60726,-0.31292 0,0 z m -23.084892,-1.06674 c 0.502468,-1.33268 -2.149763,-0.80878 -0.06615,-0.009 z m 0.992187,-0.25617 c 0.573593,-0.30291 -0.547516,-0.33005 0,0 z m 1.058333,-0.26459 c 0.573587,-0.3029 -0.547509,-0.33003 0,0 z m -0.926041,-0.30636 c 2.094548,-0.15538 -2.127144,-0.20539 0,0 z m 15.745763,-1.20521 c 0.95572,-1.42752 1.50624,-3.08946 2.2935,-4.61444 -0.89407,0.1489 -1.39832,2.62052 -2.14108,3.67104 -0.2482,0.35157 -1.07668,2.3878 -0.15242,0.9434 z m 5.81778,-1.39884 c 0.57359,-0.30291 -0.54751,-0.33005 0,0 z m -0.26459,-1.05834 c 0.57361,-0.30289 -0.54751,-0.33004 0,0 z m 0.70495,-0.42375 c 1.42178,-2.14373 2.41106,-4.70474 3.94244,-6.85427 1.25033,-2.45345 1.83218,-5.49907 3.95157,-7.43531 0.22441,-2.40559 -1.62635,-4.33608 -2.41247,-6.51031 1.03311,-0.31484 1.3158,2.46298 2.03022,3.3621 0.48832,1.16557 1.68762,2.88223 0.27647,3.83863 1.58011,0.19696 1.10736,-2.29704 1.87274,-3.27205 0.5629,-1.38977 1.6056,-3.1848 3.35027,-2.42703 1.66552,0.0151 2.96006,1.49871 4.60761,1.46574 1.30079,-0.91048 -0.0395,-2.50945 -0.9176,-3.23552 -2.24993,-2.30477 -4.92169,-4.14094 -7.61656,-5.88347 1.62589,1.41398 -0.20832,3.39675 -1.04186,4.76137 -0.33582,1.45701 -2.93635,1.85627 -1.86903,0.0633 -0.17378,-0.35025 -1.53377,2.30777 -1.92736,3.27012 -0.74131,1.68016 -1.77306,3.31179 -2.17321,5.09673 1.19201,-1.39859 2.19445,-1.32368 2.39768,-3.05459 0.62918,-1.13313 1.26174,-4.0391 1.88362,-1.33167 1.17732,1.62915 0.80108,3.59739 -0.1867,5.20893 -1.79613,4.22436 -3.84908,8.38677 -6.23759,12.28527 -0.50897,0.22546 -0.56996,1.01445 0.0698,0.652 z m 9.34922,-17.30333 c -0.57358,-0.3029 0.5475,-0.33003 0,0 z m 7.67292,-1.05833 c -1.0359,-0.30528 -2.16576,-0.93753 -3.43959,-1.17985 -2.69191,-0.65973 0.53203,-0.25141 1.56028,0.006 0.6883,0.69853 4.06642,0.5775 1.99527,1.17368 z m -6.61459,-0.52917 c -0.57358,-0.3029 0.5475,-0.33003 0,0 z m 0.52917,-0.52917 c -0.57358,-0.3029 0.5475,-0.33003 0,0 z m 0.52917,-0.26458 c -0.57361,-0.30289 0.54751,-0.33004 0,0 z m 0.52916,0 c -0.57358,-0.3029 0.5475,-0.33003 0,0 z m 3.98437,-1.32292 c -1.41745,-0.98213 0.43849,-0.47579 0,0 z m -6.61694,-1.85208 c 0.16012,-0.39413 0.71881,-3.9772 1.63233,-2.2694 0.80306,-1.35677 -1.6001,1.80079 -1.63233,2.2694 z m -10.86118,22.75417 c 0.57362,-0.3029 -0.54752,-0.33006 0,0 z M 109.93326,148.5 c 1.17178,-0.65457 1.46867,-2.71986 2.30474,-3.91576 1.17684,-2.71902 2.96239,-5.25211 3.738,-8.09368 0.49867,-2.0036 -0.45913,-1.58815 -0.97707,-0.0659 -2.32063,3.57092 -4.13653,7.45005 -6.2843,11.12876 0.40778,0.28454 0.632,1.0906 1.21863,0.9466 z m -19.654586,-2.38125 c 1.138704,-1.12176 -0.466695,-0.87384 0,0 z m -1.294609,-0.52917 c 0.573588,-0.3029 -0.547512,-0.33003 0,0 z m -1.058333,-0.52916 c 0.573585,-0.30291 -0.547512,-0.33005 0,0 z m 1.75504,-0.26459 c 0.545197,-0.96191 0.425085,-2.68622 1.323436,-3.74705 2.037855,0.45382 -0.592126,-1.35435 -1.574456,-1.32456 -2.875336,-0.70813 -5.759757,-1.38468 -8.549281,-2.39111 -0.24935,1.0183 1.607189,2.30526 2.436486,3.20471 1.960524,1.61368 4.185582,3.0414 6.363815,4.25801 z m 0.361626,-3.43958 c -0.573584,-0.3029 0.547511,-0.33003 0,0 z m 1.5875,2.11667 c 0.573587,-0.30291 -0.54751,-0.33005 0,0 z m 0.791817,-1.19063 c 1.908273,-0.88673 -0.803595,-2.42904 -0.10879,-0.75271 -0.284614,0.8177 -0.926877,2.26938 0.10879,0.75271 z m 10.452975,0.66146 c 1.89704,-0.72003 -1.34001,-0.99887 0,0 z m -8.268229,-0.6164 c 1.739563,0.16493 -1.929213,-1.18834 -0.213729,-0.008 z m 9.723439,0.0872 c 0.57356,-0.30291 -0.5475,-0.32994 0,0 z m 15.47812,-0.0614 c 2.89932,-0.14062 -2.82313,-0.16469 0,0 z m -16.27339,-0.6361 c 1.46362,-1.05259 -1.81854,-0.16134 0,0 z m -2.87404,-0.36085 c 1.69364,-0.65301 0.0995,-1.72056 0.24828,-2.02967 2.51084,-0.005 -0.73372,-2.27197 -0.74315,0.2844 0.86321,1.03995 -1.037247,0.94333 0.49487,1.74527 z m 3.40472,-0.79375 c 0.57361,-0.30289 -0.54751,-0.33004 0,0 z m 0.54479,-0.52917 c 1.69922,-0.21891 -2.15368,-1.07845 0,0 z m -6.586105,-0.35277 c 0.312827,-1.27566 -0.709901,0.38463 0,0 z m -3.396098,-0.44098 c 1.237895,-0.37896 1.458096,-2.44891 2.319656,-3.4937 2.4155,-4.68397 5.166877,-9.2403 7.374707,-14.00319 0.42551,-1.62704 1.3409,-3.08733 1.77249,-4.73149 1.09008,0.7334 -1.00454,2.24515 -0.95825,3.40985 -0.99395,2.69801 0.77904,-0.18071 1.20915,-1.26527 1.14635,-0.86523 0.82586,-3.00164 -0.6037,-2.17789 -3.91057,7.34421 -7.783512,14.75823 -11.59851,22.12183 -0.120591,0.32918 0.368353,0.0478 0.484457,0.13986 z m 7.585333,-14.02291 c -0.57358,-0.30291 0.54751,-0.33005 0,0 z M 103.27156,123.1 c -0.57359,-0.30292 0.54753,-0.33001 0,0 z m 1.4396,16.13958 c 0.79231,-0.77252 0.35827,-0.31452 0,0 z m -6.202095,-0.52916 c 0.573585,-0.30291 -0.547512,-0.33005 0,0 z m 33.337495,0 c 0.57358,-0.30291 -0.54751,-0.33005 0,0 z m -39.105083,-0.37747 c 1.076923,-0.60994 1.260216,-2.42377 1.944519,-3.5335 0.08232,-1.3303 0.924789,-1.59355 1.196612,-2.92759 0.923007,-1.73183 0.08052,1.08331 1.172348,-1.50758 1.433403,-2.6103 2.642834,-5.32692 3.796854,-8.06984 0.76537,1.07387 1.30252,-2.21122 1.97517,-2.90844 0.66832,-1.50554 1.43216,-2.95379 2.40268,-4.28545 2.01702,1.46037 4.26769,2.62187 6.07386,4.35197 2.63504,-0.37309 0.21201,-1.13257 -1.00764,-1.80014 -4.93097,-2.88482 -9.7396,-6.00071 -14.63929,-8.92889 -2.265072,-0.92788 -0.310076,0.34273 0.764599,0.87621 2.801942,1.74145 5.575561,3.5261 8.281371,5.41422 -1.72933,2.08452 -2.75261,4.81076 -4.2051,7.14755 -2.383159,4.48268 -4.890152,8.94841 -7.147782,13.46805 -0.09957,2.47535 -1.660622,0.61049 -3.022236,0.0912 -1.869105,-0.84812 -3.81162,-2.16177 -5.636195,-2.72755 0.914347,0.84178 2.817383,1.53322 4.115582,2.31664 1.285435,0.81765 2.717209,1.03742 3.791957,2.14983 0.05933,0.30286 -0.665146,1.25847 0.142691,0.87335 z m 1.798838,-3.59128 c -0.573587,-0.30291 0.54751,-0.33005 0,0 z m 2.116666,-3.96875 c -0.573585,-0.30291 0.547512,-0.33005 0,0 z m 5.825239,7.50232 c 2.0134,-0.9606 -2.2568,-2.08372 -0.75991,-0.31631 0.27443,0.2415 0.34429,0.65392 0.75991,0.31631 z m 2.77372,0.0383 c 2.17115,-2.30068 -1.63172,0.66241 0,0 z m -14.419792,-0.13229 c 0.573587,-0.3029 -0.547509,-0.33003 0,0 z m 7.9375,0 c 0.573588,-0.3029 -0.547512,-0.33003 0,0 z m 32.543752,-0.01 c -0.0724,-0.55073 -2.71603,-1.64462 -0.32896,-0.0543 0.0771,0.10852 0.21348,0.0524 0.32896,0.0543 z m -41.804168,-0.51924 c 0.573584,-0.3029 -0.547511,-0.33003 0,0 z m 9.569096,-0.0882 c 0.312813,-1.27567 -0.709889,0.38466 0,0 z M 88.719482,137.3875 c 0.573584,-0.3029 -0.547511,-0.33003 0,0 z m 17.065628,-0.13229 c 3.1115,-3.43192 -1.51525,0.28251 0,0 z m -17.594795,-0.13229 c 0.573588,-0.30291 -0.547513,-0.33005 0,0 z m 15.119085,-0.273 c 1.85274,-0.55624 -1.90567,-2.63046 -1.03282,-0.56308 0.34426,0.18455 0.59242,0.65612 1.03282,0.56308 z m 25.89133,0.008 c 0.57358,-0.3029 -0.5475,-0.33003 0,0 z m -42.730206,-0.26458 c 1.57699,-0.27157 -1.607287,-0.31292 0,0 z m 27.384376,0 c 0.57358,-0.3029 -0.5475,-0.33003 0,0 z m 14.81666,0 c 0.57358,-0.3029 -0.5475,-0.33003 0,0 z m -43.127078,-0.26458 c 0.573588,-0.30291 -0.547513,-0.33005 0,0 z m -1.190625,-0.30636 c 2.094549,-0.15538 -2.127144,-0.2054 0,0 z m 22.266333,-0.45916 c 1.56383,-0.59939 -0.32091,-1.23123 -0.37118,0.34481 0.19845,0.6276 0.25271,-0.19259 0.37118,-0.34481 z m -23.479007,0.21546 c 1.613535,-0.30594 -1.534482,-0.1337 0,0 z m 21.028117,-0.50828 c 1.59155,-0.72528 -1.28664,-2.96339 -1.5355,-0.8391 1.24982,1.43098 1.08926,-0.79536 1.5355,0.8391 z m -3.54357,-0.79375 c 0.57358,-0.3029 -0.5475,-0.33003 0,0 z m 6.35,0 c 0.57358,-0.3029 -0.5475,-0.33003 0,0 z m 0.76106,-1.05793 c 0.95946,-2.80285 -1.19735,2.01635 0,0 z m -2.71939,0.1158 c 1.51905,-0.79443 0.094,-3.95407 -0.69061,-1.89215 -0.90798,1.147 -0.71511,1.80251 0.69061,1.89215 z m 0.01,-0.64537 c -1.76907,-0.87281 0.6996,-1.15992 0,0 z m -3.60767,0.52917 c 0.57358,-0.3029 -0.5475,-0.33003 0,0 z m 7.01146,-1.32292 c 1.42837,-0.70967 -1.32066,-0.7811 0,0 z m -2.06614,-1.06892 c 1.39099,-0.32216 -1.82077,-3.10531 0.31989,-1.5769 2.02567,-0.58378 -0.26001,-0.97018 -0.17738,-1.67557 1.94733,1.13856 0.77555,-1.46348 2.26355,-1.36723 0.26137,-1.99871 -2.02137,0.11842 -2.51659,1.0379 -0.47337,1.20706 -2.46733,2.95763 -0.34514,3.42308 0.15804,0.0314 0.26894,0.22802 0.45567,0.15872 z m 2.54674,-0.25399 c 1.81215,-1.90433 -0.0964,-1.19637 0,0 z m -5.90456,-0.52917 c 0.57358,-0.3029 -0.5475,-0.33003 0,0 z m 28.07348,-0.52917 c 0.8402,-1.07481 1.15124,-2.71039 2.27728,-3.67541 -1.93283,-2.6649 -3.98442,-5.24765 -6.77434,-7.06799 -1.2297,-0.6831 -2.88395,-3.12727 -3.34067,-0.60402 -0.18765,1.12295 -2.34435,2.89887 -0.62009,3.33051 2.78936,2.07885 5.78098,4.14839 7.89464,6.88848 0.21212,0.31905 0.24474,0.9817 0.56318,1.12843 z m 0.23694,-1.32291 c -0.57361,-0.3029 0.54751,-0.33006 0,0 z m 1.05833,-1.85209 c -0.57358,-0.3029 0.5475,-0.33003 0,0 z m -3.96875,-5.29166 c -0.57358,-0.30291 0.54751,-0.33005 0,0 z m -2.91042,-2.38125 c -0.57358,-0.30291 0.54751,-0.33005 0,0 z m -15.37701,10.04471 c 0.64244,-1.04032 1.95212,-2.32811 1.54946,-3.56242 -0.27978,1.51965 -1.76712,2.42503 -1.91515,3.94985 0.1219,-0.12914 0.24379,-0.25829 0.36569,-0.38743 z m -5.93756,-0.51971 c 0.79077,-0.77057 0.35872,-0.31512 0,0 z m 14.17082,-1.05834 c 0.57361,-0.30289 -0.54751,-0.33004 0,0 z m 0.24076,-0.52916 c 0.72324,-0.98441 1.6905,-2.30581 2.0082,-3.55733 -0.70468,1.08312 -1.73254,2.60609 -2.0082,3.55733 z m 15.36966,-1.32292 c 0.57358,-0.3029 -0.5475,-0.33003 0,0 z m -24.63932,-0.34175 c 1.5195,-1.2758 -1.96518,-0.48567 -0.0207,0.007 z m 2.74014,0.0772 c 0.95011,-0.30556 1.48818,-3.53261 0.34796,-1.25639 0.0365,0.30593 -0.88874,1.35052 -0.34796,1.25639 z m -11.43832,-1.32292 c 0.57358,-0.3029 -0.5475,-0.33003 0,0 z m 9.60041,-0.38409 c -0.20342,-1.59483 -1.5293,-0.63657 0,0 z m -9.33583,-0.14508 c 0.5733,-0.30294 -0.54747,-0.32889 0,0 z m 31.75,0 c 0.57327,-0.30295 -0.54746,-0.32888 0,0 z m 1.02517,-0.46919 c 0.35467,-1.16195 0.17723,-3.11986 -0.39233,-4.36165 -2.16297,-4.15633 -5.92961,-7.23736 -7.99479,-11.47519 -0.84662,-0.96491 -0.65884,-2.94362 -1.63823,-3.53771 -1.39663,2.67957 -2.79326,5.35914 -4.18989,8.03872 3.5735,1.80001 6.7186,4.38965 9.68131,7.07982 1.62188,1.27034 2.89539,2.89763 4.30251,4.38803 l 0.22334,-0.12741 z m -0.32034,-1.2774 c -0.61036,-0.0738 -0.0643,-1.70992 0.19808,-0.12244 z m -0.70483,-0.10549 c -0.57358,-0.3029 0.5475,-0.33003 0,0 z m -0.66146,-1.05833 c -1.57699,-0.27158 1.60731,-0.31291 0,0 z m 1.19063,-0.26459 c -0.57358,-0.3029 0.5475,-0.33003 0,0 z m -2.11667,-0.26458 c -0.57358,-0.3029 0.5475,-0.33003 0,0 z m 0.79375,-2.64583 c -0.57358,-0.30291 0.54751,-0.33005 0,0 z m -1.05833,-1.5875 c -0.57358,-0.3029 0.5475,-0.33003 0,0 z m -2.61344,-3.175 c -1.31537,-1.05496 -0.65116,-1.292 0,0 z m -6.91156,-0.26458 c -0.57359,-0.30291 0.54751,-0.33005 0,0 z m -1.05833,-0.79375 c -0.57359,-0.30291 0.54751,-0.33005 0,0 z m 0.26458,-0.52917 c -0.57358,-0.3029 0.5475,-0.33003 0,0 z m 0.79375,-1.5875 c -0.57358,-0.3029 0.5475,-0.33003 0,0 z m 0.26458,-0.52917 c -0.57359,-0.30292 0.54753,-0.33001 0,0 z m 1.07061,-1.95073 c -1.3358,2.52555 -0.86103,0.60627 0.13921,-0.79423 1.16805,-2.16085 0.62302,-0.0371 -0.13921,0.79423 z m 2.36898,0.8924 c -0.57361,-0.30289 0.54751,-0.33004 0,0 z m -0.22049,-0.61736 c -0.65339,0.30306 0.339,-1.18035 0,0 z m -0.75665,-1.88918 c -0.61314,-0.009 -0.57323,-1.6311 0,0 z m -15.98743,17.3232 c 1.02944,-0.67408 -0.037,-0.77004 0,0 z m 2.75826,-0.12529 c -0.24203,-1.47135 -0.89095,-0.36524 0,0 z m 3.17855,-0.13929 c 0.55831,-1.25839 1.75936,-2.26594 1.77125,-3.66485 0.59077,-1.60978 2.22284,0.54436 3.30338,0.70491 -1.10659,-0.76893 -1.77339,-2.0018 -1.30921,-3.71977 -0.0675,-1.55778 -1.16743,-2.28093 -1.48926,-3.09801 -1.34089,-0.90794 -3.25972,-1.96796 -1.05089,-0.17245 -0.23886,0.46433 -2.9498,-0.63568 -1.69691,-1.95608 -1.66136,0.2697 -1.00826,-1.00247 -2.91111,-1.38352 -1.66178,-1.30624 -0.74666,1.75158 -1.9339,2.35382 -1.07494,1.19693 -1.39955,2.88212 0.5305,3.28935 1.53284,0.79998 3.12947,2.16305 4.81303,2.24476 1.12277,-0.3229 0.45268,-2.37961 1.83268,-2.9312 1.60538,-0.14383 0.94531,2.31554 0.97068,3.4281 -1.45327,-0.26747 -1.28157,1.38096 -1.97325,2.46863 -0.17286,0.39525 -1.6827,3.32655 -0.85699,2.43631 z m 1.23817,-8.99583 c -0.57359,-0.30292 0.54753,-0.33001 0,0 z m -4.16692,8.20208 c 2.31629,-0.65888 -1.45598,-2.79477 0.15573,-1.31736 0.91177,0.18142 -0.81461,1.29034 -0.15573,1.31736 z m 8.40026,-1.85208 c 0.57358,-0.30291 -0.54751,-0.33005 0,0 z m 0.78281,-2.46677 c 1.89635,-0.50827 -1.8437,-2.98797 0.32006,-2.37251 -0.16626,-1.14415 -2.59266,-1.18751 -2.05359,0.19382 -1.40968,0.92193 2.01265,0.81466 1.22226,2.31766 -0.43966,1.10517 0.053,0.29881 0.51127,-0.13897 z m -15.86406,0.0855 c 0.57358,-0.30291 -0.54751,-0.33005 0,0 z m 20.91769,-1.32292 c 0.47364,-0.35709 -1.29539,-1.07306 0,0 z m -3.96875,-0.52916 c 0.47364,-0.3571 -1.29537,-1.07306 0,0 z m 0.29954,-1.85209 c -0.12258,-0.7111 -1.85039,-1.06045 -0.194,-0.0899 l 0.11225,0.0899 z m -11.16307,-5.55625 c 0.57361,-0.30289 -0.54751,-0.33004 0,0 z m -0.52916,-0.26458 c 0.57358,-0.3029 -0.5475,-0.33003 0,0 z m -0.52917,-0.26458 c 0.57359,-0.30291 -0.54751,-0.33005 0,0 z M 142.257,100.8746 c 1.99479,-0.62991 0.19396,-1.937217 0.38422,-1.473597 0.27487,2.358397 -1.93769,0.185392 -1.13705,-1.211095 0.58203,-1.657503 3.36647,2.032832 1.86326,-0.434646 -1.42514,-1.147886 -2.7236,0.165668 -2.39242,1.75719 0.24388,0.446056 0.81469,1.137578 1.28199,1.362148 z m -71.6412,98.16041 c -1.804704,-0.70948 -0.09455,-2.6045 0.479422,-3.68611 2.623123,-4.46588 5.211894,-9.05532 7.724419,-13.51801 0.346979,-0.75456 -1.446415,-2.69378 0.482631,-3.43268 1.37472,0.027 1.402722,-0.61623 2.365417,-1.83575 1.374571,-1.07403 1.579608,-3.46007 3.246254,-3.96904 1.485307,0.0443 1.917986,2.05076 1.094055,3.10758 -0.931473,1.63548 -2.367519,-0.46462 -2.536992,-0.25949 -0.564729,1.21595 -2.141621,2.35132 -1.034834,3.70035 -0.04272,1.77101 -1.309115,2.17253 -1.700927,2.51624 -1.650436,0.2991 -0.0069,1.72695 -1.322042,1.36591 -2.847048,5.35086 -5.746208,10.67375 -8.618618,16.011 z m 9.669662,-17.72708 c 0.740268,-1.26563 -1.753351,-1.04811 0,0 z m 1.070034,-0.61736 c 0.312814,-1.27567 -0.709892,0.38466 0,0 z m 0.220486,-0.70555 c 0.573736,-0.30331 -0.548199,-0.32957 0,0 z m 3.55626,-4.49792 c 2.023389,0.15282 -1.248177,-3.0153 0.02383,-0.62871 -0.416799,-0.17096 -1.074516,0.82955 -0.02383,0.62871 z m -13.081259,22.48958 c -0.573587,-0.3029 0.547509,-0.33003 0,0 z m 24.650346,-0.35278 c -0.653381,0.30306 0.338992,-1.18033 0,0 z m -27.29618,-0.17639 c -0.573584,-0.3029 0.547511,-0.33003 0,0 z m 23.784192,-0.26458 c -0.394823,-0.70813 0.924313,-1.13068 0.103984,0 z m -23.501633,-0.26458 c -0.234267,-1.20631 1.795744,-2.44422 0.309112,-0.40308 -0.155608,0.048 -0.07227,0.48852 -0.309112,0.40308 z m 3.322148,-0.7232 c -0.990545,1.09411 0.726036,-1.77894 0,0 z m 0.364043,-0.8643 c -0.573585,-0.30291 0.547512,-0.33005 0,0 z m -2.645833,-0.26459 c -0.573588,-0.3029 0.547512,-0.33003 0,0 z m 2.879187,-0.26458 c -0.224417,-0.88902 1.089677,-0.57648 0,0 z m -2.128406,-1.06306 c -1.457836,2.07518 0.345756,-1.2254 0.890052,-1.91429 1.237181,-2.11118 1.266026,-1.43281 0.09675,0.34155 -0.286483,0.55129 -0.639051,1.05928 -0.986802,1.57274 z m 23.899565,0.71028 c -0.653382,0.30306 0.338994,-1.18033 0,0 z m -21.210763,-0.44097 c -0.573584,-0.3029 0.547511,-0.33003 0,0 z m 0.264584,-0.52917 c -0.573587,-0.3029 0.547509,-0.33003 0,0 z m 21.431248,0 c -0.574247,-0.30214 0.547047,-0.33081 0,0 z M 74.696566,192.95 c -0.573587,-0.30291 0.54751,-0.33005 0,0 z m 21.44671,0 c -0.26987,-1.41133 1.374005,-1.47337 0,0 z m -21.017004,-0.7232 c -0.990541,1.09411 0.726034,-1.77894 0,0 z m 0.529167,-1.05833 c -0.990544,1.09411 0.726036,-1.77894 0,0 z m 0.332814,-0.86431 c -0.224369,-0.88907 1.089656,-0.57638 0,0 z m -2.35002,-0.26458 c -0.573587,-0.3029 0.547509,-0.33003 0,0 z m 0.253565,-0.52917 c -0.02398,-0.38412 1.773806,-3.90842 1.52082,-2.71197 -0.452279,0.89121 -0.884876,2.05022 -1.52082,2.71197 z m 2.802876,-0.26458 c -1.093137,1.1266 1.720476,-3.40911 0.690784,-1.17375 -0.219797,0.39808 -0.412808,0.81108 -0.690784,1.17375 z m 18.390422,-0.26458 c -1.417468,-0.98218 0.438523,-0.47576 0,0 z m -0.765267,-1.6757 c -0.653382,0.30306 0.338994,-1.18033 0,0 z m -16.448263,-0.17639 c -0.573587,-0.3029 0.547509,-0.33003 0,0 z M 78.133635,186.6 c 0.324977,-1.75051 1.467777,-2.13578 0.121217,0 z m -2.42172,-0.52917 c 0.42522,-0.71094 1.267054,-3.3525 2.081069,-3.20948 -0.710898,1.03157 -1.29196,2.32096 -2.081069,3.20948 z m 20.72458,-1.67569 c -0.653382,0.30306 0.338995,-1.18035 0,0 z m -16.977429,-0.17639 c -0.573587,-0.30291 0.54751,-0.33005 0,0 z m 0.264583,-0.52917 c -0.573588,-0.3029 0.547512,-0.33003 0,0 z m 0.79375,-0.79375 c -0.573588,-0.3029 0.547512,-0.33003 0,0 z m 15.610416,-0.52917 c -0.573587,-0.3029 0.547509,-0.33003 0,0 z m 0.30868,-0.61736 c -0.653382,0.30306 0.338994,-1.18033 0,0 z m 13.434035,-2.02847 c -1.69922,-0.2189 2.15371,-1.07851 0,0 z M 78.368335,178.6625 c -0.156143,-0.541 1.817384,-1.58335 0,0 z m 4.26573,0 c -0.573584,-0.3029 0.547511,-0.33003 0,0 z m 16.933333,-0.26458 c -0.573593,-0.30291 0.547512,-0.33005 0,0 z m 10.847912,-0.26459 c -0.57359,-0.30292 0.54753,-0.33001 0,0 z m -27.516661,-0.26458 c -0.573587,-0.3029 0.547509,-0.33003 0,0 z m 27.781251,-0.26458 c -0.57359,-0.30291 0.54751,-0.33005 0,0 z m 3.96875,0 c -0.57359,-0.30291 0.54751,-0.33005 0,0 z m 0.52916,-0.26459 c -0.57359,-0.30292 0.54753,-0.33001 0,0 z m -3.95711,-0.35278 c -1.55668,-0.49762 1.52055,-0.33492 0,0 z m -27.925176,-0.17638 c -1.576992,-0.27156 1.607285,-0.31293 0,0 z m 16.668749,-0.52917 c -1.040273,1.10968 1.008927,-2.37769 0,0 z m 16.007287,0.26458 c -0.57359,-0.30292 0.54753,-0.33001 0,0 z M 81.43069,175.4875 c -1.340675,-0.562 -1.801979,-2.2209 -0.443854,-3.14664 1.257626,-1.02321 2.172884,1.63811 1.562413,2.47495 -0.377167,0.18904 -0.694849,0.64042 -1.118559,0.67169 z M 81.740421,173.9 c 1.568366,-0.53853 -1.987489,-0.96819 -0.0473,0 z m 18.885309,1.5875 c -0.57358,-0.3029 0.5475,-0.33003 0,0 z m 16.13958,-0.52917 c -0.57359,-0.30292 0.54753,-0.33001 0,0 z m -28.642273,-2.48129 c -0.640898,2.17434 -2.169802,-0.2197 -3.323412,-0.68298 -2.210909,0.24222 -1.096632,0.25182 -1.33273,-0.35283 -2.057167,-0.34224 0.996597,-2.38839 -0.35136,-3.18206 1.68777,-0.0748 1.32271,-0.42649 0.179989,-2.03209 1.482632,-0.034 2.686199,1.48716 3.444787,-0.59521 1.752452,-1.34838 0.189479,1.35583 -0.534371,1.99826 -0.410085,1.84419 2.592898,2.12567 2.643574,3.75707 -0.242159,0.36328 -0.484318,0.72656 -0.726477,1.08984 z m -0.607409,-0.45015 c 0.81923,-0.59215 -2.291735,-0.84691 -2.340852,-1.80715 -2.025796,-1.07346 -1.10121,0.24115 0.357273,0.79227 0.662419,0.30216 1.234358,1.00856 1.983579,1.01488 z m 0.674687,1.60853 c -0.573593,-0.30291 0.547516,-0.33005 0,0 z m 29.368745,-0.26459 c -0.57359,-0.30292 0.54753,-0.33001 0,0 z m -13.49375,-0.26458 c -0.57359,-0.30292 0.54753,-0.33001 0,0 z m 13.75834,-0.26458 c -0.57359,-0.30291 0.54751,-0.33005 0,0 z m -35.189585,-1.05834 c -0.573584,-0.3029 0.547511,-0.33003 0,0 z m 8.642841,-0.68858 c -1.577131,0.19487 -2.550942,-1.51381 -1.271448,-2.69516 1.260116,-1.31966 3.060364,2.36915 0.804542,1.3033 -2.716155,-0.76608 1.473696,0.66455 0.466906,1.39186 z m -2.812305,-1.42808 c -1.151321,-0.80537 -1.509904,-0.71702 -0.979956,-2.2813 0.600404,-1.20994 0.832734,-2.49089 2.193689,-0.91817 1.256585,0.56734 -0.921855,2.41458 -1.213733,3.19947 z m 0.122589,-1.98438 c 1.146177,-1.62789 -1.351335,-0.12739 0,0 z m 3.935001,0.92199 c -1.766055,-0.74659 -0.17716,-1.03968 0,0 z m 8.632709,0.004 c -0.57358,-0.3029 0.5475,-0.33003 0,0 z m 0.26458,-0.52916 c -0.57359,-0.30291 0.54751,-0.33005 0,0 z m 19.18229,-0.26459 c -1.57698,-0.27156 1.60727,-0.31292 0,0 z M 91.497607,167.55 c -1.576993,-0.27156 1.607285,-0.31293 0,0 z m 10.186453,0 c -0.57359,-0.30292 0.54753,-0.33001 0,0 z m 19.31459,-0.52917 c -0.57358,-0.3029 0.5475,-0.33003 0,0 z m -28.839585,-0.26458 c -0.573588,-0.3029 0.547512,-0.33003 0,0 z m 0.09394,-0.52917 c -0.02323,-1.11123 1.954171,-2.11107 0.267752,-0.0392 l -0.02568,0.0392 z m 3.85276,-2.9313 c -1.531785,-0.25438 1.623091,-0.20568 0,0 z m 2.800174,0.0209 c -1.576993,-0.27156 1.607281,-0.31293 0,0 z m 1.455211,0 c -0.573586,-0.30291 0.54751,-0.33005 0,0 z m -0.52917,-0.26459 c -0.573582,-0.30291 0.54751,-0.33003 0,0 z m 23.28333,0 c -0.57358,-0.3029 0.5475,-0.33003 0,0 z m -22.75416,-0.26458 c -0.57358,-0.3029 0.5475,-0.33003 0,0 z m 23.01875,-0.26458 c -0.57362,-0.3029 0.54752,-0.33006 0,0 z m 0.52916,-1.05834 c -0.57359,-0.3029 0.54751,-0.33006 0,0 z m -30.294787,-0.52917 c -1.428363,-0.70969 1.320649,-0.78111 0,0 z m -5.923721,-1.34732 c -2.029788,0.63254 1.011561,-2.4475 0,0 z m 6.289366,0.28898 c -0.224392,-0.88904 1.089668,-0.57642 0,0 z m 0.560397,-1.05833 c -0.573587,-0.3029 0.547509,-0.33003 0,0 z m 31.749995,-1.85208 c -0.57359,-0.30291 0.54751,-0.33005 0,0 z m 0.52917,-1.05834 c -0.57358,-0.3029 0.5475,-0.33003 0,0 z m -39.151938,-6.3553 c -1.443223,0.80612 1.035652,-1.51935 0.0075,-0.006 z M 83.178847,145.325 c -1.417472,-0.98216 0.43852,-0.47577 0,0 z m 49.055053,-3.3014 c -1.16611,-0.0671 2.22326,-2.90627 0.86943,-1.33487 -0.91818,0.19294 -0.2753,1.03862 -0.86943,1.33487 z m -54.362334,-4.6361 c -0.573587,-0.3029 0.547509,-0.33003 0,0 z m 0.232186,-0.52917 c -0.156182,-0.54096 1.817378,-1.58337 0,0 z M 78.929899,135.8 c -0.573588,-0.3029 0.547512,-0.33003 0,0 z m 55.871181,-0.35278 c -0.65339,0.30306 0.339,-1.18033 0,0 z m -0.57327,-0.70555 c -0.57358,-0.30291 0.54751,-0.33005 0,0 z m -0.52916,-0.52917 c -0.57361,-0.30289 0.54751,-0.33004 0,0 z m -0.51239,-0.26458 c -2.17789,-1.42349 1.30931,-0.53338 0,0 z m -1.03102,-0.88195 c -0.65339,0.30306 0.339,-1.18033 0,0 z M 80.517399,132.625 c -0.573588,-0.3029 0.547512,-0.33003 0,0 z m 1.058333,-2.11667 c -0.573588,-0.3029 0.547512,-0.33003 0,0 z m 1.5875,-2.91041 c -0.573588,-0.30291 0.547513,-0.33005 0,0 z m 0.264583,-0.52917 c -0.573584,-0.3029 0.547511,-0.33003 0,0 z m 0.264584,-0.52917 c -0.573587,-0.3029 0.547509,-0.33003 0,0 z m 1.058333,-1.85208 c -0.573588,-0.3029 0.547512,-0.33003 0,0 z m 50.504188,-0.52917 c -0.22424,-0.88923 1.08959,-0.57615 0,0 z m -49.975021,-0.26458 c -0.573587,-0.3029 0.547509,-0.33003 0,0 z m 0.529166,-1.05833 c -0.573585,-0.30291 0.547512,-0.33005 0,0 z m 1.058334,-1.85209 c -0.573587,-0.3029 0.547509,-0.33003 0,0 z m 0.264583,-0.52916 c -0.573587,-0.30291 0.54751,-0.33005 0,0 z m 48.683328,0 c -0.57358,-0.30291 0.54751,-0.33005 0,0 z M 87.396565,119.925 c -0.573588,-0.3029 0.547512,-0.33003 0,0 z m 48.198265,-0.0882 c -0.65339,0.30306 0.339,-1.18035 0,0 z m -47.669098,-0.97013 c -0.573587,-0.30291 0.54751,-0.33005 0,0 z m 47.360418,-0.26459 c -0.57361,-0.30289 0.54751,-0.33004 0,0 z m -46.302085,-1.5875 c -0.573588,-0.3029 0.547512,-0.33003 0,0 z M 134.75698,116.75 c -0.57358,-0.3029 0.5475,-0.33003 0,0 z m -45.243748,-0.52916 c -0.573593,-0.30291 0.547514,-0.33005 0,0 z m 0.264583,-0.52917 c -0.573588,-0.3029 0.547512,-0.33003 0,0 z m 44.185415,0 c -0.57358,-0.3029 0.5475,-0.33003 0,0 z M 90.042398,115.1625 c -0.573584,-0.3029 0.547511,-0.33003 0,0 z m 43.656252,0 c -0.57361,-0.30289 0.54751,-0.33004 0,0 z m -0.52917,-0.52916 c -0.57359,-0.30291 0.54751,-0.33005 0,0 z m -0.26458,-0.52917 c -0.57361,-0.30289 0.54751,-0.33004 0,0 z m -0.79375,-1.05833 c -0.57362,-0.3029 0.54752,-0.33006 0,0 z m -0.51356,-0.26459 c -1.28466,-0.81024 0.73236,-0.71313 0,0 z m -27.00311,-0.26458 c -0.57358,-0.3029 0.5475,-0.33003 0,0 z m 26.45833,-0.52917 c -0.57358,-0.3029 0.5475,-0.33003 0,0 z m -0.39687,-0.52916 c -1.57698,-0.27156 1.60727,-0.31292 0,0 z m -0.13229,-0.52917 c -0.57361,-0.30289 0.54751,-0.33004 0,0 z m -0.52917,-0.26458 c -0.57359,-0.30291 0.54751,-0.33005 0,0 z m -23.01875,-0.52917 c -0.57358,-0.3029 0.5475,-0.33003 0,0 z m 11.33518,-0.0741 c -1.71668,0.20471 1.15386,-1.62294 0.34432,-0.35497 0.11676,0.31294 -0.17235,0.28472 -0.34432,0.35497 z m -1.5456,-0.71964 c -0.57359,-0.30292 0.54753,-0.33001 0,0 z m 12.43542,0 c -0.57358,-0.3029 0.5475,-0.33003 0,0 z m -12.96458,-0.26458 c -0.57359,-0.30291 0.54751,-0.33005 0,0 z m -0.52917,-0.26459 c -0.57358,-0.3029 0.5475,-0.33003 0,0 z m 3.175,0 c -0.57358,-0.3029 0.5475,-0.33003 0,0 z m 10.05417,0 c -0.57361,-0.30289 0.54751,-0.33004 0,0 z m -13.70777,-0.26458 c -2.04826,-1.14082 -0.44877,-0.9433 0,0 z m 13.1786,0 c -0.57358,-0.3029 0.5475,-0.33003 0,0 z m -30.691665,-0.52917 c -0.573587,-0.3029 0.547509,-0.33003 0,0 z m 9.524995,0 c -0.57359,-0.30292 0.54753,-0.33001 0,0 z m -10.010065,-0.35278 c -0.65338,0.30306 0.338993,-1.18033 0,0 z m 16.624655,0.0882 c -0.57358,-0.3029 0.5475,-0.33003 0,0 z m -17.197919,-0.26459 c -0.57359,-0.30292 0.547516,-0.33005 0,0 z m 16.719319,0 c -2.0482,-1.14081 -0.44884,-0.94335 0,0 z m 6.34353,-0.0882 c -0.65339,0.30306 0.339,-1.18035 0,0 z m 8.15798,-0.17639 c -0.57358,-0.3029 0.5475,-0.33003 0,0 z m -23.28333,-0.26458 c -0.57358,-0.3029 0.5475,-0.33003 0,0 z m -11.377082,-0.26458 c -0.57359,-0.30292 0.547516,-0.33005 0,0 z m 18.785412,0 c -0.57359,-0.30293 0.54754,-0.33003 0,0 z m -0.4474,-0.26864 c -1.69675,-0.55646 -0.0693,-0.88323 0,0 z m 15.79324,0.004 c -0.57361,-0.30289 0.54751,-0.33004 0,0 z m -16.95538,-0.80434 c -1.98464,-0.60398 -1.89376,-1.4253 0.022,-0.1867 0.0687,0.0932 0.49307,0.33111 -0.022,0.1867 z m 10.31249,-0.25399 c -0.39485,-0.70812 0.92432,-1.13069 0.10398,0 z m 5.98713,-0.26458 c -1.36628,-1.92652 0.26875,-1.57748 0,0 z m -29.270466,-0.26454 c -0.394825,-0.70813 0.924321,-1.13068 0.103984,0 z m 10.876226,-0.26458 c -0.57358,-0.3029 0.5475,-0.33003 0,0 z m -0.52917,-0.26458 c -0.57359,-0.30291 0.54751,-0.33005 0,0 z m 13.46252,0 c -0.22437,-0.88907 1.08964,-0.57641 0,0 z m -13.99169,-0.29545 c -2.06712,-0.39947 -1.7974,-1.33083 0.0496,-0.11165 0.45894,0.1744 0.11857,0.11818 -0.0496,0.11165 z m -8.995829,-0.4983 c -0.57359,-0.30292 0.547516,-0.33005 0,0 z m 23.547919,0 c -0.57359,-0.30291 0.54751,-0.33005 0,0 z m -16.66875,-0.26459 c -0.57358,-0.3029 0.5475,-0.33003 0,0 z m 20.90208,0 c -0.57358,-0.3029 0.5475,-0.33003 0,0 z m -21.43125,-0.26458 c -0.57358,-0.3029 0.5475,-0.33003 0,0 z m 17.4625,0 c -0.57358,-0.3029 0.5475,-0.33003 0,0 z m 0.23335,-0.52917 c -0.2245,-0.88894 1.08974,-0.57657 0,0 z m 19.08123,-0.46441 c -2.75094,-0.0644 2.40534,-0.7099 0,0 z m -39.42291,-0.0648 c -0.57359,-0.30291 0.54751,-0.33005 0,0 z m 23.84006,-0.0717 c -0.35446,0.17902 -0.0871,-1.54974 0.15987,-0.15985 z m -2.68181,-0.60538 c -1.48123,1.51794 1.40466,-2.53694 0,0 z m -22.74575,0.14787 c -0.57358,-0.3029 0.5475,-0.33003 0,0 z m 39.42291,0 c -0.57358,-0.3029 0.5475,-0.33003 0,0 z m -13.16302,-1.27637 c -1.6292,1.83949 0.1106,-1.165352 1.10342,-1.359153 2.9271,-0.815746 -0.80401,0.344636 -1.10342,1.359153 z m 11.44323,0.7472 c -1.57698,-0.27156 1.60727,-0.31292 0,0 z m -14.41979,-0.79375 c -0.57358,-0.302902 0.5475,-0.330034 0,0 z m 0.9214,-1.539095 c -1.51731,2.165495 -0.41688,-0.448491 0.70303,-1.03657 1.18758,-1.664275 2.82803,-1.111243 0.40071,-0.218849 -0.54146,0.202199 -0.72728,0.85746 -1.10374,1.255419 z m 11.04786,0.902818 c -0.6728,-1.219486 -2.7528,-0.718696 -4.1491,-0.968854 -2.29325,-0.124252 -2.96893,-0.207422 -0.27951,-0.205127 1.39145,0.09018 3.44128,-0.382739 4.35584,0.689523 -0.0706,0.141307 0.32028,0.380785 0.0728,0.484458 z m 8.13907,-2.274137 c -0.57358,-0.302905 0.54751,-0.330037 0,0 z m -0.52916,-0.264583 c -0.57361,-0.302891 0.54751,-0.330051 0,0 z m -0.79375,-0.264584 c -0.57361,-0.30289 0.54751,-0.330049 0,0 z m -14.81667,-0.264583 c -0.57358,-0.302905 0.54751,-0.330037 0,0 z m 13.22917,0 c -0.57361,-0.30289 0.54751,-0.330049 0,0 z m -12.7,-0.264583 c -0.57361,-0.302891 0.54751,-0.330051 0,0 z m 0.52916,0 c -0.57358,-0.302905 0.54751,-0.330039 0,0 z m 7.27604,0 c -1.57698,-0.271582 1.60731,-0.312904 0,0 z m 3.70417,0 c -1.57698,-0.271561 1.60727,-0.31292 0,0 z m -10.18646,-0.264584 c -0.57358,-0.302904 0.54751,-0.330037 0,0 z m 0.66146,0 c -1.57697,-0.271561 1.60726,-0.312918 0,0 z m 4.49792,-0.04178 c -2.09455,-0.155384 2.12715,-0.205395 0,0 z m 4.36562,0.04178 c -0.57358,-0.302904 0.54751,-0.330037 0,0 z m -0.52916,-0.264583 c -0.57361,-0.30289 0.54751,-0.330049 0,0 z"
       id="path1" /></g></svg>
