<svg xmlns="http://www.w3.org/2000/svg" xml:space="preserve" width="283.42" height="394.898" viewBox="0 0 74.988 104.483"><path d="M94.254 199.808c-1.532-.254 1.623-.205 0 0m.815.021c-.573-.303.548-.33 0 0m-.264-.529c-1.447-.09-1.778-2.609-.242-2.914 1.34-1.04 1.712-3.004 2.673-4.406-1.83-.911-.02-2.632-.953-3.217-1.065-.47-2.426-1.825-.652-2.163.9.809 2.646 1.507.462-.068-.786-2.18 3 .303 1.972-.914-1.558-.049-1.72-3.365-.018-1.904 2.293.382-1.606-.79-1.258-1.77 1.041-1.61 2.457.419 3.56.92.53-.78-2.72-2.105-1.116-3.078.827-.996 1.143-2.458 2.514-.826 1.71.371-1.149-1.055-1.558-1.759.047-2.07 1.476-.698 2.323-.126-.233-1.19 1.16-1.625 1.755-2.801.41-1.7 1.423-1.943-.632-2.554-1.06-.953-2.835-1.935-1.914-3.551 1.66-1.121 1.114-2.262.674-3.926-.468-1.79-1.66-3.753-.15-5.371.94-.944 1.26-3.09 2.599-3.265l5.042.257c-1.906-.504-3.864-.489-5.82-.478-.959 1.699-2.315 3.282-3.043 5.048.017 2.2.879 4.37 1.865 6.322-1.354-.112-1.282-2.388-1.767-3.46-.014-2.165-1.058-1.587-2.289-.508-1.595-.004-3.221.176-4.689-.581-.102-1.89 2.364-2.817 2.91-4.463-.738-1.078-1.486 2.89-2.015.653-.281-2.64.61 2.412.395-.731.389-2.79-1.043-.467-1.395.88-.58 1.393-1.844 2.924.054 3.814 2.108.843-.495 2.5-.443 1.11-1.04.085-1.522 1.986-2.16 2.88-1.3.23-2.723-1.21-4.06-1.662-1.176-.156-3.418-2.153-1.335-2.43 1.088 1.333-.005-.28-.682-1.044 1.796 1.127 2.054-1.266 3.175-1.866.568-.298-1.84-1.714-2.395-2.434-.895-1.259-1.324-3.205.183-4.186 1.93-2.104-.324-.57-1.047.654-1.385 2.265-.01-.821.935-1.378 1.335-1.2 2.356-3.18 2.993-4.562-.916 1.52-2.125.197-3.29-.397-2.414-2.126-5.188-4.024-7.159-6.541-.865-1.316-1.202-2.953.164-4.06 1.61-3.517 3.858-6.972 5.675-10.498a3178 3178 0 0 1 9.033-16.389c-.454-1.524-.307-2.89.947-3.964 1.116-.925 1.02-3.236 2.453-3.531 1.416.672-.278 2.263-.872 3.081 3.794.94 7.78 1.64 11.298 3.514 1.259.36-1.962.146-2.656-.534-2.921-1.247-6.098-1.62-9.118-2.547.455 1.56-1.84 2.852.492 2.268 3.442 1.709 6.394 4.272 9.78 6.035.834-2.044 1.768-4.029 3.276-5.671-1.762 1.042-.521-1.684-2.493-1.244-.216 1.983-.805-1.401 1.465.155 1.55.061-2.182-1.102-2.9-1.477-2.579-1.027-5.175-2.017-7.636-3.312-.153-1.537 2.608-.665 3.574-.267 4.736 1.716 9.254 3.94 13.46 6.718 1.254.553 2.636 1.546 3.818 1.849 1.854-4.242 4.395-8.13 6.455-12.269 1.91-1.686 4.396-2.445 6.93-2.248 1.475-.1 2.915.06 4.307.566.639-1.747 2.47-.275 3.773-.227 1.379.434 3.375.502 4.118 1.782.374 1.414-.706 2.947-2.047 3.17-2.018-.342-3.97-1.223-5.91-1.916-.325-1.956-2.093-1.538-3.617-1.522-2.316-.008-5.169-.355-6.654 1.84-1.01.9-.591 2.708-.286 3.895 1.486 4.764 5.093 8.41 8.023 12.315 1.218 1.804 1.839 4.011 1.66 6.158-.734 1.297.012 2.952-.879 4.078-1.423.905-.273 2.707-1.557 3.605-1.135.772-1.403 2.3-1.25 3.357 1.655 1.332 4.16 2.824 3.388 5.302-.3 1.85-1.65 1.785-.132.194-.522-.461-2.097 1.181-2.605 1.756-1.378 1.27.155 2.738-.287 4.038-4.292 8.447-8.954 16.72-13.01 25.278.01.974-1.507 3.795-.706 1.604.6-2.364-.79 1.154-1.222 1.841-.85 1.573-1.495 4.237-3.776 3.848-1.367-.75-2.866-1.922-3.292.35-1.06 1.506-1.45 2.397.237 3.252 1.08 2.176-3.093-.31-.86 1.461.39 1.692-3.374-1.108-2.513.051 1.303 1.227.37 1.833 1.671 1.535-.682.354-1.136 2.227-.834.235-1.573-1.164-2.502.796-.551 1.266 1.533 1.237-.761 1.715-1.594.582-1.11-1.822-.794.285.56.721 1.894.892.152 2.073-1.066 1.112-2.615-1.744.832.464.262 1.442-1.837.125-2.818-.798-.859 1.102-.1 2.567-1.583-.176-2.208.407 1.382.53 2.178 2.533-.03 1.663-.147 1.055-1.136 1.473-2.168-.338-.974.743-1.842.498-1.48 1.153-.387 1.099-1.32 2.915-2.534 3.277-.998.04 1.213 1.998-.644 2.739-.113.273-.348.218-.575.215m2.91-6.085c.574-.303-.547-.33 0 0m3.667-1.323c.01-.623-2.258-.943-.001 0zm-1.55-.794c.574-.303-.548-.33 0 0m-2.117-3.175c.574-.303-.547-.33 0 0m1.588-3.704c.573-.303-.548-.33 0 0m9.048-2.91c-.155-1.496-2.087-.939 0 0m-7.555-.273c1.448-.698-1.846-2.618-1.096-.548.373.138.685.544 1.096.548m11.868-6.607c1.577-.271-1.607-.313 0 0m-.529-.529c1.577-.272-1.607-.313 0 0m-.661-.265c.573-.302-.548-.33 0 0m-.794-.529c.573-.303-.548-.33 0 0m-.463-.267c-.487-.857-2.328-1.455-3.314-2.21-1.527-.422 1.92 1.332 2.588 1.813.245.106.466.345.726.397m-4.586-2.4c1.613-.305-1.535-.133 0 0m-1.83-2.889c.573-.303-.548-.33 0 0m-12.817-2.117c1.22-1.028-1.697-.753 0 0m-.988-.55c.974-1.887-2.679-.72 0 0m14.598.021c.574-.303-.547-.33 0 0m-12.633-.542c.348-1.191-.188-.503.807-1.597.194-1.601-2.241-1.782-3.26-2.641-1.171-1.007-2.84 1.897-1.391 1.893 1.32.628 2.452 1.943 3.844 2.345m-.662-1.34c-1.611-.195-1.625-1.214-2.776-1.194-1.776-1.171 1.152-.693 1.88-.099-.247-.574-2.864-2.073-.666-1.118 1.498.777 1.676 1.179.967 1.624.74-.278 1.158.535.595.786m.595-.764c-.573-.303.548-.33 0 0m12.965 2.117c.574-.303-.547-.33 0 0m-16.42-.53c1.285-.81-.732-.712 0 0m16.653-.021c.294-.502 2.087-3.756.999-2.43-.236.703-1.32 2.088-1 2.43m-17.668-.314c.249-1.936-.555.087 0 0m10.065-2.051c1.785.332.1-2.93.7-.98-.2.297-2.09 1.238-.7.98m-1.163-.324c.579-.592 1.482-3.519.07-1.431-.379.115-.763 1.902-.07 1.431m2.588-.2c1.169-1.106-.693-.928 0 0m7.797-.264c.574-.303-.547-.33 0 0m.246-.53c1.105-.957.483-1.819 0 0m-8.576-.8c.224-2.26-1.6-.217-.077.124zm-.12-.258c-1.418-.982.438-.475 0 0m.513.53c.573-.303-.548-.33 0 0m-9.185-2.08c.301-2.304-1.08 1.229 0 0m6.318-.125c.313-1.276-.71.384 0 0m-6.413-1.049c.95-1.929-.897-1.356-.36.475zm-1.506-.12c1.772-.799-.349-.532-.91-1.738-.794-.196.953 2.692.91 1.738m2.054.198c.574-.302-.547-.33 0 0m21.829-.529c1.576-.271-1.608-.313 0 0m-23.085-1.066c.502-1.333-2.15-.81-.067-.01zm.992-.257c.573-.303-.548-.33 0 0m1.058-.264c.574-.303-.547-.33 0 0m-.926-.307c2.095-.155-2.127-.205 0 0m15.746-1.205c.956-1.427 1.506-3.09 2.293-4.614-.894.149-1.398 2.62-2.14 3.67-.249.352-1.077 2.389-.153.944m5.818-1.399c.573-.303-.548-.33 0 0m-.265-1.058c.574-.303-.547-.33 0 0m.705-.424c1.422-2.143 2.411-4.704 3.942-6.854 1.25-2.453 1.833-5.499 3.952-7.435.224-2.406-1.626-4.336-2.412-6.51 1.033-.315 1.315 2.462 2.03 3.362.488 1.165 1.687 2.882.276 3.838 1.58.197 1.108-2.297 1.873-3.272.563-1.39 1.606-3.185 3.35-2.427 1.666.015 2.96 1.499 4.608 1.466 1.3-.91-.04-2.51-.918-3.236-2.25-2.304-4.921-4.14-7.616-5.883 1.626 1.414-.209 3.397-1.042 4.761-.336 1.457-2.937 1.856-1.87.063-.173-.35-1.533 2.308-1.927 3.27-.74 1.68-1.773 3.312-2.173 5.097 1.192-1.398 2.195-1.323 2.398-3.054.63-1.133 1.262-4.04 1.884-1.332 1.177 1.63.8 3.597-.187 5.209-1.796 4.224-3.85 8.387-6.238 12.285-.509.226-.57 1.015.07.652m9.35-17.303c-.574-.303.547-.33 0 0m7.672-1.058c-1.036-.306-2.166-.938-3.44-1.18-2.691-.66.533-.252 1.56.006.69.698 4.067.577 1.996 1.173zm-6.614-.53c-.574-.302.547-.33 0 0m.529-.529c-.574-.303.547-.33 0 0m.529-.264c-.574-.303.547-.33 0 0m.53 0c-.575-.303.547-.33 0 0m3.983-1.323c-1.417-.982.439-.476 0 0m-6.617-1.852c.16-.394.72-3.977 1.633-2.27.803-1.356-1.6 1.801-1.633 2.27m-10.86 22.754c.573-.303-.548-.33 0 0m-.483-1.323c1.172-.655 1.469-2.72 2.305-3.916 1.177-2.719 2.962-5.252 3.738-8.093.499-2.004-.46-1.589-.977-.066-2.32 3.57-4.137 7.45-6.284 11.128.407.285.632 1.091 1.218.947m-19.654-2.381c1.138-1.122-.467-.874 0 0m-1.295-.53c.574-.302-.547-.33 0 0m-1.058-.529c.573-.302-.548-.33 0 0m1.755-.264c.545-.962.425-2.686 1.323-3.747 2.038.454-.592-1.355-1.574-1.325-2.876-.708-5.76-1.384-8.55-2.39-.249 1.017 1.608 2.304 2.437 3.204 1.96 1.614 4.186 3.041 6.364 4.258m.361-3.44c-.573-.303.548-.33 0 0m1.588 2.117c.573-.303-.548-.33 0 0m.792-1.19c1.908-.887-.804-2.43-.11-.753-.284.817-.926 2.269.11.752m10.453.66c1.897-.72-1.34-.998 0 0m-8.269-.616c1.74.165-1.929-1.188-.213-.008zm9.724.088c.573-.303-.548-.33 0 0m15.478-.062c2.9-.14-2.823-.165 0 0m-16.273-.636c1.463-1.053-1.819-.161 0 0m-2.874-.36c1.693-.654.1-1.721.248-2.03 2.51-.005-.734-2.272-.743.284.863 1.04-1.038.943.495 1.745m3.404-.795c.574-.302-.547-.33 0 0m.545-.529c1.7-.219-2.154-1.078 0 0m-6.586-.352c.313-1.276-.71.384 0 0m-3.396-.441c1.238-.38 1.458-2.45 2.32-3.494 2.415-4.684 5.166-9.24 7.374-14.003.426-1.627 1.341-3.088 1.773-4.732 1.09.734-1.005 2.245-.958 3.41-.994 2.698.779-.18 1.209-1.265 1.146-.865.826-3.002-.604-2.178A2221 2221 0 0 0 94.143 139.1c-.12.329.369.047.485.14m7.585-14.023c-.573-.303.548-.33 0 0m1.059-2.117c-.574-.303.547-.33 0 0m1.44 16.14c.791-.773.357-.315 0 0m-6.203-.53c.574-.302-.547-.33 0 0m33.338 0c.573-.302-.548-.33 0 0m-39.106-.377c1.077-.61 1.26-2.424 1.945-3.534.082-1.33.925-1.593 1.197-2.927.923-1.732.08 1.083 1.172-1.508 1.433-2.61 2.643-5.327 3.797-8.07.765 1.074 1.302-2.21 1.975-2.908.668-1.506 1.432-2.954 2.403-4.285 2.017 1.46 4.267 2.621 6.074 4.352 2.635-.374.212-1.133-1.008-1.8-4.931-2.885-9.74-6.001-14.64-8.93-2.264-.927-.31.343.765.877 2.802 1.741 5.576 3.526 8.282 5.414-1.73 2.084-2.753 4.81-4.206 7.147-2.383 4.483-4.89 8.949-7.147 13.469-.1 2.475-1.66.61-3.023.09-1.869-.847-3.811-2.161-5.636-2.727.915.842 2.818 1.533 4.116 2.317 1.285.817 2.717 1.037 3.792 2.15.06.302-.665 1.258.142.873m1.8-3.591c-.574-.303.547-.33 0 0m2.116-3.97c-.574-.302.547-.33 0 0m5.825 7.503c2.014-.96-2.257-2.083-.76-.316.275.241.345.654.76.316m2.774.039c2.171-2.301-1.632.662 0 0m-14.42-.133c.574-.303-.547-.33 0 0m7.938 0c.573-.303-.548-.33 0 0m32.543-.01c-.072-.55-2.716-1.644-.329-.054.078.108.214.052.33.054m-41.804-.519c.574-.303-.547-.33 0 0m9.57-.088c.312-1.276-.71.384 0 0m-10.364-.177c.574-.302-.547-.33 0 0m17.066-.132c3.112-3.432-1.515.283 0 0m-17.595-.132c.574-.303-.547-.33 0 0m15.12-.273c1.852-.556-1.906-2.63-1.033-.563.344.184.592.656 1.032.563m25.89.008c.574-.303-.547-.33 0 0m-42.73-.265c1.578-.271-1.607-.313 0 0m27.385 0c.573-.303-.548-.33 0 0m14.817 0c.573-.303-.548-.33 0 0m-43.128-.264c.574-.303-.547-.33 0 0m-1.19-.307c2.094-.155-2.127-.205 0 0m22.266-.459c1.564-.6-.32-1.231-.371.345.198.628.253-.193.371-.345m-23.479.216c1.614-.306-1.534-.134 0 0m21.028-.509c1.592-.725-1.286-2.963-1.535-.839 1.25 1.431 1.09-.795 1.535.84m-3.543-.793c.573-.303-.548-.33 0 0m6.35 0c.573-.303-.548-.33 0 0m.76-1.058c.96-2.803-1.197 2.016 0 0m-2.719.116c1.52-.795.094-3.955-.69-1.893-.908 1.147-.715 1.803.69 1.893m.01-.646c-1.769-.873.7-1.16 0 0m-3.607.53c.573-.304-.548-.33 0 0m7.011-1.324c1.429-.71-1.32-.78 0 0m-2.066-1.069c1.391-.322-1.82-3.105.32-1.576 2.026-.584-.26-.97-.177-1.676 1.947 1.139.775-1.463 2.263-1.367.261-1.999-2.021.118-2.516 1.038-.474 1.207-2.468 2.957-.346 3.423.158.031.27.228.456.158m2.547-.253c1.812-1.905-.097-1.197 0 0m-5.905-.53c.574-.303-.547-.33 0 0m28.074-.529c.84-1.075 1.151-2.71 2.277-3.675-1.933-2.665-3.984-5.248-6.774-7.068-1.23-.683-2.884-3.128-3.341-.604-.188 1.123-2.344 2.899-.62 3.33 2.79 2.08 5.78 4.149 7.895 6.889.212.319.244.981.563 1.128m.237-1.323c-.574-.303.547-.33 0 0m1.058-1.852c-.574-.303.547-.33 0 0m-3.969-5.291c-.573-.303.548-.33 0 0m-2.91-2.382c-.574-.303.547-.33 0 0m-15.377 10.045c.642-1.04 1.952-2.328 1.55-3.562-.28 1.52-1.768 2.425-1.916 3.95zm-5.938-.52c.791-.77.359-.315 0 0m14.171-1.058c.574-.303-.547-.33 0 0m.24-.53c.724-.984 1.691-2.305 2.009-3.557-.705 1.084-1.733 2.607-2.008 3.558m15.37-1.322c.574-.303-.547-.33 0 0m-24.639-.342c1.52-1.276-1.965-.486-.02.007zm2.74.077c.95-.305 1.488-3.532.348-1.256.037.306-.888 1.35-.348 1.256m-11.438-1.323c.574-.303-.548-.33 0 0m9.6-.384c-.203-1.595-1.529-.636 0 0m-9.335-.145c.573-.303-.548-.329 0 0m31.75 0c.573-.303-.548-.329 0 0m1.025-.469c.354-1.162.177-3.12-.393-4.362-2.163-4.156-5.93-7.237-7.994-11.475-.847-.965-.66-2.943-1.639-3.538l-4.19 8.04c3.574 1.8 6.72 4.389 9.682 7.079 1.622 1.27 2.895 2.898 4.302 4.388l.224-.127zm-.32-1.277c-.611-.074-.065-1.71.197-.123zm-.705-.106c-.574-.303.547-.33 0 0m-.662-1.058c-1.577-.272 1.607-.313 0 0m1.19-.265c-.573-.303.548-.33 0 0m-2.116-.264c-.574-.303.548-.33 0 0m.794-2.646c-.574-.303.547-.33 0 0m-1.059-1.588c-.573-.303.548-.33 0 0m-2.613-3.175c-1.315-1.055-.651-1.292 0 0m-6.912-.264c-.573-.303.548-.33 0 0m-1.058-.794c-.573-.303.548-.33 0 0m.265-.53c-.574-.302.547-.33 0 0m.793-1.587c-.573-.303.548-.33 0 0m.265-.529c-.574-.303.548-.33 0 0m1.07-1.95c-1.335 2.525-.86.606.14-.795 1.168-2.16.623-.037-.14.794m2.37.892c-.574-.303.547-.33 0 0m-.22-.618c-.654.303.338-1.18 0 0m-.757-1.889c-.614-.009-.574-1.63 0 0m-15.988 17.323c1.03-.674-.037-.77 0 0m2.758-.125c-.242-1.471-.89-.365 0 0m3.179-.14c.558-1.258 1.76-2.265 1.771-3.664.59-1.61 2.223.544 3.304.705-1.107-.769-1.774-2.002-1.31-3.72-.067-1.558-1.167-2.28-1.489-3.098-1.34-.908-3.26-1.968-1.05-.172-.24.464-2.95-.636-1.698-1.956-1.661.27-1.008-1.003-2.91-1.384-1.663-1.306-.748 1.752-1.935 2.354-1.075 1.197-1.4 2.882.53 3.29 1.534.8 3.13 2.162 4.814 2.244 1.123-.323.452-2.38 1.832-2.931 1.606-.144.946 2.315.971 3.428-1.453-.268-1.281 1.38-1.973 2.469-.173.395-1.683 3.326-.857 2.436m1.238-8.995c-.574-.303.548-.33 0 0m-4.167 8.202c2.316-.659-1.456-2.795.156-1.317.912.181-.815 1.29-.156 1.317m8.4-1.852c.574-.303-.547-.33 0 0m.783-2.467c1.897-.508-1.843-2.988.32-2.372-.166-1.144-2.592-1.188-2.053.194-1.41.922 2.012.814 1.222 2.317-.44 1.105.053.299.511-.139m-15.864.086c.574-.303-.547-.33 0 0m20.918-1.323c.473-.357-1.296-1.073 0 0m-3.969-.53c.474-.356-1.295-1.072 0 0m.3-1.851c-.123-.712-1.85-1.06-.194-.09l.112.09zm-11.163-5.557c.573-.303-.548-.33 0 0m-.53-.264c.574-.303-.547-.33 0 0m-.529-.265c.574-.303-.547-.33 0 0m32.9-6.614c1.995-.63.194-1.938.384-1.474.275 2.358-1.937.185-1.137-1.211.582-1.658 3.367 2.033 1.863-.435-1.425-1.148-2.723.166-2.392 1.757.244.447.815 1.138 1.282 1.363m-71.641 98.16c-1.805-.71-.095-2.604.48-3.686 2.622-4.466 5.211-9.055 7.724-13.518.347-.755-1.447-2.694.482-3.433 1.375.027 1.403-.616 2.366-1.836 1.374-1.074 1.58-3.46 3.246-3.969 1.485.045 1.918 2.051 1.094 3.108-.931 1.635-2.368-.465-2.537-.26-.565 1.216-2.142 2.352-1.035 3.7-.043 1.772-1.309 2.173-1.7 2.517-1.651.3-.008 1.727-1.323 1.366-2.847 5.35-5.746 10.674-8.618 16.011zm9.67-17.727c.74-1.266-1.754-1.048 0 0m1.07-.617c.312-1.276-.71.384 0 0m.22-.706c.574-.303-.548-.33 0 0m3.556-4.498c2.024.153-1.248-3.015.024-.629-.417-.17-1.074.83-.024.63m-13.081 22.49c-.574-.303.547-.33 0 0m24.65-.353c-.653.303.34-1.18 0 0m-27.296-.176c-.573-.303.548-.33 0 0m23.784-.265c-.394-.708.925-1.13.104 0zm-23.501-.265c-.235-1.206 1.795-2.444.309-.403-.156.048-.072.489-.31.403m3.322-.723c-.99 1.094.726-1.779 0 0m.364-.864c-.574-.303.547-.33 0 0m-2.646-.265c-.574-.303.548-.33 0 0m2.88-.264c-.225-.89 1.089-.577 0 0m-2.13-1.063c-1.457 2.075.347-1.226.89-1.915 1.238-2.11 1.267-1.432.098.342-.287.551-.64 1.06-.987 1.573m23.9.71c-.653.303.34-1.18 0 0m-21.21-.441c-.574-.303.547-.33 0 0m.264-.53c-.573-.302.548-.33 0 0m21.431 0c-.574-.301.548-.33 0 0m-21.166-.528c-.574-.303.547-.33 0 0m21.446 0c-.27-1.411 1.374-1.473 0 0m-21.017-.723c-.99 1.094.726-1.78 0 0m.53-1.059c-.991 1.095.725-1.778 0 0m.332-.864c-.224-.889 1.09-.576 0 0m-2.35-.264c-.573-.303.548-.33 0 0m.254-.53c-.024-.384 1.774-3.908 1.52-2.712-.452.892-.884 2.05-1.52 2.712m2.803-.264c-1.093 1.126 1.72-3.41.69-1.174-.22.398-.412.811-.69 1.174m18.39-.265c-1.417-.982.439-.476 0 0m-.765-1.675c-.654.303.339-1.18 0 0m-16.448-.177c-.574-.303.547-.33 0 0m.262-.529c.325-1.75 1.467-2.136.12 0zm-2.422-.53c.425-.71 1.267-3.352 2.081-3.209-.71 1.032-1.292 2.321-2.081 3.21m20.724-1.675c-.653.303.34-1.18 0 0m-16.977-.176c-.574-.303.548-.33 0 0m.265-.53c-.574-.302.547-.33 0 0m.793-.793c-.573-.303.548-.33 0 0m15.61-.53c-.573-.302.548-.33 0 0m.31-.617c-.654.303.338-1.18 0 0m13.434-2.028c-1.7-.22 2.153-1.079 0 0m-31.503-1.059c-.156-.54 1.818-1.583 0 0m4.266 0c-.574-.302.548-.33 0 0m16.933-.264c-.573-.303.548-.33 0 0m10.848-.265c-.573-.303.548-.33 0 0M82.9 177.87c-.574-.303.547-.33 0 0m27.78-.265c-.573-.303.548-.33 0 0m3.97 0c-.574-.303.547-.33 0 0m.529-.264c-.574-.303.547-.33 0 0m-3.957-.353c-1.557-.498 1.52-.335 0 0m-27.925-.177c-1.577-.271 1.607-.313 0 0m16.668-.529c-1.04 1.11 1.01-2.377 0 0m16.008.265c-.574-.303.547-.33 0 0m-34.541-1.058c-1.341-.562-1.802-2.221-.444-3.147 1.257-1.023 2.173 1.638 1.562 2.475-.377.189-.695.64-1.118.672m.31-1.588c1.568-.539-1.988-.968-.048 0zm18.885 1.588c-.574-.303.547-.33 0 0m16.14-.53c-.574-.303.547-.33 0 0m-28.643-2.481c-.64 2.174-2.17-.22-3.323-.683-2.211.242-1.097.252-1.333-.353-2.057-.342.996-2.388-.351-3.182 1.687-.075 1.322-.426.18-2.032 1.482-.034 2.686 1.487 3.444-.595 1.753-1.349.19 1.356-.534 1.998-.41 1.844 2.593 2.126 2.644 3.757zm-.607-.45c.819-.592-2.292-.847-2.341-1.807-2.026-1.074-1.101.24.357.792.662.302 1.234 1.009 1.984 1.015m.674 1.608c-.573-.302.548-.33 0 0m29.37-.264c-.575-.303.547-.33 0 0m-13.495-.265c-.573-.303.548-.33 0 0m13.759-.264c-.574-.303.547-.33 0 0m-35.19-1.059c-.574-.303.548-.33 0 0m8.643-.688c-1.577.195-2.551-1.514-1.272-2.695 1.26-1.32 3.06 2.369.805 1.303-2.716-.766 1.474.664.467 1.392m-2.812-1.428c-1.152-.806-1.51-.717-.98-2.282.6-1.21.832-2.49 2.193-.918 1.257.568-.922 2.415-1.213 3.2m.122-1.985c1.146-1.628-1.351-.127 0 0m3.935.922c-1.766-.746-.177-1.04 0 0m8.633.004c-.574-.303.547-.33 0 0m.264-.529c-.573-.303.548-.33 0 0m19.183-.264c-1.577-.272 1.607-.313 0 0m-29.104-.265c-1.577-.272 1.607-.313 0 0m10.186 0c-.574-.303.548-.33 0 0m19.315-.53c-.574-.302.547-.33 0 0m-28.84-.264c-.574-.303.548-.33 0 0m.094-.529c-.023-1.111 1.954-2.111.268-.04l-.026.04zm3.853-2.931c-1.532-.255 1.623-.206 0 0m2.8.02c-1.577-.27 1.607-.312 0 0m1.455 0c-.573-.302.548-.33 0 0m-.529-.264c-.574-.303.547-.33 0 0m23.283 0c-.573-.303.548-.33 0 0m-22.754-.264c-.573-.303.548-.33 0 0m23.019-.265c-.574-.303.547-.33 0 0m.53-1.058c-.575-.303.547-.33 0 0m-30.296-.53c-1.428-.71 1.32-.78 0 0m-5.923-1.347c-2.03.633 1.011-2.447 0 0m6.289.29c-.224-.89 1.09-.577 0 0m.56-1.06c-.573-.302.548-.33 0 0m31.75-1.851c-.573-.303.548-.33 0 0m.53-1.059c-.574-.303.547-.33 0 0m-39.152-6.355c-1.444.806 1.035-1.52.007-.006zm-4.49-4.228c-1.417-.982.44-.476 0 0m49.056-3.301c-1.166-.068 2.223-2.907.87-1.335-.919.193-.276 1.038-.87 1.335m-54.362-4.637c-.574-.302.547-.33 0 0m.232-.529c-.156-.54 1.817-1.583 0 0m.826-1.058c-.574-.303.547-.33 0 0m55.871-.353c-.653.303.34-1.18 0 0m-.573-.705c-.574-.303.547-.33 0 0m-.53-.53c-.573-.302.548-.33 0 0m-.512-.264c-2.178-1.424 1.31-.533 0 0m-1.03-.882c-.654.303.338-1.18 0 0m-51.639-.441c-.573-.303.548-.33 0 0m1.059-2.117c-.574-.303.547-.33 0 0m1.587-2.91c-.573-.303.548-.33 0 0m.265-.53c-.574-.302.547-.33 0 0m.264-.528c-.573-.303.548-.33 0 0m1.059-1.852c-.574-.303.547-.33 0 0m50.504-.53c-.224-.889 1.09-.576 0 0m-49.975-.264c-.574-.303.547-.33 0 0m.53-1.059c-.575-.302.547-.33 0 0m1.057-1.852c-.573-.303.548-.33 0 0m.265-.529c-.574-.303.547-.33 0 0m48.683 0c-.573-.303.548-.33 0 0m-48.418-.529c-.574-.303.547-.33 0 0m48.198-.088c-.654.303.339-1.18 0 0m-47.67-.97c-.573-.303.548-.33 0 0m47.361-.265c-.573-.303.548-.33 0 0m-46.302-1.587c-.574-.303.548-.33 0 0m45.773-.265c-.574-.303.547-.33 0 0m-45.244-.53c-.573-.302.548-.33 0 0m.265-.528c-.574-.303.547-.33 0 0m44.185 0c-.573-.303.548-.33 0 0m-43.92-.53c-.574-.302.547-.33 0 0m43.656 0c-.574-.302.547-.33 0 0m-.53-.529c-.573-.303.548-.33 0 0m-.264-.529c-.574-.303.547-.33 0 0m-.794-1.058c-.573-.303.548-.33 0 0m-.513-.265c-1.285-.81.732-.713 0 0m-27.004-.264c-.573-.303.548-.33 0 0m26.459-.53c-.574-.302.547-.33 0 0m-.397-.529c-1.577-.271 1.607-.313 0 0m-.132-.529c-.574-.303.547-.33 0 0m-.53-.264c-.573-.303.548-.33 0 0m-23.018-.53c-.574-.302.547-.33 0 0m11.335-.074c-1.717.205 1.154-1.623.344-.355.117.313-.172.285-.344.355m-1.546-.72c-.573-.302.548-.33 0 0m12.436 0c-.574-.302.547-.33 0 0m-12.965-.264c-.573-.303.548-.33 0 0m-.529-.264c-.574-.303.547-.33 0 0m3.175 0c-.574-.303.547-.33 0 0m10.054 0c-.573-.303.548-.33 0 0m-13.708-.265c-2.048-1.14-.448-.943 0 0m13.179 0c-.574-.303.547-.33 0 0m-30.692-.53c-.573-.302.548-.33 0 0m9.525 0c-.573-.302.548-.33 0 0m-10.01-.352c-.653.303.34-1.18 0 0m16.625.088c-.574-.303.547-.33 0 0m-17.198-.264c-.574-.303.547-.33 0 0m16.72 0c-2.049-1.141-.45-.944 0 0m6.343-.089c-.654.303.339-1.18 0 0m8.158-.176c-.574-.303.547-.33 0 0m-23.284-.265c-.573-.302.548-.33 0 0m-11.377-.264c-.573-.303.548-.33 0 0m18.786 0c-.574-.303.547-.33 0 0m-.448-.269c-1.696-.556-.069-.883 0 0m15.794.004c-.574-.303.547-.33 0 0m-16.956-.804c-1.984-.604-1.893-1.425.022-.187.069.093.493.331-.022.187m10.313-.254c-.395-.708.924-1.13.104 0zm5.987-.265c-1.366-1.926.269-1.577 0 0m-29.27-.264c-.395-.708.924-1.13.103 0zm10.876-.265c-.574-.303.547-.33 0 0m-.53-.264c-.573-.303.548-.33 0 0m13.463 0c-.224-.89 1.09-.577 0 0m-13.992-.296c-2.067-.4-1.797-1.33.05-.112.459.175.118.119-.05.112m-8.996-.498c-.573-.303.548-.33 0 0m23.548 0c-.573-.303.548-.33 0 0m-16.668-.265c-.574-.303.547-.33 0 0m20.902 0c-.574-.303.547-.33 0 0m-21.432-.264c-.573-.303.548-.33 0 0m17.463 0c-.574-.303.547-.33 0 0m.233-.53c-.224-.888 1.09-.576 0 0m19.082-.464c-2.751-.064 2.405-.71 0 0m-39.423-.065c-.574-.303.547-.33 0 0m23.84-.071c-.355.179-.087-1.55.16-.16zm-2.682-.606c-1.481 1.518 1.405-2.537 0 0m-22.746.148c-.573-.303.548-.33 0 0m39.423 0c-.574-.303.548-.33 0 0m-13.163-1.276c-1.63 1.84.11-1.166 1.103-1.36 2.928-.815-.804.345-1.103 1.36m11.443.747c-1.577-.272 1.608-.313 0 0m-14.42-.794c-.573-.303.548-.33 0 0m.922-1.539c-1.517 2.166-.417-.448.703-1.037 1.187-1.664 2.828-1.11.4-.218-.54.202-.727.857-1.103 1.255m11.048.903c-.673-1.22-2.753-.719-4.15-.969-2.293-.124-2.968-.207-.279-.205 1.392.09 3.441-.383 4.356.69-.07.14.32.38.073.484m8.139-2.274c-.574-.303.547-.33 0 0m-.53-.265c-.573-.303.548-.33 0 0m-.793-.264c-.574-.303.547-.33 0 0m-14.817-.265c-.573-.303.548-.33 0 0m13.23 0c-.574-.303.547-.33 0 0m-12.7-.265c-.574-.302.547-.33 0 0m.529 0c-.574-.302.547-.33 0 0m7.276 0c-1.577-.271 1.607-.312 0 0m3.704 0c-1.577-.271 1.607-.313 0 0m-10.187-.264c-.573-.303.548-.33 0 0m.662 0c-1.577-.272 1.607-.313 0 0m4.498-.042c-2.095-.155 2.127-.205 0 0m4.365.042c-.573-.303.548-.33 0 0m-.529-.265c-.573-.303.548-.33 0 0" style="fill:#000" transform="translate(-69.237 -95.346)"/></svg>