<?xml version="1.0" encoding="UTF-8" standalone="no"?>
<!-- Created with Inkscape (http://www.inkscape.org/) -->

<svg
   width="102.27565mm"
   height="149.43158mm"
   viewBox="0 0 102.27565 149.43158"
   version="1.1"
   id="svg1"
   xml:space="preserve"
   xmlns="http://www.w3.org/2000/svg"
   xmlns:svg="http://www.w3.org/2000/svg"><defs
     id="defs1" /><g
     id="layer1"
     transform="translate(-53.360532,-73.388288)"><path
       style="fill:#000000"
       d="m 96.656981,222.73156 -5.291666,0.0883 -1.253229,-0.22813 -1.253229,-0.22812 -1.392604,-0.45165 -1.392604,-0.45166 -1.504604,-0.78934 -1.504604,-0.78935 -1.303879,-1.29026 -1.30388,-1.29025 0.121681,-0.63654 0.121681,-0.63653 -0.316157,-0.59075 -0.316157,-0.59074 0.29018,0.17934 0.290181,0.17934 -0.280336,-0.73734 -0.280336,-0.73734 -0.217289,-0.13767 -0.217289,-0.13768 -0.668989,-2.123 -0.66899,-2.12299 -0.20851,-1.05201 -0.208511,-1.052 0.0707,-0.35728 0.0707,-0.35728 -0.282279,0.17446 -0.282279,0.17445 V 206.19478 205.65 l 0.0226,-0.16886 0.0226,-0.16885 -0.342365,-0.21159 -0.342365,-0.2116 0.06347,-0.94247 0.06347,-0.94246 h -0.288486 -0.288486 l 0.152222,-0.2463 0.152222,-0.2463 -0.273215,-0.16886 -0.273215,-0.16886 0.152223,-0.2463 0.152222,-0.2463 h -0.271894 -0.271894 l 0.152295,-0.39687 0.152295,-0.39688 h -0.284587 -0.284587 l 0.152295,-0.39687 0.152296,-0.39688 h -0.256507 -0.256507 l 0.07063,-0.64346 0.07063,-0.64345 -0.415004,0.15925 -0.415005,0.15925 0.187931,-0.30407 0.187931,-0.30408 -0.304136,-0.56829 -0.304136,-0.56828 0.321839,-0.19891 0.321838,-0.1989 -0.239225,-0.0982 -0.239225,-0.0982 -0.861273,-1.53901 -0.861272,-1.53901 0.16185,-0.57766 0.16185,-0.57765 -0.234505,0.33577 -0.234504,0.33578 -0.356704,-0.66651 -0.356703,-0.6665 h -0.204683 -0.204682 l 0.110026,-0.57132 0.110025,-0.57132 -0.3653,-0.28858 -0.3653,-0.28857 -2.236935,-6.4823 -2.236934,-6.48229 -0.718724,-2.45131 -0.718724,-2.45132 0.103087,-0.30926 0.103087,-0.30926 1.22693,3.15745 1.226931,3.15745 1.439819,3.96875 1.439819,3.96875 0.54756,1.71979 0.547561,1.7198 0.428703,1.18976 0.428702,1.18977 0.113856,0.11386 0.113856,0.11385 -0.172278,-0.90675 -0.172278,-0.90674 -0.181036,-0.26459 -0.181036,-0.26458 -1.001477,-3.175 -1.001476,-3.175 -0.927516,-2.77813 -0.927515,-2.77812 -0.601729,-2.16785 -0.60173,-2.16786 0.161638,-0.16163 0.161638,-0.16164 -0.322989,-0.19962 -0.322989,-0.19962 -0.0439,-1.12038 -0.0439,-1.12038 -0.22076,-0.13644 -0.22076,-0.13644 v -0.89259 -0.8926 l -0.564125,-0.17905 -0.564126,-0.17904 0.346097,-0.2139 0.346096,-0.2139 0.08654,-0.56704 0.08653,-0.56703 -0.226692,0.1401 -0.226692,0.14011 -0.304398,-0.66808 -0.304398,-0.66809 -0.291706,0.18029 -0.291705,0.18028 0.303084,0.18732 0.303085,0.18732 -0.268288,0.70565 -0.268289,0.70565 h -0.15667 -0.15667 l 0.167951,-0.52917 0.167951,-0.52916 -0.348558,10e-6 -0.348559,2e-5 0.0204,-1.0431 0.0204,-1.0431 -0.152687,0.0161 -0.152687,0.0161 -0.207746,-0.0313 -0.207747,-0.0313 0.271779,-0.50782 0.271778,-0.50783 -0.328615,-0.13274 -0.328615,-0.13275 0.330729,-0.0209 0.330729,-0.0209 v -0.51355 -0.51355 l -0.261553,-0.16165 -0.261552,-0.16165 0.157568,0.41062 0.157569,0.41062 h -0.323735 -0.323736 l 0.126446,-0.66146 0.126446,-0.66146 h -0.21145 -0.211449 l 0.02008,-0.46302 0.02008,-0.46302 -0.697982,-3.56372 -0.697981,-3.56372 v -0.60347 -0.60347 H 61.136094 60.93708 l -0.03832,-0.7276 -0.03832,-0.7276 -0.133872,-0.52917 -0.133872,-0.52917 -0.572378,-2.51354 -0.572378,-2.51354 -0.290617,-0.79375 -0.290617,-0.79375 -0.370535,-0.43676 -0.370535,-0.43675 0.306947,-0.1897 0.306946,-0.18971 -0.752732,-0.49627 -0.752731,-0.49628 0.332971,-0.002 0.332971,-0.002 -0.33047,-0.52917 -0.33047,-0.52916 h -0.216554 -0.216553 l 0.161648,0.26155 0.161649,0.26155 -0.410617,-0.15757 -0.410617,-0.15757 4.5e-5,0.62362 4.6e-5,0.62362 0.404742,2.11667 0.404743,2.11667 0.27406,1.01889 0.27406,1.0189 -0.122295,0.12229 -0.122296,0.1223 -0.809531,-2.46411 -0.809531,-2.46411 -0.51984,-2.11666 -0.519839,-2.11667 -0.41717,-2.51354 -0.41717,-2.51354 -0.283759,-3.43959 -0.28376,-3.43958 0.17034,-2.91042 0.170341,-2.91041 0.25316,-1.71979 0.253159,-1.7198 0.811021,-2.63651 0.811021,-2.63652 0.537731,-1.14397 0.537731,-1.14397 0.101844,0.10184 0.101843,0.10184 -0.411496,0.98485 -0.411495,0.98485 -0.782603,3.27471 -0.782602,3.27471 0.02089,0.87429 0.02089,0.8743 0.149392,-0.39687 0.149393,-0.39688 0.194897,-0.52917 0.194897,-0.52916 0.06663,-0.26459 0.06663,-0.26458 0.494229,-0.92212 0.494228,-0.92213 v -0.2185 -0.21851 l 1.06744,-2.2678 1.067439,-2.2678 -0.140226,-0.14022 -0.140226,-0.14023 0.99952,-0.4475 0.99952,-0.44749 0.388371,-0.37644 0.388371,-0.37643 1.653645,-0.64992 1.653646,-0.64992 v -0.20301 -0.20302 h 0.280198 0.280198 l -0.163521,0.26458 -0.163521,0.26459 h 0.280198 0.280198 v -0.34998 -0.34998 l 1.163158,-0.58091 1.163157,-0.5809 0.175103,-0.69767 0.175102,-0.69766 -0.340807,-0.21063 -0.340806,-0.21063 -2.783391,0.0643 -2.783391,0.0643 -0.727604,-0.26748 -0.727604,-0.26748 v -0.20657 -0.20658 h -0.409648 -0.409647 l -0.349521,-0.83127 -0.349522,-0.83126 0.128569,-0.49165 0.12857,-0.49165 0.29987,-0.0313 0.299871,-0.0313 0.198437,0.0313 0.198438,0.0313 v -0.24133 -0.24133 l 1.124479,-0.206058 1.124479,-0.20606 0.176389,-0.01563 0.176389,-0.01563 0.138956,-0.138956 0.138956,-0.138956 -0.734407,-2.903752 -0.734406,-2.903752 -0.18326,-0.407517 -0.183259,-0.407517 0.734612,-0.801062 0.734613,-0.801063 0.859896,-0.344874 0.859896,-0.344874 6.28e-4,-0.166339 6.29e-4,-0.166338 1.388434,-0.698312 1.388434,-0.698312 0.47979,-0.159715 0.479791,-0.159715 -0.147233,-0.238228 -0.147233,-0.238228 0.692408,-0.173783 0.692407,-0.173784 1.75316,-0.842302 1.753159,-0.842301 0.161873,-0.225362 0.161873,-0.225362 0.168856,0.0226 0.168857,0.0226 0.06614,-0.01966 0.06615,-0.01966 0.609398,-0.11312 0.609399,-0.113119 0.787434,-0.407199 0.787434,-0.407198 0.253783,0.156846 0.253782,0.156847 -0.178799,-0.476763 -0.178799,-0.476763 0.492296,0.396875 0.492296,0.396875 -0.153404,-0.595312 -0.153405,-0.595313 h 0.24834 0.248339 l 0.211457,0.571624 0.211458,0.571624 0.17775,-0.463209 0.177749,-0.463209 -0.148765,-0.240706 -0.148765,-0.240707 h 0.280199 0.280198 v 0.280198 0.280198 l 0.282621,-0.174669 0.282621,-0.174669 -0.142026,-0.370113 -0.142025,-0.370112 h 0.240665 0.240664 l 0.163522,0.264584 0.163521,0.264583 h 0.645843 0.645844 v -0.38126 -0.38126 l -0.264583,-0.163522 -0.264584,-0.163521 0.02089,-0.315115 0.02089,-0.315114 0.133452,0.330729 0.133452,0.330729 h 0.258149 0.25815 l -0.150688,-0.243817 -0.150687,-0.243817 0.77689,-0.387564 0.77689,-0.387564 0.326445,0.78811 0.326446,0.788109 -0.37295,0.236095 -0.372951,0.236095 0.4524,0.0041 0.4524,0.0041 0.319629,1.066825 0.319628,1.066825 -0.242862,0.231418 -0.242862,0.231418 -1.972699,0.581266 -1.9727,0.581266 -1.466883,0.663966 -1.466884,0.663966 0.29646,0.112984 0.29646,0.112983 1.820206,-0.688635 1.820207,-0.688635 1.984375,-0.500715 1.984375,-0.500715 3.412347,-0.923935 3.412347,-0.923936 0.29182,-0.297312 0.291819,-0.297313 -0.661458,0.149289 -0.661459,0.149289 -2.409767,0.523135 -2.409767,0.523134 -0.743281,0.282594 -0.74328,0.282595 -0.189896,-0.307258 -0.189896,-0.307258 -0.46855,-1.730963 -0.468549,-1.730962 0.524491,-0.424708 0.524491,-0.424707 -0.108484,-0.325451 -0.108484,-0.325451 0.286632,-0.03307 0.286632,-0.03307 0.242535,-0.03307 0.242535,-0.03307 0.184666,-0.184667 0.184667,-0.184666 0.697278,0.444682 0.697278,0.444683 -0.396875,-0.507992 -0.396875,-0.507992 0.508013,0.190792 0.508013,0.190791 0.202515,-0.327676 0.202515,-0.327676 1.075409,0.0063 1.075409,0.0063 v -0.381421 -0.381422 l 0.417041,0.346113 0.41704,0.346112 0.21239,-0.343654 0.21239,-0.343654 0.09817,0.268863 0.09817,0.268864 2.38125,-0.519941 2.381249,-0.519941 2.513542,-0.390524 2.513541,-0.390523 0.51698,-0.0023 0.51697,-0.0023 0.27678,-0.191556 0.27677,-0.191555 1.32292,0.137789 1.32292,0.137789 -0.52917,0.29691 -0.52917,0.296911 -1.32291,0.184044 -1.32292,0.184044 -0.92604,0.241595 -0.926046,0.241595 -2.38125,0.56346 -2.38125,0.563459 -2.778125,0.794681 -2.778125,0.794681 -0.264583,0.04342 -0.264583,0.04342 -0.28685,0.179493 -0.28685,0.179493 -0.903775,0.158475 -0.903775,0.158475 -0.230678,0.229229 -0.230679,0.229228 -0.337871,-0.129654 -0.337872,-0.129653 -0.198378,0.320982 -0.198378,0.320983 0.634636,-0.14835 0.634637,-0.14835 3.174999,-0.912415 3.175,-0.912416 6.1639,-1.403205 6.163906,-1.403205 0.45068,0.458783 0.45068,0.458783 -0.38116,-0.08369 -0.38116,-0.0837 -0.11237,0.520745 -0.11238,0.520744 0.43378,-0.36001 0.43379,-0.360011 0.0685,0.10385 0.0685,0.103849 0.38815,0.51381 0.38815,0.513809 -0.33072,-0.198695 -0.33073,-0.198696 v 0.224255 0.224254 l 0.52916,1.037929 0.52917,1.03793 v 0.750945 0.750946 l 0.395,0.76385 0.395,0.763851 -0.15872,0.413635 -0.15873,0.413635 h 0.30851 0.3085 l -0.1665,0.269409 -0.16651,0.269408 0.61023,0.987363 0.61022,0.987362 -0.10979,0.132292 -0.10979,0.132291 0.46976,0.09047 0.46975,0.09047 -0.14847,-0.487341 -0.14847,-0.487342 -0.70112,-3.175 -0.70112,-3.175 -0.24384,-1.426558 -0.24384,-1.426558 0.0825,-0.247613 0.0825,-0.247614 1.0028,3.790838 1.00281,3.790839 0.37686,1.354837 0.37686,1.354838 1.11028,0.177541 1.11028,0.177542 0.81477,0.38663 0.81476,0.386629 0.01,1.255991 0.01,1.255992 -0.67533,0.528512 -0.67533,0.528513 -0.59531,0.511389 -0.59531,0.511388 0.004,0.283016 0.004,0.283015 0.26016,-0.396875 0.26017,-0.396875 -0.165,0.859896 -0.16499,0.859896 h 0.29765 0.29766 v 0.661458 0.661458 h 0.27311 0.27311 l 0.23928,-0.595312 0.23929,-0.595313 0.0481,0.529167 0.0481,0.529167 -0.033,0.203362 -0.033,0.203362 0.6631,0.302128 0.6631,0.302129 v 0.222113 0.222114 h 0.52917 0.52916 v 0.264583 0.264584 h 0.52917 0.52917 v 0.264583 0.264583 h 0.47625 0.47625 l 0.25135,0.223329 0.25135,0.223328 1.5875,0.620134 1.5875,0.62012 0.16188,0.23748 0.16187,0.23747 0.10271,-0.0617 0.10271,-0.0617 1.12448,0.57367 1.12448,0.57366 0.004,-0.20381 0.004,-0.20382 0.19439,0.26459 0.19438,0.26458 0.50634,0.39688 0.50634,0.39687 -0.34847,-0.66146 -0.34846,-0.66146 -1.14907,-1.49997 -1.14907,-1.499965 -1.39005,-1.230799 -1.39006,-1.2308 1.02844,0.595477 1.02843,0.595477 1.56279,1.446863 1.56278,1.446867 1.97284,2.70711 1.97285,2.70712 v 0.29642 0.29641 h 0.2802 0.28019 l -0.14499,0.23461 -0.14499,0.2346 0.35216,0.29227 0.35216,0.29227 0.1956,-0.1956 0.1956,-0.1956 -0.18248,0.72706 -0.18248,0.72706 h 0.29326 0.29327 v 0.427 0.42699 l 0.59531,1.09436 0.59531,1.09436 0.26459,0.19438 0.26458,0.19439 -0.18373,0.004 -0.18374,0.004 0.80805,2.18282 0.80804,2.18281 0.60242,1.6677 0.60241,1.66769 0.16234,0.16234 0.16233,0.16234 v 0.59816 0.59815 l -0.69501,0.5467 -0.69501,0.54669 -2.48315,0.79543 -2.48315,0.79542 h -0.26142 -0.26142 v -0.38126 -0.38126 l -0.24732,-0.15285 -0.24733,-0.15285 -1.21247,0.58906 -1.21247,0.58907 0.0549,0.81497 0.0549,0.81497 -0.20745,0.33566 -0.20745,0.33566 -1.382,0.63214 -1.382,0.63214 -2.01323,0.67582 -2.01323,0.67582 h -0.78085 -0.78084 l -0.32938,-0.39688 -0.32938,-0.39687 h -0.2478 -0.2478 l 0.18879,0.30546 0.18878,0.30546 -0.29999,-0.1854 -0.3,-0.18541 -0.50142,0.26835 -0.50142,0.26835 -2.22372,0.64441 -2.22372,0.64441 -0.73238,-0.14 -0.73239,-0.14001 0.0524,-0.69437 0.0524,-0.69438 -0.0399,-0.7276 -0.0399,-0.72761 -0.33073,0.006 -0.33073,0.006 -1.54972,0.75632 -1.54971,0.75632 0.2268,0.12043 0.2268,0.12043 -0.28104,-0.0616 -0.28103,-0.0616 -3.02626,1.05158 -3.026259,1.05158 -0.529167,0.12072 -0.529167,0.12073 -1.280285,0.16288 -1.280286,0.16287 -0.137084,0.35724 -0.137084,0.35724 h -0.191139 -0.191138 l 0.02101,-0.59532 0.02101,-0.59531 -0.529166,0.0806 -0.529167,0.0806 -2.080725,0.66066 -2.080725,0.66066 -0.620025,0.40626 -0.620025,0.40625 0.121599,0.70454 0.1216,0.70453 0.509982,3.30729 0.509983,3.30729 0.175767,1.38906 0.175767,1.38907 h -0.453271 -0.45327 l -7.046036,1.86272 -7.046036,1.86271 -3.734975,1.17645 -3.734975,1.17645 -0.332318,0.40041 -0.332317,0.40042 h 0.250637 0.250638 l 1.964572,-0.67058 1.964571,-0.67057 4.233333,-1.15372 4.233333,-1.15372 3.571875,-0.85855 3.571875,-0.85855 0.661458,-0.10191 0.661458,-0.1019 1.088609,-0.11457 1.088608,-0.11457 0.151745,1.37797 0.151745,1.37796 0.176455,0.83327 0.176455,0.83326 -0.623058,0.21206 -0.623059,0.21207 -0.132291,0.0359 -0.132292,0.0359 -0.396875,0.16794 -0.396875,0.16794 -0.661458,0.13346 -0.661458,0.13347 -6.70326,1.72385 -6.70326,1.72385 -1.187577,0.52533 -1.187578,0.52532 0.157389,0.25466 0.157389,0.25466 1.47021,-0.50583 1.47021,-0.50582 5.866363,-1.44051 5.866364,-1.44051 2.187602,-0.45804 2.187602,-0.45804 0.113753,0.11375 0.113753,0.11375 0.385413,1.84379 0.385413,1.84378 -0.173227,0.17232 -0.173226,0.17232 -2.527021,0.68152 -2.527021,0.68151 -3.293829,1.05302 -3.293829,1.05302 -0.52915,0.42561 -0.52915,0.42561 0.661459,-0.11894 0.661458,-0.11895 3.439583,-1.07776 3.439583,-1.07776 2.442857,-0.65244 2.442857,-0.65244 0.256806,0.97189 0.256807,0.97189 1.866034,7.67292 1.866034,7.67291 0.289776,1.05834 0.289775,1.05833 0.485169,1.45521 0.485168,1.45521 1.445844,5.02708 1.445848,5.02708 0.7172,2.24896 0.7172,2.24896 0.77327,2.38125 0.77327,2.38125 0.41416,1.13529 0.41416,1.13529 0.30471,-0.23395 0.30472,-0.23394 2.91042,-0.98216 2.91041,-0.98216 0.52917,-0.24228 0.52917,-0.24229 2.91041,-1.22248 2.91042,-1.22248 0.79375,-0.35451 0.79375,-0.3545 4.10104,-1.61799 4.10104,-1.61799 0.70183,-0.0538 0.70182,-0.0538 -0.14788,-0.24012 -0.14789,-0.24011 0.57054,0.1492 0.57054,0.1492 v -0.20772 -0.20771 l 0.8599,-0.33637 0.85989,-0.33638 0.79375,-0.34447 0.79375,-0.34448 1.98438,-0.77859 1.98437,-0.77859 1.5875,-0.72098 1.5875,-0.72098 1.98438,-0.92893 1.98437,-0.92893 1.67831,-0.75921 1.67831,-0.75921 h 0.18322 0.18323 v 0.53572 0.53572 l -0.32671,-0.12537 -0.3267,-0.12537 0.15776,0.44955 0.15776,0.44955 -0.35645,-0.33073 -0.35644,-0.33073 h -0.22097 -0.22098 l 0.30029,0.56109 0.30029,0.5611 -0.33184,-0.20509 -0.33184,-0.20509 -0.63497,-0.0697 -0.63497,-0.0697 0.31135,0.37515 0.31135,0.37515 0.43063,0.0209 0.43062,0.0209 -0.33238,0.134 -0.33237,0.134 0.13602,0.22009 0.13602,0.22008 0.92751,-0.2561 0.92752,-0.2561 0.27907,0.17247 0.27906,0.17248 -0.1251,0.32601 -0.12511,0.32602 h 0.36002 0.36001 l -0.13627,-0.22049 -0.13627,-0.22049 0.34634,-0.0218 0.34635,-0.0218 0.73777,-0.12095 0.73776,-0.12094 0.6574,-0.24995 0.6574,-0.24994 -0.12241,-0.59954 -0.1224,-0.59954 -0.15699,-1.38599 -0.15698,-1.38598 -1.29911,-5.2286 -1.2991,-5.2286 -1.31678,-4.23333 -1.31678,-4.23333 -1.18096,-3.83646 -1.18095,-3.83646 -0.68448,-2.51354 -0.68448,-2.51354 -0.68728,-3.57188 -0.68728,-3.57188 -1.57427,-6.33342 -1.57427,-6.33342 -0.92528,-3.48728 -0.92528,-3.48727 -0.13354,-1.55639 -0.13353,-1.55638 -0.15186,-1.19063 -0.15186,-1.19062 0.12881,0.13229 0.1288,0.13229 1.50256,5.52228 1.50256,5.52227 0.88636,3.87043 0.88636,3.87044 0.41855,2.2179 0.41856,2.21791 0.65344,4.17759 0.65344,4.17759 1.03435,2.73263 1.03436,2.73263 1.07655,3.32323 1.07654,3.32322 1.44585,5.01115 1.44586,5.01115 0.83981,3.57187 0.83982,3.57188 1.94087,9.66716 1.94087,9.66715 0.17928,1.57764 0.17928,1.57763 0.0269,0.13229 0.0269,0.1323 -0.47313,0.88901 -0.47313,0.88902 0.28341,-0.17515 0.28341,-0.17516 -0.16754,0.47676 -0.16753,0.47677 -0.82162,0.88682 -0.82163,0.88683 -3.57187,2.69528 -3.57188,2.69527 -2.40679,1.48776 -2.40678,1.48775 -2.09113,1.04674 -2.09113,1.04673 -3.175,1.20116 -3.175,1.20116 -3.50573,0.84889 -3.50573,0.84888 v 0.16774 0.16774 l -0.7276,0.0167 -0.72761,0.0167 -2.11666,0.47113 -2.11667,0.47113 -0.79375,0.12409 -0.79375,0.12408 -0.66146,0.13928 -0.66146,0.13928 -2.11666,0.35855 -2.11667,0.35855 -4.49792,0.44156 -4.49791,0.44157 z m 0.844281,-0.44374 5.077618,0.0309 0.16352,-0.26458 0.16352,-0.26459 -2.46301,-0.002 -2.463012,-0.002 -3.005755,-0.26605 -3.005755,-0.26604 -2.006678,-0.41449 -2.006678,-0.4145 -2.353975,-0.94216 -2.353974,-0.94216 -0.780704,-0.65692 -0.780704,-0.65692 -0.172564,0.17257 -0.172564,0.17256 0.514468,0.50663 0.514467,0.50663 1.5875,0.95061 1.5875,0.95061 2.088262,0.65968 2.088262,0.65969 1.351321,0.22604 1.351321,0.22605 z m -16.71928,-4.99615 h 0.132292 v -0.13229 -0.1323 h -0.132292 -0.132291 v 0.1323 0.13229 z m -0.749653,-4.05695 0.176389,-0.17639 -0.176389,-0.17638 -0.176388,-0.17639 v 0.35277 0.35278 z m -0.264583,-0.79375 0.176389,-0.17639 -0.176389,-0.17638 -0.176389,-0.17639 v 0.35277 0.35278 z m -0.194858,-0.70555 h 0.246114 l -0.229048,-0.79865 -0.229049,-0.79864 -0.01707,-0.1274 -0.01707,-0.1274 v -0.26458 -0.26458 h -0.280198 -0.280199 l 0.20706,0.33073 0.207059,0.33073 0.03284,0.26458 0.03284,0.26458 0.0403,0.59531 0.0403,0.59532 z m -1.172156,-3.96875 h 0.132292 v -0.13229 -0.1323 h -0.132292 -0.132291 v 0.1323 0.13229 z m -2.866319,-9.6132 0.176389,-0.17639 -0.176389,-0.17638 -0.176389,-0.17639 v 0.35277 0.35278 z m -1.852083,-3.70416 0.176389,-0.17639 -0.176389,-0.17639 -0.176389,-0.17639 v 0.35278 0.35278 z m 51.28507,0.0882 h 0.13229 v -0.13229 -0.13229 h -0.13229 -0.1323 v 0.13229 0.13229 z m 2.91041,0 h 0.13229 v -0.13229 -0.13229 h -0.13229 -0.13229 v 0.13229 0.13229 z m 2.64584,0 h 0.13229 v -0.13229 -0.13229 h -0.13229 -0.1323 v 0.13229 0.13229 z m -1.54341,-0.35278 0.17639,-0.17639 -0.17639,-0.17638 -0.17639,-0.17639 v 0.35277 0.35278 z m 0.88195,0.0882 h 0.35278 l -0.17639,-0.17639 -0.17639,-0.17639 -0.17639,0.17639 -0.17639,0.17639 z m 1.34124,-0.33595 0.51084,0.0385 v -0.0875 -0.0875 l -0.3884,-0.14905 -0.3884,-0.14904 -0.12244,0.1981 -0.12243,0.19811 z m -0.95657,-0.19322 h 0.0319 l 0.0399,-0.52917 0.0399,-0.52916 h -0.24814 -0.24814 v 0.35278 0.35277 l 0.17639,0.17639 0.17639,0.17639 z m -1.00203,-0.35278 0.17639,-0.17639 -0.17639,-0.17638 -0.17639,-0.17639 v 0.35277 0.35278 z m 3.01466,0.0443 0.60396,-0.0884 0.10198,-0.30991 0.10198,-0.30991 -0.5484,0.1434 -0.5484,0.14341 -0.15754,0.2549 -0.15753,0.2549 z m -3.85251,-0.22069 h 0.13229 v -0.1323 -0.13229 h -0.13229 -0.13229 v 0.13229 0.13229 z m 2.51354,0 h 0.35278 l -0.17639,-0.17638 -0.17639,-0.17639 -0.17639,0.17639 -0.17639,0.17638 z m 2.8948,-0.26458 h 0.24897 l 0.16352,-0.26458 0.16352,-0.26459 h -0.41249 -0.41249 v 0.26459 0.26458 z m 1.23693,-0.29005 0.35507,-0.29468 -0.24664,-0.46085 -0.24664,-0.46085 0.29634,-0.29634 0.29634,-0.29634 -0.48242,-1.06981 -0.48241,-1.06981 -0.12553,0.12553 -0.12553,0.12553 0.4512,0.95082 0.45119,0.95082 -0.33559,0.40437 -0.33559,0.40436 -0.74243,-0.14849 -0.74242,-0.14848 v 0.22712 0.22713 l 0.64783,0.12384 0.64784,0.12384 0.31136,-0.29143 0.31137,-0.29144 -0.1292,0.72992 -0.12921,0.72992 z m -3.20569,-0.0195 0.52917,0.008 0.52917,-0.22739 0.52916,-0.22739 -0.39687,0.008 -0.39688,0.008 -0.66146,0.21183 -0.66145,0.21184 z m -3.175,-0.21962 h 0.13229 v -0.13229 -0.13229 h -0.13229 -0.13229 v 0.13229 0.13229 z m 2.16077,-0.0882 0.17639,-0.17639 -0.17639,-0.17639 -0.17639,-0.17639 v 0.35278 0.35278 z m 5.32928,-0.52783 0.0974,-0.48373 -0.15568,-0.15568 -0.15568,-0.15568 -0.13852,0.13852 -0.13851,0.13852 0.19684,0.50089 0.19685,0.50089 z m -9.07755,0.0869 h 0.13229 v -0.13229 -0.1323 h -0.13229 -0.13229 v 0.1323 0.13229 z m 2.76251,0 h 0.54478 v -0.10399 -0.10398 l -0.3884,-0.14904 -0.3884,-0.14905 -0.15638,0.25303 -0.15638,0.25303 z m 1.97794,-0.0209 0.50712,0.0209 -0.15985,-0.15986 -0.15985,-0.15985 -0.34727,0.13897 -0.34726,0.13896 z m -2.88836,-0.2437 h 0.13229 v -0.13229 -0.13229 h -0.13229 -0.1323 v 0.13229 0.13229 z m 2.08427,-0.26458 h 0.36447 l 0.33869,-0.40809 0.33868,-0.40809 -0.30629,-0.30628 -0.30628,-0.30629 v -0.20336 -0.20337 l 0.46302,0.16293 0.46302,0.16293 -0.30768,-0.33338 -0.30767,-0.33339 -0.2984,0.18442 -0.2984,0.18442 0.1613,0.5082 0.16129,0.50821 -0.41511,0.15929 -0.41512,0.1593 v 0.23627 0.23628 z m 1.4876,0 h 0.35278 l -0.17639,-0.17639 -0.17639,-0.17639 -0.17639,0.17639 -0.17639,0.17639 z m 1.70553,-0.16343 0.36567,-0.14032 -0.41247,-1.23719 -0.41246,-1.23718 -0.11381,-0.13009 -0.11381,-0.13009 -0.261,0.46638 -0.26101,0.46638 -0.19422,-0.12003 -0.19422,-0.12004 0.0441,0.70979 0.0441,0.70978 0.0341,0.19844 0.0341,0.19843 h 0.26459 0.26458 v -0.37482 -0.37483 l -0.33073,-0.13345 -0.33073,-0.13345 0.31183,-0.0209 0.31183,-0.0209 0.45121,0.45121 0.45121,0.45121 -0.30167,0.10055 -0.30166,0.10056 0.14241,0.23043 0.14241,0.23043 z m 2.50471,0.16343 h 0.18142 l -0.10786,-0.92392 -0.10786,-0.92392 -0.19177,0.11852 -0.19177,0.11852 0.1182,0.8054 0.11821,0.8054 z m 0.72749,-0.19844 0.13345,-0.33073 -0.13345,-0.33073 -0.13345,-0.33072 v 0.66145 0.66146 z m 0.87518,-0.78221 0.52125,-0.4463 -0.11798,-0.11798 -0.11797,-0.11798 -0.40327,0.33469 -0.40327,0.33468 v 0.2296 0.22959 z m 0.4048,0.45148 h 0.13229 v -0.13229 -0.13229 h -0.13229 -0.13229 v 0.13229 0.13229 z m -8.73125,-0.26458 h 0.13229 v -0.13229 -0.13229 h -0.13229 -0.13229 v 0.13229 0.13229 z m 1.05833,0 h 0.13229 v -0.13229 -0.13229 h -0.13229 -0.13229 v 0.13229 0.13229 z m 4.79081,0 h 0.10398 v -0.39687 -0.39688 h -0.25628 -0.25627 l 0.15229,0.39688 0.1523,0.39687 z m 3.45537,-0.0882 0.17639,-0.17639 -0.17639,-0.17639 -0.17639,-0.17639 v 0.35278 0.35277 z m -1.90838,-0.44098 h 0.0319 l 0.0399,-0.52916 0.0399,-0.52917 h -0.24814 -0.24814 v 0.35278 0.35278 l 0.17639,0.17638 0.17639,0.17639 z m 1.84867,-0.26458 h 0.11668 l 0.15222,-0.2463 0.15222,-0.2463 -0.2689,-0.16619 -0.2689,-0.16619 v 0.41249 0.41249 z m 1.60312,0 h 0.13229 v -0.13229 -0.13229 h -0.13229 -0.1323 v 0.13229 0.13229 z m -2.86632,-0.35278 0.17639,-0.17639 -0.17639,-0.17639 -0.17639,-0.17638 v 0.35277 0.35278 z m -2.06906,-0.40872 0.246,-0.36463 0.29417,0.18181 0.29416,0.1818 v -0.2802 -0.2802 h -0.26458 -0.26458 v -0.57326 -0.57326 l -0.15144,0.15144 -0.15145,0.15144 -0.12414,0.88484 -0.12414,0.88485 z m 2.55413,0.23233 h 0.13229 v -0.13229 -0.13229 h -0.13229 -0.1323 v 0.13229 0.13229 z m 2.70163,0 h 0.27628 l 0.36313,-0.46302 0.36312,-0.46302 -0.52916,0.38815 -0.52917,0.38816 -0.11024,0.0749 -0.11025,0.0749 z m -6.1256,-0.52916 h 0.11667 v -0.41249 -0.41249 l -0.26889,0.16619 -0.2689,0.16619 0.15222,0.2463 0.15222,0.2463 z m 2.36563,0 h 0.13229 v -0.13229 -0.1323 h -0.13229 -0.13229 v 0.1323 0.13229 z m 2.20665,-0.20343 0.41243,-0.15827 -0.31735,-0.10578 -0.31735,-0.10579 v -0.27084 -0.27084 l 0.3884,0.14904 0.3884,0.14905 0.0991,-0.18689 0.0991,-0.18688 -0.19653,-0.66146 -0.19653,-0.66145 -0.0264,0.59531 -0.0264,0.59531 h -0.24618 -0.24618 l -0.10414,-0.59531 -0.10414,-0.59531 -0.2174,0.48972 -0.2174,0.48972 0.24471,0.17174 0.24472,0.17173 -0.0367,0.57273 -0.0367,0.57273 z m 1.13728,-0.11904 0.69809,-0.0526 -0.13109,-0.34161 -0.13108,-0.34161 h 0.57308 0.57309 l -0.15347,-0.24832 -0.15347,-0.24832 0.46859,-0.2728 0.46858,-0.2728 -0.74322,-0.008 -0.74322,-0.008 0.15223,0.2463 0.15222,0.2463 -0.24118,0.14906 -0.24117,0.14905 -0.17425,-0.45409 -0.17425,-0.45408 -0.22587,0.36547 -0.22587,0.36546 0.14637,0.38143 0.14636,0.38142 -0.36928,0.23527 -0.36928,0.23526 z m 3.00687,-0.11132 0.41892,-0.16076 -0.4493,-0.49648 -0.44931,-0.49647 h 0.34969 0.34969 l -0.13852,-0.13852 -0.13852,-0.13852 -0.43475,0.16683 -0.43474,0.16682 v 0.23628 0.23627 l 0.33073,-0.0661 0.33073,-0.0661 -0.0768,0.4588 -0.0768,0.45879 z m -6.12405,-0.12607 0.567,-0.0307 -0.46302,-0.121 -0.46302,-0.121 v -0.24519 -0.24518 h -0.25628 -0.25628 l 0.1523,0.39688 0.15229,0.39687 z m 0.96388,-0.1016 0.26458,-0.16352 v -0.24897 -0.24897 h -0.26458 -0.26459 v 0.41249 0.41249 z m -0.95435,-0.39688 h 0.10398 l 0.1523,-0.39687 0.15229,-0.39688 h -0.25628 -0.25628 v 0.39688 0.39687 z m 7.54378,-0.5524 0.76859,-0.56825 0.27146,0.16777 0.27145,0.16777 0.16886,-0.27322 0.16885,-0.27321 0.22802,0.14092 0.22802,0.14092 0.17707,-0.2865 0.17707,-0.2865 -0.12134,-0.12134 -0.12134,-0.12134 -1.16192,0.48486 -1.16193,0.48486 -0.52917,-0.0791 -0.52916,-0.0791 0.52916,0.24374 0.52917,0.24374 -0.33073,0.0186 -0.33073,0.0186 v 0.2725 0.27251 z m 2.00953,-0.77051 h -0.1323 v -0.13229 -0.1323 h 0.1323 0.13229 v 0.1323 0.13229 z m -3.78593,0.25452 0.18282,0.0101 0.11407,-0.19844 0.11407,-0.19843 -0.53598,-0.52917 -0.53598,-0.52917 0.18856,0.33073 0.18855,0.33073 h -0.29063 -0.29063 l 0.34116,0.38681 0.34117,0.38681 z m 4.84426,0.0101 h 0.13229 v -0.13229 -0.13229 h -0.13229 -0.13229 v 0.13229 0.13229 z m -6.74688,-0.26458 h 0.23336 l 0.17777,-0.28764 0.17777,-0.28764 -0.31335,-0.30767 -0.31334,-0.30768 0.0502,0.26459 0.0502,0.26458 -0.0354,0.26458 -0.0354,0.26459 -0.24951,-0.39467 -0.24952,-0.39466 -0.34174,0.36733 -0.34175,0.36733 0.31245,-0.17542 0.31244,-0.17542 0.16619,0.2689 0.16619,0.2689 z m 3.42397,0 h 0.2802 v -0.26459 -0.26458 h -0.11668 -0.11667 l -0.16352,0.26458 -0.16353,0.26459 z m -0.64584,-0.26459 h 0.13229 v -0.13229 -0.13229 h -0.13229 -0.13229 v 0.13229 0.13229 z m 1.85208,0 h 0.36565 l 0.14071,-0.22768 0.14071,-0.22767 -0.14041,-0.14042 -0.14042,-0.14042 -0.51087,0.13359 -0.51087,0.1336 0.14493,0.2345 0.14493,0.2345 z m -2.38125,-0.26458 h 0.13229 v -0.13229 -0.13229 h -0.13229 -0.13229 v 0.13229 0.13229 z m 0.80937,-0.26458 h 0.11667 v -0.11668 -0.11668 l -0.30546,-0.18878 -0.30546,-0.18879 0.18878,0.30546 0.18879,0.30547 z m -2.26458,-0.26459 h 0.35278 l -0.17639,-0.17639 -0.17639,-0.17638 -0.17638,0.17638 -0.17639,0.17639 z m 1.38907,-0.0209 0.19843,0.0209 v -0.39687 -0.39688 h -0.52916 -0.52917 v 0.24254 0.24253 l 0.33073,0.13346 0.33073,0.13345 z m 1.0078,-0.50828 h 0.24897 v -0.10399 -0.10398 l -0.41062,-0.15757 -0.41062,-0.15757 0.16165,0.26155 0.16165,0.26156 z M 64.53334,165.16875 h 0.175206 v -0.65663 -0.65664 l -0.214675,0.13268 -0.214674,0.13268 0.03947,0.52395 0.03947,0.52396 z m -0.155524,-1.5875 h 0.132292 v -0.13229 -0.13229 h -0.132292 -0.132291 v 0.13229 0.13229 z M 63.0549,159.08333 h 0.132291 v -0.13229 -0.13229 H 63.0549 62.922608 v 0.13229 0.13229 z m 23.812499,-47.75301 1.587499,-0.16924 1.852084,-0.41508 1.852083,-0.41508 1.387858,-0.61182 1.387858,-0.61183 0.321464,-0.70554 0.321463,-0.70553 -0.503121,-0.36789 -0.50312,-0.36789 -0.809326,0.002 -0.809326,0.002 -1.702497,0.27623 -1.702497,0.27623 -1.604795,0.53464 -1.604794,0.53463 -0.860294,0.5762 -0.860294,0.5762 -0.164319,0.50901 -0.164318,0.509 0.495446,0.3715 0.495446,0.3715 z m 23.824481,-3.66179 3.18698,-0.0467 0.72984,-0.47843 0.72984,-0.47844 0.16453,-0.42874 0.16452,-0.42874 -0.94521,-0.81261 -0.94521,-0.81262 -2.2101,-0.86918 -2.21009,-0.86918 -1.85208,-0.39287 -1.85209,-0.39286 -3.2312,-0.16676 -3.231213,-0.16676 -1.201061,0.45869 -1.201062,0.45869 -0.172475,0.6872 -0.172475,0.6872 0.380573,0.67979 0.380573,0.67979 1.552862,0.61834 1.552858,0.61833 2.00986,0.50781 2.00985,0.50782 1.5875,0.24342 1.5875,0.24343 z M 66.494483,107.225 h 0.132292 v -0.13229 -0.13229 h -0.132292 -0.132292 v 0.13229 0.13229 z m -5.688541,-3.70417 h 0.352777 l -0.176389,-0.17639 -0.176388,-0.17639 -0.176389,0.17639 -0.176389,0.17639 z m 26.458331,-0.65158 1.984375,-0.11631 3.093517,-0.79811 3.093516,-0.79812 1.205963,-0.56687 1.205962,-0.56687 v -0.347214 -0.347219 l -0.969184,-0.319859 -0.969185,-0.31986 -1.742794,0.156661 -1.742795,0.156662 -2.773217,0.682593 -2.773217,0.682596 -1.129387,0.66186 -1.129387,0.66187 v 0.49596 0.49597 l 0.330729,0.15129 0.33073,0.15129 z m 24.209377,-7.815084 h 0.13229 v -0.132292 -0.132291 h -0.13229 -0.13229 v 0.132291 0.132292 z m -1.05834,-5.820833 h 0.1323 v -0.132292 -0.132292 h -0.1323 -0.13229 v 0.132292 0.132292 z m -2.38125,-0.529167 h 0.1323 v -0.132292 -0.132291 h -0.1323 -0.13229 v 0.132291 0.132292 z M 84.530246,86.763888 84.706635,86.587499 84.530246,86.41111 84.353857,86.234721 v 0.352778 0.352778 z m -4.145139,-1.763889 h 0.264584 v -0.264583 -0.264583 h -0.264584 -0.264583 v 0.264583 0.264583 z m -1.554668,-0.458611 0.328765,-0.326319 -0.148112,-0.148113 -0.148112,-0.148112 -0.180654,0.474432 -0.180653,0.474432 z m 2.524807,-0.15875 0.176389,-0.176389 -0.176389,-0.176389 -0.176389,-0.176389 v 0.352778 0.352778 z m -1.911795,-0.440972 h 0.116676 l 0.163522,-0.264583 0.163521,-0.264584 h -0.280198 -0.280198 v 0.264584 0.264583 z m 1.073948,-0.264583 h 0.132292 v -0.132292 -0.132292 h -0.132292 -0.132292 v 0.132292 0.132292 z m 3.96875,-0.264584 h 0.132291 v -0.132291 -0.132292 h -0.132291 -0.132292 v 0.132292 0.132291 z m 5.820833,0 h 0.132291 V 83.280208 83.147916 H 90.306982 90.17469 v 0.132292 0.132291 z m -5.953125,-0.661458 0.264583,-0.163522 v -0.264583 -0.264583 l -0.264583,0.163521 -0.264583,0.163522 v 0.264583 0.264583 z M 81.44344,82.618749 h 0.352778 L 81.619829,82.44236 81.44344,82.265971 81.267052,82.44236 81.090663,82.618749 Z m 5.423959,0 h 0.132291 v -0.132292 -0.132291 h -0.132291 -0.132292 v 0.132291 0.132292 z m -4.365625,-0.264583 h 0.352778 l -0.176389,-0.176389 -0.176389,-0.176389 -0.176389,0.176389 -0.176389,0.176389 z m 12.038541,0 h 0.132291 v -0.132292 -0.132292 h -0.132291 -0.132292 v 0.132292 0.132292 z M 81.575732,82.089582 h 0.132292 V 81.957291 81.824999 H 81.575732 81.44344 v 0.132292 0.132291 z m 12.155218,0 h 0.116677 l 0.163521,-0.264583 0.163522,-0.264583 h -0.280199 -0.280198 v 0.264583 0.264583 z M 82.369482,81.824999 h 0.132292 V 81.692707 81.560416 H 82.369482 82.23719 v 0.132291 0.132292 z m 12.419801,0 h 0.116677 l 0.163521,-0.264583 0.163522,-0.264584 h -0.280198 -0.280199 v 0.264584 0.264583 z m 1.338532,0 h 0.132291 v -0.132292 -0.132291 h -0.132291 -0.132292 v 0.132291 0.132292 z m 1.609684,-0.177416 0.419059,-0.160808 -0.276214,-0.170709 -0.276213,-0.17071 0.518613,-0.323879 0.518612,-0.323879 v 0.399117 0.399117 h 0.277723 0.277722 l 0.747066,-0.386322 0.747063,-0.386323 0.16584,0.165837 0.16584,0.165836 v -0.471831 -0.471831 l 0.52953,0.138476 0.52953,0.138476 -0.12968,-0.209828 -0.12968,-0.209829 0.50388,-0.131767 0.50388,-0.131767 0.22737,0.227374 0.22737,0.227375 0.32635,-0.522563 0.32635,-0.522563 h -0.21124 -0.21124 l -1.44465,0.373376 -1.44465,0.373376 -1.653645,0.322506 -1.653645,0.322506 v 0.309323 0.309323 l -0.926042,-0.10811 -0.926042,-0.10811 0.0041,0.491968 0.0041,0.491967 0.194386,-0.264583 0.194386,-0.264583 0.463021,-0.03675 0.463021,-0.03675 v 0.250801 0.2508 l 0.264583,-0.163522 0.264584,-0.163521 v 0.271894 0.271894 z m 1.58093,-0.616334 H 99.201753 L 99.038231,80.766666 98.87471,80.502082 h 0.280198 0.280198 v 0.264584 0.264583 z m -12.980197,0.264583 h 0.132292 V 81.163541 81.031249 H 86.338232 86.20594 v 0.132292 0.132291 z m -1.322917,-0.264583 h 0.132292 v -0.132292 -0.132291 h -0.132292 -0.132291 v 0.132291 0.132292 z m 0.79375,-0.264583 h 0.132292 v -0.132292 -0.132292 h -0.132292 -0.132291 v 0.132292 0.132292 z m -1.058333,-0.529167 h 0.132292 V 80.105207 79.972916 H 84.750732 84.61844 v 0.132291 0.132292 z m 2.68993,-0.08819 0.176389,-0.176389 -0.176389,-0.176389 -0.176389,-0.176389 v 0.352778 0.352778 z m -1.89618,-0.176389 h 0.132292 V 79.840624 79.708332 H 85.544482 85.41219 v 0.132292 0.132292 z m 3.719781,0 h 0.116677 v -0.116677 -0.116677 l -0.305464,-0.188787 -0.305463,-0.188787 0.188787,0.305464 0.188787,0.305464 z m -1.338531,-0.529167 h 0.132291 V 79.311457 79.179166 H 87.925732 87.79344 v 0.132291 0.132292 z M 125.23198,219.40833 h -0.13229 v -0.13229 -0.13229 h 0.13229 0.13229 v 0.13229 0.13229 z m -45.199651,-4.85069 -0.176388,0.17639 v -0.35278 -0.35278 l 0.176388,0.17639 0.176389,0.17639 z m -3.881526,-7.32014 h -0.186527 l -0.563118,-1.91823 -0.563117,-1.91823 -0.508659,-2.24896 -0.508658,-2.24895 -0.14008,-1.19063 -0.140079,-1.19062 0.256141,0.45537 0.256141,0.45538 0.548821,2.05816 0.54882,2.05817 0.391879,1.5875 0.391878,1.5875 0.201542,1.25677 0.201542,1.25677 z m -2.51257,-11.37708 h -0.132292 v -0.13229 -0.1323 h 0.132292 0.132291 v 0.1323 0.13229 z m 37.286017,-5.02709 h -0.28845 l -0.17639,-0.17639 -0.17639,-0.17638 v -0.60717 -0.60716 l 1.12448,-0.2896 1.12448,-0.2896 3.30729,-1.04392 3.30729,-1.04392 1.05834,-0.32939 1.05833,-0.32939 0.13229,-0.0215 0.13229,-0.0214 0.99219,-0.20737 0.99219,-0.20737 v -0.25076 -0.25075 l 0.21593,0.13345 0.21593,0.13346 1.04084,-0.37081 1.04084,-0.37081 0.59531,-0.0116 0.59531,-0.0116 v 0.36815 0.36815 l -0.99218,0.39394 -0.99219,0.39394 -4.63021,1.4771 -4.63021,1.47709 -2.37943,0.93581 -2.37943,0.93582 z m 8.4869,-1.85208 h -0.13229 v -0.13229 -0.13229 h 0.13229 0.13229 v 0.13229 0.13229 z m 0,-0.52917 h -0.13229 v -0.13229 -0.13229 h 0.13229 0.13229 v 0.13229 0.13229 z m 0.0135,-2.55532 -0.3834,0.14712 0.14713,-0.3834 0.14712,-0.3834 h 0.23628 0.23627 v 0.23628 0.23628 z m 1.83861,-0.61968 h -0.13229 v -0.13229 -0.13229 h 0.13229 0.13229 v 0.13229 0.13229 z m 1.05833,0 h -0.13229 v -0.13229 -0.13229 h 0.13229 0.13229 v 0.13229 0.13229 z m 0.63542,-0.26458 h -0.2594 l 0.34116,-0.37019 0.34116,-0.37019 0.0926,0.088 0.0926,0.088 -0.1744,0.28218 -0.1744,0.28219 z m -0.63542,-0.26458 h -0.13229 v -0.13229 -0.1323 h 0.13229 0.13229 v 0.1323 0.13229 z m 24.88645,-0.26459 h -0.11668 l -0.16352,-0.26458 -0.16352,-0.26458 h 0.2802 0.2802 v 0.26458 0.26458 z m 0.55765,-0.0882 -0.17639,0.17639 v -0.35278 -0.35278 l 0.17639,0.17639 0.17639,0.17639 z m -22.93056,-0.17639 h -0.35277 l 0.17639,-0.17639 0.17638,-0.17639 0.17639,0.17639 0.17639,0.17639 z m 23.15105,-1.05833 h -0.1323 v -0.13229 -0.1323 h 0.1323 0.13229 v 0.1323 0.13229 z m -0.0156,-0.79375 h -0.11668 v -0.26459 -0.26458 h 0.2802 0.2802 l -0.16352,0.26458 -0.16352,0.26459 z m -37.02605,-3.70417 h -0.13229 v -0.13229 -0.13229 h 0.13229 0.13229 v 0.13229 0.13229 z m -45.772914,-7.14375 h -0.132291 v -0.13229 -0.13229 h 0.132291 0.132292 v 0.13229 0.13229 z m -0.220486,-3.52778 -0.176389,0.17639 v -0.35278 -0.35277 l 0.176389,0.17638 0.176389,0.17639 z m 39.30817,-12.08264 h -0.33757 l -0.2937,-0.64458 -0.29369,-0.64459 0.13774,-0.35894 0.13774,-0.35894 3.53506,-1.22489 3.53507,-1.2249 2.3151,-0.84786 2.31511,-0.84785 v -0.24885 -0.24884 l -0.46303,0.13756 -0.46302,0.13755 -0.72514,0.17292 -0.72513,0.17293 -0.16436,-0.42831 -0.16436,-0.42831 0.31404,-0.37839 0.31403,-0.37839 2.16296,-0.73211 2.16296,-0.73212 0.1323,-0.0335 0.13229,-0.0334 0.46302,-0.17559 0.46302,-0.17559 0.46302,-0.17558 0.46302,-0.17559 0.19844,-0.0559 0.19844,-0.0559 0.0661,-0.0533 0.0661,-0.0533 0.39687,-0.0942 0.39688,-0.0942 2.82756,-0.74015 2.82756,-0.74016 0.1994,0.19939 0.1994,0.1994 -0.38113,0.36518 -0.38113,0.36518 -2.24896,0.72234 -2.24895,0.72233 -3.10886,1.19312 -3.10885,1.19311 v 0.22661 0.22661 h 0.16774 0.16774 l 1.02288,-0.30646 1.02289,-0.30646 v -0.21609 -0.21609 l 0.76166,0.15233 0.76166,0.15233 0.18978,-0.30707 0.18978,-0.30707 0.34797,0.47588 0.34797,0.47588 1.06633,-0.85692 1.06632,-0.85692 h 0.3084 0.30841 l -0.16516,0.43041 -0.16517,0.43041 0.3353,0.41288 0.33529,0.41287 -0.47676,-0.1788 -0.47677,-0.1788 0.15035,0.24328 0.15035,0.24327 -0.25562,0.15798 -0.25562,0.15798 -0.2992,-0.55905 -0.2992,-0.55906 -0.57397,0.77798 -0.57398,0.77798 -0.19843,0.0383 -0.19844,0.0383 -0.52917,0.52917 -0.52916,0.52916 -0.59532,0.002 -0.59531,0.002 -2.91042,1.0264 -2.91041,1.02639 -3.83529,1.35322 -3.83529,1.35321 z M 122.45385,148.5 h 0.35278 l -0.17639,-0.17639 -0.17639,-0.17639 -0.17638,0.17639 -0.17639,0.17639 z m -0.85989,1.41119 -0.59531,0.14999 0.4589,-0.34373 0.45891,-0.34373 -0.19432,-0.2147 -0.19433,-0.21469 0.33073,0.19032 0.33073,0.19033 v 0.21811 0.21811 z m -4.56406,-0.88202 h -0.13229 v -0.13229 -0.1323 h 0.13229 0.13229 v 0.1323 0.13229 z m 3.40718,-0.26459 h -0.0999 v -0.39687 -0.39688 h 0.42927 0.42927 l -0.32937,0.39688 -0.32938,0.39687 z M 124.18926,148.5 h -0.11668 l -0.18878,-0.30546 -0.18879,-0.30547 0.30546,0.18879 0.30547,0.18879 v 0.11667 0.11668 z m 1.13244,-0.3984 -0.11797,0.11797 -0.44631,-0.52124 -0.4463,-0.52125 h 0.22959 0.2296 l 0.33468,0.40327 0.33469,0.40327 z m -67.558467,-0.13077 h -0.132291 v -0.13229 -0.13229 h 0.132291 0.132292 v 0.13229 0.13229 z m 64.029167,-0.26458 h -0.13229 v -0.13229 -0.13229 h 0.13229 0.13229 v 0.13229 0.13229 z m 2.11666,0 h -0.13229 v -0.13229 -0.13229 h 0.13229 0.13229 v 0.13229 0.13229 z m 2.11667,0 h -0.13229 v -0.13229 -0.13229 h 0.13229 0.13229 v 0.13229 0.13229 z m -0.52917,-0.26458 h -0.13229 v -0.1323 -0.13229 h 0.13229 0.13229 v 0.13229 0.1323 z m 1.55657,-0.0485 -0.0484,0.0837 -0.19268,-0.31176 -0.19269,-0.31177 0.36463,-0.23095 0.36463,-0.23095 0.23083,-0.004 0.23084,-0.004 -0.35441,0.46302 -0.3544,0.46302 z m -4.46698,-0.21604 h -0.1323 v -0.13229 -0.13229 h 0.1323 0.13229 v 0.13229 0.13229 z m 3.55626,0 h -0.2802 l 0.16352,-0.26458 0.16352,-0.26458 h 0.11668 0.11667 v 0.26458 0.26458 z m 1.7354,0 h -0.13229 v -0.13229 -0.13229 h 0.13229 0.13229 v 0.13229 0.13229 z m -4.23333,-0.26458 h -0.13229 v -0.13229 -0.13229 h 0.13229 0.13229 v 0.13229 0.13229 z m 6.11191,-0.0706 -0.15879,0.15878 v -0.28928 -0.28928 l -0.46302,-0.121 -0.46302,-0.121 0.44741,-0.0307 0.4474,-0.0307 0.17441,0.28219 0.1744,0.28218 z m -13.25566,-0.45858 h -0.13229 v -0.13229 -0.13229 h 0.13229 0.13229 v 0.13229 0.13229 z m 1.05833,0 h -0.13229 v -0.13229 -0.13229 h 0.13229 0.1323 v 0.13229 0.13229 z m 7.14375,0 h -0.13229 v -0.13229 -0.13229 h 0.13229 0.13229 v 0.13229 0.13229 z m 3.70417,0 h -0.13229 v -0.13229 -0.13229 h 0.13229 0.13229 v 0.13229 0.13229 z m -18.83266,-0.27086 -0.31183,0.006 -0.42986,-0.42985 -0.42985,-0.42986 0.0802,-0.54288 0.0802,-0.54288 1.811,-0.74085 1.811,-0.74084 5.04981,-1.46142 5.0498,-1.46142 h 0.74597 0.74596 v 0.63315 0.63315 l -0.46302,0.18664 -0.46302,0.18664 -1.98437,0.60044 -1.98438,0.60045 -2.91042,1.07456 -2.91041,1.07456 -1.5875,0.67392 -1.5875,0.67393 z m 20.43577,0.006 h -0.11667 l -0.16352,-0.26458 -0.16353,-0.26459 h 0.2802 0.2802 v 0.26459 0.26458 z m -12.18644,-0.26458 h -0.13229 v -0.1323 -0.13229 h 0.13229 0.13229 v 0.13229 0.1323 z m 12.96458,0 h -0.13229 v -0.1323 -0.13229 h 0.13229 0.13229 v 0.13229 0.1323 z m 0.80936,0 h -0.11667 l -0.18879,-0.30547 -0.18879,-0.30546 0.30547,0.18879 0.30546,0.18878 v 0.11668 0.11668 z m -27.95164,-2.11667 h -0.18123 l -0.42731,-0.65215 -0.4273,-0.65215 v -0.40173 -0.40172 l 1.32265,-0.67024 1.32265,-0.67024 4.80823,-1.44582 4.80824,-1.44581 0.94672,-0.6215 0.94671,-0.62149 0.89938,-0.30962 0.89938,-0.30961 h 0.72187 0.72187 l 0.31884,0.38417 0.31884,0.38418 -0.15155,0.47748 -0.15154,0.47748 -2.51342,1.1165 -2.51341,1.11649 -3.57424,1.07941 -3.57425,1.07942 -1.91696,0.79049 -1.91696,0.79049 -0.25298,0.25298 -0.25299,0.25299 z m -12.055826,-0.26458 h -0.26486 l -0.575287,-0.61237 -0.575287,-0.61236 v -0.26057 -0.26056 l 3.373437,-1.61692 3.373438,-1.61691 1.68104,-0.54751 1.681045,-0.54752 0.51782,0.27714 0.51783,0.27713 -0.0822,0.57741 -0.0822,0.57741 -1.190627,0.60027 -1.190625,0.60026 -3.459332,1.58255 -3.459333,1.58255 z m 10.623106,-2.64584 h -0.13229 v -0.13229 -0.13229 h 0.13229 0.13229 v 0.13229 0.13229 z m -7.672915,-7.40833 h -0.132292 v -0.13229 -0.13229 h 0.132292 0.132291 v 0.13229 0.13229 z m -4.233333,-0.52917 H 90.17469 v -0.13229 -0.13229 h 0.132292 0.132291 v 0.13229 0.13229 z M 95.069481,132.625 H 94.93719 v -0.13229 -0.13229 h 0.132291 0.132292 v 0.13229 0.13229 z m 1.556271,0 H 96.49346 l 0.163521,-0.26458 0.163522,-0.26459 h 0.132291 0.132292 l -0.163521,0.26459 -0.163522,0.26458 z m -4.995854,-0.26458 h -0.132291 v -0.1323 -0.13229 h 0.132291 0.132292 v 0.13229 0.1323 z m 7.408333,0 H 98.90594 v -0.1323 -0.13229 h 0.132291 0.132292 v 0.13229 0.1323 z m -6.085416,-0.26459 h -0.132292 v -0.13229 -0.13229 h 0.132292 0.132292 v 0.13229 0.13229 z m 4.497916,0 H 97.31844 v -0.13229 -0.13229 h 0.132291 0.132292 v 0.13229 0.13229 z m -3.439583,-0.52916 h -0.132292 v -0.1323 -0.13229 h 0.132292 0.132292 v 0.13229 0.1323 z M 131.3174,110.13542 h -0.1323 v -0.1323 -0.13229 h 0.1323 0.13229 v 0.13229 0.1323 z m -71.12882,-0.61736 -0.176388,0.17638 v -0.35277 -0.35278 l 0.176388,0.17639 0.176389,0.17639 z m 6.04132,-3.61598 h -0.132292 v -0.13229 -0.13229 h 0.132292 0.132291 v 0.13229 0.13229 z m 0.529166,0 h -0.132291 v -0.13229 -0.13229 h 0.132291 0.132292 v 0.13229 0.13229 z m 0.529167,0 h -0.132292 v -0.13229 -0.13229 h 0.132292 0.132292 v 0.13229 0.13229 z m -0.264583,-0.79375 h -0.132292 v -0.13229 -0.13229 h 0.132292 0.132291 v 0.13229 0.13229 z m -7.408333,-1.32291 h -0.132292 v -0.1323 -0.13229 h 0.132292 0.132291 v 0.13229 0.1323 z m 1.984375,-17.991671 h -0.352778 l 0.176389,-0.176389 0.176389,-0.176389 0.176388,0.176389 0.176389,0.176389 z m 0.606809,-0.272629 -0.209935,-0.008 0.396875,-0.230927 0.396875,-0.230927 4.630209,-1.59548 4.630208,-1.59548 4.497916,-1.380297 4.497916,-1.380296 2.513542,-0.719736 2.513542,-0.719736 3.307291,-0.983227 3.307292,-0.983227 4.226237,-1.152752 4.226241,-1.152752 0.0815,0.08146 0.0815,0.08146 -7.218116,2.447235 -7.218115,2.447236 -2.097147,0.63135 -2.097147,0.63135 h -0.482541 -0.48254 v 0.228621 0.22862 l -1.124479,0.158053 -1.124479,0.158054 -3.96875,1.09091 -3.96875,1.090911 -4.552565,1.432832 -4.552566,1.432833 z m 17.64944,-2.637787 h -0.352778 l 0.176389,-0.176389 0.176389,-0.176389 0.176388,0.176389 0.176389,0.176389 z m 3.578268,-2.121974 -0.403269,0.334684 v -0.281365 -0.281366 l 0.282187,-0.1744 0.282186,-0.174401 0.121083,0.121082 0.121082,0.121083 z m -3.299854,-2.11136 h -0.484106 l -0.183827,-0.979881 -0.183827,-0.979881 -0.517084,-1.013568 -0.517084,-1.013568 0.157914,-0.25551 0.157913,-0.255509 h 0.371951 0.371951 l 0.294256,0.549822 0.294255,0.549822 0.491066,1.488519 0.491066,1.488519 -0.130169,0.210617 -0.130169,0.210618 z m 1.993084,-0.529167 H 81.691416 L 81.571839,77.790103 81.452262,77.459374 81.050976,76.30163 80.649691,75.143885 v -0.363609 -0.36361 h 0.46901 0.469011 l 0.333171,1.256771 0.33317,1.25677 0.154705,0.595313 0.154704,0.595312 z m 10.296209,-0.264583 h -0.132291 v -0.132292 -0.132291 h 0.132291 0.132292 v 0.132291 0.132292 z m 13.229162,0 h -0.13229 v -0.132292 -0.132291 h 0.13229 0.1323 v 0.132291 0.132292 z"
       id="path1" /></g></svg>
