<svg xmlns="http://www.w3.org/2000/svg" xml:space="preserve" width="386.554" height="564.781" viewBox="0 0 102.276 149.432"><path d="m96.657 222.732-5.292.088-1.253-.228-1.253-.228-1.393-.452-1.392-.452-1.505-.789-1.505-.79-1.303-1.29-1.304-1.29.121-.636.122-.637-.316-.59-.316-.591.29.179.29.18-.28-.738-.28-.737-.218-.138-.217-.138-.67-2.123-.668-2.123-.209-1.052-.208-1.052.07-.357.071-.357-.282.174-.282.175v-1.09l.022-.169.023-.169-.342-.211-.343-.212.064-.942.063-.943h-.577l.152-.246.153-.246-.274-.17-.273-.168.152-.246.153-.247h-.544l.152-.397.152-.396h-.569l.153-.397.152-.397h-.513l.07-.644.071-.643-.415.16-.415.158.188-.304.188-.304-.304-.568-.304-.568.321-.2.322-.198-.239-.098-.24-.099-.86-1.539-.862-1.539.162-.577.162-.578-.234.336-.235.336-.357-.667-.356-.666h-.41l.11-.572.11-.571-.365-.289-.365-.288-2.237-6.482-2.237-6.483-.719-2.451-.719-2.451.103-.31.104-.309 1.226 3.158L67.922 178l1.44 3.969 1.44 3.968.548 1.72.547 1.72.429 1.19.429 1.19.113.113.114.114-.172-.906-.172-.907-.181-.265-.181-.264-1.002-3.175-1.001-3.175-.928-2.778-.927-2.779-.602-2.167-.602-2.168.162-.162.161-.162-.323-.2-.323-.199-.043-1.12-.044-1.12-.221-.137-.22-.136v-1.786l-.565-.179-.564-.179.346-.214.346-.214.087-.567.086-.567-.227.14-.226.14-.305-.667-.304-.669-.292.18-.291.181.303.187.303.188-.269.705-.268.706h-.313l.168-.53.168-.528h-.697l.02-1.043.02-1.044-.152.017-.153.016-.208-.032-.207-.03.271-.509.272-.508-.328-.132-.33-.133.332-.021.33-.02v-1.028l-.261-.162-.262-.161.158.41.157.41h-.647l.126-.66.127-.662h-.423l.02-.463.02-.463-.698-3.564-.698-3.563v-1.207h-.398l-.038-.728-.039-.728-.133-.529-.134-.529-.573-2.513-.572-2.514-.29-.794-.291-.794-.37-.436-.371-.437.307-.19.307-.19-.753-.496-.753-.496.333-.002.333-.002-.33-.53-.33-.528h-.434l.162.261.161.262-.41-.158-.411-.157v1.247l.405 2.117.405 2.116.274 1.02.274 1.018-.123.122-.122.123-.81-2.464-.809-2.465-.52-2.116-.52-2.117-.417-2.513-.417-2.514-.284-3.44-.283-3.44.17-2.91.17-2.91.253-1.72.254-1.72.81-2.636.812-2.637.537-1.144.538-1.144.102.102.102.102-.412.985-.411.985-.783 3.275-.782 3.274.02.875.021.874.15-.397.15-.397.194-.53.195-.528.067-.265.066-.264.494-.923.495-.922v-.437l1.067-2.268 1.067-2.267-.14-.14-.14-.14 1-.448 1-.448.387-.376.389-.377 1.653-.65 1.654-.65v-.405h.56l-.163.264-.164.265h.56v-.7l1.164-.581 1.163-.581.175-.698.175-.697-.34-.211-.341-.21-2.784.064-2.783.064-.728-.268-.727-.267v-.413h-.82l-.349-.831-.35-.832.129-.491.129-.492.3-.031.3-.032.198.032.198.031v-.483l1.125-.206 1.124-.206.177-.015.176-.016.139-.139.139-.139-.735-2.904-.734-2.903-.183-.408-.184-.407.735-.802.735-.8.86-.345.86-.345v-.333l1.39-.698 1.388-.699.48-.16.48-.16-.148-.237-.147-.239.692-.173.693-.174 1.753-.842 1.753-.843.162-.225.162-.225.168.022.17.023.065-.02.067-.02.609-.113.61-.113.787-.407.787-.407.254.157.254.156-.179-.476-.179-.477.493.397.492.397-.154-.596-.153-.595h.497l.211.572.212.571.177-.463.178-.463-.149-.24-.148-.241h.56v.56l.283-.175.282-.174-.142-.37-.142-.37h.482l.163.264.164.265h1.291v-.763l-.264-.164-.265-.163.021-.315.02-.315.134.33.134.331h.516l-.15-.244-.151-.243.777-.388.776-.388.327.789.326.788-.373.236-.373.236.453.004.452.004.32 1.067.32 1.067-.243.231-.243.231-1.973.582-1.973.581-1.466.664-1.467.664.296.113.297.113 1.82-.689 1.82-.688 1.984-.501 1.985-.5 3.412-.925 3.412-.924.292-.297.292-.297-.661.149-.662.15-2.41.522-2.41.524-.743.282-.743.283-.19-.307-.19-.308-.468-1.73-.469-1.732.525-.424.524-.425-.108-.326-.109-.325.287-.033.286-.033.243-.033.243-.033.184-.185.185-.185.697.445.697.445-.396-.508-.397-.508.508.19.508.191.202-.327.203-.328 1.075.006 1.076.007v-.763l.417.346.417.346.212-.344.212-.343.099.269.098.268 2.381-.52 2.381-.52 2.514-.39 2.513-.39.517-.003.517-.002.277-.192.277-.191 1.323.138 1.323.137-.53.297-.529.297-1.323.184-1.323.184-.926.242-.926.241-2.38.564-2.382.563-2.778.795-2.778.795-.265.043-.265.044-.286.18-.287.179-.904.158-.904.159-.23.229-.231.229-.338-.13-.338-.13-.198.322-.199.32.635-.148.635-.148 3.175-.912 3.175-.913 6.164-1.403 6.163-1.403.451.458.45.46-.38-.084-.382-.084-.112.52-.112.521.434-.36.433-.36.069.104.068.104.388.514.389.514-.331-.2-.33-.198v.449l.528 1.038.53 1.038v1.502l.394.763.395.764-.158.414-.159.413h.617l-.166.27-.167.27.61.987.61.987-.11.132-.11.133.47.09.47.09-.148-.487-.149-.487-.7-3.175-.702-3.175-.244-1.427-.243-1.426.082-.248.083-.247 1.002 3.79 1.003 3.791.377 1.355.377 1.355 1.11.177 1.11.178.815.387.815.386.01 1.256.01 1.256-.675.529-.676.528-.595.512-.595.511.004.283.004.283.26-.397.26-.397-.165.86-.165.86h.595v1.323h.547l.239-.595.24-.596.047.53.048.529-.033.203-.033.203.663.303.664.302v.444h1.058v.529h1.059v.529h.952l.251.224.251.223 1.588.62 1.587.62.162.238.162.237.103-.062.103-.061 1.124.573 1.125.574.004-.204.004-.204.194.265.194.265.507.396.506.397-.348-.661-.349-.662-1.149-1.5-1.15-1.5-1.39-1.23-1.39-1.231 1.03.595 1.028.596 1.562 1.447 1.563 1.447 1.973 2.707 1.973 2.707v.593h.56l-.145.234-.145.235.352.292.353.292.195-.195.196-.196-.183.727-.182.727h.586v.854l.596 1.095.595 1.094.265.194.264.195-.184.004-.183.004.808 2.183.808 2.182.602 1.668.603 1.668.162.162.162.162v1.197l-.695.546-.695.547-2.483.796-2.483.795h-.523v-.763l-.247-.152-.247-.153-1.213.589-1.212.589.054.815.055.815-.207.336-.208.335-1.382.632-1.382.632-2.013.676-2.013.676h-1.562l-.329-.397-.33-.397h-.495l.189.306.189.305-.3-.185-.3-.186-.502.269-.501.268-2.224.645-2.224.644-.732-.14-.732-.14.052-.694.052-.695-.04-.727-.04-.728-.33.006-.33.006-1.55.756-1.55.757.226.12.227.12-.28-.061-.282-.062-3.026 1.052-3.026 1.051-.53.121-.529.12-1.28.164-1.28.163-.137.357-.137.357h-.382l.02-.595.021-.595-.529.08-.529.08-2.08.661-2.081.661-.62.406-.62.407.121.704.122.705.51 3.307.51 3.307.175 1.39.176 1.388h-.906l-7.046 1.863-7.046 1.863-3.735 1.176-3.735 1.177-.333.4-.332.4h.501l1.965-.67 1.964-.67 4.234-1.154 4.233-1.154 3.572-.859 3.572-.858.661-.102.662-.102 1.088-.115 1.089-.114.152 1.378.151 1.378.177.833.176.833-.623.212-.623.212-.132.036-.132.036-.397.168-.397.168-.662.134-.661.133-6.703 1.724-6.704 1.724-1.187.525-1.188.525.158.255.157.255 1.47-.506 1.47-.506 5.867-1.44 5.866-1.441 2.188-.458 2.187-.458.114.114.114.113.385 1.844.386 1.844-.173.172-.174.173-2.527.681-2.527.682-3.294 1.053-3.293 1.053-.53.425-.529.426.662-.119.661-.119 3.44-1.078 3.44-1.077 2.442-.653 2.443-.652.257.972.257.971 1.866 7.673 1.866 7.673.29 1.059.29 1.058.485 1.455.485 1.455 1.446 5.027 1.445 5.028.718 2.248.717 2.25.773 2.38.773 2.382.414 1.135.415 1.136.304-.234.305-.234 2.91-.983 2.91-.982.53-.242.53-.242 2.91-1.223 2.91-1.222.794-.355.794-.354 4.1-1.618 4.102-1.618.701-.054.702-.054-.148-.24-.147-.24.57.15.57.148v-.415l.86-.336.86-.337.794-.344.794-.345 1.984-.778 1.985-.779 1.587-.72 1.588-.722 1.984-.929 1.984-.929 1.679-.759 1.678-.76h.366v1.072l-.326-.125-.327-.125.158.45.158.449-.357-.331-.356-.33h-.442l.3.56.3.561-.332-.205-.331-.205-.635-.07-.635-.07.311.376.311.375.431.021.43.02-.332.135-.332.134.136.22.136.22.927-.256.928-.256.279.172.28.173-.126.326-.125.326h.72l-.136-.22-.137-.221.347-.022.346-.022.738-.12.738-.122.657-.25.657-.25-.122-.6-.122-.599-.157-1.386-.157-1.386-1.3-5.228-1.299-5.229-1.316-4.233-1.317-4.233-1.181-3.837-1.181-3.836-.685-2.514-.684-2.513-.687-3.572-.688-3.572-1.574-6.334-1.574-6.333-.925-3.487-.926-3.488-.133-1.556-.134-1.556-.152-1.191-.151-1.19.128.132.13.132 1.502 5.522 1.502 5.523.887 3.87.886 3.87.419 2.218.418 2.218.654 4.178.653 4.177 1.034 2.733 1.035 2.733 1.076 3.323 1.077 3.323 1.446 5.011 1.445 5.011.84 3.572.84 3.572 1.941 9.667 1.94 9.667.18 1.578.18 1.578.026.132.027.132-.473.89-.473.888.283-.175.284-.175-.168.477-.167.477-.822.886-.822.887-3.571 2.695-3.572 2.696-2.407 1.488-2.407 1.487-2.091 1.047-2.091 1.047-3.175 1.2-3.175 1.202-3.506.849-3.506.849v.335l-.727.017-.728.017-2.116.47-2.117.472-.794.124-.794.124-.661.14-.662.139-2.116.358-2.117.359-4.498.441-4.498.442zm.844-.444 5.078.03.163-.264.164-.264-2.463-.002-2.463-.002-3.006-.267-3.006-.266-2.006-.414-2.007-.415-2.354-.942-2.354-.942-.78-.657-.781-.657-.173.173-.172.172.514.507.514.507 1.588.95 1.587.95 2.089.66 2.088.66 1.351.226 1.352.226zm-16.719-4.996h.132v-.265h-.264v.265zm-.75-4.057.177-.177-.177-.176-.176-.176v.705zm-.264-.794.176-.176-.176-.177-.177-.176v.705zm-.195-.706h.246l-.229-.798-.23-.799-.016-.127-.017-.128v-.529h-.56l.206.33.207.332.033.264.033.265.04.595.04.595zm-1.172-3.968h.132v-.265h-.265v.265zm-2.867-9.614.177-.176-.177-.176-.176-.177v.706zm-1.852-3.704.177-.176-.177-.176-.176-.177v.706zm51.285.089h.133v-.265h-.265v.265zm2.91 0h.133v-.265h-.264v.265zm2.647 0h.132v-.265h-.265v.265zm-1.544-.353.177-.177-.177-.176-.176-.176v.705zm.882.088h.353l-.176-.176-.177-.177-.176.177-.177.176zm1.341-.336.511.038v-.175l-.388-.149-.389-.149-.122.198-.122.199zm-.956-.193h.032l.04-.53.04-.529h-.497v.706l.177.176.176.177zm-1.002-.353.176-.176-.176-.177-.177-.176v.705zm3.014.044.604-.088.102-.31.102-.31-.548.143-.548.144-.158.255-.157.255zm-3.852-.22h.132v-.265h-.264v.265zm2.514 0h.352l-.176-.177-.176-.176-.177.176-.176.177zm2.894-.265h.25l.163-.265.163-.264h-.825v.529zm1.237-.29.355-.295-.246-.46-.247-.461.296-.297.297-.296-.483-1.07-.482-1.07-.126.126-.125.125.451.951.451.951-.335.404-.336.405-.742-.149-.743-.148v.454l.648.124.648.124.311-.292.312-.291-.13.73-.129.73zm-3.205-.02.529.008.529-.227.53-.227-.398.008-.397.008-.661.212-.662.211zm-3.175-.22h.132v-.264h-.265v.265zm2.16-.087.177-.177-.177-.176-.176-.177v.706zm5.33-.528.097-.484-.156-.156-.155-.155-.139.138-.138.139.196.5.197.502zm-9.078.087h.132v-.265h-.264v.265zm2.763 0h.544v-.208l-.388-.15-.388-.148-.157.253-.156.253zm1.978-.021.507.02-.16-.16-.16-.159-.347.139-.348.139zm-2.889-.244h.132v-.264h-.264v.264zm2.084-.264h.365l.339-.409.338-.408-.306-.306-.306-.306v-.407l.463.163.463.163-.308-.333-.308-.334-.298.185-.298.184.16.508.162.508-.415.16-.415.159v.473zm1.488 0h.353l-.177-.177-.176-.176-.176.176-.177.177zm1.706-.164.365-.14-.412-1.237-.413-1.238-.114-.13-.113-.13-.261.467-.261.466-.195-.12-.194-.12.044.71.044.71.035.198.034.198h.529v-.749l-.33-.134-.332-.133.312-.021.312-.021.451.451.451.451-.301.101-.302.1.142.231.143.23zm2.504.164h.182l-.108-.924-.108-.924-.192.118-.192.119.119.805.118.806zm.728-.199.133-.33-.133-.331-.134-.331v1.323zm.875-.782.521-.446-.118-.118-.118-.118-.403.334-.403.335v.46zm.405.451h.132v-.264h-.265v.264zm-8.732-.264h.133v-.265h-.265v.265zm1.059 0h.132v-.265h-.264v.265zm4.79 0h.105v-.794h-.513l.152.397.153.397zm3.456-.088.176-.177-.176-.176-.176-.177v.706zm-1.908-.441h.032l.04-.53.04-.529h-.497v.706l.176.176.177.177zm1.848-.265h.117l.152-.246.152-.247-.269-.166-.268-.166v.825zm1.603 0h.133v-.265h-.265v.265zm-2.866-.353.176-.176-.176-.177-.176-.176v.706zm-2.069-.408.246-.365.294.182.294.182v-.56h-.529v-1.147l-.151.151-.152.151-.124.885-.124.885zm2.554.232h.132v-.265h-.264v.265zm2.702 0h.276l.363-.463.363-.463-.529.388-.529.388-.11.075-.11.075zm-6.126-.53h.117v-.824l-.269.166-.269.166.152.246.152.247zm2.366 0h.132v-.264h-.264v.265zm2.206-.203.413-.158-.317-.106-.318-.106v-.541l.389.149.388.149.1-.187.098-.187-.196-.661-.197-.662-.026.595-.027.596h-.492l-.104-.596-.104-.595-.218.49-.217.49.245.171.244.172-.036.573-.037.573zm1.138-.119.698-.052-.131-.342-.131-.342h1.146l-.154-.248-.153-.248.468-.273.47-.273-.744-.008-.743-.008.152.246.152.247-.241.149-.241.149-.175-.454-.174-.454-.226.365-.226.366.147.381.146.381-.37.236-.368.235zm3.007-.111.419-.16-.45-.497-.45-.497h.7l-.138-.138-.139-.139-.434.167-.435.167v.472l.33-.066.331-.066-.077.459-.076.459zm-6.124-.126.567-.03-.463-.122-.463-.12v-.491h-.513l.152.397.153.397zm.963-.102.265-.163v-.498h-.529v.825zm-.954-.397h.104l.152-.397.153-.396h-.513v.793zm7.544-.552.768-.568.272.167.271.168.17-.273.168-.273.228.14.228.142.177-.287.177-.286-.121-.122-.121-.121-1.162.485-1.162.485-.53-.08-.529-.079.53.244.529.244-.331.019-.33.018v.545zm2.01-.77h-.133v-.265h.265v.264zm-3.787.254.183.01.114-.198.114-.199-.536-.529-.536-.53.189.332.189.33h-.581l.34.387.342.387zm4.845.01h.132v-.265h-.265v.265zm-6.747-.265h.233l.178-.287.178-.288-.314-.307-.313-.308.05.264.05.265-.035.265-.035.264-.25-.394-.25-.395-.341.367-.342.368.313-.176.312-.175.166.269.166.268zm3.424 0h.28v-.529h-.233l-.164.265-.163.264zm-.646-.264h.132v-.265h-.264v.265zm1.852 0h.366l.14-.228.141-.227-.14-.14-.14-.141-.512.133-.51.134.144.234.145.235zm-2.381-.265h.132v-.264h-.264v.264zm.81-.264h.116v-.234l-.306-.188-.305-.19.189.306.188.306zm-2.265-.265h.352l-.176-.176-.176-.177-.177.177-.176.176zm1.389-.02.198.02v-.794h-1.058v.485l.33.134.331.133zm1.007-.509h.25v-.208l-.411-.158-.41-.157.16.261.162.262zm-80.16-19.58h.175v-1.313l-.215.133-.215.133.04.524.04.524zm-.156-1.587h.132v-.264h-.264v.264zm-1.323-4.498h.132v-.264h-.264v.264zm23.812-47.753 1.588-.169 1.852-.415 1.852-.415 1.388-.612 1.388-.612.321-.705.322-.706-.503-.368-.504-.368-.809.002-.81.002-1.702.277-1.702.276-1.605.535-1.605.534-.86.576-.86.577-.165.509-.164.509.495.371.496.372zm23.825-3.661 3.187-.047.73-.479.73-.478.164-.429.165-.429-.946-.812-.945-.813-2.21-.869-2.21-.87-1.852-.392-1.852-.393-3.231-.167-3.232-.166-1.2.458-1.202.459-.172.687-.173.687.38.68.381.68 1.553.618 1.553.619 2.01.507 2.01.508 1.587.244 1.588.243zm-44.198-.444h.133v-.265h-.265v.265zm-5.688-3.704h.353l-.177-.177-.176-.176-.176.176-.177.177zm26.458-.652 1.985-.116 3.093-.798 3.094-.798 1.206-.567 1.206-.567v-.694l-.97-.32-.969-.32-1.743.156-1.742.157-2.774.683-2.773.682-1.13.662-1.129.662v.992l.331.151.33.152zm24.21-7.815h.132v-.264h-.265v.264zm-1.059-5.82h.133v-.265h-.265v.264zm-2.38-.53h.131v-.264h-.264v.264zm-23.505-1.94.177-.177-.177-.176-.176-.176v.705zM80.385 85h.265v-.529h-.529V85zm-1.555-.459.33-.326-.149-.148-.148-.148-.18.474-.181.475zm2.525-.158.177-.177-.177-.176-.176-.177v.706zm-1.912-.441h.117l.164-.265.163-.265h-.56v.53zm1.074-.265h.133v-.265h-.265v.265zm3.97-.265h.131v-.264h-.264v.264zm5.82 0h.132v-.264h-.264v.264zm-5.953-.661.264-.163v-.53l-.264.164-.265.163v.53zm-2.91-.132h.352l-.176-.177-.177-.176-.176.176-.176.177Zm5.423 0H87v-.265h-.265v.265zm-4.365-.265h.353l-.177-.176-.176-.177-.177.177-.176.176zm12.038 0h.133v-.264h-.265v.264zm-12.964-.264h.132v-.265h-.265v.265zm12.155 0h.117l.163-.265.164-.265h-.56v.53zm-11.362-.265h.133v-.265h-.265v.265zm12.42 0h.117l.163-.265.164-.264h-.56v.529zm1.339 0h.132v-.265h-.264v.265zm1.61-.177.419-.161-.277-.17-.276-.172.519-.324.518-.323v.798h.556l.747-.386.747-.387.166.166.166.166v-.944l.53.139.529.138-.13-.21-.13-.21.504-.131.504-.132.227.227.228.228.326-.523.327-.522h-.423l-1.445.373-1.444.373-1.654.323-1.654.322v.619l-.926-.108-.926-.108.004.492.005.492.194-.265.194-.264.463-.037.463-.037v.502l.265-.164.265-.163v.543zm1.58-.617h-.116l-.164-.264-.163-.265h.56v.529zm-12.98.265h.133v-.265h-.265v.265zm-1.323-.265h.133v-.264h-.265v.264zm.794-.264h.132v-.265h-.264v.265zm-1.058-.53h.132v-.264h-.265v.264zm2.69-.088.176-.176-.176-.176-.177-.177v.706zm-1.897-.176h.133v-.265h-.265v.265zm3.72 0h.117v-.233l-.306-.19-.305-.188.189.305.189.306zm-1.338-.53h.132v-.264h-.265v.265zm37.306 139.965h-.132v-.264h.264v.264zm-45.2-4.85-.176.176v-.706l.176.177.177.176zm-3.881-7.32h-.187l-.563-1.919-.563-1.918-.509-2.249-.508-2.249-.14-1.19-.14-1.191.256.455.256.456.549 2.058.548 2.058.392 1.587.392 1.588.202 1.257.201 1.256zm-2.513-11.378h-.132v-.264h.265v.264zm37.286-5.027h-.288l-.177-.176-.176-.176v-1.215l1.125-.29 1.124-.289 3.307-1.044 3.308-1.044 1.058-.33 1.058-.329.133-.021.132-.021.992-.208.992-.207v-.501l.216.133.216.133 1.04-.37 1.042-.371.595-.012.595-.012v.737l-.992.394-.992.394-4.63 1.477-4.63 1.477-2.38.936-2.38.935zm8.487-1.852h-.132v-.264h.264v.264zm0-.529h-.132v-.265h.264v.265zm.014-2.555-.384.147.147-.384.148-.383h.472v.473zm1.838-.62h-.132v-.265h.265v.265zm1.059 0h-.133v-.265h.265v.265zm.635-.264h-.26l.342-.37.34-.37.094.087.092.088-.174.282-.175.282zm-.635-.265h-.133v-.265h.265v.265zm24.886-.265h-.117l-.163-.264-.164-.265h.56v.529zm.558-.088-.177.177v-.706l.177.176.176.177zm-22.93-.176h-.354l.177-.177.176-.176.177.176.176.177zm23.15-1.059h-.132v-.264h.264v.264zm-.015-.793h-.117v-.53h.56l-.163.265-.164.265zm-37.026-3.705h-.133v-.264h.265v.264zm-45.773-7.143h-.133v-.265h.265v.265zm-.22-3.528-.177.176v-.705l.176.176.177.177zm39.307-12.083h-.337l-.294-.644-.294-.645.138-.359.138-.359 3.535-1.225 3.535-1.225 2.315-.847 2.315-.848v-.498l-.463.138-.463.137-.725.173-.725.173-.165-.428-.164-.429.314-.378.314-.378 2.163-.732 2.163-.733.132-.033.133-.033.463-.176.463-.176.463-.175.463-.176.198-.056.199-.056.066-.053.066-.053.397-.094.397-.095 2.827-.74 2.828-.74.2.2.199.199-.382.365-.38.365-2.25.723-2.249.722-3.108 1.193-3.11 1.193v.453h.336l1.023-.306 1.023-.307v-.432l.762.153.761.152.19-.307.19-.307.348.476.348.475 1.066-.856 1.066-.857h.617l-.165.43-.165.43.335.413.335.413-.476-.179-.477-.178.15.243.15.243-.255.158-.256.158-.299-.559-.299-.559-.574.778-.574.778-.198.038-.199.039-.529.529-.53.529-.594.002-.596.002-2.91 1.026-2.91 1.027-3.836 1.353-3.835 1.353zm18.195-7.408h.353l-.177-.176-.176-.177-.177.177-.176.176zm-.86 1.411-.595.15.459-.344.458-.343-.194-.215-.194-.215.33.19.331.191v.436zm-4.564-.882h-.132v-.264h.264v.264zm3.407-.264h-.1v-.794h.859l-.33.397-.329.397zm3.752-.265h-.116l-.19-.305-.188-.306.305.189.306.189v.233zm1.133-.398-.118.118-.447-.522-.446-.52h.46l.334.402.335.404zm-67.559-.131h-.132v-.265h.265v.265zm64.03-.265h-.133v-.264h.265v.264zm2.116 0h-.132v-.264h.264v.264zm2.117 0h-.133v-.264h.265v.264zm-.53-.264h-.132v-.265h.265v.265zm1.557-.049-.048.084-.193-.312-.193-.312.365-.23.365-.232.23-.004.231-.004-.354.463-.355.463zm-4.467-.216h-.132v-.264h.264v.264zm3.556 0h-.28l.164-.264.163-.265h.234v.529zm1.736 0h-.132v-.264h.264v.264zm-4.234-.264h-.132v-.265h.265v.265zm6.112-.071-.158.159v-.579l-.463-.12-.463-.122.447-.03.447-.031.175.282.174.282zm-13.255-.459h-.133v-.264h.265v.264zm1.058 0h-.132v-.264h.264v.264zm7.144 0h-.132v-.264h.264v.264zm3.704 0h-.132v-.264h.264v.264zm-18.833-.27-.312.006-.43-.43-.43-.43.081-.543.08-.543 1.811-.74 1.811-.742 5.05-1.461 5.05-1.461h1.492v1.266l-.463.186-.463.187-1.985.6-1.984.601-2.91 1.075-2.91 1.074-1.588.674-1.588.674zm20.436.006h-.117l-.163-.265-.164-.265h.56v.53zm-12.186-.265h-.133v-.265h.265v.265zm12.964 0h-.132v-.265h.265v.265zm.81 0h-.117l-.189-.306-.189-.305.306.189.305.189v.233zm-27.952-2.117h-.181l-.428-.652-.427-.652v-.803l1.323-.67 1.322-.671 4.809-1.446 4.808-1.446.947-.621.946-.622.9-.31.9-.309h1.443l.319.384.318.385-.151.477-.152.477-2.513 1.117-2.513 1.116-3.575 1.08-3.574 1.08-1.917.79-1.917.79-.253.253-.253.253zm-12.056-.264h-.265l-.575-.613-.575-.612v-.521l3.373-1.617 3.374-1.617 1.68-.548 1.682-.547.517.277.518.277-.082.578-.082.577-1.19.6-1.191.6-3.46 1.583-3.459 1.583zm10.623-2.646h-.132v-.265h.265v.265zm-7.673-7.408h-.132v-.265h.265v.265zm-4.233-.53h-.132v-.264h.264v.264zm4.762-.264h-.132v-.265h.265v.265zm1.557 0h-.133l.164-.265.164-.264h.264l-.163.264-.164.265zm-4.996-.265h-.132v-.264h.264v.264zm7.408 0h-.132v-.264h.265v.264zm-6.085-.264h-.132v-.265h.264v.265zm4.498 0h-.133v-.265h.265v.265zm-3.44-.53h-.132v-.264h.264v.265zm37.306-21.43h-.132v-.265h.265v.264zm-71.128-.618-.177.176v-.705l.177.176.176.177zm6.04-3.616h-.131v-.264h.264v.264zm.53 0h-.132v-.264h.264v.264zm.53 0h-.133v-.264h.265v.264zm-.265-.794h-.133v-.264h.265v.264zm-7.409-1.323h-.132v-.264h.265v.264zM61.6 85.794h-.353l.176-.177.177-.176.176.176.176.177zm.607-.273-.21-.008.396-.23.397-.232 4.63-1.595 4.63-1.596 4.499-1.38 4.498-1.38 2.513-.72 2.514-.72 3.307-.983 3.307-.983 4.226-1.153 4.227-1.153.081.082.082.081-7.218 2.447-7.219 2.448-2.097.631-2.097.631h-.965v.458l-1.124.158-1.125.158-3.969 1.09-3.968 1.092-4.553 1.432-4.552 1.433zm17.649-2.638h-.353l.177-.176.176-.176.176.176.177.176zm3.578-2.122-.403.335v-.563l.282-.174.282-.174.121.12.121.122zm-3.3-2.111h-.484l-.184-.98-.183-.98-.517-1.013-.518-1.014.158-.255.158-.256h.744l.294.55.295.55.49 1.488.492 1.489-.13.21-.13.211zm1.993-.53h-.436l-.12-.33-.119-.33-.401-1.158-.401-1.158v-.727h.938l.333 1.256.333 1.257.155.596.154.595zm10.297-.264h-.133v-.264h.265v.264zm13.229 0h-.132v-.264h.264v.264z" style="fill:#000" transform="translate(-53.36 -73.388)"/></svg>