<svg xmlns="http://www.w3.org/2000/svg" xml:space="preserve" width="313.656" height="447.805" viewBox="0 0 82.988 118.482"><path d="M101.195 86.666c-10.908.512-22.18 3.791-30.2 11.517-6.067 2.409-7.297 9.657-7.133 15.448.766 7.203-.912 14.385-.206 21.604.48 9.59 1.874 19.142 1.203 28.765-.703 8.022 2.061 16.282 7.287 22.349 2.427 3.173 11.465-.258 10.584 4.356-.7 4.183-3.329 9.69-1.519 13.337 3.847-1.12 6.863-5.009 6.836-9.156.09-3.261 1.122-7.058 5.126-4.713 3.412-.06 9.822.449 6.02 5.215-1.783 3.78-3.581 7.581 1.24 9.716 3.243 0 2.783-6.728 5.054-9.2.992-2.932 2.157-6.348 5.83-5.506 2.95-2.486 5.847-.179 8.91-.148 2.018-.311 7.21-.212 4.385-1.643 6.567-.47 14.569.157 19.145-5.609 4.728-6.124 1.839-14.051 1.802-21.018-.042-13.921-.305-27.857.157-41.77 1.807-7.255.489-16.425-6.076-20.896-6.01-1.027-10.185-5.855-15.8-7.995-7.09-3.2-14.84-5.007-22.645-4.653m1.555 3.196c4.522.198 9.706.084 13.42 2.668 4.065.763 9.646 2.442 11.865 5.402-4.219-.941-7.156-3.741-11.43-4.515-4.046.252-5.878-3.435-10.546-2.964-1.61-.143-8.825-.26-3.31-.59m-6.537.722c2.46-.783-4.744 3.432-3.03.96-6.291.586 1.284-1.22 3.03-.96m1.58 1.343c-1.15 1.435-3.203.42 0 0M84.235 94.54c3.45-.527.905 2.98-.345 1.124-1.702-.126-9.662 4.432-4.831.679 1.558-.983 3.312-1.734 5.176-1.803m4.088 6.117c12.63.076 25.284-.197 37.9.45 4.718.726 11.781-1.877 14.202 4.127 1.386 5.964.625 12.218.847 18.309.067 10.771-1.195 21.57.29 32.302.49 6.884 1.678 15.033-3.705 20.44-5.637 6.254-14.523 7.668-22.5 8.114-4.357-1.132-8.639 2.036-13.368.937-5.017.716-10.185-.864-14.786-.258-5.223-.456-10.187-3.525-14.459-6.53-5.042-4.17-5.062-11.125-4.665-17.083.573-12.327-2.134-24.648-.783-36.95.55-2.497 3.283-8.128 4.196-8.054-1.365 4.963-4.351 9.448-3.827 14.82-.68 10.928 2.11 21.746.952 32.667-.63 5.493 1.236 11.616 6.186 14.57 2.663 1.96 5.955 2.942 8.58 5.026 2.532 2.05 6.467-1.526 9.125.893 2.681-2.18 3.063 1.807 6.468.472 4.718-1.13 9.719.562 14.02-2.125 4.833 1.716 10.451.055 15.27-1.32 7.428-2.202 13.879-9.176 13.198-17.28-.5-10.283-2.209-20.567-1.008-30.88.225-9.207.564-18.499-.568-27.654-1.39-2.177-4.473-3.894-5.515-1.07-4.33-2.943-9.61-3.405-14.726-3.333-12.377-.075-24.769-.299-37.14.133-2.452.998-3.86-.081-.616-.352 2.116-.407 4.288-.313 6.432-.37m-11.557.483c2.777 2.125-.447.159-.987 2.6-4.4-2.484-5.46 4.135-7.658 5.9-.171 2.468-1.404 4.36-.846.579-.043-4.55 3.027-9.181 7.966-9.037-.294 2.089 1.084 1.068 1.525-.042M96 103.257c4.556.076 8.91.455 13.408.152 4.83-.616 10.215.493 14.376.112.227 2.125 4.595-.503 3.296 1.84 4.406-2.088 8.328 4.106 6.855 8.302-.35 9.38-.398 18.771-.695 28.15-2-2.027-1.75-10.073-2.267-14.466-3.033.528-2.473 7.786-6.1 9.797-3.188 4.378-8.645 3.903-13.371 3.48-7.59-.29-15.291.03-22.838-.356-5.127-2.392-9.232-6.994-11.03-12.359-3.622-.499-.662 6.101-1.227 8.562-.479 2.094 1.5.998-.11 3.057.2 3.137.146 6.159.446 9.24.849 6.3-2.51-1.902-1.517-4.18-.067-11.21-.961-22.373.377-33.518.015-5.236 5.245-7.82 9.894-7.407 3.498.003 6.825-.349 10.503-.406m-25.884 1.322c-2.159 2.688-.934 4.122 0 0m60.563 1.588c-.126.074.376.24 0 0m-26.643 2.541c-3.047-.894-2.37 1.937-2.485 3.819-.252 1.576.702 4.386-1.872 3.587-5.792.099-11.586.132-17.376.314-.113 3.368-.05 6.741-.067 10.112 3.222 1.182 6.947.619 10.782.65 2.623.092 7.854-.553 7.306 1.32 2.132.832-2.3 9.26 3.136 6.084 1.675.849 3.573-1.248 5.727-1.092.146-1.749-2.246-7.866 1.492-6.117 4.776.098 9.654-.66 14.36.104 2.13.141 3.288-.846 2.731-3.589-.243-3.213 1.733-9.107-3.487-7.666a960 960 0 0 1-14.795-.013v-7.335c-1.817-.07-3.633-.194-5.452-.178m25.692 24.918c-.973 2.443.04 5.403.008 6.628-1.923 2.232 1.4 1.337-.862 4.123-.762 2.14-4.229 6.388-1.973 5.92-1.335 1.32-1.213 2.499.507.94-1.813 1.53-3.378 5.508.072 4.278-1.938 3.468 3.62-1.4.487 2.194-.791 1.642.905 2.606-1.137 4.096 3.178-1.818-.361 1.046 1.64 1.868 1.702 1.466-.09 5.63-1.502 5.334-.714 2.91-5.055 1.89-7.544 1.303-2.985 1.526-5.423-.466-7.574-.101-2.142 1.108-5.881.73-8.056-.431-.386 2.63-4.628.182-7.012.865-.068-2.514-2.313 2.446-3.624-.273-3.05 1.597-4.708-2.953-7.749.325-3.001.948-5.079-3.415-3.348-4.896-2.34-1.69-2.766-7.405-1.66-10.321 2.994-1.23-2.208-.24-.807-3.274-1.69-3.387-1.36-8.697-1.166-11.163.36-2.634-.165-8.725 2.618-3.527 2.795 3.427 6.949 5.981 11.516 5.405 4.568-.066 8.473.265 13.009-.04 5.496-.344 11.324 1.686 16.542-.633 4.423-1.448 4.185-5.708 7.615-8.62m-1.836 8.524c-.118.065.321.223 0 0m4.37.544c2.156 3.233.042 7.986.622 11.807-.198 4.558.015 9.211-.375 13.719-1.407 3.907-5.099 6.66-9.316 6.57-2.158.444-5.412-.783-1.247-.82 3.943.505 8.095-1.408 9.393-5.4 1.616-6.007-.837-12.171-.215-18.19 2.097-2.027-.164-5.439 1.139-7.686m-54.8 10.436c1.426 2.978-.108 8.098 1.122 11.759-.784 1.58 1.407 6.056-.696 4.078-.684-5.024-2.23-11.4-.426-15.837m48.695 1.19c1.066.713-1.03.624 0 0m-11.2 2.647c-3 1.02-.764 7.315-5.407 4.582-.294-.248 4.75-2.146.435-2.367-2.26.183 5.772-1.465 1.107-1.976-2.164.077-5.868-1.054-4.779 2.344-.6 2.55.62 4.567 1.823 2.748 1.048 1.23 4.738 1.546 5.765.179.67-2.822 3.618 3.287 3.306-.643-.704-1.51-.535-4.163-2.25-4.867m-18.889.012c-3.908.054-2.108 9.668 2.212 5.631-1.072-1.15-4.162-1.16-.809-2.221 1.053-1.73-3.504-1.171.093-1.986 1.656-1.058-.675-1.648-1.496-1.424m-4.736.019c-2.595.751-3.97 9.534-.347 4.76 4.501 4.84 2.282-4.03.347-4.76m7.309.232c-.363 3.157-.015 8.77 4.113 4.78 2.012-3.397-.933-5.335-4.113-4.78m22.257 0c-1.582 1.768-1.78 1.358-3.535.02-.929 1.148 2.29 9.228 3.04 3.458-.042-.843 2.396-3.405.495-3.478m-17.098.132c-.27 2.327.796 9.13 1.679 3.5-.38-1.526.916-4.225-1.68-3.5m-3.08 1.319c2.487 1.371-1.445 5.198-.463.844.07-.214.018-.914.463-.844m-29.258 8.174c.546.723-.347.925 0 0m3.115.032c.57 1.693.975 7.678.161 2.796-.075-.93-.108-1.864-.161-2.796m4.5 3.307c.58.538-.886.6 0 0m.497 1.108c1.08.389-1.647 1.165 0 0m.546 1.009c1.066.712-1.03.623 0 0m1.116.552c1.996.318-.427 2.088.18.271-.598.49-1.926.771-.18-.27m1.568.91c4.103 1.197-1.853 1.732 0 0m31.015.093c1.746-.193 7.72.1 2.978.744-7.049-.022-14.157.215-21.167-.507 6.058-.227 12.13-.195 18.19-.237m-27.264.694c3.38.49-4.616.455 0 0" style="fill:#000" transform="translate(-63.478 -86.622)"/></svg>