<svg xmlns="http://www.w3.org/2000/svg" xml:space="preserve" width="414.228" height="626.62" viewBox="0 0 109.598 165.793"><path d="M54.618.1c-10.194.365-21.63 1.48-29.012 9.398-2.938-.1-6.008 8.978.109 8.377 16.534-7.48 48.558-2.458 54.665-.29 5.642 2.003 10.424 7.29 13.371 11.99 2.533 4.04 1.067 80.565-.725 89.894-7.683 11.253-21.25 9.791-41.917 9.773-8.197.078-20.366 3.611-33.527-8.422-2.736-1.955-1.59-28.146-2.303-31.018l-1.072-52.28c.129-.262-1.359-14.024 4.16-18.336 2.73-1.681 3.996-10.325-2.715-6.163C6.792 17.833.094 27.331.1 37.62 5.427 41.7 2.016 48.872 2.43 54.674c-.67 13.82-.396 27.698-.95 41.504-1.023 4.413-1.588 8.866-1.224 13.398-.413 14.148 9.042 27.108 21.336 33.405.173 3.96-.33 14.614.133 18.502 2.174 6.212 14.745 4.976 12.186-1.346-1.18-4.388-.585-16.285 3.706-16.195 6.502-1.082 12.098 8.85 9.59 18.216-.088 5.828 14.387 3.712 12.31-1.015-1.713-8.23 5.34-16.364 10.262-17.735 4.4-1.91 7.34-3.19 11.244.039 7.666 2.23 17.1-2.812 17.518-11.233 2.928-3.492 7.6-6.443 8.923-11.404 3.29-8.926 1.47-18.627 1.98-27.922-.06-19.653.134-39.337-.072-58.976-2.544-15.586-16.765-26.11-31.057-30.462C70.672 1.033 62.604.195 54.618.1"/><path d="M65.23 71.281c-.015-1.561-1.524-4.465-3.08-5.926-1.796-1.689-2.194-.556 3.887-11.053 6.171-10.651 5.434-10.094 9.35-7.07 7.017 5.42 11.129 12.911 12.109 22.066.32 2.994.32 2.994-10.968 2.994s-11.288 0-11.298-1.01M23.459 71.057c.118-9.372 5.933-19.8 14.047-25.191 2.116-1.407 1.522-2.07 7.736 8.629 5.93 10.207 5.568 9.163 3.762 10.86-1.556 1.461-3.064 4.365-3.08 5.926-.01 1.011-.01 1.011-11.245 1.011-11.236 0-11.236 0-11.22-1.235M52.16 77.564c-4.035-2.696-3.942-8.17.183-10.684 4.994-3.045 11.258 2.179 9.037 7.537-1.634 3.943-5.866 5.388-9.22 3.147M48.386 103.56c-3.153-.888-7.104-2.4-8.005-3.066-.617-.456 7.861-16.685 10.193-19.51.033-.04 1.179.212 2.546.561 2.144.547 2.827.547 4.944-.004 1.35-.35 2.479-.603 2.507-.561 3.752 5.57 10.819 19.044 10.222 19.49-3.93 2.946-16.676 4.703-22.407 3.09z"/></svg>