<?xml version="1.0" encoding="UTF-8" standalone="no"?>
<!-- Created with Inkscape (http://www.inkscape.org/) -->

<svg
   width="82.988113mm"
   height="118.4817mm"
   viewBox="0 0 82.988113 118.4817"
   version="1.1"
   id="svg1"
   xml:space="preserve"
   xmlns="http://www.w3.org/2000/svg"
   xmlns:svg="http://www.w3.org/2000/svg"><defs
     id="defs1" /><g
     id="layer1"
     transform="translate(-63.478315,-86.622075)"><path
       id="path1"
       style="fill:#000000"
       d="m 101.19486,86.666028 c -10.907399,0.512403 -22.179111,3.79134 -30.199994,11.516925 -6.066507,2.409067 -7.296543,9.656807 -7.132803,15.448067 0.766202,7.20309 -0.91166,14.38482 -0.206374,21.60444 0.481122,9.58944 1.874421,19.14164 1.20373,28.76436 -0.703384,8.02247 2.060898,16.28169 7.28706,22.34908 2.42698,3.17261 11.464938,-0.25824 10.583547,4.35626 -0.70025,4.18298 -3.328928,9.68957 -1.518712,13.33653 3.84681,-1.11903 6.862339,-5.00822 6.835349,-9.15594 0.09102,-3.26102 1.122505,-7.05783 5.12627,-4.7132 3.411999,-0.0596 9.821847,0.44904 6.019536,5.21497 -1.782146,3.7805 -3.580853,7.58188 1.239641,9.71626 3.24403,0.001 2.78358,-6.72787 5.05508,-9.19906 0.99203,-2.93297 2.15652,-6.34841 5.82976,-5.50634 2.95075,-2.48685 5.847,-0.17941 8.9109,-0.14847 2.01666,-0.31091 7.20962,-0.21231 4.38416,-1.64252 6.56742,-0.47014 14.56882,0.15611 19.14453,-5.60896 4.72864,-6.12401 1.83929,-14.05177 1.80268,-21.01828 -0.0424,-13.92134 -0.30566,-27.85726 0.15674,-41.77043 1.80734,-7.25445 0.48877,-16.42522 -6.07593,-20.896053 -6.00919,-1.026658 -10.18481,-5.854412 -15.80068,-7.994269 -7.08902,-3.200372 -14.83918,-5.007475 -22.64449,-4.65337 z m 1.55494,3.196187 c 4.52222,0.198155 9.70574,0.08342 13.42037,2.667538 4.06462,0.762859 9.6457,2.442604 11.86449,5.402675 -4.2183,-0.941725 -7.15552,-3.741637 -11.4291,-4.515093 -4.04616,0.251899 -5.8787,-3.435488 -10.54696,-2.964104 -1.60945,-0.143588 -8.824723,-0.260375 -3.3088,-0.591016 z m -6.536551,0.721403 c 2.459473,-0.782643 -4.74463,3.432673 -3.031131,0.959971 -6.290419,0.586031 1.285346,-1.219698 3.031131,-0.959971 z m 1.579231,1.343071 c -1.15015,1.435565 -3.202797,0.421065 0,0 z m -13.556278,2.613277 c 3.448936,-0.527029 0.904495,2.980107 -0.345199,1.12396 -1.701707,-0.125603 -9.661983,4.432124 -4.831312,0.678827 1.558072,-0.983235 3.31205,-1.733372 5.176511,-1.802787 z m 4.088123,6.117454 c 12.630445,0.0754 25.284105,-0.19713 37.898775,0.44867 4.71882,0.72736 11.78227,-1.87636 14.20263,4.12775 1.38616,5.96442 0.62525,12.21865 0.84774,18.30897 0.0667,10.7712 -1.19535,21.57082 0.28919,32.3017 0.49123,6.88447 1.6787,15.03321 -3.70506,20.44086 -5.63622,6.25376 -14.5229,7.66791 -22.49959,8.11331 -4.35658,-1.13173 -8.63889,2.03681 -13.36784,0.93752 -5.016814,0.71605 -10.184954,-0.86419 -14.786163,-0.25834 -5.222945,-0.4556 -10.187361,-3.52501 -14.458729,-6.52968 -5.04276,-4.17094 -5.062777,-11.12558 -4.665146,-17.08363 0.573204,-12.32643 -2.134536,-24.64756 -0.783628,-36.9502 0.551325,-2.49629 3.283866,-8.12753 4.19673,-8.0532 -1.365524,4.96292 -4.351455,9.44799 -3.827167,14.82058 -0.680029,10.92688 2.109688,21.74487 0.952196,32.66675 -0.629753,5.49243 1.235934,11.61542 6.185964,14.56874 2.662288,1.96114 5.95498,2.94324 8.580419,5.02631 2.531299,2.04992 6.466055,-1.52573 9.124369,0.89343 2.681146,-2.18049 3.063171,1.80673 6.467594,0.47194 4.718801,-1.12913 9.718981,0.56172 14.020091,-2.12532 4.83349,1.71601 10.45178,0.0555 15.27046,-1.31927 7.4276,-2.20266 13.87843,-9.17662 13.19756,-17.2811 -0.50052,-10.2824 -2.20856,-20.56624 -1.00738,-30.87898 0.22478,-9.20694 0.56319,-18.49909 -0.56867,-27.6539 -1.38933,-2.17725 -4.47288,-3.89465 -5.51495,-1.07067 -4.32984,-2.9425 -9.61052,-3.40444 -14.72563,-3.33264 -12.37757,-0.075 -24.769134,-0.29893 -37.139652,0.13307 -2.452515,0.99825 -3.860747,-0.0814 -0.616601,-0.3521 2.116648,-0.40681 4.288564,-0.31252 6.432488,-0.37057 z m -11.557435,0.48214 c 2.777203,2.12571 -0.446661,0.15907 -0.987019,2.60139 -4.400474,-2.48512 -5.460696,4.13379 -7.657922,5.89833 -0.171284,2.46872 -1.403583,4.36072 -0.845739,0.57977 -0.04362,-4.54957 3.027283,-9.18151 7.966199,-9.03691 -0.294685,2.08851 1.083538,1.06754 1.524481,-0.0426 z m 19.234485,2.11719 c 4.555605,0.0764 8.909035,0.45531 13.407175,0.15189 4.83087,-0.61572 10.21528,0.49289 14.37666,0.11212 0.22635,2.12505 4.59513,-0.50263 3.29577,1.83933 4.40583,-2.08734 8.32818,4.10716 6.85535,8.30256 -0.35037,9.37968 -0.39795,18.77141 -0.69579,28.14952 -1.9989,-2.02573 -1.74992,-10.07184 -2.26636,-14.46548 -3.03351,0.52844 -2.47286,7.78608 -6.09944,9.79704 -3.18838,4.37811 -8.64533,3.90338 -13.37189,3.48085 -7.59048,-0.29009 -15.29113,0.029 -22.837587,-0.35673 -5.126833,-2.39218 -9.231935,-6.99407 -11.030743,-12.35873 -3.62128,-0.49912 -0.661712,6.10125 -1.226826,8.56157 -0.478215,2.09387 1.500666,0.99795 -0.109037,3.05718 0.198899,3.13691 0.145834,6.15871 0.445246,9.23951 0.848633,6.30082 -2.510135,-1.90186 -1.516764,-4.17957 -0.06684,-11.21071 -0.961131,-22.37306 0.376918,-33.51785 0.015,-5.23581 5.244845,-7.82028 9.894051,-7.40655 3.497661,0.003 6.824952,-0.34927 10.503267,-0.40666 z m -25.884725,1.3224 c -2.158669,2.68804 -0.934058,4.12161 0,0 z m 60.56323,1.5875 c -0.12573,0.0739 0.37638,0.24034 0,0 z m -26.64334,2.54144 c -3.04657,-0.89421 -2.36951,1.93741 -2.4846,3.81889 -0.2515,1.57649 0.70249,4.38576 -1.871521,3.58721 -5.792344,0.0987 -11.586493,0.13221 -17.376916,0.31333 -0.112603,3.36888 -0.04984,6.74145 -0.06615,10.11204 3.222002,1.18291 6.946867,0.61934 10.78177,0.65113 2.623137,0.0917 7.853647,-0.55335 7.306017,1.31878 2.13136,0.83286 -2.299614,9.26008 3.13624,6.08496 1.67444,0.84848 3.57247,-1.24878 5.72636,-1.09258 0.14609,-1.74851 -2.24578,-7.86577 1.49236,-6.11733 4.77547,0.0988 9.65392,-0.65907 14.36036,0.10439 2.13033,0.1412 3.28749,-0.84609 2.73081,-3.58857 -0.24312,-3.21341 1.7326,-9.10685 -3.48701,-7.66647 -4.93154,0.026 -9.86339,0.0372 -14.79482,-0.013 0,-2.44481 0,-4.88962 0,-7.33443 -1.81723,-0.0698 -3.63361,-0.19429 -5.4529,-0.17839 z m 25.69249,24.91838 c -0.97318,2.44207 0.0401,5.40249 0.008,6.62797 -1.92318,2.23173 1.40023,1.33633 -0.8618,4.123 -0.76242,2.14012 -4.2291,6.38738 -1.97295,5.92047 -1.33544,1.31999 -1.2129,2.49794 0.50673,0.93953 -1.81323,1.5292 -3.3778,5.50781 0.0719,4.27762 -1.93768,3.46785 3.62034,-1.39977 0.48676,2.19418 -0.79065,1.64159 0.90562,2.60573 -1.13686,4.09587 3.17821,-1.81774 -0.3609,1.0458 1.63969,1.86759 1.70251,1.46615 -0.0886,5.63057 -1.50104,5.33406 -0.71462,2.9102 -5.05504,1.89057 -7.54495,1.30325 -2.98437,1.52559 -5.42281,-0.46637 -7.57335,-0.10113 -2.14231,1.10835 -5.88162,0.72972 -8.05643,-0.43125 -0.38573,2.63061 -4.627919,0.18191 -7.011244,0.86568 -0.06847,-2.51437 -2.313484,2.44564 -3.624294,-0.27316 -3.050249,1.59652 -4.708585,-2.9532 -7.748972,0.32524 -3.001662,0.94783 -5.07918,-3.41581 -3.348492,-4.89642 -2.339403,-1.68931 -2.765242,-7.40514 -1.65997,-10.3211 2.994061,-1.22934 -2.207597,-0.24027 -0.807094,-3.27411 -1.689142,-3.38684 -1.359858,-8.69642 -1.165996,-11.16278 0.359408,-2.6341 -0.164562,-8.72482 2.618095,-3.52664 2.794934,3.42618 6.949198,5.9808 11.516346,5.40467 4.567804,-0.0659 8.473111,0.2645 13.008421,-0.0392 5.49637,-0.34444 11.324,1.68502 16.54257,-0.63377 4.42272,-1.44812 4.18498,-5.70754 7.61474,-8.6196 z m -1.83554,8.52351 c -0.11834,0.0649 0.3209,0.22336 0,0 z m 4.37027,0.54364 c 2.15545,3.23304 0.0409,7.98683 0.62123,11.80788 -0.19799,4.55716 0.0148,9.21069 -0.37454,13.71842 -1.40718,3.90721 -5.09944,6.65965 -9.31636,6.57002 -2.1582,0.44408 -5.41167,-0.78342 -1.24753,-0.81916 3.94312,0.50403 8.09574,-1.40878 9.3939,-5.40052 1.61561,-6.00738 -0.83779,-12.17144 -0.215,-18.19076 2.09617,-2.02655 -0.16438,-5.43805 1.1383,-7.68588 z m -54.800788,10.43657 c 1.426135,2.97771 -0.107592,8.09785 1.121893,11.75845 -0.78379,1.58111 1.407526,6.05674 -0.695619,4.07851 -0.684071,-5.02435 -2.230356,-11.40076 -0.426278,-15.83696 z m 48.695218,1.19062 c 1.06625,0.7124 -1.03011,0.62354 0,0 z m -11.19932,2.64584 c -3.0018,1.0199 -0.76438,7.31546 -5.40745,4.58278 -0.29412,-0.24889 4.74881,-2.14664 0.43463,-2.36742 -2.2598,0.1834 5.77209,-1.46454 1.10669,-1.97632 -2.16334,0.0774 -5.86738,-1.05388 -4.77834,2.34479 -0.59996,2.54887 0.61891,4.56654 1.823,2.74757 1.04741,1.23005 4.73798,1.54598 5.76412,0.17858 0.67006,-2.8213 3.61862,3.28702 3.30679,-0.64273 -0.70444,-1.50982 -0.53535,-4.16282 -2.24944,-4.86725 z m -18.889799,0.0119 c -3.908139,0.0542 -2.107956,9.66868 2.211757,5.63191 -1.071356,-1.15109 -4.161445,-1.16011 -0.808875,-2.22152 1.053096,-1.7296 -3.503745,-1.17136 0.09313,-1.98643 1.656334,-1.05783 -0.675526,-1.64745 -1.496012,-1.42396 z m -4.735628,0.0191 c -2.595547,0.75177 -3.970231,9.53467 -0.347141,4.76042 4.501179,4.84083 2.281874,-4.03038 0.347141,-4.76042 z m 7.308081,0.23255 c -0.362734,3.15636 -0.01424,8.77075 4.113196,4.77936 2.01188,-3.39607 -0.93239,-5.33409 -4.113196,-4.77936 z m 22.257036,0 c -1.58152,1.76817 -1.77929,1.35744 -3.53455,0.0191 -0.92899,1.14853 2.29001,9.22836 3.04073,3.45837 -0.0423,-0.84228 2.3948,-3.40474 0.49382,-3.47744 z m -17.09766,0.13229 c -0.27055,2.32682 0.79604,9.12899 1.6787,3.49941 -0.37908,-1.52616 0.91628,-4.22502 -1.6787,-3.49941 z m -3.0794,1.31826 c 2.48609,1.3714 -1.445509,5.19821 -0.46399,0.84468 0.0707,-0.21441 0.0185,-0.91469 0.46399,-0.84468 z m -29.258162,8.1747 c 0.545304,0.72288 -0.346869,0.92471 0,0 z m 3.114539,0.0315 c 0.57082,1.69338 0.974967,7.67806 0.161371,2.79646 -0.07483,-0.93083 -0.1086,-1.86426 -0.161371,-2.79646 z m 4.499984,3.30729 c 0.580899,0.53753 -0.88553,0.59954 0,0 z m 0.497127,1.10795 c 1.079505,0.38858 -1.646744,1.16515 0,0 z m 0.545703,1.00872 c 1.066272,0.7124 -1.03013,0.62353 0,0 z m 1.116728,0.55242 c 1.995833,0.31744 -0.427217,2.08743 0.178639,0.271 -0.596796,0.48936 -1.924598,0.77106 -0.178639,-0.271 z m 1.567346,0.91054 c 4.103417,1.19566 -1.852368,1.73121 0,0 z m 31.015675,0.092 c 1.74523,-0.19312 7.71872,0.10106 2.97798,0.7439 -7.04895,-0.0218 -14.15743,0.21571 -21.167565,-0.50669 6.057865,-0.22748 12.129305,-0.19492 18.189585,-0.23721 z m -27.263966,0.69453 c 3.380239,0.48951 -4.616242,0.45505 0,0 z" /></g></svg>
