<svg xmlns="http://www.w3.org/2000/svg" xml:space="preserve" width="94.356" height="145.35" viewBox="0 0 24.965 38.457"><path d="M24.88 27.966q.146.556.04.887l-.29.926-.252.767-.542 1.6q-.688 1.906-.847 2.938-.145.939-.516 2.209l-.04.12-.25.634q-.226.357-.61.384l-.158.026q-.185 0-.45-.172l-.265-.238-.158-.145q-.12-.08-.53-.16l-1.164-.21-3.056-.226-1.891-.106-1.39-.119-3.148-.198-.675.013-.264-.013-.33-.027q-.107 0-.16.053l-.119.212-.211.357q-.16.185-.358.185-.25 0-.436-.264-.278-.384-.609-1.27l-.357-.887-.86-1.984q-.595-1.243-1.693-3.069l-.953-1.614-1.164-1.998-.41-.648q-.49-.714-.675-1.177-.172-.45-.013-.807.185-.304.543-.424-.172-1.084 0-1.494l.529-1.31-.04-.212q-.04-.423.344-1.217l.476-1.15.014-.014v-.013l1.852-4.525q.185-.476.37-.661l-.119-.476q-.093-.305.066-.45.291-.252.437-.715l.198-.886.066-.463.463-2.804.252-2.302.105-1.151q.067-.715.239-1.059l-.384-.939-.04-.093-.159-.529q-.04-.357.199-.542.172-.132.78-.199L6.4.304l.886-.04.582.014 1.588.198 1.35.172.832.04 2.726-.212 1.931-.198L18.73.013 18.994 0q.317 0 .582.172l.423.41.675.86q.291.516.304 1.045l-.092 11.933q-.027.251-.199.304l-.198.08.026.132 1.813 5.993q.569 2.01.952 3.108.199.582.688 1.601.701 1.495.913 2.328M20.555 2.765l.013-.344-.013-.344q-.053-.225-.304-.53l-.41-.449-.305-.317q-.185-.146-.383-.16l-.715.093-.714.133L16.93.9l-.807.04-1.786.184-1.786.172-3.056-.185L7.802.913l-1.707.092-.37.106q-.026.053.106.384l.37.9.16.41v.04l-.226.383q-.066.185-.08.622l-.132 1.547-.357 2.871-.436 2.593-.212.886q-.172.49-.463.768l.12.463.21-.04 1.43-.04.383-10.384.027-.067 13.4-.119q.133 0 .133.305l-.132 9.472.013.277-.013.278-.159.318-.225.278-.569.767.582.172.331.106.37-.146h.106v-.092l.04-3.837zm-.847 9.869.12-.172.052-.053-.013-.132.04-4.79.092-4.788-12.977.119-.278-.013-.37 10.093 10.82.04h.57q.357.013.529.185.225.225.251.556l.04.423.159.027q-.053-.133 0-.185l.793-1.072.172-.013zm-1.376 1.177q.093-.357-.224-.463l-.583-.04h-8.89l-.833 2.448q-.172.384-.675.701l-.807.569-.357.397-.278.436q-.397.635-.912.715l-.675.013H2.312l-.622 1.495-.106.278q-.04.277.146.436l.423.053h.04l.542-1.6.027-.04H4.97q.635-.013 1.045-.582.609-.847.754-.966l.966-.675q.384-.278.582-.86l.74-2.156.027-.026h9.075q.067 0 .093.132zm.542 1.548.172-.53q.013-.303-.37-.343l-.054-.053-.026.609-.198.542-.516 1.243.251.331zm-.343-.463q.053-.291-.027-.94l-.211.623-.768 1.878.265.265.556-1.35zm-.357-.582h-7.422q.9.119 1.217.754l.053.066.344.662q.199.41.212.688.053.714-.715 1.243-.568.384-1.27.476l-.132.027q.265.08.41.33l.027.053.185.37.119.398q.013.37-.344.621-.291.212-.688.252-.794.066-.979-.582l-.026-.41.026-.41.013-.04q.08-.437.662-.595-1.059-.12-1.31-.993-.106-.357-.053-.873l-.145.384q-.12.317-.424.569l-.608.397.674-.014q.358.133.477.635.092.384.04.847l-.014.027q.238.41.265.82.026.476-.252.74l-.158.093h3.307q-.159 0-.291-.304-.159-.33-.132-.728.04-.397.225-.714l-.014-.04q-.053-.423.04-.767.119-.397.384-.556l.688-.053q.33.08.608.358.304.277.344.595v.053q.026.357-.159.674-.132.212-.41.318l-.33.053-.053.132-.358.57q-.277.383-.49.41h3.374q.238-.027.37-.173l.212-.357 1.323-3.241q-.33-.265-.7-.397-.12.106-.371.106l-.159-.013q0 .317-.08.41-.079.092-.41.158l-.145.027q.265.08.41.344l.04.053.185.37.106.397q.013.37-.344.609-.304.211-.688.251l-.595-.093q-.291-.158-.37-.476l-.04-.159.04-.674v-.04q.065-.384.608-.569-.49-.04-.966-.225-.08-.013-.106-.251l-.013-.053q-.053-.754-.026-1.164.04-.728.396-1.032.265-.251.688-.251.357 0 .688.211.331.225.463.57.331.118.543.224l.185.145.066.239.013.066q.476.145.9.436l.29-.688zm1.376.198-.437-.132q.185.291.026.886l-.317.874-.53 1.296.107.198.158-.463.913-2.487zm-3.268 1.31v-.013l-.979-.397q-.066-.026-.093-.198-.04-.186.027-.172l.159.026q-.318-.357-.94-.265-.621.106-.82.57-.106.264-.119.714l.026.74q.82.252 1.43.172.489-.04.595-.158l.04-.053-.424-.172q-.066-.027-.093-.212t.027-.159l.648.16q-.12-.213.026-.437.16-.225.437-.16zm-.648 2.342q-.093.529-.715.635-.635.092-.926-.331-.04.185 0 .317.066.212.437.239l.555-.04.556-.318.132-.185.053.013.027-.013zm-.158-.291q-.066-.133-.384-.16l-.423.014q-.635.185-.622.476.013.186.357.225l.477-.04q.542-.145.595-.515m.556 4.445 1.706-4.194-.212-.41-1.547 3.783-.305.556q-.198.225-.555.225l-2.514.013-2.5-.013H3.582l-.701.013-.715-.013q-.621-.053-.7-.966l-.49 1.204q-.12.265-.013.49.105.238.41.264h2.182l5.768.04 5.782-.04q.396-.013.621-.304zM.936 23.76h13.322q.807.026 1.389.516h.013q.304.092.516-.344l.225-.702 1.561-4.392-.093-.357-1.786 4.353q-.198.515-.343.648-.199.159-.649.159H2.351l-.78.013q-.463-.04-.661-.305l-.067-.079zm15.214-3.003 1.296-3.175-.251-.318-1.059 2.58-.317.846q-.251.49-.635.543H2.39q-.608 0-.846-.291l.013.145-.027.08q.053.886.57.926h11.932l.595.013.582-.013q.37-.04.622-.516zm3.28 2.884.146.052q.132.067.265.225.25.305.264.78.013.464-.225.795l.013.119-.9 1.997-.052-.013-.04-.053-1.032-2.341-.145-.318q-.08-.185-.053-.33.04-.2.172-.503l.225-.503-.066-.304q-.014-.199.119-.596l.053-1.614q0-1.005-.12-1.733l-1.72 4.816-.131.344q-.093.158-.225.198l.264.463 1.72 4.114 3.44 8.229.105.317q.318-.066.516-.608l.212-.82.238-1.112.199-1.124q.105-.53.357-1.257l.45-1.217.423-1.336.423-1.336.159-.384.04-.41q-.066-.384-.49-1.35-1.164-2.698-1.614-4.286l-1.442-4.788-.9-2.977q-.132-.12-.198-.106-.119.013-.145.066l-.053.106-.106.225-1.045 2.897q.344.926.41 2.302l-.013 2.315.29.066.04.106.067.45zm.543 1.349q.092-.37-.04-.701-.145-.384-.49-.477l-.052-.119-.172-.873-.304-.066v.146q-.014.33-.344.383-.331.053-.437-.225l-.013.027-.04.145.013.093.265.886.013.053-.013.053q-.106.04-.172.291-.053.305.066.609.132.344.397.436l.437.027q.343-.027.595-.225l.08-.185.052.04zm1.415 12.806-4.881-11.721q-.344-.847-.543-1.125-.383-.555-1.018-.74l-.9-.093-.913.026H.843q-.185.04-.304.159t-.092.238l.119.238.661 1.059.53.926 1.746 2.963 1.468 2.606q.437.847 1.39 3.149l.277.727.357.675q.198.264.384-.066l.317-.516q.172-.132.57-.093l.608.053 1.11.013 3.692.278 4.088.252 1.852.238.529.105q.317.053.503.172l.33.292q.265.238.397.211zm-5.715-11.708q-.463-.9-.873-1.204-.33-.238-.926-.304l-1.018-.066q-.106 0 .013-.053l.185-.066.979.052q.595.053.94.252.33.198.595.582l.423.714zm3.215 1.098.648-1.416-.635.106q-.357-.04-.529-.29-.185-.252-.264-.742-.106-.555.172-.7l-.08-.226-.357.9zM6.056 15.636q-.794.067-.966-.568-.053-.212 0-.833v-.04q.053-.291.357-.463.265-.159.596-.172.515 0 .714.384l.026.052.186.37.119.398q.013.37-.344.622-.291.211-.688.25m.04-1.005q.542-.145.595-.529-.066-.132-.384-.158l-.423.026q-.199.04-.384.159-.251.145-.238.317.013.185.357.225zm.874.08-.12-.304q-.092.515-.714.621-.635.106-.926-.317-.04.185 0 .304.066.212.437.251l.555-.052.556-.305.132-.185.053.013zm.793.41.622-1.812H5.328l-.569.026q-.29.053-.45.344l-.317.74-.291.755-1.244 3.043 1.958-.014q.635-.013 1.045-.582l.755-.965.965-.662q.384-.278.582-.873m-3.214 2.646-.596-.093q-.29-.159-.37-.476-.066-.199 0-.834v-.04q.053-.277.357-.462.278-.159.595-.159.503-.013.715.384l.04.053.185.37.106.397q.013.37-.344.608-.305.212-.688.252m.912-.913-.119-.318q-.092.53-.714.635-.635.093-.926-.33v.317q.066.212.437.238l.555-.04q.344-.079.556-.317l.132-.185.053.013zm6.893-.225.08-.251-.345-.768q-.08 1.085-1.521 1.35-1.429.264-1.879-.675-.066.49-.04.794.08.608.927.754l1.31-.08q.78-.224 1.203-.7zM8.08 18.865q-.04-.013-.04-.106v-.08q.238.133.423.45l-.026-.079q.132-.886-.33-1.138l-.675-.053q-.344.106-.596.344-.278.291-.304.424-.08.383.185.648.252.251.622.264l.04.04q.476 1.138.9 1.098.237-.013.343-.49.08-.396-.066-.753-.145-.358-.476-.57M2.444 20.85h5.808q-.199-.026-.41-.304l-.331-.53-.106-.237-.066-.04-.066-.013-.423-.186q-.186-.119-.292-.357-.158-.436-.105-.674l.013-.027-.53.754q-.33.344-.86.357h-1.15l-.516-.04-.516.04-.08.133zm7.753-6.535h-.609l-.198-.013-.199.013-.026.066-.133.41q.45-.383 1.165-.476m.45 2.222q.502-.145.846-.423.437-.357.45-.807-.066-.463-.78-.582l-1.072.027q-.516.119-.913.423-.516.383-.397.847.12.463.794.582zm.16 2.183q-.067-.132-.385-.158l-.423.026q-.198.04-.384.159-.25.158-.238.317.014.185.357.225l.477-.04q.542-.145.595-.529m2.646-.158-.304-.384q-.305-.278-.715-.344-.463-.066-.714.238-.251.318-.199.953l.358-.344q.105.158.053.185-.503.317-.583.913-.04.33.027.595.106.37.41.278.397-.12.78-1.112h.014q.397-.013.608-.25.172-.2.252-.61zm-2.5.463q-.093.515-.715.621-.635.106-.926-.317v.304q.066.212.45.238l.556-.04.555-.304.132-.198.053.026.027-.026zm2.354 12.898H10.29l-.092-.093-.027-.132q-.185-.926-.688-1.852-.529-.966-1.217-1.574l-.053-.133q-1.31-.542-1.799-1.693-.08-.172.04-.33.119-.146.277-.133-.066-.304.12-.648l3.532.092.026.014q.225-.093.41.172.133.198.133.41.582.33.78.846.132.41-.053.754l1.614 4.049q.08.251.013.251m-1.878-3.969q-.33.304-.767.41l-2.077-.092q.595.648 1.045 1.548.436.846.635 1.733h2.632zm-.556-1.15q-.172-.358-.516-.345l-.08-.013q.107.291.398.357zm.728.953-.132.159 1.508 3.638h.132zM10.924 27l-2.963-.12q-.476-.026-.675-.158.569.728 1.495.952l1.72.106q.238-.053.357-.29.093-.226.066-.49m-.516-.212q-.145-.159-.198-.37-.133-.067-.146-.225-.026-.159.08-.265l.053-.238.04-.08-2.964-.079-.33-.013q-.2.106-.093.516l.079.106.145.29q.278.265.874.305l.939-.013zm-.145-.926.092-.013q.265 0 .53.132-.04-.291-.292-.357-.238-.066-.33.238m8.652 10.372-9.578-.291q-.146 0-.067-.08.08-.092.186-.092l9.578.29q.145.014.066.093zm1.15.49-.198.026q-.132 0-.04-.053.212-.133-.304-1.23l-.675-1.284q-.026-.053.12-.092l.198.013.794 1.667.225.502q.105.305-.12.45"/><path d="m19.536 12.872-.793 1.072q-.053.052 0 .185l-.16-.027-.039-.423q-.026-.33-.251-.556-.172-.172-.53-.185h-.568l-10.822-.04.37-10.093.279.013 12.977-.12-.092 4.79-.04 4.789.013.132-.053.053-.119.172-.013-.172h-.265v.41zM7.564 2.977v.277L8 3.241v-.264zm-.516.29h.172l-.013-.277H6.77l-.013.45h.278zm-.013.516h-.278l-.013.436.278.013zm-.291 1.178h.278l.013-.397h-.278zm.278.317h-.278l-.014.397.278.014zm-.027.727-.265-.013-.013.397.278.013zm1.39-3.043.012.278.45-.013V2.95zm3.307-.066.014.278.463-.013-.014-.278zm1.667-.04v.278l.463-.013v-.265zm-.833.027v.265h.463V2.87zm-2.487.04V3.2l.463-.013v-.264zm.833-.014v.278l.463-.013v-.278zm-1.667.04.014.265h.463l-.014-.278zm9.591.053v-.278l-.463.013v.278zm-.833.04-.013-.278-.463.013.013.278zm-2.95-.212v.265h.463v-.278zm-.834.013.014.278.45-.013V2.83zm2.117-.04h-.45v.278l.463-.013zm3.07 2.725h.277v-.41h-.278zm0-.728.278-.013-.013-.41-.265.013zm0-.794h.265v-.463h-.278zm-.013-1.018v.185h.278l-.013-.463-.463.013.013.278zm-2.222.066v-.278l-.463.013v.278zm2.249 3.201h.277l-.013-.41h-.264zm.013 1.469h.278l-.014-.41h-.264zm.013 1.481.265-.013v-.41l-.278.013zm-.013-.74h.278v-.41h-.278zm-.013-1.469h.277v-.41h-.277zm.04 4.406h.277v-.41h-.278zm0-.741h.265v-.41h-.278zm.013 1.468h.265v-.41h-.278zm-.026-2.196h.278v-.41h-.278zm.026 13.706-.105-.437-.067-.45-.04-.106-.29-.066.013-2.315q-.066-1.376-.41-2.302l1.045-2.897.106-.225.053-.106q.026-.053.145-.066.066-.013.199.106l.9 2.977 1.441 4.788q.45 1.588 1.614 4.287.424.965.49 1.35l-.04.41-.159.383-.423 1.336-.423 1.336-.45 1.217q-.252.728-.357 1.257l-.199 1.124-.238 1.112-.212.82q-.198.542-.516.608l-.105-.317-3.44-8.229-1.72-4.114-.264-.463q.132-.04.225-.198l.132-.344 1.72-4.816q.119.728.119 1.733l-.053 1.614q-.133.397-.12.596l.067.304-.225.503q-.132.304-.172.502-.026.146.053.331l.145.318 1.032 2.341.04.053.053.013.9-1.997-.014-.12q.238-.33.225-.793-.013-.476-.264-.78-.133-.16-.265-.226zm.424-7.845q.04.105.145.079l.04-.013q.106-.04.08-.146l-.067-.225q-.053-.105-.145-.066l-.04.013q-.106.027-.08.146zm.185.568.066.212q.04.106.146.08l.04-.014q.105-.04.079-.145l-.066-.225q-.053-.106-.146-.066l-.04.013q-.105.026-.079.145m.251.768.067.225q.052.105.145.066l.04-.013q.106-.027.08-.146l-.067-.212q-.053-.105-.146-.066l-.04.013q-.132.027-.079.133m.252.794.066.211q.04.106.145.08l.04-.014q.132-.053.08-.145l-.067-.225q-.053-.106-.145-.066l-.04.013q-.106.026-.08.146m.252.78.066.212.146.08.053-.014q.105-.053.066-.146l-.066-.225q-.053-.105-.146-.066l-.04.014q-.105.026-.079.145m.251.767.08.225q.026.12.132.066l.053-.013q.12-.026.066-.145l-.066-.212q-.053-.106-.146-.066l-.04.013q-.105.026-.079.132m1.02 3.136.078.211q.027.12.146.066l.04-.013q.105-.026.079-.145l-.08-.212q-.026-.119-.145-.066l-.04.013q-.105.027-.079.146m-.754-2.342.066.212q.027.106.146.08l.04-.014q.105-.053.079-.146l-.08-.225q-.026-.119-.145-.066l-.04.014q-.119.026-.066.145m.463 1.072.04-.014q.106-.04.08-.145l-.08-.225q-.027-.12-.146-.066l-.04.013q-.119.027-.066.146l.067.211q.04.106.145.08m.04.476.066.225q.053.106.145.066l.04-.013q.106-.027.08-.146l-.067-.211q-.04-.106-.145-.08l-.053.013q-.106.053-.066.146m.516 1.56.066.226q.053.106.145.066l.053-.013q.12-.027.066-.146l-.066-.211q-.04-.106-.145-.08l-.053.013q-.106.053-.066.146m.264.78.066.212q.04.106.146.08l.04-.014q.105-.04.079-.145l-.08-.225q-.026-.12-.145-.066l-.04.013q-.119.026-.066.145m.265.781.066.212.145.079.04-.013q.106-.04.08-.146l-.08-.225q-.026-.119-.145-.066l-.04.013q-.12.053-.066.146m.264.78.08.212q.026.12.145.066l.04-.013q.106-.053.066-.145l-.08-.212q-.026-.106-.145-.08l-.04.027q-.119.026-.066.145m-6.76-1.164q-.066-.092-.158-.04l-.04.027q-.093.066-.027.159l.12.185q.052.106.158.04l.027-.013q.106-.08.04-.16zm.424.701q-.067-.092-.16-.04l-.039.027q-.106.053-.04.159l.106.185q.04.106.16.053l.026-.026q.105-.04.052-.146zm.476.94-.093-.199q-.04-.106-.158-.053l-.04.014q-.106.053-.053.158l.093.199q.052.106.158.053l.04-.014q.093-.052.053-.158m.344.754-.093-.199q-.04-.105-.159-.066l-.04.013q-.105.053-.052.16l.092.198.053.066h.093l.04-.013q.106-.04.066-.16m.29.768-.078-.212-.053-.066h-.093l-.04.014q-.106.052-.066.158l.08.212q.04.093.158.066l.04-.026q.106-.053.053-.146m.304.767-.08-.211q-.039-.12-.145-.066l-.053.013q-.105.053-.053.145l.08.212q.053.12.145.066l.04-.013q.12-.04.066-.146m.304.768-.092-.212q-.027-.119-.146-.066l-.04.013q-.092.04-.066.146l.093.211q.027.12.146.066l.04-.013zm.291.754-.079-.212q-.04-.093-.145-.066l-.04.026q-.12.027-.066.146l.08.212q.052.105.145.066l.04-.014q.105-.04.065-.158m.305.767-.08-.212q-.04-.105-.158-.066l-.04.013q-.093.04-.066.16l.092.21q.027.107.146.054l.04-.013q.092-.04.066-.146m.29.767-.079-.211q-.053-.106-.145-.066l-.04.013q-.106.04-.066.158l.08.212q.04.093.145.066l.053-.026.053-.053zm4.021-5.053.093.198q.053.12.146.066l.052-.013q.106-.053.067-.119l-.133-.304q-.026-.053-.119 0l-.04.013q-.105.04-.066.159m.305.754.066.212q.04.105.145.079l.04-.013q.132-.027.08-.146l-.067-.225q-.053-.106-.145-.066l-.04.013q-.106.04-.08.146m.49.714q-.026-.132-.132-.08h-.053q-.093.054-.08.146l.04.199q0 .119.133.119h.04q.105 0 .105-.12zm-.106.741-.04-.013q-.118-.027-.145.04l-.106.238q-.053.105.066.145l.04.013q.093.053.146-.053l.106-.238q.052-.105-.067-.132m-4.405 3.612-.08-.212q-.039-.106-.158-.066l-.04.013q-.092.04-.066.146l.093.211q.026.12.145.066l.04-.013q.106-.053.066-.145m4.075-2.845-.04-.013q-.093-.053-.146.053l-.092.212q-.027.119.066.158l.04.014q.119.04.158-.066l.08-.212q.053-.093-.066-.146m-.305.754-.04-.013q-.092-.04-.145.066l-.08.212q-.052.12.067.146l.04.026q.119.026.145-.066l.08-.212q.04-.119-.067-.159m-.277.768-.053-.014q-.093-.04-.146.067l-.08.211q-.026.12.08.146l.04.013q.106.053.145-.066l.08-.212q.026-.106-.066-.145m-.278.78-.053-.013q-.093-.053-.146.066l-.066.212q-.053.119.066.145l.053.014q.093.04.146-.067l.066-.211q.026-.12-.066-.146M6.982 6.72h-.265l-.013.397h.278zm-.013.715H6.69v.397l.264.013zm-.014.727-.277-.013v.397l.264.013zm-.013.715h-.278l-.013.397h.278zm-.013.714H6.65l-.013.397.278.013zm-.027.728-.264-.013-.013.396.277.014zm-.013.714h-.278v.397h.265zm-.013.714h-.278v.397l.265.014zm-.013.727-.278-.013-.013.397.278.013zm3.4 13.388q.092-.304.33-.238.252.066.291.357-.264-.132-.529-.132zm.145.926-1.521-.066-.94.013q-.595-.04-.873-.304l-.145-.291-.08-.106q-.105-.41.093-.516l.33.013 2.964.08-.04.079-.052.238q-.106.106-.08.265.013.158.146.225.053.211.198.37m.516.212q.027.264-.066.49-.12.237-.357.29l-1.72-.106q-.926-.224-1.495-.952.199.132.675.159zm.675.754 1.508 3.797h-.132l-1.508-3.638zm-.728-.952h-.198q-.291-.066-.397-.357l.08.013q.343-.013.515.344m.556 1.151 1.468 3.599h-2.632q-.199-.887-.635-1.733-.45-.9-1.045-1.548l2.077.092q.436-.106.767-.41m11.218 4.578-.04-.014q-.092-.026-.145.08l-.053.225q-.04.092.08.145h.04q.092.04.145-.08l.053-.211q.052-.093-.08-.145m-.198.793-.04-.013q-.119-.026-.145.093l-.04.225q-.027.105.092.132h.04q.12.026.146-.093l.04-.211q.026-.106-.093-.133m-.146.807-.04-.013-.092.026-.04.067-.04.225q-.026.132.093.132l.04.013.092-.026.04-.067.04-.224q.026-.106-.093-.133m-.132.807-.04-.013q-.106 0-.132.106l-.04.225.106.132h.04q.106.026.132-.093l.027-.224q.026-.106-.093-.133m-2.183-1.878-.08-.212q-.039-.093-.145-.066l-.04.026q-.119.027-.066.146l.08.212q.04.092.145.066l.053-.027q.106-.026.053-.145m.304.767-.079-.212q-.04-.092-.146-.066l-.04.027q-.118.026-.065.145l.079.212q.04.092.146.066l.04-.013q.105-.04.065-.159m.331.847-.119-.291q-.026-.12-.145-.067l-.04.014q-.106.053-.066.145l.119.291.106-.013.052-.013zm.265.688-.08-.212q-.04-.106-.158-.066l-.04.013q-.093.04-.066.145l.092.212q.027.12.146.066l.04-.013q.105-.053.066-.145m1.164.383-.053-.013q-.106 0-.132.106l-.04.211q0 .133.106.133l.04.013.132-.093.04-.225q.026-.105-.093-.132m-.86.37-.08-.211q-.052-.093-.158-.053l-.04.013q-.106.053-.053.146l.08.211q.04.106.158.067l.04-.027.053-.053zm.251.529q-.053-.106-.158-.053l-.04.026q-.106.053-.053.146l.119.225q.053.092.159.04l.026-.027q.106-.08.04-.159zm.463-.08-.04-.013q-.118-.026-.145.093l-.053.198q-.026.106.08.159l.052.013q.106.027.133-.08l.066-.237q.026-.133-.093-.133"/><path d="m18.332 13.811-.079.265q-.026-.132-.093-.132H9.085l-.026.026-.741 2.156q-.198.582-.582.86l-.966.675q-.145.119-.754.966-.41.569-1.045.582h-2.21l-.026.04-.542 1.6h-.04l-.423-.053q-.185-.159-.146-.436l.106-.278.622-1.495h1.786l.675-.013q.515-.08.912-.715l.278-.436.357-.397.807-.569q.503-.317.675-.701l.833-2.447h8.89l.583.04q.317.105.224.462m.199 1.085-.185.476-.556 1.35-.265-.265.768-1.878.211-.622q.08.648.027.939m-2.25.926-.052-.013q-.278-.066-.437.159-.145.224-.026.436l-.648-.159q-.053-.026-.027.16.027.184.093.21l.423.173-.04.053q-.105.119-.595.158-.608.08-1.429-.172l-.026-.74q.013-.45.12-.715.198-.463.82-.569.621-.092.939.265l-.16-.026q-.065-.014-.026.172.027.172.093.198l.979.397zm3.268-1.31-.08.172-.913 2.487-.158.463-.106-.198.529-1.296.317-.874q.16-.595-.026-.886zm-3.916 3.652.119.317-.027.013-.053-.013-.132.185-.556.318-.555.04q-.37-.027-.437-.239-.04-.132 0-.317.291.423.926.33.622-.105.715-.634m.516 2.593-.318.82q-.251.476-.622.516l-.582.013-.595-.013H2.1q-.516-.04-.569-.926l.027-.08-.013-.145q.238.29.846.29h12.793q.384-.052.635-.542l.317-.846 1.059-2.58.251.318zM.936 23.76l-.093-.49.067.08q.198.264.661.304l.78-.013h12.74q.45 0 .649-.16.145-.132.343-.647l1.786-4.353.093.357-1.561 4.392-.225.702q-.212.436-.516.344h-.013q-.582-.49-1.39-.516zm19.036 1.23-.159.317-.053-.04-.08.186q-.25.198-.594.225l-.437-.027q-.265-.092-.397-.436-.119-.304-.066-.609.066-.251.172-.29l.013-.054-.013-.053-.265-.886-.013-.093.04-.145.013-.027q.106.278.437.225.33-.053.344-.383v-.146l.304.066.172.873.053.12q.344.092.49.476.131.33.039.7M6.969 14.712l-.027.026-.053-.013-.132.185-.556.305-.555.052q-.37-.04-.437-.25-.04-.12 0-.305.291.423.926.317.622-.106.715-.621zm5.384 1.918-.265.423q-.423.477-1.204.702l-1.31.079q-.846-.146-.925-.754-.027-.304.04-.794.45.94 1.878.675 1.442-.265 1.521-1.35l.344.768zm-6.892.225-.026.013-.053-.013-.132.185q-.212.238-.556.318l-.555.04q-.37-.027-.437-.239v-.317q.291.423.926.33.622-.105.714-.635zm2.619 2.01q.33.212.476.57.146.357.066.754-.106.476-.344.49-.423.039-.9-1.099l-.039-.04q-.37-.013-.622-.264-.264-.265-.185-.648.026-.133.304-.424.252-.238.596-.344l.674.053q.463.252.331 1.138l.026.08q-.185-.318-.423-.45v.079q0 .093.04.106m2.87.159.133.304-.027.026-.053-.026-.132.198-.555.305-.556.04q-.384-.027-.45-.239v-.304q.291.423.926.317.622-.106.715-.621m2.5-.463-.013.119q-.08.41-.252.608-.211.238-.608.251h-.013q-.384.993-.781 1.112-.304.092-.41-.278-.066-.265-.027-.595.08-.596.583-.913.052-.027-.053-.185l-.358.344q-.052-.635.199-.953.251-.304.714-.238.41.066.715.344z"/><path d="m6.095 14.631-.476.04q-.344-.04-.357-.225-.013-.172.238-.317.185-.12.384-.159l.423-.026q.318.026.384.158-.053.384-.596.53"/></svg>