<svg xmlns="http://www.w3.org/2000/svg" xml:space="preserve" width="344.178" height="490.151" viewBox="0 0 91.064 129.686"><path d="m60.21 213.009-.464.088-.155-.403-.155-.404.195-.344.195-.343 1.39-2.249 1.389-2.249 6.404-10.186 6.404-10.187.345-.529.344-.53-.835-.874-.835-.874v-2.22l.58-.812.579-.812-.746-.44-.746-.441-.462-.975-.463-.975.52-1.212.52-1.212 9.191-13.89 9.19-13.891 3.437-5.16 3.437-5.159-.282-.46-.281-.459.002-.466.003-.467.776-1.353.775-1.352.83-.698.83-.698h1.71l.514.388.513.389.168.008.167.008.971-1.63.971-1.63-.345-.34-.344-.339-3.837-1.703-3.836-1.704-1.793-.825-1.792-.825h-.436l-.494 1.094-.493 1.095-.492.625-.492.626h-1.789l-.693-.317-.694-.316-.377-.729-.377-.729v-.745l.785-1.471.784-1.47-4.46-1.896-4.46-1.895-.558-.39-.558-.391v-.97l-.463-.521-.463-.521-1.455-.594-1.455-.594-.207-.193-.208-.193.17-.441.169-.441h.967l1.627.705 1.627.706.789-.466.79-.467 1.519.122 1.519.121 2.63 1.117 2.63 1.117 1.165.643 1.165.643.052-.07.051-.07.727-1.358.727-1.358.605-.323.605-.324.807.177.807.177.31.373.31.373 1.23-1.023 1.23-1.022 1.454-.794 1.456-.793 2.525-1.093 2.526-1.092.998-.823.998-.822 1.45-2.07 1.451-2.071.816-.687.816-.686 1.036-.528 1.035-.529.087-.319.086-.318.284-1.847.285-1.846 1.055-2.122 1.056-2.123 1.882-1.879 1.881-1.878 1.91-1.094 1.912-1.093 2.087-.534 2.086-.533h2.741l2.016.515 2.015.515 1.531.742 1.531.741 1.643 1.636 1.643 1.636.828 1.64.828 1.64.399 1.884.4 1.883-.166 1.9-.166 1.898-.662 1.938-.662 1.937-.098 2.381-.099 2.381-.65 1.725-.65 1.724-2.126 4.493-2.125 4.494-.277 1.058-.278 1.058-.41 2.514-.41 2.514-.433 1.499-.432 1.5.564.912.565.913v1.817l-.312.311-.311.311 1.039.433 1.039.433 2.886 1.29 2.887 1.29.62.406.618.406v1.87l1.257.547 1.257.547.463.405.463.405v.712h-.958l-1.667-.653-1.667-.654-.328-.272-.328-.272-.857.427-.858.428-1.233-.118-1.232-.12-2.25-1.006-2.248-1.006-1.038-.492-1.038-.492-.04.064-.038.065-.741 1.547-.742 1.548-.806.34-.807.338-.815-.228-.814-.229-.596-.68-.595-.681v-1.09l.704-1.294.704-1.294-.109-.08-.108-.081-2.646-1.136-2.646-1.135-3.917-1.732-3.916-1.732-.215.238-.214.237-.855 1.63-.854 1.632.606.82.606.82-.026.905-.025.906-1.006 1.67-1.005 1.671-.385.463-.386.463h-1.156l-.328.728-.328.727-1.344 2.117-1.345 2.117-1.644 2.513-1.644 2.514-5.282 8.07-5.283 8.07-2.903 4.497-2.904 4.498-1.016 1.72-1.016 1.72-.617.838-.618.838-.795.175-.794.174-.832-.415-.833-.415-1.14 1.225-1.142 1.225-.873-.158-.873-.16-.578-.168-.577-.169-.676 1.283-.676 1.283-2.637 4.101-2.638 4.101-1.066 1.72-1.066 1.72-3.907 6.214-3.906 6.215zm24.35-29.605.34.021.17-.443.17-.443-.51-.357-.508-.358-4.366-2.61-4.366-2.608-.186.297-.187.297.463.797.463.798 1.84 1.285 1.84 1.285 1.853.867 1.852.866.397.143.397.142zm1.183-2.662.198.037v-.465l2.448-3.715 2.447-3.715 4.498-6.898 4.498-6.899 5.103-7.737 5.103-7.737-.473-.351-.473-.35-2.404-1.44-2.404-1.439h-.559l-.159.414-.158.414-.312-.193-.311-.192.174.454.174.454-.231-.143-.232-.143-.327.393-.327.394h.613l-.95.833-.948.833-.394.763-.394.762.158.257.16.257-.182.292-.18.293-.22-.355-.22-.356.039.526.039.526-.72 1.225-.718 1.226-.648.699-.648.699-.073.192-.073.192-.218-.073-.218-.072.167.27.167.27-.466.79-.466.789-.206-.326-.207-.325-.004.567-.004.567-.393.15-.392.151.173.45.172.45-.281-.174-.282-.174-.157.41-.157.409.258-.16.259-.16-.158.41-.157.411h-.473v.825l-.264-.163-.265-.164v.825h-.529v.806l-.992 1.573-.992 1.572-.397.013-.397.013.298.194.297.195-1.27 1.984-1.272 1.985-1.783 2.778-1.783 2.778-1.463 2.249-1.464 2.249-.214.089-.213.088.185.308.184.308-.416-.337-.417-.337-.16.417-.16.417.302-.187.302-.187-.191.31-.191.31-.208-.128-.207-.128-.501.366-.502.367-.397-.272-.398-.272.926.839.926.839 2.778 1.402 2.778 1.403zm14.609-35.417h-.123v-.464l.44-.364.44-.363-.317.596-.317.595zm1.067-1.587h-.132v-.265h.265v.264zm-5.512 8.113.177-.176-.177-.176-.176-.177v.706zm15.882-9.198.316.026.412-.588.412-.588v-.552l-3.844-2.245-3.843-2.245-1.752-1.124-1.752-1.125h-.126l-.44.93-.442.928.178.288.178.287 1.754 1.121 1.755 1.122 2.91 1.561 2.91 1.561.53.309.529.308zm2-3.16.198.011v-1.297l-1.124-.757-1.125-.757-3.175-1.876-3.175-1.875-.995-.473-.994-.474-.298.297-.297.297.147.384.147.383 1.94 1.179 1.938 1.178 2.632 1.565 2.631 1.565.676.318.675.32zm17-3.958h.132v-.264h-.265v.264zm-20.903-1.852h.132v-.264h-.264v.264zm22.946-.81.192.017.44-.86.44-.86.295-.208.293-.208.964.14.964.14.548-2.974.548-2.976.293-1.69.292-1.69.53-1.353.529-1.352 2.287-4.75 2.287-4.748.11-1.726.11-1.725-2.047 1.911-2.046 1.912-2.155 1.056-2.155 1.056-1.72.43-1.72.432-2.149-.134-2.148-.134-.457.961-.457.961-3.328 5.556-3.328 5.557-.368.576-.369.576.614.336.613.335 5.953 2.71 5.953 2.71zm-24.533-.248h.132v-.265h-.265v.265zm1.852-10.075.264.02.768-1.389.767-1.388 3.433-5.821 3.433-5.821.364-.586.364-.586-.902-1.663-.902-1.663-.334-1.587-.334-1.588-.062-.086-.063-.085-.752.394-.753.393-.823.883-.823.882-1.074 1.607-1.073 1.608-.96.843-.96.843-1.774.893-1.773.892-1.705.717-1.705.717-1.47 1.001-1.47 1.001-.436.496-.436.495-.133 1.19-.134 1.191-.092.5-.092.5 3.572 1.553 3.572 1.552 2.116 1.036 2.117 1.036zm20.322-13.116 2.067-.131 1.638-.534 1.637-.533 1.39-.79 1.388-.789 1.45-1.324 1.448-1.324.83-1.685.829-1.685.137-1.703.136-1.704-.334-1.42-.335-1.42-.74-1.478-.74-1.478-1.473-1.347-1.473-1.347-1.521-.743-1.52-.743-2.527-.003-2.525-.004-1.99.983-1.99.982-1.737 1.593-1.739 1.592-.816 1.273-.817 1.273-.393 1.113-.392 1.113.186-.01.187-.01.53-.85.528-.85 1.672-.848 1.671-.848 1.768.158 1.769.158 1.115.517 1.116.516 1.142 1.006 1.142 1.005.757 1.39.757 1.391.128 1.783.127 1.782-.622 1.245-.621 1.245-.915.803-.915.803-1.605.76-1.606.76-1.059.035-1.058.035.926.209.926.209zm1.92-5.208h.443l.394-.942.394-.942-.305-1.361-.305-1.361-.757-1.195-.758-1.195-1.185-.815-1.185-.815-1.074-.242-1.074-.241-1.25.233-1.25.234-.136.137-.137.137.957.987.957.987.545 1.395.546 1.394.695 1.384.695 1.384.083.092.083.093.337-.209.337-.208.586-.062.586-.063.167.435.167.436.222-.36.222-.358.279.52.278.521zm-.313-.176h-.132l.163-.265.164-.264h.264l-.163.264-.164.265zm-3.144-.794h-.132v-.264h.264v.264z" style="display:inline;fill:#000" transform="translate(-59.436 -83.412)"/></svg>