<?xml version="1.0" encoding="UTF-8" standalone="no"?>
<!-- Created with Inkscape (http://www.inkscape.org/) -->

<svg
   width="123.08894mm"
   height="146.99779mm"
   viewBox="0 0 123.08894 146.99779"
   version="1.1"
   id="svg1"
   xml:space="preserve"
   xmlns="http://www.w3.org/2000/svg"
   xmlns:svg="http://www.w3.org/2000/svg"><defs
     id="defs1" /><g
     id="layer1"
     transform="translate(-43.455529,-74.984258)"><path
       style="display:inline;fill:#000000"
       d="m 93.759171,141.05214 c -4.707308,-4.29883 -8.230542,-10.60749 -15.019025,-11.63665 -5.685212,-2.37864 -9.998154,-11.50633 -16.638432,-5.77614 -3.109721,2.57543 -3.790585,-3.06334 -5.662184,-4.61677 C 48.123061,106.2849 39.796386,93.533932 30.861758,81.222572 c -4.848063,-4.23731 -3.29258,-12.16588 -10.08965,-15.1886 -2.242407,-2.45747 -6.52248,2.73918 -8.818592,-0.64397 -3.0104675,-5.37929 -9.5058377,-7.13918 -10.3712912,-14.25927 -0.77490405,-2.71982 -3.4058427,-11.85795 0.5205514,-6.72898 3.5199883,-0.20845 6.8647353,-5.37058 1.6864713,-1.0691 -4.16966945,0.24401 -3.18527575,-4.72039 -1.4145538,-7.48195 0.2625077,-5.08137 8.2882553,-14.08076 7.9122793,-14.59999 -4.7796685,2.30241 3.6212,-9.21211 3.366465,-1.89055 1.028859,-0.65042 -0.0073,-3.14082 1.091339,-4.62213 -4.389826,0.0373 0.94597,-2.43745 1.627612,0.73555 2.315205,0.10015 1.56891,3.25906 0.722646,0.80381 -0.05105,4.35331 -0.800299,4.06098 -1.515935,-0.022 -0.556603,-1.5872 1.030823,5.6734 -1.583909,5.02913 -1.815317,0.57846 -1.80664,7.60655 -2.712049,5.36126 2.558989,-9.86343 -2.5106675,5.96522 -3.4301255,4.19614 -1.196785,-2.1867 -0.584267,5.7238 -3.492425,6.72405 -3.57558015,6.69677 7.1136265,-4.64985 3.596751,1.59825 -3.052617,1.56997 -3.792394,3.0738 -0.478228,1.1224 3.7871475,-4.34113 6.2289955,-6.34159 9.0721825,-11.77685 1.274583,-5.16365 4.567372,-12.69008 0.233329,-16.88096 4.204431,-2.8945802 10.103207,0.82237 13.834682,3.07146 3.354148,2.70087 6.776133,6.46824 7.264804,10.84578 0.201304,2.18035 -0.969181,4.94337 1.452493,6.18063 5.200751,4.14995 10.398198,10.39595 9.876591,17.33557 -0.470389,3.01175 -0.845077,8.73298 -3.710643,3.15199 -2.670683,-2.08175 -8.292244,-9.90025 -10.033882,-8.3522 3.044033,5.16952 0.994607,0.23879 -0.828584,0.94835 -2.874411,2.76077 4.162989,5.97874 5.359059,8.63279 4.891014,3.43074 8.012097,9.41079 1.501071,13.18368 -4.182097,-2.31468 -8.012707,-9.90415 -12.143957,-9.54435 1.568559,1.30553 -3.480174,2.52275 0.847474,5.20034 2.877266,2.35552 4.323182,6.17237 6.2378,4.10545 1.148364,2.78309 3.754696,2.09644 2.14872,3.14004 -0.421548,1.45656 -4.396149,-4.01018 -1.100118,0.19136 1.051081,5.56884 7.941306,-5.35839 3.244093,0.9351 -1.832066,0.88654 -7.693624,4.12413 -3.922795,4.27308 7.358552,-3.26446 10.850899,-10.97227 13.319355,-18.09058 1.70631,-5.80765 2.307819,-12.77019 -1.678629,-17.62681 -2.165435,-1.88095 -10.367672,-8.71699 -2.867514,-5.52504 4.957849,2.6208 5.14862,6.57575 7.563143,10.53752 -0.709002,-2.6194 -3.963579,-7.16571 0.519759,-3.53996 -2.635355,-3.16672 -7.853796,-7.58498 -10.028389,-8.62964 4.442413,-1.21115 9.739504,1.28666 13.496683,4.61844 1.747394,-0.28193 1.804171,1.7112 4.590313,0.70807 0.201578,-0.61045 6.699439,-0.2091 4.305658,1.71939 -2.521426,2.6878 0.392942,3.53631 0.54708,6.37501 -2.124045,1.59946 -7.289149,-1.02537 -2.019667,1.13579 2.298437,-0.52061 10.210234,4.35634 8.817353,1.76045 -5.870828,-2.55974 3.733032,-2.14363 4.589305,1.20093 -3.98695,-5.18505 -8.827359,-9.86204 -13.702215,-14.25628 -6.323165,-5.47982 5.918429,3.50557 6.670879,6.26353 3.441355,2.34549 11.164657,12.1625 11.978113,10.61961 -5.731455,-4.80579 3.813807,-11.45904 5.083065,-17.02627 0.685132,-2.39554 2.696635,-4.96726 3.811135,-3.30395 -1.026217,-3.14317 -3.891072,-6.1507 -2.479373,-5.44326 -4.57971,-4.2732 -8.554401,-9.93225 -14.997309,-11.45015 -3.273448,0.61688 0.812484,-9.4428002 3.586765,-11.4397102 2.255583,-4.43101001 11.650699,-3.59362001 12.189958,-3.21273001 6.963479,1.36412001 11.354638,8.42708001 13.616718,14.74451021 2.21701,8.70776 1.95847,19.41597 -5.384219,25.72545 -6.746841,0.69758 -6.825517,10.22592 -11.219009,14.35515 -3.747328,1.50938 3.341583,9.00237 -2.44827,3.92535 -4.006196,-3.81921 -6.781496,-1.66575 -2.097501,0.35615 -0.921137,1.23082 5.786754,1.21982 8.382616,4.49041 5.344044,4.41838 5.280054,11.75507 5.838764,18.00018 2.10549,5.13903 6.844989,9.05109 7.031019,14.92512 -0.67049,3.502928 8.01284,8.518378 5.42732,9.200108 -5.5116,-2.08542 -4.79324,-7.394978 -10.329309,-8.856888 -3.34679,0.37621 -3.71517,1.81193 -6.719339,2.33583 -0.4535,3.667848 -3.675711,-0.24578 -4.439656,2.665278 -3.488759,-1.87013 -4.180634,4.92087 -6.864311,5.05747 5.378123,3.27162 -2.314544,7.72077 0.9304,12.67647 0.65089,5.25704 3.416795,10.16033 7.53551,14.26039 1.942378,2.13686 5.650676,8.01415 7.416766,7.37754 1.57093,-4.92639 2.72699,-11.48438 7.881369,-13.88822 5.2097,-1.84144 11.90264,-10.09755 16.71019,-8.10264 3.9328,2.34678 0.007,12.79129 -1.04583,11.07533 -0.21925,-6.76566 -10.50254,0.32304 -9.87579,4.40305 -2.32636,0.78944 -1.13853,10.11953 -7.03334,10.42091 -4.253909,4.50087 -6.437159,-2.14979 -9.661829,-4.41702 z M 74.572305,111.29232 c 2.14676,-9.31103 6.952474,-18.759168 15.180893,-24.086178 -4.085784,-1.82343 -7.840935,8.43551 -11.668954,8.61738 0.59705,4.747858 -1.596647,0.81838 -0.994687,1.65896 -0.446799,2.51713 -2.68988,5.451988 -1.94612,7.435398 -0.827953,1.07018 -2.136303,12.92034 -0.571132,6.37444 z m 0.453739,-1.05892 c -0.45363,-0.45492 0.228413,1.47915 0,0 z m 31.702426,-7.62189 c -2.03114,-1.77952 -0.12484,0.66945 0,0 z m -2.50872,-3.432998 c -2.73578,-3.26064 1.23675,2.811558 0,0 z m -53.788944,-4.30275 c -0.359846,0.85616 0.25463,2.39281 0,0 z m 9.281688,-1.26151 c -0.760067,-0.60251 -0.695396,4.97393 0,0 z m -8.866689,-1.77739 c 0.317165,-2.73457 3.219764,-11.67771 0.552479,-4.63741 -0.752028,0.87123 -1.29135,9.70971 -0.552479,4.63741 z m 14.59339,1.79908 c -1.577214,-5.10149 -2.02747,-0.45068 0,0 z m -5.347331,-1.73347 c -0.130988,-1.98263 -0.800519,2.27171 0,0 z m 7.874273,0.34477 c -2.06089,-1.86574 -1.917097,0.33901 0,0 z m 0.639818,-0.91025 c -0.214877,-3.66168 -0.136369,-0.53585 1.779072,-1.42283 1.558456,-1.7136 -5.267331,-5.53329 -2.496827,-0.77448 -3.205361,-2.08357 -2.768802,-6.15095 1.3475,-2.49774 0.684395,-3.95036 1.971583,7.22598 4.357317,1.80878 1.956342,-2.39127 6.530794,-5.47274 5.066944,-8.57671 -3.736671,3.84993 2.624634,-4.63138 -1.192885,-5.22902 -4.625082,-3.40021 -7.283921,-3.51291 -11.004003,2.09379 -2.99435,3.38625 -8.01093,13.58552 -1.530004,12.40365 1.59541,0.0516 2.553099,2.27606 3.672886,2.19456 z m 4.267676,-4.37734 c -5.985646,-2.15854 9.281331,-4.53052 2.131589,-0.68495 0.01258,-1.28158 -2.130921,2.30675 -2.131589,0.68495 z m 3.162297,-7.6329 c -0.14822,-1.86416 1.382212,1.02905 0,0 z m -14.085243,11.21893 c 0.231777,-1.95379 -1.423949,0.38488 0,0 z m -5.610025,-9.03611 c 3.894085,-1.96295 5.765468,-7.0392 8.037944,-9.75497 -0.456646,-4.05454 9.372231,-7.68032 6.75516,-9.06576 -7.263106,4.6961 -13.217603,11.74569 -15.707604,20.10569 -0.473541,2.63256 0.72749,-0.84115 0.9145,-1.28496 z m -1.112587,-3.10886 c 1.662738,-4.87935 8.277067,-10.47646 9.285606,-13.33832 -4.191938,4.0921 -6.870433,7.41834 -9.675317,12.7786 -1.663913,3.39672 -1.111386,4.80544 0.389709,0.55972 z m -25.40377,0.66146 c -2.448943,-2.62325 1.622465,2.72608 0,0 z m 3.481419,-2.77812 c -1.714792,-1.26822 0.422825,1.39555 0,0 z m -1.476848,-0.82206 c 1.078591,-1.24654 -2.408849,0.0874 0,0 z m -2.239042,-5.41014 c -1.897643,-2.25087 -7.15783,-5.78035 -2.290074,-1.44662 2.54282,2.45547 8.491687,7.56548 2.290074,1.44662 z m 48.298179,3.18949 c -1.105392,-0.91535 -0.265065,0.93156 0,0 z m -5.881564,-1.88636 c -2.139458,-0.97047 0.724964,1.5027 0,0 z m -24.184335,-3.65513 c 1.254966,-2.10727 3.609439,-10.06538 0.388582,-4.01725 -1.195471,2.36771 -3.283591,10.83727 -0.388582,4.01725 z m 13.563191,-0.2132 c 0.858146,-1.21755 -1.476286,1.39154 0,0 z m 1.227765,-1.38906 c 0.975716,-1.91588 -1.758596,1.9428 0,0 z m 4.69161,-3.89495 c 2.5315,-1.37214 8.793279,-6.38891 2.683689,-2.49584 -2.714171,1.54 -10.040626,7.88132 -2.683689,2.49584 z m -19.7953,1.72867 c -0.45363,-0.4549 0.22842,1.47917 0,0 z m 31.772264,-2.91325 c -0.770096,-0.90736 -0.838009,1.46054 0,0 z m -27.463191,-4.57776 c -0.922849,0.19236 -0.257107,1.70724 0,0 z m 0.92564,-2.59335 c 1.959972,-7.32754 -2.141657,4.95089 -0.272141,0.85285 l 0.272136,-0.85285 z m 35.719468,-7.25021 c 0.916868,-2.6129 5.790082,-9.67326 4.796529,-9.74598 -3.575835,4.51082 -5.739348,9.95253 -8.096035,15.17452 1.522154,-1.02003 2.205334,-3.84704 3.299506,-5.42854 z m -13.440656,3.47702 c -0.487135,-2.79204 -2.036249,1.58198 0,0 z m -23.02112,-5.20899 c -0.458983,-0.0856 0.277768,1.76795 0,0 z m 8.269389,-0.0303 c -3.482353,-2.17164 -0.03489,0.53076 0,0 z m -13.567381,-0.82959 c 0.125135,-2.64849 -4.336451,-7.00355 -6.99466,-9.69326 -1.661074,-0.47474 5.278876,9.23058 6.99466,9.69326 z m 5.038921,-0.1819 c -0.453632,-0.45491 0.228417,1.47916 0,0 z m 6.250119,-0.31289 c -4.606924,-3.99113 0.173961,1.697 0,0 z m 3.623306,-2.01875 c -0.964437,-1.01818 -0.60886,0.91785 0,0 z M 2.9271466,39.846512 c -1.027202,-0.7228 0.6430559,1.64164 0,0 z m 89.5110744,-7.34798 c -0.197321,-0.61886 -1.119739,0.97021 0,0 z M 13.37813,20.804232 c -0.453629,-0.45492 0.228416,1.47917 0,0 z m 74.980323,-1.27331 c -0.959399,-1.45874 -2.964291,-1.95359 -1.180204,-2.07633 -1.982969,-0.89201 -5.352888,-2.62062 -1.357296,-2.25967 1.675173,-1.57541 -10.168554,-3.47946 -4.407304,0.88115 1.82699,2.31908 4.826325,4.36607 6.944804,3.45485 z m -7.306741,-7.65463 c -0.151384,-1.38929 -0.748887,0.87992 0,0 z m 7.215887,-1.36158 c -0.418312,-1.8467102 -1.183224,3.03154 0,0 z M 87.389501,9.6431918 c 2.450168,-2.66336 1.510856,-1.19983 0.889007,-3.62727 -2.01106,-0.81466 3.282752,-2.55395 -1.054188,-1.9064 -2.519013,-0.54243 -3.195899,-0.35864 -4.573276,0.43663 -0.958044,-1.27216 -4.532443,-0.28251 -3.736457,4.00795 -4.448746,1.8395002 9.347542,0.45908 8.474914,1.08909 z m -1.038834,-3.17936 c -1.274024,-2.58686 2.144919,0.6819 0,0 z m 5.587087,2.06138 c -1.383923,-1.2291 0.365295,2.4687602 0,0 z m -2.275785,-2.38815 c -0.46409,-1.00246 -1.177186,1.55708 0,0 z m 1.322917,-1.01032 c -0.505537,-0.94177 -0.711708,0.47115 0,0 z M 89.140823,133.10834 c -1.639047,-2.83615 1.729088,1.64177 0,0 z M 34.079447,65.929392 c -1.352015,-1.99535 2.607993,1.79811 0,0 z m -1.1706,-1.15472 c -0.01156,-0.88968 0.812277,0.8814 0,0 z m 48.029535,-6.33966 c -1.118595,-1.28235 1.979766,1.03689 0,0 z m -30.932607,-6.02961 c 0.346655,-3.85919 1.700905,-0.0605 2e-6,4e-5 z m 0.564009,-3.10775 c -0.660952,-1.72194 1.494195,0.0755 0,0 z m 25.863019,-5.92213 c -7.46933,-3.52439 2.457248,-10.27114 3.61633,-15.29881 1.238051,-4.47235 4.122419,-6.41509 6.092595,-1.19387 1.457356,5.34421 -3.249922,-6.59215 -4.33115,0.45332 -2.446815,4.78794 -8.382919,11.77065 -5.377775,16.03939 z M 9.0147965,36.711312 c 0.300469,-3.44494 6.1808955,-9.36593 2.4698145,-2.88608 -0.406203,0.39037 -2.4643155,5.2335 -2.4698145,2.88608 z m 49.6909245,0.61034 c 1.206413,-2.32537 4.677455,-4.20047 1.343131,-0.40033 0.361339,-0.54859 -1.289826,1.15082 -1.343131,0.40033 z m 9.548845,-1.33351 c -2.66864,-3.24487 3.334518,-7.82161 4.194819,-11.36203 1.389245,-3.30678 4.199355,-6.35457 1.209014,-1.58071 -1.458091,5.03217 3.235755,-5.28352 2.840548,-4.33595 4.728581,3.24304 -3.581144,10.06783 -4.780892,14.69119 -0.960895,0.91618 -1.734816,5.1407 -3.463489,2.5875 z m -3.315999,-1.35148 c 1.808749,-5.51517 5.985307,-10.04839 8.383006,-15.37593 2.684365,-3.57652 -3.115774,6.952 -4.20564,8.68999 -1.644976,1.80594 -2.2158,5.69785 -4.177366,6.68594 z m -52.534755,-1.61259 c 2.123782,-4.38074 -0.231238,2.59971 0,0 z m -3.1573825,-1.45461 c 0.380043,-2.10803 1.3558915,-0.79676 0,0 z m 3.9007015,-1.60214 c 0.256357,-2.93665 4.04056,-12.47331 2.464682,-4.27832 -0.226587,-4.23119 -1.718941,4.62115 -2.464682,4.27832 z m 3.291404,-8.49496 c -1.360624,-2.77316 1.551025,0.54762 0,0 z m -8.3723935,-1.52246 c 1.226399,-1.39879 0.03541,1.15591 0,0 z m 0.935645,-1.32217 c 2.4745155,-2.88581 -0.04623,1.74424 0,0 z m 4.7247695,-0.0385 c 0.46175,-1.00729 0.311855,1.28201 0,0 z m 3.704167,-5.68854 c 0.438097,-0.59114 0.661542,0.906 0,0 z"
       id="path5"
       transform="translate(43.455532,74.984261)" /></g></svg>
