<svg xmlns="http://www.w3.org/2000/svg" xml:space="preserve" width="648.48" height="609.817" viewBox="0 0 171.577 161.347"><g transform="translate(-28.934 -72.93)"><path d="M140.638 72.945c-.907-.08-5.756.162-10.777.539s-12.342.922-16.272 1.21c-3.979.293-7.735.7-8.478.922-3.112.925-5.74 3.666-6.615 6.898-.464 1.714-.46 1.969.103 9.608.318 4.316.576 8.045.574 8.286-.003.366-.427.465-2.583.603-3.276.21-4.383.508-4.802 1.29-.104.193.294 6.154.868 14.213-4.862-3.451-11.473-8.153-11.55-8.185-1.071-.445-1.766.076-3.881 2.91-1.796 2.405-2.023 2.638-2.327 2.383-1.319-1.106-12.266-8.837-13.117-9.263-3.753-1.878-8.464-1.195-11.31 1.639-.645.642-3.577 4.513-6.515 8.601s-7.227 10.048-9.532 13.243c-2.334 3.236-4.436 6.376-4.744 7.088-1.291 2.978-.881 6.753 1.032 9.5 1.015 1.458 1.212 1.62 7.426 6.098 3.511 2.53 6.534 4.73 6.717 4.886.279.238.082.626-1.198 2.367-1.945 2.645-2.43 3.684-2.099 4.508.215.535 27.522 20.046 57.637 41.744.759 9.633 1.308 16.149 1.443 16.72 1.437 6.068 7.275 11.79 13.381 13.115 1.384.3 7.134.371 31.536.389l29.845.02.649-.649c.518-.518.65-.92.65-1.984v-1.336h22.513l.65-.649.649-.65v-33.12l-.65-.65-.649-.65h-22.514v-1.334c0-1.065-.131-1.467-.65-1.984-.633-.634-.746-.65-4.779-.65-4.198 0-4.927-.14-5.41-1.04-.146-.276-1.342-15.067-2.656-32.87s-4.578-58.54-4.66-58.8c-.347-1.106-1.192-1.303-4.723-1.102-2.996.17-3.321.146-3.321-.25 0-1.721-1.115-15.076-1.336-16.003-.974-4.081-4.524-7.252-8.525-7.61m-.825 4.148c2.43.081 2.811.582 3.821 1.592.574.574 1.044 1.155 1.044 1.292 0 .385 1.412.443-18.98 1.91-4.085.294-4.55.378-5.094.922-.739.739-.739.728-.074 9.47.287 3.775-1.553 6.98-1.645 6.98-.091 0-.927.176-1.917.247l-1.8.129-.564-7.638c-.31-4.2-.65-7.85-.755-8.11-.44-1.086-1.287-1.205-5.948-.833-2.401.192-4.636.356-4.967.364l-.6.015.527-1.033c.678-1.328 2.156-2.54 3.546-2.908.603-.16 8.386-.821 17.295-1.47 9.202-.67 13.68-1.01 16.11-.929m-1.028 25.119c.033.076 2.607 31.873 3.126 38.93 1.014 13.79 1.034 13.902 2.5 14.195.738.148.763.206.847 1.964.08 1.652.036 1.835-.494 2.076-.32.145-.767.547-.993.892-.376.575-.32 1.878.653 15.16 1.051 14.338 1.075 14.55 1.794 15.986.579 1.154 1.027 1.633 2.166 2.315l1.436.86h22.645v35.719l-27.318-.035c-15.025-.02-27.974-.12-28.776-.223-6.171-.797-11.244-5.773-12.01-11.781-.036-.28-.861-11.559-1.233-16.491l-4.341-3.114c-19.374-13.945-50.61-36.245-51.231-36.668l-1.217-.825 12.607-17.493c6.934-9.62 12.673-17.473 12.753-17.45.057.018 13.172 9.352 22.865 16.255l4.321 3.072-2.014-26.055c-.357-4.528-.985-12.596-1.005-12.792l-.15-1.464 21.505-1.586c11.827-.872 21.53-1.524 21.564-1.447m-80.897 5.136c.3.006.514.03.566.075.295.247 2.47-1.074-9.515 15.49-2.4 3.318-2.634 3.728-2.567 4.495.091 1.04.082 1.033 7.207 6.144 3.076 2.206 3.126 5.954 3.067 6.024s-.462.823-1.044 1.627l-1.058 1.462-6.214-4.478c-3.417-2.462-6.431-4.548-6.698-4.635-1.114-.361-1.75.212-4.46 4.022-1.397 1.963-2.708 3.78-2.914 4.038l-.375.47-.452-1.067c-.582-1.373-.56-3.285.052-4.587.265-.565 4.761-6.951 9.99-14.193 10.804-14.96 10.475-14.594 13.32-14.843.405-.036.794-.05 1.095-.044"/><rect width="17.842" height="50.571" x="98.59" y="118.7" ry="2.068" transform="matrix(.99744 -.07152 .06803 .99768 0 0)"/><path d="M69.34 145.113a2.06 2.06 0 0 0-1.741.854l-8.037 11.102a2.07 2.07 0 0 0 .459 2.894l27.396 19.848a2.055 2.055 0 0 0 2.884-.457l8.036-11.103a2.07 2.07 0 0 0-.458-2.893L70.483 145.51a2.06 2.06 0 0 0-1.143-.397"/></g></svg>