<svg xmlns="http://www.w3.org/2000/svg" xml:space="preserve" width="465.218" height="555.582" viewBox="0 0 123.089 146.998"><path d="M93.76 141.052c-4.708-4.299-8.231-10.607-15.02-11.637-5.685-2.378-9.998-11.506-16.638-5.776-3.11 2.576-3.79-3.063-5.662-4.616-8.317-12.738-16.644-25.49-25.578-37.8-4.848-4.238-3.293-12.166-10.09-15.189-2.242-2.457-6.522 2.74-8.818-.644-3.011-5.38-9.506-7.14-10.372-14.26-.775-2.72-3.406-11.857.52-6.728 3.52-.209 6.866-5.37 1.687-1.07-4.17.245-3.185-4.72-1.414-7.481.262-5.082 8.288-14.081 7.912-14.6-4.78 2.302 3.621-9.212 3.366-1.89 1.03-.651-.007-3.142 1.092-4.623-4.39.037.946-2.437 1.627.736 2.316.1 1.57 3.259.723.803-.051 4.354-.8 4.061-1.516-.022-.557-1.587 1.03 5.674-1.584 5.03-1.815.578-1.806 7.606-2.712 5.36 2.56-9.863-2.51 5.966-3.43 4.197-1.197-2.187-.584 5.724-3.492 6.724-3.576 6.697 7.113-4.65 3.596 1.598-3.052 1.57-3.792 3.074-.478 1.123 3.787-4.342 6.23-6.342 9.072-11.777 1.275-5.164 4.568-12.69.234-16.881 4.204-2.895 10.103.822 13.834 3.071 3.354 2.701 6.776 6.469 7.265 10.846.201 2.18-.97 4.943 1.453 6.18 5.2 4.15 10.398 10.397 9.876 17.336-.47 3.012-.845 8.733-3.71 3.152-2.671-2.082-8.293-9.9-10.034-8.352 3.044 5.17.994.239-.829.948-2.874 2.761 4.163 5.98 5.36 8.633 4.89 3.43 8.011 9.411 1.5 13.184-4.182-2.315-8.012-9.904-12.144-9.544 1.569 1.305-3.48 2.522.848 5.2 2.877 2.355 4.323 6.172 6.238 4.105 1.148 2.783 3.754 2.097 2.148 3.14-.421 1.457-4.396-4.01-1.1.192 1.051 5.569 7.941-5.359 3.244.935-1.832.886-7.693 4.124-3.923 4.273 7.359-3.265 10.851-10.972 13.32-18.09 1.706-5.808 2.308-12.77-1.679-17.628-2.165-1.88-10.368-8.716-2.867-5.525 4.957 2.621 5.148 6.576 7.563 10.538-.71-2.62-3.964-7.166.52-3.54-2.636-3.167-7.854-7.585-10.029-8.63 4.443-1.21 9.74 1.287 13.497 4.619 1.747-.282 1.804 1.711 4.59.708.202-.61 6.7-.21 4.306 1.72-2.522 2.687.393 3.536.547 6.374-2.124 1.6-7.29-1.025-2.02 1.136 2.299-.52 10.21 4.356 8.818 1.76-5.871-2.56 3.733-2.143 4.589 1.201-3.987-5.185-8.827-9.862-13.702-14.256-6.323-5.48 5.918 3.506 6.67 6.264 3.442 2.345 11.165 12.162 11.979 10.62-5.732-4.806 3.813-11.46 5.083-17.027.685-2.395 2.696-4.967 3.81-3.304-1.025-3.143-3.89-6.15-2.479-5.443-4.58-4.273-8.554-9.932-14.997-11.45-3.273.617.813-9.443 3.587-11.44C80.173-.896 89.567-.059 90.107.322c6.963 1.364 11.355 8.427 13.617 14.745 2.217 8.708 1.958 19.416-5.385 25.725-6.746.698-6.825 10.226-11.219 14.355-3.747 1.51 3.342 9.003-2.448 3.926-4.006-3.82-6.781-1.666-2.097.356-.922 1.23 5.786 1.22 8.382 4.49 5.344 4.419 5.28 11.755 5.839 18 2.105 5.14 6.845 9.052 7.031 14.926-.67 3.502 8.013 8.518 5.427 9.2-5.511-2.086-4.793-7.395-10.329-8.857-3.347.376-3.715 1.812-6.72 2.336-.453 3.667-3.675-.246-4.439 2.665-3.489-1.87-4.18 4.92-6.864 5.057 5.378 3.272-2.315 7.721.93 12.677.651 5.257 3.417 10.16 7.536 14.26 1.942 2.137 5.65 8.014 7.416 7.378 1.571-4.927 2.727-11.485 7.882-13.888 5.21-1.842 11.902-10.098 16.71-8.103 3.933 2.347.007 12.791-1.046 11.075-.22-6.765-10.502.323-9.876 4.403-2.326.79-1.138 10.12-7.033 10.421-4.254 4.501-6.437-2.15-9.662-4.417m-19.188-29.76c2.147-9.31 6.953-18.759 15.181-24.086-4.086-1.823-7.84 8.436-11.669 8.618.597 4.747-1.596.818-.994 1.658-.447 2.518-2.69 5.452-1.947 7.436-.828 1.07-2.136 12.92-.57 6.374m.454-1.059c-.454-.455.228 1.48 0 0m31.702-7.621c-2.03-1.78-.124.669 0 0m-2.508-3.433c-2.736-3.261 1.237 2.811 0 0m-53.79-4.303c-.359.856.255 2.393 0 0m9.282-1.262c-.76-.602-.695 4.974 0 0m-8.866-1.777c.317-2.735 3.22-11.678.552-4.638-.752.872-1.291 9.71-.552 4.638m14.593 1.799c-1.577-5.102-2.027-.45 0 0m-5.347-1.734c-.131-1.982-.8 2.272 0 0m7.874.345c-2.06-1.865-1.917.34 0 0m.64-.91c-.215-3.662-.136-.536 1.779-1.423 1.558-1.713-5.267-5.533-2.497-.774-3.205-2.084-2.769-6.151 1.348-2.498.684-3.95 1.971 7.226 4.357 1.809 1.956-2.392 6.53-5.473 5.067-8.577-3.737 3.85 2.625-4.631-1.193-5.229-4.625-3.4-7.284-3.513-11.004 2.094-2.994 3.386-8.01 13.585-1.53 12.403 1.595.052 2.553 2.276 3.673 2.195m4.268-4.377c-5.986-2.159 9.281-4.53 2.131-.685.013-1.282-2.13 2.306-2.131.685m3.162-7.633c-.148-1.864 1.382 1.029 0 0M61.95 90.546c.231-1.954-1.424.385 0 0m-5.61-9.036c3.894-1.963 5.765-7.04 8.038-9.755-.457-4.055 9.372-7.68 6.755-9.066-7.263 4.696-13.218 11.746-15.708 20.106-.473 2.632.728-.842.915-1.285m-1.113-3.11c1.663-4.879 8.277-10.476 9.286-13.338-4.192 4.092-6.87 7.419-9.676 12.779-1.664 3.397-1.111 4.805.39.56m-25.404.662c-2.449-2.623 1.623 2.726 0 0m3.482-2.778c-1.715-1.268.423 1.396 0 0m-1.477-.822c1.078-1.247-2.409.087 0 0m-2.24-5.41c-1.897-2.251-7.157-5.78-2.29-1.447 2.544 2.456 8.492 7.566 2.29 1.447m48.299 3.19c-1.105-.916-.265.93 0 0m-5.882-1.887c-2.139-.97.725 1.503 0 0M47.822 67.7c1.255-2.107 3.61-10.066.389-4.017-1.196 2.367-3.284 10.837-.389 4.017m13.563-.213c.858-1.218-1.476 1.391 0 0m1.228-1.39c.976-1.915-1.759 1.943 0 0m4.692-3.894c2.531-1.372 8.793-6.39 2.683-2.496-2.714 1.54-10.04 7.881-2.683 2.496M47.509 63.93c-.453-.455.229 1.48 0 0m31.773-2.913c-.77-.907-.838 1.46 0 0M51.818 56.44c-.922.193-.257 1.708 0 0m.926-2.593c1.96-7.328-2.142 4.95-.272.853zm35.72-7.25c.916-2.613 5.79-9.674 4.796-9.746-3.576 4.51-5.74 9.952-8.096 15.174 1.522-1.02 2.205-3.847 3.3-5.428m-13.441 3.477c-.487-2.792-2.036 1.582 0 0m-23.021-5.21c-.46-.085.278 1.769 0 0m8.27-.03c-3.483-2.171-.036.531 0 0m-13.568-.83c.125-2.648-4.337-7.003-6.995-9.692-1.66-.475 5.279 9.23 6.995 9.693m5.039-.181c-.454-.455.228 1.48 0 0m6.25-.313c-4.607-3.991.174 1.697 0 0m3.623-2.019c-.964-1.018-.609.918 0 0M2.927 39.847c-1.027-.723.643 1.641 0 0m89.511-7.348c-.197-.62-1.12.97 0 0m-79.06-11.695c-.453-.455.229 1.48 0 0m74.98-1.273c-.959-1.459-2.964-1.954-1.18-2.076-1.983-.892-5.353-2.621-1.357-2.26 1.675-1.575-10.169-3.48-4.407.881 1.827 2.32 4.826 4.366 6.944 3.455m-7.306-7.655c-.152-1.389-.75.88 0 0m7.216-1.361c-.419-1.847-1.184 3.031 0 0m-.878-.872c2.45-2.663 1.51-1.2.889-3.627-2.012-.815 3.282-2.554-1.055-1.906-2.519-.543-3.196-.36-4.573.436-.958-1.272-4.532-.282-3.736 4.008-4.45 1.84 9.347.46 8.475 1.09m-1.04-3.18c-1.273-2.586 2.146.683 0 0m5.588 2.062c-1.384-1.229.365 2.469 0 0m-2.276-2.388c-.464-1.002-1.177 1.557 0 0m1.323-1.01c-.506-.942-.712.47 0 0m-1.845 127.98c-1.64-2.836 1.729 1.642 0 0M34.079 65.93c-1.352-1.995 2.608 1.799 0 0m-1.17-1.154c-.012-.89.812.881 0 0m48.03-6.34c-1.12-1.282 1.98 1.037 0 0m-30.933-6.03c.346-3.859 1.7-.06 0 0m.564-3.107c-.661-1.722 1.494.075 0 0m25.863-5.922c-7.47-3.525 2.457-10.272 3.616-15.3 1.238-4.472 4.123-6.414 6.093-1.193 1.457 5.344-3.25-6.592-4.331.453-2.447 4.788-8.383 11.77-5.378 16.04M9.015 36.71c.3-3.445 6.18-9.366 2.47-2.886-.407.39-2.465 5.234-2.47 2.886m49.69.61c1.207-2.325 4.678-4.2 1.344-.4.361-.548-1.29 1.151-1.343.4m9.55-1.333c-2.67-3.245 3.334-7.821 4.194-11.362 1.39-3.307 4.2-6.354 1.21-1.58-1.459 5.032 3.235-5.284 2.84-4.337 4.729 3.243-3.581 10.068-4.78 14.692-.962.916-1.736 5.14-3.464 2.587m-3.316-1.351c1.808-5.516 5.985-10.049 8.383-15.376 2.684-3.577-3.116 6.952-4.206 8.69-1.645 1.806-2.216 5.698-4.177 6.686m-52.535-1.613c2.124-4.38-.231 2.6 0 0M9.246 31.57c.38-2.108 1.356-.796 0 0m3.901-1.602c.256-2.936 4.04-12.473 2.465-4.278-.227-4.231-1.72 4.621-2.465 4.278m3.292-8.495c-1.361-2.773 1.55.548 0 0M8.066 19.95c1.227-1.399.036 1.156 0 0m.936-1.322c2.474-2.886-.046 1.744 0 0m4.725-.039c.461-1.007.311 1.282 0 0m3.704-5.688c.438-.591.661.906 0 0" style="display:inline;fill:#000"/></svg>