<svg xmlns="http://www.w3.org/2000/svg" xml:space="preserve" width="180.108" height="181.243" viewBox="0 0 47.654 47.954"><path d="m20.187 32.344-.45.226.6.6.45.976.226.9v.15q-.376 3.002-.6 3.227-.3 1.126-1.277 1.501l-1.726.45q.15.826-.375 1.426-.6.826-1.876.826-.075.9-.675 1.576-.676.6-1.801.45l-1.351 1.5-1.801-.224-.826-.376-1.05-.675-.3.6-.226 1.426v.3l-.225.226-1.05.45-.676.075h-.9l-.376-.225-.375-.075-.525-.376-.15-.15q-1.201-1.2-1.351-2.251v-1.2l.525-1.126.45-.6.076-.076-.076-.075.526-.525-.15-.3-1.801-4.878q-.15-.75-.676-1.201l-.375-.3.375-1.126q.45.075.826.375.675.676 1.125 1.726l.75 2.177 1.202 3.302 1.95 1.726 2.928 1.65.9.451.826.075.45-.525q-1.501-.376-1.951-.9l-.225-.226 1.125-.675.75.45 1.426.3 1.126-.15.3-.75q-1.426-.15-2.176-.826l-.15-.225 1.05-.676 1.276.45.676.15 1.5-.3q.226-.3.076-.9l-2.852-.9.675-1.051 1.726.45v-.075l1.201.375.976.075q1.05-.15 1.35-1.05l.526-2.852-.6-1.5-.826.825.15 1.275-.3.976q-.3.375-.75.375l-2.627-1.05-2.852-1.801-.075-.15q-.525-.6-.75-2.027-.15-1.35.3-2.176.525-1.05 1.8-.9l.076.074h.225l.375.226.6-.6q-.675-.751-1.575-1.277l-.75-.375h-.15l-1.952-.375-1.876-.375.225-1.276 1.876.375 2.252.526 1.05.45.45.3 1.802 1.876v-.075l-.076-.075.526-.825-2.252-2.252.901-.825 9.306 9.305-.901.826-1.876-1.876v-.15l-.075-.075-.15-.15-.075.074-.225-.225-.526.075zm1.2-9.906h-.074l.075-.075zl1.65.3-.374-1.575 1.65.3-.375-1.576 1.651.3-.375-1.576 1.651.3-.375-1.576 1.65.3-.374-1.575 1.65.3-.375-1.576h-.075l5.179-5.253.075.075.15-.15 3.001-1.501 1.426-.826q4.428-2.776 6.98-5.628l1.2-1.35.3-.151.075.075.076.225.225.826-.075 1.426-.45 2.551-.45 1.05-.977 1.877.076.075-.45.45v.15L25.815 28.217l-.226.375-.075.225-.225.225-.075.075-.225-.075-.075.075-.15-.15-.525.075-.45.15-.451.45-.15.601-.075.225v.075L18.16 25.59l.675-.675v.075l1.651.3-.375-1.576h-.075l.075-.075v.075l1.651.3zm1.276-1.275h-.075l.075-.075zm1.275-1.276h-.075l.075-.075zm2.552-2.552h-.075l.075-.075zm-1.276 1.276h-.075l.075-.075zm2.552-2.551h-.075l.075-.075z"/></svg>