<svg xmlns="http://www.w3.org/2000/svg" xml:space="preserve" width="180.311" height="187.656" viewBox="0 0 47.707 49.651"><path d="m45.97.093.588.836q1.114 1.61 1.145 3.685.124 3.778-3.623 7.153l-6.131 5.45L17.603 36.14l-3.963-3.964L45.629.062 45.752 0l.093.031zM12.525 36.448q.186.186.464.155.279.031.465-.155t.186-.495q0-.248-.186-.434-.217-.217-.465-.217l-.464.217-.186.434q-.031.279.186.495m3.096 1.61-.712.155q-.743.186-1.053.434-.96.712-1.64 1.703-.93 1.3-3.407 3.407L6.61 45.212l-1.455.96-.341.588-.093.867q.031.744-.093 1.053l-.65.713q-.496.31-.805.247-.279-.03-.65-.402l-2.2-2.26-.185-.31q-.217-.403-.093-.65l.774-1.023 12.14-12.139 3.932 3.933-1.146 1.208zM2.337 46.636l.433.186q.279.031.465-.155.185-.185.185-.495 0-.248-.185-.434-.217-.216-.465-.216-.279.03-.464.216l-.186.434z"/></svg>