<svg xmlns="http://www.w3.org/2000/svg" width="128pt" height="144" viewBox="0 0 128 108"><path d="M69.523 1.84Q71.363.153 73.512 0c1.43 0 2.61.46 3.527 1.379l4.602 4.758q1.382 1.383 1.23 3.375 0 1.991-1.687 3.68 1.839 0 3.375 1.23l3.375-1.996 4.906 4.601h-.153l3.528 3.684-2.149 3.68.618 1.535 3.832-1.074q2.149.311 3.683 1.687l23.778 20.402 1.996 3.836q0 2.302-1.844 3.836l-15.031 14.883q-1.842 1.53-3.989 1.379-2.149 0-3.683-1.84l-19.79-24.547q-1.535-1.687-1.382-4.14.158-2.609 1.687-4.145l.309-.152q-.613 0-1.074-.461-15.8 13.81-21.172 20.406l-9.203 9.05 1.535 3.22.46 1.996v.304q-.766 6.445-1.23 6.907c-.507 1.636-1.43 2.761-2.757 3.375l-3.836.918c.203 1.23-.051 2.25-.77 3.07q-1.378 1.84-4.14 1.84-.154 1.992-1.38 3.375c-1.023.922-2.355 1.277-3.992 1.074q-1.072 2.454-2.914 3.223l-3.988-.461-4.293-2.149-14.27 14.422Q9.234 108 6.474 108c-1.844 0-3.426-.613-4.758-1.84-1.125-1.332-1.688-2.914-1.688-4.758q0-2.761 1.688-4.601L15.37 83.148 11.38 72.41A5 5 0 0 0 10 69.8l-.922-.612.922-2.454 1.688.918 2.453 3.684 1.687 4.754 2.61 7.21 4.296 3.684 6.29 3.68 1.992.922 1.843.152.918-1.074-4.293-1.992-.46-.461 2.453-1.535 1.687.922 3.07.765 2.453-.304.614-1.688q-3.07-.31-4.754-1.844l-.309-.46 2.301-1.532 2.762 1.074 1.535.305 3.223-.613q.456-.768.152-1.992l-6.137-1.996 1.38-2.301 3.835 1.074v-.152l2.61.765 2.148.153q2.145-.307 2.914-2.301l1.074-6.137-1.226-3.375-1.844 1.84.308 2.762-.613 2.148-1.687.77-5.676-2.305c-3.07-1.531-5.113-2.813-6.137-3.832l-.308-.309c-.715-.922-1.227-2.402-1.536-4.449-.203-1.941 0-3.527.618-4.754q1.223-2.302 3.988-1.996l.152.309h.461l.766.46 1.383-1.382-3.532-2.762-1.53-.766h-.31l-4.296-.921-4.141-.766.46-2.762 4.142.766 4.91 1.226 2.3.922 3.989 3.223 9.36-8.746q6.44-5.215 20.71-20.555c-.512-.82-.77-1.738-.77-2.762q-1.84 1.074-3.527 1.075-1.992-.001-3.222-1.075l-4.754-4.757q-1.384-1.688-1.227-3.832.305-2.15 1.992-3.684z"/></svg>