<svg xmlns="http://www.w3.org/2000/svg" xml:space="preserve" width="276.539" height="225.444" viewBox="0 0 73.168 59.649"><path d="M28.999 18.576q3.508-2.787 10.939-10.733h.413l1.135-1.342v-.103l1.341-1.341h.31v-.103l.516-.516.206-.104-.103-.103.516-.722L47.574 0l.413.31.103.31.93-.517 2.682 2.58H51.6l1.96 2.064-.309.31.93 1.032-1.342 1.135q4.54 2.993 9.907 3.509l2.683.31q4.437-.104 7.74-2.271-1.136 8.772-7.74 15.376-6.811 6.915-16.202 7.534 1.65-3.818 1.135-8.462-.516-5.47-3.612-10.01h-.103l-.31-.207-11.765 11.352-5.056 5.057.825 1.754.31 1.135v.103q-.516 3.612-.826 3.819-.31 1.341-1.444 1.857l-2.168.516q.207 1.032-.412 1.755-.826 1.032-2.27 1.032-.104 1.135-.826 1.857-.826.722-2.168.516-.619 1.445-1.65 1.858l-2.271-.207-2.27-1.238-.723.62-.31.928-6.707 10.217-.826 2.063q0 1.445-.31 1.652h-.825l-.62-.62Q1.859 56.76.414 52.838l-.31-1.445L0 50.258l.206-.826q0-1.445.93-2.477l7.533-7.533q-2.064-5.986-2.27-5.986l-.723-1.445-.516-.412.516-1.239.929.413q.825.722 1.341 2.064l.93 2.683 1.547 4.025 2.27 2.064 3.612 2.064 1.136.413.928.103.516-.516-2.373-1.135-.207-.31 1.239-.825 1.032.412 1.65.516 1.446-.206.31-.929-2.684-1.032-.103-.31 1.238-.825 1.548.62.826.206 1.857-.31V38.39l-3.405-1.135.825-1.239 2.064.516 1.548.413 1.032.103q1.239-.206 1.755-1.341l.516-3.303-.62-1.96-1.031 1.031.206 1.548-.413 1.239-.929.31-3.199-1.239-3.405-2.064-.104-.206-.928-2.58.412-2.58q.62-1.239 2.168-1.135l.103.206h.31l.412.31.723-.826-1.961-1.548-.826-.413h-.206l-2.27-.516-2.374-.413.31-1.444 2.167.31 2.786.722 1.342.516 2.167 1.754z"/></svg>