<svg xmlns="http://www.w3.org/2000/svg" xml:space="preserve" width="308.813" height="308.813" viewBox="0 0 81.707 81.707"><path d="m28.44 46.27.338-.225v.225l.226.339.113.226.112.113L39.5 33.856l2.144-2.257L64.891 8.351l5.53-5.642L73.356 0l2.482.226q1.468.338 2.935 1.805l.79.678q1.58 1.692 1.805 3.16l.339 2.482-2.934 2.822-5.53 5.53-23.361 23.135-2.257 2.257-12.753 10.157.113.113.226.677.338.451.452.452-.113.112 1.128 2.37.339 1.467v.226q-.564 4.74-.903 5.079-.564 1.805-2.031 2.482l-2.822.678q.226 1.354-.564 2.257-1.016 1.354-3.047 1.354-.113 1.467-1.016 2.483-1.128 1.015-2.934.79-.79 1.805-2.144 2.37l-2.934-.339-3.16-1.58-.113.113-.226-.113-1.354-.338-2.822 2.821.565 1.016.79 1.58q.225.338-.339 1.354l-.451 1.016-1.355.564-3.272-2.709-2.596-2.257-2.483-2.821L0 71.21l.677-1.241.79-.677 1.58-.452 1.241.79 1.355.903 2.595-2.595-.225-.226.338-.339-2.934-7.9q-.226-1.128-1.016-1.918l-.677-.451.677-1.806 1.242.677q1.128 1.016 1.805 2.708l1.242 3.499 1.918 5.304q.339 1.129 3.16 2.709l4.627 2.708 1.467.677 1.355.113.677-.79q-2.37-.677-3.16-1.467l-.339-.338 1.806-1.129 1.241.677 2.257.564 1.806-.225.452-1.242q-2.258-.225-3.499-1.354l-.226-.339 1.693-1.128 2.032.79 1.128.226 2.37-.452q.339-.564.113-1.467l-4.514-1.467 1.015-1.693 2.822.79v-.113l1.918.565 1.58.112q1.58-.225 2.145-1.692l.79-4.515-.226-.79v-.225l-.452-1.016-.225-.451-.339-.565-.451-.564-.339-.564-.338-.113-.79.677.564 1.016.338.338.113.565.226.338-.339.226.226 2.031-.451 1.58-1.242.564-4.175-1.692-4.514-2.822-.226-.225q-.79-1.016-1.129-3.273-.225-2.145.452-3.499.903-1.693 2.934-1.467l.113.226h.338l.79.677.226.339.339.112.225.226.903-1.016-.338-.338-.452-.564-.113-.113-2.595-2.032-1.129-.564h-.226l-3.16-.677-3.047-.564.339-2.032 3.047.565 3.611.902 1.693.678z"/></svg>