<svg xmlns="http://www.w3.org/2000/svg" xml:space="preserve" width="478.888" height="140.718" viewBox="0 0 126.706 37.232"><path d="M35.466 14.127v2.208l3.973.736 3.532-.295h3.385l2.796.295v-1.178q-1.03.148-1.472-1.03-.883-1.03-4.415-1.177zm-6.621-1.618-5.298-.147v1.471l8.24 1.619v-2.208zm34.73 3.679v-2.944l-1.766.736-8.83 1.472v1.766h.147l5.298-.589zm3.68-.295 3.09-.588 6.034 1.03 1.471-2.796-.147-1.472-4.856.442-3.385-.589-2.207.147zm10.154-9.418q0-1.619.441-2.649l1.619-1.177L94.919 1.03l1.471.736L97.568 0l1.324.589.589 1.766.441 7.8-.294 2.354-1.03 1.03-1.619-1.177-1.324 1.177-4.857.441.736 1.62h34.877l.295 12.508L96.39 25.9l-1.324 2.944-4.268-.295 1.03 2.65h17.954v2.354H97.715l-3.532 3.679h-7.8l-4.12-6.475H77.26l-3.385 3.09-6.622 2.502-1.472-2.208 3.679-6.769q-33.7 1.472-53.42-4.268-10.006-2.796-12.95-5.886L0 7.8l19.867 5.15v-.294q-.736 0-1.178-.883l-.735-1.766.588-1.913 1.178-1.03 2.06-.147 4.415-.148q6.033 0 7.8 2.208l6.621-.736q6.034-.147 8.389 1.324l7.946-.147 3.68-.588 4.267-1.766 5.15-.589 3.827.442z"/></svg>