<svg xmlns="http://www.w3.org/2000/svg" xml:space="preserve" width="271.327" height="254.559" viewBox="0 0 71.789 67.352"><path d="m3.428 67.15-.1.202-.707-.202-1.512-.705-.504-.807-.504-1.109L0 64.327v-.201l21.375-20.77h1.613l-.1-.303 1.31-1.31-.1-.102v-.201l1.109-1.11-.404-.604.101-.101-.1-.101 2.42-2.42h.2l-.1-.1 3.831-3.832h.202l.1.1.102-.1.907.403L49.91 16.233l-.1-.302-.102-.101-.1-.404-.101-.1 1.815-1.714-1.009-.505-.1-.1v-.101l.1-.101.505-1.11v-.1h.201l1.21.504.101-.1h.202l.403.302.1-.303-2.217-2.42.403-.302-4.537-4.436V3.63l.1-.202.101.1L50.212.203 51.32.1l.1-.101 4.639 4.638.403-.1h.202l2.621 2.62 1.008-1.008h1.11l.604.605-.1.404-1.21 1.21 1.814 1.915h-.1v.202l.1.1-.1.102v1.411l-.303.303.807.806.907-.1.504.504h.303l.907.806.101-.1.1.1v-.1h.102l.605.604.605-.302h.403l3.025 2.924v.403l-1.21 1.714.1.202.404-.101h.202l.1.1 1.614 2.521.1.101-.302.202-.302-.202-.101.303.1.201-.201.202-.202-.1-.403.403.1.201-.302.303-.302-.202-.504.504.201.202-.302.202-.202-.202-.1.202.1.1-.201.202-.101-.1h-.202l-2.016-1.513-.101-.101-.101-.605-.706.1-.1-.1h-.202l-1.11-1.11-.604.102-1.513-1.513-.302.101-1.009-.907v-.202l.101-.202-.403-.403-.504-.706.1-.1-3.024-1.412.403.706h.101l1.008 1.008v.202l-.201.1 2.218 3.328.1.1-.302.202.303.504v.504l-.101.101-1.21.706h-.101l-.706-.706-2.52-3.327-.202-.403-.605 1.109-.303.504-1.411 1.008-.605.303-2.017.907-2.117.807-3.428 1.815-1.916 1.21q-1.109.806-2.319 2.016l-2.218 2.32-1.512 1.713-.807 1.513-.202.705-.201 1.11-.202.705-.1.807-.505.504-.706.202h-.201l-3.832 3.831-.907.403-.101.101-.1-.1-.707-.102-.1-.1 1.915-2.118h.202l-.1-.1 1.511-1.513-.1-.1-4.033 4.032-.101-.1-.101.1-.1-.1-.505-.101-.1-.101-1.21 1.21-.102-.101h-.201v-.1l-1.21 1.209h-.202l-.1 1.714zM44.665 25.61l1.412-.706.907-.504.908-.605 2.924-1.109 2.42-1.008.302-.303 1.109-.806.302-.505q.605-1.008.202-1.915l-.1.1-.102-.1-.806-1.311-1.412 1.512h-.1l-.101.101-.303-.1h-.1l-.303-.202-8.167 8.167zm-9.78 12.402.403-.202.202-.403v-.303l.1-.403.202-1.31.505-1.21.806-1.513-2.924 2.924.303.907-.404.404.404.1.1.101.303.403.1.101z"/></svg>