<svg xmlns="http://www.w3.org/2000/svg" xml:space="preserve" width="229.619" height="224.875" viewBox="0 0 60.753 59.498"><path d="m40.65 32.195-1.705.89-.074.074.074.074-.223.223H38.5l-.075.074-.074-.074h-.148L22.106 17.358q3.19-2.15 6.898-2.596l5.34.594Q33.753 9.42 29.302 4.97 25.074.964 19.584 0q1.336 2.374 1.336 4.97v1.706q-.297 3.784-2.745 7.27l-.742-.668-3.041 3.042v.148l.37.445-.148.149.297.222Q11.276 20.4 6.75 20.77l-1.706.074q-2.893 0-5.045-1.335.668 5.712 5.045 10.014 4.377 4.45 10.608 4.97-1.113-2.596-.742-5.637.445-4.451 3.486-8.086l2.3 2.3.223.222.74.742.298.148.297.445.222.297 1.855 1.78.222.223.742.816 9.125 8.902-.223.222h.148l-.593.742-.89 2.374q-.52.742-.742 2.744l1.039.297.667-2.745 1.187-2.744.816.742q-.593 1.632.37 2.077l2.004.296 1.706-.667.223-.371 1.038-2.151.89-2.003-.296-.816-.89-.223-1.04.149-.593-.446 1.558-.816 2.374.223q.89.37.964 1.187v.964l-.37.89.074-.074-.52 1.632 1.039.52.742-2.597.593.297q.445.148.223 1.113v.667l-.371.965.593 1.038.149-.148q.593-.52.816-1.93l.667.37v1.04l-.296 1.113-.297.742.667.816.149-.148.593-1.707.668.52-.223.445-.445.89-1.335 2.448-1.484 1.78-4.6 1.632-1.483 1.113-.296.445 1.038.297.223-.223 1.038-.52.816-.52.223 2.005q.222.89 1.038 1.26l1.41.296.297 1.187q.667.742 1.706.668l.593 1.335q.52.52 1.558.445.445.965 1.039 1.113.816.371 1.557 0l1.706-.89 2.67 2.67q.89.89 1.855.816 1.038 0 1.854-.816.741-.74.741-1.78 0-1.113-.742-1.854l-2.374-2.374 1.484-4.302q.074-.667.52-.816l.37-.296-.37-1.04-.668.52q-.52.37-.89 1.336l-1.78 4.672q-.223 1.038-3.931 2.745l-.965.296-.593.15-.445-.446 1.706-.594.297-.297-1.04-.519-.592.297-1.187.148-1.04.074-.221-.519 1.854-.816v-.297l-.816-.519-1.038.223-.594.296-1.261-.296-.223-.668 2.448-.963-.593-.89-1.335.445-1.04.222-.815.223-1.26-.89-.075-1.93.816-.296q0 .816.222 1.187l.594.148 2.3-.964q1.854-.593 2.373-1.41l.075-.074.519-1.78v-1.78l-.816-.742.37-.668q.372-.52.15-1.038l2.965-.742-.148-1.187-3.19.742-.963-.445q.148-1.04-.297-1.558-.52-.52-1.335-.594-.15-1.038-.742-1.557-.52-.445-1.261-.445l-.297-1.336q-.297-.741-1.335-1.187l-2.745-.296z"/></svg>