<svg xmlns="http://www.w3.org/2000/svg" xml:space="preserve" width="229.623" height="224.879" viewBox="0 0 60.755 59.499"><path d="m20.103 32.195 1.706.89.074.074-.074.074.223.223h.222l.075.074.074-.074h.148l16.097-16.098q-3.19-2.15-6.898-2.596l-5.341.594q.593-5.935 5.044-10.386Q35.68.964 41.17 0q-1.336 2.374-1.336 4.97v1.706q.297 3.784 2.745 7.27l.742-.668 3.041 3.042v.148l-.37.445.148.149-.297.222q3.635 3.116 8.16 3.487l1.706.074q2.893 0 5.045-1.335-.668 5.712-5.045 10.014-4.377 4.451-10.608 4.97 1.113-2.596.742-5.637-.445-4.451-3.486-8.086l-2.3 2.3-.223.222-.741.742-.297.148-.297.445-.222.297-1.855 1.78-.222.223-.742.816-9.125 8.902.223.222h-.148l.593.742.89 2.374q.52.742.742 2.744l-1.039.297-.667-2.745-1.187-2.744-.816.742q.593 1.632-.371 2.077l-2.003.296-1.706-.667-.223-.371-1.038-2.151-.89-2.003.296-.816.89-.223 1.04.149.593-.446-1.558-.816-2.374.223q-.89.37-.964 1.187v.964l.37.89-.074-.074.52 1.632-1.039.52-.742-2.597-.593.297q-.445.148-.223 1.113v.667l.371.965-.593 1.038-.149-.148q-.593-.52-.816-1.929l-.667.37v1.04l.296 1.112.297.742-.667.816-.149-.148-.593-1.707-.668.52.223.445.445.89 1.335 2.448 1.484 1.78 4.599 1.632 1.484 1.113.296.445-1.038.297-.223-.223-1.038-.519-.816-.52-.223 2.004q-.222.89-1.038 1.26l-1.41.297-.297 1.187q-.667.742-1.706.668l-.593 1.335q-.52.52-1.558.445-.445.965-1.039 1.113-.816.371-1.557 0l-1.707-.89-2.67 2.67q-.89.89-1.855.816-1.038 0-1.854-.816Q0 57.936 0 56.897q0-1.113.742-1.854l2.374-2.374-1.484-4.303q-.074-.667-.52-.816l-.37-.296.37-1.039.668.52q.52.37.89 1.335l1.78 4.673q.223 1.038 3.932 2.745l.965.296.593.149.445-.445-1.706-.594-.297-.297 1.039-.519.593.297 1.187.148 1.039.074.222-.519-1.854-.816v-.297l.816-.519 1.038.223.594.296 1.261-.296.223-.668-2.448-.964.593-.89 1.335.445 1.039.222.816.223 1.26-.89.075-1.93-.816-.296q0 .816-.222 1.187l-.594.148-2.3-.964q-1.854-.593-2.373-1.41l-.075-.074-.519-1.78v-1.78l.816-.742-.37-.668q-.372-.519-.15-1.038l-2.966-.742.148-1.187 3.19.742.964-.445q-.148-1.039.297-1.558.52-.52 1.335-.594.149-1.038.742-1.557.52-.445 1.261-.445l.297-1.336q.297-.741 1.335-1.187l2.745-.296z"/></svg>