<?xml version="1.0" encoding="UTF-8" standalone="no"?>
<!-- Created with Inkscape (http://www.inkscape.org/) -->

<svg
   width="171.99741mm"
   height="127.21863mm"
   viewBox="0 0 171.99741 127.21863"
   version="1.1"
   id="svg1"
   xml:space="preserve"
   xmlns:inkscape="http://www.inkscape.org/namespaces/inkscape"
   xmlns:sodipodi="http://sodipodi.sourceforge.net/DTD/sodipodi-0.dtd"
   xmlns="http://www.w3.org/2000/svg"
   xmlns:svg="http://www.w3.org/2000/svg"><g
     inkscape:groupmode="layer"
     id="layer1"
     transform="translate(-18.221085,-84.950742)"><g
       id="g50"><path
         style="display:inline;fill:#000000;fill-opacity:1"
         d="m 29.7408,211.97693 c 0.15519,-0.11034 -0.05464,-0.15271 -0.491503,-0.0993 -0.419264,0.0513 -0.762297,-0.006 -0.762297,-0.12801 0,-0.12171 -0.211244,-0.16605 -0.46943,-0.0985 -0.295643,0.0773 -0.412315,0.0303 -0.315152,-0.12687 0.09886,-0.15996 -0.02752,-0.20209 -0.351829,-0.11728 -0.278359,0.0728 -0.453794,0.0477 -0.389854,-0.0558 0.145875,-0.23603 -0.552144,-0.51962 -0.840431,-0.34145 -0.117363,0.0725 -0.213387,0.003 -0.213387,-0.15561 0,-0.15811 -0.06157,-0.22591 -0.136822,-0.15066 -0.07525,0.0753 -0.342975,-0.0693 -0.594938,-0.32129 -0.251963,-0.25197 -0.576122,-0.38519 -0.720353,-0.29605 -0.159422,0.0985 -0.196621,0.0559 -0.09488,-0.10872 0.09205,-0.14893 0.05558,-0.28399 -0.08104,-0.30011 -0.136618,-0.0161 -0.345149,-0.0425 -0.463402,-0.0586 -0.118254,-0.0161 -0.302965,-0.1254 -0.410468,-0.24284 -0.115335,-0.12599 -0.05123,-0.13947 0.156369,-0.0329 0.193506,0.0993 0.05526,-0.0688 -0.307218,-0.3737 -0.362476,-0.30487 -0.872992,-0.81782 -1.13448,-1.13987 -0.261489,-0.32205 -0.396578,-0.42722 -0.300199,-0.23372 0.103145,0.20709 0.0874,0.27142 -0.03828,0.15637 -0.117436,-0.1075 -0.222636,-0.26583 -0.233777,-0.35183 -0.06027,-0.46524 -0.409047,-0.95711 -0.596514,-0.84125 -0.118683,0.0734 -0.200672,0.0464 -0.182199,-0.06 0.08215,-0.47293 -0.04116,-0.79556 -0.253831,-0.66412 -0.132687,0.082 -0.172442,-0.0115 -0.09294,-0.21873 0.08173,-0.21298 -0.01539,-0.42125 -0.235892,-0.50586 -0.20615,-0.0791 -0.316421,-0.23832 -0.245047,-0.35381 0.07137,-0.11549 0.01176,-0.20998 -0.132466,-0.20998 -0.144231,0 -0.202892,-0.096 -0.130358,-0.21338 0.178171,-0.28829 -0.10542,-0.98631 -0.341451,-0.84043 -0.103456,0.0639 -0.128544,-0.1115 -0.05575,-0.38986 0.08481,-0.32431 0.04268,-0.45069 -0.117277,-0.35183 -0.159958,0.0989 -0.202085,-0.0275 -0.117276,-0.35183 0.07279,-0.27836 0.03656,-0.44688 -0.08051,-0.37449 -0.126576,0.0783 -0.207997,-5.44522 -0.20086,-13.62603 0.0066,-7.56671 -0.04676,-12.27996 -0.118586,-10.47391 -0.07182,1.80606 -0.116047,-6.16287 -0.09827,-17.70874 0.01777,-11.54587 -0.03881,-19.83146 -0.125742,-18.41241 -0.08693,1.41905 -0.153658,-4.56033 -0.148281,-13.2875 0.0057,-9.29967 0.09686,-15.81416 0.220156,-15.73854 0.118881,0.0729 0.157124,-0.34345 0.08793,-0.95733 -0.08053,-0.71446 -0.03965,-1.0352 0.119419,-0.93689 0.158282,0.0978 0.193489,-0.14864 0.101878,-0.71318 -0.09666,-0.59563 -0.06035,-0.81344 0.117282,-0.70365 0.17697,0.10937 0.210341,-0.0757 0.106915,-0.59279 -0.105929,-0.52964 -0.07199,-0.70335 0.114871,-0.58787 0.185763,0.11481 0.217026,-0.0281 0.104343,-0.4771 -0.116591,-0.46454 -0.0843,-0.59369 0.117277,-0.4691 0.201581,0.12458 0.233868,-0.005 0.117276,-0.46911 -0.117373,-0.46765 -0.08491,-0.59407 0.120017,-0.46741 0.197256,0.12191 0.241491,0.0229 0.148551,-0.3325 -0.08481,-0.32431 -0.04268,-0.45069 0.117277,-0.35183 0.159958,0.0989 0.202085,-0.0275 0.117276,-0.35183 -0.08481,-0.32431 -0.04268,-0.45069 0.117277,-0.35183 0.159958,0.0989 0.202085,-0.0275 0.117276,-0.35183 -0.08481,-0.32431 -0.04268,-0.45069 0.117277,-0.35183 0.159958,0.0989 0.202085,-0.0275 0.117276,-0.35183 -0.08565,-0.32753 -0.04324,-0.45103 0.120189,-0.35003 0.159734,0.0987 0.197499,0.0126 0.102764,-0.23423 -0.08249,-0.21495 -0.03643,-0.3903 0.102511,-0.3903 0.138757,0 0.189428,-0.16381 0.112602,-0.36401 -0.07683,-0.20021 -0.04641,-0.30637 0.0676,-0.2359 0.250082,0.15455 0.546852,-0.52728 0.360639,-0.82858 -0.07253,-0.11736 -0.0025,-0.21338 0.155607,-0.21338 0.158119,0 0.222148,-0.0653 0.142289,-0.1452 -0.07986,-0.0799 0.0091,-0.29947 0.197616,-0.48802 0.188549,-0.18855 0.289678,-0.42879 0.224731,-0.53388 -0.06495,-0.10509 0.05058,-0.25579 0.256733,-0.334897 0.220502,-0.08461 0.317621,-0.292885 0.235893,-0.505866 -0.0795,-0.207176 -0.03975,-0.300738 0.09294,-0.218733 0.127527,0.07882 0.231867,0.03152 0.231867,-0.105095 0,-0.136617 0,-0.30117 0,-0.365672 0,-0.0645 0.214947,-0.332224 0.477661,-0.594937 0.262713,-0.262714 0.404728,-0.595668 0.315589,-0.739899 -0.09853,-0.159422 -0.0559,-0.196622 0.108721,-0.09488 0.148936,0.09205 0.283987,0.05558 0.300113,-0.08104 0.01613,-0.136618 0.04251,-0.345149 0.05864,-0.463403 0.01612,-0.118253 0.125403,-0.302964 0.242838,-0.410467 0.125515,-0.114899 0.142514,-0.05045 0.04124,0.156368 -0.09475,0.193507 -0.0095,0.15157 0.189435,-0.09319 0.19894,-0.244762 0.310594,-0.527728 0.24812,-0.628813 -0.06247,-0.101085 0.01,-0.260167 0.161031,-0.353515 0.183362,-0.113324 0.215685,-0.06025 0.09727,0.159707 -0.09754,0.181188 0.101991,-0.0099 0.443408,-0.424614 0.341417,-0.414726 0.62036,-0.836921 0.619872,-0.938212 -0.0013,-0.265146 1.671317,-1.940316 1.835819,-1.838648 0.07585,0.04688 0.454509,-0.180173 0.841457,-0.504562 0.386949,-0.324389 0.54522,-0.508517 0.351714,-0.409175 -0.207604,0.10658 -0.271704,0.09309 -0.156369,-0.0329 0.107503,-0.117436 0.265827,-0.222636 0.351829,-0.233777 0.46524,-0.06027 0.957107,-0.409047 0.841246,-0.596514 -0.07335,-0.118683 -0.04636,-0.200673 0.05999,-0.1822 0.479013,0.08321 0.794729,-0.04249 0.658863,-0.262329 -0.0817,-0.1322 -0.06155,-0.22525 0.0448,-0.206777 0.479012,0.08321 0.794729,-0.04249 0.658863,-0.262329 -0.0817,-0.1322 -0.06155,-0.22525 0.0448,-0.206776 0.499707,0.08681 0.792011,-0.04689 0.640057,-0.292758 -0.110628,-0.179 -0.0635,-0.206607 0.139016,-0.08144 0.193813,0.119783 0.426275,0.02538 0.63272,-0.256951 0.179489,-0.245466 0.348187,-0.40354 0.374885,-0.351277 0.0267,0.05226 0.43873,-0.04607 0.915627,-0.218518 0.476897,-0.172448 0.814449,-0.398711 0.750115,-0.502805 -0.06433,-0.104095 0.06415,-0.119761 0.285518,-0.03481 0.253282,0.09719 0.345685,0.06254 0.249259,-0.09348 -0.08428,-0.136362 -0.02243,-0.24322 0.137438,-0.237462 0.73486,0.02647 1.128241,-0.08131 1.007845,-0.276111 -0.07229,-0.116974 0.09631,-0.153122 0.374664,-0.08033 0.344242,0.09002 0.452973,0.04638 0.339971,-0.136464 -0.107708,-0.174275 -0.03812,-0.219689 0.197875,-0.12913 0.200207,0.07683 0.364012,0.03272 0.364012,-0.098 0,-0.130729 0.227602,-0.178169 0.505783,-0.105424 0.309952,0.08105 0.448923,0.04026 0.358928,-0.105352 -0.09097,-0.147197 0.08684,-0.192943 0.467289,-0.120217 0.3758,0.07184 0.557856,0.02632 0.469106,-0.117276 -0.08875,-0.143601 0.0933,-0.189115 0.469106,-0.117277 0.361595,0.06912 0.556676,0.02442 0.474395,-0.108718 -0.08298,-0.134266 0.154589,-0.18292 0.58484,-0.119772 0.464263,0.06814 0.670465,0.01877 0.573942,-0.137405 -0.09955,-0.161075 0.17978,-0.199433 0.823523,-0.113089 0.77,0.103278 0.934002,0.06567 0.782511,-0.179448 -0.140828,-0.227865 -0.08305,-0.268437 0.217831,-0.152976 0.225219,0.08643 13.330589,0.157136 29.123044,0.157136 h 28.713556 l -0.0495,3.928762 c -0.0354,2.810743 -0.0711,3.244601 -0.12549,1.524594 l -0.076,-2.404168 -19.752887,0.01852 c -10.864085,0.01018 -19.594559,0.08003 -19.401052,0.155206 0.856089,0.332595 4.259681,2.70936 5.895005,4.116546 1.903842,1.638243 4.698275,4.685615 5.739501,6.259014 l 0.629335,0.950989 13.580979,-0.01097 c 7.469539,-0.006 13.708219,0.07152 13.863729,0.172326 0.1555,0.10081 6.37785,0.1833 13.82744,0.1833 10.85595,0 13.54485,-0.0597 13.54543,-0.300555 4e-4,-0.165303 0.15845,-0.361074 0.35121,-0.435045 0.19277,-0.07397 0.29892,-0.217921 0.2359,-0.31989 -0.063,-0.101969 0.0582,-0.251717 0.26948,-0.332773 0.21122,-0.08106 0.31781,-0.213616 0.23685,-0.294577 -0.081,-0.08096 0.0359,-0.297401 0.25962,-0.480979 0.26399,-0.216596 0.2833,-0.27746 0.055,-0.173365 -0.19351,0.08823 -0.0352,-0.122678 0.35183,-0.468678 0.38701,-0.346 0.54533,-0.554765 0.35183,-0.463924 -0.19351,0.09084 0.0176,-0.177079 0.4691,-0.595379 0.45152,-0.4183 0.60984,-0.626018 0.35183,-0.461595 -0.258,0.164422 0.006,-0.136041 0.58639,-0.667696 0.58051,-0.531654 0.95792,-0.971145 0.83868,-0.976645 -0.11924,-0.0055 0.028,-0.27062 0.32729,-0.589155 0.29925,-0.318534 0.62509,-0.52909 0.72409,-0.467903 0.099,0.06119 0.57327,-0.337873 1.05393,-0.886802 0.48066,-0.548929 0.74205,-0.786955 0.58087,-0.528947 -0.16118,0.258008 0.0492,0.09969 0.4675,-0.35183 0.4183,-0.451514 0.68602,-0.662612 0.59494,-0.469105 -0.0911,0.193506 0.0583,0.0668 0.33201,-0.281571 0.27368,-0.348371 0.63141,-0.582052 0.79496,-0.519293 0.16355,0.06276 0.58075,-0.148527 0.92712,-0.469526 0.34636,-0.320999 0.62975,-0.515727 0.62975,-0.432728 0,0.083 0.16615,-0.05398 0.36922,-0.304391 0.20307,-0.250413 0.29589,-0.312831 0.20625,-0.138705 -0.13135,0.255146 -0.0664,0.264925 0.33443,0.05039 0.27358,-0.146414 0.49742,-0.374271 0.49742,-0.50635 0,-0.132079 0.096,-0.180797 0.21338,-0.108263 0.32911,0.203401 0.97619,-0.12179 0.80228,-0.403185 -0.0968,-0.156672 -0.009,-0.193984 0.2359,-0.10006 0.21467,0.08238 0.39031,0.04131 0.39031,-0.09126 0,-0.132569 0.10555,-0.175801 0.23455,-0.09607 0.129,0.07973 0.23455,0.0365 0.23455,-0.09607 0,-0.132568 0.15833,-0.180279 0.35183,-0.106024 0.19351,0.07425 0.35183,0.02148 0.35183,-0.117277 0,-0.138943 0.17535,-0.184998 0.39031,-0.102511 0.28522,0.109452 0.33801,0.06517 0.19607,-0.164498 -0.14194,-0.229662 -0.0892,-0.273949 0.19608,-0.164497 0.21496,0.08249 0.39031,0.03643 0.39031,-0.102511 0,-0.138758 0.15832,-0.191532 0.35183,-0.117277 0.1935,0.07426 0.35182,0.03277 0.35182,-0.09218 0,-0.124955 0.15833,-0.227191 0.35183,-0.227191 0.19351,0 0.35183,-0.207313 0.35183,-0.460695 0,-0.442531 0.21183,-0.463338 5.3726,-0.527744 3.15512,-0.03938 5.31846,0.02035 5.24145,0.144706 -0.076,0.122703 0.4938,0.155086 1.35493,0.077 1.02503,-0.09295 1.38185,-0.06189 1.15012,0.10012 -0.23827,0.166572 -0.0461,0.201824 0.66094,0.121224 0.65539,-0.07471 0.9453,-0.03014 0.84626,0.130104 -0.0965,0.156179 0.10968,0.205545 0.57394,0.137406 0.425,-0.06238 0.66745,-0.01389 0.58638,0.117276 -0.0811,0.131165 0.16138,0.179654 0.58639,0.117277 0.43025,-0.06315 0.66782,-0.01449 0.58484,0.119772 -0.0823,0.133134 0.1128,0.177842 0.47439,0.108718 0.38045,-0.07273 0.55826,-0.02698 0.46729,0.120217 -0.09,0.145616 0.049,0.186407 0.35893,0.105352 0.27818,-0.07275 0.50578,-0.02429 0.50578,0.107685 0,0.131973 0.21124,0.18471 0.46943,0.117192 0.29564,-0.07731 0.41231,-0.03035 0.31515,0.126868 -0.0989,0.159959 0.0275,0.202085 0.35183,0.117277 0.27836,-0.07279 0.44696,-0.03664 0.37467,0.08033 -0.1204,0.194804 0.27298,0.302576 1.00784,0.276111 0.15987,-0.0058 0.22252,0.09979 0.13924,0.23455 -0.0955,0.154463 0.0356,0.196104 0.35467,0.112668 0.27836,-0.07279 0.44696,-0.03664 0.37467,0.08033 -0.12486,0.202021 -0.0164,0.252506 0.65854,0.3065 0.16125,0.0129 0.34596,0.08877 0.41047,0.16861 0.21868,0.270664 2.58008,1.388436 2.58008,1.221285 0,-0.09133 0.13193,0.0066 0.29319,0.217711 0.16126,0.211073 0.44272,0.415957 0.62547,0.455298 0.18276,0.03934 0.52964,0.260088 0.77086,0.490551 0.24121,0.230463 0.55657,0.34609 0.7008,0.256951 0.15008,-0.09275 0.19716,-0.05677 0.11007,0.08414 -0.14849,0.240259 0.47436,0.647083 0.85942,0.561349 0.10634,-0.02368 0.13334,0.05406 0.06,0.172738 -0.14313,0.231593 0.53153,0.611094 0.91943,0.517186 0.129,-0.03123 0.15606,0.02171 0.0601,0.11764 -0.18236,0.182358 0.70576,0.915473 1.11263,0.918445 0.12901,9.42e-4 0.24386,0.107261 0.25523,0.236265 0.0114,0.129005 0.74736,0.973395 1.63553,1.876424 0.88817,0.903029 1.46447,1.430773 1.28068,1.172765 -0.29151,-0.409216 -0.2907,-0.430178 0.006,-0.164187 0.18728,0.167705 0.34129,0.378803 0.34223,0.469106 0.004,0.354837 0.7542,1.206515 0.91845,1.042268 0.0959,-0.09593 0.14887,-0.06887 0.11763,0.06013 -0.0939,0.387902 0.2856,1.062563 0.51719,0.919431 0.11868,-0.07335 0.19642,-0.04636 0.17274,0.05998 -0.0857,0.385066 0.32109,1.007911 0.56135,0.859421 0.14091,-0.08709 0.1769,-0.04001 0.0841,0.11007 -0.0891,0.14423 0.0265,0.45959 0.25695,0.7008 0.23047,0.24122 0.45121,0.5881 0.49055,0.77086 0.0394,0.18275 0.23108,0.4546 0.42609,0.60411 0.19501,0.14951 0.33204,0.30783 0.30452,0.35183 -0.13574,0.21703 0.31571,1.12463 0.50211,1.00943 0.11849,-0.0732 0.14566,0.0478 0.0605,0.26963 -0.10409,0.27124 -0.0658,0.34772 0.11727,0.23455 0.18312,-0.11317 0.22137,-0.0367 0.11728,0.23455 -0.10408,0.27124 -0.0658,0.34773 0.11728,0.23456 0.18312,-0.11318 0.22136,-0.0367 0.11727,0.23455 -0.0972,0.25328 -0.0625,0.34568 0.0935,0.24926 0.13637,-0.0843 0.24322,-0.0224 0.23747,0.13744 -0.0271,0.75267 0.0838,1.1267 0.2953,0.99598 0.13772,-0.0851 0.16915,0.0201 0.0774,0.25919 -0.0986,0.25702 -0.0632,0.34608 0.0981,0.24641 0.16343,-0.101 0.20584,0.0225 0.12019,0.35003 -0.0834,0.31906 -0.0418,0.45014 0.11267,0.35468 0.13476,-0.0833 0.24031,-0.0206 0.23455,0.13924 -0.0265,0.73486 0.0813,1.12824 0.27611,1.00784 0.11697,-0.0723 0.15312,0.0963 0.0803,0.37466 -0.0848,0.32431 -0.0427,0.45069 0.11728,0.35183 0.15995,-0.0989 0.20208,0.0275 0.11727,0.35183 -0.0929,0.3554 -0.0487,0.45441 0.14855,0.3325 0.20494,-0.12665 0.23739,-2.4e-4 0.12002,0.46742 -0.10182,0.40566 -0.0747,0.58772 0.074,0.49585 0.14385,-0.0889 0.18938,0.0929 0.11748,0.46899 -0.0718,0.3758 -0.0263,0.55785 0.11728,0.4691 0.1436,-0.0888 0.18911,0.0933 0.11727,0.46911 -0.0775,0.40526 -0.0308,0.56061 0.13727,0.45675 0.17345,-0.1072 0.2155,0.12479 0.13186,0.72744 -0.0886,0.6385 -0.0566,0.79028 0.11508,0.54519 0.16986,-0.24253 0.20361,-0.0413 0.11802,0.70365 -0.0846,0.73592 -0.0507,0.94432 0.115,0.70734 0.1627,-0.23272 0.19885,0.12766 0.11766,1.17277 -0.0677,0.87166 -0.032,1.38926 0.0845,1.2258 0.11699,-0.1641 0.19856,0.88518 0.19421,2.49831 -0.004,1.53511 -0.0946,2.66024 -0.20199,2.51118 -0.10697,-0.14853 -0.15481,10.3376 -0.10631,23.30251 0.0485,12.96491 0.0266,20.98662 -0.0486,17.82602 -0.0752,-3.1606 -0.13292,4.3497 -0.12824,16.68955 0.005,12.94405 -0.0793,22.38183 -0.19892,22.30785 -0.11408,-0.0705 -0.15957,0.19782 -0.10108,0.59635 0.064,0.43628 0.0152,0.66826 -0.12271,0.58302 -0.13541,-0.0837 -0.17498,0.0652 -0.0968,0.36422 0.0727,0.27818 0.0253,0.50578 -0.10543,0.50578 -0.13073,0 -0.17693,0.15832 -0.10268,0.35183 0.0743,0.1935 0.0265,0.35183 -0.10602,0.35183 -0.13257,0 -0.1758,0.10555 -0.0961,0.23455 0.0797,0.12901 0.027,0.23455 -0.11728,0.23455 -0.14423,0 -0.20384,0.0945 -0.13247,0.20998 0.0714,0.11549 -0.0389,0.2747 -0.24504,0.35381 -0.2205,0.0846 -0.31762,0.29288 -0.23589,0.50586 0.0764,0.19912 0.0456,0.30439 -0.0684,0.23392 -0.1992,-0.12311 -0.46213,0.2809 -0.40249,0.61847 0.0347,0.19664 -1.50633,1.8144 -1.70651,1.79144 -0.48331,-0.0554 -0.73252,0.0761 -0.58785,0.31016 0.10174,0.16463 0.0645,0.20725 -0.0949,0.10873 -0.14423,-0.0891 -0.4508,0.0265 -0.68126,0.25695 -0.23046,0.23046 -0.55096,0.42957 -0.71221,0.44247 -0.67493,0.054 -0.7834,0.10448 -0.65854,0.3065 0.0723,0.11698 -0.0963,0.15313 -0.37467,0.0803 -0.31019,-0.0811 -0.44926,-0.0404 -0.35925,0.10527 0.0904,0.14634 -0.0982,0.19853 -0.49107,0.13586 -0.49646,-0.0792 -0.55989,-0.0471 -0.2861,0.14451 0.25916,0.1814 0.11053,0.20749 -0.56421,0.099 -0.527,-0.0847 -0.86026,-0.057 -0.78469,0.0653 0.0784,0.12683 -30.30529,0.21252 -75.34991,0.21252 -41.514692,0 -75.359401,-0.0866 -75.210465,-0.19253 z m 156.96693,-3.03257 0.6889,-0.7623 -0.7623,0.68891 c -0.71057,0.64215 -0.87011,0.83569 -0.6889,0.83569 0.0404,0 0.3834,-0.34304 0.7623,-0.7623 z m -28.6759,-2.756 0.021,-3.16646 0.0778,3.00105 0.0778,3.00105 11.3103,-0.0691 11.3103,-0.0691 1.29004,-0.60753 c 1.8688,-0.88009 2.7007,-1.68361 3.56936,-3.4476 l 0.76987,-1.56337 0.0681,-12.84716 0.0681,-12.84716 h -3.8058 c -3.58468,0 -3.83733,-0.0296 -4.34865,-0.50999 -0.67135,-0.6307 -0.69849,-1.58003 -0.0646,-2.26041 0.45456,-0.48792 0.6694,-0.51334 4.33923,-0.51334 h 3.86098 l 0.0215,-6.03974 c 0.0118,-3.32185 0.0965,-15.803 0.18822,-27.73588 0.0917,-11.93288 0.0769,-22.64609 -0.033,-23.80713 -0.23251,-2.45779 -0.84842,-5.0544 -1.86379,-7.85752 -2.99408,-8.26577 -9.37074,-14.845502 -17.48514,-18.041981 -4.23966,-1.670115 -6.28516,-2.013891 -11.90607,-2.000991 -4.74918,0.0109 -5.02224,0.03728 -7.62297,0.736372 -5.30244,1.425327 -9.51116,3.77793 -12.89979,7.210751 -1.73589,1.758523 -3.91774,4.695249 -4.45877,6.001419 l -0.28983,0.69971 h -28.82156 c -15.851853,0 -28.821554,-0.0883 -28.821554,-0.19613 0,-0.49334 -3.012507,-4.345641 -4.865896,-6.222347 -5.80072,-5.873697 -12.535861,-8.657295 -20.751974,-8.576681 -7.315518,0.07178 -13.082653,2.498225 -17.918194,7.538847 -3.830312,3.992761 -6.06933,8.655831 -7.127119,14.843231 -0.400089,2.34027 -0.469362,3.81519 -0.469362,9.99331 v 7.24783 h 9.487345 9.487345 l 0.07069,-5.45335 c 0.0675,-5.20714 0.09608,-5.50495 0.633187,-6.59606 0.934674,-1.89876 3.033764,-3.93756 4.998309,-4.85474 1.547459,-0.72246 1.911361,-0.7985 3.82131,-0.7985 1.900042,0 2.277785,0.0779 3.780348,0.77962 2.047907,0.9564 4.039091,2.88697 4.879389,4.73084 0.573481,1.2584 0.59064,1.44697 0.613551,6.74259 l 0.02357,5.44799 33.114598,0.0614 33.114597,0.0614 -33.541072,0.0543 c -18.44759,0.0299 -41.867712,0.0554 -52.044716,0.0567 l -18.503642,0.002 0.179476,24.92125 c 0.09871,13.70668 0.248164,30.30424 0.332114,36.88345 l 0.152638,11.9622 0.66792,1.35241 c 1.326711,2.68633 4.064588,4.7512 7.060297,5.32477 2.202924,0.42178 31.126661,0.63783 82.294105,0.61471 l 45.93901,-0.0208 z m 6.29887,-5.06811 c -5.33262,-2.65735 -3.71694,-10.69744 2.22573,-11.07584 1.95288,-0.12435 3.27289,0.37283 4.65237,1.75231 1.59261,1.5926 2.09221,3.60593 1.43594,5.78657 -1.04909,3.48584 -5.02358,5.17667 -8.31404,3.53696 z m 4.78931,-1.99858 c 1.65091,-1.10052 2.19805,-3.31393 1.26923,-5.13457 -0.73325,-1.43728 -2.67245,-2.26869 -4.31496,-1.84999 -2.5825,0.65832 -3.72763,3.4249 -2.37381,5.73502 1.13216,1.93187 3.55721,2.491 5.41954,1.24954 z m -10.88819,-8.88291 c 0,-0.32251 0.0532,-0.45444 0.11831,-0.29319 0.0651,0.16126 0.0651,0.42513 0,0.58638 -0.0651,0.16126 -0.11831,0.0293 -0.11831,-0.29319 z m 0.0725,-13.48679 c -4e-5,-7.09523 0.0298,-10.03168 0.0662,-6.52545 0.0365,3.50623 0.0365,9.31141 6e-5,12.90041 -0.0364,3.589 -0.0663,0.72027 -0.0663,-6.37496 z m -5.67689,-24.44454 c 0.35653,-0.0539 0.88428,-0.0525 1.17276,0.003 0.28849,0.0557 -0.003,0.0998 -0.64824,0.098 -0.64502,-0.002 -0.88106,-0.0473 -0.52452,-0.10122 z m 5.03966,0.013 c 0.16126,-0.0651 0.42513,-0.0651 0.58638,0 0.16126,0.0651 0.0293,0.1183 -0.29319,0.1183 -0.32251,0 -0.45444,-0.0532 -0.29319,-0.1183 z m -7.03659,-0.23455 c 0.16126,-0.0651 0.42513,-0.0651 0.58639,0 0.16125,0.0651 0.0293,0.1183 -0.2932,0.1183 -0.32251,0 -0.45444,-0.0532 -0.29319,-0.1183 z m -1.1581,-0.23944 c 0.16932,-0.0678 0.37162,-0.0594 0.44956,0.0185 0.0779,0.0779 -0.0606,0.13338 -0.30785,0.1232 -0.27324,-0.0113 -0.32882,-0.0668 -0.14171,-0.14171 z m -1.17277,-0.23456 c 0.16932,-0.0678 0.37162,-0.0594 0.44956,0.0185 0.0779,0.0779 -0.0606,0.13338 -0.30785,0.12319 -0.27324,-0.0112 -0.32882,-0.0668 -0.14171,-0.14171 z m -0.93821,-0.23455 c 0.16932,-0.0677 0.37162,-0.0594 0.44956,0.0185 0.0779,0.0779 -0.0606,0.13337 -0.30785,0.12319 -0.27324,-0.0113 -0.32882,-0.0668 -0.14171,-0.14171 z m -3.94342,-1.24709 c -0.19351,-0.12505 -0.24628,-0.22737 -0.11728,-0.22737 0.12901,0 0.39288,0.10232 0.58639,0.22737 0.1935,0.12505 0.24628,0.22737 0.11727,0.22737 -0.129,0 -0.39287,-0.10232 -0.58638,-0.22737 z m -1.99204,-0.93553 c -0.0822,-0.13295 0.012,-0.17228 0.22071,-0.0922 0.40634,0.15593 0.48069,0.32405 0.1433,0.32405 -0.12139,0 -0.28519,-0.10434 -0.36401,-0.23187 z m -2.59555,-1.54022 c -0.43721,-0.35028 -0.43434,-0.35461 0.0724,-0.10902 0.29026,0.14066 0.52775,0.30481 0.52775,0.36477 0,0.17948 -0.12164,0.12765 -0.60019,-0.25575 z M 137.0551,146.436 c -0.29175,-0.37201 -0.28346,-0.38031 0.0886,-0.0886 0.3907,0.30642 0.51495,0.49903 0.32191,0.49903 -0.0487,0 -0.23342,-0.18471 -0.41047,-0.41047 z m -1.04785,-0.82093 -0.44682,-0.52775 0.52774,0.44682 c 0.29026,0.24575 0.52774,0.48324 0.52774,0.52775 0,0.1877 -0.18876,0.0491 -0.60866,-0.44682 z m -2.33207,-2.11098 -1.16394,-1.2314 1.2314,1.16394 c 0.67727,0.64017 1.2314,1.19431 1.2314,1.23141 0,0.17502 -0.2173,-0.0197 -1.29886,-1.16395 z m 20.04187,0.50404 c -6.14345,-0.59413 -12.43077,-4.18172 -16.28612,-9.29298 -7.82526,-10.3744 -6.09707,-24.93972 3.91859,-33.02622 7.23779,-5.843679 16.91253,-7.057335 25.22099,-3.163861 6.51673,3.053841 11.25537,8.774411 13.11762,15.835811 0.53664,2.03491 0.61856,2.81147 0.61856,5.86383 0,3.04914 -0.0821,3.82883 -0.61546,5.84708 -2.60085,9.84106 -10.65586,16.79947 -20.79279,17.96209 -2.20395,0.25277 -2.30662,0.25226 -5.18139,-0.0258 z m 5.24388,-17.23355 c 0.59634,-0.2032 1.55916,-0.78747 2.13959,-1.29839 3.58033,-3.15154 2.88401,-8.7526 -1.36003,-10.93976 -2.28695,-1.17858 -5.38181,-0.73737 -7.42765,1.0589 -1.93281,1.69703 -2.6621,5.09558 -1.61552,7.52842 1.33498,3.10325 5.05164,4.74525 8.26361,3.65083 z m -27.17564,14.61853 -0.44682,-0.52774 0.52775,0.44682 c 0.49595,0.4199 0.63452,0.60867 0.44682,0.60867 -0.0445,0 -0.282,-0.23749 -0.52775,-0.52775 z m -0.82857,-1.05549 c -0.29175,-0.37201 -0.28345,-0.38031 0.0886,-0.0885 0.22576,0.17705 0.41047,0.36176 0.41047,0.41046 0,0.19305 -0.19261,0.0688 -0.49903,-0.32191 z m -1.0776,-1.52459 c -0.35164,-0.45467 -0.57284,-0.87957 -0.45789,-0.87957 0.0573,0 0.27704,0.26387 0.48836,0.58638 0.39541,0.60348 0.37339,0.81539 -0.0305,0.29319 z m -1.00345,-1.58323 c -0.13809,-0.25801 -0.19829,-0.46911 -0.13379,-0.46911 0.0645,0 0.23026,0.2111 0.36834,0.46911 0.13808,0.25801 0.19828,0.4691 0.13378,0.4691 -0.0645,0 -0.23025,-0.21109 -0.36833,-0.4691 z m -1.49562,-2.94098 c -0.22634,-0.58983 -0.15957,-0.74202 0.11693,-0.26653 0.13691,0.23543 0.19951,0.47747 0.13912,0.53786 -0.0604,0.0604 -0.17561,-0.0617 -0.25605,-0.27133 z m -1.17277,-3.04919 c -0.0804,-0.20962 -0.13956,-0.50443 -0.13138,-0.65514 0.008,-0.1507 0.11599,-0.0212 0.23959,0.28779 0.1236,0.30899 0.18272,0.6038 0.13138,0.65514 -0.0513,0.0513 -0.15915,-0.0782 -0.23959,-0.28779 z m -0.59684,-2.12146 c 0.0113,-0.27324 0.0668,-0.32882 0.14171,-0.1417 0.0678,0.16931 0.0594,0.37162 -0.0185,0.44956 -0.0779,0.0779 -0.13337,-0.0606 -0.12319,-0.30786 z m -107.053878,9.22575 c -0.06507,-0.16125 -0.118305,-0.0293 -0.118305,0.2932 0,0.32251 0.05324,0.45444 0.118305,0.29319 0.06507,-0.16126 0.06507,-0.42513 0,-0.58639 z m 39.015004,-15.71474 c -0.108698,-5.05477 -0.155226,-5.52461 -0.636131,-6.42374 -1.19223,-2.22906 -3.691608,-3.91574 -6.247644,-4.21615 -2.492184,-0.29291 -5.528461,1.08964 -7.102681,3.23415 -1.385916,1.888 -1.472325,2.34659 -1.483744,7.87454 l -0.01029,4.98425 7.798886,3.1e-4 7.798886,3e-4 z m -9.573989,2.16218 c -0.47254,-0.2881 -0.960098,-0.88558 -1.241176,-1.521 -0.398203,-0.9002 -0.425714,-1.18626 -0.196777,-2.04608 0.452263,-1.69857 1.554231,-2.52417 3.369162,-2.52417 1.876066,0 3.442741,1.96039 3.086069,3.86162 -0.415249,2.21347 -3.092419,3.40318 -5.017278,2.22963 z m 3.534251,-1.17957 c 1.41297,-1.5271 0.315127,-4.20802 -1.723193,-4.20802 -0.66826,0 -1.762085,0.61078 -2.191331,1.22362 -0.421821,0.60223 -0.47997,1.87814 -0.116545,2.5572 0.137237,0.25643 0.58582,0.67516 0.99685,0.9305 0.997858,0.6199 2.175737,0.42452 3.034219,-0.5033 z M 134.38766,93.837502 c 0.23349,-0.258008 0.37176,-0.469106 0.30726,-0.469106 -0.0645,0 -0.30832,0.211098 -0.54181,0.469106 -0.2335,0.258008 -0.37176,0.469106 -0.30726,0.469106 0.0645,0 0.30832,-0.211098 0.54181,-0.469106 z M 27.314235,93.25112 c 0.437625,-0.451515 0.742907,-0.820936 0.678405,-0.820936 -0.0645,0 -0.475333,0.369421 -0.912958,0.820936 -0.437625,0.451514 -0.742908,0.820935 -0.678406,0.820935 0.0645,0 0.475334,-0.369421 0.912959,-0.820935 z m 75.376035,3.401017 c 0.0812,-1.225539 0.14811,-4.075357 0.14875,-6.332929 l 10e-4,-4.104677 h 1.17258 1.17258 l 2.4e-4,6.33293 2.5e-4,6.332929 h -1.32157 -1.32156 z m 3.43413,-4.104676 -10e-4,-6.33293 1.29036,0.08035 1.29036,0.08035 5e-5,6.252584 5e-5,6.252583 h -1.2894 -1.28939 z m 3.51778,0.0052 -1.5e-4,-6.338146 1.17291,0.08128 1.17291,0.08128 v 6.254069 6.25407 l -1.17276,0.0028 -1.17277,0.0028 z m 3.28388,0.07192 V 86.33179 h 1.29005 1.29004 v 6.344982 6.344983 l -1.29004,-0.05219 -1.29005,-0.05219 z m 3.5183,0.04014 v -6.332929 h 1.29004 1.29004 v 6.332929 6.33293 h -1.29004 -1.29004 z m 3.51829,0 v -6.332929 h 1.23141 1.2314 v 6.332929 6.33293 h -1.2314 -1.23141 z m 3.28374,0 v -6.332929 h 1.29005 1.29004 v 6.332929 6.33293 h -1.29004 -1.29005 z m 3.40102,0 v -6.332929 h 1.34868 1.34868 v 5.610262 c 0,4.912002 -0.0511,5.700022 -0.41047,6.331447 -0.35062,0.616043 -0.54724,0.7214 -1.34868,0.722667 l -0.93821,0.0015 z m 3.40102,-1.24313 v -5.089799 h 1.29004 1.29004 v 3.539523 3.539523 l -1.10306,1.32745 c -0.60669,0.730098 -1.18721,1.427722 -1.29005,1.550276 -0.10283,0.122554 -0.18697,-2.067584 -0.18697,-4.866973 z m 3.51829,-2.026649 v -3.06315 h 1.17277 1.17276 v 2.07426 2.07426 l -1.17276,0.98889 -1.17277,0.98889 z m 3.16647,-1.304003 v -1.759147 l 3.04919,0.01657 3.04919,0.01657 -1.00191,0.445067 c -1.34954,0.599491 -4.18346,2.294704 -4.52592,2.707334 -0.48513,0.584547 -0.57055,0.370989 -0.57055,-1.42639 z m 7.79889,-2.867034 c 0.41926,-0.05203 1.10533,-0.05203 1.52459,0 0.41926,0.05203 0.0762,0.0946 -0.7623,0.0946 -0.83852,0 -1.18156,-0.04257 -0.76229,-0.0946 z M 46.840769,84.991043 c 0.354761,-0.05374 0.93528,-0.05374 1.290041,0 0.354761,0.05374 0.0645,0.09771 -0.645021,0.09771 -0.709522,0 -0.999782,-0.04397 -0.64502,-0.09771 z"
         id="path53" /><path
         style="display:inline;fill:#000000;fill-opacity:1"
         d="m 48.658554,209.21327 c -11.424664,-0.11969 -17.961191,-0.27631 -18.880892,-0.4524 -2.995709,-0.57357 -5.733586,-2.63844 -7.060297,-5.32477 l -0.66792,-1.35241 -0.152638,-11.9622 c -0.08395,-6.57921 -0.233393,-23.1755 -0.332094,-36.88064 l -0.179457,-24.91844 18.620899,-0.0614 c 10.241495,-0.0338 33.687995,-0.0344 52.103335,-0.001 32.81085,0.059 33.48243,0.0692 33.48243,0.50944 0,0.24707 0.30796,1.35462 0.68434,2.46122 0.37638,1.1066 0.61387,2.01362 0.52774,2.0156 -0.0861,0.002 -0.051,0.0811 0.078,0.17591 0.129,0.0948 0.7328,1.17849 1.34177,2.40825 5.06264,10.22348 15.60004,16.64559 27.3121,16.64559 h 2.88766 l -0.11737,17.88466 c -0.0645,9.83657 -0.16146,22.63436 -0.21536,28.43955 l -0.098,10.55488 -45.93002,0.0208 c -25.261512,0.0114 -53.793408,-0.0616 -63.404216,-0.16231 z m 88.209476,-10.64788 c 1.36528,-0.9644 1.97614,-2.20886 1.97614,-4.02583 0,-1.22644 -0.10722,-1.60003 -0.7068,-2.46281 -0.41324,-0.59463 -1.14016,-1.23624 -1.75021,-1.5448 l -1.04341,-0.52774 -47.036807,0.005 c -45.510161,0.005 -47.067258,0.0194 -47.975019,0.44531 -1.99396,0.93546 -2.931912,2.39096 -2.931912,4.5497 0,1.94827 1.297447,3.48449 3.516776,4.16397 0.323345,0.099 21.820522,0.16216 47.771502,0.14035 l 47.1836,-0.0396 z m -96.345222,-1.74747 c -0.41103,-0.25062 -0.859612,-0.66548 -0.99685,-0.92191 -0.610305,-1.14037 -0.02851,-2.80111 1.220404,-3.48366 0.716709,-0.39169 3.317144,-0.41778 47.382954,-0.47536 50.726214,-0.0663 47.490744,-0.14524 48.353474,1.17993 0.8011,1.23051 0.52227,2.99132 -0.59795,3.77595 -0.50045,0.35053 -4.47547,0.38241 -47.580387,0.38161 -46.15869,-8.7e-4 -47.04823,-0.009 -47.781645,-0.45656 z m 95.750982,-15.46394 c 3.24575,-1.47435 3.57787,-6.01272 0.59424,-8.12031 l -0.99614,-0.70365 -46.714493,-0.0686 c -25.692973,-0.0377 -47.14857,-0.007 -47.679104,0.0682 -1.274204,0.1807 -2.695813,1.12873 -3.460105,2.30744 -0.737349,1.13716 -0.840622,3.01716 -0.235761,4.29181 0.454985,0.95881 1.803044,2.12923 2.78405,2.41719 0.39437,0.11575 21.374454,0.21357 47.731527,0.22254 45.143546,0.0154 47.065846,-0.001 47.975786,-0.41457 z M 41.217505,179.6074 c -1.258344,-0.45813 -1.823793,-1.19861 -1.823793,-2.38833 0,-0.86688 0.130369,-1.17483 0.766796,-1.81127 l 0.766796,-0.76681 47.082007,-0.0587 c 45.547249,-0.0568 47.105279,-0.0445 47.795909,0.37759 0.45381,0.27737 0.82796,0.78191 1.02695,1.38486 0.27921,0.84601 0.26543,1.04479 -0.12752,1.83922 -0.24231,0.48988 -0.75721,1.07284 -1.14422,1.29546 -0.6599,0.3796 -3.5918,0.40472 -47.14515,0.40407 -34.960627,-5.3e-4 -46.628449,-0.0688 -47.197775,-0.27605 z m 94.408155,-16.17575 c 3.14078,-1.71521 3.48312,-5.77605 0.67529,-8.0104 l -0.90134,-0.71726 H 87.592778 39.785951 l -1.015064,0.71342 c -3.423769,2.40631 -2.460987,7.3293 1.623046,8.29912 0.497237,0.11807 21.114713,0.19227 47.669518,0.17154 44.483709,-0.0347 46.831269,-0.0572 47.562209,-0.45642 z M 40.074046,161.4652 c -0.827225,-0.41267 -1.501685,-1.41223 -1.500392,-2.22362 0.0014,-0.86492 0.870228,-2.07068 1.75998,-2.44244 0.70137,-0.29305 7.204652,-0.33119 47.593726,-0.27908 l 46.78135,0.0604 0.71613,0.6861 c 0.88618,0.84903 1.09876,1.85568 0.62859,2.97663 -0.73572,1.75407 3.44645,1.61645 -48.611809,1.59971 -41.587726,-0.0134 -46.71935,-0.0543 -47.367575,-0.37766 z m 112.983824,0.0185 c 1.81179,-1.7358 0.55737,-4.55151 -2.02773,-4.55151 -2.34459,0 -3.50617,2.91854 -1.79561,4.51156 0.83162,0.77447 1.15866,0.88791 2.24303,0.77802 0.58037,-0.0588 1.14807,-0.32396 1.58031,-0.73807 z m -40.43951,-15.02577 c 2.2022,-1.04501 2.96957,-4.99802 1.41334,-7.28062 -0.28116,-0.41239 -0.8968,-0.96652 -1.3681,-1.23141 -0.85387,-0.4799 -0.98276,-0.4816 -36.544991,-0.4816 -35.341573,0 -35.697113,0.005 -36.616703,0.47374 -1.125112,0.57399 -1.990996,1.82622 -2.334718,3.37643 -0.207621,0.93639 -0.184649,1.37672 0.122365,2.34553 0.442895,1.39759 0.914042,2.03014 2.009566,2.69802 l 0.798252,0.48664 35.851155,8.8e-4 c 32.886444,8.1e-4 35.918854,-0.0312 36.669834,-0.38761 z m -72.612293,-2.08846 c -0.859161,-0.72293 -1.135168,-1.89126 -0.75028,-3.1759 0.527491,-1.7606 -2.650547,-1.62647 36.972025,-1.56041 l 35.624088,0.0594 0.53708,0.79699 c 0.29694,0.44063 0.53708,1.1519 0.53708,1.59076 0,1.05013 -0.54833,2.32096 -1.13748,2.63626 -0.3332,0.17832 -10.93497,0.25343 -35.77119,0.25343 H 40.719746 Z m 81.801883,-7.9791 c 0.71037,-0.76958 0.77794,-0.96091 0.67182,-1.90238 -0.38975,-3.45786 -5.33175,-3.32114 -5.33175,0.1475 0,2.62421 2.86245,3.70218 4.65993,1.75488 z M 18.460373,181.91213 c 0.0026,-0.51601 0.05064,-0.69949 0.10674,-0.40773 0.0561,0.29176 0.05397,0.71396 -0.0047,0.93821 -0.05871,0.22426 -0.10461,-0.0145 -0.102006,-0.53048 z m -0.239287,-36.94209 c 0,-0.45151 0.04827,-0.63622 0.107267,-0.41046 0.059,0.22575 0.059,0.59518 0,0.82093 -0.059,0.22576 -0.107267,0.0411 -0.107267,-0.41047 z M 103.60705,98.835124 c 0.22821,-0.05947 0.54486,-0.05556 0.70366,0.0087 0.1588,0.06425 -0.0279,0.112906 -0.41493,0.108126 -0.38702,-0.0048 -0.51694,-0.05735 -0.28873,-0.116817 z m 3.162,-0.003 c 0.29026,-0.05591 0.76523,-0.05591 1.05549,0 0.29026,0.05591 0.0528,0.101648 -0.52775,0.101648 -0.58051,0 -0.818,-0.04574 -0.52774,-0.101648 z m 3.9874,0.01019 c 0.16125,-0.06507 0.42513,-0.06507 0.58638,0 0.16126,0.06507 0.0293,0.118305 -0.29319,0.118305 -0.32251,0 -0.45445,-0.05324 -0.29319,-0.118305 z m 11.65417,-6.17759 c 0,-3.418609 0.0328,-4.817131 0.0729,-3.107826 0.0401,1.709304 0.0401,4.506348 0,6.215653 -0.0401,1.709304 -0.0729,0.310782 -0.0729,-3.107827 z m 4.22196,0 c 0,-3.418609 0.0328,-4.817131 0.0729,-3.107826 0.0401,1.709304 0.0401,4.506348 0,6.215653 -0.0401,1.709304 -0.0729,0.310782 -0.0729,-3.107827 z m -23.98112,2.697359 c 0.005,-0.387012 0.0573,-0.51694 0.11682,-0.288727 0.0595,0.228212 0.0556,0.544859 -0.009,0.703659 -0.0643,0.1588 -0.11291,-0.02792 -0.10813,-0.414932 z M 101.47,93.602949 c 0,-0.32251 0.0532,-0.454446 0.11831,-0.293191 0.0651,0.161255 0.0651,0.425127 0,0.586382 -0.0651,0.161255 -0.11831,0.02932 -0.11831,-0.293191 z m 2.60615,-7.433684 c 0.22822,-0.05947 0.54486,-0.05556 0.70366,0.0087 0.1588,0.06425 -0.0279,0.112906 -0.41493,0.108126 -0.38701,-0.0048 -0.51694,-0.05735 -0.28873,-0.116817 z m 37.99312,-0.943669 c 0.35476,-0.05374 0.93528,-0.05374 1.29004,0 0.35476,0.05374 0.0645,0.09771 -0.64502,0.09771 -0.70952,0 -0.99978,-0.04397 -0.64502,-0.09771 z"
         id="path52" /></g></g></svg>
