<svg xmlns="http://www.w3.org/2000/svg" xml:space="preserve" width="649.281" height="481.994" viewBox="0 0 171.789 127.528"><g transform="translate(-11.396 -90.788)"><path d="M129.42 91.283c-2.703 0-5.41.11-5.64.328-.354.34-.406 8.955-.028 9.332.352.352 11.641-8.976 11.29-9.332-.217-.22-2.918-.329-5.621-.328m-117.969 35.58c.003 19.07.315 38.126.343 57.196.266 6.553.01 14.775.2 21.98-.335 2.658 1.18 4.55 1.924 6.594 1.73 1.74 2.613 3.198 5 4.205 4.255 2.396 10.575.92 15.76 1.376 46.726.074 93.47.239 140.187-.13 1.05-.99 5.225-1.477 5.989-4.322 3.315-4.272 1.418-10.746 2.007-16.046.055-9.357-.037-18.716.095-28.074.295-2.692.045-13.054.097-18.573-.182-9.033.205-18.129.12-27.104.074-18.148-30.554-53.215-60.33-18.279-6.299 1.651-13.682.29-20.372.714-11.594-.374-23.196-.35-34.796-.323-1.779-4.708-11.412-9.994-10.84-11.38 12.575-.148 25.153-.091 37.731-.12.34.045.24-.126.25-3.05-57.598-.249-84.823-6.835-83.365 35.336M42.078 94.58c9.778.333 18.74 6.481 23.653 14.813 19.21.34 38.43.146 57.643.197 4.978-10.697 17.537-16.05 28.906-14.576 16.173.96 28.934 16.809 27.703 32.724.047 17.563-.23 35.124-.26 52.686-2.643.474-9.837-1.658-8.135 2.774 2.186 2.07 9.009-1.83 8.142 2.65-.17 7.963.168 16.047-.312 23.937-1.265 3.968-5.372 5.928-9.291 5.259q-9.386.056-18.771.115c-.001.005-.195.02-.213.027l.096-10.25c.054-5.806.15-18.604.215-28.44l.118-17.885h-2.888c-11.712 0-22.25-6.422-27.312-16.646-.61-1.23-1.213-2.313-1.342-2.408-.13-.095-.164-.174-.078-.176s-.151-.91-.528-2.016c-.376-1.106-.684-2.213-.684-2.46 0-.44-.672-.45-33.483-.51-18.415-.033-41.861-.033-52.103 0l-18.517.061c.019-4.974.029-9.948.107-14.921.602-13.28 11.575-25.464 25.37-24.943q.986-.045 1.964-.012m107.919 7.828c-14.332-.623-26.844 13.666-23.992 27.812 1.872 14.19 18.14 23.978 31.503 18.701 13.349-4.197 20.186-21.188 13.41-33.45-3.881-7.77-12.231-13-20.921-13.063m-106.9 14.106c-6.515-.2-10.738 6.668-9.458 12.677.19 1.658-1.017 6.833 1.594 4.704.3-5.17-1.481-12.057 4.24-14.84 6.192-3.596 13.134 3.234 11.25 9.708.68 1.68-1.406 6.203 1.67 5.454-.4-5.529 1.668-12.564-4.007-16.038-1.541-1.081-3.373-1.845-5.288-1.665zm106.979 3.499c10.329-.093 6.46 17.087-2.8 12.643-6.558-2.524-4.213-13.082 2.8-12.643M43.079 124.83c-7.974.534.284 11.76 3.086 3.862.357-1.85-1.165-3.855-3.086-3.862m-.12.705c7.318 2.487-4.218 8.88-2.192 1.223l1.006-.841zm69.98 12.563c1.245.018 2.502.849 2.69 2.524.107.942.04 1.132-.67 1.902-1.799 1.948-4.661.87-4.661-1.755 0-1.734 1.236-2.635 2.52-2.67q.06-.001.12 0m-43.672 5.5c35.56 0 35.69.002 36.545.482.47.265 1.087.82 1.368 1.232 1.556 2.282.79 6.235-1.414 7.28h.002c-.752.357-3.784.388-36.67.387H33.245l-.797-.487c-1.096-.668-1.568-1.3-2.01-2.698-.307-.969-.33-1.41-.123-2.346.344-1.55 1.21-2.802 2.335-3.376.92-.47 1.275-.474 36.617-.474m-57.644.84c.484.918-.23.732 0 0m21.31 16.4h95.615l.901.718c2.808 2.234 2.465 6.294-.675 8.01-.733.399-3.08.42-47.563.456-26.555.02-47.173-.053-47.67-.17-4.084-.97-5.047-5.894-1.623-8.301zm111.244 2.228c2.585 0 3.84 2.816 2.028 4.552a2.7 2.7 0 0 1-1.58.738c-1.085.11-1.412-.004-2.243-.778-1.711-1.593-.55-4.512 1.795-4.512M49.03 178.587c8.642-.012 20.429-.011 33.275.008l46.715.07.996.705c2.984 2.107 2.652 6.646-.595 8.12-.91.413-2.843.43-47.975.415-26.357-.01-47.337-.107-47.732-.223-.98-.287-2.329-1.458-2.784-2.417-.604-1.275-.5-3.155.236-4.292.764-1.18 2.186-2.127 3.46-2.307.266-.038 5.762-.065 14.404-.077zm79.462 17.55 1.043.53c.61.308 1.337.949 1.75 1.544.6.863.707 1.236.707 2.463 0 1.817-.61 3.061-1.976 4.025l-.996.703-47.184.04c-25.95.022-47.448-.04-47.77-.14-2.22-.68-3.518-2.216-3.518-4.163 0-2.16.938-3.615 2.932-4.55.908-.426 2.465-.44 47.975-.446zm32.498.027a6.3 6.3 0 0 0-1.286.014c-8.034.148-6.404 13.569 1.574 11.597 6.717-1.106 5.8-11.028-.288-11.61m-1.141 2.007c8.976.202.34 13.524-3.394 4.952-.81-2.28 1.003-4.844 3.394-4.952m20.696 16.145c-1.32 1.58-2.391 2.242 0 0"/><rect width="25.202" height="12.832" x="96.573" y="91.347" rx="1.079" ry="1.671"/></g></svg>