<svg xmlns="http://www.w3.org/2000/svg" xml:space="preserve" width="650.069" height="480.826" viewBox="0 0 171.997 127.219"><path d="M29.74 211.977c.156-.11-.054-.153-.49-.1-.42.052-.763-.005-.763-.127s-.211-.166-.47-.099c-.295.077-.412.03-.315-.127.1-.16-.027-.202-.351-.117-.279.073-.454.048-.39-.056.146-.236-.552-.52-.84-.341-.118.072-.214.003-.214-.156 0-.158-.062-.226-.137-.15-.075.075-.343-.07-.595-.322s-.576-.385-.72-.296c-.16.099-.197.056-.095-.109.092-.149.056-.284-.081-.3l-.464-.058c-.118-.016-.302-.126-.41-.243-.115-.126-.051-.14.156-.033.194.1.056-.069-.307-.374a10 10 0 0 1-1.134-1.14c-.262-.322-.397-.427-.3-.233.103.207.087.271-.039.156-.117-.107-.222-.266-.234-.352-.06-.465-.409-.957-.596-.841-.119.073-.2.046-.182-.06.082-.473-.041-.796-.254-.664-.133.082-.173-.012-.093-.219.082-.213-.015-.421-.236-.506-.206-.079-.316-.238-.245-.354s.012-.21-.132-.21-.203-.096-.13-.213c.177-.288-.106-.986-.342-.84-.104.064-.129-.112-.056-.39.085-.325.043-.45-.117-.352s-.202-.028-.118-.352c.073-.278.037-.447-.08-.374-.127.078-.208-5.446-.2-13.626.006-7.567-.048-12.28-.12-10.474-.071 1.806-.116-6.163-.098-17.71.018-11.545-.039-19.83-.126-18.411-.086 1.419-.153-4.56-.148-13.288.006-9.3.097-15.814.22-15.739.12.073.157-.343.088-.957-.08-.714-.04-1.035.12-.937.158.098.193-.148.102-.713-.097-.596-.06-.813.117-.704.177.11.21-.075.107-.592-.106-.53-.072-.704.115-.588.185.115.217-.028.104-.477-.117-.465-.084-.594.117-.47.202.125.234-.004.118-.469-.118-.467-.085-.594.12-.467.197.122.241.023.148-.332-.085-.325-.043-.451.117-.352s.202-.028.118-.352-.043-.45.117-.352.202-.027.117-.352-.042-.45.117-.352c.16.1.203-.027.118-.351-.086-.328-.043-.451.12-.35.16.098.197.012.103-.235-.083-.215-.037-.39.102-.39s.19-.164.113-.364-.047-.306.067-.236c.25.155.547-.527.361-.828-.072-.118-.002-.214.156-.214s.222-.065.142-.145.01-.3.198-.488c.188-.189.29-.429.224-.534s.05-.256.257-.335c.22-.084.318-.293.236-.506-.08-.207-.04-.3.093-.218.127.078.232.031.232-.106v-.365c0-.065.215-.332.477-.595.263-.263.405-.596.316-.74-.099-.16-.056-.197.109-.095.149.092.284.056.3-.081s.042-.345.058-.463c.017-.119.126-.303.243-.41.126-.116.143-.051.042.156-.095.193-.01.151.189-.094.199-.244.31-.527.248-.628-.062-.102.01-.26.161-.354q.275-.17.097.16c-.097.18.102-.01.444-.425.341-.415.62-.837.62-.938-.002-.265 1.671-1.94 1.835-1.839.076.047.455-.18.842-.504.387-.325.545-.509.352-.41-.208.107-.272.094-.157-.032.108-.118.266-.223.352-.234.465-.06.957-.41.841-.597-.073-.118-.046-.2.06-.182.48.083.795-.042.66-.262-.082-.132-.062-.225.044-.207.479.083.795-.042.659-.262-.082-.133-.062-.226.045-.207.5.087.792-.047.64-.293q-.165-.269.139-.081c.194.12.426.025.632-.257.18-.246.349-.404.375-.352s.44-.046.916-.218.814-.399.75-.503.064-.12.286-.035c.253.098.345.063.249-.093-.084-.136-.023-.243.137-.238.735.027 1.129-.08 1.008-.276-.072-.117.096-.153.375-.08.344.09.453.046.34-.137-.108-.174-.038-.22.198-.129.2.077.364.033.364-.098 0-.13.227-.178.505-.105.31.081.45.04.36-.105-.092-.148.086-.193.467-.12.375.071.558.026.469-.118s.093-.189.469-.117c.361.069.557.024.474-.109-.083-.134.155-.183.585-.12.464.068.67.02.574-.137-.1-.161.18-.2.824-.113.77.103.934.066.782-.18-.14-.227-.083-.268.218-.153.225.087 13.33.158 29.123.158h28.714l-.05 3.928c-.035 2.811-.071 3.245-.125 1.525l-.076-2.404-19.753.018c-10.864.01-19.595.08-19.401.155.856.333 4.26 2.71 5.895 4.117 1.903 1.638 4.698 4.686 5.74 6.259l.628.951 13.581-.011c7.47-.006 13.709.072 13.864.172.156.101 6.378.184 13.828.184 10.856 0 13.544-.06 13.545-.3 0-.166.158-.362.351-.436s.3-.218.236-.32c-.063-.102.058-.252.27-.333.21-.08.317-.213.236-.294-.08-.081.036-.298.26-.481.264-.217.283-.278.055-.174-.193.089-.035-.122.352-.468s.545-.555.352-.464c-.194.09.017-.177.469-.595.451-.419.61-.627.352-.462s.006-.136.586-.668c.58-.531.958-.97.839-.976-.12-.006.028-.271.327-.59.3-.318.625-.529.724-.467.1.06.573-.338 1.054-.887.48-.55.742-.787.58-.53-.16.259.05.1.468-.351.419-.452.686-.663.595-.47-.09.194.059.068.332-.28.274-.35.632-.583.795-.52s.581-.149.927-.47.63-.515.63-.432.166-.054.37-.305c.203-.25.295-.313.206-.138-.132.255-.067.265.334.05.274-.146.498-.374.498-.506s.096-.181.213-.109c.329.204.976-.121.802-.403-.097-.156-.009-.194.236-.1.215.083.39.041.39-.091 0-.133.106-.176.235-.096s.235.036.235-.096c0-.133.158-.18.351-.106.194.074.352.021.352-.118s.176-.185.39-.102c.286.11.338.065.197-.165s-.09-.274.196-.164c.215.082.39.036.39-.103s.158-.191.352-.117.352.033.352-.092.158-.227.351-.227c.194 0 .352-.208.352-.46 0-.443.212-.464 5.373-.529 3.155-.039 5.318.02 5.241.145-.076.123.494.155 1.355.077 1.025-.093 1.382-.062 1.15.1-.238.167-.046.202.661.121.656-.074.946-.03.847.13-.097.157.11.206.573.138.425-.062.668-.014.587.117s.161.18.586.117c.43-.063.668-.014.585.12-.082.133.113.178.474.109.38-.073.559-.027.468.12-.09.146.049.187.359.106.278-.073.505-.025.505.107s.212.185.47.117c.296-.077.412-.03.315.127-.099.16.028.202.352.118.278-.073.447-.037.375.08-.12.195.273.302 1.007.276.16-.006.223.1.14.235-.096.154.035.196.354.112.279-.073.447-.036.375.08-.125.203-.016.253.659.307.16.013.345.089.41.169.219.27 2.58 1.388 2.58 1.22 0-.09.132.008.293.219.162.21.443.416.626.455.182.04.53.26.77.49.242.23.557.347.701.257.15-.092.198-.056.11.085-.148.24.475.647.86.56.106-.023.133.055.06.174-.143.231.531.61.92.517.128-.031.155.022.06.117-.183.183.705.916 1.112.919.13 0 .244.107.255.236.012.13.748.974 1.636 1.877s1.464 1.43 1.28 1.172c-.291-.409-.29-.43.006-.164.188.168.342.379.343.47.004.354.754 1.206.918 1.042.096-.096.149-.07.118.06-.094.388.285 1.062.517.92.119-.074.196-.047.173.06-.086.384.32 1.007.561.859.141-.088.177-.04.084.11-.089.144.027.46.257.7.23.242.451.588.49.771.04.183.232.455.427.604.195.15.332.308.304.352-.135.217.316 1.125.502 1.01.119-.074.146.047.06.27q-.155.404.118.234.275-.171.117.234-.156.406.118.235t.117.234c-.097.254-.063.346.093.25.137-.085.244-.023.238.137-.027.753.084 1.127.295.996.138-.085.17.02.078.26-.099.256-.064.345.098.246.163-.101.206.022.12.35-.083.319-.042.45.113.354.134-.083.24-.02.234.14-.026.735.081 1.128.276 1.008.117-.073.153.096.08.374-.084.325-.042.45.118.352s.202.028.117.352c-.093.355-.049.454.149.332.205-.126.237 0 .12.468-.102.405-.075.587.074.496.144-.09.19.093.117.469-.072.375-.026.557.117.469.144-.09.19.093.118.469q-.116.61.137.457c.173-.108.216.124.132.727-.089.639-.057.79.115.545.17-.242.204-.041.118.704-.085.736-.05.944.115.707.163-.233.199.128.118 1.173-.068.872-.032 1.39.084 1.226.117-.164.199.885.194 2.498-.004 1.535-.094 2.66-.202 2.511-.107-.148-.154 10.338-.106 23.303.049 12.965.027 20.986-.049 17.826-.075-3.16-.132 4.35-.128 16.69.005 12.943-.08 22.381-.199 22.307-.114-.07-.16.198-.1.597.063.436.014.668-.124.583-.135-.084-.174.065-.096.364.072.278.025.506-.106.506-.13 0-.177.158-.102.351.074.194.026.352-.106.352-.133 0-.176.106-.097.235.08.129.027.234-.117.234s-.204.095-.132.21c.071.116-.04.275-.245.354-.22.085-.318.293-.236.506.076.2.045.304-.069.234-.199-.123-.462.28-.402.618.035.197-1.506 1.815-1.707 1.792-.483-.056-.732.076-.587.31.101.165.064.207-.095.109-.145-.09-.451.026-.682.257-.23.23-.55.43-.712.442-.675.054-.783.105-.658.307.072.117-.097.153-.375.08-.31-.081-.45-.04-.36.105.091.147-.098.199-.49.136-.497-.08-.56-.047-.286.145.259.18.11.207-.565.099-.527-.085-.86-.057-.784.065.078.127-30.306.212-75.35.212-41.515 0-75.36-.086-75.21-.192zm156.968-3.033.689-.762-.763.689c-.71.642-.87.836-.689.836.04 0 .384-.343.763-.763m-28.676-2.756.02-3.166.079 3.001.077 3.001 11.31-.07 11.311-.068 1.29-.608c1.869-.88 2.7-1.683 3.57-3.447l.77-1.564.067-12.847.068-12.847h-3.805c-3.585 0-3.838-.03-4.349-.51-.671-.63-.698-1.58-.065-2.26.455-.488.67-.514 4.34-.514h3.86l.022-6.04c.012-3.321.097-15.802.188-27.735.092-11.933.077-22.646-.033-23.808-.232-2.457-.848-5.054-1.863-7.857-2.994-8.266-9.371-14.846-17.486-18.042-4.24-1.67-6.285-2.014-11.906-2.001-4.749.01-5.022.037-7.623.736-5.302 1.426-9.51 3.778-12.9 7.211-1.735 1.759-3.917 4.695-4.458 6.002l-.29.7h-28.822c-15.851 0-28.821-.089-28.821-.197 0-.493-3.013-4.346-4.866-6.222-5.8-5.874-12.536-8.658-20.752-8.577-7.315.072-13.083 2.498-17.918 7.539-3.83 3.993-6.07 8.656-7.127 14.843-.4 2.34-.47 3.815-.47 9.993v7.248h18.975l.07-5.453c.068-5.207.097-5.505.634-6.596.935-1.899 3.034-3.938 4.998-4.855 1.548-.722 1.912-.798 3.822-.798 1.9 0 2.277.078 3.78.78 2.048.956 4.039 2.886 4.88 4.73.573 1.259.59 1.447.613 6.743l.023 5.448 33.115.061 33.115.062-33.541.054c-18.448.03-41.868.055-52.045.057l-18.504.002.18 24.92c.098 13.707.248 30.305.332 36.884l.152 11.962.668 1.353c1.327 2.686 4.065 4.751 7.06 5.325 2.204.421 31.127.637 82.295.614l45.939-.02zm6.299-5.068c-5.333-2.657-3.717-10.697 2.225-11.076 1.953-.124 3.273.373 4.653 1.753 1.592 1.592 2.092 3.606 1.436 5.786-1.05 3.486-5.024 5.177-8.314 3.537m4.789-1.998c1.65-1.1 2.198-3.314 1.27-5.135-.734-1.437-2.673-2.269-4.316-1.85-2.582.658-3.727 3.425-2.374 5.735 1.133 1.932 3.558 2.491 5.42 1.25m-10.888-8.883c0-.323.053-.455.118-.293a.9.9 0 0 1 0 .586c-.065.161-.118.03-.118-.293m.072-13.487c0-7.095.03-10.032.067-6.525.036 3.506.036 9.31 0 12.9-.037 3.589-.067.72-.067-6.375m-5.677-24.445c.357-.053.885-.052 1.173.003.289.056-.003.1-.648.098s-.881-.047-.525-.1zm5.04.013a.9.9 0 0 1 .586 0c.162.066.03.119-.293.119s-.454-.053-.293-.119m-7.036-.234a.9.9 0 0 1 .586 0c.161.065.03.118-.293.118s-.455-.053-.294-.118m-1.159-.24c.17-.067.372-.059.45.019s-.06.133-.308.123c-.273-.011-.329-.067-.142-.142m-1.172-.234c.169-.068.371-.06.45.018.077.078-.061.134-.309.124-.273-.012-.328-.067-.141-.142m-.939-.235c.17-.067.372-.06.45.019.078.078-.06.133-.308.123-.273-.011-.329-.067-.142-.142m-3.943-1.247c-.194-.125-.246-.227-.117-.227s.393.102.586.227c.194.125.246.228.117.228s-.392-.103-.586-.228m-1.992-.935c-.082-.133.012-.173.22-.092.407.155.481.324.144.324-.121 0-.285-.105-.364-.232m-2.596-1.54c-.437-.35-.434-.355.073-.11.29.141.528.305.528.365 0 .18-.122.128-.6-.256m-1.775-1.219c-.292-.372-.283-.38.089-.089.39.307.515.5.322.5-.05 0-.234-.185-.41-.411m-1.048-.82-.447-.529.528.447c.29.246.528.483.528.528 0 .188-.189.049-.609-.447m-2.332-2.112-1.164-1.231 1.232 1.164c.677.64 1.231 1.194 1.231 1.231 0 .175-.217-.02-1.299-1.164m20.042.504c-6.143-.594-12.43-4.182-16.286-9.293-7.825-10.374-6.097-24.94 3.919-33.026 7.237-5.844 16.912-7.057 25.22-3.164 6.517 3.054 11.256 8.774 13.118 15.836.537 2.035.619 2.811.619 5.864 0 3.049-.082 3.829-.616 5.847-2.6 9.84-10.656 16.8-20.793 17.962-2.204.253-2.306.252-5.181-.026m5.244-17.233c.596-.204 1.56-.788 2.14-1.299 3.58-3.151 2.884-8.752-1.36-10.94-2.287-1.178-5.382-.737-7.428 1.06-1.933 1.696-2.662 5.095-1.616 7.528 1.335 3.103 5.052 4.745 8.264 3.65m-27.176 14.618-.447-.528.528.447c.496.42.635.609.447.609-.044 0-.282-.238-.528-.528m-.828-1.055c-.292-.372-.284-.38.088-.089.226.177.41.362.41.41 0 .194-.192.07-.498-.321m-1.078-1.525c-.352-.455-.573-.88-.458-.88.058 0 .277.264.489.587.395.603.373.815-.03.293m-1.003-1.583c-.138-.258-.199-.47-.134-.47.064 0 .23.212.368.47s.198.469.134.469c-.065 0-.23-.211-.368-.47m-1.496-2.941c-.226-.59-.16-.742.117-.267.137.236.2.478.14.538-.061.06-.177-.062-.257-.271m-1.173-3.05c-.08-.209-.14-.504-.131-.655.008-.15.116-.02.24.288.123.31.182.604.13.655-.05.052-.158-.078-.239-.287m-.597-2.12c.012-.274.067-.33.142-.143.068.17.06.372-.018.45s-.134-.06-.124-.308m-107.053 9.225c-.066-.161-.119-.03-.119.293s.053.455.119.293a.9.9 0 0 0 0-.586m39.015-15.715c-.11-5.055-.156-5.524-.637-6.424-1.192-2.229-3.691-3.915-6.247-4.216-2.492-.293-5.529 1.09-7.103 3.234-1.386 1.888-1.472 2.347-1.484 7.875l-.01 4.984H57.69zm-9.574 2.162c-.473-.288-.96-.885-1.242-1.52-.398-.9-.425-1.187-.196-2.047.452-1.698 1.554-2.524 3.369-2.524 1.876 0 3.443 1.96 3.086 3.862-.415 2.213-3.093 3.403-5.017 2.23m3.534-1.18c1.413-1.526.315-4.207-1.723-4.207-.669 0-1.762.61-2.192 1.223-.422.603-.48 1.879-.116 2.558.137.256.586.675.997.93.997.62 2.175.425 3.034-.503m82.856-29.773c.233-.259.371-.47.307-.47-.065 0-.308.211-.542.47-.233.258-.372.469-.307.469.064 0 .308-.211.542-.47M27.314 93.25c.438-.451.743-.82.679-.82-.065 0-.476.369-.913.82-.438.452-.743.821-.679.821.065 0 .476-.37.913-.82m75.376 3.401c.081-1.225.148-4.075.149-6.333l.001-4.104h2.345V98.88h-2.642zm3.434-4.105v-6.332l1.29.08 1.29.08V98.88h-2.579zm3.518.006v-6.338l1.173.08 1.173.082v12.508l-1.173.003-1.173.003zm3.284.072v-6.293h2.58v12.69l-1.29-.052-1.29-.053zm3.518.04v-6.333h2.58v12.666h-2.58zm3.519 0v-6.333h2.462v12.666h-2.462zm3.283 0v-6.333h2.58v12.666h-2.58zm3.401 0v-6.333h2.698v5.61c0 4.912-.051 5.7-.41 6.332-.351.616-.548.72-1.35.722l-.938.002zm3.401-1.243v-5.09h2.58v7.079l-1.103 1.327c-.606.73-1.187 1.428-1.29 1.55s-.187-2.067-.187-4.866m3.519-2.027v-3.063h2.345v4.148l-1.173.99-1.172.988zm3.166-1.304v-1.76l3.05.017 3.049.017-1.002.445c-1.35.6-4.184 2.295-4.526 2.707-.485.585-.57.371-.57-1.426m7.8-2.867a7.5 7.5 0 0 1 1.524 0c.419.052.076.095-.763.095-.838 0-1.181-.043-.762-.095M46.84 84.99a5.2 5.2 0 0 1 1.29 0c.355.054.064.098-.645.098s-1-.044-.645-.098" style="display:inline;fill:#000;fill-opacity:1" transform="translate(-18.221 -84.95)"/><path d="M48.659 209.213c-11.425-.12-17.962-.276-18.881-.452-2.996-.574-5.734-2.639-7.06-5.325l-.669-1.352-.152-11.963c-.084-6.579-.234-23.175-.332-36.88l-.18-24.919 18.621-.061c10.242-.034 33.688-.034 52.103-.001 32.811.059 33.483.07 33.483.51 0 .247.308 1.354.684 2.46.377 1.107.614 2.014.528 2.016s-.051.081.078.176.733 1.179 1.342 2.408c5.062 10.224 15.6 16.646 27.312 16.646h2.888l-.118 17.885c-.064 9.836-.161 22.634-.215 28.44l-.098 10.554-45.93.02c-25.262.012-53.794-.06-63.404-.161zm88.209-10.648c1.365-.964 1.976-2.208 1.976-4.025 0-1.227-.107-1.6-.707-2.463-.413-.595-1.14-1.236-1.75-1.545l-1.043-.528-47.037.005c-45.51.005-47.067.02-47.975.446-1.994.935-2.932 2.39-2.932 4.55 0 1.947 1.297 3.484 3.517 4.163.323.1 21.82.162 47.771.14l47.184-.04zm-96.345-1.747c-.411-.25-.86-.666-.997-.922-.61-1.14-.029-2.801 1.22-3.484.717-.391 3.318-.417 47.383-.475 50.727-.066 47.491-.145 48.354 1.18.8 1.23.522 2.991-.598 3.776-.5.35-4.476.382-47.58.381-46.16 0-47.049-.009-47.782-.456m95.75-15.464c3.247-1.474 3.579-6.013.595-8.12l-.996-.704-46.715-.069c-25.693-.037-47.148-.007-47.679.069-1.274.18-2.696 1.128-3.46 2.307-.737 1.137-.84 3.017-.236 4.292.455.959 1.803 2.13 2.784 2.417.395.116 21.375.214 47.732.223 45.144.015 47.066-.001 47.976-.415m-95.055-1.747c-1.259-.458-1.824-1.198-1.824-2.388 0-.867.13-1.175.767-1.811l.766-.767 47.082-.059c45.548-.057 47.106-.044 47.796.378.454.277.828.782 1.027 1.385.28.846.266 1.045-.127 1.839-.243.49-.758 1.073-1.145 1.295-.66.38-3.591.405-47.145.404-34.96 0-46.628-.068-47.197-.276m94.408-16.175c3.14-1.716 3.483-5.776.675-8.01l-.901-.718H39.786l-1.015.713c-3.424 2.407-2.461 7.33 1.623 8.3.497.118 21.115.192 47.67.171 44.483-.035 46.83-.057 47.562-.456m-95.552-1.967c-.827-.412-1.502-1.412-1.5-2.223.001-.865.87-2.071 1.76-2.443.701-.293 7.204-.331 47.593-.279l46.782.06.716.687c.886.849 1.099 1.855.628 2.976-.735 1.754 3.447 1.617-48.611 1.6-41.588-.014-46.72-.054-47.368-.378m112.984.019c1.812-1.736.557-4.552-2.028-4.552-2.344 0-3.506 2.919-1.795 4.512.831.774 1.158.888 2.243.778a2.7 2.7 0 0 0 1.58-.738m-40.44-15.026c2.203-1.045 2.97-4.998 1.414-7.28-.281-.413-.897-.967-1.368-1.232-.854-.48-.983-.482-36.545-.482-35.342 0-35.698.005-36.617.474-1.125.574-1.991 1.826-2.335 3.376-.207.937-.184 1.377.123 2.346.442 1.398.914 2.03 2.01 2.698l.797.487H75.95c32.886.001 35.918-.03 36.67-.387m-72.612-2.089c-.86-.722-1.135-1.89-.75-3.175.527-1.761-2.65-1.627 36.972-1.56l35.624.059.537.797c.297.44.537 1.151.537 1.59 0 1.05-.548 2.321-1.137 2.637-.334.178-10.935.253-35.772.253H40.72Zm81.802-7.979c.71-.77.778-.96.672-1.902-.39-3.458-5.332-3.321-5.332.147 0 2.625 2.862 3.703 4.66 1.755M18.46 181.912c.003-.516.051-.7.107-.408s.054.714-.005.939-.104-.015-.102-.53m-.239-36.942c0-.451.048-.636.107-.41.06.225.06.595 0 .82-.059.226-.107.042-.107-.41m85.386-46.135c.228-.06.545-.055.704.009s-.028.113-.415.108-.517-.057-.289-.117m3.162-.003c.29-.056.765-.056 1.056 0 .29.056.052.102-.528.102s-.818-.046-.528-.102m3.987.01a.9.9 0 0 1 .587 0c.161.065.03.119-.293.119s-.455-.054-.294-.119m11.655-6.177c0-3.419.032-4.817.073-3.108s.04 4.506 0 6.216-.073.31-.073-3.108m4.222 0c0-3.419.032-4.817.072-3.108s.04 4.506 0 6.216-.072.31-.072-3.108m-23.982 2.697c.005-.387.058-.517.117-.289s.056.545-.009.704c-.064.159-.113-.028-.108-.415zm-1.181-1.76c0-.322.053-.453.118-.292a.9.9 0 0 1 0 .586c-.065.161-.118.03-.118-.293m2.606-7.433c.228-.06.545-.055.704.009s-.028.113-.415.108-.517-.057-.289-.117m37.993-.943a5.2 5.2 0 0 1 1.29 0c.355.053.065.097-.645.097s-1-.044-.645-.097" style="display:inline;fill:#000;fill-opacity:1" transform="translate(-18.221 -84.95)"/></svg>