<?xml version="1.0" encoding="UTF-8" standalone="no"?>
<!-- Created with Inkscape (http://www.inkscape.org/) -->

<svg
   width="109.87966mm"
   height="90.808372mm"
   viewBox="0 0 109.87966 90.808372"
   version="1.1"
   id="svg1"
   xml:space="preserve"
   xmlns="http://www.w3.org/2000/svg"
   xmlns:svg="http://www.w3.org/2000/svg"><defs
     id="defs1" /><g
     id="layer1"
     transform="translate(-52.339277,-104.25534)"><path
       style="fill:#000000"
       d="m 125.36427,195.04749 -1.19062,-0.0162 -1.05834,-0.33471 -1.05833,-0.33471 -0.92604,-0.47903 -0.92604,-0.47902 -25.664585,-17.17734 -25.664582,-17.17733 -5.774658,-3.91282 -5.774658,-3.91283 -0.523647,-0.52364 -0.523646,-0.52365 -0.127921,-1.03653 -0.127922,-1.03653 -0.356317,-1.19063 -0.356318,-1.19062 -0.691935,-1.50441 -0.691936,-1.5044 v -0.38075 -0.38076 l 0.826823,-0.16536 0.826823,-0.16537 h 0.491038 0.491039 l 3.378492,-3.34415 3.378493,-3.34415 0.926042,-0.61727 0.926041,-0.61726 3.042708,-2.37997 3.042709,-2.37998 1.852083,-1.10689 1.852083,-1.10689 1.984375,-1.38004 1.984375,-1.38004 0.926042,-0.46731 0.926041,-0.46731 1.655943,-1.29397 1.655944,-1.29397 1.67332,-0.91977 1.673321,-0.91978 h 0.408652 0.408651 l 0.329377,-0.39687 0.329377,-0.39688 h 0.339708 0.339708 l -0.149062,0.57002 -0.149061,0.57001 -0.818356,0.73506 -0.818356,0.73505 -1.984374,1.1164 -1.984375,1.1164 -2.829651,1.87058 -2.829652,1.87058 0.08184,0.0818 0.08184,0.0818 0.895731,-0.47129 0.895732,-0.47128 0.08819,-0.19844 0.08819,-0.19843 h 0.522733 0.522733 l -0.19131,0.30954 -0.19131,0.30955 0.423184,-0.16239 0.423185,-0.16239 0.132617,0.31586 0.132618,0.31587 -0.04938,-0.61339 -0.04938,-0.6134 1.011875,-0.35438 1.011875,-0.35439 -0.119754,0.11976 -0.119754,0.11975 0.761525,0.76153 0.761525,0.76152 v 0.37313 0.37313 h 0.396875 0.396875 v -0.34247 -0.34247 l 0.572731,-0.53358 0.572731,-0.53358 0.68404,0.16811 0.684039,0.16812 3.395802,1.81037 3.395802,1.81036 h 0.109561 0.109562 l 13.427961,6.71482 13.42797,6.71482 2.04647,1.08164 2.04648,1.08163 0.67879,0.44477 0.6788,0.44476 -0.13606,0.35457 -0.13606,0.35456 0.18892,-0.0282 0.18891,-0.0281 0.46302,0.0313 0.46302,0.0313 v 0.55447 0.55447 l -0.58559,0.83459 -0.5856,0.83459 -0.40659,0.33091 -0.40659,0.33091 0.59531,0.50525 0.59531,0.50526 v 0.17164 0.17164 l -0.26155,-0.16165 -0.26155,-0.16165 0.15757,0.41062 0.15757,0.41062 h -0.42519 -0.42518 v -0.23373 -0.23372 l -0.58584,-0.1532 -0.58585,-0.15321 -0.19821,0.32072 -0.19822,0.32072 0.45333,0.1799 0.45333,0.17991 0.73591,0.0186 0.73591,0.0186 0.15229,-0.39688 0.1523,-0.39687 h 0.46325 0.46325 l 0.98778,-1.60033 0.98778,-1.60032 0.50504,-0.31541 0.50503,-0.3154 v -0.34254 -0.34253 l 0.56929,0.30467 0.56929,0.30467 -0.17242,-0.44929 -0.17241,-0.4493 v -0.63982 -0.63982 h -0.28019 -0.2802 l 0.16352,0.26459 0.16352,0.26458 h -0.2802 -0.2802 v -0.36602 -0.36601 l -0.49158,-0.12856 -0.49159,-0.12855 -0.42347,0.23698 -0.42346,0.23699 0.13814,0.45602 0.13815,0.45603 -0.42217,-0.72761 -0.42217,-0.7276 h -0.078 -0.078 l 0.11444,0.77973 0.11444,0.77974 0.43505,0.11561 0.43505,0.11562 -0.71317,0.0307 -0.71317,0.0307 -0.34516,-0.69352 -0.34517,-0.69353 -11.40787,-5.72262 -11.40786,-5.72262 -8.702889,-4.29424 -8.702889,-4.29425 -1.320493,-0.2481 -1.320493,-0.2481 -0.79375,0.13129 -0.79375,0.13129 0.379862,-0.26514 0.379861,-0.26513 -0.379861,-0.46007 -0.379862,-0.46006 0.335454,-0.11289 0.335454,-0.11289 0.331464,-0.33146 0.331464,-0.33147 0.572459,-0.30637 0.572458,-0.30637 h 0.297593 0.297592 l -0.203819,0.33073 -0.20382,0.33073 0.717371,-0.46912 0.717371,-0.46912 0.01677,0.20454 0.01677,0.20453 0.239287,-0.59531 0.239286,-0.59531 h 0.405401 0.405401 l -0.042,-0.19844 -0.04201,-0.19844 0.202604,-0.46302 0.202604,-0.46302 h 0.516474 0.516474 l -0.136653,0.22111 -0.136654,0.22111 2.700726,0.9258 2.700726,0.9258 3.836459,1.79068 3.836458,1.79068 3.43958,1.5867 3.43958,1.5867 2.51355,1.05047 2.51354,1.05048 1.05833,0.48674 1.05833,0.48674 3.96875,1.90988 3.96875,1.90988 2.51354,1.18093 2.51355,1.18092 1.30714,0.4987 1.30715,0.49871 0.11962,-0.11962 0.11962,-0.11962 -0.33469,-0.40327 -0.33468,-0.40327 h -0.27406 -0.27406 l -2.40552,-1.10153 -2.40552,-1.10153 -5.95313,-2.89037 -5.95312,-2.89036 -3.57188,-1.53725 -3.57187,-1.53724 -3.43959,-1.58701 -3.43958,-1.58701 -3.378431,-1.6151 -3.378434,-1.6151 h -0.11737 -0.117369 l -1.465134,-0.54818 -1.465133,-0.54817 1.13e-4,-0.17943 1.14e-4,-0.17943 h 3.943448 3.943447 l -0.122718,0.19844 -0.122718,0.19844 h 0.508091 0.508094 l -0.12286,0.64269 -0.12286,0.6427 -0.435763,-0.15109 -0.435764,-0.1511 0.478001,0.50059 0.478,0.50058 0.262746,-0.46302 0.26275,-0.46302 h 0.36812 0.36811 l 0.16165,0.26155 0.16165,0.26156 -0.41062,-0.15757 -0.41062,-0.15757 4.3e-4,0.22674 4.3e-4,0.22675 1.25413,0.0563 1.25413,0.0563 -0.65924,-0.32748 -0.65925,-0.32748 -0.08,-0.5542 -0.08,-0.5542 0.5399,-0.14119 0.53991,-0.14119 0.64019,0.50357 0.64019,0.50358 h 0.42129 0.42129 v 0.21317 0.21317 l 0.59531,0.0139 0.59531,0.0139 0.61093,0.0375 0.61093,0.0375 -0.12621,0.2042 -0.1262,0.2042 1.23507,0.47298 1.23506,0.47298 2.11667,1.04693 2.11667,1.04693 0.32242,-0.004 0.32243,-0.004 -0.16293,0.46302 -0.16293,0.46302 0.35644,-0.33073 0.35644,-0.33073 h 0.48679 0.48679 l 0.98165,0.49746 0.98165,0.49746 1.12972,0.18814 1.12972,0.18814 0.37273,0.37273 0.37274,0.37274 h 0.41577 0.41578 v 0.2387 0.2387 l 0.85989,0.32981 0.8599,0.32982 0.13229,0.0401 0.13229,0.0401 1.19062,0.58667 1.19063,0.58666 0.39687,0.24775 0.39688,0.24775 1.71585,0.80591 1.71585,0.80591 h 0.33467 0.33467 v 0.20682 0.20683 l 1.1936,0.35242 1.19361,0.35243 0.17019,0.27538 0.1702,0.27538 -0.30244,-0.18691 -0.30243,-0.18691 0.16608,0.4328 0.16608,0.4328 0.19879,-0.32165 0.19879,-0.32165 0.98759,0.18527 0.98759,0.18528 0.56274,0.31263 0.56274,0.31263 0.49079,0.39687 0.4908,0.39688 0.0384,-0.12026 0.0384,-0.12025 1.12448,0.632 1.12448,0.63199 v 0.21586 0.21586 h 0.27862 0.27862 l 0.9562,0.64976 0.9562,0.64976 0.22039,-0.13621 0.22038,-0.1362 v 0.24712 0.24713 l 0.79375,0.15875 0.79375,0.15875 v 0.52016 0.52017 l 0.28764,0.17777 0.28763,0.17776 -0.13057,0.49931 -0.13057,0.49931 h 0.38772 0.38772 l -0.15532,-0.25131 -0.15532,-0.25131 0.51919,-0.27786 0.51918,-0.27786 h 0.63937 0.63937 l 0.83189,0.29 0.8319,0.29 -0.15888,0.70219 -0.15887,0.70219 -0.50125,0.43928 -0.50124,0.43929 v 0.17164 0.17164 l 0.26458,-0.16352 0.26458,-0.16352 v 0.29581 0.29582 l 0.30547,-0.18879 0.30546,-0.18879 -0.19595,0.31706 -0.19595,0.31705 0.32507,0.39168 0.32506,0.39168 -0.16999,0.16999 -0.17,0.17 v -0.30038 -0.30038 l -0.46302,0.14895 -0.46302,0.14895 0.31676,-0.23038 0.31676,-0.23038 -0.18447,-0.2576 -0.18447,-0.2576 -0.36453,-0.0774 -0.36454,-0.0774 0.18734,0.60658 0.18733,0.60658 0.0219,0.79375 0.0219,0.79375 0.28757,0.20648 0.28757,0.20647 -0.79375,-0.16173 -0.79375,-0.16173 0.35332,0.24942 0.35333,0.24942 -0.0226,0.16886 -0.0226,0.16885 v 0.39688 0.39687 l 0.8599,-0.004 0.8599,-0.004 -0.39688,-0.25648 -0.39687,-0.25648 0.33072,-0.004 0.33073,-0.004 -0.0313,-0.19844 -0.0313,-0.19844 0.0313,-0.7276 0.0313,-0.72761 h 0.40192 0.40192 l -0.16602,-0.66145 -0.16602,-0.66146 h 0.69015 0.69014 v 0.23627 0.23628 l -0.41365,0.15873 -0.41364,0.15873 0.16734,0.27077 0.16734,0.27077 0.31245,-0.15677 0.31245,-0.15677 -0.59679,0.52679 -0.59679,0.52678 0.33221,0.15483 0.3322,0.15484 -0.32764,0.15331 -0.32765,0.15331 -0.49943,1.10346 -0.49943,1.10346 -0.5675,0.59017 -0.56751,0.59017 -0.002,0.20358 -0.002,0.20358 -0.32344,0.73071 -0.32345,0.73071 -0.4497,0.14273 -0.4497,0.14273 0.12399,0.32311 0.12399,0.32311 -0.40208,0.52324 -0.40208,0.52324 -0.93815,1.25677 -0.93816,1.25677 h 0.19581 0.19582 l -0.8027,0.59532 -0.8027,0.59531 0.10065,0.29704 0.10066,0.29704 -0.52286,0.13673 -0.52287,0.13673 0.14603,0.55842 0.14603,0.55841 h -0.44335 -0.44335 l 0.15872,0.25682 0.15872,0.25681 -0.41448,0.80152 -0.41448,0.80152 h -0.47625 -0.47625 l -0.62141,0.66146 -0.62141,0.66146 h 0.24706 0.24706 l 0.33047,-0.52917 0.33047,-0.52917 h 0.38571 0.38571 l -0.54638,0.92604 -0.54638,0.92605 h -0.51865 -0.51864 l 0.17382,0.28125 0.17383,0.28126 -0.38726,0.44635 -0.38726,0.44634 -0.17287,0.72761 -0.17286,0.7276 h -0.33292 -0.33292 l -0.66586,0.75884 -0.66587,0.75884 0.0998,0.29935 0.0998,0.29936 -0.40217,0.15433 -0.40217,0.15433 0.14389,0.37497 0.14389,0.37498 h -0.45604 -0.45604 l 0.13838,0.52917 0.13838,0.52917 h -0.3721 -0.37211 l -0.0313,0.33073 -0.0313,0.33072 0.0262,0.18318 0.0262,0.18317 -0.80608,0.80609 -0.80609,0.80608 0.14124,0.22854 0.14124,0.22853 -0.37998,0.502 -0.37999,0.502 -0.008,-0.30242 -0.008,-0.30243 -0.41061,-0.15756 -0.41062,-0.15757 0.15035,0.24327 0.15035,0.24327 -0.29034,0.17944 -0.29034,0.17944 0.16177,0.69873 0.16177,0.69874 -0.24736,-0.37161 -0.24736,-0.37162 -0.62919,0.67891 -0.6292,0.67891 -0.4544,-0.25429 -0.4544,-0.2543 v 0.41002 0.41003 h 0.26458 0.26459 v 0.49677 0.49677 l -0.39688,0.32937 -0.39687,0.32938 v 0.37278 0.37278 l -0.40249,0.15445 -0.4025,0.15445 -0.69192,-0.69192 -0.69192,-0.69192 h -0.20815 -0.20815 l 0.7734,0.7734 0.77339,0.7734 v 0.25562 0.25563 l -0.47944,0.59208 -0.47944,0.59209 -0.57917,-0.18382 -0.57917,-0.18382 -0.28311,-0.52899 -0.28311,-0.52899 0.41274,-0.62992 0.41274,-0.62992 -0.22177,-0.13706 -0.22176,-0.13705 -0.34917,0.65242 -0.34917,0.65243 h -0.24818 -0.24818 l 0.15229,-0.39687 0.1523,-0.39688 h -0.23423 -0.23423 l -0.09,0.27005 -0.09,0.27005 -0.72371,-0.3362 -0.72372,-0.33619 -0.002,-0.21405 -0.002,-0.21405 -0.24554,0.15174 -0.24553,0.15175 -0.17359,-0.54694 -0.17359,-0.54693 -0.30848,0.2503 -0.30848,0.25031 -0.97383,-0.0807 -0.97384,-0.0807 -0.48137,-0.27653 -0.48138,-0.27652 1.05834,0.11621 1.05833,0.11622 -0.81685,-0.21776 -0.81684,-0.21777 -0.30763,-0.19013 -0.30764,-0.19012 v -0.66146 -0.66146 l -0.26458,0.16352 -0.26458,0.16352 v -0.39687 -0.39688 l -0.30547,-0.18878 -0.30546,-0.18879 0.17165,0.27774 0.17165,0.27774 -0.36949,0.14178 -0.36948,0.14179 -0.16498,-0.16498 -0.16498,-0.16497 -0.53845,-0.0822 -0.53846,-0.0822 0.17752,0.28723 0.17752,0.28724 -0.88902,-0.45088 -0.88901,-0.45088 -1.47833,-0.99885 -1.47832,-0.99886 -1.16751,-0.59204 -1.16751,-0.59204 -0.13229,-0.16698 -0.13229,-0.16698 -2.38125,-1.47852 -2.38125,-1.47853 -3.571875,-2.19966 -3.571875,-2.19967 -1.482962,-0.94793 -1.482963,-0.94793 -1.295162,-0.77626 -1.295163,-0.77625 -2.38125,-1.44076 -2.381249,-1.44077 -1.755374,-1.15642 -1.755374,-1.15642 h -0.134309 -0.13431 l -2.34365,-1.48883 -2.34365,-1.48884 -0.753928,-0.42939 -0.753929,-0.4294 -2.421071,-1.53344 -2.421071,-1.53345 -0.0029,-0.31864 -0.0029,-0.31863 -0.52627,0.0634 -0.526271,0.0634 -0.661458,-0.52057 -0.661458,-0.52058 0.567005,-0.006 0.567005,-0.006 0.160599,-0.41852 0.160599,-0.41851 -0.008,-0.1768 -0.008,-0.1768 -0.269685,0.46302 -0.269685,0.46302 h -0.432484 -0.432484 l -1.208015,-0.57137 -1.208014,-0.57138 -1.164553,-0.66787 -1.164554,-0.66788 0.503095,-0.19736 0.503095,-0.19736 -0.440844,-0.0186 -0.440844,-0.0186 -0.342901,-0.77467 -0.342901,-0.77467 -0.195167,0.12062 -0.195168,0.12062 -0.304255,-0.56851 -0.304255,-0.5685 0.29098,0.17983 0.29098,0.17984 v -0.2802 -0.2802 h -0.300264 -0.300265 l 0.685101,-0.5389 0.6851,-0.5389 -0.151269,-0.3942 -0.15127,-0.3942 0.718109,-0.66552 0.718109,-0.66552 0.420779,0.34185 0.42078,0.34185 -0.173526,-0.46302 -0.173526,-0.46302 h 0.397097 0.397097 l 0.204356,0.55243 0.204356,0.55242 0.346264,-0.41722 0.346264,-0.41722 0.207768,0.12841 0.207768,0.12841 0.622148,-0.65592 0.622149,-0.65592 0.230834,-0.005 0.230835,-0.005 -0.318236,0.38345 -0.318236,0.38345 0.739543,-0.0527 0.739542,-0.0527 0.141609,0.77192 0.141609,0.77192 0.30735,0.10223 0.30735,0.10223 0.4773,-0.808 0.477301,-0.80801 h 0.653429 0.65343 l 2.53067,1.42736 2.53067,1.42735 3.307291,1.8345 3.307292,1.8345 3.439583,1.98973 3.439583,1.98973 1.190625,0.66519 1.190625,0.6652 1.322916,0.79579 1.322917,0.7958 6.085416,3.52562 6.08542,3.52563 2.29138,1.41541 2.29138,1.4154 0.12125,0.31879 0.12125,0.31879 -0.22129,0.59531 -0.22129,0.59532 -0.33926,0.0313 -0.33925,0.0313 -0.19844,-0.0313 -0.19844,-0.0313 0.0562,0.19843 0.0562,0.19844 -0.34223,0.61797 -0.34223,0.61798 0.12051,0.1205 0.1205,0.12051 0.86204,-0.72536 0.86205,-0.72536 0.31924,-0.75925 0.31923,-0.75924 0.467,0.71272 0.46699,0.71272 -0.26368,0.56257 -0.26369,0.56257 -0.79074,1.07877 -0.79074,1.07876 -0.99325,-0.0782 -0.99324,-0.0782 0.13224,0.13223 0.13223,0.13224 0.54615,0.10518 0.54616,0.10518 0.54198,0.54198 0.54198,0.54198 -0.15976,0.41631 -0.15975,0.41632 0.66605,-0.16717 0.66606,-0.16717 0.17944,0.29034 0.17944,0.29033 0.25062,-0.15489 0.25061,-0.15489 -0.15222,-0.2463 -0.15222,-0.2463 h 0.2802 0.2802 v -0.63645 -0.63646 l 0.59263,-1.11028 0.59264,-1.11029 0.17474,0.62226 0.17474,0.62226 0.0571,-0.66145 0.0571,-0.66146 0.11818,0.44835 0.11817,0.44836 0.36847,-0.14139 0.36846,-0.1414 -0.49789,-0.53442 -0.49789,-0.53442 0.16309,-0.42501 0.16309,-0.42502 0.3347,0.78477 0.3347,0.78476 0.016,-0.66146 0.016,-0.66146 0.25648,0.39688 0.25648,0.39687 0.004,-0.44097 0.004,-0.44097 -0.33073,-0.13345 -0.33073,-0.13345 0.33073,-0.0209 0.33073,-0.0209 V 161.59687 161.2 h 0.26458 0.26458 v -0.52917 -0.52916 h 0.2802 0.2802 l -0.12445,0.20135 -0.12444,0.20136 0.37341,0.51067 0.37342,0.51067 v -0.33077 -0.33076 l 0.2463,0.15222 0.2463,0.15222 0.16619,-0.2689 0.16618,-0.2689 h -0.46305 -0.46306 l 0.51359,-0.39252 0.51359,-0.39253 -0.59532,-0.1675 -0.59531,-0.1675 v -0.21589 -0.2159 l 0.5268,-0.1672 0.5268,-0.1672 0.24867,0.15369 0.24867,0.15368 0.16885,-0.27321 0.16886,-0.27322 0.23303,0.14402 0.23302,0.14402 0.27786,-0.51918 0.27786,-0.51919 v -0.20025 -0.20026 l -0.38846,0.51359 -0.38846,0.51359 -0.008,-0.28972 -0.008,-0.28972 0.50936,-0.46097 0.50937,-0.46097 0.11245,0.75069 0.11245,0.75069 0.0396,-1.21065 0.0396,-1.21065 0.63751,-0.5989 0.63751,-0.59891 0.12555,0.48664 0.12555,0.48664 0.0571,-0.92604 0.0571,-0.92604 0.21184,0.66146 0.21183,0.66145 0.0466,-0.39687 0.0466,-0.39688 0.0855,-0.44198 0.0856,-0.44198 -0.40266,-0.57488 -0.40266,-0.57488 -0.65414,0.12505 -0.65414,0.12505 -4.5391,-2.37211 -4.5391,-2.3721 -1.5875,-0.86706 -1.5875,-0.86707 -1.98437,-1.06357 -1.98438,-1.06358 -3.57187,-1.91114 -3.57188,-1.91115 -2.248958,-1.25408 -2.248958,-1.25409 -3.439583,-1.85653 -3.439583,-1.85653 -2.910417,-1.55008 -2.910416,-1.55009 -1.190625,-0.57471 -1.190625,-0.57471 -1.375776,-0.48242 -1.375776,-0.48241 -0.211308,0.2113 -0.211308,0.21131 0.470381,0.34395 0.470381,0.34395 -0.421421,0.16172 -0.421421,0.16171 0.164676,0.26646 0.164677,0.26645 h -0.166806 -0.166805 l -0.360967,-0.36097 -0.360967,-0.36097 0.31372,-0.33943 0.31372,-0.33943 -0.454548,0.15968 -0.454547,0.15967 -0.15638,-0.25302 -0.15638,-0.25303 0.280198,-0.0331 0.280199,-0.0331 0.264583,-0.0331 0.264583,-0.0331 -0.01762,-0.22254 -0.01762,-0.22253 0.480639,-0.35388 0.480639,-0.35389 -0.463021,-0.15118 -0.463021,-0.15119 -0.414512,-0.13076 -0.414513,-0.13075 -2.032883,1.54131 -2.032883,1.54131 -1.322917,0.76702 -1.322916,0.76701 -2.689886,2.16014 -2.689885,2.16014 -1.231258,0.84713 -1.231257,0.84713 -1.635107,1.45476 -1.635107,1.45476 -0.329508,0.61798 -0.329508,0.61798 0.149373,0.38926 0.149373,0.38927 0.444719,0.12834 0.444718,0.12835 0.529167,0.18727 0.529166,0.18726 -0.396875,-0.28549 -0.396875,-0.28549 0.290356,-0.004 0.290355,-0.004 2.355478,1.48399 2.355478,1.48398 4.497916,2.78651 4.497917,2.78652 2.381249,1.46281 2.38125,1.46281 3.175,2.03751 3.175,2.0375 6.35,3.96734 6.349999,3.96734 4.497917,2.85413 4.49791,2.85414 5.15938,3.21987 5.15937,3.21988 3.83646,2.27778 3.83646,2.27779 0.74483,0.28297 0.74483,0.28296 h 1.38618 1.38618 l 1.21277,-0.76911 1.21276,-0.76911 0.82197,-1.19469 0.82196,-1.19468 1.93505,-3.26173 1.93505,-3.26172 1.52032,-2.38125 1.52032,-2.38125 1.13431,-1.98437 1.13432,-1.98438 3.70284,-6.08542 3.70283,-6.08541 0.63861,-1.00725 0.63862,-1.00725 1.78612,-2.69692 1.78612,-2.69691 1.10646,-1.51463 1.10646,-1.51462 -0.33478,-0.62555 -0.33479,-0.62556 -1.36717,-0.82634 -1.36717,-0.82633 -3.70417,-1.57337 -3.70416,-1.57338 -1.85209,-0.84762 -1.85208,-0.84763 -2.77813,-1.32006 -2.77812,-1.32006 -1.05833,-0.49146 -1.05834,-0.49146 -4.23333,-1.75199 -4.23333,-1.75199 -0.79375,-0.3543 -0.79375,-0.35431 -3.57188,-1.63643 -3.57187,-1.63643 -2.51354,-0.86302 -2.51355,-0.86303 -3.0427,-1.26526 -3.04271,-1.26525 -0.25136,-0.22528 -0.25135,-0.22527 h 0.55438 0.55438 l 1.94593,0.80719 1.94593,0.80718 0.52917,0.24242 0.52917,0.24241 3.30729,1.29583 3.30729,1.29583 2.30971,1.09415 2.30972,1.09416 h 0.43238 0.43239 l 0.96207,0.52209 0.96206,0.52209 3.175,1.29641 3.175,1.29641 2.51354,1.19277 2.51355,1.19276 2.11666,0.98632 2.11667,0.98632 1.39193,0.48707 1.39193,0.48706 0.85703,0.44792 0.85703,0.44792 0.45943,0.2268 0.45943,0.22681 h 0.51079 0.51079 l 2.86624,1.34318 2.86623,1.34318 1.05833,0.54819 1.05834,0.54818 1.22734,1.01905 1.22735,1.01905 h 0.37289 0.37289 l 0.82599,-0.8599 0.82599,-0.85989 0.61648,-0.66146 0.61648,-0.66146 -0.0661,-0.19844 -0.0661,-0.19843 h 0.26459 0.26458 v -0.44098 -0.44097 l 0.17049,0.17049 0.17049,0.17049 -0.47167,1.26267 -0.47168,1.26267 -1.56616,3.14452 -1.56616,3.14453 -1.21345,2.27943 -1.21345,2.27944 -1.85541,3.175 -1.85542,3.175 -5.28911,8.86354 -5.28912,8.86354 -3.09509,5.02708 -3.0951,5.02709 -2.56072,4.14883 -2.56072,4.14884 -0.79583,0.66964 -0.79582,0.66964 -0.98397,0.27328 -0.98397,0.27327 z m -2.51354,-11.88707 h 0.13229 v -0.1323 -0.13229 h -0.13229 -0.13229 v 0.13229 0.1323 z m -6.35,-3.96875 h 0.13229 v -0.1323 -0.13229 h -0.13229 -0.13229 v 0.13229 0.1323 z m -0.49985,-0.26459 h 0.10298 v -0.10186 -0.10186 l -0.72761,-0.44301 -0.7276,-0.44301 0.62462,0.54487 0.62463,0.54487 z m 11.74464,-0.79375 h 0.35278 l -0.17639,-0.17639 -0.17639,-0.17639 -0.17639,0.17639 -0.17639,0.17639 z m -13.89062,-0.52916 h 0.13229 v -0.1323 -0.13229 h -0.13229 -0.13229 v 0.13229 0.1323 z m 13.49375,0 h 0.13229 v -0.1323 -0.13229 h -0.13229 -0.1323 v 0.13229 0.1323 z m -0.52917,-0.52917 h 0.13229 v -0.13229 -0.13229 h -0.13229 -0.13229 v 0.13229 0.13229 z m -1.32292,-0.26458 h 0.13229 v -0.1323 -0.13229 h -0.13229 -0.13229 v 0.13229 0.1323 z m -15.875,-1.85209 h 0.1323 v -0.13229 -0.13229 h -0.1323 -0.13229 v 0.13229 0.13229 z m -0.42734,-0.27046 0.16276,-0.006 -0.66146,-0.53081 -0.66146,-0.53081 -0.52916,-0.28944 -0.52917,-0.28944 0.26458,0.25168 0.26459,0.25168 0.76328,0.57446 0.76329,0.57445 z m 8.48152,-0.2587 h 0.24897 l 0.17467,-0.28263 0.17467,-0.28262 0.38385,0.1473 0.38386,0.1473 -0.14121,-0.22848 -0.14121,-0.22848 h -0.66628 -0.66629 v 0.3638 0.36381 z m 12.71561,0 h 0.35278 l -0.17639,-0.17639 -0.17639,-0.17639 -0.17638,0.17639 -0.17639,0.17639 z m -12.5677,-1.05834 h 0.13229 v -0.13229 -0.13229 h -0.13229 -0.13229 v 0.13229 0.13229 z m -8.99584,-2.64583 h 0.1323 v -0.13229 -0.13229 h -0.1323 -0.13229 v 0.13229 0.13229 z m -6.61458,-0.52917 h 0.13229 v -0.13229 -0.13229 h -0.13229 -0.13229 v 0.13229 0.13229 z m -1.3073,-0.79375 h 0.11668 v -0.11667 -0.11668 l -0.30547,-0.18879 -0.30546,-0.18878 0.18879,0.30546 0.18878,0.30546 z m -1.338532,-0.79375 h 0.132292 v -0.13229 -0.13229 h -0.132292 -0.132292 v 0.13229 0.13229 z m 12.850982,-0.29482 0.21712,-0.35131 -0.1003,-0.1003 -0.10031,-0.10031 -0.2865,0.17707 -0.2865,0.17707 0.16968,0.27455 0.16968,0.27455 z m -1.20932,0.0302 h 0.1323 v -0.13229 -0.13229 h -0.1323 -0.13229 v 0.13229 0.13229 z m -0.26458,-0.52917 h 0.13229 V 167.68229 167.55 h -0.13229 -0.13229 v 0.13229 0.13229 z M 97.777929,167.55 h 0.06968 v -0.0971 -0.0971 l -1.119462,-0.76277 -1.119462,-0.76276 -0.335746,-0.21159 -0.335746,-0.21158 v 0.13841 0.13841 l 1.38553,0.93307 1.385531,0.93307 z m 13.960301,0 h 0.13229 v -0.13229 -0.13229 h -0.13229 -0.13229 v 0.13229 0.13229 z m 0.79375,0 h 0.13229 v -0.13229 -0.13229 h -0.13229 -0.13229 v 0.13229 0.13229 z m -0.79375,-0.52917 h 0.13229 v -0.13229 -0.13229 h -0.13229 -0.13229 v 0.13229 0.13229 z m 0.52917,-0.26458 h 0.13229 v -0.13229 -0.13229 h -0.13229 -0.13229 v 0.13229 0.13229 z m 3.48084,-0.1934 0.13177,-0.3257 -0.12197,-0.46805 -0.12197,-0.46806 -0.01,0.79375 -0.01,0.79375 z m 0.48791,-0.0712 h 0.13229 v -0.1323 -0.13229 h -0.13229 -0.13229 v 0.13229 0.1323 z m 1.32291,-0.26459 h 0.1323 v -0.13229 -0.13229 h -0.1323 -0.13229 v 0.13229 0.13229 z m -1.05833,-0.52916 h 0.39688 v -0.22049 -0.22049 h -0.39688 -0.39687 v 0.22049 0.22049 z m 20.6816,-0.61736 0.17639,-0.17639 -0.17639,-0.17639 -0.17639,-0.17639 v 0.35278 0.35277 z m -46.065983,-1.76389 h 0.116676 v -0.11668 -0.11668 l -0.305463,-0.18878 -0.305464,-0.18879 0.188787,0.30546 0.188787,0.30547 z m 26.178133,-0.26459 h 0.13229 v -0.13229 -0.13229 h -0.13229 -0.13229 v 0.13229 0.13229 z m 20.90208,-0.26458 h 0.13229 v -0.13229 -0.13229 h -0.13229 -0.13229 v 0.13229 0.13229 z m -19.27048,-0.61736 0.17639,-0.17639 -0.17639,-0.17639 -0.17639,-0.17639 v 0.35278 0.35278 z m 1.27882,-0.17639 h 0.13229 v -0.13229 -0.13229 h -0.13229 -0.13229 v 0.13229 0.13229 z M 85.279899,159.6125 h 0.132291 v -0.13229 -0.13229 h -0.132291 -0.132292 v 0.13229 0.13229 z m 35.718751,0 h 0.13229 v -0.13229 -0.13229 h -0.13229 -0.13229 v 0.13229 0.13229 z m 2.64583,0 h 0.13229 v -0.13229 -0.13229 h -0.13229 -0.13229 v 0.13229 0.13229 z m -0.79375,-0.79375 h 0.13229 v -0.13229 -0.13229 h -0.13229 -0.13229 v 0.13229 0.13229 z m 0.83785,-0.88194 0.17639,-0.17639 -0.17639,-0.17639 -0.17639,-0.17639 v 0.35278 0.35277 z m -0.0441,-0.70556 h 0.13229 v -0.13229 -0.13229 h -0.13229 -0.13229 v 0.13229 0.13229 z m 0,-0.79375 h 0.13229 v -0.13229 -0.13229 h -0.13229 -0.13229 v 0.13229 0.13229 z m 0.52917,0 h 0.13229 v -0.13229 -0.13229 h -0.13229 -0.1323 v 0.13229 0.13229 z m 0.0441,-0.61736 0.17639,-0.17639 -0.17639,-0.17639 -0.17639,-0.17639 v 0.35278 0.35278 z m 2.07257,-2.02847 h 0.13229 v -0.1323 -0.13229 h -0.13229 -0.13229 v 0.13229 0.1323 z M 75.225732,153.2625 h 0.132292 v -0.13229 -0.13229 h -0.132292 -0.132291 v 0.13229 0.13229 z m 54.548258,-2.46944 0.17639,-0.17639 -0.17639,-0.17639 -0.17639,-0.17639 v 0.35278 0.35277 z m -2.95451,-0.17639 h 0.13229 v -0.1323 -0.13229 h -0.13229 -0.13229 v 0.13229 0.1323 z m 3.175,-0.52917 h 0.13229 v -0.13229 -0.13229 h -0.13229 -0.13229 v 0.13229 0.13229 z m 0.57326,-0.61736 0.17639,-0.17639 -0.17639,-0.17639 -0.17639,-0.17639 v 0.35278 0.35278 z m 0.52917,-0.52917 0.17639,-0.17639 -0.17639,-0.17639 -0.17639,-0.17638 v 0.35277 0.35278 z m -0.0441,-0.70555 h 0.13229 v -0.13229 -0.1323 h -0.13229 -0.13229 v 0.1323 0.13229 z m 0.55673,-0.0717 0.15985,-0.15985 -0.13896,-0.34727 -0.13897,-0.34726 -0.0209,0.50711 -0.0209,0.50712 z m -5.11635,-0.72209 h 0.39379 l 0.33468,-0.40327 0.33468,-0.40327 -0.10384,-0.10312 -0.10385,-0.10313 -0.62463,0.5064 -0.62462,0.50639 z m 6.98497,-1.41111 0.17639,-0.17639 -0.17639,-0.17639 -0.17639,-0.17639 v 0.35278 0.35277 z m -0.17639,-0.70556 h 0.35278 l -0.17639,-0.17639 -0.17639,-0.17639 -0.17639,0.17639 -0.17639,0.17639 z m -66.333835,-0.7978 0.208869,0.004 -0.34116,-0.3691 -0.341161,-0.36911 -0.226685,0.1376 -0.226685,0.13759 0.358976,0.22746 0.358977,0.22746 z m 66.542355,-0.34209 0.49588,-0.44876 0.11082,0.11004 0.11082,0.11004 0.0446,-0.83707 0.0446,-0.83707 -0.22445,0.52917 -0.22445,0.52917 -0.0102,-0.39688 -0.0102,-0.39687 0.32231,-0.42237 0.32232,-0.42237 0.46302,0.0682 0.46302,0.0682 v -0.24117 -0.24117 h -0.42731 -0.4273 l 0.4383,-0.66893 0.4383,-0.66893 -0.1589,-0.25711 -0.15891,-0.25711 h -0.84935 -0.84935 l -0.82458,1.52135 -0.82458,1.52136 0.0533,0.59944 0.0533,0.59944 0.28351,0.28351 0.28351,0.2835 0.17776,-0.28763 0.17777,-0.28764 h 0.27728 0.27728 l -0.17199,0.44819 -0.17198,0.44818 z m -1.26685,-0.44761 h -0.35278 l 0.17639,-0.17639 0.17639,-0.17639 0.17639,0.17639 0.17639,0.17639 z m -62.309374,0.52917 h 0.132292 v -0.13229 -0.1323 h -0.132292 -0.132292 v 0.1323 0.13229 z m 61.313844,-0.068 0.59198,0.0446 -0.39354,-0.24882 -0.39354,-0.24882 -0.19843,-0.004 -0.19844,-0.004 v 0.20828 0.20828 z m -63.810566,-0.38889 0.506395,-0.13242 -0.14493,-0.2345 -0.144931,-0.23451 h -0.220661 -0.220661 l -0.140803,0.36693 -0.140804,0.36693 z m 1.784733,0.18827 0.08176,0.004 -0.163522,-0.26458 -0.163521,-0.26458 -0.315115,0.004 -0.315114,0.004 0.396875,0.25648 0.396875,0.25648 z m 78.203673,0.004 h 0.13229 l 0.16352,-0.26458 0.16352,-0.26458 h -0.13229 -0.13229 l -0.16352,0.26458 -0.16352,0.26458 z m -17.16669,-0.26458 h 0.13229 v -0.13229 -0.13229 h -0.13229 -0.13229 v 0.13229 0.13229 z m -63.499994,-0.52917 h 0.132292 v -0.13229 -0.13229 h -0.132292 -0.132291 v 0.13229 0.13229 z m 81.028644,-0.0186 0.0661,0.0186 v -0.26458 -0.26458 l -0.59531,0.0186 -0.59531,0.0186 0.52917,0.22739 0.52916,0.22739 z M 67.8174,142.94375 h 0.132291 v -0.13229 -0.13229 H 67.8174 67.685108 v 0.13229 0.13229 z m 61.88922,-0.0882 h 0.39687 l -0.13626,-0.22049 -0.13627,-0.22049 h -0.39688 -0.39687 l 0.13627,0.22049 0.13626,0.22049 z m 1.36181,-0.17639 h 0.11667 v -0.11668 -0.11668 l -0.30546,-0.18878 -0.30546,-0.18879 0.18878,0.30546 0.18879,0.30547 z m 3.68855,-0.26459 h 0.13229 V 142.28229 142.15 h -0.13229 -0.13229 v 0.13229 0.13229 z m 11.42002,-0.19843 0.13345,-0.33073 h 0.39044 0.39044 l -0.18928,-0.30626 -0.18928,-0.30627 0.57054,0.1492 0.57054,0.1492 v -0.2115 -0.21151 l -0.39687,-0.15229 -0.39688,-0.1523 v -0.63736 -0.63737 l 0.38529,-0.31976 0.38528,-0.31976 0.34232,0.19389 0.34232,0.19388 -0.31294,-0.33853 -0.31295,-0.33853 -0.4808,0.20943 -0.48081,0.20943 -0.2181,-0.0486 -0.21811,-0.0486 0.1558,0.25209 0.1558,0.25209 -0.50856,0.16141 -0.50857,0.16141 -0.15073,0.39281 -0.15073,0.3928 0.52316,0.52317 0.52317,0.52316 h -0.26459 -0.26458 l 0.0209,0.46302 0.0209,0.46303 z m 0.72876,0.17755 0.50712,0.0209 -0.15985,-0.15985 -0.15985,-0.15985 -0.34727,0.13896 -0.34726,0.13897 z m -11.09045,-1.8312 h 0.13229 v -0.13229 -0.13229 h -0.13229 -0.13229 v 0.13229 0.13229 z m -5.09327,-0.26458 h 0.43183 l 0.17441,-0.28219 0.1744,-0.28219 -0.0931,-0.0931 -0.0931,-0.0931 -0.51317,0.37524 -0.51317,0.37525 z m -62.477336,-1.05834 h 0.234154 v -0.15602 -0.15603 l -0.595313,-0.52243 -0.595312,-0.52243 0.330729,-0.13734 0.330729,-0.13734 v -0.24254 -0.24253 h -0.236276 -0.236276 l -0.157615,0.41074 -0.157615,0.41073 0.424321,0.6476 0.424321,0.64759 z m -1.750221,-0.79375 h 0.132292 v -0.13229 -0.13229 h -0.132292 -0.132292 v 0.13229 0.13229 z m 2.645833,-1.5875 h 0.132292 v -0.13229 -0.13229 h -0.132292 -0.132292 v 0.13229 0.13229 z m 63.081074,-3.44363 0.63941,0.004 -0.11024,-0.0943 -0.11025,-0.0943 -0.92604,-0.16993 -0.92604,-0.16993 0.39687,0.26017 0.39688,0.26016 z m -55.05538,-6.08137 h 0.573264 v -0.42927 -0.42927 l -0.463021,0.3544 -0.463021,0.35441 -0.110243,0.0749 -0.110243,0.0749 z m 7.584722,-0.26458 h 0.132292 v -0.13229 -0.13229 H 84.750732 84.61844 v 0.13229 0.13229 z m -1.322917,-1.32292 h 0.132292 v -0.13229 -0.13229 h -0.132292 -0.132291 v 0.13229 0.13229 z m 32.146875,0 h 0.35278 l -0.17639,-0.17638 -0.17639,-0.17639 -0.17639,0.17639 -0.17639,0.17638 z m 0.71725,0 h 0.27629 l 0.36312,-0.46302 0.36313,-0.46302 -0.52917,0.38815 -0.52916,0.38816 -0.11025,0.0749 -0.11024,0.0749 z m -1.62768,-0.52916 h 0.11668 v -0.11668 -0.11668 l -0.30546,-0.18878 -0.30547,-0.18879 0.18879,0.30546 0.18879,0.30547 z m -16.948945,-4.49792 h 0.132291 v -0.13229 -0.13229 h -0.132291 -0.132292 v 0.13229 0.13229 z m 5.789605,-0.26458 h 0.13229 l 0.16352,-0.26459 0.16352,-0.26458 h -0.13229 -0.13229 l -0.16352,0.26458 -0.16352,0.26459 z m -4.731272,-0.26459 h 0.132292 v -0.13229 -0.13229 h -0.132292 -0.132292 v 0.13229 0.13229 z m 25.664582,60.325 h -0.13229 V 180.38229 180.25 h 0.13229 0.13229 v 0.13229 0.13229 z m -6.61458,-19.57916 h -0.13229 v -0.1323 -0.13229 h 0.13229 0.13229 v 0.13229 0.1323 z m 0.79375,0 h -0.13229 v -0.1323 -0.13229 h 0.13229 0.13229 v 0.13229 0.1323 z m -1.95576,-0.26459 h -0.48394 l -0.89682,-0.60709 -0.89682,-0.60709 -1.4552,-0.81064 -1.45521,-0.81065 -3.30729,-1.85183 -3.3073,-1.85184 -2.38125,-1.40169 -2.38125,-1.40168 -5.423954,-3.09328 -5.423958,-3.09327 -3.439583,-1.98218 -3.439583,-1.98218 -1.984375,-1.0697 -1.984375,-1.0697 -2.904329,-1.61901 -2.904329,-1.619 h -0.296166 -0.296167 l -0.808633,-0.4034 -0.808632,-0.4034 0.104525,-1.08518 0.104525,-1.08519 0.542046,-0.47012 0.542046,-0.47011 -0.34161,-0.13708 -0.341609,-0.13708 0.859896,-0.0209 0.859896,-0.0209 v -0.44098 -0.44097 l 0.165137,0.16514 0.165138,0.16514 0.430175,-0.46229 0.430175,-0.46229 -0.03808,0.0927 -0.03808,0.0927 0.567251,0.63041 0.56725,0.63041 0.621916,0.69397 0.621916,0.69396 0.14608,-0.14608 0.14608,-0.14608 -0.70185,-0.55207 -0.70185,-0.55208 v -0.21495 -0.21495 l 0.686555,-0.44985 0.686555,-0.44985 0.612758,0.57566 0.612758,0.57566 0.486624,-0.0983 0.486625,-0.0984 -0.02101,-0.58706 -0.02101,-0.58705 h 0.574785 0.574785 l 3.811848,1.94687 3.811848,1.94688 4.233333,2.37195 4.233333,2.37196 0.79375,0.40513 0.79375,0.40514 2.645834,1.45041 2.64584,1.45042 2.91041,1.58696 2.91042,1.58696 2.11667,1.20199 2.11666,1.202 2.51463,1.31923 2.51463,1.31924 0.95826,0.63149 0.95826,0.63149 0.49403,0.29227 0.49404,0.29226 -0.32661,0.39354 -0.3266,0.39354 0.17682,0.17682 0.17683,0.17683 -0.40673,0.328 -0.40674,0.32799 -0.16096,0.46302 -0.16096,0.46302 h 0.24067 0.24066 l 0.15591,-0.25226 0.15591,-0.25227 0.73421,-0.5228 0.73421,-0.52281 0.35434,0.21899 0.35433,0.21899 -0.5933,0.95998 -0.59329,0.95997 -0.43287,0.43286 -0.43286,0.43286 -0.004,0.42002 -0.004,0.42001 0.39687,0.17985 0.39688,0.17984 -0.45472,0.0186 -0.45472,0.0186 0.1523,0.39687 0.15229,0.39688 h -0.44079 -0.4408 l 0.16352,-0.26458 0.16352,-0.26459 h -0.2802 -0.28019 l -0.0156,0.72761 -0.0156,0.7276 -0.28928,-0.42411 -0.28927,-0.42412 -0.87554,0.55641 -0.87554,0.5564 0.11374,0.33073 0.11373,0.33073 z m 2.45369,-2.91041 h 0.1323 l 0.16352,-0.26459 0.16352,-0.26458 h -0.13229 -0.1323 l -0.16352,0.26458 -0.16352,0.26459 z m 0.27377,-0.81464 0.50712,0.0209 -0.15986,-0.15986 -0.15985,-0.15985 -0.34726,0.13897 -0.34727,0.13896 z m -0.7717,-0.2437 h 0.13229 v -0.13229 -0.13229 h -0.13229 -0.13229 v 0.13229 0.13229 z m -44.185417,-25.1354 h 0.132291 v -0.13229 -0.1323 h -0.132291 -0.132292 v 0.1323 0.13229 z m 46.831247,26.9875 h -0.13229 v -0.1323 -0.13229 h 0.13229 0.13229 v 0.13229 0.1323 z M 70.198649,147.17708 h -0.132291 v -0.13229 -0.13229 h 0.132291 0.132292 v 0.13229 0.13229 z m 78.052081,-1.05833 h -0.13229 v -0.13229 -0.13229 h 0.13229 0.13229 v 0.13229 0.13229 z m -17.33021,-1.05833 h -0.35278 l 0.17639,-0.17639 0.17639,-0.17639 0.17639,0.17639 0.17639,0.17639 z M 62.938223,142.67917 H 62.689255 L 62.525733,142.41458 62.362212,142.15 h 0.41249 0.412489 v 0.26458 0.26459 z m 87.429177,-1.05834 h -0.1323 v -0.13229 -0.13229 h 0.1323 0.13229 v 0.13229 0.13229 z m -90.222917,-0.52916 h -0.132291 v -0.13229 -0.1323 h 0.132291 0.132292 v 0.1323 0.13229 z m 2.38125,-2.38125 h -0.132292 v -0.13229 -0.1323 h 0.132292 0.132292 v 0.1323 0.13229 z m 82.549997,-0.52917 h -0.13229 v -0.13229 -0.13229 h 0.13229 0.13229 v 0.13229 0.13229 z m -78.38281,-1.59756 -0.198437,-0.0101 -0.314825,-0.35862 -0.314825,-0.35861 0.147886,-0.14789 0.147885,-0.14788 0.365377,0.36537 0.365377,0.36538 v 0.15119 0.15119 z m 4.012847,-0.27541 -0.507118,-0.0209 0.347266,-0.13896 0.347266,-0.13897 0.159852,0.15985 0.159852,0.15986 z m -1.565451,-0.2437 H 69.008024 V 135.93229 135.8 h 0.132292 0.132292 v 0.13229 0.13229 z M 54.757358,135.00625 H 53.21504 l -0.437883,-0.48385 -0.437882,-0.48386 v -0.18691 -0.18691 l 0.463021,0.24007 0.463021,0.24007 1.242654,0.18021 1.242653,0.1802 0.783963,-0.4054 0.783963,-0.4054 0.119973,-0.3363 0.119973,-0.33629 0.234478,0.2203 0.234478,0.2203 -0.863888,0.77189 -0.863887,0.77188 z m 100.541662,-0.004 -1.49204,-0.004 -0.39688,-0.26016 -0.39687,-0.26017 0.85989,0.165 0.8599,0.16499 v -0.20234 -0.20234 l -0.45255,-0.33091 -0.45255,-0.33092 0.31459,-0.69044 0.31458,-0.69044 h 0.38365 0.38365 l 0.41577,0.41577 0.41578,0.41577 v 0.36483 0.36483 l -0.46082,0.25789 -0.46082,0.25788 0.1819,0.1819 0.18189,0.18189 1.27111,-0.42109 1.27111,-0.42109 -0.62462,0.52363 -0.62463,0.52362 z m -2.55037,-0.52512 h -0.1323 v -0.13229 -0.13229 h 0.1323 0.13229 v 0.13229 0.13229 z m -98.704357,-0.79375 h -0.293907 l -0.176389,-0.17639 -0.176388,-0.17638 v -0.47576 -0.47576 l 0.511772,-0.2739 0.511773,-0.27389 h 0.54656 0.546561 v 0.51416 0.51417 l -0.588038,0.41188 -0.588038,0.41187 z m 18.138731,-2.38125 h -0.352777 l 0.176388,-0.17639 0.176389,-0.17638 0.176389,0.17638 0.176389,0.17639 z m 2.879059,-0.7942 -0.428232,0.24642 -0.16708,-0.16708 -0.16708,-0.16708 v -0.2361 -0.2361 l 0.309546,0.19131 0.309546,0.19131 -0.149821,-0.39043 -0.149821,-0.39043 0.793122,0.11641 0.793122,0.1164 -0.357535,0.23948 -0.357534,0.23948 z m 10.387409,-4.76205 H 85.25344 l -0.3175,-0.3175 -0.3175,-0.3175 v -0.15497 -0.15497 h 0.509742 0.509741 l -0.128481,0.20789 -0.128482,0.20789 h 0.295814 0.295813 l -0.163522,0.26458 -0.163521,0.26458 z m -0.169593,-0.26458 h 0.132291 v -0.13229 -0.13229 h -0.132291 -0.132292 v 0.13229 0.13229 z m -1.058334,-1.5875 h -0.132291 v -0.13229 -0.13229 h 0.132291 0.132292 v 0.13229 0.13229 z m -4.762499,-4.26901 -1.5875,-0.0337 1.455208,-0.18839 1.455208,-0.18839 0.884484,-0.45788 0.884483,-0.45789 0.137544,0.13755 0.137543,0.13754 -0.889735,0.54243 -0.889736,0.54244 z m -1.852084,-0.22891 h -0.132291 v -0.13229 -0.13229 h 0.132291 0.132292 v 0.13229 0.13229 z m 2.149676,-1.32291 h -0.398654 l -0.158903,-0.25711 -0.158903,-0.25711 0.438301,-0.66893 0.438301,-0.66894 h 0.215255 0.215255 l 0.415773,0.41578 0.415774,0.41577 v 0.23638 0.23637 l -0.511772,0.2739 -0.511773,0.27389 z m 33.073652,-0.7978 -1.09208,-0.004 -0.39687,-0.26016 -0.39688,-0.26016 0.92604,0.16412 0.92604,0.16412 -0.48571,-0.37597 -0.48572,-0.37598 0.0888,-0.7807 0.0888,-0.7807 h 0.50033 0.50034 l 0.29148,0.4621 0.29149,0.46211 -0.34713,0.55584 -0.34713,0.55585 0.11393,0.11393 0.11393,0.11393 0.73754,-0.28041 0.73755,-0.28042 -0.33637,0.4053 -0.33637,0.40531 z m -16.30562,-0.91845 -2.248959,0.12212 -1.622277,-0.37055 -1.622277,-0.37054 -0.821547,-0.42484 -0.821547,-0.42484 -0.939724,-0.82509 -0.939724,-0.82508 -0.294825,-0.55089 -0.294826,-0.55089 1.252007,1.10206 1.252007,1.10206 1.235742,0.40663 1.235742,0.40663 1.872821,0.17059 1.872822,0.17059 2.309072,-0.32777 2.309073,-0.32777 -0.866845,-0.77392 -0.866842,-0.77392 -1.462967,-0.40162 -1.462968,-0.40162 -1.190625,-0.41876 -1.190625,-0.41875 -0.417708,-0.36067 -0.417709,-0.36066 H 92.112736 91.84349 l -0.780573,-0.3894 -0.780572,-0.3894 -1.492966,-0.14499 -1.492965,-0.14499 -0.272608,0.46824 -0.272608,0.46825 -0.008,-0.31351 -0.008,-0.3135 0.246859,-0.64929 0.24686,-0.64929 0.818074,-0.93174 0.818074,-0.93173 2.256332,-0.94452 2.256333,-0.94452 2.13074,-0.43175 2.13074,-0.43174 2.55164,0.12261 2.55164,0.1226 1.98437,0.47402 1.98438,0.47402 -0.46901,0.16619 -0.46901,0.16619 0.76412,0.45137 0.76411,0.45138 0.7367,1.40707 0.7367,1.40707 -0.18365,0.97893 -0.18365,0.97892 -0.92921,0.90244 -0.92921,0.90244 -1.82382,0.95839 -1.82382,0.95839 -2.06387,0.52861 -2.063881,0.52862 z m -0.897734,-6.22125 h 0.103984 v -0.71438 -0.71437 l -0.273257,0.27325 -0.273257,0.27326 0.169272,0.44112 0.169273,0.44112 z m 30.698644,6.34184 -0.29987,-0.008 -2.47598,-0.98402 -2.47598,-0.98403 -0.0376,-0.14753 -0.0376,-0.14754 1.34832,-1.17538 1.34833,-1.17538 0.50376,-0.29728 0.50375,-0.29728 -1.19062,-0.31614 -1.19063,-0.31613 -1.98437,-0.53136 -1.98438,-0.53137 -0.66145,-0.22086 -0.66146,-0.22086 -2.24896,-0.70672 -2.24896,-0.70671 -0.52917,-0.23572 -0.52916,-0.23571 0.79375,0.15383 0.79375,0.15383 2.77812,0.88071 2.77813,0.88071 3.43958,0.86309 3.43958,0.86309 0.72761,0.72082 0.7276,0.72081 -0.004,1.40942 -0.004,1.40941 -0.15954,0.59532 -0.15954,0.59531 z m -8.63424,-4.25613 -0.39688,0.0108 -0.31195,-0.35554 -0.31195,-0.35554 -0.0849,-0.4943 -0.0849,-0.49429 0.75984,-0.0868 0.75983,-0.0868 0.2985,0.30405 0.2985,0.30405 -0.59679,0.48784 -0.59679,0.48785 0.33221,0.13394 0.3322,0.13395 z m -9.78959,-6.05446 h -0.35278 l 0.17639,-0.17639 0.17639,-0.17639 0.17639,0.17639 0.17639,0.17639 z"
       id="path1" /></g></svg>
