<?xml version="1.0" encoding="UTF-8"?>
<svg xmlns="http://www.w3.org/2000/svg" viewBox="0 0 512.32 370">
  <g>
    <path d="m1,46.87c.87-3.19,1.62-6.41,2.63-9.55C10.13,16.87,28.69,2.86,50.22,2.09c1.99-.07,3.99-.1,5.99-.1,133.57,0,267.14.04,400.71-.08,12.9-.01,24.76,2.52,35.02,10.62,12.77,10.09,19.41,23.36,19.78,39.6.23,9.96.04,19.92.04,30.67-2.74.18-5.28.49-7.82.49-165.18.02-330.35.02-495.53.04-2.47,0-4.95.29-7.42.45,0-12.3,0-24.6,0-36.9Z"/>
    <path d="m1,287.22c2.47.16,4.95.45,7.42.45,165.01.02,330.01.02,495.02.02h8.88c-.59,14.45.18,28.22-2.01,41.5-3.7,22.39-24.21,38.83-46.9,39.7-1.66.06-3.33.13-4.99.13-134.57,0-269.13-.13-403.7.13-26.21.05-43.73-15.73-50.05-32.66-1.5-4.02-2.46-8.23-3.67-12.35,0-12.3,0-24.6,0-36.9Z"/>
    <path d="m1,103.72c24.25.08,48.5.17,72.75.24,8.42.02,16.84,0,26.73,0-31.46,19.16-48.7,45.84-48.42,81.55.28,35.67,17.74,62.29,49.15,81.51h-6.53c-29.24,0-58.48,0-87.72.01-1.99,0-3.97.15-5.96.24V103.72Z"/>
    <path d="m187.3,104.1h137.67c-30.96,19.12-48.27,45.56-48,81.39.27,35.81,17.79,62.21,48.6,81.31h-137.38c30.89-19.16,48.18-45.64,47.82-81.54-.36-35.65-17.78-61.96-48.71-81.17Z"/>
    <path d="m412.26,104.2h99.19v162.4h-98.17c30.69-18.72,47.94-45.43,47.66-81.12-.28-35.66-17.72-62.31-48.67-81.28Z"/>
    <path d="m113.78,185.14c.02-16.61,13.33-29.98,30.04-30.16,16.62-.18,30.63,13.95,30.62,30.86-.01,16.47-13.51,30-30.12,30.18-16.59.18-30.57-13.95-30.55-30.89Z"/>
    <path d="m399.21,185.84c-.01,16.63-13.3,29.99-30.04,30.18-16.57.19-30.63-13.98-30.63-30.86,0-16.49,13.47-29.99,30.1-30.18,16.64-.19,30.58,13.89,30.57,30.86Z"/>
  </g>
</svg>