<svg id="Layer_1" data-name="Layer 1" xmlns="http://www.w3.org/2000/svg" viewBox="0 0 600.33 600.33">
  <g id="rYCc1O.tif">
    <g>
      <path class="cls-1" d="m366.61,252.17c2.07-6.02,4.15-12.04,6.22-18.06.25-.72.52-1.43,1.09-2.98-1.31.6-2.3.76-2.41,1.15-2.06,7.57-8.32,12.39-13.96,15.91-7,4.36-11.58,10.75-17.69,15.69-.69.55-1.11,1.44-2.3,3.04,2.35-.63,3.72-.99,6.38-1.7-11.09,10.8-21.19,20.79-31.46,30.59-8.21,7.85-16.84,15.27-24.92,23.25-19.88,19.63-39.46,39.58-59.38,59.17-5.21,5.12-11.5,9.14-16.84,14.14-3.53,3.31-5.96,7.78-9.41,11.19-4.2,4.14-9.12,7.54-13.4,11.61-1.6,1.52-2.34,3.98-3.35,6.07-.33.68-.09,1.68-.48,2.28-2.96,4.48-5.73,9.14-9.11,13.3-7.17,8.83-14.68,17.38-22.04,26.05-4.93,5.81-2.86,12.51-2.51,19.04.57,10.56.71,21.08-9.09,28.33-2.93,2.17-3.76,4.98-3.77,8.56,0,5.19-6.75,15.55-10.38,16.01-4.86.62-9.67.16-13.64-3.25-5.24-4.51-10.45-9.05-15.63-13.53-6.93,4.45-10.13,4.11-15.86-1.59-3.66-3.64-7.92-6.94-6.74-13.14.14-.76-.81-2.48-1.17-2.46-6.83.43-4.29-4.38-4.56-7.84,1.94-.46,3.75-.89,6.17-1.45-3.06-9.46,3.38-16.33,6.87-24.11.35-.78.8-1.68.71-2.46-1.01-8.61,1.46-11.74,10.95-12.11-1.9-1.17-2.9-1.79-4.22-2.6,2.7-1.35,5.26-3.17,8.11-3.93,4.3-1.14,8.83-2.29,13.22-2.13,13.86.5,24.31-6.04,34.08-14.83,4.83-4.35,10.35-7.91,15.51-11.91,7.61-5.89,17.59-8.32,23.4-17.03,1.85-2.77,6.31-3.8,9.55-5.67.93-.54,1.87-1.13,2.63-1.88,9.09-9.1,18.18-18.19,27.19-27.36,28.91-29.43,57.73-58.95,86.71-88.33,10.85-11,22.07-21.63,33-32.56,2.34-2.34,4.1-5.24,5.08-8.09,0-2.64.12-5.28-.04-7.91-.1-1.65.75-3.36-2.19-4.46-1.8-.68-3.23-4.58-3.35-7.1-.33-7.18,3.4-12.78,9.69-15.63,5.67-2.57,7.94-7.54,10.72-12.11,3.69-6.07,7.83-10.59,15.26-12.24,3.47-.77,6.33-4.32,8.09-5.62-2-12.68-4.67-23.93-5.27-35.28-.48-9.12,9.52-23.73,19.04-24.03,6.68-.21,11.6,3.2,17.05,5.73,3.15,1.46,6.19,3.18,9.69,4.99,2.48-7.23,8.36-4.26,12.52-4.07,4.3.19,8.48,3,12.68,4.65,13.17-17.94,30.41-28.06,53.04-27.59,16.38.34,28.87,8.86,41.04,19.77-2.2,1.68-3.8,2.91-5.01,3.83,1.95,4.27,3.91,8.61,5.92,12.93.4.86.85,1.77,1.51,2.43,1.58,1.6,2.8,2.67,1.54,5.58-.9,2.08-.06,5.58,1.17,7.79,2.61,4.68,0,9.23-.72,13.22-.66,3.69-.15,8.34-3.87,12.12-2.19,2.22-3.13,6.68-5.73,9.65-2.72,3.1-4.38,8.05-7.69,9.51-5.41,2.38-8.92,6.93-13.82,9.47-2.33,1.21-5.62,1.5-8.24,1.94-6.52,1.1-13.25,2.83-20.09.82-4.37-1.28-9.02-1.57-13.4-2.82-2.81-.8-5.34-2.56-8.03-3.82-.39-.18-.94-.03-.87-.85-1.86-1.26-3.81-2.4-5.54-3.82-.85-.7-1.35-1.87-1.92-2.88-1.22-2.17-2.38-4.37-3.56-6.56l-.8,1.17c-1.59-2.5-3.18-5.01-5.05-7.94-.74-2.02-1.74-4.72-2.73-7.43.08,0,.16.01.24.02-.71-2.78-1.41-5.55-2.24-8.8,2.93-3.37-2.28-19-9.17-24.39-2.53,3.46-6.98,4.89-7.03,10.98-.03,3.02-4.81,6.91-8.31,8.78-7.09,3.79-11.55,9.83-16.23,15.85-.94,1.22-1.84,2.72-3.13,3.37-3.23,1.65-4.67,3.35-2.61,7.09,2.09,3.81,4.38,7.86,4.98,12.04.62,4.32.01,9.16-1.5,13.25-.55,1.5-5.22,1.48-7.25,2.97-1.78,1.37-3.55,2.76-5.36,4.1-.5.37-1.61.61-1.59.86.33,5.19-5.39,5.88-7.16,9.66-1.08,2.32-3.66,4.06-5.81,5.75-5.17,4.06-5.34,10.5-7.94,15.78-.86,1.76-2.32,3.22-3.51,4.82,0,0,.11.08.11.08Zm59.35-125.28c-5.46-2.96-11.03-5.9-16.53-8.99-5.37-3.02-10.84-2.93-15.02,1.37-5.1,5.24-8.89,11.58-8.07,19.19.85,7.92,2.62,15.75,4.14,23.59.27,1.39,1.34,2.63,1.78,3.46,10.48-4.92,13.9-16.28,23.03-21.94,1.57-.98,2.54-2.88,3.98-4.13,1.42-1.24,3-2.39,4.67-3.25,1.94-1,4.07-1.63,5.88-2.33-1.75-3.14-2.89-5.2-3.87-6.96Zm-71.5,95.07c.96,3.78,4.36,4.68,8.16,3.52,4.22-1.3,5.56-4.35,3.55-8.59-.37-.77.04-1.89-.26-2.72-.99-2.72-1.41-6.43-3.41-7.85-3.81-2.71-9.78,1.21-12.25,6.96-.82,1.91-2.33,3.53-3.93,5.89,2.2.76,4.91,1.69,8.15,2.8Zm38.83-25.52c7.49-6.22,7.57-6.59,2.92-13.71-.6.81-1.17,1.55-1.72,2.3-.66.9-1.23,1.87-1.97,2.7-3.43,3.84-3.34,5.12.77,8.71Z"/>
      <path class="cls-1" d="m366.5,252.09c-.31,4.37-5.75,10.22-11.45,11.78,4.13-4.18,7.84-7.93,11.56-11.69,0,0-.11-.08-.11-.08Z"/>
    </g>
  </g>
</svg>