<?xml version="1.0" encoding="utf-8"?>
<svg version="1.1" id="Layer_1" xmlns="http://www.w3.org/2000/svg" xmlns:xlink="http://www.w3.org/1999/xlink" x="0px" y="0px"
	 viewBox="0 0 310.1 137.6" style="enable-background:new 0 0 310.1 137.6;" xml:space="preserve">
<g id="SSmrMl.tif">
	<g>
		<path d="M303.7,23.2c0.2,1.2,0.5,2.2,0.5,3.4c0,7.5,0.1,15.1,0,22.6c0,1-0.3,2.1-0.4,3.1c-15.7-3.5-31.5-4.2-47.4-5.1
			c0.5,2.7-0.5,4.9-3,6.4c0.1,0.2,0.1,0.4,0.2,0.6c1.6-0.1,3.2-0.2,4.8-0.3c0.2,0,0.4-0.1,0.5-0.1c0.3-1.9,1.8-1.1,2.7-1.1
			c8.3-0.1,16.6-0.1,24.9-0.2c1.2,0,2.3-0.4,3.5-0.8c1.7-0.6,2.4-0.3,2.5,1.4c0.1,1.8,0.1,3.5,0,5.3c-0.1,1.7-1.1,2.2-2.7,1.6
			c-1.1-0.4-2.3-0.8-3.4-0.8c-8.5-0.1-16.9,0-25.4,0c-0.5,0-1.1,0-1.7-0.1c-0.1-0.5-0.2-0.9-0.4-1.5c-4,0-7.9-0.1-11.9,0.2
			c-1.5,0.1-2.8,1.2-4.3,1.7c-1.8,0.6-3.7,1.2-5.6,1.5c-2.6,0.4-5.2,0.4-7.9,0.7c-1.5,0.2-2.9,0.8-4.4,0.9
			c-4.7,0.2-9.5,1.1-13.9,0.3c-5.4-1-10.6-0.3-15.9-0.5c-5.4-0.1-10.9,0.1-16.3,0.2c-11.5,0.2-23.1,0.5-34.6,0.9
			c-6.3,0.2-12.7,0.5-19.1,0.9c-6.2,0.4-12.3,0.9-18.5,1.5c-0.5,0.1-1,0.3-1.4,0.7c-1.6,1.7-2.3,3.8-2.6,6
			c-0.4,4.4-2.3,8.1-5.2,11.4c-2.5,2.8-5.6,4.7-9.3,5.4c-2.7,0.5-5.5,1.1-8.2,0.9c-3.2-0.2-6.4-1.2-9.2-3c-2.6-1.5-4.1-4.2-5.7-6.6
			c-1.1-1.5-1.7-3.3-3.5-4.4c-1.3-0.8-2.3-1-3.5-0.3c-4,2.4-7.4,5.5-10.2,9.2c-1.9,2.6-3.6,5.3-5,8.2c-0.9,1.9-1.2,4.1-1.6,6.3
			c-0.3,1.9-0.4,3.9-0.4,5.9c-0.1,2.3-0.1,4.7-0.1,7.1c0,2.3,0.2,4.8-0.2,7c-0.4,1.9-1.4,3.8-2.6,5.2c-1.7,2.1-3.9,3.7-6.4,4.9
			c-3.1,1.5-6.2,2.1-9.5,1.7c-6.2-0.8-11.3-3.5-14.6-9c-3.3-5.3-3.8-11-2.5-17c0.6-2.7,1.1-5.4,1.8-8.1c1.2-4.9,3.1-9.6,5.3-14.1
			c3.6-7.4,8.5-13.9,14.1-19.8c5.5-5.9,11.6-11.2,18.3-15.9C50,43.3,56.3,40,62.7,36.9c3.7-1.8,7.8-3.1,11.8-4.1
			c4.4-1.1,9-1.7,13.4-2.5c1.5-0.3,2.4-1.3,2.3-2.9c-0.2-2.2-0.8-4.5-0.7-6.6c0.1-3.2,0.5-6.4,1.2-9.6C91.2,9,91.8,7,90.8,5
			c-0.1-0.2-0.1-0.4-0.1-0.6s0.1-0.4,0.1-0.6c1.4-0.7,2.2,0,2.4,1.2c0.4,1.5,0.6,3,0.7,4.5c0.1,1.1,0,2.3,0.1,3.5
			c0.1,3.2,2.1,4.3,4.9,2.9c2.8-1.4,5.7-2.6,9-2.2c2.6,0.3,6.4,2.8,7.4,5.2c0.3,0.8,0.2,1.3-0.5,1.8c-1.5,1.1-2.9,2.2-4.4,3.3
			c-0.8,0.6-1.6,0.7-2.5,0c-0.6-0.5-1.4-0.9-2.1-1.3c-0.9-0.6-3-0.2-3.3,0.8c-0.5,1.5-0.7,3.2-1,4.8c-0.2,0.9,0.3,1.3,1.2,1.3
			c3.3-0.1,6.7-0.1,10-0.2c2.5-0.1,2.8-0.8,1.8-2.9c-0.4-0.9-0.8-1.6,0.3-2.2c0.9-0.5,1.6-0.5,2.2,0.6c0.5,0.8,1,2,2.4,1.8
			c0.2,0,0.5,0.3,0.6,0.5c0.9,1.9,2.6,2.2,4.4,2.3c21.1,0,42.2,0,63.3,0c8.3,0,16.6,0,24.9,0c2.8,0,5.5-1.4,8.3-0.7
			c3.2,0.9,6.5,0.6,9.7,0.7c1.5,0.1,3-0.1,4.5-0.2c5.8-0.2,11.6-0.2,17.5-0.5c7.8-0.3,15.7-0.6,23.5-1.3c7.6-0.6,15.2-1.6,22.8-2.6
			C300.6,24.5,302,23.8,303.7,23.2L303.7,23.2z M96.3,68c-0.4,0.4-0.6,0.9-1,1.1c-2.1,0.9-5.7,0-7.2-1.6c-0.4-0.4-1.8-0.5-1.9-0.3
			c-1.5,2.2-3.2,4.5-4.1,7c-0.8,2.5-0.5,5.4,0.3,8c0.4,1.2,0.1,1.7-1.3,1.8c-0.2-0.9-0.4-1.8-0.8-2.6c-0.9-2.1,0.2-5.2-3.2-5.9
			c-0.1,0-0.2-0.4-0.3-0.5c-1.3-1.2-1.9-3.1-4-3.6c-1-0.2-1.9-0.9-2.9-1.4c0-0.2-0.1-0.4-0.1-0.6c-0.4,0.5-0.9,1.1-1.3,1.6
			c-1.2,1.5-0.5,3.2-0.5,4.9c-0.1,1.9,0.4,4,0.9,5.9c0.4,1.2,1.1,2.5,2.2,3.1c2.5,1.4,5,2.8,8,2.9c7.1,0.3,13.8-0.6,18.2-7.2
			c2.1-3.1,2.8-6.3,0.9-9.8C97.6,69.8,97,69,96.3,68L96.3,68z"/>
	</g>
</g>
</svg>
