<?xml version="1.0" encoding="UTF-8" standalone="no"?>
<svg
   ffdec:objectType="shape"
   height="30.0px"
   width="30.0px"
   version="1.1"
   id="svg1"
   sodipodi:docname="35.svg"
   inkscape:version="1.3.2 (091e20e, 2023-11-25)"
   xmlns:inkscape="http://www.inkscape.org/namespaces/inkscape"
   xmlns:sodipodi="http://sodipodi.sourceforge.net/DTD/sodipodi-0.dtd"
   xmlns="http://www.w3.org/2000/svg"
   xmlns:svg="http://www.w3.org/2000/svg"
   xmlns:ffdec="https://www.free-decompiler.com/flash">
  <g transform="matrix(1.0, 0.0, 0.0, 1.0, 15.0, 15.0)">
    <path
       d="m 14.701043,29.937132 c -0.213245,-0.07554 -0.339678,-0.224267 -0.474738,-0.558443 l -0.120733,-0.298732 v -1.891554 -1.891554 l -0.124634,-0.01549 C 12.998959,25.159289 12.608253,25.086184 11.990295,24.908882 10.320338,24.429745 8.8791912,23.56365 7.5805897,22.258754 6.119754,20.790837 5.171312,19.013124 4.7831419,17.015354 4.7354328,16.769813 4.681139,16.43695 4.6624889,16.27566 4.6438387,16.11437 4.6228214,15.952713 4.6157839,15.916422 L 4.6029883,15.85044 H 2.7412228 0.87945736 L 0.59368762,15.731722 C 0.43651428,15.666427 0.29219531,15.597145 0.27297883,15.577763 0.22886902,15.533272 0.02935554,15.061075 0.02923749,15.00089 c -1.0468e-4,-0.05337 0.20239896,-0.590507 0.23688172,-0.628328 0.0131707,-0.01445 0.1454278,-0.07713 0.29390463,-0.139296 l 0.26995789,-0.113031 h 1.88573307 1.885733 l 0.015191,-0.09531 c 0.00836,-0.05242 0.029669,-0.220675 0.047363,-0.373901 C 4.6816968,13.497799 4.7353988,13.174485 4.78334,12.932549 5.199571,10.832051 6.1446047,9.1024475 7.7162651,7.5647056 9.4026683,5.9146971 11.393715,4.9473 13.701101,4.6568314 l 0.404471,-0.050917 0.0012,-1.8777371 0.0012,-1.87773712 0.124373,-0.29325513 0.124372,-0.29325513 0.319342,-0.12625572 0.319342,-0.12625573 0.299285,0.12251695 0.299285,0.12251695 0.12121,0.29699391 0.121211,0.2969939 -3.16e-4,1.88037512 -3.16e-4,1.880375 0.21261,0.020562 c 0.657755,0.063613 1.617523,0.2743704 2.274986,0.4995692 1.558209,0.5337273 2.84812,1.3724666 4.106613,2.6702428 1.642042,1.693298 2.53439,3.5586867 2.814988,5.8845287 l 0.05061,0.419479 1.934321,0.01466 1.934321,0.01466 0.265815,0.11189 0.265815,0.11189 0.137411,0.302687 c 0.07558,0.166478 0.13741,0.317613 0.13741,0.335857 0,0.01824 -0.06483,0.161596 -0.144058,0.318561 l -0.144059,0.285391 -0.304179,0.124633 -0.304179,0.124634 h -1.897804 -1.897803 v 0.08647 c 0,0.04756 -0.01999,0.242209 -0.04441,0.432552 -0.258277,2.012496 -1.036718,3.770501 -2.334771,5.272763 -0.352752,0.408247 -1.15034,1.183029 -1.535771,1.491859 -1.489909,1.193803 -3.174016,1.887875 -5.131785,2.114967 -0.209578,0.02431 -0.384432,0.0442 -0.388563,0.0442 -0.0041,0 -0.0075,0.857518 -0.0075,1.905596 v 1.905596 l -0.122277,0.296046 -0.122277,0.296047 -0.287747,0.144398 c -0.308893,0.155009 -0.396786,0.169044 -0.602433,0.09619 z m -0.595471,-7.474693 v -1.100612 l 0.136137,-0.324514 c 0.152526,-0.363584 0.242369,-0.456875 0.519146,-0.539068 0.184851,-0.0549 0.2643,-0.05484 0.450019,3.13e-4 0.235167,0.06984 0.366143,0.213392 0.50587,0.554455 l 0.119033,0.29055 v 1.11154 1.111541 l 0.139296,-0.01798 c 1.468815,-0.18955 2.618857,-0.60051 3.724127,-1.330794 1.546074,-1.021533 2.750426,-2.53626 3.394063,-4.268748 0.186102,-0.500932 0.388453,-1.37282 0.444535,-1.915401 l 0.01894,-0.183284 h -1.086491 -1.086492 l -0.316982,-0.132804 c -0.362234,-0.151762 -0.431591,-0.205597 -0.52785,-0.409718 -0.125989,-0.267167 -0.07778,-0.622265 0.114189,-0.84105 0.0697,-0.07944 0.171344,-0.139405 0.385234,-0.227273 l 0.29055,-0.11936 h 1.109744 1.109743 v -0.100309 c 0,-0.149189 -0.132626,-0.904208 -0.217981,-1.24093 C 22.932675,11.209954 22.083844,9.803051 20.821114,8.6199475 19.731913,7.5994293 18.396931,6.8890768 16.971468,6.5715246 16.690478,6.5089284 16.315448,6.4451273 15.931085,6.3945323 l -0.09531,-0.012546 5.83e-4,1.1051944 5.83e-4,1.1051945 -0.122864,0.3257495 -0.122864,0.3257496 -0.297838,0.096262 -0.297837,0.096262 L 14.677019,9.3366753 14.3585,9.2369513 14.239367,8.9439888 14.120233,8.6510261 14.105573,7.5207334 14.090913,6.3904408 13.797658,6.4271828 c -3.781569,0.4738029 -6.7920549,3.4196733 -7.3452332,7.1875792 -0.032527,0.221558 -0.059213,0.425926 -0.0593,0.454152 -1.484e-4,0.04789 0.067788,0.05132 1.0174466,0.05132 h 1.0176053 l 0.2800487,0.106749 c 0.1540267,0.05871 0.2956701,0.121395 0.3147634,0.139296 0.019093,0.0179 0.086955,0.167855 0.1508035,0.333231 l 0.1160882,0.300684 -0.1214777,0.29313 -0.121478,0.29313 -0.3382375,0.131992 -0.3382376,0.131993 H 7.3817038 c -0.8922997,0 -0.9887419,0.0046 -0.9887419,0.04756 0,0.02616 0.020504,0.187813 0.045565,0.359237 0.1308513,0.895076 0.4055246,1.788473 0.7900624,2.569746 0.4333235,0.880392 0.9191605,1.563314 1.5979701,2.246206 1.3243866,1.332351 2.9359916,2.144501 4.8244666,2.431233 0.193549,0.02939 0.375,0.0546 0.403226,0.05603 0.04801,0.0024 0.05132,-0.06837 0.05132,-1.09801 z"
       transform="translate(-15,-15)" />
  </g>
</svg>
