<?xml version="1.0" encoding="UTF-8"?>
<svg xmlns="http://www.w3.org/2000/svg" viewBox="0 0 472 413">
  <path d="m128,1c4.67,0,9.33,0,14,0,1.45.27,2.89.57,4.34.79,5.9.9,11.89,1.42,17.71,2.71,22.56,5.03,42.22,15.71,59.32,31.19,4.54,4.11,9.11,8.19,13.35,12,3.29-3.04,6.36-5.79,9.33-8.64,20.49-19.62,44.28-32.64,72.7-36.4,4.74-.63,9.5-1.11,14.26-1.65,2.33,0,4.67,0,7,0,1.28.21,2.56.48,3.85.63,7.42.88,15.01,1.01,22.23,2.71,53.35,12.56,87.2,45.63,102,98.25,1.87,6.65,2.64,13.6,3.93,20.41v24c-.27,1.29-.67,2.58-.78,3.88-2.3,27.43-10.3,53.16-23.43,77.28-14.8,27.2-34.65,50.42-57.15,71.5-19.14,17.93-40.29,33.29-61.62,48.45-29.99,21.32-61.32,40.74-90.12,63.73-2.15,1.72-3.44.92-5.17-.4-7.27-5.57-14.47-11.25-21.96-16.51-16.35-11.48-32.91-22.67-49.31-34.09-23.64-16.46-47.57-32.54-69.34-51.53-23.98-20.92-45.42-44.05-62.2-71.23-13.87-22.48-23.39-46.63-27.27-72.87-.85-5.74-1.77-11.48-2.66-17.21,0-8.33,0-16.67,0-25,.9-4.69,1.83-9.37,2.69-14.06C14.29,51.01,61.81,10.64,115.27,2.81c4.24-.62,8.49-1.2,12.73-1.81Zm133.92,178.84c.09,0,.18,0,.27,0,0-7.33.06-14.65-.01-21.98-.12-13.24-1.63-26.23-7.2-38.45-8.77-19.25-25.09-26.72-44.84-23.01-12.18,2.28-20.33,10.13-25.81,20.91-5.7,11.21-7.82,23.35-8.08,35.73-.37,17.81-.35,35.64,0,53.45.22,11.18,2.15,22.17,6.72,32.53,3.65,8.29,8.97,15.21,16.91,19.76,19.24,11.03,43.27,3.73,53.79-16.31,5.44-10.36,7.71-21.61,8.17-33.16.39-9.81.08-19.64.08-29.46Zm-112.74-28.03c0-16.49.02-32.98-.02-49.47-.01-4.41-.09-4.46-4.45-4.51-4.66-.06-9.34.2-13.99-.09-3.33-.21-5.05,1.02-6.48,4-6.43,13.34-13.07,26.57-19.68,39.82-10.62,21.29-21.24,42.58-31.93,63.83-1.53,3.05-2.77,5.98-1.89,9.5.36,1.43.18,2.98.29,4.48.25,3.39.26,3.46,3.8,3.47,11.83.04,23.65.01,35.48.02,4.5,0,9,.08,13.49-.02,2.32-.05,3.43.74,3.24,3.16-.1,1.32,0,2.66,0,4,0,9.16,0,18.32.02,27.48,0,1.62-.32,3.5,2.31,3.48,5.83-.04,11.66-.03,17.49,0,1.75,0,2.29-1,2.3-2.54,0-1.17.04-2.33.04-3.5,0-8.83-.01-17.66,0-26.48.01-5.54.03-5.54,5.35-5.56,2.83-.01,5.67-.11,8.49.02,2.24.11,2.88-.88,2.83-2.95-.1-3.83-.15-7.67.01-11.49.1-2.52-1.04-3.16-3.28-3.08-2.83.1-5.66.04-8.49.01-4.84-.05-4.89-.06-4.9-5.08-.03-16.16,0-32.31-.02-48.47Zm252.86,75.3c-.49-5.84-.46-10.21-1.27-14.43-3.59-18.72-16.29-28-36.07-24.13-10.56,2.06-16.55,9.73-19.27,19.58-3.16,11.39-3.08,23.09-.12,34.54,2.11,8.19,6.76,14.77,14.8,18.42,16.75,7.6,34.76-.51,39.6-18.23,1.51-5.54,1.72-11.44,2.33-15.75Zm-66.35-93.45c-.26-.02-.52-.04-.79-.06,0-3.49.35-7.02-.06-10.46-2.28-19.29-15.26-30.88-35.7-26.82-10.69,2.12-16.94,9.77-19.86,19.71-3.39,11.51-3.23,23.33-.07,34.95,1.55,5.72,4.71,10.64,9.35,14.43,15.88,12.96,40.12,4.74,45.13-15.5,1.3-5.26,1.36-10.83,1.99-16.25Zm-24.96,114.76c1.05-1.95,1.78-3.24,2.44-4.55,19-37.73,38.02-75.45,56.91-113.24,1.63-3.26,5.72-6.83,3.77-10.04-1.81-2.98-6.48-4.22-10.25-6.44-.92,1.73-1.88,3.43-2.76,5.17-15.92,31.65-31.84,63.29-47.74,94.95-4.03,8.03-7.97,16.1-12.09,24.08-1.14,2.2-1.08,3.56,1.24,4.83,2.76,1.5,5.35,3.29,8.47,5.25Z"/>
  <path d="m240.46,179.45c-.45,12.87-.7,25.69-1.43,38.48-.38,6.66-1.91,13.2-5.25,19.11-3.03,5.35-7.25,9.07-13.81,9.31-6.26.24-10.89-2.49-14.25-7.61-3.17-4.83-4.94-10.24-5.69-15.86-.93-6.91-1.65-13.9-1.77-20.87-.26-15.16-.38-30.34.04-45.49.23-8.28,1.33-16.58,2.71-24.75.64-3.82,2.4-7.68,4.48-11,6.8-10.87,20.8-10.58,27.52.38,3.83,6.25,5.59,13.24,6.02,20.41.75,12.62.98,25.28,1.42,37.9Z"/>
  <path d="m92.65,204.82c11.12-24.29,22.07-48.22,33.03-72.16.3.02.59.05.89.07.16.81.45,1.61.45,2.42.03,21.95.04,43.89,0,65.84,0,4.25-.08,4.34-4.03,4.36-8.98.06-17.96.03-26.93,0-.94,0-1.89-.28-3.41-.52Z"/>
  <path d="m386.49,225.66c-.87,5.37-1.26,10.88-2.73,16.09-1.69,5.98-5.85,8.5-11.46,8.42-4.27-.07-7.41-2.16-9.31-5.68-1.46-2.72-2.8-5.83-2.99-8.85-.44-6.76-.44-13.59.01-20.34.2-3.01,1.53-6.16,3.08-8.82,4.25-7.3,13.78-7.5,18.64-.58,2.87,4.08,3.74,8.82,4.05,13.68.12,1.99.02,3.99.02,5.98.23.04.46.07.7.11Z"/>
  <path d="m292.66,133.42c.39-3.79.54-7.62,1.25-11.35.49-2.56,1.46-5.13,2.75-7.4,4.28-7.54,13.87-7.91,18.97-.87,2.62,3.62,3.82,7.83,3.93,12.16.17,6.12.05,12.29-.55,18.38-.28,2.85-1.54,5.82-3.07,8.3-4.49,7.25-14.39,7.18-19.1.05-2.75-4.16-3.51-8.91-3.84-13.74-.13-1.82-.02-3.65-.02-5.48-.11-.01-.22-.02-.32-.03Z"/>
</svg>