<?xml version="1.0" encoding="UTF-8"?>
<svg xmlns="http://www.w3.org/2000/svg" viewBox="0 0 458 418.09">
  <g>
    <path d="m1,373.11c0-7.32,0-14.63,0-21.95.31-.75.79-1.47.9-2.24,4.31-29.16,19.05-51.64,43.63-67.67,15.1-9.85,31.91-14.45,50.01-15.01,1.48-4.46,2.92-8.81,4.65-14.01-7.46-.37-14.23-1.01-20.99-.95-6.73.07-13.45.84-20.18,1.31-.84-29.21,31.11-69.05,66.52-82.76,21.39-8.28,43.36-9.64,65.54-3.96,29.96,7.67,52.35,25.6,68.16,52.4,15.26-10.35,31.62-15.93,49.81-15.75,18.39.18,34.98,5.65,49.57,16.76,20.71,15.76,31.58,36.82,33.59,62.96-11.51,1.11-22.19,2.89-31.97,7.95q2.22,8.21,10.05,8.14c.5,0,1-.02,1.5-.01,29.37.43,51.97,13.19,66.38,38.62,14.32,25.28,13.22,51.06-.92,76.39-1.9,3.41-4.09,4.8-8.19,4.78-30.59-.2-61.19-.11-91.78-.11-104.42,0-208.83-.02-313.25.08-3.74,0-6.3-.76-7.98-4.27-2.86-5.97-6.53-11.62-8.77-17.8-2.69-7.41-4.23-15.24-6.26-22.88Z"/>
    <path d="m306.33,1c-3.82,12.99-5.67,26.2-5.12,39.78,2.07,50.95,32.12,100.02,93.07,113.83,20.56,4.66,41.14,4.84,61.49-1.59.42-.13.92-.02,1.83-.02-3.82,12.02-9.58,22.72-16.88,32.61-12.7,17.21-28.87,30.1-48.36,38.93-3.28,1.49-5.05.98-7.38-1.77-20.71-24.41-47.29-36.77-79.2-35.89-10.9.3-21.71,4.02-32.54,6.26-1.74.36-3.39,1.19-4.52,1.6-6.96-8.98-13.56-17.68-20.38-26.21-2.27-2.84-4.71-5.89-7.75-7.7-11.01-6.57-13.55-17.28-14.95-28.67-7.17-58.22,23.02-108.78,77.58-130.02.74-.29,1.41-.76,2.11-1.15.33,0,.67,0,1,0Z"/>
    <path d="m168.42,42.9v7.81c-8.2,2.33-17.45.95-24.19,7.77-6.63,6.7-5.48,15.69-7.61,24.01h-7.71c-2.35-7.89-.97-17.14-7.61-23.91-6.74-6.86-15.95-5.61-24.27-7.83v-8.48c21.29,1,32.19-9.23,30.94-30.99h8.53c2.4,7.92.95,17.2,7.66,23.94,6.77,6.79,15.91,5.7,24.26,7.68Z"/>
    <path d="m35.18,98.96h3.51c2.47,6.44,3.35,13.89,7.51,18.1,4.17,4.23,11.6,5.24,18.33,7.95v5.26c-16.54-.87-24.86,7.24-23.98,23.97-1.64.17-2.6.34-3.56.35-.97.01-1.95-.13-3.67-.27.63-16.42-7.1-25.13-24.1-23.88v-5.5c6.45-2.55,14-3.54,18.33-7.8,4.2-4.14,5.1-11.64,7.64-18.17Z"/>
  </g>
</svg>