<?xml version="1.0" encoding="UTF-8"?>
<svg xmlns="http://www.w3.org/2000/svg" viewBox="0 0 597 656">
  <path d="m198.48,585.73c-16.31-3.83-32.4-7.3-48.32-11.43-20.21-5.23-40.29-11.02-60.44-16.48-2.16-.58-2.96-1.58-3.35-3.83-4.1-23.39-12.48-45.17-25.08-65.29-1.18-1.88-1.3-2.78.94-3.77,6.82-3.03,10.84-8.24,12.9-15.52,1.59-5.63,3.93-11.18,6.76-16.31,6.76-12.22,16.35-15.86,29.71-11.87,2.79.83,5.47,2.01,8.26,2.83,7.01,2.06,12.23-.81,12.64-8.02.58-10.17.64-20.44-.11-30.59-.6-8.06-7.19-10.92-13.88-6.48-6.78,4.5-14.4,4.75-22.01,5.48-3.23.31-6.45.79-9.68,1-.57.04-1.67-.87-1.73-1.44-2.02-16.85-2.33-33.67.23-50.53,1.29-8.51-.26-16.68-4.54-24.34-6.67-11.96-12.35-24.33-14.87-37.95-2.83-15.29-1.54-30.17,3.83-44.73.69-1.87,1.35-3.79,1.64-5.74.51-3.31-.7-5.81-3.98-7.2-16.71-7.05-21.8-16.03-20-34.04.67-6.76.36-13.62.68-20.43.04-.91,1.02-2.43,1.76-2.56,6.36-1.11,12.77-2.77,19.16-2.73,12,.07,20.76-5.9,28.62-13.75,1.92-1.92,3.16-5.2,3.44-7.99,2.68-25.82,14.08-47.46,31.24-66.41,12.87-14.21,26.91-27.1,43.54-36.82,27.05-15.8,55.91-26.43,87.37-28.86,28.31-2.19,53.73,6.62,77.91,20.64,30.07,17.43,50.97,42.66,64.82,74.1,7.38,16.75,14.87,33.47,21.38,50.56,1.95,5.12,1.2,11.45.94,17.19-.34,7.39-.7,7.72,6.56,8.25,8.29.61,16.64.31,24.93.82,9.59.59,16.78,5.09,20.49,14.26,3.53,8.75,1.2,16.56-4.98,23.01-8.41,8.77-17.37,17.01-26.04,25.54-4.1,4.03-8.09,8.17-12,12.38-.53.57-.7,2.14-.3,2.78,7.37,11.82,9.75,24.77,9.1,38.48-.22,4.73-.56,9.49-.31,14.21.48,8.82-3.43,15.54-8.86,22.04-6.09,7.29-8.02,16.22-7.35,25.52.53,7.42,5.47,9.51,11.61,5.4,2.35-1.57,4.65-3.3,7.18-4.51,11.59-5.54,22.56,1.25,23.16,14.27.15,3.24-.12,6.5.1,9.74.39,5.59,3.27,7.69,7.88,4.8,9.98-6.26,20.76-5.03,31.54-4.62.7.03,1.84.89,1.96,1.53,3.49,17.62,7.8,35.15,9.95,52.94,1.42,11.74,0,23.88-.69,35.81-.61,10.63,2.92,15.42,13.62,15.82,5.74.22,10.37,2.12,15.27,5.05,4.52,2.71,10.21,3.43,15.37,5.09.73.24,1.92.77,1.95,1.22.62,11.08,2.05,22.21-.91,33.19-1.97,7.31-4.99,12.18-14.04,13.63-11.92,1.9-23.61,6.06-35,10.31-16.03,5.99-31.23,13.91-44.42,24.98-12.86,10.79-28.19,15.15-44.04,18.66-20.25,4.48-40.78,4.26-61.18,2.56-20.1-1.67-40.2-4.21-60.05-7.75-30.17-5.38-60.12-11.99-90.18-17.97-2.27-.45-2.74-1.37-2.59-3.45.19-2.65.2-5.33-.02-7.98-.34-4.19-2.9-6.5-6.96-6.85-3.06-.26-6.16-.1-9.24.06-.46.03-1.2,1.14-1.22,1.76-.11,3.98-.06,7.97-.06,12.33Zm282.03-128.07c1.2-1.93,1.62-2.64,2.07-3.33,6.15-9.39,12.28-18.8,18.5-28.15,1.02-1.54,1.07-2.36-.91-2.48-6.53-.36-13.15-1.48-19.57-.8-14.43,1.53-24.71,10.77-34.5,20.47-.28.28.04,1.75.51,2.12,8.13,6.36,16.33,12.63,24.48,18.97.63.49,1.31,1.38,1.33,2.09.11,5,.1,10,0,14.99,0,.44-1.09,1.31-1.49,1.21-3.47-.82-6.89-1.89-10.35-2.75-3.38-.83-5.55-2.54-6.13-6.25-.33-2.08-1.31-4.13-2.35-5.99-1.89-3.4-4.81-4.15-8.28-2.48-1.34.65-2.76,1.32-3.83,2.32-5.25,4.89-11.53,7.84-18.32,9.75-2.22.63-1.72,1.81-.95,3,1.88,2.93,3.87,5.8,5.87,8.65,6.95,9.92,10.67,11.49,21.88,6.98,9.11-3.67,18.26-5.68,27.88-3.84,10.82,2.07,18.81-2.88,26.22-9.58,4.5-4.07,4.9-7.4,1.92-12.66-.81-1.44-1.91-2.72-2.88-4.07-4.97-6.9-10.47-12.66-21.08-8.18Zm-105.09-152.04c11.24,0,18.92-2.43,26.83-7.35,7.25-4.51,6.76-4.27,3.03-11.87-2.74-5.58-6.22-7.2-12.09-6.36-5.67.82-7.97-1.36-9.2-7.03-.12-.58-.88-1.43-1.37-1.45-6.91-.25-13.83-.68-20.72-.44-7.55.26-14.07,2.77-18.2,9.89-2.01,3.45-2.13,5.64,1.12,8.55,9.84,8.83,20.33,15.93,30.61,16.06Zm34.56,137.57c.68,6.53,1.32,13.07,2.11,19.59.05.42,1.35,1.15,1.74.99,4.81-2.08,9.47-4.5,14.33-6.44,5.2-2.08,8.62-5.11,7.87-11.24-.07-.55.07-1.18.27-1.72,2.75-7.28,5.43-14.59,8.31-21.81,3.3-8.27,4.42-16.43-.82-24.31-.55-.82-2.51-1.5-3.41-1.17-20.77,7.77-30.43,22.67-30.38,46.11Zm-195.25-145.34c13.33.98,22.54-4.54,27.62-16.83.39-.93.3-2.63-.31-3.31-7.85-8.79-15.82-17.48-23.86-26.11-.34-.37-1.81-.12-2.46.3-17.3,11.11-19.93,24.78-15.78,42.75.17.73,1.34,1.63,2.15,1.75,4.2.61,8.43.99,12.64,1.45Zm83.28,106.18s0-.03,0-.05c-11.83,0-23.65-.04-35.47.09-.74,0-2.06,1.34-2.09,2.1-.2,4.4-.17,8.83-.02,13.23.02.66,1.12,1.83,1.72,1.83,22.31.04,44.63.08,66.94-.17,7.69-.08,8.4-1.07,9.88-8.75.05-.24.05-.5.09-.74.69-4.08-2.02-7.53-6.08-7.54-11.66-.04-23.31-.01-34.97-.01ZM77.33,191.58c-8.26-.17-11.32,3.61-10.1,11.58.86,5.6,3.73,7.85,9.31,7.1,2.88-.39,5.75-.93,8.58-1.55,5.44-1.2,10.37-.86,14.39,3.69,1.18,1.34,2.84,2.31,4.4,3.25,4.68,2.84,7.94,2.06,10.05-2.95,3.36-7.97,6.21-16.02,5.1-25.06-1.03-8.33-.32-7.6-6.84-3.88-9.66,5.51-19.24,11.13-31.13,8.22-1.44-.35-2.97-.32-3.76-.4Zm290.01,27.14c-.56,5-1.15,9.76-1.62,14.53-.62,6.36,5.08,12.43,10.51,11.04,8.1-2.07,15.13-5.96,20.35-12.73,6.78-8.8,8.83-19.2,10.12-29.85.04-.34-1.11-1.25-1.52-1.15-3.24.83-6.91,1.15-9.53,2.96-4.21,2.89-7.74,6.77-11.51,10.28-4.87,4.52-10.29,7.06-16.8,4.93ZM97.97,463.1c-.43.09-.86.18-1.29.27-2.23,8.83-5.75,16.89-11.9,23.79-2.91,3.27-1.91,7.57.84,10.8,2.9,3.4,6.18,6.51,9.51,9.5,2.63,2.36,5.91,2.89,9.05,1.1,3.38-1.93,6.73-4,9.74-6.45,4.26-3.48,4.25-6.18.77-10.41-1.79-2.17-3.67-4.33-5.02-6.76-4.02-7.2-7.8-14.54-11.68-21.83Zm-4.88-82.98c16.05-3.55,31.23-7.16,46.52-10.16,4.85-.95,5.49-2.97,5.99-7.54.98-8.86-2-14.35-10.28-17.09-.91-.3-2.4-.21-3.06.36-6.46,5.5-12.81,11.13-19.18,16.74-6.47,5.71-12.93,11.43-20,17.69Zm318.9-132.08c4.55-7.78,11.35-9.89,18.68-11.13,2.78-.47,5.55-1.12,8.28-1.83,7.67-2.01,11.77-7.13,12-15.12.02-.62-1.12-1.86-1.69-1.84-11.82.42-23.63.95-35.44,1.57-.63.03-1.74,1.03-1.75,1.58-.11,8.57-.08,17.14-.08,26.77Zm40.75,314.57c-8.84-.42-17.35-.99-22.82,7.33-.48.72-.58,2.39-.09,2.94,3.3,3.71,7.5,6.6,8.42,12.19.25,1.52,3.07,3.38,4.95,3.71,3.39.6,6.97.21,10.46.08.47-.02,1.14-.83,1.34-1.4,2.64-7.67,5.23-15.36,7.72-23.08.14-.42-.74-1.68-1.18-1.7-3.07-.15-6.16-.08-8.79-.08Zm-50.89-282.9c7.13-5.2,13.99-10.21,21.35-15.58-8.8-3.33-16.91-7.04-25.4-9.45-10.87-3.09-13.96-.24-13.77,11.02q.1,5.74,5.96,5.38c8.37-.51,10.26.8,11.85,8.63Zm-63.89-102.85c7.72,4.33,14.81,8.3,21.9,12.26,2.82,1.58,5.21,1.23,7.18-1.5,1.88-2.62,4.43-4.93,5.67-7.81,1.26-2.93,2.87-8.03,1.54-9.31-3.73-3.62-9.07-6.57-14.53-4.35-7.48,3.04-14.54,7.11-21.75,10.72Zm-75.11-21.61c-.92-.99-1.32-1.51-1.81-1.93-5.36-4.58-10.59-9.22-10.04-17.25.02-.31-.21-.62-.3-.94-.9-3.18-2.96-4.95-6.28-5.1-3.47-.15-6.32.98-7.48,4.52-1.24,3.78-2.55,7.58-3.22,11.48-1.03,6.05,2.07,10.31,7.79,10.33,6.88.03,13.76-.68,21.34-1.11Zm68.65,72.04c0,7.27-.43,14.58.14,21.82.46,5.78,4.14,8.15,9.41,7.34,6.8-1.05,8.04-2.69,7.13-9.48-.08-.58-.11-1.16-.19-1.73-1.51-10.88-7.58-17.38-16.49-17.95Zm-119.3-89.09c9.19-9.64,8.45-25.08-1.64-35.06-2.55,3.82-5.19,7.52-7.55,11.39-2.18,3.58-1.12,7.26.76,10.52,2.56,4.45,5.53,8.67,8.43,13.15Zm-4.9,27.33c2.48-.18,5-.17,7.44-.59,2.4-.41,4.75-1.19,7.06-1.96.53-.18,1.3-1.33,1.17-1.52-1.23-1.86-2.29-4.1-4.04-5.3-3.13-2.14-6.67-3.68-10.09-5.38-6.13-3.06-6.15-3.03-9.06,3.18-2.93,6.25.6,11.69,7.51,11.57Zm184.65,396.97c-4.22-6.56-9.92-9.37-17.29-8.93-3.56.21-7.15.1-10.72.23-7.09.26-7.1.28-6.45,7.51.04.42.62,1.13.96,1.13,11.1.06,22.21.05,33.5.05Zm-87.45-406.01c-2.33,0-4.67-.15-6.98.09-.71.07-1.7,1.11-1.9,1.88-1.48,5.58,2.04,8.81,5.71,12.09,2.55,2.28,4.96,3.75,8.46,2.01,3.39-1.68,3.78-4.58,3.6-7.78-.46-8.3-.49-8.29-8.88-8.29Zm248.31,375.86c-1.48-1.41-2.59-3.39-3.79-3.45-6.61-.31-13.24-.15-20.15-.15,2.45,2.61,4.56,4.93,6.77,7.15.49.49,1.46,1.01,2.03.86,4.87-1.33,9.69-2.81,15.13-4.42Zm-183.71,3.49c0-.06-.01-.12-.02-.18h-6.35c0,.06,0,.12,0,.18h6.37Z"/>
</svg>