<?xml version="1.0" encoding="UTF-8"?>
<svg xmlns="http://www.w3.org/2000/svg" viewBox="0 0 294 286">
  <path d="m138.89,273.71c-5.91-1.21-11.97-1.95-17.71-3.73-7.88-2.43-11.84-8.43-12.75-16.53-.27-2.39-1.28-3.79-3.6-5.3-7.76-5.06-16.53-3.91-24.91-5.08-3.94-.55-7.98-.39-11.96-.67-5.59-.38-7.77-2.31-8.62-7.81-1.34-8.63-2.61-17.28-3.8-25.94-.84-6.12.98-8.75,6.92-10.82,7.95-2.76,14.5-7.21,16.17-16.06.74-3.92.2-8.09.16-12.14-.01-1.07-.53-2.13-.52-3.19.14-16.62-2.9-33.47,4.09-49.58,4.26-9.81,9.91-18.65,17-26.6.93-1.04,2.05-2.03,3.27-2.67,6.68-3.48,11.61-8.84,16.16-14.66,17.9-22.9,38.04-43.52,61.77-60.46,2.49-1.77,5.14-3.46,7.96-4.6,6.99-2.82,13.25-1.09,18.64,3.93,1.57,1.46,2.91,3.21,4.16,4.97,3.02,4.28,3.07,6.67-.11,10.88-4.72,6.24-9.64,12.33-14.47,18.49-5.08,6.49-10.2,12.95-15.19,19.51-3.54,4.65-3.27,5.7,2.32,7.66,14.69,5.18,26.49,14.36,36.95,25.67,6.22,6.72,9.87,14.52,11.69,23.34,1.49,7.22,5.27,12.62,12.16,15.73,5.88,2.66,9.63,7.24,10.41,13.68.78,6.42,1.39,12.9,1.38,19.35,0,6.33-3.13,11.45-8.76,14.47-4.87,2.62-7.06,6.32-7.23,11.82-.13,4.21-1.77,8.43-1.53,12.58.22,3.91-.44,7.76-1.79,10.9-3.04,7.05-5.44,14.68-11.83,19.88-2.98,2.42-5.94,4.72-9.58,6.13-7.75,3.01-15.27,6.7-23.19,9.11-6.48,1.97-12.34,5-18.34,7.88-11.13,5.35-22.68,9.06-35.17,9.11-.05.24-.1.48-.14.72Zm-21.58-123.58c-1.41-1.49-2.13-2.81-3.23-3.3-5.16-2.29-10.4-4.41-15.66-6.47-3.24-1.27-5.65.03-6.54,3.49-2.02,7.88-4.06,15.77-5.93,23.69-2.79,11.81-1.29,15.18,9.04,21.69,2.45,1.55,4.87,3.23,7.02,5.17,1.96,1.77,1.36,3.69-1.1,4.54-.63.22-1.28.36-1.94.49-4.27.84-5.94,3.16-5.35,7.38.48,3.37.84,6.77,1.38,10.13,1.54,9.61,4.83,18.29,12.7,24.71,1.49,1.22,2.48,3.22,3.29,5.05.66,1.48.72,3.23,1.02,4.86,1.3,7.15,5.28,11.87,12.4,13.79,6.07,1.64,12.24,2.44,18.54,2.04,10.09-.65,19.63-3.48,28.9-7.3,3.57-1.47,4.99-3.89,4.58-7.69-.67-6.21-1.48-12.4-2.16-18.6-1.1-10.09-2.24-20.18-3.19-30.29-.54-5.71,1.49-8.3,6.68-10.57,6.15-2.69,12.42-5.31,18.08-8.85,5.85-3.66,7.8-9.6,6.78-16.54-.61-4.17-.81-8.41-1.05-12.62-.14-2.49.05-5-.04-7.5-.11-2.77-1.33-3.89-4.08-3.9-.91,0-1.83.09-2.73.22-5.18.75-10.35,1.58-15.55,2.27-13.11,1.73-26.23,3.39-39.34,5.09-4.54.59-8.43,2.5-9.45,7.24-1.34,6.26-5.42,10.57-9.42,15-.67.74-1.93.95-3.24,1.55-.53-6.81-4.64-5.38-8.43-4.27,1.08-2.97,2.64-5.49,2.76-8.09.15-3.08-3.09-4.33-4.73-6.15-7.04,4.96-3.77,9.56.87,14.47-4.05-.34-7.34-.5-8.86-3.89-1.78-3.96-2.08-8.15.26-12,2.27-3.73,6.14-4.24,10.1-4.19,1.16.01,2.33.29,3.49.21,1.1-.07,2.18-.43,4.14-.86Z"/>
  <path d="m159.14,176.32c-3.1-2.63-6.17-4.82-8.72-7.5-4.09-4.29-3.23-8.76,2.1-11.19,4.84-2.2,9.8-4.15,14.82-5.92,4.33-1.53,11.18,2.48,12.05,7.26.52,2.85.43,6.02-.26,8.83-1.28,5.27-8.07,7.76-12.82,5.06-1.98-1.12-1.45-2.82-.45-4.05,2.75-3.4,1.32-6.36-.64-9.32-1.45-2.18-4.19-2.1-5.07.34-.72,2.01-.86,4.27-.96,6.44-.15,3.14-.04,6.29-.04,10.05Z"/>
  <path d="m168.13,226.97c-2.15,1.28-3.88,1.79-6.41.35-2.47-1.41-5.65-2.24-8.5-2.21-11.72.12-23.44.66-35.16,1.05-.33.01-.7.14-.99.04-1.17-.43-3.17-.76-3.31-1.44-.34-1.66.23-3.39,2.27-4.16,4.89-1.84,9.82-3.61,14.58-5.75,2.71-1.22,5.14-1.13,7.85-.28,8.15,2.54,16.32,5.04,24.54,7.36,2.67.76,4.42,2.1,5.14,5.04Z"/>
  <path d="m120.97,195.33c4.93.48,9.78.99,14.64,1.4,4.75.4,9.46.26,14.02-1.4.7-.26,1.5-.69,2.14-.54.96.22,1.81.87,2.71,1.34-.46.72-.75,1.73-1.41,2.11-5.32,3.06-10.7,6.01-16.09,8.94-.51.28-1.34.47-1.82.25-5.91-2.68-11.25-6.06-14.19-12.1Z"/>
</svg>