<?xml version="1.0" encoding="UTF-8"?>
<svg xmlns="http://www.w3.org/2000/svg" viewBox="0 0 410 428">
  <g>
    <path d="m209.49,428h-7.98c-3-1.98-6.31-3.62-8.93-6.02-5.38-4.93-10.37-10.3-15.57-15.43-3.74-3.69-5.61-8.04-5.56-13.35.11-11.46.03-22.92.03-34.38,0-5.1,0-10.2,0-15.85h-6.42c-47.34,0-94.68-.15-142.01.11-10.71.06-18.32-3.44-22.05-13.83v-75.82c4.39-10.19,12.26-14.06,23.08-12.97,3.56.36,7.18.06,10.91.06.54-21.26,3.82-41.33,11.49-60.49,1.35-3.37,1.07-5.51-1.39-8.29-17.25-19.48-31-41.1-38.43-66.24-2.48-8.38-3.8-17.1-5.66-25.66,0-6.32,0-12.64,0-18.96.31-.92.83-1.82.92-2.76,1.42-15.33,5.69-29.95,11.21-44.22C16.73,4.53,25.34.2,34.27,2.88c9.33,2.8,14.08,11,11.81,21.04-5.08,22.51-1.74,42.93,14.6,60.17,9.55,10.07,21.27,16.8,34.08,21.89,3.37,1.34,5.65,1.02,8.48-1.19,13.19-10.27,27.68-18.33,43.41-23.97,8.06-2.89,16.34-5.16,24.52-7.71,1.24-13.17,6.78-19.73,17.48-19.98,11.3-.26,22.61-.23,33.91,0,8.01.17,14.77,5.6,16.47,12.84.56,2.38.49,4.92.74,7.63,25.94,5.55,49.29,16.56,70.31,32.63,1.07.82,3.58.72,4.92.05,8.29-4.13,16.93-7.83,24.53-13.02,15.35-10.5,25.49-25.01,26.95-43.93.68-8.78-.89-17.81-2.09-26.63-1.14-8.44,3.15-16.64,11.12-19.54,8.2-2.98,17.35.42,21.2,8.26,1.89,3.85,3.19,8,4.59,12.08,10.06,29.11,11.94,58.34,1.28,87.78-8.2,22.65-20.84,42.59-36.73,60.53-2.22,2.51-2.57,4.47-1.6,7.84,3.65,12.71,7.03,25.52,9.78,38.45,1.53,7.2,1.6,14.71,2.35,22.38,4.86,0,9.49,0,14.12,0,12.6.03,19.37,6.79,19.39,19.41.02,20.62,0,41.24,0,61.86,0,14.88-6.32,21.19-21.23,21.19-47.55,0-95.1,0-142.65,0h-6.52c0,2.68,0,4.49,0,6.29,0,14.47.19,28.94-.14,43.4-.08,3.63-.78,8.17-3.01,10.67-8.12,9.08-15.65,18.96-26.89,24.69Zm30.31-187.8h101.71c-.36-35.34-12.19-65.83-35.78-91.64-17.94-19.64-39.88-32.72-65.93-39.51v131.15Zm-68.56-130.65c-51.68,5.43-108.95,79.53-101.12,130.63h101.12V109.55Zm34.3,198.88c9.33-.01,16.81-7.34,16.94-16.58.13-9.32-7.66-17.17-17.01-17.14-9.18.03-16.81,7.56-16.93,16.72-.13,9.45,7.44,17.02,17,17Z"/>
  </g>
</svg>