<?xml version="1.0" encoding="UTF-8"?>
<svg id="Layer_1" data-name="Layer 1" xmlns="http://www.w3.org/2000/svg" viewBox="0 0 560 521">
  <defs>
    <style>
      .cls-1, .cls-2 {
        stroke-width: 0px;
      }

      .cls-2 {
        fill: #fff;
      }
    </style>
  </defs>
  <g id="XtUnmr.tif">
    <g>
      <path class="cls-2" d="m560,521H0V0h560v521Zm-106.3-331.67c-.45.03-.91.06-1.36.09-.19-1.49-.5-2.98-.55-4.48-.29-9.48-.28-18.97-.81-28.43-1.17-21.05-11.59-37.62-35.69-34.62-8.13,1.01-16.01,3.55-17.93,13.45-.11.56-.79,1-1.14,1.53-2.33,3.53-5.19,6.85-6.79,10.69-1.33,3.2-2.91,4.36-6.18,4.15-6.73-.42-13.48-.72-20.22-.93-8-.25-15.72-.68-23.76-2.76-14.87-3.84-30.29-5.98-45.62-7.54-23.8-2.42-47.69-4.95-71.56-5.22-20.53-.23-41.09,2.64-61.64,4.1-15.27,1.09-30.4,2.91-45.12,7.41-5.05,1.55-10.27,3.39-15.46,3.53-19.78.55-39.59.85-59.37.45-8.11-.17-14.56,2.21-19.29,8.26-4.57,5.84-8.3,12.37-12.21,18.71-1.26,2.04-2.68,4.43-2.75,6.7-.99,30.08-2.28,60.17-2.45,90.26-.36,66.03.15,132.07-.4,198.1-.09,11.01,2.96,19.72,9.71,27.73,1.93,2.28,3.91,4.53,6,6.66,6.04,6.13,13.18,9.84,21.99,9.84,94.66-.02,189.31-.02,283.97-.06,27.95-.01,55.89-.11,83.84-.31,2.73-.02,5.48-.94,8.17-1.65,9.39-2.48,16.14-8.64,22.48-15.66,1.98-2.19,5.42-3.93,8.37-4.26,18.26-2.01,25.07-10.28,28.14-26.73.82-4.38.99-8.9,1.2-13.37.55-11.58.96-23.17,1.46-35.55,4.4,0,7.88.24,11.31-.05,7.57-.64,15.18-1.21,22.67-2.44,6.93-1.13,6.86-1.49,5.29-8.29-.15-.64-.07-1.33-.07-1.99.03-5.49-.31-11.02.25-16.45.27-2.64,2.1-5.17,3.42-7.64.99-1.83,2.73-3.34,3.37-5.25.77-2.29.73-4.86.99-6.94h30.36c1.92-8.55,1.21-9.38-7.63-9.25-7.45.11-14.9.02-22.29.02-1.56-5.02.04-10.86-6.37-13.35-1.5-.58-2.52-4.11-2.61-6.33-.42-10.07-.52-20.15-.57-30.23-.19-34.09-.32-68.18-.4-102.28,0-1.17.58-2.46,1.22-3.49,2.65-4.27,1.45-7-3.44-7.1-7.6-.15-15.21-.04-23.06-.04-.88-12.96-1.68-24.68-2.51-36.74h-24.14V2.47c-2.04.11-3.44.19-4.8.27v165.9c-1.76.64-3.6,1.31-6.02,2.2v18.5Z"/>
      <path class="cls-1" d="m453.7,189.33v-18.5c2.42-.88,4.26-1.55,6.02-2.2V2.74c1.36-.08,2.76-.15,4.8-.27v159.12h24.14c.82,12.07,1.62,23.78,2.51,36.74,7.86,0,15.46-.11,23.06.04,4.9.1,6.09,2.82,3.44,7.1-.64,1.03-1.22,2.32-1.22,3.49.08,34.09.22,68.18.4,102.28.06,10.08.15,20.17.57,30.23.09,2.22,1.11,5.75,2.61,6.33,6.41,2.49,4.81,8.33,6.37,13.35,7.39,0,14.84.09,22.29-.02,8.84-.13,9.55.7,7.63,9.25h-30.36c-.26,2.08-.22,4.64-.99,6.94-.64,1.91-2.39,3.42-3.37,5.25-1.33,2.47-3.16,5-3.42,7.64-.55,5.44-.22,10.96-.25,16.45,0,.66-.08,1.35.07,1.99,1.56,6.79,1.63,7.15-5.29,8.29-7.49,1.23-15.1,1.8-22.67,2.44-3.43.29-6.91.05-11.31.05-.5,12.38-.91,23.97-1.46,35.55-.21,4.47-.38,8.99-1.2,13.37-3.06,16.45-9.88,24.72-28.14,26.73-2.95.32-6.38,2.06-8.37,4.26-6.34,7.02-13.09,13.18-22.48,15.66-2.69.71-5.44,1.63-8.17,1.65-27.95.2-55.89.3-83.84.31-94.66.04-189.31.04-283.97.06-8.81,0-15.96-3.71-21.99-9.84-2.1-2.13-4.08-4.38-6-6.66-6.75-8-9.8-16.72-9.71-27.73.55-66.03.03-132.07.4-198.1.16-30.09,1.46-60.18,2.45-90.26.07-2.27,1.49-4.66,2.75-6.7,3.91-6.34,7.63-12.86,12.21-18.71,4.73-6.04,11.18-8.42,19.29-8.26,19.78.4,39.59.11,59.37-.45,5.19-.15,10.4-1.99,15.46-3.53,14.72-4.5,29.85-6.32,45.12-7.41,20.55-1.47,41.11-4.34,61.64-4.1,23.88.27,47.77,2.79,71.56,5.22,15.32,1.56,30.74,3.7,45.62,7.54,8.03,2.07,15.76,2.5,23.76,2.76,6.74.21,13.49.51,20.22.93,3.28.21,4.85-.95,6.18-4.15,1.6-3.84,4.46-7.16,6.79-10.69.35-.54,1.03-.97,1.14-1.53,1.93-9.89,9.8-12.43,17.93-13.45,24.1-3,34.52,13.57,35.69,34.62.53,9.46.52,18.95.81,28.43.05,1.5.36,2.99.55,4.48.45-.03.91-.06,1.36-.09Zm-7.02,298.54c.16,0,.96.13,1.71-.02,11.74-2.3,17.27-10.75,18.43-21.41,1.53-14,1.54-28.17,1.82-42.27.03-1.51-2.39-4.26-3.85-4.39-5.75-.51-11.57-.21-18.11-.21v68.3Zm-7.36-319.49c-.23-3.36-.36-5.46-.52-7.55-1.47-18.78-11.3-26.71-28.65-23.13-8.2,1.7-10.08,4.78-8.29,14.25,14.85-1.41,26.69,4.91,37.46,16.43Zm-244.17-17.58h62.45c-20.89-3.05-41.78-4.25-62.45,0Zm215.16-19.82c13.07-1.38,24.38,1.06,31.69,13.34-2.04-6.19-4.43-12.01-11.38-14.3-6.9-2.28-13.68-2.78-20.31.96Z"/>
      <path class="cls-2" d="m446.68,487.88v-68.3c6.54,0,12.36-.3,18.11.21,1.46.13,3.88,2.88,3.85,4.39-.28,14.1-.29,28.28-1.82,42.27-1.16,10.66-6.69,19.11-18.43,21.41-.75.15-1.55.02-1.71.02Z"/>
      <path class="cls-2" d="m439.32,168.38c-10.78-11.51-22.62-17.84-37.46-16.43-1.79-9.47.09-12.55,8.29-14.25,17.35-3.59,27.19,4.35,28.65,23.13.16,2.09.29,4.19.52,7.55Z"/>
      <path class="cls-2" d="m195.15,150.8c20.66-4.25,41.55-3.05,62.45,0h-62.45Z"/>
      <path class="cls-2" d="m410.31,130.98c6.63-3.74,13.41-3.24,20.31-.96,6.95,2.29,9.34,8.11,11.38,14.3-7.31-12.28-18.62-14.72-31.69-13.34Z"/>
    </g>
  </g>
</svg>