<?xml version="1.0" encoding="UTF-8"?>
<svg id="Layer_1" data-name="Layer 1" xmlns="http://www.w3.org/2000/svg" viewBox="0 0 596 323">
  <defs>
    <style>
      .cls-1, .cls-2 {
        stroke-width: 0px;
      }

      .cls-2 {
        fill: #fff;
      }
    </style>
  </defs>
  <g id="rZo6Sr.tif">
    <g>
      <path class="cls-2" d="m596,323H0V0h596v323ZM11.47,217.42c.67,5.03,1.02,10.18,2.16,15.14.62,2.68,2.07,5.6,4.05,7.44,6.79,6.32,13.77,12.46,21.07,18.17,5.54,4.33,11.33,8.64,17.64,11.64,9.86,4.68,20.22,8.33,30.43,12.25,9.59,3.68,19.05,7.93,28.94,10.51,12.47,3.25,25.29,5.2,38,7.45,19.36,3.42,38.68,7.26,58.17,9.71,14.92,1.87,30.09,1.77,45.14,2.71,5.55.34,11.75-1.09,15.55,5.13.54.88,2.68,1.05,4.09,1.07,13.13.22,26.27.24,39.4.52,4.48.1,8.62.15,11.08-4.57.42-.8,1.85-1.44,2.86-1.51,10.58-.71,21.17-1.21,31.75-1.93,13.53-.92,27.16-1.23,40.55-3.18,17.01-2.48,33.83-6.26,50.7-9.61,11.83-2.35,23.99-3.81,35.36-7.62,17.9-5.99,35.28-13.58,52.83-20.6,3.35-1.34,6.9-2.72,9.65-4.95,8.36-6.78,15.91-14.66,24.68-20.82,7.04-4.95,9.66-11.18,10.24-19.07.17-2.31.48-4.61.79-6.9.06-.44.41-.85.6-1.22,1.56-.19,3.01-.36,4.14-.49,2.52-5.34,1.19-10.11,0-15.2-2.28-9.76-3.76-19.72-5.35-29.64-.65-4.04-.63-8.19-1.16-12.25-.24-1.82-.67-3.9-1.77-5.27-5.07-6.34-10.24-12.62-15.72-18.61-2.84-3.1-6.53-5.41-9.55-8.37-1.12-1.09-2.06-3.02-2.01-4.53.43-13.57,1-27.14,1.74-40.7.46-8.43.49-16.41-7.36-22.25-3.26-2.43-5.43-6.26-8.42-9.1-2.45-2.33-5.14-4.72-8.18-6.08-10.14-4.56-20.64-8.32-30.68-13.06-6.55-3.09-12.52-3.54-19.36-.97-7.42,2.79-15.26,4.48-22.92,6.63-7.25,2.04-14.51,4.04-21.96,6.12V15.49c-46.07-9.36-92.75-13-139.62-12.91-47.02.08-93.9,3.26-140.16,13v28.09c-17.44-4.84-34.34-9.59-51.29-14.16-1.73-.47-3.94-.35-5.6.31-11.1,4.44-22.14,9-33.11,13.73-3.76,1.62-7.79,3.26-10.77,5.93-4.91,4.41-8.99,9.73-13.56,14.53-2.77,2.91-4.06,6.04-3.84,10.2.79,15.06,1.18,30.15,1.9,45.22.21,4.45-.07,8.21-5.29,9.62-.98.26-1.77,1.44-2.52,2.3-6.51,7.52-13.12,14.97-19.38,22.7-1.32,1.63-1.46,4.32-1.85,6.57-.71,4.04-1.03,8.14-1.82,12.16-.8,4.02-3.16,8.09-2.75,11.92.77,7.32-1.03,13.74-3.87,20.18-2.78,6.28-.23,11.27,6.4,12.55Z"/>
      <path class="cls-1" d="m11.47,217.42c-6.63-1.28-9.17-6.27-6.4-12.55,2.85-6.44,4.65-12.86,3.87-20.18-.4-3.83,1.95-7.9,2.75-11.92.8-4.01,1.12-8.12,1.82-12.16.39-2.25.53-4.94,1.85-6.57,6.25-7.73,12.87-15.18,19.38-22.7.75-.87,1.54-2.04,2.52-2.3,5.22-1.41,5.5-5.17,5.29-9.62-.72-15.07-1.1-30.15-1.9-45.22-.22-4.17,1.06-7.29,3.84-10.2,4.57-4.8,8.65-10.12,13.56-14.53,2.97-2.67,7-4.31,10.77-5.93,10.97-4.73,22.02-9.3,33.11-13.73,1.66-.66,3.87-.78,5.6-.31,16.95,4.57,33.85,9.32,51.29,14.16V15.57C205.1,5.84,251.98,2.66,299,2.58c46.87-.08,93.55,3.55,139.62,12.91v27.94c7.45-2.07,14.71-4.08,21.96-6.12,7.66-2.15,15.5-3.85,22.92-6.63,6.84-2.57,12.8-2.13,19.36.97,10.04,4.74,20.54,8.51,30.68,13.06,3.03,1.36,5.72,3.75,8.18,6.08,3,2.84,5.17,6.67,8.42,9.1,7.84,5.84,7.81,13.82,7.36,22.25-.74,13.56-1.31,27.13-1.74,40.7-.05,1.51.9,3.44,2.01,4.53,3.02,2.95,6.71,5.26,9.55,8.37,5.48,5.99,10.65,12.27,15.72,18.61,1.09,1.37,1.53,3.45,1.77,5.27.54,4.06.51,8.21,1.16,12.25,1.6,9.91,3.07,19.87,5.35,29.64,1.19,5.1,2.52,9.87,0,15.2-1.12.13-2.57.31-4.14.49-.19.37-.54.77-.6,1.22-.31,2.3-.62,4.59-.79,6.9-.58,7.89-3.2,14.11-10.24,19.07-8.77,6.17-16.32,14.04-24.68,20.82-2.75,2.23-6.3,3.61-9.65,4.95-17.55,7.03-34.92,14.61-52.83,20.6-11.36,3.8-23.52,5.27-35.36,7.62-16.88,3.35-33.7,7.14-50.7,9.61-13.39,1.95-27.02,2.26-40.55,3.18-10.58.72-21.17,1.22-31.75,1.93-1.01.07-2.44.71-2.86,1.51-2.46,4.72-6.6,4.67-11.08,4.57-13.13-.29-26.26-.31-39.4-.52-1.41-.02-3.56-.2-4.09-1.07-3.8-6.22-10-4.79-15.55-5.13-15.05-.93-30.22-.84-45.14-2.71-19.49-2.44-38.81-6.28-58.17-9.71-12.71-2.25-25.53-4.2-38-7.45-9.89-2.58-19.35-6.83-28.94-10.51-10.21-3.92-20.57-7.57-30.43-12.25-6.31-3-12.1-7.31-17.64-11.64-7.3-5.71-14.28-11.86-21.07-18.17-1.98-1.84-3.43-4.77-4.05-7.44-1.14-4.96-1.49-10.11-2.16-15.14Z"/>
    </g>
  </g>
</svg>