<svg id="Layer_1" data-name="Layer 1" xmlns="http://www.w3.org/2000/svg" viewBox="0 0 596 323">
  
  <g id="rZo6Sr.tif">
    <g>
      
      <path class="cls-1" d="m11.47,217.42c-6.63-1.28-9.17-6.27-6.4-12.55,2.85-6.44,4.65-12.86,3.87-20.18-.4-3.83,1.95-7.9,2.75-11.92.8-4.01,1.12-8.12,1.82-12.16.39-2.25.53-4.94,1.85-6.57,6.25-7.73,12.87-15.18,19.38-22.7.75-.87,1.54-2.04,2.52-2.3,5.22-1.41,5.5-5.17,5.29-9.62-.72-15.07-1.1-30.15-1.9-45.22-.22-4.17,1.06-7.29,3.84-10.2,4.57-4.8,8.65-10.12,13.56-14.53,2.97-2.67,7-4.31,10.77-5.93,10.97-4.73,22.02-9.3,33.11-13.73,1.66-.66,3.87-.78,5.6-.31,16.95,4.57,33.85,9.32,51.29,14.16V15.57C205.1,5.84,251.98,2.66,299,2.58c46.87-.08,93.55,3.55,139.62,12.91v27.94c7.45-2.07,14.71-4.08,21.96-6.12,7.66-2.15,15.5-3.85,22.92-6.63,6.84-2.57,12.8-2.13,19.36.97,10.04,4.74,20.54,8.51,30.68,13.06,3.03,1.36,5.72,3.75,8.18,6.08,3,2.84,5.17,6.67,8.42,9.1,7.84,5.84,7.81,13.82,7.36,22.25-.74,13.56-1.31,27.13-1.74,40.7-.05,1.51.9,3.44,2.01,4.53,3.02,2.95,6.71,5.26,9.55,8.37,5.48,5.99,10.65,12.27,15.72,18.61,1.09,1.37,1.53,3.45,1.77,5.27.54,4.06.51,8.21,1.16,12.25,1.6,9.91,3.07,19.87,5.35,29.64,1.19,5.1,2.52,9.87,0,15.2-1.12.13-2.57.31-4.14.49-.19.37-.54.77-.6,1.22-.31,2.3-.62,4.59-.79,6.9-.58,7.89-3.2,14.11-10.24,19.07-8.77,6.17-16.32,14.04-24.68,20.82-2.75,2.23-6.3,3.61-9.65,4.95-17.55,7.03-34.92,14.61-52.83,20.6-11.36,3.8-23.52,5.27-35.36,7.62-16.88,3.35-33.7,7.14-50.7,9.61-13.39,1.95-27.02,2.26-40.55,3.18-10.58.72-21.17,1.22-31.75,1.93-1.01.07-2.44.71-2.86,1.51-2.46,4.72-6.6,4.67-11.08,4.57-13.13-.29-26.26-.31-39.4-.52-1.41-.02-3.56-.2-4.09-1.07-3.8-6.22-10-4.79-15.55-5.13-15.05-.93-30.22-.84-45.14-2.71-19.49-2.44-38.81-6.28-58.17-9.71-12.71-2.25-25.53-4.2-38-7.45-9.89-2.58-19.35-6.83-28.94-10.51-10.21-3.92-20.57-7.57-30.43-12.25-6.31-3-12.1-7.31-17.64-11.64-7.3-5.71-14.28-11.86-21.07-18.17-1.98-1.84-3.43-4.77-4.05-7.44-1.14-4.96-1.49-10.11-2.16-15.14Z"/>
    </g>
  </g>
</svg>