<?xml version="1.0" encoding="UTF-8"?>
<svg id="Layer_1" data-name="Layer 1" xmlns="http://www.w3.org/2000/svg" viewBox="0 0 599 323">
  <defs>
    <style>
      .cls-1, .cls-2 {
        stroke-width: 0px;
      }

      .cls-2 {
        fill: #fff;
      }
    </style>
  </defs>
  <g id="_9Ulf4l.tif" data-name="9Ulf4l.tif">
    <g>
      <path class="cls-2" d="m599,323H0V0h599v323ZM21.82,219.61c10.91,9.66,17.48,22.97,31.17,29.26,11.88,5.46,22.77,13.61,35.06,17.53,27.05,8.64,54.02,17.88,82.5,21.49,26.08,3.31,51.86,8.93,78.33,8.82,6.23-.03,12.46.75,17.78,1.1,3.12,7.27,5.72,13.71,8.7,19.97.51,1.08,2.6,1.98,3.97,1.99,15.14.14,30.28.17,45.42-.05,1.49-.02,3.68-1.55,4.3-2.94,2.84-6.3,5.24-12.8,7.48-18.41,21.34-2.12,42.65-3.54,63.74-6.54,21.89-3.12,43.89-6.54,65.24-12.1,22.64-5.89,45.83-10.92,66.16-23.69,6.58-4.13,14.48-6.38,20.49-11.12,6.92-5.47,12.39-12.77,18.55-19.21,2.41-2.51,3.46-7.23,8.67-5.55.45.15,1.56-.75,1.9-1.4,3.21-6.13,8.5-12.15,8.96-18.51.83-11.35,3.02-22.96.04-34.44-.27-1.04.52-2.44,1.03-3.58.52-1.17,1.74-2.17,1.87-3.33,1.02-9.35,2.29-18.72,2.56-28.1.13-4.63-.61-9.95-2.87-13.85-3.69-6.36-8.45-12.29-13.64-17.54-9.45-9.56-19.5-18.53-29.4-27.65-4.26-3.93-8.28-8.45-13.24-11.23-11.67-6.55-23.78-12.33-35.83-18.2-6.8-3.31-13.57-7.01-20.78-9.05-18.32-5.2-36.93-9.38-55.32-14.33-17.8-4.79-35.73-8.32-54.22-9.14-16.37-.72-32.7-2.23-49.05-3.33-8.42-.57-16.87-1.57-25.27-1.35-10.23.27-20.42,1.75-30.65,2.46-22.09,1.54-44.19,2.94-66.32,4.39-1.2-5.72-5.16-9.55-11.59-9.48-5.91.06-12.02.57-17.66,2.19-6.99,2.01-9.4,4.29-7.77,12.32.69,3.37-.31,5.33-3.91,5.99-3.09.56-6.13,1.47-9.14,2.38-16.4,4.95-34.02,6.17-48.84,15.98-1.21.8-2.79,1.03-4.2,1.52-12.95,4.49-25.6,10.14-35.96,18.91-16.58,14.03-32.32,29.11-47.72,44.44-4.17,4.15-7.48,10.61-8.25,16.4-1.26,9.51-.25,19.33.1,29.01.12,3.19.26,7.04,2.02,9.35,1.95,2.56,2.14,4.28,1.12,6.98-.74,1.96-1.14,4.18-1.11,6.28.08,6.28,1.22,12.65.53,18.82-1.17,10.35,4.45,18.1,8.73,26.38,1.49,2.88,4.28,4.56,6.31.11Z"/>
      <path class="cls-1" d="m21.82,219.61c-2.02,4.45-4.82,2.77-6.31-.11-4.27-8.28-9.9-16.03-8.73-26.38.7-6.17-.45-12.54-.53-18.82-.03-2.1.38-4.32,1.11-6.28,1.01-2.69.83-4.41-1.12-6.98-1.76-2.31-1.91-6.15-2.02-9.35-.35-9.68-1.36-19.51-.1-29.01.77-5.79,4.08-12.25,8.25-16.4,15.4-15.33,31.14-30.41,47.72-44.44,10.36-8.77,23.01-14.42,35.96-18.91,1.41-.49,3-.72,4.2-1.52,14.82-9.81,32.44-11.03,48.84-15.98,3.01-.91,6.05-1.82,9.14-2.38,3.6-.66,4.6-2.62,3.91-5.99-1.64-8.04.78-10.32,7.77-12.32,5.64-1.62,11.75-2.13,17.66-2.19,6.43-.07,10.4,3.76,11.59,9.48,22.13-1.46,44.23-2.85,66.32-4.39,10.23-.72,20.42-2.2,30.65-2.46,8.41-.22,16.85.79,25.27,1.35,16.35,1.1,32.68,2.62,49.05,3.33,18.49.81,36.42,4.35,54.22,9.14,18.4,4.95,37,9.13,55.32,14.33,7.21,2.05,13.98,5.75,20.78,9.05,12.05,5.86,24.16,11.65,35.83,18.2,4.96,2.78,8.98,7.3,13.24,11.23,9.89,9.12,19.95,18.09,29.4,27.65,5.19,5.25,9.95,11.18,13.64,17.54,2.26,3.9,3,9.21,2.87,13.85-.27,9.39-1.54,18.75-2.56,28.1-.13,1.16-1.35,2.16-1.87,3.33-.5,1.14-1.3,2.54-1.03,3.58,2.97,11.47.78,23.09-.04,34.44-.46,6.36-5.76,12.38-8.96,18.51-.34.65-1.45,1.55-1.9,1.4-5.22-1.68-6.27,3.03-8.67,5.55-6.17,6.44-11.63,13.74-18.55,19.21-6.01,4.74-13.91,6.99-20.49,11.12-20.34,12.77-43.53,17.8-66.16,23.69-21.36,5.56-43.35,8.98-65.24,12.1-21.09,3-42.4,4.42-63.74,6.54-2.23,5.61-4.63,12.11-7.48,18.41-.63,1.39-2.81,2.92-4.3,2.94-15.14.22-30.28.18-45.42.05-1.37-.01-3.46-.91-3.97-1.99-2.98-6.26-5.59-12.7-8.7-19.97-5.33-.35-11.55-1.13-17.78-1.1-26.47.11-52.26-5.51-78.33-8.82-28.48-3.61-55.45-12.85-82.5-21.49-12.3-3.93-23.18-12.07-35.06-17.53-13.68-6.29-20.26-19.6-31.17-29.26Z"/>
    </g>
  </g>
</svg>