<?xml version="1.0" encoding="UTF-8"?>
<svg id="Layer_1" data-name="Layer 1" xmlns="http://www.w3.org/2000/svg" viewBox="0 0 537 433">
  <defs>
    <style>
      .cls-1, .cls-2 {
        stroke-width: 0px;
      }

      .cls-2 {
        fill: #fff;
      }
    </style>
  </defs>
  <g id="_4A0VKs.tif" data-name="4A0VKs.tif">
    <g>
      <path class="cls-1" d="m491.08,0h2c4.42,1.96,5.13,4.98,2.82,9.1-.62,1.1-.87,2.51-.92,3.8-.62,16.43-1.2,32.86-1.73,49.3-.39,11.96-.85,23.91-.98,35.88-.17,15.04-.04,30.08-.04,44.46,4.52,1.06,9.24,2.13,13.93,3.3,2.38.59,5.83.61,6.87,2.17,3.48,5.26,7.27,10.81,8.71,16.78,1.37,5.64-.31,11.97-.14,17.99.07,2.3.93,5.22,2.51,6.7,3.4,3.18,5.85,6.31,4.96,11.27-.32,1.77.08,3.66-.09,5.48-.28,3.03.24,5.21,3.42,6.8,1.41.71,2.66,3.66,2.4,5.36-.54,3.53-.21,7.78-4.53,9.77-.67.31-1.24,1.53-1.3,2.38-.72,8.98-1.64,17.97-1.85,26.97-.1,4.39-.65,8.4-3.95,11.28-3.74,3.26-3.97,7.09-3.35,11.51.51,3.58-.79,8.24,1.05,10.61,2.96,3.81,3.05,7.57,2.96,11.64-.11,5.14-.09,10.36-.98,15.4-1.78,10.02-.8,20.7-7.7,29.57-2.48,3.18-4.76,3.8-8.29,3.17-1.4-.25-3.33.04-4.43.86-7.3,5.44-14.55,10.96-21.57,16.74-2.18,1.79-3.54,4.55-5.44,6.73-1.85,2.12-3.55,5.05-5.94,5.93-33.16,12.22-66.76,23.05-102.03,27.28-22.24,2.66-44.57,4.61-66.88,6.63-6.91.62-6.94.25-7.17,7.17-.21,6.52-2.88,9.06-9.49,9.06-9.98,0-19.97,0-29.95,0-8.16,0-10.57-2.22-10.37-10.51.11-4.22-1.55-5.37-5.48-5.5-8.61-.3-17.24-.71-25.79-1.64-17.42-1.9-34.83-3.91-52.17-6.4-11.97-1.72-24.1-3.36-35.65-6.76-19.68-5.78-38.95-12.97-58.42-19.45-3.83-1.27-6.21-3.32-6.53-7.58-.1-1.26-1-2.79-2.01-3.59-6.51-5.15-13.23-10.04-19.7-15.22-3.33-2.67-6.51-5.08-11.15-4.03-.87.2-2.39.02-2.76-.54-2.8-4.25-6.42-8.35-7.79-13.07-1.87-6.45-2.28-13.4-2.77-20.17-.5-6.95-2.12-14.58.05-20.76,2.2-6.26,1.97-12.15,2.49-18.26.35-4.19-1.14-7.2-4.43-9.83-1.39-1.12-2.65-3.56-2.49-5.26,1-10.7-1.37-21.01-3.17-31.39-.15-.85-.79-1.78-1.48-2.33-3.06-2.46-5.38-12.76-2.57-14.99,5.43-4.31,4.36-10.06,5.38-15.63.62-3.38,3.43-6.69,6.03-9.26,1.94-1.92,5.37-2.24,7.66-3.92,1.72-1.27,3.57-3.47,3.8-5.44.78-6.54.76-13.17,1.27-19.75.14-1.81.94-3.61,1.65-5.33,1.2-2.89,3.7-5.71,3.68-8.54-.1-13.64-.99-27.27-1.37-40.9-.75-27.32-1.31-54.64-2.1-81.95-.08-2.8-1.61-5.54-1.84-8.36-.21-2.54.11-5.26.91-7.65.22-.67,3.95-1.19,4.45-.54,1.58,2.05,3.15,4.64,3.33,7.11.29,4.15-.82,8.38-.78,12.57.17,17.09.55,34.17.87,51.26.37,20.11.79,40.22,1.09,60.33.04,2.57.77,4.97,3.49,3.78,7.44-3.26,12.27,1.27,17,5.32,5.86,5.02,12.62,7.15,19.99,7.79,8,.69,9.69,2.08,11.59,10.06.31,1.32,1.65,3.32,2.63,3.4,4.91.36,7.14-2.28,7.27-7.66.05-2.1-.27-4.69.8-6.19,5.26-7.32,17.62-11.12,24.72-5.97,7.29,5.28,13.04,4.5,19.63.18,1.24-.81,2.52-1.59,3.83-2.28,10.54-5.56,21.07-11.12,31.64-16.62,8.92-4.64,17.88-9.22,26.83-13.8,9.98-5.11,20.22-9.77,29.89-15.4,19.98-11.64,40.47-13.63,61.18-3.11,23,11.68,45.47,24.39,68.28,36.43,21.66,11.43,43.47,22.57,65.76,34.13,2.24-3.47,4.41-6.75,6.5-10.09,2.33-3.72,10.61-7.76,14.76-6.94,9.21,1.83,18.41,2.58,27.27-1.22,2.68-1.15,6.5-3.09,6.96-5.27,1.25-5.89,1.09-12.11,1.3-18.2.41-11.76.7-23.52,1.01-35.28.68-25.43,1.34-50.86,2-76.28.03-1,.36-2.31-.14-2.94C486.53,7.26,487.05,3.49,491.08,0ZM61.58,198.36c8.63-2.05,9.82-3.53,10.2-11.85.22-4.76-.04-9.52,6.13-11.54,5-1.64,6.07-5.11,4.75-11.74-.92-4.6-4.62-4.77-8.16-4.5-6.34.47-11.72-1.38-16.41-5.66-2.2-2.01-4.94-3.44-7.04-5.53-4.24-4.21-8.91-4-14.42-1.97.3,3.09.36,6.21.99,9.21.49,2.34,1.93,4.48,2.47,6.82.5,2.19.36,4.52.45,6.03,6.04.89,11.4,1.68,16.65,2.46,1.49,9.56,2.92,18.75,4.4,28.28Zm424.26-30.42v-16.65c-12.4,6.23-25.18,6.11-38.38,5.15,1.58,3.32,3.36,5.66,3.79,8.23.96,5.71,3.51,9.54,9.31,11.19,4,1.13,5.12,4.3,4.57,8.2-.45,3.21-.85,6.43-1.24,9.45,3.54,1.74,6.53,3.21,10.28,5.05.06-5.59-1.03-10.99,3.64-14.69.25-.2-.16-1.19-.2-1.82-.27-4-.52-7.99-.76-11.75,3.55-.93,6.2-1.62,9-2.36Zm21.67,7.73c.17-2.91.07-4.41.39-5.8.9-3.88-2.46-9.12,3.63-11.5.47-.19.49-2.56.11-3.72-1.63-5.09-14.8-9.28-19.11-6.01-1,.76-1.41,2.59-1.62,4-.36,2.39-.67,4.87-.41,7.25.28,2.62.39,6.27,2.04,7.52,4.2,3.15,9.22,5.21,14.97,8.27Zm-400.94-7.68c7.1-3.97,13.85-7.76,20.81-11.65-5.65-6.06-11.93-5.25-17.61-4.42-6.63.97-8.04,8.47-3.2,16.07Zm339.43,1.07c.67-.54,1.33-1.08,2-1.62-1.35-2.02-2.58-4.14-4.18-5.93-.22-.25-2.28,1.14-3.48,1.77,1.89,1.93,3.77,3.85,5.66,5.78Z"/>
      <path class="cls-2" d="m491.08,0c-4.03,3.49-4.55,7.26-1.14,11.56.5.62.16,1.94.14,2.94-.66,25.43-1.32,50.86-2,76.28-.31,11.76-.61,23.53-1.01,35.28-.21,6.09-.04,12.31-1.3,18.2-.46,2.18-4.28,4.12-6.96,5.27-8.86,3.8-18.06,3.05-27.27,1.22-4.15-.82-12.42,3.22-14.76,6.94-2.09,3.34-4.26,6.62-6.5,10.09-22.3-11.56-44.11-22.7-65.76-34.13-22.82-12.04-45.28-24.75-68.28-36.43-20.71-10.52-41.19-8.52-61.18,3.11-9.67,5.63-19.91,10.29-29.89,15.4-8.95,4.59-17.91,9.16-26.83,13.8-10.57,5.5-21.1,11.07-31.64,16.62-1.31.69-2.59,1.46-3.83,2.28-6.59,4.32-12.34,5.1-19.63-.18-7.1-5.14-19.46-1.35-24.72,5.97-1.07,1.49-.75,4.09-.8,6.19-.13,5.38-2.35,8.02-7.27,7.66-.98-.07-2.32-2.08-2.63-3.4-1.89-7.97-3.59-9.36-11.59-10.06-7.36-.64-14.13-2.77-19.99-7.79-4.73-4.05-9.56-8.58-17-5.32-2.72,1.19-3.45-1.21-3.49-3.78-.31-20.11-.72-40.22-1.09-60.33-.32-17.09-.7-34.17-.87-51.26-.04-4.19,1.07-8.42.78-12.57-.17-2.48-1.75-5.07-3.33-7.11-.5-.65-4.23-.13-4.45.54-.81,2.4-1.12,5.11-.91,7.65.23,2.82,1.76,5.56,1.84,8.36.8,27.31,1.35,54.64,2.1,81.95.38,13.64,1.27,27.27,1.37,40.9.02,2.83-2.48,5.66-3.68,8.54-.71,1.72-1.51,3.52-1.65,5.33-.51,6.58-.49,13.21-1.27,19.75-.24,1.97-2.08,4.17-3.8,5.44-2.28,1.69-5.71,2.01-7.66,3.92-2.6,2.56-5.41,5.88-6.03,9.26-1.02,5.57.05,11.32-5.38,15.63-2.81,2.24-.49,12.54,2.57,14.99.69.55,1.33,1.48,1.48,2.33,1.8,10.38,4.17,20.69,3.17,31.39-.16,1.7,1.1,4.15,2.49,5.26,3.29,2.63,4.78,5.64,4.43,9.83-.52,6.12-.29,12.01-2.49,18.26-2.17,6.18-.55,13.81-.05,20.76.48,6.77.89,13.72,2.77,20.17,1.37,4.72,4.99,8.82,7.79,13.07.37.56,1.89.74,2.76.54,4.63-1.04,7.82,1.37,11.15,4.03,6.48,5.19,13.2,10.07,19.7,15.22,1.01.8,1.91,2.33,2.01,3.59.33,4.26,2.71,6.31,6.53,7.58,19.48,6.49,38.74,13.67,58.42,19.45,11.55,3.4,23.68,5.04,35.65,6.76,17.34,2.49,34.75,4.5,52.17,6.4,8.56.93,17.18,1.35,25.79,1.64,3.93.14,5.58,1.28,5.48,5.5-.21,8.29,2.21,10.51,10.37,10.51,9.98,0,19.97,0,29.95,0,6.62,0,9.28-2.54,9.49-9.06.23-6.92.26-6.55,7.17-7.17,22.31-2.02,44.64-3.97,66.88-6.63,35.27-4.22,68.87-15.05,102.03-27.28,2.39-.88,4.09-3.81,5.94-5.93,1.9-2.17,3.26-4.93,5.44-6.73,7.03-5.78,14.27-11.3,21.57-16.74,1.11-.82,3.03-1.11,4.43-.86,3.53.63,5.81.01,8.29-3.17,6.9-8.87,5.93-19.55,7.7-29.57.89-5.03.87-10.25.98-15.4.09-4.07,0-7.83-2.96-11.64-1.84-2.37-.54-7.03-1.05-10.61-.62-4.42-.4-8.25,3.35-11.51,3.3-2.88,3.84-6.89,3.95-11.28.21-9,1.13-17.98,1.85-26.97.07-.84.63-2.07,1.3-2.38,4.31-1.99,3.99-6.25,4.53-9.77.26-1.69-.99-4.65-2.4-5.36-3.18-1.6-3.7-3.77-3.42-6.8.17-1.81-.23-3.7.09-5.48.89-4.96-1.56-8.08-4.96-11.27-1.58-1.48-2.45-4.4-2.51-6.7-.17-6.01,1.51-12.34.14-17.99-1.45-5.98-5.23-11.53-8.71-16.78-1.03-1.56-4.49-1.58-6.87-2.17-4.7-1.17-9.42-2.24-13.93-3.3,0-14.38-.13-29.42.04-44.46.14-11.96.6-23.92.98-35.88.53-16.43,1.11-32.87,1.73-49.3.05-1.28.3-2.7.92-3.8C498.2,4.98,497.49,1.96,493.08,0,507.72,0,522.36,0,537,0c0,144.31,0,288.63,0,433H0C0,288.71,0,144.35,0,0,163.69,0,327.39,0,491.08,0Z"/>
      <path class="cls-2" d="m61.58,198.36c-1.48-9.52-2.91-18.72-4.4-28.28-5.25-.77-10.61-1.57-16.65-2.46-.09-1.51.05-3.84-.45-6.03-.53-2.34-1.98-4.48-2.47-6.82-.62-3-.68-6.12-.99-9.21,5.51-2.03,10.17-2.24,14.42,1.97,2.1,2.09,4.84,3.52,7.04,5.53,4.69,4.28,10.06,6.13,16.41,5.66,3.54-.26,7.25-.1,8.16,4.5,1.32,6.63.25,10.1-4.75,11.74-6.17,2.03-5.91,6.78-6.13,11.54-.38,8.32-1.57,9.8-10.2,11.85Z"/>
      <path class="cls-2" d="m485.84,167.95c-2.81.73-5.45,1.43-9,2.36.24,3.76.49,7.75.76,11.75.04.63.46,1.62.2,1.82-4.67,3.7-3.58,9.1-3.64,14.69-3.74-1.84-6.73-3.31-10.28-5.05.4-3.02.79-6.24,1.24-9.45.55-3.9-.57-7.07-4.57-8.2-5.79-1.64-8.35-5.47-9.31-11.19-.43-2.57-2.2-4.91-3.79-8.23,13.2.96,25.98,1.08,38.38-5.15v16.65Z"/>
      <path class="cls-2" d="m507.51,175.68c-5.75-3.06-10.77-5.11-14.97-8.27-1.66-1.24-1.76-4.9-2.04-7.52-.26-2.38.05-4.86.41-7.25.21-1.41.63-3.24,1.62-4,4.31-3.28,17.48.92,19.11,6.01.37,1.16.36,3.54-.11,3.72-6.09,2.38-2.73,7.61-3.63,11.5-.32,1.4-.21,2.89-.39,5.8Z"/>
      <path class="cls-2" d="m106.56,168c-4.84-7.59-3.43-15.09,3.2-16.07,5.68-.83,11.96-1.64,17.61,4.42-6.95,3.89-13.71,7.68-20.81,11.65Z"/>
      <path class="cls-2" d="m445.99,169.07c-1.89-1.93-3.77-3.85-5.66-5.78,1.21-.63,3.26-2.02,3.48-1.77,1.6,1.79,2.83,3.91,4.18,5.93-.67.54-1.33,1.08-2,1.62Z"/>
    </g>
  </g>
</svg>