<svg id="Layer_1" data-name="Layer 1" xmlns="http://www.w3.org/2000/svg" viewBox="0 0 377 254">
  
  <g id="_838MAN.tif" data-name="838MAN.tif">
    <g>
      <path class="cls-1" d="m0,201.21c0-2.32,0-4.65,0-6.97.52-6.74.67-13.54,1.7-20.2.52-3.35,2.29-6.67,4.11-9.63,2.55-4.15,5.59-8,8.58-11.85.73-.94,1.99-1.74,3.14-2.02,4.72-1.15,7.04-3.89,7-8.9-.08-12.45-.11-24.89-.38-37.34-.1-4.87.88-9.67.06-14.66-.36-2.18,1.83-6.13,3.85-6.99,2.56-1.1,7.35-1.06,8.95.61,2.51,2.62,4.48,2.58,7.32,1.94,2.91-.66,5.86-1.14,8.81-1.56,3.88-.56,7.41-1.36,7.86-6.27.08-.9.71-1.95,1.41-2.57,5.63-5,8.1-11.02,6.99-18.64-.35-2.45-.25-5.8,1.15-7.51,4.92-6,13.47-6.68,20.03-2.27.96.65,2,1.23,2.84,2.01,3.72,3.46,7.43,2.64,11.37.35,4.53-2.63,9.22-4.99,13.81-7.53,1.09-.6,2.87-1.36,2.93-2.15.43-5.32,3.32-4.24,6.55-2.87,3.72,1.57,6.52.14,8.26-3.15,1.38-2.61,2.76-5.42,3.23-8.28,1.16-6.99,5.66-10.97,11.42-14.07,8.55-4.6,20.64-5.37,24.75,3.25,2.95-.48,5.78-.93,8.59-1.39,1.87-3.37-2.57-8.95,4.1-10.97.73,3.5,1.44,6.86,2.12,10.15,2.3.79,4.43,1.52,5.19,1.78,3.64-2.17,6.25-4.72,9.27-5.35,8.64-1.82,16.18,1.34,23.11,6.46,5.54,4.1,6.71,10.41,8.8,16.27,2.02,5.67,4.43,6.94,10.1,4.96,2.18-.76,3.52-.92,5.47,1.26,2.05,2.28,5.6,3.18,8.4,4.84,2.34,1.38,5.01,2.58,6.71,4.56,4.14,4.81,8.43,5.46,13.53,1.87,3.32-2.34,6.95-5.64,10.6-5.85,8.72-.49,14.54,7.03,13.73,15.79-.22,2.36-.36,5.05.54,7.12,1.97,4.5,4.59,8.73,7.03,13.02.65,1.15,1.41,2.78,2.43,3.08,6.66,1.9,13.4,3.5,20.05,5.18.5-.61.87-.95,1.1-1.37,2.34-4.13,5.89-5.11,10.81-2.95,5.05,2.21,5.55,3.68,3.65,9.29-.54,1.61-.84,3.44-.68,5.11.29,2.89,1.46,5.73,1.5,8.6.12,9.96.6,19.98-.37,29.85-.93,9.45,1.92,15.29,10.07,20.69,5.12,3.39,8.68,10.34,10.99,16.43,2.11,5.54,1.61,12.08,2.22,18.18,1,10.01-4.12,18.55-6.82,27.66-.33,1.13-1.61,2.13-2.66,2.88-14.39,10.18-30.43,17.72-47.36,21.23-22.99,4.77-46.57,6.66-69.9,9.76-5.23.69-10.47,1.28-15.7,1.91h-80.79c-1.44-.32-2.87-.82-4.33-.94-25.62-2.18-51.25-3.94-76.56-9.01-21.57-4.33-42.84-9.1-60.59-23.15-1.7-1.35-3.15-3.3-4.07-5.27C3.83,210.91,1.99,206.03,0,201.21Zm335.91-62.07v-46.97c-6.15.81-13.1,1.72-18.72,2.46-2.86,5.27-4.15,11.14-7.74,13.45-5,3.21-4.38,6.93-4.44,11.18-.03,2.16.13,4.33-.11,6.46-.42,3.65.98,5.18,4.67,6.06,8.43,2,16.71,4.63,26.33,7.37Zm-265.87-9.21c0-3.6.14-7.25-.06-10.87-.1-1.86-.43-3.88-1.3-5.49-2.74-5.06-5.76-9.97-8.72-14.91-.56-.93-1.24-2.34-2.06-2.48-6.68-1.19-13.41-2.14-19.18-3.02v46.09c11.09-3.3,20.86-6.21,31.32-9.32Zm29.49-72.06c-3.24-2.2-6.41-4.2-9.41-6.44-2.92-2.18-5.28-4.67-9.7-2.65-4.64,2.12-6.47,4.91-5.55,9.93.65,3.51.7,7.12,1.06,11.23,8.25-4.22,16.02-8.2,23.58-12.07Zm200,10.49c.53-4.74,1-8.48,1.34-12.22.1-1.09.25-2.45-.27-3.28-3.66-5.75-10.59-6.26-15.61-1.65-2.57,2.35-5.75,4.03-8.52,5.93,6.71,3.26,14.49,7.05,23.06,11.23ZM144.59,27.31c8.04-2.8,15.87-5.45,23.62-8.33,1.24-.46,2.1-1.92,3.14-2.91-1.14-1.14-2.15-3.06-3.45-3.3-9.05-1.63-22.28,4.46-23.3,14.54Zm84.64-.1c-.93-7-9.87-14.33-17.65-14.31-3.75,0-7.51.16-7.61,5.35,8.47,3,16.81,5.96,25.26,8.96Z"/>
      
      
      
      
      
      
      
      
    </g>
  </g>
</svg>