<svg id="Layer_1" data-name="Layer 1" xmlns="http://www.w3.org/2000/svg" viewBox="0 0 200 220">
  <g id="k09ytM.tif">
    <g>
      <path class="cls-1" d="m112.42,220h-19.9c-3.25-.67-6.5-1.32-9.75-2-7.58-1.59-14.23-3.75-18.3-11.78-7.04-13.88-15.26-27.16-23.01-40.68-1.94-3.38-4.29-6.57-5.88-10.11-4.9-10.89-13.5-19.98-15.43-32.33-.7-4.45-2.8-8.78-2.94-13.2-.17-5.48,1.3-10.98,1.6-16.5.37-6.75.97-13.23,5.16-19.02,2.95-4.08,5.12-8.72,7.61-13.13,3.85-6.85,7.41-13.83,14.37-18.36,4.9-3.18,9.39-7,14.06-10.53-7.21.21-13.99,1.21-20.75,2.38-9.11,1.57-18.17,3.51-27.32,4.77-3.61.5-7.52.11-9.07-4.62-2-6.08-1.37-8.28,3.1-11.19,2.36-1.54,4.28-3.77,6.39-5.69,3.23-1.66,7.2-2.52,11.2-3.18,11.38-1.88,22.78-3.65,34.17-5.52,8.81-1.45,17.56-3.71,26.43-4.29,14.49-.95,29.04-.8,43.57-1.17,10.71-.28,21.43-.5,32.14-1.04,8.01-.4,15.98-1.35,23.99-1.89,3.93-.27,7.95-.55,10.88,3.09,1.64,2.03,3.51,3.89,5.27,5.82v4.98c-2.2,5.27-6.21,7.48-10.99,6.97-6.89-.74-13.83-.94-20.75-1.38,2.07,1.59,4.25,1.94,6.42,2.39,6.17,1.29,12.41,2.34,18.47,4.03,5.43,1.51,8.08,11.1,3.85,14.05-4.56,3.18-10.06,4.42-15.7,3.4-8.88-1.6-17.73-3.43-26.16-5.08,3.66,3.02,8.42,5.55,11.17,9.5,5.96,8.57,11.22,17.69,16.17,26.9,6.21,11.55,5.7,24.7,4.9,36.9-.6,9.08-3.29,18.64-8.71,27.3-12.12,19.39-23.33,39.4-33.9,59.69-5.5,10.56-12.13,18.04-24.47,19.14-2.65.24-5.26.92-7.89,1.39Zm20.83-196.65c-.2.44-.39.89-.59,1.33,8.08,2.65,16.01,5.98,24.27,7.78,10.91,2.38,22.06,3.64,33.14,5.14,1.16.16,2.54-1.26,3.82-1.95-1.17-.65-2.28-1.67-3.52-1.88-12.21-2.09-24.47-3.92-36.67-6.07-6.86-1.21-13.64-2.88-20.45-4.34Zm2.32-12.59l-.05,1.75c6.05.43,12.1.9,18.15,1.29,10.47.68,20.93,1.55,31.41,1.85,3.37.1,8.07,2.27,9.86-2.99-2.5-4.49-6.48-4.09-10.27-3.79-6.33.5-12.62,1.6-18.95,1.8-10.04.31-20.1.08-30.15.08Zm-85.85,12.28c-2.22-.53-3.09-1.02-3.82-.86-11.16,2.54-22.32,5.11-33.44,7.82-1.36.33-2.52,1.46-3.77,2.22.23.33.46.65.69.98,12.96-3.26,25.92-6.53,40.34-10.16Z"/>
    </g>
  </g>
</svg>