<svg xmlns="http://www.w3.org/2000/svg" xml:space="preserve" width="279.008" height="292.516" viewBox="0 0 73.821 77.395"><path d="m43.332 1.452 2.569.447.335-.112 2.233.782h.112l1.229.67h.335l1.675.67h.335l2.68 1.117.224.223v.112l.781.446-.781.447-1.34.782-1.006.782-1.675 1.116-1.675 1.229-.335.223h-.224l-1.116-.223-1.005-.223-1.229-.224-2.457-.335-.112-.112.224-.111.335-.335h.112l.223-.335 1.005-1.34.67-.894.782-1.228.335-.447.223-.447-.558-.335-.559-.558-.335-.335-.223-.112-2.122-1.34h.335m-33.169 9.604v-.446l.112-.335 1.451-1.899.224-.335h.335l2.234.782.67-1.117v-.112l.111-.335.335-.111h.67l.335-.112 1.117-1.005.224-.224 2.568-1.675.224-.223 2.122-.894h.111l2.234-.781.223-.224.894-.111 2.457-.67h.111l.224-.224 4.69-.558.335-.112 2.792.112.67-.335.335-.112h.224l1.117.112h.111l.559.67 1.675 1.117 2.122 1.34.67.446.67.447.223.224-.893 1.451-.335.447-1.229 1.675-.111.112-.335.223-.894.447-.782.335-6.142 2.345-2.68 1.34-3.239 1.9-2.904 2.233-1.452 1.787-1.34 2.01h-.223l-8.6.447-6.924.558h-.111l-.67.112-.67.111-.336.112h-.335l-.111-.223-.112-.894-.112-1.228v-.335l.224-.67.558-1.005.112-.112.111-.112h1.564l.112-.111h.223l2.01-3.35.112-.336.893-1.117zm46.012 26.58-.223.112-1.563.112v.335l-1.006.111-2.68.112h-3.35l-.559-.112h-.446l-.112-.111H45.9l-1.005.223-2.792.67-2.457.782H37.86l.782 1.564.335.558.558 1.228.112.335.67 1.452 1.34 3.24v-.336l-.112-.335 2.01 4.579 1.676 3.35 1.117 3.462.111 1.452q-.447.335-1.005.559v.223l.112.893v1.899l-.112.447v1.117l-.112.111v.112l.112.223v.447l.112.335.111.223v1.229l-.111.223h-.112l-.112-.111v-.224l-.223-.893-.223-.894v-.335l.111-.335v-1.675l-.111-.447v-.781l-.112-.224v-.223l.112-.447v-.67l-.112-.112-.112-.111-.335-1.452-3.015-5.026h-.112l-.111-.223-.67-1.564h-.447v.112l-.224.112h-.223l-.112-.224-.223-.893v-.223l.223-.112h.112l.223-.224-.223-1.451-.223-.559-.559-.893-1.452-2.122-.558-.67-.112-.112-.446-.447-.335-.223-.559-.558-.112-.224-1.005-.782-2.233-1.34-2.346-1.117-.781-.335-.559-.335-.67-.223-.558-.447L24.57 41.1l-.224.111-1.116.559-.447 2.122-.112.223-.558 2.01-.112.112.112-3.686.111-4.244-.111-4.243-.112-3.35V30.6h.112l.67-2.457v-.112l.447-2.01.111-.447.224-1.117-.67-.223-8.823-.335-6.701.446h-.112l-.335.335-1.898.224-.335-.112-.112-.223V23.34h.447l.335-.223h.446v-.112l6.366-.67 6.59-.223 4.243-.335.67-.112.224-.112v-.223l.223-.223 1.229-2.01 4.02-3.686 2.457-1.34 2.457-1.229 3.239-1.452 3.35-1.228 1.117-.447.223-.111.67.223 1.676.223 1.675.335 1.34.224 1.228.223h.447l.224-.112 4.02-2.903 1.117-.782 1.34-.782 2.68-1.34 5.361-1.229h.558l1.676 2.01.558 1.006.67 1.005.335.782h-.111l1.34 2.68 1.005-.558h.335l.112.223v.223l-.782 1.452v.335l-5.473 4.803-1.228.781-1.452 1.229-1.563 1.005-.447.335v.447q0 .111.223.111l.112.224 1.005 4.244-.558 2.568-1.117 2.457-.67 1.005-1.005.782-.335.112-.335.111-.112.224.112.112.223.335.112.223.111.447.112 1.116v.894l-.112.112-.335.67-.111.111h-.112zm17.31-33.95.113.223v.111l.223 1.117v1.117l-.112.223-.781 1.117-.224.112h-.223l-.894.67h-.335l-1.005-.223h-.67q-.223 0-.223-.112l-.335-.447-.782.559-.223-.447-.67-1.117-.224-.447.894-.335V4.58l.111-.223.224-.112 1.005-1.117h.223l.223-.112.224-.111h.112v-.112h.111l.782-.223h.67l.112.111.446.224.559.335.112.111h.223zm-24.793 8.823-.112.112.112.112zh.111v-.223l.112-.112h-.112l-.111.112zm-2.234 21.778q3.016-3.127 3.016-7.483t-3.016-7.37q-3.127-3.128-7.482-3.128t-7.371 3.127q-3.127 3.016-3.127 7.371t3.127 7.483q3.015 3.015 7.37 3.015t7.483-3.015m-4.802-7.594-.782-2.01q-.893-.894-2.122-.894t-2.01.893q-.893.894-.893 2.01 0 1.23.893 2.123.782.781 2.01.781 1.229 0 2.122-.781.782-.894.782-2.122m7.036.111q0 4.02-2.904 6.925-2.792 2.792-6.812 2.792t-6.813-2.792q-2.792-2.904-2.792-6.925 0-3.908 2.792-6.812 2.792-2.792 6.813-2.792 4.02 0 6.812 2.792 2.904 2.904 2.904 6.812m-8.488 15.859-.335-1.899 2.234-.67 2.457 6.925 3.35 6.812 1.229 2.457 1.005 2.569 1.005 4.132.447 1.563-.112 1.564.558 4.02h.112v.336l-.558.558-.112.558.112 1.34v.782l.111 1.117v2.457l-.111.112h-.224l-.112-.112v-.558l-.111-.112v-.782l-.112-.446-.223-.336-.112-.558v-.782l-.335-.223-.223.335-.112.112h-.223l-.112-.112-.223 1.228-.447 1.564-.112.112h-.112v-.112l.112-.223-.112-.224.112-.223.224-1.117.111-.335.112-.67v-.447l.112-.335-.335-1.898.111-.112-.447-.447-.111-.111.111-.224-.67-3.127h-.223v-.223l-.447-2.122v-.224l-.111-.223-.112-1.005-.223-1.787-.335-3.015-1.117-3.239-1.564-3.239-3.462-8.376-.112-.223-.111-.559zm8.823-1.452h.67l.782 5.026.335 1.675-.224-.447-.67-1.228-.446-.894-.67-1.005q-1.34-2.233-2.122-4.914h.111v-.111h2.792v1.005l-.782.446zm2.68 18.65-.111 2.458-.559-2.569-1.228-3.462-1.676-3.239-4.467-10.05-.558-1.453-.335-1.675.782-.223 2.233-.447.112-.112.335.894q1.005 3.015 2.233 4.802l.559.893.782 1.452.558 1.564.782 1.787.335 2.792.112 3.127.223 3.127v.335zm6.59 4.02v.224l-.559 1.005.558 1.452.112.223v.112l2.345 5.584v.223l-.223.112h-.223l-.112-.224-1.564-3.797.224 2.346v.335l-.112.223-.447.223.559.894v.223l-.112.224h-.223l-.224-.112-.446-.894-.224.112h-.111l-.559-.223-.223-.112v-.223l-.335-2.792h-.112l-.112 1.34-.111.223h-.112l-.112-.335.112-1.117.112-2.01h-.112l-.335-.223v.893l-.112 1.229-.335 1.117-.111.111-.224-.223.447-2.122v-.67l.112-.112v-.447l-.224-.223-1.117.335h-.223l-.558-3.127-.224-1.564v-.223l-.558-4.244-.112-2.68-.111-2.68-.894-6.366-.893-6.254v-.335h.446L54.5 39.2l3.797 23.23zm7.26-31.382-.112.112-7.371 3.462V34.62l-.112-.558-.223-.559 1.005-.558.67-.894q2.569-4.02 2.122-7.482l-.335-1.564-.558-1.563-.112-.224 2.68-1.898 4.133 9.716v.223l-.112.112zM35.514 40.54l1.564 1.229 1.34 1.563.224.67.335.559.67 1.005 1.34 1.898-1.229-2.792-.67-1.34-1.563-2.68-.447-.894h-2.792zm4.58 4.802h.111l-.112-.223zm-.335-1.005v.112l.112.112zm.112 7.818h.112l-.112-.112zM0 25.798v-3.462l.112-.447v-.223l.111-.335v-.335l.112-.67.223-1.452v-.112l.112-.223.223-.223h2.234l.223.111-.111.224L2.792 22l.223 3.574.112 1.34.335 1.899-.335.111h-2.01l-.224-.223-.781-1.452L0 26.133zM20.773 47.8l-.224.112-2.457 2.569-.223.111h-.112l-1.452 1.229h-.558l-3.127.67-.223.112h-.335l-.224-.224-1.898-5.36h-.112l-.223-.224-3.686-12.62.112-.223-.782-3.35.223-.336.112-.111-.112-.224-.223-.446-.112-.335-.335-.559-.335-1.228v-.224l-.111-.111v-.447l-.112-.223v-.447l.223-.223.112-.112.112.112 1.116-.112q8.265-.894 16.53-.335v.223l-.224.894-.335.893-.112.782-.223.893-.112.447-.223.112-.224.223v.67l.224 4.69-.112 7.818-.112 4.803z"/></svg>