<?xml version="1.0" encoding="UTF-8" standalone="no"?>
<!-- Created with Inkscape (http://www.inkscape.org/) -->

<svg
   width="92.05584mm"
   height="80.646538mm"
   viewBox="0 0 92.05584 80.646538"
   version="1.1"
   id="svg1"
   xml:space="preserve"
   xmlns="http://www.w3.org/2000/svg"
   xmlns:svg="http://www.w3.org/2000/svg"><defs
     id="defs1" /><g
     id="layer1"
     transform="translate(-48.562825,-116.98805)"><path
       style="fill:#000000"
       d="m 66.445465,197.46282 c -9.832183,-1.40086 -17.927582,-10.39884 -17.870803,-20.40251 -0.248152,-7.39109 3.464223,-14.06554 5.600857,-20.94763 2.437863,-6.35469 4.451179,-12.92656 7.378951,-19.0621 1.243981,-2.09633 4.919868,-1.47899 3.883223,-4.52312 l -1.1e-5,-5.29838 c -3.128237,-1.61712 -3.522275,-6.25086 -1.275744,-8.72796 3.672009,-2.46916 8.488616,-0.85101 12.661054,-1.28663 4.648155,-1.27311 9.526313,3.02903 7.141176,7.72099 -1.212192,1.62305 -3.092517,2.38025 -2.382348,4.73827 -0.0015,1.86065 -0.0031,3.72131 -0.0046,5.58196 2.591727,1.20493 3.704168,4.03636 4.048667,6.71401 4.232892,1.06149 3.86483,-3.857 7.252325,-4.8074 3.246056,-1.33951 6.691794,1.3186 7.132548,4.58301 1.09193,-0.33623 3.49404,0.9349 3.60994,-0.59875 -0.54745,-3.53685 4.08057,-4.39383 4.15027,-7.08356 v -6.69406 c -3.2066,-1.31206 -3.97609,-5.68346 -2.05462,-8.35416 3.45453,-3.04035 8.70789,-1.40452 12.95784,-1.84103 4.1149,-0.8775 9.14369,1.94661 7.74394,6.66861 -0.16557,2.32124 -3.37053,2.75457 -2.50758,5.24626 v 5.62378 c 3.84511,0.51808 4.91662,4.58375 6.008,7.6784 3.41648,9.58536 7.38522,18.99872 10.17943,28.79018 1.49775,7.16974 -0.18371,15.25617 -5.72038,20.3419 -7.71874,8.23043 -22.09721,8.00037 -29.78315,-0.14756 -5.037726,-4.88412 -6.659501,-12.20849 -5.927329,-19.00198 -0.724051,-2.34176 2.009949,-7.5149 0.213086,-8.50064 -3.007231,0.10582 -6.041236,-0.0761 -9.025293,0.32298 0.251317,5.61075 1.290537,11.56961 0.220424,17.2634 -1.989468,9.3635 -11.062497,16.35563 -20.600465,16.17173 -1.011944,0.0183 -2.026664,-0.0291 -3.029418,-0.16801 z m 7.072581,-5.41655 c 8.070024,-1.89132 13.81311,-11.1506 10.691861,-19.11032 -0.534624,-2.00926 -3.176996,-5.73402 -1.321423,-1.4578 3.116628,8.41694 -3.200889,18.91118 -12.377174,19.27543 -2.780884,0.4939 -5.922276,-1.28029 -8.204837,-1.37444 2.907848,2.73646 7.390997,3.52497 11.211573,2.66713 z m 51.635764,-0.55142 c 8.28533,-2.79618 12.75013,-13.71659 7.83264,-21.2108 -3.11623,-4.81683 1.05242,2.72231 0.49384,4.61178 1.29842,8.36835 -6.34226,16.65804 -14.8213,15.79871 -1.80192,0.57284 -9.04782,-3.314 -4.66492,0.0517 3.34514,1.86366 7.59178,2.09137 11.15974,0.74866 z M 58.761706,189.6046 c -5.424778,-6.10117 -6.592537,-16.17762 -0.986816,-22.56591 5.025376,-6.13492 14.434953,-7.34821 21.159861,-3.36892 1.584464,0.66139 6.172654,4.71039 2.7114,0.98262 -6.930594,-7.68037 -20.545832,-6.30904 -26.255016,2.15898 -5.540149,7.2316 -3.718957,19.05713 4.208553,23.78541 l -0.194774,-0.29145 z m 48.796684,-1.05834 c -3.55602,-5.4496 -5.07038,-12.83235 -1.63402,-18.72071 3.91937,-7.94767 14.6728,-10.68096 22.29502,-6.56491 1.90759,0.51469 7.33471,5.66898 3.23047,1.13106 -7.00052,-7.37015 -20.28375,-5.99022 -25.93241,2.33302 -5.14136,6.61964 -4.2125,17.27697 2.37537,22.54389 l 0.0238,-0.0956 z m -30.818828,-6.7749 c 4.925923,-2.03358 4.055987,-8.59343 1.144183,-11.95585 -2.871361,-3.61812 -8.931524,-5.35092 -12.722852,-2.30831 -4.481504,5.86667 0.741653,15.23184 7.974264,15.1013 1.245018,0.0114 2.49387,-0.27145 3.604405,-0.83714 z m 48.908968,0.48964 c 4.95446,-1.01826 5.63994,-6.92332 3.48215,-10.69469 -2.35726,-4.71344 -8.89956,-7.24313 -13.5392,-4.44466 -4.46234,4.74594 -1.25825,13.20099 4.70249,14.99648 1.71254,0.60058 3.61484,0.68132 5.35456,0.14287 z m -18.00979,-22.48853 c 5.382,-4.13599 12.70334,-4.59373 19.05,-2.76424 2.46341,-2.7732 -1.10249,-6.50351 -1.54145,-9.59951 -1.33398,-3.26128 -1.82395,-7.50969 -5.73729,-8.67446 -1.97162,-1.41886 -4.52528,-0.51729 -6.7851,-0.77834 -5.65496,-1.2726 -5.75585,5.2539 -6.48146,9.05649 -0.90529,5.47505 -2.19662,11.06076 -2.77158,16.47528 1.51023,-1.11163 2.67409,-2.67644 4.26688,-3.71522 z m -49.783727,-0.019 c 6.138506,-4.80095 14.913956,-4.71949 21.728717,-1.43548 1.371633,-1.00135 1.998003,-2.24345 1.350689,-3.897 -0.760393,-4.38248 -0.992367,-8.92411 -2.275827,-13.16054 -1.949465,-3.52571 -6.16302,-3.47384 -9.662728,-3.31573 -1.634713,0.0149 -3.500399,-0.40689 -4.42603,1.34835 -3.059,6.47336 -5.088125,13.41516 -7.694903,20.0906 -0.468082,1.3025 -0.740264,1.91094 0.980082,0.3698 z m 34.3056,-6.46291 v -6.87917 h 5.820833 c 0.652218,-2.07776 -1.267083,-1.58401 -2.689138,-1.5875 h -4.983779 v 15.34583 c 2.16378,0.65004 1.967068,-1.06041 1.852084,-2.68914 z m 3.571179,-12.16971 c -1.217636,-2.07804 -4.189052,0.9505 -0.460155,0.18607 z m -24.737845,-9.22692 c -0.73343,-2.5255 1.157423,-2.95696 3.403203,-2.66347 2.039477,0.42614 5.266205,-0.79942 1.293151,-0.79615 -2.270888,-0.0264 -4.542019,-0.01 -6.81302,-0.0146 v 5.82084 c 1.866664,0.42771 2.527676,-0.35024 2.116666,-2.2002 z m 42.333333,-0.16692 c -0.21696,-1.70632 -0.15559,-3.13482 1.95573,-2.51712 2.22652,0.29917 5.75018,-1.05411 1.57418,-0.77332 -1.88219,-0.008 -3.76439,-0.0112 -5.64658,-0.0168 v 5.82084 c 1.86666,0.42771 2.52768,-0.35023 2.11667,-2.2002 v -0.24447 z M 70.455471,123.9392 c -0.505526,-2.72353 1.598802,-2.12815 3.451964,-2.13677 1.792467,-0.15824 7.008741,0.52015 6.287936,-0.89309 -4.324397,-0.20183 -8.690513,-0.31453 -13.004975,0.0454 -2.988118,1.94913 1.381729,4.90244 3.265075,2.98445 z m 42.181059,0.10639 c 0.0989,-2.60056 1.90961,-2.35241 3.92771,-2.24045 2.11491,0.43122 9.16744,-0.87533 3.41617,-1.01944 -3.63116,0.48898 -8.6067,-1.22403 -11.39755,1.13175 -0.61341,2.47395 2.44378,3.08697 4.05367,2.12814 z"
       id="path1" /></g></svg>
