<?xml version="1.0" encoding="UTF-8" standalone="no"?>
<svg
   width="97.628654mm"
   height="65.346542mm"
   viewBox="0 0 97.628654 65.346542"
   version="1.1"
   xml:space="preserve"
   xmlns="http://www.w3.org/2000/svg"
   xmlns:svg="http://www.w3.org/2000/svg"><g
     transform="translate(-56.404805,-115.09376)"><path
       style="fill:#000000"
       d="m 64.29389,180.14859 c -4.164549,-2.10648 -1.835082,-7.62342 -2.568323,-11.33629 -0.09476,-7.97518 -0.140318,-15.95085 -0.209938,-23.92628 -3.21373,0.5262 -6.270366,-2.95135 -4.673926,-5.9943 0.325608,-3.2813 5.441413,-0.91881 4.806218,-3.8408 -0.779082,-3.37633 2.122169,-6.66024 5.556134,-6.19879 0.262617,-2.17211 -1.090406,-6.08231 2.271711,-6.01605 3.926499,-0.13872 7.858055,-0.0407 11.786855,-0.0694 0.947345,-1.04078 1.788202,-2.32837 3.390103,-1.85208 1.814654,0.11035 3.812385,-0.2213 5.512323,0.166 1.613797,0.9044 1.090562,4.56358 2.914889,1.66134 2.371965,-2.51453 4.67181,-5.09561 7.002464,-7.64818 4.89857,0 9.79713,0 14.6957,0 3.18931,3.62465 6.67531,7.02451 9.61405,10.84081 0.19866,2.01265 0.4137,3.56616 2.76616,2.91753 2.47248,0.6669 2.42516,-0.94143 2.21165,-2.98951 3.18768,-1.9787 7.86011,-0.60693 11.61601,-0.86352 2.96478,0.088 0.2362,4.8364 3.68546,3.97737 3.47951,0.3946 4.63593,4.19707 4.28833,7.20105 1.95128,0.35983 5.96832,1.81984 4.89425,5.27593 -0.32719,4.24384 -6.66221,2.01063 -5.07613,6.77127 -0.10376,9.65946 0.007,19.31942 0.0323,28.97904 -1.34257,3.28584 -5.05448,3.29105 -8.07627,3.14763 -25.21005,0.0977 -50.424136,0.18507 -75.63247,-0.14216 l -0.80794,-0.0606 z m 38.76132,-2.47446 c -3.099107,-0.33933 -5.672663,-2.40112 -8.394633,-3.44848 -10.298663,-0.0545 -20.597327,-0.10901 -30.89599,-0.16352 -0.251426,1.73444 0.337322,4.47287 2.48586,4.26612 13.150198,-0.012 26.300395,-0.0241 39.450593,-0.0361 -0.88194,-0.20599 -1.76389,-0.41199 -2.64583,-0.61798 z m 43.01659,-0.34133 c 1.41379,-1.60074 1.16641,-4.18783 -1.34092,-3.27691 -8.15925,0.038 -16.3185,0.0761 -24.47775,0.11415 -3.00447,2.28604 -6.71654,3.2321 -10.31875,4.12298 11.78849,-0.0321 23.57697,-0.0641 35.36546,-0.0962 0.25732,-0.28801 0.51464,-0.57601 0.77196,-0.86402 z m -33.2975,-2.1606 c 10.63598,-2.65388 18.07692,-14.50537 15.14559,-25.22286 -2.12116,-9.48387 -11.75397,-16.764 -21.51187,-15.64782 -11.165747,0.0349 -20.481481,11.13175 -19.307845,22.10618 0.356538,10.77207 10.588179,20.16039 21.390665,19.24474 1.43508,-0.0524 2.88305,-0.14295 4.28346,-0.48024 z m -8.92534,-3.05362 c -9.895009,-1.97536 -16.450945,-13.42331 -12.898962,-22.92432 2.713225,-8.4057 12.286452,-13.77234 20.872752,-11.56589 9.76303,1.883 16.19784,13.05268 12.99954,22.4597 -2.25493,7.72847 -10.28771,13.44215 -18.37877,12.33726 -0.86971,-0.051 -1.74098,-0.12718 -2.59456,-0.30675 z m 8.07323,-2.01023 c 4.48242,-1.18036 8.88378,-4.50339 10.02929,-9.14339 -1.48135,-0.0549 -3.40316,5.46265 -6.15638,6.24686 -7.58348,5.25596 -19.380775,1.11073 -21.99347,-7.73916 -2.033334,-6.16542 0.566724,-13.20233 5.749642,-16.98597 -3.549181,0.26211 -6.788677,6.05337 -7.355391,9.90313 -1.458368,7.49207 3.459295,15.26454 10.678129,17.48219 2.90617,0.96313 6.09681,1.06068 9.04818,0.23634 z m 0.52045,-14.46761 c 3.49954,-0.86352 1.1468,-5.50604 1.01764,-5.98677 6.07331,1.23697 2.92573,-8.99676 -1.38275,-4.57018 -2.60736,1.54771 2.67768,5.7468 -0.93077,3.70017 -6.47009,-0.55709 -4.49874,9.66706 1.29588,6.85678 z m 34.30245,5.35822 c 0.0147,-6.65937 7.8e-4,-13.32044 -0.24599,-19.97604 -2.48106,0.0678 -4.99212,-0.16899 -7.44941,0.1938 0.31935,1.60547 4.37404,-0.31532 4.88364,1.06948 0.0473,9.84253 -0.13355,19.69208 0.18859,29.52878 2.43426,0.94077 2.96833,-0.54054 2.59755,-2.55048 0.009,-2.75518 0.0171,-5.51036 0.0256,-8.26554 z m -65.407352,-0.0283 c 2.059944,-3.63226 -5.618288,-0.74156 -0.910362,0.18509 z M 135.93696,146.1673 c 0.5253,-0.94512 1.57365,-4.89354 -0.58579,-4.35062 -2.11928,-0.6028 -2.22818,0.81403 -1.99715,2.55499 -0.35857,1.49266 1.30326,2.88402 2.58294,1.79563 z m 15.20627,-4.27995 c 2.29374,-2.12715 -3.24979,-4.70974 -2.18281,-1.33773 -0.25388,1.88824 0.5071,2.65774 2.18281,1.33773 z m -89.759893,-1.2613 c 1.146311,-3.35225 -4.295063,-1.10947 -2.238953,1.16658 1.56917,1.07206 2.665429,0.81214 2.238953,-1.16658 z m 3.439584,0.63315 c -1.598452,-1.07071 -1.079799,1.44234 0,0 z m 20.108332,0.36242 c 2.871485,-0.10665 1.860712,-0.3537 -0.502967,-0.43667 -4.742826,-0.0351 -9.565118,-0.42716 -14.261771,0.1194 3.248898,1.06462 7.636873,0.28097 11.330529,0.45327 1.145146,-0.0299 2.291393,-0.0523 3.434209,-0.136 z m 44.185417,-0.20182 c -1.73314,-1.61083 -4.48415,1.29258 0,0 z m -36.726635,-3.7841 c 6.936529,-6.14172 17.598315,-7.5606 25.812605,-3.20914 2.48915,0.48238 5.18846,4.57394 6.6075,4.0872 -0.68966,-3.9203 -1.37663,-7.95883 -2.46212,-11.75042 -2.78761,-3.19783 -5.61397,-6.36154 -8.44489,-9.52101 -4.2578,-0.0107 -8.5156,-0.0213 -12.7734,-0.032 -2.999129,3.34574 -6.252844,6.48949 -8.919446,10.11226 -0.710536,3.91383 -1.828047,7.87123 -2.151192,11.79155 0.930414,-0.10419 1.570581,-1.02368 2.330943,-1.47844 z m 2.330801,-9.80954 c 2.247967,-2.73537 7.837184,-0.64333 11.398814,-1.29978 4.62297,0.0238 9.24593,0.0514 13.86889,0.0767 -0.14678,3.71914 -6.79208,1.17144 -9.4481,1.98383 -5.2732,0.001 -10.546404,2.9e-4 -15.819604,5.4e-4 0,-0.25378 0,-0.50756 0,-0.76134 z M 84.51649,138.574 c 1.21446,-0.30265 3.56131,0.7446 3.384863,-1.21612 -0.0342,-1.93398 2.255124,-5.74191 0.127846,-6.18307 -7.563098,-0.0609 -15.168745,-0.49432 -22.707553,0.0711 -2.55464,2.08587 -2.716465,9.26967 2.06157,7.47092 5.711263,-8e-4 11.422981,-0.0385 17.133274,-0.14288 z m 46.45226,-1.43541 c -0.81777,-4.72205 6.70036,-6.27239 7.81219,-1.69647 -0.12282,2.14825 -0.0508,3.7737 2.47066,3.22396 3.04098,0.42335 7.01977,0.65491 5.57536,-3.73706 0.49378,-5.21814 -5.81794,-3.72649 -9.06796,-3.95692 -4.01938,0.10914 -8.10067,-0.24958 -12.08192,0.30013 1.01826,2.7504 -0.12876,8.64688 4.34333,7.37007 1.45847,0.22632 0.81861,-0.48681 0.94834,-1.50371 z m 5.5703,1.70152 c 2.42035,-4.92272 -5.66366,-4.5862 -2.72608,-0.11624 0.89533,0.125 1.82515,0.23176 2.72608,0.11624 z M 80.962503,127.67809 c 1.05181,-2.74192 -0.148034,-3.13089 -2.486467,-2.79475 -2.958467,0.10653 -6.047939,-0.31056 -8.890616,0.36225 2.58198,1.57364 8.08306,-0.0408 9.642468,1.15974 -1.521396,1.8645 1.757128,3.74363 1.734615,1.27276 z m 8.409472,-1.67027 c -0.184989,-1.26595 0.602823,-3.53073 -1.483698,-2.84428 -1.470745,0 -2.94149,0 -4.412235,0 -0.05007,1.89618 -0.100133,3.79237 -0.1502,5.68855 2.040407,0 4.080815,0 6.121222,0 -0.02503,-0.94809 -0.05006,-1.89618 -0.07509,-2.84427 z m 51.121775,1.91822 c 0.29539,-1.77818 -2.38902,-0.57371 -3.52149,-0.92266 -1.62075,-0.21921 -8.05192,0.29081 -3.09821,0.75169 2.26859,-0.32336 4.81851,0.4775 6.50682,0.81265 l 0.11288,-0.64173 z" /></g></svg>
