<?xml version="1.0" encoding="UTF-8" standalone="no"?>
<!-- Created with Inkscape (http://www.inkscape.org/) -->

<svg
   width="93.696655mm"
   height="76.428558mm"
   viewBox="0 0 93.696655 76.428558"
   version="1.1"
   id="svg1"
   xml:space="preserve"
   xmlns="http://www.w3.org/2000/svg"
   xmlns:svg="http://www.w3.org/2000/svg"><defs
     id="defs1" /><g
     id="layer1"
     transform="translate(-57.577377,-114.30563)"><path
       style="fill:#000000"
       d="m 144.16622,189.7384 c 3.93776,-2.42939 3.44462,-8.00833 5.28424,-11.84759 0.81175,-3.56076 4.2059,-8.91606 -1.06814,-10.61066 -4.8086,-2.67117 -9.51222,-5.60678 -14.53279,-7.85504 -4.62424,1.59106 -5.08727,-5.13152 -8.21588,-6.91823 -1.33648,-3.4677 -2.59109,-7.18573 -2.58003,-11.29375 -0.76321,-6.62123 -1.47562,-13.25527 -2.39416,-19.85334 1.43139,-1.68377 4.83394,-6.37422 0.56835,-7.05416 -3.77313,1.428 -7.03502,5.51227 -11.91609,4.12984 -8.10944,-0.38226 -16.476989,-1.75242 -24.315993,1.15884 -2.874401,0.92543 -5.57499,2.28532 -8.280601,3.60762 -3.349819,-2.10856 -6.634655,-4.45624 -10.600147,-5.23857 -5.65195,-3.11921 -4.58451,4.59816 -4.453354,7.90174 0.110216,3.61906 8.893731,5.37971 3.655481,8.64857 -4.397428,5.02747 -5.651716,12.09263 -5.047579,18.56075 0.426277,3.15267 6.339407,7.50614 0.724464,8.8623 -5.556561,-0.51616 -3.713862,9.04875 1.088334,6.06294 4.276388,-0.84697 6.318386,-5.36751 11.112266,-4.54663 11.556818,-1.2777 23.086713,-2.86463 34.660749,-3.94382 0.70573,4.24979 5.20031,7.33741 9.38106,7.10052 3.89564,-4.04371 7.2394,3.04655 7.01518,6.78768 -0.61289,4.72392 3.10482,7.54566 6.65674,9.74397 3.66172,2.46211 6.955,5.52274 10.85538,7.59281 0.87251,-0.0926 1.64777,-0.58953 2.40247,-0.99576 z m -0.64019,-10.98688 c 0.49458,-1.24603 2.48823,-7.08629 1.38708,-2.97237 -0.32583,1.62387 -2.2767,8.54798 -1.52562,3.54349 z m 1.98924,-6.28863 c 0.73629,-2.77166 -2.96692,0.11538 -4.1497,-2.3105 -3.56402,-2.18617 -7.51534,-3.8995 -10.75814,-6.51828 0.97186,-5.82625 6.91077,-1.35982 9.88566,0.33315 2.47793,2.03814 8.85847,3.66384 8.86366,6.31299 -1.87318,0.001 -3.99378,2.92144 -3.9647,3.11517 l 0.12302,-0.93272 z m -86.244016,-8.54303 c 2.063382,-1.47062 8.077542,-3.11259 6.786659,-7.66693 -1.884213,-4.18463 -4.558986,-8.46984 -3.623825,-13.28479 0.523164,-5.74351 5.32924,-9.62967 9.620644,-12.83401 3.768932,0.94175 -4.196658,3.64788 -4.969535,5.94603 -4.633181,4.5692 -4.322654,11.95195 -1.198577,17.25568 2.710627,3.64131 0.786719,8.55432 -3.246377,10.1341 -0.978305,0.25716 -2.548877,1.60896 -3.368989,0.44992 z m 9.084134,-3.2036 c 1.54039,-5.28112 -3.878152,-9.22915 -3.250412,-14.26085 1.389053,-3.8922 4.509154,-7.2781 8.344324,-8.83651 4.578677,0.95031 8.274485,4.81237 12.519042,6.84749 7.298556,4.4995 14.802368,8.67417 22.046168,13.2525 -3.00848,1.00242 -7.59284,1.04199 -11.251808,1.62759 -9.461489,1.17115 -18.960754,2.08404 -28.394461,3.45333 -0.391959,-0.57941 0.03808,-1.45411 -0.01285,-2.08356 z m 45.928112,3.00649 c -1.67557,-4.73931 5.99383,0.73816 1.10259,0.396 l -0.70078,-0.22153 z m -2.4791,-1.70426 c -2.56095,-1.69045 -0.35978,-4.24368 0.80881,-1.15231 0.29881,0.87392 0.31739,2.69454 -0.80881,1.15231 z m 15.19286,0.88457 c -2.22822,-2.60013 -2.991,-5.96849 -6.87316,-6.36251 -1.74823,-0.3794 -6.00065,-4.37048 -1.75796,-2.29608 2.47222,2.80612 5.35938,0.19336 7.82361,0.14331 0.80332,2.53429 4.28797,4.92743 4.41397,6.8856 -0.73728,1.44541 -1.86131,3.27468 -3.60646,1.62968 z m -15.44781,-9.58767 c -0.31734,-2.75457 2.49202,2.03619 0,0 z m 4.31274,-3.10629 c -3.49754,-1.29216 -6.18987,-4.09243 -9.66936,-5.56898 -1.60083,-0.74731 -6.01924,-4.05186 -1.99129,-1.69995 5.50079,3.2178 11.13615,6.22113 16.54229,9.59169 -1.68988,-0.614 -3.25689,-1.55189 -4.88164,-2.32275 z m -3.57204,1.50631 c -2.69751,-2.32605 4.63671,-1.41438 0.95353,0.36726 l -0.38314,-0.0836 z m -7.12564,-3.19378 c -8.793949,-5.03816 -17.685128,-9.92282 -26.371937,-15.13867 -2.915972,-2.17434 -1.318208,-2.43049 0.936826,-0.70472 10.368588,5.82823 20.699271,11.72695 30.954041,17.75285 -0.24065,2.22171 -4.33242,-1.78772 -5.51893,-1.90944 z m 12.7529,1.19001 c -16.25767,-9.31651 -32.55877,-18.58605 -48.427788,-28.5512 -3.000559,-3.31446 3.574173,0.85613 4.712191,1.65817 15.649695,9.38742 31.353077,18.72252 47.451487,27.31934 2.19155,0.34879 3.42617,1.18827 0.43892,1.94581 -1.40565,-0.76537 -2.78471,-1.579 -4.17475,-2.37219 z m -6.55975,-6.45391 c -9.39914,-5.29727 -18.72583,-10.7213 -28.037555,-16.17029 6.249839,-2.74982 13.216971,-3.7259 19.998915,-2.96304 5.11824,0.44476 10.25889,0.006 15.22572,-1.30889 2.59562,2.16892 1.4576,8.77467 2.5287,12.64122 0.42195,4.62979 1.26038,9.26775 1.43544,13.89249 -3.82263,-1.76629 -7.43474,-4.08055 -11.15123,-6.09147 z m -10.90682,-2.17813 c -5.343545,-2.83827 -10.709471,-5.59475 -15.844716,-8.86964 -4.619915,-2.96244 -9.580459,-5.42436 -14.018181,-8.64893 2.336599,0.29781 7.238335,4.16104 10.459555,5.8024 6.856394,4.27374 14.034268,8.04242 20.800442,12.44578 -0.49857,-0.17607 -0.94379,-0.46476 -1.39691,-0.72995 z M 69.297254,126.00786 c 1.296275,-0.26219 1.5555,2.17485 0,0 z m -1.929217,-3.33392 c -0.990421,-1.532 -6.923942,-5.93967 -1.957651,-4.01264 2.029849,0.59759 4.177373,5.27354 3.868358,6.07572 -0.666047,-0.66004 -1.289012,-1.36168 -1.910707,-2.06308 z m 10.82037,1.65986 c 2.654111,-3.05816 8.987551,-4.23481 13.364045,-5.2382 7.704985,-1.09871 15.530858,1.23011 23.210018,-0.0577 2.99513,0.38234 5.44825,-5.28273 7.40123,-3.16261 -3.1943,1.97678 -6.21734,4.79207 -10.37481,4.34143 -7.12652,0.52214 -14.350414,-1.29346 -21.400841,0.14286 -4.276205,0.43765 -8.357815,3.41881 -12.199642,3.97425 z m -12.328209,-1.46253 c -2.55451,-2.22575 0.450064,-1.27865 0.946389,0.47677 l -0.364983,-0.14526 z"
       id="path1" /></g></svg>
