<?xml version="1.0" encoding="UTF-8" standalone="no"?>
<!-- Created with Inkscape (http://www.inkscape.org/) -->

<svg
   width="99.391441mm"
   height="77.771767mm"
   viewBox="0 0 99.391441 77.771767"
   version="1.1"
   id="svg1"
   xml:space="preserve"
   xmlns="http://www.w3.org/2000/svg"
   xmlns:svg="http://www.w3.org/2000/svg"><defs
     id="defs1" /><path
     style="fill:#000000"
     d="m 40.778479,71.60165 c 2.506544,0.3184 5.058441,-0.14926 6.525463,-1.19585 0.512602,-0.3657 0.635959,-0.3274 2.001404,0.62134 1.880804,1.30682 5.849104,3.03672 9.204034,4.01232 5.72336,1.66432 10.11506,1.62545 13.25244,-0.11731 1.18772,-0.65976 1.28033,-0.78063 3.97357,-5.18705 l 2.75752,-4.51157 1.62449,0.89044 c 2.30039,1.26104 2.8175,1.73453 2.49804,2.28786 -0.14534,0.25173 -0.13351,0.94563 0.0263,1.54198 0.23621,0.88153 0.17989,1.27593 -0.30117,2.10915 -1.21569,2.10563 -0.72133,3.52157 1.71625,4.91567 1.76925,1.01224 2.93199,1.06284 4.09117,0.17902 1.09134,-0.83208 11.02545,-18.04563 11.20057,-19.40796 0.21167,-1.64701 -0.3326,-2.52487 -2.2528,-3.6335 -1.51968,-0.87739 -1.78995,-0.95017 -2.76983,-0.7458 -0.89703,0.18709 -1.24344,0.44062 -1.99235,1.45815 -0.75808,1.02997 -1.0271,1.22387 -1.64278,1.18397 -0.55465,-0.0359 -0.8754,0.1528 -1.30042,0.76522 l -0.56415,0.81294 -2.27752,-1.31493 -2.27753,-1.31493 1.68153,-2.92448 c 1.89856,-3.30241 2.15257,-4.36075 1.54007,-6.42771 -0.48956,-1.65202 -1.3957,-2.73074 -3.13969,-3.73764 l -1.49674,-0.86414 0.52917,-0.91655 c 0.59227,-1.02584 0.46471,-2.03581 -0.35774,-2.83253 -0.35412,-0.34304 -0.43006,-0.70852 -0.25484,-1.22649 0.13729,-0.4058 0.0763,-1.24929 -0.13548,-1.87441 l -0.38507,-1.13659 -7.54554,-4.35642 -7.54554,-4.35642 -1.19628,0.23868 c -0.65795,0.13128 -1.42398,0.48818 -1.70231,0.79312 -0.35941,0.39378 -0.77128,0.5071 -1.42139,0.39107 -0.99894,-0.1783 -1.89696,0.31253 -2.50792,1.37074 l -0.39065,0.67663 -10.27545,-5.93253 c -9.984598,-5.76461 -10.294843,-5.92641 -10.95491,-5.7138 -0.655898,0.21129 -0.970318,0.0508 -9.121834,-4.65546 l -8.442509,-4.8742898 0.704545,-1.22031 c 1.0779,-1.86697 0.810776,-2.42504 -1.988043,-4.1533 -2.184193,-1.34868997 -2.234459,-1.36558997 -3.136528,-1.04967997 -0.671304,0.23507 -1.075048,0.5952 -1.507968,1.34503997 -0.500155,0.86629 -0.693127,1.00753 -1.253092,0.917 -0.364035,-0.0589 -1.042949,0.0455 -1.508701,0.23188 -0.797527,0.31918 -0.994875,0.59536 -3.3908195,4.74526 -2.39129,4.1418298 -2.53621,4.4602398 -2.414842,5.3038998 l 0.129159,0.89758 -0.783914,0.23649 c -0.744536,0.22462 -0.916568,0.46627 -3.424858,4.81075 -2.88755005,5.00139 -2.97552705,5.29017 -2.05083105,6.73299 0.39409,0.61489 2.22015905,1.73833 12.05524555,7.41662 12.682041,7.32198 12.780165,7.3926 11.819128,8.50509 -0.659123,0.76301 0.0385,1.39605 4.162062,3.77679 l 3.637368,2.10004 -2.409283,4.3374 c -2.302597,4.14521 -2.4156,4.41114 -2.551651,6.00215 -0.198693,2.32358 0.464118,4.89244 1.763644,6.83544 l 1.078947,1.61319 4.552423,2.71148 c 4.340625,2.58539 4.626639,2.72096 6.148542,2.91424 z m 0.208103,-3.94034 c 1.133589,0.25394 3.313993,-0.0861 4.249653,-0.66268 0.91226,-0.5622 0.927572,-0.56128 0.413683,0.0246 -0.778218,0.88727 -1.787971,1.27236 -3.543519,1.3912 -2.153504,0.14577 -2.182083,-0.99109 -1.119832,-0.75312 z m -9.053799,-5.01695 c -1.071825,-1.47902 -1.3275,-2.67582 -0.992004,-4.64332 0.426695,-2.50221 0.494305,-2.69814 0.858546,-2.48784 0.205317,0.11854 0.195317,0.66634 -0.02622,1.43605 -0.503398,1.749 -0.293766,3.48388 0.608579,5.03663 0.760023,1.30787 0.835002,1.36678 4.259533,3.34675 4.287226,2.47869 3.129351,2.87449 -0.512853,0.56565 C 33.289416,64.09862 32.712278,63.72 31.932783,62.64436 Z m 1.625785,-1.92368 c -0.260432,-0.5334 -0.469032,-1.51309 -0.46354,-2.17708 0.0092,-1.10917 0.17899,-1.5007 2.089806,-4.81833 l 2.080131,-3.6109 3.760915,2.17137 3.76092,2.17137 0.152004,1.37001 c 0.177212,1.59728 -0.236639,2.47391 -1.878104,3.97825 -1.075975,0.98608 -1.104836,1.03945 -0.860774,1.5921 0.408336,0.92474 1.321577,1.25996 3.097708,1.13708 l 1.666439,-0.1153 -0.434326,0.75027 c -0.803858,1.38633 -1.958699,2.28085 -3.396429,2.62991 l -1.396934,0.33916 -3.851779,-2.22382 C 34.254798,61.8191 34.005557,61.63501 33.559304,60.72111 Z m 43.923152,0.0676 C 84.11398,49.45947 84.31024,49.09374 84.39621,47.90056 84.5598,45.63002 86.37928,46.86721 61.51169,32.33975 41.797817,20.82305 39.15035,19.33024 38.884663,19.58154 c -0.165519,0.15649 -0.045,-0.11766 0.267683,-0.60924 l 0.568569,-0.89379 22.701335,13.10662 22.70129,13.1066 0.52735,1.06825 c 0.29004,0.58754 0.50565,1.56581 0.47914,2.17393 -0.0457,1.04923 -0.38318,1.68587 -6.61061,12.47209 -4.6142,7.99203 -6.72492,11.47071 -7.10995,11.71762 -0.4394,0.28183 -1.63669,0.79121 -1.73193,0.73682 -0.012,-0.007 3.04987,-5.25933 6.80417,-11.67217 z m 14.34343,5.91713 4.89691,-8.56869 -0.34289,-0.67979 c -0.23747,-0.47082 -0.679,-0.82642 -1.43631,-1.1568 -0.94408,-0.41184 -1.06013,-0.5347 -0.84976,-0.89907 0.32767,-0.56753 1.19904,-0.50301 2.37484,0.17584 1.89368,1.09331 2.08079,0.57347 -3.99274,11.09313 -3.38121,5.85643 -5.39759,9.16351 -5.45539,8.94717 -0.0539,-0.20183 1.92498,-3.87179 4.80532,-8.9118 z M 67.31964,53.09887 c 1.2387,-2.15548 1.33205,-2.87028 0.5345,-4.11471 C 67.17,47.91668 52.63572,39.52118 51.3702,39.46254 c -0.46804,-0.0217 -0.97937,0.0611 -1.136308,0.18412 -0.15693,0.12297 -0.16872,0.003 -0.02626,-0.2669 0.142478,-0.26977 0.589378,-0.56168 0.993108,-0.6487 0.68603,-0.14785 1.24087,0.1284 8.4835,4.22382 4.26223,2.41011 8.0457,4.63364 8.40727,4.94193 0.36178,0.30794 0.79021,1.05415 0.95207,1.65825 l 0.29431,1.09834 -1.54772,2.67272 c -1.0485,1.81008 -1.55538,2.52041 -1.57143,2.20076 -0.013,-0.25958 0.48238,-1.35214 1.10092,-2.42793 z M 38.168995,37.69993 c -0.481705,-0.32985 0.506858,0.17463 2.196839,1.12098 1.689966,0.94637 2.980553,1.77059 2.867969,1.83159 -0.188465,0.10213 -2.980072,-1.52526 -5.064808,-2.95257 z m 2.814537,-0.11652 -3.134275,-1.97552 3.177968,1.77164 c 3.465944,1.93213 3.654374,1.94658 3.411878,0.26143 -0.174871,-1.21529 -0.87099,-2.2183 -1.986587,-2.86239 -0.962838,-0.55589 -2.59737,-0.7929 -2.81914,-0.40879 -0.06826,0.11823 0.86177,0.8291 2.066723,1.57972 l 2.190827,1.36475 -2.58639,-1.42928 c -1.814142,-1.00259 -2.670243,-1.3637 -2.867302,-1.20961 -0.174558,0.13655 -0.203991,0.0706 -0.07767,-0.17415 0.289099,-0.56014 1.96547,-1.10856 2.980232,-0.97496 1.214506,0.1599 2.874363,1.41546 3.403828,2.57476 0.600045,1.31383 0.375165,3.2246 -0.496561,4.21931 l -0.66712,0.76122 0.26892,-0.76128 0.268911,-0.76129 z M 9.7867185,18.43943 10.5453,16.96793 l 9.638499,5.56479 9.638499,5.56479 -1.195515,0.78015 c -0.657541,0.42908 -1.411311,0.817 -1.675052,0.86204 -0.406993,0.0695 -7.587196,-3.86105 -17.3508005,-9.49807 -0.542651,-0.3133 -0.532835,-0.40833 0.185762,-1.80221 z m -3.871279,-1.86846 c 0.36744,-0.63643 0.863252,-1.20944 1.101788,-1.27336 0.238549,-0.0639 0.928646,0.16954 1.533565,0.51879 l 1.099852,0.635 -0.7717,1.33662 c -0.424435,0.73515 -0.83946,1.35479 -0.922295,1.37699 -0.08278,0.0222 -0.726299,-0.29204 -1.429936,-0.69828 L 5.2473695,17.7281 Z M 86.62356,59.3429 c 0.48264,-0.83596 0.58734,-0.8941 1.01165,-0.56161 0.82074,0.64316 -0.18696,2.28105 -1.08452,1.76285 -0.39161,-0.2261 -0.38004,-0.4167 0.0729,-1.20122 z m -1.84229,-1.0424 c 0.44097,-0.76378 0.60555,-0.87244 0.98744,-0.65196 0.38189,0.22049 0.37008,0.41735 -0.0709,1.18113 -0.44097,0.76379 -0.60555,0.87245 -0.98744,0.65196 -0.3819,-0.22048 -0.37008,-0.41734 0.0709,-1.18113 z m -2.08085,-0.43828 c 0.10335,-0.65207 0.91234,-1.35658 1.30046,-1.1325 0.25179,0.14537 0.20775,0.44596 -0.1582,1.07981 -0.36719,0.636 -0.60394,0.82245 -0.85802,0.67576 -0.19299,-0.11142 -0.3209,-0.3918 -0.28424,-0.62307 z M 16.123449,7.3568502 l 0.79375,-1.37481 10.081973,5.8208298 c 7.448563,4.30043 10.042232,5.88968 9.929762,6.08449 -0.08373,0.14501 -0.873081,0.50018 -1.754118,0.78926 l -1.601899,0.52561 -9.121603,-5.2353 -9.121595,-5.2352998 z m -3.87544,-1.75422 c 0.927805,-1.607 1.11652,-1.67173 2.516909,-0.86321 l 1.235731,0.71345 -0.79375,1.37481 -0.79375,1.37482 -1.374815,-0.79375 -1.374815,-0.79375 z m 6.469522,-2.55282 c -1.276157,-0.73679 -1.65567,-1.05497 -1.46317,-1.22665 0.350073,-0.31223 3.150264,1.13276 3.375734,1.74197 0.09674,0.26137 -0.05159,0.80082 -0.347973,1.26557 l -0.516528,0.81005 0.337537,-0.79805 0.337531,-0.79804 z M 62.56927,27.45108 c 0.0861,-0.14917 3.53114,1.73318 9.87057,5.39325 6.33942,3.66007 9.69207,5.70242 9.60597,5.85154 -0.0861,0.14916 -3.53113,-1.73319 -9.87056,-5.39326 -6.33943,-3.66007 -9.69212,-5.70233 -9.60598,-5.85153 z m 17.83842,7.8549 c -0.0209,-0.60215 -0.26976,-0.76678 -7.2655,-4.80578 -6.41303,-3.70256 -7.18843,-4.20278 -6.76021,-4.36127 0.7432,-0.27507 14.52978,7.70502 14.75345,8.53973 0.15571,0.58111 -0.21881,1.53218 -0.53211,1.3513 -0.0957,-0.0553 -0.18374,-0.38105 -0.19563,-0.72398 z"
     id="path1" /></svg>
