<?xml version="1.0" encoding="UTF-8" standalone="no"?>
<!-- Created with Inkscape (http://www.inkscape.org/) -->

<svg
   width="49.444691mm"
   height="88.488602mm"
   viewBox="0 0 49.444691 88.488602"
   version="1.1"
   id="svg1"
   xml:space="preserve"
   xmlns="http://www.w3.org/2000/svg"
   xmlns:svg="http://www.w3.org/2000/svg"><defs
     id="defs1" /><g
     id="layer1"
     transform="translate(-85.444605,-104.74686)"><path
       style="fill:#000000"
       d="m 121.45737,192.01252 c -1.94392,1.03434 -4.61547,1.49756 -6.09473,1.05627 -1.04158,-0.31058 -2.38581,-1.65332 -2.56169,-2.55885 -0.18275,-0.941 0.35102,-2.3124 1.27076,-3.26484 l 0.7182,-0.74371 -1.18794,-4.1356 c -0.65326,-2.27458 -1.25698,-4.20216 -1.34123,-4.28356 -0.0843,-0.0814 -0.32056,-0.0699 -0.52507,0.0254 -0.20449,0.0953 -0.78145,0.0509 -1.28214,-0.0989 -0.72898,-0.21809 -0.96347,-0.40716 -1.177,-0.9491 -0.2283,-0.57947 -0.39393,-0.6785 -1.15242,-0.68891 -1.23837,-0.0171 -2.71013,-1.43 -2.77,-2.65933 -0.0495,-1.01628 -0.1735,-1.17662 -0.93028,-1.20289 -0.75539,-0.0262 -1.91972,-0.70825 -1.66298,-0.97411 0.10896,-0.11255 0.0244,-0.27868 -0.18766,-0.3687 -0.673,-0.28576 -0.52036,-2.32609 0.23234,-3.1055 0.75804,-0.78497 0.78106,-0.71529 -0.38722,-1.17135 -1.68846,-0.65908 -2.21947,-2.23405 -1.31521,-3.90089 0.6878,-1.26792 1.00617,-1.54317 2.92309,-2.52764 0.9286,-0.47689 1.66695,-0.9459 1.64073,-1.04231 -0.0274,-0.0959 -1.74906,-3.8124 -3.82851,-8.25785 -9.265543,-19.80752 -15.994566,-35.20791 -16.353657,-37.42779 -0.09369,-0.57915 -0.01773,-1.68619 0.168839,-2.46012 0.298897,-1.24022 0.524536,-1.59896 1.902009,-3.02431 1.451729,-1.50219 1.730271,-1.67932 3.917614,-2.49081 4.190752,-1.55469 6.406481,-1.33913 8.369922,0.81435 1.033573,1.13369 1.202453,1.56946 2.694383,6.95381 3.19662,11.53689 6.78828,27.61938 9.06877,40.60748 0.18793,1.07048 0.41022,2.01248 0.49396,2.09335 0.0838,0.0808 0.44982,-0.16143 0.8137,-0.53791 1.5367,-1.59127 3.41231,-1.63359 6.45762,-0.14567 0.91736,0.44822 1.84718,0.79047 2.06628,0.76058 0.21907,-0.03 1.91175,-0.70327 3.76159,-1.49616 2.00989,-0.86158 3.46936,-1.33927 3.62698,-1.18689 0.23531,0.22717 1.08053,1.69995 5.06197,8.8198 0.61203,1.09447 1.05965,2.04807 0.99463,2.11912 -0.0645,0.0712 -1.68459,0.79163 -3.59921,1.60138 l -3.48114,1.47218 -1.19788,2.43028 c -1.56175,3.16855 -3.20838,5.16177 -5.65657,6.84726 -2.1959,1.51173 -2.12494,1.091 -0.82992,4.9204 l 0.84549,2.50012 1.19361,0.39173 c 1.71681,0.56342 2.57114,1.48411 2.67426,2.88191 0.0775,1.05029 -0.0126,1.25037 -1.12582,2.49896 -0.68369,0.76684 -1.66167,1.59758 -2.24817,1.90963 z m -4.82304,-2.6818 c -0.15987,-0.57937 -0.3293,-1.08985 -0.37597,-1.13452 -0.18675,-0.18033 -0.93811,0.83458 -1.01111,1.36579 -0.0638,0.46408 0.0517,0.6239 0.6297,0.87145 0.94038,0.40273 1.10636,0.16094 0.75694,-1.10259 z m 6.66114,-19.21037 c 0.52597,-0.93209 1.20031,-2.38751 1.49856,-3.2343 0.48662,-1.38176 0.62073,-1.56826 1.30845,-1.81931 1.90948,-0.69718 4.08149,-1.73773 4.13438,-1.98076 0.0321,-0.14688 -0.14329,-0.57009 -0.38977,-0.94053 -0.24625,-0.3705 -0.94923,-1.62251 -1.56222,-2.78224 l -1.11442,-2.10863 -2.2721,0.85349 c -1.24975,0.46909 -2.32172,0.90483 -2.38227,0.96794 -0.0604,0.063 0.12241,0.33862 0.40628,0.61311 1.08725,1.04992 -0.60427,0.52927 -3.29322,-1.01421 -3.71134,-2.13005 -3.94002,-2.11257 -6.81882,0.52139 -1.21452,1.11127 -2.81208,2.52384 -3.55002,3.13912 l -1.34186,1.1186 -0.26025,2.27328 c -0.14314,1.25027 -0.48785,2.80389 -0.766,3.45244 -0.59795,1.39425 -0.49915,1.70417 0.53735,1.68612 0.57495,-0.01 1.00737,-0.25749 1.69642,-0.97134 1.07566,-1.11385 1.56398,-2.22673 1.67068,-3.80749 0.0559,-0.82839 0.19171,-1.1419 0.50977,-1.1771 0.53162,-0.0588 3.30647,-2.11396 3.39343,-2.51329 0.0344,-0.15852 0.13285,-0.22068 0.21833,-0.13829 0.0857,0.0827 0.0974,0.42503 0.0259,0.76062 -0.14778,0.69431 0.86309,1.83713 2.09559,2.36894 1.03071,0.44482 3.00202,0.41353 4.22828,-0.0671 0.6376,-0.24999 1.01206,-0.27215 0.9653,-0.0575 -0.12031,0.55265 -1.82479,2.17893 -2.53743,2.42099 -0.9876,0.33551 -2.59752,0.35689 -2.93325,0.039 -0.16506,-0.1565 -0.48906,-0.32328 -0.71982,-0.37081 -0.29745,-0.0613 -0.076,0.96747 0.76074,3.53451 0.6492,1.99153 1.30576,3.76233 1.45911,3.93513 0.61329,0.69154 3.52295,-2.02705 5.03246,-4.70182 z m -11.97328,2.64331 c -0.0242,-0.49779 -0.10503,-0.89433 -0.17953,-0.88118 -0.0745,0.0131 -0.77563,0.37934 -1.55772,0.81448 -1.17384,0.65255 -1.40491,0.86193 -1.32296,1.19919 0.14496,0.59631 0.47067,0.68398 1.63284,0.43949 1.31527,-0.27666 1.4816,-0.45987 1.42744,-1.57189 z m -5.98172,-2.98919 c 0.25099,-0.59109 -0.28645,-0.9957 -0.72263,-0.54401 -0.24509,0.25374 -0.2407,0.50319 0.013,0.74824 0.41912,0.40473 0.45545,0.39427 0.70955,-0.2043 z m 0.83303,-6.43986 c 0.2501,-0.73035 0.40494,-1.3828 0.34407,-1.44989 -0.0607,-0.0671 -0.60361,0.2709 -1.20593,0.75144 -0.60233,0.4804 -1.32866,1.02034 -1.61393,1.20005 -0.39238,0.24733 -0.43565,0.40686 -0.17726,0.65639 0.30579,0.29531 1.88799,0.49132 2.11001,0.26139 0.0487,-0.0502 0.29295,-0.68899 0.54307,-1.41934 z m -4.65657,-22.41074 c -1.38391,-4.17089 -4.120636,-12.16282 -6.081702,-17.75985 -3.425667,-9.77717 -3.554463,-10.23031 -3.283155,-11.54979 0.299854,-1.45842 1.246566,-2.70768 2.497702,-3.29601 1.196943,-0.56282 0.356063,-0.63362 -1.120366,-0.0944 -3.10529,1.1345 -5.030236,2.95605 -4.999277,4.73142 0.02285,1.30811 5.340282,13.88346 12.427388,29.38973 1.10228,2.4117 2.16662,4.85895 2.36609,5.43798 0.19892,0.57925 0.41358,1.1025 0.47634,1.163 0.4342,0.41928 -0.0716,-1.35816 -2.28266,-8.02225 z"
       id="path1" /></g></svg>
