<?xml version="1.0" encoding="UTF-8" standalone="no"?>
<!-- Created with Inkscape (http://www.inkscape.org/) -->

<svg
   width="73.598244mm"
   height="101.76546mm"
   viewBox="0 0 73.598244 101.76546"
   version="1.1"
   id="svg1"
   xml:space="preserve"
   xmlns="http://www.w3.org/2000/svg"
   xmlns:svg="http://www.w3.org/2000/svg"><defs
     id="defs1" /><g
     id="layer1"
     transform="translate(-76.32238,-97.798117)"><path
       style="fill:#000000"
       d="m 149.40401,191.64085 c -0.15309,-0.0824 -2.13186,-2.89977 -4.39727,-6.2609 -2.2654,-3.36114 -5.14207,-7.59075 -6.3926,-9.39917 l -2.27369,-3.28802 -0.23148,1.16019 c -0.20099,1.00735 -0.87256,2.41565 -1.2581,2.63824 -0.35036,0.20229 -0.35651,-0.5239 -0.0129,-1.53787 1.80874,-5.33864 -1.50905,-12.324 -7.9209,-16.67686 -1.09963,-0.74652 -2.28344,-1.43344 -2.63069,-1.52647 -0.66976,-0.17947 -0.91252,-0.3593 -3.86922,-2.86619 -2.76537,-2.34466 -4.18249,-4.00718 -5.11213,-5.99737 -0.82447,-1.76505 -1.63372,-2.55263 -2.83333,-2.75748 -0.29191,-0.0498 -0.72249,-0.42274 -0.95686,-0.82867 -0.72995,-1.26431 -1.32281,-5.50245 -0.81175,-5.80287 0.10148,-0.0597 0.0613,-0.17478 -0.0894,-0.25583 -0.45811,-0.24648 -1.58304,0.57092 -2.39799,1.74243 -1.52582,2.19342 -0.9898,5.01579 1.79502,9.45146 0.85172,1.35663 1.89387,3.02338 2.3159,3.7039 0.62474,1.00749 0.74997,1.11599 0.67384,0.58425 -0.18863,-1.31771 0.57527,-0.69517 1.57911,1.28694 0.85852,1.69516 1.00515,2.29172 1.25716,5.11493 0.37386,4.18817 0.58334,4.73995 2.26619,5.96902 1.76816,1.29138 3.03918,2.81823 4.60797,5.53546 0.98178,1.70049 1.56607,2.45734 2.42324,3.13886 1.82585,1.45169 2.24139,2.51396 1.7747,4.53674 -0.23506,1.01878 -0.23579,1.01746 2.09599,3.76877 1.35927,1.60384 2.93988,4.45382 3.08157,5.55632 0.10361,0.80614 -0.36902,2.2096 -0.98799,2.93382 -0.072,0.0843 0.65962,1.82773 1.62584,3.87439 1.63277,3.45855 1.72441,3.73988 1.29849,3.98579 -0.51945,0.2999 -0.35314,0.55456 -2.77331,-4.24654 l -1.56751,-3.1096 -2.10445,0.50712 c -1.7938,0.43226 -2.37946,0.43409 -3.9674,0.0123 -1.50111,-0.39866 -2.13022,-0.74257 -3.23908,-1.77068 -0.75688,-0.70176 -1.75375,-1.78246 -2.21528,-2.40156 l -0.83912,-1.12564 -1.43737,0.48681 c -1.72334,0.58365 -3.5075,0.63197 -4.67181,0.12651 -1.09843,-0.47685 -2.38755,-2.61797 -2.31795,-3.8499 0.0563,-0.99589 -0.002,-1.12676 -0.39925,-0.89739 -0.16743,0.0967 -0.9559,0.1357 -1.75217,0.0867 -1.87088,-0.11506 -2.99139,-0.87315 -3.78889,-2.56336 -0.5577,-1.182 -0.61201,-1.91242 -0.32641,-4.39039 0.0337,-0.29222 -0.28528,-0.49334 -1.07136,-0.67554 -1.882582,-0.43635 -2.962312,-1.65622 -3.217973,-3.63563 -0.159537,-1.23518 0.252964,-3.12565 0.907251,-4.15787 l 0.460096,-0.72586 -1.500607,0.007 c -1.892659,0.009 -4.022259,-0.66896 -4.939219,-1.57208 -1.496328,-1.47375 -1.589691,-4.66519 -0.200101,-6.84001 0.69325,-1.08498 2.819415,-2.54565 4.012904,-2.75684 l 0.623692,-0.11036 -5.39651,-9.35463 C 83.095709,130.51033 80.01749,123.65234 77.781746,114.11954 76.637178,109.23932 75.985338,101.40522 76.501599,98.734228 l 0.180935,-0.936111 0.858802,0.650689 c 1.493891,1.131875 6.02596,6.019164 8.476538,9.140934 4.060828,5.17304 8.890483,12.50633 16.634056,25.25697 3.79455,6.24813 4.25874,6.92811 4.50383,6.59753 0.1503,-0.20272 0.74792,-0.78173 1.32807,-1.2867 0.8811,-0.76694 1.18725,-0.91065 1.85904,-0.87269 1.21751,0.0688 1.65983,0.72823 2.32101,3.46027 0.48814,2.01699 0.76123,2.68159 1.50307,3.65781 0.4986,0.65614 1.46802,2.10614 2.15427,3.22224 2.009,3.26739 4.51713,5.57723 9.05631,8.34033 6.20877,3.77944 10.02551,8.4296 10.88453,13.2613 0.3301,1.85674 -0.0444,1.22741 5.90125,9.91663 5.78866,8.45977 8.03014,12.05537 7.73112,12.40161 -0.11664,0.13512 -0.33738,0.17816 -0.49044,0.0958 z m -23.06,-3.96021 c 0.0824,-1.45784 -1.71896,-2.12225 -2.47102,-0.91143 -0.73473,1.18292 0.67188,2.69898 1.865,2.01013 0.34392,-0.19856 0.57927,-0.62524 0.60602,-1.0987 z m -4.54016,-5.00744 c 0.82137,-0.713 1.69072,-1.54991 1.93189,-1.85979 0.42083,-0.54077 0.41764,-0.55218 -0.0796,-0.28368 -0.32789,0.17706 -0.78622,0.10787 -1.24859,-0.18847 -0.66454,-0.42589 -0.72008,-0.53428 -0.61475,-1.19957 0.12244,-0.77313 1.70005,-2.3288 2.48835,-2.45375 0.2441,-0.0387 0.65746,0.0965 0.91854,0.3005 0.47224,0.36892 0.47325,0.36817 0.19461,-0.14781 -0.17089,-0.31638 -0.61068,-0.53734 -1.12787,-0.56656 -0.89802,-0.0507 -2.53152,0.70184 -10.18299,4.69146 l -3.8466,2.0057 -0.1054,0.79477 c -0.11712,0.88319 0.72241,2.5897 1.51674,3.08307 0.55013,0.3417 2.01187,0.33797 3.19414,-0.008 1.36542,-0.39974 5.41085,-2.82164 6.96148,-4.16769 z m 3.47815,-4.89855 c -0.39068,-0.52567 -0.48864,-0.51696 -1.61154,0.14348 -1.29688,0.76273 -1.60477,1.28715 -1.02944,1.75316 0.29145,0.23606 0.64654,0.12832 1.7123,-0.51955 1.31065,-0.79677 1.33408,-0.83154 0.92868,-1.37709 z m -5.135,-1.85419 c -0.2828,0.0923 -0.77819,0.25308 -1.10082,0.35747 -0.35221,0.11398 -0.9321,-0.0477 -1.45134,-0.40465 l -0.86475,-0.59444 0.36127,-0.95425 c 0.31911,-0.84288 0.51572,-1.02065 1.68461,-1.52325 0.72784,-0.31295 1.48279,-0.59427 1.67766,-0.62516 0.96374,-0.15275 1.58971,1.42596 0.96796,2.44121 -0.22785,0.37207 -0.27508,0.60163 -0.10494,0.51012 0.51393,-0.2764 0.89843,-2.23961 0.5551,-2.83428 -0.68186,-1.18102 -2.59945,-1.00653 -6.07968,0.55323 -2.59819,1.16445 -4.35391,1.72267 -7.08859,2.25379 -2.04729,0.39761 -2.40958,0.61258 -2.9444,1.74706 l -0.43319,0.91889 0.1356,-0.82346 c 0.0746,-0.4529 0.18606,-0.93762 0.24771,-1.07717 0.0617,-0.13952 -0.26553,-0.18179 -0.72707,-0.0939 -1.06917,0.20359 -1.49548,1.13712 -1.36112,2.98056 0.19417,2.66389 2.34118,3.92222 5.13981,3.01237 0.75166,-0.24438 2.60104,-1.04472 4.10974,-1.77857 2.86577,-1.39394 8.16729,-4.35606 7.27644,-4.06558 z m 1.0108,-2.2361 c -0.0317,-0.98371 -0.74727,-1.07662 -2.13245,-0.27688 -1.07561,0.621 -1.57881,1.27523 -1.32241,1.71932 0.28701,0.49712 1.32163,0.41973 2.35355,-0.17605 0.89831,-0.51864 1.11728,-0.77043 1.10131,-1.26639 z m -2.90452,-4.11629 c 0.4336,-1.08344 0.25093,-1.71723 -0.70496,-2.44605 -1.08906,-0.83033 -2.78952,-0.9554 -8.33424,-0.61293 -6.0217,0.37193 -7.15242,0.78285 -7.78494,2.82918 -0.16156,0.52265 -0.35704,0.79556 -0.45203,0.63103 -0.22368,-0.38743 0.28795,-2.08455 0.83843,-2.78112 0.43074,-0.54505 0.42313,-0.54843 -0.31628,-0.14042 -0.80942,0.44665 -1.710548,1.9361 -2.032898,3.3602 -0.45855,2.02586 0.886278,4.08037 2.702998,4.1294 2.44256,0.0659 9.66173,-1.25347 10.96011,-2.00309 0.41398,-0.23901 0.41357,-0.33104 -0.003,-0.58948 -0.74035,-0.45985 -1.02252,-1.10774 -0.79289,-1.82058 0.19417,-0.60277 0.33722,-0.67473 2.54504,-1.28039 2.12413,-0.58269 2.37682,-0.59138 2.74711,-0.0944 0.22568,0.30289 0.32519,0.77047 0.22283,1.04707 -0.16159,0.4366 -0.21647,0.4067 -0.43405,-0.23648 -0.24471,-0.72337 -0.28059,-0.72749 -2.0448,-0.23408 -0.98764,0.27622 -1.97566,0.60726 -2.19559,0.73565 -0.60645,0.3536 0.0928,1.36625 0.93165,1.34909 0.53377,-0.0109 2.76035,-0.60225 3.67286,-0.9754 0.0836,-0.0342 0.29701,-0.42443 0.4742,-0.86717 z m -9.44983,-5.82709 c 0.61586,-0.75557 0.51424,-2.25894 -0.20972,-3.10285 -0.78218,-0.91178 -2.98832,-1.78426 -5.27241,-2.08513 -2.26111,-0.29786 -3.381597,-0.26569 -5.784406,0.16605 l -1.799198,0.32328 1.475001,-0.7516 c 1.435182,-0.73126 1.45948,-0.75926 0.899035,-1.03768 -1.179878,-0.58612 -3.532456,0.77196 -4.450365,2.5691 -0.638262,1.24962 -0.647203,3.23413 -0.01947,4.32139 0.35065,0.60735 0.641371,0.90227 0.728956,0.73949 0.08072,-0.15007 0.173675,-0.0933 0.208877,0.1279 0.130031,0.82039 5.264935,1.14292 6.70029,0.42085 0.31671,-0.1593 0.62692,-0.20135 0.68936,-0.0934 0.0625,0.10795 0.23811,0.0425 0.39037,-0.14548 0.15223,-0.188 0.27713,-0.24037 0.27745,-0.11654 3.5e-4,0.1239 0.92863,0.13673 2.06282,0.0285 1.61305,-0.15389 1.84786,-0.22219 1.07815,-0.31362 -1.85396,-0.22021 -2.59298,-0.52242 -2.99954,-1.22661 -0.43427,-0.75217 -0.16621,-1.45625 0.75745,-1.98952 0.64909,-0.37476 4.66599,-0.25847 4.89707,0.14178 0.0954,0.16522 -0.44526,0.26053 -1.3176,0.2314 -3.46347,-0.11442 -4.25313,0.17397 -3.59547,1.31308 0.25307,0.43832 0.7133,0.61493 1.83783,0.70523 0.82513,0.0663 1.76104,0.19903 2.07981,0.29505 0.70527,0.21241 0.7964,0.17766 1.36568,-0.52076 z m 3.25652,-7.00637 c -0.68367,0.33318 -1.81815,0.98759 -2.52099,1.45435 -0.70289,0.46666 -0.14357,0.19397 1.243,-0.60588 1.38657,-0.79984 1.96167,-1.18164 1.27799,-0.84847 z M 94.181251,145.49854 c -10.190055,-17.6497 -12.672987,-23.26657 -14.481837,-32.76072 -0.508505,-2.66899 -1.084182,-9.37996 -0.79799,-9.30254 0.266826,0.0722 5.507364,5.57022 6.547145,6.86885 3.527518,4.40568 7.257108,10.05626 16.061121,24.3337 3.49005,5.65979 4.56877,7.202 4.7726,6.82317 0.29206,-0.5428 -12.621873,-21.63065 -17.533895,-28.63206 -2.37943,-3.39154 -5.104888,-6.65493 -8.582173,-10.27604 -3.259196,-3.394016 -3.057132,-3.51859 -2.758037,1.70034 0.431238,7.52482 2.145482,14.39159 5.732891,22.96436 1.130138,2.70068 2.801684,5.80892 8.93861,16.62137 7.56378,13.32638 7.963104,13.94833 8.687064,13.53035 0.11273,-0.0651 -2.780594,-5.28049 -6.585499,-11.87078 z m 11.652029,2.83533 c -0.49313,-0.80074 -1.19222,-0.59341 -0.7254,0.21514 0.16977,0.29406 0.41713,0.56369 0.54963,0.59921 0.51058,0.13681 0.57572,-0.16498 0.17577,-0.81435 z m 6.13078,-6.69591 c -0.5694,-2.43131 -0.95751,-3.14263 -0.88715,-1.62598 0.0655,1.41214 0.74675,3.81756 1.18074,4.16908 0.22421,0.18161 0.37512,0.21845 0.33536,0.0819 -0.0398,-0.13655 -0.32279,-1.31782 -0.62893,-2.62499 z m -6.3631,3.90291 c -1.32415,-3.0576 -15.45046,-26.19206 -18.33436,-30.02592 -0.849813,-1.12974 -0.61741,-0.67326 0.962681,1.89089 10.951022,17.77127 16.733169,27.64605 17.426889,29.76175 0.1368,0.41714 0.27163,0.52008 0.43744,0.33373 0.14437,-0.16222 -0.0516,-0.94206 -0.49265,-1.96045 z M 81.477358,108.14891 c -0.113435,-0.19647 -0.272559,-0.23396 -0.353613,-0.0833 -0.08108,0.15062 -0.09137,0.37092 -0.0229,0.48952 0.06847,0.11858 0.227589,0.15607 0.353621,0.0833 0.126024,-0.0728 0.136323,-0.29304 0.02289,-0.48952 z m 60.428952,80.39763 c -0.14253,-0.13486 -1.46324,-2.4108 -2.93493,-5.05764 -1.97673,-3.5552 -2.59206,-4.82993 -2.35527,-4.87939 0.82965,-0.1733 6.32303,9.31687 5.75852,9.94826 -0.11505,0.12866 -0.32577,0.12365 -0.46832,-0.0112 z m -8.22793,-0.037 c -0.0639,-0.1106 -0.0357,-0.41829 0.0625,-0.68375 0.23046,-0.6227 -0.32752,-2.95019 -0.9769,-4.07496 -0.36084,-0.62499 -0.40696,-0.93165 -0.16145,-1.0734 0.2669,-0.15409 0.51913,0.10542 1.12884,1.16146 0.88797,1.53802 1.12532,2.57144 0.85587,3.72658 -0.1857,0.79614 -0.69119,1.32117 -0.90891,0.94407 z"
       id="path1" /></g></svg>
