<?xml version="1.0" encoding="UTF-8" standalone="no"?>
<!-- Created with Inkscape (http://www.inkscape.org/) -->

<svg
   width="106.74963mm"
   height="76.809814mm"
   viewBox="0 0 106.74963 76.809814"
   version="1.1"
   id="svg1"
   xml:space="preserve"
   xmlns="http://www.w3.org/2000/svg"
   xmlns:svg="http://www.w3.org/2000/svg"><defs
     id="defs1" /><path
     style="fill:#000000"
     d="m 48.991281,50.777328 c -2.738177,-2.16301 -3.148477,-2.91808 -2.475123,-4.55496 0.317848,-0.77266 0.309354,-1.07149 -0.0382,-1.3442 -0.311124,-0.24406 -0.35839,-0.55487 -0.155611,-1.02265 0.283693,-0.65443 0.25328,-0.69394 -1.164121,-1.51228 -1.917874,-1.10728 -2.175025,-1.13048 -2.533007,-0.22864 -0.29132,0.7339 -0.295723,0.73409 -1.463886,0.0597 -1.097042,-0.63338 -1.150636,-0.71294 -0.840956,-1.24932 0.275825,-0.47774 0.22174,-0.63576 -0.325777,-0.95187 -0.969533,-0.55976 -2.29485,-0.27087 -3.055928,0.66614 -0.603738,0.74329 -0.707484,0.76684 -1.670195,0.37919 -0.945093,-0.38055 -1.041573,-0.50482 -1.217032,-1.56708 -0.180051,-1.09016 -0.255001,-1.18145 -1.359567,-1.6559 -1.12413,-0.48287 -1.164629,-0.53542 -1.054898,-1.3689 l 0.114108,-0.86675 -2.113959,-1.31714 -2.11396,-1.31715 -0.370201,0.6424 c -0.363626,0.63098 -0.390868,0.62882 -1.53318,-0.1214 -1.138174,-0.74753 -1.153211,-0.77688 -0.704741,-1.37844 0.450728,-0.60459 0.442278,-0.62033 -0.515031,-0.96003 -1.114584,-0.3955 -2.209904,-0.21838 -3.160575,0.5111 -0.631399,0.48449 -0.721638,0.46973 -2.142204,-0.35043 -1.293021,-0.74653 -1.464375,-0.92421 -1.337503,-1.38658 0.171977,-0.6267 -0.481168,-1.33035 -1.644799,-1.77196 -0.765841,-0.29065 -0.814945,-0.38021 -0.583785,-1.06356 0.240484,-0.71089 0.195306,-0.77933 -0.954808,-1.44655 -0.663781,-0.38555 -1.569725,-0.99785 -2.012731,-1.36152 l -0.805488,-0.66116 -0.320207,0.80668 c -0.370643,0.93373 -0.641301,0.94217 -1.6191586,0.0504 -0.571905,-0.52153 -0.633941,-0.72368 -0.337928,-1.10122 0.275357,-0.35119 0.246132,-0.52966 -0.121487,-0.7419 -0.739303,-0.42684 -2.037365,-0.40137 -2.771105,0.0544 -0.784267,0.48712 -0.833512,0.46056 -2.223753,-1.19959 l -1.085026,-1.29568 0.51968,-1.06879 c 0.28582,-0.58784 0.486615,-1.26243 0.446198,-1.49909 -0.121397,-0.71094 -1.509858,-1.3488 -2.217742,-1.01883 l -0.622412,0.29012 -0.317754,-0.79398 C 0.53638338,14.682998 0.01155738,13.041028 7.2375036e-5,12.658038 -0.00602762,12.455078 0.37424838,12.113088 0.84508838,11.898048 2.4124844,11.182198 2.5574744,10.267378 1.3112944,8.9564678 l -0.83706602,-0.88053 1.15866502,-2.00686 1.15866,-2.00686 0.951631,0.20381 c 0.760002,0.16278 1.217585,0.0268 2.272425,-0.67504 1.248281,-0.8306 1.332107,-0.93947 1.526751,-1.98295 0.113275,-0.60726 0.251003,-1.18212998 0.306073,-1.27750998 0.05506,-0.0954 1.025874,-0.22332 2.1573476,-0.2843 1.923767,-0.10369 2.070039,-0.0711 2.254684,0.50207 0.237949,0.73868998 1.428746,1.48101998 2.02294,1.26112998 0.235575,-0.0872 0.743902,-0.51226 1.129608,-0.94459998 0.656524,-0.7359 0.79544,-0.76475 2.176532,-0.45197 1.362166,0.3085 1.476268,0.37291 1.488495,0.84032998 0.05522,2.11403 1.336662,3.77025 2.012027,2.60049 0.30463,-0.52764 0.413531,-0.52504 1.380048,0.033 1.034336,0.59717 1.041871,0.61399 0.529056,1.17583 l -0.520266,0.57001 1.910831,1.30816 c 1.050965,0.71947 2.032461,1.27251 2.181092,1.229 0.148635,-0.0435 0.453583,-0.31699 0.67766,-0.6077 0.374165,-0.48543 0.518165,-0.47209 1.764623,0.16339 1.164092,0.59346 1.393916,0.62838 1.615186,0.24513 0.227335,-0.39376 0.422555,-0.35182 1.643452,0.35307 1.317112,0.76043 1.384282,0.84644 1.360848,1.7439802 -0.04625,1.773 0.227147,2.58324 1.130844,3.35133 l 0.875715,0.74431 0.240214,-0.75668 0.240213,-0.75668 1.18356,0.77663 c 1.13884,0.74735 1.168185,0.79949 0.776616,1.38185 -0.367159,0.54606 -0.333208,0.6478 0.347275,1.04067 0.414819,0.2395 1.328028,0.85184 2.029353,1.36077 l 1.275137,0.92531 1.037828,-0.7356 c 0.570804,-0.40459 1.129109,-0.66334 1.240674,-0.575 0.111575,0.0883 0.577027,0.46662 1.034361,0.84062 0.764185,0.62495 0.895266,0.64405 1.618856,0.23585 0.750828,-0.42358 0.825898,-0.40864 1.618569,0.32186 1.134921,1.04593 1.149287,1.10113 0.554667,2.13104 -0.448425,0.7767 -0.454255,1.03287 -0.04075,1.79038 0.633787,1.16107 1.428638,1.62657 1.769453,1.03626 0.359025,-0.62185 0.672587,-0.57134 1.778186,0.28639 0.876063,0.67965 0.918534,0.77607 0.46572,1.05732 -0.274035,0.17021 -0.472347,0.40613 -0.440693,0.52428 0.03164,0.11815 0.882216,0.75042 1.890127,1.40509 l 1.832568,1.19029 0.854254,-0.58723 c 0.543251,-0.37343 1.059258,-0.50517 1.417365,-0.36184 0.773477,0.30957 2.027422,-0.96722 1.796455,-1.82919 -0.413467,-1.54309 -0.918331,-6.28235 -0.801602,-7.52485 0.113549,-1.20869 0.397751,-1.88639 2.08497,-4.97179 2.175096,-3.9775702 2.997716,-4.9596502 4.846356,-5.7858402 1.93588,-0.86518 3.70604,-0.71668 6.08781,0.51068 1.9043,0.98132 2.05393,1.10847 2.37162,2.01458 l 0.33905,0.9671702 -3.60517,6.57634 c -1.98285,3.61699 -3.61198,6.61731 -3.62029,6.66739 -0.008,0.05 0.38996,0.28242 0.88486,0.51665 l 0.90016,0.42525 -0.95031,1.58458 c -0.52268,0.87151 -1.99559,3.21851 -3.27316,5.21552 l -2.32285,3.63093 -1.921349,0.2556 c -1.056734,0.14057 -2.345248,0.48369 -2.863367,0.76245 -1.101004,0.5924 -2.599941,2.45577 -2.34966,2.92093 0.109534,0.20359 0.315344,0.0521 0.608329,-0.44763 0.918109,-1.56601 2.453684,-2.26115 6.059697,-2.74296 l 0.91124,-0.12175 3.50338,-5.4256 c 1.92687,-2.98408 4.13829,-6.5026 4.91427,-7.81893 1.65918,-2.81458 2.80531,-3.80909 4.43456,-3.84806 0.90722,-0.0217 1.4195,0.20322 4.46377,1.95982 9.65868,5.57298 14.51769,10.97553 14.77357,16.42523 0.0661,1.40782 -0.28719,3.70516 -0.83252,5.4135 -0.17736,0.55563 0.003,0.959 0.97651,2.18953 0.65666,0.82963 1.83716,2.36503 2.62333,3.41201 0.97937,1.30428 1.55835,1.88417 1.838982,1.84188 0.62723,-0.0945 3.65547,4.32876 3.20452,4.68077 -0.18671,0.14578 -0.46275,0.36574 -0.61336,0.48882 -0.16631,0.13587 0.33141,1.29326 1.26704,2.94651 0.84747,1.49749 1.79044,3.57868 2.09547,4.62488 l 0.55461,1.90217 -0.86722,1.278 c -0.65222,0.96109 -1.65474,1.84603 -4.04323,3.56878 -4.294282,3.09738 -4.016192,2.7595 -3.097832,3.7639 0.61518,0.67281 0.76757,1.1027 0.70586,1.99122 -0.0735,1.05867 -0.13215,1.16991 -0.89182,1.69207 -0.47612,0.3273 -1.05596,0.47988 -1.39914,0.36819 -0.74557,-0.24264 -14.01788,-7.30446 -17.37198,-9.24311 -1.51332,-0.87471 -2.68868,-1.42087 -2.92273,-1.35816 -0.69953,0.18744 -6.31039,-2.77427 -16.933318,-8.93828 -5.726928,-3.32307 -10.648613,-6.22846 -10.937133,-6.45633 z m 29.080067,7.69219 c 2.00609,-2.27021 3.12678,-3.70265 3.06812,-3.92156 -0.0587,-0.21892 -1.30886,1.04531 -3.42268,3.4611 -3.67844,4.20391 -3.74352,4.28832 -3.1917,4.14046 0.21214,-0.0568 1.80796,-1.71284 3.54626,-3.68 z m -7.3346,-0.46335 c 1.65117,0.54517 3.67951,0.20977 4.83169,-0.79898 1.17568,-1.02931 5.77906,-9.29791 5.88124,-10.56385 0.2155,-2.67015 -0.67592,-3.5959 -6.95124,-7.21896 l -4.9754,-2.87255 -0.60093,0.4287 c -1.15124,0.82132 -4.09553,1.49795 -6.04138,1.3884 -2.493415,-0.1404 -3.606312,0.13317 -5.226815,1.28485 -2.664401,1.89355 -3.62259,5.38052 -2.289662,8.33241 0.328004,0.7264 0.956854,1.53428 1.56754,2.01382 1.797516,1.41149 12.327507,7.51833 13.804937,8.00619 z m -13.444527,-9.43567 c -1.850683,-2.01098 -1.938485,-5.35252 -0.194072,-7.38595 0.893481,-1.04152 2.955457,-1.94263 4.406801,-1.92585 1.937468,0.0224 4.049958,1.27607 5.013278,2.97513 0.84752,1.49483 0.95087,3.54144 0.25894,5.12754 -0.99097,2.27159 -3.84948,3.63046 -6.368627,3.02751 -1.610505,-0.38546 -2.014591,-0.62125 -3.11632,-1.81838 z m 5.122367,-3.67737 c 0.50371,-0.67866 0.15894,-1.33221 -0.63158,-1.19722 -0.61376,0.10481 -1.059547,0.80335 -0.760643,1.19188 0.443066,0.57588 0.967283,0.57785 1.392203,0.005 z m 32.18538,21.34389 c 1.29784,-0.79273 3.00863,-1.80183 3.80175,-2.24245 0.96711,-0.53727 1.36968,-0.88597 1.22233,-1.0588 -0.12085,-0.14171 -1.18788,-1.43825 -2.37121,-2.88117 -1.18333,-1.44291 -2.22688,-2.6673 -2.31901,-2.72086 -0.0921,-0.0536 -1.0208,0.50981 -2.06375,1.25192 -1.23175,0.87649 -2.02616,1.27432 -2.26696,1.13529 -0.20389,-0.11772 -1.1499,-1.0059 -2.10224,-1.97372 -0.95234,-0.96784 -1.84111,-1.82466 -1.97505,-1.90408 -0.22458,-0.13313 -2.69008,2.84428 -3.46117,4.17984 -0.32579,0.56428 -0.29214,0.60141 1.86581,2.06 1.96639,1.32911 2.17085,1.53164 1.94359,1.92527 -0.2368,0.41015 -0.0639,0.54919 2.5561,2.055 l 2.80991,1.61537 z m -51.867431,-28.85555 5.935233,3.22605 1.741593,-2.68915 c 0.957878,-1.47903 2.473604,-3.50386 3.368288,-4.49961 0.894678,-0.99575 1.622896,-1.83556 1.618248,-1.86623 -0.01901,-0.12541 -11.243836,-7.55592 -21.027931,-13.9198 -5.741477,-3.73442 -12.132012,-7.9083102 -14.201189,-9.2752902 -2.572481,-1.69947 -4.197334,-2.63749 -5.138374,-2.96633 -3.50354,-1.22428 -6.8783146,-1.2e-4 -8.6160756,3.12539 -1.214878,2.1850502 -1.262681,4.4220202 -0.139124,6.5102202 1.134776,2.10905 1.240346,2.17961 16.3064076,10.89966 7.819597,4.5262 16.888546,9.68075 20.152924,11.45509 z M 9.8764294,12.367128 c -0.960955,-1.29365 -0.207182,-3.0336902 1.4685436,-3.3900602 2.587659,-0.55031 3.559344,3.5285502 0.993403,4.1700202 -1.162061,0.29051 -1.822094,0.0814 -2.4619466,-0.77996 z m 75.9807686,39.97241 c 0.48441,-0.12981 1.0443,-0.99292 3.9759,-6.12921 1.87662,-3.288 3.50775,-6.36186 3.62467,-6.83087 0.27503,-1.10331 0.25896,-3.52409 -0.0245,-3.68774 -0.327,-0.18879 -0.38685,0.0439 -0.28519,1.10875 0.18523,1.94025 -0.29233,3.08883 -3.83682,9.22807 -3.17443,5.49828 -3.37779,5.79751 -3.92791,5.7798 -0.78727,-0.0254 -2.09611,-0.81046 -2.23879,-1.34291 -0.0639,-0.23855 0.23098,-1.03507 0.65533,-1.77006 0.42435,-0.735 0.82677,-1.76605 0.89427,-2.29124 0.19294,-1.50131 -0.39234,-3.62618 -1.36724,-4.96377 -0.82017,-1.1253 -1.26641,-1.44952 -5.43274,-3.94724 -2.49655,-1.4967 -4.7423,-2.90523 -4.99055,-3.13009 -0.41265,-0.37377 -0.37836,-0.52997 0.39972,-1.8211 0.46809,-0.77676 1.30332,-2.04481 1.85605,-2.8179 l 1.00496,-1.40563 1.3546,0.56419 c 2.28034,0.94976 9.14167,5.53283 10.98595,7.33814 0.8939,0.875 1.7346,1.56162 1.86822,1.52582 0.66065,-0.17702 -1.63953,-3.60515 -3.83607,-5.7172 -2.6198,-2.51902 -8.23461,-6.36551 -9.22983,-6.32301 -0.26314,0.0112 -1.1413,1.29633 -2.95444,4.32349 l -2.58,4.3075 5.08301,3.10223 c 4.47255,2.72967 5.17436,3.22996 5.84378,4.16576 1.74604,2.44083 1.89048,4.66309 0.46373,7.1343 -0.50742,0.87887 -0.81024,1.67357 -0.74135,1.94551 0.16082,0.63481 2.69164,1.85366 3.43522,1.65441 z m -22.13495,-30.57414 c -0.25573,-1.46647 -0.49954,-1.98764 -0.73723,-1.57594 -0.15637,0.27084 0.61396,3.23178 0.82601,3.17496 0.0999,-0.0267 0.0599,-0.74632 -0.0888,-1.59902 z m 5.85392,-8.34012 0.95225,-1.80345 -1.35549,0.89774 c -1.57103,1.04048 -2.67957,2.70923 -2.89063,4.35139 -0.27659,2.15215 -0.0556,2.18929 1.18911,0.19986 0.63388,-1.01315 1.58102,-2.65364 2.10475,-3.64554 z m -5.33887,1.82035 c 0.29979,-0.79311 1.10363,-2.27715 1.78632,-3.29787 1.19833,-1.79168 1.21673,-1.84443 0.53236,-1.52572 -0.5221,0.24313 -1.08951,0.9363 -2.15348,2.63078 -1.44758,2.30542 -1.66904,3.08127 -0.99122,3.47261 0.21428,0.12371 0.41032,-0.18003 0.82603,-1.2798 z"
     id="path1" /></svg>
