<?xml version="1.0" encoding="UTF-8" standalone="no"?>
<svg
   width="87.097855mm"
   height="115.1021mm"
   viewBox="0 0 87.097855 115.1021"
   version="1.1"
   xml:space="preserve"
   xmlns="http://www.w3.org/2000/svg"
   xmlns:svg="http://www.w3.org/2000/svg"><g
     transform="translate(-61.555083,-92.263268)"><path
       style="fill:#000000"
       d="m 113.84031,204.90493 c 2.78093,-1.95153 3.57883,-2.64347 3.62989,-3.14781 0.14549,-1.43687 0.0223,-6.34188 -0.16878,-6.72201 -0.11254,-0.22386 -0.57642,-0.49284 -1.03095,-0.59753 -0.80591,-0.18614 -0.8332,-0.25046 -1.10506,-2.63114 -0.15332,-1.3422 -0.6107,-5.01 -1.01635,-8.15066 -0.40565,-3.14065 -0.72114,-5.77959 -0.70102,-5.86425 0.0181,-0.0852 0.88153,-0.36999 1.91429,-0.63404 l 1.87773,-0.48015 2.90609,1.80823 c 5.09109,3.16783 12.52805,9.47294 17.0223,14.43164 0.91866,1.01358 1.7722,1.86641 1.89678,1.89517 0.36343,0.0834 2.03581,-0.36643 2.08054,-0.56018 0.0659,-0.28522 -3.30007,-3.70007 -7.04036,-7.14265 -4.18723,-3.85396 -4.45717,-4.1274 -2.97103,-3.00949 1.63494,1.22989 5.96133,4.87766 8.79178,7.41275 1.32171,1.18382 2.46382,2.16635 2.53807,2.18348 0.31095,0.0713 5.37994,-7.63591 5.19463,-7.89858 -0.0335,-0.0474 -1.57229,-0.94945 -3.4196,-2.00445 -8.99832,-5.13906 -17.3092,-10.62073 -19.21919,-12.67649 -1.5154,-1.63105 -2.21938,-2.57451 -2.01584,-2.70168 0.0885,-0.0553 1.16505,0.37935 2.39217,0.9663 1.22706,0.58699 2.41607,1.10964 2.64214,1.16176 0.73354,0.16942 0.36993,-0.57715 -0.58082,-1.19208 -3.77307,-2.44046 -4.53841,-3.02684 -4.3382,-3.3237 0.11721,-0.1734 0.19174,-0.85239 0.16526,-1.50892 l -0.0475,-1.19346 -1.4365,2.24799 c -3.17787,4.97329 -4.88056,6.58974 -6.40131,6.07712 -1.09091,-0.36813 -1.51199,-1.39017 -1.38277,-3.35851 0.13994,-2.13128 0.67555,-2.73824 2.69974,-3.0623 0.84467,-0.13513 1.9044,-0.50673 2.35501,-0.82576 0.4506,-0.31903 1.00672,-0.63949 1.23586,-0.7121 0.22916,-0.0726 0.56631,-0.42983 0.74925,-0.79377 l 0.3327,-0.66165 -2.08778,-0.3154 c -2.41154,-0.36429 -3.4304,-0.93849 -3.72531,-2.09977 -0.1052,-0.41396 -0.28425,-1.98043 -0.398,-3.48107 l -0.20681,-2.72842 1.54802,-0.85659 c 2.05504,-1.1372 2.16942,-1.72411 0.18827,-0.96607 -0.83559,0.31975 -1.60081,0.56247 -1.70051,0.53947 -0.10011,-0.022 0.40355,-0.76977 1.11751,-1.6599 1.69515,-2.11172 1.54067,-2.50752 -0.31832,-0.81552 -0.10689,0.0973 -1.18583,0.0953 -2.3975,-0.004 -2.1954,-0.18078 -2.20419,-0.18401 -2.53378,-0.9232 -0.43901,-0.98477 -0.77709,-0.71978 -0.6629,0.51952 0.0745,0.80848 -0.0801,1.37435 -0.81937,3.00022 -1.32528,2.9143 -1.97275,3.51871 -4.9681,4.63835 -1.14047,0.4263 -1.25937,0.41783 -2.56341,-0.18271 -0.7521,-0.34636 -1.35381,-0.68879 -1.33736,-0.76058 0.019,-0.0713 0.3387,0.0153 0.71574,0.19394 0.52463,0.24932 0.97788,0.20161 1.93344,-0.2024 0.68636,-0.29021 1.41941,-0.7238 1.62893,-0.96352 0.20945,-0.23977 0.97224,-2.41967 1.69432,-4.84458 0.72235,-2.42477 1.35709,-4.54623 1.41047,-4.71432 0.15786,-0.49584 2.09118,-0.66008 5.42796,-0.46077 5.11487,0.3055 5.31383,0.41554 6.59075,3.64531 0.58139,1.47077 2.20867,8.60409 2.5227,11.0583 0.11581,0.9051 0.28949,1.92274 0.38596,2.26145 0.16263,0.57091 0.20571,0.54366 0.59125,-0.37437 0.22892,-0.5445 0.32096,-1.05282 0.20515,-1.12932 -0.11604,-0.0762 -0.14306,-0.43191 -0.0604,-0.78976 0.12067,-0.52104 0.23133,-0.59147 0.5569,-0.35381 4.33037,3.16022 9.82437,5.26278 16.74535,6.40834 2.61311,0.43255 7.27954,0.77852 7.73098,0.5732 0.16485,-0.075 -0.34529,-1.82685 -0.54519,-1.87212 -0.10294,-0.0229 -1.46305,-0.0722 -3.02276,-0.1088 -2.33063,-0.0546 -3.70841,-0.26833 -7.73355,-1.19975 -5.53691,-1.28139 -7.14446,-1.93227 -11.25119,-4.55657 l -2.49316,-1.59293 -0.3717,-2.1492 c -0.50294,-2.90804 -2.20917,-8.2018 -3.11832,-9.67508 -0.62892,-1.0191 -0.90705,-1.23832 -1.83792,-1.44854 -1.42018,-0.3207 -9.24882,-0.69083 -10.0461,-0.47487 -0.56397,0.15274 -0.63674,0.038 -0.92656,-1.46057 -0.17302,-0.89449 -0.65507,-3.29344 -1.07121,-5.33109 -1.06331,-5.20613 -1.09525,-4.86432 0.45954,-4.92218 0.71917,-0.0267 1.39702,-0.0727 1.50628,-0.10201 0.10933,-0.0294 0.0718,-0.72182 -0.0832,-1.53871 -0.50847,-2.67952 -0.52161,-2.6365 0.90872,-2.96205 0.87996,-0.20045 1.62747,-0.63082 2.39204,-1.37727 l 1.11209,-1.0857 1.84747,0.40238 c 1.01611,0.22145 3.50276,0.64269 5.52586,0.9363 l 3.67833,0.5339 1.24228,-1.52912 c 2.22406,-2.7375 3.16654,-4.8031 4.18244,-9.16637 0.85426,-3.66885 0.88704,-3.9995 0.64519,-6.50386 -0.48138,-4.98456 -2.28425,-9.445178 -5.01139,-12.398988 -1.65612,-1.793762 -3.37513,-2.963111 -5.92847,-4.03279 -1.50023,-0.628552 -1.80171,-0.688293 -2.07367,-0.411439 -0.5766,0.587054 -7.96218,5.710228 -8.18908,5.680541 -0.12213,-0.0159 -0.45214,-0.31508 -0.73335,-0.664789 -0.50697,-0.630277 -0.52871,-0.633243 -2.54265,-0.345813 -6.925199,0.988272 -12.039551,1.84951 -17.292508,2.911868 l -5.973903,1.20818 -0.841203,1.12392 -0.841185,1.1239 -3.394222,-0.45327 c -6.137367,-0.81962 -10.493362,-1.26873 -10.993068,-1.13338 -1.407399,0.38119 -3.464734,5.69845 -4.053216,10.47572 -0.556673,4.51906 0.21673,10.70341 1.802963,14.41692 1.446967,3.3874 3.958798,6.93275 6.598093,9.31279 l 1.018372,0.91835 2.275961,-1.01147 c 2.989577,-1.32859 11.970801,-5.72753 12.288046,-6.01858 0.169377,-0.15539 0.390056,-0.0871 0.696884,0.21595 0.246969,0.24374 0.644179,0.63687 0.882638,0.87376 0.358946,0.35654 0.663206,0.37828 1.76912,0.12447 0.73456,-0.1684 1.355984,-0.26533 1.380934,-0.21541 0.02506,0.0498 0.10199,0.72719 0.171189,1.50502 0.189709,2.13234 0.438311,2.56871 1.356993,2.38187 0.69376,-0.14107 0.759552,-0.0938 0.856571,0.61582 0.05779,0.42277 0.259364,1.72076 0.447975,2.88438 0.18859,1.16365 0.516964,3.32775 0.729728,4.80906 l 0.38685,2.69329 -1.98639,0.98821 c -2.222138,1.10549 -3.239892,2.22112 -3.968491,4.3501 -0.421371,1.23111 -0.408472,1.40309 0.188159,2.51356 0.352248,0.6556 1.018703,1.6264 1.481019,2.15732 0.838921,0.96339 0.839727,0.96852 0.400741,2.59814 -0.402314,1.4937 -0.392233,1.70343 0.122472,2.46152 0.309299,0.45574 1.009368,1.21014 1.555694,1.67644 l 0.993381,0.84773 -0.464062,1.31054 c -0.445344,1.258 -0.435171,1.35298 0.253413,2.36663 0.394559,0.58083 1.093939,1.39157 1.554156,1.80173 0.460239,0.4101 0.800488,0.94689 0.756183,1.19285 -0.04442,0.24593 -0.145752,0.81765 -0.22545,1.27043 -0.10376,0.58972 0.08587,1.17265 0.668425,2.05509 0.735104,1.11359 0.94543,1.26243 2.190341,1.54984 l 1.377167,0.31792 1.39765,7.17915 c 0.76873,3.9485 1.6463,8.49427 1.95022,10.10167 l 0.55257,2.92254 -1.04821,0.678 -1.04818,0.67795 0.61197,3.56433 c 0.33659,1.96038 0.70089,3.65236 0.80956,3.75995 0.20866,0.20672 7.04678,3.09846 7.49493,3.16968 0.14402,0.023 1.86596,-1.08407 3.82639,-2.45978 z m 1.42485,-6.33145 -0.0754,-1.70145 -1.0897,-0.0671 c -0.59932,-0.0369 -2.29423,0.006 -3.7664,0.0965 -3.11325,0.19027 -2.97449,0.20262 -2.86873,-0.25557 0.10132,-0.43922 5.86826,-1.23661 7.5848,-1.04876 l 1.20956,0.1324 -0.0412,2.66406 c -0.0226,1.4652 -0.12428,2.74795 -0.22583,2.85049 -0.31701,0.32017 -0.64853,-0.89742 -0.72714,-2.67053 z m -6.73011,-6.74341 -1.67405,-2.56554 2.40283,2.53015 c 2.35734,2.48225 2.45723,2.71553 1.11971,2.61421 -0.0961,-0.007 -0.92781,-1.16776 -1.84849,-2.57882 z m 5.148,1.26314 c -0.15423,-1.05773 -0.22172,-3.4931 -0.0989,-3.56985 0.055,-0.0344 0.17845,0.78821 0.2743,1.82799 0.0958,1.03977 0.19423,2.04781 0.21862,2.24017 0.0913,0.71977 -0.286,0.24262 -0.39403,-0.49831 z m -4.06882,-6.14515 c -1.64502,-2.12395 -2.82402,-3.79189 -2.49102,-3.52407 0.78146,0.62846 5.2427,5.04779 5.31696,5.267 0.0497,0.14667 -0.15549,0.20991 -0.4557,0.14062 -0.347,-0.0804 -0.50404,-0.002 -0.43078,0.21402 0.17859,0.52709 -0.34599,-0.0403 -1.93946,-2.09757 z m 3.07662,-0.62623 c -0.24306,-2.56463 -0.67741,-4.54222 -1.02002,-4.64421 -0.24012,-0.0732 -0.23641,-0.10762 0.0195,-0.15003 0.24494,-0.0392 0.25682,-0.48723 0.0444,-1.59756 -0.16278,-0.8487 -0.22814,-1.52742 -0.14523,-1.50827 0.24715,0.0579 0.63965,1.03416 0.84119,2.09502 0.27272,1.43548 1.16806,8.38463 1.10916,8.60875 -0.13427,0.50945 -0.71769,-1.41855 -0.84895,-2.80373 z m -4.44073,-8.07304 c -0.63322,-0.65345 -1.13871,-1.24272 -1.12329,-1.30942 0.0396,-0.17011 2.59284,2.13519 3.18571,2.87612 l 0.48949,0.6117 -0.70031,-0.49509 c -0.38521,-0.27228 -1.21842,-1.02979 -1.85162,-1.68327 z m -5.15144,-6.91377 c 0.21763,-0.60378 0.4342,-1.11447 0.48231,-1.13448 0.0475,-0.0203 0.6905,-0.27081 1.42863,-0.55694 0.73811,-0.28614 2.15261,-0.95694 3.14325,-1.49067 0.99069,-0.53374 1.97098,-0.93121 2.17847,-0.88334 0.20761,0.0473 0.444,0.41555 0.52567,0.81703 0.13351,0.65662 0.0582,0.77341 -0.74936,1.16214 l -0.89779,0.43218 0.0928,-0.77064 c 0.10288,-0.85364 -0.0417,-0.96631 -0.81478,-0.63538 -0.48491,0.20759 -0.50994,0.30169 -0.34249,1.2859 0.1787,1.04825 0.16985,1.06814 -0.68064,1.53095 -0.47392,0.25792 -1.49795,0.72086 -2.27561,1.02873 -0.7777,0.30789 -1.54074,0.76722 -1.69565,1.0207 -0.27879,0.45587 -0.28452,0.4546 -0.53645,-0.1234 -0.17143,-0.39369 -0.1253,-0.94349 0.1411,-1.68254 z m -6.581002,-0.19444 c 0.03434,-0.15208 0.877803,-0.0578 2.051539,0.22915 1.390698,0.3394 1.783113,0.50406 1.300053,0.54418 -1.010464,0.0841 -3.421007,-0.4724 -3.351436,-0.77376 z m 5.529352,-2.77894 c 0.19995,-0.86634 -0.0603,-1.98027 -0.43321,-1.85392 -0.1904,0.0645 -0.64995,0.0692 -1.02114,0.0103 -0.37129,-0.0588 -1.943569,-0.30197 -3.494047,-0.54026 -2.00315,-0.30787 -2.800095,-0.51536 -2.753579,-0.71687 0.11178,-0.48462 2.013929,-0.39934 4.654239,0.20865 2.506407,0.57759 2.530737,0.57705 2.484157,-0.039 -0.0259,-0.342 -0.15679,-0.73691 -0.29087,-0.8776 -0.13404,-0.14078 0.12152,-0.1733 0.56792,-0.0726 0.73386,0.16538 3.5534,-0.4027 5.99223,-1.20792 0.51504,-0.17003 0.97816,-0.24072 1.02918,-0.15704 0.051,0.0835 0.0482,0.71442 -0.006,1.40179 l -0.0991,1.24973 -2.40206,0.5787 c -2.94846,0.71041 -3.44212,0.96689 -3.65765,1.90043 -0.0934,0.40335 -0.28527,0.70668 -0.42701,0.67401 -0.14214,-0.0315 -0.20596,-0.284 -0.14263,-0.55835 z m -0.62601,-6.61135 c -0.01,-0.7116 -0.0299,-1.49627 -0.0452,-1.74369 -0.0207,-0.33469 0.20775,-0.43983 0.88978,-0.41183 0.50469,0.021 1.99638,-0.37165 3.31488,-0.87238 l 2.39722,-0.91043 -0.021,1.3429 c -0.0115,0.7386 -0.0274,1.37048 -0.0352,1.40423 -0.005,0.035 -0.27968,0.0206 -0.60419,-0.0292 -0.32454,-0.0498 -1.62139,0.0566 -2.88192,0.23666 -2.38935,0.34119 -2.96939,0.74423 -2.66875,1.85423 0.0836,0.30844 0.0448,0.50949 -0.0921,0.47789 -0.12965,-0.0312 -0.24408,-0.63678 -0.25358,-1.34839 z m 8.5104,1.4052 c 0.16533,-0.21415 0.34773,-0.56168 0.40511,-0.77246 0.0654,-0.23397 0.35449,-0.32546 0.74852,-0.23451 0.94453,0.21804 0.77368,1.1665 -0.32346,1.79581 -0.74296,0.42615 -0.88837,0.43339 -1.0001,0.0496 -0.0719,-0.24704 0.005,-0.62428 0.16988,-0.8384 z m -16.129517,-3.77521 c 0.2444,-0.0883 0.789312,-0.0668 1.210908,0.0479 0.757782,0.20618 0.755736,0.20838 -0.179751,0.19013 -1.381939,-0.0269 -1.524513,-0.0598 -1.031213,-0.23802 z m 15.971717,-2.04144 c 1.04243,-0.47618 1.34127,-0.32939 1.33089,0.65349 -0.008,0.75674 -0.13446,0.92327 -1.04249,1.37453 l -1.03332,0.51342 0.006,-1.10327 c 0.005,-0.99759 0.0759,-1.13534 0.73967,-1.43833 z m -7.75636,-3.07231 c 0.92533,-1.10164 1.51303,-1.39458 2.23646,-1.11473 1.36941,0.52999 -0.65557,2.51617 -2.20137,2.15926 l -0.76429,-0.17634 z m -10.090862,-2.31148 c -0.159624,-0.29823 -0.405805,-0.93549 -0.547064,-1.41613 -0.141251,-0.48068 -0.238132,-0.62522 -0.215263,-0.32126 0.03189,0.42425 -0.01308,0.46605 -0.193413,0.17994 -0.254351,-0.40351 0.513904,-1.2417 1.788321,-1.95116 0.61369,-0.34163 0.72817,-0.31997 2.174502,0.41161 0.839775,0.42457 2.799315,1.21431 4.354935,1.75416 1.555514,0.53991 2.803444,1.08886 2.773334,1.21931 -0.14099,0.61031 -1.21719,1.52605 -1.9348,1.64613 -0.860011,0.14392 -4.12174,-0.20044 -6.459859,-0.68201 -1.088115,-0.224 -1.522664,-0.43462 -1.740437,-0.84115 z m 10.568672,-4.72432 c -0.38674,-0.3294 -1.873,-1.97154 -3.591697,-3.9684 -0.049,-0.057 -0.02092,-0.14631 0.06275,-0.19844 0.157778,-0.0986 3.617587,3.44456 4.133067,4.2327 0.35459,0.54214 0.0738,0.51155 -0.60395,-0.0658 z m 1.30121,-4.38024 c -3.65023,-3.21034 -4.394914,-3.92555 -4.738644,-4.55125 l -0.369353,-0.67234 1.026237,0.84774 c 2.13737,1.76569 6.1388,5.76606 5.65604,5.65463 -0.0902,-0.0187 -0.79815,-0.59616 -1.57428,-1.27878 z m -6.408112,-6.15789 c -0.248538,-0.49466 -0.221155,-0.48879 0.474139,0.10132 0.405845,0.34459 0.71083,0.74368 0.677772,0.88684 -0.078,0.33804 -0.794069,-0.2766 -1.151848,-0.98845 z m 3.214272,-1.9713 c -0.42355,-0.45737 -0.667324,-0.80784 -0.54169,-0.77884 0.27102,0.0622 3.08875,2.59154 3.05424,2.74113 -0.0462,0.1945 -1.74293,-1.13127 -2.51255,-1.96229 z M 72.289558,114.38982 c -0.838662,-3.60651 -2.044377,-6.86281 -3.368849,-9.09824 l -1.062305,-1.7929 1.267632,0.12677 c 0.697201,0.0697 3.151348,0.43603 5.453635,0.81409 2.302315,0.37801 4.579825,0.71193 5.061145,0.74205 0.783961,0.049 1.023312,0.26701 2.297364,2.09347 0.78222,1.12135 1.409961,2.09707 1.394958,2.1683 -0.01518,0.0711 -0.290208,0.0775 -0.611584,0.014 -0.321389,-0.0634 -2.98833,-0.37785 -5.926569,-0.69858 -5.000774,-0.54591 -5.333069,-0.54924 -5.198535,-0.0526 0.08605,0.31763 0.331029,0.51668 0.610403,0.4959 0.256691,-0.0192 2.787446,0.13419 5.623943,0.34064 2.836511,0.20643 5.265664,0.33862 5.398154,0.29371 0.132419,-0.0448 0.479035,0.29966 0.770191,0.7655 l 0.52933,0.84713 -4.234979,-0.23857 c -4.076279,-0.22961 -8.154918,-0.31411 -8.188264,-0.16965 -0.0085,0.0383 0.458224,2.18663 1.037876,4.77433 0.729325,3.25585 1.03895,5.35607 1.005351,6.81909 -0.02671,1.16279 -0.06867,2.18811 -0.09327,2.27848 -0.02513,0.0903 -0.286735,-1.61615 -0.582588,-3.79218 -0.295862,-2.17605 -0.828234,-5.2049 -1.183044,-6.73082 z m 40.805912,2.95994 c 0.12986,-0.18664 0.17675,-0.11146 0.11979,0.19172 -0.0516,0.2743 -0.14721,0.41269 -0.21354,0.30712 -0.0658,-0.10531 -0.0237,-0.32991 0.0938,-0.49882 z m -1.24578,-9.22573 c -0.32402,-1.25413 -0.67163,-2.2993 -0.77249,-2.32257 -0.10117,-0.0223 -0.95712,0.13409 -1.90277,0.34974 -2.26944,0.51753 -7.59958,1.60574 -10.788001,2.20252 -1.404845,0.26297 -4.209888,0.84786 -6.233444,1.2998 l -3.679173,0.82171 -0.519675,-1.05522 -0.519688,-1.05519 5.652262,-1.30962 c 5.14652,-1.19241 12.030969,-3.22621 13.114249,-3.87418 0.36705,-0.21956 0.31288,-0.42954 -0.34721,-1.34601 -0.43016,-0.59722 -0.89234,-1.2614 -1.02706,-1.47594 -0.1937,-0.30843 -0.5562,-0.35692 -1.73245,-0.23157 -1.36965,0.14599 -6.401274,1.07608 -11.095821,2.0511 -1.062802,0.22072 -2.01819,0.3815 -2.123091,0.35729 -0.105023,-0.0237 -0.646328,0.0797 -1.203184,0.23084 -0.556867,0.15121 -1.72688,0.33109 -2.600043,0.39975 -0.873155,0.0687 -1.611019,0.22649 -1.639704,0.35074 -0.02878,0.12428 -0.151619,0.12749 -0.273196,0.007 -0.510181,-0.50518 -0.0037,-0.70567 2.540255,-1.00553 1.530529,-0.18041 5.064245,-0.84864 8.660164,-1.63772 2.555527,-0.56074 7.36446,-1.428482 10.68057,-1.927214 0.8618,-0.129603 0.96539,-0.06189 2.52829,1.653074 2.17093,2.38214 3.13886,4.15815 3.68115,6.75436 0.4702,2.25102 1.10384,8.51081 0.93328,9.21965 -0.0543,0.22537 -0.24386,-1.07213 -0.42137,-2.88345 -0.17752,-1.81127 -0.58785,-4.31938 -0.91187,-5.57348 z m 15.1573,7.47426 c -0.0836,-0.17382 -0.13844,-0.74057 -0.12194,-1.2595 0.11983,-3.77175 -1.59968,-13.57663 -2.36221,-13.46956 -0.80916,0.11363 -10.4044,3.86239 -10.80192,4.2202 -0.61005,0.54913 -0.77788,0.46369 -1.10253,-0.56126 -0.23498,-0.74205 -0.21848,-0.86507 0.1061,-0.79013 0.21154,0.0483 1.3875,-0.38419 2.61352,-0.96224 1.22599,-0.578 3.18428,-1.46252 4.35174,-1.96556 1.16746,-0.50305 2.39156,-1.10192 2.72021,-1.330814 0.5385,-0.375017 0.55991,-0.441552 0.21662,-0.673008 -0.37023,-0.249651 -0.8021,-0.0593 -7.11554,3.136432 -1.11852,0.56617 -2.26726,1.13661 -2.5527,1.26758 -0.45167,0.20727 -0.67413,0.0386 -1.7137,-1.30005 -0.89025,-1.14629 -1.03792,-1.45809 -0.57951,-1.22365 0.54192,0.27685 0.84961,0.13159 2.58118,-1.220471 2.09548,-1.636199 5.37136,-4.515315 5.66394,-4.97794 0.11304,-0.178593 1.1303,0.518132 2.82816,1.937114 3.32207,2.776279 4.3159,4.350267 5.15536,8.164887 1.07576,4.88805 1.16951,8.79326 0.29442,12.26244 -0.46155,1.83022 -0.50792,1.93026 -0.28979,0.62133 0.1433,-0.85781 0.19201,-1.70194 0.10844,-1.87574 z m -9.57723,-20.923643 c 0.0121,-0.05361 0.26224,-0.209684 0.55532,-0.346994 0.48291,-0.226274 0.48992,-0.215056 0.0748,0.119803 -0.43592,0.351682 -0.67915,0.439373 -0.63016,0.227195 z m 31.19458,83.651243 c 0.13754,-0.5959 -0.0275,-0.67149 -5.03451,-2.30491 -3.08086,-1.00522 -5.92558,-2.07268 -6.68457,-2.50877 -0.23079,-0.13251 -0.44725,-0.12093 -0.4814,0.0269 -0.11987,0.51836 5.18652,2.92608 10.50771,4.76787 1.46846,0.50777 1.57966,0.50903 1.69277,0.0189 z"/></g></svg>
