<?xml version="1.0" encoding="UTF-8" standalone="no"?>
<svg
   width="101.88973mm"
   height="101.16346mm"
   viewBox="0 0 101.88973 101.16346"
   version="1.1"
   xml:space="preserve"
   xmlns="http://www.w3.org/2000/svg"
   xmlns:svg="http://www.w3.org/2000/svg"><path
     style="fill:#000000"
     d="m 0.29153,100.815 c 0,-0.35564 3.224701,-1.24898 4.484687,-1.24239 0.926787,0.005 0.373302,-0.38651 -1.11125,-0.78574 -0.691224,-0.18588 -1.25677,-0.43027 -1.25677,-0.54308 0,-0.27144 2.90012,-0.027 4.89324,0.4124 0.872272,0.19231 1.604531,0.32911 1.627244,0.304 C 8.951391,98.93509 8.47896,97.90815 7.878829,96.67811 6.587447,94.03127 4.433462,91.59763 1.974873,90.00763 1.049034,89.40887 0.29153,88.88131 0.29153,88.83527 c 0,-0.16152 2.036263,0.63691 3.445254,1.3509 2.012299,1.01971 3.404709,1.9347 4.601464,3.02377 l 1.03526,0.9421 -0.869134,-1.5875 C 6.988201,89.7952 5.431239,87.83066 2.677458,85.21227 L 0,82.66645 1.731461,83.62883 c 4.166855,2.31599 9.140907,6.75183 12.18611,10.86751 0.873125,1.18006 1.667623,2.15089 1.76555,2.1574 0.253818,0.0169 -0.742777,-3.42586 -1.759181,-6.07709 -1.118394,-2.91728 -2.57766,-5.80366 -4.890158,-9.67259 -1.024697,-1.71437 -1.863086,-3.2144 -1.863086,-3.33339 0,-0.246 5.036804,4.92141 7.13592,7.32096 1.954727,2.23449 3.562932,4.34618 5.630226,7.3929 0.982265,1.44763 1.785937,2.45223 1.785937,2.23244 0,-0.69167 -1.752763,-5.81817 -2.853179,-8.34502 C 17.526142,83.08702 14.899458,79.15189 12.319368,76.35881 11.21037,75.15827 10.413156,74.176 10.547781,74.176 c 0.134626,0 1.364621,0.79481 2.733324,1.76624 5.46656,3.87986 12.036341,11.63934 15.52985,18.34209 1.122954,2.15454 1.202587,2.22963 0.982072,0.92605 -0.489135,-2.89154 -1.625368,-6.40861 -3.034425,-9.39271 -2.361982,-5.0022 -2.788257,-6.86818 -2.780379,-12.17083 0.0058,-3.92731 0.07883,-4.6268 0.727072,-6.9669 1.460326,-5.27168 4.853245,-10.4767 9.000227,-13.80709 1.956635,-1.57134 5.787006,-3.72816 8.059443,-4.53814 l 0.859896,-0.30649 0.0084,-3.92559 c 0.01106,-5.15839 0.184964,-5.38079 4.207524,-5.38079 h 2.398644 v -1.62225 c 0,-1.0994 -0.250068,-2.35719 -0.775898,-3.9026 -1.05684,-3.10605 -1.176508,-3.95764 -0.809282,-5.75905 0.433562,-2.12681 1.436785,-3.87321 3.09619,-5.38982 1.653442,-1.51115 3.575773,-2.30436 6.168543,-2.54534 1.014996,-0.0943 1.845447,-0.24484 1.845447,-0.33446 0,-0.0896 -0.267891,-0.32922 -0.595313,-0.53244 -1.420063,-0.8814 -6.298068,-4.59427 -6.184807,-4.70753 0.125577,-0.12558 6.17502,0.55554 7.772307,0.8751 0.55683,0.1114 0.859896,0.0686 0.859896,-0.12153 0,-0.16146 -0.784777,-2.05157 -1.743949,-4.20026 -0.959172,-2.1486797 -1.811521,-4.0716097 -1.894108,-4.2731697 -0.140496,-0.3429 2.460779,1.60114 6.627404,4.9529097 0.99966,0.80416 1.890849,1.34097 2.006104,1.20838 0.114061,-0.13121 1.077342,-2.9174697 2.140625,-6.1916897 1.063284,-3.27422 2.017434,-6.04789996 2.120334,-6.16372996 0.186907,-0.2104 0.550963,1.84740996 1.605349,9.07414996 0.30786,2.1100497 0.60795,3.9915497 0.66687,4.1811097 0.0686,0.22074 2.24892,-1.11097 6.06454,-3.7041697 3.27659,-2.22685 6.22472,-4.22741 6.5514,-4.44569 0.58889,-0.39348 0.59038,-0.39122 0.17347,0.26458 -0.23127,0.3638 -1.01901,1.67349 -1.75052,2.91042 -0.73151,1.23692 -2.23893,3.7834097 -3.34981,5.6588697 -1.11088,1.87545 -2.01979,3.51256 -2.01979,3.63802 0,0.12546 0.22993,0.2281 0.51095,0.2281 1.66072,0 15.16952,1.34106 15.01955,1.49104 -0.0515,0.0515 -3.41811,1.232 -7.48134,2.62334 -4.06325,1.39133 -7.48645,2.62776 -7.60715,2.74763 -0.1207,0.11986 1.58306,2.25636 3.78611,4.74776 2.20307,2.4914 3.93111,4.52982 3.84009,4.52982 -0.091,0 -0.41023,-0.13098 -0.70936,-0.29106 -0.81703,-0.43726 -10.62549,-4.20342 -10.71475,-4.11415 -0.0426,0.0426 0.1427,1.85481 0.41168,4.02723 0.26899,2.17242 0.4615,3.98413 0.42781,4.02603 -0.0337,0.0419 -1.17432,-1.41662 -2.53468,-3.24115 -1.36037,-1.82452 -2.54179,-3.31732 -2.625373,-3.31732 -0.08358,0 -0.489239,1.0418 -0.901458,2.3151 -1.04045,3.21386 -2.315026,6.72467 -2.406468,6.62859 -0.04196,-0.0441 -0.345364,-2.58046 -0.674235,-5.6364 -0.328872,-3.05594 -0.635216,-5.60288 -0.680765,-5.65988 -0.04555,-0.057 -1.949893,1.29781 -4.231873,3.0107 -2.28198,1.71288 -4.07876,2.95014 -3.992843,2.74947 0.08592,-0.20068 0.935424,-2.15081 1.887793,-4.33362 0.952369,-2.18281 1.734145,-4.10406 1.737279,-4.26944 0.0064,-0.33652 -0.982699,-0.51288 -4.994077,-0.89049 -3.042826,-0.28643 -2.975121,-0.31276 -3.857064,1.50012 -0.835714,1.71786 -0.803421,3.01453 0.134828,5.41374 0.686157,1.75458 0.883361,2.68215 0.949012,4.46378 l 0.08287,2.24896 2.456001,0.13229 c 2.49881,0.13459 3.455041,0.44202 3.747789,1.20491 0.08988,0.23423 0.16342,2.14509 0.16342,4.24636 v 3.82049 l 0.727604,0.29473 c 8.17444,3.31122 13.41307,8.33406 16.30894,15.63712 1.32833,3.34988 1.8135,6.4731 1.67456,10.77972 -0.14769,4.57763 -0.75902,6.96882 -2.94247,11.50937 -0.78056,1.6232 -1.69853,4.08062 -2.07553,5.55625 -0.75846,2.96864 -1.03524,4.36563 -0.86496,4.36563 0.0632,0 0.5189,-0.80367 1.01265,-1.78594 2.61002,-5.19236 7.79859,-11.84068 12.30229,-15.76342 1.6757,-1.45953 5.68896,-4.41106 5.99782,-4.41106 0.0788,0 -0.75628,1.0418 -1.8558,2.31511 -4.23117,4.89992 -6.51459,8.887 -8.44772,14.75052 -0.65242,1.97892 -1.08694,3.78917 -0.85735,3.57187 0.0769,-0.0728 0.84341,-1.20385 1.70342,-2.51354 0.86001,-1.30969 2.52438,-3.57188 3.6986,-5.02708 2.14004,-2.65215 9.07211,-10.075 9.07211,-9.71441 0,0.10561 -0.73134,1.44159 -1.6252,2.96884 -2.17873,3.72257 -4.01357,7.4137 -5.09832,10.25623 -1.02839,2.69484 -1.87454,5.57426 -1.69177,5.75703 0.0688,0.0688 0.59098,-0.55949 1.16033,-1.39627 1.32686,-1.95011 6.85889,-7.51083 9.16137,-9.20887 0.97577,-0.71961 2.49342,-1.70318 3.372559,-2.18571 l 1.59842,-0.87732 -2.605739,2.59712 c -2.99593,2.986 -6.74789,8.28565 -5.86595,8.28565 0.14926,0 0.27138,-0.1079 0.27138,-0.23977 0,-0.3879 2.57237,-2.12335 4.73934,-3.19738 2.846079,-1.41062 3.610769,-1.56356 1.875239,-0.37503 -2.558359,1.75202 -4.539009,3.98203 -5.912109,6.65645 -0.6911,1.34607 -1.19722,2.44739 -1.12471,2.44739 0.0725,0 0.81751,-0.17859 1.65555,-0.39687 0.83803,-0.21828 2.36189,-0.38718 3.38634,-0.37534 l 1.862639,0.0215 -1.500659,0.44148 c -1.90099,0.55926 -2.17698,0.83396 -0.85854,0.85452 1.31418,0.0205 3.870119,0.81244 4.013869,1.24367 0.0866,0.25975 -10.425459,0.32767 -50.712821,0.32767 -41.863225,0 -50.822046,-0.0614 -50.822046,-0.3485 z m 44.2742,-27.41169 c 3.670047,-1.77664 5.394427,-6.06211 4.038239,-10.03593 -0.539239,-1.58005 -1.940865,-3.10857 -3.221775,-3.74098 -1.567251,-0.57454 -5.533075,-1.12052 -6.996526,0.34293 -2.055421,2.05542 -3.507395,4.35767 -3.794625,6.67548 -0.310601,2.50641 1.444576,4.86851 2.122643,5.52884 0.75021,0.73059 5.722652,2.26048 7.852044,1.22966 z M 68.809914,29.91993 c 0.331639,-0.83922 0.696238,-1.58349 0.810219,-1.65394 0.113982,-0.0704 0.754174,0.48024 1.422648,1.22375 l 1.21541,1.35183 v -2.03082 c 0,-1.98458 0.0136,-2.0266 0.59531,-1.84542 0.32743,0.10197 1.72527,0.57747 3.10631,1.05666 1.38105,0.47919 2.54101,0.84125 2.57769,0.80456 0.0367,-0.0367 -0.77232,-1.0697 -1.79777,-2.2956 -2.8115,-3.36105 -2.94874,-2.93566 1.40417,-4.35263 2.07437,-0.67526 3.85889,-1.31106 3.9656,-1.4129 0.1067,-0.10183 -0.13142,-0.20867 -0.52917,-0.23741 -1.81332,-0.13105 -7.3556,-0.93002 -7.51085,-1.08276 -0.0952,-0.0937 0.64864,-1.52988 1.65299,-3.1916 1.00434,-1.66173 1.78378,-3.06361 1.73209,-3.1153 -0.0517,-0.0517 -0.85507,0.36548 -1.78528,0.92705 -0.93021,0.56157 -2.47576,1.45694 -3.43454,1.98972 l -1.743242,0.96868 -0.59908,-3.63692 C 69.562925,11.38658 69.233463,9.5713703 69.160283,9.3530903 69.000477,8.8764203 68.98784,8.9028003 67.482981,12.85452 L 66.401486,15.69449 64.153189,13.979 c -1.236564,-0.94352 -2.358563,-1.71549 -2.493331,-1.71549 -0.134769,0 0.0516,0.78808 0.414151,1.75129 0.362551,0.96321 0.659184,1.85618 0.659184,1.98437 0,0.1282 -0.945473,0.23308 -2.101051,0.23308 -1.155579,0 -2.160158,0.0956 -2.232399,0.21253 -0.07224,0.11689 0.716313,0.92056 1.752341,1.78594 1.036029,0.86537 1.915013,1.69247 1.953299,1.83799 0.03829,0.14552 -0.838774,0.91295 -1.949022,1.7054 -1.961368,1.39995 -1.998163,1.4463 -1.297033,1.63381 0.396881,0.10614 1.490392,0.27531 2.430025,0.37594 1.058004,0.1133 1.708424,0.30468 1.708424,0.50267 0,0.17584 -0.300666,1.2037 -0.668147,2.28414 -0.367481,1.08044 -0.635371,2.10512 -0.595313,2.27707 0.04314,0.18519 1.081583,-0.28363 2.547412,-1.15008 1.361018,-0.80449 2.572007,-1.36183 2.691088,-1.23854 0.119081,0.1233 0.370341,1.38348 0.558357,2.80041 0.188015,1.41693 0.416977,2.48849 0.508803,2.38125 0.09183,-0.10724 0.438298,-0.88162 0.769937,-1.72085 z" /></svg>
