<?xml version="1.0" encoding="UTF-8" standalone="no"?>
<svg
   width="105.52051mm"
   height="98.559273mm"
   viewBox="0 0 105.52051 98.559273"
   version="1.1"
   xml:space="preserve"
   xmlns="http://www.w3.org/2000/svg"
   xmlns:svg="http://www.w3.org/2000/svg"><path
     style="fill:#000000"
     d="m 79.075636,98.270781 c -5.5919,0.0379 -3.45067,-6.84562 1.23076,-5.12928 4.72248,-0.92635 8.39246,5.98459 1.72213,5.38026 -0.98875,0.0223 -1.98516,-0.0369 -2.95289,-0.25098 z m 4.09792,-2.5027 c -0.25915,-2.41947 -9.69818,-1.3781 -4.0329,-0.13907 1.34202,0.0486 2.71049,0.69554 4.0329,0.13907 z m -55.127724,1.73075 c -5.260923,-0.0503 -1.646018,-5.61869 -1.410055,-5.99311 -7.776162,0 -15.552323,0 -23.328485,0 0.748727,-3.60495 6.786554,-2.37682 9.545313,-4.18313 6.488697,-1.70836 -3.745139,-2.05524 -5.278406,-1.60492 3.004816,-3.32189 8.655486,-0.72499 10.88837,0.655 C 13.209989,80.882891 6.89476,76.324261 0,73.117181 c 6.834835,-0.31304 11.979612,5.16561 16.854802,9.20453 1.904895,2.18471 3.82448,3.06023 1.295419,0.0535 -1.98171,-3.02811 -7.758227,-7.76586 -8.595958,-9.21854 4.876819,1.91901 8.277339,6.30018 11.398976,10.31626 -2.611457,-8.9829 -8.992396,-16.41407 -16.505914,-21.7719 7.197757,2.39801 13.516862,7.54495 16.633499,14.58192 1.458076,2.10172 3.030437,8.5817 3.942807,8.45725 -1.726408,-5.36507 0.434518,-10.94045 -1.436103,-16.24062 -2.496936,-14.121 5.34847,-29.28475 18.479945,-35.16177 1.223022,-0.94308 0.336821,-3.20802 0.709969,-4.68372 -0.818145,-3.46759 3.750954,-3.61715 6.126874,-3.99219 2.56808,0.25787 -0.70895,-5.42611 2.0999,-4.52985 4.89744,0.42934 -3.64466,-0.62261 -1.12926,-3.99287 1.9913,-7.495773 -6.25932,-4.418764 -10.204209,-3.319271 -1.95078,0.305347 -2.355283,2.809541 -3.60034,4.118441 -2.056281,3.10492 -4.112563,6.20983 -6.168845,9.31475 -0.433195,-2.81739 0.166552,-7.62361 -3.48519,-3.77297 -1.796567,1.26879 -5.589251,4.53228 -3.025249,0.17144 2.314471,-3.34725 1.185923,-4.89673 -2.776182,-4.138 -3.490058,-0.31112 -10.471859,0.69248 -11.811873,-0.48737 C 13.199704,15.011191 17.66143,12.09273 22.09626,9.134503 19.985033,7.971049 17.831997,6.878753 15.772163,5.625536 18.98807,5.754687 22.209654,5.995035 25.43207,6.104191 24.854191,4.246715 20.965964,-1.166045 23.802729,0.22629197 28.471011,2.773203 33.114559,5.376422 37.672994,8.110709 c 4.647334,-0.09543 9.492912,-3.159732 14.052142,-1.378975 4.79189,2.758431 2.67557,9.071567 3.17366,13.602147 -2.71945,6.93844 9.10548,2.94412 6.88141,10.13728 -0.89433,2.90938 1.56983,3.62208 3.75775,4.75214 10.0943,6.09828 16.06753,17.94197 15.2632,29.68022 -1.12711,5.26858 -0.25337,10.3461 0.25216,15.62191 0.14306,0.92323 -0.0226,5.48245 0.35461,3.64781 1.71164,-7.09784 2.59658,-15.09209 7.88693,-20.58114 -2.60309,5.81915 -4.50149,11.99471 -5.47234,18.294 3.81451,-4.71975 7.60504,-10.03877 13.66888,-12.01512 4.623964,-1.46231 -2.74635,4.22211 -3.86246,5.90045 -2.48434,1.81974 -6.93033,8.93533 -5.40271,9.00731 3.66037,-5.3533 10.50022,-6.3698 16.151934,-8.47669 -4.859404,3.82144 -11.992384,4.79273 -15.278824,10.56632 1.92634,-0.4357 9.36079,-4.96444 9.78211,-2.51489 -2.9863,0.42845 -7.5792,3.22039 -1.91172,3.41524 2.37798,1.22727 9.514464,0.37145 8.441724,3.73692 -13.285714,0 -26.571424,0 -39.857134,0 -6.15631,3.78531 -13.84599,4.61824 -20.78129,2.77657 -2.283664,-0.27588 -8.44431,-5.04617 -5.686958,0.17528 -0.797186,4.41032 -7.729071,3.27649 -11.040236,3.04131 z m 5.012563,-2.31244 c 2.506147,0.15806 5.718967,-2.73109 1.389362,-0.63034 6.471446,-3.2346 -6.099753,-5.35043 -7.673903,-1.40723 -1.247781,2.63838 4.99581,2.35533 6.284541,2.03757 z m 12.176941,-6.85352 c 6.67293,-1.85481 12.73134,-6.58433 15.48654,-13.02533 -11.19651,0.0933 -22.80146,0.46191 -33.393427,-3.76037 0.479235,4.15492 2.84899,8.58411 5.594161,11.95112 3.050757,3.49002 7.462912,6.73011 12.312726,4.83458 z m 32.23401,-4.96374 c 0.0439,-3.54433 -1.56543,-3.46605 -2.62166,-0.62231 0.70621,1.18103 1.61392,3.89067 2.20008,4.16099 0.21394,-1.16867 0.5022,-2.33987 0.42158,-3.53868 z M 27.42889,79.996351 c -0.565891,-2.36564 -2.54034,-5.49704 -1.759664,-1.10185 0.189645,2.4116 0.229446,7.15363 1.346367,2.45253 l 0.209413,-0.63224 z m 51.821806,-5.78639 c -1.15146,1.45504 -2.22456,4.15554 -0.45713,6.05775 1.0701,2.79157 0.64131,-5.75877 0.45713,-6.05775 z m -14.82466,-1.8798 c 4.55449,-0.96953 10.55378,-0.67327 13.7008,-4.2535 -11.41073,4.40299 -23.92201,4.1126 -35.925796,3.23543 -5.463646,-0.54149 -10.82708,-1.82646 -15.999742,-3.59954 1.568336,4.08647 9.497073,3.2712 13.553861,4.63243 8.141907,1.16057 16.488877,0.38093 24.670877,-0.0148 z m -2.98143,-2.41346 c 2.0499,-1.89074 0.98172,-5.5744 1.47264,-8.29067 -6.12941,0.60222 -12.91706,0.58974 -19.26798,0.10981 -5.889891,-0.51925 -11.706614,-1.7962 -17.289235,-3.6898 -0.101623,2.35612 -1.670598,6.48225 0.240925,8.00837 11.011658,4.48664 23.16517,4.52752 34.84365,3.86229 z m -2.79449,-10.81544 c 6.25689,-0.49345 12.61186,-1.39769 18.41208,-3.89813 0.12241,-1.51528 -6.57502,1.69214 -8.88546,1.41025 -12.94425,1.62752 -26.406549,1.70149 -39.001872,-2.06347 -3.955043,-2.11647 -2.042099,2.79974 1.110109,2.24702 9.177233,2.61808 18.893313,2.98639 28.365143,2.30433 z m 2.96144,-3.74638 c 2.71482,-1.301 -1.16827,-7.11243 -1.41807,-9.70539 -1.41957,-3.65688 -3.94258,-6.69798 -6.68264,-9.44168 -3.64669,0.21898 -7.2893,-0.54937 -10.875541,-0.60646 -6.905269,3.43263 -12.304257,9.61763 -14.945798,16.84862 8.617058,2.95212 17.779099,3.54283 26.817969,3.15756 2.36776,-0.0544 4.74445,-0.0392 7.10408,-0.25265 z m -9.09177,-23.60569 c -0.99031,-3.0327 1.85397,-2.43761 3.93733,-2.69071 5.66036,-1.20256 -2.2069,-2.68296 -4.26942,-1.72137 -2.35033,-0.0533 -8.2803,-1.23674 -7.34082,2.75633 -0.73732,2.91854 0.9225,4.2614 3.95687,3.93801 2.32336,-0.18325 4.43173,1.10409 3.71604,-2.28226 z m 1.10248,-5.26978 c -3.18632,-1.08978 -2.49371,1.14902 0,0 z m -23.35794,-8.84472 c 2.296853,-1.60646 -0.247232,5.98553 2.050735,1.11976 1.014176,-3.39349 8.316415,-8.633057 2.000627,-10.436126 -2.167736,-0.679768 -8.210586,-6.080097 -8.230123,-4.284488 1.825593,1.996513 2.778503,4.763626 -1.16044,3.400464 -3.55205,-0.608706 -1.993468,0.04264 -0.06934,1.477267 -2.852516,2.490808 -9.316436,5.586013 -10.298966,7.636233 4.498577,-0.0439 8.990313,-0.37329 13.488745,-0.39571 -0.974258,2.02781 -2.822276,5.73592 0.54774,2.68843 0.558941,-0.39922 1.120167,-0.79543 1.671022,-1.20583 z" /></svg>
