<?xml version="1.0" encoding="UTF-8" standalone="no"?>
<svg
   width="80.286018mm"
   height="84.910286mm"
   viewBox="0 0 80.286018 84.910286"
   version="1.1"
   xml:space="preserve"
   xmlns="http://www.w3.org/2000/svg"
   xmlns:svg="http://www.w3.org/2000/svg"><path
     style="fill:#000000"
     d="M 14.586956,0 12.765878,1.087272 C 11.76433,1.685262 10.379674,2.604354 9.6885473,3.129524 L 8.4317763,4.084505 6.0417413,2.792077 c -3.181324,-1.7199 -3.244727,-1.70465 -4.919597,1.19631 -1.70102497,2.94626 -1.68416697,2.999767 1.563212,4.874637 l 2.445329,1.411801 -2.025199,3.507796 c -1.41856,2.457014 -2.00292,3.667757 -1.951302,4.041617 0.06536,0.47321 1.427704,1.33826 12.0096027,7.62589 13.304648,7.90545 12.861569,7.56756 12.755293,9.7224 -0.0468,0.94873 -0.349474,1.61369 -2.176094,4.77749 l -2.122351,3.67523 7.687903,4.43848 c 8.22255,4.74729 8.33916,4.83576 8.7359,6.61872 0.13041,0.58608 -0.43077,3.11476 -1.9544,8.80877 -1.17542,4.39267 -2.23329,8.15378 -2.35128,8.35814 -0.11798,0.20436 -0.68034,0.64255 -1.24954,0.97359 -0.8141,0.47346 -1.03084,0.71961 -1.01544,1.15445 0.0181,0.51168 0.69172,0.94661 9.05888,5.85132 8.86792,5.1983 9.04903,5.29293 9.55446,4.97902 0.3642,-0.22621 0.8834,-1.11395 1.77146,-3.02875 1.93056,-4.16241 2.40929,-6.62188 3.0887,-15.85743 0.4634,-6.29936 0.56678,-6.91768 1.39217,-8.34729 0.77206,-1.33725 2.79256,-2.7206 4.24728,-2.90784 1.87538,-0.24138 3.0365,0.0657 5.92574,1.56735 1.5148,0.78727 2.87089,1.39996 3.01377,1.36167 0.14289,-0.0383 0.8842,-1.08244 1.64744,-2.32027 l 1.38803,-2.25051 1.48312,0.34107 c 0.81588,0.18757 2.35618,0.55583 3.42304,0.81803 l 1.93994,0.47646 0.52761,-0.91416 c 0.61451,-1.06436 0.71608,-0.88704 -2.20503,-3.84317 l -2.1177,-2.14302 1.79111,-5.22914 1.7911,-5.22914 -1.38906,-0.89297 -1.38906,-0.89245 -1.91668,0.58808 -1.9172,0.58808 L 45.802108,21.230228 19.02131,5.768123 19.12828,5.107698 C 19.243889,4.392598 18.943654,3.890374 18.115422,3.412194 17.802778,3.231694 17.569245,2.779618 17.542331,2.303218 17.500591,1.564568 17.378554,1.438225 16.042164,0.749825 Z M 3.2424283,3.226676 5.5337613,4.549593 c 2.138606,1.23472 2.27368,1.353596 2.02675,1.781286 -0.235185,0.40736 -0.463119,0.361004 -2.049487,-0.419096 L 3.7266373,5.033801 3.1974703,5.798095 c -0.766126,1.10591 -1.04533,1.286918 -1.446423,0.939478 -0.299609,-0.25958 -0.208755,-0.566501 0.56689,-1.909961 z m 8.4232587,1.588017 c 1.293987,0.178727 6.720537,3.338008 30.776411,17.232025 29.39134,16.97602 30.29318,17.51358 30.98984,18.48724 0.88692,1.2395 1.2908,2.66199 0.93225,3.28301 -0.37031,0.64141 -0.61204,0.43585 -1.34204,-1.14257 l -0.62632,-1.35496 -30.62759,-17.76222 C 13.811917,7.343875 11.147049,5.755189 11.212485,5.342309 c 0.05001,-0.315522 0.02187,-0.587192 0.453202,-0.527616 z m -3.4483677,7.612455 c 0.539996,-0.0014 4.3338827,2.11947 21.2912057,11.84734 l 21.171833,12.14551 0.90176,-1.40353 0.90175,-1.40353 1.24695,0.81132 1.24747,0.81132 -0.91105,4.0566 c -0.5009,2.2313 -1.00093,4.1119 -1.11156,4.17907 -0.1106,0.0672 -9.69927,-5.39995 -21.30775,-12.14913 L 10.541724,19.051038 9.4342993,17.342098 c -1.086027,-1.675624 -1.728377,-4.119568 -1.284677,-4.888078 0.01001,-0.01734 0.0317,-0.02678 0.0677,-0.02687 z m 29.5961287,10.41538 c 0.59055,-0.0514 1.3998,0.38844 5.74383,2.89647 4.9646,2.86631 5.28128,3.08473 5.46375,3.76566 0.1199,0.44749 0.0174,1.028 -0.26923,1.52446 -0.28663,0.49646 -0.73849,0.8759 -1.18598,0.9958 -0.67976,0.18214 -1.02856,0.0176 -5.8477,-2.76469 -4.83752,-2.79294 -5.14285,-3.00485 -5.45393,-3.7822 -0.41294,-1.03183 0.22397,-2.29959 1.30018,-2.58795 0.0851,-0.0228 0.16471,-0.0402 0.24908,-0.0476 z m 18.54874,13.17905 c 0.18551,0.0249 0.56185,0.18481 0.96945,0.42012 l 0.98857,0.57 -0.89349,3.838 c -0.49132,2.11081 -0.95068,4.05416 -1.02061,4.3186 -0.11084,0.41912 -0.24951,0.39771 -1.08262,-0.16691 l -0.9555,-0.64751 0.89039,-4.06848 c 0.48977,-2.23772 0.93441,-4.14654 0.98805,-4.2416 0.0134,-0.0237 0.0539,-0.0305 0.11576,-0.0222 z m -25.26203,0.11265 c 1.11785,0.0518 4.73776,2.08209 5.33094,2.99 1.00039,1.53106 0.32581,4.18139 -1.3348,5.24567 -0.94131,0.60328 -2.43911,0.73223 -3.56102,0.30644 -0.77411,-0.29378 -0.920537,-0.26096 -1.062987,0.23875 -0.0908,0.31873 -0.270519,0.60782 -0.399459,0.64234 -0.44962,0.12048 -2.728188,-1.38042 -3.255615,-2.14457 -0.817163,-1.18391 -0.706569,-2.27417 0.427881,-4.22559 1.190558,-2.04812 2.536653,-3.1142 3.85506,-3.05304 z m 28.63598,1.78439 c 0.17917,0.0419 0.44713,0.16897 0.82217,0.3855 0.58059,0.33521 1.03002,0.65356 0.99891,0.70745 -0.0311,0.0539 -0.441,1.83561 -0.91106,3.95945 -0.47006,2.12384 -0.93299,3.99748 -1.02888,4.16357 -0.11495,0.1991 -0.48375,0.12355 -1.08262,-0.22221 l -0.90847,-0.52451 0.88212,-3.99717 c 0.48525,-2.19832 0.90766,-4.15424 0.93844,-4.34651 0.0199,-0.12418 0.11022,-0.16746 0.28939,-0.12557 z m 3.39617,1.97972 c 0.17132,0.0183 0.41333,0.13074 0.78032,0.34262 0.53707,0.31008 0.89314,0.67534 0.85059,0.87281 -1.2928,5.9995 -1.76685,7.95879 -1.9482,8.05636 -0.1218,0.0656 -0.58034,-0.1301 -1.01906,-0.4346 l -0.79737,-0.55346 0.78187,-3.8256 c 0.43009,-2.10414 0.87802,-4.01112 0.99529,-4.23747 0.0847,-0.16351 0.18525,-0.239 0.35656,-0.22066 z m -55.7133897,0.52607 -1.869137,5.56193 c -1.027813,3.05898 -2.614003,7.76213 -3.524849,10.45156 -0.910834,2.68944 -1.65571297,4.92032 -1.65571297,4.95732 0,0.0369 1.17302797,0.0799 2.60707597,0.0961 l 2.607593,0.0295 -1.518254,4.71238 c -0.835111,2.59183 -2.005028,6.19227 -2.599841,8.00054 -0.59478897,1.80826 -1.11270397,3.38623 -1.15083397,3.50677 -0.08914,0.28232 0.194088,-0.0518 2.13578597,-2.52026 0.853428,-1.08497 2.214028,-2.81127 3.023589,-3.83595 1.349769,-1.70844 4.002057,-5.0813 6.2476797,-7.94525 0.496246,-0.63289 1.68356,-2.14514 2.638082,-3.36052 2.503,-3.18708 3.483766,-4.45379 3.525366,-4.55269 0.02009,-0.048 -1.591535,-0.0873 -3.581177,-0.0873 h -3.61735 l 0.911056,-1.89033 c 0.500965,-1.03976 1.834361,-3.76444 2.963126,-6.05492 1.128752,-2.29046 2.36507,-4.81807 2.747636,-5.61671 l 0.695565,-1.45211 h -5.2927 z m 58.8010597,1.27175 c 0.177,0.028 0.52924,0.20237 0.90641,0.45889 l 0.91415,0.62167 -0.8077,3.95583 c -0.44415,2.17563 -0.88688,4.09315 -0.98392,4.26124 -0.12561,0.21755 -0.44307,0.12449 -1.10226,-0.32298 l -0.92604,-0.62838 0.89039,-4.06849 c 0.48978,-2.23772 0.93798,-4.15274 0.9958,-4.25504 0.0145,-0.0256 0.0542,-0.0321 0.11317,-0.0227 z m -26.8459,0.0129 c 0.43036,-0.11532 0.90669,1.69433 0.84646,3.21634 -0.10129,2.56019 -1.56475,3.94027 -3.91449,3.69177 -0.92093,-0.0974 -3.12379,-1.21748 -2.94298,-1.49655 0.0598,-0.0915 0.55413,-0.18406 1.09968,-0.20516 1.65381,-0.064 2.82822,-0.79857 3.70468,-2.31665 0.42107,-0.72931 0.82062,-1.66599 0.8878,-2.08153 0.0672,-0.41554 0.21064,-0.77923 0.31885,-0.80822 z m 30.0302,1.8986 c 0.19521,-0.0571 0.69642,0.21412 1.94924,0.99322 l 1.99471,1.24023 -1.84847,3.34863 c -1.01652,1.84186 -1.9763,3.45298 -2.1332,3.58015 -0.46624,0.37763 -1.66155,-0.47464 -1.63918,-1.16892 0.0108,-0.33417 0.35336,-2.14172 0.7612,-4.01681 0.40786,-1.8751 0.77065,-3.5929 0.80615,-3.81682 0.0135,-0.0852 0.0445,-0.14066 0.10955,-0.15968 z m 5.39709,5.73401 c 0.0724,-0.003 0.14559,0.0231 0.22738,0.0713 0.76888,0.45315 3.33018,3.03413 3.27577,3.30005 -0.0457,0.22336 -3.6942,-0.63329 -4.69688,-1.10277 -0.20387,-0.0954 -0.0878,-0.50985 0.36071,-1.28675 0.40695,-0.70485 0.61598,-0.9732 0.83302,-0.98185 z m -17.10283,2.49546 c 0.30899,0.0202 0.52432,0.15377 0.59583,0.42064 0.0821,0.3065 -0.10762,0.5331 -0.74828,0.89452 -1.81206,1.02227 -2.29202,1.4251 -3.15329,2.64687 -1.1133,1.57929 -1.44457,3.04366 -1.71669,7.5892 -0.43341,7.23965 -1.35745,12.91128 -2.64946,16.26206 -0.59436,1.54144 -0.8439,1.96941 -1.23351,2.11356 -0.5897,0.21825 -0.76281,0.13668 -0.91519,-0.43201 -0.0639,-0.23854 0.035,-0.69718 0.21962,-1.01906 0.56133,-0.97825 1.58647,-4.73712 2.0743,-7.60367 0.25363,-1.49036 0.65824,-5.27692 0.89917,-8.41447 0.49523,-6.44924 0.97625,-8.29552 2.64169,-10.1384 1.28541,-1.42237 3.05882,-2.37977 3.98581,-2.31924 z" /></svg>
