<?xml version="1.0" encoding="UTF-8" standalone="no"?>
<!-- Created with Inkscape (http://www.inkscape.org/) -->

<svg
   width="80.286057mm"
   height="84.909843mm"
   viewBox="0 0 80.286057 84.909843"
   version="1.1"
   id="svg1"
   xml:space="preserve"
   xmlns="http://www.w3.org/2000/svg"
   xmlns:svg="http://www.w3.org/2000/svg"><defs
     id="defs1" /><g
     id="layer1"
     transform="translate(-72.503616,-108.20217)"><path
       style="fill:#000000"
       d="m 122.59052,193.00952 c 0.3642,-0.22621 0.88347,-1.11397 1.77153,-3.02877 1.93056,-4.16241 2.4096,-6.62153 3.08901,-15.85708 0.4634,-6.29936 0.56652,-6.91781 1.39191,-8.34742 0.77206,-1.33725 2.79262,-2.72055 4.24734,-2.90779 1.87538,-0.24138 3.03629,0.0657 5.92553,1.56732 1.5148,0.78727 2.87107,1.4001 3.01395,1.36181 0.14289,-0.0383 0.88427,-1.08239 1.64751,-2.32022 l 1.38773,-2.25062 1.48343,0.34104 c 0.81588,0.18757 2.35632,0.55556 3.42318,0.81776 l 1.93975,0.47672 0.52771,-0.91403 c 0.61451,-1.06436 0.71598,-0.88748 -2.20513,-3.84361 l -2.11766,-2.14304 1.79115,-5.22893 1.79115,-5.22893 -1.38914,-0.8929 -1.38914,-0.89289 -1.91689,0.58806 -1.91689,0.58807 -26.78081,-15.46191 -26.780834,-15.46192 0.106775,-0.66048 c 0.115609,-0.7151 -0.184359,-1.2174 -1.012591,-1.69558 -0.312644,-0.1805 -0.546263,-0.63247 -0.573177,-1.10887 -0.04174,-0.73865 -0.163997,-0.86525 -1.500387,-1.55365 l -1.454944,-0.74949 -1.820999,1.08725 c -1.001548,0.59799 -2.386451,1.51693 -3.077578,2.0421 l -1.256568,0.95484 -2.390341,-1.29231 c -3.181324,-1.7199 -3.244553,-1.70453 -4.919423,1.19643 -1.701025,2.94626 -1.683937,2.99947 1.563442,4.87434 l 2.445162,1.41172 -2.025235,3.50781 c -1.41856,2.45701 -2.003127,3.66771 -1.951509,4.04157 0.06536,0.47321 1.427962,1.33844 12.009861,7.62607 13.304648,7.90545 12.861544,7.56771 12.755268,9.72255 -0.0468,0.94873 -0.349681,1.61362 -2.176301,4.77742 l -2.121935,3.6753 7.687434,4.43834 c 8.22255,4.74729 8.33938,4.83576 8.73612,6.61872 0.13041,0.58608 -0.43056,3.1147 -1.95419,8.80871 -1.17542,4.39267 -2.23365,8.15386 -2.35164,8.35822 -0.11798,0.20436 -0.68022,0.6424 -1.24942,0.97344 -0.8141,0.47346 -1.03073,0.71982 -1.01533,1.15466 0.0181,0.51168 0.69161,0.94672 9.05877,5.85143 8.86792,5.1983 9.04897,5.29256 9.5544,4.97865 z m -2.20911,-3.47569 c -0.0639,-0.23854 0.0349,-0.69706 0.21952,-1.01894 0.56133,-0.97825 1.58687,-4.7372 2.0747,-7.60375 0.25363,-1.49036 0.65827,-5.27683 0.8992,-8.41438 0.49523,-6.44924 0.97627,-8.29536 2.64171,-10.13824 1.71387,-1.89649 4.29512,-2.96645 4.58115,-1.89896 0.0821,0.3065 -0.10755,0.53334 -0.74821,0.89476 -1.81206,1.02227 -2.29165,1.42485 -3.15292,2.64662 -1.1133,1.57929 -1.44458,3.04386 -1.7167,7.5894 -0.43341,7.23965 -1.35745,12.91122 -2.64946,16.262 -0.59436,1.54144 -0.84423,1.96951 -1.23384,2.11366 -0.5897,0.21825 -0.76282,0.13649 -0.9152,-0.4322 z M 99.32088,151.61472 c -0.817163,-1.18391 -0.706858,-2.27387 0.427592,-4.22529 1.190558,-2.04812 2.537038,-3.11431 3.855448,-3.05315 1.11785,0.0518 4.7374,2.08205 5.33058,2.98996 1.00039,1.53106 0.32618,4.18133 -1.33443,5.24561 -0.94131,0.60328 -2.43954,0.73217 -3.56145,0.30638 -0.77411,-0.29378 -0.92043,-0.26091 -1.06288,0.2388 -0.0908,0.31873 -0.27063,0.60776 -0.39957,0.64228 -0.44962,0.12048 -2.727892,-1.38041 -3.255319,-2.14456 z m 6.54558,3.70762 c 0.0598,-0.0915 0.5544,-0.18401 1.09995,-0.20511 1.65381,-0.064 2.82825,-0.79826 3.70471,-2.31634 0.42107,-0.72931 0.82053,-1.666 0.88771,-2.08154 0.0672,-0.41554 0.21067,-0.77925 0.31888,-0.80824 0.43036,-0.11532 0.90649,1.69411 0.84626,3.21612 -0.10129,2.56019 -1.56487,3.94055 -3.91461,3.69205 -0.92093,-0.0974 -3.12371,-1.21787 -2.9429,-1.49694 z m 34.36451,4.48043 c 0.0108,-0.33417 0.35327,-2.14176 0.76111,-4.01685 0.40786,-1.8751 0.77059,-3.59248 0.80609,-3.8164 0.054,-0.34096 0.38868,-0.20555 2.0591,0.83325 l 1.99459,1.24038 -1.84832,3.34878 c -1.01652,1.84186 -1.97675,3.45282 -2.13365,3.57999 -0.46624,0.37763 -1.66128,-0.47489 -1.63891,-1.16917 z m -2.61631,-5.62712 c 0.48978,-2.23772 0.93781,-4.15229 0.99563,-4.25459 0.0579,-0.10226 0.51658,0.0938 1.01947,0.43583 l 0.91432,0.62188 -0.80756,3.95571 c -0.44415,2.17563 -0.88695,4.09322 -0.98399,4.26131 -0.12561,0.21755 -0.44322,0.12451 -1.10241,-0.32296 l -0.92595,-0.62859 z m -3.33075,-1.61749 c 0.43009,-2.10414 0.87793,-4.01092 0.9952,-4.23727 0.1694,-0.32702 0.40296,-0.302 1.13693,0.12175 0.53707,0.31008 0.8931,0.67549 0.85055,0.87296 -1.2928,5.9995 -1.76653,7.95882 -1.94788,8.05639 -0.1218,0.0656 -0.58044,-0.12996 -1.01916,-0.43446 l -0.79762,-0.55369 z m -3.27194,-1.96538 c 0.48525,-2.19832 0.90748,-4.15425 0.93826,-4.34652 0.0398,-0.24836 0.36152,-0.17317 1.11161,0.25989 0.58059,0.33521 1.03017,0.65355 0.99906,0.70744 -0.0311,0.0539 -0.44115,1.83567 -0.91121,3.95951 -0.47006,2.12384 -0.9331,3.99742 -1.02899,4.16351 -0.11495,0.1991 -0.48382,0.12331 -1.08269,-0.22245 l -0.90834,-0.52443 z m -3.25018,-2.10563 c 0.48977,-2.23772 0.93438,-4.14635 0.98802,-4.24141 0.0537,-0.095 0.54217,0.0839 1.08563,0.39765 l 0.98809,0.57048 -0.89329,3.83783 c -0.49132,2.11081 -0.95052,4.05419 -1.02045,4.31863 -0.11084,0.41912 -0.24972,0.39773 -1.08283,-0.16689 l -0.95565,-0.6477 z M 81.937911,125.54414 c -1.086027,-1.67562 -1.728353,-4.11978 -1.284653,-4.88829 0.16016,-0.27741 3.2712,1.44433 21.359012,11.82072 l 21.17154,12.14545 0.90173,-1.40365 0.90174,-1.40365 1.24721,0.8113 1.24722,0.8113 -0.91072,4.05691 c -0.5009,2.2313 -1.00123,4.11186 -1.11186,4.17903 -0.1106,0.0672 -9.69899,-5.39994 -21.30747,-12.14912 l -21.10635,-12.2712 z m 64.533889,32.98147 c 0.5426,-0.93981 0.73313,-1.10341 1.06028,-0.91041 0.76888,0.45315 3.33046,3.03368 3.27605,3.2996 -0.0457,0.22336 -3.69448,-0.63328 -4.69716,-1.10276 -0.20387,-0.0954 -0.0877,-0.50953 0.36083,-1.28643 z m -71.650293,-45.49595 0.92423,-1.60082 2.291356,1.32292 c 2.138606,1.23472 2.273714,1.35349 2.026784,1.78118 -0.235185,0.40736 -0.462885,0.36076 -2.049253,-0.41934 l -1.78466,-0.87762 -0.529103,0.76383 c -0.766126,1.10591 -1.045428,1.28739 -1.446521,0.93995 -0.299609,-0.25958 -0.208435,-0.56662 0.56721,-1.91008 z m 33.946053,20.65007 c -0.41294,-1.03183 0.22393,-2.29949 1.30014,-2.58785 0.68095,-0.18246 1.02837,-0.0173 5.99298,2.84902 4.9646,2.86631 5.28134,3.08463 5.46381,3.76556 0.1199,0.44749 0.0173,1.02837 -0.26933,1.52483 -0.28663,0.49646 -0.73839,0.87576 -1.18588,0.99566 -0.67976,0.18214 -1.02837,0.0173 -5.84751,-2.76503 -4.83752,-2.79294 -5.14313,-3.00484 -5.45421,-3.78219 z m 36.7582,17.19646 -0.62652,-1.35464 -30.62749,-17.76246 C 86.315424,115.54575 83.650518,113.9572 83.715954,113.54432 c 0.200048,-1.26209 -0.84493,-1.82104 31.229576,16.70431 29.39134,16.97602 30.29316,17.51355 30.98982,18.48721 0.88692,1.2395 1.29094,2.66212 0.93239,3.28314 -0.37031,0.64141 -0.61198,0.43562 -1.34198,-1.1428 z"
       id="path1" /></g></svg>
