<?xml version="1.0" encoding="UTF-8" standalone="no"?>
<!-- Created with Inkscape (http://www.inkscape.org/) -->

<svg
   width="88.739311mm"
   height="80.159447mm"
   viewBox="0 0 88.739311 80.159447"
   version="1.1"
   id="svg1"
   xml:space="preserve"
   xmlns="http://www.w3.org/2000/svg"
   xmlns:svg="http://www.w3.org/2000/svg"><defs
     id="defs1" /><path
     style="fill:#000000"
     d="m 77.416751,79.994495 c 0.15129,-0.15664 0.51508,-1.17569 0.80849,-2.26451 1.54278,-5.72509 4.90496,-11.39571 9.64109,-16.2606 0.7094,-0.7287 0.92543,-1.10469 0.86267,-1.5022 -0.0772,-0.49103 -3.16076,-3.04732 -5.44948,-4.51758 -0.64883,-0.41664 -0.79844,-0.6583 -0.63972,-1.03224 0.34791,-0.8196 0.11175,-2.12671 -0.48936,-2.70879 -0.3134,-0.30344 -4.04434,-2.51124 -8.29102,-4.90616 l -7.72124,-4.3544 -0.89034,0.35972 c -0.61413,0.24814 -1.08228,0.69992 -1.50897,1.45621 -0.55024,0.97524 -0.72404,1.09587 -1.57214,1.09109 -0.52445,-0.003 -1.36358,-0.17943 -1.86474,-0.39216 -0.79384,-0.33693 -0.98447,-0.61029 -1.47983,-2.12197 -1.40375,-4.28362 -2.85073,-7.36679 -4.50055,-9.5896 -1.66642,-2.24516 -1.78475,-2.56942 -1.10829,-3.03666 0.28333,-0.19569 0.8288,0.10358 3.01794,1.65569 1.57373,1.11584 3.21466,2.08882 3.99185,2.36752 1.26339,0.45273 1.35827,0.44014 2.22041,-0.29451 0.72636,-0.61895 1.10739,-1.25454 1.96926,-3.28487 1.50891,-3.55476 1.56476,-3.47164 -3.77656,-5.62052 -3.71876,-1.49604 -4.14876,-1.6173 -5.03769,-1.42021 l -0.97188,0.21548 -3.56098,-2.06402 c -1.95846,-1.13534 -3.97298,-2.24068 -4.47664,-2.45638 -0.55998,-0.23994 -1.29242,-0.88187 -1.88544,-1.65253 -1.4766,-1.91895 -3.647984,-3.89371 -4.413398,-4.01371 -1.019282,-0.15981 -2.347688,0.66631 -3.314669,2.06135 -1.230023,1.77454 -1.558836,3.15629 -0.998435,4.1957 l 0.452284,0.83888 -0.808924,-0.34222 c -0.444955,-0.18807 -5.848209,-3.25704 -12.007238,-6.81991 -6.159039,-3.56285 -11.282409,-6.5136999 -11.385313,-6.5573799 -0.103027,-0.0434 0.203992,-1.15351 0.681955,-2.46628 0.730531,-2.00652 0.821223,-2.50518 0.569073,-3.12925 -0.360064,-0.89121004 -1.964957,-1.67663004 -2.765248,-1.35329004 -0.289138,0.11683 -1.07869,1.00751004 -1.754551,1.97932004 -0.67594,0.97176 -1.324797,1.81567 -1.442073,1.87528 -0.117311,0.0596 -0.973846,-0.33407 -1.903481,-0.87489 -1.380422,-0.80276 -1.853446,-0.9709 -2.580138,-0.91571 -1.993035,0.15141 -3.82682104,3.57932 -2.67799104,5.00589 0.208086,0.25841 2.31188504,1.61034 4.67510604,3.0043399 2.36321,1.39396 4.317505,2.58578 4.342843,2.64852 0.02531,0.0628 -0.217748,0.39115 -0.541382,0.72918 -0.722007,0.75609 -0.930886,1.89346 -0.456093,2.48303 0.195292,0.24249 4.998556,3.32099 10.673971,6.84102 5.675391,3.52008 11.376241,7.07614 12.668552,7.90239 l 2.349661,1.50229 -0.18836,1.22334 c -0.103598,0.67286 -0.108154,1.74649 -0.01012,2.38587 0.194821,1.2706 1.571907,4.0072 2.137213,4.24716 0.194748,0.0826 0.678964,0.983 1.076042,2.00074 0.600123,1.5382 0.92185,1.99097 1.906527,2.68312 1.755647,1.23409 4.184597,1.59149 5.735997,0.84398 0.89144,-0.42951 2.01011,-1.44001 2.2853,-2.06431 0.24442,-0.55455 0.24662,-0.55316 0.54534,0.34696 0.81017,2.44047 -0.47769,7.46093 -2.74611,10.70508 -0.5967,0.85332 -1.07458,1.57095 -1.062,1.59471 0.0126,0.0237 1.48733,0.55442 3.27723,1.17929 3.55737,1.24189 5.67042,1.81498 8.44162,2.28943 1.70578,0.29205 1.82536,0.27049 2.101,-0.37889 0.49675,-1.17025 1.23639,-1.76238 1.86708,-1.49468 0.31318,0.13289 1.09623,0.96195 1.74016,1.84226 0.64392,0.88031 3.51319,4.7666 6.37616,8.63618 2.86296,3.8696 5.92576,8.03604 6.80621,9.25873 1.60183,2.2245 2.54276,2.97517 3.05899,2.44047 z m -37.95854,-37.86855 c -1.289928,-2.34528 0.313618,-5.30963 2.38973,-4.41755 1.25709,0.54012 1.73795,1.0556 1.80473,1.93413 0.0887,1.16764 -0.40356,2.18387 -1.29552,2.67445 -0.974602,0.53604 -0.7233,0.8809 0.51063,0.70077 1.14866,-0.16769 1.80673,-0.94077 2.00733,-2.3582 0.0804,-0.56826 0.23438,-0.99576 0.34213,-0.95002 0.42221,0.17911 0.47445,1.53516 0.0938,2.43198 -0.31803,0.74924 -0.64456,1.04281 -1.58042,1.42092 -1.05369,0.42573 -1.32161,0.41629 -2.510606,-0.0884 -0.981018,-0.41641 -1.444102,-0.77129 -1.761727,-1.34806 z m 41.73025,15.87591 c -1.14747,-0.74447 -2.2555,-1.33362 -2.4623,-1.30926 -0.20678,0.0243 0.0995,-0.16831 0.6818,-0.42743 0.94269,-0.42035 1.15128,-0.41189 1.91716,0.0777 1.28172,0.81933 4.15527,2.98782 4.24121,3.2005 0.19814,0.49041 -0.95348,0.67323 -1.6038,0.25463 -0.37837,-0.24328 -1.62666,-1.05162 -2.77381,-1.79656 z m -23.59394,-11.47075 c -0.44599,-0.45504 -1.32235,-2.25993 -2.18047,-4.49075 -0.93824,-2.43906 -1.95493,-4.4965 -2.93775,-5.94495 -1.76456,-2.60057 -2.50614,-3.39404 -4.73058,-5.06166 -1.79104,-1.34271 -2.3764,-1.69999 -7.092143,-4.32896 -9.388933,-5.23423 -19.83213,-11.30988 -23.742357,-13.81285 -1.056514,-0.67661 -4.478978,-2.70481 -7.6052,-4.5076299 -5.792768,-3.34099 -6.420616,-3.75579 -6.258097,-4.1387 0.161056,-0.37935 1.553817,0.36673 11.761522,6.3004899 9.960992,5.79035 20.044456,11.56574 28.157295,16.12639 2.36122,1.32734 5.04577,2.98419 5.96573,3.68177 3.68523,2.79423 6.41729,7.09882 7.90731,12.45855 0.89332,3.21341 2.26662,4.26757 5.74754,4.41187 1.77232,0.0735 1.88818,0.11006 2.01113,0.63527 0.1183,0.50535 -0.0806,0.53923 -2.13335,0.36349 -2.64506,-0.22646 -3.84125,-0.64208 -4.8706,-1.69231 z m 14.50858,2.29573 c -3.23285,-1.8494 -5.95482,-3.33143 -6.04881,-3.29346 -0.23436,0.0947 -0.61908,-0.69257 -0.48863,-0.99989 0.12218,-0.28781 0.61185,-0.0302 8.98849,4.72795 3.28042,1.86336 6.0449,3.5018 6.14338,3.64088 0.0985,0.13906 0.12857,0.37168 0.067,0.51681 -0.12578,0.29626 0.0139,0.37036 -8.66139,-4.59231 z m -33.317049,-26.4915 c -1.01557,-0.4564 -0.04407,-0.49847 1.775987,-0.0768 2.539052,0.5882 2.813882,0.74145 2.529812,1.4107 -0.13266,0.31258 -0.31463,0.59815 -0.40482,0.63437 -0.09,0.0363 -0.87143,-0.33188 -1.736612,-0.81815 -0.86517,-0.48634 -1.839096,-1.00395 -2.164403,-1.15008 z m 9.122629,0.31839 c -1.44275,-0.70643 -1.89822,-1.10518 -1.46231,-1.28149 0.25518,-0.10309 4.65292,2.3549 5.80829,3.24637 1.40539,1.08439 0.50772,0.96351 -1.21766,-0.16396 -0.9037,-0.59046 -2.31142,-1.4009 -3.12856,-1.80051 z m 6.71286,2.97063 c 0.0507,-0.11942 0.5815,-0.20692 1.17961,-0.19448 1.5314,0.0319 7.32808,2.33681 7.42231,2.95133 0.11138,0.72635 -0.2066,0.70452 -1.87841,-0.12888 -0.88366,-0.44054 -2.52591,-1.07308 -3.64943,-1.40569 -2.84452,-0.84213 -3.17899,-0.97511 -3.07407,-1.2223 z m -13.11792,-7.52433 c -1.300487,-1.17885 -2.072587,-2.05807 -1.98615,-2.26171 0.07828,-0.18438 0.385231,-0.22732 0.687539,-0.0961 0.760508,0.33042 4.505201,4.3026 4.470101,4.74229 -0.0344,0.43021 -0.22233,0.28888 -3.17149,-2.38443 z M 10.866011,2.0790251 c 0.137254,-0.32333 0.850062,0.19495 0.817986,0.59476 -0.01668,0.20709 -0.188175,0.20053 -0.471502,-0.0181 -0.244966,-0.18901 -0.400886,-0.44852 -0.346484,-0.57667 z"
     id="path1" /></svg>
