<?xml version="1.0" encoding="UTF-8" standalone="no"?>
<svg
   width="93.507866mm"
   height="91.896378mm"
   viewBox="0 0 93.507866 91.896378"
   version="1.1"
   xml:space="preserve"
   xmlns="http://www.w3.org/2000/svg"
   xmlns:svg="http://www.w3.org/2000/svg"><path
     style="fill:#000000;stroke-width:0.543371"
     d="m 12.217477,0.0014264 c -0.70095,-0.03449 -1.422675,0.554198 -2.6499684,2.023133 l -1.13378,1.357023 -2.222604,-1.178223 c -2.12758,-1.1279 -2.264134,-1.163935 -3.195154,-0.837675 -0.91817,0.32175 -1.030024,0.45493 -1.998844,2.37815 -1.14557999,2.27409 -1.27967699,3.121152 -0.62166699,3.928442 0.24633,0.3022 2.06528999,1.483179 4.04212999,2.6241286 l 3.594613,2.074292 -1.279509,2.04432 c -1.16465,1.86123 -1.261694,2.120095 -1.082104,2.885095 0.10851,0.46216 0.485681,1.076501 0.838191,1.365291 0.35252,0.28874 5.6636314,3.612682 11.8023814,7.386632 6.13875,3.77395 11.461232,7.05678 11.827702,7.29516 0.36647,0.23837 2.462028,1.57089 4.657078,2.96106 3.94888,2.50092 3.9931,2.5371 4.16202,3.43441 0.10201,0.54181 -0.10691,1.8671 -0.51883,3.29231 -0.9904,3.42667 -0.87106,3.67736 2.93212,6.15311 3.15661,2.05487 4.64364,2.65299 5.72782,2.30374 0.33455,-0.10777 1.11294,-0.73442 1.72961,-1.39268 1.33817,-1.42844 2.02321,-1.88559 2.79052,-1.86087 0.85531,0.0275 1.125,0.54069 1.31827,2.50992 0.31322,3.19106 -0.88151,8.23824 -3.08353,13.02505 -1.0778,2.34297 -0.91614,3.07307 0.91415,4.12843 2.46912,1.42323 6.93436,3.36436 7.9282,3.44578 1.35831,0.11129 1.87457,-0.30013 2.77296,-2.20865 0.42436,-0.90141 0.81315,-1.61481 0.86403,-1.58543 0.0509,0.0294 1.47325,2.37439 3.16053,5.21105 7.39585,12.43398 10.89386,18.15097 11.36313,18.57044 0.27706,0.24772 0.78405,0.48726 1.12603,0.53279 1.32834,0.17671 1.63007,-0.18042 7.97677,-9.45162 3.33898,-4.87758 6.43114,-9.45697 6.87194,-10.17612 1.21157,-1.9765 1.09133,-2.19768 -2.85048,-5.22966 -1.80224,-1.38624 -6.44837,-5.03332 -10.32443,-8.10441 -3.87605,-3.07108 -7.38239,-5.77723 -7.79177,-6.01359 -0.72449,-0.41828 -1.25658,-0.33655 -4.2876,0.65629 -0.34666,0.11356 -0.9181,0.005 -1.38286,-0.26407 -1.32525,-0.76513 -1.77709,-2.03797 -1.81591,-5.11803 -0.0485,-3.84419 -0.43416,-6.15143 -1.56476,-9.36067 -1.03428,-2.93587 -2.84695,-5.91548 -4.74441,-7.79849 -1.67907,-1.66626 -4.97024,-3.68885 -12.29021,-7.55199 C 34.118052,17.301059 19.085626,9.2295084 15.811056,7.3637684 l -3.218408,-1.833997 0.54932,-1.861385 c 0.59751,-2.02515 0.53663,-3.009236 -0.21239,-3.434416 -0.247027,-0.140315 -0.478451,-0.221046 -0.712101,-0.232544 z m -0.155029,1.701705 c 0.05036,0.0085 0.0036,0.156978 -0.132809,0.393258 -0.1819,0.31506 -0.30854,0.413825 -0.28112,0.219625 0.0274,-0.19423 0.17622,-0.451745 0.33073,-0.572575 h 5.16e-4 c 0.03863,-0.03021 0.0659,-0.04314 0.08268,-0.04031 z m -1.338937,1.105876 c 0.154224,-0.02051 0.437438,0.06563 0.726571,0.232544 0.40894,0.2361 0.587164,0.466451 0.427364,0.552421 -0.15062,0.0811 -0.525921,0.0018 -0.833541,-0.1757 -0.30762,-0.1776 -0.499607,-0.425874 -0.426847,-0.551904 0.0182,-0.0315 0.05504,-0.05052 0.106453,-0.057361 z m -6.8094034,0.416512 c 0.783844,0.112868 4.627771,2.147489 19.5094034,10.2272826 8.525261,4.62869 13.390021,7.377749 13.449311,7.599019 0.0511,0.19065 -0.0624,0.472022 -0.25218,0.625802 -0.29995,0.24294 -1.12068,-0.162731 -6.269905,-3.100586 -3.25869,-1.85923 -8.750319,-4.916661 -12.203389,-6.793901 C 8.9947676,6.8073464 3.6641546,3.6621304 3.7420246,3.2828804 v -5.17e-4 c 0.01034,-0.05031 0.0601,-0.07297 0.172083,-0.05684 z m 4.930448,11.0086296 c 0.576242,0.05355 2.8088234,1.298111 11.5553674,6.347933 9.99607,5.771233 11.433619,6.659443 11.318169,6.992853 -0.11617,0.3354 -1.542464,-0.43242 -11.715044,-6.305556 C 9.8304776,15.396254 8.4524556,14.544844 8.6848756,14.276524 c 0.02887,-0.03334 0.07736,-0.05002 0.15968,-0.04237 z m 29.9635464,7.635193 c 0.21206,-0.03518 0.48672,0.02528 0.91674,0.165882 0.5654,0.18487 4.46002,2.369721 8.65425,4.855001 8.49939,5.03629 8.7065,5.20212 10.97866,8.80928 1.02853,1.63284 3.31015,7.91125 2.75952,7.59334 -0.13653,-0.0788 -0.24473,-0.022 -0.24029,0.12609 0.004,0.14814 -0.31599,0.33902 -0.71211,0.42426 -0.39611,0.0852 -1.71645,0.57882 -2.93418,1.09657 -1.21774,0.51775 -2.26294,0.91258 -2.32286,0.87799 -0.0599,-0.0346 0.66368,-0.40696 1.60817,-0.82786 0.94448,-0.42089 2.13948,-0.89611 2.65565,-1.05627 l 0.93845,-0.29145 -0.36174,-0.90331 c -0.19899,-0.49689 -0.58673,-1.55164 -0.86144,-2.34352 -1.14483,-3.30018 -2.72875,-5.95677 -4.61368,-7.73803 -1.58025,-1.49335 -5.62351,-4.27449 -10.5022,-7.22333 l -4.54339,-2.74609 -0.59273,0.36845 c -0.34489,0.2142 -0.8444,0.24881 -1.19527,0.0832 -0.52352,-0.24706 -0.54667,-0.36062 -0.17312,-0.862476 0.17996,-0.241795 0.32951,-0.372552 0.54157,-0.407727 z m 1.87585,2.587953 c 0.32629,-0.28933 7.5246,3.78555 7.31842,4.1429 -0.23791,0.41237 -0.64509,0.41122 -1.05937,-0.004 -0.21565,-0.21595 -1.76592,-1.1877 -3.44526,-2.15956 v -5.2e-4 c -2.19346,-1.26986 -2.98576,-1.82674 -2.81379,-1.97921 z m -3.94187,3.14761 c 0.0859,0.0454 0.22514,0.28806 0.39739,0.76327 0.45542,1.25664 1.54809,2.11219 5.15679,4.03851 2.57751,1.37589 3.01894,1.53742 3.92069,1.43505 0.91147,-0.10347 0.96493,-0.0834 0.5178,0.19431 -1.04611,0.64976 -2.44041,0.16388 -6.45491,-2.24948 -3.09316,-1.85951 -3.12222,-1.88472 -3.42614,-2.92902 h -5.2e-4 c -0.2493,-0.85657 -0.25432,-1.32836 -0.1111,-1.25264 z m 5.42344,13.48704 2.27118,1.22369 c 2.60385,1.40311 2.98765,1.85574 2.80189,3.30109 -0.17057,1.32724 -0.77609,1.91364 -1.83244,1.77457 -0.52197,-0.0687 -0.95215,0.0552 -1.10381,0.31781 -0.41869,0.72519 0.95162,1.30076 2.26136,0.94982 1.00977,-0.27058 1.14964,-0.40032 1.70687,-1.5813 0.49645,-1.05209 0.65392,-1.22808 0.86506,-0.96739 0.20385,0.25167 0.0378,0.64401 -0.78858,1.86501 -1.54354,2.28046 -1.8334,2.2825 -5.48235,0.0413 -2.38274,-1.46343 -2.89379,-1.86875 -3.07837,-2.44223 -0.12173,-0.37824 -0.051,-1.26215 0.1571,-1.96422 0.3294,-1.11131 0.49764,-1.35702 1.30018,-1.89756 z m -28.153323,0.0827 -2.45153,7.29619 c -1.348324,4.01289 -3.4291244,10.1827 -4.6240074,13.7108 -1.194865,3.52812 -2.172477,6.45446 -2.172477,6.50296 0,0.0484 1.539225,0.1053 3.420463,0.1266 l 3.4204634,0.0382 -1.9921264,6.18205 c -1.095531,3.40007 -2.630348,8.1228 -3.410645,10.49496 -0.780267,2.37214 -1.459448,4.44211 -1.509468,4.60024 v 5.2e-4 c -0.116939,0.37036 0.255219,-0.0685 2.802413,-3.30678 1.11956,-1.42331 2.9041524,-3.68751 3.9661664,-5.03173 1.770679,-2.2412 5.249988,-6.6661 8.195882,-10.42314 0.650994,-0.83024 2.208075,-2.81413 3.460254,-4.40852 3.283532,-4.18093 4.57047,-5.84249 4.62504,-5.97224 0.02636,-0.0629 -2.087299,-0.11421 -4.697387,-0.11421 h -4.745964 l 1.194759,-2.47995 c 0.657185,-1.36399 2.406861,-4.93845 3.887618,-7.94318 1.480741,-3.00472 3.102567,-6.32035 3.604432,-7.36803 l 0.912605,-1.90479 h -6.943245 z m 48.145383,4.35684 c 0.31835,0.0626 0.47153,0.78821 0.54984,2.3952 0.20199,4.1451 0.89114,5.74329 3.00085,6.96133 1.26865,0.73245 2.2718,0.69273 3.55637,-0.14056 0.9399,-0.6097 1.04981,-0.61164 2.0438,-0.0377 1.01891,0.58827 7.34972,5.49804 12.42405,9.63507 1.37104,1.1178 2.80167,2.21269 3.17862,2.43293 0.96027,0.56134 1.17024,1.07059 0.64078,1.55391 -0.24123,0.22022 -0.4902,0.30408 -0.55345,0.18655 -0.0632,-0.11756 -3.03123,-2.52008 -6.59546,-5.33921 v -5.2e-4 c -3.56422,-2.81914 -7.04805,-5.59057 -7.74165,-6.15931 -1.90386,-1.56113 -2.08417,-1.61608 -3.85144,-1.16944 -1.06135,0.26823 -1.96099,0.30084 -2.55334,0.0925 -2.02811,-0.7132 -3.99783,-2.77354 -4.38939,-4.59145 -0.38181,-1.77261 -0.43675,-5.38502 -0.0863,-5.6689 0.14615,-0.11838 0.2706,-0.17125 0.37672,-0.15038 z m 27.20609,23.3996 c 0.15742,-0.0157 0.36488,0.0795 0.70693,0.27699 1.35372,0.78158 1.75831,1.4869 1.30432,2.27325 -0.47321,0.81961 -0.56525,0.78652 -1.40043,-0.50023 -0.35144,-0.54143 -0.79776,-1.00951 -0.99167,-1.04025 -0.22485,-0.0356 -0.23408,-0.26099 -0.0258,-0.62167 0.14192,-0.24582 0.24928,-0.37236 0.40669,-0.38809 z" /></svg>
