<?xml version="1.0" encoding="UTF-8" standalone="no"?>
<svg
   width="106.97543mm"
   height="70.687721mm"
   viewBox="0 0 106.97543 70.687721"
   version="1.1"
   xml:space="preserve"
   xmlns="http://www.w3.org/2000/svg"
   xmlns:svg="http://www.w3.org/2000/svg"><g
     transform="translate(-36.067683,-124.06101)"><path
       style="fill:#000000"
       d="m 137.08747,189.23806 c 6.47061,-11.35903 6.08891,-10.5953 5.85193,-11.71045 -0.1893,-0.89025 -0.42422,-1.14243 -1.94465,-2.08681 -1.83482,-1.1397 -2.99802,-1.51061 -3.60185,-1.14851 -0.20286,0.12163 -0.79695,0.85306 -1.32022,1.62549 l -0.95138,1.40436 -4.17003,-1.95599 c -7.49124,-3.51385 -10.84513,-5.327 -10.87393,-5.87871 -0.0147,-0.27718 -0.18114,-1.33177 -0.36915,-2.34367 -0.29912,-1.60321 -0.49824,-2.03669 -1.55035,-3.37305 -0.66392,-0.84342 -1.64838,-1.76648 -2.18759,-2.05132 -0.53942,-0.28465 -2.78614,-1.5684 -4.99313,-2.85219 -2.20713,-1.28353 -8.03884,-4.62425 -12.959786,-7.4231 -4.92096,-2.79886 -11.438566,-6.51573 -14.48362,-8.2597 -5.271443,-3.01922 -5.742099,-3.2286 -9.835166,-4.37671 -2.364446,-0.66297 -4.758333,-1.45893 -5.319864,-1.76844 -1.112181,-0.61302 -1.642609,-0.48022 -2.590345,0.64873 -0.594574,0.70839 -0.240913,0.84454 -4.487501,-1.72796 -2.092333,-1.26725 -2.893283,-1.40563 -3.328437,-0.57639 -0.266835,0.50845 -0.06168,0.60582 -5.715192,-2.71238 -1.614815,-0.94767 -3.696133,-2.1499 -4.625254,-2.67141 -0.928961,-0.52178 -3.6101,-2.07009 -5.957933,-3.44097 -2.347682,-1.37113 -4.448728,-2.49515 -4.668947,-2.49782 -0.54391,-0.007 -1.041812,0.6731 -0.918401,1.25371 0.09038,0.42511 2.704091,2.00026 17.87216,10.77056 1.944229,1.12481 2.51494,1.57908 2.41474,1.92498 -0.237743,0.82076 0.94361,2.05806 3.667773,3.84152 2.643678,1.73074 2.663039,1.75088 2.548823,2.65261 -0.1003,0.79224 -0.03155,0.96672 0.536938,1.36252 0.358632,0.24966 2.298488,2.00684 4.310859,3.90478 4.083183,3.85108 3.437214,3.43522 21.25353,13.683 12.754853,7.33653 13.153393,7.59357 12.932183,8.341 -0.0979,0.33065 -0.0236,1.3648 0.16467,2.29813 0.42956,2.12519 0.85953,2.5745 3.75169,3.92116 1.62789,0.75809 2.41977,0.97688 3.04993,0.84295 l 0.85118,-0.18095 0.6888,4.15847 c 0.66383,4.00767 0.70992,4.16462 1.27259,4.32755 0.90478,0.26266 7.52507,-1.13915 7.9555,-1.68379 0.36634,-0.46373 0.38801,-0.3651 -1.6707,-7.59546 l -0.65022,-2.28355 0.69368,0.27487 c 0.38166,0.15095 0.74816,0.51681 0.81449,0.81302 0.0743,0.32923 0.77421,0.89352 1.80253,1.45191 4.44227,2.41243 5.80673,3.35944 6.19956,4.30152 0.3006,0.72122 0.82346,1.17769 2.35144,2.05293 1.08059,0.61926 1.98057,1.19868 1.99961,1.28817 0.0212,0.0891 -0.47038,1.22243 -1.08749,2.5179 -0.6566,1.37763 -1.06728,2.61425 -0.9897,2.9791 0.11453,0.53699 2.80761,2.90279 3.82271,3.35764 0.96369,0.43127 1.47891,-0.19437 4.44354,-5.39882 z m -21.80537,-8.49222 c -0.7371,-3.18325 -0.84311,-3.94243 -0.55651,-4.00333 0.27269,-0.0583 0.59683,0.80517 1.41896,3.77937 0.58601,2.11999 1.02403,3.91783 0.97333,3.99508 -0.0496,0.0778 -0.27991,0.14438 -0.50936,0.14886 -0.35089,0.007 -0.56159,-0.61539 -1.32683,-3.91995 z m 21.10336,-1.29222 c 0.41571,-0.97865 1.71092,-3.0804 1.92691,-3.12623 0.40239,-0.0854 2.59758,1.57454 2.48767,1.88126 -0.18442,0.51582 -0.71789,0.49485 -1.51539,-0.0588 -0.41005,-0.28466 -0.87606,-0.4902 -1.03602,-0.45583 -0.15978,0.0343 -0.64481,0.62171 -1.07782,1.30608 -0.81532,1.28896 -1.24554,1.53772 -0.78544,0.45419 z m -5.8065,-1.14433 c -3.90502,-2.09952 -5.66781,-3.23998 -5.33189,-3.44982 0.15622,-0.0976 1.40981,0.35965 2.78582,1.01613 1.37599,0.65651 3.40325,1.61936 4.50504,2.13972 1.47076,0.69459 1.943,1.03878 1.77655,1.29508 -0.41858,0.64461 -0.92791,0.50807 -3.73546,-1.00133 z m -24.91878,-2.38406 c -1.48798,-0.90828 -1.71686,-1.15411 -1.90664,-2.04701 -0.11867,-0.55802 -0.14168,-1.27063 -0.0513,-1.58353 0.15212,-0.52865 0.32827,-0.47518 2.45762,0.74617 1.50038,0.86047 2.33211,1.50519 2.40641,1.86604 0.44338,2.15354 -0.50385,2.48563 -2.90662,1.01877 z m 11.08698,-8.36316 c -0.33369,-1.56988 -1.02685,-2.30465 -3.57138,-3.78609 -1.37498,-0.80078 -2.7021,-1.54724 -2.94893,-1.65915 -0.47671,-0.21692 -0.50055,-1.19616 -0.0269,-1.13778 0.72043,0.0889 5.65104,3.26032 6.28525,4.04262 0.69964,0.8631 1.29207,2.67842 1.01398,3.10675 -0.30114,0.46359 -0.57677,0.25591 -0.75155,-0.56634 z m -16.15211,-0.0559 c -2.186055,-1.26217 -2.33746,-1.39329 -1.998843,-1.73275 0.166131,-0.16655 0.06945,-0.2005 -0.252838,-0.0874 -0.359075,0.12356 -2.010971,-0.66467 -5.348781,-2.55269 -4.581073,-2.59108 -4.806468,-2.75608 -4.384799,-3.20831 0.244504,-0.26234 0.404525,-0.66528 0.355552,-0.89555 -0.07171,-0.33756 -0.187256,-0.27721 -0.596242,0.31156 -0.297035,0.42752 -0.689818,0.70127 -0.947722,0.66048 -0.93998,-0.14877 -0.899714,-0.79449 0.168873,-2.70882 l 1.073837,-1.92364 -4.717539,-2.64896 c -2.594615,-1.45701 -4.733201,-2.70974 -4.75231,-2.78405 -0.01871,-0.0744 0.608609,-1.11734 1.394767,-2.31791 0.786231,-1.20057 1.447061,-2.10014 1.468528,-1.99912 0.02157,0.1009 -0.450253,1.09195 -1.048181,2.20219 -0.597975,1.11015 -0.968696,2.08613 -0.823862,2.16883 3.522569,2.01078 9.608104,5.44482 10.877461,6.13822 l 1.672675,0.91341 -0.700006,1.17894 c -1.712562,2.88417 -1.854535,3.18251 -1.476078,3.10208 0.20844,-0.0449 0.854138,-0.96107 1.434648,-2.03726 1.205509,-2.23481 0.862311,-2.20938 4.136402,-0.3067 l 2.117202,1.23045 -1.248298,2.01033 c -1.293854,2.0836 -1.403807,2.36843 -0.862542,2.23418 0.176697,-0.0433 0.745014,-0.94901 1.263012,-2.01154 0.518008,-1.06251 1.026561,-1.95677 1.13012,-1.98706 0.154069,-0.0451 2.135094,1.0119 4.138524,2.20839 0.32582,0.19504 0.1343,0.64363 -0.99057,2.32067 -0.7669,1.14371 -1.27728,2.1541 -1.13396,2.24537 0.14337,0.0909 0.82394,-0.80604 1.51283,-1.99386 l 1.25265,-2.15965 0.84685,0.39044 c 0.46563,0.21502 0.87044,0.50139 0.89944,0.63685 0.0632,0.29989 -2.21254,4.34668 -2.47639,4.40283 -0.10298,0.0228 -0.99632,-0.42725 -1.98518,-0.99807 z m -0.943192,-3.12157 c 0.181459,-0.4055 0.225166,-0.71568 0.09892,-0.68855 -0.259581,0.0558 -0.906163,1.08388 -0.849284,1.3514 0.07706,0.36241 0.434133,0.0462 0.75084,-0.66275 z m -5.659285,-2.0672 c -0.07306,-0.34388 -0.147124,-0.34662 -0.408987,-0.0154 -0.175854,0.22261 -0.310379,0.44867 -0.298969,0.50243 0.01153,0.0539 0.195647,0.06 0.408946,0.0155 0.213434,-0.0459 0.348038,-0.27148 0.298954,-0.5024 z m 0.719994,-1.06664 c 0.05763,-0.1611 -0.07663,-0.25419 -0.298512,-0.20711 -0.221883,0.0473 -0.378717,0.20223 -0.348459,0.34458 0.03011,0.14234 0.164589,0.23549 0.298507,0.2071 0.134206,-0.027 0.290752,-0.18351 0.348464,-0.34456 z m 7.345483,0.51667 c -1.55788,-0.85441 -2.843099,-1.6044 -2.856233,-1.66637 -0.01319,-0.0619 0.416081,-0.90579 0.953853,-1.87534 1.34322,-2.42168 1.14244,-2.62392 -0.349764,-0.35234 -0.920609,1.4015 -1.332321,1.82663 -1.638754,1.69236 -1.136083,-0.49829 -4.718608,-2.53817 -4.775531,-2.71963 -0.03594,-0.11474 0.345724,-0.8811 0.848202,-1.70317 0.502464,-0.82199 1.024308,-1.74129 1.159665,-2.04286 0.231042,-0.51463 0.346606,-0.49332 1.885754,0.34773 0.901691,0.49299 2.289011,1.28911 3.082748,1.76943 0.79381,0.48024 2.76962,1.61555 4.3908,2.52291 1.62097,0.90768 2.95924,1.70505 2.97367,1.77238 0.0856,0.40417 -2.22045,4.01413 -2.50415,3.9204 -0.1852,-0.0635 -1.61277,-0.8105 -3.17034,-1.66542 z m -16.987628,-3.26836 c -0.05919,-0.31169 1.128757,-2.30473 1.193187,-2.0016 0.0572,0.2691 -0.841153,2.12966 -1.049644,2.17399 -0.05858,0.012 -0.122581,-0.0661 -0.143539,-0.17236 z m 5.629574,-3.15446 -1.537706,-0.88713 1.079074,-2.03731 c 0.593527,-1.12052 1.194728,-2.06593 1.336082,-2.10084 0.1412,-0.0354 1.057218,0.41115 2.034774,0.99256 l 1.777798,1.05597 -1.218809,2.05318 c -0.770091,1.29727 -1.350376,2.00856 -1.576192,1.93199 -0.197207,-0.0649 -1.049172,-0.52075 -1.895031,-1.00842 z m -7.724553,1.16529 c 0.422095,-0.96523 1.419707,-2.44001 1.474869,-2.18041 0.04264,0.2003 -1.538941,2.9379 -1.719444,2.97624 -0.06289,0.0124 0.04721,-0.3448 0.244551,-0.79585 z m -2.195001,-1.62978 c 0.257849,-0.42555 0.539419,-0.7279 0.625718,-0.67185 0.08651,0.0557 -0.05405,0.45005 -0.311903,0.87564 -0.25786,0.42556 -0.53942,0.7279 -0.625722,0.67188 -0.08655,-0.0557 0.05406,-0.4501 0.311908,-0.87567 z m -2.114372,-1.03793 c 0.213233,-0.49171 0.4964,-0.91697 0.629006,-0.94521 0.358141,-0.0758 0.332515,0.0818 -0.154275,0.9517 -0.609557,1.08894 -0.947998,1.08434 -0.474735,-0.006 z m -1.996608,-0.32226 c 0.185841,-0.64173 1.006206,-1.7917 1.068626,-1.49808 0.04485,0.21064 -0.939004,1.94691 -1.1256,1.98653 -0.04952,0.0118 -0.02406,-0.20925 0.05696,-0.48846 z m 9.699664,-5.43931 c -1.948746,-1.12395 -3.632097,-2.25288 -3.740445,-2.5093 -0.215616,-0.51048 -0.207113,-0.50634 5.195427,2.53063 1.627426,0.91477 2.991367,1.81598 3.031045,2.0026 0.114243,0.53742 -0.612736,0.20949 -4.486121,-2.02373 z m -17.842565,-0.0477 c -1.689354,-1.56675 -3.058807,-2.94244 -3.043252,-3.05704 0.06085,-0.44817 2.951396,-5.45889 3.176708,-5.50682 0.267078,-0.0573 7.237284,2.02171 8.142762,2.42811 0.55179,0.24733 0.525022,0.35405 -0.589908,2.35733 -2.145296,3.85454 -4.14516,6.95385 -4.381202,6.78959 -0.128478,-0.0894 -1.615825,-1.44438 -3.305158,-3.01119 z m 10.937049,-3.76723 c -1.083175,-0.61498 -1.421675,-0.93547 -1.256952,-1.18911 0.164698,-0.25358 0.683909,-0.0982 1.927526,0.57741 1.690143,0.91773 1.900179,1.10862 1.65028,1.49338 -0.172845,0.26615 -0.557023,0.12024 -2.320993,-0.88132 z m -14.34473,-1.9821 c -0.0116,-0.0536 0.148978,-0.30085 0.356636,-0.54913 0.342037,-0.40914 0.353146,-0.40196 0.118146,0.0774 -0.24641,0.50299 -0.429854,0.68525 -0.475113,0.47222 z m -3.45658,-3.32826 c -1.463246,-0.82021 -2.871147,-1.4463 -3.128447,-1.39173 -0.424505,0.0907 -0.427581,0.0369 -0.03189,-0.57192 l 0.436056,-0.67148 3.465723,2.02219 3.465709,2.02217 0.69022,-1.02734 c 0.921398,-1.37146 0.981922,-0.85058 0.07364,0.63367 l -0.716215,1.17036 -0.797201,-0.34722 c -0.438026,-0.19192 -1.994359,-1.01836 -3.457667,-1.83853 z m -7.089059,-3.52226 c -0.862898,-0.4878 -4.47509,-2.58139 -8.026416,-4.65345 -3.551603,-2.07165 -7.137637,-4.13374 -7.969106,-4.58215 -0.831279,-0.44876 -1.451029,-0.90876 -1.376716,-1.02323 0.07422,-0.11435 1.287263,0.46005 2.695979,1.27525 9.654615,5.59187 16.239744,9.47682 16.794417,9.90813 l 0.648105,0.50387 -0.598329,-0.27143 c -0.329174,-0.14905 -1.304499,-0.67024 -2.167868,-1.15716 z"/></g></svg>
