<svg xmlns="http://www.w3.org/2000/svg" xml:space="preserve" width="515.416" height="110.528" viewBox="0 0 136.371 29.244"><path d="M43.184 8.334v1.515h.606l.455-.152h15.304V8.334zm60.61 5.606-5.759-.151-.454.151.151.758 6.97 8.485 1.516-.758 1.212-1.363-2.425-5.758-.606-.758zm-26.97-.151.454.454.454.455h4.243l-1.818-2.728-.303-.454H65.609l1.819 1.06 1.818 1.213zm3.182-10.91.152-.152.454-.454h.91l.454.454.303.152V4.09h1.818V.455L84.247 0h2.121l.152.455V4.09h5.909l.606.455.152.151v1.818h3.03l.91.152.15.91v.908h30.457l.757-.151.607-.91.909-1.818.454-.757h.91l2.12.606.455.454.455.91-.455 6.97.455 2.424 1.97 8.485v1.212l-.606.455-5 2.879h-.758l-.606-.455-4.395-7.576q-1.363-2.273-3.788-2.727l-3.94.909-12.879 6.667h-.909l-.606-.455-6.06-6.212h-3.637L92.58 25h-1.06q.757-3.788-2.121-6.667h-3.334l-1.06-.303-.91-.757-.757-.91H77.73l-.303.607-.606.303h-7.576l-1.818 1.515-2.273 1.06H45.76l-.758-.454-.454-.91v-5.909l.606-1.06h-.91l-.454-.303-3.485 4.848-.909.607-1.212.454h-9.85l-.757-.454v-.607l3.788-5.151.91-.758V8.334H.757Q0 8.334 0 7.879V4.697l.758-.606h31.516V3.03l.606-.303h9.546l.607.303.151.455v.606h16.365V2.88l.454-.152.152-.454h1.06l.606.454v1.364h18.183z"/></svg>