<?xml version="1.0" encoding="UTF-8" standalone="no"?>
<svg
   width="68.182556mm"
   height="78.937447mm"
   viewBox="0 0 68.182556 78.937447"
   version="1.1"
   xml:space="preserve"
   xmlns="http://www.w3.org/2000/svg"
   xmlns:svg="http://www.w3.org/2000/svg"><path
     style="fill:#000000"
     d="M 37.040244,6.1845034e-4 C 38.196654,0.02251845 38.845724,0.62967845 38.458764,2.5782385 c 2.39848,1.93977 -2.22235,2.71143 -0.28474,3.7083 1.64069,2.0471 10.43952,4.4101795 5.9769,7.0569295 -4.27419,2.22762 -7.31283,-6.6151695 -11.97137,-2.99258 0.10538,2.16465 2.30166,6.45079 4.88911,7.02025 8.25074,-0.68571 16.91633,1.72097 22.78724,7.76851 8.43253,7.50882 10.53285,20.48733 5.96914,30.62966 -1.77564,3.74884 -4.36416,7.00337 -5.77277,10.94403 -2.07483,3.66765 -1.73598,8.0872 -3.02359,11.91297 -0.70931,0.84951 -1.42317,-0.28195 -2.07997,-0.54002 -3.36707,-2.69902 -7.32494,-4.34171 -11.22516,-5.89421 -5.21811,-1.54033 -10.87411,-2.26827 -15.40991,-5.56349 -10.50783,-6.75888 -15.512966,-21.01875 -11.00966,-32.75407 2.84748,-4.75228 -1.726596,-0.94495 -4.251416,-1.21129 -5.9900104,0.8309 -12.14121038,-3.58766 -12.85555038,-9.67538 -1.02962,-5.33384 2.07185998,-10.82554 7.07243998,-12.86227 4.2681104,0.12687 4.2904904,-3.9730495 7.9726404,-4.9686895 4.110286,-1.54019 8.205036,-4.26304005 12.427656,-4.84621005 1.82653,2.42708005 6.82638,-0.3582 9.37049,-0.31005999966 z M 35.459974,1.9183285 c -1.66316,-0.007 -4.2047,0.67251 -5.17642,1.2423 -2.72154,-0.91457 -6.70425,-0.46691 -9.77563,1.6769 -4.02521,1.73739 0.54277,1.4211 2.22208,0.1602 4.9828,-1.91342 0.25494,0.52919 -1.76423,1.5782 2.61382,0.21347 6.15088,-2.43247 8.46666,-2.23087 1.72333,3.51349 1.96442,-2.27076 4.51291,-0.34934 -2.03659,1.14584 1.23018,0.79998 2.18384,0.0946 1.5819,-1.62411 0.79829,-2.16544 -0.66921,-2.17196 z m -8.34471,7.4719 c -1.55798,1.1539695 3.4293,5.2143295 4.03645,7.6196895 -0.45723,0.84062 -3.50214,-5.46118 -5.31182,-6.84455 0.2593,2.39675 3.32196,5.41673 4.26175,8.27237 0.27075,1.58996 2.03073,-0.0578 2.72852,-0.34107 -0.60098,-2.84487 -2.91692,-6.96514 -5.7149,-8.7064395 z M 10.075488,11.166858 c -3.3782804,-0.0804 -6.6985304,3.10975 -7.9881404,6.29316 -1.38549998,5.04185 0.61449,10.99377 5.7273,13.03538 0.34198,0.2402 4.0066204,1.13149 2.2360404,0.0326 -4.7882904,-0.9435 -8.4635604,-5.81523 -7.7504404,-10.69289 0.41963,-4.27377 3.93442,-7.34676 7.7752404,-8.66821 z m 0.23513,1.78491 c -0.7281104,0.0161 -1.4741004,0.20312 -2.2510304,0.66559 -5.75297,2.51629 -5.77667,11.84589 0.0744,14.29525 1.9494404,0.97491 4.2690904,1.26891 6.3655004,0.61082 5.829246,-1.59773 7.873016,-9.8205 3.514506,-13.97073 -2.731716,0.46403 -5.103016,-1.65842 -7.703396,-1.60093 z m 33.439806,6.75359 c -0.0725,1.29419 5.48455,3.29117 7.69928,4.3124 1.51949,0.20157 3.0472,0.32751 4.57336,0.4656 -3.2703,-3.04132 -7.83516,-4.7051 -12.27264,-4.778 z m -7.3303,0.13953 c -0.50073,0.005 -0.95127,0.049 -1.32447,0.1328 -3.65961,0.40933 -1.06754,1.03248 1.03767,1.26143 -2.30346,0.33861 -6.23659,2.5391 -6.28592,5.83375 2.55518,-0.81523 6.83015,-2.3587 8.74003,-2.01125 -3.00642,1.16925 -6.39802,2.31304 -8.62583,4.64623 l 0.15916,0.23409 0.50747,-0.0434 c 4.54167,-2.16133 9.37494,-3.59868 14.06374,-5.39554 1.18011,-2.87096 -4.76671,-4.69584 -8.27185,-4.65811 z m -14.9319,4.23798 c -0.98965,0.81077 -3.67488,5.35119 -6.388756,6.31693 2.809016,0.277 5.982146,-3.35538 6.388756,-6.31693 z m 32.40629,1.69654 c -0.59894,0.0115 -1.20894,0.0879 -1.82521,0.23668 2.68583,4.42548 6.3092,8.47476 7.65999,13.65033 0.4319,1.07347 0.65673,2.32172 1.4795,3.1812 3.74745,-1.2256 4.1914,-7.0516 2.127,-10.16217 -1.59062,-3.87746 -5.24874,-6.98657 -9.44128,-6.90604 z m -5.93607,0.73639 c -4.90073,-0.11138 -9.47037,2.09144 -13.70925,4.37441 -3.26116,-0.1576 -5.2155,8.79638 -1.79317,3.94859 5.34,-3.02878 11.69386,-5.20369 17.81959,-4.6824 -5.69555,1.36119 -11.76776,2.79044 -16.2295,6.82956 -2.08323,3.77288 0.92869,8.66834 3.51244,11.57242 4.49125,2.94783 10.25334,-0.32849 14.62857,-2.17971 5.02271,0.66787 1.2508,-11.24927 3.30005,-5.23276 2.62837,4.7348 -3.15385,6.619 -6.28282,8.59431 -0.72361,0.4254 -1.54441,0.73982 -2.16007,1.32602 3.91367,-0.5688 7.86546,-2.65039 10.77609,-5.43791 -0.53858,-7.10926 -3.68893,-14.13176 -8.8775,-19.05879 -0.32965,-0.0287 -0.65772,-0.0463 -0.98443,-0.0537 z m -27.82879,7.10706 c -0.42495,0.0526 -2.44704,3.50156 -2.33733,5.10873 l -0.0977,0.69505 c -0.42252,6.34661 1.14441,-1.66479 1.83813,-3.65973 0.6707,-1.58315 0.77629,-2.16625 0.59687,-2.14405 z m 6.17894,2.75383 c -2.37931,0.12316 -4.95979,5.17547 -6.57634,6.87245 0.51311,1.16177 4.13772,-4.35969 6.4332,-4.15943 1.39036,5.01046 3.52588,9.88894 6.97425,13.84411 0.44917,0.11111 0.63869,1.15428 1.23765,0.99322 -2.60258,-5.33271 -5.50309,-10.76738 -6.46782,-16.74626 -0.51331,-0.59841 -1.05186,-0.83251 -1.60094,-0.80409 z m 38.48396,4.34289 c -0.3181,-0.054 -1.51895,2.36394 -2.2872,3.44579 0.66991,0.38517 1.69935,-0.92686 2.05052,-1.4826 0.34378,-1.40356 0.38127,-1.93866 0.23668,-1.96319 z m 0.16175,5.12579 c -2.35518,0.0751 -4.4514,5.04148 -3.2458,7.71167 2.12581,-3.41926 0.55417,0.677 -0.006,1.98076 -0.43932,1.20337 -0.97562,2.39396 -1.24541,3.6499 3.15279,-3.538 5.21743,-8.2605 5.51336,-13.05398 -0.33814,-0.20989 -0.68002,-0.29908 -1.01647,-0.28835 z m -45.31248,2.74815 c -0.11734,0.002 -0.12682,0.55192 0.0196,1.9699 0.61704,4.81797 3.3749,10.16428 8.97722,9.864 1.36014,0.0988 2.83342,0.49386 4.16771,0.0553 -3.29663,-1.76982 -8.90512,-1.23991 -10.51408,-5.74849 -0.97799,-1.21996 -2.29847,-6.14658 -2.65049,-6.14071 z m 38.55475,1.26039 c -5.752,1.63443 -11.28475,3.96928 -17.03669,5.61878 -5.88997,1.93031 2.65499,0.71499 4.71289,-0.19172 1.4025,-0.24054 8.57741,-2.54417 5.43378,-0.94103 -3.49303,1.7498 -8.17592,2.55429 -11.08563,4.51807 5.40463,0.76791 11.19564,-0.67247 15.6192,-3.89744 -1.24407,2.48735 -5.22606,4.18147 -7.94215,5.6565 2.65497,0.77019 7.40951,-1.43107 9.16327,-4.25245 1.67654,-1.03799 -1.7221,4.78706 -2.75797,6.06888 0.7171,0.33101 1.82383,-1.08222 2.37298,-1.47123 2.06376,-2.90404 4.04973,-8.36317 1.52032,-11.10836 z m -2.67219,20.95531 c -0.56273,-0.0591 -1.07449,2.52519 -0.41806,3.93206 1.04155,1.57133 1.54441,-1.11565 1.11208,-1.85415 -0.17183,-1.47808 -0.43823,-2.05106 -0.69402,-2.07791 z" /></svg>
