<?xml version="1.0" encoding="UTF-8" standalone="no"?>
<svg
   width="51.912441mm"
   height="73.798828mm"
   viewBox="0 0 51.912441 73.798828"
   version="1.1"
   xml:space="preserve"
   xmlns="http://www.w3.org/2000/svg"
   xmlns:svg="http://www.w3.org/2000/svg"><path
     style="fill:#000000"
     d="m 35.103051,73.526893 c 0.87678,-0.25365 3.32512,-2.76426 6.93993,-7.11643 2.71584,-3.26983 2.55022,-3.96875 -0.94048,-3.96875 -2.51106,0 -3.3371,0.24395 -3.93958,1.16345 -0.2371,0.36185 -1.1447,2.29987 -2.01691,4.3067 -0.8722,2.00684 -1.71105,3.79969 -1.86411,3.98411 -0.4111,0.49534 -1.4794,0.40707 -1.77578,-0.14674 -0.19615,-0.3665 0.0532,-1.23858 1.04021,-3.63802 0.71401,-1.73578 1.30216,-3.42927 1.30701,-3.7633 0.005,-0.33404 -0.28844,-0.9046 -0.65176,-1.26791 l -0.66056,-0.66056 -7.96208,0.0773 -7.96207,0.0773 -0.505478,0.62462 c -0.74563,0.92137 -0.64076,1.55919 0.813678,4.9488 1.06001,2.47039 1.26442,3.17663 1.04053,3.59497 -0.19185,0.35848 -0.49717,0.49507 -0.9804,0.43861 -0.62989,-0.0736 -0.907048,-0.52785 -2.705518,-4.4341 -2.43799,-5.29526 -2.49396,-5.34482 -5.9218,-5.24288 -2.67002,0.0794 -3.20612,0.41574 -2.56676,1.61039 0.75037,1.40207 7.33054,8.79297 8.22728,9.24095 0.83367,0.41646 1.88939,0.46027 10.583338,0.43915 5.31151,-0.0129 10.0371,-0.13332 10.50131,-0.26762 z m 11.16294,-14.45862 c 0.8375,-0.84464 2.38313,-5.22874 2.60653,-7.39331 0.22033,-2.13475 0.10408,-2.19784 -4.05011,-2.19784 -5.0051,0 -5.13239,0.0896 -5.82668,4.10104 -0.74999,4.33327 -0.76679,5.02825 -0.13675,5.65829 0.50508,0.50508 0.85698,0.55942 3.62248,0.55942 2.99024,0 3.08022,-0.0173 3.78453,-0.7276 z m -11.93,0.31324 c 0.85365,-0.59791 1.53927,-2.09831 2.01806,-4.4163 0.51843,-2.50987 0.5203,-2.9363 0.0172,-3.90925 -0.80296,-1.55274 -0.9975,-1.57884 -11.76948,-1.57884 -10.771988,0 -10.966528,0.0261 -11.769478,1.57884 -0.54145,1.04704 -0.50524,2.15796 0.14703,4.51177 0.64968,2.34445 1.30589,3.49449 2.23569,3.91813 0.47711,0.21739 3.346878,0.31001 9.604918,0.31001 7.67204,0 9.00753,-0.0582 9.51609,-0.41436 z m -23.757168,-0.1148 c 0.66461,-0.66462 0.66491,-0.65444 -0.13921,-4.70392 -0.75719,-3.81309 -0.97988,-4.37869 -1.88668,-4.79186 -0.7152,-0.32586 -7.18874,-0.40302 -7.66188999,-0.0913 -0.88092,0.58034 -0.53498,3.03231 0.98324999,6.96921 1.21491,3.15037 1.20963,3.14705 5.00036,3.14705 2.82223,0 3.2338,-0.0588 3.70417,-0.52916 z m 38.065878,-13.1136 c 0.30981,-0.39385 0.56329,-0.9977 0.56329,-1.34188 0,-0.57272 0.10976,-0.62577 1.29461,-0.62577 0.80168,0 1.33574,-0.12593 1.40264,-0.33073 0.0594,-0.1819 -0.25527,-5.4174 -0.6993,-11.63445 l -0.80733,-11.30371 -1.61541,-1.66087 c -0.88847,-0.91348 -3.7162,-3.95974 -6.28385,-6.76948 L 37.830901,7.3776132 V 3.6888332 4.3165616e-5 H 24.196361 C 9.075173,4.3165616e-5 9.384283,-0.03295683 8.042713,1.7259132 c -0.98257,1.28821 -1.08853,3.62573 -0.21769,4.80234 1.05797,1.42944 2.12848,1.93846 4.07672,1.93846 2.06455,0 3.19527,0.59532 4.02029,2.1166598 0.450038,0.8299 0.494038,1.42259 0.423758,5.70878 -0.0773,4.71263 -0.0891,4.79881 -0.804818,5.87947 -0.51756,0.78145 -1.30355,1.41351 -2.73401,2.19859 -2.4684,1.35474 -4.73905,3.20085 -7.06861,5.74703 -1.80758,1.97565 -2.15263,2.84136 -1.38607,3.47756 0.26565,0.22047 1.22363,0.29328 3.03722,0.23083 2.4149,-0.0831 2.7064,-0.14971 3.29623,-0.75267 0.35587,-0.36381 1.5004,-2.56646 2.54338,-4.89479 1.04299,-2.32834 2.08042,-4.37755 2.30541,-4.55381 0.46266,-0.36247 1.324768,-0.0363 1.566068,0.59252 0.078,0.20335 -0.52401,2.01813 -1.337858,4.03285 -0.81386,2.01471 -1.47974,3.78902 -1.47974,3.94291 0,0.15388 0.24676,0.5935 0.54837,0.97693 l 0.54837,0.69714 h 8.712038 c 8.35927,0 8.73348,-0.0214 9.24122,-0.52917 0.29104,-0.29104 0.52916,-0.80135 0.52916,-1.13403 0,-0.33267 -0.64327,-2.20759 -1.42949,-4.16649 -1.44456,-3.59919 -1.52005,-4.21437 -0.56223,-4.58192 0.78755,-0.30221 1.15002,0.15925 2.52755,3.21787 2.60867,5.79218 3.06175,6.57565 3.9898,6.89917 1.33672,0.46598 5.40276,0.38255 5.90652,-0.12121 0.59054,-0.59054 0.52547,-0.94089 -0.41619,-2.24081 -1.90615,-2.63138 -4.75979,-5.05148 -8.76563,-7.43396 -0.85488,-0.50843 -1.3633,-1.07906 -1.87329,-2.10247 -0.65879,-1.32203 -0.69995,-1.62718 -0.69995,-5.18914 0,-3.43173 0.0493,-3.83384 0.52916,-4.31368 1.12073,-1.12072 1.49911,-0.85141 6.92002,4.92548 2.81519,3.00005 5.22689,5.64292 5.35933,5.87305 0.24024,0.41741 0.64259,7.2297 0.67051,11.35242 l 0.0147,2.17491 -3.34545,0.074 c -3.24613,0.0719 -3.36052,0.0943 -3.85287,0.75444 -0.49211,0.65987 -0.49461,0.7915 -0.0829,4.36562 0.5851,5.07956 0.47689,4.97995 5.5326,5.09326 l 3.79707,0.0851 z m -13.85651,0.3071 c 1.35175,-0.59668 1.81349,-1.33071 1.77936,-2.82871 -0.0415,-1.8227 -0.54357,-4.13134 -1.16411,-5.35304 -0.87236,-1.71747 -1.17598,-1.76592 -11.06629,-1.76592 -9.402558,0 -10.116518,0.0892 -10.940148,1.36696 -0.5877,0.91176 -1.23082,3.66774 -1.28103,5.4897 -0.0496,1.79929 0.34911,2.47587 1.82779,3.10173 1.21685,0.51504 19.674848,0.50555 20.844428,-0.0107 z m -26.409478,0.10465 c 0.89074,-0.35889 1.12556,-1.05362 1.54069,-4.55842 0.49733,-4.19869 0.50322,-4.08666 -0.2546,-4.84447 -0.6179,-0.6179 -0.80473,-0.64943 -3.84848,-0.64943 -4.27722,0 -4.3376,0.0586 -5.44579999,5.28582 -0.20121,0.9491 -0.36791,2.28443 -0.370440002982,2.96741 C -0.00691699,46.639963 0.42041301,46.835093 4.486133,46.814523 c 1.82301,-0.009 3.57467,-0.12157 3.89258,-0.24966 z" /></svg>
