<?xml version="1.0" encoding="UTF-8" standalone="no"?>
<svg
   width="65.502975mm"
   height="67.282112mm"
   viewBox="0 0 65.502975 67.282112"
   version="1.1"
   xml:space="preserve"
   xmlns="http://www.w3.org/2000/svg"
   xmlns:svg="http://www.w3.org/2000/svg"><path
     style="fill:#000000"
     d="M 43.955976,4.1241162e-4 C 43.439656,-0.00758759 42.926006,0.10121941 42.649596,0.33062441 c -0.2272,0.188557 -1.49571,2.28415599 -2.81895,4.65707999 l -2.40554,4.314466 -4.754232,0.192236 c -4.127905,0.166947 -4.840249,0.260389 -5.407939,0.7069336 -0.470677,0.370235 -0.653707,0.770703 -0.653707,1.43092 0,0.817448 0.375545,1.304819 3.455603,4.484998 2.404268,2.482422 3.416276,3.706676 3.327446,4.02456 -0.07022,0.251278 -0.693549,2.440121 -1.385445,4.863791 -1.224674,4.28997 -1.24593,4.42525 -0.800468,5.10511 0.783718,1.19611 1.629361,1.34571 3.691762,0.65422 2.0325,-0.68146 2.12105,-0.63941 2.40451,1.13327 0.22255,1.39171 1.26274,2.43575 2.23293,2.24172 0.39615,-0.0792 2.30799,-0.88314 4.24884,-1.78645 l 3.52898,-1.64228 1.67949,0.86145 c 1.14476,0.58714 1.88159,0.81018 2.31562,0.70125 0.41373,-0.10384 0.85646,0.0112 1.26401,0.32814 0.34497,0.26824 1.2822,0.86086 2.08256,1.31723 1.63453,0.932 2.50942,1.03989 3.21995,0.39688 0.61572,-0.55711 0.61446,-1.86462 -0.008,-7.03213 l -0.46922,-3.89795 3.22461,-2.380221 c 4.2676,-3.149912 4.88032,-3.740765 4.88032,-4.705656 0,-0.949197 -0.65903,-1.590991 -1.86965,-1.821077 -1.02492,-0.194793 -1.79209,-0.5472 -2.30219,-1.0573 -0.20975,-0.209751 -0.64502,-0.28647 -1.10329,-0.19482 -0.61259,0.122518 -0.79099,0.04356 -0.93586,-0.412895 -0.25188,-0.793597 -1.11416,-1.27375 -2.65255,-1.477429 -0.72761,-0.09633 -1.52013,-0.229072 -1.76113,-0.295072 -0.29787,-0.08157 -0.78498,-1.2109836 -1.52187,-3.5269166 -0.89777,-2.82154 -1.22973,-3.528929 -1.93115,-4.119128 -0.7081,-0.595816 -1.03067,-0.692218 -1.96836,-0.586528 -0.83533,0.09416 -1.16042,0.02596 -1.2733,-0.268201 -0.10823,-0.282041 -0.37656,-0.349883 -0.94,-0.237194 -0.70068,0.140136 -0.82894,0.06212 -1.14566,-0.695565 -0.19613,-0.469224 -0.56517,-1.02561199 -0.81959,-1.23661699 -0.28716,-0.238157 -0.80608,-0.36302 -1.3224,-0.37103699838 z M 43.722396,3.3686824 c 0.0212,-5.22e-4 0.0402,0.0049 0.0574,0.0155 0.12005,0.0742 0.84451,1.860925 1.60972,3.970817 0.7652,2.109891 1.52578,4.0203156 1.69034,4.2452186 0.19108,0.261156 1.82125,0.717764 4.51135,1.264005 2.31666,0.470412 4.25686,0.990155 4.31136,1.154969 0.0691,0.208984 -6.00194,5.22401 -6.98768,5.772257 -0.0285,0.01583 0.2281,1.632737 0.57051,3.593067 0.3424,1.96031 0.66375,3.97086 0.71365,4.46794 0.0499,0.49708 -0.0286,0.94337 -0.17415,0.99167 -0.14552,0.0483 -1.95345,-0.98826 -4.01785,-2.30322 l -3.75377,-2.39055 -3.65456,1.82676 c -4.389585,2.19422 -4.845698,2.35984 -4.845698,1.75855 0,-0.24173 0.54228,-2.2783 1.205098,-4.52582 l 1.20509,-4.086573 -3.167764,-3.357418 c -1.742255,-1.846677 -3.118885,-3.436628 -3.059245,-3.533118 0.05964,-0.09649 1.329814,-0.250961 2.822567,-0.343131 1.492754,-0.09217 3.513922,-0.235911 4.491712,-0.319361 l 1.77767,-0.151412 1.63815,-3.0830146 c 1.94722,-3.664806 2.73883,-4.959306 3.05614,-4.967139 z M 8.673372,15.855258 c -0.25816,-0.004 -0.51498,0.05014 -0.65319,0.164848 -0.1136,0.09428 -0.747596,1.142078 -1.409216,2.32854 l -1.203028,2.157491 -2.377116,0.09612 c -2.06395,0.08347 -2.41986,0.130195 -2.70371,0.353467 C 0.091772,21.140842 0,21.340818 0,21.670926 c 0,0.408724 0.18803,0.652665 1.72806,2.242755 1.20213,1.2412 1.707884,1.85334 1.663464,2.01228 -0.0351,0.12564 -0.346514,1.22006 -0.692464,2.4319 -0.61234,2.14499 -0.623223,2.21236 -0.400493,2.55229 0.39186,0.59805 0.814683,0.67286 1.845883,0.32712 1.01625,-0.34073 1.06078,-0.31945 1.20251,0.56689 0.11128,0.69586 0.631111,1.21788 1.116211,1.12086 0.19807,-0.0396 1.153988,-0.44184 2.124418,-0.89349 l 1.76475,-0.82114 0.839742,0.43099 c 0.57238,0.29357 0.940542,0.40482 1.157552,0.35036 0.20687,-0.0519 0.428223,0.006 0.632003,0.16433 0.17248,0.13412 0.6411,0.43018 1.04128,0.65836 0.81726,0.466 1.254978,0.51995 1.610238,0.19844 0.30786,-0.27855 0.307096,-0.93232 -0.0041,-3.51607 l -0.234611,-1.94871 1.612305,-1.19011 c 2.1338,-1.57495 2.440161,-1.87038 2.440161,-2.35283 0,-0.47459 -0.329517,-0.7955 -0.934827,-0.91054 -0.51246,-0.0974 -0.895784,-0.2736 -1.150834,-0.52865 -0.10487,-0.10488 -0.322774,-0.14351 -0.551904,-0.0977 -0.3063,0.0613 -0.395242,0.0221 -0.467672,-0.206187 -0.12594,-0.396798 -0.557334,-0.637134 -1.326534,-0.738973 -0.3638,-0.04817 -0.760067,-0.114278 -0.880567,-0.147278 -0.14894,-0.04079 -0.392227,-0.605749 -0.760677,-1.763716 -0.44888,-1.41077 -0.615122,-1.764206 -0.965832,-2.059306 -0.35405,-0.297908 -0.515079,-0.346367 -0.983919,-0.293522 -0.41767,0.04708 -0.580214,0.01324 -0.636654,-0.133842 -0.0541,-0.141021 -0.188536,-0.175201 -0.470256,-0.118856 -0.35034,0.07007 -0.414214,0.03106 -0.572574,-0.347782 C 9.646559,16.424187 9.462074,16.146251 9.334864,16.040749 9.191284,15.92167 8.931566,15.859239 8.673406,15.85523 Z m -0.116789,1.684135 c 0.0106,-2.61e-4 0.02034,0.0025 0.02894,0.0078 0.06,0.0371 0.422002,0.930462 0.804602,1.985408 0.3826,1.054946 0.763147,2.009899 0.845427,2.122351 0.0955,0.130578 0.910626,0.358879 2.255676,0.632005 1.15833,0.2352 2.128174,0.49533 2.155424,0.57774 0.0345,0.10449 -3.000974,2.612 -3.493844,2.88613 -0.0142,0.008 0.114054,0.81611 0.285254,1.79627 0.1712,0.98015 0.332134,1.98543 0.357084,2.23397 0.0249,0.24854 -0.01453,0.47195 -0.08733,0.4961 -0.0728,0.0241 -0.976463,-0.49438 -2.008663,-1.15187 l -1.876888,-1.19528 -1.827278,0.91364 c -2.19479,1.09712 -2.423108,1.17967 -2.423108,0.87902 0,-0.12086 0.271147,-1.13915 0.602547,-2.26291 l 0.602547,-2.04329 -1.583883,-1.67845 c -0.87113,-0.92334 -1.559442,-1.71857 -1.529622,-1.766815 0.0298,-0.04825 0.664903,-0.125481 1.411283,-0.171566 0.74637,-0.04609 1.756968,-0.117955 2.245858,-0.15968 l 0.888835,-0.07545 0.819071,-1.541508 c 0.97361,-1.832403 1.369422,-2.479652 1.528072,-2.483569 z m 13.110311,15.383556 c -0.538234,-0.0517 -0.979986,0.15675 -1.347721,0.62425 -0.409539,0.52065 -0.542635,1.27614 -0.68833,3.90312 -0.09935,1.79139 -0.252855,4.04985 -0.341065,5.01934 l -0.160713,1.76268 -3.866431,2.19005 c -2.126722,1.20437 -4.075306,2.36422 -4.329968,2.57762 -0.287221,0.24068 -0.463021,0.75862 -0.463021,1.36425 0,0.59856 0.179153,1.13362 0.463021,1.38287 0.254662,0.22361 2.368021,1.15123 4.696354,2.06085 2.328333,0.90962 4.314878,1.72704 4.414718,1.81694 0.09984,0.0899 0.480468,2.16826 0.845426,4.61884 0.692492,4.64987 1.076298,5.70911 2.088245,5.76141 1.246339,0.0644 1.680329,-0.10538 2.664953,-1.04438 l 1.016992,-0.97048 0.430982,0.66145 c 0.236833,0.36376 0.874676,1.11625 1.417484,1.67225 1.603502,1.64238 1.945564,1.46636 5.557284,-2.86287 2.181962,-2.61544 3.231802,-3.68155 3.571872,-3.62665 5.94324,0.95921 9.06592,1.09005 9.74773,0.40824 0.68433,-0.68433 0.34687,-1.62773 -2.15026,-6.01462 l -2.27479,-3.99614 2.14353,-4.30154 c 1.1789,-2.36584 2.14354,-4.63953 2.14354,-5.05241 0,-1.28475 -0.78532,-1.72835 -2.73626,-1.54616 -0.97767,0.0913 -1.7926,0.0481 -1.94407,-0.10335 -0.17134,-0.1714 -0.50245,-0.16926 -0.96532,0.007 -0.45105,0.17166 -0.70435,0.17552 -0.70435,0.0103 0,-0.51932 -1.07804,-1.31685 -1.78594,-1.32085 -0.40018,-0.002 -1.83438,0.26076 -3.1874,0.58446 l -2.460313,0.5886 -1.868103,-2.04794 c -2.236838,-2.45153 -3.067801,-2.96441 -4.066418,-2.50941 -0.538835,0.24558 -0.807841,0.24506 -1.203544,-0.002 -0.383879,-0.23975 -0.62852,-0.24385 -0.991671,-0.0171 -0.400332,0.25001 -0.695193,0.1386 -1.739945,-0.65887 -0.753671,-0.57529 -1.388264,-0.88774 -1.926498,-0.93948 z m 0.75861,3.68298 c 0.153307,0 1.688342,1.35897 3.411162,3.01997 l 3.132625,3.01997 1.1467,-0.34468 c 2.167864,-0.65244 7.632615,-1.78748 7.800045,-1.62006 0.0922,0.0922 -0.77007,1.98454 -1.91617,4.20543 l -2.08359,4.038 2.43189,3.59926 c 1.33761,1.97969 2.4319,3.79947 2.4319,4.04368 0,0.50692 -0.21424,0.48771 -5.786731,-0.51159 l -3.272669,-0.58653 -2.78846,3.53312 c -1.533787,1.94316 -2.88205,3.5326 -2.995683,3.5326 -0.35199,0 -0.41792,-0.27984 -1.047481,-4.44831 -0.33657,-2.22851 -0.738736,-4.20143 -0.893486,-4.38423 -0.154749,-0.18281 -1.888463,-0.90527 -3.852994,-1.60507 -3.646222,-1.29884 -4.549032,-1.79321 -4.089673,-2.24017 0.139284,-0.13552 1.681965,-1.04665 3.428214,-2.02468 1.74625,-0.97804 3.371152,-1.94743 3.611149,-2.15388 0.351323,-0.30222 0.471404,-1.13223 0.615467,-4.26072 0.192495,-4.18023 0.286553,-4.81211 0.717785,-4.81211 z" /></svg>
