<svg xmlns="http://www.w3.org/2000/svg" xml:space="preserve" width="72.049" height="71.6" viewBox="0 0 19.063 18.944"><path d="M5.384 0 4.71 1.19l-1.15.61 1.15.608.675 1.19.675-1.19 1.15-.609-1.15-.608zM9.05 1.15l-1.6 2.819a11.73 11.73 0 0 1-4.856 4.71L0 10.054l2.593 1.376a11.73 11.73 0 0 1 4.855 4.71l1.6 2.804.768-1.323.543.953 1.653-2.897a10.48 10.48 0 0 1 4.313-4.18q1.376-.715 2.738-1.443a864 864 0 0 1-2.738-1.442q-2.778-1.481-4.313-4.18L10.36 1.535l-.543.966zm0 2.409 1.177 2.05q1.244 2.223 3.545 3.44l1.892 1.005-1.892 1.006q-2.301 1.217-3.545 3.44L9.05 16.55 7.884 14.5a8.65 8.65 0 0 0-3.545-3.44l-1.905-1.006L4.339 9.05a8.54 8.54 0 0 0 3.545-3.44zm-7.223.82L1.15 5.57 0 6.179l1.15.609.676 1.19.674-1.19 1.15-.61L2.5 5.57zm9.79.278a12 12 0 0 0 .75 1.164 11 11 0 0 0-.75-1.164M9.048 6.059l-.9 1.601a4 4 0 0 1-1.627 1.574l-1.561.82 1.561.834h.013a3.8 3.8 0 0 1 1.614 1.574l.9 1.574.9-1.574q.608-1.058 1.64-1.574l1.548-.834-1.549-.82a4.1 4.1 0 0 1-1.64-1.574Zm-.265 1.958a5 5 0 0 1-.586.812 4.7 4.7 0 0 1-.746.671 5 5 0 0 1 .266-.208 4.8 4.8 0 0 0 1.066-1.275m.53 0a5 5 0 0 0 .601.833 5 5 0 0 0-.418-.538 5 5 0 0 1-.184-.295M6.865 10.24a5 5 0 0 1 .581.349 4.4 4.4 0 0 1 .96.933 5 5 0 0 1-.215-.262 4.4 4.4 0 0 0-1.326-1.02m4.392 0a4.6 4.6 0 0 0-.836.545 4.5 4.5 0 0 0-.702.724 5 5 0 0 0 .219-.26 4.6 4.6 0 0 1 .747-.666 4.5 4.5 0 0 1 .572-.343m4.128 1.27a12 12 0 0 0-1.134.806 11 11 0 0 0-1.462 1.429 10.8 10.8 0 0 0 2.596-2.236m.595 2.976-.675 1.19-1.15.61 1.15.608.675 1.19.674-1.19 1.165-.609-1.165-.608z"/></svg>