<svg xmlns="http://www.w3.org/2000/svg" width="128pt" height="120" viewBox="0 0 128 90"><path d="m127.305 25.266-.207 1.879-1.043 1.671-11.035 7.934-1.043 1.672-.207 1.879 14.16 41.137-.211 1.671-1.457 1.043L93.57 90l-1.875-.418-1.043-1.46-9.16-32.786q-1.458-5.01-3.539-4.594l-13.535 1.672q-14.161-.001-20.617-9.605c-2.778-3.899-4.371-8.493-4.79-13.782q0-1.881-4.788-1.882H7.566l-1.664-.625-.625-1.672v-6.262l-.832-1.672-1.457-.836h-.625l-1.668-.625-.625-1.672V2.297L.695.625 2.363 0h114.528l1.875.625 1.25 1.672zm-58.309 1.879q1.253 8.769-1.871 13.785l-3.543 2.922-3.332-.207 1.25-2.297c.836-1.813 1.18-3.762 1.043-5.848q-.21-2.924-4.164-8.355h-8.332l-2.29.418-1.042 1.671q.416 9.188 5 13.993 3.956 3.965 10.203 3.964l7.078-.625 6.664-1.671 1.457-2.504.211-1.672-3.125-11.278-1.25-1.668-1.875-.628z"/></svg>