<?xml version="1.0" encoding="utf-8"?>
<svg version="1.1" id="Layer_1" xmlns="http://www.w3.org/2000/svg" xmlns:xlink="http://www.w3.org/1999/xlink" x="0px" y="0px"
	 viewBox="0 0 71 585" style="enable-background:new 0 0 71 585;" xml:space="preserve">
<g id="BPAWGv.tif">
	<g>
		<path d="M59.5,360c3.8,0.6,4.3,1.1,4.4,5.6c0,1.5,0,3,0,4.5c0,3.4-0.6,6.3-5.1,6.2c-0.1,9.5-0.3,18.9-0.4,28.2
			c0,0.8,0.5,1.8,1.2,2.4c3.4,3.3,4.3,7.4,2.8,11.5c-2,5.3-5,10.3-7.4,15.5c-1,2.1-1.5,4.5-2.4,6.7c-1.2,2.8-2.2,5.7-3.8,8.3
			c-1.8,2.9-4.1,5.4-2.4,9.1c0.3,0.6-0.1,1.4-0.1,2c-0.2,9.3-0.3,18.6-0.5,28c-0.2,8.8-0.3,17.5-0.6,26.3c-0.3,8.1-1,16.3-1.5,24.4
			c-0.1,1.9-0.6,4.1,2.3,4.5c0.3,0,0.5,0.4,0.7,0.7c1.4,3.2,2.9,6.4,3.9,9.8c0.5,1.8,0,3.9,0,5.9c0,1.6,0.1,3.1,0.2,4.7
			c0,0.9,0.3,1.8,0,2.6c-0.7,2-5.9,5.4-8,5.4c-5.9,0.1-11.8-0.3-17.7,0.3c-3.2,0.4-3.5-2.6-5.8-3.3c-2.9-0.9-2.9-3.4-1.7-6
			c0.4-1-0.1-2.3,0-3.4c0.1-2.5-0.7-5.7,0.6-7.5c2.3-3.2,2-7.7,5.6-10.2c0.4-0.3,0.4-1.5,0.4-2.3c-0.1-5.2-0.3-10.5-0.3-15.7
			c0.1-20.8,0.3-41.6,0.6-62.4c0-2.8,0.8-5.6,1.1-8.4c0.7-5.6-1.5-10.7-3-15.9c-0.4-1.3-2.3-2.1-3.7-3.4c0.5-0.2,1.1-0.4,1.7-0.8
			c1.3-0.8,1.9-1,1.2-3.4c-1.3-4.1-3.5-4.9-7-6.5c-2.7-1.3-5-6.1-5.1-9.5c-0.5-11.1-0.5-22.2,0.3-33.2c0.4-5.4,3.1-10.6,4.6-15.9
			c0.7-2.4,1.3-4.9,1.4-7.3c0.1-2.3,0.7-3.5,3-4.3c6.9-2.4,6.8-2.5,3.5-8.9c-1.5-2.8-3.3-5.4-4.3-8.3c-1-2.9-1.3-6.2-1.6-9.3
			c-0.1-0.7,1.2-1.8,2.1-2.2c2.3-1,4.7-1.8,7.4-2.9c-2.7-5-5-9.8-7.8-14.3c-2.1-3.4-1.7-6.9-1.5-10.4c0-0.8,1.3-1.7,2.2-2.1
			c2.2-1,4.5-1.8,7.3-2.8c-2.2-4.1-3.9-8.3-6.5-11.9c-3.7-5.1-3-10.7-2.8-16.3c0-0.8,1.2-1.8,2.1-2.2c2.3-1.1,4.7-1.9,7.6-3
			c-2.3-4.3-4.2-8.6-6.8-12.3c-3.9-5.5-2.4-11.5-2.5-17.4c0-0.7,1.1-1.6,2-2c2.3-1,4.7-1.8,7.6-2.9c-2.2-4.1-3.8-8.2-6.3-11.7
			c-4.2-5.8-2.9-12.1-2.9-18.4c0-0.8,1.2-1.8,2.1-2.2c2.3-1.1,4.6-1.9,7.4-3c-2.8-5.3-6.3-10-7.9-15.2c-1.5-4.9-1-10.4-1.2-15.6
			c0-0.5,1.3-1.2,2.1-1.5c2.2-0.9,4.5-1.7,7.3-2.7c-2.1-3.9-4-7.8-6.2-11.3c-2.2-3.6-3-7.2-3-11.4c0.4-31.4,0.7-62.8,0.9-94.3
			c0-3,0.6-5.5,2.6-7.9c3.6-4.5,6.9-9.2,10.4-13.8c0.6-0.8,1.3-1.5,2.3-2.6c3.2,4.7,6.2,9.1,9.1,13.4C48.7,33.4,54,41,59,48.8
			c1.3,2,2.2,4.6,2.1,7c-0.8,92.4-1.7,184.8-2.5,277.2C58.6,341.8,59.2,350.7,59.5,360L59.5,360z M52,432.8
			c7.2-7.5,10.1-17.9,6.7-22.5c-1.5,3.1,3.6,9.2-4.7,8.9c1.3,3.9-0.7,5.2-4.2,5.3C50.5,427.3,51.2,429.8,52,432.8L52,432.8z
			 M45.3,444.2c5.1-6.9,5.5-9.7,2.9-13.1C47.3,435,46.4,439.2,45.3,444.2z"/>
	</g>
</g>
</svg>
