<?xml version="1.0" encoding="utf-8"?>
<svg version="1.1" id="Layer_1" xmlns="http://www.w3.org/2000/svg" xmlns:xlink="http://www.w3.org/1999/xlink" x="0px" y="0px"
	 viewBox="0 0 191 617.5" style="enable-background:new 0 0 191 617.5;" xml:space="preserve">
<g id="iDrU8X.tif">
	<g>
		<path d="M82.8,569c-5.4-8.2-3.3-17.2-3.8-26.1c-0.6,0.9-1.2,1.7-2.4,3.5c-2.3-5.4-5.5-10-6.1-14.9c-0.9-6.8-1.5-13.2-6.9-18.3
			c-3.1-3-4.2-6.6-4.5-11.3c-0.3-4.3-4.2-8.4-6.7-12.9c-3.1,3.4-6.4,4.7-7-0.2c-1.6-13-9.9-23.2-13.1-35.4
			c-1.1-4.3-2.6-8.6-4.1-13.3c-2.7,3.3-5.2,7.5-10.7,3.5c0.2-4.4,0.5-9.2,0.7-13.9c0-0.6-0.5-1.2-0.9-1.7c-2-2.7-1.3-5.2-0.6-8.4
			c1.4-6.3,4.9-12.7,0.2-19.7c-2.1-3.1-1.4-8-1.9-12.1c-1.3-9.7-2.8-19.4-3.8-29.2c-0.5-4.5,0-9.1,0.1-13.7c0-1.6,0.2-3.3,0.3-4.9
			c0.2-7.6,0.3-15.3,0.4-22.9c0.1-5.8,0.9-11.9-0.4-17.5c-0.6-2.7-3.7-5.2-2.4-8.6c2.1-5.1,4.8-10,6.6-15.3
			c1.3-3.9,1.4-8.1,2.4-12.1c1.8-6.7,4-13.3,6-19.9c2.6-8.4,5.6-16.8,7.7-25.3c2.3-9.6,3.3-19.6,5.9-29.1c1.9-7,5.3-13.7,8.3-20.3
			c1.6-3.5,4.6-6.5,5.7-10.1c3.5-11.2,8.7-21.6,12.6-32.6c1.8-5.1,4.7-9.9,7-14.8c1.8-4,3.3-8.2,5.1-12.2
			c4.2-9.3,8.8-18.4,12.7-27.8c2.4-5.7,3.6-11.9,5.5-17.8c1.9-5.9,4-11.7,5.8-17.7c3.3-10.9,9.1-20,17.5-27.6
			c4.4-4.1,11.5-2.8,13.8,3.3c3.1,8.3,5.5,16.9,8.6,25.2c0.8,2.2,2.9,4,5,5.4c0.9,3.1,1.6,6.3,2.8,9.2c2,5,1.7,9.6-1.3,14.1
			c-3.4,4.9-6.3,10.2-10,14.9c-3.2,4-7.5,7.2-11,11c-3.5,3.8-6.6,7.9-10.2,12.3c2.8,0.7,4.3,1,7.4,1.7c-2.6,2.4-4.4,4-6.1,5.6
			c-2.8,2.8-5.9,5.4-8.1,8.6c-5.7,8.1-11.1,16.5-16.4,24.8c-0.6,0.9,0,2.6-0.4,3.8c-3.9,11.8-7.6,23.7-12.1,35.3
			c-3.8,9.9-7.4,19.7-9.5,30.1c-0.8,3.8-2.6,7.5-3.2,11.3c-1.4,9-2.8,18-3.1,27c-0.1,4.7,2.4,9.5,3.7,14.2c0.2,0.8-0.2,1.8-0.3,2.7
			c-1,5.5-2.2,10.9-3.1,16.4c-1,5.5-2,11.1-2.6,16.7c-0.2,2.4,0.9,4.9,1.3,7.4c0.5,2.6,0.9,5.1,1.6,8.8c-2-1.3-3-2-4.4-2.9
			c-0.2,4.1-0.3,7.8-0.6,11.4c-0.3,3.4-0.6,6.7-1.2,10c-1.4,7.8-3.6,15.6-4.2,23.5c-0.3,3.7,2.6,7.5,3.8,10.5
			c-0.3,2.4-1.1,4.3-0.7,6.1c3.4,16.2,9.5,31.4,16.8,46.2c0.7,1.3,0.8,2.9,1.1,4.4c1.4,5.9,2.2,11.6,8.7,15.2
			c4.8,2.7,5.3,9.4,7.5,14.6c1,2.4,1.1,5.6,2.8,7.3c1.6,1.8,4.6,2.2,7.5,3.4c-1.1,0.9-1.7,1.5-2.8,2.5c2.4,0.5,5.3,0.2,6.5,1.5
			c2.4,2.5,4.8,5.7,5.4,8.9c1.1,5.4,4,8.1,9,9.1c5.5,1.1,9,4.6,11.8,10l-7.1,3.5c4.4,8.9,8.5,17.9,13.3,26.6c4,7.2,11.9,8.5,19,10
			c8.6,1.8,14.9,3.1,13.9,13.7c-0.6,5.7-1,11.8,0.2,17.3c1.1,5.2,4.2,10.2,6.8,14.9c5.3,9.4,5.1,14.4-1.3,22.7
			c-2,2.7-3.6,7.4-5.9,7.8c-3.7,0.6-8.2-1.1-11.8-2.9c-6.1-3-11.9-6.7-17.7-10.2c-3-1.8-6.2-3.6-8.8-6c-4.6-4-8.9-8.3-13.3-12.5
			c-3.2-3.1-6.4-6.3-9.5-9.5c-0.9-1-1.5-2.2-2.7-2.2c-1.6-0.4-3.8-0.2-4.8-1.2c-3.1-3.1-7.4-5.5-5.8-11.5c0.4-1.4-2.7-3.8-4.2-5.9
			C88.3,559.6,89.9,566.7,82.8,569L82.8,569z"/>
	</g>
</g>
</svg>
