<?xml version="1.0" encoding="utf-8"?>
<svg version="1.1" id="Layer_1" xmlns="http://www.w3.org/2000/svg" xmlns:xlink="http://www.w3.org/1999/xlink" x="0px" y="0px"
	 viewBox="0 0 129 536" style="enable-background:new 0 0 129 536;" xml:space="preserve">
<g id="_6TWlWx.tif">
	<g>
		<path d="M69.4,65.6c-0.2,1.5-0.4,2.5-0.6,4.1c1.8,0.2,3.4,0.3,5.2,0.5c0.3,2.7,3.1,5.3,0.3,8.4c-0.2,0.2,0.6,1.8,1,1.9
			c3.2,0.2,2.8,2.5,2.8,4.8c1.1,0.2,2.1,0.4,3,0.6c-0.6,2.1-1.2,4-1.5,5c2.8,2.1,5,3.7,7.3,5.4c-0.9,1.4-1.5,2.3-2.3,3.5
			c2.3,1.8,7.3,2.5,2.7,6.9c1.6,0.8,2.9,1.5,4.2,2.1c1,2.6-5.8,5.8,0.9,8c-1.8,3.1,1,4.1,3.2,5.5c-0.8,1.1-1.5,2.1-2.4,3.2
			c1.9,1.6,3.5,3.2,1.4,5.8c-0.3,0.3,1.2,2.1,2,3.4c-0.5,0.6-1.2,1.5-1.9,2.4c5.2,4.5,5.4,6,1.7,11.4c-3.2,4.8-6.7,9.6-9.4,14.7
			c-1.8,3.3-2.7,7.2-3.7,10.9c-1.6,6.2-4.3,12.3-3,18.8c1.6,8.4,3.6,16.7,5.9,24.9c2.1,7.6,4.8,15.1,6.9,22.8
			c1.6,6,2.6,12.2,3.6,18.4c0.2,1-0.7,2.4-1.5,3.2c-7.9,6.9-15.8,13.7-23.7,20.6c-0.4,0.4-0.7,1.6-0.5,1.8c2.4,2.4,0.3,3.9-1.4,4.5
			c-3.4,1.2-5,3.8-6.2,6.9c-0.3,0.9-1.1,1.6-1.2,1.6c0.6,3.4,1.5,6.1,1.5,8.9c-0.1,4.5-0.4,9.1-1.2,13.6c-0.5,2.9-1.7,5.7-2.8,8.5
			c-0.9,2.3-1.1,4.9-4.1,6.3c-1.7,0.8-2.4,3.6-3.9,6c3.1,1.1,5.6,2,8.9,3.1c-0.6,4-1.2,8.2-1.8,12.3c-0.1,0.6-0.3,1.3-0.1,1.7
			c2.2,5.3,0.8,10.7,0.6,16.1c-0.1,2.9-1.2,5.8-1.9,8.7c-0.1,0.3-0.1,0.9,0.1,1c3.1,2.3,1.7,5.8,2.4,8.8c0.5,2.2,0.4,4.4-1.9,5.8
			c-0.5,0.3-1,1.2-0.9,1.8c0.5,2.5,1,5,1.8,7.4c1.4,4.1,0.5,6.9-3.5,7.8c-4.4,1-5,3.5-5.3,7.5c-0.4,4.9,2.4,8.3,3.7,12.4
			c0.9,2.7,0.9,5.7,2,8.3c3.3,8.6,11,12.4,18.5,16.5c6.2,3.3,12.8,3.9,19.5,5c7.1,1.2,14.1,2.6,20.7,5.7c4.5,2.2,6.8,5.2,5.7,9.5
			c-0.6,2.5-2.7,5.2-5,6.5c-3.7,2.3-8.1,3.6-12.2,5.3c-5.6,2.2-11.5,4.1-16.9,6.8c-1.5,0.7-2.5,4-2.3,6c0.3,2.5,1.6,5.1,4.7,6
			c5.7,1.7,7.3,7,8.6,11.6c1.5,5.3-4.7,9.3-9.9,6.6c-4.3-2.2-8.1-5.3-12.2-7.9c-7.3-4.5-13.9-10-22.5-12.1
			c-9.3-2.3-18.4-5.1-27.6-7.6c-5.4-1.5-8.9-5.8-11.4-10.2c-2.3-4.2-3.9-9.3-4-14c0-7.1,1.5-14.2,2.6-21.3c0.6-4.2,2.1-8.3,2.4-12.5
			c0.2-3-2.3-6.7-1.3-9.2c3.1-8,1.3-16.1,1.4-24.1c0.3-13.3-0.4-26.7-0.2-40c0.1-7.9,1.4-15.8,2.1-23.7c0.4-4.4,2-9.4,0.5-13
			c-2.3-5.7-1.9-11.6-3.1-17.3c-1-4.5-1.3-8.8,1.5-12.8c0.3-0.5,0.6-1.2,0.5-1.6c-0.8-2.4-1.8-4.8-2.7-7.2c-0.1-0.3-0.4-0.7-0.3-1
			c2.4-5.4-0.5-10.8,0.1-16.3c0.6-6.1-0.7-12.3-1.4-18.5c-0.6-5.8-1.7-11.5-2.3-17.3c-0.6-6.2-1.6-12.5-0.9-18.6
			c1.2-10.7,1.7-21.4,5.5-31.8c4-10.8,6.8-22,10.2-33c1.5-5,3.2-10,4.3-15.2c1-4.7,1.3-9.6,1.8-14.4c1.1-11,1.4-22.1,0-33.1
			c-1.5-11.2-3.1-22.5-5.2-33.6c-2.7-14.9-6.8-29.4-12.5-43.5c-1.5-3.7-3.2-7.3-4.9-11c0.3-0.3,0.6-0.6,0.9-1
			c4.5,2.5,9.1,4.8,13.4,7.6c3.4,2.2,6.6,5,9.7,7.7c4.1,3.6,4,3.7,4,10.8c1.6-0.1,3.3-0.2,5.4-0.3c-0.4,1.7-0.7,3-1.1,4.8
			c2.2,0.1,4.3,0.2,7,0.3c-0.3,1.4-0.5,2.8-0.8,4.5c1.7,0.1,2.8,0.2,4.8,0.3c-0.3,1.3-0.6,2.7-1,4.3c1.8,0.2,3.1,0.3,4.6,0.4
			c0.1,1.2,0.2,2.4,0.3,3.8c1,0.1,2,0.3,3.1,0.4c-0.4,1.8-0.7,3.4-1.1,5.4c1.6,0.2,2.8,0.4,4.9,0.6c-0.4,1-0.8,2-1.2,3
			c2.2,0.1,3.6,0.2,5,0.3c-0.2,1.7-0.4,3.2-0.6,4.9C66.5,65.3,67.8,65.4,69.4,65.6L69.4,65.6z"/>
	</g>
</g>
</svg>
