<?xml version="1.0" encoding="utf-8"?>
<svg version="1.1" id="Layer_1" xmlns="http://www.w3.org/2000/svg" xmlns:xlink="http://www.w3.org/1999/xlink" x="0px" y="0px"
	 viewBox="0 0 313 184" style="enable-background:new 0 0 313 184;" xml:space="preserve">
<g id="_2zbb9E.tif">
	<g>
		<path d="M52.5,148.1c3.2,0.2,6.9,0.3,10.4,0.7c3.3,0.4,4.5,1.9,4.5,5.2c0,6.4,0,12.9,0,19.3c0,2.4-1.2,3.9-3.4,4.1
			c-4.7,0.6-9.5,1.2-14.2,1.2c-12,0.2-23.9,0.1-35.9,0.1c-5.1,0-6.8-1.4-7-6.4C6.8,165.7,6.9,159,7,152.2c0-2.4,1.2-3.2,5.2-4.1
			c-0.1-1.3,0-2.6-0.5-3.9c-1.4-4.2-1.2-8.5-0.9-12.9c0.1-1.3-0.3-2.7-0.5-4c-0.1-0.4-0.3-1-0.2-1.3c2.1-3.6,1.5-7.2,0.8-11.1
			c-0.3-1.6,1.3-3.4,1.7-5.2c0.4-1.7,0.3-3.5,0.6-5.3c0.1-0.9,0.3-1.9,0.6-2.8c0.6-1.9,2-3.8,1.7-5.5c-0.5-3.4,1.6-5.5,2.6-8.2
			c0.2-0.5,0.7-1.1,0.6-1.5c-1.1-4,2.6-6.3,3.5-9.6c2.7-9.8,10.2-17,14.1-26.2c2.4-5.6,5.1-11.1,7-16.9c0.6-1.9-0.9-4.4-1.5-6.7
			c-0.9-3.5-2-6.9-2.7-10.4c-0.7-3.7,2.1-7.3,5.8-7.3c15.2-0.2,30.5-0.4,45.7-0.4c11.9,0,23.8,0.2,35.7,0.3c7.8,0,15.6-0.1,23.4,0.1
			c1.4,0,2.8,0.8,4.2,1.3c1.9,0.6,3.7,1.4,5.6,1.8c2.5,0.5,4.3,1.4,4.8,4.2c0.4,2.1,1.2,4.2,1.5,6.3c0.2,1.6,1,2.1,2.5,2.1
			c1.6,0,3.2,0.2,4.9,0.2c0.3,1.1,0.6,2.2,0.8,2.7c4.5,0.1,8.6,0.3,12.7,0.4c1.3,0,2.6-0.2,3.9-0.1c4.6,0.2,4.6,0.2,5,4.5
			c5.2-2,10.6-0.7,16-0.8c0.2,0.7,0.4,1.3,0.5,1.9c0.8,2.9,2.6,4.4,5.6,4.5c0.5,0,1.3-0.1,1.3,0.1c1,3.2,3.6,1.6,5.4,1.6
			c26.1,0,52.1-0.1,78.2-0.1c1.4,0,2.8,1,4.1,1.7c0.3,0.2,0.5,1.4,0.3,1.6c-1,1-2,2.2-3.2,2.4c-1.6,0.3-3.4-0.4-5.1-0.4
			c-25.5,0-51-0.1-76.5,0.1c-2.7,0-5.5,1.2-8.5,1.9c-0.2,0.4-0.5,1.2-0.8,2c-0.5,1.5-0.6,3.8-1.6,4.4c-1.4,0.8-3.5,0.3-5.3,0.4
			c-2.1,0-4.2,0.1-6.3,0c-1.3-0.1-2.5-0.7-4.1-1.1c-0.1,0.3-0.4,1-0.5,1.7c-0.2,0.7-0.2,1.4-0.4,2.6c-1.6,0.1-3.4,0.4-5.1,0.4
			c-4.8,0-9.6-0.3-14.3-0.2c-0.9,0-1.7,1.6-2.5,2.4c0.2,0.3,0.3,0.5,0.5,0.7c-1.9,0.1-3.8,0.2-5.4,0.4c-1.2,3.8-2.4,7.5-3.5,11.3
			c-1.8,6.3-6,9.4-12.4,10.4c-12.1,1.8-24.2,1.7-36.3,1c-7.4-0.4-14.8-1.4-22.2-2.3c-5.6-0.7-6.2-0.3-6.5,5.3
			c-0.3,5.6,1.1,10.5,5.6,14.6c-2.9,1.5-5,0.1-7-1.1c-5.4-3.4-8-8.7-9.5-14.7c-0.2-0.8-0.6-1.5-0.9-2.3c-4.3,2.4,0.4,5.5-0.9,8.4
			c-3,0.5-6.2,0.9-9.3,1.6c-2.5,0.5-5,1.2-7.4,2.3c-0.8,0.4-1.7,2.2-1.5,3.1c1.6,5.4-1.4,9-4.6,12.4c-2.4,2.6-2.9,5.5-1.2,8.5
			c0.8,1.4,1.8,2.7,2.2,4.2c0.8,2.5,0.4,5-1.4,7.1c-3.2,3.8-1.8,7.8-0.5,11.7C51.2,144.3,51.8,146.1,52.5,148.1L52.5,148.1z"/>
	</g>
</g>
</svg>
