<?xml version="1.0" encoding="utf-8"?>
<svg version="1.1" id="Layer_1" xmlns="http://www.w3.org/2000/svg" xmlns:xlink="http://www.w3.org/1999/xlink" x="0px" y="0px"
	 viewBox="0 0 126.2 560.9" style="enable-background:new 0 0 126.2 560.9;" xml:space="preserve">
<g id="RQQ1zx.tif">
	<g>
		<path d="M63.6,341.6c-0.4-3.8-0.7-7.6-1.2-11.4c-0.3-2.6-0.8-5.1-1.4-8.5l-2.8,2.4c-0.1-0.9-0.2-1.4-0.2-1.9
			c-0.1-3.7-0.5-4.2-4.2-5.8c-0.4-0.2-0.5-0.9-0.8-1.4c-0.8-1.1-1.4-2.6-2.5-3c-7.8-3.4-10.7-10.7-13.2-17.6
			c-2-5.5-2.3-11.7-2.4-17.6c-0.1-4.5,1.6-9,2-13.6c1.2-13.6,1.8-27.3,3.2-40.9c1.1-10.8,2.7-21.6,4.3-32.3
			c1.1-7.6,2.5-15.2,3.7-22.9c0.1-0.8-0.2-1.7-0.5-2.5c-0.8-2.2-1.7-4.3-2.7-6.8c-0.7-0.6-2-1.8-3.3-3l0.7-0.9
			c-8.8-1.7-17.7-3.4-26.5-5.2c0.1-0.5,0.1-1.1,0.2-1.6c3-0.5,6.1-1.3,9.1-1.4c8.4-0.2,15.1-4,21.2-9.2c3.4-2.9,2.5-7.9-1.3-10.2
			c-9-5.5-18.4-10.6-25.9-18.2c-0.6-0.6-1-1.2-2-2.4c5.5,2.8,10.1,5.8,15.1,7.7c5,2,10.3,3,16.2,4.7c0.2-7.8,0.9-15,0.4-22
			c-0.4-5,0.9-10.3,3.5-12.9c4.9-5.1,4-10.7,4.8-16.4c1.1-8.6,2.2-17.2,3.2-25.9c0.2-1.9,0.1-4-0.4-5.9c-2.7-9.2,1.4-17.3,3.8-25.7
			c0.4-1.3,1-2.6,2.4-3.8c0.3,2.8,0.8,5.7,0.9,8.5c0.9,15.5,1.6,31,2.6,46.5c0.1,1.1,1.5,2.6,2.7,3.2c2.6,1.4,3.2,3.5,3.3,6.2
			c0,2.9-0.1,5.7,0.3,8.6c0.2,1.5,1.3,3.1,2.2,4.4c1.1,1.5,2.5,2.9,4,4.2c0.6,0.5,1.5,0.7,2.3,0.8c0.8,0,1.6-0.5,2.4-0.4
			c0.2,0,0.4,1.2,0.5,1.9c-1,0.3-2,0.5-3.1,0.8c-0.3,0.1-0.5,0.2-0.9,0.4c0.1,2.9,0.2,5.9,0.4,9.3c1.3,0.1,2.5,0.1,4.2,0.2
			c-2.7,2-5,3.6-8.1,5.9c3.3,1,5.1,1.6,7,2.2c-0.2,0.3-0.4,0.7-0.6,0.7c-6.3,0.9-6.4,1.1-6.3,7.9c0,1.6,0.1,3.1,0.1,4.7
			c0,1.6-0.1,3.2-0.3,6.1c8.7,0,17.4,0,27.1,0c-8.3,7.2-17.1,10.1-27.9,10.7c-0.3,13-0.8,25.9-0.9,38.9c-0.1,14.7,0.2,29.5,0.4,44.2
			c0.3,23.3,0.7,46.7,1,70c0.1,10.3-0.1,20.6,0.1,30.9c0.1,5.6,5,8.2,9,9.9c5.6,2.3,7.9,6.8,10.3,11.3c2.1,3.9,3.5,8.5,4.2,12.9
			c0.4,2.6-1.4,5.6-1.4,8.3c0,2,1,4.5,2.4,5.8c12.1,11.1,18,24.8,17.5,41.2c-0.3,10.5-2,20.6-5.4,30.6c-2.3,6.9-7.5,11.3-12.1,15.6
			c-6.3,5.8-13.5,11.2-22.3,13.4c-3,0.7-6.1,1.1-9.2,1.7c-1.7,0.3-3.3,0.5-5.1,0.8c-1.2,27.5-2.4,54.7-3.6,82.2
			c-4.2-0.2-8.6-0.4-14-0.6c5.6-27.6,6.5-55.1,6.9-81.9c-9-3.2-17.8-5.7-26.2-9.3c-5.8-2.4-9-7.8-12.6-13
			c-5.2-7.6-8.6-15.8-11.1-24.4c-3.6-12.8-1.9-25.2,4-37.2c2.2-4.4,4.3-8.7,8.4-11.8c1.5-1.1,2.3-3.2,3.2-5c2.1-4.5,4-9,5.8-13
			c1.2-0.3,1.5-0.5,1.7-0.4c4.4,3.1,8.4,2.3,13.3,0.2c5.8-2.6,12.4-3.4,19-4c0.6-1.1,1.2-2.3,1.9-3.4c1,0.9,2.1,1.8,3.1,2.7
			c0.5-1.1,1.2-2.1,1.5-3.2c0.4-1.5,0.4-3.1,0.6-4.6c0.3,1.7,0.6,3.3,1,4.9c0.4,1.5,1.1,2.8,1.7,4.3c0.5-0.2,1-0.3,1.6-0.5
			c-0.1-5.8,0-11.5-0.3-17.3c-0.1-1.7-1.2-3.4-2.1-5.9c-1,1.8-1.3,2.4-1.7,3c-1.4-2.5-2.8-5-4.2-7.5c-0.3,0.2-0.6,0.4-1,0.5
			C63.9,332.6,63.7,337.1,63.6,341.6L63.6,341.6z M73.6,290.8c0.4,0.6,1.1,1.2,1.1,1.8c0,6.1-0.5,12.2-0.1,18.3
			c0.3,3.8-1.5,8.2,2.6,12.5c-0.7-56.9-1.3-112.6-1.9-168.4c-0.6,0-1.2,0-1.8,0c0,1.9,0.1,3.8,0.1,5.6c0.1,10.4,0.3,20.7,0.2,31.1
			c0,4.7-0.4,9.5-0.7,14.2c-0.4-0.7-1.1-1.5-1.1-2.2C72,191.6,72,179.6,72,167.5c0-4.2-0.1-8.3-0.2-12.5c-0.5-0.2-1-0.3-1.5-0.5
			c-0.6,1.4-1.4,2.9-1.8,4.4c-0.4,1.8-0.5,3.6-0.7,5.4c-0.4-2.1-0.9-4.2-1.3-6.2c-8.3,5.5-5.2,14.4-6.8,22c-0.2-2-0.4-4-0.6-6.6
			c-3.3,8.5-0.9,17-3.7,25c-2.3,6.5-2.5,13.7-3.2,20.7c-1,10.7-0.8,21.5-2.4,32.3c-1.5,9.8-2.3,19.9,0.5,29.8
			c0.4,1.5,0.1,3.2,0.6,4.7c0.2,0.7,1.4,1.2,1.8,1.6c0.4,2,0.6,4.1,1.2,6.1c1.3,4,7.3,5.4,6.2,10.9c-0.1,0.3,1.5,0.9,2.3,1.4l-0.1,0
			l5.4,6.5c0.4-2,0.8-3.9,1.2-5.8c0.2,2,0.3,4,0.7,5.9c0.5,2.2,1.4,4.3,2.1,6.4c0.5-0.1,0.9-0.3,1.4-0.4c-0.1-4.7-0.4-9.4-0.3-14
			C72.9,299.9,73.3,295.4,73.6,290.8L73.6,290.8z M87.3,359.1c0.3-0.4,0.7-0.7,1-1.1c-2.5-4.8-4.9-9.6-7.4-14.5
			c-1.1,2.6-1.2,4.8-1.2,6.9c0,2.1,0.2,4.2,0.3,6.4C82.4,357.5,84.9,358.3,87.3,359.1L87.3,359.1z M75,356.9
			c3.3-3.4,3.1-16.6-0.2-20.6C74.9,343.5,75,349.6,75,356.9z"/>
		<path d="M61.4,276.4c-0.1-9.4-0.3-18.9-0.4-28.3c0.4,0,0.8,0,1.3,0c0.2,9.4,0.3,18.9,0.5,28.3C62.3,276.4,61.9,276.4,61.4,276.4z"
			/>
		<path d="M68,218.7c0.4,4.2,1.1,8.3,1.1,12.5c0.1,5.2-0.4,10.4-0.6,15.6c-0.3-4.4-0.7-8.7-0.8-13.1C67.7,228.6,67.9,223.6,68,218.7
			L68,218.7z"/>
		<path d="M68.2,186.1c0.3,4.7,0.6,9.5,0.8,14.2c0.1,2.2-0.3,4.5-0.4,6.7c-0.4-2.3-1-4.6-1-6.9C67.5,195.5,67.9,190.7,68.2,186.1
			L68.2,186.1z"/>
		<path d="M60.4,219.9c-0.2-7.2-0.3-14.4-0.5-21.7c0.4,0,0.9,0,1.3,0c0.1,7.2,0.3,14.5,0.4,21.7C61.2,219.9,60.8,219.9,60.4,219.9
			L60.4,219.9z"/>
		<path d="M68.7,273.9c0.1,6,0.2,12.1,0.2,18.1C68.8,286,68.7,280,68.7,273.9z"/>
		<path d="M62.4,306l-0.7-16.3c0.5,0,0.9,0,1.4,0c-0.7,5.4,1.7,10.9-0.8,16.3L62.4,306z"/>
		<path d="M67.7,173.3c0.1,4.3,0.3,8.6,0.4,12.9C68,182,67.9,177.6,67.7,173.3z"/>
		<path d="M73.2,205.7c0.3,7.1,0.7,14.2,0.8,21.3c0.2,14.5,0.4,29,0.4,43.6c0,6.8-0.6,13.6-0.9,20.4c-0.4-5-1-10.1-1-15.1
			c-0.2-14.2-0.2-28.4-0.3-42.7c0-8.1-0.1-16.2-0.1-24.4C72.2,207.8,72.9,206.8,73.2,205.7L73.2,205.7z"/>
	</g>
</g>
</svg>
