<?xml version="1.0" encoding="utf-8"?>
<svg version="1.1" id="Layer_1" xmlns="http://www.w3.org/2000/svg" xmlns:xlink="http://www.w3.org/1999/xlink" x="0px" y="0px"
	 viewBox="0 0 72 587.9" style="enable-background:new 0 0 72 587.9;" xml:space="preserve">
<g id="_3UroWX.tif">
	<g>
		<path d="M42.8,490.5c2.1,22.2,2.2,44.8-0.1,67.2c6.5,2.8,7.2,5.8,3.3,11.3c-1.9,2.6-4.6,4.6-5.5,8.2c-0.4,1.6-3.6,3.8-5.2,3.5
			c-2-0.3-3.9-2.7-5.4-4.5c-1.6-1.9-2.6-4.3-4.1-6.3c-1.9-2.6-4.1-5.1-2.7-8.5c0.7-1.5,2.4-2.6,3.7-3.9l1.2,0.6c-0.1-4,0-8-0.4-11.9
			c-1.5-16-0.8-31.8,0.9-47.7c0.3-2.4,0.1-4.8,0-7.2c0-0.6-0.6-1.3-1-1.8c-1.6-1.6-3.1-3.6-5-4.7c-5.6-3.3-7-9.8-11-14.2
			c-0.8-0.8-1.7-1.9-1.7-3c-0.1-1.6,0-3.6,0.9-4.7c0.8-0.9,2.9-0.8,4.4-0.8c2,0.1,3.6,1.8,6.1,0.5c3.3-1.7,4.1-3.6,4.1-7.3
			c-0.1-18.6,0.3-37.3,0.4-56c0.1-16.1,0-32.2,0.2-48.3c0.2-19.4,0.7-38.7,0.9-58.1c0.3-20.9,0.4-41.8,0.7-62.7
			c0.3-17.3,0.8-34.7,1.1-52c0.5-28.9,0.9-57.8,1.4-86.7c0.4-24.1,1-48.3,1.6-72.4c0.1-4.3,1.8-7.9,4.9-11c1.7-1.7,3-1.2,4.4,0.3
			c3.4,3.6,4.5,8.1,4.6,12.9c0.2,17.5,0.3,34.9,0.5,52.4c0.2,23.1,0.4,46.2,0.5,69.3c0.1,20.7,0.1,41.5,0.2,62.2
			c0.1,31.7,0.3,63.4,0.4,95.1c0.1,15.3,0,30.6-0.1,45.9c0,26.1,0,52.3-0.1,78.4c0,10.7-0.1,21.5-0.2,32.2c0,5.1,3,7.3,7.7,5.5
			c2.7-1.1,5.4-1.1,7.2,1c0.9,1,1.3,3.6,0.7,4.8c-2.2,4.3-4.8,8.5-7.7,12.4c-2.1,2.9-4.8,5.4-7.4,7.9
			C46.3,489.4,44.7,489.6,42.8,490.5L42.8,490.5z"/>
	</g>
</g>
</svg>
