<?xml version="1.0" encoding="utf-8"?>
<svg version="1.1" id="Layer_1" xmlns="http://www.w3.org/2000/svg" xmlns:xlink="http://www.w3.org/1999/xlink" x="0px" y="0px"
	 viewBox="0 0 124 525.4" style="enable-background:new 0 0 124 525.4;" xml:space="preserve">
<g id="i7Sbui.tif">
	<g>
		<path d="M114.9,58.7c-1.6-0.9-3.2-2-5-2.5c-1.6-0.5-3.4-0.5-5.2-0.4c-1.7,0.1-4.2,1.3-4.8,0.6c-2.4-2.7-3.2,0.5-5,1
			c-0.8-0.4-1.8-1-2.9-1.6c-0.9,0.7-1.9,1.4-2.9,2.1c-0.9-0.7-1.7-1.4-2.6-2c-2.5,1.8-4.5,1.9-6,0.2c-1.9,1.8-3.8,4-6.4,1
			c-1.1,0.9-2,1.7-3.1,2.6c-1.2-1-2.3-1.9-3.4-2.9c-1.8,1-2.8,4.9-5.9,1.8c-0.2-0.2-1.1,0.6-1.7,0.7c-1.1,0.2-2.2,0.3-3.3,0.2
			c-0.7-0.1-1.4-0.5-2.2-0.8c-0.6,1.4-1.6,2.8-1.6,4.2c-0.1,7.5,0.2,15,0.1,22.5c-0.1,4.5-0.6,9-1,13.4c-0.1,0.8-0.1,1.9-0.6,2.3
			c-2.9,2.7-3.5,5.7-1,9.5c2.5-0.2,6.2,2,7.7-2.4c0.7-1.9,0.8-4.6,0-6.4c-3.3-7.4-3.7-15.1-2.4-22.9c0.2-1.3,0-2.7,0.2-4
			c0.2-1.3,0.7-2.6,1-4c1.1,0.8,2.2,1.6,3.2,2.4c0.6,0.5,1.2,1,1.7,1.5c1.5-0.7,1.9-5.9,4.2-0.8c0.2,0.5,3-0.1,4.5-0.1
			c0.1-0.3,0.1-0.6,0.2-0.9c0.8,0.9,1.7,1.9,2.7,3l3.4-3.4c0.9,1.1,1.9,2.1,2.9,3.3c1.3-0.9,2.5-1.7,3.8-2.7c1,0.9,2,1.8,3.2,2.8
			c1.2-0.8,2.3-1.7,3.7-2.7c2.2,3.4,4.5,2.5,6.8,0c1.7,2.4,3.4,3.9,5.9,1.3c0.2-0.2,0.6-0.4,0.6-0.3c3.5,4.3,7.6-2.2,11.9,1.6
			c-0.1,2.1-0.2,5.2-0.3,8.3c-0.3,8.8-4,15.6-11.2,20.4c-0.5,0.3-1,0.6-1.5,1c-1.8,1.3-3.8,2.2-1.5,5.1c1.4,1.7,2.3,4.2,2.5,6.5
			c0.2,1.9-0.8,4-1.3,6c-0.6,2.4-1.5,4.8-1.6,7.2c-0.3,4.6-0.3,9.3-0.4,13.9c2.3,0.7,4.4,1.4,6.9,2.1c-0.3,7.9-0.6,15.9-0.9,23.9
			c0,0.6-0.2,1.2-0.2,1.8c-0.3,4.5-2.7,7.1-7,7.8c-0.3,1.7-0.6,3.4-0.9,5.1c-0.3,0-0.6,0-0.8-0.1c-0.1-1.4-0.2-2.8-0.4-4.5
			c-0.4,0.5-0.7,0.8-0.7,1c-0.4,19.2-0.8,38.4-1.2,57.6c-0.1,3,0,6.1,0.1,9.2c0.2,6.9,0.6,13.8,0.7,20.7c0,1.4-0.9,2.9-1.3,4.3
			c-0.4,1.2-1.1,2.5-1,3.7c0.4,15.6,0.8,31.2,1.3,46.7c0.1,4.1,0.1,8.3,0.2,12.4c0.4,14.3,0.8,28.7,1.1,43
			c0.5,23.2,1.4,46.3,1.4,69.5c0,13.8-2.2,27.7-2.1,41.5c0.1,8.9-5,15.1-8.2,22.4c-1.8,4.2-6.4,3.9-9.5,3.9c-2.7,0-5.5-3.1-8.1-5.2
			c-1.3-1-2.2-2.6-3.6-4.2c2-2.5-1.1-4.5-1.9-7.1c-0.5-1.4-1.3-2.8-1.5-4.3c-3.3-29.4-3.2-58.8-2.2-88.3c0.6-17.5,1-35.1,1.4-52.6
			c0.2-8.4,0.6-16.8,0.8-25.2c0.3-10.8,0.3-21.6,0.6-32.4c0.1-5.5,0.8-10.9,0.7-16.4c0-4-1.2-8-1.3-12.1
			c-0.4-16.7-0.6-33.4-0.9-50.1c0.2,0-0.5,0.1-1.6,0.3c-0.1-6.8-0.3-13.5-0.5-20.2c-0.2-6.6-0.5-13.1-0.8-20.2
			c-4.6,0.4-8.9,0.7-13.5,1.1c0.1-0.4-0.2,0.1,0,0.2c3.2,2.9,4.7,5.8,0.2,8.9c-0.3,0.2,0.3,2,0.8,2.7c1.9,2.5,2.8,4.7-0.6,6.8
			c-0.5,0.3-0.6,2.8,0,3.3c2.8,2.4,2.2,4.3,0.2,7c-0.9,1.2-0.7,3.4-0.5,5.1c0.3,2,1.2,3.9,1.9,5.8c-0.3,0.6-0.5,1.1-0.8,1.7
			c-2.6-0.3-5.2-0.7-7.9-0.8c-6.2-0.2-12.4-0.2-18.7-0.5c-1.1-0.1-2.8-1-3.2-1.9c-0.5-1.4-0.7-3.5,0-4.7c1.3-2.5,2-4.6,0-6.9
			c-1.8-2.1-1.9-4.1,0.5-5.9c2.2-1.6,1.1-3.1-0.2-4.6c-1.8-2-1.9-3.8,0.3-5.8c0.8-0.8,1.4-3.3,0.8-3.8c-3.1-3.2-2.1-5.6,1.8-8.5
			c-2.7-0.2-4.6-0.4-6.5-0.4c-3.9-0.2-6.6-2.3-7-6.2c-1.1-11.6-2.7-23.2-2.8-34.8c0-5.8,2.7-11.6,4.2-17.3c0.7-2.6,1.6-5.1,2.4-7.7
			c2.4-0.4,4.9-0.8,7-1.1c1-1.8,2-3.2,2.5-4.8c0.3-0.9,0-2.3-0.6-3c-2.3-2.8-2.3-6-2.3-9.3c0-9.5,0.6-19.1-0.4-28.5
			c-1-9.2,0.6-17.9,2.9-26.5c1.4-5,5.2-9.2,7.9-13.8c0.8-1.3,1.5-2.6,2.4-3.8c4.4-6,10.9-8.1,17.7-9.2c14.8-2.5,28.5,1.7,41.7,7.9
			c6.3,2.9,12.4,6.3,18.1,10.2c5.6,3.8,9.7,8.8,9,16.4c-0.4,4.2-0.4,8.5-0.6,12.7C115.8,57.9,115.4,58.3,114.9,58.7L114.9,58.7z
			 M61.6,177.5c0.2,11.9,0.4,23.1,0.5,34.2c0.9-10.3,1-20.5,1-30.7C63.2,180,62.3,178.9,61.6,177.5L61.6,177.5z"/>
	</g>
</g>
</svg>
