<?xml version="1.0" encoding="utf-8"?>
<svg version="1.1" id="Layer_1" xmlns="http://www.w3.org/2000/svg" xmlns:xlink="http://www.w3.org/1999/xlink" x="0px" y="0px"
	 viewBox="0 0 95 590" style="enable-background:new 0 0 95 590;" xml:space="preserve">
<g id="EhPMsu.tif">
	<g>
		<path d="M38.1,573.2c-7.9-8.9-9-19.1-7.7-29.5c1.3-10.6,3.8-21.1,5.4-31.7c1-6.5,0.7-13.1-1.8-19.4c-1.1-2.8-2.9-3.4-5.4-3.7
			c-5.2-0.6-10.4-1.4-15.5-2.3c-0.9-0.1-2.1-1.3-2.2-2.1c-0.5-3.6-0.9-7.2-0.9-10.9c0-4.8,0.4-9.6,0.5-14.4
			c0.1-15.9,0.2-31.9,0.2-47.8c0-26.7-0.3-53.4-0.2-80c0.1-22,0.6-44,0.6-65.9c0.1-25.3-0.3-50.6-0.2-75.9
			c0.1-23.7,0.5-47.4,0.7-71.1c0-2.7-0.4-5.4-0.4-8.2c-0.1-5.1,1.9-7.6,6.9-8.5c3.8-0.7,7.7-0.8,11.5-1.4c5.3-0.8,9.2-6.5,8.4-11.8
			c-2.1-13.9-4.4-27.7-5.9-41.6c-1.1-9.7,0.3-19.2,5.7-27.7c3.3-5.2,8.8-8,14.8-6.7c1.1,0.2,2.2,0.8,3,1.5
			c5.3,5.4,8.5,11.6,9.7,19.2c1.4,8.8-1.2,17.1-2.2,25.5C61.6,68.8,60,78.9,59.5,89c-0.2,3.4,1.8,7.7,4.2,10.1
			c1.8,1.8,6,1.1,9.1,1.8c3.9,0.8,8.1,1.3,11.6,3c4.4,2.2,2.4,6.8,2.6,10.6c0,1-0.4,2-0.4,3c-0.1,21.2-0.2,42.4-0.2,63.6
			c0,22.7,0.3,45.3,0.3,68c-0.1,23-0.6,46-0.6,69c-0.1,26.6,0.3,53.1,0.2,79.7c-0.1,23.9-0.4,47.9-0.6,71.8c0,3.5,0.4,7.1,0.4,10.6
			c0,3.6-2.3,6.8-5.8,7.4c-4.8,0.7-9.7,1-14.6,1.2c-2,0.1-2.9,1-3.9,2.6c-4.3,6.2-2,12.9-1.4,19.3c0.9,9.5,3.3,18.9,4.1,28.5
			c0.7,8,1.5,16.2-1.3,24.2c-1.9,5.5-5.8,9.6-10.2,13.1C49.1,579.4,40.8,577.3,38.1,573.2L38.1,573.2z"/>
	</g>
</g>
</svg>
