<?xml version="1.0" encoding="utf-8"?>
<svg version="1.1" id="Layer_1" xmlns="http://www.w3.org/2000/svg" xmlns:xlink="http://www.w3.org/1999/xlink" x="0px" y="0px"
	 viewBox="0 0 155 454" style="enable-background:new 0 0 155 454;" xml:space="preserve">
<g id="_4gf0Ff.tif">
	<g>
		<path d="M30.2,447.2c-6.7,0.1-13.2,0.1-20,0.2c0-1.2-0.1-2.4-0.1-3.6c0.3-53.2,0.6-106.4,0.9-159.7c0.5-78.5,0.9-157,1.4-235.6
			c0-3.5-0.1-7.2,0.8-10.5c3.4-12.1,11.2-20,23.5-23.2c1.1-0.3,2.3-0.3,3.4-0.3c18.3-0.3,36.7-0.6,55-0.8c2.2,0,3.7-0.7,5.3-2.3
			c3.1-3,6.7-5,11.5-4.8c9.6,0.4,19.1,0,28.7,0c1.4,0,2.9,0.2,3.6,0.2c0.4,10.8,0.7,21.3,1,31.3c-0.8,0.5-1,0.8-1.1,0.8
			c-12.7-0.1-25.5-0.2-38.2-0.5c-1.5,0-3.4-0.9-4.5-2c-2.7-2.6-5.6-3.2-9.3-3.1c-15.7,0.3-31.5,0.3-47.2,0.4
			c-7.9,0-12.4,3.5-13.9,11.2c-0.7,3.7-1.2,7.4-1.2,11.2c-0.5,121.3-0.9,242.5-1.3,363.8c0,7.8,0.4,15.6,0.7,23.4
			C29.2,444.6,29.8,445.9,30.2,447.2L30.2,447.2z"/>
	</g>
</g>
</svg>
