<svg xmlns="http://www.w3.org/2000/svg" xml:space="preserve" width="649.07" height="480.123" viewBox="0 0 171.733 127.033"><g transform="translate(-11.451 -91.283)"><rect width="25.202" height="12.832" x="96.573" y="91.347" rx="1.079" ry="1.671" style="display:inline;fill:#060606;fill-opacity:1;stroke-width:5.38803"/><path d="M123.78 91.61c-.354.335-.406 8.956-.028 9.333.352.352 11.641-8.976 11.29-9.332-.435-.44-10.801-.435-11.262 0"/><path d="M36.705 91.318c-19.234 3.584-24.9 18.692-25.254 35.546.003 19.067.315 38.125.343 57.195.266 6.553.01 14.775.2 21.98-.335 2.658 1.18 4.55 1.923 6.594 1.732 1.74 2.614 3.198 5.001 4.205 4.255 2.396 10.575.92 15.759 1.376 46.727.074 93.472.239 140.188-.13 1.05-.99 5.225-1.478 5.989-4.322 3.315-4.272 1.418-10.746 2.007-16.045.055-9.358-.037-18.717.095-28.075.295-2.692.045-13.053.097-18.573-.182-9.032.205-18.129.119-27.104.012-2.918-.708-4.297-1.032-6.886-.434-1.22-1.012-2.87-1.54-4.286-5.577-12.936-32.235-35.213-57.756-7.107-6.3 1.651-13.684.29-20.373.714-11.594-.374-23.196-.35-34.797-.323-1.778-4.708-11.411-9.993-10.84-11.381 12.576-.147 25.154-.09 37.731-.119.34.045.241-.126.251-3.049-19.369-.065-38.753.173-58.111-.21m5.374 3.261c9.777.333 18.74 6.481 23.652 14.813 19.21.34 38.429.146 57.643.197 4.978-10.697 17.537-16.049 28.906-14.576 16.173.96 28.935 16.81 27.703 32.724.047 17.563-.23 35.124-.26 52.686-2.643.474-9.837-1.658-8.135 2.774 2.186 2.07 9.009-1.83 8.142 2.649-.17 7.964.168 16.048-.313 23.939-1.264 3.967-5.37 5.928-9.29 5.258q-9.386.056-18.771.115c-.001.005-.195.02-.213.027l.096-10.25c.054-5.806.15-18.604.215-28.44l.118-17.885h-2.888c-11.712 0-22.25-6.422-27.312-16.646-.61-1.229-1.213-2.313-1.342-2.408-.13-.095-.164-.174-.078-.176s-.151-.909-.528-2.016c-.376-1.106-.684-2.213-.684-2.46 0-.44-.672-.45-33.483-.51-18.415-.033-41.861-.033-52.103 0l-18.518.062c.02-4.974.03-9.949.108-14.922.602-13.28 11.575-25.464 25.37-24.943a24 24 0 0 1 1.965-.012m107.917 7.828c-14.332-.623-26.844 13.666-23.992 27.812 1.872 14.19 18.14 23.978 31.503 18.701 13.349-4.197 20.185-21.188 13.41-33.451-3.881-7.77-12.231-12.998-20.921-13.062m-106.9 14.106c-6.515-.2-10.738 6.668-9.458 12.677.19 1.658-1.017 6.833 1.593 4.704.301-5.17-1.48-12.057 4.242-14.84 6.19-3.596 13.133 3.233 11.249 9.708.68 1.681-1.406 6.203 1.67 5.454-.4-5.529 1.668-12.564-4.007-16.038-1.54-1.081-3.373-1.845-5.288-1.665m106.978 3.5c10.329-.094 6.459 17.087-2.8 12.642-6.558-2.524-4.213-13.082 2.8-12.643M43.079 124.83c-7.974.534.284 11.76 3.086 3.862.357-1.85-1.165-3.855-3.086-3.862m-.12.705c7.318 2.487-4.218 8.879-2.192 1.223l1.007-.841zm13.913 16.943c1.083.076 2.31 2.39 7.288 10.959 6.908 11.89 6.487 10.674 4.383 12.651-1.813 1.702-3.57 5.085-3.588 6.904-.012 1.178-.012 1.178-13.1 1.178-13.09 0-13.09 0-13.072-1.439.138-10.918 6.912-23.067 16.365-29.348.77-.512 1.232-.94 1.724-.905m38.851.283c.897-.024 1.845.893 3.556 2.214 8.175 6.314 12.965 15.042 14.107 25.707.373 3.488.373 3.488-12.778 3.488s-13.15 0-13.162-1.177c-.018-1.82-1.775-5.203-3.588-6.905-2.092-1.968-2.556-.648 4.528-12.877 4.494-7.755 5.843-10.41 7.337-10.45m-84.1 1.678c.484.917-.23.731 0 0m64.164 22.384c4.853-.218 9.276 4.75 7.174 9.823-1.904 4.593-6.834 6.276-10.742 3.665-4.7-3.14-4.592-9.518.214-12.446a7 7 0 0 1 3.354-1.042m6.231 17.468c4.371 6.49 12.605 22.186 11.91 22.706-4.58 3.432-19.429 5.479-26.105 3.6-3.673-1.035-8.276-2.796-9.326-3.572-.719-.531 9.158-19.438 11.875-22.729.038-.046 1.374.247 2.966.653 2.498.638 3.293.638 5.76-.005 1.572-.407 2.888-.702 2.92-.653m78.972 11.873a6.3 6.3 0 0 0-1.286.014c-8.034.148-6.404 13.569 1.575 11.596 6.716-1.105 5.798-11.026-.29-11.61m-1.141 2.007c8.976.202.34 13.524-3.393 4.953-.81-2.282 1.002-4.845 3.393-4.953m20.696 16.145c-1.32 1.58-2.391 2.242 0 0"/></g></svg>