<?xml version="1.0" encoding="UTF-8"?>
<svg id="Layer_1" data-name="Layer 1" xmlns="http://www.w3.org/2000/svg" viewBox="0 0 564.5 299.53">
  <defs>
    <style>
      .cls-1, .cls-2 {
        stroke-width: 0px;
      }

      .cls-2 {
        fill: #fff;
      }
    </style>
  </defs>
  <g id="FwiGbZ.tif">
    <g>
      <path class="cls-2" d="m0,0h564.5v299.53H0V0Zm352.54,117.49c2.35,0,4.1,0,5.85,0,65.77.04,131.54.08,197.3.12,4.81,0,6.2-1.28,6.21-6.12.03-27.69.03-55.39,0-83.08,0-4.8-1.49-6.21-6.19-6.21-24.33.01-48.66.06-72.99.05-92.31,0-184.62-.03-276.94-.05-1.33,0-2.66-.03-3.98.05-9.9.63-19.8,1.29-29.7,1.95.22-.5.44-1.01.67-1.51-1.67-2.14-2.89-5.37-5.07-6.25-11.32-4.56-22.88-8.52-34.36-12.69-2.65-.96-4.48-.36-5.57,2.46-2.19,5.69-4.55,11.32-7.03,17.46-8.83,0-18.25-.06-27.67.06-1.83.02-3.85.39-5.44,1.24-4.25,2.26-8.22,5.02-12.47,7.28-6.88,3.66-14.17,5.6-22.09,4.93-3.07-.26-6.24-.25-9.26.28-2.49.44-3.78.06-4.7-2.38-.84-2.22-3.44-3.05-4.16-.8-.97,3.04-3.06,3.11-5.17,3.83-7.59,2.56-8.21,3.43-8.39,11.55-.02.71-.14,1.42-.27,2.68-3.76,0-7.34-.01-10.93,0-1.47,0-2.99-.13-4.39.2-.82.2-1.45,1.19-2.17,1.83.66.7,1.24,1.5,2.01,2.05.57.4,1.45.34,2.07.7,1.14.66,2.18,1.48,3.26,2.24-1.09.78-2.2,1.52-3.26,2.33-1.13.87-2.21,1.8-3.32,2.71,1.37.61,2.71,1.67,4.1,1.75,4.15.23,8.32.08,12.63.08.12,1.5.39,2.39.24,3.21-1.02,5.32,1.9,7.87,6.43,9.35,1.26.41,2.63.68,3.7,1.4,1.15.78,2.04,1.97,2.96,3.05.61.71,1.08,2.2,1.59,2.19.98-.02,1.94-.85,2.9-1.37.91-.5,1.8-1.53,2.68-1.5,5.73.17,11.47.46,17.18.94,1.98.17,4.56.37,5.76,1.62,5.86,6.13,12.04,12.13,14.01,20.94.27,1.21,1.34,2.47,2.38,3.24,4.18,3.1,9.39,5.3,12.53,9.19,4.33,5.38,7.81,11.72,10.31,18.17,1.33,3.41.78,8.31-.63,11.85-1.98,4.97-5.27,9.51-8.5,13.87-10.76,14.51-20.32,29.54-24.47,47.48-1.55,6.7,1.38,12.84,5.75,15.46,11.01,6.61,22.93,11.92,34.9,16.68,6.63,2.63,9.63-.08,10.41-7.11.72-6.51,2.26-12.5,6.2-18.05,2.33-3.29,3.59-7.63,4.33-11.68,1.22-6.67,1.86-13.34,6.86-18.65,3.95-4.19,5.86-9.37,6.47-15.12.2-1.83,1.07-3.66,1.93-5.34,1.43-2.8,3.85-4.31,6.92-3.12,7.47,2.88,15.1,2.48,22.92,2.35,22.41-.37,44.83-.13,67.24-.13,4.2,0,8.4,0,12.51,0,.58.99.99,1.59,1.3,2.25,17.45,36.86,39.03,71.17,63.8,103.54,6.46,8.43,12.7,17.03,19.39,26.03,15.1-11.19,30.75-22.79,46.33-34.34-3.51-4.73-6.73-9.11-10-13.45-21.94-29.21-43.63-58.58-59.9-91.48-1.81-3.66-3.17-7.54-4.65-11.35-.2-.52.08-1.28.24-1.89.53-2.02,1.54-4.02,1.6-6.05.2-6.84.08-13.68.08-21.7,6.46,3.7,11.71,7.25,17.41,9.79,4.73,2.11,9.92,3.78,15.05,4.28,5.32.52,8.07-4,6.62-9.24-.31-1.11-.74-2.19-1.37-4.05Z"/>
      <path class="cls-1" d="m352.54,117.49c.63,1.86,1.06,2.93,1.37,4.05,1.45,5.25-1.3,9.76-6.62,9.24-5.12-.5-10.31-2.17-15.05-4.28-5.7-2.54-10.95-6.09-17.41-9.79,0,8.02.13,14.86-.08,21.7-.06,2.03-1.07,4.03-1.6,6.05-.16.62-.45,1.37-.24,1.89,1.48,3.81,2.84,7.7,4.65,11.35,16.28,32.9,37.96,62.28,59.9,91.48,3.26,4.35,6.48,8.72,10,13.45-15.58,11.55-31.24,23.15-46.33,34.34-6.69-8.99-12.93-17.59-19.39-26.03-24.77-32.36-46.35-66.68-63.8-103.54-.31-.65-.72-1.25-1.3-2.25-4.11,0-8.31,0-12.51,0-22.41,0-44.83-.25-67.24.13-7.82.13-15.45.53-22.92-2.35-3.07-1.19-5.49.32-6.92,3.12-.86,1.68-1.73,3.5-1.93,5.34-.62,5.74-2.52,10.93-6.47,15.12-5,5.31-5.63,11.98-6.86,18.65-.74,4.05-2,8.39-4.33,11.68-3.94,5.55-5.49,11.54-6.2,18.05-.77,7.03-3.78,9.74-10.41,7.11-11.98-4.76-23.89-10.06-34.9-16.68-4.37-2.62-7.3-8.76-5.75-15.46,4.15-17.94,13.7-32.97,24.47-47.48,3.23-4.35,6.52-8.9,8.5-13.87,1.41-3.54,1.96-8.44.63-11.85-2.51-6.45-5.98-12.79-10.31-18.17-3.14-3.89-8.35-6.09-12.53-9.19-1.04-.78-2.11-2.03-2.38-3.24-1.97-8.81-8.15-14.81-14.01-20.94-1.2-1.25-3.77-1.45-5.76-1.62-5.71-.48-11.45-.77-17.18-.94-.88-.03-1.77,1-2.68,1.5-.95.53-1.92,1.35-2.9,1.37-.51.01-.98-1.48-1.59-2.19-.92-1.08-1.81-2.27-2.96-3.05-1.06-.72-2.44-.99-3.7-1.4-4.53-1.48-7.45-4.03-6.43-9.35.16-.81-.11-1.71-.24-3.21-4.31,0-8.48.15-12.63-.08-1.4-.08-2.74-1.14-4.1-1.75,1.1-.9,2.19-1.84,3.32-2.71,1.06-.81,2.17-1.56,3.26-2.33-1.08-.75-2.12-1.57-3.26-2.24-.62-.36-1.5-.3-2.07-.7-.77-.54-1.35-1.35-2.01-2.05.72-.64,1.35-1.63,2.17-1.83,1.4-.33,2.92-.19,4.39-.2,3.59-.02,7.17,0,10.93,0,.13-1.27.25-1.97.27-2.68.17-8.12.79-8.99,8.39-11.55,2.12-.71,4.21-.78,5.17-3.83.72-2.26,3.32-1.42,4.16.8.93,2.44,2.21,2.82,4.7,2.38,3.01-.53,6.19-.54,9.26-.28,7.92.67,15.22-1.27,22.09-4.93,4.25-2.26,8.22-5.03,12.47-7.28,1.59-.85,3.61-1.21,5.44-1.24,9.42-.12,18.85-.06,27.67-.06,2.48-6.13,4.83-11.76,7.03-17.46,1.09-2.82,2.92-3.42,5.57-2.46,11.48,4.17,23.04,8.13,34.36,12.69,2.18.88,3.41,4.1,5.07,6.25-.22.5-.44,1.01-.67,1.51,9.9-.65,19.8-1.31,29.7-1.95,1.32-.08,2.65-.06,3.98-.05,92.31.01,184.62.04,276.94.05,24.33,0,48.66-.04,72.99-.05,4.7,0,6.19,1.41,6.19,6.21.03,27.69.04,55.39,0,83.08,0,4.84-1.39,6.12-6.21,6.12-65.77-.04-131.54-.08-197.3-.12-1.75,0-3.5,0-5.85,0Zm-164.83,36.36c-.54.39-1.07.77-1.61,1.16-1.55-1.3-3.29-2.43-4.62-3.92-4.46-5.01-4.38-11.18-3.86-17.32-7.39-1.06-8.87-.5-11.9,5.53-1.43,2.85-2.42,5.98-3.19,9.08-1.8,7.26.96,10.72,8.38,10.74,12.51.03,25.02,0,37.54-.02,6.34,0,8.42-1.09,9.51-7.31.75-4.33.25-9.04-.54-13.42-.57-3.15-3.04-5.08-6.81-4.99-7.06.17-14.13.11-21.19-.1-2.53-.08-3.58.98-4.51,3.13-2.7,6.29-2.8,12.16,2.81,17.44ZM33.67,42.39c-6.97,1.35-8.06,2.84-6.99,9.4.92,5.58,4.6.59,6.99,2.31v-11.71Zm-5.72,20.86c-3.53,7.17-1.18,12.37,5.64,12.04v-10.53c-1.99-.53-3.61-.96-5.64-1.51Z"/>
      <path class="cls-2" d="m187.71,153.85c-5.61-5.28-5.51-11.16-2.81-17.44.92-2.15,1.97-3.2,4.51-3.13,7.06.21,14.13.26,21.19.1,3.78-.09,6.24,1.84,6.81,4.99.79,4.39,1.29,9.09.54,13.42-1.08,6.23-3.16,7.31-9.51,7.31-12.51.01-25.02.05-37.54.02-7.43-.02-10.18-3.47-8.38-10.74.77-3.11,1.76-6.24,3.19-9.08,3.04-6.03,4.52-6.59,11.9-5.53-.52,6.13-.61,12.31,3.86,17.32,1.33,1.49,3.07,2.62,4.62,3.92.54-.39,1.07-.77,1.61-1.16Z"/>
      <path class="cls-2" d="m33.67,42.39v11.71c-2.39-1.72-6.07,3.27-6.99-2.31-1.08-6.56.02-8.05,6.99-9.4Z"/>
      <path class="cls-2" d="m27.94,63.25c2.03.54,3.66.98,5.64,1.51v10.53c-6.83.34-9.17-4.87-5.64-12.04Z"/>
    </g>
  </g>
</svg>