<?xml version="1.0" encoding="UTF-8"?>
<svg id="Layer_1" data-name="Layer 1" xmlns="http://www.w3.org/2000/svg" viewBox="0 0 581.43 218.5">
  <defs>
    <style>
      .cls-1, .cls-2 {
        stroke-width: 0px;
      }

      .cls-2 {
        fill: #fff;
      }
    </style>
  </defs>
  <g id="zlGxgh.tif">
    <g>
      <path class="cls-2" d="m581.43,218.5c-193.81,0-387.62,0-581.43,0C0,145.67,0,72.83,0,0c193.81,0,387.62,0,581.43,0,0,72.83,0,145.67,0,218.5ZM218.27,33.66c5.23,0,9.39-.77,13.14.14,13.24,3.21,26.39,4.53,39.55.06,4.35-1.48,8.36-1.68,12.68,1.53.64-2.27,1.13-4.04,1.61-5.74,6.72-.05,8.79,4.05,6.66,17.1-1.59,0-3.25,0-4.91,0-11.55,0-23.11-.03-34.66.05-1.25,0-3.48.45-3.57.98-.59,3.32-3.01,2.48-5.01,2.54-2.46.07-4.93.1-7.39-.01-1.8-.08-4,.82-4.72-2.31-.12-.51-5.88-.67-6.08-.05-1.01,3.15-3.26,2.38-5.23,2.35-9.54-.12-19.09-.38-28.63-.51-5.36-.08-10.71-.01-16.61-.01V16.33c-3.43-.93-4.91.25-4.92,3.14,0,3.52.5,7.05.3,10.55-.5,8.57,3.29,17.64-3.08,25.62-1,1.25-.9,3.5-1,5.31-.15,2.72-.04,5.45-.04,8.42-1.8.11-3.15.26-4.51.27-11.53.02-23.08-.33-34.59.16-5.44.24-11.73.3-13.73,7.68-.33,1.2-2.52,2.58-3.95,2.69-7.29.58-14.61,1.02-21.91,1.01-6.84-.01-13.7-.46-20.51-1.13-1.98-.2-4.63-1.31-5.59-2.85-5.08-8.12-12.78-10.5-21.63-10.63-7.08-.11-14.18.09-21.26-.07-3.86-.09-7.71-.65-11-.94,3.19,37.41,6.32,73.96-3.74,110.76,4.42-.47,8.64-1.06,12.88-1.33,15.51-.98,31.03-1.77,46.53-2.8,4.42-.29,8.94-.68,13.19-1.84,6.4-1.75,7.71-6.01,4.17-11.63-.55-.88-1.08-1.77-1.75-2.88,2.09-1.42,3.94-2.68,6.04-4.11-3.39-5.58-6.7-11.03-10.04-16.53-2.44,1.19-4.41,2.15-6.31,3.07-3.4-4.9-2.37-9.5-.43-14.5h31.75c-.98,4.74,2.21,3.98,4.84,3.98,7.86.01,15.71-.05,23.57.05,1.43.02,3.27.24,4.22,1.12,9.14,8.56,11.23,20.95,6.17,32.61-5.49,12.66-10.56,25.51-15.95,38.22-1.6,3.77-.79,5.95,3.18,7.34,6.81,2.4,13.52,5.09,20.26,7.67,3.64,1.39,5.31.06,5.19-3.9-.08-2.71-.52-5.72.43-8.1,5.55-13.8,11.37-27.49,17.31-41.13,2.25-5.16,11.54-7,15.67-3.22,5.19,4.74,11.4,6.56,18.17,6.75,9.58.27,17.71-4.98,20.12-12.99,2.61-8.67.35-15.96-7.05-21.63.07-.46.15-.91.22-1.37,5.25-.62,10.5-1.23,16.45-1.93v23.33c12.24,0,23.96.58,35.59-.15,14.72-.92,25.88,5.2,35.3,15.56,2.91,3.2,6.14,4.61,10.5,4.6,30.81-.11,61.62-.09,92.43.03,1.88,0,3.74,1.26,5.63,1.87,1.76.56,3.76,1.76,5.26,1.33,1.28-.37,2.42-2.55,2.87-4.14.56-1.97.36-4.17.5-6.65,5.51,0,10.72.11,15.93-.03,7.24-.19,12.15-4.82,11.95-11.28-.06-2.07-.73-4.11-1.17-6.39.87-.09,1.6-.22,2.33-.22,11.55-.02,23.11.05,34.66-.04,7.49-.05,11.7-4.36,11.75-11.74.03-4.69,0-9.39,0-15.15,8.72.84,16.69,1.94,24.68,2.24,3.76.14,8.76-.04,11.09-2.27,3.13-3,6.03-3.54,9.73-3.45,1.18.03,2.37-.2,3.77-.33.1-1.59.23-2.93.26-4.28.14-5.84,1.24-6.94,7.05-6.96,1.85,0,3.7,0,5.55,0,6.87,0,13.74,0,20.66,0v-17.32c-9.28,0-18.2-.15-27.11.06-4.46.11-6.1-2.04-6.13-6.03-.04-7.37-.01-14.75,0-22.13,0-2.22,0-4.45,0-6.86-3.28,0-5.74.07-8.2-.02-3.04-.1-7.85-4.94-7.95-7.98-.39-11.76-.73-23.53-1.11-35.29-.04-1.19-.2-2.37-.32-3.6h-7.3c-.5,12.41-1.07,24.46-1.45,36.51-.2,6.3-.04,6.32-6.5,6.32-69.48,0-138.96,0-208.44,0-1.65,0-3.31,0-5.53,0,.54-11.19.57-21.89-13.87-23.05-.49-1.7-.88-3.08-1.46-5.12-4.97,3.66-9.71,2.34-14.49.98-11.04-3.13-22.06-3.31-33.22-.3-5.55,1.5-11.32,3.39-17.19-.63-2.14,5.88-2.12,10.92-.54,15.02Z"/>
      <path class="cls-1" d="m218.27,33.66c-1.58-4.1-1.61-9.14.54-15.02,5.87,4.02,11.64,2.13,17.19.63,11.16-3.01,22.18-2.83,33.22.3,4.78,1.35,9.52,2.68,14.49-.98.58,2.03.98,3.42,1.46,5.12,14.44,1.16,14.41,11.85,13.87,23.05,2.22,0,3.88,0,5.53,0,69.48,0,138.96,0,208.44,0,6.46,0,6.31-.02,6.5-6.32.38-12.05.94-24.1,1.45-36.51h7.3c.11,1.23.28,2.42.32,3.6.38,11.76.73,23.53,1.11,35.29.1,3.04,4.91,7.88,7.95,7.98,2.45.08,4.91.02,8.2.02,0,2.41,0,4.63,0,6.86,0,7.38-.03,14.75,0,22.13.02,3.99,1.67,6.14,6.13,6.03,8.91-.22,17.83-.06,27.11-.06v17.32c-6.92,0-13.79,0-20.66,0-1.85,0-3.7,0-5.55,0-5.81.02-6.91,1.12-7.05,6.96-.03,1.35-.16,2.7-.26,4.28-1.4.13-2.59.36-3.77.33-3.7-.09-6.6.45-9.73,3.45-2.33,2.23-7.33,2.41-11.09,2.27-7.99-.3-15.96-1.4-24.68-2.24,0,5.76.02,10.46,0,15.15-.04,7.39-4.26,11.69-11.75,11.74-11.55.08-23.11.02-34.66.04-.73,0-1.46.14-2.33.22.43,2.28,1.1,4.32,1.17,6.39.2,6.46-4.71,11.09-11.95,11.28-5.2.14-10.41.03-15.93.03-.15,2.48.06,4.68-.5,6.65-.45,1.59-1.59,3.76-2.87,4.14-1.5.44-3.5-.76-5.26-1.33-1.89-.61-3.75-1.86-5.63-1.87-30.81-.12-61.62-.14-92.43-.03-4.36.02-7.59-1.4-10.5-4.6-9.42-10.36-20.58-16.48-35.3-15.56-11.63.73-23.35.15-35.59.15v-23.33c-5.95.7-11.2,1.32-16.45,1.93-.07.46-.15.91-.22,1.37,7.4,5.67,9.66,12.96,7.05,21.63-2.41,8-10.54,13.26-20.12,12.99-6.78-.19-12.99-2.01-18.17-6.75-4.13-3.78-13.43-1.94-15.67,3.22-5.94,13.64-11.76,27.33-17.31,41.13-.96,2.38-.52,5.39-.43,8.1.12,3.96-1.55,5.29-5.19,3.9-6.74-2.58-13.45-5.27-20.26-7.67-3.96-1.4-4.77-3.57-3.18-7.34,5.38-12.71,10.45-25.55,15.95-38.22,5.06-11.67,2.97-24.06-6.17-32.61-.94-.88-2.79-1.1-4.22-1.12-7.86-.1-15.71-.04-23.57-.05-2.63,0-5.82.76-4.84-3.98h-31.75c-1.94,5-2.97,9.6.43,14.5,1.89-.92,3.86-1.88,6.31-3.07,3.34,5.5,6.65,10.95,10.04,16.53-2.1,1.43-3.96,2.69-6.04,4.11.67,1.11,1.2,2.01,1.75,2.88,3.54,5.62,2.23,9.88-4.17,11.63-4.25,1.16-8.76,1.55-13.19,1.84-15.5,1.03-31.02,1.82-46.53,2.8-4.24.27-8.46.86-12.88,1.33,10.06-36.8,6.94-73.35,3.74-110.76,3.29.3,7.14.85,11,.94,7.08.16,14.17-.04,21.26.07,8.85.14,16.55,2.51,21.63,10.63.97,1.55,3.61,2.66,5.59,2.85,6.81.67,13.67,1.12,20.51,1.13,7.31.01,14.63-.43,21.91-1.01,1.43-.11,3.62-1.49,3.95-2.69,2-7.38,8.29-7.44,13.73-7.68,11.51-.5,23.06-.14,34.59-.16,1.36,0,2.71-.16,4.51-.27,0-2.98-.11-5.71.04-8.42.1-1.81,0-4.06,1-5.31,6.37-7.97,2.57-17.04,3.08-25.62.21-3.5-.3-7.03-.3-10.55,0-2.89,1.49-4.07,4.92-3.14v33.44c5.9,0,11.26-.06,16.61.01,9.54.14,19.09.39,28.63.51,1.97.02,4.22.8,5.23-2.35.2-.62,5.96-.46,6.08.05.72,3.12,2.92,2.23,4.72,2.31,2.46.11,4.93.09,7.39.01,2-.06,4.42.78,5.01-2.54.09-.53,2.33-.97,3.57-.98,11.55-.07,23.11-.05,34.66-.05,1.66,0,3.32,0,4.91,0,2.13-13.05.06-17.15-6.66-17.1-.48,1.7-.97,3.46-1.61,5.74-4.32-3.21-8.33-3-12.68-1.53-13.16,4.47-26.3,3.15-39.55-.06-3.75-.91-7.91-.14-13.14-.14Zm-29.7,102.71c-6.27,6.75-5.42,17.22,1.4,21.9,5.18,3.55,11.07,4.14,17.17,3.19,6.85-1.06,11.8-4.54,13.39-11.46,1.38-6.03.34-11.57-5.15-15.51-5.79-4.16-11.99-4.42-19.66-2.38,2.31,7.25,4.45,13.96,6.57,20.63-6.29,1.2-8.16.14-10.03-5.38-1.17-3.46-2.32-6.92-3.69-10.99Zm248.48,10.07c-2.92,0-4.79,1.89-5.02,5.29-.22,3.22,2.59,6.09,5.76,5.78,3.27-.33,5.46-2.14,5.37-5.68-.09-3.42-1.84-5.4-6.11-5.38Zm-169.5-25.82c-.16-.33-.31-.66-.47-.99h-17.08v6.85c6.3-2.11,11.93-3.99,17.55-5.87Zm220.29,9.93c-.64,0-1.29-.02-1.93-.03-1.17,1.66-2.99,3.18-3.35,5-.59,2.98,1.74,4.91,4.4,4.36,1.67-.35,3.88-2.68,4.05-4.31.16-1.55-2.01-3.34-3.16-5.03Zm-17.13,0c-.66.02-1.32.05-1.98.07-.98,1.75-2.93,3.66-2.66,5.19.29,1.61,2.69,2.86,4.17,4.26,1.39-1.53,3.78-3,3.88-4.61.09-1.56-2.17-3.27-3.4-4.91Z"/>
      <path class="cls-2" d="m188.57,136.37c1.37,4.07,2.52,7.53,3.69,10.99,1.87,5.53,3.75,6.58,10.03,5.38-2.13-6.68-4.26-13.38-6.57-20.63,7.67-2.04,13.88-1.77,19.66,2.38,5.49,3.94,6.54,9.49,5.15,15.51-1.59,6.91-6.54,10.39-13.39,11.46-6.11.95-11.99.36-17.17-3.19-6.82-4.68-7.67-15.15-1.4-21.9Z"/>
      <path class="cls-2" d="m437.05,146.44c4.27-.02,6.02,1.96,6.11,5.38.09,3.54-2.09,5.36-5.37,5.68-3.17.32-5.98-2.55-5.76-5.78.23-3.4,2.1-5.3,5.02-5.29Z"/>
      <path class="cls-2" d="m267.55,120.62c-5.62,1.88-11.25,3.76-17.55,5.87v-6.85h17.08c.16.33.31.66.47.99Z"/>
      <path class="cls-2" d="m487.85,130.54c1.15,1.69,3.32,3.48,3.16,5.03-.17,1.63-2.38,3.96-4.05,4.31-2.66.55-4.99-1.38-4.4-4.36.36-1.82,2.19-3.34,3.35-5,.64,0,1.29.02,1.93.03Z"/>
      <path class="cls-2" d="m470.71,130.55c1.23,1.64,3.49,3.34,3.4,4.91-.09,1.61-2.49,3.08-3.88,4.61-1.48-1.4-3.88-2.65-4.17-4.26-.27-1.53,1.69-3.44,2.66-5.19.66-.02,1.32-.05,1.98-.07Z"/>
    </g>
  </g>
</svg>