<svg id="Layer_1" data-name="Layer 1" xmlns="http://www.w3.org/2000/svg" viewBox="0 0 581.43 218.5">
    <g>
      <path class="cls-1" d="m218.27,33.66c-1.58-4.1-1.61-9.14.54-15.02,5.87,4.02,11.64,2.13,17.19.63,11.16-3.01,22.18-2.83,33.22.3,4.78,1.35,9.52,2.68,14.49-.98.58,2.03.98,3.42,1.46,5.12,14.44,1.16,14.41,11.85,13.87,23.05,2.22,0,3.88,0,5.53,0,69.48,0,138.96,0,208.44,0,6.46,0,6.31-.02,6.5-6.32.38-12.05.94-24.1,1.45-36.51h7.3c.11,1.23.28,2.42.32,3.6.38,11.76.73,23.53,1.11,35.29.1,3.04,4.91,7.88,7.95,7.98,2.45.08,4.91.02,8.2.02,0,2.41,0,4.63,0,6.86,0,7.38-.03,14.75,0,22.13.02,3.99,1.67,6.14,6.13,6.03,8.91-.22,17.83-.06,27.11-.06v17.32c-6.92,0-13.79,0-20.66,0-1.85,0-3.7,0-5.55,0-5.81.02-6.91,1.12-7.05,6.96-.03,1.35-.16,2.7-.26,4.28-1.4.13-2.59.36-3.77.33-3.7-.09-6.6.45-9.73,3.45-2.33,2.23-7.33,2.41-11.09,2.27-7.99-.3-15.96-1.4-24.68-2.24,0,5.76.02,10.46,0,15.15-.04,7.39-4.26,11.69-11.75,11.74-11.55.08-23.11.02-34.66.04-.73,0-1.46.14-2.33.22.43,2.28,1.1,4.32,1.17,6.39.2,6.46-4.71,11.09-11.95,11.28-5.2.14-10.41.03-15.93.03-.15,2.48.06,4.68-.5,6.65-.45,1.59-1.59,3.76-2.87,4.14-1.5.44-3.5-.76-5.26-1.33-1.89-.61-3.75-1.86-5.63-1.87-30.81-.12-61.62-.14-92.43-.03-4.36.02-7.59-1.4-10.5-4.6-9.42-10.36-20.58-16.48-35.3-15.56-11.63.73-23.35.15-35.59.15v-23.33c-5.95.7-11.2,1.32-16.45,1.93-.07.46-.15.91-.22,1.37,7.4,5.67,9.66,12.96,7.05,21.63-2.41,8-10.54,13.26-20.12,12.99-6.78-.19-12.99-2.01-18.17-6.75-4.13-3.78-13.43-1.94-15.67,3.22-5.94,13.64-11.76,27.33-17.31,41.13-.96,2.38-.52,5.39-.43,8.1.12,3.96-1.55,5.29-5.19,3.9-6.74-2.58-13.45-5.27-20.26-7.67-3.96-1.4-4.77-3.57-3.18-7.34,5.38-12.71,10.45-25.55,15.95-38.22,5.06-11.67,2.97-24.06-6.17-32.61-.94-.88-2.79-1.1-4.22-1.12-7.86-.1-15.71-.04-23.57-.05-2.63,0-5.82.76-4.84-3.98h-31.75c-1.94,5-2.97,9.6.43,14.5,1.89-.92,3.86-1.88,6.31-3.07,3.34,5.5,6.65,10.95,10.04,16.53-2.1,1.43-3.96,2.69-6.04,4.11.67,1.11,1.2,2.01,1.75,2.88,3.54,5.62,2.23,9.88-4.17,11.63-4.25,1.16-8.76,1.55-13.19,1.84-15.5,1.03-31.02,1.82-46.53,2.8-4.24.27-8.46.86-12.88,1.33,10.06-36.8,6.94-73.35,3.74-110.76,3.29.3,7.14.85,11,.94,7.08.16,14.17-.04,21.26.07,8.85.14,16.55,2.51,21.63,10.63.97,1.55,3.61,2.66,5.59,2.85,6.81.67,13.67,1.12,20.51,1.13,7.31.01,14.63-.43,21.91-1.01,1.43-.11,3.62-1.49,3.95-2.69,2-7.38,8.29-7.44,13.73-7.68,11.51-.5,23.06-.14,34.59-.16,1.36,0,2.71-.16,4.51-.27,0-2.98-.11-5.71.04-8.42.1-1.81,0-4.06,1-5.31,6.37-7.97,2.57-17.04,3.08-25.62.21-3.5-.3-7.03-.3-10.55,0-2.89,1.49-4.07,4.92-3.14v33.44c5.9,0,11.26-.06,16.61.01,9.54.14,19.09.39,28.63.51,1.97.02,4.22.8,5.23-2.35.2-.62,5.96-.46,6.08.05.72,3.12,2.92,2.23,4.72,2.31,2.46.11,4.93.09,7.39.01,2-.06,4.42.78,5.01-2.54.09-.53,2.33-.97,3.57-.98,11.55-.07,23.11-.05,34.66-.05,1.66,0,3.32,0,4.91,0,2.13-13.05.06-17.15-6.66-17.1-.48,1.7-.97,3.46-1.61,5.74-4.32-3.21-8.33-3-12.68-1.53-13.16,4.47-26.3,3.15-39.55-.06-3.75-.91-7.91-.14-13.14-.14Zm-29.7,102.71c-6.27,6.75-5.42,17.22,1.4,21.9,5.18,3.55,11.07,4.14,17.17,3.19,6.85-1.06,11.8-4.54,13.39-11.46,1.38-6.03.34-11.57-5.15-15.51-5.79-4.16-11.99-4.42-19.66-2.38,2.31,7.25,4.45,13.96,6.57,20.63-6.29,1.2-8.16.14-10.03-5.38-1.17-3.46-2.32-6.92-3.69-10.99Zm248.48,10.07c-2.92,0-4.79,1.89-5.02,5.29-.22,3.22,2.59,6.09,5.76,5.78,3.27-.33,5.46-2.14,5.37-5.68-.09-3.42-1.84-5.4-6.11-5.38Zm-169.5-25.82c-.16-.33-.31-.66-.47-.99h-17.08v6.85c6.3-2.11,11.93-3.99,17.55-5.87Zm220.29,9.93c-.64,0-1.29-.02-1.93-.03-1.17,1.66-2.99,3.18-3.35,5-.59,2.98,1.74,4.91,4.4,4.36,1.67-.35,3.88-2.68,4.05-4.31.16-1.55-2.01-3.34-3.16-5.03Zm-17.13,0c-.66.02-1.32.05-1.98.07-.98,1.75-2.93,3.66-2.66,5.19.29,1.61,2.69,2.86,4.17,4.26,1.39-1.53,3.78-3,3.88-4.61.09-1.56-2.17-3.27-3.4-4.91Z"/>
    </g>
</svg>