<svg id="Layer_1" data-name="Layer 1" xmlns="http://www.w3.org/2000/svg" viewBox="0 0 576.33 133">
  <path class="cls-1" d="m152.83,54.12c-5.48-1.32-9.53-.6-14.41,3.69-3.85,3.38-4.89,7.71-7.95,10.98-1.43,1.53-3.22,3.21-5.14,3.73-36.1,9.71-72.24,19.26-108.39,28.8-1.8.48-3.71.56-5.01.75.77-10.47,2.28-20.54,2.02-30.57-.26-10.14-5.16-19.17-11.08-28.29,13.19-.98,25.55-1.9,37.91-2.81,18.9-1.4,37.8-2.86,56.71-4.12,2.76-.18,5.87-.05,8.34,1.02,6.52,2.84,12.65,2.47,19.17-.08,10.48-4.1,21.1-7.87,31.76-11.47,4.96-1.68,10.21-2.51,15.24-4.01,1.25-.37,3.02-1.82,3.08-2.86.31-5.34.14-10.7.14-16.05l1.53-.21c.4,1.4,1.04,2.79,1.15,4.21.27,3.59,1.53,4.89,5.19,3.21,4.07-1.86,7.21-.49,9.48,3.61-1.99,1.43-3.05,4.35-6.41,2.28-.4-.25-2.39,2.05-4.22,3.69,8.1,1.82,9.72,1.31,10.29-3.18,7.04,6.88,15.6,3.96,23.51,4.04,29.21.29,58.42.07,87.63.05,55.35-.04,110.69-.09,166.04-.12,33.4-.02,66.8.1,100.2-.18,5.37-.05,4.76,2.73,4.89,6.1.14,3.61-.2,5.75-4.94,5.68-19.12-.27-38.24-.09-57.36-.1-2.31,0-4.73-.29-3.77,4.05,21.46-.5,43.02-1.01,64.59-1.52,1.34,4.01.32,5.53-4.05,5.42-21.49-.55-42.98-.91-64.47-1.13-2.26-.02-4.53,1.37-6.82,2.02-1.12.31-2.31.58-3.47.56-7.53-.09-15.12.33-22.56-.51-25.8-2.91-51.59-.09-77.38-.37-24.98-.27-49.97.42-74.96.74-31.11.4-62.23.76-93.34,1.34-10.62.2-21.23,1.02-31.84,1.59-1.65.09-3.36.1-4.92.56-2.59.76-5.05,1.58-5.23,5.17-.29,5.8-4.22,8.74-9.39,10.11-8.38,2.22-15.95,1.02-21.87-5.98,1.08-1.64,2.17-3.28,3.26-4.91l-.9-.7c-2.75.95-5.49,1.9-8.09,2.79,2.18,1.1,4.02,2.03,5.86,2.96Zm17,1.45c-.21.07-.43.13-.64.2-.38-.89-.61-1.88-1.16-2.64-1.33-1.85-2.52-4.6-4.31-5.12-1.93-.56-5.22.34-6.6,1.82-2.33,2.49-.21,5.24,1.96,6.8,5.7,4.11,11.89,3.19,17.98.86,3.62-1.38,5.84-4.05,4.6-8.02-1.24-3.98-5.11-3.95-8.28-3.7-4.19.34-3.65,3.94-3.69,6.88-.01.97.09,1.94.13,2.91Z"/>
  <path class="cls-1" d="m248.88,61.99c1.68,1.85,2.87,3.15,4.92,5.41-2.65,2.25-5.38,4.16-7.61,6.53-8.16,8.71-16.15,17.59-24.24,26.37-.8.87-1.76,1.69-2.81,2.2-11.65,5.76-23.14,11.85-35.03,17.07-21.42,9.4-44.02,11.49-67.11,9.21-6.41-.63-12.75-2.05-19.13-2.99-3.33-.49-4.74-2.28-4.36-5.54,1.18-10.1,4.6-19.46,9.54-28.29,1.78-3.18,4.13-3.46,7.55-1.93,30.83,13.86,62.13,14.74,93.75,2.8,1.56-.59,2.53-2.62,4.07-3.38,2.72-1.33,5.78-1.96,8.5-3.29,5-2.44,10.36-4.56,14.67-7.94,6.1-4.79,11.39-10.6,17.3-16.24Z"/>
</svg>