<?xml version="1.0" encoding="UTF-8"?>
<svg id="Layer_1" data-name="Layer 1" xmlns="http://www.w3.org/2000/svg" viewBox="0 0 578.96 131.5">
  <defs>
    <style>
      .cls-1, .cls-2 {
        stroke-width: 0px;
      }

      .cls-2 {
        fill: #fff;
      }
    </style>
  </defs>
  <g id="Bmo08R.tif">
    <g>
      <path class="cls-2" d="m578.96,131.5H0V0h578.96v131.5Zm-352.15-53.34c1.28-.91,2.53-1.86,3.84-2.72,1.13-.74,2.27-1.68,3.53-1.96,2.01-.44,4.13-.39,6.75-.59-.41,2.65-.79,5.12-1.18,7.6.35.08.69.17,1.04.25,2.23-5.79,4.46-11.57,6.84-17.73.24,1.24.43,2.11.57,3,2.72,16.83,7.04,33.09,16.24,47.76,1.48,2.37,3.21,4.02,5.72,2.82,10.77-5.14,21.4-10.57,32.2-15.96-7.86-14.71-16.37-28.42-16.25-45.6,9.39-.43,18.28-.83,27.48-1.25-.34,4.53,2.53,5.59,5.83,6.42,8.04,2.03,16.27,2.01,23.8-.87,8.23-3.15,16.61-3.05,25.03-3.79,14.48-1.27,28.96-2.64,43.21-3.95.51-2.23.8-3.5,1.17-5.1,1.83,0,3.48,0,5.13,0,16.56,0,33.13-.07,49.69.07,3.43.03,7.24-1.36,10.25,1.89.43.47,2.23-.2,3.36-.51,1.48-.4,2.92-1.39,4.38-1.38,22.32.14,44.64.41,66.97.62,4.52.04,9.04,0,13.56,0,.24-.51.49-1.02.73-1.53-1.78-1.57-3.56-3.13-5.33-4.7.17-.41.35-.83.52-1.24h13.86v-11.05h-14.23V2.8h-13.14c-1.47,4.19-2.88,7.99-4.13,11.85-1.29,3.98-2.31,8.06-3.73,11.99-.31.86-1.84,1.82-2.82,1.82-16.41.02-32.82-.32-49.22-.07-6.32.09-10.9-2.6-15.16-6.56-3.32-3.09-6.41-6.47-9.96-9.29-1.72-1.37-4.22-2.41-6.39-2.45-12.76-.24-25.53-.04-38.29-.22-3.01-.04-6.01-1.01-8.98-1.54-1.65.5-3.49,1.53-5.34,1.54-17.32.12-34.65.12-51.97,0-1.84-.01-3.68-1.1-5.51-1.69-1.47-.59-3.15-.48-4.72-.85-2.05-.49-3.98-1.47-6.03-2-1.14-.3-2.99.37-3.53-.25-3.86-4.43-7.91-.77-11.89-.66-5.89.17-11.8.07-17.68-.29-2.59-.16-5.12-1.23-7.68-1.89-.24.52-.48,1.05-.71,1.57.66,1,1.32,1.99,2.31,3.49-2.42.24-4.59.65-6.76.65-38.44-.08-76.89-.18-115.33-.39-3.75-.02-6.58,1.04-9.28,3.74-3.3,3.29-5.81,7.77-11.52,8.08-1.3.07-2.62,2.65-3.63,4.26-.79,1.26-.92,2.92-1.66,4.22-1.76,3.08-3.71,6.06-5.37,8.74-22.53,0-44.85.05-67.17-.13-1.23-.01-2.71-1.78-3.62-3.05-2.86-3.98-4.93-8.71-8.36-12.08-7.24-7.13-16.88-8.23-26.55-8.67-6.21-.28-12.41-.7-18.61-.88-4.27-.12-8.58-.15-12.82.3-.99.1-2.43,2.25-2.52,3.53-.25,3.84.2,7.71.14,11.57-.15,10.1-.52,20.2-.61,30.29-.06,7.03.16,14.07.38,21.1.03,1.05.62,2.88,1.19,2.97,3.95.69,7.97,1.31,11.97,1.35,2.96.03,5.92-1.02,8.91-1.28,8.3-.72,16.76-.55,24.89-2.1,10.02-1.9,17.95-7.51,21.32-17.67,1.18-3.56,2.91-4.6,6.52-4.58,11.08.08,22.16-.29,33.24-.37,10.6-.08,21.2-.02,31.77-.02.41,2.05.71,3.57.98,4.95,3.96-.22,7.53-.43,10.36-.59,1.5,4.73,2.94,8.77,4.02,12.89.34,1.3.01,2.94-.48,4.25-3.72,9.91-7.48,19.81-11.41,29.64-1.97,4.93-1.53,9.49,1.39,13.79,3.63,5.35,9.09,6.8,15.15,6.29,4.79-.4,8.13-3.1,9.89-7.55,5-12.61,9.86-25.28,14.99-37.84,1.02-2.5,2.98-4.63,3.75-5.79,4.78,1,8.19,2.11,11.66,2.34,5.75.38,11.54.31,17.31.16,1.98-.05,3.93-.94,5.89-1.45l-.16.16Z"/>
      <path class="cls-1" d="m226.97,78c-1.96.51-3.92,1.4-5.89,1.45-5.77.16-11.56.22-17.31-.16-3.47-.23-6.89-1.34-11.66-2.34-.77,1.16-2.73,3.29-3.75,5.79-5.13,12.56-9.99,25.22-14.99,37.84-1.77,4.46-5.1,7.15-9.89,7.55-6.06.51-11.52-.94-15.15-6.29-2.91-4.29-3.36-8.85-1.39-13.79,3.93-9.83,7.68-19.73,11.41-29.64.49-1.31.82-2.96.48-4.25-1.08-4.13-2.51-8.17-4.02-12.89-2.83.16-6.4.36-10.36.59-.27-1.38-.58-2.91-.98-4.95-10.57,0-21.17-.06-31.77.02-11.08.08-22.16.44-33.24.37-3.62-.02-5.34,1.01-6.52,4.58-3.37,10.16-11.3,15.76-21.32,17.67-8.13,1.54-16.59,1.37-24.89,2.1-2.99.26-5.95,1.31-8.91,1.28-4-.04-8.01-.67-11.97-1.35-.57-.1-1.15-1.93-1.19-2.97-.22-7.03-.44-14.07-.38-21.1.09-10.1.46-20.2.61-30.29.06-3.86-.39-7.73-.14-11.57.08-1.28,1.52-3.43,2.52-3.53,4.24-.45,8.54-.42,12.82-.3,6.21.17,12.41.6,18.61.88,9.67.44,19.31,1.55,26.55,8.67,3.43,3.37,5.5,8.1,8.36,12.08.91,1.27,2.39,3.03,3.62,3.05,22.32.18,44.63.13,67.17.13,1.66-2.68,3.61-5.65,5.37-8.74.74-1.3.87-2.96,1.66-4.22,1.01-1.61,2.33-4.19,3.63-4.26,5.72-.31,8.23-4.79,11.52-8.08,2.7-2.69,5.52-3.76,9.28-3.74,38.44.2,76.89.3,115.33.39,2.17,0,4.34-.41,6.76-.65-.99-1.49-1.65-2.49-2.31-3.49.24-.52.48-1.05.71-1.57,2.56.66,5.09,1.73,7.68,1.89,5.88.36,11.79.46,17.68.29,3.98-.11,8.04-3.77,11.89.66.54.62,2.39-.05,3.53.25,2.05.54,3.98,1.52,6.03,2,1.57.37,3.25.26,4.72.85,1.84.59,3.67,1.68,5.51,1.69,17.32.13,34.65.13,51.97,0,1.85-.01,3.69-1.04,5.34-1.54,2.97.53,5.97,1.5,8.98,1.54,12.76.19,25.53-.01,38.29.22,2.17.04,4.67,1.08,6.39,2.45,3.54,2.82,6.63,6.19,9.96,9.29,4.26,3.97,8.84,6.65,15.16,6.56,16.4-.24,32.81.1,49.22.07.97,0,2.5-.96,2.82-1.82,1.42-3.93,2.44-8.01,3.73-11.99,1.25-3.85,2.66-7.66,4.13-11.85h13.14v25.88h14.23v11.05h-13.86c-.17.41-.35.83-.52,1.24,1.78,1.57,3.56,3.13,5.33,4.7-.24.51-.49,1.02-.73,1.53-4.52,0-9.04.04-13.56,0-22.32-.22-44.64-.48-66.97-.62-1.45,0-2.89.98-4.38,1.38-1.12.3-2.92.98-3.36.51-3.01-3.26-6.82-1.86-10.25-1.89-16.56-.15-33.13-.07-49.69-.07-1.65,0-3.3,0-5.13,0-.37,1.6-.66,2.87-1.17,5.1-14.25,1.31-28.72,2.68-43.21,3.95-8.42.74-16.8.64-25.03,3.79-7.54,2.88-15.76,2.89-23.8.87-3.31-.83-6.17-1.89-5.83-6.42-9.2.42-18.09.82-27.48,1.25-.12,17.18,8.39,30.88,16.25,45.6-10.79,5.38-21.43,10.81-32.2,15.96-2.51,1.2-4.24-.45-5.72-2.82-9.2-14.67-13.51-30.94-16.24-47.76-.14-.88-.33-1.76-.57-3-2.38,6.16-4.61,11.95-6.84,17.73-.35-.08-.69-.17-1.04-.25.38-2.47.77-4.95,1.18-7.6-2.62.2-4.74.15-6.75.59-1.26.27-2.4,1.22-3.53,1.96-1.32.85-2.57,1.81-3.84,2.71,5.5-6.11,2.4-13.24,3.01-19.81-5.75,0-10.88,0-16.01,0-2.94,0-5.92.69-6.3,3.88-.29,2.42.64,5.13,1.59,7.49.57,1.43,2.22,2.42,3.99,4.24-5.8-.97-9.43-2.81-11.22-8.09-.91-2.7-3.69-4.77-5.62-7.12-.5.3-1,.6-1.5.9,0,3.59-.03,7.19,0,10.78.06,5.69,1.91,7.58,7.64,7.6,8.19.04,16.38-.02,24.57-.03Zm-204.62-1.32c7.52-.37,14.28-.66,21.04-1.04,12.3-.68,19.16-10.29,19.9-21.02.43-6.28.23-12.72-.67-18.95-1-6.9-4.88-12.59-11.51-15.34-9.02-3.73-18.65-2.71-28.73-3.02,3,19.92,3.1,39.26-.02,59.37ZM462.07,28.25c-1.73-4.31-3.56-6.83-8.06-6.77-11.23.15-22.47-.11-33.71.1-3.55.07-7.08,1.1-11.21,1.79-.87-.38-2.61-1.77-4.37-1.78-17.61-.16-35.23-.11-52.84-.09-1.04,0-2.95.05-3,.34-.7,3.81-3.75,2.2-5.49,2.34,4.11,1.29,8.42,3.7,12.76,3.75,6.93.08,14.13,2.19,20.92-1.38,1.05-.55,2.83.14,4.23.44,1.42.3,2.79,1.15,4.19,1.19,5.31.14,10.63.1,15.94.02,1.14-.02,2.28-.5,3.41-.77,2.34-.57,4.78-1.9,6.99-1.58,8.64,1.23,17.17,3.14,26.02,2.48,4.98-.37,10.02-.07,15.03-.06,2.83,0,5.66,0,9.18,0Zm81.78,15.03c.09-.35.18-.7.26-1.05-1.9-.79-3.8-2.24-5.71-2.26-18.06-.2-36.12-.19-54.18-.07-1.07,0-2.13,1.48-3.19,2.28.25.37.51.74.76,1.11h62.05Zm-106.65.14v.04c6.96,0,13.93.09,20.89-.08,1.29-.03,2.55-1.15,3.83-1.77-1.29-.62-2.58-1.77-3.87-1.77-14.22,0-28.43.16-42.65.41-1.06.02-2.1,1.02-3.15,1.57,1.05.54,2.09,1.52,3.15,1.54,7.26.14,14.53.07,21.8.07Zm114.38-18.2c.06.21.12.43.19.64,2.44-.74,6.02-.73,7.1-2.36,2.84-4.28-.06-8.45-5.24-8.45-.76,0-1.52,0-2.28,0-4,.05-7.17,3.06-7,7.47.18,4.58,4.11,1.97,6.33,2.68.27.09.6.01.91.01Zm-75.07,18c-1.19-4.68-4.55-3.56-7.09-3.44-1.19.06-2.32,1.5-3.47,2.31.24.38.47.75.71,1.13h9.85Z"/>
      <path class="cls-2" d="m22.34,76.68c3.12-20.11,3.01-39.45.02-59.37,10.08.31,19.72-.71,28.73,3.02,6.63,2.75,10.51,8.44,11.51,15.34.9,6.23,1.11,12.67.67,18.95-.74,10.73-7.59,20.33-19.9,21.02-6.76.38-13.52.67-21.04,1.04Z"/>
      <path class="cls-2" d="m462.07,28.25c-3.53,0-6.36,0-9.18,0-5.01,0-10.04-.31-15.03.06-8.86.66-17.38-1.25-26.02-2.48-2.21-.31-4.65,1.01-6.99,1.58-1.13.28-2.27.75-3.41.77-5.31.08-10.63.13-15.94-.02-1.41-.04-2.77-.89-4.19-1.19-1.4-.3-3.18-.99-4.23-.44-6.8,3.57-14,1.46-20.92,1.38-4.34-.05-8.65-2.46-12.76-3.75,1.74-.14,4.79,1.47,5.49-2.34.05-.29,1.96-.34,3-.34,17.61-.02,35.23-.07,52.84.09,1.76.02,3.5,1.41,4.37,1.78,4.14-.69,7.67-1.72,11.21-1.79,11.23-.21,22.47.05,33.71-.1,4.51-.06,6.33,2.46,8.06,6.77Z"/>
      <path class="cls-2" d="m226.97,78c-8.19.02-16.38.07-24.57.03-5.73-.03-7.58-1.91-7.64-7.6-.04-3.59,0-7.19,0-10.78.5-.3,1-.6,1.5-.9,1.93,2.35,4.7,4.43,5.62,7.12,1.79,5.28,5.43,7.12,11.22,8.09-1.78-1.82-3.42-2.82-3.99-4.24-.95-2.36-1.88-5.08-1.59-7.49.38-3.19,3.36-3.89,6.3-3.88,5.13.01,10.26,0,16.01,0-.61,6.56,2.49,13.69-3.01,19.81,0,0,.16-.16.16-.16Z"/>
      <path class="cls-2" d="m543.85,43.28h-62.05c-.25-.37-.51-.74-.76-1.11,1.06-.79,2.12-2.27,3.19-2.28,18.06-.12,36.12-.12,54.18.07,1.91.02,3.81,1.48,5.71,2.26-.09.35-.18.7-.26,1.05Z"/>
      <path class="cls-2" d="m437.2,43.42c-7.27,0-14.54.06-21.8-.07-1.06-.02-2.1-1-3.15-1.54,1.05-.55,2.09-1.55,3.15-1.57,14.21-.24,28.43-.4,42.65-.41,1.29,0,2.58,1.15,3.87,1.77-1.28.62-2.54,1.74-3.83,1.77-6.96.18-13.93.08-20.89.08v-.04Z"/>
      <path class="cls-2" d="m551.58,25.22c-.3,0-.63.08-.91-.01-2.21-.71-6.15,1.9-6.33-2.68-.17-4.41,3-7.42,7-7.47.76,0,1.52,0,2.28,0,5.18,0,8.08,4.17,5.24,8.45-1.08,1.63-4.66,1.62-7.1,2.36-.06-.21-.12-.43-.19-.64Z"/>
      <path class="cls-2" d="m476.51,43.22h-9.85c-.24-.38-.47-.75-.71-1.13,1.15-.81,2.28-2.25,3.47-2.31,2.54-.12,5.9-1.24,7.09,3.44Z"/>
    </g>
  </g>
</svg>