<?xml version="1.0" encoding="UTF-8"?>
<svg id="Layer_1" data-name="Layer 1" xmlns="http://www.w3.org/2000/svg" viewBox="0 0 597 191">
  <defs>
    <style>
      .cls-1, .cls-2 {
        stroke-width: 0px;
      }

      .cls-2 {
        fill: #fff;
      }
    </style>
  </defs>
  <g id="_30aQdU.tif" data-name="30aQdU.tif">
    <g>
      <path class="cls-2" d="m597,191c-199,0-398,0-597,0C0,127.33,0,63.67,0,0c199,0,398,0,597,0,0,63.67,0,127.33,0,191ZM209.61,16.52c-8.07.47-16.12.88-24.16,1.44-1.23.09-2.91.52-3.54,1.4-3.26,4.56-7.86,4.21-12.56,3.99-3.32-.15-6.68-.34-9.97-.02-1.51.15-3.24,1.21-4.28,2.38-4.52,5.09-3.8,10.77-1.36,16.48-15.28,5.63-30.42,11.51-45.78,16.76-15.85,5.42-31.98,9.99-47.83,15.4-8.46,2.89-14.8,8.86-19.09,16.73-11.28,20.75-22.55,41.51-33.54,62.41-2.05,3.89-3.19,8.39-4.03,12.74-.81,4.21.46,8.27,5.08,9.59,14.84,4.25,29.71,8.4,44.66,12.19,5.95,1.51,8.82-1.04,9.7-7.24.3-2.14.9-4.26.98-6.41.59-15.89,7.37-29.95,17.19-41.17,10.27-11.73,23.48-21.19,40.52-22.8.64.95,1.44,2.15,2.09,3.11,6.58-1.48,12.85-2.92,19.12-4.3,3.36-.74,5.13.34,4.55,4.12-.2,1.3-.08,2.66-.04,3.99.34,11.79,10.17,25.48,20.55,28.29,10.01,2.71,20.26,4.42,30.54,2.63,9.43-1.64,18.22-5.48,21.18-15.68,1.59-5.47,1.35-11.49,1.74-17.28.43-6.44,3.59-10.05,10.1-10.6,5.8-.49,11.62-.68,17.44-.83,1.14-.03,3.18.54,3.31,1.16.86,3.97,3.84,3.09,6.34,3.01,23.77-.76,47.55-1.43,71.3-2.53,5.23-.24,11.44,1.8,15.35-4.13.29-.45,1.57-.28,2.4-.33,10.1-.65,20.21-1.27,30.31-1.95,7.37-.49,7.37-.52,9.22-7.13,8.24-.62,16.52-1.31,24.82-1.85,50.77-3.31,101.54-6.58,152.31-9.87,7.61-.49,7.51-.52,7.77-8.39.28-8.58.77-17.15,1.18-25.93,3.14,0,5.62,0,8.11,0,11.87-.04,13.35-1.66,12.49-13.75-.08-1.16-.26-2.32-.4-3.47-.43-3.45-.25-7.39-5.74-6.45-.53.09-1.56-1.03-1.9-1.8-1.61-3.6-3.06-7.26-4.55-10.86h-13.84c-.12,1.26-.35,2.1-.26,2.9.51,4.61-1.47,6.23-6.05,5.87-4.63-.37-9.31-.17-13.96-.02-1.39.05-3.63.42-3.99,1.28-1.36,3.21-3.88,2.52-6.24,2.48-26.94-.46-53.88-.84-80.82-1.45-15.62-.35-31.24-1.02-46.85-1.69-1.32-.06-2.64-1.19-3.88-1.95-1.43-.87-2.69-2.44-4.19-2.7-2.58-.45-5.3-.13-7.96-.13-15.77,0-31.54,0-47.44,0-.87,5.79-4.07,7.57-9.16,7.53-23.29-.14-46.58-.3-69.86.09-6.21.1-10.06-4.13-11.88-7.63-2.34-4.51-4.98-5.79-9.07-5.81-4.22-.02-7.72-.97-10.61-4.35-2.13-2.49-4.97-2.2-6.78.41-2.47,3.55-5.73,3.99-9.6,3.76-5.86-.34-7.69,1.21-9.13,8.32Z"/>
      <path class="cls-1" d="m209.61,16.52c1.44-7.12,3.27-8.67,9.13-8.32,3.87.23,7.13-.21,9.6-3.76,1.82-2.61,4.65-2.91,6.78-.41,2.89,3.38,6.39,4.33,10.61,4.35,4.09.02,6.73,1.3,9.07,5.81,1.82,3.5,5.67,7.74,11.88,7.63,23.28-.39,46.57-.23,69.86-.09,5.09.03,8.29-1.75,9.16-7.53,15.9,0,31.67,0,47.44,0,2.66,0,5.38-.32,7.96.13,1.51.26,2.76,1.83,4.19,2.7,1.24.76,2.56,1.89,3.88,1.95,15.61.67,31.23,1.34,46.85,1.69,26.94.6,53.88.99,80.82,1.45,2.37.04,4.89.73,6.24-2.48.36-.85,2.6-1.23,3.99-1.28,4.65-.15,9.34-.35,13.96.02,4.59.36,6.56-1.26,6.05-5.87-.09-.8.14-1.64.26-2.9h13.84c1.49,3.59,2.94,7.26,4.55,10.86.34.76,1.37,1.89,1.9,1.8,5.49-.94,5.31,3,5.74,6.45.15,1.16.32,2.31.4,3.47.86,12.09-.62,13.71-12.49,13.75-2.49,0-4.98,0-8.11,0-.41,8.78-.9,17.35-1.18,25.93-.26,7.87-.16,7.89-7.77,8.39-50.77,3.29-101.54,6.57-152.31,9.87-8.29.54-16.57,1.23-24.82,1.85-1.85,6.61-1.85,6.64-9.22,7.13-10.1.68-20.21,1.29-30.31,1.95-.83.05-2.11-.11-2.4.33-3.91,5.94-10.12,3.89-15.35,4.13-23.76,1.09-47.53,1.76-71.3,2.53-2.5.08-5.48.96-6.34-3.01-.14-.62-2.17-1.19-3.31-1.16-5.82.15-11.64.34-17.44.83-6.5.55-9.66,4.16-10.1,10.6-.39,5.79-.15,11.81-1.74,17.28-2.96,10.2-11.75,14.05-21.18,15.68-10.28,1.78-20.54.07-30.54-2.63-10.37-2.8-20.21-16.5-20.55-28.29-.04-1.33-.16-2.69.04-3.99.58-3.78-1.2-4.85-4.55-4.12-6.28,1.38-12.54,2.82-19.12,4.3-.65-.96-1.46-2.17-2.09-3.11-17.04,1.61-30.26,11.07-40.52,22.8-9.82,11.22-16.6,25.28-17.19,41.17-.08,2.15-.68,4.27-.98,6.41-.88,6.2-3.75,8.75-9.7,7.24-14.96-3.8-29.83-7.95-44.66-12.19-4.62-1.32-5.89-5.39-5.08-9.59.84-4.36,1.99-8.85,4.03-12.74,10.99-20.9,22.26-41.67,33.54-62.41,4.28-7.87,10.63-13.85,19.09-16.73,15.85-5.41,31.99-9.98,47.83-15.4,15.35-5.25,30.49-11.14,45.78-16.76-2.44-5.71-3.16-11.39,1.36-16.48,1.04-1.17,2.77-2.23,4.28-2.38,3.29-.33,6.65-.14,9.97.02,4.69.22,9.3.57,12.56-3.99.63-.88,2.31-1.31,3.54-1.4,8.04-.57,16.09-.98,24.16-1.44Zm-42,91.51c-9.86.11-11.02,1.25-10.97,10.16,0,1.33-.22,2.72.06,3.99,1.58,7.18,4.22,13.78,11.79,16.58,10.05,3.72,20.52,4.24,30.94,2.33,6.45-1.19,11.92-4.75,13.69-11.6,1.1-4.26,1.34-8.8,1.51-13.24.27-7.38-2.44-10.26-9.81-10.27-6.31,0-12.78-.32-18.88.95-11.73,2.44-17.95,7.28-16.08,19.7.38,2.54,2.37,4.84,3.89,7.79-4.03.01-6.29-2.36-7.93-5.05-4.41-7.27-2.57-14.27,1.8-21.33Z"/>
      <path class="cls-2" d="m167.61,108.03c-4.37,7.05-6.21,14.05-1.8,21.33,1.63,2.69,3.9,5.06,7.93,5.05-1.53-2.95-3.51-5.25-3.89-7.79-1.87-12.42,4.35-17.26,16.08-19.7,6.1-1.27,12.58-.96,18.88-.95,7.37.01,10.08,2.89,9.81,10.27-.16,4.43-.41,8.97-1.51,13.24-1.76,6.85-7.23,10.42-13.69,11.6-10.42,1.91-20.88,1.39-30.94-2.33-7.57-2.8-10.21-9.4-11.79-16.58-.28-1.27-.05-2.65-.06-3.99-.05-8.91,1.11-10.04,10.97-10.16Z"/>
    </g>
  </g>
</svg>