<?xml version="1.0" encoding="UTF-8"?>
<svg id="Layer_1" data-name="Layer 1" xmlns="http://www.w3.org/2000/svg" viewBox="0 0 604 142">
  <defs>
    <style>
      .cls-1, .cls-2 {
        stroke-width: 0px;
      }

      .cls-2 {
        fill: #fff;
      }
    </style>
  </defs>
  <g id="_6TleWO.tif" data-name="6TleWO.tif">
    <g>
      <path class="cls-2" d="m604,142c-201.33,0-402.67,0-604,0C0,94.67,0,47.33,0,0c201.33,0,402.67,0,604,0,0,47.33,0,94.67,0,142ZM377.89,18.35c-14.49,0-28.8.17-43.1-.06-9.89-.16-19.79-.73-29.66-1.47-2.56-.19-5.37-1.29-7.46-2.79-4.58-3.28-6.37-2.81-8.06,3.06-2.43-.12-5.48.63-7.29-.52-5.39-3.44-10.71-.04-16.03-.55-3.73-.35-7.63,1.08-11.46,1.72.14-.48.27-.97.41-1.45-1.6-1.41-3.26-3.99-4.79-3.92-1.87.09-3.64,2.4-6.62,4.63-4.16,0-9.99-.11-15.81.08-1.44.05-3.47.63-4.15,1.66-3.12,4.69-.51,17.13,5.07,21.46-2.39,1.35-4.22,2.92-6.32,3.48-13.17,3.51-26.41,6.78-39.61,10.18-6.94,1.79-13.7,1.49-20.64-.52-4.5-1.3-9.46-2.23-14.06-1.79-22.04,2.13-44,4.99-66.03,7.21-22.04,2.22-44.15,3.76-66.17,6.06-10.06,1.05-15.87,4.48-12.68,17.55,2.36,9.66,2.35,19.89,3.32,29.87.46,4.76.14,9.67,1.21,14.27,1.82,7.85,5.41,9.81,13.42,8.52,1.31-.21,2.66-.38,3.89-.84,30.31-11.34,61.63-20.03,90.78-34.42,9.06-4.47,18.56-8.1,27.98-11.82,6.75-2.66,13.57-3.94,20.71-.42,6.78,3.34,13.8,2.29,19-2.92,10.61-10.62,25.08-9.01,38.29-14.02-4.25,10.31-1.36,16.84,8.22,19.19,7.4,1.82,14.61.13,21.06-3.82,4.82-2.95,4.2-8.18,4.78-12.89.15-1.26,1.04-3.24,1.89-3.42,1.36-.28,3.9.26,4.33,1.18,1.55,3.35,4.31,5.22,7.45,6.05,2.56.68,6.31,1.09,8.07-.26,3.32-2.55,5.05-.54,7.54.7,1.7.85,4.17,1.86,5.59,1.24,4.72-2.08,9.17-4.79,13.63-7.42,3.3-1.94,4.86-1.37,5.11,2.46.39,5.78.72,11.57.67,17.36-.06,6.86,2.62,12.42,7.15,17.35.59.64.94,1.65,1.07,2.53,1.1,7.66,2.36,15.31,3.1,23.01.42,4.41,2.59,5.72,6.57,5.26,9.43-1.08,18.86-2.09,28.27-3.3,1.87-.24,3.64-1.2,4.62-1.54-1.43-22.89-2.82-45-4.27-68.16,5.04.29,9.14.74,13.24.72,25.33-.1,50.66-.3,75.99-.46,2.42-.02,4.86.16,7.26-.07,7.41-.71,14.82-1.53,20.99-6.36.32-.25.98-.08,1.47-.13,8.55-.73,10.01-2.33,10.09-11.07.05-5.69,1.79-7.48,7.7-7.66,3.83-.12,7.67-.08,11.5-.03,17.62.22,35.25.56,52.87.57,1.94,0,3.87-1.9,5.84-2.85,2.21-1.07,4.44-2.84,6.71-2.93,8.82-.34,17.67-.38,26.49-.05,5.51.2,4.47-3.45,4.83-6.58.41-3.63-1.07-5.1-4.78-5.07-8.66.07-17.33-.29-25.99-.11-3.67.08-6.08-.99-7.49-4.99.71-.34,1.68-.8,3.69-1.76-4.46.34-7.24.63-10.03.75-2.83.12-5.67-.03-8.5.12-3.57.18-5.67-.84-5.78-4.92-.03-1.09-1.93-2.82-3.21-3.08-6.22-1.26-5.21,3.72-5.87,7.96h-79.47c.26-.47.51-.94.77-1.41-2.65-2.19-5.46-6.41-7.93-6.23-11.32.85-22.76-2.78-34.13,2.12-4.76,2.05-10.49,2.14-14.99,5.6-.44.34-2.85-.91-3.51-1.95-2.84-4.44-3.58-10.35-9.34-12.74-5.86,3.03-6.49,8.75-7.4,14.85Z"/>
      <path class="cls-1" d="m377.89,18.35c.91-6.1,1.54-11.82,7.4-14.85,5.75,2.39,6.5,8.3,9.34,12.74.66,1.04,3.07,2.29,3.51,1.95,4.5-3.46,10.23-3.55,14.99-5.6,11.37-4.9,22.81-1.27,34.13-2.12,2.47-.19,5.28,4.03,7.93,6.23-.26.47-.51.94-.77,1.41h79.47c.66-4.24-.35-9.23,5.87-7.96,1.28.26,3.18,1.99,3.21,3.08.1,4.08,2.2,5.11,5.78,4.92,2.83-.14,5.67,0,8.5-.12,2.79-.12,5.56-.41,10.03-.75-2,.95-2.97,1.42-3.69,1.76,1.41,4.01,3.82,5.07,7.49,4.99,8.66-.18,17.33.18,25.99.11,3.71-.03,5.2,1.44,4.78,5.07-.36,3.13.68,6.78-4.83,6.58-8.82-.33-17.67-.29-26.49.05-2.27.09-4.5,1.86-6.71,2.93-1.97.95-3.89,2.85-5.84,2.85-17.62,0-35.25-.35-52.87-.57-3.83-.05-7.67-.08-11.5.03-5.91.18-7.65,1.97-7.7,7.66-.08,8.74-1.54,10.34-10.09,11.07-.5.04-1.15-.13-1.47.13-6.17,4.83-13.58,5.65-20.99,6.36-2.4.23-4.84.05-7.26.07-25.33.17-50.66.37-75.99.46-4.1.02-8.2-.43-13.24-.72,1.45,23.15,2.83,45.27,4.27,68.16-.97.34-2.75,1.3-4.62,1.54-9.41,1.2-18.84,2.22-28.27,3.3-3.98.45-6.15-.85-6.57-5.26-.73-7.7-1.99-15.35-3.1-23.01-.13-.88-.48-1.89-1.07-2.53-4.52-4.93-7.21-10.49-7.15-17.35.05-5.78-.28-11.58-.67-17.36-.26-3.83-1.82-4.4-5.11-2.46-4.46,2.62-8.91,5.34-13.63,7.42-1.42.63-3.9-.39-5.59-1.24-2.49-1.24-4.21-3.25-7.54-.7-1.76,1.35-5.51.94-8.07.26-3.14-.83-5.89-2.7-7.45-6.05-.43-.93-2.97-1.46-4.33-1.18-.86.18-1.74,2.16-1.89,3.42-.58,4.71.03,9.94-4.78,12.89-6.45,3.95-13.66,5.64-21.06,3.82-9.58-2.35-12.47-8.88-8.22-19.19-13.2,5.01-27.68,3.4-38.29,14.02-5.2,5.2-12.22,6.25-19,2.92-7.15-3.52-13.96-2.25-20.71.42-9.42,3.71-18.92,7.34-27.98,11.82-29.16,14.4-60.47,23.09-90.78,34.42-1.23.46-2.58.63-3.89.84-8.01,1.3-11.6-.67-13.42-8.52-1.07-4.6-.75-9.51-1.21-14.27-.96-9.98-.96-20.21-3.32-29.87-3.19-13.07,2.62-16.5,12.68-17.55,22.03-2.3,44.14-3.84,66.17-6.06,22.03-2.22,43.99-5.08,66.03-7.21,4.6-.45,9.56.49,14.06,1.79,6.94,2.01,13.69,2.3,20.64.52,13.2-3.4,26.44-6.66,39.61-10.18,2.1-.56,3.93-2.13,6.32-3.48-5.57-4.34-8.18-16.77-5.07-21.46.69-1.04,2.72-1.62,4.15-1.66,5.82-.18,11.65-.08,15.81-.08,2.98-2.22,4.75-4.54,6.62-4.63,1.53-.07,3.19,2.52,4.79,3.92-.14.48-.27.97-.41,1.45,3.83-.64,7.73-2.07,11.46-1.72,5.32.5,10.64-2.89,16.03.55,1.81,1.16,4.86.4,7.29.52,1.69-5.87,3.48-6.33,8.06-3.06,2.1,1.5,4.9,2.59,7.46,2.79,9.87.75,19.77,1.31,29.66,1.47,14.3.23,28.61.06,43.1.06Zm-138.08,67.22c-6.53-2.38-7.78-4.55-7.17-11.61.12-1.37-.35-2.79-.55-4.19-1.52.35-3.22.4-4.54,1.12-3.79,2.04-6.16,4.97-5.18,9.66.93,4.44,4.08,6.11,8.15,6.77,1.31.21,2.63.44,3.94.64,12.8,1.95,20.74-5.6,19.3-19.24-3.19,0-6.5-.24-9.76.05-6.61.59-8.93,3.48-7.78,10.15.38,2.22,2.22,4.2,3.59,6.65ZM392.8,18.86c-1.31-5.45-6.22-11.48-7.62-10.19-2.26,2.08-3.51,5.24-5.94,9.15,5.71.44,9.5.73,13.56,1.04Zm-111.56,50.73c-3.84,0-7.23-.13-10.61.08-.96.06-2.64,1.16-2.61,1.71.06,1.05.88,2.35,1.78,3.02,3.83,2.86,6.64,1.74,11.44-4.81Zm8.31,9.37c1.72-3.88,2.87-6.48,4.45-10.04-4.56.26-7.59.44-12.19.7,2.9,3.51,4.91,5.93,7.74,9.34Z"/>
      <path class="cls-2" d="m239.81,85.57c-1.38-2.45-3.21-4.43-3.59-6.65-1.15-6.67,1.17-9.55,7.78-10.15,3.26-.29,6.57-.05,9.76-.05,1.45,13.65-6.49,21.19-19.3,19.24-1.32-.2-2.63-.42-3.94-.64-4.06-.66-7.22-2.33-8.15-6.77-.98-4.69,1.39-7.62,5.18-9.66,1.33-.71,3.02-.76,4.54-1.12.2,1.4.67,2.82.55,4.19-.61,7.06.64,9.24,7.17,11.61Z"/>
      <path class="cls-2" d="m392.8,18.86c-4.06-.31-7.85-.6-13.56-1.04,2.43-3.91,3.68-7.07,5.94-9.15,1.4-1.29,6.31,4.74,7.62,10.19Z"/>
      <path class="cls-2" d="m281.23,69.59c-4.8,6.55-7.61,7.67-11.44,4.81-.9-.67-1.72-1.97-1.78-3.02-.03-.55,1.65-1.65,2.61-1.71,3.37-.21,6.77-.08,10.61-.08Z"/>
      <path class="cls-2" d="m289.55,78.96c-2.82-3.41-4.83-5.83-7.74-9.34,4.6-.26,7.63-.44,12.19-.7-1.58,3.56-2.73,6.16-4.45,10.04Z"/>
    </g>
  </g>
</svg>