<?xml version="1.0" encoding="UTF-8"?>
<svg id="Layer_1" data-name="Layer 1" xmlns="http://www.w3.org/2000/svg" viewBox="0 0 604 174.87">
  <defs>
    <style>
      .cls-1, .cls-2 {
        stroke-width: 0px;
      }

      .cls-2 {
        fill: #fff;
      }
    </style>
  </defs>
  <g id="IGFKT6.tif">
    <g>
      <path class="cls-2" d="m604,174.87H0V0h604v174.87ZM369.44,36.81c-.4-3.29.18-6.8-1.29-8.24-1.43-1.41-4.96-.72-6.36-.85-3.34-6.01-6.51-11.73-9.32-16.78-2.02.96-3.32,2.05-4.67,2.11-2.11.09-4.44-.08-6.36-.89-10.03-4.19-20.47-1.91-30.73-2.11-1.38-.03-2.75,1.1-4.17,1.5-3.8,1.09-7.63,2.08-11.96,3.24-.25-4.52-.42-7.61-.62-11.12-1.87.1-3.39.18-5.12.27-.13,2.85-.04,5.2-.42,7.47-.32,1.92-.73,4.24-2.01,5.4-.67.61-3.27-.89-5.08-1.46.13,1.47,1.03,3.7.3,4.56-4.07,4.82-5.16,9.78-2.13,15.47.14.27-.31.85-.46,1.24-5.35-.46-10.6-.91-16.06-1.39-.43,5.12-.91,9.24-1.08,13.37-.17,4.05-.04,8.11-.04,12.06-3.36,1.26-6.36,2.38-9.56,3.58-.36-3.92-.59-6.49-.9-9.93-4.97,3.59-11.27,3.88-12.82,10.88-2.54-.38-4.98-.54-7.31-1.15-1.82-.48-3.43-1.91-5.26-2.2-2.41-.39-4.94-.1-7.83-.1-.68,2.71-2.06,3.47-5.81,2.36-3.98-1.18-8.62-.56-12.91-.1-2.39.26-4.55,1.62-4.14,5.01.36,2.95-.32,6.04.1,8.98.76,5.23-1.53,7.58-6.29,9.44-20.03,7.83-19.9,7.83-39.48-.86-4.11-1.83-8.89-2.92-13.38-3-23.74-.42-47.48-.43-71.22-.54-2.47-.01-4.94.14-4.64-3.4.27-3.24-1.41-4.82-4.36-4.56-2.77.24-6.51-.17-6.2,4.51.18,2.78-1.44,3.21-3.78,3.28-10.03.28-20.05.72-30.07,1.04-5.66.18-6.98,1.51-6.69,7.19.76,14.89-.33,29.57-4.42,44-2.39,8.46-2.24,8.73,5.93,11.38,2.51.81,5.55.46,8.27.07,4.45-.63,8.8-2,13.26-2.57,7.3-.94,14.28-3.07,22.04-2.48,5.53.42,11.27-4.22,17.16-5.55,15.78-3.55,31.68-6.58,47.55-9.73,9.16-1.82,18.32-3.7,27.55-5.09,2.76-.42,7.69-.12,8.31,1.29,3.36,7.66,11.12,8.6,16.96,12.4,2.29,1.49,3.82,1.04,5.4-1.18,3.1-4.34,6.62-8.38,9.67-12.75,8.63-12.36,21.46-15.16,35.22-14.9,8.72.16,9.32,1.67,7.35,10.86-.62-.93-1.08-1.63-2.11-3.2-1.27,2.42-2.27,4.33-3.27,6.24.68-.16,1.37-.32,2.05-.48,1.23,1.38,2.86,2.57,3.57,4.18.85,1.92.82,4.2,1.34,6.29.93,3.73,2.62,4.99,5.18,4.91-1.34-3.58-2.79-7.49-4.72-12.66,12.8,6.62,16,5.1,16.04,17.84,0,1.85,1.73,4.35,3.39,5.39,3.28,2.06,3.93,4.6,4.14,8.21.27,4.68,1.28,9.42,2.7,13.9.77,2.44,2.64,5.02,6.17,4.39,3.47-.62,6.94-1.89,10.39-1.8,5.53.13,11.05,1.67,16.56,1.64,6.33-.04,12.64-1.5,18.98-1.71,9.69-.32,19.39-.12,29.09-.08,1.46,0,2.92.36,4.38.52,3.99.42,7.96,1.01,11.96,1.16,4.15.16,8.43-.75,12.46-.06,6.59,1.14,12.23-1.84,12.87-8.36.98-9.92,1.43-19.88,2.05-29.17,13.61-10.17,29.21-6.74,44.32-7.23,1.47,4.64,2.43,9.07,8.58,9.01,22.57-.19,45.15-.14,67.72-.25,1.41,0,2.85-.54,4.23-.98,2.04-.65,4.03-2.07,6.05-2.08,13.88-.09,27.76.25,41.63.1,4.54-.05,7.62,1.21,9.6,5.4,1.91,4.04,5.89,4.54,9.45,3.61,2.4-.63,5.8-2.82,6.15-4.77,1-5.5,4.45-7.54,9.07-8.47,8.21-1.65,11.76-6.8,11.9-14.79.04-1.99.31-3.99.28-5.98-.2-11.61-1-12.72-11.65-16.72-1.25-.47-2.68-.7-3.7-1.48-1.45-1.11-3.17-2.4-3.78-3.99-3.59-9.32-14.27-12.12-21.92-5.35-13.81-7.64-26.28-19.9-44.32-14-2.04-5.42-3.69-10.64-6.02-15.54-.8-1.68-3.13-3.1-5.05-3.67-3.6-1.08-7.38-1.68-11.13-2.05-3.22-.31-6.52-.2-9.75.06-3.22.26-6.39.95-9.94,1.51-.65-5.43-1.42-10.02-1.68-14.64-.18-3.15-1.5-4.87-4.44-5.71-3.27-.94-5.36-2.8-5.72-6.54-.11-1.19-1.72-3.02-2.87-3.21-4.77-.79-9.62-1.15-14.45-1.44-.87-.05-2.49.84-2.61,1.51-1.49,7.83-2.25,15.68.15,23.93,6.82-.96,13.16-1.86,19.63-2.77v7.34c-9.87.37-19.62.67-29.36,1.18-1.61.09-3.2,1.06-4.76,1.73-1.51.65-2.9,1.89-4.45,2.11-6.97.98-13.91-.86-21.12,2.45-5.85,2.69-13.34,1.85-20.56,2.63-.74-4.34-1.59-7.89-1.89-11.48-.38-4.42-2.51-6.53-6.94-6.44-1.3.03-2.6-.12-4-.2Z"/>
      <path class="cls-1" d="m369.44,36.81c1.4.07,2.7.22,4,.2,4.43-.09,6.56,2.02,6.94,6.44.31,3.59,1.15,7.14,1.89,11.48,7.22-.78,14.71.06,20.56-2.63,7.21-3.31,14.15-1.48,21.12-2.45,1.55-.22,2.94-1.45,4.45-2.11,1.55-.67,3.14-1.64,4.76-1.73,9.74-.51,19.49-.81,29.36-1.18v-7.34c-6.47.91-12.81,1.81-19.63,2.77-2.4-8.25-1.64-16.11-.15-23.93.13-.67,1.74-1.56,2.61-1.51,4.83.29,9.68.66,14.45,1.44,1.15.19,2.76,2.01,2.87,3.21.36,3.73,2.45,5.6,5.72,6.54,2.94.84,4.26,2.56,4.44,5.71.26,4.62,1.03,9.21,1.68,14.64,3.54-.56,6.72-1.25,9.94-1.51,3.23-.27,6.53-.37,9.75-.06,3.75.37,7.53.97,11.13,2.05,1.92.58,4.25,2,5.05,3.67,2.33,4.9,3.98,10.12,6.02,15.54,18.04-5.9,30.51,6.37,44.32,14,7.65-6.77,18.33-3.97,21.92,5.35.61,1.59,2.33,2.88,3.78,3.99,1.02.77,2.45,1.01,3.7,1.48,10.66,4.01,11.45,5.11,11.65,16.72.03,1.99-.24,3.98-.28,5.98-.14,8-3.69,13.14-11.9,14.79-4.62.93-8.07,2.97-9.07,8.47-.36,1.96-3.76,4.14-6.15,4.77-3.57.94-7.54.43-9.45-3.61-1.98-4.18-5.06-5.45-9.6-5.4-13.87.15-27.75-.19-41.63-.1-2.02.01-4.01,1.43-6.05,2.08-1.38.44-2.82.97-4.23.98-22.57.11-45.15.06-67.72.25-6.15.05-7.12-4.37-8.58-9.01-15.11.49-30.71-2.94-44.32,7.23-.63,9.29-1.08,19.25-2.05,29.17-.64,6.51-6.28,9.5-12.87,8.36-4.03-.7-8.31.21-12.46.06-4-.15-7.98-.74-11.96-1.16-1.46-.15-2.92-.51-4.38-.52-9.7-.04-19.4-.24-29.09.08-6.34.21-12.65,1.67-18.98,1.71-5.52.03-11.03-1.51-16.56-1.64-3.45-.08-6.92,1.18-10.39,1.8-3.53.63-5.4-1.94-6.17-4.39-1.42-4.48-2.43-9.22-2.7-13.9-.21-3.61-.86-6.16-4.14-8.21-1.66-1.04-3.38-3.55-3.39-5.39-.04-12.73-3.24-11.22-16.04-17.84,1.93,5.17,3.39,9.08,4.72,12.66-2.56.08-4.25-1.18-5.18-4.91-.52-2.09-.49-4.37-1.34-6.29-.71-1.6-2.35-2.8-3.57-4.18-.68.16-1.37.32-2.05.48,1-1.91,2-3.82,3.27-6.24,1.04,1.57,1.5,2.27,2.11,3.2,1.97-9.19,1.37-10.7-7.35-10.86-13.76-.25-26.59,2.54-35.22,14.9-3.05,4.37-6.57,8.41-9.67,12.75-1.58,2.22-3.11,2.67-5.4,1.18-5.84-3.79-13.59-4.74-16.96-12.4-.62-1.41-5.55-1.7-8.31-1.29-9.23,1.39-18.39,3.27-27.55,5.09-15.87,3.15-31.77,6.18-47.55,9.73-5.89,1.33-11.63,5.97-17.16,5.55-7.76-.59-14.74,1.54-22.04,2.48-4.46.58-8.81,1.94-13.26,2.57-2.72.39-5.76.74-8.27-.07-8.17-2.65-8.32-2.92-5.93-11.38,4.08-14.43,5.17-29.11,4.42-44-.29-5.69,1.04-7.01,6.69-7.19,10.03-.32,20.05-.76,30.07-1.04,2.34-.07,3.96-.5,3.78-3.28-.31-4.68,3.43-4.27,6.2-4.51,2.95-.26,4.63,1.32,4.36,4.56-.29,3.54,2.17,3.39,4.64,3.4,23.74.11,47.49.12,71.22.54,4.49.08,9.27,1.17,13.38,3,19.58,8.7,19.45,8.7,39.48.86,4.76-1.86,7.04-4.21,6.29-9.44-.42-2.94.26-6.02-.1-8.98-.41-3.39,1.76-4.76,4.14-5.01,4.29-.46,8.94-1.09,12.91.1,3.75,1.12,5.13.36,5.81-2.36,2.89,0,5.41-.3,7.83.1,1.82.3,3.43,1.72,5.26,2.2,2.32.61,4.77.77,7.31,1.15,1.55-7,7.85-7.3,12.82-10.88.31,3.44.54,6.01.9,9.93,3.19-1.2,6.19-2.32,9.56-3.58,0-3.96-.13-8.02.04-12.06.18-4.13.65-8.25,1.08-13.37,5.46.47,10.71.92,16.06,1.39.15-.38.6-.97.46-1.24-3.03-5.69-1.94-10.65,2.13-15.47.73-.86-.17-3.09-.3-4.56,1.81.57,4.41,2.07,5.08,1.46,1.27-1.16,1.69-3.49,2.01-5.4.38-2.27.28-4.62.42-7.47,1.73-.09,3.25-.17,5.12-.27.19,3.51.37,6.6.62,11.12,4.33-1.17,8.16-2.15,11.96-3.24,1.43-.41,2.8-1.53,4.17-1.5,10.27.2,20.7-2.08,30.73,2.11,1.92.8,4.25.98,6.36.89,1.35-.06,2.65-1.15,4.67-2.11,2.8,5.05,5.98,10.76,9.32,16.78,1.41.13,4.93-.57,6.36.85,1.47,1.45.89,4.96,1.29,8.24Zm16.43,44.8h40.47v-7.59h-21.85c2.29-2.51,3.47-3.81,4.62-5.07-9.25-2.26-18.19-4.45-27.52-6.74,1.54,7,2.93,13.28,4.28,19.4Zm-36.89-52.58c1.43-8.25.74-9.09-5.89-8.93-10.86.27-21.72.52-32.59.79-4.51.11-9.03.15-13.53.42-.94.06-1.83.98-2.74,1.51.93.68,1.79,1.81,2.8,1.96,3.3.5,6.64.67,9.97.93,13.93,1.11,27.86,2.21,41.97,3.32Zm162.25,49.29c3.03.97,5.24,2.35,7.37,2.23,7.1-.4,14.16-1.34,21.27-2.08-5.13-7.29-15.24-7.57-28.64-.15Zm-277.1,30.91q-2.16,9.06,5.97,12.61c1.37.6,2.69,1.36,4.11,1.78.96.28,2.73.47,2.97.05.52-.94.75-2.48.32-3.43-2.61-5.81-7.29-9.25-13.36-11.01Z"/>
      <path class="cls-2" d="m385.87,81.61c-1.35-6.12-2.73-12.4-4.28-19.4,9.32,2.28,18.27,4.47,27.52,6.74-1.15,1.26-2.33,2.56-4.62,5.07h21.85v7.59h-40.47Z"/>
      <path class="cls-2" d="m348.98,29.03c-14.11-1.12-28.04-2.21-41.97-3.32-3.33-.27-6.68-.43-9.97-.93-1.01-.15-1.87-1.28-2.8-1.96.91-.53,1.8-1.45,2.74-1.51,4.5-.27,9.02-.31,13.53-.42,10.86-.26,21.72-.52,32.59-.79,6.63-.16,7.32.68,5.89,8.93Z"/>
      <path class="cls-2" d="m511.23,78.32c13.4-7.42,23.51-7.14,28.64.15-7.11.74-14.18,1.68-21.27,2.08-2.13.12-4.34-1.26-7.37-2.23Z"/>
      <path class="cls-2" d="m234.12,109.23c6.08,1.76,10.75,5.19,13.36,11.01.43.95.2,2.49-.32,3.43-.23.42-2,.23-2.97-.05-1.42-.42-2.74-1.18-4.11-1.78q-8.13-3.55-5.97-12.61Z"/>
    </g>
  </g>
</svg>