<?xml version="1.0" encoding="UTF-8"?>
<svg id="Layer_1" data-name="Layer 1" xmlns="http://www.w3.org/2000/svg" viewBox="0 0 599.11 168.5">
  <defs>
    <style>
      .cls-1, .cls-2 {
        stroke-width: 0px;
      }

      .cls-2 {
        fill: #fff;
      }
    </style>
  </defs>
  <g id="EW3M3E.tif">
    <g>
      <path class="cls-2" d="m0,49.34V0c199.7,0,399.41,0,599.11,0,0,56.17,0,112.33,0,168.5-135.52,0-271.05,0-406.57,0,1.11-.45,2.18-1,3.33-1.34,5.72-1.67,7.59-3.88,6.68-9.83-1.13-7.34,1.18-12.79,7.57-16.41,3.9-2.21,5.45-5.48,6.09-9.74,1.19-7.97,2.5-16.08,7.42-22.75,4.99-6.76,10.09-12.8,20.44-11.99,13.16,1.03,26.45.25,39.69.26q8.91,0,9.75-8.57c.03-.26.32-.49.94-1.41,0,2.17,0,3.67,0,5.17.06,14.11.06,28.23.29,42.34.02,1.42,1.4,4.03,2.2,4.06,10.05.28,20.11.18,30.48.18.13-2.43.21-4.26.32-6.09.67-11.3,1.34-22.6,2.08-35.07,2.91,3.54,3.76,8.29,9.68,5.93-9.21-12.16-11.24-24.64-.58-37.45-.68-.37-1.35-.74-2.03-1.11-2.36,1.5-4.72,2.99-6.76,4.29-.68-5.53-1.72-11.55-2.08-17.6-.37-6.25-.08-12.54-.08-18.81.35,0,.7,0,1.04,0v21.55h20.96c.19,3.33.36,6.18.54,9.34h155.91c.49,4.15.94,7.98,1.38,11.8.56.02,1.11.04,1.67.07.49-3.87.97-7.74,1.5-11.96h26.89v-26.22h45.79c.48,2.51.76,3.96,1.03,5.36,3.59,0,6.84-.03,10.1,0,2.29.03,3.33-.85,3.3-3.32-.11-7.75.4-15.54-.17-23.26-.5-6.79-1.72-11.93-10.08-13.19-1.42,5.23-2.85,10.45-4.38,16.09-4.04.48-8.34,1.47-12.65,1.44-35.19-.25-70.38-.41-105.56-1.17-29.95-.64-59.87-2.73-89.81-2.94-71.48-.5-142.96-.26-214.43-.33-1.83,0-3.67,0-5.03,0-1.45-4.09-2.34-7.77-4.08-11-.88-1.63-3.28-3.44-5.03-3.47-14.79-.27-29.59-.26-44.38.02-1.73.03-4.11,1.88-4.98,3.53-1.79,3.37-2.76,7.18-4.06,10.81-2.82.14-5.41.27-7.95.4-.79,6.82-7.94,12.94-.31,19.08-9.23,3.3-17.77,6.53-26.43,9.4-8.13,2.7-16.71,5.88-24.99,2.39-7.41-3.12-14.37-2.58-21.71-1.31-1.99.34-4.07.39-5.98.98-2.1.65-4.05,1.77-6.06,2.68Z"/>
      <path class="cls-1" d="m0,49.34c2.02-.91,3.97-2.03,6.06-2.68,1.91-.59,3.98-.63,5.98-.98,7.33-1.27,14.3-1.81,21.71,1.31,8.29,3.49,16.86.31,24.99-2.39,8.66-2.88,17.2-6.1,26.43-9.4-7.63-6.14-.48-12.26.31-19.08,2.54-.13,5.13-.26,7.95-.4,1.31-3.63,2.28-7.44,4.06-10.81.87-1.64,3.25-3.5,4.98-3.53,14.79-.28,29.59-.29,44.38-.02,1.75.03,4.15,1.84,5.03,3.47,1.74,3.22,2.63,6.9,4.08,11,1.36,0,3.19,0,5.03,0,71.48.06,142.96-.17,214.43.33,29.94.21,59.87,2.3,89.81,2.94,35.18.75,70.37.91,105.56,1.17,4.3.03,8.61-.96,12.65-1.44,1.54-5.64,2.96-10.86,4.38-16.09,8.36,1.26,9.57,6.4,10.08,13.19.57,7.71.06,15.5.17,23.26.04,2.46-1.01,3.34-3.3,3.32-3.25-.04-6.51,0-10.1,0-.27-1.4-.55-2.85-1.03-5.36h-45.79v26.22h-26.89c-.53,4.22-1.02,8.09-1.5,11.96-.56-.02-1.11-.04-1.67-.07-.45-3.82-.9-7.65-1.38-11.8h-155.91c-.18-3.16-.35-6.01-.54-9.34h-20.96v-21.55c-.35,0-.7,0-1.04,0,0,6.27-.29,12.56.08,18.81.36,6.05,1.4,12.07,2.08,17.6,2.05-1.3,4.41-2.8,6.76-4.29.68.37,1.35.74,2.03,1.11-10.67,12.81-8.64,25.29.58,37.45-5.92,2.36-6.76-2.39-9.68-5.93-.74,12.48-1.41,23.77-2.08,35.07-.11,1.83-.19,3.66-.32,6.09-10.37,0-20.43.1-30.48-.18-.81-.02-2.18-2.63-2.2-4.06-.23-14.11-.22-28.23-.29-42.34,0-1.5,0-2.99,0-5.17-.63.92-.92,1.15-.94,1.41q-.84,8.58-9.75,8.57c-13.24,0-26.54.77-39.69-.26-10.35-.81-15.46,5.23-20.44,11.99-4.92,6.67-6.22,14.78-7.42,22.75-.64,4.26-2.19,7.54-6.09,9.74-6.39,3.62-8.7,9.07-7.57,16.41.92,5.95-.95,8.16-6.68,9.83-1.14.33-2.22.88-3.33,1.34h-10.28c-2.88-1.31-5.68-2.84-8.65-3.89-14.17-5.02-19.93-17.88-13.42-31.28,2.69-5.53,6.04-10.86,9.8-15.74,7.64-9.9,11.15-20.93,10.82-33.31-.15-5.62,1.52-11.86-5.57-14.9-.26-.11-.39-.52-.65-.65-3.79-1.86-7.45-4.81-11.41-5.29-7.18-.86-14.53-.24-22.28-.24-2.4,8.6-9.59,12.59-18.57,14.12-5.51.94-11.25.9-16.58,2.38-20.17,5.6-40.27,11.46-60.29,17.58-10.83,3.31-21.41,7.4-32.16,10.97-5.3,1.76-6.68.94-7.53-4.53-.91-5.8-1.38-11.66-2.05-17.49C2.47,75.49,1.24,64.74,0,53.99c0-1.55,0-3.1,0-4.65Zm248.16,18.99c-5.64,5.02-7.09,11.25-4.87,17.03,1.93,5.04,5.91,7.6,12.04,7.65,6.37.05,12.79.48,19.1-.16,3.43-.34,7.23-1.9,9.79-4.13,1.6-1.39,1.17-5.07,1.7-7.71,1.81-8.9-2.43-14.01-11.74-14.11-1.71-.02-3.42,0-5.13,0-6.83,0-9.12,2.3-9.46,9.2-.23,4.64,1.46,8.43,4.6,11.72.82.85,1.48,1.85,2.22,2.78-.5.4-.99.8-1.49,1.2-2.76-3.17-5.81-6.14-8.22-9.55-3.03-4.29-5.54-8.94-8.56-13.92Zm45.61-.7c.17.04.35.08.52.12v-34.47h-.52v34.35Z"/>
      <path class="cls-2" d="m0,53.99c1.24,10.75,2.47,21.49,3.71,32.24.67,5.83,1.15,11.69,2.05,17.49.86,5.47,2.23,6.29,7.53,4.53,10.75-3.57,21.33-7.66,32.16-10.97,20.02-6.11,40.12-11.98,60.29-17.58,5.33-1.48,11.07-1.44,16.58-2.38,8.98-1.53,16.17-5.52,18.57-14.12,7.75,0,15.11-.62,22.28.24,3.96.48,7.62,3.43,11.41,5.29.26.13.39.54.65.65,7.08,3.04,5.42,9.28,5.57,14.9.33,12.38-3.18,23.4-10.82,33.31-3.76,4.88-7.12,10.21-9.8,15.74-6.51,13.39-.75,26.26,13.42,31.28,2.97,1.05,5.77,2.58,8.65,3.89H0c0-38.17,0-76.34,0-114.51Z"/>
      <path class="cls-2" d="m248.16,68.33c3.03,4.98,5.53,9.63,8.56,13.92,2.41,3.41,5.45,6.38,8.22,9.55.5-.4.99-.8,1.49-1.2-.74-.93-1.4-1.93-2.22-2.78-3.15-3.29-4.83-7.09-4.6-11.72.34-6.9,2.63-9.2,9.46-9.2,1.71,0,3.42-.02,5.13,0,9.31.1,13.55,5.21,11.74,14.11-.54,2.64-.11,6.31-1.7,7.71-2.56,2.23-6.36,3.79-9.79,4.13-6.31.63-12.73.2-19.1.16-6.13-.04-10.11-2.61-12.04-7.65-2.22-5.78-.77-12.01,4.87-17.03Z"/>
      <path class="cls-2" d="m293.77,67.63v-34.36h.52v34.48c-.17-.04-.35-.08-.52-.12Z"/>
    </g>
  </g>
</svg>