<?xml version="1.0" encoding="UTF-8"?>
<svg id="Layer_1" data-name="Layer 1" xmlns="http://www.w3.org/2000/svg" viewBox="0 0 606 184">
  <defs>
    <style>
      .cls-1, .cls-2 {
        stroke-width: 0px;
      }

      .cls-2 {
        fill: #fff;
      }
    </style>
  </defs>
  <g id="nRn1CV.tif">
    <g>
      <path class="cls-2" d="m0,0h606v184H0V0Zm234.59,25.35c-5.85-.63-10.97-1.19-16.51-1.79,0,4.02.11,6.82-.03,9.62-.22,4.43,1.98,6.11,6.13,5.46,3.35-.52,6.65-1.31,9.99-1.98.86,2.28,1.55,4.12,2.48,6.59-10.29-1.87-20.89,3.92-29.96-4.23-1.74-1.57-4.19-.7-4.28,2.54-.15,5.66.66,11.6-5.31,16.25-.47.02-1.95.15-3.43.15-56-.09-111.99-.19-167.99-.36-1.49,0-2.98-1.27-4.47-1.28-4.33-.02-9.45-1.08-12.81.82-5.61,3.16-7.16,8.96-4.31,13.61,2,3.26,5.92,5.36,10.1,8.94,0,4.58-.04,10.86.01,17.14.05,6.3.17,12.6.31,18.89.22,9.99.92,11.47,10.67,14.79,35.45,12.07,71,23.87,106.61,35.81-.7,1.3-1.54,2.84-1.85,3.42,1.11,2.54,1.42,4.7,2.68,5.79,2.44,2.13,5.32,3.86,8.24,5.31.76.38,2.52-.66,3.53-1.43,3.03-2.31,5.92-4.81,8.23-6.72-.2-2.18-1.15-4.52-.43-6.1,9.12-20.05,18.32-40.07,27.85-59.93,3.42-7.13,8.94-12.24,18.14-13.36,1.18,3.12,2.26,6.26,3.57,9.31.85,1.96,1.66,4.84,3.17,5.37,1.88.66,4.49-.63,6.75-1.2.99-.25,2.44-1.37,2.75-1.08.82.74,1.66,2.1,1.55,3.1-1.13,10.03,3.26,18.02,9.35,25.35.97,1.17,2.71,1.7,4.1,2.53-.09-1.6.35-3.51-.36-4.75-4.87-8.43-4.87-17.2-2.51-26.49,6.13,0,12.12-.24,18.07.15,1.73.11,3.4,1.93,4.97,3.12.84.63,1.26,1.85,2.12,2.39,3.04,1.89,5.83,1.86,8.25-1.25,2.61-3.36-.8-5.02-1.89-7.34-.21-.44-.51-.83-.76-1.22-5.09.9-5.62.48-4.62-4.52.87-4.37,2.41-8.63,3.05-13.02.61-4.19,2.55-4.97,6.01-3.33,12.98,6.16,26.8,5.99,40.53,4.56,4.69-.49,7.64.09,9.98,3.96,5.07,8.41,12.4,12.01,22.26,10.57,1.7-.25,4.61-.23,5.12.68,1.99,3.58,5.04,2.19,7.53,1.91,2.53-.28,4.93-2.42,7.4-2.45,16.33-.18,32.66-.04,49,.07,1.41,0,2.8.57,4.21.8,3.05.5,6.12,1.37,9.15,1.29,2.65-.07,5.27-1.8,7.9-1.78,5.3.04,7.17-2.73,7.2-7.34.08-11.52.03-23.04.03-34.57,5.64-1.64,9.46-.01,12.46,5.4,3.76,6.8,8.3,13.2,12.84,19.53,1.31,1.84,3.75,4.04,5.71,4.07,14.66.23,29.33.19,43.98-.27,5.63-.18,8.43-7.08,5.31-11.29-5.81-7.81-11.48-15.74-17.09-23.7-.83-1.18-1.03-2.79-1.62-4.48,4.62,0,8.43.07,12.24-.04,1.26-.03,3.24-.12,3.62-.84,1.83-3.48,4.88-2.71,7.75-2.71,26.33.04,52.66-.03,78.99.26,4.49.05,6.1-2.01,6.49-5.6.39-3.61.25-7.28.23-10.92-.02-3.46.35-7.14-3.94-8.74-4.12-1.53-8.15-6.36-12.42-.08-.44.64-2.15.59-3.28.59-22.66-.07-45.33-.18-67.99-.32-1.3,0-2.63-.22-3.89-.55-2.56-.68-5.12-2.27-7.61-2.16-16.93.74-33.83.4-50.83,2.21-20.59,2.18-41.61.44-62.44.4-8.33-.02-16.67-.04-25-.01-2.59.01-4.39-.44-2.94-3.77.62-.05,1.27-.2,1.9-.14,2.85.27,5.61-.53,5.04-3.63-.26-1.4-3.54-2.39-5.59-3.27-.79-.34-1.95.13-2.93.29-4.81.81-9.62,1.65-14.42,2.47-1.15-6.74-4.01-7.8-11.54-4.87-.22,1.92-.44,3.83-.76,6.57-20.24-.63-40.2-1.24-60.01-1.86-.64-2.4-1.23-4.59-1.81-6.79-.5.08-.99.16-1.49.24v7.42c-3.82-.85-8.1-3.16-10.28-1.9-2.26,1.31-2.48,6.09-3.84,10.05-4.2,0-9.03.25-13.82-.07-4.61-.32-7.9.75-8.5,5.75Z"/>
      <path class="cls-1" d="m234.59,25.35c.6-5,3.89-6.07,8.5-5.75,4.79.33,9.62.07,13.82.07,1.35-3.96,1.58-8.74,3.84-10.05,2.18-1.26,6.46,1.05,10.28,1.9v-7.42c.5-.08.99-.16,1.49-.24.59,2.2,1.17,4.39,1.81,6.79,19.8.61,39.76,1.23,60.01,1.86.32-2.74.54-4.65.76-6.57,7.53-2.93,10.39-1.87,11.54,4.87,4.81-.83,9.61-1.66,14.42-2.47.98-.17,2.14-.63,2.93-.29,2.04.87,5.33,1.86,5.59,3.27.57,3.1-2.2,3.9-5.04,3.63-.63-.06-1.28.09-1.9.14-1.45,3.34.35,3.78,2.94,3.77,8.33-.03,16.67,0,25,.01,20.83.04,41.85,1.78,62.44-.4,17-1.8,33.9-1.46,50.83-2.21,2.5-.11,5.05,1.48,7.61,2.16,1.26.33,2.59.54,3.89.55,22.66.14,45.33.24,67.99.32,1.12,0,2.84.05,3.28-.59,4.27-6.29,8.3-1.46,12.42.08,4.3,1.6,3.92,5.28,3.94,8.74.02,3.64.16,7.31-.23,10.92-.39,3.59-2.01,5.65-6.49,5.6-26.33-.29-52.66-.22-78.99-.26-2.87,0-5.92-.77-7.75,2.71-.38.72-2.37.81-3.62.84-3.81.1-7.63.04-12.24.04.59,1.69.79,3.31,1.62,4.48,5.61,7.96,11.28,15.88,17.09,23.7,3.13,4.2.32,11.11-5.31,11.29-14.65.46-29.33.5-43.98.27-1.96-.03-4.39-2.23-5.71-4.07-4.54-6.33-9.08-12.73-12.84-19.53-3-5.41-6.82-7.04-12.46-5.4,0,11.53.05,23.05-.03,34.57-.03,4.61-1.9,7.38-7.2,7.34-2.63-.02-5.25,1.71-7.9,1.78-3.04.08-6.11-.79-9.15-1.29-1.41-.23-2.81-.79-4.21-.8-16.33-.11-32.67-.25-49-.07-2.47.03-4.87,2.17-7.4,2.45-2.49.28-5.54,1.66-7.53-1.91-.51-.91-3.41-.93-5.12-.68-9.86,1.44-17.19-2.17-22.26-10.57-2.34-3.87-5.29-4.44-9.98-3.96-13.73,1.43-27.55,1.6-40.53-4.56-3.47-1.65-5.4-.86-6.01,3.33-.64,4.39-2.18,8.65-3.05,13.02-1,5-.47,5.42,4.62,4.52.25.39.55.78.76,1.22,1.09,2.32,4.5,3.98,1.89,7.34-2.42,3.11-5.21,3.14-8.25,1.25-.87-.54-1.29-1.76-2.12-2.39-1.57-1.2-3.25-3.01-4.97-3.12-5.95-.39-11.94-.15-18.07-.15-2.36,9.29-2.37,18.06,2.51,26.49.72,1.24.27,3.15.36,4.75-1.39-.83-3.13-1.36-4.1-2.53-6.09-7.33-10.48-15.31-9.35-25.35.11-1.01-.73-2.37-1.55-3.1-.31-.28-1.76.84-2.75,1.08-2.26.57-4.86,1.86-6.75,1.2-1.51-.53-2.33-3.41-3.17-5.37-1.31-3.05-2.39-6.2-3.57-9.31-9.2,1.13-14.72,6.24-18.14,13.36-9.53,19.86-18.73,39.88-27.85,59.93-.72,1.58.24,3.92.43,6.1-2.31,1.9-5.2,4.4-8.23,6.72-1.01.77-2.77,1.81-3.53,1.43-2.92-1.45-5.79-3.18-8.24-5.31-1.25-1.09-1.56-3.25-2.68-5.79.31-.58,1.15-2.13,1.85-3.42-35.61-11.94-71.15-23.74-106.61-35.81-9.75-3.32-10.45-4.8-10.67-14.79-.14-6.3-.26-12.59-.31-18.89-.05-6.28-.01-12.56-.01-17.14-4.18-3.58-8.09-5.68-10.1-8.94-2.85-4.64-1.31-10.45,4.31-13.61,3.36-1.89,8.48-.83,12.81-.82,1.49,0,2.98,1.27,4.47,1.28,56,.17,111.99.27,167.99.36,1.48,0,2.96-.13,3.43-.15,5.97-4.65,5.15-10.59,5.31-16.25.09-3.24,2.53-4.1,4.28-2.54,9.07,8.16,19.68,2.37,29.96,4.23-.93-2.47-1.62-4.31-2.48-6.59-3.33.67-6.64,1.46-9.99,1.98-4.16.65-6.36-1.03-6.13-5.46.14-2.79.03-5.6.03-9.62,5.54.6,10.65,1.15,16.51,1.79Zm-37.34,50.87H21.82c0,13.84-.05,27.57.02,41.3.04,7.48.9,8.62,8.12,11.06,20.48,6.93,40.98,13.81,61.47,20.72,12.61,4.25,25.22,8.53,37.84,12.74,4.11,1.37,7.17,1.27,9.5-3.65,9.13-19.31,18.87-38.33,28.13-57.58,6.21-12.91,15.38-21.72,30.35-24.58Zm65.54-19.36c-3.41,3.87-3.15,8.07.33,10.53,3.11,2.2,7.44,2.96,11.36,3.64,2.04.36,4.37-1.3,6.54-1.22,8.39.3,16.77,1.02,25.16,1.35,1.47.06,3.42-.6,4.4-1.64,3.81-4,7.32-8.29,11.11-12.66h-58.9Zm84.45-39.08l-.92-2.06c-25.43,0-50.86-.02-76.29.07-.82,0-1.64,1.05-2.46,1.6.97.58,1.92,1.62,2.9,1.65,6.98.24,13.96.29,20.95.35,17.13.15,34.25.33,51.38.32,1.48,0,2.97-1.26,4.45-1.93Z"/>
      <path class="cls-2" d="m197.25,76.23c-14.97,2.86-24.14,11.67-30.35,24.58-9.26,19.25-19,38.27-28.13,57.58-2.33,4.93-5.39,5.03-9.5,3.65-12.62-4.21-25.23-8.49-37.84-12.74-20.49-6.9-40.99-13.79-61.47-20.72-7.22-2.44-8.09-3.58-8.12-11.06-.06-13.73-.02-27.46-.02-41.3h175.43Z"/>
      <path class="cls-2" d="m262.8,56.87h58.9c-3.79,4.37-7.3,8.66-11.11,12.66-.98,1.03-2.93,1.69-4.4,1.64-8.39-.33-16.77-1.05-25.16-1.35-2.17-.08-4.5,1.58-6.54,1.22-3.92-.68-8.25-1.45-11.36-3.64-3.48-2.46-3.74-6.66-.33-10.53Z"/>
      <path class="cls-2" d="m347.25,17.79c-1.48.67-2.97,1.93-4.45,1.93-17.13,0-34.25-.17-51.38-.32-6.98-.06-13.97-.12-20.95-.35-.98-.03-1.93-1.08-2.9-1.65.82-.56,1.64-1.6,2.46-1.6,25.43-.09,50.86-.07,76.29-.07l.92,2.06Z"/>
    </g>
  </g>
</svg>