<svg id="Layer_1" data-name="Layer 1" xmlns="http://www.w3.org/2000/svg" viewBox="0 0 592.5 268.81">
  
  <g id="MwTTNn.tif">
    <g>
      
      <path class="cls-1" d="m187.65,163.63h-10.92c5.26,8.32,1.42,17.34,2.82,25.93-5.64.17-10.35-3.81-9.95-9.35.46-6.38-1.95-10.63-6.27-14.96-1.99-2-1.89-6.09-2.79-9.4-6.66-1.53-7-1.33-8.57,5.45-6.76,29.24-13.51,58.49-20.29,87.72-.24,1.02-.63,2.01-.78,2.46-2.75.55-5.05,1.01-7.34,1.46,1.45,2.32,2.9,4.65,4.35,6.97.41-.15.82-.31,1.23-.46-.46,1.9-.91,3.81-1.52,6.36-11.18-2.5-22.09-4.95-33.39-7.48.58-2.5,1.05-4.56,1.57-6.77,4.17.95,6.67-.46,7.88-4.62-2.23-.7-4.11-1.3-6.63-2.09,6.63-28.91,13.24-57.72,20.02-87.28-4.34-.8-8.37-2.05-12.43-2.2-9.12-.32-18.26-.12-27.39-.08-5.61.02-5.91.37-5.92,6.18,0,4,0,7.99,0,12.68-4.29,0-8.24,0-12.19,0-.3,0-.8-.05-.86-.21-2.36-6.29-7.73-2.62-11.69-3.43-2.08-.43-4.32-.1-6.49-.07-1.89.03-4.19-.67-4.35,2.55-.02.44-1.37,1.13-2.12,1.15-3.67.12-7.35.05-11.44.05v-24.11c-3.9-.41-8.25.35-10.59-1.47-2.17-1.69-2.19-6.15-3.3-9.88-9.12-3.14-4.04-11.58-5.14-17.92-.74-4.28,2.61-4.97,5.7-5.22q1.53-10.25,13.24-11.92v-13.73h13.45c.29,1.48.57,2.92.87,4.48h20.63c.22-1.52.41-2.84.65-4.46h13.13c.28,1.36.58,2.8.89,4.28,3.55,1.24,5.38.21,7.01-3.4,3.91-8.66,6.47-18.1,13.66-25.03,3.47-3.35,9.01-5.38,7.25-12.59,25.76,1.65,50.63,3.24,76.02,4.87.08-1.37.27-2.99.27-4.62.05-14.53.06-29.06.09-43.58q.02-7.36,8.34-5.71c0,5.78.02,11.77,0,17.75-.05,10.82-.24,21.63-.1,32.44.02,1.58,1.68,3.08,2.3,4.72.83,2.22,1.38,4.53,2.04,6.81-.48.18-.96.36-1.44.54-.76-.7-1.51-1.4-2.28-2.11-.2.21-.6.55-.56.61,3.16,4.72,4.7,9.64,2.21,15.21-.24.54.17,1.37.31,2.24.72-.26,1.29-.28,1.52-.57,3.13-4,6.03-6.27,10.26-.8.8,1.03,5.3.43,7.17-.81,5.45-3.63,11.01-2.97,16.91-2.14,6.02.84,12.12,1.32,18.19,1.46,9.83.22,19.67.08,29.51.02,10.65-.06,21.3-.2,31.95-.31,8.8-.09,17.68-.93,26.38-.05,8.84.9,17.44.91,26.43-.88.14-2.48.28-4.91.44-7.76,10.16-.08,20.14-4.53,30.4-.53.69.27,1.53.19,2.3.19,22.9,0,45.81,0,68.62,0,3.94-5.99,6.91-6.11,12.21-.79.54.55,1.62.73,2.47.77,2.73.14,4.94.7,4.85,4.14-.08,3.25-2.13,4.14-4.89,4.3-.44.03-.88.17-1.54.31v6.97c1.7.16,3.2.3,4.99.46.27,1.23.55,2.53.89,4.07.95.12,1.99.36,3.03.36,16.87.02,33.75-.17,50.61.08,6.66.1,11.68,4.34,16.6,8.35.23.19.34.52.54.75,6.69,7.89,11.63,16.39,8.67,27.33,3.66,1.16,7.62-.14,9.28,3.98.24.6,2.59.47,3.96.47,5.42,0,10.85.2,16.24-.18,4.93-.35,4.93,2.53,5.08,6.04.16,3.79-1.79,4.3-4.89,4.2-5.1-.16-10.21-.07-15.32-.04-2.67.01-5.31-.63-7.16,2.66-.67,1.19-3.88.95-6.27,1.43-.1.48-.51,1.25-.37,1.91,2.32,10.89-4.36,18.49-10.67,25.35-4.02,4.37-9.78,8.03-16.77,7.99-45.66-.25-91.31-.39-136.97-.57-5.58-.02-7.57,3.32-6.36,11.74,4.03-2.71,7.7-5.4,11.59-7.7,1.89-1.12,4.21-2.13,6.33-2.14,47.98-.08,95.96-.03,143.94.04,6.52,0,7.47,1.06,7.48,7.58,0,10.33,0,20.67,0,31.78-2.25,0-4.18,0-6.11,0-50.92,0-101.84-.01-152.76.03-8.19,0-16.38.17-24.56.51-1.26.05-2.87,1.17-3.61,2.27-3.15,4.7-13.79,4.6-16.99-.14-.76-1.12-2.46-2.25-3.75-2.27-14.7-.26-29.41-.37-44.11-.29-1.29,0-3.02,1.42-3.76,2.65-2.55,4.26-14.16,5.09-16.25.61-1.51-3.24-3.68-3.54-6.43-3.88-6.58-.8-13.49-.9-18.97-5.16-3.41-2.65-6.55-5.94-8.91-9.52-1.52-2.3-2.72-3.7-5.53-3.9-9.7-.68-18.03-3.97-25.06-11.25-2.54-2.63-7.7-2.66-11.55-4.17-1.58-.62-3.46-1.75-4.11-3.16-1.67-3.55-2.69-6.48-7.92-6.74-1.96-.1-6.58-3.9-6.44-8.55.05-1.67,0-3.34,0-5.3Zm-30.62-93.85c-2.44-1.72-4.36-4.2-6.37-4.27-5.57-.19-11.16.72-16.75,1.01-10.18.53-20.39,1.5-30.54,1.13-4.89-.18-7.78,1.45-9.66,5.09-3.37,6.53-6.21,13.34-9.24,20.05-.05.1.35.4.13.16,5.8-1.74,11.34-3.4,17.21-5.15.03-.49.16-1.38.11-2.27-.37-7.31-.37-7.19,6.8-7.61,8.16-.48,16.31-1.19,24.46-1.82,6.19-.48,12.37-.99,18.55-1.48.07.35.13.7.2,1.05,1.5-1.73,3-3.46,5.1-5.88Zm299.79,9.15h-53.55c.24,4.09.46,7.85.68,11.67h46.87c.31-1.62.55-2.92.78-4.17,1.92-.23,3.54-.41,5.23-.61v-6.89Zm-57.11,111.82c.36.39.73.78,1.09,1.17.91,0,1.83,0,2.74,0,40.98-.03,81.97-.06,122.95-.09,6.34,0,12.68,0,19.02-.15.83-.02,1.65-.91,2.47-1.4-.81-.67-1.52-1.61-2.45-1.94-.97-.34-2.14-.09-3.22-.09-45.47,0-90.94.01-136.41.02-1.24,0-2.6-.3-3.68.11-1,.38-1.69,1.55-2.52,2.36Zm73.89,16.19v-.12c23.68,0,47.36.02,71.04-.07,1.19,0,2.38-1.08,3.56-1.65-1.17-.63-2.3-1.34-3.52-1.86-.53-.22-1.22-.04-1.84-.04-45.66-.03-91.32-.06-136.98-.08-1.39,0-2.82-.14-4.16.14-.63.14-1.45,1.13-1.47,1.76-.02.61.79,1.61,1.41,1.78,1.16.31,2.45.15,3.69.15,22.75,0,45.51,0,68.26,0Zm-73.17-7.51c1.52,0,3.03,0,4.55,0,46.24-.02,92.49-.03,138.73-.05.62,0,1.32.18,1.84-.05.93-.43,1.75-1.1,2.62-1.67-.92-.55-1.79-1.31-2.79-1.59-1.01-.28-2.15-.08-3.23-.08-29.54-.02-59.08-.05-88.62-.05-16.39,0-32.79,0-49.18.06-1.91,0-4.73-.81-3.91,3.45Zm73.63,10.83v-.06c-22.74,0-45.49-.03-68.23.06-1.9,0-3.79.89-5.68,1.36,1.93.61,3.86,1.76,5.79,1.76,45.95.1,91.9.08,137.86.08.93,0,1.9.09,2.77-.16.6-.17,1.05-.84,1.57-1.29-.55-.57-1.02-1.47-1.67-1.63-1.18-.28-2.46-.12-3.69-.12-22.9,0-45.8,0-68.7,0ZM104.61,108.42c-6.24,0-12.05,0-17.86,0q-6.56,0-7.69,7.21h25.55v-7.21Zm45.64-22.31c4.21,2.22,7.22,4.26,10.54,5.35,1.39.45,3.68-.77,5.13-1.83,2.26-1.65,4.15-3.81,7.04-6.56-.01-.2-.12-1.75-.27-4.05-7.42,2.34-14.12,4.46-22.43,7.08Zm-95.86,70.26c-1.08-2.32-2.06-4.44-2.99-6.44h-15.15v6.44h18.14Zm64.29-65.93c7.08,6.93,12.83,5.88,16.35-2.74-5.46.91-10.5,1.76-16.35,2.74Z"/>
      
      
      
      
      
      
      
      
      
      
    </g>
  </g>
</svg>