<?xml version="1.0" encoding="UTF-8"?>
<svg id="Layer_1" data-name="Layer 1" xmlns="http://www.w3.org/2000/svg" viewBox="0 0 586.67 106.5">
  <defs>
    <style>
      .cls-1, .cls-2 {
        stroke-width: 0px;
      }

      .cls-2 {
        fill: #fff;
      }
    </style>
  </defs>
  <g id="nM4K5j.tif">
    <g>
      <path class="cls-2" d="m586.67,106.5H0V0h586.67v106.5Zm-5.88-88.08c-3.02.92-5.21,2.17-7.41,2.17-67.53.16-135.05.32-202.58.22-59.55-.09-119.1-.49-178.65-.73-1.9,0-3.81.31-6.28.52.51-1.36.83-2.8,1.07-2.78,1.78.11,3.54.51,4.24.64,1.85-1.33,3.11-2.23,4.65-3.34-2.56-4.99-7.38-4.65-12.07-3.26-1.28-3.09-2.38-5.76-3.48-8.42-.37.17-.75.33-1.12.5v16.86c-7.13,1.75-14.44,3.55-21.96,5.41-1.44-4.16-2.89-8.35-4.33-12.54-.51.18-1.03.35-1.54.53,1.09,4.28,2.19,8.55,3.34,13.06-9.23,3.41-18.39,6.32-27.12,10.19-6.2,2.75-11.76,3.1-17.97.37-2.62-1.15-5.93-1.28-8.87-1.07-28.64,1.97-57.26,4.1-85.89,6.21-4.12.3-8.23.76-11.73,1.09,4.33,4.74,9.46,8.68,12.34,13.85,7.7,13.8,5.49,28.41-4.87,40.56-1.41,1.66-2.57,3.53-4.6,6.35,2.44-.44,3.58-.56,4.66-.84,39.17-10.39,78.35-20.76,117.48-31.28,2.39-.64,4.43-2.56,6.68-3.92,1.79,2.85,4.7,3.4,7.55.59,1.77-1.74,2.81-4.23,4.08-6.43.97-1.68,1.38-4.09,2.8-5.02,1.94-1.27,4.75-2.23,6.9-1.82,1.5.28,2.82,2.95,3.66,4.81,1.03,2.27,1.47,4.81,2.16,7.23-.53-6.7.43-7.8,7.4-7.7,1.37.02,2.75.25,4.12.17,7.25-.41,14.04-1.68,16.72-9.69,8.15,2.88,18.08-.13,21.21-6.38,1.29,0,2.66,0,4.03,0,89.37-.08,178.75-.16,268.12-.24,32.35-.03,64.71-.13,97.06-.01,4.08.01,5.4-1.21,5.15-5.19-.31-4.84.01-9.71-.14-14.56-.04-1.22-.52-2.7-1.33-3.57-1.2-1.29-2.89-2.13-3.46-2.54Z"/>
      <path class="cls-1" d="m580.79,18.42c.58.4,2.26,1.25,3.46,2.54.81.87,1.29,2.35,1.33,3.57.15,4.85-.17,9.72.14,14.56.25,3.98-1.07,5.21-5.15,5.19-32.35-.12-64.71-.01-97.06.01-89.37.08-178.75.16-268.12.24-1.37,0-2.74,0-4.03,0-3.12,6.25-13.05,9.26-21.21,6.38-2.69,8.01-9.48,9.28-16.72,9.69-1.36.08-2.74-.15-4.12-.17-6.97-.1-7.93,1-7.4,7.7-.7-2.42-1.14-4.96-2.16-7.23-.84-1.85-2.16-4.52-3.66-4.81-2.15-.41-4.97.55-6.9,1.82-1.42.93-1.83,3.34-2.8,5.02-1.27,2.2-2.31,4.69-4.08,6.43-2.85,2.81-5.76,2.26-7.55-.59-2.25,1.35-4.29,3.27-6.68,3.92-39.13,10.53-78.31,20.9-117.48,31.28-1.09.29-2.22.41-4.66.84,2.03-2.82,3.19-4.69,4.6-6.35,10.36-12.14,12.57-26.76,4.87-40.56-2.88-5.17-8.01-9.11-12.34-13.85,3.5-.33,7.61-.79,11.73-1.09,28.63-2.11,57.25-4.24,85.89-6.21,2.94-.2,6.25-.07,8.87,1.07,6.2,2.72,11.76,2.38,17.97-.37,8.73-3.87,17.89-6.78,27.12-10.19-1.15-4.51-2.25-8.79-3.34-13.06.51-.18,1.03-.35,1.54-.53,1.45,4.19,2.89,8.38,4.33,12.54,7.52-1.85,14.83-3.65,21.96-5.41V3.93c.37-.17.75-.33,1.12-.5,1.1,2.67,2.2,5.33,3.48,8.42,4.69-1.39,9.51-1.72,12.07,3.26-1.54,1.11-2.79,2.01-4.65,3.34-.7-.12-2.46-.52-4.24-.64-.23-.02-.56,1.42-1.07,2.78,2.48-.21,4.38-.53,6.28-.52,59.55.24,119.1.64,178.65.73,67.53.1,135.05-.06,202.58-.22,2.2,0,4.4-1.26,7.41-2.17ZM161.8,58.52c4.92,0,9.36.34,13.71-.12,3.08-.32,6.25-1.34,9.01-2.74,2.98-1.51,3.91-6.15,1.58-7.12-3.44-1.43-7.66-2.43-11.2-1.79-3.3.6-2.63,4.47-2.06,7.37.15.74-.08,1.56-.22,3.59-2.82-4.88-3.5-11.73-10.03-8.99-4.74,1.99-1.7,6.5-.78,9.8Zm-24.36,3.38c1.43,2.68,2.34,4.39,3.5,6.56.94-1.38,2.4-2.75,2.94-4.42,2.83-8.83,4.68-10.36,13.91-10.63.45-1.39.93-2.84,1.56-4.78-9.48,2.44-17.8,5.42-21.9,13.27Zm59-11.84c3.78-1.45,6.77-2.59,9.75-3.74-3.61-.81-7.74-3.41-9.75,3.74Z"/>
      <path class="cls-2" d="m161.8,58.52c-.92-3.31-3.96-7.81.78-9.8,6.53-2.74,7.22,4.11,10.03,8.99.14-2.03.37-2.85.22-3.59-.57-2.9-1.25-6.77,2.06-7.37,3.55-.64,7.77.36,11.2,1.79,2.34.97,1.41,5.61-1.58,7.12-2.77,1.41-5.93,2.42-9.01,2.74-4.35.46-8.78.12-13.71.12Z"/>
      <path class="cls-2" d="m137.43,61.9c4.11-7.86,12.42-10.83,21.9-13.27-.63,1.94-1.11,3.39-1.56,4.78-9.23.27-11.07,1.8-13.91,10.63-.53,1.67-1.99,3.04-2.94,4.42-1.16-2.17-2.07-3.88-3.5-6.56Z"/>
      <path class="cls-2" d="m196.43,50.06c2.01-7.14,6.15-4.54,9.75-3.74-2.99,1.14-5.97,2.29-9.75,3.74Z"/>
    </g>
  </g>
</svg>