<?xml version="1.0" encoding="UTF-8"?>
<svg id="Layer_1" data-name="Layer 1" xmlns="http://www.w3.org/2000/svg" viewBox="0 0 606.38 112.58">
  <defs>
    <style>
      .cls-1, .cls-2 {
        stroke-width: 0px;
      }

      .cls-2 {
        fill: #fff;
      }
    </style>
  </defs>
  <g id="zBg37s.tif">
    <g>
      <path class="cls-2" d="m606.38,112.58c-202.13,0-404.25,0-606.38,0C0,75.06,0,37.53,0,0c202.13,0,404.25,0,606.38,0,0,37.53,0,75.06,0,112.58ZM180.81,33.16c-6.31,2.07-12.63,2.81-17.26,5.98-7.36,5.04-15.03,5.56-23.29,5.22-5.41-.22-10.85.16-16.26-.12-3.19-.16-6.41-.85-9.49-1.73-5.03-1.42-9.93-4.48-14.93-4.59-19.54-.43-39.1-.17-58.65.23-9.79.2-19.56,1.55-29.36,1.81-3.89.11-6.14,1.42-6.54,4.95-1.14,9.96-2.87,19.88.77,29.86,3.51,9.63,6.23,19.54,9.35,29.31,1.74,5.44,3.22,6.18,8.6,4.62,2.67-.78,5.37-1.5,8.06-2.18,8.9-2.25,18.27-3.41,26.55-7.04,6.38-2.79,12.38-3.9,19.06-3.78,9.6.17,19.2.04,29.37.04-.71,2.21-.95,2.98-1.2,3.74q-1.99,6.04,4.1,7.47c4.31,1,8.71,1.7,12.93,3,3.22.99,4.82-.14,6.34-2.77,3.18-5.51,6.64-10.85,9.87-16.33,1.18-2,2.04-4.18,2.87-5.92,7.06.21,10.08-6.87,15.77-9,5.83-2.19,11.64-4.43,17.62-6.71,1.38,9.66,5.16,14.64,11.59,14.84,10.67.33,21.36.3,32.04.13,5.31-.08,9.59-5.11,9.61-10.42,0-2.04.27-4.08.45-6.63h27.3c1.33,2.66,1.8,5.53,3.2,6.08,8.1,3.2,7.98,10.55,8.78,17.04.47,3.87.64,6.72,5.69,6.44,0,1.78.19,3.24-.03,4.65-.77,4.88.99,6.52,6.13,6.34,11.82-.41,23.66-.29,35.49-.1,3.92.06,5.11-1.23,5-5.09-.27-8.92-.08-17.86-.08-27.39h10.72c.41-2.28.71-3.99,1.07-6.03,2.63,0,5.08,0,7.52,0,28.26.08,56.52.14,84.78.3,3.32.02,5.1-.7,6.58-4.18.96-2.26,4.6-4.17,7.36-4.75,4.35-.92,8.47.89,12.79,2.33,7.42,2.46,16.8-6.16,18.66-16.06,1.38,0,2.83,0,4.28,0,25.8-.06,51.59-.12,77.39-.19,14.79-.04,29.57-.1,44.36-.15,3.22-.01,6.7-.08,7.34-4.08.74-4.64,1.37-9.41,1.07-14.07-.43-6.72-2.12-7.82-9.08-7.82-40.09-.05-80.18-.13-120.27-.09-2.89,0-6.95-1.76-7.83,3.38-.05.27-1.15.47-1.77.51-7.77.5-15.54,1.38-23.32,1.37-33.25-.03-66.42-.64-99.66-3.55-29.86-2.61-60.12.7-90.12-2.42-1.39-.14-2.8-.02-4.64-.02,0-4.27-.06-8,.02-11.74.07-3.5-1.76-4.32-4.98-4.24-3.23.08-5.06,1.03-4.79,4.52.29,3.68-1.67,4.82-5.1,4.81-4.07-.01-8.14.33-12.22.51-.42,2.45-.76,4.42-1.04,6.06-7.95.87-15.54,2.12-23.16,2.42-10.45.41-13.13,2.11-15.38,11.18Z"/>
      <path class="cls-1" d="m180.81,33.16c2.25-9.08,4.93-10.78,15.38-11.18,7.62-.3,15.2-1.55,23.16-2.42.28-1.64.62-3.61,1.04-6.06,4.08-.19,8.15-.52,12.22-.51,3.43,0,5.39-1.14,5.1-4.81-.28-3.49,1.55-4.43,4.79-4.52,3.22-.08,5.05.74,4.98,4.24-.07,3.74-.02,7.47-.02,11.74,1.84,0,3.26-.13,4.64.02,30,3.12,60.26-.19,90.12,2.42,33.24,2.91,66.4,3.51,99.66,3.55,7.77,0,15.54-.87,23.32-1.37.62-.04,1.72-.24,1.77-.51.88-5.13,4.94-3.37,7.83-3.38,40.09-.04,80.18.04,120.27.09,6.96,0,8.65,1.1,9.08,7.82.3,4.66-.34,9.43-1.07,14.07-.63,4-4.11,4.07-7.34,4.08-14.79.05-29.57.11-44.36.15-25.8.07-51.59.13-77.39.19-1.45,0-2.91,0-4.28,0-1.86,9.91-11.24,18.52-18.66,16.06-4.32-1.43-8.44-3.24-12.79-2.33-2.76.58-6.39,2.48-7.36,4.75-1.48,3.48-3.26,4.2-6.58,4.18-28.26-.17-56.52-.22-84.78-.3-2.45,0-4.89,0-7.52,0-.36,2.04-.67,3.75-1.07,6.03h-10.72c0,9.53-.18,18.46.08,27.39.12,3.86-1.07,5.15-5,5.09-11.83-.19-23.67-.31-35.49.1-5.15.18-6.9-1.46-6.13-6.34.22-1.4.03-2.87.03-4.65-5.04.28-5.21-2.57-5.69-6.44-.8-6.49-.68-13.84-8.78-17.04-1.4-.55-1.87-3.41-3.2-6.08h-27.3c-.18,2.55-.45,4.59-.45,6.63-.02,5.31-4.3,10.34-9.61,10.42-10.68.17-21.36.19-32.04-.13-6.44-.2-10.21-5.18-11.59-14.84-5.98,2.28-11.79,4.52-17.62,6.71-5.69,2.13-8.71,9.21-15.77,9-.83,1.74-1.69,3.92-2.87,5.92-3.23,5.48-6.7,10.82-9.87,16.33-1.52,2.62-3.11,3.76-6.34,2.77-4.22-1.3-8.62-2-12.93-3q-6.09-1.41-4.1-7.47c.25-.76.49-1.53,1.2-3.74-10.18,0-19.78.13-29.37-.04-6.68-.12-12.69.99-19.06,3.78-8.28,3.63-17.65,4.79-26.55,7.04-2.7.68-5.39,1.4-8.06,2.18-5.37,1.56-6.86.82-8.6-4.62-3.12-9.77-5.84-19.68-9.35-29.31-3.64-9.98-1.91-19.9-.77-29.86.4-3.53,2.65-4.84,6.54-4.95,9.79-.27,19.56-1.61,29.36-1.81,19.55-.41,39.11-.66,58.65-.23,5,.11,9.9,3.17,14.93,4.59,3.08.87,6.3,1.56,9.49,1.73,5.41.28,10.85-.11,16.26.12,8.26.34,15.93-.18,23.29-5.22,4.63-3.17,10.95-3.91,17.26-5.98Zm9.96,33.18c-3.05,0-5.99-.22-8.86.12-1.06.13-2.77,1.56-2.8,2.45-.32,8.71-.18,13.08,10.68,13.34,8.87.21,17.75.06,26.61-.27,2.07-.08,4.39-1.17,6.07-2.46,4.49-3.45,3.16-8.3,2.92-13.04-9.57,0-18.77,0-27.96.02-.63,0-1.26.23-2.72.51.44,4.41.86,8.75,1.34,13.54-5.1-3.56-4.36-8.96-5.28-14.2Zm-57-6.75c-4.64,0-8.56-.35-12.37.13-2.28.29-5.5,1.28-6.4,2.96-4.18,7.83-9.03,13.82-19.25,11.98-2.54-.46-5.23-.09-7.86-.1-7.88-.04-11.76,2.74-14.59,10.71,5,0,9.9.15,14.79-.04,4.85-.19,9.82-1.63,14.5-.93,9.56,1.43,15.01-3.08,19.02-10.72.3-.57.66-1.22,1.17-1.55,1.6-1.03,3.29-1.93,5.32-3.1-2.82-4.25,2.73-5.57,5.67-9.34Zm-107.1,18.67q.28,7.01,6.65,7.06c5.74.05,11.58-.56,17.19.29,10.76,1.61,18.73-1.38,23.5-11.45.4-.85,1.2-1.51,1.77-2.2-4.74-6.46-11.8-5.3-18.06-4.69-2.54.25-5.16,3.97-6.94,6.64-2.27,3.42-4.92,4.68-8.96,4.42-5.03-.32-10.09-.08-15.15-.08Zm404.15-36.87c.98,5.25,7.08,7.06,15.68,5.01v-5.01h-15.68ZM31.93,100.77c5.51-1.41,10.75-2.74,15.99-4.08-.06-.21-.13-.42-.19-.64h-17.39c.58,1.72,1.02,3.02,1.6,4.71Z"/>
      <path class="cls-2" d="m190.77,66.33c.92,5.24.18,10.64,5.28,14.2-.47-4.79-.9-9.13-1.34-13.54,1.46-.28,2.09-.51,2.72-.51,9.19-.02,18.39-.02,27.96-.02.24,4.74,1.58,9.59-2.92,13.04-1.68,1.29-4,2.38-6.07,2.46-8.86.34-17.75.49-26.61.27-10.86-.26-11.01-4.62-10.68-13.34.03-.89,1.74-2.32,2.8-2.45,2.87-.34,5.81-.12,8.86-.12Z"/>
      <path class="cls-2" d="m133.77,59.59c-2.94,3.77-8.48,5.09-5.67,9.34-2.03,1.17-3.72,2.06-5.32,3.1-.51.33-.87.98-1.17,1.55-4.02,7.64-9.46,12.15-19.02,10.72-4.68-.7-9.65.74-14.5.93-4.88.19-9.78.04-14.79.04,2.83-7.97,6.71-10.75,14.59-10.71,2.62.01,5.32-.35,7.86.1,10.22,1.84,15.07-4.14,19.25-11.98.9-1.68,4.12-2.67,6.4-2.96,3.81-.48,7.73-.13,12.37-.13Z"/>
      <path class="cls-2" d="m26.67,78.26c5.06,0,10.12-.25,15.15.08,4.04.26,6.69-1,8.96-4.42,1.78-2.67,4.4-6.4,6.94-6.64,6.26-.61,13.31-1.77,18.06,4.69-.57.69-1.37,1.35-1.77,2.2-4.77,10.06-12.74,13.05-23.5,11.45-5.62-.84-11.46-.24-17.19-.29q-6.36-.05-6.65-7.06Z"/>
      <path class="cls-2" d="m430.82,41.39h15.68c0,1.86,0,3.44,0,5.01-8.6,2.05-14.71.23-15.69-5.01Z"/>
      <path class="cls-2" d="m31.93,100.77c-.57-1.69-1.02-3-1.6-4.71h17.39c.06.21.13.42.19.64-5.24,1.34-10.48,2.67-15.99,4.08Z"/>
    </g>
  </g>
</svg>