<svg xmlns="http://www.w3.org/2000/svg" xmlns:xlink="http://www.w3.org/1999/xlink" width="128pt" height="39pt" viewBox="0 0 128 39" version="1.1">
<g id="surface1">
<path d="M 118.097656 34.144531 C 119.210938 34.144531 119.769531 33.234375 119.769531 31.414062 L 119.769531 25.796875 L 88.355469 25.796875 L 87.140625 25.039062 L 86.6875 25.949219 L 86.6875 27.617188 L 93.515625 28.074219 L 97.003906 28.832031 L 96.246094 30.5 L 91.390625 31.109375 L 87.597656 32.324219 L 80.617188 30.804688 L 80.617188 34.75 L 81.222656 35.507812 L 83.042969 35.8125 L 85.015625 36.117188 L 92.453125 35.660156 L 95.640625 34.597656 L 100.191406 34.144531 L 118.097656 34.144531 M 76.824219 6.222656 L 77.125 7.4375 L 76.519531 8.5 L 74.851562 9.710938 L 75.457031 10.773438 L 83.5 4.402344 L 84.410156 4.25 L 85.320312 4.550781 L 85.472656 5.464844 L 85.015625 6.375 L 78.949219 11.078125 L 79.25 11.078125 L 80.3125 11.683594 L 80.921875 12.746094 L 80.921875 12.898438 L 88.355469 10.472656 L 89.570312 10.472656 L 90.480469 11.230469 L 91.390625 14.265625 L 119.160156 14.265625 L 119.160156 12.898438 L 119.617188 11.683594 L 120.679688 11.230469 L 121.285156 11.230469 L 122.5 11.683594 L 122.804688 12.898438 L 122.804688 14.265625 L 126.445312 14.265625 L 127.660156 14.871094 L 127.964844 15.933594 L 127.964844 24.128906 L 127.660156 25.496094 L 126.445312 25.796875 L 122.957031 25.796875 L 122.957031 31.414062 C 122.957031 33.234375 122.5 34.648438 121.589844 35.660156 C 120.78125 36.773438 119.617188 37.332031 118.097656 37.332031 L 114.761719 37.332031 L 103.378906 37.484375 L 99.28125 37.332031 L 97.003906 37.484375 L 93.667969 38.695312 L 90.632812 39 L 83.042969 39 L 79.097656 37.9375 C 77.988281 37.128906 77.429688 36.066406 77.429688 34.75 L 77.429688 28.984375 L 76.0625 28.074219 L 74.546875 29.136719 L 70.753906 31.109375 L 67.261719 32.019531 L 63.773438 31.261719 L 63.46875 31.109375 L 61.496094 30.804688 L 59.523438 31.109375 L 56.488281 32.324219 L 53.148438 32.929688 L 50.417969 32.929688 L 46.929688 32.324219 L 43.742188 31.109375 L 41.3125 30.046875 L 38.582031 29.742188 L 37.367188 29.742188 L 34.789062 30.046875 L 32.816406 30.804688 L 29.933594 31.867188 L 26.746094 32.171875 L 16.730469 32.171875 L 13.390625 31.5625 L 10.203125 30.046875 L 3.222656 24.886719 L 0.949219 22.003906 L 0.0351562 18.664062 L 1.402344 15.480469 C 2.414062 14.667969 3.578125 14.265625 4.894531 14.265625 L 5.5 14.265625 L 7.167969 13.960938 L 8.078125 12.140625 C 8.992188 11.230469 10.253906 10.824219 11.875 10.925781 L 16.882812 11.078125 L 22.953125 10.925781 L 29.628906 10.015625 L 32.96875 9.863281 L 36.152344 9.710938 L 50.417969 9.710938 L 53.148438 9.558594 L 61.496094 5.160156 L 62.558594 4.855469 L 63.46875 5.613281 L 70.296875 0.304688 L 71.359375 0 L 72.421875 0.605469 L 76.824219 6.222656 "/>
</g>
</svg>