<?xml version="1.0" encoding="UTF-8"?>
<svg xmlns="http://www.w3.org/2000/svg" xmlns:xlink="http://www.w3.org/1999/xlink" width="128pt" height="173pt" viewBox="0 0 128 173" version="1.1">
<g id="surface1">
<path d="M 63.863281 0 L 95.914062 41.359375 C 117.28125 71.992188 127.964844 94.609375 127.964844 109.207031 C 127.964844 126.867188 121.71875 141.914062 109.222656 154.347656 C 96.730469 166.78125 81.609375 173 63.863281 173 C 46.300781 173 31.269531 166.78125 18.777344 154.347656 C 6.28125 141.914062 0.0351562 126.867188 0.0351562 109.207031 C 0.0351562 94.609375 10.71875 71.992188 32.085938 41.359375 C 42.585938 26.21875 53.179688 12.433594 63.863281 0 M 56.53125 30.273438 L 56.800781 28.382812 L 54.628906 28.921875 C 47.386719 37.394531 39.417969 49.105469 30.726562 64.0625 C 19.320312 83.886719 13.613281 98.753906 13.613281 108.664062 C 13.613281 130.832031 24.296875 147.050781 45.664062 157.320312 C 50.011719 159.484375 53.996094 158.492188 57.617188 154.347656 C 61.238281 150.203125 61.328125 147.050781 57.886719 144.886719 C 49.921875 141.101562 43.402344 136.148438 38.332031 130.019531 C 32.898438 123.351562 30.183594 116.234375 30.183594 108.664062 C 30.183594 101.097656 32.992188 89.113281 38.605469 72.714844 C 43.855469 57.214844 49.832031 43.070312 56.53125 30.273438 "/>
</g>
</svg>
