<svg xmlns="http://www.w3.org/2000/svg" xmlns:xlink="http://www.w3.org/1999/xlink" width="128pt" height="90pt" viewBox="0 0 128 90" version="1.1">
<g id="surface1">
<path d="M 127.304688 25.265625 L 127.097656 27.144531 L 126.054688 28.816406 L 115.019531 36.75 L 113.976562 38.421875 L 113.769531 40.300781 L 127.929688 81.4375 L 127.71875 83.109375 L 126.261719 84.152344 L 93.570312 90 L 91.695312 89.582031 L 90.652344 88.121094 L 81.492188 55.335938 C 80.519531 51.996094 79.339844 50.464844 77.953125 50.742188 L 64.417969 52.414062 C 54.976562 52.414062 48.105469 49.210938 43.800781 42.808594 C 41.023438 38.910156 39.429688 34.316406 39.011719 29.027344 C 39.011719 27.773438 37.414062 27.144531 34.222656 27.144531 L 7.566406 27.144531 L 5.902344 26.519531 L 5.277344 24.847656 L 5.277344 18.585938 L 4.445312 16.914062 L 2.988281 16.078125 L 2.363281 16.078125 L 0.695312 15.453125 L 0.0703125 13.78125 L 0.0703125 2.296875 L 0.695312 0.625 L 2.363281 0 L 116.890625 0 L 118.765625 0.625 L 120.015625 2.296875 L 127.304688 25.265625 M 68.996094 27.144531 C 69.832031 32.992188 69.207031 37.585938 67.125 40.929688 L 63.582031 43.851562 L 60.25 43.644531 L 61.5 41.347656 C 62.335938 39.535156 62.679688 37.585938 62.542969 35.5 C 62.402344 33.550781 61.015625 30.765625 58.378906 27.144531 L 50.046875 27.144531 L 47.757812 27.5625 L 46.714844 29.234375 C 46.992188 35.359375 48.660156 40.023438 51.714844 43.226562 C 54.351562 45.871094 57.753906 47.191406 61.917969 47.191406 L 68.996094 46.566406 L 75.660156 44.894531 L 77.117188 42.390625 L 77.328125 40.71875 L 74.203125 29.441406 L 72.953125 27.773438 L 71.078125 27.144531 L 68.996094 27.144531 "/>
</g>
</svg>