<svg xmlns="http://www.w3.org/2000/svg" xmlns:xlink="http://www.w3.org/1999/xlink" width="128pt" height="128pt" viewBox="0 0 128 128" version="1.1">
<g id="surface1">
<path d="M 118.808594 8.972656 C 116.621094 6.636719 113.851562 5.46875 110.496094 5.46875 C 107.140625 5.46875 104.371094 6.636719 102.179688 8.972656 C 100.285156 10.867188 99.117188 12.980469 98.679688 15.316406 L 112.246094 28.882812 C 114.726562 28.589844 116.914062 27.570312 118.808594 25.820312 C 121.144531 23.484375 122.3125 20.714844 122.3125 17.503906 C 122.3125 14.148438 121.144531 11.304688 118.808594 8.972656 M 110.496094 0 C 115.308594 0 119.394531 1.675781 122.75 5.03125 C 126.25 8.386719 128 12.542969 128 17.503906 C 128 22.316406 126.25 26.402344 122.75 29.757812 C 121.144531 31.652344 118.957031 33.039062 116.183594 33.914062 C 116.769531 36.101562 116.332031 37.925781 114.871094 39.382812 L 111.589844 42.667969 C 110.570312 43.6875 109.328125 44.199219 107.871094 44.199219 C 106.265625 44.199219 104.878906 43.6875 103.710938 42.667969 L 101.742188 44.855469 C 104.078125 49.375 105.390625 53.679688 105.683594 57.765625 C 105.828125 61.996094 104.734375 65.277344 102.398438 67.609375 L 99.992188 69.578125 L 61.046875 108.746094 C 59.148438 110.640625 56.234375 111.296875 52.292969 110.714844 L 56.671875 115.089844 C 57.109375 115.527344 57.328125 116.113281 57.328125 116.839844 L 56.671875 118.589844 L 54.042969 119.464844 L 46.167969 127.125 L 44.199219 128 L 41.792969 127.125 L 41.136719 124.9375 L 41.792969 122.75 L 49.667969 115.308594 L 41.574219 107.433594 L 35.226562 113.339844 L 33.257812 114.214844 L 37.195312 117.933594 C 37.632812 118.371094 37.851562 118.882812 37.851562 119.464844 L 37.195312 121 L 35.882812 121.4375 L 34.351562 121 L 25.820312 112.246094 L 24.726562 115.089844 L 21.660156 116.183594 L 19.035156 115.089844 L 12.910156 108.964844 L 11.816406 105.902344 L 12.910156 103.273438 L 15.316406 102.179688 L 15.097656 101.523438 L 7 93.648438 L 6.5625 92.117188 L 7 90.585938 L 8.316406 90.148438 L 9.847656 90.585938 L 12.910156 93.867188 L 14.003906 91.898438 L 19.910156 85.769531 L 12.472656 78.332031 L 5.03125 85.769531 C 4.449219 86.355469 3.71875 86.644531 2.84375 86.644531 L 0.875 85.769531 L 0 83.800781 C 0 82.925781 0.292969 82.269531 0.875 81.832031 L 8.535156 73.738281 L 9.191406 71.328125 L 11.160156 70.453125 L 12.910156 71.328125 L 17.285156 75.488281 C 16.410156 71.695312 16.992188 68.777344 19.035156 66.734375 L 60.828125 24.945312 C 63.453125 22.753906 66.734375 21.808594 70.671875 22.097656 C 74.613281 22.390625 78.769531 23.777344 83.144531 26.257812 L 85.113281 24.070312 C 84.09375 22.902344 83.582031 21.589844 83.582031 20.128906 C 83.582031 18.671875 84.167969 17.359375 85.332031 16.191406 L 87.519531 14.003906 L 84.019531 11.816406 L 77.894531 15.753906 L 73.519531 19.910156 L 70.671875 17.066406 L 85.550781 2.1875 L 94.304688 10.941406 C 95.035156 8.753906 96.273438 6.78125 98.023438 5.03125 C 101.523438 1.675781 105.683594 0 110.496094 0 "/>
</g>
</svg>