<svg xmlns="http://www.w3.org/2000/svg" xmlns:xlink="http://www.w3.org/1999/xlink" width="128pt" height="85pt" viewBox="0 0 128 85" version="1.1">
<g id="surface1">
<path d="M 66.859375 58.574219 L 64.691406 56.996094 C 61.796875 58.441406 59.761719 58.96875 58.578125 58.574219 L 55.421875 53.644531 L 53.449219 48.910156 L 50.6875 48.710938 C 48.980469 48.582031 47.925781 48.910156 47.53125 49.699219 C 47.136719 51.011719 47.597656 53.183594 48.914062 56.207031 C 50.226562 59.757812 52.265625 61.597656 55.027344 61.730469 L 63.902344 60.546875 L 66.859375 58.574219 M 65.675781 6.902344 L 81.847656 5.523438 L 102.359375 7.886719 L 118.136719 12.03125 C 123.789062 13.34375 127.078125 14.527344 127.996094 15.578125 L 122.472656 19.328125 L 118.53125 20.707031 L 120.304688 22.285156 C 115.175781 26.492188 109.457031 28.859375 103.148438 29.386719 L 96.046875 29.582031 L 89.738281 30.570312 L 85.988281 33.527344 L 84.410156 36.089844 L 81.257812 36.484375 C 79.019531 37.011719 77.3125 38.261719 76.128906 40.230469 C 75.207031 41.679688 76.261719 44.175781 79.285156 47.726562 L 88.554688 58.96875 L 95.0625 69.617188 C 96.507812 72.902344 97.296875 76.386719 97.429688 80.070312 C 97.558594 82.960938 95.851562 84.605469 92.300781 85 L 86.777344 84.605469 L 81.453125 84.015625 C 77.378906 83.09375 74.550781 81.714844 72.972656 79.871094 C 71.527344 78.425781 70.933594 76.058594 71.199219 72.773438 L 71.789062 66.660156 C 71.660156 64.03125 71.199219 62.386719 70.410156 61.730469 L 69.027344 61.53125 L 60.546875 64.292969 C 54.238281 65.476562 50.160156 64.09375 48.320312 60.152344 C 46.742188 57.390625 44.769531 55.023438 42.40625 53.050781 L 37.671875 49.894531 L 33.136719 50.488281 L 29.78125 52.261719 L 26.035156 48.710938 L 23.078125 45.558594 L 12.035156 39.441406 C 4.539062 34.839844 0.53125 31.621094 0.00390625 29.78125 C 0.792969 27.9375 5.328125 25.113281 13.613281 21.300781 L 25.839844 16.171875 L 28.996094 14.003906 L 37.277344 10.058594 L 45.757812 8.480469 L 49.308594 8.675781 L 51.28125 6.902344 L 56.210938 3.15625 C 58.3125 1.710938 60.878906 0.65625 63.902344 0 L 69.621094 0.789062 C 70.015625 1.578125 68.898438 2.957031 66.269531 4.929688 L 64.492188 6.707031 L 65.675781 6.902344 "/>
</g>
</svg>