<svg xmlns="http://www.w3.org/2000/svg" xmlns:xlink="http://www.w3.org/1999/xlink" width="128pt" height="65pt" viewBox="0 0 128 65" version="1.1">
<g id="surface1">
<path d="M 20.394531 15.207031 L 20.394531 20.050781 L 54.050781 19.71875 L 55.875 19.550781 L 54.878906 18.214844 L 54.550781 16.878906 L 54.550781 14.871094 L 20.394531 15.207031 M 105.78125 25.734375 L 102.964844 25.734375 L 96.828125 38.429688 L 97.160156 39.101562 L 105.78125 32.417969 L 105.78125 25.734375 M 95.171875 5.347656 L 95.667969 7.351562 L 95.667969 13.535156 L 98.488281 17.878906 L 107.773438 18.214844 L 96.332031 4.011719 L 93.679688 4.011719 L 95.171875 5.347656 M 84.226562 0 L 96.996094 0 C 97.65625 0 98.15625 0.222656 98.488281 0.667969 L 110.257812 12.367188 L 122.527344 12.367188 L 122.527344 3.84375 L 128 3.84375 L 127.503906 25.734375 L 110.09375 25.734375 L 109.925781 33.585938 L 109.097656 35.089844 L 86.878906 52.300781 L 85.554688 52.632812 L 84.0625 51.796875 L 83.894531 51.632812 L 68.3125 64.496094 L 66.820312 65 C 66.488281 65 66.042969 64.777344 65.492188 64.332031 L 51.730469 47.453125 L 51.398438 45.949219 L 52.0625 44.78125 L 66.320312 32.75 L 58.859375 23.226562 L 34.15625 23.894531 L 8.457031 24.0625 L 3.648438 24.0625 L 2.320312 23.058594 L 1.492188 21.554688 L 2.488281 20.21875 L 3.980469 19.71875 L 16.746094 20.050781 L 16.746094 15.539062 L 15.089844 16.542969 L 7.792969 15.875 L 0 14.371094 L 0 8.691406 L 7.792969 7.351562 L 15.089844 6.851562 L 16.414062 7.351562 L 17.078125 8.855469 L 54.550781 8.691406 L 54.550781 3.84375 L 55.378906 2.339844 L 56.871094 1.671875 L 58.195312 2.339844 L 58.859375 3.84375 L 58.859375 8.691406 L 67.980469 8.855469 L 67.980469 7.351562 C 67.980469 6.238281 68.367188 5.402344 69.140625 4.847656 C 69.691406 4.066406 70.410156 3.675781 71.296875 3.675781 L 82.074219 3.84375 L 82.074219 2.171875 L 82.902344 0.503906 L 84.226562 0 "/>
</g>
</svg>