<svg xmlns="http://www.w3.org/2000/svg" xmlns:xlink="http://www.w3.org/1999/xlink" width="128pt" height="128pt" viewBox="0 0 128 128" version="1.1">
<g id="surface1">
<path d="M 33.714844 40.984375 C 29.410156 31.5625 28.871094 25.238281 32.101562 22.007812 C 33.175781 20.929688 34.726562 20.257812 36.746094 19.988281 L 43.40625 13.324219 L 38.359375 8.277344 L 29.476562 17.160156 L 26.648438 20.796875 C 23.554688 26.179688 24.429688 33.984375 29.273438 44.214844 C 34.121094 54.445312 41.859375 64.808594 52.492188 75.304688 C 63.394531 86.34375 74.09375 94.214844 84.59375 98.925781 C 94.957031 103.636719 102.761719 104.175781 108.011719 100.542969 L 114.269531 94.6875 L 119.519531 89.4375 L 114.472656 84.390625 L 107.609375 91.054688 C 107.472656 93.074219 106.867188 94.621094 105.792969 95.695312 C 102.5625 98.925781 96.234375 98.390625 86.8125 94.082031 C 76.71875 89.640625 66.488281 82.238281 56.125 71.875 C 45.761719 61.375 38.292969 51.078125 33.714844 40.984375 M 8.277344 61.375 C 2.757812 50.472656 1.078125 42.128906 3.230469 36.339844 L 11.507812 22.613281 C 10.699219 28.535156 12.179688 35.601562 15.949219 43.8125 C 18.777344 50.136719 22.613281 56.664062 27.457031 63.394531 C 32.4375 70.257812 38.15625 76.921875 44.617188 83.382812 C 50.945312 89.707031 57.539062 95.359375 64.402344 100.339844 C 71.132812 105.1875 77.59375 109.023438 83.785156 111.847656 C 92.667969 115.75 100.070312 117.230469 105.992188 116.289062 L 91.660156 124.367188 C 85.871094 126.789062 77.460938 125.171875 66.421875 119.519531 C 55.386719 113.867188 44.347656 105.589844 33.3125 94.6875 C 22.277344 83.652344 13.929688 72.546875 8.277344 61.375 M 84.796875 20.1875 C 83.046875 16.554688 82.640625 14.199219 83.582031 13.121094 C 85.0625 11.777344 88.160156 11.375 92.871094 11.910156 C 98.925781 12.449219 104.109375 14.941406 108.417969 19.382812 C 112.859375 23.6875 115.347656 28.871094 115.886719 34.925781 C 116.425781 39.773438 115.953125 42.867188 114.472656 44.214844 C 113.53125 45.292969 111.242188 44.953125 107.609375 43.203125 C 103.300781 41.1875 98.925781 37.957031 94.484375 33.515625 C 89.910156 28.9375 86.679688 24.496094 84.796875 20.1875 M 79.746094 10.09375 L 79.140625 10.5 C 77.257812 13.460938 77.660156 17.566406 80.351562 22.8125 C 82.507812 27.523438 85.9375 32.234375 90.648438 36.945312 C 95.496094 41.792969 100.339844 45.359375 105.1875 47.648438 C 110.433594 50.070312 114.472656 50.339844 117.300781 48.453125 L 117.90625 48.050781 L 117.90625 48.253906 L 118.511719 47.648438 L 118.914062 49.867188 L 120.53125 78.335938 L 116.695312 82.171875 L 121.941406 87.621094 L 124.367188 87.417969 C 125.308594 87.554688 126.046875 87.957031 126.585938 88.632812 C 127.527344 89.4375 128 90.449219 128 91.660156 L 126.585938 94.6875 L 113.058594 108.214844 L 111.847656 109.828125 C 107.945312 113.734375 100.542969 113.394531 89.640625 108.820312 C 76.449219 103.4375 62.316406 93.207031 47.242188 78.132812 C 33.246094 64.132812 23.757812 50.472656 18.777344 37.148438 C 17.160156 32.976562 16.085938 29.003906 15.546875 25.238281 L 15.34375 20.390625 L 17.96875 16.152344 L 19.582031 14.941406 L 33.3125 1.210938 L 36.140625 0 L 39.367188 1.210938 C 40.582031 2.558594 40.917969 4.105469 40.378906 5.855469 L 45.628906 11.304688 L 49.664062 7.269531 L 79.746094 10.09375 "/>
</g>
</svg>