<svg xmlns="http://www.w3.org/2000/svg" xmlns:xlink="http://www.w3.org/1999/xlink" width="128pt" height="189pt" viewBox="0 0 128 189" version="1.1">
<g id="surface1">
<path d="M 107.761719 178.039062 L 106.667969 178.585938 L 97.640625 186.242188 C 94.722656 188.0625 92.261719 188.976562 90.257812 188.976562 L 87.519531 188.15625 C 86.792969 187.609375 87.15625 186.148438 88.617188 183.78125 L 94.632812 175.304688 L 87.519531 169.015625 L 117.332031 169.015625 C 116.96875 171.382812 115.328125 173.390625 112.410156 175.03125 L 112.136719 175.03125 L 110.496094 173.9375 L 107.761719 178.039062 M 76.582031 152.058594 L 75.761719 148.230469 L 75.214844 143.582031 L 109.128906 143.582031 L 106.941406 146.042969 L 108.582031 148.230469 L 111.863281 153.699219 L 117.605469 162.453125 L 82.324219 162.453125 L 76.582031 152.058594 M 62.90625 173.9375 L 57.984375 175.851562 L 56.890625 176.125 L 45.402344 177.492188 L 37.742188 176.125 L 35.554688 173.9375 C 35.375 172.84375 37.835938 171.203125 42.941406 169.015625 L 74.667969 169.015625 L 73.300781 169.289062 L 72.207031 169.5625 L 71.929688 172.570312 C 70.289062 174.9375 67.554688 176.03125 63.726562 175.851562 L 62.90625 173.9375 M 58.257812 112.136719 L 59.351562 111.042969 L 56.070312 107.761719 L 44.582031 93.269531 L 112.683594 93.269531 C 111.042969 95.457031 109.035156 96.640625 106.667969 96.824219 L 106.394531 96.824219 L 110.222656 102.019531 L 110.496094 102.566406 L 115.691406 112.136719 L 58.257812 112.136719 M 39.382812 137.019531 L 39.382812 134.558594 C 40.113281 130.183594 43.941406 124.898438 50.871094 118.699219 L 116.785156 118.699219 L 116.785156 123.347656 L 112.136719 137.019531 L 39.382812 137.019531 M 41.847656 148.230469 L 40.480469 143.582031 L 67.554688 143.582031 L 68.648438 148.230469 L 69.46875 150.964844 L 73.300781 162.453125 L 46.769531 162.453125 L 41.847656 148.230469 M 3.007812 93.269531 L 4.648438 93.269531 L 6.289062 95.183594 L 5.742188 93.269531 L 39.109375 93.269531 C 36.375 98.191406 33.277344 102.109375 29.8125 105.027344 C 25.617188 108.492188 21.332031 110.222656 16.957031 110.222656 L 16.410156 109.949219 L 12.035156 110.496094 C 9.480469 110.3125 7.75 108.945312 6.835938 106.394531 L 5.46875 108.035156 C 4.195312 108.398438 3.191406 108.035156 2.460938 106.941406 L 1.367188 105.300781 L 0 99.011719 L 1.367188 94.636719 L 3.007812 93.269531 M 30.632812 11.234375 L 33.914062 7.679688 L 36.921875 6.585938 C 38.382812 6.222656 39.292969 5.675781 39.65625 4.945312 L 43.488281 0.0234375 L 44.035156 0.0234375 L 47.863281 0.570312 L 50.324219 1.664062 L 52.785156 1.664062 L 55.792969 1.390625 L 59.078125 4.125 L 62.085938 6.3125 C 64.089844 6.496094 66.550781 8.136719 69.46875 11.234375 L 30.632812 11.234375 M 126.90625 70.574219 C 127.636719 76.042969 125.171875 81.511719 119.519531 86.980469 L 10.121094 86.980469 C 11.03125 84.792969 12.214844 83.789062 13.675781 83.972656 L 14.496094 83.972656 L 14.496094 83.699219 C 16.867188 78.046875 20.511719 72.851562 25.4375 68.113281 L 126.359375 68.113281 L 126.90625 70.574219 M 98.460938 74.675781 L 99.828125 75.769531 L 103.109375 76.042969 L 103.65625 71.941406 L 94.359375 68.933594 L 94.90625 71.394531 L 97.367188 73.035156 L 98.460938 74.675781 M 70.289062 45.691406 L 82.871094 46.238281 C 93.996094 47.148438 103.292969 49.425781 110.769531 53.074219 L 122.804688 61.550781 L 34.1875 61.550781 L 35.828125 60.730469 C 32.910156 58.722656 30.542969 56.082031 28.71875 52.800781 L 25.164062 42.957031 L 73.847656 42.957031 L 70.289062 45.691406 M 72.753906 17.796875 L 73.847656 24.632812 L 72.480469 33.660156 L 72.207031 34.480469 L 73.027344 34.480469 L 74.667969 36.394531 L 24.890625 36.394531 L 25.164062 32.839844 L 22.699219 29.554688 C 21.605469 27.734375 21.515625 25.546875 22.425781 22.992188 C 20.96875 21.535156 20.332031 19.804688 20.511719 17.796875 L 72.753906 17.796875 "/>
</g>
</svg>