<svg xmlns="http://www.w3.org/2000/svg" xmlns:xlink="http://www.w3.org/1999/xlink" width="128pt" height="40pt" viewBox="0 0 128 40" version="1.1">
<g id="surface1">
<path d="M 72.359375 4.179688 L 71.164062 3.433594 L 18.328125 3.433594 L 16.984375 4.179688 L 16.386719 5.820312 L 16.386719 11.34375 L 16.984375 12.6875 L 18.328125 13.433594 L 18.777344 13.433594 L 18.777344 7.3125 L 19.375 5.671875 C 19.671875 4.976562 20.121094 4.625 20.714844 4.625 L 22.058594 4.625 L 23.402344 5.671875 L 23.703125 7.3125 L 23.703125 13.433594 L 27.878906 13.433594 L 27.878906 7.3125 L 28.476562 5.671875 L 29.820312 4.625 L 31.164062 4.625 L 32.65625 5.671875 L 33.105469 7.3125 L 33.105469 13.433594 L 37.132812 13.433594 L 37.132812 7.3125 L 37.730469 5.671875 L 38.925781 4.625 L 40.417969 4.625 L 41.613281 5.671875 L 42.207031 7.3125 L 42.207031 13.433594 L 46.238281 13.433594 L 46.238281 7.3125 L 46.835938 5.671875 L 48.179688 4.625 L 49.523438 4.625 L 50.867188 5.671875 L 51.460938 7.3125 L 51.460938 13.433594 L 55.492188 13.433594 L 55.492188 7.3125 L 55.941406 5.671875 C 56.238281 4.976562 56.6875 4.625 57.285156 4.625 L 58.777344 4.625 L 59.96875 5.671875 L 60.566406 7.3125 L 60.566406 13.433594 L 64.597656 13.433594 L 64.597656 7.3125 L 64.894531 5.671875 L 66.539062 4.625 L 67.730469 4.625 L 69.222656 5.671875 L 69.820312 7.3125 L 69.820312 13.433594 L 71.164062 13.433594 C 71.660156 13.433594 72.058594 13.183594 72.359375 12.6875 L 73.105469 11.34375 L 73.105469 5.820312 L 72.359375 4.179688 M 90.867188 0.894531 L 91.460938 2.386719 L 91.460938 5.820312 C 93.054688 5.820312 94.496094 6.46875 95.792969 7.761719 C 96.886719 9.351562 97.53125 11.09375 97.730469 12.984375 L 109.523438 12.984375 L 110.417969 13.433594 L 111.164062 14.777344 L 121.910156 14.777344 L 122.058594 11.792969 L 122.65625 10.597656 C 122.757812 10.296875 123.003906 10.148438 123.402344 10.148438 L 124.597656 10.597656 L 124.894531 11.792969 L 125.492188 28.65625 L 127.582031 32.539062 L 127.878906 33.730469 L 127.433594 34.625 L 126.238281 35.074219 L 125.34375 34.625 L 115.042969 22.539062 L 97.132812 22.539062 C 96.734375 22.539062 96.386719 22.386719 96.089844 22.089844 L 95.792969 20.894531 L 96.539062 19.550781 L 95.492188 19.550781 C 94.199219 20.746094 92.804688 21.34375 91.3125 21.34375 L 91.015625 21.34375 C 89.921875 22.835938 89.472656 23.980469 89.671875 24.777344 L 93.253906 30.597656 C 95.042969 34.078125 95.542969 36.515625 94.746094 37.910156 C 93.851562 39.304688 92.707031 39.949219 91.3125 39.851562 L 89.074219 39.105469 L 84.148438 28.058594 L 68.625 27.613281 L 68.625 30.449219 L 68.03125 32.238281 L 66.835938 32.6875 L 60.714844 32.6875 L 59.523438 32.238281 L 58.925781 30.449219 L 58.925781 27.015625 L 56.089844 27.015625 L 56.089844 29.851562 L 55.492188 31.492188 L 54.148438 32.539062 L 37.878906 32.539062 L 36.539062 31.492188 L 35.941406 29.851562 L 35.941406 27.015625 L 24.746094 27.015625 L 24.746094 31.34375 L 24.296875 32.984375 L 22.957031 33.730469 L 11.164062 33.730469 L 9.820312 32.984375 L 9.222656 31.34375 L 9.222656 21.34375 C 9.222656 20.449219 9.621094 19.75 10.417969 19.253906 L 10.269531 18.804688 L 10.269531 13.878906 L 1.910156 13.878906 L 0.566406 13.132812 L 0.121094 11.792969 L 0.121094 4.03125 L 0.566406 2.386719 L 1.910156 1.792969 L 10.417969 1.792969 L 11.164062 0.449219 L 12.359375 0 L 89.523438 0 L 90.867188 0.894531 "/>
</g>
</svg>