<svg xmlns="http://www.w3.org/2000/svg" xml:space="preserve" width="184.668" height="199.991" viewBox="0 0 48.86 52.914"><path d="M18.73 0c-.989 0-1.826.702-2.286 1.916-.263.694.05 3.638 1.584 14.914.18 1.325.25 2.614.154 2.864-.425 1.106-1.165.078-4.561-6.332-1.927-3.639-3.74-6.91-4.028-7.27-.773-.972-2.52-.93-3.39.08C4.967 7.61 5.272 8.62 9.877 18.39c2.737 5.805 3.51 7.746 3.763 9.438.205 1.359-.04 1.689-1.064 1.43-.351-.087-2.114-1.645-3.917-3.461-1.884-1.898-3.685-3.471-4.234-3.701-1.446-.604-2.653-.508-3.597.286-1.132.954-1.105 2.08.09 3.594.496.63 2.578 3.467 4.625 6.304 2.046 2.838 4.468 6.047 5.382 7.132 1.95 2.317 4.81 4.366 7.557 5.416 1.047.4 1.905.85 1.905 1.003 0 .272-1.682.164-3.242-.209l-.727-.174-.004 2.478c0 1.363-.07 2.725-.15 3.026-.128.476.056.609 1.393 1.009a28 28 0 0 0 2.861.678h.001c3.468.567 7.568.252 11.045-.848 1.453-.46 1.783-.667 1.773-1.108-.007-.3-.113-2.196-.236-4.215l-.224-3.672.885-1.752c1.595-3.162 2.139-6.103 2.575-13.924.073-1.305.434-2.339 2.032-5.82 4.657-10.143 4.823-10.69 3.593-11.92-.825-.823-2.011-.846-2.895-.053-.365.328-1.863 2.815-3.328 5.528s-2.838 5.078-3.052 5.255c-.718.596-1.272.099-1.114-.998.078-.542.57-3.878 1.093-7.412 1.164-7.873 1.18-8.486.252-9.414-1.12-1.12-3.12-.896-3.847.433-.178.324-.986 3.971-1.798 8.105-1.112 5.662-1.587 7.586-1.925 7.8-.312.197-.533.199-.726.007-.152-.153-.933-3.942-1.734-8.42-.8-4.48-1.634-8.486-1.85-8.904C20.554.37 19.9 0 18.73 0m20.053 29.095v18.81H48.86v-2.919h-6.485v-15.89Z"/></svg>