<svg xmlns="http://www.w3.org/2000/svg" xml:space="preserve" width="212.373" height="199.993" viewBox="0 0 56.19 52.915"><path d="M20.52 52.638a28 28 0 0 1-2.863-.678c-1.337-.4-1.52-.533-1.393-1.009.081-.301.15-1.663.151-3.026l.004-2.478.727.174c1.56.373 3.241.481 3.241.209 0-.152-.857-.603-1.904-1.003-2.748-1.05-5.607-3.099-7.558-5.416-.914-1.085-3.336-4.294-5.382-7.132-2.047-2.837-4.128-5.674-4.625-6.304-1.194-1.514-1.222-2.64-.09-3.594.944-.794 2.152-.89 3.598-.286.549.23 2.349 1.803 4.233 3.701 1.803 1.816 3.566 3.374 3.917 3.462 1.024.258 1.27-.072 1.065-1.431-.253-1.692-1.027-3.633-3.764-9.438-4.605-9.77-4.909-10.78-3.673-12.217.87-1.01 2.617-1.052 3.39-.08.288.36 2.1 3.631 4.027 7.27 3.396 6.41 4.136 7.438 4.561 6.332.096-.25.027-1.539-.154-2.864-1.534-11.276-1.847-14.22-1.584-14.914C16.904.702 17.742 0 18.73 0c1.171 0 1.825.37 2.309 1.306.216.418 1.049 4.425 1.85 8.904.801 4.478 1.581 8.267 1.733 8.42.193.192.414.19.726-.008.338-.213.813-2.137 1.925-7.799.812-4.134 1.621-7.781 1.799-8.105.727-1.329 2.726-1.554 3.846-.433.928.928.912 1.541-.252 9.414-.523 3.534-1.015 6.87-1.093 7.412-.158 1.097.397 1.594 1.115.998.214-.177 1.587-2.542 3.052-5.255s2.962-5.2 3.327-5.528c.884-.793 2.07-.77 2.895.054 1.23 1.23 1.064 1.776-3.593 11.919-1.598 3.481-1.959 4.515-2.032 5.82-.436 7.821-.98 10.762-2.575 13.924l-.884 1.752.223 3.672c.123 2.019.23 3.916.237 4.215.01.441-.32.648-1.773 1.108-3.478 1.1-7.578 1.415-11.046.848z"/><text xml:space="preserve" style="font-size:53.3333px;font-family:Futura-CondensedBold;-inkscape-font-specification:Futura-CondensedBold;white-space:pre;shape-inside:url(#rect1);fill:#000;fill-rule:evenodd;stroke-width:20.7874" transform="matrix(.61776 0 0 .61776 -201.56 -359.903)"><tspan x="390.98" y="666.329">R</tspan></text></svg>