<svg xmlns="http://www.w3.org/2000/svg" xml:space="preserve" width="179.184" height="155.029" viewBox="0 0 47.409 41.018"><defs><path id="a" d="M140.978 110.448h140.08v153.549h-140.08z"/></defs><path d="M2.452.007c-.28.03-.565.162-.84.41-.826.748-.589 1.6.877 3.15 1.596 1.688 2.347 1.874 2.337.58-.018-2.483-1.16-4.27-2.374-4.14m.136.852c.215.023.448.134.644.341.26.274.595 1.006.744 1.625.149.618.178 1.123.066 1.123-.357 0-2.12-2.099-2.12-2.522 0-.402.307-.605.666-.567m17.617.107c-.825.05-2.391.545-3.338 1.13-.845.522-1.981 2.186-1.981 2.9 0 .164.768.277 1.918.279 2.468.005 3.09.331 3.885 2.046h.002c.696 1.496 1.204 1.841.974.661-.078-.4-.28-2.053-.448-3.672-.17-1.619-.387-3.074-.485-3.232-.06-.096-.252-.129-.527-.112M32.11 3.654V22.44h3.617v-7.467h2.248q.983 0 1.473.749.465.75.465 2.196v1.292q0 .982.104 1.912.103.904.542 1.318h3.695v-.362q-.439-.413-.594-1.24a8.7 8.7 0 0 1-.155-1.602V17.89q0-1.756-.595-2.868-.594-1.137-2.015-1.628 1.37-.645 2.067-1.653.723-1.034.724-2.636 0-2.687-1.344-4.056-1.37-1.396-4.03-1.396ZM3.44 5.451l.169 1.697c.093.932.243 3.543.333 5.8.133 3.333.076 4.544-.298 6.43-.254 1.278-.416 2.355-.363 2.392s1.228.4 2.61.802c3.418 1 6.344 2.56 7.764 4.14 1.443 1.605 1.997 3.253 1.927 5.733-.052 1.854-.036 1.91.618 2.011h-.001c1.433.222 1.518.183 2.019-.94.676-1.517 2.387-3.348 3.68-3.938 1.316-.601 2.734-.62 4.773-.067 2.868.78 2.727.792 3.169-.267.534-1.276.797-3.927.452-4.543-.244-.436-.313-.392-.654.426-.464 1.11-1.111 1.688-1.657 1.478-.727-.279-.737-.953-.03-1.975.79-1.14.85-1.583.315-2.31-.366-.494-.426-.469-1.56.638-.883.862-1.312 1.109-1.712.982-.904-.287-.845-.822.233-2.127 1.115-1.35 1.142-1.414.807-1.944-.17-.266-.521-.092-1.468.728-1.318 1.14-1.705 1.273-2.218.76-.508-.508-.37-1.175.34-1.64.977-.64 1.61-1.702 1.236-2.075-.225-.225-.697-.112-1.867.448-1.734.83-2.408.762-2.408-.238 0-.51.248-.792 1.068-1.21 1.224-.625 2.188-1.5 1.995-1.815-.073-.116-.974-.031-2.004.19-1.73.371-1.906.368-2.321-.047-.786-.787-.117-1.385 2.089-1.869 1.046-.228 1.884-1.004 1.675-1.55-.15-.387-.532-.46-2.406-.46-1.82 0-2.26-.079-2.395-.433-.31-.806.294-1.282 1.73-1.367 1.203-.07 1.361-.148 1.361-.66-.002-.88-.965-2.28-1.784-2.593-.401-.152-3.985-.346-7.972-.432Zm32.288 1.123h2.378q1.006 0 1.498.75.465.722.465 2.067 0 1.29-.517 1.963-.542.672-1.576.672h-2.248ZM21.672 9.29a2.5 2.5 0 0 0-.37.052c-.4.08-1.173.221-1.72.315-.545.094-.991.277-.991.407.005.129.777.235 1.719.235 1.566 0 1.72-.05 1.72-.55 0-.345-.068-.469-.358-.459m.92 3.654c-.516 0-3.207 1.141-3.207 1.36 0 .318 1.082.285 2.082-.065.793-.276 1.678-1.295 1.125-1.295m1.175 2.646c-.483 0-3.06 1.592-3.06 1.892 0 .354.744.263 1.667-.204 1.512-.766 2.273-1.688 1.393-1.688m1.342 2.798c-.124-.013-.393.219-.952.763-.576.563-.984 1.125-.907 1.25.302.487 1.954-.98 1.954-1.736 0-.17-.021-.268-.095-.277m2.08 2.342c-.113.035-.317.215-.683.564-.45.428-.93.986-1.068 1.24-.392.722.282.577 1.142-.248.408-.39.742-.949.742-1.24 0-.237-.021-.35-.134-.316M2.804 22.446 2.2 24.64c-.72 2.612-1.015 6.211-.575 7.032.424.792 1.553 1.063 7.307 1.762 2.765.335 5.25.625 5.523.642.457.031.487-.147.384-2.3-.17-3.55-1.294-5.131-4.943-6.946-1.467-.73-4.675-1.857-6.277-2.207Zm26.92.816c-.284 0-1.346 1.642-1.346 2.082 0 .537.387.313.994-.579.624-.917.762-1.503.352-1.503m1.534 2.981c-.09-.049-.24.501-.337 1.221-.239 1.8-.657 2.907-1.212 3.204-.323.172-1.033.084-2.289-.285-1-.294-2.508-.548-3.351-.563-1.292-.024-1.706.093-2.646.751-1.047.733-3.072 3.328-3.09 3.96-.01.325 2.306.782 6.539 1.295 7.078.856 13.993.229 19.28-1.749 1.413-.529 1.425-.543 1.419-1.639-.008-1.528-.832-3.227-1.812-3.734-.576-.298-1.572-.414-3.544-.414-3.904 0-6.185-.52-8.957-2.047M.511 33.101a.16.16 0 0 0-.091.042c-.092.092-.223 1.648-.293 3.459L0 39.892l1.027.268a25 25 0 0 0 2.284.446c1.054.151 1.257.111 1.257-.247 0-.235.178-.427.397-.427a.39.39 0 0 1 .396.38c0 .23.339.422.86.487.473.058 1.003.125 1.178.148.175.024.442-.165.595-.42.265-.44.29-.44.556 0 .368.614 2.631.67 2.631.066 0-.218.124-.397.274-.397s.342.179.425.397c.114.296.583.397 1.843.397h1.693l.003-1.257c.007-2.109-.036-2.095 4.194-1.385 3.602.603 3.717.642 3.794 1.301.07.617.234.705 1.797.957 1.56.252 1.738.233 1.91-.198.253-.634.752-.605.924.052.12.46.362.53 1.828.53 1.325 0 1.688-.086 1.688-.397a.4.4 0 0 1 .397-.397.4.4 0 0 1 .398.397c0 .305.337.397 1.454.397 1.091 0 1.457-.096 1.457-.381 0-.604.533-.773.89-.283.463.632 2.82.296 3.01-.429.158-.6.492-.636.8-.086.355.635 2.708-.044 2.708-.78 0-.41.07-.458.316-.21.474.473 1.188.384 1.75-.219.29-.31.673-.469.915-.377.228.088.736-.052 1.13-.309.68-.446.707-.545.552-2.027-.09-.858-.227-1.662-.304-1.788-.078-.126-.572.063-1.098.42-1.155.785-4.225 1.782-7.246 2.355-5.183.984-11.242.773-19.167-.665-2.329-.423-6.911-1.067-10.186-1.433-5.904-.66-7.757-.996-8.407-1.526-.14-.113-.301-.169-.412-.151" style="font-size:100px;white-space:pre;shape-inside:url(#a);display:inline;fill:#000;stroke-width:15"/></svg>