<svg xmlns="http://www.w3.org/2000/svg" xml:space="preserve" width="453.405" height="385.463" viewBox="0 0 119.963 101.987"><path d="M83.993 30.035q-12.107-2.6-24.215-7.964-9.264-4.388-12.596-6.988l.732-10.402Q58.07 13.214 67.66 18.577q9.345 5.363 17.227 5.444l2.032-.081-.65 1.625zM42.144 5.494q-.975.812-2.031.487-1.138-.487-1.463-2.681-.081-.488-.406-.163L38 3.706q-.407 1.3-.244 2.194.406 3.088 2.113 3.332 1.462.244 2.519-1.3l.975-2.276q.325-1.381 0-2.438-.569-1.625-3.494-1.625-.488-.081-.732 1.544-.243 1.625.163 1.625 2.031 0 2.844.732m3.088-.488-.65 6.989-.65 9.588q-.244 5.526.65 9.59l2.194 9.67q.731 5.444-.569 9.913-1.219 3.982-6.582 5.282l-9.101.244q-4.713-10.89-4.713-25.11 0-11.051 6.5-23.484 1.544-3.17 5.445-7.232 5.038-5.364 6.663-2.276 1.138 2.113.813 6.826m-4.47 37.055q-.487 0-.73 1.625-.163 1.544.162 1.544 2.113 0 2.844.732-1.056.894-2.032.487-1.137-.569-1.462-2.681-.082-.65-.65.487-.488 1.22-.244 2.194.406 3.088 2.113 3.25 1.462.244 2.519-1.3l.975-2.194q.325-1.462 0-2.519-.569-1.625-3.494-1.625m9.1 5.77q1.057-3.495.245-8.208 18.608 3.332 30.147-.731l-1.787 3.657-1.788 2.844q-.569 1.137 1.056.812l-14.87 2.52q-5.851.65-13.165.243l-.243-.081zM64.49 93.337l-2.275.162-12.352.732-12.92-1.707q-9.67-2.438-9.102-6.988l2.52-21.29.893-6.339q10.564.325 15.683-5.038 5.282 9.426 12.596 14.22l4.794 1.95 3.9 1.545-3.087 14.058-1.3 4.794q-.65 3.494.65 3.82z"/></svg>