<svg xmlns="http://www.w3.org/2000/svg" xml:space="preserve" width="453.405" height="385.463" viewBox="0 0 119.963 101.987"><path d="M28.736 30.035q12.108-2.6 24.216-7.964 9.264-4.388 12.595-6.988L64.816 4.68q-10.158 8.533-19.747 13.896-9.345 5.363-17.227 5.444l-2.031-.081.65 1.625zm41.85-24.541q.975.812 2.03.487 1.139-.487 1.464-2.681.08-.488.406-.163l.244.569q.406 1.3.243 2.194-.406 3.088-2.112 3.332-1.463.243-2.52-1.3l-.975-2.276q-.325-1.381 0-2.438.57-1.625 3.495-1.625.487-.081.731 1.544t-.162 1.625q-2.032 0-2.845.732m-3.088-.488.65 6.989.65 9.588q.244 5.526-.65 9.59l-2.193 9.67q-.732 5.444.568 9.913 1.22 3.982 6.583 5.282l9.1.244q4.714-10.89 4.714-25.11 0-11.051-6.501-23.484-1.544-3.17-5.445-7.232-5.038-5.364-6.663-2.276-1.138 2.113-.813 6.826m4.47 37.055q.487 0 .731 1.625.163 1.544-.162 1.544-2.113 0-2.844.732 1.056.894 2.031.487 1.138-.569 1.463-2.681.081-.65.65.487.487 1.22.244 2.194-.407 3.088-2.113 3.25-1.463.244-2.52-1.3l-.974-2.194q-.325-1.462 0-2.519.568-1.625 3.494-1.625m-9.101 5.77q-1.057-3.495-.244-8.208-18.609 3.332-30.148-.731l1.788 3.657 1.788 2.844q.568 1.137-1.057.812l14.87 2.52q5.852.65 13.165.243l.244-.081zM48.239 93.337l2.275.162 12.352.732 12.92-1.707q9.67-2.438 9.101-6.988l-2.519-21.29-.894-6.339q-10.564.325-15.683-5.038-5.282 9.426-12.595 14.22L48.4 69.04l-3.9 1.545 3.088 14.058 1.3 4.794q.65 3.494-.65 3.82z"/></svg>