<svg xmlns="http://www.w3.org/2000/svg" xml:space="preserve" width="210mm" height="297mm" viewBox="0 0 210 297"><path fill="#fff" fill-rule="evenodd" d="M52.35 6.9q-5.8 5.8-6.35 11.05-.7 7.1 1.55 13.55 2.65 7.85 8.55 9.6l4.3.25q1.25-.05 1.4 1.1v2.7q.6 6.05-.75 14.3l-1 .25q-1.45.4-4.75 1.75-7.7 3.25-11.15 8.45-1.95 2.9-3.6 7.55l-2.7 7.9q-2 5.15-7.9 5.5h-.4q-6.15.25-8.9-4.55l-.95-1.75-2.6-5.35-3.25-7.25Q11.9 68 9.55 66q-2.9-1.65-2.95-1.85-1-4.1-2.1-10.5L2.65 43.1q-1.25-6.8-.2-11.9.45-2.1 2.7-6.65 2.05-4.15 2.3-6.8Q7.9 13.4 5.25 6q-.7-1.9 1.15-3.65 1.85-1.7 2.85.7 2.6 6.1 3.8 8.1 2.9 4.9 6.3 5.7 12.1 3 20.35-1.15l.35-.25q4.6-3.1 6.75-9.15l.9-3.5q.4-2.45 3.75-1.65 2.4.6 4.5 2.05l.65.25-.85.5z" style="fill:#000;fill-opacity:1" transform="translate(43.41 95.26)scale(1.58473)"/></svg>