<svg xmlns="http://www.w3.org/2000/svg" width="128pt" height="208" viewBox="0 0 128 156"><path d="m59.7 40.04-1.305-.259c-6.254-1.043-11.645-3.816-16.16-8.32q-4.956-5.202-7.04-11.441-.52-1.301-2.347 1.558L31.285 26q2.606 10.922 1.824 24.96c-.87 11.786-3.648 20.888-8.343 27.302l-6.254 6.5q-1.043 1.037-2.348 14.297l-.781 13q15.9 5.46 21.637 9.62 4.43 2.86 9.382 11.18l5.996 7.801q3.392 2.858 8.864 3.38h2.347V40.3h-1.304l-1.043-.26zm66.996-33.02-3.39 6.5q-4.95 7.02-13.035 11.18c-2.082.866-3.215 7.195-3.387 18.98q-.263 18.98 5.996 27.3 5.471 7.279 10.95 8.06l4.167-.52-4.168 42.378c-12.516 3.817-21.203 7.368-26.07 10.66l-9.645 13.262C83.074 151.578 76.207 155.31 67.52 156h-7.04c-8.687-.691-15.554-4.422-20.593-11.18q-5.994-10.919-9.645-13.261-4.434-3.118-15.64-7.278l-10.43-3.383L.004 78.52l2.605.78c3.825 0 7.993-2.773 12.512-8.32q6.259-8.32 5.996-27.3c-.172-11.785-1.305-18.114-3.387-18.98Q9.646 20.54 4.695 13.52l-3.39-6.5L41.973 0q5.996 4.94 4.691 16.379l2.867 5.2q4.171 5.461 10.95 6.5h1.562l.785.26h2.344l.785-.26h1.563q6.779-1.039 10.949-6.5l2.867-5.2V10.14C82.03 5.46 83.594 2.078 86.027 0z"/></svg>