<svg xmlns="http://www.w3.org/2000/svg" xml:space="preserve" width="359.455" height="538.514" viewBox="0 0 95.106 142.482"><path d="M137.285 86.666q-9.192 9.192-10.063 17.512-1.11 11.251 2.456 21.473 4.2 12.44 13.55 15.213l6.814.396q1.98-.079 2.218 1.744v4.278q.951 9.588-1.188 22.662l-1.585.396q-2.298.634-7.527 2.773-12.203 5.15-17.67 13.391-3.09 4.596-5.705 11.965l-4.279 12.52q-3.17 8.16-12.52 8.716h-.633q-9.746.396-14.104-7.211l-1.506-2.773-4.12-8.479-5.15-11.489q-3.09-6.26-6.815-9.429-4.595-2.615-4.675-2.932-1.584-6.497-3.328-16.64l-2.931-16.718q-1.981-10.777-.317-18.859.713-3.328 4.278-10.538 3.25-6.577 3.645-10.776.713-6.894-3.486-18.62-1.11-3.012 1.822-5.785 2.932-2.694 4.517 1.11 4.12 9.666 6.022 12.836 4.596 7.765 9.984 9.032 19.175 4.755 32.249-1.822l.555-.396q7.29-4.913 10.696-14.5l1.427-5.547q.634-3.883 5.942-2.615 3.804.951 7.132 3.249l1.03.396-1.347.792z" style="stroke-width:1.58473" transform="translate(-57.447 -77.242)"/></svg>