<?xml version="1.0" encoding="UTF-8" standalone="no"?>
<svg
   ffdec:objectType="shape"
   height="29.25px"
   width="32.7px"
   version="1.1"
   id="svg1"
   sodipodi:docname="power_armor_helmet.svg"
   inkscape:version="1.3.2 (091e20e, 2023-11-25)"
   xmlns:inkscape="http://www.inkscape.org/namespaces/inkscape"
   xmlns:sodipodi="http://sodipodi.sourceforge.net/DTD/sodipodi-0.dtd"
   xmlns="http://www.w3.org/2000/svg"
   xmlns:svg="http://www.w3.org/2000/svg"
   xmlns:ffdec="https://www.free-decompiler.com/flash">
  <path d="M 2.4507566,26.263166 C 1.7642788,26.210488 1.2697221,26.005685 1.0669443,25.690109 1.0131029,25.606317 0.86758945,25.331405 0.743581,25.079193 L 0.51811113,24.620626 0.32111135,23.669431 C 0.09897508,22.596867 0.00214697,21.794098 0.00115731,21.016799 2.3225103e-4,20.290233 0.11172742,19.790136 0.77788061,17.532904 1.5873934,14.789905 1.6775918,14.498221 2.085717,13.303618 c 0.4826478,-1.412735 0.5540482,-1.541605 1.1452686,-2.06709 0.4548033,-0.404236 0.6286441,-0.535321 0.8123112,-0.612527 0.128556,-0.05404 0.7738398,-0.23515 0.8422583,-0.236395 0.031807,-5.79e-4 0.04051,0.30625 0.04051,1.42814 v 1.428877 l 0.2299595,0.254676 0.2299597,0.254676 -0.647379,3.023756 c -0.6452747,3.013929 -0.6476159,3.026325 -0.720347,3.814196 -0.1182003,1.280422 -0.072556,1.456909 0.4169007,1.611983 0.1544442,0.04893 1.7396167,0.203822 2.1032203,0.205508 0.1114037,5.17e-4 0.2025521,0.01218 0.2025521,0.02591 0,0.01373 0.065535,0.783027 0.1456333,1.709539 0.080098,0.926513 0.145725,1.70164 0.1458374,1.722504 2.846e-4,0.05287 -0.032611,0.05812 -1.3771496,0.219487 -1.746018,0.209559 -2.3430967,0.242409 -3.2044959,0.176308 z" />
  <path d="M 11.650793,26.619775 C 11.490372,26.423206 11.336641,26.233525 11.30917,26.19826 11.25986,26.13497 11.25014,26.13482 10.552691,26.18676 10.164099,26.2157 9.8377907,26.23101 9.8275604,26.22078 9.81733,26.210541 9.7087706,25.060984 9.5863172,23.6662 9.3784343,21.298348 9.3645553,21.085111 9.3769609,20.449654 c 0.00731,-0.374317 0.022833,-0.702451 0.034502,-0.729188 0.011669,-0.02674 0.2262343,-0.162101 0.4768128,-0.30081 C 10.41928,19.125716 10.853748,18.83322 11.111422,18.5962 l 0.18288,-0.16822 v -0.512354 c 0,-0.481812 -0.0051,-0.523947 -0.08497,-0.706805 -0.07587,-0.173628 -0.105369,-0.205627 -0.275471,-0.298831 -0.104775,-0.05741 -0.302849,-0.142239 -0.440163,-0.18851 l -0.249662,-0.08413 -0.4631011,0.390713 -0.4631007,0.390713 -0.05232,-0.153591 C 9.1732396,16.994307 8.9870793,16.66289 8.8242607,16.479634 8.7371588,16.381598 8.5838414,16.184718 8.4835553,16.042121 8.3832692,15.899525 7.9855322,15.432845 7.5996952,15.005055 7.2138583,14.577265 6.8336266,14.141953 6.754736,14.037696 L 6.6112985,13.848137 v -3.139119 c 0,-2.4714036 0.00862,-3.1464114 0.04051,-3.1734039 C 6.7081535,7.4879272 7.1354618,7.2682399 7.8105729,6.9398716 8.1999564,6.7504786 8.2656378,6.7063096 8.4058136,6.5395882 8.4924727,6.4365187 8.656465,6.166419 8.7702409,5.9393669 8.9735474,5.5336471 8.9771063,5.5220206 8.9771063,5.2635496 8.9771063,4.9869776 8.8446755,4.445497 8.7147452,4.1908127 8.680798,4.1242706 8.653023,4.0251468 8.653023,3.9705378 c 0,-0.1979381 0.3929752,-0.994921 0.8391975,-1.701955 C 9.9807727,1.4944776 10.23463,1.2061614 10.76417,0.82397851 11.123949,0.564316 11.832838,0.21097417 11.995926,0.2100165 c 0.05972,-3.5069e-4 0.225254,-0.0217175 0.36785,-0.0474818 0.142597,-0.0257643 0.361353,-0.0476146 0.486125,-0.0485562 0.124772,-9.4158e-4 0.365404,-0.02306441 0.534738,-0.04916185 0.169333,-0.02609743 0.35667,-0.04771147 0.416305,-0.04803119 0.148213,-7.946e-4 0.290494,0.10925282 0.364514,0.28193297 0.05984,0.13959672 0.0618,0.29222769 0.0618,4.81403137 v 4.6698641 l 0.380528,0.6100061 0.380527,0.610007 h 0.397272 0.397273 v 0.972249 0.97225 h -0.43859 c -0.398685,0 -0.452498,-0.0071 -0.591452,-0.07768 -0.345401,-0.175531 -3.170725,-1.745431 -3.217802,-1.787982 -0.06664,-0.06024 -0.341631,-0.142855 -0.476961,-0.1433 -0.108373,-3.57e-4 -0.363302,0.109367 -0.363302,0.156369 0,0.01417 -0.157414,0.195619 -0.349808,0.403213 -0.339882,0.366735 -0.3546017,0.38892 -0.5188225,0.781927 -0.092959,0.222466 -0.1957399,0.517737 -0.2284022,0.656157 -0.055059,0.233337 -0.055668,0.2633 -0.00836,0.411245 0.048443,0.151486 0.1037366,0.204724 1.0913467,1.05079 0.765895,0.656126 1.081616,0.906895 1.196877,0.950647 0.08611,0.03269 0.303645,0.08292 0.483418,0.111626 0.179773,0.02871 0.399319,0.06426 0.487881,0.07899 0.277427,0.04617 0.671617,-0.08262 1.637641,-0.535036 l 0.46992,-0.220078 0.413207,-0.01427 0.413206,-0.01427 v 4.249886 c 0,4.191694 -8.58e-4,4.249426 -0.06269,4.216337 -0.184182,-0.09857 -0.710416,0.07436 -1.28226,0.421384 -0.587991,0.356819 -0.909809,0.763399 -1.167941,1.475558 -0.155007,0.427646 -0.292371,0.963701 -0.356537,1.391363 -0.0107,0.0713 -0.03405,0.206198 -0.05189,0.299777 l -0.03244,0.170143 -0.443317,-0.0014 -0.443317,-0.0014 z m 1.023082,-6.757109 c 0.193241,-0.05736 0.564625,-0.251458 0.75092,-0.392458 0.208168,-0.157553 0.428367,-0.485682 0.48898,-0.728652 0.125005,-0.501082 0.03375,-0.810716 -0.267293,-0.906987 -0.31535,-0.100845 -0.755003,0.05176 -1.06074,0.368182 -0.313609,0.32457 -0.562253,0.820629 -0.562253,1.121724 0,0.209847 0.123079,0.406835 0.317408,0.508016 0.08388,0.04367 0.153511,0.08009 0.154733,0.08092 0.0012,8.3e-4 0.08143,-0.022 0.178245,-0.05074 z M 12.803586,9.4097969 c 0.166453,-0.027489 0.293603,-0.076933 0.485969,-0.1889758 0.224972,-0.1310343 0.285157,-0.1865025 0.44095,-0.4063943 C 13.892839,8.5853022 13.91595,8.531415 13.96108,8.2768051 14.00649,8.0205988 14.00641,7.9652315 13.960243,7.6914654 13.886263,7.2527986 13.735128,6.9920448 13.441353,6.7962201 l -0.218756,-0.1458187 -5e-5,-1.4779263 C 13.222501,3.83033 13.21729,3.6841315 13.165832,3.5811573 13.085967,3.4213376 12.960537,3.3667668 12.806333,3.4247505 c -0.230939,0.086837 -0.231795,0.092871 -0.231852,1.6332059 l -5.1e-5,1.3634072 -0.330896,0.078114 c -0.456144,0.1076808 -0.726835,0.2849874 -0.976967,0.639927 -0.163004,0.2313027 -0.183369,0.2799787 -0.2303,0.5504713 -0.04715,0.2717311 -0.0471,0.3207189 6.07e-4,0.581453 0.04635,0.2533203 0.07161,0.312484 0.229089,0.5364401 0.36341,0.5168237 0.864815,0.7131394 1.537623,0.6020279 z" />
  <path d="m 5.7142356,13.207972 c -0.051206,-0.0219 -0.076204,-0.06865 -0.090827,-0.16984 -0.011097,-0.07679 -0.015764,-1.048638 -0.01037,-2.159663 0.00959,-1.9763955 0.011207,-2.0210922 0.074623,-2.0685526 0.084588,-0.063306 0.4600939,-0.046163 0.5044383,0.02303 0.036378,0.056762 0.025718,4.3240456 -0.010893,4.3606376 -0.037967,0.03795 -0.3867697,0.0487 -0.4669705,0.01439 z" />
  <path d="M 6.2584472,6.6735046 C 5.7290013,6.531119 5.2503259,6.0709527 5.0557307,5.5172947 4.9091403,5.1002187 4.9430883,4.5927598 5.1445152,4.1901311 5.3045625,3.8702154 5.6787285,3.4991502 6.0001421,3.3415952 6.9687003,2.8668136 8.1634457,3.4045142 8.4716861,4.4539249 8.5383225,4.68079 8.5394428,5.1911032 8.4738571,5.4429038 8.4023932,5.717272 8.2170711,6.0495369 8.032635,6.233973 7.8459852,6.4206228 7.5208544,6.6005311 7.2385828,6.6733546 6.9913466,6.737139 6.4953475,6.7372152 6.2584472,6.6735046 Z" />
  <path d="M 7.9850408,19.723553 C 7.9295807,19.689734 7.854001,19.619648 7.8170858,19.567805 7.7801706,19.515962 7.4150624,18.860036 7.0057343,18.110191 6.5964062,17.360346 6.2387358,16.712092 6.2109114,16.669627 6.1830869,16.627161 6.1155066,16.48374 6.0607328,16.350912 5.866618,15.880179 5.9000213,15.453328 6.1611018,15.068326 6.3120736,14.845696 6.4495577,14.761992 6.6642579,14.761992 h 0.1284048 l 0.8767913,1.677826 c 0.4822352,0.922804 0.8965311,1.732415 0.9206576,1.799135 0.024126,0.06672 0.054032,0.117451 0.066456,0.112735 0.012425,-0.0047 0.3329961,-0.278375 0.7123815,-0.60813 0.3793851,-0.329754 0.7139229,-0.616999 0.7434179,-0.638322 0.04209,-0.03043 0.09441,-0.02812 0.243275,0.01076 0.323951,0.0846 0.417687,0.158052 0.530986,0.416108 0.117865,0.268456 0.128674,0.465877 0.03672,0.67059 -0.118315,0.263387 -0.207353,0.326995 -1.2656633,0.904173 -0.5614742,0.306216 -1.0509697,0.58413 -1.0877677,0.617588 -0.094086,0.08555 -0.4439921,0.08501 -0.5848726,-8.98e-4 z" />
  <path d="M 8.4872488,26.2308 7.5616748,25.841766 7.3883729,24.078041 c -0.095316,-0.970049 -0.1669592,-1.769691 -0.159207,-1.776982 0.053407,-0.05023 1.6890823,-1.062246 1.6996981,-1.05163 0.016769,0.01677 0.5080984,5.346266 0.49416,5.360204 -0.00561,0.0056 -0.4267095,-0.164864 -0.9357752,-0.378833 z" />
  <path d="m 19.660253,26.923217 c -0.02995,-0.106354 -0.0537,-0.25096 -0.101878,-0.62025 -0.09227,-0.707205 -0.382798,-1.488535 -0.737127,-1.982373 -0.336753,-0.469343 -0.734883,-0.755174 -1.400726,-1.005629 -0.288176,-0.108396 -0.384776,-0.13088 -0.510431,-0.118806 l -0.154987,0.01489 V 18.98652 14.76199 h 0.325305 c 0.291835,0 0.354401,0.01124 0.608088,0.109211 0.15553,0.06007 0.403608,0.169961 0.551285,0.244211 0.302972,0.152332 0.807451,0.342243 1.078509,0.406006 0.161459,0.03798 0.235521,0.03448 0.680575,-0.03212 0.526291,-0.07877 0.747288,-0.153015 1.030707,-0.34628 0.0821,-0.05598 0.499297,-0.395501 0.927111,-0.754484 0.684822,-0.574643 0.788831,-0.674415 0.869725,-0.8343 0.05053,-0.09988 0.0994,-0.237661 0.108591,-0.306177 0.02346,-0.174916 -0.06675,-0.511184 -0.258978,-0.9653 -0.163689,-0.386705 -0.345084,-0.646595 -0.765342,-1.096526 -0.297217,-0.318204 -0.588162,-0.324528 -1.055751,-0.02295 -0.248598,0.160337 -2.713954,1.53076 -3.013231,1.674971 -0.221536,0.106751 -0.234341,0.108875 -0.656269,0.108875 h -0.430325 v -0.97225 -0.972249 l 0.380798,-5.59e-4 0.380798,-5.58e-4 0.380798,-0.611912 0.380798,-0.6119128 V 5.0953524 c 0,-3.9936752 0.0068,-4.69840583 0.04647,-4.79161755 0.02844,-0.0668746 0.103428,-0.14472978 0.193244,-0.20062102 l 0.146776,-0.09133612 0.99184,0.10017573 0.99184,0.10017573 0.686496,0.39149683 c 0.624679,0.3562436 0.713634,0.4181907 0.987874,0.6879394 0.243146,0.2391655 0.369454,0.4028926 0.653714,0.8473841 0.319707,0.4999203 0.584304,0.941604 0.584304,0.9753631 0,0.0072 -0.05583,0.013091 -0.124076,0.013091 -0.06824,0 -0.387748,0.036716 -0.710013,0.081592 l -0.585937,0.081592 -0.474989,0.2505938 C 21.198596,3.7876879 21.18515,3.7978541 20.841409,4.164471 20.518045,4.5093562 20.472566,4.5746505 20.231936,5.0394958 l -0.260034,0.502329 -0.0916,0.529076 -0.0916,0.5290759 0.09988,0.5272174 c 0.09852,0.5200233 0.103288,0.5337068 0.349731,1.0028393 0.223233,0.4249503 0.286643,0.5154107 0.595193,0.8490914 0.343948,0.371962 0.347304,0.3744989 0.831467,0.6284567 l 0.486125,0.2549874 0.547789,0.073674 0.547789,0.073675 0.537889,-0.074666 0.537891,-0.074666 0.437512,-0.2191791 c 0.396038,-0.1984022 0.470477,-0.250262 0.78526,-0.5470668 0.19126,-0.1803381 0.355328,-0.3278874 0.364593,-0.3278874 0.0093,0 0.01685,1.1537909 0.01685,2.5639794 v 2.563979 l -0.236741,0.247443 c -0.435254,0.45493 -1.043782,1.149875 -1.465324,1.673409 -0.229632,0.285193 -0.488409,0.597269 -0.575058,0.693501 -0.167095,0.185574 -0.356418,0.527803 -0.396239,0.716261 -0.01318,0.06239 -0.03397,0.13194 -0.04619,0.154564 -0.01507,0.0279 -0.196882,-0.109892 -0.565076,-0.42827 -0.608888,-0.526506 -0.532281,-0.497055 -0.966721,-0.371642 -0.247999,0.07159 -0.325621,0.138535 -0.55918,0.482256 l -0.159937,0.235373 -0.0138,0.441882 c -0.01758,0.563018 0.02623,0.737898 0.236553,0.944316 0.08919,0.08753 0.472586,0.333283 0.996083,0.638475 0.468097,0.272894 0.871133,0.508602 0.895635,0.523796 0.02702,0.01676 0.05811,0.137046 0.07901,0.305747 0.03098,0.250086 0.0096,0.569359 -0.212359,3.167432 -0.135748,1.589121 -0.253207,2.895702 -0.261019,2.903514 -0.0078,0.0078 -0.333003,-0.0089 -0.722646,-0.03713 -0.597179,-0.04327 -0.713654,-0.0444 -0.741625,-0.0072 -0.01825,0.02429 -0.162895,0.214623 -0.321433,0.422961 l -0.288251,0.378798 H 20.13928 c -0.413319,0 -0.464774,-0.0061 -0.479027,-0.05671 z m 0.652929,-7.085856 c 0.283464,-0.143643 0.366424,-0.445019 0.248146,-0.901468 -0.119448,-0.460961 -0.764886,-1.049263 -1.231439,-1.122425 -0.254348,-0.03989 -0.440542,0.0224 -0.550438,0.184122 -0.147857,0.217592 -0.09239,0.795745 0.104215,1.086246 0.240366,0.355165 0.617315,0.631724 1.047454,0.768492 0.23085,0.0734 0.205732,0.07439 0.382062,-0.01497 z" />
  <path d="m 15.771103,29.164213 c -0.369145,-0.06722 -0.456313,-0.09658 -0.761596,-0.256527 -0.300882,-0.157641 -0.382961,-0.220347 -0.64518,-0.492898 -0.253393,-0.263379 -0.332623,-0.37353 -0.505967,-0.703424 -0.19285,-0.36702 -0.210051,-0.417866 -0.278891,-0.824376 -0.113938,-0.672823 -0.06294,-0.968131 0.275549,-1.595573 0.161856,-0.300026 0.277008,-0.463755 0.48481,-0.689329 0.24385,-0.264703 0.311585,-0.316606 0.643548,-0.493125 0.343644,-0.182731 0.402418,-0.202717 0.796754,-0.27094 l 0.425741,-0.07366 0.444761,0.07328 c 0.418943,0.06903 0.465627,0.08443 0.804248,0.265263 0.311783,0.166504 0.402743,0.235739 0.685452,0.52174 0.30181,0.305324 0.338068,0.356176 0.489311,0.686251 0.133515,0.291385 0.176495,0.432336 0.235336,0.771772 l 0.07199,0.41528 -0.07457,0.426939 c -0.06499,0.37208 -0.09847,0.47696 -0.260565,0.816236 -0.171044,0.35801 -0.2091,0.41186 -0.473519,0.670022 -0.23383,0.228298 -0.356712,0.317614 -0.657989,0.478256 -0.339877,0.181224 -0.402754,0.202894 -0.761595,0.26248 -0.215124,0.03572 -0.420301,0.07019 -0.455951,0.07659 -0.03565,0.0064 -0.252401,-0.02252 -0.481672,-0.06426 z m 0.674013,-0.336205 0.08313,-0.03161 v -0.664033 c 0,-0.757693 0.01042,-0.73113 -0.286894,-0.73113 -0.281099,0 -0.264047,-0.04616 -0.264047,0.714841 0,0.609141 0.0056,0.678742 0.05671,0.70853 0.0727,0.04235 0.303638,0.04425 0.411097,0.0034 z m -1.141563,-0.966229 c 0.245791,-0.245792 0.446893,-0.468921 0.446893,-0.495842 0,-0.02692 -0.03972,-0.110202 -0.08826,-0.185069 -0.08242,-0.127117 -0.09797,-0.136073 -0.23496,-0.135409 -0.14623,7.1e-4 -0.147941,0.0021 -0.535598,0.421436 -0.213895,0.231398 -0.402794,0.451464 -0.419775,0.489035 -0.02616,0.05787 -0.0079,0.09005 0.119645,0.210527 0.08279,0.07822 0.176314,0.142216 0.207841,0.142216 0.03153,0 0.258424,-0.201102 0.504216,-0.446894 z m 2.574496,0.304727 c 0.131477,-0.131477 0.139564,-0.149144 0.107547,-0.23496 -0.01904,-0.05104 -0.212323,-0.271445 -0.429517,-0.489796 -0.35359,-0.355474 -0.406652,-0.397002 -0.507271,-0.397002 -0.149255,0 -0.326112,0.164455 -0.326112,0.303244 0,0.07934 0.06919,0.166328 0.397002,0.499164 0.519727,0.527688 0.541039,0.536663 0.758351,0.31935 z m -2.229298,-2.235087 c 0.03756,-0.03998 0.07772,-0.119845 0.08925,-0.177477 0.01999,-0.09994 0.0017,-0.124333 -0.396503,-0.52766 -0.229604,-0.23258 -0.443533,-0.437103 -0.4754,-0.454495 -0.08816,-0.04812 -0.156972,-0.0079 -0.293724,0.171663 l -0.124804,0.163879 0.12604,0.134195 c 0.822608,0.875831 0.782131,0.840925 0.919571,0.793013 0.04801,-0.01674 0.118014,-0.06314 0.155573,-0.103118 z m 1.940868,-0.353275 c 0.236176,-0.239062 0.42941,-0.447731 0.42941,-0.46371 0,-0.05515 -0.210803,-0.338756 -0.264613,-0.356002 -0.119041,-0.03815 -0.230837,0.0403 -0.624736,0.438395 -0.397747,0.401985 -0.410935,0.419755 -0.401026,0.540336 0.0089,0.108445 0.03068,0.138337 0.167167,0.229553 0.114562,0.07656 0.171425,0.09694 0.210654,0.07548 0.02955,-0.01617 0.246968,-0.224989 0.483144,-0.46405 z m -1.124059,0.0395 c 0.05884,-0.03149 0.06269,-0.07422 0.06269,-0.695638 0,-0.621421 -0.0038,-0.664151 -0.06269,-0.695639 -0.0861,-0.04608 -0.401695,-0.04233 -0.449365,0.0053 -0.0567,0.0567 -0.05517,1.375106 0.0016,1.398021 0.07477,0.03017 0.384404,0.02181 0.447745,-0.01209 z" />
  <path d="m 23.217651,26.55462 c 0.0091,-0.04236 0.121433,-1.243718 0.249585,-2.669684 0.128152,-1.425966 0.243213,-2.60434 0.25569,-2.618609 0.01989,-0.02275 1.57518,0.930077 1.674912,1.026108 0.02944,0.02834 -0.0019,0.441761 -0.135051,1.782647 -0.09536,0.960159 -0.18552,1.756434 -0.200365,1.769499 -0.02149,0.01891 -1.571183,0.67624 -1.802992,0.764769 -0.04832,0.01845 -0.05551,0.009 -0.04178,-0.05473 z" />
  <path d="m 29.540189,26.27811 c -0.576696,-0.02482 -1.440251,-0.0817 -1.915985,-0.126214 -0.647557,-0.06059 -2.021644,-0.230654 -2.043968,-0.252978 -0.0091,-0.0091 0.06125,-0.797714 0.156287,-1.752531 l 0.172787,-1.73603 0.195023,2.14e-4 c 0.28219,3.1e-4 1.719018,-0.123396 1.928869,-0.166068 0.09803,-0.01994 0.255097,-0.06485 0.349027,-0.0998 0.140557,-0.05231 0.179737,-0.08461 0.221384,-0.182522 0.111132,-0.261269 0.116133,-0.465239 0.03311,-1.350481 l -0.07903,-0.842616 -0.620428,-2.884341 C 27.59603,15.298355 27.304604,13.945889 27.28965,13.879263 27.26324,13.761609 27.26889,13.750927 27.485788,13.50803 l 0.223326,-0.250093 V 11.80983 10.361723 l 0.330257,0.09642 c 0.181642,0.05303 0.484255,0.174095 0.672473,0.269028 0.289446,0.145991 0.396428,0.223893 0.693793,0.505203 0.379637,0.35914 0.572071,0.596167 0.677366,0.834328 0.03678,0.08318 0.09287,0.187699 0.124662,0.232261 0.03179,0.04456 0.560757,1.685233 1.175488,3.645936 1.091428,3.481148 1.119296,3.57672 1.185962,4.067245 0.109041,0.80233 0.12888,1.441616 0.06537,2.106541 -0.04804,0.502929 -0.08226,0.676026 -0.302212,1.528744 -0.264473,1.025295 -0.439143,1.518648 -0.687903,1.942964 -0.133332,0.227429 -0.174679,0.27071 -0.365663,0.382766 -0.385196,0.226007 -1.013212,0.336168 -1.738523,0.304954 z" />
  <path d="m 23.674282,19.693207 c -0.414356,-0.215712 -0.907348,-0.49097 -1.247721,-0.696654 -0.43255,-0.261387 -0.992608,-0.663994 -1.02169,-0.734461 -0.01103,-0.02674 -0.02836,-0.146347 -0.03849,-0.265799 -0.01472,-0.173429 -0.0035,-0.263573 0.0556,-0.447423 0.06935,-0.215677 0.08351,-0.235037 0.223868,-0.306164 0.08241,-0.04176 0.215219,-0.09286 0.295131,-0.11355 0.07991,-0.02069 0.169589,-0.04464 0.199281,-0.05321 0.03615,-0.01044 0.302468,0.200241 0.805997,0.637611 0.731086,0.635028 0.806166,0.684544 0.80855,0.533239 2.73e-4,-0.01733 0.405195,-0.80826 0.899827,-1.757627 l 0.899331,-1.726122 0.126845,-5.25e-4 c 0.221447,-9.16e-4 0.365141,0.08839 0.519283,0.322728 0.326856,0.496915 0.316132,1.142233 -0.02646,1.592458 -0.05952,0.07822 -0.425207,0.718276 -0.812637,1.422347 -0.810113,1.472208 -0.866859,1.563677 -1.013437,1.633575 -0.168905,0.08055 -0.476375,0.06209 -0.673274,-0.04042 z" />
  <path d="m 26.373191,13.216638 c -0.03086,-0.0081 -0.07061,-0.06797 -0.08894,-0.133976 -0.04398,-0.158357 -0.04555,-3.9991873 -0.0017,-4.1521036 0.03992,-0.1392077 0.07798,-0.1631005 0.259859,-0.1631675 0.234117,-8.62e-5 0.286961,0.025511 0.323385,0.1566454 0.04431,0.1595096 0.04439,3.9973777 8.9e-5,4.1568597 -0.02645,0.09523 -0.05182,0.121399 -0.133504,0.137735 -0.10997,0.022 -0.27121,0.0211 -0.359198,-0.002 z" />
  <path d="M 22.831666,7.8801152 C 22.449973,7.7540184 22.160568,7.5027049 21.995308,7.1538382 21.896821,6.9459293 21.891824,6.9166048 21.891824,6.5464818 c 0,-0.3542257 0.0078,-0.4054461 0.08698,-0.5744792 0.255132,-0.5443579 0.746519,-0.8315309 1.360986,-0.7953786 0.40471,0.023811 0.608103,0.1141255 0.888511,0.394533 0.280407,0.2804075 0.370721,0.4838003 0.394533,0.8885103 0.03617,0.614782 -0.252663,1.1086318 -0.795379,1.3599428 -0.157389,0.072881 -0.23727,0.087256 -0.525867,0.094633 -0.217688,0.00556 -0.386992,-0.00673 -0.46992,-0.034128 z" />
  <path d="M 22.739618,9.350373 C 22.501963,9.307281 22.139653,9.1911749 21.957458,9.0997215 21.581769,8.9111427 21.157066,8.5356326 20.904825,8.1690124 20.278503,7.2586846 20.254423,5.9425274 20.84776,5.05002 c 0.187924,-0.2826768 0.724373,-0.8052595 0.980864,-0.9555091 0.803474,-0.4706663 1.839827,-0.5068434 2.686525,-0.093781 0.555991,0.2712407 1.038356,0.7591541 1.29929,1.3142359 0.209916,0.4465528 0.258724,0.6890241 0.254419,1.2639247 -0.0041,0.553834 -0.0617,0.8325881 -0.257026,1.2448443 -0.343003,0.7239538 -0.921857,1.2104565 -1.722834,1.4479703 -0.233806,0.069331 -0.366691,0.086566 -0.738799,0.095823 -0.249544,0.00621 -0.524306,-0.00151 -0.610581,-0.017155 z M 23.79528,8.5418022 c 0.486683,-0.1244726 0.864336,-0.3768084 1.102923,-0.7369401 0.261276,-0.3943776 0.351828,-0.7103283 0.350259,-1.2221085 -0.0019,-0.6057168 -0.1582,-0.9910851 -0.56735,-1.3984555 -0.435182,-0.4332882 -0.966685,-0.6315788 -1.572883,-0.5868027 -0.530962,0.039219 -0.861247,0.1964819 -1.265278,0.6024551 -0.434655,0.436743 -0.591392,0.8001137 -0.594797,1.3789396 -0.001,0.1782458 0.01733,0.4042939 0.04085,0.5023291 0.129249,0.5388322 0.553551,1.0825168 1.035374,1.3266893 0.384719,0.1949633 1.009687,0.2518532 1.470903,0.1338937 z" />
  <path d="m 15.144087,10.5084 c -0.01702,-0.02228 -0.120775,-0.202 -0.230568,-0.399376 L 14.713897,9.7501589 14.612921,4.9777231 14.511945,0.20528723 l 0.09058,-0.0945415 0.09058,-0.09454154 h 1.527269 1.527269 l 0.09237,0.09641496 c 0.09131,0.0953057 0.09178,0.0978225 0.04087,0.21875621 -0.04548,0.10803866 -0.057,0.66602891 -0.09854,4.77293594 l -0.04704,4.6505948 -0.222727,0.3963929 -0.222726,0.396393 -1.057405,6.09e-4 c -0.808403,4.65e-4 -1.064691,-0.0089 -1.08835,-0.0399 z" />
</svg>
