<?xml version="1.0" encoding="UTF-8" standalone="no"?>
<!-- Created with Inkscape (http://www.inkscape.org/) -->

<svg
   width="43.872257mm"
   height="25.630995mm"
   viewBox="0 0 43.872257 25.630995"
   version="1.1"
   id="svg1"
   xml:space="preserve"
   xmlns:inkscape="http://www.inkscape.org/namespaces/inkscape"
   xmlns:sodipodi="http://sodipodi.sourceforge.net/DTD/sodipodi-0.dtd"
   xmlns="http://www.w3.org/2000/svg"
   xmlns:svg="http://www.w3.org/2000/svg"><sodipodi:namedview
     id="namedview1"
     pagecolor="#ffffff"
     bordercolor="#000000"
     borderopacity="0.25"
     inkscape:showpageshadow="2"
     inkscape:pageopacity="0.0"
     inkscape:pagecheckerboard="0"
     inkscape:deskcolor="#d1d1d1"
     inkscape:document-units="mm" /><defs
     id="defs1" /><g
     inkscape:label="Слой 1"
     inkscape:groupmode="layer"
     id="layer1"
     transform="translate(-82.434244,-149.62808)"><path
       id="rect758"
       style="display:inline;fill:#000000;fill-opacity:1;fill-rule:evenodd;stroke-width:5.5"
       inkscape:label="frame"
       d="m 85.572038,149.62808 c -1.738483,0 -3.137793,1.39982 -3.137793,3.13831 v 19.35437 c 0,1.73848 1.39931,3.13831 3.137793,3.13831 h 37.596672 c 1.73848,0 3.13779,-1.39983 3.13779,-3.13831 v -19.35437 c 0,-1.73849 -1.39931,-3.13831 -3.13779,-3.13831 z m -0.02067,1.69757 a 1.4694887,1.4694887 0 0 1 1.469678,1.46967 1.4694887,1.4694887 0 0 1 -1.469678,1.46968 1.4694887,1.4694887 0 0 1 -1.469678,-1.46968 1.4694887,1.4694887 0 0 1 1.469678,-1.46967 z m 37.462312,0.0749 a 1.4694887,1.4694887 0 0 1 1.46916,1.46968 1.4694887,1.4694887 0 0 1 -1.46916,1.46916 1.4694887,1.4694887 0 0 1 -1.46968,-1.46916 1.4694887,1.4694887 0 0 1 1.46968,-1.46968 z m -6.00842,2.80654 c 0.70108,0 1.32266,0.19155 1.865,0.57516 0.52912,0.38361 0.94581,0.86005 1.25006,1.42886 0.29101,0.55557 0.5359,1.21022 0.73432,1.96422 0.18519,0.75399 0.31058,1.44172 0.37672,2.06344 0.0529,0.62171 0.0796,1.2438 0.0796,1.86552 0,0.62171 -0.0267,1.24328 -0.0796,1.865 -0.0661,0.63494 -0.19153,1.32267 -0.37672,2.06344 -0.19842,0.75399 -0.44331,1.41557 -0.73432,1.98437 -0.30425,0.55558 -0.72094,1.02509 -1.25006,1.4087 -0.54234,0.39684 -1.16392,0.59532 -1.865,0.59532 -0.70108,0 -1.32317,-0.19848 -1.86552,-0.59532 -0.52912,-0.38361 -0.94581,-0.85312 -1.25005,-1.4087 -0.29102,-0.5688 -0.52898,-1.23038 -0.71417,-1.98437 -0.19842,-0.74077 -0.32381,-1.4285 -0.37672,-2.06344 -0.0661,-0.62172 -0.0992,-1.24329 -0.0992,-1.865 0,-0.62172 0.0331,-1.24381 0.0992,-1.86552 0.0529,-0.62172 0.1783,-1.30945 0.37672,-2.06344 0.18519,-0.754 0.42315,-1.40865 0.71417,-1.96422 0.30424,-0.56881 0.72093,-1.04525 1.25005,-1.42886 0.54235,-0.38361 1.16444,-0.57516 1.86552,-0.57516 z m -29.505174,0.23823 h 7.797974 v 2.85719 h -2.400887 v 12.46074 h -3.03599 v -12.46074 h -2.361097 z m 18.750794,0 h 2.93625 c -0.97887,1.99743 -1.95738,3.98805 -2.93625,5.97225 l 0.0398,0.0398 c 0.62171,-0.55558 1.26303,-0.83354 1.92443,-0.83354 0.52912,0 1.00556,0.15898 1.42885,0.47646 0.4233,0.31747 0.74716,0.72723 0.97204,1.22989 0.2381,0.48944 0.4099,0.99896 0.51573,1.52808 0.10582,0.51589 0.15864,1.02489 0.15864,1.52755 0,0.72754 -0.0726,1.40886 -0.21807,2.0438 -0.14551,0.63495 -0.37706,1.23037 -0.69453,1.78594 -0.3307,0.54235 -0.78047,0.97878 -1.34927,1.30948 -0.58203,0.3307 -1.25643,0.4961 -2.02365,0.4961 -0.72754,0 -1.36937,-0.15206 -1.92495,-0.45631 -0.55557,-0.31747 -0.99201,-0.73416 -1.30948,-1.25005 -0.31747,-0.51589 -0.55543,-1.08464 -0.71417,-1.70635 -0.15873,-0.62172 -0.23823,-1.2833 -0.23823,-1.98438 0,-1.25666 0.18514,-2.45391 0.55553,-3.59151 0.35715,-1.12438 0.89975,-2.45343 1.62729,-3.98787 0.41006,-0.85982 0.82675,-1.72628 1.25005,-2.59933 z m 10.75438,2.51975 c -0.8995,0 -1.34927,1.50136 -1.34927,4.50411 v 0.39688 0.23823 c 0,1.91805 0.10565,3.24069 0.31729,3.96823 0.23811,0.76722 0.58223,1.15724 1.03198,1.17047 0.91273,0 1.36891,-1.54726 1.36891,-4.64261 v -0.25838 -0.23771 c 0,-1.90483 -0.11257,-3.22106 -0.33745,-3.9486 -0.22487,-0.79368 -0.56848,-1.19062 -1.03146,-1.19062 z m -20.715012,4.74234 h 5.079272 v 2.69855 h -5.079272 z m 10.833442,0.59531 c -0.34392,0 -0.6283,0.17822 -0.85317,0.53537 -0.21165,0.35716 -0.35038,0.71462 -0.41652,1.07177 -0.0529,0.35716 -0.0796,0.70769 -0.0796,1.05162 0,0.30424 0.0331,0.6281 0.0992,0.97203 0.0661,0.34393 0.19846,0.68113 0.39688,1.01183 0.21164,0.31747 0.46987,0.47645 0.77411,0.47645 0.27779,0 0.50882,-0.0992 0.69401,-0.29765 0.1852,-0.19842 0.31751,-0.45613 0.39688,-0.7736 0.0926,-0.31747 0.15234,-0.60877 0.1788,-0.87333 0.0265,-0.25133 0.0398,-0.50904 0.0398,-0.7736 0,-0.22487 -0.0197,-0.45643 -0.0594,-0.69453 -0.0264,-0.2381 -0.0862,-0.49632 -0.1788,-0.77411 -0.0794,-0.27779 -0.20527,-0.50242 -0.37724,-0.67438 -0.15873,-0.17196 -0.36361,-0.25787 -0.61495,-0.25787 z m -21.604878,8.20054 a 1.4694887,1.4694887 0 0 1 1.469678,1.46968 1.4694887,1.4694887 0 0 1 -1.469678,1.46916 1.4694887,1.4694887 0 0 1 -1.469678,-1.46916 1.4694887,1.4694887 0 0 1 1.469678,-1.46968 z m 37.340868,0.0326 a 1.4694887,1.4694887 0 0 1 1.46917,1.46968 1.4694887,1.4694887 0 0 1 -1.46917,1.46916 1.4694887,1.4694887 0 0 1 -1.46967,-1.46916 1.4694887,1.4694887 0 0 1 1.46967,-1.46968 z" /></g></svg>
