<svg xmlns="http://www.w3.org/2000/svg" xml:space="preserve" width="520.154" height="444.124" viewBox="0 0 137.624 117.508"><path d="M40.346.01c-3.08.116-6.172.47-9.167 1.129-6.542 1.475-12.619 4.84-17.38 9.559-4.07 3.85-7.19 8.644-9.204 13.863C2.692 29.29 1.555 34.273 0 39.115c1.26 1.107 3.006 1.59 4.515 2.134 2.94.931 6.04 1.637 9.123 1.583a25.3 25.3 0 0 0 10.12-2.172c4.295-1.878 7.939-5.18 10.25-9.214 2.106-3.572 3.484-7.343 4.81-11.273 1.89-5.935 3.856-11.849 5.584-17.833.102-.635.483-1.356.28-1.97-1.372-.48-2.903-.352-4.336-.36M97.21.025c-.864.059-1.761.052-2.582.358.485 3.15 1.496 6.192 2.359 9.254 1.958 6.453 3.98 12.877 6.436 19.13 1.372 3.51 3.946 6.436 6.846 8.78 3.312 2.587 7.272 4.472 11.466 4.99 3.996.267 8.018-.328 11.876-1.346 1.347-.433 2.857-.763 3.886-1.795.322-1.094-.058-2.277-.199-3.383-1.03-4.98-2.598-9.86-4.711-14.488-3.48-7.314-9.436-13.548-16.661-17.32-3.738-1.973-8.046-3.392-12.22-3.84-2.178-.254-4.304-.395-6.496-.34M91.67 7.85c-1.874.545-3.4 1.864-5.192 2.613-4.72 2.212-9.57 4.163-14.548 5.714-1.198.39-2.475.648-3.716.288-4.426-.995-8.685-2.623-12.851-4.395-2.731-1.134-5.228-2.797-8.046-3.724-1.082 2.775-1.457 5.762-2.354 8.597-1.652 5.588-3.578 11.132-6.269 16.315-1.912 3.557-4.97 6.323-8.079 8.824-1.008.824-2.151 1.555-3.182 2.289.764 2.645 1.994 5.139 3.296 7.557.45 1.028 1.392 1.657 2.379 2.105 3.65 1.705 7.495 2.77 11.45 3.584 2.932.662 6.078.366 8.846 1.702.94.387 1.645 1.535 1.07 2.495-.585 1.022-1.969.93-2.991 1-4.36-.04-8.673-.896-12.893-1.938-2.036-.54-4.057-1.154-5.991-1.991 1.562 4.306 2.685 8.756 3.989 13.145.28.641.169 1.606.967 1.856 3.09 1.5 6.374 2.418 9.662 3.35 2.473.704 5.006 1.148 7.55 1.494 1.044.155 2.431.547 2.546 1.799.213 1.063-.445 2.228-1.547 2.422-1.493.396-3.028-.154-4.512-.351-4.295-.868-8.589-1.819-12.755-3.185-.59-.403-.972-.193-.915.539-.273 4.056-.101 8.13-.15 12.193v2.195c4.24 2.165 8.526 4.275 12.448 6.992 5.787 3.883 11.116 8.43 15.916 13.477.91.906 1.815 1.82 2.754 2.697 3.752-3.495 7.207-7.318 11.257-10.483 4.997-4.002 10.267-7.725 16.002-10.599 1.386-.673 2.796-1.296 4.192-1.948-.056-4.677.108-9.363-.17-14.035-.047-.427-.08-.864-.229-1.271a82.3 82.3 0 0 1-13.798 3.646c-1.472.14-2.968.54-4.446.3-1.054-.319-.802-1.59-.63-2.409.198-1.316 1.59-1.84 2.745-2.014a59 59 0 0 0 8.339-1.884c2.884-.85 5.701-1.911 8.548-2.876 1.503-4.887 3.034-9.808 4.54-14.666-2.452.608-4.8 1.595-7.287 2.079-3.734.809-7.54 1.484-11.372 1.445-.972.003-2.209-.182-2.547-1.256-.467-1.284.793-2.382 1.89-2.77 1.799-.717 3.778-.346 5.64-.756 4.39-.736 8.56-1.907 12.623-3.708 1.524-.63 3.117-1.483 3.798-3.08 1.15-2.396 2.016-4.917 3.03-7.372-3.085-2.206-6.336-4.34-8.61-7.444-3.313-4.394-4.979-9.739-6.563-14.939-1.319-4.523-2.508-9.084-3.767-13.624z"/></svg>