<svg xmlns="http://www.w3.org/2000/svg" xml:space="preserve" width="406.488" height="237.479" viewBox="0 0 107.55 62.833"><path d="M7.692 0A7.676 7.676 0 0 0 0 7.694v47.445a7.676 7.676 0 0 0 7.692 7.694h92.166a7.676 7.676 0 0 0 7.692-7.694V7.694A7.676 7.676 0 0 0 99.858 0zm-.05 4.162a3.602 3.602 0 1 1 0 7.204 3.602 3.602 0 0 1 0-7.204m41.031.037v.005c.69-.079 1.378.16 1.934.562.502.39.964.85 1.314 1.382.353.674.233 1.465.253 2.198-.058 2.412-.326 4.82-.589 7.22-.076.951-.218 1.916-.08 2.868.022.269.278.57.564.419.322-.137.43-.486.475-.804.425-2.282.576-4.6.835-6.904.09-1.143.31-2.283.248-3.433-.053-1.177-.748-2.187-1.389-3.118.661.443 1.241 1.05 1.521 1.805.393.946.236 1.984.357 2.974.054.268.034.679.351.775.36-.038.407-.481.44-.77-.02-.94.266-1.892.864-2.626.673-.857 1.805-1.472 2.912-1.234.787.195 1.368.904 1.717 1.565.696 1.351.851 2.95.542 4.43-.258.934-.398 1.894-.493 2.857-.115 1.246-.24 2.502-.154 3.753.002.205.12.537.382.423.244-.198.25-.554.337-.837.436-2.14.67-4.315.882-6.486.065-1.006.228-2.02.11-3.027-.1-.866-.744-1.504-1.113-2.254.295.261.532.53.773.836.894 1.146 1.012 2.694.773 4.082-.411 2.043-.67 4.113-.907 6.183-.202.293.25.262.112.317-.246.188-.413.527-.373.837.125.375.607.352.93.36.34-.03.735.068 1.03-.14.165-.304-.22-.495-.41-.66a3 3 0 0 0-.514-.343c-.246-.098-.217-.11.045-.094 1.1.015 2.206-.055 3.302.063.62.044 1.04.552 1.373 1.02.444.74.493 1.627.62 2.46.346 2.973.549 5.977.918 8.954.225 1.717.368 3.46.886 5.121.87 2.819 2.308 5.45 4.112 7.778 1.147 1.436 2.446 2.817 4.083 3.694.7.308 1.37.681 1.966 1.164 1.037.763 1.758 1.868 2.803 2.62.221.198.636.314.84.04.1-.323-.282-.494-.41-.74.212.258.487.498.602.815-.372.488-1.076.651-1.65.464-.61-.126-1.208-.34-1.83-.404-.295-.026-.438.3-.361.549-.458-.58-.953-1.138-1.523-1.61-1.311-1.02-2.83-1.738-4.372-2.335-1.153-.405-2.376-.836-3.617-.644-.25.026-.64.192-.513.508.205.33.649.375.995.462.902.108 1.79.428 2.611.77 1.447.624 2.867 1.34 4.135 2.281.51.342.786.92 1.285 1.274.3.224.752.494 1.108.24-.07.195-.297.253-.481.277-1.298.098-2.554-.363-3.842-.434-.299-.006-.762-.052-.866.311-.012.191.104.335-.077.092a14.8 14.8 0 0 0-3.085-2.661c-1.274-.725-2.673-1.212-4.083-1.596-.992-.241-2.055-.485-3.063-.194-.26.058-.375.415-.137.574.548.376 1.248.358 1.848.535 1.473.42 2.844 1.077 4.19 1.809 1.012.572 2.024 1.169 2.815 2.018.419.376.86.826 1.443.905.374.042.58-.39.496-.71.002-.09-.216-.39-.074-.227.232.225.555.627.26.928-.364.319-.852.373-1.303.42-1.37.13-2.696-.302-4.065-.373-.241.006-.635-.083-.72.229-.025.486.302.899.543 1.293.092.192.32.4.242.622a2.85 2.85 0 0 1-1.537.476c-1.545.024-3.083-.407-4.638-.454-.263.018-.625-.082-.81.156-.137.33.108.675.256.961.21.392.588.704.689 1.146-.08.27-.34.443-.547.619-.28.249-.679.167-1.012.296-.461.039-.918-.121-1.365-.22-1.299-.382-2.6-.76-3.91-1.103-5.579-1.512-11.216-2.812-16.75-4.485-.973-.316-1.962-.548-2.812-1.138-1.294-.863-2.389-1.944-3.366-3.147-.772-.936-1.377-1.996-1.845-3.113-.863-1.924-1.272-4.028-1.323-6.13-.037-1.6-.018-3.203.276-4.766.319-1.729 1.05-3.371 1.856-4.955.985-1.88 2.021-3.732 2.967-5.632.85-1.633 1.575-3.32 2.45-4.935.334-.574.614-1.199 1.077-1.682 1.442-1.174 3.754-.959 5.122.233.621.549.724 1.415.83 2.189.285 2.595.343 5.203.485 7.811.163 2.984.336 5.972.686 8.942.52 3.454 1.645 6.832 3.397 9.858 1.393 2.375 3.204 4.59 5.593 6.014 1.63.899 3.38 1.734 4.585 3.203.705.805 1.086 1.893 1.989 2.517.303.239.798.197.991-.161.303-.405.058-.913-.114-1.316-.536-1.09-1.234-2.12-2.127-2.948-.912-.728-1.94-1.297-2.956-1.866-2.399-1.285-4.336-3.294-5.828-5.53-1.57-2.374-2.685-5.052-3.366-7.829-.486-1.935-.695-3.925-.823-5.912-.294-3.92-.334-7.855-.638-11.776-.043-.817-.2-1.647-.303-2.441.74-.027 1.492.062 2.222-.082.312-.053.483-.386.393-.678-.104-.533-.703-.715-1.167-.809-.853-.148-1.703-.274-2.515-.525-1.064-.386-2.177-.61-3.297-.753.826-2.195 1.668-4.384 2.46-6.591.359-.917.6-1.873 1.025-2.76.508-1.04 1.411-2.024 2.617-2.166zm50.805.146a3.602 3.602 0 1 1-.001 7.205 3.602 3.602 0 0 1 0-7.205M48.846 6.117a1.4 1.4 0 0 0-.708.208c-.533.328-.554 1.03-.488 1.584.01.558.387 1.108.95 1.222.77.201 1.543-.45 1.636-1.203.151-.843-.487-1.818-1.39-1.811m8.693 1.278c-.31.004-.666.055-.844.344-.317.527-.35 1.216-.133 1.786.129.375.556.484.888.588.309-.066.656-.14.88-.379.392-.51.408-1.25.166-1.828-.149-.382-.576-.527-.957-.511m-3.48 9.578c-.223 0-.453 0-.668.07-.4.096-.444.566-.394.904.035.428.51.56.87.575.93.056 1.868.063 2.798-.008.32-.016.747-.18.703-.571.012-.405-.335-.708-.712-.771-.852-.174-1.73-.166-2.596-.198zm5.258 32.006q-.179-.001-.355.032c-.252.021-.529.296-.33.538.35.36.871.473 1.32.662 2.105.67 4.153 1.634 5.824 3.1.8.644 1.321 1.584 2.196 2.14.393.28 1.006.38 1.356-.023.203-.31-.078-.659-.242-.92-.808-1.09-1.818-2.015-2.87-2.863-.994-.833-2.19-1.363-3.392-1.816-1.133-.402-2.297-.794-3.507-.85M7.561 51.174a3.602 3.602 0 1 1 .001 7.205 3.602 3.602 0 0 1 0-7.205m91.54.08a3.602 3.602 0 1 1-.003 7.205 3.602 3.602 0 0 1 .002-7.205"/></svg>