<?xml version="1.0" encoding="UTF-8" standalone="no"?>
<svg
   width="107.55007mm"
   height="62.832893mm"
   viewBox="0 0 107.55007 62.832893"
   version="1.1"
   xml:space="preserve"
   xmlns="http://www.w3.org/2000/svg"
   xmlns:svg="http://www.w3.org/2000/svg"><g
     transform="translate(-45.016352,-28.150718)"><path
       d="m 144.87436,28.150736 c 4.25263,-0.009 7.70202,3.441484 7.69204,7.694104 v 47.44465 c 0.01,4.25262 -3.43941,7.702984 -7.69204,7.694104 H 52.708414 c -4.25262,0.009 -7.70202,-3.441484 -7.69204,-7.694104 V 35.84484 c -0.01,-4.25262 3.43942,-7.702974 7.69204,-7.694104 z m -32.16341,2.195215 c -0.0155,-0.0057 -0.029,-0.0026 -0.0398,0.01034 -0.0288,0.03462 -0.68607,1.29701 -1.46089,2.804996 -1.55832,3.03284 -3.05922,5.563415 -4.44314,7.491533 -1.26401,1.761048 -2.51374,3.312781 -2.74505,3.40806 -0.10685,0.04404 -1.46087,0.136485 -3.00912,0.205673 -2.803937,0.125315 -5.594496,0.399512 -9.606136,0.944128 l -2.11046,0.286288 -0.5147,-0.356568 c -0.87061,-0.603336 -3.56896,-3.242149 -4.91701,-4.808492 -1.38271,-1.60661 -3.06106,-3.803274 -4.18889,-5.482869 -0.50086,-0.745905 -0.73768,-0.999866 -0.81081,-0.869198 -0.19849,0.354686 -0.77632,3.406593 -0.91932,4.855518 -0.23279,2.358542 -0.17487,7.258823 0.12661,10.709423 0.14782,1.691887 0.30694,3.603123 0.35346,4.24677 l 0.08475,1.169954 h -0.32659 c -0.31516,0 -1.54068,-0.286809 -2.02055,-0.472839 -0.72809,-0.282251 0.49044,1.299977 1.50998,1.960604 0.37532,0.2432 0.61701,0.487011 0.56689,0.571541 -0.25498,0.430126 -1.20146,1.451722 -1.54977,1.672249 l -0.40049,0.253215 0.45475,0.240295 c 0.25014,0.13198 2.8624,1.423408 5.80481,2.870109 3.42821,1.685571 5.36523,2.709211 5.39295,2.849955 0.0237,0.120807 -0.02343,0.219625 -0.1049,0.219625 -0.23544,0 -2.93368,-1.268768 -7.6755,-3.609598 l -4.39353,-2.16886 -0.76429,0.214457 c -0.42044,0.11796 -1.18179,0.215917 -1.69189,0.218074 l -0.92759,0.0036 0.40979,0.364319 c 0.22529,0.200139 0.86913,0.751018 1.43092,1.224214 l 1.02164,0.859896 -0.53743,0.240812 c -1.0485,0.46943 -1.94396,0.655331 -3.55741,0.73794 -1.72917,0.08853 -2.01376,0.229435 -0.74052,0.366902 12.02425,1.298165 16.72293,1.849082 17.32039,2.030367 0.31099,0.09436 0.30076,0.454236 -0.01292,0.454236 -0.13568,0 -1.74551,-0.178551 -3.57756,-0.396358 -1.83206,-0.217806 -4.98596,-0.581127 -7.00887,-0.807186 -2.0229,-0.226058 -4.03554,-0.467168 -4.4726,-0.536401 -0.43705,-0.06925 -0.81502,-0.105847 -0.83974,-0.08113 -0.0247,0.02469 0.42319,0.210442 0.99529,0.412894 2.04798,0.724729 3.64835,1.595089 3.64835,1.983859 0,0.07847 -0.13074,0.281697 -0.29042,0.451652 -0.15966,0.169963 -0.2542,0.344737 -0.21032,0.388607 0.044,0.04389 2.29606,-0.110585 5.00486,-0.343132 7.38538,-0.634031 6.99803,-0.614531 6.99803,-0.352433 0,0.123164 -0.07546,0.250874 -0.16744,0.283703 -0.0919,0.03285 -2.84506,0.301803 -6.11849,0.597897 -3.27345,0.296092 -6.13241,0.578127 -6.3531,0.626318 -0.3718,0.08119 -0.33466,0.10816 0.50798,0.367419 l 0.90951,0.27957 -0.66508,0.784448 c -0.73792,0.870484 -1.40901,2.054362 -1.55442,2.741435 l -0.09509,0.449068 0.73484,-0.554488 c 0.93064,-0.702651 1.99328,-1.080037 3.04219,-1.080037 0.84437,0 1.95638,0.219834 2.07378,0.409794 0.0371,0.06005 -0.11465,0.368686 -0.33693,0.685746 -0.57494,0.820054 -0.96654,2.020412 -1.04025,3.188436 -0.0958,1.518351 -0.01946,1.667524 0.41806,0.820105 0.50625,-0.98063 1.4143,-1.847329 2.40037,-2.290816 1.22286,-0.549999 1.42886,-0.598729 1.42886,-0.337964 0,0.500005 0.72637,2.336722 1.26969,3.211173 0.32066,0.516072 0.87342,1.239648 1.22834,1.608171 0.71129,0.738533 1.62208,1.469716 1.71514,1.37666 0.0328,-0.03285 -0.0062,-0.296941 -0.0863,-0.587044 -0.0812,-0.294179 -0.10863,-0.877115 -0.06252,-1.318266 0.0812,-0.777171 0.63194,-2.223397 0.84336,-2.213818 0.0592,0.0022 0.28098,0.278247 0.49247,0.611848 0.74672,1.177878 3.01184,3.887891 4.90565,5.869926 1.05429,1.103401 1.97651,2.030264 2.04948,2.059306 0.073,0.02899 -0.0053,-0.180302 -0.17311,-0.465088 -0.34157,-0.578898 -1.21492,-2.911818 -1.21492,-3.24528 0,-0.330049 2.20272,1.921633 2.90112,2.965711 0.845733,1.264357 1.143917,2.257003 1.162719,3.867981 0.0083,0.717107 0.04537,1.30067 0.08216,1.296561 0.03678,-0.0037 0.327678,-0.320296 0.646473,-0.702282 l 5.16e-4,5.17e-4 c 0.770719,-0.923474 1.932588,-2.699249 3.758428,-5.743319 1.39293,-2.322317 1.74718,-2.838166 1.74718,-2.544031 0,0.287159 -0.86708,2.84639 -1.16117,3.427181 -0.21069,0.416096 -0.26562,0.629254 -0.15244,0.592212 0.30218,-0.0989 2.81979,-2.960238 3.75946,-4.272607 0.7655,-1.069126 2.06365,-3.44626 2.46393,-4.51187 0.11853,-0.315549 0.12736,-0.311119 0.55346,0.267684 0.56251,0.764106 0.85778,1.796709 0.80098,2.801896 -0.0247,0.437643 -0.005,0.795427 0.0429,0.795301 0.24331,-5.11e-4 1.41113,-1.518148 1.80093,-2.340426 0.54931,-1.158756 0.89706,-3.014761 0.77824,-4.152201 -0.0814,-0.779498 -0.0716,-0.814612 0.26819,-0.96945 0.1939,-0.08834 0.76261,-0.228291 1.26401,-0.311092 1.18967,-0.196477 2.48382,0.05656 4.16926,0.815454 0.67393,0.303455 1.25116,0.525994 1.28261,0.494543 0.0894,-0.08942 -0.42643,-1.365561 -0.80667,-1.995744 -0.18886,-0.313006 -0.66111,-0.915349 -1.04954,-1.338936 l -0.70642,-0.770496 -3.59306,-0.733288 c -4.6252,-0.944175 -4.63228,-0.946365 -4.63228,-1.290361 0,-0.224925 0.0598,-0.261399 0.31884,-0.19637 0.1754,0.04404 1.99595,0.436052 4.04575,0.871265 2.0498,0.435213 3.82846,0.831977 3.95222,0.8816 0.16289,0.06532 0.28142,-0.0197 0.42994,-0.306958 0.26761,-0.51748 1.32456,-1.443427 2.09238,-1.83348 0.79067,-0.401648 1.87182,-0.699827 2.85358,-0.787032 0.43238,-0.0384 0.80957,-0.09333 0.83819,-0.121957 0.0785,-0.07845 -2.07343,-0.873449 -2.76107,-1.020093 -0.60455,-0.128919 -0.55877,-0.135882 -11.33523,1.669666 -0.36478,0.06109 -0.4346,0.03162 -0.4346,-0.183968 0,-0.304137 -0.33465,-0.226813 4.74803,-1.097091 5.24792,-0.898585 5.95853,-1.028088 6.02909,-1.098641 0.0334,-0.03337 -0.011,-0.371207 -0.0987,-0.750858 -0.29624,-1.283381 0.24192,-3.047955 1.23093,-4.036963 l 0.49455,-0.494544 -0.74001,-0.206189 -0.74001,-0.205672 -0.68058,0.500228 c -1.8609,1.368295 -9.82963,6.564457 -10.06708,6.564457 -0.61284,0 0.34521,-0.740842 4.77283,-3.692281 2.72187,-1.814385 5.08779,-3.426253 5.25756,-3.581693 0.16978,-0.155431 0.60605,-0.523407 0.96945,-0.817521 1.00316,-0.811875 1.12881,-0.922931 1.12913,-0.999423 1.7e-4,-0.03885 -0.40738,-0.05119 -0.90537,-0.02739 -1.45324,0.06932 -2.27029,-0.299787 -3.55069,-1.60507 l -1.04438,-1.065051 0.55501,-0.602548 c 0.64041,-0.694769 1.23748,-1.901322 1.17564,-2.376082 -0.0419,-0.321627 -0.0532,-0.318176 -0.82322,0.265617 -0.42942,0.325572 -0.86157,0.591695 -0.96014,0.591695 -0.21999,0 -0.26973,-0.465598 -0.46508,-4.335136 -0.23844,-4.722919 -0.71684,-8.319675 -1.52394,-11.459249 -0.56765,-2.208089 -1.31817,-4.322201 -1.55133,-4.407483 z m 32.21354,1.966805 c -4.80267,0 -4.80267,7.204212 0,7.204212 4.80266,0 4.80266,-7.204212 0,-7.204212 z m -91.835226,0.182935 h -10e-4 c -4.80333,6.7e-4 -4.8023,7.205915 10e-4,7.205245 4.80333,0 4.80333,-7.205245 0,-7.205245 z m 54.269556,16.160254 c 0.0381,0.0027 0.0624,0.0252 0.0775,0.06459 0.0506,0.132039 -0.12571,0.383909 -0.50023,0.714685 -1.42511,1.25864 -2.20932,2.058899 -3.0241,3.0856 -0.88363,1.113463 -1.1002,1.286926 -1.1002,0.8816 0,-0.498693 1.88344,-2.617472 3.71089,-4.174422 0.48405,-0.412399 0.72196,-0.580308 0.83612,-0.572058 z m -20.981666,1.624707 c 0.38488,0 3.16755,1.880105 4.49792,3.039091 0.71212,0.620383 1.04569,1.106909 0.75861,1.106909 -0.0426,0 -0.66494,-0.468755 -1.38286,-1.041797 -0.71793,-0.57305 -1.91384,-1.430644 -2.6572,-1.905827 -1.21287,-0.775323 -1.64224,-1.198376 -1.21647,-1.198376 z m 23.531906,1.471228 c 0.20363,0 0.7692,0.956939 1.06711,1.805574 1.23625,3.521739 -0.62671,7.196786 -4.1398,8.16591 -0.85561,0.23603 -2.21826,0.230899 -3.15019,-0.01188 -0.98879,-0.257547 -1.86764,-0.732534 -2.68304,-1.450041 l -0.6351,-0.558622 2.52181,-2.119251 2.52181,-2.118733 0.15451,0.605647 c 0.085,0.333187 0.34823,0.875424 0.58498,1.205095 0.44282,0.616624 1.24994,1.166758 1.43712,0.979268 0.15861,-0.158878 0.10769,-1.285184 -0.0842,-1.861385 -0.093,-0.279093 -0.37459,-0.775906 -0.62528,-1.104325 -0.25068,-0.328419 -0.45579,-0.620058 -0.45579,-0.648023 0,-0.0991 3.36654,-2.889229 3.4861,-2.889229 z m -25.362796,2.370915 c 0.19288,-0.0361 0.60789,0.185981 1.99419,0.965315 1.07793,0.605962 1.98686,1.145011 2.01952,1.19786 0.0326,0.05286 -0.11746,0.446969 -0.33383,0.875916 -0.31075,0.616082 -0.39378,0.956347 -0.39378,1.619539 0,0.994406 0.08315,1.262455 0.39068,1.262455 0.62413,0 1.34824,-1.381113 1.34824,-2.571936 0,-0.481825 0.04679,-0.648415 0.16898,-0.601513 0.29056,0.111495 5.24125,2.9192 5.37228,3.046842 0.32842,0.3199 -1.40902,2.161324 -2.59984,2.755387 -1.3109,0.65396 -3.16424,0.75664 -4.58784,0.254248 -1.96064,-0.691922 -3.51817,-2.458204 -3.97288,-4.505151 -0.28104,-1.265201 -0.03955,-3.521011 0.44803,-4.187858 0.04267,-0.05835 0.08195,-0.09907 0.14625,-0.111104 z m 15.102953,9.065596 c 0.120186,-0.0067 0.194648,-0.0048 0.207739,0.0083 0.07625,0.07625 -0.748405,1.638859 -1.137398,2.154908 -0.370694,0.491768 -0.390617,0.771489 -0.125574,1.767334 0.30029,1.12829 1.450476,2.107028 2.766236,2.353861 0.59237,0.111131 1.40706,-0.202788 1.81385,-0.699182 0.16226,-0.197989 0.34092,-0.313815 0.39739,-0.257349 0.19219,0.192192 -0.28936,0.801371 -0.88057,1.113627 -1.07676,0.568698 -2.1998,0.321433 -3.505211,-0.771529 -0.486571,-0.40738 -0.653707,-0.489071 -0.653707,-0.32091 0,0.356364 -0.387995,0.921543 -0.850077,1.238167 -0.404631,0.277253 -1.341041,0.559182 -1.624191,0.488859 -0.0735,-0.01824 -0.29773,-0.06917 -0.49868,-0.113171 -0.48073,-0.105241 -1.30689,-0.83856 -1.30689,-1.160136 0,-0.340912 0.11055,-0.31956 0.42736,0.0832 0.99312,1.262547 3.159467,0.756422 3.388424,-0.791683 0.116751,-0.789404 -0.164871,-2.389687 -0.446484,-2.53783 -0.30803,-0.162036 -1.89808,-1.778955 -1.89808,-1.930115 0,-0.105329 3.084559,-0.579516 3.925863,-0.626318 z m 45.356403,16.136483 h -5.2e-4 -5.1e-4 c -4.80224,4.22e-4 -4.80297,7.204058 0,7.204728 4.80296,0 4.80327,-7.203636 0.001,-7.204728 z m -91.540146,0.07958 h -10e-4 c -4.80333,0.002 -4.80023,7.207245 0.0031,7.205245 4.80333,-0.001 4.80126,-7.206575 -0.0021,-7.205245 z" /></g></svg>
