<svg xmlns="http://www.w3.org/2000/svg" xmlns:ffdec="https://www.free-decompiler.com/flash" ffdec:objectType="shape" width="32.7" height="29.25"><path d="M2.45 26.263c-.686-.053-1.18-.257-1.383-.573a9 9 0 0 1-.323-.61l-.226-.46-.197-.95C.1 22.596.002 21.793.001 21.016c0-.727.11-1.227.777-3.484.81-2.743.9-3.035 1.308-4.23.482-1.412.554-1.541 1.145-2.066.455-.405.629-.536.812-.613.129-.054.774-.235.843-.236.031-.001.04.306.04 1.428v1.429l.23.254.23.255-.647 3.024c-.646 3.014-.648 3.026-.72 3.814-.119 1.28-.073 1.457.416 1.612.155.049 1.74.204 2.103.205.112 0 .203.013.203.026 0 .014.065.783.146 1.71s.145 1.702.145 1.722c0 .053-.032.058-1.377.22-1.746.21-2.343.242-3.204.176M11.65 26.62c-.16-.197-.313-.386-.34-.422-.05-.063-.06-.063-.757-.011-.389.029-.715.044-.725.034s-.12-1.16-.242-2.555c-.208-2.368-.221-2.58-.209-3.216.007-.375.023-.703.034-.73.012-.026.227-.162.477-.3.531-.294.966-.587 1.223-.824l.183-.168v-.512c0-.482-.005-.524-.085-.707-.076-.174-.105-.206-.275-.299a3 3 0 0 0-.44-.189l-.25-.084-.463.391-.463.39-.052-.153a2.6 2.6 0 0 0-.442-.785 6 6 0 0 1-.34-.438c-.1-.142-.498-.61-.884-1.037a28 28 0 0 1-.845-.967l-.144-.19V10.71c0-2.471.009-3.146.04-3.173.057-.048.484-.268 1.16-.596.389-.19.455-.234.595-.4.086-.103.25-.374.364-.6.204-.406.207-.418.207-.676 0-.277-.132-.819-.262-1.073a.6.6 0 0 1-.062-.22c0-.198.393-.995.84-1.702.488-.775.742-1.063 1.271-1.445.36-.26 1.069-.613 1.232-.614.06 0 .225-.022.368-.047a3.5 3.5 0 0 1 .486-.049c.125-.001.365-.023.535-.05.169-.025.356-.047.416-.047.148-.001.29.109.364.282.06.14.062.292.062 4.814v4.67l.38.61.381.61h.795v1.944h-.439c-.398 0-.452-.007-.591-.078-.346-.175-3.17-1.745-3.218-1.788-.067-.06-.342-.142-.477-.143-.108 0-.363.11-.363.157 0 .014-.158.195-.35.403-.34.366-.355.389-.519.782a5 5 0 0 0-.228.656c-.055.233-.056.263-.009.411.049.152.104.205 1.092 1.05.766.657 1.081.908 1.197.952.086.032.303.082.483.111s.4.064.488.08c.277.045.671-.083 1.638-.536l.47-.22.413-.014.413-.015v4.25c0 4.192-.001 4.25-.063 4.217-.184-.099-.71.074-1.282.421-.588.357-.91.763-1.168 1.476a8 8 0 0 0-.357 1.391c-.01.071-.034.206-.051.3l-.033.17-.443-.001-.444-.002zm1.024-6.757c.193-.058.565-.252.75-.393a1.54 1.54 0 0 0 .49-.728c.125-.502.034-.811-.268-.907-.315-.101-.755.051-1.06.368-.314.324-.563.82-.563 1.121 0 .21.124.407.318.508l.155.081zm.13-10.453a1.3 1.3 0 0 0 .486-.19c.225-.13.285-.186.44-.406.163-.229.186-.283.231-.537.045-.256.045-.312 0-.586-.075-.438-.226-.699-.52-.895l-.218-.146V5.172c0-1.342-.006-1.488-.057-1.59-.08-.16-.205-.215-.36-.157-.23.087-.231.093-.232 1.633v1.363l-.33.078c-.457.108-.727.285-.977.64-.163.232-.184.28-.23.55-.048.273-.048.322 0 .582.046.254.071.313.229.537.363.517.865.713 1.538.602M5.714 13.208c-.051-.022-.076-.069-.09-.17-.012-.077-.016-1.049-.011-2.16.01-1.976.011-2.02.075-2.068.084-.063.46-.046.504.023.036.057.026 4.324-.01 4.36-.039.039-.388.05-.468.015"/><path d="M6.258 6.674C5.73 6.53 5.25 6.07 5.056 5.517a1.76 1.76 0 0 1 .089-1.327c.16-.32.534-.69.855-.848.969-.475 2.163.063 2.472 1.112.066.227.067.737.002.989a1.95 1.95 0 0 1-.441.791 1.9 1.9 0 0 1-.794.44c-.248.063-.744.063-.98 0M7.985 19.724a.7.7 0 0 1-.168-.156 58 58 0 0 1-.811-1.458c-.41-.75-.767-1.398-.795-1.44a3 3 0 0 1-.15-.32q-.291-.705.1-1.282c.151-.222.289-.306.503-.306h.129l.876 1.678c.483.923.897 1.732.921 1.799s.054.117.067.113c.012-.005.333-.279.712-.608.38-.33.714-.617.743-.639.042-.03.095-.028.244.011.324.085.417.158.53.416.118.269.13.466.037.67-.118.264-.207.328-1.265.905-.562.306-1.051.584-1.088.617-.094.086-.444.085-.585 0M8.487 26.23l-.925-.388-.174-1.764c-.095-.97-.167-1.77-.159-1.777.054-.05 1.69-1.062 1.7-1.052.017.017.508 5.347.494 5.36-.006.006-.427-.164-.936-.378M19.66 26.923c-.03-.106-.053-.25-.102-.62-.092-.707-.382-1.489-.737-1.982-.337-.47-.735-.756-1.4-1.006-.289-.108-.385-.13-.51-.119l-.156.015v-8.449h.325c.292 0 .355.011.608.11.156.06.404.17.552.243.303.153.807.343 1.078.406.162.038.236.035.68-.032.527-.078.748-.153 1.032-.346.082-.056.499-.395.927-.754.685-.575.789-.675.87-.835.05-.1.099-.237.108-.306.023-.175-.067-.511-.259-.965-.164-.387-.345-.647-.765-1.097-.298-.318-.588-.324-1.056-.023-.249.16-2.714 1.531-3.013 1.675-.222.107-.235.11-.657.11h-.43v-1.9449999999999998h.38l.382-.001.38-.612.381-.612V5.095c0-3.993.007-4.698.047-4.791a.5.5 0 0 1 .193-.2l.147-.092.992.1.991.1.687.392c.625.356.714.418.988.688.243.239.37.402.654.847.32.5.584.942.584.975 0 .008-.056.013-.124.013s-.388.037-.71.082l-.586.082-.475.25c-.467.247-.48.257-.825.623-.323.345-.368.41-.61.875l-.26.503-.09.529-.092.529.1.527c.098.52.103.534.35 1.003.223.425.286.515.595.85.343.371.347.374.831.628l.486.255.548.073.548.074.538-.075.537-.074.438-.22c.396-.198.47-.25.785-.547a6 6 0 0 1 .365-.328c.01 0 .017 1.154.017 2.564v2.564l-.237.248a30 30 0 0 0-1.465 1.673c-.23.285-.489.598-.575.694-.168.185-.357.528-.397.716a1 1 0 0 1-.046.155c-.015.027-.197-.11-.565-.429-.609-.526-.532-.497-.967-.371-.248.071-.325.138-.559.482l-.16.235-.014.442c-.017.563.027.738.237.945.09.087.473.333.996.638l.896.524c.027.017.058.137.079.306.03.25.01.569-.213 3.167-.135 1.59-.253 2.896-.26 2.903a9 9 0 0 1-.723-.037c-.598-.043-.714-.044-.742-.007l-.321.423-.289.379h-.463c-.413 0-.464-.006-.479-.057m.653-7.086q.426-.216.248-.901c-.12-.461-.765-1.05-1.231-1.123q-.383-.059-.55.185c-.148.217-.093.795.104 1.086.24.355.617.632 1.047.768.231.074.206.075.382-.015"/><path d="M15.771 29.164c-.369-.067-.456-.096-.761-.256-.301-.158-.383-.22-.646-.493a2.4 2.4 0 0 1-.506-.704c-.192-.367-.21-.418-.279-.824-.113-.673-.062-.968.276-1.596.162-.3.277-.463.485-.689.244-.265.311-.317.643-.493.344-.183.403-.203.797-.271l.426-.074.445.074c.419.069.465.084.804.265.312.166.403.236.685.522.302.305.338.356.49.686.133.291.176.432.235.772l.072.415-.075.427a2.4 2.4 0 0 1-.26.816c-.171.358-.21.412-.474.67a2.4 2.4 0 0 1-.658.478c-.34.182-.402.203-.761.263l-.456.076a3 3 0 0 1-.482-.064m.674-.336.083-.032v-.664c0-.757.01-.73-.287-.73-.28 0-.264-.047-.264.714 0 .61.006.679.057.709.073.042.304.044.411.003m-1.141-.966c.245-.246.446-.47.446-.496s-.04-.11-.088-.185c-.082-.127-.098-.136-.235-.136-.146.001-.148.003-.535.422-.214.231-.403.451-.42.489-.026.058-.008.09.12.21.082.079.176.143.207.143.032 0 .259-.201.505-.447m2.574.305c.132-.132.14-.15.108-.235-.02-.051-.213-.272-.43-.49-.354-.356-.407-.397-.507-.397-.15 0-.326.164-.326.303 0 .08.069.166.397.5.52.527.54.536.758.319m-2.23-2.236a.4.4 0 0 0 .09-.177c.02-.1.002-.124-.397-.528a7 7 0 0 0-.475-.454c-.088-.048-.157-.008-.294.171l-.124.164.126.135c.822.875.782.84.92.793a.5.5 0 0 0 .155-.104m1.942-.353c.236-.239.429-.448.429-.464 0-.055-.21-.338-.265-.356-.119-.038-.23.04-.624.439-.398.402-.411.42-.401.54.009.109.03.139.167.23.114.076.171.097.21.075.03-.016.247-.225.484-.464m-1.124.04c.058-.032.062-.075.062-.696s-.004-.664-.062-.696c-.087-.046-.402-.042-.45.006-.057.056-.055 1.375.002 1.398.075.03.384.021.448-.012M23.218 26.555c.009-.043.121-1.244.25-2.67.127-1.426.242-2.604.255-2.619.02-.022 1.575.93 1.675 1.026.03.029-.002.442-.135 1.783-.096.96-.186 1.757-.2 1.77-.022.018-1.572.676-1.804.764-.048.019-.055.01-.041-.054M29.54 26.278a47 47 0 0 1-1.916-.126c-.647-.06-2.021-.23-2.044-.253-.009-.01.061-.798.157-1.753l.172-1.736h.195c.283 0 1.72-.123 1.93-.165.097-.02.254-.065.348-.1.14-.053.18-.085.222-.183.11-.261.116-.465.033-1.35l-.08-.843-.62-2.884-.647-3.006c-.027-.117-.021-.128.196-.371l.223-.25v-2.896l.33.096a5 5 0 0 1 .673.27c.29.145.396.223.694.504.38.36.572.597.677.835.037.083.093.187.125.232.031.045.56 1.685 1.175 3.646 1.092 3.481 1.12 3.577 1.186 4.067.11.802.129 1.442.065 2.107-.048.503-.082.676-.302 1.528-.264 1.026-.439 1.52-.688 1.943-.133.228-.174.271-.365.383-.385.226-1.014.336-1.739.305M23.674 19.693a25 25 0 0 1-1.247-.696c-.433-.262-.993-.664-1.022-.735a1.6 1.6 0 0 1-.039-.266.95.95 0 0 1 .056-.447c.07-.216.083-.235.224-.306.082-.042.215-.093.295-.114.08-.02.17-.044.2-.053.035-.01.302.2.805.638.731.635.806.684.809.533 0-.018.405-.808.9-1.758l.899-1.726h.127c.221-.001.365.088.52.322.326.497.315 1.142-.027 1.593-.06.078-.426.718-.813 1.422-.81 1.472-.867 1.564-1.013 1.634-.17.08-.477.062-.674-.04M26.373 13.217c-.03-.008-.07-.068-.089-.134-.044-.159-.045-4-.001-4.152.04-.14.078-.164.26-.164.234 0 .286.026.323.157.044.16.044 3.997 0 4.157-.027.095-.052.121-.134.138a1 1 0 0 1-.359-.002M22.832 7.88a1.38 1.38 0 0 1-.837-.726c-.098-.208-.103-.237-.103-.608 0-.354.008-.405.087-.574.255-.544.746-.832 1.36-.795.406.023.609.114.89.394.28.28.37.484.394.889.036.614-.253 1.108-.796 1.36-.157.072-.237.087-.525.094-.218.006-.387-.006-.47-.034"/><path d="M22.74 9.35c-.238-.043-.6-.159-.783-.25a3.1 3.1 0 0 1-1.052-.931c-.626-.91-.65-2.226-.057-3.119.188-.283.724-.805.98-.955A2.89 2.89 0 0 1 24.516 4c.556.271 1.039.759 1.3 1.314.21.447.258.689.254 1.264-.004.554-.062.832-.257 1.245-.343.724-.922 1.21-1.723 1.448-.234.069-.367.086-.739.096a5 5 0 0 1-.61-.018m1.055-.808c.487-.125.865-.377 1.103-.737.261-.395.352-.71.35-1.222-.001-.606-.158-.991-.567-1.399a1.95 1.95 0 0 0-1.573-.587c-.53.04-.861.197-1.265.603-.435.437-.591.8-.595 1.379 0 .178.017.404.041.502.13.54.554 1.083 1.035 1.327.385.195 1.01.252 1.471.134M15.144 10.508a9 9 0 0 1-.23-.399l-.2-.359-.101-4.772-.101-4.773.09-.094.091-.095h3.0549999999999997l.092.097c.091.095.092.097.04.218-.045.108-.056.666-.098 4.773l-.047 4.65-.222.397-.223.397h-1.058c-.808 0-1.064-.009-1.088-.04"/></svg>