<svg xmlns="http://www.w3.org/2000/svg" xml:space="preserve" width="415.731" height="431.742" viewBox="0 0 109.995 114.232"><path d="M9.307 114.046c-.322-.062-.923-.433-1.335-.823-.631-.598-1.08-1.824-2.826-7.722-1.142-3.857-2.773-9.138-3.626-11.736-1.56-4.76-1.827-6.227-1.219-6.73.202-.166 2.974-.308 7.125-.362 8.078-.107 7.633.064 9.576-3.687a359 359 0 0 1 3.138-5.866l1.85-3.378 1.69.173 1.69.173-.003-.764c-.007-1.468-.27-1.955-1.056-1.955-1.195 0-8.648-2.254-13.294-4.02-1.79-.681-2.05-.863-2.05-1.43 0-1.502 2.415-5.184 7.282-11.101 2.79-3.392 3.671-3.886 7.203-4.042 1.883-.082 2.448-.194 2.448-.481 0-.54 1.18-2.769 1.827-3.454.304-.32.999-.652 1.545-.736 2.362-.363 2.266-.228 2.207-3.096-.052-2.486-.033-2.577.625-3.008.49-.32.772-.366 1.016-.163.206.17.487.188.717.046.236-.146.533-.115.785.081.223.174.09-.1-.297-.61-.677-.891-.76-.923-2.204-.843-1.04.057-1.697-.046-2.14-.337l-.642-.42v-5.894c0-4.232.09-5.984.318-6.212.175-.174.811-.317 1.415-.317h1.098l.167-2.712c.386-6.255 2.36-11.107 6.237-15.338C41.35 4.254 45.76 1.613 49.712.612c8.186-2.076 17.6 1.259 22.813 8.08 2.992 3.914 4.599 8.407 4.887 13.663l.162 2.977h1.23c.676 0 1.372.143 1.547.317.41.41.45 11.378.044 12.136-.232.433-.567.511-2.188.511h-1.913l-2.014 1.97c-4.647 4.542-9.891 6.791-16.829 7.218l-2.447.15v7.675l2.844-.175c3.462-.212 7.824-1.168 10.432-2.285 1.066-.457 2.116-.9 2.334-.985.66-.258-1.084 1.479-2.778 2.767-3.154 2.4-6.57 3.59-11.245 3.92-6.878.485-12.665-1.553-17.485-6.158-.931-.89-1.563-1.24-2.712-1.508-.824-.192-1.498-.3-1.498-.24 0 .582 1.451 2.648 2.77 3.942 5.014 4.924 12.778 7.344 20.747 6.467 3.385-.373 5.623-1.042 8.43-2.523 3.807-2.01 6.919-4.829 8.396-7.608.287-.542.61-.985.717-.985.568 0 1.527 5.419 1.71 9.657.25 5.83-.501 11.232-2.44 17.534-1.195 3.882-1.454 6.894-.79 9.177.247.85.382 1.814.3 2.141-.343 1.369-5.654 3.988-10.34 5.1-2.815.669-5.96 1.106-7.956 1.106h-1.436v8.202h1.838c6.099 0 14.257-2.141 19.355-5.08.96-.553 1.824-1.006 1.918-1.006.095 0 .172 3.669.172 8.152 0 6.622-.07 8.248-.375 8.665-.366.5-.95.515-22.662.584-19.807.063-22.356.025-22.915-.341l-.628-.412.073-8.567.073-8.567-.992-.613c-.546-.337-.992-.704-.992-.815s-.18-.202-.397-.202c-.346 0-.397 1.224-.397 9.43 0 8.67-.037 9.457-.463 9.78-.366.278-2.377.346-9.591.324-5.02-.015-9.392-.078-9.714-.14M59.094 90.81c1.884-.891 3.88-3.05 4.6-4.971.775-2.072.774-4.908-.002-6.985-.8-2.14-3.207-4.533-5.381-5.348-4.468-1.676-9.928.647-11.912 5.066-1.034 2.306-1.062 5.233-.07 7.396 1.283 2.794 3.846 4.92 6.652 5.515 1.765.375 4.543.07 6.112-.673zm-6.022-1.823c-1.786-.485-3.327-1.694-4.258-3.344-1.082-1.915-1.115-4.236-.088-6.236 1.144-2.228 3.656-3.89 5.881-3.891 6.197-.004 9.54 7.361 5.277 11.625-1.639 1.638-4.608 2.443-6.812 1.846m4.274-3.133c1.272-.772 1.89-1.925 1.89-3.531.001-1.747-.774-2.942-2.449-3.773-1.456-.723-2.527-.64-3.93.307-1.512 1.018-2.15 2.22-2.024 3.804.15 1.858 1.116 3.117 2.791 3.636 1.434.445 2.463.322 3.722-.443m5.33-42.129c4.385-1.156 8.512-4.014 10.201-7.064l.78-1.407-.012-6.615c-.011-6.242-.046-6.7-.613-8.133-.873-2.205-2.085-3.831-4.16-5.583-2.077-1.755-5.74-3.626-8.312-4.247-9.064-2.187-19.566 1.731-23.029 8.591-1.15 2.278-1.405 4.382-1.251 10.305.119 4.57.203 5.342.71 6.493 1.863 4.224 5.754 6.872 11.664 7.935 2.844.512 11.697.338 14.023-.275m-22.453-7.9c-.839-1.01-1.158-2.533-1.282-6.124-.154-4.426.173-7.317 1.02-9.035 1.401-2.842 4.973-5.535 9.178-6.921 2.865-.944 7.927-.998 10.974-.116 4.811 1.392 8.217 4.003 10.017 7.68.574 1.172.61 1.554.613 6.536.005 7.289-.661 9.598-2.073 7.188-3.045-5.195-9.929-5.325-13.149-.247l-.717 1.13-.33-.796c-.472-1.14-2.239-2.87-3.527-3.455-3.153-1.432-7.9.18-9.445 3.207-.616 1.208-.895 1.416-1.28.954M81.52 113.82l-.588-.412V83.21l1.003-1.501c.56-.84 1.324-2.545 1.733-3.87 1.11-3.599 1.022-3.47 2.605-3.814 1.363-.297 1.422-.285 1.935.375.291.375 1.74 3.031 3.218 5.903 1.657 3.216 2.96 5.425 3.393 5.75.653.492 1.182.535 7.49.61 5.786.067 6.858.141 7.258.503.679.614.593 1.334-.573 4.792-1.222 3.622-4.2 13.179-5.441 17.458-.477 1.645-1.088 3.239-1.36 3.543-1.073 1.205-1.665 1.273-11.14 1.273-7.667 0-9.029-.059-9.533-.412M1.146 83.958C.7 83.634.674 83.482.94 82.834c2.037-4.935 2.886-6.777 3.173-6.887.293-.113 11.113 3.447 11.425 3.758.234.235-1.118 3.095-1.818 3.844l-.734.785H7.323c-4.473 0-5.772-.079-6.177-.376m95.071-.352c-.733-.831-2.061-3.735-1.786-3.905.144-.089 2.719-.99 5.721-2 4.197-1.414 5.543-1.77 5.82-1.54.199.165.361.4.361.52s.61 1.649 1.356 3.395c.745 1.747 1.285 3.36 1.199 3.585-.135.352-.997.408-6.21.408-5.432 0-6.094-.047-6.46-.463M11.45 75.513c-2.637-.91-5.107-1.86-5.49-2.112-.86-.563-.932-1.774-.18-3.007.983-1.614 1.006-1.612 7.63.628l6.044 2.044-1.101 1.996c-.717 1.297-1.279 2.015-1.606 2.051-.277.03-2.66-.69-5.297-1.6m80.425-.124c-.535-.974-1.082-1.913-1.214-2.086-.176-.23.849-.668 3.813-1.627 2.23-.722 4.929-1.627 5.997-2.01 1.069-.384 2.16-.63 2.424-.545.645.204 1.203 1.108 1.426 2.31.338 1.819.043 2.015-6.057 4.044a145 145 0 0 1-4.03 1.282l-1.385.402zm-6.606-5.246c.864-6.132.823-12.688-.106-16.884-.289-1.303-.525-2.42-.525-2.485s.992-.055 2.205.02c3.94.247 4.367.59 9.946 8.003 2.418 3.213 3.37 4.73 3.878 6.181.295.844.282 1.025-.106 1.42-.49.5-12.454 4.551-14.31 4.846l-1.164.185zM77.03 45.53c-.237-.096-.331-.96-.331-3.022 0-3.087.103-3.29 1.264-2.477.524.368.588.641.588 2.531 0 2.744-.356 3.438-1.521 2.968"/></svg>