<svg xmlns="http://www.w3.org/2000/svg" xml:space="preserve" width="165.816" height="96.873" viewBox="0 0 43.872 25.631"><path d="M85.572 149.628a3.13 3.13 0 0 0-3.138 3.138v19.355c0 1.738 1.4 3.138 3.138 3.138h37.597c1.738 0 3.138-1.4 3.138-3.138v-19.355c0-1.738-1.4-3.138-3.138-3.138zm-.02 1.698a1.47 1.47 0 0 1 1.469 1.47 1.47 1.47 0 0 1-1.47 1.469 1.47 1.47 0 0 1-1.47-1.47 1.47 1.47 0 0 1 1.47-1.47m37.462.075a1.47 1.47 0 0 1 1.469 1.47 1.47 1.47 0 0 1-1.47 1.468 1.47 1.47 0 0 1-1.469-1.469 1.47 1.47 0 0 1 1.47-1.47m-34.044 2.883h7.878v2.887h-2.426v12.59h-3.067v-12.59H88.97zm17.44 0h5.914v2.667h-3.769a140 140 0 0 1-.42 2.505q2.304.12 3.467 1.444t1.163 3.668q0 2.546-1.303 3.99-1.283 1.463-3.788 1.463a6.7 6.7 0 0 1-2.988-.702l.522-2.686q.882.702 1.884.702 1.163 0 1.784-.822.621-.802.622-1.985 0-1.383-.843-2.065-.84-.681-2.285-.681-.42 0-1.162.12zm9.603 0h4.45v15.477h-2.967v-12.81h-1.483zm-18.163 7.338h5.132v2.726H97.85zm-12.331 8.881a1.47 1.47 0 0 1 1.47 1.47 1.47 1.47 0 0 1-1.47 1.47 1.47 1.47 0 0 1-1.47-1.47 1.47 1.47 0 0 1 1.47-1.47m37.34.033a1.47 1.47 0 0 1 1.47 1.47 1.47 1.47 0 0 1-1.47 1.469 1.47 1.47 0 0 1-1.469-1.47 1.47 1.47 0 0 1 1.47-1.47" style="display:inline;fill:#000;fill-opacity:1;fill-rule:evenodd;stroke-width:5.5" transform="translate(-82.434 -149.628)"/></svg>