<?xml version="1.0" encoding="UTF-8" standalone="no"?>
<!-- Created with Inkscape (http://www.inkscape.org/) -->

<svg
   width="43.872257mm"
   height="25.630995mm"
   viewBox="0 0 43.872257 25.630995"
   version="1.1"
   id="svg1"
   xml:space="preserve"
   xmlns:inkscape="http://www.inkscape.org/namespaces/inkscape"
   xmlns:sodipodi="http://sodipodi.sourceforge.net/DTD/sodipodi-0.dtd"
   xmlns="http://www.w3.org/2000/svg"
   xmlns:svg="http://www.w3.org/2000/svg"><sodipodi:namedview
     id="namedview1"
     pagecolor="#ffffff"
     bordercolor="#000000"
     borderopacity="0.25"
     inkscape:showpageshadow="2"
     inkscape:pageopacity="0.0"
     inkscape:pagecheckerboard="0"
     inkscape:deskcolor="#d1d1d1"
     inkscape:document-units="mm" /><defs
     id="defs1" /><g
     inkscape:label="Слой 1"
     inkscape:groupmode="layer"
     id="layer1"
     transform="translate(-82.434244,-149.62808)"><path
       id="rect758"
       style="display:inline;fill:#000000;fill-opacity:1;fill-rule:evenodd;stroke-width:5.5"
       inkscape:label="frame"
       d="m 85.572038,149.62808 c -1.738483,0 -3.137793,1.39982 -3.137793,3.13831 v 19.35437 c 0,1.73848 1.39931,3.13831 3.137793,3.13831 h 37.596672 c 1.73848,0 3.13779,-1.39983 3.13779,-3.13831 v -19.35437 c 0,-1.73849 -1.39931,-3.13831 -3.13779,-3.13831 z m -0.02067,1.69757 a 1.4694887,1.4694887 0 0 1 1.469678,1.46967 1.4694887,1.4694887 0 0 1 -1.469678,1.46968 1.4694887,1.4694887 0 0 1 -1.469678,-1.46968 1.4694887,1.4694887 0 0 1 1.469678,-1.46967 z m 37.462312,0.0749 a 1.4694887,1.4694887 0 0 1 1.46916,1.46968 1.4694887,1.4694887 0 0 1 -1.46916,1.46916 1.4694887,1.4694887 0 0 1 -1.46968,-1.46916 1.4694887,1.4694887 0 0 1 1.46968,-1.46968 z m -35.513594,3.04477 h 7.797974 v 2.85719 h -2.400887 v 12.46074 h -3.03599 v -12.46074 h -2.361097 z m 19.207094,0 h 3.33313 v 9.3059 h 1.23042 v 2.3213 h -1.23042 v 3.69073 h -2.95641 v -3.69073 h -4.44417 v -2.28203 z m 8.01605,0 h 5.85339 v 2.6386 h -3.73001 c -0.13228,0.83336 -0.27152,1.66034 -0.41702,2.48047 1.52121,0.0794 2.66564,0.55529 3.43286,1.42834 0.76722,0.87304 1.15084,2.08363 1.15084,3.6313 0,1.67995 -0.43003,2.99618 -1.28985,3.9486 -0.84659,0.96564 -2.09666,1.44849 -3.75016,1.44849 -1.03178,0 -2.01722,-0.23156 -2.95641,-0.69453 l 0.51573,-2.65876 c 0.58204,0.46298 1.20413,0.69453 1.86552,0.69453 0.76723,0 1.35572,-0.27104 1.76579,-0.81338 0.41007,-0.52912 0.61495,-1.18429 0.61495,-1.96474 0,-0.91273 -0.27797,-1.59405 -0.83354,-2.0438 -0.55558,-0.44976 -1.30947,-0.67438 -2.26188,-0.67438 -0.27779,0 -0.6614,0.0395 -1.15084,0.11885 z m -7.6786,3.49178 -2.28203,5.81412 h 2.3213 v -5.81412 z m -10.754382,3.77031 h 5.079272 v 2.69855 h -5.079272 z m -10.771436,8.79585 a 1.4694887,1.4694887 0 0 1 1.469678,1.46968 1.4694887,1.4694887 0 0 1 -1.469678,1.46916 1.4694887,1.4694887 0 0 1 -1.469678,-1.46916 1.4694887,1.4694887 0 0 1 1.469678,-1.46968 z m 37.340868,0.0326 a 1.4694887,1.4694887 0 0 1 1.46917,1.46968 1.4694887,1.4694887 0 0 1 -1.46917,1.46916 1.4694887,1.4694887 0 0 1 -1.46967,-1.46916 1.4694887,1.4694887 0 0 1 1.46967,-1.46968 z" /></g></svg>
