<svg xmlns="http://www.w3.org/2000/svg" xml:space="preserve" width="165.816" height="96.873" viewBox="0 0 43.872 25.631"><path d="M85.572 149.628a3.13 3.13 0 0 0-3.138 3.138v19.355c0 1.738 1.4 3.138 3.138 3.138h37.597c1.738 0 3.138-1.4 3.138-3.138v-19.355c0-1.738-1.4-3.138-3.138-3.138zm-.02 1.698a1.47 1.47 0 0 1 1.469 1.47 1.47 1.47 0 0 1-1.47 1.469 1.47 1.47 0 0 1-1.47-1.47 1.47 1.47 0 0 1 1.47-1.47m37.462.075a1.47 1.47 0 0 1 1.469 1.47 1.47 1.47 0 0 1-1.47 1.468 1.47 1.47 0 0 1-1.469-1.469 1.47 1.47 0 0 1 1.47-1.47M87.5 154.445h7.798v2.858h-2.4v12.46H89.86v-12.46h-2.36zm19.207 0h3.333v9.306h1.23v2.322h-1.23v3.69h-2.956v-3.69h-4.444v-2.283zm8.016 0h5.854v2.639h-3.73q-.2 1.25-.417 2.48 2.28.12 3.432 1.429 1.151 1.31 1.151 3.631 0 2.52-1.29 3.949-1.269 1.448-3.75 1.448a6.6 6.6 0 0 1-2.956-.694l.516-2.66q.873.695 1.865.695 1.15 0 1.766-.813.615-.794.615-1.965 0-1.368-.834-2.044-.833-.674-2.262-.674-.416 0-1.15.119zm-7.678 3.492-2.282 5.814h2.32v-5.814zm-10.755 3.77h5.08v2.699h-5.08zm-10.771 8.796a1.47 1.47 0 0 1 1.47 1.47 1.47 1.47 0 0 1-1.47 1.47 1.47 1.47 0 0 1-1.47-1.47 1.47 1.47 0 0 1 1.47-1.47m37.34.033a1.47 1.47 0 0 1 1.47 1.47 1.47 1.47 0 0 1-1.47 1.469 1.47 1.47 0 0 1-1.469-1.47 1.47 1.47 0 0 1 1.47-1.47" style="display:inline;fill:#000;fill-opacity:1;fill-rule:evenodd;stroke-width:5.5" transform="translate(-82.434 -149.628)"/></svg>