<?xml version="1.0" encoding="UTF-8" standalone="no"?>
<!-- Created with Inkscape (http://www.inkscape.org/) -->

<svg
   width="43.872257mm"
   height="25.630995mm"
   viewBox="0 0 43.872257 25.630995"
   version="1.1"
   id="svg1"
   xml:space="preserve"
   xmlns:inkscape="http://www.inkscape.org/namespaces/inkscape"
   xmlns:sodipodi="http://sodipodi.sourceforge.net/DTD/sodipodi-0.dtd"
   xmlns="http://www.w3.org/2000/svg"
   xmlns:svg="http://www.w3.org/2000/svg"><sodipodi:namedview
     id="namedview1"
     pagecolor="#ffffff"
     bordercolor="#000000"
     borderopacity="0.25"
     inkscape:showpageshadow="2"
     inkscape:pageopacity="0.0"
     inkscape:pagecheckerboard="0"
     inkscape:deskcolor="#d1d1d1"
     inkscape:document-units="mm" /><defs
     id="defs1" /><g
     inkscape:label="Слой 1"
     inkscape:groupmode="layer"
     id="layer1"
     transform="translate(-82.434244,-149.62808)"><rect
       style="display:none;fill:#000000;fill-opacity:1;fill-rule:evenodd;stroke-width:5.5"
       id="rect756"
       width="172.25728"
       height="99.290382"
       x="24.245327"
       y="118.68665"
       ry="20.620832" /><path
       id="rect758"
       style="display:inline;fill:#000000;fill-opacity:1;fill-rule:evenodd;stroke-width:5.5"
       inkscape:label="frame"
       d="m 85.572038,149.62808 c -1.738483,0 -3.137793,1.39982 -3.137793,3.13831 v 19.35437 c 0,1.73848 1.39931,3.13831 3.137793,3.13831 h 37.596672 c 1.73848,0 3.13779,-1.39983 3.13779,-3.13831 v -19.35437 c 0,-1.73849 -1.39931,-3.13831 -3.13779,-3.13831 z m -0.02067,1.69757 a 1.4694887,1.4694887 0 0 1 1.469678,1.46967 1.4694887,1.4694887 0 0 1 -1.469678,1.46968 1.4694887,1.4694887 0 0 1 -1.469678,-1.46968 1.4694887,1.4694887 0 0 1 1.469678,-1.46967 z m 37.462312,0.0749 a 1.4694887,1.4694887 0 0 1 1.46916,1.46968 1.4694887,1.4694887 0 0 1 -1.46916,1.46916 1.4694887,1.4694887 0 0 1 -1.46968,-1.46916 1.4694887,1.4694887 0 0 1 1.46968,-1.46968 z m -35.513594,2.88354 h 7.878589 v 2.88716 H 92.952983 V 169.7607 H 89.88547 v -12.58942 h -2.385385 z m 18.944064,0 h 2.96726 c -0.98898,2.01805 -1.97828,4.02957 -2.96726,6.03426 l 0.0403,0.0403 c 0.62813,-0.56131 1.27635,-0.84233 1.94458,-0.84233 0.53458,0 1.01566,0.16036 1.44332,0.48111 0.42767,0.32075 0.75517,0.73548 0.98237,1.24333 0.24056,0.49449 0.41398,1.009 0.5209,1.54358 0.10692,0.52122 0.16071,1.03572 0.16071,1.54357 0,0.73506 -0.0736,1.42298 -0.22065,2.06448 -0.14701,0.6415 -0.38102,1.24323 -0.70177,1.80454 -0.33411,0.54795 -0.78855,0.9888 -1.36322,1.32292 -0.58805,0.33411 -1.26918,0.50126 -2.04432,0.50126 -0.73506,0 -1.38328,-0.15357 -1.94459,-0.46096 -0.56131,-0.32075 -1.00268,-0.74175 -1.32343,-1.26297 -0.32075,-0.52122 -0.56103,-1.09579 -0.7214,-1.72392 -0.16038,-0.62814 -0.24082,-1.29673 -0.24082,-2.00505 0,-1.26963 0.187,-2.47885 0.56121,-3.6282 0.36084,-1.13599 0.90878,-2.47944 1.64383,-4.02973 0.4143,-0.8687 0.8353,-1.74414 1.26297,-2.6262 z m 8.5602,0 h 5.91385 v 2.66651 h -3.76876 c -0.13365,0.84196 -0.27415,1.67718 -0.42116,2.50579 1.53692,0.0802 2.69286,0.56126 3.468,1.44332 0.77515,0.88206 1.16272,2.10485 1.16272,3.66851 0,1.6973 -0.43407,3.02717 -1.30276,3.98942 -0.85533,0.97561 -2.11835,1.46348 -3.78892,1.46348 -1.04243,0 -2.03801,-0.23401 -2.9869,-0.70177 l 0.5209,-2.68614 c 0.58804,0.46776 1.21641,0.70177 1.88464,0.70177 0.77515,0 1.37009,-0.27423 1.78439,-0.82218 0.4143,-0.53458 0.62115,-1.19586 0.62115,-1.98437 0,-0.92216 -0.2805,-1.6106 -0.84181,-2.06499 -0.56131,-0.4544 -1.3234,-0.68161 -2.28565,-0.68161 -0.28065,0 -0.66823,0.0402 -1.16272,0.1204 z m -18.623669,7.33754 h 5.131989 v 2.72593 h -5.131989 z m 10.945589,0.601 c -0.34748,0 -0.63477,0.18072 -0.86197,0.54157 -0.21383,0.36084 -0.35382,0.72177 -0.42064,1.08262 -0.0535,0.36084 -0.0806,0.71499 -0.0806,1.06246 0,0.30739 0.0334,0.63489 0.10025,0.98237 0.0668,0.34748 0.20054,0.68805 0.40101,1.02216 0.21384,0.32075 0.47448,0.48111 0.78187,0.48111 0.28065,0 0.51466,-0.10029 0.70176,-0.30076 0.18711,-0.20047 0.32082,-0.46111 0.40101,-0.78186 0.0936,-0.32075 0.15362,-0.61483 0.18035,-0.88212 0.0267,-0.25392 0.0398,-0.51457 0.0398,-0.78186 0,-0.2272 -0.0199,-0.46069 -0.0599,-0.70125 -0.0267,-0.24056 -0.0868,-0.50121 -0.18035,-0.78187 -0.0802,-0.28065 -0.20712,-0.50787 -0.38086,-0.68161 -0.16037,-0.17374 -0.36774,-0.26096 -0.62166,-0.26096 z m -21.807458,8.28063 a 1.4694887,1.4694887 0 0 1 1.469678,1.46968 1.4694887,1.4694887 0 0 1 -1.469678,1.46916 1.4694887,1.4694887 0 0 1 -1.469678,-1.46916 1.4694887,1.4694887 0 0 1 1.469678,-1.46968 z m 37.340868,0.0326 a 1.4694887,1.4694887 0 0 1 1.46917,1.46968 1.4694887,1.4694887 0 0 1 -1.46917,1.46916 1.4694887,1.4694887 0 0 1 -1.46967,-1.46916 1.4694887,1.4694887 0 0 1 1.46967,-1.46968 z" /></g></svg>
