<?xml version="1.0" encoding="UTF-8" standalone="no"?>
<svg
   width="107.55007mm"
   height="62.832893mm"
   viewBox="0 0 107.55007 62.832893"
   version="1.1"
   xml:space="preserve"
   xmlns="http://www.w3.org/2000/svg"
   xmlns:svg="http://www.w3.org/2000/svg"><g
     transform="translate(-56.587222,-23.985081)"><path
       d="m 64.279281,23.985099 c -4.25262,-0.009 -7.702037,3.441484 -7.692037,7.694104 v 47.44465 c -0.01,4.25262 3.439417,7.703104 7.692037,7.694104 h 92.165949 c 4.25263,0.009 7.70204,-3.441484 7.69204,-7.694104 v -47.44465 c 0.01,-4.25262 -3.43941,-7.703104 -7.69204,-7.694104 z m 92.216079,4.16202 c 4.80266,0 4.80266,7.204212 0,7.204212 -4.80267,0 -4.80267,-7.204212 0,-7.204212 z m -91.836258,0.182935 h 10e-4 c 4.80333,0 4.80333,7.205245 0,7.205245 -4.8033,6.7e-4 -4.804466,-7.204575 -10e-4,-7.205245 z m 47.413648,2.172477 c 2.21971,3.639967 4.03683,7.533985 6.28385,11.169861 0.8799,2.616068 4.07999,4.473026 3.86178,7.247619 -1.22091,7.28103 -2.63263,14.534061 -3.67161,21.843628 1.91805,-5.846254 3.2927,-11.871324 5.01365,-17.78031 1.49606,-1.877894 3.67515,-3.240898 5.2865,-5.079276 1.13764,-0.932466 3.26012,-4.035567 2.90938,-0.792717 0.35808,3.552096 0.3876,7.146718 1.04645,10.662399 -2.5263,4.481321 -5.01665,8.982343 -7.52151,13.475663 1.84051,-0.18514 3.19208,0.801729 4.03335,2.364197 0.86666,1.414198 2.7519,1.436953 3.74395,2.835485 0.86938,0.177016 4.4651,0.552074 2.23398,1.042831 -3.54646,0.326523 -7.10292,0.536248 -10.63243,1.054716 -3.79958,0.919773 -7.75807,1.223558 -11.66389,1.270206 -2.20313,-0.59568 -4.63913,-1.359743 -6.80372,-0.100252 -0.96094,0.559459 -2.01351,0.645549 -3.10058,0.551388 -1.20621,-0.01252 -2.41604,-0.01435 -3.617352,-0.133842 -1.736855,-0.402775 -3.687177,-0.826291 -5.000211,-1.853634 -3.074249,-0.121081 -6.165142,-0.04072 -9.223727,-0.389123 -2.142587,-1.165574 2.787174,-0.548258 3.099553,-1.867587 1.476683,-0.629607 2.100502,-2.185509 3.439066,-2.635498 1.039401,-0.180206 4.100051,0.816127 3.179134,-0.612365 -2.330854,-3.797017 -4.71581,-7.560663 -7.078637,-11.33781 0.741542,-3.414141 0.170776,-6.954972 0.422196,-10.417968 2.557555,1.655265 5.111404,3.331275 7.860502,4.65863 2.136974,4.726554 4.122146,9.523523 6.364466,14.2012 -0.4247,-3.465045 -1.30956,-7.030933 -1.93476,-10.534757 -0.657817,-3.364094 -1.319003,-6.727652 -1.978693,-10.091374 5.295033,-5.633807 9.293003,-12.279395 13.449313,-18.75131 z m 0.34054,2.709912 c -0.3939,3.955874 -0.92917,7.899042 -1.31309,11.85354 0.11143,0.631567 0.0481,2.802964 1.18235,1.754932 1.92504,-1.14674 3.85135,-2.338419 5.5423,-3.817338 -1.82304,-3.253038 -3.6487,-6.504941 -5.41156,-9.791134 z m 4.19458,11.926404 c -2.38368,1.174084 -4.43648,3.047425 -6.63629,4.575431 -2.24931,1.357771 -0.59441,4.365322 -0.85783,6.505546 0.35483,5.781346 0.78384,11.567499 1.12035,17.343644 l 0.19895,-0.102319 0.3607,-0.246496 c 1.85727,-1.268961 3.92275,-2.67054 6.22495,-1.690337 1.50731,-7.800146 2.74984,-15.655681 3.97908,-23.506575 -1.46457,-0.954557 -2.80287,-2.148822 -4.38991,-2.878894 z m 14.16244,3.512447 c -0.10599,-0.01035 -0.2569,0.251378 -0.47594,0.942061 -0.36622,1.926912 -3.127,5.510588 -0.85576,6.637838 0.43048,-0.03257 0.84883,-0.153538 1.25212,-0.302307 1.82615,-0.315821 0.0982,-2.831349 0.48007,-4.068486 -0.16513,-0.697712 -0.0825,-3.178042 -0.40049,-3.209106 z m -41.119968,4.507218 c 0.908596,1.883237 1.36216,4.421384 3.177067,5.590357 0.364919,-0.309292 0.560408,-0.752472 0.782898,-1.161686 1.847992,-2.364499 -2.964742,-3.726488 -3.959965,-4.428671 z m 5.98103,3.719153 c -1.83783,1.048778 -3.485224,3.770611 -1.582332,5.682341 1.210975,2.193617 2.362832,4.713437 3.93671,6.511747 0.52358,0.807696 0.977831,2.809662 2.30374,1.583883 2.51943,0.244816 0.25327,-1.859291 0.0661,-3.076298 -1.575253,-3.566533 -3.146923,-7.13836 -4.724258,-10.701673 z m 34.118328,0.09302 c -1.84892,0.04333 -3.52202,1.454579 -3.76979,3.522265 -1.51765,3.743392 -2.62604,7.628695 -3.99304,11.424109 -0.19991,0.705754 1.14859,-0.203994 1.37511,-0.22996 1.99462,-1.481901 2.71537,-4.135775 4.08399,-6.159314 1.38904,-2.698491 3.14874,-5.258735 4.16512,-8.118367 -0.60912,-0.315832 -1.24508,-0.453177 -1.86139,-0.438733 z m -28.51144,14.467334 c -0.27432,-0.0089 -0.54325,0.0396 -0.80408,0.170015 -1.148185,0.739106 -3.433067,2.014486 -3.587895,2.591057 1.174405,-0.514041 8.199485,1.944658 7.354585,4.147033 -0.0294,0.477819 0.68039,-1.543334 1.07591,-1.604553 1.13565,-0.385886 2.69522,-1.075042 0.54312,-0.496094 -2.01954,0.828385 1.60106,-1.592295 2.27841,-1.629358 0.95687,-0.410876 -2.59357,-1.335933 -3.22616,-1.813842 -1.15613,-0.208996 -2.44513,-1.325907 -3.63389,-1.364258 z m 13.59142,1.018542 c -1.08345,0.02497 -3.42269,1.607491 -0.93586,0.849044 1.8032,4.116631 1.93032,3.978594 8.9762,3.884001 -2.30396,-2.139084 -5.18185,-3.502019 -8.04034,-4.733045 z m 11.10837,0.147795 c -1.15838,0.03639 -2.46653,0.575327 -3.30161,1.055233 0.77437,0.92309 6.77572,3.062117 5.7056,0.90382 -0.23669,-1.529451 -1.24562,-1.995442 -2.40399,-1.959053 z m 30.63741,2.554883 h 5.1e-4 5.2e-4 c 4.80227,0.001 4.80184,7.204728 -0.001,7.204728 -4.80297,-6.7e-4 -4.80224,-7.204308 0,-7.204728 z m -91.540153,0.07958 h 10e-4 c 4.80336,-0.001 4.805298,7.204245 0.0021,7.205245 -4.80333,0.002 -4.80643,-7.203245 -0.0031,-7.205245 z m 65.872983,0.634587 c -0.83646,-0.06054 -1.88143,1.057821 -0.24288,0.788066 0.1447,-0.0237 0.69942,0.570342 0.98237,0.266133 -0.0225,-0.755587 -0.35928,-1.026682 -0.73949,-1.054199 z m -26.84953,2.841687 c -0.10913,0.01761 0.15366,0.799804 0.0713,0.04599 -0.0329,-0.0354 -0.0557,-0.04851 -0.0713,-0.04599 z" /></g></svg>
