<svg xmlns="http://www.w3.org/2000/svg" xml:space="preserve" width="275.838" height="353.031" viewBox="0 0 72.982 93.406"><path d="M27.832 0c-.368 0-6.702 3.738-7.543 4.451-.386.328-.463.85-.463 3.125v2.732l1.02.52c1.395.712 10.387 4.701 12.341 5.475 1.063.421 1.906.586 2.55.5.896-.122 7.218-2.568 13.788-5.335l2.845-1.199V4.55l-1.39-.91C47.932 1.639 45.296 0 45.13 0c-.095 0-1.086.674-2.2 1.499-1.115.824-3.098 2.131-4.407 2.905l-2.38 1.406-.949-.57c-2.18-1.313-5.505-3.68-6.226-4.432C28.542.364 28.03 0 27.832 0m26.585 11.642-9.247 3.704c-5.086 2.037-9.43 3.704-9.655 3.704-.51 0-7.923-2.945-11.985-4.761-5.566-2.488-5.514-2.472-7.938-2.494-3.641-.033-4.03.365-6.565 6.726C5.963 26.209 3.715 31.1.905 36.204c-1.623 2.947-1.124 5.12 1.987 8.643.9 1.019 2.363 2.864 3.253 4.1 3.727 5.18 7.21 9.668 8.85 11.406 1.222 1.296 1.807 1.75 1.94 1.509.255-.466 1.568-5.45 1.568-5.952 0-.22-.59-.93-1.31-1.577-3.901-3.508-7.677-11.385-7.684-16.031-.002-1.115.202-1.556 1.83-3.97 4.58-6.787 6.195-9.855 7.342-13.94.262-.934.872.69 2.275 6.066.817 3.129 1.611 6.395 1.765 7.259.397 2.225.342 7.887-.115 11.924-.214 1.891-.39 3.678-.394 3.969-.004.38.575.881 2.046 1.772 2.87 1.738 9.92 5.498 10.317 5.5.44.005 9.425-4.41 12.194-5.991 2.123-1.212 2.2-1.289 2.057-2.064-.081-.443-.227-3.008-.324-5.7-.213-5.909.032-7.642 2.134-15.124a956 956 0 0 0 1.793-6.44c.195-.727.506-1.322.691-1.322s.6.774.92 1.72c.711 2.092 3.13 6.13 7.051 11.773l2.942 4.234-.145 1.389c-.318 3.032-2.164 6.746-5.366 10.798-2.23 2.82-3.804 4.318-5.266 5.012-.633.3-.872.567-.784.877.07.244.328 1.397.574 2.561.247 1.164.551 2.295.676 2.514.177.31.9-.3 3.294-2.778 9.362-9.694 14.72-15.667 15.503-17.283.797-1.646.565-3.517-.692-5.586-1.468-2.418-3.01-5.828-6.346-14.04-1.684-4.148-3.278-7.839-3.542-8.203-.876-1.21-2.04-1.586-4.908-1.587zM48.96 52.19c-3.481 1.87-13.825 6.81-14.257 6.811-.555.001-8.234-3.823-11.26-5.607-.721-.425-1.395-.677-1.496-.559-.3.345-3.147 12.155-3.594 14.898-.772 4.75-.75 18.246.041 24.54l.141 1.125h13.716l.117-.595c.175-.89.647-8.265.97-15.148.157-3.347.332-6.234.39-6.416.06-.191.547-.33 1.155-.33 1.038 0 1.052.013 1.186 1.124.075.618.207 3.089.294 5.49.086 2.401.421 6.925.744 10.054l.587 5.689 7.193.07 7.193.07.136-.864c.38-2.426.683-16.726.429-20.31-.329-4.645-.503-5.738-1.996-12.54-.642-2.926-1.248-5.83-1.346-6.455-.099-.624-.252-1.095-.342-1.047"/></svg>