<?xml version="1.0" encoding="UTF-8" standalone="no"?>
<svg
   width="107.55007mm"
   height="62.832893mm"
   viewBox="0 0 107.55007 62.832893"
   version="1.1"
   id="svg1"
   xml:space="preserve"
   xmlns="http://www.w3.org/2000/svg"
   xmlns:svg="http://www.w3.org/2000/svg"><g
     transform="translate(-45.016352,-28.150718)"><path
       d="m 52.708411,28.150736 c -4.25262,-0.0089 -7.702037,3.441484 -7.692037,7.694104 v 47.44465 c -0.01,4.25262 3.439417,7.703104 7.692037,7.694104 h 92.165949 c 4.25263,0.0089 7.70204,-3.441484 7.69204,-7.694104 V 35.84484 c 0.01,-4.25262 -3.43941,-7.703104 -7.69204,-7.694104 z m 58.442939,1.865003 c 0.26099,0 1.61058,0.801148 2.14819,1.275374 1.62074,1.429651 2.68226,3.221424 4.03232,6.804753 0.89142,2.365985 0.97073,2.417019 1.65261,1.068669 0.81464,-1.610868 0.7186,-3.147132 -0.33486,-5.356779 -0.2752,-0.577266 -0.50023,-1.084428 -0.50023,-1.127063 0,-0.191678 1.30157,1.22755 1.57768,1.720308 0.44534,0.794732 0.89171,2.109424 0.99012,2.916101 0.10715,0.877985 -0.16859,2.273005 -0.75551,3.824056 -0.2364,0.624738 -0.51764,1.588664 -0.62477,2.141988 -0.10716,0.553336 -0.42185,2.12477 -0.6997,3.492293 -0.27785,1.367536 -0.48678,2.583123 -0.46405,2.701128 0.031,0.160948 0.24798,0.01077 0.86816,-0.599964 1.4385,-1.41732 1.94857,-2.923088 1.85415,-5.474084 -0.0267,-0.722716 -0.0121,-1.314132 0.0341,-1.314132 0.0991,0 0.54832,1.117446 0.73329,1.823661 0.18527,0.707337 0.16265,2.8967 -0.0377,3.646806 -0.43293,1.620688 -1.31922,2.788871 -3.14089,4.139799 -3.40537,2.525383 -5.22848,3.511042 -8.62893,4.665348 -2.88505,0.979342 -3.99032,1.543647 -5.02295,2.564702 -0.95997,0.949213 -1.35277,1.635924 -1.15135,2.01228 0.12493,0.233365 0.15143,0.234911 0.65991,0.03514 0.29182,-0.114638 0.97346,-0.62319 1.51722,-1.131714 0.54305,-0.507842 1.1683,-0.998791 1.38906,-1.090889 0.22079,-0.09206 1.05473,-0.284031 1.85312,-0.426848 1.71884,-0.307439 2.40104,-0.531693 2.99258,-0.982885 l 0.43718,-0.33383 -0.0806,0.588594 c -0.13227,0.964952 -1.18681,4.019692 -1.60662,4.653463 -0.82134,1.240031 -1.64444,1.6446 -3.63441,1.786454 -1.31887,0.09406 -1.90112,0.281286 -2.42104,0.779281 -0.42298,0.405149 -0.43397,0.695273 -0.093,2.461865 0.46013,2.38437 0.99566,3.672395 2.25826,5.430677 0.97475,1.357448 1.08405,1.573621 0.79427,1.567862 -0.12346,-0.0027 -0.36555,-0.0857 -0.53847,-0.184484 -0.1729,-0.09887 -0.35469,-0.181509 -0.40359,-0.183968 -0.0489,-0.0027 0.16242,0.518801 0.46922,1.158585 0.52172,1.087954 1.00847,2.583556 0.88212,2.709912 -0.0307,0.03073 -0.29528,-0.119856 -0.58756,-0.334863 -0.29228,-0.214954 -0.55282,-0.369587 -0.57929,-0.343132 -0.0265,0.02645 0.0174,0.521304 0.0971,1.099158 0.14075,1.017836 0.091,2.32495 -0.11679,3.074748 l -0.10077,0.365352 -0.42478,-0.676444 -0.42478,-0.675928 -0.20257,0.675928 c -0.24062,0.802762 -0.68763,1.703031 -1.37046,2.759521 -0.27427,0.424348 -0.53292,0.878841 -0.57464,1.010274 -0.13,0.409638 -0.27949,0.264851 -0.4346,-0.421162 -0.0822,-0.363128 -0.17902,-0.767804 -0.21549,-0.89917 -0.0498,-0.179106 -0.22322,0.03387 -0.69247,0.85111 -0.41692,0.72615 -1.05199,1.541156 -1.90324,2.442229 -0.702699,0.743839 -1.385164,1.591634 -1.516704,1.884122 -0.13161,0.292488 -0.272823,0.530427 -0.314193,0.52865 -0.04138,-0.0027 -0.183902,-0.237418 -0.31626,-0.523999 -0.132665,-0.286986 -0.728558,-1.03527 -1.324466,-1.662947 -1.32469,-1.395313 -1.605776,-1.764571 -2.249476,-2.954859 l -0.504362,-0.932759 -0.08372,0.492993 c -0.046,0.27099 -0.1552,0.747087 -0.24288,1.058333 l -0.159163,0.565857 -0.152445,-0.377238 c -0.0839,-0.207498 -0.443558,-0.830055 -0.798918,-1.383378 -0.73156,-1.139088 -1.215685,-2.224651 -1.220081,-2.735233 -0.004,-0.495817 -0.140964,-0.426417 -0.56379,0.28577 -0.204505,0.344463 -0.410799,0.626319 -0.458886,0.626319 -0.259152,0 -0.359139,-3.317039 -0.124024,-4.118612 0.06587,-0.224801 0.09742,-0.408761 0.06976,-0.408761 -0.02779,0 -0.305828,0.179905 -0.61805,0.399976 -0.312222,0.220071 -0.596283,0.372132 -0.630969,0.337447 -0.12693,-0.12693 0.455303,-1.912173 0.910022,-2.790011 0.257201,-0.496566 0.486232,-0.943361 0.509013,-0.992704 0.02285,-0.0493 -0.220101,-4.53e-4 -0.540019,0.108521 -0.319932,0.109026 -0.609136,0.171165 -0.642338,0.137976 -0.03313,-0.03327 0.413211,-0.7414 0.992188,-1.574064 0.578964,-0.832665 1.172705,-1.792932 1.319299,-2.13372 0.45134,-1.049155 0.882625,-2.711325 1.048515,-4.040581 l 0.158646,-1.268656 -0.307474,-0.334346 C 92.392053,64.38566 91.663041,64.128084 90.419804,64.034851 88.964298,63.92569 88.392119,63.775035 87.811178,63.348588 86.878305,62.663805 86.496599,62.016986 85.840755,60.009774 85.501771,58.97227 85.18467,57.87552 85.135889,57.572196 l -0.08888,-0.551387 0.422713,0.315226 c 0.539134,0.402597 1.303192,0.647185 3.201872,1.024744 0.836847,0.166399 1.709721,0.399784 1.939933,0.518831 0.230212,0.119048 0.762324,0.57272 1.182357,1.007691 0.420027,0.43497 1.01436,0.915527 1.32085,1.068151 0.51867,0.258297 0.568135,0.262956 0.713135,0.0646 0.25462,-0.348231 -0.02956,-0.898113 -0.982886,-1.901693 -1.087899,-1.145274 -2.235004,-1.761298 -5.128886,-2.75332 -3.482279,-1.193735 -5.45593,-2.280062 -8.971545,-4.93975 -0.987025,-0.746713 -1.358842,-1.122952 -1.841232,-1.861902 -0.332531,-0.509392 -0.702029,-1.197251 -0.820622,-1.528072 -0.317005,-0.884291 -0.389757,-3.02592 -0.139009,-4.093807 0.181176,-0.771563 0.628133,-1.852083 0.765845,-1.852083 0.03033,0 0.02151,0.553073 -0.01964,1.228865 -0.09192,1.508696 0.181932,3.033386 0.729671,4.062284 0.20524,0.385535 0.738505,1.062882 1.18494,1.505335 0.988642,0.97985 0.981083,1.014808 0.38499,-1.891874 -0.234033,-1.141266 -0.49519,-2.499676 -0.580327,-3.018421 -0.08511,-0.518758 -0.466618,-1.874984 -0.84801,-3.014286 -0.600502,-1.793795 -0.692943,-2.198583 -0.689363,-3.01842 0.0053,-1.122574 0.443103,-2.629374 1.04283,-3.587378 0.398963,-0.637285 1.349392,-1.698088 1.521871,-1.698088 0.05184,0 -0.160479,0.52701 -0.471806,1.170988 -0.671717,1.389395 -1.006566,2.865744 -0.88005,3.878316 0.125461,1.003994 1.097685,2.646274 1.392164,2.351795 0.03995,-0.03995 0.431292,-1.001407 0.870231,-2.136821 0.438953,-1.135413 1.00958,-2.487183 1.267623,-3.003951 0.567005,-1.135507 1.636551,-2.596589 2.538346,-3.466972 0.610803,-0.589532 1.960098,-1.434021 2.291333,-1.434021 0.07683,0 -0.303175,0.442702 -0.844393,0.98392 -0.807639,0.807639 -1.109688,1.230371 -1.685685,2.357995 -0.947931,1.855791 -1.890417,4.597608 -1.632975,4.750098 0.04957,0.02939 0.577701,-0.242047 1.174088,-0.603064 1.1416,-0.691076 2.313004,-1.127362 3.568775,-1.329635 0.901767,-0.145249 1.823741,-0.159954 1.823661,-0.02894 -4e-5,0.05184 -0.447376,0.24834 -0.993738,0.436665 -1.687601,0.581662 -3.732827,1.951907 -5.500956,3.685564 -1.09839,1.076972 -1.235342,1.574162 -1.230933,4.460709 0.0027,2.130803 0.01624,2.242748 0.415995,3.521232 0.227045,0.726256 0.583553,1.641373 0.7922,2.033468 0.485115,0.911655 1.410289,2.060166 2.056205,2.552816 0.531959,0.405737 1.512589,0.793732 1.652613,0.653707 0.04556,-0.04556 -0.104714,-0.748202 -0.33383,-1.561145 -0.668897,-2.372826 -0.549691,-4.306302 0.387056,-6.277653 0.383691,-0.807492 1.440592,-2.305803 1.626258,-2.305803 0.05879,0 -0.09101,0.4275 -0.33228,0.949813 -1.436626,3.109383 -1.182877,6.379557 0.694532,8.952425 0.505945,0.693375 1.431947,1.298434 2.908349,1.900659 1.928075,0.786488 1.836701,0.786751 1.397331,-0.0026 -1.140791,-2.048058 -1.38905,-5.08294 -0.589628,-7.206795 0.295679,-0.785566 0.936203,-1.882246 1.039213,-1.779219 0.0293,0.02926 -0.06844,0.441102 -0.217558,0.914673 -0.36571,1.162229 -0.461383,3.08816 -0.211873,4.258138 0.21377,1.002444 0.871299,2.783468 1.162719,3.149161 0.18415,0.231067 0.190586,0.222212 0.117306,-0.158646 -0.0884,-0.459489 0.204555,-1.733665 0.575675,-2.50269 0.13704,-0.283991 0.448578,-0.736793 0.691948,-1.00614 l 0.44235,-0.489376 -0.257349,0.531751 c -0.45505,0.939847 -0.666581,2.127763 -0.587561,3.303674 0.0612,0.910707 0.145972,1.218572 0.571542,2.078426 0.27474,0.555101 0.779772,1.438337 1.122412,1.963188 l 0.623218,0.954463 0.640271,-0.0615 c 0.44672,-0.04289 0.728202,-0.004 0.930692,0.128675 0.25828,0.169232 0.32992,0.169152 0.65009,0.001 0.23677,-0.124125 0.569766,-0.167965 0.973583,-0.129191 0.70002,0.06721 0.63673,0.127315 1.66915,-1.582332 0.98579,-1.632447 1.22176,-2.252557 1.29294,-3.396175 0.0738,-1.184542 -0.0904,-2.121948 -0.54415,-3.101103 l -0.32091,-0.691431 0.39326,0.376205 c 0.73647,0.704958 1.53884,2.857269 1.34358,3.603914 -0.0335,0.128133 -0.0172,0.232544 0.0362,0.232544 0.16743,0 0.90157,-1.777965 1.16685,-2.826184 0.32549,-1.286073 0.26199,-3.463529 -0.13746,-4.713407 -0.14273,-0.446622 -0.2376,-0.834679 -0.21032,-0.861963 0.0273,-0.02726 0.22312,0.225125 0.43511,0.560689 0.4839,0.766006 0.9806,2.297071 1.08934,3.358451 0.15271,1.490551 -0.36607,3.822713 -1.156,5.196582 -0.16614,0.288988 -0.30231,0.551285 -0.30231,0.582911 0,0.07255 2.39203,-0.913194 3.13005,-1.289844 2.52374,-1.28801 3.9302,-5.595492 2.85615,-8.74727 -0.18856,-0.553337 -0.50464,-1.331386 -0.70228,-1.729093 -0.19764,-0.39772 -0.30854,-0.722954 -0.2465,-0.722954 0.22299,0 1.17185,1.340316 1.64693,2.326473 0.97421,2.022204 1.08513,3.962059 0.35502,6.214608 -0.57675,1.779366 -0.50801,1.91331 0.69453,1.346171 0.72704,-0.342873 1.3713,-0.954806 2.15181,-2.043803 0.70454,-0.983044 1.09044,-1.860451 1.49603,-3.403926 0.40977,-1.559428 0.50858,-2.920499 0.32298,-4.439523 -0.23951,-1.960355 -0.28909,-2.064085 -1.61127,-3.356384 -1.79689,-1.756291 -3.82154,-3.067318 -5.42448,-3.512964 -1.47797,-0.410921 -0.49377,-0.568179 1.44281,-0.230477 1.08002,0.188351 2.59711,0.815911 3.84576,1.590601 0.25448,0.157889 0.50431,0.245512 0.555,0.19482 0.14154,-0.141548 -0.40271,-2.021668 -0.97203,-3.358968 -0.72489,-1.702713 -1.2779,-2.568227 -2.35438,-3.682463 -0.51788,-0.536035 -0.90226,-0.974617 -0.8537,-0.974617 z m 33.77314,2.297017 c 4.80266,0 4.80266,7.204212 0,7.204212 -4.80267,0 -4.80267,-7.204212 0,-7.204212 z m -91.836258,0.182935 h 0.001 c 4.80333,0 4.80333,7.205245 0,7.205245 -4.8033,6.7e-4 -4.804398,-7.204575 -0.001,-7.205245 z m 50.487358,30.217794 c -0.21314,0 -0.89737,0.647074 -1.10122,1.04128 -0.20981,0.405723 -0.67824,1.991145 -0.66715,2.25826 0.004,0.08738 0.10268,0.0173 0.22014,-0.155546 0.11744,-0.172906 0.43247,-0.554507 0.70022,-0.84801 0.26777,-0.293504 0.6921,-0.656909 0.94309,-0.807703 0.25099,-0.150806 0.47241,-0.284354 0.49145,-0.29714 0.082,-0.05505 -0.47744,-1.191141 -0.58653,-1.191141 z m -9.489343,0.08992 c -0.173034,-0.0088 -0.290335,0.180567 -0.446485,0.612365 -0.15253,0.421863 -0.146582,0.478457 0.05943,0.593763 0.43553,0.243747 1.306062,1.122655 1.649512,1.665531 0.19006,0.300411 0.36382,0.52758 0.38654,0.504879 0.0227,-0.02271 -0.0448,-0.413656 -0.150379,-0.868681 -0.25325,-1.09199 -0.643032,-1.897812 -1.106392,-2.287716 -0.164479,-0.138392 -0.288404,-0.214854 -0.392224,-0.220141 z m 9.695533,1.815393 c -0.0253,-0.01182 -0.0685,0.03896 -0.14831,0.144177 -0.0942,0.124258 -0.1425,0.33586 -0.10749,0.469739 0.0469,0.179252 -0.0266,0.277318 -0.27854,0.373104 -0.28403,0.107958 -0.31612,0.161907 -0.18758,0.316776 0.0942,0.113569 0.10377,0.186552 0.0243,0.186552 -0.0719,0 -0.15387,-0.06983 -0.18242,-0.155546 -0.041,-0.123056 -0.12234,-0.123474 -0.38757,-0.0026 -0.54342,0.247595 -0.40734,0.430893 0.38499,0.518315 0.0853,0.0094 0.32273,-0.138597 0.52761,-0.328662 0.35586,-0.33026 0.43569,-0.589851 0.39584,-1.288811 -0.008,-0.146397 -0.0155,-0.221244 -0.0408,-0.23306 z m -9.858831,0.160197 c -0.02031,0.0057 -0.0411,0.01835 -0.06201,0.03927 -0.0832,0.08324 -0.100772,0.335424 -0.04599,0.659391 0.10622,0.628653 0.591733,0.998156 1.195793,0.909505 0.32572,-0.04783 0.359326,-0.08423 0.224276,-0.247013 -0.0872,-0.105018 -0.399101,-0.294147 -0.692981,-0.420129 -0.38468,-0.164876 -0.5135,-0.28362 -0.45992,-0.42323 0.09715,-0.25311 -0.01702,-0.557703 -0.159164,-0.517798 z m 0.576709,1.204577 c 0.0732,0 0.132809,0.05637 0.132809,0.125574 0,0.06921 -0.02489,0.125574 -0.05529,0.125574 -0.0305,0 -0.09061,-0.0565 -0.133325,-0.125574 -0.0428,-0.06921 -0.01749,-0.125574 0.05581,-0.125574 z m 4.288111,1.221114 c -0.06126,0.01836 -0.119055,0.265177 -0.15813,0.73639 -0.0561,0.677115 -0.09161,0.737522 -0.901754,1.528072 -1.6009,1.562047 -1.983565,3.077602 -0.960665,3.805969 0.25516,0.181685 0.55633,0.253731 1.0604,0.253731 0.38703,0 0.703317,-0.05116 0.703317,-0.113688 0,-0.06266 -0.240375,-0.255505 -0.534335,-0.428398 -0.40984,-0.241034 -0.5709,-0.433921 -0.69143,-0.827339 -0.21666,-0.707109 -0.198036,-0.943985 0.09508,-1.209229 0.24318,-0.220085 0.275853,-0.220062 0.916223,-0.0026 0.61953,0.210571 0.691101,0.211908 1.061951,0.02015 0.52776,-0.272928 0.619298,-0.261524 0.861454,0.108004 0.18175,0.27739 0.18605,0.38219 0.0346,0.903821 -0.13241,0.456416 -0.292505,0.675571 -0.705905,0.967899 -0.29396,0.207872 -0.534334,0.420023 -0.534334,0.471289 0,0.125461 0.590636,0.195803 1.131719,0.134876 0.2947,-0.03314 0.57489,-0.190163 0.84853,-0.475423 h 5.1e-4 c 0.31412,-0.327467 0.40814,-0.535797 0.40721,-0.899687 -0.003,-0.74754 -0.54645,-1.736581 -1.497067,-2.719731 -0.81414,-0.842017 -0.873161,-0.941961 -0.956531,-1.619022 -0.05458,-0.443121 -0.119604,-0.653467 -0.180867,-0.635104 z m 0.978234,3.995622 c -0.037,-0.03701 -0.203023,0.04574 -0.368453,0.183452 -0.3439,0.286408 -0.17433,0.345334 0.19327,0.06718 0.13334,-0.100876 0.212203,-0.213607 0.175183,-0.250632 z m -0.260449,2.7311 c -0.3977,-0.02071 -1.048206,-0.02003 -1.445906,0.0026 l -0.72347,0.03928 0.565857,0.285253 c 0.66469,0.335003 1.437207,0.314311 1.979207,-0.05323 v -5.17e-4 l 0.347778,-0.235645 z m 45.499036,5.393469 h 5.1e-4 5.2e-4 c 4.80227,0.0011 4.8019,7.204728 -0.001,7.204728 -4.80297,-6.7e-4 -4.80224,-7.204306 0,-7.204728 z m -91.540153,0.07958 h 0.001 c 4.80336,-0.0013 4.805364,7.204245 0.0021,7.205245 -4.80333,0.002 -4.80643,-7.203245 -0.0031,-7.205245 z" /></g></svg>
