<?xml version="1.0" encoding="UTF-8" standalone="no"?>
<svg
   width="107.55007mm"
   height="62.832893mm"
   viewBox="0 0 107.55007 62.832893"
   version="1.1"
   xml:space="preserve"
   xmlns="http://www.w3.org/2000/svg"
   xmlns:svg="http://www.w3.org/2000/svg"><g
     transform="translate(-56.785659,-24.117373)"><path
       d="m 64.477718,24.117391 c -4.25262,-0.009 -7.702037,3.441484 -7.692037,7.694104 v 47.444649 c -0.01,4.25262 3.439417,7.703104 7.692037,7.694104 h 92.165952 c 4.25263,0.009 7.70204,-3.441484 7.69204,-7.694104 V 31.811495 c 0.01,-4.25262 -3.43941,-7.703104 -7.69204,-7.694104 z m 92.216072,4.16202 c 4.80266,0 4.80266,7.204211 0,7.204211 -4.80267,0 -4.80267,-7.204211 0,-7.204211 z m -36.82979,0.07906 c 0.50162,-0.0043 0.52247,0.562827 0.0543,1.478462 -0.3031,0.592756 -0.39934,1.021984 -0.48214,2.15129 -0.10456,1.42629 -0.41602,2.433498 -0.93121,3.011186 -0.22634,0.253784 -0.22473,0.262798 0.0398,0.183968 0.98177,-0.292673 1.85976,-0.402416 3.26337,-0.407727 1.37741,-0.0051 1.73919,0.044 2.63136,0.358118 0.56888,0.200309 1.05308,0.34528 1.07642,0.321944 0.0233,-0.02335 -0.0578,-0.244399 -0.18086,-0.490926 -0.16178,-0.324312 -0.20973,-0.724104 -0.17312,-1.445907 0.0601,-1.185903 0.43854,-2.048062 1.5906,-3.625618 0.75088,-1.028171 1.03834,-1.22886 1.25729,-0.877983 0.14914,0.238996 0.0608,5.051865 -0.10439,5.686992 -0.0735,0.282929 -0.29392,0.705027 -0.48989,0.937927 l -0.35657,0.42323 0.67179,0.608231 0.6718,0.608232 0.16278,-0.965833 c 0.0894,-0.530943 0.32763,-1.303187 0.52968,-1.716174 0.3936,-0.804467 1.00709,-1.405679 1.21853,-1.194242 0.1679,0.1679 0.37157,1.792046 0.37724,3.011186 0.004,0.946113 -0.12057,1.356005 -0.67748,2.222603 -0.15914,0.24766 -0.11494,0.456811 0.34572,1.624707 l 0.52865,1.33997 0.26458,-0.443901 c 0.63456,-1.06516 1.93699,-2.058925 3.22254,-2.458248 0.3055,-0.09489 1.13423,-0.416527 1.84175,-0.714685 1.05573,-0.444921 1.33826,-0.514571 1.57458,-0.38809 0.37444,0.20039 0.26706,0.663927 -0.3545,1.529106 -0.25148,0.350045 -0.66125,1.006811 -0.91054,1.459342 -1.10068,1.997975 -2.15327,3.018206 -3.80958,3.692798 l -1.04955,0.427364 v 0.859896 c 0,0.472992 -0.0628,1.230954 -0.14004,1.684135 -0.0773,0.453171 -0.16918,0.993762 -0.20413,1.201477 l -0.0636,0.377755 0.63872,-0.487309 c 0.35127,-0.268139 0.86458,-0.584016 1.14102,-0.701766 0.91308,-0.388935 5.27621,-1.095682 5.48442,-0.888318 0.23451,0.233547 -0.0497,0.784864 -0.94361,1.828312 -1.03861,1.212378 -2.9401,2.910306 -3.62097,3.233395 -0.64457,0.30587 -1.73802,0.495577 -2.85616,0.495577 h -0.94258 l -0.48007,0.798401 c -0.58473,0.972489 -1.09698,1.97869 -1.00717,1.97869 0.0364,0 0.28638,-0.149116 0.55552,-0.331762 0.26913,-0.182636 1.00598,-0.54874 1.63762,-0.813387 0.63164,-0.264648 1.39122,-0.646638 1.68827,-0.848527 0.61836,-0.420232 0.89111,-0.460215 1.01079,-0.148312 0.15566,0.405617 -0.23838,1.304824 -1.20767,2.754354 -1.61016,2.40793 -2.66114,3.120635 -4.7222,3.203422 l -0.96014,0.03876 -1.08056,1.509469 c -0.59436,0.830291 -1.26755,1.756047 -1.49603,2.057239 -0.34362,0.452974 -0.3677,0.527692 -0.13798,0.432531 1.66498,-0.689713 2.84339,-0.732457 4.27778,-0.155029 0.51994,0.209306 1.23897,0.453123 1.59732,0.541569 0.92808,0.229086 0.94792,0.594987 0.0682,1.240751 -0.8531,0.626232 -1.89007,1.081637 -3.37189,1.48053 -1.46724,0.394978 -2.11963,0.332758 -3.50624,-0.334346 -0.66956,-0.322117 -1.1292,-0.464668 -1.30018,-0.403593 -0.14547,0.05195 -1.04574,0.59569 -2.0004,1.208195 -6.62783,4.252335 -7.18828,4.707395 -6.85798,5.568135 0.0702,0.183162 0.16858,0.1466 0.57981,-0.214457 1.00442,-0.881904 1.59744,-0.97076 3.65249,-0.54777 0.71862,0.14791 1.48804,0.28871 1.70946,0.312642 0.57715,0.06228 0.79528,0.470125 0.41651,0.778247 -0.16034,0.130444 -0.61295,0.497966 -1.00614,0.817005 -1.05656,0.857321 -2.03969,1.181089 -3.45199,1.136881 -0.72706,-0.02272 -1.21119,0.02262 -1.31154,0.12299 -0.0879,0.0879 -0.17361,0.676145 -0.19172,1.314132 -0.0271,0.954433 -0.10841,1.322041 -0.46871,2.116666 -0.23982,0.528893 -0.68378,1.289905 -0.9865,1.690853 -0.30455,0.403365 -0.6853,1.151095 -0.85266,1.674317 -0.16635,0.520082 -0.39577,1.054902 -0.50953,1.188558 -0.27347,0.321291 -0.67411,0.308737 -0.8537,-0.02687 -0.18595,-0.347454 -0.76909,-3.066157 -0.98443,-4.589901 -0.25064,-1.773506 -0.54967,-2.176003 -1.79369,-2.413289 -0.91898,-0.175292 -1.62065,-0.631475 -2.312,-1.503784 -1.44674,-1.825389 -1.79838,-2.583832 -1.1281,-2.43241 0.17183,0.03884 0.81219,0.177093 1.42317,0.307475 1.40665,0.300169 2.69873,0.907175 3.23753,1.520837 0.43326,0.493453 0.58136,0.436787 0.58136,-0.222725 0,-0.327055 -1.24752,-1.598141 -2.43345,-2.479952 -1.63748,-1.217563 -4.1139,-2.691257 -4.29534,-2.555917 -1.85185,1.38139 -2.559624,1.584396 -4.690672,1.344104 -1.57739,-0.177874 -2.328023,-0.388769 -2.328023,-0.653706 0,-0.382996 3.189485,-2.852539 3.684013,-2.852539 0.176346,0 0.419273,-0.03838 0.540018,-0.08475 0.178936,-0.06869 0.148897,-0.137853 -0.162264,-0.374137 -0.209967,-0.159458 -0.982491,-0.807535 -1.716691,-1.440739 l -1.334802,-1.151351 -1.30328,0.287838 c -2.031575,0.449277 -2.824365,0.343907 -4.719608,-0.627869 -2.339418,-1.199528 -3.243191,-1.780149 -3.291272,-2.114083 -0.04927,-0.342105 0.112597,-0.424357 1.361157,-0.694014 2.133397,-0.460773 2.928777,-0.518475 4.027144,-0.290939 0.572594,0.118617 1.164415,0.264641 1.315166,0.324528 0.255393,0.10143 0.253058,0.08103 -0.03824,-0.299723 -0.171925,-0.224747 -0.755481,-1.019262 -1.296562,-1.765784 -0.54108,-0.746523 -1.092293,-1.415337 -1.224731,-1.486214 -0.132424,-0.07086 -0.795925,-0.197786 -1.474845,-0.282153 -2.060031,-0.255992 -2.768684,-0.693544 -3.933094,-2.428792 -0.358744,-0.534605 -0.941142,-1.380389 -1.294494,-1.879472 -0.732414,-1.034483 -0.911326,-1.536908 -0.629936,-1.770435 0.142922,-0.118628 0.282544,-0.10945 0.564307,0.03669 0.205814,0.10677 1.06555,0.447419 1.910477,0.75706 0.844936,0.30964 1.817745,0.756782 2.162142,0.993738 0.344398,0.236945 0.652808,0.404483 0.68523,0.37207 0.03243,-0.03243 -0.130553,-0.616206 -0.362252,-1.297595 -0.380218,-1.118137 -0.965472,-4.256525 -0.965833,-5.178495 -1.14e-4,-0.293166 -0.13569,-0.441115 -0.686263,-0.750342 -2.231419,-1.25327 -3.315008,-2.845439 -3.895886,-5.724715 -0.07705,-0.381866 -0.180236,-1.731519 -0.229443,-2.9993 -0.07096,-1.828062 -0.05148,-2.328619 0.09302,-2.417941 0.206857,-0.127845 2.795491,2.490312 3.839559,3.882967 0.938889,1.252342 1.418757,2.50181 1.655196,4.311365 0.08356,0.639236 0.101749,0.666884 0.232544,0.347266 0.476948,-1.165877 0.983937,-2.178718 1.416451,-2.830318 0.486884,-0.733533 0.492629,-0.758321 0.337964,-1.479497 -0.08656,-0.403401 -0.130854,-1.238826 -0.09819,-1.856734 0.05082,-0.962379 0.13314,-1.262826 0.572058,-2.095479 0.65978,-1.251608 2.565179,-3.679879 2.887679,-3.679879 0.381044,0 0.413662,0.343457 0.265617,2.798796 -0.144925,2.403393 -0.308709,3.125114 -0.920874,4.052466 l -0.352433,0.5333 0.322977,-0.0987 c 0.177513,-0.05441 0.666193,-0.236194 1.086239,-0.404109 0.420056,-0.167922 1.404709,-0.488291 2.18798,-0.712102 1.113933,-0.318287 1.406563,-0.452545 1.344104,-0.615466 -0.412641,-1.076421 -0.293705,-2.192449 0.348816,-3.281453 0.163393,-0.27692 0.343445,-0.729596 0.400492,-1.006141 0.08428,-0.408389 0.172784,-0.511129 0.472323,-0.546219 0.326879,-0.03834 0.389211,0.02487 0.54777,0.555521 0.101119,0.338409 0.180064,1.309661 0.181384,2.233972 0.002,1.358055 0.03676,1.6282 0.205156,1.595769 0.12551,-0.02421 0.263155,-0.341926 0.361735,-0.834058 0.37766,-1.885243 1.06659,-3.042341 2.32337,-3.902604 0.46408,-0.317661 1.17128,-0.911944 1.57148,-1.32085 0.93803,-0.958394 1.09133,-0.876791 0.97772,0.520382 -0.16185,1.990493 -0.70737,3.300504 -1.87172,4.493266 l -0.7798,0.798401 0.9679,0.0078 c 0.53221,0.0043 1.38928,0.118245 1.9048,0.252698 l 0.93741,0.244429 10e-4,-0.425813 c 7.2e-4,-0.501048 0.31031,-1.006932 0.93638,-1.531173 0.24821,-0.20784 0.45113,-0.458137 0.45113,-0.556555 0,-0.09842 0.0937,-0.256844 0.20826,-0.351917 0.16618,-0.137912 0.25034,-0.137912 0.41651,0 0.15668,0.130035 0.20826,0.479825 0.20826,1.412317 0,1.210622 -0.20148,1.964201 -0.55656,2.08256 -0.0802,0.02674 0.24833,0.454106 0.72967,0.949813 0.66941,0.689408 0.98639,1.16257 1.34721,2.01228 0.25944,0.610997 0.51343,1.160422 0.56482,1.221114 0.0514,0.06073 0.42628,-0.396398 0.83303,-1.015958 0.89634,-1.365293 2.23604,-2.626811 3.26129,-3.070614 0.41731,-0.180643 0.75774,-0.390784 0.75655,-0.467155 -0.001,-0.07637 -0.12304,-0.482738 -0.27079,-0.902787 -0.31047,-0.882605 -0.34572,-1.689072 -0.1142,-2.611727 0.12415,-0.49472 0.34996,-0.83508 0.93741,-1.414901 0.86887,-0.857582 3.64223,-2.56192 4.17597,-2.566251 z M 64.85754,28.46234 h 0.001 c 4.80333,0 4.80333,7.205245 0,7.205245 -4.8033,6.7e-4 -4.804567,-7.204575 -0.001,-7.205245 z m 53.19262,2.32699 c -0.12478,0.02569 -0.33565,0.19351 -0.65474,0.480591 -0.40307,0.362646 -0.80243,0.789777 -0.8878,0.949296 -0.16912,0.316003 -0.28204,2.631271 -0.12506,2.564701 0.053,-0.02249 0.3183,-0.29085 0.58963,-0.596346 0.65094,-0.732894 0.88657,-1.217942 1.08727,-2.238106 0.16751,-0.851451 0.19866,-1.202958 -0.009,-1.160136 z m -14.45545,0.172083 c -0.10463,-0.03246 -0.5542,0.293818 -1.04645,0.771529 -0.50668,0.491729 -0.83816,1.13574 -1.21904,2.367297 -0.13412,0.433685 0.16009,0.344423 0.41082,-0.12454 0.10102,-0.188923 0.37947,-0.761475 0.61857,-1.272274 0.23909,-0.510807 0.62032,-1.084657 0.84698,-1.275374 0.22666,-0.190717 0.41186,-0.384148 0.41186,-0.429948 0,-0.01989 -0.008,-0.03205 -0.0227,-0.03669 z m 23.32778,0.86558 -0.26252,0.569474 c -0.19818,0.430334 -0.23181,0.674309 -0.13901,0.997872 0.10371,0.3616 0.0886,0.415067 -0.0961,0.344165 -0.14898,-0.05715 -0.18514,-0.02983 -0.11369,0.08578 0.15345,0.248279 0.40455,0.114978 0.51263,-0.271818 h 5.2e-4 c 0.0517,-0.185269 0.0949,-0.649078 0.0961,-1.030945 z m -34.620114,1.943551 c -0.02217,-0.01612 -0.06667,0.04096 -0.148828,0.139526 -0.391321,0.46951 -0.754311,1.399214 -0.821655,2.104781 -0.03533,0.369694 -0.02881,0.547559 0.01447,0.394808 0.214594,-1.662564 0.866199,0.562783 0.947746,-1.805575 0.01988,-0.577126 0.04522,-0.806668 0.0083,-0.83354 z m -8.610327,2.218986 c -0.06273,-0.02641 -0.04257,0.0758 0.0021,0.281119 0.04979,0.229115 0.14399,0.742443 0.20929,1.141016 0.06528,0.398573 0.0329,1.327562 0.414962,1.822628 0.755343,0.97883 0.797379,2.301306 2.59364,3.676261 0.259938,0.198966 0.160898,-0.07918 -0.03721,-1.214396 -0.117295,-0.67196 -0.313482,-1.480383 -0.436149,-1.796273 -0.305509,-0.78672 -1.538805,-2.662369 -2.249476,-3.42098 -0.288523,-0.307984 -0.434395,-0.462967 -0.497127,-0.489375 z m 38.324271,0.01602 c -1.4545,0.0072 -2.42912,0.260001 -3.94807,1.024744 -1.09879,0.553204 -2.86486,1.777235 -2.74196,1.900142 0.0392,0.03928 0.48016,-0.175829 0.98031,-0.47749 1.39508,-0.841411 3.22641,-1.579177 4.12171,-1.660364 1.47703,-0.133926 3.0352,0.431656 4.50412,1.635043 0.45824,0.375403 1.31463,1.030193 1.90272,1.454691 1.11938,0.808031 2.416,2.140344 2.92902,3.009636 0.16602,0.281277 0.31557,0.497302 0.3328,0.480074 0.0172,-0.01725 -0.0637,-0.403874 -0.17984,-0.858863 -0.37391,-1.464146 -1.36863,-3.320911 -2.24999,-4.20026 -1.43959,-1.436314 -3.59708,-2.317342 -5.65082,-2.307353 z m -18.9208,0.360702 -0.51935,0.04341 0.69401,0.242879 c 1.5334,0.536276 3.67205,2.18851 5.0829,3.927409 0.40016,0.493216 0.7476,0.876582 0.77204,0.852144 0.0245,-0.02448 -0.051,-0.409966 -0.16743,-0.856795 -0.27686,-1.062939 -0.83261,-2.067139 -1.43815,-2.598808 -0.95495,-0.838471 -3.325,-1.701248 -4.42402,-1.610237 z m -2.84066,0.581876 c -0.539577,0.01046 -1.158645,0.08532 -1.950266,0.219108 -2.279594,0.385247 -2.923653,0.579719 -4.627625,1.397331 -1.204879,0.578131 -1.534441,0.815535 -2.360579,1.700155 -0.910608,0.975061 -1.56407,1.97101 -1.797823,2.740401 -0.101017,0.332561 -0.09056,0.329802 0.243396,-0.06925 0.191736,-0.229116 0.574243,-0.770432 0.850077,-1.203028 1.000821,-1.569645 2.654722,-2.7446 4.953186,-3.518648 3.161465,-1.064674 5.214504,-0.944572 9.371524,0.54932 0.64728,0.232603 -1.33459,-0.92633 -2.22157,-1.299145 -0.88308,-0.371176 -1.56102,-0.533672 -2.46032,-0.516248 z m 15.01459,0.251148 c -0.32733,0.05661 -1.2882,0.702683 -1.85415,1.273824 -0.47658,0.48094 -0.85554,1.051043 -1.16065,1.747697 -0.24905,0.5687 -0.42624,1.006108 -0.39378,0.972033 0.0324,-0.03408 0.42878,-0.562068 0.88057,-1.173055 0.45178,-0.610987 1.24122,-1.479022 1.7539,-1.929081 0.51267,-0.450066 0.90541,-0.844869 0.87281,-0.877466 -0.0179,-0.01789 -0.0519,-0.02204 -0.0987,-0.01395 z m 5.61878,0.143144 c -0.36223,-0.0026 -0.71414,0.03411 -1.04232,0.112654 -1.66424,0.39832 -1.58116,0.481471 0.48938,0.490926 1.61106,0.0073 2.10694,0.0605 2.79208,0.29869 1.02956,0.357883 1.34979,0.392314 0.93431,0.101286 -0.90753,-0.635652 -2.08677,-0.995702 -3.17345,-1.003556 z m -21.809523,0.681095 c -0.641351,-2.83e-4 -1.240591,0.05797 -1.77922,0.177767 -1.08026,0.240266 -2.999843,0.954245 -3.730521,1.387512 -1.024009,0.607186 -1.15248,0.800831 -0.233061,0.350883 1.905138,-0.932349 3.283583,-1.375347 4.759916,-1.529106 1.448917,-0.1509 3.004819,-0.08281 4.133079,0.180351 1.38943,0.324067 3.66375,1.639611 5.06894,2.932121 0.38168,0.35108 0.71121,0.640851 0.73226,0.643888 0.0211,0.0031 -0.0527,-0.170695 -0.16382,-0.385506 -0.43736,-0.845763 -1.51863,-1.863871 -2.39882,-2.258777 -2.16373,-0.970804 -4.4647,-1.498283 -6.388753,-1.499133 z m 25.107513,1.731677 c -0.0884,0.0021 0.0506,0.15744 0.47956,0.568958 1.34859,1.293791 2.24317,2.901398 2.71042,4.870503 0.26484,1.116133 0.2823,1.511419 0.21963,4.961971 -0.0375,2.062066 -0.10771,3.905461 -0.15606,4.096391 -0.0483,0.190931 0.16941,-0.183852 0.48369,-0.833024 0.57118,-1.179801 0.57135,-1.181241 0.55604,-2.756938 -0.0341,-3.506804 -0.54546,-6.009643 -1.69292,-8.282698 -0.8897,-1.762445 -1.2274,-2.119183 -2.43861,-2.579688 -0.0777,-0.02954 -0.13229,-0.04618 -0.16175,-0.04548 z m 11.03963,0.05633 c -0.28065,0 -1.41792,0.665576 -1.94768,1.139983 -0.64202,0.574918 -0.90984,0.959239 -1.19683,1.714107 -0.20401,0.536567 0.0933,0.284115 0.42013,-0.356568 0.15111,-0.296212 0.3596,-0.588714 0.46354,-0.650089 0.10395,-0.06135 0.26366,-0.25389 0.35502,-0.427881 0.13214,-0.251767 1.62086,-1.071584 -0.19482,0.688847 l -0.2775,0.269751 0.2775,-0.101803 0.27802,-0.101286 -0.27802,0.326596 c -0.23505,0.276691 -0.19491,0.264885 0.26148,-0.07648 0.72597,-0.543105 2.15328,-2.425175 1.83916,-2.425175 z m -17.03358,0.152446 c -0.30202,0.0082 -0.54263,0.02735 -0.64906,0.05529 -0.35016,0.09203 -0.29913,0.126503 0.53692,0.359668 1.93473,0.539583 3.30717,1.357077 4.59249,2.736267 1.14168,1.225062 2.36559,3.326255 2.69699,4.630725 0.1181,0.464833 0.11834,0.463967 0.16071,-0.197921 0.0234,-0.365375 -0.0923,-1.208636 -0.25735,-1.874304 -0.60731,-2.449917 -2.00175,-4.341039 -3.83335,-5.198649 -0.80192,-0.375498 -1.15082,-0.453883 -2.22984,-0.501262 -0.35182,-0.01544 -0.71549,-0.01806 -1.01751,-0.0098 z m -16.74833,0.444934 c -1.540328,-0.09646 -3.007523,0.788915 -4.559414,2.735234 -1.385034,1.737046 -1.651286,2.30853 -1.863969,4.002339 -0.204347,1.627455 0.143684,3.401457 1.068668,5.448763 0.654358,1.44829 2.089523,4.021704 2.688208,4.819861 0.581584,0.775351 4.896147,4.621289 7.686867,6.852295 0.91647,0.732672 1.79519,1.481759 1.95285,1.664498 0.47543,0.551069 1.4025,2.089551 1.73892,2.885612 l 0.31626,0.748275 0.28732,-0.345199 c 0.15789,-0.189887 0.72066,-0.896867 1.25108,-1.570963 1.0715,-1.361724 2.07593,-2.429733 6.50865,-6.923609 4.35411,-4.414189 5.59525,-6.161243 6.40995,-9.022705 0.42128,-1.47967 0.42956,-1.816659 0.0801,-3.183268 -0.67658,-2.645402 -2.63903,-5.393938 -4.72891,-6.623369 -1.02809,-0.6048 -2.65775,-1.191781 -3.67936,-1.324983 -0.66559,-0.08676 -0.73977,-0.06107 -1.79162,0.626835 -1.25503,0.820798 -1.89997,1.464604 -2.56263,2.557983 -0.6827,1.126451 -1.0849,2.214273 -1.33946,3.623035 -0.26533,1.468463 -0.46171,1.929085 -0.84542,1.984892 -0.4244,0.06166 -0.68823,-0.349556 -0.96325,-1.499134 -0.34533,-1.443581 -1.47483,-3.605727 -2.41278,-4.618839 -1.242,-1.3415 -2.9035,-2.334813 -4.57698,-2.736267 -0.22349,-0.05361 -0.44503,-0.08751 -0.66507,-0.101286 z m -6.205309,0.0036 c -0.02934,-0.02933 -0.389987,0.198204 -0.801501,0.505913 -0.823856,0.616048 -1.764138,1.771485 -2.296501,2.82205 -0.761376,1.502518 -1.080681,3.843262 -0.733289,5.374865 0.140949,0.621399 0.430636,1.388546 0.524,1.388546 0.02686,0 0.0059,-0.640857 -0.04599,-1.423686 -0.207642,-3.124272 0.673898,-5.827208 2.511992,-7.701855 0.49208,-0.501872 0.870657,-0.936478 0.841292,-0.965833 z m 3.399276,0.159681 c -0.137207,0.01135 -0.548586,0.180932 -1.210262,0.506945 -2.747026,1.353461 -4.411631,4.869178 -3.947046,8.335409 0.316158,2.358785 0.89346,3.772527 2.544547,6.22701 1.224948,1.82102 3.171872,3.786736 6.126244,6.186186 1.21761,0.988891 3.27995,2.810513 4.58266,4.047815 1.30271,1.237302 2.38618,2.252959 2.40761,2.256709 0.0215,0.0041 -0.18879,-0.352538 -0.46716,-0.791683 -0.69114,-1.090279 -0.77758,-1.180208 -2.27996,-2.375048 C 103.21343,62.43556 98.927875,58.6193 98.291675,57.749945 97.674109,56.906052 96.09588,54.079535 95.578662,52.89081 94.956416,51.460689 94.48457,49.826062 94.38597,48.761347 c -0.114609,-1.237529 0.199287,-3.035129 0.704867,-4.034379 0.545708,-1.078588 2.229628,-3.085562 3.114021,-3.711918 0.433707,-0.307156 0.570256,-0.454216 0.433049,-0.442867 z m -6.254399,0.488859 c -0.06197,0 -0.638661,0.547158 -1.281575,1.215429 -1.773021,1.842969 -2.295108,3.124179 -2.131136,5.233789 0.05371,0.691625 0.131656,1.31465 0.173116,1.383895 0.04142,0.06931 0.307887,-0.805603 0.591695,-1.944067 0.283798,-1.138485 0.664319,-2.43078 0.845943,-2.87166 0.181624,-0.440869 0.68679,-1.300193 1.122412,-1.909444 0.435633,-0.609262 0.741508,-1.107942 0.679545,-1.107942 z m 34.610292,0.46147 c -0.0307,0.03068 0.0974,0.360972 0.28474,0.734322 1.1245,2.241954 1.7341,4.965638 1.75234,7.83053 0.008,1.237921 0.11072,1.127609 0.61185,-0.65474 0.1971,-0.701024 0.35812,-1.411252 0.35812,-1.578715 0,-0.610119 -0.86194,-3.27501 -1.34359,-4.154269 -0.48676,-0.888577 -1.55449,-2.286098 -1.66346,-2.177128 z m 9.51673,6.539136 c -0.0507,-0.0051 -0.14064,0.0097 -0.26097,0.03049 -0.88556,0.152919 -2.52733,0.61391 -2.93108,0.822689 -0.2187,0.113102 -0.62119,0.40125 -0.894,0.640788 -0.52652,0.462302 -1.40201,1.643793 -1.21543,1.640209 0.0609,-7.23e-4 0.59275,-0.123495 1.18132,-0.271818 1.49214,-0.376035 2.05948,-0.701802 3.28145,-1.885156 0.79029,-0.765295 0.99081,-0.961875 0.83871,-0.977202 z m -46.928401,1.281059 c -0.04251,0.01698 -0.07736,0.09676 -0.104903,0.239778 -0.07705,0.399895 0.473742,1.929451 1.369425,3.802869 0.89935,1.881073 1.226124,2.318226 0.467155,0.624768 -0.265278,-0.591889 -0.552773,-1.201179 -0.639237,-1.353923 -0.08645,-0.152754 -0.31822,-0.953318 -0.515214,-1.779219 -0.255285,-1.070267 -0.449697,-1.585206 -0.577226,-1.534273 z M 85.61958,51.75343 c -0.04245,0 0.130516,0.265558 0.384473,0.590145 0.456466,0.558164 2.882511,2.18798 2.882511,2.18798 0.24873,0.212507 0.73395,-0.141445 0.346749,-0.572058 C 88.621387,53.278966 86.122341,51.75343 85.61958,51.75343 Z m 46.09589,2.861841 -0.68367,0.392741 c -1.07778,0.619498 -2.06254,1.396139 -2.54972,2.011247 -0.50022,0.631583 -0.37496,0.723266 0.49403,0.360184 0.76205,-0.31841 1.4523,-0.932192 2.12493,-1.889807 z m -5.78982,0.470772 c -0.046,0 -0.18682,0.202922 -0.31316,0.451136 -0.251,0.493113 -1.39987,2.36293 -3.17862,5.17281 -0.62852,0.992847 -1.27962,2.074557 -1.44694,2.403988 -0.27169,0.534873 -0.2773,0.584406 -0.0537,0.464054 0.13768,-0.07416 0.69067,-0.593146 1.22938,-1.153934 1.3442,-1.399291 2.47402,-2.833887 2.88251,-3.660242 0.45717,-0.924851 1.11627,-3.677812 0.88057,-3.677812 z m -30.052432,4.140833 c -0.0738,0.066 -0.0094,0.327624 0.150378,0.768945 0.114506,0.316272 0.243546,0.735125 0.286804,0.930693 0.194813,0.880613 1.594222,2.239026 4.13825,4.016292 0.63556,0.44401 1.17081,0.813308 1.18959,0.821138 0.0188,0.0083 -0.26615,-0.358068 -0.63304,-0.813387 -0.36689,-0.455309 -0.9071,-1.251995 -1.200439,-1.770434 -0.38031,-0.672124 -1.015664,-1.410491 -2.213819,-2.57297 -1.088311,-1.055925 -1.594721,-1.490271 -1.717724,-1.380277 z m -4.900993,1.345654 c -0.775103,-0.02579 -1.657263,0.06807 -1.657263,0.218591 0,0.110127 0.760464,0.304279 1.036112,0.264584 0.07334,-0.01054 0.172981,0.09472 0.221692,0.233577 0.05361,0.152692 0.385156,0.344997 0.838709,0.487309 0.902862,0.283271 0.981171,0.290077 1.435571,0.117305 0.342549,-0.130237 0.326418,-0.26185 0.694014,-0.288871 0.145514,-0.01074 0.316396,0.142556 0.453719,0.110071 0.365944,-0.08656 -1.384017,-0.897409 -2.319755,-1.07487 -0.197917,-0.03753 -0.444431,-0.0591 -0.702799,-0.0677 z m 29.555305,1.543058 c -0.15781,0.1005 -2.19108,3.417553 -2.19108,3.574459 0,0.42957 0.95592,-0.88035 1.57406,-2.156974 0.39453,-0.814766 0.67227,-1.452686 0.61702,-1.417485 z m -0.64182,0.07596 c -0.17497,-0.01128 -3.12847,3.125291 -3.94395,4.211629 -0.45864,0.610987 -0.89652,1.189206 -0.97255,1.284676 -0.24645,0.309475 0.003,0.187148 1.21026,-0.591178 0.65184,-0.420501 1.18494,-0.816 1.18494,-0.879016 0,-0.06301 0.53691,-0.921762 1.19269,-1.908411 0.65578,-0.98666 1.25187,-1.918963 1.32499,-2.071708 0.0145,-0.03027 0.0153,-0.04524 0.004,-0.04599 z M 100.14324,62.822 c -0.0314,0.03807 0.0871,0.244834 0.3514,0.611849 0.70187,0.974792 1.88375,2.48357 1.94562,2.48357 0.0267,0 -0.20507,-0.484532 -0.5147,-1.076421 -0.52526,-1.004105 -1.05965,-1.632725 -1.70067,-2.000394 -0.0439,-0.0252 -0.0712,-0.03129 -0.0816,-0.0186 z m 26.19272,1.05885 c -0.56442,0.01757 -1.20338,0.09441 -1.7508,0.22531 -0.4217,0.100811 -0.43969,0.121128 -0.13849,0.152445 0.76847,0.07881 1.66569,-0.25639 0.79375,0.359668 0.0178,0.09441 -0.0817,0.130198 -0.2434,0.08785 -0.15104,-0.03946 -0.27285,-0.002 -0.27285,0.08372 0,0.196332 0.99638,0.201416 1.73581,0.0093 0.30549,-0.07953 0.68029,-0.198737 0.83303,-0.264584 0.15274,-0.0659 0.40277,-0.164303 0.55552,-0.218591 0.24494,-0.08707 0.22037,-0.122906 -0.20826,-0.304891 -0.24982,-0.106063 -0.73989,-0.147797 -1.30431,-0.130225 z m -23.24509,1.961121 c -0.10467,0.104684 0.95828,1.587442 1.44332,2.013314 0.54082,0.474831 0.71586,0.544133 0.44493,0.176216 -0.52972,-0.719326 -1.83958,-2.238189 -1.88825,-2.18953 z m 1.05161,0.344682 c -0.0387,-0.007 0.013,0.07661 0.14211,0.242362 0.76362,0.980081 2.13723,2.454577 2.62723,2.8205 0.25566,0.19093 0.75812,0.581764 1.11673,0.868164 0.3586,0.28639 0.67305,0.520898 0.69866,0.520898 0.0256,0 -0.17629,-0.265558 -0.44855,-0.590145 -0.60231,-0.718056 -1.39998,-1.490336 -3.13056,-3.029789 -0.62555,-0.556464 -0.94115,-0.820274 -1.00562,-0.83199 z m -5.327323,0.891935 c -0.546147,0.0575 -1.029911,0.298212 -1.029911,0.572058 0,0.266382 0.06477,0.264803 0.337964,-0.0083 0.147518,-0.147518 0.490713,-0.222564 1.051615,-0.22996 0.988575,-0.01301 1.092765,-0.189405 0.19172,-0.324528 -0.180419,-0.02705 -0.369339,-0.02847 -0.551388,-0.0093 z m 16.710093,5.224487 c -0.40009,0.02404 -0.78257,0.139453 -1.10898,0.413928 -0.40311,0.366687 -0.42173,0.413403 -0.16485,0.417029 0.86412,-0.396745 2.04596,-0.38326 2.09858,-0.278019 0.57948,-0.262231 0.63073,-0.317417 0.38964,-0.417029 -0.39696,-0.0924 -0.81431,-0.159947 -1.21439,-0.135909 z m -10.25261,0.572575 c -0.0325,-4.67e-4 -0.0574,0.0067 -0.0729,0.02222 -0.10071,0.100707 0.70666,0.837804 1.11001,1.013375 0.63504,0.276412 0.64998,0.247325 0.14573,-0.287321 -0.35519,-0.376623 -0.95549,-0.745007 -1.18288,-0.748275 z m 1.19166,0.40566 c -0.0763,-0.0031 0.10642,0.214384 0.4067,0.481624 0.62314,0.554612 0.80034,0.629987 0.41289,0.1757 -0.35225,-0.413022 -0.65008,-0.652056 -0.81959,-0.657324 z m 3.54656,1.057817 c -0.0248,0.0059 -0.0485,0.03378 -0.0708,0.08578 -0.0578,0.134927 -0.0755,0.400495 -0.0393,0.590144 0.0441,0.230614 0.003,0.344682 -0.12351,0.344682 -0.14162,0 -0.18862,0.245947 -0.18862,0.980302 0,0.64531 0.84001,1.80303 0.82217,0.01809 -0.0105,-1.046985 -0.22664,-2.06063 -0.39997,-2.018998 z m 46.76303,0.952396 h 5.2e-4 5.2e-4 c 4.80227,0.001 4.80174,7.204729 -0.001,7.204729 -4.80297,-6.7e-4 -4.80224,-7.204309 0,-7.204729 z m -91.540146,0.07958 h 0.001 c 4.80336,-0.001 4.805199,7.204245 0.0021,7.205245 -4.80333,0.002 -4.806431,-7.203245 -0.0031,-7.205245 z" /></g></svg>
