<?xml version="1.0" encoding="UTF-8" standalone="no"?>
<svg
   width="107.55007mm"
   height="62.832893mm"
   viewBox="0 0 107.55007 62.832893"
   version="1.1"
   id="svg1"
   xml:space="preserve"
   xmlns="http://www.w3.org/2000/svg"
   xmlns:svg="http://www.w3.org/2000/svg"><g
     transform="translate(-45.016352,-28.150718)"><path
       d="m 52.708411,28.150736 c -4.25262,-0.0089 -7.702037,3.441484 -7.692037,7.694104 v 47.44465 c -0.01,4.25262 3.439417,7.703104 7.692037,7.694104 h 92.165949 c 4.25263,0.0089 7.70204,-3.441484 7.69204,-7.694104 V 35.84484 c 0.01,-4.25262 -3.43941,-7.703104 -7.69204,-7.694104 z m 92.216079,4.16202 c 4.80266,0 4.80266,7.204212 0,7.204212 -4.80267,0 -4.80267,-7.204212 0,-7.204212 z m -91.836258,0.182935 h 0.001 c 4.80333,0 4.80333,7.205245 0,7.205245 -4.8033,6.7e-4 -4.804432,-7.204575 -0.001,-7.205245 z m 27.293425,4.220414 h 18.409729 18.409724 v 4.369759 4.369759 H 104.09235 90.983594 v 3.008602 3.008602 h -5.300969 -5.300968 v -7.378361 z m 0,16.905428 h 18.409729 18.409724 v 1.218014 1.217496 H 98.791386 80.381657 v -1.217496 z m 0,4.727877 h 18.409729 18.409724 v 1.218014 1.217496 H 98.791386 80.381657 v -1.217496 z m 0,4.727877 h 18.409729 18.409724 v 1.217497 1.218013 H 98.791386 80.381657 v -1.218013 z m 0,4.584216 h 5.300968 5.300969 v 3.008602 3.008602 h 13.108756 13.10876 v 4.369759 4.369759 H 98.791386 80.381657 v -7.378361 z m 64.622933,11.663371 h 5.1e-4 5.2e-4 c 4.80227,0.0011 4.80187,7.204728 -0.001,7.204728 -4.80297,-6.7e-4 -4.80224,-7.204306 0,-7.204728 z m -91.540153,0.07958 h 0.001 c 4.80336,-0.0013 4.805331,7.204245 0.0021,7.205245 -4.80333,0.002 -4.80643,-7.203245 -0.0031,-7.205245 z" /></g></svg>
