<svg xmlns="http://www.w3.org/2000/svg" xml:space="preserve" width="165.816" height="96.873" viewBox="0 0 43.872 25.631"><path d="M85.572 149.628a3.13 3.13 0 0 0-3.138 3.138v19.355c0 1.738 1.4 3.138 3.138 3.138h37.597c1.738 0 3.138-1.4 3.138-3.138v-19.355c0-1.738-1.4-3.138-3.138-3.138zm-.02 1.698a1.47 1.47 0 0 1 1.469 1.47 1.47 1.47 0 0 1-1.47 1.469 1.47 1.47 0 0 1-1.47-1.47 1.47 1.47 0 0 1 1.47-1.47m37.462.075a1.47 1.47 0 0 1 1.469 1.47 1.47 1.47 0 0 1-1.47 1.468 1.47 1.47 0 0 1-1.469-1.469 1.47 1.47 0 0 1 1.47-1.47m-13.343 3.193q1.034 0 1.834.565.78.566 1.228 1.404.43.82.722 1.93.273 1.113.37 2.029a21.6 21.6 0 0 1 0 3.666q-.096.936-.37 2.029a9.7 9.7 0 0 1-.722 1.95 4.2 4.2 0 0 1-1.228 1.384 3.03 3.03 0 0 1-1.834.585q-1.034 0-1.833-.585a4.2 4.2 0 0 1-1.228-1.384 9 9 0 0 1-.702-1.95 11.6 11.6 0 0 1-.37-2.029 17.3 17.3 0 0 1 0-3.666q.077-.916.37-2.028.273-1.112.702-1.931a4.1 4.1 0 0 1 1.228-1.404 3.1 3.1 0 0 1 1.833-.565m-21.686.233h3.355l.858 2.107q.604 1.696.721 2.282h.04q.214-1.014.682-2.282l.897-2.107h3.218l-3.218 7.294 3.452 7.762h-3.452l-.956-2.399q-.234-.604-.663-2.242h-.039a261 261 0 0 1-.663 2.242l-.877 2.4h-3.355l3.199-7.763zm28.785 0h4.33v15.056h-2.887v-12.462h-1.443zm-7.099 2.477q-1.326 0-1.326 4.427v.624q0 2.828.312 3.9.351 1.132 1.014 1.151 1.346 0 1.346-4.563v-.488q0-2.808-.331-3.88-.332-1.17-1.015-1.17m-10.57 4.661h4.993v2.652H99.1zm-13.582 8.538a1.47 1.47 0 0 1 1.47 1.47 1.47 1.47 0 0 1-1.47 1.47 1.47 1.47 0 0 1-1.47-1.47 1.47 1.47 0 0 1 1.47-1.47m37.34.033a1.47 1.47 0 0 1 1.47 1.47 1.47 1.47 0 0 1-1.47 1.469 1.47 1.47 0 0 1-1.469-1.47 1.47 1.47 0 0 1 1.47-1.47" style="display:inline;fill:#000;fill-opacity:1;fill-rule:evenodd;stroke-width:5.5" transform="translate(-82.434 -149.628)"/></svg>