<svg id="Layer_1" data-name="Layer 1" xmlns="http://www.w3.org/2000/svg" viewBox="0 0 542 616">
  <g id="Bj5Z97.tif">
    <g>
      <path class="cls-1" d="m20.35,613.49c-6.33-6.03-11.98-11.41-17.96-17.11,1.09-1.23,1.96-2.37,2.99-3.36,48.85-47.02,97.72-94.02,146.58-141.03,19.53-11.95,33.08-30.36,49.34-45.84,16.41-15.62,32.07-32.02,48.12-48.02,71.94-71.74,143.98-143.37,215.76-215.26,10.98-11,20.94-23.03,31.07-34.84,4.86-5.67,6.89-11.7,2.65-19.41-8.82-16.03-16.98-32.51-20.99-50.53-2.31-10.37-3.61-20.97-5.02-31.51-.14-1.04,2.15-3.45,3.29-3.44,7.8.09,15.61.44,23.37,1.22,1.77.18,3.92,2.04,4.89,3.71,5.28,9.03,10.73,18.02,15.19,27.46,6.39,13.52,12.09,27.38,17.85,41.19,2.87,6.89,1.91,10.55-3.38,15.33-14.43,13.07-27.57,27.65-42.56,40-41.43,34.13-76.74,74.46-114.99,111.79-38.39,37.47-75.89,75.86-113.66,113.95-30.83,31.09-61.51,62.34-92.19,93.58-1.98,2.01-5.44,3.51-3.75,7.64.25.6-1.39,2.08-2.29,3.02-16.76,17.4-33.63,34.69-50.29,52.17-29.3,30.76-58.48,61.63-87.71,92.46-2.15,2.27-4.26,4.59-6.32,6.8Z"/>
    </g>
  </g>
</svg>