<svg id="Layer_1" data-name="Layer 1" xmlns="http://www.w3.org/2000/svg" viewBox="0 0 443.08 436.34">
  <g id="pj0vft.tif">
    <g>
      <path class="cls-1" d="m441.19,5.22c-.92,1.03-1.68,1.98-2.53,2.83-14.85,14.9-29.71,29.8-44.57,44.69-33.58,33.68-67.17,67.34-100.73,101.03-63.7,63.94-127.34,127.94-191.1,191.83-28.67,28.73-57.56,57.23-86.37,85.82-1.99,1.97-3.69,3.87-7.32,2.72-3.67-1.16-4.91-3.88-5.27-6.71-.22-1.73,1.39-4.14,2.84-5.58,12.45-12.38,25.04-24.6,37.6-36.87,22.17-21.66,44.28-43.38,66.53-64.96,51.03-49.48,102.13-98.88,153.2-148.31,27.64-26.75,55.28-53.5,82.91-80.26,29.77-28.85,59.51-57.72,89.31-86.53.93-.9,2.38-1.41,3.67-1.71.38-.09,1.08,1.15,1.83,2.01Z"/>
    </g>
  </g>
</svg>