<svg id="Layer_1" data-name="Layer 1" xmlns="http://www.w3.org/2000/svg" viewBox="0 0 569 631">
  <g id="WqveIW.tif">
    <g>
      <path class="cls-1" d="m418.29,119.66c.38-5.44.67-9.5,1.06-15.1,3.82,1.41,7.12,2.31,10.12,3.81,3.22,1.61,9.51.05,13.11-3.87,9.09-9.9,18.16-19.83,27.2-29.78,12.65-13.93,25.5-27.69,37.85-41.88,15.29-17.57,35.52-24.94,57.5-29.02.29-.05.63.15,1.87.47-1.1,7.15-2.11,14.44-3.36,21.68-3.26,18.81-13.62,33.49-26.71,46.81-9.7,9.87-18.73,20.39-27.93,30.73-8.68,9.75-17.25,19.61-25.75,29.52-2.34,2.73-4.29,5.81-6.35,8.79-2.45,3.55-1.21,6.61.94,9.93,1.54,2.37,2.16,5.35,3.55,9.01-4.96.83-9.09,1.52-14.68,2.45.39-4.18,1.05-7.58.93-10.96-.1-2.72-1.13-5.41-1.74-8.12-2.04.66-4.34.95-6.07,2.09-2.03,1.34-3.56,3.44-5.33,5.2-3.38,3.36-6.87,6.01-11.64,7.87-4.72,1.85-8.26,6.86-12.14,10.68-66.94,65.96-126.87,138.35-190.24,207.58-57.18,62.46-113.47,125.73-170.06,188.73-2.8,3.12-7.99,5.5-5.47,11.41.18.43-.65,1.44-1.19,2.01-11.94,12.56-24.16,24.88-35.68,37.81-2.44,2.74-2.67,6.15-7.8,4.24-1.56-.58-4.83,3-7.13,4.9-2.67,2.22-4.77,2.69-7.69-.02-2.76-2.55-2.39-4.43-.75-7.28,2.02-3.5,5.87-6.67,3.22-11.62-.25-.47.61-1.83,1.27-2.45,3.81-3.59,7.95-6.84,11.52-10.65,7.52-8,14.79-16.23,22.05-24.47,1.36-1.54,2.05-3.65,3.26-5.36.7-.98,2.15-2.55,2.68-2.35,4.15,1.61,5.56-1.74,7.5-3.9,114.13-126.7,228.29-253.38,342.24-380.24,9.24-10.29,17.08-21.85,25.56-32.83.3-.39.77-.86.74-1.27-.5-8.67,7.2-12.59,10.77-18.89,1.14-2.02,1.25-4.63,1.83-6.97-2.7-.32-5.43-1.05-8.09-.84-3.42.27-6.78,1.29-10.97,2.15Z"/>
    </g>
  </g>
</svg>