<svg id="Layer_1" data-name="Layer 1" xmlns="http://www.w3.org/2000/svg" viewBox="0 0 365.09 768.5">
  
  <g id="bztHtW.tif">
    <g>
      
      <path class="cls-1" d="m254.65,124.94c.41-5.34.95-10.67,1.19-16.01.15-3.44,1.79-4.52,5.01-4.3,6.35.43,12.7.87,19.06.94,2.88.03,5.75-.87,8.64-1.22,1.25-.15,2.67-.34,3.78.1,12.11,4.83,24.3,9.5,36.14,14.93,2.4,1.1,4.73,5.12,4.88,7.91.87,16.1,1.18,32.23,1.34,48.35.02,1.89-1.68,4.41-3.33,5.58-5.78,4.09-11.89,7.72-18.65,12.02,1.62,5.07,3.25,10.76,5.27,16.31,2.05,5.61,4.62,11.03,6.69,16.63.51,1.39.5,3.39-.12,4.72-4.35,9.28,0,16.65,5.45,22.71.73.82,2.31,1.29,2.49,2.12,1.53,7.42,8.45,10.69,12.15,16.3,3,4.54,4.73,10.1,6.21,15.44,3.86,13.96,5.46,27.61,1.88,42.5-2.43,10.09.5,21.72,2.18,32.48,1.39,8.83,4.74,17.33,6.6,26.11.38,1.81-1.53,5.64-3.09,6.09-10.73,3.1-14.42,9.65-11.33,20.28.14.47-.19,1.07-.5,2.57-1.77-1.63-3.02-3.08-4.56-4.11-1.62-1.08-3.52-1.76-5.29-2.62-.37.35-.73.7-1.1,1.05.72,1.19,1.18,3.04,2.21,3.46,4.11,1.65,4.16,5.38,1.94,7.15-8.3,6.6-7.99,17.32-13.14,25.28-2.08,3.21-4.72,6.22-7.65,8.67-2.68,2.24-5.91,5.37-9.48.65-3.9-5.17-4.21-10.54-.11-13.87,3.19-2.6,5.04-4.32,2.6-9.15-1.56-3.09.1-7.98.76-11.99.48-2.96-3.86-10.15-6.68-9.85-1.08.12-2.66,1.61-2.89,2.71-1.02,4.9-1.5,9.91-2.45,14.82-.38,1.97-1.28,5.25-2.3,5.39-2.66.38-5.52-.64-8.38-1.11-.64.72-1.89,2.87-3.75,3.98-2.83,1.7-2.94,3.57-.7,5.22,13.64,10.04,16.37,24.25,15.66,39.9-.48,10.62-.89,21.23-1.16,31.86-.06,2.35.36,4.77.96,7.06,1.86,7.03,4.3,13.94,5.76,21.05.76,3.71.64,7.93-.33,11.59-1.27,4.74-.46,8.58,2.87,11.7,6.24,5.85,6.9,13.64,7.11,21.22.22,8-.65,15.83-6.81,22.46-2.09,2.25-1.5,7.36-1.46,11.15.05,4.73-1.21,10.18,5.98,11.93,1.44.35,2.31,4.78,2.68,7.43.68,4.98.8,10.04,1.15,15.08,11.38-1.49,14.53,2.72,11.12,13.42-1.22,3.82-1.3,8.06-1.51,12.12-.36,7.1-.1,14.26-.85,21.31-.17,1.59-3.22,3.58-5.28,4.12-7.23,1.89-7.33,2.25-4.81,9.43,1.39,3.96,1.95,8.31,2.27,12.53.58,7.66.68,15.36,1.01,23.04.19,4.41-1.4,7.91-5.76,9.19-6.05,1.77-12.2,4.13-18.38,4.35-14.91.53-29.87.35-44.78-.27-14.44-.6-21.16-11.76-26.94-22.69-2.03-3.84-.97-9.61-.51-14.42.73-7.66,2.15-15.25,3.23-22.87.1-.7-.1-1.44-.19-2.56-3.21.68-6.17,1.27-9.11,1.95-4.58,1.06-6.09-1.45-6.25-5.4-.29-7.31-.61-14.61-.69-21.92-.03-3.23-.62-5.18-4.44-5.67-1.46-.19-3.46-2.68-3.74-4.37-.9-5.34-.97-10.82-1.63-16.21-.41-3.33.7-5,4.08-5.11.55-.02,1.09-.26,1.64-.37,10.54-2.16,10.34-2.11,8-12.48-1.23-5.44-1.43-11.11-2.47-16.61-.42-2.2-1.57-4.4-2.88-6.26-2.79-3.97-6.32-7.46-8.75-11.62-2.42-4.14-1.99-8.22,1.88-12.08,3.38-3.37,5.62-7.71,2.62-12.81-6.33-10.74-10.19-22.14-8.26-34.81.64-4.18,1.65-8.4,3.19-12.32,1.73-4.4,2.06-7.85-1.55-11.71-8.98-9.6-9.4-22.09-10.39-34.23-.36-4.47-.07-9-.05-13.5.02-3.74.84-6.91,4.63-8.9,1.25-.66,2.53-2.94,2.38-4.33-1.53-14.69-3.41-29.35-5.02-44.03-.55-5.04-1.76-8.65-8.07-8.08-6.17.55-7.21,1.67-8.08,8.92-1.64,13.76-3.66,27.47-5.32,41.23-.21,1.74.25,4.1,1.34,5.36,4.91,5.68,6.28,12.4,5.61,19.44-.69,7.25-1.94,14.5-3.61,21.59-.78,3.31-2.4,7.11-4.9,9.18-7.41,6.17-5.76,13.03-2.84,20.32,3.37,8.41,4.85,16.83.44,25.39-1.03,1.99-1.55,4.27-2.71,6.17-5.41,8.87-2.76,17.89-.77,26.94,1.02,4.64.52,8.64-1.96,13.26-3.14,5.84-4.6,12.8-5.72,19.45-1.01,6.05-.43,12.35-.87,18.52-.25,3.41,1.28,4.52,4.29,5.25,11.52,2.77,11.57,2.86,10.5,14.71-.25,2.72-.92,5.5-1.95,8.03-1.35,3.29-2.74,7.18-7.66,4.23-.86,7.03-1.05,13.42-2.57,19.46-1.44,5.73-3.7,11.6-11,12.66-.67.1-1.8.68-1.83,1.09-.5,7.67-7.9,13.57-5.43,22.06,1.8,6.19.11,11.59-4.13,16.6-9.06,10.7-19.26,18.75-34.28,18.1-11.94-.52-23.93-.24-35.82-1.29-5.62-.5-11.24-2.82-16.48-5.17-7.11-3.19-8.13-6.15-6.76-16.24.98-7.15,2.3-14.25,3.49-21.36.19-1.11.25-2.36.82-3.25,3.74-5.93,4.46-11.04-3.14-14.55-.8-.37-1.56-1.85-1.56-2.81-.03-13.82-4.78-26.62-8.34-39.68-1.62-5.96.63-9.41,6-9.2,1.33.05,2.85,1.18,3.86,2.21,3.25,3.33,6.31,6.86,9.33,10.18,7.21-16.1,3.72-32.06,3.47-47.8-.04-2.37-1.7-4.82-2.95-7.04-6.01-10.66-3.39-21.83-1.56-32.73,1.51-8.97,4.36-17.71,6.63-26.55,1.58-6.16,3.24-12.29,4.72-18.47.36-1.52.46-3.25.14-4.77-1.07-5.07-3.33-10.06-3.45-15.12-.42-17.55-1.67-35.28,5-52.18.75-1.9,1.48-4,2.84-5.42,7.13-7.43,9.04-16.21,8.59-26.31-.36-7.98,1.03-16.04,1.51-24.06.09-1.51-.11-3.23-.82-4.51-.26-.48-3.15-.35-3.42.2-.67,1.35-1.08,3.32-.59,4.66,3.31,8.96,2.78,17.94.96,27.07-.86,4.33-2.31,7.46-7.58,6.97-5.46-.51-4.56-4.76-4.61-8.01-.19-11.13-3.3-22.34.71-33.4.21-.58-.16-1.38-.26-2.08-.53-.2-1.06-.4-1.59-.6-1.61,3.9-3.43,7.73-4.75,11.72-.87,2.63-.04,6.92-1.63,8-5.97,4.06-3.71,8.81-2.7,13.89.61,3.06,0,6.35.33,9.49.2,1.84,1.02,3.67,1.88,5.35,1.42,2.78,3.33,5.33,4.59,8.18,2.18,4.92-2.37,6.69-5.08,8.62-1.25.89-4.44-.1-6.32-1.08-9.69-5.04-12-14.67-14.62-24.14-.81-2.93-2.51-5.61-3.69-8.45-1.35-3.23-2.57-6.51-3.91-9.93-.88.61-2.59,1.81-6,4.19.29-5.29.23-9.03.77-12.69.46-3.07.07-4.96-3.31-5.82-1.94-.49-3.7-1.78-5.5-2.77-6.6-3.63-7.58-5.97-4.86-13.21,2.81-7.48,6.7-14.63,8.73-22.3,1.89-7.16,2.52-14.79,2.69-22.24.22-9.72-1.58-19.58-.61-29.18.96-9.57,4.3-18.9,6.54-28.35,1.25-5.27,4.06-9.14,8.55-12.38,2.84-2.04,4.37-5.84,6.73-8.64,2.26-2.69,4.62-5.36,7.3-7.6,4.7-3.92,6.4-8.48,4.38-14.33-1.81-5.25-1.48-10.14.7-15.27,2.93-6.89,5.19-14.06,7.97-21.01,1.24-3.09-.15-4.34-2.58-5.69-5.88-3.29-11.65-6.77-17.42-10.25-3.1-1.87-4.71-4.48-4.37-8.37,1.22-14.15,1.74-28.39,3.54-42.47,1.26-9.82,5.24-12.65,14.96-14.49,2.81-.53,5.5-1.91,8.14-3.11,6.44-2.93,12.69-6.32,19.29-8.79,2.33-.87,5.45.65,8.21.63,5.99-.04,11.97-.37,17.96-.56,8.37-.26,13.74,4.61,14.39,13.19.26,3.36.01,6.78.46,10.1.16,1.22,1.65,2.26,2.54,3.38.92-.91,1.85-1.8,2.75-2.73.1-.1-.04-.41.05-.54,7.08-11.07.85-22.96,1.9-34.44.5-5.49,1.28-8.87,5.73-9.02,2.07-3.66,3.04-7.32,5.39-8.84,1.56-1.01,5.09,1.05,8.71,1.98.48-3.91,1.44-8.53,1.53-13.17.22-11.22,6.08-18.25,15.43-23.58,2.36-1.35,3.17-5.42,4.88-8.61-1.56-.66-2.78-.82-3.39-1.51-1.34-1.52-3.1-3.22-3.31-5.01-.16-1.37,1.7-3.07,2.86-4.46,1.71-2.03,4.3-3.59,5.3-5.89,3.73-8.57,10.31-12.76,19.28-12.88,9.02-.12,15.44,4.51,19.65,12.46,1.1,2.08,2.37,4.55,4.25,5.65,4.38,2.56,3.58,4.81.73,7.88-4.67,5.04-4.52,9.13.9,13.22,8.34,6.29,13.19,14.07,12.66,24.84-.13,2.78.49,5.6.84,8.39.46,3.64,2.55,3.77,5.16,2.19,5.35-3.24,7.03-1.29,10.75,3.69,6.13,8.21,4.94,16.97,4.08,25.59-.75,7.59,2.86,12.68,7.77,17.99Zm37.64,271.08c-5.16,1.03-5.45,3.56-2.07,14.09.76-5.21,1.36-9.3,2.07-14.09Z"/>
      
    </g>
  </g>
</svg>