<svg id="Layer_1" data-name="Layer 1" xmlns="http://www.w3.org/2000/svg" viewBox="0 0 420.68 772.86">
  
  <g id="FZCUwp.tif">
    <g>
      <path class="cls-1" d="m303.23,772.8h-6.14c-.48-4.98-4.53-3.04-7.1-3.37-2.74-.36-6.42-1.39-6.93,3.37h-5.26c-.33-2.56-1.59-3.79-4.36-3.61-1.16.07-2.6-.48-3.54-1.22-9.37-7.41-17.3-16-21.83-27.29-1.02-2.54-2.09-5.1-2.66-7.76-1.23-5.79-.65-11.39.57-17.32,1.83-8.95,1.81-18.28,2.7-27.44.74-7.61-.36-14.71-4.17-21.5-2.18-3.89-4.84-8.25-4.91-12.44-.23-14.59.69-29.19.86-43.79.03-2.47-1.19-5.08-2.3-7.4-1.72-3.61-4.65-6.81-5.64-10.57-4.72-17.87-8.85-35.9-13.43-53.81-1.04-4.04-.19-7.13,1.79-10.66,2.37-4.23,6.72-8.12,3.34-14.1-2.49-4.41-4.09-9.32-6.17-13.97-1.79-4.01-1.26-5.85,2.7-7.25,1.33-.47,2.96-.07,4.7-.07-.84-9.75-.41-19.56-7.3-28.08-4.8-5.94-6.85-13.21-2.06-20.65.26-.41.11-1.08.15-1.57h-8.77c1.14,4.22,5.68,7.79,1.48,12.06-.06.06,0,.31.08.4,2.44,2.69.07,4.5-1.2,6.47-1.98,3.06-4.23,5.97-5.97,9.15-3.84,7.01-2.69,14.79-3.81,21.18,3.88,1.34,6.75,2.34,9.79,3.39-1.88,4.69-3.16,8.4-4.82,11.94-2.93,6.25-4.29,12.04.13,18.56,2.16,3.19,3.66,8.12,2.94,11.76-3.77,19.13-8.33,38.11-12.67,57.12-.35,1.53-.64,3.47-1.69,4.37-3.24,2.75-3.28,6.34-3.29,9.98-.05,11.84-.2,23.69.01,35.52.13,7.43-.11,14.59-5.14,20.7-.69.83-.92,2.16-1.07,3.29-2.34,16.93-4.06,33.78-1.18,50.97.98,5.83-.4,12.77-2.78,18.3-4.18,9.71-10.09,18.46-18.99,25.03-3.96,2.92-7.2,6.19-12.77,4.95.29.56.59,1.12.88,1.68-2.06,1.15-4.11,2.3-6.67,3.73-.45-2.56-.66-3.79-.86-4.92-9.89-1.26-11.77-.83-14.06,3.46-1.58-.43-4.29-.39-4.83-1.45-1.33-2.65-3.3-2.3-5.44-2.51-1.21-.12-2.8-.51-3.45-1.37-5.25-6.86-11.79-12.93-13.11-22.2-.51-3.57-.85-7.95-3.04-10.3-2.44-2.61-2.34-5.01-2.07-7.6.25-2.38,1.7-4.6,2.27-6.97,2.56-10.61,5.03-21.25,7.39-31.91.18-.79-.55-2.33-1.23-2.61-.72-.29-2.14.24-2.8.88-1.62,1.58-2.99,3.42-4.42,5.11-5.83-4.02-6.37-4.99-6.6-10.86-.08-2.19-.14-4.4-.54-6.55-1.67-8.89-1.5-17.81.61-26.51,1.83-7.57,4.69-14.9,6.92-22.38,1.22-4.09,2.51-7.73,6.44-10.39,3.34-2.26,4.99-6.15,3.38-10.46-1.02-2.72-2.4-5.3-3.46-8-1.3-3.35-3.37-6.74-3.48-10.16-.63-19.42-.74-38.86-1.13-58.29-.08-3.91.46-7.39,3.03-10.6,3.08-3.85,4.58-8.12,3.14-13.36-1.47-5.32-1.92-10.91-3.16-16.3-.56-2.41.08-4.05,2.26-4.16,2.79-.14,5.63.55,9.63,1.02-.36-5.34-.44-11.23-1.26-17.02-.81-5.75-2.65-11.35-3.51-17.1-.46-3.06-.84-6.95.63-9.27,2.11-3.34,2.41-6.29,1.93-9.87-.6-4.48-1.07-9.01-1.15-13.52-.04-2.44-.8-3.75-3.04-4.52-5.19-1.78-8.25-6.17-8.21-10.95.08-9.87.96-19.82,2.66-29.53.64-3.64,2.9-8.04,8.24-8.86,1.38-.21,2.8-2.87,3.43-4.68,1.03-2.98.98-6.37,2.19-9.25,1.91-4.56,1.68-6.93-2.08-10.13-2.89-2.47-6.38-4.62-5.42-9.26-12.14,25.28-24.28,50.56-36.22,75.42-7.98-1.75-15.17-3.33-23.15-5.08,3.15,5.13,4.69,14.28,3.57,19.49-.18.81-1.01,1.97-1.7,2.1-3.64.72-3.8,3.52-4.21,6.31-.39,2.7-.47,5.58-1.49,8.05-2.17,5.28-.5,15.32,2.93,19.84,1.79,2.37,2.62,5.7,3.08,8.72.15,1.02-2.21,2.39-3.34,3.67-.47.52-.95,1.19-1.06,1.85-1.1,6.61-6.85,7.55-11.66,9.58-.53.22-1.39-.08-2-.35-7.72-3.5-13.76-8.99-18.23-16.12-1.46-2.33-3.6-4.82-1.4-7.99.29-.42.03-1.42-.25-2.03-2.94-6.6-5.97-13.16-8.87-19.78-.51-1.16-.81-2.55-.73-3.8.33-4.66.39-9.41,1.41-13.93,1.92-8.5,4.22-16.92,6.8-25.24,1.06-3.4.05-4.86-2.91-5.86-2.12-.72-4.21-1.54-6.4-2.35.66-1.89,1.15-3.25,1.6-4.63,8.62-26.07,16.04-52.22,15.58-80.24-.23-14.35,5.14-27.9,13.8-39.73.83-1.13,2.06-2.08,3.31-2.75,5.9-3.18,11.69-6.65,17.86-9.22,5.2-2.16,5.88-7.26,8.45-11.06,1-1.48,1.09-4.97.03-6.19-2.65-3.06-.77-5.34.17-7.95,1.23-3.4,2.41-6.82,3.98-11.29-6.63,3.7-10.52.65-13.55-3.21-2.36-3.02-4.28-5.5-8.3-3.02-7.66-11.58-12.51-24.03-16.04-36.97-1.03-3.77-3.05-7.71.02-12.01,3.88-5.43,7.12-11.35,10.35-17.21,3.94-7.15,8.75-14.11,11.03-21.8,2.46-8.3,5.32-16.54,7.16-25.16,2.43-11.41,10.21-21.05,19.65-28.69,3.75-3.04,8.38-5.42,8.75-11.34.07-1.08,2.42-2.47,3.94-2.91,2.49-.71,5.17-.74,7.77-1.09,8.23-1.09,16.58-1.63,24.65-3.41,11.77-2.6,23.36-6.02,34.97-9.28,1.59-.45,3.21-1.7,4.23-3.03,1.4-1.82,1.93-4.33,3.39-6.08,1.71-2.06,3.04-5.31,6.84-4.06,2.39-4.8,7.71-4.52,11.59-6.75.79-.45,1.15-1.58,1.87-2.21,3.83-3.29,7.7-6.53,11.61-9.72.37-.3,1.14-.16,1.72-.16,7.01-.01,14.02-.11,21.03.08,1.4.04,3.43.81,4.02,1.87,1.61,2.92,3.48,4.94,7.01,5.06.55.02,1.07.77,1.6,1.18,2.57,1.95,5.03,4.05,7.74,5.79,3.84,2.47,8.08,4.38,11.69,7.13,1.58,1.2,1.53,4.57,3.12,5.72,2.65,1.92,5.89,3.42,9.09,4.12,21.41,4.65,41.87,13.67,64.25,13.96,2.59.03,5.12,1.28,5.76,4.92.38,2.17,2.11,4.61,3.96,5.91,10.08,7.1,18.15,15.85,23.24,27.12,1.73,3.82,2.67,8,4.29,11.88,1.97,4.7,4.32,9.23,6.44,13.87.46,1,1.16,2.85.84,3.09-2.46,1.82-.69,3.47.15,4.89,6.25,10.5,12.69,20.89,18.88,31.43,1.86,3.16,5.07,7.24,4.31,9.95-4.12,14.7-8.99,29.24-17.34,42.25-.43.67-1.52.94-2.33,1.34-1.36.69-3.15,1-4.05,2.08-3.67,4.37-7.13,8.8-13.77,5.28-.17-.09-.51.16-1.28.43,1.66,4.43,3.35,8.84,4.97,13.27.33.9.79,1.97.58,2.81-1.5,5.92,1.72,14.51,7.04,17.46,6.62,3.67,13.45,6.98,20.11,10.6,1.75.95,3.58,2.18,4.71,3.76,6.17,8.68,9.73,18.22,10.96,29,2.49,21.84,2.86,43.99,9.43,65.27,2.78,9,4.77,18.24,7.12,27.37v4.39c-.98.23-1.98.39-2.93.69-8.19,2.64-7.54,1.55-5.03,9.7,3.52,11.42,6.88,22.86,6.99,34.97.03,3,.25,5.87-2.87,7.67-.54.32-.86,1.15-1.13,1.81-1.96,4.8-4.13,9.54-5.71,14.46-.67,2.09.74,5.09-.28,6.79-3.04,5.06-6.5,9.97-10.44,14.36-2.14,2.38-5.66,3.49-8.46,5.32-3.13,2.05-5.76.98-8.27-1.07-1.21-.99-2.77-1.87-3.41-3.18-1.64-3.32-3.18-6.58-5.37-9.66-1.01-1.42.37-5.18,1.54-7.42,3.8-7.3,3.15-14.8,1.81-22.42-.38-2.14-.81-4.26-1.15-6.41-.48-2.94-.04-6.31-4.03-7.43-.52-.15-1-1.42-1.04-2.19-.31-6.77-1.62-13.86,5.38-18.53.15-.1.1-.51.23-1.37-6.69,1.65-13.15,3.26-19.61,4.83-2.09.51-3.89,1.15-5.3-1.76-12.2-25.01-25.47-49.52-35.24-75.66-.45-1.19-1.18-2.28-1.78-3.42-.97,3.43-.16,6.81-1.2,9.46-1.01,2.56-3.92,4.39-6.03,6.51-2.32,2.34-1.64,4.49-.08,7.03,1.39,2.25,2.36,4.85,3.05,7.42.7,2.63.84,5.41,1.12,7.33,2.94,1.42,5.82,2.11,7.65,3.9,1.93,1.88,3.69,4.69,4.06,7.3,1.29,9.1,1.97,18.28,2.82,27.44.1,1.13.26,2.63-.33,3.38-2.47,3.12-3.33,7.55-7.84,9.11-1.12.39-1.99,2.75-2.18,4.3-.6,4.92-.55,9.94-1.3,14.83-.53,3.44-.48,6.26,2.31,8.76.73.65,1.02,2.34.81,3.42-1.04,5.42-2.2,10.83-3.54,16.19-2.01,8.03-3.43,16.04-1.3,24.62,3.8-2.51,7.46-4.03,11.3-.52-.84,6.9-1.46,13.88-2.61,20.77-.63,3.77.24,6.72,2.17,9.89,1.84,3.01,3.97,6.46,4.11,9.79.71,17.08.67,34.18,1.19,51.27.24,7.74-.63,14.82-4.97,21.65-4.01,6.32-1.87,13.08,4.15,17.69,1.12.85,2.29,1.97,2.8,3.22,2.07,5.06,4.28,10.12,5.74,15.37,3.42,12.28,5.28,24.79,3.52,37.59-.5,3.6-1.54,7.17-1.58,10.76-.05,4.28-1.72,7.2-5.72,9.58-1.4-1.6-2.73-3.27-4.23-4.78-.88-.88-2.03-1.48-3.06-2.21-.35,1.27-1.15,2.59-.99,3.79.76,5.48,1.48,11,2.8,16.37,1.5,6.08,1.17,12.5,4.59,18.31,1.45,2.47,1.52,7.88-.18,9.59-2.77,2.79-3.17,6.02-4.15,9.08-2.32,7.24-4.7,14.36-10.52,19.64-3.44,3.12-5.44,8.56-11.73,7.4-.44-.08-1.3,2.17-1.97,3.33Zm5.25-484.78c1.76,4.02,3.38,7.72,5.01,11.46-1.21.34-2.2.62-3.2.9-.04.34-.08.67-.13,1.01,3.25,1.13,6.5,2.25,10.87,3.76-2.45-7.36-2.65-14.06-8.12-18.48-1.51.46-2.89.88-4.43,1.35Zm-196.18,13.86c-.04-.49-.08-.97-.12-1.46-.75-.35-1.51-.69-2.56-1.18,1.46-3.96,2.91-7.87,4.44-12.03-.92-.52-1.87-1.05-3.82-2.15-2.3,6.15-4.45,11.9-7.11,19.04,4-.98,6.59-1.61,9.18-2.24Zm192.8,391.72c-1.83-4.5-5.26-5.2-10.42-2.4,3.16.73,6.32,1.46,10.42,2.4Zm-173.86-3.51c-.11-.5-.21-.99-.32-1.49-2.13,0-4.27-.15-6.37.09-.67.07-1.22,1.17-1.83,1.79.7.53,1.51,1.61,2.09,1.5,2.18-.42,4.3-1.22,6.43-1.89Z"/>
      
      
      
      
      
      
      
    </g>
  </g>
</svg>