<svg id="Layer_1" data-name="Layer 1" xmlns="http://www.w3.org/2000/svg" viewBox="0 0 365 771.65">
  <g id="taha4O.tif">
    <g>
      <path class="cls-1" d="m235.08,716.47c3.28.35,5.24-.33,5.51-3.96.07-.99,2.53-2.07,4.07-2.6.97-.33,2.26.28,3.44.47-.35-2.69-.6-5.25-1.03-7.78-.4-2.33-4.65-4.25-6.37-2.59-2.71,2.63-5.17.23-7.69.09-.4-.02-1.11-2.41-.94-3.59.84-5.61,1.94-11.18,2.96-16.76.07-.36.1-.91.33-1.02,3.96-2,5.77-5.72,6.94-9.57.65-2.15.82-6.14-.33-6.86-5.34-3.36-7.47-8.01-7.76-13.96-.05-.93-.58-1.84-.83-2.58-2.91.15-5.6.28-8.62.43-.61-3.89-1.34-7.61-1.75-11.37-.65-6.06-1.02-12.16-1.63-18.22-.29-2.84,1.05-3.75,3.63-3.84,1.71-.06,3.88.08,5.01-.87,1.72-1.44,3.8-3.73,3.81-5.68.06-7.13-.27-14.32-1.25-21.38-.53-3.85-1.92-8.04-4.24-11.06-2.64-3.42-3.27-7.58-3.2-10.83.15-6.93-2.54-12.29-6.77-16.79-2.6-2.76-2.05-5.84-2.78-8.67-.87-3.37.56-7.39-.44-10.68-1.74-5.7-.98-11.37-1.26-17.05-.2-4.04-.93-8.37.16-12.11,2.13-7.35-1.02-14.79,1.19-22.04.36-1.17-.5-2.75-.91-4.11-.13-.43-.92-.73-.95-1.12-.42-6-3.87-6.84-9.2-4.61-.85-6.67-1.61-12.77-2.42-18.86-.46-3.48-1.06-6.95-1.49-10.44-.48-3.91-.81-7.83-1.26-11.74-.35-3.07-.67-6.15-1.22-9.18-.51-2.78-1.72-5.62,3.03-5.69.58,0,1.74-2.11,1.59-3.09-.59-3.93-1.59-7.79-2.42-11.68-2.19-10.23-4.35-20.47-6.56-30.69-.26-1.18-.74-2.32-1.22-3.81-6.22,2.43-12.39,2.6-18.59.14-2.24,9.8-4.49,19.35-6.58,28.95-1.16,5.31-2.09,10.67-3.03,16.03-.54,3.09.49,4.98,5.22,4.14-.99,5.58-2.13,10.65-2.71,15.78-.45,3.92.07,7.95-.32,11.88-.65,6.48-1.68,12.92-2.56,19.38-.12.86-.36,1.71-.39,2.57-.22,6.07-.37,6.38-6.53,5.7-2.26-.25-2.91.54-3.19,2.37-.08.49.18,1.23-.08,1.47-5.14,4.93-1.47,10.67-1.58,16.07-.11,5.12-.63,10.24-.67,15.36-.03,3.6.82,7.23.63,10.81-.56,10.47-1.34,20.92-2.31,31.36-.17,1.8-1.33,3.9-2.69,5.13-4.76,4.3-5.31,10.03-6.35,15.78-.82,4.55-1.2,9.92-3.86,13.26-8.39,10.51-3.92,22.44-5.01,33.72-.07.69,1.33,2.02,2.22,2.19,1.84.37,3.81-.01,5.69.25,1.93.27,3.58,1.06,3.32,3.59-.61,5.93-1.1,11.88-1.72,17.81-.43,4.05-1,8.09-1.56,12.48-1.54,0-3.14.37-4.46-.08-2.95-.99-3.49.02-3.7,2.85-.39,5.43-2.04,10.3-7.4,13.18-2.97,1.6-3.08,4.07-1.23,6.82.92,1.37,1.33,3.08,1.91,4.67.25.68.09,1.82.52,2.07,5.47,3.21,4.44,9.22,6.07,14.05.66,1.96.82,4.13.95,6.22.28,4.43-3.44,6.72-7.49,4.71-3.02-1.5-6.52.49-6.83,3.92-.17,1.83-.26,3.66-.38,5.53q8.24,1.49,9.74,6.28c1.02.11,2.1.23,4.28.46-.9,10.34-1.33,20.57-2.86,30.64-.73,4.83-3.21,9.51-5.47,13.97-2.07,4.11-5.92,6.37-10.57,6.41-16.23.16-32.47.15-48.71.18-4.94,0-8.43-3.04-8.73-7.8-.38-5.99-.9-12.01-.69-17.99.2-5.68,1.24-11.32,1.97-16.98.39-3.01.42-5.81-1.49-8.52-2.76-3.92-5.22-8.07-7.6-11.81-3.78-.26-7.4-.26-10.9-.91-1.01-.19-2.34-2.24-2.38-3.47-.38-11.37.53-22.66,2.82-33.83,1.19-5.79,1.93-11.68,3.17-17.46.74-3.46,1.79-6.91,3.15-10.17,3.65-8.74,4.74-17.94,5.36-27.25.27-4.18,2.94-6.36,6.96-5.79,2.59.37,7.4-3.05,7.88-5.67,1.52-8.22,3.12-16.43,4.44-24.69.3-1.89-.64-3.94-.61-5.91.08-5.92.92-11.88.38-17.73-.43-4.69-2.19-9.32-3.84-13.8-.92-2.49-2.86-4.59-4.26-6.92-.36-.6-.6-1.38-.57-2.07.18-3.65.95-7.34.58-10.92-.5-4.81,2.45-7.49,5-10.67,1-1.25,1.9-2.99,1.93-4.53.16-8.15.06-16.3,0-24.45-.03-4.16.24-8.39-.39-12.47-.61-3.94-2.57-7.67-3.26-11.61-.56-3.2-.12-6.57-.11-9.87.07-14.68,2.3-29.11,5.38-43.4.52-2.41,2.44-4.52,3.67-6.79.34-.63.61-1.32.81-2.01.75-2.49,1.27-5.11,4.7-5.26.43-.02,1.16-.81,1.2-1.29.32-4.26,3-8.43.21-12.81-1.48-2.32-2.46-4.96-3.8-7.38-1.22-2.2-1.1-2.73.79-5.53.56-.84.72-2.26.48-3.27-.79-3.26.65-6.91,3.29-8.11-.24-.97-.78-1.94-.65-2.81.86-5.83,2.07-11.62,2.72-17.47.23-2.1-1.13-4.33-1.13-6.5,0-2.75.63-5.49,1.03-8.23.2-1.4.5-2.79.74-4.18.21-1.21.41-2.42.64-3.83,2.23-.1,3.72-.9,4.25-3.82.99-5.45,2.87-10.67,1.51-16.42-.45-1.88.26-4.6,1.45-6.18,2.5-3.34,2.43-8.43,7.09-10.37.51-.21.66-2.52.22-3.53-1.48-3.44-2.08-8.22-1.53-11.81.53-3.43,1.16-7,.74-10.38-.27-2.18-2.23-4.23-3.68-6.15-3.53-4.67-2.88-11.17,2.12-13.78,4.51-2.36,6.84-5.51,7.17-10.54.07-1.06,1.32-2.65,2.33-2.94,4.41-1.27,5.38-5.5,7.33-7.54-1.56-4.21-2.89-7.77-4.42-11.89-2.41,6.28-4.69,12.2-7.01,18.21-5.64-.41-6.5,4.47-8.48,7.81-5.62,9.46-3.69,20.45-5.83,30.63-1.26,6-3.26,11.85-4.87,17.78-4.91,18.04-9.81,36.08-14.69,54.13-1.6,5.94-2.94,11.96-4.77,17.83-.38,1.21-2.31,2.55-3.66,2.72-2.28.28-3.83.41-3.85,3.32,0,.69-1.99,1.89-3.09,1.92-2.3.06-4.61-.5-8.24-.98,1.29,2.28,1.7,3.9,2.75,4.69,2.44,1.83,5.26,3.13,7.75,4.9.85.6,1.5,1.88,1.69,2.95.78,4.23,1.35,8.51,1.98,12.72-3.4,2.32-4.37,5.34-3.31,10.16.16.72.77,1.54.57,2.11-2.79,8.14,2.92,15.38,2.46,23.28-.07,1.28,1.18,2.62,1.75,3.97.91,2.15,3.01,4.83,2.38,6.38-1.32,3.25-2.1,6.51-2.97,9.85-.45,1.74-2.38,3.11-3.68,4.61-1.78,2.05-3.56,3.04-6.36,1.27-2.02-1.28-4.71-1.45-6.84-2.6-2.01-1.09-5.53-.62-5.37-4.48.01-.29-1.05-.54-1.49-.94-3.03-2.77-6.04-5.56-9-8.4-.28-.27-.37-1.06-.19-1.42,1.84-3.46-.57-5.39-2.36-7.86-2.57-3.54-4.59-7.49-6.81-11.29-.48-.82-.81-1.73-1.32-2.83-3.85,2.65-5.04-1.42-4.8-2.74,1.1-5.95-1.57-11.44-1.43-17.17.15-5.79.53-11.57,1-17.34.36-4.44,1.02-8.86,1.58-13.6-2.71-.64-5.08-1.09-7.35-1.82-.57-.18-1.31-1.41-1.17-1.93.42-1.54,1.94-3.02-.72-4.09-.35-.14-.24-1.62-.21-2.47.33-8.21,2.38-15.74,7.66-22.35,2.9-3.63,5.05-7.87,7.32-11.95-4.22,3.44-9.21,2.95-12.67-1.51.9-.21,1.71-.41,2.52-.6-1.69-1.96-3.33-3.37-2.01-6.83,1.49-3.92,1.21-8.51,1.75-12.8.47-3.65.9-7.3,1.58-10.91.28-1.49,1.28-2.83,1.74-4.3.37-1.2.7-2.54.55-3.75-.27-2.21-1.24-4.37-1.27-6.55-.01-1.07,1.43-2.16,2.22-3.25.28.14.56.27.84.41l-.29,1.4.49.6c.84-.94,1.76-1.82,2.51-2.83,1.03-1.39,4.68-.95,6.02,1.04,1.17,1.73,1.85,3.79,2.95,5.58.91,1.48,2.11,2.79,3.18,4.17.34-.12.68-.23,1.02-.35.45-2.08.91-4.16,1.21-5.53-2.99-2.37-6.05-3.86-7.68-6.31-2.39-3.59-5.86-3.93-9.31-4.69-3.03-.66-3.86-1.17-2.47-4.9,1.68-4.5,1.63-9.79,1.56-14.73-.04-2.94.63-4.07,3.41-3.79,4.02.41,7.82.21,9.72,5.64.9,2.57,5.65,3.89,8.81,5.44.43.21,2.35-1.4,2.67-2.44,1.34-4.39,2.51-8.85,3.3-13.36.15-.83-1.55-2.46-2.71-2.92-1.69-.67-3.66-.6-6.26-.95.97-11.88,1.91-23.54,2.87-35.32,3.13,0,6.23.81,7.04-.2,1.05-1.33-.2-4.25.4-6.23,1.92-6.31,4.24-12.5,6.4-18.74,1.08-3.12,2.12-6.26,3.23-9.38.83-2.34.9-4.35-2.83-5.31,2.8-5.78,5.45-11.25,8.19-16.9,2.74,1.07,3.95.48,4.78-2.41.82-2.87,2.95-5.37,4.5-8.01,1.22.15,2.32.28,4.5.54-1.52-1.32-2.21-1.91-3.19-2.76,1.33-1.88,2.81-3.7,3.96-5.7.54-.94.88-2.35.6-3.36-1.27-4.72-4.44-7.7-9.34-7.85-5.24-.16-10.73-.26-14.14,5.06-.34.52-.63,1.12-1.09,1.51-5.57,4.72-7,11.15-8.09,17.99-.9,5.64-5.71,7.45-11.6,6.71-6.95-.87-9.45-8.24-15.8-9.63-.2-.04-.37-1.94,0-2.7,3.06-6.16,5.98-12.42,9.49-18.32,2.86-4.8,6.6-9.07,9.76-13.7,1.76-2.58,2.95-5.56,4.78-8.08,1.13-1.55,2.89-2.73,4.57-3.75.79-.48,2.71-.64,2.98-.22,1.56,2.45,3.21,1.18,4.83.39,10.47-5.13,21.15-9.88,31.3-15.58,6.26-3.51,11.63-8.59,17.58-12.7,1.45-1,3.64-.91,5.47-1.39.52-.13,1.09-.39,1.44-.77,2.47-2.68,5.69-2.42,8.84-2.23.7.04,1.66.71,1.97,1.34,1.12,2.28,2.01,4.67,3.25,7.65.24-2,.81-3.66.55-5.18-1.69-9.69,1.25-17.52,7.6-25.06,4.37-5.18,9.7-5.98,15.08-5.72,3.55.17,6.94,3.33,10.44,5.09,7.89,3.96,8.68,11.39,9.24,18.91.17,2.37.03,4.76.03,7.97,15.18-3.62,30.05-4.47,45.21-.28.08-1.63.31-2.85.16-4.03-.68-5.67.7-11.07,3.27-15.88,1.47-2.76,4.58-4.74,7.19-6.76,2.13-1.65,4.51-3.07,6.97-4.18,1.43-.64,3.36-.93,4.85-.55,3.65.92,8.07,1.38,10.6,3.73,6.27,5.85,10.91,12.94,10.29,22.28-.23,3.46-.04,6.95.39,10.52.96-2.99,1.92-5.99,2.89-8.99,4.35.28,8.96-1.63,12.23,2.66,6-.99,8.45,4.39,12.54,6.87,8.6,5.23,17.33,10.26,26.18,15.05,5.35,2.89,11.02,5.21,16.57,7.71,1.7.76,3.15.98,5.34.32,1.84-.56,4.97,1.63,6.94,3.31,4.16,3.54,6.11,8.81,9.27,13.17,4.09,5.63,7.57,11.74,11.04,17.8,2,3.49,3.46,7.29,5.08,10.78-3.81,2.89-7.36,6.14-11.41,8.53-6.71,3.96-14.69,3.8-16.19-5.8-1.41-9.02-6.26-15.4-12.7-21.12-5.31-4.71-15.77-2.48-18.5,3.97-.43,1.02-1.22,1.9-1.55,2.93-.23.74-.18,1.74.15,2.44.9,1.95,2.01,3.8,3.03,5.69-.34.25-.68.5-1.01.76-1.05-.79-2.09-1.57-3.14-2.36-.14.08-.27.15-.41.23,1,1.49,1.99,2.99,2.98,4.47,4.7-1.22,5.74,1.21,9.37,10.64,3.07-1.79,3.78-1.31,5.04,1.82,1.79,4.45,4.04,8.72,6.18,13.26-3.43,1.9-3.24,4.22-1.99,7.59,3.04,8.2,5.51,16.61,7.99,25,.69,2.35.61,4.92.92,7.62.37.07,1,.37,1.55.26,3.94-.82,5.15-.01,5.71,4,.75,5.39,1.78,10.77,2.1,16.18.25,4.32-.2,8.72-.75,13.04-.11.87-1.96,2-3.13,2.18-4.88.75-5.16.82-4.28,5.74.69,3.82,1.62,7.62,2.8,11.32.28.89,1.97,1.93,2.97,1.88,3.58-.18,6.76-1.58,7.96-5.29,1.6-4.94,5.67-5.81,9.9-6.58,2.13-.39,3.34.42,3.55,2.72.62,6.95,1.33,13.89,2.05,21.38-7.94-.4-14.43,3.9-19.68,10.66l.53,5.06c.35.2.69.4,1.04.59,1.3-1.81,2.9-3.48,3.84-5.45,2.97-6.22,4.82-7.02,11-4.21,1.24.56,2.47,1.14,4,1.85-.65,3.04-1.33,6.12-1.95,9.22-.12.6-.21,1.47.11,1.86,3.02,3.58,3.42,7.68,3.4,12.22-.02,4.11,1.47,8.21,1.77,12.35.31,4.15.06,8.35-.17,12.51-.03.55-1.35,1.26-2.18,1.5-2.36.68-4.77,1.16-7.55,1.81,6.48,10.18,13.92,19.81,13.84,32.87-1.19.72-3.33,1.18-2,4.31,1.32,3.11-2.15,2.89-3.65,3.28-4.47,1.17-4.72,2.02-4.17,6.78,1.03,8.88,1.72,17.83,1.97,26.77.14,4.91-.9,9.86-1.4,14.79-.29,2.82-1.77,4.06-3.36,3.79-3.82,5.28-7.4,10.14-10.86,15.08-.68.97-1.56,2.55-1.22,3.38,2.33,5.75-2.79,7.57-5.45,10.49-4.61,5.05-10.49,8.2-16.98,10.33-3.28,1.07-5.61.33-7.54-2.72-.55-.87-1.99-1.29-2.33-2.18-.77-2-1.1-4.18-.8-6.53-1-.64-1.99-1.28-3.76-2.42.44,4.38.97,8,1.15,11.63.41,8.45,1.11,16.92.76,25.34-.15,3.73-2.58,7.35-3.95,11.04-.34.91-.78,1.87-.79,2.81-.05,11.89-.4,23.8.23,35.66.15,2.91,3.62,5.6,5.44,8.47.77,1.22,1.61,2.61,1.73,3.98.27,3.06-.44,6.29.26,9.21.88,3.67-.85,5.99-2.59,8.66-2.02,3.11-4.85,6.24-5.35,9.65-.93,6.37-.29,12.96-.56,19.44-.15,3.59-.96,7.16-1.21,10.75-.11,1.53.41,3.11.68,4.67,1.2,7,2.47,13.98,3.57,20.99.38,2.42,3.83,5.57,6.95,5.81,1.5.12,3.01.02,5.14.02,1.14,5.19,2.62,10.36,3.37,15.64,1.05,7.44,2.41,14.74,5.5,21.62,3.6,8.01,5.21,16.5,6.26,25.13,1.07,8.73,2.08,17.48,2.94,26.24.22,2.23.03,4.6-.52,6.76-.23.9-1.98,2.12-2.9,2.02-8.29-.95-11.71,4.02-15.68,10.41-4.58,7.37-1.32,13.91-.99,20.89.42,8.82.64,17.67.33,26.48-.15,4.25-4.55,7.41-9.33,7.44-15.99.1-32,.3-47.98-.15-4.25-.12-8.11-2.69-10.61-6.89-8.14-13.72-9.31-28.71-8.89-44.32Zm74.43-376.83c-2.6.26-5.43,2.37-6.5-1.75-2.62-10.04-5.25-20.09-7.99-30.1-2.79-10.19-5.87-20.3-8.55-30.51-3.05-11.64-5.98-23.33-8.6-35.07-1.14-5.11-1.43-10.41-2.03-15.64-.65-5.72-2.38-11.29-7.13-14.51-4.29-2.9-5.71-6.89-7.25-11.19-1.21-3.38-2.52-6.73-3.89-10.4-1.53,4.44-2.87,8.32-4.2,12.19l-1.97.97c2.85,2.23,5.88,4.26,8.48,6.75,1.41,1.36,2.19,3.44,3.07,5.28,1.25,2.61,1.58,5.62,4.81,7.1,1.95.89,3.92,2.54,4.99,4.36,2.65,4.53,1.49,8.74-2.21,12.32-1.85,1.79-2.62,3.89-2.24,6.54.82,5.71,1.51,11.44,2.09,17.18.07.72-.72,2.03-1.37,2.22-2.56.77-1.86,3.2-1.07,3.73,4.25,2.82,4.79,7.88,7.47,11.61.84,1.17,1.45,3.21,1.03,4.45-1.79,5.24.38,10.03,1.15,14.98.44,2.83,1.55,5.03,4.51,6.11.68.25,1.12,1.66,1.33,2.61.6,2.75,1.07,5.54,1.51,8.32.25,1.56.96,3.43.39,4.67-2.45,5.39-1.9,11.01-.68,16.26,1.71,7.39,4.83,14.44,6.85,21.77.61,2.2.49,5.9-.88,7.1-5.06,4.45-5.25,9.5-3.5,15.25.56,1.84.75,4.97,1.78,5.29,3.18.97,4.12,2.87,4.36,5.75.04.51.73.94,1.03,1.46,1.66,2.88,3.78,5.61,4.82,8.7,1.33,3.94,1.78,8.17,2.69,12.67,1.36-3,2.37-5.58,3.69-7.98.61-1.11,2.43-1.75,2.68-2.84,1.24-5.47,2.46-10.99,3.06-16.56.49-4.54.22-9.18.02-13.76-.06-1.45-.58-3.59-1.6-4.16-2.52-1.42-2.33-2.91-1.54-5.2.67-1.95.54-4.16.99-6.22.56-2.58.87-5.04,3.74-6.74,2.87-1.7,5.05-4.58,7.53-6.95-.22-.27-.43-.53-.65-.8h-8.73c-.49-1.73-.94-3.35-1.48-5.29Zm-27.59-253.25c3.08-4.13,6.16-8.21,9.17-12.34.38-.52.71-1.43.52-1.97-.88-2.51-1.35-5.55-3.08-7.28-2.88-2.88-6.61-4.9-10.19-7.43-.36,5.22-.68,9.41-.92,13.6-.16,2.73-.59,5.52-.21,8.18.28,1.94,1.69,3.73,2.84,6.1.26.15,1.31.79,1.88,1.14Zm-192.59-30.01c-2.61,1.45-4.26,2.57-6.06,3.32-5.08,2.11-6.57,6.6-7.69,11.33-.18.76.08,1.87.57,2.48,2.73,3.44,5.6,6.77,8.44,10.16,1.38-1.77,3.05-3.9,4.74-6.07v-21.23Zm-45.74,200.55c-2.09,0-3.94.25-5.7-.05-3.44-.58-5.56,1.25-4.45,4.46,2.66,7.66,5.56,15.24,8.37,22.85,2.62-9.24,4.77-18.31,1.78-27.26Zm278.96,26.17c1.16-2.97,2.01-4.88,2.66-6.85,1.83-5.55,3.82-11.06,5.21-16.72.37-1.52-.72-3.95-1.94-5.16-.98-.98-7.03,2.23-7.27,3.56-1.45,8.13-1.18,16.18,1.34,25.17ZM64.03,131.51c-3.8,6.47-7.97,12.2-8.97,19.53,4.76.09,11.11-13.66,8.97-19.53Zm45.58,181.5c-1.27-4.13-2.45-7.96-3.64-11.79-.3.05-.6.1-.9.15-1.62,4.83-3.24,9.65-5.15,15.35,3.21-1,5.21-1.57,7.17-2.27.79-.28,1.49-.84,2.52-1.44Zm200.53-160.04c.6-5.13-5.9-19.15-8.77-20.38-.24,7.9,2.7,14.31,8.77,20.38Zm-50.18,149.83c-.86,2.85-1.97,6.35-2.94,9.88-.12.45.31,1.44.68,1.56,2.63.85,5.32,1.53,9.03,2.55-1.31-3.7-1.96-6.17-3.05-8.43-.93-1.92-2.38-3.59-3.72-5.56Zm-1.22,244.71c4.89,7,11.69,7.47,16.18,1.18-5.52-.4-10.4-.76-16.18-1.18Zm79.07-228.85c.33-.03.67-.06,1-.09v-20.29c-4.89,6.48-2.9,13.43-1,20.38Zm-231.45,232.82c-2.09-3.63-6.77-4.1-13.29-1.5,3.39,4.64,3.98,4.71,13.29,1.5Zm136.46,38.38c.44.05.89.09,1.33.14,3.16-2.66,3.6-8.86-.07-13.99-.42,4.62-.84,9.23-1.26,13.85ZM26.25,298.04v17.61c1.72-5.97,3.68-11.92,0-17.61Zm96.45,279.39c-1.23.96-2.8,1.56-3,2.47-.42,1.91-.21,3.98-.1,5.97.09,1.78-.13,3.9,3.11,4.08v-12.52ZM14.55,326.2c-1.06-3.54,3.29-6.65-1.02-9.73-.98,3.02-1.92,5.92-2.97,9.16,1.52.22,2.44.35,3.99.57Zm336.24-10.51l-1.59.31c.53,3.15,1.06,6.29,1.62,9.65,1.4-.18,3.56.77,2.25-2.41-1-2.42-1.54-5.03-2.28-7.56Zm-67.07,275.86c.14-.41.27-.82.41-1.23-3.23-1.04-6.46-2.09-9.7-3.13l-.41,1.25c3.23,1.04,6.47,2.08,9.7,3.12Zm-8.72-28.86c0-.36-.01-.72-.02-1.08h-8.8c0,.36.01.72.02,1.08h8.81Zm59.45-288.42c-1.08,2.83-1.97,5.13-2.85,7.44,2.56-1.61,5.33-3.13,2.85-7.44Z"/>
    </g>
  </g>
</svg>