<svg id="Layer_1" data-name="Layer 1" xmlns="http://www.w3.org/2000/svg" viewBox="0 0 577 607.85">
  
  <g id="K31zIj.tif">
    <g>
      
      <path class="cls-1" d="m573.09,97.74c-7.18-.07-14.37.05-21.54-.24-10.57-.43-21.13-1.16-31.7-1.77-.41-.02-.82-.1-1.45-.75,2.03-.87,4.07-1.75,6.1-2.62-.09-.24-.17-.49-.26-.73-3.89,1.3-7.79,2.6-12.3,4.11-.02.1-.23,1-.33,1.47,6.28-1.28,12.15-.98,17.8,3.12-.71.48-1.12.79-1.56,1.05-.36.22-.76.39-1.27.65.44.63.83,1.17,1.54,2.18-1.29-.23-2.07-.37-1.99-.35-1.37,1.72-2.23,3.45-3.62,4.33-1,.63-2.71.12-4.43.12.02-.08-.13.7-.34,1.89-4.27-1.15-8.49-2.28-13.07-3.52.1-1.4.23-3.28.36-5.17-1.11,1.66-.1,4.77-4.05,3.76.16-1.58.31-3.11.47-4.64-.23-.05-.46-.1-.68-.16-.24.82-.37,1.7-.76,2.44-.72,1.37-1.43,3.35-3.16.71-.17-.26-.96-.29-1.38-.17-6.46,1.88-12.6,4.37-17.41,9.53,5.37,1.9,9.95,4.66,12.82,9.33,1.44,2.34,3.25,2.82,5.52,2.96,1.41.08,2.86.22,4.24,0,7.08-1.13,12.9,1.76,18.58,5.43,5.15,3.33,10.42,6.47,15.66,9.65,5.84,3.55,11.71,7.04,17.56,10.58.84.51,1.59,1.15,2.38,1.73-.16.25-.32.5-.48.74-1.07-.57-2.14-1.13-3.33-1.76-.65,1.03-1.3,2.07-2.12,3.38-2.41-1.38-6.52-.13-7.56-4.19-2.58,1.16-3.9-1.38-5.05-2.46-1.45-1.37-1.85-3.85-2.65-5.71-.13,1.01-.3,2.24-.6,4.48-2-2.28-3.26-3.72-4.02-4.58-1.33-.58-2.7-.75-2.93-1.35-.5-1.3-.41-2.83-1.27-4.21.06.94.12,1.87.25,3.78-3.84-2.67-6.93-4.82-10.19-7.08.09-.46.26-1.27.38-1.9-2.4-.96-4.55-1.82-6.71-2.69-.25.42-.5.83-.75,1.25,1.44,1.23,2.88,2.47,4.37,3.74-.3.17-.79.44-1.58.87,1.16.33,2.05.66,2.98.83,4.02.73,5.93,4.09,8.47,6.68.82.84,1.72,1.61,2.51,2.48,1.63,1.82,3.1,3.79,4.83,5.49,1.6,1.58,3.56,2.79,5.18,4.35,2.17,2.09,4.17,4.35,6.33,6.63-1.87,1.88-3.19,2.15-5.15.42-4.72-4.16-9.84-7.86-14.51-12.07-6.21-5.59-12.07-11.57-18.26-17.19-1.21-1.1-3.26-1.27-4.26-1.64-.54,2.35-.38,5.05-1.47,5.73-3.49,2.15-7.09,5.37-11.78,2.2-.63,6.88-2.17,13.08-7.4,17.98.12-1.39.23-2.78.35-4.17-4.19,10.31-8.39,20.61-2.27,31.63-2.24.52-4.39-.49-4.89-3.19-.87-4.66-2.14-9.67-1.23-14.12,1.41-6.94,4.52-13.53,6.84-20.3.81-2.37,1.42-4.8,2.11-7.21-.43-.12-.85-.24-1.28-.36-.3,1.25-.83,2.5-.85,3.76-.06,4.5-2.49,7.74-5.32,10.86-1.39,1.53-2.8,3.09-3.86,4.84-3.38,5.56-8.34,7.76-14.84,6.29-1.91-.43-3.82-.91-5.64-1.62-2.26-.88-3.24.16-3.85,2.1-1.7,5.42-3.55,10.8-2.19,16.64.22.96.03,2.02.03,3.7-2.42-2.79-3.07-5.38-2.37-11.66.41-3.72,1.61-7.36,1.87-11.59-1.55,1.64-3.58,3.04-4.54,4.97-2.08,4.16-3.21,8.82-5.45,12.88-5.18,9.4-3.56,19.84-5.22,29.76-.23,1.38-.83,2.69-1.26,4.04-.26-.07-.52-.14-.79-.2v-26.53c-4.66.78-7.87-3.12-11.62-4.79-2.79,6.82,1.45,12.52,2.91,18.59,1.26,5.21,4.04,10.03,5.68,15.18,1.14,3.58,1.49,7.41,2.25,11.46,2.29-.98,4.46-1.93,6.65-2.83q4.78-1.96,8.79.42c2.74-1.58,5.35-3.09,7.96-4.59.2.28.4.55.59.83.52-1.27,1.04-2.55,1.88-4.61,1.84,5.95,6.62,6.6,11.12,8.09,2.89.96,5.42,3.07,8.05,4.76,1.7,1.09,2.81.4,3.9-.9,1.47-1.74,2.82-3.67,4.57-5.08.95-.76,2.84-1.12,3.92-.7,1.02.4,2.4,2.38,2.14,3.15-2.38,6.86,1.32,12.28,3.95,17.92,2.54,5.45,1.54,8.62-3.79,11.37-3,1.55-5.86,3.35-8.85,4.91-5.84,3.04-7.32,8.33-8.01,14.34-.85,7.45-2.12,14.85-3.32,22.26-.18,1.12-.76,2.35-1.53,3.18-2.69,2.9-1.78,5.69-.54,8.92.86,2.24.56,4.91.78,7.36-.13.23-.19.51-.35.58-5.64,2.42-5.74,2.45-3.72,8.09,3.2,8.96,4.97,18.22,5.85,27.65.13,1.34-.78,2.84-1.41,4.17-.52,1.08-1.54,1.94-1.99,3.04-.99,2.39-1.54,4.98-2.69,7.28-1.16,2.33-2.5,4.13-1.36,7.22.55,1.5-1.77,4.12-2.92,6.16-2.63,4.63-6.97,7.32-11.36,10.01-1.91,1.17-3.67,1.32-4.9-.26-1.7-2.17-5.43-3.08-4.64-6.94.07-.34-.19-.85-.45-1.14-3.15-3.4-3.28-4.74-1.68-8.57.7-1.66.7-3.63.93-5.47.11-.86-.21-1.8.02-2.61,1.55-5.58-1.03-10.73-1.61-16.08-.09-.8-.58-1.99-1.18-2.22-4.02-1.54-2.25-4.93-2.47-7.57-.23-2.73-.61-5.57,2.58-7.42,1.46-.85,2.32-2.74,3.76-4.57-4.54.69-8.48,1.26-12.41,1.91-.43.07-.78.59-1.17.9-.98.76-1.86,1.95-2.96,2.21-6.05,1.42-6.11,1.36-8.87-4.28-2.67-5.46-5.25-10.95-7.92-16.53-1.37.48-2.35.81-3.33,1.15-.08-.14-.17-.28-.25-.42.88-.63,1.76-1.26,2.88-2.06-2.13-5.59-4.28-11.26-6.47-16.99-1.22.2-2.31.37-3.79.61.66-4.95,1.69-9.64-1.27-13.85-.36-.51-.85-.94-1.4-1.55,0,1.82.32,3.3-.06,4.58-1.62,5.41,2.64,9.92,2.02,15.25-.66,5.6,2.82,10.19,4.94,15.02,4.35,9.91,6,20.18,4.92,30.92-.98,9.76-1.95,19.52-2.84,29.29-.07.82.32,1.84.81,2.54,2.1,3.01,4.32,5.93,6.5,8.88-.16.24-.32.48-.47.72-2.29-.67-4.58-1.35-7-2.06-3.49,11.64.89,23.24-.55,34.82.43.11.86.21,1.29.32,1.28-2.93,2.56-5.86,4.08-9.34.95.35,2.78,1.11,4.66,1.7.94.3,2.02.18,2.96.5.8.27,1.87.74,2.14,1.4.93,2.29,1.57,4.7,2.34,7.12,3.9-.92,7.07-.26,9.25,3.23.3.48,1.01,1.03,1.52,1.02,6.39-.12,11.31,3.99,16.98,5.94.71.24.97,1.78,1.43,2.72-.83-.22-1.7-.34-2.47-.69-3.58-1.64-7.09-3.46-10.73-4.95-1.03-.42-2.42.08-3.68.15v3.67c2.6-3.11,3.67,1.33,6.29.72,1.71-.4,4.08,2.03,6.15,3.19-.09.26-.18.52-.27.78-1.18-.17-2.37-.3-3.54-.51-1.14-.21-2.27-.5-4.19-.94,5.31,6.77,13.6,9.08,16.91,16.32-1.39,1.07-2.69,2.06-4.27,3.28-.6-.25-1.53-.64-2.45-1.02l-.48.42c.53.67,1.09,1.32,1.58,2.01.92,1.3,3.49,2.14,1.17,4.41-.22.21.41,1.61.92,2.21,4.38,5.12,8.83,10.16,13.22,15.27.84.97,1.5,2.1,2.21,3.18.85,1.29,1.02,3-.29,3.6-1.25.57-2.95,1.69-4.54.09-1.2-1.21-2.94-1.99-3.84-3.35-2.09-3.17-3.63-6.72-5.76-9.87-2.91-4.31-5.63-8.99-9.43-12.39-3-2.68-7.4-4.02-11.38-5.31-4.21-1.37-8.69-1.85-12.98-3-.99-.27-1.67-1.68-2.34-2.4-.73.64-1.6,1.48-2.55,2.23-2.69,2.11-5.31,3.78-4.77,8.26.7,5.82.28,11.78.11,17.68-.06,2.02-.8,4.02-1.33,6.51,4.48,1.87,9.05,3.77,13.61,5.68.03.31.05.62.08.94-1.04.14-2.16.6-3.1.35-3.98-1.03-7.91-2.28-12.13-3.52-3.33,3.76-1.95,8.32-1.36,12.79,1.88,14.27,3.99,28.51,5.53,42.82.8,7.49.24,7.64-7.02,7.04.6,5.66,1.21,11.35,1.8,17.05.35,3.35.32,6.67.92,10.07.73,4.16.48,8.81.51,13.25,0,1.05-1.08,2.1-1.6,3.18-1.03,2.14-1.83,4.41-3.07,6.41-.82,1.31-2.13,2.44-3.45,3.26-1.16.72-2.64.94-4,1.31-.79.22-1.94.7-2.39.36-3.24-2.44-6.73-.97-10.14-.96-4.77,0-9.53-.28-14.3-.33-1.36-.01-2.75.26-4.08.59-1.12.28-2.6,1.53-3.18,1.17-2.91-1.79-7.33-.28-9.15-4.69-1.01-2.45-3.67-4.18-4.92-6.58-1-1.92-1.04-4.35-1.41-6.57-.26-1.58-.12-3.28-.61-4.78-.98-3.04-1.14-5.9.84-8.62-2.4-3.36-3.15-6.57-.27-10.16.97-1.21.79-3.32,1.17-5.01,1.21-5.28,2.66-10.52,3.58-15.85.49-2.84.09-5.84.09-7.76-1.99-1.42-3.99-2.11-4.66-3.46-1.67-3.36-2.96-6.96-4.01-10.57-1.52-5.21-2.8-10.49-3.96-15.79-.65-2.96-.96-6-1.27-9.02-.5-4.98-.57-10.02-1.39-14.95-.93-5.63-.09-10.78,2.13-14.62-1.23-2.93-2.71-4.99-2.9-7.16-.5-5.79-2.03-11.73.21-17.43,2.22-5.64.13-10.88-.88-16.26-.36-1.93-.72-3.85-1.16-5.76-.16-.72-.39-1.86-.84-2-3.79-1.24-3.19-4.68-3.61-7.37-1.91-12.27-3.33-24.63-5.5-36.85-.98-5.51-3.25-10.8-5.03-16.16-.24-.74-1-1.31-2.02-2.58-8.62,20.44-7.81,41.9-11.39,62.53-3.06-.14-3.84.82-3.6,3.92.66,8.59,1.48,17.18,1.7,25.78.12,4.75-.84,9.52-1.29,14.28-.08.81-.35,1.91.05,2.39,3.91,4.77,3.48,10.35,3.13,15.92-.36,5.67-.75,11.33-1.15,16.99-.09,1.29-.23,2.6-.5,3.87-1.1,5.1-2.17,10.2-3.45,15.26-.72,2.82-1.35,5.85-2.87,8.24-2.85,4.47-3.53,9.22-3.74,14.32-.1,2.47-1.35,4.87-1.85,7.35-.26,1.31-.13,2.72,0,4.07.21,2.05.57,4.09.9,6.37,2.8.55,3.71,2.56,3.76,5.41.02,1.45.64,2.95,1.24,4.31,1.2,2.69.47,5-.95,7.34-.42.69-.78,1.72-.57,2.41.93,3.06,2.18,5.99-1.29,8.47-.54.39-.47,2.07-.23,3.06.8,3.38.31,5.98-2.75,8.27-1.79,1.34-2.66,3.86-4.1,5.73-.89,1.16-1.88,2.47-3.13,3.06-2.22,1.06-4.66,1.7-7.05,2.38-.52.15-1.49-.05-1.76-.43-1.84-2.58-4.34-1.55-6.56-1.18-6.08,1.02-12.12,1.11-18.19.04-.62-.11-1.59-.27-1.87.05-3.33,3.77-6.84.76-10.16.17-1.13-.2-2.58-1.8-2.84-2.99-.6-2.69-1.41-4.93-3.23-7.23-1.15-1.46-.19-4.64-.05-7.04.09-1.6.43-3.19.62-4.79.05-.42-.12-.87-.09-1.3.55-9.76,1.12-19.53,1.71-29.65.57.3.39.13.21.12-5.85-.27-6.3-.31-5.79-6.22.81-9.42,2.35-18.78,3.44-28.19.41-3.55.51-7.13.64-10.7.08-2.18-.43-4.43-.02-6.52.76-3.84.1-7.12-2.54-9.99-3.56.39-6.86,2.97-10.59,2.02l-.23-1c2.39-1.16,4.86-2.19,7.14-3.54.74-.44,1.61-1.96,1.37-2.59-2.86-7.45-2.03-15.29-2.56-22.96-.24-3.52-.27-6.74-3.84-9-2.55-1.61-2.3-2.01-5.29-.65.05-.98.09-1.85.14-2.73-1.04,2.58-2.88,3.6-5.51,4.03-2.72.44-5.36,1.4-7.98,2.29-.83.28-1.51,1.06-2.2,1.69-.71.65-1.38,2-2.02,1.97-4.54-.19-6.95,3.38-9.93,5.67-2.51,1.94-4.37,4.77-6.36,7.33-3.73,4.81-7.32,9.73-11,14.58-1.55,2.04-3.23,1.92-5.35.08-.57-.5-1.8-.23-3.21-.36,3.37-5.9,7.78-10.68,12.6-15.12.07-.07.57.19.74.41.18.24.2.6.49,1-1.59-4.18,2.52-5.49,3.93-8.15.06-.12.88.16,1.44.27-.26-3.88,2.87-6.77,5.29-7.71,5.1-1.97,7.63-6.19,10.58-9.84,3.04-3.74,6.97-4.97,10.97-5.36,3.13-.31,4.62-1.69,6.37-4.06-1.62-.73-3.07-1.39-4.52-2.05.08.27.15.54.23.81-2.92,1-5.98,1.71-8.69,3.11-1.59.82-2.62,2.73-4.34,4.64-.29-1.14-.72-2.22-.82-3.32-.16-1.63-.27-3.13-2.48-2.98h.04c-.32-.25-.84-.76-.93-.69-1.6,1.18-3.06,2.56-4.72,3.65-10.8,7.08-21.64,14.11-32.47,21.15-.32-.18-.64-.36-.97-.54.3-.85.34-2.04.94-2.51,3.29-2.56,6.66-5.05,10.14-7.34.89-.58,2.29-.37,3.47-.52-.82-1.82.41-2.66,4.61-3.2-.14-.28-.28-.55-.43-.83,1.14-.47,2.27-.94,3.44-1.43-.61-1.74,4.51-5.44,12.08-6.69,0-.69-.03-1.95,0-1.95,2.63-.13,3.79-4.86,7.48-2.15.78-1.79,1.53-3.51,2.09-4.81-3.14,1.43-6.24,2.78-9.28,4.25-.93.45-1.64,1.38-2.59,1.8-3.99,1.8-8.05,3.46-12.05,5.25-.75.34-1.26,1.21-2,1.6-2.64,1.4-5.24,1.53-7.82-.68,11.09-5.03,22.1-9.97,33.05-15.04,1.67-.77,3.23-1.99,4.53-3.31,2.6-2.64,5.7-3.12,9.04-1.16.56.33,1.65.66,1.9.4.5-.5.59-1.42.85-2.16.85-2.49,1.63-5.01,2.59-7.46.14-.37,1.1-.69,1.62-.61,4.3.67,6.08-.36,6.32-4.48.36-6.08.39-12.18.44-18.27.01-1.15-.51-2.31-.78-3.43-.89.09-1.59.15-2.82.27.5-1.3.6-2.41,1.21-2.99,2.36-2.23,1.49-4.38.38-6.81-.88-1.93-1.71-4.07-1.78-6.15-.39-11.13-.73-22.27-.7-33.41.02-8.14,1.54-16.08,5.7-23.24,3.74-6.44,4.61-13.29,3.64-20.54-.13-.98.12-2.16.59-3.03,1.03-1.91,2.01-4.03,3.56-5.45,4.26-3.9,2.88-8,1.11-12.6-5,6.23-6.98,12.99-5.88,20.84-3.52-.01-4.36,2.22-5.16,4.87-1.09,3.64-3.22,7.05-3.78,10.73-.67,4.36-3.99,7.11-5.32,11.04-1.41,4.2-3.75,8.11-5.85,12.05-.41.77-1.56,1.6-2.38,1.61-3.7.06-7.12.54-10.57-2.67-2.22-2.07-6.89-1.51-10.62-1.83,6.04,4.68,2.48,11.04,3.31,16.51.06.42-.6,1.02-1.03,1.42-.55.5-1.61.77-1.78,1.34-1.27,4.32-2.99,8.63-3.37,13.05-.39,4.49.44,8.98,4.14,12.62,1.46,1.44,1.45,4.37,2.09,6.62.06.2.03.61-.03.63-3.99,1.09-3.04,6.53-6.88,7.8-.74.24-1.32,1.02-1.93,1.59-2.31,2.17-5.66,2.49-8.4.83-2.05-1.24-4.62-1.99-6.11-3.69-3.1-3.55-5.63-7.59-8.4-11.42,2.36-4.46-1.56-7.14-3.01-10.51-3.95-9.18-4.43-18.53-1.52-28.08,1.23-4.06,2.34-8.15,3.6-12.2,1.65-5.28,1.69-5.26-2.66-7.6-.1-2.04-.19-3.91-.28-5.79-.29,0-.58.01-.87.02.37-.79.65-1.64,1.12-2.36,2.53-3.83,3.61-7.54-.18-11.34-.74-.75-.87-2.18-1.11-3.34-1.93-9.47-3.75-18.97-5.8-28.42-.28-1.29-1.47-2.69-2.62-3.43-4.39-2.82-8.89-5.51-13.46-8.03-4.18-2.31-5.26-5.3-3.1-9.65,1.07-2.15,1.97-4.41,3.26-6.42,2.47-3.84,2.84-7.78,1.76-12.17-.29-1.2.78-3.19,1.84-4.15,1.53-1.39,3.01-.77,4.22,1.14,1.03,1.63,2.64,2.89,4.05,4.27,1.62,1.58,5.53,1.22,7.17-.4.82-.81,1.95-1.47,3.06-1.78,3.24-.92,6.6-1.44,9.79-2.49,3.19-1.06,6.55-2.22,6.87-6.08,1.81,1.99,3.55,4,5.42,5.87.41.41,1.44.67,1.95.45,2.96-1.25,5.88-2.62,8.76-4.05,2.29-1.14,4.5-2.42,7.25-3.91,3.41-10.84,7.06-22.43,10.71-34.03-.3-.24-.59-.48-.89-.72-7.02,3.72-14.02,9.5-21.31.21,1.66,10.83,2.7,21.26,2.75,31.76-.5.09-1,.18-1.5.27-.66-2.84-1.48-5.66-1.96-8.53-1.27-7.61-2.4-15.25-3.73-23.82-1.25,1.77-1.87,2.64-2.81,3.97-.32-1.18-.81-1.95-.64-2.51,1.76-5.67-1.77-9.82-4.01-14.34-.19-.39-.5-.72-.72-1.09-4.03-6.97-4.04-7.01-11.83-4.43-3.75,1.24-7.53,2.62-11.36.69-2.47-1.25-4.68-3.02-6.65-4.32.27,1.3.77,3.59,1.22,5.9,1.02,5.27.52,10.41-1.43,15.41-1.03,2.65-2.36,3.55-5.36,3.52,8.04-16.39-.27-29.81-7.68-43.64-2.48,1.8-.81,3.65-.26,5.27,1.17,3.45,2.55,6.83,3.56,10.34-4.96-3.19-8.91-12.63-7.27-17.77.68-2.12,2.83-3.76,4.92-6.38-1.74.27-3.19.94-4.26.56-1.34-.49-2.37-1.84-3.52-1.94-1.53.08-3.05.17-4.59.25-.04,3.02-2.84,5.87-5.75,7.21-2.63,1.21-4.77,2.57-6.73-.68-2.11,1.76-2.83-2.42-5.04-.62v-6.14c-.4.2-1.23.45-1.86.95-6.87,5.45-13.7,10.97-20.57,16.42-5.77,4.57-11.56,9.12-17.43,13.58-.75.57-2,.47-3.02.68-.2-.44-.4-.89-.61-1.33,7.25-6.19,14.51-12.38,21.58-18.41-1.96-.58-3.3-2.16-2.26-5.21-1.38,2.94-.32,6.94-5.12,8.11-.33-1.36-.71-2.95-1.09-4.54-.13,4.45-1.54,8.27-6.85,9.76-.19-.23-.77-.91-1.29-1.53-.1.84-.21,1.81-.33,2.82-1.58.45-3.21.73-4.69,1.39-1.81.8-3.52,2.02-4.09-1.51-.84.97-1.45,1.66-2.06,2.36-.14-.05-.29-.1-.43-.15.32-1.09.65-2.17,1.05-3.52-1.66.74-3.05,1.37-4.45,1.99l-.42-.76c2.41-1.45,4.78-2.96,7.23-4.35,6.78-3.85,13.41-8.04,20.46-11.3,3.35-1.55,6.38-3.44,9.49-5.31,3.4-2.03,6.77-4.14,10.34-5.85,1.78-.85,3.94-1.06,5.96-1.2,1.94-.14,3.91.24,5.87.29,2.47.05,4.19-1.01,5.69-3.13,4.5-6.37,12.3-9.14,19.99-7.04.91.25,2.15-.7,2.93-.98-3.04-1.56-5.54-3.04-8.18-4.17-6.08-2.6-12.16-5.22-18.38-7.43-2.5-.89-5.14-.17-6.72,2.44-4.26-.35-.92-5.21-4.14-7.01.19,1.97.43,3.25.4,4.53-.02.94-.29,1.92-.69,2.77-.1.21-1.47.22-1.65-.05-.59-.95-1.12-2.05-1.25-3.15-.1-.83.46-1.73.72-2.61-.27-.04-.54-.09-.81-.13v6.98c-5.17,1.23-10.21,2.42-15.4,3.66-.19-1.28-.32-2.13-.49-3.22-.54.85-.98,1.53-1.41,2.2-2.97-1.01-7.47-.18-6.63-5.81-.72.15-1.6.34-2.96.63.52-.89.83-1.43,1.25-2.14-1.02-.48-2.04-.95-3.41-1.59,5.85-4.21,12.4-3.53,18.65-4.02.68-.05,1.45,1.19,1.72,1.43,1.09-.97,2.22-1.97,2.71-2.41-3.68-1.53-7.99-3.33-12.3-5.13-.19.28-.37.56-.56.84,1.02.67,1.99,1.46,3.08,1.99,1.13.55,2.38.84,4.18,1.45-1.05.57-1.54,1.04-2.04,1.07-10.75.47-21.5.93-32.25,1.32-7.82.28-15.64.49-23.46.58-.92.01-1.85-.87-2.78-1.34.89-.39,1.76-1.08,2.66-1.12,6.73-.32,13.67.36,20.13-1.11,3.47-.79,7.03.42,10.41-1.36,1.25-.66,3.62.84,4.66,1.12,1.33-.65,1.92-.95,2.51-1.24.73-.36,1.47-.73,2.2-1.09-.6-.79-1.2-1.58-1.8-2.37-.54.57-1.08,1.15-1.92,2.05-1.58-.34-3.6-.77-5.91-1.26.02-.05-.21.5-.93,2.23-1-1.38-1.71-2.34-2.11-2.89-.84.32-2.06,1.25-2.65.95-2.94-1.52-7.88.54-8.98-4.81-1.06.33-2.31.72-3.56,1.1-.08-.2-.16-.41-.24-.61,1.08-.64,2.15-1.29,4.07-2.43-2.91-.15-4.86-.26-6.81-.36.03-.36.06-.72.1-1.08,3.75.3,7.57.24,11.22,1.01,3.89.82,6.6-.45,9.17-3.31-1.72-.53-3.28-1.01-4.85-1.5.03-.4.05-.81.08-1.21,5.67,0,11.36-.23,17.02.06,5.8.3,11.58,1.1,17.25,1.67-1.35,2.58-2.59,4.95-3.83,7.32.19.12.38.24.56.36.71-.87,1.86-1.64,2.06-2.61.98-4.7,4.39-4.57,7.93-4.25,3.89.35,7.76.79,11.64,1.22.51.06,1,.26,1.33.35-.26,2-.49,3.84-.81,6.25q3.59-4.54,9.69-1.63c-.89-5.88-6.16-9.81-11.98-8.76-.13-.77-.26-1.53-.42-2.42-2.35,2.11-4.71,2.14-7.33,1.11-1.95-.77-4.82-.59-5.89-1.93-2.06-2.59-4.46-3.71-7.47-4.45-2.15-.52-4.18-1.53-6.23-2.4-2.42-1.03-4.81-2.13-8.18-3.63,4.63-.6,3.36-1.86,1.36-3.14,1.39-.24,2.51-.44,3.64-.63,0-.24,0-.48,0-.72,1.11.67,2.22,1.34,3.54,2.14,2.11-3.6,4.83-2.72,7.77-1.18.59.31,1.69-.49,2.46-.33,3.41.71,6.79,1.55,10.15,2.46.22.06.2,1.04.26,1.39.99.11,2.07.23,3.15.35-.02.27-.03.55-.05.82,1.36-.07,2.11-1.07,4.18-.37,5.36,1.8,11.27,2.32,16.99,2.49,2.22.07,4.51-2.18,7.15-3.58-3.44-1.16-6.32-2.12-9.74-3.28,2.06-.69,3.49-1.17,5.54-1.85-3.54-2.71-5.52-5.37-.82-9.11,1.72,1.98,3.71,4.33,5.78,6.6.43.48,1.16.9,1.79.96,3.21.31,6.44.55,9.66.67,1.33.05,2.67-.26,4.24-.44.08.41.24,1.22.24,1.2,3.77,1.49,7.07,2.79,10.65,4.2-.79,1.18-1.42,2.1-2.4,3.55,1.36-.84,2.19-1.36,3.74-2.32-1.12,4.65-4.39,6.83-7.02,9.45.32.26.64.51.96.77,1.22-1.38,2.39-2.8,3.66-4.12,1.29-1.34,2.69-2.58,4.04-3.86.21.17.42.34.63.51-.34.79-.68,1.57-1.13,2.62.95-.33,1.73-.6,2.5-.87.63.76,1.26,1.52,2.28,2.76-2.39,2.65-5.06,5.61-7.91,8.75.56-.05,1.11.06,1.32-.15,2.57-2.6,5.28-5.09,7.53-7.95.89-1.13.7-3.1,1-4.69-.29-.16-.58-.32-.87-.47,1.45-.47,2.89-.95,4.34-1.42l-.06-.54c-1.12.1-2.25.2-3.74.33.52-1.71-2.52-2.78-.52-4.77-.64-.56-1.28-1.13-1.83-1.61,1.06-3.16,2.18-6.5,3.42-10.19-3.64.76-7.44,1.56-11.24,2.36.08-.19.17-.38.25-.57-1.46-.44-2.91-.88-4.84-1.46,1.76-.67,3.22-1.23,4.99-1.91-.8-.6-1.47-1.09-2.95-2.19,1.91.19,2.95.29,4.27.42-.34-.71-.67-1.39-1.21-2.52,3.61-1.74,7.24-3.5,11.25-5.44.2.17.81.66,1.03.84,1.38-1.12,2.63-2.13,4.13-3.35,1.11,2.05,2.1,3.88,3.09,5.71.24-.12.49-.23.73-.35-.53-1.98-1.07-3.95-1.62-5.98,1.87-.36,3.25-.63,4.67-.9,1.02,1.85,2.07,3.75,3.12,5.66.26-.1.53-.19.79-.29-.86-2.45-3.16-4.88-.37-7.79.95,2.21,1.79,4.15,2.62,6.09.23-.09.47-.18.7-.27-.31-1.91-.62-3.82-1.02-6.24,1.21.4,1.91.63,2.62.86-.12-.25-.25-.5-.37-.75,1.63-.86,3.2-1.91,4.93-2.47.51-.17,1.47,1.06,2.03,1.49.48-.96,1.17-2.36,1.87-3.76.22.06.45.11.67.17v4.74c1.35-1.26,2.4-1.9,2.95-2.83,1.17-1.99,2.07-1.85,2.82-.41,1.64-.89,3.28-1.78,5.16-2.8.59,2.49,1.03,4.39,1.48,6.29.3-.03.6-.06.9-.09v-5.3c2.3-.41,4.39-.18,5.56-1.11,2.15-1.72,3.11-1.38,4.02.96.22.55.82.95,1.85,2.09-.46-2.25-.75-3.67-1.12-5.44.84.33,1.52.6,2.29.9v-3.21c-2.37.62-4.18-.94-5.16-4.64-1.57.7-3.08,1.38-4.62,2.06-5.49-1.16-11.4-2.42-17.54-3.72.04.39.09.96.16,1.63-7.42-.57-14.84-1.14-22.38-1.72-.17-1.02-.32-1.95-.55-3.33-1.71.4-3.31.78-4.91,1.16-.11-.28-.22-.56-.33-.83,1.46-.52,2.89-1.32,4.39-1.5,2.59-.31,5.28.03,7.83-.43,1.52-.27,2.86-1.55,4.27-2.37-.16-.32-.32-.64-.48-.96-1.23.14-2.45.28-3.68.41-.02-.3-.04-.6-.06-.91,1.93-.1,3.9-.45,5.79-.24,3.24.37,6.43,1.48,9.66,1.58,4.84.14,9.72-.18,14.56-.58,4.13-.34,8.22-1.09,12.33-1.62.62-.08,1.41-.18,1.89.11,3.18,1.93,6.25,4.04,9.47,5.92,1.46.86,3.14,1.37,4.76,1.94,3.44,1.23,7.08,2.24,5.36,7.72.4-.12.79-.23,1.19-.35.22-1.19.45-2.38.71-3.8,6.01,2.7,12,5.39,17.99,8.07.14-.2.29-.41.43-.61-3.69-3.12-7.39-6.24-11.19-9.45-1.06,1-1.86,1.77-2.79,2.65-1.49-2.36-1.5-4.12.34-6.26C232.78,5.66,234.28,2.72,236.05,0c1.09,0,2.19,0,3.28,0,.29,1.31.58,2.63.87,3.94.61,1.77,1.89,3.39,3.21,4.97,2.91,3.5,5.18,7.96,11.23,5.65,1.8-.69,3.07-1.21,2.89-3.14-.28-3.05-.83-6.07-1.34-9.61,6.13-.17,11.46,3.54,17.32,5.04,3.11.8,6.21,3,6.78,7.28.81-.7,1.31-1.1,1.77-1.53,3.79-3.59,6.7-8.26,12.45-9.38,1.71-.33,3.02-.79,4.36.8,3.48,4.13,6.99,8.25,10.66,12.21,2.34,2.53,5,4.77,8.02,7.62.45-3.42.29-5.87,1.19-7.83.69-1.48,2.66-2.48,4.27-3.29.29-.15,1.53,1.67,2.38,2.54,1.04,1.07,1.95,2.5,3.23,3.06,3.18,1.4,4.35,3.98,2.96,7.24-1.11,2.59-2.02,5.28-3.13,7.87-1.52,3.56-2.11,6.81,1.71,9.46.63.44.74,1.77.91,2.72.74,4.07,1.45,8.15,2.09,12.23.66,4.24,1.22,8.5,1.82,12.75.47.14.94.27,1.41.41,3.27-5.9,7.43-11.51,9.57-17.8,2.19-6.43,2.42-13.53,3.59-20.86,2.61,1.4,4.89,2.39,6.92,3.76,2.67,1.8,5.17,3.86,7.69,5.87,1.01.8,2.54,1.68,2.66,2.67.16,1.26-.47,3.24-1.45,3.91-5.15,3.52-8.31,8.64-11.35,13.77-1.8,3.04-2.89,6.56-3.87,9.99-.83,2.9.72,5.05,2.89,4.32,5.03-1.7,9.99-3.65,14.84-5.8,3.16-1.4,5.94-3.74,9.16-4.95,6.04-2.26,6.6-1.19,7.16,4.17.27,2.57.84,4.58,4.01,5.01,1.97.27,3.84,1.32,5.74,2.02-.17.73-.31,1.39-.46,2.02,1.08-.5,1.99-.93,2.9-1.35.3.7.6,1.4.94,2.19.82-.35,1.78-1.16,2.63-1.05,4.23.54,8.42,1.48,12.66,1.93,2.04.22,4.41.18,6.19-.67,5.18-2.45,10.14-5.37,15.34-8.18-.95-.8-1.65-1.39-2.35-1.98,1.52-.22,2.92-.15,4.14.36,2.28.95,4.01.54,5.34-1.53.52-.06,1.05-.12,1.57-.18,1.87,1.56,3.73,3.12,5.6,4.68.1-.13.19-.25.28-.38-.76-.9-1.51-1.79-2.39-2.84,1.12-.96,2.08-1.78,3.33-2.86,0,.02-.15-.64-.32-1.41,4.28.89,4.62,6.84,7.22,7.01-1.47-1.75-3.77-4.48-6.08-7.22.44-.24.88-.49,1.32-.73.14-.97.29-1.94.44-2.93,5.25-3.76,10.66-8.1,17.83-3.8.59-.69.99-1.45,1.63-1.85,1.21-.76,2.73-1.09,3.79-1.99,1.39-1.18,2.37-2.84,3.74-4.05.53-.47,2.32-.52,2.38-.35.59,1.65,1.82,3.98,1.16,4.98-1.94,2.92.09,4.05,1.66,5.51,1.27,1.18,2.71,2.18,4.03,3.31,3.75,3.2,7.82,1.96,11.9.94,1.96-.49,3.94-.91,5.8-1.33.09.15-.25-.44-.58-1.04,3.14-.88,6.1-2.28,9.1-2.39,2.76-.11,6.28-2.61,8.28,1.68.95-.89,1.7-1.58,2.45-2.28l.08,1.01c1.05.13,2.1.26,3.23.39-1.93,2.59,1.22,1.11,1.37,1.34-.2,1.42-.03,2.87-.5,3.12-2.55,1.37-5.23,2.52-7.92,3.61-2.81,1.14-6.72,1.31-8.29,3.34-2.78,3.6-6.35,3.93-10.05,4.78-2.23.41-4.45.81-6.56,1.18-.11,1.68-.21,3.07-.35,5.1,2.66-2.44,4.81-4.4,6.95-6.36-.75,2.01-1.49,4.01-2.08,5.59,1.09,1.45,1.92,2.56,2.75,3.67.18-.05.36-.09.55-.14-.32-1.72-.64-3.43-.93-4.94,6.28-.67,12.59-.87,18.7-2.12,9.41-1.92,18.75-2.03,28.34-.22-1.63.34-3.26.67-5.32,1.1,1.5,1.18,2.68,2.11,3.87,3.04-.11.19-.21.38-.32.57-.97-.36-1.94-.73-2.92-1.09-.02.29-.04.58-.07.86,6.46,1.83,13.05-1.48,19.97-.24-1.89.52-3.35.92-5.04,1.38,1.02.77,1.74,1.32,3.18,2.41-1.92-.43-2.93-.66-4.3-.96.33,1,.56,1.73.78,2.4-2.25.72-4.28,1.7-6.4,1.96-2.6.32-5.67-.78-7.82.23-3.02,1.43-4.81.43-6.31-.99-1.56,1.21-2.85,2.21-4.59,3.56,1.48-.16,2.45-.27,3.57-.39-.26.58-.46,1.06-.7,1.61,2.49-.07,4.17-1.76,7.16-.73,3.84,1.33,8.48.17,12.76.46,4.04.27,8.05,1.41,12.08,1.41,2.24,0,2.95.36,2.83,2.44ZM179.53,50.68c-1.38,2.09-2.88,4.38-4.87,7.39-.21-2.18-.33-3.44-.48-5.03q-1.76,6.03-2.63,5.6c-5.78,4.89-11.32,9.29-18.42,11.63,2.45-.46,4.9-.91,7.35-1.37.06.24.12.48.17.72-.6.49-1.2.98-1.93,1.58.65.16,1.44.26,1.44.37.02,2.65,2.04,2.28,3.7,2.65,1.02.23,1.91.99,2.88,1.45,4.5,2.12,9,4.26,13.55,6.26.91.4,2.16.52,3.12.27,10.93-2.82,21.81-5.87,32.78-8.55,3.27-.8,4.01-2.59,4.16-5.52.21-4.04.77-8.05,1.25-12.73,3.27,2.01,5.81,3.57,9.14,5.61.77-2.66,2.07-4.92,1.89-7.05-.27-3.24-1.56-6.39-2.47-9.57-.09-.31-.56-.5-.79-.69-.72,2.12-1.41,4.14-2.1,6.16l-1.07-.33c.14-1.79.27-3.58.41-5.37-.2-.04-.4-.07-.6-.11-.49,2.33-.99,4.66-1.48,6.99-.26.1-.52.21-.78.31-.63-1.34-1.26-2.67-2.05-4.34-.61,1.28-1.12,2.34-1.76,3.7-.86-.82-1.51-1.44-2.29-2.18-.51.92-.9,1.62-1.32,2.39-.85-.42-1.56-.77-1.9-.94-1.34,1.95-2.52,3.68-4.27,6.24-.83-2.98-1.47-5.24-2.1-7.49-.24,2.14.64,4.29.28,6.21-.3,1.61-2.04,2.96-3.26,4.57-.31-.16-.87-.45-.67-.34-2.99,2.36-5.71,4.51-8.8,6.95-.25-1.35-.36-1.99-.51-2.82q-.74,2.11-8.16-1.66c.23-.48.72-.99.66-1.43-.6-4.19,1.96-6.44,4.93-8.63,1.73-1.27,3.11-3.01,4.64-4.53h-10.81c.67,4.5-4.83,3.45-6.42,6.93-.19-1.64-.31-2.6-.39-3.3Zm181.77,69.48c.38.25.77.5,1.15.75.5-.72,1.25-1.36,1.45-2.16,1.18-4.6,2.13-9.27,3.36-13.86.58-2.17,1.85-4.16,2.37-6.34.94-3.94,1.81-7.64,5.51-10.28,2.5-1.78-.35-3.65-1.18-5.24-.25-.48-2.79-.52-3.46.12-1.88,1.76-3.48,3.87-4.92,6.02-3.89,5.83-6.13,11.8-4.22,19.24.92,3.57,3.22,7.82-.07,11.74Zm-112.59,116.67c.01-.27.02-.54.03-.81-2.38.22-4.84.95-7.11.56-4.27-.75-5.73,1.9-7.1,4.91-.21.46-.09,1.24.18,1.68.17.27,1.03.42,1.38.23,2.78-1.47,5-.99,7.02,2,.64-1.23,1.1-2.42.95-3.52-.52-3.88.62-5.2,4.65-5.04Zm-25.45-147.8l.37-.48c-.63-1.17-1.26-2.34-1.73-3.22,1.36-1.51,2.64-2.95,3.93-4.38-.13-.42-.25-.85-.38-1.27-1.77-.12-3.55-.37-5.32-.31-1.65.06-3.28.44-5.61.79-.07.09-.72.86-1.04,1.23,3.16,2.47,6.47,5.06,9.78,7.65Zm14.97-20.19v-4.65c.89.38,1.52.64,2.24.95.13-1,.24-1.84.35-2.72.83.06,1.52.12,2.26.17.65-3.38-2.6-2.84-3.55-2.87-1.93-.05-4.6.57-5.68,1.93-1.44,1.82-2.6,4.75,1.09,6.57.79-2.43,1.82-1.01,3.29.62Zm116.85,166.96c.59,2.43,1.11,4.52,1.81,7.41,2.59-1.56,5.38-3.25,8.84-5.34-.22,1.68-.36,2.78-.45,3.48,1.53-.23,3.21-.48,5.47-.82-1.14-1.05-1.9-2.27-2.96-2.62-2.64-.89-5.18-1.47-.58-4.72-.49-.12-.98-.23-1.48-.35-2.59,2.22-5.18,4.45-7.7,6.62-1.16-1.44-2-2.47-2.95-3.65Zm115.44-107.77c-.98,8.14.44,10.81,4.48,9.87-.23-3.06-.46-6.1-.72-9.56-.9,1.55-1.55,2.68-2.38,4.12-.58-1.87-.98-3.15-1.38-4.43Zm-242.4,124.64c.32.03.65.06.97.08.42-2.26.83-4.52,1.25-6.78-2.14-.19-4.28-.38-7.19-.65,1.98,2.93,3.47,5.14,4.97,7.34ZM299.24,13.54c-1.79-3.05-4.81-3.29-7.18-3.35-1.46-.03-2.98,2.27-4.47,3.52.15.19.29.39.44.58,3.6-.24,7.2-.48,11.21-.75Zm130.89,439.83c-1.19-6.13-2.72-7.48-5.74-6.61,1.8,2.07,3.77,4.34,5.74,6.61ZM196.99,39.02h5.5c.02-.27.03-.54.05-.8-3.19-.43-6.38-.86-9.57-1.28-.05.19-.1.38-.15.57,1.93,1.58,3.87,3.16,5.8,4.74.13-.07.26-.14.39-.21-.6-.9-1.2-1.8-2.01-3.02Zm313.99,53.21c-.17-.42-.35-.84-.52-1.26-3.16.99-6.33,1.97-9.49,2.96.13.46.26.91.39,1.37,2.58-.77,5.15-1.55,7.73-2.32.11.11.22.21.34.32.52-.36,1.03-.71,1.55-1.07Zm-97.57,345.51c1.13,2.02,5.71,3.79,8.59,3.44-.7-.98-1.43-2-1.97-2.76-2.2-.23-4.27-.44-6.62-.68ZM120.29,129.56c.79,2.79,1.58,5.58,2.37,8.37,3.06-3.99-.23-6.06-2.37-8.37Zm41.18-30.71c.43.34.87.68,1.3,1.02,1.24-1.31,2.49-2.63,3.73-3.94-.74-.41-2.03-1.28-2.14-1.15-1.08,1.26-1.96,2.69-2.89,4.07Zm222,148.03l-.36-1.53c-1.31.16-3.07-.13-3.8.61-.72.72-.41,2.49-.66,4.73,2.22-1.75,3.52-2.78,4.83-3.8Zm-111.05,288.56c1.8,3.1,3.25,5.59,4.7,8.08.18-1.43-.43-2.65-.33-3.8.25-2.91-1.59-3.45-4.37-4.28ZM80.38,93.76h8.69q-6.99-3.3-8.69,0Zm1.12-6.97c.22.2.44.4.66.61,1.26-1.09,2.51-2.17,3.84-3.32-1.13-.61-1.82-.99-2.58-1.4-.59,1.27-1.25,2.69-1.91,4.11Zm116.85-39.22c2.68.71,5.22,1.2,4.73,4.92v-4.92h-4.73Z"/>
      
      <path class="cls-1" d="m182.36,439.01c2.98,3.97,2.65,7.54-.93,10.56-1.33,1.12-2.51,2.45-3.94,3.42-2.49,1.7-5.08,3.28-7.74,4.7-.53.28-1.65-.31-2.39-.71-1.07-.59-2.05-1.37-3.32-2.25,4.37-7.05,12.61-9.98,18.38-15.72,0,0-.05,0-.05,0Z"/>
      <path class="cls-1" d="m452.45,448.9c4.41.55,12.53,6.09,14.85,10.61-1.61-.39-2.89-.39-3.81-.96-4.69-2.93-9.29-6.02-13.92-9.04-5.23-3.41-10.48-6.8-15.71-10.21-.52-.34-.97-.78-1.93-1.56,2.52-.28,4.35-.49,6.15-.69,2.52,1.75,5.12,3.55,8.03,5.58-.88.48-1.53.83-2.18,1.19,1.7.11,3.37.21,5.04.31.05.2.1.4.15.6-.64.31-1.29.63-1.17.57,1.53.82,3.56,1.93,5.6,3.03-.37.19-.73.39-1.1.58Z"/>
      <path class="cls-1" d="m459.12,440.22c-3.43,2.1-6.23,1.76-9.34-.41-2.28-1.59-5.2-2.28-7.84-3.35-2.01-.81-2.42-2.25-1.69-4.64,6.34,2.82,12.53,5.57,18.87,8.4Z"/>
      
      <path class="cls-1" d="m441.28,68.85c-2.64,2.24-5.4.79-7.8-.21-1.06-.44-1.51-2.62-2-4.09-.71-2.14-1-4.44-1.95-6.45-.23-.48-2.34-.07-3.53-.07-1.3-3.39,1.37-5.3,2.71-7.68.45-.79.84-1.79,1.55-2.22.87-.53,2.48-1.14,3.01-.73,3.81,2.95,7.62,5.98,10.99,9.41.84.85.06,3.29.01,5-.02.72-.1,1.44-.16,2.29-.79.13-1.68.27-1.73.28.67.9,1.55,2.08,2.43,3.26-.65.34-1.3.68-1.95,1.02-.52.06-1.05.12-1.57.18Z"/>
      
      
      
      
      
      
      
      
      
      
      
      
      
      
      
      
      
      
      
      
    </g>
  </g>
</svg>