<?xml version="1.0" encoding="UTF-8"?>
<svg id="Layer_1" data-name="Layer 1" xmlns="http://www.w3.org/2000/svg" viewBox="0 0 370.06 792">
  <defs>
    <style>
      .cls-1, .cls-2 {
        stroke-width: 0px;
      }

      .cls-2 {
        fill: #fff;
      }
    </style>
  </defs>
  <g id="DCWIPJ.tif">
    <g>
      <path class="cls-2" d="m370.06,792c-123.35,0-246.71,0-370.06,0C0,528,0,264,0,0c123.35,0,246.71,0,370.06,0,0,264,0,528,0,792ZM240.06,116.84c2.67-2.05,5.15-4.36,7.99-6.07,5.59-3.36,7.5-8.84,3.58-14.21-5.5-7.52-11.28-14.95-17.82-21.54-4.35-4.39-5.48-10.45-3.7-14.05,3.52-7.14-.24-13.05-.4-19.46-.02-.95-.97-1.98-1.7-2.79-2.57-2.85-5.26-5.59-7.83-8.44-3.92-4.34-7.49-9.05-11.76-13.01-3.36-3.12-7.27-6.79-11.45-7.61-6.5-1.27-13.43-.34-20.56-.34-2.65-5.92-8.22-9.35-15.33-7.01-4.21,1.39-12.82-2.13-11.62,7.87.04.32-1.17,1.04-1.87,1.16-6.03,1.1-6.55,5.3-6.18,10.33.27,3.63.18,7.31-.07,10.94-.4,6.04,2.05,12.86-4.56,17.37-.63.43-.54,2.16-.52,3.29.04,4.03.09,8.07.37,12.1.1,1.4.53,3.07,1.42,4.07,3.87,4.34,3.47,6.56-.61,10.77-4.16,4.29-8.16,8.95-11.21,14.06-5.23,8.76-3.45,15.15,4.72,20.86.86.6,1.56,1.43,2.73,2.52-1.48.78-2.4,1.47-3.43,1.78-2.56.77-5.15,1.47-7.77,2.02-7.13,1.52-9.49.41-11.55-6.6-2.04-6.96-3.58-14.08-5-21.19-1.42-7.08-1.95-7.51-9.09-5.88-18.19,4.16-34.74,12.4-49.98,22.66-13.27,8.94-25.19,19.92-37.66,30.05-3.42,2.78-4.21,5.7-.11,8.77,4.88,3.66,9.38,7.92,14.53,11.13,5.76,3.59,9.3,7.04,8.03,14.97-1.15,7.13-3.85,15.48,6.13,20.59,4.37,2.23,7.93,4.01,12.63,2.85,1.94-.48,3.85-1.05,6.72-1.84-1.08,2.66-1.68,4.24-2.37,5.79-5.13,11.55-10.21,23.11-15.5,34.58-.57,1.23-2.24,2.51-3.57,2.73-11.58,1.96-15.52,5.86-17.31,17.21-1.2,7.58-2.85,15.09-3.96,22.69-3.8,26-7.62,51.99-11.03,78.04-1.03,7.88-1.2,16.12,9.2,18.75-2.18,10.34-8.4,19.21-6.5,29.84.17.95-.77,2.13-1.27,3.16-1.6,3.27-1.01,5.8,2.11,7.57,2.23-2.94,4.32-5.68,6.4-8.42.49.19.99.38,1.48.57.2,1.53.88,4.26.53,4.41-6.8,2.75-1.91,6.16-.44,9,2.59,4.97,5.6,9.41,6.55,15.42,1.33,8.37,5.71,15.46,13.18,20.75,5.57,3.94,8.38.63,11.76-2.29,3.32-2.87,2.83-7.18.22-9.21-6.2-4.83-6.12-10.74-5.17-17.41.63-4.43.3-9.02,1.13-13.39.73-3.83,2.46-7.48,3.76-11.2.56-.09,1.12-.17,1.68-.26,1.58,9.28,3.01,18.6,4.91,27.81.32,1.53,2.78,3.81,4.09,3.71,3.18-.25,8.42,1.44,8.53-4.14.19-9.91-.19-19.85-.74-29.76-.41-7.36-1.6-13.86,1-21.94,9.92-30.83,17.59-62.4,25.91-93.74.43-1.62-.35-4.27-1.54-5.47-3.76-3.81-2.82-8.55,1.91-10.85,3.05-1.49,6.13-3.83,8.03-6.6,4.63-6.71,8.59-13.88,13.7-22.32,1.96,3.14,4.1,5,4.05,6.8-.13,4.62-1.54,9.19-1.88,13.82-.36,4.78-2.63,6.17-7.12,5.8-6.2-.51-13.72,6.85-13.72,13.14,0,9.22.49,18.47-.08,27.66-.25,4.06-1.49,9.29-4.26,11.68-4.57,3.93-5.95,7.48-4.92,13.29.78,4.36,0,9.08-.6,13.57-.45,3.39-2.05,6.63-2.53,10.02-2.81,19.75-5.51,39.52-8.1,59.3-.89,6.8-.89,13.72-7.05,18.61-1.66,1.32-2.75,3.79-3.37,5.94-4.78,16.42-9.52,32.91-7.75,50.29.39,3.86,2.41,7.58,3.82,11.31,1.43,3.79,4.12,7.46,4.36,11.29.62,10.11.21,20.28.21,29.97-8.5,3.43-11.81,10.98-7.04,16.37,4.19,4.73,4.57,9.81,4.87,15.36.46,8.82.66,17.68,1.61,26.45,1.72,15.73.86,31.05-5.4,45.8-.36.85-.6,1.96-.38,2.81,2.22,8.59-1.73,15-6.61,21.54-2.88,3.86-4.83,8.66-6.23,13.32-1.5,5.03-1.97,10.4-2.7,15.64-.95,6.79-3.4,13.96-2.06,20.3,1.22,5.79.89,11.11.88,16.71,0,3.95,1.02,7.89,1.14,11.84.1,3.13.02,6.44-.9,9.38-.89,2.85-3.06,5.27-4.47,7.99-1.36,2.62-2.71,5.36,1.26,7.2.73.34,1.54,1.39,1.59,2.17.32,4.86,3.82,5.09,7.37,5.38,9.52.75,19.02,1.72,28.55,2.26,15.98.9,32.34,5.59,47.45-3.81,2.3-1.43,4.04-3.78,6.03-5.7-.36-.39-.72-.78-1.08-1.17,1.5-.72,3.49-1.08,4.37-2.27.98-1.32.42-3.86,1.47-5.05,4.8-5.45,4.63-9.54-.24-14.65-2.27-2.38-3.51-5.75-5.21-8.68.42-.25.84-.5,1.26-.75,2.55,3.66,5.58,3.95,7.43-.15,2.08-4.59,3.64-9.77,3.87-14.76.45-9.96-.16-19.97-.36-29.96-.06-3.08.28-4.96,3.69-7.13,9.06-5.77,10.01-15.61,9.92-25.5-.07-7.15-5.1-10.14-11.81-13.24,3.15-19.37,4.75-39.27,9.99-58.16,4.2-15.15,6.73-29.94,5-45.31-1.41-12.61,1.67-25.82-4.99-37.83-1.35-2.44-.38-5.67,3.52-5.5,4.12.18,5.63-2.26,6.9-5.55,4.84-12.61,5.98-25.69,5.55-39.07-.16-4.91-.02-9.96.96-14.74,2.8-13.72,5.96-27.36,9.33-40.95.64-2.59,2.88-4.77,4.38-7.14,2.37,2.38,6.17,4.41,6.86,7.21,3.37,13.58,5.92,27.36,8.71,41.09.68,3.37,2.15,6.98,1.53,10.14-3.04,15.46,1.04,30.09,4.3,44.85.72,3.25,2.05,5.46,6.28,4.95,3.48-.42,5.01,2.98,3.48,6.15-1.04,2.17-2.33,4.55-2.32,6.83.1,21.84-.88,43.63,3.84,65.36,4.72,21.71,7.44,43.87,10.77,65.87.36,2.39-.35,6.6-1.85,7.34-7.82,3.86-9.3,9.62-7,17.37.7,2.36.74,4.93,1.01,7.41.55,5,3.41,8.24,7.42,11.02,1.6,1.1,3.15,3.59,3.16,5.47.09,11.14-.22,22.28-.53,33.42-.17,6.27,1.05,11.8,6.79,15.08,0,.49.03.69,0,.87-1.58,7.68-12.2,13.93-3.68,23.25.15.16-.32.83-.18,1.08.82,1.51,1.66,3.01,2.65,4.42.69.99,2.38,1.87,2.31,2.69-.34,3.95,2.43,4.11,5.02,4.89,2.16.64,4.13,1.9,6.28,2.59,3.9,1.24,7.9,3.33,11.79,3.19,16.24-.6,32.45-1.92,48.67-2.95,7.3-.46,14.45-.15,19.35-7.87,2.2-3.46,2.97-5.36,1.2-9-3.03-6.23-6.41-12.21-4.69-20.04,1.78-8.09,2.63-16.6,2.36-24.87-.42-12.59-.7-25.5-3.72-37.6-3.26-13.05-8.66-25.82-14.97-37.73-3.58-6.76-4.67-13.8-4.79-20.36-.36-19.37,1.03-38.77,1.87-58.16.07-1.58.75-3.37,1.71-4.63,4.54-5.96,4.55-11.18.2-17.97-1.8-2.81-3.74-5.91-4.26-9.1-1.47-9.09-2.34-18.28-3.17-27.46-.11-1.24,1.24-3.7,2.1-3.79,6.92-.7,8.19-5.31,8.17-11.01-.01-3.82.16-7.67-.13-11.47-1.23-16.32-2.75-32.8-9.84-47.68-3.65-7.66-5.61-15.16-6.45-23.41-2.55-25.2-4.45-50.52-11.78-74.98-.54-1.79-.05-4.09.54-5.97,1.65-5.2.4-9.4-4.54-11.52-3.2-1.37-3.55-3.32-3.62-6.2-.28-11.33-.69-22.66-1.14-33.98-.25-6.48-4.71-13.36-8.78-14.28-4.01-.9-7.94-2.14-11.25-3.05-.74-3.61-1.82-6.37-1.73-9.09.12-3.5.57-7.24,1.98-10.38,1.64-3.63,4.14-4.04,6.52.11,3.62,6.32,7.59,12.45,11.5,18.61,1.12,1.76,2.27,4.35,3.87,4.78,6.04,1.61,8.02,6.07,9.42,11.68-6.93.33-7.46,3.78-4.41,9.05.64,1.1.63,2.59.86,3.9,5.21,29.76,13.44,58.73,22.6,87.45.72,2.26,3,4.31,3,6.45,0,5.07.16,10.61-1.73,15.11-4.07,9.69-2.15,19.24-1.31,28.91.3,3.44.97,6.34,5.69,6.18,4.52-.16,5.27-2.8,5.63-6.37.53-5.3.78-10.71,2.04-15.84,1.02-4.14,3.37-7.94,5.38-12.46,1.29,1.52,1.95,1.93,1.96,2.36.12,4.98-.03,9.93,4.48,13.6.63.51.13,3.35-.67,4.56-3.13,4.7-3.12,9.12-.36,14.04.73,1.31-.16,3.9-.95,5.6-.59,1.27-2.3,1.97-3.37,3.06-3.45,3.5-3.72,9.1-.68,12.33,4.59,4.88,6.74,4.82,12.09.65,6.68-5.22,11-12.2,12.31-20.17,1.01-6.11,4.15-10.43,7.09-15.3,1.16-1.93,1.01-4.93.75-7.37-.2-1.87-1.5-3.62-2.31-5.42.61-.28,1.21-.56,1.82-.84,2.77,2.51,5.54,5.03,8.3,7.54.39-.29.78-.59,1.17-.88-2.13-12.91-4.27-25.82-6.46-39.09,1.41-.38,3.3-.32,4.18-1.24,2.19-2.28,5.54-5,5.54-7.54,0-10.54-.42-21.17-1.86-31.6-3.59-26.05-7.89-52.01-11.78-78.02-2.04-13.62-5.84-17.76-19.16-20.57-1.29-.27-2.8-1.74-3.32-3.01-2.83-6.87-5.27-13.89-8.06-20.78-2.39-5.9-5.08-11.67-7.68-17.61,1-.21,1.41-.44,1.71-.33,6.77,2.41,13.54,4.99,18.61-3.08.24-.39,1.27-.26,1.54-.65,1.26-1.8,3.39-3.69,3.39-5.55,0-6.84-.72-13.68-1.2-20.97,10.05-2.65,17.14-9.89,24.06-17.41,4.21-4.57,4.21-6.41-.41-10.35-5.84-4.97-11.64-10.01-17.65-14.76-20.48-16.21-43.05-28.6-68-36.35-8.8-2.73-9.58-1.91-11.41,7.07-.15.75-.22,1.52-.39,2.27-1.66,7.22-3.29,14.45-5.07,21.64-.24.96-1.02,2.11-1.87,2.55-2.84,1.46-16.33-1.81-19.1-4.97Z"/>
      <path class="cls-1" d="m240.06,116.84c2.77,3.17,16.26,6.43,19.1,4.97.85-.44,1.63-1.58,1.87-2.55,1.77-7.19,3.4-14.42,5.07-21.64.17-.75.24-1.52.39-2.27,1.83-8.99,2.61-9.81,11.41-7.07,24.95,7.75,47.52,20.14,68,36.35,6.01,4.76,11.81,9.79,17.65,14.76,4.62,3.93,4.62,5.78.41,10.35-6.91,7.51-14,14.76-24.06,17.41.48,7.29,1.2,14.13,1.2,20.97,0,1.86-2.12,3.75-3.39,5.55-.27.39-1.3.26-1.54.65-5.07,8.07-11.84,5.49-18.61,3.08-.3-.11-.71.13-1.71.33,2.6,5.93,5.29,11.71,7.68,17.61,2.79,6.88,5.23,13.91,8.06,20.78.53,1.28,2.04,2.74,3.32,3.01,13.32,2.81,17.13,6.95,19.16,20.57,3.89,26.01,8.18,51.97,11.78,78.02,1.44,10.43,1.86,21.06,1.86,31.6,0,2.54-3.35,5.27-5.54,7.54-.88.92-2.78.86-4.18,1.24,2.19,13.27,4.32,26.18,6.46,39.09-.39.29-.78.59-1.17.88-2.77-2.51-5.54-5.03-8.3-7.54-.61.28-1.21.56-1.82.84.81,1.8,2.11,3.55,2.31,5.42.26,2.44.42,5.44-.75,7.37-2.94,4.87-6.08,9.18-7.09,15.3-1.31,7.97-5.64,14.95-12.31,20.17-5.35,4.18-7.49,4.23-12.09-.65-3.04-3.23-2.76-8.83.68-12.33,1.07-1.09,2.78-1.79,3.37-3.06.79-1.7,1.68-4.28.95-5.6-2.76-4.93-2.77-9.34.36-14.04.8-1.21,1.3-4.04.67-4.56-4.51-3.67-4.36-8.61-4.48-13.6-.01-.43-.67-.85-1.96-2.36-2.01,4.52-4.36,8.33-5.38,12.46-1.26,5.14-1.51,10.54-2.04,15.84-.36,3.57-1.11,6.21-5.63,6.37-4.71.16-5.38-2.74-5.69-6.18-.85-9.67-2.76-19.23,1.31-28.91,1.89-4.51,1.73-10.04,1.73-15.11,0-2.15-2.28-4.19-3-6.45-9.15-28.73-17.39-57.7-22.6-87.45-.23-1.32-.23-2.81-.86-3.9-3.05-5.27-2.52-8.72,4.41-9.05-1.4-5.61-3.38-10.07-9.42-11.68-1.61-.43-2.76-3.03-3.87-4.78-3.91-6.16-7.88-12.28-11.5-18.61-2.38-4.15-4.88-3.74-6.52-.11-1.41,3.14-1.87,6.88-1.98,10.38-.09,2.72.99,5.48,1.73,9.09,3.3.91,7.24,2.15,11.25,3.05,4.08.92,8.53,7.8,8.78,14.28.45,11.33.86,22.65,1.14,33.98.07,2.88.42,4.83,3.62,6.2,4.93,2.11,6.19,6.31,4.54,11.52-.6,1.88-1.08,4.18-.54,5.97,7.33,24.46,9.23,49.78,11.78,74.98.83,8.25,2.8,15.75,6.45,23.41,7.1,14.88,8.61,31.36,9.84,47.68.29,3.81.11,7.65.13,11.47.02,5.7-1.25,10.3-8.17,11.01-.86.09-2.22,2.54-2.1,3.79.83,9.18,1.7,18.37,3.17,27.46.52,3.19,2.46,6.29,4.26,9.1,4.35,6.8,4.34,12.01-.2,17.97-.96,1.26-1.65,3.05-1.71,4.63-.83,19.39-2.23,38.79-1.87,58.16.12,6.56,1.2,13.6,4.79,20.36,6.31,11.91,11.72,24.68,14.97,37.73,3.02,12.1,3.31,25.01,3.72,37.6.27,8.27-.58,16.79-2.36,24.87-1.72,7.83,1.66,13.8,4.69,20.04,1.77,3.64,1,5.55-1.2,9-4.91,7.72-12.05,7.41-19.35,7.87-16.22,1.02-32.44,2.34-48.67,2.95-3.89.14-7.9-1.95-11.79-3.19-2.15-.69-4.12-1.95-6.28-2.59-2.6-.78-5.36-.94-5.02-4.89.07-.82-1.62-1.7-2.31-2.69-.98-1.4-1.83-2.91-2.65-4.42-.14-.26.33-.92.18-1.08-8.52-9.32,2.09-15.56,3.68-23.25.04-.18,0-.38,0-.87-5.75-3.28-6.97-8.81-6.79-15.08.31-11.14.61-22.28.53-33.42-.01-1.87-1.57-4.36-3.16-5.47-4.02-2.78-6.88-6.02-7.42-11.02-.27-2.48-.31-5.05-1.01-7.41-2.3-7.75-.82-13.51,7-17.37,1.5-.74,2.21-4.95,1.85-7.34-3.32-22-6.05-44.16-10.77-65.87-4.72-21.73-3.75-43.52-3.84-65.36-.01-2.28,1.28-4.67,2.32-6.83,1.53-3.18,0-6.58-3.48-6.15-4.22.51-5.56-1.7-6.28-4.95-3.26-14.76-7.35-29.39-4.3-44.85.62-3.16-.85-6.77-1.53-10.14-2.78-13.72-5.34-27.51-8.71-41.09-.69-2.8-4.49-4.83-6.86-7.21-1.5,2.37-3.74,4.56-4.38,7.14-3.37,13.59-6.53,27.24-9.33,40.95-.98,4.79-1.12,9.84-.96,14.74.44,13.38-.71,26.46-5.55,39.07-1.26,3.3-2.78,5.73-6.9,5.55-3.9-.17-4.87,3.06-3.52,5.5,6.66,12.02,3.57,25.22,4.99,37.83,1.72,15.38-.8,30.16-5,45.31-5.23,18.89-6.83,38.79-9.99,58.16,6.71,3.1,11.74,6.08,11.81,13.24.1,9.89-.86,19.73-9.92,25.5-3.41,2.17-3.75,4.05-3.69,7.13.2,9.99.81,20,.36,29.96-.23,4.99-1.79,10.18-3.87,14.76-1.86,4.1-4.88,3.81-7.43.15-.42.25-.84.5-1.26.75,1.71,2.92,2.94,6.3,5.21,8.68,4.87,5.11,5.04,9.19.24,14.65-1.04,1.19-.49,3.73-1.47,5.05-.89,1.19-2.87,1.55-4.37,2.27.36.39.72.78,1.08,1.17-2,1.92-3.73,4.27-6.03,5.7-15.12,9.4-31.47,4.72-47.45,3.81-9.53-.54-19.03-1.5-28.55-2.26-3.56-.28-7.05-.51-7.37-5.38-.05-.77-.86-1.83-1.59-2.17-3.97-1.84-2.62-4.58-1.26-7.2,1.41-2.71,3.58-5.14,4.47-7.99.92-2.94.99-6.25.9-9.38-.12-3.96-1.14-7.9-1.14-11.84,0-5.59.34-10.92-.88-16.71-1.34-6.34,1.11-13.51,2.06-20.3.73-5.24,1.2-10.61,2.7-15.64,1.39-4.67,3.35-9.46,6.23-13.32,4.88-6.54,8.83-12.95,6.61-21.54-.22-.85.02-1.96.38-2.81,6.25-14.75,7.11-30.06,5.4-45.8-.96-8.77-1.15-17.63-1.61-26.45-.29-5.55-.68-10.62-4.87-15.36-4.77-5.38-1.46-12.94,7.04-16.37,0-9.7.41-19.87-.21-29.97-.24-3.84-2.93-7.5-4.36-11.29-1.41-3.73-3.43-7.45-3.82-11.31-1.78-17.38,2.97-33.87,7.75-50.29.63-2.15,1.71-4.62,3.37-5.94,6.16-4.89,6.16-11.81,7.05-18.61,2.59-19.78,5.29-39.55,8.1-59.3.48-3.39,2.08-6.63,2.53-10.02.59-4.49,1.38-9.21.6-13.57-1.03-5.82.35-9.37,4.92-13.29,2.77-2.38,4.01-7.62,4.26-11.68.57-9.18.08-18.43.08-27.66,0-6.29,7.52-13.65,13.72-13.14,4.49.37,6.76-1.02,7.12-5.8.34-4.63,1.75-9.2,1.88-13.82.05-1.8-2.1-3.67-4.05-6.8-5.11,8.44-9.06,15.62-13.7,22.32-1.91,2.76-4.98,5.11-8.03,6.6-4.73,2.3-5.66,7.04-1.91,10.85,1.19,1.21,1.97,3.86,1.54,5.47-8.32,31.34-15.99,62.91-25.91,93.74-2.6,8.08-1.42,14.58-1,21.94.56,9.9.93,19.84.74,29.76-.1,5.59-5.35,3.89-8.53,4.14-1.31.1-3.77-2.18-4.09-3.71-1.9-9.22-3.32-18.53-4.91-27.81-.56.09-1.12.17-1.68.26-1.29,3.73-3.03,7.37-3.76,11.2-.83,4.38-.5,8.96-1.13,13.39-.95,6.67-1.03,12.58,5.17,17.41,2.61,2.03,3.11,6.34-.22,9.21-3.38,2.92-6.19,6.23-11.76,2.29-7.48-5.29-11.86-12.38-13.18-20.75-.95-6.01-3.96-10.45-6.55-15.42-1.48-2.84-6.36-6.24.44-9,.36-.15-.33-2.88-.53-4.41-.49-.19-.99-.38-1.48-.57-2.08,2.74-4.17,5.48-6.4,8.42-3.12-1.77-3.71-4.3-2.11-7.57.51-1.03,1.44-2.21,1.27-3.16-1.9-10.63,4.32-19.5,6.5-29.84-10.4-2.63-10.24-10.87-9.2-18.75,3.42-26.05,7.24-52.04,11.03-78.04,1.11-7.59,2.77-15.1,3.96-22.69,1.79-11.35,5.73-15.25,17.31-17.21,1.33-.23,3.01-1.5,3.57-2.73,5.29-11.47,10.37-23.04,15.5-34.58.69-1.54,1.28-3.13,2.37-5.79-2.87.79-4.78,1.37-6.72,1.84-4.71,1.16-8.27-.61-12.63-2.85-9.98-5.11-7.28-13.45-6.13-20.59,1.27-7.93-2.26-11.37-8.03-14.97-5.15-3.21-9.65-7.47-14.53-11.13-4.09-3.07-3.31-5.99.11-8.77,12.47-10.13,24.38-21.11,37.66-30.05,15.24-10.27,31.79-18.5,49.98-22.66,7.14-1.63,7.67-1.2,9.09,5.88,1.42,7.12,2.96,14.24,5,21.19,2.06,7.01,4.42,8.12,11.55,6.6,2.61-.56,5.21-1.25,7.77-2.02,1.03-.31,1.95-.99,3.43-1.78-1.17-1.09-1.87-1.92-2.73-2.52-8.17-5.71-9.95-12.1-4.72-20.86,3.05-5.11,7.05-9.77,11.21-14.06,4.08-4.21,4.48-6.43.61-10.77-.89-1-1.33-2.67-1.42-4.07-.28-4.02-.32-8.06-.37-12.1-.01-1.13-.11-2.86.52-3.29,6.61-4.51,4.16-11.33,4.56-17.37.24-3.64.33-7.32.07-10.94-.37-5.03.15-9.23,6.18-10.33.7-.13,1.9-.84,1.87-1.16-1.21-9.99,7.41-6.48,11.62-7.87,7.11-2.34,12.68,1.09,15.33,7.01,7.12,0,14.05-.94,20.56.34,4.17.82,8.08,4.49,11.45,7.61,4.27,3.96,7.84,8.67,11.76,13.01,2.57,2.85,5.27,5.59,7.83,8.44.73.81,1.67,1.84,1.7,2.79.17,6.41,3.92,12.32.4,19.46-1.77,3.6-.64,9.66,3.7,14.05,6.53,6.6,12.32,14.02,17.82,21.54,3.92,5.36,2.01,10.85-3.58,14.21-2.84,1.71-5.33,4.02-7.99,6.07Zm-95.49-72.67l1.87.45c4.4-6.81,8.8-13.63,14.13-21.89-4.89-.59-8.35-1.4-11.75-1.24-1.47.07-3.97,2.1-4.05,3.36-.42,6.42-.19,12.87-.19,19.32Z"/>
      <path class="cls-2" d="m144.57,44.17c0-6.44-.22-12.9.19-19.32.08-1.26,2.59-3.29,4.05-3.36,3.41-.17,6.86.65,11.75,1.24-5.33,8.26-9.73,15.07-14.13,21.89l-1.87-.45Z"/>
    </g>
  </g>
</svg>