<svg id="Layer_1" data-name="Layer 1" xmlns="http://www.w3.org/2000/svg" viewBox="0 0 392.6 792">
  <g id="Lc3sI8.tif">
    <g>
      <path class="cls-1" d="m156.57,21.08c5.09,1.41,7.72-.35,9.54-4.47,3.87-8.75,11.74-11.07,20.31-11.97.72-.08,1.78-.06,2.17.38,4.82,5.37,11.98,4.94,16.74,2.97,6.87-2.83,12.94-1.16,19.4-.98,1.21.03,2.55-1.29,3.69-2.17,8.21-6.34,19.19-2.74,22.03,7.25,2.29,8.05-.37,15.2-6.93,19.89-1.18.84-2.23,3.43-1.81,4.7,2.37,7.04,4.55,14.27,11.31,18.79,1.15.77,1.95,2.84,1.99,4.34.15,5.48.15,10.98-.34,16.43-.14,1.57-1.93,3.17-3.29,4.4-1.36,1.23-3.13,2.02-4.68,3.81,10.1.02,17.68,4.05,21.83,11.89,3.31-4.76,6.17-8.94,9.09-13.09,3.11-4.41,6.65-8.27,6.66-14.51.02-6.93,8.7-11.5,14.89-8.47,1.98.97,3.79,2.46,5.41,3.99,2.71,2.55,5.29,3.28,9.39,3.15,7.79-.25,15.73,1.1,23.43,2.67,4.78.97,7.57,8.86,6.68,16.07-1.78,14.4,4.7,24.77,15.75,33.09,2.82,2.13,5.59,4.66,7.51,7.58,2.76,4.21,1.51,7.93-3.82,10.14,3.49,7.09,7.3,13.65,9.99,20.64,2.81,7.32,3.45,16.1-.61,22.22-4.99,7.53-10.81,16.33-21.35,17.17-5.01.4-10.25-1.35-15.31-2.49-2.63-.6-5.07-2-8.17-2.44,4.34,7.26,3.58,16.96,12.45,21.76,2.05,1.11,2.88,5.1,3.59,7.94.96,3.86,2.7,5.95,6.95,5.56,8.05-.73,11.72,4.01,15.18,10.75,13.82,26.87,14.7,56.4,18.46,85.36,1.53,11.81,2.72,23.67,4.37,35.46.73,5.21-.29,8.88-5.84,10.25-.72.18-1.37.63-2.05.95-10.22,4.8-9.77,4.7-7.22,16.16,2.21,9.97,3.24,20.2,4.79,30.31-.46.16-.92.32-1.38.48-3.7-3.45-7.4-6.89-11.1-10.34-.48.46-.96.93-1.44,1.39,1,1.77,1.66,3.89,3.06,5.25,4.51,4.41,2.01,8.29-.87,11.79-3.09,3.76-4.75,7.61-5.43,12.6-1.16,8.61-4.03,17.05-11.91,21.97-3.01,1.88-8.02,3.62-10.65,2.35-5.14-2.47-5.78-7.76-3.36-13,.47-1.03.95-2.12,1.68-2.94,3.21-3.62,5.66-6.9,2.82-12.39-1.16-2.25.76-6.13,1.35-9.26.28-1.46,1.41-3.13,1-4.29-1.93-5.48-4.26-10.82-6.41-16.14-5.76,8.79-6.96,19.15-7.8,29.58-.27,3.39-1.45,5.01-5.11,5.22-3.95.23-5.58-.89-6.37-5.01-1.95-10.22-1.23-20.18,1.25-30.16.49-1.98.61-4.09.6-6.14-.05-9.65,1.95-12.44,10.99-15.06.69-.2,1.33-.54,2.04-2.02-2.56-.21-5.12-.62-7.67-.58-4.14.06-6.38-1.46-7.67-5.74-7.69-25.48-15.69-50.87-23.58-76.29-2.35-7.58-4.31-14.94,3.3-21.23,1.2-.99,1.06-5.43-.12-7.1-2.04-2.88-5.37-4.84-8.16-7.18-2.47-2.08-5.55-3.74-7.3-6.32-4.96-7.31-9.38-14.99-14.49-23.29-.96,6.52-1.76,11.91-2.54,17.18,10.42,5.1,24.37,16.75,24.34,34.26-.01,5.89-2.21,11.81-1.98,17.66.27,6.88.83,14.26,3.6,20.37,2.37,5.24,2.33,10.09,2.42,15.24.06,2.99.5,4.91,3.55,6.75,6.39,3.86,6.89,9.21,2.79,15.37-1.04,1.55-1.91,3.93-1.52,5.62,4.52,19.41,3.18,39.11,3.15,58.74,0,3.03.54,5.04,3.46,6.93,2.15,1.4,4.09,4.74,4.24,7.32.5,9-.27,18.08.29,27.08.48,7.69,2.09,15.3,3.27,22.94.1.67.56,1.4,1.07,1.87,4.87,4.49,5.02,7.85,1.44,13.12-1.2,1.77-1.97,5.12-1.1,6.79,8.42,16.07,5.03,33.72,7.18,50.61.15,1.22-.22,2.77-.91,3.79-4.62,6.79-3.36,14.2-3.27,21.79.19,14.5-.67,29.02-1.34,43.52-.14,3.13.69,4.69,3.17,6.9,6.01,5.35,9.43,12.46,10.54,20.68.72,5.35,2.1,10.63,3.42,15.88,1.83,7.28,3.16,14.8,6.01,21.67,3.71,8.93,3.11,18.05,3.5,27.24.18,4.41-.94,7.72-4.89,9.95-2.65,1.5-2.91,3.76-3.28,6.92-1.57,13.57,5.49,26.47,2.4,40.18-.98,4.35-2.12,6.06-6.55,6.3-3.6.2-7.1,1.85-10.71,2.49-2.93.52-5.95.63-8.94.67-3.34.04-6.69-.44-10.02-.28-11.66.56-23.31,1.31-35.4,2.01.39-6.13-2.08-8.97-7.33-9.45-.97-.09-2.29-.92-2.7-1.77-4.04-8.44-8.24-16.84-11.68-25.53-1.04-2.64.28-6.15.2-9.25-.16-6.58-.35-13.16-.89-19.72-.37-4.54.56-8.13,4.72-10.54.85-.49,1.32-1.65,2.39-3.06-9.81-2.53-6.12-11.96-9.89-17.55-1.04-1.54-2.25-2.98-3.11-4.62-1.28-2.44-2.86-4.9-3.36-7.54-1.24-6.49-1.67-13.14-2.93-19.63-1.21-6.29.92-10.94,5.36-15.18,6.43-6.13,7.5-12.75,4.17-21.25-4.21-10.73-8.53-21.42-12.36-32.28-6.73-19.1-5.2-39.21-6.47-58.95-.56-8.73-.09-17.53-.12-26.29,0-.51-.22-1.05-.44-1.52-1.67-3.65-4.1-7.14-4.91-10.97-2.31-10.95-3.88-22.05-5.96-33.05-.31-1.62-1.54-3.27-2.77-4.46-3.19-3.09-4.19-5.6.37-8.5,1.32-.84,2.51-3.52,2.2-5.04-2.89-14.16-6.04-28.27-9.39-42.33-.36-1.51-2.52-2.59-3.84-3.86-1.07,1.3-2.76,2.45-3.11,3.92-2.2,9.19-4.07,18.45-6.13,27.67-.82,3.67-1.59,7.39-2.85,10.92-1.51,4.24-4.32,8.34,2.06,11.22.66.3.47,3.39,0,4.99-.38,1.29-2.76,2.52-2.56,3.37,2.44,10.4-4.42,18.81-5.94,28.36-.9,5.66-4.05,10.97-7.33,15.86.2,2.54.61,5.09.55,7.63-.23,10.77-.4,21.54-.98,32.29-.65,12.05-.7,24.28-2.95,36.05-1.81,9.49-6.83,18.32-9.85,27.64-3.92,12.11-4.87,24.61-3.86,37.33,9.94-.91,13.8,2.89,12.27,12.56-.91,5.78-.96,11.75-2.36,17.39-1.21,4.89-1.76,10.57-7.8,12.96-1.4.55-2.2,2.9-3.03,4.54-2.45,4.83-4.77,9.72-7.39,15.09,1.59,2.17,5.1,4.85,5.41,7.86.54,5.2-.84,10.62-1.55,15.93-.31,2.32-1.7,4.7-1.36,6.86,1.49,9.28-2.1,16.91-6.68,24.5-4.78,7.93-10.84,14.55-18.27,19.96-.74.54-1.73,1.14-2.56,1.07-10.15-.78-20.5,3.59-30.56-1.43-1.95-.97-4.97-.64-7.22.03-8.99,2.67-17.02-2.07-25.49-3.17-1.16-.15-2.64-3.41-2.73-5.28-.42-9.05-.46-18.06,3.06-26.77,1.54-3.81,3.23-8.14-2.23-11.29-.84-.49.78-5.27,1.37-8.7-12.25-6.81-7.26-18.51-6.23-29.2.29-2.97,2.02-5.83,2.14-8.77.46-11.39,6.72-19.38,14.51-25.26-2-4.08-5.06-7.34-4.71-10.19.84-6.96,3.2-13.74,5.09-20.55.21-.76,1.28-1.69,2.07-1.81,7.38-1.18,6.11-6.66,5.84-11.61-.8-14.71-1.76-29.35.53-44.11.63-4.06-2.95-8.68-4.16-13.17-.82-3.06-1.46-6.39-1.15-9.49,1-9.74,1.06-19.91,4.11-29.03,5.73-17.15,3.31-34.83,5.54-52.15,1.31-10.16,1.11-20.51,1.79-30.76.29-4.41,1.42-8.43,5.83-10.98,1.28-.74,2.03-3.51,1.97-5.31-.68-20.33,1.54-40.37,5.18-60.32.34-1.87-.52-4.32-1.59-6.01-2.63-4.2-2.97-9.98,1.09-12.84,4.21-2.98,3.71-6.9,4.53-10.8.96-4.58-1.42-10.58,5.34-12.9.59-.2.66-2.4.71-3.68.13-3.59.38-7.2.14-10.77-.75-10.98,1.39-21.64,3.24-32.34,1.58-9.15,5.86-16.48,14.07-21.53,8.25-5.07,8.43-9.31,1.15-16.06-3.09,5.61-5.68,11.49-9.34,16.58-2.73,3.79-6.47,7.22-10.46,9.65-6.13,3.73-6.49,6.33-4.34,12.82,2.03,6.12,4.61,12.42,2.09,19.71-7.95,22.99-15.37,46.16-22.63,69.38-3.63,11.61-3.28,11.72-15.79,13.92,10.09,1.5,10.23,9.25,10.71,16.43.73,11.11,1.14,22.25,1.38,33.38.05,2.08-.74,4.85-2.18,6.09-1.55,1.34-4.45,1.95-6.52,1.56-1.39-.26-2.61-2.69-3.4-4.39-.6-1.3-.48-2.96-.55-4.47-.35-8.47-.18-17.09-6.65-22.54-2.08,3.31-4.67,7.08-6.82,11.08-.62,1.15-.38,3.14.15,4.48,1.92,4.86,3.25,9.58,1.09,14.81-.5,1.23.39,3.3,1.16,4.7.69,1.26,2.19,2.05,3.14,3.21,3.79,4.63,4.02,9.35.73,12.52-4.7,4.53-9.56,4.9-14.18.82-6.95-6.14-10.13-14.43-12.47-23.07-.37-1.38.58-3.12.94-4.8-5.63-6.6-12.9-12.99-3.61-22.72-.65-.3-1.3-.6-1.95-.9-2.84,2.99-5.69,5.99-9.64,10.15-.17-2.86-.66-4.86-.34-6.71,1.9-10.88,3.82-21.76,6.09-32.57.84-4.02-.63-5.26-4.19-6.18-3.03-.79-6.45-1.96-8.48-4.12-2.03-2.16-3.86-5.9-3.53-8.68,3.39-28.32,7.1-56.6,11.09-84.85.78-5.5,2.83-10.9,4.84-16.14,3.12-8.11,6.77-16.01,10.08-24.04,1.58-3.82,3.78-6.25,8.38-5.97,6.69.42,11.96-1.24,13.47-9.15.41-2.17,3.13-3.89,4.77-5.82.83-.98,1.91-1.88,2.4-3.02,2.55-5.86,4.94-11.79,7.93-19.01-5.95,1.91-10.75,3.86-15.73,4.91-3.35.71-7.17.89-10.44.02-13.36-3.57-22.83-16.12-21.37-29.83.67-6.3,4.34-12.32,6.95-18.34,1.49-3.44,3.57-6.63,4.96-9.16-1.88-1.97-4.66-3.56-4.88-5.46-.3-2.55.56-6.2,2.33-7.85,6.19-5.77,12.41-11.21,17.09-18.58,3.46-5.45,5.49-10.53,4.74-16.84-2.02-17.12,6.98-21.02,21.86-22.25,1.5-.12,3.05-.16,4.51.09,5.35.93,9.87.93,14.09-4.01,3.17-3.71,8.61-4.97,13.57-2.43,4.39,2.25,6.34,6.12,6.14,11.2-.06,1.52.71,3.3,1.62,4.59,4.57,6.52,9.31,12.92,14.21,19.68,3.69-10.91,13.6-13.03,25.04-12.39-.16-.63-.32-1.26-.47-1.89-1-.58-2.23-.96-2.96-1.79-1.42-1.62-3.48-3.41-3.64-5.27-.48-5.44-2.01-11.94.25-16.23,4.61-8.72-.32-14.3-2.76-21.63-2.07-6.2-.1-14.06,1.34-20.92.4-1.91,5.25-3.9,8.12-4,3.29-.12,6.53,1.93,6.63,6.29.03,1.1.23,2.19.36,3.4Zm171.23,56.47c-4.32-.12-6.4,1.66-6.63,5.7-.27,4.56,3.09,8.46,7.68,8.66,4.82.21,6.05-3.25,6.08-7.02.03-4.49-2.06-7.53-7.13-7.34Zm-264.99,13.19c5.6.06,8.54-2.89,8.66-7.69.11-4.22-1.95-6.34-6.08-6.34-4.25,0-7.38,3.23-7.47,7.51-.08,3.96,1.25,6.65,4.88,6.51Z"/>
    </g>
  </g>
</svg>