<?xml version="1.0" encoding="UTF-8"?>
<svg id="Layer_1" data-name="Layer 1" xmlns="http://www.w3.org/2000/svg" viewBox="0 0 425 783.24">
  <defs>
    <style>
      .cls-1, .cls-2 {
        stroke-width: 0px;
      }

      .cls-2 {
        fill: #fff;
      }
    </style>
  </defs>
  <g id="wxged0.tif">
    <g>
      <path class="cls-1" d="m425,151.28v2.44c-1.9,2.41-3.75,4.86-5.71,7.22-7.87,9.5-14.11,20.41-24.27,27.89,3.7,7.32,3.68,7.88-2.6,13.65-2.88,2.64-6.06,4.96-9.15,7.37-1.77,1.38-3.61,2.65-6.39,4.69,6.26-.05,8.26,3.22,9.68,7.5,1.74,5.25,4.02,10.32,5.94,15.52,4.29,11.62,9.09,23.09,8.29,35.94-.23,3.74.04,7.66.93,11.29,3.71,15.13,7.66,30.2,11.7,45.24,1,3.73,2.95,7.21,4,10.94,1.09,3.86,1,8.14,2.5,11.79,3.62,8.79,2.32,16.52-3.6,23.67-1.08,1.31-2.3,2.95-3.76,3.37-1.25.36-2.95-.81-5.3-1.59.68,5.2,1.07,10.14,2.04,14.96.77,3.79.34,7.08-1.83,10.34-1.37-.33-2.63-.63-4.17-1-.71,2.15-1.12,4.29-2.09,6.14-2.02,3.88-6.09,7.04-3.91,12.26.08.19-.06.56-.21.76-3.48,4.58-6.6,9.54-10.62,13.59-2.46,2.47-6.3,3.58-9.56,5.23-3.05,1.54-5.29.44-5.59-3.03-.16-1.79.47-3.68.93-5.48.46-1.81.95-3.67,1.77-5.33,1.21-2.45,2.31-5.22,4.24-6.99,2.67-2.44,3.1-5.36,2.93-8.39-.07-1.3-1.79-2.5-2.76-3.75-.84,1.13-1.58,2.36-2.54,3.38-1.24,1.32-2.6,3.43-3.99,3.5-1.93.1-5.48-1.16-5.64-2.23-.68-4.62-1.31-9.63-.15-14.01,1.03-3.88,1.42-7.18-.14-10.73-3.29-7.49-4.54-15.15-2.19-23.59-5.77,0-7.76-4.27-9.61-8.73-2.53-6.09-4.8-12.31-7.74-18.2-9.66-19.37-19.64-38.58-29.29-57.96-.89-1.79-.29-4.32-.36-6.51-.1-3,.76-6.49-.49-8.88-2.28-4.33-5.65-8.14-8.91-11.86-.95-1.08-3.1-1.09-4.48-1.52,5.1,11.98,9.95,23.46,14.89,34.89,1.07,2.47,1.22,4.43-.89,6.57-6.04,6.13-11.51,12.86-17.94,18.53-3.72,3.28-2.14,5.48-.55,8.64,1.57-1.1,2.85-2.4,4.4-3,2.98-1.17,7.16-3.59,8.93-2.47,2.18,1.38,2.54,5.81,3.45,8.98,3.95,13.8,8.45,27.49,11.53,41.48,2.5,11.38,3.39,23.14,4.77,34.75.7,5.89,1.01,11.76,5.53,16.39,1.01,1.04,1.66,2.85,1.72,4.33.21,5.47-1.08,10.67,1.52,16.36,3.88,8.49-1.13,16.27-5.56,23.22-2.16,3.39-6.51,5.32-9.61,8.19-1.3,1.2-2.74,3.14-2.72,4.72.09,6.19.7,12.38,1.2,18.57.08,1.05.34,2.18.86,3.07,4.72,8.16,9.38,16.36,14.41,24.32.92,1.45,3.44,2.65,5.22,2.64,3.92-.02,7.27,1.04,9.94,3.71,5.99,5.98,10.84,12.7,12.4,21.3.16.91.11,2.16.67,2.64,4.6,3.86,4.86,8.84,4.33,14.29-.29,2.94-1.12,4.96-4.24,5.43-2.22.34-2.9,1.61-3.28,3.82-1.39,8.05-2.98,16.08-4.85,24.03-.44,1.89-1.89,4.25-3.52,5.03-4.01,1.92-4.87,4.81-4.62,8.82.96,15.5,1.4,31.04,2.77,46.5.77,8.64,2.8,17.19,4.62,25.7,1.71,7.98,4.32,15.78,5.75,23.8,1.39,7.81,2.17,15.78,2.53,23.7.53,11.57.47,23.16.57,34.74,0,1-.37,2.5-1.08,2.95-5.5,3.43-10.76,8.04-16.79,9.61-8.34,2.17-17.28,2.46-25.99,2.71-14.21.4-28.45.39-42.66,0-8.84-.24-17.67-1.4-26.47-2.37-4.11-.45-6.17-3.36-5.27-7.24,1.99-8.61,3.65-17.34,6.44-25.7,3.14-9.41,7.89-18.07,16.4-24.02,1.69-1.18,3.06-2.82,5.26-4.9-2.78-.22-4.57-.44-6.36-.48-3.81-.1-7.62-.23-11.42-.06-.58.03-1.56,1.6-1.55,2.44.09,4.67-2.58,5.87-6.51,5.36-2.88-.38-5.83-.8-8.5-1.84-1.03-.4-2.04-2.62-1.93-3.9.58-6.57,1.51-13.11,2.37-19.65,1.78-13.5,4.99-26.98.15-40.51-.26-.72-.08-1.62,0-2.42.41-3.61,1.5-7.27,1.17-10.81-.82-8.83-1.75-17.71-3.57-26.37-3.41-16.25-7.77-32.3-11.12-48.56-1.14-5.54-1.15-11.56-.39-17.18,1.11-8.19,4.71-15.91,4.21-24.5-.34-5.91.24-11.9.65-17.83.1-1.42.77-3.46,1.82-4.04,2.16-1.19,3.46-2.44,2.99-4.97-.55-2.95-2.84-2.43-4.97-2.7-1.4-.18-3.52-1.07-3.85-2.11-.8-2.51-.59-5.33-1.05-7.97-1.39-7.9-2.76-15.81-4.43-23.66-.8-3.78-2.49-7.37-3.37-11.15-1.81-7.79-4.47-15.6-.52-23.57.44-.88.32-2.16.15-3.21-.93-5.7-2.46-11.35-2.77-17.08-.22-4.08-4.46-8.72,1.08-12.27-.94-1.63-1.62-3.13-2.59-4.41-4.21-5.61-4.66-5.64-8.97-.32-1.24,1.53-2.1,3.36-3.14,5.05h1.45c.39,2.09,1.26,4.21,1.06,6.23-.42,4.26-1.61,8.43-2.11,12.69-.79,6.68-3.34,13.39.35,20.1.69,1.26.43,3.25.12,4.8-1.1,5.51-2.23,11.03-3.68,16.46-1.97,7.35-4.52,14.56-6.28,21.95-1.14,4.81-1.49,9.84-1.88,14.8-.26,3.3-1.43,4.66-4.83,3.83-2-.49-4.19.02-4.04,2.43.1,1.66,1.34,4.2,2.64,4.63,2.71.89,2.7,2.54,2.75,4.65.24,9.61.52,19.22.83,28.82.03.92.15,1.9.51,2.74,6.34,15.03,3.76,30.21-.16,45.04-4.36,16.49-9.14,32.84-10.81,49.87-.37,3.75.47,7.6.46,11.41,0,3.73-.19,7.49-.65,11.19-.27,2.14-1.77,4.18-1.81,6.28-.27,14.89,1.47,29.62,4.14,44.25.53,2.91.83,5.89.91,8.85.13,4.9-4.57,2.94-6.79,4.53-.22.16-.41.37-.64.5-4.36,2.47-8.55.61-9.69-4.14-.7-2.92-.95-6.15-5.6-5.76-5.06.42-10.17.1-15.26.1-.22.38-.44.76-.66,1.14.86,1.1,1.58,2.36,2.61,3.27,4.03,3.58,8.95,6.46,12.11,10.68,9.63,12.84,13.73,27.84,15.24,43.66.41,4.26-1.72,6.36-5.43,7.05-5.68,1.05-11.39,2.21-17.13,2.54-10.22.6-20.49,1.06-30.72.78-13.72-.38-27.43-1.4-41.12-2.45-2.97-.23-7.06-.86-8.52-2.86-3-4.11-7.54-5.42-11.14-8.28-1.13-.9-2.76-1.98-2.91-3.14-.79-6-1.74-12.08-1.57-18.1.24-8.89,1.22-17.77,2.18-26.62.94-8.69,1.05-17.73,3.69-25.91,4.36-13.51,7.36-27.04,8.79-41.19,1.54-15.25,2.31-30.44,2.23-45.73-.01-2.98-1.03-4.9-3.64-6.09-2.84-1.29-4.11-3.6-4.65-6.58-1.3-7.26-2.58-14.52-4.19-21.71-.38-1.68-1.8-4.15-3.11-4.42-4.06-.82-4.43-3.59-4.84-6.73-.63-4.79.27-9.03,3.61-12.74,1-1.11,1.61-2.81,1.85-4.33,1.29-7.99,6.11-14.01,11.19-19.75,3.08-3.48,7.07-5.62,12.18-5.27,1.59.11,4.01-1.1,4.84-2.46,4.75-7.67,9.15-15.56,13.6-23.41.44-.77.56-1.79.61-2.7.36-6.43.22-12.94,1.16-19.28.51-3.47-.38-5.35-3.25-6.28-7.38-2.4-11.94-8.28-14.25-14.66-1.83-5.03-1.29-11.66.28-16.96,1.12-3.78,1.81-7.31,1.08-10.84-.72-3.49-.05-6.38,2.24-8.55,3.95-3.74,4.05-8.55,4.66-13.32,1.52-12,2.14-24.21,4.8-35.96,3.72-16.45,8.97-32.55,13.54-48.81.81-2.87,2.27-3.29,4.75-1.72,3,1.91,6.14,3.6,9.52,5.57.84-2.21,1.47-3.9,2.05-5.42-5.09-5.27-9.92-10.29-14.77-15.29-4.09-4.21-8.89-8.14-5.33-15.31-1.19,1.16-1.93,2.23-2.49,3.39-10.78,22.05-21.64,44.06-32.23,66.2-2.26,4.72-4.03,9.44-9.9,10.02,1.11,6.78,1.23,13.02-1.16,19.32-1.33,3.5-2.84,7.9-1.81,11.11,1.46,4.58.55,8.76.55,13.12,0,2.47.3,5.23-3.07,5.65-3.11.38-6.36.66-7.21-3.78-.16-.82-1.61-1.97-2.41-1.92-.87.05-2.44,1.38-2.38,2.03.25,2.67.1,6.38,1.73,7.73,6.09,5.05,5.78,12.41,7.76,18.87,1.01,3.29-2.35,5.46-5.41,3.94-1.93-.96-3.88-1.89-5.69-3.05-7.8-5.02-14.47-10.83-14.23-21.26,0-.4,0-.86-.18-1.19-2.36-4.11-4.76-8.2-7.25-12.47-.81.34-1.88.8-3.26,1.39-1.73-3.56-2.85-6.84-1.9-10.88,1.02-4.36,1.25-8.91,1.94-14.26-4.79,2.54-7.05.84-8.8-2.44-1.53-2.85-3.34-5.55-4.88-8.39-.61-1.14-1.38-2.6-1.15-3.72,1.79-8.64,3.48-17.33,5.84-25.82,2.65-9.53,6.57-18.72,8.86-28.32,3.2-13.43,7.91-26.65,6.96-40.84-.19-2.92,0-6.1.94-8.83,4.79-13.93,9.79-27.79,15-41.57.57-1.5,2.98-3.38,4.41-3.28,3.81.25,5.72-1.38,7.1-4.55.7-1.59,1.66-3.11,2.72-4.5,1.87-2.44,1.11-3.93-1.2-5.58-5.7-4.09-11.16-8.51-16.87-12.58-1.26-.9-3.51-1.7-4.68-1.17-2.95,1.33-4.73.02-6.33-1.89-4.61-5.47-9.16-11.01-13.62-16.61-3.92-4.92-7.7-9.97-11.98-15.53,1.26-.9,2.18-1.49,3.02-2.16,5.14-4.11,5.25-4.18,1.75-9.77-1.49-2.38-1.14-3.51,1.22-5.07,17.19-11.39,34.24-22.98,51.38-34.45,12.74-8.53,26.62-15.56,35.77-28.64,1.55-2.22,4.13-3.4,7.46-2.64,5.49,1.24,11.18,1.57,16.66,2.84,3.42.79,7.56-.07,9.77,4.35,3.92,7.83,8.33,15.41,12.56,23.08.49.9,1.15,1.7,1.94,2.86.78-3.78,1.35-6.8,2.03-9.81,2.4-10.56,8.01-19.03,16.71-25.45,1.75-1.29,2.44-2.57,1.54-5.07-1.97-5.49-2.58-11.19-1.09-17.07.54-2.13.1-4.62-.37-6.85-.68-3.2-1.81-6.29-2.72-9.44-.29-1-.21-2.29-.82-3-2.36-2.74-.89-4.57,1.52-6.92v8.81c5.19-5.55,10.13-6,15.75-1.23.25-2.79.45-4.96.64-7.09,4.27,2.81,1.15,6.5.86,9.88,7.1-8.62,1.6-19.33,5.24-28.52,2.44,8.04-.39,16.7,2.36,24.15,5.75-2.4,10.93-4.48,16.01-6.77.98-.44,1.91-1.6,2.3-2.64,1.48-3.91,4.63-4.95,8.28-5.16,4.6-.26,8.72.19,11.16,5.21.81,1.67,3.51,2.43,5.38,3.56,4.07,2.48,8.75,4.31,12.1,7.53,6.53,6.27,9.65,14.4,10.27,23.53.2,2.89.63,6.5,2.43,8.38,4.07,4.26,9.02,7.69,13.66,11.4,8.97,7.18,12.77,17.06,14.76,27.93.24,1.32,1.06,2.53,1.61,3.78,1.18-.89,2.78-1.53,3.48-2.7,4.19-7.11,8.01-14.44,12.33-21.46,1.1-1.78,3.39-3.43,5.42-3.91,6.11-1.46,12.46-1.96,18.54-3.53,5-1.29,8.4,0,11.82,3.69,4.74,5.13,9.49,10.55,15.18,14.46,23.07,15.82,46.46,31.17,69.84,46.53,3.03,1.99,3.63,3.79,1.3,6.37-2.91,3.22-1.7,5.48,1.41,7.47,1.22.78,2.46,1.54,3.69,2.3ZM164.46,65.14c3.78-4.67,10.21-5.56,10.16-12.3-.04-5.06.52-10.13.88-16.25-4.63,4.61-11.75,3.9-13.27,10.87-1.3,5.97.52,11.3,2.24,17.67Zm-54.28,208.86c3.86-7.78,7.7-15.51,11.6-23.39-8.28,3.47-14.41,16.18-11.6,23.39Zm248.69-31.04c1.74,3.59,3.14,6.5,4.54,9.4.26-.09.53-.17.79-.26.15-3.52.31-7.03.49-11.22-2.3.82-3.84,1.37-5.83,2.08Zm10.73-23.97c-8.05,1.9-8.63,3.16-4.53,10.52.23-4.45-.12-8.64,4.53-10.52Zm-309.14,1.66c.24,3.12.5,6.49.81,10.5,3.96-8.39,3.87-8.94-.81-10.5Zm268.14-66.24c-1.38-.68-2.38-1.17-3.34-1.64q-3.21,4.3-.46,6.96c1.17-1.63,2.31-3.24,3.8-5.32Z"/>
      <path class="cls-2" d="m425,151.28c-1.23-.77-2.47-1.52-3.69-2.3-3.11-1.98-4.32-4.25-1.41-7.47,2.33-2.58,1.73-4.38-1.3-6.37-23.38-15.36-46.77-30.71-69.84-46.53-5.69-3.91-10.44-9.33-15.18-14.46-3.42-3.7-6.82-4.99-11.82-3.69-6.08,1.57-12.43,2.07-18.54,3.53-2.03.49-4.33,2.13-5.42,3.91-4.32,7.02-8.14,14.35-12.33,21.46-.69,1.18-2.29,1.82-3.48,2.7-.55-1.26-1.37-2.47-1.61-3.78-1.99-10.88-5.78-20.75-14.76-27.93-4.64-3.71-9.59-7.13-13.66-11.4-1.79-1.88-2.23-5.5-2.43-8.38-.63-9.14-3.74-17.26-10.27-23.53-3.35-3.22-8.03-5.05-12.1-7.53-1.86-1.14-4.57-1.9-5.38-3.56-2.44-5.03-6.56-5.48-11.16-5.21-3.65.21-6.81,1.25-8.28,5.16-.39,1.04-1.32,2.2-2.3,2.64-5.08,2.29-10.27,4.37-16.01,6.77-2.75-7.45.08-16.11-2.36-24.15-3.65,9.19,1.86,19.91-5.24,28.52.29-3.38,3.41-7.07-.86-9.88-.19,2.13-.39,4.3-.64,7.09-5.62-4.77-10.55-4.32-15.75,1.23v-8.81c-2.41,2.35-3.88,4.18-1.52,6.92.61.71.53,1.99.82,3,.91,3.15,2.04,6.25,2.72,9.44.47,2.23.91,4.72.37,6.85-1.49,5.88-.87,11.57,1.09,17.07.9,2.51.21,3.78-1.54,5.07-8.71,6.42-14.31,14.89-16.71,25.45-.68,3-1.25,6.03-2.03,9.81-.79-1.15-1.45-1.96-1.94-2.86-4.23-7.67-8.64-15.26-12.56-23.08-2.21-4.42-6.35-3.56-9.77-4.35-5.48-1.27-11.18-1.59-16.66-2.84-3.33-.75-5.9.42-7.46,2.64-9.15,13.08-23.04,20.11-35.77,28.64-17.14,11.47-34.19,23.06-51.38,34.45-2.36,1.56-2.71,2.69-1.22,5.07,3.49,5.59,3.39,5.67-1.75,9.77-.84.67-1.76,1.26-3.02,2.16,4.28,5.56,8.06,10.6,11.98,15.53,4.46,5.6,9.01,11.13,13.62,16.61,1.6,1.9,3.38,3.22,6.33,1.89,1.17-.53,3.42.27,4.68,1.17,5.71,4.07,11.17,8.49,16.87,12.58,2.31,1.66,3.08,3.15,1.2,5.58-1.06,1.38-2.03,2.9-2.72,4.5-1.38,3.17-3.29,4.8-7.1,4.55-1.44-.1-3.85,1.78-4.41,3.28-5.2,13.78-10.21,27.64-15,41.57-.94,2.74-1.14,5.91-.94,8.83.95,14.19-3.77,27.42-6.96,40.84-2.29,9.6-6.21,18.8-8.86,28.32-2.36,8.49-4.05,17.18-5.84,25.82-.23,1.12.53,2.58,1.15,3.72,1.54,2.84,3.36,5.54,4.88,8.39,1.75,3.28,4.01,4.98,8.8,2.44-.69,5.34-.93,9.89-1.94,14.26-.94,4.04.18,7.32,1.9,10.88,1.38-.59,2.45-1.04,3.26-1.39,2.49,4.27,4.89,8.36,7.25,12.47.19.32.19.79.18,1.19-.25,10.43,6.43,16.24,14.23,21.26,1.8,1.16,3.76,2.09,5.69,3.05,3.06,1.52,6.42-.65,5.41-3.94-1.97-6.46-1.67-13.82-7.76-18.87-1.63-1.35-1.48-5.06-1.73-7.73-.06-.65,1.51-1.98,2.38-2.03.8-.05,2.25,1.11,2.41,1.92.85,4.44,4.11,4.16,7.21,3.78,3.37-.41,3.07-3.18,3.07-5.65,0-4.36.91-8.53-.55-13.12-1.02-3.21.48-7.61,1.81-11.11,2.4-6.31,2.27-12.54,1.16-19.32,5.87-.58,7.64-5.3,9.9-10.02,10.59-22.14,21.45-44.15,32.23-66.2.57-1.16,1.31-2.23,2.49-3.39-3.56,7.17,1.24,11.1,5.33,15.31,4.85,5,9.68,10.02,14.77,15.29-.58,1.52-1.21,3.21-2.05,5.42-3.38-1.96-6.51-3.66-9.52-5.57-2.48-1.57-3.94-1.15-4.75,1.72-4.57,16.26-9.82,32.36-13.54,48.81-2.66,11.75-3.28,23.96-4.8,35.96-.6,4.77-.71,9.58-4.66,13.32-2.29,2.17-2.96,5.05-2.24,8.55.73,3.53.04,7.06-1.08,10.84-1.57,5.3-2.11,11.92-.28,16.96,2.32,6.38,6.87,12.27,14.25,14.66,2.87.93,3.77,2.81,3.25,6.28-.94,6.34-.8,12.85-1.16,19.28-.05.92-.17,1.93-.61,2.7-4.45,7.85-8.86,15.74-13.6,23.41-.84,1.35-3.25,2.56-4.84,2.46-5.11-.35-9.1,1.79-12.18,5.27-5.08,5.74-9.9,11.76-11.19,19.75-.25,1.52-.85,3.22-1.85,4.33-3.34,3.71-4.23,7.95-3.61,12.74.41,3.14.78,5.91,4.84,6.73,1.31.27,2.73,2.73,3.11,4.42,1.61,7.19,2.89,14.45,4.19,21.71.53,2.98,1.81,5.29,4.65,6.58,2.61,1.19,3.62,3.1,3.64,6.09.08,15.29-.69,30.49-2.23,45.73-1.43,14.16-4.43,27.68-8.79,41.19-2.64,8.18-2.74,17.23-3.69,25.91-.96,8.85-1.94,17.73-2.18,26.62-.17,6.02.78,12.09,1.57,18.1.15,1.16,1.78,2.25,2.91,3.14,3.6,2.86,8.14,4.17,11.14,8.28,1.46,1.99,5.54,2.63,8.52,2.86,13.69,1.05,27.4,2.06,41.12,2.45,10.23.28,20.49-.18,30.72-.78,5.74-.34,11.46-1.5,17.13-2.54,3.71-.69,5.83-2.79,5.43-7.05-1.52-15.82-5.61-30.82-15.24-43.66-3.16-4.21-8.08-7.1-12.11-10.68-1.03-.91-1.75-2.17-2.61-3.27.22-.38.44-.76.66-1.14,5.09,0,10.21.33,15.26-.1,4.65-.39,4.9,2.84,5.6,5.76,1.14,4.74,5.33,6.6,9.69,4.14.23-.13.42-.34.64-.5,2.22-1.59,6.91.37,6.79-4.53-.08-2.96-.38-5.94-.91-8.85-2.66-14.64-4.41-29.36-4.14-44.25.04-2.1,1.54-4.14,1.81-6.28.46-3.7.65-7.46.65-11.19,0-3.81-.83-7.66-.46-11.41,1.67-17.03,6.45-33.38,10.81-49.87,3.92-14.82,6.5-30,.16-45.04-.35-.84-.48-1.82-.51-2.74-.31-9.61-.59-19.21-.83-28.82-.05-2.1-.04-3.76-2.75-4.65-1.3-.43-2.53-2.97-2.64-4.63-.15-2.41,2.05-2.91,4.04-2.43,3.4.83,4.57-.52,4.83-3.83.39-4.96.73-9.98,1.88-14.8,1.76-7.4,4.31-14.6,6.28-21.95,1.45-5.43,2.58-10.94,3.68-16.46.31-1.55.57-3.55-.12-4.8-3.69-6.7-1.13-13.41-.35-20.1.5-4.25,1.69-8.43,2.11-12.69.2-2.02-.67-4.14-1.06-6.22h-1.45c1.04-1.7,1.9-3.53,3.14-5.06,4.31-5.32,4.76-5.29,8.97.32.97,1.29,1.65,2.78,2.59,4.41-5.54,3.55-1.31,8.19-1.08,12.27.31,5.72,1.84,11.38,2.77,17.08.17,1.04.28,2.32-.15,3.21-3.95,7.97-1.29,15.78.52,23.57.88,3.77,2.56,7.36,3.37,11.15,1.67,7.85,3.04,15.76,4.43,23.66.46,2.65.25,5.46,1.05,7.97.33,1.04,2.45,1.93,3.85,2.11,2.13.27,4.42-.25,4.97,2.7.48,2.53-.83,3.78-2.99,4.97-1.05.58-1.72,2.61-1.82,4.04-.41,5.94-.99,11.92-.65,17.83.5,8.59-3.1,16.31-4.21,24.5-.76,5.62-.75,11.64.39,17.18,3.35,16.26,7.71,32.31,11.12,48.56,1.82,8.66,2.76,17.54,3.57,26.37.33,3.54-.76,7.2-1.17,10.81-.09.8-.27,1.71,0,2.42,4.84,13.53,1.64,27.01-.15,40.51-.86,6.54-1.79,13.08-2.37,19.65-.11,1.29.9,3.5,1.93,3.9,2.67,1.04,5.62,1.46,8.5,1.84,3.93.52,6.6-.68,6.51-5.36-.02-.84.97-2.42,1.55-2.44,3.8-.17,7.61-.05,11.42.06,1.79.05,3.57.27,6.36.48-2.21,2.08-3.57,3.72-5.26,4.9-8.5,5.95-13.25,14.61-16.4,24.02-2.79,8.35-4.44,17.09-6.44,25.7-.9,3.88,1.16,6.79,5.27,7.24,8.81.97,17.63,2.13,26.47,2.37,14.21.39,28.45.4,42.66,0,8.71-.24,17.64-.54,25.99-2.71,6.03-1.56,11.29-6.18,16.79-9.61.71-.44,1.09-1.94,1.08-2.95-.1-11.58-.04-23.17-.57-34.74-.36-7.93-1.14-15.9-2.53-23.7-1.43-8.02-4.04-15.82-5.75-23.8-1.82-8.51-3.85-17.06-4.62-25.7-1.37-15.46-1.82-31-2.77-46.5-.25-4.01.61-6.9,4.62-8.82,1.63-.78,3.07-3.13,3.52-5.03,1.87-7.95,3.46-15.98,4.85-24.03.38-2.22,1.06-3.49,3.28-3.82,3.12-.47,3.95-2.49,4.24-5.43.54-5.45.27-10.43-4.33-14.29-.57-.47-.51-1.73-.67-2.64-1.56-8.6-6.41-15.31-12.4-21.3-2.67-2.67-6.02-3.73-9.94-3.71-1.78,0-4.3-1.19-5.22-2.64-5.03-7.96-9.69-16.16-14.41-24.32-.52-.89-.77-2.03-.86-3.07-.5-6.19-1.11-12.37-1.2-18.57-.02-1.58,1.42-3.52,2.72-4.72,3.1-2.87,7.45-4.8,9.61-8.19,4.43-6.95,9.44-14.73,5.56-23.22-2.6-5.69-1.31-10.9-1.52-16.36-.06-1.48-.7-3.29-1.72-4.33-4.52-4.63-4.83-10.5-5.53-16.39-1.39-11.61-2.27-23.37-4.77-34.75-3.08-14-7.57-27.68-11.53-41.48-.91-3.18-1.28-7.61-3.45-8.98-1.77-1.12-5.95,1.3-8.93,2.47-1.55.61-2.83,1.9-4.4,3-1.58-3.15-3.16-5.36.55-8.64,6.43-5.67,11.9-12.41,17.94-18.53,2.11-2.15,1.96-4.1.89-6.57-4.94-11.44-9.79-22.92-14.89-34.89,1.37.43,3.53.44,4.48,1.52,3.27,3.72,6.64,7.53,8.91,11.86,1.25,2.39.39,5.88.49,8.88.08,2.19-.53,4.73.36,6.51,9.65,19.38,19.63,38.59,29.29,57.96,2.94,5.89,5.21,12.11,7.74,18.2,1.85,4.45,3.84,8.72,9.61,8.73-2.34,8.45-1.1,16.11,2.19,23.59,1.56,3.54,1.17,6.85.14,10.73-1.17,4.38-.54,9.39.15,14.01.16,1.07,3.71,2.33,5.64,2.23,1.39-.07,2.75-2.17,3.99-3.5.96-1.02,1.7-2.25,2.54-3.38.97,1.25,2.68,2.45,2.76,3.75.17,3.03-.26,5.95-2.93,8.39-1.93,1.77-3.02,4.54-4.24,6.99-.82,1.66-1.31,3.52-1.77,5.33-.45,1.8-1.08,3.69-.93,5.48.31,3.47,2.54,4.57,5.59,3.03,3.26-1.64,7.1-2.76,9.56-5.23,4.03-4.05,7.14-9,10.62-13.59.15-.2.29-.57.21-.76-2.19-5.22,1.88-8.38,3.91-12.26.96-1.85,1.38-3.99,2.09-6.14,1.54.37,2.8.67,4.17,1,2.17-3.26,2.6-6.55,1.83-10.34-.98-4.82-1.36-9.76-2.04-14.96,2.35.78,4.05,1.95,5.3,1.59,1.46-.42,2.67-2.06,3.76-3.37,5.92-7.15,7.22-14.89,3.6-23.67-1.5-3.65-1.41-7.92-2.5-11.79-1.05-3.73-2.99-7.2-4-10.94-4.04-15.04-8-30.12-11.7-45.24-.89-3.63-1.16-7.55-.93-11.29.8-12.85-4-24.32-8.29-35.94-1.92-5.2-4.2-10.27-5.94-15.52-1.42-4.29-3.42-7.55-9.68-7.5,2.78-2.03,4.63-3.31,6.39-4.69,3.09-2.41,6.27-4.72,9.15-7.37,6.28-5.77,6.3-6.33,2.6-13.65,10.15-7.48,16.4-18.39,24.27-27.89,1.96-2.36,3.81-4.81,5.71-7.22v629.52H0V0h425v151.28Z"/>
      <path class="cls-2" d="m164.46,65.14c-1.72-6.37-3.54-11.7-2.24-17.67,1.52-6.97,8.64-6.26,13.27-10.87-.36,6.12-.92,11.19-.88,16.25.05,6.74-6.37,7.63-10.16,12.3Z"/>
      <path class="cls-2" d="m110.18,274c-2.81-7.21,3.32-19.92,11.6-23.39-3.91,7.88-7.74,15.61-11.6,23.39Z"/>
      <path class="cls-2" d="m358.87,242.96c1.99-.71,3.53-1.26,5.83-2.08-.18,4.19-.34,7.7-.49,11.22-.26.09-.53.17-.79.26-1.4-2.9-2.81-5.81-4.54-9.4Z"/>
      <path class="cls-2" d="m369.6,218.99c-4.65,1.88-4.3,6.07-4.53,10.52-4.09-7.36-3.52-8.62,4.53-10.52Z"/>
      <path class="cls-2" d="m60.45,220.65c4.67,1.56,4.77,2.11.81,10.5-.31-4.01-.57-7.38-.81-10.5Z"/>
      <path class="cls-2" d="m328.59,154.41c-1.49,2.08-2.64,3.69-3.8,5.32q-2.74-2.66.46-6.96c.95.47,1.95.96,3.34,1.64Z"/>
    </g>
  </g>
</svg>