<?xml version="1.0" encoding="UTF-8"?>
<svg id="Layer_1" data-name="Layer 1" xmlns="http://www.w3.org/2000/svg" viewBox="0 0 424 780.67">
  <defs>
    <style>
      .cls-1, .cls-2 {
        stroke-width: 0px;
      }

      .cls-2 {
        fill: #fff;
      }
    </style>
  </defs>
  <g id="lFh0Qo.tif">
    <g>
      <path class="cls-2" d="m424,780.67c-141.33,0-282.67,0-424,0C0,520.45,0,260.22,0,0c141.33,0,282.67,0,424,0,0,260.22,0,520.45,0,780.67Zm-213-356.78l1.4.1c1.35,11.27,2.76,22.53,4.04,33.81,1.35,11.82,2.89,23.62,3.73,35.48.46,6.48,3.7,10.08,9.17,12.44.55.24,1.03.7,1.59.84,4.32,1.07,3.07,3.4,1.1,5.53-1.42,1.53-3.73,2.37-4.8,4.06-1.59,2.5-3.73,5.63-3.41,8.22,2.48,20.33,5.13,40.65,8.41,60.86,3.88,23.93,12.65,46.87,14.64,71.22.61,7.49,2.07,14.81-1.21,22.23-2.75,6.22-1.09,9.21,4.73,12.71,1.32.79,2.77,2.45,2.96,3.87.88,6.7,1.23,13.47,2.03,20.18.23,1.96.79,4.81,2.13,5.55,4.77,2.62,5.58,5.54,2.13,10.03-1.36,1.77-2.58,3.74-3.44,5.79-4.94,11.7-5.26,24.24-6.31,36.62-.47,5.6.32,6.16,6.15,6.16,30.11.01,60.22.01,90.33,0,4.81,0,6.05-1.02,4.63-5.56-1.59-5.08.7-7.4,4.35-10.02,4.02-2.89,7.63-6.46,7.71-12.03.09-6.14.14-12.27.12-18.41-.03-11.58.38-23.2-.42-34.73-.33-4.82-2.44-10.06-5.28-13.99-2.72-3.76-7.03-7.18-12.79-4.99-.39.15-1-.29-2.37-.73,5.17-4.19,2.76-8.05.64-12.03-3.83-7.16-5.7-14.63-5.7-22.98.02-36.92-.12-73.86-1.07-110.76-.21-8.31,2.03-18.21-5.56-23.46.84-5.64,2.06-10.23,2.09-14.83.07-9.51-.61-19.01-.75-28.53-.06-4-.04-7.6-3.48-10.7-1.49-1.34-1.73-4.4-1.96-6.74-.79-7.94-1.19-15.92-1.97-23.87-1.39-14.23-2.44-28.52-4.62-42.64-1.56-10.14,1.36-21.32-6.22-30.25-.16-.19-.11-.58-.13-.89-.93-10.96-1.96-21.91-2.72-32.87-.29-4.12.38-8.32-.04-12.42-.16-1.61-1.84-3.5-3.34-4.37-.88-.51-3.06.37-4.16,1.24-2.36,1.88-4.4,4.16-6.57,6.28l-1.57-.9c.53-1.83.5-4.26,1.69-5.36,4.06-3.73,8.55-6.99,13.13-10.63.5.71,1.24,1.45,1.62,2.34,11.06,25.68,22.08,51.38,33.16,77.05.51,1.18,1.37,2.63,2.43,3.07,3.48,1.44,7.06,3.08,10.72,3.49,3.5.39,4.1,2.3,4.68,4.93.89,4.05,1.94,8.06,2.84,12.1.35,1.6,1.21,3.62.59,4.8-2.45,4.72-1.15,9.48-.61,14.18.24,2.06,1.39,5.41,2.65,5.67,2.75.57,6.91,2.13,7.77-3.25.15-.93,1.82-1.61,2.86-2.47,2.9,5.3,2.52,7.33-1.26,10.68-1.2,1.06-2.37,2.45-2.91,3.92-1.43,3.9-2.91,7.86-3.58,11.92-.35,2.1.3,5.37,1.74,6.46,1.21.91,4.34-.29,6.42-1.09,7.01-2.68,12.16-7.66,15.64-14.2,1.27-2.39,1.66-5.25,2.38-7.91.27-.99.11-2.16.57-3.01,1.99-3.65,4.13-7.2,6.37-11.06,3.88,2.1,4.79-.95,5.52-4.1.3-1.31.56-2.73.36-4.02-1.5-9.96-3.2-19.89-4.58-29.87-.19-1.38.62-3.39,1.66-4.37,2.83-2.69,6.55-4.57,8.96-7.55,2.78-3.44,6.58-7,5.01-12.28-6.74-22.56-13.65-45.06-20.35-67.63-2.83-9.54-5.55-19.14-7.85-28.82-1.65-6.92-4.3-10.83-11.33-10.8-5.92.02-7.18-2.52-9.19-7.3-7.44-17.68-15.74-34.99-23.7-52.45-.7-1.53-1.3-3.11-2.23-5.32,1.82.3,2.73.3,3.53.61,9.32,3.53,18.56,7.29,27.96,10.61,6.93,2.45,13.96,4.87,21.14,6.31,6.17,1.23,7.24-.64,4.14-6.42-7.99-14.92-16.16-29.75-24.36-44.56-9-16.27-18.06-32.49-27.19-48.69-1.5-2.65-1.57-4.94-.07-7.63,2.35-4.22,4.59-8.53,6.42-12.99.78-1.92,1.1-4.56.44-6.45-3.71-10.58-6.96-12.45-18.13-11.18-1.65.19-3.37.8-4.92.5-2.11-.4-4.6-.96-6.04-2.37-5.22-5.09-5.08-5.23-10.1.1-.39.41-.9.69-1.74,1.32-5.22-3.27-10.26-6.84-15.7-9.65-2.17-1.12-5.24-.88-7.8-.53-.62.09-1.34,3.11-1.18,4.7.9,9.28,2.19,18.53,3.01,27.82.24,2.68-.09,5.7-1.15,8.13-1.5,3.45-3.91,6.51-6.37,10.44-1.01-1.82-2.24-3.31-2.71-5.02-2.14-7.9-8.88-11.1-15.28-13.57-6.15-2.37-6.5-1.46-6.49-8.34,0-1.51.2-3.06-.04-4.54-.48-2.93-.57-6.19-1.99-8.64-2.26-3.91-5.53-7.23-8.22-10.91-.56-.76-.63-2.01-.62-3.03.07-17.26-9.62-27.52-24.31-34.31-2.29-1.06-4.33-2.65-6.6-3.74-1.04-.5-2.72-.93-3.52-.44-4.64,2.85-9.03,3.05-13.65-.08-.78-.53-2.58-.17-3.59.37-2.48,1.31-4.75,3-7.14,4.48-4.07,2.52-8.07,5.17-12.31,7.37-1.39.72-3.66.76-5.12.14-7.96-3.41-17.28,2.27-17.65,10.91-.27,6.19,3.3,9.71,8.28,12.34,3.13,1.66,3.89,5.14,1.57,7.21-4.72,4.21-8.3,9.1-8.95,15.6-.37,3.74-.64,7.51-.64,11.27,0,2.79-.75,4.01-3.83,4.12-7.27.25-15.77,7.11-18.01,13.88-.5,1.52-1.55,2.87-2.77,5.06-4.25-6.27-9.41-10.22-7.42-18.43,2.11-8.7,2.2-17.9,2.97-26.89.12-1.41-.74-4.12-1.31-4.17-2.58-.21-5.6-.4-7.77.74-5.48,2.87-10.58,6.46-15.83,9.75-1.05-1.13-1.57-1.66-2.06-2.21-4.41-4.92-4.26-4.77-8.79-.14-1.33,1.36-3.76,2.18-5.73,2.26-4.36.18-8.76-.53-13.11-.32-1.88.09-4.28,1.1-5.43,2.51-4.97,6.08-8.85,12.65-2.94,20.31,6.86,8.89,4.84,16.72-.85,25.7-9.21,14.53-17.1,29.89-25.45,44.96-7.11,12.82-14.17,25.67-21.06,38.61-2.92,5.48-1.77,7.11,4.16,6.61,1.79-.15,3.63-.38,5.3-.98,8.54-3.04,17.03-6.21,25.54-9.35,6.85-2.53,13.68-5.1,21.57-8.04-.79,2.51-1.08,3.96-1.69,5.26-4.85,10.42-9.84,20.78-14.63,31.23-3.65,7.97-7.53,15.89-10.33,24.17-1.16,3.43-1.79,4.97-5.66,4.87-7.69-.19-12.13,3.43-13.83,9.75-5.01,18.67-10.03,37.35-15.38,55.93-3.98,13.81-8.6,27.43-12.63,41.22-.57,1.94.23,4.51,1,6.55,2.18,5.78,7.05,9.21,11.75,12.78,1.17.89,2.62,2.64,2.48,3.81-1.09,8.95-2.77,17.83-3.79,26.79-.42,3.66.34,7.45.56,11.26,2.62-.3,3.91-.44,4.95-.56,1.49,3.1,2.3,6.44,4.34,8.62,2.75,2.93,2.44,5.79,1.76,9.07-.07.32.43.77.66,1.15,4.85,7.94,10.09,15.36,19.47,18.69,4.33,1.54,7.22.24,6.56-4.39-.72-5.08-2.66-10.01-4.25-14.95-.28-.88-1.48-1.44-2.22-2.19-.96-.97-2.59-1.91-2.67-2.97-.2-2.67.29-5.39.51-8.09,1.37,1.27,2.54,2.97,4.15,3.72,2.14.99,4.63,1.64,6.95,1.61,1-.02,2.76-2.09,2.82-3.3.23-4.82-.18-9.67-.16-14.5.02-3.57.08-7.18.6-10.7.46-3.15,1.38-6.27,2.51-9.25.41-1.09,1.89-2.02,3.09-2.51,1.87-.77,3.94-1.06,5.9-1.66,1.26-.38,2.55-.81,3.69-1.46,1.91-1.09,4.66-1.95,5.41-3.64,9.25-20.85,18.2-41.83,27.24-62.77,2.53-5.86,5.1-11.71,7.63-17.5,4.57,3.49,8.42,6.62,12.48,9.46,2.89,2.02,3.24,4.04.69,6.98-2.25-2.09-4.29-4.32-6.68-6.05-1.25-.91-3.79-1.81-4.55-1.2-1.4,1.1-2.19,3.25-2.69,5.11-.32,1.19.62,2.66.52,3.97-.81,10.66-1.71,21.32-2.65,31.97-.29,3.3.37,7.52-1.4,9.67-3.66,4.44-3.75,9.24-4.22,14.35-1.31,14.39-2.96,28.75-4.37,43.13-1.38,14.09-2.55,28.2-4.02,42.28-.19,1.81-1.61,3.48-2.37,5.25-1.01,2.35-2.58,4.69-2.76,7.12-.48,6.47-.34,13-.46,19.5-.15,8.33-3.44,17.09,3.05,23.81-1.95,3.05-4.85,5.61-5.2,8.47-1.42,11.8-2.69,23.69-2.86,35.56-.44,30.89-.43,61.8-.23,92.69.05,7.82-1.33,14.94-5.16,21.71-2.3,4.05-4.78,8.26-.23,12.42-.63.47-.84.72-1.1.8-.43.13-.91.28-1.33.19-7.64-1.48-11.85,3.22-14.8,8.97-4.64,9.05-3.63,19.06-3.63,28.81,0,5.42.55,10.83.68,16.25.13,5.22.33,10.47-.04,15.67-.5,7.18,3.35,11.76,8.77,15.12,3.77,2.34,4.64,4.95,3.55,9.02-1.35,5.08-.62,5.85,4.55,5.86,20.58.01,41.16,0,61.74,0,9.84,0,19.68.15,29.5-.14,1.73-.05,4.75-1.82,4.88-3.03.49-4.7.33-9.53-.12-14.25-.44-4.6-1.16-9.24-2.45-13.66-1.63-5.57-3.27-11.34-6.21-16.25-2.36-3.95-3.48-7.14-1.01-11.47,4.81,2.16,4.06-2.32,4.39-4.45.75-4.89.69-9.9,1.13-14.85.4-4.54.24-9.05,5.84-11.45,3.28-1.41,5.26-5.11,3.64-9.23-2.46-6.28-3.65-12.52-2.34-19.4,1.87-9.88,2.54-19.99,4.49-29.85,2.17-10.95,5.33-21.7,7.82-32.6,5.31-23.24,8.21-46.86,11.25-70.47.86-6.7-1.37-11.34-6.5-15.19-4.33-3.25-4.21-4.92.53-7.15,6.26-2.95,9.61-7.37,9.67-14.66.06-6.44,1.19-12.88,1.93-19.32,1.41-12.26,2.85-24.51,4.32-36.76.46-3.85,1.07-7.69,1.61-11.53Z"/>
      <path class="cls-1" d="m211,423.89c-.54,3.84-1.15,7.68-1.61,11.53-1.47,12.25-2.91,24.51-4.32,36.76-.74,6.43-1.87,12.87-1.93,19.32-.06,7.29-3.41,11.71-9.67,14.66-4.74,2.23-4.86,3.9-.53,7.15,5.13,3.85,7.36,8.49,6.5,15.19-3.04,23.61-5.95,47.23-11.25,70.47-2.49,10.89-5.65,21.64-7.82,32.6-1.95,9.86-2.61,19.97-4.49,29.85-1.31,6.88-.12,13.12,2.34,19.4,1.61,4.11-.37,7.82-3.64,9.23-5.6,2.41-5.45,6.91-5.84,11.45-.43,4.95-.37,9.96-1.13,14.85-.33,2.13.42,6.6-4.39,4.45-2.47,4.32-1.35,7.52,1.01,11.47,2.93,4.91,4.58,10.68,6.21,16.25,1.29,4.42,2.01,9.07,2.45,13.66.45,4.73.61,9.55.12,14.25-.13,1.22-3.15,2.98-4.88,3.03-9.83.29-19.67.14-29.5.14-20.58,0-41.16,0-61.74,0-5.17,0-5.9-.78-4.55-5.86,1.08-4.07.21-6.68-3.55-9.02-5.42-3.37-9.27-7.95-8.77-15.12.36-5.2.16-10.45.04-15.67-.13-5.42-.68-10.84-.68-16.25,0-9.75-1.01-19.76,3.63-28.81,2.95-5.75,7.16-10.45,14.8-8.97.42.08.9-.06,1.33-.19.26-.08.48-.33,1.1-.8-4.55-4.16-2.07-8.37.23-12.42,3.83-6.77,5.22-13.89,5.16-21.71-.2-30.9-.21-61.8.23-92.69.17-11.87,1.44-23.76,2.86-35.56.34-2.86,3.24-5.41,5.2-8.47-6.49-6.72-3.21-15.47-3.05-23.81.12-6.5-.02-13.02.46-19.5.18-2.43,1.75-4.77,2.76-7.12.76-1.77,2.18-3.44,2.37-5.25,1.46-14.08,2.64-28.19,4.02-42.28,1.41-14.38,3.05-28.74,4.37-43.13.47-5.11.55-9.91,4.22-14.35,1.77-2.15,1.11-6.37,1.4-9.67.93-10.65,1.83-21.31,2.65-31.97.1-1.31-.84-2.78-.52-3.97.5-1.86,1.29-4.01,2.69-5.11.77-.61,3.31.3,4.55,1.2,2.39,1.74,4.42,3.96,6.68,6.05,2.55-2.94,2.2-4.96-.69-6.98-4.06-2.84-7.91-5.97-12.48-9.46-2.53,5.8-5.1,11.64-7.63,17.5-9.04,20.94-17.98,41.92-27.24,62.77-.75,1.69-3.5,2.55-5.41,3.64-1.14.65-2.43,1.07-3.69,1.46-1.96.59-4.02.88-5.9,1.66-1.2.49-2.67,1.42-3.09,2.51-1.13,2.98-2.05,6.1-2.51,9.25-.52,3.52-.58,7.13-.6,10.7-.02,4.84.38,9.68.16,14.5-.06,1.2-1.81,3.28-2.82,3.3-2.32.04-4.81-.62-6.95-1.61-1.61-.75-2.79-2.44-4.15-3.72-.22,2.7-.72,5.42-.51,8.09.08,1.05,1.71,2,2.67,2.97.74.75,1.94,1.31,2.22,2.19,1.59,4.94,3.52,9.86,4.25,14.95.66,4.63-2.23,5.93-6.56,4.39-9.38-3.33-14.62-10.76-19.47-18.69-.24-.39-.73-.83-.66-1.15.68-3.28.99-6.14-1.76-9.07-2.04-2.18-2.85-5.52-4.34-8.62-1.05.12-2.33.26-4.95.56-.23-3.81-.98-7.6-.56-11.26,1.02-8.96,2.69-17.84,3.79-26.79.14-1.18-1.31-2.93-2.48-3.81-4.71-3.57-9.57-6.99-11.75-12.78-.77-2.05-1.57-4.62-1-6.55,4.03-13.79,8.65-27.42,12.63-41.22,5.35-18.58,10.37-37.25,15.38-55.93,1.7-6.33,6.14-9.95,13.83-9.75,3.88.1,4.5-1.44,5.66-4.87,2.8-8.27,6.68-16.2,10.33-24.17,4.78-10.45,9.78-20.81,14.63-31.23.61-1.3.9-2.75,1.69-5.26-7.89,2.94-14.73,5.5-21.57,8.04-8.5,3.14-17,6.31-25.54,9.35-1.67.6-3.52.83-5.3.98-5.94.5-7.09-1.12-4.16-6.61,6.9-12.94,13.96-25.79,21.06-38.61,8.35-15.07,16.24-30.43,25.45-44.96,5.69-8.98,7.71-16.8.85-25.7-5.91-7.66-2.03-14.23,2.94-20.31,1.16-1.41,3.55-2.42,5.43-2.51,4.35-.21,8.75.5,13.11.32,1.97-.08,4.4-.9,5.73-2.26,4.53-4.63,4.38-4.78,8.79.14.5.55,1.01,1.09,2.06,2.21,5.24-3.29,10.35-6.88,15.83-9.75,2.17-1.14,5.19-.94,7.77-.74.57.05,1.43,2.76,1.31,4.17-.77,9-.86,18.2-2.97,26.89-1.99,8.21,3.17,12.16,7.42,18.43,1.22-2.19,2.27-3.54,2.77-5.06,2.24-6.77,10.74-13.63,18.01-13.88,3.08-.11,3.83-1.32,3.83-4.12,0-3.76.27-7.53.64-11.27.65-6.5,4.23-11.39,8.95-15.6,2.32-2.07,1.55-5.56-1.57-7.21-4.98-2.63-8.55-6.15-8.28-12.34.37-8.65,9.69-14.33,17.65-10.91,1.45.62,3.73.58,5.12-.14,4.24-2.19,8.24-4.85,12.31-7.37,2.39-1.48,4.66-3.17,7.14-4.48,1.02-.54,2.81-.9,3.59-.37,4.62,3.13,9.01,2.92,13.65.08.8-.49,2.48-.06,3.52.44,2.28,1.09,4.31,2.69,6.6,3.74,14.69,6.78,24.38,17.05,24.31,34.31,0,1.02.07,2.27.62,3.03,2.69,3.68,5.96,7,8.22,10.91,1.41,2.45,1.5,5.71,1.99,8.64.24,1.47.05,3.02.04,4.54-.01,6.89.34,5.98,6.49,8.34,6.4,2.47,13.14,5.67,15.28,13.57.46,1.71,1.7,3.2,2.71,5.02,2.46-3.93,4.87-6.99,6.37-10.44,1.06-2.43,1.38-5.45,1.15-8.13-.82-9.29-2.11-18.54-3.01-27.82-.15-1.59.56-4.62,1.18-4.7,2.56-.35,5.64-.59,7.8.53,5.44,2.81,10.48,6.38,15.7,9.65.83-.62,1.35-.91,1.74-1.32,5.02-5.33,4.88-5.19,10.1-.1,1.44,1.41,3.93,1.97,6.04,2.37,1.55.29,3.27-.32,4.92-.5,11.17-1.28,14.42.59,18.13,11.18.66,1.89.34,4.53-.44,6.45-1.82,4.46-4.07,8.77-6.42,12.99-1.5,2.69-1.42,4.98.07,7.63,9.12,16.19,18.19,32.42,27.19,48.69,8.19,14.81,16.37,29.64,24.36,44.56,3.1,5.79,2.03,7.66-4.14,6.42-7.18-1.43-14.21-3.86-21.14-6.31-9.4-3.32-18.64-7.08-27.96-10.61-.8-.3-1.71-.3-3.53-.61.92,2.21,1.53,3.79,2.23,5.32,7.96,17.46,16.25,34.78,23.7,52.45,2.01,4.78,3.27,7.32,9.19,7.3,7.03-.02,9.68,3.88,11.33,10.8,2.3,9.68,5.02,19.27,7.85,28.82,6.7,22.57,13.61,45.08,20.35,67.63,1.58,5.28-2.23,8.85-5.01,12.28-2.41,2.98-6.12,4.86-8.96,7.55-1.04.99-1.85,2.99-1.66,4.37,1.38,9.98,3.08,19.91,4.58,29.87.19,1.3-.06,2.72-.36,4.02-.72,3.15-1.64,6.2-5.52,4.1-2.24,3.85-4.39,7.41-6.37,11.06-.46.85-.3,2.03-.57,3.01-.73,2.66-1.11,5.53-2.38,7.91-3.48,6.54-8.63,11.52-15.64,14.2-2.08.8-5.21,1.99-6.42,1.09-1.44-1.08-2.09-4.36-1.74-6.46.67-4.07,2.14-8.03,3.58-11.92.54-1.47,1.71-2.86,2.91-3.92,3.78-3.34,4.17-5.38,1.26-10.68-1.05.86-2.72,1.55-2.86,2.47-.86,5.38-5.02,3.82-7.77,3.25-1.26-.26-2.41-3.61-2.65-5.67-.54-4.7-1.85-9.46.61-14.18.62-1.18-.24-3.21-.59-4.8-.9-4.05-1.95-8.06-2.84-12.1-.58-2.63-1.18-4.54-4.68-4.93-3.67-.41-7.25-2.05-10.72-3.49-1.06-.44-1.92-1.89-2.43-3.07-11.08-25.67-22.1-51.37-33.16-77.05-.38-.89-1.12-1.63-1.62-2.34-4.59,3.64-9.08,6.9-13.13,10.63-1.2,1.1-1.16,3.54-1.69,5.36l1.57.9c2.17-2.12,4.21-4.4,6.57-6.28,1.1-.88,3.28-1.75,4.16-1.24,1.5.87,3.17,2.76,3.34,4.37.42,4.1-.25,8.29.04,12.42.76,10.97,1.79,21.92,2.72,32.87.03.3-.03.69.13.89,7.58,8.92,4.66,20.11,6.22,30.25,2.17,14.11,3.22,28.41,4.62,42.64.78,7.94,1.18,15.93,1.97,23.87.23,2.34.47,5.4,1.96,6.74,3.44,3.1,3.42,6.7,3.48,10.7.14,9.51.82,19.02.75,28.53-.03,4.6-1.25,9.19-2.09,14.83,7.59,5.25,5.35,15.14,5.56,23.46.95,36.91,1.09,73.84,1.07,110.76,0,8.34,1.87,15.81,5.7,22.98,2.12,3.97,4.53,7.84-.64,12.03,1.37.45,1.98.88,2.37.73,5.77-2.18,10.07,1.23,12.79,4.99,2.84,3.93,4.95,9.18,5.28,13.99.8,11.53.39,23.15.42,34.73.02,6.14-.03,12.28-.12,18.41-.09,5.57-3.69,9.13-7.71,12.03-3.65,2.63-5.94,4.95-4.35,10.02,1.42,4.54.18,5.56-4.63,5.56-30.11.01-60.22.01-90.33,0-5.83,0-6.62-.56-6.15-6.16,1.05-12.38,1.37-24.92,6.31-36.62.87-2.05,2.08-4.02,3.44-5.79,3.45-4.49,2.64-7.41-2.13-10.03-1.34-.74-1.9-3.59-2.13-5.55-.8-6.71-1.15-13.48-2.03-20.18-.19-1.42-1.64-3.08-2.96-3.87-5.82-3.49-7.47-6.49-4.73-12.71,3.28-7.43,1.82-14.75,1.21-22.23-1.99-24.35-10.76-47.29-14.64-71.22-3.28-20.21-5.94-40.53-8.41-60.86-.32-2.59,1.82-5.72,3.41-8.22,1.07-1.68,3.38-2.52,4.8-4.06,1.97-2.13,3.22-4.46-1.1-5.53-.56-.14-1.04-.6-1.59-.84-5.47-2.36-8.71-5.96-9.17-12.44-.84-11.86-2.38-23.66-3.73-35.48-1.28-11.28-2.69-22.54-4.04-33.81l-1.4-.1Zm85.98-167.52c-.38.17-.75.34-1.13.51,1.05,3.84,2.21,7.66,3.11,11.53,1.1,4.68,1.75,9.48,3.08,14.09.45,1.55,2.41,2.65,3.68,3.96.79-1.15,1.75-2.22,2.33-3.47,1.66-3.61,3.22-7.27,4.68-10.96.55-1.39,1.45-3.68.88-4.26-1.05-1.05-3.23-1.83-4.65-1.49-4.34,1.02-6.92-.62-8.74-4.37-.93-1.92-2.15-3.69-3.24-5.53Zm21.33-97.74c3.25.19,5.49-2.98,3.97-5.96-2.27-4.43-4.7-8.79-7.34-13-.89-1.41-2.63-2.29-3.99-3.41-1.12,2.16-2.85,4.22-3.19,6.49-.31,2.07,1.09,4.34,1.39,6.58,1.01,7.72,2.1,8.9,9.17,9.31Zm-202.41-18.5c-.64-.79-1.78-2.56-3.35-3.77-.3-.23-2.7,1.48-3.43,2.71-3.06,5.17-5.89,10.48-8.73,15.79-1.6,2.99,1.38,5.26,2.67,4.87,3.66-1.1,8.27-2.62,10.04-5.5,2.18-3.54,1.86-8.62,2.8-14.1Zm9.97,122.23c-.42-.19-.83-.38-1.25-.56-1.71,1.94-3.08,4.76-5.22,5.59-2.37.91-5.46-.23-8.21-.06-2.71.16-3.31,2.79-1.85,5.24,2.03,3.42,3.56,7.12,5.45,10.62.7,1.29,1.8,2.36,2.72,3.54,1.25-1.14,3.05-2.05,3.61-3.46.92-2.33.95-4.99,1.51-7.48,1.02-4.49,2.15-8.95,3.23-13.42ZM345.19,61.94c-2.1.45-4.09,1.71-4.2,5.1-.12,3.69,2.01,5.28,5.18,5.47,3.13.19,5.08-1.61,5.44-4.78.34-2.96-2.33-5.63-6.43-5.8Zm-268.63,2.23c-3.27-.39-5.55,1.75-4.86,4.63.53,2.23,3.18,5,5.36,5.52,2.71.65,4.93-1.66,5.01-5.03.08-3.67-1.74-5.26-5.51-5.13Zm135.83,331.12c-2.76,2.53-7.53,3.8-5.66,8.23,1.48,3.5,6.47,3.69,9.15.46,3.76-4.53-2.55-5.49-3.48-8.68Z"/>
      <path class="cls-2" d="m296.97,256.37c1.09,1.84,2.31,3.61,3.24,5.53,1.82,3.76,4.4,5.39,8.74,4.37,1.42-.33,3.61.44,4.65,1.49.57.58-.33,2.87-.88,4.26-1.46,3.7-3.02,7.35-4.68,10.96-.57,1.25-1.54,2.32-2.33,3.47-1.27-1.31-3.23-2.41-3.68-3.96-1.34-4.61-1.99-9.41-3.08-14.09-.91-3.87-2.07-7.69-3.11-11.53.38-.17.75-.34,1.13-.51Z"/>
      <path class="cls-2" d="m318.3,158.63c-7.07-.41-8.15-1.59-9.17-9.31-.29-2.23-1.7-4.5-1.39-6.58.34-2.27,2.07-4.34,3.19-6.49,1.35,1.12,3.1,2,3.99,3.41,2.64,4.21,5.07,8.57,7.34,13,1.53,2.99-.72,6.15-3.97,5.96Z"/>
      <path class="cls-2" d="m115.88,140.13c-.94,5.48-.62,10.56-2.8,14.1-1.77,2.88-6.38,4.4-10.04,5.5-1.29.39-4.27-1.89-2.67-4.87,2.84-5.3,5.67-10.61,8.73-15.79.73-1.23,3.13-2.95,3.43-2.71,1.57,1.22,2.71,2.99,3.35,3.77Z"/>
      <path class="cls-2" d="m125.86,262.36c-1.08,4.47-2.22,8.93-3.23,13.42-.56,2.49-.59,5.15-1.51,7.48-.56,1.41-2.36,2.32-3.61,3.46-.92-1.17-2.03-2.24-2.72-3.54-1.89-3.5-3.43-7.2-5.45-10.62-1.45-2.45-.85-5.08,1.85-5.24,2.75-.17,5.84.97,8.21.06,2.14-.82,3.51-3.64,5.22-5.59.42.19.83.38,1.25.56Z"/>
      <path class="cls-2" d="m345.19,61.94c4.1.16,6.77,2.84,6.43,5.8-.36,3.17-2.32,4.97-5.44,4.78-3.18-.2-5.3-1.79-5.18-5.47.11-3.39,2.1-4.66,4.2-5.1Z"/>
      <path class="cls-2" d="m76.56,64.18c3.77-.13,5.59,1.46,5.51,5.13-.08,3.37-2.3,5.68-5.01,5.03-2.19-.53-4.84-3.29-5.36-5.52-.68-2.88,1.59-5.02,4.86-4.63Z"/>
      <path class="cls-2" d="m212.39,395.3c.93,3.19,7.24,4.15,3.48,8.68-2.68,3.23-7.67,3.04-9.15-.46-1.87-4.43,2.9-5.7,5.66-8.23Z"/>
    </g>
  </g>
</svg>