<svg id="Layer_1" data-name="Layer 1" xmlns="http://www.w3.org/2000/svg" viewBox="0 0 392.81 780">
  <g id="MX3niP.tif">
    <g>
      <path class="cls-1" d="m156.85,641.61c7.62,1.09,8.15,1.64,7.23,8.77-.6,4.6-1.37,9.21-2.58,13.67-1.43,5.23-3.14,10.72-11.68,6.3,1.5,6.44,3.16,11.39,3.7,16.45.81,7.53.96,15.15,1.13,22.73.11,4.59-1.84,7.64-7.24,6.8.7,3.61,1.63,6.76,1.87,9.96,1.09,14.22-6.1,25.52-13.77,36.32-7.09,9.98-18.44,10.67-29.29,10.56-11.16-.11-22.31-1.33-33.44-2.37-9.05-.84-16.07-8.9-15.74-18.15.17-4.72,2.67-9.77,1.58-14.02-1.82-7.12,4.16-10.72,5.38-16.31.68-3.12.27-5.08-2.34-6.54-6.39-3.58-9.07-8.85-8.11-16.2,1.25-9.59,2-19.25,3.36-28.83,1.31-9.21,6.27-16.67,12.51-23.29,6.16-6.53,8.51-14.77,8.16-23.1-.82-19.74-2.73-39.43-4.21-59.13-.53-7.06-1.27-14.11-1.59-21.18-.27-6.07-1.15-12.19,2.75-17.85,1.27-1.85.92-5.07.72-7.62-.23-2.95-.69-6.03-1.78-8.75-7.63-19.03-3.05-38.65-2.86-58.04.02-1.59,1.89-3.16,3.03-4.96-2.5-6.36,2.74-11.07,4.59-16.66,1.2-3.61,3.11-7.14,3.48-10.83,1.29-12.81,2.11-25.67,2.98-38.53.33-4.95-.39-9.59-1.8-14.59-1.43-5.09.67-11.55,2.37-17.06,1.78-5.74,5.67-10.84,7.31-16.59,2.85-10.01,4.03-20.51,7.1-30.44,4.92-15.95,5.37-33.23,14.16-47.98,1.6-2.69,3.69-5.38,6.19-7.19,5.96-4.29,7.67-12.35,2.91-19.44-4.89,8.28-9.63,16.22-14.27,24.21-2.44,4.21-4.56,8.27-10.22,9.36-3.6.69-2.99,4.17-.84,6.05,4.63,4.06,3.27,7.95,1.53,12.96-2.68,7.69-3.95,15.86-5.91,23.8-5.01,20.27-9.96,40.56-15.2,60.77-1.64,6.33-2.36,14.02-10.83,12.93,1.35,4.16,3.35,8.09,3.82,12.19,1.29,11.45,2.21,22.96,2.7,34.47.17,4.06-1.12,8.32-6.34,9.26-3.29.59-5.48-.31-5.78-4.07-.34-4.28-.34-8.66-1.3-12.8-1.47-6.34-3.63-12.53-5.75-19.64-2.65,6.89-4.87,12.65-7.58,19.71,2.16,3.75,5.43,9.04,2.12,15.62-.43.86,1.31,3.18,2.48,4.41,6.86,7.22,6.93,11.55.09,18.33-2.04,2.02-9.07.77-12.21-2.12-6.5-5.97-10.9-14.03-10.99-22.06-.08-6.78-3.44-10.69-6.09-15.54-3.63-6.64-1.88-10.71,5.35-11.65q-1.45-4.99-14.48,7.11c.68-13.31,2.38-25.18,5.89-37.02-1.66-.66-2.82-1.18-4.02-1.58-6.49-2.14-9.9-6.99-9.76-13.88.09-4.48.19-8.96.19-13.44,0-6.83-.73-13.55,1.1-20.44,1.8-6.8,1.78-14.05,2.93-21.05,2.89-17.61,5.88-35.21,9.16-52.75.41-2.2,2.47-5.36,4.29-5.78,5.94-1.36,12.08-1.89,17.8,1.72,2.6,1.64,5.69,2.52,8.55,3.74l1.06-2.47c-2.67-1.15-5.26-2.66-8.04-3.35-4.17-1.03-5.76-3.13-4.12-7.2,3.89-9.64,7.17-19.6,11.91-28.81,8.78-17.06,18.43-33.67,27.89-50.79-5.71-1.86-10.53-.69-14.39,3.82-3.1,3.63-6.46,4.8-11.35,3.62-3.9-.94-8.36-1.95-11.98,2.08-.81.91-4.48.54-5.64-.53-1.17-1.08-1.73-4.17-1.04-5.7,4.35-9.7,9.57-19.03,13.62-28.85,4.05-9.81,8.84-19.26,11.45-29.83,1.72-6.95,6.99-13.91,12.49-18.84,12.99-11.65,25.88-23.59,41.46-32.08,6.89-3.75,13.92-3.39,21.14-3.33,4.63.04,9.27,0,13.25,0,6.22-6.9,3.98-14.1,2.42-21.53-.94-4.46-1.29-9.5-.15-13.82.99-3.73,3.8-7.78,6.99-9.92,3.79-2.54,8.53-1.14,11.45,2.72,8.23,10.87,19.7,10.95,31.59,10.07,6.67-.5,13.36-.79,20.03-1.29,4.41-.33,8.57,1.81,13.38-.25,3.22-1.38,5.2,2.73,5.6,6.13.78,6.67,1.37,13.37,2.09,20.05.6,5.5,3.17,7.65,8.8,7.41,3.17-.13,6.36-.12,9.49-.52,11.28-1.46,21.3,1.1,30.35,8.24,9.46,7.47,19.46,14.25,28.94,21.69,7.93,6.22,12.77,14.36,15.95,24.18,3.71,11.41,9.19,22.27,14.26,33.2,3.69,7.95,8.27,15.49,11.78,23.5.92,2.09.19,6.12-1.37,7.68-1.22,1.22-4.88.05-7.45-.16-2.36-.19-5.04-1.35-7.01-.6-4.8,1.83-7.98.81-11.17-3.15-6.1-7.58-9.92-8.44-18.61-5.02.28.97.38,2.09.88,2.97,7.07,12.3,13.17,25.32,21.58,36.63,8.94,12.02,14.56,25.15,18.32,39.23,1.76,6.61,4.91,9.47,11.56,8.48,5.7-.85,7.73,1.78,8.43,7.34,1.19,9.43,3.09,18.78,5.09,28.08.62,2.87,2.59,5.44,3.85,8.2.51,1.11.98,2.3,1.11,3.49,1.47,13.43,2.86,26.87,4.3,40.3.1.89.99,2.11.67,2.57-5.43,7.61-1.21,15.89-1.57,23.79-.42,9.53-2.79,13.49-11.92,15.73-.51.12-.95.53-.84.46,1.86,12.04,3.67,23.78,5.56,35.98-6.82-1.08-7.05-11.76-15.75-7.57,2.02,2.44,3.33,5.12,5.48,6.38,3.08,1.79,2.37,4,.88,5.45-7.75,7.56-7.75,18.08-11.22,27.29-1.94,5.15-5.79,10.02-9.94,13.69-1.91,1.69-8.28,1.58-9.69-.13-2.66-3.23-8.28-7.61-2.85-12.7,5.19-4.86,3.5-10.9,4.91-16.45,2.35-9.24-2.62-16.24-3.3-24.32-.09-1.05-.64-2.06-1.34-4.18-2.66,6.27-5.52,11.45-7.02,16.98-1.54,5.68-1.76,11.72-2.55,17.52-8.4,1.82-9.48,1.55-10.54-6.41-.86-6.44-.5-13.08-.23-19.61.19-4.62.98-9.23,1.78-13.8.79-4.52,1.92-8.97,2.5-11.65-2.35-4.47-4.83-7.61-5.73-11.15-7.5-29.65-14.7-59.38-22.04-89.07-.73-2.97-.63-5.22,2.19-7.29,3.31-2.43,2.18-7.39-1.4-9.42-2.78-1.58-5.83-3.42-7.59-5.95-4.99-7.19-9.38-14.8-14-22.25-1.03-1.66-2.01-3.35-3.02-5.02-.5.19-1,.38-1.49.56.51,2.56.53,5.35,1.61,7.65,3.89,8.27,8.19,16.34,12.22,24.54.89,1.82,1.43,3.83,1.92,5.81,5.72,23.53,11.2,47.12,17.2,70.57,1.87,7.32,5.33,14.22,7.65,21.44,1.01,3.12,1.35,6.48-2.32,8.93-1.02.69-1.04,3.38-.97,5.13.67,15.1,1.26,30.22,2.36,45.29.34,4.7,1.55,9.56,3.43,13.87,7.09,16.23,7.9,33.41,8.33,50.67.04,1.56-1.1,3.67-2.37,4.67-6.14,4.84-6.8,10.73-6.16,18.3,1.94,23.02,4.38,46.18,3.52,69.18-.61,16.11-2.52,32.26-2.34,48.48.03,2.84-.64,5.53,2.97,7.55,1.86,1.05,1.96,5,3.21,7.46,2.55,5.04,4.66,10.51,8.17,14.8,5.06,6.18,6.6,13.53,8.66,20.7,3.34,11.6,1.12,23.64,2.03,35.45.38,4.83-1.26,7.63-5.37,9.83-6.18,3.31-6.75,7.23-3.14,13.48,1.22,2.11,1.15,4.98,1.63,7.5.27,1.41.62,2.83.71,4.25.39,6.42,2.45,13.46.48,19.06-1.5,4.25-7.85,8.76-12.6,9.49-13.38,2.06-27.08,3.24-40.6,2.88-14.8-.4-26.46-6.63-32.52-21.9-4.61-11.61-7.65-22.86-4.23-35.62-5.12-2.12-5.47-6.71-4.97-11.42.99-9.27,2.23-18.51,3.35-27.76.24-2.02.41-4.05.65-6.47-6.13-.7-7.76-4.96-8.52-10.09-.77-5.17-1.9-10.28-2.82-15.42-.5-2.78-.12-4.86,3.01-6.31,1.53-.71,3.01-3.33,3.08-5.15.73-18.73.01-37.42-6.33-55.28-7.78-21.89-8.14-44.64-8.96-67.39-.26-7.1-.93-13.74-3.73-20.84-3.95-10.01-6.35-21.59-5.68-32.26,1.27-20.1-5.79-38.37-9-57.47-.91-5.4-4.52-4.16-7.88-4.5-3.62-.36-5.24.92-6.11,4.61-2.29,9.81-4.8,19.58-7.74,29.21-3.53,11.56-1.16,23.36-2.09,35.01-.8,10.06-2.11,19.99-8.31,28.6-1.37,1.91-1.7,4.9-1.73,7.4-.19,17.17.24,34.35-.4,51.49-.27,7.14-1.4,14.8-4.39,21.16-4.83,10.29-6.43,21.08-7.36,31.96-.9,10.53-.19,21.2-.19,32.14Z"/>
    </g>
  </g>
</svg>