<svg xmlns="http://www.w3.org/2000/svg" width="1064.001" height="1052.001" version="1.2" viewBox="0 0 798 789"><path d="M443.359 389.672q9.766 0 21.485-2.442 11.718-2.44 21.972-8.3t17.09-14.649 6.836-20.508q0-18.554-13.183-34.179t-32.227-26.856q-19.043-11.23-40.039-17.578-20.995-6.348-36.621-6.347-30.273 0-60.059 11.718-29.784 11.719-53.222 31.739t-38.086 47.363-14.649 59.57q0 39.063 16.602 70.313t43.945 53.222 61.524 34.18q34.18 12.207 70.312 12.207h12.695q7.813 0 14.649-1.465 6.836-1.464 6.836-6.347 0-9.767-9.766-18.555-9.765-8.79-18.555-8.789-6.835 0-13.183.976-6.348.977-14.16.977-27.344 0-51.758-6.836t-42.969-21.484q-18.554-14.649-29.297-36.622-10.742-21.972-10.742-51.269 0-28.32 13.184-53.711t34.668-43.945q21.484-18.555 48.828-29.297t54.687-10.742q5.86 0 16.602 1.953t21.484 5.859 18.555 9.766 7.812 14.648q0 6.836-4.394 12.207t-10.742 8.789a95.6 95.6 0 0 1-13.184 5.86q-6.836 2.441-12.695 3.418-3.906 1.953-7.813 1.953-.976 0-3.418-.489-2.441-.488-7.324-.488-6.836 0-6.836 6.836 0 12.696 12.207 20.02t22.949 7.324m-41.015-270.508q-12.696 0-29.297-2.93t-27.344-7.812q-13.671-5.859-29.297-18.555-15.624-12.695-31.25-12.695-3.906 0-3.906 2.93-2.93 18.555-9.277 43.457-6.348 24.902-17.578 46.875t-28.321 37.109q-17.09 15.137-41.504 15.137-8.788 0-17.578-.489-8.789-.487-16.601-3.418-4.884-1.953-11.719-5.859-6.836-3.906-11.719-3.906-3.906 0-3.906 3.906v1.953a2198 2198 0 0 1 18.066 85.449q8.301 43.458 8.301 87.403 0 23.438-8.301 39.062-8.301 15.626-18.066 26.367-9.766 10.743-18.067 17.09-8.3 6.348-8.3 10.254 0 10.743 14.648 19.043t32.227 21.485 32.226 34.179q14.649 20.996 14.649 56.153 0 18.554-1.953 36.132a652 652 0 0 1-4.883 35.157v.976q0 5.86 6.836 11.719t12.695 5.859q1.953 0 8.301-7.812t9.277-9.766q18.555-18.554 41.992-28.808 23.438-10.254 49.805-10.254 19.532 0 43.457 6.836 23.927 6.835 40.527 15.625 5.86 2.929 16.602 10.742 10.742 7.812 15.625 7.812 2.93 0 3.906-.976a785 785 0 0 0 10.742-14.649q4.883-6.835 12.696-13.672 19.531-15.624 45.898-23.925t50.781-8.301q12.696 0 26.368 4.883t21.484 4.883q4.883 0 4.883-3.907 0-1.953-2.442-5.859-2.44-3.907-6.347-9.277-3.906-5.372-11.719-20.997-6.836-19.53-7.813-40.039a862 862 0 0 1-.976-41.015q0-58.594 21.484-111.328t59.571-96.68q.976-.977.976-2.93 0-5.859-5.859-11.23-5.86-5.372-10.742-6.348-34.18-5.86-56.641-14.648-22.461-8.79-35.645-23.926-13.184-15.137-18.554-38.086-5.371-22.95-5.371-56.152 0-12.696.488-25.391.488-12.696.488-26.367 0-9.765-10.742-14.649-6.836-6.836-13.672-6.836-2.93 0-3.906 1.954-14.649 22.46-42.481 30.761-27.831 8.301-53.222 8.301m13.672 21.484q21.484 0 44.433-4.882 22.95-4.884 41.504-17.578-.976 4.882-.976 19.531 0 70.312 28.808 108.886 28.809 38.575 93.262 54.2-70.313 87.89-70.313 202.148 0 26.367 2.93 54.199t16.602 50.293a1658 1658 0 0 0-18.067-3.906q-9.278-1.953-18.066-1.953-34.18 0-67.871 14.648-33.692 14.648-54.199 43.946-23.438-16.602-56.641-26.856t-59.57-10.254q-48.83 0-84.961 27.344.976-6.836.976-25.391 0-27.344-6.836-46.386t-18.554-33.692q-11.72-14.648-27.832-27.343-16.114-12.696-34.668-26.368 22.461-20.507 34.668-38.574t12.207-51.269q0-41.992-7.325-83.008a2430 2430 0 0 0-16.113-82.031q12.696 4.883 22.461 6.347t27.344 1.465q26.367 0 44.433-14.648 18.067-14.649 30.762-36.133t19.531-46.387q6.837-24.902 9.766-45.41v-.977q7.812 2.93 16.113 9.278 8.3 6.347 16.114 11.23 17.577 10.742 39.062 15.137t41.016 4.394M237.305 8.813q8.789 7.812 17.09 17.09t21.972 13.183q23.438 6.836 47.363 8.3 23.927 1.466 49.317 1.466 19.531 0 47.851-2.442 28.32-2.441 57.618-7.812 29.297-5.371 55.664-14.649T575.195 1q-10.741 14.648-13.672 29.297-2.93 14.649-2.929 26.367 0 6.835 1.465 20.02 1.464 13.183 8.789 31.25 7.324 18.066 18.066 32.714 28.32 40.04 71.777 71.778t96.192 40.527q-25.39 17.578-43.457 44.434-18.066 26.855-30.274 57.129-12.207 30.273-18.066 62.988t-7.813 62.012q0 22.461 2.93 48.339 2.93 25.88 11.231 49.805 8.3 23.927 22.949 42.969 14.648 19.043 39.062 28.809-41.991 4.883-84.961 13.671-42.968 8.79-81.054 31.25-27.344 15.625-46.387 40.528t-23.926 53.222a855 855 0 0 1-57.617-19.531 2373 2373 0 0 0-57.617-20.996 625 625 0 0 0-59.57-17.578 301 301 0 0 0-61.524-8.301h-6.836q-19.531 0-41.504 5.371t-42.48 16.114v-4.883q0-38.086-13.184-75.196t-35.644-72.265Q99.61 560.57 74.707 531.273t-60.059-40.039q22.461-10.741 37.598-27.832 15.136-17.09 23.926-38.574 8.79-21.485 12.695-45.41 3.906-23.926 3.906-46.387-.975-46.875-8.3-96.679-7.324-49.806-32.715-91.797 34.179-7.813 70.801-15.137t66.894-29.785q23.438-17.578 34.668-38.574 11.23-20.997 11.231-44.434V8.813z"/></svg>