<?xml version="1.0" encoding="UTF-8" standalone="no"?>
<svg
   width="98.060478mm"
   height="98.912552mm"
   viewBox="0 0 98.060478 98.912552"
   version="1.1"
   xml:space="preserve"
   xmlns="http://www.w3.org/2000/svg"
   xmlns:svg="http://www.w3.org/2000/svg"><path
     style="fill:#000000"
     d="m 54.147179,98.230198 c -1.354126,-3.56162 -6.122942,-5.38569 -9.506229,-3.63612 -0.975359,0.50438 -2.334215,1.94318 -2.933212,3.10578 -0.584348,1.13418 -0.717881,1.15719 -3.459704,0.59612 -3.393999,-0.69452 -3.126151,-0.53819 -3.126151,-1.82466 0,-2.66103 -1.365,-4.7844 -3.86766,-6.01645 -1.464163,-0.72081 -1.881924,-0.81273 -3.115194,-0.68544 -1.700274,0.17548 -2.871501,0.72555 -4.149519,1.94883 l -0.945915,0.9054 -2.493668,-1.75872 c -1.371518,-0.9673 -2.524997,-1.78629 -2.563287,-1.81997 -0.03829,-0.0337 0.110538,-0.49243 0.330729,-1.01942 0.507508,-1.21464 0.516459,-3.88927 0.01702,-5.0846 -1.381794,-3.3071 -4.788429,-4.85828 -8.102011,-3.68918 -0.9156234,0.32305 -1.1845044,0.33623 -1.3490794,0.0661 -0.113047,-0.18552 -0.856206,-1.36733 -1.651465,-2.62624 -1.417973,-2.24468 -1.436018,-2.29789 -0.933435,-2.75272 1.033237,-0.93507 2.100748,-3.54073 2.097987,-5.120927 -0.003,-1.725977 -0.84172,-3.739782 -2.014472,-4.836934 -1.063601,-0.995037 -2.940478,-1.788851 -4.245775,-1.795724 -1.24281302,-0.0065 -1.064011,0.365289 -1.81557702,-3.775632 -0.411754,-2.268655 -0.373839,-2.844762 0.187222,-2.844762 0.153816,0 0.85524102,-0.422511 1.55872302,-0.938914 3.199061,-2.348327 3.616934,-7.127176 0.869753,-9.946614 -0.516426,-0.53001 -1.4111,-1.17656 -1.98816302,-1.43678 -0.830747,-0.374614 -1.02323,-0.587143 -0.924448,-1.020721 0.06862,-0.301177 0.379924,-1.692474 0.691794,-3.091771 l 0.56703702,-2.544176 1.526878,-0.138452 c 3.204981,-0.290618 5.527684,-2.37199 6.117457,-5.481848 0.356466,-1.879638 -0.23692,-4.06976 -1.503587,-5.549576 -0.555588,-0.649079 -0.834633,-1.195716 -0.714318,-1.399315 0.108596,-0.183768 0.962763,-1.417035 1.898148,-2.740594 l 1.7007004,-2.406471 0.963835,0.344337 c 0.53011,0.189385 1.625068,0.349563 2.43324,0.35595 4.44873,0.03516 7.762008,-4.744396 6.23992,-9.001371 l -0.33724,-0.9431927 2.628588,-1.766644 2.628588,-1.766643 0.961411,0.755356 c 3.128485,2.457968 6.379726,2.500059 9.030364,0.116908 1.394275,-1.253573 2.382088,-3.30992 2.382088,-4.958833 v -0.887433 l 2.976563,-0.560277 C 41.852224,0.2497033 43.275402,-0.0013297 43.377734,5.3001248e-6 43.480065,0.0013053 43.788411,0.5084473 44.062948,1.1269113 c 1.09002,2.455543 3.900523,4.083218 6.624058,3.836257 2.510279,-0.227624 4.552834,-1.618595 5.735684,-3.905974 0.473059,-0.914795 0.560685,-0.926017 2.958297,-0.378878 4.042777,0.922568 3.786405,0.775173 3.789315,2.178585 0.0087,4.219545 4.344699,7.3443007 8.474235,6.107062 0.548673,-0.164386 1.574518,-0.735961 2.279655,-1.270167 l 1.282067,-0.971282 1.861828,1.336313 c 3.493885,2.5077077 3.3168,2.2950027 2.895338,3.4777277 -0.533018,1.495782 -0.484077,3.820494 0.109027,5.178836 0.629158,1.440916 2.202819,2.957885 3.671135,3.53888 1.058943,0.419012 2.24953,0.434511 4.99317,0.065 0.45352,-0.06108 0.88709,0.411386 2.18282,2.378602 0.88929,1.35015 1.61689,2.549786 1.61689,2.665858 0,0.116072 -0.27743,0.471666 -0.6165,0.79021 -1.72293,1.618605 -2.52425,5.284576 -1.6535,7.564603 0.49742,1.30247 1.88581,2.848464 3.14222,3.498923 0.46616,0.241336 1.49728,0.509415 2.29137,0.595731 l 1.4438,0.156938 0.46108,2.513542 c 0.711,3.875947 0.72179,3.822823 -0.92959,4.578848 -2.88349,1.320107 -4.27229,4.65766 -3.29518,7.918961 0.3773,1.259317 2.2689,3.442136 3.38271,3.903491 0.96879,0.401285 0.97937,0.622256 0.19024,3.971615 l -0.59221,2.513542 -1.61706,0.155374 c -1.83217,0.176043 -3.59747,1.07127 -4.70283,2.384919 -2.08088,2.472979 -1.98879,6.27571 0.21519,8.88641 l 0.71199,0.84337 -1.63702,2.33163 c -0.90035,1.2824 -1.70996,2.41658 -1.79911,2.5204 -0.0892,0.10383 -0.63675,0.0198 -1.21688,-0.18682 -2.371283,-0.8444 -5.109107,-0.24126 -6.964926,1.53437 -1.831299,1.75218 -2.438194,4.04834 -1.757601,6.64981 0.331939,1.26879 0.34556,1.61148 0.07071,1.77884 -0.187243,0.114 -1.36831,0.85661 -2.624595,1.65023 l -2.284154,1.44295 -0.758554,-0.79862 c -1.092529,-1.15023 -2.611598,-1.84676 -4.37669,-2.00681 -1.349849,-0.1224 -1.747411,-0.0374 -3.223121,0.68908 -1.140968,0.5617 -1.914295,1.16197 -2.400131,1.86303 -0.779547,1.12489 -1.474237,3.13337 -1.474237,4.26229 0,0.69489 -0.06022,0.72115 -2.633876,1.14858 -3.40584,0.56563 -3.416198,0.56483 -3.740826,-0.28901 z m -12.14613,-11.81945 c 0,-0.0608 0,0.4292 0,0 z m 11.641533,-13.37535 c 4.562176,-1.18084 8.450672,-3.454641 12.35554,-7.224902 3.131826,-3.023866 5.053544,-5.354463 7.484713,-9.077216 3.549984,-5.435951 5.47641,-9.958519 4.499178,-10.562482 -0.630807,-0.389861 -1.451042,0.350753 -3.610016,3.259587 -2.565453,3.456493 -7.995221,9.039985 -10.791414,11.096931 -7.758631,5.707434 -15.320471,7.03669 -20.669298,3.633347 -2.512533,-1.598671 -4.095611,-4.258914 -4.932748,-8.289109 -1.581013,-7.611411 1.301844,-17.096878 6.944516,-22.849545 1.706884,-1.740157 2.687412,-2.504367 4.0034,-3.120192 3.325052,-1.55598 6.104249,-1.624223 7.770586,-0.190805 0.805424,0.692842 0.876091,1.456734 0.370207,4.001828 -0.33183,1.669432 -0.320463,1.865972 0.159619,2.7598 1.323873,2.464824 4.423333,1.822886 5.559217,-1.151384 0.674214,-1.765405 0.430967,-4.811559 -0.549081,-6.876077 -1.427789,-3.007705 -4.507398,-5.392233 -8.197411,-6.34722 -2.296507,-0.594343 -6.399461,-0.543335 -8.939402,0.111135 -7.191594,1.853067 -13.701745,8.627474 -16.926115,17.613167 -1.22637,3.417656 -1.624618,5.999516 -1.632462,10.583333 -0.008,4.686352 0.292436,6.496161 1.66987,10.058536 3.854314,9.968188 14.725675,15.342188 25.431101,12.571268 z" /></svg>
