<?xml version="1.0" encoding="UTF-8" standalone="no"?>
<svg
   ffdec:objectType="shape"
   height="36.05px"
   width="40.9px"
   version="1.1"
   id="svg6"
   sodipodi:docname="parts.svg"
   inkscape:version="1.3.2 (091e20e, 2023-11-25)"
   xmlns:inkscape="http://www.inkscape.org/namespaces/inkscape"
   xmlns:sodipodi="http://sodipodi.sourceforge.net/DTD/sodipodi-0.dtd"
   xmlns="http://www.w3.org/2000/svg"
   xmlns:svg="http://www.w3.org/2000/svg"
   xmlns:ffdec="https://www.free-decompiler.com/flash">
  <path d="m 15.895976,20.030718 c -0.017,-0.08768 -0.09169,-0.310124 -0.165969,-0.49433 -0.534764,-1.326194 -1.803538,-2.330696 -3.216126,-2.54624 -1.339317,-0.204365 -2.5628932,0.176873 -3.5334368,1.100935 -0.554127,0.527589 -0.8943069,1.0531 -1.1041892,1.705756 -0.068782,0.213887 -0.1183349,0.315487 -0.1339824,0.274711 -0.013657,-0.03559 -0.036618,-0.258784 -0.051025,-0.495987 -0.043003,-0.708025 0.079224,-1.315907 0.390916,-1.944184 0.4012816,-0.808863 1.2712858,-1.649398 2.0927564,-2.021871 1.004167,-0.455311 2.343383,-0.452577 3.367412,0.0069 0.787207,0.353196 1.673109,1.206057 2.067529,1.990419 0.37049,0.736773 0.509177,1.710944 0.347853,2.443395 l -0.03082,0.139932 z" />
  <path d="M 9.678903,30.794942 C 9.5260561,29.488813 9.5187601,29.443228 9.459687,29.425253 9.4353269,29.417841 9.2084974,29.354602 8.9556211,29.284722 7.350705,28.841217 5.8917556,27.986267 4.6222215,26.745333 L 4.3068573,26.437073 3.9025735,26.60576 c -1.2460979,0.519935 -1.8774733,0.762931 -1.9065147,0.733756 -0.078149,-0.07851 -1.91080719,-3.26749 -1.89369108,-3.295185 0.0104425,-0.0169 0.45045741,-0.365098 0.97781088,-0.773781 0.5273534,-0.408682 0.9588244,-0.768106 0.9588244,-0.79872 0,-0.03061 -0.044616,-0.223682 -0.099146,-0.429043 -0.4029976,-1.517682 -0.4176262,-3.304594 -0.039272,-4.797192 0.054264,-0.21407 0.1160821,-0.435037 0.1373735,-0.491038 0.037296,-0.0981 0.00184,-0.129742 -0.9696379,-0.865477 C 0.51372797,15.469069 0.05493589,15.111934 0.04878227,15.095447 0.03799322,15.06654 1.8819047,11.875369 1.9470225,11.810251 c 0.017622,-0.01762 0.5087999,0.165143 1.0915068,0.406144 0.5827068,0.241002 1.0911774,0.448292 1.1299353,0.460645 0.050594,0.01613 0.1915411,-0.09211 0.4997556,-0.383779 1.214096,-1.148914 2.8286733,-2.071854 4.3757385,-2.5013017 0.2042905,-0.056709 0.3916549,-0.1092245 0.4163648,-0.1167016 0.057275,-0.017331 0.064115,-0.06043 0.2205006,-1.3893092 L 9.8113874,7.176491 h 1.9628556 1.962855 l 0.130564,1.1094575 c 0.179421,1.5246266 0.132971,1.3583322 0.399849,1.4315081 1.728574,0.4739634 3.353122,1.3810054 4.612509,2.5753254 0.313674,0.297469 0.448439,0.400718 0.501182,0.383978 0.03968,-0.01259 0.548265,-0.219679 1.130196,-0.460192 0.808622,-0.334204 1.068681,-0.426106 1.103126,-0.389834 0.07797,0.08211 1.897264,3.236211 1.885341,3.268613 -0.0062,0.01696 -0.443139,0.356851 -0.970881,0.755303 -0.527742,0.398453 -0.97534,0.747409 -0.994661,0.77546 -0.02181,0.03167 0.01178,0.231891 0.08861,0.528135 0.156857,0.604812 0.234965,1.094393 0.283726,1.778393 l 0.03861,0.54163 -0.230669,1.512143 -0.230669,1.512143 0.1854,0.145151 c 0.101969,0.07983 0.5566,0.424016 1.010291,0.764849 0.45369,0.340833 0.825788,0.633951 0.826884,0.651373 0.0023,0.03716 -1.866648,3.18192 -1.936909,3.259049 -0.03868,0.04246 -0.250193,-0.03178 -1.123361,-0.394278 -0.591642,-0.245623 -1.105858,-0.455319 -1.142703,-0.465993 -0.04447,-0.01288 -0.466364,0.303786 -1.25487,0.941885 -1.051859,0.851217 -1.239104,0.986581 -1.635229,1.182151 -0.589358,0.290969 -1.288928,0.559483 -1.879246,0.721304 -0.451974,0.123898 -0.479963,0.137536 -0.505479,0.246305 -0.01486,0.06333 -0.08646,0.623396 -0.159121,1.244592 l -0.13211,1.129448 h -1.9632 -1.9632036 z m 3.264115,-5.744713 c 0.711823,-0.145594 1.397025,-0.437143 2.005153,-0.853179 0.417507,-0.285627 1.295986,-1.169754 1.558098,-1.568115 0.618626,-0.940192 0.894984,-1.891401 0.894406,-3.078494 -3.42e-4,-0.701895 -0.07245,-1.175033 -0.269093,-1.765542 -0.286181,-0.859406 -0.666306,-1.459118 -1.378941,-2.175517 -0.883433,-0.888097 -1.726685,-1.347667 -2.903963,-1.582653 -0.492375,-0.09828 -1.613212,-0.09843 -2.113927,-2.87e-4 -1.107797,0.217134 -1.9924824,0.671256 -2.8041368,1.439404 -0.744761,0.70484 -1.2153857,1.425553 -1.5144015,2.319149 -0.3417173,1.021206 -0.3625927,2.360541 -0.053066,3.404644 0.4098288,1.382445 1.5459493,2.710246 2.9043039,3.394302 0.5462745,0.2751 1.1674964,0.460623 1.8163214,0.542431 0.459085,0.05788 1.390461,0.01974 1.859246,-0.07614 z" />
  <path d="M 19.610411,9.111654 C 19.236594,8.2640296 18.915792,7.5608598 18.897517,7.5490544 18.879242,7.5372486 18.24955,7.4397599 17.498201,7.3324123 16.637859,7.2094924 16.119864,7.1185989 16.099027,7.0868972 16.08083,7.0592115 15.873328,6.5867793 15.637911,6.0370481 L 15.20988,5.0375368 13.992054,4.2086517 C 13.322249,3.7527652 12.76833,3.3620754 12.761122,3.3404524 c -0.0072,-0.021623 0.315253,-0.5981268 0.716579,-1.2811196 0.520857,-0.8864172 0.753377,-1.24715056 0.812477,-1.26048341 0.289293,-0.0652643 4.111644,-0.78073775 4.118725,-0.77094921 0.0048,0.0066441 0.477702,0.54282076 1.050879,1.19150362 0.578911,0.6551724 1.483767,1.6178208 2.035681,2.1656995 l 0.993541,0.9862761 0.999511,-0.3012123 0.999511,-0.3012128 1.839101,0.2281125 c 1.011505,0.1254614 1.896092,0.2399763 1.965748,0.2544768 l 0.126647,0.026365 -0.315578,0.5797165 C 27.930376,5.1764689 27.612513,5.6928332 27.397581,6.0051009 27.064417,6.4891423 26.983214,6.5823747 26.846873,6.6373846 26.648171,6.7175554 25.802422,7.1876967 24.6383,7.8651039 l -0.889218,0.5174394 -0.495307,-0.066699 c -0.272419,-0.036684 -0.53026,-0.060668 -0.572981,-0.053295 -0.04272,0.00737 -0.586303,0.5441448 -1.207963,1.1928276 -0.621659,0.6486831 -1.142093,1.1834711 -1.15652,1.1884181 -0.01443,0.0049 -0.332082,-0.6845161 -0.7059,-1.532141 z" />
  <path d="m 27.954065,25.351316 c -0.600453,-0.358559 -1.110138,-0.670331 -1.132634,-0.692827 -0.02788,-0.02788 0.06836,-0.291076 0.302348,-0.826831 l 0.34325,-0.785928 -0.681917,-0.828094 c -0.605632,-0.735457 -0.708126,-0.881765 -0.9162,-1.30786 -0.216002,-0.442327 -0.412792,-0.95993 -0.518129,-1.362794 l -0.04272,-0.16338 -0.789833,-0.110092 c -0.434408,-0.06055 -0.830313,-0.119416 -0.879789,-0.130812 l -0.08996,-0.02072 v -1.328793 -1.328793 l 0.809604,-0.112457 c 0.902554,-0.125367 0.989261,-0.147157 0.990105,-0.248818 0.0013,-0.151276 0.33317,-1.049054 0.542765,-1.468094 0.32372,-0.647209 0.696518,-1.180417 1.162577,-1.662817 l 0.413226,-0.427715 -0.344247,-0.808598 c -0.189336,-0.444728 -0.328811,-0.823447 -0.309945,-0.841598 0.02986,-0.02873 1.964518,-1.1475877 2.201358,-1.2730997 0.08293,-0.043946 0.120048,-0.00437 0.635301,0.6772487 0.500444,0.662032 0.556149,0.722243 0.651566,0.704275 0.05739,-0.01081 0.507038,-0.07926 0.999228,-0.152131 l 0.894892,-0.132483 1.039341,0.147416 c 0.571637,0.08108 1.053998,0.138357 1.071912,0.127286 0.01792,-0.01107 0.260302,-0.334187 0.538638,-0.718034 0.472131,-0.6511037 0.511825,-0.6948669 0.591945,-0.6526233 0.06463,0.034079 2.260488,1.3076023 2.290603,1.3284753 0.0032,0.0022 -0.151855,0.372839 -0.344543,0.823619 l -0.350341,0.819599 0.126903,0.159922 c 0.0698,0.08796 0.363627,0.450504 0.652955,0.80566 l 0.526051,0.645739 0.396465,0.991868 c 0.335103,0.838351 0.411128,0.996321 0.491197,1.020637 0.0521,0.01582 0.450058,0.07794 0.884346,0.138034 l 0.789614,0.109265 v 1.328505 1.328505 l -0.08996,0.02072 c -0.04948,0.0114 -0.444531,0.07014 -0.877899,0.130545 l -0.787943,0.109823 -0.401657,1.003238 -0.401657,1.003237 -0.654029,0.803478 -0.654029,0.803478 0.314121,0.79574 c 0.172767,0.437657 0.307009,0.815093 0.298316,0.838747 -0.0124,0.03374 -2.132934,1.277614 -2.265452,1.32888 -0.01784,0.0069 -0.267258,-0.300335 -0.554254,-0.682751 l -0.521811,-0.695302 -1.049749,0.150747 -1.04975,0.150748 -0.93954,-0.138243 c -0.516748,-0.07603 -0.968276,-0.144577 -1.003397,-0.152319 -0.04348,-0.0096 -0.234828,0.213189 -0.599707,0.698207 -0.294717,0.391755 -0.553842,0.712284 -0.575831,0.712286 -0.02199,2e-6 -0.53126,-0.293362 -1.131713,-0.651921 z m 4.846394,-5.001231 c 0.753636,-0.159657 1.392578,-0.673232 1.740942,-1.399351 0.206117,-0.429624 0.261058,-0.68078 0.258003,-1.179423 -0.0047,-0.763416 -0.220752,-1.285871 -0.754176,-1.823555 -0.260175,-0.262254 -0.386725,-0.355159 -0.661551,-0.48567 -0.451203,-0.214269 -0.693242,-0.266159 -1.219404,-0.261424 -0.757821,0.0068 -1.290279,0.234696 -1.841253,0.788003 -0.240457,0.241476 -0.358799,0.39929 -0.467333,0.623212 -0.598228,1.234228 -0.156331,2.752938 0.999122,3.433782 0.248083,0.146182 0.644442,0.29628 0.889669,0.336911 0.235431,0.03901 0.800572,0.02162 1.055981,-0.03249 z" />
  <path d="m 28.115811,33.553153 c -0.0919,-0.115285 -3.810746,-6.196811 -3.797466,-6.210092 0.01706,-0.01706 9.03985,1.609724 9.179672,1.655074 0.08429,0.02734 -0.190612,0.271457 -2.578739,2.289953 -1.470199,1.242643 -2.69354,2.271782 -2.718535,2.286976 -0.025,0.01519 -0.06321,0.0053 -0.08493,-0.02191 z" />
  <path d="m 19.179665,35.763568 c -1.556265,-0.148226 -2.837933,-0.277863 -2.848151,-0.288082 -0.01022,-0.01022 1.30611,-1.409772 2.925175,-3.110119 l 2.943753,-3.091541 -0.02533,0.875502 c -0.01393,0.481526 -0.03487,1.838031 -0.04654,3.014456 -0.02138,2.156632 -0.04489,2.88248 -0.09308,2.87394 -0.01444,-0.0026 -1.299562,-0.125929 -2.855828,-0.274156 z" />
</svg>
