<svg id="Layer_1" data-name="Layer 1" xmlns="http://www.w3.org/2000/svg" viewBox="0 0 495 635">
  
  <g id="_1XuB3o.tif" data-name="1XuB3o.tif">
    <g>
      
      <path class="cls-1" d="m29.17,294.2c.63-2.07,1.74-4.06,1.76-6.05.13-17.83.07-35.66.07-53.5,0-73.95,0-147.91,0-221.86.74.27,1.49.55,2.23.82,1.86-2.53,3.68-5.1,5.6-7.59,1.04-1.35,2.27-2.56,3.41-3.84.47.34.95.68,1.42,1.02-.65,3.32-.56,7.04-2.08,9.89-6.7,12.59-1.74,23.61,5.19,33.49,5.36,7.65,12.21,14.61,19.53,20.47,29.07,23.3,58.17,46.56,84.31,73.22,10.37,10.57,20.24,21.55,25.61,35.89,3.87,10.33,3.82,20.5.75,30.8-2.05,6.85-4.39,13.62-6.77,20.37-5.43,15.36-5.67,30.92-2.3,46.72.87,4.06,1.49,8.21,1.83,12.35.36,4.43,2.09,6.01,6.82,5.99,39.25-.21,78.51-.12,117.76-.12,51.73,0,103.46,0,155.18-.02,3.96,0,8.09.59,10.71-3.63.34-.54,1.81-.66,2.69-.53,8.83,1.35,17.64,2.76,26.45,4.25,1.05.18,2,1,4,2.06-2.76,1-4.6,1.98-6.55,2.3-7.69,1.27-15.42,2.35-23.14,3.43-1.1.15-2.88.33-3.28-.25-3.55-5.13-8.82-3.83-13.65-3.83-89.98-.04-179.96-.02-269.95-.02-1.78,0-3.56,0-5.58,0-.22,1.77-.54,3.06-.51,4.34.64,27-2.2,53.56-10.05,79.48-4.81,15.87-2.67,31.29,3.21,46.37,1.93,4.94,4.31,9.77,7.06,14.29,4.83,7.96,6.82,16.64,6.98,25.72.31,17.27-3.68,33.06-18.99,43.24-8.82,5.86-18.36,10.73-27.85,15.49-15.13,7.6-30.88,14.05-45.64,22.29-15.75,8.79-29.78,20.07-39.82,35.56-4.82,7.45-8.09,15.38-6.9,24.44.58,4.42,1.9,8.74,2.68,13.14.19,1.07-.4,2.28-.64,3.43-.96-.64-2.16-1.09-2.85-1.94-5.69-7.08-6.43-15.3-6.12-24.08.33-9.27-.7-18.59-.67-27.88.19-57.96.66-115.92.74-173.88.04-32.12-.47-64.25-.86-96.37-.02-1.85-1.18-3.69-1.79-5.45Zm4.47,305.38c2.43-5.72,4.53-12.42,7.95-18.34,8.1-14,20.57-23.83,33.62-32.85,20.92-14.47,44.45-24.02,67.5-34.19,31.43-13.87,38.28-44.87,24.84-71.82-4.07-8.17-8.27-16.3-11.81-24.71-8.44-20.03-10.56-41.42-13.35-62.73-1.56-11.9-2.58-23.15,5.31-33.3,3.16-4.07,4.53-9.08,2.88-13.64-1.52-4.21-5.02-7.73-7.78-11.45-.36-.48-1.53-.52-2.31-.5-14.27.37-28.54.59-42.8,1.23-14.58.65-29.13,1.86-43.71,2.48-3.2.14-6.47-1.12-9.68-1.86-3.28-.75-6.53-1.64-10.65-2.69v304.36Zm109.06-307.2c.76-7.15,1.71-13.72,2.1-20.33.98-16.58,5.84-31.63,16.42-44.65,2.51-3.09,4.67-6.48,6.83-9.84,8.81-13.72,10.68-28.01,1.84-42.28-5.39-8.69-10.99-17.61-18.15-24.77-17.85-17.86-36.37-35.07-55.13-51.97-14.17-12.76-29.48-24.26-43.6-37.07-10.5-9.53-17.14-21.69-19.23-36.18v266.45c3.96.38,7.55,1.94,9.74-2.24,2.15-4.11,5.99-5.15,10-5.47,14.63-1.2,29.31-.89,43.09,4.51,15.08,5.91,30.47,2.7,46.09,3.83Z"/>
      
      
    </g>
  </g>
</svg>