<?xml version="1.0" encoding="UTF-8"?>
<svg id="Layer_1" data-name="Layer 1" xmlns="http://www.w3.org/2000/svg" viewBox="0 0 219.58 792">
  <defs>
    <style>
      .cls-1, .cls-2 {
        stroke-width: 0px;
      }

      .cls-2 {
        fill: #fff;
      }
    </style>
  </defs>
  <g id="Bom4Wt.tif">
    <g>
      <path class="cls-2" d="m219.58,792H0C0,528,0,264,0,0c73.19,0,146.38,0,219.58,0v792Zm-54.89-358.32c.08-.69-.11-1.92.4-2.67,1.15-1.7,2.69-3.12,3.97-4.74.47-.59.51-1.52.98-2.1.71-.88,1.63-1.6,2.47-2.39,1.1-1.04,2.36-1.95,3.26-3.13.96-1.27,2.97-.77,3.59-2.43.18-.48.46-1.03.85-1.29,1.25-.82,2.66-1.21,3.83-2.42,1.38-1.43,3.27-2.41,4.8-3.84,1.24-1.16,3.01-1.73,4.43-2.73,1.16-.82,2.21-1.82,3.18-2.86.97-1.04,1.57-2.77,2.72-3.23,1.63-.65,1.25-2.27,2.31-3.24,1.67-1.53,1.3-4.22,1.29-6.51-.01-2.44.17-4.91-1.17-7.12-.16-.27-.33-.54-.56-.75-.71-.64-1.49-1.2-2.15-1.88-1.05-1.09-1.87-2.48-3.08-3.32-1.33-.93-2.9-1.53-4-2.78-.31-.35-.38-1.1-.71-1.22-2.24-.78-2.47-2.52-2.47-4.54.03-15.71.01-31.43.03-47.14,0-.91.13-1.83.17-2.42,1.65-.57,3.08-1.55,4.37-1.38,2.2.28,3.76-1.09,5.33-1.84,1.99-.96,4.02-2.64,4.25-5.38.02-.22.41-.57.64-.58.2,0,.52.35.6.61.18.52.24,1.08.34,1.57,1.95-.37,3.71-.7,5.48-1.04.11-.02.29-.06.3-.13.44-1.66,1.85-1.11,2.87-1.14,1.4-.04,2.34-1.3,2.3-1.95-.14-2.16-.18-4.82-1.44-6.26-1.37-1.56-.57-3.58-2.19-5.04-1.09-.98-.91-3.36-1.3-5.11-.04-.17-.06-.47-.13-.49-1.63-.35-.99-1.73-1.24-2.7-.4-1.55-.76-3.11-1.16-4.66-.04-.14-.22-.24-.3-.38-.33-.51-.74-.99-.95-1.54-.62-1.64-1.15-3.32-1.74-4.97-.06-.17-.33-.27-.39-.32.29-.73.41-1.77.8-1.88,1.52-.43,2.22-1.68,3.07-2.73.42-.51.69-1.43.55-2.04-.24-1.02-.87-1.96-1.37-2.99-1.26-.19-2.7-.4-4.53-.67-.05.02-.78.53-1.01.36-1.55-1.14-2.16-2.71-1.75-4.19,1.41-1.37,2.54-2.47,3.83-3.73.08-1.2.08-2.47-1.13-3.82-.87-.98-1.43-1.86-2.83-1.84-1.62.03-3.24,0-4.87,0-.5-1.99-.92-3.78-1.4-5.55-.07-.27-.41-.47-.61-.71-.22-.27-.53-.53-.62-.84-.44-1.6-.39-3.6-1.36-4.71-.98-1.13-1.07-2.2-1.32-3.4-.02-.12-.28-.17-.38-.29-.29-.35-.69-.69-.81-1.1-.45-1.55-.79-3.14-1.22-4.7-.06-.21-.41-.32-.57-.52-.25-.32-.57-.64-.67-1.02-.44-1.57-.8-3.16-1.2-4.73-.04-.16-.14-.43-.22-.43-1.24-.05-1-1.02-1.16-1.77-.06-.29-.29-.55-.46-.8-.28-.41-.62-.79-.88-1.22-.27-.44-.54-.89-.7-1.37-.38-1.09-.65-2.1-1.57-3.05-.87-.9-.89-2.62-1.31-3.97-.06-.2-.21-.52-.34-.52-1.18-.05-.88-.98-1.05-1.66-.08-.3-.24-.59-.4-.85-.32-.51-.68-.99-.99-1.51-.16-.28-.14-.73-.36-.9-1.05-.79-.64-2.29-1.9-3.19-.91-.65-.9-2.58-1.32-3.94-.06-.2-.19-.39-.31-.57-.78-1.1-1.61-2.17-2.35-3.29-.35-.54-.61-1.15-.81-1.77-.34-1.08-.88-1.97-1.52-2.93-1.29-1.92-1.89-4.3-2.79-6.48-.08-.2-.26-.37-.38-.56-.64-.97-1.31-1.92-1.9-2.92-.67-1.11-1.26-2.27-1.91-3.39-.66-1.12-1.35-2.21-2.04-3.31-.16-.26-.35-.5-.52-.76-.61-.88-1.25-1.74-1.83-2.64-.25-.39-.3-.93-.6-1.26-.6-.66-1.53-1.1-1.91-1.84-.89-1.73-1.27-3.75-2.8-5.1-1.22-1.07-.79-3.11-2.41-3.95-.49-.25-1.07-.68-1.23-1.16-.63-1.92-1.48-3.69-2.68-5.32-.59-.8-.92-1.8-1.48-2.63-.73-1.07-1.58-2.06-2.37-3.1-.19-.25-.27-.58-.47-.83-.66-.83-1.26-1.73-2.05-2.42-1.11-.98-.89-2.83-2.41-3.5-.47-.21-1.07-.48-1.26-.88-.89-1.97-2.03-3.74-3.58-5.24-.44-.42-1.25-.82-1.26-1.26-.05-1.66-1.63-2.13-2.29-3.3-.46-.83-1.16-1.52-1.73-2.29-.72-.98-1.31-2.07-2.13-2.95-1.28-1.38-2.83-2.54-4.04-3.97-1.5-1.77-2.74-3.76-4.15-5.61-.83-1.09-1.74-2.11-2.65-3.13-1.2-1.33-2.46-2.61-3.64-3.95-.73-.83-.81-2.15-2.18-2.52-.59-.15-1.12-.74-1.55-1.24-1.03-1.21-2.02-2.45-2.93-3.73-.44-.63-.56-1.5-1.05-2.07-.71-.82-1.67-1.43-2.45-2.2-1.15-1.14-2.2-2.37-3.34-3.52-.92-.93-1.94-1.75-2.83-2.71-1-1.09-1.82-2.35-2.86-3.39-1.04-1.04-2.81-1.69-3.29-2.9-.97-2.44-3.12-3.74-4.55-5.69-1.19-1.61-2.93-2.81-4.44-4.18-.49-.45-1.08-.82-1.49-1.33-1.28-1.58-2.17-3.81-3.8-4.68-2.51-1.33-3.34-4.19-5.81-5.37-.34-.16-.38-.89-.71-1.18-.81-.73-2.05-.94-2.41-2.26-.16-.6-.71-1.14-1.19-1.61-1.62-1.59-3.32-3.1-4.93-4.7-1.34-1.33-2.6-2.74-3.89-4.12-.88-.94-1.74-1.9-2.63-2.83-1.09-1.14-2.2-2.25-3.3-3.37-.98-1-2.01-1.96-2.95-3-.98-1.09-1.66-2.64-2.85-3.3-2-1.11-2.36-3.26-3.17-4.86-.95-1.88-.3-4.43-1.19-6.68-.88-2.21.31-4.78-1.31-7.21-.83-1.25-.41-3.5-1.65-5.05-.61-.77-.67-2.06-1.37-2.68-1.26-1.12-2.83-1.89-4.23-2.86-.53-.37-.89-1.16-1.43-1.29-2.26-.54-4.57-1.23-6.86-1.23-2.19,0-4.63-.7-6.6,1.06-.53.47-1.08,1.17-1.69,1.25-1.55.2-2.18,1.49-3.17,2.34-.54.46-.83,1.18-1.29,1.74-.8.96-1.96,1.76-2.38,2.86-.66,1.69-.83,3.56-1.2,5.36-.09.46.04,1.21-.21,1.35-1.65.96-1.09,2.5-1.09,3.84-.02,248.39-.02,496.78.02,745.17,0,1.5-.91,3.42,1.18,4.45.09.04.04.33.08.5.36,1.59.65,3.2,1.12,4.76.18.6.88,1.02,1.21,1.59.68,1.18,1.21,2.44,1.91,3.6.2.33.77.44,1.18.64.25.12.72.14.75.29.6,2.52,3.78,1.4,4.72,3.4,2.44-1.21,4.72,3.22,7.23.2.1-.12.45-.02.68-.06,1.6-.22,3.27.26,4.63-1.37.95-1.14,2.83-1.54,3.72-2.7.72-.94,2.29-1.4,2.12-3.01-.02-.2.23-.48.43-.64,1.54-1.25,2.19-2.83,2.01-4.82-.05-.52.16-1.08.36-1.59.24-.61.76-1.16.85-1.77.48-3.39.86-6.8,1.27-10.2.02-.17.04-.47.12-.49,1.79-.47,1.23-2.38,2.02-3.5.8-1.14,1.71-2.04,2.67-2.98.98-.96,1.91-1.98,2.83-3,.98-1.09,1.85-2.29,2.89-3.31,1.04-1.02,2.33-1.8,3.35-2.84,1.58-1.6,3.01-3.35,4.54-4.99,1.06-1.14,2.21-2.2,3.31-3.31,1.12-1.13,2.22-2.27,3.33-3.41,1-1.01,2-2.02,3.01-3.02,1.48-1.47,3.02-2.89,4.44-4.42.81-.88,1.43-1.94,2.11-2.93.37-.53.6-1.24,1.09-1.61,1.96-1.49,3.76-3.13,5.23-5.11.39-.52.83-1.02,1.31-1.46,1.08-.99,2.27-1.87,3.27-2.93,1.01-1.06,1.74-2.39,2.78-3.42,1.54-1.52,3.29-2.82,4.86-4.31,1.55-1.48,3.02-3.05,4.44-4.65.53-.6.74-1.5,1.29-2.08.99-1.05,2.16-1.92,3.17-2.95.8-.81,1.46-1.76,2.19-2.64.55-.66,1.15-1.28,1.65-1.97.98-1.34,1.82-2.79,2.89-4.05,1.07-1.27,2.35-2.36,3.55-3.53,1.2-1.17,2.43-2.31,3.59-3.52.46-.48,1.01-1.06,1.09-1.66.27-1.97,2.06-2.89,3.15-4,1.83-1.86,3.78-3.51,4.9-5.94.08-.18.27-.33.42-.47,1.06-1.01,2.42-1.86,3.11-3.08.74-1.31,1.08-2.77,2.55-3.62.64-.37.99-1.23,1.48-1.87,1.09-1.43,2.27-2.81,3.24-4.32.64-.99,2.11-1.49,1.87-3.05-.02-.16.45-.38.66-.61,1-1.08,2.13-2.08,2.93-3.29,1.09-1.63,1.52-3.97,2.96-5.03,1.91-1.4,1.75-3.78,3.41-5.18.74-.62.62-2.44,1.36-2.84,1.53-.82,1.41-2.57,2.58-3.54.59-.49.77-1.47,1.13-2.23.12-.24.18-.53.34-.73,1.12-1.43,2.33-2.81,3.38-4.29.67-.95,1.11-2.05,1.66-3.08.42-.8.65-1.92,1.32-2.32,1.93-1.16,1.79-3.57,3.35-4.95.85-.75,1.28-1.99,1.85-3.03.41-.75.58-1.69,1.14-2.28,1.1-1.15,1.6-2.6,2.35-3.92.27-.48.5-.99.73-1.5.6-1.3,1.18-2.62,1.78-3.92.51-1.1,1-2.22,1.58-3.28.7-1.29,1.5-2.53,2.22-3.82.28-.49.41-1.06.69-1.55.56-.97,1.18-1.91,1.76-2.87.77-1.27.56-3.07,2.14-3.95.25-.14.25-.73.34-1.12.08-.34.07-.96.18-.98,1.87-.33,1.09-2.31,2.07-3.33.97-1,1.14-2.77,1.69-4.19.35-.9.55-2.26,1.2-2.55,1.14-.51,1.15-1.23,1.25-2.14.02-.21.31-.4.47-.6.27-.36.66-.69.78-1.09.46-1.56.83-3.14,1.24-4.71.04-.15.16-.4.25-.4,1.28-.09.88-1.11,1.07-1.83.37-1.41.4-3.16,1.28-4.11.82-.88,1.19-1.62,1.25-2.69,0-.09.11-.23.19-.26,1.26-.33.97-1.4,1.15-2.28.11-.56.57-1.05.67-1.61.24-1.36,1.25-2.39,1.6-3.6.6-2.06.91-4.09,2.56-5.76.86-.88,1.03-1.27,1.48.1.06.18.26.37.43.44,1.94.75,5.52-1.69,5.91-3.76.36-1.92-1.07-2.74-1.94-3.91-.5-.67-1.17-1.22-1.94-2.01-.12-3.53,0-3.65,3.45-3.39.35.03.73.03,1.04-.09,1.01-.37,2-.8,3.18-1.28.27-.55.79-1.33,1.06-2.19.79-2.5-1.26-3.85-2.68-5-.85-.68-1.23-1.17-1.22-2.07,0-.93-.15-2.46.3-2.69,1.56-.81,1.01-2.15,1.27-3.28.06-.27.11-.76.22-.78,1.43-.21.95-1.36,1.13-2.18.12-.55.19-1.13.39-1.66.66-1.73,1.46-3.41,2.03-5.16.51-1.58.78-3.23,1.19-4.85.04-.18.34-.28.44-.46.3-.57.68-1.13.82-1.74.21-.9-.19-1.98,1.09-2.47.24-.09.27-.84.34-1.29.09-.52-.08-1.24.2-1.53,1.64-1.66.71-3.54.82-5.37-2.3-.45-4.42-.86-6.53-1.29-.25-.05-.46-.27-.69-.41-.48-.28-.93-.68-1.45-.81-.72-.18-1.49-.16-2.36-.23.25-2.2-1.15-2.38-2.73-2.41-.42,0-.86-.18-1.26-.35-.69-.28-1.33-.8-2.03-.87-1.63-.15-3.27-.08-4.91-.14-.51-.02-1.03-.15-1.53-.28-.95-.23-1.92-.42-2.82-.77-.86-.34-1.68-1.28-2.47-1.23-2.1.13-3.26-1.62-5.01-2.1-.6-.17-1.17-.52-1.72-.85-1.13-.67-2.25-1.34-3.34-2.06-.97-.65-1.97-1.29-2.81-2.09-1.06-1-1.84-2.36-3.01-3.19-1.02-.72-1.82-1.36-2.09-2.63-.09-.43-.51-.82-.85-1.15-1.91-1.85-2.4-3.69-.47-4.79.96-.55,1.96-1.12,2.91-1.59,2.38-1.17,3.49-2.71,3.4-5.34-.11-3.28-.05-6.57-.11-9.85,0-.45-.18-1.07-.51-1.33-1.18-.93-2.39-1.88-3.73-2.56-1.31-.67-2.78-1.01-4.48-1.6Z"/>
      <path class="cls-1" d="m164.69,433.68c1.7.59,3.17.93,4.48,1.6,1.33.68,2.54,1.63,3.73,2.56.32.25.5.87.51,1.33.06,3.28,0,6.57.11,9.85.09,2.63-1.03,4.17-3.4,5.34-.95.47-1.95,1.04-2.91,1.59-1.92,1.09-1.44,2.94.47,4.79.34.33.76.73.85,1.15.27,1.26,1.08,1.9,2.09,2.63,1.17.83,1.95,2.18,3.01,3.19.84.8,1.84,1.44,2.81,2.09,1.09.73,2.21,1.4,3.34,2.06.55.32,1.11.68,1.72.85,1.75.48,2.91,2.23,5.01,2.1.79-.05,1.61.89,2.47,1.23.9.35,1.88.54,2.82.77.5.12,1.02.26,1.53.28,1.64.06,3.29-.02,4.91.14.7.07,1.34.59,2.03.87.4.16.84.34,1.26.35,1.58.02,2.98.2,2.73,2.41.87.07,1.64.05,2.36.23.52.13.97.53,1.45.81.23.14.44.36.69.41,2.11.44,4.23.84,6.53,1.29-.11,1.83.82,3.71-.82,5.37-.29.29-.12,1.02-.2,1.53-.07.45-.1,1.2-.34,1.29-1.28.49-.88,1.57-1.09,2.47-.14.61-.52,1.17-.82,1.74-.1.18-.4.28-.44.46-.41,1.61-.67,3.27-1.19,4.85-.57,1.75-1.37,3.43-2.03,5.16-.2.53-.27,1.1-.39,1.66-.18.82.3,1.98-1.13,2.18-.11.02-.15.51-.22.78-.26,1.13.3,2.47-1.27,3.28-.45.23-.29,1.75-.3,2.69,0,.9.37,1.39,1.22,2.07,1.42,1.15,3.47,2.5,2.68,5-.27.86-.79,1.64-1.06,2.19-1.18.48-2.16.91-3.18,1.28-.32.12-.7.12-1.04.09-3.45-.26-3.57-.14-3.45,3.39.77.79,1.44,1.34,1.94,2.01.87,1.17,2.3,1.99,1.94,3.91-.39,2.07-3.98,4.5-5.91,3.76-.18-.07-.38-.26-.43-.44-.45-1.38-.62-.98-1.48-.1-1.64,1.67-1.96,3.7-2.56,5.76-.35,1.21-1.37,2.23-1.6,3.6-.1.56-.55,1.05-.67,1.61-.18.88.11,1.95-1.15,2.28-.08.02-.19.16-.19.26-.06,1.07-.43,1.81-1.25,2.69-.88.95-.92,2.7-1.28,4.11-.19.72.2,1.74-1.07,1.83-.1,0-.21.25-.25.4-.41,1.57-.78,3.15-1.24,4.71-.12.41-.51.73-.78,1.09-.16.21-.45.39-.47.6-.09.91-.11,1.63-1.25,2.14-.65.29-.85,1.65-1.2,2.55-.55,1.42-.72,3.19-1.69,4.19-.98,1.01-.2,2.99-2.07,3.33-.11.02-.1.64-.18.98-.09.39-.09.99-.34,1.12-1.58.88-1.37,2.67-2.14,3.95-.58.96-1.2,1.89-1.76,2.87-.28.49-.42,1.06-.69,1.55-.72,1.28-1.52,2.52-2.22,3.82-.58,1.07-1.07,2.18-1.58,3.28-.6,1.3-1.18,2.61-1.78,3.92-.23.5-.46,1.01-.73,1.5-.74,1.33-1.25,2.77-2.35,3.92-.56.59-.73,1.53-1.14,2.28-.57,1.04-1,2.28-1.85,3.03-1.56,1.38-1.42,3.79-3.35,4.95-.66.4-.89,1.52-1.32,2.32-.55,1.03-.99,2.14-1.66,3.08-1.05,1.49-2.26,2.86-3.38,4.29-.16.21-.22.49-.34.73-.36.76-.55,1.74-1.13,2.23-1.16.97-1.04,2.72-2.58,3.54-.74.4-.62,2.21-1.36,2.84-1.66,1.4-1.5,3.78-3.41,5.18-1.44,1.05-1.87,3.39-2.96,5.03-.81,1.21-1.94,2.21-2.93,3.29-.21.23-.69.44-.66.61.24,1.56-1.23,2.06-1.87,3.05-.98,1.51-2.15,2.89-3.24,4.32-.48.64-.84,1.5-1.48,1.87-1.47.85-1.81,2.3-2.55,3.62-.69,1.22-2.05,2.07-3.11,3.08-.15.15-.34.29-.42.47-1.12,2.43-3.07,4.08-4.9,5.94-1.09,1.11-2.88,2.03-3.15,4-.08.6-.63,1.18-1.09,1.66-1.16,1.21-2.39,2.35-3.59,3.52-1.19,1.17-2.47,2.26-3.55,3.53-1.07,1.26-1.91,2.71-2.89,4.05-.51.69-1.1,1.31-1.65,1.97-.73.88-1.4,1.82-2.19,2.64-1.01,1.03-2.18,1.9-3.17,2.95-.55.58-.75,1.48-1.29,2.08-1.43,1.6-2.89,3.17-4.44,4.65-1.56,1.49-3.32,2.79-4.86,4.31-1.04,1.03-1.77,2.36-2.78,3.42-1,1.06-2.2,1.94-3.27,2.93-.48.44-.93.94-1.31,1.46-1.47,1.99-3.27,3.62-5.23,5.11-.49.37-.72,1.07-1.09,1.61-.69.99-1.3,2.05-2.11,2.93-1.41,1.53-2.96,2.95-4.44,4.42-1.01,1-2.01,2.01-3.01,3.02-1.12,1.13-2.21,2.28-3.33,3.41-1.1,1.11-2.24,2.17-3.31,3.31-1.54,1.64-2.96,3.39-4.54,4.99-1.03,1.04-2.31,1.82-3.35,2.84-1.04,1.02-1.92,2.22-2.89,3.31-.92,1.02-1.85,2.04-2.83,3-.96.94-1.87,1.84-2.67,2.98-.79,1.13-.23,3.04-2.02,3.5-.08.02-.1.32-.12.49-.42,3.4-.79,6.81-1.27,10.2-.09.62-.61,1.16-.85,1.77-.19.5-.4,1.07-.36,1.59.18,1.98-.46,3.57-2.01,4.82-.19.16-.45.44-.43.64.17,1.6-1.4,2.07-2.12,3.01-.89,1.17-2.77,1.56-3.72,2.7-1.35,1.63-3.03,1.15-4.63,1.37-.23.03-.58-.07-.68.06-2.51,3.02-4.79-1.41-7.23-.2-.94-2-4.13-.88-4.72-3.4-.03-.15-.5-.17-.75-.29-.41-.19-.98-.3-1.18-.64-.7-1.16-1.24-2.42-1.91-3.6-.33-.58-1.03-.99-1.21-1.59-.48-1.55-.76-3.17-1.12-4.76-.04-.17,0-.46-.08-.5-2.09-1.03-1.18-2.95-1.18-4.45-.04-248.39-.04-496.78-.02-745.17,0-1.34-.56-2.88,1.09-3.84.24-.14.11-.89.21-1.35.36-1.8.54-3.68,1.2-5.36.43-1.1,1.59-1.9,2.38-2.86.46-.56.75-1.29,1.29-1.74.99-.84,1.62-2.13,3.17-2.34.61-.08,1.16-.77,1.69-1.25,1.97-1.76,4.41-1.06,6.6-1.06,2.29,0,4.6.69,6.86,1.23.55.13.9.92,1.43,1.29,1.4.97,2.97,1.74,4.23,2.86.7.62.75,1.91,1.37,2.68,1.24,1.55.82,3.8,1.65,5.05,1.62,2.43.43,5,1.31,7.21.9,2.25.24,4.8,1.19,6.68.81,1.6,1.17,3.74,3.17,4.86,1.19.66,1.87,2.21,2.85,3.3.94,1.04,1.96,2,2.95,3,1.1,1.12,2.21,2.24,3.3,3.37.89.93,1.75,1.89,2.63,2.83,1.29,1.38,2.55,2.79,3.89,4.12,1.61,1.6,3.31,3.11,4.93,4.7.48.47,1.02,1.01,1.19,1.61.36,1.32,1.59,1.53,2.41,2.26.33.3.37,1.02.71,1.18,2.47,1.18,3.31,4.04,5.81,5.37,1.63.86,2.53,3.1,3.8,4.68.41.51,1,.88,1.49,1.33,1.5,1.37,3.25,2.57,4.44,4.18,1.44,1.95,3.58,3.25,4.55,5.69.48,1.21,2.25,1.85,3.29,2.9,1.04,1.04,1.86,2.3,2.86,3.39.88.96,1.91,1.78,2.83,2.71,1.14,1.15,2.19,2.38,3.34,3.52.78.77,1.74,1.38,2.45,2.2.49.57.61,1.45,1.05,2.07.92,1.29,1.91,2.53,2.93,3.73.43.5.96,1.09,1.55,1.24,1.38.36,1.45,1.69,2.18,2.52,1.19,1.34,2.45,2.62,3.64,3.95.91,1.02,1.83,2.04,2.65,3.13,1.41,1.85,2.66,3.83,4.15,5.61,1.21,1.44,2.76,2.59,4.04,3.97.82.88,1.41,1.97,2.13,2.95.57.77,1.27,1.46,1.73,2.29.65,1.17,2.23,1.64,2.29,3.3.01.43.83.83,1.26,1.26,1.55,1.5,2.69,3.27,3.58,5.24.18.41.79.68,1.26.88,1.53.68,1.3,2.52,2.41,3.5.78.69,1.39,1.59,2.05,2.42.2.24.28.58.47.83.78,1.04,1.64,2.03,2.37,3.1.56.83.89,1.82,1.48,2.63,1.2,1.63,2.05,3.4,2.68,5.32.15.47.74.91,1.23,1.16,1.62.84,1.19,2.87,2.41,3.95,1.54,1.35,1.91,3.37,2.8,5.1.38.74,1.32,1.18,1.91,1.84.3.33.35.87.6,1.26.58.9,1.22,1.76,1.83,2.64.18.25.36.5.52.76.68,1.1,1.38,2.19,2.04,3.31.66,1.12,1.25,2.28,1.91,3.39.6.99,1.26,1.95,1.9,2.92.12.19.3.35.38.56.9,2.18,1.5,4.57,2.79,6.48.65.96,1.18,1.85,1.52,2.93.19.61.46,1.23.81,1.77.74,1.13,1.57,2.2,2.35,3.29.13.18.25.37.31.57.42,1.36.41,3.29,1.32,3.94,1.26.91.86,2.41,1.9,3.19.22.16.2.62.36.9.3.52.67,1,.99,1.51.17.27.33.55.4.85.17.67-.13,1.6,1.05,1.66.12,0,.28.32.34.52.41,1.35.44,3.06,1.31,3.97.92.96,1.19,1.96,1.57,3.05.17.48.43.93.7,1.37.26.42.6.8.88,1.22.18.25.4.51.46.8.16.75-.08,1.72,1.16,1.77.08,0,.18.27.22.43.4,1.58.77,3.17,1.2,4.73.1.37.42.7.67,1.02.16.2.51.31.57.52.43,1.56.77,3.15,1.22,4.7.12.41.52.75.81,1.1.1.12.36.17.38.29.25,1.2.34,2.28,1.32,3.4.97,1.11.91,3.11,1.36,4.71.09.31.4.57.62.84.2.24.53.44.61.71.48,1.77.9,3.55,1.4,5.55,1.63,0,3.25.02,4.87,0,1.4-.02,1.95.86,2.83,1.84,1.21,1.35,1.21,2.62,1.13,3.82-1.3,1.26-2.42,2.35-3.83,3.73-.42,1.48.2,3.05,1.75,4.19.23.17.96-.34,1.01-.36,1.83.27,3.27.49,4.53.67.5,1.03,1.13,1.96,1.37,2.99.15.62-.13,1.53-.55,2.04-.85,1.05-1.55,2.3-3.07,2.73-.38.11-.51,1.14-.8,1.88.06.05.33.15.39.32.59,1.65,1.12,3.33,1.74,4.97.21.56.63,1.04.95,1.54.09.14.27.24.3.38.4,1.55.76,3.11,1.16,4.66.25.97-.39,2.35,1.24,2.7.07.02.09.32.13.49.39,1.75.22,4.13,1.3,5.11,1.62,1.46.82,3.48,2.19,5.04,1.26,1.44,1.3,4.11,1.44,6.26.04.65-.9,1.91-2.3,1.95-1.03.03-2.43-.51-2.87,1.14-.02.07-.19.11-.3.13-1.76.34-3.53.67-5.48,1.04-.1-.49-.16-1.05-.34-1.57-.09-.26-.4-.61-.6-.61-.23,0-.62.35-.64.58-.23,2.74-2.26,4.42-4.25,5.38-1.57.76-3.13,2.12-5.33,1.84-1.28-.16-2.71.82-4.37,1.38-.04.59-.17,1.51-.17,2.42-.01,15.72,0,31.43-.03,47.14,0,2.02.22,3.75,2.47,4.54.34.12.4.87.71,1.22,1.11,1.25,2.68,1.85,4,2.78,1.21.85,2.03,2.23,3.08,3.32.66.68,1.45,1.24,2.15,1.88.23.21.4.48.56.75,1.33,2.22,1.15,4.69,1.17,7.12.01,2.29.38,4.97-1.29,6.51-1.06.97-.68,2.59-2.31,3.24-1.15.46-1.74,2.19-2.72,3.23-.97,1.04-2.02,2.05-3.18,2.86-1.42,1-3.19,1.56-4.43,2.73-1.52,1.43-3.42,2.41-4.8,3.84-1.17,1.21-2.58,1.6-3.83,2.42-.4.26-.68.81-.85,1.29-.62,1.66-2.63,1.17-3.59,2.43-.9,1.19-2.16,2.1-3.26,3.13-.83.79-1.75,1.5-2.47,2.39-.47.58-.51,1.51-.98,2.1-1.28,1.62-2.83,3.04-3.97,4.74-.51.75-.31,1.99-.4,2.67ZM43.67,51.91c-.15.09-.3.18-.45.27.39,2.8.78,5.6,1.18,8.4.01.09.12.23.2.24,1.19.2.91,1.17,1.01,1.93.4,3.29.8,6.57,1.2,9.86.02.17,0,.45.09.5,1.94,1,.91,2.84,1.24,4.29.12.52.28,1.03.49,1.52.23.54.7,1.02.78,1.56.46,3.4.83,6.81,1.24,10.22.03.22.08.62.18.64,1.64.29.99,1.59,1.11,2.51.14,1.1-.26,2.54.31,3.27,1.81,2.33-.26,5.46,2.03,7.8.99,1.01.24,3.16,1.24,4.95,1.22,2.18.94,5.18,1.39,7.81.26,1.51-.81,3.42,1.25,4.44.09.04.05.33.08.5.37,2,.14,3.92,1.19,6.03,1.27,2.53.97,5.84,1.36,8.8.1.73.18,1.48.4,2.17.24.76.81,1.44.93,2.2.48,3.07.83,6.16,1.24,9.24.02.12,0,.28.08.34,1.91,1.68.91,4,1.34,6.01.08.37.24.73.41,1.08.26.54.74,1.04.82,1.61.45,2.96.8,5.93,1.2,8.89.04.27.23.51.35.76.31.66.8,1.29.91,1.98.46,3.03.81,6.08,1.2,9.12.02.17.03.46.12.49,1.86.74.92,2.39,1.17,3.64.17.85-.09,2.31.31,2.5,1.68.8.92,2.19,1.1,3.32.42,2.59.78,5.18,1.17,7.77.02.16.06.42.17.47,1.43.64.96,1.97,1.11,3.07.4,2.92.79,5.85,1.19,8.77.02.12.02.28.09.33,1.9,1.33.89,3.4,1.29,5.1.13.54.26,1.09.47,1.6.23.56.7,1.07.78,1.64.47,3.09.83,6.19,1.27,9.29.04.3.32.57.46.87.27.59.65,1.17.74,1.8.43,2.97.77,5.95,1.18,8.92.04.26.39.48.56.74.24.36.57.72.64,1.12.35,2.03.33,3.98,1.2,6.07,1.18,2.84,1.01,6.23,1.43,9.39.08.62.04,1.58.4,1.8,1.04.61.85,1.51.97,2.4.38,2.95.79,5.89,1.19,8.83.02.17.03.44.12.49,1.63.77.98,2.28,1.14,3.51.13.98-.15,2.51.37,2.84,1.13.71.96,1.6,1.02,2.52.09,1.37-.25,2.99,1.97,2.91.12,0,.36.19.36.3.02,1.24.95.96,1.64.96,15.46-.02,30.91-.05,46.37-.08.46,0,1.25.02,1.33-.18.61-1.64,2.01-.91,3.08-1.15,1.76-.4,3.51-.8,5.26-1.22.2-.05.39-.22.56-.36.76-.58,1.47-1.59,2.28-1.69,2.39-.29,2.6-2.71,4.09-3.87.96-.75,1.1-2.51,2.56-3.17.57-.26,1.18-.8,1.41-1.37.53-1.31.84-2.7,1.25-4.06.06-.22.13-.59.24-.61,1.78-.27,1.29-2.21,2.25-3.22,1.09-1.15,1.39-3.19,2.5-4.76,1.09-1.54,1.25-3.66,2.44-5.4.55-.81.92-2.23,1.8-2.37,2.22-.35,4.51-.25,6.78-.32.04,0,.11.07.12.12.23,1.07.92,1.87,1.42,2.77.88,1.59,1,3.6,1.44,5.49.77.39,1.55.78,2.78,1.39-.25-1.15-.27-2.28-.55-2.35-1.09-.28-.89-1.05-1.01-1.75-.06-.32-.17-.89-.3-.9-1.31-.1-.86-1.13-1.06-1.83-.19-.7-.38-1.42-.72-2.06-.57-1.06-.21-2.37-1.5-3.35-.85-.65-1.03-2.41-1.19-3.71-.23-1.82-1.87-3.02-1.87-5.02,0-.53-.96-1.63-1.16-2.69-.19-.99-.42-2.43-1.1-2.79-2.13-1.1-.8-3.41-2.07-4.94-.77-.93-2.29-2.34-1.74-4.18.01-.04-.3-.13-.39-.25-.32-.4-.62-.8-.89-1.23-.27-.43-.55-.86-.73-1.33-.4-1.08-.56-2.14-1.53-3.09-.82-.8-.87-2.39-1.3-3.62-.08-.22-.34-.38-.49-.58-.27-.36-.59-.7-.77-1.1-.63-1.37-1.23-2.76-1.82-4.15-.34-.79-.51-1.69-.96-2.4-.71-1.11-1.78-2.02-2.37-3.18-.62-1.22-.85-2.64-1.27-3.97-.08-.25-.24-.47-.38-.7-.33-.53-.73-1.02-1-1.58-.55-1.12-.97-2.3-1.57-3.39-.66-1.21-1.83-2.26-2.11-3.53-.55-2.46-2.45-4.13-3.21-6.39-.44-1.3-2.22-1.79-2.02-3.47.02-.14-.28-.3-.4-.47-.66-.95-1.32-1.89-1.95-2.86-.22-.34-.34-.75-.56-1.09-.27-.42-.62-.79-.9-1.21-.26-.39-.51-.8-.7-1.22-.51-1.13-2.12-1.64-1.79-3.25.03-.16-.31-.39-.46-.6-1.09-1.56-2.19-3.11-3.25-4.69-.35-.52-.53-1.17-.9-1.67-.42-.57-1.44-1.11-1.38-1.56.23-1.82-1.49-2.56-1.94-4.03-.47-1.55-2.03-2.55-2.55-4.37-.43-1.49-2.28-2.52-3.32-3.89-1.43-1.88-2.67-3.89-4.01-5.84-.29-.42-.9-.79-.93-1.21-.14-2.11-2.34-2.76-3.02-4.54-.43-1.13-1.59-1.98-2.34-3.01-1.01-1.39-1.88-2.87-2.91-4.24-.47-.62-1.21-1.03-1.75-1.61-.59-.63-1.26-1.28-1.58-2.05-1-2.42-2.87-4.04-4.76-5.67-.54-.47-1.07-.97-1.55-1.5-.94-1.06-1.07-2.51-2.42-3.52-1.72-1.29-2.89-3.34-4.24-5.11-.52-.68-.75-1.61-1.33-2.22-1.01-1.06-2.31-1.86-3.26-2.96-1.09-1.27-1.85-2.81-2.9-4.12-1.12-1.4-2.38-2.68-3.63-3.97-.35-.36-.96-.48-1.3-.85-.97-1.1-1.78-2.34-2.81-3.38-1.04-1.04-2.4-1.77-3.36-2.87-1.5-1.73-2.73-3.7-4.18-5.48-1-1.22-2.18-2.29-3.27-3.43-1-1.05-1.97-2.14-2.99-3.18-1.09-1.13-2.32-2.15-3.3-3.37-1.13-1.4-2.91-2.27-3.41-4.21-.14-.55-.58-1.07-1-1.49-1.76-1.72-3.57-3.38-5.34-5.09-.44-.42-.71-1.03-1.16-1.43-1.52-1.34-3.25-2.49-4.59-3.99-.8-.89-1.17-2.09-2.42-2.68-.66-.31-1.04-1.18-1.59-1.76-.99-1.04-2.01-2.06-3.02-3.08Zm49.29,456.97c-.57,2.43-1.16,4.57-1.54,6.74-.33,1.89,0,3.75-1.24,5.65-1.07,1.65-.28,4.01-1.38,6.19-1.27,2.53-.96,5.86-1.36,8.83-.07.54-.25,1.09-.47,1.59-.23.52-.72.97-.82,1.5-.34,1.82-.03,3.64-.95,5.51-.81,1.66-.12,3.77-1.35,5.72-1.04,1.66,0,4.13-1.44,6.21-.93,1.36-.25,3.59-1.07,5.44-.79,1.78-.11,3.87-1.29,5.89-1.11,1.9-.93,4.56-1.34,6.88-.27,1.48.64,3.28-1.21,4.36-.21.13-.14.77-.17,1.18-.06,1.11-.07,2.23-.16,3.34-.03.37-.19.75-.35,1.09-.28.6-.8,1.15-.9,1.78-.46,2.93-.81,5.88-1.21,8.82-.03.22-.08.58-.21.63-1.37.5-.96,1.7-1.09,2.68-.38,2.85-.75,5.71-1.12,8.56-.02.12,0,.31-.07.33-2.08.93-.96,2.83-1.29,4.28-.17.71-.23,1.45-.47,2.14-.22.64-.77,1.19-.87,1.84-.46,2.92-.8,5.86-1.2,8.79-.03.22-.13.43-.22.64-.35.85-.84,1.66-1.05,2.55-.34,1.43-.06,2.86-.87,4.39-.87,1.66-.15,3.83-1.37,5.82-1.03,1.68-.37,4.08-1.38,6.26-1.19,2.58-.95,5.83-1.36,8.78-.13.89-.34,1.78-.6,2.65-.18.59-.66,1.11-.75,1.7-.43,2.78-.77,5.57-1.14,8.36,0,.06,0,.15-.04.17-2.05,1.33-1.02,3.46-1.36,5.23-.08.44-.12,1.19-.32,1.24-1.15.3-.91,1.17-1,1.95-.2,1.73,0,3.42-.86,5.17-.93,1.9.23,4.32-1.47,6.4-.94,1.16.58,3.61-1.42,4.84-.06.04-.02.22-.04.34-.41,3.35-.81,6.71-1.24,10.06-.06.45-.15,1.19-.39,1.26-1.23.39-.84,1.38-.94,2.17-.4,3-.78,6.01-1.17,9.01-.02.12,0,.31-.05.34-2.06.92-.91,2.8-1.28,4.23-.1.37-.15,1.03-.32,1.07-1.23.23-.88,1.18-.98,1.93-.41,3.24-.81,6.48-1.22,9.71-.03.23-.09.58-.23.64-1.36.57-.91,1.79-1.09,2.81-.21,1.2-.59,2.37-.83,3.57-.11.57-.07,1.17-.1,1.76.15.04.31.08.46.12.28-.46.48-1.01.87-1.37,1.11-1.02,2.37-1.89,3.43-2.96,1.02-1.04,1.77-2.36,2.81-3.38,1.57-1.55,3.57-2.74,4.85-4.48,1.54-2.08,4-3.2,5.19-5.69.73-1.53,2.51-2.53,3.74-3.84,1.51-1.63,2.93-3.33,4.38-5.01.4-.46.69-1.02,1.13-1.42,1.49-1.37,3.15-2.58,4.51-4.06.77-.85,1.09-2.03,2.31-2.62.68-.33,1.08-1.21,1.61-1.85,1.16-1.41,2.29-2.85,3.5-4.22,1-1.14,2.1-2.21,3.15-3.31,1.08-1.13,2.15-2.27,3.24-3.4.97-1.01,2.15-1.89,2.89-3.05,1.34-2.1,2.98-3.88,4.78-5.56.55-.51,1.01-1.12,1.44-1.74.96-1.38,1.75-2.9,2.84-4.17,1.35-1.57,2.97-2.89,4.38-4.41.43-.47.41-1.34.82-1.84.66-.82,1.57-1.45,2.26-2.25,1.24-1.43,2.38-2.96,3.61-4.4.84-.98,2.08-1.74,2.62-2.85.8-1.64,3.06-2.38,2.81-4.63,0-.03.23-.06.3-.13,1.1-1.26,2.3-2.44,3.25-3.8,1.09-1.56,1.81-3.4,2.96-4.91,1.2-1.57,2.99-2.67,3.53-4.77.16-.62.67-1.18,1.1-1.7.84-1,1.87-1.86,2.58-2.94,1.02-1.55,1.83-3.24,2.7-4.89.39-.73.59-1.58,1.07-2.24.77-1.05,1.86-1.9,2.53-3,1.1-1.78,1.79-3.83,3-5.53,1.09-1.54,1.66-3.46,3.32-4.62.44-.31.92-.93.93-1.42.04-1.92,1.66-2.95,2.39-4.47.81-1.68,2.07-3.13,3.06-4.73.51-.82.64-2.14,1.33-2.52.85-.47,1.09-.94,1.21-1.76.06-.42.37-.8.59-1.19.58-1.02,1.21-2.02,1.75-3.06.74-1.43,1.46-2.88,2.1-4.36.53-1.21.91-2.41,1.68-3.58,1.24-1.88,1.87-4.18,2.76-6.29.04-.1.14-.2.24-.24,1.6-.7,1.16-2.5,1.95-3.67.8-1.19,1.17-2.68,1.74-4.03.02-.05.08-.11.13-.11,1.17.02.94-.9,1.11-1.59.08-.35.28-.69.5-.97.73-.93.6-2.2,1.72-3.14.9-.76.89-2.6,1.29-3.95.06-.21.15-.42.28-.6.78-1.04,1.8-1.98,2.32-3.13.65-1.44.89-3.07,1.31-4.61.07-.28.08-.69.26-.8,1.6-.91,1.22-2.77,1.97-4.1.81-1.44,1.14-3.16,1.68-4.76.03-.09.18-.14.24-.23.35-.56.76-1.09,1-1.69.21-.53.18-1.15.35-1.7.29-.92.66-1.81,1.1-2.99h-7.66c-.09-.45-.06-.86-.25-1.1-.81-1.02-1.84-1.91-2.5-3.02-.59-1-.77-2.24-1.22-3.34-.2-.5-.64-.9-.94-1.37-.17-.26-.33-.54-.42-.84-.41-1.36-.79-2.72-1.2-4.08-.04-.14-.25-.21-.34-.34-.77-1.11-1.67-2.16-2.25-3.36-.82-1.72-.94-3.8-2.58-5.1-.41-.32-1-.47-1.3-.86-1.27-1.62-2.43-3.33-3.69-4.96-.29-.38-.8-.61-1.26-.82-.41-.19-1.12-.15-1.26-.43-.76-1.53-2.16-1.7-3.57-2.23-1.6-.6-3.08-1.49-4.86-1.5-.1,0-.25-.11-.28-.19-.33-1.33-1.42-.96-2.27-.96-15.75-.04-31.5-.06-47.25-.08-.81,0-1.62.12-2.24.17ZM15.23,682.87c-.35,3.37-.81,7.4-1.16,11.44-.14,1.57-.05,3.16-.08,4.75,0,.4.01,1.09-.17,1.16-1.63.64-.91,2.02-1.08,3.12-.63,4.12,1.01,8.49-1.42,12.4-.08.13-.04.34-.05.52-.32,3.63.21,7.24-.85,10.92-1.13,3.97.83,8.46-1.47,12.41-.06,5.55-.34,11.08-1.14,16.58-.28,1.9-.13,3.86-.11,5.8,0,.3.35.59.54.88.19-.23.37-.47.57-.7.23-.26.43-.58.71-.74.97-.55,2.2-.82,2.91-1.59,1.25-1.36,2.45-2.43,4.44-2.33,2.16.1,4.33,0,6.49.07.78.02,1.84-.38,2.05.99.02.12.85.33,1.04.18.95-.78,1.89-1.6,2.7-2.53.96-1.11,1.62-2.53,2.7-3.48,1.53-1.34,2.82-2.77,3.84-4.55.7-1.21,1.74-2.36,2.9-3.14,1.23-.82,1.94-1.67,1.86-3.15-.03-.52-.16-1.38.09-1.53,2.06-1.21.92-3.2,1.3-4.81.09-.36.27-.69.43-1.02.26-.53.71-1.02.79-1.57.48-3.29.88-6.59,1.3-9.89.03-.23,0-.61.12-.66,1.69-.82,1-2.4,1.18-3.68.11-.81-.21-1.95.23-2.4,1.78-1.83.17-4.44,1.95-6.52,1.17-1.37.11-4.14,1.45-6.26.93-1.48.23-3.71,1.09-5.62.82-1.82.32-3.96,1.31-6.08,1.22-2.61.99-5.89,1.39-8.88.06-.45,0-1.25.19-1.31,1.41-.49,1-1.68,1.17-2.65.24-1.44-.63-3.2,1.23-4.18.12-.06.06-.44.09-.67.34-1.98-.11-4,.99-5.99.84-1.52,0-3.5,1.27-5.37,1.11-1.64.07-4.28,1.51-6.4.86-1.27.29-3.29,1.01-5.02.79-1.89.21-4.12,1.35-6.24.97-1.81.21-4.33,1.24-6.46.7-1.46-.67-3.6,1.36-4.78.09-.05.04-.34.07-.51.36-1.98.06-3.89,1.2-5.98,1.26-2.32.96-5.48,1.35-8.27.1-.73.19-1.48.41-2.17.24-.74.82-1.4.94-2.15.45-2.87.78-5.76,1.16-8.64.02-.17.05-.47.13-.49,1.79-.48.94-1.98,1.2-3.04.33-1.4-.7-3.19,1.2-4.18.19-.1.14-.66.18-1,.4-3,.8-6,1.19-9,.02-.17-.01-.43.09-.5,1.71-1.28,1.04-3.18,1.25-4.84.06-.46-.13-1.12.12-1.37,1.8-1.88.34-4.61,2.02-6.72,1.13-1.42.25-3.75,1.36-5.82,1.28-2.4,1-5.63,1.38-8.51.09-.69-.13-1.77.24-2.03,1.53-1.08.97-2.61,1.16-3.99.38-2.69.8-5.38,1.2-8.06.02-.11.02-.29.09-.33,1.75-.93.95-2.62,1.19-4,.09-.49.19-.99.38-1.44.26-.6.81-1.13.9-1.74.47-3.1.82-6.21,1.22-9.32.03-.21.15-.41.23-.62.36-.9.9-1.78,1.05-2.72.49-3.02.83-6.05,1.24-9.08.02-.17.03-.4.14-.49,2.04-1.61.83-3.85,1.09-5.79.03-.23-.3-.56-.54-.75-.1-.08-.49.04-.6.19-1.17,1.59-3.03,2.06-4.68,2-4.9-.18-9.87.89-14.72-.87-1.22-.44-2.32-.36-2.31-2.09,0-1.12-1.6-1.85-2.43-1.62-1.48.41-3.2,1.04-4.55.64-2.63-.78-5.1-2.17-7.59-3.39-.46-.23-.73-1.19-1.1-1.2-1.64-.03-2.14-1.59-3.3-2.24-.86-.48-1.59-1.17-2.39-1.76-1.31-.97-2.7-1.83-3.91-2.91-1.1-.99-1.94-2.24-2.98-3.3-1.1-1.12-2.29-2.13-3.44-3.2-.22-.21-.43-.43-.65-.65-.18.31-.51.62-.53.95-.1,1.64-.03,3.28-.17,4.91-.29,3.41-.54,6.83-1.05,10.2-.36,2.38,1.14,5.11-1.27,7.13-.06.05-.02.23-.03.34-.24,4.16.12,8.32-.87,12.48-.63,2.68-.17,5.6-.36,8.41-.09,1.34.82,3.07-1.14,3.93-.11.05-.07.44-.1.67-.6,3.83,1.12,7.93-1.36,11.54-.23,5.2.15,10.42-1.09,15.58-.43,1.78-.02,3.74-.16,5.61-.09,1.23.76,2.85-1.11,3.57-.11.04-.12.43-.12.66-.09,4.39-.19,8.76-.91,13.13-.53,3.21-.23,6.55-.33,9.82-.01.44-.1.9-.25,1.32-.31.86-.91,1.67-.98,2.54-.17,2.04-.03,4.1-.13,6.15-.06,1.2.66,2.72-1.09,3.44-.14.06-.14.54-.15.83-.4,6.29-.8,12.58-1.17,18.87-.08,1.34,0,2.7-.06,4.04-.02.41-.23.82-.41,1.2-.26.58-.74,1.11-.83,1.7-.57,3.96.02,7.9-1.07,11.99-1.32,4.93-.23,10.38-1.41,15.53-.7,3.08,1.04,6.51-1.31,9.39-.12.14-.04.46-.04.69,0,1.87,0,3.75,0,6.31Zm73.29-401.98c0-1.38.1-2.15-.02-2.87-.27-1.58-.64-3.14-.99-4.71-.28-1.23.65-2.86-1.19-3.59-.14-.06-.12-.54-.15-.83-.2-2.04-.01-4.06-.95-6.1-.84-1.8.19-4.01-1.34-6.05-.95-1.26-.68-3.51-1.32-5.36-1.05-3.02-.99-6.42-1.41-9.66-.07-.56-.09-1.51-.35-1.6-1.23-.39-.89-1.36-.99-2.16-.4-3.16-.78-6.33-1.18-9.49-.04-.28-.14-.7-.33-.78-1.28-.51-.88-1.61-.97-2.53-.12-1.22.25-2.96-.41-3.55-1.23-1.09-.85-2.25-1.03-3.43-.39-2.67-.79-5.34-1.2-8.01-.03-.22-.17-.42-.25-.63-.33-.85-.79-1.68-.95-2.57-.2-1.15.31-2.77-.3-3.42-1.76-1.88-.17-4.42-1.89-6.53-1.2-1.47-.24-4.37-1.49-6.61-.92-1.64-.15-3.89-1.09-5.9-.85-1.82-.14-4.02-1.33-6.15-1.19-2.14-.93-5.08-1.32-7.66-.19-1.28.49-2.82-1.16-3.7-.24-.13-.19-.87-.22-1.34-.06-1.11-.06-2.23-.14-3.34-.03-.37-.19-.74-.36-1.08-.27-.54-.78-1.02-.87-1.58-.46-2.99-.82-6.01-1.23-9.01-.04-.27-.2-.51-.3-.77-.33-.8-.82-1.58-.95-2.42-.47-3.07-.81-6.16-1.23-9.24-.04-.27-.25-.51-.37-.77-.3-.62-.71-1.22-.87-1.88-.41-1.67.73-3.76-1.35-5-.09-.05-.04-.33-.06-.51-.16-1.78-.05-3.49-.88-5.28-.87-1.88.07-4.19-1.38-6.32-1.1-1.61.1-4.11-1.42-6.22-.95-1.32-.28-3.68-1.1-5.56-.77-1.77,0-3.81-1.27-5.83-1.19-1.9-.93-4.7-1.34-7.09-.31-1.84.28-3.66-1.19-5.53-1.05-1.33-.64-3.68-1.35-5.64-1.14-3.15-1.02-6.75-1.46-10.16-.05-.42-.24-.84-.42-1.24-.25-.55-.73-1.05-.82-1.62-.46-2.99-.82-5.99-1.22-8.98-.02-.12.02-.29-.05-.34-1.95-1.55-.99-3.76-1.32-5.68-.08-.45-.1-1.25-.27-1.28-1.45-.28-.91-1.39-1.03-2.23-.14-.94.05-2.15-.47-2.78-1.27-1.55-2.88-2.81-4.31-4.23-.57-.56-1.02-1.24-1.52-1.88-1.11-1.4-2.17-2.85-3.32-4.21-1.11-1.31-2.32-2.53-3.56-3.86-1.74-.04-1.73-.02-3.56,1.07-.33.19-.79.21-1.19.21-2.3.02-4.5.3-6.78-1.05-1.84-1.09-4.14-1.42-5.64-3.23-.32-.38-.88-.56-1.27-.9-.31-.28-.52-.68-.77-1.02-.14.45-.45.92-.39,1.35.46,3.61-.21,7.22.85,10.92,1.18,4.13-.73,8.8,1.51,12.95-.16,5.66.67,11.24,1.18,16.85.14,1.57.05,3.16.08,4.75,0,.41-.04,1.1.14,1.17,1.69.72,1,2.18,1.08,3.35.13,1.87-.1,3.78.18,5.62.34,2.28-1.02,4.9,1.28,6.81.06.05.02.23.02.34.05,4.56,0,9.12,1,13.63.83,3.79-1.07,7.94,1.42,11.56.06.08.01.23.02.35.37,5.04.75,10.08,1.08,15.12.1,1.58.02,3.17.07,4.75.03,1.05-.23,2.38.3,3.1,1.47,1.97.78,4.15,1.1,6.22.39,2.48-1.09,5.3,1.26,7.45.06.06.02.23.03.34.33,4.12-.08,8.24.88,12.4.77,3.35.29,7,.38,10.51,0,.41-.07,1.06.13,1.18,1.69.97,1.06,2.57,1.13,3.94.11,2.22.06,4.45.12,6.68.01.41.22.84.39,1.23.26.56.79,1.08.82,1.64.15,3.57.11,7.15.31,10.72.11,1.91.53,3.81.86,5.7.5,2.91-1.11,6.15,1.33,8.76.06.07.02.23.02.34.05,4.64.15,9.25.95,13.86.52,3.03.2,6.2.29,9.3.01.51.05,1.38.28,1.45,1.32.43.83,1.48.98,2.33.56,3.25-1.2,6.82,1.32,9.81.06.07.02.23.02.35.38,6.3.67,12.62,1.18,18.91.17,2.03-.95,4.41,1.22,6.07.09.07.04.34.05.51.38,5.17.78,10.33,1.12,15.5.1,1.57.02,3.15.02,5.05.67-.29,1.15-.38,1.46-.66.62-.58,1.11-1.31,1.71-1.91,1.54-1.52,3.08-3.03,4.68-4.5.77-.71,1.66-1.29,2.5-1.93.8-.62,1.58-1.25,2.38-1.87.85-.65,1.68-1.33,2.58-1.89.81-.5,2.25-.68,2.47-1.32.61-1.81,2.4-1.5,3.49-2.02,1.47-.7,2.75-2.31,4.72-1.88.15.03.41-.35.59-.56.76-.91,1.92-.83,2.53.17.57.95,2.33.78,3.04-.1.93-1.13,1.94-2.79,3.14-3,3.88-.69,7.85-.85,11.8-1.17,1.1-.09,2.22-.03,3.33,0,.4,0,.83.05,1.2.19.84.33,1.66.73,2.86,1.27Zm-17.53,125.06c0-.84,0-1.6,0-2.35,0-17.12,0-34.24,0-51.36,0-1.91-1.17-3.1-3.09-3.2-1.04-.05-2.76.15-2.99-.33-.63-1.3-1.6-.88-2.47-1.08-1.67-.38-3.33-.79-5-1.19-.11-.03-.22-.07-.31-.14-1.09-.81-2.1-1.75-3.27-2.39-1.12-.61-2.42-.9-3.63-1.35-.19-.07-.34-.26-.52-.39-.87-.62-1.72-1.25-2.6-1.84-.93-.62-2.02-1.08-2.81-1.84-1.06-1.02-1.69-2.7-2.9-3.3-2.14-1.06-2.98-3.12-4.5-4.63-.43-.43-1.02-.75-1.3-1.26-.76-1.39-1.36-2.87-2.09-4.29-.56-1.08-1.49-2.03-1.78-3.16-.56-2.16-1-4.39-1.07-6.61-.07-2.05-.48-4.14.77-6.21.5-.82,1.34-1.97,1.33-2.81-.01-1.88,1.43-4.14-.93-5.67-.13-.08-.12-.44-.12-.67-.09-4.5-.12-8.98-.92-13.47-.55-3.08-.23-6.31-.31-9.47-.01-.46.04-1.2-.19-1.32-1.4-.72-1.04-1.98-1.07-3.09-.07-2.46-.04-4.92-.1-7.39-.01-.46-.24-.93-.43-1.37-.25-.58-.71-1.1-.8-1.69-.14-.98.03-2-.08-2.98-.39-3.75.46-7.56-.94-11.29-.6-1.6,0-3.62-.22-5.41-.25-1.92,1.03-4.21-1.23-5.71-.09-.06-.04-.34-.04-.51-.03-4.53-.19-9.04-.93-13.55-.5-3.03-.2-6.2-.29-9.3-.01-.48-.13-1.33-.35-1.38-1.23-.29-.89-1.22-.91-1.96-.05-2.52,0-5.04-.12-7.56-.03-.68-.58-1.33-.88-2.01-.13-.3-.32-.61-.34-.92-.4-6.3-.78-12.59-1.16-18.89-.01-.18.01-.36-.03-.53-.44-1.82.95-4.06-1.22-5.51-.09-.06-.04-.34-.06-.51-.54-3.92.99-8.07-1.35-11.78-.11-6-.09-12.01-1.2-17.94-.48-2.57,1.05-5.48-1.29-7.74-.06-.06-.02-.23-.03-.34-.29-5.07.26-10.16-1.05-15.2-.53-2.04-.08-4.32-.19-6.48-.06-1.21.64-2.72-1.1-3.45-.14-.06-.11-.54-.15-.83-.54-3.74,1.04-7.73-1.33-11.25-.22-5.54.06-11.1-1.15-16.58-.69-3.14,1.05-6.63-1.34-9.55-.09-.11-.02-.34-.03-.52-.39-6.47-.8-12.94-1.17-19.41-.07-1.17-.02-2.35-.06-3.52-.02-.39-.09-1.07-.25-1.11-1.42-.32-.94-1.43-.98-2.26-.08-2.23-.05-4.46-.15-6.68-.02-.51-.42-1.01-.64-1.52-.22.51-.63,1.01-.64,1.52-.05,5.69-.04,11.37-.04,17.06,0,111.7,0,223.4,0,335.1,0,.99,0,1.98,0,2.97.16.11.32.21.47.32.45-.45.82-1.14,1.36-1.31,1.59-.5,3.25-1.14,4.87-1.12,4.04.06,8.1-.78,12.14.72,2.46.92,5.2-.13,7.92,1.26,2.49,1.27,5.78.92,8.69,1.43,2.05.36,4.06.97,6.08,1.48.1.02.22.12.25.2.34,1.28,1.43.93,2.3,1.07,2.33.39,4.66.79,7,1.2.17.03.41.08.47.19.92,1.85,3.03,1.08,4.47,2.01,1.32.85,2.81,2.12,4.72,1.71.06-.01.17.14.24.22.73.82,3.53,1.99,5.07,1.99Zm-66.05,5.46c0,.86,0,1.61,0,2.36,0,110.54-.01,221.08-.02,331.61,0,2.76,0,5.51.07,8.27.01.43.4.84.61,1.26.23-.41.63-.81.65-1.23.1-2.28.04-4.57.17-6.85.07-1.13-.72-2.65,1.11-3.24.12-.04.11-.54.13-.83.31-3.96-.19-7.92.88-11.91,1.16-4.35,0-8.92,1.28-13.53,1.2-4.32.52-9.21,1.32-13.82.67-3.88-.82-8.03,1.4-11.75.11-.18.05-.46.08-.69.58-3.85-.33-7.68,1.13-11.69,1.29-3.54.21-7.82,1.15-11.77.55-2.28-.04-4.81.29-7.18.28-2.02-1.09-4.43,1.21-6.05.09-.07.06-.34.06-.51.1-4.55.14-9.08.95-13.61.52-2.91.23-5.96.32-8.95.01-.46-.06-1.17.2-1.34,1.42-.95.98-2.37,1.02-3.64.08-2.23.02-4.46.13-6.68.02-.51.47-1,.74-1.49.15-.28.45-.54.46-.82.16-4.31.13-8.6.92-12.92.64-3.47.26-7.13.35-10.7.01-.38.14-.77.28-1.13.31-.8.89-1.57.94-2.37.15-2.51.08-5.04.14-7.56.01-.47.22-.95.42-1.39.23-.51.76-.97.79-1.47.26-4.53-.12-9.07,1-13.58.96-3.82-.26-7.79,1.26-11.82,1.36-3.61.08-7.91,1.1-11.94.76-2.99.19-6.3.38-9.45.09-1.4-.85-3.19,1.15-4.11.13-.06.09-.55.09-.84.01-1-.14-2.02.05-2.98.51-2.55-1.19-5.47,1.26-7.7.09-.08.03-.34.04-.52.39-6.47.8-12.94,1.17-19.41.08-1.34.02-2.7.07-4.04.01-.37.18-.75.34-1.09.28-.59.79-1.13.87-1.74.14-1.16.07-2.34.04-3.51,0-.38,0-.93-.23-1.13-1.56-1.34-2.01-3.2-2.09-5.05-.13-3.17-.48-6.4.97-9.45.69-1.46,1.23-2.99,1.89-4.47.37-.82.72-1.7,1.3-2.37.83-.98,2.13-1.58,2.23-3.1.02-.28.27-.6.5-.81.58-.52,1.53-.85,1.77-1.48.95-2.44,3.34-3.37,4.99-5.06.62-.64,1.61-.91,2.4-1.4.45-.28.79-.74,1.26-.96.61-.28,1.11-.36,1.69-1.03,1.07-1.25,2.73-2.13,4.3-2.78,1.61-.67,3.41-.87,5.12-1.28.17-.04.42-.07.47-.18.81-1.96,3-1.38,4.45-2.27,1.84-1.14,4.53-.9,7.01-1.28,0-5.4.07-10.67-.08-15.92-.02-.7-.98-1.62-1.73-1.98-1.2-.59-2.59-.81-3.9-1.19-.21-.06-.55-.17-.56-.28-.09-1.28-1.13-.88-1.84-1.08-1.45-.42-3.51-.41-4.21-1.38-1.3-1.81-3.34-1.36-4.89-2.21-2.28-1.25-5.3-1.02-7.81-2.52-1.36-.81-3.3-.06-4.83-1.47-.78-.72-2.46-.48-3.76-1-2.04-.81-4.36-.41-6.63-1.39-2.3-1-5.23-.74-7.84-1-5.85-.59-11.79-.18-17.96-.18Zm121.12-58.47h0c10.06,0,20.13.01,30.19,0,2.45,0,3.2-.75,3.2-3.17,0-8.2.1-16.41-.05-24.61-.05-2.84.89-5.81-.84-8.56-.81-1.29-.89-3.11-1.85-4.2-1.41-1.6-3.15-3.11-5.05-4.03-1.77-.85-3.65-1.44-5.44-2.38-1.74-.92-3.99-1.16-6.03-1.18-10.18-.11-20.36-.12-30.54,0-2.18.02-4.35.68-6.52,1.08-.18.03-.31.29-.49.4-.47.31-.95.61-1.44.9-.35.21-.73.36-1.06.6-.76.57-1.41,1.48-2.26,1.72-1.81.51-2.2,1.89-2.72,3.37-.5,1.42-.92,3.07-1.92,4.06-.77.76-.85,1.37-.85,2.19-.01,10.2,0,20.39,0,30.59,0,2.22,1.02,3.22,3.3,3.22,10.12,0,20.25,0,30.37,0Zm57.24,130.11c-.37-.73-.8-1.26-.9-1.84-.17-1.03-.45-1.76-1.68-1.73-.26,0-.53-.3-.8-.47-.99-.63-1.96-1.32-2.99-1.88-1.78-.96-3.72-1.66-5.38-2.8-1.58-1.08-2.9-2.55-4.29-3.9-2.1-2.05-4.18-4.13-6.23-6.23-.53-.55-1.14-1.14-1.38-1.83-.56-1.57-.72-3.32-1.44-4.8-.46-.94-1.32-1.69-1.49-2.84-.03-.21-.66-.44-1.04-.47-3.99-.4-7.98-.76-11.97-1.15-.54-.05-1.09-.24-1.6-.45-.56-.23-1.06-.7-1.63-.79-1.09-.17-2.81.27-3.21-.29-1.18-1.66-2.76-.84-4.11-1.2-.56-.15-1.41.1-1.69-.22-1.37-1.58-3.67-.28-5.21-2.05-.92-1.05-3.21-1.09-4.91-1.19-2.08-.13-3.56-2.23-5.8-1.6-.07.02-.2-.25-.33-.34-.46-.32-.9-.75-1.41-.91-1.49-.45-3.01-.79-4.51-1.19-.14-.04-.22-.24-.36-.33-.5-.34-.98-.78-1.53-.96-1.45-.46-2.93-.79-4.4-1.2-.14-.04-.22-.24-.36-.33-1.2-.75-2.33-1.84-3.64-2.15-1.58-.38-3.31-.09-5.17-.09,0,.96,0,1.77,0,2.57,0,8.38,0,16.77,0,25.15,0,5.34-.01,10.67.02,16.01,0,.58.18,1.22.47,1.73.28.5.8.87,1.27,1.35,4.34.39,8.88,1.09,13.42,1.14,16.33.17,32.67.11,49,.14,7.08.01,14.17-.04,21.25.05,1.35.02,2.23-.58,3.06-1.36.47-.44.71-1.12.95-1.53Zm-46.35-55.09c.49-1.34.59-3.17,1.45-3.66,1.96-1.13,1.67-3.57,3.45-4.76.88-.59,1.03-2.18,1.81-3.05,1.37-1.53,2.97-2.87,4.49-4.27.45-.41,1.03-.7,1.43-1.16.95-1.1,1.82-2.28,2.75-3.41.45-.55.92-1.09,1.46-1.55.85-.71,2.05-.94,2.51-2.2.22-.6.79-1.14,1.32-1.56,1.52-1.21,3.11-2.34,3.39-4.48.03-.2.16-.43.31-.56,1.39-1.27,1.37-3.74.04-4.91-.67-.59-1.19-1.36-1.75-2.08-.66-.85-1.28-1.73-1.92-2.59-.2.1-.41.19-.61.29,0-2.05.02-4.09,0-6.14-.04-3.01-.66-3.63-3.62-3.64-18.85-.03-37.69.04-56.54-.19-2.55-.03-2.93,1.58-3.97,2.89-.28.36-.37.95-.37,1.43-.02,8.15-.02,16.29-.01,24.44,0,.45.06.95.26,1.33.76,1.48,1.73,2.87,2.37,4.4.61,1.46,2.97,3.38,4.46,3.72,1.76.4,3.44,1.14,5.16,1.74.6.21,1.18.5,1.78.7.42.14,1.19.11,1.24.3.36,1.31,1.39,1,2.27,1.11.39.05,1.09.15,1.11.3.21,1.48,1.38.92,2.18,1.11,1.73.42,3.46.8,5.18,1.24.18.04.27.36.45.48.38.25.77.58,1.19.66,2.26.45,4.53.83,6.8,1.25.17.03.41.05.48.16,1.3,2.08,4.08.46,5.66,2.33.54.64,2.34.23,3.82.31Zm-65.97-81.55c0-1.05,0-2.04,0-3.03,0-10.84.04-21.67-.05-32.5-.01-1.38,1.05-3.29-1.22-4.1-.12-.04-.01-.57-.12-.83-.16-.4-.38-.78-.64-1.14-.71-1-1.45-1.98-2.28-3.09-2.11.72-4.74-.97-6.59,1.43-.05.07-.22.04-.34.06-1.49.25-3.29-.49-4.29,1.37-.06.11-.45.02-.68.06-2.08.38-4.16.77-6.24,1.16-.11.02-.27.02-.33.09-1.59,1.99-4.22,1.35-6.09,2.61-.28.28-.43.83-.79,1.06-1.17.76-2.15,1.65-1.99,3.14.18,1.69.78,3.36.79,5.04.02,2.07.7,4.16-.64,6.24-1.08,1.67.35,5.71,1.99,7.21.69.63,1.07,1.58,1.74,2.25,1.01,1.01,2.05,2.05,3.25,2.8,1.02.64,2.29.88,3.44,1.31.19.07.37.23.51.38.7.72,1.27,1.66,2.1,2.12,1.11.62,2.42.86,3.64,1.28.25.09.7.18.72.31.13,1.27,1.15.89,1.87,1.06,1.78.41,3.56.81,5.33,1.22.11.02.28.08.3.15.31,1.44,1.49.96,2.38,1.1,1.11.18,2.5-.4,3.06,1.23.03.1.62.01,1.16.01Zm-4.48,144.6c.91-1.46,1.64-2.58,2.3-3.73.4-.7.55-1.95,1.05-2.09,1.69-.47,1.1-1.7,1.11-2.65.04-11.26.02-22.52.03-33.77,0-.62,0-1.24,0-1.9-2.6.4-4.96.76-7.31,1.13-.11.02-.28.05-.32.13-.94,2.09-3.3.95-4.75,2.12-1.12.89-3.06.81-4.06,1.77-1.25,1.19-2.68,1.67-4.14,2.27-.29.12-.55.3-.81.48-.4.28-.75.63-1.17.86-.49.28-1.12.36-1.52.71-1.3,1.13-2.58,2.3-3.76,3.55-1.03,1.09-2.19,1.96-3,3.39-1.4,2.51-.71,4.83-.37,7.28.22,1.64.91,3.61.28,4.87-.9,1.79-.62,3.47-.71,5.19-.08,1.68.92,2.56,2.54,2.88.45.09.82.54,1.24.81.3.19.6.43.93.51,1.67.41,3.36.76,5.03,1.15.15.03.38.13.41.24.37,1.41,1.55.93,2.45,1.09.77.14,1.56.24,2.3.49.56.19,1.01.75,1.56.86,2.28.45,4.59.79,6.88,1.18.16.03.41.07.45.18.81,1.91,2.4.74,3.33.99Zm-10.73-191.67c0-1.69.11-3.22-.03-4.72-.19-2-3.7-3.71-5.01-2.34-.91.96-2.31.73-3.12,2.08-.69,1.16-2.87,1.06-3.74,2.57-.3.52-.7,1.01-1.16,1.39-.83.71-2.06.89-2.43,2.22-.14.52-.82.95-1.32,1.32-1.26.94-2.17,2.03-2.02,3.81,2.19.2,3.72-.48,5.22-2.02.91-.93,2.68-.46,4.03-1.6,1.23-1.04,3.46-.89,5.25-1.26.34-.07.91-.05.99-.23.67-1.57,2.15-.94,3.32-1.23Zm-18.84,188.18c4.49,5.39,9.03,10.71,15.78,13.37.33-.22.82-.46,1.22-.81.65-.59,1.68-1.19,1.78-1.89.25-1.87.08-3.79.08-5.4-2.2-.58-4.12-1.54-5.98-1.45-2.16.11-3.4-1.73-5.39-1.75-.85-.01-2.06-.41-2.47-1.04-1.31-2.04-3.15-1.06-5.02-1.03Zm22.02-195.24c.3,1.1.66,1.9.71,2.71.19,2.86,1.32,3.94,4.09,3.2,1.04-.28,2.43-.94,2.33-2.66-.07-1.1-.05-2.24.17-3.31.18-.91.71-1.75,1.2-2.9h-7.26c-.51,1.21-.94,2.25-1.24,2.96Zm7.04,202.61c-1.67,0-3.18-.07-4.68.04-.52.04-1.41.52-1.43.85-.13,2.19-.07,4.39-.07,6.55,1.04.13,2.32-.1,2.81.42,1.3,1.38,2.74.81,4.36.92,0-1.21.44-2.69-.1-3.3-1.04-1.17-.62-2.36-.77-3.55-.07-.51-.07-1.04-.12-1.92Zm-29.72-171.35c2-3,2.06-3.06.56-4.75-.31-.35-1.67-.4-1.8-.16-.6,1.04-.93,2.24-1.36,3.38.2.01.4.03.6.04.63.47,1.27.94,2,1.48Zm153.91-50.69c-.23-1.08-.16-2.01-.53-2.25-1.56-.98-.92-2.93-1.98-4.08-.33-.36-.58-.79-.87-1.19-.21.46-.6.93-.59,1.38.05,2.17,1.49,3.78,2.43,5.59.14.26.76.28,1.55.54ZM33.98,473.35c1.51-.07,2.69-.12,3.84-.17.28-3.18-.31-3.69-3.68-3.27-.05,1.03-.1,2.09-.16,3.44Zm-.98-159.9c.05.83.09,1.6.14,2.42.75.04,1.33.12,1.91.1.56-.02,1.13-.13,1.75-.21.04-.74.17-1.39.08-2-.07-.54-.38-1.06-.59-1.58-.38.4-.75.8-1.21,1.28h-2.08Zm35.75,192.99c-.46,2.94.56,4.12,3.27,3.79.46-.06.87-.49,1.3-.75-.38-.27-.76-.52-1.13-.8-.41-.3-1.08-.56-1.16-.94-.3-1.41-1.18-1.48-2.29-1.3Zm-47.02,255.39c-3.24-.97-4.09-.5-4.02,2.02,1.41-.86,1.08,2.45,2.58,1.05.75-.7.96-1.98,1.44-3.06Zm15.12-284.61c-3.74-.86-4.22-.55-3.61,2.34h3.61v-2.34ZM17.83,10.75c.47.54.98,1.11,1.66,1.9.36-.04,1.02-.1,1.79-.18v-3.58h-1.85c-.6.69-1.09,1.27-1.61,1.86Zm-.01,19.76c1.22.06,2.34.12,3.51.18v-2.84c-3.43-.37-3.77-.12-3.51,2.66Zm2,749.04c-.78.44-1.44.8-2.09,1.17.39.58.72,1.22,1.18,1.74,1.11,1.23,1.87-.19,2.21-.67,1.16-1.64-1.17-1.32-1.3-2.23Zm48.89-493.64c1.3-1.17,2.51-2.25,3.68-3.37.01-.01-.37-.64-.62-.7-2.36-.51-3.55.97-3.06,4.07Zm-34.53,483.55c.62-.5,1.18-.74,1.2-1.02.1-1.2.08-2.43,0-3.63-.02-.28-.41-.54-.63-.81-.19.29-.54.58-.55.88-.06,1.32-.03,2.64-.03,4.58Zm1.24-741.27c0-1.51.07-2.38-.04-3.22-.03-.23-.59-.4-.91-.59-.13.93-.34,1.85-.32,2.77,0,.27.64.54,1.28,1.04Zm158.84,255.03c-.43-.55-.76-.97-1.08-1.39-.21.38-.62.79-.58,1.15.05.49.44.94.68,1.41.28-.33.55-.66.99-1.17Z"/>
      <path class="cls-2" d="m43.67,51.91c1.01,1.03,2.03,2.04,3.02,3.08.55.58.93,1.45,1.59,1.76,1.25.59,1.62,1.79,2.42,2.68,1.34,1.5,3.07,2.65,4.59,3.99.45.4.73,1,1.16,1.43,1.77,1.71,3.58,3.37,5.34,5.09.42.41.86.94,1,1.49.5,1.94,2.28,2.81,3.41,4.21.98,1.22,2.21,2.24,3.3,3.37,1.01,1.05,1.98,2.13,2.99,3.18,1.09,1.15,2.27,2.21,3.27,3.43,1.45,1.78,2.68,3.75,4.18,5.48.96,1.1,2.33,1.83,3.36,2.87,1.03,1.03,1.84,2.28,2.81,3.38.33.37.94.49,1.3.85,1.25,1.29,2.51,2.57,3.63,3.97,1.05,1.31,1.81,2.85,2.9,4.12.95,1.1,2.25,1.9,3.26,2.96.58.61.81,1.54,1.33,2.22,1.35,1.77,2.51,3.82,4.24,5.11,1.35,1.01,1.48,2.47,2.42,3.52.48.54,1,1.03,1.55,1.5,1.89,1.63,3.76,3.25,4.76,5.67.32.77.99,1.42,1.58,2.05.54.58,1.29.98,1.75,1.61,1.03,1.37,1.9,2.86,2.91,4.24.75,1.03,1.91,1.87,2.34,3.01.68,1.77,2.88,2.43,3.02,4.54.03.42.64.79.93,1.21,1.34,1.95,2.59,3.96,4.01,5.84,1.04,1.37,2.9,2.4,3.32,3.89.52,1.82,2.08,2.82,2.55,4.37.44,1.47,2.17,2.21,1.94,4.03-.06.45.96.99,1.38,1.56.37.5.55,1.15.9,1.67,1.06,1.58,2.16,3.13,3.25,4.69.15.21.49.44.46.6-.32,1.61,1.28,2.13,1.79,3.25.19.43.44.83.7,1.22.28.42.63.79.9,1.21.22.34.34.75.56,1.09.63.96,1.29,1.91,1.95,2.86.12.17.41.33.4.47-.2,1.68,1.58,2.17,2.02,3.47.77,2.27,2.67,3.94,3.21,6.39.28,1.27,1.45,2.32,2.11,3.53.6,1.09,1.02,2.27,1.57,3.39.27.56.67,1.05,1,1.58.14.22.3.45.38.7.42,1.33.65,2.75,1.27,3.97.59,1.16,1.66,2.07,2.37,3.18.46.71.63,1.6.96,2.4.59,1.39,1.19,2.78,1.82,4.15.19.4.5.74.77,1.1.15.2.42.36.49.58.43,1.23.47,2.82,1.3,3.62.97.95,1.14,2,1.53,3.09.17.47.46.91.73,1.33.27.43.58.84.89,1.23.09.12.4.21.39.25-.54,1.84.97,3.25,1.74,4.18,1.28,1.53-.05,3.84,2.07,4.94.68.35.92,1.79,1.1,2.79.2,1.06,1.16,2.15,1.16,2.69,0,2.01,1.64,3.21,1.87,5.02.16,1.3.34,3.06,1.19,3.71,1.29.98.93,2.29,1.5,3.35.34.63.53,1.36.72,2.06.19.7-.25,1.73,1.06,1.83.12,0,.24.58.3.9.13.7-.07,1.48,1.01,1.75.29.07.3,1.21.55,2.35-1.23-.61-2.01-1-2.78-1.39-.45-1.88-.56-3.9-1.44-5.49-.5-.9-1.19-1.7-1.42-2.77,0-.05-.08-.12-.12-.12-2.26.07-4.56-.03-6.78.32-.88.14-1.25,1.56-1.8,2.37-1.18,1.74-1.35,3.86-2.44,5.4-1.11,1.57-1.41,3.61-2.5,4.76-.96,1.01-.47,2.96-2.25,3.22-.11.02-.18.39-.24.61-.4,1.36-.71,2.76-1.25,4.06-.23.56-.84,1.11-1.41,1.37-1.46.66-1.61,2.42-2.56,3.17-1.49,1.16-1.7,3.59-4.09,3.87-.82.1-1.52,1.1-2.28,1.69-.18.14-.36.31-.56.36-1.75.42-3.51.82-5.26,1.22-1.07.24-2.47-.49-3.08,1.15-.07.2-.87.18-1.33.18-15.46.04-30.91.07-46.37.08-.69,0-1.62.28-1.64-.96,0-.11-.24-.3-.36-.3-2.22.08-1.88-1.54-1.97-2.91-.06-.93.11-1.81-1.02-2.52-.51-.32-.24-1.86-.37-2.84-.16-1.23.49-2.74-1.14-3.51-.1-.05-.1-.32-.12-.49-.4-2.94-.82-5.89-1.19-8.83-.11-.89.08-1.79-.97-2.4-.36-.21-.31-1.17-.4-1.8-.42-3.15-.25-6.55-1.43-9.39-.87-2.09-.85-4.04-1.2-6.07-.07-.4-.4-.76-.64-1.12-.17-.26-.52-.47-.56-.74-.41-2.97-.75-5.95-1.18-8.92-.09-.62-.47-1.2-.74-1.8-.14-.3-.42-.56-.46-.87-.43-3.09-.8-6.2-1.27-9.29-.09-.57-.56-1.08-.78-1.64-.21-.51-.34-1.06-.47-1.6-.41-1.7.6-3.77-1.29-5.1-.07-.05-.07-.22-.09-.33-.4-2.92-.79-5.85-1.19-8.77-.15-1.1.32-2.42-1.11-3.07-.11-.05-.14-.3-.17-.47-.39-2.59-.75-5.19-1.17-7.77-.18-1.13.57-2.52-1.1-3.32-.41-.19-.15-1.65-.31-2.5-.24-1.25.69-2.89-1.17-3.64-.09-.04-.1-.32-.12-.49-.39-3.04-.74-6.09-1.2-9.12-.1-.69-.6-1.32-.91-1.98-.12-.25-.31-.5-.35-.76-.4-2.96-.75-5.93-1.2-8.89-.09-.56-.56-1.06-.82-1.61-.17-.34-.33-.71-.41-1.08-.43-2,.57-4.33-1.34-6.01-.07-.06-.06-.22-.08-.34-.4-3.08-.76-6.17-1.24-9.24-.12-.76-.69-1.44-.93-2.2-.22-.7-.3-1.44-.4-2.17-.39-2.97-.09-6.28-1.36-8.8-1.06-2.1-.83-4.03-1.19-6.03-.03-.17,0-.46-.08-.5-2.06-1.02-.99-2.93-1.25-4.44-.45-2.63-.17-5.63-1.39-7.81-1-1.78-.25-3.94-1.24-4.95-2.29-2.34-.22-5.47-2.03-7.8-.56-.72-.17-2.17-.31-3.27-.12-.92.53-2.22-1.11-2.51-.09-.02-.15-.41-.18-.64-.41-3.41-.78-6.82-1.24-10.22-.07-.55-.55-1.03-.78-1.56-.21-.49-.37-1-.49-1.52-.33-1.45.7-3.29-1.24-4.29-.09-.05-.07-.33-.09-.5-.4-3.29-.8-6.57-1.2-9.86-.09-.76.18-1.72-1.01-1.93-.08-.01-.19-.15-.2-.24-.4-2.8-.79-5.6-1.18-8.4.15-.09.3-.18.45-.27Z"/>
      <path class="cls-2" d="m92.96,508.88c.62-.05,1.43-.17,2.24-.17,15.75.01,31.5.04,47.25.08.85,0,1.94-.37,2.27.96.02.08.18.19.28.19,1.78.01,3.25.9,4.86,1.5,1.41.52,2.81.7,3.57,2.23.14.28.85.23,1.26.43.45.22.96.45,1.26.82,1.26,1.63,2.42,3.33,3.69,4.96.3.39.89.53,1.3.86,1.64,1.31,1.76,3.38,2.58,5.1.57,1.2,1.48,2.25,2.25,3.36.09.13.3.21.34.34.41,1.36.79,2.72,1.2,4.08.09.3.25.58.42.84.3.46.73.87.94,1.37.45,1.1.63,2.34,1.22,3.34.66,1.11,1.69,1.99,2.5,3.02.19.24.15.65.25,1.1h7.66c-.44,1.17-.81,2.07-1.1,2.99-.17.55-.14,1.18-.35,1.7-.24.6-.65,1.13-1,1.69-.06.09-.2.14-.24.23-.55,1.59-.87,3.31-1.68,4.76-.75,1.33-.37,3.19-1.97,4.1-.18.1-.19.52-.26.8-.42,1.55-.66,3.17-1.31,4.61-.52,1.16-1.53,2.09-2.32,3.13-.13.17-.21.39-.28.6-.4,1.36-.39,3.19-1.29,3.95-1.12.94-.99,2.2-1.72,3.14-.22.28-.42.63-.5.97-.17.69.06,1.61-1.11,1.59-.04,0-.11.06-.13.11-.56,1.35-.93,2.84-1.74,4.03-.79,1.17-.35,2.97-1.95,3.67-.1.04-.19.15-.24.24-.89,2.12-1.51,4.41-2.76,6.29-.77,1.17-1.15,2.37-1.68,3.58-.64,1.48-1.36,2.93-2.1,4.36-.54,1.04-1.17,2.04-1.75,3.06-.22.39-.53.77-.59,1.19-.12.82-.36,1.29-1.21,1.76-.69.39-.82,1.7-1.33,2.52-.99,1.6-2.25,3.05-3.06,4.73-.74,1.52-2.35,2.55-2.39,4.47-.01.49-.49,1.11-.93,1.42-1.66,1.16-2.23,3.08-3.32,4.62-1.2,1.69-1.9,3.74-3,5.53-.68,1.1-1.76,1.95-2.53,3-.48.65-.68,1.5-1.07,2.24-.87,1.65-1.68,3.34-2.7,4.89-.71,1.08-1.74,1.94-2.58,2.94-.43.52-.94,1.08-1.1,1.7-.54,2.1-2.33,3.2-3.53,4.77-1.15,1.51-1.87,3.34-2.96,4.91-.95,1.36-2.15,2.55-3.25,3.8-.07.08-.3.1-.3.13.24,2.24-2.01,2.98-2.81,4.63-.54,1.11-1.77,1.87-2.62,2.85-1.24,1.44-2.37,2.96-3.61,4.4-.7.8-1.6,1.43-2.26,2.25-.41.51-.39,1.38-.82,1.84-1.41,1.52-3.03,2.84-4.38,4.41-1.09,1.27-1.88,2.79-2.84,4.17-.43.62-.9,1.23-1.44,1.74-1.8,1.68-3.44,3.46-4.78,5.56-.74,1.16-1.92,2.04-2.89,3.05-1.08,1.13-2.16,2.27-3.24,3.4-1.05,1.1-2.14,2.17-3.15,3.31-1.2,1.37-2.33,2.81-3.5,4.22-.53.64-.93,1.52-1.61,1.85-1.21.58-1.53,1.77-2.31,2.62-1.35,1.49-3.01,2.7-4.51,4.06-.44.4-.74.96-1.13,1.42-1.45,1.68-2.87,3.39-4.38,5.01-1.22,1.32-3,2.32-3.74,3.84-1.2,2.49-3.65,3.6-5.19,5.69-1.29,1.74-3.28,2.93-4.85,4.48-1.04,1.03-1.78,2.34-2.81,3.38-1.05,1.07-2.32,1.94-3.43,2.96-.38.35-.58.91-.87,1.37-.15-.04-.31-.08-.46-.12.03-.59-.02-1.19.1-1.76.24-1.2.62-2.37.83-3.57.18-1.02-.27-2.24,1.09-2.81.14-.06.2-.41.23-.64.41-3.24.82-6.48,1.22-9.71.09-.75-.26-1.7.98-1.93.17-.03.22-.69.32-1.07.37-1.43-.79-3.31,1.28-4.23.06-.02.04-.22.05-.34.39-3,.77-6.01,1.17-9.01.11-.79-.28-1.78.94-2.17.24-.08.33-.82.39-1.26.43-3.35.83-6.71,1.24-10.06.01-.12-.02-.3.04-.34,2-1.24.47-3.69,1.42-4.84,1.7-2.08.54-4.5,1.47-6.4.86-1.76.66-3.44.86-5.17.09-.78-.15-1.66,1-1.95.2-.05.24-.81.32-1.24.34-1.77-.7-3.9,1.36-5.23.03-.02.03-.11.04-.17.37-2.79.71-5.58,1.14-8.36.09-.59.57-1.11.75-1.7.26-.86.48-1.75.6-2.65.42-2.95.17-6.19,1.36-8.78,1.01-2.18.35-4.58,1.38-6.26,1.22-1.99.5-4.17,1.37-5.82.8-1.53.52-2.95.87-4.39.21-.88.69-1.7,1.05-2.55.09-.21.19-.42.22-.64.4-2.93.74-5.87,1.2-8.79.1-.64.65-1.2.87-1.84.23-.69.3-1.43.47-2.14.34-1.45-.78-3.35,1.29-4.28.06-.03.05-.22.07-.33.37-2.85.74-5.71,1.12-8.56.13-.98-.27-2.18,1.09-2.68.13-.05.18-.41.21-.63.4-2.94.75-5.89,1.21-8.82.1-.62.61-1.17.9-1.78.16-.34.32-.72.35-1.09.09-1.11.1-2.22.16-3.34.02-.41-.05-1.05.17-1.18,1.85-1.08.94-2.88,1.21-4.36.42-2.32.23-4.97,1.34-6.88,1.18-2.02.5-4.11,1.29-5.89.82-1.85.14-4.08,1.07-5.44,1.43-2.09.4-4.55,1.44-6.21,1.23-1.95.53-4.06,1.35-5.72.92-1.87.61-3.69.95-5.51.1-.53.59-.98.82-1.5.22-.5.4-1.05.47-1.59.41-2.98.09-6.3,1.36-8.83,1.1-2.18.31-4.54,1.38-6.19,1.24-1.9.91-3.75,1.24-5.65.38-2.17.97-4.3,1.54-6.74Z"/>
      <path class="cls-2" d="m15.23,682.87c0-2.57,0-4.44,0-6.31,0-.23-.08-.55.04-.69,2.35-2.88.61-6.31,1.31-9.39,1.18-5.15.09-10.6,1.41-15.53,1.1-4.1.5-8.03,1.07-11.99.09-.59.57-1.12.83-1.7.18-.39.39-.8.41-1.2.06-1.35-.02-2.7.06-4.04.37-6.29.77-12.58,1.17-18.87.02-.29.01-.77.15-.83,1.75-.72,1.03-2.23,1.09-3.44.11-2.05-.03-4.11.13-6.15.07-.87.67-1.68.98-2.54.15-.42.24-.88.25-1.32.09-3.28-.2-6.62.33-9.82.72-4.37.82-8.74.91-13.13,0-.23.01-.62.12-.66,1.88-.72,1.02-2.34,1.11-3.57.14-1.87-.26-3.83.16-5.61,1.24-5.15.85-10.38,1.09-15.58,2.47-3.61.76-7.71,1.36-11.54.04-.23,0-.62.1-.67,1.95-.86,1.04-2.58,1.14-3.93.19-2.8-.27-5.73.36-8.41.99-4.16.63-8.32.87-12.48,0-.12-.03-.29.03-.34,2.41-2.01.91-4.75,1.27-7.13.51-3.38.76-6.8,1.05-10.2.14-1.63.07-3.28.17-4.91.02-.32.34-.63.53-.95.22.22.42.44.65.65,1.15,1.07,2.34,2.08,3.44,3.2,1.04,1.06,1.89,2.32,2.98,3.3,1.2,1.08,2.6,1.95,3.91,2.91.8.59,1.53,1.28,2.39,1.76,1.16.65,1.66,2.21,3.3,2.24.37,0,.64.97,1.1,1.2,2.49,1.22,4.95,2.61,7.59,3.39,1.34.4,3.07-.23,4.55-.64.84-.23,2.44.5,2.43,1.62,0,1.73,1.09,1.65,2.31,2.09,4.85,1.75,9.82.69,14.72.87,1.65.06,3.51-.41,4.68-2,.11-.14.5-.27.6-.19.24.19.57.52.54.75-.26,1.95.95,4.18-1.09,5.79-.11.09-.12.32-.14.49-.41,3.03-.75,6.07-1.24,9.08-.15.94-.69,1.81-1.05,2.72-.08.2-.2.4-.23.62-.4,3.11-.76,6.22-1.22,9.32-.09.61-.64,1.14-.9,1.74-.2.45-.3.95-.38,1.44-.24,1.38.56,3.06-1.19,4-.07.04-.07.22-.09.33-.4,2.69-.83,5.37-1.2,8.06-.19,1.38.37,2.9-1.16,3.99-.37.26-.15,1.33-.24,2.03-.38,2.87-.1,6.11-1.38,8.51-1.1,2.07-.23,4.4-1.36,5.82-1.68,2.1-.22,4.84-2.02,6.72-.25.26-.06.91-.12,1.37-.21,1.66.46,3.56-1.25,4.84-.1.07-.07.33-.09.5-.4,3-.79,6-1.19,9-.05.35,0,.91-.18,1-1.9.99-.87,2.78-1.2,4.18-.25,1.06.59,2.56-1.2,3.04-.08.02-.11.32-.13.49-.38,2.88-.7,5.77-1.16,8.64-.12.75-.7,1.41-.94,2.15-.23.69-.31,1.44-.41,2.17-.39,2.79-.09,5.96-1.35,8.27-1.14,2.09-.84,4-1.2,5.98-.03.17.02.46-.07.51-2.03,1.18-.66,3.32-1.36,4.78-1.02,2.13-.26,4.65-1.24,6.46-1.14,2.12-.56,4.35-1.35,6.24-.72,1.73-.15,3.75-1.01,5.02-1.44,2.12-.4,4.76-1.51,6.4-1.27,1.87-.43,3.85-1.27,5.37-1.1,1.99-.65,4.01-.99,5.99-.04.23.02.61-.09.67-1.86.98-.99,2.74-1.23,4.18-.16.97.24,2.17-1.17,2.65-.19.07-.13.86-.19,1.31-.4,2.99-.17,6.27-1.39,8.88-.99,2.12-.49,4.26-1.31,6.08-.86,1.92-.16,4.14-1.09,5.62-1.33,2.12-.28,4.89-1.45,6.26-1.78,2.08-.17,4.7-1.95,6.52-.43.45-.12,1.59-.23,2.4-.18,1.28.52,2.86-1.18,3.68-.12.06-.09.43-.12.66-.43,3.3-.82,6.6-1.3,9.89-.08.55-.53,1.04-.79,1.57-.16.33-.35.67-.43,1.02-.38,1.6.76,3.6-1.3,4.81-.24.14-.11,1-.09,1.53.08,1.48-.63,2.33-1.86,3.15-1.16.77-2.2,1.92-2.9,3.14-1.02,1.78-2.31,3.2-3.84,4.55-1.08.95-1.74,2.37-2.7,3.48-.81.93-1.74,1.75-2.7,2.53-.19.16-1.02-.05-1.04-.18-.22-1.37-1.28-.97-2.05-.99-2.16-.06-4.33.03-6.49-.07-1.99-.09-3.2.97-4.44,2.33-.7.77-1.94,1.04-2.91,1.59-.29.16-.48.48-.71.74-.2.23-.38.46-.57.7-.19-.29-.54-.59-.54-.88-.02-1.93-.17-3.9.11-5.8.8-5.51,1.08-11.03,1.14-16.58,2.3-3.95.34-8.44,1.47-12.41,1.05-3.68.53-7.29.85-10.92.02-.17-.03-.39.05-.52,2.42-3.91.78-8.29,1.42-12.4.17-1.1-.55-2.48,1.08-3.12.18-.07.16-.76.17-1.16.03-1.58-.06-3.17.08-4.75.36-4.04.81-8.07,1.16-11.44Z"/>
      <path class="cls-2" d="m88.52,280.89c-1.2-.54-2.02-.94-2.86-1.27-.37-.14-.8-.18-1.2-.19-1.11-.03-2.23-.09-3.33,0-3.94.32-7.92.48-11.8,1.17-1.19.21-2.21,1.87-3.14,3-.71.87-2.47,1.05-3.04.1-.61-1-1.77-1.08-2.53-.17-.18.21-.44.6-.59.56-1.97-.43-3.25,1.18-4.72,1.88-1.09.52-2.88.21-3.49,2.02-.22.64-1.66.82-2.47,1.32-.9.56-1.73,1.25-2.58,1.89-.8.61-1.58,1.25-2.38,1.87-.83.64-1.72,1.22-2.5,1.93-1.59,1.46-3.14,2.97-4.68,4.5-.61.6-1.09,1.33-1.71,1.91-.3.28-.79.37-1.46.66,0-1.91.09-3.49-.02-5.05-.34-5.17-.74-10.34-1.12-15.5-.01-.18.04-.44-.05-.51-2.17-1.66-1.05-4.04-1.22-6.07-.51-6.29-.8-12.61-1.18-18.91,0-.12.04-.27-.02-.35-2.52-2.99-.75-6.56-1.32-9.81-.15-.85.34-1.9-.98-2.33-.23-.08-.27-.95-.28-1.45-.08-3.1.24-6.28-.29-9.3-.8-4.61-.89-9.22-.95-13.86,0-.12.04-.28-.02-.34-2.44-2.62-.83-5.85-1.33-8.76-.33-1.9-.75-3.79-.86-5.7-.2-3.57-.16-7.15-.31-10.72-.02-.56-.56-1.08-.82-1.64-.18-.39-.38-.81-.39-1.23-.07-2.23-.01-4.46-.12-6.68-.07-1.37.56-2.97-1.13-3.94-.2-.12-.12-.77-.13-1.18-.08-3.51.4-7.16-.38-10.51-.96-4.16-.55-8.28-.88-12.4,0-.12.03-.29-.03-.34-2.35-2.15-.87-4.97-1.26-7.45-.33-2.07.37-4.25-1.1-6.22-.53-.71-.26-2.04-.3-3.1-.05-1.58.03-3.17-.07-4.75-.33-5.04-.72-10.08-1.08-15.12,0-.12.03-.26-.02-.35-2.49-3.61-.58-7.77-1.42-11.56-.99-4.51-.95-9.07-1-13.63,0-.12.04-.29-.02-.34-2.3-1.91-.94-4.53-1.28-6.81-.28-1.84-.05-3.75-.18-5.62-.08-1.16.61-2.63-1.08-3.35-.18-.08-.13-.77-.14-1.17-.03-1.58.06-3.17-.08-4.75-.5-5.61-1.34-11.2-1.18-16.85-2.23-4.15-.33-8.82-1.51-12.95-1.06-3.7-.4-7.31-.85-10.92-.05-.43.25-.9.39-1.35.25.35.46.74.77,1.02.38.35.95.52,1.27.9,1.5,1.81,3.8,2.14,5.64,3.23,2.28,1.35,4.47,1.07,6.78,1.05.4,0,.86-.02,1.19-.21,1.84-1.09,1.82-1.11,3.56-1.07,1.24,1.33,2.45,2.55,3.56,3.86,1.16,1.36,2.22,2.8,3.32,4.21.5.63.95,1.31,1.52,1.88,1.43,1.42,3.04,2.68,4.31,4.23.52.63.33,1.84.47,2.78.12.83-.42,1.95,1.03,2.23.17.03.19.83.27,1.28.33,1.92-.63,4.13,1.32,5.68.07.05.03.22.05.34.4,3,.76,6,1.22,8.98.09.57.56,1.07.82,1.62.18.39.37.81.42,1.24.44,3.41.32,7.01,1.46,10.16.71,1.96.3,4.31,1.35,5.64,1.48,1.87.88,3.7,1.19,5.53.41,2.4.16,5.19,1.34,7.09,1.26,2.02.5,4.06,1.27,5.83.81,1.88.15,4.24,1.1,5.56,1.51,2.11.32,4.61,1.42,6.22,1.46,2.13.51,4.44,1.38,6.32.83,1.8.72,3.51.88,5.28.02.17-.03.46.06.51,2.08,1.24.94,3.32,1.35,5,.16.66.57,1.25.87,1.88.12.26.34.5.37.77.41,3.08.76,6.17,1.23,9.24.13.83.62,1.61.95,2.42.1.26.27.5.3.77.41,3,.76,6.01,1.23,9.01.09.56.6,1.04.87,1.58.17.34.33.71.36,1.08.08,1.11.08,2.23.14,3.34.03.46-.03,1.21.22,1.34,1.65.88.97,2.42,1.16,3.7.39,2.59.13,5.52,1.32,7.66,1.19,2.14.48,4.34,1.33,6.15.94,2.01.17,4.27,1.09,5.9,1.26,2.24.3,5.14,1.49,6.61,1.72,2.11.12,4.65,1.89,6.53.61.65.1,2.28.3,3.42.15.88.62,1.71.95,2.57.08.21.22.41.25.63.41,2.67.81,5.34,1.2,8.01.17,1.18-.21,2.34,1.03,3.43.66.59.29,2.33.41,3.55.09.92-.31,2.03.97,2.53.19.07.29.5.33.78.41,3.16.78,6.33,1.18,9.49.1.8-.24,1.77.99,2.16.26.08.27,1.04.35,1.6.42,3.24.36,6.64,1.41,9.66.64,1.85.37,4.1,1.32,5.36,1.53,2.04.51,4.25,1.34,6.05.94,2.03.76,4.05.95,6.1.03.29.01.78.15.83,1.85.73.92,2.36,1.19,3.59.35,1.56.72,3.13.99,4.71.12.73.02,1.5.02,2.87Z"/>
      <path class="cls-2" d="m70.99,405.95c-1.53,0-4.34-1.17-5.07-1.99-.07-.08-.18-.23-.24-.22-1.91.41-3.4-.86-4.72-1.71-1.44-.93-3.55-.16-4.47-2.01-.06-.12-.3-.17-.47-.19-2.33-.41-4.66-.81-7-1.2-.87-.15-1.96.21-2.3-1.07-.02-.09-.15-.18-.25-.2-2.03-.51-4.03-1.12-6.08-1.48-2.91-.51-6.2-.16-8.69-1.43-2.73-1.39-5.47-.34-7.92-1.26-4.03-1.5-8.1-.66-12.14-.72-1.62-.02-3.28.61-4.87,1.12-.54.17-.91.86-1.36,1.31-.16-.11-.32-.21-.47-.32,0-.99,0-1.98,0-2.97,0-111.7,0-223.4,0-335.1,0-5.69,0-11.37.04-17.06,0-.51.42-1.01.64-1.52.22.5.62,1,.64,1.52.1,2.22.07,4.45.15,6.68.03.83-.45,1.95.98,2.26.16.04.24.72.25,1.11.05,1.17,0,2.35.06,3.52.38,6.47.78,12.94,1.17,19.41.01.18-.05.41.03.52,2.39,2.92.65,6.42,1.34,9.55,1.21,5.48.93,11.04,1.15,16.58,2.36,3.52.78,7.51,1.33,11.25.04.29.01.77.15.83,1.74.73,1.04,2.24,1.1,3.45.11,2.16-.34,4.45.19,6.48,1.31,5.04.76,10.14,1.05,15.2,0,.12-.03.28.03.34,2.35,2.26.81,5.17,1.29,7.74,1.11,5.93,1.09,11.94,1.2,17.94,2.34,3.71.81,7.86,1.35,11.78.02.17-.03.45.06.51,2.17,1.45.78,3.68,1.22,5.51.04.17.02.35.03.53.38,6.3.76,12.6,1.16,18.89.02.31.21.62.34.92.3.67.84,1.32.88,2.01.13,2.52.06,5.04.12,7.56.02.74-.32,1.67.91,1.96.22.05.34.9.35,1.38.09,3.1-.21,6.27.29,9.3.74,4.51.9,9.01.93,13.55,0,.18-.05.45.04.51,2.26,1.5.98,3.79,1.23,5.71.23,1.79-.38,3.81.22,5.41,1.4,3.74.55,7.55.94,11.29.1.99-.06,2.01.08,2.98.09.59.55,1.12.8,1.69.19.44.41.91.43,1.37.06,2.46.04,4.92.1,7.39.03,1.11-.33,2.37,1.07,3.09.23.12.18.86.19,1.32.08,3.16-.24,6.4.31,9.47.8,4.49.83,8.96.92,13.47,0,.23-.01.58.12.67,2.36,1.53.91,3.79.93,5.67,0,.84-.83,1.99-1.33,2.81-1.25,2.07-.84,4.16-.77,6.21.08,2.22.52,4.45,1.07,6.61.29,1.13,1.22,2.08,1.78,3.16.73,1.41,1.33,2.89,2.09,4.29.28.51.87.83,1.3,1.26,1.52,1.51,2.36,3.57,4.5,4.63,1.21.6,1.84,2.28,2.9,3.3.8.76,1.88,1.22,2.81,1.84.88.59,1.74,1.22,2.6,1.84.18.13.32.32.52.39,1.21.45,2.51.74,3.63,1.35,1.18.64,2.18,1.58,3.27,2.39.09.07.2.11.31.14,1.66.4,3.33.81,5,1.19.88.2,1.85-.23,2.47,1.08.23.48,1.95.28,2.99.33,1.92.1,3.09,1.29,3.09,3.2,0,17.12,0,34.24,0,51.36,0,.75,0,1.5,0,2.35Z"/>
      <path class="cls-2" d="m4.94,411.4c6.16,0,12.11-.4,17.96.18,2.61.26,5.54,0,7.84,1,2.27.98,4.58.58,6.63,1.39,1.31.52,2.99.28,3.76,1,1.53,1.41,3.47.66,4.83,1.47,2.5,1.5,5.52,1.27,7.81,2.52,1.55.85,3.59.4,4.89,2.21.7.97,2.76.96,4.21,1.38.7.2,1.74-.2,1.84,1.08,0,.11.36.22.56.28,1.31.39,2.69.6,3.9,1.19.75.37,1.71,1.29,1.73,1.98.14,5.26.08,10.52.08,15.92-2.48.38-5.17.14-7.01,1.28-1.44.89-3.64.31-4.45,2.27-.04.11-.3.14-.47.18-1.72.41-3.51.62-5.12,1.28-1.57.65-3.23,1.53-4.3,2.78-.57.67-1.08.74-1.69,1.03-.47.22-.81.69-1.26.96-.79.49-1.78.76-2.4,1.4-1.65,1.69-4.04,2.62-4.99,5.06-.24.62-1.19.96-1.77,1.48-.23.2-.48.53-.5.81-.1,1.53-1.4,2.13-2.23,3.1-.57.67-.93,1.55-1.3,2.37-.66,1.48-1.19,3.01-1.89,4.47-1.44,3.04-1.1,6.27-.97,9.45.08,1.85.53,3.71,2.09,5.05.23.2.22.74.23,1.13.02,1.17.1,2.36-.04,3.51-.08.61-.59,1.15-.87,1.74-.16.34-.32.72-.34,1.09-.05,1.35,0,2.7-.07,4.04-.37,6.47-.78,12.94-1.17,19.41-.01.18.05.43-.04.52-2.45,2.23-.75,5.15-1.26,7.7-.19.96-.04,1.99-.05,2.98,0,.29.04.78-.09.84-2,.92-1.06,2.71-1.15,4.11-.19,3.16.37,6.46-.38,9.45-1.02,4.03.26,8.33-1.1,11.94-1.52,4.03-.31,8-1.26,11.82-1.12,4.5-.74,9.05-1,13.58-.03.5-.56.96-.79,1.47-.2.44-.41.92-.42,1.39-.07,2.52,0,5.05-.14,7.56-.05.81-.63,1.57-.94,2.37-.14.36-.27.75-.28,1.13-.09,3.57.29,7.23-.35,10.7-.8,4.31-.76,8.6-.92,12.92-.01.28-.31.54-.46.82-.26.49-.71.98-.74,1.49-.1,2.22-.05,4.46-.13,6.68-.05,1.27.4,2.69-1.02,3.64-.25.17-.18.88-.2,1.34-.09,2.99.2,6.04-.32,8.95-.81,4.53-.86,9.06-.95,13.61,0,.18.03.44-.06.51-2.3,1.62-.93,4.03-1.21,6.05-.33,2.36.25,4.89-.29,7.18-.94,3.94.13,8.23-1.15,11.77-1.46,4.01-.55,7.84-1.13,11.69-.03.23.03.51-.08.69-2.21,3.72-.72,7.86-1.4,11.75-.8,4.6-.11,9.5-1.32,13.82-1.28,4.61-.12,9.18-1.28,13.53-1.07,3.99-.57,7.95-.88,11.91-.02.29-.01.79-.13.83-1.83.59-1.04,2.11-1.11,3.24-.14,2.28-.07,4.57-.17,6.85-.02.42-.43.82-.65,1.23-.21-.42-.6-.84-.61-1.26-.07-2.75-.07-5.51-.07-8.27,0-110.54.01-221.08.02-331.61,0-.75,0-1.5,0-2.36Z"/>
      <path class="cls-2" d="m126.06,352.94c-10.12,0-20.25,0-30.37,0-2.28,0-3.3-1-3.3-3.22,0-10.2,0-20.39,0-30.59,0-.82.08-1.43.85-2.19,1-.99,1.42-2.64,1.92-4.06.52-1.47.91-2.85,2.72-3.37.85-.24,1.5-1.15,2.26-1.72.32-.24.71-.39,1.06-.6.48-.29.96-.59,1.44-.9.18-.12.31-.37.49-.4,2.17-.39,4.34-1.05,6.52-1.08,10.18-.11,20.36-.11,30.54,0,2.03.02,4.29.27,6.03,1.18,1.79.94,3.67,1.53,5.44,2.38,1.9.92,3.64,2.42,5.05,4.03.96,1.09,1.04,2.91,1.85,4.2,1.73,2.76.79,5.72.84,8.56.15,8.2.06,16.41.05,24.61,0,2.42-.75,3.17-3.2,3.17-10.06,0-20.13,0-30.19,0h0Z"/>
      <path class="cls-2" d="m183.3,483.04c-.24.4-.48,1.09-.95,1.53-.84.78-1.72,1.38-3.06,1.36-7.08-.09-14.17-.04-21.25-.05-16.33-.02-32.67.03-49-.14-4.54-.05-9.08-.75-13.42-1.14-.47-.48-.98-.85-1.27-1.35-.28-.51-.46-1.14-.47-1.73-.04-5.34-.02-10.67-.02-16.01,0-8.38,0-16.77,0-25.15,0-.81,0-1.61,0-2.57,1.86,0,3.59-.29,5.17.09,1.31.31,2.44,1.4,3.64,2.15.14.08.22.29.36.33,1.46.4,2.95.74,4.4,1.2.56.18,1.03.62,1.53.96.13.09.22.29.36.33,1.5.4,3.03.73,4.51,1.19.52.16.95.59,1.41.91.13.09.26.36.33.34,2.24-.63,3.72,1.47,5.8,1.6,1.7.1,4,.14,4.91,1.19,1.54,1.76,3.84.47,5.21,2.05.28.32,1.14.08,1.69.22,1.35.36,2.93-.46,4.11,1.2.4.56,2.12.12,3.21.29.57.09,1.07.57,1.63.79.51.21,1.06.39,1.6.45,3.99.4,7.98.75,11.97,1.15.37.04,1.01.26,1.04.47.17,1.16,1.03,1.9,1.49,2.84.72,1.48.88,3.23,1.44,4.8.25.69.85,1.28,1.38,1.83,2.05,2.1,4.13,4.18,6.23,6.23,1.39,1.35,2.71,2.82,4.29,3.9,1.65,1.14,3.6,1.84,5.38,2.8,1.03.56,1.99,1.25,2.99,1.88.26.17.53.47.8.47,1.23-.03,1.51.71,1.68,1.73.1.58.53,1.11.9,1.84Z"/>
      <path class="cls-2" d="m136.95,427.95c-1.48-.08-3.28.33-3.82-.31-1.57-1.88-4.36-.25-5.66-2.33-.07-.11-.31-.13-.48-.16-2.27-.41-4.54-.8-6.8-1.25-.43-.08-.81-.41-1.19-.66-.18-.12-.27-.43-.45-.48-1.72-.43-3.46-.82-5.18-1.24-.8-.19-1.97.37-2.18-1.11-.02-.15-.72-.25-1.11-.3-.88-.11-1.92.2-2.27-1.11-.05-.2-.83-.16-1.24-.3-.6-.2-1.18-.48-1.78-.7-1.71-.61-3.4-1.34-5.16-1.74-1.5-.34-3.85-2.27-4.46-3.72-.64-1.53-1.6-2.92-2.37-4.4-.2-.39-.26-.89-.26-1.33-.01-8.15-.01-16.29.01-24.44,0-.48.09-1.08.37-1.43,1.04-1.3,1.42-2.92,3.97-2.89,18.84.23,37.69.16,56.54.19,2.96,0,3.58.63,3.62,3.64.03,2.05,0,4.09,0,6.14.2-.1.41-.19.61-.29.64.86,1.26,1.74,1.92,2.59.56.72,1.08,1.49,1.75,2.08,1.33,1.17,1.35,3.65-.04,4.91-.15.14-.28.36-.31.56-.28,2.15-1.87,3.27-3.39,4.48-.53.42-1.1.95-1.32,1.56-.46,1.25-1.66,1.48-2.51,2.2-.54.45-1.01,1-1.46,1.55-.93,1.13-1.79,2.3-2.75,3.41-.39.46-.98.74-1.43,1.16-1.52,1.4-3.11,2.74-4.49,4.27-.78.87-.93,2.46-1.81,3.05-1.78,1.19-1.49,3.63-3.45,4.76-.86.5-.96,2.32-1.45,3.66Z"/>
      <path class="cls-2" d="m70.99,346.41c-.54,0-1.12.09-1.16-.01-.56-1.63-1.95-1.05-3.06-1.23-.89-.14-2.08.34-2.38-1.1-.01-.07-.19-.13-.3-.15-1.78-.41-3.56-.81-5.33-1.22-.72-.17-1.74.22-1.87-1.06-.01-.13-.46-.22-.72-.31-1.22-.41-2.53-.66-3.64-1.28-.83-.46-1.4-1.4-2.1-2.12-.15-.15-.32-.31-.51-.38-1.15-.44-2.42-.68-3.44-1.31-1.2-.75-2.24-1.78-3.25-2.8-.66-.67-1.05-1.62-1.74-2.25-1.64-1.5-3.06-5.54-1.99-7.21,1.34-2.08.65-4.17.64-6.24-.01-1.68-.61-3.35-.79-5.04-.16-1.49.81-2.38,1.99-3.14.36-.23.51-.79.79-1.06,1.86-1.26,4.5-.62,6.09-2.61.06-.07.22-.07.33-.09,2.08-.39,4.16-.78,6.24-1.16.23-.04.62.05.68-.06,1-1.86,2.8-1.12,4.29-1.37.12-.02.29,0,.34-.06,1.85-2.4,4.48-.71,6.59-1.43.82,1.11,1.56,2.09,2.28,3.09.25.35.47.74.64,1.14.11.26,0,.79.12.83,2.27.81,1.21,2.72,1.22,4.1.09,10.83.05,21.67.05,32.5,0,.99,0,1.98,0,3.03Z"/>
      <path class="cls-2" d="m66.51,491.01c-.93-.25-2.52.92-3.33-.99-.04-.11-.29-.15-.45-.18-2.3-.39-4.6-.73-6.88-1.18-.55-.11-1.01-.67-1.56-.86-.74-.25-1.53-.35-2.3-.49-.91-.16-2.09.32-2.45-1.09-.03-.11-.26-.21-.41-.24-1.68-.39-3.36-.75-5.03-1.15-.33-.08-.63-.32-.93-.51-.42-.27-.79-.72-1.24-.81-1.62-.32-2.63-1.2-2.54-2.88.08-1.73-.2-3.4.71-5.19.63-1.26-.05-3.24-.28-4.87-.34-2.45-1.03-4.78.37-7.28.8-1.43,1.97-2.31,3-3.39,1.18-1.25,2.46-2.42,3.76-3.55.41-.35,1.04-.43,1.52-.71.42-.24.77-.58,1.17-.86.26-.18.52-.36.81-.48,1.46-.6,2.89-1.08,4.14-2.27,1-.95,2.95-.87,4.06-1.77,1.46-1.16,3.82-.03,4.75-2.12.03-.08.2-.11.32-.13,2.35-.37,4.7-.73,7.31-1.13,0,.66,0,1.28,0,1.9,0,11.26.01,22.52-.03,33.77,0,.94.58,2.18-1.11,2.65-.5.14-.65,1.4-1.05,2.09-.66,1.16-1.39,2.27-2.3,3.73Z"/>
      <path class="cls-2" d="m55.78,299.34c-1.17.3-2.65-.34-3.32,1.23-.08.18-.65.16-.99.23-1.79.37-4.02.22-5.25,1.26-1.35,1.14-3.13.67-4.03,1.6-1.5,1.54-3.03,2.22-5.22,2.02-.16-1.78.75-2.87,2.02-3.81.5-.37,1.17-.8,1.32-1.32.36-1.33,1.6-1.51,2.43-2.22.45-.39.86-.88,1.16-1.39.88-1.51,3.06-1.41,3.74-2.57.8-1.36,2.2-1.13,3.12-2.08,1.31-1.37,4.82.33,5.01,2.34.14,1.5.03,3.02.03,4.72Z"/>
      <path class="cls-2" d="m36.94,487.52c1.87-.03,3.72-1.01,5.02,1.03.41.63,1.62,1.03,2.47,1.04,1.99.02,3.23,1.86,5.39,1.75,1.86-.09,3.78.87,5.98,1.45,0,1.61.16,3.53-.08,5.4-.09.7-1.12,1.3-1.78,1.89-.39.35-.89.6-1.22.81-6.75-2.66-11.29-7.99-15.78-13.37Z"/>
      <path class="cls-2" d="m58.96,292.28c.3-.71.73-1.75,1.24-2.96h7.26c-.49,1.15-1.01,1.99-1.2,2.9-.22,1.07-.24,2.21-.17,3.31.11,1.71-1.28,2.38-2.33,2.66-2.77.74-3.9-.33-4.09-3.2-.05-.82-.41-1.61-.71-2.71Z"/>
      <path class="cls-2" d="m66,494.89c.05.89.06,1.41.12,1.92.15,1.19-.26,2.37.77,3.55.54.61.1,2.09.1,3.3-1.62-.1-3.05.47-4.36-.92-.49-.52-1.77-.29-2.81-.42,0-2.16-.06-4.36.07-6.55.02-.32.91-.81,1.43-.85,1.5-.11,3.01-.04,4.68-.04Z"/>
      <path class="cls-2" d="m36.28,323.55c-.73-.54-1.36-1.01-2-1.48-.2-.01-.4-.03-.6-.04.43-1.14.76-2.34,1.36-3.38.14-.24,1.49-.19,1.8.16,1.5,1.69,1.44,1.74-.56,4.75Z"/>
      <path class="cls-2" d="m190.19,272.86c-.79-.26-1.41-.27-1.55-.54-.94-1.81-2.38-3.42-2.43-5.59-.01-.46.38-.92.59-1.38.29.4.54.83.87,1.19,1.06,1.15.43,3.09,1.98,4.08.37.23.3,1.16.53,2.25Z"/>
      <path class="cls-2" d="m33.98,473.35c.06-1.35.11-2.42.16-3.44,3.36-.42,3.95.09,3.68,3.27-1.15.05-2.33.11-3.84.17Z"/>
      <path class="cls-2" d="m32.99,313.45h2.08c.46-.48.83-.88,1.21-1.28.21.53.51,1.04.59,1.58.08.62-.04,1.27-.08,2-.62.08-1.18.19-1.75.21-.58.02-1.15-.06-1.91-.1-.05-.82-.09-1.59-.14-2.42Z"/>
      <path class="cls-2" d="m68.74,506.44c1.11-.18,1.98-.11,2.29,1.3.08.38.75.64,1.16.94.37.27.75.53,1.13.8-.43.26-.84.69-1.3.75-2.71.34-3.73-.85-3.27-3.79Z"/>
      <path class="cls-2" d="m21.72,761.83c-.48,1.09-.69,2.36-1.44,3.06-1.49,1.41-1.17-1.91-2.58-1.05-.07-2.52.78-2.99,4.02-2.02Z"/>
      <path class="cls-2" d="m36.84,477.22v2.34h-3.61c-.61-2.88-.12-3.2,3.61-2.34Z"/>
      <path class="cls-2" d="m17.83,10.75c.51-.59,1.01-1.17,1.61-1.86h1.85v3.58c-.77.08-1.43.15-1.79.18-.69-.78-1.19-1.36-1.66-1.9Z"/>
      <path class="cls-2" d="m17.82,30.51c-.27-2.78.08-3.03,3.51-2.66v2.84c-1.17-.06-2.29-.12-3.51-.18Z"/>
      <path class="cls-2" d="m19.82,779.54c.13.91,2.46.59,1.3,2.23-.34.48-1.09,1.9-2.21.67-.47-.51-.79-1.15-1.18-1.74.66-.36,1.31-.73,2.09-1.17Z"/>
      <path class="cls-2" d="m68.71,285.91c-.49-3.09.7-4.57,3.06-4.07.26.06.64.69.62.7-1.17,1.11-2.38,2.19-3.68,3.37Z"/>
      <path class="cls-2" d="m34.18,769.46c0-1.94-.04-3.26.03-4.58.01-.3.36-.59.55-.88.22.27.61.53.63.81.07,1.21.09,2.43,0,3.63-.02.28-.59.52-1.2,1.02Z"/>
      <path class="cls-2" d="m35.42,28.19c-.64-.5-1.28-.77-1.28-1.04-.01-.92.2-1.85.32-2.77.32.2.88.36.91.59.11.84.04,1.71.04,3.22Z"/>
      <path class="cls-2" d="m194.26,283.22c-.43.52-.71.84-.99,1.17-.24-.47-.63-.92-.68-1.41-.04-.36.37-.76.58-1.15.33.42.65.84,1.08,1.39Z"/>
    </g>
  </g>
</svg>