<svg id="Layer_1" data-name="Layer 1" xmlns="http://www.w3.org/2000/svg" viewBox="0 0 592.74 137.5">
  
  <g id="m4FTvh.tif">
    <g>
      
      <path class="cls-1" d="m392.37,41.23c-.38-1.85-.61-3-.87-4.25h10.42v4.01h111.79c2.54-4.45-1.53-10.63,4.85-15.1,1.37,11.28,2.66,21.94,4,33.07h67.87v7.99c-.79.15-1.8.49-2.8.49-21.64.03-43.29.2-64.93,0-29.11-.28-58.22-1.37-87.32-1.12-19.67.17-39.32,2.12-58.98,3.14-22.84,1.19-45.69,2.23-68.54,3.34-4.01.2-8.03.66-12.04.6-8.78-.13-17.56-.39-26.33-.86-4.52-.24-7.32.54-8.83,5.69-4.58,15.61-1.45,12.96-18.28,13.88-1.85.1-3.71.14-5.56.08-6.87-.22-9.85-3.09-10.13-9.83-.12-2.91-.02-5.83-.02-9.21-11.32-1.97-20.5,1.69-28.27,8.91-5.05,4.69-10.09,9.84-9.92,17.53.07,3.18.6,6.41,1.38,9.51,2.25,8.96.05,9.72-7.9,11.46-9.62,2.11-18.32.34-24.1-9.06-7.96-12.93-18.77-12.94-32.64-9.47-19.27,4.82-38.34,10.48-57.41,16.03-12.16,3.54-24.09,7.72-34.04,16.38-4.65-5.23-6.49-11.11-6.79-17.52-.67-14.62-6.63-27.57-12.49-40.62-4.32-9.61-8.09-19.46-12.45-30.05,9.35-.37,17.36-.23,25.24-1.18,5.02-.6,9.84-2.83,14.76-4.31,2.6-.78,5.21-2.21,7.8-2.18,28.29.26,56.58.68,84.86,1.3,2.73.06,5.57,1.49,8.07,2.81,2.28,1.21,4.09,3.29,6.27,4.72,4.94,3.24,10.1,5.87,16.36,5.33,7.83-.68,15.66-1.28,23.5-1.72,5.25-.3,9.48-2.62,13.09-6.11,1.51-1.46,2.43-3.55,3.58-5.37,3.87-6.1,7.67-12.24,11.66-18.25.44-.66,1.96-.99,2.9-.87,11.53,1.53,21.62-4.32,32.61-5.83-.02-4.31-2.03-6.26-5.96-6.74-2.27-.28-4.55-.9-6.69-1.72-1.41-.53-2.58-1.68-3.6-2.72,5.92,1.82,11.06,5.53,17.83,3.12,1.47-.52,4.64.48,5.36,1.73,1.81,3.15,4.16,3.22,7.04,2.66.91-.18,1.79-.52,2.7-.63,6.02-.75,10.74-.42,9.81,7.83-.06.57.14,1.16.32,2.48h16.22l.19,1.51c-1.91.56-3.83,1.1-5.74,1.68-17.27,5.25-35.04,5.17-52.79,4.51-4.2-.16-6.98,1.62-9.53,4.07-1.12,1.07-2.04,4.26-1.43,4.86,1.88,1.84,4.51,4.04,6.89,4.09,16.54.32,33.08.13,49.62.1,34.32-.06,68.64-.11,102.96-.17,2,0,4,0,6.44,0Zm-163.45,31.71c0,3.64.11,6.86-.03,10.07-.19,4.45,1.98,6.67,6.3,6.69,5.71.02,11.43-.11,17.14-.36,1.06-.05,2.71-.76,3.01-1.57,1.84-4.92,3.36-9.96,5.23-15.7-5.68-.37-10.41-.86-15.15-.94-4.35-.08-5.57,1.55-4.09,5.67,1.04,2.92,2.83,5.57,4.28,8.35-.38.22-.75.45-1.13.67-2.74-4.51-5.48-9.01-8.49-13.96-1.69.26-4.11.63-7.07,1.08Zm-44.56,2.48c.1-7.19-4.48-11.51-10.02-9.78-3.69,1.15-7.27,3.31-10.29,5.76-3.5,2.84-3.18,9.86-.01,13.91,2.8,3.58,8.23,5.38,11.51,3.36,5.28-3.25,8.01-8.27,8.82-13.25Z"/>
      
      
    </g>
  </g>
</svg>