<svg xmlns="http://www.w3.org/2000/svg" xml:space="preserve" width="180.104" height="181.242" viewBox="0 0 47.653 47.954"><path d="m27.466 32.344.45.226-.6.6-.45.976-.226.9v.15q.376 3.002.6 3.227.3 1.126 1.277 1.5l1.726.45q-.15.827.375 1.427.6.826 1.876.826.075.9.675 1.576.676.6 1.8.45l1.352 1.5 1.8-.224.827-.376 1.05-.675.3.6.226 1.426v.3l.225.226 1.05.45.676.075h.9l.376-.225.375-.075.525-.376.15-.15q1.2-1.2 1.35-2.251v-1.2l-.524-1.126-.45-.6-.076-.076.076-.075-.526-.525.15-.3 1.8-4.878q.15-.75.677-1.201l.375-.3-.375-1.126q-.45.075-.826.375-.675.676-1.125 1.726l-.75 2.177-1.202 3.302-1.95 1.726-2.928 1.65-.9.45-.826.076-.45-.525q1.5-.376 1.95-.9l.226-.226-1.125-.675-.75.45-1.426.3-1.126-.15-.3-.75q1.426-.15 2.176-.826l.15-.225-1.05-.676-1.276.45-.676.15-1.5-.3q-.226-.3-.076-.9l2.852-.9-.675-1.051-1.726.45v-.075l-1.201.375-.976.075q-1.05-.15-1.35-1.05l-.526-2.852.6-1.5.826.825-.15 1.275.3.976q.3.375.75.375l2.627-1.05 2.852-1.801.075-.15q.525-.6.75-2.027.15-1.35-.3-2.176-.525-1.05-1.8-.9l-.076.074h-.225l-.375.226-.6-.6q.675-.751 1.575-1.277l.75-.375h.15l1.952-.375 1.876-.375-.225-1.276-1.876.375-2.252.526-1.05.45-.45.3-1.802 1.876v-.075l.076-.075-.526-.825 2.252-2.252-.901-.825-9.306 9.305.9.826 1.877-1.876v-.15l.075-.075.15-.15.075.074.225-.225.526.075zm-1.2-9.906h.074l-.075-.075zm0 0-1.65.3.374-1.575-1.65.3.375-1.576-1.651.3.375-1.576-1.651.3.375-1.576-1.65.3.374-1.575-1.65.3.375-1.576h.075l-5.18-5.253-.074.075-.15-.15-3.001-1.501-1.426-.826Q4.428 4.353 1.876 1.5L.676.151.376 0 .301.075.225.3 0 1.126l.075 1.426.45 2.551.45 1.05.977 1.877-.076.075.45.45v.15l19.512 19.512.226.375.075.225.225.225.075.075.225-.075.075.075.15-.15.525.075.45.15.45.45.15.6.076.226v.075l4.953-4.953-.675-.675v.075l-1.651.3.375-1.576h.075l-.075-.075v.075l-1.651.3zm-1.276-1.275h.075l-.075-.075zm-1.275-1.276h.075l-.075-.075zm-2.552-2.552h.075l-.075-.075zm1.276 1.276h.075l-.075-.075zm-2.552-2.551h.075l-.075-.075z"/></svg>