<svg xmlns="http://www.w3.org/2000/svg" xml:space="preserve" width="180.309" height="187.655" viewBox="0 0 47.707 49.65"><path d="m1.737.093-.588.836Q.035 2.539.004 4.614q-.124 3.778 3.623 7.153l6.13 5.45L30.105 36.14l3.963-3.964L2.077.062 1.956 0l-.093.031zm33.445 36.355q-.186.186-.464.155-.28.03-.465-.155-.186-.186-.186-.495 0-.248.186-.434.217-.217.465-.217l.464.217.186.434q.03.279-.186.495m-3.096 1.61.712.155q.743.186 1.053.434.96.712 1.64 1.703.93 1.3 3.407 3.407l2.199 1.455 1.455.96.34.588.094.867q-.031.744.093 1.053l.65.713q.496.31.805.247.279-.03.65-.402l2.2-2.26.185-.31q.217-.403.093-.65l-.774-1.023-12.14-12.14-3.932 3.934 1.146 1.208zm13.284 8.578-.433.186q-.28.03-.465-.155t-.185-.495q0-.248.185-.434.217-.216.465-.216.279.03.464.216l.186.434z"/></svg>