<svg xmlns="http://www.w3.org/2000/svg" xml:space="preserve" width="170.593" height="144" viewBox="0 0 45.136 38.1"><path d="M20.62.65Q19.97.053 19.213 0q-.758 0-1.245.486l-1.623 1.679q-.488.488-.434 1.19 0 .703.595 1.299-.649 0-1.19.434l-1.191-.704-1.73 1.623h.053l-1.244 1.3.758 1.298-.218.541-1.352-.379q-.758.11-1.3.595L.704 16.56 0 17.913q0 .812.65 1.353l5.303 5.25q.65.54 1.407.487.758 0 1.3-.649l6.981-8.66q.542-.595.488-1.46-.056-.92-.595-1.462l-.11-.054q.217 0 .38-.163 5.573 4.872 7.468 7.2l3.247 3.192-.542 1.136-.162.704v.107q.27 2.274.434 2.437.27.866.973 1.19l1.353.324q-.108.65.272 1.083.486.65 1.46.65.054.702.487 1.19.54.487 1.408.379.378.866 1.028 1.137l1.407-.163 1.515-.758 5.034 5.088q.702.649 1.676.649a2.4 2.4 0 0 0 1.679-.65q.595-.703.595-1.678 0-.974-.595-1.623l-4.817-4.816 1.407-3.788a1.76 1.76 0 0 1 .487-.921l.326-.216-.326-.866-.595.324-.866 1.3-.595 1.677-.92 2.543-1.516 1.3-2.219 1.298-.703.326-.65.053-.324-.379 1.515-.702.162-.163-.865-.542-.595.326-1.084.27-.865-.108-.216-.595q1.083-.11 1.677-.65l.109-.163-.812-.54-.974.378-.542.108-1.137-.216q-.16-.271-.054-.703l2.165-.704-.486-.812-1.353.379v-.054l-.921.27-.758.054q-.757-.108-1.028-.811l-.379-2.165.433-1.191.65.649-.108.974.216.758.595.272 2.002-.813q1.624-.812 2.165-1.352l.109-.11q.378-.486.542-1.569.109-1.027-.218-1.677-.432-.812-1.407-.704l-.054.11h-.162l-.27.161-.488-.487 1.246-.975.54-.27h.109l1.515-.325 1.461-.27-.162-.974-1.461.27-1.732.432-.812.326-1.407 1.137-3.302-3.086q-2.272-1.84-7.306-7.251a1.8 1.8 0 0 0 .272-.974q.649.378 1.244.379.703 0 1.136-.38l1.678-1.678q.488-.595.432-1.351-.107-.759-.702-1.3z"/></svg>