<svg xmlns="http://www.w3.org/2000/svg" xml:space="preserve" width="308.813" height="308.813" viewBox="0 0 81.707 81.707"><path d="m53.267 46.27-.338-.225v.225l-.226.339-.113.226-.112.113-10.271-13.092-2.144-2.257L16.816 8.35l-5.53-5.642L8.351 0 5.869.226Q4.401.564 2.934 2.031l-.79.678Q.564 4.401.339 5.869L0 8.351l2.934 2.822 5.53 5.53 23.36 23.135 2.258 2.257 12.753 10.157-.113.113-.226.677-.338.45-.452.453.113.112-1.128 2.37-.34 1.467v.226q.565 4.74.904 5.079.564 1.805 2.03 2.482l2.823.678q-.226 1.354.564 2.257 1.016 1.354 3.047 1.354.113 1.467 1.016 2.483 1.128 1.015 2.934.79.79 1.805 2.144 2.37l2.934-.34 3.16-1.58.113.114.226-.113 1.354-.338 2.822 2.82-.565 1.017-.79 1.58q-.225.338.339 1.354l.45 1.016 1.356.564 3.272-2.71 2.596-2.256 2.483-2.821 2.144-2.71-.677-1.241-.79-.677-1.58-.452-1.241.79-1.355.903-2.595-2.595.225-.226-.338-.34 2.934-7.9q.226-1.127 1.016-1.917l.677-.451-.677-1.806-1.242.677q-1.128 1.016-1.805 2.708l-1.242 3.499-1.918 5.304q-.34 1.129-3.16 2.709l-4.627 2.708-1.467.677-1.355.113-.677-.79q2.37-.677 3.16-1.467l.339-.338-1.806-1.13-1.241.678-2.257.564-1.806-.225-.452-1.242q2.258-.225 3.499-1.354l.226-.34-1.693-1.127-2.032.79-1.128.226-2.37-.452q-.34-.564-.113-1.467l4.514-1.467-1.015-1.693-2.822.79v-.113l-1.918.565-1.58.112q-1.58-.225-2.145-1.692l-.79-4.515.226-.79v-.225l.452-1.016.225-.451.339-.565.45-.564.34-.564.338-.113.79.677-.564 1.016-.338.338-.113.565-.226.338.339.226-.226 2.03.45 1.58 1.243.565 4.175-1.692 4.514-2.822.226-.225q.79-1.016 1.129-3.273.225-2.145-.452-3.5-.903-1.692-2.934-1.466l-.113.226h-.338l-.79.677-.226.339-.34.112-.224.226-.903-1.016.338-.338.452-.564.113-.113 2.595-2.032 1.129-.564h.226l3.16-.677 3.047-.564-.34-2.032-3.046.565-3.611.902-1.693.678z"/></svg>