<svg xmlns="http://www.w3.org/2000/svg" xml:space="preserve" width="403.153" height="150.854" viewBox="0 0 106.668 39.914"><path d="M61.085 5.438 62.82 6.71l.116.116V8.33l7.173 2.314.231-.116 3.703-.231.23-4.744zm-43.731 6.015.81-1.62v-.115l7.867-6.71.81-.347-1.042.231-6.247 5.322h-.347v-.116l-3.702.695h-.116l-.116-.116v-.232l-.115-.115.115-.116.116-.116 2.892-.578 7.636-6.479.116-.115 1.62-.348h.115l1.157.348h.116v.115l.115.694-.115.116v.116l-.116.115h18.626L49.053.116 49.17 0l14.693.116.115.115h.116l.231.579h.348l.23.116v.115l.117.116.115 1.041 15.734-.231.232.115v.116l.462 1.273v.115l-.115.116.231 2.198v3.471l-.231 2.892-.232-.115v.115l-1.735.347-.694-.347-.347-.115V5.785h-.232v-.116h-.462v3.818l.115-.116v3.124h.232v.231l.347.116.463.231 1.272.116h1.041l.579-.232v-.23h.231l.116-.926V8.098l4.05-2.082.23-.463.116-.115h.116l.116-.116h2.545v.347l.231.925.116.116.463 1.62.115.231.116.116v.231l.231.81v.463l.232.116v1.272h.115v.463l.116.231v.347l.232 1.042v.694l.115.115v1.157l.116.116v.926h.116v.347l.231 1.157.116.115v1.62h.578l-.463-3.934v-.578l-.115-.231v-1.273l-.232-.116v-1.272l-.115-.232v-.231l-.116-.694v-.579h-.116l-.115-.81v-.23h-.116v-.232l-.116-.463-.116-.116v-.347l-.694-2.198-.115-.231-.116-.463-.116-.347-.115-.347h-.347v-.116h-1.736l-.231-1.041v-.232l.463-1.156.115-.116h14.924v.116l.116.115.694 1.389.116.23-.116.232-.115.232.347.578h.231l.116-.116h.231l.116.116v.232l.347 1.388v.115l-.81 1.852.347 1.966 1.273.579h.115l.116.115.231 1.273.116.116v.231l-.81.926-.115.115-.232.116h-.231l.231 5.09.81.348h.116v.115l.463.926v.347l-.579 1.272-.116.116-.694.116-.347 4.975h.579l.115.115.579 1.157v.232l-.579 1.156-.115.116h-.116l-.81.116-.578 2.776.81 1.273v.231l-.579 1.273-.116.116v.115l-.115.116-1.389.116v1.62h-.115l-.81.347h-.347l-2.43-.116-.115.463v.347l-.232.115-.116-.115-3.817-.116v.81l-.232.116-.115-.116-.116-.116H92.9l-.115-.116-.116-.115v-.463h-1.273l-.115.116h-.116l-.116-.116-1.735-.578-.116-.116h-.116l-.23.116-.926-.347-.116-.232v-.116l.116-.115v-.116l-.116-.116.116-2.198h-1.273l-.116-.231-.115-.232v-1.735q-2.893-.347-5.9 0l-4.628.81-4.744.347-5.437-.81-2.083-.81-1.966-1.272q-1.736-1.042-3.471-1.736l-2.198.463-.116.116h-.231l-.579-.694h-.578l.115-.926v-.463l.116-.347v-.81l-.347-.231-.231-.578.115-.116v-1.967h-.462v1.273l-.116.231v1.504l.347.347v2.083h-.116v.231l-.115.231v.232l-.348 3.355v.231l-1.04 1.389-.116.115-7.867-.115-.116-.116-.347-.81v-.231l.463-.926-.116-.347-.81-.926v-.925l.578-.463-.23-2.66-.695-.348v-1.388h.116l.578-.463v-1.62H30.08l-.347.926-.232.231-.925.116h-.116l-.694-.463-.116-.115-.463-.695H14.114v-8.33h1.967l.579-.925.115-.116h.579zm44.078 5.438q7.057 2.545 12.726 2.198l3.702-.578 3.702-.695 4.165-.23.695-.926-26.84-.347zm19.9 3.008-1.273.231-2.893.347-1.157.232 4.165.578 1.041-1.157h.116v-.115l.116-.116zm3.702.231v-.347l-3.24.116 3.356.463zm-64.44-8.677-.116 3.124 1.273.926.116.115h4.859l.115-.925v-.116l.81-1.157 1.273-1.041.116-.116 1.966-.462H43.5l.463-1.273h-.232l-.115-.231v-.116l-.232-.81v-.463l.347-.578.116-.116.116-.116h.115l-.23-.578-.232-.116v-.231l.231-1.041.116-.116.115-.116v-.115l.116-.116H28.807v-.231h-.231l-.81-.116-7.057 5.9zM.116 23.138v-.231l1.388-3.24L0 15.966v-.231l1.62-3.586h.115l.116-.116h.926L7.52 9.718h5.785l.23.116v.115h.117v18.858l-.232.116H7.983l-.116-.116-.116-.116v-1.85H1.735l-.115-.232zm62.473 2.082 1.504 1.157 1.735.81 3.703 1.272 3.933.81 6.132-.579 5.437-.23v-1.39l-4.396-.346-.116-.116h-.115l-.116-.116-.231-.81-12.38-1.503-.115.347-.116.115h-.231l-5.785-.231zm15.966 5.669-7.29.231-2.313-.694-4.165-1.62-3.818-1.967-3.008-1.272q-.81.694-1.735 1.272l.463.579 1.504-.694h.231l.116.115.231.463 2.314.81 2.083 1.504q2.43 1.504 5.321 2.198l5.67.232 3.239-.579 3.239-.694 1.967-.116v-.115z"/></svg>