<svg xmlns="http://www.w3.org/2000/svg" xml:space="preserve" width="271.319" height="254.561" viewBox="0 0 71.787 67.353"><path d="m68.359 67.15.1.203.707-.202 1.512-.705.504-.807.504-1.11.1-.201v-.201l-21.374-20.77h-1.613l.1-.303-1.31-1.31.1-.102v-.201l-1.11-1.11.405-.604-.101-.101.1-.101-2.42-2.42h-.2l.1-.1-3.831-3.832h-.202l-.1.1-.102-.1-.907.403-17.444-17.342.1-.302.102-.101.1-.404.1-.1-1.814-1.714 1.009-.505.1-.1v-.101l-.1-.101-.505-1.11v-.1h-.201l-1.21.504-.101-.1h-.202l-.403.302-.1-.303 2.217-2.42-.403-.302 4.537-4.436v-1.21l-.1-.202-.101.1L21.575.204 20.467.101l-.1-.101-4.64 4.638-.402-.1h-.202l-2.621 2.62-1.008-1.008h-1.11l-.604.605.1.404 1.21 1.21-1.814 1.915h.1v.202l-.1.1.1.102v1.41l.303.304-.807.806-.907-.1-.504.504h-.303l-.907.806-.101-.1-.1.1v-.1h-.102l-.605.604-.605-.302h-.403L1.31 17.544v.403l1.21 1.714-.1.202-.404-.101h-.202l-.1.1L.1 22.382l-.1.102.302.202.302-.202.101.303-.1.2.201.203.202-.1.403.403-.1.2.302.304.302-.202.504.504-.201.202.302.202.202-.202.1.202-.1.1.201.202.101-.1h.202l2.016-1.513.101-.101.101-.605.706.1.1-.1h.202l1.11-1.11.604.102 1.513-1.513.302.1 1.009-.906v-.202l-.101-.202.403-.403.504-.706-.1-.1 3.024-1.412-.403.706h-.101l-1.008 1.008v.202l.2.1-2.217 3.328-.1.1.302.202-.303.504v.504l.1.1 1.21.707h.102l.706-.706 2.52-3.327.202-.403.605 1.109.303.504 1.41 1.008.606.303 2.017.907 2.117.807 3.428 1.815 1.916 1.21q1.109.806 2.319 2.016l2.218 2.32 1.512 1.713.807 1.513.202.705.2 1.11.203.705.1.807.505.504.706.202h.2l3.833 3.83.907.404.1.1.1-.1.708-.101.1-.1-1.915-2.118h-.202l.1-.1-1.511-1.513.1-.1 4.033 4.032.1-.1.102.1.1-.1.505-.101.1-.101 1.21 1.21.102-.101h.2v-.1l1.21 1.209h.203l.1 1.714zM27.122 25.61l-1.412-.705-.907-.504-.908-.605-2.924-1.11-2.42-1.007-.302-.303-1.11-.806-.301-.505q-.605-1.008-.202-1.915l.1.1.102-.1.806-1.311 1.412 1.512h.1l.1.1.304-.1h.1l.303-.201 8.167 8.167zm9.78 12.403-.403-.202-.202-.403v-.303l-.1-.403-.202-1.31-.505-1.21-.806-1.513 2.924 2.924-.303.907.404.404-.404.1-.1.1-.303.404-.1.1z"/></svg>