<svg xmlns="http://www.w3.org/2000/svg" xml:space="preserve" width="323.253" height="322.87" viewBox="0 0 85.527 85.426"><path d="m54.742 49.58-.097-.098-.292.195-1.949-2.338-9.156-10.714-2.24-2.63L16.169 8.96l-6.136-6.136L6.916.292 4.676 0q-1.267.097-2.63 1.461l-.098.098-.487.487L0 4.676l.292 2.24 2.63 3.02 6.137 6.136 25.13 24.741 2.533 2.338 12.76 10.617-.292.292h.097l-1.948 4.092q-.487 1.071-.779 3.701l1.266.195.78-3.41 1.266-2.824v-.292l.097-.195q0-.292.292-.292l.195-.293.098-.097.78.584-.098.098-.293.292v.097l.293.195q-.78 2.143.39 2.922l2.727.195 2.24-.974.195-.195 1.656-2.922.876-2.727-.39-.877-1.07-.292-1.365.195-.194.097-.487.098h-.098l-.39-.585.39-.195h.098v-.097l1.948-1.072 3.117.39q1.071.39 1.17 1.364v1.266l-.39 1.266v-.097l-.683 2.045 1.364.682.974-3.214.877.195q.584.292.292 1.558l-.098.877-.39 1.363.683 1.267.194-.195 1.072-2.533.78.39q.39.39.097 1.364l-.39 1.46-.39.877.78 1.17.292-.098.876-2.24.682.487-.097.78-.682 1.07-1.656 3.312-1.85 2.143-6.137 2.143q-1.17.39-1.85 1.266l-.488.78 1.266.584.293-.584 1.363-.78 1.17-.39.194 2.436q.39 1.17 1.461 1.656l1.85.487q-.097.974.488 1.558.682.78 2.045.78l.682 1.753q.78.78 1.948.682.682 1.071 1.56 1.46.875.39 2.044 0l2.143-1.168.098.195.682-.39.681.682-.779 1.17-.682 1.655.195 1.17.877 1.07q.974.78 1.363.78l2.534-1.95 2.142-1.946.097-.097 1.948-2.143q2.046-2.047 1.95-2.534l-.78-1.364-1.072-.876-1.169-.195-.097.097q-.39-.194-1.559.585l-1.266.876-.585-.487.487-.68.195-.196 1.95-5.358q.194-.876.681-1.266l.487-.292-.487-1.364-.876.585-1.17 1.948-2.24 5.942q-.487 1.266-5.357 3.604l-.974.584-.974.097-.487-.487 2.24-.974.195-.292-1.266-.78-.78.39-1.558.39-1.266-.097-.293-.78 2.338-.974.195-.292-1.169-.682-1.364.487-.876.098-1.559-.292-.195-.974 3.117-1.072-.68-1.266-1.852.78v-.098l-1.364.39-1.07.097q-1.073-.195-1.462-1.17l-.195-2.434.974-.293.39 1.267.78.292 2.921-1.169q2.24-.974 3.117-1.948h.195l.682-2.338-.195-2.435-.974-.78.487-.973.292-1.46 3.701-.878-.194-1.364-4.189.974-1.07-.779q.193-1.266-.488-1.948-.682-.682-1.754-.78-.097-1.363-.876-2.045-.682-.487-1.656-.487l-.39-1.85q-.487-.975-1.753-1.462l-3.604-.39h-.292z"/></svg>