<svg xmlns="http://www.w3.org/2000/svg" xml:space="preserve" width="170.552" height="143.815" viewBox="0 0 45.125 38.051"><path d="M20.482.6q-.54-.541-1.297-.595t-1.243.487l-1.676 1.675q-.432.486-.433 1.19.055.701.542 1.242l-1.082.431-.918-.486-.379-.215-1.243 1.243H12.7l-.38.324-1.187 1.406.215.377.595.865-.216.594-1.406-.378-1.243.486-8.43 7.296Q0 17.082 0 17.84t.54 1.404l5.405 5.135q.54.65 1.35.594l1.297-.702 7.027-8.593q.486-.65.486-1.513-.056-.864-.703-1.406v-.054l.378-.16 5.458 5.079-1.35 2.81q-.378.756-.596 2.594l.92.108.54-2.377 1.189-2.432.594.54q-.485 1.513.325 2.053l1.891.11 1.513-.65.163-.163 1.135-2 .594-1.89q.108-.27-.216-.596l-.757-.214-.973.107-.487-.433 1.406-.756 2.163.27q.7.27.81.973l-.054.865-.271.865.055-.054-.487 1.405.918.485.703-2.214.595.107q.378.217.217 1.08l-.055.596-.324.973.486.864.162-.163.702-1.728.595.27q.216.27.054.918l-.27 1.027-.27.649.54.81.163-.107.648-1.567.432.377-.054.54-.432.757-1.19 2.27-1.296 1.513-4.216 1.46q-.81.27-1.296.918l-.38.54.92.38.216-.38q.323-.323.92-.54l.81-.27.162 1.676q.27.81.972 1.134l1.298.325q-.054.702.324 1.08.485.594 1.46.595.053.756.486 1.188.54.54 1.35.487l1.082 1.027 1.404-.054 1.513-.81 2.432 2.377q.702.703 1.622.703.972 0 1.675-.703.702-.702.702-1.675 0-.972-.702-1.567l-2.161-2.163 1.404-3.836q.109-.595.487-.864l.325-.216-.326-.973-.593.433q-.542.486-.866 1.35l-1.513 4.106q-.325.866-3.729 2.542l-.703.377-.647.054-.324-.324q1.188-.379 1.513-.703l.161-.16-.864-.542-.54.271-1.136.27-.864-.109-.216-.486q1.189-.215 1.674-.703l.11-.215-.811-.486-.973.323-.595.108-1.08-.217-.108-.701q1.567-.27 2.16-.703l-.486-.865-1.297.486v-.054l-.919.27-.756.11q-.757-.163-1.027-.866l-.108-1.675.648-.216q.056.65.272.918.215.27.54.217l2.053-.865q1.567-.648 2.163-1.298l.107-.053.486-1.567q.161-1.027-.162-1.73-.216-.324-.648-.54l.324-.649q.324-.54.216-1.026l2.594-.594-.162-.973-2.918.647-.703-.486q.108-.918-.378-1.404-.433-.432-1.189-.54-.108-.92-.649-1.406l-1.134-.324-.27-1.298q-.325-.701-1.19-1.027l-2.54-.27h-.162l-1.946 1.027-5.512-5.62.27-.972q.541.377 1.243.377.702.001 1.136-.487l1.674-1.674q.486-.486.433-1.243-.108-.757-.703-1.296z"/></svg>