<svg xmlns="http://www.w3.org/2000/svg" width="127pt" height="115pt" viewBox="0 0 127 115"><path d="M32.746 96.055q-.221 3.116 2.211 5.125 3.099 2.003 9.516 2.894l4.203.223 21.46-6.238-.663-.446-5.086-5.793-19.692 5.125-.222.446zm7.965-14.043v-.223l-20.356-1.781-.222.668c-.293 3.863 4.277 6.316 13.719 7.355l9.734 1.114 25.223-7.356a19.3 19.3 0 0 0-6.196-5.793l-21.68 5.793zm17.48-20.278-2.214-.89-21.239 5.57-.222.223-7.082-.89c-6.34-.743-11.282-2.009-14.82-3.79l-1.552 2.453q-.44 2.894 3.098 4.903l11.727 2.894 13.937 1.785 24.781-6.91zM17.258 36.328l.222-.668 4.645-5.793-1.547.223q-10.4 2.896-11.285 9.805c-.441 4.457.957 8.394 4.203 11.812 2.95 3.414 7.082 5.422 12.39 6.016l7.743.668 23.676-6.684V50.59c-2.657-3.266-6.121-5.274-10.399-6.016l-4.203-.445-2.656.223-.664.222-9.293 2.008h-.442l-7.082-3.121-.441-.223-3.098-5.125-1.547-1.117zM76.555.004h.218q7.084.89 17.922 13.371l14.606 19.164 2.21 3.566q2.215 1.787 7.083 2.23l7.52.892.886.89v6.688l-.223.668c-.144.297-.441.445-.882.445-9.293-1.188-15.196-2.453-17.7-3.79l-2.437-2.452-5.75-7.797-12.168-16.27q-7.525-9.136-10.403-9.804L44.25 15.16 28.984 34.547l.887.445 1.77 1.336 3.316.668 7.082-1.113 4.645-1.336 3.984-2.23 2.875-2.672 3.539-3.344 6.86-2.45h.222l.664.669c4.426 7.722 10.25 14.039 17.477 18.94l1.773 1.337.664.668-.445.668-3.54 4.683q-.442.446-.886.446l-.66-.223-2.438-1.562q-9.734-6.464-15.707-16.043l-1.992 2.449.223 5.347q6.638 4.681 10.176 14.266v.668l-.664.668-2.434.89q6.64 4.46 9.957 13.15v1.112l-.664.668-3.54.672q5.31 4.454 9.071 12.254v.89l-.883.673-6.64 2.226q5.314 4.905 8.629 12.48l-.442.891-.441.446-13.055 4.011 7.301.668c12.098-4.754 22.273-10.992 30.535-18.718l.883-.223 17.703 1.781h.219l.445-.223.442-.222.664.222.441.895v8.02l-.441.894-.664.223-.442-.223-1.773-1.562-14.16-1.336q-15.265 12.702-31.86 17.605h-.222l-7.743-.223-10.18-2.23h-10.84l-4.866-.668c-8.407-.89-14.16-3.195-17.258-6.906q-2.877-3.57-2.434-8.914l.442-1.563q-14.163-2.895-12.832-14.484l.222-2.453q-4.868-2.003-7.082-5.348-2.878-3.341-2.21-8.246c.144-2.523 1.105-5.125 2.874-7.797Q.001 48.362.664 39.672q1.106-10.7 14.383-15.82l14.16-2.899 10.176-12.48.441-.223z"/></svg>