<svg id="Layer_1" data-name="Layer 1" xmlns="http://www.w3.org/2000/svg" viewBox="0 0 590 149">
    <g>
      <path class="cls-1" d="m418.91,111.61c1.08,7.13-2.3,7.71-6.75,7.72-25.83.07-51.66.31-77.49.5-1.82.01-3.63,0-5.81,0-.24-2.55-.45-4.82-.73-7.89-4.06,1.04-8.03,2.05-12.64,3.23-.03.16-.37,1.13-.3,2.06.41,5.25-.63,9.02-7.23,7.73-.58-.11-1.58.06-1.83.46-4.77,7.67-12.07,1.63-17.91,3.37-2.93-6.08-8.87-2.98-14.39-4.56,0-5.72-.12-11.65.04-17.58.11-4.27-1.05-6.7-5.97-5.9-2.44.4-4.99.26-7.49.15-2.2-.1-5.21,1.29-5.69-2.77-.04-.36-2.25-.47-3.81-.76.09,6.14-3.49,6.8-8.01,6.61-5.05-.21-10.12-.05-14.94-.52-3.2.93-6.38,2.51-9.61,2.65-6.61.3-13.27.04-19.88-.43-2.74-.19-4.28.13-5.26,2.93-2.75,7.84-5.94,15.54-8.54,23.43-.84,2.56-.43,5.55-.56,8.34-.19,4.18-2.37,6.29-6.39,5.43-6.66-1.43-13.25-3.21-19.83-4.99-4.13-1.12-5.51-3.7-4.01-7.95,3.79-10.78,8.71-20.94,16.57-29.34,4.17-4.45,6.43-9.55,7.74-15.35.84-3.72-.85-4.52-4.06-5.05-6.33-1.04-12.64-2.34-18.82-4.03-1.3-.35-2.01-2.85-3.64-5.37-2.97,0-7.15-.32-11.24.14-1.84.21-3.97,1.59-5.18,3.08-10.06,12.43-19.95,25-29.87,37.54-5.25,6.63-11,7.72-17.55,2.27-5.26-4.37-10.86-5.82-17.49-5.59-9.49.32-19.01.36-28.49-.02-6.22-.25-11.45,1.33-15.96,5.55-4.98,4.66-10.78,5.83-17.53,4.95-4.89-.64-5.9-2.85-5.71-7.27.68-16.11,1.16-32.23,1.5-48.35.08-3.79-.51-7.62-1.02-11.4-.84-6.16.89-8.36,7.16-8.18,3.65.1,7.28.74,10.92,1.07,7.75.7,15.5,1.82,23.26,1.94,21.66.33,43.32,0,64.97.48,4.25.09,8.59,2.25,12.65,4.01,8.69,3.76,17.76,1.56,26.64,2.05.79.04,2.16-1.82,2.45-2.99,2.06-8.4,6.51-14.75,14.45-18.64,1.16-.57,2.07-2.68,2.17-4.14.27-3.81-.03-7.66,0-11.49.02-3.1,1.42-4.53,4.74-5.05,5.22-.81,10.31-2.43,16.19-3.89,2.77,3.56,6.89.95,11.28.63,11.2-.8,22.5-.27,34.21-.27,1.54-2.19,10.61-3.87,12.78-1.26,3.56,4.29,8.22,3.97,12.75,3.98,45.83.11,91.66.1,137.48.12,38.16.02,76.33.23,114.49-.11,9.34-.08,18.67-2.02,28-3.11.19-2.84.3-4.48.44-6.46h8.18c.26,1.35.55,2.9,1.05,5.53,10.23,0,20.68.19,31.12-.09,4.48-.12,5.6,1.54,5.69,5.78.21,10.51,1.11,21.01,1.38,31.52.08,3.23-.97,6.49-1.6,10.4-4.41-.81-8.59-1.58-13.43-2.46,2.18,2.34,3.63,3.89,5.08,5.44-.43.55-.85,1.11-1.28,1.66-5.44-1.95-12.29,1.07-16.5-5.45-.38-.59-2.63-.86-3.05-.4-4.96,5.44-11.3,3.69-17.32,3.6-.64,0-1.29.07-2.16.13-1.43,7.52-.8,14.21,5.95,19.11.43.31.62,1.09.72,1.69.82,4.84,2.01,9.66,2.23,14.53.18,3.85-.91,7.74-1.33,11.63-.46,4.26-.81,8.53-1.23,12.99-1.89.15-3.68.3-5.78.47-.4,3.6-2.42,4.98-6.21,4.86-1.82-.06-3.72,2.42-5.54,2.37-3.76-.1-8.04,1.95-11.24-2.46-.86-1.18-4.07-.86-6.2-.87-11.3-.07-22.6-.03-33.89-.03-1.11-4.98-6.44-8.62-11.41-8.46-7.32.25-14.69.49-21.99-.02-7.1-.49-14.13-1.93-22.5-3.15ZM71.52,65.95c0,.12,0,.24,0,.37-9.15,0-18.3-.06-27.45.02-7.53.06-12.14,4.75-12.12,12.12.02,8.65,3.4,12.48,11.74,12.58,14.47.18,28.96.4,43.42-.06,3.59-.12,7.87-2.01,10.44-4.51,3.6-3.5,5.81-8.41,8.8-12.58,2.16-3.01.9-5.11-1.71-6.45-1.83-.94-4.09-1.38-6.17-1.42-8.98-.15-17.97-.06-26.95-.06Zm127.75,22.69c-.85,3.63-2.83,7.09-1.84,9.11,1.31,2.68,4.73,5.58,7.59,5.99,5.17.74,10.61-.08,15.89-.71,1.48-.18,3.46-1.67,4.02-3.04,2.62-6.41-.75-11.17-7.65-11.32-2.5-.05-5-.04-7.49-.23-4.44-.33-5.09,2.32-4.4,5.71.42,2.06,1.42,4.01,2.17,6.01-.47.22-.94.44-1.4.66-2.04-3.6-4.07-7.2-6.88-12.17Zm144.65-62.76h-35.64v8.45h35.64v-8.45Zm47.28-.2v8.18h34.3v-8.18h-34.3Zm83.8,8.84c5.34,0,10.12.18,14.87-.1,1.62-.09,3.18-1.31,4.76-2.02-1.09-1.81-1.9-4.91-3.32-5.22-5.29-1.14-10.78-1.37-16.32-1.96v9.29Zm-202.29-9.08c-12.74.04-20.41.93-18.42,8.37h17.32c.38-2.89.71-5.42,1.1-8.37Zm146.54,84.49c10.11-1.01,19.63-1.95,29.15-2.9v-.69c-9.61-1.19-19.22-2.39-29.15-3.62v7.21Zm-168.58-24.56v8.64c3.43-1.47,6.08-3.18,8.95-3.7,3.3-.6,6.78-.14,10.18-.14,0-.57-.02-1.15-.02-1.72-6.22-1.97-13.41,1.74-19.11-3.08Zm210.23-51.54h5.85v-7.72h-9.37c1.18,2.59,2.23,4.89,3.52,7.72Zm-78.37.6v-8.6h-7.18c1.1,2.92,2.12,5.61,3.25,8.6h3.93Zm-83.76.04v-8.74h-6.37c.88,2.94,1.65,5.53,2.5,8.35,1.08.11,2.37.24,3.88.39Zm-111.48-18.22c2.88,7.02,4.53,13.84.11,20.75,1.4,1.31,2.73,2.55,4.04,3.78v-24.53h-4.15Zm141.74,89.72c-.21-.64-.43-1.28-.64-1.92h-12.86c3.11,1.8,6.08,3.25,9.23,3.9,1.23.26,2.84-1.27,4.27-1.98Zm46.21,2.82c-.97-2.68-1.68-4.89-2.63-7-.14-.31-2.07-.25-2.1-.12-.5,2.26-.84,4.55-1.26,7.12h5.99Zm-17.65-.97c.45-.44.91-.88,1.36-1.32-1.27-1.59-2.54-3.19-3.8-4.78-.97,1.78-1.94,3.57-3.32,6.1h5.76Zm31.01-6.94c-.6.21-1.2.43-1.8.64q-.73,6.42,3.95,6.84c-.78-2.73-1.47-5.11-2.15-7.49Z"/>     
    </g>
</svg>