<svg xmlns="http://www.w3.org/2000/svg" xmlns:xlink="http://www.w3.org/1999/xlink" width="129pt" height="38pt" viewBox="0 0 129 38" version="1.1">
<g id="surface1">
<path d="M 36.191406 14.417969 L 36.191406 16.671875 L 40.226562 17.421875 L 43.8125 17.121094 L 47.246094 17.121094 L 50.085938 17.421875 L 50.085938 16.222656 C 49.386719 16.320312 48.890625 15.972656 48.589844 15.171875 C 47.992188 14.46875 46.5 14.070312 44.109375 13.96875 L 36.191406 14.417969 M 24.09375 12.617188 L 24.09375 14.117188 L 32.457031 15.769531 L 32.457031 13.519531 L 29.46875 12.765625 L 24.09375 12.617188 M 68.457031 16.222656 L 71.59375 15.621094 L 77.71875 16.671875 L 79.214844 13.816406 L 79.066406 12.316406 L 74.136719 12.765625 L 70.699219 12.164062 L 68.457031 12.316406 L 68.457031 16.222656 M 64.722656 16.523438 L 64.722656 13.519531 L 62.929688 14.269531 L 53.96875 15.769531 L 53.96875 17.574219 L 54.117188 17.574219 L 59.496094 16.972656 L 64.722656 16.523438 M 75.179688 7.058594 L 78.765625 6.609375 C 78.765625 5.507812 78.914062 4.605469 79.214844 3.90625 L 80.855469 2.703125 L 96.542969 1.050781 L 98.035156 1.800781 L 99.230469 0 L 100.574219 0.601562 L 101.171875 2.402344 L 101.621094 10.363281 L 101.320312 12.765625 L 100.277344 13.816406 L 98.632812 12.617188 L 97.289062 13.816406 L 92.359375 14.269531 L 93.105469 15.921875 L 128.507812 15.921875 L 128.808594 28.6875 L 98.035156 26.433594 L 96.691406 29.4375 L 92.359375 29.136719 L 93.40625 31.84375 L 111.628906 31.84375 L 111.628906 34.246094 L 99.378906 34.246094 L 95.796875 38 L 87.878906 38 L 83.695312 31.390625 L 78.617188 31.390625 L 75.179688 34.546875 L 68.457031 37.097656 L 66.964844 34.847656 L 70.699219 27.9375 C 47.894531 28.9375 29.820312 27.484375 16.472656 23.582031 C 9.703125 21.679688 5.320312 19.675781 3.328125 17.574219 L 0.191406 7.960938 L 20.359375 13.21875 L 20.359375 12.917969 C 19.859375 12.917969 19.460938 12.617188 19.164062 12.015625 L 18.417969 10.214844 L 19.015625 8.261719 L 20.210938 7.210938 L 22.300781 7.058594 L 26.78125 6.910156 C 30.863281 6.910156 33.503906 7.660156 34.699219 9.160156 L 41.421875 8.410156 C 45.503906 8.3125 48.34375 8.761719 49.933594 9.761719 L 58.003906 9.613281 L 61.738281 9.011719 L 66.070312 7.210938 L 71.296875 6.609375 L 75.179688 7.058594 "/>
</g>
</svg>