<svg xmlns="http://www.w3.org/2000/svg" xmlns:xlink="http://www.w3.org/1999/xlink" width="128pt" height="128pt" viewBox="0 0 128 128" version="1.1">
<g id="surface1">
<path d="M 33.171875 30.046875 C 31.871094 24.714844 32.457031 20.878906 34.925781 18.535156 L 43.902344 9.5625 L 45.269531 18.144531 L 33.171875 30.046875 M 58.339844 33.367188 L 52.292969 30.4375 L 45.074219 37.660156 L 35.316406 33.367188 L 47.023438 21.660156 L 62.046875 29.855469 L 58.339844 33.367188 M 97.757812 121.367188 C 93.332031 125.789062 85.074219 125.074219 72.976562 119.21875 C 60.878906 113.496094 48.585938 104.390625 36.097656 91.902344 C 23.480469 79.414062 14.308594 67.121094 8.585938 55.023438 C 2.863281 42.796875 2.277344 34.472656 6.828125 30.046875 L 14.242188 22.632812 C 13.855469 29.789062 16.910156 38.960938 23.414062 50.144531 C 29.527344 60.421875 37.59375 70.503906 47.609375 80.390625 C 57.496094 90.277344 67.640625 98.277344 78.046875 104.390625 C 88.976562 111.023438 98.082031 114.082031 105.367188 113.5625 L 97.757812 121.367188 M 94.4375 92.488281 L 90.144531 82.925781 L 97.367188 75.511719 L 94.4375 69.269531 L 98.144531 65.953125 L 106.339844 80.78125 L 94.4375 92.488281 M 114.144531 93.660156 C 115.445312 99.902344 114.730469 104.390625 112 107.121094 C 107.445312 111.542969 99.1875 110.960938 87.21875 105.367188 C 75.121094 99.511719 62.765625 90.339844 50.144531 77.855469 C 37.527344 65.234375 28.421875 52.878906 22.828125 40.78125 C 17.105469 28.8125 16.457031 20.554688 20.878906 16 C 23.609375 13.136719 28.097656 12.359375 34.339844 13.660156 L 32.195312 16 C 28.03125 20.03125 27.511719 26.339844 30.632812 34.925781 C 30.632812 35.058594 32.585938 36.03125 36.488281 37.855469 L 42.144531 40.585938 L 36.292969 46.4375 C 41.234375 54.894531 47.804688 63.285156 56 71.609375 L 56.195312 71.609375 L 56.390625 71.804688 C 64.714844 80.261719 73.039062 86.894531 81.367188 91.707031 L 87.414062 85.660156 L 92.878906 97.171875 C 101.59375 100.292969 107.96875 99.835938 112 95.804688 L 114.144531 93.660156 M 118.4375 84.097656 L 109.269531 93.074219 C 107.058594 95.414062 103.285156 95.933594 97.953125 94.632812 L 109.855469 82.535156 L 118.4375 84.097656 M 113.171875 55.414062 L 109.269531 53.269531 C 108.617188 49.886719 106.796875 46.179688 103.804688 42.144531 L 118.4375 50.144531 L 113.171875 55.414062 M 107.707031 59.902344 L 109.074219 57.367188 L 126.242188 66.535156 C 127.414062 71.871094 126.765625 75.640625 124.292969 77.855469 C 122.863281 79.414062 120.84375 80.195312 118.242188 80.195312 L 109.464844 78.632812 L 100.097656 61.660156 C 103.347656 62.308594 105.886719 61.722656 107.707031 59.902344 M 66.925781 30.046875 C 68.097656 32.910156 70.179688 36.359375 73.171875 40.390625 L 62.242188 35.121094 L 66.925781 30.046875 M 87.609375 54.828125 C 91.253906 57.691406 94.632812 59.707031 97.757812 60.878906 L 92.878906 65.953125 L 87.609375 54.828125 M 71.21875 56.585938 L 71.414062 56.78125 C 78.308594 63.675781 85.398438 69.464844 92.683594 74.144531 L 92.878906 74.925781 L 80.78125 87.023438 C 73.234375 82.210938 65.953125 76.226562 58.925781 69.074219 L 58.925781 68.878906 L 58.730469 68.878906 C 51.445312 61.59375 45.527344 54.308594 40.976562 47.023438 L 53.269531 34.925781 L 53.660156 35.121094 C 58.339844 42.40625 64.195312 49.5625 71.21875 56.585938 M 73.953125 54.046875 L 73.953125 53.855469 L 60.488281 38.632812 L 80.390625 48.195312 L 89.367188 67.316406 C 84.03125 63.414062 78.894531 58.992188 73.953125 54.046875 M 74.535156 18.535156 L 72.585938 14.632812 L 77.855469 9.171875 L 85.660156 24 C 81.367188 20.878906 77.660156 19.058594 74.535156 18.535156 M 70.632812 22.828125 C 72.066406 21.398438 74.925781 21.917969 79.21875 24.390625 C 83.511719 26.601562 88.066406 30.113281 92.878906 34.925781 C 97.691406 39.738281 101.269531 44.292969 103.609375 48.585938 C 105.953125 53.007812 106.40625 55.871094 104.976562 57.171875 C 103.542969 58.730469 100.683594 58.339844 96.390625 56 C 91.96875 53.660156 87.414062 50.144531 82.730469 45.464844 C 77.917969 40.652344 74.277344 36.097656 71.804688 31.804688 C 69.464844 27.382812 69.074219 24.390625 70.632812 22.828125 M 67.902344 20.292969 C 66.082031 21.984375 65.625 24.519531 66.535156 27.902344 L 49.171875 18.535156 C 46.828125 11.382812 47.089844 6.375 49.953125 3.511719 C 52.164062 1.171875 55.933594 0.585938 61.269531 1.757812 L 70.4375 18.730469 C 69.527344 18.992188 68.683594 19.511719 67.902344 20.292969 M 92.097656 35.902344 L 87.21875 32 L 83.902344 31.609375 C 83.253906 32 83.445312 32.976562 84.488281 34.535156 L 88.195312 39.609375 C 90.015625 41.300781 91.707031 42.601562 93.269531 43.511719 L 96.585938 43.902344 L 96 40.976562 L 92.097656 35.902344 M 100.292969 27.511719 L 100.488281 27.511719 L 114.144531 43.511719 L 97.5625 34.339844 L 93.660156 30.4375 L 84.488281 13.660156 L 100.292969 27.511719 "/>
</g>
</svg>