<svg xmlns="http://www.w3.org/2000/svg" xmlns:xlink="http://www.w3.org/1999/xlink" width="129pt" height="61pt" viewBox="0 0 129 61" version="1.1">
<g id="surface1">
<path d="M 56.707031 42.382812 L 56.707031 45.5625 L 62.910156 45.5625 L 65.332031 42.382812 L 56.707031 42.382812 M 46.421875 45.5625 L 46.421875 42.382812 L 10.109375 42.382812 L 10.109375 41.019531 L 9.351562 41.171875 L 7.839844 41.171875 L 7.839844 45.5625 L 46.421875 45.5625 M 10.109375 22.402344 C 10.007812 22.605469 9.753906 22.703125 9.351562 22.703125 L 7.839844 22.703125 L 7.839844 37.992188 L 9.351562 37.992188 L 10.109375 38.144531 L 10.109375 22.402344 M 9.351562 19.222656 L 10.109375 19.675781 L 10.109375 18.464844 L 46.421875 18.464844 L 46.421875 14.683594 L 7.839844 14.683594 L 7.839844 19.222656 L 9.351562 19.222656 M 80.308594 45.5625 L 78.796875 43.441406 L 77.738281 43.441406 L 75.621094 42.535156 C 75.015625 42.027344 74.710938 41.371094 74.710938 40.566406 L 74.710938 38.144531 L 72.746094 38.144531 L 67.449219 45.5625 L 80.308594 45.5625 M 86.664062 38.144531 L 86.664062 40.566406 L 85.910156 42.535156 C 85.304688 43.140625 84.546875 43.441406 83.640625 43.441406 L 83.488281 43.441406 L 85 45.5625 L 88.027344 45.5625 L 94.988281 38.144531 L 86.664062 38.144531 M 75.621094 16.195312 L 77.738281 15.4375 L 83.640625 15.4375 L 85.910156 16.195312 L 86.664062 18.316406 L 86.664062 19.675781 L 91.203125 19.675781 L 93.777344 20.585938 L 93.777344 19.828125 L 94.078125 18.011719 L 91.808594 18.011719 C 91.304688 18.011719 90.902344 17.859375 90.597656 17.558594 L 90.296875 16.195312 L 90.597656 14.832031 L 91.808594 14.53125 L 109.359375 14.53125 L 109.359375 6.660156 L 106.484375 4.085938 L 106.484375 1.210938 L 115.261719 1.210938 L 115.261719 14.53125 L 119.648438 14.53125 L 120.707031 14.832031 L 121.3125 16.195312 L 120.707031 17.558594 L 119.648438 18.011719 L 115.867188 18.011719 L 117.378906 19.070312 L 117.679688 20.886719 L 117.679688 22.703125 L 122.824219 22.703125 L 122.824219 29.96875 L 128.875 29.96875 L 128.875 39.355469 L 123.582031 45.257812 L 123.582031 47.679688 L 124.941406 49.042969 L 121.3125 53.582031 L 118.890625 52.222656 L 118.890625 57.972656 L 118.132812 60.09375 L 115.867188 61 L 74.105469 61 C 73.300781 61 72.59375 60.699219 71.988281 60.09375 C 71.484375 59.585938 71.234375 58.882812 71.234375 57.972656 L 71.234375 51.464844 L 24.480469 51.464844 C 23.875 52.070312 23.222656 52.371094 22.515625 52.371094 L 6.476562 52.371094 L 4.8125 51.617188 L 4.207031 49.949219 L 4.964844 48.285156 L 4.058594 48.285156 L 2.847656 47.832031 L 2.394531 46.921875 L 2.847656 46.167969 L 2.847656 41.171875 L 1.9375 41.171875 L 0.878906 40.867188 L 0.125 39.507812 L 0.878906 38.296875 L 1.9375 37.992188 L 2.847656 37.992188 L 2.847656 22.703125 L 1.9375 22.703125 L 0.878906 22.097656 L 0.125 21.191406 L 0.878906 19.828125 L 1.9375 19.222656 L 2.847656 19.222656 L 2.847656 14.378906 L 2.394531 13.320312 L 2.847656 12.410156 L 4.058594 11.804688 L 50.050781 11.804688 L 50.050781 2.117188 L 50.808594 0.757812 L 52.167969 0 L 53.683594 0.757812 C 53.984375 1.058594 54.136719 1.511719 54.136719 2.117188 L 54.136719 11.804688 L 69.113281 11.804688 L 70.324219 12.410156 L 70.628906 13.320312 L 70.324219 14.378906 L 69.113281 14.683594 L 56.707031 14.683594 L 56.707031 18.464844 L 61.699219 18.464844 L 62.609375 16.5 L 64.574219 15.589844 L 66.996094 15.589844 C 67.902344 15.589844 68.609375 15.894531 69.113281 16.5 L 70.023438 18.464844 L 74.710938 19.675781 L 74.710938 18.316406 C 74.710938 17.507812 75.015625 16.800781 75.621094 16.195312 "/>
</g>
</svg>