<svg xmlns="http://www.w3.org/2000/svg" xmlns:xlink="http://www.w3.org/1999/xlink" width="127pt" height="116pt" viewBox="0 0 127 116" version="1.1">
<g id="surface1">
<path d="M 35.605469 1.910156 L 39.394531 0.636719 C 33.78125 5.160156 32.023438 10.460938 34.128906 16.542969 C 35.675781 21.347656 39.394531 26.15625 45.289062 30.960938 C 48.375 35.0625 49.078125 39.9375 47.394531 45.59375 C 45.710938 51.390625 42.339844 55.277344 37.289062 57.257812 L 37.289062 53.230469 C 40.375 50.257812 42.339844 47.785156 43.183594 45.804688 C 44.585938 42.554688 43.957031 39.65625 41.289062 37.113281 C 34.691406 31.738281 30.339844 26.578125 28.234375 21.628906 C 25.289062 14.84375 26.972656 9.191406 33.289062 4.664062 L 35.605469 1.910156 M 123.1875 72.527344 L 123.1875 76.34375 L 114.132812 77.402344 C 113.152344 77.6875 112.027344 79.808594 110.765625 83.765625 L 107.1875 94.792969 L 103.1875 100.308594 L 96.027344 107.09375 C 93.921875 108.648438 91.535156 109.921875 88.871094 110.910156 L 84.027344 112.394531 L 84.027344 116 L 38.972656 116 L 38.972656 112.394531 L 34.128906 110.910156 L 26.972656 107.09375 C 20.796875 102.710938 17.078125 98.609375 15.8125 94.792969 L 12.65625 84.828125 C 11.253906 80.300781 9.988281 77.828125 8.867188 77.402344 L 0.0234375 76.34375 L 0.0234375 72.527344 L 71.394531 72.527344 L 78.34375 68.285156 L 79.183594 67.859375 C 80.308594 68.851562 81.007812 70.40625 81.289062 72.527344 L 123.1875 72.527344 M 110.765625 49.835938 L 121.082031 46.65625 L 125.925781 46.867188 C 126.625 47.574219 126.34375 48.492188 125.082031 49.625 L 120.238281 53.652344 L 110.976562 59.589844 L 97.921875 66.375 L 82.132812 72.527344 C 82.132812 70.546875 81.359375 68.78125 79.816406 67.226562 L 80.027344 66.800781 L 96.660156 56.410156 L 110.765625 49.835938 M 66.34375 33.292969 C 69.289062 37.394531 69.921875 42.273438 68.238281 47.925781 C 66.554688 53.722656 63.183594 57.609375 58.132812 59.589844 L 58.132812 55.5625 C 61.21875 52.734375 63.183594 50.257812 64.027344 48.140625 C 65.429688 44.886719 64.867188 41.917969 62.34375 39.230469 C 55.746094 34 51.394531 28.839844 49.289062 23.75 C 46.339844 17.105469 47.957031 11.523438 54.132812 7 L 56.445312 4.027344 L 60.238281 2.757812 C 54.761719 7.421875 53.007812 12.722656 54.972656 18.660156 C 56.65625 23.46875 60.445312 28.347656 66.34375 33.292969 M 75.605469 1.273438 C 76.449219 0.425781 77.710938 0 79.394531 0 C 73.921875 4.664062 72.167969 9.96875 74.132812 15.90625 C 75.816406 20.710938 79.605469 25.519531 85.5 30.324219 C 88.589844 34.425781 89.289062 39.304688 87.605469 44.957031 C 85.921875 50.753906 82.554688 54.640625 77.5 56.621094 L 77.5 52.59375 L 83.394531 45.382812 C 84.800781 42.128906 84.167969 39.160156 81.5 36.476562 C 74.902344 31.246094 70.554688 26.085938 68.449219 20.996094 C 65.5 14.207031 67.183594 8.554688 73.5 4.027344 L 75.605469 1.273438 "/>
</g>
</svg>