<svg xmlns="http://www.w3.org/2000/svg" xmlns:xlink="http://www.w3.org/1999/xlink" width="128pt" height="108pt" viewBox="0 0 128 108" version="1.1">
<g id="surface1">
<path d="M 69.523438 1.839844 C 70.75 0.714844 72.078125 0.101562 73.511719 0 C 74.941406 0 76.121094 0.460938 77.039062 1.378906 L 81.640625 6.136719 C 82.5625 7.058594 82.972656 8.183594 82.871094 9.511719 C 82.871094 10.839844 82.308594 12.066406 81.183594 13.191406 C 82.410156 13.191406 83.535156 13.601562 84.558594 14.421875 L 87.933594 12.425781 L 92.839844 17.027344 L 92.6875 17.027344 L 96.214844 20.710938 L 94.066406 24.390625 L 94.683594 25.925781 L 98.515625 24.851562 C 99.949219 25.058594 101.175781 25.621094 102.199219 26.539062 L 125.976562 46.941406 L 127.972656 50.777344 C 127.972656 52.3125 127.359375 53.589844 126.128906 54.613281 L 111.097656 69.496094 C 109.871094 70.515625 108.539062 70.976562 107.109375 70.875 C 105.675781 70.875 104.449219 70.261719 103.425781 69.035156 L 83.636719 44.488281 C 82.613281 43.363281 82.152344 41.984375 82.253906 40.347656 C 82.359375 38.609375 82.921875 37.226562 83.941406 36.203125 L 84.25 36.050781 C 83.839844 36.050781 83.484375 35.898438 83.175781 35.589844 C 72.640625 44.796875 65.585938 51.597656 62.003906 55.996094 L 52.800781 65.046875 L 54.335938 68.265625 L 54.796875 70.261719 L 54.796875 70.566406 C 54.285156 74.863281 53.875 77.164062 53.566406 77.472656 C 53.058594 79.109375 52.136719 80.234375 50.808594 80.847656 L 46.972656 81.765625 C 47.175781 82.996094 46.921875 84.015625 46.203125 84.835938 C 45.285156 86.0625 43.902344 86.675781 42.0625 86.675781 C 41.960938 88.003906 41.5 89.128906 40.683594 90.050781 C 39.660156 90.972656 38.328125 91.328125 36.691406 91.125 C 35.976562 92.761719 35.003906 93.835938 33.777344 94.347656 L 29.789062 93.886719 L 25.496094 91.738281 L 11.226562 106.160156 C 9.898438 107.386719 8.3125 108 6.472656 108 C 4.628906 108 3.046875 107.386719 1.714844 106.160156 C 0.589844 104.828125 0.0273438 103.246094 0.0273438 101.402344 C 0.0273438 99.5625 0.589844 98.027344 1.714844 96.800781 L 15.371094 83.148438 L 11.378906 72.410156 C 11.175781 71.386719 10.714844 70.515625 10 69.800781 L 9.078125 69.1875 L 10 66.734375 L 11.6875 67.652344 L 14.140625 71.335938 L 15.828125 76.089844 L 18.4375 83.300781 L 22.734375 86.984375 L 29.023438 90.664062 L 31.015625 91.585938 L 32.859375 91.738281 L 33.777344 90.664062 L 29.484375 88.671875 L 29.023438 88.210938 L 31.476562 86.675781 L 33.164062 87.597656 L 36.234375 88.363281 L 38.6875 88.058594 L 39.300781 86.371094 C 37.253906 86.164062 35.671875 85.550781 34.546875 84.527344 L 34.238281 84.066406 L 36.539062 82.535156 L 39.300781 83.609375 L 40.835938 83.914062 L 44.058594 83.300781 C 44.363281 82.789062 44.414062 82.125 44.210938 81.308594 L 38.074219 79.3125 L 39.453125 77.011719 L 43.289062 78.085938 L 43.289062 77.933594 L 45.898438 78.699219 L 48.046875 78.851562 C 49.476562 78.648438 50.449219 77.878906 50.960938 76.550781 L 52.035156 70.414062 L 50.808594 67.039062 L 48.964844 68.878906 L 49.273438 71.640625 L 48.660156 73.789062 L 46.972656 74.558594 L 41.296875 72.253906 C 38.226562 70.722656 36.183594 69.441406 35.160156 68.421875 L 34.851562 68.113281 C 34.136719 67.191406 33.625 65.710938 33.316406 63.664062 C 33.113281 61.722656 33.316406 60.136719 33.933594 58.910156 C 34.75 57.375 36.078125 56.710938 37.921875 56.914062 L 38.074219 57.222656 L 38.535156 57.222656 L 39.300781 57.683594 L 40.683594 56.300781 L 37.152344 53.539062 L 35.621094 52.773438 L 35.3125 52.773438 L 31.015625 51.851562 L 26.875 51.085938 L 27.335938 48.324219 L 31.476562 49.089844 L 36.386719 50.316406 L 38.6875 51.238281 L 42.675781 54.460938 L 52.035156 45.714844 C 56.328125 42.238281 63.234375 35.386719 72.746094 25.160156 C 72.234375 24.339844 71.976562 23.421875 71.976562 22.398438 C 70.75 23.113281 69.574219 23.472656 68.449219 23.472656 C 67.121094 23.472656 66.046875 23.113281 65.226562 22.398438 L 60.472656 17.640625 C 59.550781 16.515625 59.140625 15.238281 59.246094 13.808594 C 59.449219 12.375 60.113281 11.148438 61.238281 10.125 L 69.523438 1.839844 "/>
</g>
</svg>