<svg xmlns="http://www.w3.org/2000/svg" xml:space="preserve" width="217.335" height="183.039" viewBox="0 0 57.503 48.429"><path d="M57.503 34.423v4.932l-.493 1.38-1.085.592H49.81v6.017l-.493.888-.888.197H1.381l-.79-.197L0 47.344v-4.932zm0-12.132v8.877L0 39.058V30.28zM36.89 11.343q-1.085-1.677-4.143-3.058L25.842 7.2l-6.806 1.085q-2.761 1.381-4.142 3.058zm4.438 0h7.102v-9.37q0-.888.592-1.381Q49.613 0 50.4 0h.79l1.38.592.592 1.38V15.98h2.762l1.085.591.493 1.381v.79L0 26.73V12.724l.592-1.184.789-.197h9.37q1.085-3.354 5.228-5.524 4.438-2.268 9.863-2.268 5.82 0 9.962 2.268 4.438 2.17 5.523 5.524"/></svg>