<svg xmlns="http://www.w3.org/2000/svg" xml:space="preserve" width="227.713" height="227.797" viewBox="0 0 60.249 60.271"><path d="M14.384 14.145q-.955-3.919.86-5.639l4.397-4.396.669 4.205zm12.33 1.624-2.964-1.433-3.536 3.536-4.778-2.103 5.734-5.734 7.36 4.014zM46.02 58.873q-3.25 3.25-12.138-1.051-8.888-4.206-18.063-13.38-9.27-9.176-13.476-18.064-4.205-8.984-.86-12.233l3.632-3.632q-.287 5.256 4.492 13.476 4.492 7.55 11.85 14.814 7.264 7.263 14.91 11.755 8.028 4.874 13.38 4.492zm-1.625-14.145-2.102-4.683 3.536-3.632-1.434-3.058 1.816-1.625 4.014 7.264zm9.653.573q.956 4.588-1.051 6.595-3.345 3.25-12.138-.86-8.888-4.3-18.159-13.476-9.27-9.27-13.38-18.159-4.205-8.792-.956-12.137 2.007-2.103 6.595-1.147l-1.052 1.147q-3.058 2.962-.764 9.27 0 .096 2.867 1.434l2.772 1.338-2.868 2.867q3.632 6.212 9.653 12.329h.096l.095.095q6.117 6.213 12.234 9.749l2.963-2.963 2.676 5.639q6.403 2.294 9.366-.67zm2.103-4.684-4.492 4.397q-1.625 1.72-5.544.764l5.83-5.925zM53.57 26.57l-1.912-1.051q-.478-2.485-2.676-5.448l7.168 3.919zm-2.677 2.198.67-1.242 8.41 4.492q.86 3.918-.956 5.543-1.052 1.147-2.963 1.147l-4.3-.765-4.588-8.314q2.39.477 3.727-.86M30.918 14.144q.86 2.102 3.059 5.065l-5.352-2.58zM41.05 26.282q2.676 2.103 4.97 2.963l-2.39 2.485zm-8.028.86.096.096q5.065 5.066 10.417 8.506l.096.382-5.926 5.926Q32.161 38.516 27 33.259v-.095h-.096q-5.352-5.352-8.697-10.704l6.021-5.926.191.096q3.441 5.352 8.602 10.513m1.338-1.243v-.095l-6.595-7.455 9.749 4.683 4.396 9.366q-3.918-2.867-7.55-6.499m.287-17.394-.956-1.911 2.58-2.677 3.823 7.264q-3.154-2.294-5.447-2.676m-1.912 2.103q1.052-1.052 4.205.764 3.154 1.625 6.69 5.161t5.257 6.69q1.72 3.25.67 4.205-1.052 1.147-4.206-.573-3.25-1.72-6.69-5.161-3.536-3.536-5.352-6.69-1.72-3.25-.574-4.396m-1.338-1.243q-1.338 1.243-.669 3.727l-8.506-4.587q-1.72-5.257.383-7.36 1.624-1.72 5.543-.86l4.492 8.316q-.67.19-1.243.764m11.851 7.646L40.858 15.1l-1.625-.19q-.478.286.287 1.433l1.816 2.485q1.338 1.242 2.485 1.911l1.624.191-.286-1.433zm2.676-.765-1.911-1.911-4.492-8.22 7.741 6.786h.096l6.69 7.837z"/></svg>