<svg xmlns="http://www.w3.org/2000/svg" xml:space="preserve" width="354.263" height="353.717" viewBox="0 0 93.732 93.588"><path d="m69.865 54.098-.144.145h.144v.723l-.434.579.29.434-1.736-.868-4.774-2.459-4.34-1.88-3.47-1.88-.724-.58-3.182-1.88q-2.17-1.446-3.906-4.05l-2.893-5.063-.434-.723-.144-.145-2.315-5.207-3.182-7.088h-.145l.29-.289.723-.145v.29l.145-.145 14.32 13.886 9.98-9.98.435-.58.433-.722.58.144v.145h.433l-.29.868-.144.144-.434.145-10.415 10.415zm-17.792-4.484.29 1.592v.433l-.145 5.063-1.88 4.629-1.013 1.88-1.736 1.736-.578.579-.145.434h-.434q-3.616-.434-8.1-4.34l-6.51-6.943-2.314-3.327q-1.157-2.025-1.157-4.05v-.29l4.484-3.182.434-.144.145-.145 4.918-1.591h4.484l.868-.29.868.29.868-.579q1.59 2.893 4.05 5.208l1.446 1.157 1.88 1.157zm17.937 28.64 2.603-2.458-.144-.145-.145-.868-.723-.578-1.302-.868-1.446-1.013-1.013-2.459-.29-.578v.144l-.433-.29-.145.146-1.59-1.592-.146-.144-.144.144-.145-.289-.145.145-.289-.145-2.17-.29-.144-.144-.145-.144h-.578l-2.026 1.88-2.892-2.459-2.46-2.893-1.301-1.736-.724-.723 1.447-4.05.29-4.774 2.314-.867.144.144h.145l.145-.144 7.521 3.471 4.34 2.17.723.29-.579.722.145.145.145.579.578 1.735v.724l-.144 1.59-.868 3.038-.434.868-1.013 1.447.145.434.434.144.434.29.434.868.434.867.578 1.013 1.302 1.157 1.447 1.013.723.868.29.867L91.127 59.45l1.013-1.446.579-.145 1.012.579v.434l-.434.723-.868.29-18.949 16.779.29.434v.434l-.29.723-.723 1.302.145.144-.145.145h.145v1.012l-2.604 2.604.434.723v1.302l-2.604 1.736.724.868v.145l-.579.578.145.434-1.736 1.88h-1.157l-1.013 1.013h-1.736l-1.301 1.302h-4.34l-.145.145h-.289v-.29l-1.736-2.314 9.836-9.692.145-.144 3.327-3.472zm2.893-.29.144-.433-.144-.29-1.591 1.447.723.144v.145l.29.145zm-5.93-6.364-.869 1.157 1.013 4.195-3.182 3.182-.145.145-5.641 5.641-1.158-.29-5.207-1.735-4.918-2.748-4.195-2.749-3.905-3.182-4.484-3.905-7.956-7.522-7.377-7.811-2.604-3.472-1.59-2.893-1.881-3.616-1.88-3.616-1.737-5.207-.144-.868h-.145l5.497-5.497v-.145l3.905-3.76 2.604.723 1.157-.868 1.013 1.012.723.724.145.289.289.145.29.144.289.29v.434l.433 2.314.145.434-1.446 1.591v.434l.434.868 3.471 4.05 3.616 3.76q-1.88.869-3.76 2.605l-.434.433-.29.868q-.289 2.17 1.302 4.918l6.799 8.39 3.471 3.327 4.195 2.604 3.616.867.723-.144.434-.434.579-.29 1.446-1.446 1.013-1.302.723-1.157.145.29 3.327 4.05 4.05 3.616.578.29.724-.29v-.29l1.012-1.012v-.145h.145l.434-.434.29.145 1.735.29h.579l1.446 1.59zM49.904 87.368Q37.464 82.305 24.88 69.72l-.434-.434-.434-.434Q11.282 56.268 6.22 43.683l-1.302-3.47 2.893-2.894 1.736 5.063 2.603 5.641 3.327 5.352 3.617 4.774 8.823 9.112 9.402 8.39 4.05 3.472 3.906 2.603 5.93 3.327 5.931 1.88-2.893 2.894-.145-.434.29-.29zM15.767 20.829l-1.158.579.29.29.29.723 1.446-1.736h-.145l-.29-.145zm19.961 4.194 1.302-1.012.29.578q1.446 4.195 5.062 10.994l.434.723-.145.144-.289.868v.145l-.723 1.88-.434 1.158-3.182.144-4.919 1.591-.144-.289-1.302-1.013-5.352-5.785-.434-.579.29-.434h.144l.579-.579v-.289l.144-.145v-.289h.145l-.145-.144v-.29l-.144-.868-.29-1.301v-1.158q-.144-1.012-.868-1.012l-.289-.29-.29-.289-.288-.144-.434-.579v-.145l-.29-.578.29.144-.724-.289-2.314-1.157-1.013-1.157-.867-1.591-.724-.579-.868-.29v-.144l-2.314 2.604.145.144h-.145l.723 2.749.579.144-3.327 3.183v.144L3.906 39.49.434 37.03h-.29L0 36.74l.145-.144v-4.34l1.301-1.301.145-1.88 1.013-1.013v-1.013l1.735-1.88.579.29.723-.58v.145l.868.434L8.245 23l1.302-.145V23l.578.434v.145l2.604-2.893.145.144 1.012-.144.145.289 1.446-.868.724-.145.434.145h.578L33.848 1.157l.144-.868L34.86 0l.434.145.434.868h.145l-.145.433-1.591 1.158L18.37 20.54l.724.145.723.868 1.157 1.446 1.013 1.302 1.157.434.868.434.868.434.289.578.144.29.434.289 1.447-.868.723-.579 3.038-.867 1.736-.145h.578l1.736.434z"/><path d="M49.904 87.368q-4.918-2.025-9.836-5.063-6.365-4.195-12.585-10.125l-2.603-2.46-.434-.433-.434-.434Q11.282 56.268 6.22 43.683l-1.302-3.47 2.893-2.894 1.736 5.063 2.603 5.641 3.327 5.352 3.617 4.774 8.823 9.112 5.497 4.919 3.905 3.471 2.749 2.46 1.301 1.012 3.906 2.603 5.93 3.327 5.931 1.88-2.893 2.894-.145-.434.29-.29z"/></svg>