<svg xmlns="http://www.w3.org/2000/svg" xml:space="preserve" width="234.364" height="233.953" viewBox="0 0 62.009 61.9"><path d="M15.49 20.222q-3.189-6.973-.798-9.364.797-.797 2.291-.996l3.288-3.287-2.49-2.49-4.384 4.382-1.394 1.793q-2.292 3.985 1.295 11.555t11.455 15.341q8.069 8.168 15.839 11.655 7.67 3.486 11.555.797l3.088-2.89 2.59-2.589-2.49-2.49-3.387 3.287q-.1 1.494-.897 2.291-2.39 2.39-9.363-.797-7.471-3.287-15.142-10.957-7.67-7.77-11.057-15.241M2.938 30.282q-4.084-8.068-2.49-12.351l4.084-6.774q-.598 4.383 2.191 10.46 2.092 4.681 5.678 9.662 3.686 5.08 8.467 9.862 4.682 4.681 9.762 8.367 4.981 3.586 9.563 5.678 6.575 2.889 10.958 2.192l-7.073 3.984q-4.283 1.793-12.451-2.39-8.169-4.184-16.337-12.253Q7.122 38.55 2.938 30.283M40.69 9.96q-1.295-2.69-.597-3.486 1.095-.996 4.582-.598 4.483.399 7.67 3.686 3.287 3.188 3.686 7.67.398 3.586-.697 4.582-.698.797-3.387-.498-3.188-1.494-6.475-4.781-3.387-3.387-4.782-6.575m-2.49-4.98-.299.199q-1.394 2.191.598 6.076 1.594 3.487 5.08 6.973 3.586 3.586 7.172 5.28 3.885 1.793 5.977.398l.3-.199v.1l.298-.3.2 1.097.796 14.045-1.893 1.893 2.59 2.69 1.196-.1q.697.1 1.095.598.698.597.698 1.494l-.698 1.494-6.674 6.674-.597.797q-2.89 2.889-10.958-.498-9.762-3.985-20.919-15.141-10.36-10.36-14.045-20.222-1.196-3.088-1.594-5.877l-.1-2.391L7.72 7.969l.797-.598L15.29.598 16.684 0l1.594.598q.897.996.498 2.29l2.59 2.69 1.993-1.992z"/></svg>