<?xml version="1.0" encoding="UTF-8"?>
<svg id="Layer_1" data-name="Layer 1" xmlns="http://www.w3.org/2000/svg" viewBox="0 0 746.66 746.66">
  <defs>
    <style>
      .cls-1, .cls-2 {
        stroke-width: 0px;
      }

      .cls-2 {
        fill: #fff;
      }
    </style>
  </defs>
  <g id="OMVxrw.tif">
    <g>
      <path class="cls-2" d="m746.66,746.66H0V0c248.89,0,497.77,0,746.66,0v746.66Zm-492.61-2.85c1.34-1.15,1.86-1.54,2.31-1.99,20.76-20.79,41.75-41.36,62.16-62.49,9.59-9.93,18.05-20.96,27.07-31.44,1.97-2.29,1.67-4.1-.56-5.92-2.89-2.36-5.82-4.68-8.53-7.24-10.19-9.65-20.3-19.38-30.42-29.1-8.82-8.47-17.02-17.56-23.43-27.95-5.91-9.59-11.43-19.52-14.48-30.5-2.16-7.77-2.62-15.86.32-23.38,3.37-8.6,9.53-15.6,15.75-22.37.63-.68,2.58-1.06,3.31-.6,7.38,4.65,15.85,5.35,24.09,6.86,1.85.34,4.04.7,5.66.04,7.52-3.06,15.3-4.93,22.12-10.34,7.56-5.99,13.04-13.39,18.17-20.97,5.32-7.86,8.25-17.02,10.48-26.52,4.13-17.57.77-32.86-10.52-46.72-2.43-2.98-4.91-6.17-6.3-9.68-1.34-3.36-2.03-7.34-1.72-10.93.71-8.28,5.94-14.28,11.54-19.94,4.55-4.6,9.01-9.3,13.81-14.28-7.24-7.55-14.17-14.93-21.27-22.13-5.57-5.65-9.11-12.09-10.52-20.03-.59-3.31.31-4.93,2.34-6.95,24.88-24.76,49.71-49.58,74.55-74.38,4.4-4.39,4.37-4.37.57-9.45-6.14-8.19-10.98-17.05-13.57-27.01-.56-2.16-1.31-4.24.96-6.5,29.96-29.75,59.79-59.64,89.65-89.5,13.33-13.33,26.63-26.68,40.01-39.95,1.99-1.97,2.24-3.32.1-5.41-9.39-9.17-18.64-18.49-27.95-27.75-.26-.25-.64-.38-1-.59-.92.51-1.8.99-2.68,1.48.13-.32.26-.65.39-.97-2.72-1.57-5.47-3.07-8.14-4.71-4.02-2.48-6.38.36-8.75,2.76-4.46-2.73-9.6-2.71-11.04.23-1.97,4.01-3.55,8.21-5.19,12.38-1.67,4.25-2.76,8.8-4.91,12.79-5.49,10.19-11.43,20.13-17.18,30.17-1.17,2.05-1.91,4.52-3.51,6.13-53.28,53.37-106.64,106.65-159.99,159.94-1,1-2.12,1.86-3.14,2.74-1.18-.89-2.17-1.64-3.35-2.53-43.7,38.02-82.09,81.08-124.2,121.05,18.89,18.83,20.37,41.17,15.33,64.84-2.21-.57-3.88-1.06-5.58-1.42-2.85-.6-5.69-1.37-8.58-1.62-4.65-.4-9.39-.92-13.99-.46-3.4.34-5.71-.54-6.03-4.09-.1-1.1-.14-2.22-.04-3.32.17-1.92.29-3.84-2.48-3.5-2.38.29-6.04-1.41-6.15,3.11-.15,5.86-.04,11.72-.04,17.47,3.82,1.28,7.59,2.39,11.25,3.8,6.03,2.32,10.3,8.09,9.32,13.6-.47,2.66-2.52,5.16-4.23,7.44-6.28,8.39-8.71,17.58-6,27.82.3,1.13,1.86,1.93,2.84,2.89.34-.25.68-.5,1.02-.74-.13-1.5-.15-3.02-.4-4.51-1.87-11.18,1.47-20.37,10.56-27.24,3.39-2.56,7.17-3.22,11.73-.96-2.26,5.06-4.27,10.06-6.68,14.86-3.68,7.33-7.8,14.45-11.42,21.81-1.81,3.67-1.64,7.29,1.51,10.66,4.87,5.19,9.1,10.99,14.12,16.01,6.14,6.14,8.3,14.02,10.35,21.85,5.31,20.23,6.83,41.3,13.5,61.24,4.56,13.64,8.52,27.52,13.81,40.87,5.26,13.3,11.56,26.22,17.94,39.03,5.71,11.45,12.16,22.53,18.26,33.79,3.18,5.86,6.24,11.79,9.49,17.61,2.34,4.2,4.88,8.28,7.57,12.8Z"/>
      <path class="cls-1" d="m254.04,743.81c-2.69-4.53-5.23-8.61-7.57-12.8-3.24-5.83-6.31-11.75-9.49-17.61-6.1-11.26-12.56-22.33-18.26-33.79-6.38-12.82-12.68-25.73-17.94-39.03-5.29-13.35-9.25-27.23-13.81-40.87-6.67-19.94-8.2-41.01-13.5-61.24-2.05-7.83-4.21-15.72-10.35-21.85-5.02-5.02-9.26-10.82-14.12-16.01-3.15-3.36-3.32-6.99-1.51-10.66,3.63-7.36,7.74-14.48,11.42-21.81,2.41-4.8,4.42-9.8,6.68-14.86-4.57-2.26-8.35-1.6-11.73.96-9.09,6.88-12.43,16.06-10.56,27.24.25,1.48.27,3,.4,4.51-.34.25-.68.5-1.02.74-.98-.95-2.54-1.75-2.84-2.89-2.71-10.24-.29-19.43,6-27.82,1.71-2.29,3.77-4.79,4.23-7.44.97-5.52-3.29-11.29-9.32-13.6-3.66-1.41-7.44-2.52-11.25-3.8,0-5.75-.11-11.61.04-17.47.11-4.53,3.77-2.82,6.15-3.11,2.77-.34,2.65,1.58,2.48,3.5-.1,1.1-.05,2.22.04,3.32.32,3.55,2.63,4.42,6.03,4.09,4.61-.45,9.34.06,13.99.46,2.88.25,5.73,1.01,8.58,1.62,1.7.36,3.38.85,5.58,1.42,5.04-23.66,3.56-46.01-15.33-64.84,42.11-39.98,80.51-83.03,124.2-121.05,1.18.89,2.17,1.64,3.35,2.53,1.02-.88,2.15-1.75,3.14-2.74,53.36-53.29,106.72-106.57,159.99-159.94,1.61-1.61,2.34-4.08,3.51-6.13,5.75-10.04,11.69-19.99,17.18-30.17,2.15-3.99,3.23-8.54,4.91-12.79,1.64-4.16,3.22-8.37,5.19-12.38,1.45-2.94,6.58-2.96,11.04-.23,2.37-2.4,4.73-5.24,8.75-2.76,2.67,1.65,5.42,3.15,8.14,4.71-.13.32-.26.65-.39.97.88-.49,1.76-.97,2.68-1.48.36.21.74.33,1,.59,9.31,9.26,18.56,18.58,27.95,27.75,2.14,2.09,1.89,3.44-.1,5.41-13.39,13.27-26.69,26.62-40.01,39.95-29.86,29.86-59.69,59.75-89.65,89.5-2.28,2.26-1.53,4.34-.96,6.5,2.6,9.95,7.43,18.82,13.57,27.01,3.8,5.07,3.83,5.06-.57,9.45-24.84,24.8-49.67,49.62-74.55,74.38-2.03,2.02-2.93,3.64-2.34,6.95,1.42,7.94,4.95,14.39,10.52,20.03,7.11,7.2,14.03,14.58,21.27,22.13-4.8,4.97-9.26,9.68-13.81,14.28-5.6,5.66-10.83,11.66-11.54,19.94-.31,3.6.38,7.57,1.72,10.93,1.4,3.51,3.87,6.7,6.3,9.68,11.29,13.86,14.64,29.15,10.52,46.72-2.23,9.5-5.16,18.66-10.48,26.52-5.13,7.58-10.61,14.98-18.17,20.97-6.82,5.41-14.6,7.29-22.12,10.34-1.62.66-3.81.3-5.66-.04-8.24-1.51-16.7-2.21-24.09-6.86-.73-.46-2.68-.08-3.31.6-6.22,6.77-12.38,13.77-15.75,22.37-2.94,7.51-2.48,15.61-.32,23.38,3.06,10.98,8.57,20.91,14.48,30.5,6.41,10.4,14.6,19.49,23.43,27.95,10.12,9.72,20.24,19.45,30.42,29.1,2.7,2.56,5.64,4.88,8.53,7.24,2.23,1.83,2.54,3.63.56,5.92-9.03,10.48-17.48,21.51-27.07,31.44-20.41,21.13-41.4,41.7-62.16,62.49-.45.45-.97.84-2.31,1.99Zm42.57-294.22c-7.2,3.49-14.07,6.77-20.86,10.19-.75.38-1.48,1.52-1.58,2.38-.87,7.04.58,13.78,4.85,19.31,7.86,10.17,18.21,16.29,31.22,18.08,8.38,1.15,15.46-1.18,21.69-6.29,9.13-7.49,16.79-16.08,22.18-26.94,5.19-10.44,7.92-21.09,7.31-32.57-.33-6.18-3.59-11.26-6.99-16.39-5-7.53-11.87-12.51-20.3-14.13-14.56-2.79-29.86,5.97-38.1,17.94,8.53,2.81,14.77,10.12,14.18,18.7-.49,7.17,2.62,11.94,7.09,16.59,6.38,6.62,20.07,8.85,28.43,1.93,1.88-1.56,4.27-2.51,6.43-3.74.19.36.38.72.58,1.08-4.37,7.39-11.27,11.1-19.55,12.2-9.68,1.29-17.92-2.74-25.37-8.35-4.13-3.11-7.76-6.88-11.21-9.99Zm-110.11-93.43c.37-.52.62-.99.98-1.35,24.31-24.36,48.61-48.72,73-73,.83-.83,2.49-.81,3.7-1.17-.92-1.45-2.02-3.19-2.65-4.19-26.53,26.14-53.2,52.42-80.03,78.85,2.6,2.05,3.34,6.71,8.1,4.36-1.05-1.18-2.06-2.33-3.11-3.5Zm68.5,68.72c-.28.32-.55.63-.83.95.62,1.26,1.24,2.52,1.86,3.78,1.27-.64,2.8-1.01,3.76-1.96,24.9-24.67,49.74-49.4,74.59-74.12.36-.36.67-.77,1.09-1.24-.69-.6-1.32-1.15-1.81-1.58-.84,1.04-1.49,2-2.3,2.81-23.87,23.86-47.78,47.68-71.61,71.59-1.79,1.8-3.09,2.06-4.75-.23Zm52.26-105c-.29.21-.59.42-.88.64.68,1.45,1.07,3.15,2.08,4.31,3.13,3.61,6.43,7.09,9.83,10.46.7.7,2.08.73,3.14,1.07-.29-.98-.28-2.23-.9-2.89-4.35-4.6-8.83-9.07-13.26-13.59Z"/>
      <path class="cls-2" d="m296.62,449.59c3.45,3.11,7.08,6.88,11.21,9.99,7.45,5.61,15.69,9.64,25.37,8.35,8.28-1.1,15.18-4.8,19.55-12.2-.19-.36-.38-.72-.58-1.08-2.16,1.23-4.55,2.18-6.43,3.74-8.36,6.92-22.05,4.69-28.43-1.93-4.48-4.65-7.59-9.42-7.09-16.59.59-8.58-5.65-15.89-14.18-18.7,8.24-11.97,23.54-20.73,38.1-17.94,8.42,1.61,15.3,6.59,20.3,14.13,3.4,5.13,6.66,10.2,6.99,16.39.61,11.48-2.12,22.13-7.31,32.57-5.4,10.86-13.05,19.45-22.18,26.94-6.23,5.11-13.32,7.44-21.69,6.29-13-1.79-23.36-7.91-31.22-18.08-4.27-5.53-5.72-12.27-4.85-19.31.11-.86.83-2,1.58-2.38,6.79-3.42,13.66-6.7,20.86-10.19Z"/>
      <path class="cls-2" d="m186.51,356.16c1.04,1.18,2.06,2.32,3.11,3.5-4.77,2.35-5.51-2.31-8.1-4.36,26.82-26.43,53.5-52.71,80.03-78.85.63,1,1.73,2.73,2.65,4.19-1.21.36-2.87.35-3.7,1.17-24.39,24.28-48.69,48.64-73,73-.36.36-.61.83-.98,1.35Z"/>
      <path class="cls-2" d="m255.01,424.88c1.65,2.29,2.95,2.02,4.75.23,23.83-23.91,47.73-47.73,71.61-71.59.81-.81,1.46-1.77,2.3-2.81.49.43,1.12.98,1.81,1.58-.41.47-.73.88-1.09,1.24-24.85,24.72-49.69,49.45-74.59,74.12-.96.95-2.49,1.32-3.76,1.96-.62-1.26-1.24-2.52-1.86-3.78.28-.32.55-.63.83-.95Z"/>
      <path class="cls-2" d="m307.26,319.88c4.44,4.51,8.91,8.99,13.26,13.59.62.66.62,1.91.9,2.89-1.07-.34-2.44-.37-3.14-1.07-3.39-3.37-6.69-6.85-9.83-10.46-1.01-1.16-1.4-2.86-2.08-4.31.29-.21.59-.42.88-.64Z"/>
    </g>
  </g>
</svg>