<svg id="Layer_1" data-name="Layer 1" xmlns="http://www.w3.org/2000/svg" viewBox="0 0 781.89 781.89">
  <g id="_88GRC5.tif" data-name="88GRC5.tif">
    <g>
      <path class="cls-1" d="m522.27,132.97c1.19-3.31,1.9-5.74,2.94-8.01.47-1.03,1.46-2.23,2.46-2.54,12.63-3.81,25.22-7.77,38-10.99,4.17-1.05,8.86-.35,13.27.05,3.67.34,5.61,2.96,5.28,6.59-.62,6.79-1.03,13.68-2.53,20.3-2.33,10.34-5.48,20.5-8.35,30.72-.2.72-.76,1.54-1.39,1.91-2.24,1.31-4.59,2.45-6.33,3.36,1.79,4.46,3.4,8.23,4.77,12.08.36,1.01.23,2.37-.12,3.43-4.52,13.72-9.08,27.42-13.72,41.1-2.79,8.24-5.66,16.44-8.64,24.61-.92,2.54-.9,4.41.94,6.74,1.37,1.73,1.39,4.51,2.1,6.79,1.94,6.24,2.05,12.58,1.29,19.01-.41,3.49-.53,7.03-1.14,10.49-.24,1.32-1.22,3.16-2.31,3.58-5.95,2.27-12.11,3.99-18.07,6.24-9.16,3.47-17.6,8.47-22.71,16.94-2.84,4.71-4.17,10.67-4.92,16.24-1.72,12.8-1.17,25.55,2.66,38.07,1.86,6.08,4.21,12.38,4.22,18.58.03,11-3.19,21.11-11.85,29.12-7.92,7.33-17.74,10.74-27.21,14.93-8.69,3.85-17.66,7.08-26.45,10.71-.86.35-1.36,1.58-2.01,2.41-3.78,4.85-7.55,9.7-11.33,14.54-.43-.1-.86-.19-1.29-.29-.4-5.2-.8-10.39-1.21-15.59-.43-.18-.87-.36-1.3-.54-.66,1.36-2.07,2.85-1.87,4.07,1.19,7.36,2.54,14.72,4.27,21.97,1.19,4.97,2.96,9.64,7.16,13.32,8.62,7.56,16.72,15.71,25.25,23.37,7.77,6.98,13.53,15.56,19.44,23.98,2.15,3.07,3.25,6.88,4.81,10.36.11.24,0,.64.16.8,6.53,6.65,1.79,13.85.65,20.63-2.11,12.56-7.72,23.91-14.28,34.7-6.03,9.92-12.52,19.57-19.09,29.78-3.18-2.98-5.08-1.75-7.7-.29-4.66,2.6-9.81,4.4-14.93,6.01-1.51.48-3.61-.74-5.39-1.32-9.81-3.24-16.71-10.18-22.76-18.14-1.41-1.86-2.63-3.87-4-5.77-7.78-10.81-13.72-22.54-16.66-35.55-2.42-10.72-4.8-21.52-6.08-32.41-.99-8.42-.28-17.05-.28-25.59,0-9.18.49-18.39-.02-27.54-.57-10.32-2.19-20.57-3.01-30.88-1.02-12.99-7-24.42-10.85-36.53-3.55-11.16-10.69-19.74-18.95-27.27-7.35-6.7-16.22-8.87-26.37-5.57-11.01,3.57-19.91,10.2-28.29,17.64-6.08,5.41-11.3,11.79-17.33,17.27-2.29,2.08-5.65,3.18-8.71,4.17-10.21,3.31-18.56,9.56-27.14,15.77-13.18,9.54-24.13,21.4-35.89,32.44-7.33,6.88-15.38,12.73-25.49,15.12-1.93.46-3.7,1.8-5.43,2.91-9.7,6.27-19.84,11.73-31.07,14.54-9.31,2.33-18.83,3.86-28.29,5.56-1.13.2-2.48-.8-4.66-1.57,5.23-4.47,9.6-8.2,13.97-11.93-.08-.14-.15-.27-.23-.41-3.22,1.6-6.52,3.08-9.66,4.83-13.41,7.44-27.66,12.87-42.23,17.49-4.95,1.57-8.14-1.28-6.43-6.11,2.59-7.33,5.96-14.38,8.76-21.63.87-2.24.87-4.8,1.47-7.16.25-1,.83-2.47,1.57-2.7,4.54-1.4,6.34-4.33,5.6-8.96-.15-.94,1-2.83,1.87-3.06,3.84-.99,6.99-5.79,6.19-9.52-.18-.84.95-2.75,1.66-2.85,3.83-.53,7.6-4.79,7.44-8.71-.03-.81.36-2.28.79-2.37,6.14-1.32,7.73-7.44,12.15-10.85-1-1.3-1.81-2.34-2.72-3.52,3.07-3.89,6.23-7.67,9.13-11.65,1.3-1.78,2.75-3.89,2.94-5.96.62-6.83,3.99-12.19,8.67-16.63,3.66-3.48,3.26-8.47,5.71-12.23,5.37-8.28,10.09-17.22,16.64-24.47,16.22-17.95,33.36-35.05,50.05-52.58,16.76-17.61,33.41-35.33,50.96-53.9-3.68,0-6.59.17-9.47-.04-6.09-.45-12.19-.88-18.22-1.78-1.96-.29-3.71-2.05-6.33-3.59,6.01-5.16,11.36-9.86,16.82-14.41,2.63-2.19,5.52-4.06,8.19-6.19,14.85-11.8,31.46-20.04,49.95-24.25,9.3-2.11,18.72-1.23,27.9.84,2.46.56,3.54-.04,4.88-1.52,3.39-3.76,6.8-7.51,10.27-11.34,6.08,5.99,12.04,11.87,18.16,17.9,2.85-2.55,5.38-4.82,8.13-7.29-5.39-6.71-10.62-13.21-16.23-20.18,3.37-2.63,6.67-5.21,10.35-8.08,5.3,6.38,10.45,12.59,15.86,19.11,3.38-1.69,6.53-3.26,10.5-5.25-4.06-5.68-7.83-10.97-11.63-16.25-3.27-4.55-3.16-4.85,1.92-7.27,2.08-.99,3.99-2.33,6.4-3.76,2.44,3.61,4.82,7.1,7.16,10.6.68,1.02,1.19,2.17,1.9,3.17q5.58,7.84,14.58,3.68c-3.5-7.35-7-14.7-10.86-22.81,4.91-1.65,9.6-2.88,14-4.77,8.61-3.7,17.87-3.04,26.76-4.7,6.47-1.21,12.68-3.99,18.87-6.43,14.33-5.64,28.56-11.5,42.84-17.25,5.18-2.09,10.28-4.48,15.61-6.11,3.65-1.12,7.5-.48,10.65,2.15,1.25,1.04,2.4,2.2,4.43,4.08Zm-76.13,244.76c8.18,6.28,9.77,8.67,10.38,18.48.72,11.72,7.4,21.32,10.7,33.39,5.58-4.32,10.78-7.83,15.36-12.01,7.56-6.89,9.67-16.42,10.25-26,.34-5.59-.93-11.45-2.44-16.93-1.59-5.77-4.05-11.47-9.73-14.66-1.82-1.02-4.41-2.45-5.95-1.86-4.28,1.65-8.73,3.17-12,6.97-2.3,2.67-5.4,4.68-8.25,6.84-2.58,1.95-5.3,3.7-8.31,5.78Z"/>
    </g>
  </g>
</svg>