<svg id="Layer_1" data-name="Layer 1" xmlns="http://www.w3.org/2000/svg" viewBox="0 0 511.22 732">
  <g id="pdXp4P.tif">
    <g>
      <path class="cls-1" d="m164.4,0c.3,0,.6,0,.9,0,1.01.37,2.08,1.16,3.02,1.04,4.94-.64,9.39-.63,11.69,5.02.66,1.62,1.89,3.21,3.26,4.3,1.34,1.06,3.89,1.02,4.66,2.24.82,1.31.19,3.53.19,5.65,7.9-1.32,16.17-.38,23.96-4.72,5.76-3.2,11.61-7.08,19.03-6.5,4.04.31,8.22-1.38,12.31-1.26,7.32.21,14.53-2.9,22.02.32,5.48,2.35,11.53,3.49,17.43,4.71,12.51,2.58,25.19,4.43,37.61,7.4,11.26,2.69,22.75,5.37,33.26,10.05,13.01,5.79,25.68,12.79,37.45,20.82,13.78,9.4,26.51,20.37,39.54,30.85,9.07,7.3,17.89,14.91,26.8,22.41.55.46,1.02,1.08,1.34,1.72,6.15,12.53,14.76,23.36,22.72,34.25,6.57-1,13.54-6.69,16.72,3.67.07.24.41.51.66.57,6.5,1.43,6.87,7.03,6.64,11.68-.27,5.43-2.31,10.76-3.6,16.22-4.01.92-7.96,1.83-11.25,2.58-.41,4.48-1,8.41-1.05,12.33-.04,2.79-1.86,5.8,1.9,8.24,6.67,4.32,11.13,10.6,14.36,17.94,3.96,8.98,4.84,18.27,4.41,27.89-.68,15.12-5.75,28.12-17.59,38.05-.89.74-1.99,1.72-2.17,2.74-1.95,10.59-3.61,21.23-5.59,31.81-1.46,7.81-2.61,15.76-5.08,23.26-3.77,11.44-8.36,22.62-12.97,33.76-9.35,22.57-18.81,45.11-28.52,67.53-4.81,11.1-10.46,21.83-15.42,32.87-6.92,15.42-17.95,26.22-34.28,31.03-4.38,1.29-8.88,3.43-13.74.88-3.24-1.7-6.86-2.66-10.16-4.26-3.05-1.49-5.89-3.4-8.93-5.19-4.39,5.85-5.69,6.25-11.79,3.88-9.86-3.83-19.94-7.15-29.64-11.36-11.61-5.04-23.44-9.91-34.22-16.43-13.34-8.07-25.73-17.74-38.46-26.81-1.74-1.24-3.54-2.78-4.55-4.6-1.86-3.34-3.15-6.99-4.72-10.62-4.54,4.79-8.92,9.29-13.11,13.95-.92,1.02-1.31,2.59-1.73,3.97-5.03,16.58-8.92,33.61-15.28,49.66-9.81,24.76-20.31,49.23-28.82,74.49-7.7,22.86-15.57,45.66-23.39,68.48-1.71,4.98-3.85,6.27-9.9,5.1-1,5.08-2.65,10.15-2.88,15.28-.46,10.37-.05,20.78-.23,31.17-.03,1.53-1.27,3.03-1.95,4.54-.53-.19-1.06-.37-1.58-.56v-29.88c-3.57,3.77-1.69,12.1-10.63,10.3,3.54-10.71,7.06-21.37,10.67-32.27-3.02-.46-5.83-.89-8.89-1.36-.08,1.35-.05,2.09-.18,2.8-3.01,16.23-6,32.46-9.13,48.67-.2,1.06-1.57,2.81-2.18,2.72-3.24-.46-3.01,1.66-3.13,3.63-.61,10.43-1.15,20.86-1.9,31.27-.09,1.26-1.33,2.45-2.04,3.67-.49-.22-.97-.43-1.46-.65.23-36.61,4.85-72.89,8.62-109.25-5.52,9.76-4.51,20.6-5.24,31.4-2.82.87-5.71,1.77-9.03,2.79,1.16,9.59,2.32,19.21,3.47,28.65-4.07,2.53-6.76,1.92-7.96-3.35-.72,9.03-.67,17.81-.76,26.58-.02,1.51-.63,3.02-.97,4.53-.62.01-1.23.02-1.85.04-.55-1.82-1.56-3.63-1.58-5.45-.14-12.95-.07-25.91-.08-38.86,0-1.17-.11-2.33-.16-3.5-.11.01-.22.03-.33.04-.79,10.38-1.58,20.75-2.38,31.23-1.97.73-3.81,1.41-5.7,2.1v-42.07c-.17-.05-.35-.11-.52-.16-1.58,6.65-3.15,13.3-4.77,20.13-3.95-1.76-6.09-3.77-4.32-8.38,1.4-3.64,1.87-7.64,3.09-12.98-1.62,1.61-2.65,2.2-3.05,3.09-2.73,6.03-5.32,12.12-7.99,18.17-1.56,3.54-3.19,7.04-4.79,10.55-.69-.15-1.37-.31-2.06-.46.2-1.87-.02-3.9.66-5.58,3.78-9.37,7.78-18.66,11.71-27.97-3.55,4-6.19-.3-9.42-1.03v17.43h-8.02c-1-8.45-1.98-16.8-3.07-25.97-.56,2.14-.97,3.6-1.33,5.08-2.09,8.72-4.26,17.41-6.19,26.16-.84,3.79-3.2,3.99-6.58,3.66,1.28-6.66,2.56-12.98,3.72-19.33,3.39-18.56,6.53-37.18,10.28-55.67.7-3.46-.27-4.28-2.78-5.54-4.23-2.13-6.44-5.43-6.69-10.56-.52-10.6,2.33-20.6,4.73-30.64,5.45-22.89,11.01-45.76,17.21-68.45,5.66-20.7,12.36-41.11,18.31-61.72,2.65-9.17,4.92-18.48,6.75-27.85,2.07-10.57,3.42-21.28,5.14-31.92,1.08-6.68,2.25-13.34,3.37-19.92-4.41-1.45-8.3-2.68-12.17-4.01-10.54-3.62-16.8-12.5-17.15-23.45-.07-2.2-1.29-5-2.93-6.41-5.71-4.9-11.91-9.23-17.79-13.94-1.97-1.58-4.62-3.38-5.15-5.52-1.96-8-3.24-16.17-4.63-24.31-.79-4.63-1.99-9.27.59-13.87,1.47-2.64,2.36-5.6,3.64-8.74-2.31-1.03-4.86-1.66-6.74-3.15-1.89-1.49-3.1-3.83-3.97-4.97-3.98-.33-7.13-.74-10.29-.81-6.28-.15-14.03-5.78-15.87-11.99C.92,221.98.57,218.97,0,216.02c0-.3,0-.6,0-.9.62-1.26,1.38-2.48,1.85-3.8,4.33-12.05,19.48-15.77,29.61-8.71.91.63,2.99.62,3.92,0,4.13-2.76,8.55-3.62,13.33-2.78,4.25.75,8.86-1.38,10.8-5.1,7.48-14.36,11.82-29.72,14.44-45.61.17-1.01-.34-2.34-.95-3.23-12.19-17.75-24.5-35.41-36.58-53.23-.99-1.45-1.07-4.05-.61-5.86,1.45-5.69,2.93-11.45,5.24-16.82,1.63-3.78-.1-5.53-2.51-7.3-10.13-7.45-13.45-17.09-10.67-29.2,2.34-10.19,15.84-22.04,28.4-18.92,5.03,1.25,10.69,1.03,14.37,5.92,2.23,2.97,4.73,5.8,7.49,8.27,1.09.98,3.3,1.36,4.82,1.07,4.03-.77,7.99-1.95,11.91-3.17,2.88-.89,5.42-.92,8.29.45,9.43,4.51,19,8.73,28.55,12.99,1.8.8,4.4,2.36,5.53,1.69,5.55-3.29,13.79-3.33,15.32-12.09-1.67-2.66-3.49-5.51-5.23-8.4-.43-.72-1.09-2.08-.85-2.31,4.36-4.14,3.97-11.53,10.01-14.51C159.19,3.11,161.76,1.49,164.4,0ZM59.41,647.91c.36.15.73.31,1.09.46,2.98-5.77,6-11.52,8.9-17.33.36-.73.18-1.78.1-2.67-.56-6.79-1.17-13.57-1.75-20.36-.12-1.37-.19-2.75-.28-4.12-6.3,14.2-6.46,29.22-8.06,44.01ZM422.35,174.47l.83-1.27c-4.1-2.9-7.94-6.36-12.42-8.46-2.25-1.05-6.34-1.5-8.09,3.25,1.43,1.71,2.76,4.87,4.68,5.29,4.85,1.05,9.98.87,14.99,1.19Zm-224.26,228.41l2.2.31c1.99-4.6,3.99-9.2,6.09-14.05-2.22-.81-3.83-1.4-5.71-2.08-1.12,5.31-4.55,10.31-2.59,15.83Zm-85.48,273.09c.31.05.62.09.93.14,2.54-16.23,5.09-32.46,7.63-48.7-.44-.07-.88-.13-1.32-.2-2.41,16.25-4.82,32.5-7.23,48.76Zm88.74-294.7c5.9,2.35,5.87,2.35,6.45-2.98.12-1.15.83-2.29.77-3.41-.08-1.49-.64-2.95-.99-4.42-.57-.01-1.15-.03-1.72-.04-1.47,3.53-2.94,7.07-4.51,10.85Zm-130.16,221.49c.44,6.58.85,12.84,1.28,19.36,3.37-5.24,2.88-17.68-1.28-19.36Zm309.8-165.75c-.5-.26-.99-.51-1.49-.77-4.65,5.98-6.03,13.58-8.52,20.64,3.34-6.62,6.67-13.25,10.01-19.87Z"/>
    </g>
  </g>
</svg>