<?xml version="1.0" encoding="UTF-8"?>
<svg id="Layer_1" data-name="Layer 1" xmlns="http://www.w3.org/2000/svg" viewBox="0 0 511.22 732">
  <defs>
    <style>
      .cls-1, .cls-2 {
        stroke-width: 0px;
      }

      .cls-2 {
        fill: #fff;
      }
    </style>
  </defs>
  <g id="pdXp4P.tif">
    <g>
      <path class="cls-1" d="m164.4,0c.3,0,.6,0,.9,0,1.01.37,2.08,1.16,3.02,1.04,4.94-.64,9.39-.63,11.69,5.02.66,1.62,1.89,3.21,3.26,4.3,1.34,1.06,3.89,1.02,4.66,2.24.82,1.31.19,3.53.19,5.65,7.9-1.32,16.17-.38,23.96-4.72,5.76-3.2,11.61-7.08,19.03-6.5,4.04.31,8.22-1.38,12.31-1.26,7.32.21,14.53-2.9,22.02.32,5.48,2.35,11.53,3.49,17.43,4.71,12.51,2.58,25.19,4.43,37.61,7.4,11.26,2.69,22.75,5.37,33.26,10.05,13.01,5.79,25.68,12.79,37.45,20.82,13.78,9.4,26.51,20.37,39.54,30.85,9.07,7.3,17.89,14.91,26.8,22.41.55.46,1.02,1.08,1.34,1.72,6.15,12.53,14.76,23.36,22.72,34.25,6.57-1,13.54-6.69,16.72,3.67.07.24.41.51.66.57,6.5,1.43,6.87,7.03,6.64,11.68-.27,5.43-2.31,10.76-3.6,16.22-4.01.92-7.96,1.83-11.25,2.58-.41,4.48-1,8.41-1.05,12.33-.04,2.79-1.86,5.8,1.9,8.24,6.67,4.32,11.13,10.6,14.36,17.94,3.96,8.98,4.84,18.27,4.41,27.89-.68,15.12-5.75,28.12-17.59,38.05-.89.74-1.99,1.72-2.17,2.74-1.95,10.59-3.61,21.23-5.59,31.81-1.46,7.81-2.61,15.76-5.08,23.26-3.77,11.44-8.36,22.62-12.97,33.76-9.35,22.57-18.81,45.11-28.52,67.53-4.81,11.1-10.46,21.83-15.42,32.87-6.92,15.42-17.95,26.22-34.28,31.03-4.38,1.29-8.88,3.43-13.74.88-3.24-1.7-6.86-2.66-10.16-4.26-3.05-1.49-5.89-3.4-8.93-5.19-4.39,5.85-5.69,6.25-11.79,3.88-9.86-3.83-19.94-7.15-29.64-11.36-11.61-5.04-23.44-9.91-34.22-16.43-13.34-8.07-25.73-17.74-38.46-26.81-1.74-1.24-3.54-2.78-4.55-4.6-1.86-3.34-3.15-6.99-4.72-10.62-4.54,4.79-8.92,9.29-13.11,13.95-.92,1.02-1.31,2.59-1.73,3.97-5.03,16.58-8.92,33.61-15.28,49.66-9.81,24.76-20.31,49.23-28.82,74.49-7.7,22.86-15.57,45.66-23.39,68.48-1.71,4.98-3.85,6.27-9.9,5.1-1,5.08-2.65,10.15-2.88,15.28-.46,10.37-.05,20.78-.23,31.17-.03,1.53-1.27,3.03-1.95,4.54-.53-.19-1.06-.37-1.58-.56v-29.88c-3.57,3.77-1.69,12.1-10.63,10.3,3.54-10.71,7.06-21.37,10.67-32.27-3.02-.46-5.83-.89-8.89-1.36-.08,1.35-.05,2.09-.18,2.8-3.01,16.23-6,32.46-9.13,48.67-.2,1.06-1.57,2.81-2.18,2.72-3.24-.46-3.01,1.66-3.13,3.63-.61,10.43-1.15,20.86-1.9,31.27-.09,1.26-1.33,2.45-2.04,3.67-.49-.22-.97-.43-1.46-.65.23-36.61,4.85-72.89,8.62-109.25-5.52,9.76-4.51,20.6-5.24,31.4-2.82.87-5.71,1.77-9.03,2.79,1.16,9.59,2.32,19.21,3.47,28.65-4.07,2.53-6.76,1.92-7.96-3.35-.72,9.03-.67,17.81-.76,26.58-.02,1.51-.63,3.02-.97,4.53-.62.01-1.23.02-1.85.04-.55-1.82-1.56-3.63-1.58-5.45-.14-12.95-.07-25.91-.08-38.86,0-1.17-.11-2.33-.16-3.5-.11.01-.22.03-.33.04-.79,10.38-1.58,20.75-2.38,31.23-1.97.73-3.81,1.41-5.7,2.1v-42.07c-.17-.05-.35-.11-.52-.16-1.58,6.65-3.15,13.3-4.77,20.13-3.95-1.76-6.09-3.77-4.32-8.38,1.4-3.64,1.87-7.64,3.09-12.98-1.62,1.61-2.65,2.2-3.05,3.09-2.73,6.03-5.32,12.12-7.99,18.17-1.56,3.54-3.19,7.04-4.79,10.55-.69-.15-1.37-.31-2.06-.46.2-1.87-.02-3.9.66-5.58,3.78-9.37,7.78-18.66,11.71-27.97-3.55,4-6.19-.3-9.42-1.03v17.43h-8.02c-1-8.45-1.98-16.8-3.07-25.97-.56,2.14-.97,3.6-1.33,5.08-2.09,8.72-4.26,17.41-6.19,26.16-.84,3.79-3.2,3.99-6.58,3.66,1.28-6.66,2.56-12.98,3.72-19.33,3.39-18.56,6.53-37.18,10.28-55.67.7-3.46-.27-4.28-2.78-5.54-4.23-2.13-6.44-5.43-6.69-10.56-.52-10.6,2.33-20.6,4.73-30.64,5.45-22.89,11.01-45.76,17.21-68.45,5.66-20.7,12.36-41.11,18.31-61.72,2.65-9.17,4.92-18.48,6.75-27.85,2.07-10.57,3.42-21.28,5.14-31.92,1.08-6.68,2.25-13.34,3.37-19.92-4.41-1.45-8.3-2.68-12.17-4.01-10.54-3.62-16.8-12.5-17.15-23.45-.07-2.2-1.29-5-2.93-6.41-5.71-4.9-11.91-9.23-17.79-13.94-1.97-1.58-4.62-3.38-5.15-5.52-1.96-8-3.24-16.17-4.63-24.31-.79-4.63-1.99-9.27.59-13.87,1.47-2.64,2.36-5.6,3.64-8.74-2.31-1.03-4.86-1.66-6.74-3.15-1.89-1.49-3.1-3.83-3.97-4.97-3.98-.33-7.13-.74-10.29-.81-6.28-.15-14.03-5.78-15.87-11.99C.92,221.98.57,218.97,0,216.02c0-.3,0-.6,0-.9.62-1.26,1.38-2.48,1.85-3.8,4.33-12.05,19.48-15.77,29.61-8.71.91.63,2.99.62,3.92,0,4.13-2.76,8.55-3.62,13.33-2.78,4.25.75,8.86-1.38,10.8-5.1,7.48-14.36,11.82-29.72,14.44-45.61.17-1.01-.34-2.34-.95-3.23-12.19-17.75-24.5-35.41-36.58-53.23-.99-1.45-1.07-4.05-.61-5.86,1.45-5.69,2.93-11.45,5.24-16.82,1.63-3.78-.1-5.53-2.51-7.3-10.13-7.45-13.45-17.09-10.67-29.2,2.34-10.19,15.84-22.04,28.4-18.92,5.03,1.25,10.69,1.03,14.37,5.92,2.23,2.97,4.73,5.8,7.49,8.27,1.09.98,3.3,1.36,4.82,1.07,4.03-.77,7.99-1.95,11.91-3.17,2.88-.89,5.42-.92,8.29.45,9.43,4.51,19,8.73,28.55,12.99,1.8.8,4.4,2.36,5.53,1.69,5.55-3.29,13.79-3.33,15.32-12.09-1.67-2.66-3.49-5.51-5.23-8.4-.43-.72-1.09-2.08-.85-2.31,4.36-4.14,3.97-11.53,10.01-14.51C159.19,3.11,161.76,1.49,164.4,0ZM59.41,647.91c.36.15.73.31,1.09.46,2.98-5.77,6-11.52,8.9-17.33.36-.73.18-1.78.1-2.67-.56-6.79-1.17-13.57-1.75-20.36-.12-1.37-.19-2.75-.28-4.12-6.3,14.2-6.46,29.22-8.06,44.01ZM422.35,174.47l.83-1.27c-4.1-2.9-7.94-6.36-12.42-8.46-2.25-1.05-6.34-1.5-8.09,3.25,1.43,1.71,2.76,4.87,4.68,5.29,4.85,1.05,9.98.87,14.99,1.19Zm-224.26,228.41l2.2.31c1.99-4.6,3.99-9.2,6.09-14.05-2.22-.81-3.83-1.4-5.71-2.08-1.12,5.31-4.55,10.31-2.59,15.83Zm-85.48,273.09c.31.05.62.09.93.14,2.54-16.23,5.09-32.46,7.63-48.7-.44-.07-.88-.13-1.32-.2-2.41,16.25-4.82,32.5-7.23,48.76Zm88.74-294.7c5.9,2.35,5.87,2.35,6.45-2.98.12-1.15.83-2.29.77-3.41-.08-1.49-.64-2.95-.99-4.42-.57-.01-1.15-.03-1.72-.04-1.47,3.53-2.94,7.07-4.51,10.85Zm-130.16,221.49c.44,6.58.85,12.84,1.28,19.36,3.37-5.24,2.88-17.68-1.28-19.36Zm309.8-165.75c-.5-.26-.99-.51-1.49-.77-4.65,5.98-6.03,13.58-8.52,20.64,3.34-6.62,6.67-13.25,10.01-19.87Z"/>
      <path class="cls-2" d="m0,216.02c.57,2.95.92,5.96,1.77,8.82,1.84,6.21,9.59,11.85,15.87,11.99,3.16.07,6.31.48,10.29.81.87,1.13,2.08,3.48,3.97,4.97,1.88,1.48,4.43,2.12,6.74,3.15-1.28,3.13-2.17,6.1-3.64,8.74-2.58,4.61-1.38,9.24-.59,13.87,1.39,8.13,2.67,16.31,4.63,24.31.53,2.14,3.17,3.94,5.15,5.52,5.88,4.71,12.08,9.04,17.79,13.94,1.64,1.41,2.86,4.21,2.93,6.41.35,10.94,6.61,19.83,17.15,23.45,3.86,1.33,7.76,2.56,12.17,4.01-1.12,6.58-2.29,13.24-3.37,19.92-1.72,10.64-3.07,21.35-5.14,31.92-1.83,9.37-4.11,18.68-6.75,27.85-5.95,20.62-12.66,41.03-18.31,61.72-6.2,22.69-11.76,45.57-17.21,68.45-2.39,10.04-5.25,20.04-4.73,30.64.25,5.13,2.46,8.43,6.69,10.56,2.52,1.27,3.49,2.08,2.78,5.54-3.75,18.49-6.89,37.1-10.28,55.67-1.16,6.34-2.43,12.66-3.72,19.33,3.38.33,5.74.13,6.58-3.66,1.93-8.75,4.11-17.45,6.19-26.16.35-1.48.77-2.94,1.33-5.08,1.08,9.17,2.07,17.52,3.07,25.97h8.02v-17.43c3.23.73,5.88,5.03,9.42,1.03-3.93,9.31-7.93,18.6-11.71,27.97-.68,1.67-.46,3.71-.66,5.58.69.15,1.37.31,2.06.46,1.6-3.52,3.23-7.02,4.79-10.55,2.67-6.05,5.26-12.15,7.99-18.17.4-.88,1.43-1.48,3.05-3.09-1.22,5.34-1.69,9.34-3.09,12.98-1.77,4.61.37,6.61,4.32,8.38,1.62-6.83,3.19-13.48,4.77-20.13.17.05.35.11.52.16v42.07c1.88-.7,3.73-1.38,5.7-2.1.8-10.48,1.59-20.85,2.38-31.23.11-.01.22-.03.33-.04.06,1.17.16,2.33.16,3.5.01,12.95-.06,25.91.08,38.86.02,1.82,1.03,3.64,1.58,5.45.62-.01,1.23-.02,1.85-.04.34-1.51.95-3.02.97-4.53.09-8.77.05-17.54.76-26.58,1.21,5.27,3.9,5.88,7.96,3.35-1.14-9.44-2.31-19.06-3.47-28.65,3.32-1.03,6.21-1.92,9.03-2.79.73-10.81-.28-21.64,5.24-31.4-3.77,36.36-8.39,72.64-8.62,109.25.49.22.97.43,1.46.65.71-1.22,1.95-2.4,2.04-3.67.75-10.41,1.29-20.85,1.9-31.27.12-1.97-.11-4.09,3.13-3.63.61.09,1.97-1.66,2.18-2.72,3.13-16.21,6.12-32.44,9.13-48.67.13-.71.1-1.45.18-2.8,3.06.47,5.87.9,8.89,1.36-3.6,10.9-7.12,21.56-10.67,32.27,8.94,1.79,7.06-6.53,10.63-10.3v29.88c.53.19,1.06.37,1.58.56.68-1.51,1.93-3.02,1.95-4.54.17-10.39-.23-20.8.23-31.17.23-5.13,1.88-10.2,2.88-15.28,6.05,1.16,8.2-.12,9.9-5.1,7.82-22.82,15.69-45.62,23.39-68.48,8.51-25.26,19.01-49.73,28.82-74.49,6.36-16.05,10.25-33.08,15.28-49.66.42-1.38.81-2.95,1.73-3.97,4.2-4.66,8.57-9.15,13.11-13.95,1.58,3.63,2.87,7.28,4.72,10.62,1.01,1.82,2.81,3.36,4.55,4.6,12.73,9.07,25.12,18.73,38.46,26.81,10.78,6.52,22.61,11.39,34.22,16.43,9.7,4.21,19.78,7.53,29.64,11.36,6.1,2.37,7.4,1.97,11.79-3.88,3.05,1.79,5.88,3.71,8.93,5.19,3.3,1.61,6.92,2.56,10.16,4.26,4.86,2.55,9.36.41,13.74-.88,16.32-4.82,27.36-15.62,34.28-31.03,4.96-11.04,10.61-21.77,15.42-32.87,9.71-22.42,19.17-44.95,28.52-67.53,4.61-11.14,9.2-22.32,12.97-33.76,2.47-7.5,3.62-15.46,5.08-23.26,1.98-10.58,3.65-21.22,5.59-31.81.19-1.02,1.29-2,2.17-2.74,11.84-9.93,16.91-22.93,17.59-38.05.43-9.62-.45-18.91-4.41-27.89-3.24-7.34-7.69-13.62-14.36-17.94-3.76-2.43-1.94-5.45-1.9-8.24.05-3.93.64-7.85,1.05-12.33,3.28-.75,7.24-1.66,11.25-2.58,1.29-5.46,3.33-10.8,3.6-16.22.23-4.66-.14-10.25-6.64-11.68-.26-.06-.59-.33-.66-.57-3.18-10.36-10.14-4.67-16.72-3.67-7.96-10.89-16.57-21.72-22.72-34.25-.32-.64-.79-1.26-1.34-1.72-8.91-7.5-17.72-15.11-26.8-22.41-13.03-10.48-25.76-21.44-39.54-30.85-11.76-8.03-24.44-15.03-37.45-20.82-10.5-4.68-22-7.36-33.26-10.05-12.42-2.97-25.1-4.82-37.61-7.4-5.89-1.22-11.95-2.35-17.43-4.71-7.49-3.22-14.7-.11-22.02-.32-4.09-.12-8.27,1.57-12.31,1.26-7.43-.58-13.27,3.3-19.03,6.5-7.79,4.33-16.06,3.39-23.96,4.72,0-2.11.64-4.34-.19-5.65-.77-1.23-3.32-1.19-4.66-2.24-1.38-1.08-2.6-2.67-3.26-4.3-2.3-5.65-6.75-5.66-11.69-5.02-.95.12-2.01-.67-3.02-1.04,115.29,0,230.59,0,345.92,0v732H0C0,560.08,0,388.05,0,216.02Z"/>
      <path class="cls-2" d="m164.4,0c-2.64,1.49-5.21,3.11-7.92,4.45-6.04,2.98-5.65,10.38-10.01,14.51-.24.23.42,1.59.85,2.31,1.74,2.89,3.56,5.74,5.23,8.4-1.52,8.75-9.76,8.79-15.32,12.09-1.12.67-3.73-.89-5.53-1.69-9.55-4.26-19.12-8.49-28.55-12.99-2.87-1.37-5.42-1.35-8.29-.45-3.92,1.22-7.89,2.4-11.91,3.17-1.52.29-3.73-.1-4.82-1.07-2.76-2.47-5.26-5.3-7.49-8.27-3.67-4.89-9.34-4.67-14.37-5.92-12.56-3.12-26.06,8.73-28.4,18.92-2.77,12.11.55,21.75,10.67,29.2,2.41,1.78,4.14,3.52,2.51,7.3-2.31,5.37-3.79,11.13-5.24,16.82-.46,1.82-.38,4.41.61,5.86,12.08,17.82,24.39,35.49,36.58,53.23.61.89,1.12,2.22.95,3.23-2.62,15.89-6.96,31.25-14.44,45.61-1.94,3.72-6.55,5.85-10.8,5.1-4.78-.84-9.2.02-13.33,2.78-.93.62-3.01.63-3.92,0-10.13-7.06-25.28-3.34-29.61,8.71-.47,1.32-1.23,2.54-1.85,3.8C0,143.5,0,71.88,0,0,54.8,0,109.6,0,164.4,0Z"/>
      <path class="cls-2" d="m59.41,647.91c1.6-14.79,1.76-29.81,8.06-44.01.09,1.37.16,2.75.28,4.12.58,6.79,1.18,13.57,1.75,20.36.07.89.26,1.94-.1,2.67-2.9,5.81-5.92,11.56-8.9,17.33-.36-.15-.73-.31-1.09-.46Z"/>
      <path class="cls-2" d="m422.35,174.47c-5.01-.31-10.14-.13-14.99-1.19-1.93-.42-3.25-3.58-4.68-5.29,1.74-4.76,5.84-4.31,8.09-3.25,4.48,2.1,8.31,5.56,12.42,8.46l-.83,1.27Z"/>
      <path class="cls-2" d="m198.08,402.87c-1.96-5.52,1.46-10.52,2.59-15.83,1.88.68,3.49,1.27,5.71,2.08-2.1,4.85-4.1,9.45-6.09,14.05l-2.2-.31Z"/>
      <path class="cls-2" d="m112.6,675.96c2.41-16.25,4.82-32.5,7.23-48.76.44.07.88.13,1.32.2-2.54,16.23-5.09,32.46-7.63,48.7-.31-.05-.62-.09-.93-.14Z"/>
      <path class="cls-2" d="m201.34,381.26c1.57-3.78,3.04-7.32,4.51-10.85.57.01,1.15.03,1.72.04.35,1.47.91,2.93.99,4.42.06,1.12-.65,2.25-.77,3.41-.57,5.33-.54,5.33-6.45,2.98Z"/>
      <path class="cls-2" d="m71.18,602.75c4.16,1.68,4.65,14.11,1.28,19.36-.43-6.52-.85-12.77-1.28-19.36Z"/>
      <path class="cls-2" d="m380.99,437c-3.34,6.62-6.67,13.25-10.01,19.87,2.49-7.06,3.87-14.66,8.52-20.64.5.26.99.51,1.49.77Z"/>
    </g>
  </g>
</svg>