<?xml version="1.0" encoding="utf-8"?>
<!-- Generator: Adobe Illustrator 27.9.0, SVG Export Plug-In . SVG Version: 6.00 Build 0)  -->
<svg version="1.1" id="Layer_1" xmlns="http://www.w3.org/2000/svg" xmlns:xlink="http://www.w3.org/1999/xlink" x="0px" y="0px"
	 viewBox="0 0 832.1 832.1" style="enable-background:new 0 0 832.1 832.1;" xml:space="preserve">
<style type="text/css">
	.st0{fill:#FFFFFF;}
	.st1{display:none;}
</style>
<g id="SSmrMl.tif">
	<g>
		<path class="st0" d="M832.1,832.1H0V0c277.4,0,554.7,0,832.1,0V832.1z M595.2,40.6c-2.1,4.3-3.3,8.2-5.7,11.2
			c-12.3,15.9-24.4,31.8-37.4,47.1c-13.2,15.7-27.2,30.7-41.1,45.8c-10.3,11.2-21,22.1-31.5,33.2c-2.7,2.9-5.2,6-8,8.7
			c-6.2,5.9-11.7,12.4-19.3,16.7c-6.6,3.7-8.9,11.4-14.1,16.6c-15.3,15.4-30.7,30.8-46.1,46.1c-39.1,39.1-78.2,78.2-117.3,117.3
			c-3.5,3.5-7.1,6-12.4,4c-0.6-0.2-1.8-0.2-2,0.1c-2.2,3-5.4,1.7-7.8,1.1c-3.2-0.8-4.5,0.3-5.3,3c-0.9,3.1,1.1,4,3.5,4.7
			c6,2,6.6,3.9,2.2,8.7c-5.9,6.5-12.2,12.6-18.3,18.9c-1.7,1.8-3.3,1.8-4.7-0.1c-2.4-3.5-5-6.9-6.9-10.7c-1.3-2.5,1.8-6.9,4.7-7.6
			c2.1-0.5,4.1-1.1,6.2-1.4c2.8-0.4,4.1-1.9,4.5-4.6c0.6-4.8,1.2-9.6,2-14.3c0.4-2.3-0.3-3.4-2.4-4.3c-6.2-2.7-18-0.2-23.3,4
			c-7,5.5-9.9,13-12.6,20.9c-2.8,7.8-8.4,9.4-14.4,3.8c-2.2-2-4.2-4.4-6.5-6.3c-3.1-2.5-6.3-4.8-9.6-6.9c-2.8-1.7-5.5-1.7-6.8,2.2
			c0.3,0.4,0.7,0.9,1.1,1.3c0.4,0.4,0.9,0.8,1.4,1c5.8,1.9,8.3,6.8,11.4,11.5c4.7,7,9.8,13.8,15.5,19.9c3.9,4.2,9.2,7.1,13.6,11
			c3.3,2.9,3.4,6.5,1.1,9.7c-6.8,9.8-14.1,19.4-20.2,29.6c-5.5,9.4-10.6,19.2-14.2,29.4c-6.1,17.6-11.7,35.5-14.9,54
			c-3.6,21-5.1,42-4.4,63.2c0.7,21.3,3.6,42.5,10.7,62.8c4.4,12.5,9.3,24.7,16.2,36c3.8,6.2,7.9,12.2,11.8,18.3
			c8.6,13.5,20.1,23,36.1,26.9c16.4,4,30.8-0.2,43.8-10.4c7-5.4,11.4-12.4,14.4-20.8c2.5-7,3.5-13.9,2.8-21
			c-0.5-5-2.1-10.4-4.8-14.6c-3.3-5.1-8.3-9.1-12.6-13.5c-4.3-4.4-8.7-8.8-12.9-13.3c-3.5-3.8-7.1-7.5-10.1-11.6
			c-3.3-4.6-6.9-9.3-8.7-14.5c-2.7-7.9-4.5-16.1-5.8-24.4c-1.9-12-1.2-24.1,1.7-35.9c0.9-3.6,3.2-5.1,7.1-6
			c5.3-1.3,9.8,0.8,14.6,1.7c7.5,1.4,15.1,3.5,22.7,1.6c8.3-2.1,16.2-5.9,22.5-11.5c5.3-4.8,9.5-11,13.5-17
			c5.4-8.2,7.8-17.3,7.2-27.2c-0.6-11.5-4-21.8-11.4-30.8c-3.7-4.5-6.2-9.9-6.4-16c0-1.3,0.4-2.9,1.2-3.8
			c10.4-12.4,20.8-24.8,31.5-36.9c11-12.5,22.2-24.9,33.6-37c20.7-22,41.6-43.8,62.5-65.7c9.9-10.3,19.5-20.8,29.9-30.6
			c10.1-9.5,18.5-20.5,30.3-28.6c9.8-6.8,17.2-17.2,25.3-26.3c2.6-2.9,4.1-6.7,6.5-9.7c4.3-5.4,9.2-10.3,13.3-15.8
			c3-4,5.3-8.6,7.6-13.1c1.8-3.6,2.3-8.1,4.8-11c6.8-7.8,14.4-14.9,21.7-22.3c1.3,0.8,2.4,1.4,3.5,2c1.2-1.1,2.2-2.1,3.3-3.1
			c15.7-15.7,31.3-31.4,47.1-47c2.1-2.1,5-3.6,7.8-4.8c4-1.8,5-4.5,2-7.9c-3-3.4-6.3-6.7-9.7-9.8c-3.2-3-5.3-2.2-7.2,2
			c-1.3,2.8-2.8,5.8-4.9,7.9c-15.2,15.5-30.6,30.9-45.8,46.4c-1.7,1.8-6,3-3,7.1c0.1,0.1-0.3,0.8-0.6,1.1c-2.8,3.1-5.6,6.3-8.4,9.4
			c-0.5-0.2-1-0.5-1.5-0.7c2-7.5-0.4-13.4-6.3-17.5c31.2-27.8,61.7-55.8,97.2-78.3c-1.6-2.2-3-4.6-4.9-6.5
			c-13.9-14-27.8-28-41.8-41.8C600.4,43.8,597.7,42.3,595.2,40.6L595.2,40.6z M582.8,387c-21.9,21.6-43.6,42.9-65,64.4
			c-5.1,5.1-10.7,9.3-16.7,13.2c-1.4,0.9-3.1,1.5-4.5,2.3c-7.3,4.4-15.6,7.2-21.7,13.6c-1.1,1.2-2.6,2.2-4.1,3
			c-6.1,3.3-12.4,6.3-18.4,9.8c-17.1,10.1-34.1,20.6-51.3,30.6c-10.5,6.1-21.2,12.2-32.3,17.2c-15.8,7.2-30.2,16.8-44.2,26.8
			c-10.1,7.2-19.7,15.6-27.5,25.7c-6.4,8.2-13.3,15.7-15.4,26.5c-1.9,10-7.4,19.2-4.1,30c2.5,8.2,3.6,16.9,6,25.2
			c1,3.4,3.3,6.6,5.4,9.6c3.4,4.9,6.8,9.8,10.8,14.2c2.2,2.5,5.6,3.9,8.4,5.8c3.9,2.6,7.4,6.5,11.7,7.7c11.2,3.2,22,8.4,34.3,6.5
			c6.4-1,13.7,0,19.2-2.7c12.1-5.9,24-12.4,33.7-22.5c10.6-11,20.2-22.7,29.6-34.6c3.5-4.4,7-8.8,9.9-13.5c4.2-6.7,8-13.7,11.8-20.7
			c4.3-7.8,8.6-15.7,12.6-23.7c5.6-11,11-22,16.6-33c4.6-8.9,9.3-17.8,14.1-26.6c4.1-7.5,7.7-15.4,13-22c4.8-5.9,8.4-12.1,11.7-18.8
			c2.6-5.3,4.9-10.8,8.3-15.5c3-4.2,7.3-7.4,11-11.2c19.8-20.1,39.5-40.3,59.3-60.4c0.9-0.9,1.7-1.9,2.4-2.8
			C600.9,401.3,593.5,392.7,582.8,387L582.8,387z"/>
		<path d="M595.2,40.6c2.5,1.8,5.1,3.2,7.2,5.3c14,13.9,28,27.8,41.8,41.8c1.9,1.9,3.3,4.3,4.9,6.5c-35.5,22.5-66,50.5-97.2,78.3
			c6,4.1,8.3,10,6.3,17.5c0.5,0.2,1,0.5,1.5,0.7c2.8-3.1,5.6-6.3,8.4-9.4c0.3-0.3,0.7-0.9,0.6-1.1c-3-4,1.2-5.3,3-7.1
			c15.2-15.5,30.6-30.9,45.8-46.4c2.1-2.2,3.6-5.1,4.9-7.9c2-4.2,4-5,7.2-2c3.4,3.1,6.6,6.4,9.7,9.8c3,3.4,2,6.1-2,7.9
			c-2.8,1.2-5.7,2.7-7.8,4.8c-15.8,15.6-31.4,31.3-47.1,47c-1,1-2.1,2-3.3,3.1c-1.1-0.6-2.2-1.3-3.5-2c-7.3,7.4-14.9,14.5-21.7,22.3
			c-2.5,2.9-3,7.4-4.8,11c-2.3,4.5-4.6,9.1-7.6,13.1c-4.1,5.5-9,10.4-13.3,15.8c-2.4,3-3.9,6.9-6.5,9.7
			c-8.2,9.1-15.5,19.5-25.3,26.3c-11.8,8.1-20.2,19.1-30.3,28.6c-10.3,9.8-20,20.3-29.9,30.6c-20.9,21.8-41.8,43.7-62.5,65.7
			c-11.4,12.1-22.6,24.5-33.6,37c-10.7,12.1-21.1,24.5-31.5,36.9c-0.8,1-1.3,2.5-1.2,3.8c0.2,6.1,2.7,11.4,6.4,16
			c7.4,9,10.8,19.3,11.4,30.8c0.5,9.9-1.8,19.1-7.2,27.2c-4,6-8.2,12.3-13.5,17c-6.3,5.7-14.1,9.5-22.5,11.5
			c-7.6,1.9-15.2-0.2-22.7-1.6c-4.8-0.9-9.3-2.9-14.6-1.7c-3.9,0.9-6.2,2.4-7.1,6c-2.9,11.9-3.5,23.9-1.7,35.9
			c1.3,8.2,3.1,16.5,5.8,24.4c1.8,5.2,5.4,9.9,8.7,14.5c3,4.1,6.6,7.9,10.1,11.6c4.2,4.5,8.6,8.8,12.9,13.3
			c4.3,4.4,9.3,8.4,12.6,13.5c2.7,4.2,4.4,9.6,4.8,14.6c0.7,7-0.3,14-2.8,21c-3,8.4-7.5,15.4-14.4,20.8
			c-13,10.1-27.4,14.3-43.8,10.4c-15.9-3.8-27.5-13.3-36.1-26.9c-3.9-6.1-8-12.1-11.8-18.3c-6.9-11.3-11.9-23.5-16.2-36
			c-7.1-20.3-10-41.5-10.7-62.8c-0.7-21.2,0.8-42.2,4.4-63.2c3.2-18.5,8.8-36.4,14.9-54c3.6-10.2,8.7-20.1,14.2-29.4
			c6.1-10.3,13.4-19.8,20.2-29.6c2.3-3.3,2.1-6.9-1.1-9.7c-4.4-3.8-9.7-6.8-13.6-11c-5.7-6.2-10.9-12.9-15.5-19.9
			c-3.1-4.7-5.6-9.6-11.4-11.5c-0.5-0.2-1-0.6-1.4-1c-0.4-0.4-0.7-0.9-1.1-1.3c1.3-4,4-4,6.8-2.2c3.4,2.1,6.6,4.4,9.6,6.9
			c2.3,1.9,4.3,4.2,6.5,6.3c6.1,5.6,11.7,4.1,14.4-3.8c2.7-7.8,5.6-15.4,12.6-20.9c5.4-4.2,17.1-6.7,23.3-4c2,0.9,2.8,2,2.4,4.3
			c-0.8,4.8-1.4,9.5-2,14.3c-0.4,2.7-1.7,4.2-4.5,4.6c-2.1,0.3-4.1,0.9-6.2,1.4c-2.9,0.6-6,5.1-4.7,7.6c2,3.7,4.5,7.2,6.9,10.7
			c1.3,1.9,3,1.9,4.7,0.1c6.1-6.3,12.3-12.5,18.3-18.9c4.4-4.8,3.8-6.7-2.2-8.7c-2.4-0.8-4.4-1.6-3.5-4.7c0.8-2.7,2-3.8,5.3-3
			c2.4,0.6,5.5,1.8,7.8-1.1c0.3-0.4,1.4-0.4,2-0.1c5.2,2,8.9-0.6,12.4-4c39.1-39.1,78.2-78.2,117.3-117.3
			c15.4-15.4,30.8-30.7,46.1-46.1c5.1-5.1,7.5-12.8,14.1-16.6c7.6-4.3,13.1-10.9,19.3-16.7c2.9-2.7,5.3-5.8,8-8.7
			c10.5-11.1,21.2-21.9,31.5-33.2c13.9-15.1,27.9-30.2,41.1-45.8c12.9-15.3,25.1-31.2,37.4-47.1C591.9,48.8,593.1,44.9,595.2,40.6
			L595.2,40.6z M294,507.7c0.1,1.5,0.6,2.8,0.2,3.8c-2.2,5.6-10.5,10.5-16.3,10.4c-1.4,0-4.3,2.3-4.1,3.1c1.4,6.9,2.4,14.3,5.5,20.5
			c3.2,6.2,9,10.9,15.4,14.2c3,1.5,3.3,3,0.9,5.6c-2.1-1.2-4.1-2.5-6.3-3.4c-5.5-2.2-9.3-10.1-17-5c-0.3,0.2-1.1-0.4-1.6-0.4
			c-4.7,0.1-9.4-2.2-14.1,0.7c-2.3,1.4-5.2,2-7.9,2.9c-0.4-0.3-0.9-0.7-1.3-1c0.2,1.8,0.3,3.6,0.5,5.4c0.5,5,5.1,6.9,8,10
			c3.5,3.7,8,6.7,12.6,9.1c2.8,1.5,6.8,2.6,9.8,1.8c7.2-1.9,14.5-4.1,20.2-9.4c13.7-12.7,24.4-26.6,20.3-47.1
			c-2-9.6-6.6-16.9-16.5-19.7C299.7,508.6,297.2,508.3,294,507.7L294,507.7z"/>
		<path class="st1" d="M582.8,387c10.7,5.7,18.1,14.3,24.7,24.2c-0.8,0.9-1.6,1.9-2.4,2.8c-19.8,20.1-39.5,40.3-59.3,60.4
			c-3.7,3.7-8,7-11,11.2c-3.4,4.7-5.7,10.2-8.3,15.5c-3.3,6.6-6.9,12.9-11.7,18.8c-5.3,6.5-8.9,14.5-13,22
			c-4.8,8.8-9.5,17.7-14.1,26.6c-5.6,11-11,22-16.6,33c-4.1,8-8.3,15.8-12.6,23.7c-3.8,7-7.6,13.9-11.8,20.7
			c-3,4.7-6.4,9.1-9.9,13.5c-9.4,11.9-19,23.6-29.6,34.6c-9.7,10.1-21.6,16.5-33.7,22.5c-5.5,2.7-12.8,1.7-19.2,2.7
			c-12.2,2-23.1-3.2-34.3-6.5c-4.3-1.2-7.8-5.1-11.7-7.7c-2.8-1.9-6.2-3.3-8.4-5.8c-4-4.4-7.4-9.3-10.8-14.2c-2.1-3-4.4-6.1-5.4-9.6
			c-2.4-8.3-3.5-16.9-6-25.2c-3.2-10.8,2.2-20.1,4.1-30c2-10.8,9-18.3,15.4-26.5c7.9-10.1,17.4-18.5,27.5-25.7
			c14-10,28.4-19.5,44.2-26.8c11.1-5,21.8-11.1,32.3-17.2c17.2-10,34.1-20.5,51.3-30.6c6-3.5,12.3-6.5,18.4-9.8c1.5-0.8,3-1.8,4.1-3
			c6-6.5,14.3-9.3,21.7-13.6c1.5-0.9,3.1-1.4,4.5-2.3c6-3.8,11.6-8,16.7-13.2C539.2,429.9,560.9,408.6,582.8,387L582.8,387z"/>
		<path class="st0" d="M294,507.7c3.2,0.6,5.7,0.9,8.1,1.6c10,2.8,14.6,10.1,16.5,19.7c4.2,20.5-6.6,34.4-20.3,47.1
			c-5.7,5.3-13,7.5-20.2,9.4c-2.9,0.8-6.9-0.3-9.8-1.8c-4.6-2.4-9.1-5.4-12.6-9.1c-2.8-3-7.5-5-8-10c-0.2-1.8-0.3-3.6-0.5-5.4
			c0.4,0.3,0.9,0.7,1.3,1c2.6-1,5.5-1.5,7.9-2.9c4.7-2.9,9.4-0.6,14.1-0.7c0.5,0,1.3,0.6,1.6,0.4c7.7-5.1,11.5,2.8,17,5
			c2.2,0.9,4.2,2.2,6.3,3.4c2.5-2.6,2.1-4.1-0.9-5.6c-6.4-3.3-12.3-8-15.4-14.2c-3.1-6.2-4.1-13.5-5.5-20.5
			c-0.2-0.8,2.7-3.1,4.1-3.1c5.7,0.1,14.1-4.8,16.3-10.4C294.6,510.5,294.1,509.2,294,507.7L294,507.7z"/>
	</g>
</g>
</svg>
