<svg version="1.1" id="Layer_1" xmlns="http://www.w3.org/2000/svg" xmlns:xlink="http://www.w3.org/1999/xlink" x="0px" y="0px" viewBox="0 0 832.1 832.1" style="enable-background:new 0 0 832.1 832.1;" xml:space="preserve">
<g id="SSmrMl.tif">
	<g>
		<path d="M595.2,40.6c2.5,1.8,5.1,3.2,7.2,5.3c14,13.9,28,27.8,41.8,41.8c1.9,1.9,3.3,4.3,4.9,6.5c-35.5,22.5-66,50.5-97.2,78.3    c6,4.1,8.3,10,6.3,17.5c0.5,0.2,1,0.5,1.5,0.7c2.8-3.1,5.6-6.3,8.4-9.4c0.3-0.3,0.7-0.9,0.6-1.1c-3-4,1.2-5.3,3-7.1    c15.2-15.5,30.6-30.9,45.8-46.4c2.1-2.2,3.6-5.1,4.9-7.9c2-4.2,4-5,7.2-2c3.4,3.1,6.6,6.4,9.7,9.8c3,3.4,2,6.1-2,7.9    c-2.8,1.2-5.7,2.7-7.8,4.8c-15.8,15.6-31.4,31.3-47.1,47c-1,1-2.1,2-3.3,3.1c-1.1-0.6-2.2-1.3-3.5-2c-7.3,7.4-14.9,14.5-21.7,22.3    c-2.5,2.9-3,7.4-4.8,11c-2.3,4.5-4.6,9.1-7.6,13.1c-4.1,5.5-9,10.4-13.3,15.8c-2.4,3-3.9,6.9-6.5,9.7    c-8.2,9.1-15.5,19.5-25.3,26.3c-11.8,8.1-20.2,19.1-30.3,28.6c-10.3,9.8-20,20.3-29.9,30.6c-20.9,21.8-41.8,43.7-62.5,65.7    c-11.4,12.1-22.6,24.5-33.6,37c-10.7,12.1-21.1,24.5-31.5,36.9c-0.8,1-1.3,2.5-1.2,3.8c0.2,6.1,2.7,11.4,6.4,16    c7.4,9,10.8,19.3,11.4,30.8c0.5,9.9-1.8,19.1-7.2,27.2c-4,6-8.2,12.3-13.5,17c-6.3,5.7-14.1,9.5-22.5,11.5    c-7.6,1.9-15.2-0.2-22.7-1.6c-4.8-0.9-9.3-2.9-14.6-1.7c-3.9,0.9-6.2,2.4-7.1,6c-2.9,11.9-3.5,23.9-1.7,35.9    c1.3,8.2,3.1,16.5,5.8,24.4c1.8,5.2,5.4,9.9,8.7,14.5c3,4.1,6.6,7.9,10.1,11.6c4.2,4.5,8.6,8.8,12.9,13.3    c4.3,4.4,9.3,8.4,12.6,13.5c2.7,4.2,4.4,9.6,4.8,14.6c0.7,7-0.3,14-2.8,21c-3,8.4-7.5,15.4-14.4,20.8    c-13,10.1-27.4,14.3-43.8,10.4c-15.9-3.8-27.5-13.3-36.1-26.9c-3.9-6.1-8-12.1-11.8-18.3c-6.9-11.3-11.9-23.5-16.2-36    c-7.1-20.3-10-41.5-10.7-62.8c-0.7-21.2,0.8-42.2,4.4-63.2c3.2-18.5,8.8-36.4,14.9-54c3.6-10.2,8.7-20.1,14.2-29.4    c6.1-10.3,13.4-19.8,20.2-29.6c2.3-3.3,2.1-6.9-1.1-9.7c-4.4-3.8-9.7-6.8-13.6-11c-5.7-6.2-10.9-12.9-15.5-19.9    c-3.1-4.7-5.6-9.6-11.4-11.5c-0.5-0.2-1-0.6-1.4-1c-0.4-0.4-0.7-0.9-1.1-1.3c1.3-4,4-4,6.8-2.2c3.4,2.1,6.6,4.4,9.6,6.9    c2.3,1.9,4.3,4.2,6.5,6.3c6.1,5.6,11.7,4.1,14.4-3.8c2.7-7.8,5.6-15.4,12.6-20.9c5.4-4.2,17.1-6.7,23.3-4c2,0.9,2.8,2,2.4,4.3    c-0.8,4.8-1.4,9.5-2,14.3c-0.4,2.7-1.7,4.2-4.5,4.6c-2.1,0.3-4.1,0.9-6.2,1.4c-2.9,0.6-6,5.1-4.7,7.6c2,3.7,4.5,7.2,6.9,10.7    c1.3,1.9,3,1.9,4.7,0.1c6.1-6.3,12.3-12.5,18.3-18.9c4.4-4.8,3.8-6.7-2.2-8.7c-2.4-0.8-4.4-1.6-3.5-4.7c0.8-2.7,2-3.8,5.3-3    c2.4,0.6,5.5,1.8,7.8-1.1c0.3-0.4,1.4-0.4,2-0.1c5.2,2,8.9-0.6,12.4-4c39.1-39.1,78.2-78.2,117.3-117.3    c15.4-15.4,30.8-30.7,46.1-46.1c5.1-5.1,7.5-12.8,14.1-16.6c7.6-4.3,13.1-10.9,19.3-16.7c2.9-2.7,5.3-5.8,8-8.7    c10.5-11.1,21.2-21.9,31.5-33.2c13.9-15.1,27.9-30.2,41.1-45.8c12.9-15.3,25.1-31.2,37.4-47.1C591.9,48.8,593.1,44.9,595.2,40.6    L595.2,40.6z M294,507.7c0.1,1.5,0.6,2.8,0.2,3.8c-2.2,5.6-10.5,10.5-16.3,10.4c-1.4,0-4.3,2.3-4.1,3.1c1.4,6.9,2.4,14.3,5.5,20.5    c3.2,6.2,9,10.9,15.4,14.2c3,1.5,3.3,3,0.9,5.6c-2.1-1.2-4.1-2.5-6.3-3.4c-5.5-2.2-9.3-10.1-17-5c-0.3,0.2-1.1-0.4-1.6-0.4    c-4.7,0.1-9.4-2.2-14.1,0.7c-2.3,1.4-5.2,2-7.9,2.9c-0.4-0.3-0.9-0.7-1.3-1c0.2,1.8,0.3,3.6,0.5,5.4c0.5,5,5.1,6.9,8,10    c3.5,3.7,8,6.7,12.6,9.1c2.8,1.5,6.8,2.6,9.8,1.8c7.2-1.9,14.5-4.1,20.2-9.4c13.7-12.7,24.4-26.6,20.3-47.1    c-2-9.6-6.6-16.9-16.5-19.7C299.7,508.6,297.2,508.3,294,507.7L294,507.7z"/>
	</g>
</g>
</svg>