<svg id="Layer_1" data-name="Layer 1" xmlns="http://www.w3.org/2000/svg" viewBox="0 0 755.51 755.51">
  <g id="AwYmxW.tif">
    <g>
      <path class="cls-1" d="m432.4,35.73c3.35-3.15,5.95-5.6,8.55-8.05l1.03-1.62c1.66,2.28,3.31,4.57,5,6.83,1.75,2.35,3.5,2.28,5.52.19,3.43-3.57,6.99-7.01,10.52-10.48,2.89-2.84,5.74-4.15,9.15-.47,2.84,3.07,6.51,5.45,8.97,8.76,2.78,3.76,6.85,4.4,10.63,5.64,1.2.39,3.05-1.22,4.12-1.7,11.1,10.73,22.24,21.52,33.4,32.31-2.69,4.83-1.76,10.4,2.36,14.61,3.59,3.68,7.09,7.44,10.77,11.32,6.04-3.72,6.55-3.54,12.37,4.79,2.38,3.41,4.79,6.81,7.3,10.14,7.45,9.89,15.03,19.7,22.43,29.64,5.74,7.71,11.03,15.76,17,23.27,3.02,3.79,3.43,6.89.76,10.84-.67.99-.74,3.15-.1,4.13,5.62,8.62,5.65,9.2-1.43,17.49,7.75,6.79,7.54,15.53,5.41,24.61-.35,1.49-1.09,3.11-2.14,4.17-46.96,47.06-93.94,94.08-141.08,140.95-1.71,1.71-4.96,2.03-7.57,2.64-7.95,1.86-15.11.09-21.33-5.09-6.55,3.14-10.84-2.48-13.63-3.02-8.9.82-15.38,1.47-21.87,1.99-4.31.34-8.63.48-13.45.74.77,9.24,1.58,18.19,2.24,27.15.91,12.24,1.93,24.48,2.46,36.74.22,5.14-1.87,9.67-5.74,13.48-15.5,15.27-31.05,30.5-46.11,46.2-7.27,7.58-15.33,8.9-25.31,6.23,6.69,5.06,3.2,11.72,3.37,17.82.11,3.62-.23,7.45.84,10.8,2.4,7.49,6.09,14.59,8.24,22.14,1.67,5.86,2.08,12.14,2.54,18.28.64,8.63,2.3,16.92,7.53,23.98,5.33,7.2,6.89,15.61,8.94,23.98,2.23,9.1,6.74,16.99,13.87,23.34,3.97,3.54,7.64,7.24,9.36,12.75,1.72,5.52-.02,17.22-4,21.58-.7.77-.67,2.69-.3,3.88,2.76,8.91,2.22,9.51-6.61,13.28-10.21,4.35-20.1,9.47-30.25,13.98-12.61,5.6-25.33,10.96-38.03,16.35-6.85,2.91-13.8,5.57-20.63,8.53-5.15,2.24-6.7,1.84-8.95-3.08-.91-2-1.64-4.08-2.59-6.06-.35-.74-1.22-1.92-1.63-1.84-4.47.93-6.33-2.59-8.74-5.02-3.48-3.51-7.22-6.89-10.06-10.89-3.05-4.29-5.65-9.03-7.65-13.91-3.84-9.36-7.59-18.81-10.49-28.49-3.34-11.18-5.76-22.64-8.5-33.99-2.11-8.79-3.97-17.64-6.16-26.42-3.75-15.08-7.65-30.11-11.51-45.16-2.76-10.79-5.59-21.56-8.33-32.35-2.43-9.57-9.8-15.48-19.81-15.71-3.3-.08-6.63.25-9.89-.1-1.72-.19-3.32-1.46-4.98-2.24.12-.6.23-1.19.35-1.79-7.13,1.68-14.36,3.07-21.38,5.15-5.07,1.5-10.01,3.63-14.76,5.99-3.48,1.73-6.19,1.37-8.81-1.24-8.5-8.48-17.02-16.94-25.45-25.48-2.81-2.85-3.58-5.92-1.64-9.95,7.5-15.63,14.89-31.33,21.81-47.22,1.41-3.24,4.81-6.74,1.94-11.11-.43-.65.21-2.99.8-3.18,6.33-2.06,5.61-6.95,5.13-11.85-.07-.72.24-1.47.37-2.19,5.13-1.63,7.71-6.2,7.01-11.66-.15-1.15.67-3.17,1.59-3.58,4.45-2.02,5.89-5.11,5.2-9.9-.19-1.34,1.59-3.15,2.78-4.47,1.78-1.97,4.1-3.49,5.71-5.58,2.73-3.56,5.69.16,8.5-.56.76-.2,1.83.8,3.93,1.83,3.69-7.34,7.1-14.8,11.11-21.92,3.21-5.7,7.02-11.08,10.83-16.41,1.81-2.54,4.22-4.66,6.42-6.92.71-.73,1.75-1.95,2.37-1.81,3.33.76,5,.36,3.92-3.66-.06-.21,3.84-2.16,5.86-2.1,3.73.13,7.44,1.15,11.87,1.92-1.47-1.58-2.5-2.74-3.57-3.83-3.87-3.93-3.94-6.74-.12-10.55,19.75-19.72,39.49-39.45,59.28-59.14,35.32-35.14,70.63-70.28,106.03-105.34,27.38-27.13,54.83-54.19,82.41-81.12,3.22-3.15,3.22-5.14-.14-7.71-1.66-1.26-3.15-2.75-5.09-4.46Zm-137.63,387.26c1.54,2.21,3.08,4.35,4.54,6.54,1.58,2.38,2.59,5.48,4.74,7.06,3.76,2.77,7.98,5.37,12.41,6.68,7.63,2.27,15.58,3.42,23.35,5.24,1.14.27,2.85,1.61,2.86,2.45,0,1.31-.97,3.49-1.99,3.8-4.89,1.47-9.91,3.25-14.94,3.44-17.89.65-32.93-6.16-45.39-18.89-.41-.42-1.1-.55-2.52-1.23,2.01,4.49,3.33,8.26,5.29,11.66,6.74,11.68,16.86,20.15,27.74,27.64,8.45,5.81,14.21,4.84,21.48-2.43,12.83-12.83,25.6-25.73,38.55-38.44,2.53-2.48,3.63-5,2.83-8.33-1.3-5.41-3.24-10.45-7.37-14.51-9.73-9.57-19.32-19.28-28.99-28.92-.82-.81-1.75-1.5-2.71-2.31-13.43,13.65-26.66,27.09-39.89,40.54Z"/>
    </g>
  </g>
</svg>