<?xml version="1.0" encoding="UTF-8"?>
<svg id="Layer_1" data-name="Layer 1" xmlns="http://www.w3.org/2000/svg" viewBox="0 0 755.51 755.51">
  <defs>
    <style>
      .cls-1, .cls-2 {
        stroke-width: 0px;
      }

      .cls-2 {
        fill: #fff;
      }
    </style>
  </defs>
  <g id="AwYmxW.tif">
    <g>
      <path class="cls-2" d="m755.51,755.51c-251.84,0-503.67,0-755.51,0C0,503.67,0,251.84,0,0c251.84,0,503.67,0,755.51,0,0,251.84,0,503.67,0,755.51ZM432.4,35.73c1.94,1.71,3.43,3.2,5.09,4.46,3.37,2.57,3.37,4.56.14,7.71-27.58,26.93-55.03,53.99-82.41,81.12-35.39,35.06-70.71,70.21-106.03,105.34-19.79,19.68-39.53,39.42-59.28,59.14-3.82,3.81-3.75,6.62.12,10.55,1.08,1.1,2.1,2.25,3.57,3.83-4.43-.77-8.13-1.79-11.87-1.92-2.02-.07-5.91,1.89-5.86,2.1,1.08,4.02-.59,4.42-3.92,3.66-.63-.14-1.67,1.08-2.37,1.81-2.19,2.26-4.6,4.38-6.42,6.92-3.81,5.33-7.62,10.71-10.83,16.41-4.01,7.12-7.43,14.58-11.11,21.92-2.1-1.02-3.17-2.02-3.93-1.83-2.81.72-5.77-3.01-8.5.56-1.6,2.09-3.93,3.61-5.71,5.58-1.19,1.32-2.97,3.13-2.78,4.47.69,4.79-.75,7.88-5.2,9.9-.92.42-1.73,2.43-1.59,3.58.7,5.46-1.88,10.03-7.01,11.66-.13.72-.44,1.47-.37,2.19.49,4.9,1.21,9.8-5.13,11.85-.59.19-1.23,2.53-.8,3.18,2.88,4.38-.53,7.87-1.94,11.11-6.92,15.89-14.31,31.59-21.81,47.22-1.94,4.04-1.17,7.1,1.64,9.95,8.44,8.54,16.96,17,25.45,25.48,2.62,2.61,5.33,2.97,8.81,1.24,4.75-2.36,9.68-4.49,14.76-5.99,7.02-2.07,14.24-3.46,21.38-5.15-.12.6-.23,1.19-.35,1.79,1.66.78,3.26,2.05,4.98,2.24,3.26.36,6.59.03,9.89.1,10.01.23,17.38,6.15,19.81,15.71,2.74,10.79,5.57,21.57,8.33,32.35,3.86,15.05,7.76,30.09,11.51,45.16,2.18,8.77,4.04,17.63,6.16,26.42,2.73,11.36,5.15,22.81,8.5,33.99,2.89,9.68,6.65,19.13,10.49,28.49,2,4.87,4.6,9.62,7.65,13.91,2.85,3.99,6.58,7.37,10.06,10.89,2.41,2.43,4.27,5.94,8.74,5.02.41-.09,1.28,1.1,1.63,1.84.95,1.98,1.68,4.06,2.59,6.06,2.25,4.92,3.81,5.32,8.95,3.08,6.82-2.96,13.78-5.62,20.63-8.53,12.7-5.39,25.42-10.75,38.03-16.35,10.15-4.51,20.03-9.62,30.25-13.98,8.84-3.77,9.37-4.37,6.61-13.28-.37-1.18-.4-3.11.3-3.88,3.97-4.35,5.72-16.06,4-21.58-1.72-5.51-5.39-9.21-9.36-12.75-7.13-6.35-11.64-14.24-13.87-23.34-2.05-8.37-3.61-16.79-8.94-23.98-5.23-7.06-6.89-15.34-7.53-23.98-.46-6.13-.87-12.41-2.54-18.28-2.15-7.55-5.84-14.65-8.24-22.14-1.07-3.35-.73-7.18-.84-10.8-.18-6.1,3.32-12.76-3.37-17.82,9.98,2.67,18.04,1.35,25.31-6.23,15.06-15.7,30.61-30.93,46.11-46.2,3.87-3.82,5.97-8.34,5.74-13.48-.53-12.26-1.55-24.5-2.46-36.74-.67-8.96-1.47-17.91-2.24-27.15,4.82-.26,9.14-.4,13.45-.74,6.49-.52,12.97-1.17,21.87-1.99,2.79.55,7.08,6.17,13.63,3.02,6.22,5.18,13.38,6.95,21.33,5.09,2.61-.61,5.86-.94,7.57-2.64,47.14-46.87,94.13-93.9,141.08-140.95,1.06-1.06,1.8-2.68,2.14-4.17,2.12-9.07,2.34-17.82-5.41-24.61,7.08-8.29,7.05-8.87,1.43-17.49-.64-.98-.57-3.15.1-4.13,2.67-3.95,2.26-7.04-.76-10.84-5.97-7.51-11.26-15.56-17-23.27-7.4-9.94-14.97-19.74-22.43-29.64-2.51-3.33-4.92-6.73-7.3-10.14-5.82-8.33-6.33-8.52-12.37-4.79-3.68-3.87-7.17-7.64-10.77-11.32-4.11-4.21-5.05-9.77-2.36-14.61-11.16-10.79-22.3-21.58-33.4-32.31-1.07.48-2.92,2.1-4.12,1.7-3.79-1.24-7.85-1.88-10.63-5.64-2.46-3.31-6.13-5.69-8.97-8.76-3.4-3.68-6.26-2.37-9.15.47-3.53,3.47-7.09,6.92-10.52,10.48-2.02,2.1-3.77,2.16-5.52-.19-1.68-2.26-3.33-4.55-5-6.83l-1.03,1.62c-2.6,2.45-5.2,4.9-8.55,8.05Z"/>
      <path class="cls-1" d="m432.4,35.73c3.35-3.15,5.95-5.6,8.55-8.05l1.03-1.62c1.66,2.28,3.31,4.57,5,6.83,1.75,2.35,3.5,2.28,5.52.19,3.43-3.57,6.99-7.01,10.52-10.48,2.89-2.84,5.74-4.15,9.15-.47,2.84,3.07,6.51,5.45,8.97,8.76,2.78,3.76,6.85,4.4,10.63,5.64,1.2.39,3.05-1.22,4.12-1.7,11.1,10.73,22.24,21.52,33.4,32.31-2.69,4.83-1.76,10.4,2.36,14.61,3.59,3.68,7.09,7.44,10.77,11.32,6.04-3.72,6.55-3.54,12.37,4.79,2.38,3.41,4.79,6.81,7.3,10.14,7.45,9.89,15.03,19.7,22.43,29.64,5.74,7.71,11.03,15.76,17,23.27,3.02,3.79,3.43,6.89.76,10.84-.67.99-.74,3.15-.1,4.13,5.62,8.62,5.65,9.2-1.43,17.49,7.75,6.79,7.54,15.53,5.41,24.61-.35,1.49-1.09,3.11-2.14,4.17-46.96,47.06-93.94,94.08-141.08,140.95-1.71,1.71-4.96,2.03-7.57,2.64-7.95,1.86-15.11.09-21.33-5.09-6.55,3.14-10.84-2.48-13.63-3.02-8.9.82-15.38,1.47-21.87,1.99-4.31.34-8.63.48-13.45.74.77,9.24,1.58,18.19,2.24,27.15.91,12.24,1.93,24.48,2.46,36.74.22,5.14-1.87,9.67-5.74,13.48-15.5,15.27-31.05,30.5-46.11,46.2-7.27,7.58-15.33,8.9-25.31,6.23,6.69,5.06,3.2,11.72,3.37,17.82.11,3.62-.23,7.45.84,10.8,2.4,7.49,6.09,14.59,8.24,22.14,1.67,5.86,2.08,12.14,2.54,18.28.64,8.63,2.3,16.92,7.53,23.98,5.33,7.2,6.89,15.61,8.94,23.98,2.23,9.1,6.74,16.99,13.87,23.34,3.97,3.54,7.64,7.24,9.36,12.75,1.72,5.52-.02,17.22-4,21.58-.7.77-.67,2.69-.3,3.88,2.76,8.91,2.22,9.51-6.61,13.28-10.21,4.35-20.1,9.47-30.25,13.98-12.61,5.6-25.33,10.96-38.03,16.35-6.85,2.91-13.8,5.57-20.63,8.53-5.15,2.24-6.7,1.84-8.95-3.08-.91-2-1.64-4.08-2.59-6.06-.35-.74-1.22-1.92-1.63-1.84-4.47.93-6.33-2.59-8.74-5.02-3.48-3.51-7.22-6.89-10.06-10.89-3.05-4.29-5.65-9.03-7.65-13.91-3.84-9.36-7.59-18.81-10.49-28.49-3.34-11.18-5.76-22.64-8.5-33.99-2.11-8.79-3.97-17.64-6.16-26.42-3.75-15.08-7.65-30.11-11.51-45.16-2.76-10.79-5.59-21.56-8.33-32.35-2.43-9.57-9.8-15.48-19.81-15.71-3.3-.08-6.63.25-9.89-.1-1.72-.19-3.32-1.46-4.98-2.24.12-.6.23-1.19.35-1.79-7.13,1.68-14.36,3.07-21.38,5.15-5.07,1.5-10.01,3.63-14.76,5.99-3.48,1.73-6.19,1.37-8.81-1.24-8.5-8.48-17.02-16.94-25.45-25.48-2.81-2.85-3.58-5.92-1.64-9.95,7.5-15.63,14.89-31.33,21.81-47.22,1.41-3.24,4.81-6.74,1.94-11.11-.43-.65.21-2.99.8-3.18,6.33-2.06,5.61-6.95,5.13-11.85-.07-.72.24-1.47.37-2.19,5.13-1.63,7.71-6.2,7.01-11.66-.15-1.15.67-3.17,1.59-3.58,4.45-2.02,5.89-5.11,5.2-9.9-.19-1.34,1.59-3.15,2.78-4.47,1.78-1.97,4.1-3.49,5.71-5.58,2.73-3.56,5.69.16,8.5-.56.76-.2,1.83.8,3.93,1.83,3.69-7.34,7.1-14.8,11.11-21.92,3.21-5.7,7.02-11.08,10.83-16.41,1.81-2.54,4.22-4.66,6.42-6.92.71-.73,1.75-1.95,2.37-1.81,3.33.76,5,.36,3.92-3.66-.06-.21,3.84-2.16,5.86-2.1,3.73.13,7.44,1.15,11.87,1.92-1.47-1.58-2.5-2.74-3.57-3.83-3.87-3.93-3.94-6.74-.12-10.55,19.75-19.72,39.49-39.45,59.28-59.14,35.32-35.14,70.63-70.28,106.03-105.34,27.38-27.13,54.83-54.19,82.41-81.12,3.22-3.15,3.22-5.14-.14-7.71-1.66-1.26-3.15-2.75-5.09-4.46Zm-137.63,387.26c1.54,2.21,3.08,4.35,4.54,6.54,1.58,2.38,2.59,5.48,4.74,7.06,3.76,2.77,7.98,5.37,12.41,6.68,7.63,2.27,15.58,3.42,23.35,5.24,1.14.27,2.85,1.61,2.86,2.45,0,1.31-.97,3.49-1.99,3.8-4.89,1.47-9.91,3.25-14.94,3.44-17.89.65-32.93-6.16-45.39-18.89-.41-.42-1.1-.55-2.52-1.23,2.01,4.49,3.33,8.26,5.29,11.66,6.74,11.68,16.86,20.15,27.74,27.64,8.45,5.81,14.21,4.84,21.48-2.43,12.83-12.83,25.6-25.73,38.55-38.44,2.53-2.48,3.63-5,2.83-8.33-1.3-5.41-3.24-10.45-7.37-14.51-9.73-9.57-19.32-19.28-28.99-28.92-.82-.81-1.75-1.5-2.71-2.31-13.43,13.65-26.66,27.09-39.89,40.54Z"/>
      <path class="cls-2" d="m294.76,422.99c13.23-13.45,26.46-26.9,39.89-40.54.96.81,1.9,1.5,2.71,2.31,9.66,9.64,19.26,19.35,28.99,28.92,4.12,4.06,6.07,9.1,7.37,14.51.8,3.33-.3,5.85-2.83,8.33-12.96,12.7-25.72,25.61-38.55,38.44-7.27,7.27-13.03,8.25-21.48,2.43-10.88-7.49-21-15.96-27.74-27.64-1.96-3.4-3.28-7.17-5.29-11.66,1.42.68,2.12.81,2.52,1.23,12.46,12.73,27.49,19.54,45.39,18.89,5.03-.18,10.04-1.97,14.94-3.44,1.02-.31,1.99-2.49,1.99-3.8,0-.85-1.71-2.19-2.86-2.45-7.77-1.82-15.72-2.97-23.35-5.24-4.43-1.32-8.65-3.91-12.41-6.68-2.15-1.58-3.16-4.69-4.74-7.06-1.46-2.19-3-4.33-4.54-6.54Z"/>
    </g>
  </g>
</svg>