<?xml version="1.0" encoding="utf-8"?>
<svg version="1.1" id="Layer_1" xmlns="http://www.w3.org/2000/svg" xmlns:xlink="http://www.w3.org/1999/xlink" x="0px" y="0px"
	 viewBox="0 0 667 419" style="enable-background:new 0 0 667 419;" xml:space="preserve">
<g id="AwYmxW.tif">
	<g>
		<path d="M612.8,6.3c4.6,0.1,8.2,0.2,11.7,0.4l1.9-0.4c-0.4,2.8-0.9,5.6-1.3,8.4c-0.4,2.9,0.9,4.1,3.8,4c4.9-0.1,9.9,0,14.8,0
			c4.1,0,7,1.1,6.8,6.1c-0.2,4.2,0.7,8.5,0.1,12.5c-0.7,4.6,1.7,8,3.5,11.5c0.6,1.1,3,1.3,4.1,1.7c0.3,15.4,0.5,30.9,0.8,46.5
			c-5.3,1.5-8.6,6.1-8.7,12c-0.1,5.1-0.2,10.3-0.4,15.6c6.9,1.6,7.1,2.1,5.4,12.1c-0.7,4.1-1.4,8.2-2,12.3
			c-1.7,12.3-3.3,24.6-5.1,36.8c-1.4,9.5-3.3,18.9-4.4,28.5c-0.5,4.8-2.4,7.3-7.1,8.2c-1.2,0.2-2.8,1.7-3,2.8
			c-2.1,10.1-2.5,10.5-13.4,11.4c0.7,10.3-5.6,16.3-13.6,21.2c-1.3,0.8-3,1.4-4.5,1.4c-66.5,0.1-133,0.1-199.4-0.1
			c-2.4,0-4.9-2.1-7.2-3.5c-6.9-4.3-10.7-10.6-11.5-18.7c-6.9-2.4-5.9-9.4-7.5-11.8c-6.9-5.7-11.9-9.8-16.9-14.1
			c-3.3-2.8-6.4-5.8-10-9c-6,7.1-11.7,14-17.6,20.8c-8,9.3-15.9,18.7-24.2,27.7c-3.5,3.8-8.2,5.5-13.6,5.5
			c-21.8-0.2-43.5-0.4-65.3,0.1c-10.5,0.2-17.1-4.5-22.3-13.5c1.2,8.3-6,10.6-10.2,15c-2.5,2.6-5.4,5.1-7,8.2
			c-3.6,7-6,14.6-9.8,21.5c-3,5.3-7.1,10.1-11.1,14.7c-5.6,6.6-10.3,13.6-11.6,22.3c-1.3,8.9-6.2,15.9-10.6,23.3
			c-4.9,8-7.2,16.8-6.7,26.3c0.3,5.3,0.3,10.5-2.4,15.6c-2.7,5.1-12.2,12.2-18.1,12.4c-1,0-2.4,1.4-3,2.5c-4.3,8.3-5.2,8.3-14.1,4.7
			c-10.3-4.1-20.9-7.5-31.3-11.5c-12.9-5-25.7-10.2-38.5-15.3c-6.9-2.8-13.7-5.8-20.6-8.6c-5.2-2.1-6-3.4-4.2-8.5
			c0.8-2.1,1.7-4,2.5-6.1c0.3-0.8,0.5-2.2,0.1-2.5c-3.8-2.5-2.6-6.3-2.6-9.7c0-4.9-0.2-10,0.6-14.8c0.9-5.2,2.4-10.4,4.4-15.2
			c3.9-9.3,7.9-18.7,12.7-27.6c5.5-10.3,11.9-20.1,18-30c4.7-7.7,9.7-15.3,14.3-23c8-13.3,15.9-26.7,23.8-40.1
			c5.7-9.6,11.3-19.2,17-28.8c5-8.5,4-17.9-2.9-25.1c-2.3-2.4-4.9-4.5-6.9-7.1c-1.1-1.4-1.3-3.4-1.9-5.1c0.5-0.3,1-0.7,1.5-1
			c-6.2-3.9-12.3-8-18.8-11.5c-4.6-2.5-9.6-4.5-14.7-6.2c-3.7-1.2-5.3-3.4-5.4-7.1c0-12-0.1-24,0-36c0-4,1.7-6.7,5.9-8.2
			c16.4-5.7,32.7-11.6,48.8-18c3.3-1.3,8.2-1.4,9.2-6.5c0.2-0.8,2.3-2,2.8-1.7c5.9,3,8.9-0.9,12-4.8c0.5-0.6,1.2-0.9,1.8-1.3
			c4.8,2.5,9.8,1.1,13.2-3.3c0.7-0.9,2.7-1.8,3.7-1.4c4.6,1.7,7.8,0.6,10.7-3.3c0.8-1.1,3.4-1.1,5.1-1.2c2.7-0.1,5.4,0.4,8,0.1
			c4.4-0.6,3.9,4.1,6.4,5.6c0.7,0.4,0.7,1.9,1.5,4.1c7.8-2.6,15.5-5.4,23.4-7.6c6.3-1.8,12.8-2.9,19.3-3.9c3.1-0.5,6.3-0.3,9.4-0.4
			c1,0,2.6-0.1,3,0.4c1.8,2.9,3.3,3.8,5.4,0.2c0.1-0.2,4.2,1.2,5.6,2.7c2.5,2.7,4.4,6.1,7,9.8c0.1-2.2,0.2-3.7,0.2-5.2
			c0-5.5,2-7.6,7.4-7.5c27.9,0,55.8,0,83.7,0.1c49.8,0.1,99.6,0.2,149.5,0.5c38.5,0.2,77.1,0.5,115.6,0.9c4.5,0,5.9-1.4,5.4-5.6
			C613,11,613,8.9,612.8,6.3L612.8,6.3z M241.7,182.8c-0.5,2.7-0.9,5.3-1.4,7.8c-0.6,2.8-2,5.7-1.6,8.3c0.7,4.6,1.8,9.4,4.1,13.5
			c3.8,7,8.6,13.4,12.8,20.2c0.6,1,0.9,3.2,0.3,3.8c-0.9,0.9-3.2,1.8-4.1,1.3c-4.5-2.4-9.3-4.7-13-8.1
			c-13.1-12.2-18.9-27.6-18.7-45.5c0-0.6-0.4-1.2-0.9-2.7c-1.8,4.6-3.5,8.2-4.5,12c-3.5,13-2.3,26.2,0.1,39.2
			c1.9,10.1,6.6,13.5,16.9,13.5c18.1,0,36.3-0.1,54.4,0.1c3.5,0,6.1-1,7.9-3.9c2.9-4.7,5.1-9.7,5-15.5c-0.1-13.6,0-27.3,0-40.9
			c0-1.2-0.2-2.3-0.3-3.5C279.4,182.4,260.6,182.6,241.7,182.8L241.7,182.8z"/>
	</g>
</g>
</svg>
