<?xml version="1.0" encoding="UTF-8"?>
<svg id="Layer_1" data-name="Layer 1" xmlns="http://www.w3.org/2000/svg" viewBox="0 0 792.89 792.89">
  <defs>
    <style>
      .cls-1, .cls-2 {
        stroke-width: 0px;
      }

      .cls-2 {
        fill: #fff;
      }
    </style>
  </defs>
  <g id="dvYj5n.tif">
    <g>
      <path class="cls-2" d="m792.89,792.89H0V0c264.3,0,528.59,0,792.89,0v792.89ZM408.06,209.69c1.24-1.33,2.5-2.71,3.81-4.05,42.01-42.68,83.94-85.45,126.16-127.92,5.75-5.79,5.18-10.07.42-15.87-9.4-11.46-19.49-22.41-29.88-33-4.68-4.77-10.66-8.31-16.24-12.13-2.95-2.02-5.61-1.57-8.43,1.31-14.25,14.55-28.75,28.85-43.16,43.24-29.07,29.01-58.16,58.02-87.22,87.03-1.83,1.82-3.55,4.27-6.14,1.09-2.94-3.63-5.14-2.28-7.88.49-20.36,20.55-40.84,40.97-61.28,61.44-29.63,29.67-59.23,59.36-88.93,88.96-1.08,1.07-3.53,2.24-4.45,1.73-3.55-1.96-5.61-.48-7.85,2.05-2.38,2.69-5.19,4.99-7.51,7.72-.96,1.13-2.01,3.34-1.53,4.36,2.82,5.95,6.1,11.69,9.18,17.52,2.22,4.21,4.36,8.46,6.55,12.73-1.55.76-1.99,1.14-2.45,1.17-7.74.61-9.52,2.83-8.69,10.52.26,2.36.04,4.78.04,6.46-2.9.64-5.56.43-6.36,1.54-4.89,6.87-9.31,14.08-14.03,21.07-.99,1.47-2.39,3.01-3.96,3.69-3.51,1.53-7.32,2.38-10.88,3.8-4.31,1.72-8.67,10.4-7.2,13.89,2.47,5.87,7.74,9.07,14.83,8.53,0,1.93.25,3.85-.05,5.69-.97,6.05-3.02,12.06-3.05,18.09-.04,10.34,1.04,20.7,1.82,31.03.39,5.12,2.42,10.02.3,15.39-1.39,3.51-2.35,7.77-1.71,11.38,1.6,8.98,6.72,15.49,15.42,19.42,3.63,1.64,7.92,4.77,9.14,8.21,3.73,10.53,6.4,21.47,8.96,32.38,4.45,18.93,7.13,38.39,13.14,56.78,5.3,16.21,13.94,31.36,21.5,46.79,9.55,19.49,20.25,38.44,34.21,55.09,15.81,18.86,32.61,36.89,49.23,55.06,1.3,1.42,5.13,2.26,6.67,1.39,5.26-2.98,10.47-6.37,14.88-10.48,8.77-8.15,17-16.88,25.47-25.35,1.13-1.13,2.36-2.14,3.55-3.21.36.29.72.57,1.09.86-2.74,3.77-5.48,7.54-8.21,11.31.48.49.95.98,1.43,1.46,4.4-3.18,8.8-6.36,13.15-9.51,7.05,6.27,11.41,4.69,16.7-5.94-1.33-1.9-2.67-3.83-4.03-5.77,2.87-4.89,5.62-9.6,8.38-14.31-.4-.39-.81-.77-1.21-1.16-3.96,2.64-7.92,5.28-11.88,7.91-.32-.39-.65-.79-.97-1.18,1-1.25,1.93-2.55,3-3.73,9.32-10.25,18.78-20.36,27.95-30.74,4.92-5.57,4.89-12.01-2.1-17.03-14.38-10.33-28.78-20.79-42.06-32.46-17.85-15.69-34.71-32.52-51.83-49.02-2.76-2.66-4.99-6.03-6.91-9.38-2.75-4.81-5.17-9.83-7.43-14.9-6.95-15.6-13.09-31.57-10.81-49.04.92-7.04,3.15-14.38,6.69-20.49,3.7-6.38,9.14-12.1,14.86-16.84,3.19-2.64,9.17-4.72,12.76-3.55,16.11,5.25,31.7,12.06,47.71,17.64,5.52,1.92,12.12,3.59,17.53,2.35,8.51-1.96,17.86-2.8,24.8-9.55,2.08-2.02,5.13-3.04,7.75-4.53.3.57.55.83.57,1.11.13,1.53.11,3.09.31,4.61,2.25,17.06,9.95,30.3,26,38.06,3.17,1.53,6,1.84,7.18-1.13.81-2.05-.07-5.57-1.46-7.53-2.75-3.87-6.53-6.99-9.6-10.66-5.68-6.79-9.07-14.4-8.93-23.57.11-7.16,4.09-11.93,8.59-16.55,7.4-7.59,14.3-15.59,18.26-25.55,2.23-5.63,5.8-10.96,4.92-17.54-.44-3.31-.46-6.67-.79-9.99-1.13-11.45-4.9-22.18-11.33-31.49-5.69-8.25-12.74-15.61-19.64-22.95-3.78-4.02-6.57-7.92-4.55-13.56,1.54-4.31,2.27-9.65,5.26-12.58,11.59-11.33,16.86-25.77,20.03-40.75,1.23-5.79-1.42-13.51-4.75-18.82-2.96-4.71-4.44-9.02-3.55-13.93,1.19-6.59,1-12.16-4.71-16.83-5.79-4.74-11.13-10.03-16.68-15.09,6.41-6.18,6.44-6.59,2.13-12.68Z"/>
      <path class="cls-1" d="m408.06,209.69c4.31,6.09,4.27,6.5-2.13,12.68,5.55,5.06,10.89,10.36,16.68,15.09,5.71,4.67,5.9,10.25,4.71,16.83-.89,4.91.6,9.21,3.55,13.93,3.33,5.31,5.97,13.03,4.75,18.82-3.17,14.98-8.44,29.42-20.03,40.75-3,2.93-3.72,8.27-5.26,12.58-2.02,5.64.77,9.54,4.55,13.56,6.9,7.34,13.95,14.7,19.64,22.95,6.43,9.31,10.2,20.05,11.33,31.49.33,3.32.34,6.69.79,9.99.88,6.58-2.69,11.91-4.92,17.54-3.95,9.96-10.85,17.96-18.26,25.55-4.5,4.61-8.48,9.39-8.59,16.55-.14,9.17,3.25,16.79,8.93,23.57,3.07,3.67,6.85,6.79,9.6,10.66,1.39,1.96,2.28,5.48,1.46,7.53-1.18,2.96-4.01,2.66-7.18,1.13-16.04-7.76-23.75-21-26-38.06-.2-1.52-.18-3.07-.31-4.61-.02-.28-.27-.54-.57-1.11-2.62,1.49-5.67,2.51-7.75,4.53-6.95,6.75-16.29,7.6-24.8,9.55-5.41,1.24-12.01-.43-17.53-2.35-16.01-5.57-31.6-12.39-47.71-17.64-3.58-1.17-9.57.91-12.76,3.55-5.73,4.74-11.17,10.45-14.86,16.84-3.53,6.1-5.77,13.44-6.69,20.49-2.28,17.46,3.86,33.43,10.81,49.04,2.26,5.07,4.67,10.09,7.43,14.9,1.92,3.36,4.15,6.72,6.91,9.38,17.12,16.51,33.98,33.33,51.83,49.02,13.28,11.67,27.68,22.13,42.06,32.46,6.99,5.02,7.02,11.46,2.1,17.03-9.17,10.38-18.63,20.5-27.95,30.74-1.07,1.18-2,2.49-3,3.73.32.39.65.79.97,1.18,3.96-2.64,7.92-5.28,11.88-7.91.4.39.81.77,1.21,1.16-2.76,4.71-5.51,9.42-8.38,14.31,1.36,1.94,2.7,3.87,4.03,5.77-5.29,10.63-9.64,12.21-16.7,5.94-4.36,3.15-8.75,6.33-13.15,9.51-.48-.49-.95-.98-1.43-1.46,2.74-3.77,5.48-7.54,8.21-11.31-.36-.29-.72-.57-1.09-.86-1.19,1.07-2.42,2.08-3.55,3.21-8.47,8.47-16.7,17.2-25.47,25.35-4.42,4.1-9.62,7.49-14.88,10.48-1.54.87-5.37.03-6.67-1.39-16.61-18.17-33.42-36.2-49.23-55.06-13.96-16.65-24.66-35.59-34.21-55.09-7.56-15.43-16.19-30.58-21.5-46.79-6.02-18.39-8.7-37.86-13.14-56.78-2.56-10.9-5.23-21.85-8.96-32.38-1.22-3.44-5.51-6.57-9.14-8.21-8.7-3.93-13.82-10.44-15.42-19.42-.64-3.6.32-7.87,1.71-11.38,2.12-5.37.09-10.27-.3-15.39-.78-10.34-1.87-20.69-1.82-31.03.03-6.03,2.07-12.04,3.05-18.09.3-1.84.05-3.76.05-5.69-7.09.54-12.36-2.66-14.83-8.53-1.47-3.49,2.9-12.18,7.2-13.89,3.57-1.42,7.37-2.27,10.88-3.8,1.57-.68,2.97-2.22,3.96-3.69,4.72-7,9.13-14.2,14.03-21.07.79-1.12,3.46-.9,6.36-1.54,0-1.69.22-4.1-.04-6.46-.83-7.69.95-9.91,8.69-10.52.47-.04.91-.42,2.45-1.17-2.19-4.27-4.33-8.52-6.55-12.73-3.08-5.83-6.36-11.57-9.18-17.52-.48-1.02.57-3.23,1.53-4.36,2.32-2.73,5.13-5.04,7.51-7.72,2.24-2.53,4.3-4.01,7.85-2.05.91.5,3.37-.66,4.45-1.73,29.7-29.6,59.3-59.29,88.93-88.96,20.44-20.47,40.92-40.89,61.28-61.44,2.74-2.76,4.94-4.11,7.88-.49,2.59,3.19,4.31.74,6.14-1.09,29.07-29.02,58.15-58.02,87.22-87.03,14.42-14.38,28.91-28.69,43.16-43.24,2.82-2.88,5.48-3.32,8.43-1.31,5.58,3.82,11.56,7.36,16.24,12.13,10.39,10.59,20.48,21.53,29.88,33,4.76,5.8,5.33,10.08-.42,15.87-42.22,42.47-84.14,85.24-126.16,127.92-1.31,1.33-2.56,2.72-3.81,4.05Zm-86.95,239.34c-.42.23-.84.46-1.26.7,1,2.46,1.43,5.44,3.1,7.31,13.05,14.65,27.57,26.78,49.01,24.36,5.62-.63,11.95-1.26,16.45-4.19,8.76-5.7,16.5-12.97,24.56-19.72,2.48-2.08,4.92-4.34,6.89-6.89,3.4-4.41,7.64-8.69,9.36-13.76,5.28-15.56,3.06-31.26-5.5-44.7-6.91-10.85-17.09-19.69-31.4-20-7.72-.17-15.88-.18-21.95,5.79-10.99,10.79-21.8,21.76-32.46,32.87-5.95,6.19-6.01,8.63-1.89,16.1.9,1.64,1.98,3.18,2.79,4.87,6.11,12.76,15.29,21.76,29.88,23.55,5.69.7,11.5.32,17.25.54,1.63.06,3.25.51,5.54.9-4.45,6.08-10.17,8.38-15.86,9.34-7.61,1.28-15.03-.94-22.19-3.99-10.68-4.56-21.54-8.73-32.32-13.06Zm-154.49,56.29c4.37.05,7.62-3.23,7.9-7.97.28-4.75-5.46-11.05-10.09-11.07-2.93-.02-8.06,7.84-8.24,12.62-.14,3.62,4.31,6.36,10.43,6.43Z"/>
      <path class="cls-2" d="m321.11,449.03c10.78,4.33,21.64,8.5,32.32,13.06,7.16,3.06,14.59,5.28,22.19,3.99,5.69-.96,11.41-3.25,15.86-9.34-2.28-.38-3.9-.83-5.54-.9-5.75-.22-11.57.16-17.25-.54-14.59-1.79-23.77-10.79-29.88-23.55-.81-1.68-1.88-3.23-2.79-4.87-4.12-7.47-4.05-9.91,1.89-16.1,10.66-11.11,21.48-22.08,32.46-32.87,6.07-5.97,14.23-5.96,21.95-5.79,14.31.31,24.49,9.15,31.4,20,8.56,13.44,10.78,29.14,5.5,44.7-1.72,5.07-5.97,9.36-9.36,13.76-1.97,2.55-4.4,4.81-6.89,6.89-8.06,6.74-15.8,14.02-24.56,19.72-4.5,2.93-10.83,3.56-16.45,4.19-21.45,2.42-35.97-9.71-49.01-24.36-1.67-1.87-2.1-4.85-3.1-7.31.42-.23.84-.46,1.26-.7Z"/>
      <path class="cls-2" d="m166.62,505.31c-6.12-.07-10.57-2.81-10.43-6.43.19-4.78,5.32-12.63,8.24-12.62,4.63.03,10.36,6.32,10.09,11.07-.27,4.74-3.52,8.02-7.9,7.97Z"/>
    </g>
  </g>
</svg>