<svg id="Layer_1" data-name="Layer 1" xmlns="http://www.w3.org/2000/svg" viewBox="0 0 604.58 604.58">
  <g id="DYItz2.tif">
    <g>
      <path class="cls-1" d="m162.06,309.5c-1.43-.89-2.86-2.55-4.3-2.56-9.12-.1-15.02-3.48-17.81-12.14-1.79-5.58-5.6-11.33-1.76-17.62.52-.85.74-2.32,1.42-2.55,12.01-4.06,20.23-14.03,31.09-19.9,3.5-1.89,6.05-2.29,9.02.72,1.89,1.91,4.37,3.23,6.58,4.82.44-.37.89-.74,1.33-1.11-1.05-3.7-2.09-7.41-3.14-11.12-6.44,3.74-9.44,1.53-14.36-10.74-9.51.78-2.35,8.13-6.07,13.29-14.88,3.77-31.54,7.99-49.23,12.47-2.5-10.98-5.33-22.67-7.63-34.47-.27-1.37,2.1-4.29,3.79-4.84,9.93-3.24,20.03-5.97,30.05-8.93,4.2-1.24,8.31-2.89,12.58-3.78,1.34-.28,3.52.94,4.52,2.14,1.42,1.71,2.12,4.02,3.95,5.79-.34-1.27-.58-2.58-1.03-3.81-2.1-5.72-.32-9.78,5.66-10.51,5.01-.61,6.73-1.91,6.9-7.47.28-9.02,1-9-4.43-12.62,4.29-.84,7.27-1.32,10.18-2.07.9-.23,1.86-1.04,2.36-1.86,6.27-10.31,13.97-19.12,25.13-23.5-.46-2.69-.77-4.51-1.08-6.33,1.85.06,3.7.23,5.53.13,1.09-.06,2.47-.22,3.19-.9,11.03-10.27,21.94-20.67,32.96-30.95,3.73-3.48,4.05-6.68-.89-10.05,2.55-1.92,4.71-3.53,7.28-5.46.75,2.55,1.33,4.54,2.18,7.43,12.05-8.01,21.28-3.42,29.06,6.87,5.03,6.65,2.35,12.7-1.46,18.75,6.25,6.44,11.48,14.64,18.95,18.53,4.98,2.59,8.95,3.24,9.42,9.59.04.6,5.4,1.75,7.83,1.05,9.65-2.79,19.12-6.22,30-9.86-3.89-16.89-8.46-33.63-11.45-50.66-2.71-15.45-2.02-31.21,11.32-42.14,4.59-3.76,12.07-4.98,18.35-5.36,5-.31,10.26,2.22,15.25,3.93,1.53.52,2.54,2.53,5.05,5.21,5.66-.46,12.53,1.64,17.41,9.65-11.89-.73-23.13-.17-32.31,7.73,5.48,8.77,12.19,2.68,18.16,1.76,13-1.99,11.26-2.56,17.23,10.17-5.13,1.51-10.23,3.01-14.11,4.15,6.02,6.06,12.04,12.13,18.31,18.44,5.38-3.56,12.44-8.1,19.36-12.85,3.74-2.57,6.55-1.99,8.98,1.72.92,1.41,1.85,2.91,3.1,3.98,4.87,4.19,4.56,8.16-.32,11.95-3.57,2.77-2.41,5,.18,7.75,8.9,9.44,8.83,9.5.02,19.11-.42.46-.76.99-1.26,1.64,8.7,9.27,17.36,18.51,26.56,28.31,9.8-8.25,6.84-20.31,9.44-32.19,5.91,8.46,14.4,13.63,10.9,25.46-2.27,7.66-2.15,16.03-2.91,24.11-.14,1.55.43,3.28,1.05,4.78,2.18,5.25,4.53,10.44,6.93,15.92,6.06-4.26,6.39-12.01,6.74-19.03.28-5.65-1.88-11.41-2.69-17.15-.16-1.15.91-2.47,1.41-3.71.8.05,1.59.09,2.39.14.54,10.5,2.19,21.09,1.32,31.47-.94,11.27-15.82,21.16-27.09,21.72-21.16,1.06-40.51-6.27-60.35-11.45-2.77-.72-5.22-2.66-8.35-4.32-4.88,11.13-9.62,21.84-14.2,32.61-.38.89-.03,2.41.52,3.32.87,1.43,2.22,2.57,3.33,3.85,8.62,9.9,8.68,10.04,21.01,4.55,4.3-1.91,7.59-1.27,11.02,1.68,9.11,7.85,9.24,16.28,6.48,29.74-1.81,8.82-6.43,12.58-12.24,17.77-8.63,7.69-14.85,18.09-23.49,25.76-15.61,13.84-34,23.64-53.04,32.06-2.16.96-4.93.53-8.25.82,7.15,7.83-1.13,12.16-3.6,18.82,9.46,6.78,22.02,1.59,31.88,7.51-.6,5.49-2.94,7.59-8.84,6.24-5.53-1.26-11.38-1.03-17-1.98-6.99-1.19-13.89-2.92-21.42-4.55,3.39,7.72.72,14.11-4.26,19.73-3.36,3.79-7.91,7.72-12.78,5.86-3.3-1.25-5.15-6.31-8.01-10.17q-7.96,1.18-17.27-9.78c-3.39,3.61-6.77,7.21-9.89,10.52,4.44,10.98,9.14,22.12,13.46,33.41,7.13,18.58,13.93,37.29,21.02,55.89,4.2,11.01,8.68,21.91,13.02,32.86.85,2.16,1.91,4.27,2.45,6.51,3.29,13.67,1.79,16.67-11.27,22.35-14.83,6.45-29.71,12.8-44.56,19.19-6.25,2.69-15.48.73-20.42-6.24-5.91-8.34-11.19-17.37-15.23-26.75-5.64-13.1-9.88-26.8-14.71-40.25-6.95-19.36-13.69-38.8-20.96-58.04-2.3-6.09-5.72-11.83-9.2-17.37-1.18-1.88-3.98-3.45-6.25-3.82-11.64-1.9-14.96-11.18-18.47-20.23-5.24-13.52-10.32-27.11-15.34-40.72-2.7-7.31-5.38-14.65-7.51-22.14-.69-2.41-.11-5.53.81-7.98,4.82-12.83,9.39-26.08,27.47-26.04-.22-.55-.43-1.1-.65-1.65Zm258.2-6.05c-.42-.47-.83-.95-1.25-1.42-17.15,15.16-34.29,30.32-51.44,45.49.42.48.84.96,1.26,1.44,20.11-11.78,41.47-22.14,51.42-45.51Zm-210.06-144.1c-8.15,8.21-15.79,15.73-23.14,23.51-1.1,1.16-.86,3.58-1.24,5.42,1.98.17,4.62,1.25,5.81.37,6.89-5.09,13.54-10.52,20.06-16.08,4.51-3.84,3.38-7.86-1.49-13.22Zm218.43,131.51c7.8-8.96,4.97-16.33.49-25.08-.56-1.09-2.53-2.51-3.36-2.25-4.83,1.53-9.52,3.51-14.83,5.56,6.47,7.96,12.07,14.85,17.7,21.77Zm-157.37-179.8q-12.13,5.06-8.37,10.93c4.54-4.14,6.09.91,8.34,2.95,2.74,2.48,5.01,5.5,7.63,8.45,6.6-9.56,5.52-12.29-7.6-22.33Zm29.96,266.97c3.58-4.84,7.82-9.38,10.34-14.72.74-1.57-3.36-5.44-4.95-7.8-8.78,5.98-7.9,13.63-5.4,22.52Zm75.58-311.43c-9.03-5.47-18.92-4.27-24.61,2.73,1.97,1.07,3.89,2.41,6.02,3.19,1.55.57,3.62,1.03,5.03.47,4.59-1.85,8.99-4.19,13.55-6.39Zm-144.85,79.07c-5.33,3.64-10.58,7.23-15.89,10.85,4.82,3.34,11.9,1.15,17.55-5.32-.53-1.76-1.06-3.54-1.66-5.53Zm80.33,264.12c.28-.66.56-1.33.84-1.99-3.03-5.89,4.69-14.98-6.77-18.92,1.64,4.72,3.1,8.93,4.41,12.7-2.78,1.89-4.97,3.37-7.16,4.86.07.7.15,1.4.22,2.1,2.82.42,5.64.83,8.47,1.25Zm-69.65-274.94c7.88,1.59,11.43-3.52,15.54-8.42-1.03-1.67-2.06-3.33-3.32-5.38-4.24,4.79-8.11,9.16-12.22,13.79Z"/>
    </g>
  </g>
</svg>