<svg id="Layer_1" data-name="Layer 1" xmlns="http://www.w3.org/2000/svg" viewBox="0 0 905.55 905.55">
  
  <g id="M72tgK.tif">
    <g>
      
      <path class="cls-1" d="m422.23,211.36c5.6,5.61,10.99,11,16.37,16.39.35-.03.7-.06,1.05-.1-.59-1.98-.68-4.36-1.88-5.86-2.42-3.04-5.48-5.57-8.2-8.39-2.68-2.76-2.96-5.66-.08-8.48,17.35-17.02,34.51-34.24,52.26-50.82,3.24-3.02,8.79-3.96,13.47-4.97,15.45-3.32,30.99-6.22,46.49-9.32,1.26-.25,2.89-.42,3.63-1.26,3.94-4.46,6.71-1.94,9.56,1.24,2.61,2.91,5.3,5.75,8.29,8.98,13.73-13.85,26.98-27.22,40.1-40.46,16.77,16.82,32.97,33.06,49.17,49.31-12.92,12.93-26.15,26.17-40.76,40.79,4.07,3.42,7.66,6.41,11.22,9.44,2.44,2.08,1.81,3.83.5,6.7-2.08,4.56-2.79,9.78-3.86,14.77-2.6,12.1-5.07,24.23-7.59,36.35-.39,1.89-.52,3.88-1.21,5.65-1.26,3.24-2.12,7.06-4.41,9.42-16.48,16.97-33.26,33.64-49.97,50.39-3.92,3.93-5.14,3.89-9.19-.15-2.31-2.3-4.75-4.5-6.88-6.96-2.08-2.4-4.16-3.64-6.44-1.83,5,4.99,10.22,10.21,15.79,15.76,2.37-2.36,4.83-.51,7.44,2.29,4.34,4.65,8.85,9.15,13.49,13.5,2.53,2.37,2.3,4.05-.02,6.45-8.95,9.28-8.89,9.34-18.05.21-2.77-2.76-5.56-5.52-8.31-8.31-1.76-1.79-4.44-3.28-1.98-6.48.26-.34-.42-1.78-1-2.36-13.81-13.87-27.67-27.7-41.54-41.51-.4-.4-1.06-.53-2.34-.08,1.06,1.24,2.06,2.54,3.2,3.7,8.4,8.44,16.83,16.85,25.26,25.27,5.36,5.35,5.31,9.63-.11,15.2-.67.69-1.08,1.64-1.39,2.13-3.35-.35-6.08-4.94-8.43.33.8,1.39,1.69,2.93,2.74,4.74-15.22,15.17-30.44,30.36-45.65,45.53,1.85,4.04,10.29,6.34,2.5,12.25,1.11,1.49,2.14,2.87,3.57,4.79-2.6,2.06-5.23,4.13-8.2,6.48-.57-.47-1.92-1.58-3.49-2.87-.97.89-1.99,1.82-2.38,2.18v7.83c-.51.18-1.01.35-1.52.53,2.54,2.02,5.08,4.04,7.82,6.22-1.65,2.02-2.73,3.35-3.93,4.82,1.84.98,3.47,1.85,5.1,2.73-.3.3-.61.6-.91.9,1.12,1.57,1.88,3.87,3.4,4.58,10.84,5.1,21.91,9.72,32.74,14.82,8.33,3.92,8.92,3.95,14.09-3.96.44-.68.86-1.38,1.48-2.36,2.41.76,4.92,1.55,7.61,2.4,1.44-2.72,2.85-5.4,4.43-8.41,6.12,2.59,11.85,5.02,17.95,7.6-1.22,3.36-2.3,6.34-3.46,9.54,1.88,1.02,3.71,2.02,6.09,3.32.77-1.59,1.66-3.03,2.17-4.59.9-2.76,1.41-5.57,5.5-3.56,2.94,1.45,6.64,2.11,3.39,6.67-.92,1.29-1.34,2.93-2.16,4.77,1.91,1.05,3.51,3.23,5.13-.49.89-2.04,2.18-3.9,3.46-6.14,2.6,1.3,4.88,2.44,7.51,3.76-1.03,3.03-2.01,5.88-3.19,9.35,10.57,4.8,21.38,9.7,32.24,14.62,1.34-2.07,2.54-3.92,3.91-6.03,7.64,3.43,15.13,6.8,22.62,10.16,15.48,6.97,30.97,13.9,46.43,20.92,5.76,2.61,11.69,4.99,16.98,8.37,1.58,1.01,2.12,5.22,1.58,7.61-.87,3.89-2.95,7.52-4.66,11.19-4.31,9.25-8.73,18.44-13.01,27.69-.65,1.41-.79,3.05-1.18,4.63,2.87,1.53,5.55,2.96,8.5,4.52-4.29,9.34-8.46,18.42-12.82,27.9-3.22-1.52-5.95-2.82-9.12-4.32-2.9,6.29-5.83,12.51-8.66,18.77-4.38,9.7-8.68,19.43-13.05,29.13-.73,1.63-1.39,3.38-2.51,4.72-2.35,2.82-4.73,4.55-9.03,2.46-15.9-7.73-32-15.07-48.07-22.44-10.42-4.78-20.84-9.59-31.45-13.92-4.54-1.85-4.6-3.87-2.4-7.6,2-3.4,3.36-7.18,5.1-11.02-11.43-5.2-22.13-10.07-33-15.02-2.74,5.41-5.3,10.45-7.98,15.73-1.28-.52-2.43-1.09-3.63-1.46-3.81-1.16-4.26-3.37-2.44-6.66,1.96-3.55,3.69-7.24,5.71-11.25-1.32-.77-2.66-1.55-4.66-2.72-2.65,5.72-5.11,11.06-7.67,16.6-1.57-.7-3-1.45-4.5-1.99-3.29-1.19-3.58-3.23-2.07-6.09,1.95-3.7,3.75-7.49,5.8-11.62-2.28-1.2-4.21-2.23-6.64-3.51-2.67,5.53-5.16,10.69-7.99,16.55-5.42-2.68-11.26-5.57-17.45-8.63,2.24-5.56,4.31-10.73,6.6-16.4-2.05-1.05-4.15-2.13-6.24-3.21.28-.13.56-.26.85-.39-1.14-2.25-1.79-5.04-3.52-6.65-6.16-5.71-12.26-11.66-19.21-16.26-5.84-3.86-12.84-5.96-19.55-8.94-.91,1.34-1.77,2.62-2.83,4.19-7.3-3.9-14.52-7.83-21.84-11.6-1.26-.65-3.14-1.2-4.32-.74-4.79,1.87-11.22.93-14.89-2.68-1.74-1.71-3.38-3.53-5.43-5.68-1.33,1.19-2.53,2.18-3.63,3.26-1.03,1.01-1.97,2.13-2.87,3.11.13.52.11.99.31,1.13,8.48,5.79,10.89,15.47,14.96,23.96,3.37,7.01,1.73,13.98-2.7,20.22-13.3,18.75-27.07,37.09-43.89,52.93-2.85,2.69-5.4,5.98-7.11,9.48-.9,1.83-.31,4.99.66,7.06,4.89,10.44,10.08,20.74,15.25,31.05,8.99,17.92,18.1,35.78,27,53.74,1.35,2.73,1.47,5.75,4.49,7.89,3.9,2.75.63,6.83.41,10.27-.56,9-8.66,11-14.65,14.65-7.32,4.46-15.04,8.25-22.59,12.34-10.23,5.53-20.44,11.11-30.7,16.57-3.93,2.09-14.98-.83-17.19-4.67-.91-1.58-.9-3.7-1.48-6.38-4.95-.42-5.4-5.1-6.62-9.78-2.16-8.27-5.09-16.33-7.6-24.51-3.5-11.39-6.83-22.83-10.37-34.2-2.44-7.87-5.05-15.68-7.69-23.49-1.9-5.63-3.3-11.56-6.09-16.72-7.76-14.36-18.67-26-32.13-35.36-3.43-2.39-5.57-1.21-7.87,1-3.29,3.16-6.43,6.48-9.66,9.72-4.16,4.18-6.24,4.7-9.46.11-3.17-4.5-7.74-3.62-11.69-4.96-1.05-.36-3.04.93-4.12,1.96-4.22,4.06-8.26,8.31-12.35,12.5-.79.82-1.53,1.69-2.27,2.56-2.53,2.94-5.93,4.23-9.07,2.05-4.19-2.9-4.88-8.91-1.98-12.28,4.25-4.94,8.52-9.89,13.08-14.54,2.52-2.58,2.8-5.04,1.67-8.24-.49-1.4-.08-3.13-.08-5.37-9.23-7.17-8.14-19.51-12.26-29.69-1.1-2.73-3.38-5.79-5.92-6.93-3.78-1.7-6.39-3.22-6.86-7.79-.45-4.46-2.19-8.79-2.65-13.25-.28-2.67-.15-6.49,1.47-8.04,4.25-4.07,3.48-8.54,2.58-13.16-2.93-14.98-.74-28.72,10.05-40.12,12.56-13.26,25.38-26.28,38.17-39.32,7.52-7.67,15.21-15.19,22.03-21.98-4.98-14.36-9.73-27.9-14.35-41.47-.87-2.56-2.2-5.49-1.65-7.87.57-2.51,3.14-4.56,5.41-7.58,4.64,5.43,8.74,10.22,12.61,14.75,6.95-7.06,12.71-12.91,18.77-19.07-1.03-1.14-2.64-2.91-4.77-5.27,3.94-3.32,7.91-6.66,11.88-10.01-1.7-3.14-2.59-4.91-5.04-2.26-.76.82-1.7,1.84-2.69,2.01-6.99,1.2-11.02,6.48-15.72,10.92-1.02.96-2.82,1.1-4.27,1.61.47-1.47.5-3.38,1.47-4.34,4.3-4.24,7.8-9.29,14.82-10.22,4.92-.65,5.39-4.55,1.86-8.45-2.24-2.48-4.7-4.81-3.2-8.88,1.92-5.18,5.97-6.92,10.68-3.94,2.17,1.37,4.08,3.15,5.81,4.51,8.74-8.75,17.43-17.47,25.48-25.53-1.55-3.79-3.37-7.57-4.56-11.54-.32-1.07,1.02-2.96,2.05-4.04,3.51-3.66,5.78-3.17,13,2.43.33-.29.66-.57.98-.86-1.79-1.88-3.31-4.81-5.45-5.37-2.36-.62-5.91.14-7.84,1.69-4.56,3.65-8.48,8.1-12.64,12.24-15.24,15.21-30.35,30.56-45.79,45.57-3.78,3.67-8.54,6.37-13.02,9.26-.73.47-2.72.05-3.44-.66-10.16-10.1-20.2-20.32-30.48-30.72,2.35-2.37,4.6-4.64,6.98-7.04,7.62,7.61,14.98,14.96,22.28,22.25,3.49-1.73,4.77-6.91,9.78-5.11.21.07,2-2.35,1.74-3.24-1.03-3.62.61-3.86,3.58-4.13,1.49-.14,4.11-2.46,3.95-3.41-.63-3.74.21-4.42,3.82-3.59.77.18,3.07-2.59,3.22-4.13.26-2.75.87-4.1,3.79-3.5,3.32.69,4.45-1.09,3.99-3.95-.45-2.79.32-3.73,3.15-3.24,3.24.56,4.35-.85,4.17-4.21-.06-1.13,2.35-3.57,3.12-3.38,3.69.93,4.26-.64,4.05-3.71-.17-2.54.27-4.32,3.81-3.54,1.16.26,4.13-2.6,4.08-2.69-2.43-3.98,1.4-5.31,3.22-6.92,3.19-2.82,5.06-8.54,11.31-5.96.58.24,2.06-1.33,2.96-2.24,5.04-5.1,10.02-10.25,14.91-15.26.77.39,1.09.47,1.3.67,6.56,6.21,6.6,6.26.14,12.59-1.73,1.7-3.82,3.04-6.52,5.15,3.68,3.3,6.42,5.59,8.96,8.07,5.06,4.95,5.3,6.9,2.57,13.3-.49,1.15-.07,2.68-.07,4.04.59.2,1.17.4,1.76.6,3.47-4.07,6.95-8.15,10.71-12.57,2.6,2.43,4.35,4.06,6.4,5.97,1.63-1.43,3.27-2.87,5.09-4.47,1.62,1.46,3.18,2.86,5.22,4.7,3.16-3.85,6.33-7.71,9.51-11.58.37.5.73,1.01,1.1,1.51h8.19c-2.12-2.74-3.17-4.09-4.19-5.41,4.64-7.71,6.43-8.39,11.58-4.12,5.41-8.47,8.13.21,12.43,2.33,15.19-15.21,30.36-30.4,45.45-45.51,2.69.56,4.99,5.09,7.53-.06-.78-1.29-1.68-2.78-2.58-4.26-.34-.39-.67-.77-1.01-1.16,1.96-1.44,3.96-2.83,5.86-4.34,3.14-2.49,7.64-2.38,10.52.48,9.14,9.09,18.22,18.23,27.34,27.34,1.03,1.03,2.15,1.96,2.62,2.38-14.23-14.21-28.99-28.95-43.95-43.9-1.41-.59-3.9-1-5.5-2.41-4.27-3.77-8.22-7.92-12.18-12.04-2.11-2.19-5.4-3.68-4.36-7.92.24-.97-1.75-2.54-2.81-3.76-7.19-8.29-14.45-16.52-21.52-24.91-.69-.82-.25-2.6-.33-3.94,1.15.21,2.34.3,3.44.67.55.19.91.91,1.41,1.33,8.52,7.32,17.04,14.64,25.59,21.91.71.6,2.16,1.44,2.54,1.17,4.16-2.98,5.84.8,8.01,2.87,4.01,3.83,7.77,7.92,11.83,11.7,2.68,2.5,4.56,4.84,1.56,7.56Zm-100.54,326.25c-13.31,5.6-22.34,16.01-30.32,27.3,1.17,2.25,2.06,3.97,3.09,5.98,2.43-3.19,4.51-2.43,6.84.08,6.91,7.43,14.32,14.21,24.67,16.55,3.63.82,4.64,3.05,2.56,6.07-1,1.45-2.44,2.6-3.69,3.88-5.05,5.19-10.1,10.39-15.43,15.87,4.89,3.83,9.57,5.94,14.92,5.42,3.72-.36,5.93.57,6.2,5.82,4.36-3.59,7.89-6.24,11.13-9.21,14.91-13.7,27.86-29.07,39.47-45.65,5.41-7.73,5.41-11.8-1.58-19.02-4.78,5.08-4.77,5-9.95,4.14-17.07-2.84-33.02-8.71-47.92-17.22Zm290.92-398.71c-6.12-.14-11.31,4.87-11.28,10.88.03,5.94,4.3,9.93,10.64,9.95,4.8.01,10.45-5.41,10.64-10.21.21-5.23-4.76-10.51-10-10.62Zm-326.46,182.09c-2.42.16-4.33-.3-5.08.43-8.32,8.03-16.45,16.25-24.85,24.63,1.11,1,2,1.79,2.59,2.31,8.9-8.91,17.52-17.54,27.34-27.37Z"/>
      
      
      
    </g>
  </g>
</svg>