<svg id="Layer_1" data-name="Layer 1" xmlns="http://www.w3.org/2000/svg" viewBox="0 0 589.48 589.48">
  
  <g id="pHZd6Y.tif">
    <g>
      
      <path class="cls-1" d="m247.27,317.63c11.58,8.41,23.73,12.02,36.07,15.16.97.25,2.19-.03,2.98.46,1.95,1.21,4.54,2.38,5.3,4.21.63,1.51-.4,4.53-1.72,5.9-9.27,9.63-18.53,19.31-28.43,28.27-2.66,2.41-7.46,2.68-11.38,3.39-5.44.98-10.07,2.86-14,7.09-7.45,8.01-15.23,15.74-23.15,23.29-3.8,3.62-2.57,7.96-1.83,11.63,2.27,11.14,5.09,22.19,8.29,33.1,1.94,6.61,4.44,13.18,7.68,19.24,2.97,5.53,7.23,10.38,11.02,15.45,2.09,2.8,4.21,5.63,6.66,8.1.84.84,2.99,1.23,4.12.78,9.85-3.95,19.58-8.17,29.39-12.23,6.01-2.49,13.44,2.54,13.96,9.25.33,4.3-.94,7.92-3.94,11.03-13.7,14.18-27.33,28.43-41.05,42.58-5.71,5.89-11.39,11.85-17.47,17.36-4.67,4.24-9.42,9.29-15.09,11.32-7.68,2.75-15.87,3.79-24.45-.08-9.36-4.22-13-11.71-16.15-20.25-.71-1.91-1.87-3.66-2.93-5.42-5.98-9.93-12.26-19.69-17.88-29.82-3.24-5.84-6-12.08-7.96-18.45-2.52-8.18-4.65-16.58-5.82-25.04-1.63-11.83-2.89-23.79-3.05-35.71-.13-9.54,1.97-19.09,2.37-28.66.19-4.56-1.11-9.23-2.14-13.76-.17-.74-2.67-1.68-3.73-1.35-4.75,1.43-8.27.46-11.87-3.22-14.33-14.67-28.97-29.05-43.5-43.52-1.12-1.12-2.39-2.09-3.47-3.24-2.26-2.42-2.42-6.72-.31-9.2,7.29-8.53,14.62-17.02,22.14-25.77-1.59-1.82-2.85-3.27-3.54-4.06,3.97-6.45,7.75-12.61,11.9-19.35,3.44,2.68,7.35,5.74,11.26,8.79.3-.08.61-.15.91-.23-.5-1.38-.79-2.9-1.55-4.12-1.42-2.28-.97-9.16,1.03-11.07,5.31-5.09,10.79-10,15.97-15.21,10.06-10.14,20.04-20.36,29.87-30.72,2.67-2.82,5.47-3.89,9.27-3.44,1.12.13,3.19-1.03,3.5-2.02,1.26-3.94,8.1-10.92,11.82-12.8,3.86-1.95,7.22-4.9,11.18-7.68-1.83-1.91-3.36-3.5-4.87-5.1-2.02-2.14-2.26-4.02.1-6.35,14.78-14.62,29.46-29.33,44.11-44.08,2.25-2.27,3.93-2.25,5.72.38.58.86,1.45,1.52,2.39,2.49.96-.87,1.93-1.69,2.82-2.57,9.27-9.27,18.53-18.55,27.79-27.82,22.04-22.05,44.09-44.09,66.14-66.13,3.44-3.44,5.72-3.79,9.97-1.5,8.45-7.97,16.94-15.9,25.3-23.96,1.87-1.8,4.62-4.03,4.67-6.11.08-3.4-1.72-6.84-2.79-10.24-.13-.4-.69-.66-1.24-1.16,2.18-1.95,4.21-3.77,6.56-5.87,2.31,2.61,4.74,5.37,7.1,8.04,6.46-4.7,6.56-4.61,11.75.65,19.04,19.34,38.13,38.64,57.22,57.94,5.55,5.6,5.23,5.36.03,10.42-.38.37-.7.78-1.44,1.62,3.21,3.76,6.33,7.64,9.71,11.28,1.62,1.75,1.93,3.06.51,5.12-1.49,2.17-2.99,4.32-.54,7.32,1.05,1.29.85,4.65-.1,6.33-2.99,5.29-5.64,11.55-10.26,14.87-3.76,2.7-8.61,4.86-10.61,8.69-3.69,7.07-10.36,10.41-15.66,15.45-2.64,2.51-4.19,6.14-6.47,9.09-1.25,1.62-2.75,3.42-4.55,4.2-6.47,2.78-10.92,7.21-13.68,13.73-.9,2.12-3.06,4.31-5.18,5.19-6.29,2.61-10.5,6.78-13.13,13.08-.91,2.18-3.32,4.24-5.54,5.26-5.88,2.69-9.95,6.73-12.59,12.65-.91,2.04-3.22,3.54-5.1,5.02-1.93,1.52-4.38,2.44-6.14,4.11-2.45,2.32-4.7,4.05-8.46,4.14-2.58.06-5.15,2.04-7.64,3.3-6.12,3.1-11.89,7.63-18.36,9.1-9.32,2.12-14.15,9.1-20.08,14.94-18.13,17.82-36,35.9-54.01,53.85-1.02,1.02-2.36,1.72-3.7,2.68Zm-24.58,15.61c-2.17,1.29-4.66,2.29-6.53,3.98-3.72,3.36-6.92,7.3-10.66,10.62-2.61,2.32-2.84,4.53-1.69,7.61,3.05,8.14,7.23,15.44,14.08,21.01,3.66,2.98,5.37,2.97,8.61-.25,1.78-1.77,3.78-3.38,5.26-5.37,1.04-1.39,2.18-3.47,1.88-4.96-1.14-5.62,1.28-9.38,5.41-12.58.83-.64,1.52-1.47,2.25-2.23,3.18-3.3,2.79-5.71-1.17-8.02-3.31-1.93-6.52-4.03-9.84-5.93-2.34-1.34-4.81-2.46-7.6-3.88Zm63.41-85.09c-.69.38-2.55.95-3.8,2.15-7.88,7.6-15.65,15.32-23.39,23.06-.79.79-1.44,1.94-1.66,3.02-.76,3.78,1.1,8.47,4.02,9.85,3.61,1.71,7.11,1.07,9.93-1.69,7.64-7.48,15.25-15,22.67-22.7,2.55-2.65,3.02-6.33,1.6-9.66-1.42-3.35-4.62-4.18-9.36-4.03Zm-24.09-102.48c-.42-.27-.84-.55-1.26-.82-7.16,6.16-14.25,12.39-18.1,21.52,6.19-5.37,11.84-11.25,17.4-17.22.88-.95,1.32-2.31,1.96-3.47Z"/>
      
      
      
    </g>
  </g>
</svg>