<?xml version="1.0" encoding="UTF-8"?>
<svg id="Layer_1" data-name="Layer 1" xmlns="http://www.w3.org/2000/svg" viewBox="0 0 589.48 589.48">
  <defs>
    <style>
      .cls-1, .cls-2 {
        stroke-width: 0px;
      }

      .cls-2 {
        fill: #fff;
      }
    </style>
  </defs>
  <g id="pHZd6Y.tif">
    <g>
      <path class="cls-2" d="m589.48,589.48H0V0c196.49,0,392.99,0,589.48,0v589.48ZM247.27,317.63c1.34-.96,2.67-1.66,3.7-2.68,18.01-17.95,35.87-36.03,54.01-53.85,5.93-5.83,10.76-12.81,20.08-14.94,6.47-1.48,12.24-6.01,18.36-9.1,2.5-1.26,5.07-3.24,7.64-3.3,3.76-.09,6.01-1.83,8.46-4.14,1.77-1.67,4.21-2.59,6.14-4.11,1.88-1.48,4.19-2.99,5.1-5.02,2.64-5.92,6.71-9.95,12.59-12.65,2.23-1.02,4.64-3.08,5.54-5.26,2.63-6.31,6.84-10.47,13.13-13.08,2.12-.88,4.28-3.07,5.18-5.19,2.77-6.52,7.21-10.95,13.68-13.73,1.8-.77,3.3-2.57,4.55-4.2,2.28-2.94,3.83-6.57,6.47-9.09,5.3-5.04,11.97-8.38,15.66-15.45,2-3.83,6.85-5.99,10.61-8.69,4.62-3.32,7.28-9.58,10.26-14.87.95-1.68,1.16-5.05.1-6.33-2.46-3-.96-5.15.54-7.32,1.42-2.06,1.12-3.37-.51-5.12-3.38-3.65-6.5-7.52-9.71-11.28.74-.84,1.07-1.25,1.44-1.62,5.2-5.06,5.52-4.82-.03-10.42-19.09-19.29-38.18-38.59-57.22-57.94-5.18-5.26-5.28-5.35-11.75-.65-2.36-2.67-4.8-5.43-7.1-8.04-2.35,2.1-4.38,3.92-6.56,5.87.56.5,1.12.76,1.24,1.16,1.07,3.4,2.86,6.85,2.79,10.24-.05,2.08-2.79,4.3-4.67,6.11-8.37,8.05-16.86,15.98-25.3,23.96-4.25-2.28-6.52-1.94-9.97,1.5-22.05,22.04-44.1,44.08-66.14,66.13-9.27,9.27-18.52,18.55-27.79,27.82-.89.89-1.86,1.7-2.82,2.57-.94-.96-1.81-1.63-2.39-2.49-1.79-2.63-3.47-2.64-5.72-.38-14.65,14.75-29.33,29.46-44.11,44.08-2.36,2.33-2.12,4.21-.1,6.35,1.51,1.6,3.04,3.19,4.87,5.1-3.96,2.78-7.32,5.73-11.18,7.68-3.72,1.88-10.56,8.86-11.82,12.8-.32.99-2.38,2.15-3.5,2.02-3.8-.45-6.6.62-9.27,3.44-9.83,10.36-19.81,20.58-29.87,30.72-5.18,5.22-10.66,10.13-15.97,15.21-2,1.91-2.45,8.79-1.03,11.07.76,1.22,1.05,2.74,1.55,4.12-.3.08-.61.15-.91.23-3.91-3.05-7.82-6.11-11.26-8.79-4.14,6.74-7.93,12.9-11.9,19.35.69.79,1.95,2.24,3.54,4.06-7.52,8.75-14.85,17.24-22.14,25.77-2.11,2.47-1.95,6.78.31,9.2,1.08,1.15,2.35,2.13,3.47,3.24,14.53,14.48,29.17,28.85,43.5,43.52,3.6,3.68,7.12,4.65,11.87,3.22,1.07-.32,3.57.62,3.73,1.35,1.03,4.53,2.34,9.19,2.14,13.76-.4,9.57-2.5,19.12-2.37,28.66.16,11.92,1.42,23.88,3.05,35.71,1.17,8.46,3.3,16.87,5.82,25.04,1.96,6.37,4.72,12.62,7.96,18.45,5.62,10.13,11.9,19.89,17.88,29.82,1.06,1.76,2.23,3.51,2.93,5.42,3.15,8.54,6.79,16.04,16.15,20.25,8.59,3.87,16.77,2.83,24.45.08,5.67-2.03,10.41-7.08,15.09-11.32,6.08-5.51,11.75-11.46,17.47-17.36,13.72-14.16,27.35-28.4,41.05-42.58,3-3.11,4.27-6.74,3.94-11.03-.51-6.71-7.95-11.73-13.96-9.25-9.8,4.06-19.54,8.28-29.39,12.23-1.13.45-3.29.06-4.12-.78-2.46-2.47-4.57-5.3-6.66-8.1-3.79-5.08-8.05-9.92-11.02-15.45-3.25-6.05-5.75-12.63-7.68-19.24-3.2-10.91-6.02-21.96-8.29-33.1-.75-3.67-1.97-8.01,1.83-11.63,7.92-7.55,15.7-15.27,23.15-23.29,3.93-4.23,8.56-6.11,14-7.09,3.92-.71,8.72-.99,11.38-3.39,9.9-8.96,19.16-18.64,28.43-28.27,1.32-1.37,2.35-4.39,1.72-5.9-.76-1.84-3.35-3-5.3-4.21-.78-.49-2-.21-2.98-.46-12.34-3.14-24.49-6.75-36.07-15.16Z"/>
      <path class="cls-1" d="m247.27,317.63c11.58,8.41,23.73,12.02,36.07,15.16.97.25,2.19-.03,2.98.46,1.95,1.21,4.54,2.38,5.3,4.21.63,1.51-.4,4.53-1.72,5.9-9.27,9.63-18.53,19.31-28.43,28.27-2.66,2.41-7.46,2.68-11.38,3.39-5.44.98-10.07,2.86-14,7.09-7.45,8.01-15.23,15.74-23.15,23.29-3.8,3.62-2.57,7.96-1.83,11.63,2.27,11.14,5.09,22.19,8.29,33.1,1.94,6.61,4.44,13.18,7.68,19.24,2.97,5.53,7.23,10.38,11.02,15.45,2.09,2.8,4.21,5.63,6.66,8.1.84.84,2.99,1.23,4.12.78,9.85-3.95,19.58-8.17,29.39-12.23,6.01-2.49,13.44,2.54,13.96,9.25.33,4.3-.94,7.92-3.94,11.03-13.7,14.18-27.33,28.43-41.05,42.58-5.71,5.89-11.39,11.85-17.47,17.36-4.67,4.24-9.42,9.29-15.09,11.32-7.68,2.75-15.87,3.79-24.45-.08-9.36-4.22-13-11.71-16.15-20.25-.71-1.91-1.87-3.66-2.93-5.42-5.98-9.93-12.26-19.69-17.88-29.82-3.24-5.84-6-12.08-7.96-18.45-2.52-8.18-4.65-16.58-5.82-25.04-1.63-11.83-2.89-23.79-3.05-35.71-.13-9.54,1.97-19.09,2.37-28.66.19-4.56-1.11-9.23-2.14-13.76-.17-.74-2.67-1.68-3.73-1.35-4.75,1.43-8.27.46-11.87-3.22-14.33-14.67-28.97-29.05-43.5-43.52-1.12-1.12-2.39-2.09-3.47-3.24-2.26-2.42-2.42-6.72-.31-9.2,7.29-8.53,14.62-17.02,22.14-25.77-1.59-1.82-2.85-3.27-3.54-4.06,3.97-6.45,7.75-12.61,11.9-19.35,3.44,2.68,7.35,5.74,11.26,8.79.3-.08.61-.15.91-.23-.5-1.38-.79-2.9-1.55-4.12-1.42-2.28-.97-9.16,1.03-11.07,5.31-5.09,10.79-10,15.97-15.21,10.06-10.14,20.04-20.36,29.87-30.72,2.67-2.82,5.47-3.89,9.27-3.44,1.12.13,3.19-1.03,3.5-2.02,1.26-3.94,8.1-10.92,11.82-12.8,3.86-1.95,7.22-4.9,11.18-7.68-1.83-1.91-3.36-3.5-4.87-5.1-2.02-2.14-2.26-4.02.1-6.35,14.78-14.62,29.46-29.33,44.11-44.08,2.25-2.27,3.93-2.25,5.72.38.58.86,1.45,1.52,2.39,2.49.96-.87,1.93-1.69,2.82-2.57,9.27-9.27,18.53-18.55,27.79-27.82,22.04-22.05,44.09-44.09,66.14-66.13,3.44-3.44,5.72-3.79,9.97-1.5,8.45-7.97,16.94-15.9,25.3-23.96,1.87-1.8,4.62-4.03,4.67-6.11.08-3.4-1.72-6.84-2.79-10.24-.13-.4-.69-.66-1.24-1.16,2.18-1.95,4.21-3.77,6.56-5.87,2.31,2.61,4.74,5.37,7.1,8.04,6.46-4.7,6.56-4.61,11.75.65,19.04,19.34,38.13,38.64,57.22,57.94,5.55,5.6,5.23,5.36.03,10.42-.38.37-.7.78-1.44,1.62,3.21,3.76,6.33,7.64,9.71,11.28,1.62,1.75,1.93,3.06.51,5.12-1.49,2.17-2.99,4.32-.54,7.32,1.05,1.29.85,4.65-.1,6.33-2.99,5.29-5.64,11.55-10.26,14.87-3.76,2.7-8.61,4.86-10.61,8.69-3.69,7.07-10.36,10.41-15.66,15.45-2.64,2.51-4.19,6.14-6.47,9.09-1.25,1.62-2.75,3.42-4.55,4.2-6.47,2.78-10.92,7.21-13.68,13.73-.9,2.12-3.06,4.31-5.18,5.19-6.29,2.61-10.5,6.78-13.13,13.08-.91,2.18-3.32,4.24-5.54,5.26-5.88,2.69-9.95,6.73-12.59,12.65-.91,2.04-3.22,3.54-5.1,5.02-1.93,1.52-4.38,2.44-6.14,4.11-2.45,2.32-4.7,4.05-8.46,4.14-2.58.06-5.15,2.04-7.64,3.3-6.12,3.1-11.89,7.63-18.36,9.1-9.32,2.12-14.15,9.1-20.08,14.94-18.13,17.82-36,35.9-54.01,53.85-1.02,1.02-2.36,1.72-3.7,2.68Zm-24.58,15.61c-2.17,1.29-4.66,2.29-6.53,3.98-3.72,3.36-6.92,7.3-10.66,10.62-2.61,2.32-2.84,4.53-1.69,7.61,3.05,8.14,7.23,15.44,14.08,21.01,3.66,2.98,5.37,2.97,8.61-.25,1.78-1.77,3.78-3.38,5.26-5.37,1.04-1.39,2.18-3.47,1.88-4.96-1.14-5.62,1.28-9.38,5.41-12.58.83-.64,1.52-1.47,2.25-2.23,3.18-3.3,2.79-5.71-1.17-8.02-3.31-1.93-6.52-4.03-9.84-5.93-2.34-1.34-4.81-2.46-7.6-3.88Zm63.41-85.09c-.69.38-2.55.95-3.8,2.15-7.88,7.6-15.65,15.32-23.39,23.06-.79.79-1.44,1.94-1.66,3.02-.76,3.78,1.1,8.47,4.02,9.85,3.61,1.71,7.11,1.07,9.93-1.69,7.64-7.48,15.25-15,22.67-22.7,2.55-2.65,3.02-6.33,1.6-9.66-1.42-3.35-4.62-4.18-9.36-4.03Zm-24.09-102.48c-.42-.27-.84-.55-1.26-.82-7.16,6.16-14.25,12.39-18.1,21.52,6.19-5.37,11.84-11.25,17.4-17.22.88-.95,1.32-2.31,1.96-3.47Z"/>
      <path class="cls-2" d="m222.68,333.24c2.79,1.41,5.25,2.54,7.6,3.88,3.32,1.9,6.53,4,9.84,5.93,3.96,2.31,4.35,4.72,1.17,8.02-.73.76-1.42,1.59-2.25,2.23-4.13,3.2-6.55,6.96-5.41,12.58.3,1.49-.84,3.57-1.88,4.96-1.48,1.99-3.48,3.6-5.26,5.37-3.24,3.23-4.94,3.23-8.61.25-6.85-5.57-11.03-12.88-14.08-21.01-1.15-3.08-.92-5.29,1.69-7.61,3.74-3.33,6.95-7.26,10.66-10.62,1.87-1.69,4.36-2.69,6.53-3.98Z"/>
      <path class="cls-2" d="m286.1,248.15c4.74-.15,7.94.68,9.36,4.03,1.41,3.33.95,7.01-1.6,9.66-7.42,7.7-15.03,15.21-22.67,22.7-2.82,2.76-6.32,3.4-9.93,1.69-2.91-1.38-4.77-6.07-4.02-9.85.22-1.08.87-2.23,1.66-3.02,7.74-7.74,15.51-15.46,23.39-23.06,1.25-1.21,3.11-1.78,3.8-2.15Z"/>
      <path class="cls-2" d="m262,145.67c-.64,1.17-1.08,2.53-1.96,3.47-5.56,5.97-11.21,11.85-17.4,17.22,3.85-9.12,10.94-15.35,18.1-21.52.42.27.84.55,1.26.82Z"/>
    </g>
  </g>
</svg>