<?xml version="1.0" encoding="UTF-8"?>
<svg id="Layer_1" data-name="Layer 1" xmlns="http://www.w3.org/2000/svg" viewBox="0 0 683.07 683.07">
  <defs>
    <style>
      .cls-1, .cls-2 {
        stroke-width: 0px;
      }

      .cls-2 {
        fill: #fff;
      }
    </style>
  </defs>
  <g id="FTpzTa.tif">
    <g>
      <path class="cls-2" d="m213.11,631.01C142.08,559.98,71.05,488.95,0,417.9L417.9,0l265.17,265.17-417.9,417.9c-16.36-16.36-32.79-32.79-49.22-49.22,2.88,1.38,5.91,2.52,8.61,4.19,2.72,1.7,5.3,1.38,7.94.37,6.5-2.47,12.92-5.11,19.43-7.57,25.89-9.77,51.8-19.49,77.7-29.22,7.11-2.67,14.3-5.18,21.33-8.03,9.66-3.9,14.16-10.8,13.62-20.24-.36-6.22-7.5-13.25-13.7-13.47-6.81-.23-13.61-.37-20.42-.66-2.11-.09-4.39-.09-6.28-.88-11.75-4.87-18.86-14.29-23.88-25.45-3.54-7.87-3.52-16.84-8.43-24.56-3.68-5.78-5.53-12.93-7.28-19.71-2.41-9.38-5.52-18.49-8.99-27.51-1.05-2.73-2.04-5.48-2.93-8.27-4.66-14.79-9.27-29.58-13.68-43.66,2.11-1.73,4.66-4.01,7.4-6.02,4.16-3.03,2.74-5.9-.28-8.68l13.17-13.17c9.36,5.21,18.24,10.34,27.31,15.13,3.35,1.77,7.08,2.91,10.74,3.97,2.27.66,8.1-2.86,7.75-4.88-.31-1.78-2.58-3.37-4.24-4.74-2.12-1.74-4.86-2.83-6.69-4.79-5.96-6.41-11.7-13.04-17.3-19.76-.61-.74-.35-3.15.41-3.9,3.62-3.68,7.6-7.01,11.36-10.55,2.72-2.57,5.18-5.43,8-7.87,2.4-2.07,5.04-3.39,7.67.06,1.36,1.79,3.15,3.27,4.78,4.85,5.98,5.84,4.47,6.35,10.88-.02,1.81-1.81,4.57-3.32,3.12-6.58-1.02-2.28.17-3.49,1.63-4.94,17.93-17.8,35.8-35.63,53.68-53.48,10.3-10.3,20.53-20.66,30.9-30.9,1.05-1.05,3.19-2.31,4.11-1.9,2.33,1.05,3.42-.04,4.77-1.41,6.41-6.44,12.93-12.78,19.23-19.34,1.76-1.83,5.57-3.14,3.01-7.03-.14-.21.6-1.1,1.03-1.58,3.2-3.59,6.27-7.29,9.66-10.69,12.71-12.81,25.55-25.49,38.25-38.3,1.65-1.65,2.87-3.73,4.2-5.67.9-1.32,1.47-2.9,2.49-4.1,1.9-2.23,3.95-4.36,6.08-6.38,1.65-1.57,2.04-2.92.31-4.71-4.99-5.14-9.82-10.43-14.87-15.52-1.51-1.51-3.13-1.19-4.72.59-3.01,3.33-6.3,6.4-8.79,8.89-3.03-1-5.26-1.64-7.4-2.48-1.06-.41-2.14-1.03-2.94-1.82-11.11-11-22.17-22.04-33.24-33.07-4.67-4.67-9.36-9.36-14.23-14.23,1.51-1.51,2.53-2.55,3.57-3.57,9.16-8.99,18.25-18.04,27.49-26.93,2.79-2.68,2.97-5.4.62-8.04-5.3-5.95-10.66-11.87-16.36-17.44-3.87-3.8-7.09-3.39-10.92.49-3.47,3.51-6.94,7.05-10.42,10.55-4.31,4.33-8.65,8.65-13.31,13.31,2.25-3.66,1.41-6.34-1.57-8.56-.53-.39-.95-.93-1.42-1.41-3.82-3.8-4.7-3.75-8.85-.11-2.64,2.32-5.47,4.43-8.33,6.75-3.56-3.56-6.91-6.99-10.37-10.3-.78-.75-2.24-1.75-2.93-1.48-5.23,2.04-11.09,2.94-14.96,7.65-4.11,5-8.27,9.94-12.24,15.05-.49.63-.27,2.59.35,3.16,3.66,3.45,7.46,6.75,11.37,9.93,2.52,2.05,2.76,3.68.25,6.04-8.17,7.64-16.21,15.41-24.21,23.22-6.79,6.63-13.18,13.69-20.22,20.03-6.71,6.05-11.28,14.67-20.68,17.57-.57.18-.98.88-1.46,1.36-11.72,11.7-23.45,23.41-35.14,35.14-.83.83-1.37,1.95-2.19,2.8-3.32,3.44-6.63,6.89-10.08,10.19-.61.58-2.26.11-2.81.7-2.78,2.99-5.33,6.19-8.02,9.26-2.44,2.79-4.74,2.76-7.36-.05-4.16-4.46-8.6-8.68-12.83-12.92-3.67,2.04-4,3.81-1.24,6.68,5.05,5.25,9.69,10.88,14.76,16.65-1.31,1.31-2.7,2.53-3.9,3.93-3.39,3.94-5.61,8.34-4.99,13.75.93,8.1,5.92,14.12,11.32,19.4,5.47,5.35,6.07,6.8.63,12.25-3.02,3.02-6.3,5.83-8.98,9.14-2.5,3.1-5.81,3.43-9.19,3.66-.82.06-2.4-1.17-2.47-1.94-.43-3.8-.6-7.64-.6-11.46,0-2.11.78-4.24.64-6.31-.05-.8-2.47-2.17-2.5-2.14-2.84,3.22-7.11,6.19-7.95,9.93-2.03,9.07-3.21,18.46-1.57,27.87.42,2.37-.55,4.02-2.74,5.61-3.13,2.28-6.24,5.06-8.27,8.32-6.94,11.07-13.37,22.44-20.07,33.64-.55.92-1.54,2.05-2.47,2.21-4.33.72-5.71,3.68-6.76,7.42-.7,2.5,0,3.15,2.27,3.2,1.14.02,2.7-.23,3.36.4,5.42,5.17,5.66,5.25,12.4,2.54.99-.4,2.64-.79,3.2-.3,3.04,2.7,5.85,5.68,9.02,8.85l-20.07,20.07c.14,1.91-.22,3.7-1.2,5.01-1.35,1.79-3.22,3.18-4.78,4.84-.6.64-1.46,1.65-1.32,2.29,1,4.35.91,9.91,3.62,12.71,7.55,7.79,13.44,18.02,25.83,20.02,3.2.52,5.2.41,7.28-1.99,1.95-2.25,4.19-4.26,6.24-6.31,5.46,4.4,6.63,6.75,4.53,11.64-1.84,4.27-4.45,8.25-7.06,12.13-4.18,6.2-9.05,11.98-12.86,18.38-3.83,6.46-6.93,13.39-9.96,20.29-2.03,4.63-4.26,9.45-4.83,14.38-.88,7.73-.67,15.62-.49,23.43.19,8.04.85,16.07,1.37,24.1.66,10.08,3.3,19.64,6.84,29.12,3.7,9.85,6.12,20.11,11.76,29.27,4.24,6.94,7.47,14.5,11.16,21.76Z"/>
      <path class="cls-1" d="m213.11,631.01c-3.68-7.26-6.91-14.81-11.17-21.73-5.64-9.16-8.07-19.41-11.76-29.27-3.55-9.48-6.18-19.04-6.84-29.12-.52-8.03-1.19-16.05-1.37-24.1-.18-7.81-.4-15.7.49-23.43.57-4.92,2.79-9.75,4.83-14.38,3.03-6.9,6.12-13.83,9.96-20.29,3.8-6.41,8.68-12.18,12.86-18.38,2.61-3.88,5.22-7.86,7.06-12.13,2.1-4.89.93-7.24-4.53-11.64-2.04,2.04-4.29,4.05-6.24,6.31-2.07,2.4-4.07,2.5-7.28,1.99-12.38-1.99-18.28-12.21-25.83-20.02-2.72-2.8-2.63-8.36-3.62-12.71-.14-.64.71-1.65,1.32-2.29,1.56-1.65,3.43-3.05,4.78-4.84.98-1.31,1.34-3.09,1.2-5.01l20.07-20.07c-3.17-3.17-5.98-6.16-9.02-8.85-.55-.49-2.21-.09-3.2.3-6.73,2.7-6.98,2.62-12.4-2.54-.66-.63-2.21-.37-3.36-.4-2.27-.05-2.97-.71-2.27-3.2,1.05-3.75,2.43-6.71,6.76-7.42.93-.16,1.92-1.27,2.47-2.21,6.7-11.21,13.14-22.58,20.07-33.64,2.03-3.25,5.14-6.03,8.27-8.32,2.19-1.6,3.16-3.25,2.74-5.61-1.64-9.42-.46-18.8,1.57-27.87.83-3.73,5.11-6.71,7.95-9.93.04-.04,2.44,1.34,2.5,2.14.14,2.08-.64,4.21-.64,6.31,0,3.83.18,7.67.6,11.46.08.76,1.66,1.99,2.47,1.94,3.39-.23,6.68-.57,9.19-3.66,2.68-3.3,5.95-6.11,8.98-9.14,5.45-5.45,4.84-6.91-.63-12.25-5.4-5.28-10.38-11.3-11.32-19.4-.62-5.4,1.61-9.8,4.99-13.75,1.2-1.4,2.6-2.62,3.9-3.93-5.07-5.76-9.72-11.4-14.76-16.65-2.76-2.87-2.43-4.64,1.24-6.68,4.24,4.24,8.67,8.46,12.83,12.92,2.62,2.81,4.92,2.84,7.36.05,2.69-3.08,5.23-6.28,8.02-9.26.55-.59,2.2-.12,2.81-.7,3.45-3.3,6.76-6.75,10.08-10.19.82-.85,1.36-1.97,2.19-2.8,11.7-11.72,23.43-23.43,35.14-35.14.47-.47.88-1.18,1.46-1.36,9.4-2.9,13.97-11.53,20.68-17.57,7.04-6.34,13.44-13.39,20.22-20.03,8-7.81,16.06-15.58,24.21-23.22,2.51-2.35,2.27-3.98-.25-6.04-3.9-3.17-7.7-6.48-11.37-9.93-.62-.57-.83-2.53-.35-3.16,3.96-5.11,8.13-10.06,12.24-15.05,3.87-4.71,9.74-5.61,14.96-7.65.7-.28,2.16.73,2.93,1.48,3.46,3.31,6.82,6.75,10.37,10.3,2.88-2.31,5.69-4.43,8.33-6.75,4.15-3.64,5.03-3.7,8.85.11.47.47.9,1.01,1.42,1.41,2.98,2.21,3.82,4.89,1.57,8.56,4.66-4.66,8.99-8.97,13.31-13.31,3.49-3.5,6.95-7.04,10.42-10.55,3.83-3.87,7.05-4.29,10.92-.49,5.69,5.57,11.05,11.49,16.36,17.44,2.36,2.64,2.17,5.37-.62,8.04-9.25,8.9-18.35,17.94-27.49,26.93-1.03,1.02-2.06,2.06-3.57,3.57,4.88,4.88,9.55,9.55,14.23,14.23,11.07,11.04,22.13,22.08,33.24,33.07.8.8,1.88,1.41,2.94,1.82,2.15.83,4.38,1.48,7.4,2.48,2.49-2.49,5.79-5.55,8.79-8.89,1.6-1.77,3.21-2.09,4.72-.59,5.05,5.08,9.89,10.37,14.87,15.52,1.73,1.79,1.35,3.13-.31,4.71-2.13,2.02-4.18,4.14-6.08,6.38-1.02,1.2-1.58,2.79-2.49,4.1-1.32,1.94-2.55,4.02-4.2,5.67-12.71,12.81-25.55,25.49-38.25,38.3-3.38,3.41-6.46,7.11-9.66,10.69-.43.49-1.17,1.37-1.03,1.58,2.56,3.89-1.25,5.2-3.01,7.03-6.3,6.55-12.81,12.9-19.23,19.34-1.36,1.36-2.45,2.45-4.77,1.41-.93-.42-3.05.86-4.11,1.9-10.37,10.24-20.6,20.6-30.9,30.9-17.88,17.85-35.75,35.68-53.68,53.48-1.45,1.45-2.65,2.65-1.63,4.94,1.46,3.27-1.29,4.77-3.12,6.58-6.41,6.37-4.89,5.85-10.88.02-1.63-1.58-3.42-3.06-4.78-4.85-2.63-3.45-5.28-2.14-7.67-.06-2.82,2.44-5.28,5.3-8,7.87-3.76,3.55-7.74,6.87-11.36,10.55-.76.76-1.02,3.17-.41,3.9,5.61,6.72,11.34,13.35,17.3,19.76,1.82,1.97,4.57,3.05,6.69,4.79,1.66,1.36,3.93,2.96,4.24,4.74.35,2.02-5.48,5.54-7.75,4.88-3.66-1.06-7.39-2.2-10.74-3.97-9.07-4.79-17.96-9.91-27.31-15.13l-13.17,13.17c3.02,2.78,4.44,5.64.28,8.68-2.75,2-5.29,4.29-7.4,6.02,4.41,14.09,9.02,28.88,13.68,43.66.88,2.79,1.87,5.54,2.93,8.27,3.47,9.02,6.58,18.12,8.99,27.51,1.75,6.78,3.6,13.92,7.28,19.71,4.91,7.72,4.89,16.68,8.43,24.56,5.01,11.15,12.13,20.58,23.88,25.45,1.89.78,4.16.78,6.28.88,6.8.28,13.61.43,20.42.66,6.21.21,13.34,7.25,13.7,13.47.55,9.45-3.96,16.33-13.62,20.24-7.04,2.84-14.22,5.35-21.33,8.03-25.9,9.74-51.81,19.45-77.7,29.22-6.5,2.45-12.93,5.11-19.43,7.57-2.64,1-5.23,1.32-7.94-.37-2.69-1.71-5.72-2.85-8.6-4.23l-2.84-2.84Zm2.67-37.96c5.03,9.9,9.96,19.26,14.54,28.78,1.37,2.86,2.59,3.58,5.59,2.22,10.44-4.76,20.92-9.48,31.54-13.8,10.9-4.44,22.09-8.16,32.97-12.64,15.54-6.4,30.9-13.21,46.34-19.86.7-.3,1.33-.76,2.49-1.46-6.36-.82-12.03-1.53-17.7-2.28-11.76-1.56-22.97-4.53-31.87-13.02-2.18-2.08-4.05-2.14-6.75-.96-13.89,6.08-27.86,11.95-41.8,17.9-11.68,4.99-23.36,9.99-35.35,15.13h0Zm48.9-119.99c-.38-1.32-.72-2.56-1.12-3.79-4.42-13.44-9.45-26.72-13.07-40.38-2.57-9.71-9.54-15.24-16.08-21.79l-10.72,10.72c2.33,2.33,4.79,4.26,6.56,6.69,2.49,3.44,6.34,6.8,4.76,11.6-2.2,6.7-6.45,12.35-10.22,18.3-8.46,13.33-16.09,27.18-23.94,40.88-.26.46.93,2.46,1.22,2.4,3.49-.61,7.13-1.01,10.38-2.35,9.48-3.9,18.78-8.26,28.21-12.31,7.87-3.39,15.83-6.58,24.04-9.98h-.01ZM409.59,121.32l-9.31,9.31,4.73,4.73c2.81-2.27,5.37-4.33,8.13-6.56l12.21,12.21c-1.63,1.81-2.87,3.18-4.25,4.72,2.19,2.38,1.28,4.16-.79,6.07-3.44,3.15-6.65,6.55-9.96,9.86-1.57,1.57-2.96,3.67-5.64,1.56-.3-.23-1.39.53-2.14.84l33.3,33.3c6.83-6.83,13.32-13.32,19.81-19.81,4.6-4.6,4.61-5.08.15-9.6-11.06-11.2-22.13-22.39-33.2-33.58-4.29-4.33-8.63-8.63-13.03-13.03h0Zm-210.22,416.14l1.65.47c3.41-1.91,6.85-3.75,10.2-5.75,11.59-6.92,22.85-14.45,34.81-20.65,8.68-4.5,16.43-9.71,23.38-18.02-1.77-.11-2.95-.53-3.83-.2-21.33,8.31-42.64,16.69-63.94,25.12-.71.28-1.65,1.14-1.68,1.76-.3,5.75-.43,11.52-.6,17.27h0Zm205.54-311.34l-84.96,84.96c-1.63-1.46-2.88-2.59-4.29-3.85-.98.89-1.83,1.66-2.69,2.45-1.06-.59-2.11-1.19-3.88-2.2,7.28,9.65,8.03,8.78,14.14,2.65,27.32-27.46,54.72-54.82,82.08-82.22.64-.64,1.2-1.36,1.92-2.16-.76-1.08-1.41-2.01-2.1-2.99.47-.59.78-1.02,1.13-1.4,4.91-5.32,4.91-6.31-.22-11.41-6.34-6.3-12.71-12.58-19.07-18.87-4.45-4.4-7.52-4.07-10.87.87,9.57,11.36,19.08,22.63,28.81,34.17h0Zm-116.21,317.35c-1.87-5.57-3.49-10.45-5.33-15.95-22.88,14.96-45.35,29.66-67.82,44.36.25.44.51.86.76,1.3,23.66-10.61,46.24-23.82,72.39-29.71Zm73.27-365.07l27.97-27.97-4.95-4.95-27.97,27.97,4.95,4.95Zm-154.12,159.13c1.76-7.88,3.37-15.15,4.99-22.43-.43-.25-.87-.5-1.3-.75-2.29,2.59-5.11,4.88-6.77,7.83-5.42,9.65-5.67,6.93,3.08,15.35Zm62.9-67.06c.37-.37.74-.76,1.11-1.14l-27.99-27.99,3.81-3.81c-1.86.28-2.93.11-3.32.54-1.96,2.2-1.36,4.48.4,6.44,1.78,1.98,3.79,3.76,5.68,5.65,6.77,6.77,13.54,13.54,20.32,20.32h0Zm25.78,25.07c.15-.15.31-.28.46-.43l-11.41-11.41c-.15.15-.29.3-.43.46l11.38,11.38Z"/>
      <path class="cls-2" d="m215.77,593.04c11.99-5.13,23.67-10.14,35.35-15.13,13.94-5.95,27.92-11.82,41.8-17.9,2.69-1.18,4.57-1.12,6.75.96,8.9,8.49,20.11,11.46,31.87,13.02,5.66.75,11.32,1.46,17.7,2.28-1.17.69-1.79,1.15-2.49,1.46-15.44,6.65-30.81,13.46-46.34,19.86-10.88,4.48-22.08,8.2-32.97,12.64-10.62,4.33-21.09,9.05-31.54,13.8-2.99,1.36-4.21.64-5.59-2.22-4.58-9.52-9.5-18.88-14.54-28.78h0Z"/>
      <path class="cls-2" d="m264.67,473.05c-8.21,3.4-16.16,6.6-24.04,9.98-9.43,4.05-18.72,8.41-28.21,12.31-3.24,1.33-6.88,1.73-10.38,2.35-.29.05-1.48-1.94-1.22-2.4,7.85-13.7,15.48-27.56,23.94-40.88,3.78-5.94,8.02-11.6,10.22-18.3,1.58-4.8-2.27-8.17-4.76-11.6-1.77-2.43-4.23-4.36-6.56-6.69l10.72-10.72c6.55,6.55,13.51,12.08,16.08,21.79,3.61,13.65,8.65,26.93,13.07,40.38.4,1.22.74,2.47,1.12,3.79h.01Z"/>
      <path class="cls-2" d="m409.59,121.32c4.41,4.41,8.73,8.7,13.03,13.03,11.07,11.19,22.14,22.38,33.2,33.58,4.45,4.51,4.45,5-.15,9.6l-19.81,19.81-33.3-33.3c.75-.31,1.84-1.07,2.14-.84,2.68,2.11,4.07.01,5.64-1.56,3.3-3.3,6.53-6.7,9.96-9.86,2.07-1.9,2.98-3.69.79-6.07,1.38-1.53,2.62-2.91,4.25-4.72l-12.21-12.21c-2.76,2.23-5.32,4.29-8.13,6.56l-4.73-4.73,9.31-9.31h0Z"/>
      <path class="cls-2" d="m199.38,537.46c.18-5.76.3-11.52.6-17.27.04-.63.98-1.48,1.68-1.76,21.29-8.42,42.6-16.81,63.94-25.12.88-.35,2.06.08,3.83.2-6.95,8.31-14.7,13.53-23.38,18.02-11.96,6.2-23.23,13.74-34.81,20.65-3.35,1.99-6.8,3.84-10.2,5.75l-1.65-.47h0Z"/>
      <path class="cls-2" d="m404.92,226.12c-9.74-11.55-19.25-22.83-28.81-34.17,3.34-4.94,6.41-5.28,10.87-.87,6.36,6.29,12.73,12.56,19.07,18.87,5.13,5.1,5.13,6.08.22,11.41-.35.38-.65.81-1.13,1.4.69.98,1.34,1.91,2.1,2.99-.72.82-1.29,1.53-1.92,2.16-27.37,27.41-54.77,54.77-82.08,82.22-6.1,6.13-6.86,7-14.14-2.65,1.78,1,2.83,1.6,3.88,2.2.86-.78,1.71-1.56,2.69-2.45,1.41,1.27,2.67,2.4,4.29,3.85l84.96-84.96h0Z"/>
      <path class="cls-2" d="m288.71,543.47c-26.14,5.89-48.73,19.1-72.39,29.71-.25-.44-.51-.86-.76-1.3,22.47-14.69,44.94-29.39,67.82-44.36,1.84,5.5,3.46,10.38,5.33,15.95Z"/>
      <path class="cls-2" d="m361.98,178.4l-4.95-4.95,27.97-27.97,4.95,4.95-27.97,27.97Z"/>
      <path class="cls-2" d="m207.86,337.53c-8.74-8.41-8.51-5.69-3.08-15.35,1.65-2.94,4.48-5.23,6.77-7.83.43.25.87.5,1.3.75-1.61,7.27-3.24,14.54-4.99,22.43Z"/>
      <path class="cls-2" d="m270.77,270.47c-6.77-6.77-13.54-13.54-20.32-20.32-1.89-1.89-3.9-3.67-5.68-5.65-1.77-1.97-2.36-4.24-.4-6.44.39-.43,1.46-.27,3.32-.54l-3.81,3.81,27.99,27.99c-.37.37-.74.76-1.11,1.14h0Z"/>
      <path class="cls-2" d="m296.55,295.55l-11.38-11.38c.15-.15.29-.3.43-.46l11.41,11.41c-.15.15-.31.28-.46.43Z"/>
    </g>
  </g>
</svg>