<svg id="Layer_1" data-name="Layer 1" xmlns="http://www.w3.org/2000/svg" viewBox="0 0 574.59 574.59">
  <g id="HQrffQ.tif">
    <g>
      <path class="cls-1" d="m108.19,300.23c3.95,1.74,7.88,3.47,12.63,5.57,4.39-4.39,9.73-9.72,15.05-15.05,9.2-9.24,18.63-18.26,27.47-27.82,4.29-4.64,10.14-5.06,14.72.25l3.22-3.22c54.2-54.2,108.4-108.39,162.55-162.63,1.41-1.41,2.18-3.44,3.61-5.76.49-.24,2.11-.59,3.13-1.57,7.08-6.89,14.06-13.9,21-20.93,3.25-3.3,3.25-5.47.09-8.68-2.76-2.82-5.59-5.59-8.82-8.82,4.53-4.67,7.98-11.62,15.13-15.05,3.99-1.92,7.51-1.94,10.64,1.87,1.68,2.05,4.03,3.56,6.32,5.53,4.29-5.64,7.06-.95,10.79,1.56l14.65-14.65c5.69,6.47,10.91,12.4,16.33,18.55l-11.17,11.17c1.61,1.61,2.93,3.03,4.35,4.33,4.84,4.45,9.77,8.81,14.52,13.36.81.78.91,2.3,1.3,3.49.33,1,.36,2.17.93,2.99,2.57,3.68,2.8,7.62-.2,10.9-6.02,6.6-11.08,14.09-18.95,19.02-3.12,1.94-5.01,5.86-7.91,9.4-.16-.05-1.29-.39-2.16-.64-.28.98-.27,2.29-.88,2.75-2.68,1.97-4.08,4.65-5.52,7.54-.61,1.22-3.18,1.44-5.35,2.31.06.59.18,2.02.35,3.87-4-.57-6.69.48-6.82,4.84-.01.45-.55,1.12-1,1.3-7.21,2.99-10.19,10.13-14.92,15.47-9.96,11.24-18.85,23.48-29.23,34.29-8.16,8.51-17.6,15.92-26.98,23.14-23.53,18.09-46.15,37.09-65.58,59.72-10.34,12.05-21.36,23.5-32.51,35.67,2.55,2.02,4.83,4.07,7.35,5.78,3.06,2.07,3.48,3.76.62,6.63-8,8-15.7,16.31-23.52,24.48-2.81,2.94-5.68,3.06-8.8.23-1.9-1.72-3.65-3.62-5.9-5.88l-5.16,5.16-5.29,5.29,14.07,14.07c3.13,3.13,6.24,6.31,9.4,9.41,1.52,1.49,2.68,3.8,5.64,2.08.42-.24,2.99,1.72,3.25,2.93.78,3.73-4.13,10.04-8.09,11.05-4.73,1.2-6.56-.59-5.37-5.26.17-.68.4-1.35.65-2.18-8.97-8.12-17.93-16.24-26.66-24.15-5.07,2.11-7.16,10.33-14.16,5.57-2.45,1.63-4.82,3.21-6.96,4.62,1.4,3.48,3.25,7.4,4.59,11.48,8.35,25.51,16.61,51.03,24.83,76.59,2.91,9.05,8.21,16.19,16.49,20.92,1.76,1.01,3.93,1.63,5.96,1.77,5.13.35,10.3.33,15.44.47,6.15.17,9.14,2.28,10.5,7.38,1.2,4.48-1.19,10.51-5.35,13.02-1.94,1.17-4.05,2.13-6.17,2.93-27.21,10.45-54.46,20.77-81.61,31.35-5.15,2.02-9.64.94-14.24-1.2l-3.03-3.03c-.3-.76-.54-1.53-.93-2.26-7.01-13.05-14.71-25.87-17.81-40.57-1.97-9.32-3.21-18.84-4.12-28.33-1.79-18.75,2.55-35.96,13.97-51.24,3.33-4.46,6.51-9.07,9.28-13.88,3.2-5.56,2.84-6.92-1.35-11.28-.97.77-2,1.52-2.96,2.35-3.42,2.96-8.93,3.8-12.3.88-5.25-4.55-10.35-9.4-14.69-14.8-1.58-1.96-2.06-6.64-.78-8.68,3.37-5.4,7.89-10.11,12.12-14.95,2.32-2.66,4.97-5.03,7.81-7.87-4.47-2.88-6.82-9.07-13.36-5.15-.48.28-1.6-.37-2.37-.71-3.97-1.77-3.27-5.17-2.88-9.21,4.22-.35,8.51-.7,13.74-1.14-1.25-2.65-2.43-5.14-3.75-7.95,2.47-3.05,5.23-6.46,8.22-10.15-2.04-2.04-4.09-3.82-5.78-5.88-.94-1.15-1.29-2.78-1.9-4.19l.61-.61h0Zm119.35,196.46c-.06-.32-.11-.64-.18-.95-1.93-.08-3.86-.23-5.79-.23-10.98-.02-21.27-2.4-30.1-9.24-2.3-1.77-4.15-1.59-6.59-.57-17.39,7.28-34.83,14.42-52.24,21.62-1.13.47-2.23,1.04-3.53,1.65,3.81,7.67,7.46,15.03,11.24,22.63,29.29-11.72,58.24-23.32,87.18-34.91h0Zm-109.14-59.74c.48.54.95,1.07,1.43,1.61,13.94-5.72,27.88-11.39,41.73-17.31.71-.3,1.15-2.99.66-4.09-4.17-9.29-7.77-18.84-8.83-28.96-.77-7.36-5.83-10.44-10.59-14.28l-6.58,6.58c1.51,2.01,2.88,3.84,4.26,5.66,2.73,3.61,4.33,7.25,1.3,11.6-2.03,2.92-3.75,6.05-5.57,9.11-5.95,10.02-11.88,20.05-17.82,30.08Zm-1.51,30.11c.56.29,1.12.59,1.68.88,15.61-8.9,30.89-18.3,45.98-29.65-15.99,5.93-31.11,11.55-46.96,17.44-.18,2.92-.45,7.12-.71,11.33Zm62.87-5.98c-15.05,9.61-29.61,18.9-44.17,28.19.2.31.4.62.59.93,15.26-6.18,30.52-12.36,45.95-18.61-.75-3.31-1.43-6.35-2.38-10.52h0Z"/>
    </g>
  </g>
</svg>