<svg id="Layer_1" data-name="Layer 1" xmlns="http://www.w3.org/2000/svg" viewBox="0 0 747.39 747.39">
  <g id="NVtgLi.tif">
    <g>
      <path class="cls-1" d="m508.77,51.31c-2.79-2.92-4.68-4.87-6.54-6.85-3.52-3.73-3.35-7.02,0-11.01,4.89-5.85,11.17-8.63,18.59-8.24,3.23.17,6.38,1.8,10.86,3.16,2.98-3.29,6.42-7.21,10.02-10.99,2.8-2.94,5.16-2.91,8.05-.05,6.1,6.04,12.16,12.12,18.22,18.2,3.15,3.17,3.14,4.49-.06,7.71-14.74,14.82-29.52,29.6-44.22,44.46-23.19,23.42-46.33,46.9-69.49,70.35-.61.61-1.17,1.27-2.65,2.89,2.42,2.01,4.9,3.87,7.14,5.97,3.05,2.87,2.95,8.5,0,11.65-4.58,4.9-9.13,9.83-13.71,14.76,1.12,1.57,2.98,3.65,4.1,6.07.34.73-1.12,2.72-2.2,3.6-5.54,4.51-6.19-3.33-10.2-3.8-.46.43-1.29,1.17-2.07,1.95-37.08,36.82-74.14,73.66-111.26,110.44-1.47,1.46-2.24,2.76-2.07,4.95.12,1.51-.38,3.72-1.44,4.54-3.1,2.41-4.22,6.84-8.71,7.99-1.24.32-1.8,3.27-2.84,5.35,5.27,2.82,6.37,7.79,5.88,13.01-.64,6.92,2.72,12.35,5.86,17.85,4.35,7.62,7.07,15.74,8.49,24.34.16.95.21,2.1-.17,2.93-2.72,5.85-5.23,11.84-8.46,17.4-4.01,6.91-8.84,13.34-12.96,20.2-4.42,7.36-3,15.45-1.16,23.08.8,3.29,4.22,5.98,6.58,8.83,3.79,4.59,7.69,9.09,11.55,13.61,3.56,4.17,3.25,9.42,3.16,14.23-.08,4.28-1.81,8.55-3,12.78-.42,1.51-1.24,2.97-2.13,4.28-7.06,10.42-14.64,20.63-25.99,26.52-4.42,2.29-10.61,2.86-15.61,1.99-7.31-1.28-14.43-3.01-21.96-2.71-7.03.29-12.11,3.87-16.39,8.82-7.4,8.56-8.79,19.14-10.35,29.91-1.25,8.6,2.22,15.69,4.46,23.31,3.86,13.15,13.45,21.83,23.34,30.3,1.88,1.61,3.82,3.15,5.68,4.78,9.61,8.46,19.21,16.93,28.8,25.4,1.56,1.38,4.5,2.95,4.35,4.11-.28,2.14-2.07,4.36-3.76,6.01-18.19,17.69-36.34,35.42-54.81,52.81-8.2,7.72-17.12,14.67-25.69,21.99-3.78,3.23-4.8,2.99-6.54-1.48-5.74-14.74-11.35-29.53-17.31-44.18-7.25-17.85-15.4-35.35-22-53.44-4.2-11.51-8.19-23.29-9.36-35.72-.9-9.66-2.88-19.28-3.01-28.94-.11-8.71,1.13-17.45,3.84-25.99,2.44-7.68,6.77-14.14,10.99-20.72,4.13-6.44,8.76-12.55,13.11-18.85,1.47-2.13,1.87-4.31.73-6.93-3.41-7.81-3.69-15.92-1.32-24.05,1.62-5.55,1.73-5.47-3.13-8.35-9.38-5.57-16.54-13.34-21.98-22.7-1.15-1.97-2.16-2.41-4.36-2.03-6.94,1.17-13.81,3.65-21,1.8-5.2-1.34-10.31-3.06-15.56-4.14-5.08-1.04-10.26-1.43-15.16,1.16-.54.29-1.84.27-1.97,0-.31-.66-.38-1.62-.15-2.33,1.33-4.14,4.46-6.65,8.42-7.68,3.61-.93,7.44-1.51,11.15-1.41,9.08.26,17.35-2.18,23.95-8.16,4.69-4.25,6.56-10.55,7.52-16.87.46-2.99,1.13-6,1.11-8.99-.03-5.56,3.86-8.5,7.19-11.89,22.86-23.23,45.56-46.63,68.68-69.6,7.63-7.58,16.22-14.23,24.64-20.96,3.93-3.14,8.16-6.15,13.76-5.99,1.01.03,2.15-1.52,3.09-2.46,78.58-78.55,157.14-157.12,235.74-235.66.95-.95,2.32-1.49,3.65-2.32Zm-248.01,449.21c-.46,1.99-.74,3.36-1.1,4.71-1.27,4.65-1.59,9.36,1.41,13.38,2.21,2.96,4.96,5.61,7.85,7.94,2.29,1.85,5.07,3.19,7.77,4.45,5.68,2.63,11.91,2.12,16.91-.56,5.55-2.98,10.86-7.3,14.77-12.23,5.8-7.32,12.26-14.35,14.66-24.06,1.43-5.79,1.8-11.84-1.14-16.16-4.87-7.16-11.65-13-20.79-14.74-1.93-.37-4.06-.59-5.93-.16-3.08.72-6.14,1.79-8.97,3.18-2.1,1.03-4.08,2.59-5.69,4.3-2.02,2.15-3.65,4.67-5.38,7.08-3.5,4.86-6.96,9.75-10.56,14.79,2.85,3.14,5.23,5.99,7.84,8.6,7.2,7.23,16.28,9.95,26.16,11.03,2.5.27,4.83,2.14,7.24,3.28l-.71,1.62c-17.4,2.58-31.69-4.01-44.34-16.44Zm-21.66-39.29c9.15-8.66,18.46-17.08,27.32-25.95,13.98-13.99,27.65-28.29,41.46-42.44,4.15-4.26,4.19-5.64-.06-9.85-12.46-12.35-24.99-24.63-37.4-37.03-1.89-1.89-3.39-2.57-5.38-.11,13.11,13.11,26.22,26.2,39.32,39.31,3.72,3.72,3.73,4.45.04,8.13-20.38,20.27-40.76,40.54-61.14,60.8-1.02,1.01-2.09,1.97-3.53,3.33-7.01-7.04-13.75-13.81-20.61-20.71-.83.89-1.64,1.76-2.19,2.34,7.46,7.46,14.74,14.75,22.17,22.18Zm-44.49-50.17c-7.07-6.87-13.83-13.44-20.71-20.12,23.39-23.4,46.58-46.59,69.78-69.79-.33-.43-.66-.87-.99-1.3-1.32.86-2.86,1.5-3.94,2.6-19.6,19.98-39.12,40.05-58.73,60.03-3.29,3.36-6.91,6.39-10.41,9.61,7.67,7.73,14.63,14.75,21.73,21.9.94-.85,1.74-1.57,3.26-2.94Z"/>
    </g>
  </g>
</svg>