<?xml version="1.0" encoding="UTF-8"?>
<svg id="Layer_1" data-name="Layer 1" xmlns="http://www.w3.org/2000/svg" viewBox="0 0 766.17 766.17">
  <defs>
    <style>
      .cls-1, .cls-2 {
        stroke-width: 0px;
      }

      .cls-2 {
        fill: #fff;
      }
    </style>
  </defs>
  <g id="GUqRUA.tif">
    <g>
      <path class="cls-2" d="m766.17,766.17H0V0c255.39,0,510.78,0,766.17,0v766.17ZM503.97,21.45c-2.68-3.06-5.92-3.74-8.57-1.27-2.41,2.25-4.45,5.28-5.66,8.37-3.24,8.3-6.18,16.64-11.07,24.25-4.37,6.8-7.99,14.09-11.78,21.24-2.44,4.6-4.93,8.99-8.79,12.74-21.28,20.69-42.42,41.52-63.45,62.46-31.37,31.22-62.62,62.57-93.91,93.88-2.79,2.79-5.5,5.67-8.25,8.51-.23-.41-.46-.81-.69-1.22-1.5.54-3.26.75-4.46,1.68-4.35,3.37-8.49,7-12.75,10.5-2.78,2.29-5.84,4.28-8.38,6.8-23.69,23.57-47.24,47.29-71,70.78-3.46,3.42-7.49,6.8-11.91,8.56-6.1,2.44-10.2,6.85-14.5,11.24-2.22,2.27-4.21,4.26-7.9,3.62-1.74-.3-3.77,1.28-5.6,1.11-1.7-.15-3.29-1.49-4.93-2.3-.13.15-.25.3-.38.45,1.63,1.98,3.26,3.95,4.89,5.93-3.48-.99-4.5.29-4.39,3.08.2,5.18,4.09,7.83,7.5,10.8,1.94,1.69,3.91,2.09,6.41,1,2.07-.91,4.11-.83,4.17,2.38.01.56.4,1.22.81,1.64,4.89,4.97,5.32,11.65,6.33,17.88.89,5.5.82,11.23.52,16.82-.32,6.05-1.39,12.06-2.12,17.92-2-.37-3.51-.71-5.04-.91-2.98-.4-6.37.04-8.86-1.27-2.95-1.55-5.75-1.54-8.71-1.48-2.08.05-4.21.29-6.22.83-3.47.95-4.01-1.01-4.03-3.66-.02-2.26,0-4.53,0-6.63h-9.53c-.4,5.24-.97,10.1-1.05,14.96-.04,2.43-.83,5.57,2.49,6.84,4.16,1.58,8.48,2.78,12.54,4.57,2.09.92,4.33,2.41,5.5,4.28,2.12,3.4.65,10.3-2.39,13.36-7.72,7.76-10.53,17.14-9.29,27.85.13,1.16.77,2.41,1.54,3.29.51.58,1.96,1.03,2.51.71.71-.42,1.41-1.71,1.31-2.53-.89-7.18-.78-14.03,3.37-20.49,4.37-6.78,7.91-12.83,17.3-11.27-.87,2.71-1.48,5.59-2.69,8.18-4.19,8.95-8.65,17.78-12.91,26.71-3.14,6.59-4.41,9.41-1.23,13.1,4.42,5.12,9.16,9.97,13.44,15.21,2.66,3.26,5.07,6.83,6.95,10.59,3.02,6.03,3.77,12.74,4.93,19.34,1.88,10.79,4.12,21.52,6.38,32.24,2.43,11.54,4.42,23.24,7.78,34.51,3.65,12.23,8.54,24.11,13.14,36.04,3.08,7.99,6.4,15.91,10,23.68,3.08,6.64,6.72,13.01,10.09,19.51,4.33,8.35,8.58,16.74,12.95,25.06,4.27,8.13,8.76,16.14,12.91,24.33,2.62,5.17,4.77,6.37,8,3.57,6.72-5.83,13.47-11.63,20.03-17.64,7.11-6.51,14.27-12.98,20.94-19.92,7.96-8.29,15.04-17.43,23.2-25.5,8.74-8.65,16.14-18.31,23.64-27.96,4.83-6.22,5.06-10.16-.6-15.37-10.48-9.66-21.28-18.97-31.73-28.66-3.57-3.31-6.29-7.53-9.75-10.99-8.68-8.7-15.95-18.43-21.99-29.1-2.53-4.47-5.35-8.95-6.89-13.78-2.74-8.59-6.23-17.23-3.66-26.65.37-1.36-.52-3.33.18-4.29,4.77-6.54,7.02-14.72,13.25-20.31,1.48-1.33,2.41-3.28,3.92-4.55.93-.78,2.98-1.56,3.68-1.09,6.23,4.21,13.56,4.44,20.48,6.2,9.68,2.46,17.33-3.48,25.87-5.72,9.83-8.91,19.86-17.66,26.44-29.47,2.56-4.59,5.54-9.13,7.01-14.09,2.02-6.84,2.99-14.02,4.03-21.11.55-3.75.9-7.74.23-11.41-1.6-8.79-6.14-16.3-11.46-23.39-2.2-2.93-4.37-5.99-5.86-9.3-1.49-3.31-3.46-7.27-2.83-10.48,1.12-5.7,3.08-11.39,7.56-15.88,6.08-6.08,11.55-12.77,17.58-18.91,2.15-2.19,1.83-3.98.4-5.86-2.25-2.96-4.58-5.9-7.24-8.48-3.71-3.61-7.98-6.67-11.6-10.37-5.1-5.22-7.42-11.86-9.22-18.89-1.18-4.61.27-7.31,3.43-10.32,7.95-7.56,15.58-15.45,23.33-23.2,18.13-18.13,36.28-36.24,54.33-54.45,1.06-1.07,2.17-3.31,1.73-4.42-1.52-3.89-3.23-7.9-5.75-11.18-4.89-6.35-6.84-13.98-10.1-21.03-1.33-2.88-.25-5.18,2.19-7.53,35.44-34.18,68.73-70.54,105.27-103.63,9.25-8.38,17.74-17.61,26.58-26.45,2.77-2.77,3.19-6,1.12-9.37-1.59-2.59-3.66-4.94-4.85-7.69-2.61-5.99-8.43-7.91-13.25-11.07-2.4-1.57-6.25-1.86-7.58-3.93-2.45-3.82-4.28-1.85-6.17-1.06-2.7-2.22-5.44-4.43-8.57-5.69-4.03-1.62-6.02,2.08-8.66,4.56Z"/>
      <path class="cls-1" d="m503.97,21.45c2.64-2.47,4.63-6.18,8.66-4.56,3.13,1.26,5.86,3.48,8.57,5.69,1.89-.79,3.72-2.76,6.17,1.06,1.33,2.07,5.18,2.35,7.58,3.93,4.81,3.16,10.64,5.09,13.25,11.07,1.2,2.75,3.27,5.1,4.85,7.69,2.07,3.37,1.65,6.6-1.12,9.37-8.84,8.84-17.33,18.07-26.58,26.45-36.54,33.09-69.83,69.44-105.27,103.63-2.44,2.35-3.53,4.65-2.19,7.53,3.26,7.05,5.21,14.68,10.1,21.03,2.52,3.28,4.22,7.28,5.75,11.18.43,1.1-.67,3.35-1.73,4.42-18.05,18.21-36.2,36.32-54.33,54.45-7.76,7.76-15.39,15.65-23.33,23.2-3.17,3.01-4.61,5.7-3.43,10.32,1.79,7.03,4.11,13.67,9.22,18.89,3.62,3.7,7.89,6.76,11.6,10.37,2.65,2.58,4.99,5.52,7.24,8.48,1.43,1.88,1.76,3.67-.4,5.86-6.03,6.14-11.5,12.82-17.58,18.91-4.49,4.49-6.45,10.18-7.56,15.88-.63,3.21,1.34,7.17,2.83,10.48,1.49,3.31,3.66,6.37,5.86,9.3,5.32,7.09,9.86,14.6,11.46,23.39.67,3.68.31,7.66-.23,11.41-1.03,7.09-2,14.27-4.03,21.11-1.47,4.95-4.45,9.5-7.01,14.09-6.58,11.81-16.61,20.56-26.44,29.47-8.54,2.24-16.19,8.18-25.87,5.72-6.92-1.76-14.25-1.99-20.48-6.2-.7-.47-2.75.31-3.68,1.09-1.51,1.27-2.44,3.23-3.92,4.55-6.23,5.59-8.48,13.77-13.25,20.31-.7.96.19,2.93-.18,4.29-2.57,9.42.92,18.06,3.66,26.65,1.54,4.84,4.36,9.31,6.89,13.78,6.03,10.66,13.31,20.4,21.99,29.1,3.45,3.46,6.17,7.68,9.75,10.99,10.45,9.69,21.25,19,31.73,28.66,5.65,5.21,5.43,9.15.6,15.37-7.5,9.65-14.89,19.31-23.64,27.96-8.16,8.07-15.24,17.22-23.2,25.5-6.67,6.94-13.83,13.42-20.94,19.92-6.56,6.01-13.31,11.81-20.03,17.64-3.23,2.8-5.38,1.6-8-3.57-4.15-8.19-8.65-16.2-12.91-24.33-4.37-8.33-8.63-16.71-12.95-25.06-3.37-6.5-7.01-12.88-10.09-19.51-3.6-7.77-6.91-15.69-10-23.68-4.6-11.93-9.49-23.81-13.14-36.04-3.37-11.27-5.35-22.97-7.78-34.51-2.26-10.72-4.5-21.45-6.38-32.24-1.15-6.6-1.9-13.31-4.93-19.34-1.88-3.75-4.29-7.33-6.95-10.59-4.27-5.24-9.02-10.09-13.44-15.21-3.18-3.69-1.91-6.51,1.23-13.1,4.25-8.93,8.71-17.76,12.91-26.71,1.21-2.59,1.82-5.46,2.69-8.18-9.4-1.56-12.94,4.49-17.3,11.27-4.15,6.45-4.26,13.31-3.37,20.49.1.82-.6,2.11-1.31,2.53-.55.32-2-.13-2.51-.71-.78-.88-1.41-2.13-1.54-3.29-1.24-10.71,1.58-20.09,9.29-27.85,3.04-3.06,4.52-9.96,2.39-13.36-1.17-1.87-3.41-3.36-5.5-4.28-4.06-1.79-8.38-2.99-12.54-4.57-3.32-1.27-2.53-4.41-2.49-6.84.09-4.87.65-9.73,1.05-14.96h9.53c0,2.1-.02,4.36,0,6.63.03,2.65.56,4.6,4.03,3.66,2-.55,4.14-.78,6.22-.83,2.96-.07,5.76-.07,8.71,1.48,2.49,1.31,5.88.87,8.86,1.27,1.53.2,3.04.54,5.04.91.73-5.87,1.8-11.88,2.12-17.92.3-5.59.37-11.33-.52-16.82-1.01-6.23-1.43-12.91-6.33-17.88-.41-.42-.8-1.09-.81-1.64-.06-3.2-2.1-3.28-4.17-2.38-2.49,1.09-4.47.69-6.41-1-3.41-2.97-7.3-5.62-7.5-10.8-.11-2.79.91-4.07,4.39-3.08-1.63-1.98-3.26-3.95-4.89-5.93.13-.15.25-.3.38-.45,1.64.81,3.23,2.15,4.93,2.3,1.82.16,3.85-1.41,5.6-1.11,3.7.64,5.68-1.35,7.9-3.62,4.3-4.39,8.39-8.8,14.5-11.24,4.42-1.77,8.46-5.14,11.91-8.56,23.77-23.5,47.31-47.22,71-70.78,2.54-2.53,5.6-4.52,8.38-6.8,4.25-3.5,8.4-7.13,12.75-10.5,1.2-.93,2.96-1.14,4.46-1.68.23.41.46.81.69,1.22,2.75-2.84,5.46-5.71,8.25-8.51,31.29-31.31,62.54-62.65,93.91-93.88,21.04-20.94,42.17-41.77,63.45-62.46,3.86-3.75,6.35-8.14,8.79-12.74,3.8-7.15,7.41-14.45,11.78-21.24,4.89-7.6,7.83-15.95,11.07-24.25,1.2-3.08,3.24-6.12,5.66-8.37,2.65-2.47,5.88-1.79,8.57,1.27Zm-227.15,452.63c-1.75,7.37-.3,14.59,3.36,20.48,6.16,9.91,16.16,15.27,27.32,18.14,3.65.94,7.72,1.83,11.3,1.16,8.15-1.52,14.84-6.37,20.91-11.81,2.91-2.61,4.92-6.21,7.69-9.01,8.32-8.42,13.13-18.63,16.03-29.93,1.67-6.52,2.93-13.31,1.47-19.75-2.69-11.9-9.2-20.82-21.29-25.77-9.59-3.92-17.98-1.94-26.56,1.81-7.27,3.18-13.24,8.15-18.42,14.59.73.46,1.5,1,2.32,1.46,6.78,3.83,12.41,8.48,12.35,17.2-.03,4.45.82,8.43,2.95,12.6,3.21,6.28,8.66,8.3,14.53,10.03,2.25.66,4.94,1.21,7.09.6,5.27-1.48,10.63-3.06,14.62-7.31.7-.74,2.03-.9,3.07-1.33-5.5,8.06-11.87,13.82-22.18,13.81-6.8-.01-13.15-1.51-18.73-4.66-4.61-2.6-8.2-7.06-12.13-10.81-4.04-3.86-3.82-3.64-8.26-.01-5.03,4.11-10.71,7.24-17.44,8.51Zm-17.58-29.39c-.16-.44-.31-.89-.47-1.33,26.47-26.46,52.93-52.91,79.4-79.37l.83.83c-25.76,25.76-51.51,51.51-77.3,77.31-1.39-1.16-1.74-1.47-2.1-1.76-.43-.35-.86-.69-1.3-1.04-.29.15-.57.31-.86.46.6,1.64,1.2,3.27,1.8,4.91Zm8.21-153.66c.43.41.87.82,1.3,1.22-21.12,21.12-42.25,42.25-63.37,63.37-.42-.42-.84-.84-1.25-1.27,21.11-21.11,42.22-42.22,63.32-63.33Zm-80.6,81.04c1.66,2.79,3.54,3.86,6.79,1.13-1.42-1.19-2.77-2.32-3.95-3.31-1.19.91-2.08,1.6-2.85,2.19Z"/>
      <path class="cls-2" d="m276.82,474.08c6.73-1.27,12.42-4.4,17.44-8.51,4.44-3.63,4.22-3.85,8.26.01,3.93,3.75,7.52,8.21,12.13,10.81,5.58,3.15,11.93,4.65,18.73,4.66,10.31.02,16.68-5.75,22.18-13.81-1.04.43-2.37.58-3.07,1.33-3.99,4.25-9.35,5.83-14.62,7.31-2.15.6-4.83.06-7.09-.6-5.87-1.73-11.32-3.75-14.53-10.03-2.13-4.17-2.98-8.15-2.95-12.6.06-8.72-5.57-13.37-12.35-17.2-.82-.46-1.59-1-2.32-1.46,5.18-6.44,11.15-11.41,18.42-14.59,8.58-3.75,16.96-5.73,26.56-1.81,12.09,4.94,18.6,13.87,21.29,25.77,1.46,6.44.2,13.23-1.47,19.75-2.9,11.3-7.7,21.51-16.03,29.93-2.77,2.8-4.77,6.4-7.69,9.01-6.07,5.43-12.76,10.29-20.91,11.81-3.58.67-7.65-.22-11.3-1.16-11.16-2.86-21.16-8.22-27.32-18.14-3.66-5.89-5.11-13.11-3.36-20.48Z"/>
      <path class="cls-2" d="m259.24,444.7c-.6-1.64-1.2-3.27-1.8-4.91.29-.15.57-.31.86-.46.43.35.87.69,1.3,1.04.36.3.72.6,2.1,1.76,25.79-25.79,51.55-51.55,77.3-77.31l-.83-.83c-26.47,26.46-52.93,52.91-79.4,79.37.16.44.31.89.47,1.33Z"/>
      <path class="cls-2" d="m267.45,291.04c-21.11,21.11-42.22,42.22-63.32,63.33.42.42.84.84,1.25,1.27,21.12-21.12,42.25-42.25,63.37-63.37-.43-.41-.87-.82-1.3-1.22Z"/>
      <path class="cls-2" d="m186.84,372.08c.77-.59,1.66-1.27,2.85-2.19,1.18.99,2.53,2.12,3.95,3.31-3.26,2.73-5.13,1.66-6.79-1.13Z"/>
    </g>
  </g>
</svg>