<svg xmlns="http://www.w3.org/2000/svg" xml:space="preserve" width="299.647" height="125.729" viewBox="0 0 79.282 33.266"><g transform="translate(-66.658 -97.363)"><path d="M105.9 97.363c-1.832.003-3.619.144-4.895.422-5.88 1.281-14.822 5.306-22.71 10.22-4.135 2.578-8.7 6.225-10 7.99-1.944 2.64-2.158 5.371-.633 8.042.772 1.353 1.77 2.19 6.731 5.646l5.707-.202 2.447-.43c5.344-.94 12.212-1.66 19.03-1.996 1.924-.095 3.9-.13 5.952-.101 6.153.083 12.977.727 21.055 1.97l3.638.56 4.101 1.145 2.91-1.75c5.161-3.103 7.01-5.569 6.667-8.89-.277-2.689-1.783-4.634-6.137-7.929-9.186-6.95-21.034-12.85-28.702-14.292-1.454-.273-3.33-.408-5.161-.405m-.812 3.789a27 27 0 0 1 2.244.036c4.576.245 9.471 1.87 16.56 5.497 7.72 3.95 16.561 10.169 17.764 12.494.485.94.33 2.394-.335 3.129-.247.273-.58.49-.74.483-.159-.007-1.48-.66-2.935-1.452-8.102-4.409-19.886-8.569-27.362-9.66-7.753-1.133-19.675 1.982-33.547 8.764-2.358 1.153-4.513 2.096-4.787 2.096-.275 0-.679-.208-.897-.463-1.523-1.773-.296-3.387 3.746-6.82 6.736-5.724 14.541-9.882 23.672-12.807 2.662-.852 4.504-1.233 6.617-1.297z" style="fill:#000"/><rect width="13.354" height="3.75" x="-14.49" y="141.495" rx="2.414" ry="3.75" transform="matrix(.8988 -.43838 .65792 .75309 0 0)"/></g></svg>