<svg xmlns="http://www.w3.org/2000/svg" xml:space="preserve" width="666.827" height="719.447" viewBox="0 0 176.431 190.354"><path d="M175.671.008c-1.271.297-2.106 1.454-3 2.324-1.999 2.296-3.917 4.746-5.125 7.561-1.472 4.308-2.356 8.79-3.252 13.245-.435 2.23-.772 4.483-.82 6.757-.415 3.94-1.976 7.773-3.937 11.252-3.463 6.182-9.184 10.992-15.779 13.535-3.275 1.28-6.796 2.039-10.257 2.345-.635.171-.538-.437-.382-.84 1.26-4.069 1.953-8.383 1.34-12.632-.365-3.551-1.766-6.905-2.112-10.455-.18-2.36 1.318-4.357 2.207-6.423.47-.791.705-1.667.893-2.56-1.431.841-2.383 2.221-3.516 3.397-1.402 1.45-2.749 3.13-2.988 5.207-.453 3.64-.085 7.317-.143 10.973-.043 2.182.098 4.332-.434 6.457-.052.424-.395.63-.792.595-.672.228-.769 1.073-.475 1.635-1.625.035-2.72 1.424-3.82 2.437-2.805 2.494-6.293 3.955-9.54 5.754-.567.204-.947.739-.785 1.35.577 3.21 1.71 6.288 2.651 9.404.144.745.838 1.553 1.658 1.17.927-.433 1.612-1.323 2.69-1.434 4.672-.911 9.458-.25 14.177-.554 8.198-.41 16.49-2.647 23.199-7.512 5.607-3.994 9.835-9.707 12.554-15.994 1.276-2.665 2.17-5.529 2.353-8.49.421-5.885.216-11.791.292-17.686.057-3.863-.044-7.716.522-11.526.26-2.06 1.332-3.86 2.343-5.625.451-.981 1.119-2 1.03-3.116-.058-.346-.402-.609-.752-.551M.873.281a1 1 0 0 0-.356.01C-.343.545.066 1.613.35 2.181c1.162 2.594 2.824 5.04 3.15 7.932.59 4.345.429 8.743.451 13.137.034 5.568-.22 11.168.48 16.705.61 4.159 2.203 8.135 4.285 11.768 3.512 6.059 9.101 10.662 15.267 13.848 3.75 1.855 7.525 3.983 11.763 4.422 5.05.54 10.18.21 15.21.609 2.267.203 4.545.257 6.716.909.823.493 2.028.982 2.794.12 1.041-1.31 1.407-3.008 1.978-4.55.581-1.849 1.108-4.104-.174-5.793-1.73-2.222-4.66-2.995-6.757-4.683-3.174-2.315-5.619-5.543-7.263-9.053-1.126-2.495-.618-5.232-.463-7.844.147-3.676-.164-7.49-1.698-10.878-.54-1.134-1.564-2.458-2.971-2.232-.871.306-.52 1.407-.245 2.031.648 1.384 1.195 2.857 1.105 4.414-.088 3.973-1.348 7.91-1.579 11.92-.344 3.92.049 7.95 1.562 11.608.381.64-.538.445-.894.454-4.524-.339-8.972-1.53-13.127-3.33-4.513-1.984-8.57-5.17-11.137-9.421-3.379-5.49-4.843-11.881-6.016-18.148-1.083-6.39-2.192-12.894-4.956-18.812C6.533 4.617 4.72 1.921 1.88.686 1.567.535 1.226.331.873.281m88.015 43.396a10 10 0 0 0-1.209.028c-3.514.353-6.74 2.085-9.559 4.129-5.6 4.214-9.265 10.416-12.142 16.688-2.322 5.033-4.001 10.323-5.763 15.566-3.348 9.545-7.157 18.921-11.287 28.154-2.316 5.499-4.593 11.016-5.561 16.936-.556 3.438-.327 7.308 1.248 10.583 1.152 2.213 2.874 4.065 4.42 6.005 6.775 8.1 14.33 15.497 21.447 23.285 2.58 2.8 5.166 5.6 7.551 8.572-1.759-4.75-4.407-9.104-7.006-13.43-4.554-7.497-9.745-14.575-14.637-21.848-1.953-3.02-4.06-5.98-5.515-9.282-.236-.633-.53-1.36-.18-2.008.972-.157 1.407.897 1.935 1.511 2 2.849 3.783 5.847 5.888 8.623 2.793 3.87 6.022 7.432 8.797 11.343 6.511 8.967 12.224 18.554 16.603 28.744 1.773 4.05 3.074 8.28 4.264 12.533.155 1.13.36.244.557-.359 2.034-6.1 4.257-12.147 7.09-17.926 5.436-11.334 12.677-21.71 20.612-31.42 3.156-4.14 5.892-8.603 8.096-13.32.657-1.187 1.183-2.507 2.15-3.481.604-.39 1.114.344.932.914-.328 2.684-1.709 5.09-2.955 7.442-4.605 8.18-10.375 15.616-15.415 23.523-3.647 5.619-7.058 11.443-9.638 17.656 3.692-4.548 7.71-8.821 11.636-13.165 5.218-5.663 10.404-11.36 15.84-16.816 2.411-2.112 4.544-4.655 5.617-7.717 1.983-5.306.953-11.46-.745-16.64-1.544-4.61-3.657-9.001-5.443-13.518-4.752-11.494-9.32-23.07-13.315-34.851-2.56-7.084-5.856-14.098-11.39-19.358-2.775-2.573-5.817-5.014-9.383-6.386a11.4 11.4 0 0 0-3.54-.71M87.064 63.48c4.04-.061 7.964 1.582 11.172 3.958 2.201 1.651 3.885 3.875 5.566 6.027 3.72 5.038 6.884 10.462 9.865 15.96 2.972 5.629 5.651 11.437 7.67 17.475.194.775.378 2.038-.65 2.29-1.128.24-1.623-.982-2.124-1.748-1.772-3.119-3.085-6.472-4.818-9.613-3.768-7.103-7.917-13.985-12.572-20.532-1.548-2.17-3.18-4.236-5.338-5.869-2.922-2.307-6.84-3.502-10.52-2.627-3.866.827-7.2 3.335-9.53 6.472-4.425 5.512-7.937 11.55-11.418 17.674-2.409 4.282-4.495 8.749-7.063 12.937-.374.643-1.364 1.14-1.921.428-.77-.994.142-2.146.439-3.136a194 194 0 0 1 10.083-20.984c2.958-5.17 6.357-10.198 10.814-14.201 2.878-2.502 6.47-4.385 10.345-4.511"/></svg>