<?xml version="1.0" encoding="UTF-8" standalone="no"?>
<svg
   viewBox="0 0 108.94313 113.99846"
   version="1.1"
   id="svg1"
   xml:space="preserve"
   xmlns="http://www.w3.org/2000/svg"
   xmlns:svg="http://www.w3.org/2000/svg"><g
     transform="translate(-49.9628,-91.284772)"><path
       d="M 100.44825,205.1317 C 95.765081,204.27681 90.802681,202.16667 87.165472,199.48352 84.661017,197.636 76.88424,189.95336 74.793638,187.26146 62.776194,171.78751 57.604243,159.11196 53.526146,135.13854 c -1.524264,-8.96051 -2.976574,-24.98786 -3.464568,-38.23415 -0.227884,-6.185758 -0.384324,-5.965085 3.410608,-4.810981 7.214807,2.194145 12.350634,2.561607 17.123338,1.225151 2.429164,-0.680216 3.210173,-0.777419 6.217708,-0.773847 4.061748,0.0048 5.233686,0.297338 9.528676,2.378344 1.602752,0.776564 4.12491,1.771641 5.604796,2.211282 5.691239,1.690738 8.085456,2.954271 10.977806,5.793441 l 1.76961,1.73708 2.1038,-1.97911 c 2.62874,-2.47293 4.62198,-3.525826 9.70281,-5.12537 2.18281,-0.687191 5.3975,-1.949182 7.14375,-2.804424 4.00119,-1.959621 6.31269,-2.479353 10.05417,-2.260646 1.62216,0.09482 3.61831,0.427026 5.15937,0.858632 2.06786,0.579148 3.07651,0.705646 5.68854,0.713413 3.41326,0.01015 5.71113,-0.409292 10.8323,-1.977273 l 2.63022,-0.80531 0.49641,0.613047 c 0.38357,0.473684 0.46459,0.887095 0.35641,1.818553 -0.077,0.663028 -0.20956,2.872381 -0.29458,4.909672 -1.46923,35.207406 -5.1755,54.029926 -14.1346,71.783466 -5.26507,10.43338 -10.39679,17.62494 -17.87794,25.05403 -4.30512,4.27517 -6.62229,6.0101 -9.95738,7.45537 -3.69206,1.59997 -6.7216,2.24168 -11.07688,2.34626 -2.11005,0.0507 -4.39257,-0.009 -5.07227,-0.13347 z m 9.96706,-6.62605 c 1.16417,-0.30989 2.97603,-0.97493 4.02636,-1.47788 7.62984,-3.65351 18.08637,-16.20914 24.9247,-29.92818 6.85477,-13.75204 9.8648,-26.81025 12.30736,-53.3923 0.47543,-5.17412 1.05963,-16.772222 0.85512,-16.976736 -0.0817,-0.08175 -1.03117,0.650675 -2.10982,1.627607 -3.83077,3.469519 -8.48081,6.392019 -12.22247,7.681699 -0.7276,0.25079 -2.17235,0.51576 -3.21054,0.58881 -2.12633,0.14962 -4.22035,-0.39391 -7.08107,-1.838 -2.57371,-1.2992 -4.31361,-1.799 -6.26269,-1.799 -3.4324,0 -6.45719,1.41355 -9.07474,4.2408 -2.54411,2.74795 -3.51067,5.02709 -5.05828,11.9274 -0.72667,3.24003 -1.26476,4.20471 -2.34533,4.20471 -1.08486,0 -1.45873,-0.60552 -2.28708,-3.70416 -1.76642,-6.60777 -3.057306,-9.48361 -5.437563,-12.11388 -2.76716,-3.05781 -5.888125,-4.55487 -9.495687,-4.55487 -2.138666,0 -3.750961,0.46617 -6.632871,1.91778 -5.740824,2.89164 -10.112285,2.30173 -17.24191,-2.32673 -2.249759,-1.46052 -5.796092,-4.391468 -7.007361,-5.791403 -0.385987,-0.446108 -0.78792,-0.726673 -0.893185,-0.623476 -0.294093,0.288314 0.744658,15.274179 1.619226,23.360289 0.98616,9.11786 3.237686,22.47202 4.862657,28.8412 1.332705,5.22362 3.582949,11.91534 5.2933,15.74109 5.922934,13.24853 17.219523,27.33682 25.740969,32.10228 5.085724,2.8441 11.406195,3.71031 16.730905,2.29295 z m -9.525,-8.17237 c -1.750446,-0.50982 -3.411476,-1.30739 -5.027079,-2.41383 -1.343594,-0.92016 -10.980207,-10.96399 -10.980207,-11.4442 0,-0.46006 0.978726,-1.51692 1.40477,-1.51692 0.179203,0 1.514018,0.78103 2.966255,1.73562 3.067159,2.01611 8.074343,4.53038 11.107101,5.57723 1.74094,0.60094 2.56283,0.72958 4.63021,0.72471 2.16364,-0.005 2.84502,-0.12583 4.89479,-0.86724 3.30083,-1.19393 7.74636,-3.41495 10.62869,-5.31017 1.33464,-0.87756 2.65397,-1.59556 2.93185,-1.59556 0.62258,0 1.23764,1.07669 1.01528,1.77728 -0.0903,0.28458 -2.63293,2.95972 -5.65023,5.94474 -4.92833,4.8756 -5.68773,5.5229 -7.47038,6.36761 -1.09141,0.51716 -2.61532,1.07091 -3.38646,1.23054 -2.02573,0.41934 -5.23127,0.32414 -7.06459,-0.20981 z m -6.901602,-18.39686 c -1.075574,-0.46831 -1.961935,-1.6275 -1.961935,-2.56584 0,-1.05797 1.211285,-2.32155 2.513542,-2.62207 0.582083,-0.13432 5.378173,-0.24706 10.657975,-0.25053 10.43031,-0.007 10.94312,0.0558 11.85512,1.44765 1.01984,1.55647 0.0601,3.53217 -1.99285,4.10248 -1.52306,0.42311 -20.069336,0.3248 -21.071852,-0.11169 z m 7.298482,-20.6821 c -0.50932,-0.0606 -2.116667,-0.23588 -3.571875,-0.3896 -8.666879,-0.91552 -16.087979,-3.6858 -21.56372,-8.04969 -1.382349,-1.10167 -3.852816,-3.2583 -5.489925,-4.79252 -2.980639,-2.79332 -3.485353,-3.60804 -2.645833,-4.27096 0.54907,-0.43356 7.088277,-3.1531 8.929687,-3.71369 8.550634,-2.60312 15.193137,-0.42225 23.145526,7.59913 2.14753,2.16617 3.04822,2.80768 3.04822,2.1711 0,-0.26541 -0.83273,-1.37478 -3.13868,-4.18135 l -1.683483,-2.04897 0.607895,-0.49224 0.607895,-0.49224 2.618603,2.79398 c 1.44024,1.53669 2.75305,2.79398 2.91737,2.79398 0.16432,0 1.51165,-1.26084 2.99407,-2.80187 2.43448,-2.53072 2.74913,-2.77306 3.25145,-2.50423 0.30587,0.1637 0.5542,0.38274 0.55184,0.48676 -0.002,0.10402 -1.13345,1.53348 -2.51354,3.17658 -1.38009,1.64309 -2.50925,3.11034 -2.50925,3.26054 0,0.62481 0.915,-0.0376 3.36276,-2.43459 4.59502,-4.49964 7.2573,-6.31376 11.14523,-7.59454 2.79052,-0.91927 7.36293,-0.9725 10.51567,-0.12242 2.06366,0.55643 9.42467,3.54023 10.09977,4.09396 0.85435,0.70075 0.0118,1.7179 -5.17783,6.25083 -7.42808,6.48813 -13.97972,9.44865 -23.84501,10.77496 -2.86649,0.38538 -10.00394,0.68362 -11.65684,0.48709 z m -3.06879,-3.917 c 1.727452,-0.72177 2.17489,-2.25945 1.239974,-4.26128 -1.266415,-2.71162 -5.630907,-6.85719 -8.886809,-8.44105 -4.086478,-1.9879 -8.610879,-2.31064 -13.428466,-0.95788 -1.542538,0.43313 -3.289593,0.86507 -3.882345,0.95985 -0.592751,0.0948 -1.07773,0.25775 -1.07773,0.36214 0,0.10439 1.220391,1.37636 2.711979,2.82661 2.840757,2.76201 6.217887,5.21072 9.332576,6.76694 4.895657,2.44605 11.571235,3.75564 13.990821,2.74467 z m -4.880568,-2.03273 c -2.123389,-0.28186 -5.756643,-1.3166 -7.807246,-2.22347 -3.465355,-1.53254 -9.709821,-6.4741 -8.856724,-7.00877 1.104738,-0.69238 4.084027,-1.12929 6.839261,-1.00297 3.251583,0.14907 4.94844,0.68612 7.453674,2.35905 2.978355,1.98887 6.794336,6.37023 6.571161,7.54476 -0.109987,0.57884 -1.506133,0.689 -4.200126,0.3314 z m 23.623318,2.00937 c 5.95136,-1.03783 11.95331,-4.23075 17.59359,-9.35946 1.54322,-1.40325 2.85358,-2.69581 2.91191,-2.87235 0.0583,-0.17653 -0.1703,-0.37411 -0.50806,-0.43907 -0.33776,-0.065 -1.32849,-0.24432 -2.20161,-0.39856 -0.87313,-0.15425 -2.48047,-0.53015 -3.57188,-0.83532 -1.6509,-0.46163 -2.51792,-0.53699 -5.15937,-0.44846 -2.80719,0.0941 -3.42021,0.20405 -5.29167,0.94924 -5.20068,2.07083 -10.71562,7.77474 -10.71562,11.08277 0,2.48977 2.04856,3.17468 6.94271,2.32121 z m -4.23073,-1.88522 c -1.43717,-0.64243 2.97241,-6.20922 6.68073,-8.43396 2.64923,-1.58935 4.73485,-2.08594 8.03696,-1.91361 2.74734,0.14339 5.32449,0.76863 5.32449,1.29177 0,0.31939 -0.2257,0.53994 -2.38125,2.32685 -3.69387,3.06217 -7.6695,5.12958 -11.7334,6.10163 -2.23201,0.53387 -5.38913,0.868 -5.92753,0.62732 z"
       /></g></svg>
