<svg xmlns="http://www.w3.org/2000/svg" xml:space="preserve" viewBox="0 0 108.943 113.998"><path d="M50.485 113.847c-4.683-.855-9.645-2.965-13.282-5.648-2.505-1.848-10.282-9.53-12.372-12.222C12.813 80.503 7.64 67.827 3.563 43.854 2.04 34.894.587 18.866.1 5.62-.13-.566-.286-.345 3.509.809 10.724 3.003 15.86 3.37 20.633 2.034c2.429-.68 3.21-.778 6.217-.774 4.062.005 5.234.297 9.53 2.378 1.602.777 4.124 1.772 5.604 2.212 5.691 1.69 8.085 2.954 10.978 5.793l1.77 1.737 2.103-1.979c2.629-2.473 4.622-3.526 9.703-5.125 2.183-.688 5.397-1.95 7.144-2.805 4-1.96 6.312-2.48 10.054-2.26 1.622.094 3.618.427 5.16.858 2.067.58 3.076.706 5.688.714 3.413.01 5.71-.41 10.832-1.978l2.63-.805.497.613c.383.474.464.887.356 1.819-.077.663-.21 2.872-.294 4.91-1.47 35.207-5.176 54.03-14.135 71.783-5.265 10.433-10.397 17.625-17.878 25.054-4.305 4.275-6.622 6.01-9.957 7.455-3.692 1.6-6.722 2.242-11.077 2.346-2.11.051-4.393-.009-5.073-.133m9.968-6.626c1.164-.31 2.976-.975 4.026-1.478 7.63-3.654 18.086-16.21 24.925-29.928 6.854-13.752 9.864-26.81 12.307-53.392.475-5.175 1.06-16.773.855-16.977-.082-.082-1.031.65-2.11 1.627-3.83 3.47-8.48 6.392-12.222 7.682-.728.25-2.173.516-3.21.589-2.127.15-4.221-.394-7.082-1.838-2.574-1.3-4.313-1.8-6.263-1.8q-5.148 0-9.074 4.242c-2.544 2.748-3.51 5.027-5.059 11.927-.726 3.24-1.264 4.205-2.345 4.205-1.085 0-1.459-.606-2.287-3.704-1.766-6.608-3.057-9.484-5.438-12.114-2.767-3.058-5.888-4.555-9.495-4.555-2.139 0-3.751.466-6.633 1.918-5.74 2.891-10.112 2.301-17.242-2.327-2.25-1.46-5.796-4.392-7.007-5.791-.386-.447-.788-.727-.894-.624-.294.288.745 15.274 1.62 23.36.986 9.118 3.237 22.472 4.862 28.842C14.02 62.308 16.27 69 17.981 72.825c5.923 13.25 17.22 27.337 25.74 32.103 5.086 2.844 11.407 3.71 16.732 2.293m-9.525-8.172c-1.75-.51-3.412-1.308-5.028-2.414-1.343-.92-10.98-10.964-10.98-11.445 0-.46.979-1.516 1.405-1.516.18 0 1.514.78 2.966 1.735 3.067 2.016 8.075 4.53 11.107 5.577 1.741.601 2.563.73 4.63.725 2.164-.005 2.846-.126 4.895-.867 3.301-1.194 7.747-3.415 10.629-5.31 1.335-.878 2.654-1.596 2.932-1.596.622 0 1.238 1.077 1.015 1.777-.09.285-2.633 2.96-5.65 5.945-4.928 4.876-5.688 5.523-7.47 6.368-1.092.517-2.616 1.07-3.387 1.23-2.026.42-5.231.324-7.064-.21m-6.902-18.397c-1.076-.469-1.962-1.628-1.962-2.566 0-1.058 1.211-2.322 2.514-2.622.582-.135 5.378-.247 10.657-.25 10.43-.008 10.944.055 11.856 1.447 1.02 1.556.06 3.532-1.993 4.102-1.523.423-20.07.325-21.072-.111m7.298-20.682c-.509-.061-2.116-.236-3.571-.39-8.667-.916-16.088-3.686-21.564-8.05-1.383-1.101-3.853-3.258-5.49-4.792-2.98-2.794-3.485-3.608-2.646-4.271.55-.434 7.088-3.153 8.93-3.714 8.55-2.603 15.193-.422 23.145 7.6 2.148 2.165 3.048 2.807 3.048 2.17 0-.265-.832-1.374-3.138-4.181l-1.684-2.049.608-.492.608-.492 2.619 2.793c1.44 1.537 2.753 2.794 2.917 2.794s1.512-1.26 2.994-2.801c2.435-2.531 2.75-2.773 3.252-2.505.305.164.554.383.551.487-.002.104-1.133 1.534-2.513 3.177s-2.51 3.11-2.51 3.26c0 .625.916-.037 3.363-2.434 4.595-4.5 7.258-6.314 11.146-7.595 2.79-.92 7.363-.972 10.515-.122 2.064.556 9.425 3.54 10.1 4.094.854.7.012 1.718-5.178 6.25-7.428 6.489-13.98 9.45-23.845 10.775-2.866.386-10.004.684-11.657.488m-3.068-3.917c1.727-.722 2.174-2.26 1.24-4.262-1.267-2.711-5.631-6.857-8.887-8.44-4.087-1.989-8.611-2.311-13.429-.959-1.542.433-3.29.865-3.882.96s-1.078.258-1.078.362c0 .105 1.22 1.377 2.712 2.827 2.841 2.762 6.218 5.21 9.333 6.767 4.895 2.446 11.571 3.756 13.99 2.745m-4.881-2.033c-2.123-.282-5.757-1.317-7.807-2.224-3.466-1.532-9.71-6.474-8.857-7.008 1.105-.693 4.084-1.13 6.84-1.003 3.25.149 4.948.686 7.453 2.359 2.978 1.989 6.794 6.37 6.571 7.544-.11.58-1.506.69-4.2.332m23.623 2.01c5.952-1.039 11.954-4.232 17.594-9.36 1.543-1.404 2.854-2.696 2.912-2.873.058-.176-.17-.374-.508-.439s-1.329-.244-2.202-.398-2.48-.53-3.572-.836c-1.65-.461-2.518-.537-5.16-.448-2.806.094-3.42.204-5.29.95-5.201 2.07-10.716 7.774-10.716 11.082 0 2.49 2.048 3.175 6.942 2.321m-4.23-1.886c-1.438-.642 2.972-6.21 6.68-8.434 2.65-1.59 4.735-2.086 8.037-1.914 2.748.144 5.325.769 5.325 1.292 0 .32-.226.54-2.381 2.327-3.694 3.062-7.67 5.13-11.734 6.102-2.232.534-5.389.868-5.927.627"/></svg>