<svg xmlns="http://www.w3.org/2000/svg" xml:space="preserve" viewBox="0 0 89.968 83.47"><path d="M114.13 106.966c-1.237-.001-3.678.237-5.424.53s-4.822 1.013-6.834 1.601c-2.013.588-5.316 1.761-7.34 2.607-2.026.845-5.118 2.356-6.872 3.358-1.31.747-3.187 1.983-4.873 3.15q-.075.03-.142.07l.02.014c-.525.366-1.12.757-1.555 1.08-1.848 1.37-4.712 3.811-6.364 5.423a67 67 0 0 0-2.449 2.542 10 10 0 0 1-.497.416 5 5 0 0 0-.705.666c-.281.352-.53.727-.77 1.108-.117.186-.24.372-.35.566-.844 1.157-1.896 2.826-2.435 3.898-.578 1.15-1.241 2.83-1.474 3.734-.326 1.269-.39 2.426-.28 5.082.078 1.892.283 4.095.455 4.895s.843 3.338 1.49 5.64c.647 2.3 1.41 4.775 1.695 5.5.285.723.519 1.496.519 1.717s-.582 1.12-1.292 1.998-1.777 2.568-2.372 3.755c-.595 1.188-1.282 2.993-1.526 4.012-.245 1.019-.44 2.864-.434 4.101.007 1.587.178 2.747.583 3.939.315.93.962 2.298 1.439 3.043.476.744 1.55 1.976 2.385 2.739s2.29 1.818 3.234 2.346 2.334 1.198 3.09 1.488 2.387.751 3.624 1.024c1.823.401 3.075.477 6.614.403 3.819-.081 4.747-.193 7.409-.888 1.673-.437 3.876-1.125 4.895-1.529s3.29-1.413 5.047-2.243 4.734-2.442 6.614-3.58a296 296 0 0 0 6.362-3.98 165 165 0 0 0 5.953-4.098c1.357-.986 3.12-2.334 4.527-3.424l.02-.01q.016-.013.028-.027c.293-.227.712-.53.95-.718a158 158 0 0 0 4.498-3.713c1.09-.947 4.19-3.932 6.884-6.632 3.928-3.935 5.202-5.403 7.747-8.945l.059-.061c.143-.148.27-.308.39-.475.14-.185.268-.377.403-.566.17-.236.326-.482.495-.719l.38-.514c.1-.129.184-.27.26-.417q.06-.107.112-.22c1.383-1.985 2.64-3.823 3.013-4.441.502-.834 1.147-2.273 1.432-3.198.286-.925.52-2.243.52-2.929s-.178-1.846-.395-2.579c-.229-.77-.84-1.836-1.446-2.525-.621-.706-1.592-1.426-2.381-1.765-.733-.315-2.28-.665-3.437-.777s-3.207-.106-4.553.012-2.916.34-3.489.495c-.81.218-1.114.202-1.373-.07-.182-.193-1.326-1.864-2.543-3.712a1541 1541 0 0 1-4.579-7.012c-1.302-2.008-2.89-4.34-3.53-5.183-.64-.844-1.708-2.071-2.374-2.728s-1.698-1.48-2.294-1.828c-.595-.35-1.855-.817-2.799-1.04-.944-.222-2.728-.406-3.965-.407zm-.607 2.673q.633-.009 1.213.018c1.697.08 2.798.279 3.627.657.655.298 1.747 1.037 2.428 1.642.68.606 2.181 2.497 3.334 4.204a153 153 0 0 1 3.723 5.825c.895 1.497 1.628 2.9 1.628 3.117s-.542 1.484-1.203 2.814c-.662 1.329-1.831 3.379-2.598 4.555-.768 1.176-2.356 3.329-3.53 4.784s-3.367 3.843-4.876 5.306c-1.508 1.463-3.695 3.417-4.859 4.343s-3.348 2.497-4.853 3.491-3.708 2.335-4.895 2.98a76 76 0 0 1-4.672 2.275 74 74 0 0 1-5.291 2.026c-1.528.507-3.85 1.16-5.16 1.453-1.743.388-3.621.555-7.011.622-2.547.05-5.139.002-5.76-.108s-1.238-.31-1.37-.446c-.131-.135-.592-1.139-1.022-2.23-.43-1.092-1.206-3.294-1.723-4.895s-1.148-3.923-1.4-5.16c-.263-1.295-.466-3.539-.478-5.291-.018-2.549.084-3.363.624-5.014.356-1.084 1.243-2.864 1.973-3.956.73-1.091 2.523-3.225 3.985-4.743s3.512-3.453 4.557-4.3 3.01-2.306 4.366-3.242a76 76 0 0 1 5.117-3.179c1.458-.812 4.347-2.193 6.42-3.068 2.073-.876 5.404-2.066 7.403-2.644s4.859-1.25 6.357-1.492a28 28 0 0 1 3.946-.344zm17.764 19.153c.192.026.565.332 1.087.894.592.64 1.553 1.875 2.135 2.746s1.248 2.24 1.482 3.044c.351 1.21.37 1.647.106 2.546-.176.597-.69 1.68-1.144 2.408s-1.54 2.276-2.415 3.44-2.666 3.235-3.98 4.603a89 89 0 0 1-5.035 4.764 119 119 0 0 1-5.16 4.16c-1.382 1.034-4.061 2.87-5.953 4.077s-5.225 3.061-7.408 4.12-5.16 2.358-6.615 2.888-4.491 1.441-6.747 2.025c-3.464.897-4.614 1.077-7.408 1.163-1.819.056-3.616 0-3.992-.123s-1.008-.437-1.405-.696c-.397-.26-1.025-1.072-1.395-1.803s-1.078-2.375-1.571-3.653c-.494-1.278-.897-2.369-.897-2.425s1.48-.044 3.288.025c1.858.072 4.408-.014 5.86-.197 1.414-.178 3.966-.664 5.67-1.08 1.705-.417 4.099-1.105 5.32-1.53 1.22-.427 3.469-1.332 4.996-2.012s4.028-1.964 5.556-2.854c1.529-.889 3.494-2.095 4.367-2.68s2.778-2.018 4.233-3.185 3.905-3.378 5.443-4.913c1.54-1.535 3.791-4.041 5.005-5.569s2.706-3.557 3.317-4.51a60 60 0 0 0 2.05-3.5c.516-.974 1.002-1.921 1.08-2.106q.034-.08.13-.067zm.067.093q-.052-.014-.076.015c-.033.041-.517.938-1.075 1.992-4.504 8.514-13.328 17.682-22.374 23.248-5.715 3.517-11.194 5.89-17.127 7.421-4.808 1.24-6.614 1.475-11.382 1.478l-4.218.003.222.618c.492 1.372 1.694 4.28 2.1 5.082.59 1.163 1.345 1.985 2.227 2.422.661.327 1.049.366 3.644.366 3.317 0 4.734-.202 8.717-1.244 3.955-1.034 6.877-2.044 10.163-3.512 8.32-3.718 16.084-8.856 23.183-15.342 4.86-4.44 9.693-10.543 10.61-13.398.37-1.154.166-2.264-.754-4.095-.845-1.681-3.343-4.916-3.86-5.053zm12.939 2.285c2.473 0 2.907.072 3.955.661.647.364 1.421 1.078 1.72 1.588.428.731.54 1.37.53 3.042-.009 1.323-.196 2.663-.5 3.572-.27.8-.944 2.368-1.501 3.484-.12.24-.293.545-.48.865l-.03-.018c-.054.102-.096.21-.144.315a45 45 0 0 1-2.415 3.6c-.548.728-1.546 1.89-2.708 3.173q-.065.066-.132.13c-.14.131-.28.264-.429.387l.054.034c-.833.907-1.708 1.83-2.585 2.727l-.07.033q-.27.131-.525.289a7 7 0 0 0-.623.452c-.215.192-.425.39-.608.614-.179.214-.36.429-.51.665-.088.159-.162.323-.233.49-2.368 2.265-5.175 4.79-6.923 6.198-2.182 1.759-5.345 4.22-7.028 5.47-1.684 1.25-5.017 3.572-7.409 5.161-2.39 1.589-6.074 3.88-8.184 5.093s-5.146 2.834-6.746 3.603c-1.601.768-4.165 1.816-5.697 2.327s-3.675 1.12-4.762 1.355c-1.088.234-3.406.468-5.152.52-1.746.05-3.473.038-3.836-.029a101 101 0 0 1-2.514-.538c-1.019-.229-2.938-.935-4.266-1.57-1.745-.833-2.853-1.585-4-2.715-1.014-.998-1.912-2.22-2.482-3.38l-.894-1.817.003-2.915c.001-2.443.106-3.188.645-4.608.354-.932 1.263-2.625 2.02-3.763l1.377-2.07 1.257 3.235c.691 1.778 1.55 3.829 1.908 4.556.358.728 1.026 1.721 1.483 2.207s1.4 1.174 2.094 1.529c.735.375 2.111.752 3.293.902 1.35.171 3.012.165 4.956-.018 1.609-.15 4.495-.62 6.414-1.04 1.919-.422 4.597-1.147 5.953-1.612a97 97 0 0 0 5.242-2.023 81 81 0 0 0 5.292-2.516c1.382-.737 3.525-1.931 4.762-2.655s3.38-2.095 4.763-3.046c1.382-.952 3.883-2.829 5.556-4.17s4.65-4.096 6.615-6.122 4.425-4.81 5.469-6.186c1.043-1.376 2.353-3.395 2.91-4.486l1.013-1.984v-5.312l-.808-1.63-.808-1.632 1.47-.211c.808-.116 2.72-.211 4.248-.211zm-19.216 37.452q-.004.022-.007.043-.002.096 0 .19c-.051-.018-.092-.057-.092-.114 0-.06.044-.102.098-.119z" style="fill:#000;fill-opacity:1;stroke:#000;stroke-opacity:1" transform="translate(-63.82 -106.466)"/></svg>