<?xml version="1.0" encoding="UTF-8" standalone="no"?>
  <svg
   viewBox="0 0 89.967834 83.470108"
   xml:space="preserve"
   xmlns="http://www.w3.org/2000/svg"
   xmlns:svg="http://www.w3.org/2000/svg"><g
     transform="translate(-63.820486,-106.46556)"><path
       style="fill:#000000;fill-opacity:1;stroke:#000000;stroke-opacity:1"
       d="m 114.12998,106.96556 c -1.23692,-10e-4 -3.67771,0.23742 -5.42395,0.5302 -1.74625,0.29278 -4.82185,1.01337 -6.83421,1.60146 -2.01236,0.58809 -5.315439,1.76106 -7.340639,2.60656 -2.0252,0.8455 -5.117301,2.35656 -6.871415,3.35793 -1.309844,0.74775 -3.187062,1.98353 -4.873088,3.15071 -0.04877,0.0202 -0.09685,0.0423 -0.14211,0.0698 l 0.02119,0.0139 c -0.526018,0.36562 -1.121623,0.75675 -1.555977,1.079 -1.848165,1.37119 -4.711758,3.81197 -6.363953,5.42396 -0.782503,0.76346 -1.652859,1.67513 -2.448429,2.54196 -0.161928,0.14329 -0.326386,0.28356 -0.497644,0.416 -0.251386,0.2043 -0.495669,0.41726 -0.704867,0.66611 -0.280944,0.35227 -0.530409,0.72649 -0.769979,1.10794 -0.116727,0.18633 -0.240683,0.3724 -0.349332,0.56586 -0.844252,1.15665 -1.896769,2.82594 -2.436027,3.89847 -0.577883,1.14936 -1.240952,2.82922 -1.473295,3.7331 -0.326264,1.26925 -0.39025,2.42643 -0.280603,5.0829 0.07808,1.89177 0.282922,4.09443 0.455269,4.89479 0.172347,0.80036 0.842911,3.33787 1.489832,5.63893 0.646921,2.30106 1.409658,4.77604 1.694986,5.49992 0.28533,0.72389 0.518832,1.49719 0.518832,1.71825 0,0.22106 -0.581298,1.11969 -1.291394,1.99729 -0.710096,0.8776 -1.777613,2.56793 -2.372465,3.75584 -0.594853,1.1879 -1.281491,2.99301 -1.526005,4.01164 -0.244513,1.01865 -0.439882,2.86412 -0.434082,4.10105 0.0074,1.58666 0.17881,2.74662 0.58291,3.93877 0.315025,0.92938 0.962698,2.2986 1.439189,3.04271 0.476489,0.74411 1.549774,1.97684 2.384867,2.73937 0.835092,0.76253 2.290557,1.81826 3.234428,2.34611 0.94387,0.52784 2.334391,1.19768 3.09025,1.48828 0.75586,0.2906 2.386626,0.75088 3.623552,1.02319 1.823531,0.40182 3.074787,0.47788 6.614583,0.40308 3.818373,-0.0807 4.747043,-0.19241 7.408334,-0.8878 1.673488,-0.43728 3.876146,-1.12504 4.894791,-1.52859 1.018645,-0.40356 3.289731,-1.41304 5.047231,-2.24327 1.75752,-0.83023 4.73409,-2.4415 6.61459,-3.58066 1.88049,-1.13916 4.74323,-2.92993 6.36137,-3.97961 1.61814,-1.04968 4.29704,-2.89367 5.95312,-4.09742 1.3571,-0.98643 3.11961,-2.33399 4.52737,-3.4246 0.007,-0.003 0.0136,-0.007 0.0207,-0.01 0.0113,-0.008 0.0178,-0.0179 0.0274,-0.0264 0.29294,-0.22713 0.71173,-0.53016 0.9493,-0.7183 1.38245,-1.09481 3.40651,-2.76573 4.49791,-3.71295 1.0914,-0.94723 4.18958,-3.93168 6.88486,-6.63216 3.92752,-3.93511 5.20134,-5.40321 7.74629,-8.94467 0.0197,-0.0205 0.0397,-0.0405 0.0589,-0.0615 0.14319,-0.148 0.27054,-0.30797 0.39119,-0.47439 0.13861,-0.18537 0.26752,-0.37754 0.40205,-0.56585 0.17031,-0.23638 0.32573,-0.48234 0.49506,-0.71934 0.12617,-0.17171 0.25414,-0.34211 0.37982,-0.51418 0.10122,-0.12889 0.18475,-0.27089 0.25941,-0.41651 0.0411,-0.0718 0.078,-0.14587 0.11318,-0.22066 1.38282,-1.98504 2.64015,-3.8225 3.01273,-4.44107 0.50228,-0.83388 1.14672,-2.27291 1.43247,-3.19774 0.28576,-0.92484 0.51987,-2.24264 0.51987,-2.9285 0,-0.68587 -0.17823,-1.84641 -0.39584,-2.57917 -0.22853,-0.76955 -0.83914,-1.83618 -1.44539,-2.52491 -0.62147,-0.70603 -1.59253,-1.42598 -2.38125,-1.76527 -0.73263,-0.31517 -2.27939,-0.66479 -3.437,-0.7767 -1.15761,-0.1119 -3.20638,-0.10675 -4.5527,0.0114 -1.34632,0.11812 -2.91604,0.34086 -3.48867,0.49506 -0.80972,0.21808 -1.11494,0.20254 -1.37305,-0.0703 -0.18253,-0.19293 -1.32684,-1.86344 -2.54299,-3.71192 -1.21615,-1.84848 -3.27694,-5.00363 -4.57905,-7.01146 -1.30211,-2.00781 -2.89087,-4.34025 -3.53054,-5.18366 -0.63967,-0.84342 -1.70751,-2.07092 -2.37349,-2.72748 -0.66598,-0.65656 -1.69827,-1.47923 -2.29392,-1.82831 -0.59566,-0.34908 -1.8554,-0.81675 -2.79931,-1.03922 -0.94392,-0.22247 -2.72821,-0.40621 -3.96514,-0.40721 z m -0.60719,2.67374 c 0.42141,-0.006 0.82843,1.6e-4 1.21336,0.0181 1.6971,0.079 2.79777,0.27841 3.62717,0.65629 0.65485,0.29835 1.74717,1.03756 2.42776,1.64279 0.6806,0.60523 2.18087,2.49702 3.33364,4.20388 1.15277,1.70685 2.82814,4.32774 3.72329,5.82445 0.89515,1.49672 1.62781,2.89971 1.62781,3.11764 0,0.21792 -0.54146,1.48396 -1.20303,2.81327 -0.66157,1.3293 -1.83087,3.37911 -2.59829,4.55527 -0.76742,1.17616 -2.35547,3.329 -3.52898,4.78421 -1.17351,1.45521 -3.36773,3.84282 -4.87619,5.30562 -1.50846,1.46281 -3.69498,3.41694 -4.85914,4.34288 -1.16417,0.92594 -3.34844,2.49747 -4.85345,3.49178 -1.50502,0.9943 -3.70767,2.3347 -4.89479,2.97915 -1.18712,0.64445 -3.289102,1.66871 -4.671549,2.27583 -1.382446,0.60711 -3.763699,1.51861 -5.291666,2.02571 -1.527967,0.5071 -3.84969,1.16075 -5.159375,1.45263 -1.743436,0.38856 -3.621446,0.55528 -7.011459,0.62218 -2.546612,0.0503 -5.138501,0.002 -5.759855,-0.108 -0.621354,-0.10976 -1.237664,-0.31062 -1.369425,-0.44597 -0.131762,-0.13536 -0.592166,-1.13895 -1.022677,-2.23035 -0.430512,-1.09141 -1.205783,-3.29407 -1.723409,-4.8948 -0.517626,-1.60071 -1.147318,-3.92244 -1.398881,-5.15937 -0.263416,-1.2952 -0.466254,-3.53933 -0.478524,-5.29167 -0.01784,-2.5485 0.08361,-3.36271 0.624252,-5.01364 0.355139,-1.08447 1.242227,-2.86401 1.972489,-3.95584 0.730007,-1.09145 2.52318,-3.22573 3.98477,-4.74338 1.461588,-1.51763 3.51256,-3.45279 4.557344,-4.29999 1.044785,-0.8472 3.009319,-2.30603 4.365625,-3.24218 1.356307,-0.93616 3.658795,-2.36672 5.117001,-3.17862 1.458204,-0.81191 4.347277,-2.19284 6.420279,-3.06854 2.073002,-0.87572 5.40459,-2.06527 7.40317,-2.64377 1.99857,-0.57849 4.85899,-1.24968 6.35671,-1.49138 1.29078,-0.20827 2.68179,-0.32765 3.94602,-0.34417 z m 17.76429,19.15232 c 0.19223,0.0264 0.56539,0.33202 1.08675,0.89452 0.59251,0.63926 1.55318,1.87518 2.13476,2.74609 0.58157,0.87092 1.24855,2.24043 1.48208,3.04374 0.35159,1.20944 0.36958,1.64737 0.10593,2.5461 -0.17511,0.59694 -0.68973,1.68051 -1.1436,2.40812 -0.45388,0.7276 -1.54072,2.27542 -2.41535,3.43958 -0.87463,1.16417 -2.66537,3.2356 -3.97961,4.60334 -1.31423,1.36774 -3.58014,3.51173 -5.03535,4.76405 -1.45521,1.25233 -3.77692,3.12377 -5.15937,4.15892 -1.38245,1.03514 -4.06136,2.87025 -5.95313,4.07778 -1.89177,1.20754 -5.22551,3.06145 -7.40833,4.12017 -2.18281,1.05873 -5.159377,2.35846 -6.614584,2.88819 -1.455206,0.52974 -4.491304,1.4408 -6.746875,2.02469 -3.464521,0.89683 -4.614364,1.07743 -7.408333,1.16323 -1.819008,0.0558 -3.615626,3.7e-4 -3.992005,-0.12299 -0.376378,-0.12336 -1.008451,-0.43671 -1.405082,-0.6966 -0.396631,-0.25988 -1.024633,-1.07106 -1.395263,-1.80247 -0.370631,-0.7314 -1.077497,-2.37526 -1.570964,-3.65301 -0.493467,-1.27775 -0.897103,-2.36876 -0.897103,-2.42466 0,-0.0559 1.47989,-0.0449 3.288688,0.0248 1.8573,0.0716 4.407647,-0.0141 5.859591,-0.19689 1.414028,-0.17799 3.965685,-0.66426 5.670455,-1.08055 1.70477,-0.41629 4.098401,-1.10487 5.319055,-1.53066 1.220653,-0.42578 3.469163,-1.33099 4.99659,-2.01125 1.52743,-0.68025 4.02776,-1.96427 5.55625,-2.85357 1.5285,-0.88931 3.49353,-2.09566 4.36666,-2.68045 0.87312,-0.58479 2.77813,-2.01794 4.23334,-3.18482 1.4552,-1.16689 3.90438,-3.37771 5.44307,-4.91288 1.5387,-1.53516 3.79084,-4.0412 5.00435,-5.56917 1.21351,-1.52797 2.7062,-3.5571 3.31711,-4.50929 0.61091,-0.95217 1.5334,-2.52759 2.05,-3.50107 0.5166,-0.97349 1.00243,-1.92092 1.07953,-2.1053 0.0226,-0.0541 0.0667,-0.0765 0.13074,-0.0677 z m 0.0667,0.0935 c -0.0345,-0.009 -0.0601,-0.005 -0.076,0.015 -0.0329,0.0411 -0.51643,0.93758 -1.07436,1.99213 -4.50415,8.51337 -13.32795,17.68167 -22.37486,23.24819 -5.71462,3.51618 -11.193642,5.89001 -17.126603,7.42074 -4.808363,1.24057 -6.6138,1.47522 -11.382251,1.47794 l -4.217313,0.003 0.221691,0.61753 c 0.492064,1.37245 1.693489,4.28041 2.099614,5.08186 0.589462,1.16325 1.345762,1.98549 2.227771,2.42208 0.660484,0.32693 1.048198,0.36626 3.643705,0.36638 3.317173,1.6e-4 4.733489,-0.20216 8.717298,-1.24385 3.954754,-1.03409 6.876464,-2.04362 10.162168,-3.51193 8.3205,-3.71824 16.08452,-8.85639 23.18308,-15.3417 4.8598,-4.43995 9.69306,-10.54332 10.61021,-13.39866 0.37057,-1.15371 0.16647,-2.26408 -0.75396,-4.09485 -0.84529,-1.6813 -3.34289,-4.91551 -3.86023,-5.05343 z m 12.93874,2.28461 c 2.47305,0 2.90748,0.0726 3.95532,0.66146 0.64741,0.3638 1.42131,1.07818 1.71979,1.5875 0.42886,0.73179 0.53968,1.37005 0.52968,3.04271 -0.008,1.3224 -0.19561,2.66272 -0.50022,3.57187 -0.26817,0.80037 -0.94306,2.36798 -1.50017,3.48351 -0.12012,0.24051 -0.2931,0.54572 -0.47904,0.86506 l -0.0315,-0.0181 c -0.0538,0.10238 -0.0953,0.21024 -0.14366,0.31522 -0.67224,1.12168 -1.60332,2.52098 -2.41484,3.6003 -0.54741,0.72804 -1.54544,1.88885 -2.70837,3.17293 -0.0436,0.0434 -0.0863,0.0876 -0.13125,0.12971 -0.14101,0.13127 -0.281,0.264 -0.42892,0.38758 l 0.0537,0.0331 c -0.833,0.90785 -1.70826,1.82953 -2.58485,2.72748 -0.0234,0.0108 -0.0466,0.0223 -0.0703,0.0326 -0.1796,0.0877 -0.35481,0.18471 -0.52503,0.28938 -0.21402,0.14101 -0.42671,0.28608 -0.6227,0.45166 -0.215,0.1921 -0.42468,0.39088 -0.60824,0.61391 -0.17889,0.21464 -0.36013,0.429 -0.51056,0.66508 -0.0872,0.15919 -0.16161,0.32367 -0.23254,0.49041 -2.3682,2.26463 -5.17464,4.78903 -6.92309,6.19807 -2.18202,1.75844 -5.3446,4.21958 -7.028,5.46943 -1.6834,1.24985 -5.01715,3.57258 -7.40833,5.16144 -2.39119,1.58886 -6.07395,3.8807 -8.184,5.09323 -2.11006,1.21252 -5.14615,2.83367 -6.74687,3.60237 -1.600729,0.76871 -4.16418,1.81601 -5.696297,2.32699 -1.532115,0.51097 -3.675244,1.12048 -4.7625,1.35495 -1.087257,0.23448 -3.405375,0.46847 -5.151623,0.51987 -1.746249,0.0514 -3.472657,0.0387 -3.836459,-0.0284 -0.363801,-0.0671 -1.494896,-0.30922 -2.513541,-0.53796 -1.018645,-0.22873 -2.938406,-0.93511 -4.26589,-1.56941 -1.745313,-0.83395 -2.852871,-1.58588 -4.000789,-2.71611 -1.013103,-0.9975 -1.911139,-2.22018 -2.481503,-3.37964 l -0.893485,-1.81694 0.0021,-2.91455 c 0.0017,-2.44321 0.106037,-3.18843 0.645439,-4.60851 0.353909,-0.93173 1.262731,-2.62512 2.020031,-3.76308 l 1.377177,-2.06912 1.256771,3.23391 c 0.691141,1.77865 1.549615,3.82922 1.907894,4.55683 0.358278,0.7276 1.026002,1.72065 1.48363,2.20658 0.457628,0.48594 1.399757,1.17384 2.093929,1.52859 0.734504,0.37537 2.111032,0.75244 3.292823,0.90227 1.349429,0.17114 3.01219,0.16519 4.955769,-0.0176 1.608665,-0.15126 4.494596,-0.61962 6.413562,-1.04076 1.918968,-0.42114 4.597877,-1.1463 5.953125,-1.61127 1.355249,-0.46497 3.714607,-1.37521 5.242567,-2.02314 1.52797,-0.64793 3.90922,-1.78044 5.29167,-2.51664 1.38244,-0.73621 3.52557,-1.93089 4.7625,-2.65462 1.23692,-0.72374 3.38005,-2.09439 4.7625,-3.04632 1.38244,-0.95192 3.88276,-2.82825 5.55625,-4.16926 1.67348,-1.34101 4.65006,-4.09581 6.61458,-6.1221 1.96453,-2.02629 4.42557,-4.81025 5.46892,-6.18619 1.04335,-1.37594 2.35304,-3.39462 2.91042,-4.48603 l 1.01337,-1.98438 v -2.65565 -2.65565 l -0.80873,-1.63091 -0.80822,-1.63142 1.46968,-0.21136 c 0.80848,-0.11606 2.72035,-0.21084 4.24831,-0.21084 z m -19.21588,37.4525 c -0.002,0.0143 -0.006,0.0282 -0.007,0.0429 -0.002,0.0636 -6.7e-4,0.12711 -5.2e-4,0.19068 -0.0506,-0.0186 -0.0915,-0.0583 -0.0915,-0.11524 0,-0.0597 0.0441,-0.10202 0.0987,-0.11833 z" /></g></svg>
