<svg xmlns="http://www.w3.org/2000/svg" xmlns:ffdec="https://www.free-decompiler.com/flash" ffdec:objectType="shape" width="63.2" height="35.05"><path d="m61.65 12.5-.25-.5q-3.65-2.15-7.7-1.8-3.9.35-7.4 2.9-1.15.8-1.6 1.5l-5.75-2.7q-2.4-1.1-5.65.75-2.6 1.5-4.45 3.9-2 2.6-2.1 6-.1 3.35 1.65 6.1.85 1.35 3.85 3-3.5 1.7-6.9 1.9-3.75.25-6.95-1.4-2.5-1.3-4.55-4.35l1.2-.55q2.9-1.25 3.3-7.8.2-3.4-1.2-6.35-1.55-3.25-4.4-4.55-1.4-.65-5.15.55-.25-5.95 2-4.8 2.35 1.25 4.35 1.5l4.55-.5q2-.55 4.2-1.75l3.85-2.35q1.6-.95 3.9 1.7l3.2 3.9q6.9 5.2 11.85 3.1 4.6-1.95 9.1-1.55 4.65.45 8.1 3.2zM42.8 17.75q-.35 1-.45 2.35l-.15 3.25 1.1-3.2.5-2.3q.1-1-.3-1.05-.35 0-.7.95m4.95 3.5q-.85.3-2 1.05l-2.55 1.9q.25-.15 2.85-.95 1.2-.4 2-1 .8-.55.7-.9zm-.1-3.4q1.5 1.7 2.1 4.25.5 4.55-2.1 8.15-2.8 3.85-7.4 3.65-2.45-.1-4.2-2.05-1.5-1.7-2.05-4.2-1-4.35 2.05-8.15 3.05-3.85 7.45-3.7 2.4.1 4.15 2.05m-.85 10.5-1.5-1.3-2.45-1.35 1.75 2.25q.8.9 1.55 1.35l.95.1q.25-.35-.3-1.05m-5.25-1.95-1.1 3.15q-.45 1.35-.5 2.35-.05.95.3 1l.65-.95.5-2.35zM25.1 4.35q-3 4.95-3.95 11-.95 5.9.2 11.65.1.35.65-.1l.55-.75q-1.1-5.6-.3-11.25.9-5.95 3.75-10.65.35-.6-.15-.4-.5.15-.75.5m12.5 16.1-1-.1q-.25.35.3 1 .55.7 1.55 1.3l2.4 1.35-1.75-2.25zm-3.4.65q-1.85 3.5-1.35 7.4.05 1 .45 1.9-2.9-1.85-4.05-3.55-1.55-2.35-1.3-5.8.35-4.3 4.05-6.7t7.5-.6l2.3 1.05q-1.45.4-2.3.9-3.5 2-5.3 5.4M10.1 9.7q2.6-.6 4.6 2.2 1.5 2 2.2 5.05.7 2.95.15 5.65-.7 3.2-3.05 4.25l-3.65 1.6q1.35-1.6 2-3.65 1.15-3.6.1-7.7-1.15-4.25-4-6.55l-.5-.35zm-1.4 7.95L7.2 19.4l1.85-.75q.75-.35 1.2-.85.45-.55.35-.95l-.7-.1zM6.65 15.3q.3-3.2-.35-3.4-.55-.1-.3 3.3l.4 3.25zM3.7 17.5l1.9 1.55-1.55-2.4L2.8 15.2q-.6-.5-.7-.15t.35 1.05zm.4 4.85 1.5-1.75-1.85.75q-.75.35-1.2.9-.45.5-.35.9t.7.15zm2.05 2.35v2.35q.1 1 .35 1.05.6.15.3-3.25l-.4-3.3zm2.6-1.35 1.25 1.5q.6.45.7.15.1-.35-.35-1.1L9.1 22.5l-1.9-1.55zm-7.2-8.65q1.5-4.6 4.5-3.6 2.6.8 4.3 4.35 1.9 3.9 1.1 9.05-.8 5.25-4.2 4.45-3-.7-4.8-4.4-2.1-4.4-.9-9.85m34.1 12.75q-.75.55-.7.95l1 .1q.9-.3 2-1.1l2.6-1.85-2.85.9q-1.2.4-2.05 1"/></svg>