<svg xmlns="http://www.w3.org/2000/svg" xmlns:ffdec="https://www.free-decompiler.com/flash" ffdec:objectType="shape" width="55.25" height="25.35"><path d="m46.45 10.85-.3-.8V9.9q0-2.15-3.3-3.8-2.4-1.15-5.25-1.6L21.95 2.05l-6.9-.9-6.95.25q-3.2.7-5.3 4.15Q1.15 8.35.55 12.2v1q-.05.35-.25.1l.25.35q1.25 1.45 2.55 1.9 3.3 1.3 8.35-.4l3.9-1.35q2.15-1 3.4-2.25l1.5-1.3q.95-.4 1.55.6l2.15 3.8q1.25 2.05 2.95 3.15 3.6 2.3 7.9 3.15 9.75 2.05 11.45-4.9l.15-.1q2.75 2.15 4.75 4.55 2.95 3.2 2.7 3.6l.65-1.35q.4-.7.6-.15-3.25-9.9-8.65-11.75M.1 13.45q-.3-1.3.2-3.35Q2.6.5 9.35.05L18.4.4l8.95 1.35L36.4 3.2q5.25.8 7.6 2.75 2.15 1.7 2.5 3.85 2.7 1 4.85 4.05 1.45 2.05 3 5.7.9 2.15.9 2.95 0 .9-1.05 2.8-.05.15-.2-.1-2.15-3.25-5.05-6l-1.3-1.35-1.15-.05q-2.25 6.65-12.15 4.15-6.25-1.5-9.2-4.6-1.35-1.45-2.05-2.7-.75-1.9-1.3-2.6-.95-1.2-2.3.2-2.45 2.55-7.75 4.1l-4.2.95q-2.55.25-4.25-.6-2.35-1.15-3-2.65l-.15-.5zm17-4.5q1.9-3.1-1.7-4.4-5.05-1.9-7.35-.85-1.9.9-2.9 3-.9 1.9-.95 4.2-.1 4.05 3.8 3.5 2.25-.4 4.8-1.55 2.85-1.55 4.3-3.9m-3.15-6.1q3.2 1.1 4.2 3.45.9 2.15-1.1 4.6-1.5 1.8-3.95 3.1-3.45 1.6-5.8 1.55-3.3-.1-3.55-3.6-.2-3.15.7-5.7 1.2-3.4 3.85-3.85 2.75-.5 5.65.45"/><path d="M46.45 10.85q5.4 1.85 8.65 11.75-.2-.55-.6.15l-.65 1.35q.25-.4-2.7-3.6-2-2.4-4.75-4.55l-.15.1q-1.7 6.95-11.45 4.9-4.3-.85-7.9-3.15-1.7-1.1-2.95-3.15l-2.15-3.8q-.6-1-1.55-.6l-1.5 1.3q-1.25 1.25-3.4 2.25l-3.9 1.35q-5.05 1.7-8.35.4-1.3-.45-2.55-1.9L.3 13.3q.2.25.25-.1v-1q.6-3.85 2.25-6.65Q4.9 2.1 8.1 1.4l6.95-.25 6.9.9L37.6 4.5q2.85.45 5.25 1.6 3.3 1.65 3.3 3.8v.15zM.1 13.45l.05.1-.05-.05zM36.4 6.2q-.95-.5-2.9-.85-5.4-.85-7.4 1.15-1.75 1.8-.8 4.75.85 2.6 3.4 5 2.5 2.35 5.05 2.95 2.85.7 4.25-1.35 1.25-2.3 1.45-4.75.25-2.8-.9-4.8-.85-1.4-2.15-2.1M13.95 2.85q-2.9-.95-5.65-.45-2.65.45-3.85 3.85-.9 2.55-.7 5.7.25 3.5 3.55 3.6 2.35.05 5.8-1.55 2.45-1.3 3.95-3.1 2-2.45 1.1-4.6-1-2.35-4.2-3.45"/><path d="M38.4 9.05Q37.65 7.3 36.15 7l-5.2-.8q-3.45-.05-4.75 1.75-1.1 1.55-.05 3.9 1 2.15 3.25 4.05 2.3 1.85 4.5 2.25 2.45.4 3.7-1.4 1.3-2.4 1.35-4.6.1-1.65-.55-3.1m-2-2.85q1.3.7 2.15 2.1 1.15 2 .9 4.8-.2 2.45-1.45 4.75-1.4 2.05-4.25 1.35-2.55-.6-5.05-2.95-2.55-2.4-3.4-5-.95-2.95.8-4.75 2-2 7.4-1.15 1.95.35 2.9.85"/></svg>