<svg xmlns="http://www.w3.org/2000/svg" xml:space="preserve" width="308.006" height="314.796" viewBox="0 0 81.493 83.29"><path d="M41.752.009C33.767.186 25.97 3.278 19.72 8.188c-4.264 3.385-7.69 7.857-9.606 12.97-1.06 2.539-1.875 5.198-2.344 7.902.233.98 1.453.646 2.187.749 1.455.07 2.916.04 4.36-.17.1-2.071.738-4.013 1.246-6.038 1.236-4.413 3.37-8.65 6.55-11.953 5.02-5.401 12.008-8.716 19.194-9.78 3.403-.48 7.028-.423 10.515.051.467-.193 1.71-.265.689-.688-.832-.66-1.99-.534-2.982-.776a50 50 0 0 0-7.777-.446m3.514 4.23c-8.462.373-16.878 4.151-22.341 10.7-2.763 3.391-4.33 7.58-5.193 11.828-.228 1.006-.357 2.03-.507 3.05q10.595.08 21.191.16c2.574 1.231 5.348 2.835 6.355 5.68 1.153 3.042.843 6.85-1.52 9.246-1.981 2.123-4.722 3.321-7.348 4.256-5.576 1.977-11.415 2.788-17.301 3.188-.786.217-.518 1.166-.17 1.658.712 1.936 1.76 4.142 3.905 4.781 2.178.744 4.493.12 6.71-.075 6.075-.867 12.09-2.692 17.37-5.865 3.817-2.373 7.1-6.016 8.052-10.51.514-1.972.88-4.078.342-6.085-.781-.834-1.902-1.233-2.66-2.1-2.535-2.379-3.47-6.374-1.958-9.555 1.314-3.01 4.403-5.284 7.75-5.199 1.706-.088 3.494.302 4.917 1.362 2.367 1.524 3.836 4.267 3.838 7.077.145 3.046-1.492 6.202-4.327 7.485-1.397.701-2.948.995-4.482 1.221.008 3.723-.404 7.503-2.264 10.824-3.035 5.497-8.815 8.91-14.483 10.99-4.993 1.868-10.236 3.071-15.542 3.405-2.368.104-5.06.002-6.832-1.8-2.588-2.417-3.453-5.973-4.944-9.06-.936-1.942-2.651-3.641-4.86-3.956-2.103-.379-4.257-.012-6.333.337-.356.2-1.84.38-.812.608 1.491.669 3.191.587 4.7 1.22.733.273 1.755.783 1.866 1.748.513 3.763.757 7.563 1.277 11.328.874 6.572 2.025 13.154 4.18 19.44.108.686.442.994 1.123.73 14.899-1.807 29.369-6.49 42.83-13.064 6.53-3.247 12.891-6.917 18.655-11.406 1.54-1.296 3.234-2.582 4.154-4.416.74-1.859.656-3.908.82-5.87.15-4.563.064-9.141-.327-13.69-.872-7.925-4.285-15.47-9.283-21.645-.468-.186-1.403-.993-.969.021.095.968.955 1.603 1.39 2.43 2.906 4.289 4.767 9.285 5.52 14.351.455 3.097.58 6.19.262 9.313-.158 1.035-1.074 1.933-2.168 1.779-1 .006-2.339-.652-2.21-1.81.431-.85 1.465-1.477 1.275-2.569.177-6.541-.914-13.356-4.534-18.929-2.998-4.76-7.514-8.576-12.803-10.544C53.68 4.76 49.451 4.09 45.266 4.24m-5.953 8.936c1.908.256 2.038 3.456.21 3.95-1.652.438-3.158-1.782-2.056-3.12a2.05 2.05 0 0 1 1.846-.83m18.775 9.139c-3.348.136-6.197 3.823-5.056 7.076.692 2.218 2.836 4.095 5.248 3.894 1.73.09 3.384-.83 4.378-2.221 1.242-1.494 1.463-3.705.544-5.417-.913-1.933-2.913-3.445-5.114-3.332m-44.072 10.96c-.597-.042-1.495-.03-1.53.768-.074 3.34-.232 6.714-1.136 9.973 1.651.862 3.102 2.044 4.408 3.363.03-4.407.294-8.813.41-13.215-.163-1.024-1.388-.898-2.152-.888m5.373.762c-.092 3.482-.268 6.964-.257 10.446.07 1.213.146 2.477.573 3.615.654.856 1.761.39 2.635.366 5.227-.601 10.411-1.85 15.248-3.94 2.135-.965 4.13-2.695 4.592-5.094.524-2.184-.761-4.653-2.934-5.33-1.777-.636-3.7-.302-5.544-.435-4.765-.077-9.53-.1-14.296-.143zm-11.766 8.55c-.609.247-.681 1.23.06 1.339.745.059 1.017-.825.635-1.364-.09-.656-.356-.127-.695.024M.006 52.24c-.066 10.432 1.888 20.816 5.3 30.655.055.747.966.185 1.448.276 1.278-.097 2.557-.196 3.82-.423-1.94-6.055-3.774-12.21-4.51-18.533-.545-4.102-.864-8.23-1.38-12.334-1.562-.046-3.121-.17-4.684-.191zm12.467 2.49c1.339.337 1.55 1.952 1.6 3.114.058 1.206.352 2.634-.44 3.662-.526.616-1.599.838-2.113.084-1.135-1.29-1.21-3.165-1.075-4.795.165-1.001.824-2.252 2.028-2.064"/></svg>