<svg xmlns="http://www.w3.org/2000/svg" xmlns:ffdec="https://www.free-decompiler.com/flash" ffdec:objectType="shape" width="67.55" height="62.55"><path d="M11.4 10.75q2.95-2.9 6.9-5.15Q28.7-.3 39.8 1.55q8.75 1.8 15.3 7.75 6.4 5.75 9.4 14.3 2.95 8.35 1.5 18.6-1.5 10.2-6.8 17.55.85-2.6.55-4.85-.3-2.6-2.1-4.2-.95-.85-3.3-1.2-2.45-.35-3.4-1.15T49.9 45.6l.15-3.05Q50.2 39 49.7 37q-.7-2.95-2.95-4.55-1.2-.85-3.2-1.35l-3.4-.65-9.7-1.65-15.65-1.2q-2.5.1-4.25 1.1-1.55.85-3.4 2.9Q5.05 34 4.2 37q-.7 2.45-.75 6.15l-.3 3.25-.25 3.25.45 3.8Q2.6 51.5 2.1 48.3l-.55-4.45Q.1 33.25 4 22.25q1.25-3.45 3.15-6.35l3.5-4.35zM43.25 27.4 38 26.45 25.1 24.3l-7.5-.9q-4.9-.25-7.25 1.45-.45.35-.45.75l.6-.05q2-1.45 6.7-1.1l7 1 16.55 2.85q4.9 1 6.8 2.05 3.15 1.75 3.9 5.6.25 1.25 0 5.35-.25 3.45.6 5.2l.25.15q2.6 0 4.5.8 2.4 1 3.05 3.05l.7-.1.5-.8q-.95-2.85-5.3-3.8l-2.45-.55q-.55-.35-.6-2.35.25-5.3-.15-7.9-.65-4.55-4.2-6.1-2-.9-5.1-1.5"/></svg>