<svg xmlns="http://www.w3.org/2000/svg" xml:space="preserve" width="383" height="217.993" viewBox="0 0 101.335 57.677"><path d="M63.984.005c-.256-.058-.652.349-1.81 1.667-4.077 4.642-10.34 10.537-11.195 10.537-.6 0-3.883-2.887-8.772-7.712C39.07 1.401 37.383-.089 37.25.119c-.444.7-.325 3.28.212 4.564.677 1.62.49 2.894-.652 4.428-1.482 1.991-3.208 4.814-3.208 5.247 0 .322 4.512 13.344 5.328 15.38.161.4.367.724.459.72.136-.006 3.593-2.665 10.51-8.083.45-.353.937-.641 1.083-.641s.912.565 1.703 1.256c.79.691 2.994 2.473 4.895 3.96 1.902 1.486 3.61 2.885 3.795 3.108.63.76 1.018.41 1.678-1.511 2.922-8.505 4.68-13.863 4.68-14.265 0-.262-.877-1.775-1.949-3.362-2.28-3.374-2.516-4.19-1.762-6.102.607-1.54.707-3.916.195-4.617-.078-.106-.147-.176-.233-.196m6.253 16.438c-.043 0-1.294 3.661-2.78 8.135-2.567 7.731-6.466 18.68-8.598 24.144a304 304 0 0 0-2.116 5.65l-1.136 3.137 3.219-.17c8.568-.45 16.837-1.212 22.021-2.03l1.87-.294.812-2.684c.447-1.476 1.727-5.72 2.844-9.43s2.857-9.44 3.866-12.733c1.01-3.292 1.836-6.104 1.836-6.249s-.744-.47-1.654-.723c-2.186-.609-14.184-4.584-17.494-5.797-1.436-.526-2.647-.956-2.69-.956m-39.528.187c-.452.074-1.39.368-2.42.768-3.22 1.254-17.877 6.188-18.38 6.188-.21 0-.384.125-.384.277 0 .284 8.519 28.817 9.056 30.332.177.5.534.902.879.988 2.297.577 15.437 1.862 21.418 2.094 4.137.161 5.16.17 5.16.044 0-.072-1.116-2.9-2.478-6.284-2.74-6.805-4.69-12.124-9.29-25.334-1.697-4.875-3.177-8.956-3.287-9.07-.027-.028-.124-.03-.274-.003zm64.554 7.86c-.197.07-.337.374-.5 1.024-.16.632-1.314 4.475-2.567 8.54-2.243 7.28-5.94 19.903-5.941 20.29-.001.257-.208.281 2.947-.35 3.533-.709 7.918-2.14 9.697-3.165 2.528-1.458 2.434-.954 2.435-13.048l.001-10.544-.86-.853c-.634-.63-1.344-.973-2.711-1.308a88 88 0 0 1-2.282-.583.33.33 0 0 0-.22-.003m-89.048.155c-.716 0-3.938.834-4.656 1.205C-.029 26.67 0 26.455 0 37.676 0 45.75.077 48.13.36 48.81c.922 2.205 4.124 3.573 13.001 5.554.292.065.87.132 1.286.149.696.028.742-.027.575-.697-.46-1.853-3.821-13.3-5.69-19.38a977 977 0 0 1-2.515-8.269c-.259-.895-.589-1.521-.802-1.521m44.609.529c-.128 0-.582.327-1.01.727-.756.71-.785.83-1.099 4.697-.424 5.227-1.566 16.054-1.87 17.727-.218 1.196-.125 1.69.966 5.16.663 2.11 1.26 3.93 1.327 4.046s.853.175 1.748.132l1.628-.078 1.153-3.836 1.153-3.837-.312-2.778c-.72-6.419-1.06-9.956-1.448-15.081l-.41-5.424-.797-.728c-.438-.4-.901-.727-1.03-.727m3.976 3.175c-.135 0-.194.446-.13.992.3 2.584 1.686 16.472 1.686 16.893 0 .293.092.38.239.225.234-.247 4.788-12.68 4.788-13.073 0-.254-6.252-5.037-6.583-5.037m-7.929.07q-.066-.016-.174.026c-.731.28-6.48 4.737-6.48 5.023 0 .16.295 1.068.655 2.018s1.4 3.865 2.309 6.478c1.427 4.103 1.678 4.644 1.84 3.968.102-.43.554-4.175 1.004-8.323.449-4.147.868-7.938.93-8.423.067-.51.05-.734-.084-.767m-26.846 3.237c.307.034.65.26 1.13.726 1.414 1.376 18.689 19.833 19.35 20.674.58.74.584.775.105 1.125-.272.199-.616.362-.765.362-.621 0-19.006-19.251-20.716-21.692-.43-.615-.283-.902.597-1.166a.7.7 0 0 1 .299-.029m61.556.137c.86.006 1.335.39 1.066.864-.473.832-7.94 8.78-18.88 20.097-1.783 1.845-2.177 2.029-3.006 1.4-.62-.468-.467-.703 2.377-3.674 1.135-1.185 3.02-3.168 4.19-4.407 11.115-11.777 13.618-14.284 14.253-14.28"/></svg>