<?xml version="1.0" encoding="UTF-8" standalone="no"?>
<svg
   width="35.656219mm"
   height="28.042734mm"
   viewBox="0 0 35.656219 28.042734"
   version="1.1"
   xml:space="preserve"
   xmlns="http://www.w3.org/2000/svg"
   xmlns:svg="http://www.w3.org/2000/svg"><defs
     id="defs1"><rect
       x="223.47206"
       y="332.80283"
       width="169.244"
       height="115.8906"/></defs><path
     style="font-size:133.333px;line-height:0.9;font-family:Futura-CondensedBold;-inkscape-font-specification:Futura-CondensedBold;text-align:center;writing-mode:lr-tb;direction:ltr;text-anchor:middle;white-space:pre;shape-inside:url(#rect2);fill:#000000;stroke-width:0.264583"
     d="M 9.3358625,0 C 8.1185993,0 6.9705722,0.25281466 5.8911119,0.75809474 4.8116516,1.2633748 3.823708,2.0324392 2.927985,3.0659652 2.0322619,4.122457 1.3204454,5.5582661 0.79219953,7.372678 0.26395098,9.2100584 0,11.322717 0,13.711309 c 0,2.41156 0.26395098,4.524735 0.79219953,6.339149 0.52824587,1.814412 1.24006237,3.249703 2.13578547,4.306197 0.895723,1.056492 1.8836666,1.837214 2.9631269,2.342491 1.0794603,0.50528 2.2274874,0.758095 3.4447506,0.758095 1.8603465,0 3.4912065,-0.55122 4.8922095,-1.653646 l 2.032434,2.23914 2.755902,-2.617928 c -0.757917,-0.780889 -1.526982,-1.550469 -2.307868,-2.308386 1.332101,-2.204858 1.997811,-5.339908 1.997811,-9.405112 0,-2.388592 -0.263954,-4.5012506 -0.7922,-6.338631 C 17.385906,5.5582661 16.674086,4.122457 15.778363,3.0659652 14.88264,2.0324392 13.895215,1.2633748 12.815755,0.75809474 11.713326,0.25281466 10.553128,0 9.3358625,0 Z M 28.11146,0 c -2.296723,0 -3.938722,0.72347401 -4.926314,2.1704115 -0.964623,1.4469374 -1.389692,3.3417483 -1.274858,5.6844088 h 4.547526 V 7.3380546 c 0,-1.8373804 0.585671,-2.7559052 1.757,-2.7559052 1.194298,0 1.791621,0.9068699 1.791621,2.7212818 0,1.4010032 -0.287263,2.3311829 -0.861446,2.7905288 -0.597146,0.459343 -1.641822,0.689361 -3.134691,0.689361 v 4.581634 c 1.492869,-0.04594 2.526403,0.195222 3.100586,0.723471 0.57418,0.528246 0.860928,1.527328 0.860928,2.997232 0,0.482311 -0.02278,0.907383 -0.06873,1.274857 -0.04594,0.367478 -0.126492,0.769234 -0.241329,1.205611 -0.137803,0.413412 -0.367306,0.735127 -0.688848,0.964801 -0.344509,0.206703 -0.769578,0.310057 -1.274858,0.310057 -0.643081,0 -1.136536,-0.218363 -1.481045,-0.65474 -0.344509,-0.413409 -0.516766,-0.884071 -0.516766,-1.412317 l 0.03411,-0.723469 h -4.926314 c -0.114837,2.227821 0.459176,4.01928 1.722374,5.374349 1.286166,1.355066 3.043174,2.032434 5.270997,2.032434 2.434526,0 4.352652,-0.70068 5.753653,-2.101681 1.401003,-1.401003 2.101165,-3.31861 2.101165,-5.753137 0,-1.538806 -0.332857,-2.893539 -0.998906,-4.064867 -0.666051,-1.148364 -1.699585,-1.89515 -3.100586,-2.239659 v -0.06873 c 2.204855,-0.872757 3.307292,-2.962619 3.307292,-6.2699025 0,-2.1589206 -0.597326,-3.8586832 -1.791623,-5.098915 C 31.878103,0.62012247 30.224449,0 28.11146,0 Z M 9.3358625,4.8575859 c 0.8268205,0 1.5158425,0.3328564 2.0670575,0.9989053 0.528248,0.6660514 0.907208,1.5389833 1.136883,2.6184462 0.229671,1.0794603 0.379132,2.0096396 0.448034,2.7905256 0.0689,0.780886 0.103352,1.596057 0.103352,2.445846 0,2.227823 -0.172254,3.939241 -0.516763,5.133538 l -2.377117,-2.65307 -2.7217981,2.65307 3.1352091,3.272668 c -0.390443,0.298575 -0.8155117,0.448035 -1.2748575,0.448035 -0.8268203,0 -1.504188,-0.333372 -2.0324339,-0.999424 C 6.7522142,20.877109 6.3732541,19.981381 6.1665484,18.878952 5.9368742,17.799492 5.7874137,16.858173 5.7185136,16.054319 5.6496108,15.273433 5.6151594,14.492195 5.6151594,13.711309 c 0,-0.849789 0.034451,-1.66496 0.1033542,-2.445846 0.0689,-0.780886 0.2183606,-1.7110653 0.4480348,-2.7905256 C 6.3732541,7.3954745 6.7522142,6.5225426 7.3034286,5.8564912 7.8316745,5.1904423 8.5090422,4.8575859 9.3358625,4.8575859 Z" /></svg>
