<?xml version="1.0" encoding="UTF-8" standalone="no"?>
<svg
   width="35.484138mm"
   height="28.077356mm"
   viewBox="0 0 35.484138 28.077356"
   version="1.1"
   xml:space="preserve"
   xmlns="http://www.w3.org/2000/svg"
   xmlns:svg="http://www.w3.org/2000/svg"><defs
     id="defs1"><rect
       x="223.47206"
       y="332.80283"
       width="169.244"
       height="115.8906" /></defs><path
     style="font-size:133.333px;line-height:0.9;font-family:Futura-CondensedBold;-inkscape-font-specification:Futura-CondensedBold;text-align:center;writing-mode:lr-tb;direction:ltr;text-anchor:middle;white-space:pre;shape-inside:url(#rect2);fill:#000000;stroke-width:0.264583"
     d="m 28.318166,0 c -2.595298,0 -4.409551,0.70067751 -5.443077,2.101678 -1.01056,1.4010031 -1.515671,3.4452771 -1.515671,6.1324436 0.02297,0.4823116 0.05742,0.9646285 0.103354,1.4469401 h 4.857583 l -0.06925,-1.6882692 c 0,-2.8709064 0.70068,-4.3061969 2.10168,-4.3061969 0.75792,0 1.297483,0.3328565 1.619023,0.9989053 0.344508,0.6660488 0.516765,1.4356318 0.516765,2.3083864 0,0.895723 -0.229502,1.9748473 -0.688848,3.2380447 -0.436377,1.263198 -0.81534,2.205035 -1.13688,2.825152 -0.321543,0.620115 -0.861105,1.619197 -1.619022,2.997232 l -5.994466,10.989511 h 13.986742 v -4.581634 h -6.166548 l 4.444172,-8.440311 c 1.446937,-2.779038 2.170411,-5.190617 2.170411,-7.2347005 0,-2.2278233 -0.631777,-3.9159285 -1.894975,-5.0642916 C 32.325966,0.57452947 30.568958,0 28.318166,0 Z M 9.3358625,0.03462073 c -1.2172632,0 -2.3652903,0.25281466 -3.4447506,0.75809474 C 4.8116516,1.2979955 3.823708,2.0670599 2.927985,3.1005859 2.0322619,4.1570777 1.3204454,5.5928868 0.79219953,7.4072987 0.26395098,9.2446791 0,11.357337 0,13.745929 c 0,2.411561 0.26395098,4.524735 0.79219953,6.33915 0.52824587,1.814412 1.24006237,3.249702 2.13578547,4.306197 0.895723,1.056492 1.8836666,1.837213 2.9631269,2.342491 1.0794603,0.50528 2.2274874,0.758095 3.4447506,0.758095 1.8603465,0 3.4912065,-0.55122 4.8922095,-1.653646 l 2.032434,2.239139 2.755902,-2.617927 c -0.757917,-0.780889 -1.526982,-1.550469 -2.307868,-2.308387 1.332101,-2.204857 1.997811,-5.339908 1.997811,-9.405112 0,-2.388592 -0.263954,-4.5012499 -0.7922,-6.3386303 C 17.385906,5.5928868 16.674086,4.1570777 15.778363,3.1005859 14.88264,2.0670599 13.895215,1.2979955 12.815755,0.79271547 11.713326,0.28743539 10.553128,0.03462073 9.3358625,0.03462073 Z m 0,4.85758587 c 0.8268205,0 1.5158425,0.3328564 2.0670575,0.9989053 0.528248,0.6660515 0.907208,1.5389833 1.136883,2.6184463 0.229671,1.0794603 0.379132,2.0096398 0.448034,2.7905258 0.0689,0.780886 0.103352,1.596057 0.103352,2.445845 0,2.227824 -0.172254,3.939241 -0.516763,5.133539 l -2.377117,-2.65307 -2.7217981,2.65307 3.1352091,3.272668 c -0.390443,0.298574 -0.8155117,0.448035 -1.2748575,0.448035 -0.8268203,0 -1.504188,-0.333372 -2.0324339,-0.999424 C 6.7522142,20.91173 6.3732541,20.016001 6.1665484,18.913573 5.9368742,17.834112 5.7874137,16.892794 5.7185136,16.088939 5.6496108,15.308053 5.6151594,14.526815 5.6151594,13.745929 c 0,-0.849788 0.034451,-1.664959 0.1033542,-2.445845 0.0689,-0.780886 0.2183606,-1.7110655 0.4480348,-2.7905258 C 6.3732541,7.4300952 6.7522142,6.5571634 7.3034286,5.8911119 7.8316745,5.225063 8.5090422,4.8922066 9.3358625,4.8922066 Z" /></svg>
