<?xml version="1.0" encoding="UTF-8" standalone="no"?>
<svg
   width="39.365532mm"
   height="116.56445mm"
   viewBox="0 0 39.365532 116.56445"
   version="1.1"
   xml:space="preserve"
   xmlns="http://www.w3.org/2000/svg"
   xmlns:svg="http://www.w3.org/2000/svg"><path
     style="fill:#000000;stroke-width:0.371072"
     d="M 19.472173,4.9788026e-4 C 19.449273,0.04607788 18.394563,3.1865699 17.128643,6.9793999 l -2.30167,6.8957031 -7.5571571,0.001 c -8.693072,0.0012 -7.88457803,-0.142553 -6.173266,1.096057 1.110708,0.80392 10.6455271,7.832515 10.7600671,7.931815 0.05409,0.04687 -4.2853831,13.428188 -4.6901531,14.462688 h -5.17e-4 c -0.0366,0.0945 -0.04058,0.17208 -0.0088,0.17208 0.03184,0 0.643704,-0.4346 1.360124,-0.96583 0.71642,-0.53124 2.4516081,-1.80483 3.8555781,-2.82981 1.40396,-1.02498 3.207809,-2.34653 4.009059,-2.93677 2.67542,-1.970831 3.14772,-2.291732 3.252,-2.211232 0.26345,0.20343 10.37117,7.613672 11.77292,8.631002 0.456,0.33095 0.47526,0.33601 0.40566,0.10903 -0.12387,-0.40386 -2.75943,-8.420618 -3.76979,-11.466998 l -0.95602,-2.883544 1.92081,-1.42627 c 3.36025,-2.49505 5.78402,-4.292909 8.10287,-6.009969 l 2.25516,-1.669666 -7.59437,-0.02532 -7.59437,-0.02532 -2.33164,-6.9551311 c -1.28233,-3.82549 -2.35008,-6.91804802 -2.37298,-6.87244801974 z M 19.492873,12.996087 c 0.0282,-0.0016 0.42474,1.123429 0.88108,2.499589 l 0.82941,2.502173 2.79414,0.02584 2.79467,0.02636 -2.05569,1.500167 c -1.13036,0.82519 -2.14354,1.567295 -2.25154,1.648995 -0.19303,0.14606 -0.18078,0.193181 0.69556,2.794661 0.4903,1.45554 0.87364,2.646867 0.85214,2.646867 -0.0309,0 -3.93268,-2.799019 -4.4173,-3.168799 -0.0826,-0.06304 -0.26921,0.01442 -0.58911,0.245463 -0.2575,0.18595 -1.21937,0.880992 -2.13734,1.544092 -0.91798,0.66311 -1.72412,1.250013 -1.79162,1.304313 -0.0675,0.0543 -0.12299,0.07231 -0.12299,0.04031 0,-0.03199 0.39521,-1.228609 0.87799,-2.659269 l 0.87798,-2.601392 -0.90279,-0.671277 c -0.49628,-0.36937 -1.509628,-1.110941 -2.252058,-1.647961 l -1.349789,-0.976685 2.803447,-0.04909 2.80293,-0.04909 0.80512,-2.475818 c 0.44258,-1.36186 0.82756,-2.477435 0.85576,-2.479435 z m -0.0207,26.84022 c -0.0229,0.0456 -1.07761,3.18607 -2.34353,6.9789 l -2.30167,6.89622 -7.5571571,10e-4 c -8.693067,0.001 -7.88457803,-0.14256 -6.173266,1.09605 1.110708,0.80392 10.6455281,7.832 10.7600671,7.9313 0.05409,0.0469 -4.2853831,13.42819 -4.6901531,14.46269 v 5.1e-4 c -0.03693,0.0945 -0.04114,0.17157 -0.0093,0.17157 0.03184,0 0.643702,-0.4346 1.360124,-0.96583 0.716421,-0.53124 2.4516131,-1.80431 3.8555781,-2.82929 1.403965,-1.02498 3.207809,-2.34653 4.009059,-2.93677 2.67542,-1.97083 3.14772,-2.29173 3.252,-2.21123 0.26345,0.20343 10.37117,7.61315 11.77292,8.63048 0.456,0.33095 0.47526,0.33601 0.40566,0.10903 -0.12387,-0.40386 -2.75943,-8.42062 -3.76979,-11.467 l -0.95602,-2.88302 1.92081,-1.42679 c 3.36025,-2.49505 5.78402,-4.29291 8.10287,-6.00997 l 2.25516,-1.66967 -7.59437,-0.0248 -7.59437,-0.0253 -2.33164,-6.95565 c -1.28233,-3.82549 -2.35008,-6.91805 -2.37298,-6.87245 z m 0.0207,12.99611 c 0.0282,-0.002 0.42474,1.12291 0.88108,2.49907 l 0.82941,2.50217 2.79414,0.0264 2.79467,0.0258 -2.05569,1.50016 c -1.13036,0.82519 -2.14354,1.5673 -2.25154,1.649 -0.19303,0.14606 -0.18078,0.1937 0.69556,2.79518 0.4903,1.45554 0.87364,2.64635 0.85214,2.64635 -0.0309,0 -3.93268,-2.79902 -4.4173,-3.1688 -0.0826,-0.063 -0.26921,0.0149 -0.58911,0.24598 -0.2575,0.18595 -1.21937,0.88047 -2.13734,1.54357 -0.91798,0.66311 -1.72412,1.25002 -1.79162,1.30432 -0.0675,0.0543 -0.12299,0.0728 -0.12299,0.0408 0,-0.032 0.39521,-1.22861 0.87799,-2.65927 l 0.87798,-2.60139 -0.90279,-0.67179 c -0.49628,-0.36937 -1.509626,-1.11095 -2.252058,-1.64797 l -1.349789,-0.97616 2.803447,-0.0491 2.80293,-0.0491 0.80512,-2.47633 c 0.44258,-1.36186 0.82756,-2.47692 0.85576,-2.47892 z m -0.0207,26.19323 c -0.0229,0.0456 -1.07761,3.18607 -2.34353,6.9789 l -2.30167,6.89622 -7.5571571,0.001 c -8.693067,10e-4 -7.88457803,-0.14256 -6.173266,1.09605 1.110708,0.80392 10.6455281,7.832523 10.7600671,7.931823 0.05409,0.0469 -4.2853831,13.42818 -4.6901531,14.46268 -0.03693,0.0945 -0.04114,0.17209 -0.0093,0.17209 0.03184,0 0.643702,-0.43461 1.360124,-0.96584 0.716421,-0.53124 2.4516131,-1.80482 3.8555781,-2.8298 1.403965,-1.02498 3.207809,-2.34653 4.009059,-2.93677 2.67542,-1.97083 3.14772,-2.29173 3.252,-2.21123 0.26345,0.20343 10.37117,7.61315 11.77292,8.63048 0.456,0.33095 0.47526,0.33601 0.40566,0.10903 -0.12387,-0.40386 -2.75943,-8.4201 -3.76979,-11.46648 l -0.95602,-2.88355 1.92081,-1.42626 c 3.36025,-2.495053 5.78402,-4.292913 8.10287,-6.009973 l 2.25516,-1.66967 -7.59437,-0.0253 -7.59437,-0.0253 -2.33164,-6.95513 c -1.28233,-3.82549 -2.35008,-6.91857 -2.37298,-6.87297 z m 0.0207,12.99611 c 0.0282,-0.002 0.42474,1.12343 0.88108,2.49959 l 0.82941,2.50165 2.79414,0.0264 2.79467,0.0258 -2.05569,1.50068 c -1.13036,0.82519 -2.14354,1.567293 -2.25154,1.648993 -0.19303,0.14606 -0.18078,0.19319 0.69556,2.79467 0.4903,1.45554 0.87364,2.64635 0.85214,2.64635 -0.0309,0 -3.93268,-2.79851 -4.4173,-3.16829 -0.0826,-0.063 -0.26921,0.0144 -0.58911,0.24547 -0.2575,0.18595 -1.21937,0.88099 -2.13734,1.54409 v -5.2e-4 c -0.91798,0.66311 -1.72412,1.25053 -1.79162,1.30483 -0.0675,0.0543 -0.12299,0.0723 -0.12299,0.0403 0,-0.032 0.39521,-1.22861 0.87799,-2.65927 l 0.87798,-2.60139 -0.90279,-0.671283 c -0.49628,-0.36937 -1.509626,-1.11094 -2.252058,-1.64796 l -1.349789,-0.97668 2.803447,-0.0491 2.80293,-0.0491 0.80512,-2.47582 c 0.44258,-1.36186 0.82756,-2.47743 0.85576,-2.47943 z" /></svg>
