<?xml version="1.0" encoding="UTF-8" standalone="no"?>
<svg
   width="39.365395mm"
   height="37.538906mm"
   viewBox="0 0 39.365395 37.538906"
   version="1.1"
   xml:space="preserve"
   xmlns="http://www.w3.org/2000/svg"
   xmlns:svg="http://www.w3.org/2000/svg"><path
     style="fill:#000000;stroke-width:0.371072"
     d="m 7.1662683,37.366848 c 0.40477,-1.0345 4.7442477,-14.41583 4.6901567,-14.4627 -0.114539,-0.0993 -9.6492617,-7.12755 -10.7599697,-7.93147 -1.71131197,-1.23861 -2.519475,-1.0951 6.173592,-1.0963 l 7.5570877,-8.8e-4 2.301678,-6.8960601 C 18.394735,3.1866079 19.449206,0.04607786 19.472079,4.9786251e-4 19.494969,-0.04510214 20.562852,3.0475679 21.845185,6.8730579 l 2.331516,6.9554301 7.594343,0.0252 7.594349,0.0252 -2.254831,1.66965 c -2.318844,1.71706 -4.742794,3.51486 -8.103049,6.00991 l -1.921052,1.42642 0.956336,2.8835 c 1.010364,3.04638 3.645734,11.06301 3.7696,11.46687 0.06961,0.22698 0.05062,0.22186 -0.405401,-0.10909 -1.401749,-1.01733 -11.509568,-8.42732 -11.773022,-8.63075 -0.104282,-0.0805 -0.576423,0.24057 -3.251851,2.2114 -0.801244,0.59024 -2.605509,1.91176 -4.009474,2.93674 -1.403965,1.02498 -3.1388267,2.29825 -3.8552477,2.82949 -0.716422,0.53123 -1.328634,0.96588 -1.360472,0.96588 -0.03184,0 -0.02763,-0.0773 0.0093,-0.17182 z m 9.7226347,-12.10519 c 0.917977,-0.6631 1.879724,-1.3578 2.137219,-1.54375 0.319907,-0.23104 0.506457,-0.30889 0.589076,-0.24585 0.484616,0.36978 4.386597,3.16869 4.417505,3.16869 0.02145,0 -0.362152,-1.19089 -0.852461,-2.64643 -0.876338,-2.60148 -0.888141,-2.64894 -0.695114,-2.795 0.107997,-0.0817 1.121197,-0.82373 2.251555,-1.64892 l 2.055199,-1.50035 -2.794194,-0.0261 -2.794194,-0.0261 -0.829711,-2.5021 c -0.45634,-1.37616 -0.852774,-2.50079 -0.880965,-2.49917 -0.0282,0.002 -0.41337,1.11718 -0.855955,2.47904 l -0.804706,2.47608 -2.803298,0.0491 -2.803297,0.0491 1.349876,0.97643 c 0.742432,0.53702 1.755921,1.27864 2.2522,1.64801 l 0.902325,0.67161 -0.877779,2.6012 c -0.482779,1.43066 -0.877781,2.62736 -0.877781,2.65935 0,0.032 0.05523,0.0137 0.122724,-0.0406 0.0675,-0.0543 0.873797,-0.64128 1.791776,-1.30439 z" /></svg>
