<?xml version="1.0" encoding="UTF-8" standalone="no"?>
<svg
   width="39.365532mm"
   height="76.728638mm"
   viewBox="0 0 39.365532 76.728638"
   version="1.1"
   xml:space="preserve"
   xmlns="http://www.w3.org/2000/svg"
   xmlns:svg="http://www.w3.org/2000/svg"><path
     style="fill:#000000;stroke-width:0.371072"
     d="M 19.472172,4.9787994e-4 C 19.449272,0.04609788 18.394562,3.1865679 17.128642,6.9793979 l -2.30167,6.8962201 -7.5571573,0.001 c -8.693067,10e-4 -7.88457804,-0.14256 -6.173266,1.09605 1.110708,0.80392 10.6455283,7.832 10.7600673,7.9313 0.05409,0.0469 -4.2853833,13.42819 -4.6901533,14.46269 v 5.1e-4 c -0.03693,0.0945 -0.04114,0.17157 -0.0093,0.17157 0.03184,0 0.643702,-0.4346 1.360124,-0.96583 0.716421,-0.53124 2.4516133,-1.80431 3.8555783,-2.82929 1.403965,-1.02498 3.207809,-2.34653 4.009059,-2.93677 2.67542,-1.97083 3.14772,-2.29173 3.252,-2.21123 0.26345,0.20343 10.37117,7.61315 11.77292,8.63048 0.456,0.33095 0.47526,0.33601 0.40566,0.10903 -0.12387,-0.40386 -2.75943,-8.42062 -3.76979,-11.467 l -0.95602,-2.88302 1.92081,-1.42679 c 3.36025,-2.49505 5.78402,-4.29291 8.10287,-6.00997 l 2.25516,-1.66967 -7.59437,-0.0248 -7.59437,-0.0253 -2.33164,-6.9556501 c -1.28233,-3.82549 -2.35008,-6.91805002 -2.37298,-6.87245002006 z M 19.492872,12.996608 c 0.0282,-0.002 0.42474,1.12291 0.88108,2.49907 l 0.82941,2.50217 2.79414,0.0264 2.79467,0.0258 -2.05569,1.50016 c -1.13036,0.82519 -2.14354,1.5673 -2.25154,1.649 -0.19303,0.14606 -0.18078,0.1937 0.69556,2.79518 0.4903,1.45554 0.87364,2.64635 0.85214,2.64635 -0.0309,0 -3.93268,-2.79902 -4.4173,-3.1688 -0.0826,-0.063 -0.26921,0.0149 -0.58911,0.24598 -0.2575,0.18595 -1.21937,0.88047 -2.13734,1.54357 -0.91798,0.66311 -1.72412,1.25002 -1.79162,1.30432 -0.0675,0.0543 -0.12299,0.0728 -0.12299,0.0408 0,-0.032 0.39521,-1.22861 0.87799,-2.65927 l 0.87798,-2.60139 -0.90279,-0.67179 c -0.49628,-0.36937 -1.509626,-1.11095 -2.252058,-1.64797 l -1.349789,-0.97616 2.803447,-0.0491 2.80293,-0.0491 0.80512,-2.47633 c 0.44258,-1.36186 0.82756,-2.47692 0.85576,-2.47892 z m -0.0207,26.19323 c -0.0229,0.0456 -1.07761,3.18607 -2.34353,6.9789 l -2.30167,6.89622 -7.5571573,0.001 c -8.693067,10e-4 -7.88457804,-0.14256 -6.173266,1.09605 1.110708,0.80392 10.6455283,7.83252 10.7600673,7.93182 0.05409,0.0469 -4.2853833,13.42818 -4.6901533,14.46268 -0.03693,0.0945 -0.04114,0.17209 -0.0093,0.17209 0.03184,0 0.643702,-0.43461 1.360124,-0.96584 0.716421,-0.53124 2.4516133,-1.80482 3.8555783,-2.8298 1.403965,-1.02498 3.207809,-2.34653 4.009059,-2.93677 2.67542,-1.97083 3.14772,-2.29173 3.252,-2.21123 0.26345,0.20343 10.37117,7.61315 11.77292,8.63048 0.456,0.33095 0.47526,0.33601 0.40566,0.10903 -0.12387,-0.40386 -2.75943,-8.4201 -3.76979,-11.46648 l -0.95602,-2.88355 1.92081,-1.42626 c 3.36025,-2.49505 5.78402,-4.29291 8.10287,-6.00997 l 2.25516,-1.66967 -7.59437,-0.0253 -7.59437,-0.0253 -2.33164,-6.95513 c -1.28233,-3.82549 -2.35008,-6.91857 -2.37298,-6.87297 z m 0.0207,12.99611 c 0.0282,-0.002 0.42474,1.12343 0.88108,2.49959 l 0.82941,2.50165 2.79414,0.0264 2.79467,0.0258 -2.05569,1.50068 c -1.13036,0.82519 -2.14354,1.56729 -2.25154,1.64899 -0.19303,0.14606 -0.18078,0.19319 0.69556,2.79467 0.4903,1.45554 0.87364,2.64635 0.85214,2.64635 -0.0309,0 -3.93268,-2.79851 -4.4173,-3.16829 -0.0826,-0.063 -0.26921,0.0144 -0.58911,0.24547 -0.2575,0.18595 -1.21937,0.88099 -2.13734,1.54409 v -5.2e-4 c -0.91798,0.66311 -1.72412,1.25053 -1.79162,1.30483 -0.0675,0.0543 -0.12299,0.0723 -0.12299,0.0403 0,-0.032 0.39521,-1.22861 0.87799,-2.65927 l 0.87798,-2.60139 -0.90279,-0.67128 c -0.49628,-0.36937 -1.509626,-1.11094 -2.252058,-1.64796 l -1.349789,-0.97668 2.803447,-0.0491 2.80293,-0.0491 0.80512,-2.47582 c 0.44258,-1.36186 0.82756,-2.47743 0.85576,-2.47943 z" /></svg>
