<svg xmlns="http://www.w3.org/2000/svg" xml:space="preserve" width="365.67" height="621.385" viewBox="0 0 96.75 164.408"><path d="M44.791 0c-3.416.008-6.826.71-10.247 1.003-6.74.58-12.61 3.162-16.81 8.437-2.458 3.085-4.148 6.837-5.86 10.444-.873 1.841-.931 4.053-1.556 6.035-.378 1.201-1.034 2.275-2.662 2.354-1.733.085-3.47.379-5.17.75-.973.21-2.1.553-2.118 1.9C.272 37.59.153 44.256.14 50.924c-.011 5.553.13 11.104.18 16.658.026 2.815-.003 5.627.01 8.442.024 4.408.082 8.816.088 13.224.005 4.054-.043 8.104-.059 12.158-.026 6.39-.013 12.776-.079 19.164-.034 3.455-.307 6.91-.278 10.364.066 7.808.283 15.615.378 23.426.035 2.918-.042 3.085 2.837 3.622 2.42.45 4.913.51 7.369.79.486.056 1.283.231 1.37.522.431 1.453 1.702 1.757 2.789 1.881 3.445.392 6.913.755 10.374.752 2.603-.003 5.207-.585 7.48-.868.656.74 1.122 1.667 1.855 1.997 1.201.54 2.561.863 3.879.969 2.94.238 5.9.473 8.836.346 2.085-.09 4.157-.727 6.213-1.209 1-.233 1.574-.931 1.344-2.048-.328-1.595.426-2.253 1.932-2.465 1.008-.14 1.619-.757 1.664-1.898.22-5.416-.455-10.84.5-16.268.47-2.675.103-5.507.018-8.264-.113-3.677-.394-7.353-.465-11.033-.085-4.276-.04-8.557-.014-12.835.011-1.495.133-2.99.189-4.143l-.003-.005c4.6.31 8.863.955 13.096.804 7.89-.28 13.568-4.765 18.135-10.792 3.093-4.085 3.924-9.19 5.083-13.936 1.301-5.342 1.45-10.999 1.754-16.539.26-4.694.082-9.417-.005-14.124-.117-6.27-1.191-12.356-4.03-18.018-1.022-2.037-2.371-3.918-3.297-5.993-2.524-5.654-5.495-11.033-10.168-15.168a48 48 0 0 0-8.458-5.966c-4.43-2.46-9.486-2.937-14.42-3.564C52.44.426 48.607-.008 44.79 0zm1.73 2.977c.08-.006.17.124.432.333-.577.262-1.098.447-1.567.722-2.407 1.419-4.836 2.8-7.186 4.31-2.497 1.606-4.974 3.255-7.342 5.038-3.183 2.397-5.13 5.697-6.255 9.478-.47 1.582-1.003 2.947-2.931 3.243-1.117.17-1.807.91-1.786 2.178.008.415-.215.83-.305 1.143-1.788-.223-3.611-.122-5.122-.765-.815-.346-1.714-2.095-1.519-2.979 1.646-7.464 5.4-13.708 11.682-18.193 3.006-2.145 6.598-3.18 10.175-3.725 3.86-.587 7.811-.556 11.724-.783m8.789 1.458c1.675-.05 3.395.278 5.192 1.161 4.027 1.98 8.366 3.305 11.977 6.128 4.408 3.445 8.563 7.133 11.936 11.66C73.811 13.833 62.303 6.382 47.17 6.993c2.684-1.346 5.35-2.475 8.14-2.558m15.034 2.833c3.802 1.318 6.782 3.747 9.181 6.959l-9.18-6.959m-17.417 2.913c3.297.104 6.638 1.05 9.808 2.09 2.908.953 5.614 2.52 8.395 3.842.273.13.447.46.765.804h-.003c-2.971-.227-5.72-.531-8.475-.624-4.995-.17-9.716.725-13.494 4.331-.833.797-1.315 1.95-2.037 2.88-1.429 1.833-2.913 3.621-4.511 5.6-.662.008-1.268-.06-1.434-1.333-.085-.659-1.143-1.5-1.905-1.696-1.984-.508-4.04-.773-6.083-1.008-1.4-.162-2.497-1.466-2.053-2.852 1.701-5.297 4.667-9.5 10.454-10.703 3.476-.722 7.062-1.442 10.573-1.33zm11.595 8.911c.8.007 1.627.074 2.48.21 7.401 1.177 12.902 5.058 16.712 11.374 2.326 3.855 4.672 7.728 5.606 12.253.45 2.18 1.379 4.291 1.601 6.485.246 2.44.034 4.945-.143 7.408-.513 7.075-.891 14.148-2.286 21.154-.592 2.971-1.706 5.352-3.762 7.334-2.805 2.701-5.559 5.53-8.713 7.773-4.109 2.924-8.914 3.543-13.88 2.614-.307-.058-.59-.232-.966-.386h.01c.691-3.929.572-7.797-.444-11.62-.153-.577-.243-1.21-.55-1.699-1.818-2.9-1.688-6.099-1.545-9.314.212-4.807.455-9.612.6-14.422.082-2.67.046-5.347-.031-8.02-.135-4.67-.365-9.34-.508-14.01-.042-1.349.161-2.706.095-4.05-.021-.434-.474-1.114-.855-1.217-2.034-.55-4.117-.923-6.165-1.423-.584-.143-1.542-.455-1.587-.789-.132-1-.304-2.495.26-3.008 4.074-3.72 8.462-6.69 14.07-6.647M29.36 20.373c.373 3.448-.612 4.855-2.953 4.363.997-1.474 1.873-2.77 2.953-4.363M17.469 45.775c.758 0 1.368.034 1.368.077v104.42c0 .042-.61.077-1.368.077s-1.368-.035-1.368-.077V45.852c0-.043.61-.077 1.368-.077m22.87 2.115c.83 0 1.499.034 1.499.076v104.42c0 .042-.669.077-1.499.077s-1.498-.035-1.498-.077V47.966c0-.042.668-.076 1.498-.076"/></svg>