<svg xmlns="http://www.w3.org/2000/svg" xml:space="preserve" width="131.845" height="192.126" viewBox="0 0 34.884 50.833"><path d="m29.34 3.753.256-.341.341-.17.17-.342.427-.512.17-.256.257-1.194.853-.853L33.093 0l.853.768.085 1.279q-.512 1.876-1.876 3.412Q30.79 6.994 28.06 7.76l-4.777 1.11-.852.255-.939.427-.767.426-.768.512-.853 1.109-.085.255-.341.683h2.729l.853.34.17.769v2.985q5.544 1.706 8.956 6.226 3.497 4.691 3.497 10.49 0 7.25-5.203 12.283-5.032 5.202-12.282 5.202T5.117 45.631Q0 40.599 0 33.349q0-5.8 3.497-10.491 3.412-4.52 8.87-6.226v-2.985l.256-.768q.256-.341.853-.341h1.962l1.023-2.9q1.28-1.962 3.924-3.07l4.69-1.365 2.133-.512.938-.341.938-.427v-.085z"/></svg>