<svg xmlns="http://www.w3.org/2000/svg" xml:space="preserve" width="458.084" height="321.163" viewBox="0 0 121.201 84.974"><path d="M12.006 84.911c-3.729-.287-4.196-4.83-4.341-7.764-1.525-18.242-3.685-36.423-5.35-54.65-.163-2.967-1.109-6.059-.589-8.986.538-2.537 3.335-3.958 5.797-3.995C27.392 7.21 47.369 5.978 67.24 3.686c13.115-.932 26.184-2.44 39.313-3.22 2.591.534 5.26 1.842 5.883 4.632 1.474 3.128.898-2.669-.908-3.306-2.33-1.03-4.675-2.662-1.27-1.228 5.14 2.947 3.76 9.63 4.79 14.57.61 9.527 2.324 18.98 2.694 28.512 1.156.388-.032 2.54.812 3.747.57 7.9 2.274 15.681 2.641 23.593.2 2.582-4.527 5.738-.869 1.99.698-3.278-.604-7.024-.728-10.434-.999-8.582-2.488-17.124-3.256-25.718-2.263-1.502-.28 3.527-.426 4.78 1.128 9.674 2.807 19.294 3.641 28.995.34 2.84-2.763 4.403-5.234 4.232l-51.347 5.445c-12.727.975-25.376 2.637-38.102 3.605-4.3.12-8.592 1.387-12.868 1.03m55.78-8.198c-1.29-4.85-1.162-9.923-1.158-14.888.678-6.803 4.45-13.433 10.428-16.844 4.697-2.953 10.387-3.075 15.738-3.47 6.883-1.176 13.943-1.314 20.843-2.464-.229-3.769-8.418-1.2-11.337-1.667-7.999.928-16.18 1.088-23.97 3.229-7.347 2.635-12.92 9.465-14.125 17.152-.787 3.579-.175 7.33-.388 10.98.838 2.193.266 7.986 2.464 8.882zm-55.028-2.372c5.774-.57 11.65-.71 17.33-1.826.114-4.213-7.29-.247-9.918-1.134-3.11 1.29-10.084-.94-11.023 2.474.183 1.585 2.634.203 3.61.486m25.135-2.21c8.038-.437 16.031-1.374 24.05-2.032 2.555-4.03-6.456-1.233-8.677-1.61-6.438.406-12.856 1.056-19.27 1.745-1.142 3.152 2.214 1.841 3.897 1.896m-24.053-1.08c3.91.225 8.45-1.037 12.64-1.14 3.985 1.354 4.204-3.847.59-2.575-6.022.39-12.021 1.173-18.043 1.462-2.1 2.896 2.177 2.915 3.98 2.358zm24.345-2.12c3.62-.232 7.218-.696 10.82-1.104.25.657 2.371-.603 3.878-.24 2.859-.375 6.065-.129 8.75-.888 2.4-3.289-3.606-2.029-5.616-2.31-.814.241-.872.474-2.955.716-6.551.216-13.093.915-19.6 1.755-1.212 3.508 2.9 2.114 4.723 2.071m-25.56-1.335c4.496-.9 10.713-.361 14.256-1.32 2.147.512 2.98-3.747.018-3.952-6.106.353-12.195.88-18.285 1.43-1.902 1.144.056 4.26.97 4.076m27.119-2.25c3.851-.339 8.27-.84 11.857-.836.732.056 5.45-.732 7.732-.858 2.033.203 5.337-.136 4.259-4.183-3.323-.03-6.616.534-9.93.732l-8.614.68c-2.453 1.054-9.54-.49-8.917 3.822.561 1.371 2.516.644 3.613.642m59.5-1.793c2.985.487 3.062-2.356-.013-1.392-1.639-.894-7.449 1.224-3.564 1.762zm10.255-.526c3.21-.302 6.42-.59 9.63-.879.386-3.289-5.206-.393-7.274-.969-1.634.342-6.912-.17-5.35 2.094 1-.057 1.997-.155 2.994-.246m-7.975-5.327c2.238-.42 9.303-.46 8.8-1.766-4.74 1-9.718 1.255-14.584 1.673-.943 1.69 5.147-.359 5.784.093m-.397-1.3c5.61-.78 11.268-1.254 16.85-2.216-1.095-2.2-5.704.92-7.266-.224l-.456-6.162c-2.172-.118.106 4.685-.534 6.376-1.93.875-5.013-.075-7.007 1.394-.384-2.25-.215-4.878-1.058-6.954-1.754.27.486 4.903-.016 6.39-2.627.77-8.99 2.626-7.667-2.964.85-2.31-1.819-4.879-1.125-1.394.788 1.864-.32 6.23 2.097 6.28q3.093-.237 6.182-.526m-64.426-17.3c3.872-1.388 8.244-3.524 9.933-7.496 1.34-3.59.785-7.348-.494-10.85-.508-1.617-1.433-1.95-1.363-2.597-.807-.42-1.249-2.65-2.599-3.27-2.262-2.665-6.055-3.683-9.428-3.33-5.312.75-12.231 3.541-12.435 9.815-.583 3.757-.057 7.566 2.047 10.81 1.032 2.418 3.338 3.997 5.153 5.785 2.703 1.643 6.165 1.87 9.186 1.133m-6.88-1.155c-3.853-1.577-6.648-4.826-8.036-8.673-.828-1.232-1.101-6.48-.058-2.307.938 5.464 5.118 10.537 10.74 11.4-.9.043-1.808-.063-2.645-.42m9.683-1.475c2.514-1.357 4.938-3.05 5.81-5.88 1.147-2.773.89-5.926-.012-8.72-1.185-2.44-2.2-5.004-4.462-6.666-3.75-3.093-9.261-2.418-13.484-.755-3.597 1.43-6.15 4.492-6.177 8.4-1.067 1 .232-4.128.896-5.42 2.904-3.129 7.014-5.27 11.341-4.92 3.115-.596 5.982 1.096 8.39 2.757 2.01 2.667 3.716 3.665 3.866 6.145 1.347 3.11 1.676 6.566.033 9.63-1.156 3.476-4.795 5.167-7.915 6.53.49-.48 1.154-.722 1.714-1.1m-21.727-.517c-1.641-4.73-2.134-9.685-1.916-14.654-.375-1.559.655-4.412-1.85-4.186-1.62.66-.795 4.857-1.275 6.89.292 4.214.174 8.681 2.265 12.49.126.39 2.833-.198 2.776-.54m37.325-.848c1.158-4.212.976-8.665.657-12.968-.563-3.05-1.424-6.498-3.33-8.869-4.016.688.634 7.285-.226 10.877.453 3.943-.053 7.884-.953 11.72m61.651-16.975c-.942-7.277-16.738-4.785-14.883 1.932M3.855 53.651c-.57-2.699-.376-6.048-.781-7.673-.627-7.49-1.615-14.93-2.13-22.424C.612 20.38-.182 17.1.038 13.908c-.388-2.612 6.298-6.35 1.76-2.457-2.075 2.33-.57 5.622-.576 8.4.779 10.163 2.26 20.352 2.637 30.493.156.18.597 2.863.58 4.696-.993.29-.396-.854-.584-1.39"/></svg>