<svg xmlns="http://www.w3.org/2000/svg" xml:space="preserve" width="566.126" height="364.018" viewBox="0 0 149.787 96.313"><path d="M8.197 96.059c-3.294-.717-5.762-2.395-6.976-4.743C.218 89.377 0 81.539 0 47.411V5.867l2.934-2.933L5.867 0H74.63c67.941 0 68.792.02 71.247 1.769 1.484 1.057 2.817 3.054 3.311 4.961 1.173 4.522.468 82.39-.766 84.695-.518.968-1.954 2.423-3.192 3.234-2.07 1.356-7.628 1.487-68.78 1.625-36.59.083-67.304-.02-68.253-.225zm130.223-10.27c1.696-1.696 1.69-2.022-.072-3.97-1.303-1.44-3.134-1.577-20.966-1.577-20.043 0-21.61.25-21.61 3.451s1.564 3.451 21.682 3.451c16.677 0 19.813-.203 20.966-1.356zM60.338 64.35c.73-.878 1.002-8.124.967-25.669-.048-23.992-.084-24.473-1.92-25.996-1.709-1.417-3.717-1.529-23.326-1.294-17.939.215-21.59.47-22.273 1.551-1.271 2.013-1.091 50.313.192 51.597 1.635 1.635 44.993 1.458 46.36-.189zm-43.945-5.608c0-4.229.805-5.087 6.56-7.002 8.785-2.924 9.49-4.287 5.971-11.533-2.719-5.598-3.564-12.776-2.033-17.26 3.175-9.298 16.502-9.767 20.285-.713 1.805 4.32.954 12.162-1.969 18.143-3.236 6.623-2.593 8.041 5.042 11.124l6.265 2.53.266 3.614.265 3.615H16.393Zm117.4-7.866c1.556-.833 1.669-1.955 1.669-16.653 0-11.106-.306-16.064-1.035-16.794-.767-.767-9.044-1.036-31.894-1.036-35.266 0-32.645-.65-32.645 8.092 0 6.98.964 7.44 15.63 7.44 10.097 0 11.873.201 12.334 1.403 1.222 3.184-.909 3.773-13.66 3.773-8.364 0-12.56.327-13.269 1.035-.584.585-1.035 3.385-1.035 6.429 0 4.225.327 5.583 1.51 6.272 2.073 1.207 60.144 1.243 62.395.039"/></svg>