<?xml version="1.0" encoding="UTF-8" standalone="no"?>
<!-- Created with Inkscape (http://www.inkscape.org/) -->

<svg
   width="121.20105mm"
   height="85.124229mm"
   viewBox="0 0 121.20105 85.124229"
   version="1.1"
   id="svg1"
   xml:space="preserve"
   xmlns="http://www.w3.org/2000/svg"
   xmlns:svg="http://www.w3.org/2000/svg"><defs
     id="defs1" /><g
     id="layer1"
     transform="translate(-45.270211,-105.10178)"><path
       style="fill:#000000"
       d="m 57.275632,190.01252 c -3.728431,-0.28635 -4.195733,-4.83085 -4.341034,-7.76365 -1.524329,-18.24153 -3.684353,-36.42276 -5.350436,-54.65095 -0.161735,-2.96569 -1.108088,-6.05778 -0.587805,-8.98502 0.537628,-2.53665 3.334426,-3.95818 5.797055,-3.99469 19.868144,-2.30689 39.84532,-3.53785 59.716928,-5.82992 13.11495,-0.93246 26.18396,-2.44019 39.31295,-3.21937 2.5907,0.53354 5.26057,1.84059 5.88268,4.63084 1.47374,3.12791 0.8976,-2.66863 -0.90803,-3.30536 -2.32965,-1.0317 -4.67463,-2.6621 -1.27117,-1.22888 5.14149,2.94753 3.76064,9.6292 4.79059,14.56959 0.61089,9.52837 2.32494,18.98041 2.69502,28.51298 1.15589,0.38828 -0.0327,2.53974 0.81192,3.74684 0.56859,7.89926 2.2741,15.68152 2.64084,23.59284 0.1986,2.58241 -4.52721,5.73823 -0.86889,1.98959 0.69749,-3.27717 -0.6047,-7.02335 -0.72786,-10.4336 -0.99909,-8.58171 -2.48806,-17.12345 -3.25622,-25.7178 -2.2634,-1.50204 -0.2799,3.52722 -0.42633,4.78087 1.12824,9.67342 2.80688,19.29299 3.64113,28.99399 0.34088,2.84045 -2.76275,4.40289 -5.23375,4.23169 -15.44821,1.35327 -30.88835,3.0257 -46.33351,4.28909 -4.06215,3.32576 -2.04461,-8.30148 -4.22755,-5.54924 -0.23725,1.95694 3.06159,7.21194 -0.78643,6.70611 -12.726296,0.9744 -25.375266,2.63684 -38.101355,3.60451 -4.30001,0.11951 -8.592139,1.38656 -12.868743,1.02954 z m 55.780588,-8.19746 c -1.29108,-4.851 -1.16208,-9.92304 -1.15776,-14.8883 0.67744,-6.80309 4.44882,-13.43247 10.42771,-16.84405 4.69643,-2.95279 10.38648,-3.0752 15.7381,-3.47045 6.88263,-1.17532 13.94267,-1.31294 20.84316,-2.46306 -2.0066,-2.27237 -6.54725,0.57667 -9.46608,0.11036 -7.9989,0.92745 -16.18083,1.08713 -23.97102,3.228 -7.34621,2.6353 -12.92017,9.46524 -14.12463,17.15195 -0.78639,3.57929 -0.17505,7.33042 -0.38743,10.98028 0.83802,2.19366 0.0787,6.11558 2.27721,7.01146 -0.0597,-0.27206 -0.11951,-0.54413 -0.17926,-0.81619 z m -55.028403,-2.3717 c 5.773705,-0.57013 11.649537,-0.71016 17.330207,-1.8261 0.113742,-4.21329 -7.289358,-0.24767 -9.917663,-1.1342 -3.109608,1.28898 -10.084322,-0.93985 -11.02335,2.47391 0.182823,1.58472 2.634312,0.20267 3.610806,0.48639 z m 25.135415,-2.21099 c 8.037577,-0.43684 16.030794,-1.37382 24.048948,-2.0311 2.55616,-4.02996 -6.45499,-1.23304 -8.676051,-1.60991 -6.437936,0.40566 -12.855712,1.05589 -19.269227,1.7443 -1.143093,3.15193 2.213368,1.84179 3.89633,1.89671 z m -24.053089,-1.08076 c 3.909969,0.22621 8.450466,-1.03593 12.639661,-1.13977 3.984753,1.35473 4.204099,-3.8462 0.590186,-2.57408 -6.022172,0.39021 -12.020982,1.17319 -18.042798,1.46224 -2.10062,2.89605 2.176927,2.91482 3.980674,2.35836 z m 24.344586,-2.11855 c 3.619825,-0.2321 7.218329,-0.69593 10.821002,-1.1045 0.249957,0.65738 2.370634,-0.60275 3.877399,-0.23933 2.85878,-0.37551 6.06454,-0.12891 8.74952,-0.88863 2.40015,-3.28863 -3.60518,-2.02847 -5.61536,-2.31035 -0.81469,0.24205 -0.87278,0.47504 -2.954802,0.71637 -6.551466,0.21618 -13.093631,0.91575 -19.60093,1.75572 -1.211945,3.50717 2.899598,2.11338 4.723171,2.07072 z m -25.559204,-1.33539 c 4.495343,-0.89895 7.765367,0.0134 11.308482,-0.94558 2.61502,1.25921 7.938446,-2.99899 3.246316,-2.54866 -6.105995,0.35237 -12.195374,0.87877 -18.284957,1.42997 -2.838485,1.98587 2.158918,3.13749 3.730164,2.06427 z m 24.077082,-2.0166 c 3.851866,-0.33783 8.271182,-0.83922 11.857152,-0.83546 0.732187,0.0568 5.449841,-0.73178 7.731981,-0.85794 2.03351,0.20355 7.62893,-0.41629 4.82104,-2.63979 -3.3234,-0.0294 -6.617168,0.53383 -9.93093,0.73189 0.193527,-2.67649 -0.08216,-5.69141 -0.78964,-8.2061 -1.420955,-0.028 0.199064,4.14604 -0.05372,5.5711 1.871855,4.84079 -5.175709,2.22646 -7.771252,3.31613 -2.451888,1.05313 -9.679123,-0.86426 -9.477371,2.2782 0.561367,1.37123 2.515791,0.64399 3.612743,0.64197 z m 59.499883,-1.79267 c 2.98563,0.48615 3.06276,-2.35631 -0.0122,-1.39289 -1.63893,-0.89384 -7.44892,1.22416 -3.56391,1.76255 1.19204,-0.12329 2.3841,-0.24646 3.57615,-0.36966 z m -63.600924,-3.8757 c -0.283891,-1.13669 0.757567,-4.55053 -0.950648,-4.03085 0.07694,2.63789 -0.07214,5.30056 0.352397,7.91409 1.34782,-0.34752 0.237637,-2.78539 0.598251,-3.88324 z m 73.856854,3.34923 c 3.20894,-0.30216 6.41921,-0.58979 9.62934,-0.8789 0.38606,-3.28858 -5.20579,-0.39311 -7.27406,-0.96869 -1.63327,0.34206 -6.91184,-0.17012 -5.34941,2.09399 0.99996,-0.0574 1.99687,-0.15546 2.99413,-0.2464 z m -7.97561,-5.32741 c 2.2382,-0.42066 9.30351,-0.46072 8.80034,-1.76574 -4.74056,1.00088 -9.7186,1.25548 -14.58453,1.67336 -0.94232,1.68944 5.14765,-0.35909 5.78419,0.0924 z m -27.39608,-4.48035 c 2.19418,-3.60938 5.08348,-7.03534 9.18718,-8.43285 6.51311,-2.44034 13.68438,-2.00018 20.47998,-3.17631 4.12797,-0.48704 8.28322,-0.6792 12.4133,-1.1428 -1.56323,-2.05424 -7.54204,0.76764 -10.59161,0.32671 -6.99155,1.20234 -14.34659,0.65521 -21.1337,2.86515 -5.9957,1.9466 -10.56509,7.06527 -12.18144,13.10956 -1.15327,3.97229 1.6697,-3.76183 1.82629,-3.54946 z m 26.99921,3.18209 c 5.61065,-0.78172 11.26803,-1.25454 16.84954,-2.21636 -1.09402,-2.19976 -5.70361,0.91977 -7.26596,-0.22434 -0.15182,-2.05382 -0.30363,-4.10764 -0.45544,-6.16146 -2.1718,-0.11816 0.10634,4.68443 -0.53451,6.37624 -1.93068,0.87449 -5.01286,-0.0753 -7.00614,1.39376 -0.38415,-2.24997 -0.21585,-4.87787 -1.05888,-6.95417 -1.75323,0.26968 0.48649,4.90331 -0.0151,6.39023 -2.62726,0.76846 -8.99089,2.62599 -7.66708,-2.96424 0.8491,-2.30986 -1.81908,-4.87866 -1.12534,-1.39435 0.78779,1.86482 -0.32081,6.23024 2.09715,6.279 2.06222,-0.15487 4.12267,-0.33433 6.18179,-0.52431 z M 78.929899,144.43564 c 3.872376,-1.38752 8.244246,-3.52351 9.93342,-7.49535 1.338984,-3.59127 0.784344,-7.34816 -0.494686,-10.85109 -0.507201,-1.61628 -1.433003,-1.94878 -1.362717,-2.59617 -0.806633,-0.4203 -1.248662,-2.65061 -2.598529,-3.27148 -2.262473,-2.66335 -6.055623,-3.68165 -9.427903,-3.33006 -5.312763,0.75102 -12.231743,3.54201 -12.435195,9.81667 -0.58349,3.75667 -0.05698,7.56561 2.046832,10.81062 1.032176,2.41687 3.337775,3.9966 5.152414,5.78425 2.703877,1.64253 6.16551,1.87021 9.186364,1.13261 z m -6.879166,-1.15465 c -3.854149,-1.57747 -6.649001,-4.82613 -8.036878,-8.67274 -0.827773,-1.23191 -1.101072,-6.48173 -0.05754,-2.30708 0.938049,5.46383 5.117189,10.53657 10.740249,11.39863 -0.900199,0.0439 -1.808163,-0.062 -2.645833,-0.41881 z m 9.6826,-1.47521 c 2.513282,-1.35636 4.93764,-3.04951 5.809486,-5.87918 1.147497,-2.77321 0.890584,-5.92659 -0.01137,-8.72024 -1.185077,-2.4411 -2.201249,-5.00458 -4.462522,-6.66589 -3.750264,-3.09355 -9.261354,-2.41798 -13.484131,-0.75559 -3.596937,1.43051 -6.149327,4.4917 -6.177212,8.39934 -1.066139,0.99936 0.232444,-4.12726 0.895939,-5.42072 2.9044,-3.12711 7.014088,-5.2699 11.341608,-4.91919 3.115271,-0.59496 5.982194,1.09676 8.389219,2.75816 2.009855,2.66695 3.716946,3.6643 3.866637,6.14478 1.346521,3.10884 1.67612,6.56591 0.0333,9.62887 -1.15667,3.47645 -4.79565,5.16777 -7.915009,6.53153 0.489789,-0.48149 1.1539,-0.7231 1.714055,-1.10187 z M 60.005686,141.2901 c -1.641033,-4.73029 -2.13375,-9.68538 -1.915986,-14.65437 -0.374287,-1.55841 0.456834,-3.5849 0.299964,-4.61571 -1.619757,0.65878 -0.795044,4.8572 -1.274787,6.89021 0.291949,4.21336 0.17447,8.68084 2.264814,12.49005 0.125817,0.3886 0.683227,0.2319 0.625995,-0.11018 z m 34.612117,-0.66145 c 1.157935,-4.21146 0.976249,-8.66464 0.657602,-12.96766 -0.563609,-3.05057 -1.424641,-6.49782 -3.331125,-8.86882 -1.114871,1.53018 3.347545,7.09795 2.488133,10.68944 0.453024,3.94327 -0.05389,7.88437 -0.953313,11.7204 0.604867,1.05745 1.070795,0.17658 1.138703,-0.57336 z m 49.796467,-14.87534 c 3.19653,-0.84692 8.6302,0.45032 10.71562,-1.52671 -1.92685,-2.02734 -7.98332,0.7563 -11.20542,0.17929 -1.62432,-0.62636 -7.19629,1.31938 -3.67739,1.75361 1.38604,-0.16402 2.77693,-0.28441 4.16719,-0.40619 z m -73.215775,64.3946 c 4.715935,-1.11225 9.817287,-0.58997 14.564567,-1.56354 -0.177424,0.99648 -6.391859,1.13664 -8.532497,1.2887 -1.674243,-0.0888 -5.323093,0.57391 -6.03207,0.27484 z m 56.336175,-5.69389 c 4.10968,-1.45141 8.92596,-1.06122 13.32459,-1.60596 2.04249,0.92718 8.70016,-2.53766 8.41365,-0.22374 -1.35146,-0.90276 -7.0223,1.25692 -9.86247,0.79879 -3.77896,0.25493 -8.92519,0.82571 -11.90442,1.11703 z m 23.36189,-2.62012 c 0.44632,-0.47164 6.69094,-0.42727 9.07286,-0.85535 2.136,-0.0824 5.74489,-0.98947 1.61154,0.32927 0.21444,0.72953 -2.9784,-0.46564 -4.21342,0.27073 -2.13848,0.16865 -4.33563,0.61201 -6.47098,0.25535 z M 49.125101,158.7526 c -0.570303,-2.6986 -0.375944,-6.0477 -0.781421,-7.67291 -0.626245,-7.48884 -1.615053,-14.93021 -2.1293,-22.42344 -0.332112,-3.17418 -1.126463,-6.45564 -0.906128,-9.64607 -0.387952,-2.61263 6.297667,-6.34984 1.760131,-2.4575 -2.075868,2.33042 -0.569727,5.622 -0.576233,8.39918 0.778676,10.16379 2.259195,20.35287 2.636416,30.49406 0.156177,0.17974 0.597682,2.86332 0.581231,4.69579 -0.99356,0.28904 -0.396967,-0.85335 -0.584696,-1.38911 z"
       id="path1" /></g></svg>
