<?xml version="1.0" encoding="UTF-8"?>
<svg xmlns="http://www.w3.org/2000/svg" viewBox="0 0 13.4 13.3">
  <g>
    <path d="m10.54,13.3v-1.3h-1.28v-1.29h-1.44v-1.31h-1.12c-.43-.44-.83-.84-1.27-1.29,1.19-.49,2.07-1.27,2.58-2.48.43.36.87.68,1.25,1.05,1.18,1.15,2.35,2.32,3.49,3.51.19.2.23.55.33.83.12.32.22.65.33.97v.39c-1.67-1.63-3.33-3.26-5.04-4.93-.15.18-.24.28-.33.38,1.68,1.64,3.33,3.26,5,4.89-.22.23-.38.4-.54.57h-1.95Z"/>
    <path d="m7.8,4.02c0,2.13-1.67,3.8-3.78,3.8-2.08,0-3.75-1.68-3.76-3.76,0-2.13,1.66-3.8,3.78-3.8,2.08,0,3.75,1.67,3.76,3.76Zm-3.65-1c.01-.47-.42-.93-.9-.93-.44,0-.88.4-.91.85-.03.47.39.94.86.96.47.03.93-.41.94-.88Z"/>
  </g>
</svg>