<?xml version="1.0" encoding="UTF-8" standalone="no"?>
<svg
   ffdec:objectType="shape"
   height="67.05px"
   width="63.05px"
   version="1.1"
   id="svg1"
   sodipodi:docname="3.svg"
   inkscape:version="1.3.2 (091e20e, 2023-11-25)"
   xmlns:inkscape="http://www.inkscape.org/namespaces/inkscape"
   xmlns:sodipodi="http://sodipodi.sourceforge.net/DTD/sodipodi-0.dtd"
   xmlns="http://www.w3.org/2000/svg"
   xmlns:svg="http://www.w3.org/2000/svg"
   xmlns:ffdec="https://www.free-decompiler.com/flash">
  <g transform="matrix(1.0, 0.0, 0.0, 1.0, 32.1, 32.95)">
    <path d="M 16.746398,66.947779 C 12.269038,66.497919 8.6314693,64.770116 5.4405904,61.577657 2.5571381,58.692773 0.84908304,55.369686 0.25397069,51.486889 -0.09584105,49.20455 -0.02003148,46.472107 0.45209617,44.345751 1.0434383,41.682481 2.2456567,39.1907 3.9947318,37.0031 4.6897739,36.133798 6.2825092,34.541369 7.149424,33.849016 c 3.061475,-2.44502 6.30333,-3.680822 10.32689,-3.936633 2.245841,-0.142786 4.543497,0.142007 6.672229,0.827019 l 0.73579,0.236772 2.291444,-2.321921 C 35.802192,19.913102 54.471617,1.1834067 54.581703,1.1598505 54.938095,1.0835903 62.961729,0.04465152 62.98839,0.07131236 63.034291,0.117213 62.34613,13.132924 62.295301,13.180243 c -0.02408,0.02242 -1.391548,0.597506 -3.038814,1.277972 -1.647266,0.680467 -3.026714,1.270791 -3.065439,1.311833 -0.03873,0.04104 -0.876519,1.834542 -1.861763,3.985557 l -1.791352,3.910936 -0.39256,0.128996 c -0.215909,0.07095 -2.421451,0.75293 -4.901207,1.515515 -2.479755,0.762586 -4.566614,1.411576 -4.637464,1.4422 -0.127895,0.05528 -0.128125,0.07076 -0.0322,2.157546 l 0.09661,2.101865 -0.433875,1.465499 c -0.238632,0.806025 -0.434275,1.506555 -0.434762,1.556734 -4.88e-4,0.05018 0.43814,1.231849 0.974728,2.625934 0.536589,1.394085 0.958893,2.551422 0.938455,2.571859 -0.02044,0.02044 -1.348152,0.555919 -2.950474,1.189956 -1.602323,0.634038 -2.920679,1.160202 -2.929679,1.169255 -0.009,0.0091 -0.282802,0.480206 -0.608446,1.047007 l -0.592081,1.030547 0.139458,0.728713 c 0.297235,1.55314 0.346596,2.105573 0.352137,3.940956 0.0058,1.937196 -0.04845,2.56163 -0.35403,4.071444 -0.75111,3.711105 -2.716714,7.082972 -5.727296,9.824804 -2.858663,2.603476 -6.029177,4.099812 -9.793171,4.62192 -0.890009,0.123453 -3.62992,0.178478 -4.505677,0.09049 z m -2.415345,-6.862986 c 2.111533,-0.398191 3.992078,-2.180531 4.543683,-4.306404 0.26548,-1.023159 0.234096,-2.438622 -0.07534,-3.397762 -0.604998,-1.875289 -2.28454,-3.493059 -4.153393,-4.000635 -0.838907,-0.227846 -2.127559,-0.246918 -3.010687,-0.04456 -2.0340642,0.466082 -3.8930103,2.295147 -4.4223994,4.351315 -0.1897709,0.737077 -0.2329895,1.786851 -0.1039327,2.524518 0.2158038,1.233498 0.7187387,2.228585 1.5845855,3.135196 1.4951066,1.565497 3.4148886,2.157467 5.6374816,1.738333 z" transform="translate(-32.1,-32.95)" />
    <path d="M 16.746398,66.947779 C 12.269038,66.497919 8.6314693,64.770116 5.4405904,61.577657 2.5571381,58.692773 0.84908304,55.369686 0.25397069,51.486889 -0.09584105,49.20455 -0.02003148,46.472107 0.45209617,44.345751 1.0434383,41.682481 2.2456567,39.1907 3.9947318,37.0031 4.6897739,36.133798 6.2825092,34.541369 7.149424,33.849016 c 3.061475,-2.44502 6.30333,-3.680822 10.32689,-3.936633 2.245841,-0.142786 4.543497,0.142007 6.672229,0.827019 l 0.73579,0.236772 2.291444,-2.321921 C 35.802192,19.913102 54.471617,1.1834067 54.581703,1.1598505 54.938095,1.0835903 62.961729,0.04465152 62.98839,0.07131236 63.034291,0.117213 62.34613,13.132924 62.295301,13.180243 c -0.02408,0.02242 -1.391548,0.597506 -3.038814,1.277972 -1.647266,0.680467 -3.026714,1.270791 -3.065439,1.311833 -0.03873,0.04104 -0.876519,1.834542 -1.861763,3.985557 l -1.791352,3.910936 -0.39256,0.128996 c -0.215909,0.07095 -2.421451,0.75293 -4.901207,1.515515 -2.479755,0.762586 -4.566614,1.411576 -4.637464,1.4422 -0.127895,0.05528 -0.128125,0.07076 -0.0322,2.157546 l 0.09661,2.101865 -0.433875,1.465499 c -0.238632,0.806025 -0.434275,1.506555 -0.434762,1.556734 -4.88e-4,0.05018 0.43814,1.231849 0.974728,2.625934 0.536589,1.394085 0.958893,2.551422 0.938455,2.571859 -0.02044,0.02044 -1.348152,0.555919 -2.950474,1.189956 -1.602323,0.634038 -2.920679,1.160202 -2.929679,1.169255 -0.009,0.0091 -0.282802,0.480206 -0.608446,1.047007 l -0.592081,1.030547 0.139458,0.728713 c 0.297235,1.55314 0.346596,2.105573 0.352137,3.940956 0.0058,1.937196 -0.04845,2.56163 -0.35403,4.071444 -0.75111,3.711105 -2.716714,7.082972 -5.727296,9.824804 -2.858663,2.603476 -6.029177,4.099812 -9.793171,4.62192 -0.890009,0.123453 -3.62992,0.178478 -4.505677,0.09049 z m -2.415345,-6.862986 c 2.111533,-0.398191 3.992078,-2.180531 4.543683,-4.306404 0.26548,-1.023159 0.234096,-2.438622 -0.07534,-3.397762 -0.604998,-1.875289 -2.28454,-3.493059 -4.153393,-4.000635 -0.838907,-0.227846 -2.127559,-0.246918 -3.010687,-0.04456 -2.0340642,0.466082 -3.8930103,2.295147 -4.4223994,4.351315 -0.1897709,0.737077 -0.2329895,1.786851 -0.1039327,2.524518 0.2158038,1.233498 0.7187387,2.228585 1.5845855,3.135196 1.4951066,1.565497 3.4148886,2.157467 5.6374816,1.738333 z" transform="translate(-32.1,-32.95)" />
    <path d="M 16.746398,66.947779 C 12.269038,66.497919 8.6314693,64.770116 5.4405904,61.577657 2.5571381,58.692773 0.84908304,55.369686 0.25397069,51.486889 -0.09584105,49.20455 -0.02003148,46.472107 0.45209617,44.345751 1.0434383,41.682481 2.2456567,39.1907 3.9947318,37.0031 4.6897739,36.133798 6.2825092,34.541369 7.149424,33.849016 c 3.061475,-2.44502 6.30333,-3.680822 10.32689,-3.936633 2.245841,-0.142786 4.543497,0.142007 6.672229,0.827019 l 0.73579,0.236772 2.291444,-2.321921 C 35.802192,19.913102 54.471617,1.1834067 54.581703,1.1598505 54.938095,1.0835903 62.961729,0.04465152 62.98839,0.07131236 63.034291,0.117213 62.34613,13.132924 62.295301,13.180243 c -0.02408,0.02242 -1.391548,0.597506 -3.038814,1.277972 -1.647266,0.680467 -3.026714,1.270791 -3.065439,1.311833 -0.03873,0.04104 -0.876519,1.834542 -1.861763,3.985557 l -1.791352,3.910936 -0.39256,0.128996 c -0.215909,0.07095 -2.421451,0.75293 -4.901207,1.515515 -2.479755,0.762586 -4.566614,1.411576 -4.637464,1.4422 -0.127895,0.05528 -0.128125,0.07076 -0.0322,2.157546 l 0.09661,2.101865 -0.433875,1.465499 c -0.238632,0.806025 -0.434275,1.506555 -0.434762,1.556734 -4.88e-4,0.05018 0.43814,1.231849 0.974728,2.625934 0.536589,1.394085 0.958893,2.551422 0.938455,2.571859 -0.02044,0.02044 -1.348152,0.555919 -2.950474,1.189956 -1.602323,0.634038 -2.920679,1.160202 -2.929679,1.169255 -0.009,0.0091 -0.282802,0.480206 -0.608446,1.047007 l -0.592081,1.030547 0.139458,0.728713 c 0.297235,1.55314 0.346596,2.105573 0.352137,3.940956 0.0058,1.937196 -0.04845,2.56163 -0.35403,4.071444 -0.75111,3.711105 -2.716714,7.082972 -5.727296,9.824804 -2.858663,2.603476 -6.029177,4.099812 -9.793171,4.62192 -0.890009,0.123453 -3.62992,0.178478 -4.505677,0.09049 z m -2.415345,-6.862986 c 2.111533,-0.398191 3.992078,-2.180531 4.543683,-4.306404 0.26548,-1.023159 0.234096,-2.438622 -0.07534,-3.397762 -0.604998,-1.875289 -2.28454,-3.493059 -4.153393,-4.000635 -0.838907,-0.227846 -2.127559,-0.246918 -3.010687,-0.04456 -2.0340642,0.466082 -3.8930103,2.295147 -4.4223994,4.351315 -0.1897709,0.737077 -0.2329895,1.786851 -0.1039327,2.524518 0.2158038,1.233498 0.7187387,2.228585 1.5845855,3.135196 1.4951066,1.565497 3.4148886,2.157467 5.6374816,1.738333 z" transform="translate(-32.1,-32.95)" />
    <path d="M 16.746398,66.947779 C 12.269038,66.497919 8.6314693,64.770116 5.4405904,61.577657 2.5571381,58.692773 0.84908304,55.369686 0.25397069,51.486889 -0.09584105,49.20455 -0.02003148,46.472107 0.45209617,44.345751 1.0434383,41.682481 2.2456567,39.1907 3.9947318,37.0031 4.6897739,36.133798 6.2825092,34.541369 7.149424,33.849016 c 3.061475,-2.44502 6.30333,-3.680822 10.32689,-3.936633 2.245841,-0.142786 4.543497,0.142007 6.672229,0.827019 l 0.73579,0.236772 2.291444,-2.321921 C 35.802192,19.913102 54.471617,1.1834067 54.581703,1.1598505 54.938095,1.0835903 62.961729,0.04465152 62.98839,0.07131236 63.034291,0.117213 62.34613,13.132924 62.295301,13.180243 c -0.02408,0.02242 -1.391548,0.597506 -3.038814,1.277972 -1.647266,0.680467 -3.026714,1.270791 -3.065439,1.311833 -0.03873,0.04104 -0.876519,1.834542 -1.861763,3.985557 l -1.791352,3.910936 -0.39256,0.128996 c -0.215909,0.07095 -2.421451,0.75293 -4.901207,1.515515 -2.479755,0.762586 -4.566614,1.411576 -4.637464,1.4422 -0.127895,0.05528 -0.128125,0.07076 -0.0322,2.157546 l 0.09661,2.101865 -0.433875,1.465499 c -0.238632,0.806025 -0.434275,1.506555 -0.434762,1.556734 -4.88e-4,0.05018 0.43814,1.231849 0.974728,2.625934 0.536589,1.394085 0.958893,2.551422 0.938455,2.571859 -0.02044,0.02044 -1.348152,0.555919 -2.950474,1.189956 -1.602323,0.634038 -2.920679,1.160202 -2.929679,1.169255 -0.009,0.0091 -0.282802,0.480206 -0.608446,1.047007 l -0.592081,1.030547 0.139458,0.728713 c 0.297235,1.55314 0.346596,2.105573 0.352137,3.940956 0.0058,1.937196 -0.04845,2.56163 -0.35403,4.071444 -0.75111,3.711105 -2.716714,7.082972 -5.727296,9.824804 -2.858663,2.603476 -6.029177,4.099812 -9.793171,4.62192 -0.890009,0.123453 -3.62992,0.178478 -4.505677,0.09049 z m -2.415345,-6.862986 c 2.111533,-0.398191 3.992078,-2.180531 4.543683,-4.306404 0.26548,-1.023159 0.234096,-2.438622 -0.07534,-3.397762 -0.604998,-1.875289 -2.28454,-3.493059 -4.153393,-4.000635 -0.838907,-0.227846 -2.127559,-0.246918 -3.010687,-0.04456 -2.0340642,0.466082 -3.8930103,2.295147 -4.4223994,4.351315 -0.1897709,0.737077 -0.2329895,1.786851 -0.1039327,2.524518 0.2158038,1.233498 0.7187387,2.228585 1.5845855,3.135196 1.4951066,1.565497 3.4148886,2.157467 5.6374816,1.738333 z" transform="translate(-32.1,-32.95)" />
  </g>
  <path d="M 16.746398,66.947779 C 12.269038,66.497919 8.6314693,64.770116 5.4405904,61.577657 2.5571381,58.692773 0.84908304,55.369686 0.25397069,51.486889 -0.09584105,49.20455 -0.02003148,46.472107 0.45209617,44.345751 1.0434383,41.682481 2.2456567,39.1907 3.9947318,37.0031 4.6897739,36.133798 6.2825092,34.541369 7.149424,33.849016 c 3.061475,-2.44502 6.30333,-3.680822 10.32689,-3.936633 2.245841,-0.142786 4.543497,0.142007 6.672229,0.827019 l 0.73579,0.236772 2.291444,-2.321921 C 35.802192,19.913102 54.471617,1.1834067 54.581703,1.1598505 54.938095,1.0835903 62.961729,0.04465152 62.98839,0.07131236 63.034291,0.117213 62.34613,13.132924 62.295301,13.180243 c -0.02408,0.02242 -1.391548,0.597506 -3.038814,1.277972 -1.647266,0.680467 -3.026714,1.270791 -3.065439,1.311833 -0.03873,0.04104 -0.876519,1.834542 -1.861763,3.985557 l -1.791352,3.910936 -0.39256,0.128996 c -0.215909,0.07095 -2.421451,0.75293 -4.901207,1.515515 -2.479755,0.762586 -4.566614,1.411576 -4.637464,1.4422 -0.127895,0.05528 -0.128125,0.07076 -0.0322,2.157546 l 0.09661,2.101865 -0.433875,1.465499 c -0.238632,0.806025 -0.434275,1.506555 -0.434762,1.556734 -4.88e-4,0.05018 0.43814,1.231849 0.974728,2.625934 0.536589,1.394085 0.958893,2.551422 0.938455,2.571859 -0.02044,0.02044 -1.348152,0.555919 -2.950474,1.189956 -1.602323,0.634038 -2.920679,1.160202 -2.929679,1.169255 -0.009,0.0091 -0.282802,0.480206 -0.608446,1.047007 l -0.592081,1.030547 0.139458,0.728713 c 0.297235,1.55314 0.346596,2.105573 0.352137,3.940956 0.0058,1.937196 -0.04845,2.56163 -0.35403,4.071444 -0.75111,3.711105 -2.716714,7.082972 -5.727296,9.824804 -2.858663,2.603476 -6.029177,4.099812 -9.793171,4.62192 -0.890009,0.123453 -3.62992,0.178478 -4.505677,0.09049 z m -2.415345,-6.862986 c 2.111533,-0.398191 3.992078,-2.180531 4.543683,-4.306404 0.26548,-1.023159 0.234096,-2.438622 -0.07534,-3.397762 -0.604998,-1.875289 -2.28454,-3.493059 -4.153393,-4.000635 -0.838907,-0.227846 -2.127559,-0.246918 -3.010687,-0.04456 -2.0340642,0.466082 -3.8930103,2.295147 -4.4223994,4.351315 -0.1897709,0.737077 -0.2329895,1.786851 -0.1039327,2.524518 0.2158038,1.233498 0.7187387,2.228585 1.5845855,3.135196 1.4951066,1.565497 3.4148886,2.157467 5.6374816,1.738333 z" />
  <path d="M 16.746398,66.947779 C 12.269038,66.497919 8.6314693,64.770116 5.4405904,61.577657 2.5571381,58.692773 0.84908304,55.369686 0.25397069,51.486889 -0.09584105,49.20455 -0.02003148,46.472107 0.45209617,44.345751 1.0434383,41.682481 2.2456567,39.1907 3.9947318,37.0031 4.6897739,36.133798 6.2825092,34.541369 7.149424,33.849016 c 3.061475,-2.44502 6.30333,-3.680822 10.32689,-3.936633 2.245841,-0.142786 4.543497,0.142007 6.672229,0.827019 l 0.73579,0.236772 2.291444,-2.321921 C 35.802192,19.913102 54.471617,1.1834067 54.581703,1.1598505 54.938095,1.0835903 62.961729,0.04465152 62.98839,0.07131236 63.034291,0.117213 62.34613,13.132924 62.295301,13.180243 c -0.02408,0.02242 -1.391548,0.597506 -3.038814,1.277972 -1.647266,0.680467 -3.026714,1.270791 -3.065439,1.311833 -0.03873,0.04104 -0.876519,1.834542 -1.861763,3.985557 l -1.791352,3.910936 -0.39256,0.128996 c -0.215909,0.07095 -2.421451,0.75293 -4.901207,1.515515 -2.479755,0.762586 -4.566614,1.411576 -4.637464,1.4422 -0.127895,0.05528 -0.128125,0.07076 -0.0322,2.157546 l 0.09661,2.101865 -0.433875,1.465499 c -0.238632,0.806025 -0.434275,1.506555 -0.434762,1.556734 -4.88e-4,0.05018 0.43814,1.231849 0.974728,2.625934 0.536589,1.394085 0.958893,2.551422 0.938455,2.571859 -0.02044,0.02044 -1.348152,0.555919 -2.950474,1.189956 -1.602323,0.634038 -2.920679,1.160202 -2.929679,1.169255 -0.009,0.0091 -0.282802,0.480206 -0.608446,1.047007 l -0.592081,1.030547 0.139458,0.728713 c 0.297235,1.55314 0.346596,2.105573 0.352137,3.940956 0.0058,1.937196 -0.04845,2.56163 -0.35403,4.071444 -0.75111,3.711105 -2.716714,7.082972 -5.727296,9.824804 -2.858663,2.603476 -6.029177,4.099812 -9.793171,4.62192 -0.890009,0.123453 -3.62992,0.178478 -4.505677,0.09049 z m -2.415345,-6.862986 c 2.111533,-0.398191 3.992078,-2.180531 4.543683,-4.306404 0.26548,-1.023159 0.234096,-2.438622 -0.07534,-3.397762 -0.604998,-1.875289 -2.28454,-3.493059 -4.153393,-4.000635 -0.838907,-0.227846 -2.127559,-0.246918 -3.010687,-0.04456 -2.0340642,0.466082 -3.8930103,2.295147 -4.4223994,4.351315 -0.1897709,0.737077 -0.2329895,1.786851 -0.1039327,2.524518 0.2158038,1.233498 0.7187387,2.228585 1.5845855,3.135196 1.4951066,1.565497 3.4148886,2.157467 5.6374816,1.738333 z" />
</svg>
