<?xml version="1.0" encoding="UTF-8"?>
<svg xmlns="http://www.w3.org/2000/svg" viewBox="0 0 444 343">
  <g>
    <path d="m411.07,343H33.92c-1.27-.36-2.53-.82-3.82-1.06-14.91-2.78-24.16-11.56-27.95-26.19-.24-.93-.76-1.78-1.15-2.67,0-69.46,0-138.93,0-208.39,1.99.03,3.99.07,5.98.07,142.98,0,285.95,0,428.93,0h7.8c0,3.38,0,6,0,8.62,0,64.63.02,129.26-.02,193.89-.01,16.71-10.03,30.03-25.37,34.04-2.4.63-4.83,1.12-7.25,1.68Zm-222.36-204.69h-7.21c-39.37,0-78.74,0-118.11,0-11.6,0-11.36,0-11.62,11.48-.11,4.88,1.48,6.09,6.21,6.07,41.53-.17,83.06-.1,124.59-.1,1.16,0,2.49.33,3.44-.13,1.08-.52,2.52-1.7,2.58-2.67.27-4.6.12-9.22.12-14.64Z"/>
    <path d="m1,31.91c.33-.56.8-1.09.96-1.69C6.95,11.57,18.94,2.42,38.59,2.42c115.38-.01,230.75-.02,346.13.02,9.8,0,19.67-.38,29.38.66,16.34,1.76,28.12,14.48,29.46,30.82.42,5.12,0,10.3.19,15.44.11,2.92-1.27,3.84-3.88,3.78-1.49-.03-2.99.03-4.49.03-142.47,0-284.95,0-427.42-.01-2.32,0-4.64-.21-6.96-.32,0-6.98,0-13.96,0-20.94Z"/>
  </g>
</svg>