<?xml version="1.0" encoding="UTF-8"?>
  <svg xmlns="http://www.w3.org/2000/svg" viewBox="0 0 544 728">
    <path d="m285.72,221.26c10.54,4.82,20.78,9.6,31.1,14.18,6.91,3.07,13.94,5.9,20.94,8.77,3.78,1.55,4.58,1.17,4.98-2.93.74-7.62,1.18-15.27,1.76-22.91.92-12.04,1.65-24.09,2.84-36.1,1.53-15.48,3.42-30.93,5.16-46.39.06-.49.12-.99.22-1.48.95-4.78,2.12-5.3,6.43-3.03,1.61.85,3.28,1.63,5,2.23,3.1,1.09,4.33.03,4.26-3.24-.08-3.55-.32-7.15.15-10.65.55-4.09,2.82-7.32,6.96-8.7,4.21-1.4,7.9.06,10.64,3.14,4.14,4.65,7.87,9.67,11.78,14.53.16.19.27.42.42.62,3.27,4.58,4.68,4.58,8.21.08,1.95-2.49,3.83-5.05,5.98-7.36,5.87-6.32,13.3-9.59,21.8-10.44,5.45-.55,9.12,1.69,11.34,6.7.71,1.59,1.23,3.27,1.9,4.88,1.38,3.29,3.83,4.86,7.44,4.71,2.07-.09,4.17-.13,6.22.08,4.17.43,7.16,2.85,7.69,6.97.45,3.49.13,7.11-.06,10.65-.28,5.14.48,6.42,4.98,8.91,1.02.57,1.99,2.08,2.13,3.26.49,4.1,2.81,6.4,6.49,7.73,3.51,1.27,7.02,2.57,10.48,3.98,3.73,1.51,4.38,2.49,4.08,6.42-.9,12.04-1.88,24.07-2.83,36.1-1.59,20.12-2.16,40.26-1.46,60.43,1.06,30.36,4.89,60.4,10.28,90.26.5,2.78,1.11,5.55,1.47,8.35.48,3.76-.19,4.63-4.03,4.88-5.07.33-10.16.63-15.23.59-19.68-.15-39.27,1.33-58.87,2.89-14.93,1.19-29.93,1.82-44.9,2.01-8.28.11-16.59-1.12-24.88-1.91-4.23-.41-7.01-3.32-7.61-8.03-1.26-9.82-2.33-19.67-3.48-29.51-.05-.41-.05-.83-.09-1.25-.68-7.21-2.28-8.49-9.47-9.75-9.16-1.6-18.24-3.74-27.35-5.64-.41-.09-.81-.2-1.22-.25-3.38-.47-4.16.16-3.78,3.55.95,8.44,1.98,16.86,3.09,25.28,3.05,23.19,6.49,46.33,9.17,69.56,3.7,31.98,5.24,64.08,3.58,96.27-.92,17.91-3.31,35.66-6.72,53.24-4.54,23.42-9.53,46.76-14.29,70.13-1.05,5.16.1,7.57,4.9,9.84,9.06,4.29,17.62,9.4,25.68,15.34,1.8,1.32,3.56,2.79,5.01,4.48,3.66,4.25,3.22,8.77-1.62,11.59-3.6,2.09-7.69,3.59-11.75,4.62-11.21,2.82-22.56,2.06-33.7-.28-8.35-1.75-16.58-4.26-24.69-6.97-7.27-2.43-14.39-4.22-22.21-3.11-7.28,1.03-13.14-2.41-17.66-7.94-6.33-7.74-9.1-16.8-8.58-26.7,1.04-19.63,2.39-39.24,3.5-58.86.72-12.67.16-25.31-1.16-37.92-.16-1.57-.1-3.17-.34-4.73-.13-.86-.69-1.65-1.05-2.47-.57.62-1.39,1.14-1.68,1.88-1.59,4.1-3.18,8.21-4.53,12.39-6.53,20.26-12.28,40.81-19.72,60.74-5.21,13.96-12.6,27.13-19.21,40.55-2.42,4.9-6.87,8.09-11.22,11.19-5.2,3.71-9.97,7.73-12.64,13.8-6.8,15.41-19.68,22.92-35.32,26.53-16.67,3.85-30.77-5.16-34.69-21.83-1.39-5.89-1.54-11.56,1.13-17.25,1.75-3.73,3.32-7.7,2.21-12.05-.18-.72-.3-1.49-.63-2.15-3.31-6.58-3.12-13.39-1.04-20.19,3.65-11.92,7.79-23.71,11.2-35.7,9.91-34.88,20.05-69.73,26.14-105.53,3.11-18.25,5.37-36.65,7.72-55.02,1.43-11.23,2.47-22.52,3.35-33.8.45-5.8.24-11.66.13-17.49-.06-3.34-1.74-5.26-5-5.97-2.67-.59-5.45-.73-8.11-1.33-15.31-3.45-28.36-11.02-39.1-22.34-15.65-16.48-20.46-35.96-15.8-58.15,6.56-31.2,21.58-57.08,47.01-76.62,13.23-10.17,28.01-15.52,44.92-14.01,1.65.15,3.36.12,4.98-.17.79-.14,1.98-1.05,2.01-1.65.03-.73-.84-1.79-1.59-2.17-1.08-.54-2.39-.68-3.62-.84-13.76-1.74-24.26-13.74-21.56-30.21.82-5.01.24-9.79-1.31-14.51-3.46-10.5-7.37-20.87-10.38-31.49-4.3-15.17-4.09-30.28,2.58-44.92,3.51-7.69,8.48-14.35,14.72-19.99,3.82-3.45,7.03-7.27,9.68-11.66,5.14-8.52,12.51-14.04,22.18-16.64,6.35-1.71,11.82-5.28,17.17-8.99,2.25-1.56,4.58-3.04,6.98-4.37,5.46-3.02,10.73-2.4,15.12,1.89,3.6,3.53,6.87,7.46,9.9,11.5,3.25,4.33,6.59,5.83,11.4,3.52,8.17-3.92,15.18-2,21.68,3.52,4.06,3.45,7.96,7.1,12.11,10.43,2.31,1.85,4.87,3.51,7.55,4.74,2.68,1.24,5.55.73,7.54-1.6,1.87-2.19,3.5-4.62,4.99-7.09,2.5-4.18,5.04-4.71,8.57-1.36,7.86,7.47,10.48,16.64,8.2,27.11-1.32,6.07-1.31,11.74,1.74,17.39,2.64,4.88,1.84,10.03-.16,14.99-.65,1.61-1.38,3.24-2.35,4.67-2.37,3.52-2.37,7.08-.85,10.92,4.64,11.72,7.21,23.87,7.48,36.5.19,8.61-.69,17.1-2.36,25.56-.58,2.96-.53,6.1-.32,9.14.34,5.02-.58,9.28-5.33,11.98-.61.35-1.15.96-1.52,1.58-3.02,5.07-6,10.17-9.36,15.9Zm-53.64,269.27c1.17,2.66,1.08,4.67-.27,6.81-2.96,4.72-5.77,9.54-8.5,14.4-2.61,4.66-4.13,9.53-2.81,15.02,2.95,12.19,3.83,24.64,4.43,37.11,1.04,21.66.14,43.29-1.36,64.91-.38,5.48-.55,10.98-.71,16.47-.1,3.75,1.01,5.15,4.64,5.93,3.66.79,7.34,1.45,11.02,2.11,12.19,2.17,24.41,3.21,36.76,1.23,8.16-1.31,12.93-5.65,14.7-13.52,2.79-12.41,5.52-24.84,8.55-37.19,7.62-31.05,12.68-62.5,13.7-94.46.5-15.79-.3-31.63-.74-47.44-.12-4.57-2.3-5.54-6.26-3.14-18.91,11.45-39.77,16.16-61.5,17.69-13.14.92-26.29.92-39.43-.41-14.41-1.46-28.52-4.32-41.68-10.41-9.26-4.28-18.04-9.63-27.06-14.45-5.76-3.08-6.92-2.43-7.62,4.05-.61,5.62-1.02,11.27-1.92,16.84-5.77,35.8-13.85,71.09-23.4,106.06-5.58,20.43-11.01,40.91-16.29,61.42-2.13,8.28-.18,12.25,7.21,16.63,13.14,7.79,27.44,10.5,42.48,9.19,13.46-1.17,23.17-7.7,29.23-20.23,10.34-21.39,19.28-43.29,26.84-65.8,5.77-17.17,11.77-34.27,17.83-51.35,4.43-12.47,11.78-23.46,18.37-34.81.69-1.18,2.42-1.75,3.76-2.66Zm195.92-118.51c0-.19,0-.39,0-.58,19.15-.66,38.29-1.3,57.44-1.97,2.83-.1,5.66-.24,8.48-.45,2.23-.17,3.52-1.38,3.58-3.69.03-1,.08-2.01-.04-3-1.35-10.8-2.8-21.6-4.1-32.41-1.5-12.47-3.31-24.93-4.2-37.44-1.05-14.78-1.78-29.62-1.7-44.42.09-16.39,1.17-32.78,1.97-49.16.32-6.56,1.15-13.09,1.57-19.65.19-2.99-.97-4.4-3.89-5.28-1.98-.6-4.05-.88-6.04-1.46-4.77-1.4-8.1.49-11.02,4.2-2.25,2.85-4.73,5.67-7.6,7.84-5.39,4.09-9.72,2.48-11.3-4.05-.74-3.06-2.31-4.81-5.26-5.58-2.35-.61-4.07-1.89-5.18-4.23-.72-1.5-2-3.04-3.43-3.84-3.23-1.81-6.6-3.55-10.12-4.64-21.73-6.69-43.52-13.2-65.3-19.73-3.71-1.11-4.99-.26-5.37,3.5-.62,6.04-1.21,12.09-1.66,18.14-.98,12.95-1.88,25.9-2.79,38.86-1.14,16.28-2.26,32.56-3.36,48.84-.36,5.23-1.2,10.5-.86,15.69.79,12.2,2.17,24.36,3.28,36.55,1.83,19.98,3.64,39.95,5.44,59.93.53,5.86,2.72,8.02,8.54,8.03,20.98.02,41.97,0,62.95,0Zm-210.24-120.48c-.03-.24-.06-.47-.1-.71,1.43-.28,2.85-.61,4.29-.83,6.15-.95,12.45-1.32,18.44-2.89,18.05-4.72,31.6-15.96,42.32-30.83,4.1-5.69,8.13-11.35,13.4-16.06,2.51-2.24,3.34-5.18,2.53-8.64-1.05-4.48-1.23-8.97-.32-13.6,2.21-11.29,2.31-22.66.43-34.03-2.53-15.32-8.51-29.28-16.5-42.51-2.52-4.17-5.22-7.45-10.25-9.05-6.53-2.08-10.81-7.55-15.41-12.38-2.87-3.01-5.78-5.99-8.86-8.78-2.58-2.34-5.69-2.57-8.88-1.25-1.23.51-2.45,1.06-3.58,1.75-6.7,4.1-13.5,4.62-20.64,1.03-3.45-1.74-7.22-2.47-11.15-2.02-6.59.75-11.32,4.56-15.37,9.39-3.6,4.3-8.14,5.82-13.58,5.06-5.11-.71-10.22-1.47-15.33-2.12-6.7-.86-11.32,1.98-13.6,8.31-1.8,5-.2,9.09,3.35,12.72,2.48,2.54,4.84,5.18,7.39,7.93-3.26,2.89-6.58,6.04-10.12,8.93-4.67,3.81-8.28,8.41-10.9,13.79-1.54,3.15-1.81,6.5-.93,9.98,4.65-9.1,11.18-16.64,18.23-23.77.84-.85,2.18-1.21,3.7-2.01-.02,3.48-2.19,4.69-3.7,6.19-5.71,5.71-9.77,12.6-14.68,19.41,4.95-4.07,9.45-7.89,14.1-11.5,1.15-.89,2.81-1.13,4.24-1.67.2.28.4.57.61.85-.8,1.3-1.47,2.71-2.43,3.87-4.88,5.9-9.82,11.75-14.76,17.6-3.6,4.26-5.32,8.69-1.18,13.57-3.71,4.05-5.79,8.4-4.68,13.82,1.89,9.29,8.45,15.72,18.02,17.39,4.33.76,7.74,2.79,10.43,6.24,8.33,10.67,18.15,19.7,29.6,26.95,1.24.78,2.15,2.08,3.21,3.14-.17.35-.33.71-.5,1.06-4.45-.93-8.9-1.86-13.4-2.81-.78,3.6,1.16,6.06,3.26,8.32,7.46,8.01,16.94,12.45,27.35,15.12,4.97,1.27,10.01,1.81,15.05.4,1.04-.29,1.93-1.13,2.88-1.72-.07-.26-.15-.51-.22-.77-3.91-.96-7.83-1.92-11.74-2.88Zm-98.02,51.03c2.09-.52,3.8-1.23,5.54-1.32,2.51-.12,3.81-1.25,4.32-3.61.42-1.95.98-3.86,1.4-5.81.33-1.53,1.19-2.41,2.74-2.34,1.8.08,1.59,1.55,1.76,2.77.48,3.45.95,6.91,1.53,10.35.29,1.74,1.4,2.65,3.22,2.91,2.38.34,4.77.76,7.08,1.41,10.55,2.98,20.03.95,28.65-5.73,4.8-3.72,9.73-7.28,14.58-10.94,2.05-1.54,2.01-3.83-.13-5.28-1.02-.69-2.19-1.18-3.32-1.71-23.4-10.83-37.61-28.24-39.24-54.69-.22-3.55-.49-7.11-.83-10.65-.24-2.42-1.87-3.49-4.12-3.42-2.15.06-4.32.29-6.43.71-13.65,2.71-24.99,9.75-35.12,18.98-14.23,12.98-23.66,29.08-30.4,46.9-3.12,8.25-6.27,16.54-6.9,25.43-1.49,20.78,5.91,38.04,22.1,50.96,14.83,11.83,31.65,18.13,51.07,14.49.82-.15,1.63-.33,2.46-.44,8.14-1.13,8.95-2.61,5.49-10.15-3.47-7.54-4.69-15.46-1.91-23.29,1.89-5.33,4.82-10.38,7.88-15.18,4.23-6.65,3.92-8.1-3.78-10.15-6.82-1.82-13.66-3.58-20.53-5.21-2.83-.67-5.02-2.07-7.1-5Zm221.67-29.08s.04,0,.06,0c0-4.25.05-8.49-.01-12.74-.07-4.41-1.96-7.53-6.23-9.26-11.4-4.64-22.71-9.46-34.09-14.15-5.07-2.09-10.16-4.15-15.33-5.99-4.2-1.49-5.46-.47-5.46,4.02,0,3,.18,6,.14,8.99-.15,11.94-4.41,22.03-13.49,29.99-3.19,2.79-6.29,5.71-9.22,8.77-3.74,3.9-4.68,8.66-3.69,13.9,3.68,19.51,5.24,39.24,5.92,59.05.57,16.56.99,33.13,1.53,49.69.14,4.33.23,8.67.74,12.96.59,4.96,2.51,6.51,7.52,6.23,9.57-.53,19.04-1.84,28.23-4.65,7.17-2.19,9.09-5.1,8.17-12.6-1.3-10.56-2.75-21.1-4.18-31.64-2.07-15.16-4.22-30.32-6.25-45.49-.72-5.36-1.34-10.74-1.62-16.14-.07-1.38.96-3.25,2.08-4.15,1.4-1.12,2.95.04,4.17,1.18,4.11,3.85,9.05,6.23,14.45,7.52,6.38,1.52,12.85,2.68,19.26,4.07,5.98,1.3,7.82-.09,7.91-6.21,0-.5.01-1,0-1.5-.19-9.7-.42-19.4-.58-29.1-.07-4.25-.01-8.5-.01-12.74Zm-209.33,133.22c-.23.99-.41,1.54-.48,2.11-.73,6.28-1.3,12.58-2.21,18.83-.82,5.64,1.23,9.72,5.97,12.64,1.13.7,2.15,1.57,3.28,2.28,6.97,4.35,13.62,9.42,21.01,12.87,16.58,7.72,34.32,11.53,52.52,13,20.23,1.63,40.25-.14,60.04-4.46,11.53-2.52,22.52-6.48,32.51-12.92,3.26-2.1,6.17-4.72,6.17-8.83.01-5.14-.48-10.3-1.04-15.42-.3-2.74-2.2-3.65-4.49-2.17-8.76,5.63-18.52,7.69-28.7,8.13-4.64.2-9.3,0-13.95-.19-2.53-.11-3.88-1.82-4.19-4.21-.39-3.05-.76-6.11-.87-9.18-.76-20.64-1.4-41.28-2.2-61.91-.2-5.04-.88-10.07-1.34-15.13-1.35-.16-2.3-.28-3.31-.4,0,3.49.37,6.85-.07,10.1-1.11,8.12-5.7,14.26-11.97,19.22-6.37,5.04-13.31,9.05-21.17,11.41-5.18,1.55-6.96,4.21-6.95,9.59,0,.83.12,1.66.12,2.49-.07,9.91.03,19.82-.3,29.71-.17,5.2-2.79,7.45-8,7.64-2.32.08-4.65-.18-6.98-.36-16.49-1.34-32.01-5.71-46.16-14.55-5.56-3.48-11.26-6.73-17.24-10.28Zm87.54-50.66c.15.15.29.3.44.45-1.37,1.55-2.94,2.97-4.06,4.68-2.04,3.1-4.13,6.23-5.62,9.61-1.26,2.86.53,5.74,3.57,6.54,1.26.33,2.66.47,3.95.3,11.71-1.54,20.72-7.4,26.84-17.46,2.99-4.92,2.21-9.88-.86-14.58-7.91-12.1-21.29-15.87-35.36-9.96-2.64,1.11-5.28,2.23-8.46,3.58,11-11.58,27.32-16.37,41.67-8.02,2.6,1.51,5.39,2.69,8.09,4.02.3-.15.59-.3.89-.45,0-2.78.54-5.69-.11-8.31-1.61-6.45-5.55-11.24-11.78-13.96-8.36-3.65-17.1-4.47-25.92-2.63-5.25,1.1-10.28,3.22-15.05,4.76,1.88-3.9,5.35-6.74,9.97-8.63,10.53-4.31,20.93-8.96,31.42-13.38,6-2.53,9.83-7.24,13.15-12.54,1.56-2.48,1.5-5.03.11-7.58-2.28-4.18-6.33-5.4-11.38-3.15-24.71,10.97-48.57,23.47-70.35,39.64-9.32,6.92-16.98,15.08-20.72,26.47-5.62,17.08,6.62,35.15,24.58,36.16,13.15.74,24.91-3.32,36.01-9.88,3.05-1.8,6-3.77,9-5.67Zm-92.27-215.57c6.7-8.92,13.26-17.62,19.77-26.34,1.18-1.57,1.27-3.12-.31-4.67-2.01-1.97-3.81-4.15-5.78-6.17-8.61-8.85-1.59-23.71,8.5-25.65,4.68-.9,9.13-.65,13.7,1.07,3.26,1.23,6.94,1.96,10.41,1.9,6.05-.1,10.16-4.09,13.79-8.49,1.91-2.31,3.61-4.8,5.63-7,4.4-4.77,7.67-5.5,13.61-2.93,3.96,1.72,7.79,3.75,11.64,5.73,5.57,2.86,10.92,2.83,16.31-.61,5.82-3.71,11.23-3.24,16.52,1.24,2.03,1.72,3.77,3.76,5.76,5.53,5.03,4.47,9.8,9.31,15.26,13.18,5.9,4.18,11.68,2.89,16.42-2.55,7.02-8.06,7.71-23.87,1.48-32.51-1.31-1.81-2.44-1.62-3.8-.15-1.69,1.83-3.32,3.75-5.17,5.41-4.6,4.11-9.79,4.8-15.23,1.89-2.4-1.28-4.66-2.92-6.76-4.66-4.62-3.82-9.03-7.89-13.66-11.71-4.64-3.83-9.74-4.58-15.39-2.11-7.85,3.44-12.91,1.77-17.81-5.26-2.04-2.92-4.28-5.76-6.77-8.31-5.52-5.67-9.92-6-15.89-.83-7.02,6.07-15.01,10.05-23.86,12.55-4.9,1.39-9.15,3.9-12.51,7.84-4.43,5.2-9.06,10.23-13.38,15.52-5.79,7.09-11.71,14.12-15.35,22.68-8.03,18.88-4.27,37.14,2.86,55.4Zm78.7,265.12s.07,0,.11,0c.1-1.74.19-3.49.28-5.23.28-5.51.66-11.06-2.89-15.84-1.93-2.6-3.88-5.21-6.11-7.55-.83-.87-2.48-1.37-3.74-1.33-5.98.16-11.96.83-17.94.78-4.29-.03-8.57-1.01-12.87-1.37-7.04-.59-13.91.84-20.79,2.05-7.51,1.31-7.5,1.25-8.52,8.77-.82,6.06.37,11.2,5.96,14.72,5.41,3.41,10.53,7.32,16.07,10.49,13.1,7.47,27.33,11.59,42.27,13.34,5.81.68,7.91-1.03,8.13-6.83.15-3.99.03-7.99.03-11.99Zm-54.7-183.16c1.19,14.35,6.14,27.49,16.58,38.23,8.2,8.44,18.34,13.68,29.37,17.33,2.51.83,5.1,1.57,7.72,1.93,4.27.59,8.12-.89,11.93-2.8,10.02-5.04,20.11-9.94,30.24-14.77,4.33-2.06,6.02-1.48,8.92,2.39,1.1,1.46,2.18,2.94,3.29,4.4,1.02,1.34,2.27,1.68,3.67.63,5.7-4.3,10.75-9.28,12.1-16.53.79-4.25.38-8.75.18-13.13-.07-1.59-1.11-3.14-1.71-4.71-1.62.65-3.46,1-4.82,2-7.18,5.26-14.12,10.86-21.39,16-3.84,2.71-7.93,5.41-12.32,6.92-26.3,9-57.1-7.38-64.56-34.17-1.69-6.07-5.67-9.63-11.23-11.72-4.18-1.57-7.49.66-7.94,5.11-.08.82-.01,1.66-.01,2.88Zm268.49-88.17c3.89.49,7.01.85,10.11,1.28,1.45.2,1.51,1.18.9,2.2-.86,1.42-1.87,2.75-2.79,4.13-3.32,4.93-3.17,10.06-.55,15.13,1.21,2.35,2.96,4.84,6.04,4.46,3-.36,4.5-2.85,5.5-5.52.18-.46.33-.94.46-1.42,1.39-5.21,2.95-10.38,4.1-15.64,1.14-5.22.65-10.44-1.56-15.36-2.3-5.12-6.76-7.35-12.25-6.19-9.42,1.99-15.92,7.87-20.77,15.87-1.42,2.35-2.7,4.78-4.22,7.06-1.3,1.96-2.75,1.91-4.19.07-.41-.52-.75-1.1-1.09-1.67-4.62-7.82-10.99-14.19-17.17-20.71-2.47-2.6-4.96-2.35-6.91.38-5.37,7.5-1.73,19.68,7.08,22.38,10.96,3.36,22.08,6.2,33.16,9.15,2.37.63,4.92.34,6.01-2.25,1.48-3.53,2.8-7.23-.4-10.7-.47-.51-.69-1.24-1.44-2.66Zm26.97,37.58c2.71-2.05,6.02-3.43,7.49-5.9,3.75-6.33,7.04-13,9.83-19.82,2.7-6.61-.86-12.43-7.77-13.95-4.32-.95-7.35.79-8.39,5.1-2.01,8.3-3.89,16.62-5.79,24.94-.14.6-.16,1.39.12,1.89,1.35,2.46,2.82,4.85,4.52,7.74Zm25.69-8.57c0-3.16-1.62-5.81-3.75-6.53-2.76-.94-4.17.94-5.47,2.82-2.56,3.69-5.1,7.4-7.58,11.14-3.22,4.85-3.13,4.82.8,9.26,1.44,1.62,3.05,2.04,4.54.72,2.58-2.3,5.1-4.74,7.22-7.46,2.35-3.03,3.91-6.56,4.25-9.95Zm-222.27,145.03c-.47-4.62-.78-8.83-1.38-13-.32-2.26-1.94-2.95-4.13-1.72-4.92,2.76-9.72,5.73-15.04,8.89,7.06,2,13.62,3.87,20.55,5.83Zm42.69-201.88c.6-.39.92-.52,1.14-.75,3.11-3.26,3.63-12.43.95-15.99-1.03-1.38-2.32-1.55-3.74-.86-1.71.83-3.41,1.71-5.03,2.72-2.1,1.31-2.41,2.72-.93,4.79,2.41,3.37,4.97,6.62,7.6,10.09Z"/>
    <path d="m199.85,194.81c1.35-2.83,2.46-5.8,4.09-8.45,2.46-4.02,6.27-6.21,11-6.36,20.15-.63,40.31-1.19,60.46-1.75,4.15-.12,7.71,1.35,10.38,4.56,2.38,2.86,4.59,5.87,6.87,8.81l-.45.85c-.64-.19-1.51-.17-1.89-.59-6.72-7.35-15.3-9.55-24.87-9.35-11.66.24-23.32.22-34.98.54-4.13.11-8.3.65-12.36,1.44-4.84.94-8.92,3.52-12.48,6.97-1.53,1.48-3.36,2.65-5.06,3.96-.24-.2-.48-.41-.72-.61Z"/>
    <path d="m236.64,106.53c1.74,2.42,2.66,4.7,2.37,7.58-.81,8.23,2.63,15.09,7.51,21.34,2.86,3.67,5.93,7.19,8.99,10.7,5,5.74,4.21,15.38-1.74,20.15-.71.57-1.55,1.38-2.32,1.37-1.71-.03-3.96.03-4.95-.98-.72-.73-.33-3.51.53-4.66,3.53-4.76,3.6-9.49.76-14.46-.99-1.73-2.12-3.39-3.21-5.06-3.84-5.88-7.27-11.93-8.74-18.91-1.19-5.67-.87-11.24.79-17.08Z"/>
    <path d="m220.99,130.07c-1.3.84-2.22,1.6-3.28,2.08-5.17,2.33-6.39,5.03-5.07,10.55.31,1.3-.07,2.92-.59,4.21-.63,1.59-1.74,3-2.63,4.48-6.75-3.67-8.71-8.12-7.25-16.21.35-1.96.63-3.93.81-5.91.2-2.16-.91-3.53-3-3.91-2.52-.46-5.07-.75-8.38-1.22,2.72-1.93,4.95-3.87,7.51-5.14,1.14-.57,2.97.19,4.47.44.46.08.88.45,1.3.71,5.15,3.17,10.3,6.35,16.1,9.92Z"/>
    <path d="m277.67,109.01c-.77.5-1.64.88-2.28,1.52-3.53,3.52-3.81,4.63-1.63,8.99,2.08,4.17,3.18,8.52,3.5,13.15.17,2.48-.57,4.41-2.77,5.33-2.12.88-4.15-.32-5.15-2.03-1.48-2.53-2.67-5.34-3.42-8.17-.56-2.1-1.29-3.33-3.49-3.84-2.58-.6-2.55-1.14-1.12-3.35,1.57-2.43,2.89-5.04,4.24-7.6,2.7-5.14,5.9-6.49,12.12-3.99Z"/>
    <path d="m260.55,189.03c-7.08,3.51-14.25,2.57-21.59.64,7.17-2.5,14.29-3.07,21.59-.64Z"/>
  </svg>