<svg xmlns="http://www.w3.org/2000/svg" xmlns:ffdec="https://www.free-decompiler.com/flash" ffdec:objectType="shape" xml:space="preserve" width="74.133" height="76.657"><path d="M38.227 0c-1.81-.011-3.641.397-5.147 1.078-1.157.667-1.926 1.896-2.056 3.221-.019 5.588-.024 10.951-.026 16.23l-.002-.001a10.7 10.7 0 0 0-1.21-1.752c-1.537.416-.324 2.226.078 3.162.336.841.714 1.67 1.134 2.476q.002 6.476.012 12.864c-1.108.777-1.762 1.552-.48 2.298.163-.09.321-.188.482-.283.005 3.087.006 6.4.012 9.514-.524 1.086-1.231 2.074-2.145 2.869.721.13 1.436.277 2.149.422l.002.889-.014-.022c-2.253-1.664-1.208 1.604-.113 2.52.04.072.088.137.13.207v.744c-1.236.067-2.408.272-1.74 1.468.55.243 1.14.324 1.745.334.005 4.406.016 8.551.015 13.18.248 1.7-.676 3.963.942 5.102 2.853.254 5.751.042 8.623.111 1.532-.118 3.975.596 4.34-1.5l-.016-15.111q.229-.093.437-.244l-.025-.35-.273-.25-.141-.022-.026-24.359c1.07.082 2.146.11 3.215.131-.192-1.082-1.126-1.374-2.056-1.537q.55-.296 1.107-.563c-.85-.394-1.603-.949-2.27-1.6l-.003-3.878c.988 1.883 2.629 3.398 4.707 3.75 2.116-.32 4.233-.932 6.416-.772.309-.28-.273-.495-.358-.734-2.835-2.69-4.803-6.102-6.549-9.564-.606-.83-.772-3.146-1.394-3.102-.5 1.589-1.656 2.767-2.656 4.027.233-.894.398-1.804.431-2.736-.182-1.196 1.03-3.297-.611-3.656l-.008-7.776c-.192-2.644.464-1.858-.55-4.35C42.837.724 40.552.016 38.226 0m17.977 2.11c-2.687-.086-5.363.979-6.624 3.55-1.953 4.254-.765 9.173.836 13.354 1.896-.613 3.77-1.48 5.647-2.238 1.589-1.054 3.556-.23 4.451 1.302 1.707 2.113.099 4.097-1.584 5.397-1.111 1.16-2.838 2.15-3.598 3.455 2.99 3.596 7.458 6.818 12.38 6.156 3.977-.137 6.305-4.18 6.41-7.822.159-4.4-1.38-8.68-3.542-12.443-2.304-3.997-5.663-7.37-9.832-9.391-1.317-.803-2.933-1.269-4.544-1.32m-18.354.859c1.821.008 3.668.668 4.03 1.959l.023 20.19q-.188.396-.389.787c-.262-.592-.407-1.162-.219-1.776.177-1.402-1.268.453-1.777.83-1.172 1.243-2.824 2.03-3.854 3.317a18 18 0 0 1-1.544-1.985q-.059-.078-.116-.158L33.98 4.928c.254-1.322 2.05-1.967 3.871-1.959m19.785 14.053c-.532.022-.946.33-.906 1.103.1.988.525 1.954 1.219 2.672 2.11 2.501 3.709-1.411 1.632-2.822-.377-.538-1.26-.982-1.945-.953m.985.779c.259.002.535.165.76.574 1.32 1.585-.365 2.973-1.274 1.178-.7-.704-.149-1.756.514-1.752m-44.37 6.54c-2.392-.003-4.839 1.094-6.462 2.827C4.287 30.258 1.966 34.5.913 39.031c-1.221 4.932-1.53 10.534 1.066 15.094 1.517 3.052 5.227 4.478 8.377 3.307 4.415-1.023 7.135-5.112 9.074-8.906-.343-1.207-2.377-1.336-3.412-2.086l-.988-.465c-2.02-.676-4.047-2.258-3.028-4.71.43-1.716 2.11-3.05 3.916-2.515 2.002.214 4.065.528 6.037.588.308-4.728.126-10.307-3.644-13.71-1.209-.891-2.625-1.287-4.06-1.288m19.756 4.587q.427.503.883.978c.067 1.192.385 2.448.965 3.541q-.769.75-1.578 1.446-.103.157-.262.316zm39.373 2.947q.025 0 0 0m-36.632 2.867c.447.505.972.931 1.583 1.233.19.161.245-.149.899.05.943-.042 1.83-.26 2.685-.574l.022 18.643c-2.55.992-5.177 1.836-7.898 2.115l-.004-3.601c.887.1 1.781.139 2.695.068.597-.027 1.628-.645 1.55-.451 1.53-1.364 2.03-3.815 1.805-5.776-.118-1.785-1.72-2.857-3.298-3.3a184 184 0 0 0-2.764-1.266l-.006-4.662a30 30 0 0 0 2.73-2.479m-12.834 1.961c-.317-.002-.382.59-.319 1.608-.376 3.121-.996 6.27-2.115 9.215-.608 1.37-1.161 2.77-1.95 4.05l.176.131.024.018c1.992-.665 4.066-.866 6.15-.95 3.516-1.468 4.51-6.3 3.4-9.65-1.233-1.386-3.054-2.112-4.32-3.527-.495-.612-.83-.893-1.046-.895m-9.315 2.72c-1.094.035-2.374 1.912-2.088 3.066-.262 3.434 3.974 1.24 3.17-1.313.12-.311-.038-.636-.05-.951-.265-.59-.636-.816-1.032-.803m-.654 1.034c.77.004 1.491 1.768.285 2.518-1.153.715-1.46-.905-1.049-1.7.201-.59.486-.82.764-.818M41.938 55.71l.004 3.108c-1.087-.091-2.175-.183-3.248-.385a7.1 7.1 0 0 1-2.87-.697c2.058-.566 4.149-1.166 6.114-2.026m-7.899 2.854c2.043 1.15 4.545 1.562 6.883 1.478.327-.029.671-.01 1.02.022l.006 4.248c-2.46-.974-5.461-.672-7.9.21zm4.727 9.18c1.092 0 2.178.116 3.186.38l.005 5.508h-7.9l-.006-5.236a18 18 0 0 1 4.715-.653"/></svg>