<svg xmlns="http://www.w3.org/2000/svg" xmlns:ffdec="https://www.free-decompiler.com/flash" ffdec:objectType="shape" width="682.615" height="754.786"><path d="M-328.645 74.14c-.077.007-.158-.012-.234.005-1.438.305-2.835.763-4.25 1.16 1.926.48 3.89 1.118 5.897.869.79.218 1.322.935 1.942 1.416.81 1.167 1.353 2.574 2.575 3.402.337.308.987.498.75 1.07-.442 1.457-1.077 2.952-2.337 3.892-1.449 1.128-3.366 2.091-3.868 4.009-.342.902.29 2.036 1.303 2.027.58-1.125 1.543-2.096 2.558-2.76-.945.92-1.715 2.01-2.466 3.086-.391.953.435 1.82.681 2.696.438.475.743-.307.844-.665.234-.895.887-1.6 1.71-1.988 1.657-1.179 3.16-2.85 5.305-3.052.852-.17 1.752-.267 2.64-.407-.746-1.038-1.907-1.673-2.641-2.718-.618.288-1.19.667-1.811.945.297-.609 1.045-.87 1.467-1.409.955-.917.989-2.305 1.401-3.484.16-.766.376-1.752-.17-2.396-.645-.583-1.728.09-2.25-.693-.452-.348-.426-.344.128-.399.677-.332.275-1.267-.256-1.545-.957-.744-2.234-1.228-2.775-2.385-.82-.68-1.945-.166-2.9-.357-1.105.004-2.201.098-3.243-.318m-25.273 1.083c-2.285.343-4.575.742-6.807 1.328-1.72.688-2.788 2.3-4.191 3.416-.683.413-1.59.036-2.217.625a1.33 1.33 0 0 0-.62 1.361c-.561.563-1.631.496-2.04 1.294-1.577 2.104-3.921 3.729-4.75 6.321-.116 1.802 1.304 3.148 1.997 4.684.67 1.111 1.1 2.553 2.339 3.172-.606-.077-1.443.271-1.281 1.004.201.947 1.336.938 2.086 1.129 3.214.603 6.678-.09 9.678 1.496.476.19.992.439 1.06 1 .16.513-.025 1.096.312 1.582.321.659.79 1.243 1.002 1.955.706-.728 1.609-1.28 2.243-2.059.294-.964-.762-1.542-1.107-2.318a9.33 9.33 0 0 0-4.08-3.483c1.236.353 2.614.83 3.2 2.047.579.88 1.165 1.797 2.043 2.41.579-.286.07-1.032.045-1.5-.2-1.199-.423-2.61-1.576-3.277-.64-.494-.918-1.314-1.448-1.873-.963-.565-2.159-.253-3.165-.49-.63-.44-1.185-1.032-1.95-1.278-.564-.3-1.401-.38-1.504-1.145-.642-1.493-1.269-3.016-1.623-4.605-.412-.738-1.633-.118-1.412.649-.123 1.377.19 2.737.432 4.084-.477.09-1.015-.072-1.151-.575-.659-1.132-1.963-1.909-2.261-3.22.289-1.02 1.461-1.353 2.204-1.983 1.067-.665 2.395-1.368 2.615-2.739.272-1.026 1.436-1.303 2.17-1.922.528-.413 1.25-.82 1.415-1.499-.036-.34-.36-.555.134-.652 2.848-1.38 6.15-2.077 8.542-4.275.179-.252-.026-.66-.334-.664m15.395 11.953a13 13 0 0 0-.62.004c-2.715.18-5.724-.018-8.092 1.592-1.47 1.217-2.397 2.945-3.822 4.208-.445-.74.234-1.464.47-2.13-.514-.309-.942.377-1.406.538-1.823 1.194-3.008 3.079-4.312 4.774.123.403.712.709.873.168.082-.38.414-.655.786-.726.101 1.337-.286 2.68.044 4.017.494-1.027.772-2.163 1.465-3.09.14.718.097 1.448.094 2.174 1.413-2.625 3.736-4.909 6.63-5.738 3.09-.99 6.343-1.792 9.583-1.954 2.392.03 4.837.808 6.928 2.01.9.564 1.6 1.387 2.24 2.209.603.599.239-.498.007-.755-1.123-1.972-3.085-3.554-5.387-3.809-5.248-1.373-11.195-1.1-15.853 1.896-.399.552-.944-.23-.521-.585 1.882-1.436 3.994-2.892 6.455-2.946 2.793.018 5.716-.434 8.56-.202.492.132.983.303 1.5.194-1.027-.94-2.443-1.345-3.777-1.651a10 10 0 0 0-1.845-.198m5.346 8.986q-.706.002-1.413.022c-4.832.135-9.368 2.02-13.808 3.75-4.067 1.827-7.454 4.8-10.745 7.742 0 .459.541.61.784.226 2.633-2.221 5.808-3.67 8.8-5.33.674.073-.288.584-.445.766-2.643 1.896-5.636 3.317-8.037 5.537-.289.507.068 1.102.14 1.627.201.465.837.911 1.29.754.981-1.43 2.305-2.667 3.986-3.197 2.026-.862 3.828-2.169 5.843-3.046 1.763-.568 3.62-.754 5.403-1.254 3.254-.742 6.517-1.72 9.825-1.768 2.526.163 5.065.738 7.597.44.635-.233.095-.963-.064-1.384-.413-.76-1.403-.561-2.112-.755-2.179-.27-4.377-.384-6.542-.746-.418-.047-1.095-.203-1.311-.401 1.547-.31 3.146-.142 4.705-.023 1.477.188 2.936.493 4.418.634.435-.536-.502-.743-.856-.907-2.263-1.184-4.872-1.13-7.34-1.416-.3.007-.798-.251-.209-.376 2.354-.006 4.693.03 6.995.581.283.148.912-.011.578-.359-1.003-.514-2.134-.816-3.245-1.021-1.41-.053-2.823-.099-4.237-.096m1.095 6.987-2.728.42c.469 1.059.284 2.26-.14 3.302 1.117.096 1.222 1.41 1.83 2.112.738 1.265 1.943 2.181 2.706 3.414.14.936-.7 1.633-1.043 2.439-.297.63-1.04.82-1.632.495-.532-.037-.523-.55-.232-.884.437-.678 1.217-1.595.55-2.386-.93-1.529-1.87-3.091-2.382-4.82-.133-1.189-.336-2.376-.75-3.503-3.306.574-6.551 1.512-9.699 2.653-.466.49-.1 1.235-.18 1.834.256 3.178.4 6.336.59 9.514.162 1.976.272 3.983.534 5.935 1.479 1.915 2.962 3.816 4.404 5.76 3.715-.353 7.396-1.292 10.764-2.909 1.507-.99 2.5-2.576 3.393-4.105.858-1.571.671-3.416.973-5.128.477-4.171.852-8.38.913-12.558.2-.814-.667-.621-1.202-.743-2.221-.289-4.436-.66-6.669-.842m3.156 1.372.27.07c.552.142 1.435.04 1.6.73-.399.361-1.272.075-1.452.757-.276.73.654 1.08.726 1.749.324.88.277 2.072-.614 2.609-.925.084-1.336-1.02-1.526-1.756-.048-.597-.12-1.048-.822-.932-.426-.027-1.07-.87-.408-.99.513-.05 1.09-.306 1.145-.881.255-.528.714-.911 1.081-1.356m-11.95 1.354q.102-.001.208.01c1.043.325 1.55 1.457 2.557 1.857.303-.165 1.002-.497.938.158-.021.85-1.029 1.079-1.686 1.238-.396.4.309.857.154 1.332.06.772-.474 1.95-1.416 1.59-.731-.451-.837-1.425-1.065-2.18-.08-.632.121-1.355.702-1.69-.238-.951-1.354-1.102-2.152-.847-.253.021-1.262.424-.802.065.732-.625 1.532-1.52 2.561-1.533zm-6.157.924-.305.213q-1.776 1.24-3.555 2.476c-.211 2.636 1.138 5.04 2.179 7.364.752 1.505 1.622 2.946 2.53 4.36-.27-4.805-.569-9.608-.85-14.413m23.846 1.361-.184.498c-.078 3.503-.278 7.013-.825 10.46 0 .97.586-.389.67-.74a15.7 15.7 0 0 0 .774-8.132c-.114-.701-.057-1.461-.435-2.086m-30.123 1.62-.215.146c-.418.276-1.354.51-.993 1.191.784 1.903 1.922 3.661 2.72 5.545-.269.52-.881-.023-1.132-.31-.527-.48-.88-1.103-1.252-1.702a2.07 2.07 0 0 0 .419 2.17c2.409 3.87 4.566 7.991 7.88 11.193.614.562 1.033 1.399 1.832 1.706-.228-.87-.995-1.478-1.529-2.181-.535-.528-1.078-1.024-1.372-1.738-.262-.443-.7-.993-.331-1.505 1.198.732 1.865 2.041 2.843 3.014.686.693 1.166 1.646 2.012 2.14.2-.344-.514-1.06-.782-1.498-2.91-4.023-6.044-7.99-7.845-12.672-.785-1.82-1.505-3.666-2.255-5.5m-2.436 1.532c-1.058.32-1.193 1.639-1.222 2.583.013.553.04.687-.477.724-.543.47-.489 1.303-.729 1.936a22 22 0 0 0-.385 4.574c.588 1.093 1.36 2.071 2.012 3.125.686-1.158.426-2.647-.432-3.64-.542-.885.382-1.63.72-2.383.764-1.263 1.122-2.697 1.474-4.112.275-.783.515-1.79-.2-2.42-.177-.236-.457-.412-.761-.387m17.196 3.642a.2.2 0 0 1 .066.003c.621.28-.121 1.048.062 1.477.51.632 1.44.427 2.129.7 1.74.332 3.509 1.06 5.294.59a47 47 0 0 0 3.296-.653c.23-.39-.005-.93.287-1.268.72.284 1.138 1.023 1.668 1.546.392.743-.39 1.338-.6 2.007-.223.426-.524.94-.933 1.15-.216-.28.064-1.325-.447-.908-1.414.818-2.733 1.861-4.408 2.098-.827.061-.913.468-.036.482.481.073 1.24-.12 1.502.375-.248.64-1.067.89-1.678 1.096-.637.11-1.66.02-1.851-.717-.022-.59.776-.677.965-1.043.545-.005-.643-.112-.862-.139-2.184-.338-3.978-1.665-5.914-2.62-.585.404-.128 1.15-.367 1.661-.565.421-.855-.46-.875-.902-.203-.905-.967-2.084-.063-2.842.838-.7 1.699-1.392 2.575-2.035.063-.015.125-.05.19-.057zm-.509 2.7c-.4 0-.795.555-.302.76 1.968.71 3.854 1.953 6.034 1.84 1.502.096 2.944-.385 4.272-1.042.556-.23 1.1-.488 1.635-.765 0-.714-.846-.336-1.238-.242-2.094.38-4.234.984-6.368.423-1.362-.235-2.67-.802-4.033-.974m16.124 3.951c-.875.352-.966 1.444-1.483 2.129-1.11 2.167-2.636 4.165-4.683 5.518-.797.64-1.532 1.352-2.252 2.076.854.24 1.424 1.476 2.422 1.062 2.497-1.686 4.653-3.959 5.947-6.703a69 69 0 0 0 1.656-2.913c-.556-.359-.813-1.285-1.607-1.169m2.39 2.295-.101.244c-1.318 3.053-4.035 5.132-6.176 7.574-.385.258-.344.897.174.942.638.149 1.206.637 1.894.549 1.791-2.726 4.263-4.91 6.197-7.52.278-.39-.515-.651-.763-.92-.415-.28-.826-.566-1.225-.869m-29.594.284-.164.154c-.459.527-1.482.967-1.185 1.818 1.764 2.236 4.2 4.074 5.216 6.835.642 1.882 1.228 3.784 1.874 5.665 2.484-.403 4.968-.684 7.44-.44.575.024 1.15.015 1.724.01.9-1.458 2.06-2.759 2.765-4.333-.075-.64-.844-.56-1.187-.186a7.4 7.4 0 0 1-2.254 1.281c1.026-.783 2.067-1.554 2.984-2.468.028-.716-.807-.658-1.271-.471-1.996.358-4.012.756-6.048.45-.984-.057-1.968-.088-2.952-.126.45.601.982 1.131 1.552 1.62-2.512-1.09-4.098-3.395-5.328-5.708-.951-1.445-2.102-2.74-3.166-4.101m-1.807 2.404a.2.2 0 0 0-.076.008c-.476.38-.96.866-1.606.997-.853.268-1.745.352-2.603.603.792 2.416 1.478 4.885 2.684 7.138a18.4 18.4 0 0 1 6.387-2.959c-1.604-1.825-3.479-3.484-4.582-5.681a.33.33 0 0 0-.204-.105zm34.507 2.373q-.8-.009-1.6.02c-2.027.67-3.168 2.677-4.06 4.476.017.578.807.535 1.06.985.666.558 1.274 1.179 1.93 1.747-.407 1.633-1.408 3.002-2.16 4.48 2.462.658 4.989 1.584 7.574 1.113 1.272-.161 2.835-.378 3.46-1.665 1.074-2.2 1.889-4.525 2.658-6.847.163-.533.537-1.12-.15-1.429-1.17-1.062-2.344-2.33-3.914-2.744-1.6-.024-3.199-.121-4.798-.136m-15.127.225c-.114.003-.328.052-.457.021-2.35.71-4.824.926-7.243 1.313.475.747 1.397.785 2.186.697 1.905-.015 3.813-.698 5.363-1.775.276-.216.264-.26.15-.256m-24.967.11c-.041-.004-.096.024-.174.103-2.111 1.12-4.497 2.424-5.285 4.849-.352.47-.128 1.17.449 1.318 1.125.689 2.472.752 3.535 1.513.917.612 2.065.692 3.122.507.66-.166.99-.825 1.503-1.211.354-.61-.448-1.128-.632-1.67-1.01-1.561-1.73-3.208-2.3-4.96-.1-.131-.095-.436-.218-.449m26.789 3.345.103.345c-.396.023-.916.06-.984.56-.676 1.14-1.335 2.29-1.998 3.438 2.975 1.539 6.127 2.768 8.898 4.676 1.052-1.698 2.108-3.397 3.067-5.15-2.015-1.479-4.242-2.754-6.723-3.227q-1.181-.323-2.363-.642m-16.518.492c-.77.22-1.435.73-2.174 1.051-2.023 1.034-3.968 2.29-5.583 3.89-.37.616.404 1.093.536 1.652.357.717.725 1.429 1.135 2.118 2.814-1.198 5.632-2.385 8.43-3.617-.652-1.675-1.318-3.36-2.035-4.985a.42.42 0 0 0-.309-.11m40.549 1.879-.236.517c-.942 1.974-1.77 4.017-2.782 5.947-.737.971-1.731 1.719-2.53 2.616-1.151 1.912-1.476 4.178-2.48 6.163a23 23 0 0 0-.728 1.929c4.003.002 8.006.03 12.008-.026-.512-4.14-.834-8.329-1.99-12.354a106 106 0 0 0-1.262-4.792m-57.52.367q.09.289.176.578c.727 3.037 1.02 6.16.768 9.25-.148 2.234-.396 4.46-.512 6.695 1.34.375 2.75.104 4.11.186.575-.266.341-1.047.6-1.53.76-3.372 1.774-6.696 2.411-10.1.132-.581-.322-1.031-.851-1.154-1.66-.711-3.404-1.336-4.77-2.564-.638-.46-1.289-.905-1.931-1.361m-2.189 1.98c-1.551.741-2.945 1.964-3.495 3.635-1.007 2.25-1.838 4.604-2.308 7.025-.14 1.378.136 2.751.23 4.124 2.129.09 4.259.043 6.388.037.54-.726.359-1.721.434-2.574-.04-2.813-.645-5.602-.061-8.376.09-1.042.41-2.23-.09-3.194-.294-.282-.67-.736-1.098-.677m37.36 2.264-.003.428c-.012 4.217.114 8.433.21 12.648 1.63.026 3.263.067 4.894.026-.172-2.24-.187-4.5-.629-6.711-.26.431-.562.843-.738 1.32.26-1.606.51-3.216.586-4.844-1.495-.869-2.991-1.753-4.32-2.867m-13.49 1.305-4.653 1.918c-.308 2.399-.273 4.82-.334 7.234 3.173-.082 6.36-.132 9.485-.742 2.163-.322 4.33-.622 6.496-.922v-6.82c-3.664-.215-7.337-.485-10.995-.668m-7.34.254-.274.072c-.795.256-2.11.37-2.252 1.332-.246-.62-1.034-.234-1.51-.2-1.163-.166-1.827 1.109-1.982 2.085-.203 1.156.565 2.173.783 3.25-.3-.976-.682-1.922-1.05-2.873-.569 2.255-1.487 4.44-1.702 6.771.077.341-.276 1.172.3 1.034a107 107 0 0 0 3.233-.073c.03-1.566-.26-3.12-.703-4.617.508 1.596 1.035 3.182 1.559 4.773 1.006.016 2.008-.06 3.011-.113.209-3.814.435-7.625.586-11.441m26.828.777-.071.07-.007.009c-.638.41-.755 1.195-.55 1.877.204 2.82.412 5.646.677 8.463 1.902-.005 3.805-.001 5.707-.06 1.281-3.122 2.387-6.334 4.082-9.267-1.004.033-1.986-.145-3.002-.029-1.265 1.993-2.495 4.063-4.115 5.78-.564-.027.114-.676.166-.95.867-1.616 1.839-3.186 2.464-4.918-1.777-.36-3.566-.655-5.351-.975m-26.19 8.056a1 1 0 0 0-.193.02h-.022l-.021.004c-.68.262-.348 1.205-.559 1.746.138.752 1.022.413 1.535.475 1.892.021 3.784.061 5.676.045-.37-.404-.254-1.03.284-1.204.947-.48-.395-.328-.795-.257-1.63.185-3.368.552-4.901-.153-.226-.375-.569-.677-1.005-.676m17.502.407c-3.047.548-6.123.998-9.16 1.561-.894.327.573.424.92.378l10.603.127c.258-.49-.195-.906-.673-.646-.417-.115-1.142.251-1.333-.25-.031-.353.137-1.146-.357-1.17" style="display:inline;fill:#000;fill-opacity:1" transform="translate(3596.538 -711.892)scale(9.6023)"/></svg>