<svg xmlns="http://www.w3.org/2000/svg" xmlns:ffdec="https://www.free-decompiler.com/flash" ffdec:objectType="shape" xml:space="preserve" width="396.238" height="335.904"><path d="M329.808 0q61.07 55.025 42.386 137.536 7.91-7.804 12.508-19.288 3.337-8.33 6.017-22.125 1.735-.158 2.602.946.578.788.814 2.338l1.446 9.487q.788 5.544.63 9.486-1.629 40.204-23.124 71.37l-2.627 3.494-3.049 3.89q7.91-2.05 14.978-7.99 3.89-3.284 11.799-12.166.972 6.596-.5 12.824-3.547 14.873-16.554 27.118-8.908 8.383-20.97 15.03-9.827 5.44-23.518 10.617-4.099 1.577-5.754 2.47 8.356 1.577 18.998.972l19.156-1.997-1.024 1.34-1.078 1.314q-6.175 6.753-14.426 12.56-7.095 5.02-16.45 9.802-12.56 6.412-30.35 11.51l-1.656.368 1.735-2.786 23.728-35.868q2.838-4.284 2.786-6.044-.053-1.735-3.18-5.702l-7.41-9.54q-.526-.709-.867-1.576-.342-.946-.316-1.708l1.682-25.095q.999-14.163 1.97-25.068.158-1.682 1.525-3.916l2.523-3.757q14.163-21.653 20.102-45.592 8.776-35.422.683-70.87-4.546-19.918-15.32-40.283l-.499-1.34-.42-1.446zm-31.533 211.822q-.735-5.15-4.151-8.54-2.68-2.628-7.884-4.835-7.068-3.022-15.346-3.31-6.858-.237-15.608 1.444-19.498 3.706-35.659 11.379l-1.708.735q-1.025.447-1.55.92-1.787 1.63-3.758 1.55-1.498-.052-3.968-1.26-14.505-7.043-28.51-17.291-12.588-9.198-25.437-21.495-4.757-4.546-10.433-10.511l-10.116-10.853q-17.238-18.552-29.904-45.407-1.76-3.81-2.628-5.413-.867-1.63-.63-2.917.21-1.34 1.629-2.628 7.91-7.226 18.026-13.56 8.566-5.333 19.84-10.72 15.766-7.49 33.897-10.669 16.292-2.864 35.396-2.365l2.47.263-24.596 43.62 6.491 6.754q3.863 3.994 6.753 6.49 3.101 2.654 4.336 5.23 1.393 2.942.788 6.648-.262 1.55-.184 4.02l.106 4.467 3.39-6.99q1.944-4.02 3.468-6.595 1.498-2.47 1.261-4.389-.262-1.839-2.233-3.994-2.102-2.26-5.098-6.149l-4.94-6.306q-1.025-1.235-.999-2.339.026-1.077 1.025-2.286l27.644-34.345q.42-.473 1.524-.657l1.892.053q38.943 9.434 64.327 39.232 12.403 14.532 17.422 29.904 1.025 3.127.552 7.778l-7.936 71.186q-.21 1.813-.946 2.575-.788.814-2.496.893l-2.628.263zM183.153 335.668q-4.415.157-8.12-2.234-4.73-3.022-13.401-8.303l-13.402-8.252q-.84-.551-1.524-1.576-.683-1.025-.92-2.05-1.182-4.993-2.312-12.376-.315-1.998-1.366-2.97-1.051-.92-3.127-1.103-9.119-.789-18.526-2.103-.946-.131-1.944-.762-1.025-.657-1.525-1.445l-18.289-28.17-18.262-28.195q-.736-1.13-.736-1.997.026-.867.762-1.918l4.572-6.57 4.546-6.595q1.656-2.287 1.261-5.124-6.017-45.119-10.59-80.909-.183-1.314.08-2.785.236-1.445.814-2.68 3.153-6.701 10.458-21.18.999-1.97 1.761-1.997.788-.053 1.866 1.84l6.57 11.667 6.595 11.614q5.518 9.381 13.77 19.34 6.122 7.384 15.923 17.606 11.589 12.088 22.31 21.285 12.35 10.59 24.753 18.394 4.783 3.022 11.694 6.727l11.956 6.307q1.182.63 1.603 1.287.473.736.368 2.076-.841 10.222 2.916 20.181 3.233 8.593 10.17 17.554 3.784 4.913 9.17 7.173 5.44 2.286 11.747 1.472l11.325-1.524q6.307-.999 11.168-2.26 24.096-6.254 29.588-33.005l.657-4.388q.342-2.917.657-4.388.132-.657.762-1.314.605-.683 1.21-.867 2.863-.92 5.439-.762.972.052 1.944.525 1.051.473 1.498 1.157l3.495 5.544 3.416 5.597q.683 1.078.315 2.076l-1.05 1.656-17.633 26.566-17.5 26.645q-1.341 2.076-2.813 3.075-1.602 1.05-3.915 1.287l-8.172 1.051-8.199 1.157q-1.865.236-2.838 1.182-.998.92-1.287 2.76-1.34 8.145-2.392 12.902-.21.893-.84 1.786-.631.92-1.393 1.393l-13.323 8.172q-8.146 4.94-13.165 8.383-2.286 1.577-4.861 2.155l-5.072.446zm78.018-82.327q.078 2.706-1.157 3.889t-3.573.578q-.63-.158-1.262-1.209l-1.024-1.84-.605-1.76q-.446-.972-1.655-.867l-3.259-.447q-1.892-.131-2.943 1.813-1.103 2.076-3.074 2.076-1.997.027-3.311-1.997-.526-.867.263-3.363l.551-2.024q.053-1.077-.946-1.918-1.471-1.76-2.26-2.444-1.418-1.209-3.39-.315-1.366.604-2.39.21-1.078-.447-1.524-1.944-.552-1.866-.42-2.733.183-1.367 1.917-1.997 1.367-.526 1.813-.92.815-.736.526-1.997v-3.285q-.105-1.892-2.181-2.628-1.708-.578-2.102-1.865-.342-1.183.394-3.232.525-1.472 1.63-1.735l2.39.158 1.814.052q1.05-.13 1.313-.578.631-.92 2.497-2.627 1.287-1.656.026-3.68-.893-1.392-.657-2.47.263-1.155 1.866-2.023 1.708-.92 2.812-.71 1.182.211 2.18 1.814.421.657 1.314 1.209.92.604 1.367.42l3.337-.315q1.945-.315 2.312-2.523.316-1.865.815-2.444.815-1.024 2.812-.473 2.706.736 3.074 1.183.473.578.237 3.1-.132 1.157.341 1.893.368.604 1.472 1.34 1.97 1.366 3.416 1.445 1.708.105 3.337-1.471.92-.868 1.892-.71.946.158 1.656 1.261l1.497 2.234q.526 1.34-.814 2.496-1.472 1.314-1.84 2.47-.446 1.367.368 3.154.736 1.629 1.393 2.233.893.815 2.47.762 3.731-.131 3.705 3.574-.026 1.918-.92 2.785-.867.868-2.732.894-1.446.026-2.155.394-.999.526-1.314 1.945l-.788 2.995q-.158 1.63 1.471 2.733t1.55 2.47q-.052 1.13-1.366 2.733-1.103 1.393-2.312 1.314-.841-.053-2.392-1.025-.92-.552-1.786-.84l-1.472-.106q-2.26 1.051-3.232 1.682-1.76 1.103-.972 3.206m-49.428 45.38q4.073-4.361 5.518-7.988 1.787-4.467.42-9.328-1.629-5.807-5.018-11.641-2.733-4.73-7.2-10.406l-3.495-4.047-3.784-4.073q-7.884 7.962-12.482 15.11-5.492 8.54-7.515 17.658-.762 3.443 1.287 7.91 1.997 4.388 5.098 6.333l11.746-12.64q1.945-2.076 2.864-1.97.867.078 2.654 2.417zm41.886-79.516q-5.413-.052-9.328 3.784-3.916 3.837-3.995 9.302-.078 5.387 3.758 9.329 3.837 3.941 9.302 4.047 5.492.105 9.46-3.81 3.994-3.942 3.994-9.434 0-5.413-3.862-9.302-3.863-3.863-9.329-3.916m.342 106.634 1.024-.394q7.62-4.23 9.828-13.218.447-1.76 1.63-2.864 1.077-.998 2.943-1.603 2.496-.788 6.937-2.417l6.937-2.47q2.076-.684 3.337-1.735 1.472-1.235 2.076-3.1 1.078-3.338 3.337-4.704 2.155-1.288 5.887-1.078 4.86.316 11.93.263l11.956-.131 2.39.184q.474 1.34-.262 2.365l-1.629 1.55q-17.816 15.74-41.913 23.282-5.124 1.603-12.823 3.679l-12.902 3.442zM95.86 280.328q-20.47-5.466-35.027-13.27-17.344-9.33-29.273-23.335l9.433 1.13 9.434 1.051q10.3 1.077 19.13-1.13l-5.335-2.102q-11.982-4.336-21.39-9.302-10.878-5.729-19.445-12.85-8.934-7.436-14.006-15.267-5.86-9.04-7.226-19.42-.21-1.628-.158-4.203l.106-4.836q7.515 8.646 11.667 12.167 6.91 5.86 14.584 8.015l-.29-.789-.21-.447q-8.25-9.643-14.163-21.994-5.203-10.852-8.987-24.595-2.733-10.012-3.863-18.736-1.287-9.96-.604-19.104.184-2.706.788-6.096l1.156-6.07q.316-1.472.868-2.181.84-1.025 2.417-.841 2.838 12.613 4.415 17.527 3.048 9.591 7.804 16.266 3.469 4.887 6.911 8.198-2.076-10.327-2.943-15.53-4.31-26.12 1.182-50.505 8.987-39.837 40.31-68.82.578-.526 1.682-1.052l1.813-.867.342.63-4.205 9.145-4.047 9.197q-15.503 37.892-9.538 79.174 4.914 34.187 25.936 65.142 1.26 1.866 1.445 4.388 2.102 26.146 3.757 49.901.08.946-.262 2.05-.342 1.05-.92 1.892-2.286 3.232-7.226 9.355-2.576 3.363-2.654 5.334-.08 1.944 2.233 5.466zm47.956-20.602.236.604 1.025.053.999-.079 6.49-1.524q3.81-.92 6.386-1.892 15.056-5.702 20.811-19.156.552-1.235.368-2.181t-1.182-1.971q-5.308-5.466-12.167-10.353-5.939-4.231-13.612-8.41-21.757-11.903-48.639-16.396-1.235-.21-1.656.341-.315.368-.341 1.498l-.184 9.565q-.105 5.65.079 9.565.236 5.282 2.312 8.75 9.013 14.742 24.412 24.491 1.287.815 3.022 1.13 1.813.342 3.153 0 4.23-1.104 10.012-2.943l9.959-3.232 2.496-.894 2.47-.998q-2.26 4.861-7.068 8.487-2.707 2.024-9.381 5.545m-1.76 66.456q-20.708-3.81-35.843-9.96-18.132-7.357-31.612-19.26-.683-.605-1.42-1.814l-1.208-2.05 2.102-.368 2.103-.236 13.007-.053 13.007-.105q1.524-.026 2.391.5.92.551 1.34 1.892 1.183 3.836 3.89 6.175 2.549 2.233 6.622 3.258 4.178 1.051 11.351 4.1 1.025.446 1.919 1.26.946.868 1.235 1.761 1.787 5.36 3.968 8.593 2.811 4.152 7.147 6.307"/></svg>