<svg xmlns="http://www.w3.org/2000/svg" xmlns:ffdec="https://www.free-decompiler.com/flash" ffdec:objectType="shape" xml:space="preserve" width="87.053" height="138.422"><path d="M26.747 0a1.3 1.3 0 0 0-.266.018c-.538.096-.965.467-1.367.811-1.34 1.12-2.934 1.915-4.608 2.398-.82.216-1.603.61-2.212 1.205-.11.104-.227.23-.317.334q-.59.688-1.187 1.366a70 70 0 0 0-2.62 3.138c-.837 1.071-1.61 2.216-2.095 3.495a11 11 0 0 0-.635 2.418 11.7 11.7 0 0 0-.092 2.328c.004.079.012.17.016.244.042.542.118 1.08.22 1.613.017.085.039.198.051.266.238 1.135.589 2.244.996 3.33q1.617-2.148 3.229-4.3c.181-.251.383-.492.55-.753a.344.344 0 0 0-.056-.432c-.372-.372-.72-.766-1.078-1.152-.321-.315-.605-.677-.773-1.098-.372-.883-.267-1.914.152-2.761.423-.865 1.177-1.6 2.117-1.864a5.23 5.23 0 0 1 2.85.082c.39.135.778.281 1.185.356a5 5 0 0 0 1.111.105c.623-.007 1.213-.285 1.678-.685.715-.603 1.228-1.394 1.82-2.108.388-.453.821-.91 1.395-1.117.52-.192 1.096-.088 1.6.106.776.309 1.516.7 2.26 1.08.439.234.89.466 1.388.543.645.117 1.317-.041 1.875-.373.378-.241.777-.461 1.217-.56a2.62 2.62 0 0 1 1.832.237c.666.336 1.165.906 1.69 1.42.46.428.93.845 1.39 1.274.385.352.783.713 1.18 1.035.363.284.718.59 1.135.793.453.224 1.001.27 1.474.078.569-.23 1.018-.683 1.356-1.186.542-.84.778-1.85.802-2.841a6 6 0 0 0-.035-.84 5.6 5.6 0 0 0-.28-1.223 4 4 0 0 0-.505-.969c-.05-.055-.121-.18-.207-.115-.179.135-.308.322-.465.48-.473.523-.97 1.058-1.63 1.34a2.64 2.64 0 0 1-1.927.075c-.594-.205-1.121-.564-1.62-.938-1.041-.823-2.008-1.733-3.03-2.578-.475-.417-1.08-.718-1.723-.715-.476-.009-.937.148-1.365.34-.628.255-1.339.401-2.004.203-.676-.196-1.204-.709-1.613-1.262-.481-.684-.99-1.353-1.59-1.939-.351-.334-.767-.666-1.27-.701m9.091 9.364q-.156 0-.308.031c-.335.076-.646.232-.947.39-.586.365-1.235.648-1.922.743-.893.137-1.812-.067-2.61-.476a3.7 3.7 0 0 0-2.7-.252c-.856.243-1.568.82-2.147 1.478-.269.32-.55.638-.905.865-.602.409-1.357.55-2.074.471-.829-.107-1.656-.232-2.484-.344-.55-.06-1.105-.198-1.658-.093a1.9 1.9 0 0 0-1.278.851c-.248.39-.428.838-.449 1.303-.028.564.25 1.094.621 1.502.613.637 1.207 1.29 1.807 1.94-.724.638-1.424 1.304-2.168 1.92a7.95 7.95 0 0 0-2.088 2.519c-.224.399-.383.843-.387 1.304.811-1.383 1.853-2.614 2.963-3.765.21-.202.389-.45.656-.582.309-.145.616-.288.918-.446-.015.29.014.584-.068.866-.097.376-.381.661-.668.906-.748.716-1.355 1.561-1.943 2.408q.47-.388.947-.767c.253-.189.48-.427.785-.534.258-.093.508-.154.766-.254q.166.238.34.471c-.179.285-.33.588-.526.862-.72.882-1.456 1.753-2.19 2.625-.352.426-.723.84-1.064 1.275-.282.38-.53.843-.457 1.332.051.393.307.713.555 1.006-.22.247-.444.489-.623.767-.33.49-.518 1.09-.451 1.682.097.768.398 1.515.882 2.121.61.769 1.52 1.262 2.477 1.443.605.097 1.199.315 1.687.692.363.265.643.619.916.97a24 24 0 0 0 2.131 2.323 23 23 0 0 0 3.596 2.805c.306.213.517.522.783.777l-.267.564-2.627-.55c-.002.177.042.352.119.511.212.411.555.733.879 1.055.059.058.144.132.191.176a9.8 9.8 0 0 0 2.633 1.674 12 12 0 0 0 1.129.435c.985.318 2.01.606 3.055.547a5 5 0 0 0 .439-.049c.221-.045.46-.064.654-.19l-1.892-.464c-.09.024-.173.09-.26.129l-.105-.758.351-.074c.968-.218 1.961-.29 2.941-.432.83-.11 1.651-.294 2.444-.566a13.3 13.3 0 0 0 2.582-1.194c1.831-1.093 3.376-2.617 4.648-4.318.796-1.08 1.555-2.2 2.504-3.156.21-.228.458-.415.664-.647.275-.317.362-.763.285-1.17a8 8 0 0 1-.209-1.41 7 7 0 0 1 .165-1.842 18.8 18.8 0 0 0 .236-4.924 20 20 0 0 0-.3-2.17 21 21 0 0 0-.593-2.302 21 21 0 0 0-.238-.715c-.267-.75-.578-1.5-.914-2.21a29 29 0 0 0-1.117-2.13c-.388-.657-.762-1.36-1.381-1.832-.31-.243-.677-.39-1.049-.508-.858-.313-1.56-.929-2.184-1.58-.83-.888-1.659-1.784-2.556-2.607-.247-.253-.582-.432-.942-.428m10.155 3.889a.3.3 0 0 0-.096.008c-.227.076-.432.205-.646.31-.221.13-.462.237-.649.414-.115.098-.06.259.012.364.13.2.287.4.422.586.336.449.674.888 1.015 1.336.229-.27.329-.623.395-.963.09-.548.09-1.126-.104-1.653-.071-.159-.16-.365-.35-.402zM34.49 16.138c.14.152.31.279.422.457.3.43.495.948.463 1.478-.05.49-.044.988.056 1.473.214 1.082.812 2.043 1.492 2.894a49 49 0 0 0 1.557 1.856c.292.312.539.67.684 1.074.438 1.167.147 2.6-.79 3.443-.209.168-.405.388-.681.436a3.6 3.6 0 0 1-.826-.05c-.246-.052-.513-.198-.565-.464-.06-.324.006-.67.16-.959.223-.31.43-.644.512-1.021.143-.579-.029-1.186-.322-1.69-.047-.081-.11-.185-.15-.252l-.16-.254c-.175-.267-.35-.53-.52-.8-.733-1.146-1.381-2.383-1.637-3.73-.228-1.146-.137-2.338.186-3.456zm7.283.501c.383-.016.76.084 1.115.217l.285-.164v.852l-.242-.106c-.088.052-.178.101-.258.166-.198.2-.416.395-.535.655-.096.253.05.512.147.742.365.707.621 1.471.736 2.26.048.392.122.796.03 1.187a1.13 1.13 0 0 1-.821.84c-.438.122-.914-.105-1.164-.47a6.8 6.8 0 0 1-.79-1.84c-.053-.213-.15-.453-.378-.524-.241-.078-.541-.101-.69-.336-.126-.208-.02-.458.098-.643.207-.323.41-.66.582-.99.24-.426.428-.894.754-1.271a1.56 1.56 0 0 1 1.131-.575m21.615 2.21c-.214-.015-.383.156-.502.314-.514.698-.588 1.65-.32 2.459.235.73.777 1.39 1.516 1.646 2.014.625 4.056 1.154 6.093 1.696.306.072.605.18.916.222.235.03.511-.041.627-.267a4 4 0 0 0 .315-.91 1.15 1.15 0 0 0-.239-.971c-.155-.154-.243-.357-.335-.55l-.711-.099.445-.22c.123-.02.051-.1.014-.172-.092-.11.056-.052.123-.05.1-.003.21.057.3.001.082-.069.137-.045.166.055.497.062.992.121 1.489.185.235.047.497.025.705.162.203.134.24.416.138.625-.271.522-.706.95-.92 1.504-.241.587-.209 1.26.022 1.846.145.357.312.723.6.988.238.228.627.216.888.036.32-.227.47-.608.592-.965.282-1.04.59-2.075.828-3.127a4.7 4.7 0 0 0-.148-2.778l-.078-.205a2.3 2.3 0 0 0-.489-.754c-.366-.376-.913-.538-1.43-.482-.475.054-.937.2-1.378.385-1.016.43-1.864 1.19-2.506 2.078a9 9 0 0 0-.166.234c-.426.62-.75 1.302-1.176 1.922-.155.23-.438.414-.724.342-.347-.086-.554-.407-.725-.695-.867-1.478-2.067-2.716-3.24-3.95-.2-.198-.388-.468-.69-.505m-36.16.01c.196-.005.389.048.578.093.167.034.34.062.477.174 1.081.675 2.171 1.34 3.256 2.01h.798l-.398.263c-.301.19-.59.407-.895.59-.343.173-.724.33-.947.66-.219.334-.163.756-.088 1.125.116.382.032.79-.117 1.149-.173.405-.453.75-.672 1.13-.47-.254-.941-.53-1.295-.939-.4-.445-.6-1.045-.611-1.638-.03-.667.156-1.314.223-1.973.012-.218.098-.48-.069-.662-.172-.162-.426-.146-.642-.193-.655-.097-1.315-.185-1.977-.278l.262-.19c.477-.332.927-.701 1.414-1.02.22-.127.438-.3.703-.302m51.373 3.177a1.2 1.2 0 0 0-.379.047c-.346.1-.562.436-.646.77-.385 1.572-.74 3.15-1.102 4.73-.028.18-.111.358-.09.543.238.453.51.89.768 1.332l.22-.144c.24-.155.487-.3.71-.49.256-.202.381-.51.546-.78q.781-1.378 1.41-2.822c.164-.405.381-.8.436-1.238a1.6 1.6 0 0 0-.482-1.375 2.25 2.25 0 0 0-1.39-.573m-19.228 2.04c-.176.001-.22.204-.248.341-.063.406-.09.816-.135 1.225a157 157 0 0 0-.365 4.402c-.37 5.105-.72 10.211-1.067 15.318-.044.793-.13 1.582-.195 2.373-.012.145-.02.31-.027.442-.027.474 0 .947.037 1.42.14 1.97.348 3.94.537 5.91.4 4.323.788 8.65 1.18 12.975.037.4.074.837.34 1.162.254.292.667.338 1.03.351 4.14.007 8.28.002 12.418.002.095.015.163.004.131-.107l10.293-.352c1.097-.04 2.204-.064 3.29-.148.187-.01.39-.112.43-.31.04-.22.032-.447.024-.669-.247-2.017-.519-4.031-.765-6.049-.298-2.52-.666-5.035-.875-7.566-.198-2.598-.339-5.2-.38-7.805-.063-3.744.178-7.485.366-11.222.05-1.299.194-2.59.301-3.885.013-.264.06-.55.035-.824a.54.54 0 0 0-.342-.448c-.302-.137-.629-.192-.945-.265-.385-.066-.756-.238-1.154-.205-.488.024-.9.339-1.203.699-.537.671-1.099 1.343-1.803 1.846-.405.285-.909.507-1.412.4-.47-.094-.819-.487-1-.912-.146-.293-.168-.631-.319-.922-.142-.3-.447-.481-.761-.553a1.75 1.75 0 0 1-1.121-.859c-.136-.287-.318-.568-.586-.748-.622-.357-1.262-.69-1.944-.918-4.223-1.304-8.456-2.567-12.69-3.838-.325-.087-.643-.22-.98-.26v-.002a1 1 0 0 0-.095 0zm21.875 2.923c-.213-.018-.37.15-.49.303-.284.39-.555.802-.835 1.203-.37.551-.748 1.095-1.103 1.656-.076.142-.207.307-.127.473.143.258.36.464.55.687.11.122.292.263.456.157.21-.164.398-.356.594-.537a9 9 0 0 0 .66-.691c.469-.532.849-1.162.998-1.86.07-.258.051-.533-.04-.783-.1-.293-.33-.59-.663-.608m-38.795 3.867q.19-.004.38.01a2.74 2.74 0 0 1 1.807.877c.568.658 1.073 1.365 1.608 2.05q-.088.163-.174.327c-.049.05-.053.197-.139.162-.206-.07-.446-.056-.623-.197a5.5 5.5 0 0 0-1.375-1.103c-1-.562-2.165-.748-3.299-.74-2.344.045-4.686.048-7.03.107-.854.01-1.727.11-2.575.271-.895.146-1.703.625-2.36 1.237-.403.408-.89.717-1.341 1.068l-.47-.395c.111-.195.202-.403.294-.607.292-.644.559-1.322 1.054-1.842.496-.528 1.207-.831 1.926-.867 3.9-.126 7.8-.231 11.701-.342.212 0 .406-.019.616-.015zm-5.073 1.866q.534-.013 1.06.064c.594.078 1.157.281 1.724.463l-.55.262a5 5 0 0 1-2.5.517c-1.005-.034-1.973-.326-2.943-.568l.641-.217c.825-.297 1.689-.504 2.568-.522m-18.896 5.865a.76.76 0 0 0-.701.467c-.15.306-.117.654-.114.984.082 1.058.281 2.107.608 3.117a11.3 11.3 0 0 0 3.03 4.785c1.32 1.247 2.936 2.143 4.628 2.78.795.29 1.6.582 2.445.683.757.078 1.495-.22 2.153-.55 1.873-.942 3.756-1.86 5.648-2.764.44-.198.873-.474 1.37-.485.373-.009.702.217.94.487.334.384.618.809.928 1.21.069.101.195.22.32.135.311-.215.602-.462.884-.714.655-.596 1.224-1.332 1.457-2.2.24-.904.15-1.847.109-2.77.012-.273-.121-.521-.234-.76-.211.072-.43.13-.621.25-1.259.913-2.475 1.886-3.73 2.804-.9.649-1.802 1.318-2.83 1.754a9.2 9.2 0 0 1-2.632.619c-2.54.226-5.13-.553-7.19-2.04-1.655-1.189-2.982-2.855-3.687-4.775-.16-.405-.24-.839-.418-1.238-.272-.627-.778-1.135-1.38-1.45-.293-.143-.59-.3-.92-.327zm-2.781.117a7.5 7.5 0 0 0-1.358.16c-1.756.36-3.41 1.131-4.877 2.154a20.2 20.2 0 0 0-4.068 3.803c-1.507 1.851-2.681 3.973-3.59 6.164a56 56 0 0 0-.889 2.324A19 19 0 0 0 .25 55.61c-.064.297-.121.614-.16.927a13 13 0 0 0 .091 3.674 10.7 10.7 0 0 0 1.912 4.525c.034.048.095.125.127.17.539.71 1.159 1.353 1.836 1.93 1.45 1.217 3.09 2.238 4.899 2.822.726.236 1.492.399 2.24.479.218.023.433.038.66.049l.205.01a11.5 11.5 0 0 0 2.393-.192c.464-.103.945-.13 1.402-.265.17-.058.4-.13.43-.336.02-.296-.113-.574-.217-.844-.223-.5-.448-1-.596-1.53-.32-1.088-.374-2.27-.054-3.367.295-.982.778-1.895 1.302-2.773.274-.473.603-.915.836-1.41.057-.147.154-.332.051-.479-.166-.178-.414-.244-.637-.324-.617-.186-1.246-.339-1.869-.504-.938-.246-1.882-.476-2.828-.707a2.53 2.53 0 0 1-1.352-.931l-.785.214.793-.793c.058-.08.117-.113.174-.013.166-.046.33-.096.496-.14.223-.07.455-.089.686-.112a.51.51 0 0 0 .43-.358c.08-.282.135-.57.212-.853.081-.262.093-.548.233-.79.184-.332.639-.445.974-.29.224.105.306.363.315.593.092.74.204 1.48.324 2.215.017.18.16.317.334.346.473.077.95.149 1.414.273.769.225 1.574.346 2.375.282 1.139-.082 2.226-.545 3.139-1.219 1.008-.776 2.035-1.528 3.052-2.291.148-.098.324-.258.266-.455-.084-.224-.327-.317-.523-.42-1.065-.482-2.1-1.038-3.055-1.713-1.501-1.05-2.809-2.4-3.717-3.998-.947-1.646-1.451-3.521-1.597-5.408-.046-.64-.085-1.277-.141-1.912-.032-.233-.019-.475-.086-.701-.07-.218-.322-.29-.53-.276zm28.31 3.271c-.05 0-.101-.004-.148.016-.11.076-.113.232-.135.352-.035.502.006 1.007.01 1.51.037 1.103-.066 2.219-.408 3.273a7.9 7.9 0 0 1-2.178 3.394c-.512.462-1.03.916-1.52 1.403-.328.338-.696.652-.937 1.064-.356.588-.423 1.306-.307 1.973.695 3.66 1.027 7.379 1.182 11.097.116 3.033.19 6.067.285 9.1.042 1.177.062 2.352.123 3.527.015.224.029.42.05.643.045.372.052.78.284 1.094.204.248.555.265.852.263 1.558-.075 3.116-.263 4.635-.625.14-.031.28-.07.43-.107.542-.155 1.107-.278 1.595-.574.297-.174.521-.47.584-.81.115-.59-.02-1.187-.082-1.774-.536-4.19-1.129-8.371-1.703-12.557-.237-1.812-.532-3.617-.637-5.443a1.23 1.23 0 0 1 .137-.746c.14-.261.343-.533.646-.606.33-.072.637.134.867.348.72.686 1.623 1.166 2.58 1.426 1.116.285 2.25.491 3.377.726.435.08.863.209 1.305.244.214.014.487-.006.598-.222.152-.307.142-.66.148-.994-.028-1.707-.072-3.415-.101-5.122a111 111 0 0 1-.018-3.337l-.73-.405.738-.011c0-.54.005-1.079.004-1.618-.016-.448.039-.91-.107-1.343-.133-.432-.486-.764-.893-.94a792 792 0 0 1-4.71-1.953c-1.614-.67-3.222-1.36-4.86-1.97-.316-.107-.622-.258-.955-.296zm-7.566 7.577c-.232.006-.46.062-.676.146-.67.287-1.335.597-1.99.899-3.777 1.756-7.462 3.739-10.887 6.117-.962.677-1.931 1.35-2.793 2.154-.19.175-.387.369-.572.564-1 1.05-1.79 2.318-2.201 3.713A5.27 5.27 0 0 0 17.702 67c.64 1.276 1.808 2.282 3.177 2.695.718.227 1.479.254 2.225.23 1.673-.054 3.313-.53 4.815-1.257 1.015-.481 1.957-1.094 2.9-1.701l-.29-.395.71.207c.228.082.442.203.664.3l-.242.08.357.39-.61-.176c-.22.245-.46.473-.657.738-.438.658-.886 1.318-1.202 2.045-.117.277.004.607.246.774.26.185.595.22.905.213a7.5 7.5 0 0 0 2.01-.5c1.152-.46 2.154-1.264 2.89-2.26.279-.39.577-.786.707-1.254.173-.591.031-1.23-.26-1.76a5.66 5.66 0 0 0-1.697-1.888 4.8 4.8 0 0 0-1.412-.668c-1.178-.342-2.455-.204-3.592.224-.642.253-1.27.533-1.906.8-.3.116-.616.193-.922.294l.332-.42c.176-.245.39-.458.611-.662 1.209-1.126 2.754-1.932 4.409-2.11a6.34 6.34 0 0 1 3.738.75c.517.305 1.064.554 1.605.81.007-.175.02-.348.028-.522a3.6 3.6 0 0 0-.016-.686c-.149-.79-.54-1.544-1.137-2.09-.511-.48-1.164-.768-1.822-.99a8.27 8.27 0 0 0-4.459-.228c-.098.02-.22.05-.3.07a15 15 0 0 0-1.12.342c-.702.247-1.403.491-2.111.722.122-.24.237-.483.363-.722.419-.767 1.154-1.316 1.946-1.657 1.69-.696 3.365-1.427 5.044-2.15.546-.24 1.099-.46 1.641-.705.83-.402 1.479-1.092 1.994-1.844.165-.255.365-.496.465-.787.143-.424-.032-.884-.297-1.22a1.18 1.18 0 0 0-.984-.47m.234 5.004a.5.5 0 0 0-.23.05c-.872.481-1.72 1.005-2.575 1.514l3.196.908c-.071-.72-.128-1.435-.229-2.154-.018-.114-.023-.289-.162-.318m1.072 9.876c.006.265.018.53.022.797a5.5 5.5 0 0 1-.27 1.963c-.36 1.114-1.104 2.071-1.988 2.824-1.17.98-2.481 1.803-3.912 2.344-.345.138-.71.229-1.057.362-.343.132-.664.375-.789.734-.152.415-.127.866-.1 1.299-.008 1.72.004 3.44-.032 5.16-.015.39-.008.782-.047 1.172-.05.468-.265.943-.672 1.203-.484.315-1.084.335-1.643.312-1.204-.07-2.41-.193-3.596-.421-2.306-.435-4.547-1.25-6.558-2.465-1.13-.707-2.28-1.374-3.428-2.051-.129 1.052-.225 2.107-.361 3.158-.058.529-.2 1.064-.082 1.596.102.535.463.988.906 1.289.27.168.524.36.785.54 1.375.858 2.674 1.844 4.137 2.554.718.34 1.467.65 2.203.916 2.537.92 5.208 1.444 7.885 1.695a38 38 0 0 0 3.1.166 41 41 0 0 0 4.047-.164 46 46 0 0 0 4.783-.707c.22-.045.457-.098.666-.143a24 24 0 0 0 2.673-.742 19 19 0 0 0 1.877-.764c.377-.178.76-.372 1.131-.582.457-.268.925-.529 1.328-.877a3 3 0 0 0 .153-.146c.12-.127.231-.267.308-.424.149-.277.146-.599.135-.904a28 28 0 0 0-.17-2.438c-.037-.21-.004-.451-.139-.632-.108-.117-.283-.034-.394.035-1.216.787-2.611 1.27-4.037 1.5-1.383.23-2.79.234-4.186.174-.3-.025-.612.012-.902-.086-.39-.125-.652-.497-.723-.889a21 21 0 0 1-.187-1.768c-.157-4.13-.283-8.265-.442-12.396-.025-1.066-.162-2.113-.263-3.172l-.16-.021M19.07 71.108q-.173.002-.344.008c-.139.004-.3.014-.426.022-.966.076-1.916.268-2.869.434-.313.062-.652.096-.949.236-.223.113-.258.388-.305.607-.104.661-.231 1.346-.066 2.008.124.544.483 1.012.943 1.319.788.498 1.554 1.044 2.326 1.554a18.6 18.6 0 0 0 3.012 1.621c2.068.89 4.28 1.423 6.514 1.676.313.024.66.055.937-.123.247-.185.293-.515.325-.8.051-.843.018-1.688.02-2.532.013-.076-.037-.177.028-.232.03-.615.078-1.233.086-1.85.008-.677-.085-1.387-.465-1.965a19 19 0 0 0-.957-1.246 10 10 0 0 0-.265-.303c-.135-.186-.367-.271-.59-.285-1.162.023-2.32.151-3.483.156-1.167.03-2.306-.31-3.472-.304zm-5.787 15.043c-.041-.002-.089 0-.12.032-.133.176-.15.41-.189.62-.142 1.163-.219 2.333-.394 3.491-1.087 6.81-2.594 13.548-4.371 20.209-.648 2.412-1.31 4.816-1.946 7.228-.512 1.916-1.01 3.836-1.508 5.754-.776 2.161-1.969 5.41-2.33 6.858-.54 1.15-.507 2.295-.226 3.486.792 3.37 3.642 5.193 7.012 4.414 3.161-.73 5.765-2.248 7.14-5.363.54-1.227 1.504-2.04 2.555-2.79l.031-.02c.509-1.556-2.752.734-4.884 1.229-2.661.618-6.185.21-8.84-1.366l.271-2.75c.762.5 1.584.905 2.434 1.234.102.038.186.07.28.103 1.912.688 3.974.892 5.993.73 1.223-.097 2.449-.435 3.467-1.136a8 8 0 0 0 .273-.197c.52-.4.97-.884 1.346-1.42.394-.547.689-1.159.97-1.768.329-.728.792-1.514 1.16-2.504.352-.796.705-1.594 1.038-2.398.36-.848.7-1.702 1.04-2.557.31-.804.62-1.607.911-2.418.317-.856.615-1.719.91-2.582a626 626 0 0 1 3.088-8.928c.286-.788.548-1.588.858-2.367.905-2.239 2.235-4.263 3.445-6.342.187-.35.588-.47.894-.681.086-.046.196-.01.292-.022.06.148.128.293.173.447.132.4.095.855-.117 1.221a79 79 0 0 0-1.262 2.104c-.275.493-.584.981-.81 1.505-.3.678-.426 1.451-.256 2.18.56 2.3.762 4.667.885 7.025.244 4.414.085 8.84-.213 13.247a68 68 0 0 0-.123 2.502l-.037.763c.002.34-.058.69.035 1.024.07.248.335.346.56.404.925.205 1.86.369 2.793.531.538.088 1.054.162 1.592.225.518.059 1.021.101 1.54.127.805.04 1.632.035 2.445-.03.314-.024.644-.058.966-.103.692-.085 1.424-.252 1.965-.686.537-.429 1.09-1.75 1.09-1.75.528-2.32 1.035-4.644 1.594-6.957.456-1.854.888-3.716 1.256-5.588.797-4.02 1.352-8.09 1.586-12.173.038-.67.067-1.366.088-2.034.083-2.732-.023-5.462-.11-8.191-.02-.5-.02-1.001-.052-1.5-.026-.151-.046-.347-.198-.426-.198-.046-.39.065-.562.153a23 23 0 0 1-3.358 1.681c-2.682 1.084-5.547 1.654-8.422 1.912-2.832.246-5.687.282-8.52.02-2.814-.26-5.634-.788-8.247-1.897-2.084-.893-4.019-2.086-6.014-3.154-.279-.141-.553-.314-.867-.361m29.394 42.802c-2.422.724-5.108.255-7.572-.184-.744-.133-2.23-.564-2.97-.724-.571-.414-.719.767-.294 2.839.914 1.118 2.099 1.814 3.57 1.605 1.582-.224 3.021.138 4.49.63 1.64.547 3.305 1.054 4.993 1.407 2.252.474 4.546.63 6.813.06.82-.21 1.647-.514 2.375-.936.978-.57 1.068-1.483.328-2.342a6 6 0 0 0-1.014-.907c-1.63-1.2-3.25-3.682-5.191-3.101z"/></svg>