<svg xmlns="http://www.w3.org/2000/svg" xmlns:ffdec="https://www.free-decompiler.com/flash" ffdec:objectType="shape" xml:space="preserve" width="1230.89" height="1328.075"><path d="M644.008 0c-76.43 2.032-152.11 20.614-223.895 45.115-80.445 39.995-168.273 87.856-203.324 175.97-24.007 51.157-44.708 134.686 20.02 161.858 67.274 50.56 69.81 139.5 74.675 215.9 5.797 112.545 118.835 180.51 133.65 289.42 15.76 57.203 65.381 109.756 94.528 164.999 47.485 71.99 101.401 161.532 195.324 172.82 89.294 2.13 184.822-5.913 261.756-54.965 49.499-32.753 86.779-82.803 74.733-145.469-3.525-40.918 17.476-148.468-42.512-81.683-73.45 37.751-159.724 35.198-240.145 34.902-103.068-6.128-193.185-75.984-247.588-160.36-17.678-46.629-67.692-128.297-36.277-166.655 67.356 78.592 171.7 118.607 273.197 126.087 59.84-33.534 127.422 57.09 171.114-7.335 68.513-47.495-44.379-31.995-78.018-53.696-44.391-17.398-102.473-28.315-126.111-73.836-14.802-27.028 15.224-117.159 42.533-83.322-46.67 38.666-25.62 107.288 33.814 117.768 86.481 37.661 183.144 51.887 276.979 48.634 46.843-12.242 125.393.316 131.594-65.265 9.078-64.094-57.585-107.598-113.7-115.133-98.678-30.362-185.534-88.596-264.535-153.35-24.916-15.61-80.576-124.251-30.271-60.043 25.825 22.227 49.138 82.624 67.33 25.211 38.547-34.974 98.35-49.346 143.37-17.806 6.131-58.313-24.806-136.503-92.173-137.866-39.134-9.345-86.992 44.307-108.603 30.807 15.493-42.791 119.144-36.765 59.12-82.803C846.717 98.77 805.3 32.8 732.786 22.871 703.19 15.386 673.975 5.681 644.008 0m-44.112 220.36c66.892-1.009 136.185 54.038 137.016 123.56-19.219-51.406-72.87-98.633-133.672-99.762-79.863-4.016-145.503 62.335-171 133.22-19.727 27.325-16.106 106.664-35.574 111.226-4.163-91.135 29.263-188.103 103.83-244.166 31.189-18.293 63.48-24.746 99.4-24.079M117.541 363.647C41.905 365.774 8.878 462.022 0 521.858c.704 112.308 119.229 235.486 199.084 302.45 54.746 33.747 114.796 72.205 183.467 74.012 76.536-8.702-10.49-104.478-25.237-140.23-47.464-62.358-82.694-131.96-79.62-210.947 1.262-67.006-27.48-153.49-90.682-180.106-9.674-2.975-59.294-3.675-69.471-3.389m865.418 2.717q-11.57.101-24.346 3.522-21.728 5.767-39.836 19.18-9.656 7.242-14.216 14.351v-.135l-1.61 2.414.938.672q47.615 35.813 88.927 60.492l4.696.268-.135-.133q27.9 2.952 50.031-2.95l.268-1.075v-.133q4.962-22.803 2.279-45.47l-.133-.135q-.67-8.853-3.488-16.363v-.133q-2.28-5.5-6.572-11.805v-.133l-3.889-4.158-.135-.135-3.62-3.488q-21.596-12.34-41.448-14.351h-.133a77 77 0 0 0-7.578-.301zm-317.053 9.678c72.418 1.01 117.313 91.897 67.29 149.039-51.477 58.204-136.87 70.401-210.58 68.723-74.526 4.816-89.532-80.898-54.118-132.489 34.125-41.956 87.013-74.305 141.252-81.566 13.753-.893 27.518-3.592 41.324-2.674a90 90 0 0 1 14.832-1.033m344.75 9.37q3.622-.37 7.914.837 3.488 1.072 7.377 3.621l.805.402q4.56 3.353 7.912 8.987a18.3 18.3 0 0 1 3.086 5.23l.135.805 1.742 9.121v.402q0 9.524-1.61 13.817-2.681 7.376-8.314 10.46l-1.611.27-1.475.938q-6.975 2.28-13.682-1.34l-.535-.27q-4.829-2.548-9.256-8.719l-.537-1.474-.937-.94q-6.707-11.132-5.635-24.142.805-11.536 8.182-15.694h-.133q2.95-1.943 6.572-2.312zm-864.693 10.694a70 70 0 0 1 10.851.397c59.967 5.798 80.13 70.267 85.594 121.074 3.146 64.905 1.38 138.012 46.244 190.147 16.573 27.17 51.042 132.23 12.325 59.222-8.491-76.143-94.353-40.383-114.809-98.707-22.033-54.701 67.757-71.754 32.066-100.96-29.879 44.16-88.734 75.235-110.088 38.855 29.723 59.663 67.864 124.047 132.997 149.345 52.53 35.023-52.386 2.272-66.877-19.085-65.572-55.247-130.157-137.507-107.737-228.93 4.745-45.066 27.178-109.095 79.434-111.358m517.701 22.602-6.975.67-42.117 5.098q-23.069 3.755-39.164 11.132-7.78 3.488-18.107 9.791h-.135q-28.3 16.499-42.652 29.91-20.925 19.584-27.229 42.118v-.135q-2.549 9.658-.402 15.693 2.145 5.634 8.584 9.659l.135.132q5.364 3.354 14.753 6.17l22.399 5.768h-.133l22.131 1.744h.133q15.023-.804 38.63-8.851h.133l44.666-15.694q19.986-7.645 30.313-12.474 15.827-7.646 26.691-16.498v-.135q9.525-7.913 13.012-15.826 2.95-7.243 2.95-18.375.267-20.12-7.78-30.985-5.767-7.243-18.912-13.816h.135q-8.853-4.292-14.084-4.961l-6.573-.135zM616.988 450.9h.403q10.327.135 18.24 6.17 11.535 8.584 12.877 24.545 1.207 13.145-6.84 25.217-5.902 9.12-13.549 12.205-5.633 2.145-12.34 1.877h-.132q-10.463-.268-17.84-4.426h-.135q-8.182-4.829-12.607-13.279l.134.135q-4.694-8.451-4.426-17.705.269-9.12 5.23-17.034 4.561-7.913 12.608-12.742 8.585-4.963 18.377-4.963m-449.2 13.258c-51.304 5.682-91.304 102.117-63.929 119.442-11.485-61.466 63.122-92.202 113.496-85.23 9.468-18.3-30.259-33.343-39.173-34.089a42.2 42.2 0 0 0-10.395-.123M371.3 626.518c51.58 38.948 103.125 82.733 126.623 146.091 21.773 25.77 19.797 49.532-4.56 12.25-28.31-56.196-77.48-93.911-113.77-142.77l-4.377-5.77zm189.486 102.164c11.714 11.624 28.286 40.457 41.61 50.83 30.939 23.964 64.548 42.953 100.865 56.869 36.023 13.804 73.682 22.131 112.937 25.082q58.077 4.292 114.278-8.182l10.73-3.353 12.205-3.889.135-.135 30.045-12.607c10.993-4.613 23.495-15.735 31.543-20.832v-.133c9.836-6.26 16.072-8.096 25.193-16.86 5.812-5.9 21.117-34.56 29.701-48.689l-53.74-.666q-1.475 4.025-3.486 4.696-1.879 1.341-6.44 1.744h-.133q-6.706.536-14.353 5.633l.135-.135q-4.293 2.95-12.877 10.998l-.133.135-.27.267-11.937 13.28-7.912 10.595-.135.27-9.523 10.46-.135.135q-11.67 11.938-21.326 11.4h-.403q-17.167 3.355-34.605.27-17.973-3.353-32.861-12.877h-.133l-8.989-5.902q-4.56-2.817-8.181-3.756h.135q-4.293-.804-9.524-.133h-.135l-10.73 2.012h-.133q-32.46 6.706-71.088 2.28-30.984-3.755-69.613-15.022-70.82-21.058-120.717-53.785m-25.217 26.556 3.756 9.926-.133-.135q28.57 70.552 88.391 121.79 47.347 40.506 103.547 59.822l23.473 4.56 36.752 6.573 39.835 1.609 40.508-2.549 49.492-4.29h.135q27.094-3.221 48.555-8.317 27.63-6.707 45.066-16.23 18.511-9.926 44.801-33.532l.133-.135 11.4-10.06 8.049-9.924 2.951-9.121q5.498-17.705 8.45-40.373 1.877-15.29 3.353-41.848l1.207-25.351-1.475 5.767v.135q-6.571 23.204-12.34 33.531v.135q-8.584 15.424-23.742 31.52l-28.433 26.693q-17.17 14.888-26.559 20.923l-.402.268-6.438 3.354-.134.134q-54.456 28.435-130.641 31.385h-.27l-32.056-.67q-33.667-1.207-49.494-4.426l.134.133q-14.216-2.816-31.52-7.644l-30.716-9.524q-34.336-10.865-50.834-18.912-14.888-7.109-34.203-20.387h-.135q-38.764-27.094-81.148-72.832-11.133-11.804-19.315-21.998m-117.287 167.88c-39.6 7.327-85.163-7.672-58.908 47.06 19.622 83.04 30.28 170.256 68.035 247.394 54.902 61.835 141.223 85.865 219.617 102.903 108.332 17.414 237.747 10.067 315.54-77.41 37.533-51.92-56.027 10.68-85.713 5.408-78.525 8.959-168.106 26.083-235.905-26.711-101.183-75.489-147.303-203.544-222.666-298.645" style="display:inline;fill:#000;fill-opacity:1;stroke-width:2.68258"/></svg>