<svg xmlns="http://www.w3.org/2000/svg" xmlns:ffdec="https://www.free-decompiler.com/flash" ffdec:objectType="shape" xml:space="preserve" width="1224.819" height="1240.105"><path d="M632.937 0c-159.138 1.595-329.288 23.73-461.2 119.831-65.27 53.398-97.547 143.783-75.69 226.403 14.382 59.127 54.806 108.288 101.872 145.174A138186 138186 0 0 1 6.816 978.79c-20.467 33.626 7.799 81.743 49.677 64.447 25.045-15.554 28.137-48.158 40.889-73.38 22.055-53.99 42.692-111.685 65.63-163.374 143.705 47.108 287.068 95.676 430.987 141.873.972 85.485-.718 171.238 1.904 256.557 1.925 32.326 47.888 48.419 69.704 21.818 18.069-31.405 6.456-71.467 9.578-107.058l-.627-186.98c133.347-40.207 266.097-83.158 399.215-124.419 26.47 84.123 49.325 169.937 78.097 252.976 19.528 27.87 72.86 15.412 72.95-21.035-10.994-58.212-33.605-114.322-49.217-171.698-38.221-125.766-77.102-251.297-115.258-377.108 81.382-58.155 131.148-164.836 99.943-263.523-13.647-58.773-52.592-108.331-106.827-135.635C926.19 21.07 776.82.414 632.937 0M330.394 104.277h136.502c29.89 26.562-29.98 11.161-47.198 15.217H294.142c11.748-5.836 24.166-10.15 36.252-15.217m-73.399 53.707h224.67c3.005 18.49 28.939 30.177-11.332 24.653H250.287c-1.263-8.247 1.904-17.89 6.708-24.653m696.834 0h79.215c21.023 27.932-15.307 18.257-33.895 19.638-15.49-5.577-74.743 15.092-45.32-19.638M263.71 211.69h296.724c42.903 10.824 88.45 13.692 130.593 0 40.035 7.493 30.038 30.09-6.698 20.717-136.695-.298-274.584.597-410.534-.447-.758-6.556-1.796-18.04-10.086-20.27m630.7-7.184h155.749c-5.015 27.38-28.74 23.28-50.549 22.401H835.677c20.215-5.487 39.117-15.109 58.732-22.401M282.058 257.31h710.26c-9.18 18.861-19.649 39.154-44.53 39.19l-643.172.951c-7.2-7.836-19.645-30.272-22.558-40.141m499.999 115.375c-38.082 8.703-198.097 8.2-273.964 4.892-43.062-1.877-64.88-17.916-76.824-28.042-13.616-11.545-4.693-23.796 14.217-19.978 0 0 408.9-4.156 428.292 1.9 35.643 11.131-91.721 41.228-91.721 41.228m-562.655 137.52c40.173 9.525 8.84 42.774 2.92 67.168l-64.682 165.11c145.791 51.816 295.54 100.702 442.843 151.396 22.732-3.606 24.221 49.222-.216 28.427L146.003 772.469c-32.606 80.887-62.757 163.022-96.894 243.13-35.348 13.54-17.175-33.685-8.154-50.146zm819.013.447c45.325 151.76 92.238 303 144.259 452.615l25.362 75.493c-25.033 25.012-48.479 10.796-48.39-20.587l-66.182-234.964c21.233-20.844 1.387-38.589-13.223-43.368l-65.097-213.525c7.09-6.159 15.482-10.49 23.271-15.664m-771.574 25.96c99.055 55.47 212.656 80.048 325.37 84.585 8.971 32.974-10.754 29.314-36.96 32.515l-355.093 55.651zm724.135.447 52.81 174.99c-121.988-23.83-243.724-49.759-365.87-72.278-26.667-28.055 56.884-20.257 80.62-26.959 81.056-11.586 160.697-35.913 232.44-75.753m-371.914 85.48c42.594-13.542 22.313 34.975 27.16 59.281-.259 66.94 1.903 134.872.14 201.194-4.35 45.412 7.279 102.073 4.37 153.524-1.937 57.13 8.754 123.765-1.115 175.866-51.142 17.552-28.98-47.966-32.35-78.256 1.348-72.229 1.18-145.526 6.032-216.82-5.673-97.714-2.278-196.641-4.237-294.789m58.629 43.412 403.69 80.56c-26.962 3.899-52.093 22.227-78.987 11.778l-330.072-65.932c-11.994-9.162-14.179-23.63 5.369-26.406m-90.852 9.399c37.942 24.657-20.215 31.963-40.764 33.396-109.191 16.742-219.562 34.863-328.017 50.744-10.494-6.874-65.286-18.54-34.553-20.955zm72.951 25.959c56.413 17.076 116.253 24.046 173.998 37.21l145.551 29.026-318.654 100.252zm-53.707 7.607 1.344 173.65-349.09-115.021c113.853-18.567 228.394-34.208 341.817-54.601Zm486.04 43.412c8.258 27.835-18.23 25.888-37.738 33.304q-199.312 62.79-398.624 125.577c-24.052-27.466 21.496-35.118 40.303-40.622 132.096-39.02 263.546-81.222 396.058-118.259M602.95 1219.123c.788.243.408 3.3 0 0" style="display:inline;stroke-width:8.95098"/></svg>