<svg xmlns="http://www.w3.org/2000/svg" xmlns:ffdec="https://www.free-decompiler.com/flash" ffdec:objectType="shape" xml:space="preserve" width="115.302" height="133.646"><path d="M48.667.006q-.62-.016-1.23.015-1.629.088-3.192.526-6.8 2.05-9.3 10.05l-1.8 7-1.849 6.95-1.102 2.55q2-1.15 5.5-1.6l5.551-.25q9-.3 15.95 1.65 9.15 2.45 13 8.45l.05.35 5.551-3.2 5.5-3.4 1.45-.8q-1.35-1.75-3.802-3.3l-4.449-2.5-10.1-5.65-3.9-1.95q-2.5-1.25-3.25-2.75a2.45 2.45 0 0 1-.25-1.45l.051-1.45q-.101-.348.299-1.15.35-.9.451-.55.55 3.4 4.35 5.95l7 3.75 7.798 4q4.6 2.6 6.65 5.35.15-4.2-4.599-8.05l-8.3-5.75-6.25-5.35q-3.8-3.3-6.649-4.8Q53.005.12 48.667.005M3.224 23.966q-.641.032-1.38.381-2.75 1.25-1.4 4.8 1.15 3 3.75 4.9.151-.25.352-.15l3.398.9-.548-2.1-1.202-6.05q-1.05-2.775-2.97-2.68m95.367 2.18a25 25 0 0 0-1.625.006q-5.434.195-11.121 2.696-5.35 2.4-15.7 8.75 5.45 2.3 8.5 5.4 3.7 3.6 3.45 7.85l-.049.048q-.15 1.6-1 3.5l-.65 2.25q6.6 4.3 14.4 4 8.2-.349 13.898-5.648 3.651-3.45 5.452-8.352 1.8-5.1.798-9.75-1.7-7.799-11.548-10.148a25 25 0 0 0-4.805-.602m-60.445.951q-4.25.2-6.85 1.45a5.77 5.77 0 0 0-2.852 2.7l-1.199 3.55q2.1-.9 5.801-1.2l5.85-.25q12.45-.45 23.25 1.75l6 1.75.85-.45q-6.4-8.1-23.6-9.1zm6.537 8.213q-4.312-.087-8.537.188l-5.6.299q-3.451.45-5.201 1.8l-.049-.05q-1 .65-3 .7l-2.9-.05-6.301-.3q7.75 2.45 19.951 3.45l.1.05q14.6 1.8 26.9-1.4 2.599-.7 5.549-1.95-5.25-1.45-12.2-2.2-4.4-.45-8.712-.537m23.213 3.438-.801.398-12.25 3.852h.05q.8.1 1.25 1.148.45 1.05.25 2.5l-.15 1.201-.15.4-.049.2-.4.55-.051.25-.1.1-.15.1-.049.05q-.45.45-1.05.45h-.1a1.3 1.3 0 0 1-.65-.3l-.302-.5-.148-.35-.3-1.25-.151-.7.1-.6q.15-1.4.8-2.35l.95-.85-.3.05-9.75.95a30.6 30.6 0 0 1-2.3 4.55l-1.2 1.9-.2.4h-.05l-1 1.6-.099.1-.201.85q0 .4.3.8l1.7 2.7.1.7q-.15.301-.6.35l-.299.1-.851.1q-.85-.1-1.3-.7l-2-3.6q-.25-.3-.2-.8l.4-.8 1.5-1.65 1.8-2 1.05-1.3v-.05l.05-.05 2-3.2-8.3-.4.05 1.5q-.15 1.449-.75 2.4-.7 1-1.4.9h-.049q-.8-.05-1.25-1.1-.45-1.15-.3-2.55v-.05l.349-1.4v-.1l-5.75-.55-1.15 3.3-.8 3.7-.2 1.95-.2 4.9.1 1.6.35 3.35.3 1.4.4 1.55.05.25q.75 2.65 1.9 5.2l.05.05q2.501 5.2 6.151 8.65l9.85.8 13.75-.5 4.949-.5q5.5-3.85 9.65-10.25l.9.1q4.4.3 6.45-3.65 2.05-4.15-1.4-7.2l-.2-.75.051.05 1.149.4.601.2v-1.2l-.75-1.45-.851-1.4-.75-1.15-.85-1.35-.7-.95-.599-.75-2.451-2.1q-.7-.45-.65-1.1.05-.55.55-.55l.301.1.5.25.45.3.599.5 1.65 1.7.801.95.2.3.5.75.55.95.5.85 1.2 2.65.05.1.149.45.2-.65.151-.6-.5-1.05-1.15-2.35-1.75-3.1-.35-.45-.65-.9-.35-.45-.201-.25-.6-.65-.25-.25-.199-.2-.25-.25-1.9-1.75q-.35-.2-.35-.45l.049-.25q.15-.35.6-.35h.101l.25.05.149.05.45.3.2.15.3.3h.05l1.8 2 .4.4.401.4.35.4.9 1.35.75 1.4 1 1.85.5 1.35.1.2.049.1.3.8.051.15v-1.45a9.3 9.3 0 0 0-.55-2.8l-1.151-2.5a10.3 10.3 0 0 0-1.7-2.35l-.75-.75-.05-.1-.549-.45-1.4-1.15-2.25-1.05-2.75-1zm-53.801 1.85q3.75 3.45 8.201 5.298l1.25-3.5q-5.3-.699-9.451-1.799m57.1 8.85h.15l1 .65.7.65.45.5.2.2.55.65.15.4.5.799q.6 1.1.4 1.45l-.15.25q-.3-.048-1-1.15l-.4-.45-.3-.3-.6-.85h-.049l-1.352-1-.548-.5q-.35-.3-.4-.55v-.4q.15-.4.698-.35m-.25 4.05.3.049 1.15 1.05q.651.951.651 1.65v.05l-.201.6-.049.1h-.4l-.25-.05h-.1q-.25-.15-.25-.55l-.602-1.2-.699-.65-.199-.45.2-.45zm-19.399 4.549h.049l.4.15 4.8 4.05q.851.65.6 1.55l-1.3 4.65-.4.4h-.1l-.25-.35.15-2.35-1.05-.65-.45.1-4.699 2.6q-5.45 2.55-8.602 2.4h-.048l-5.051-1.45a30 30 0 0 0-1.75-1.05l-.9-.45-2.1-1.5-.1-.05-.05-.1-.25-.1-.35.05-.25.15-.1.1-.05.4v.55l-.3.5-.349-.4-1.9-3.5q-.5-.85.25-1.7l2.048-2.15.352-.2h.049q.301 0 .2.5l-.15.7q-.099 1.05.9 1.25 4.55 1.4 8 1.65h1.4l1.85-.15 4.55-.95h.1l.2-.05 4-1.1q.45-.05.8-.45.4-.449.3-.85l-.55-1.7-.05-.1v-.1q0-.3.151-.3m.95 4.45-1.2.15-3.8 1.1q-4.35 1-6.901 1.05l-1.4-.05q-3.9-.3-8.5-1.7h-.149l-.75.2q-.3.2-.25.65.2.95.95 1.2 4.249 1.9 6.198 2.65l3.202.6 5.15-.25q1.35-.35 4.85-1.8l3.25-1.35q.5-.25.85-.7.45-.6-.2-1.2a2.54 2.54 0 0 0-1.3-.55m36.05 3.25-2.852 7.3q1.95-2.2 2.352-4.55.1-.649.45-.95.349-.351.198.6-.549 3.35-2.85 6.1-1.849 2.151-5.198 4.5l4.4-.4q3.1-.399 3.6-.75 1.75-1.149 1.75-6 .05-5.049-1.85-5.85m-5.25 1.65q-2.1 2.55-2.451 4.95l-.1 3.15.1 1.55.3-.25.35-.8q.7-.45.9-2.25.1-1.95.3-2.65zM21.042 70.86q-5.542-.073-7.746 5.785-1.9 5.051.799 12.102 1.7 4.1 6.1 11.1l1.351 1.949.25.25q6.15 8.75 7.299 11.1 3.549 6.75 1.5 12-.3.95-.45.5-.2-.55.05-1.2.95-2.4-.25-5.7-.85-2.299-2.9-5.6-2.7 5.25 3.05 14.75l2.9 4.45 2.4 1.3v-.1l1-1.3 2.45-2.95 2.65-2.75 17.75-18.95q10-11.649 14.2-21.75.1-1 .6-1.55l.05-.25-1.35.65q-.35.25-.25-.55a41.5 41.5 0 0 1-3.6 4.2q-7.448 7.5-15.35 9.1-7.75 1.6-10.4 2.8-4.95 2.201-7.75 7.35-.25.502-.2-.35l.2-1.15q2.8-5.15 7.8-7.55 3-1.4 10.65-3.05 6.699-1.399 12.75-6.65l4.65-4.7q1.35-1.6 1.6-2.55l.7-3.7q.6-3.65.45-4.1-.25-.95-2.4-1.85l-1.3 1.45h.4q.3 0 .15.75l-.25.8q-2.2 4.45-10.2 5.75l-12.4.65q-17.25.45-32.9-4.4-.3-.05-.1-1 .25-.75.55-.9l3.25-1.3q2.201-.9 2.65-2l.35-.35q.15 0 .1.6l-.15.85q-.899 1.75-3.7 2.9 5.85 1.5 11.1 2.35-2.85-2.949-4.8-6.75l-2.55-.45q-.383-.032-.753-.036m55.781 3.887q-.327-.001-.677.049l.048 1q2.15.55 3.4 2.5l.35-.6v-.9q-.3-.95-1.35-1.6a3.5 3.5 0 0 0-1.77-.45m-8.129.2-2.048 2-.051.099q1.55-.65 2.55-1.6h-.25q-.2 0-.2-.5m7.202 2.8a11.5 11.5 0 0 1-1.25 3.049l.199.2 1.05-.2 1-.65 1-.85.05-.45q-.85-.75-2.05-1.1m2.798 1.898q-.948 1.701-2.398 2.602l-1.102.549-.048.45-.452 1.1 2 .7.4-.4q2.1.5 2.401-1.5.3-1.95-.8-3.5"/></svg>