<svg xmlns="http://www.w3.org/2000/svg" xml:space="preserve" width="235.439" height="278.369" viewBox="0 0 62.293 73.652"><path d="m41.636 43.127-3.553-5.85c-.577-.95-2.011-3.25-3.186-5.11-4.9-7.764-9.855-15.865-10.735-17.548-.518-.99-1.334-2.928-1.815-4.306-.991-2.845-.932-2.866 1.837-.66 1.963 1.564 4.413 4.49 6.41 7.657a734 734 0 0 0 5.069 7.817c1.976 3.013 4.109 6.301 4.74 7.307.63 1.006 2.681 4.258 4.557 7.227 2.705 4.28 3.36 5.5 3.16 5.89-.345.678-3.134 2.15-3.602 1.9-.209-.11-1.506-2.057-2.882-4.324M48.413 54.595a91 91 0 0 1-1.982-3.242l-.984-1.702 1.31-.541c.719-.297 1.769-.89 2.332-1.317s1.078-.71 1.143-.628c.414.518 3.452 5.417 3.627 5.851.355.874-1.137 2.386-3.035 3.076-.514.187-1.043.273-1.174.192-.132-.082-.689-.842-1.237-1.689M51.604 60.185l-1.078-1.765 1.424-.565c.783-.31 1.88-.994 2.439-1.519.558-.525 1.08-.921 1.16-.88.222.112 2.069 3.118 2.252 3.664.223.668-.363 1.259-2.401 2.421-2.066 1.179-2.297 1.097-3.796-1.356z"/><path d="M59.88.359c-.725-.34-1.831-.382-3.513-.35-3.855.075-12.094.1-19.22.057-3.337-.02-9.553-.015-13.813.01C.978.212.538.234.03 1.234c-.14.272.249 25.592.723 47.237.12 5.45.234 12.624.254 15.942s.158 6.23.306 6.473c.549.904 2.325 1.207 7.694 1.312 2.992.059 7.412.17 9.823.246 2.41.078 8.2.255 12.864.395s12.605.424 17.645.63c5.425.221 9.502.245 9.992.059 1.436-.545 1.57-1.323 1.02-5.963-.279-2.353-.61-4.331-.736-4.395-.128-.063-.497.114-.822.397-2.16 1.877-3.592 2.791-4.485 2.86-1.782.136-2.194-.296-5.362-5.615-1.005-1.689-1.892-3.144-2.878-4.79-1.75.006-3.501.009-5.251.022-11.849.038-23.7.145-35.547.14-1.39-.37-.882-1.994-.977-3.05-.047-.963-.12-2.462 1.224-2.477l37.225-.173c-1.671-2.778-3.452-5.766-5.029-8.37-10.951.043-21.904.13-32.853.126-1.391-.37-.883-1.994-.978-3.05-.047-.963-.12-2.462 1.225-2.477l29.235-.136c-1.094-1.793-2.408-3.972-3.346-5.495-.72-1.17-1.258-2.053-1.882-3.072-8.015.043-16.03.087-24.044.083-1.39-.37-.882-1.994-.977-3.049-.047-.963-.12-2.462 1.224-2.477l20.441-.095c-2.14-3.586-3.53-6.054-4.398-7.904-5.537.028-11.072.051-16.607.049-1.39-.37-.882-1.995-.978-3.05-.047-.963-.12-2.462 1.225-2.477l14.438-.067c-.641-2.638-.845-4.809-.376-4.852.713-.067 5.412 2.46 7.125 3.83.406.326.785.65 1.155.985l23.462-.109c1.902.049 3.833-.138 5.716.072 1.01.412.694 1.567.747 2.409-.09 1.047.404 2.662-.977 3.021-5.327.08-10.66.058-15.99.098-2.79.01-5.582.026-8.372.04 1.117 1.614 2.428 3.61 4.15 6.303.417.654.636.979 1.033 1.6l14.011-.066c1.902.049 3.833-.138 5.715.072 1.01.412.695 1.567.748 2.409-.09 1.047.403 2.662-.977 3.021-5.303.08-10.611.058-15.917.098 1.197 1.847 2.692 4.19 3.692 5.707l1.879 2.861 4.65-.021c1.902.048 3.833-.138 5.715.07 1.01.413.695 1.569.748 2.41-.09 1.047.403 2.663-.977 3.022-2.166.032-4.334.042-6.502.051l2.785 4.24c1.189 1.812 1.84 2.793 2.718 4.13.549.01 1.096.031 1.64.092 1.01.412.694 1.568.747 2.41-.03.34 0 .739.01 1.136 3.567 5.336 3.477 4.73 4.09 3.528.522-1.025.52-.88.127-17.994-.076-3.305-.16-7.157-.189-8.56-.027-1.402-.172-7.088-.321-12.635s-.27-11.321-.266-12.832C61.242 2.32 61.09.926 59.882.36z"/></svg>