<svg xmlns="http://www.w3.org/2000/svg" viewBox="0 0 67.41 87.71"><path d="M51.61.23h1.63c2.65.95 3.31 3.01 2.92 5.52.31.07.42.11.53.12 5.61.53 9.25 3.73 10.48 9.21.04.18.16.34.24.51v62.35c-.1.29-.23.56-.29.86-1.1 5.15-5.55 8.84-10.81 8.84-14.92.02-29.83.03-44.75 0C5.47 87.63.53 82.7.53 76.61Q.5 46.775.53 16.94c0-5.09 3.44-9.45 8.38-10.7.83-.21 1.7-.26 2.65-.41 0 .75-.01 1.25 0 1.75.05 2.22 1.7 3.89 3.8 3.88s3.71-1.69 3.75-3.93c.01-.7.07-1.4 0-2.09-.28-2.38.52-4.16 2.74-5.2h1.63c2.3.84 3.19 2.52 2.97 4.91-.08.85-.03 1.71 0 2.56.07 2.13 1.75 3.77 3.8 3.76 2.01-.01 3.65-1.63 3.74-3.7.03-.77.08-1.56 0-2.32-.27-2.38.52-4.16 2.74-5.2h1.63c2.3.84 3.19 2.52 2.97 4.91-.08.85-.03 1.71 0 2.56.07 2.13 1.75 3.77 3.8 3.76 2.01-.01 3.65-1.63 3.74-3.7.03-.77.08-1.56 0-2.32-.27-2.38.52-4.16 2.74-5.2ZM33.9 31.93c4.53 0 9.05-.01 13.58 0 1.26 0 2.29-.4 2.9-1.54 1.05-1.94-.35-4.14-2.7-4.16-4.84-.03-9.67-.01-14.51-.01-4.26 0-8.51.01-12.77 0-1.27 0-2.29.4-2.91 1.54-1.06 1.94.36 4.14 2.7 4.16 4.57.03 9.13 0 13.7.01Zm-2.74 26.06h10.68c1.98 0 3.28-1.12 3.31-2.8.03-1.72-1.3-2.9-3.33-2.9H20.47c-1.98 0-3.28 1.11-3.32 2.8-.03 1.72 1.3 2.9 3.33 2.9zM29.3 71.02h8.82c1.98 0 3.28-1.11 3.32-2.79.04-1.72-1.29-2.9-3.32-2.9H20.48c-1.98 0-3.28 1.11-3.32 2.79-.04 1.72 1.3 2.9 3.32 2.91h8.82Zm-3.65-31.76c-1.78 0-3.56-.01-5.33 0-1.86.02-3.15 1.19-3.16 2.83 0 1.65 1.28 2.85 3.13 2.86 3.52.02 7.03.02 10.55 0 1.86 0 3.15-1.19 3.16-2.83 0-1.65-1.28-2.84-3.13-2.86-1.74-.02-3.48 0-5.22 0"/></svg>