<?xml version="1.0" encoding="UTF-8"?>
<svg xmlns="http://www.w3.org/2000/svg" viewBox="0 0 100.07 109.52">
  <g>
    <path d="m79.35.24c0,13.03.43,26.09-.3,39.08-.16,2.86-4.44,5.49-7.2,8.66v-8.12h-3.76v-3.79h3.62v-11.25h-3.58v-3.83h3.59v-11.29h-3.64c-.04-.68-.07-1.21-.1-1.82h-3.59c-.05.56-.09,1.13-.14,1.74h-3.7c-.03-.6-.06-1.13-.1-1.74h-3.6c-.04.56-.09,1.12-.14,1.74h-3.7c-.03-.59-.06-1.13-.1-1.74h-3.6c-.04.55-.09,1.12-.13,1.74h-3.7c-.03-.59-.06-1.12-.1-1.74h-3.6c-.04.55-.08,1.11-.13,1.74h-3.7c-.03-.58-.06-1.12-.1-1.73h-3.6c-.04.54-.08,1.11-.13,1.73h-3.71c-.03-.58-.07-1.11-.1-1.73h-3.6c-.04.54-.08,1.1-.12,1.73h-3.71c-.03-.57-.07-1.11-.1-1.73h-3.6c-.04.53-.08,1.09-.12,1.73h-3.71c-.03-.57-.07-1.1-.1-1.72h-3.6c-.04.53-.08,1.09-.12,1.75h-3.62v11.25h3.6v3.83h-3.6v11.25h3.6v3.83h-3.61v11.25h3.61v3.83h-3.62v11.25h3.62v3.79h-3.63v11.25h3.59v3.83h-3.59v5.57h7.34c.04-.54.07-1.08.12-1.71h3.72c.03.57.06,1.1.1,1.74h9.37c1.25,2.5,2.47,4.94,3.8,7.61H.24V.24h79.12Z"/>
    <path d="m50.21,109.09c-5.25-5.24-10.61-10.58-16.59-16.55,16.48-16.49,33.01-33.02,49.48-49.49,5.99,5.99,11.33,11.34,16.59,16.6-16.46,16.45-32.99,32.97-49.48,49.44Z"/>
    <path d="m45.47,17.13v-3.64h3.69v3.64h-3.69Z"/>
    <path d="m64.23,17.17h-3.65v-3.69h3.65v3.69Z"/>
    <path d="m19.04,21v3.69h-3.69v-3.69h3.69Z"/>
    <path d="m22.9,20.98h3.65v3.69h-3.65v-3.69Z"/>
    <path d="m30.4,24.67v-3.64h3.69v3.64h-3.69Z"/>
    <path d="m41.61,24.7h-3.62v-3.66h3.62v3.66Z"/>
    <path d="m49.15,24.71h-3.64v-3.69h3.64v3.69Z"/>
    <path d="m53.02,20.99h3.68v3.69h-3.68v-3.69Z"/>
    <path d="m60.55,24.69v-3.68h3.69v3.68h-3.69Z"/>
    <path d="m18.99,32.23h-3.65v-3.69h3.65v3.69Z"/>
    <path d="m34.11,28.58v3.65h-3.69v-3.65h3.69Z"/>
    <path d="m45.46,32.21v-3.65h3.69v3.65h-3.69Z"/>
    <path d="m64.24,32.23h-3.68v-3.69h3.68v3.69Z"/>
    <path d="m19.05,36.1v3.64h-3.68v-3.64h3.68Z"/>
    <path d="m26.56,39.78h-3.67v-3.69h3.67v3.69Z"/>
    <path d="m34.08,39.78h-3.63v-3.68h3.63v3.68Z"/>
    <path d="m41.65,36.08v3.67h-3.69v-3.67h3.69Z"/>
    <path d="m49.18,36.08v3.68h-3.69v-3.68h3.69Z"/>
    <path d="m53.04,36.05h3.65v3.69h-3.65v-3.69Z"/>
    <path d="m60.54,39.74v-3.64h3.69v3.64h-3.69Z"/>
    <path d="m15.36,43.59h3.66v3.69h-3.66v-3.69Z"/>
    <path d="m19.05,13.48v3.65h-3.69v-3.65h3.69Z"/>
    <path d="m45.47,47.28v-3.64h3.69v3.64h-3.69Z"/>
    <path d="m60.58,43.59h3.65v3.69h-3.65v-3.69Z"/>
    <path d="m30.41,17.15v-3.68h3.69v3.68h-3.69Z"/>
    <path d="m19.01,54.85h-3.63v-3.68h3.63v3.68Z"/>
    <path d="m22.87,54.81v-3.63h3.67v3.63h-3.67Z"/>
    <path d="m34.1,54.85h-3.67v-3.69h3.67v3.69Z"/>
    <path d="m41.64,54.84h-3.69v-3.69h3.69v3.69Z"/>
    <path d="m49.18,51.19v3.65h-3.69v-3.65h3.69Z"/>
    <path d="m56.68,54.85h-3.63v-3.68h3.63v3.68Z"/>
    <path d="m60.55,54.84v-3.69h3.69v3.69h-3.69Z"/>
    <path d="m19.01,62.39h-3.65v-3.69h3.65v3.69Z"/>
    <path d="m30.44,58.67h3.63v3.68h-3.63v-3.68Z"/>
    <path d="m49.18,58.72v3.65h-3.69v-3.65h3.69Z"/>
    <path d="m19.02,69.92h-3.67v-3.69h3.67v3.69Z"/>
    <path d="m26.57,66.22v3.69h-3.69v-3.69h3.69Z"/>
    <path d="m34.08,69.93h-3.64v-3.68h3.64v3.68Z"/>
    <path d="m41.62,69.93h-3.64v-3.69h3.64v3.69Z"/>
    <path d="m45.49,66.21h3.68v3.69h-3.68v-3.69Z"/>
    <path d="m15.36,73.73h3.65v3.69h-3.65v-3.69Z"/>
    <path d="m34.11,77.45h-3.69v-3.69h3.69v3.69Z"/>
    <path d="m15.34,84.98v-3.69h3.69v3.69h-3.69Z"/>
    <path d="m26.54,85h-3.64v-3.68h3.64v3.68Z"/>
    <path d="m30.41,81.29h3.69v3.69h-3.69v-3.69Z"/>
    <path d="m30.39,47.28v-3.65h3.69v3.65h-3.69Z"/>
  </g>
</svg>