<svg xmlns="http://www.w3.org/2000/svg" xml:space="preserve" width="726.372" height="799.378" viewBox="0 0 192.186 211.502"><path d="M15.461 22.515c-.733-.008-1.545.103-2.52.103C7.298 22.618 0 30.145 0 34.764c0 2.113 5.737 26.29 12.75 53.726a251069 251069 0 0 1 20.776 81.345c9.6 37.629 10.116 39.276 12.815 40.85 5.945 3.47 21.123-4.84 24.059-11.284 1.212-2.66.78-5.266-2.653-16.048-5.883-18.468-11.53-37.147-19.492-64.466-26.359-90.451-27.658-96.319-32.794-96.372M61.56 190.084c2.056-.03 3.943.54 5.529 1.717 2.907 2.16.841 7.95-4.037 10.46-3.23 1.66-11.95 3.298-13.342 1.907-2.016-2.016-2.37-7.991 1.404-10.293 2.569-1.566 8.117-3.757 10.446-3.791m11.869-9.693c-.31 0-3.38-11.5-2.872-11.992.507-.492 19.055-6.94 45.01-15.727s46.943-16.264 47.487-16.757c.851-.772-7.425-20.851-42.962-99.024-3.855-8.479-7.098-13.857-7.983-13.857-.886 0-17.586 4.666-37.959 10.51-20.373 5.845-35.493 9.657-37.392 9.869-3.011.335-4.309-1.806-5.828-6.125-1.224-3.48-1.336-5.2-.377-5.793.75-.463 18.465-5.23 43.159-11.988 24.693-6.76 46.172-13.085 47.729-14.056 1.557-.972 2.831-2.603 2.831-3.626s.425-1.843.944-1.825c1.243.043 67.022 128.68 66.97 130.967-.024.969-3.277 7.068-7.235 13.553 0 0-5.564 11.04-7.196 11.791-2.415 1.111-17.618 6.1-17.618 6.1-55.13 19.09-80.922 27.691-82.4 27.691-1.014 0-3.95-9.71-4.308-9.71m28.074-43.062c-1.75-5.08-7.543-21.475-12.872-36.433-5.33-14.958-9.436-27.451-9.125-27.761.46-.46 42.521-12.878 43.62-12.878.72 0 5.97 12.878 5.457 13.39-.303.303-7.847 2.743-16.766 5.424-11.103 3.336-16.109 5.345-15.878 6.373.186.825 4.913 13.634 10.505 28.465s11.637 31.257 11.637 31.813c0 .773-9.667 4.683-11.57 4.68-.195 0-3.257-7.993-5.008-13.073m18.015-6.195c-2.658-7.186-4.704-13.168-4.548-13.292.157-.125 6.714-2.361 14.571-4.97l14.287-4.743 1.398 3.307c.768 1.818 3.27 7.492 5.557 12.609 2.287 5.116 3.809 9.652 3.38 10.081-.738.74-27.748 10.073-29.15 10.073-.364 0-2.838-5.88-5.495-13.065M71.105 78.217a.2.2 0 0 0-.075.006c-.674.226-6.433 1.915-12.8 3.751-6.365 1.837-11.866 3.52-12.224 3.741s.726 5.07 2.41 10.774a3838 3838 0 0 1 4.672 15.943c.741 2.565 3.484 11.743 4.567 14.692-.013.01-.04.024-.04.03 0 .169.712 2.5 1.58 5.182.87 2.68 3.352 10.694 5.518 17.808s3.707 10.657 4.424 10.666c1.214.016 27.937-8.904 29.123-9.721.83-.572-9.457-30.13-11.376-32.925.092-.315-6.31-16.415-9.253-24.881-3.195-9.192-5.69-14.945-6.526-15.066zm37.247 21.98c-1.798-4.763-3.269-9.383-3.269-10.266 0-1.16 3.775-2.716 13.57-5.594 7.463-2.193 13.805-3.752 14.093-3.463s2.324 4.679 4.523 9.757l4 9.233-13.659 4.488c-7.512 2.468-14.183 4.491-14.824 4.496-.64.004-2.636-3.887-4.434-8.65M38.466 63.32c-2.235-7.472-3.89-13.718-3.677-13.88.72-.551 29.301-8.287 29.488-7.982.824 1.348 9.315 25.972 9.048 26.238-.19.189-6.422 2.1-13.848 4.248-7.426 2.147-14.277 4.142-15.225 4.432-1.383.425-2.526-2.154-5.786-13.056m41.89.378c-.263-.742-2.161-5.807-4.218-11.255-5.462-14.463-5.96-13.1 6.032-16.475l19.68-5.94 5.456 12.971c3 7.135 8.115 12.576 5.208 13.119-.93.547-29.376 8.93-30.4 8.93-.704 0-1.495-.608-1.758-1.35m27.073-10.964c-4.248-9.941-8.843-21.606-8.594-21.815.151-.127 2.711-.934 5.689-1.794l5.413-1.563 5.364 11.96c2.95 6.58 5.363 12.41 5.363 12.957s-2.01 1.51-4.468 2.139c-2.458.63-5.06 1.342-5.783 1.585-.74.248-2.043-1.268-2.984-3.47"/></svg>