<svg xmlns="http://www.w3.org/2000/svg" xml:space="preserve" width="510.238" height="583.896" viewBox="0 0 135 154.489"><path d="M53.446 52.551c10.786-2.87 10.868-18.737.115-22.359-9.17-3.09-18.024 6.302-14.516 15.396 2.115 5.48 8.455 8.546 14.401 6.963M126.489 60.788c.156-.189.698-1.647 1.203-3.241s2.356-7.386 4.114-12.87c1.757-5.485 3.194-10.102 3.194-10.26 0-.342-.848-.702-3.175-1.348a387 387 0 0 1-4.975-1.444c-3.962-1.176-3.787-1.24-4.541 1.632-.339 1.288-1.185 4.127-1.882 6.31a470 470 0 0 0-2.364 7.673 415 415 0 0 1-2.002 6.544c-1.1 3.454-1.114 3.763-.177 4.122 5.066 1.942 10.222 3.343 10.605 2.882M97.128 108.63c.99-2.36.998-2.437.235-2.656a14 14 0 0 1-1.389-.518c-.436-.19-2.698-1.138-5.027-2.106a1968 1968 0 0 1-10.98-4.599 474 474 0 0 0-5.556-2.292c-1.674-.676-3.52-1.447-4.101-1.712-.582-.265-2.13-.928-3.44-1.473a287 287 0 0 1-3.44-1.454 539 539 0 0 0-5.688-2.372c-6.063-2.5-10.718-4.45-12.06-5.051a73 73 0 0 0-2.509-1.048c-.786-.31-2.06-.852-2.83-1.204-.771-.353-1.453-.641-1.515-.641s-1.338-.521-2.836-1.158c-8.134-3.457-9.492-3.997-11.173-4.442-1.008-.267-1.98-.486-2.158-.486-.297 0-1.167 2.072-1.167 2.782 0 .361 6.628 3.8 10.584 5.49 1.528.653 5.695 2.408 9.26 3.9 3.565 1.49 9.995 4.2 14.287 6.02A2728 2728 0 0 0 67.4 98.572c2.183.91 6.529 2.75 9.658 4.09s7.772 3.307 10.318 4.371c2.547 1.065 5.405 2.304 6.35 2.755 2.4 1.143 2.443 1.129 3.403-1.159M102.002 110.474c.92-1.874.936-1.723-.255-2.392-2.11-1.185-2.11-1.185-3.154 1.075-.516 1.116-.9 2.06-.852 2.097.077.062 2.605.558 3.272.642.151.019.597-.62.99-1.422M54.435 16.23c-.485-.123-6.567-2.004-13.295-4.112-2.56-.802-3.907-1.79-1.985-1.457 1.608.28 16.78 5.112 16.822 5.358.051.3-.754.41-1.542.21M42.396 18.773l-3.902-1.185c-2.027-.613-2.518-.934-1.96-1.28.411-.253 8.773 2.287 8.773 2.665 0 .482-.868.422-2.91-.2" style="display:inline;fill:#000"/><path d="M11.705 140.096a676 676 0 0 0 8.73-1.575c1.82-.348 6.404-1.182 10.187-1.855 3.784-.673 9.797-1.762 13.362-2.42s7.732-1.421 9.26-1.695a748 748 0 0 0 8.202-1.555c4.5-.877 16.6-3.047 23.813-4.272 7.626-1.294 8.182-1.952 7.513-8.889-.194-2.01-.356-4.372-.36-5.249-.009-1.575-.02-1.599-1.002-2.08a89 89 0 0 1-1.494-.748c-.476-.248-.493-.18-.314 1.286 1.442 11.78 1.334 12.467-2.012 12.904-.773.1-2.239.345-3.257.543s-3.34.618-5.16.933c-1.819.315-4.14.735-5.159.933s-3.638.668-5.82 1.044c-3.75.646-6.932 1.233-16.537 3.052-2.256.427-5.47 1.018-7.144 1.313-1.674.296-4.352.775-5.953 1.065l-8.202 1.485a6438 6438 0 0 0-13.494 2.45c-3.823.696-6.602 1.207-9.562 1.758-2.737.51-3.425.353-4.437-1.014-.8-1.08-1.017-105.75-.223-107.336.715-1.429 1.608-1.701 12.113-3.704 14.981-2.857 26.86-5.175 33.859-6.607a2575 2575 0 0 1 21.116-4.236c11.089-2.188 10.429-2.534 10.934 5.73.566 9.246 1.138 17.24 1.693 23.634.284 3.274.875 10.537 1.312 16.14l1.189 15.213c.216 2.765.521 6.992.678 9.393.463 7.085 1.004 14.072 1.094 14.12 1.935 1.039 3.171 1.408 2.999.895-.323-.957-1.498-14.664-1.877-21.894-.073-1.383-.236-3.288-.363-4.234s-.248-2.701-.268-3.901-.136-2.808-.256-3.572-.239-2.313-.265-3.44c-.025-1.129-.153-2.711-.285-3.518s-.364-3.753-.517-6.548-.398-6.094-.544-7.331-.441-4.69-.655-7.673-.451-5.96-.527-6.615c-.142-1.223-.764-9.48-1.062-14.111-.184-2.857.11-3.267 1.247-1.742.473.634 1.447 8.203 1.123 8.728-.056.09 2.067.821 4.717 1.625 9.622 2.916 22.023 6.872 22.26 7.1 1.172 1.133-.574.66-18.5-5.006-6-1.897-8.075-2.496-8.204-2.368-.817.817.639 5.442 1.835 5.83l10.47 3.38c12.062 3.892 12.512 4.05 12.638 4.436.19.585-5.077-.827-11.579-3.105-3.658-1.282-12.48-4.017-12.592-3.905-2.73 2.73.845 5.604 11.244 9.038 9.606 3.173 12.57 4.388 10.7 4.388-.53 0-20.685-6.657-21.292-7.032-.253-.157-.205.687.262 4.615.169 1.42.169 1.42 9.297 4.45 5.02 1.666 9.237 3.136 9.37 3.267.883.868-1.643.242-9.434-2.337-4.84-1.602-8.816-2.894-8.835-2.872-2.304 2.664 1.06 5.983 8.618 8.502 7.458 2.486 8.668 3.004 7.995 3.42-.138.085-3.798-1.032-8.134-2.483-4.336-1.45-7.917-2.604-7.958-2.563-1.636 1.636.943 6.122 4.136 7.192 8.503 2.852 10.159 3.46 10.262 3.77.203.609-.909.336-7.342-1.805-3.524-1.173-6.435-2.096-6.468-2.05-1.83 2.478.917 6 6.059 7.767 3.05 1.047 5.59 2.039 5.644 2.203.224.671-1.97.124-7.715-1.922-2.793-.995-5.468 3.508-2.984 5.021.022.013 2.093.719 4.603 1.569s4.564 1.635 4.564 1.746c0 .578-.9.421-4.62-.805-2.242-.738-4.175-1.343-4.296-1.343s-.139.983-.039 2.183.191 2.544.203 2.985c.02.785.086.824 3.058 1.802 2.994.986 3.692 1.368 2.988 1.638-.296.114-4.24-.967-5.789-1.586-.373-.15-.4 0-.215 1.233.116.771.252 2.168.304 3.104.094 1.702.094 1.702 2.067 2.351 2.3.758 2.298.756 1.893 1.16-.236.237-.644.205-1.725-.136-2.058-.648-2.116-.628-1.934.678.087.619.178 1.99.203 3.048.041 1.762.096 1.936.647 2.075 1.294.324.967 1.301-.34 1.016q-.737-.162-.392.084c.302.213.917 4.623.761 5.45-.05.264.6.652 2.251 1.342.877.366.877.366 3.63-8.408 8.344-26.585 10.54-33.456 19.632-61.398 2.957-9.089 3.005-8.823-1.831-10.11-1.27-.338-4.27-1.225-6.67-1.971-2.399-.746-5.106-1.584-6.016-1.862a630 630 0 0 1-8.4-2.631c-6.714-2.143-12.275-3.842-16.933-5.175-5.15-1.474-15.184-4.52-24.739-7.51a878 878 0 0 0-6.88-2.121C44.309 1.404 42.429.798 41.66.519c-2.85-1.033-4.26-.546-4.81 1.662-.156.626-.814 3.043-1.463 5.372a574 574 0 0 0-2.363 8.828c-.652 2.528-1.22 4.624-1.263 4.659-.093.074-6.591 1.343-14.234 2.781-1.674.315-4.115.799-5.424 1.076-1.31.276-3.691.75-5.292 1.05s-3.24.612-3.644.69c-.99.192-2.3 1.336-2.742 2.392-.65 1.555-.513 107.551.14 108.963.928 2.003 3.146 3.43 4.923 3.165.437-.065 3.235-.542 6.218-1.06M33.475 154.158c1.193-.519 20.638-20.078 19.77-19.885-.365.08-1.734.321-3.043.534-3.555.579-10.644 1.85-14.685 2.632-6.535 1.266-15.28 2.802-15.956 2.802-1.518 0 9.176 12.27 12.05 13.825 1.022.553.827.543 1.864.092" style="display:inline;fill:#000"/></svg>