<?xml version="1.0" encoding="UTF-8" standalone="no"?>
<!-- Created with Inkscape (http://www.inkscape.org/) -->

<svg
   width="135.00047mm"
   height="154.48924mm"
   viewBox="0 0 135.00047 154.48924"
   version="1.1"
   id="svg1"
   xml:space="preserve"
   xmlns="http://www.w3.org/2000/svg"
   xmlns:svg="http://www.w3.org/2000/svg"><defs
     id="defs1" /><path
     style="display:inline;fill:#000000"
     d="m 53.446352,52.551484 c 10.785692,-2.87123 10.867292,-18.737237 0.114995,-22.359422 -9.169914,-3.089121 -18.024649,6.302072 -14.516115,15.395562 2.114765,5.48109 8.454674,8.54684 14.40112,6.96386 z"
     id="path9" /><path
     style="display:inline;fill:#000000"
     d="m 126.48888,60.787854 c 0.15645,-0.18852 0.69783,-1.64703 1.20307,-3.24115 0.50523,-1.59411 2.35633,-7.38583 4.11356,-12.87048 1.75722,-5.484656 3.19495,-10.101274 3.19495,-10.259156 0,-0.341627 -0.84825,-0.70176 -3.175,-1.347979 -0.94588,-0.262705 -3.18496,-0.912611 -4.97573,-1.444236 -3.96219,-1.176258 -3.78687,-1.239265 -4.54103,1.632006 -0.33825,1.287802 -1.18484,4.127395 -1.88131,6.310208 -0.69648,2.182817 -1.76031,5.635627 -2.36408,7.672917 -0.60376,2.03729 -1.50474,4.98189 -2.00218,6.54355 -1.1004,3.45463 -1.11363,3.76309 -0.17682,4.12223 5.06539,1.94192 10.22179,3.34331 10.60457,2.88209 z"
     id="path8" /><path
     style="display:inline;fill:#000000"
     d="m 97.128364,108.62935 c 0.99051,-2.35969 0.99726,-2.43595 0.23512,-2.65508 -0.32742,-0.0941 -0.9525,-0.3272 -1.38906,-0.51792 -0.43656,-0.19072 -2.69875,-1.13852 -5.02709,-2.10622 -2.32833,-0.9677 -4.82864,-2.01028 -5.55625,-2.31685 -0.7276,-0.30656 -1.6801,-0.70656 -2.11666,-0.88888 -0.43657,-0.182316 -1.92485,-0.809276 -3.30729,-1.393246 -1.38245,-0.58397 -3.88277,-1.61532 -5.55625,-2.29189 -1.67349,-0.67657 -3.51896,-1.44706 -4.10105,-1.7122 -0.58208,-0.26514 -2.12989,-0.92799 -3.43958,-1.473 -1.30969,-0.54501 -2.8575,-1.19924 -3.43958,-1.45385 -0.58209,-0.2546 -3.14193,-1.32207 -5.688545,-2.37213 -6.063538,-2.50024 -10.718293,-4.44999 -12.059859,-5.05156 -0.593808,-0.26627 -1.722841,-0.73765 -2.508964,-1.04751 -0.786123,-0.30987 -2.059981,-0.85186 -2.830795,-1.20444 -0.770815,-0.35258 -1.452161,-0.64105 -1.514102,-0.64105 -0.06194,0 -1.338334,-0.52093 -2.83643,-1.15763 -8.13408,-3.45701 -9.49235,-3.99704 -11.172583,-4.44203 -1.008804,-0.26716 -1.979878,-0.48576 -2.157941,-0.48576 -0.297712,0 -1.167244,2.07199 -1.167244,2.7814 0,0.36192 6.627522,3.80052 10.583334,5.49102 1.527968,0.65297 5.695156,2.40745 9.260417,3.89885 3.56526,1.4914 9.994635,4.20068 14.2875,6.02063 4.292862,1.81995 9.591142,4.05302 11.773962,4.96239 2.18281,0.90937 6.52859,2.749696 9.65729,4.089636 3.1287,1.33993 7.77213,3.30705 10.31875,4.37137 2.54661,1.06433 5.40411,2.30385 6.35,2.7545 2.40018,1.14353 2.44264,1.12908 3.4029,-1.15855 z"
     id="path7" /><path
     style="display:inline;fill:#000000"
     d="m 102.0024,110.47426 c 0.91931,-1.87444 0.93551,-1.72302 -0.25588,-2.39221 -2.109436,-1.18484 -2.109506,-1.18482 -3.153506,1.07479 -0.5157,1.11616 -0.89913,2.0601 -0.85207,2.09765 0.0775,0.0618 2.604756,0.55726 3.271586,0.64135 0.15159,0.0191 0.59703,-0.62059 0.98987,-1.42158 z"
     id="path6" /><path
     style="display:inline;fill:#000000"
     d="m 54.434837,16.229791 c -0.484517,-0.122828 -6.567289,-2.00413 -13.295313,-4.112024 -2.559892,-0.802015 -3.906058,-1.78995 -1.984375,-1.456309 1.607808,0.279147 16.779696,5.111323 16.821883,5.357692 0.05146,0.300534 -0.753756,0.410515 -1.542195,0.210641 z"
     id="path5" /><path
     style="display:inline;fill:#000000"
     d="m 42.396295,18.772716 c -0.945886,-0.288203 -2.702057,-0.821143 -3.902604,-1.184312 -2.02709,-0.613201 -2.518077,-0.933944 -1.958789,-1.279604 0.410087,-0.253447 8.77181,2.286515 8.77181,2.664531 0,0.481474 -0.868199,0.421629 -2.910417,-0.200615 z"
     id="path4" /><path
     style="display:inline;fill:#000000"
     d="m 11.704627,140.09615 c 2.983177,-0.51865 6.91224,-1.22749 8.731251,-1.57519 1.81901,-0.3477 6.402916,-1.18246 10.186458,-1.85503 3.783542,-0.67256 9.796198,-1.76151 13.361459,-2.41988 3.565261,-0.65837 7.732448,-1.42132 9.260417,-1.69545 1.527969,-0.27412 5.218902,-0.97381 8.202082,-1.55484 4.49945,-0.87637 16.599,-3.04669 23.8125,-4.27131 7.62614,-1.29466 8.1822,-1.95255 7.51339,-8.88927 -0.19385,-2.01059 -0.35632,-4.37268 -0.36105,-5.2491 -0.008,-1.57552 -0.0198,-1.59896 -1.00077,-2.07985 -0.54571,-0.26751 -1.21837,-0.60438 -1.49481,-0.7486 -0.47554,-0.24809 -0.49241,-0.17881 -0.31316,1.28611 1.4414,11.77945 1.33406,12.4676 -2.01266,12.90388 -0.77269,0.10073 -2.23833,0.34538 -3.25698,0.54368 -1.01865,0.19829 -3.34036,0.61817 -5.15937,0.93305 -1.81901,0.31489 -4.14073,0.73465 -5.15938,0.9328 -1.01865,0.19815 -3.63802,0.66781 -5.82083,1.04368 -3.74966,0.64568 -6.93115,1.23289 -16.536462,3.05213 -2.255573,0.42721 -5.470261,1.01827 -7.14375,1.31347 -1.67349,0.2952 -4.352396,0.77444 -5.953126,1.06497 -1.600729,0.29053 -5.291666,0.95852 -8.202083,1.48443 -2.910417,0.5259 -6.482292,1.17338 -7.9375,1.43885 -1.455209,0.26547 -3.955521,0.72095 -5.556251,1.01218 -3.823302,0.6956 -6.60212,1.20635 -9.5621837,1.75754 -2.736724,0.50961 -3.425063,0.35218 -4.436938,-1.01474 -0.79979,-1.08043 -1.01714,-105.749038 -0.222887,-107.335302 0.715501,-1.428982 1.607579,-1.70183 12.1129937,-3.70484 14.981132,-2.856371 26.859682,-5.174259 33.859016,-6.606986 7.426031,-1.520069 11.769841,-2.391398 21.115881,-4.235656 11.08876,-2.188147 10.42865,-2.534042 10.93416,5.729471 0.56564,9.246306 1.13827,17.239886 1.6931,23.634677 0.28407,3.27422 0.87445,10.53703 1.31194,16.13958 0.43749,5.60256 0.97238,12.44865 1.18863,15.21355 0.21625,2.76489 0.52149,6.99161 0.6783,9.3927 0.46274,7.08555 1.00416,14.07249 1.09422,14.12081 1.9344,1.038026 3.17111,1.406866 2.9985,0.894296 -0.32224,-0.956936 -1.49732,-14.664266 -1.87691,-21.894266 -0.0726,-1.38245 -0.23589,-3.28745 -0.36292,-4.23334 -0.12703,-0.94588 -0.24773,-2.70171 -0.26824,-3.90183 -0.0205,-1.20012 -0.13548,-2.80747 -0.25551,-3.57187 -0.12002,-0.76441 -0.23916,-2.31266 -0.26474,-3.44054 -0.0256,-1.12789 -0.15389,-2.71051 -0.28514,-3.51693 -0.13125,-0.80643 -0.36397,-3.75314 -0.51717,-6.54826 -0.15319,-2.79511 -0.39816,-6.09406 -0.54437,-7.33098 -0.14621,-1.23693 -0.44086,-4.68974 -0.65478,-7.672919 -0.21391,-2.983177 -0.45119,-5.95974 -0.52728,-6.614583 -0.14211,-1.223013 -0.76337,-9.480256 -1.06174,-14.11186 -0.18401,-2.856263 0.1096,-3.266554 1.24664,-1.742069 0.47343,0.634741 1.4474,8.203913 1.12316,8.728545 -0.0558,0.09031 2.06703,0.821399 4.71744,1.624644 9.62213,2.916132 22.022526,6.871961 22.259506,7.100967 1.17216,1.132684 -0.57396,0.66007 -18.498926,-5.00703 -6.00025,-1.897019 -8.07605,-2.495964 -8.20467,-2.367345 -0.81713,0.817133 0.6386,5.441526 1.83499,5.829152 0.73843,0.23925 5.45025,1.760563 10.47072,3.380696 12.060836,3.892098 12.511646,4.05034 12.636736,4.435654 0.19012,0.585658 -5.07636,-0.826665 -11.578396,-3.105 -3.65852,-1.281955 -12.47923,-4.016988 -12.59187,-3.904352 -2.72995,2.72995 0.84508,5.603551 11.24391,9.03784 9.605906,3.17242 12.569206,4.38766 10.699116,4.38766 -0.52871,0 -20.684396,-6.65732 -21.291296,-7.032406 -0.25269,-0.156166 -0.20479,0.687427 0.26206,4.615386 0.1687,1.41944 0.1687,1.41944 9.29683,4.44928 5.020466,1.66641 9.237326,3.13712 9.370796,3.26824 0.88265,0.86708 -1.6437,0.2411 -9.434516,-2.33766 -4.83991,-1.60201 -8.81582,-2.89425 -8.83536,-2.87165 -2.30345,2.66407 1.06087,5.98323 8.61797,8.50228 7.457796,2.48595 8.668256,3.00364 7.995446,3.41947 -0.13811,0.0854 -3.79868,-1.03179 -8.134616,-2.48253 -4.33594,-1.45075 -7.91689,-2.60436 -7.95767,-2.56358 -1.63613,1.63613 0.94331,6.12225 4.13565,7.19265 8.503536,2.85126 10.159336,3.45935 10.262526,3.76893 0.20323,0.60967 -0.90886,0.33631 -7.341956,-1.80471 -3.52419,-1.1729 -6.43489,-2.09563 -6.4682,-2.05052 -1.8307,2.47886 0.91656,6.00077 6.059,7.76747 3.04981,1.04777 5.589806,2.03914 5.644436,2.20303 0.22379,0.67134 -1.971266,0.12467 -7.715316,-1.92148 -2.79267,-0.9948 -5.46854,3.50827 -2.98372,5.02112 0.0213,0.0129 2.09248,0.71868 4.60271,1.56832 2.51024,0.84963 4.56407,1.63569 4.56407,1.74679 0,0.57753 -0.89939,0.42082 -4.62005,-0.805 -2.24201,-0.73866 -4.17538,-1.34302 -4.29638,-1.34302 -0.12099,0 -0.1383,0.98227 -0.0384,2.18282 0.0999,1.20054 0.19102,2.54387 0.20259,2.98516 0.0206,0.78508 0.0864,0.82387 3.05798,1.80188 2.99385,0.98535 3.69198,1.36801 2.98837,1.63801 -0.29609,0.11362 -4.23992,-0.96706 -5.78898,-1.58629 -0.37318,-0.14917 -0.39946,0.001 -0.21512,1.23289 0.1155,0.77155 0.25232,2.16849 0.30405,3.10431 0.094,1.70148 0.094,1.70148 2.0672,2.35132 2.29913,0.7572 2.29723,0.75604 1.89287,1.1604 -0.2364,0.2364 -0.6443,0.20409 -1.72541,-0.1367 -2.0576,-0.6486 -2.11628,-0.62802 -1.93343,0.67818 0.0866,0.61847 0.17773,1.98996 0.20258,3.04777 0.0414,1.76229 0.0956,1.93594 0.64724,2.0744 1.29369,0.3247 0.96703,1.30186 -0.33967,1.01609 -0.49174,-0.10755 -0.62324,-0.0794 -0.3922,0.0841 0.30145,0.21324 0.91711,4.623266 0.76083,5.449916 -0.05,0.26463 0.60014,0.65226 2.25102,1.34204 0.87634,0.36616 0.87634,0.36616 3.62991,-8.407656 8.343456,-26.58514 10.540406,-33.45603 19.631736,-61.397617 2.95734,-9.089193 3.00545,-8.823594 -1.83123,-10.110669 -1.26902,-0.337698 -4.27026,-1.224541 -6.66941,-1.970763 -2.39915,-0.746221 -5.10624,-1.583988 -6.01574,-1.861703 -2.68576,-0.820091 -4.753056,-1.467735 -8.400516,-2.631724 -6.7139,-2.142556 -12.27448,-3.841893 -16.93334,-5.174899 C 72.303654,10.022091 62.269834,6.976316 52.715095,3.986212 50.459522,3.280343 47.363897,2.325617 45.835928,1.864599 44.30796,1.403582 42.428259,0.79812405 41.658816,0.51913705 c -2.850004,-1.033361 -4.259781,-0.546339 -4.809841,1.66160795 -0.155989,0.62614 -0.814129,3.043435 -1.462534,5.371769 -0.648405,2.328333 -1.711992,6.301314 -2.363527,8.828846 -0.651535,2.527532 -1.220066,4.623752 -1.263402,4.658266 -0.09283,0.07393 -6.590467,1.34369 -14.234001,2.781586 -1.67349,0.314815 -4.114271,0.798768 -5.423959,1.07545 -1.309687,0.276682 -3.6909367,0.74944 -5.2916667,1.050574 -1.600729,0.301134 -3.24069,0.611615 -3.644359,0.689957 -0.98947,0.192033 -2.30029695,1.335635 -2.74161695,2.391864 -0.649771,1.555119 -0.512887,107.551323 0.140715,108.963033 0.92724195,2.00275 3.14586995,3.42936 4.92234495,3.16515 0.436562,-0.0649 3.234531,-0.5424 6.2177077,-1.06106 z"
     id="path3" /><path
     style="display:inline;fill:#000000"
     d="m 33.475105,154.15806 c 1.192972,-0.51908 20.637674,-20.07762 19.769107,-19.88484 -0.363802,0.0807 -1.733021,0.32114 -3.042708,0.53421 -3.554839,0.57832 -10.643669,1.84879 -14.684376,2.63173 -6.535055,1.26627 -15.279754,2.80186 -15.955702,2.80186 -1.51843,0 9.175627,12.26997 12.048911,13.82448 1.023159,0.55355 0.827617,0.54384 1.864768,0.0926 z"
     id="path2" /><path
     style="display:none;fill:#000000"
     d="m -7.3453727,74.624354 c 0,-85.724995 0,-85.724995 74.0833367,-85.724995 74.083326,0 74.083326,0 74.083326,85.724995 0,85.724996 0,85.724996 -74.083326,85.724996 -74.0833367,0 -74.0833367,0 -74.0833367,-85.724996 z"
     id="path1" /></svg>
