<svg xmlns="http://www.w3.org/2000/svg" xml:space="preserve" width="581.098" height="427.91" viewBox="0 0 153.749 113.218"><path d="M40.963 110.356C37.16 97.66 22.681 79.762 6.511 67.764L0 62.934l12.156-3.11c6.685-1.71 19.616-5.647 28.736-8.75s17.057-5.803 17.64-6c.756-.255 2.208 1.714 5.093 6.906l4.036 7.262-2.801 2.351c-2.46 2.066-2.801 2.719-2.801 5.365 0 3.388 1.687 5.718 5.724 7.908 3.12 1.692 14.891 1.863 17.891.26 1.91-1.02 2.028-.974 4.315 1.672 2.416 2.795 4.29 7.455 4.666 11.605l.213 2.35-10.936 4.403c-11.657 4.693-32.011 13.57-37.536 16.37-1.837.93-3.618 1.692-3.958 1.692s-1.003-1.288-1.475-2.862m28.09-23.694c1.607-1.825 2.814-3.642 2.682-4.036-.424-1.274-1.72-1.254-2.932.044-.65.697-2.629 2.744-4.399 4.55s-3.003 3.63-2.741 4.055c.754 1.22 4.087-.861 7.39-4.613zm-26.829-6.649c4.199-.968 10.433-3.986 10.935-5.294.785-2.046-1.69-1.842-7.49.615-3.21 1.361-6.867 2.688-8.128 2.949-2.845.588-3.117 2.486-.353 2.461 1.067-.01 3.333-.338 5.036-.73m14.77-18.084c-.222-1.151-7.03-3.714-9.928-3.736-2.808-.021-.934 1.937 3.175 3.318 5.591 1.879 7.051 1.97 6.753.418m41.063 23.53c-1.079-5.031-2.975-8.96-5.58-11.565-1.875-1.876-2.138-2.505-1.525-3.65 1.829-3.416-.495-9.121-4.193-10.295-1.229-.39-1.03-1.015 2.324-7.286C95.16 41.3 101.195 30.69 101.589 30.678c.204-.005 2.921 2.928 6.038 6.52 10.251 11.819 24.296 22.419 38.557 29.1 4.142 1.94 7.546 3.694 7.565 3.897s-6.713 2.534-14.96 5.18-20.615 6.787-27.486 9.202L98.81 88.968zm27.856-16.34c0-.387-2.095-1.731-4.655-2.986-7.421-3.635-19.687-4.586-19.687-1.525 0 1.18.561 1.338 4.763 1.345 4.89.007 9.936 1.079 14.287 3.03 2.676 1.199 5.292 1.267 5.292.137zm-24.5-13.445c1.747-1.223 2.105-3.135.589-3.135-1.548 0-4.241 2.5-3.677 3.413.67 1.085 1.213 1.036 3.089-.278M71.852 71.192c-3.9-1.2-5.159-2.521-4.585-4.808.485-1.93 2.714-3.135 3.185-1.721.168.503 1.182 1.792 2.253 2.862 3.21 3.21 8.374 2.157 9.397-1.917.736-2.933 3.947-1.773 3.947 1.427 0 1.991-1.818 3.53-5.291 4.48-3.555.972-4.854.925-8.906-.323m-1.365-17.774c-3.206-5.722-6.675-11.833-7.71-13.58-7.015-11.837-8.52-18.75-5.702-26.21C60.344 4.969 67.364.05 76.524 0c8.232-.044 14.78 4.062 18.836 11.812 1.242 2.372 1.567 4.2 1.592 8.976.03 5.494-.176 6.412-2.458 10.937C90.61 39.423 77.449 63.12 76.85 63.49c-.295.183-3.16-4.35-6.364-10.073M82.425 30.15c6.754-5.002 6.716-14.398-.074-18.538-3.254-1.984-8.779-1.9-11.826.18-7.19 4.909-6.211 15.638 1.765 19.328 2.747 1.27 7.756.791 10.135-.97"/></svg>