<svg xmlns="http://www.w3.org/2000/svg" xml:space="preserve" width="107.557" height="242.794" viewBox="0 0 28.458 64.239"><path d="M9.883 63.923c-.452-.204-1.233-.782-1.736-1.285-2.05-2.05-2.468-4.49-1.552-9.068.32-1.6.648-4.177.73-5.73.135-2.605.103-2.877-.419-3.541-.79-1.005-.709-1.616.359-2.683l.924-.924 6.407.128 6.407.129.605.756c.758.947.768 1.75.036 2.74-.549.743-.56.893-.302 3.892.243 2.823.224 3.185-.202 3.808-.457.67-.452.725.198 2.038 1.528 3.088.434 7.403-2.345 9.243-1.051.696-1.272.734-4.695.8-2.638.05-3.81-.03-4.415-.303m-2.675-25.02c-.68-.296-1.066-1.49-.682-2.106.652-1.045 1.279-1.122 8.097-.996 5.787.108 6.624.177 7.078.588.72.652.652 1.604-.154 2.132-.564.37-1.684.453-7.21.538-3.872.059-6.781-.004-7.129-.156m.043-5.406c-.087-.346-.119-.972-.071-1.39l.086-.759H21.29l-.064 1.058c-.112 1.827.328 1.72-7.066 1.72H7.41zM5.007 29.08c-.38-.71-.076-2.033.544-2.364.294-.158 3.82-.263 8.823-.263h8.332l.549.698c.682.868.689 1.278.03 1.936-.491.492-.943.518-9.252.526-8.535.01-8.742-.004-9.026-.533m2.92-4.545c-.005-.974-1.192-8.2-2.102-12.792-.574-2.896-1.506-7.905-1.683-9.19l1.668-.547c.512 1.497 4.02 22.299 3.816 22.63-.222.36-1.698.273-1.7-.1m10.915-.397c.069-.4.63-3.763 1.246-7.474 1.6-9.629 2.483-14.405 2.696-15.057l1.557.322c-.127.319-.365 1.651-.53 2.96-.164 1.31-.82 5.359-1.456 8.997-.637 3.638-1.29 7.495-1.451 8.571-.161 1.077-.356 2.06-.432 2.183-.077.124-.504.226-.948.226-.736 0-.797-.065-.682-.728m-15.623-12.1c-.626-.492-1.265-.937-1.421-.99S1.173 8.936.756 6.468C.019 2.11-.15.524.122.524c.073 0 .724.425 1.447.945.977.702 1.352 1.16 1.459 1.786.08.463.32 2.032.536 3.487.215 1.455.57 3.3.787 4.1.668 2.458.584 2.546-1.132 1.196m20.584.686c0-.13.176-1.171.39-2.315s.577-3.326.803-4.85c.3-2.013.559-2.927.947-3.34.658-.7 2.28-1.597 2.497-1.38.162.162-.807 7.222-1.233 8.982-.176.724-.588 1.23-1.675 2.05-1.5 1.133-1.729 1.246-1.729.853m-5.794-1.986-1.142-1.164.434-1.813c.238-.997.665-3.11.948-4.695s.582-2.95.665-3.032c.082-.083.446.202.808.633 1.502 1.789 1.463 1.472.733 5.943-.87 5.332-.861 5.291-1.1 5.291-.112 0-.718-.523-1.346-1.163m-9.149.303c-.36-1.57-1.461-7.975-1.461-8.496 0-.566 1.966-2.789 2.232-2.523.068.069.378 1.55.688 3.29.31 1.741.733 3.88.94 4.753l.378 1.587-1.095.993c-1.272 1.153-1.497 1.206-1.682.396"/></svg>