<svg xmlns="http://www.w3.org/2000/svg" xml:space="preserve" width="184.176" height="248.928" viewBox="0 0 48.73 65.862"><path d="M41.801 9.225c-.524-.008-1.117.694-1.825 2.148-1.561 3.204-2.453 7.102-2.713 11.85-.043.79-.06 1.483-.037 1.542.037.096.498.105 4.564.09l4.523-.018-.017-.948c-.048-2.692-.542-6.159-1.21-8.488-.83-2.899-2.082-5.485-2.932-6.058a.64.64 0 0 0-.353-.118m-4.583 17.508-.032.39c-.04 1.516-.09 1.711-.937 3.708-.787 1.855-1.037 2.543-1.226 3.367l-.152.664-.021 10.388c-.021 10.273-.02 10.392.114 10.669.14.288.602.65.83.65.111 0 .122.078.122.874v.873l-.186.047a1.15 1.15 0 0 0-.758.602c-.125.258-.14.414-.14 1.456 0 1.149.003 1.17.166 1.334l.167.166h6.6c6.394 0 6.604-.004 6.759-.13.154-.124.16-.167.182-1.233.012-.607.003-1.206-.02-1.33-.06-.318-.465-.744-.788-.831l-.264-.071v-1.682l.31-.137c.341-.151.528-.334.676-.663.148-.331.146-19.83-.003-20.962-.161-1.225-.307-1.663-1.404-4.22-.76-1.775-.81-1.978-.85-3.471l-.034-.458h-4.555zM24.375 0a.8.8 0 0 0-.228.026c-1.181.296-3.234 4.636-4.308 9.11-.594 2.47-1.154 7.08-1.154 9.489v.924H30.03v-.924c0-2.57-.567-7.072-1.237-9.828-.848-3.483-2.605-7.48-3.719-8.459-.251-.22-.474-.33-.7-.338m5.724 21.877-5.728.021-5.729.022-.049.593c-.058 1.964-.043 1.906-1.307 4.91-.48 1.141-.972 2.395-1.094 2.785-.49 1.57-.478 1.179-.452 15.22l.024 12.883.262.325c.159.196.412.38.636.464l.372.138.023 1.061.024 1.061-.239.053c-.37.081-.767.356-.952.66-.152.248-.168.428-.168 1.836 0 1.487.009 1.57.184 1.757l.184.196h16.512l.196-.184c.191-.18.195-.222.195-1.757 0-1.42-.017-1.6-.169-1.849-.185-.303-.581-.578-.951-.66l-.24-.052.025-1.06.023-1.062.373-.138c.223-.083.476-.268.635-.464l.262-.325.024-12.883c.026-14.041.037-13.65-.452-15.22-.122-.39-.614-1.644-1.094-2.785-1.277-3.035-1.182-2.946-1.295-4.932zM6.943 9.225c-.484 0-1.046.666-1.752 2.076-1.435 2.863-2.335 6.478-2.68 10.759-.105 1.296-.16 2.656-.11 2.737.032.052 1.367.074 4.548.074 4.029 0 4.507-.011 4.543-.107.063-.163-.1-2.831-.252-4.16-.342-2.97-.921-5.41-1.826-7.696-.939-2.374-1.817-3.683-2.471-3.683M2.388 26.733l-.036.458c-.044 1.534-.055 1.58-.892 3.565C.342 33.408.212 33.816.072 35.113.025 35.543 0 39.208 0 45.698c0 10.663-.017 10.12.33 10.518.074.085.274.216.444.291l.31.137v1.681l-.264.072c-.364.098-.729.513-.786.894-.024.161-.034.76-.022 1.332.021.998.029 1.044.182 1.169.155.125.366.129 6.76.129h6.599l.166-.166c.164-.164.167-.185.167-1.333 0-1.042-.016-1.199-.14-1.457a1.15 1.15 0 0 0-.758-.602l-.186-.047v-.873c0-.795.01-.873.122-.873.228 0 .69-.363.83-.651.134-.277.135-.396.114-10.669l-.021-10.388-.152-.664c-.167-.728-.442-1.516-.928-2.655-1.178-2.76-1.089-2.802-1.234-4.42l-.035-.39H6.943z"/></svg>