<?xml version="1.0" encoding="UTF-8" standalone="no"?>
<svg
   width="56.356293mm"
   height="88.226357mm"
   viewBox="0 0 56.356293 88.226357"
   version="1.1"
   xml:space="preserve"
   xmlns="http://www.w3.org/2000/svg"
   xmlns:svg="http://www.w3.org/2000/svg"><path
     style="fill:#000000"
     d="M 2.944886,88.14892 C 0.116578,88.13722 0,84.76084 0,84.76084 v -2.30225 -2.30225 l 28.101677,4e-4 28.101672,4e-4 0.0765,2.31511 0.0764,2.3151 c 0,0 0.0428,3.22086 -2.51563,3.26079 -17.00103,0.26537 -32.754466,0.17619 -50.895733,0.10078 z M 0.068865,52.24358 5e-6,27.7696 l 28.111978,2e-5 28.111986,2e-5 V 52.2436 76.71756 H 28.180843 0.137731 Z m 31.578013,18.9079 c 5.406561,-1.82134 8.862871,-7.07877 8.341521,-12.68837 -0.19428,-2.09037 -0.4638,-2.90629 -2.38404,-7.21723 -0.79269,-1.77958 -1.58375,-3.94999 -1.75789,-4.82311 -0.46886,-2.35067 -0.51391,-2.46557 -0.77799,-1.98438 -0.1198,0.21828 -0.41184,1.34389 -0.64897,2.50135 -0.46785,2.28355 -1.291455,4.2581 -2.367447,5.67581 -0.47268,0.6228 -0.722769,0.78624 -0.809721,0.52917 -0.0692,-0.20458 -0.171668,-2.7532 -0.227718,-5.66362 -0.09354,-4.85693 -0.159368,-5.46556 -0.80131,-7.40833 -0.767523,-2.32284 -2.806471,-6.53576 -3.225814,-6.66526 -0.166722,-0.0515 -0.230682,0.73539 -0.172925,2.12743 0.143569,3.46024 -0.409351,5.17112 -3.646963,11.2847 -2.1091,3.98262 -2.372471,7.27542 -0.952308,11.90625 0.189523,0.61799 0.138427,0.60061 -0.777575,-0.26458 -1.540781,-1.45531 -2.578549,-3.74506 -2.728074,-6.01927 -0.06936,-1.05503 -0.219956,-1.91823 -0.334644,-1.91823 -0.276608,0 -0.876586,1.92495 -1.5919,5.1074 -1.16532,5.18454 -0.307821,9.05605 2.713356,12.2505 2.450445,2.59098 5.120733,3.78599 8.491566,3.80013 1.391079,0.006 2.577817,-0.16619 3.658846,-0.53036 z M 0.177411,20.91211 c 0.08425,-3.30348 0.113813,-3.45633 0.882682,-4.56406 1.157698,-1.667929 2.686834,-2.320987 7.120569,-3.041027 4.57608,-0.743157 4.557423,-0.742865 4.732304,-0.07412 0.122987,0.470302 0.316503,0.533405 1.419922,0.463021 l 1.277528,-0.08149 0.573544,-4.3656253 c 0.677242,-5.154938 0.89695,-5.888653 2.168425,-7.241436 1.909777,-2.03190304 1.741112,-2.00735904299 13.794488,-2.00735904299 12.126836,0 12.012686,-0.01719999701 13.807956,2.08018104299 1.16298,1.358674 1.39204,2.233124 1.95517,7.463834 l 0.4448,4.1316773 1.79442,0.150438 c 1.97575,0.165639 3.44812,0.797121 4.53935,1.946871 1.22431,1.289974 1.53539,2.432275 1.53539,5.638135 v 2.91891 H 28.157097 0.090239 Z m 44.042378,-7.243849 c 0.0344,-0.03441 -0.13963,-1.947686 -0.38676,-4.2517163 -0.4294,-4.003377 -0.48207,-4.217311 -1.1877,-4.824273 l -0.73838,-0.635126 h -9.892367 -9.892367 l -0.703436,0.60507 c -0.661343,0.568863 -0.725472,0.834054 -1.07169,4.43177 -0.202539,2.1046863 -0.415774,4.0293513 -0.473855,4.2770353 -0.05808,0.247685 3.68e-4,0.48581 0.129885,0.529167 0.273478,0.09155 24.12312,-0.03838 24.21667,-0.131927 z M 3.43862,12.075051 C 3.35586,11.612026 3.133869,10.326736 2.9453,9.2188507 L 2.602449,7.2045157 7.198606,6.4731777 c 2.527887,-0.402235 4.653154,-0.674341 4.722816,-0.60468 0.201928,0.201929 0.998673,5.2327873 0.85196,5.3795013 -0.116836,0.116836 -5.519125,1.11904 -8.200713,1.521353 -0.938367,0.140781 -0.990498,0.108864 -1.134049,-0.694301 z" /></svg>
