<svg xmlns="http://www.w3.org/2000/svg" xml:space="preserve" width="225.21" height="345.519" viewBox="0 0 59.587 91.418"><path d="M30.435 0C20.29.484 8.93 1.667 1.587 9.48c-2.282 2.44-1.572 6.835 1.188 8.662 4.055 4.333 10.42 5.536 15.971 6.86 10.196 1.622 21.14 1.504 30.693-2.852 3.192-1.85 7.11-4.043 7.78-7.991.31-5.822-5.208-9.8-10.212-11.41C41.687.878 35.992.67 30.435 0m3.625 2.585c5.8 1.242 12.844 2.544 16.052 8.065 1.3 2.57.534 6.106-1.715 7.897-7.252 4.518-16.348 4.705-24.606 3.883-5.556-1.143-12-2.16-15.805-6.719-1.33-2.144-1.77-5.126.061-7.112 3.513-3.895 9.223-5.004 14.23-5.742zm-4.548 1.652c-6.784.542-15.21.903-19.235 7.244-1.296 3.248 2.118 5.794 4.8 6.84C24.59 22.053 36 22.36 45.19 17.523c2.269-1.418 4.068-4.487 2.296-6.964-2.75-4.064-8.06-5.256-12.656-5.895zM21.066 9.66c1.718-.205 1.5 3.08 3.758 3.068 4.523 1.302 10.311 1.7 13.855-2.01 1.905 2.508-2.254 3.796-4.221 4.25-4.726.572-10.549.774-13.882-3.244-.728-.748.259-1.357.49-2.064m35.562 4.368c-.09 1.067-.412 2.126-.977 3.04a7.1 7.1 0 0 0 .977-3.04m1.612 1.586c-1.237 4.36-.306 9.008-.592 13.495-.069 16.003.158 32.03-.094 48.018-1.614 4.919 1.782 3.22 1.68.006.71-7.891.1-15.854.265-23.774-.11-12.026.078-24.1-.218-36.095-.266-.49-.273-1.806-1.04-1.65zM0 17.202l.144 62.044C3.551 86.699 12.431 89 19.786 90.589c9.714 1.565 19.997.995 29.281-2.387 3.306-1.375 7.676-3.52 7.564-7.7-.17-2.941-3.692 4.2-4.52.428-.563-4.28-.077-8.816-.24-13.194-5.18 3.448-11.363 5.51-17.69 5.532-9.55.07-19.29-2.583-27.24-7.902-1.257-.921-3.456-2.14-2.452-3.97 5.102 4.354 11.563 6.763 18.03 8.203 7.267 1.333 15.124 1.522 22.015-1.431 2.69-1.232 5.693-2.698 7.204-5.215V23.595c-3.674.359-8.129 3.59-12.435 3.842-5.482 1.3-11.177.575-16.753.668-6.446-1.097-13.61-2.22-18.59-6.725-1.295-1.388-2.375-3.237-3.96-4.178m29.66 14.641c1.377 0 2.311.554 2.313.597l.173 5.771h6.276c.043 0 .077 1.108.077 2.485s-.034 2.485-.077 2.485l-6.276.462v5.902c0 .043-1.109.077-2.485.077-1.377 0-2.253-1.189-2.255-1.231l-.23-5.21h-6.378c-.043 0-.077-1.108-.077-2.485s.034-2.485.077-2.485l6.146-.577.231-5.714c.002-.043 1.109-.077 2.486-.077m-9.084 47.32 16.162-.244c.043 0 1.052 1.19 1.052 2.567 0 1.376.454 2.648.411 2.647l-17.544-.406c-.042-.001-.158-.702-.158-2.079s.034-2.485.077-2.485"/></svg>