<?xml version="1.0" encoding="UTF-8" standalone="no"?>
<svg
   width="46.56781mm"
   height="94.455772mm"
   viewBox="0 0 46.56781 94.455772"
   version="1.1"
   xml:space="preserve"
   xmlns="http://www.w3.org/2000/svg"
   xmlns:svg="http://www.w3.org/2000/svg"><path
     style="fill:#000000"
     d="M 2.205787,93.792738 C 1.49161,93.362878 0.910132,92.728688 0.552142,91.989178 L 0,90.848608 V 50.971558 C 0,15.684398 0.04684,10.982408 0.406965,10.120511 0.955167,8.8084807 1.519286,8.2184347 2.778125,7.6403737 c 0.911833,-0.418716 1.781676,-0.486793 6.283853,-0.4918 l 5.225521,-0.0058 v -2.364036 c 0,-2.824301 0.236294,-3.550625 1.382467,-4.24944703 C 16.475095,0.03840467 17.006771,9.2167363e-4 23.177704,2.6736311e-6 27.358484,-6.2032637e-4 30.130624,0.10766467 30.660224,0.29228267 c 1.26102,0.439596 1.61894,1.39134103 1.61894,4.30497703 v 2.507858 l 5.64372,0.08497 5.64372,0.08497 0.99339,0.758251 c 0.54636,0.417038 1.22093,1.131413 1.49904,1.5875 0.49196,0.8067913 0.50568,1.9204213 0.50664,41.1205593 10e-4,44.51895 0.12766,41.39735 -1.73617,42.81912 l -0.99955,0.76248 -20.261333,0.0664 -20.26133,0.0664 z M 18.7687,76.000568 c 2.011264,-3.39731 10.786954,-17.83376 14.806314,-24.35713 2.35889,-3.82843 4.35474,-7.13241 4.43524,-7.34219 0.12507,-0.32591 -0.82084,-0.3814 -6.50157,-0.3814 H 24.86075 l 0.140949,-0.59532 c 0.186789,-0.78892 1.213062,-6.68762 2.635385,-15.14739 0.63612,-3.78354 1.23935,-7.20659 1.34051,-7.60677 0.10117,-0.40018 0.0817,-0.72633 -0.0432,-0.72477 -0.12492,0.002 -3.197154,5.09149 -6.827192,11.31094 -3.630037,6.21945 -8.065115,13.79457 -9.855728,16.8336 -1.790614,3.03902 -3.255661,5.62863 -3.255661,5.75468 0,0.12606 2.84191,0.22919 6.315356,0.22919 h 6.315357 l -0.63367,3.63802 c -0.348518,2.00092 -1.231799,6.91224 -1.962847,10.91407 -0.731048,4.00182 -1.396057,7.66299 -1.4778,8.13593 -0.22094,1.27832 0.20531,1.04654 1.216471,-0.66146 z" /></svg>
