<svg xmlns="http://www.w3.org/2000/svg" xml:space="preserve" width="121.109" height="294.828" viewBox="0 0 32.044 78.006"><path d="M.556 58.637c1.387 2.638 4.293 6.204 7.821 5.67 5.796.111 11.643.395 17.4-.244 2.33-1.121 5.058-3.524 5.671-5.926-.008-7.46.156-14.826.018-22.285-3.246.115-28.79.077-30.901.034ZM12.21 39.272c3.006-3.113 9.498-.453 8.816 4.044-.086 4.08-5.539 6.072-8.465 3.435-2.409-1.777-2.44-5.457-.35-7.479m14.226-5.514c-7.482.161-14.972.205-22.452-.073-1.946.382-2.176-1.8-2.726-3.108C.208 29.32.486 27.703.47 26.17c.128-1.851-.304-3.938.719-5.595.975-1.364 1.899-2.764 2.864-4.135-.227-1.565-.898-3.063-1.734-4.383-.55-.888-2.069-1.17-1.772-2.204.209-1.092-.02-2.246.223-3.317.626-1.909 1.54-3.765 2.948-5.217C5.975-.256 8.888.113 11.49.013h2.774v4.332q1.629.001 3.258-.005c-.004-1.444.008-2.893.205-4.327 2.66.056 5.358-.19 7.982.302.986.427 2.039.833 2.95 1.374 1.257 1.897 2.734 3.878 2.673 6.26l.111 1.904c.22 1.475-2.216 1.8-2.445 3.423.102.983-1.551 2.314-1.144 3.346.978 1.363 2.046 2.684 2.97 4.073.404 1.43.839 2.856.692 4.365q.01 2.17.014 4.34c-1.126.75-1.146 2.115-1.66 3.222-.298.57-.526 1.26-1.304 1.05zm-7.451-9.349c.105-2.037-2.811-.927-4.13-1.213-1.548-.701-3.132 1.754-.925 1.837 1.57 0 3.194.177 4.73-.121.189-.099.26-.318.325-.503m.002-8.147c.08-2.107-2.791-.984-4.138-1.26-1.293-.565-3.18 1.327-1.229 1.787 1.686.054 3.421.23 5.079-.067.178-.083.222-.3.286-.462M.246 60.831c-.087 0-.253 7.192-.246 10.616l.005 3.403.332.215a3.2 3.2 0 0 0 .696.314c.771.202 2.316.35 3.843.361.876.002 1.606-.004 1.62-.018.016-.016.025-1.617.02-3.56-.004-2.112-.048-3.698-.111-3.943-.084-.33-.19-.521-.553-.976-.394-.499-.54-.635-1.267-1.172a37 37 0 0 1-1.823-1.481l-1.008-.871-.45-.792a19 19 0 0 1-.733-1.442c-.155-.36-.298-.654-.325-.654m7.244 6.307.002 4.298v4.295l1.017.23c1.711.382 2.896.453 7.558.45l4.41-.004 1.908-.335 1.906-.332.003-4.302.004-4.3h-8.404zm-7.451 8.42c-.069.068-.032 1.616.04 1.688.132.132 1.189.3 3.318.533l2.038.223 1.82-.228c1.259-.157 1.925-.277 2.166-.396l.002-.002a1.6 1.6 0 0 0 .349-.198c.002-.015-.31-.132-.69-.257-.691-.227-1.638-.332-5.524-.6-.892-.064-1.317-.144-2.293-.437C.61 75.688.057 75.54.04 75.558m9.232-6.661.23-.12c.25-.133.37-.058.607.38.178.331.185 5.13.005 5.482-.189.376-.337.482-.537.391-.1-.045-.21-.109-.241-.14-.034-.035-.062-1.395-.06-3.026zm12.893-.167c.082-.052.17-.029.31.041l.243.126.002 2.992c0 1.642-.013 2.998-.027 3.012l-.22.111c-.164.073-.226.057-.369-.086a1.6 1.6 0 0 1-.27-.412c-.049-.13-.09-1.326-.085-2.66.007-1.945.036-2.48.15-2.72.11-.227.185-.353.266-.404m9.592-7.748a2 2 0 0 0-.227.41c-.11.222-.435.83-.728 1.35l-.535.945-.949.83c-.546.478-1.16.956-1.442 1.124-.728.437-2.178 1.963-2.342 2.464-.027.091-.054 1.847-.059 3.9l-.006 3.738.389.007a23 23 0 0 0 1.727-.13 26 26 0 0 1 2.108-.135c.867.012 1.507-.127 1.969-.42l.311-.198.014-3.49c.011-3.147-.148-10.39-.23-10.395M22.22 77.144c0 .032.159.136.355.237.259.127.848.238 2.17.4l1.818.225 2.14-.239c1.247-.136 2.367-.31 2.679-.407l.002.002c.298-.098.567-.202.598-.234.107-.107.066-1.58-.047-1.58-.055 0-.61.154-1.234.34-1.09.326-1.247.346-4.052.557-2.27.169-3.082.267-3.672.433-.416.116-.757.234-.757.266"/></svg>