<svg xmlns="http://www.w3.org/2000/svg" xml:space="preserve" width="470.828" height="415.719" viewBox="0 0 124.573 109.992"><path d="M101.37 0c-6.418.432-13.803.688-18.787 5.203-3.228 2.469-1.284 7.55 2.035 9.024 7.832 4.196 17.132 4.605 25.81 3.73 4.783-.66 10.3-1.698 13.504-5.626 2.177-3.501-1.641-6.82-4.687-8.071C113.785 1.22 107.487.532 101.37 0m1.993 3.079c2.773.072 5.496.45 8.01 1.907 2.54 1.072 6.004 4.112 3.72 6.926-3.13 3.236-8.186 2.943-12.4 3.18-4.46-.296-9.693-.913-12.022-5.33-1.384-2.541.86-4.319 2.675-5.554q1.762-.556 3.526-1.108c1.226.03 2.466 0 3.706-.02.93-.015 1.86-.025 2.785-.001m-76.538.214a31 31 0 0 0-2.404.08l-3.22-.009C15.328 5.053 8.497 6.324 4.473 11.3c-1.84 2.107-.436 5.07 1.71 6.295 8.43 5.382 19.192 5.774 28.776 3.863 3.325-1.893 10.998-.67 11.774-4.885.49-3.333-1.12-6.748-4.06-8.446-4.657-3.233-10.237-4.802-15.848-4.834M101.79 5.04c-1.22-.024-2.433.003-3.6.022-2.593.225-8.485 2.222-5.387 5.233 5.075 3.42 11.872 3.383 17.642 2.053 2.26-.23 4.112-2.665 1.562-4.33-2.817-2.402-6.555-2.91-10.217-2.979m-77.55.402q1.024-.005 2.032.057l3.66-.003v.001c4.32 1.132 9.375 2.448 11.584 6.722 1.183 4.148-3.907 5.985-6.992 6.794-7.696 1.579-16.457 1.825-23.295-2.627-1.9-1.57-2.057-4.506-.072-6.092 3.304-3.613 8.295-4.826 13.082-4.852m97.375.927c.374.304.36.982.222 1.671.056-.525-.01-1.063-.222-1.67M94.83 7.681c4.51 1.557 9.282.755 13.948.71-.16 3.21-6.677 1.712-9.188 1.923-1.865-.229-4.138-.459-5.325-2.067q.282-.284.565-.566m29.12 6.663c-6.195 5.048-14.376 5.454-21.99 6.195-1.57 1.62-.365 4.41-.787 6.514-.07 5.95.083 11.9.122 17.85-2.587.795-5.983-1.413-8.039.108 1.211 2.702 6.067 2.177 8.774 2.634 6.91.159 13.936-1.74 19.035-6.613 2.734-1.632 3.588-4.861 3.186-7.856l.005-18.832zm-36.94.745c2.84 1.253 5.836 2.014 8.898 2.45-3.081-.43-6.09-1.193-8.897-2.45m-25.198 3.485c-10.146.484-21.506 1.667-28.848 9.48-2.282 2.44-1.572 6.835 1.188 8.662 4.055 4.333 10.42 5.536 15.971 6.86 10.196 1.622 21.14 1.504 30.693-2.852 3.192-1.85 7.11-4.043 7.78-7.991.31-5.822-5.208-9.8-10.212-11.411-5.32-1.87-11.015-2.077-16.572-2.748m-58.68 1.062c.145 8.716-.085 17.513.295 26.179 1.611 4.735 6.917 6.48 11.295 7.748 4.25 1.542 8.742 1.21 13.164 1.263.59-7.696.026-15.541.508-23.208.875-3.195 3.9-4.867 5.853-7.338-9.227 1.148-18.972 1.008-27.57-2.964-1.216-.443-2.248-1.55-3.546-1.68m62.306 1.523c5.8 1.242 12.844 2.544 16.052 8.065 1.299 2.57.534 6.106-1.715 7.897-7.252 4.518-16.348 4.705-24.606 3.883-5.556-1.143-12-2.16-15.805-6.72-1.33-2.143-1.77-5.125.061-7.111 3.513-3.895 9.223-5.004 14.23-5.742zM60.89 22.81c-6.784.542-15.21.903-19.235 7.244-1.296 3.248 2.118 5.794 4.8 6.84 9.514 3.732 20.924 4.04 30.113-.798 2.269-1.418 4.068-4.487 2.296-6.964-2.75-4.064-8.06-5.256-12.656-5.895zm-8.447 5.424c1.72-.206 1.5 3.08 3.76 3.068 4.522 1.302 10.31 1.7 13.854-2.01 1.905 2.508-2.254 3.796-4.22 4.25-4.727.572-10.55.774-13.883-3.244-.728-.748.26-1.357.49-2.064m35.562 4.368c-.09 1.067-.412 2.126-.977 3.04a7.1 7.1 0 0 0 .977-3.04m1.612 1.586c-1.237 4.36-.306 9.008-.592 13.495-.069 16.003.158 32.03-.094 48.018-1.614 4.919 1.782 3.22 1.68.006.71-7.891.1-15.853.265-23.773-.11-12.026.078-24.101-.218-36.096-.266-.49-.273-1.806-1.04-1.65zm-58.24 1.587.144 62.044c3.407 7.453 12.287 9.754 19.642 11.343 9.714 1.565 19.997.995 29.281-2.387 3.306-1.375 7.676-3.52 7.564-7.7-.171-2.941-3.692 4.2-4.52.428-.563-4.28-.077-8.816-.241-13.194-5.179 3.448-11.362 5.51-17.69 5.532-9.549.07-19.29-2.582-27.24-7.902-1.256-.921-3.455-2.14-2.45-3.97 5.101 4.354 11.562 6.763 18.03 8.203 7.266 1.333 15.123 1.522 22.014-1.431 2.69-1.232 5.693-2.698 7.204-5.215V42.169c-3.674.359-8.129 3.59-12.435 3.842-5.482 1.299-11.177.575-16.753.668-6.446-1.097-13.61-2.221-18.59-6.725-1.295-1.388-2.375-3.237-3.96-4.178m92.597 6.614c-4.68 4.006-10.527 6.213-16.635 6.829-1.836.79-6.705-.652-5.69 2.904-.403 3 1.012 7.41-.236 9.462-2.33.728-6.644-1.86-7.847-.053 1.442 2.318 5.903 2.312 8.686 2.76 4.942-.12 10.25-.624 14.41-3.445 2.857-2.905 8.266-5.058 7.595-9.971V42.39zM3.043 50.82c.06 5.819.083 11.639.036 17.459-.228 2.15-3.886.946-2.916 2.604 5.363 5.723 13.83 6.987 21.254 7.87 3.185.04 8.231.865 6.6-4.044.054-5.525.046-11.051.065-16.576-8.763-.236-18.2-1.168-25.039-7.313m120.886 7.445c-3.521 3.224-7.574 5.967-12.422 6.737-3.344 1.056-6.952.812-10.285 1.77.094 5.09.172 10.18.282 15.27 7.636.554 16.333-1.667 21.367-7.76 2.292-2.734.909-6.52 1.345-9.777-.217-1.957.537-4.873-.278-6.24z"/></svg>