<svg xmlns="http://www.w3.org/2000/svg" xml:space="preserve" width="177.652" height="146.15" viewBox="0 0 47.004 38.669"><path d="M47.883 138.607a144 144 0 0 1-4.085-.267l-1.303-.12 2.955-1.453c4.411-2.168 6.241-3.76 8.377-7.29 1.715-2.836 3.156-7.343 3.794-11.868.397-2.815.278-7.488-.253-9.96-1.864-8.679-7.235-15.708-14.926-19.532-4.352-2.163-8.215-2.932-14.72-2.929-4.652.003-7.776.424-10.823 1.46-2.483.843-3.543 1.559-6.254 4.224-1.362 1.34-2.476 2.35-2.476 2.246 0-.408 2.319-7.662 2.98-9.323 1.54-3.868 3.572-7.301 6.84-11.554l1.738-2.262 1.564-.37c10.759-2.546 22.49-.818 31.702 4.67 9.391 5.594 17.023 15.698 19.73 26.12 1.037 3.997 1.226 5.612 1.225 10.487 0 3.3-.075 4.825-.31 6.344-1.038 6.7-3.198 12.366-6.76 17.737-1.42 2.14-1.09 1.939-4.396 2.675-4.442.989-8.748 1.273-14.6.965z" style="fill:#000;stroke:#f5cb5b;stroke-width:.173803;stroke-opacity:0" transform="translate(-.032)scale(.26458)"/><path d="M44.928 145.964c-13.86-1.17-25.514-6.276-33.555-14.698-4.821-5.049-8.073-10.9-9.827-17.677-.923-3.566-1.224-5.846-1.322-10.003-.165-7.053.79-12.409 3.546-19.9 1.232-3.347 4.297-9.784 5.853-12.292 6.28-10.124 16.697-20.25 28.154-27.367 9.456-5.874 20.553-10.358 28.737-11.612 3.674-.562 10.823-1.401 11.958-1.403.821-.002 1.556.184 3.459.876 1.329.484 2.433.858 2.453.833s.254-.71.519-1.523c.597-1.832.824-2.286 1.55-3.096.315-.353.624-.92.686-1.259.244-1.337 3.541-6.045 5.498-7.851 1.486-1.373 2.533-2.112 10.602-7.49 3.202-2.135 7.13-4.87 8.727-6.08 3.033-2.295 5.13-3.468 7.795-4.36 1.549-.519 4.015-.975 5.27-.975 1.202 0 6.64.78 8.365 1.2 9.102 2.216 16.8 6.934 21.33 13.072 1.965 2.664 2.454 3.797 2.657 6.159.152 1.753-.096 3.045-.915 4.77-.527 1.11-.98 1.67-3.047 3.77l-2.427 2.466.585.245c1.002.42 1.64 1.101 3.164 3.387 2.519 3.774 5.154 8.59 6.678 12.205.753 1.786 2.382 6.22 2.57 6.996.064.263.15.478.192.478s.952-.616 2.023-1.368c2.927-2.055 2.841-2.021 5.163-2.021 2.301 0 2.883.213 4.368 1.602 1.716 1.605 2.122 3.233 1.887 7.557-.447 8.199-2.316 16.251-5.038 21.7-1.693 3.388-3.023 5.044-5.214 6.491-3.247 2.144-11.423 6.916-16.859 9.84-1.767.95-3.045 1.77-3.714 2.384-3.64 3.338-9.416 5.802-13.042 5.563-.83-.055-1.513.006-2.09.186-.783.244-1.082.24-3.39-.042-1.392-.17-3.117-.419-3.834-.552a30 30 0 0 0-1.41-.242c-.058 0-.403.45-.766.999-3.618 5.468-8.248 10.712-14.14 16.011-4.67 4.202-7.674 6.502-12.449 9.533-6.326 4.018-12.051 6.69-20.21 9.434-6.383 2.146-11.115 3.118-18.2 3.738-4.462.39-9.83.528-12.34.316zm11.644-4.589c3.448-.286 5.28-.54 8.865-1.234 2.485-.48 4.597-.932 4.692-1.004.096-.073 1.27-.464 2.607-.87 10.215-3.1 19.976-8.208 28.07-14.691 2.715-2.175 7.62-6.642 9.687-8.821 3.296-3.476 5.73-6.548 8.402-10.602l1.688-2.562.128-2.565c.173-3.444-.003-10.037-.341-12.82-1.8-14.81-7.75-27.11-17.79-36.783-6.208-5.982-13.453-10.387-22.247-13.526l-1.788-.638-2.73.317c-8.846 1.027-12.032 1.614-16.392 3.02-13.877 4.476-27.734 13.345-37.591 24.06-5.402 5.872-8.088 9.696-11.048 15.729-3.047 6.208-4.79 11.352-5.778 17.05-.337 1.943-.389 2.867-.39 6.935-.003 5.02.127 6.25 1.045 9.897 2.278 9.042 7.645 16.469 15.717 21.748 6.419 4.199 14.65 6.856 23.55 7.604 2.308.194 7.74.08 11.644-.244zm74.186-40.874c1.038-7.903.788-16.814-.677-24.115-3.676-18.32-14.737-33.06-31.051-41.377-3.92-1.999-9.324-4.128-9.554-3.764-.198.31-1.405 3.962-1.333 4.028.034.03.856.453 1.826.938 9.063 4.53 17.295 11.68 23.041 20.014 6.665 9.666 10.405 20.85 11.274 33.718.197 2.915.128 9.16-.12 10.977l-.11.802 1.193.205c1.477.252 4.37.66 4.864.685.34.017.388-.136.647-2.11zm6.677 1.08c2.539-.809 4.662-2.06 6.64-3.915.816-.764 1.848-1.447 3.657-2.42 6.037-3.245 14.461-8.141 17.224-10.01 1.362-.922 2.369-2.11 3.32-3.916 2.219-4.22 3.805-9.79 4.546-15.97.986-8.213.776-9.646-1.41-9.646-.936 0-.948.006-5.386 3.134l-4.447 3.135-.733-2.917c-2.286-9.097-7.015-18.504-13.422-26.699l-1.47-1.881 3.305-3.334c3.12-3.146 3.322-3.39 3.6-4.345.221-.764.264-1.31.172-2.224-.11-1.09-.223-1.366-1.118-2.724-1.86-2.823-4.06-4.963-7.367-7.167-4.711-3.14-10.1-5.079-16.465-5.924-2.618-.348-3.127-.37-4.401-.185-3.15.455-5.526 1.59-9.405 4.492-1.625 1.216-5.575 3.96-8.777 6.097-8.516 5.685-8.821 5.904-10.347 7.428-1.264 1.263-3.73 4.739-3.73 5.257 0 .101.214.237.477.302 1.21.299 5.291 2.04 8.212 3.505 4.725 2.37 8.189 4.608 12.166 7.863 1.991 1.629 6.452 6.028 7.56 7.456.383.493.791.899.908.903.338.01 2.685-2.417 3.432-3.55 1.045-1.588 1.532-2.976 2.805-7.99.645-2.54 1.226-4.617 1.293-4.617.357 0 2.082 1.655 4.124 3.956 6.662 7.507 11.762 17.166 14.385 27.246.848 3.26 1.052 4.359 1.39 7.502.342 3.178.37 3.943.213 5.574l-.184 1.89-5.98-6.182c-3.289-3.4-6.224-6.355-6.522-6.567-.85-.605-2.203-.842-3.344-.587-.523.117-1.115.346-1.316.51l-.366.295.797 2.384c3.246 9.719 4.297 21.073 2.954 31.936-.373 3.023-.45 2.796.837 2.5a33 33 0 0 0 2.173-.595z" style="fill:#2a2a2a;fill-opacity:1;stroke:#000;stroke-width:.173803;stroke-opacity:0" transform="translate(-.032)scale(.26458)"/><path d="M90.03 112.707c-1.434-.2-3.8-.933-5.04-1.563-5.67-2.885-10.692-10.021-12.778-18.158-.948-3.698-1.197-5.876-1.203-10.517-.006-4.333.156-6.054.877-9.33 1.992-9.048 7.424-16.893 13.707-19.796 2.138-.988 3.978-1.357 6.696-1.345 2.867.012 4.344.358 6.865 1.608 6.738 3.339 12.141 11.992 13.746 22.012.376 2.346.52 8.68.257 11.304-.614 6.134-2.524 11.733-5.542 16.247-4.217 6.305-8.867 9.317-14.84 9.614-.889.044-2.124.01-2.745-.076zm4.95-6.868c2.582-.672 4.682-1.918 6.758-4.007 1.425-1.434 3.146-3.79 3.008-4.12-.104-.246-7.788-9.758-8.351-10.336l-.384-.395-.502.668c-.939 1.247-2.475 2.05-3.659 1.913l-.588-.069-.1.877c-.09.789-1.48 15.316-1.48 15.473 0 .323 4.053.32 5.297-.004zM81.773 87.8l5.214-2.821-.041-.603c-.192-2.786-.104-4.096.365-5.454l.475-1.375-.673-.71c-.37-.39-2.425-2.588-4.566-4.882s-3.942-4.193-4.001-4.22c-.173-.078-1.291 2.505-1.868 4.315-1.145 3.589-1.61 7.536-1.402 11.898.13 2.737.819 6.705 1.16 6.683.067-.005 2.47-1.278 5.337-2.83zm11.317-.97c2.618-1.188 3.197-6.381.94-8.42-.843-.762-1.626-.932-2.54-.55-1.447.603-2.458 2.172-2.631 4.084-.185 2.041.685 4.168 1.986 4.855.828.436 1.338.444 2.245.031zm7.907-9.416 5.309-2.867 1.417-.767-.346-1.173c-1.056-3.576-3.284-7.5-5.684-10.005-1.588-1.66-4.893-3.745-6.06-3.824l-.46-.032-.996 7.3c-.548 4.015-1.042 7.613-1.098 7.995-.1.683-.088.703.695 1.117 1.264.668 2.334 2.042 3.02 3.88.098.263.208.478.244.478s1.818-.946 3.959-2.102zm-79.033 51.473c-5.016-1.352-9.414-6.182-10.42-11.444-.932-4.87.756-8.789 4.564-10.597 1.21-.575 1.533-.65 3.025-.71 3.863-.156 7.505 1.603 10.351 5 2.301 2.745 3.36 5.325 3.496 8.527.051 1.193.005 2.389-.115 2.966-.532 2.558-2.24 4.707-4.655 5.856-1.265.602-1.482.649-3.182.691-1.368.034-2.135-.038-3.064-.289z" style="fill:#000;stroke:#f5cb5b;stroke-width:.173803;stroke-opacity:0" transform="translate(-.032)scale(.26458)"/></svg>