<svg xmlns="http://www.w3.org/2000/svg" xml:space="preserve" width="407.862" height="442.104" viewBox="0 0 107.914 116.973"><path d="M88.56 7.687q-1.962 0-3.834 1.516l-1.784 1.962-.18 2.32.804 4.012.357 2.676-.446 7.581-3.479 10.792q-3.477 10.613-4.37 15.072c-.03.14-.05.292-.08.434l1.71 5.898q1.386 6.465 1.502 14.434l-1.155 12.932 2.17 3.222.312.004 1.784.892 5.53 1.248v5.352h5.529v-5.352l5.53-1.248 1.784-.892h7.67V79.126l-2.943-4.37.892-9.99q-.09-6.153-1.16-11.147l-4.37-15.073-3.478-10.791-.446-4.371.09-3.121.266-2.765q.447-2.764.803-4.013l-.178-2.32-1.784-1.962q-1.87-1.515-3.746-1.427zm1.606 32.642q4.459 0 7.581 4.371 3.21 4.102 3.3 10.077 0 5.886-3.3 10.079-3.121 4.191-7.581 4.191t-7.581-4.191q-3.3-4.193-3.3-10.079.178-5.886 3.3-10.077 3.122-4.37 7.58-4.37m0 3.747q-3.033 0-5.262 2.942-2.408 3.3-2.408 7.76 0 4.637 2.408 7.759 2.23 2.942 5.262 2.942 3.033 0 5.262-2.942 2.408-3.122 2.408-7.76l-.535-4.102-.624-1.695-1.249-1.962q-2.139-3.033-5.262-2.942M16.142 8.31q-1.962 0-3.834 1.517l-1.784 1.961-.179 2.32.803 4.013.357 2.675-.446 7.582-3.478 10.791Q4.102 49.783 3.21 54.242 2.14 59.236 2.05 65.39l.981 10.078L0 79.748l.089 11.328 7.58.09 1.785.891 5.53 1.249v5.351h5.528v-5.351l5.53-1.249 1.785-.892h.005l2.792-3.941-1.27-13.05q.116-7.966 1.501-14.433c.29-1.45.792-3.402 1.399-5.607l-4.338-14.965-3.478-10.791-.447-4.371.09-3.12.267-2.766q.446-2.764.802-4.013l-.177-2.32-1.784-1.961Q21.317 8.31 19.443 8.4zm1.606 32.643q4.46 0 7.582 4.37 3.21 4.103 3.3 10.078 0 5.886-3.3 10.079-3.123 4.191-7.582 4.191-4.46 0-7.58-4.191-3.3-4.193-3.3-10.079.177-5.886 3.3-10.078 3.121-4.37 7.58-4.37m0 3.746q-3.032 0-5.262 2.943-2.408 3.3-2.408 7.76 0 4.637 2.408 7.758 2.23 2.943 5.262 2.943 3.033 0 5.262-2.943 2.409-3.12 2.409-7.759l-.536-4.103-.624-1.694-1.249-1.962q-2.139-3.033-5.262-2.943M68.249 60.97q-.115-7.738-4.272-13.049-4.043-5.66-9.816-5.659-5.773 0-9.815 5.66-4.042 5.426-4.273 13.047 0 7.62 4.273 13.049 4.04 5.427 9.815 5.427t9.816-5.427q4.272-5.428 4.272-13.049m-7.275-10.046 1.617 2.54.808 2.194.693 5.312q0 6.005-3.118 10.046-2.886 3.81-6.813 3.81-3.925 0-6.813-3.81-3.117-4.04-3.117-10.046 0-5.774 3.117-10.046 2.887-3.81 6.813-3.81 4.043-.117 6.813 3.81M56.354.115q2.428-.115 4.85 1.848l2.31 2.54.23 3.003q-.46 1.617-1.038 5.196l-.346 3.58-.116 4.04.578 5.66 4.503 13.971 5.657 19.515q1.386 6.466 1.502 14.434L73.33 86.835l3.81 5.658v14.78h-9.93l-2.31 1.156-7.16 1.616v6.928h-7.157v-6.928l-7.16-1.616-2.31-1.155-9.815-.115-.115-14.666 3.926-5.542-1.27-13.049q.115-7.968 1.501-14.434 1.155-5.774 5.658-19.515L45.5 25.982l.577-9.816-.462-3.464-1.04-5.196.232-3.003 2.31-2.54Q49.542 0 52.082 0"/></svg>