<?xml version="1.0" encoding="UTF-8" standalone="no"?>
<svg
   width="81.7006mm"
   height="80.737556mm"
   viewBox="0 0 81.7006 80.737556"
   version="1.1"
   xml:space="preserve"
   xmlns="http://www.w3.org/2000/svg"
   xmlns:svg="http://www.w3.org/2000/svg"><path
     style="fill:#000000"
     d="m 1.1388258,0.01383 c -0.96382298,-0.0809 -1.23926498,1.00647 -1.10823998,1.76035 0.409111,3.11363 1.68193698,6.03227 2.85505398,8.91966 2.444348,5.6459 5.280215,11.15523 8.8040832,16.2085 3.300645,4.56577 7.525067,8.34562 11.598785,12.19951 6.14332,5.69855 12.718109,10.92007 19.754309,15.50304 0.80367,0.6241 1.83821,1.11428 2.32257,2.0398 0.54551,2.78814 0.58757,5.65071 0.75146,8.48152 0.12541,2.0488 0.0174,4.12197 0.35401,6.15129 2.7483,3.15448 5.87172,5.95957 8.74543,8.99744 0.47659,0.5732 1.66943,0.72309 1.84907,-0.18869 0.24365,-0.98007 -0.68694,-1.74166 -0.56148,-2.72343 0.004,-3.94978 0.64081,-7.8711 1.33617,-11.74893 0.0558,-0.67913 0.5481,-1.5576 1.35347,-1.23092 1.111,0.45416 1.82324,1.50224 2.82303,2.13894 1.65704,1.23644 3.335,2.5413 5.17306,3.55637 0.86772,-0.083 1.37843,-0.97823 1.96285,-1.53996 2.21736,-2.62321 4.43114,-5.26173 6.42582,-8.05965 0.40682,-0.54117 0.77142,-1.43778 0.0637,-1.90618 -2.43721,-2.37447 -5.3433,-4.29228 -7.43176,-7.00741 -0.44925,-0.52265 -0.5612,-1.45722 0.16951,-1.78813 2.50529,-1.37856 5.1581,-2.47783 7.74661,-3.69058 1.30165,-0.54673 2.68332,-1.30477 4.13772,-0.93357 0.78887,0.22746 1.58802,-0.5356 1.41191,-1.32257 -1.48447,-1.50963 -3.32839,-2.61688 -5.03334,-3.85966 -1.88202,-1.29954 -3.78316,-2.57086 -5.67955,-3.84932 -3.99406,0.80892 -7.95861,1.78701 -11.98343,2.42815 -0.73734,0.13463 -1.6252,0.13381 -2.06244,-0.59511 C 48.369717,29.13109 40.050847,20.03348 30.288961,12.54269 23.881987,7.65893 16.972595,3.03873 9.0419378,1.11058 6.5291628,0.52698 3.9634758,0.06789 1.3808148,0 1.3001648,0.005 1.2195088,0.009 1.1388558,0.0138 Z m 1.617187,1.65429 c 2.887569,0.16273 5.70599,0.93328 8.4784312,1.71568 1.745047,0.52539 3.452949,1.2166 5.115319,1.93667 0.470597,0.57465 0.03147,1.41949 -0.0918,2.06765 C 16.112742,8.02134 15.632696,8.89184 14.857577,8.51578 11.331975,6.58649 7.5530328,5.03108 3.7439218,3.68035 3.0886098,3.34701 2.2064798,3.25001 1.7814048,2.59977 1.5536828,1.96256 2.2101608,1.62764 2.7560128,1.66812 Z M 18.898591,6.79703 c 1.776562,0.68471 3.305895,1.8795 4.896777,2.90514 7.889359,5.36966 14.933619,11.86377 21.675489,18.589 3.2355,3.32521 6.48154,6.64029 9.68945,9.99219 -0.0647,0.99324 -0.90759,1.72201 -1.3807,2.55297 -0.27305,0.79584 -0.66627,0.46635 -1.07925,-0.0248 -5.859,-5.37708 -11.58357,-10.89947 -17.3299,-16.39722 -2.13666,-2.04018 -4.329071,-4.01964 -6.618931,-5.88565 -3.717619,-3.04356 -7.465893,-6.07365 -11.480287,-8.72082 -0.621948,-0.24929 0.188528,-0.93497 0.215259,-1.39395 0.176357,-0.57773 0.599195,-1.09886 0.726547,-1.65864 -0.114264,-0.37471 0.518129,0.0628 0.685546,0.0418 z m 51.867186,31.09766 c 2.28423,1.55924 4.6931,2.95405 6.8573,4.67863 0.62881,0.40342 0.36702,1.37661 -0.39831,1.35652 -1.42698,-0.0605 -2.66205,-0.95001 -3.89844,-1.58007 -1.06302,-0.56726 -2.00476,-1.37075 -3.125,-1.81836 -2.88912,0.41885 -5.76498,0.9722 -8.58789,1.7207 -0.64565,-0.39731 -1.74822,-0.81854 -1.57813,-1.74609 0.43197,-0.88668 1.63281,-0.73194 2.44164,-0.99435 2.70756,-0.54929 5.40264,-1.15785 8.10328,-1.74003 0.0618,0.041 0.1237,0.082 0.18555,0.12305 z m -14.13086,2.27148 c 0.90882,0.25261 1.40485,1.19837 2.07168,1.80381 3.04991,3.51372 6.01248,7.13363 8.50645,11.06924 0.39334,0.51308 0.57943,1.54017 -0.27344,1.67969 -1.09453,0.16137 -1.61906,-1.06888 -2.29366,-1.69226 -2.6317,-3.10992 -5.5059,-6.02254 -8.39481,-8.91446 -0.47183,-0.57249 -1.17611,-1.05784 -1.38184,-1.78196 0.0845,-0.85283 0.66058,-1.7191 1.41601,-2.12304 0.10649,-0.0435 0.23577,-0.0564 0.34961,-0.041 z m 12.35157,15.21485 c 1.21891,0.3333 2.11396,1.34589 3.10486,2.08179 0.75811,0.71409 1.73344,1.29053 2.21349,2.23852 -0.0805,0.78534 -1.0116,0.86667 -1.57098,0.52892 -1.59946,-0.78907 -3.10268,-1.81562 -4.42511,-3.01134 -0.65916,-0.54203 -0.36811,-1.65032 0.44727,-1.83008 0.0767,-0.006 0.15412,-0.0403 0.23047,-0.008 z" /></svg>
