<svg id="Layer_1" data-name="Layer 1" xmlns="http://www.w3.org/2000/svg" viewBox="0 0 571 581">
  
  <g id="_4BAgQN.tif" data-name="4BAgQN.tif">
    <g>
      
      <path class="cls-1" d="m25.92,209.72c.89-1.38,1.71-2.27,2.1-3.31,6.13-16.75,19.8-25.62,34.64-33.28,1.33-.68,2.61-1.51,4.02-1.99,3.8-1.3,5.4-4.08,5.84-7.87,1.79-15.31,3.69-30.62,5.44-45.94,1.06-9.23,1.34-18.58,3.06-27.67,1.23-6.47,5.39-11.96,11.07-15.54,5.18-3.27,10.85-5.75,16.29-8.6,6.85-3.58,7.09-5.1,1.79-10.46-2.45-2.48-4.87-4.99-7.21-7.58-.76-.84-1.2-1.96-1.72-2.84,1.87-4.12,4.49-4.33,7.5-1.61,3.92,3.54,7.73,7.2,11.6,10.82,2.57-3.23,4.95-6.38,7.49-9.4,6.86-8.16,15.32-14.17,25.06-18.41,3.33-1.45,5.53-3.3,2.78-7.48,5.11-1.54,6.58-4.36,4.24-8.91-.27-.52.91-2.43,1.78-2.78,3.8-1.54,7.73-2.74,11.88-4.15.8,1.99,1.18,3.66,2.08,4.94.7.99,1.97,1.79,3.15,2.19,2.08.71,4.28,1.04,6.44,1.54-.07.44-.14.87-.21,1.31,7.35-1.16,14.74-3.44,22.05-3.2,9.6.31,19.66-.97,28.76,4.06,1.38.76,3.67-.32,5.46-.05,4.45.67,8.87,1.58,13.28,2.52.42.09,1.05,1.16.92,1.58-1.12,3.7.52,6.35,3.56,7.81,6.36,3.06,12.86,5.86,19.46,8.34.8.3,2.68-1.97,3.91-3.2,2.09-2.1,3.38-5.86,7.46-3.77,4.62,2.36,2.31,5.76,1.15,8.96-.1.28-.01.62-.01,1.65,10.82,4.14,21.76,8.93,33.1,12.37,4.33,1.31,9.59-.7,14.43-.71,2.15,0,5.18.54,6.31,2,3.77,4.87,9.09,5.47,14.39,6.83,6.88,1.76,13.66,3.98,20.34,6.39,2.24.81,4.31,2.56,6,4.33,4.08,4.28,7.76,8.95,11.91,13.16.96.97,3.23,1.16,4.79.94,6.69-.96,11.09,4.17,8.88,10.63-.79,2.31-1.7,4.57-2.76,7.41,9.16-.21,11.44,6.92,14.97,12.7,2.31,3.77,4.56,7.58,7.19,11.12.83,1.12,2.73,1.7,4.25,2.03,5.91,1.28,9.22,3.87,9.22,8,0,5.24-3.7,7.32-8.04,8.72-.9.29-1.75.75-2.35,1.02,5.14,7.13,10.35,13.9,15.03,21.03,2.13,3.25,2.88,7.4,4.89,10.76,1.32,2.21,3.47,4.5,5.77,5.43,4.42,1.8,9.25,2.57,13.86,3.93,5.58,1.65,11.1,3.48,16.65,5.22-.06.47-.12.94-.17,1.41h-19.85c-.16.47-.31.93-.47,1.4,2.97,2.52,5.91,5.09,8.92,7.57,19.66,16.16,38.76,32.97,55.43,52.22,5.21,6.02,10.13,12.58,9.99,22.03-.06,4.43,5.04,8.97,7.89,13.41,2.19,3.41,5.15,6.47,6.63,10.15,3.21,7.94,6.54,16,8.21,24.33,1.36,6.81.87,14.13.28,21.14-.39,4.67-5.64,5.92-8.93,2.4-1.89-2.02-3.37-4.49-4.75-6.92-2.52-4.48-4.7-9.15-7.31-13.57-.63-1.07-2.44-1.4-3.6-2.22-1.7-1.22-3.41-2.47-4.91-3.92-1.25-1.21-2.21-2.72-3.55-4.42-2.45,13.6-2.57,13.7-13.24,10.73-1.67,2.69-3.4,5.47-5.28,8.5-5.91-2.92-13.89-2.77-14.12-13.61-1.56,7.16-2.84,12.52-3.88,17.92-.78,4.07-3.35,4.4-5.52,1.96-2.66-3-4.5-6.79-6.41-10.39-1.62-3.05-2.49-6.52-4.3-9.43-3.85-6.21-6.31-6.97-12.58-3.68-3.5,1.84-6.95,4.17-9.58,7.04-1.15,1.26-.59,4.52-.13,6.73,3.74,18.32,5.72,36.74,3.19,55.39-.3,2.24-1.58,4.35-2.4,6.52-.61.09-1.23.17-1.84.26-1.45-2.4-3.23-4.67-4.3-7.23-3.51-8.41-6.7-16.94-10.14-25.37-.67-1.64-1.89-3.07-3.13-5.02-1.86,2.59-3.34,4.88-5.07,6.98-3.04,3.68-3.7,7.42-1.72,11.95.74,1.69.22,4.17-.33,6.13-1.31,4.7.07,6.59,4.66,8.3,8.12,3.04,13.25,9.64,17.53,16.82.55.93-.42,2.83-.83,4.25-.7,2.44-1.5,4.86-2.18,7,.79.59.97.8,1.05.77,7.46-3.29,10.69,1.62,13.68,7.02.56,1.02,1.05,2.12,1.8,2.98,4.76,5.5,6.5,11.15,1.47,16.46,1.67,2.24,3.18,3.89,4.25,5.78,6.74,11.97,6.9,25.49,8.52,38.57.74,5.93,3.49,8.58,9.84,8.7,5.89.12,11.81-1.31,17.73-1.93,1.37-.14,3.23-.28,4.1.47,3.72,3.19,6.69,1.43,9.71-.94,8.88-6.96,13.86-16.29,16.71-27.03.48-1.79,2.21-3.25,3.37-4.86,1.66,1.53,4.3,2.79,4.82,4.64,3.97,14.21,4.51,28.15-4.91,40.84-.96,1.29-2.09,2.89-2.13,4.37-.13,5.2-2.94,8.63-6.06,12.48-2.64,3.26-2.89,8.35-5.11,12.08-2.18,3.68-4.87,7.92-8.45,9.74-11.05,5.62-22.82,9.79-32.17,18.46-1.67,1.55-4.57,1.78-6.9,2.64-6.21,2.29-12.85,3.84-18.52,7.08-6.34,3.62-12.33,3.13-18.6,1.28-11.62-3.43-23.12-7.26-34.76-10.61-4.91-1.42-10.07-2.96-15.08-2.84-8.97.22-16.37-3.56-22.9-8.46-25.18-18.88-54.4-28.68-83.43-39.39-13.85-5.11-26.81-13.03-39.49-20.8-11.01-6.75-21.22-14.85-31.43-22.81-3.57-2.78-5.97-7.02-9.17-10.34-.96-.99-2.81-1.35-4.3-1.53-2.29-.27-4.71.27-6.92-.23-4.15-.95-8.15-2.54-12.28-3.61-5.01-1.29-10.45-8.15-10.36-13.96.09-6.06.68-12.12.82-18.18.03-1.09-.76-2.52-1.63-3.28-12.6-11.05-25.69-21.59-37.83-33.12-11.77-11.18-26.56-15.8-40.98-21.61-11.67-4.7-23.55-9.2-32.82-18.32-1.27-1.25-2.89-2.44-4.57-2.95-9.74-2.94-17.05-9.88-24.96-15.58-9.79-7.05-12.26-18.11-12.17-29.59.09-12.13.58-24.27,1.07-36.4.11-2.88-.73-4.62-3.42-5.8-3.49-1.53-6.75-3.6-10.25-5.11-5.39-2.32-6.45-6.85-6.13-11.87.09-1.44,1.57-3.18,2.89-4.07,2.79-1.88,4.02-4.11,3.66-7.49-.27-2.63-.14-5.32-.03-7.98.16-4.25.3-8.08-4.86-10.22-1.17-.48-1.15-5.23-.59-7.78.2-.89,4.04-2.02,5.55-1.4,5.35,2.19,10.41,5.1,16.01,7.95Zm345.49,188.9c-2.33.65-4.07,1.11-5.8,1.61-8.61,2.5-11.87,1.38-16.57-6.48-1.75-2.92-3.57-1.57-5.46-.85-7.9,3.01-15.77,6.1-23.66,9.16-8.89,3.45-17.77,6.9-27.14,10.54,1.24,1.32,2.18,1.91,2.51,2.74,4.64,11.65,15.02,17.79,24.11,25.11,4.75,3.82,10.4,6.62,14.76,10.79,9.05,8.66,19.26,15.05,31.19,18.73,18.36,5.66,35.04,13.72,47.12,29.64,4.43,5.84,11.12,9.47,19.16,11.9-.63-1.97-.78-3.12-1.32-4.04-6.37-10.89-12.28-22.08-19.32-32.52-10.15-15.06-19.45-30.47-26.43-47.29-4-9.64-8.6-19.03-13.16-29.05Zm-134.8-81.24c19.06,10.9,38.06,21.12,60.39,15.85-.65-4.91-1.18-9.04-1.76-13.16-.06-.46-.33-.94-.63-1.31-3.65-4.47-7.25-8.98-11.05-13.32-.78-.89-2.29-1.22-3.52-1.65-12.49-4.38-24.87-1.9-37.2.81-1.17.26-2.48,1.67-2.97,2.86-1.26,3.04-2.1,6.25-3.27,9.91Zm-2.04,12.54c0,4.14-.16,7.28.09,10.39.09,1.09.92,2.56,1.84,3.07,5.49,3.05,11.03,6.05,16.73,8.7,3.07,1.43,5.4-.38,4.39-3.45-1.12-3.4-2.97-7.26-5.72-9.25-5.01-3.64-10.91-6.06-17.33-9.46Zm-183.27-25.11c.45-2.16,1.08-3.99,1.17-5.85.29-6.13.4-12.28.53-18.42.14-6.54-.88-7.63-7.97-8.62-.37,6.8-1.3,13.61-.93,20.35.25,4.66.83,10.05,7.2,12.54Zm35.4-9.45c-.8.22-1.6.45-2.4.67.61,7.82,1.11,15.65,1.97,23.44.12,1.07,2.46,2.95,3.07,2.71,1.39-.55,3.17-2.1,3.32-3.42.41-3.6.8-7.5-.16-10.9-1.24-4.37-3.81-8.36-5.8-12.51Zm186.16,89.69c-8.87-3.36-16.72-6.34-24.57-9.32,2.44,5.02,5.55,9.4,8.87,13.62.51.64,2.15.97,3,.67,4.01-1.41,7.94-3.08,12.69-4.98Zm56.09-36.52c-.08-.52-.16-1.05-.24-1.57h-20.27c.26,2.54.24,4.88.88,7.03.21.69,2.42,1.47,3.32,1.14,5.5-2.03,10.89-4.36,16.31-6.6Z"/>
      
      
      
      
      
      
      
    </g>
  </g>
</svg>