<?xml version="1.0" encoding="UTF-8"?>
<svg id="Layer_1" data-name="Layer 1" xmlns="http://www.w3.org/2000/svg" viewBox="0 0 410 412">
  <defs>
    <style>
      .cls-1, .cls-2 {
        stroke-width: 0px;
      }

      .cls-2 {
        fill: #fff;
      }
    </style>
  </defs>
  <g id="ZMtxD0.tif">
    <g>
      <path class="cls-2" d="m0,0h410v412H0V0Zm48.7,323.02c-5.98,6.51-11.42,12.14-16.5,18.08-2.46,2.87-4.33,6.27-6.25,9.55-.46.79-.46,2.51.08,3.06.53.54,2.21.5,3.04.06,1.28-.67,2.36-1.81,3.38-2.89,5.96-6.3,11.97-12.55,17.75-19,2.01-2.25,3.46-2.34,5.8-.51,3.79,2.97,7.87,5.58,11.82,8.35,4.73,3.31,5.13,6.44,1.21,10.48-7.78,8.01-15.48,16.11-23.47,23.91-3.04,2.97-2.94,5.17,1.3,8.66,9.75-9.38,19.59-18.83,29.11-27.98,2.3,2.67,4.36,5.24,6.61,7.62,4.93,5.19,10.47,9.9,14.77,15.56,2.82,3.71,4.05,8.37,10.18,7.22.99-.19,2.46.97,3.4,1.84,7.08,6.56,14.14,13.13,21.08,19.84,5.81,5.62,6.5,5.68,11.74-.31,21.19-24.2,42.35-48.43,63.67-72.51,1.98-2.23,4.88-3.88,7.66-5.12,11.07-4.96,23.03-8.39,33.25-14.68,33.08-20.36,65.03-42.37,91.52-71.32,15.28-16.7,31.69-32.43,46.02-49.89,13.18-16.05,24.59-33.57,22.84-56.27-.42-5.41-.87-10.35-3.51-15.2-5.82-10.66-9.92-22.54-17.15-32.08-13.66-18.01-29.34-34.48-43.61-52.05-12.2-15.02-27.58-24.9-45.09-32.65-9.66-4.27-18.87-4.32-28.59-2.64-4.42.76-8.86,1.74-13.09,3.21-3.01,1.05-6.06,2.65-8.42,4.76-5.12,4.57-9.8,9.63-15.17,14.99-.85-3.4-1.66-5.76-2.01-8.19-1.08-7.58-11.23-13.24-16.8-13.73-14.12-1.23-27.34,3.53-39.02,10.22-21.28,12.2-40.44,27.5-57.15,45.71-15.39,16.77-26.12,36.05-32.02,57.99-1.99,7.39-3.07,15.04-5.32,22.34-5.39,17.5-5.47,35.43-5.36,53.44,0,1.53-.23,3.53-1.18,4.54-7.55,7.99-14.98,16.14-23.07,23.57-15.58,14.32-31.48,28.3-47.45,42.19-3.5,3.05-3.37,6.54-1.97,9.8,1.4,3.26,3.83,6.23,6.31,8.84,13.07,13.75,26.31,27.34,39.65,41.16Z"/>
      <path class="cls-1" d="m48.7,323.02c-13.34-13.82-26.58-27.41-39.65-41.16-2.49-2.61-4.91-5.58-6.31-8.84-1.4-3.26-1.53-6.75,1.97-9.8,15.96-13.89,31.87-27.87,47.45-42.19,8.08-7.43,15.51-15.58,23.07-23.57.95-1,1.19-3,1.18-4.54-.11-18-.03-35.94,5.36-53.44,2.25-7.3,3.34-14.95,5.32-22.34,5.9-21.94,16.63-41.22,32.02-57.99,16.71-18.21,35.87-33.51,57.15-45.71,11.68-6.7,24.9-11.45,39.02-10.22,5.57.48,15.72,6.14,16.8,13.73.35,2.43,1.16,4.79,2.01,8.19,5.37-5.36,10.05-10.42,15.17-14.99,2.36-2.11,5.41-3.72,8.42-4.76,4.23-1.47,8.67-2.45,13.09-3.21,9.73-1.68,18.93-1.63,28.59,2.64,17.51,7.75,32.89,17.63,45.09,32.65,14.27,17.57,29.95,34.04,43.61,52.05,7.23,9.54,11.34,21.42,17.15,32.08,2.64,4.85,3.09,9.79,3.51,15.2,1.75,22.7-9.65,40.21-22.84,56.27-14.33,17.46-30.74,33.19-46.02,49.89-26.49,28.95-58.44,50.96-91.52,71.32-10.22,6.29-22.19,9.72-33.25,14.68-2.78,1.24-5.68,2.89-7.66,5.12-21.33,24.08-42.48,48.31-63.67,72.51-5.25,5.99-5.93,5.93-11.74.31-6.93-6.71-14-13.28-21.08-19.84-.94-.87-2.4-2.02-3.4-1.84-6.12,1.15-7.36-3.51-10.18-7.22-4.29-5.66-9.84-10.37-14.77-15.56-2.26-2.38-4.31-4.96-6.61-7.62-9.52,9.15-19.35,18.6-29.11,27.98-4.23-3.49-4.33-5.69-1.3-8.66,7.98-7.81,15.69-15.9,23.47-23.91,3.92-4.04,3.53-7.18-1.21-10.48-3.96-2.76-8.03-5.38-11.82-8.35-2.34-1.83-3.79-1.74-5.8.51-5.78,6.45-11.79,12.7-17.75,19-1.02,1.08-2.1,2.22-3.38,2.89-.84.43-2.51.48-3.04-.06-.54-.55-.54-2.26-.08-3.06,1.92-3.29,3.8-6.68,6.25-9.55,5.08-5.94,10.52-11.57,16.5-18.08Z"/>
    </g>
  </g>
</svg>