<svg id="Layer_1" data-name="Layer 1" xmlns="http://www.w3.org/2000/svg" viewBox="0 0 591 363">
  
  <g id="PJgwto.tif">
    <g>
      
      <path class="cls-1" d="m404.38,116.65c12.51-3.53,20.46,5.33,28.78,12.36,4.77,4.04,8.89,5.65,15.18,4.06,13.89-3.51,24.11.29,33.24,12.73,3.66,4.99,7.79,8.57,13.36,11.3,16.94,8.29,30.86,20.4,43.11,34.7,18.73,21.87,32.97,46.37,41.82,73.6,5.01,15.41,7.51,31.67,7.09,48.1-.21,7.96-.25,15.98-1.4,23.82-.59,3.98-3.48,7.62-5.33,11.42-.58-.21-1.16-.42-1.73-.62-.96-6.46-1.61-12.98-2.96-19.36-3.51-16.58-10.76-31.77-19.12-46.3-9.56-16.62-20.73-32.31-36.84-43.3-6.41-4.38-14.2-6.79-21.53-9.7-1.13-.45-3.82.79-4.58,2-5.23,8.35-13.57,12.21-22.43,12.76-13.8.85-24.78-5.74-32.67-17.17-1.23-1.78-2.63-3.5-3.5-5.44-5.95-13.38-17.49-19.24-30.63-23.01-3.35-.96-6.74-1.83-10.02-3-5.07-1.81-9.7-4.11-11.7-9.84-.56-1.6-2.43-3.3-4.07-3.88-4.86-1.7-8.07-4.69-10.21-9.38-.72-1.57-3.03-3.25-4.73-3.39-8.02-.65-13.32-5.16-18.02-11.08-.9-1.13-3.42-2.04-4.72-1.61-22.41,7.31-44.75,14.84-67.1,22.33-.28.09-.48.42-1.91,1.74,3.58-.2,6.46.48,8.28-.61,8.95-5.38,17.6-2.35,24.98,2.06,10.73,6.42,21.78,11.99,32.84,17.74,33.25,17.26,56.01,44.73,71.45,78.46,9.91,21.65,13.97,44.49,12.94,68.23-.23,5.31-1.42,10.35-5.97,15.36-.51-3.63-.74-6.27-1.26-8.86-2.72-13.64-9.51-25.4-17.17-36.75-9.76-14.45-21.64-26.99-35.45-37.54-9.4-7.18-20.06-11.37-32.32-10.73-3.6.19-4.61,1.76-5.72,4.75-5.53,14.89-19.83,21.74-33.77,17.13-5.09-1.68-9.36-7.27-12.85-11.93-3.73-5-5.85-11.17-9.18-16.51-1.65-2.64-4.03-5.46-6.76-6.67-12.73-5.65-25.75-10.64-38.52-16.21-2.5-1.09-4.41-3.62-6.43-5.66-4.86-4.9-9.37-10.2-14.52-14.77-3.78-3.35-8.67-5.45-12.49-8.76-2.87-2.49-4.67-6.15-7.24-9.03-1.4-1.57-3.29-3.49-5.16-3.73-10.42-1.36-20.59-3.22-29.81-8.75-1.72-1.03-4.19-1.15-6.3-1.12-5.5.07-9.39-2.81-12.93-6.46-3.13-3.21-6.19-6.49-9.27-9.75-2.91-3.08-5.24-7.13-10.56-6.01-.28.06-.7-.08-.93-.28-8.12-6.63-18.47-10.37-24.49-19.79-2.4-3.76-4.7-7.57-9.39-9.98-14.99-7.71-30.7-11.74-47.38-13.9C9.94,118.31-.11,104.4,3.5,88.16c1.77-7.97,5.33-15.63,8.76-23.11,2.95-6.43,9.76-8.73,16.74-8.28,9.71.62,17.81,4.58,25.57,9.92,8.21,5.64,16.58,11.06,24.88,16.57,1.32.88,2.66,1.72,3.02,1.95,1.55-5.22,1.96-10.96,4.74-15.13,7.1-10.65,20.45-10.18,27.85.32,2.25,3.2,4.32,6.54,6.92,10.5,1.21-1.96,2.18-3.08,2.67-4.38,5.49-14.43,15.68-25.15,27.4-34.61,2.85-2.3,6.24-3.93,9.17-6.15,1-.76,1.7-2.35,1.9-3.66,1.3-8.63,5.49-15.9,10.31-22.95,2.92-4.28,7-5.02,11.72-4.75,2.58.15,5.29.23,7.77-.36,6.34-1.5,10.92,1.04,15.4,5.76,5.53,5.81,11.94,11.03,18.72,15.32,9.8,6.2,20.26,11.34,30.44,16.94.15.08.27.21.42.26,7.94,2.51,15.96,4.78,23.78,7.62,3.14,1.14,6.47,3,8.56,5.5,3.72,4.45,8.51,6.44,13.72,7.21,12.58,1.87,24.72,4.76,35.95,11.07,2.21,1.24,5.41.73,8.15,1.06,9.6,1.15,16.23,6.11,19.53,15.29,1.56,4.33,3.9,6.38,9.18,7.02,12.2,1.49,20.83,9.14,27.59,19.55Zm-146.16-.21c-2.63,15.11-10.31,28.66-19.06,38.8,1.8,2.93,2.8,5.92,4.87,7.58,2.09,1.68,5.68,3.48,7.85,2.8,20.56-6.45,40.96-13.42,61.72-20.35-2.73-4.17-4.48-9.09-10.66-5.16-.69.44-2.2-.08-3.19-.49-7.2-2.99-12.97-7.52-17.18-14.34-2.28-3.7-6-6.55-9.25-9.59-.79-.74-2.33-1.07-3.47-.95-3.58.36-7.13,1.01-11.63,1.69Zm-81.66-1.51c-.3,5.18,0,5.71,4.23,7.76,2.9,1.4,9.95.12,11.88-2.47,1.66-2.22,3.53-4.59,4.19-7.17,1.78-6.99,2.78-14.18,4.48-21.19.81-3.36-.82-5.34-3.21-6.29-1.61-.64-4.45-.28-5.77.81-8.92,7.41-15.49,16.29-15.8,28.55Z"/>
      
      
    </g>
  </g>
</svg>