<?xml version="1.0" encoding="UTF-8"?>
<svg id="Layer_1" data-name="Layer 1" xmlns="http://www.w3.org/2000/svg" viewBox="0 0 598 284">
  <defs>
    <style>
      .cls-1, .cls-2 {
        stroke-width: 0px;
      }

      .cls-2 {
        fill: #fff;
      }
    </style>
  </defs>
  <g id="ivpl9Q.tif">
    <g>
      <path class="cls-2" d="m598,284H0V0h598v284Zm-86.49-183.12c.97-.89,2.97-1.98,3.76-3.65,1.05-2.21,2.39-6.17,1.43-7.09-3.2-3.05-7.08-6.11-11.23-7.24-6.64-1.81-13.7-2.07-20.57-3.03-.8-.11-2.14-.41-2.24-.85-1.53-6.94-7.89-4.39-12.01-6.11-1.72-.71-4.74-1.37-5.61-.5-3.06,3.05-6.05,1.63-9.2.93-7.3-1.64-14.55-3.85-21.95-4.66-5.31-.58-11.33-.45-16.11,1.56-4.68,1.97-8.56,1.74-12.87.51-7.62-2.17-15.15-4.69-22.83-6.62-9.35-2.35-18.97-3.73-28.19-6.49-8.98-2.69-15.12.27-20.17,7.36-.6.84-1.59,2.02-2.39,2.01-3.74-.03-7.57.02-11.2-.76-19.2-4.13-38.33-8.62-57.54-12.69-4.24-.9-7.07-3.09-8.45-6.77-1.37-3.66-3.84-4.9-7.35-5.65-42.47-9.06-84.92-18.2-127.37-27.38-2.07-.45-4.59-.78-5.97-2.13-6.6-6.4-15.26-7.07-23.47-8.69-3.26-.65-7.15-.26-10.27.92-10.7,4.04-18.92,11.64-25.82,20.47-12.63,16.17-21.11,34.61-28.26,53.72-.57,1.52-1.17,3.61-2.36,4.2-4.66,2.31-4.94,6.55-5.52,10.78-.74,5.37-1.27,10.79-2.31,16.1-1.35,6.85-3.45,13.57-4.63,20.45-2.83,16.55-5.35,33.16-7.85,49.76-.26,1.7.48,3.55.78,5.33.42,2.43.95,4.84,1.28,7.28,1.74,12.68,2.26,25.66,5.44,37.96,4.35,16.82,12.71,30.79,32.97,32.47,6.2.51,11.76.39,17.38-2.42,2.13-1.07,5.08-1.48,7.42-1,13.36,2.75,26.62,6.05,39.98,8.77,8.59,1.75,17.27,3.56,25.98,4,7.5.37,15.09-1.34,22.66-1.78,2.87-.17,5.82,1.06,8.69.86,4.55-.31,9.03-1.44,13.58-1.92,8.15-.87,16.48-2.6,23.66,3.47.57.48,1.59.41,2.39.65,14.38,4.3,29.18,6.21,44.02,7.91,8.48.97,11.4-.55,15.29-8.4,3.18-6.4,8.51-9.08,15.11-7.22,5.63,1.59,11.02,1.38,15.66-2.28,4.81-3.8,10.16-7.42,13.61-12.31,5.1-7.22,10.4-8.72,18.72-6.09,5.08,1.61,9.34,3.13,12.8,7.33,1.8,2.18,4.65,3.9,7.36,4.82,5.01,1.7,9.46.1,13-3.9,3.42-3.86,3.61-8.33,1.52-12.58-4.01-8.17-8.5-16.1-13.12-24.75,8.34,1.47,14.79-1.49,20.33-8.87,2.63,10,8.55,15.13,16.85,18.28,9.67,3.67,17.61,2.39,25.01-4.93,5.69-5.63,11.33-11.31,17.16-16.79,1.35-1.26,3.39-1.78,5.6-2.88-1.49-3.58,1.68-4.36,4.59-3.92,2.45.37,4.75,2.08,6.97,3.44,1.76,1.08,3.12,3.1,4.98,3.66,3.73,1.14,7.68,1.58,12.01,2.4-.93-1.79-1.59-3.07-2.34-4.51,3.95-2.27,7.66-2.28,10.8.59,6.13,5.61,13.43,3.46,20.62,3.34-1.47-.97-2.93-1.93-4.4-2.9.36-.75.71-1.5,1.07-2.24,3.34.57,7.01.46,9.97,1.85,7.25,3.41,14.45,1.65,22.91,1.47-2.94-1.9-4.78-3.08-7.35-4.74,6.5-3.13,11.56,1.05,16.78.72,5.25-.33,10.45-1.36,15.68-2.08-.07-.31-.14-.61-.22-.92-2.46-1.13-4.93-2.26-7.39-3.39.03-.57.06-1.14.08-1.7,10.05.22,20.47,2.43,29.3-4.14-3.19-.95-6.36-1.9-9.53-2.85.02-.5.04-.99.05-1.49,9.08-.46,18.61.46,25.6-7.37-3.84-.56-7.33-1.08-10.81-1.59,7.12-3.46,16.29-2.41,19.78-11.41-4.04-.31-8.14-.62-12.24-.93,5.6-3.89,14.27-3.08,13.68-12.97h-12.57c-.04-.29-.08-.58-.12-.87,2.89-1.81,5.79-3.63,8.86-5.56-.77-2.63-1.45-4.96-1.95-6.65-4.74.45-8.94.85-13.13,1.26-.09-.51-.18-1.03-.28-1.54,1.77-1.93,3.55-3.86,5.44-5.92-1.07-1.32-2.03-2.46-2.94-3.64-.9-1.17-1.76-2.38-2.64-3.57-.17.56-.34,1.13-.51,1.69-4.14.58-8.28,1.17-13.1,1.85q2.69-8.38-6.95-13.31c-.39.63-.67,1.4-1.21,1.92-3.86,3.71-9.93,1.94-11.38-3.1-.34-1.17-1.56-2.45-2.7-2.96-2.86-1.29-5.91-2.17-8.88-3.22-1.56,4.57-7.41,5.87-10.96,2.66-2.44-2.2-5.04-4.21-8.18-6.81Z"/>
      <path class="cls-1" d="m511.51,100.88c3.14,2.6,5.74,4.62,8.18,6.81,3.55,3.2,9.4,1.91,10.96-2.66,2.97,1.05,6.02,1.93,8.88,3.22,1.14.51,2.36,1.79,2.7,2.96,1.45,5.04,7.53,6.81,11.38,3.1.54-.52.82-1.29,1.21-1.92q9.64,4.93,6.95,13.31c4.82-.68,8.96-1.26,13.1-1.85.17-.56.34-1.13.51-1.69.88,1.19,1.73,2.4,2.64,3.57.91,1.18,1.87,2.32,2.94,3.64-1.89,2.06-3.67,3.99-5.44,5.92.09.51.18,1.03.28,1.54,4.2-.4,8.39-.8,13.13-1.26.5,1.69,1.18,4.02,1.95,6.65-3.08,1.93-5.97,3.74-8.86,5.56.04.29.08.58.12.87h12.57c.59,9.89-8.09,9.08-13.68,12.97,4.1.31,8.19.63,12.24.93-3.49,8.99-12.66,7.95-19.78,11.41,3.49.51,6.98,1.02,10.81,1.59-6.99,7.83-16.52,6.91-25.6,7.37-.02.5-.04.99-.05,1.49,3.17.95,6.34,1.9,9.53,2.85-8.83,6.57-19.25,4.35-29.3,4.14-.03.57-.06,1.14-.08,1.7,2.46,1.13,4.93,2.26,7.39,3.39.07.31.14.61.22.92-5.22.72-10.43,1.75-15.68,2.08-5.22.33-10.27-3.85-16.78-.72,2.56,1.65,4.4,2.84,7.35,4.74-8.47.18-15.66,1.94-22.91-1.47-2.96-1.39-6.62-1.28-9.97-1.85-.36.75-.71,1.5-1.07,2.24,1.47.97,2.93,1.93,4.4,2.9-7.19.11-14.49,2.27-20.62-3.34-3.14-2.88-6.84-2.86-10.8-.59.75,1.44,1.42,2.72,2.34,4.51-4.34-.82-8.28-1.26-12.01-2.4-1.85-.57-3.22-2.59-4.98-3.66-2.22-1.36-4.52-3.08-6.97-3.44-2.92-.44-6.08.34-4.59,3.92-2.2,1.1-4.25,1.62-5.6,2.88-5.83,5.48-11.47,11.16-17.16,16.79-7.4,7.32-15.34,8.6-25.01,4.93-8.3-3.15-14.22-8.28-16.85-18.28-5.54,7.38-11.99,10.34-20.33,8.87,4.62,8.65,9.11,16.58,13.12,24.75,2.09,4.25,1.9,8.72-1.52,12.58-3.55,4-8,5.6-13,3.9-2.72-.92-5.57-2.64-7.36-4.82-3.46-4.2-7.73-5.72-12.8-7.33-8.32-2.63-13.62-1.13-18.72,6.09-3.45,4.88-8.8,8.51-13.61,12.31-4.64,3.66-10.02,3.86-15.66,2.28-6.6-1.86-11.93.82-15.11,7.22-3.89,7.85-6.81,9.38-15.29,8.4-14.85-1.7-29.65-3.61-44.02-7.91-.8-.24-1.82-.17-2.39-.65-7.18-6.07-15.51-4.34-23.66-3.47-4.54.48-9.03,1.62-13.58,1.92-2.86.19-5.82-1.03-8.69-.86-7.57.45-15.16,2.15-22.66,1.78-8.71-.43-17.39-2.25-25.98-4-13.37-2.72-26.62-6.02-39.98-8.77-2.33-.48-5.29-.07-7.42,1-5.62,2.82-11.19,2.94-17.38,2.42-20.27-1.68-28.63-15.65-32.97-32.47-3.18-12.3-3.7-25.29-5.44-37.96-.34-2.44-.87-4.85-1.28-7.28-.31-1.78-1.04-3.63-.78-5.33,2.5-16.61,5.02-33.21,7.85-49.76,1.18-6.88,3.28-13.59,4.63-20.45,1.04-5.31,1.57-10.73,2.31-16.1.58-4.23.86-8.47,5.52-10.78,1.19-.59,1.79-2.68,2.36-4.2,7.15-19.11,15.63-37.55,28.26-53.72,6.9-8.83,15.12-16.43,25.82-20.47,3.13-1.18,7.01-1.56,10.27-.92,8.21,1.63,16.87,2.3,23.47,8.69,1.39,1.34,3.9,1.68,5.97,2.13,42.45,9.17,84.9,18.32,127.37,27.38,3.51.75,5.98,1.98,7.35,5.65,1.38,3.68,4.21,5.88,8.45,6.77,19.21,4.07,38.34,8.56,57.54,12.69,3.63.78,7.46.73,11.2.76.8,0,1.79-1.17,2.39-2.01,5.05-7.1,11.18-10.06,20.17-7.36,9.22,2.76,18.84,4.14,28.19,6.49,7.68,1.93,15.21,4.45,22.83,6.62,4.31,1.23,8.19,1.47,12.87-.51,4.78-2.01,10.8-2.14,16.11-1.56,7.4.81,14.64,3.02,21.95,4.66,3.15.71,6.14,2.12,9.2-.93.88-.87,3.89-.22,5.61.5,4.12,1.71,10.48-.83,12.01,6.11.1.43,1.44.73,2.24.85,6.88.96,13.94,1.22,20.57,3.03,4.15,1.13,8.04,4.2,11.23,7.24.96.92-.38,4.88-1.43,7.09-.79,1.67-2.79,2.76-3.76,3.65Zm-160.27,130.41c-3.67,4.56-6.81,8.46-10.57,13.15,3.49,2.51,6.49,5.57,10.13,7.07,4.7,1.94,8.09-1.42,6.51-6.3-1.57-4.84-4.05-9.37-6.08-13.92Zm-94.2-158.44c.58,4.8,1.01,9.21,1.72,13.58.2,1.2,1.26,2.27,1.93,3.39.99-.83,2.29-1.49,2.92-2.54,1.57-2.62,1.06-6.61,5.12-7.55-.66-1.6-.94-4.18-2.05-4.61-3.34-1.28-7-1.71-9.64-2.28Zm104.41,109.68c2.65,1.54,5.86,3.41,9.1,5.3,6.92-6.56,6.95-6.63,5.78-12.89-5.02,2.56-10.2,5.2-14.88,7.58Zm-84.12,62.32c3.79-3.38,6.64-5.92,9.58-8.54-3.88-2.37-6.78-4.14-10.62-6.47.36,5.19.67,9.67,1.04,15.01Zm7.43-158.87c2.05-1.84,3.93-3.53,6.26-5.63-3.06-.58-5.58-1.05-8.54-1.61.93,2.96,1.61,5.12,2.27,7.23Z"/>
      <path class="cls-2" d="m351.24,231.29c2.03,4.54,4.51,9.08,6.08,13.92,1.58,4.88-1.81,8.24-6.51,6.3-3.64-1.5-6.64-4.56-10.13-7.07,3.76-4.68,6.9-8.58,10.57-13.15Z"/>
      <path class="cls-2" d="m257.04,72.85c2.64.57,6.3,1,9.64,2.28,1.11.42,1.39,3.01,2.05,4.61-4.06.94-3.55,4.93-5.12,7.55-.63,1.05-1.93,1.7-2.92,2.54-.67-1.13-1.74-2.19-1.93-3.39-.72-4.37-1.14-8.78-1.72-13.58Z"/>
      <path class="cls-2" d="m361.44,182.52c4.68-2.39,9.85-5.02,14.88-7.58,1.17,6.26,1.14,6.33-5.78,12.89-3.24-1.89-6.45-3.76-9.1-5.3Z"/>
      <path class="cls-2" d="m277.33,244.85c-.37-5.35-.68-9.82-1.04-15.01,3.84,2.34,6.74,4.11,10.62,6.47-2.93,2.62-5.79,5.16-9.58,8.54Z"/>
      <path class="cls-2" d="m284.75,85.98c-.66-2.11-1.34-4.27-2.27-7.23,2.96.56,5.48,1.03,8.54,1.61-2.33,2.1-4.21,3.78-6.26,5.63Z"/>
    </g>
  </g>
</svg>