<?xml version="1.0" encoding="UTF-8"?>
<svg id="Layer_1" data-name="Layer 1" xmlns="http://www.w3.org/2000/svg" viewBox="0 0 514 509">
  <defs>
    <style>
      .cls-1, .cls-2 {
        stroke-width: 0px;
      }

      .cls-2 {
        fill: #fff;
      }
    </style>
  </defs>
  <g id="hFvqYh.tif">
    <g>
      <path class="cls-2" d="m514,509H0V0h514v509Zm-414.87-120.92c2.09,8.61,2.85,17.34,6.32,24.81,7.42,15.97,16.77,31,28.34,44.38,6.15,7.11,12.87,13.94,20.26,19.71,9.94,7.75,20.92,14.16,31.16,21.53,6.35,4.57,13.11,6.67,20.89,6.55,5.63-.09,11.27.75,16.91.88,7.12.16,14.65,1.44,21.28-.36,7.97-2.17,15.32-6.85,22.69-10.89,4.5-2.47,8.63-5.64,12.74-8.74,11.25-8.48,22.89-16.51,33.42-25.81,8.51-7.51,16.48-15.9,20.59-27.08,2-5.43,5.24-10.43,7.08-15.9,1.25-3.72,2.08-8.17,1.23-11.87-1.3-5.66-4.22-10.94-6.73-17.06,5.18,0,10.18.92,14.7-.16,20.33-4.85,40.93-9.23,57.97-22.59,6.8-5.33,13.69-10.55,20.5-15.86,1.03-.8,2.03-1.76,2.74-2.84,5.36-8.19,11.37-16.07,15.76-24.76,4.85-9.61,10.57-19.48,6.85-31.15-1.45-4.55-2.63-9.23-4.46-13.63-2.68-6.42-5.83-12.63-8.95-19.28,5.22-2.15,10.51-3.74,15.2-6.38,11.87-6.71,23.55-13.78,32.62-24.31,9.29-10.77,17.43-22.07,18.97-36.86.77-7.41,1.69-14.82,3.01-22.14.95-5.26.54-9.89-2.12-14.7-4.26-7.69-7.78-15.79-11.75-23.64-1.79-3.54-2.18-6.71.62-10,7.1-8.3,9.64-18.41,10.58-28.91.32-3.62-.34-7.57-1.56-11.02-1.88-5.29-4.9-10.17-6.97-15.4-7.49-18.9-16.26-36.95-29.8-52.51-4.95-5.68-10.99-8.58-17.69-8.77-16.59-.48-33.28-.62-49.21,5.55-3.87,1.5-7.94,2.5-11.96,3.54-25.9,6.74-50.95,15.37-72.3,32.25-6.58,5.2-12.03,11.2-15.29,19.2-4,9.84-8.56,19.46-13.14,29.05-.82,1.72-2.69,3.39-4.47,4.14-14.14,6-28.48,10.68-44.33,8.99-5.27-.56-9.21-1.86-12.22-6.21-2.93-4.23-6.04-8.35-9.22-12.4-2.24-2.86-4.34-6.04-7.18-8.18-10.69-8.04-27.01-5.61-36.08,5.69-7.48,9.32-14.5,19.04-21.22,28.93-10.17,14.98-19.83,30.3-29.94,45.32-1.15,1.71-3.71,2.89-5.85,3.45-5.2,1.36-11.33.52-14.95,5.54-8.16,11.32-16.85,22.37-23.82,34.4-8.02,13.83-20.06,25.58-22.95,42.2-.05.31-.3.59-.46.88-2.6,4.44-5.2,8.88-7.82,13.32-15.33,26.01-31.76,51.39-43.5,79.42-2.96,7.06-2.64,12.45,1.53,18.33,10.57,14.91,21,29.92,31.62,44.8,1.19,1.66,3.08,2.97,4.89,4.02,10.26,5.98,20.08,3.64,29.59-1.93,8.71-5.11,17.32-10.38,25.89-15.53Z"/>
      <path class="cls-1" d="m99.13,388.08c-8.56,5.15-17.17,10.42-25.89,15.53-9.5,5.57-19.33,7.91-29.59,1.93-1.81-1.06-3.71-2.36-4.89-4.02-10.62-14.88-21.04-29.89-31.62-44.8-4.17-5.88-4.49-11.27-1.53-18.33,11.74-28.03,28.16-53.41,43.5-79.42,2.61-4.43,5.21-8.88,7.82-13.32.17-.29.41-.57.46-.88,2.89-16.62,14.94-28.37,22.95-42.2,6.97-12.03,15.66-23.08,23.82-34.4,3.62-5.02,9.76-4.18,14.95-5.54,2.14-.56,4.7-1.74,5.85-3.45,10.11-15.02,19.77-30.34,29.94-45.32,6.72-9.89,13.74-19.61,21.22-28.93,9.07-11.3,25.39-13.73,36.08-5.69,2.84,2.14,4.94,5.32,7.18,8.18,3.18,4.05,6.29,8.17,9.22,12.4,3.01,4.34,6.94,5.64,12.22,6.21,15.86,1.69,30.2-2.99,44.33-8.99,1.78-.76,3.65-2.42,4.47-4.14,4.58-9.59,9.14-19.21,13.14-29.05,3.26-8,8.71-14,15.29-19.2,21.35-16.89,46.4-25.52,72.3-32.25,4.03-1.05,8.1-2.04,11.96-3.54,15.93-6.17,32.62-6.03,49.21-5.55,6.7.19,12.74,3.09,17.69,8.77,13.54,15.56,22.31,33.61,29.8,52.51,2.07,5.23,5.09,10.11,6.97,15.4,1.22,3.44,1.88,7.4,1.56,11.02-.94,10.5-3.48,20.61-10.58,28.91-2.81,3.28-2.41,6.46-.62,10,3.97,7.86,7.49,15.95,11.75,23.64,2.67,4.82,3.07,9.44,2.12,14.7-1.32,7.33-2.23,14.74-3.01,22.14-1.54,14.78-9.68,26.08-18.97,36.86-9.07,10.52-20.75,17.6-32.62,24.31-4.68,2.65-9.97,4.23-15.2,6.38,3.11,6.65,6.27,12.86,8.95,19.28,1.83,4.4,3.01,9.07,4.46,13.63,3.72,11.68-2,21.54-6.85,31.15-4.39,8.69-10.4,16.57-15.76,24.76-.71,1.08-1.71,2.04-2.74,2.84-6.81,5.32-13.7,10.54-20.5,15.86-17.04,13.36-37.64,17.74-57.97,22.59-4.52,1.08-9.52.16-14.7.16,2.51,6.12,5.43,11.41,6.73,17.06.85,3.69.02,8.15-1.23,11.87-1.84,5.47-5.08,10.47-7.08,15.9-4.11,11.18-12.08,19.57-20.59,27.08-10.53,9.3-22.18,17.33-33.42,25.81-4.11,3.1-8.25,6.28-12.74,8.74-7.37,4.04-14.72,8.72-22.69,10.89-6.64,1.81-14.16.52-21.28.36-5.64-.13-11.28-.96-16.91-.88-7.78.12-14.53-1.98-20.89-6.55-10.25-7.38-21.23-13.78-31.16-21.53-7.39-5.77-14.12-12.6-20.26-19.71-11.56-13.38-20.92-28.41-28.34-44.38-3.47-7.47-4.22-16.19-6.32-24.81Zm293.04-109.95l-.6-1.36c-4.56-.39-9.11-.89-13.68-1.15-15.23-.86-30.5-1.28-45.7-2.55-18.94-1.58-37.78-.41-56.59,1.32-4.62.42-10.61,1.65-13.25,4.79-5.32,6.32-8.76,14.21-13.12,21.69,5.34,1.49,10.07,2.49,14.57,4.12,17.4,6.29,35.68,9,53.8,8.68,22.09-.4,43.23-6.13,59.98-22.31,4.72-4.56,9.72-8.83,14.59-13.24Zm-270.49,18.43c4.91-.64,9.77-.39,13.9-2.01,8.48-3.32,17.54-6.48,20.39-16.85.34-1.25.92-2.51,1.66-3.57,7.97-11.46,15.67-23.13,24.08-34.25,16.23-21.47,32.01-43.13,44.37-67.19,8.4-16.34,9.01-16.03-2.4-30.58-3.32-4.23-6.17-4.12-9.07.61-14.2,23.23-28.36,46.49-42.44,69.79-.79,1.31-.84,3.08-1.2,4.64-.81,3.49-.85,7.4-2.51,10.41-11.67,21.07-24.83,41.2-39.56,60.29-2.11,2.73-4.4,5.31-7.24,8.72Zm39.45,127.57c6.28,3.34,11.7,7.16,19.11,6.93,7.25-.23,14.57.63,21.82,1.4,8.98.95,17.32-1.58,24.45-6.21,11.11-7.21,21.42-15.65,32.04-23.62,4.17-3.12,8.25-6.35,13.53-10.43-22.65-5.46-43.85-10.71-65.16-15.5-2.15-.48-5.69,1.17-7.29,2.98-12.87,14.5-25.43,29.28-38.5,44.44ZM447.86,160.09c-44.5,8.09-88.43,14.67-130.36,30.03,7.05.12,13.98-.35,20.92-.76,14.07-.83,28.14-1.68,42.22-2.43,13.71-.73,27.67-.12,39.91-8.11.95-.62,2.16-.86,3.22-1.33,8.89-3.99,17.81-7.95,24.1-17.4Z"/>
      <path class="cls-2" d="m392.17,278.13c-4.87,4.4-9.87,8.68-14.59,13.24-16.75,16.17-37.88,21.91-59.98,22.31-18.13.33-36.4-2.38-53.8-8.68-4.5-1.63-9.23-2.63-14.57-4.12,4.36-7.48,7.81-15.37,13.12-21.69,2.64-3.14,8.62-4.37,13.25-4.79,18.81-1.72,37.65-2.9,56.59-1.32,15.2,1.27,30.47,1.68,45.7,2.55,4.57.26,9.12.76,13.68,1.15l.6,1.36Z"/>
      <path class="cls-2" d="m121.68,296.56c2.84-3.41,5.13-5.99,7.24-8.72,14.73-19.09,27.88-39.22,39.56-60.29,1.67-3.01,1.71-6.92,2.51-10.41.36-1.56.41-3.33,1.2-4.64,14.09-23.3,28.24-46.56,42.44-69.79,2.89-4.73,5.75-4.84,9.07-.61,11.41,14.55,10.8,14.24,2.4,30.58-12.37,24.06-28.14,45.73-44.37,67.19-8.41,11.13-16.11,22.8-24.08,34.25-.74,1.07-1.32,2.32-1.66,3.57-2.85,10.37-11.91,13.52-20.39,16.85-4.13,1.62-8.99,1.36-13.9,2.01Z"/>
      <path class="cls-2" d="m161.13,424.12c13.07-15.17,25.63-29.94,38.5-44.44,1.6-1.81,5.15-3.46,7.29-2.98,21.3,4.79,42.51,10.04,65.16,15.5-5.28,4.07-9.36,7.3-13.53,10.43-10.62,7.96-20.93,16.41-32.04,23.62-7.13,4.63-15.46,7.16-24.45,6.21-7.25-.77-14.57-1.63-21.82-1.4-7.41.23-12.84-3.59-19.11-6.93Z"/>
      <path class="cls-2" d="m447.86,160.09c-6.29,9.45-15.21,13.41-24.1,17.4-1.06.48-2.26.71-3.22,1.33-12.23,7.99-26.2,7.38-39.91,8.11-14.08.75-28.15,1.6-42.22,2.43-6.94.41-13.87.88-20.92.76,41.93-15.36,85.85-21.94,130.36-30.03Z"/>
    </g>
  </g>
</svg>