<svg id="Layer_1" data-name="Layer 1" xmlns="http://www.w3.org/2000/svg" viewBox="0 0 501 550">
  <g id="_8Fen8B.tif" data-name="8Fen8B.tif">
    <g>
      <path class="cls-1" d="m497.65,162.21c-1.99-2.31-4.13-4.5-5.94-6.94-13.21-17.74-25.91-35.89-39.73-53.13-5.5-6.86-13.69-11.49-20.21-17.61-12.87-12.06-28.99-18.21-44.98-23.96-8.15-2.93-17.69-1.83-26.55-2.94-15.53-1.94-28.27,5.9-41.52,11.74-2.75,1.21-4.56,4.68-6.66,7.22-9.27,11.17-18.44,22.61-22.07,36.93-3.12,12.33-6.45,25.01-6.72,37.59-.85,40.04,5.42,79.68,8.52,119.5.95,12.25-.91,24.89-2.83,37.14-3.3,21.17-14.58,38.54-29.48,53.24-12.39,12.22-25.94,23.29-39.15,34.66-8.82,7.6-18.59,14.19-26.77,22.41-8.64,8.69-15.76,18.87-23.79,28.2-11.73,13.62-22.7,28.09-35.81,40.24-12.09,11.21-26.08,20.61-40.12,29.39-18.01,11.27-36.87,21.19-55.45,31.52-4.79,2.67-7.4-2.03-10.69-4.07-1.22-.75-1.92-2.51-3.18-3-13.83-5.42-17.12-18.43-21.81-30.37-.37-.94,1.01-2.87,1.98-3.99,15.15-17.49,30.36-34.93,45.57-52.36,24.84-28.47,49.7-56.93,74.54-85.41,6.35-7.27,12.33-14.89,19.06-21.8,5.94-6.09,11.57-9.23,18.29-.92,1.69,2.09,3.31,2.18,5.48.45,14.14-11.31,28.57-22.26,42.45-33.88,7.3-6.11,9.93-15.1,11.59-24.27,3.07-16.97.91-33.89-.57-50.78-3.42-39.07-4.84-78.12-.37-117.2,1.53-13.4,2.59-26.99,8.77-39.23,4.71-9.33,11.12-17.83,15.39-27.33,6.35-14.14,17.67-22.36,30.58-29.27,9.52-5.09,19.41-9.65,28.42-15.54,9.22-6.03,19.43-6.59,29.58-7.23,19.95-1.26,40.25-1.87,58.92,6.26,15.52,6.77,31.17,13.47,44.19,25.44,16.12,14.82,28.84,31.85,40.42,50.28,12.7,20.21,17.01,42.67,20.99,65.44.73,4.17,1.08,8.41,1.6,12.61-.64.32-1.28.64-1.92.96Z"/>
    </g>
  </g>
</svg>