<?xml version="1.0" encoding="UTF-8"?>
<svg id="Layer_1" data-name="Layer 1" xmlns="http://www.w3.org/2000/svg" viewBox="0 0 501 550">
  <defs>
    <style>
      .cls-1, .cls-2 {
        stroke-width: 0px;
      }

      .cls-2 {
        fill: #fff;
      }
    </style>
  </defs>
  <g id="_8Fen8B.tif" data-name="8Fen8B.tif">
    <g>
      <path class="cls-2" d="m501,550H0V0h501v550Zm-3.35-387.79c.64-.32,1.28-.64,1.92-.96-.52-4.21-.87-8.44-1.6-12.61-3.99-22.77-8.3-45.23-20.99-65.44-11.58-18.43-24.29-35.46-40.42-50.28-13.02-11.97-28.67-18.67-44.19-25.44C373.7-.66,353.4-.04,333.45,1.22c-10.15.64-20.36,1.2-29.58,7.23-9.01,5.89-18.89,10.45-28.42,15.54-12.91,6.91-24.24,15.13-30.58,29.27-4.26,9.5-10.68,18-15.39,27.33-6.18,12.25-7.23,25.83-8.77,39.23-4.47,39.08-3.05,78.13.37,117.2,1.48,16.89,3.64,33.81.57,50.78-1.66,9.17-4.29,18.16-11.59,24.27-13.88,11.62-28.31,22.57-42.45,33.88-2.16,1.73-3.79,1.63-5.48-.45-6.72-8.3-12.35-5.17-18.29.92-6.72,6.9-12.71,14.52-19.06,21.8-24.84,28.48-49.7,56.94-74.54,85.41-15.21,17.44-30.42,34.87-45.57,52.36-.97,1.12-2.35,3.05-1.98,3.99,4.68,11.94,7.98,24.95,21.81,30.37,1.25.49,1.96,2.25,3.18,3,3.29,2.04,5.9,6.73,10.69,4.07,18.58-10.34,37.44-20.26,55.45-31.52,14.04-8.78,28.03-18.18,40.12-29.39,13.11-12.15,24.08-26.63,35.81-40.24,8.03-9.32,15.15-19.51,23.79-28.2,8.18-8.21,17.95-14.81,26.77-22.41,13.21-11.37,26.76-22.44,39.15-34.66,14.9-14.7,26.17-32.07,29.48-53.24,1.91-12.25,3.78-24.9,2.83-37.14-3.1-39.83-9.37-79.46-8.52-119.5.27-12.59,3.6-25.26,6.72-37.59,3.63-14.33,12.8-25.76,22.07-36.93,2.11-2.54,3.92-6,6.66-7.22,13.25-5.84,25.99-13.69,41.52-11.74,8.86,1.11,18.4.01,26.55,2.94,15.99,5.75,32.11,11.9,44.98,23.96,6.53,6.11,14.71,10.75,20.21,17.61,13.82,17.24,26.52,35.39,39.73,53.13,1.81,2.44,3.95,4.63,5.94,6.94Z"/>
      <path class="cls-1" d="m497.65,162.21c-1.99-2.31-4.13-4.5-5.94-6.94-13.21-17.74-25.91-35.89-39.73-53.13-5.5-6.86-13.69-11.49-20.21-17.61-12.87-12.06-28.99-18.21-44.98-23.96-8.15-2.93-17.69-1.83-26.55-2.94-15.53-1.94-28.27,5.9-41.52,11.74-2.75,1.21-4.56,4.68-6.66,7.22-9.27,11.17-18.44,22.61-22.07,36.93-3.12,12.33-6.45,25.01-6.72,37.59-.85,40.04,5.42,79.68,8.52,119.5.95,12.25-.91,24.89-2.83,37.14-3.3,21.17-14.58,38.54-29.48,53.24-12.39,12.22-25.94,23.29-39.15,34.66-8.82,7.6-18.59,14.19-26.77,22.41-8.64,8.69-15.76,18.87-23.79,28.2-11.73,13.62-22.7,28.09-35.81,40.24-12.09,11.21-26.08,20.61-40.12,29.39-18.01,11.27-36.87,21.19-55.45,31.52-4.79,2.67-7.4-2.03-10.69-4.07-1.22-.75-1.92-2.51-3.18-3-13.83-5.42-17.12-18.43-21.81-30.37-.37-.94,1.01-2.87,1.98-3.99,15.15-17.49,30.36-34.93,45.57-52.36,24.84-28.47,49.7-56.93,74.54-85.41,6.35-7.27,12.33-14.89,19.06-21.8,5.94-6.09,11.57-9.23,18.29-.92,1.69,2.09,3.31,2.18,5.48.45,14.14-11.31,28.57-22.26,42.45-33.88,7.3-6.11,9.93-15.1,11.59-24.27,3.07-16.97.91-33.89-.57-50.78-3.42-39.07-4.84-78.12-.37-117.2,1.53-13.4,2.59-26.99,8.77-39.23,4.71-9.33,11.12-17.83,15.39-27.33,6.35-14.14,17.67-22.36,30.58-29.27,9.52-5.09,19.41-9.65,28.42-15.54,9.22-6.03,19.43-6.59,29.58-7.23,19.95-1.26,40.25-1.87,58.92,6.26,15.52,6.77,31.17,13.47,44.19,25.44,16.12,14.82,28.84,31.85,40.42,50.28,12.7,20.21,17.01,42.67,20.99,65.44.73,4.17,1.08,8.41,1.6,12.61-.64.32-1.28.64-1.92.96Z"/>
    </g>
  </g>
</svg>