<svg id="Layer_1" data-name="Layer 1" xmlns="http://www.w3.org/2000/svg" viewBox="0 0 472.35 472.35">
  <g id="_3R3xBO.tif" data-name="3R3xBO.tif">
    <g>
      <path class="cls-1" d="m221.42,227.54c7.55,3.38,8.88,15.5,2.88,24.24,2.91,2.24,5.92,4.57,9.56,7.37,1.49-.98,4.29-2.63,6.89-4.56,8.24-6.14,16.37-12.43,24.61-18.58,10.62-7.94,21.23-15.9,31.98-23.67,8.18-5.91,16.38-11.83,24.9-17.22,8.2-5.19,16.66-10.04,25.3-14.46,12.88-6.59,25.97-12.79,39.09-18.9,4.91-2.28,10.17-3.79,15.23-5.76,4.03-1.56,7.97-3.37,12.01-4.9,1.96-.74,4.33-2.17,5.74,1.83-6.05,3.79-12.18,7.54-18.22,11.43-10.73,6.91-21.43,13.87-32.1,20.86-7.9,5.17-15.79,10.36-23.6,15.66-4.89,3.32-9.58,6.92-14.41,10.32-6.57,4.61-13.35,8.93-19.76,13.75-7.03,5.28-13.72,11.02-20.61,16.5-8.75,6.95-17.62,13.73-26.3,20.76-10.55,8.54-20.95,17.26-31.43,25.89-.79.65-1.63,1.34-2.56,1.73-2.86,1.18-3.73,2.54-2.49,5.92,1.8,4.86.07,9.36-3.8,12.88-4.32,3.93-4.57,6.09-.68,10.28,6.21,6.68,12.56,13.23,19.99,21.02-3.72,3.23-6.93,8.08-11.14,9.22-7.04,1.91-11.42,7.69-18.07,9.97-3.98,1.36-7.16,4.93-10.87,7.26-3.17,1.99-6.62,3.51-9.83,5.43-1.34.81-3.31,2.05-3.4,3.21-.29,3.81-1.09,7.17-4.26,9.56-1.49,1.12-3.07,2.93-4.64,2.96-3.58.07-7.17-1.15-10.76-1.13-3.33.02-6.64,1.34-9.97,1.36-2.55.02-5.09-1.47-7.66-1.57-2.38-.09-5.08.27-7.12,1.39-2.19,1.21-4.01,3.34-5.57,5.4-4.91,6.48-11.78,6.98-18.91,6.3-3.64-.35-7.17-1.82-10.82-2.27-4.41-.55-8.79-.29-12.4,3.01-5.92,5.41-11.55,11.24-17.98,15.98-6.37,4.69-14.06,3.42-21.23,1.72-6.68-1.58-6.26-1.91-6.11-9.05.25-12.35,1.39-24.91-.45-36.98-1.25-8.19,2.43-12.2,6.86-16.85,2.73-2.86,6.41-4.98,8.59-8.16,3.1-4.52,5.89-9.49,7.63-14.67,5-14.91,9.21-30.09,14.12-45.03,2.55-7.75,5.84-15.19,14.26-18.81,1.29-.55,1.76-3.28,2.36-5.09.96-2.91.8-7.34,2.73-8.56,6.24-3.95,10.11-3.1,14.23,1.05.81.81,2.76,1.75,3.27,1.38,2.67-1.95,6.78-2.72,6.64-7.31-.08-2.51.72-4.22,2.83-6.26,3.89-3.75,7.21-1.97,11.13-1.04,2.04.48,4.74.31,6.54-.67,6.9-3.77,13.52-8.04,21.82-8.01,1.09,0,2.66-.5,3.19-1.31,2.29-3.47,4.07-7.28,6.41-10.71,2.98-4.35,6.28-8.27,12.5-7.92,4.96.28,6.69-4.53,9.52-7.31,4.8-4.74,9.16-9.95,13.48-15.15,7.2-8.67,13.95-17.73,21.4-26.18,7.17-8.13,15.03-15.64,22.48-23.53,2.33-2.47,4.11-5.49,6.48-7.91,2.51-2.57,5.65-4.53,8.14-7.11,9.1-9.47,17.68-19.47,27.15-28.53,8.44-8.07,17.83-15.12,26.74-22.7,2.79-2.38,5.15-5.32,8.09-7.47,8.05-5.91,16.23-11.67,24.51-17.26,8.1-5.46,16.37-10.67,24.63-15.9.99-.63,2.34-.67,3.53-.99-.34,1.3-.35,2.83-1.08,3.85-2.27,3.16-4.59,6.34-7.32,9.09-2.62,2.63-5.98,4.51-8.66,7.09-12.67,12.21-25.34,24.42-37.78,36.86-12.77,12.77-25.41,25.67-37.84,38.77-8.17,8.61-15.9,17.64-23.76,26.54-6.12,6.92-12.33,13.76-18.15,20.93-8.5,10.48-16.69,21.22-25,31.87-3.71,4.75-7.47,9.48-11.03,14.34-.89,1.21-1.09,2.92-1.66,4.54Zm-51.25,143.27c.58-3.2,1.28-7.42,2.11-11.61.61-3.11,2.09-6.22,1.97-9.28-.4-10.13-1.31-20.23-2.16-30.34-.09-1.03-.81-2.27-1.63-2.87-.41-.31-1.93.37-2.58.98-8.75,8.32-17.48,16.66-26.12,25.1-2.76,2.7-2.47,6.91,0,10.15,3.11,4.08,6.53,8.09,8.72,12.66,1.66,3.46,3.93,3.77,6.93,4,4.47.33,8.92.84,12.75,1.22Zm17.73-28.39c2-1.26,3.7-1.77,4.44-2.91,2.7-4.17,5.27-8.46,7.49-12.91.85-1.7,1.57-4.67.71-5.8-3.52-4.58-7.64-8.7-11.63-12.89-.52-.54-1.9-.98-2.38-.67-.74.47-1.52,1.66-1.45,2.48.82,10.55,1.8,21.1,2.82,32.71Zm13.48-46.57l3.08-.18c-.17-2.79-.34-5.57-.51-8.36-1.17.18-3.37.41-3.37.53.12,2.67.49,5.34.81,8Z"/>
    </g>
  </g>
</svg>