<?xml version="1.0" encoding="UTF-8"?>
<svg id="Layer_1" data-name="Layer 1" xmlns="http://www.w3.org/2000/svg" viewBox="0 0 608.58 346.03">
  <defs>
    <style>
      .cls-1, .cls-2 {
        stroke-width: 0px;
      }

      .cls-2 {
        fill: #fff;
      }
    </style>
  </defs>
  <g id="i3dLcn.tif">
    <g>
      <path class="cls-2" d="m608.58,346.03H0V0h608.58v346.03ZM48.46,56.62c-4.5,8.41-8.77,16.11-12.73,23.96-1.37,2.71-2.91,4.62-6.07,4.73-8.05.29-11.71,10.46-5.8,16.78,1.09,1.16,1.65,3.48,1.4,5.1-1.25,8.37-2.8,16.69-4.35,25-.21,1.14-.71,2.61-1.58,3.2-8.59,5.89-8.6,12.6-.44,18.81,1.8,1.37,2.53,4.73,2.77,7.26.1,1-2.31,2.75-3.89,3.31-4.8,1.7-8.41,4.14-11.54,8.6-4.79,6.83-2.38,20.47,2.81,26.53,6.49,7.59,13.6,9.7,23.31,6.27,2.19-.77,4.32-1.76,6.53-2.45,3.79-1.18,9.43,3.51,8.89,7.28-.87,6.06.9,9.03,6.85,11.28,10.27,3.87,20.55,7.69,30.83,11.52,2.88,1.07,6.17,1.5,6.22,5.84.01.86,2.02,1.99,3.31,2.49,8.21,3.16,16.4,6.43,24.78,9.1,2.77.88,6.28.78,9.1-.06,6.52-1.94,12.75-4.82,19.23-6.9,4.78-1.53,9.34-1.22,14.04,1.64,9.18,5.59,18.45,11.28,28.33,15.42,8.94,3.74,18.71,6.28,28.63,3.2,8.22-2.56,16.3-5.56,24.41-8.44,2.81-1,9.89,1.37,11.75,3.58,1.59,1.89,3.61,3.6,5.76,4.81,2.44,1.36,5.39,1.8,7.85,3.13,4.39,2.39,8.44,4.95,8.27,11.18-.05,1.85,2.51,4.68,4.52,5.51,9.51,3.96,19.26,7.32,28.88,11.01,3.68,1.41,6.66.71,9.62-1.84,1.33-1.14,3.55-2.34,5.03-2.01,6.11,1.34,12.12,3.17,18.12,5,5.26,1.6,10.54.29,11.15-4.08.94-6.79,6.03-9.48,10.53-12.79,1.52-1.11,4.38-1.6,6.14-.99,10.66,3.73,21.13,8,31.77,11.79,3.12,1.11,3.87,2.8,3.81,5.87-.18,9.47.2,18.96-.17,28.43-.22,5.49,2.31,8.3,7.04,9.93,1.57.54,3.25.91,4.67,1.72,10.97,6.3,21.77,6.18,32.96.2,2.45-1.31,6.24-.22,9.4-.08,2.37.11,4.97,1.24,7.05.58,11.36-3.58,22.66-7.35,33.83-11.48,33.05-12.21,66-24.68,99.06-36.86,4.28-1.58,5.96-3.89,5.93-8.41-.16-19.78-.07-39.57-.06-59.36,0-14.54.03-14.6-13.4-19.8-2.51-.97-3.71-2.13-3.54-5.01.79-13.74-1.45-12.33-11.79-16.46-1.23-.49-2.51-.87-3.75-1.35-6.28-2.46-12.43-5.98-19.36-1.82-.6.36-1.67-.15-2.42.07-6.12,1.84-12.38,3.38-18.27,5.79-3.69,1.51-6.83,4.37-10.93,7.09-.36-6.13-.63-10.72-.93-15.73,7.41-2.83,14.95-5.71,23.92-9.13-2.44-2.5-3.84-4.87-5.9-5.87-7.21-3.49-11.78-9.19-15.96-15.81-7.45-11.79-15.49-23.22-23.47-34.66-6.14-8.8-11.64-10.38-21.51-6.75-2.96,1.09-5.88,2.39-8.92,3.19-3.12.83-6.8,2.44-9.47,1.51-11.58-4.01-23.26-8.08-34.18-13.58-9.42-4.75-18.63-9.49-29.13-11.23,2.42-5.87-.05-11.8-6.15-14.71-1.05-.5-2.17-.85-3.26-1.25-15.57-5.83-31.68-10.55-46.5-17.89-9.17-4.54-16.38-3.61-24.6.18-2,.92-4.75,2.01-6.53,1.35-15.42-5.66-30.79-11.5-46-17.73-6.83-2.79-13.12-4.69-20.54-1.56-11.63,4.9-23.61,8.97-35.44,13.38-1.65.62-3.32,1.18-5.06,1.8-.32-1-.64-1.47-.6-1.92.78-9.46-1.29-12.67-10.42-16.07-15.42-5.74-30.81-11.57-46.31-17.12-2.47-.88-5.98-1.52-8.03-.43-4.89,2.6-8.87.62-13.13-.96-3.43-1.27-6.85-2.57-10.29-3.82-7.45-2.7-12.88.32-14.37,7.99-.2,1.01-.25,2.06-.41,3.38-3.39-1.22-6.34-2.3-9.31-3.34-4.01-1.4-7.82-.9-10.91,2.01-3,2.82-3.66,6.35-2.54,10.44.35,1.29-.31,3.43-1.28,4.4-3.66,3.62-7.56,7.02-11.56,10.25-1.06.86-3.06,1.51-4.24,1.12-4.86-1.64-9.01-.55-11.92,3.31-3.07,4.07-3.2,8.6.43,12.41Z"/>
      <path class="cls-1" d="m48.46,56.62c-3.64-3.81-3.5-8.34-.43-12.41,2.9-3.85,7.06-4.94,11.92-3.31,1.18.4,3.17-.26,4.24-1.12,4.01-3.24,7.9-6.63,11.56-10.25.98-.97,1.63-3.11,1.28-4.4-1.12-4.08-.45-7.62,2.54-10.44,3.09-2.91,6.9-3.41,10.91-2.01,2.97,1.03,5.92,2.12,9.31,3.34.16-1.32.21-2.37.41-3.38,1.5-7.68,6.92-10.69,14.37-7.99,3.44,1.25,6.86,2.55,10.29,3.82,4.26,1.58,8.24,3.56,13.13.96,2.05-1.09,5.56-.45,8.03.43,15.49,5.54,30.88,11.38,46.31,17.12,9.13,3.4,11.2,6.6,10.42,16.07-.04.45.28.92.6,1.92,1.74-.62,3.41-1.19,5.06-1.8,11.83-4.41,23.81-8.49,35.44-13.38,7.43-3.13,13.71-1.23,20.54,1.56,15.2,6.22,30.57,12.06,46,17.73,1.79.66,4.53-.43,6.53-1.35,8.22-3.79,15.44-4.71,24.6-.18,14.82,7.34,30.93,12.06,46.5,17.89,1.09.41,2.21.75,3.26,1.25,6.1,2.92,8.57,8.84,6.15,14.71,10.49,1.75,19.7,6.49,29.13,11.24,10.91,5.5,22.59,9.57,34.18,13.58,2.67.93,6.36-.68,9.47-1.51,3.04-.81,5.95-2.1,8.92-3.19,9.87-3.64,15.37-2.05,21.51,6.75,7.98,11.45,16.02,22.87,23.47,34.66,4.18,6.62,8.75,12.32,15.96,15.81,2.06,1,3.46,3.37,5.9,5.87-8.97,3.42-16.51,6.3-23.92,9.13.3,5.02.57,9.6.93,15.73,4.09-2.72,7.23-5.58,10.93-7.09,5.89-2.41,12.15-3.95,18.27-5.79.75-.23,1.82.29,2.42-.07,6.93-4.17,13.09-.64,19.36,1.82,1.24.48,2.52.86,3.75,1.35,10.34,4.13,12.58,2.72,11.79,16.46-.17,2.89,1.04,4.04,3.54,5.01,13.43,5.21,13.41,5.26,13.4,19.8,0,19.79-.1,39.57.06,59.36.04,4.52-1.64,6.83-5.93,8.41-33.06,12.18-66.01,24.65-99.06,36.86-11.17,4.13-22.48,7.89-33.83,11.48-2.08.66-4.68-.47-7.05-.58-3.16-.14-6.95-1.23-9.4.08-11.19,5.99-21.98,6.1-32.96-.2-1.42-.81-3.1-1.18-4.67-1.72-4.73-1.63-7.25-4.44-7.04-9.93.37-9.46-.01-18.95.17-28.43.06-3.07-.69-4.75-3.81-5.87-10.64-3.79-21.11-8.06-31.77-11.79-1.76-.62-4.62-.12-6.14.99-4.5,3.31-9.6,6-10.53,12.79-.6,4.36-5.89,5.68-11.15,4.08-5.99-1.83-12.01-3.66-18.12-5-1.48-.33-3.71.87-5.03,2.01-2.96,2.55-5.94,3.25-9.62,1.84-9.62-3.69-19.37-7.06-28.88-11.01-2.01-.84-4.57-3.66-4.52-5.51.17-6.23-3.88-8.8-8.27-11.18-2.46-1.34-5.41-1.77-7.85-3.13-2.16-1.21-4.17-2.91-5.76-4.81-1.86-2.21-8.94-4.58-11.75-3.58-8.11,2.88-16.19,5.89-24.41,8.44-9.91,3.08-19.69.54-28.63-3.2-9.87-4.14-19.15-9.83-28.33-15.42-4.7-2.86-9.27-3.17-14.04-1.64-6.48,2.07-12.71,4.96-19.23,6.9-2.82.84-6.33.95-9.1.06-8.38-2.67-16.57-5.94-24.78-9.1-1.29-.5-3.3-1.63-3.31-2.49-.05-4.34-3.34-4.77-6.22-5.84-10.28-3.83-20.56-7.66-30.83-11.52-5.95-2.24-7.73-5.21-6.85-11.28.54-3.77-5.1-8.46-8.89-7.28-2.22.69-4.34,1.68-6.53,2.45-9.71,3.43-16.82,1.32-23.31-6.27-5.19-6.07-7.6-19.7-2.81-26.53,3.12-4.46,6.74-6.91,11.54-8.6,1.57-.56,3.98-2.3,3.89-3.31-.24-2.54-.97-5.89-2.77-7.26-8.16-6.21-8.15-12.92.44-18.81.86-.59,1.36-2.06,1.58-3.2,1.55-8.32,3.1-16.64,4.35-25,.24-1.63-.32-3.94-1.4-5.1-5.92-6.32-2.25-16.49,5.8-16.78,3.16-.12,4.71-2.03,6.07-4.73,3.96-7.85,8.23-15.55,12.73-23.96Zm339.27,40.55c-4.45-1.19-8.31-2.26-12.18-3.24-.77-.2-1.7-.31-2.42-.07-12.48,4.13-24.95,8.31-37.42,12.49.06.43.11.86.17,1.29,5.13.69,8.95,7.61,15.4,2.6.79-.61,2.86.11,4.22.58,4.55,1.56,9.03,3.34,13.58,4.91,1.36.47,2.97.94,4.29.63,4.77-1.11,9.47-2.55,14.32-3.91-.16-2.63.55-5.55-.56-6.65-3.45-3.44-2.13-6.01.61-8.62Zm-31.22,117.14c-13.46-5.09-26.12-9.95-38.82-14.67-11.96-4.43-12.55-1.95-14.5,7.91-.63,3.19.09,4.78,3.05,5.47,6.41,1.5,12.87,2.8,19.25,4.43,4.91,1.26,10.22-.57,14.99,3.15,2.44,1.91,6.77,1.49,10.28,1.89.68.08,1.75-.76,2.18-1.46,1.2-1.93,2.16-4.02,3.57-6.72ZM224.64,56.86c5.44,5.88,5.25,9.66-.41,16.52.99.62,2.02,1.16,2.93,1.86,4.08,3.1,7.18,2.5,11.11-1.1,4.02-3.67,9.42-5.81,14.09-8.81,1.29-.83,3.1-2.46,3-3.57-.45-5.04-1.5-10.02-2.4-15.46-9.87,3.68-18.85,7.04-28.32,10.57Zm105.09,102.91c-5.26,6.33-9.53,11.47-14.62,17.61,11.95,6.21,23.63,9.37,34.61,13.82v-20.03c-8.14,1.08-15.88-.4-19.98-11.39Zm-187.64-12.67c-15.6-5.44-30.59-10.65-45.79-15.95-.54,2.44-1.09,4.35-1.37,6.29-.37,2.54-.97,4.72,3.47,4.39,2.96-.22,6.3,1.65,9.12,3.2,8.86,4.87,17.56,10.03,26.53,15.2,3.01-4.92,5.33-8.71,8.04-13.13Zm106.44,56.41l1.81-.66c-.5-1.32-.62-3.3-1.57-3.86-6.46-3.78-12.64-8.37-21.08-5.8-3.73,1.14-7.9,1.04-11.88,1.17-5.68.18-11.37.05-17.26.05,1.76,3.3,3.19,5.97,4.88,9.13,1.72-.21,3.91-.2,5.92-.79,7.95-2.33,15.93-3.07,24.09-1.18,1.09.25,2.54.56,3.35.06,4.47-2.73,8.21-1.47,11.73,1.88Zm258.13-24.11c-8.98,3.36-17.06,6.37-25.97,9.7,5.59,5.3,11.91,6.98,18.07,7.96,2.34.37,6.77-2.31,7.55-4.54,1.28-3.64.34-8.06.34-13.11Zm-67.78-62.99c.08-.5.16-.99.23-1.49-10.77-2.9-21.53-5.79-32.3-8.69,1.05,2.59,2.67,4.2,4.05,5.98,2.72,3.5,8.36,4.17,9.28,9.53.06.33,2.42.73,3.46.37,5.14-1.77,10.19-3.78,15.27-5.7Zm-.18,99.64c-4.9-2.23-9.52-5.09-14.54-6.28-2.12-.51-6.87,2.09-7.28,3.96-.86,3.93.36,8.31.76,12.96,6.9-3.49,13.32-6.73,21.06-10.64Zm-204.6-35.3c.08-.48.16-.96.23-1.44-7.36-2.56-14.72-5.12-22.32-7.77-1.98,4.01-3.7,7.48-6.05,12.23,10.22-1.1,19.17-2.06,28.13-3.02Zm-107.53-12.98c-6.79-1.27-13.08-2.44-19.38-3.62-.23.57-.46,1.13-.69,1.7.66.44,1.28.98,1.99,1.3,2.37,1.04,5.25,1.47,7.09,3.09,5.38,4.72,6.57,4.74,10.99-2.47Zm68.73,81.3c7.1,3.54,16.71,4.61,21.76,2.24-2.72-1.63-5.08-4.17-7.51-4.24-4.51-.13-9.06,1.19-14.25,2.01Z"/>
      <path class="cls-2" d="m387.73,97.17c-2.74,2.61-4.06,5.18-.61,8.62,1.11,1.11.41,4.03.56,6.65-4.86,1.35-9.55,2.8-14.32,3.91-1.31.31-2.93-.17-4.29-.63-4.55-1.56-9.02-3.35-13.58-4.91-1.35-.46-3.43-1.19-4.22-.58-6.45,5.01-10.27-1.9-15.4-2.6-.06-.43-.11-.86-.17-1.29,12.47-4.17,24.93-8.36,37.42-12.49.73-.24,1.65-.13,2.42.07,3.88.98,7.73,2.05,12.18,3.24Z"/>
      <path class="cls-2" d="m356.52,214.31c-1.41,2.7-2.37,4.78-3.57,6.72-.43.7-1.5,1.54-2.18,1.46-3.5-.4-7.84.02-10.28-1.89-4.77-3.73-10.08-1.9-14.99-3.15-6.38-1.63-12.84-2.93-19.25-4.43-2.96-.69-3.68-2.28-3.05-5.47,1.95-9.85,2.54-12.34,14.5-7.91,12.71,4.71,25.36,9.57,38.82,14.67Z"/>
      <path class="cls-2" d="m224.64,56.86c9.47-3.53,18.45-6.89,28.32-10.57.9,5.44,1.95,10.43,2.4,15.46.1,1.11-1.71,2.74-3,3.57-4.67,3.01-10.07,5.14-14.09,8.81-3.94,3.6-7.03,4.2-11.11,1.1-.91-.69-1.94-1.24-2.93-1.86,5.66-6.86,5.85-10.64.41-16.52Z"/>
      <path class="cls-2" d="m329.73,159.76c4.1,10.99,11.84,12.47,19.98,11.39v20.03c-10.98-4.44-22.66-7.61-34.61-13.82,5.09-6.13,9.36-11.27,14.62-17.61Z"/>
      <path class="cls-2" d="m142.09,147.09c-2.71,4.42-5.02,8.21-8.04,13.13-8.97-5.17-17.67-10.33-26.53-15.2-2.83-1.55-6.16-3.42-9.12-3.2-4.45.33-3.84-1.85-3.47-4.39.28-1.95.83-3.85,1.37-6.29,15.2,5.3,30.19,10.51,45.79,15.95Z"/>
      <path class="cls-2" d="m248.53,203.5c-3.52-3.35-7.26-4.62-11.73-1.88-.81.5-2.27.19-3.35-.06-8.15-1.89-16.13-1.15-24.09,1.18-2.01.59-4.2.57-5.92.79-1.69-3.16-3.12-5.84-4.88-9.13,5.89,0,11.58.13,17.26-.05,3.98-.13,8.14-.03,11.88-1.17,8.44-2.57,14.62,2.02,21.08,5.8.95.56,1.07,2.54,1.57,3.86l-1.81.66Z"/>
      <path class="cls-2" d="m506.66,179.39c0,5.05.93,9.47-.34,13.11-.78,2.23-5.21,4.92-7.55,4.54-6.16-.98-12.48-2.65-18.07-7.96,8.9-3.33,16.99-6.34,25.97-9.7Z"/>
      <path class="cls-2" d="m438.88,116.4c-5.08,1.92-10.14,3.94-15.27,5.7-1.04.36-3.41-.03-3.46-.37-.91-5.37-6.56-6.03-9.28-9.53-1.38-1.78-3-3.39-4.05-5.98,10.77,2.9,21.53,5.79,32.3,8.69-.08.5-.16.99-.23,1.49Z"/>
      <path class="cls-2" d="m438.69,216.04c-7.73,3.91-14.16,7.15-21.06,10.64-.4-4.65-1.62-9.03-.76-12.96.41-1.87,5.16-4.46,7.28-3.96,5.02,1.2,9.65,4.05,14.54,6.28Z"/>
      <path class="cls-2" d="m234.1,180.74c-8.96.96-17.92,1.92-28.13,3.02,2.35-4.75,4.06-8.22,6.05-12.23,7.6,2.64,14.96,5.21,22.32,7.77-.08.48-.16.96-.23,1.44Z"/>
      <path class="cls-2" d="m126.57,167.76c-4.42,7.21-5.61,7.19-10.99,2.47-1.84-1.62-4.72-2.05-7.09-3.09-.72-.31-1.33-.86-1.99-1.3.23-.57.46-1.13.69-1.7,6.29,1.18,12.59,2.35,19.38,3.62Z"/>
      <path class="cls-2" d="m195.3,249.06c5.2-.82,9.74-2.14,14.25-2.01,2.43.07,4.79,2.62,7.51,4.24-5.06,2.37-14.66,1.3-21.76-2.24Z"/>
    </g>
  </g>
</svg>