<svg id="Layer_1" data-name="Layer 1" xmlns="http://www.w3.org/2000/svg" viewBox="0 0 608.58 346.03">
  <g id="i3dLcn.tif">
    <g>
      <path class="cls-1" d="m48.46,56.62c-3.64-3.81-3.5-8.34-.43-12.41,2.9-3.85,7.06-4.94,11.92-3.31,1.18.4,3.17-.26,4.24-1.12,4.01-3.24,7.9-6.63,11.56-10.25.98-.97,1.63-3.11,1.28-4.4-1.12-4.08-.45-7.62,2.54-10.44,3.09-2.91,6.9-3.41,10.91-2.01,2.97,1.03,5.92,2.12,9.31,3.34.16-1.32.21-2.37.41-3.38,1.5-7.68,6.92-10.69,14.37-7.99,3.44,1.25,6.86,2.55,10.29,3.82,4.26,1.58,8.24,3.56,13.13.96,2.05-1.09,5.56-.45,8.03.43,15.49,5.54,30.88,11.38,46.31,17.12,9.13,3.4,11.2,6.6,10.42,16.07-.04.45.28.92.6,1.92,1.74-.62,3.41-1.19,5.06-1.8,11.83-4.41,23.81-8.49,35.44-13.38,7.43-3.13,13.71-1.23,20.54,1.56,15.2,6.22,30.57,12.06,46,17.73,1.79.66,4.53-.43,6.53-1.35,8.22-3.79,15.44-4.71,24.6-.18,14.82,7.34,30.93,12.06,46.5,17.89,1.09.41,2.21.75,3.26,1.25,6.1,2.92,8.57,8.84,6.15,14.71,10.49,1.75,19.7,6.49,29.13,11.24,10.91,5.5,22.59,9.57,34.18,13.58,2.67.93,6.36-.68,9.47-1.51,3.04-.81,5.95-2.1,8.92-3.19,9.87-3.64,15.37-2.05,21.51,6.75,7.98,11.45,16.02,22.87,23.47,34.66,4.18,6.62,8.75,12.32,15.96,15.81,2.06,1,3.46,3.37,5.9,5.87-8.97,3.42-16.51,6.3-23.92,9.13.3,5.02.57,9.6.93,15.73,4.09-2.72,7.23-5.58,10.93-7.09,5.89-2.41,12.15-3.95,18.27-5.79.75-.23,1.82.29,2.42-.07,6.93-4.17,13.09-.64,19.36,1.82,1.24.48,2.52.86,3.75,1.35,10.34,4.13,12.58,2.72,11.79,16.46-.17,2.89,1.04,4.04,3.54,5.01,13.43,5.21,13.41,5.26,13.4,19.8,0,19.79-.1,39.57.06,59.36.04,4.52-1.64,6.83-5.93,8.41-33.06,12.18-66.01,24.65-99.06,36.86-11.17,4.13-22.48,7.89-33.83,11.48-2.08.66-4.68-.47-7.05-.58-3.16-.14-6.95-1.23-9.4.08-11.19,5.99-21.98,6.1-32.96-.2-1.42-.81-3.1-1.18-4.67-1.72-4.73-1.63-7.25-4.44-7.04-9.93.37-9.46-.01-18.95.17-28.43.06-3.07-.69-4.75-3.81-5.87-10.64-3.79-21.11-8.06-31.77-11.79-1.76-.62-4.62-.12-6.14.99-4.5,3.31-9.6,6-10.53,12.79-.6,4.36-5.89,5.68-11.15,4.08-5.99-1.83-12.01-3.66-18.12-5-1.48-.33-3.71.87-5.03,2.01-2.96,2.55-5.94,3.25-9.62,1.84-9.62-3.69-19.37-7.06-28.88-11.01-2.01-.84-4.57-3.66-4.52-5.51.17-6.23-3.88-8.8-8.27-11.18-2.46-1.34-5.41-1.77-7.85-3.13-2.16-1.21-4.17-2.91-5.76-4.81-1.86-2.21-8.94-4.58-11.75-3.58-8.11,2.88-16.19,5.89-24.41,8.44-9.91,3.08-19.69.54-28.63-3.2-9.87-4.14-19.15-9.83-28.33-15.42-4.7-2.86-9.27-3.17-14.04-1.64-6.48,2.07-12.71,4.96-19.23,6.9-2.82.84-6.33.95-9.1.06-8.38-2.67-16.57-5.94-24.78-9.1-1.29-.5-3.3-1.63-3.31-2.49-.05-4.34-3.34-4.77-6.22-5.84-10.28-3.83-20.56-7.66-30.83-11.52-5.95-2.24-7.73-5.21-6.85-11.28.54-3.77-5.1-8.46-8.89-7.28-2.22.69-4.34,1.68-6.53,2.45-9.71,3.43-16.82,1.32-23.31-6.27-5.19-6.07-7.6-19.7-2.81-26.53,3.12-4.46,6.74-6.91,11.54-8.6,1.57-.56,3.98-2.3,3.89-3.31-.24-2.54-.97-5.89-2.77-7.26-8.16-6.21-8.15-12.92.44-18.81.86-.59,1.36-2.06,1.58-3.2,1.55-8.32,3.1-16.64,4.35-25,.24-1.63-.32-3.94-1.4-5.1-5.92-6.32-2.25-16.49,5.8-16.78,3.16-.12,4.71-2.03,6.07-4.73,3.96-7.85,8.23-15.55,12.73-23.96Zm339.27,40.55c-4.45-1.19-8.31-2.26-12.18-3.24-.77-.2-1.7-.31-2.42-.07-12.48,4.13-24.95,8.31-37.42,12.49.06.43.11.86.17,1.29,5.13.69,8.95,7.61,15.4,2.6.79-.61,2.86.11,4.22.58,4.55,1.56,9.03,3.34,13.58,4.91,1.36.47,2.97.94,4.29.63,4.77-1.11,9.47-2.55,14.32-3.91-.16-2.63.55-5.55-.56-6.65-3.45-3.44-2.13-6.01.61-8.62Zm-31.22,117.14c-13.46-5.09-26.12-9.95-38.82-14.67-11.96-4.43-12.55-1.95-14.5,7.91-.63,3.19.09,4.78,3.05,5.47,6.41,1.5,12.87,2.8,19.25,4.43,4.91,1.26,10.22-.57,14.99,3.15,2.44,1.91,6.77,1.49,10.28,1.89.68.08,1.75-.76,2.18-1.46,1.2-1.93,2.16-4.02,3.57-6.72ZM224.64,56.86c5.44,5.88,5.25,9.66-.41,16.52.99.62,2.02,1.16,2.93,1.86,4.08,3.1,7.18,2.5,11.11-1.1,4.02-3.67,9.42-5.81,14.09-8.81,1.29-.83,3.1-2.46,3-3.57-.45-5.04-1.5-10.02-2.4-15.46-9.87,3.68-18.85,7.04-28.32,10.57Zm105.09,102.91c-5.26,6.33-9.53,11.47-14.62,17.61,11.95,6.21,23.63,9.37,34.61,13.82v-20.03c-8.14,1.08-15.88-.4-19.98-11.39Zm-187.64-12.67c-15.6-5.44-30.59-10.65-45.79-15.95-.54,2.44-1.09,4.35-1.37,6.29-.37,2.54-.97,4.72,3.47,4.39,2.96-.22,6.3,1.65,9.12,3.2,8.86,4.87,17.56,10.03,26.53,15.2,3.01-4.92,5.33-8.71,8.04-13.13Zm106.44,56.41l1.81-.66c-.5-1.32-.62-3.3-1.57-3.86-6.46-3.78-12.64-8.37-21.08-5.8-3.73,1.14-7.9,1.04-11.88,1.17-5.68.18-11.37.05-17.26.05,1.76,3.3,3.19,5.97,4.88,9.13,1.72-.21,3.91-.2,5.92-.79,7.95-2.33,15.93-3.07,24.09-1.18,1.09.25,2.54.56,3.35.06,4.47-2.73,8.21-1.47,11.73,1.88Zm258.13-24.11c-8.98,3.36-17.06,6.37-25.97,9.7,5.59,5.3,11.91,6.98,18.07,7.96,2.34.37,6.77-2.31,7.55-4.54,1.28-3.64.34-8.06.34-13.11Zm-67.78-62.99c.08-.5.16-.99.23-1.49-10.77-2.9-21.53-5.79-32.3-8.69,1.05,2.59,2.67,4.2,4.05,5.98,2.72,3.5,8.36,4.17,9.28,9.53.06.33,2.42.73,3.46.37,5.14-1.77,10.19-3.78,15.27-5.7Zm-.18,99.64c-4.9-2.23-9.52-5.09-14.54-6.28-2.12-.51-6.87,2.09-7.28,3.96-.86,3.93.36,8.31.76,12.96,6.9-3.49,13.32-6.73,21.06-10.64Zm-204.6-35.3c.08-.48.16-.96.23-1.44-7.36-2.56-14.72-5.12-22.32-7.77-1.98,4.01-3.7,7.48-6.05,12.23,10.22-1.1,19.17-2.06,28.13-3.02Zm-107.53-12.98c-6.79-1.27-13.08-2.44-19.38-3.62-.23.57-.46,1.13-.69,1.7.66.44,1.28.98,1.99,1.3,2.37,1.04,5.25,1.47,7.09,3.09,5.38,4.72,6.57,4.74,10.99-2.47Zm68.73,81.3c7.1,3.54,16.71,4.61,21.76,2.24-2.72-1.63-5.08-4.17-7.51-4.24-4.51-.13-9.06,1.19-14.25,2.01Z"/>
    </g>
  </g>
</svg>