<?xml version="1.0" encoding="UTF-8"?>
<svg id="Layer_1" data-name="Layer 1" xmlns="http://www.w3.org/2000/svg" viewBox="0 0 597.21 160.5">
  <defs>
    <style>
      .cls-1, .cls-2 {
        stroke-width: 0px;
      }

      .cls-2 {
        fill: #fff;
      }
    </style>
  </defs>
  <g id="zZ4HJY.tif">
    <g>
      <path class="cls-2" d="m597.21,160.5c-199.07,0-398.14,0-597.21,0C0,107,0,53.5,0,0c199.07,0,398.14,0,597.21,0,0,53.5,0,107,0,160.5ZM222.89,44.89c-.44-5.54-1.08-9.35-7.92-9.13-6.52.2-7.76,3.29-7.37,8.7-3.98,0-7.39-.18-10.77.05-3.16.21-4.01-1.1-3.93-4.04.17-6.18.09-12.37.06-18.55-.02-3.25-1.61-5.39-4.94-5.61-3.42-.22-5.59,1.6-6.22,4.97-.26,1.35-.14,2.77-.21,4.16-.33,7.45-.67,14.91-1.06,23.51-1.2-2.19-1.82-3.31-2.68-4.9-.59,1.93-.98,3.17-1.31,4.26-2.85-.36-5.4-1-7.93-.92-3.34.11-6.67,1.19-9.99,1.13-15.43-.27-30.85-.98-46.27-1.18-16.46-.22-32.92-.19-49.38.04-4.78.07-9.54,1.19-15.68,2.01,2.51.53,3.7.78,5.6,1.18-1.93.56-3.13.91-5.8,1.68,3.89.77,7.12.89,5,4.96-3.59-.85-7.18-1.71-10.78-2.57-.12.41-.24.81-.36,1.22,2.69.94,5.32,2.05,8.07,2.77,3.74.98,4.65,2.92,3.26,5.71-3.79,0-7.01-.21-10.19.06-3.59.3-7.13,1.38-10.71,1.51-7.4.26-7.4.09-8.43,7.31-2.51-.82-5.11-1.36-7.39-2.51-1.33-.67-3.29-2.96-3.02-3.42,1.41-2.48,3.43-6.5,5.25-6.51,4.35-.02,5.71-2.26,5.38-5.31-.41-3.79,1.06-6.27,3.52-8.52,6.54-5.97,10.88-13.31,14.49-21.31,1.7-3.78,4.65-7,6.99-10.5,1.63-2.43,2.99-4.8-.72-6.79-2.98-1.6-5.82-3.45-9.17-5.46-1.25,1.92-2.46,3.6-3.49,5.39-1.28,2.2-2.01,4.86-3.68,6.68-7.19,7.83-13.53,16.07-16.41,26.57-.45,1.64-2.13,3.49-3.71,4.18-6.14,2.68-6.87,4.71-2.69,9.51-1.68,2.55-3.63,5-5.02,7.73-4.42,8.64-2.24,13.09,7.01,15.9,8.44,2.56,16.78,5.48,25.09,8.45,1.11.4,2.66,2.19,2.51,3.07-.9,5.13.07,7.55,5.72,4.92.38-.18,1-.18,1.37,0,4.7,2.38,6.11.32,5.82-4.18,0-.08.53-.19,1.28-.46.45,6.7,4.54,5.83,9.06,4.34,1.13-.37,2.47-.11,3.71-.11,11.02,0,22.06.34,33.07-.14,5.73-.25,8.33,1.88,9.58,8.41.91,4.74,4.92,6.97,8.38,3.78,3.97-3.66,8.13-2.41,12.64-2.72-3.02,5.43-1.92,7.49,3.72,7.68,2.31.08,4.62.01,5.93.01,1.84,4.28,3.39,7.88,4.94,11.48.52-.19,1.03-.37,1.55-.56-.44-1.86-.98-3.71-1.3-5.59-.22-1.29-.71-3.34-.09-3.82,4.63-3.67,9.07-8.25,14.42-10.16,5.78-2.06,12.49-1.54,19.29-2.19,0,2.57,0,4.85,0,7.14-.07,14.1-1.91,28.21.58,42.28.69,3.88,4.42,7.91,8,7.91,21.43.03,42.86-.04,64.28.07,3.83.02,5.31-1.39,5.19-5.18-.18-5.81-.05-11.64-.05-18.34,2.91.91,4.71,1.66,6.59,2.01,2.68.5,5.45,1.08,8.14.92,3.21-.19,6.36-1.31,9.57-1.67,2.61-.29,5.28-.2,7.91-.02,3.91.26,5.25-1.6,5.19-5.27-.12-6.65-.03-13.3-.03-19.95,0-8.15,0-16.3,0-25.03,7.73,0,14.97-.03,22.2,0,7.54.04,15.08.23,22.63.17,1.53-.01,3.68-.3,4.47-1.3,3.3-4.15,9-4.15,11.82-.09,1.68-.35,3.42-1.26,4.56-.77.91.39,1.5,2.46,1.54,3.8.15,5.58-1.76,7.79-7.42,8.71-4.28.69-8.66.87-12.89,1.78-5.08,1.09-7.38,5.41-6.61,11.62.47,3.8,3.14,5.09,6.54,5.1,20.65.04,41.3.1,61.95-.11,1.73-.02,4.23-1.51,5.03-3.02,2.91-5.53-.34-12.22-6.36-13.76-1.93-.49-3.99-.49-5.97-.82-3.2-.53-6.49-.83-9.55-1.82-4.01-1.29-4.05-4.93-4.24-8.42-.21-3.79,2.52-2.92,4.62-3.27.35-.06.58-.9.98-1.58-1.63-.53-2.95-.96-4.26-1.39,0-.65,0-1.29,0-1.94,6.82-.11,13.65-.06,20.48-.08,7.14-.03,14.29-.04,21.43-.06,7.14-.02,14.29-.04,21.43-.09,7.14-.04,14.29-.11,21.43-.18,6.99-.07,13.97-.15,20.96-.22,7.14-.07,14.28-.14,21.43-.19,7.14-.05,14.29-.07,21.43-.1,7.14-.03,14.29-.19,21.43-.06,7.1.13,14.19.68,21.29.82,7.09.15,14.18.03,21.44.03v-13.49c-1.83-.09-3.35-.29-4.86-.21-9.82.52-19.66,1.79-29.45,1.54-61.67-1.6-123.41,1.24-185.02-3.27-7.29-.53-14.72,2.53-21.89-1-1-.49-2.45-.1-3.69-.1-2.14,0-4.28,0-6.23,0-1.59-4.39-2.16-4.62-6.15-4.35-4.62.32-9.26.51-13.89.49-6.19-.03-12.39-.39-18.58-.47-12.84-.17-25.69-.1-38.53-.44-5.47-.15-8.76-4.07-8.97-9.51-.04-1.02-.31-2.03-.46-2.97-5.47-.55-10.81-1.82-14.56,3.96-2.23-3.33-3.51-6.96-8.27-5.61-3.28.93-6.8,1.04-10.66,1.58Z"/>
      <path class="cls-1" d="m222.89,44.89c3.86-.54,7.37-.65,10.66-1.58,4.76-1.35,6.04,2.28,8.27,5.61,3.76-5.79,9.09-4.51,14.56-3.96.15.94.42,1.95.46,2.97.21,5.44,3.51,9.36,8.97,9.51,12.84.34,25.69.27,38.53.44,6.19.08,12.39.44,18.58.47,4.63.02,9.27-.17,13.89-.49,3.99-.28,4.56-.05,6.15,4.35,1.96,0,4.09,0,6.23,0,1.24,0,2.69-.39,3.69.1,7.17,3.53,14.6.46,21.89,1,61.6,4.51,123.35,1.68,185.02,3.27,9.8.25,19.63-1.02,29.45-1.54,1.51-.08,3.03.12,4.86.21v13.49c-7.26,0-14.36.12-21.44-.03-7.1-.15-14.19-.69-21.29-.82-7.14-.13-14.28.02-21.43.06-7.14.03-14.29.05-21.43.1-7.14.05-14.28.12-21.43.19-6.99.07-13.97.16-20.96.22-7.14.07-14.28.13-21.43.18-7.14.04-14.29.06-21.43.09-7.14.02-14.29.04-21.43.06-6.82.03-13.66-.02-20.48.08,0,.65,0,1.29,0,1.94,1.31.43,2.63.86,4.26,1.39-.4.68-.63,1.52-.98,1.58-2.1.35-4.83-.52-4.62,3.27.19,3.5.23,7.14,4.24,8.42,3.06.98,6.35,1.29,9.55,1.82,1.98.33,4.04.33,5.97.82,6.03,1.54,9.27,8.23,6.36,13.76-.79,1.51-3.3,3-5.03,3.02-20.65.21-41.3.16-61.95.11-3.4,0-6.07-1.3-6.54-5.1-.77-6.21,1.52-10.53,6.61-11.62,4.23-.91,8.61-1.09,12.89-1.78,5.66-.92,7.57-3.13,7.42-8.71-.04-1.34-.62-3.42-1.54-3.8-1.14-.49-2.88.42-4.56.77-2.82-4.06-8.52-4.05-11.82.09-.8,1-2.94,1.29-4.47,1.3-7.54.05-15.08-.13-22.63-.17-7.23-.04-14.47,0-22.2,0,0,8.73,0,16.88,0,25.03,0,6.65-.09,13.3.03,19.95.07,3.67-1.28,5.53-5.19,5.27-2.63-.17-5.3-.27-7.91.02-3.21.36-6.36,1.48-9.57,1.67-2.69.16-5.45-.43-8.14-.92-1.88-.35-3.68-1.1-6.59-2.01,0,6.7-.14,12.52.05,18.34.12,3.79-1.36,5.2-5.19,5.18-21.43-.11-42.86-.04-64.28-.07-3.58,0-7.31-4.03-8-7.91-2.49-14.07-.65-28.18-.58-42.28.01-2.28,0-4.57,0-7.14-6.8.65-13.51.12-19.29,2.19-5.35,1.91-9.79,6.49-14.42,10.16-.61.48-.12,2.54.09,3.82.32,1.88.86,3.73,1.3,5.59-.52.19-1.03.37-1.55.56-1.55-3.6-3.1-7.2-4.94-11.48-1.31,0-3.63.07-5.93-.01-5.64-.19-6.74-2.25-3.72-7.68-4.52.31-8.67-.93-12.64,2.72-3.46,3.19-7.47.96-8.38-3.78-1.25-6.53-3.85-8.66-9.58-8.41-11,.49-22.04.14-33.07.14-1.24,0-2.58-.26-3.71.11-4.51,1.49-8.61,2.36-9.06-4.34-.75.26-1.28.38-1.28.46.29,4.5-1.12,6.56-5.82,4.18-.37-.19-.99-.19-1.37,0-5.65,2.62-6.62.2-5.72-4.92.15-.88-1.39-2.67-2.51-3.07-8.31-2.97-16.64-5.89-25.09-8.45-9.26-2.81-11.43-7.26-7.01-15.9,1.4-2.73,3.34-5.18,5.02-7.73-4.18-4.8-3.45-6.83,2.69-9.51,1.58-.69,3.26-2.54,3.71-4.18,2.88-10.5,9.22-18.74,16.41-26.57,1.67-1.82,2.4-4.47,3.68-6.68,1.03-1.78,2.24-3.47,3.49-5.39,3.34,2.01,6.19,3.86,9.17,5.46,3.71,1.99,2.35,4.36.72,6.79-2.35,3.5-5.29,6.72-6.99,10.5-3.6,8-7.95,15.34-14.49,21.31-2.47,2.25-3.94,4.73-3.52,8.52.33,3.04-1.03,5.29-5.38,5.31-1.82,0-3.84,4.02-5.25,6.51-.27.47,1.69,2.75,3.02,3.42,2.28,1.15,4.88,1.69,7.39,2.51,1.03-7.22,1.03-7.05,8.43-7.31,3.58-.12,7.12-1.2,10.71-1.51,3.18-.27,6.41-.06,10.19-.06,1.39-2.79.48-4.73-3.26-5.71-2.74-.72-5.38-1.83-8.07-2.77.12-.41.24-.81.36-1.22,3.59.86,7.19,1.71,10.78,2.57,2.12-4.07-1.11-4.2-5-4.96,2.68-.78,3.87-1.12,5.8-1.68-1.9-.4-3.09-.65-5.6-1.18,6.13-.82,10.9-1.95,15.68-2.01,16.46-.23,32.92-.26,49.38-.04,15.43.2,30.85.91,46.27,1.18,3.32.06,6.65-1.03,9.99-1.13,2.53-.08,5.08.56,7.93.92.33-1.09.72-2.33,1.31-4.26.87,1.58,1.48,2.7,2.68,4.9.39-8.61.72-16.06,1.06-23.51.06-1.39-.05-2.81.21-4.16.63-3.36,2.81-5.19,6.22-4.97,3.32.21,4.92,2.36,4.94,5.61.03,6.18.11,12.37-.06,18.55-.08,2.94.77,4.26,3.93,4.04,3.38-.23,6.79-.05,10.77-.05-.39-5.42.85-8.5,7.37-8.7,6.84-.21,7.48,3.6,7.92,9.13Zm138.83,39.15c-.11,1.01-.24,1.76-.28,2.51-.38,8.42-2.42,10.65-11,11.89-2.6.38-5.23.57-7.84.93-7.58,1.05-9.8,4.92-7.21,11.89h69.52c.79-9.46-.65-11.2-9.48-11.98-1.54-.14-3.1-.14-4.64-.34-9.8-1.24-11.68-3.16-12.82-12.98-.07-.58-.28-1.15-.47-1.94h-15.79Zm-76.26,26.62c.47.02.94.04,1.41.06.95-3.19,2.24-6.34,2.64-9.59.11-.94-2.35-3.06-3.62-3.04-1.15.01-3.35,2.34-3.2,3.39.43,3.13,1.78,6.14,2.77,9.19Z"/>
      <path class="cls-2" d="m361.72,84.04h15.79c.19.79.4,1.36.47,1.94,1.14,9.81,3.02,11.74,12.82,12.98,1.54.19,3.09.2,4.64.34,8.83.78,10.27,2.52,9.48,11.98h-69.52c-2.59-6.97-.37-10.84,7.21-11.89,2.61-.36,5.24-.55,7.84-.93,8.58-1.24,10.62-3.48,11-11.89.03-.75.16-1.51.28-2.51Z"/>
      <path class="cls-2" d="m285.46,110.67c-.99-3.05-2.34-6.06-2.77-9.19-.14-1.05,2.06-3.38,3.2-3.39,1.27-.01,3.73,2.1,3.62,3.04-.4,3.26-1.69,6.4-2.64,9.59-.47-.02-.94-.04-1.41-.06Z"/>
    </g>
  </g>
</svg>