<?xml version="1.0" encoding="UTF-8"?>
<svg id="Layer_1" data-name="Layer 1" xmlns="http://www.w3.org/2000/svg" viewBox="0 0 599 358.91">
  <defs>
    <style>
      .cls-1, .cls-2 {
        stroke-width: 0px;
      }

      .cls-2 {
        fill: #fff;
      }
    </style>
  </defs>
  <g id="IuzZui.tif">
    <g>
      <path class="cls-1" d="m15.89,0c1.63,0,3.26,0,4.89,0,2.36.9,4.68,1.95,7.1,2.67,3.39,1.01,4.43,2.95,3.5,6.39-1.28,4.72-2.99,9.51-3.16,14.31-.28,8.1.5,16.24.87,24.36.35,7.7,1.61,8.98,9.91,10.04.45-1.94.81-3.92,1.37-5.84,2.83-9.6,12.49-17.01,21.63-16.77,2.07.05,4.16-.29,6.24-.46-.75-1.95-1.33-3.99-2.29-5.83-3.21-6.09.4-16.07,6.61-16.81,19.41-2.29,38.83-6.87,58.32.03,4.73,1.68,9.89,2.39,14.93,2.95,11.21,1.24,19.8,6.7,25.9,15.88,1.44,2.17,2.17,5.94,1.25,8.14-.63,1.49-5.11,2.7-7.19,2.01-5.65-1.89-10.91-4.91-16.38-7.37-1.89-.85-3.93-1.88-5.91-1.92-6.67-.14-12.17,1.82-13.57,9.59,5.91,7.37,14.25,10.76,23,13.55,7.49,2.39,14.96,4.86,22.34,7.53,2.53.92,4.8,2.57,7.05,3.81,4.04-5.03,9.42-8.97,10.7-13.96,1.91-7.48,6.82-7.08,11.99-7.77,1.81-.24,3.68-.25,5.44-.7,1.04-.26,2.7-1.14,2.72-1.79.1-3.17,1.4-5.57,4.58-4.86,1.77.4,3.04,3,4.53,4.61,10.02-.45,20.21.27,30.31,1.61,4.25.56,9.71.46,9.9,7.24.02.89,1.51,1.82,2.44,2.6,6.92,5.86,11.23,13.43,13.34,22.04.91,3.73,2.59,4.94,6.02,5.42,10.87,1.54,21.69,3.38,32.55,4.94,4.68.67,7.32,2.37,5.39,7.6-1.19,3.21-2.23,6.46-3.53,10.24,14,3.78,27.64,7.46,41.6,11.23.67-1.73,1.27-3.21,1.81-4.71,8.74-24.23,17.45-48.46,26.21-72.68,2.04-5.65,6.93-7.21,11.89-3.92,1.08.72,2.22,1.35,3.53,2.15.47-1.24.76-1.99,1.04-2.74,2.83-7.44,3.77-7.65,9.97-2.44,3.89,3.27,7.87,6.44,11.77,9.7,10.44,8.72,10.53,9.09,5.68,21.45-.52,1.32-1.09,2.62-1.6,3.95-7.86,20.35-15.72,40.71-23.8,61.64,12.01,3.25,23.52,6.41,35.06,9.43,1.05.27,2.32-.41,3.5-.49,4.51-.31,9.1-1.2,13.51-.67,5.19.62,10.18,2.84,15.36,3.67,2.36.38,5.48-.18,7.4-1.54,6.91-4.88,13.88-7.31,22.24-3.88,27.82,11.41,55.68,22.72,83.56,33.95,5.66,2.28,8.62,6.48,10.08,12.1.5,1.95.99,3.9,1.49,5.85v2.44c-1.76,9.86-4.04,19.47-11.46,26.97-4.42,4.47-9.31,6.84-15.85,5.72-29.04-4.97-58.09-9.95-87.19-14.54-9.61-1.51-15.2-6.74-18.52-15.46-.73-1.9-2.77-3.86-4.68-4.67-9.8-4.15-22.04-3.43-28.36-14.44-.16-.29-.69-.4-1.08-.52-12.57-3.71-25.14-7.42-37.83-11.16-13.74,35.41-27.42,70.11-40.65,104.99-9.04,23.84-19.18,46.97-36.23,66.41-17.17,19.57-38.22,28.97-64.55,25.3-23.04-3.21-43.39-13.14-63.2-24.59-8.24-4.76-13.1-11.91-15.64-20.84-2.05-7.21-3.78-14.54-6.16-21.64-.69-2.04-2.89-3.97-4.88-5.11-5.8-3.31-11.84-6.2-17.79-9.25-4.08-2.09-8.11-4.29-12.26-6.22-3.48-1.62-7.25-2.63-10.63-4.4-5.88-3.07-11.43-6.77-17.35-9.73-4.88-2.44-10.19-3.99-15.14-6.29-6.73-3.13-13.09-7.13-19.98-9.83-22.61-8.87-36.51-24.45-38.9-49.08-1.02-10.51-1.45-21.08-2.24-31.62-.11-1.54-.54-3.12-1.11-4.56-1.1-2.8-3.02-5.42-3.47-8.29-.71-4.59.04-9.43-.81-13.98-1.41-7.59.66-12.95,7.91-16.06.28-.12.37-.68.49-.91-2.62-1.5-6.96-2.55-7.49-4.59-1.12-4.33-4.41-4.9-7.25-6.46-2.85-1.56-6.43-2.3-8.57-4.49-2.04-2.1-4.1-5.89-3.59-8.44,1.74-8.73,1.48-16.97-1.61-25.38-.7-1.91.41-6,1.96-6.91,4.04-2.37,4.78-5.41,4.59-9.54-.52-11.57-.09-23.25-1.49-34.7-.9-7.43.04-12.1,7.9-13.7Zm333.22,146.49c-13.91-4.12-26.98-7.99-40.5-11.98-.53,3.62-.96,6.54-1.46,9.96,12.81,3.93,25.47,7.82,38.32,11.76,1.23-3.3,2.28-6.11,3.63-9.74Zm-174.54-50.82c-8.13-.97-16.07-1.91-24.13-2.87-.39,2.01-.75,3.87-.95,4.89,8.63,1.88,16.81,3.67,25.08,5.48v-7.5Zm402.15,104.49c7.5-2.18,6.56-8.29,7.33-12.96,1.12-6.75-.46-9.87-4.03-11.64-1.04,7.74-2.1,15.64-3.31,24.6Z"/>
      <path class="cls-2" d="m15.89,0c-7.86,1.6-8.8,6.27-7.9,13.7,1.39,11.46.97,23.13,1.49,34.7.19,4.13-.56,7.18-4.59,9.54-1.55.91-2.66,5-1.96,6.91,3.08,8.4,3.34,16.64,1.61,25.38-.51,2.54,1.55,6.34,3.59,8.44,2.14,2.19,5.72,2.93,8.57,4.49,2.85,1.56,6.13,2.13,7.25,6.46.53,2.03,4.86,3.08,7.49,4.59-.11.23-.21.79-.49.91-7.25,3.11-9.32,8.47-7.91,16.06.85,4.55.09,9.39.81,13.98.45,2.87,2.37,5.49,3.47,8.29.57,1.45.99,3.02,1.11,4.56.78,10.54,1.22,21.11,2.24,31.62,2.39,24.63,16.3,40.21,38.9,49.08,6.88,2.7,13.25,6.7,19.98,9.83,4.95,2.3,10.26,3.85,15.14,6.29,5.92,2.96,11.48,6.66,17.35,9.73,3.39,1.77,7.16,2.79,10.63,4.4,4.15,1.93,8.18,4.13,12.26,6.22,5.95,3.05,11.99,5.94,17.79,9.25,1.99,1.14,4.19,3.07,4.88,5.11,2.39,7.1,4.11,14.42,6.16,21.64,2.54,8.93,7.4,16.08,15.64,20.84,19.81,11.45,40.17,21.38,63.2,24.59,26.32,3.67,47.38-5.73,64.55-25.3,17.05-19.45,27.19-42.58,36.23-66.41,13.23-34.87,26.92-69.57,40.65-104.99,12.69,3.74,25.26,7.44,37.83,11.16.38.11.91.23,1.08.52,6.32,11.01,18.56,10.29,28.36,14.44,1.91.81,3.95,2.76,4.68,4.67,3.32,8.72,8.91,13.94,18.52,15.46,29.1,4.59,58.15,9.56,87.19,14.54,6.54,1.12,11.43-1.25,15.85-5.72,7.41-7.5,9.7-17.11,11.46-26.97v170.91H0C0,239.27,0,119.64,0,0c5.3,0,10.59,0,15.89,0Z"/>
      <path class="cls-2" d="m599,185.56c-.5-1.95-.99-3.9-1.49-5.85-1.45-5.61-4.42-9.82-10.08-12.1-27.89-11.24-55.75-22.55-83.56-33.95-8.36-3.43-15.33-1.01-22.24,3.88-1.91,1.35-5.04,1.92-7.4,1.54-5.19-.84-10.17-3.05-15.36-3.67-4.41-.53-9,.36-13.51.67-1.18.08-2.45.76-3.5.49-11.54-3.02-23.05-6.18-35.06-9.43,8.08-20.93,15.94-41.29,23.8-61.64.51-1.32,1.08-2.62,1.6-3.95,4.85-12.36,4.76-12.74-5.68-21.45-3.9-3.26-7.88-6.43-11.77-9.7-6.21-5.21-7.14-5-9.97,2.44-.29.75-.57,1.5-1.04,2.74-1.31-.79-2.45-1.43-3.53-2.15-4.96-3.29-9.85-1.73-11.89,3.92-8.75,24.22-17.47,48.45-26.21,72.68-.54,1.5-1.14,2.98-1.81,4.71-13.96-3.77-27.6-7.45-41.6-11.23,1.29-3.78,2.34-7.04,3.53-10.24,1.94-5.23-.71-6.93-5.39-7.6-10.86-1.56-21.69-3.4-32.55-4.94-3.43-.49-5.1-1.7-6.02-5.42-2.11-8.61-6.43-16.18-13.34-22.04-.92-.78-2.41-1.71-2.44-2.6-.18-6.79-5.65-6.68-9.9-7.24-10.1-1.34-20.29-2.06-30.31-1.61-1.5-1.61-2.77-4.22-4.53-4.61-3.18-.71-4.47,1.69-4.58,4.86-.02.65-1.68,1.53-2.72,1.79-1.76.44-3.62.45-5.44.7-5.17.69-10.09.29-11.99,7.77-1.27,4.99-6.65,8.93-10.7,13.96-2.26-1.24-4.52-2.89-7.05-3.81-7.39-2.68-14.85-5.15-22.34-7.53-8.75-2.79-17.09-6.18-23-13.55,1.4-7.77,6.89-9.73,13.57-9.59,1.99.04,4.02,1.07,5.91,1.92,5.47,2.46,10.73,5.48,16.38,7.37,2.08.69,6.56-.51,7.19-2.01.92-2.21.19-5.98-1.25-8.14-6.1-9.18-14.68-14.64-25.9-15.88-5.03-.56-10.19-1.27-14.93-2.95-19.49-6.9-38.91-2.32-58.32-.03-6.21.73-9.82,10.71-6.61,16.81.97,1.84,1.54,3.88,2.29,5.83-2.08.16-4.16.51-6.24.46-9.15-.23-18.8,7.17-21.63,16.77-.57,1.92-.92,3.91-1.37,5.84-8.3-1.06-9.56-2.34-9.91-10.04-.37-8.12-1.15-16.26-.87-24.36.16-4.8,1.88-9.59,3.16-14.31.93-3.45-.11-5.38-3.5-6.39C25.46,1.95,23.14.9,20.78,0c192.74,0,385.48,0,578.22,0,0,61.85,0,123.71,0,185.56Z"/>
      <path class="cls-2" d="m349.11,146.49c-1.35,3.63-2.4,6.44-3.63,9.74-12.85-3.94-25.51-7.83-38.32-11.76.5-3.42.93-6.34,1.46-9.96,13.51,4,26.59,7.87,40.5,11.98Z"/>
      <path class="cls-2" d="m174.57,95.67v7.5c-8.27-1.81-16.46-3.59-25.08-5.48.2-1.02.56-2.88.95-4.89,8.06.96,16,1.9,24.13,2.87Z"/>
      <path class="cls-2" d="m576.73,200.15c1.2-8.96,2.27-16.87,3.31-24.6,3.57,1.77,5.14,4.9,4.03,11.64-.77,4.67.17,10.78-7.33,12.96Z"/>
    </g>
  </g>
</svg>