<?xml version="1.0" encoding="UTF-8"?>
<svg id="Layer_1" data-name="Layer 1" xmlns="http://www.w3.org/2000/svg" viewBox="0 0 596 259.92">
  <defs>
    <style>
      .cls-1, .cls-2 {
        stroke-width: 0px;
      }

      .cls-2 {
        fill: #fff;
      }
    </style>
  </defs>
  <g id="l0VQm4.tif">
    <g>
      <path class="cls-2" d="m596,259.92H0V0h596v259.92ZM238.99,120.94c.74,4.8,1.51,9.6,2.16,14.41.11.85-.06,2.36-.54,2.56-7.34,3.14-2.52,7.15-1,11.06,1.12,2.9,4.76,5.23,2.03,9.27-.48.7,1.5,4.45,2.42,4.48,5.22.16,4.75,4.54,5.99,7.45,1.22,2.87,1.62,6.07,2.67,9.03,3.33,9.39,6.8,18.73,10.23,28.08.42,1.15.94,2.27,1.49,3.61,2.04-.42,3.85-.79,6.02-1.23,2.36,7.17,5,14.25,6.95,21.52,1.24,4.6,2.88,7.85,8.01,9.16,3.24.83,6.89,2.59,8.92,5.1,4.45,5.5,9.16,4.19,14.48,2.26,5.59-2.03,7.67-1.38,8.73,4.65,1.03,5.9,7.04,1.57,8.83,5.34.22.46,1.43-2.41,1.9-2.87,2.33-2.28,5.3-4.14,8.35-5.42,6.83-2.86,13.94-5.06,20.76-7.95,4.67-1.98,6.4-6.05,5.14-10.94-1.58-6.1-3.22-12.21-5.38-18.11-1.47-4.02-2.4-7.38,1.61-10.45.84-.64,1.05-2.24,1.33-3.44,1.81-7.57,0-14.58-3.04-21.53-1.29-2.94-2.13-6.23-2.39-9.42-.39-4.65-.19-9.37,0-14.05.07-1.88.75-3.74,1.16-5.61.53.03,1.06.06,1.59.09,1.95,8.87,1.13,18.48,7.78,26.08,2.01,2.3,3.29,4.7,6.56,5.22,1.35.21,2.85.52,3.92,1.29,10.06,7.26,21.34,11.27,33.49,13.52,12.73,2.37,25.27,5.81,38.02,8.05,10.61,1.86,17.67-4.44,18.51-15.33.47-6.18.47-6.04,6.76-6.02,16.45.08,32.9.03,49.84.03.25-2.95.5-5.89.86-10.1,1.09,2.44,1.55,3.59,2.12,4.69,1.94,3.81,10.31,5.88,12.24,2.44,3.2-5.69,9.04-10.08,9.05-17.56,0-3.75.75-7.58,1.74-11.22.68-2.51,2.36-4.75,3.59-7.11.52.16,1.04.32,1.56.48-.48-3.48-.97-6.95-1.47-10.57q-7.48-1.09-6.93-5.54c3.76-2.22,7.11-4.2,10.95-6.47-2.23-1.98-3.63-3.22-6.01-5.33,7.02-.99,12.82-1.9,18.63-2.59,2.34-.28,4.75-.05,7.12-.05,6.54-.02,8.06-1.59,8.31-7.98.06-1.56.85-3.11,1.4-4.63.59-1.64,1.81-3.23,1.84-4.86.18-9.65.1-19.3.09-28.95,0-2.65-.59-5.51,3.33-6.2.6-.11,1.29-1.71,1.33-2.65.21-6.32.35-12.65.25-18.97-.02-1.09-1.3-2.16-1.96-3.25-.93-1.53-2.7-3.14-2.59-4.6.29-3.86-1.28-6.01-4.71-7.05-2.66-.81-5.38-1.76-8.11-1.95-4.89-.34-9.83-.39-14.72-.07-2.33.15-4.84,1.04-6.8,2.32-3.25,2.12-7.39,2.03-9.81-.86-2.19-2.61-11.8-3.79-13.82-1.11-2.96,3.93-6.52,3.64-10.1,2.52-1.6-1.97-4.53-2.89-5.2-4.66-1.43-3.76-3.88-3.9-7.07-3.83-3.04.07-6.09-.43-7.01,3.68-.12.52-1.48,1.06-2.28,1.07-6.79.08-13.59.05-20.42.05-.59-2.78-1.11-5.21-1.73-8.16h-17.04c.21.65.43,1.3.64,1.95-1.33.76-2.67,2.16-4,2.17-4.24.02-8.49-.73-12.74-.75-16.13-.08-32.27-.01-48.4.04-2.88,0-5.55-.03-3.99-5.01h-20.48c.24,1.81.37,2.79.69,5.14-19.13,0-37.81,0-56.49,0-9.98,0-19.97.19-29.94-.04-5.93-.14-11.85-.93-17.06-1.36-1.01-4.56-1.74-7.81-2.46-11.05-.84,0-1.67,0-2.51,0-.78,3.27-1.55,6.55-2.59,10.9-7.04.74-14.83,1.29-22.53,2.45-4.42.67-8.68,2.39-13.03,3.55-2.14.57-4.34,1.26-6.51,1.29-4.55.06-9.17-.88-13.63-.34-10.66,1.28-18.83,10-29.91,10.38-3.21.11-6.41.66-9.62.91-1.53.12-3.12-.23-4.6.06-4.76.94-9.5,2.03-14.22,3.16-1.77.42-4.18.65-4.99,1.85-.79,1.18.1,3.47.38,6.85-1.65-2.21-2.51-3.36-3.38-4.53-4.5.09-8.55.74-8.88,6.55-.05.91-.31,2.24-.92,2.61-2.33,1.39-4.76,2.77-7.34,3.44-.7.18-2.52-1.99-3-3.37-.94-2.7-2.76-2.9-5.15-3.03-16.92-.91-33.84-1.76-50.73-2.99-12.88-.94-25.77-1.85-37.58,4.51-4.87,2.62-10.95,5.81-12.96,10.31-3.83,8.6-6.87,18.08-3.81,28.02,1.36,4.42.73,8.59-2.02,12.55-1.2,1.72-1.94,4.02-2.14,6.13-.76,8.18,1.65,15.12,8.5,20.26,1.07.8,1.87,2.51,2.02,3.88,1,9.72,1.73,19.46,2.67,29.18,1.01,10.35,1.9,20.72,3.36,31.01.92,6.47,5.54,10.74,11.54,12.35,14.95,3.99,30.1,3.2,45.11.02,10.06-2.13,19.99-4.87,30.03-7.1,5.04-1.12,9.16-5,9.59-9.94.42-4.87,1.02-9.75,1.01-14.63,0-8.66,1.99-16.04,10.07-20.85,3.11-1.85,5.72-4.42,9.96-1.5-.13-1.87-.25-3.09-.31-4.31-.24-5.3.25-10.33,4.63-14.16,9.13-7.98,20.81-8.79,32.48-12.19-4.56,24.62-17.21,45.94-20.72,70.32h43.27c-4.15-18.73,3-35.12,8.94-52.45,6.53,7.23,13.48,6.33,20.99,3.85,8.42-2.78,8.91-10.91,12.88-16.88Z"/>
      <path class="cls-1" d="m238.99,120.94c-3.97,5.98-4.45,14.1-12.88,16.88-7.52,2.48-14.46,3.38-20.99-3.85-5.94,17.32-13.09,33.72-8.94,52.45h-43.27c3.51-24.38,16.16-45.7,20.72-70.32-11.67,3.4-23.35,4.21-32.48,12.19-4.38,3.82-4.87,8.86-4.63,14.16.06,1.22.17,2.44.31,4.31-4.24-2.92-6.85-.35-9.96,1.5-8.08,4.81-10.08,12.2-10.07,20.85,0,4.88-.59,9.76-1.01,14.63-.43,4.93-4.55,8.82-9.59,9.94-10.04,2.23-19.97,4.96-30.03,7.1-15,3.18-30.15,3.97-45.11-.02-6-1.6-10.62-5.87-11.54-12.35-1.46-10.29-2.35-20.66-3.36-31.01-.95-9.72-1.67-19.47-2.67-29.18-.14-1.37-.95-3.08-2.02-3.88-6.85-5.14-9.26-12.08-8.5-20.26.2-2.11.94-4.41,2.14-6.13,2.76-3.95,3.38-8.13,2.02-12.55-3.05-9.94-.02-19.43,3.81-28.02,2.01-4.5,8.09-7.69,12.96-10.31,11.81-6.36,24.7-5.45,37.58-4.51,16.89,1.23,33.82,2.08,50.73,2.99,2.39.13,4.21.33,5.15,3.03.48,1.38,2.31,3.56,3,3.37,2.58-.67,5.02-2.05,7.34-3.44.62-.37.87-1.7.92-2.61.33-5.8,4.38-6.46,8.88-6.54.87,1.16,1.73,2.32,3.38,4.52-.28-3.37-1.17-5.67-.38-6.85.8-1.2,3.22-1.43,4.99-1.85,4.72-1.13,9.45-2.22,14.22-3.16,1.48-.29,3.07.06,4.6-.06,3.21-.25,6.41-.8,9.62-.91,11.08-.38,19.26-9.1,29.91-10.38,4.46-.54,9.09.4,13.63.34,2.18-.03,4.37-.72,6.51-1.29,4.36-1.15,8.61-2.88,13.03-3.55,7.7-1.17,15.49-1.72,22.53-2.45,1.04-4.36,1.81-7.63,2.59-10.9.84,0,1.67,0,2.51,0,.72,3.25,1.44,6.49,2.46,11.05,5.21.44,11.12,1.23,17.06,1.36,9.98.23,19.96.05,29.94.04,18.68,0,37.37,0,56.49,0-.31-2.35-.44-3.33-.69-5.14h20.48c-1.56,4.98,1.11,5.02,3.99,5.01,16.13-.05,32.27-.12,48.4-.04,4.25.02,8.49.77,12.74.75,1.34,0,2.67-1.4,4-2.17-.21-.65-.43-1.3-.64-1.95h17.04c.63,2.94,1.14,5.38,1.73,8.16,6.84,0,13.63.04,20.42-.05.79,0,2.16-.55,2.28-1.07.93-4.11,3.98-3.61,7.01-3.68,3.19-.07,5.64.07,7.07,3.83.67,1.77,3.6,2.69,5.2,4.66,3.58,1.12,7.14,1.42,10.1-2.52,2.02-2.68,11.63-1.5,13.82,1.11,2.42,2.89,6.56,2.98,9.81.86,1.96-1.28,4.47-2.16,6.8-2.32,4.89-.32,9.83-.27,14.72.07,2.74.19,5.45,1.14,8.11,1.95,3.42,1.04,5,3.2,4.71,7.05-.11,1.46,1.65,3.07,2.59,4.6.67,1.1,1.95,2.16,1.96,3.25.1,6.32-.04,12.65-.25,18.97-.03.93-.73,2.54-1.33,2.65-3.92.69-3.33,3.55-3.33,6.2,0,9.65.09,19.3-.09,28.95-.03,1.63-1.26,3.22-1.84,4.86-.55,1.52-1.34,3.07-1.4,4.63-.25,6.39-1.78,7.96-8.31,7.98-2.38,0-4.78-.22-7.12.05-5.82.68-11.61,1.59-18.63,2.59,2.38,2.11,3.78,3.35,6.01,5.33-3.83,2.27-7.19,4.25-10.95,6.47q-.54,4.45,6.93,5.54c.5,3.61.99,7.09,1.47,10.57-.52-.16-1.04-.32-1.56-.48-1.23,2.36-2.91,4.6-3.59,7.11-.99,3.64-1.73,7.47-1.74,11.22-.01,7.48-5.85,11.86-9.05,17.56-1.93,3.44-10.3,1.37-12.24-2.44-.56-1.1-1.02-2.26-2.12-4.69-.36,4.21-.61,7.15-.86,10.1-16.94,0-33.39.05-49.84-.03-6.28-.03-6.28-.16-6.76,6.02-.84,10.89-7.9,17.19-18.51,15.33-12.75-2.23-25.29-5.68-38.02-8.05-12.15-2.26-23.42-6.26-33.49-13.52-1.07-.77-2.57-1.07-3.92-1.29-3.26-.52-4.55-2.92-6.56-5.22-6.65-7.6-5.83-17.21-7.78-26.08-.53-.03-1.06-.06-1.59-.09-.4,1.87-1.08,3.73-1.16,5.61-.18,4.68-.38,9.4,0,14.05.27,3.19,1.11,6.48,2.39,9.42,3.04,6.95,4.85,13.97,3.04,21.53-.29,1.21-.5,2.8-1.33,3.44-4.01,3.07-3.08,6.43-1.61,10.45,2.16,5.9,3.81,12.02,5.38,18.11,1.26,4.89-.47,8.96-5.14,10.94-6.82,2.89-13.92,5.09-20.76,7.95-3.05,1.27-6.02,3.14-8.35,5.42-.47.46-1.68,3.33-1.9,2.87-1.79-3.78-7.79.55-8.83-5.34-1.06-6.03-3.14-6.68-8.73-4.65-5.32,1.93-10.02,3.23-14.48-2.26-2.03-2.5-5.68-4.27-8.92-5.1-5.13-1.31-6.78-4.56-8.01-9.16-1.95-7.27-4.6-14.35-6.95-21.52-2.17.45-3.98.82-6.02,1.23-.56-1.34-1.07-2.46-1.49-3.61-3.43-9.35-6.89-18.7-10.23-28.08-1.05-2.95-1.45-6.16-2.67-9.03-1.24-2.91-.77-7.29-5.99-7.45-.92-.03-2.9-3.78-2.42-4.48,2.73-4.04-.9-6.37-2.03-9.27-1.52-3.92-6.33-7.92,1-11.06.47-.2.65-1.71.54-2.56-.65-4.81-1.43-9.61-2.16-14.41Zm-155.36,45.6c-.78-8.08-.78-15.2-2.34-21.98-1.13-4.9-1.82-9.48-.82-14.38,1.84-8.99,1.02-17.88-1.67-27.48-4.52,0-9.38-.04-14.24.02-2.67.03-3.73,1.37-3.88,4.16-.32,5.97-1.28,11.92-1.58,17.89-.57,11.19-1.09,22.4-1.06,33.6,0,2.23,2.29,6.08,4.03,6.4,6.46,1.18,13.13,1.19,21.56,1.77Zm49.57-46.47c2.15-1.81,3.87-3.4,5.72-4.8,10.08-7.62,22.68-8.08,34.09-11.95,4.72-1.6,9.25-3.72,14.26-5.77-1.43-2.99-2.49-5.2-3.61-7.54-4.38,1.02-8.35,2.09-12.37,2.84-14.1,2.6-28.24,5.1-41.31,11.35-2.42,1.16-5.63,3-6.13,5.09-.44,1.83,2.41,4.45,4.02,7.05,1.74-1.86,2.72-2.91,3.98-4.26.51,2.97.92,5.42,1.36,7.98Zm83.46,18.36c3.68-1.25,7.57-2.08,10.98-3.85,4.08-2.11,5.99-5.88,5.15-10.63-.73-4.16-3.63-6.55-7.49-6.62-4.59-.08-9.37.36-13.72,1.71-1.52.47-1.65,4.54-3.03,6.55-4.55,6.64,1.42,12.23,8.11,12.86Zm286.23-5.98c2.86,0,6.46.14,10.04-.03,5.17-.25,10.39-.37,15.44-1.31,1.75-.33,3.31-2.8,4.44-4.62.28-.45-1.26-2.91-2.28-3.16-6.71-1.63-11.16-6.02-15.2-11.21-.84-1.08-2.64-1.53-4.09-1.92-.37-.1-1.38,1.09-1.64,1.84-2.24,6.61-4.38,13.25-6.72,20.41Zm-27.34,19.85h46.63c.39,1.87.63,3.07.88,4.27.21-.01.42-.03.63-.04.6-3.77,1.2-7.54,1.91-12.04-9.95,0-19.31.71-28.5-.21-8.66-.86-14.69,3.96-21.55,8.03Zm-21.28-133.39h-58.81c.28,3.21.54,6.25.79,9.13h16.2c.23-2.84.44-5.45.65-8.11h23.24c0,2.06-.22,3.81.08,5.46.18,1,1.13,2.64,1.78,2.67,5.28.22,10.58.12,16.07.12v-9.28Zm-63.56,125.43q1.38,8.05,8.44,8.04c10.57-.02,21.13-.02,31.7-.06,1.55,0,3.1-.18,5.88-.35-5.73-3.01-9.98-6.87-14.57-7.31-10.27-1.01-20.71-.31-31.44-.31Zm17.78-12.53c-2.75-10.41-8.9-16.81-19.2-18.67-5.32,3.1-5.9,7.51-2.86,12.81.62,1.08.61,2.54,1.3,3.53.68.97,1.87,2.19,2.87,2.22,5.98.21,11.98.1,17.89.1Zm-158.28-16.89c-4.75,1-5.83,3.88-5.15,7.95.54,3.24.72,6.54,1.26,9.78.16.97.77,2.29,1.55,2.65,3.66,1.7,6.74-.34,8.74-2.83,1.19-1.48,1.45-4.79.62-6.58-1.81-3.88-4.6-7.31-7.02-10.98Zm149.47-7.83c2.66-9.22,5.18-18.14-4.21-24.95-.37-.27-.54-.9-.93-1.04-1.45-.54-2.95-.96-4.47-1.43,1.36,5.17,2.88,9.27,3.43,13.5.55,4.2.12,8.53.12,12.75,2.15.42,3.99.78,6.05,1.18Zm9.52-38.13c-8.75-5.65-37.11-7.51-40.83-2.98,7.39,4.25,18.61,5.1,40.83,2.98Zm-54.87,153.62c-2.61,4.24-4.41,9.59-8.13,12.51-3.9,3.07-9.64,3.81-14.58,5.57.08.49.15.97.23,1.46,1.1,0,2.27.26,3.28-.04,4.39-1.31,8.71-2.88,13.11-4.18,9.24-2.72,9.86-3.78,7.03-13.05-.27-.88-.71-1.72-.94-2.27ZM187.92,32.29c9.84-2.22,19.68-4.44,29.52-6.65-11.49-4.63-21.06-1.08-29.52,6.65Zm216.83,55.39c2.52-3.84,4.74-7.21,7.5-11.4-5.08,1.32-9.18,2.39-13.89,3.62,2.22,2.71,4.15,5.06,6.38,7.78Zm-33.93-36.29c6.1,3.06,24.46,3.82,29.88,1.58-10.34-.55-20.11-1.06-29.88-1.58Zm-22.55,81.66l1.75-.53c-.46-2.55-.05-6.21-1.58-7.43-3.18-2.54-7.39-3.79-11.45-5.69,3.88,4.7,7.58,9.17,11.28,13.65Zm5.25,64.34v-10.22c-5.36,3.62-1.5,6.83,0,10.22Z"/>
      <path class="cls-2" d="m83.63,166.54c-8.44-.58-15.11-.59-21.56-1.77-1.74-.32-4.02-4.16-4.03-6.4-.03-11.2.49-22.41,1.06-33.6.3-5.97,1.26-11.92,1.58-17.89.15-2.79,1.21-4.13,3.88-4.16,4.86-.06,9.72-.02,14.24-.02,2.68,9.6,3.51,18.49,1.67,27.48-1,4.9-.31,9.48.82,14.38,1.56,6.77,1.56,13.9,2.34,21.98Z"/>
      <path class="cls-2" d="m133.2,120.06c-.44-2.56-.85-5.01-1.36-7.98-1.26,1.35-2.23,2.39-3.98,4.26-1.61-2.61-4.46-5.22-4.02-7.05.5-2.09,3.71-3.93,6.13-5.09,13.07-6.25,27.21-8.75,41.31-11.35,4.02-.74,7.99-1.82,12.37-2.84,1.12,2.34,2.18,4.56,3.61,7.54-5,2.04-9.54,4.17-14.26,5.77-11.4,3.87-24.01,4.33-34.09,11.95-1.85,1.4-3.57,2.99-5.72,4.8Z"/>
      <path class="cls-2" d="m216.66,138.42c-6.69-.63-12.66-6.22-8.11-12.86,1.38-2.01,1.51-6.07,3.03-6.55,4.35-1.35,9.13-1.79,13.72-1.71,3.86.07,6.76,2.47,7.49,6.62.84,4.75-1.08,8.52-5.15,10.63-3.41,1.77-7.3,2.6-10.98,3.85Z"/>
      <path class="cls-2" d="m502.9,132.45c2.34-7.16,4.48-13.8,6.72-20.41.26-.75,1.26-1.94,1.64-1.84,1.45.38,3.25.84,4.09,1.92,4.04,5.19,8.49,9.58,15.2,11.21,1.02.25,2.56,2.71,2.28,3.16-1.13,1.82-2.68,4.29-4.44,4.62-5.05.94-10.28,1.06-15.44,1.31-3.58.17-7.18.03-10.04.03Z"/>
      <path class="cls-2" d="m475.56,152.29c6.86-4.06,12.89-8.89,21.55-8.03,9.2.91,18.56.21,28.5.21-.72,4.51-1.32,8.28-1.91,12.04-.21.01-.42.03-.63.04-.25-1.2-.49-2.39-.88-4.27h-46.63Z"/>
      <path class="cls-2" d="m454.28,18.9v9.28c-5.49,0-10.78.1-16.07-.12-.66-.03-1.6-1.66-1.78-2.67-.3-1.65-.08-3.4-.08-5.46h-23.24c-.21,2.66-.42,5.26-.65,8.11h-16.2c-.25-2.88-.51-5.92-.79-9.13h58.81Z"/>
      <path class="cls-2" d="m390.72,144.33c10.72,0,21.16-.69,31.44.31,4.59.45,8.84,4.31,14.57,7.31-2.78.17-4.33.34-5.88.35-10.57.04-21.13.05-31.7.06q-7.05.01-8.44-8.04Z"/>
      <path class="cls-2" d="m408.49,131.8c-5.92,0-11.91.1-17.89-.1-1-.03-2.19-1.25-2.87-2.22-.69-.99-.69-2.45-1.3-3.53-3.03-5.3-2.46-9.71,2.86-12.81,10.3,1.86,16.45,8.26,19.2,18.67Z"/>
      <path class="cls-2" d="m250.21,114.9c2.42,3.67,5.21,7.1,7.02,10.98.83,1.78.57,5.1-.62,6.58-2.01,2.49-5.09,4.53-8.74,2.83-.78-.36-1.39-1.68-1.55-2.65-.54-3.24-.72-6.54-1.26-9.78-.68-4.08.4-6.95,5.15-7.95Z"/>
      <path class="cls-2" d="m399.69,107.08c-2.06-.4-3.9-.76-6.05-1.18,0-4.21.43-8.54-.12-12.75-.55-4.23-2.07-8.33-3.43-13.5,1.52.47,3.02.89,4.47,1.43.38.14.56.77.93,1.04,9.39,6.82,6.87,15.73,4.21,24.95Z"/>
      <path class="cls-2" d="m409.2,68.95c-22.22,2.12-33.44,1.28-40.83-2.98,3.72-4.53,32.08-2.68,40.83,2.98Z"/>
      <path class="cls-2" d="m354.33,222.57c.23.56.67,1.39.94,2.27,2.82,9.27,2.21,10.32-7.03,13.05-4.4,1.3-8.72,2.87-13.11,4.18-1.01.3-2.18.04-3.28.04-.08-.49-.15-.97-.23-1.46,4.94-1.76,10.67-2.5,14.58-5.57,3.71-2.92,5.51-8.27,8.13-12.51Z"/>
      <path class="cls-2" d="m187.92,32.29c8.47-7.73,18.04-11.28,29.52-6.65-9.84,2.22-19.68,4.44-29.52,6.65Z"/>
      <path class="cls-2" d="m404.75,87.68c-2.23-2.72-4.16-5.07-6.38-7.78,4.71-1.23,8.81-2.3,13.89-3.62-2.76,4.19-4.98,7.57-7.5,11.4Z"/>
      <path class="cls-2" d="m370.82,51.39c9.77.52,19.54,1.03,29.88,1.58-5.42,2.24-23.78,1.49-29.88-1.58Z"/>
      <path class="cls-2" d="m348.27,133.05c-3.7-4.48-7.4-8.96-11.28-13.65,4.06,1.9,8.27,3.15,11.45,5.69,1.53,1.22,1.11,4.88,1.58,7.43l-1.75.53Z"/>
      <path class="cls-2" d="m353.52,197.39c-1.5-3.39-5.36-6.6,0-10.22v10.22Z"/>
    </g>
  </g>
</svg>