<svg id="Layer_1" data-name="Layer 1" xmlns="http://www.w3.org/2000/svg" viewBox="0 0 597.21 160.5">
  <g id="zZ4HJY.tif">
    <g>
      <path class="cls-1" d="m222.89,44.89c3.86-.54,7.37-.65,10.66-1.58,4.76-1.35,6.04,2.28,8.27,5.61,3.76-5.79,9.09-4.51,14.56-3.96.15.94.42,1.95.46,2.97.21,5.44,3.51,9.36,8.97,9.51,12.84.34,25.69.27,38.53.44,6.19.08,12.39.44,18.58.47,4.63.02,9.27-.17,13.89-.49,3.99-.28,4.56-.05,6.15,4.35,1.96,0,4.09,0,6.23,0,1.24,0,2.69-.39,3.69.1,7.17,3.53,14.6.46,21.89,1,61.6,4.51,123.35,1.68,185.02,3.27,9.8.25,19.63-1.02,29.45-1.54,1.51-.08,3.03.12,4.86.21v13.49c-7.26,0-14.36.12-21.44-.03-7.1-.15-14.19-.69-21.29-.82-7.14-.13-14.28.02-21.43.06-7.14.03-14.29.05-21.43.1-7.14.05-14.28.12-21.43.19-6.99.07-13.97.16-20.96.22-7.14.07-14.28.13-21.43.18-7.14.04-14.29.06-21.43.09-7.14.02-14.29.04-21.43.06-6.82.03-13.66-.02-20.48.08,0,.65,0,1.29,0,1.94,1.31.43,2.63.86,4.26,1.39-.4.68-.63,1.52-.98,1.58-2.1.35-4.83-.52-4.62,3.27.19,3.5.23,7.14,4.24,8.42,3.06.98,6.35,1.29,9.55,1.82,1.98.33,4.04.33,5.97.82,6.03,1.54,9.27,8.23,6.36,13.76-.79,1.51-3.3,3-5.03,3.02-20.65.21-41.3.16-61.95.11-3.4,0-6.07-1.3-6.54-5.1-.77-6.21,1.52-10.53,6.61-11.62,4.23-.91,8.61-1.09,12.89-1.78,5.66-.92,7.57-3.13,7.42-8.71-.04-1.34-.62-3.42-1.54-3.8-1.14-.49-2.88.42-4.56.77-2.82-4.06-8.52-4.05-11.82.09-.8,1-2.94,1.29-4.47,1.3-7.54.05-15.08-.13-22.63-.17-7.23-.04-14.47,0-22.2,0,0,8.73,0,16.88,0,25.03,0,6.65-.09,13.3.03,19.95.07,3.67-1.28,5.53-5.19,5.27-2.63-.17-5.3-.27-7.91.02-3.21.36-6.36,1.48-9.57,1.67-2.69.16-5.45-.43-8.14-.92-1.88-.35-3.68-1.1-6.59-2.01,0,6.7-.14,12.52.05,18.34.12,3.79-1.36,5.2-5.19,5.18-21.43-.11-42.86-.04-64.28-.07-3.58,0-7.31-4.03-8-7.91-2.49-14.07-.65-28.18-.58-42.28.01-2.28,0-4.57,0-7.14-6.8.65-13.51.12-19.29,2.19-5.35,1.91-9.79,6.49-14.42,10.16-.61.48-.12,2.54.09,3.82.32,1.88.86,3.73,1.3,5.59-.52.19-1.03.37-1.55.56-1.55-3.6-3.1-7.2-4.94-11.48-1.31,0-3.63.07-5.93-.01-5.64-.19-6.74-2.25-3.72-7.68-4.52.31-8.67-.93-12.64,2.72-3.46,3.19-7.47.96-8.38-3.78-1.25-6.53-3.85-8.66-9.58-8.41-11,.49-22.04.14-33.07.14-1.24,0-2.58-.26-3.71.11-4.51,1.49-8.61,2.36-9.06-4.34-.75.26-1.28.38-1.28.46.29,4.5-1.12,6.56-5.82,4.18-.37-.19-.99-.19-1.37,0-5.65,2.62-6.62.2-5.72-4.92.15-.88-1.39-2.67-2.51-3.07-8.31-2.97-16.64-5.89-25.09-8.45-9.26-2.81-11.43-7.26-7.01-15.9,1.4-2.73,3.34-5.18,5.02-7.73-4.18-4.8-3.45-6.83,2.69-9.51,1.58-.69,3.26-2.54,3.71-4.18,2.88-10.5,9.22-18.74,16.41-26.57,1.67-1.82,2.4-4.47,3.68-6.68,1.03-1.78,2.24-3.47,3.49-5.39,3.34,2.01,6.19,3.86,9.17,5.46,3.71,1.99,2.35,4.36.72,6.79-2.35,3.5-5.29,6.72-6.99,10.5-3.6,8-7.95,15.34-14.49,21.31-2.47,2.25-3.94,4.73-3.52,8.52.33,3.04-1.03,5.29-5.38,5.31-1.82,0-3.84,4.02-5.25,6.51-.27.47,1.69,2.75,3.02,3.42,2.28,1.15,4.88,1.69,7.39,2.51,1.03-7.22,1.03-7.05,8.43-7.31,3.58-.12,7.12-1.2,10.71-1.51,3.18-.27,6.41-.06,10.19-.06,1.39-2.79.48-4.73-3.26-5.71-2.74-.72-5.38-1.83-8.07-2.77.12-.41.24-.81.36-1.22,3.59.86,7.19,1.71,10.78,2.57,2.12-4.07-1.11-4.2-5-4.96,2.68-.78,3.87-1.12,5.8-1.68-1.9-.4-3.09-.65-5.6-1.18,6.13-.82,10.9-1.95,15.68-2.01,16.46-.23,32.92-.26,49.38-.04,15.43.2,30.85.91,46.27,1.18,3.32.06,6.65-1.03,9.99-1.13,2.53-.08,5.08.56,7.93.92.33-1.09.72-2.33,1.31-4.26.87,1.58,1.48,2.7,2.68,4.9.39-8.61.72-16.06,1.06-23.51.06-1.39-.05-2.81.21-4.16.63-3.36,2.81-5.19,6.22-4.97,3.32.21,4.92,2.36,4.94,5.61.03,6.18.11,12.37-.06,18.55-.08,2.94.77,4.26,3.93,4.04,3.38-.23,6.79-.05,10.77-.05-.39-5.42.85-8.5,7.37-8.7,6.84-.21,7.48,3.6,7.92,9.13Zm138.83,39.15c-.11,1.01-.24,1.76-.28,2.51-.38,8.42-2.42,10.65-11,11.89-2.6.38-5.23.57-7.84.93-7.58,1.05-9.8,4.92-7.21,11.89h69.52c.79-9.46-.65-11.2-9.48-11.98-1.54-.14-3.1-.14-4.64-.34-9.8-1.24-11.68-3.16-12.82-12.98-.07-.58-.28-1.15-.47-1.94h-15.79Zm-76.26,26.62c.47.02.94.04,1.41.06.95-3.19,2.24-6.34,2.64-9.59.11-.94-2.35-3.06-3.62-3.04-1.15.01-3.35,2.34-3.2,3.39.43,3.13,1.78,6.14,2.77,9.19Z"/>
    </g>
  </g>
</svg>