<?xml version="1.0" encoding="UTF-8"?>
<svg id="Layer_1" data-name="Layer 1" xmlns="http://www.w3.org/2000/svg" viewBox="0 0 594 331.82">
  <defs>
    <style>
      .cls-1, .cls-2 {
        stroke-width: 0px;
      }

      .cls-2 {
        fill: #fff;
      }
    </style>
  </defs>
  <g id="_5M2ydU.tif" data-name="5M2ydU.tif">
    <g>
      <path class="cls-2" d="m594,331.82H0V0h594v331.82ZM29.62,122.36c17.2.43,33.7,1.02,50.2,1.16,5.64.05,10.22,1.91,13.14,6.34,4.84,7.35,9.13,15.07,13.45,22.75,1.11,1.98,2.01,4.38,2.05,6.61.1,5.09,2.39,8.52,6.32,11.54,47.63,36.67,95.19,73.43,142.77,110.16,19.68,15.19,39.31,30.45,59.09,45.51,1.8,1.37,4.67,2.36,6.78,2,1.7-.29,3.8-2.7,4.23-4.51.32-1.36-1.39-3.73-2.82-4.87-8.07-6.43-16.33-12.63-24.89-19.19,1.2-1.35,1.96-2.21,2.82-3.18,8.12,7.02,15.72,13.58,23.32,20.15,3.34,2.88,6.93,3.71,10.6.8,5.56-4.41,11.35-8.63,16.38-13.59,5.19-5.12,9.58-11.03,14.46-16.76,1.27.57,2.6,1.16,4.03,1.79.89-1.06,1.63-1.98,2.41-2.87.86-.99,1.74-1.95,2.58-2.89q8.79,5.57,12.93,3.16c-2.45-2.8-4.84-5.52-7.26-8.3,3.21-4.43,6.27-8.67,9.38-12.97-1.45-1.38-2.64-2.51-3.74-3.55,5.2-7.77,10.32-15.17,15.16-22.75,4.15-6.5,2.53-14.09-3.55-18.48-23.05-16.64-46.08-33.32-69.17-49.92-2.72-1.95-4.32-3.36-1.4-6.72,12.59-14.55,24.9-29.33,37.45-43.92,1.05-1.22,3.08-2.24,4.66-2.25,9.37-.07,18.74.13,28.11.38,3.17.08,7.85-.63,9.16,1.08,2.61,3.39,5.52,2.43,8.19,2.21,8.48-.69,16.9-2.28,25.38-2.8,11.18-.69,22.4-.84,33.61-.94,16.02-.15,32.03,0,48.05-.08,1.81,0,4.56.06,5.26-.99,2.54-3.83,6.12-3.01,9.59-3.02,5.11,0,10.25.4,15.32,0,2.48-.2,5.69-1.16,7.12-2.94,10.03-12.46,19.73-25.19,29.33-37.98.82-1.09.11-3.32.11-5.03-.56-.03-1.12-.06-1.69-.1-9,12.16-17.97,24.34-27.04,36.44-1.05,1.41-2.6,3.38-3.99,3.44-7.54.34-15.09.16-23.02.16.96-2.4,1.54-3.84,2.34-5.82-2.35,0-4.03,0-5.71,0-22.66.11-45.32.15-67.98.39-3.85.04-5.61-.93-5.49-5.11.18-6.12-.28-12.25-.21-18.38.02-1.91.85-3.81,1.66-7.13,6.31,9.08,14.45,11.63,22.91,10.69,21.13-2.34,42.18-5.51,63.21-8.68,6.34-.96,7.76-3.41,7.64-9.8-.04-2.38-.3-4.78-.15-7.15.34-5.33-2.25-7.57-7.36-8.29-19.04-2.7-38.05-5.58-57.05-8.55-4.94-.77-9.61-1.45-14.34,1.17-3.93,2.17-8.22,3.68-12.36,5.47-.89.38-1.8.97-2.71.98-14.22.18-28.45.31-42.67.4-8.8.05-17.61,0-26.5,0-.12-1.76-.3-2.61-.21-3.43.6-5.34-.45-9.06-7.12-8.7-3.31.18-6.72-.36-9.99-1.04-1.87-.39-4.86-1.54-5.01-2.67-.27-1.99.66-5.06,2.18-6.09,1.26-.86,4.17.32,6.16,1.08,1.33.51,2.33,1.9,3.84,3.21,1.57-9.12,1.19-9.62-6.53-9.63-3.96,0-7.92,0-12.08,0,0,1.83.03,3.69,0,5.55-.06,3.06.51,6.34-.42,9.11-1.33,3.97-3.76,7.57-6.39,12.61-6.07,0-13.88.04-21.7,0-12.48-.08-9.35,2.24-14.46-9.37-4.27-9.7-9.91-18.46-22.84-17.49-4.05.3-8.17-.38-12.25-.36-2.68.02-4.1-1.04-3.33-3.61,1.97-6.56-1.77-8.77-7.04-10.92-5.11-2.09-9.42-1.72-14.63-.05-6.89,2.2-6.88,6.76-6.49,12.15.02.29-.23.6-.54,1.34-1.94-.09-4.02-.2-6.48-.32,0-2.72-.04-4.9.01-7.09.07-2.7-.93-3.86-3.9-3.9-10.19-.14-20.37-.8-30.56-.86-14.65-.09-29.31.03-43.95.42-2.33.06-5.21,1.49-6.82,3.22-9.51,10.22-18.72,20.72-28.04,31.12-2.9,3.24-5.32,7.26-10.85,5.95-.82-.2-2.05.94-2.98,1.62-8.82,6.39-17.52,12.97-26.5,19.14-2.37,1.63-5.52,2.75-8.38,2.9-11.4.6-22.82.77-34.23,1-5.39.11-10.79.02-16.15.02v-32.75c2.82-2.38,5.1-3.87,6.81-5.85,2.18-2.52-.21-3.85-1.64-5.84-2.02-2.83.53-3.41,2.98-3.91,1.43-.29,2.66-1.64,3.97-2.51-1.45-.7-2.84-1.74-4.38-2.05-4.37-.88-8.8-1.5-13.21-2.15-.99-.14-2.06-.18-3.02.05q-11.02,2.66-11.01,14.41c0,1.36,0,2.72,0,4.09,0,12.07,0,24.14,0,36.13-3.05.45-5.14.49-7.03,1.11-2.64.87-2.95,4-1.14,4.64,3.65,1.3,2.69,3.76,2.72,6.05.06,4.94.16,9.89-.2,14.8-.18,2.45-1.33,4.82-2.04,7.23-.47-.07-.95-.15-1.42-.22.34.94.6,2.67,1.02,2.72,8,.76,16.02,1.32,24.04,1.93.38,3.92.74,7.62,1.16,11.95Z"/>
      <path class="cls-1" d="m29.62,122.36c-.42-4.32-.78-8.03-1.16-11.95-8.02-.6-16.04-1.16-24.04-1.93-.42-.04-.68-1.77-1.02-2.72.47.07.95.15,1.42.22.71-2.41,1.86-4.79,2.04-7.23.36-4.91.26-9.87.2-14.8-.03-2.29.93-4.75-2.72-6.05-1.81-.64-1.5-3.77,1.14-4.64,1.9-.63,3.99-.66,7.03-1.11,0-11.99,0-24.06,0-36.13,0-1.36,0-2.72,0-4.09q0-11.73,11.01-14.41c.96-.23,2.03-.2,3.02-.05,4.42.65,8.84,1.26,13.21,2.15,1.53.31,2.92,1.34,4.38,2.05-1.32.87-2.54,2.21-3.97,2.51-2.45.5-5,1.08-2.98,3.91,1.42,1.99,3.81,3.32,1.64,5.84-1.71,1.98-3.99,3.47-6.81,5.85v32.75c5.36,0,10.76.09,16.15-.02,11.41-.24,22.83-.4,34.23-1,2.86-.15,6.02-1.27,8.38-2.9,8.97-6.17,17.67-12.74,26.5-19.14.93-.67,2.16-1.81,2.98-1.62,5.53,1.32,7.95-2.71,10.85-5.95,9.32-10.4,18.53-20.9,28.04-31.12,1.61-1.73,4.49-3.16,6.82-3.22,14.65-.39,29.3-.51,43.95-.42,10.19.06,20.37.72,30.56.86,2.96.04,3.96,1.2,3.9,3.9-.05,2.18-.01,4.37-.01,7.09,2.46.12,4.54.22,6.48.32.31-.73.56-1.04.54-1.34-.39-5.4-.4-9.96,6.49-12.15,5.21-1.66,9.52-2.04,14.63.05,5.27,2.16,9.01,4.36,7.04,10.92-.77,2.57.65,3.63,3.33,3.61,4.08-.02,8.2.66,12.25.36,12.93-.97,18.57,7.79,22.84,17.49,5.11,11.61,1.98,9.29,14.46,9.37,7.82.05,15.63,0,21.7,0,2.63-5.04,5.07-8.64,6.39-12.61.93-2.78.36-6.06.42-9.11.04-1.86,0-3.73,0-5.55,4.16,0,8.12,0,12.08,0,7.72,0,8.1.51,6.53,9.63-1.52-1.31-2.51-2.69-3.84-3.21-1.99-.77-4.9-1.94-6.16-1.08-1.51,1.03-2.45,4.1-2.18,6.09.15,1.13,3.14,2.28,5.01,2.67,3.27.68,6.68,1.21,9.99,1.04,6.67-.35,7.72,3.36,7.12,8.7-.09.82.09,1.67.21,3.43,8.89,0,17.69.04,26.5,0,14.22-.09,28.45-.22,42.67-.4.91-.01,1.82-.6,2.71-.98,4.14-1.79,8.43-3.3,12.36-5.47,4.73-2.61,9.4-1.94,14.34-1.17,19,2.98,38.01,5.85,57.05,8.55,5.11.73,7.7,2.97,7.36,8.29-.15,2.37.1,4.76.15,7.15.12,6.39-1.3,8.84-7.64,9.8-21.03,3.17-42.08,6.34-63.21,8.68-8.46.94-16.6-1.61-22.91-10.69-.8,3.33-1.63,5.22-1.66,7.13-.07,6.12.39,12.26.21,18.38-.12,4.18,1.64,5.15,5.49,5.11,22.66-.24,45.32-.29,67.98-.39,1.68,0,3.36,0,5.71,0-.8,1.99-1.37,3.42-2.34,5.82,7.92,0,15.48.18,23.02-.16,1.39-.06,2.94-2.03,3.99-3.44,9.07-12.11,18.04-24.29,27.04-36.44.56.03,1.12.06,1.69.1,0,1.7.71,3.94-.11,5.03-9.6,12.8-19.31,25.52-29.33,37.98-1.43,1.78-4.64,2.74-7.12,2.94-5.07.41-10.21,0-15.32,0-3.47,0-7.05-.81-9.59,3.02-.69,1.04-3.45.98-5.26.99-16.02.07-32.04-.07-48.05.08-11.21.1-22.43.26-33.61.94-8.48.52-16.9,2.11-25.38,2.8-2.67.22-5.58,1.18-8.19-2.21-1.31-1.71-5.99-1-9.16-1.08-9.37-.24-18.74-.44-28.11-.38-1.58.01-3.61,1.03-4.66,2.25-12.55,14.59-24.86,29.37-37.45,43.92-2.92,3.37-1.32,4.77,1.4,6.72,23.09,16.59,46.12,33.27,69.17,49.92,6.08,4.39,7.7,11.98,3.55,18.48-4.84,7.58-9.96,14.98-15.16,22.75,1.1,1.04,2.29,2.17,3.74,3.55-3.11,4.3-6.18,8.54-9.38,12.97,2.43,2.77,4.81,5.5,7.26,8.3q-4.14,2.41-12.93-3.16c-.83.93-1.72,1.9-2.58,2.89-.77.89-1.52,1.81-2.41,2.87-1.43-.64-2.76-1.23-4.03-1.79-4.88,5.73-9.28,11.64-14.46,16.76-5.03,4.97-10.82,9.18-16.38,13.59-3.67,2.91-7.26,2.09-10.6-.8-7.6-6.56-15.2-13.13-23.32-20.15-.86.97-1.62,1.83-2.82,3.18,8.56,6.56,16.82,12.76,24.89,19.19,1.43,1.14,3.14,3.51,2.82,4.87-.43,1.82-2.53,4.22-4.23,4.51-2.11.36-4.98-.63-6.78-2-19.78-15.06-39.41-30.31-59.09-45.51-47.58-36.74-95.14-73.49-142.77-110.16-3.92-3.02-6.21-6.45-6.32-11.54-.04-2.23-.94-4.62-2.05-6.61-4.32-7.68-8.61-15.4-13.45-22.75-2.92-4.43-7.5-6.29-13.14-6.34-16.5-.14-33-.73-50.2-1.16Zm146.42,82.52c5.49-7.6,1.27-11.91-4.67-15.74-1.7-1.1-3.11-2.66-4.78-3.81-3.99-2.75-6.66-5.72-3.88-10.99.66-1.26.1-3.33-.29-4.94-2.5-10.16-7.42-19.2-13.41-27.67-5.29-7.48-11.29-13.9-21.81-12.09-.48.08-1.04-.02-1.51-.19-3.48-1.26-4.57.13-4.5,3.58.17,9.01-.02,18.03.32,27.03.07,1.86,1.33,4.24,2.81,5.38,17.21,13.3,34.56,26.4,51.72,39.44Zm.1-148.04c-.74-2.76-1.32-4.95-1.9-7.15-1.93,1.55-2.28,3.47-3.41,4.68-1.71,1.84-4.28,4.79-5.9,4.45-4.31-.91-6.83,1.53-10.11,2.98-1.9.84-5.01.39-6.86-.69-1.07-.63-1.06-3.72-.88-5.63.19-1.98,1.14-3.89,1.84-5.8,2.04-5.55,4.12-11.09,6.7-18.05-11.93,12.82-22.85,24.49-33.64,36.26-.92,1-1.45,2.69-1.5,4.09-.24,6.97-.43,13.94-.2,20.9.05,1.52,1.68,3.96,3,4.28,4.37,1.05,8.94,1.27,13.42,1.9,3.05.43,4.58-.96,5.76-3.7,1.86-4.34,3.73-8.79,6.37-12.66,7.16-10.49,15.93-19.44,27.31-25.87Zm214.19,16.69c1.36,10.52.33,20.52-9.96,27.23,2.26.63,3.9.88,5.52.78,8.91-.57,17.81-1.59,26.73-1.76,7.97-.15,15.97.44,23.94,1.06,2.8.22,4.17-.08,4.13-3.21-.1-7.94-.03-15.88-.03-24.09h-50.32Zm-331.24,6.57c0,5.6.21,10.85-.07,16.08-.2,3.74.96,5.09,4.83,5.03,10.19-.17,20.39.26,30.57-.02,3.99-.11,7.99-1.34,11.89-2.38.94-.25,2.13-1.77,2.17-2.76.22-5.19.1-10.39.1-15.94h-49.49Zm243.34-33.82c-2.33-7.69-6.5-10.32-13.82-9.98-14.22.66-28.49.32-42.74.39-1.8,0-3.6,0-5.65,0v9.59h62.21Zm16.03,84.11h-41.43c-.11.38-.23.76-.34,1.14,8.38,6.35,16.76,12.71,25.34,19.22,5.71-7.08,10.98-13.61,16.43-20.36Zm-27.32-41.02c-1.9,4.19-3.53,7.79-5.21,11.51h44.27c-2.59-3.57-4.79-6.76-7.19-9.79-.65-.82-1.9-1.63-2.88-1.64-9.84-.12-19.69-.07-28.98-.07Zm-98.76-51.4v10.79c10.61-.87,20.93-1.72,31.3-2.57v-8.22h-31.3Zm301.03,14.15l-1.31,1.37c1.21,1.88,2.34,5.32,3.65,5.38,9.21.47,18.45.25,27.68.25.27-.59.55-1.18.82-1.76-1.36-1.16-2.64-3.18-4.1-3.33-8.89-.88-17.82-1.33-26.74-1.92Zm-318.42-7.08c1.09-4.75,2.39-8.02-.2-12-1.26-1.95-.15-5.62.34-8.43.21-1.2,1.57-2.19,2.6-3.51-6.43-1.13-11.72-.74-15.3,5.11,3.4,2.41,8.89,3.67,7.83,9.24-.83,4.4,1.75,6.31,4.72,9.6Zm101.79,239.08l1.33-1.43c-17.86-13.34-35.72-26.68-53.58-40.02-.28.36-.56.73-.84,1.09,17.69,13.45,35.39,26.9,53.08,40.35Zm246.18-211.37c-9.92-2.04-28.54.87-30.23,4.31,10.37-1.48,20.3-2.89,30.23-4.31ZM87.7,110.39c-2.14,2.61-4.76,4.77-4.4,5.56.97,2.09,3.22,3.59,4.97,5.33,1.47-1.6,4.14-3.23,4.1-4.8-.04-1.76-2.52-3.47-4.67-6.09Zm-38.23,5.98c-2.2-1.41-3.59-3-4.75-2.85-1.16.15-2.1,2.04-3.14,3.16,1.17.93,2.3,2.53,3.51,2.6,1.15.06,2.38-1.49,4.38-2.91Zm297.57-20.95c1.71-1.58,3.11-2.88,5.38-4.97h-9.17c1.28,1.68,2.27,2.97,3.8,4.97Z"/>
      <path class="cls-2" d="m176.04,204.87c-17.16-13.04-34.52-26.14-51.72-39.44-1.48-1.14-2.74-3.53-2.81-5.38-.33-9-.15-18.02-.32-27.03-.07-3.45,1.03-4.84,4.5-3.58.47.17,1.03.27,1.51.19,10.52-1.81,16.51,4.61,21.81,12.09,5.99,8.47,10.91,17.51,13.41,27.67.39,1.6.95,3.68.29,4.94-2.78,5.28-.11,8.25,3.88,10.99,1.68,1.15,3.08,2.71,4.78,3.81,5.93,3.83,10.16,8.15,4.67,15.74Z"/>
      <path class="cls-2" d="m176.14,56.83c-11.38,6.43-20.16,15.38-27.31,25.87-2.64,3.87-4.51,8.32-6.37,12.66-1.18,2.74-2.71,4.12-5.76,3.7-4.48-.63-9.04-.86-13.42-1.9-1.31-.31-2.95-2.76-3-4.28-.23-6.96-.04-13.94.2-20.9.05-1.39.58-3.09,1.5-4.09,10.8-11.77,21.71-23.44,33.64-36.26-2.59,6.95-4.67,12.49-6.7,18.05-.7,1.91-1.65,3.83-1.84,5.8-.18,1.92-.19,5.01.88,5.63,1.85,1.09,4.96,1.53,6.86.69,3.28-1.45,5.8-3.89,10.11-2.98,1.61.34,4.19-2.61,5.9-4.45,1.12-1.21,1.48-3.13,3.41-4.68.58,2.19,1.17,4.38,1.9,7.15Z"/>
      <path class="cls-2" d="m390.33,73.52h50.32c0,8.21-.07,16.15.03,24.09.04,3.13-1.33,3.43-4.13,3.21-7.96-.62-15.96-1.21-23.94-1.06-8.92.17-17.82,1.18-26.73,1.76-1.62.1-3.26-.15-5.52-.78,10.3-6.71,11.33-16.71,9.96-27.23Z"/>
      <path class="cls-2" d="m59.09,80.09h49.49c0,5.55.11,10.75-.1,15.94-.04.98-1.23,2.51-2.17,2.76-3.91,1.04-7.9,2.27-11.89,2.38-10.18.28-20.38-.15-30.57.02-3.87.07-5.04-1.29-4.83-5.03.28-5.23.07-10.48.07-16.08Z"/>
      <path class="cls-2" d="m302.42,46.27h-62.21v-9.59c2.05,0,3.85,0,5.65,0,14.25-.07,28.52.27,42.74-.39,7.32-.34,11.49,2.29,13.82,9.98Z"/>
      <path class="cls-2" d="m318.46,130.38c-5.45,6.76-10.72,13.28-16.43,20.36-8.58-6.51-16.96-12.86-25.34-19.22.11-.38.23-.76.34-1.14h41.43Z"/>
      <path class="cls-2" d="m291.13,89.35c9.3,0,19.14-.05,28.98.07.98.01,2.24.82,2.88,1.64,2.4,3.03,4.6,6.22,7.19,9.79h-44.27c1.68-3.72,3.31-7.32,5.21-11.51Z"/>
      <path class="cls-2" d="m192.37,37.96h31.3v8.22c-10.37.85-20.69,1.7-31.3,2.57v-10.79Z"/>
      <path class="cls-2" d="m493.41,52.11c8.92.59,17.85,1.04,26.74,1.92,1.46.14,2.74,2.17,4.1,3.33-.27.59-.55,1.18-.82,1.76-9.23,0-18.48.22-27.68-.25-1.3-.07-2.43-3.51-3.65-5.38l1.31-1.37Z"/>
      <path class="cls-2" d="m174.98,45.03c-2.97-3.29-5.56-5.19-4.72-9.6,1.06-5.56-4.43-6.82-7.83-9.24,3.58-5.85,8.87-6.24,15.3-5.11-1.02,1.32-2.39,2.32-2.6,3.51-.49,2.81-1.61,6.48-.34,8.43,2.59,3.98,1.28,7.25.2,12Z"/>
      <path class="cls-2" d="m276.77,284.11c-17.69-13.45-35.39-26.9-53.08-40.35.28-.36.56-.73.84-1.09,17.86,13.34,35.72,26.68,53.58,40.02l-1.33,1.43Z"/>
      <path class="cls-2" d="m522.95,72.74c-9.93,1.41-19.85,2.83-30.23,4.31,1.69-3.44,20.3-6.34,30.23-4.31Z"/>
      <path class="cls-2" d="m87.7,110.39c2.15,2.62,4.63,4.33,4.67,6.09.04,1.57-2.63,3.2-4.1,4.8-1.74-1.74-4-3.23-4.97-5.33-.36-.79,2.26-2.95,4.4-5.56Z"/>
      <path class="cls-2" d="m49.47,116.37c-2,1.42-3.24,2.97-4.38,2.91-1.21-.07-2.35-1.67-3.51-2.6,1.04-1.13,1.98-3.01,3.14-3.16,1.16-.15,2.55,1.44,4.75,2.85Z"/>
      <path class="cls-2" d="m347.04,95.42c-1.53-2-2.52-3.29-3.8-4.97h9.17c-2.26,2.09-3.67,3.39-5.38,4.97Z"/>
    </g>
  </g>
</svg>