<?xml version="1.0" encoding="UTF-8"?>
<svg id="Layer_1" data-name="Layer 1" xmlns="http://www.w3.org/2000/svg" viewBox="0 0 610 232">
  <defs>
    <style>
      .cls-1, .cls-2 {
        stroke-width: 0px;
      }

      .cls-2 {
        fill: #fff;
      }
    </style>
  </defs>
  <g id="_5E3RR2.tif" data-name="5E3RR2.tif">
    <g>
      <path class="cls-2" d="m0,232C0,154.67,0,77.33,0,0c203.33,0,406.67,0,610,0,0,77.33,0,154.67,0,232-203.33,0-406.67,0-610,0ZM569.27,3.48q-1.25,10.43-11.92,10.43c-23.74,0-47.49,0-71.24,0-27.24,0-54.48,0-81.73,0-25.75,0-51.49,0-77.24,0-17.17,0-34.33.03-51.5-.03-2.95-.01-5.9-.63-8.85-.65-7.45-.05-14.92.43-22.35.04-8.38-.44-16.72-1.62-25.09-2.42-2.89-.28-4.24.98-4.14,4.04.15,4.97.19,9.96-.03,14.93-.15,3.34,1.4,4.46,4.41,4.46,3.5,0,7.13-.54,10.45.24,2.24.53,5.31,2.64,5.76,4.56.9,3.9.27,8.14.27,12.01-.79.37-1.08.62-1.37.62-5.83.06-11.88,1.11-17.44-.1-8.96-1.95-14.38,4.61-21.43,7.13-.62.22-1.13,1.2-1.39,1.93-2.16,6.1-4.25,12.22-6.36,18.34h-7.33c0-6.15.06-12.06-.02-17.98-.07-5.64-.29-11.28-.46-17.78,6.27-1.57,14.15-3.44,21.97-5.56,1.68-.45,3.13-1.76,4.68-2.67-1.73-.27-3.58-1.07-5.16-.71-8.1,1.86-16.09,4.2-24.19,6.02-5.83,1.31-11.78,2.08-18.37,3.21,0-8.35.23-15.13-.15-21.89-.1-1.8-1.9-4.85-3.2-5.01-4.44-.53-9.72-2.78-12.63,3.44-.44.94-2.8,1.38-4.28,1.39-18.17.1-36.33.09-54.5.03-1.38,0-3.58-.25-4.02-1.1-3.63-6.91-9.88-4.1-15.12-3.92-1.39.05-3.69,3.24-3.83,5.11-.49,6.6-.22,13.26-.23,19.9,0,7.24,0,14.48,0,21.93h-29.49c.72-10.18-4.19-21.28,7.85-28.18-2.7-2.83-4.84-5.06-7.01-7.34,6.25-4.41,8.64-6.58,8.59-7.53-8.3-.88-16.55-1.83-24.81-2.6-4.36-.41-6.29,1.76-6.25,6.16.1,11.62.02,23.23,0,34.85,0,1.58,0,3.15,0,4.7-2.94.22-5.06.37-7.46.55v12.79c2.67.25,4.93.47,7.05.67v35.94c-2.56.19-4.67.35-7.1.53v12.55c4.55,1.37,8.76,3.56,13.03,3.7,5.85.2,11.55.26,17.72-2.01,6.2-2.29,14.88-2.92,19.55,5.78,1.85,3.44,5.05,6.14,7.48,9.29,2.55,3.3,2.08,8.8-.81,11.72-.89.91-1.74,1.86-2.77,2.95,5.02,5.38,9.84,10.55,15.51,16.63,1.57-3.15,2.71-5.45,4.11-8.26,1.87.18,4.78.45,8.24.78,0,2.06,0,3.84,0,5.62-.02,14.93-.07,29.87-.05,44.8.01,9.19,2.39,11.58,11.49,11.6,13.5.03,27,0,40.5,0,51,0,102,.02,152.99,0,8.75,0,11.31-2.62,11.32-11.28.01-7.47-.05-14.94.02-22.4.06-6.61.88-7.38,7.32-7.46,1.47-.02,2.94-.14,4.37-.2,1.05-10.15,6.81-12.71,13.97-11.87,6.86.8,13.43,1.01,20.39.16,7.01-.86,14.34.9,21.53,1.48.99.08,2.08.22,2.97-.09,6.75-2.42,12.98-2.13,18.43,3.1.43.42,1.19.67,1.81.7,8,.43,16.44,3.44,23.12-3.97.42-.47,1.51-.45,2.3-.47,12.44-.39,24.89-1.24,37.32-.96,8.85.2,17.89-.5,26.4,4.14,3.52,1.92,6.99,2.49,6.05,8.18,5.91-.37,11.32-1.03,16.72-.99,19.13.13,38.26.53,57.39.78,7.38.1,7.39.03,7.41-7.12,0-3.07,0-6.15,0-8.5,6.47,0,12.25.27,17.98-.09,3.86-.24,6.14-2.24,5.85-6.84-.41-6.54-.1-13.13-.1-20.16,7.25.65,14.01.75,15.57-7.39.75-3.91.8-8.62-.73-12.15-2.61-6.01-9.18-5.22-14.49-5.35v-50.62c3.45-.29,7.06.34,9.53-1.05,2.54-1.43,5.05-4.62,5.59-7.43.75-3.85.51-8.41-.9-12.04-2.07-5.33-7.9-4.79-13-5.04.92-3.89,1.28-7.25,2.5-10.25,3.25-7.94-5.5-12.94-4.77-20.43.19-2-2.98-4.58-5-6.48-4.85-4.55-10.86-4.17-17.2-3.57Z"/>
      <path class="cls-1" d="m569.27,3.48c6.34-.6,12.35-.98,17.2,3.57,2.02,1.9,5.19,4.48,5,6.48-.73,7.49,8.03,12.49,4.77,20.43-1.23,3-1.59,6.35-2.5,10.25,5.1.24,10.93-.29,13,5.04,1.41,3.64,1.65,8.19.9,12.04-.54,2.8-3.05,5.99-5.59,7.43-2.47,1.39-6.09.76-9.53,1.05v50.62c5.31.14,11.88-.66,14.49,5.35,1.53,3.53,1.48,8.24.73,12.15-1.56,8.13-8.32,8.04-15.57,7.39,0,7.03-.31,13.61.1,20.16.29,4.6-1.99,6.6-5.85,6.84-5.74.36-11.51.09-17.98.09,0,2.35,0,5.42,0,8.5-.02,7.15-.02,7.21-7.41,7.12-19.13-.25-38.26-.64-57.39-.78-5.4-.04-10.81.62-16.72.99.94-5.69-2.53-6.26-6.05-8.18-8.5-4.64-17.54-3.94-26.4-4.14-12.43-.28-24.88.57-37.32.96-.78.02-1.87,0-2.3.47-6.68,7.41-15.13,4.4-23.12,3.97-.62-.03-1.38-.28-1.81-.7-5.45-5.24-11.68-5.52-18.43-3.1-.89.32-1.98.17-2.97.09-7.19-.58-14.52-2.34-21.53-1.48-6.96.85-13.53.64-20.39-.16-7.16-.84-12.92,1.72-13.97,11.87-1.43.07-2.9.19-4.37.2-6.44.08-7.27.84-7.32,7.46-.07,7.47,0,14.93-.02,22.4-.01,8.67-2.57,11.28-11.32,11.28-51,.02-102,0-152.99,0-13.5,0-27,.03-40.5,0-9.1-.02-11.48-2.41-11.49-11.6-.02-14.93.03-29.87.05-44.8,0-1.78,0-3.56,0-5.62-3.46-.33-6.37-.6-8.24-.78-1.4,2.81-2.54,5.11-4.11,8.26-5.67-6.08-10.49-11.25-15.51-16.63,1.02-1.1,1.87-2.05,2.77-2.95,2.88-2.92,3.35-8.42.81-11.72-2.43-3.15-5.63-5.85-7.48-9.29-4.67-8.7-13.35-8.06-19.55-5.78-6.17,2.27-11.87,2.21-17.72,2.01-4.27-.14-8.48-2.33-13.03-3.7v-12.55c2.43-.18,4.54-.34,7.1-.53v-35.94c-2.11-.2-4.38-.42-7.05-.67v-12.79c2.39-.18,4.52-.33,7.46-.55,0-1.55,0-3.12,0-4.7.01-11.62.1-23.23,0-34.85-.04-4.4,1.89-6.57,6.25-6.16,8.27.77,16.52,1.72,24.81,2.6.05.94-2.34,3.12-8.59,7.53,2.17,2.27,4.31,4.51,7.01,7.34-12.05,6.9-7.13,18-7.85,28.18h29.49c0-7.45,0-14.69,0-21.93,0-6.64-.26-13.3.23-19.9.14-1.88,2.44-5.07,3.83-5.11,5.25-.18,11.5-2.99,15.12,3.92.44.85,2.64,1.09,4.02,1.1,18.17.06,36.33.07,54.5-.03,1.48,0,3.84-.45,4.28-1.39,2.91-6.22,8.19-3.97,12.63-3.44,1.3.16,3.1,3.2,3.2,5.01.38,6.75.15,13.54.15,21.89,6.59-1.13,12.54-1.9,18.37-3.21,8.11-1.82,16.1-4.16,24.19-6.02,1.58-.36,3.44.44,5.16.71-1.55.91-3,2.22-4.68,2.67-7.82,2.11-15.7,3.99-21.97,5.56.18,6.51.39,12.14.46,17.78.08,5.92.02,11.83.02,17.98h7.33c2.11-6.12,4.2-12.25,6.36-18.34.26-.73.77-1.71,1.39-1.93,7.05-2.52,12.47-9.08,21.43-7.13,5.56,1.21,11.61.16,17.44.1.29,0,.58-.25,1.37-.62,0-3.87.63-8.12-.27-12.01-.44-1.92-3.52-4.04-5.76-4.56-3.32-.78-6.95-.25-10.45-.24-3.01,0-4.56-1.12-4.41-4.46.22-4.97.19-9.96.03-14.93-.09-3.06,1.26-4.31,4.14-4.04,8.36.8,16.71,1.98,25.09,2.42,7.43.39,14.9-.09,22.35-.04,2.95.02,5.9.64,8.85.65,17.17.07,34.33.03,51.5.03,25.75,0,51.49,0,77.24,0,27.24,0,54.48,0,81.73,0,23.75,0,47.49,0,71.24,0q10.66,0,11.92-10.43Zm-270.08,46.99c0-3.18-.13-5.65.03-8.11.34-5.44,2.39-7.37,7.75-7.39,8.83-.03,17.66-.03,26.49,0,1.31,0,3.5-.16,3.78.44,1.65,3.61,4.73,2.35,7.27,2.35,56.66.06,113.31.1,169.97,0,11.57-.02,23.15-.61,34.72-1.02,6.39-.23,6.88.14,6.89,6.32,0,9.29,0,18.58,0,27.87,0,4.91,0,9.82,0,14.87h12.54v-15.66c-5.72-1.78-10.18-5.77-9.59-13.63.45-5.95,1.8-10.09,7.7-12.16.9-.32,1.84-1.72,1.99-2.73.31-2.11-.16-4.34.15-6.45.75-5.05-1.15-6.33-6.26-6.33-102.65.16-205.3.12-307.94.12-1.78,0-3.55,0-5.61,0v16.63c6.55.35,13.02,1.03,19.47.94,5.69-.08,11.39-.91,17.06-1.63,2.98-.38,6.39,1.93,6.39,5,0,7.11-.2,14.21-.28,21.32-.04,3.89,0,7.78,0,11.67.48-.02.95-.04,1.43-.07,0-8.91.19-17.83-.09-26.74-.13-4.08.69-6.51,6.15-5.64Zm-144-7.31c2.49-11.03,1.42-12.43-8.82-12.43-16.16,0-32.31,0-48.47,0-9.16,0-18.32-.02-27.48.02-2.58.01-5.38.22-5.43,3.66-.13,9.57-.04,19.14-.04,29.2,6.31-.84,11.98-1.59,18.16-2.41,0-3.69-.09-7.3.02-10.91.17-5.59,3.87-10.12,8.81-11.27,3.94-.92,7.8-2.19,11.77-2.97,1.48-.29,3.4-.04,4.7.69,5.98,3.35,13.09,3.45,18.39,1.31,8.03-3.24,14.37,1.64,21.53,1.61,2.23-.01,4.47,2.21,6.87,3.5Zm67.79,116.16c0-1.73,0-2.86,0-4,0-9.22-5.12-13.88-14.08-15.27-4.8-.75-9.18-4.22-13.72-6.52-.36-.18-.53-.82-.71-1.28-1.94-4.79-4.75-9.45-5.56-14.43-.96-5.93-4.25-4.41-7.72-4.26v45.76h41.78Zm335.71,1.28c.19-.59.38-1.18.57-1.77-3.4-1.28-6.74-3.43-10.21-3.67-12.04-.85-24.12-1.37-36.18-1.42-39.32-.16-78.63-.06-117.95-.06-2.11,0-4.21,0-6.82,0,.17,2.44.28,4.06.43,6.34,1.77-1.16,2.71-1.78,3.66-2.4,3.34-2.16,15.1-2.34,17.58.31,2.38,2.53,4.98,2.7,8.02,2.7,45.31-.04,90.63-.03,135.94-.03,1.65,0,3.3,0,4.95,0Zm-220.48-81.61h181.42v-4.93c-.72-.18-1.2-.41-1.67-.39-44.79,1.24-89.62-2.27-134.42,1.78-14.95,1.35-30.3,1.79-45.33-2.91v6.46Zm-306.58-1.36c0,11.35.03,22.11-.02,32.86-.01,3.14,1.46,3.6,4.53,2.45v-22.17h22.8c.71-4.87,1.29-8.93,1.9-13.14h-29.21Zm466.39,40.22c-3.86-4.14-7.71-5.41-12.56-5.35-18.63.24-37.27.22-55.91,0-4.29-.05-7.14,1.28-9.31,5.35h77.78Zm-204.65.74l-1.4-.15c-.24,1.27-.64,2.53-.67,3.8-.09,3.81-.14,7.63,0,11.44.1,2.7-.53,4.46-3.61,4.78-4.92.51-9.8,1.39-14.73,1.8-4.22.35-9.82,5.17-10.85,10.07h36.8v-8.76c-1.81-.24-3.4-.44-5.55-.72v-22.27Zm275,1.38v-14.01h-12.25c0,11.35-.03,22.39.06,33.43,0,.83.63,1.94,1.31,2.44,3.26,2.37,6.64,4.58,9.97,6.85.39-.34.77-.68,1.16-1.02-4.2-3.96-9.91-6.22-9.69-13.81.27-9.45,3.75-11.86,9.44-13.88Zm-159.19-5.21c-.23-.6-.47-1.19-.7-1.79h-70.16v5.63c6.71-.88,13.22-2.48,19.73-2.43,14.22.1,28.42,1.23,42.64,1.49,2.81.05,5.66-1.88,8.49-2.89Zm-343.88,9.41c-.09-3.55-3.27-6.64-6.8-6.61-3.39.03-6.74,3.34-6.79,6.71-.05,3.7,3.33,6.92,7.09,6.74,3.62-.17,6.59-3.28,6.5-6.84Zm-6.8-22.62c.02-.74.05-1.48.07-2.23-1.94-1.33-3.9-3.71-5.81-3.68-1.64.03-4.42,2.77-4.5,4.41-.08,1.6,2.53,4.55,4.16,4.69,1.92.17,4.05-2.03,6.09-3.2Zm18.72,49.1c-3.26-2.26-5.2-4.65-6.88-4.48-1.74.18-4.24,2.63-4.6,4.45-.56,2.84,1.54,5.35,4.75,4.7,1.96-.4,3.59-2.41,6.72-4.67Zm410.07,20.01h-14.72c3.25,1.94,5.38,3.47,7.74,4.51,1.55.69,3.94,1.44,5,.74,1.18-.78,1.28-3.18,1.97-5.26Z"/>
      <path class="cls-2" d="m299.18,50.47c-5.46-.88-6.28,1.55-6.15,5.64.28,8.9.09,17.82.09,26.74-.48.02-.95.04-1.43.07,0-3.89-.04-7.78,0-11.67.08-7.11.28-14.21.28-21.32,0-3.07-3.41-5.38-6.39-5-5.67.72-11.36,1.55-17.06,1.63-6.46.09-12.92-.59-19.47-.94v-16.63c2.06,0,3.84,0,5.61,0,102.65,0,205.3.04,307.94-.12,5.11,0,7.02,1.27,6.26,6.33-.31,2.11.15,4.34-.15,6.45-.15,1.01-1.08,2.42-1.99,2.73-5.9,2.07-7.25,6.2-7.7,12.16-.59,7.86,3.87,11.85,9.59,13.63v15.66h-12.54c0-5.05,0-9.96,0-14.87,0-9.29,0-18.58,0-27.87,0-6.18-.49-6.55-6.89-6.32-11.57.41-23.15,1-34.72,1.02-56.66.1-113.31.06-169.97,0-2.55,0-5.62,1.26-7.27-2.35-.27-.6-2.47-.44-3.78-.44-8.83-.03-17.66-.03-26.49,0-5.36.02-7.42,1.95-7.75,7.39-.15,2.46-.03,4.93-.03,8.11Z"/>
      <path class="cls-2" d="m155.18,43.16c-2.4-1.29-4.64-3.51-6.87-3.5-7.16.04-13.5-4.85-21.53-1.61-5.3,2.14-12.41,2.04-18.39-1.31-1.31-.73-3.22-.98-4.7-.69-3.97.78-7.83,2.05-11.77,2.97-4.94,1.15-8.63,5.68-8.81,11.27-.11,3.61-.02,7.22-.02,10.91-6.18.82-11.85,1.57-18.16,2.41,0-10.05-.08-19.63.04-29.2.05-3.44,2.85-3.65,5.43-3.66,9.16-.04,18.32-.02,27.48-.02,16.16,0,32.31,0,48.47,0,10.23,0,11.31,1.4,8.82,12.43Z"/>
      <path class="cls-2" d="m222.97,159.32h-41.78v-45.76c3.47-.15,6.75-1.66,7.72,4.26.81,4.98,3.62,9.63,5.56,14.43.18.46.35,1.1.71,1.28,4.54,2.3,8.92,5.77,13.72,6.52,8.96,1.39,14.07,6.05,14.08,15.27,0,1.14,0,2.28,0,4Z"/>
      <path class="cls-2" d="m558.68,160.6c-1.65,0-3.3,0-4.95,0-45.31,0-90.63-.01-135.94.03-3.04,0-5.64-.16-8.02-2.7-2.48-2.65-14.24-2.47-17.58-.31-.95.61-1.89,1.24-3.66,2.4-.16-2.28-.27-3.9-.43-6.34,2.61,0,4.71,0,6.82,0,39.32,0,78.63-.1,117.95.06,12.07.05,24.15.57,36.18,1.42,3.47.25,6.81,2.4,10.21,3.67-.19.59-.38,1.18-.57,1.77Z"/>
      <path class="cls-2" d="m338.2,78.99v-6.46c15.03,4.7,30.38,4.27,45.33,2.91,44.8-4.06,89.63-.54,134.42-1.78.47-.01.95.22,1.67.39v4.93h-181.42Z"/>
      <path class="cls-2" d="m31.62,77.63h29.21c-.61,4.21-1.2,8.27-1.9,13.14h-22.8v22.17c-3.07,1.15-4.54.69-4.53-2.45.04-10.75.02-21.51.02-32.86Z"/>
      <path class="cls-2" d="m498.01,117.85h-77.78c2.18-4.07,5.03-5.4,9.31-5.35,18.63.21,37.27.23,55.91,0,4.85-.06,8.71,1.21,12.56,5.35Z"/>
      <path class="cls-2" d="m293.36,118.59v22.27c2.15.28,3.73.49,5.55.72v8.76h-36.8c1.02-4.89,6.63-9.72,10.85-10.07,4.93-.41,9.81-1.29,14.73-1.8,3.08-.32,3.71-2.08,3.61-4.78-.14-3.81-.1-7.63,0-11.44.03-1.27.44-2.54.67-3.8l1.4.15Z"/>
      <path class="cls-2" d="m568.36,119.96c-5.69,2.02-9.17,4.43-9.44,13.88-.22,7.58,5.48,9.85,9.69,13.81-.39.34-.77.68-1.16,1.02-3.34-2.27-6.72-4.48-9.97-6.85-.69-.5-1.31-1.61-1.31-2.44-.09-11.04-.06-22.08-.06-33.43h12.25v14.01Z"/>
      <path class="cls-2" d="m409.17,114.75c-2.83,1.02-5.68,2.95-8.49,2.89-14.22-.27-28.42-1.39-42.64-1.49-6.5-.05-13.02,1.55-19.73,2.43v-5.63h70.16c.23.6.47,1.19.7,1.79Z"/>
      <path class="cls-2" d="m65.29,124.16c.09,3.55-2.87,6.67-6.5,6.84-3.75.17-7.14-3.05-7.09-6.74.05-3.36,3.4-6.68,6.79-6.71,3.53-.03,6.71,3.06,6.8,6.61Z"/>
      <path class="cls-2" d="m58.5,101.53c-2.04,1.17-4.17,3.38-6.09,3.2-1.63-.15-4.23-3.09-4.16-4.69.08-1.65,2.86-4.38,4.5-4.41,1.91-.04,3.87,2.34,5.81,3.68-.02.74-.05,1.48-.07,2.23Z"/>
      <path class="cls-2" d="m77.22,150.63c-3.13,2.26-4.76,4.27-6.72,4.67-3.21.66-5.31-1.86-4.75-4.7.36-1.82,2.86-4.27,4.6-4.45,1.68-.17,3.62,2.22,6.88,4.48Z"/>
      <path class="cls-2" d="m487.29,170.64c-.7,2.07-.79,4.48-1.97,5.26-1.06.7-3.45-.06-5-.74-2.35-1.04-4.49-2.58-7.74-4.51h14.72Z"/>
    </g>
  </g>
</svg>