<?xml version="1.0" encoding="UTF-8"?>
<svg id="Layer_1" data-name="Layer 1" xmlns="http://www.w3.org/2000/svg" viewBox="0 0 587 224.83">
  <defs>
    <style>
      .cls-1, .cls-2 {
        stroke-width: 0px;
      }

      .cls-2 {
        fill: #fff;
      }
    </style>
  </defs>
  <g id="ctN1gB.tif">
    <g>
      <path class="cls-2" d="m587,224.83c-195.67,0-391.33,0-587,0C0,149.89,0,74.94,0,0c195.67,0,391.33,0,587,0,0,74.94,0,149.89,0,224.83Zm-353.04-88.4c-4.78,1.18-9.08,3.04-13.43,3.15-9.64.24-19.31-.67-28.96-.62-14.35.08-28.71.79-43.06.88-18.78.12-37.57.04-56.35-.22-7.95-.11-7.61-.38-8.69,7.79-.59,4.48-1.01,9.31-7.15,11.12-4.9,1.44-7.74,5.95-8.26,11.07-.4,3.9-2.29,5.19-5.73,4.85-10.39-1.03-20.81-1.9-31.14-3.37-5.11-.73-6.13-5.15-2.64-9.2.61-.71,1.34-1.31,2.01-1.96,19.05-18.29,38.22-36.46,57.02-55.01,2.71-2.68,4.05-7.06,5.2-10.9.87-2.92-4.54-6.49-7.61-6.14-6.87.76-11.7,4.79-15.91,9.54-11.18,12.62-22.36,25.25-33.04,38.29-7.96,9.72-17.72,18.2-22.35,30.41-.36.94-1.85,1.49-2.87,2.14-3.85,2.46-6.71,5.58-7.18,10.36-1.07,10.89,8.47,18.36,18.91,14.96,6.5-2.12,12.99-4.65,19.69-5.72,7.55-1.21,15.33-1,23.46-1.42-.42,4.13-.85,6.9-.94,9.68-.15,4.44,1.98,6.68,5.95,6.6,3.85-.08,6.09-2.62,5.85-6.83-.12-2.12-.49-4.22-.76-6.45,5.78.82,7.38,2.65,7.56,8.86.18,6.24.05,12.49.14,18.73.07,4.81,1.21,5.62,6.03,4.88,2.9-.45,5.83-.9,8.75-.9,57.6-.01,115.21.04,172.81.07,1.56,0,4.03.45,4.52-.31,2.73-4.21,7.1-3.43,10.73-3.44,51.81-.17,103.62-.13,155.43-.01,1.42,0,2.76,1.72,4.27,2.03,2.22.46,6.34,1.04,6.56.43,1.36-3.71,4.23-2.48,6.59-2.57,4.38-.16,8.76-.05,13.15-.05,22.7,0,45.39.06,68.09-.08,1.65,0,4.63-1.29,4.7-2.17.44-5.35.22-10.75.22-16.96h-91.17c0-.7-.01-1.4-.02-2.11,5.08,0,10.15,0,15.23,0,23.64,0,47.27.05,70.91-.04,1.68,0,4.65-.67,4.81-1.46.6-3.06,2.69-2.46,4.59-2.68,9.27-1.09,18.68,1.15,28-2.69,3.3-1.36,4.77-3.44,6.52-5.46,2.35-2.71-1.13-10.65-4.55-11.41q-8.52-1.91-9.15-10.34c-.03-.45-.26-.88-.68-2.23-2.36.65-5.16.73-7.05,2.09-3.12,2.25-5.75,5.24-8.38,8.11-.75.82-.98,2.24-1.15,3.43-.25,1.81-.24,3.65-.35,5.61h-3.86c-1.5-5.13-2.88-9.88-4.52-15.5h-90.57l.02-1.27c1.85,0,3.7,0,5.55,0,26.77,0,53.53-.1,80.3.1,4.63.04,6.21-1.46,5.71-5.9-.28-2.47-.35-5.02-.04-7.48.59-4.72-1.11-6.14-5.95-6.1-27.08.23-54.16.13-81.24.04-1.86,0-4.26,1.16-5.42-2.15-.28-.79-6.25-.77-6.41-.21-.96,3.3-3.35,2.36-5.29,2.37-29.27.05-58.54.04-87.81.02-1.35,0-2.7-.2-3.94-.29v-9.11c9.77.9,19.11,1.72,28.45,2.66,1.16.12,2.33.71,3.37,1.3,4.09,2.28,7.56,1.78,9.94-1.52,2.09-2.9,1.5-6.95-1.35-9.21-3.24-2.57-6.54-2.02-9.94,1.37-.82.82-2.33,1.72-3.28,1.51-10.43-2.37-20.89-4.67-31.17-7.61-5.11-1.47-9.49-.35-11.5,4.61-1.58,3.89-3.11,7.82-4.28,11.84-.98,3.35-2.66,4.66-6.31,4.57-9.85-.26-19.72-.07-29.58-.09-1.57,0-3.13-.16-4.7-.24,2.83-.86,5.64-.94,8.4-1.36.8-.12,2.05-1.24,2.03-1.87-.02-.78-1.02-1.89-1.84-2.19-1.12-.41-2.47-.22-3.71-.22-6.53-.01-13.06,0-19.37,0-2.27-5.31,1.33-11.19-2.44-15.65-.54.01-1.08.03-1.62.04-.25,5.11-.51,10.23-.76,15.31h-5.62V3.07h-30.35v133.36Z"/>
      <path class="cls-1" d="m233.96,136.43V3.07h30.35v133.4h5.62c.25-5.09.51-10.2.76-15.31.54-.01,1.08-.03,1.62-.04,3.77,4.46.17,10.34,2.44,15.65,6.3,0,12.83,0,19.37,0,1.25,0,2.6-.18,3.71.22.82.3,1.82,1.41,1.84,2.19.02.63-1.22,1.74-2.03,1.87-2.76.42-5.57.51-8.4,1.36,1.57.08,3.13.24,4.7.24,9.86.02,19.73-.16,29.58.09,3.65.1,5.33-1.22,6.31-4.57,1.18-4.02,2.71-7.95,4.28-11.84,2.01-4.96,6.39-6.08,11.5-4.61,10.27,2.94,20.74,5.24,31.17,7.61.95.22,2.46-.69,3.28-1.51,3.4-3.4,6.7-3.94,9.94-1.37,2.85,2.26,3.44,6.31,1.35,9.21-2.38,3.3-5.85,3.8-9.94,1.52-1.05-.58-2.21-1.18-3.37-1.3-9.34-.94-18.69-1.76-28.45-2.66v9.11c1.24.1,2.59.29,3.94.29,29.27.02,58.54.03,87.81-.02,1.94,0,4.34.93,5.29-2.37.16-.56,6.14-.58,6.41.21,1.16,3.31,3.56,2.14,5.42,2.15,27.08.09,54.16.19,81.24-.04,4.84-.04,6.55,1.38,5.95,6.1-.31,2.46-.24,5.01.04,7.48.51,4.44-1.07,5.94-5.71,5.9-26.77-.2-53.53-.1-80.3-.1-1.85,0-3.7,0-5.55,0l-.02,1.27h90.57c1.64,5.62,3.03,10.37,4.52,15.5h3.86c.11-1.95.1-3.8.35-5.61.17-1.19.4-2.61,1.15-3.43,2.63-2.86,5.25-5.85,8.38-8.11,1.88-1.36,4.69-1.44,7.05-2.09.42,1.36.65,1.79.68,2.23q.63,8.43,9.15,10.34c3.42.76,6.9,8.7,4.55,11.41-1.75,2.02-3.23,4.1-6.52,5.46-9.32,3.84-18.73,1.6-28,2.69-1.9.22-3.99-.38-4.59,2.68-.16.79-3.13,1.45-4.81,1.46-23.64.09-47.27.05-70.91.04-5.08,0-10.15,0-15.23,0,0,.7.01,1.4.02,2.11h91.17c0,6.21.22,11.61-.22,16.96-.07.88-3.06,2.16-4.7,2.17-22.7.14-45.39.09-68.09.08-4.38,0-8.77-.11-13.15.05-2.35.09-5.22-1.14-6.59,2.57-.22.6-4.34.03-6.56-.43-1.51-.31-2.85-2.03-4.27-2.03-51.81-.12-103.62-.16-155.43.01-3.62.01-8-.77-10.73,3.44-.49.76-2.96.31-4.52.31-57.6-.03-115.21-.08-172.81-.07-2.92,0-5.86.46-8.75.9-4.82.74-5.96-.07-6.03-4.88-.09-6.24.04-12.49-.14-18.73-.18-6.2-1.78-8.03-7.56-8.86.27,2.23.64,4.33.76,6.45.24,4.21-2,6.75-5.85,6.83-3.97.08-6.1-2.16-5.95-6.6.09-2.78.53-5.54.94-9.68-8.13.43-15.91.21-23.46,1.42-6.7,1.07-13.18,3.6-19.69,5.72-10.45,3.4-19.99-4.07-18.91-14.96.47-4.77,3.33-7.9,7.18-10.36,1.02-.65,2.51-1.2,2.87-2.14,4.63-12.21,14.39-20.69,22.35-30.41,10.67-13.04,21.85-25.68,33.04-38.29,4.21-4.75,9.04-8.78,15.91-9.54,3.08-.34,8.48,3.22,7.61,6.14-1.14,3.84-2.48,8.22-5.2,10.9-18.79,18.55-37.97,36.72-57.02,55.01-.68.65-1.4,1.26-2.01,1.96-3.5,4.05-2.47,8.48,2.64,9.2,10.33,1.47,20.75,2.34,31.14,3.37,3.44.34,5.33-.95,5.73-4.85.53-5.11,3.36-9.63,8.26-11.07,6.14-1.8,6.56-6.63,7.15-11.12,1.08-8.17.74-7.9,8.69-7.79,18.78.26,37.57.35,56.35.22,14.36-.09,28.71-.8,43.06-.88,9.65-.06,19.32.86,28.96.62,4.35-.11,8.65-1.97,13.43-3.15Zm211.2,26.7c0-.24,0-.48,0-.72h-95.36c0,.24,0,.48,0,.72h95.36Zm-125.4-.03c0-.27,0-.53,0-.8h-36.02c0,.27,0,.53,0,.8h36.02Zm-238.98.77c-5.03.9-6.21,4.13-6.41,8.35,8.09-1.09,8.43-1.53,6.41-8.35Z"/>
      <path class="cls-2" d="m445.16,163.13h-95.36c0-.24,0-.48,0-.72h95.36c0,.24,0,.48,0,.72Z"/>
      <path class="cls-2" d="m319.76,163.09h-36.02c0-.27,0-.53,0-.8h36.02c0,.27,0,.53,0,.8Z"/>
      <path class="cls-2" d="m80.79,163.86c2.03,6.81,1.68,7.26-6.41,8.35.2-4.22,1.38-7.45,6.41-8.35Z"/>
    </g>
  </g>
</svg>