<?xml version="1.0" encoding="UTF-8"?>
<svg id="Layer_1" data-name="Layer 1" xmlns="http://www.w3.org/2000/svg" viewBox="0 0 590.47 219">
  <defs>
    <style>
      .cls-1, .cls-2 {
        stroke-width: 0px;
      }

      .cls-2 {
        fill: #fff;
      }
    </style>
  </defs>
  <g id="_1R0Wst.tif" data-name="1R0Wst.tif">
    <g>
      <path class="cls-2" d="m590.47,219H0V0h590.47v219ZM19.22,10.49c2.91,2.73,4.09,5.97,2.38,9.2-3.8,7.17-8.06,14.1-11.99,21.21-1.04,1.88-1.99,4-2.22,6.09-.3,2.66.21,5.08-3.23,6.48-1.34.54-2.3,3.49-2.39,5.38-.29,6.28-.14,12.58-.09,18.87.04,4.75,1.94,6.14,6.7,6.84,3.78.56,7.55,1.91,11.05,3.51,6.72,3.06,13.24,6.54,19.84,9.85,1,2.24,2.76,5.12,4.31,5.01,1.78-.13,3.37-2.9,5.05-4.52,3.75-2.35,5.49,1.38,7.39,3.79,2.66,3.38,5.66,4.87,9.88,4.3,1.66-.23,3.4.13,5.07-.06,6.63-.74,11.82,1.65,16.44,6.39,4.47,4.59,10.29,6.83,16.46,7.23v13.13q-7.06.65-11.45,6.57c-.35.48-.94.78-1.3,1.26-1.33,1.79-2.65,3.59-3.89,5.44-3.22,4.79-6.4,9.6-9.07,13.61-1.35-1.74-2.56-5.01-4.58-5.63-10.24-3.14-21.18,1.55-20.89,13.78.07,3.07.26,6.16,0,9.2-.55,6.35,2.92,10.46,7.53,13.83,6.05,4.42,16.27.77,17.87-7.4,1.34,2.23,2.28,3.6,2.99,5.08.52,1.07.45,2.5,1.14,3.4,3,3.95,6.22,7.73,9.26,11.65.78,1,1.61,2.25,1.7,3.45.44,5.38,4.5,2.82,7.04,3.22,2.94.47,4.1-1.25,3.98-4.14-.13-3.18-.03-6.38-.03-9.77h8.94c.8,4.19,1.82,8.12,2.21,12.1.28,2.9.37,4.97,4.24,4.86,3.6-.1,5.41-1.3,5.66-4.97.58-8.65,3.1-10.55,12.35-9.03,0,3.53-.07,7.17.02,10.8.07,2.78.8,5.6,4.18,5.48,3.23-.11,4.08-2.72,4.04-5.64-.04-3.61-.01-7.22-.01-10.57,5.8-1.96,11.65-1.26,15.74-6.19,2.28-2.74,2.18-4.36.08-6.72-1.51-1.7-3.72-3.57-3.88-5.52-.51-5.93-.19-11.94-.19-17.94,1.49-.7,2.82-1.33,4.28-2.02,2.56,2.98,5.25,5.75,7.5,8.83,2.31,3.16,4.41,5.92,8.77,2.62l-2.98,4.08c.27.25.54.49.8.74,1.41-.78,2.81-1.56,4.48-2.48.78.97,1.6,1.98,2.36,2.93-1.22,1.52-2.24,2.79-3.26,4.06.24.21.49.43.73.64,1.49-.89,2.98-1.79,4.6-2.76.98,1.39,1.75,2.49,2.55,3.63-1.1,1.41-2.09,2.67-3.47,4.43,1.96.15,3.75.84,4.61.24,2.65-1.86,3.76.14,4.75,1.66,3.28,5.04,8.07,6.63,13.78,6.91,5.37.26,10.72.97,16.52,1.52,4.28-1.78,9.24-4.4,14.52-5.91,6.15-1.76,10.26-6.09,13.86-10.52,3.86-4.73,6.28-10.62,9.5-16.32,0-1.81-.13-4.43.03-7.04.26-4.28,1.66-8.75.82-12.78-.95-4.54-3.85-8.68-5.98-13.15.22-1.36,1.37-3.71.64-5.06-1.33-2.47-3.89-4.25-5.72-6.49-2.79-3.43-5.39-7.01-8.62-11.25,3.41-.61,5.69-1.02,8.3-1.49-2.38,7.02-1.28,8.44,5.41,8.6,5.2.13,10.39.8,15.59.86,3.42.04,7.46,1.64,9.63-2.77,3.01,2.5,10.5,3.51,14,2.01,2.27-.97,5.86-1.37,6.53-2.98,1.16-2.79,2.83-2.38,4.88-2.89,7.36-1.84,14.91-3.37,21.8-6.38,3.55-1.55,6.43-4.02,10.74-3.73,2.76.19,4.52-3.04,3.28-5.58-.75-1.53-2.12-2.77-3.23-4.17,1.83-3.64,4.19-6.08,8.88-6.65,21.34-2.59,42.65-5.45,63.91-8.61,5.13-.76,11.92,1.43,14.54-5.94.08-.24.82-.3,1.27-.34,5.49-.54,10.98-1.34,16.49-1.53,7.68-.26,15.38-.07,23.06-.07,10.46,0,20.92-.27,31.37.1,8.85.32,17.63,2.31,26.54.02,2.61-.67,4.24-1.62,3.56-4.07-.39-1.41-2.24-2.58-3.66-3.51-1.27-.83-2.86-1.18-4.3-1.74,1.25-1.22,2.31-1.18,2.99-1.67,3.08-2.19,5.76-2.33,8.18.96.41.55,1.25.99,1.94,1.09,9.47,1.33,19.01,2.25,28.4,3.98,7.22,1.33,13.73-.62,20.11-3.13,1.92-.76,4.02-3.59,4.24-5.67.59-5.62.54-11.36.03-17-.18-2.04-1.99-5.12-3.69-5.64-6.11-1.84-11.97-4.79-18.9-3.55-9.86,1.77-19.87,2.67-29.8,4.05-.96.13-2.16.79-2.65,1.57-1.95,3.13-4.38,2.03-7.17,1.53-3.37-.6-8.39-1.74-10.02-.06-2.66,2.74-5.01,2.06-7.64,2.01-8.1-.15-16.19-.68-24.28-.63-11.94.08-23.88.55-35.82.83-1.97.05-3.94,0-5.92,0l.47-1.7c-1.65-.76-3.23-1.79-4.97-2.22-1.88-.46-5.26.22-5.62-.62-1.62-3.77-4.61-2.71-7.36-3.05-1.4-.17-2.89-.85-4.02-1.71-4.67-3.57-9.76-5.49-15.74-5.55-31.67-.28-63.34-.69-95.01-1.11-2.12-.03-4.26-.35-6.35-.77-4.23-.86-8.38-2.28-12.64-2.72-5.4-.55-10.75.91-16.33.34-6.47-.66-13.12.51-19.7.75-3.89.14-4.47,2.55-4.15,5.61.09.9.62,1.76,1.29,3.58-10.88-2.41-20.86-4.61-30.84-6.84-.39-.09-.83-.42-1.05-.76-2.77-4.31-6.89-2.78-10.92-2.98-.29,2.89-.54,5.36-.79,7.82-.46-.03-.92-.07-1.38-.1.16-2.27.73-4.6.37-6.78-.43-2.63-.98-5.91-2.75-7.44-1.45-1.25-5.02-1.04-7.19-.23-3.09,1.16-3.52,4.29-3.03,7.43.35,2.19.54,4.39.86,7h-21.99c-.19-2.46-.39-4.96-.6-7.57-2.49-.16-4.46-.29-5.85-.38-1.52-2.2-2.37-4.77-4.09-5.65-3.6-1.85-7.64-3.91-11.52-3.95-22.46-.25-44.95-1.15-67.23,3.34-10.64,2.15-21.56,4.1-32.32.21-6.34-2.3-12.58-4.89-18.83-7.43-8.66-3.51-10.38-2.7-12.78,6.23Z"/>
      <path class="cls-1" d="m19.22,10.49c2.41-8.93,4.13-9.74,12.78-6.23,6.25,2.54,12.49,5.13,18.83,7.43,10.75,3.9,21.67,1.94,32.32-.21,22.28-4.49,44.77-3.59,67.23-3.34,3.88.04,7.93,2.1,11.52,3.95,1.72.88,2.57,3.45,4.09,5.65,1.4.09,3.37.22,5.85.38.21,2.61.4,5.1.6,7.57h21.99c-.31-2.61-.51-4.82-.86-7-.5-3.14-.06-6.27,3.03-7.43,2.17-.81,5.74-1.02,7.19.23,1.77,1.53,2.32,4.81,2.75,7.44.36,2.18-.21,4.51-.37,6.78.46.03.92.07,1.38.1.25-2.47.5-4.93.79-7.82,4.02.19,8.15-1.34,10.92,2.98.22.34.66.68,1.05.76,9.98,2.23,19.96,4.44,30.84,6.84-.67-1.81-1.2-2.67-1.29-3.58-.32-3.06.26-5.47,4.15-5.61,6.58-.24,13.23-1.4,19.7-.75,5.57.56,10.93-.89,16.33-.34,4.26.44,8.41,1.86,12.64,2.72,2.08.42,4.23.74,6.35.77,31.67.42,63.34.83,95.01,1.11,5.98.05,11.07,1.98,15.74,5.55,1.13.86,2.62,1.54,4.02,1.71,2.75.34,5.74-.72,7.36,3.05.36.83,3.74.15,5.62.62,1.73.43,3.32,1.45,4.97,2.22l-.47,1.7c1.97,0,3.94.04,5.92,0,11.94-.28,23.88-.75,35.82-.83,8.09-.05,16.19.48,24.28.63,2.64.05,4.98.73,7.64-2.01,1.63-1.68,6.65-.54,10.02.06,2.79.5,5.22,1.6,7.17-1.53.49-.78,1.69-1.44,2.65-1.57,9.93-1.38,19.94-2.28,29.8-4.05,6.93-1.24,12.79,1.7,18.9,3.55,1.7.51,3.51,3.6,3.69,5.64.5,5.63.55,11.38-.03,17-.22,2.07-2.31,4.91-4.24,5.67-6.38,2.51-12.89,4.46-20.11,3.13-9.39-1.73-18.93-2.65-28.4-3.98-.7-.1-1.54-.54-1.94-1.09-2.42-3.3-5.11-3.15-8.18-.96-.68.49-1.74.45-2.99,1.67,1.45.56,3.03.91,4.3,1.74,1.42.93,3.26,2.1,3.66,3.51.68,2.45-.95,3.39-3.56,4.07-8.92,2.3-17.69.3-26.54-.02-10.44-.38-20.91-.1-31.37-.1-7.69,0-15.38-.2-23.06.07-5.51.19-11,.99-16.49,1.53-.44.04-1.18.1-1.27.34-2.62,7.37-9.41,5.18-14.54,5.94-21.26,3.16-42.57,6.01-63.91,8.61-4.69.57-7.05,3.01-8.88,6.65,1.11,1.4,2.48,2.63,3.23,4.17,1.24,2.54-.52,5.77-3.28,5.58-4.3-.29-7.18,2.18-10.74,3.73-6.89,3-14.45,4.53-21.8,6.38-2.05.51-3.72.1-4.88,2.89-.67,1.62-4.26,2.01-6.53,2.98-3.5,1.5-10.99.48-14-2.01-2.17,4.41-6.21,2.81-9.63,2.77-5.2-.07-10.39-.74-15.59-.86-6.69-.16-7.79-1.58-5.41-8.6-2.61.47-4.89.88-8.3,1.49,3.23,4.24,5.83,7.83,8.62,11.25,1.83,2.25,4.39,4.02,5.72,6.49.73,1.35-.42,3.7-.64,5.06,2.13,4.47,5.03,8.61,5.98,13.15.84,4.02-.56,8.5-.82,12.78-.16,2.61-.03,5.23-.03,7.04-3.23,5.7-5.65,11.59-9.5,16.32-3.61,4.42-7.72,8.76-13.86,10.52-5.28,1.51-10.24,4.12-14.52,5.91-5.79-.55-11.14-1.27-16.52-1.52-5.71-.27-10.5-1.86-13.78-6.91-.99-1.52-2.1-3.52-4.75-1.66-.86.61-2.65-.09-4.61-.24,1.38-1.76,2.36-3.02,3.47-4.43-.8-1.14-1.57-2.24-2.55-3.63-1.62.97-3.11,1.86-4.6,2.76-.24-.21-.49-.43-.73-.64,1.02-1.27,2.04-2.54,3.26-4.06-.76-.95-1.58-1.96-2.36-2.93-1.66.92-3.07,1.7-4.48,2.48-.27-.25-.54-.49-.8-.74l2.98-4.08c-4.36,3.29-6.46.53-8.77-2.62-2.26-3.08-4.94-5.85-7.5-8.83-1.46.69-2.79,1.31-4.28,2.02,0,6-.33,12,.19,17.94.17,1.94,2.38,3.82,3.88,5.52,2.1,2.37,2.2,3.98-.08,6.72-4.1,4.93-9.94,4.24-15.74,6.19,0,3.35-.03,6.96.01,10.57.04,2.92-.82,5.53-4.04,5.64-3.38.12-4.11-2.7-4.18-5.48-.09-3.63-.02-7.27-.02-10.8-9.25-1.53-11.77.37-12.35,9.03-.25,3.67-2.06,4.87-5.66,4.97-3.88.11-3.96-1.96-4.24-4.86-.39-3.99-1.41-7.91-2.21-12.1h-8.94c0,3.39-.1,6.58.03,9.77.12,2.89-1.04,4.61-3.98,4.14-2.54-.4-6.6,2.16-7.04-3.22-.1-1.19-.93-2.45-1.7-3.45-3.04-3.92-6.26-7.7-9.26-11.65-.68-.9-.62-2.33-1.14-3.4-.72-1.48-1.66-2.85-2.99-5.08-1.6,8.17-11.82,11.82-17.87,7.4-4.61-3.37-8.09-7.48-7.53-13.83.27-3.05.08-6.14,0-9.2-.29-12.23,10.65-16.92,20.89-13.78,2.02.62,3.23,3.88,4.58,5.63,2.67-4.02,5.85-8.83,9.07-13.61,1.24-1.85,2.56-3.65,3.89-5.44.35-.48.94-.78,1.3-1.26q4.4-5.91,11.45-6.57v-13.13c-6.16-.4-11.98-2.64-16.46-7.23-4.62-4.74-9.81-7.13-16.44-6.39-1.67.19-3.41-.17-5.07.06-4.22.57-7.22-.92-9.88-4.3-1.9-2.41-3.64-6.14-7.39-3.79-1.67,1.62-3.27,4.4-5.05,4.52-1.55.11-3.31-2.77-4.31-5.01-6.6-3.31-13.13-6.79-19.84-9.85-3.5-1.6-7.27-2.95-11.05-3.51-4.76-.7-6.66-2.09-6.7-6.84-.05-6.29-.2-12.59.09-18.87.09-1.9,1.05-4.84,2.39-5.38,3.44-1.39,2.93-3.82,3.23-6.48.24-2.09,1.18-4.21,2.22-6.09,3.93-7.11,8.19-14.03,11.99-21.21,1.71-3.23.53-6.47-2.38-9.2Zm29.3,27.64c-.11.36-.23.72-.34,1.07,4.3,1.07,5.95-2.51,7.97-4.94,2.34-2.81,4.79-4.35,8.61-4.02,3.66.31,7.4.22,11.06-.14,5.58-.55,9.9-3.6,13.72-7.88-17.91,3.66-35.49,4.94-52.5-3.57.4,1.31,1.38,2.33,1.21,2.59-1.96,2.99-3.87,6.07-6.25,8.72-3.01,3.34-6.44,6.3-9.69,9.43,4.42,1.06,7.99,1.35,11.47.95,2.03-.23,4.14-1.29,5.82-2.51,1.6-1.16,2.68-3.03,3.99-4.58,1.65,1.63,3.3,3.26,4.95,4.89Zm19.25,151.36c2.14-.75,6.44,1.49,6.44-3.66,0-8.63-.18-17.25-.42-25.87-.03-.99-.73-2.6-1.47-2.84-7.83-2.51-16.9,1.48-16.38,10.17.22,3.66.1,7.33.11,11,.03,7.3,4.02,11.25,11.72,11.2ZM437.76,59.07c2.84,2.54,73.59,2.5,80.05-.68-2.66-1.33-5.06-3.49-7.52-3.58-8.25-.27-16.51.3-24.78.35-7.95.05-15.9-.05-23.85-.25-6.73-.17-13.46-.58-20.18-.89.15.35.29.69.44,1.04-1.4,1.35-2.79,2.69-4.16,4Zm108.29-14.21c-.1,4.04,1.76,6.01,4.41,5.45,1.83-.38,3.23-2.81,4.82-4.33-1.47-1.48-2.73-3.83-4.46-4.25-2.55-.61-4.69.97-4.76,3.13Zm17.72,6.41c.69-.01,1.39-.03,2.08-.04,1.16-1.79,3.46-3.79,3.18-5.33-.3-1.68-2.88-3.84-4.67-4.06-1.23-.15-3.9,2.64-3.95,4.19-.05,1.71,2.14,3.49,3.35,5.24Z"/>
      <path class="cls-2" d="m48.51,38.13c-1.65-1.63-3.3-3.26-4.95-4.89-1.31,1.56-2.39,3.42-3.99,4.58-1.68,1.22-3.79,2.28-5.82,2.51-3.48.4-7.04.11-11.47-.95,3.25-3.13,6.68-6.09,9.69-9.43,2.38-2.65,4.29-5.73,6.25-8.72.17-.26-.81-1.28-1.21-2.59,17.01,8.51,34.59,7.24,52.5,3.57-3.81,4.28-8.14,7.32-13.72,7.88-3.66.36-7.4.45-11.06.14-3.82-.32-6.27,1.21-8.61,4.02-2.02,2.43-3.67,6-7.97,4.94.11-.36.23-.72.34-1.07Z"/>
      <path class="cls-2" d="m67.77,189.49c-7.7.05-11.68-3.9-11.72-11.2-.02-3.67.11-7.35-.11-11-.52-8.69,8.55-12.68,16.38-10.17.74.24,1.44,1.85,1.47,2.84.24,8.62.41,17.25.42,25.87,0,5.15-4.3,2.91-6.44,3.66Z"/>
      <path class="cls-2" d="m437.76,59.07c1.36-1.31,2.76-2.66,4.16-4-.15-.35-.29-.69-.44-1.04,6.73.31,13.45.72,20.18.89,7.95.2,15.9.3,23.85.25,8.26-.05,16.53-.63,24.78-.35,2.47.08,4.86,2.25,7.52,3.58-6.46,3.18-77.22,3.22-80.05.68Z"/>
      <path class="cls-2" d="m546.05,44.86c.07-2.15,2.21-3.74,4.76-3.13,1.73.42,2.99,2.76,4.46,4.25-1.59,1.52-2.99,3.94-4.82,4.33-2.65.56-4.51-1.41-4.41-5.45Z"/>
      <path class="cls-2" d="m563.77,51.27c-1.21-1.75-3.41-3.53-3.35-5.24.05-1.54,2.72-4.33,3.95-4.19,1.79.21,4.37,2.38,4.67,4.06.28,1.54-2.02,3.53-3.18,5.33-.69.01-1.39.03-2.08.04Z"/>
    </g>
  </g>
</svg>