<?xml version="1.0" encoding="UTF-8"?>
<svg id="Layer_1" data-name="Layer 1" xmlns="http://www.w3.org/2000/svg" viewBox="0 0 585 149.5">
  <defs>
    <style>
      .cls-1, .cls-2 {
        stroke-width: 0px;
      }

      .cls-2 {
        fill: #fff;
      }
    </style>
  </defs>
  <g id="_1aBUvT.tif" data-name="1aBUvT.tif">
    <g>
      <path class="cls-2" d="m585,149.5c-195,0-390,0-585,0C0,99.67,0,49.83,0,0c195,0,390,0,585,0,0,49.83,0,99.67,0,149.5ZM18.47,21.23c-1.28-1.94-2.04-2.72-2.37-3.65-1.12-3.15-1.97-6.41-3.17-9.53-1.28-3.34-5.77-5.78-6.5-4.02-1.76,4.21-3.01,8.75-3.65,13.26-.41,2.87.78,5.93,1,8.92.75,10.15-.74,20.79,6.96,29.34,1.15,1.28,1.54,3.81,2.83,4.29,5.14,1.91,10.51,3.19,15.76,4.81.88.27,2.13,1.02,2.24,1.7.16,1.02-.27,2.9-.93,3.15-7.51,2.83-5.67,8.98-5.08,14.38.7,6.38,4.06,10.15,10.96,11.73,13.19,3.03,26.18,6.99,39.19,10.77,2.22.65,4.15,2.3,6.41,3.6,1.01,0,2.57-.33,3.93.05,18.24,5.04,36.38,10.41,54.68,15.22,14.44,3.8,29.28,5.14,44.12,3.41,15.64-1.82,31.11-5.26,46.77-6.72,22.76-2.12,45.63-3.28,68.47-4.43,6.05-.31,12.18.92,17.5,1.38,1.5,8.79,2.84,16.71,4.3,25.3,4.78-1.76,4.53,1.91,5.26,4.14h8.79c-1.13-3.75,1.3-4.51,2.84-4.64,1.88-3.28,3.95-5.62,4.58-8.28.93-3.99,1.22-8.23,1.07-12.34-.13-3.59,1.46-5.03,4.47-6.4,8.44-3.81,17.38-5.37,26.47-5.92,12.31-.74,24.67-.85,36.98-1.56,21.75-1.24,43.48-2.89,65.23-4.06,14.85-.8,29.59-2.23,43.88-6.44,7.97-2.34,15.28-5.88,19.1-14.08.42-.9,2.48-1.46,3.79-1.47,10.52-.14,21.04-.22,31.56-.06,4.27.07,6.48-1.61,6.5-5.81.06-10.75.05-21.49,0-32.24-.02-4.02-2.09-5.59-6.18-5.55-11.76.12-23.52-.1-35.28-.05-3.14.01-5.95,0-5.98-3.53-8.59-.93-16.79-2.16-25.04-2.59-5.8-.3-11.65.7-17.48.77-3.98.05-7.98-.44-11.96-.76-2.87-.23-5.73-.85-8.6-.82-4.59.05-9.19.36-13.77.78-9.47.89-18.64-2.19-28.33-1.2-9.47.97-19.26-1.13-28.91-1.82-1.36-.1-2.75.14-4.12.27-3.04.29-6.11,1.02-9.12.84-6.57-.4-13.1-1.55-19.67-1.81-4.37-.18-8.82,1.14-13.18.92-9.64-.49-19.26-1.54-28.88-2.34-1.23-.1-2.47-.19-3.7-.14-8.25.37-16.5.91-24.76,1.15-9.38.28-18.45-2.06-28.18-1.25-13.09,1.08-26.83,1.81-39.9-2.43-.85-.28-1.91-.42-2.75-.18-12.51,3.54-25.2.69-37.79,1.05-3.58.1-5.59-1.87-5.63-5.3-.03-2.54.23-5.24,1.11-7.6,1.69-4.49-1.85-6.41-4.06-8.83-.69-.76-3.3-.87-4.16-.19-3.23,2.54-5.45,5.62-4.35,10.3.74,3.17.59,6.54.91,10.9-7.47,0-14.07-.29-20.63.12-3.42.21-8.01.61-9.87,2.78-4.25,4.94-9.46,4.46-14.75,4.85-3.7.27-7.42.41-11.1.82-10.08,1.12-18.29,5.27-23.42,14.41-1.5,2.68-3.11,5.32-4.92,7.8-2.66,3.66-6.31,5.6-10.23,5.61-3.06-4.73-5.71-8.99-8.55-13.12-.63-.91-1.92-1.95-2.91-1.95-7.73-.04-15.64-.81-23.14.55-8.04,1.46-15.64,2.44-23.13-.73-1.19-8.27-2.35-16.4-3.54-24.72,4.06,1.03,4.13.84,2.81-7.17-.21,1.66-.42,3.33-.8,6.35Z"/>
      <path class="cls-1" d="m18.47,21.23c.38-3.02.59-4.68.8-6.35,1.33,8.01,1.25,8.19-2.81,7.17,1.19,8.32,2.36,16.44,3.54,24.72,7.49,3.17,15.09,2.19,23.13.73,7.5-1.36,15.41-.59,23.14-.55.99,0,2.28,1.04,2.91,1.95,2.84,4.13,5.49,8.38,8.55,13.12,3.92,0,7.57-1.95,10.23-5.61,1.81-2.48,3.42-5.12,4.92-7.8,5.12-9.15,13.34-13.3,23.42-14.41,3.69-.41,7.4-.56,11.1-.82,5.29-.38,10.51.09,14.75-4.85,1.87-2.17,6.46-2.57,9.87-2.78,6.55-.41,13.15-.12,20.63-.12-.33-4.36-.17-7.74-.91-10.9-1.1-4.68,1.12-7.76,4.35-10.3.86-.68,3.47-.57,4.16.19,2.22,2.42,5.75,4.34,4.06,8.83-.88,2.35-1.13,5.06-1.11,7.6.03,3.43,2.05,5.4,5.63,5.3,12.59-.36,25.28,2.49,37.79-1.05.84-.24,1.89-.1,2.75.18,13.07,4.24,26.81,3.52,39.9,2.43,9.73-.81,18.8,1.53,28.18,1.25,8.26-.24,16.51-.78,24.76-1.15,1.23-.06,2.47.03,3.7.14,9.63.8,19.24,1.85,28.88,2.34,4.37.22,8.81-1.1,13.18-.92,6.57.26,13.1,1.42,19.67,1.81,3.01.18,6.07-.55,9.12-.84,1.37-.13,2.76-.37,4.12-.27,9.65.69,19.44,2.79,28.91,1.82,9.69-.99,18.85,2.09,28.33,1.2,4.57-.43,9.18-.74,13.77-.78,2.86-.03,5.73.59,8.6.82,3.98.32,7.98.82,11.96.76,5.83-.08,11.68-1.07,17.48-.77,8.25.42,16.45,1.66,25.04,2.59.04,3.52,2.84,3.54,5.98,3.53,11.76-.05,23.52.17,35.28.05,4.09-.04,6.16,1.53,6.18,5.55.04,10.75.05,21.49,0,32.24-.02,4.2-2.24,5.88-6.5,5.81-10.52-.16-21.04-.07-31.56.06-1.31.02-3.37.57-3.79,1.47-3.82,8.2-11.13,11.74-19.1,14.08-14.29,4.21-29.03,5.64-43.88,6.44-21.75,1.17-43.48,2.82-65.23,4.06-12.32.7-24.67.82-36.98,1.56-9.1.55-18.03,2.11-26.47,5.92-3.01,1.36-4.6,2.8-4.47,6.4.15,4.11-.14,8.35-1.07,12.34-.62,2.67-2.69,5-4.58,8.28-1.54.13-3.97.89-2.84,4.64h-8.79c-.73-2.23-.48-5.9-5.26-4.14-1.46-8.59-2.81-16.51-4.3-25.3-5.32-.46-11.45-1.69-17.5-1.38-22.84,1.15-45.71,2.31-68.47,4.43-15.66,1.46-31.13,4.89-46.77,6.72-14.84,1.73-29.68.39-44.12-3.41-18.3-4.81-36.44-10.18-54.68-15.22-1.36-.38-2.92-.05-3.93-.05-2.26-1.3-4.19-2.95-6.41-3.6-13.01-3.78-25.99-7.75-39.19-10.77-6.9-1.58-10.26-5.35-10.96-11.73-.59-5.4-2.43-11.55,5.08-14.38.66-.25,1.09-2.13.93-3.15-.1-.68-1.36-1.42-2.24-1.7-5.25-1.63-10.62-2.91-15.76-4.81-1.29-.48-1.68-3.01-2.83-4.29-7.7-8.55-6.2-19.19-6.96-29.34-.22-2.99-1.41-6.05-1-8.92.64-4.52,1.89-9.06,3.65-13.26.73-1.75,5.23.68,6.5,4.02,1.19,3.13,2.04,6.38,3.17,9.53.33.93,1.08,1.71,2.37,3.65Zm213.7,63h-23.06c6.39,2.58,21.69,2.36,23.06,0Z"/>
      <path class="cls-2" d="m232.17,84.23c-1.38,2.36-16.68,2.58-23.06,0h23.06Z"/>
    </g>
  </g>
</svg>