<svg id="Layer_1" data-name="Layer 1" xmlns="http://www.w3.org/2000/svg" viewBox="0 0 587.59 106.5">
  
  <g id="BQDkU6.tif">
    <g>
      <path class="cls-1" d="m168.67,106.5h-10.08c-2.02-1.41-5.67-2.72-5.76-4.24-.28-4.8-.08-9.98,1.51-14.45,1.85-5.2,5.64-9.68,8.12-14.7,3.03-6.13-.47-10.66-7.27-10.37-6.71.29-13.47.43-20.14-.14-2.14-.18-5.7-2.72-5.8-4.35-.36-5.91-3.78-6.43-8.32-6.25-3.2.13-6.41-.02-9.62.04-1.81.03-4-.37-5.37.47-6.3,3.86-13.27,4.35-19.64,2.03-3.37-1.23-6.55-1.45-9.82-1.87-5.24-.67-10.53-1.13-15.81-1.38-3.9-.18-5.9,1.92-5.82,5.9.06,2.95.01,5.9.01,9.75-2.15-1.09-3.65-1.68-4.95-2.55-4.91-3.29-9.97-3.44-15.16-.82-2.44,1.23-4.73,2.75-7.16,4.01-4.31,2.22-8.52,4.77-13.07,6.38-4.39,1.56-6.24-.1-6.35-4.72-.25-10.92-.58-21.83-.58-32.75,0-6.93-.41-13.55-4.98-19.34-2.07-2.62-2.3-6.17.26-8.28,2.04-1.68,5.43-2.89,7.99-2.55,4.14.55,8.34,2.06,12.07,4.01,20.25,10.57,42.18,8.8,63.86,9.03,5.92.06,11.84.09,17.76.13.81,0,1.62,0,2.88,0-2.09-3.51-2.4-6.31,1.31-8.05,3.33-1.56,5.77.11,8.32,5.59,1.75,0,3.66-.34,5.39.07,3.67.86,7,1.07,10.7-.5,1.7-.72,4.37.67,6.54,1.28,1.63.46,3.24,1.85,4.76,1.71,10.03-.91,20.05-1.92,30.02-3.32,4.03-.57,9.18.92,11.4-4.51.12-.3.77-.52,1.19-.54,3.92-.16,7.84-.31,11.76-.39,6.34-.13,13.42,2.58,18.69-2.06,4.48-3.94,8.96-2.41,13.61-2.47.56,0,1.12-.17,1.6-.25.39-1.65.73-3.09,1.12-4.75,3.97.24,7.73.48,11.8.73-.7,5.29,2.48,5.66,6.38,5.53,1.72-.06,4.31.09,5.04,1.15,2.48,3.56,5.82,3.98,9.61,3.94,1.84-.02,3.68.3,5.97.51-.89,1.94-1.43,3.14-1.97,4.31,6.69,5.49,14.36,5.62,22.21,4.78,1.16-2.44,2.3-4.83,3.44-7.23-3.35-.67-7.18-.35-8.32-1.94-1.33-1.85-.31-5.37-.31-8.16,3.9,5.49,3.89,5.46,10.97,4.35,1.02-.16,2.12.07,3.16.25,2.63.46,5.24,1.26,7.89,1.46,6.54.49,13.12,1.1,19.66.97,6.8-.14,11.22,6.8,18.24,5.52.1-.02.34.72.57,1.23-3.42.41-6.72.8-10.01,1.19.01.62.02,1.23.03,1.85,2.42.48,4.83,1.3,7.27,1.39,26.53.88,53.09,1.3,79.6,2.6,11.58.57,22.94-1.84,34.57-.77,11.79,1.09,23.74.38,35.62.39,1.3,0,3.49-.08,3.74-.72,1.87-4.68,6.66-8.79,2.97-14.75-.73-1.18-.01-3.39.42-5.03.1-.37,2.49-.69,2.68-.37.89,1.52,1.82,3.23,1.93,4.93.27,4.01.09,8.05.09,12,10.13.84,20.05,1.66,30.08,2.49-.37,1.07-.58,1.68-.42,1.2,9.43-.45,18.89-.22,28.28-.16,1.16,6.54,1.14,6.46,7.61,5.39,4.95-.82,9.95-1.4,14.92-2.09v16.38c-4.8-.83-9.6-1.64-14.39-2.51-6.58-1.19-6.88-1.02-8.29,5.53-6.56,0-13.24.04-19.92-.02-2.1-.02-4.35.09-6.28-.59-6.75-2.35-13.02-2.62-19.45,1.41-2.19,1.37-5.65.73-8.53,1.01-.32-4.3-3.61-2.67-5.84-2.73-3.66-.11-7.34-.08-10.98.29-3.33.34-7.05-1.34-9.88,2.5-.78,1.06-5.68.98-6.31-.04-2.21-3.56-5.34-2.51-7.98-2.21-9.57,1.08-19.31-2.14-28.91,2.1-2.96,1.31-7.64-1.8-11.56-1.9-9.61-.26-19.23.11-28.85.08-4.15-.01-7.78.9-11.71,2.6-4.4,1.9-9.85,2.6-14.6,1.97-2.23-.29-4.74-1.84-7.55-1.98-9.42-.47-18.42,2.68-28.01,2.17-18.87-1.01-37.83-.49-56.75-.56-1.2,0-2.44.12-3.58.45-5.23,1.52-10.4,1.56-16.06-.64,0,4.13-.13,8.06.04,11.98.14,3.2-.89,4.69-4.38,4.74-6.56.09-13.12.43-19.66.9-6.49.47-12.97,1.19-19.45,1.89-2.73.29-3.51-1.1-3.49-3.46.03-4.08,0-8.15,0-12.23-.61,4.48-.52,8.97-.64,13.46-.1,3.71-1.35,7.75-5.15,8.22-6.23.77-12.86,1.14-18.88-.23-4.29-.97-6.69-.54-8.86,2.72-2.78,4.16-5.67,8.29-8,12.7-1.17,2.22-1.85,5.08-1.6,7.54.33,3.29-.16,5.54-3.44,6.73Zm33.1-37.91c-.49-1.95-.83-3.3-1.37-5.46-1.7,1.56-3.85,2.64-3.83,3.68.04,2.11,1.25,4.2,2.07,6.55-4.97-.22-6.27-4.8-8.85-8.01-2.73,5.94-.97,9.06,4.71,9.14,3.8.05,7.61.08,11.41-.02,3.56-.09,5.51-1.8,5.34-5.88h-9.49ZM114.82,16.29c-2.01-1.4-3.14-2.8-4.13-2.7-.98.1-2.31,1.6-2.53,2.68-.15.75,1.41,2.65,2.03,2.58,1.29-.15,2.46-1.27,4.62-2.56Z"/>
      
      
      
      
    </g>
  </g>
</svg>