<?xml version="1.0" encoding="UTF-8"?>
<svg id="Layer_1" data-name="Layer 1" xmlns="http://www.w3.org/2000/svg" viewBox="0 0 586 300">
  <defs>
    <style>
      .cls-1, .cls-2 {
        stroke-width: 0px;
      }

      .cls-2 {
        fill: #fff;
      }
    </style>
  </defs>
  <g id="shSvLW.tif">
    <g>
      <path class="cls-2" d="m0,300V0h586v300H0Zm290.39-66.87c-3.39-1.19-6.18-2.11-8.92-3.14-1.34-.51-3.14-.88-3.78-1.91-2.13-3.41-5.16-4.49-8.88-4.34-2.15.08-4.3.31-6.38.47.26-.5.81-1.55,1.59-3.04-6.75.03-7.81-3.76-7.81-9.11,0-24.91-.18-49.83-.51-74.74-.11-7.8-3.43-11.47-11.22-12.84-4.71-.83-9.55-.98-14.31-1.43-.44-5.39.93-6.87,6.16-7.13,7.97-.4,15.94-.97,23.91-1.31,2.45-.1,5.07-.14,7.35.61,7.47,2.45,7.74,2.39,8.4-5.31.02-.29.27-.56.65-1.3,2.41,0,5.05.06,7.68,0,12.14-.31,24.27-.74,36.41-.97,13.47-.26,27.4-2.96,40.05,3.12,6.11,2.94,10.22-.7,14.87-1.84,2.25-.55,4.55-2.37,7.4-2.37,32.46.04,64.92.07,97.37,0,15.33-.03,30.67-.32,46-.33,1.99,0,3.99,1.02,5.97,1.59,3.11.89,6.21,2.49,8.92-1,2.72-3.5,13.1-3.24,16.04.28,2.59,3.11,5.69,2.81,8.12-.43.92-1.22,2.56-2.44,4.01-2.62,2.91-.36,4.5-1.23,4.79-4.45.13-1.39,1.53-2.83,2.68-3.93,5.7-5.46,8.55-18.05,5.49-25.53-.51-1.25-2.44-2.07-2.65-3.27-.47-2.74-5.37-10.21-7.42-11.34-2.72-1.49-5.32-3.3-7.71-5.29-2.3-1.92-4.42-3.18-6.74-.36-4.89,5.92-12.07,6.21-17.12.6-2.22-2.47-7.17-2.47-8.74.35-1.48,2.66-3.26,2.67-5.8,2.19-3.09-.59-6.26-.98-9.4-.99-21.75-.07-43.5.06-65.26-.01-22.83-.08-45.66-.3-68.5-.53-3.32-.03-6.56.43-9.53-2.58-1.98-2.01-6.32-.8-8.39-3.92-.11-.16-1.41.48-2.17.74-5.04,1.72-10.05,4.81-15.12,4.9-14.55.27-29.13-.79-43.7-1.11-9.45-.21-18.92-.04-28.5-.04-.59-4.76-1.09-8.75-1.64-13.13-5.41,1.2-10.03,2.81-14.73,3.07-3.02.17-6.35-1.24-9.19-2.65-3.26-1.61-5.9-4.6-9.23-5.87-3.59-1.36-7.67-1.42-10.61-1.9-2.82-3.15.69-7.07-4.19-9.7-3.31-1.79-6.07-1.97-9.85-2.35-.62,3.3-1.22,6.46-1.9,10.11-17.79.68-35.7,1.77-53.61,1.86-8.41.04-15.38,2.45-21.98,7.24-1.87,1.36-4.64,2.72-6.69,2.36-6.55-1.18-12.94-3.17-19.79-4.95.73-1.13.96-1.97,1.44-2.14,1.93-.72,4.14-1.51,2.87-3.95-.62-1.2-2.71-2.22-4.2-2.3-8.97-.5-18.03-1.64-26.91-.82-17.15,1.58-31.95-2.36-45.47-13.37-6.99-5.69-15.78-8.97-25.83-5.7-.36,2.03-1.81,4.84-.96,6.42,2.41,4.49.02,7.96-1.25,11.77-.78,2.35-1.8,4.66-2.21,7.08-1.8,10.56-3.48,21.15-5.04,31.75-.34,2.31-.32,4.78.1,7.07,2.07,11.3,8.25,20.82,14.31,30.19,6.53,10.09,14.55,18.09,28.29,18.26,16.61.21,33.26,1.28,49.8,2.92,10,.99,19.02-.45,27.99-4.76,2.85-1.37,6.63-.79,9.17-1.03,1.71,4.71,2.99,8.23,4.3,11.84-4.19,0-8.33.04-12.47-.03-.76-.01-1.65-.3-2.25-.76-7.72-5.99-16.36-4.49-21.74,3.79-.81,1.25-1.53,2.82-2.71,3.53-6.54,3.88-8.01,10.39-8.74,17-.49,4.51-2.56,7.32-5.98,10.05-9.24,7.36-14.91,16.12-14.07,29,1.02,15.72.46,31.56.09,47.33-.17,7.52,1.86,14.04,7.48,18.71,7.77,6.47,12.16,14.19,12.87,24.31.18,2.48,1.89,5.95,3.92,7,5.67,2.93,9.4,9.5,16.82,9.17.41-.02.87.44,1.25.75,4.8,3.91,8.84-5.65,13.8-.82.27.26,2.26-.46,2.5-1.08,1.3-3.39,4.13-2.87,6.71-2.87,26.51-.03,53.02-.05,79.52.02,2.54,0,5.96-1.15,6.6,3.24.05.36,2.42.89,2.54.68,2.72-4.74,5.11-.55,7.83-.37,5.14.33,10.45-2.1,15.68-3.43.4-.1.73-.57,1.03-.93,1.36-1.6,2.81-3.15,4.02-4.86.95-1.34,1.92-2.81,2.29-4.36.39-1.66.09-3.49.09-6.27,8.04,0,15.34.12,22.64-.04,4.59-.1,8.9-1.11,11.12-5.86-2.51-2.62-2.55-31.37.83-36.58Z"/>
      <path class="cls-1" d="m290.39,233.13c-3.37,5.2-3.33,33.96-.83,36.58-2.22,4.75-6.53,5.76-11.12,5.86-7.3.16-14.6.04-22.64.04,0,2.79.3,4.61-.09,6.27-.37,1.55-1.34,3.02-2.29,4.36-1.21,1.71-2.65,3.26-4.02,4.86-.3.35-.63.83-1.03.93-5.23,1.33-10.54,3.76-15.68,3.43-2.72-.17-5.11-4.36-7.83.37-.12.21-2.49-.31-2.54-.68-.63-4.4-4.06-3.24-6.6-3.24-26.51-.07-53.02-.05-79.52-.02-2.59,0-5.41-.52-6.71,2.87-.24.62-2.23,1.34-2.5,1.08-4.96-4.83-9,4.74-13.8.82-.38-.31-.85-.77-1.25-.75-7.43.33-11.15-6.24-16.82-9.17-2.03-1.05-3.75-4.52-3.92-7-.72-10.12-5.1-17.84-12.87-24.31-5.62-4.68-7.66-11.19-7.48-18.71.36-15.78.93-31.62-.09-47.33-.84-12.89,4.84-21.65,14.07-29,3.43-2.73,5.49-5.55,5.98-10.05.73-6.62,2.2-13.13,8.74-17,1.19-.7,1.9-2.28,2.71-3.53,5.38-8.28,14.02-9.78,21.74-3.79.6.46,1.49.75,2.25.76,4.14.07,8.29.03,12.47.03-1.31-3.61-2.59-7.13-4.3-11.84-2.53.24-6.32-.34-9.17,1.03-8.97,4.31-17.98,5.75-27.99,4.76-16.54-1.64-33.18-2.71-49.8-2.92-13.74-.17-21.77-8.17-28.29-18.26-6.06-9.37-12.24-18.89-14.31-30.19-.42-2.29-.44-4.76-.1-7.07,1.56-10.6,3.24-21.19,5.04-31.75.41-2.41,1.42-4.73,2.21-7.08,1.27-3.81,3.66-7.28,1.25-11.77-.85-1.58.6-4.39.96-6.42,10.04-3.27,18.84.01,25.83,5.7,13.51,11.01,28.31,14.94,45.47,13.37,8.87-.82,17.94.32,26.91.82,1.48.08,3.58,1.1,4.2,2.3,1.27,2.45-.94,3.23-2.87,3.95-.48.18-.71,1.02-1.44,2.14,6.85,1.78,13.24,3.77,19.79,4.95,2.04.37,4.82-1,6.69-2.36,6.6-4.79,13.56-7.2,21.98-7.24,17.91-.09,35.82-1.18,53.61-1.86.69-3.65,1.28-6.81,1.9-10.11,3.78.38,6.54.56,9.85,2.35,4.88,2.64,1.37,6.56,4.19,9.7,2.94.48,7.02.54,10.61,1.9,3.34,1.27,5.98,4.26,9.23,5.87,2.84,1.4,6.16,2.82,9.19,2.65,4.69-.26,9.31-1.87,14.73-3.07.55,4.39,1.04,8.37,1.64,13.13,9.58,0,19.04-.17,28.5.04,14.57.32,29.15,1.37,43.7,1.11,5.07-.09,10.08-3.18,15.12-4.9.75-.26,2.06-.9,2.17-.74,2.07,3.12,6.42,1.91,8.39,3.92,2.97,3.02,6.21,2.55,9.53,2.58,22.83.24,45.66.45,68.5.53,21.75.08,43.5-.05,65.26.01,3.14,0,6.31.4,9.4.99,2.54.48,4.32.47,5.8-2.19,1.57-2.83,6.53-2.82,8.74-.35,5.04,5.61,12.23,5.32,17.12-.6,2.32-2.81,4.44-1.56,6.74.36,2.38,1.99,4.98,3.8,7.71,5.29,2.05,1.12,6.95,8.6,7.42,11.34.21,1.2,2.13,2.02,2.65,3.27,3.06,7.48.2,20.07-5.49,25.53-1.14,1.09-2.55,2.54-2.68,3.93-.29,3.21-1.88,4.08-4.79,4.45-1.44.18-3.09,1.4-4.01,2.62-2.43,3.24-5.52,3.53-8.12.43-2.93-3.52-13.32-3.78-16.04-.28-2.71,3.49-5.81,1.89-8.92,1-1.99-.57-3.98-1.59-5.97-1.59-15.33,0-30.67.3-46,.33-32.46.06-64.92.03-97.37,0-2.86,0-5.16,1.82-7.4,2.37-4.65,1.15-8.76,4.78-14.87,1.84-12.65-6.09-26.58-3.38-40.05-3.12-12.14.23-24.27.66-36.41.97-2.63.07-5.27,0-7.68,0-.37.73-.62,1.01-.65,1.3-.66,7.69-.93,7.75-8.4,5.31-2.28-.74-4.9-.71-7.35-.61-7.97.34-15.94.91-23.91,1.31-5.24.26-6.6,1.75-6.16,7.13,4.76.45,9.6.59,14.31,1.43,7.79,1.38,11.11,5.04,11.22,12.84.34,24.91.51,49.82.51,74.74,0,5.34,1.06,9.14,7.81,9.11-.78,1.49-1.32,2.54-1.59,3.04,2.08-.16,4.23-.38,6.38-.47,3.72-.15,6.75.93,8.88,4.34.64,1.03,2.45,1.4,3.78,1.91,2.74,1.04,5.53,1.96,8.92,3.14ZM47.73,107.41c-.14-.55-.14-1.24-.45-1.72-3.96-6-5.28-12.69-5.71-19.74-.1-1.69-1.5-3.51-2.74-4.88-2.97-3.33-2.89-7.49-.01-10.61,1.41-1.52,2.36-3.68,2.91-5.72.76-2.85.28-6.2,1.54-8.73,2.14-4.27,4.46-10.39,8.09-11.6,10.24-3.42,21.17-4.76,31.84-6.88,5.65-1.12,11.32-2.16,16.98-3.24-.04-.65-.08-1.3-.12-1.96-22.42-.1-45.74,3.48-63.9-16.62-1.52,3.06-3.2,4.86-3.04,6.46.41,3.95-.25,6.46-4.7,6.18-.71,2.54-1.42,4.74-1.93,6.98-1.99,8.76-6.72,16.8-6,26.34.26,3.45-2.07,7.09-3.22,10.64-.58-.03-1.16-.06-1.74-.09,4.02,7.76,7.42,15.93,12.23,23.17,4.48,6.74,9.44,14.16,19.95,12.03Zm39.21,142.87v-78.89c-3.93,2.98-5.32,7-5.32,11.98-.01,17.92-.39,35.83-.35,53.75.01,4.53.33,9.35,5.67,13.17ZM379.29,67.96c0,.63,0,1.26,0,1.89h149.24c-.59-.76-1.03-1.82-1.47-1.82-49.26-.07-98.51-.07-147.77-.07Zm1.23,20.13c0,.26,0,.52,0,.79h88.13c0-.26,0-.52,0-.79h-88.13ZM229.62,30.83c-1.27,4.53,1.26,7.09,4.49,7.48,4.51.55,9.2-.31,14.96-.62-5.99-6.53-12.87-5.91-19.45-6.86Zm318.58,35.39c-.67,1.79-1.26,3.37-1.93,5.16h6.96c.22-1.57.43-3.06.65-4.7-2.15-.17-3.92-.32-5.69-.46Zm4.95,25.4c.97-6.47-2.6-5.52-5.18-5.32-.99.08-1.88,1.5-2.82,2.31,2.51.94,5.02,1.89,8,3.01Z"/>
      <path class="cls-2" d="m47.73,107.41c-10.52,2.14-15.47-5.29-19.95-12.03-4.81-7.24-8.22-15.41-12.23-23.17.58.03,1.16.06,1.74.09,1.15-3.55,3.48-7.2,3.22-10.64-.72-9.54,4-17.58,6-26.34.51-2.24,1.22-4.44,1.93-6.98,4.45.28,5.11-2.22,4.7-6.18-.17-1.6,1.52-3.39,3.04-6.46,18.16,20.09,41.48,16.52,63.9,16.62.04.65.08,1.3.12,1.96-5.66,1.08-11.33,2.11-16.98,3.24-10.67,2.12-21.61,3.46-31.84,6.88-3.63,1.21-5.95,7.34-8.09,11.6-1.27,2.53-.78,5.87-1.54,8.73-.55,2.04-1.5,4.19-2.91,5.72-2.88,3.12-2.96,7.29.01,10.61,1.23,1.38,2.63,3.19,2.74,4.88.43,7.05,1.75,13.74,5.71,19.74.32.48.32,1.17.45,1.72Z"/>
      <path class="cls-2" d="m86.94,250.28c-5.34-3.82-5.66-8.64-5.67-13.17-.05-17.92.33-35.83.35-53.75,0-4.97,1.39-8.99,5.32-11.98v78.89Z"/>
      <path class="cls-2" d="m379.29,67.96c49.26,0,98.51,0,147.77.07.44,0,.88,1.06,1.47,1.82h-149.24c0-.63,0-1.26,0-1.89Z"/>
      <path class="cls-2" d="m380.52,88.09h88.13c0,.26,0,.52,0,.79h-88.13c0-.26,0-.52,0-.79Z"/>
      <path class="cls-2" d="m229.62,30.83c6.57.95,13.46.32,19.45,6.86-5.76.32-10.45,1.17-14.96.62-3.22-.39-5.76-2.95-4.49-7.48Z"/>
      <path class="cls-2" d="m548.21,66.21c1.77.14,3.54.28,5.69.46-.23,1.64-.44,3.13-.65,4.7h-6.96c.67-1.79,1.26-3.37,1.93-5.16Z"/>
      <path class="cls-2" d="m553.16,91.62c-2.98-1.12-5.49-2.07-8-3.01.94-.81,1.83-2.23,2.82-2.31,2.58-.2,6.15-1.16,5.18,5.32Z"/>
    </g>
  </g>
</svg>