<?xml version="1.0" encoding="UTF-8"?>
<svg id="Layer_1" data-name="Layer 1" xmlns="http://www.w3.org/2000/svg" viewBox="0 0 292 312">
  <defs>
    <style>
      .cls-1, .cls-2 {
        stroke-width: 0px;
      }

      .cls-2 {
        fill: #fff;
      }
    </style>
  </defs>
  <g id="_8AzBBe.tif" data-name="8AzBBe.tif">
    <g>
      <path class="cls-1" d="m38.8,0C44.78,0,50.76,0,56.75,0c4.07,1.33,8.46,2.09,12.15,4.12,4.99,2.75,9.47,6.42,14.11,9.79,1.65,1.2,3.11,2.68,4.65,4.03,1.15,1.01,2.74,1.8,3.37,3.08,1.05,2.11,1.48,4.53,2.23,6.99,7.55,0,15.01,0,22.46,0s15.1,0,22.53,0v-11.76c-2.61-.44-5.01-1.17-7.4-1.19-12.66-.1-11.68,1.2-10.97-13.16,2.75-.2,5.58-.37,8.41-.6,5.06-.41,10.12-.86,15.18-1.29,4.98,0,9.97,0,14.95,0,1.17.33,2.33.93,3.51.96,4.65.11,9.3.13,13.95.02,3.77-.09,6.06,1.06,5.48,5.37-.15,1.15-.15,2.35,0,3.49.55,4.06-1.59,5.13-5.16,5.21-4.19.09-8.36.55-12.46.84v12.55c3.82-3.92,7.16-7.33,10.44-10.69,5.85,7.53-3.45,8.36-4.08,12.9,5.17.5,10.63.1,15.42,1.72,6.7,2.26,4.35,9.05,4.96,14.46,2.18.41,4.26.68,6.27,1.21,4.83,1.26,10.07,1.8,14.35,4.12,12.7,6.88,24.89,14.71,37.55,21.66,4.16,2.28,7.11,4.94,9.55,9.03,6.5,10.91,13.57,21.47,20.34,32.22,1.64,2.61,3.75,5.27,4.31,8.16,2.03,10.41,3.41,20.94,5.2,31.4,1.17,6.82,2.63,13.59,3.96,20.38v3c-2.33,13.07-4.57,26.16-7.02,39.2-.95,5.05-1.38,10.56-3.77,14.9-6.4,11.6-13.69,22.71-20.72,33.95-2.2,3.52-4.01,7.91-7.23,10.05-9.15,6.07-18.93,11.19-28.47,16.68-5.91,3.4-11.46,8.16-17.83,9.87-10.46,2.82-21.47,3.59-32.22,5.38-7.12,1.18-14.2,2.64-21.3,3.97h-5.98c-11.44-2-22.87-4.07-34.32-5.98-8.9-1.49-17.96-2.13-26.01-7-11.11-6.71-22.44-13.07-33.57-19.74-2.76-1.65-5.79-3.49-7.57-6.04-5.44-7.81-9.98-16.26-15.53-23.99-8.33-11.61-12.8-24.66-15.53-38.45-1.52-7.67-2.79-15.4-3.94-23.14-.66-4.41-1.64-9-1.09-13.33,1.64-12.95,3.93-25.81,6.02-38.7.73-4.48.56-9.55,2.67-13.29,6.6-11.71,13.74-23.15,21.36-34.23,4.3-6.25,7.86-13.52,16.05-16.3,2.94-1,5.39-3.45,7.88-5.11-7.6.44-15.09,1.24-22.57,1.21-12.97-.06-24.33-4.48-33.21-14.26C-5.51,38.68.74,15.29,18.95,7.04,25.32,4.15,32.17,2.32,38.8,0Zm9.14,7.94c-9.51.31-18.81,1.67-27.17,6.66-6.72,4-11.8,9.93-13.61,17.3-2.13,8.68,2.24,16.35,9.35,20.74,17.36,10.73,40.95,12.14,58.56-1.49,2.72-2.11,4.66-5.25,6.89-7.97,2.71-3.31,1.12-5.53-.95-8.85-2.24-3.6-2.06-8.68-3.09-13.07-.33-1.42-.77-3.29-1.8-3.98-8.49-5.71-17.59-9.81-28.18-9.33Zm64.01,26.06c-5.53,0-11.82.13-18.11-.05-3.33-.09-4.23,1.3-4.31,4.44-.06,2.34-.67,4.89-1.78,6.94-2.39,4.38-5.27,8.48-8.05,12.87,9.34-6.94,20.26-10.38,31.69-11.37.2-4.66.37-8.53.56-12.84Z"/>
      <path class="cls-2" d="m38.8,0c-6.63,2.32-13.48,4.15-19.86,7.04C.74,15.29-5.51,38.68,8.08,53.65c8.88,9.78,20.24,14.2,33.21,14.26,7.48.03,14.96-.77,22.57-1.21-2.49,1.67-4.94,4.12-7.88,5.11-8.19,2.78-11.75,10.05-16.05,16.3-7.61,11.07-14.76,22.52-21.36,34.23-2.11,3.74-1.94,8.8-2.67,13.29-2.1,12.89-4.39,25.75-6.02,38.7-.55,4.33.44,8.92,1.09,13.33,1.15,7.74,2.42,15.47,3.94,23.14,2.73,13.79,7.2,26.83,15.53,38.45,5.54,7.73,10.09,16.18,15.53,23.99,1.78,2.55,4.81,4.38,7.57,6.04,11.13,6.67,22.46,13.03,33.57,19.74,8.06,4.87,17.11,5.51,26.01,7,11.45,1.92,22.88,3.98,34.32,5.98H0V0C12.91,0,25.86,0,38.8,0Z"/>
      <path class="cls-2" d="m292,175c-1.33-6.79-2.79-13.56-3.96-20.38-1.79-10.46-3.17-20.99-5.2-31.4-.56-2.9-2.67-5.55-4.31-8.16-6.76-10.75-13.84-21.32-20.34-32.22-2.44-4.09-5.39-6.75-9.55-9.03-12.67-6.95-24.85-14.78-37.55-21.66-4.28-2.32-9.52-2.86-14.35-4.12-2.01-.52-4.09-.79-6.27-1.21-.61-5.41,1.74-12.21-4.96-14.46-4.79-1.61-10.26-1.22-15.42-1.72.64-4.54,9.93-5.37,4.08-12.9-3.28,3.36-6.62,6.77-10.44,10.69v-12.55c4.1-.29,8.28-.75,12.46-.84,3.58-.08,5.71-1.15,5.16-5.21-.15-1.15-.15-2.35,0-3.49.57-4.31-1.71-5.46-5.48-5.37-4.65.11-9.3.09-13.95-.02-1.18-.03-2.34-.62-3.51-.96C202.95,0,247.47,0,292,0v175Z"/>
      <path class="cls-2" d="m153.44,312c7.1-1.33,14.18-2.78,21.3-3.97,10.75-1.79,21.76-2.56,32.22-5.38,6.36-1.72,11.92-6.47,17.83-9.87,9.54-5.49,19.32-10.61,28.47-16.68,3.22-2.13,5.02-6.53,7.23-10.05,7.03-11.24,14.32-22.35,20.72-33.95,2.39-4.34,2.82-9.85,3.77-14.9,2.45-13.05,4.7-26.13,7.02-39.2v134h-138.56Z"/>
      <path class="cls-2" d="m143.47,0c-5.06.43-10.12.88-15.18,1.29-2.83.23-5.67.41-8.41.6-.71,14.36-1.7,13.06,10.97,13.16,2.4.02,4.79.75,7.4,1.19v11.76c-7.43,0-14.98,0-22.53,0s-14.91,0-22.46,0c-.75-2.46-1.18-4.87-2.23-6.99-.63-1.27-2.21-2.07-3.37-3.08-1.55-1.35-3-2.83-4.65-4.03-4.63-3.37-9.12-7.04-14.11-9.79C65.2,2.09,60.82,1.33,56.75,0c28.91,0,57.82,0,86.72,0Z"/>
      <path class="cls-2" d="m47.94,7.94c10.59-.49,19.68,3.62,28.18,9.33,1.03.69,1.47,2.57,1.8,3.98,1.03,4.4.85,9.47,3.09,13.07,2.07,3.32,3.66,5.55.95,8.85-2.23,2.72-4.17,5.86-6.89,7.97-17.61,13.63-41.2,12.22-58.56,1.49-7.1-4.39-11.48-12.05-9.35-20.74,1.81-7.37,6.9-13.3,13.61-17.3,8.37-4.98,17.66-6.35,27.17-6.66Z"/>
      <path class="cls-2" d="m111.95,34c-.19,4.31-.36,8.18-.56,12.84-11.43.99-22.35,4.43-31.69,11.37,2.79-4.39,5.67-8.5,8.05-12.87,1.12-2.04,1.73-4.6,1.78-6.94.08-3.14.97-4.54,4.31-4.44,6.29.18,12.58.05,18.11.05Z"/>
    </g>
  </g>
</svg>