<svg id="Layer_1" data-name="Layer 1" xmlns="http://www.w3.org/2000/svg" viewBox="0 0 307 319">
  
  <g id="Nanj6w.tif">
    <g>
      <path class="cls-1" d="m221.28,0c.33,0,.66,0,1,0,3.59,4.36,7.36,8.6,10.71,13.14,2.43,3.29,1.8,6.6-1.59,9.03-1.15.83-2.59,1.38-3.98,1.7-5.19,1.19-10.16,2.23-15.13,4.89-4.91,2.63-11.51,1.9-17.25,3.2-8.28,1.89-18.15-1.85-24.14,6.66-.5,4.27-1.18,8.39-1.33,12.52-.04,1.19,1.26,3.13,2.33,3.45,1.09.33,2.86-.65,3.97-1.52,2.22-1.75,4.2-3.81,7.49-6.86,2.1,7.5,3.73,13.31,5.43,19.39,2.18.37,4.58.78,6.99,1.2,6.54,1.13,7.9,2.64,8.26,9.16.32,5.8,6.5,14.14,11.31,14.74,4.82.6,8.98,2.89,13.31,4.68,7.57,3.14,14.7,7,19.67,13.9.55.77,1.51,1.24,2.12,1.98,5.15,6.27,10.74,12.25,15.24,18.96,4.01,5.98,5.98,13.44,10.4,19.01,3.55,4.47,9.48,7.03,14.25,10.58,3.22,2.4,6.25,5.04,10.26,8.31,3.24-1.32,4.9,1.85,5.24,5.61.43,4.78.75,9.74-.12,14.4-.62,3.26.69,9.08-6.04,8.55-.21-.02-.64,1.37-.79,2.13-.48,2.39-.87,4.79-1.25,6.92-8.49,5.34-14.17,13.01-17.23,22.08-4.38,13-10.04,25.14-18.19,36.2-10.75,14.58-22.57,27.71-40.8,32.88-7.39,2.1-13.61,5.21-15.74,13.47-1.6,6.22-5.71,7.91-12.16,7.78-22.58-.45-45.18-.25-67.77-.11-4.35.03-6.62-2.14-8.13-5.71-.89-2.09-1.8-4.18-2.47-6.35-1.19-3.83-4.09-5.66-7.59-6.91-11.03-3.95-21.52-8.1-30.51-16.67-15.31-14.6-26.57-31.24-33.27-51.19-3.37-10.02-8.31-19.02-17.63-24.89-.64-.4-1.03-1.49-1.18-2.32-.51-2.85-.86-5.72-1.28-8.58-.32.27-.64.54-.96.81-1.58-1.06-4.47-2.05-4.53-3.18-.4-7.81-.21-15.64-.21-23.48,4.2-.28,8.41.9,9.11-4.58.08-.65,1.5-1.15,2.33-1.68,4.24-2.71,8.77-5.07,12.65-8.21,2.66-2.15,4.77-5.19,6.52-8.19,2.45-4.21,3.6-9.36,6.61-13.03,9.27-11.31,19.13-22.15,28.88-33.06,1.24-1.39,3.12-2.38,4.89-3.1,6.41-2.6,13.21-4.42,19.27-7.66,6.13-3.28,12.47-7.22,10.51-16.28-.23-1.06,1.23-3.16,2.41-3.72,4.24-1.99,8.7-3.52,13.47-5.37-.47-3.21-.39-6.63,3.22-8.89.64-.4.22-2.24.76-3.14.85-1.42,1.91-3.46,3.19-3.72,4.2-.86,4.48,2.65,5,5.82,1.54-.07,2.95-.14,4.57-.22,0-1.63-.12-2.94.02-4.22.7-6.2.29-12.84,2.47-18.48,3.98-10.27,12.77-15.38,23.61-16.38,6.07-.56,12.24,0,18.3-.57,5.78-.54,11.49-1.14,15.47-6.92,2.32-3.37,6.62-5.37,10.03-7.99Z"/>
      
    </g>
  </g>
</svg>