<?xml version="1.0" encoding="UTF-8"?>
<svg id="Layer_1" data-name="Layer 1" xmlns="http://www.w3.org/2000/svg" viewBox="0 0 143 389">
  <defs>
    <style>
      .cls-1, .cls-2 {
        stroke-width: 0px;
      }

      .cls-2 {
        fill: #fff;
      }
    </style>
  </defs>
  <g id="RdH4cy.tif">
    <g>
      <path class="cls-1" d="m56.6,0h29.79c1.98,1.1,3.95,2.2,5.93,3.29,5.26,2.91,10.38,6.1,15.8,8.66,8.04,3.8,16.45,6.86,24.36,10.89,2.07,1.05,4.28,6.51,4.11,6.63-4.7,3.33-2.79,8.15-2.85,12.3-.06,3.66-1.01,5.98-4.74,7.03-1.06.3-2.31,1.75-2.53,2.86-1.39,6.94,2.29,14.91-4.29,20.79v27.53c5.46,1.18,10.41,1.83,15.06,3.36,4.85,1.59,5.37,4.13,2.39,8.18-1.67,2.27-3.32,4.58-5.25,6.62-3.53,3.73-4.45,7.99-4.46,13.1-.06,39.21-.13,78.42-.84,117.62-.19,10.49.43,19.87,8.86,27.29,1.74,1.53,2.46,4.22,4.16,7.29h-33.14c1.62,1.51,3.38,2.22,5.17,2.81q7.17,2.35,7.19,10.11c0,6.31-.03,12.63.03,18.94.01,1.27-.06,3.22.66,3.69,5.27,3.42,3.78,8.68,4.12,13.51.14,2.05.05,5.13,1.25,5.92,6.18,4.06,5.74,9.73,5,15.83-.18,1.49.46,3.64,1.51,4.62,3.57,3.31,3.53,4.36-.78,6.47-14.31,7.03-30.29,10.75-42.61,21.79-.88.79-2.83.55-4.27.53-11.08-.18-22.16-.43-33.24-.66-.83-.02-2.19.25-2.4-.12-2.99-5.49-9.02-5.44-13.71-7.83-3.39-1.73-6.39-4.29-9.85-5.85-6.57-2.98-13.37-5.47-20.02-8.28-.94-.4-2.29-1.51-2.24-2.19.08-.96,1.39-1.77,1.99-2.75.67-1.09,1.55-2.29,1.6-3.48.19-4.25.08-8.51.08-12.89,2.6-.32,4.49-.56,6.76-.84,0-5.71,0-11.16,0-16.62,0-3.05-.87-6.4,3.43-7.7.61-.18.91-2.23.93-3.43.11-6.46.08-12.92.12-19.39.05-6.81,2.37-9.23,9-9.51,1.68-.07,3.35-.3,5.03-.45-.03-.35-.06-.69-.09-1.04-11.21-.45-22.42-.9-33.63-1.36v-3.99c5.88-4.87,11.46-9.62,11.4-18.51-.29-44.84-.29-89.69-.44-134.53,0-1.77.17-4.03-.78-5.23C7.05,117.05,3.43,113.46,0,109.72c0-.66,0-1.33,0-1.99,3.07-1.68,6.02-3.62,9.24-4.93,2.08-.85,4.52-.9,6.81-1.1,3.02-.26,4.15-1.61,4.1-4.78-.11-7.3.28-14.6.24-21.9,0-1.68-.65-4.58-1.53-4.81-3.79-.96-3.15-3.69-3.24-6.25-.13-3.48.07-7.02-.5-10.43-.29-1.76-1.58-4.01-3.06-4.77-3.3-1.69-4.33-3.91-4.2-7.51.11-3.16.24-6.94-1.29-9.41-3.28-5.3-3.12-7.39,2.83-9.89,12.81-5.38,25.65-10.7,38.47-16.06.43-.18,1.04-.51,1.12-.87.91-4.22,4.87-3.67,7.61-5.01Z"/>
      <path class="cls-2" d="m0,283.27c11.21.45,22.42.9,33.63,1.36.03.35.06.69.09,1.04-1.68.15-3.35.38-5.03.45-6.63.28-8.95,2.7-9,9.51-.04,6.46,0,12.93-.12,19.39-.02,1.19-.32,3.25-.93,3.43-4.29,1.29-3.42,4.64-3.43,7.7,0,5.45,0,10.91,0,16.62-2.27.28-4.17.52-6.76.84,0,4.38.12,8.64-.08,12.89-.05,1.19-.94,2.39-1.6,3.48-.6.99-1.91,1.79-1.99,2.75-.05.68,1.3,1.79,2.24,2.19,6.65,2.81,13.45,5.3,20.02,8.28,3.45,1.57,6.45,4.12,9.85,5.85,4.69,2.39,10.72,2.34,13.71,7.83.2.37,1.57.11,2.4.12,11.08.23,22.16.48,33.24.66,1.45.02,3.39.26,4.27-.53,12.31-11.04,28.3-14.76,42.61-21.79,4.3-2.11,4.34-3.17.78-6.47-1.06-.98-1.69-3.13-1.51-4.62.74-6.1,1.18-11.77-5-15.83-1.2-.79-1.11-3.87-1.25-5.92-.34-4.82,1.15-10.09-4.12-13.51-.72-.47-.65-2.42-.66-3.69-.06-6.31-.02-12.63-.03-18.94q0-7.77-7.19-10.11c-1.79-.59-3.55-1.29-5.17-2.81h33.14c-1.7-3.07-2.43-5.76-4.16-7.29-8.42-7.42-9.05-16.8-8.86-27.29.71-39.2.78-78.41.84-117.62,0-5.11.93-9.37,4.46-13.1,1.93-2.04,3.58-4.35,5.25-6.62,2.98-4.05,2.45-6.59-2.39-8.18-4.66-1.53-9.6-2.18-15.06-3.36v-27.53c6.58-5.88,2.91-13.85,4.29-20.79.22-1.11,1.47-2.56,2.53-2.86,3.73-1.05,4.68-3.37,4.74-7.03.06-4.15-1.85-8.97,2.85-12.3.18-.12-2.04-5.58-4.11-6.63-7.92-4.03-16.32-7.09-24.36-10.89-5.42-2.56-10.54-5.75-15.8-8.66-1.98-1.1-3.96-2.19-5.93-3.29h56.6v389c-47.67,0-95.33,0-143,0C0,353.76,0,318.51,0,283.27Z"/>
      <path class="cls-2" d="m56.6,0c-2.74,1.34-6.71.8-7.61,5.01-.08.36-.69.69-1.12.87-12.82,5.36-25.66,10.68-38.47,16.06-5.95,2.5-6.11,4.59-2.83,9.89,1.53,2.47,1.4,6.25,1.29,9.41-.12,3.6.9,5.81,4.2,7.51,1.48.76,2.76,3.01,3.06,4.77.57,3.41.38,6.94.5,10.43.09,2.57-.55,5.29,3.24,6.25.88.22,1.52,3.13,1.53,4.81.04,7.3-.35,14.6-.24,21.9.05,3.17-1.09,4.52-4.1,4.78-2.3.2-4.74.25-6.81,1.1-3.21,1.31-6.17,3.26-9.24,4.93C0,71.92,0,36.12,0,0h56.6Z"/>
      <path class="cls-2" d="m0,109.72c3.43,3.74,7.05,7.33,10.18,11.3.95,1.2.78,3.46.78,5.23.15,44.84.15,89.69.44,134.53C11.46,269.66,5.88,274.41,0,279.28,0,222.76,0,166.24,0,109.72Z"/>
    </g>
  </g>
</svg>