<svg id="Layer_1" data-name="Layer 1" xmlns="http://www.w3.org/2000/svg" viewBox="0 0 197 178">
  
  <g id="KUFbVe.tif">
    <g>
      <path class="cls-1" d="m0,81.54v-2.98c5.7-9.26,13.77-16.09,22.05-22.99,5.11-4.26,9.97-9.84,10.2-17.55.12-3.76,1.83-5.83,6.01-4.85,3.48.82,4.67-.79,4.82-4.22.08-1.75,1.01-4.07,2.35-5.03,4.01-2.89,8.3-5.43,12.69-7.71,2-1.04,4.67-.76,6.74-1.72,7.95-3.66,15.76-7.64,23.68-11.36,1.44-.68,3.24-1.21,4.76-1,19.29,2.7,38.62,5.34,55.77,15.62,1.68-5.28,6.2-2.02,9.49-2.56,2.97-.49,4.55.83,4.5,4.17-.18,11.63,6.39,20.67,11.8,30.17,2.43,4.26,5.07,8.5,6.77,13.06,3.35,8.99,4.91,18.85,9.41,27.16,6.73,12.44,2.44,21.92-4.99,31.49-.61.78-1.22,1.57-1.79,2.39-5.43,7.87-10.84,15.75-15.77,22.9,2.87,5.1,5.39,9.59,8.08,14.37-8.47,4.81-15.79,9.36-23.5,13.12-2.57,1.25-6.12.57-9.23.61-1.85.02-3.88-.86-5.52-.35-18.66,5.8-36.75,2.27-53.68-5.3-7.2-3.22-12.55-4-18.99-.34-.24.13-.63-.01-1.35-.05-1.02-1.61-1.93-3.63-3.38-5.14-1.4-1.45-3.51-3.51-5.05-3.31-6.58.86-10.88-2.4-15.12-6.62-1.42-1.42-3.82-1.83-5.72-2.8-1.74-.89-3.51-1.77-5.09-2.89-5.9-4.18-11.81-8.34-17.54-12.74-2.12-1.63-4.73-3.64-5.39-5.97-2.23-7.87-4.15-15.9-5.32-23.99-1.13-7.78-1.18-15.72-1.7-23.6Z"/>
      
    </g>
  </g>
</svg>