<?xml version="1.0" encoding="UTF-8"?>
<svg id="Layer_1" data-name="Layer 1" xmlns="http://www.w3.org/2000/svg" viewBox="0 0 793.19 790.88">
  <defs>
    <style>
      .cls-1, .cls-2 {
        stroke-width: 0px;
      }

      .cls-2 {
        fill: #fff;
      }
    </style>
  </defs>
  <g id="_4X1oZu.tif" data-name="4X1oZu.tif">
    <g>
      <path class="cls-2" d="m793.19,790.88H0V0h793.19v790.88ZM327.97,198.91c.85,183.58,1.71,366.37,2.56,548.76h77.43c-.73-183.71-1.46-366.6-2.18-550.06-7.21.38-13.55.49-19.84,1.12-5.14.52-8.48-.68-10.49-5.99-4.11-10.86-9.04-21.42-13.18-32.27-5.04-13.21-10.36-26.4-14.19-39.98-3.5-12.4-2.24-25.75,6.82-35.01,12.68-12.96,26.47-25.38,41.6-35.24,15.79-10.29,33.55-8.05,49.23,2.27,12.39,8.15,24,17.5,35.81,26.53,10.59,8.1,18.48,17.89,22.69,31.12,4.63,14.53,10.37,28.85,17.19,42.48,5.61,11.2,13.5,21.26,20.39,31.83.55-4.91.69-10.3-1.28-14.76-5.25-11.92-11.75-23.28-17.09-35.17-4.05-9.01-7.4-18.37-10.45-27.77-3.26-10.05-7.93-19.01-16.26-25.74-12.1-9.78-24.09-19.69-36.37-29.24-13.12-10.2-27.57-16.64-44.77-16.48-15.06.14-26.62,7.65-37.83,16.06-8.08,6.06-16.12,12.38-23.13,19.6-13.55,13.97-21.46,30.61-15.94,50.39,4.16,14.92,10.13,29.35,15.6,43.89,3.51,9.35,6.41,18.37,1.32,28.26-2.41,4.69-5.37,5.93-10.26,5.51-5.31-.45-10.7-.1-17.37-.1Z"/>
      <path class="cls-1" d="m327.97,198.91c6.67,0,12.05-.35,17.37.1,4.89.42,7.85-.83,10.26-5.51,5.09-9.89,2.19-18.91-1.32-28.26-5.46-14.54-11.44-28.97-15.6-43.89-5.51-19.78,2.39-36.42,15.94-50.39,7.01-7.22,15.05-13.54,23.13-19.6,11.21-8.4,22.77-15.92,37.83-16.06,17.2-.16,31.65,6.28,44.77,16.48,12.28,9.55,24.28,19.46,36.37,29.24,8.33,6.73,13,15.69,16.26,25.74,3.05,9.4,6.41,18.76,10.45,27.77,5.34,11.88,11.84,23.25,17.09,35.17,1.97,4.46,1.83,9.86,1.28,14.76-6.88-10.57-14.78-20.63-20.39-31.83-6.82-13.63-12.57-27.95-17.19-42.48-4.21-13.23-12.1-23.02-22.69-31.12-11.8-9.03-23.41-18.38-35.81-26.53-15.68-10.32-33.44-12.56-49.23-2.27-15.13,9.86-28.92,22.28-41.6,35.24-9.07,9.26-10.32,22.61-6.82,35.01,3.83,13.58,9.15,26.76,14.19,39.98,4.14,10.85,9.07,21.41,13.18,32.27,2.01,5.31,5.35,6.51,10.49,5.99,6.29-.64,12.63-.74,19.84-1.12.73,183.46,1.45,366.35,2.18,550.06h-77.43c-.85-182.39-1.7-365.18-2.56-548.76Z"/>
    </g>
  </g>
</svg>