<?xml version="1.0" encoding="UTF-8"?>
<svg id="Layer_1" data-name="Layer 1" xmlns="http://www.w3.org/2000/svg" viewBox="0 0 616.75 705.03">
  <defs>
    <style>
      .cls-1, .cls-2 {
        stroke-width: 0px;
      }

      .cls-2 {
        fill: #fff;
      }
    </style>
  </defs>
  <g id="Nlw0M7.tif">
    <g>
      <path class="cls-2" d="m616.75,705.03c-205.58,0-411.16,0-616.75,0C0,470.02,0,235.01,0,0c205.58,0,411.16,0,616.75,0,0,235.01,0,470.02,0,705.03Zm-259.64-112.81c.21,0,.42,0,.64,0,0-9.95.08-19.91-.02-29.86-.14-14.14-.6-28.27-.59-42.41.01-18.74.46-37.47.51-56.21.04-14.29-.38-28.58-.38-42.87,0-20.05.28-40.1.31-60.16.02-13.45-.3-26.89-.24-40.34.08-18.65.4-37.31.54-55.96.07-8.92-.1-17.83-.02-26.75.01-1.39.34-3.37,1.27-4.05,4.75-3.48,8.8-8.76,15.91-6.97,1.14.29,2.41.03,3.59.21,3.64.55,5.03-1.64,5.35-4.65.39-3.7.58-7.45.56-11.17-.11-15.37-.42-30.74-.49-46.11-.06-13.86.11-27.72.14-41.59.02-10.91-.46-21.85.15-32.72.31-5.49-.77-9.11-5.59-12.03-2.69-1.63-5.56-4.24-6.58-7.05-1.52-4.19-2.09-8.97-1.96-13.46.17-5.84-3.48-8.14-7.77-9.43-20.49-6.17-40.92-12.64-62.91-8.33-11.39,2.23-22.31,5.14-32.06,11.82-5.05,3.46-10.46,6.49-16,9.08-3.34,1.56-5.28,3.73-5.52,7.12-.34,4.8-.26,9.64-.24,14.47.03,9.74.22,19.48.18,29.22-.06,14.31-.41,28.62-.39,42.93.02,14.57.47,29.14.49,43.71,0,8.12-.18,8.01,8.04,10.65,1.55.5,3.64,2.14,3.84,3.5,1.07,7.28,1.8,14.63,2.29,21.97.25,3.84,3.35,5.7,5.61,5.34,8.23-1.31,6.29,3.88,6.15,8.31-.08,2.35.38,4.72.36,7.08-.13,18.82-.44,37.65-.45,56.47-.01,27.07.25,54.14.26,81.2,0,19.28-.28,38.55-.29,57.83,0,14.62.33,29.24.29,43.87-.05,18.12-.45,36.24-.47,54.36-.02,14.4.36,28.8.45,43.2.07,12.03.21,24.07-.13,36.09-.25,9.05-1.78,18.08-1.58,27.1.09,3.92,2.09,8.87,4.94,11.44,6.05,5.47,13.71,8.36,21.91,10,15.71,3.14,30.94,1.47,46.05-3.21,10.07-3.12,16.35-12.14,15.33-22.52-.28-2.9-1.39-5.75-1.41-8.63-.14-16.83-.07-33.67-.07-50.5Z"/>
      <path class="cls-1" d="m357.11,592.23c0,16.83-.07,33.67.07,50.5.02,2.88,1.13,5.73,1.41,8.63,1.02,10.37-5.26,19.4-15.33,22.52-15.11,4.68-30.34,6.35-46.05,3.21-8.2-1.64-15.85-4.53-21.91-10-2.85-2.58-4.86-7.52-4.94-11.44-.2-9.02,1.33-18.05,1.58-27.1.33-12.02.2-24.06.13-36.09-.09-14.4-.46-28.8-.45-43.2.02-18.12.42-36.24.47-54.36.04-14.62-.3-29.24-.29-43.87.01-19.28.3-38.55.29-57.83-.01-27.07-.27-54.14-.26-81.2.01-18.82.32-37.65.45-56.47.02-2.36-.44-4.72-.36-7.08.14-4.43,2.08-9.62-6.15-8.31-2.26.36-5.36-1.5-5.61-5.34-.49-7.35-1.22-14.69-2.29-21.97-.2-1.36-2.29-3-3.84-3.5-8.22-2.64-8.03-2.53-8.04-10.65-.01-14.57-.46-29.14-.49-43.71-.02-14.31.32-28.62.39-42.93.04-9.74-.15-19.48-.18-29.22-.01-4.82-.1-9.66.24-14.47.24-3.39,2.18-5.55,5.52-7.12,5.54-2.6,10.95-5.63,16-9.08,9.75-6.67,20.66-9.59,32.06-11.82,21.99-4.3,42.42,2.16,62.91,8.33,4.29,1.29,7.94,3.59,7.77,9.43-.13,4.49.43,9.27,1.96,13.46,1.02,2.81,3.89,5.42,6.58,7.05,4.82,2.92,5.9,6.54,5.59,12.03-.6,10.88-.12,21.81-.15,32.72-.03,13.86-.2,27.72-.14,41.59.07,15.37.38,30.74.49,46.11.03,3.72-.16,7.47-.56,11.17-.32,3-1.71,5.19-5.35,4.65-1.18-.18-2.45.08-3.59-.21-7.11-1.79-11.16,3.49-15.91,6.97-.93.68-1.25,2.66-1.27,4.05-.08,8.92.08,17.83.02,26.75-.14,18.65-.46,37.31-.54,55.96-.06,13.45.26,26.89.24,40.34-.03,20.05-.31,40.1-.31,60.16,0,14.29.42,28.58.38,42.87-.05,18.74-.5,37.47-.51,56.21-.01,14.14.45,28.27.59,42.41.1,9.95.02,19.91.02,29.86-.21,0-.42,0-.64,0Z"/>
    </g>
  </g>
</svg>