<svg id="Layer_1" data-name="Layer 1" xmlns="http://www.w3.org/2000/svg" viewBox="0 0 245 479">
  
  <g id="Yag1Uh.tif">
    <g>
      <path class="cls-1" d="m105.57,0c11.62,0,23.24,0,34.86,0,1.05.35,2.1.98,3.16,1.02,20.48.71,40.96,1.43,61.45,1.96,13.61.35,20.96,7.56,21,21.01,0,2.99.03,5.99.03,8.98,0,9.09,0,18.17,0,27.86h14.71v154.78c-10.45,0-20.55.07-30.64-.04-3.29-.04-4.71.91-3.14,4.99,10.07,0,20.33.15,30.59-.08,3.77-.09,6.37.87,6.21,4.89-.13,3.52-1.9,5.38-6.09,5.23-10.05-.36-20.13-.12-30.75-.12v21.08h33.82c.13,1.03.27,1.67.27,2.3,0,47.05-.05,94.11,0,141.16,0,4-1.88,5.24-5.51,5.14-4.53-.12-9.06-.03-14.15-.03q5.62,6.9,5.62,15.74c0,10.47-.17,20.95.06,31.42.08,3.84-.53,6.83-4.3,8.49-3.23,1.43-3.74,4.11-3.74,7.35,0,4.4-.49,8.79-.86,14.46-19.73-1.42-38.72-2.56-57.65-4.28-5.22-.47-10.24-3.66-15.42-3.87-14.25-.58-28.53-.29-42.8-.21-1.02,0-2.06,1.02-3.06,1.63-1.63,1-3.1,2.62-4.85,3.01-17.15,3.86-34.59,3.08-51.99,3.13-4.75.01-9.49,0-14.54,0,0-4.49-.24-8.46.06-12.4.32-4.13-.65-7.2-4.16-9.84-1.62-1.21-2.74-4.06-2.81-6.2-.29-9.3-.29-18.62-.03-27.93.2-7.09-2.88-15.07,5.82-20.21l-1.04-.8H6.19v-148.29h34.11v-19.41c-11.11-.48-21.86-.77-32.58-1.53C5.09,230.21,2.57,228.52,0,227.53c0-1,0-2,0-2.99,2.02-1,4.03-2.8,6.07-2.86,11.39-.28,22.79-.13,34.55-.13-.13-2.32-.22-3.9-.34-6.02H6.05V60.53h14.86c0-14.21-.02-27.82.02-41.42,0-1.46-.22-3.54.61-4.27,4.26-3.77,8.41-9.34,13.37-10.32,11.83-2.35,24.09-2.81,36.21-3.41,9.93-.5,19.91-.06,29.87-.15,1.53-.01,3.05-.62,4.58-.96Z"/>
      
      
    </g>
  </g>
</svg>