<?xml version="1.0" encoding="UTF-8"?>
<svg id="Layer_1" data-name="Layer 1" xmlns="http://www.w3.org/2000/svg" viewBox="0 0 245 479">
  <defs>
    <style>
      .cls-1, .cls-2 {
        stroke-width: 0px;
      }

      .cls-2 {
        fill: #fff;
      }
    </style>
  </defs>
  <g id="Yag1Uh.tif">
    <g>
      <path class="cls-1" d="m105.57,0c11.62,0,23.24,0,34.86,0,1.05.35,2.1.98,3.16,1.02,20.48.71,40.96,1.43,61.45,1.96,13.61.35,20.96,7.56,21,21.01,0,2.99.03,5.99.03,8.98,0,9.09,0,18.17,0,27.86h14.71v154.78c-10.45,0-20.55.07-30.64-.04-3.29-.04-4.71.91-3.14,4.99,10.07,0,20.33.15,30.59-.08,3.77-.09,6.37.87,6.21,4.89-.13,3.52-1.9,5.38-6.09,5.23-10.05-.36-20.13-.12-30.75-.12v21.08h33.82c.13,1.03.27,1.67.27,2.3,0,47.05-.05,94.11,0,141.16,0,4-1.88,5.24-5.51,5.14-4.53-.12-9.06-.03-14.15-.03q5.62,6.9,5.62,15.74c0,10.47-.17,20.95.06,31.42.08,3.84-.53,6.83-4.3,8.49-3.23,1.43-3.74,4.11-3.74,7.35,0,4.4-.49,8.79-.86,14.46-19.73-1.42-38.72-2.56-57.65-4.28-5.22-.47-10.24-3.66-15.42-3.87-14.25-.58-28.53-.29-42.8-.21-1.02,0-2.06,1.02-3.06,1.63-1.63,1-3.1,2.62-4.85,3.01-17.15,3.86-34.59,3.08-51.99,3.13-4.75.01-9.49,0-14.54,0,0-4.49-.24-8.46.06-12.4.32-4.13-.65-7.2-4.16-9.84-1.62-1.21-2.74-4.06-2.81-6.2-.29-9.3-.29-18.62-.03-27.93.2-7.09-2.88-15.07,5.82-20.21l-1.04-.8H6.19v-148.29h34.11v-19.41c-11.11-.48-21.86-.77-32.58-1.53C5.09,230.21,2.57,228.52,0,227.53c0-1,0-2,0-2.99,2.02-1,4.03-2.8,6.07-2.86,11.39-.28,22.79-.13,34.55-.13-.13-2.32-.22-3.9-.34-6.02H6.05V60.53h14.86c0-14.21-.02-27.82.02-41.42,0-1.46-.22-3.54.61-4.27,4.26-3.77,8.41-9.34,13.37-10.32,11.83-2.35,24.09-2.81,36.21-3.41,9.93-.5,19.91-.06,29.87-.15,1.53-.01,3.05-.62,4.58-.96Z"/>
      <path class="cls-2" d="m0,227.53c2.57,1,5.09,2.68,7.72,2.87,10.72.75,21.47,1.05,32.58,1.53v19.41H6.19v148.29h19.51l1.04.8c-8.7,5.14-5.63,13.12-5.82,20.21-.26,9.3-.26,18.63.03,27.93.07,2.14,1.19,4.99,2.81,6.2,3.52,2.64,4.48,5.71,4.16,9.84-.3,3.94-.06,7.92-.06,12.4,5.04,0,9.79,0,14.54,0,17.39-.04,34.84.73,51.99-3.13,1.75-.39,3.22-2.01,4.85-3.01.99-.61,2.03-1.63,3.06-1.63,14.27-.08,28.55-.38,42.8.21,5.18.21,10.2,3.4,15.42,3.87,18.93,1.72,37.92,2.87,57.65,4.28.36-5.66.86-10.06.86-14.46,0-3.24.51-5.92,3.74-7.35,3.77-1.66,4.38-4.66,4.3-8.49-.23-10.47-.07-20.95-.06-31.42q0-8.84-5.62-15.74c5.09,0,9.62-.09,14.15.03,3.64.1,5.52-1.14,5.51-5.14-.04-47.05,0-94.11,0-141.16,0-.63-.15-1.27-.27-2.3h-33.82v-21.08c10.62,0,20.69-.24,30.75.12,4.19.15,5.96-1.72,6.09-5.23.15-4.02-2.44-4.97-6.21-4.89-10.25.23-20.51.08-30.59.08-1.57-4.08-.15-5.03,3.14-4.99,10.1.11,20.2.04,30.64.04V60.83h-14.71c0-9.68,0-18.77,0-27.86,0-2.99-.02-5.99-.03-8.98-.04-13.45-7.39-20.66-21-21.01-20.49-.53-40.97-1.26-61.45-1.96C142.53.98,141.48.35,140.43,0h104.57c0,159.67,0,319.33,0,479-81.67,0-163.33,0-245,0C0,395.18,0,311.35,0,227.53Z"/>
      <path class="cls-2" d="m105.57,0c-1.53.33-3.05.94-4.58.96-9.96.09-19.94-.35-29.87.15-12.12.6-24.37,1.06-36.21,3.41-4.97.99-9.11,6.55-13.37,10.32-.82.73-.6,2.81-.61,4.27-.04,13.61-.02,27.21-.02,41.42H6.05v154.99h34.23c.12,2.12.21,3.7.34,6.02-11.76,0-23.16-.15-34.55.13-2.05.05-4.05,1.86-6.07,2.86C0,149.8,0,75.07,0,0,35.19,0,70.38,0,105.57,0Z"/>
    </g>
  </g>
</svg>