<svg id="Layer_1" data-name="Layer 1" xmlns="http://www.w3.org/2000/svg" viewBox="0 0 597.62 718.92">
  
  <g id="P1XwfA.tif">
    <g>
      
      <path class="cls-1" d="m214.62,344.9c-2.68-2.71-6.94-5.11-6.99-7.6-.05-2.51,4.07-5.11,6.59-7.91.11.29.08-.17-.16-.36-2.15-1.75-5.44-3.04-6.27-5.26-1.53-4.07,2.52-4.67,5.31-5.83.56-.23,1.17-1.69.93-2.17-.41-.83-1.44-1.38-2.27-1.96-1.56-1.08-3.16-2.1-4.75-3.15,1.39-2.02,2.77-4.06,4.19-6.07,1.06-1.51,3.08-2.97,3.12-4.49.18-8.98,0-17.98-.3-26.96-.05-1.42-.98-3.25-2.1-4.12-3.28-2.55-3.62-5.64-1.1-8.75,1.37-1.69,2.62-4.06,2.65-6.14.2-15.59.15-31.18.02-46.77-.07-8.92-.18-9.34,8.51-10.77,3.36-.55,4.88-2.16,6.39-4.71,4.52-7.64,8.43-15.82,14.05-22.56,4.24-5.08,10.68-8.36,16.27-12.26,3.43-2.39,7.15-4.34,10.65-6.64,2.85-1.87,3.77-10.9,1.19-13.52-4.24-4.32-6-8.84-5.59-15.31.63-9.84-.41-19.82-1.13-29.71-.55-7.56.61-9.71,7.65-12.16.97-.34,2.2-1.6,2.22-2.46.02-.8-1.28-1.96-2.26-2.37-1.33-.57-2.9-.58-4.42-.84-.19-2.8-.39-5.25-.5-7.71-.02-.54.29-1.1.58-2.13,6.93,1.4,6.89-3.05,8.15-8.41,4.08-17.29,10.65-29.7,30.71-32.34,10.03-1.32,19.63,2.8,26.35,11.67,6.15,8.13,9.44,17.19,10.41,27.47,2.07.51,4.22,1.04,6.56,1.63-.26,4.56,3.17,10.61-5.62,10.21-1.12,6.47,5.22,7.66,7.63,12.87,4.68-12.92,15.64-8.87,24.29-10.43,4.33-.78,7.3,4.3,6.05,8.63-.89,3.07-1.93,6.25-1.95,9.38-.04,10,.42,20,.57,30,.08,5.63.27,11.31-.36,16.88-.16,1.39-3.68,3.77-5.03,3.4-3.59-.98-7.16-2.14-7.35-7.68-.26-7.63-1.9-15.32-9.48-19.71-1.2-.7-2.72-.84-4.1-1.25-.27,1.22-.76,2.43-.78,3.65-.09,4.69-.04,9.39-.04,14.49-2.15.3-3.9.55-5.6.78-.19.44-.48.79-.46,1.12.27,3.98-.91,9.3,1.2,11.66,4.03,4.5,9.85,7.47,15.14,10.71.95.58,3.21-.2,4.44-1.01,2.69-1.77,5.1-3.96,7.89-6.19,3.06,2.62,6.09,4.88,8.64,7.6.74.79.57,3.09,0,4.32-.95,2.01-3.01,3.55-3.76,5.59-.7,1.88-1.09,4.61-.23,6.2,3.16,5.84,6.26,11.95,10.68,16.77,2.71,2.96,7.77,3.75,11.78,5.51.7-.31,1.41-.63,2.11-.94,0,6.24,0,12.49,0,18.73.02,12.88-.02,25.76.18,38.64.03,1.56,1.06,3.93,2.28,4.49,4.19,1.9,2.72,5.97,1.33,7.01-5.8,4.35-3.43,10.41-3.99,15.69-.62,5.83-.37,11.78-.13,17.66.06,1.41,1.42,2.92,2.5,4.1,1.44,1.58,4.5,2.9,4.48,4.3-.03,1.79-2.33,3.63-3.85,5.27-.69.75-1.86,1.05-4.15,2.26,3.3,1.57,5.52,2.63,7.91,3.77,1.42,5.28-1.12,8.18-6.85,9.03,2.72,2.85,6.84,5.25,6.89,7.75.06,2.52-3.9,5.14-6.42,8.08,3.37,1.93,9.22,2.74,6.22,9.71-6.14.42-6.67,4.61-6.53,10.31.43,17.86.31,35.73.15,53.59-.01,1.73-1.84,3.4-2.61,5.18-.8,1.84-1.91,3.79-1.9,5.68.14,17.81.58,35.61.76,53.42.18,19.2-.35,38.42.4,57.59.69,17.85-2.33,34.78-9.36,51.06-1.97,4.56-1.33,8.04,2.59,11.16,2.84,2.26,6.3,4.39,7.88,7.42,3.28,6.28,5.6,13.23,7.68,19.86,2.75,8.76-13.43,25.17-22.21,22.92-4.95-1.27-9-6.5-13.17-10.26-2.36-2.14-4.26-4.84-6.16-7.43-2.96-4.04-6.94-2.15-10.26-1.46-14.44,2.99-28.75,6.62-43.21,9.51-4.06.81-8.58.45-12.69-.35-13.43-2.63-26.76-5.78-40.17-8.53-1.28-.26-3.31.5-4.22,1.49-3.45,3.77-6.64,7.8-9.84,11.8-6.42,8.04-13.24,8.59-21.23,1.81-5.56-4.72-10.19-9.84-11.29-17.54-.35-2.43-2.42-4.59-3.56-6.94-2.66-5.51-1.86-10.55,2.54-14.59,4.15-3.81,8.72-7.17,12.68-11.15,1.21-1.22,1.77-4.01,1.34-5.76-1.31-5.24-2.79-10.54-5.06-15.42-5.3-11.39-3.61-23.48-4.09-35.32-.43-10.49.19-21.02.22-31.53.04-17.08.05-34.17-.06-51.25-.07-10.65-.36-21.3-.6-31.95-.02-.92-.21-2.53-.63-2.64-6.57-1.76-3.85-7.02-3.9-10.86-.23-16.93-.09-33.86-.14-50.79,0-3.53.15-7.21-5.15-7.16-.81,0-2.43-1.83-2.29-2.54.37-1.83,1.17-3.84,2.45-5.15,1.23-1.27,3.26-1.75,4.97-2.59ZM285.8,63.56c14.8,0,29.19.01,43.58-.04.69,0,1.37-.63,2.04-.97-1.47-16.69-11.16-28.69-22.64-26.85-14.47,2.32-23.2,11.55-22.99,27.86Zm46.1,11.09c-14.63,0-28.98.1-43.32-.08-2.96-.04-5.46,1.53-3.75,3.43,2.75,3.06,6.9,6.08,10.81,6.62,7.08.99,14.42.26,21.64-.01,1.49-.06,3.83-.89,4.25-1.97,1.36-3.47,3.66-3.76,6.83-3.49,3.61.3,5.62-.99,3.53-4.5Zm-83.97,223.44c-8.2-9.24-13.4-19.2-23.41-27.35-1,10.99-1.85,20.34-2.71,29.79,8.69-.81,16.74-1.56,26.13-2.44Zm146.74-27.2c-11.61,6.05-14.2,18.15-23.09,26.41,9.42.94,17.25,1.72,25.65,2.55-.8-9.12-1.6-18.13-2.55-28.96Zm-166.43,115.5c6.97-8.55,13.17-16.16,20.55-25.22h-20.55v25.22Zm161.72-3.65c.45-.19.89-.38,1.34-.58v-22.56c-6.03.44-11.77.85-18.64,1.35,6.41,8.07,11.85,14.93,17.3,21.79Zm-140.1-78.02c-9.31,1.02-18.41,2.03-27.51,3.03.03,1.02.05,2.04.08,3.05,7.46.62,14.92,1.3,22.39,1.84,5.13.37,7.07-1.93,5.04-7.93Zm-26.83,46.24c-.03.64-.06,1.28-.09,1.92,8.53.58,17.06,1.28,25.61,1.59.9.03,2.63-2.22,2.61-3.38-.02-1.2-1.71-3.38-2.68-3.39-8.62-.09-17.38-.69-25.44,3.27Zm27.11-24.18c1.55-6.37-.77-7.9-5.48-7.41-5.02.52-10.09.61-15.1,1.24-2.23.28-4.34,1.43-6.51,2.19.09.82.18,1.64.26,2.45,8.91.51,17.83,1.01,26.83,1.53Zm120.12-15.42c9.29.28,18.16.89,26.36-2.89-.05-.65-.11-1.31-.16-1.96-8.6-.86-17.19-1.72-26.2-2.63v7.47Zm-119.77,22.75c-11.09-1.76-23.38-.19-28.92,4.44,10.25.78,19.44,1.47,28.92,2.19v-6.63Zm119.5,12.1c.25,3.22.45,5.69.69,8.81,8.86-3.15,18.29.67,25.61-5.11-.05-.58-.11-1.16-.16-1.74-8.51-.64-17.01-1.28-26.14-1.96Zm26.21-22.43c.01-1.14.03-2.28.04-3.42-7.34-.49-14.68-1.12-22.03-1.36-1.43-.05-3.76,1.08-4.2,2.23-1.09,2.83.75,4.99,3.56,4.81,7.57-.49,15.1-1.47,22.64-2.26Zm.41,14.01c-.05-.91-.11-1.82-.16-2.73-8.1-2.34-16.33-3.56-24.78-1.68-.93.21-1.89,2.18-2,3.42-.08.82,1.36,2.58,2.06,2.55,8.3-.37,16.59-1,24.88-1.56Z"/>
      
      
      
      
      
      
      
      
      
      
      
      
      
      
    </g>
  </g>
</svg>