<?xml version="1.0" encoding="UTF-8"?>
<svg id="Layer_1" data-name="Layer 1" xmlns="http://www.w3.org/2000/svg" viewBox="0 0 172 285">
  <defs>
    <style>
      .cls-1, .cls-2 {
        stroke-width: 0px;
      }

      .cls-2 {
        fill: #fff;
      }
    </style>
  </defs>
  <g id="_3lsX8J.tif" data-name="3lsX8J.tif">
    <g>
      <path class="cls-1" d="m133.2,0c1.33,0,2.65,0,3.98,0,7.19,6.29,6.45,11.79-1.94,15.71-1.47.69-2.7,2.18-3.7,3.55-3.91,5.41-4.84,11.52-4.41,18.1.22,3.39-.38,6.87-.92,10.26-.38,2.4-1.3,4.72-1.96,7.08-.61,2.19-1.42,4.35-1.73,6.58-.51,3.68-1.44,7.54-.78,11.06.67,3.6,3.04,6.88,5.16,11.33,11.14-.41,15.97,8.56,19.72,18.42,3.38,8.89,6.21,17.99,9.45,26.93,3.5,9.69,7.21,19.3,10.78,28.96.51,1.38.85,2.83,1.18,4.27,1.34,5.7,2.64,11.41,3.96,17.12v36.87c-.31.76-.65,1.51-.93,2.28-4.39,11.82-5.53,25.04-15,34.68-5.7,5.81-8.88,14.28-17.89,16.46,0,3.08,0,5.9,0,8.72,0,3.79-1.47,5.72-5.65,5.69-19.39-.13-38.79-.14-58.19,0-4.45.03-5.89-2.05-5.8-6.05.06-2.81.01-5.62.01-7.51-2.94-2.16-5.5-3.62-7.52-5.63-3.73-3.71-7.41-7.52-10.59-11.69-2.92-3.82-5.69-7.94-7.56-12.34-2.02-4.75-2.54-10.12-4.35-14.98-6.33-16.98-5.77-34.28-2.15-51.54,1.84-8.81,4.96-17.38,7.9-25.92,5.63-16.34,11.15-32.75,17.51-48.81,3.03-7.65,6.99-15.56,17.35-15.77,1.07-.02,2.13-.47,3.54-.81-2.52-7.42,6.77-12.22,3.36-20.06-2.65-6.09-3.9-12.8-5.66-18.85h-21.33c2.5,5.71,4.48,10.57,6.74,15.29,7.67,16.02.38,35.06-16.24,41.26-5.56,2.08-11.52,3.11-17.65,4.72-.01.17-.13.98-.14,1.79-.34,30.18-.67,60.35-1,90.53-.01,1.16.24,2.39-.06,3.47-.52,1.86-.93,4.09-2.2,5.35-2.89,2.88-6.21,5.33-9.45,7.83-2.32,1.79-3.68.69-4.11-1.83-.22-1.29-.09-2.65-.09-3.98,0-35.54.04-71.08-.11-106.62,0-2.14-1.04-4.9-2.58-6.31-15.45-14.17-15.12-43.14,9.45-52.74,4.74-1.85,6.75-4.9,7.06-9.35.27-3.81,2.28-5.91,5.28-7.7,9.65-5.77,19.35-11.47,28.83-17.53,7.44-4.76,15.04-7.43,24.12-6.23,6.26.83,12.72.11,19.08.17,7.92.08,15.97-1.79,23.38,1.28,1.36-1.25,2.61-2.4,3.85-3.55ZM59.33,57.8c-.52.29-1.26.46-1.59.92-8.33,11.95-16.64,23.92-24.86,35.95-.52.77-.76,2.53-.3,2.99.78.77,2.37,1.4,3.37,1.14,5.03-1.34,10.34-2.28,14.88-4.66,12.59-6.59,16.38-25.89,8.5-36.34ZM15.9,90.27c4.61-15.22,8.93-29.53,13.44-44.43-11.64,2.19-20.14,10.39-21.4,20.68-1.06,8.61-.65,17.17,7.95,23.75ZM80.23,30.3h-20.35v7.57c4.75,0,9.31,0,13.86,0q7.05-.02,6.48-7.57Z"/>
      <path class="cls-2" d="m133.2,0c-1.25,1.15-2.5,2.3-3.85,3.55-7.41-3.07-15.46-1.2-23.38-1.28-6.37-.07-12.82.65-19.08-.17-9.08-1.2-16.68,1.47-24.12,6.23-9.47,6.06-19.17,11.76-28.83,17.53-3,1.79-5.01,3.9-5.28,7.7-.31,4.45-2.32,7.5-7.06,9.35C-2.98,52.51-3.3,81.48,12.15,95.65c1.53,1.41,2.57,4.17,2.58,6.31.16,35.54.11,71.08.11,106.62,0,1.33-.14,2.69.09,3.98.44,2.52,1.79,3.62,4.11,1.83,3.24-2.51,6.57-4.96,9.45-7.83,1.26-1.26,1.67-3.48,2.2-5.35.3-1.08.05-2.31.06-3.47.33-30.18.66-60.35,1-90.53,0-.81.13-1.61.14-1.79,6.14-1.61,12.09-2.65,17.65-4.72,16.61-6.2,23.91-25.23,16.24-41.26-2.26-4.72-4.24-9.59-6.74-15.29h21.33c1.76,6.05,3,12.76,5.66,18.85,3.42,7.84-5.88,12.63-3.36,20.06-1.41.33-2.47.78-3.54.81-10.36.21-14.32,8.12-17.35,15.77-6.36,16.06-11.88,32.46-17.51,48.81-2.94,8.54-6.06,17.11-7.9,25.92-3.61,17.26-4.18,34.56,2.15,51.54,1.81,4.86,2.34,10.23,4.35,14.98,1.87,4.4,4.64,8.52,7.56,12.34,3.18,4.17,6.87,7.98,10.59,11.69,2.02,2.01,4.58,3.46,7.52,5.63,0,1.88.05,4.7-.01,7.51-.08,4,1.35,6.08,5.8,6.05,19.39-.14,38.79-.13,58.19,0,4.17.03,5.66-1.9,5.65-5.69,0-2.82,0-5.64,0-8.72,9.01-2.17,12.19-10.65,17.89-16.46,9.47-9.64,10.61-22.86,15-34.68.29-.77.62-1.52.93-2.28v68.74H0C0,190.02,0,95.01,0,0c44.4,0,88.8,0,133.2,0Z"/>
      <path class="cls-2" d="m172,179.39c-1.32-5.71-2.62-11.42-3.96-17.12-.34-1.44-.67-2.89-1.18-4.27-3.58-9.66-7.28-19.27-10.78-28.96-3.24-8.95-6.07-18.04-9.45-26.93-3.75-9.87-8.57-18.83-19.72-18.42-2.12-4.46-4.49-7.73-5.16-11.33-.66-3.52.27-7.39.78-11.06.31-2.23,1.12-4.39,1.73-6.58.66-2.36,1.58-4.68,1.96-7.08.54-3.39,1.15-6.87.92-10.26-.43-6.58.49-12.69,4.41-18.1.99-1.37,2.23-2.86,3.7-3.55C143.64,11.79,144.38,6.29,137.18,0h34.82v179.39Z"/>
      <path class="cls-2" d="m59.33,57.8c7.88,10.45,4.09,29.75-8.5,36.34-4.54,2.38-9.85,3.32-14.88,4.66-1,.27-2.59-.37-3.37-1.14-.46-.45-.22-2.22.3-2.99,8.22-12.03,16.53-24,24.86-35.95.32-.46,1.06-.63,1.59-.92Z"/>
      <path class="cls-2" d="m15.9,90.27c-8.6-6.58-9.01-15.15-7.95-23.75,1.26-10.29,9.76-18.49,21.4-20.68-4.51,14.9-8.84,29.21-13.44,44.43Z"/>
      <path class="cls-2" d="m80.23,30.3q.56,7.55-6.48,7.57c-4.56.01-9.11,0-13.86,0v-7.57h20.35Z"/>
    </g>
  </g>
</svg>