<?xml version="1.0" encoding="UTF-8"?>
<svg id="Layer_1" data-name="Layer 1" xmlns="http://www.w3.org/2000/svg" viewBox="0 0 574 536">
  <defs>
    <style>
      .cls-1, .cls-2 {
        stroke-width: 0px;
      }

      .cls-2 {
        fill: #fff;
      }
    </style>
  </defs>
  <g id="Es2Arl.tif">
    <g>
      <path class="cls-2" d="m574,536H0V0h574v536ZM422.02,4.37c-7.41-2.49-11.57,1.84-15.98,7.28-18.82,23.24-37.8,46.35-57.12,69.18-33.61,39.71-67.43,79.23-101.32,118.7-19.05,22.19-38.21,44.28-57.68,66.11-14.38,16.12-29.58,31.52-43.98,47.63-29.35,32.85-58.51,65.86-87.53,99-17.73,20.25-35.09,40.83-52.51,61.35-3.14,3.7-3.06,11.83-.35,15.77,12.45,18.11,28.14,32.61,47.66,42.87,4.45,2.34,13.34,2.25,16.03-.45,2.81-2.82,5.67-5.64,8.19-8.72,45.63-55.84,91.2-111.74,136.83-167.59,9.56-11.7,19.28-23.27,28.97-34.87,2.64-3.16,5.73-3.73,9.19-1.18,16.03,11.83,32.47,23.13,47.97,35.62,13.18,10.62,25.33,22.55,37.81,34.02,2.45,2.25,4.22,2.36,6.72.12,6.07-5.42,12.75-10.21,18.47-15.96,28.37-28.53,57.1-56.73,84.55-86.12,27.22-29.13,53.48-59.2,79.38-89.52,16.49-19.31,31.67-39.74,42.26-63.14,1.58-3.49,1.26-5.63-1.66-8.07-6.1-5.13-12-10.52-17.89-15.9-36.11-32.95-72.3-65.81-108.2-99-5.81-5.37-11.75-8.42-19.82-7.13Z"/>
      <path class="cls-1" d="m422.02,4.37c8.07-1.29,14.01,1.76,19.82,7.13,35.89,33.18,72.08,66.05,108.2,99,5.89,5.38,11.79,10.77,17.89,15.9,2.91,2.45,3.24,4.59,1.66,8.07-10.6,23.4-25.78,43.83-42.26,63.14-25.9,30.33-52.16,60.39-79.38,89.52-27.46,29.39-56.19,57.59-84.55,86.12-5.72,5.75-12.4,10.54-18.47,15.96-2.51,2.24-4.27,2.14-6.72-.12-12.49-11.47-24.63-23.4-37.81-34.02-15.5-12.48-31.94-23.79-47.97-35.62-3.46-2.55-6.55-1.98-9.19,1.18-9.69,11.6-19.41,23.17-28.97,34.87-45.63,55.85-91.2,111.74-136.83,167.59-2.52,3.08-5.37,5.89-8.19,8.72-2.69,2.7-11.58,2.79-16.03.45-19.52-10.26-35.21-24.76-47.66-42.87-2.71-3.94-2.79-12.07.35-15.77,17.42-20.52,34.78-41.1,52.51-61.35,29.02-33.14,58.18-66.16,87.53-99,14.4-16.11,29.59-31.51,43.98-47.63,19.46-21.82,38.63-43.92,57.68-66.11,33.89-39.47,67.71-79,101.32-118.7,19.32-22.82,38.3-45.94,57.12-69.18,4.41-5.45,8.57-9.77,15.98-7.28Zm7.22,57.31c-7.39-.33-13.72,5.23-14.04,12.34-.34,7.47,5.41,14.11,12.6,14.54,7.55.46,13.98-5.43,14.43-13.23.39-6.76-5.86-13.33-12.99-13.65Z"/>
      <path class="cls-2" d="m429.24,61.68c7.12.32,13.38,6.89,12.99,13.65-.45,7.8-6.88,13.69-14.43,13.23-7.19-.44-12.93-7.07-12.6-14.54.32-7.11,6.65-12.67,14.04-12.34Z"/>
    </g>
  </g>
</svg>