<svg id="Layer_1" data-name="Layer 1" xmlns="http://www.w3.org/2000/svg" viewBox="0 0 574 536">
  
  <g id="Es2Arl.tif">
    <g>
      
      <path class="cls-1" d="m422.02,4.37c8.07-1.29,14.01,1.76,19.82,7.13,35.89,33.18,72.08,66.05,108.2,99,5.89,5.38,11.79,10.77,17.89,15.9,2.91,2.45,3.24,4.59,1.66,8.07-10.6,23.4-25.78,43.83-42.26,63.14-25.9,30.33-52.16,60.39-79.38,89.52-27.46,29.39-56.19,57.59-84.55,86.12-5.72,5.75-12.4,10.54-18.47,15.96-2.51,2.24-4.27,2.14-6.72-.12-12.49-11.47-24.63-23.4-37.81-34.02-15.5-12.48-31.94-23.79-47.97-35.62-3.46-2.55-6.55-1.98-9.19,1.18-9.69,11.6-19.41,23.17-28.97,34.87-45.63,55.85-91.2,111.74-136.83,167.59-2.52,3.08-5.37,5.89-8.19,8.72-2.69,2.7-11.58,2.79-16.03.45-19.52-10.26-35.21-24.76-47.66-42.87-2.71-3.94-2.79-12.07.35-15.77,17.42-20.52,34.78-41.1,52.51-61.35,29.02-33.14,58.18-66.16,87.53-99,14.4-16.11,29.59-31.51,43.98-47.63,19.46-21.82,38.63-43.92,57.68-66.11,33.89-39.47,67.71-79,101.32-118.7,19.32-22.82,38.3-45.94,57.12-69.18,4.41-5.45,8.57-9.77,15.98-7.28Zm7.22,57.31c-7.39-.33-13.72,5.23-14.04,12.34-.34,7.47,5.41,14.11,12.6,14.54,7.55.46,13.98-5.43,14.43-13.23.39-6.76-5.86-13.33-12.99-13.65Z"/>
      
    </g>
  </g>
</svg>