<?xml version="1.0" encoding="UTF-8"?>
<svg id="Layer_1" data-name="Layer 1" xmlns="http://www.w3.org/2000/svg" viewBox="0 0 298.84 599.36">
  <defs>
    <style>
      .cls-1, .cls-2 {
        stroke-width: 0px;
      }

      .cls-2 {
        fill: #fff;
      }
    </style>
  </defs>
  <g id="M5BgUm.tif">
    <g>
      <path class="cls-2" d="m298.84,599.36H0C0,399.58,0,199.79,0,0c99.61,0,199.22,0,298.84,0,0,199.79,0,399.58,0,599.36Zm-247.83-66.56c.1,0,.21,0,.31.01-.2,4.11-.78,8.25-.5,12.34.33,4.84.57,9.96,2.33,14.37,3.4,8.57,11.34,12.29,19.61,14.3,21.57,5.23,43.63,7.93,65.75,7.38,17.45-.43,34.85-3.11,52.24-5.15,8.57-1.01,18.01-12.66,17.71-20.79-.27-7.36-.49-14.72-.48-22.08,0-14.5.27-29.01.26-43.51-.02-15.4-.25-30.81-.35-46.21-.11-16.32-.12-32.64-.29-48.97-.16-14.95-.57-29.9-.69-44.86-.15-19.18-.14-38.36-.18-57.53-.03-13.44.08-26.88-.06-40.32-.07-6.77.88-14.05-3.71-19.71-6.94-8.55-14.47-16.63-21.84-24.83-5.05-5.61-11.54-10.69-12.49-18.48-1.46-11.95-1.32-24.09-2.26-36.12-1.17-14.91-2.87-29.78-4.09-44.69-.37-4.52-1.66-10.66.64-13.29,3.17-3.63,2.61-6.65,2.43-10.21-.4-7.73-.7-15.49-1.51-23.18-.83-7.88-2.34-15.18-10.12-20.22-5.45-3.53-9.78-9.04-10.55-16.28-.38-3.58-.43-7.41-1.83-10.6-.91-2.07-3.83-4.03-6.14-4.47-2.25-.42-4.47.66-4.65,4.56-.22,4.89-1.44,10.14-3.73,14.44-4.05,7.6-12.94,9.77-19.15,15.02-2.19,1.85-4.91,4.61-5.03,7.07-.46,9.28-.34,18.64.35,27.9.42,5.62,3.45,11.17,3.26,16.69-.37,10.91-2.27,21.76-3.32,32.66-1.48,15.29-2.87,30.59-4.09,45.9-.59,7.4-.8,15.11-5.98,20.79-7.16,7.84-14.7,15.47-22.92,22.16-7.6,6.19-10.34,14.57-10.99,23.06-1.51,19.67-1.66,39.44-2.11,59.18-.45,19.46-.42,38.94-.91,58.4-.56,22.66-1.58,45.3-2.16,67.96-.44,17.32-.35,34.66-.79,51.98-.47,18.44-1.28,36.88-1.95,55.31Z"/>
      <path class="cls-1" d="m51,532.8c.66-18.44,1.48-36.87,1.95-55.31.44-17.32.34-34.66.79-51.98.58-22.66,1.6-45.3,2.16-67.96.48-19.46.46-38.94.91-58.4.45-19.74.6-39.51,2.11-59.18.65-8.49,3.4-16.87,10.99-23.06,8.22-6.69,15.77-14.32,22.92-22.16,5.18-5.68,5.39-13.39,5.98-20.79,1.22-15.31,2.61-30.61,4.09-45.9,1.05-10.9,2.95-21.75,3.32-32.66.19-5.51-2.84-11.07-3.26-16.69-.69-9.27-.81-18.62-.35-27.9.12-2.46,2.84-5.23,5.03-7.07,6.22-5.25,15.11-7.42,19.15-15.02,2.29-4.3,3.51-9.55,3.73-14.44.17-3.9,2.4-4.99,4.65-4.56,2.32.44,5.23,2.41,6.14,4.47,1.4,3.19,1.45,7.02,1.83,10.6.77,7.24,5.11,12.75,10.55,16.28,7.78,5.04,9.29,12.34,10.12,20.22.81,7.7,1.11,15.45,1.51,23.18.19,3.56.74,6.58-2.43,10.21-2.3,2.63-1.01,8.77-.64,13.29,1.22,14.91,2.92,29.78,4.09,44.69.94,12.03.81,24.16,2.26,36.12.95,7.79,7.45,12.87,12.49,18.48,7.37,8.2,14.91,16.27,21.84,24.83,4.59,5.66,3.64,12.94,3.71,19.71.13,13.44.03,26.88.06,40.32.04,19.18.02,38.36.18,57.53.12,14.95.53,29.9.69,44.86.17,16.32.18,32.64.29,48.97.1,15.4.34,30.81.35,46.21.01,14.5-.25,29.01-.26,43.51,0,7.36.22,14.72.48,22.08.3,8.13-9.14,19.78-17.71,20.79-17.38,2.05-34.79,4.72-52.24,5.15-22.12.54-44.17-2.16-65.75-7.38-8.27-2-16.21-5.73-19.61-14.3-1.75-4.41-2-9.53-2.33-14.37-.28-4.08.3-8.22.5-12.34-.1,0-.21,0-.31-.01Z"/>
    </g>
  </g>
</svg>