<?xml version="1.0" encoding="UTF-8"?>
<svg id="Layer_1" data-name="Layer 1" xmlns="http://www.w3.org/2000/svg" viewBox="0 0 161 463">
  <defs>
    <style>
      .cls-1, .cls-2 {
        stroke-width: 0px;
      }

      .cls-2 {
        fill: #fff;
      }
    </style>
  </defs>
  <g id="cGn3i9.tif">
    <g>
      <path class="cls-1" d="m76.52,0h4.97c8.06,1.73,16,4.04,20.02,12.08,2.75,5.49,4.48,11.49,6.8,17.63,5.27.57,5.81,1.51,4.33,8.88-1.4.16-2.8.32-3.39.38,1.33,2.49,3.76,4.98,3.85,7.56.41,11.46.22,22.94.06,34.41-.02,1.33-.93,2.93-1.92,3.92-2.96,2.97-2.49,7.88,1.15,9.81,10.92,5.81,21.08,12.4,26.59,24.25,1.03,2.2,2.75,4.15,4.42,5.96,1.07,1.15,2.61,2.54,3.99,2.61,5.17.26,6.24,3.4,6.26,7.71.06,11.3.07,22.61.4,33.91.06,1.9,1.97,3.68,2.43,5.65.47,2.04.97,5.69.14,6.13-3.01,1.59-3.16,3.84-3.17,6.6-.02,4.82-.11,9.64-.35,14.46-.14,2.73.11,4.75,3.31,5.67,1.12.32,2.41,2.39,2.4,3.64-.02,1.25-1.42,2.66-2.52,3.66-.73.66-2,.73-3.89,1.34,2.9,1.92,7.78,1.55,6.37,5.99-.55,1.75-2.96,2.91-4.63,4.44,3.5,1.4,6.29,3.68,4.19,8.4-1.57.52-3.12,1.03-4,1.32,1.76,2.23,3.98,3.9,4.33,5.9.2,1.17-2.64,2.81-3.99,4.35-.68.78-1.51,1.78-1.56,2.72-1.03,17.84-.5,35.65-2.17,53.6-2.52,27.03-.82,54.47-.57,81.73.1,10.57-.92,20.65-4.83,30.66-4.43,11.32-3.91,11.52,4.61,20.19,1.05,1.06,2.01,2.24,3.15,3.18,3,2.46,3.61,5.84,2.35,9.02-2.4,6.06-6.8,10.54-13.03,12.76-3.31,1.18-6.35.53-9.08-2.15-4.47-4.38-9.24-8.46-14.11-12.87-7.39,6.28-16.13,8.29-25.01,8.88-8.05.54-16.21-.66-24.29-.37-8.58.31-16.31-1.02-23.05-6.85-2.92-2.52-6.09-2.51-9.05.81-2.97,3.34-6.42,6.24-9.67,9.32-5.5,5.22-6.96,5.56-13.39,1.74-2.8-1.67-5.62-3.77-7.54-6.34-3.79-5.05-4.69-11.68,1.24-16.34,2.85-2.24,5.15-5.2,7.99-7.47,2.77-2.22,3.12-4.34,1.63-7.54-5.75-12.36-8.07-25.29-7.5-39.07.66-16.1.35-32.25-.1-48.37-.73-25.78-1.95-51.55-2.92-77.33-.12-3.15-.02-6.3-.02-8.6-2.3-2-5.72-4-5.45-4.93.73-2.54,3.02-4.63,4.95-7.25-.81-2.03-7.58,1.98-5.6-3.8.81-2.36,4.08-3.86,5.53-5.14-1.71-1.76-5.1-3.98-4.77-5.18.61-2.25,3.37-3.91,4.7-5.26-1.83-1.11-3.92-2.37-6.01-3.64,1.55-1.91,3.17-3.77,4.62-5.76.87-1.2,2.06-2.58,2.09-3.9.11-5.65-.03-11.31-.38-16.94-.09-1.43-.92-3.26-2.02-4.08-3.08-2.28-2.02-4.29-.36-6.72,1.09-1.6,2.41-3.47,2.47-5.26.39-11.29.68-22.6.53-33.9-.07-4.99,1.29-7.96,6.51-8.54.83-.09,1.85-.75,2.33-1.46,3.45-5.03,6.79-10.15,10.05-15.06.05-4.25-9.19-4.74-4.32-10.63,4.86-5.88,5.12-5.66,14.86.95,4.01-2.38,8.22-4.68,12.2-7.31,2.39-1.58,3.28-7.81,1.23-8.7-4.48-1.94-3.7-5.73-4.05-9.16-.21-2.03-.04-4.1-.04-6.67-6.03,2.94-10.43,5.95-10.65,12.7-.07,2.21-.67,4.86-2.03,6.43-1.13,1.3-3.71,1.59-5.69,1.71-.52.03-1.64-2.19-1.7-3.41-.69-13.93-1.2-27.86-1.84-41.79-.16-3.56,1.42-5.63,4.86-5.23,5.72.66,11.38,1.86,17.06,2.83-.03.39-.05.79-.08,1.18,1.87-1.54,3.74-3.07,5.67-4.65-6.25-1.69-2.81-5.78-3.15-9.04,1.99-.26,3.57-.46,5.18-.67.25-2.74.16-5.28.76-7.64,2.9-11.41,9.49-19.34,21.35-22.05Zm-13.63,29.59h35.25c2.02-9.35-8.52-20.23-16.86-19.51-10.42.9-19.03,6.78-18.39,19.51ZM14.77,183.58c-.45,7.47-.83,13.65-1.19,19.69h19.29c-6.46-6.69-9.9-14.41-18.1-19.69Zm131.18,1.12c-.52-.29-1.03-.58-1.55-.88-5.15,6.31-10.31,12.61-15.84,19.39,6.78.39,12.44.71,18.64,1.06-.42-6.62-.84-13.09-1.25-19.57ZM64.78,38.09c3.42,5.92,9.54,5.48,15.86,5.73,6.75.27,12.55-1.04,18.04-5.73h-33.9Zm78.54,229.37v-20.21c-4.98.99-9.79,1.95-14.89,2.97,4.94,5.72,9.45,10.94,14.89,17.24Zm-110.26-17.65c-5.32-.5-9.62-.9-14.01-1.3v17.92c5.04-5.98,9.22-10.94,14.01-16.62Zm107.26-37.73c-8.81-2.94-11.95-2.81-13.81,0h13.81Zm-121.17-1.6c0,.43-.01.85-.02,1.28h14.28c.03-.62.06-1.23.09-1.85-4.75-.52-9.61,1.12-14.35.57Zm15.19,12.65c-3.39-3.66-7.12-2.36-10.87-.88l10.87.88Zm-.2,7.17c-3.89.5-7.51.97-12.55,1.62q11.77,1.13,12.55-1.62Z"/>
      <path class="cls-2" d="m76.52,0c-11.87,2.71-18.45,10.65-21.35,22.05-.6,2.36-.51,4.9-.76,7.64-1.61.21-3.19.41-5.18.67.34,3.26-3.1,7.35,3.15,9.04-1.92,1.58-3.79,3.11-5.67,4.65.03-.39.05-.79.08-1.18-5.68-.97-11.34-2.16-17.06-2.83-3.43-.4-5.02,1.67-4.86,5.23.64,13.93,1.15,27.87,1.84,41.79.06,1.22,1.18,3.44,1.7,3.41,1.98-.12,4.56-.41,5.69-1.71,1.36-1.57,1.96-4.22,2.03-6.43.23-6.75,4.62-9.76,10.65-12.7,0,2.57-.17,4.64.04,6.67.35,3.43-.43,7.22,4.05,9.16,2.05.89,1.16,7.12-1.23,8.7-3.98,2.64-8.19,4.93-12.2,7.31-9.74-6.61-10.01-6.83-14.86-.95-4.87,5.89,4.37,6.39,4.32,10.63-3.26,4.92-6.6,10.03-10.05,15.06-.48.71-1.5,1.36-2.33,1.46-5.22.58-6.58,3.55-6.51,8.54.16,11.3-.14,22.61-.53,33.9-.06,1.79-1.39,3.66-2.47,5.26-1.66,2.43-2.72,4.44.36,6.72,1.1.81,1.94,2.65,2.02,4.08.35,5.64.49,11.3.38,16.94-.03,1.32-1.22,2.7-2.09,3.9-1.45,1.99-3.07,3.84-4.62,5.76,2.09,1.26,4.18,2.53,6.01,3.64-1.33,1.35-4.08,3.01-4.7,5.26-.33,1.2,3.06,3.41,4.77,5.18-1.45,1.28-4.72,2.79-5.53,5.14-1.98,5.78,4.79,1.78,5.6,3.8-1.93,2.62-4.21,4.71-4.95,7.25-.27.93,3.15,2.93,5.45,4.93,0,2.3-.1,5.45.02,8.6.97,25.78,2.19,51.54,2.92,77.33.46,16.11.76,32.27.1,48.37-.56,13.78,1.75,26.7,7.5,39.07,1.49,3.2,1.14,5.33-1.63,7.54-2.84,2.27-5.13,5.23-7.99,7.47-5.93,4.66-5.03,11.29-1.24,16.34,1.93,2.57,4.75,4.67,7.54,6.34,6.43,3.83,7.89,3.49,13.39-1.74,3.25-3.08,6.7-5.98,9.67-9.32,2.96-3.32,6.13-3.34,9.05-.81,6.74,5.83,14.47,7.16,23.05,6.85,8.08-.29,16.24.91,24.29.37,8.88-.6,17.62-2.6,25.01-8.88,4.86,4.4,9.63,8.49,14.11,12.87,2.73,2.68,5.77,3.33,9.08,2.15,6.23-2.22,10.62-6.7,13.03-12.76,1.26-3.18.65-6.56-2.35-9.02-1.15-.94-2.11-2.11-3.15-3.18-8.52-8.67-9.04-8.87-4.61-20.19,3.91-10,4.93-20.09,4.83-30.66-.25-27.26-1.94-54.7.57-81.73,1.67-17.95,1.15-35.76,2.17-53.6.05-.94.88-1.94,1.56-2.72,1.35-1.54,4.19-3.18,3.99-4.35-.35-2-2.57-3.68-4.33-5.9.89-.29,2.44-.8,4-1.32,2.1-4.73-.69-7-4.19-8.4,1.67-1.53,4.08-2.69,4.63-4.44,1.4-4.44-3.47-4.07-6.37-5.99,1.89-.61,3.16-.67,3.89-1.34,1.1-1,2.5-2.41,2.52-3.66.02-1.25-1.28-3.32-2.4-3.64-3.2-.92-3.45-2.94-3.31-5.67.24-4.81.34-9.64.35-14.46.01-2.76.16-5.01,3.17-6.6.83-.44.33-4.09-.14-6.13-.46-1.97-2.37-3.75-2.43-5.65-.34-11.3-.35-22.6-.4-33.91-.02-4.31-1.08-7.45-6.26-7.71-1.39-.07-2.93-1.45-3.99-2.61-1.67-1.81-3.4-3.75-4.42-5.96-5.51-11.85-15.67-18.44-26.59-24.25-3.63-1.93-4.11-6.84-1.15-9.81.99-.99,1.9-2.59,1.92-3.92.16-11.47.36-22.95-.06-34.41-.09-2.58-2.53-5.08-3.85-7.56.59-.07,1.99-.23,3.39-.38,1.48-7.37.94-8.31-4.33-8.88-2.32-6.15-4.05-12.15-6.8-17.63-4.03-8.04-11.96-10.36-20.02-12.08h79.51v463H0V0h76.52Z"/>
      <path class="cls-2" d="m62.89,29.59c-.64-12.73,7.96-18.61,18.39-19.51,8.34-.72,18.89,10.16,16.86,19.51h-35.25Z"/>
      <path class="cls-2" d="m14.77,183.58c8.2,5.28,11.64,13,18.1,19.69H13.57c.37-6.04.74-12.23,1.19-19.69Z"/>
      <path class="cls-2" d="m145.95,184.7c.41,6.47.83,12.95,1.25,19.57-6.19-.35-11.85-.67-18.64-1.06,5.53-6.77,10.69-13.08,15.84-19.39.52.29,1.03.58,1.55.88Z"/>
      <path class="cls-2" d="m64.78,38.09h33.9c-5.49,4.69-11.29,6-18.04,5.73-6.32-.25-12.44.18-15.86-5.73Z"/>
      <path class="cls-2" d="m143.32,267.46c-5.44-6.3-9.95-11.52-14.89-17.24,5.1-1.02,9.91-1.98,14.89-2.97v20.21Z"/>
      <path class="cls-2" d="m33.07,249.81c-4.79,5.68-8.97,10.64-14.01,16.62v-17.92c4.39.41,8.69.81,14.01,1.3Z"/>
      <path class="cls-2" d="m140.32,212.08h-13.81c1.86-2.81,5-2.94,13.81,0Z"/>
      <path class="cls-2" d="m19.15,210.48c4.74.55,9.6-1.09,14.35-.57-.03.62-.06,1.23-.09,1.85h-14.28c0-.43.01-.85.02-1.28Z"/>
      <path class="cls-2" d="m34.33,223.14l-10.87-.88c3.75-1.48,7.49-2.78,10.87.88Z"/>
      <path class="cls-2" d="m34.14,230.3q-.77,2.76-12.55,1.62c5.04-.65,8.66-1.12,12.55-1.62Z"/>
    </g>
  </g>
</svg>