<?xml version="1.0" encoding="UTF-8"?>
<svg id="Layer_1" data-name="Layer 1" xmlns="http://www.w3.org/2000/svg" viewBox="0 0 219 207">
  <defs>
    <style>
      .cls-1, .cls-2 {
        stroke-width: 0px;
      }

      .cls-2 {
        fill: #fff;
      }
    </style>
  </defs>
  <g id="_2Ho1dU.tif" data-name="2Ho1dU.tif">
    <g>
      <path class="cls-1" d="m127.42,0h7.96c4.85,1.06,6.92,5.1,9.4,8.71,2.57,3.74,1.93,9.11-.61,12.81-1.99,2.9-3.07,6.43-4.93,10.51,8.49-1.82,7.23-7.7,8.13-12.49.38-2,.66-4.38,1.9-5.76,2.68-3,16.01-4.45,19.33-2.48.66.39,1.09,1.22,1.55,1.9,8.55,12.61,17.27,25.11,25.57,37.89,6.62,10.2,6.19,13.86-1.53,22.1,7.14,14.5,14.8,28.99,21.43,43.93,3.85,8.68,3.95,15.02-7.34,15.65-5.84.33-8.92,3.19-11.86,7.29-.96,1.34-1.99,2.68-3.18,3.82-5.35,5.1-7.61,11.13-7.23,18.65.43,8.53-.79,9.54-9.29,9.26-4.19-.14-7.05.94-9.61,4.48-4.07,5.63-8.74,10.83-13.25,16.14-.91,1.08-2.13,2.25-3.41,2.6-6.68,1.83-13.35,3.99-20.18,4.95-16.06,2.26-32.22,3.84-48.32,5.85-2.98.37-4.86-.52-6.88-2.68-1.41-1.51-3.88-2-5.82-3.06-2.14-1.18-4.85-2.01-6.2-3.82-9.33-12.53-17.11-25.97-22-40.9-.86-2.62-1.91-4.64-5.1-4.07-4.05.72-6.15-1.85-7.88-4.76-8.61-14.53-17.11-29.12-25.69-43.65-1.91-3.23-1.86-5.83.78-8.91,14.69-17.1,29.1-34.44,43.78-51.54,2.44-2.84,3.37-4.79,1.16-8.49-3.57-5.97.59-12.61,7.47-12.92,1.62-.07,3.23-.17,5.12-.27-.6-1.89-1.16-3.43-1.57-5.01-1.29-5.01,2.38-10.28,7.47-10.65,14.38-1.06,28.77-2.02,43.14-3.15,5.91-.46,11.79-1.26,17.68-1.91Zm-10.03,58.24c5.86-.78,10.23-1.35,14.71-1.95v-13.47c-4.91,5.14-9.4,9.85-14.71,15.41Z"/>
      <path class="cls-2" d="m127.42,0c-5.89.65-11.78,1.44-17.68,1.91-14.37,1.13-28.76,2.09-43.14,3.15-5.09.38-8.76,5.64-7.47,10.65.41,1.58.97,3.12,1.57,5.01-1.89.1-3.51.2-5.12.27-6.88.31-11.04,6.95-7.47,12.92,2.21,3.7,1.28,5.65-1.16,8.49-14.68,17.11-29.09,34.44-43.78,51.54-2.64,3.08-2.68,5.68-.78,8.91,8.59,14.54,17.09,29.13,25.69,43.65,1.72,2.91,3.83,5.48,7.88,4.76,3.19-.57,4.24,1.45,5.1,4.07,4.9,14.93,12.67,28.37,22,40.9,1.35,1.81,4.06,2.64,6.2,3.82,1.93,1.06,4.4,1.55,5.82,3.06,2.02,2.16,3.9,3.05,6.88,2.68,16.1-2.01,32.25-3.59,48.32-5.85,6.83-.96,13.5-3.12,20.18-4.95,1.29-.35,2.5-1.52,3.41-2.6,4.51-5.3,9.18-10.51,13.25-16.14,2.56-3.54,5.42-4.62,9.61-4.48,8.49.28,9.72-.73,9.29-9.26-.38-7.52,1.88-13.55,7.23-18.65,1.19-1.14,2.21-2.48,3.18-3.82,2.94-4.1,6.02-6.96,11.86-7.29,11.29-.64,11.19-6.97,7.34-15.65-6.63-14.94-14.29-29.43-21.43-43.93,7.71-8.24,8.15-11.9,1.53-22.1-8.29-12.78-17.02-25.28-25.57-37.89-.46-.68-.89-1.51-1.55-1.9-3.33-1.97-16.65-.52-19.33,2.48-1.24,1.39-1.52,3.77-1.9,5.76-.9,4.78.37,10.67-8.13,12.49,1.86-4.08,2.93-7.61,4.93-10.51,2.54-3.7,3.17-9.06.61-12.81-2.48-3.61-4.55-7.66-9.4-8.71h83.62v207c-73,0-146,0-219,0C0,138,0,69,0,0c42.47,0,84.95,0,127.42,0Z"/>
      <path class="cls-2" d="m117.39,58.24c5.31-5.56,9.8-10.27,14.71-15.41v13.47c-4.48.59-8.84,1.17-14.71,1.95Z"/>
    </g>
  </g>
</svg>