<svg id="Layer_1" data-name="Layer 1" xmlns="http://www.w3.org/2000/svg" viewBox="0 0 151 342">
  
  <g id="TcIcLX.tif">
    <g>
      <path class="cls-1" d="m74.51,342h-.99c-1.03-.38-2.04-.88-3.11-1.11-15.32-3.42-25.9-11.74-28.93-27.98-.38-2.05-.75-4.03-3.77-4.27-1.1-.08-2.63-2.35-2.85-3.79-.18-1.19,1.01-2.96,2.1-3.85.84-.69,2.47-.42,3.94-.6v-8.4c-5.94-1.24-8.41-4.27-8.47-10.3-.06-5.81,0-11.62-.02-17.43-.03-8.88-1.28-10.78,10.15-9.32.25.03.54-.27.83-.42,1.13-3.71.13-5.77-3.74-7.54-9.82-4.49-20.13-8.24-26.78-17.89-3.4-4.94-5.9-9.71-5.85-15.84.34-44.15.44-88.3.96-132.44.08-6.56-2.96-10.13-7.97-13.01,0-1,0-1.99,0-2.99,1.74-2.54,4.66-4.94,4.98-7.64.91-7.63,1.02-15.39.92-23.09-.06-4.14,1.49-6.02,5.74-5.24.92.17,1.87.16,2.78.23,2.16-10.18,7.51-11.93,15.84-5.8,6.25-4.39,11.93-9.48,20.17-10.03.2-.64.51-1.58.81-2.52,2.38-7.69,3.22-8.19,11.1-6.77,1.46.26,2.97.65,4.42.52,3-.27,5.97-.85,9.39-1.36,1.64,2.91,4.4,3.55,8.56,1.17,6.41-3.65,12.08-.62,12.48,6.67.07,1.26.3,2.5.38,3.15,8.76.74,16.21,2.81,20.48,8.68,4.4-.61,8.69-2.55,11.12-1.18,2.56,1.45,3.33,6.06,5.1,9.74-.13.04.77-.25,1.69-.47,2.38-.58,5.52-2.31,6.95-1.38,1.65,1.07,2.46,4.47,2.48,6.87.07,7.13-.58,14.27-.6,21.4,0,1.63.98,3.93,2.26,4.74,2.98,1.89,2.2,4.17.72,5.83-2.4,2.71-5.42,4.87-7.3,6.49.75,3.28,1.98,6.16,1.98,9.04.13,43.68-.08,87.37.25,131.04.06,8.44-3.42,14.65-9.49,19.07-7.71,5.61-16.32,9.97-24.51,14.94-1.37.83-2.55,2-4.78,3.79,5.44,1.24,9.53,2.18,13.74,3.14-.23,3.9-.45,7.47-.6,9.99,3.43,1.73,6.18,3.11,9.59,4.83,4.76-6.91,1.95-16.12,4.76-24.13h9.25c0,13.5-.05,26.75.02,39.99.04,6.33.12,6.23-6.27,6.12-8.35-.13-16.71-.03-25.2-.03-.29,2.4-.56,4.66-.85,7.04,2.04.51,3.75.93,5.93,1.48-.43,2.87-.83,5.55-1.21,8.13-1.98.16-3.36.26-4.75.37.3,2,.9,3.66.72,5.22-1.22,10.36-14.62,23.66-24.96,25.12-3.22.46-6.39,1.33-9.58,2.01Zm-23.11-31.86c3.53,15.65,11.08,19.23,26.5,18.32,11.74-.69,20.29-9.71,19.25-18.32h-45.75Zm44.59-10.48c1.17-9.37-2.13-13.18-11.63-13.3-6.62-.08-13.23-.17-19.85-.21-8.59-.05-12.5,4.21-11.82,13.51h43.3Z"/>
      
      
      
      
    </g>
  </g>
</svg>