<?xml version="1.0" encoding="UTF-8"?>
<svg id="Layer_1" data-name="Layer 1" xmlns="http://www.w3.org/2000/svg" viewBox="0 0 232 259">
  <defs>
    <style>
      .cls-1, .cls-2 {
        stroke-width: 0px;
      }

      .cls-2 {
        fill: #fff;
      }
    </style>
  </defs>
  <g id="lHQkKW.tif">
    <g>
      <path class="cls-1" d="m232,138.47v18.93c-3.09,1.42-4.89,3.78-5.81,7.08-.36,1.3-1.7,2.32-2.55,3.49-4.23,5.81-9.43,11.17-12.45,17.56-5.41,11.43-7.89,24.36-17.64,33.46-5.16,4.82-10.07,10.16-15.95,13.9-6.07,3.86-13.25,5.95-19.81,9.1-1.44.69-2.88,2.43-3.34,3.98-2.45,8.16-4.35,10.67-12.89,10.88-17.34.42-34.71-.06-52.07-.13-4.6-.02-7.17-2.4-8.8-6.55-1.43-3.63-2.94-7.11-7.46-8.56-25.26-8.11-40.6-26.34-49.46-50.44-2.81-7.65-6.15-14.78-11.93-20.3-3.66-3.49-6.65-6.7-5.94-10.99-2.05-1.61-4.5-2.6-4.57-3.74-.38-6.39-.18-12.81-.18-19.1,2.18-.42,3.93-.28,5.02-1.05,4.99-3.55,9.83-7.31,14.65-11.1,1.12-.88,2.08-2.06,2.88-3.26,6.48-9.76,12.36-19.98,19.51-29.21,5.43-7.01,12.33-12.79,21.2-15.84,5.1-1.75,9.88-4.58,14.56-7.35,1.33-.79,2.72-3.27,2.44-4.64-1.16-5.7,1.86-8.35,6.58-8.86,7.1-.77,6.42-7.57,9.66-11.27.95-1.08,1.48-2.52,2.21-3.8,1.41.92,2.83,1.81,4.22,2.75,1.33.9,2.64,1.85,4.45,3.12,0-4.65-.02-7.78,0-10.91.06-8.1,5.77-20.16,15.37-21.06,5.38-.51,10.77-1.54,16.15-1.44,8.27.15,14.91-2.08,19.15-9.67,2.1-3.76,5.32-3.43,7.79-.83,2.71,2.84,4.96,6.23,6.87,9.68,1.49,2.69.37,5.5-2.42,6.65-6.25,2.57-12.53,5.33-19.07,6.87-6.05,1.43-12.44,1.61-18.7,1.94-6.14.32-11.01,4.34-10.72,10.44.12,2.58-1.36,7.91,3.91,6.93,1.74-1.86,2.76-3.49,4.23-4.3.76-.42,2.97.24,3.4,1.03,1.24,2.3,2.45,4.85,2.69,7.39.38,3.94,1.46,5.95,5.97,5.74,5.06-.24,8.05,3.14,7.97,7.87-.1,5.81,2.09,7.79,7.65,9.75,6,2.11,12.09,4.62,17.3,8.18,14.36,9.82,25.56,22.49,32.05,38.95.59,1.49,1.44,3.21,2.7,4.03,3.74,2.43,7.9,4.22,11.57,6.73,3.43,2.35,6.44,5.3,9.63,7.99Z"/>
      <path class="cls-2" d="m232,138.47c-3.2-2.69-6.21-5.64-9.63-7.99-3.67-2.51-7.84-4.3-11.57-6.73-1.25-.82-2.11-2.54-2.7-4.03-6.49-16.45-17.69-29.13-32.05-38.95-5.21-3.56-11.3-6.07-17.3-8.18-5.57-1.96-7.76-3.94-7.65-9.75.08-4.73-2.92-8.11-7.97-7.87-4.52.21-5.59-1.79-5.97-5.74-.25-2.55-1.45-5.1-2.69-7.39-.43-.79-2.63-1.45-3.4-1.03-1.47.81-2.49,2.44-4.23,4.3-5.27.99-3.79-4.34-3.91-6.93-.28-6.1,4.59-10.11,10.72-10.44,6.26-.33,12.65-.5,18.7-1.94,6.54-1.55,12.82-4.3,19.07-6.87,2.79-1.15,3.92-3.95,2.42-6.65-1.92-3.45-4.17-6.84-6.87-9.68-2.47-2.6-5.69-2.93-7.79.83-4.24,7.59-10.88,9.82-19.15,9.67-5.37-.1-10.76.94-16.15,1.44-9.6.9-15.31,12.96-15.37,21.06-.02,3.13,0,6.26,0,10.91-1.81-1.27-3.11-2.22-4.45-3.12-1.39-.94-2.81-1.84-4.22-2.75-.73,1.28-1.26,2.72-2.21,3.8-3.24,3.7-2.56,10.5-9.66,11.27-4.72.51-7.73,3.16-6.58,8.86.28,1.37-1.11,3.85-2.44,4.64-4.67,2.77-9.46,5.59-14.56,7.35-8.87,3.05-15.77,8.83-21.2,15.84-7.15,9.23-13.04,19.45-19.51,29.21-.8,1.2-1.75,2.38-2.88,3.26-4.82,3.79-9.66,7.55-14.65,11.1-1.09.77-2.83.63-5.02,1.05,0,6.29-.2,12.71.18,19.1.07,1.14,2.52,2.13,4.57,3.74-.71,4.29,2.28,7.49,5.94,10.99,5.78,5.51,9.12,12.65,11.93,20.3,8.86,24.09,24.2,42.32,49.46,50.44,4.52,1.45,6.03,4.93,7.46,8.56,1.64,4.15,4.2,6.54,8.8,6.55,17.36.07,34.72.55,52.07.13,8.55-.21,10.44-2.72,12.89-10.88.47-1.55,1.9-3.28,3.34-3.98,6.56-3.15,13.74-5.24,19.81-9.1,5.88-3.74,10.79-9.08,15.95-13.9,9.75-9.11,12.23-22.03,17.64-33.46,3.02-6.39,8.22-11.74,12.45-17.56.85-1.17,2.19-2.19,2.55-3.49.92-3.3,2.72-5.66,5.81-7.08v101.61H0C0,172.67,0,86.33,0,0c77.33,0,154.67,0,232,0,0,46.16,0,92.31,0,138.47Z"/>
    </g>
  </g>
</svg>