<?xml version="1.0" encoding="UTF-8"?>
<svg id="Layer_1" data-name="Layer 1" xmlns="http://www.w3.org/2000/svg" viewBox="0 0 416 603">
  <defs>
    <style>
      .cls-1, .cls-2 {
        stroke-width: 0px;
      }

      .cls-2 {
        fill: #fff;
      }
    </style>
  </defs>
  <g id="_9IaQrx.tif" data-name="9IaQrx.tif">
    <g>
      <path class="cls-2" d="m0,0h416v603H0C0,402,0,201,0,0Zm413.58,3.25c-1.6.37-2.72.39-3.6.88-8.2,4.54-16.36,9.14-24.51,13.76-7.36,4.18-14.95,8.03-21.96,12.74-9.12,6.11-18.01,12.63-26.55,19.53-7.02,5.67-13.48,12.04-20.02,18.29-7.64,7.31-15.27,14.65-22.59,22.28-9.58,9.98-19.01,20.12-28.2,30.45-8.82,9.92-17.32,20.13-25.84,30.31-5.05,6.04-9.94,12.22-14.79,18.44-5.35,6.85-10.68,13.73-15.79,20.75-4.28,5.89-8.19,12.05-12.36,18.01-4.79,6.85-9.8,13.55-14.51,20.45-4.99,7.31-9.69,14.82-14.61,22.19-5.38,8.07-10.96,16.02-16.28,24.13-4.95,7.55-9.64,15.27-14.5,22.88-4.71,7.36-9.62,14.59-14.2,22.02-5,8.13-9.69,16.45-14.59,24.64-4.76,7.96-9.77,15.78-14.39,23.81-5,8.68-9.62,17.57-14.52,26.3-4.21,7.51-8.69,14.87-12.86,22.4-3.26,5.89-6.19,11.96-9.32,17.92-4.17,7.94-8.52,15.79-12.57,23.79-2.65,5.24-4.87,10.69-7.31,16.03-4.21,9.23-8.51,18.41-12.62,27.68-1.94,4.38-3.44,8.95-5.25,13.4-1.89,4.65-4.1,9.17-5.83,13.87-1.94,5.29-3.57,10.69-5.2,16.09-1.84,6.08-4.14,12.1-5.13,18.33-1,6.3-.74,12.81-.82,19.23-.04,3.12,1.27,5.75,3.68,7.95,5.94,5.42,12.8,8.07,20.85,8.85,11.17,1.08,21.4-1.3,30.6-7.28,11.04-7.18,19.74-16.71,25.25-28.86,2.52-5.55,4.84-11.19,7.29-16.77,3.18-7.23,6.44-14.42,9.6-21.65,2.57-5.88,4.8-11.92,7.6-17.69,4.1-8.46,8.47-16.79,12.91-25.08,3.1-5.77,5.99-11.76,9.9-16.95,7.97-10.58,15.3-21.7,25.01-30.9,6.72-6.38,13.22-13,19.69-19.64,3.55-3.64,9.36-6.38,6.09-13.23-.13-.28-.03-.68-.02-1.03.36-8.55.56-17.11,1.14-25.64.47-7.03.81-14.15,2.25-21.01,1.42-6.77,3.82-13.4,6.42-19.83,1.77-4.38,4.84-8.21,6.94-12.48,2.97-6.04,8-10.47,13.01-14.18,5.75-4.26,12.78-7.32,20.32-7.51,5.46-.14,11.17-.45,16.35.9,6.18,1.61,7.39,2.01,11.2-2.88.2-.25.61-.35.79-.61,2.62-4,6.51-6.93,9.43-10.5,7.94-9.73,15.07-20.15,22.18-30.53,7.06-10.31,13.77-20.87,20.5-31.41,3.28-5.14,6.23-10.49,9.39-15.71,4.72-7.77,9.74-15.35,14.18-23.28,4.51-8.07,8.47-16.45,12.66-24.69,5.64-11.08,11.39-22.11,16.88-33.26,2.6-5.28,4.67-10.81,7.06-16.19,3.6-8.1,7.34-16.14,10.86-24.27,1.92-4.43,3.42-9.04,5.25-13.5,2.37-5.76,5.11-11.37,7.27-17.2,2.77-7.47,5.14-15.1,7.65-22.67,3.45-10.38,6.87-20.77,10.54-31.85Z"/>
      <path class="cls-1" d="m413.58,3.25c-3.67,11.08-7.09,21.47-10.54,31.85-2.51,7.57-4.88,15.19-7.65,22.67-2.16,5.83-4.9,11.44-7.27,17.2-1.83,4.47-3.33,9.07-5.25,13.5-3.52,8.13-7.27,16.17-10.86,24.27-2.39,5.38-4.46,10.92-7.06,16.19-5.49,11.15-11.24,22.18-16.88,33.26-4.2,8.24-8.15,16.63-12.66,24.69-4.43,7.92-9.46,15.51-14.18,23.28-3.17,5.21-6.11,10.57-9.39,15.71-6.73,10.54-13.44,21.09-20.5,31.41-7.11,10.38-14.23,20.8-22.18,30.53-2.92,3.57-6.81,6.51-9.43,10.5-.17.26-.59.36-.79.61-3.81,4.89-5.02,4.5-11.2,2.88-5.18-1.35-10.89-1.04-16.35-.9-7.54.19-14.57,3.26-20.32,7.51-5.01,3.71-10.04,8.14-13.01,14.18-2.1,4.27-5.17,8.1-6.94,12.48-2.6,6.43-5,13.06-6.42,19.83-1.44,6.86-1.78,13.98-2.25,21.01-.57,8.53-.78,17.09-1.14,25.64-.01.34-.11.74.02,1.03,3.27,6.85-2.54,9.59-6.09,13.23-6.47,6.64-12.97,13.26-19.69,19.64-9.71,9.21-17.03,20.33-25.01,30.9-3.91,5.19-6.8,11.18-9.9,16.95-4.45,8.28-8.81,16.62-12.91,25.08-2.8,5.77-5.03,11.81-7.6,17.69-3.16,7.24-6.42,14.43-9.6,21.65-2.45,5.58-4.78,11.22-7.29,16.77-5.51,12.15-14.2,21.68-25.25,28.86-9.2,5.98-19.43,8.36-30.6,7.28-8.05-.78-14.91-3.43-20.85-8.85-2.41-2.2-3.71-4.83-3.68-7.95.08-6.42-.18-12.93.82-19.23.99-6.22,3.29-12.25,5.13-18.33,1.63-5.39,3.26-10.8,5.2-16.09,1.73-4.7,3.94-9.23,5.83-13.87,1.81-4.44,3.31-9.01,5.25-13.4,4.1-9.27,8.41-18.45,12.62-27.68,2.44-5.34,4.66-10.79,7.31-16.03,4.04-8,8.39-15.85,12.57-23.79,3.13-5.96,6.06-12.03,9.32-17.92,4.17-7.53,8.65-14.89,12.86-22.4,4.9-8.73,9.52-17.63,14.52-26.3,4.63-8.04,9.63-15.85,14.39-23.81,4.9-8.19,9.58-16.51,14.59-24.64,4.58-7.44,9.49-14.66,14.2-22.02,4.86-7.61,9.55-15.33,14.5-22.88,5.32-8.11,10.89-16.06,16.28-24.13,4.91-7.37,9.62-14.88,14.61-22.19,4.71-6.9,9.72-13.6,14.51-20.45,4.17-5.97,8.08-12.13,12.36-18.01,5.11-7.03,10.44-13.9,15.79-20.75,4.85-6.21,9.73-12.4,14.79-18.44,8.52-10.18,17.02-20.39,25.84-30.31,9.19-10.34,18.62-20.47,28.2-30.45,7.32-7.63,14.94-14.97,22.59-22.28,6.53-6.25,13-12.62,20.02-18.29,8.54-6.9,17.43-13.42,26.55-19.53,7.02-4.7,14.6-8.56,21.96-12.74,8.15-4.63,16.31-9.22,24.51-13.76.87-.48,2-.5,3.6-.88ZM156.29,365.58c.14-4.08-1.65-10.97-6.58-16.89-2.41-2.89-5.91-4.7-8.15-3.41-2.08,1.2-4.13,2.78-5.61,4.64-2.52,3.18-3.86,6.87-4.74,11.01-2.25,10.56-.92,19.94,6.41,28.21,4.46,5.04,8.65,3.05,12.08-.71,5.07-5.55,6.42-12.23,6.59-22.85Zm-104.28,142.87c.47,2.23,1.26,4.82,1.54,7.47.6,5.54,3.43,9.89,7.3,13.49,3.15,2.92,5.82,3.11,9.12.04,5.32-4.96,7.99-11.01,8.36-18.15.49-9.27-.54-18.07-8.01-24.8-3.25-2.93-7.01-2.61-10.15.31-6.22,5.79-6.9,13.48-8.18,21.64Zm62.44-72.9c.27-4.36-1.66-10.77-5.26-16.72-1.93-3.19-7.44-5.84-9.8-4.43-5.1,3.04-8.5,7.62-9.55,13.39-.81,4.46-.86,9.11-.74,13.66.19,7.22,2.25,13.68,8.61,18.12,2.67,1.86,5.02,2.09,7.63.13,7.2-5.41,8.81-13.16,9.1-24.15Zm-85.83,129.76c.22,5.21.1,10.05,3.76,13.95,2.03,2.17,4.19,2.34,6.39.49,6.27-5.28,6.18-21.29,1.1-27.55-2.36-2.91-3.86-2.87-6.63-.76-4.9,3.74-4.14,9.17-4.62,13.87Z"/>
      <path class="cls-2" d="m156.29,365.58c-.17,10.62-1.52,17.3-6.59,22.85-3.43,3.76-7.62,5.75-12.08.71-7.32-8.27-8.66-17.65-6.41-28.21.88-4.14,2.21-7.83,4.74-11.01,1.48-1.87,3.53-3.44,5.61-4.64,2.24-1.29,5.74.52,8.15,3.41,4.93,5.93,6.73,12.82,6.58,16.89Z"/>
      <path class="cls-2" d="m52.02,508.45c1.28-8.15,1.96-15.84,8.18-21.64,3.14-2.92,6.9-3.24,10.15-.31,7.46,6.73,8.5,15.53,8.01,24.8-.38,7.14-3.04,13.19-8.36,18.15-3.3,3.07-5.97,2.88-9.12-.04-3.87-3.59-6.7-7.95-7.3-13.49-.29-2.65-1.07-5.24-1.54-7.47Z"/>
      <path class="cls-2" d="m114.45,435.55c-.3,10.99-1.9,18.74-9.1,24.15-2.61,1.96-4.97,1.74-7.63-.13-6.36-4.44-8.42-10.9-8.61-18.12-.12-4.55-.06-9.21.74-13.66,1.05-5.78,4.45-10.35,9.55-13.39,2.36-1.41,7.87,1.24,9.8,4.43,3.6,5.96,5.54,12.36,5.26,16.72Z"/>
      <path class="cls-2" d="m28.63,565.32c.48-4.7-.28-10.13,4.62-13.87,2.77-2.12,4.27-2.15,6.63.76,5.08,6.26,5.17,22.27-1.1,27.55-2.2,1.85-4.36,1.68-6.39-.49-3.66-3.9-3.54-8.74-3.76-13.95Z"/>
    </g>
  </g>
</svg>