<?xml version="1.0" encoding="UTF-8"?>
<svg id="Layer_1" data-name="Layer 1" xmlns="http://www.w3.org/2000/svg" viewBox="0 0 118 160">
  <defs>
    <style>
      .cls-1, .cls-2 {
        stroke-width: 0px;
      }

      .cls-2 {
        fill: #fff;
      }
    </style>
  </defs>
  <g id="usaS14.tif">
    <g>
      <path class="cls-2" d="m118,160H0V0h118v160ZM81.06,17.48c.07-.24.14-.48.22-.73,3.94-.32,7.88-.84,11.82-.91,3.56-.06,6.23-.58,6.16-5.05-.07-4.29-1.58-7.42-6.28-6.91-5.87.63-11.7,1.78-17.5,2.97-10.47,2.15-21.04,4-31.31,6.91-6.93,1.96-13.36,5.66-20.13,8.29-4.68,1.82-5.49,6.4-7.48,10.04-.43.78,1.72,3.18,2.96,4.59.59.67,1.84.76,2.62,1.05-2.49,2.82-5.24,5.12-6.95,8.03-5.59,9.55-10.45,19.2-10.99,30.87-.43,9.25.75,18.01,4.54,26.05,7.83,16.61,16.43,32.85,24.98,49.1.97,1.85,3.6,3.93,5.51,3.99,13.17.39,26.36.25,39.55.32,3.45.02,5.32-1.8,6.78-4.76,5.79-11.72,11.71-23.38,17.66-35.02,4.74-9.27,10.65-18.33,11.11-28.94.39-8.94.35-18.47-2.33-26.83-3.57-11.14-10.3-21.07-20.98-27.35-1.06-.63-1.89-1.66-3.37-2.98,3.7.24,6.62.61,9.53.57,3.34-.04,6.32-1.03,6.79-5.03.51-4.34-2.54-5.23-5.85-5.73-5.69-.86-11.38-1.69-17.07-2.54Z"/>
      <path class="cls-1" d="m81.06,17.48c5.69.85,11.38,1.68,17.07,2.54,3.32.5,6.36,1.38,5.85,5.73-.47,3.99-3.45,4.98-6.79,5.03-2.91.04-5.82-.33-9.53-.57,1.47,1.33,2.3,2.36,3.37,2.98,10.68,6.28,17.41,16.2,20.98,27.35,2.68,8.36,2.72,17.89,2.33,26.83-.46,10.61-6.37,19.67-11.11,28.94-5.95,11.64-11.86,23.3-17.66,35.02-1.46,2.96-3.33,4.78-6.78,4.76-13.18-.08-26.37.07-39.55-.32-1.91-.06-4.54-2.14-5.51-3.99-8.55-16.25-17.16-32.49-24.98-49.1-3.79-8.04-4.97-16.8-4.54-26.05.54-11.67,5.41-21.32,10.99-30.87,1.71-2.91,4.46-5.21,6.95-8.03-.78-.29-2.03-.38-2.62-1.05-1.24-1.41-3.39-3.81-2.96-4.59,1.99-3.63,2.79-8.22,7.48-10.04,6.77-2.63,13.2-6.33,20.13-8.29,10.27-2.9,20.84-4.76,31.31-6.91,5.79-1.19,11.62-2.34,17.5-2.97,4.7-.5,6.21,2.62,6.28,6.91.07,4.46-2.6,4.98-6.16,5.05-3.94.07-7.88.58-11.82.91-.07.24-.14.48-.22.73Zm-3.72,3.17c-.08.27-.16.53-.25.8,4.76,1.96,9.47,4.08,14.33,5.79,1.31.46,3.15-.12,4.58-.66.57-.22.97-1.64.92-2.48-.03-.51-1.04-1.29-1.68-1.37-5.96-.76-11.93-1.4-17.9-2.07Zm14.74-12.4c-5.29,1.1-10.25,2.13-15.21,3.16,12.62,1.93,14.21,1.61,15.21-3.16Z"/>
      <path class="cls-2" d="m77.34,20.65c5.97.67,11.94,1.31,17.9,2.07.64.08,1.65.87,1.68,1.37.05.84-.35,2.27-.92,2.48-1.43.54-3.26,1.12-4.58.66-4.85-1.7-9.57-3.82-14.33-5.79.08-.27.16-.53.25-.8Z"/>
      <path class="cls-2" d="m92.08,8.25c-1,4.76-2.59,5.09-15.21,3.16,4.96-1.03,9.91-2.06,15.21-3.16Z"/>
    </g>
  </g>
</svg>