<svg id="Layer_1" data-name="Layer 1" xmlns="http://www.w3.org/2000/svg" viewBox="0 0 118 160">
  
  <g id="usaS14.tif">
    <g>
      
      <path class="cls-1" d="m81.06,17.48c5.69.85,11.38,1.68,17.07,2.54,3.32.5,6.36,1.38,5.85,5.73-.47,3.99-3.45,4.98-6.79,5.03-2.91.04-5.82-.33-9.53-.57,1.47,1.33,2.3,2.36,3.37,2.98,10.68,6.28,17.41,16.2,20.98,27.35,2.68,8.36,2.72,17.89,2.33,26.83-.46,10.61-6.37,19.67-11.11,28.94-5.95,11.64-11.86,23.3-17.66,35.02-1.46,2.96-3.33,4.78-6.78,4.76-13.18-.08-26.37.07-39.55-.32-1.91-.06-4.54-2.14-5.51-3.99-8.55-16.25-17.16-32.49-24.98-49.1-3.79-8.04-4.97-16.8-4.54-26.05.54-11.67,5.41-21.32,10.99-30.87,1.71-2.91,4.46-5.21,6.95-8.03-.78-.29-2.03-.38-2.62-1.05-1.24-1.41-3.39-3.81-2.96-4.59,1.99-3.63,2.79-8.22,7.48-10.04,6.77-2.63,13.2-6.33,20.13-8.29,10.27-2.9,20.84-4.76,31.31-6.91,5.79-1.19,11.62-2.34,17.5-2.97,4.7-.5,6.21,2.62,6.28,6.91.07,4.46-2.6,4.98-6.16,5.05-3.94.07-7.88.58-11.82.91-.07.24-.14.48-.22.73Zm-3.72,3.17c-.08.27-.16.53-.25.8,4.76,1.96,9.47,4.08,14.33,5.79,1.31.46,3.15-.12,4.58-.66.57-.22.97-1.64.92-2.48-.03-.51-1.04-1.29-1.68-1.37-5.96-.76-11.93-1.4-17.9-2.07Zm14.74-12.4c-5.29,1.1-10.25,2.13-15.21,3.16,12.62,1.93,14.21,1.61,15.21-3.16Z"/>
      
      
    </g>
  </g>
</svg>