<?xml version="1.0" encoding="UTF-8"?>
<svg id="Layer_1" data-name="Layer 1" xmlns="http://www.w3.org/2000/svg" viewBox="0 0 365 368">
  <defs>
    <style>
      .cls-1, .cls-2 {
        stroke-width: 0px;
      }

      .cls-2 {
        fill: #fff;
      }
    </style>
  </defs>
  <g id="J6Wjfa.tif">
    <g>
      <path class="cls-1" d="m0,191.48v-1.99c.98-6.07,3.56-11.57,8.86-14.58,4.59-2.6,6.73-5.88,7.06-10.85.08-1.13.65-2.23.79-3.37,1.36-11.25,9.32-21.38,5.65-33.5-.26-.86.19-1.97.43-2.93,2.58-10.18,7.9-18.93,14.46-26.95,3.6-4.4,7.73-8.2,13.79-9.12,1.31-.2,2.77-1.15,3.65-2.19,17.35-20.38,38.91-34.88,63.32-45.33,3.66-1.57,6.19-2.83,5.53-7.6-.31-2.22.77-5.05,2.09-7,5.63-8.29,11.44-16.58,23.22-16.16.61.02,1.24-.33,2.17-.6-.76-4.74,2.09-5.96,6.03-6.54,17.55-2.6,35.06-2.37,52.57.36,3.77.59,6.13,2.32,5.44,7.13,11.15-.52,18.47,5.19,23.41,14.13,1.83,3.32,3.11,7.18,3.58,10.93.36,2.87,1.02,4.21,3.77,5.39,18.41,7.9,35.38,18.13,50.27,31.7,1.78,1.62,4.6,2.85,6.98,2.93,5.65.18,10.04,2.59,13.32,6.71,5.55,6.98,10.76,14.25,15.95,21.5,3.23,4.52,3.25,9.53,1.83,14.77-.42,1.53-.32,3.53.33,4.96,6.09,13.49,11.14,27.35,13.65,41.95.9,5.25,2.49,8.78,7.24,11.78,4.68,2.95,8.2,7.56,7.86,14.02-.38,7.12-.7,14.28-.4,21.4.39,9.62-3.87,16.26-11.54,21.55-2.37,1.63-4.3,4.49-5.44,7.2-4.55,10.81-7.84,22.24-13.18,32.61-12.83,24.92-30.02,46.13-53.36,62.51-19.98,14.02-41.98,22.54-65.31,28.12-8.64,2.06-17.68,2.43-26.54,3.58h-10.97c-1.29-.21-2.57-.45-3.86-.64-9.35-1.33-18.88-1.91-28.01-4.12-24.1-5.82-46.15-16.15-65.98-31.28-13.87-10.58-25.36-23.42-35.54-37.3-11.13-15.18-19.01-32.25-23.75-50.53-1.68-6.49-4.9-11.04-10.38-14.76-5.28-3.58-7.96-8.9-7.96-15.63,0-7.42-.66-14.84-1.03-22.27Z"/>
      <path class="cls-2" d="m187.49,368c8.86-1.14,17.9-1.51,26.54-3.58,23.34-5.57,45.33-14.1,65.31-28.12,23.34-16.37,40.53-37.59,53.36-62.51,5.34-10.38,8.63-21.8,13.18-32.61,1.14-2.71,3.07-5.56,5.44-7.2,7.66-5.29,11.93-11.93,11.54-21.55-.29-7.12.02-14.28.4-21.4.34-6.46-3.18-11.07-7.86-14.02-4.75-2.99-6.34-6.53-7.24-11.78-2.5-14.59-7.56-28.45-13.65-41.95-.65-1.43-.75-3.43-.33-4.96,1.43-5.24,1.4-10.25-1.83-14.77-5.19-7.26-10.39-14.52-15.95-21.5-3.28-4.13-7.67-6.54-13.32-6.71-2.38-.08-5.2-1.3-6.98-2.93-14.89-13.57-31.85-23.8-50.27-31.7-2.75-1.18-3.41-2.53-3.77-5.39-.47-3.75-1.75-7.61-3.58-10.93-4.94-8.95-12.26-14.65-23.41-14.13.7-4.81-1.67-6.54-5.44-7.13-17.51-2.72-35.01-2.95-52.57-.36-3.94.58-6.79,1.81-6.03,6.54-.93.27-1.55.62-2.17.6-11.78-.42-17.59,7.87-23.22,16.16-1.33,1.95-2.4,4.78-2.09,7,.67,4.76-1.87,6.03-5.53,7.6-24.41,10.45-45.98,24.95-63.32,45.33-.88,1.04-2.34,1.99-3.65,2.19-6.06.91-10.19,4.71-13.79,9.12-6.56,8.02-11.88,16.77-14.46,26.95-.24.96-.69,2.07-.43,2.93,3.67,12.12-4.28,22.26-5.65,33.5-.14,1.14-.72,2.23-.79,3.37-.33,4.97-2.48,8.25-7.06,10.85-5.3,3.01-7.89,8.5-8.86,14.58V0h365v368h-177.51Z"/>
      <path class="cls-2" d="m0,191.48c.37,7.42,1.02,14.84,1.03,22.27,0,6.73,2.69,12.05,7.96,15.63,5.48,3.72,8.7,8.28,10.38,14.76,4.75,18.28,12.62,35.35,23.75,50.53,10.18,13.88,21.67,26.71,35.54,37.3,19.83,15.13,41.88,25.46,65.98,31.28,9.14,2.2,18.67,2.79,28.01,4.12,1.29.18,2.57.42,3.86.64H0v-176.52Z"/>
    </g>
  </g>
</svg>