<?xml version="1.0" encoding="UTF-8"?>
<svg id="Layer_1" data-name="Layer 1" xmlns="http://www.w3.org/2000/svg" viewBox="0 0 417.31 426.18">
  <defs>
    <style>
      .cls-1, .cls-2 {
        stroke-width: 0px;
      }

      .cls-2 {
        fill: #fff;
      }
    </style>
  </defs>
  <g id="d74zWx.tif">
    <g>
      <path class="cls-2" d="m417.31,426.18H0C0,284.12,0,142.06,0,0c139.1,0,278.2,0,417.31,0,0,142.06,0,284.12,0,426.18Zm-232.76-72.37c-.41,0-.83,0-1.24,0,0,11.05.02,22.1-.03,33.15,0,1.25-.16,2.61-.67,3.73-.9,1.98-2.11,3.82-3.2,5.72,2.3.8,4.58,2.21,6.91,2.31,13.32.59,26.66.89,39.99,1.24,7.56.2,8.43-1.25,5.91-8.87-.65-1.97-.77-4.19-.78-6.3-.06-14.44-.14-28.89,0-43.33.2-20.97.68-41.94.84-62.91.11-15.49-.22-30.99-.15-46.49.11-23.05.46-46.09.62-69.14.14-21.07.13-42.15.24-63.23.07-13.18-.07-26.38.53-39.54.28-6.1-1.83-12.85,3.84-18.24.85-.81-.99-6.03-2.9-7.77-1.99-1.82-5.55-2.6-8.43-2.63-12.42-.1-24.86-.04-37.25.66-2.71.15-6.35,2.63-7.59,5.05-1.41,2.73-1.07,6.6,3.19,8.47,1.04.46,1.48,3.25,1.49,4.97.02,11.04-.27,22.08-.26,33.12.02,18.36.29,36.71.27,55.07-.02,17.91-.15,35.83-.47,53.74-.3,16.6-1.21,33.19-1.31,49.79-.13,20.87.35,41.74.46,62.61.09,16.28.02,32.55.02,48.83Z"/>
      <path class="cls-1" d="m184.55,353.81c0-16.28.07-32.55-.02-48.83-.11-20.87-.58-41.74-.46-62.61.1-16.6,1.01-33.19,1.31-49.79.32-17.91.45-35.83.47-53.74.02-18.36-.25-36.71-.27-55.07-.01-11.04.28-22.08.26-33.12,0-1.72-.44-4.51-1.49-4.97-4.26-1.88-4.6-5.74-3.19-8.47,1.25-2.42,4.88-4.9,7.59-5.05,12.39-.7,24.83-.76,37.25-.66,2.88.02,6.45.81,8.43,2.63,1.9,1.74,3.75,6.96,2.9,7.77-5.66,5.39-3.56,12.14-3.84,18.24-.6,13.16-.46,26.36-.53,39.54-.11,21.07-.1,42.15-.24,63.23-.15,23.05-.51,46.09-.62,69.14-.08,15.49.26,30.99.15,46.49-.15,20.97-.64,41.94-.84,62.91-.14,14.44-.06,28.89,0,43.33,0,2.11.13,4.33.78,6.3,2.52,7.62,1.66,9.07-5.91,8.87-13.33-.35-26.67-.65-39.99-1.24-2.33-.1-4.61-1.51-6.91-2.31,1.08-1.9,2.3-3.73,3.2-5.72.51-1.12.66-2.47.67-3.73.05-11.05.03-22.1.03-33.15.41,0,.83,0,1.24,0Z"/>
    </g>
  </g>
</svg>