<svg id="Layer_1" data-name="Layer 1" xmlns="http://www.w3.org/2000/svg" viewBox="0 0 417.31 426.18">
  <g id="d74zWx.tif">
    <g>
      <path class="cls-1" d="m184.55,353.81c0-16.28.07-32.55-.02-48.83-.11-20.87-.58-41.74-.46-62.61.1-16.6,1.01-33.19,1.31-49.79.32-17.91.45-35.83.47-53.74.02-18.36-.25-36.71-.27-55.07-.01-11.04.28-22.08.26-33.12,0-1.72-.44-4.51-1.49-4.97-4.26-1.88-4.6-5.74-3.19-8.47,1.25-2.42,4.88-4.9,7.59-5.05,12.39-.7,24.83-.76,37.25-.66,2.88.02,6.45.81,8.43,2.63,1.9,1.74,3.75,6.96,2.9,7.77-5.66,5.39-3.56,12.14-3.84,18.24-.6,13.16-.46,26.36-.53,39.54-.11,21.07-.1,42.15-.24,63.23-.15,23.05-.51,46.09-.62,69.14-.08,15.49.26,30.99.15,46.49-.15,20.97-.64,41.94-.84,62.91-.14,14.44-.06,28.89,0,43.33,0,2.11.13,4.33.78,6.3,2.52,7.62,1.66,9.07-5.91,8.87-13.33-.35-26.67-.65-39.99-1.24-2.33-.1-4.61-1.51-6.91-2.31,1.08-1.9,2.3-3.73,3.2-5.72.51-1.12.66-2.47.67-3.73.05-11.05.03-22.1.03-33.15.41,0,.83,0,1.24,0Z"/>
    </g>
  </g>
</svg>