<svg xmlns="http://www.w3.org/2000/svg" xml:space="preserve" width="88.794" height="195" viewBox="0 0 23.493 51.594"><path d="M6.852 0v2.088l1.257.08c1.244.08 1.256.09 1.256 1.007v.926l-2.534.132c-2.233.117-2.688.228-3.829.934A6.85 6.85 0 0 0 .906 7.262L.105 8.557l-.077 11C-.059 31.87-.056 31.894 1.767 33.723c1.543 1.548 2.282 1.83 5.217 1.986l2.646.141.075 2.844c.069 2.589.12 2.845.577 2.845.412 0 .534.27.688 1.52.136 1.1.618 2.347 1.74 4.497.852 1.636 1.52 3.102 1.55 3.25.058.275.128.795.182.77l1.373.017-.15-.993c-.083-.545-.795-2.203-1.582-3.684-.956-1.8-1.483-3.138-1.59-4.035-.155-1.314-.174-1.332.51-1.332 0 0 .391.071.616.01.196-.053.112-2.93.112-2.93v-2.911h2.39c2.016 0 2.592-.102 3.678-.653.708-.358 1.66-1.102 2.117-1.653 1.563-1.887 1.642-2.607 1.553-14.149-.078-10.072-.099-10.434-.652-11.459-.314-.582-.91-1.37-1.323-1.751-1.568-1.447-2.193-1.682-4.84-1.82L14.127 4.1l-.082-.992-.082-.992h2.677V0h-4.894zm4.75 6.615h5.994l1.196.758c2.098 1.33 2.083 1.24 2.083 12.647 0 11.339.033 11.144-2.1 12.656l-1.12.794-5.335.057c-2.935.032-5.455.012-5.6-.043a11 11 0 0 0-.987-.26c-.97-.213-2.58-1.662-3.021-2.718-.278-.664-.356-2.916-.351-10.058.003-5.062.114-9.67.247-10.24C2.9 8.945 3.57 8 4.733 7.21c.843-.574 1.088-.595 6.869-.595m-.01 1.058c-4.96 0-5.403.04-6.237.555-1.68 1.039-1.678 1.023-1.678 11.94 0 10.884-.049 10.547 1.685 11.604.744.454 1.38.505 6.257.506 6.11.001 6.798-.165 7.72-1.871.456-.842.485-1.594.418-10.74l-.073-9.835-.661-.708c-1.284-1.373-1.683-1.451-7.43-1.451m.296 4.24c.047.001.27.31.497.686a167 167 0 0 0 1.885 2.95c2.31 3.556 3.016 5.163 3.013 6.858-.005 2.625-1.919 4.842-4.534 5.252-.948.149-1.191.144-2.029-.042-3.299-.732-5.081-4.11-3.869-7.332.446-1.185 1.073-2.286 2.961-5.205.938-1.449 1.77-2.755 1.848-2.902s.181-.267.228-.266m-2.893 6.944c-.075-.076-.684 1.125-.91 1.79-.284.844-.303 2.224-.04 2.993.392 1.152 1.772 2.112 3.033 2.11.362 0 .737-.052.836-.115.148-.096.138-.116-.06-.117-.966-.005-2.345-1.019-2.884-2.12-.45-.918-.522-2.45-.175-3.67.131-.458.22-.85.2-.871"/></svg>