<?xml version="1.0" encoding="UTF-8" standalone="no"?>
<svg
   width="74.81987mm"
   height="120.45966mm"
   viewBox="0 0 74.81987 120.45966"
   version="1.1"
   xml:space="preserve"
   xmlns="http://www.w3.org/2000/svg"
   xmlns:svg="http://www.w3.org/2000/svg"><path
     style="fill:#000000"
     d="m 11.750092,120.01434 c -0.488298,-0.4883 -0.408701,-1.39495 0.320881,-3.65499 0.60355,-1.86962 2.706921,-3.92657 4.585719,-4.48451 1.956594,-0.58105 3.150296,-0.52596 5.46897,0.25239 1.099611,0.36913 2.04634,0.6241 2.103842,0.5666 0.0575,-0.0575 -0.01122,-1.99663 -0.152701,-4.30917 -0.141487,-2.31253 -0.333321,-5.57946 -0.426297,-7.25984 l -0.169047,-3.055231 -1.181567,-0.62682 c -1.385843,-0.73519 -3.513328,-2.97209 -4.197026,-4.41288 -0.448793,-0.94576 -0.45257,-1.08941 -0.05753,-2.18797 0.297135,-0.8263 0.345653,-1.31991 0.163239,-1.66075 -0.291912,-0.54544 0.04062,-4.20344 0.783172,-8.61518 0.251053,-1.49159 0.360843,-2.71198 0.243978,-2.71198 -0.116864,0 -1.147623,0.89343 -2.290575,1.9854 -3.060792,2.92426 -3.544024,4.11767 -3.72781,9.20634 l -0.141421,3.91569 0.882415,0.84681 c 1.243163,1.19299 2.113779,2.77407 2.446283,4.44256 0.487575,2.446631 -0.375363,3.681291 -1.930769,2.762491 -0.76551,-0.45219 -0.786832,-0.45131 -0.636434,0.0265 0.08559,0.27192 0.277367,1.13933 0.426181,1.92758 0.22115,1.17141 0.196688,1.54595 -0.133923,2.05052 -0.837848,1.27872 -2.57844,0.47119 -2.921073,-1.3552 -0.26803,-1.42872 -0.646222,-1.39833 -0.646222,0.0519 0,1.45789 -0.323667,1.92062 -1.3434363,1.92062 -0.984853,0 -1.409379,-0.62993 -1.587594,-2.35574 l -0.152906,-1.48072 -0.337945,0.86548 c -0.462989,1.18572 -1.187927,1.54439 -2.019819,0.99931 -0.514974,-0.33742 -0.64309,-0.64545 -0.640587,-1.54016 0.0047,-1.6645 1.2004,-6.159831 2.00261,-7.528701 0.670791,-1.14462 0.704588,-1.38331 0.754901,-5.33147 0.0445,-3.49183 0.146371,-4.42061 0.656496,-5.98529 1.976373,-6.06204 6.7506663,-11.20305 13.3839053,-14.41195 1.74625,-0.84477 3.530504,-1.61815 3.96501,-1.71864 1.022071,-0.23636 0.624728,-0.45158 -1.980635,-1.07281 -8.098308,-1.93096 -13.4278603,-6.04922 -15.0831923,-11.65509 l -0.318092,-1.07723 -1.62592,0.0146 c -2.864406,0.0258 -4.561385,-1.41167 -5.717342,-4.84308 -0.643112,-1.90905 -0.688343,-3.65637 -0.129283,-4.99438 0.836376,-2.00173 2.262131,-2.97168 4.368165,-2.97168 1.190926,0 1.341698,-0.0589 1.186069,-0.46302 -0.09806,-0.25466 -0.594144,-1.93793 -1.102406,-3.74059 -1.076282,-3.81727 -1.653455,-5.14194 -2.853044,-6.54803 -1.496677,-1.75432 -1.861335,-2.68509 -1.869014,-4.77058 -0.0038,-1.0429 0.06456,-1.96772 0.152,-2.05516 0.08744,-0.0874 0.696852,0.37889 1.354249,1.03628 1.094415,1.09442 2.173502,1.52138 2.647383,1.0475 0.08127,-0.0813 -0.250589,-0.8093 -0.737469,-1.61785 -1.142446,-1.897214 -1.54327,-3.742747 -1.377295,-6.341533 0.199115,-3.11769 0.981839,-4.890803 3.089328,-6.998293 1.318179,-1.3181792 2.13159,-1.8891342 3.331488,-2.3384612 1.5002173,-0.561788 5.4239593,-1.083025 5.4239593,-0.720529 0,0.0925 -0.413423,0.709804 -0.918717,1.371776 -0.90925,1.191181 -1.278862,2.1724772 -1.591361,4.2249522 l -0.161137,1.058334 0.740295,-0.914225 C 14.664507,9.5754448 15.579397,8.5945518 17.493634,6.9644438 22.8164,2.4317318 28.724537,0.05045081 34.771751,4.7981461e-4 37.25159,-0.02001019 40.72488,0.62004381 40.72488,1.0975198 c 0,0.09219 -0.62508,0.386276 -1.38907,0.653529 -0.99543,0.348215 -1.82018,0.925391 -2.91041,2.036748 -0.836748,0.852959 -1.521357,1.685589 -1.521357,1.850288 0,0.164802 0.524431,-0.0079 1.166287,-0.384034 3.07192,-1.800267 8.1083,-2.805606 14.05781,-2.806156 2.50977,-2.32e-4 5.23509,-0.550589 5.95566,-1.202697 0.73043,-0.66102299 0.98362,-0.43986699 1.60386,1.400913 1.28095,3.801688 0.65856,8.0923822 -1.67157,11.5236542 -0.78703,1.158949 -0.9453,1.535901 -0.58003,1.381416 0.88489,-0.374243 4.94515,-0.475631 6.13975,-0.153314 1.48203,0.399871 3.0799,1.862713 3.64182,3.334067 1.16486,3.050162 -0.31065,8.137675 -3.12901,10.788645 -1.07595,1.01206 -1.27771,1.32595 -0.97527,1.51731 0.60685,0.38396 1.18256,0.2914 1.952,-0.31385 1.00273,-0.78874 1.31797,-0.37464 0.9195,1.20784 -0.2121,0.8423 -0.85859,1.9362 -1.97483,3.34152 -1.17955,1.48502 -1.83047,2.60724 -2.25062,3.88021 -0.32512,0.98501 -0.64579,1.9393 -0.71261,2.12063 -0.0875,0.23758 0.10148,0.28511 0.67649,0.17011 2.84538,-0.56908 5.55578,2.80525 4.83537,6.01983 -0.9544,4.25875 -3.62487,6.85907 -6.62092,6.447 l -1.26505,-0.17398 -0.31296,1.24287 c -1.41285,5.61092 -7.12873,9.85634 -15.49877,11.51157 l -1.58372,0.31319 1.9806,0.99847 c 3.18193,1.6041 4.4483,2.92159 8.8813,9.23983 2.17971,3.10669 4.45324,5.49711 5.43294,5.71229 0.62067,0.13632 1.29873,-0.0654 3.05901,-0.91004 l 2.26159,-1.08519 -0.18215,-1.21466 c -0.26772,-1.78529 0.26782,-3.5574 1.77086,-5.85982 1.64216,-2.51555 2,-3.51097 2.22288,-6.18349 0.14288,-1.71322 0.27874,-2.18052 0.72481,-2.49295 0.70064,-0.49075 1.31918,-0.48621 2.29196,0.0168 1.79639,0.92894 2.06845,3.53385 0.76543,7.32883 -0.98309,2.86321 -0.90955,3.24933 0.57369,3.01215 1.53782,-0.2459 3.57208,0.0861 4.54494,0.74166 1.54887,1.04379 1.63272,3.21201 0.15887,4.10831 -0.73125,0.4447 -0.7613,0.51118 -0.29764,0.65834 0.642,0.20376 1.12522,1.22552 1.12522,2.37925 0,0.96791 -0.78244,2.14896 -1.5944,2.40667 -0.40478,0.12847 -0.52227,0.40277 -0.52227,1.2194 0,1.30535 -0.53823,2.3887 -1.42166,2.8615 -1.3949,0.74653 -6.12409,-0.36 -7.52471,-1.76062 l -0.64511,-0.64511 -1.50286,0.67444 c -2.01808,0.90567 -4.06594,1.31576 -5.63967,1.12937 -2.53514,-0.30025 -5.56371,-2.11019 -8.58277,-5.12926 l -1.48128,-1.48127 0.15874,0.90322 c 0.21284,1.21111 0.63267,4.94174 0.66736,5.93031 0.0153,0.43656 0.10279,1.35988 0.19437,2.05182 0.14766,1.11569 0.0702,1.40811 -0.68422,2.5838 -0.87322,1.3608 -2.86263,3.29311 -3.87127,3.76014 -0.52379,0.24253 -0.58092,0.53023 -0.74238,3.738701 -0.0962,1.91177 -0.28845,5.19132 -0.4272,7.28789 -0.13875,2.09656 -0.19949,3.86472 -0.13498,3.92923 0.0645,0.0645 0.8693,-0.1468 1.78841,-0.46959 4.36779,-1.53396 8.45633,-0.0984 10.01073,3.51487 0.74109,1.72271 1.00967,4.12474 0.49747,4.44904 -0.59783,0.37851 -18.588243,0.30752 -18.970631,-0.0749 -0.352989,-0.35299 -0.392293,-2.71237 -0.0946,-5.67851 0.146482,-1.4595 0.320643,-2.00672 0.757867,-2.38125 l 0.56768,-0.48629 -0.502308,-5.82083 c -0.276269,-3.20146 -0.505608,-5.826471 -0.509641,-5.833371 -0.02605,-0.0445 -3.593328,0.218641 -3.650982,0.269341 -0.05715,0.0503 -0.526341,5.55521 -0.903663,10.60247 -0.03918,0.52404 0.132764,0.99806 0.49252,1.35781 0.481073,0.48107 0.578062,1.00855 0.748332,4.06978 0.179211,3.22198 0.155392,3.54649 -0.283903,3.86771 -0.376038,0.27496 -2.434543,0.35064 -9.538184,0.35064 -8.073901,0 -9.106225,-0.0476 -9.496239,-0.43759 z M 38.25966,65.537629 c 5.76171,-0.85553 10.56749,-2.77889 13.327,-5.33371 1.83766,-1.70135 2.64236,-3.00725 3.57063,-5.7946 0.38238,-1.14818 0.77579,-2.17264 0.87425,-2.27658 0.0984,-0.10394 0.67893,-0.0167 1.28995,0.19377 1.39082,0.47918 2.40669,0.2847 3.5846,-0.68623 1.53696,-1.2669 2.75743,-4.41613 2.41625,-6.23477 -0.35425,-1.88831 -2.81975,-3.27876 -4.20472,-2.37129 -0.33743,0.22109 -0.82001,0.94271 -1.0724,1.6036 -0.2524,0.66088 -0.53202,1.19812 -0.6214,1.19385 -0.0894,-0.004 -0.5348,-0.34669 -0.98984,-0.76094 l -0.82735,-0.75319 -0.13227,-4.99374 c -0.10319,-3.89581 -0.25219,-5.43987 -0.6777,-7.02285 -1.00568,-3.7413 -2.46451,-5.76047 -5.19237,-7.18674 l -1.60337,-0.83832 -4.10104,0.11294 c -9.141266,0.25173 -13.799508,0.1548 -16.139587,-0.33586 -2.71307,-0.56886 -7.472612,-2.122647 -8.680227,-2.833722 -0.481261,-0.283379 -0.911353,-0.515234 -0.955759,-0.515234 -0.04441,0 -0.160097,0.675198 -0.257088,1.50044 -0.424222,3.609476 -2.721152,6.214846 -6.025614,6.834766 -0.878698,0.16485 -0.960428,0.26625 -1.243675,1.54301 -0.565819,2.55049 -0.8129423,5.32488 -0.8211333,9.21867 l -0.0082,3.88334 -0.983798,0.81093 -0.983798,0.81093 -0.70265,-1.54791 c -0.559213,-1.23193 -0.877895,-1.60901 -1.561106,-1.84717 -1.504852,-0.5246 -3.107407,0.17629 -3.815644,1.66879 -1.23267,2.59765 0.359877,6.98957 2.949921,8.13527 1.038514,0.45938 1.319954,0.48116 2.514653,0.19455 1.556485,-0.37339 1.863377,-0.1554 2.182706,1.55042 0.519823,2.77684 2.6666303,5.75665 5.5244873,7.6681 5.740228,3.8393 15.192848,5.62312 23.366262,4.40948 z m -9.732793,-7.64271 c -1.925682,-0.40351 -5.493903,-1.80552 -6.337374,-2.49005 -0.457133,-0.37099 -0.486861,-0.50693 -0.19601,-0.89628 0.320395,-0.4289 0.45179,-0.40683 2.006016,0.33701 2.51824,1.20519 5.545456,1.83773 8.80543,1.83989 3.382411,0.002 5.277101,-0.32199 7.996921,-1.36849 1.65904,-0.63834 2.13733,-0.73008 2.45066,-0.47004 0.27771,0.23048 0.31014,0.41849 0.11313,0.65587 -0.36217,0.43639 -2.60278,1.39364 -4.75743,2.03251 -2.27969,0.67595 -7.656332,0.86772 -10.081343,0.35958 z m 2.255049,-6.46336 c -1.02043,-0.62924 -1.549731,-1.85022 -1.323907,-3.05397 0.205316,-1.09442 1.728091,-2.53816 2.677115,-2.53816 0.941944,0 0.821407,0.80721 -0.217835,1.45878 -0.566286,0.35505 -0.87818,0.77995 -0.935075,1.27387 -0.107938,0.93705 0.592204,2.02985 1.300497,2.02985 0.410186,0 0.52097,0.14434 0.456921,0.59531 -0.110594,0.77871 -0.918136,0.87537 -1.957716,0.23432 z m -11.743872,-2.87407 c -2.59923,-1.32961 -3.054095,-6.08287 -0.798143,-8.34046 1.255375,-1.25628 2.445886,-1.34502 3.715235,-0.27693 1.130606,0.95134 1.571824,2.09872 1.571824,4.0875 0,3.49066 -2.193443,5.70412 -4.488916,4.52989 z m 24.858006,0.0737 c -1.16788,-0.63562 -1.95907,-2.4207 -1.94132,-4.37999 0.0261,-2.88313 1.44018,-4.89594 3.4005,-4.84037 1.9754,0.056 3.30715,1.99007 3.30715,4.8029 0,3.51975 -2.37366,5.71966 -4.76633,4.41746 z m 13.28074,-0.74122 c 0.18158,-1.27854 4.18558,-3.11355 4.18558,-1.91823 0,0.21828 -0.14882,0.41061 -0.33072,0.4274 -0.18191,0.0168 -0.4498,0.0582 -0.59532,0.092 -0.14552,0.0338 -0.47294,0.0796 -0.7276,0.10177 -0.33582,0.0292 -0.46302,0.27225 -0.46302,0.88462 0,0.80244 -0.0197,0.81885 -0.39705,0.33073 -0.39042,-0.50501 -0.4055,-0.50365 -0.90231,0.0817 -0.27789,0.32742 -0.58375,0.59531 -0.67968,0.59531 -0.0959,0 -0.13639,-0.26789 -0.0899,-0.59531 z M 6.8700607,47.449089 c -0.158709,-0.29655 -0.539344,-0.6734 -0.845857,-0.83744 -0.47716,-0.25536 -0.64134,-0.19285 -1.141783,0.43477 -0.359723,0.45113 -0.652491,0.62298 -0.761326,0.44688 -0.09726,-0.15737 0.118293,-0.63687 0.479011,-1.06556 0.744169,-0.8844 0.649507,-1.11746 -0.453874,-1.11746 -1.018397,0 -0.827422,-0.63723 0.218813,-0.73012 0.615302,-0.0546 1.060914,0.20489 2.180175,1.2697 0.773741,0.7361 1.361612,1.47393 1.306381,1.63963 -0.178149,0.53444 -0.68506,0.51358 -0.98154,-0.0404 z M 47.91165,35.630519 c -1.47049,-0.79243 -1.91404,-0.90359 -3.60562,-0.90359 -1.40836,0 -2.0195,-0.10921 -2.26474,-0.40471 -0.82164,-0.99002 0.98349,-2.50905 2.97457,-2.50312 2.04014,0.006 5.64136,2.71182 5.443,4.08955 -0.11357,0.78877 -0.68275,0.72662 -2.54721,-0.27813 z m -32.674967,0.50752 c -0.402288,-0.40229 -0.120533,-1.20683 0.766473,-2.18864 2.381337,-2.63585 6.519514,-2.98752 7.586955,-0.64474 0.398179,0.87391 -0.02012,1.14609 -1.782943,1.1601 -1.861567,0.0148 -3.539483,0.44449 -4.690681,1.20121 -0.995801,0.65456 -1.556502,0.79537 -1.879804,0.47207 z"
     id="path30" /></svg>
