<svg xmlns="http://www.w3.org/2000/svg" xml:space="preserve" width="368.438" height="443.241" viewBox="0 0 97.483 117.274"><path d="M32.781 27.035a6.6 6.6 0 0 0-1.01.024c-2.384.247-4.395 1.811-5.832 3.644-3.276 3.444-8.14 4.444-12.012 6.994-1.203.925-2.022 2.247-2.994 3.397C6.431 46.948 3.13 53.76 1.4 60.874.035 66.462-.373 72.322.359 78.095c.654 5.625 2.205 11.126 4.933 16.135 3.872 7.237 10.012 13.375 17.485 16.771 3.241 2.229 7.384 1.689 10.95 3.14.73.217 1.354.426.235.507-2.075.531-4.283.415-6.304 1.154-.246.448.521.532.79.678 3.446 1.24 7.26.828 10.728.108 3.378-.79 6.62-2.108 9.412-4.166 1.618-1.234 3.007-2.921 3.674-4.923-1.92 1.067-4.2 1.183-6.348 1.135-.651-.07-1.274-.288-1.912-.426 1.42-1.202 3.128-1.937 4.801-2.703 2.06-1.08 4.24-2.408 6.183-3.84 3.547-2.588 6.69-5.563 9.674-8.808 2.605-.016 5.174.058 7.625-.994 1.494-.598 2.568-1.827 3.48-3.104 1.586-1.548 1.513-3.984.977-5.972-.425-1.994-1.493-4.092-.685-6.13.83-2.462-.456-4.972-1.708-7.04-1.512-2.481-3.414-4.69-5.095-7.053-.28-.443-.338-1.196.035-1.529 1.482-.385 2.796.83 3.321 2.111.894 1.253 1.835 2.48 2.483 3.886 1.158 2.266 2.093 4.64 3.323 6.87.045-3.096-1.282-6.175-2.866-8.86-1.187-2.092-2.347-4.213-3.884-6.073-.959-1.236-1.654-2.641-2.254-4.079 1.225.27 2.473.731 3.251 1.774 3.39 4.063 5.14 9.144 6.856 14.065.227.824.334.538.295-.175-.038-4.565-1.184-9.295-4.144-12.873-1.538-1.962-3.98-3.292-4.822-5.75-.457-1.138.598-2.173 1.638-2.424 1.108-.258 2.244-.655 2.96-1.6 2.398-2.772 1.506-7.8-1.93-9.293-2.636-.925-5.432-.29-8.181-.296-2.473.093-5.305-.197-7.02-2.201-1.035-1.267-1.595-2.906-2.951-3.908-2.775-2.355-6.654-2.637-10.129-2.28-2.014.189-4.038.828-6.066.533-1.464-.415-2.14-1.996-3.505-2.592a6.5 6.5 0 0 0-2.883-.836M22.322 37.283c.874.107 1.662.962 1.296 1.866-.151 1.054-.944 2.229-2.142 2.075-1.667-.007-3.285-.535-4.951-.545-.742-.054-.938-1.092-.283-1.42 1.68-1.153 3.651-1.924 5.703-1.974q.19-.025.377-.002m28.422 4.446c1.985.242 3.234 2.061 4.186 3.644.912 1.655 1.578 3.551 1.214 5.461-.149.363-.886-.506-1.277-.65-1.415-1.117-2.792-2.274-4.282-3.298-.955-.725-2.123-1.586-2.237-2.866.066-1.232 1.399-1.93 2.396-2.29m-34.287 6.6c1.345.154 2.088 1.635 2.202 2.848.035 2.228-.631 4.594-2.216 6.212-.974.868-2.73.646-3.24-.63-.978-1.93-.326-4.228.567-6.062.54-1.073 1.4-2.237 2.687-2.368m15.46 4.15c.911-.126.87.295.435.942-2.187 4.868-6.304 8.486-8.9 13.103.534 2.006 1.973 3.77 2.017 5.896-.194 1.014-1.43.931-2.198.729-.886-.055-1.55-.709-1.898-1.485-1.383-2.148-2.526-4.88-1.578-7.424.619-1.587 2.19-2.449 3.611-3.2 3.206-2.235 4.723-6.155 7.932-8.377.177-.088.376-.213.58-.184m15.302 1.955a.3.3 0 0 1 .19.028c1.272.358 1.677 1.854 1.835 3.002.08 2.135-.626 4.345-2.036 5.957-.782.839-2.251.834-2.933-.131-1.281-1.518-.868-3.722-.218-5.421.549-1.404 1.415-2.984 2.964-3.417.064.005.132-.01.198-.018M68.924 66.66c.8 0 1.337.766 1.873 1.274 1.259 1.53 2.212 3.357 2.657 5.291.099.585.003 1.187.02 1.779-.99-1.043-1.53-2.4-2.524-3.441-1.052-1.257-2.317-2.45-2.895-4.009-.11-.51.395-.9.869-.894m-2.084 5.46.853.243c1.55.636 2.936 2.459 2.336 4.197-.301.65-1.165.364-1.398-.194-.83-1.303-1.595-2.687-1.791-4.245M8.678 73.666c.184 0 .21.194.277.456.29.748.113 1.562.012 2.32 3.159 1.96 6.677 3.28 10.372 4.023 4.38.883 9.038.905 13.485.19 2.303-.038 4.93-.125 6.678-1.837.898-.96.702-2.331.664-3.528 2.472 2.443 5.197 4.712 7.066 7.684-.342 2.51-1.049 5.035-2.441 7.17-.38.386-.939.245-.95-.336.122-.962.216-2.232-.785-2.781-1.431-.447-2.943.17-4.286.669-2.408 1.037-4.874 1.943-7.44 2.508-3.05.758-6.294 1.556-9.422.772-5.246-1.491-9.5-5.065-13.752-8.313-.212.694-.632 1.35-1.316 1.653-1.513-.708-1.898-2.511-2.258-3.98-.257-1.25-.463-2.74.3-3.843 1.066-1.034 2.094-2.318 3.551-2.755a.6.6 0 0 1 .245-.072m.851 5.152c-.844-.093-1.587.561-1.754 1.367 3.741 3.502 8.495 5.691 13.343 7.293 2.53.769 5.228.68 7.798.44 2.736-.278 5.333-.962 8.006-1.532 1.89-.25 3.79-1.032 5.115-2.43.466-.56.248-1.44-.472-1.655-1.58-.946-3.433-.297-5.134-.202-5.865.66-11.942 1.46-17.72-.205-1.109-.254-2.27-.34-3.312-.854-1.926-.793-3.776-1.949-5.87-2.222m8.238 13.644c.809.084 1.598.362 2.413.213 1.517.071 3.223.43 4.236 1.647.431.924-.684 1.466-1.395 1.7-1.67.526-3.347-.385-4.802-1.114-.891-.462-1.525-1.267-1.903-2.184.479-.135.945-.312 1.451-.262M8.564 22.615c-.59.23-.628 1.01-.913 1.498-.143 1.59-1.303 2.789-2.13 4.054-1.044 2.186-1.582 4.83-.694 7.157.19.665 1.159.541 1.25-.128.748-1.45.597-3.295 1.811-4.51 1.49-1.72 2.056-4.087 1.844-6.32-.138-.65-.203-1.712-1.041-1.794l-.095.032zm11.14-17.311c-3.267.383-5.871 2.644-8.195 4.788-2.177 2.12-3.823 4.99-3.764 8.103-.056 1.258.456 2.433.809 3.613.768-1.167 1.356-2.439 1.679-3.8 1.123-2.602 3.29-4.616 5.59-6.193 1.22-.797 2.554-1.518 4.028-1.647.843-.129.879-1.122 1.433-1.631.443-.55.965-1.028 1.453-1.535-.752-.924-1.752-1.815-3.033-1.698"/><path d="M59.03.004c-2.734.067-4.764 2.12-6.806 3.67-2.408 1.807-5.417 3.433-8.522 2.75-2.08-.482-4.27-.833-6.369-.24-4.092.926-7.436 3.654-10.443 6.439-1.552 1.46-4.184 1.369-5.68-.12-.67-.572-.836-1.45-1.129-2.224-.389-.663-1.233-.176-1.383.42-1.143 1.775-.977 4.275.484 5.82 2.284 2.448 6.558 2.485 8.89.083 2.942-2.779 6.416-5.489 10.6-5.82 2.375-.09 4.666 1.085 7.047.577 3.514-.553 6.376-2.839 9.06-5.012 1.21-.948 2.766-1.586 4.318-1.22 3.21.578 5.572 3.082 7.587 5.462 1.836 2.09 4.655 2.73 7.149 3.684 2.1.764 4.42 1.923 5.178 4.194.58 1.75 1.331 3.44 2.346 4.984 2.127 3.431 5.064 6.266 7.316 9.601 2.211 3.907 3.954 8.174 4.48 12.66.319 2.522.097 5.201-.465 7.73-1.386 7.693-4.923 14.806-9.046 21.402-.58.992-1.273 1.922-1.82 2.925-.2.814.435 1.543.497 2.35.856 3.895-.129 8.383-3.168 11.1-.504.413-1.15.9-1.253 1.541.161.876 1.23 1.352 1.955.796 4.248-2.05 6.642-6.834 6.693-11.43a15.5 15.5 0 0 0-.748-5.095c4.91-7.603 9.346-15.778 10.975-24.774a25.5 25.5 0 0 0-.229-12.834 39.7 39.7 0 0 0-4.58-10.479c-3.15-4.307-7.283-8.084-9.033-13.257-.444-1.567-1.363-2.971-2.663-3.958-2.654-2.165-6.218-2.527-9.132-4.196-1.537-.839-2.35-2.445-3.631-3.573C65.249 1.755 62.292-.092 59.03.004"/></svg>