<?xml version="1.0" encoding="UTF-8" standalone="no"?>
<svg
   width="85.531548mm"
   height="113.3298mm"
   viewBox="0 0 85.531548 113.3298"
   version="1.1"
   xml:space="preserve"
   xmlns="http://www.w3.org/2000/svg"
   xmlns:svg="http://www.w3.org/2000/svg"><path
     style="fill:#000000"
     d="m 14.861557,113.00602 c -0.51676,-0.23137 -1.054253,-0.78888 -1.384322,-1.43587 -0.505285,-0.99044 -0.51411,-1.1298 -0.138891,-2.19328 1.293611,-3.66648 3.48837,-5.51861 6.539532,-5.51861 h 1.410436 l 0.823729,-6.813015 c 0.455265,-3.76547 0.71738,-6.85194 0.585977,-6.90003 -0.130763,-0.0479 -0.493461,-0.29408 -0.805994,-0.54715 -0.650505,-0.52675 -0.69898,-1.04561 -0.406985,-4.35628 l 0.20679,-2.3446 -1.984775,2.38468 c -1.091627,1.31158 -2.200243,2.5479 -2.463592,2.74739 -0.263349,0.19949 -0.895536,1.17688 -1.404859,2.17198 -1.157037,2.26058 -2.542103,3.35515 -4.481411,3.54149 -1.6374219,0.15734 -2.6744519,-0.24268 -3.7218889,-1.43564 -0.562345,-0.64048 -0.792532,-1.17577 -0.792532,-1.843 v -0.94035 l -0.787412,0.66256 c -1.209426,1.01766 -2.192421,1.12523 -3.654405,0.39989 -2.94793197,-1.46257 -3.23241297,-5.66444 -0.569291,-8.40861 0.573481,-0.59093 2.066486,-1.58251 3.363782,-2.23405 2.199668,-1.10474 2.545088,-1.4029 6.0601359,-5.23099 5.837111,-6.35695 8.175749,-8.42413 12.06943,-10.66849 1.22424,-0.70566 1.252587,-0.74909 0.808934,-1.23932 -0.40038,-0.44242 -0.687291,-0.48562 -2.221291,-0.33446 -1.298176,0.12792 -2.168026,0.0554 -3.306925,-0.27568 -1.487405,-0.4324 -3.825459,-1.79392 -3.825459,-2.22767 0,-0.11533 -0.827625,-1.11761 -1.839168,-2.22728 -1.86562,-2.0466 -2.658748,-3.69258 -2.658748,-5.51769 0,-0.53487 -0.3201039,-1.03534 -1.1536579,-1.80368 -0.634511,-0.58487 -1.437979,-1.59935 -1.785483,-2.25441 l -0.631825,-1.191 h -1.530307 c -3.367832,0 -5.94439397,-2.21596 -3.37958,-2.9066 0.580872,-0.15641 1.296032,-0.60115 1.611854,-1.00238 0.527461,-0.6701 0.555609,-0.91818 0.397053,-3.49935 -0.193341,-3.14745 0.2057,-5.24162 1.321586,-6.93569 l 0.647217,-0.98257 -1.170853,-0.68616 c -2.831926,-1.65962 -5.03938197,-5.64536 -3.72895197,-6.73292 0.30298197,-0.25145 0.59708997,-0.25142 1.35934097,1.5e-4 1.22061,0.40283 3.193106,0.18403 4.519782,-0.50137 1.276535,-0.65949 3.4565929,-2.86938 3.114817,-3.15743 -0.138848,-0.11703 -0.791673,-0.6397 -1.450723,-1.1615 -1.631302,-1.29159 -2.667607,-3.26241 -2.839147,-5.39945 -0.168327,-2.097 0.148532,-2.29688 2.099732,-1.32456 1.104857,0.55058 1.762959,0.68775 3.2995299,0.68775 3.106446,0 4.367454,-0.39285 6.518412,-2.03069 2.154495,-1.6405505 3.347821,-2.3048805 5.468476,-3.0443605 2.072504,-0.72269 5.539314,-0.90194 7.684092,-0.3973 0.945032,0.22235 1.752035,0.37048 1.79334,0.32917 0.0413,-0.0413 -0.06163,-0.41903 -0.228754,-0.8394 -0.470578,-1.18366 -0.408573,-5.08183 0.09954,-6.25812 0.677012,-1.56728998 1.084443,-1.52950998 2.923448,0.27106 1.833961,1.79561 2.751461,2.31335 6.428761,3.62767 3.06258,1.09461 4.86979,2.24043 7.41656,4.70232 l 1.89489,1.8317305 0.31311,-1.54344 c 0.17221,-0.8488905 0.3941,-1.9490905 0.49309,-2.4448905 0.19893,-0.99628 0.7936,-1.51884 1.44429,-1.26915 0.233,0.0894 1.06659,1.15016 1.85241,2.35721 0.78582,1.20706 2.46455,3.3248905 3.7305,4.7062905 3.02448,3.30029 3.94166,5.15022 3.96819,8.00373 0.0105,1.12678 0.11426,2.04952 0.23063,2.05052 0.34454,0.003 1.84054,-0.8213 2.76228,-1.52195 0.47146,-0.35837 1.03346,-0.58395 1.24889,-0.50128 1.02694,0.39407 0.68592,2.91724 -0.68686,5.08188 l -0.75853,1.19608 0.59112,1.11469 c 0.50299,0.94852 0.59138,1.52881 0.5929,3.89281 0.002,3.67731 -1.00091,6.92202 -3.20027,10.34998 -0.42719,0.66583 -0.41886,0.72739 0.21484,1.5875 1.49052,2.02306 1.76987,4.67126 0.74411,7.05416 -0.6782,1.5755 -2.67268,3.54654 -4.11731,4.06892 -0.50052,0.18099 -0.91004,0.43696 -0.91004,0.56883 0,0.70513 -1.73134,3.68613 -2.90097,4.99485 l -1.34456,1.50445 1.13058,0.77624 c 1.45491,0.99892 5.02143,2.79815 6.56422,3.31149 0.66018,0.21966 2.17599,0.54874 3.36847,0.73129 l 2.16815,0.33191 1.65862,-1.55659 c 2.26259,-2.12342 2.81739,-3.11112 3.29184,-5.86047 0.46891,-2.7172 0.83538,-3.52363 2.00451,-4.41098 2.37431,-1.80204 5.59981,-0.65882 6.55209,2.32229 0.45883,1.43634 0.17636,4.26031 -0.62443,6.24288 -0.44642,1.10522 -0.55683,1.64964 -0.3474,1.71293 0.16885,0.051 0.60466,0.1598 0.96846,0.24169 2.67546,0.60229 4.12078,3.2746 3.02266,5.58871 -0.38535,0.81207 -0.3815,0.93266 0.0509,1.59255 0.66603,1.01649 0.62225,3.08543 -0.0855,4.04276 -0.46815,0.6332 -0.53313,1.01024 -0.42204,2.44892 0.11398,1.47621 0.0494,1.82055 -0.48973,2.61084 -1.45006,2.12561 -5.2895,2.92953 -7.91684,1.65765 -0.79633,-0.38549 -1.701,-0.58363 -2.66476,-0.58363 -1.03168,0 -1.84043,-0.19345 -2.76074,-0.66036 -0.94131,-0.47756 -1.72582,-0.66065 -2.83412,-0.66145 -1.77423,-0.001 -4.88406,-0.58381 -7.28178,-1.36401 -0.9188,-0.29897 -1.71347,-0.50065 -1.76593,-0.44819 -0.0525,0.0525 0.0201,1.051 0.16135,2.21899 0.1412,1.16798 0.22149,3.05955 0.17843,4.20348 -0.0771,2.04682 -0.1792,2.2741 -1.21112,2.69504 -0.041,0.0167 0.41174,0.9318 1.006,2.03352 1.32602,2.45835 2.07623,4.9783 2.26063,7.59339 0.077,1.091405 0.19903,2.476065 0.27126,3.077035 l 0.13135,1.09266 1.45304,0.1205 c 1.8809,0.15598 3.38808,1.19192 4.55156,3.12844 1.3686,2.27792 1.58974,3.294 0.96916,4.45302 -0.30428,0.56828 -0.91758,1.15768 -1.50161,1.44309 -0.92578,0.45241 -1.57117,0.46889 -10.36389,0.26458 l -9.37663,-0.21787 -0.7102,-0.66146 c -0.67126,-0.62519 -0.69953,-0.74851 -0.51552,-2.24896 0.32374,-2.63993 0.36652,-7.31784 0.0811,-8.86354 -0.32208,-1.743915 -1.13949,-3.223195 -2.51867,-4.558065 l -1.01893,-0.98619 -2.08041,0.23331 c -1.23362,0.13834 -2.17069,0.37821 -2.30221,0.58932 -0.36353,0.58348 -1.24814,4.681355 -1.56187,7.235165 -0.16089,1.30969 -0.417989,2.63584 -0.57133,2.94701 -0.197962,0.40171 -0.187491,1.1071 0.03611,2.43278 0.3907,2.31634 0.07063,3.20146 -1.319027,3.64766 -0.558897,0.17945 -4.520215,0.36214 -10.050606,0.46351 -7.608362,0.13946 -9.268769,0.10435 -9.972879,-0.21091 z M 58.652543,98.354935 c 0.16043,-1.66457 -1.55297,-5.69699 -3.14224,-7.3951 -0.91927,-0.98224 -0.79909,-0.93936 -1.68677,-0.60186 -0.82463,0.31352 -0.88235,1.06313 -0.134,1.74038 0.82367,0.74541 2.78965,4.02326 3.44999,5.75213 0.66846,1.75011 1.37041,1.98415 1.51302,0.50445 z m -45.998382,-7.45452 c 0.441812,-0.3146 1.037614,-1.22756 1.479249,-2.26669 l 0.739476,-1.73992 -3.018554,-3.02714 c -1.660205,-1.66493 -3.1280709,-3.02714 -3.2619239,-3.02714 -0.409019,0 -3.144802,1.33393 -4.198187,2.04699 -1.415536,0.95819 -2.049367,2.10994 -2.049367,3.72392 0,1.08771 0.111721,1.42108 0.588038,1.75471 0.894298,0.62639 1.197103,0.52179 2.637492,-0.91104 1.498478,-1.49062 2.473057,-1.70975 3.414974,-0.76783 0.563413,0.56341 0.56895,0.74172 0.09453,3.04454 -0.142513,0.69175 -0.05113,0.91441 0.578581,1.40974 0.8617719,0.67787 1.8136129,0.60157 2.9956899,-0.24014 z m 33.721692,-11.58225 c -0.0717,-4.76581 -0.19595,-9.42001 -0.27616,-10.34268 l -0.14583,-1.67757 -0.5717,0.51235 c -0.31443,0.28179 -1.38544,1.08411 -2.38002,1.78292 l -1.80833,1.27058 -2.38676,-1.6429 c -1.31272,-0.90359 -2.424594,-1.60506 -2.470831,-1.55883 -0.04624,0.0462 -0.182507,4.63756 -0.302822,10.20294 l -0.218756,10.11886 5.345759,-2.8e-4 5.34577,-2.9e-4 z m 35.46774,2.8523 c 0.90187,-0.84726 0.85822,-1.69006 -0.12374,-2.38928 -1.16975,-0.83293 -1.05554,-1.61188 0.33073,-2.2558 0.95336,-0.44284 1.13737,-0.65694 1.20923,-1.40697 0.0943,-0.98482 -0.5283,-1.89348 -1.29749,-1.89348 -0.62473,0 -1.31408,-0.71589 -1.13606,-1.17979 0.0782,-0.2039 0.48109,-0.48885 0.89521,-0.63321 1.70446,-0.59418 2.02243,-2.57334 0.53685,-3.34156 -1.45031,-0.74999 -4.38941,-0.31204 -5.09848,0.75971 -0.38984,0.58924 -0.18689,1.5015 0.45897,2.06307 0.97966,0.85181 0.87245,1.69194 -0.26377,2.06693 -1.8452,0.60897 -2.36371,2.68131 -0.92686,3.70444 0.96731,0.68878 1.01505,1.46956 0.13229,2.16393 -0.76662,0.60303 -0.83343,1.17696 -0.23627,2.02953 0.6106,0.87174 1.33881,1.10296 3.20429,1.01738 1.30371,-0.0598 1.78413,-0.20608 2.3151,-0.7049 z m -7.90345,-1.52938 c 0.0119,-0.69123 0.0512,-1.4949 0.0873,-1.78594 0.0362,-0.29104 -0.12556,-1.04361 -0.35941,-1.67238 -0.53176,-1.42975 -0.21689,-2.85054 0.87336,-3.94079 0.55669,-0.55669 0.69415,-0.87937 0.54131,-1.27067 -0.70014,-1.79247 0.15028,-3.7635 2.04045,-4.72916 1.00102,-0.51141 1.16012,-0.74498 1.91192,-2.80679 0.45102,-1.23693 0.89278,-2.79351 0.98169,-3.45907 0.20908,-1.56526 -0.38193,-3.07107 -1.29531,-3.30032 -1.82482,-0.458 -2.67296,0.44115 -3.10693,3.29379 -0.44775,2.94326 -1.0694,4.1183 -3.36971,6.36947 -2.57135,2.51642 -3.10607,3.78729 -3.06416,7.28259 0.0526,4.39154 1.68832,7.21658 4.20675,7.26568 0.45575,0.009 0.53419,-0.168 0.5527,-1.24641 z m -32.05566,-12.64227 c 0.47675,-0.36059 0.43042,-0.38846 -0.64588,-0.38846 -1.0763,0 -1.12263,0.0279 -0.64588,0.38846 0.28247,0.21365 0.57312,0.38846 0.64588,0.38846 0.0728,0 0.36341,-0.17481 0.64588,-0.38846 z m 4.51349,-3.17266 c 4.66397,-1.27821 8.60752,-4.15487 10.23905,-7.46897 0.73721,-1.4975 0.86741,-2.0742 0.96331,-4.26683 0.061,-1.39441 -0.0312,-4.91887 -0.20494,-7.83213 -0.60184,-10.09342 -0.96007,-11.95205 -2.57731,-13.37201 -1.2206,-1.07169 -1.91858,-1.32364 -4.31906,-1.55899 l -1.98438,-0.19456 -1.16468,1.29379 c -1.98435,2.20432 -6.25105,4.69848 -8.03756,4.69848 -0.73449,0 -1.2488,-0.45766 -1.2488,-1.11125 0,-0.62315 -0.13416,-0.60266 -1.15572,0.17653 -2.011035,1.53389 -5.352237,2.56203 -8.480715,2.60965 -2.166946,0.033 -2.916398,-0.32507 -2.729274,-1.30395 0.07538,-0.39432 0.0028,-0.54525 -0.220925,-0.45939 -0.249354,0.0957 -0.296735,0.73882 -0.188313,2.55612 0.19269,3.22977 -0.272699,5.87743 -1.409876,8.02098 -0.653519,1.23187 -0.896783,2.02927 -0.897741,2.94272 -0.0026,2.43918 -1.986083,3.65921 -3.357334,2.06504 -0.335556,-0.39011 -0.610102,-0.88716 -0.610102,-1.10455 0,-0.75079 -0.805312,-1.94887 -1.578839,-2.34888 -1.049028,-0.54247 -2.087147,-0.50331 -3.104669,0.11711 -1.165145,0.71043 -1.72384,1.90795 -1.703029,3.65031 0.04674,3.91315 3.625782,6.50685 7.7915,5.64643 l 1.635272,-0.33776 0.64945,0.88368 c 2.719344,3.70008 6.600188,5.80293 12.846773,6.96109 2.700372,0.50067 8.582312,0.35825 10.847912,-0.26266 z m -6.70104,-3.85399 c -1.85243,-0.73302 -4.181442,-3.02289 -4.431777,-4.35729 -0.293586,-1.56495 0.09531,-1.74369 3.066147,-1.40925 2.87831,0.32403 4.68655,0.19011 8.11261,-0.60081 1.33495,-0.30819 2.61487,-0.48831 2.84427,-0.40028 0.98008,0.37609 0.26636,2.54664 -1.49556,4.54829 -2.1388,2.42979 -5.34362,3.30836 -8.09569,2.21934 z m 2.53386,-8.19967 c -1.21341,-0.70674 -0.13775,-1.83089 1.75192,-1.83089 1.45238,0 2.01839,0.31346 2.01839,1.1178 0,0.86269 -2.65222,1.36432 -3.77031,0.71309 z m -7.962294,-3.45346 c -0.815421,-0.47399 -1.232008,-1.91358 -1.231569,-4.25591 4.84e-4,-2.57723 0.512894,-3.89453 1.671246,-4.2964 0.907596,-0.31489 1.988877,0.20105 2.487807,1.18704 0.41325,0.81669 0.44498,5.16372 0.046,6.30811 -0.44134,1.26602 -1.789599,1.74536 -2.973524,1.05716 z m 14.459334,-1.13265 c -0.73674,-0.63372 -0.74236,-0.66257 -0.74236,-3.81514 0,-2.99777 0.0361,-3.21503 0.64144,-3.85937 1.09475,-1.16531 2.69108,-0.7911 3.34971,0.78524 0.51547,1.23369 0.49944,5.1958 -0.0251,6.2102 -0.74166,1.43421 -2.0302,1.70564 -3.22366,0.67907 z m 12.55379,4.27657 c 1.66661,-1.72199 2.13898,-4.2925 1.10153,-5.99425 l -0.5493,-0.90103 -1.00894,1.03332 -1.00895,1.03332 0.13871,2.84427 c 0.0763,1.56435 0.21881,2.84427 0.31671,2.84427 0.0979,0 0.55251,-0.38695 1.01024,-0.8599 z m 3.1069,-17.28076 c 0.50202,-2.36979 0.49475,-3.19481 -0.0428,-4.85917 -0.31218,-0.96658 -0.55007,-1.32282 -0.81539,-1.22101 -0.20605,0.0791 -0.46529,0.14376 -0.5761,0.14376 -0.11081,0 -0.0459,0.80367 0.14421,1.78594 0.19012,0.98226 0.35005,2.85154 0.3554,4.15395 0.0114,2.77577 0.34616,2.77453 0.93465,-0.003 z m -3.86752,-13.34475 c 0.0145,-1.39778 -0.12271,-2.29724 -0.46409,-3.04271 -0.48855,-1.06686 -2.64358,-3.9598 -2.81905,-3.78433 -0.18908,0.18908 0.43789,2.42525 1.30816,4.66565 0.49003,1.26152 1.04806,3.00542 1.24007,3.87533 0.2921,1.32331 0.37895,1.47457 0.53173,0.92604 0.10044,-0.36058 0.19187,-1.54858 0.20318,-2.63998 z m -12.96642,-10.4384 c -1.4422,-1.4034005 -2.88672,-2.5263205 -3.92233,-3.0491005 -1.64143,-0.82858 -5.88283,-2.42611 -6.03562,-2.27331 -0.13398,0.13397 9.79973,6.6829805 10.79289,7.1154405 1.60249,0.69779 1.50119,0.48024 -0.83494,-1.79303 z" /></svg>
