<svg xmlns="http://www.w3.org/2000/svg" xml:space="preserve" width="170.343" height="282.769" viewBox="0 0 45.07 74.816"><g transform="matrix(1 0 0 1 -103.42 -150.595)"><path d="M124.577 150.596c-8.459.02-10.357.144-11.113.488-.235.108-.641.517-.9.91-.406.611-.49.935-.59 2.291-.14 1.84.022 7.755.28 8.32.097.214.406.502.686.64.613.302 5.892.39 25.81.298l.494-.562c.63-.717.754-4.276.647-7.4-.097-2.867-.38-3.612-1.665-4.398l-.804-.49c-6.433.02-6.412-.108-12.845-.097m7.632 4.676q.097.005.195.03c1.48.37 1.872 2.62.573 3.291-.762.394-1.576.305-2.112-.232-.258-.258-.52-.676-.584-.929-.24-.956.94-2.217 1.928-2.16m-12.22-.165c.45 0 .899.192 1.296.618.517.555.484 1.975-.06 2.518-.684.685-2.405.44-2.86-.408-.328-.615-.195-1.433.33-2.03.395-.45.844-.698 1.294-.698"/><rect width="24.014" height="1.838" x="113.999" y="165.398" ry=".82"/><path d="M114.589 169.139c-6.173-.013-11.181 4.995-11.168 11.168v39.666c-.013 6.173 4.995 5.36 11.168 5.347h22.668c6.173.013 11.247 1.157 11.234-5.016l-.066-39.997c.013-6.173-4.995-11.181-11.168-11.168zm-3.287 14.014h29.641a2.38 2.38 0 0 1 2.384 2.382v26.958a2.38 2.38 0 0 1-2.384 2.383h-29.64a2.38 2.38 0 0 1-2.384-2.383v-26.958a2.38 2.38 0 0 1 2.383-2.382"/></g><path d="M14.412 48.373c-1.518-.013-2.975 1.714-2.266 3.168.42.488.88.944 1.36 1.373a2.6 2.6 0 0 1 2.107.03c.646-.699 1.766-1.306 1.514-2.427-.119-1.3-1.44-2.273-2.715-2.144m-3.82 4.285c-1.024.075-1.738 1.123-1.94 2.032-.055 1.013-.029 2.172.863 2.847.615.581 1.7.662 2.194-.118.204-.349.93-.643.565-1.086-.418-.759-.307-1.69.132-2.412-.494-.415-.892-1.091-1.53-1.261-.094-.016-.19-.003-.284-.002zm7.652.006c-.665.144-1.041.833-1.518 1.271.478.814.458 1.916-.035 2.719.562.597 1.157 1.632 2.13 1.25 2.109-.806 2.062-4.387-.015-5.198a1.8 1.8 0 0 0-.562-.042m-3.8 1.644c-1.023.053-1.065 1.733-.067 1.844.931.262 1.439-1.035.775-1.604-.2-.154-.449-.281-.709-.24m-.927 3.324c-.453.623-1.22 1.046-1.511 1.762-.055 1.535 1.728 2.467 3.09 2.1 1.099-.102 2.209-1.157 1.964-2.31-.464-.576-1.03-1.06-1.56-1.573-.626.317-1.376.175-1.983.021M29.867 35.003c-1.995-.004-3.852 2.199-3.053 4.14.571.693 1.227 1.38 1.918 1.923a3.14 3.14 0 0 1 2.701.053c.669-.765 1.707-1.316 2.012-2.33.41-1.912-1.29-3.824-3.213-3.789-.122-.011-.243.003-.365.003zm-4.84 5.438c-1.342.078-2.197 1.396-2.6 2.535.004 1.21-.158 2.582.772 3.528.703.932 2.338 1.494 3.164.412.405-.405.801-.821 1.162-1.266-.647-.997-.75-2.313-.093-3.332.12-.432-.668-.77-.838-1.069-.47-.405-.863-.968-1.567-.808m9.705.008c-.909.18-1.42 1.108-2.056 1.705.245.546.508 1.191.418 1.842.045.604-.183 1.172-.493 1.678.668.644 1.2 1.722 2.22 1.802 1.845 0 2.913-2.072 2.775-3.723-.069-1.502-1.11-3.483-2.864-3.304m-4.826 2.084c-1.05.098-1.492 1.421-.848 2.205.637.833 2.294.443 2.276-.697a1.337 1.337 0 0 0-1.428-1.508m-1.27 4.273c-.591.772-1.468 1.325-1.931 2.182-.224 1.877 1.824 3.277 3.555 3.014 1.528.002 3.121-1.116 3.187-2.727-.001-.809-.873-1.225-1.328-1.792-.38-.186-.639-1.009-1.117-.661-.74.257-1.559.167-2.272-.131l-.063.078z"/></svg>