<svg xmlns="http://www.w3.org/2000/svg" xml:space="preserve" width="88.794" height="195" viewBox="0 0 23.493 51.594"><path d="M6.852 0v2.088l1.257.08c1.245.08 1.257.09 1.257 1.007v.926l-2.535.132c-2.233.117-2.688.227-3.829.933A6.85 6.85 0 0 0 .906 7.262l-.8 1.294-.078 11C-.059 31.87-.056 31.895 1.767 33.724c1.543 1.548 2.282 1.83 5.218 1.986l2.646.141.074 2.844c.069 2.589.12 2.845.577 2.845.412 0 .534.27.688 1.52.136 1.1.618 2.347 1.74 4.497.852 1.636 1.52 3.101 1.55 3.25.058.275.128.795.182.77l1.373.017-.15-.992c-.083-.546-.795-2.205-1.582-3.686-.956-1.8-1.483-3.137-1.59-4.034-.155-1.315-.174-1.333.51-1.333 0 0 .391.072.616.01.196-.053.112-2.93.112-2.93v-2.91h2.39c2.016 0 2.592-.103 3.678-.653.708-.359 1.66-1.103 2.117-1.654 1.563-1.887 1.642-2.607 1.553-14.148-.078-10.073-.099-10.434-.652-11.459-.314-.582-.91-1.37-1.323-1.752-1.568-1.446-2.193-1.681-4.84-1.82l-2.526-.132-.082-.992-.082-.992h2.678V0h-4.895Zm4.75 6.615h5.994l1.196.758c2.098 1.33 2.083 1.239 2.083 12.647 0 11.338.033 11.144-2.1 12.656l-1.12.794-5.335.057c-2.934.031-5.454.012-5.6-.043s-.59-.172-.987-.26c-.97-.213-2.58-1.662-3.021-2.718-.278-.664-.356-2.916-.351-10.059.003-5.061.114-9.67.247-10.24C2.9 8.946 3.57 8 4.733 7.21c.843-.574 1.088-.595 6.869-.595m-.01 1.058c-4.96 0-5.402.04-6.236.554-1.68 1.04-1.679 1.023-1.679 11.941 0 10.884-.049 10.547 1.685 11.604.744.454 1.38.505 6.257.506 6.11.001 6.798-.166 7.72-1.872.456-.842.485-1.594.418-10.74l-.072-9.835-.662-.707c-1.283-1.373-1.683-1.451-7.43-1.451m.679 5.786.153.019.153.038a3.7 3.7 0 0 1 1.13.421q.536.287.956.708l.708.976.402 1.149q.115.69.02 1.359v.077l.057.038q1.071.44 1.704 1.244.63.784.841 1.933.192 1.053-.23 2.125l-.019.077-.076-.04-.038-.037v-.038l.019-.077q.172-.554.095-1.13a2.8 2.8 0 0 0-.325-1.052 3 3 0 0 0-.69-.861l-1.014-.536-.918-.115-.88.153q-.422.154-.785.44a2.6 2.6 0 0 0-.632.67l-.038.058a1 1 0 0 0-.173-.096l-.153-.096-.038-.038v-.02l.02-.038.018-.325-.095-.287-.191-.23-.288-.153-.038-.02-.057-.018v-.421q1.301-.096 2.086-1.072l.478-.804q.154-.44.172-.938a2.8 2.8 0 0 0-.153-1.015 2.8 2.8 0 0 0-.497-.861 2.4 2.4 0 0 0-.746-.65q-.422-.269-.938-.364zm-1.126.019c.027 0 .025.01.027.033.008.07-.015.09-.148.122a2.7 2.7 0 0 0-.6.22c-.184.094-.21.113-.515.374l-.322.275-.24.366-.242.366-.125.423-.125.423.032.521c.034.572.046.64.156.916.13.325.186.41.556.825.339.38.402.437.664.59.321.19.804.348 1.137.375.187.015.17-.01.17.224v.202l-.068.016a.8.8 0 0 0-.291.142c-.114.087-.174.179-.243.37l-.063.173.004.203.006.204-.163.103-.162.103-.02-.032a5 5 0 0 0-.325-.409c-.536-.58-1.352-.91-2.17-.88a2.7 2.7 0 0 0-1.184.293c-.148.075-.198.112-.515.38-.438.372-.44.374-.555.527a2.6 2.6 0 0 0-.457.95 2.4 2.4 0 0 0-.084.706c0 .316.015.435.09.725.051.198.052.22.01.257-.065.059-.071.054-.126-.107h-.001a7 7 0 0 1-.186-.706 4.6 4.6 0 0 1-.049-1.115 4.16 4.16 0 0 1 .865-2.105q.646-.8 1.531-1.198c.286-.128.262-.1.24-.275a4.1 4.1 0 0 1 .077-1.493c.07-.287.156-.514.311-.827a4.2 4.2 0 0 1 .536-.835c.112-.133.177-.19.632-.547.518-.407.59-.455.868-.575a4.2 4.2 0 0 1 .865-.267c.119-.024.175-.036.202-.036m.475 3.376.628.087c.626.087.63.088.796.153.29.113.622.297.883.49l.095.07-.03.05c-.134.224-.382.537-.503.633l-.058.046-.13-.085a4.2 4.2 0 0 0-.752-.364q-1.03-.338-2.063.177c-.113.055-.265.14-.337.187l-.135.085s-.133-.16-.293-.356c-.244-.298-.287-.357-.267-.368l.503-.294.479-.28.592-.115zm-3.55 3.165c.01-.011.608.044.688.065.047.012.11.027.14.033.094.019.097.027.078.233-.035.39.03.8.191 1.19.29.709.703 1.162 1.346 1.475.104.05.192.094.194.096.007.006-.049.22-.09.345a4 4 0 0 1-.233.495c-.018.022-.024.022-.09-.005a3.3 3.3 0 0 1-.883-.513q-.093-.074-.492-.55c-.36-.43-.405-.49-.472-.624a3.8 3.8 0 0 1-.414-1.724c0-.222.02-.498.036-.515m7.29.008c.007.007.022.098.036.202a4 4 0 0 1-.014.896 3.6 3.6 0 0 1-.493 1.307c-.294.497-.66.888-1.122 1.196-.136.091-.49.275-.63.326l-.06.023-.034-.06a3.5 3.5 0 0 1-.21-.46 2.4 2.4 0 0 1-.092-.346L12.96 23a2.66 2.66 0 0 0 1.368-1.566c.099-.297.112-.386.122-.852a5 5 0 0 1 .02-.426 10 10 0 0 1 .89-.129m-2.99 1.062.152.093c.085.052.159.098.165.104s-.037.149-.096.319c-.152.434-.19.636-.19 1.008 0 .546.155 1.092.432 1.52.415.637 1.005 1.083 1.66 1.255.282.073.399.083.902.07l.45-.012.425-.155c.547-.2.684-.282 1.022-.607l.18-.174.05.03c.027.018.05.037.05.044 0 .023-.204.258-.347.4a4.2 4.2 0 0 1-1.668.991c-.197.064-.474.13-.592.14-.042.004-.433-.01-.867-.03l-.789-.039-.225-.075a4.3 4.3 0 0 1-1.242-.65 1 1 0 0 0-.108-.076c-.004 0-.077.051-.163.112a4.25 4.25 0 0 1-1.88.77c-.17.026-.738.038-.912.02-1.182-.123-2.11-.608-2.845-1.49-.067-.08-.067-.082.018-.131.027-.016.01-.028.509.38.174.143.26.202.387.267a3 3 0 0 0 .62.24 2.2 2.2 0 0 0 .691.079h.303l.423-.118.423-.117.371-.234c.289-.183.4-.261.497-.352a2.5 2.5 0 0 0 .57-.785c.15-.307.22-.532.265-.839.08-.54.019-1.03-.196-1.563a1 1 0 0 1-.066-.2c.036-.035.333-.193.346-.186l.152.113c.133.1.14.104.295.138.086.02.173.036.19.036.066 0 .34-.075.407-.111a1 1 0 0 0 .15-.11z"/></svg>