<?xml version="1.0" encoding="UTF-8" standalone="no"?>
<svg
   width="69.319916mm"
   height="71.162415mm"
   viewBox="0 0 69.319916 71.162415"
   version="1.1"
   xml:space="preserve"
   xmlns="http://www.w3.org/2000/svg"
   xmlns:svg="http://www.w3.org/2000/svg"><path
     style="fill:#000000"
     d="m 4.2791394,70.348365 c -0.893541,-0.4465 -2.03719,-1.29382 -2.541441,-1.88293 -1.80961302,-2.11412 -1.73957202,-1.08182 -1.73670701867,-25.59664 l 0.002599999,-22.11172 0.623903,-1.32291 c 1.22681102,-2.60132 3.77251302,-4.38063 6.55545402,-4.58193 l 1.503639,-0.10877 -0.14634,-0.90178 c -0.105301,-0.6489 -0.01356,-1.0485 0.327133,-1.42497 0.413137,-0.45651 0.819857,-0.52318 3.1916906,-0.52318 3.145146,0 3.549766,0.21432 3.549766,1.88024 v 1.04869 l 2.711979,-0.0754 2.71198,-0.0754 0.132291,-6.43835 0.132292,-6.438351 0.839977,-0.750019 c 1.171816,-1.04631998 2.050465,-1.11112698 13.712105,-1.01137098 10.935085,0.09354 10.846335,0.08131 11.787135,1.62424598 0.46997,0.770773 0.5141,1.370126 0.51501,6.994575 l 9.8e-4,6.15156 h 2.80758 2.80757 l -0.16373,-0.87275 c -0.30048,-1.60169 0.19029,-1.89247 3.36696,-1.99493 2.54422,-0.0821 2.82354,-0.0425 3.33914,0.47311 0.44709,0.44709 0.52738,0.75083 0.39084,1.47862 l -0.17183,0.91595 1.28622,2.1e-4 c 1.80454,2.9e-4 4.18825,1.17799 5.5765,2.75512 2.02075,2.2957 1.92742,1.06284 1.92742,25.46 0,21.30759 -0.0116,21.80196 -0.54296,23.22226 -0.39234,1.04862 -0.94021,1.81425 -1.97498,2.75997 -2.53286,2.31489 -0.18745,2.15869 -32.411936,2.15869 H 5.9037594 Z m 24.4637106,-0.9741 c -0.0695,-0.10914 -0.660485,-1.009 -1.313296,-1.99969 -1.632369,-2.47725 -2.138879,-4.47431 -1.972631,-7.77768 0.102559,-2.03786 0.286468,-2.95952 0.860352,-4.31169 1.664888,-3.92276 2.744418,-5.17683 12.868412,-14.94896 3.891169,-3.75593 6.018259,-6.74385 7.160909,-10.05892 1.46869,-4.26096 1.24207,-8.19305 -0.70655,-12.25913 l -0.90639,-1.89132 h -2.127 c -1.16985,0 -2.127,0.0721 -2.127,0.16024 0,0.0881 0.3049,0.52259 0.67755,0.96547 0.98369,1.16904 2.12145,3.55656 2.46431,5.17116 1.21191,5.70731 -1.34799,10.77328 -8.863364,17.54033 -4.187189,3.77026 -6.86178,6.49023 -8.431207,8.57425 -1.550247,2.05856 -3.420182,5.88689 -3.949913,8.0867 -0.99347,4.12557 -0.179949,9.14438 1.972163,12.16674 0.531108,0.74587 0.645072,0.78094 2.53805,0.78094 1.090085,0 1.925108,-0.0893 1.855605,-0.19844 z m 15.802266,-0.80354 c 1.96343,-3.11027 2.91397,-5.73293 3.35024,-9.24378 0.48001,-3.86278 -0.46082,-8.35388 -2.43604,-11.62861 -0.97557,-1.61741 -3.29584,-4.29095 -4.41651,-5.08893 l -0.72661,-0.5174 -1.258319,1.07558 -1.258316,1.07557 1.835838,1.67554 c 3.498787,3.19327 4.885287,6.41803 4.880387,11.35088 -0.004,3.98777 -0.83555,6.60746 -3.23355,10.18646 -0.53626,0.80036 -1.0623,1.60404 -1.169,1.78594 -0.1481,0.2525 0.27829,0.33073 1.80269,0.33073 h 1.99667 z m -4.35713,-2.01559 c 0.6685,-0.60574 0.71406,-1.3966 0.11837,-2.05483 -0.39688,-0.43855 -0.941937,-0.48385 -5.820833,-0.48385 -5.030173,0 -5.417631,0.0347 -5.912118,0.52916 -0.701553,0.70156 -0.667275,1.20886 0.135953,2.01209 l 0.66512,0.66512 5.128629,-0.0818 c 4.604336,-0.0735 5.185494,-0.13336 5.684879,-0.58586 z m 2.45365,-7.2099 c 0.54947,-0.49726 0.64081,-1.68057 0.16635,-2.15503 -0.23195,-0.23196 -2.33088,-0.3175 -7.790203,-0.3175 -7.422146,0 -7.475492,0.004 -7.884583,0.58803 -0.544347,0.77717 -0.519543,1.15638 0.117289,1.79322 0.503199,0.5032 0.881944,0.52916 7.718228,0.52916 6.318199,0 7.247679,-0.053 7.672919,-0.43788 z m -1.61542,-6.97976 c 0.35325,-0.18905 0.51177,-0.55496 0.51177,-1.18131 0,-0.62636 -0.15852,-0.99227 -0.51177,-1.18132 -0.29352,-0.15709 -2.375275,-0.27389 -4.881382,-0.27389 h -4.369608 l -0.805936,0.85989 c -0.882043,0.9411 -0.970504,1.2534 -0.490885,1.73302 0.407595,0.4076 9.795171,0.44641 10.547811,0.0436 z m -11.011411,-10.95411 1.309109,-1.1535 -0.912234,-0.74398 c -2.688387,-2.19255 -4.225619,-4.34211 -5.056723,-7.07099 -0.717596,-2.35618 -0.586698,-6.87263 0.268235,-9.25505 0.757729,-2.11155 2.043999,-4.61786 2.970829,-5.78869 0.425224,-0.53717 0.773134,-1.04318 0.773134,-1.12448 0,-0.0813 -0.89275,-0.1478 -1.983889,-0.1478 h -1.983889 l -0.790279,1.25677 c -3.72482,5.92353 -4.170594,13.41879 -1.140964,19.18419 0.852158,1.62166 4.601498,6.04236 5.094902,6.0072 0.07846,-0.006 0.73176,-0.52924 1.451769,-1.16367 z m 8.87735,-7.55741 c 0.650608,-0.65061 0.666704,-1.09607 0.06614,-1.83063 -0.449577,-0.54989 -0.620209,-0.56419 -5.877062,-0.49233 l -5.414041,0.074 -0.391052,0.69712 c -0.35075,0.62527 -0.344327,0.76842 0.06233,1.38906 l 0.453381,0.69194 h 5.285567 c 4.932789,0 5.320885,-0.0353 5.814734,-0.52916 z m 3.108851,-6.9488 c 0.46888,-0.36825 0.40985,-1.52107 -0.10715,-2.09235 -0.4031,-0.44542 -0.99149,-0.48385 -7.408333,-0.48385 -6.617673,0 -6.997233,0.0268 -7.499618,0.52916 -0.657347,0.65735 -0.676066,1.37255 -0.05074,1.93846 0.409946,0.371 1.385199,0.44315 6.813021,0.50403 6.67406,0.0749 7.71767,0.0249 8.25282,-0.39545 z m -1.93713,-6.96073 c 0.53922,-0.53921 0.52974,-1.401 -0.0221,-2.01078 -0.393054,-0.43432 -0.921292,-0.48386 -5.159378,-0.48386 -4.368715,0 -4.761031,0.0395 -5.25066,0.52917 -0.635603,0.6356 -0.679657,1.39921 -0.113392,1.96547 0.347777,0.34778 1.210096,0.41578 5.272767,0.41578 4.062671,0 4.92499,-0.068 5.272763,-0.41578 z m 3.53088,-10.10141 0.0724,-4.56406 h -9.002077 -9.00208 v 4.63373 4.63372 l 8.929687,-0.0697 8.92969,-0.0697 z" /></svg>
