<?xml version="1.0" encoding="UTF-8" standalone="no"?>
<svg
   width="56.091137mm"
   height="43.415363mm"
   viewBox="0 0 56.091137 43.415363"
   version="1.1"
   xml:space="preserve"
   xmlns="http://www.w3.org/2000/svg"
   xmlns:svg="http://www.w3.org/2000/svg"><g
     transform="translate(-78.045891,-123.50099)"><path
       style="display:inline;fill:#000000"
       d="m 133.42803,123.50099 -0.76636,0.16743 c -1.77613,0.38768 -6.90062,0.95557 -11.21792,1.24282 l -4.63021,0.30799 -1.11259,1.22111 c -0.61194,0.67165 -1.11748,1.29797 -1.12448,1.39217 -0.007,0.0942 0.99598,0.21328 2.22777,0.26458 1.58234,0.0659 2.36128,0.21508 2.6541,0.50798 0.37622,0.37632 0.3636,0.46051 -0.13539,0.91209 -0.45503,0.4118 -1.08944,0.51676 -3.68453,0.60926 l -3.13521,0.11163 -1.80661,1.82056 -1.80661,1.82056 1.71308,-0.002 c 3.69763,-0.005 10.60917,-1.11002 13.34802,-2.13475 1.06381,-0.39802 1.44932,-0.68331 1.51102,-1.11725 0.0683,-0.48006 0.2407,-0.575 0.9803,-0.5395 0.8048,0.0386 1.15218,-0.21524 3.36465,-2.46032 1.35703,-1.37702 2.72696,-2.86841 3.04426,-3.314 z m -38.961445,1.36322 -2.100647,1.47226 c -2.658024,1.86252 -5.921824,3.3961 -8.926587,4.1951 l -2.344559,0.62373 1.581298,0.46044 c 2.45668,0.71585 5.937386,1.43299 8.923487,1.83865 3.896746,0.52936 6.14468,0.52946 6.584094,0 0.193857,-0.23358 1.011753,-0.87408 1.817979,-1.42317 0.80623,-0.54908 1.69268,-1.25087 1.9699,-1.5596 l 0.50437,-0.5612 h -1.61128 c -1.8685,0 -2.968807,-0.34319 -2.968807,-0.92605 0,-0.67177 1.186157,-0.92604 4.320147,-0.92604 h 2.96313 l 1.45159,-0.99218 1.45159,-0.99219 -4.7625,-0.16485 c -2.80667,-0.0973 -5.602508,-0.34589 -6.807852,-0.60513 z m 18.444355,0.55604 c -0.61631,0.006 -1.19717,0.30335 -2.05052,1.05058 l -1.19063,1.04232 1.11518,0.008 c 0.87679,0.006 1.31525,-0.16782 2.05052,-0.81339 1.15946,-1.01798 1.17588,-1.29788 0.0755,-1.28778 z m 21.22609,1.71204 -3.55844,3.57188 -3.55895,3.57187 -0.01,2.87011 -0.01,2.87063 0.8599,-0.54364 c 0.83648,-0.52859 0.86236,-0.59946 0.93586,-2.60553 0.0647,-1.76383 0.16036,-2.12875 0.66145,-2.51974 1.12532,-0.87805 1.51154,-0.62954 1.51154,0.971 0,0.79178 0.0893,1.49391 0.19844,1.56011 0.10914,0.0663 0.72737,-0.35001 1.37356,-0.925 l 1.1746,-1.04542 0.19741,-2.8298 c 0.10859,-1.55635 0.20384,-3.30606 0.21084,-3.88814 z m -24.25123,2.51406 -1.43092,0.004 c -1.3793,0.004 -1.52905,0.0798 -4.14807,2.096 -1.99135,1.53301 -2.59211,2.12442 -2.24896,2.21382 v 5.2e-4 c 0.25753,0.0671 1.26769,0.13606 2.24483,0.15296 1.5883,0.0274 1.81024,-0.0326 2.09393,-0.56483 0.17452,-0.32742 1.03093,-1.33944 1.90324,-2.24895 z m -30.646192,4.54856 c -0.04221,0.0446 1.331949,2.0872 3.05356,4.53926 2.803326,3.99273 3.408586,5.19916 2.60811,5.19916 -0.130915,0 -0.461135,-0.26789 -0.733806,-0.59531 -2.13292,-2.56119 -5.355399,-6.24666 -5.737117,-6.56136 -0.436782,-0.3601 -0.454539,-0.30232 -0.284737,0.93896 1.038777,7.5936 1.485046,13.11984 1.495516,18.52084 0.0037,1.89177 0.118147,3.61554 0.254248,3.83077 0.19862,0.31411 0.593712,0.0396 2.002978,-1.39061 1.630633,-1.65487 2.23914,-1.96843 2.23914,-1.15394 0,0.18102 -0.343458,0.79919 -0.763261,1.37356 -0.419804,0.57438 -1.300975,1.95698 -1.95802,3.07217 l -1.194759,2.02726 1.494999,0.15762 c 0.822188,0.0865 4.114375,0.33606 7.315833,0.55449 3.201458,0.21843 7.963958,0.57034 10.583333,0.78238 2.619375,0.21204 7.143755,0.56919 10.054165,0.79323 2.91042,0.22403 5.76792,0.44601 6.35,0.49351 0.58209,0.0475 2.34517,0.10624 3.91811,0.13074 2.22773,0.0346 2.81526,-0.0287 2.65823,-0.28629 -0.11087,-0.1819 -1.31971,-1.91149 -2.68665,-3.84369 -2.27086,-3.20989 -2.75634,-4.29224 -1.92495,-4.29224 0.14389,0 0.90485,0.80366 1.69085,1.78593 0.78599,0.98226 2.03619,2.35149 2.77813,3.04271 2.40689,2.24239 2.25745,3.15263 2.03605,-12.43541 -0.10696,-7.53071 -0.24949,-13.78495 -0.31729,-13.89838 -0.0678,-0.11342 -1.1926,0.86883 -2.49908,2.18281 -1.30649,1.31397 -2.56005,2.389 -2.78587,2.389 -0.56286,0 -0.36816,-0.41333 1.35444,-2.87166 0.80649,-1.15095 1.46657,-2.25982 1.46657,-2.46393 0,-0.31475 -0.37152,-0.32195 -2.44739,-0.0501 -1.34607,0.17627 -4.23333,0.40436 -6.41615,0.50746 -3.99779,0.18882 -4.89479,0.3743 -4.89479,1.01027 0,0.38072 -0.99013,1.37819 -1.17977,1.18856 -0.0651,-0.0651 -0.22257,-0.39956 -0.34985,-0.74362 -0.22254,-0.60158 -0.34886,-0.62879 -3.29748,-0.70539 -3.00266,-0.078 -3.075,-0.0658 -3.491255,0.56948 -0.57083,0.8712 -1.175104,0.81797 -1.506368,-0.13229 -0.311212,-0.89274 -0.573699,-0.95203 -5.258594,-1.18494 -3.37112,-0.1676 -8.0374,-0.94858 -11.206034,-1.87586 -1.289382,-0.37733 -2.378831,-0.64973 -2.421041,-0.60513 z m 54.374972,3.80752 -1.19062,1.1684 c -1.0606,1.0409 -1.19063,1.29837 -1.19063,2.35593 0,0.9279 -0.15538,1.34908 -0.71106,1.92908 -1.00877,1.05293 -1.4056,0.96017 -1.4056,-0.32866 v -1.07073 l -1.05834,0.85059 -1.05833,0.85008 0.001,5.97534 c 9.8e-4,5.453 0.33779,12.51479 0.66611,13.96969 0.12332,0.54647 0.20535,0.50724 1.20355,-0.57567 0.6754,-0.73272 1.84088,-1.53596 3.15484,-2.17403 l 2.0836,-1.01183 -0.11162,-2.77812 c -0.22775,-5.64736 -0.37479,-11.61386 -0.37879,-15.33498 z m -29.28658,2.25671 c 2.67405,0.0161 4.21893,0.48318 5.61258,1.63194 1.21136,0.99851 1.71359,2.14076 1.71359,3.89899 0,2.24203 -0.92573,3.40082 -3.79977,4.7563 -1.45068,0.68418 -2.02107,1.65318 -2.02107,3.43286 v 1.0666 H 103.71667 101.6 v -2.32234 c 0,-1.76591 0.10887,-2.47912 0.45475,-2.97656 0.54941,-0.79012 1.43001,-1.55938 1.79886,-1.57148 0.14812,-0.005 0.71366,-0.31049 1.25677,-0.67954 1.89607,-1.28841 1.06761,-3.03341 -1.44022,-3.03341 -2.22765,0 -3.0458,0.70298 -3.35794,2.8851 l -0.17415,1.21594 h -2.774504 -2.775024 l 0.05168,-1.52549 c 0.06116,-1.79753 1.035858,-3.82012 2.306319,-4.7873 2.010615,-1.53064 3.039157,-1.86008 6.163449,-1.97197 0.43093,-0.0154 0.836,-0.0219 1.21801,-0.0196 z m -0.49661,16.45326 c 0.84017,-0.007 1.57905,0.36883 2.25567,1.13946 1.31737,1.5004 0.98229,3.29257 -0.78599,4.20698 -0.93439,0.48322 -1.72194,0.48727 -2.80707,0.015 -2.37607,-1.03412 -2.18248,-4.35758 0.30179,-5.17746 0.36213,-0.11952 0.70684,-0.18115 1.0356,-0.18397 z" /></g></svg>
