<svg xmlns="http://www.w3.org/2000/svg" xml:space="preserve" width="170.096" height="282.681" viewBox="0 0 45.004 74.793"><g transform="translate(-103.42 -150.527)"><path d="M121.05 150.53c-8.458.02-10.356.144-11.112.488-.236.108-.642.517-.901.909-.406.612-.489.936-.59 2.292-.139 1.84.023 7.755.28 8.32.098.214.407.502.687.64.45.222 2.924.252 21.269.255l10.995-.051.494-.562c.63-.717.754-4.276.647-7.399-.097-2.868-.379-3.613-1.665-4.399l-.804-.49-8.454.007c-4.478-.011-8.026-.016-10.846-.01zm4.826 4.536q.098.005.195.03c1.48.37 1.872 2.62.573 3.291-.762.394-1.576.305-2.112-.232-.258-.258-.52-.676-.584-.929-.24-.956.94-2.217 1.928-2.16m-10.162.022c.45 0 .899.192 1.296.618.517.555.484 1.975-.059 2.518-.685.685-2.406.44-2.86-.408-.329-.615-.196-1.433.33-2.031.394-.45.843-.697 1.293-.697m19.517.011c.528-.01 1.09.298 1.613.92.602.716.55 1.215-.206 1.972-.488.487-.762.633-1.189.633-.55 0-1.18-.326-1.56-.809-.36-.456-.252-1.563.203-2.105.337-.4.728-.602 1.139-.61M130.636 197.715c-.006-.66-.644-1.885-1.3-2.502-.759-.713-.927-.235 1.64-4.666 2.605-4.496 2.294-4.26 3.947-2.984 2.962 2.288 4.698 5.45 5.112 9.314.135 1.264.135 1.264-4.63 1.264s-4.765 0-4.77-.426m-17.632-.095c.05-3.956 2.504-8.358 5.93-10.634.893-.594.642-.874 3.265 3.643 2.503 4.308 2.35 3.868 1.588 4.584-.657.617-1.293 1.843-1.3 2.501-.004.427-.004.427-4.747.427s-4.743 0-4.736-.521m12.115 2.747c-1.703-1.138-1.664-3.45.078-4.51 2.108-1.286 4.752.92 3.814 3.181-.69 1.665-2.476 2.275-3.892 1.329m-1.593 10.973c-1.33-.375-2.999-1.013-3.379-1.294-.26-.192 3.318-7.043 4.303-8.236.014-.017.498.09 1.075.237.905.231 1.193.231 2.087-.002.57-.148 1.046-.254 1.058-.237 1.584 2.352 4.567 8.04 4.315 8.228-1.66 1.243-7.04 1.985-9.459 1.304z"/><rect width="29.041" height="1.772" x="110.897" y="165.53" ry=".886"/><path d="M114.589 169.139a11.144 11.144 0 0 0-11.168 11.168v33.845a11.144 11.144 0 0 0 11.168 11.168h22.668a11.144 11.144 0 0 0 11.168-11.168v-33.845a11.144 11.144 0 0 0-11.168-11.168zm-3.287 14.014h29.641a2.38 2.38 0 0 1 2.384 2.382v26.958a2.38 2.38 0 0 1-2.384 2.383h-29.64a2.38 2.38 0 0 1-2.384-2.383v-26.958a2.38 2.38 0 0 1 2.383-2.382"/></g></svg>