<svg xmlns="http://www.w3.org/2000/svg" xml:space="preserve" width="380.548" height="416.103" viewBox="0 0 100.687 110.094"><path d="m29.076 12.088 4.72 1.456-29.076 96.55L0 108.637zM37.7 3.464q.174 1.573-.875 2.739-1.049 1.223-2.622 1.398-1.573.117-2.738-.874-1.224-1.049-1.399-2.622-.116-1.573.874-2.739.99-1.223 2.564-1.34 1.573-.175 2.797.816 1.282 1.049 1.398 2.622M39.098 18.38q6.06 3.38 10.313 4.779 4.195 1.456 10.08 1.98l3.788.234 5.593.291q7.808.466 13.577 1.573 17.655 3.322 18.238 11.712L96.49 56.721l-4.253 17.655q-3.38-6.41-18.995-10.314-10.197-2.563-22.2-3.38l-4.254-.407-4.894-.874q-6.06-1.573-11.13-5.594l2.564-6.293 2.914-9.73q3.437-13.11 2.855-19.403"/></svg>