<?xml version="1.0" encoding="UTF-8" standalone="no"?>
<svg
   width="73.728531mm"
   height="90.648399mm"
   viewBox="0 0 73.728531 90.648399"
   version="1.1"
   xml:space="preserve"
   xmlns="http://www.w3.org/2000/svg"
   xmlns:svg="http://www.w3.org/2000/svg"><path
     style="fill:#000000"
     d="m 53.626698,0 c -1.33827,0 -1.7473,0.34116 -3.33984,2.78432 -1.25762,1.92936 -1.55554,2.23443 -2.06706,2.11822 -2.35469,-0.53495 -3.11376,-0.65649 -4.12068,-0.66249 -0.62803,-0.004 -1.37218,0.11653 -1.65365,0.26717 -0.94472,0.5056 -0.51441,1.2047 1.32137,2.23397 h 19.33887 c -0.003,-0.22266 -0.0126,-0.35797 -0.0134,-0.62219 -0.009,-2.91568 -0.1542,-3.38557 -1.22112,-3.95376 C 60.944038,1.67148 54.579548,0 53.626728,0 Z m -6.84041,9.86554 c -1.19254,1.53366 -3.5241,4.11937 -3.84007,4.13515 -0.24353,0.0121 -2.922443,-0.51991 -5.953127,-1.18235 -13.640149,-2.98145 -14.140018,-3.06815 -14.88643,-2.59209 -0.372987,0.2379 -2.940182,1.98498 -5.705078,3.88245 -2.525528,1.7332 -4.067153,2.79598 -5.775358,3.97236 h 48.438383 c 0.259,-0.6412 0.48772,-1.14773 0.55708,-1.14773 0.1023,0 0.45258,0.18685 0.77824,0.41496 0.32567,0.2281 0.85821,0.37693 1.18339,0.33073 0.67142,-0.0954 0.70148,-0.44059 0.25994,-2.99465 -0.15091,-0.87313 -0.22945,-1.66261 -0.17415,-1.75441 0.0554,-0.0918 0.90645,0.006 1.89084,0.21652 2.06508,0.44248 5.10192,0.36263 5.72006,-0.15038 0.31653,-0.26269 0.35717,-0.47693 0.15968,-0.84594 -0.24369,-0.45534 -2.7047,-1.74434 -4.23643,-2.28462 z M 6.123657,21.2049 c -4.083468,2.88987 -3.896895,3.03976 -3.825606,3.89382 0.05839,0.6995 0.243428,1.03395 0.675928,1.2237 0.439658,0.19289 0.595312,0.48369 0.595312,1.11156 0,0.93939 0.555172,1.4184 1.390613,1.19993 0.436666,-0.11419 0.491683,-0.0415 0.337447,0.44442 -0.07007,0.22077 -0.07539,0.40605 -0.05271,0.5736 H 8.04292 c 0.0013,-0.001 0.0028,-0.002 0.0041,-0.003 1.379151,-1.09231 1.650726,-1.09027 1.699638,0.003 h 2.260327 c 0.238502,-0.46431 0.479549,-0.99966 0.603581,-1.40663 0.270492,-0.88754 0.883971,-1.39921 5.865275,-4.89479 1.610491,-1.13015 2.002586,-1.39683 3.076815,-2.14561 z m 25.987045,0 c -0.236823,0.48961 -2.496476,3.96476 -5.448763,8.44703 h 29.039569 l -2.33939,-4.67361 1.23093,-1.83968 c 1.1486,-1.71631 1.30281,-1.84472 2.29185,-1.91772 l 0.21601,-0.016 z m 35.578706,7.11378 c -0.71401,0.0124 -1.20572,0.48204 -1.47071,1.33325 h 5.30045 c -0.22441,-0.5722 -0.35288,-0.60438 -1.64796,-0.45217 -1.26881,0.14912 -1.43243,0.11124 -1.55598,-0.36121 -0.0762,-0.29156 -0.35638,-0.52487 -0.6258,-0.51987 z m -43.094527,4.45709 c -1.118408,1.68723 -1.943602,2.95652 -3.19567,4.82917 -0.81301,1.21597 -1.330749,2.00578 -2.096513,3.15484 h 27.57868 c 0.95573,-2.6722 1.81499,-5.01956 1.91926,-5.12733 0.11639,-0.12029 1.3703,1.6954 2.78639,4.03489 0.26817,0.44303 0.45207,0.73235 0.67438,1.09244 h 14.68334 c 0.60757,-0.17069 1.2869,-0.34352 1.84433,-0.50436 l 2.64584,-0.76326 -0.0413,-0.84853 c -0.0371,-0.76478 0.0738,-0.89787 1.12448,-1.34824 0.64112,-0.27482 1.18014,-0.65267 1.19734,-0.83974 0.0586,-0.6362 -0.0784,-1.13296 -0.4222,-1.53065 -0.19398,-0.22441 -0.28919,-0.74829 -0.21859,-1.20561 0.0614,-0.39773 0.0221,-0.71241 -0.11472,-0.94362 h -10.22677 l -0.51366,0.19947 c -2.01264,0.78134 -3.76854,1.42059 -3.90157,1.42059 -0.0713,0 -0.4604,-0.65761 -0.9865,-1.62006 z m -7.368025,11.10785 c -2.487182,3.74506 -4.139603,6.25394 -5.259111,7.98401 h 32.725133 c -0.69014,-0.66165 -1.1715,-1.15357 -1.1715,-1.23713 0,-0.22414 1.08345,-3.41005 2.25154,-6.74688 z m 37.352242,0 c 0.0564,0.0224 0.11077,0.0372 0.16175,0.0372 0.0147,0 0.15084,-0.0344 0.1757,-0.0372 z M 10.327535,54.99199 c 0.297006,0.6898 1.533082,1.79787 4.667416,4.26692 l 3.763594,2.96468 0.740007,-0.88315 c 0.406834,-0.48568 1.294384,-1.62786 1.972489,-2.53835 0.678104,-0.91049 1.279916,-1.60882 1.337386,-1.55132 0.136912,0.13691 -0.133559,3.30473 -0.444417,6.12985 h 12.941329 c 0.370119,-1.56114 0.65574,-2.72742 0.68833,-2.76003 0.08212,-0.0821 2.427196,1.34921 4.619356,2.76003 h 14.450283 c -0.13064,-0.4328 -0.28333,-0.91637 -0.40876,-1.33583 l -0.55397,-1.85209 -5.2896,-4.59868 c -0.26102,-0.22691 -0.41909,-0.38114 -0.67025,-0.60203 z m 11.649418,11.51299 c -0.09354,0.60641 -0.179132,1.07004 -0.234611,1.12138 -0.172415,0.15955 -1.98055,1.07411 -4.017842,2.03243 -5.659418,2.66211 -8.991445,4.2458 -11.782227,5.58209 h 24.453288 c 1.260048,-0.61366 1.910331,-0.96208 2.08101,-1.12603 0.310463,-0.29822 0.954555,-2.59449 1.94045,-6.91947 0.06088,-0.26707 0.101218,-0.43107 0.160714,-0.6904 z m 23.161375,0 0.0512,0.0377 2.94659,8.69818 h 10.62106 c -0.89012,-2.77748 -1.81418,-5.73312 -2.7373,-8.7359 z M 0,78.36472 c 0.122979,0.39192 1.396535,2.89288 3.014286,5.90507 1.719405,3.20146 3.076647,5.91013 3.015837,6.01927 2.023778,0.7127 7.471379,0.14521 7.471379,0.14521 0.07048,-0.60371 -0.09555,-2.7043 -0.643889,-4.02146 -0.45197,-1.08569 -0.821655,-2.13679 -0.821655,-2.33577 0,-0.21205 1.998355,-1.27637 4.828646,-2.57142 3.574145,-1.63542 4.693527,-2.16305 6.814054,-3.1409 z m 49.193378,0 c 2.12552,6.27774 3.83153,11.43209 3.79254,11.46339 -0.98188,0.0411 14.77252,1.04147 17.39066,0.26251 l -0.13642,-1.3534 c -0.22685,-2.25288 -0.85123,-2.66096 -5.22759,-3.4184 -1.49499,-0.25875 -2.88467,-0.60057 -3.08818,-0.75964 -0.12644,-0.0988 -1.02786,-2.7494 -2.15439,-6.19446 z" /></svg>
