<svg xmlns="http://www.w3.org/2000/svg" xml:space="preserve" width="551.557" height="541.445" viewBox="0 0 145.933 143.257"><path d="M36.24 70.048q-3.405-3.405-8.026-3.405t-7.783 3.405q-3.162 3.162-3.162 7.783t3.162 7.783 7.783 3.162q4.62 0 8.026-3.162 3.162-3.162 3.162-7.783t-3.162-7.783m8.27-32.835-16.54-16.54-5.837 5.595L38.915 43.05zm35.268 25.052-2.676-.73-8.27 7.54q-2.432-.73-.243-2.919l7.054-8.026-2.432-.487-5.595 4.622-2.675 2.918q-2.432-.73-.243-2.918l7.053-8.027-2.432-.486-8.27 7.54q-2.432-.487 0-2.919l6.81-8.026-2.675-.73-8.27 7.54q-2.431-.73-.242-2.919l7.053-8.026-2.432-.486-5.594 4.62-2.676 2.92q-2.432-.73-.243-2.92l7.053-8.026-2.675-2.675-17.512 17.269 67.13 67.129 17.511-17.512-4.621-4.378q-1.46-1.946-2.676-.73l-5.594 4.621-2.675 2.92q-2.432-.73-.243-2.92l7.053-8.026q-1.46-1.46-2.675-.73l-5.594 4.622-2.676 2.918q-2.432-.73-.243-2.918l7.053-8.027q-1.46-1.459-2.675-.73l-8.27 7.54q-1.945-.243 0-2.675l7.054-8.026-2.432-.487-5.595 4.622-2.675 2.918q-2.432-.73-.243-2.918l7.053-8.027-2.675-.73-8.27 7.54q-2.432-.73-.243-2.918l7.053-8.026q-1.459-1.46-2.432-.487l-8.27 7.54q-2.188-.73 0-2.919l6.81-8.026-2.431-.486-5.594 4.62-2.676 2.92q-2.432-.73-.243-2.92l7.053-8.026-2.675-.73-8.27 7.54q-2.432-.729-.243-2.918l7.054-8.026-2.433-.487-8.27 7.54q-2.431-.73-.242-2.919l7.053-8.026-2.432-.486-8.27 7.54q-2.432-.73-.243-2.92zm9.728-34.538q0-4.621-3.405-7.783-3.162-3.162-7.783-3.162t-7.783 3.162-3.162 7.783 3.162 7.783q3.162 3.405 7.783 3.405T86.1 35.51q3.405-3.162 3.405-7.783m1.946-13.134q5.594 5.594 5.594 13.134 0 7.783-5.594 13.377-5.35 5.351-13.134 5.351l-4.621-.73 55.698 55.698 4.378 13.864q2.189 9.972 3.891 13.134l8.27 14.836-15.08-8.026-14.593-3.648q-9.243-.973-13.62-3.405L45.968 71.507l.973 6.324q0 7.783-5.351 13.134-5.594 5.594-13.377 5.594-7.54 0-13.134-5.594-5.351-5.351-5.351-13.134 0-6.81 4.378-12.161 4.378-5.108 10.945-6.324l7.296-9.729-16.782-16.782-9.972 7.783L0 35.024 35.024 0l5.594 5.594-7.54 9.972 16.54 16.54 10.458-7.54q1.216-6.568 6.323-10.946t11.918-4.378q7.783 0 13.134 5.351"/></svg>