<?xml version="1.0" encoding="UTF-8" standalone="no"?>
<!-- Created with Inkscape (http://www.inkscape.org/) -->

<svg
   width="108.69214mm"
   height="108.20448mm"
   viewBox="0 0 108.69214 108.20448"
   version="1.1"
   id="svg1"
   xml:space="preserve"
   xmlns="http://www.w3.org/2000/svg"
   xmlns:svg="http://www.w3.org/2000/svg"><defs
     id="defs1" /><path
     id="path9"
     style="fill:#000000"
     d="m 16.199401,0.00458088 c -1.388186,0.05715 -3.161274,0.649098 -5.227071,1.77146802 -5.0642578,2.75145 -9.0174478,7.360764 -10.5502608,12.3010591 h 5.17e-4 c -0.728311,2.34735 -0.521698,3.842 0.670243,4.85138 0.744739,0.63066 0.999776,0.70012 1.939934,0.52917 0.595419,-0.10828 2.30189,-0.85894 3.792016,-1.66863 l 2.709396,-1.47226 1.7352938,1.7787 c 0.95436,0.97835 1.694244,1.90256 1.644344,2.05362 -0.05002,0.15104 -0.739469,1.24717 -1.531689,2.43603 -2.8034428,4.20697 -3.5506628,6.84745 -2.1884968,7.73234 1.2716398,0.82607 2.7934958,0.23703 6.7871828,-2.62774 l 2.506823,-1.79886 1.179773,1.22111 c 0.648568,0.67162 1.858891,1.91277 2.689758,2.75849 0.830722,0.84585 1.800355,1.84632 2.155424,2.2226 l 0.645439,0.6842 -3.127458,4.69739 c -1.720183,2.58339 -3.879092,5.95147 -4.79764,7.48481 l -1.670182,2.78795 1.308447,1.39113 c 0.719749,0.76511 1.463535,1.38734 1.652613,1.38234 0.510899,-0.0129 1.573836,-0.65626 5.167126,-3.12797 2.640002,-1.81596 3.305886,-2.16893 3.573426,-1.89291 0.180879,0.18654 1.928129,1.95141 3.88245,3.92172 1.954342,1.97029 6.999585,7.09547 11.211719,11.38949 4.212097,4.29398 8.469328,8.61244 9.459888,9.59734 0.99078,0.98471 3.22129,3.23033 4.9568,4.98988 6.08999,6.17408 6.60674,6.63037 8.44703,7.45794 1.43117,0.6436 2.14782,0.79366 3.86747,0.81236 1.16088,0.0126 2.76331,-0.14701 3.56102,-0.35502 l 1.45004,-0.37827 1.72548,1.75906 1.72496,1.75907 0.51728,-0.65991 0.51728,-0.65939 1.96835,1.78025 c 2.93184,2.65253 2.64819,2.56557 4.16151,1.28106 1.28915,-1.09425 1.93919,-1.35873 2.23862,-0.91002 0.0838,0.12558 -0.0738,0.53734 -0.34985,0.91467 -0.27606,0.37735 -0.49858,0.76592 -0.49558,0.86352 0.0144,0.41266 2.87625,3.21247 3.26957,3.19877 0.23669,-0.008 0.66396,-0.19179 0.94981,-0.40721 0.47695,-0.35953 0.63134,-0.29325 1.87431,0.80408 2.46731,2.17816 14.784424,14.404452 14.984104,14.873512 0.25948,0.60955 0.63348,0.80167 1.14049,0.58653 0.72316,-0.30687 0.4395,-0.81209 -1.46347,-2.60759 -1.01987,-0.96231 -4.31296,-4.28431 -7.317904,-7.383012 -3.00518,-3.09848 -5.89467,-6.06053 -6.42131,-6.58151 -0.80345,-0.79535 -0.90554,-1.01421 -0.63511,-1.36426 0.26563,-0.34382 0.24494,-0.44357 -0.11782,-0.56844 -0.40049,-0.13782 -0.39902,-0.18488 0.0181,-0.52038 0.42175,-0.33926 0.32292,-0.4954 -1.24024,-1.96268 -1.62113,-1.52148 -1.71989,-1.57208 -2.17816,-1.12809 -0.59477,0.57728 -0.9331,0.59827 -1.38855,0.0868 -0.30107,-0.33804 -0.1754,-0.59261 0.8351,-1.69292 0.65418,-0.71226 1.18529,-1.41258 1.18029,-1.55649 -0.005,-0.14381 -0.99162,-1.17259 -2.19264,-2.28565 -2.17233,-2.01384 -2.18103,-2.02656 -1.69395,-2.58279 0.48647,-0.55551 0.47938,-0.57048 -1.17099,-2.29185 l -1.66088,-1.73219 0.36225,-1.00614 c 0.87455,-2.42818 0.61033,-5.64519 -0.66817,-8.13542 -0.35292,-0.68743 -1.63462,-2.23648 -2.84789,-3.44268 -5.98314,-5.94729 -29.582,-29.90112 -32.433163,-32.92099 -0.81328,-0.8614 -1.481664,-1.64478 -1.484664,-1.74098 -0.0033,-0.0961 0.542244,-0.93572 1.21233,-1.86604 1.923483,-2.6705 3.315477,-4.93039 3.300577,-5.35729 -0.008,-0.21582 -0.55146,-0.96238 -1.209232,-1.65933 l -1.19631,-1.26711 -2.704744,1.38131 c -2.869412,1.4655 -7.886341,4.37909 -10.509953,6.1035 -0.868789,0.57102 -1.688918,0.96427 -1.822628,0.87437 -0.283997,-0.19102 -5.575481,-5.59094 -6.103503,-6.22856 -0.310224,-0.37463 -0.160559,-0.7003 1.112077,-2.42414 3.189428,-4.32016 3.880783,-6.133389 2.743502,-7.1938781 -0.507843,-0.473567 -0.820731,-0.540711 -1.871721,-0.402559 -1.457233,0.191542 -4.624627,1.7603741 -6.838859,3.3879071 -0.841648,0.61866 -1.616969,1.02867 -1.722375,0.91054 -0.105404,-0.11813 -0.964353,-0.98021 -1.907894,-1.91668 l -1.716175,-1.7017051 1.119312,-2.11615 c 0.615705,-1.163686 1.293992,-2.736915 1.507401,-3.496428 0.360353,-1.283871 0.354783,-1.444831 -0.08268,-2.289266 C 18.590925,0.42500388 17.587598,-0.05258212 16.199413,0.00457088 Z M 45.920584,31.900828 c 4.433672,4.43449 11.401372,11.63598 11.401372,11.63598 0.66354,0.67189 4.22108,4.26114 7.90598,7.97574 3.68493,3.71462 7.03641,7.12628 7.4476,7.58145 l 0.74776,0.82734 -5.51801,5.58881 c -3.03467,3.07397 -8.47379,8.14373 -8.58604,8.19123 -2.04624,-2.07814 -24.459165,-25.88659 -26.853138,-28.39879 0.218167,-0.94627 13.181024,-13.25172 13.454476,-13.40176 z m 9.376692,12.30054 c -0.73849,0.0263 -1.50442,0.571 -2.53732,1.66191 l -1.53685,1.62264 -1.645898,-1.51153 c -2.28171,-2.09562 -3.818961,-2.02782 -5.24154,0.23151 -0.425169,0.67531 -0.768261,1.35217 -0.763261,1.50482 0.02253,0.64659 0.899111,1.78188 2.22157,2.87682 l 1.415934,1.17254 -1.522904,1.67328 c -0.837797,0.92026 -1.515912,1.89879 -1.505852,2.17455 0.0096,0.27579 0.704899,1.12932 1.544092,1.89807 1.448455,1.32554 1.575988,1.37445 2.491838,0.95705 0.53091,-0.24191 1.369649,-0.89252 1.863971,-1.44591 0.49431,-0.55337 1.07079,-1.01157 1.28157,-1.01957 0.21087,-0.007 0.94707,0.55467 1.63608,1.24902 1.55601,1.56821 2.30712,1.79101 3.59565,1.0666 1.00075,-0.56258 2.24693,-2.34363 2.22053,-3.17293 -0.008,-0.23645 -0.71235,-1.12594 -1.56579,-1.97766 -0.85392,-0.85126 -1.55557,-1.61971 -1.55857,-1.70791 -0.003,-0.0881 0.64453,-0.86658 1.43816,-1.73064 1.77284,-1.92842 1.81832,-2.82416 0.22324,-4.40128 -0.77305,-0.76438 -1.40305,-1.14461 -2.05465,-1.12138 z" /></svg>
