<svg xmlns="http://www.w3.org/2000/svg" xml:space="preserve" width="485.954" height="398.425" viewBox="0 0 128.575 105.417"><path d="M41.106.01c-4.467-.234-8.968 3.487-8.52 8.231.287 4.648-.193 8.88-1.834 12.519l-8.797.111c-4.412.707-10.276-1.412-13.663 1.738-1.293 7.005-1.924 14.113-2.838 21.174-1.17 1.188-6.592 1.269-5.239 4.786l2.896 14.297-.003 25.867c1.088 5.179-2.482 13.288 3.147 16.308 34.276.342 68.561.226 102.84.182 6.237.683 14.604-.093 15.17-8.131.477-10.991.17-22.002.325-33.002l3.923-12.662c.111-2.984.517-7.863-3.854-6.988l-1.005-9.202c-1.067-4.498.048-10.292-2.788-13.926-5.476-.78-11.059-.293-16.584-.42-2.372.049-4.991.568-5.064-2.165-1.635-.517-.419-3.657-.892-5.243C99.156 7.337 95.74.242 88.787.255 73.198-.22 57.593.142 41.997.111a8 8 0 0 0-.891-.1M75.704.88c4.932-.024 9.857.067 14.742.655 3.747 2.074 1.224 1.842-.936.44l-28.47-.083c-7.849.278-15.86-.706-23.602.726-5.496 4.004-2.308 11.921-3.732 17.68-3.554 1.514.632-5.12-.63-7.292-.161-4.512-.022-10.516 5.312-11.953 7.45-.319 15.027-.044 22.526-.136 4.917.126 9.857-.013 14.79-.037m10.734 4.335c1.87.043 3.637.424 5.038 1.946 3.063 3.985 2.102 9.805.366 13.313l-.85.225c-14.213.364-28.437.145-42.655.158-3.806-.133-9.585.809-10.61-2.83.23-4.429-.8-10.73 4.583-12.373 12.815-.51 25.657-.233 38.485-.36 1.805.173 3.775-.122 5.643-.079m5.91.847c4.032 3.363 2.612 9.791 2.539 14.405-5.252.047.138-1.24-.75-3.478 0-3.712-.24-8.034-1.789-10.927m-3.91 19.969c9.462-.018 18.922.024 28.37.34 1.946 5.172 1.59 11.026 2.441 16.487l.128.93-109.238.152c.441-6.002 1.022-12.137 2.746-17.888h47.169c9.457.075 18.922-.004 28.384-.021m7.179 5.538a5 5 0 0 0-2.24.49c-6.025 1.25-5.276 9.378.618 10.183 1.206.429 2.514-.017 3.632-.486 6.361-1.907 3.025-10.08-2.01-10.187m-60.015.035c-6.305-.535-7.74 9.938-.978 10.824 7.217 1.028 7.932-10.123.978-10.824m60.12 2.768c1.86.147 3.404 1.466 1.639 4.26-.99 1.176-2.844 1.261-4.026.34-2.923-3.041-.006-4.79 2.386-4.6m-60.087.292c2.056.153 3.959 1.79 1.31 4.598-.995 1.077-2.616.628-3.54-.281-2.036-3.135.174-4.47 2.23-4.317m88.992 12.46c1.225-.12 2.874.51 2.297 2.245.093 2.464-1.384 1.255-2.053.018-2.27-1.27-1.47-2.142-.244-2.263M4.399 47.13c1.431-.198 2.44 1.621.31 3.33-1.208 2.49-2.485-1.21-1.782-2.38.47-.593.994-.883 1.472-.95m105.465 4.984 5.653 5.653-5.653 5.652-5.652-5.652zm-17.69.445 5.652 5.652-5.652 5.653-5.653-5.653zm-55.67.144 5.653 5.653-5.653 5.652-5.653-5.652zm-17.69.444 5.652 5.653-5.653 5.652-5.652-5.652zm82.317 7.701 5.652 5.653-5.652 5.653-5.654-5.653zm-73.36.589 5.652 5.652-5.653 5.653-5.653-5.653zm82.316 7.628 5.653 5.652-5.653 5.653-5.653-5.653zm-17.987.073 5.652 5.653-5.652 5.653-5.653-5.653zm-55.374.515 5.653 5.653-5.653 5.652-5.653-5.652zm-17.987.074 5.653 5.653-5.653 5.653-5.653-5.653zm82.29 7.655 5.653 5.653-5.653 5.653-5.653-5.653zm-73.36.589 5.652 5.652-5.653 5.653-5.652-5.653zm64.579 8.044 5.653 5.653-5.653 5.653-5.653-5.653zm18.06.148 5.653 5.653-5.652 5.652-5.653-5.652zm-91.42.441 5.652 5.652-5.652 5.653-5.653-5.653zm18.06.148 5.653 5.652-5.653 5.653-5.652-5.653z"/></svg>