<svg xmlns="http://www.w3.org/2000/svg" xml:space="preserve" width="183.577" height="121.913" viewBox="0 0 48.571 32.256"><path d="m25.37 22.228-.822-.6q-1.647.824-2.32.6l-1.198-1.871-.748-1.797-1.048-.074q-.973-.075-1.197.374-.225.748.523 2.47.749 2.02 2.32 2.095l3.368-.449zm-.45-19.609 6.138-.523 7.783.898 5.987 1.571q3.218.749 3.742 1.347l-2.095 1.422-1.497.524.674.599q-2.92 2.395-6.512 2.694l-2.694.075-2.395.374-1.422 1.123-.598.973-1.198.15q-1.272.299-1.946 1.421-.524.824 1.198 2.844l3.517 4.266 2.47 4.042q.823 1.87.898 3.966.075 1.647-1.946 1.871l-2.095-.15-2.02-.224q-2.321-.524-3.22-1.572-.822-.823-.673-2.694l.225-2.32q-.075-1.497-.524-1.871l-.524-.075-3.218 1.048q-3.592.674-4.64-1.572-.898-1.571-2.245-2.694l-1.796-1.197-1.722.224-1.272.674-1.422-1.347-1.123-1.198-4.19-2.32Q.298 12.348 0 11.301q.449-1.048 5.164-3.218l4.64-1.946 1.198-.823 3.143-1.497 3.218-.599 1.347.075.748-.674 1.871-1.422Q22.527.374 24.25 0l2.17.3q.224.448-1.273 1.571l-.673.674z"/></svg>