<svg xmlns="http://www.w3.org/2000/svg" xmlns:ffdec="https://www.free-decompiler.com/flash" ffdec:objectType="shape" width="22.95" height="25.15"><path d="M13.45 4.95h-.15l-.05-.15-.9-.05V9.6l.7.6.5.1V4.95zM21.8 1.1l.05 2.2H17.1l.15-2.1 1.1-.3L19.4.8l1.3.05zm.75 13.6v.6h-.35v.1h-9v.1l-.7.7-.25-.05h-.4v.8h.8l.2.2.4-.05.15-.05h.65v-.75h-.15l-.3-.7h4.1l-.35.7h-.15v.75h.45l.05.6-.4.25-4.5-.05v.2l-.7.45H12l-.25.05v.05h-.5v-.05l-.3-.05h-.05l-.7-.45v-.2l-4.55.05-.35-.25v-.6h.45v-.75H5.6l-.35-.7h4.1l-.3.7h-.1v.75h.65l.15.05H9.7l.4.05.2-.2h.8v-.8h-.35l-.3.05-.7-.7v-.1h-9v-.1h-.3v-.6H.5v-.05h.25L.5 5.05H.45L.3 5l-.05-.15.05-1.2H9l.05-.05h2.1v-.45h.65v.45h2.15v.05h8.75v1.2l-.05.15-.1.05h-.05l-.3 9.6h.3v.05zm-9.6-2.4-.6.6v1l.2-.05h.05l.75.8.05.05h.05l.05.05.05-.05v-2.45zm.55 8.1v-1.7l.55-.6h3.15l.5.6v1.7zm4.55.35v.1L18.5 22l.1 1.5-1.75.3h-2.9l-.95-.15h-.05l-.35-.4-.05-.1.05-.1v-.5l.5-1.25.3-.45.1-.1zM1.15 1.1l1.1-.25L3.55.8l1.1.1 1.1.3.15 2.1H1.1zM9.5 4.95h-.1v5.35l.5-.1.7-.6V4.75l-.9.05-.05.15zm.55 7.35-.65-.05v2.45l.05.05h.05v-.05h.1l.05-.05.7-.8h.1l.15.05v-1zm-5.1 8.45H9.5l.1.1.25.45.5 1.25.05.35v.15l.05.1-.05.1-.35.4H10l-1 .15H6.1l-1.7-.3.05-1.5h.05l.4-1.15v-.05zm4.5-.35h-4.2v-1.7l.5-.6h3.2l.5.6z"/></svg>