<?xml version="1.0" encoding="UTF-8" standalone="no"?>
<svg
   ffdec:objectType="shape"
   height="25.15px"
   width="22.95px"
   version="1.1"
   id="svg2"
   sodipodi:docname="252.svg"
   inkscape:version="1.3.2 (091e20e, 2023-11-25)"
   xmlns:inkscape="http://www.inkscape.org/namespaces/inkscape"
   xmlns:sodipodi="http://sodipodi.sourceforge.net/DTD/sodipodi-0.dtd"
   xmlns="http://www.w3.org/2000/svg"
   xmlns:svg="http://www.w3.org/2000/svg"
   xmlns:ffdec="https://www.free-decompiler.com/flash">
  <g transform="matrix(1.0, 0.0, 0.0, 1.0, 11.5, 12.45)">
    <path d="M1.95 -7.5 L1.8 -7.5 1.75 -7.65 0.85 -7.7 0.85 -2.85 1.55 -2.25 2.05 -2.15 2.05 -7.5 1.95 -7.5 M10.3 -11.35 L10.35 -9.15 5.6 -9.15 5.75 -11.25 6.85 -11.55 7.9 -11.65 9.2 -11.6 10.3 -11.35 M11.05 2.25 L11.05 2.85 10.7 2.85 10.7 2.95 1.7 2.95 1.7 3.05 1.0 3.75 0.75 3.7 0.35 3.7 0.35 4.5 1.15 4.5 1.35 4.7 1.75 4.65 1.9 4.6 2.55 4.6 2.55 3.85 2.4 3.85 2.1 3.15 6.2 3.15 5.85 3.85 5.7 3.85 5.7 4.6 6.15 4.6 6.2 5.2 5.8 5.45 1.3 5.4 1.3 5.6 0.6 6.05 0.5 6.05 0.25 6.1 0.25 6.15 -0.25 6.15 -0.25 6.1 -0.55 6.05 -0.6 6.05 -1.3 5.6 -1.3 5.4 -5.85 5.45 -6.2 5.2 -6.2 4.6 -5.75 4.6 -5.75 3.85 -5.9 3.85 -6.25 3.15 -2.15 3.15 -2.45 3.85 -2.55 3.85 -2.55 4.6 -1.9 4.6 -1.75 4.65 -1.8 4.65 -1.4 4.7 -1.2 4.5 -0.4 4.5 -0.4 3.7 -0.75 3.7 -1.05 3.75 -1.75 3.05 -1.75 2.95 -10.75 2.95 -10.75 2.85 -11.05 2.85 -11.05 2.25 -11.0 2.25 -11.0 2.2 -10.75 2.2 -11.0 -7.4 -11.05 -7.4 -11.2 -7.45 -11.25 -7.6 -11.2 -8.8 -2.5 -8.8 -2.45 -8.85 -0.35 -8.85 -0.35 -9.3 0.3 -9.3 0.3 -8.85 2.45 -8.85 2.45 -8.8 11.2 -8.8 11.2 -7.6 11.15 -7.45 11.05 -7.4 11.0 -7.4 10.7 2.2 11.0 2.2 11.0 2.25 11.05 2.25 M1.45 -0.15 L0.85 0.45 0.85 1.45 1.05 1.4 1.1 1.4 1.85 2.2 1.9 2.25 1.95 2.25 2.0 2.3 2.05 2.25 2.05 -0.2 1.45 -0.15 M2.0 7.95 L2.0 6.25 2.55 5.65 5.7 5.65 6.2 6.25 6.2 7.95 2.0 7.95 M6.55 8.3 L6.55 8.4 7.0 9.55 7.1 11.05 5.35 11.35 2.45 11.35 1.5 11.2 1.45 11.2 1.1 10.8 1.05 10.7 1.1 10.6 1.1 10.45 1.1 10.1 1.6 8.85 1.9 8.4 2.0 8.3 6.55 8.3 M-10.35 -11.35 L-9.25 -11.6 -7.95 -11.65 -6.85 -11.55 -5.75 -11.25 -5.6 -9.15 -10.4 -9.15 -10.35 -11.35 M-2.0 -7.5 L-2.1 -7.5 -2.1 -2.15 -1.6 -2.25 -0.9 -2.85 -0.9 -7.7 -1.8 -7.65 -1.85 -7.5 -2.0 -7.5 M-1.45 -0.15 L-2.1 -0.2 -2.1 2.25 -2.05 2.3 -2.0 2.3 -2.0 2.25 -1.9 2.25 -1.85 2.2 -1.15 1.4 -1.05 1.4 -0.9 1.45 -0.9 0.45 -1.45 -0.15 M-6.55 8.3 L-2.0 8.3 -1.9 8.4 -1.65 8.85 -1.15 10.1 -1.1 10.45 -1.1 10.6 -1.05 10.7 -1.1 10.8 -1.45 11.2 -1.5 11.2 -2.5 11.35 -5.4 11.35 -7.1 11.05 -7.05 9.55 -7.0 9.55 -6.6 8.4 -6.6 8.35 -6.55 8.3 M-2.05 7.95 L-6.25 7.95 -6.25 6.25 -5.75 5.65 -2.55 5.65 -2.05 6.25 -2.05 7.95" />
  </g>
</svg>
