<svg xmlns="http://www.w3.org/2000/svg" xml:space="preserve" width="300.742" height="298.655" viewBox="0 0 79.571 79.019"><path d="m41.939 9.361 9.455-2.153L74.89 4.493l-.187-.748q-.094-1.03.655-1.78.655-.654 1.685-.56 1.123 0 1.779.655l.748 1.872q0 .936-.655 1.591-.468.468-.936.562v.374l-2.34.468-31.548 31.548-.936-.936 30.33-30.33L64.5 8.331 51.487 12.17l-2.153-3.651-6.74 2.434zm-8.987 22.655-1.498.187-.936 1.123-2.153 4.4q-.843 1.217-3.464 2.902l-3.37 2.809-2.153 2.153 1.966 1.966-.094 1.966-2.34.093-6.085 10.953 1.03.468q.655.655.655 1.404l-.468 1.217-1.31.562q-.843.093-1.498-.562l-.375-.936-.468-.094-.094-.468 7.115-12.357-4.4.281-3.089-2.34 3.09-6.647 2.808.375.468.468 1.872-1.872q4.587-2.902 11.14-10.392l.936-.936.936-.561 1.31-1.124 7.677-7.863.936-1.31.188-.937.748-.749v-.187l.656-.468-.843-.655-.374-2.247 6.74-2.996 2.34 2.902-.28 4.213 12.076-6.928.28-.187h.188l.093.094.562-.187q.842.093 1.31.561l.656 1.404-.562 1.311-1.31.562q-.75 0-1.405-.656l-.468-.842-11.608 6.553-.093 1.966-2.528-.281-1.31-1.123-5.243 6.365-5.617 6.179-1.123.749zM53.64 52.704l6.272-.655 1.966 1.966-6.085.094 1.591 1.591 6.085-.094 1.685 1.685h-6.179l1.686 1.685h5.99l1.967 1.966-6.085-.093 1.404 1.217-1.779 1.591-1.404-1.217v5.991l-1.591-1.591-.188-6.366-1.59-1.591v6.085l-1.592-1.498v-6.366l-1.592-1.591v6.366l-2.06-2.06.656-6.272-16.195-16.195 1.123-.562zM48.117 18.91l.188-.562-.188-.561-.561-.188-.468.281-.281.468q0 .187.28.468l.469.281zm-3.931-4.494.093-.468-.093-.468-.656-.28-.374.187-.281.468.28.655.469.094zM2.808 9.923 0 0l9.736 2.808-.562 5.43 16.944 16.757-.936 1.123L8.332 9.081zM9.83 41.471l1.685.561-2.433 6.74 3.557 2.247-3.745 12.919-1.217 9.08L37.82 42.876l.936.936-31.36 31.36-.375 2.247h-.374l-.562.936q-.655.656-1.592.656-1.03.093-1.872-.75l-.655-1.778q-.094-1.03.562-1.685.655-.655 1.685-.562l.749.188 2.808-23.59zm8.8 6.927.186-.562-.28-.468q-.281-.28-.469-.28l-.468.28-.28.468.28.469.468.28zm-4.025-4.4.28-.655-.28-.28-.468-.469-.562.375-.28.468.467.468.281.28z"/></svg>