<svg xmlns="http://www.w3.org/2000/svg" xml:space="preserve" width="312.52" height="157.475" viewBox="0 0 82.688 41.665"><path d="M13.174 9.747v3.106l21.743-.214 1.179-.107-.643-.857-.214-.857V9.533zm55.161 6.748h-1.82l-3.964 8.14.215.428 5.57-4.284zM62.657 0q.643 0 .964.428l7.605 7.498h7.926V2.463h3.535l-.322 14.032H71.12l-.107 5.034-.536.964-14.352 11.032-.857.214-.964-.535-.107-.108-10.068 8.248-.964.321q-.322 0-.857-.428l-8.89-10.818-.214-.964.428-.75 9.211-7.712-4.82-6.105-15.959.428-16.601.108H2.356L1.5 14.78l-.536-.964.643-.857.964-.321 8.247.214V9.961l-1.071.643-4.713-.429L0 9.211V5.57l5.034-.857 4.713-.322.857.322.428.964L35.24 5.57V2.463l.535-.963.964-.429.857.429.428.963V5.57l5.891.107v-.964q0-1.071.75-1.607.536-.75 1.393-.75l6.962.107v-1.07L53.554.32 54.411 0zM61.48 3.427l.322 1.286v3.963l1.82 2.785 5.998.214-7.39-9.104h-1.714z"/></svg>