<svg xmlns="http://www.w3.org/2000/svg" xml:space="preserve" width="469.199" height="146.387" viewBox="0 0 124.142 38.732"><path d="m70.193 4.06-1.16-.724h-51.34l-1.305.725-.58 1.595v5.366l.58 1.305 1.305.725h.435V7.106l.58-1.595q.435-1.015 1.306-1.015h1.305l1.305 1.015.29 1.595v5.946h4.06V7.106l.58-1.595 1.306-1.015h1.305l1.45 1.015.436 1.595v5.946h3.915V7.106l.58-1.595 1.16-1.015h1.451l1.16 1.015.58 1.595v5.946h3.916V7.106l.58-1.595 1.305-1.015h1.306l1.305 1.015.58 1.595v5.946h3.916V7.106l.435-1.595q.435-1.015 1.305-1.015h1.45l1.16 1.015.58 1.595v5.946h3.916V7.106l.29-1.595 1.596-1.015h1.16l1.45 1.015.58 1.595v5.946h1.305q.725 0 1.16-.725l.726-1.305V5.656zM88.176.87l.58 1.45v3.335q2.32 0 4.206 1.885 1.595 2.32 1.885 5.076h11.457l.87.435.725 1.306h10.442l.145-2.901.58-1.16q.145-.435.725-.435l1.16.435.29 1.16.58 16.388 2.031 3.77.29 1.16-.435.871-1.16.435-.87-.435-10.007-11.747H94.267q-.58 0-1.015-.435l-.29-1.16.725-1.306h-1.015q-1.886 1.74-4.061 1.74h-.29q-1.596 2.176-1.305 3.336l3.48 5.656q2.61 5.076 1.45 7.107-1.305 2.03-3.335 1.885l-2.176-.725-4.785-10.732-15.083-.435v2.755l-.58 1.74-1.16.436H58.88l-1.16-.435-.58-1.74V26.25h-2.756v2.755l-.58 1.595-1.306 1.016H36.692L35.386 30.6l-.58-1.595V26.25H23.93v4.205l-.435 1.596-1.305.725H10.732l-1.305-.725-.58-1.596V20.74q0-1.306 1.16-2.03l-.145-.436v-4.786H1.74l-1.305-.725L0 11.457V3.916L.435 2.32l1.305-.58h8.267l.725-1.305L11.892 0h74.979z"/></svg>