<svg xmlns="http://www.w3.org/2000/svg" xmlns:xlink="http://www.w3.org/1999/xlink" width="128pt" height="132pt" viewBox="0 0 128 132" version="1.1">
<g id="surface1">
<path d="M 110.394531 16.441406 L 100.792969 16.441406 L 105.136719 43.621094 L 60.800781 43.621094 L 62.855469 32.429688 L 50.058594 32.65625 C 50.363281 39.8125 48.917969 45.597656 45.71875 50.015625 C 42.972656 53.820312 38.707031 56.863281 32.917969 59.148438 C 30.785156 67.828125 29.566406 78.105469 29.261719 89.980469 L 28.578125 95.230469 L 26.289062 98.199219 L 23.777344 97.972656 L 21.71875 96.832031 L 21.035156 92.949219 L 21.261719 87.695312 C 21.261719 80.082031 21.871094 70.949219 23.089844 60.289062 L 20.121094 59.378906 L 17.148438 58.691406 C 12.121094 57.015625 8.082031 53.972656 5.035156 49.558594 C 1.683594 44.53125 0.3125 38.824219 0.921875 32.429688 C 1.53125 26.492188 4.121094 21.390625 8.695312 17.128906 C 13.417969 12.863281 18.976562 10.65625 25.375 10.503906 C 31.777344 10.503906 37.183594 12.5625 41.601562 16.671875 C 43.277344 15.453125 45.488281 13.703125 48.230469 11.417969 L 55.316406 5.253906 L 59.886719 1.597656 L 65.828125 0 L 102.625 0 C 105.214844 0 107.042969 0.53125 108.109375 1.597656 C 109.328125 2.96875 110.089844 5.785156 110.394531 10.046875 L 110.394531 16.441406 M 97.367188 49.101562 C 99.652344 55.34375 101.101562 62.652344 101.710938 71.023438 L 64.914062 71.023438 C 65.675781 61.128906 67.199219 53.820312 69.484375 49.101562 L 97.367188 49.101562 M 112.449219 49.101562 C 115.191406 49.558594 117.25 50.699219 118.621094 52.527344 L 122.964844 60.976562 L 125.933594 71.023438 L 106.964844 71.023438 C 106.507812 63.410156 105.0625 56.179688 102.625 49.328125 L 102.851562 49.101562 L 112.449219 49.101562 M 106.964844 76.277344 L 126.390625 76.277344 C 127.457031 82.0625 126.695312 89.371094 124.105469 98.199219 L 106.28125 98.199219 L 107.421875 87.46875 L 106.964844 76.277344 M 121.820312 103.683594 C 116.640625 116.167969 107.957031 124.617188 95.765625 129.03125 L 101.480469 117.15625 L 105.59375 103.683594 L 121.820312 103.683594 M 102.167969 87.46875 L 101.710938 98.199219 L 65.371094 98.199219 L 64.230469 87.46875 L 64.457031 76.277344 L 102.167969 76.277344 L 102.167969 87.46875 M 71.3125 120.125 C 69.332031 116.167969 67.582031 110.914062 66.058594 104.367188 L 65.828125 103.910156 L 66.058594 103.683594 L 100.109375 103.683594 L 95.082031 120.125 C 91.121094 128.042969 86.625 131.695312 81.597656 131.085938 C 77.941406 130.628906 74.511719 126.976562 71.3125 120.125 M 14.863281 23.523438 C 11.96875 26.261719 10.292969 29.613281 9.835938 33.570312 C 9.378906 38.289062 10.523438 42.25 13.265625 45.445312 C 16.007812 48.492188 19.738281 50.394531 24.460938 51.15625 L 27.890625 37.683594 C 29.414062 32.960938 31.242188 29.230469 33.375 26.492188 L 37.261719 32.199219 L 41.144531 37.683594 C 41.449219 32.199219 40.003906 27.710938 36.804688 24.207031 C 33.757812 21.011719 29.796875 19.488281 24.917969 19.640625 C 21.261719 19.792969 17.910156 21.085938 14.863281 23.523438 M 58.285156 49.101562 L 63.542969 49.101562 C 60.953125 56.710938 59.503906 64.019531 59.199219 71.023438 L 40.6875 71.023438 C 41.296875 66.914062 42.898438 62.195312 45.488281 56.863281 L 48.6875 52.070312 C 49.90625 50.394531 51.507812 49.40625 53.488281 49.101562 L 58.285156 49.101562 M 39.316406 87.695312 C 38.859375 83.28125 39.011719 79.472656 39.773438 76.277344 L 58.285156 76.277344 L 59.65625 98.199219 L 41.601562 98.199219 L 39.316406 87.695312 M 60.113281 103.683594 C 61.484375 112.511719 64.761719 120.960938 69.941406 129.03125 C 58.210938 124.921875 49.375 116.46875 43.429688 103.683594 L 60.113281 103.683594 "/>
</g>
</svg>