<svg xmlns="http://www.w3.org/2000/svg" xml:space="preserve" width="425.381" height="124.924" viewBox="0 0 112.549 33.053"><path d="M21.211 4.555v1.561h5.596v-.91h2.212v-.651zm48.018 10.15h-2.603l-4.424 8.458q-4.034 5.856-9.5 9.89h-1.04l-.521-.26-3.644-5.726-.39-.26.39-.911 6.767-6.637q2.733-3.904 4.424-8.458l-7.157-.65q-1.952 1.04-3.253 1.04l-2.473-.52-3.123-1.302H29.93l-.911-.26-.26-.91h-1.952v-.131H20.56l-.65 1.301h-1.041l-.65-.65-3.254-.26v-.391H.91l-.78-.13L0 7.158l.13-.652.78-.39h.521V1.301l.52-1.04L2.734 0h.91q.651 0 3.514 6.116h7.808v-.26l.91-.26q1.042-.39 1.302-.911l.65-1.432.781-1.04h1.302l.52-.13h8.85l.26-.782 5.204-.26 7.548-.26 2.863.52.39-1.04.781-.261h5.856l.78.26.391 1.041v.26l29.019-.13 3.774 4.165 7.287-.911 2.993.13 2.993.39 12.492 1.692q.911.65.52 2.472l-1.821 10.02q0 2.343-1.562 1.952l-9.369-3.513-13.533-6.377h-1.822l-.13 1.172q-.13 1.17.13 1.431l4.034 6.376-.26.911-1.302 1.822-2.602.39-1.822-.39-.26-.78V21.6l-4.425-7.027h-1.431v-2.212l-1.822 1.952-1.041.39-.65-.39 1.17-1.301-.26-1.692H69.23z"/></svg>