<svg xmlns="http://www.w3.org/2000/svg" width="128pt" height="127pt" viewBox="0 0 128 127"><path d="m80.934 19.016-11.215-.438q-2.86 2.844.437 11.149 3.739 7.436 12.094 15.738 7.916 8.09 15.832 11.805l10.777.437q3.3-3.276-.222-10.93-3.517-8.084-11.653-16.175-8.356-8.087-16.05-11.586m-63.332 15.52q-6.154-14.207-4.836-24.263L3.75 26.012Q.012 36.067 9.246 53.992c6.305 12.094 15.54 24.192 27.707 36.285q18.03 17.926 36.504 27.325 18.03 9.398 27.926 5.683l14.953-8.965c-6.598 1.024-14.441-.582-23.531-4.808-6.89-3.059-14.07-7.36-21.547-12.895l-21.77-18.582-18.691-21.64q-8.578-11.367-13.195-21.86m49.257-3.496Q64 25.14 64.88 20.984q.22-3.058 2.2-5.027 1.1-1.312 2.64-1.75Q62.24 9.62 55.426 8.742 43.33 2.185 34.094 1.094 24.419 0 20.024 4.37q-6.598 6.557 1.097 24.047Q29.7 50.057 54.766 74.977q23.525 23.389 45.738 31.257 11.43 4.155 18.25 3.715c1.465-.144 3.078-1.094 4.836-2.84q4.4-4.372 2.86-14.21-.88-9.178-7.477-20.985c-.442-4.371-2.344-9.105-5.72-14.207l-1.538 2.625c-1.317 1.309-3.004 2.113-5.055 2.402q-4.177.438-10.117-2.183-8.574-3.937-17.152-12.461-8.795-8.743-12.532-17.05"/></svg>