<svg xmlns="http://www.w3.org/2000/svg" xmlns:xlink="http://www.w3.org/1999/xlink" width="128pt" height="127pt" viewBox="0 0 128 127" version="1.1">
<g id="surface1">
<path d="M 80.933594 19.015625 L 69.71875 18.578125 C 67.8125 20.472656 67.957031 24.191406 70.15625 29.726562 C 72.648438 34.683594 76.679688 39.929688 82.25 45.464844 C 87.527344 50.859375 92.804688 54.792969 98.082031 57.269531 L 108.859375 57.707031 C 111.058594 55.523438 110.984375 51.878906 108.636719 46.777344 C 106.292969 41.386719 102.40625 35.996094 96.984375 30.601562 C 91.414062 25.210938 86.0625 21.347656 80.933594 19.015625 M 17.601562 34.535156 C 13.5 25.066406 11.886719 16.976562 12.765625 10.273438 L 3.75 26.011719 C 1.257812 32.714844 3.089844 42.042969 9.246094 53.992188 C 15.550781 66.085938 24.785156 78.183594 36.953125 90.277344 C 48.972656 102.226562 61.140625 111.335938 73.457031 117.601562 C 85.476562 123.867188 94.785156 125.761719 101.382812 123.285156 L 116.335938 114.320312 C 109.738281 115.34375 101.894531 113.738281 92.804688 109.511719 C 85.914062 106.453125 78.734375 102.152344 71.257812 96.617188 L 49.488281 78.035156 L 30.796875 56.394531 C 25.078125 48.816406 20.679688 41.53125 17.601562 34.535156 M 66.859375 31.039062 C 64.953125 27.105469 64.292969 23.753906 64.878906 20.984375 C 65.027344 18.945312 65.757812 17.269531 67.078125 15.957031 C 67.8125 15.082031 68.691406 14.5 69.71875 14.207031 C 64.734375 11.148438 59.96875 9.328125 55.425781 8.742188 C 47.363281 4.371094 40.25 1.820312 34.09375 1.09375 C 27.644531 0.363281 22.953125 1.457031 20.023438 4.371094 C 15.625 8.742188 15.992188 16.757812 21.121094 28.417969 C 26.839844 42.84375 38.054688 58.363281 54.765625 74.976562 C 70.449219 90.570312 85.695312 100.988281 100.503906 106.234375 C 108.125 109.003906 114.207031 110.242188 118.753906 109.949219 C 120.21875 109.804688 121.832031 108.855469 123.589844 107.109375 C 126.523438 104.195312 127.476562 99.457031 126.449219 92.898438 C 125.863281 86.78125 123.371094 79.785156 118.972656 71.914062 C 118.53125 67.542969 116.628906 62.808594 113.253906 57.707031 L 111.714844 60.332031 C 110.398438 61.640625 108.710938 62.445312 106.660156 62.734375 C 103.875 63.027344 100.503906 62.296875 96.542969 60.550781 C 90.828125 57.925781 85.109375 53.773438 79.390625 48.089844 C 73.527344 42.261719 69.351562 36.578125 66.859375 31.039062 "/>
</g>
</svg>