<svg xmlns="http://www.w3.org/2000/svg" xmlns:xlink="http://www.w3.org/1999/xlink" width="127pt" height="115pt" viewBox="0 0 127 115" version="1.1">
<g id="surface1">
<path d="M 32.746094 96.054688 C 32.597656 98.132812 33.335938 99.839844 34.957031 101.179688 C 37.023438 102.515625 40.195312 103.480469 44.472656 104.074219 L 48.675781 104.296875 L 70.136719 98.058594 L 69.472656 97.613281 L 64.386719 91.820312 L 44.695312 96.945312 L 44.472656 97.390625 L 32.746094 96.054688 M 40.710938 82.011719 L 40.710938 81.789062 L 20.355469 80.007812 L 20.132812 80.675781 C 19.839844 84.539062 24.410156 86.992188 33.851562 88.03125 L 43.585938 89.144531 L 68.808594 81.789062 C 67.1875 79.414062 65.121094 77.480469 62.613281 75.996094 L 40.933594 81.789062 L 40.710938 82.011719 M 58.191406 61.734375 L 55.976562 60.84375 L 34.738281 66.414062 L 34.515625 66.636719 L 27.433594 65.746094 C 21.09375 65.003906 16.152344 63.738281 12.613281 61.957031 L 11.0625 64.410156 C 10.769531 66.339844 11.800781 67.972656 14.160156 69.3125 L 25.886719 72.207031 L 39.824219 73.992188 L 64.605469 67.082031 L 58.191406 61.734375 M 17.257812 36.328125 L 17.480469 35.660156 L 22.125 29.867188 L 20.578125 30.089844 C 13.644531 32.019531 9.882812 35.289062 9.292969 39.894531 C 8.851562 44.351562 10.25 48.289062 13.496094 51.707031 C 16.445312 55.121094 20.578125 57.128906 25.886719 57.722656 L 33.628906 58.390625 L 57.304688 51.707031 L 57.304688 50.589844 C 54.648438 47.324219 51.183594 45.316406 46.90625 44.574219 L 42.703125 44.128906 L 40.046875 44.351562 L 39.382812 44.574219 L 30.089844 46.582031 L 29.648438 46.582031 L 22.566406 43.460938 L 22.125 43.238281 L 19.027344 38.113281 L 17.480469 36.996094 L 17.257812 36.328125 M 76.554688 0.00390625 L 76.773438 0.00390625 C 81.496094 0.597656 87.46875 5.054688 94.695312 13.375 L 109.300781 32.539062 L 111.511719 36.105469 C 112.988281 37.296875 115.347656 38.039062 118.59375 38.335938 L 126.113281 39.226562 L 127 40.117188 L 127 46.804688 L 126.777344 47.472656 C 126.632812 47.769531 126.335938 47.917969 125.894531 47.917969 C 116.601562 46.730469 110.699219 45.464844 108.195312 44.128906 L 105.757812 41.675781 L 100.007812 33.878906 L 87.839844 17.609375 C 82.824219 11.519531 79.355469 8.25 77.4375 7.804688 L 44.25 15.160156 L 28.984375 34.546875 L 29.871094 34.992188 L 31.640625 36.328125 L 34.957031 36.996094 L 42.039062 35.882812 L 46.683594 34.546875 L 50.667969 32.316406 L 53.542969 29.644531 L 57.082031 26.300781 L 63.941406 23.851562 L 64.164062 23.851562 L 64.828125 24.519531 C 69.253906 32.242188 75.078125 38.558594 82.304688 43.460938 L 84.078125 44.796875 L 84.742188 45.464844 L 84.296875 46.132812 L 80.757812 50.816406 C 80.460938 51.113281 80.167969 51.261719 79.871094 51.261719 L 79.210938 51.039062 L 76.773438 49.476562 C 70.285156 45.167969 65.046875 39.820312 61.066406 33.433594 L 59.074219 35.882812 L 59.296875 41.230469 C 63.722656 44.351562 67.113281 49.105469 69.472656 55.496094 L 69.472656 56.164062 L 68.808594 56.832031 L 66.375 57.722656 C 70.800781 60.695312 74.121094 65.078125 76.332031 70.871094 L 76.332031 71.984375 L 75.667969 72.652344 L 72.128906 73.324219 C 75.667969 76.292969 78.691406 80.378906 81.199219 85.578125 L 81.199219 86.46875 L 80.316406 87.140625 L 73.675781 89.367188 C 77.21875 92.636719 80.09375 96.796875 82.304688 101.847656 L 81.863281 102.738281 L 81.421875 103.183594 L 68.367188 107.195312 L 75.667969 107.863281 C 87.765625 103.109375 97.941406 96.871094 106.203125 89.144531 L 107.085938 88.921875 L 124.789062 90.703125 L 125.007812 90.703125 L 125.453125 90.480469 L 125.894531 90.257812 L 126.558594 90.480469 L 127 91.375 L 127 99.394531 L 126.558594 100.289062 L 125.894531 100.511719 L 125.453125 100.289062 L 123.679688 98.726562 L 109.519531 97.390625 C 99.34375 105.859375 88.722656 111.726562 77.660156 114.996094 L 77.4375 114.996094 L 69.695312 114.773438 L 59.515625 112.542969 L 48.675781 112.542969 L 43.808594 111.875 C 35.402344 110.984375 29.648438 108.679688 26.550781 104.96875 C 24.632812 102.589844 23.820312 99.617188 24.117188 96.054688 L 24.558594 94.492188 C 15.117188 92.5625 10.839844 87.734375 11.726562 80.007812 L 11.949219 77.554688 C 8.703125 76.21875 6.34375 74.4375 4.867188 72.207031 C 2.949219 69.980469 2.210938 67.230469 2.65625 63.960938 C 2.800781 61.4375 3.761719 58.835938 5.53125 56.164062 C 1.84375 50.964844 0.222656 45.464844 0.664062 39.671875 C 1.402344 32.539062 6.195312 27.265625 15.046875 23.851562 L 29.207031 20.953125 L 39.382812 8.472656 L 39.824219 8.25 L 76.554688 0.00390625 "/>
</g>
</svg>