<svg xmlns="http://www.w3.org/2000/svg" xml:space="preserve" width="276.528" height="279.995" viewBox="0 0 73.165 74.082"><path d="M51.833 151.829c.378.43.762.858 1.136 1.293 1.493 1.734 2.905 3.387 4.247 5.263 2.452 3.426 4.479 7.139 6.54 10.804 2.225 4.384 4.468 8.773 6.226 13.37.835 2.186.89 2.466 1.536 4.551 2.417 9.576-1.086 5.735 23.664 6.884 1.107.051-.09-2.214-.108-3.322-.1-5.963-.084-4.016.516-10.655 1.185-6.849 1.474-10.194 4.107-17.07 1.307-3.413 2.953-6.693 4.666-9.922 3.055-5.76 7.071-11.807 10.989-17.039 1.641-2.191 3.439-4.261 5.158-6.392l4.487-4.923-17.366-4.758-3.054 5.377c-3.572 6.399-4.66 8.318-8.325 15.033-1.692 3.102-3.35 6.222-5.049 9.321a977 977 0 0 1-5.439 9.822c-1.74 3.092-3.726 6.053-5.29 9.238-1.137 2.314-1.861 4.81-2.792 7.214-.726 2.154-2.433 7.568-3.6 9.9-.328.654-1.995 1.524-1.304 1.765 7.163 2.497 14.725 3.653 22.087 5.48-.284-.257-.625-.463-.853-.77-.367-.496-.607-1.074-.91-1.61a400 400 0 0 1-4.085-7.835c-1.795-3.549-3.544-7.12-5.492-10.59-.668-1.25-1.322-2.506-2.003-3.748-.54-.985-3.399-5.982-3.938-7.063-.49-.982-.899-2.003-1.323-3.015-.705-1.683-.64-1.555-1.04-2.876z" style="fill:#000;stroke-width:.264583" transform="translate(-51.833 -119.913)"/></svg>