<?xml version="1.0" encoding="UTF-8" standalone="no"?>
<svg
   width="91.181747mm"
   height="91.078819mm"
   viewBox="0 0 91.181747 91.078819"
   version="1.1"
   xml:space="preserve"
   xmlns="http://www.w3.org/2000/svg"
   xmlns:svg="http://www.w3.org/2000/svg"><path
     style="fill:#000000"
     d="m 0.336136,36.288478 c -0.579582,-1.54457 -0.395707,-3.4288 0.443898,-4.54869 0.378494,-0.50484 7.631587,-7.81141 16.117998,-16.23683 15.254556,-15.14492625 15.4401,-15.32044425 16.333434,-15.44998325 0.496973,-0.07206 1.479117,-0.07039 2.182529,0.0037 l 1.278942,0.134744 26.970177,26.97017925 c 26.25811,26.25811 26.97981,26.9989 27.33629,28.05768 0.22037,0.65458 0.24303,1.63738 0.0569,2.46878 l -0.3092,1.38127 -15.66664,15.66664 c -10.6143,10.6143 -15.90069,15.77228 -16.39231,15.99432 -1.03166,0.46587 -2.62753,0.46455 -3.90185,-0.003 -1.04934,-0.38519 -2.19445,-1.5015 -27.56787,-26.87493 C 2.01177,38.645698 0.725847,37.327108 0.336128,36.288658 Z m 3.873036,-0.30758 c 0.698197,-0.2114 1.13193,-0.94385 0.88596,-1.49614 -0.270925,-0.60833 -1.234162,-0.78246 -1.707874,-0.30875 -0.84809,0.84809 -0.262821,2.13332 0.821914,1.80489 z m 51.901812,52.10789 c 0.63149,-0.0587 1.24577,-1.02986 1.00018,-1.58129 -0.27558,-0.6188 -1.23553,-0.79856 -1.71326,-0.32084 -0.79264,0.79265 -0.34003,2.00001 0.71308,1.90213 z m -31.417405,-48.73201 1.782333,-1.67476 -0.53433,-0.53433 c -2.793625,-2.79362 -2.538633,-8.29898 0.485097,-10.47337 2.810582,-2.02113 6.598694,-2.13019 8.658922,-0.24931 1.378968,1.2589 1.357634,1.26161 3.000229,-0.38099 l 1.495962,-1.49596 -4.689064,-4.57183 c -4.596757,-4.48178 -4.71469,-4.57906 -5.991451,-4.93875 -1.435503,-0.40444 -2.959888,-0.21412 -4.285273,0.53502 -1.223748,0.69169 -9.987931,9.49921 -10.793299,10.84667 -0.843669,1.41153 -0.852398,3.52923 -0.02098,5.09057 0.479219,0.89994 1.603071,2.13457 4.866335,5.34598 l 4.243224,4.17576 z m 35.472815,38.13252 c 1.44483,0.43381 2.58381,0.39905 3.84115,-0.11722 0.80814,-0.33183 1.90458,-1.32691 6.17619,-5.60529 5.83582,-5.84572 6.08809,-6.21353 5.92896,-8.66343 -0.12524,-1.92811 -0.69422,-2.69677 -5.38738,-7.27804 l -4.22649,-4.12566 -1.47902,1.37069 -1.47902,1.37069 0.84134,1.09868 c 2.06121,2.69171 2.04105,6.19018 -0.0509,8.83819 -2.36428,2.9927 -6.81473,3.50758 -9.8578,1.14046 l -1.11385,-0.86641 -1.631056,1.63105 c -0.897085,0.89709 -1.630928,1.70136 -1.630723,1.78731 2.12e-4,0.0859 2.00672,2.16262 4.458949,4.61485 4.20754,4.20753 4.52344,4.47804 5.6097,4.80422 z M 28.942929,35.186928 c 0.402619,-0.40262 0.593825,-0.95502 0.60627,-1.75153 0.01432,-0.91666 0.185464,-1.33541 0.806892,-1.97423 0.655467,-0.67381 0.982886,-0.80423 1.938031,-0.77193 0.900912,0.0305 1.264214,-0.10076 1.680939,-0.60715 0.506077,-0.61497 0.493191,-0.68297 -0.268215,-1.41513 -1.036813,-0.99693 -2.695703,-1.3196 -4.173084,-0.81161 -2.902895,0.99815 -3.99951,4.31661 -2.259626,6.83783 0.816006,1.18244 0.942636,1.21991 1.668793,0.49375 z m 28.427925,29.12041 c 0.42303,0.1327 1.28733,0.22823 1.92066,0.21229 1.0655,-0.0268 1.25439,-0.13186 2.52868,-1.40615 1.09914,-1.09914 1.40359,-1.55934 1.50807,-2.27955 0.2187,-1.5074 -0.0596,-2.56611 -0.90661,-3.44929 -0.75341,-0.7855 -0.81492,-0.79781 -1.43512,-0.28736 -0.4878,0.40154 -0.63901,0.77096 -0.61173,1.49449 0.0254,0.67355 -0.18519,1.23888 -0.70391,1.88939 -0.65246,0.81821 -0.8878,0.93786 -1.98545,1.00914 -0.82404,0.0535 -1.44254,0.2782 -1.82857,0.66423 -0.54351,0.5435 -0.53802,0.62866 0.0808,1.24744 0.36526,0.36525 1.01021,0.77268 1.43323,0.90537 z m 25.12522,-8.4683 c 0.37814,0.11136 1.19509,0.79146 2.03692,1.69572 1.73691,1.86574 2.07742,1.92952 3.37466,0.63229 1.48964,-1.48965 1.44721,-1.85061 -0.43209,-3.67579 -0.87098,-0.84594 -1.79,-1.55721 -2.0422,-1.58066 -0.27922,-0.0259 -0.85232,0.35114 -1.46537,0.96419 l -1.00682,1.00683 -23.01116,-23.1062 -23.011161,-23.1061933 0.971501,-1.086477 c 0.534319,-0.597561 0.972109,-1.226597 0.972858,-1.397859 0.0018,-0.421063 -3.294485,-3.85638 -3.903969,-4.068584 -0.677992,-0.23605 -3.148324,2.180094 -2.869383,2.806436 0.100326,0.225202 0.995053,1.22475 1.988323,2.221173 0.993432,0.996261 1.850626,2.019569 1.905223,2.273669 0.155668,0.7244083 45.684418,46.1833953 46.492698,46.4214253 z M 33.347287,4.7391377 c 0.08908,-0.200026 0.470582,-0.618334 0.847771,-0.929569 l 0.685809,-0.565898 1.403165,1.403165 1.403165,1.403165 -0.831649,0.945692 -0.83165,0.945691 -1.419288,-1.419287 c -1.046255,-1.046256 -1.37671,-1.51488 -1.257323,-1.782959 z m 51.386777,51.6436403 -0.81547,-0.96187 0.73454,-0.73454 c 0.84462,-0.84462 1.28133,-0.70914 2.5931,0.80451 l 0.76784,0.88593 -0.8419,0.84191 c -0.93783,0.93783 -0.93264,0.93971 -2.43807,-0.83597 z" /></svg>
