<?xml version="1.0" encoding="UTF-8" standalone="no"?>
<svg
   width="65.522316mm"
   height="81.99707mm"
   viewBox="0 0 65.522316 81.99707"
   version="1.1"
   xml:space="preserve"
   xmlns="http://www.w3.org/2000/svg"
   xmlns:svg="http://www.w3.org/2000/svg"><path
     style="fill:#000000"
     d="m 52.326088,0.01754 c -0.7207,0.006 -1.44141,0.0117 -2.16211,0.0176 -0.22018,1.64104 -0.0517,3.47095 -0.98446,4.91741 -0.74072,1.10175 -2.58133,0.67139 -2.90421,-0.56975 -0.26981,-0.86209 -0.23522,-2.18376 0.71094,-2.60156 0.4297,-0.30597 0.99446,0.68038 0.89657,-0.11672 -0.005,-0.45003 0.14908,-1.17202 -0.11571,-1.4575 h -4.21836 c -0.18591,1.73961 -0.40674,3.57392 -1.31641,5.10156 -0.77668,1.06031 -2.80601,1.24117 -3.36719,-0.11914 -0.3495,-0.88719 -0.0555,-2.40725 1.10156,-2.43164 0.55933,0.0493 0.817,0.6903 0.92188,-0.19141 0.2361,-0.72244 0.33607,-1.47851 0.42773,-2.23047 -1.63474,0.0419 -3.26951,0.0828 -4.90429,0.12305 -0.22044,1.83803 -0.0279,3.84224 -0.96289,5.50977 -0.47534,0.72093 -1.36602,1.53403 -2.27766,1.03528 -1.29166,-0.45497 -1.82875,-2.48388 -0.56609,-3.28528 0.43834,-0.37509 1.13787,-0.12896 1.3125,0.40234 0.28109,-1.14994 0.29794,-2.34034 0.28125,-3.51758 -1.69554,-0.005 -3.31872,-0.003 -4.98633,0.26172 -0.13736,1.87264 0.0603,3.81495 -0.49449,5.62983 -0.37964,1.29535 -2.31753,1.26679 -2.88019,0.13657 -0.52536,-0.93973 -0.47551,-2.45783 0.51726,-3.05351 0.51703,-0.0758 0.80555,0.24111 0.68164,-0.52734 0.0171,-0.69975 0.0154,-1.3997 0.0176,-2.09961 -1.41558,0.11492 -2.78411,0.23742 -4.18946,0.41016 -0.13832,1.7566 0.0472,3.57489 -0.43854,5.28398 -0.38821,1.19203 -2.12609,1.92325 -3.043879,0.86641 -0.696009,-0.82917 -0.682724,-2.28976 0.134769,-3.02539 0.34744,-0.33526 0.96509,0.11974 1.04687,0.21874 0.17224,-1.05069 0.0722,-2.11822 -0.082,-3.16406 -1.621996,0.0889 -3.249264,0.14993 -4.859375,0.4375 -0.125631,1.93813 0.159159,4.06367 -0.850782,5.81537 -0.569157,0.91295 -2.03228,1.35846 -2.911047,0.65875 -0.780826,-0.86347 -0.331487,-2.67661 0.888782,-2.85498 0.602919,0.30904 0.505885,-0.23377 0.5625,-0.71484 0.06595,-0.90094 0.0636,-1.80554 0.0098,-2.70703 C 11.973583,2.35269 10.579113,2.3008 9.261719,2.65038 8.870225,3.14898 9.136574,3.91667 9.045611,4.51986 8.951481,5.85289 9.050811,7.34185 8.269531,8.49413 7.538228,9.21094 6.162653,9.2366 5.390625,8.55273 4.684614,7.87466 4.506542,6.26226 5.636719,5.92383 6.039793,5.80609 6.497906,5.95823 6.771484,6.27148 7.029809,5.20543 6.918996,4.09436 6.947266,3.00781 4.622297,3.30479 2.302871,3.65799 0,4.09375 c 0.582088,5.13368 1.227184,10.27024 1.496094,15.43554 0.598777,10.8689 1.012776,21.75257 1.697584,32.61153 0.603226,9.91836 1.291659,19.84125 1.235309,29.78408 0.245287,0.21714 0.969345,-0.12531 1.398234,-0.12137 19.837367,-2.41711 39.794877,-3.75356 59.695097,-5.6014 -0.30474,-7.30096 -2.66779,-30.30991 -2.68701,-37.635 -0.12067,-10.67437 0.35139,-27.56805 0.33459,-38.24291 -2.1446,-0.31294 -4.31983,-0.23498 -6.48047,-0.25 -0.0397,1.78449 0.1525,3.84514 -1.05859,5.31445 -0.79647,0.97459 -2.53272,0.73708 -2.95219,-0.47721 -0.39103,-0.85466 0.0551,-2.32823 1.13188,-2.30599 0.55602,0.31452 0.6447,0.38855 0.6669,-0.33517 0.099,-0.75399 0.0429,-1.51491 -0.007,-2.2703 -0.71484,0.006 -1.42969,0.0117 -2.14453,0.0176 z m -36.65625,16.76368 c 1.482913,0.21038 3.182231,0.54453 4.15039,1.79882 0.41638,0.57163 0.45916,1.41814 0.0176,1.98633 0.99395,-3.7e-4 1.79742,0.85013 1.76367,1.83789 0.019,1.50703 0.89612,2.81889 1.01211,4.31482 0.033,0.97567 0.45274,2.01687 0.068,2.95667 -0.69726,0.92196 -2.02774,0.79216 -3.05139,1.01595 -2.242194,0.25671 -4.460521,0.71673 -6.720096,0.81999 -0.832386,0.0622 -1.349422,-0.74053 -1.233777,-1.50429 0.01386,-2.30766 -0.361018,-4.57368 -0.235468,-6.87581 0.02857,-0.6986 0.499872,-1.23683 0.832527,-1.80936 -0.680201,-0.95989 0.133575,-2.13575 0.742187,-2.91015 0.684963,-0.78656 1.503337,-1.71914 2.654297,-1.63086 z m 0.521484,2.35742 c -0.890249,0.10214 -1.99572,0.45368 -2.316406,1.37695 -0.03052,0.63111 0.919294,0.10825 1.308582,0.22297 1.066904,-0.0815 2.23052,-0.1262 3.23634,-0.22297 -0.425898,-0.45777 -0.422393,-1.42991 -1.253939,-1.35806 -0.323459,-0.0308 -0.650097,-0.0345 -0.974577,-0.0189 z m 32.876956,0.35547 c 0.53115,-0.0432 1.04135,0.0699 1.37695,0.51367 -0.38344,0.87909 -1.44258,0.69523 -2.2168,0.88672 -6.819,0.87201 -13.72591,1.0849 -20.56591,1.41528 -1.15762,-0.009 -2.32566,0.31123 -3.47315,0.14526 -0.68653,-0.13869 -0.58713,-1.08 0.011,-1.2815 2.28114,-1.22532 4.95583,-0.96844 7.45204,-1.15797 5.80434,-0.1935 11.60924,-0.42076 17.41591,-0.52146 z m -31.283206,3.05273 c -1.457412,0.0978 -2.957802,0.14832 -4.365234,0.51953 -0.281905,0.92225 -0.07594,2.12983 0.884766,2.57422 0.806852,0.55363 1.672655,1.02709 2.582031,1.38867 1.281042,-0.96804 2.451516,-2.32826 2.735943,-3.95128 0.14864,-0.79792 -0.854974,-0.49999 -1.324507,-0.548 -0.171,0.006 -0.341999,0.0112 -0.512999,0.0169 z m 27.761716,0.32227 c 1.19907,0.0623 2.48177,-0.13705 3.61133,0.34765 0.38445,0.41539 0.10955,0.9441 -0.41797,1.02149 -2.59017,0.31698 -5.19215,0.25861 -7.79097,0.53241 -5.25096,0.37014 -10.49316,1.33444 -15.79111,1.1996 -0.58983,0.0348 -1.57212,-0.28038 -1.20698,-1.03475 0.72443,-0.67529 1.84736,-0.56585 2.76172,-0.78515 5.93833,-0.71968 11.91769,-1.09835 17.89605,-1.26759 0.31264,-0.005 0.62529,-0.009 0.93793,-0.0137 z m -25.02734,3.17578 c -0.67837,1.07463 -1.490732,2.08243 -2.47461,2.89258 0.921875,-0.12045 1.84375,-0.24089 2.76563,-0.36133 -0.0583,-0.87125 -0.096,-1.7473 -0.24219,-2.60938 z m -6.957032,2.17578 c 0.0868,0.34734 -0.189983,0.9966 0.15922,1.17053 0.918047,0.049 1.828716,-0.15009 2.739218,-0.24475 -1.066033,-0.32553 -2.009368,-0.95257 -2.898438,-1.60937 z m 6.017582,10.49219 c 0.81987,-0.11198 1.50787,0.41172 1.93359,1.04883 0.35253,0.3986 1.11212,0.35893 1.17188,1.03125 0.13917,0.68235 -0.52693,1.23662 -0.24024,1.93554 0.39356,2.23589 1.19596,4.52068 0.75586,6.80664 -0.22033,1.01247 -1.42324,0.93342 -2.21936,1.11893 -2.300655,0.34858 -4.620009,0.55334 -6.93689,0.76389 -0.733995,-0.45131 -0.562225,-1.48557 -0.724005,-2.2284 -0.234465,-2.76006 -0.48856,-5.54254 -0.307895,-8.3118 0.07526,-0.93068 1.224321,-1.02632 1.910957,-1.32229 1.511909,-0.46138 3.069406,-0.81388 4.656103,-0.84259 z m 35.83593,0.5957 c 0.41523,-0.004 1.09919,0.37671 0.66211,0.82617 -0.48373,0.64153 -1.4673,0.54197 -2.19938,0.70399 -8.88384,1.00578 -17.83343,1.06291 -26.7264,1.76672 -0.89828,0.0459 -1.81664,0.48813 -2.70312,0.1914 -0.63078,-0.44038 -0.17908,-1.26656 0.45507,-1.40234 2.89016,-1.10405 6.01204,-1.25462 9.06985,-1.36827 7.14164,-0.30617 14.32879,-0.36293 21.44187,-0.71767 z m -36.828121,1.37109 c -1.250389,0.23732 -2.470134,0.58975 -3.703125,0.89454 0.01172,1.21261 0.02096,2.51172 0.136718,3.66601 0.871744,-0.12423 1.51121,0.63306 2.259766,0.93555 1.080482,-1.46124 2.061093,-2.97611 2.880862,-4.56836 -0.29191,-0.61481 -0.83478,-1.17297 -1.574221,-0.92774 z m 29.580081,2.44727 c 2.13489,-0.008 4.2934,0.0139 6.40197,0.30052 0.55204,0.27735 1.49258,0.56693 0.39665,0.7924 -0.93186,0.43956 -2.01734,0.14806 -3.01907,0.25508 -5.70623,0.0431 -11.40267,0.69846 -17.06666,1.19888 -2.32762,0.1711 -4.61112,0.66824 -6.92578,0.92968 -0.73118,0.0104 -1.85296,0.22618 -2.17579,-0.64453 0.012,-1.00182 1.24869,-1.14357 1.99616,-1.35919 4.51037,-0.89705 9.12741,-1.06768 13.70951,-1.30444 2.22616,-0.10278 4.45475,-0.14388 6.68301,-0.1684 z m -27.82422,2.30273 c -0.76289,1.18225 -1.224734,2.65814 -2.39258,3.51954 -0.870209,0.26363 -1.573962,-0.60373 -2.234375,-1.04297 -0.464648,-0.50133 -0.732187,-0.65189 -0.557405,0.12479 0.165181,0.35132 -0.127654,1.28691 0.409028,1.22255 1.956397,-0.17623 4.061272,-0.36059 5.882752,-0.64812 -0.0163,-1.39349 -0.21176,-2.79296 -0.53906,-4.14844 -0.18946,0.32422 -0.37891,0.64844 -0.56836,0.97265 z m -0.0156,10.47266 c 1.05398,-0.0707 2.31031,0.31236 2.63282,1.43945 0.37199,0.89678 0.19498,1.97408 0.55468,2.83204 0.799,0.2439 0.80576,1.47722 0.10743,1.8496 -0.37099,1.62372 0.20254,3.41816 -0.54883,4.95704 -0.74334,1.06566 -2.2156,0.99857 -3.36644,1.20383 -1.918851,0.23388 -3.852334,0.30797 -5.780048,0.43874 -0.188726,-3.42935 -0.637262,-6.83982 -0.818359,-10.26796 -0.04866,-0.61652 0.03199,-1.43001 0.791016,-1.51915 2.096675,-0.52318 4.269617,-0.83177 6.427731,-0.93359 z m 34.76563,1.3418 c 0.52032,0.008 1.3616,-0.10153 1.36744,0.6298 0.14513,0.46159 -0.69083,0.52142 -1.03109,0.61697 -5.69801,0.78057 -11.44273,1.19586 -17.17974,1.58745 -3.64979,0.2008 -7.29334,0.52751 -10.90661,1.08179 -0.78569,0.19157 -1.1011,-0.85867 -0.54883,-1.30859 1.26833,-0.86731 2.88124,-0.98849 4.35301,-1.2783 4.35175,-0.56316 8.74861,-0.66031 13.12814,-0.87319 3.60707,-0.12347 7.21057,-0.34333 10.81768,-0.45593 z m -35.23047,0.60351 c -1.16405,0.11199 -2.494286,0.33522 -3.728747,0.5242 -0.343418,0.1475 -1.209344,-0.0117 -1.18141,0.39182 0.305458,2.57589 0.58829,5.15334 0.738281,7.74414 1.869771,-0.21343 3.782346,-0.20653 5.615236,-0.6543 0.5184,-0.3924 0.37389,-1.22174 0.44875,-1.80703 0.0923,-0.71204 -0.11928,-0.96387 -0.60259,-0.28243 -0.83213,0.79181 -1.65862,1.63531 -2.496552,2.4586 -0.716525,-1.0705 -1.671125,-2.01439 -2.201172,-3.1914 -0.17544,-1.02919 1.419826,-1.55441 2.059011,-0.81071 0.345868,0.35341 0.652937,0.72134 0.978683,0.10534 0.64819,-0.76329 1.59011,-1.35365 1.98184,-2.29073 -0.0846,-0.70127 -0.0195,-1.55941 -0.47656,-2.12695 -0.35815,-0.13897 -0.76051,-0.0698 -1.13477,-0.0606 z m 33.32812,2.84961 c 0.47592,-0.0605 1.11605,0.28059 1.03643,0.76502 -0.35587,0.6275 -1.28356,0.55556 -1.85478,0.32092 -0.5683,-0.18141 -0.18999,-1.03387 0.32226,-1.03125 0.16306,-0.0374 0.32924,-0.0505 0.49609,-0.0547 z m -5.09961,0.006 c 1.23167,0.0768 2.52649,-0.16846 3.6836,0.36914 -0.39403,0.43754 -0.79627,0.89898 -1.43669,0.84303 -4.74797,0.49853 -9.52442,0.76315 -14.23793,1.55976 -2.62043,0.36166 -5.25674,0.87062 -7.91091,0.75515 -0.66918,0.0419 -1.43015,-0.80499 -0.75041,-1.31419 1.50711,-0.59618 3.17327,-0.64864 4.75189,-0.98157 5.25061,-0.85905 10.58067,-1.24765 15.90045,-1.23132 z" /></svg>
