<?xml version="1.0" encoding="UTF-8" standalone="no"?>
<svg
   width="71.475517mm"
   height="107.95583mm"
   viewBox="0 0 71.475517 107.95583"
   version="1.1"
   xml:space="preserve"
   xmlns="http://www.w3.org/2000/svg"
   xmlns:svg="http://www.w3.org/2000/svg"><path
     style="fill:#000000"
     d="m 32.910337,107.68921 c -0.24179,-0.24178 -0.32634,-2.08724 -0.32634,-7.12298 0,-6.50673 -0.0289,-6.89667 -0.67775,-9.14136 -0.9616,-3.32667 -2.21042,-5.41975 -4.72024,-7.91136 -1.93847,-1.92441 -2.54965,-2.33491 -6.414232,-4.30825 -2.349381,-1.19964 -5.041596,-2.76406 -5.9827,-3.4765 C 10.264079,72.30325 7.7573907,66.38022 6.7786517,56.80101 l -0.189233,-1.85209 1.950937,1.88014 c 2.6132053,2.51838 4.7394833,3.83568 8.7303543,5.40873 7.933097,3.12694 12.338067,8.34066 14.521617,17.18782 0.44858,1.81751 0.91712,3.66175 1.04121,4.09831 0.13167,0.46327 0.23685,-5.61025 0.25262,-14.58737 0.0269,-15.32703 0.0289,-15.38162 0.57537,-15.52452 0.5204,-0.13609 1.72919,-0.0409 3.13056,0.24642 l 0.63621,0.13046 -0.14895,18.37387 c -0.0819,10.10563 -0.061,18.31949 0.0466,18.25302 0.10755,-0.0665 0.34932,-0.8109 0.53727,-1.65428 0.46196,-2.073 1.75065,-5.68303 2.71973,-7.61885 1.94812,-3.89152 5.14009,-7.26933 8.96597,-9.48795 3.45298,-2.00239 5.58088,-3.4881 7.4538,-5.20429 0.94814,-0.8688 1.77924,-1.57963 1.84688,-1.57963 0.0677,0 -0.16015,1.63711 -0.50622,3.63802 -1.30607,7.55155 -2.52476,11.05809 -4.96009,14.27168 -1.50419,1.9849 -2.90593,3.17878 -6.37948,5.43349 -4.62193,3.00014 -6.43801,5.05463 -7.75822,8.77668 -0.57645,1.62521 -0.68721,2.48678 -0.81976,6.377 l -0.15327,4.49792 -2.51793,0.075 c -1.73241,0.0516 -2.61974,-0.0268 -2.84427,-0.25136 z m 7.47887,-56.07604 c 4.96984,-2.61356 7.87355,-7.96739 8.65032,-15.94936 l 0.31185,-3.20447 1.87932,-1.85208 c 1.03362,-1.01865 2.6179,-2.48472 3.52061,-3.25795 0.90271,-0.77322 2.16937,-2.22219 2.8148,-3.21992 2.35871,-3.6462 6.80253,-6.12787 12.10569,-6.76047 2.11885,-0.25275 2.30477,8.6e-4 0.90432,1.23359 -1.26919,1.11718 -3.32116,4.01456 -4.03209,5.69329 -0.23753,0.56088 -1.13568,3.09879 -1.99589,5.63978 -1.90526,5.62798 -3.1068,8.22007 -5.09454,10.99043 -1.98652,2.76866 -3.27159,4.09729 -5.78563,5.98176 -3.26492,2.44731 -7.55693,4.29384 -11.60132,4.99117 -3.42575,0.59067 -3.36403,0.60118 -1.67744,-0.28577 z m -10.73633,-0.36899 c -6.18534,-1.16057 -10.794926,-3.49999 -14.817251,-7.51994 -2.572187,-2.57067 -4.375633,-5.27567 -6.5184673,-9.7771 -0.943718,-1.98246 -2.122492,-4.45849 -2.619498,-5.50229 -1.175229,-2.4682 -3.03741,-4.92513 -4.639359,-6.1211 -0.86873096,-0.64856 -1.19208796,-1.041 -1.00879596,-1.22429 0.426515,-0.42651 4.95924396,-0.29228 6.86991196,0.20345 2.642588,0.68562 5.3914273,2.14042 6.4748113,3.42672 3.409753,4.0484 4.563119,5.81554 5.905052,9.04749 l 0.880991,2.1218 -0.100855,-2.1219 c -0.1204,-2.53314 -0.835713,-4.28678 -2.654779,-6.50841 -1.020232,-1.24601 -1.267454,-1.77516 -1.527772,-3.27002 -0.448795,-2.57717 -0.170601,-7.10602 0.650465,-10.58925 0.719764,-3.05347 0.888559,-6.23649 0.434562,-8.19465 -0.134008,-0.578 -0.199737,-1.09482 -0.146065,-1.14849 0.05367,-0.0537 0.731702,0.22026 1.506734,0.60875 3.927485,1.96865 6.816275,5.43353 8.132625,9.75445 0.30391,0.99759 0.55256,1.84428 0.55256,1.88154 0,0.0373 -0.28719,0.0128 -0.63822,-0.0543 -0.60735,-0.11611 -0.69627,0.0556 -1.83862,3.55095 -0.66022,2.02012 -1.44354,4.76448 -1.74071,6.09857 -1.56493,7.02563 -1.03093,15.40875 1.18523,18.60668 0.63083,0.91028 2.47472,2.63084 2.81942,2.63084 0.0593,0 -0.40435,-1.04179 -1.03034,-2.3151 -1.82385,-3.70982 -2.06556,-4.97846 -2.05425,-10.78177 0.009,-4.44852 0.0921,-5.40772 0.72513,-8.33437 0.82178,-3.79951 1.86827,-7.21774 2.24851,-7.34448 0.33345,-0.11115 2.71011,2.54273 3.96417,4.42655 1.29605,1.94691 2.59045,4.98828 3.00008,7.0491 0.18472,0.92931 0.41422,1.68966 0.51001,1.68966 0.0958,0 0.32575,-0.50602 0.51103,-1.12448 1.15605,-3.85902 4.24262,-9.19325 7.22697,-12.48968 l 1.42645,-1.57561 0.85081,2.35133 c 1.98834,5.49506 2.74944,9.47309 2.76003,14.42594 0.015,6.99946 -1.70615,12.0627 -5.3524,15.74574 -2.18838,2.21047 -3.24725,2.624 -6.90038,2.69484 -1.7772,0.0345 -3.87666,-0.0975 -5.04779,-0.3172 z m 19.1994,-21.47843 c -0.79831,-4.83777 -1.55211,-7.55456 -3.26164,-11.7555 l -1.03479,-2.54283 1.11082,-2.13337 c 1.36831,-2.62787 2.93409,-4.73121 4.44167,-5.96655 1.18103,-0.96776 4.11914,-2.8217 4.47183,-2.8217 0.10954,0 0.12973,1.22618 0.0449,2.72485 -0.1296,2.28857 -0.0451,3.2735 0.5279,6.15156 1.00937,5.07008 1.0328,5.33707 0.73172,8.33813 -0.31153,3.10518 -0.15571,2.86802 -3.69279,5.62014 -0.89853,0.69913 -1.97999,1.7492 -2.40325,2.33349 l -0.76956,1.06235 z m -14.6232,-4.91318 c -0.53627,-1.47184 -2.40375,-4.08993 -4.34245,-6.08785 l -1.859,-1.9158 0.13037,-1.71979 c 0.17247,-2.275 0.87383,-4.02936 3.0146,-7.54062 0.97594,-1.60073 2.32926,-3.96299 3.00738,-5.24946 L 35.412927,0 l 0.92437,1.94217 c 0.5084,1.0682 2.02601,3.60493 3.37246,5.6372 2.50428,3.77982 3.72216,5.92957 3.72216,6.57022 0,0.19852 -0.31086,0.52733 -0.69081,0.73067 -0.84504,0.45225 -4.32334,4.1158 -5.4173,5.70581 -0.43924,0.63841 -1.22235,2.05302 -1.74025,3.14357 -0.5179,1.09055 -0.96403,1.98283 -0.99141,1.98283 -0.0274,0 -0.19075,-0.38696 -0.36307,-0.8599 z" /></svg>
