<?xml version="1.0" encoding="UTF-8" standalone="no"?>
<svg
   width="128.57487mm"
   height="105.41651mm"
   viewBox="0 0 128.57487 105.41651"
   version="1.1"
   xml:space="preserve"
   xmlns="http://www.w3.org/2000/svg"
   xmlns:svg="http://www.w3.org/2000/svg"><path
     d="m 41.106085,0.0104607 c -4.466983,-0.233999 -8.967967,3.486987 -8.519969,8.23097 0.286999,4.6479803 -0.192999,8.8799713 -1.833993,12.5189513 l -8.796967,0.111 c -4.411984,0.707 -10.275962,-1.41199 -13.6629501,1.738 -1.292995,7.00497 -1.923993,14.11294 -2.837989,21.17392 -1.169996,1.18799 -6.591976,1.26899 -5.23898102,4.78598 l 2.89598902,14.29695 -0.003,25.8669 c 1.087996,5.17898 -2.48199102,13.287948 3.146989,16.307938 34.2758731,0.342 68.5607471,0.226 102.8396161,0.182 6.23698,0.683 14.60395,-0.093 15.16995,-8.130968 0.477,-10.99096 0.17,-22.00192 0.325,-33.00188 l 3.92298,-12.66195 c 0.111,-2.98399 0.517,-7.86297 -3.85398,-6.98797 l -1.005,-9.20197 c -1.067,-4.49798 0.048,-10.29196 -2.78799,-13.92595 -5.47598,-0.78 -11.05896,-0.293 -16.58394,-0.42 -2.37199,0.049 -4.990975,0.568 -5.063975,-2.16499 -1.635,-0.517 -0.419,-3.656991 -0.892,-5.242981 0.83,-6.1469773 -2.58599,-13.2419513 -9.53897,-13.2289513 -15.588938,-0.474998 -31.193881,-0.113 -46.789823,-0.144 -0.294896,-0.04996 -0.592362,-0.08335 -0.890997,-0.1 m 45.33183,5.20398 c 1.87,0.043 3.63699,0.423998 5.03798,1.945992 3.06299,3.9849873 2.102,9.8049703 0.366,13.3129503 l -0.84999,0.225 c -14.212951,0.364 -28.436899,0.145 -42.654847,0.158 -3.805986,-0.133 -9.584964,0.809 -10.60996,-2.82999 0.229999,-4.428981 -0.799998,-10.7299583 4.582983,-12.3729523 12.814952,-0.509998 25.656905,-0.232999 38.484858,-0.359999 1.804993,0.173 3.774986,-0.121999 5.642976,-0.079 m 2,20.8159213 c 9.46196,-0.018 18.921925,0.024 28.369895,0.34 1.94599,5.17198 1.58999,11.02596 2.44099,16.48694 l 0.128,0.93 -109.237601,0.152 c 0.440999,-6.00198 1.021996,-12.13696 2.74599,-17.88794 h 47.168826 c 9.456965,0.075 18.92193,-0.004 28.3839,-0.021 m 7.17897,5.53798 c -0.77454,-0.0124 -1.54137,0.15535 -2.23999,0.49 -6.02498,1.25 -5.27598,9.37797 0.618,10.18296 1.20599,0.429 2.51399,-0.017 3.63198,-0.48599 6.360975,-1.907 3.024995,-10.07997 -2.00999,-10.18697 m -60.01478,0.035 c -6.304976,-0.53499 -7.739971,9.93797 -0.977996,10.82396 7.216973,1.028 7.931971,-10.12296 0.977996,-10.82396 m 60.11978,2.76799 c 1.85999,0.147 3.40399,1.466 1.63899,4.25999 -0.98999,1.17599 -2.84399,1.26099 -4.02598,0.34 -2.92299,-3.04099 -0.006,-4.78999 2.38599,-4.59999 m -60.08678,0.292 c 2.055993,0.153 3.958986,1.79 1.309995,4.59799 -0.994996,1.07699 -2.61599,0.62799 -3.539987,-0.281 -2.035992,-3.13499 0.174,-4.46999 2.229992,-4.31699 m 74.229725,17.44994 5.65298,5.65298 -5.65298,5.65198 -5.65198,-5.65198 z m -17.689935,0.445 5.65198,5.65198 -5.65198,5.65298 -5.65298,-5.65298 z m -55.669793,0.144 5.652979,5.65298 -5.652979,5.65197 -5.652979,-5.65197 z m -17.689935,0.44399 5.651979,5.65298 -5.652979,5.65198 -5.651979,-5.65198 z m 82.316693,7.70098 5.65198,5.65298 -5.65198,5.65297 -5.653975,-5.65297 z m -73.359726,0.58899 5.651979,5.65198 -5.652979,5.65298 -5.652979,-5.65298 z m 82.315696,7.62798 5.65298,5.65198 -5.65298,5.65297 -5.65298,-5.65297 z m -17.986935,0.073 5.65198,5.65297 -5.65198,5.65298 -5.65298,-5.65298 z m -55.373794,0.51499 5.652979,5.65298 -5.652979,5.65198 -5.652979,-5.65198 z m -17.986933,0.074 5.652979,5.65298 -5.652979,5.65298 -5.65298,-5.65298 z m 82.289692,7.65498 5.65298,5.65297 -5.65298,5.65298 -5.652975,-5.65298 z m -73.359725,0.58899 5.651979,5.65198 -5.652979,5.65298 -5.65198,-5.65298 z m 64.57876,8.04397 5.65298,5.65298 -5.65298,5.65298 -5.65298,-5.65298 z m 18.059935,0.148 5.65298,5.65298 -5.65198,5.65198 -5.65298,-5.65198 z m -91.419663,0.441 5.651979,5.65198 -5.651979,5.65298 -5.652979,-5.65298 z m 18.059933,0.148 5.65298,5.65198 -5.65298,5.65298 -5.651979,-5.65298 z"
     style="stroke-width:0.999996" /></svg>
