<?xml version="1.0" encoding="UTF-8" standalone="no"?>
<svg
   width="114.55066mm"
   height="94.88324mm"
   viewBox="0 0 114.55066 94.88324"
   version="1.1"
   xml:space="preserve"
   xmlns="http://www.w3.org/2000/svg"
   xmlns:svg="http://www.w3.org/2000/svg"><path
     style="fill:#000000"
     d="m 53.664197,94.505907 c -2.380865,-0.37074 -3.61432,-0.84479 -4.641148,-1.78369 -0.995028,-0.90983 -0.741009,-1.15692 1.5875,-1.54423 4.169119,-0.69346 15.808856,-0.27533 15.808856,0.5679 0,0.46132 -1.88859,1.81673 -3.08471,2.21385 -1.4247,0.47301 -4.68147,0.94925 -6.308,0.92242 -0.582084,-0.01 -2.095208,-0.17892 -3.362498,-0.37625 z m -8.718812,-5.1943 c -1.296445,-0.34525 -3.091111,-1.92255 -3.691527,-3.24443 -0.659793,-1.4526 -0.638093,-4.1945 0.05561,-7.02622 0.728272,-2.97286 0.717881,-5.68806 -0.03088,-8.0698 -0.320239,-1.01864 -1.390624,-3.93567 -2.378634,-6.48229 -2.578716,-6.64669 -3.234383,-9.24918 -4.366149,-17.3302 -0.419544,-2.99563 -0.988133,-5.68742 -1.702377,-8.05935 -0.589839,-1.95878 -1.072435,-3.8199 -1.072435,-4.13582 0,-0.31592 0.840796,-2.27602 1.868436,-4.35578 1.569404,-3.176197 1.946097,-4.208078 2.35369,-6.447509 1.428973,-7.851172 5.755653,-13.550696 12.752609,-16.7989766 2.823545,-1.310808 5.384286,-1.87562 8.477497,-1.869846 4.30237,0.008 8.24987,1.234449 11.95952,3.715617 5.0676,3.3894206 8.26237,8.4782216 9.45218,15.0559796 0.42447,2.346659 0.76278,3.288761 2.21846,6.177945 2.08823,4.14463 2.13748,4.71543 0.78163,9.0587 -0.59849,1.91721 -1.17121,4.64941 -1.58839,7.57761 -1.21446,8.52426 -1.75327,10.55214 -5.29216,19.91765 -2.39691,6.34333 -2.53921,7.57266 -1.40528,12.13989 0.64325,2.5909 0.67548,5.25415 0.0815,6.73857 -0.24548,0.61352 -0.97609,1.58068 -1.62666,2.15334 -1.77942,1.5663 -3.177,1.77821 -8.15077,1.23589 -4.89708,-0.53396 -8.022501,-0.54289 -12.303126,-0.0352 -3.718119,0.44101 -4.98997,0.45776 -6.392768,0.0842 z m 6.188037,-4.38367 c 0.378411,-0.40019 0.812768,-1.20386 0.965236,-1.78594 0.583651,-2.22822 -0.514884,-4.1055 -3.355071,-5.73344 -1.194838,-0.68486 -1.391874,-0.907 -1.322917,-1.49145 0.0512,-0.43395 0.373201,-0.85548 0.874775,-1.14516 0.761074,-0.43954 0.853656,-0.43594 2.248958,0.0877 4.74926,1.78217 8.206302,1.9634 11.773962,0.61722 3.48976,-1.31679 3.92786,-1.31868 4.77837,-0.0206 0.55342,0.84463 0.34054,1.1418 -1.60427,2.23938 -1.92937,1.08887 -2.83856,2.33762 -2.98466,4.09934 -0.1239,1.49411 0.25352,2.5477 1.22882,3.43034 0.95852,0.86745 2.12211,-0.16873 1.25966,-1.12173 -0.95799,-1.05857 -0.48256,-1.70561 1.6877,-2.29685 2.69685,-0.73469 3.90457,-3.41784 2.7655,-6.14402 -1.14743,-2.74619 -3.54391,-3.65825 -6.14773,-2.33972 -1.95455,0.98974 -3.9583,1.48471 -6.01048,1.48471 -2.052172,0 -4.055925,-0.49497 -6.010472,-1.48471 -1.623088,-0.8219 -2.989305,-0.81548 -4.218564,0.0198 -1.328707,0.90288 -2.074086,2.54952 -2.074086,4.58193 0,1.43647 0.09452,1.7347 0.806975,2.54614 0.443837,0.50551 1.247508,1.05419 1.785938,1.21931 2.12243,0.65086 2.43417,0.83891 2.43417,1.46837 0,0.33756 -0.119062,0.68733 -0.264583,0.77727 -0.377227,0.23314 -0.327874,1.38557 0.06615,1.54456 0.551856,0.22268 0.604695,0.20051 1.316623,-0.55237 z M 47.77931,57.411267 c -0.06903,-0.5457 -0.19591,-1.94469 -0.28195,-3.10885 -0.424104,-5.7383 -2.081865,-10.63121 -4.881422,-14.40761 -1.522366,-2.05356 -2.60634,-2.72288 -5.300701,-3.27301 -1.091406,-0.22284 -2.328309,-0.53615 -2.748674,-0.69624 -0.420364,-0.16009 -0.822882,-0.23249 -0.894484,-0.16089 -0.328886,0.32889 2.72756,6.87196 3.547619,7.59455 0.270828,0.23864 1.477223,0.92586 2.680878,1.52715 1.203655,0.60129 2.645018,1.50573 3.203028,2.00986 1.702567,1.53817 3.454041,5.60583 4.053096,9.413 0.325353,2.06771 0.865776,3.02428 0.62261,1.10204 z m -9.443105,-15.40858 c -0.613856,-0.61385 -0.771835,-0.98323 -0.707251,-1.65364 0.0734,-0.76191 0.185158,-0.87305 0.952076,-0.94682 0.698931,-0.0672 1.048314,0.0958 1.785937,0.83344 0.504361,0.50436 0.91702,1.14323 0.91702,1.41972 0,1.34515 -1.744414,1.55067 -2.947782,0.3473 z m 30.07581,10.52311 c 0.7089,-2.1844 2.22023,-4.89739 3.21454,-5.77041 0.49809,-0.43732 1.88172,-1.28273 3.07475,-1.87868 2.6384,-1.31795 2.97687,-1.60522 3.79714,-3.22279 0.73353,-1.4465 2.51487,-5.79234 2.41001,-5.87956 -0.198,-0.16471 -6.10195,1.47886 -6.8195,1.89844 -1.16684,0.68231 -3.06625,3.26913 -4.24534,5.78176 -1.59307,3.39483 -2.92624,9.70702 -2.87643,13.6191 l 0.0186,1.46215 0.48621,-2.30584 c 0.26741,-1.26822 0.69041,-2.93509 0.94,-3.70417 z m 5.21728,-9.90793 c -1.02897,-0.4152 0.36556,-2.81395 1.87402,-3.22353 1.04727,-0.28436 1.49942,0.0384 1.49942,1.07026 0,1.51427 -1.91994,2.73977 -3.37344,2.15327 z m -6.78883,1.19444 c 0.10323,-0.16705 0.21778,-1.14931 0.25455,-2.18282 0.0384,-1.07947 0.40884,-3.11758 0.87052,-4.78951 0.44202,-1.60073 1.30297,-4.69636 1.91322,-6.87917 1.25967,-4.505688 1.52659,-5.836398 0.84914,-4.233333 -0.65292,1.545011 -4.66475,9.500833 -5.81685,11.535343 l -0.98859,1.74576 0.46782,1.98437 c 0.25729,1.09141 0.64727,2.24058 0.8666,2.55372 0.43036,0.61443 1.27994,0.75694 1.58359,0.26564 z m -53.000186,-5.3698 C 10.004282,37.566937 6.4660102,34.834157 3.1047022,30.150897 -0.12421281,25.65211 -0.68724881,23.835953 0.73659319,22.512218 2.3940442,20.971298 6.5485042,19.489914 10.658468,18.974308 c 4.328359,-0.543006 9.674399,0.416735 14.774186,2.652316 1.369431,0.600315 3.501906,1.460389 4.738833,1.911277 1.236927,0.450889 2.36333,0.9209 2.503118,1.04447 0.15333,0.13554 -0.406632,0.89139 -1.411478,1.905248 L 29.597489,28.168195 28.230843,26.85065 C 25.543217,24.259586 23.849896,23.296494 20.514196,22.461735 16.090701,21.354755 9.9059772,21.50617 6.0216612,22.816542 c -1.051397,0.354688 -1.505854,0.575606 -1.009905,0.490929 0.495949,-0.08468 2.400949,-0.147801 4.233333,-0.140275 3.3168658,0.01362 6.3060528,0.438804 8.8821848,1.263401 1.705146,0.545802 4.900464,1.985168 4.900464,2.207468 0,0.09394 -0.669026,0.311126 -1.486725,0.48264 -1.700969,0.356782 -5.118664,1.966749 -5.819842,2.741542 -0.468907,0.51814 -0.46311,0.51811 0.754313,-0.004 2.796303,-1.198637 7.736175,-1.427291 9.752478,-0.451417 0.852208,0.412457 3.105323,3.199157 3.326943,4.114827 0.115592,0.4776 -1.981993,2.08778 -4.145917,3.18255 -3.550309,1.79618 -8.232291,2.49958 -11.568709,1.73804 z m 79.963496,-0.01 c -2.23401,-0.4918 -4.19838,-1.3114 -6.3611,-2.65406 -3.04962,-1.89327 -3.02656,-1.82449 -1.383,-4.12615 1.8194,-2.547906 2.76255,-2.935028 6.81806,-2.798538 2.24683,0.07562 3.10456,0.226572 4.48509,0.789338 0.93883,0.38272 1.74465,0.65815 1.79073,0.61208 0.159,-0.15901 -1.91467,-1.461254 -3.4206,-2.148096 -0.83073,-0.378886 -2.25948,-0.842693 -3.175,-1.030682 l -1.6646,-0.341798 1.32292,-0.667941 c 1.87891,-0.948659 5.15414,-2.032832 7.50866,-2.485528 2.086575,-0.401179 8.362115,-0.538445 9.717455,-0.212552 1.47982,0.355822 0.41931,-0.177847 -1.38165,-0.695276 -2.87865,-0.827056 -7.4792,-1.185569 -10.624315,-0.827934 -4.99083,0.567515 -8.11295,1.977122 -11.33333,5.116878 l -1.35067,1.316865 -1.62135,-1.79644 c -0.89175,-0.988042 -1.5341,-1.875015 -1.42745,-1.971051 0.10664,-0.09604 0.84875,-0.382548 1.64911,-0.636694 0.80036,-0.254146 2.95478,-1.097387 4.78759,-1.873868 4.26916,-1.808653 7.20228,-2.651478 10.4842,-3.012613 4.416055,-0.485931 9.203515,0.333823 13.234865,2.266199 3.55828,1.705615 3.57822,3.057297 0.11864,8.044403 -2.42166,3.490918 -5.78421,6.788878 -8.04419,7.889658 -3.15591,1.53719 -6.777455,1.98185 -10.130065,1.2438 z M 31.491502,19.90165 C 25.308035,16.589576 21.914495,10.616361 22.70081,4.4285174 c 0.319172,-2.511699 0.834036,-4.27459499 1.292234,-4.42461099 0.167116,-0.05472 0.507249,0.471955 0.75585,1.17037699 2.36986,6.657898 5.472584,9.3774116 11.877635,10.4106576 2.060867,0.332454 2.312706,0.539009 1.607395,1.318369 -0.222326,0.245667 -1.264122,2.100051 -2.315104,4.120853 -1.050981,2.020802 -2.089468,3.702543 -2.307749,3.737202 -0.218282,0.03466 -1.172088,-0.352212 -2.119569,-0.859715 z m 49.013393,0.600304 c -0.14674,-0.181901 -0.82941,-1.461823 -1.51705,-2.844271 -0.68763,-1.382448 -1.72184,-3.209398 -2.29824,-4.059889 -0.5764,-0.850492 -1.00963,-1.578769 -0.96274,-1.618393 0.0469,-0.03963 1.00957,-0.206484 2.1393,-0.370799 6.20473,-0.902455 9.29697,-3.5299246 11.71068,-9.9505606 0.32982,-0.87733199 0.76044,-1.59514899 0.95694,-1.59514899 0.61612,0 1.08708,2.00112399 1.21986,5.18312499 0.14347,3.438212 -0.16394,4.9524346 -1.57692,7.7676256 -1.11076,2.213039 -4.50871,5.531219 -6.99497,6.830757 -2.08425,1.08941 -2.28809,1.139481 -2.67686,0.657554 z" /></svg>
