<?xml version="1.0" encoding="UTF-8" standalone="no"?>
<svg
   width="81.433006mm"
   height="100.17327mm"
   viewBox="0 0 81.433006 100.17327"
   version="1.1"
   xml:space="preserve"
   xmlns="http://www.w3.org/2000/svg"
   xmlns:svg="http://www.w3.org/2000/svg"><path
     style="fill:#000000"
     d="m 4.4805321,99.932359 c -0.903604,-0.36382 -2.609019,-2.25606 -3.23658,-3.59114 -1.98816905,-4.22965 -1.56822105,-7.77393 1.081253,-9.12559 1.047256,-0.53427 11.5006639,-3.00498 15.7689179,-3.72705 1.055026,-0.17848 1.918229,-0.40287 1.918229,-0.49865 0,-0.0958 -3.720702,-0.91424 -8.268228,-1.81882 -4.5475259,-0.90458 -8.7697549,-1.88301 -9.3827309,-2.17429 -1.97861505,-0.94024 -2.73985205,-3.00055 -2.06538105,-5.59002 0.73062605,-2.80506 2.61837105,-4.69163 4.69455305,-4.69163 0.953998,0 5.7880879,1.28033 18.9905369,5.02971 3.128702,0.88852 8.048452,2.27174 10.932792,3.07381 l 5.24425,1.45832 4.14846,-1.17766 c 2.28165,-0.64771 10.00309,-2.85866 17.15876,-4.91321 7.15567,-2.05455 13.32098,-3.73555 13.70069,-3.73555 1.6892,0 3.63169,1.55986 4.54268,3.64787 0.63432,1.45387 0.61792,3.94941 -0.0332,5.05572 -1.12551,1.91224 -1.56046,2.06014 -12.62394,4.29247 -3.74192,0.75503 -6.7536,1.45351 -6.69261,1.55219 0.061,0.0987 0.97944,0.33122 2.041,0.51677 3.99736,0.69866 14.22966,2.95391 15.70463,3.46138 2.45546,0.8448 3.29951,1.93679 3.3278,4.30532 0.0427,3.57039 -2.21693,7.58054 -4.74067,8.41345 -1.99059,0.656961 -4.09139,0.0828 -26.1613,-7.14968 l -9.03716,-2.96156 -3.79513,1.22666 c -2.08733,0.67467 -5.40248,1.74629 -7.36701,2.38138 -6.254222,2.02186 -17.776773,5.6334 -20.204078,6.33261 -2.3635599,0.680851 -4.5713989,0.840061 -5.6464939,0.40719 z m 30.6130719,-27.2484 c -3.99173,-0.67826 -8.529796,-2.77302 -11.954777,-5.5183 -4.267553,-3.42064 -7.654726,-8.68888 -9.125408,-14.1932 -0.626807,-2.34594 -0.706821,-3.12565 -0.705944,-6.87916 0.0011,-4.87764 0.232125,-5.97962 2.463641,-11.75351 1.686159,-4.36282 2.379803,-7.05211 2.385091,-9.24712 0.0034,-1.42916 0.06152,-1.63836 0.381168,-1.37307 0.984747,0.81727 3.574239,8.47843 3.977931,11.76895 l 0.192133,1.56608 0.736851,-1.74654 c 1.234058,-2.92506 2.953387,-5.17085 6.935024,-9.05854 2.08652,-2.03729 4.26466,-4.41795 4.84032,-5.29035 3.32668,-5.04154 4.69787,-11.7094685 3.83048,-18.6270935 -0.15226,-1.21425 -0.22384,-2.26071597 -0.15908,-2.32547997 0.21931,-0.219311 4.73407,5.05973997 6.70577,7.84097997 3.60405,5.0837835 5.8209,9.7925335 7.28263,15.4688135 0.80332,3.11952 0.82422,3.35299 0.85488,9.54771 0.0308,6.22815 0.0439,6.3724 0.68337,7.51719 0.89003,1.59341 1.79988,2.20413 3.48526,2.33943 1.7131,0.13752 2.93409,-0.56979 3.8512,-2.231 0.69845,-1.26511 1.21445,-4.76045 0.99112,-6.71374 -0.0823,-0.71982 -0.0551,-1.30875 0.0604,-1.30875 0.46583,0 1.96636,2.751 2.69679,4.94417 2.11867,6.36144 1.38639,14.07818 -1.96714,20.72978 -3.04529,6.04021 -9.07117,11.31004 -15.4759,13.53416 -1.89769,0.659 -4.84037,1.28015 -5.90547,1.24656 -0.8318,-0.0262 -0.82944,-0.0297 0.18459,-0.26772 1.75846,-0.41282 4.04931,-1.81993 5.58624,-3.43124 3.33369,-3.49502 4.38221,-8.44959 2.78902,-13.1789 -0.60172,-1.78618 -1.70962,-3.73307 -2.12434,-3.73307 -0.14074,0 -0.49886,0.47625 -0.79581,1.05834 -0.29696,0.58208 -0.74586,1.07244 -0.99757,1.08968 -1.6998,0.11644 -2.05683,-0.4632 -2.26775,-3.68164 -0.21646,-3.30305 -1.12195,-6.53146 -2.79794,-9.97575 -2.04676,-4.20625 -2.05057,-4.20669 -2.02685,-0.23108 0.026,4.35554 -0.37079,6.11489 -2.16868,9.61632 -1.93265,3.76388 -2.44121,5.29946 -2.44121,7.37105 v 1.72449 l -0.66615,-0.62581 c -0.95922,-0.90114 -1.87002,-3.01887 -2.21707,-5.15497 -0.46185,-2.84266 -0.84975,-4.36563 -1.11192,-4.36563 -0.13101,0 -0.2382,0.26153 -0.2382,0.58117 0,0.31965 -0.67021,2.53861 -1.48936,4.93102 -1.47592,4.31058 -1.48821,4.37197 -1.36129,6.79847 0.10608,2.02796 0.27127,2.7546 0.9616,4.22979 1.47906,3.16069 5.49385,6.39404 8.71824,7.02132 l 0.97602,0.18988 -1.19062,-6.9e-4 c -0.65485,-3.8e-4 -1.72641,-0.0917 -2.38125,-0.203 z" /></svg>
