<?xml version="1.0" encoding="UTF-8" standalone="no"?>
<svg
   width="98.815704mm"
   height="87.01516mm"
   viewBox="0 0 98.815704 87.01516"
   version="1.1"
   xml:space="preserve"
   xmlns="http://www.w3.org/2000/svg"
   xmlns:svg="http://www.w3.org/2000/svg"><path
     style="fill:#000000"
     d="m 6.42e-4,83.641757 c 0.0012,-6.14132 0.927925,-15.4336 2.275959,-22.82032 3.57191,-19.57271 11.423188,-36.07423 22.112508,-46.47522 l 2.217332,-2.15753 -0.0079,-2.7372665 c -0.007,-2.414234 0.07437,-2.91275 0.689312,-4.224229 1.518796,-3.239133 4.027736,-5.01244297 7.362434,-5.20374297 3.843856,-0.220509 6.216731,1.09476297 8.609091,4.77196797 0.2374,0.36489 0.50929,0.365787 2.64584,0.0087 3.14081,-0.524892 15.32486,-0.602176 19.05,-0.120835 11.98176,1.548215 22.59366,4.630159 31.65489,9.1933155 l 1.77515,0.89395 0.21831,1.52804 c 0.39084,2.73561 0.22994,6.13019 -0.38647,8.1536 -0.51169,1.67964 -2.26487,4.84669 -2.90043,5.23948 -0.14742,0.0911 -0.19855,1.50986 -0.12409,3.44293 0.26884,6.97867 -1.54328,13.28723 -5.09813,17.74822 -1.51275,1.89835 -3.50004,3.75244 -3.75198,3.5005 -0.083,-0.0831 0.38429,-0.78181 1.03853,-1.5528 3.31996,-3.91244 5.05396,-8.2167 5.77577,-14.3371 0.28479,-2.41472 0.23589,-6.34046 -0.0829,-6.65929 -0.0761,-0.0761 -0.56133,0.11116 -1.07828,0.41617 -0.88897,0.5245 -0.94946,0.65052 -1.11651,2.32585 -0.47756,4.78943 -1.69796,8.42962 -3.9646,11.82547 -1.4524,2.17599 -3.69576,4.59333 -3.98982,4.29927 -0.0911,-0.0911 0.38728,-0.84442 1.06308,-1.67404 2.39428,-2.93922 4.26082,-7.90989 4.84041,-12.89016 0.25055,-2.15298 0.13536,-2.37494 -0.92388,-1.78026 -1.05603,0.59288 -3.95594,1.64141 -9.12242,3.29842 -6.96667,2.23437 -9.73111,3.59166 -12.08732,5.93465 -1.89811,1.88746 -3.41355,4.47322 -3.97405,6.78087 -0.39417,1.6228 -0.41416,6.01195 -0.038,8.33438 0.94037,5.80538 3.41256,11.96478 9.10411,22.68268 1.40873,2.65281 2.56133,5.0043 2.56133,5.22552 0,0.35799 -4.08743,0.40221 -37.173953,0.40221 H 0 Z m 70.775396,-50.35326 c 2.83617,-1.93649 9.80052,-4.84558 13.22917,-5.52597 2.36471,-0.46926 2.51354,-0.53399 2.51354,-1.09329 0,-0.45409 -0.13197,-0.49559 -1.12448,-0.35367 -2.39462,0.34242 -5.69063,1.22204 -7.7971,2.08083 -2.37478,0.96819 -6.08,3.30268 -7.33365,4.6206 -0.89069,0.93635 -0.64884,1.06446 0.51252,0.2715 z m 1.10858,-7.01912 c 3.24128,-1.05812 7.17132,-1.73443 10.98266,-1.88997 2.74862,-0.11218 3.65872,-0.2369 3.76585,-0.51608 0.22998,-0.59933 -0.58978,-0.74586 -4.08313,-0.72987 -3.52025,0.0161 -6.33873,0.48139 -9.47105,1.56347 -2.42497,0.83772 -5.34562,2.18575 -5.34562,2.46727 0,0.50319 0.37359,0.5451 1.29038,0.14478 0.52722,-0.23022 1.81463,-0.69804 2.86091,-1.0396 z m 15.42788,-5.38977 c 0,-0.56293 -1.20601,-1.02327 -4.24945,-1.62203 -3.34334,-0.65776 -14.05233,0.33153 -13.16746,1.2164 0.0736,0.0736 1.37335,0.002 2.88837,-0.15866 3.40832,-0.36186 8.64208,-0.11866 11.48583,0.53373 2.82978,0.64918 3.04271,0.65132 3.04271,0.0306 z m -47.25716,-2.85452 c -1.54974,-3.55106 -1.630669,-4.03459 -1.29615,-7.744299 0.24945,-2.7664235 0.0579,-3.0301675 -2.072899,-2.8534685 -1.785228,0.148045 -2.851016,0.88738 -3.646868,2.529825 -0.773322,1.5959525 -0.778324,3.5000925 -0.01314,4.9999825 1.077253,2.11159 4.117157,4.01384 6.466317,4.04636 l 0.99574,0.0138 z m 23.39113,-0.36886 c 1.34332,-0.65029 2.56296,-2.34024 2.8301,-3.92144 0.35341,-2.09181 -1.04238,-4.6703195 -2.96238,-5.4725465 -1.02381,-0.427776 -3.19449,-0.466813 -4.22874,-0.07605 -1.77742,0.671558 -3.25837,2.8886155 -3.25837,4.8779665 0,3.81968 4.10469,6.29351 7.61939,4.59207 z m -2.98918,-2.06408 c -1.06697,-0.4367 -1.5875,-1.32521 -1.5875,-2.70977 0,-1.15298 0.10752,-1.41291 0.86407,-2.088886 1.14354,-1.0217535 2.59145,-1.0584235 3.73684,-0.09464 2.48003,2.086806 -0.006,6.124116 -3.01341,4.893296 z" /></svg>
