<?xml version="1.0" encoding="UTF-8" standalone="no"?>
<svg
   width="32.796963mm"
   height="58.793827mm"
   viewBox="0 0 32.796963 58.793827"
   version="1.1"
   xml:space="preserve"
   xmlns="http://www.w3.org/2000/svg"
   xmlns:svg="http://www.w3.org/2000/svg"><defs
     id="defs1"><rect
       x="223.47206"
       y="332.80283"
       width="139.06873"
       height="235.27979" /></defs><path
     style="font-size:133.333px;line-height:0.9;font-family:Futura-CondensedBold;-inkscape-font-specification:Futura-CondensedBold;text-align:center;writing-mode:lr-tb;direction:ltr;text-anchor:middle;white-space:pre;shape-inside:url(#rect2);fill:#000000;stroke-width:0.264583"
     d="M 7.2693238,0 C 4.6740259,0 2.8592542,0.70067751 1.8257282,2.101678 0.81517066,3.5026811 0.31005991,5.5469551 0.31005991,8.2341216 0.33302575,8.7164332 0.36747714,9.1987501 0.41341145,9.6810617 H 5.2709974 L 5.2022665,7.9927925 c 0,-2.8709064 0.7001616,-4.3061969 2.1011647,-4.3061969 0.7579175,0 1.2979982,0.3328565 1.6195384,0.9989053 0.3445087,0.6660488 0.5167657,1.4356318 0.5167657,2.3083864 0,0.895723 -0.2300209,1.9748473 -0.689364,3.2380447 -0.4363773,1.263198 -0.81534,2.205035 -1.1368828,2.825152 -0.3215402,0.620115 -0.8611023,1.619197 -1.6190224,2.997232 L 0,27.043827 H 13.987261 V 22.462193 H 7.8201942 l 4.4441748,-8.440311 c 1.446934,-2.779038 2.170408,-5.190617 2.170408,-7.2347005 0,-2.2278233 -0.631258,-3.9159285 -1.894456,-5.0642916 C 11.277121,0.57452947 9.520113,0 7.2693238,0 Z M 24.49463,0.03462073 c -1.217266,0 -2.296906,0.33285641 -3.238564,0.99890787 -0.918688,0.6660489 -1.642162,1.4928771 -2.170408,2.4804688 -0.50528,0.9646231 -0.918695,2.1015113 -1.240235,3.4106431 -0.344508,1.3091319 -0.562872,2.5037838 -0.65474,3.5832445 -0.114837,1.07946 -0.172083,2.158584 -0.172083,3.238044 0,1.079461 0.05725,2.159104 0.172083,3.238564 0.09187,1.102426 0.310232,2.296559 0.65474,3.582725 0.32154,1.309135 0.734955,2.457678 1.240235,3.44527 0.528246,0.964623 1.25172,1.779794 2.170408,2.445845 0.941658,0.689017 2.021298,1.033529 3.238564,1.033529 1.217263,0 2.296387,-0.344512 3.238045,-1.033529 0.918689,-0.666051 1.642163,-1.481222 2.170409,-2.445845 0.50528,-0.987592 0.930349,-2.136135 1.274857,-3.44527 0.321543,-1.286166 0.539906,-2.480299 0.654741,-3.582725 0.09187,-1.07946 0.137459,-2.159103 0.137459,-3.238564 0,-1.07946 -0.04559,-2.158584 -0.137459,-3.238044 C 31.717847,9.4284243 31.499484,8.2337724 31.177941,6.9246405 30.833433,5.6155087 30.408364,4.4786205 29.903084,3.5139974 29.374838,2.5264057 28.651364,1.6995775 27.732675,1.0335286 26.791017,0.36747714 25.711893,0.03462073 24.49463,0.03462073 Z m 0,4.78885507 c 0.803852,0 1.400662,0.6890226 1.791105,2.0670573 0.390443,1.2632002 0.586009,3.5481129 0.586009,6.8553959 v 0.413412 c 0.04594,5.67291 -0.746439,8.509558 -2.377114,8.509558 -0.780886,-0.02297 -1.378212,-0.700333 -1.791623,-2.032434 -0.367475,-1.263197 -0.551387,-3.560286 -0.551387,-6.890536 v -0.413411 c -0.0689,-5.67291 0.712335,-8.5090422 2.34301,-8.5090422 z M 7.2693238,31.75 c -2.5952979,0 -4.4100696,0.700677 -5.4435956,2.10168 -1.01055754,1.401001 -1.51566829,3.444756 -1.51566829,6.131925 0.0229658,0.482312 0.0574172,0.964629 0.10335154,1.44694 H 5.2709974 l -0.068731,-1.687753 c 0,-2.870904 0.7001616,-4.306713 2.1011647,-4.306713 0.7579175,0 1.2979982,0.333373 1.6195384,0.999421 0.3445087,0.666052 0.5167657,1.435116 0.5167657,2.307871 0,0.895723 -0.2300209,1.975363 -0.689364,3.238561 -0.4363773,1.2632 -0.81534,2.205035 -1.1368828,2.825152 -0.3215402,0.620114 -0.8611023,1.619197 -1.6190224,2.997231 L 0,58.793826 H 13.987261 V 54.212193 H 7.8201942 l 4.4441748,-8.440827 c 1.446934,-2.779038 2.170408,-5.190617 2.170408,-7.234701 0,-2.227823 -0.631258,-3.915928 -1.894456,-5.064291 C 11.277121,32.324013 9.520113,31.75 7.2693238,31.75 Z m 11.1615932,0.448034 v 4.581631 h 7.16597 c -2.75607,7.349519 -5.523815,14.687611 -8.302853,22.014161 h 5.477703 L 32.796964,32.198034 Z" /></svg>
