<?xml version="1.0" encoding="UTF-8" standalone="no"?>
<svg
   width="77.236115mm"
   height="118.79998mm"
   viewBox="0 0 77.236115 118.79998"
   version="1.1"
   xmlns="http://www.w3.org/2000/svg"
   xmlns:svg="http://www.w3.org/2000/svg">
  <path
     style="fill:#000000;fill-opacity:1;stroke-width:0.264583"
     d="M 9.999906,0 C 4.459906,0 0,4.459906 0,9.999906 v 98.800174 c 0,5.54 4.459906,9.9999 9.999906,9.9999 h 57.236299 c 5.54,0 9.99991,-4.4599 9.99991,-9.9999 V 9.999906 C 77.236115,4.459906 72.776205,0 67.236205,0 Z m 14.581022,9.664526 c 3.624916,0 6.454496,0.925061 8.488888,2.774506 2.034389,1.84945 3.051489,4.56817 3.051489,8.15609 0,3.29202 -1.16509,7.17583 -3.49539,11.65149 l -7.157702,13.59348 h 9.931692 v 7.3794 H 12.873632 l 9.654192,-17.6997 c 1.220634,-2.21933 2.089747,-3.82787 2.607592,-4.82658 0.517845,-0.9987 1.128107,-2.51571 1.830896,-4.55011 0.739779,-2.03439 1.11001,-3.77261 1.11001,-5.21518 0,-1.40558 -0.277673,-2.64492 -0.832507,-3.7176 -0.517845,-1.07268 -1.386958,-1.60869 -2.607593,-1.60869 -2.256325,0 -3.38429,2.31188 -3.38429,6.93549 l 0.110588,2.7187 h -7.822778 c -0.07398,-0.77677 -0.129926,-1.55384 -0.166915,-2.33061 0,-4.3277 0.814198,-7.61955 2.441711,-9.87588 1.664502,-2.256324 4.586641,-3.384806 8.76639,-3.384806 z m 27.741457,0.05581 c 1.96042,0 3.69916,0.536525 5.2157,1.609205 1.47956,1.07268 2.64465,2.40406 3.4954,3.99459 0.81376,1.55353 1.49775,3.38432 2.05259,5.49269 0.51784,2.10836 0.86925,4.03171 1.0542,5.77019 0.14795,1.73848 0.2222,3.47722 0.2222,5.2157 0,1.73848 -0.0743,3.4767 -0.2222,5.21518 -0.18495,1.77547 -0.53636,3.69933 -1.0542,5.77071 -0.55484,2.10837 -1.23883,3.95746 -2.05259,5.54798 -0.85075,1.55354 -2.01584,2.86662 -3.4954,3.9393 -1.51654,1.10966 -3.25528,1.66449 -5.2157,1.66449 -1.96041,0 -3.69864,-0.55483 -5.21518,-1.66449 -1.47956,-1.07268 -2.64517,-2.38576 -3.49591,-3.9393 -0.81376,-1.59052 -1.47945,-3.43961 -1.9973,-5.54798 -0.55483,-2.07138 -0.90624,-3.99524 -1.0542,-5.77071 -0.18494,-1.73848 -0.2775,-3.4767 -0.2775,-5.21518 0,-1.73848 0.0926,-3.47722 0.2775,-5.2157 0.14796,-1.73848 0.49937,-3.66183 1.0542,-5.77019 0.51785,-2.10837 1.18354,-3.93916 1.9973,-5.49269 0.85074,-1.59053 2.01635,-2.92191 3.49591,-3.99459 1.51654,-1.07268 3.25477,-1.609205 5.21518,-1.609205 z m 0,7.712195 c -2.62621,0 -3.88386,4.56832 -3.77289,13.70459 v 0.66559 c 0,5.36339 0.29597,9.06209 0.8878,11.09648 0.6658,2.14536 1.62747,3.23671 2.88509,3.2737 2.62622,0 3.90217,-4.56832 3.82819,-13.70459 v -0.66559 c 0,-5.32641 -0.31428,-9.0068 -0.94309,-11.04119 -0.62881,-2.21933 -1.59049,-3.32899 -2.8851,-3.32899 z M 24.580928,65.581012 c 3.624916,0 6.454496,0.92454 8.488888,2.77399 2.034389,1.84945 3.051489,4.56816 3.051489,8.15609 0,3.29201 -1.16509,7.17582 -3.49539,11.65149 l -7.157702,13.593478 h 9.931692 v 7.3794 H 12.873632 l 9.654192,-17.699178 c 1.220634,-2.21934 2.089747,-3.8284 2.607592,-4.8271 0.517845,-0.9987 1.128107,-2.5152 1.830896,-4.54959 0.739779,-2.03439 1.11001,-3.77314 1.11001,-5.2157 0,-1.40558 -0.277673,-2.64493 -0.832507,-3.71761 -0.517845,-1.07268 -1.386958,-1.60868 -2.607593,-1.60868 -2.256325,0 -3.38429,2.31187 -3.38429,6.93549 l 0.110588,2.7187 h -7.822778 c -0.07398,-0.77677 -0.129926,-1.55384 -0.166915,-2.33061 0,-4.3277 0.814198,-7.61956 2.441711,-9.87588 1.664502,-2.25633 4.586641,-3.38429 8.76639,-3.38429 z m 27.519767,0.0553 c 3.40298,0 6.06575,0.9988 7.98918,2.9962 1.92342,1.9974 2.88509,4.73443 2.88509,8.21139 0,5.3264 -1.77535,8.69251 -5.32629,10.09809 v 0.1111 c 2.25633,0.55484 3.92082,1.75654 4.9935,3.60598 1.07267,1.88644 1.6092,4.06915 1.6092,6.54741 0,3.920818 -1.12796,7.009258 -3.38429,9.265578 -2.25632,2.25633 -5.34527,3.38429 -9.2661,3.38429 -3.58793,0 -6.41751,-1.09084 -8.48889,-3.27318 -2.03439,-2.18235 -2.95893,-5.06788 -2.77399,-8.655808 h 7.93388 l -0.0553,1.16531 c 0,0.85074 0.27716,1.608988 0.83199,2.274788 0.55483,0.70279 1.35021,1.0542 2.3859,1.0542 0.81376,0 1.49827,-0.16629 2.05311,-0.49919 0.51784,-0.36989 0.88756,-0.88759 1.10949,-1.55339 0.18494,-0.702788 0.31463,-1.350178 0.38861,-1.942008 0.074,-0.59182 0.11058,-1.27633 0.11058,-2.0531 0,-2.36729 -0.46227,-3.97635 -1.38699,-4.8271 -0.92473,-0.85074 -2.58922,-1.23876 -4.9935,-1.16478 v -7.3794 c 2.40428,0 4.0876,-0.37023 5.04931,-1.11001 0.92472,-0.73978 1.38699,-2.23745 1.38699,-4.49378 0,-2.92212 -0.96167,-4.38319 -2.88509,-4.38319 -1.88644,0 -2.8298,1.47937 -2.8298,4.43848 v 0.83251 h -7.32359 c -0.18494,-3.77287 0.49906,-6.82469 2.05259,-9.15499 1.59053,-2.33031 4.23551,-3.4954 7.9344,-3.4954 z" />
</svg>
