<?xml version="1.0" encoding="UTF-8" standalone="no"?>
<svg
   width="88.044617mm"
   height="89.789871mm"
   viewBox="0 0 88.044617 89.789871"
   version="1.1"
   xml:space="preserve"
   xmlns="http://www.w3.org/2000/svg"
   xmlns:svg="http://www.w3.org/2000/svg"><path
     style="fill:#000000"
     d="M 35.805148,89.51511 C 26.181798,88.6847 19.84214,86.43746 15.798956,82.42345 12.056135,78.70763 11.340869,76.43959 11.335101,68.26899 11.331401,62.96274 11.514074,62.50357 10.735878,61.85466 9.068324,60.46415 9.093567,61.00831 5.89328,58.56806 2.30371,56.19676 0.182837,53.20027 0.013644,50.26096 c -0.112989,-1.96292 0.470369,-3.17277 1.952382,-4.04912 1.484011,-0.87753 3.854165,-0.67034 6.798608,0.59433 1.205299,0.51768 2.275851,0.94125 2.379005,0.94125 0.103153,0 0.187552,-0.63574 0.187552,-1.41274 0,-1.70334 0.20701,-1.84018 3.658131,-2.41823 7.177311,-1.20218 31.619848,-1.79684 42.575951,-1.03583 l 2.18096,0.15149 -0.76268,1.10088 -0.76268,1.10088 -14.250573,0.0241 c -15.259365,0.0258 -29.617134,0.57249 -29.082374,1.10725 0.260411,0.26041 5.495226,0.80805 11.043577,1.15532 6.852329,0.42888 28.34012,0.43464 35.14135,0.009 5.77067,-0.36078 10.51342,-0.80502 11.1125,-1.04086 0.46708,-0.18387 -1.70496,-0.53742 -3.50573,-0.57063 -1.39533,-0.0257 -1.45112,-0.12683 -0.81089,-1.46941 0.35031,-0.73461 0.6014,-0.93502 1.17148,-0.93502 1.39878,0 4.83382,0.57394 5.83671,0.97521 0.99843,0.3995 1.0126,0.42512 1.0126,1.83165 0,0.80519 0.11906,1.42648 0.27338,1.42648 0.15036,0 0.83496,-0.28438 1.52135,-0.63196 3.80281,-1.92566 7.03247,-1.94593 8.77661,-0.055 0.51601,0.55942 0.67207,1.05919 0.7595,2.43222 0.0999,1.56952 0.0215,1.90717 -0.8542,3.67912 -1.05349,2.13159 -3.32781,3.97837 -5.60467,5.74637 -1.72562,1.33995 -3.60736,2.01732 -4.27666,2.93654 -0.57174,0.83983 -0.59531,1.09947 -0.59531,6.55718 0,6.33615 -0.21395,7.67406 -1.6619,10.39232 -2.73953,5.14298 -8.84845,8.62767 -17.65268,10.06956 -5.52246,0.90442 -14.506484,1.18186 -20.769795,0.64139 z M 11.120964,55.65298 c -0.02301,-1.90794 -0.157807,-3.34579 -0.33352,-3.55751 -0.425276,-0.51242 -2.33317,-1.57723 -3.5052,-1.95628 -3.844362,-1.24329 -3.381168,3.22818 0.670402,6.47177 0.727081,0.58208 1.695317,1.37591 2.151635,1.76407 0.456319,0.38815 0.880436,0.65497 0.942483,0.59292 0.06205,-0.062 0.09544,-1.55378 0.0742,-3.31497 z m 67.105439,1.78712 c 3.09331,-2.4681 4.2777,-4.16202 4.2777,-6.11798 0,-1.87002 -2.08445,-1.86162 -4.96094,0.02 l -1.38906,0.90864 v 3.30459 c 0,1.81752 0.0659,3.30458 0.14642,3.30458 0.0805,0 0.94717,-0.63891 1.92588,-1.41981 z M 60.169943,45.30951 c 0.1091,-0.18712 1.75588,-2.66194 3.6595,-5.49959 l 3.46112,-5.15938 0.02,-1.5987 c 0.019,-1.52139 0.18724,-1.91805 3.47895,-8.20209 4.8102,-9.18292 8.58909,-15.9065196 9.45657,-16.8256096 1.96277,-2.07955 4.79278,-2.02745 6.6809,0.123 0.91856,1.04618 1.28054,2.3431296 1.05018,3.7626796 -0.22837,1.40729 -4.57074,8.19696 -11.24426,17.58135 -3.67526,5.1682 -4.44347,6.08541 -5.09688,6.08541 -0.87757,0 -1.57685,0.97716 -3.88151,5.42396 l -2.33116,4.49792 -2.72588,0.0756 c -2.16314,0.06 -2.68493,0.005 -2.5275,-0.26459 z M 30.792235,37.6271 c -0.05583,-0.1819 -0.172193,-0.92604 -0.258579,-1.65364 -0.08639,-0.72761 -0.410226,-2.08618 -0.719644,-3.01905 -0.570744,-1.72076 -1.330735,-2.64957 -4.4251,-5.40808 -1.419871,-1.26577 -2.142511,-2.80426 -2.131272,-4.53746 0.01024,-1.57858 0.762105,-3.70416 1.31025,-3.70416 0.216643,0 0.342484,0.17604 0.283702,0.39687 -0.771288,2.89765 -0.02365,4.35655 3.015077,5.88344 0.873664,0.43899 1.915442,1.029 2.315062,1.31111 1.086919,0.76733 2.059956,2.6348 2.315743,4.44441 0.25307,1.7904 -0.09321,4.71541 -0.697261,5.88969 -0.396663,0.77112 -0.839581,0.94551 -1.007978,0.39687 z m 14.455959,-0.59141 c -1.026786,-1.30535 -1.444883,-3.14754 -1.313165,-5.78598 0.104335,-2.08994 0.276446,-2.7989 1.261927,-5.19813 1.799728,-4.38156 1.601676,-5.87893 -1.244611,-9.40982 -0.711423,-0.88254 -1.518485,-2.07316 -1.793473,-2.64583 -0.626337,-1.30437 -0.647784,-4.0620596 -0.04275,-5.4963296 0.551201,-1.30664 1.959367,-3.08552 2.442504,-3.08552 0.514187,0 0.471,0.7779 -0.07679,1.38321 -0.292105,0.32277 -0.486145,1.07718 -0.549781,2.1375 -0.129429,2.1565796 0.593833,3.5286496 2.874556,5.4531896 2.225032,1.87754 3.319472,3.43063 3.696152,5.24509 0.56871,2.73945 -0.11805,5.18296 -2.40188,8.54606 -2.269749,3.34235 -2.987651,5.84715 -2.271564,7.92561 0.48676,1.41283 0.181978,1.90108 -0.581126,0.93095 z m 10.571009,-2.1177 c -0.78056,-0.88901 -1.62709,-3.08766 -1.62404,-4.21808 0.003,-1.19963 0.61226,-2.61489 1.69985,-3.95017 0.62873,-0.7719 1.27704,-1.65365 1.4407,-1.95945 0.43013,-0.80371 0.37071,-2.58195 -0.0993,-2.97204 -0.49097,-0.40748 -0.51934,-1.05833 -0.0461,-1.05833 0.47667,0 1.40389,1.02649 1.74829,1.93545 0.15521,0.40966 0.28221,1.43385 0.28221,2.27598 0,1.20476 -0.13837,1.72278 -0.64911,2.43017 -1.6454,2.27891 -2.10321,3.25796 -2.20931,4.7248 -0.0695,0.96077 0.0366,1.82724 0.30133,2.46081 0.5468,1.30868 0.15041,1.46399 -0.84448,0.33086 z M 36.347665,30.83568 c -0.08259,-0.13364 0.02944,-0.93256 0.248968,-1.77538 0.511851,-1.96512 0.505719,-3.61211 -0.02004,-5.38253 C 36.009318,21.76754 35.196801,20.55016 32.768531,17.97222 30.4634,15.525 29.454705,13.72105 29.023903,11.27535 28.45008,8.0177104 29.561567,4.9102604 32.333426,2.0227214 c 1.795603,-1.87053798 2.293023,-2.21997498 2.754302,-1.93488898 0.22216,0.137303 0.01516,0.784745 -0.716588,2.24134198 -1.25271,2.493596 -1.716657,4.824686 -1.347574,6.770856 0.373315,1.9684796 1.008624,3.2692996 2.888639,5.9146096 2.395761,3.371 3.016447,4.87065 3.149783,7.61024 0.133163,2.73603 -0.248416,4.73339 -1.310199,6.85821 -0.774051,1.54901 -1.092902,1.85616 -1.404124,1.35259 z" /></svg>
