<?xml version="1.0" encoding="UTF-8" standalone="no"?>
<svg
   width="86.916679mm"
   height="86.391525mm"
   viewBox="0 0 86.916679 86.391525"
   version="1.1"
   xml:space="preserve"
   xmlns="http://www.w3.org/2000/svg"
   xmlns:svg="http://www.w3.org/2000/svg"><path
     style="fill:#000000"
     d="m 82.099259,84.872484 c -2.27781,1.66722 -4.40769,1.97252 -6.02805,0.86408 -0.66001,-0.45149 -0.89186,-0.84759 -1.27265,-2.17426 -0.44246,-1.54146 -0.59445,-1.76225 -3.05376,-4.4359 -4.17909,-4.54331 -14.0426,-14.98357 -16.12781,-17.07086 -1.88657,-1.88841 -1.93089,-1.91651 -2.29088,-1.45089 -0.20189,0.26115 -0.45126,0.43273 -0.55418,0.38126 -0.54446,-0.27223 -0.90622,-0.90962 -1.10473,-1.94664 -0.12183,-0.63632 -0.46874,-1.40417 -0.7709,-1.70634 -0.41989,-0.41989 -0.47214,-0.67842 -0.22166,-1.09677 l 0.32774,-0.54738 -7.019989,-7.26687 c -3.860994,-3.99678 -8.297,-8.54412 -9.857785,-10.1052 l -2.837799,-2.83833 -1.303107,0.66132 c -0.716713,0.36373 -1.3411,0.66566 -1.387535,0.67095 -0.04644,0.005 -0.574736,-0.81767 -1.174009,-1.82882 -2.050805,-3.46031 -4.046226,-4.83883 -6.143477,-4.24419 -0.89976,0.25512 -1.263337,0.56882 -3.700522,3.19285 -6.906924,7.43644 -12.3571395,17.31088 -14.0789585,25.50757 -0.562421,2.6774 -0.692912,2.69433 -1.73525,0.22512 -1.64877803,-3.90581 -2.19541303,-9.74692 -1.41145403,-15.08214 1.09459203,-7.44926 4.38159903,-14.76718 9.94645153,-22.14395 l 1.97298,-2.61538 -1.183957,-0.22583 c -0.651176,-0.12421 -1.2146125,-0.3557 -1.2520805,-0.51442 -0.03747,-0.15872 0.2900675,-0.75634 0.7278595,-1.32804 0.646081,-0.84371 0.732025,-1.12483 0.45636,-1.4927 -0.563611,-0.75213 0.04505,-1.93317 2.011069,-3.90228 2.063953,-2.0672 3.448614,-2.7746204 4.252021,-2.17235 0.397492,0.29793 0.676868,0.2408 1.427715,-0.2920204 1.361318,-0.96602 1.491844,-0.934 1.770341,0.4343004 0.138255,0.67921 0.316752,1.2336 0.396669,1.23196 0.0799,-0.002 1.509241,-0.99638 3.176288,-2.2105004 5.007455,-3.64699 10.502756,-6.44876 15.488679,-7.896882 6.784541,-1.97051598 13.88325,-1.93511098 19.35372,0.09653 2.02604,0.752446 3.54782,1.588602 3.31498,1.821442 -0.0724,0.0724 -0.99267,0.30202 -2.0451,0.51032 -4.33042,0.85712 -10.81531,3.51904 -15.817819,6.4929204 -5.193685,3.08753 -11.593129,8.34076 -12.60309,10.34575 -1.057556,2.09945 0.83561,4.52491 5.449467,6.98171 0.318488,0.16959 0.24707,0.50787 -0.328253,1.55479 l -0.735306,1.33804 3.128785,3.12823 c 1.720836,1.72053 6.280253,6.16839 10.132056,9.88412 l 7.00327,6.7559 0.54705,-0.32756 c 0.40982,-0.24537 0.67798,-0.19661 1.06894,0.19435 0.28705,0.28704 1.09775,0.67883 1.80158,0.87065 0.70384,0.19182 1.48066,0.54769 1.72628,0.79083 0.39635,0.39211 0.37066,0.4927 -0.22692,0.8911 -0.56318,0.37544 -0.61409,0.50844 -0.31062,0.81191 1.11748,1.11748 18.50701,17.38305 19.96456,18.67418 1.37636,1.21919 1.97953,1.5933 2.90679,1.80289 2.71831,0.61444 3.71877,2.7956 2.58129,5.62766 -0.60576,1.5082 -2.62587,3.90793 -4.35529,5.17377 z" /></svg>
