<?xml version="1.0" encoding="UTF-8" standalone="no"?>
<svg
   width="74.75087mm"
   height="103.93961mm"
   viewBox="0 0 74.75087 103.93961"
   version="1.1"
   xml:space="preserve"
   xmlns="http://www.w3.org/2000/svg"
   xmlns:svg="http://www.w3.org/2000/svg"><path
     style="display:inline;fill:#000000"
     d="M 30.909133,7.1293497e-4 C 30.367363,-0.00278707 29.821263,0.00661293 29.270473,0.02862293 21.586047,0.33632293 14.770911,3.2803649 8.9916117,8.7888119 l -1.975073,1.8825731 5.17e-4,4.830192 5.16e-4,4.83019 23.6140613,-0.0677 23.61406,-0.0677 0.0718,-4.65398 0.0724,-4.654488 -2.25464,-2.1647261 C 46.145893,2.9731489 39.035833,0.05256993 30.909153,7.0793497e-4 Z M 30.565493,2.5039189 c 4.17098,-0.0068 4.8814,0.0602 7.1608,0.678512 4.46701,1.211725 8.55541,3.566846 11.94449,6.8802001 l 1.97559,1.931665 -0.11265,2.976561 -0.11318,2.97656 h -20.70209 c -11.386257,0 -20.7818213,-0.0792 -20.8788313,-0.17621 -0.09701,-0.097 -0.176216,-1.4504 -0.176216,-3.00757 V 11.932285 L 11.788341,9.9019169 c 3.571633,-3.412318 7.275922,-5.501079 12.116056,-6.832141 1.700666,-0.467697 2.783566,-0.559557 6.661096,-0.565857 z m -0.076,1.227316 c -6.380126,-0.0075 -12.57251,2.484875 -17.521926,7.1148111 l -1.716691,1.605591 v 1.9544 1.95388 h 19.446877 19.44687 v -1.81642 c 0,-2.20106 -0.19379,-2.491104 -3.40702,-5.0989161 -2.50013,-2.029077 -6.53545,-4.152845 -9.18446,-4.833813 -0.88618,-0.227807 -2.83038,-0.552974 -4.32066,-0.722437 -0.91603,-0.104163 -1.83154,-0.156026 -2.74299,-0.157096 z m 1.61386,1.226798 0.4532,2.09858 c 0.43695,2.022287 0.77788,2.942905 0.9927,2.680973 0.0562,-0.06855 0.66458,-1.03797 1.35186,-2.15439 l 1.24953,-2.02985 1.83297,0.971517 c 1.00817,0.534336 1.83561,1.090579 1.83761,1.2361 0.002,0.14552 -0.72228,1.153257 -1.61024,2.2396561 -0.88797,1.086399 -1.4955,2.015387 -1.34978,2.063957 0.14572,0.04857 1.70362,-0.513197 3.46232,-1.247986 1.7587,-0.73479 3.29346,-1.3358351 3.41012,-1.3358351 0.25592,0 1.91307,3.2999921 1.91307,3.8095821 0,0.23968 -0.64074,0.47115 -1.91823,0.6935 -1.82354,0.31739 -21.339728,0.62805 -22.952607,0.36535 -0.363802,-0.0592 -1.554427,-0.23837 -2.645834,-0.39842 -1.091406,-0.16005 -2.128622,-0.37046 -2.304769,-0.46716 -0.229657,-0.12609 -0.04727,-0.71709 0.644406,-2.089274 0.530513,-1.052461 1.048533,-1.9135781 1.150834,-1.9135781 0.1023,0 1.479136,0.5451381 3.059761,1.2112951 4.538899,1.912937 4.529849,1.916017 2.34456,-0.8263061 -0.800365,-1.004378 -1.455208,-1.976416 -1.455208,-2.160075 0,-0.262817 1.445492,-1.153027 3.464388,-2.13372 0.08642,-0.04198 0.735249,0.879735 1.441769,2.048454 0.70652,1.168718 1.37759,2.124935 1.49138,2.124935 0.22538,0 0.31781,-0.325802 0.82631,-2.910417 l 0.33848,-1.719791 1.4857,-0.07855 z m 37.50985,16.9953441 c -1.05163,0.0307 -2.13932,0.38096 -3.13107,1.11311 -1.6539,1.22097 -2.23971,4.04115 -1.27899,6.15673 0.47073,1.03658 1.99192,2.48254 2.61172,2.48254 0.15957,0 0.36145,0.11539 0.44855,0.25631 0.13881,0.22461 -0.65699,13.7117 -1.07383,18.19838 -0.14221,1.53068 -0.20149,1.65364 -0.79427,1.65364 -0.60219,0 -0.64027,-0.0897 -0.64027,-1.50068 0,-1.78506 -0.47601,-2.47904 -1.71928,-2.46807 l -3.00188,0.0264 c -0.0365,-8.2869 -0.0819,-14.93677 -0.13177,-17.08165 l -0.16589,-7.13393 -0.67179,-0.67128 -0.67128,-0.67179 -28.32333,-0.0698 c -7.691459,-0.0189 -13.388804,-0.0359 -17.619598,-0.0284 -12.69238427,0.0226 -12.1862633,0.26852 -12.73048927,1.36685 -0.397442,0.80209 -0.884748,50.03665 -0.665076,67.19331 l 0.168465,13.164573 30.45085827,-0.0677 30.45085,-0.0672 -0.0284,-32.940633 c -0.003,-3.58755 -0.0192,-6.57127 -0.0274,-10.04331 1.09568,0.49267 4.66785,0.39602 4.56561,-2.90164 -0.005,-0.15266 -0.0733,-0.42591 0.0155,-0.65732 0.13436,-0.35013 0.66128,-0.42065 3.13934,-0.42065 h 2.97811 l 0.17932,-1.98179 c 0.23089,-2.54797 -0.0106,-3.04529 -1.47795,-3.04529 h -1.08779 l 0.16485,-2.18281 c 0.0907,-1.20054 0.34876,-5.27844 0.57361,-9.06198 0.52682,-8.86497 0.4611,-8.50742 1.65726,-9.0072 1.92856,-0.80581 2.97398,-2.4296 2.97398,-4.61884 0,-3.05926 -2.45016,-5.06835 -5.13767,-4.98988 z m -66.6967023,3.27009 h 27.7812523 27.78125 l 0.18965,20.42407 c 0.18718,20.1713 0.198,20.48217 0.88315,25.13542 0.38154,2.59133 0.75858,5.15783 0.83768,5.70353 l 0.14366,0.99218 h -29.78475 c -16.381666,0 -29.83968427,-0.0893 -29.90618427,-0.19843 -0.0665,-0.10914 0.03617,-1.03188 0.22789297,-2.05052 0.191723,-1.01865 0.595064,-3.87615 0.896586,-6.35 0.486769,-3.99374 0.571132,-6.6926 0.749308,-24.07709 z m 1.528589,1.45262 -0.186552,19.77915 c -0.180195,19.0837 -0.209315,19.93029 -0.830441,24.08742 -0.354063,2.36972 -0.643888,4.52125 -0.643888,4.78111 0,0.45094 1.287044,0.47142 27.9404143,0.45372 l 27.94041,-0.0186 -0.15296,-1.05833 c -0.084,-0.58208 -0.40373,-2.72521 -0.71055,-4.7625 -0.51406,-3.4134 -0.57145,-5.25147 -0.73381,-23.41563 l -0.17621,-19.71145 -26.22321,-0.0672 z m 2.307869,5.02967 h 7.2760423 7.276041 v 16.27187 16.27188 H 14.029001 6.7529587 v -16.27188 z m 16.6687503,0 h 7.408334 7.40833 v 16.27187 16.27188 h -7.40833 -7.408334 v -16.27188 z m 16.668754,0 h 7.27604 7.27604 v 16.27187 16.27188 h -7.27604 -7.27604 v -16.27188 z m -31.7500043,1.32291 v 1.41129 c 0,0.77611 0.07921,1.4905 0.176217,1.5875 0.09701,0.097 2.6568573,0.17621 5.6885413,0.17621 h 5.512325 v -1.5875 -1.5875 h -5.688541 z m 16.6687503,0 v 1.5875 1.5875 h 5.688544 5.68854 v -1.5875 -1.5875 h -5.68854 z m 16.793294,0 0.0387,1.38907 c 0.0213,0.76399 0.0531,1.47836 0.0703,1.5875 0.0172,0.10914 2.53132,0.19843 5.58726,0.19843 h 5.55625 v -1.5875 -1.5875 h -5.62601 z m -33.1974613,9.26042 v 2.51354 2.51354 h 0.79375 c 0.436562,0 0.7937503,-0.11905 0.7937503,-0.26458 0,-0.14552 0.238125,-0.5027 0.529167,-0.79375 0.417415,-0.41741 0.878387,-0.52803 2.182812,-0.52503 2.381811,0.006 2.519517,0.21633 0.997872,1.52704 -1.428673,1.23063 -2.764147,3.65509 -3.054594,5.54643 l -0.172599,1.12448 h 2.933671 2.933671 v -1.53169 c 0,-2.15167 0.64482,-4.39512 1.846399,-6.42287 1.285506,-2.16937 1.50109,-2.9503 0.942062,-3.41426 -0.35246,-0.29251 -0.568513,-0.26921 -1.333252,0.14263 -0.830381,0.44719 -1.026709,0.4584 -2.176095,0.12299 -1.957729,-0.57128 -3.903112,-0.64647 -4.826062,-0.18604 -0.683274,0.34091 -0.803052,0.34476 -0.803052,0.0243 0,-0.24205 -0.2835803,-0.37672 -0.7937503,-0.37672 z m 17.5947913,0 c -0.65946,0 -0.66146,0.009 -0.66146,2.51354 v 2.51354 h 0.79375 c 0.51153,0 0.79375,-0.13416 0.79375,-0.37775 0,-0.86236 0.79003,-1.20975 2.75281,-1.20975 1.05676,0 1.98727,0.0659 2.06757,0.14625 0.0803,0.0803 -0.49447,0.75191 -1.27744,1.49241 -1.60229,1.51538 -2.66085,3.44253 -2.91455,5.30666 l -0.17105,1.25728 h 2.91403 2.91404 l 0.1142,-2.39261 c 0.10803,-2.25937 0.19105,-2.54256 1.4919,-5.09323 1.83758,-3.60305 1.80432,-4.75878 -0.10697,-3.72949 -0.86485,0.46574 -0.97413,0.46693 -2.68924,0.0274 -2.1816,-0.55911 -3.76574,-0.5822 -4.44934,-0.0651 -0.66095,0.4995 -0.91054,0.50184 -0.91054,0.008 0,-0.24694 -0.24989,-0.39687 -0.66146,-0.39687 z m 16.67702,0 c -0.66962,0 -0.66973,5e-4 -0.66973,2.51354 v 2.51354 h 0.77567 c 0.57322,0 0.82444,-0.15552 0.96169,-0.59531 0.10218,-0.32743 0.31883,-0.6827 0.48111,-0.78961 0.42044,-0.277 4.39612,-0.24993 4.39612,0.03 0,0.12799 -0.53505,0.67123 -1.18908,1.20716 -1.45455,1.1919 -2.48233,2.89032 -2.94866,4.87154 -0.19343,0.82182 -0.35405,1.58326 -0.35605,1.6924 -0.002,0.10914 1.35041,0.19844 3.00602,0.19844 h 3.01015 l -0.12609,-1.12448 c -0.24177,-2.15607 0.43019,-4.55965 2.05259,-7.34374 1.43022,-2.45433 1.16506,-3.59832 -0.6351,-2.73988 -0.88818,0.42344 -1.04515,0.42356 -2.53783,0.009 -1.96396,-0.54603 -3.50704,-0.56405 -4.49689,-0.0522 -0.66533,0.34406 -0.77231,0.34406 -0.90433,0 -0.0824,-0.21468 -0.45122,-0.39016 -0.81959,-0.39016 z M 8.3404587,60.016167 v 1.45521 1.45521 h 5.6885423 5.688541 v -1.45521 -1.45521 h -5.688541 z m 33.6020843,0 v 1.45521 1.45521 h 5.55625 5.55625 v -1.45521 -1.45521 h -5.55625 z m -13.64465,0.005 c -1.71532,0.006 -2.76974,0.11099 -2.97139,0.31264 -0.335947,0.33595 -0.43995,2.11804 -0.14108,2.41691 0.097,0.097 2.65686,0.17622 5.68854,0.17622 h 5.51233 v -1.28261 -1.28209 l -2.97656,-0.17157 c -2.04355,-0.11775 -3.77769,-0.17395 -5.11184,-0.1695 z m 26.21236,20.76514 v 10.31875 10.318753 l -23.87865,0.0677 -23.8786443,0.0672 v -10.319793 -10.3203 l 23.1510443,-0.0496 c 12.73307,-0.0272 23.47846,-0.0571 23.87864,-0.0661 z m -1.71979,1.71669 -22.15886,0.0677 -22.1588523,0.0677 -0.01654,8.52299 c -0.01435,7.51025 0.03281,8.53642 0.396875,8.63462 0.671342,0.1806 42.2068473,0.18768 43.1105473,0.007 l 0.82683,-0.16536 v -8.56744 z" /></svg>
