<?xml version="1.0" encoding="UTF-8" standalone="no"?>
<svg
   width="86.220718mm"
   height="93.33728mm"
   viewBox="0 0 86.220718 93.33728"
   version="1.1"
   xml:space="preserve"
   xmlns="http://www.w3.org/2000/svg"
   xmlns:svg="http://www.w3.org/2000/svg"><path
     style="fill:#000000"
     d="m 16.31166,0.00177343 c 0.03589,-0.03857 0.49005,0.556737 1.00924,1.32291597 0.5192,0.766178 1.26086,1.825197 1.64796,2.353862 l 0.70384,0.961181 -1.6738,5.34076 -1.6738,5.3402416 -1.93477,-2.068091 c -2.97995,-3.185847 -2.89503,-2.966466 -1.79472,-4.6271066 0.51386,-0.775544 1.54533,-3.017594 2.29237,-4.982125 0.74704,-1.964531 1.38778,-3.60306797 1.42368,-3.64163797 z m 3.81992,5.43377597 c 0.1779,-0.193845 2.93314,3.23035 2.94814,3.663859 0.0044,0.127974 -0.7354,2.4789686 -1.64382,5.2244876 l -1.65158,4.991947 -1.52239,-1.684656 C 17.42453,16.704677 16.73576,15.844914 16.73076,15.72071 16.71723,15.373589 19.93101,5.6541084 20.13158,5.4355494 Z m 3.60857,4.488099 c 0.32363,-0.03933 3.53869,4.0499206 3.55379,4.5201366 0.009,0.294705 -0.95031,3.173971 -2.81585,8.448068 -0.21876,0.61846 -0.47604,1.118 -0.57154,1.11 -0.09546,-0.008 -0.96682,-0.95207 -1.93684,-2.09806 l -1.76371,-2.08411 0.62528,-1.936315 c 1.68941,-5.230026 2.67663,-7.9314996 2.90887,-7.9597196 z M 10.47584,11.186103 c 0.0778,-10e-4 0.13431,0.01266 0.16227,0.04289 0.11182,0.120931 1.23518,1.405561 2.49648,2.854606 1.92725,2.214128 2.21722,2.661874 1.81591,2.807064 -0.26264,0.09502 -2.62061,0.441022 -5.23999,0.768429 -2.61937,0.32742 -4.81248,0.641451 -4.87308,0.698151 -0.06061,0.0567 -0.12226,0.10283 -0.13746,0.10283 -0.01516,0 -1.07884,-1.055806 -2.36368,-2.346623 L 0,13.766306 2.15542,13.45108 c 2.79217,-0.408269 5.89662,-1.226641 7.22591,-1.904794 0.43456,-0.2217 0.86112,-0.357155 1.09451,-0.360183 z m 17.2527,3.764111 c 0.1511,-0.151103 3.01635,3.461239 3.01635,3.802869 0,0.0898 -0.33671,0.98365 -0.74828,1.98593 -0.41156,1.00228 -0.97101,2.56919 -1.24281,3.48195 -0.38278,1.2855 -0.67634,1.77226 -1.30225,2.16059 -0.44442,0.27572 -0.87203,0.51139 -0.95033,0.52349 -0.07833,0.0121 -0.58018,-0.50203 -1.11518,-1.14205 l -0.97255,-1.16324 1.57303,-4.32687 c 0.86511,-2.379528 1.57468,-4.514518 1.57768,-4.744926 0.003,-0.230408 0.077,-0.490453 0.16434,-0.577743 z m -11.73986,2.398303 1.2268,1.394746 c 2.1992,2.50117 2.45107,2.21704 -2.55385,2.87269 -2.43234,0.31863 -4.60054,0.6182 -4.81882,0.6656 -0.9946,0.21598 -1.31509,0.0361 -3.04271,-1.70481 -1.01085,-1.01865 -1.7224,-1.85186 -1.58078,-1.85157 0.14162,3e-4 2.62307,-0.30898 5.51387,-0.68781 z m 3.45561,4.135146 1.05575,1.12655 c 1.1732,1.25172 1.88066,2.19266 1.73891,2.31355 -0.05122,0.0437 -2.17662,0.3825 -4.72323,0.75293 -2.54661,0.37042 -4.69325,0.68411 -4.77025,0.69711 -0.07697,0.013 -0.90262,-0.74544 -1.83451,-1.68568 -1.13106,-1.14121 -1.56822,-1.74535 -1.31517,-1.81695 0.20849,-0.059 2.50986,-0.39505 5.1139,-0.74724 z m 42.88575,3.0763 c 1.60032,0.0171 3.15091,0.26713 4.46019,0.76585 3.36394,1.28137 6.23764,3.90465 7.74992,7.07502 2.43775,5.11054 1.65235,11.98524 -1.9296,16.89561 -0.42957,0.58889 -2.31557,2.73624 -4.19147,4.7718 -1.87591,2.03557 -4.34642,4.73721 -5.49011,6.00325 l -2.07946,2.30167 4.32842,4.69997 c 7.53144,8.17809 8.3643,8.95961 9.89294,9.28315 0.89287,0.18895 1.70911,0.19702 2.47788,0.0243 1.17635,-0.26431 3.46697,-1.65552 3.46697,-2.10581 0,-0.13853 0.10671,-0.25219 0.23771,-0.25219 0.13101,0 0.38158,0.62508 0.55656,1.38907 0.40689,1.77653 4.20733,17.11376 4.39198,17.7245 0.16314,0.53959 -0.53977,0.25302 -10.21333,-4.16306 -3.41974,-1.56114 -6.60203,-3.00399 -7.0714,-3.20652 l -0.85318,-0.36845 1.42575,-1.38803 c 1.19694,-1.16513 1.45546,-1.587 1.60817,-2.62516 0.24105,-1.63861 -0.17698,-2.81699 -1.55339,-4.37648 -0.61452,-0.69626 -2.2701,-2.83152 -3.8747,-4.57337 -2.49325,-2.7065 -4.9592,-5.31632 -7.09983,-7.58248 -1.21377,1.37145 -3.7552,3.93785 -5.42189,5.79293 l -4.18734,4.6607 -5.86682,-6.39548 c -3.2268,-3.51732 -8.41742,-9.13375 -11.5347,-12.48141 -3.11727,-3.34765 -6.22116,-6.93187 -6.89725,-7.96489 -2.30944,-3.52866 -3.33274,-8.2208 -2.66134,-12.20132 0.87568,-5.1916 4.99354,-9.82133 10.04848,-11.2975 1.8041,-0.52686 5.49547,-0.54029 7.42487,-0.0269 3.45168,0.91852 6.83995,3.39341 8.66562,6.32984 l 0.80719,1.29915 0.53485,-1.04851 c 0.78146,-1.53179 3.36736,-4.0491 5.32112,-5.18005 2.05473,-1.18939 4.85999,-1.80766 7.52719,-1.77922 z m -39.36969,0.84956 c 0.03164,0.0343 0.53757,0.64473 1.12396,1.35702 0.99209,1.20509 1.03955,1.33604 0.68213,1.88154 -0.28286,0.43169 -0.92286,0.70537 -2.42827,1.0387 -1.12436,0.24896 -2.58011,0.67027 -3.23495,0.93586 -0.65484,0.26558 -1.30153,0.49495 -1.43712,0.51005 -0.40609,0.0452 -4.64041,-4.22677 -4.30051,-4.33876 0.4537,-0.14948 9.52636,-1.45851 9.59476,-1.38441 z" /></svg>
