<?xml version="1.0" encoding="UTF-8" standalone="no"?>
<svg
   width="106.49929mm"
   height="126.93755mm"
   viewBox="0 0 106.49929 126.93755"
   version="1.1"
   xml:space="preserve"
   xmlns="http://www.w3.org/2000/svg"
   xmlns:svg="http://www.w3.org/2000/svg"><path
     style="fill:#000000"
     d="m 42.111692,126.31102 c 7.531678,-2.97933 12.681735,-10.93605 12.243275,-19.03849 0.752534,3.54107 3.73654,8.35244 6.588914,8.72133 -1.664949,-3.23769 -0.897214,-11.04682 0.17154,-12.33114 4.19615,4.12806 9.33237,7.92958 15.21675,9.01215 -3.74335,-4.47212 -2.37667,-11.07016 -4.42321,-16.286978 4.84548,1.21595 10.93059,3.53524 11.86923,9.160058 2.96188,-3.20676 -0.53346,-11.328368 0.94872,-12.180578 3.41041,2.2631 14.16075,6.45163 14.83708,4.54752 -5.07659,-3.34509 -5.99511,-9.91137 -9.8672,-14.24414 5.38081,1.74013 12.244759,2.77566 16.802499,-1.38135 -5.29438,0.005 -9.965519,-3.34749 -13.750819,-6.91495 -2.46065,-1.78833 -4.70831,-3.2632 -0.14663,-2.2189 2.72156,0.86946 10.057059,-1.26481 9.555099,-3.05698 -5.549769,0.3673 -10.232119,-3.03601 -14.896069,-5.5373 2.81269,0.36154 7.91539,0.22048 2.24623,-1.26995 -2.36781,-1.41833 -11.28323,-7.27997 -3.78929,-5.13701 2.39454,0.71589 8.9563,-2.58804 2.9799,-2.31541 -1.72937,-0.22453 -10.30791,-5.0883 -5.19016,-4.42677 2.41353,0.44804 6.65551,-1.78387 1.60324,-1.55958 -1.63677,-0.67957 -8.99731,-3.93744 -6.29844,-4.80555 7.74963,-2.5498 14.45371,-8.17341 19.04548,-14.83539 0.0261,-5.88656 -10.32264,-2.49572 -14.67319,-4.04641 -7.88263,0.59045 1.16692,-3.758973 -0.31539,-7.459848 -4.3852,-0.959164 -9.11235,1.631004 -13.7375,0.968903 -3.4756,0.476409 -6.11713,-2.49846 -9.234992,-3.565941 -8.287966,-3.735468 -17.560367,-8.4362907 -26.851517,-5.778287 -5.9223,4.529987 -11.31756,-2.5242257 -16.32138,-5.0926927 -3.85763,-3.142215 -12.0118997,-9.600552 -13.1879697,-0.777354 -1.86112,4.688055 -1.17165,9.7077027 0.23455,14.3570267 -1.16851,-2.529908 -4.72316004,1.499583 -3.52828004,4.620597 2.15272004,5.410146 8.61300004,7.555306 11.86717974,12.303016 4.1899,5.33023 6.66296,13.44848 3.10135,19.66018 -1.41346,2.09963 -6.0130497,4.8424 -0.48952,3.20283 4.72874,-2.76725 -0.2569,6.30291 -1.92801,8.3251 -1.50578,2.76655 -9.4173997,4.16371 -2.12965,4.34028 3.04194,0.37283 8.68265,-3.82173 5.18641,1.58218 -1.86717,3.74687 -3.16059,9.84481 -1.79606,12.88499 0.94015,-2.19816 4.92314,-7.67564 3.0643,-2.08454 -0.36486,5.00136 2.64776,11.28879 -2.21117,15.06247 0.43621,1.836828 7.07159,-2.61383 7.53046,-5.51513 -0.19996,5.07961 0.37024,10.242098 3.01918,14.701948 2.15743,2.69753 1.49318,7.90096 1.84677,9.79564 3.73516,-1.58108 3.54206,-10.06355 4.33662,-10.64397 2.42489,3.77932 5.68723,8.13481 3.69027,12.85336 -0.16483,2.96776 5.79299,-3.5025 5.50812,-5.96802 0.35371,-6.79582 1.95557,3.00066 1.46397,5.19587 1.30221,1.98149 -5.03363,10.09565 -0.19069,7.17721 z M 27.188222,88.222532 c -1.03653,-1.54576 -0.62438,-8.7572 -1.31576,-7.24138 -0.79433,2.15566 -1.62435,10.08942 -2.15042,3.66011 -0.53078,-4.5803 2.24265,-10.8887 2.49373,-13.84326 -1.59196,2.5371 -6.61594,10.51179 -4.64835,3.22526 0.74707,-4.2894 2.28133,-8.43096 2.62764,-12.78823 -1.22405,2.95774 -4.67532,6.79559 -6.8658,6.92897 3.46919,-3.50545 5.06008,-9.89263 4.05136,-14.08175 -0.38769,1.97312 -4.16696,8.94836 -2.04842,2.97738 1.17175,-4.49818 0.86996,-9.76651 0.19528,-13.94604 2.58228,1.64981 3.96087,8.91985 4.85978,8.81581 0.92264,-2.93903 -4.43777,-13.05591 0.64671,-6.51039 1.86532,2.05646 6.37137,9.78025 3.48632,2.83014 -3.73973,-8.65329 -10.65809,-15.49809 -18.6773497,-20.26733 -2.70072,-4.171489 -8.89098004,-1.804 -7.59788,-6.860677 5.56492,0.605895 8.9054197,6.588477 14.6396197,7.237137 2.72729,3.01734 8.04635,0.42495 3.58052,-2.52835 C 12.707072,24.165847 5.3356123,17.875658 4.8575823,9.5772593 c 0.055,-3.933307 7.0363897,-2.239608 9.5753497,-1.73691 1.91126,1.946133 5.1534,3.9361667 1.64022,0.674404 -3.07711,-1.960351 -2.97591,-3.657428 0.45701,-1.148439 2.78389,2.22233 12.21099,6.5678637 9.21915,9.1047367 -1.53843,0.289049 8.13031,7.508816 4.83975,4.009265 -1.10755,-1.058036 -1.69806,-4.031275 1.10934,-0.657927 2.70742,2.689207 -3.3531,-1.337352 0.38697,1.33029 6.03279,-0.195465 11.73489,2.501224 12.14909,9.258373 -5.77275,-2.1634 2.565816,5.56997 4.6519,6.1595 6.772452,3.2417 -5.44399,-0.74385 -4.62272,-0.6058 1.357795,3.79539 7.915635,6.60556 8.406223,8.81414 -6.664693,-3.48865 2.371745,2.6189 2.893254,5.24837 1.357833,2.55952 7.485292,9.01404 1.621999,4.16547 -2.613037,-2.16998 -4.970926,-4.61905 -7.406415,-6.98064 1.698239,2.90481 3.302876,5.91777 5.665107,8.35235 -3.460003,-0.0234 -8.039437,-6.2911 -9.028026,-5.31012 0.886643,3.12464 5.223693,9.23734 -0.282622,4.42924 -2.9043,-0.71005 -6.37271,-9.13538 -6.47159,-7.81012 0.11622,3.33442 5.76455,10.10717 -0.54026,5.81823 -2.37212,-1.43843 -6.72937,-5.76884 -3.28219,-0.70897 2.60064,5.02826 7.85036,8.91491 7.80345,15.02556 0.94566,6.87907 -2.83146,-3.56775 -5.25639,-4.44067 -1.50202,-1.38765 -5.95747,-6.96486 -3.62948,-1.55636 2.15666,5.98962 0.3467,12.20051 -0.82543,18.14627 -1.80064,-0.83649 -2.18814,-14.66397 -3.37121,-5.7405 -1.39677,7.03988 -1.37853,14.30351 -0.44871,21.39761 -1.35422,-1.9605 -2.15832,-4.33753 -2.92313,-6.59208 z m 42.001049,-45.78188 c -4.64974,-1.64847 -1.42241,-1.73987 1.13827,-1.40267 -2.74796,-1.16929 -5.89796,-3.91947 -0.67343,-1.97331 3.91004,0.34632 11.70072,-1.86339 6.34555,0.24548 2.4484,0.14614 9.30002,-0.91017 3.45543,0.62712 -2.61728,0.73687 -9.40086,0.85122 -2.87837,1.78891 4.58274,0.40713 -7.03869,1.66269 -7.38745,0.71447 z m -2.12077,-9.25145 c -1.45504,-0.50063 -1.67718,1.2014 -2.27239,-2.15055 -4.882349,-1.05814 8.29223,-3.83007 1.45905,-2.82137 -1.16349,-0.19225 1.51098,-1.03341 -1.35158,-0.56618 5.30353,-3.747808 -5.573411,0.42292 -0.38811,-2.73787 4.9788,-1.273527 9.43507,2.66195 14.37179,3.01354 2.39031,0.27744 9.56543,1.09064 3.02724,1.73611 -3.89113,0.41539 -9.90494,-0.34833 -7.21081,1.73167 -2.81779,-1.293 -5.78219,-2.13029 -3.67171,1.92054 -2.2095,-1.7311 -3.25651,-3.45627 -2.96301,0.50526 l -1.00047,-0.63117 z M 59.758298,22.337104 c -5.973002,-1.294654 -10.451722,-6.79837 -16.926916,-6.221813 -3.50023,-0.919421 5.720342,5.99141 -0.41686,3.096492 -0.51686,0.638468 3.065165,5.122105 -1.01686,1.855087 -0.40354,-1.751562 -8.27438,-6.474147 -4.27533,-5.621014 4.17314,-0.315979 -5.50376,-0.38216 -0.66146,-1.395774 -3.77322,0.459413 -4.28897,1.433163 -7.84204,0.759398 -0.87516,-0.67497 4.05628,-2.133217 5.66314,-2.521087 5.41427,0.04975 11.03599,-0.533947 16.01857,2.080255 5.325028,2.094206 10.626853,4.450497 15.332179,7.728543 -2.45037,-0.517941 -5.668567,-1.05365 -2.57251,1.083966 -1.11218,-0.234928 -2.202436,-0.55846 -3.301913,-0.844053 z M 34.873372,19.941289 c -5.84398,-1.097144 2.77212,-3.007408 1.78594,0.316231 l -0.71562,-0.148602 z"/></svg>
