<?xml version="1.0" encoding="UTF-8" standalone="no"?>
<svg
   width="105.27909mm"
   height="113.89725mm"
   viewBox="0 0 105.27909 113.89725"
   version="1.1"
   xml:space="preserve"
   xmlns="http://www.w3.org/2000/svg"
   xmlns:svg="http://www.w3.org/2000/svg"><path
     style="fill:#000000"
     d="m 52.32507,112.97424 c -0.60436,-1.75148 -2.61917,-5.42642 -3.98758,-7.2732 -1.428401,-1.92774 -6.776187,-7.411031 -7.004862,-7.182351 -0.157306,0.1573 1.589291,3.386521 2.49886,4.620041 0.355784,0.4825 0.589776,0.93437 0.519983,1.00417 -0.273066,0.27306 -6.678928,-4.794471 -9.472937,-7.493831 -3.266142,-3.15551 -5.467546,-5.71008 -7.771969,-9.01882 -0.841109,-1.20769 -1.568577,-2.15651 -1.616594,-2.10849 -0.138893,0.13889 1.385364,6.26073 1.993999,8.00844 l 0.552839,1.5875 -1.883772,-1.85208 c -4.390345,-4.31649 -9.015998,-10.60404 -11.677938,-15.87357 l -1.337282,-2.64726 0.17983,3.175 0.179829,3.175 -2.006645,-3.04271 c -3.6486907,-5.53257 -6.3174877,-11.42463 -7.1711227,-15.83213 -0.4816,-2.4866 -0.476194,-4.89353 0.01729,-7.69766 0.215925,-1.22696 0.347387,-2.27603 0.292137,-2.33128 -0.125207,-0.12521 -2.119281,2.46643 -3.462379,4.49996 -0.55410105,0.83893 -1.05964105,1.47315 -1.12342305,1.40937 -0.276908,-0.27691 0.831227,-6.29831 1.67743805,-9.1149 1.106543,-3.68308 3.68207,-9.12164 5.761585,-12.16632 l 1.507327,-2.20693 -2.832666,1.47932 c -1.557966,0.81363 -2.862202,1.47932 -2.898303,1.47932 -0.0361,0 0.529957,-1.10133 1.257904,-2.44739 1.702253,-3.14769 4.31038,-7.03887 6.3306777,-9.44503 l 1.59327,-1.89757 -1.838404,-1.70209 C 9.5910393,21.142609 8.3835893,19.784229 7.9189393,19.060139 2.5674043,10.720489 7.5453853,0 16.769372,0 c 2.60212,0 4.126961,0.510515 8.750894,2.929786 5.802416,3.035863 5.81149,3.038273 8.377015,2.227823 5.959321,-1.882547 12.667007,-1.940343 17.431909,-0.150198 1.37747,0.517508 1.54766,0.527998 2.44992,0.151008 4.65618,-1.945474 10.92461,-1.94328 17.70087,0.006 l 2.32108,0.66776 1.38537,-0.58308 c 0.76195,-0.320687 2.87365,-1.387245 4.69266,-2.370124 4.30565,-2.326503 6.47035,-2.980868 9.35937,-2.829233 4.12524,0.21652 7.34288,2.432848 9.30981,6.412667 0.80937,1.63764 0.9867,2.31018 1.09727,4.16151 0.2625,4.39507 -1.10711,7.78504 -4.49646,11.1294 l -2.06952,2.04205 2.09493,2.72045 c 2.40973,3.12925 4.03899,5.61987 5.76741,8.81656 l 1.21773,2.25217 -2.85015,-1.50849 c -1.56757,-0.82968 -2.74704,-1.33882 -2.62102,-1.13144 0.12601,0.20739 0.81294,1.27003 1.5265,2.36144 3.71038,5.67506 7.06413,15.20308 7.06413,20.0692 0,0.92925 -0.0339,0.89832 -1.56098,-1.42372 -0.85855,-1.30548 -1.87774,-2.73079 -2.26488,-3.16736 l -0.70388,-0.79375 0.14756,0.92604 c 0.0811,0.50933 0.2732,1.92889 0.42677,3.15458 0.57149,4.5614 -0.70404,9.80098 -3.85744,15.84541 -1.53497,2.94221 -5.38609,9.17539 -5.55379,8.989 -0.0373,-0.0415 0.0304,-1.08748 0.15044,-2.3244 0.4002,-4.12249 0.39548,-4.12538 -1.34798,-0.82585 -1.86813,3.53546 -4.14692,7.00419 -6.53928,9.95397 -2.2574,2.78337 -6.81381,7.52471 -6.59862,6.86645 0.87803,-2.68592 2.022,-6.85599 2.17399,-7.92478 l 0.18814,-1.32292 -1.04436,1.5875 c -3.70265,5.6283 -9.58332,11.54686 -15.77015,15.871761 -1.88634,1.31865 -2.36095,1.43302 -1.5535,0.37436 0.26667,-0.34964 0.99507,-1.57534 1.61866,-2.72379 1.1102,-2.044611 1.11808,-2.076691 0.37874,-1.540661 -1.02674,0.74441 -4.524,4.355511 -5.96233,6.156411 -1.57514,1.97222 -3.04066,4.42266 -4.0936,6.84478 l -0.86898,1.99896 z m 5.14607,-17.555461 c 3.78991,-1.82948 6.64249,-5.40881 7.45883,-9.35911 0.20344,-0.98443 0.5599,-4.40926 0.79213,-7.61071 0.48467,-6.68133 1.03757,-10.78955 2.49798,-18.56091 2.37763,-12.65223 2.4281,-15.97144 0.31915,-20.99089 -1.08099,-2.57283 -4.00035,-6.84001 -5.85303,-8.55526 -1.83933,-1.70289 -4.38733,-2.67393 -6.61605,-2.52137 l -1.35866,0.093 0.72575,-0.62408 c 0.61601,-0.52971 0.93779,-0.60649 2.128,-0.50779 1.67263,0.13871 1.56905,-0.12358 -0.5019,-1.27099 -1.30289,-0.72187 -1.5831,-0.77214 -4.30404,-0.77214 -2.80643,0 -2.96949,0.032 -4.56406,0.89676 -0.909504,0.49322 -1.653645,0.9879 -1.653645,1.0993 0,0.1114 0.450743,0.14209 1.00165,0.0682 0.991965,-0.13305 2.966925,0.46518 2.967265,0.8988 9e-5,0.11657 -0.58673,0.17126 -1.30404,0.12153 -1.659698,-0.11505 -3.781582,0.50012 -5.382386,1.56045 -2.264463,1.49992 -6.622073,7.97719 -7.751333,11.52179 -0.939568,2.94918 -0.752261,9.35854 0.443803,15.18629 0.787215,3.83566 2.294695,13.05164 2.602186,15.90848 0.15078,1.40085 0.450205,5.03226 0.665389,8.06979 0.218362,3.08239 0.575609,6.13954 0.808475,6.91855 1.206772,4.03707 4.619592,7.48798 9.116356,9.21813 0.60431,0.23251 1.77369,0.33282 3.31493,0.28436 2.13078,-0.067 2.59856,-0.17978 4.44725,-1.07219 z m -8.28371,-1.86614 c -1.853383,-0.55339 -2.597699,-0.88994 -3.804538,-1.72026 -1.138237,-0.78313 -2.67431,-2.71033 -2.505892,-3.14396 0.051,-0.1313 1.286299,0.27491 2.745117,0.90268 3.656613,1.57354 5.667423,2.05425 7.834543,1.87291 1.80992,-0.15144 4.87941,-1.08961 7.29523,-2.22974 1.87868,-0.88663 2.16903,-0.69099 1.08831,0.7333 -1.09254,1.43986 -2.98216,2.74887 -4.80763,3.3304 -1.80583,0.57529 -6.28443,0.72067 -7.84514,0.25467 z m 1.32292,-4.67857 c -1.62192,-0.28102 -4.426932,-1.5074 -5.74202,-2.51046 -1.080017,-0.82377 -2.130854,-2.59636 -2.611535,-4.40522 -0.369046,-1.38877 -1.738813,-10.60959 -2.753352,-18.53466 -0.666516,-5.20648 -0.704054,-9.65138 -0.09656,-11.43426 1.015184,-2.9794 5.177994,-5.45858 10.224207,-6.08906 0.83348,-0.10414 1.58458,-0.30125 1.66912,-0.43804 0.35146,-0.56867 -0.22971,-1.57809 -1.29018,-2.2409 -0.61571,-0.38483 -1.54468,-1.07975 -2.064377,-1.54426 -0.519697,-0.46451 -1.778399,-1.38375 -2.797116,-2.04276 -2.57081,-1.66304 -3.258633,-3.22125 -2.365495,-5.35883 0.514473,-1.23131 1.223509,-1.61323 3.990849,-2.14969 4.663099,-0.90396 13.445129,-0.37747 15.213539,0.91206 0.81992,0.59789 1.4072,2.26761 1.19607,3.40057 -0.21395,1.14809 -1.1857,2.24392 -3.17987,3.58592 -4.35821,2.93289 -6.42921,4.83195 -5.87445,5.38672 0.0702,0.0702 1.30143,0.36459 2.73614,0.65428 3.37868,0.6822 6.38222,2.0712 7.79651,3.60553 1.78041,1.93152 1.94542,2.5516 1.91986,7.2144 -0.0191,3.49015 -0.22804,5.5002 -1.40241,13.49375 -1.66064,11.30346 -1.71886,11.62216 -2.40846,13.18492 -1.67689,3.80009 -7.13058,6.1815 -12.16047,5.30999 z m 3.73824,-2.93057 c 0.16755,-0.26428 0.2234,-0.26923 0.22645,-0.0201 0.006,0.51404 0.67113,0.39878 2.79154,-0.48395 2.66327,-1.10872 3.56251,-2.13659 3.56251,-4.07209 0,-0.78583 -0.12597,-1.76395 -0.27995,-2.17361 -0.39587,-1.05325 -1.38577,-2.46067 -1.73219,-2.46281 -0.16998,-0.001 -0.35531,0.74574 -0.44275,1.78413 -0.0827,0.98227 -0.35743,2.6089 -0.61047,3.61474 l -0.46009,1.8288 -0.60583,-0.70432 c -0.8086,-0.94006 -1.24286,-0.88774 -1.84034,0.22172 -0.27429,0.50932 -0.56093,0.92512 -0.63698,0.924 -0.0761,-10e-4 -0.42373,-0.50172 -0.77263,-1.11245 l -0.63435,-1.1104 -0.75471,0.90401 c -0.56687,0.67902 -0.7547,1.18088 -0.7547,2.01644 0,0.63526 0.14186,1.1754 0.33072,1.25923 0.55639,0.24697 2.37774,-0.0411 2.61377,-0.41337 z m -3.20908,-0.65029 c 0,-1.05697 -0.89597,-2.74321 -1.45758,-2.74321 -0.19585,0 -0.59023,0.29765 -0.8764,0.66145 -0.28616,0.36381 -0.58292,0.66146 -0.65945,0.66146 -0.217094,0 -0.92943,-3.37726 -1.13209,-5.36735 -0.114903,-1.12833 -0.291793,-1.75949 -0.476056,-1.69862 -0.161267,0.0533 -0.64182,0.65942 -1.067895,1.34701 -0.635672,1.02583 -0.778102,1.55301 -0.79375,2.93796 -0.01724,1.52615 0.05696,1.76782 0.774682,2.52322 0.808744,0.85119 2.134882,1.63371 3.821989,2.25526 1.59878,0.589 1.86655,0.5062 1.86655,-0.57718 z m -5.996337,-28.07707 c -0.107852,-1.33098 -0.0028,-2.33636 0.412269,-3.94668 0.634944,-2.46318 0.703348,-3.52894 0.226258,-3.52521 -0.807582,0.006 -3.129397,1.34052 -3.411942,1.96064 -0.590303,1.29557 0.564444,4.98789 2.066561,6.60785 0.351555,0.37914 0.686977,0.68934 0.745382,0.68934 0.0584,0 0.04107,-0.80367 -0.03853,-1.78594 z m 17.326057,-1.12448 c 0.52866,-1.10268 0.69902,-1.86981 0.70325,-3.16669 l 0.006,-1.71148 -1.05833,-0.58422 c -0.58208,-0.32131 -1.38576,-0.66538 -1.78594,-0.76459 -0.71176,-0.17645 -0.7276,-0.15474 -0.7276,0.99688 0,0.64749 0.18084,1.76172 0.40186,2.47608 0.22245,0.71895 0.3913,2.18475 0.37819,3.28319 -0.013,1.09141 -0.011,2.10344 0.005,2.24896 0.0502,0.4705 1.36096,-1.28154 2.07848,-2.77813 z m -13.45962,-4.60286 c 0.74741,-1.54394 0.72663,-2.54134 -0.0529,-2.53941 -1.080256,0.003 -2.579688,0.5439 -2.579688,0.93114 0,0.20822 0.320366,1.03179 0.711924,1.83016 0.805631,1.64265 1.030644,1.61666 1.920674,-0.22189 z m 9.54491,0.0475 c 0.47469,-1.00374 0.68287,-1.74006 0.53403,-1.8889 -0.13415,-0.13415 -0.81671,-0.39008 -1.51679,-0.56874 l -1.27287,-0.32482 -0.0811,1.0167 c -0.0581,0.72829 0.11795,1.35626 0.62045,2.21372 0.38583,0.65836 0.75478,1.19702 0.81989,1.19702 0.0651,0 0.46846,-0.74024 0.89634,-1.64498 z m -6.13701,-0.20464 0.38503,-1.15508 0.43279,1.17162 c 0.23803,0.64439 0.59515,1.17162 0.79358,1.17162 0.5203,0 1.34327,-1.20519 1.59987,-2.3429 0.32931,-1.46014 -0.11176,-1.75894 -2.58994,-1.75453 -3.11061,0.006 -3.30913,0.10072 -3.15023,1.51042 0.13287,1.17889 1.31134,2.83145 1.88321,2.64082 0.14336,-0.0478 0.43392,-0.60667 0.64569,-1.24197 z m 2.99995,-17.2583 c 0.87373,-0.30728 0.87565,-0.31161 0.21997,-0.49653 -0.91233,-0.25731 -5.04119,-0.24961 -5.68854,0.0106 -0.44162,0.17751 -0.3103,0.28295 0.79375,0.63732 1.40159,0.44988 3.12372,0.39411 4.67482,-0.15139 z m -38.958468,23.81483 0.734827,-2.85353 -0.62763,-2.16692 c -0.61669,-2.12915 -0.925538,-3.81247 -1.374537,-7.49167 l -0.226023,-1.85208 -0.359606,0.85989 c -0.506318,1.21072 -0.851833,1.06876 -0.643966,-0.26458 0.459665,-2.94846 2.072252,-7.21863 3.846818,-10.18646 0.456812,-0.76398 0.711409,-1.38906 0.565771,-1.38906 -0.145639,0 -1.095781,0.66206 -2.111428,1.47126 -2.542867,2.02596 -4.448742,4.82544 -5.637583,8.28087 -0.6897237,2.00472 -0.6426157,2.08308 0.585325,0.97371 0.595024,-0.53757 1.132512,-0.92674 1.194418,-0.86484 0.0619,0.0619 -0.298093,1.61089 -0.799997,3.4422 -0.978199,3.56916 -1.5433667,8.39263 -0.983367,8.39263 0.165458,0 0.301996,-0.26789 0.303418,-0.59531 0.003,-0.69625 1.132571,-3.22617 1.557722,-3.48892 0.204638,-0.12648 0.292094,0.55524 0.292841,2.28268 0.0012,2.77516 0.540177,6.52371 1.362268,9.47447 0.984501,3.53369 1.079015,3.60857 1.348435,1.06824 0.130607,-1.23147 0.568139,-3.52313 0.972294,-5.09258 z m 75.705988,1.03165 c 0.29189,-1.4277 0.61876,-4.04708 0.72638,-5.82084 l 0.19568,-3.22501 0.50283,0.92604 c 0.27655,0.50932 0.71414,1.58088 0.97242,2.38125 l 0.4696,1.45521 0.0142,-2.16979 c 0.0155,-2.35994 -0.21533,-3.73552 -1.22633,-7.30863 -0.36332,-1.28407 -0.58783,-2.40743 -0.4989,-2.49635 0.0889,-0.0889 0.63574,0.30123 1.21515,0.86701 0.57942,0.56578 1.05348,0.96585 1.05348,0.88905 0,-0.0768 -0.29037,-0.99337 -0.64526,-2.0368 -0.90537,-2.66188 -2.17254,-4.93072 -3.66734,-6.56627 -1.38387,-1.51418 -3.82233,-3.42628 -4.06279,-3.18582 -0.0816,0.0816 0.26847,0.84003 0.77802,1.68531 1.787,2.96437 3.64612,8.31301 3.61507,10.40041 -0.009,0.58962 -0.0727,0.54652 -0.58893,-0.39687 l -0.5791,-1.05834 -0.16645,2.64584 c -0.19584,3.11286 -0.30896,3.74291 -1.22521,6.82365 -0.67085,2.25567 -0.67905,2.36727 -0.27196,3.70417 0.62462,2.0513 1.19299,4.84765 1.4095,6.93468 l 0.19214,1.85208 0.62854,-1.85208 c 0.34569,-1.01865 0.86735,-3.0202 1.15924,-4.4479 z M 32.022618,38.078759 c 1.217482,-0.78126 2.971827,-2.61931 4.953891,-5.19027 l 0.856109,-1.11047 -1.664782,0.6845 c -1.132372,0.46559 -2.299399,0.71557 -3.649156,0.78164 l -1.984375,0.0971 1.030529,-0.3982 c 1.843795,-0.71245 1.937636,-0.95041 0.644288,-1.63381 -0.630108,-0.33294 -1.76106,-0.79234 -2.513227,-1.02089 -1.20361,-0.36572 -1.476999,-0.36982 -2.280226,-0.0342 -1.781772,0.74447 -3.079562,3.49227 -2.672989,5.65949 0.20049,1.06871 1.835162,2.86459 2.793885,3.06943 1.376617,0.29412 3.187186,-0.0709 4.486053,-0.90435 z m 46.751702,0.36459 c 0.38935,-0.28837 0.98622,-0.93007 1.32639,-1.42601 0.82561,-1.20368 0.72982,-3.69366 -0.19379,-5.03753 -1.50721,-2.19299 -3.27235,-2.49712 -6.04851,-1.04213 -0.91028,0.47708 -1.71471,0.96394 -1.78763,1.08192 -0.0729,0.11798 0.37421,0.39553 0.9936,0.61678 0.6194,0.22126 1.30477,0.46933 1.52305,0.55127 0.21828,0.082 -0.4961,0.10633 -1.5875,0.0542 -1.35064,-0.0645 -2.5125,-0.31197 -3.63802,-0.77478 -0.90951,-0.37399 -1.65365,-0.63659 -1.65365,-0.58356 0,0.21602 3.15947,4.03884 4.12327,4.98897 1.53268,1.51095 3.38819,2.33528 4.95842,2.20284 0.70863,-0.0598 1.59139,-0.34089 1.98437,-0.63195 z M 38.318619,28.240369 c 0.736395,-0.37572 1.037278,-0.98829 0.485433,-0.98829 -0.205319,0 -1.105843,-0.29765 -2.001166,-0.66146 -2.104595,-0.85517 -2.433152,-0.84622 -2.428072,0.0661 0.0022,0.40018 0.09153,0.85684 0.198438,1.0148 0.594112,0.87777 2.55588,1.1757 3.745367,0.5688 z m 32.147021,-0.33077 c 0.45898,-0.42537 0.68766,-0.87873 0.63394,-1.25677 -0.11036,-0.77669 -0.82741,-0.72933 -3.35278,0.22142 l -1.94584,0.73256 0.8875,0.47301 c 1.33162,0.70969 2.9042,0.63883 3.77718,-0.17022 z m -42.949353,-2.88312 c 1.425607,-1.55984 3.2859,-2.66002 4.959675,-2.93317 l 1.147907,-0.18732 -0.731743,-0.76378 c -0.402459,-0.42007 -0.661022,-0.8345 -0.574585,-0.92093 0.298571,-0.29857 2.670913,0.95674 4.074914,2.15621 2.078914,1.77607 4.097241,2.90117 5.885074,3.28057 2.9045,0.61638 3.844887,-0.028 3.685844,-2.52576 -0.132387,-2.0791 -1.157348,-3.83354 -2.913089,-4.98636 -0.683294,-0.44865 -1.248841,-0.89338 -1.256771,-0.98827 -0.02444,-0.29245 2.325272,0.51377 3.737421,1.28235 1.449242,0.78878 2.344486,1.79031 2.997636,3.35352 0.47825,1.1446 0.99643,1.18739 1.77286,0.1464 0.73651,-0.98747 0.97475,-2.38015 0.68328,-3.99415 -0.57059,-3.15963 -3.721824,-7.49778 -6.607593,-9.09636 -1.337795,-0.74108 -1.551328,-0.77752 -4.317813,-0.73689 -1.600729,0.0235 -3.203942,0.15468 -3.562695,0.29149 -0.567652,0.21648 -0.378854,0.30843 1.455209,0.70869 2.331899,0.50892 5.555823,1.92612 6.331536,2.78327 0.468804,0.51803 0.40789,0.51094 -0.949153,-0.11033 -3.895646,-1.78349 -10.422807,-1.23566 -14.599247,1.22533 -1.703985,1.00408 -3.654674,2.39297 -3.532501,2.51514 0.05018,0.0502 0.526419,-0.0906 1.058318,-0.31284 1.333873,-0.55733 4.476703,-1.19331 5.812185,-1.17614 l 1.107182,0.0142 -1.455208,0.46986 c -0.800365,0.25842 -2.153345,0.81374 -3.006622,1.23404 -1.708775,0.84171 -4.779786,3.54144 -5.564041,4.89135 l -0.50087,0.86213 1.162329,-0.79732 c 1.488542,-1.0211 4.072883,-2.32194 5.266211,-2.65077 l 0.928882,-0.25596 -1.6033,1.61484 c -2.154129,2.16963 -2.824767,3.64596 -2.957068,6.50963 l -0.103902,2.24895 0.459399,-0.89145 c 0.252669,-0.49031 1.022322,-1.50739 1.710339,-2.26019 z m 52.359203,-0.94463 c -0.43817,-1.74537 -1.70243,-3.79999 -3.08956,-5.02098 -0.90487,-0.7965 -1.08708,-1.06915 -0.7144,-1.06899 0.66387,2.7e-4 3.51964,1.36377 5.02364,2.39855 0.6613,0.45498 1.25366,0.77595 1.31636,0.71325 0.25471,-0.25471 -1.92854,-2.68071 -3.42448,-3.80523 -1.92708,-1.44861 -2.68496,-1.85664 -4.92879,-2.65356 -1.25032,-0.44407 -1.51695,-0.61234 -0.97672,-0.61639 1.3734,-0.0103 4.53764,0.57988 5.82286,1.08609 1.59105,0.62667 1.39356,0.27082 -0.60168,-1.08411 -3.30257,-2.24274 -6.55718,-3.2599 -10.46217,-3.26972 -2.71368,-0.007 -5.13433,0.4923 -6.48229,1.33664 l -0.66146,0.41433 0.64584,-0.7043 c 0.89138,-0.97208 3.09893,-1.96486 5.94794,-2.6749 l 2.40206,-0.59865 -1.05834,-0.2245 c -0.58208,-0.12347 -2.18942,-0.22741 -3.57187,-0.23097 -2.29204,-0.006 -2.63733,0.062 -3.91827,0.77063 -3.03494,1.67897 -6.34053,6.26113 -6.79997,9.42602 -0.20972,1.44473 0.18519,3.09097 0.93441,3.89516 0.77074,0.8273 1.22912,0.72635 1.58396,-0.34882 0.6289,-1.90556 2.8676,-3.7018 5.55403,-4.45633 1.36248,-0.38267 1.41306,-0.3809 0.79375,0.0279 -1.6057,1.05987 -3.35134,3.14358 -3.65981,4.36862 -0.9327,3.7041 0.53916,4.89707 4.47893,3.63026 1.77297,-0.57008 2.3968,-0.96427 6.15368,-3.88838 1.13882,-0.88639 2.73315,-1.56696 3.01366,-1.28644 0.0888,0.0888 -0.16544,0.50259 -0.56494,0.91958 l -0.72636,0.75815 0.99562,0.18678 c 2.41821,0.45366 5.24923,2.60934 6.49672,4.94692 l 0.61355,1.14967 0.0821,-1.45043 c 0.0452,-0.79774 -0.053,-1.98837 -0.218,-2.64584 z M 26.065008,9.740619 C 26.71041,9.277129 27.200297,8.783389 27.153644,8.643439 27.00544,8.198819 22.12617,5.250049 20.61243,4.690267 18.890276,4.053418 15.207218,3.931616 13.670803,4.460701 c -1.56032,0.537318 -1.364153,0.714028 0.680573,0.613068 3.04643,-0.150423 4.301073,0.43661 8.52389,3.98821 0.994881,0.83674 1.855541,1.52135 1.912578,1.52135 0.05704,0 0.631761,-0.37922 1.277164,-0.84271 z m 56.993622,-1.1445 c 1.23443,-1.09297 2.89927,-2.31336 3.69963,-2.71198 1.27411,-0.63457 1.76315,-0.72476 3.92974,-0.72476 h 2.47452 L 92.01091,4.640957 C 91.15954,4.257697 90.27297,4.122135 88.61034,4.12099 c -2.71857,-0.0019 -4.20228,0.458809 -6.90306,2.143359 -1.07826,0.67254 -2.41371,1.48632 -2.96766,1.8084 l -1.00718,0.58559 1.27176,0.95446 c 0.69947,0.52496 1.39287,0.95808 1.54089,0.9625 0.14802,0.004 1.27911,-0.88621 2.51354,-1.97918 z" /></svg>
