<?xml version="1.0" encoding="UTF-8" standalone="no"?>
<svg
   width="80.753777mm"
   height="107.98085mm"
   viewBox="0 0 80.753777 107.98085"
   version="1.1"
   xml:space="preserve"
   xmlns="http://www.w3.org/2000/svg"
   xmlns:svg="http://www.w3.org/2000/svg"><path
     style="fill:#000000"
     d="m 0.214332,100.13132 0.02618,-7.849289 0.919121,-0.81558 c 0.505517,-0.44856 3.34099,-2.89917 6.301052,-5.44578 2.960062,-2.54661 7.773426,-6.69807 10.696365,-9.22546 2.922939,-2.52739 7.333783,-6.33739 9.801876,-8.46667 2.468093,-2.12927 5.027936,-4.35394 5.688541,-4.94369 0.660606,-0.58975 2.479977,-2.18068 4.043057,-3.5354 l 2.84195,-2.46311 2.7143,2.34141 c 1.49286,1.28778 5.51226,4.789 8.932,7.78048 5.47636,4.79055 12.48263,10.83797 24.93698,21.5242 l 3.63802,3.12153 v 7.945959 c 0,7.5282 -0.0243,7.92705 -0.46302,7.58631 -0.25466,-0.19781 -2.72521,-2.32795 -5.49011,-4.73364 -9.58397,-8.338859 -12.99693,-11.294619 -19.56443,-16.943629 -3.62992,-3.12226 -8.38782,-7.25441 -10.57311,-9.18256 -2.18529,-1.92815 -4.04395,-3.50573 -4.13036,-3.50573 -0.0864,0 -1.34117,1.05057 -2.78835,2.3346 -2.986961,2.65021 -12.652918,11.04291 -20.887492,18.13608 -3.055937,2.63235 -7.978637,6.901909 -10.939333,9.487909 -2.960696,2.586 -5.461009,4.70172 -5.55625,4.70159 -0.09524,-1.2e-4 -0.161385,-3.53241 -0.146987,-7.84953 z M 0.320445,72.728571 c 0,-3.70831 -0.0721,-7.2684 -0.160223,-7.91133 L 0,63.648291 l 2.475326,-2.0978 c 2.401542,-2.03528 14.373934,-12.34524 27.346159,-23.54901 3.492499,-3.01638 7.333229,-6.31842 8.534959,-7.33787 l 2.18497,-1.85354 1.5192,1.28605 c 0.83556,0.70733 6.2713,5.39417 12.07942,10.4152 16.34008,14.12574 18.55999,16.03604 22.72701,19.55725 l 3.88673,3.28435 v 8.033 8.033 l -0.8599,-0.7677 c -2.76348,-2.46719 -8.87384,-7.76767 -17.1295,-14.85913 -5.16475,-4.43641 -11.41553,-9.83392 -13.89063,-11.99446 -2.4751,-2.16053 -4.9169,-4.29174 -5.42622,-4.73602 -0.50932,-0.44428 -1.36713,-1.22555 -1.90624,-1.73615 l -0.9802,-0.92836 -3.12084,2.76309 c -7.381196,6.53507 -21.852003,19.12642 -24.287882,21.1334 -1.284931,1.05868 -8.055961,6.93655 -10.913688,9.47407 l -1.918229,1.70329 z m -0.132292,-30.2758 v -7.8488 L 15.533985,21.490391 C 23.974193,14.277931 33.05895,6.492034 35.722334,4.188409 L 40.564854,0 l 2.68104,2.33065 c 3.28111,2.852302 19.58172,16.866771 29.90111,25.707521 l 7.60677,6.51682 v 7.90586 c 0,7.45204 -0.0262,7.88502 -0.45677,7.54274 -0.25123,-0.19972 -5.45273,-4.64938 -11.55889,-9.88813 -17.25859,-14.80692 -18.94898,-16.26566 -24.60453,-21.23281 -1.864,-1.63711 -3.46552,-2.97649 -3.55893,-2.97639 -0.16885,1.6e-4 -3.18694,2.58457 -15.798898,13.52873 -6.941219,6.02331 -15.96327,13.80957 -18.388408,15.86966 -0.790182,0.67124 -2.426522,2.07022 -3.636309,3.10885 -1.209788,1.03863 -2.28135,1.88834 -2.38125,1.88825 -0.0999,-1e-4 -0.181636,-3.53214 -0.181636,-7.84898 z" /></svg>
