<?xml version="1.0" encoding="UTF-8" standalone="no"?>
<svg
   width="60.981293mm"
   height="108.93892mm"
   viewBox="0 0 60.981293 108.93892"
   version="1.1"
   xml:space="preserve"
   xmlns="http://www.w3.org/2000/svg"
   xmlns:svg="http://www.w3.org/2000/svg"><path
     style="fill:#000000"
     d="M 26.289351,2.1146366e-6 C 21.634117,-3.4888536e-4 18.127479,0.04301211 17.762223,0.11575811 c -0.487008,0.09699 -1.17488,0.448569 -1.529106,0.781347 C 15.616118,1.4767421 15.591936,1.6247141 15.663126,4.4152371 l 0.07441,2.913 0.869198,0.584978 c 0.866624,0.58338 0.910728,0.58553 13.711825,0.60203 13.712379,0.01768 13.962279,-0.0045 14.647689,-1.285193 0.14984,-0.279969 0.27233,-1.713095 0.27233,-3.184818 0,-2.543485 -0.0339,-2.707584 -0.68936,-3.31504399 l -0.68988,-0.63872 -12.605436,-0.07597 C 29.520613,0.00506011 27.841092,1.2011464e-4 26.289347,1.1463661e-7 Z M 30.4307,9.4645411 c -5.801368,0 -10.646967,0.0989 -10.768335,0.219625 -0.121368,0.120726 -0.28019,2.0852569 -0.35295,4.3656249 -0.122876,3.851007 -0.184192,4.252047 -0.862996,5.634281 -0.998084,2.032376 -2.685706,3.513877 -6.280754,5.514394 -6.638351,3.69401 -10.265549,6.6433 -11.542447,9.38547 L 0,35.922876 v 32.54375 32.543754 l 0.628385,1.34979 c 0.802947,1.72442 2.265253,3.1835 3.973918,3.96513 2.146691,0.98201 13.249654,2.32104 21.321696,2.57142 10.022583,0.31088 27.211213,-1.15069 30.334063,-2.57917 1.68827,-0.77225 3.24074,-2.29528 4.08192,-4.00441 l 0.64131,-1.30276 V 68.466626 35.922876 l -0.55914,-1.2082 c -1.28342,-2.77418 -5.40914,-6.21528 -11.21482,-9.35343 -3.77815,-2.042211 -5.11244,-3.067851 -6.28179,-4.827613 l -0.99425,-1.496033 -0.13229,-4.443656 c -0.0936,-3.142881 -0.23324,-4.543707 -0.47646,-4.7862709 -0.27014,-0.269397 -2.60617,-0.343132 -10.891842,-0.343132 z M 30.36714,47.154226 c 25.023954,0.0391 23.888064,-0.0386 24.955584,1.71204 0.47103,0.7724 0.49723,1.61156 0.49816,16.08533 l 10e-4,15.27038 -0.81855,0.93225 c -0.45974,0.52362 -1.24229,1.04943 -1.78594,1.19992 -1.17741,0.32593 -44.773994,0.50315 -45.631839,0.18552 -0.754742,-0.27946 -1.733575,-1.20281 -2.156457,-2.0345 -0.263195,-0.51758 -0.32008,-3.991 -0.262,-15.96905 l 0.0739,-15.30759 0.750341,-0.78859 c 0.41264,-0.43367 0.971212,-0.90836 1.241268,-1.05471 0.319801,-0.17333 8.386576,-0.254 23.134505,-0.231 z m -21.585245,7.41557 c -1.223283,0 -2.027267,0.14376 -2.027267,0.36277 0,0.19963 1.193515,2.48377 2.652035,5.07566 l 2.652034,4.71237 -2.936771,5.1201 c -1.615094,2.81619 -2.875176,5.23428 -2.800346,5.37332 0.07483,0.13903 1.036003,0.2527 2.135787,0.2527 h 1.999361 l 1.859318,-3.70727 c 1.022682,-2.03918 1.932639,-3.70778 2.022099,-3.70778 0.08945,0 0.909116,1.48689 1.821077,3.30419 0.911961,1.8173 1.88285,3.49069 2.157491,3.71863 0.348563,0.28934 1.702391,0.38596 4.483447,0.31936 l 3.983737,-0.0956 1.866552,-3.61993 c 1.026592,-1.99088 1.942328,-3.62152 2.035018,-3.62252 0.09269,-0.002 1.003031,1.62749 2.022616,3.61993 l 1.853633,3.62252 h 4.213178 4.21318 l 1.39837,-2.69647 c 0.76918,-1.48305 1.65186,-3.14358 1.96112,-3.69022 l 0.56224,-0.99374 2.01486,3.77445 2.01486,3.77445 h 2.17558 c 1.19655,0 2.17558,-0.13304 2.17558,-0.29611 0,-0.28897 -4.35662,-7.97631 -5.271,-9.30072 -0.25245,-0.36567 -0.45888,-0.86914 -0.45888,-1.1188 0,-0.24966 1.21292,-2.54671 2.69596,-5.10511 1.48302,-2.5584 2.69647,-4.7547 2.69647,-4.88032 0,-0.12602 -0.94772,-0.18326 -2.10633,-0.12816 l -2.10685,0.10077 -1.81694,3.30367 -1.81746,3.30316 -1.7508,-3.30316 -1.7508,-3.30367 -2.07739,-0.10077 c -1.53209,-0.074 -2.07771,0.0149 -2.07171,0.33745 0.003,0.24057 1.15254,2.48468 2.55334,4.98729 l 2.54713,4.55062 -1.4118,2.64015 c -0.77639,1.45219 -2.06314,3.78387 -2.85978,5.1816 l -1.44849,2.54145 -0.57361,-1.1374 c -0.31543,-0.62534 -1.54225,-2.81682 -2.72644,-4.87051 -1.184186,-2.05371 -2.153165,-3.94963 -2.152844,-4.21318 3.21e-4,-0.26353 1.137988,-2.47809 2.528014,-4.92114 1.39003,-2.44306 2.52749,-4.60472 2.52749,-4.80333 0,-0.21665 -0.81002,-0.3607 -2.02468,-0.3607 h -2.024167 l -1.755448,3.53002 -1.755449,3.5295 -1.548742,-2.9962 c -2.11774,-4.09807 -2.080295,-4.06332 -4.415235,-4.06332 -1.089575,0 -1.980757,0.083 -1.980757,0.185 0,0.29855 0.952027,2.08678 3.262333,6.12728 l 2.164209,3.78478 -2.749186,4.89479 c -1.512048,2.69185 -2.860516,4.89428 -2.996717,4.89428 -0.136199,0 -0.672963,-0.79667 -1.192692,-1.76992 -0.519731,-0.97323 -1.763605,-3.17502 -2.764172,-4.89273 l -1.819011,-3.1228 2.710429,-4.72426 c 1.490835,-2.5984 2.710429,-4.8787 2.710429,-5.06688 0,-0.20499 -0.821061,-0.30194 -2.047937,-0.24184 l -2.047937,0.10077 -1.744079,3.28558 c -0.959066,1.80714 -1.819338,3.28294 -1.912028,3.28094 -0.09269,-0.003 -0.699411,-1.07984 -1.348239,-2.39365 -2.208833,-4.4727 -2.076711,-4.34134 -4.376993,-4.34134 z" /></svg>
