<svg xmlns="http://www.w3.org/2000/svg" xml:space="preserve" width="173.701" height="442.11" viewBox="0 0 45.959 116.975"><path d="M37.067 60.97q-.115-7.737-4.272-13.048-4.043-5.66-9.816-5.659-5.773 0-9.815 5.659-4.042 5.427-4.273 13.048 0 7.62 4.273 13.049 4.041 5.427 9.815 5.427t9.816-5.427q4.272-5.428 4.272-13.049m-7.275-10.046 1.617 2.54.808 2.194.693 5.312q0 6.005-3.118 10.046-2.886 3.81-6.813 3.81-3.925 0-6.813-3.81-3.117-4.041-3.117-10.046 0-5.774 3.117-10.046 2.887-3.81 6.813-3.81 4.043-.117 6.813 3.81M25.173.115Q27.6 0 30.023 1.963l2.31 2.54.23 3.003q-.461 1.617-1.039 5.196l-.346 3.58-.116 4.041.578 5.659 4.503 13.972 5.658 19.515q1.386 6.466 1.502 14.434l-1.155 12.933 3.81 5.658v14.781h-9.93l-2.31 1.155-7.16 1.616v6.929H19.4v-6.929l-7.16-1.616-2.31-1.155-9.815-.115L0 92.494l3.926-5.542-1.27-13.049q.115-7.968 1.501-14.434 1.155-5.774 5.658-19.515l4.504-13.972.577-9.816-.462-3.464-1.04-5.196.232-3.003 2.31-2.54Q18.36 0 20.9 0"/></svg>