<?xml version="1.0" encoding="UTF-8" standalone="no"?>
<svg
   width="98.417473mm"
   height="102.73743mm"
   viewBox="0 0 98.417473 102.73743"
   version="1.1"
   xml:space="preserve"
   xmlns="http://www.w3.org/2000/svg"
   xmlns:svg="http://www.w3.org/2000/svg"><path
     style="fill:#000000"
     d="m 60.114769,101.32593 c -0.65131,-1.390275 -0.72366,-1.836315 -0.72366,-4.461405 0,-2.7865 0.0405,-2.99908 0.90715,-4.7625 1.11307,-2.26479 3.27017,-4.58193 5.57032,-5.98359 l 1.72461,-1.05095 -1.85208,0.16811 c -5.79782,0.52624 -8.77124,1.299 -10.6329,2.76338 -1.63908,1.2893 -1.82841,0.0668 -0.43429,-2.80412 1.57941,-3.25251 5.39926,-6.14636 9.25092,-7.00832 0.78067,-0.17471 1.4194,-0.39899 1.4194,-0.49841 0,-0.31978 -4.04546,-2.08466 -5.82084,-2.53941 -1.3613,-0.34868 -2.3954,-0.40679 -4.96093,-0.27878 -3.74117,0.18669 -3.86099,0.0955 -2.11667,-1.61083 2.19435,-2.14657 5.45241,-3.12313 9.72344,-2.91447 l 2.51354,0.1228 -1.58146,-0.75041 c -4.70901,-2.23446 -10.32017,-1.9506 -14.77208,0.74729 -0.84528,0.51225 -1.61225,0.85597 -1.70439,0.76383 -0.0921,-0.0921 -0.009,-0.61101 0.18527,-1.15306 1.87734,-5.24438 9.95466,-9.56464 16.02057,-8.56881 2.52295,0.41419 4.31486,1.22058 7.82933,3.52336 4.79353,3.14085 5.77386,3.44537 7.03421,2.18502 0.67748,-0.67748 0.68299,-0.71625 0.5551,-3.90261 -0.15164,-3.77825 -0.82732,-6.07472 -2.57783,-8.76152 -3.24312,-4.97772 -9.99591,-8.94988 -18.5091,-10.88752 -2.39083,-0.54416 -10.19735,-0.78384 -12.72025,-0.39054 -3.09329,0.48222 -5.63022,1.11237 -5.38364,1.33725 0.12335,0.1125 1.58179,0.65196 3.24099,1.1988 4.25506,1.40239 7.69347,3.25453 7.6971,4.14613 0.003,0.66395 -2.52839,1.11244 -5.04109,0.89326 l -2.02797,-0.1769 1.43825,1.53635 c 1.94787,2.08075 2.37755,3.26029 1.18523,3.25367 -0.42343,-0.002 -2.38923,-1.07546 -3.68875,-2.01364 -0.58887,-0.42514 -0.58781,-0.41311 0.0957,1.07979 0.85434,1.86613 1.63249,6.12723 1.19823,6.56148 -0.81538,0.81538 -4.57503,-3.30368 -5.6125,-6.14903 l -0.58192,-1.59598 -0.63465,1.88468 c -1.40407,4.1695 -1.93448,4.38275 -2.888267,1.16122 -0.354116,-1.19606 -0.462783,-2.4356 -0.440711,-5.02708 0.03303,-3.87747 -0.205959,-4.63021 -1.470037,-4.63021 -0.402071,0 -2.502948,0.66679 -4.668616,1.48174 -5.876075,2.21121 -8.343213,2.78748 -12.579813,2.93838 -2.64907,0.0944 -4.078115,0.0198 -5.5313616,-0.28873 -3.613783,-0.76713 -6.818937,-2.70064 -7.608225,-4.58968 -0.81838005,-1.95865 1.081379,-6.51027 4.409984,-10.56585 0.872219,-1.06271 1.585853,-1.99659 1.585853,-2.07528 0,-0.0787 -0.688751,-0.88423 -1.530557,-1.79006 -2.756068,-2.9657 -4.263886,-5.584007 -5.10133905,-8.858417 -0.612071,-2.393173 -0.676883,-4.889925 -0.138534,-5.336715 0.488936,-0.405781 0.588865,-0.219322 1.22316805,2.282332 1.153389,4.548898 3.734144,8.01638 7.265262,9.76156 1.8706406,0.92452 1.9413016,0.93793 2.7468496,0.52137 0.454749,-0.23516 0.825296,-0.57334 0.823439,-0.7515 -0.0019,-0.17817 -0.308486,-1.27644 -0.681396,-2.4406 -0.837049,-2.613136 -1.127132,-6.828518 -0.65606,-9.533616 0.517253,-2.970286 1.715073,-5.494951 3.525064,-7.429837 2.24653,-2.4015474 3.588817,-2.2243944 1.717841,0.226719 -2.074417,2.717634 -3.130726,6.8248 -2.612062,10.156284 0.268284,1.723247 1.971851,5.374678 2.606193,5.586125 0.170713,0.05691 0.629458,-0.529532 1.019433,-1.303191 2.031097,-4.029437 4.718915,-7.302076 7.122905,-8.672723 2.111978,-1.204154 5.463492,-1.998911 6.03201,-1.430392 0.366047,0.366046 -0.37385,1.081144 -1.45234,1.403662 -3.087471,0.923297 -5.701052,3.054736 -6.909772,5.635088 -0.713448,1.523053 -1.165617,3.240786 -0.80666,3.064397 3.009888,-1.479044 4.755971,-2.223793 6.713566,-2.863505 2.305358,-0.753356 7.187203,-1.850473 8.234053,-1.850473 0.27988,0 0.57843,-0.208359 0.66344,-0.46302 0.56898,-1.7045 1.80556,-3.917872 2.78277,-4.980945 0.63091,-0.686334 2.69491,-2.587504 4.58668,-4.224822 3.38355,-2.9284414 7.94669,-7.4450314 9.60156,-9.50360338 0.65947,-0.82035 0.91248,-0.978775 1.16302,-0.728238 0.76861,0.768606 -1.50399,5.60518798 -4.62662,9.84646198 -1.72571,2.3439304 -1.58451,2.4939154 1.36375,1.4485584 4.34497,-1.5405884 9.17105,-4.4443994 12.5838,-7.5715634 1.10995,-1.017064 1.89612,-1.547622 2.14929,-1.450472 0.3539,0.135805 0.35488,0.259195 0.009,1.087816 -1.02555,2.454489 -4.66765,6.8063334 -7.33491,8.7642804 -0.70538,0.517797 -1.28251,1.030666 -1.28251,1.139708 0,0.412322 8.99296,-1.165241 11.97894,-2.101368 2.03239,-0.637173 2.04398,-0.637278 2.04398,-0.01856 0,1.17394 -5.06946,4.621536 -7.60374,5.171089 -1.29537,0.280898 -1.30616,0.673669 -0.0187,0.678857 2.92194,0.01177 8.78384,2.144539 9.48255,3.450078 0.40325,0.753487 -0.15037,0.879443 -2.35915,0.536739 -2.46324,-0.382186 -5.5352,-0.348735 -7.97652,0.08686 -2.13529,0.380988 -4.91966,1.438679 -4.56944,1.735783 0.11696,0.09922 1.16516,0.567717 2.32932,1.0411 4.13785,1.682567 8.52807,4.292793 12.30313,7.314863 1.76299,1.41136 5.57076,5.2383 6.49455,6.52727 l 0.51691,0.72124 1.17646,-0.79555 c 1.90523,-1.28839 4.46543,-1.93999 6.88825,-1.75316 2.1308,0.16432 4.50625,0.90781 6.10106,1.90957 1.46931,0.92294 3.6936,3.49791 3.6936,4.27592 0,0.76599 -0.0208,0.76352 -2.57268,-0.30445 -1.86746,-0.78157 -4.19199,-1.27372 -5.44389,-1.1526 l -0.84697,0.082 1.48532,0.84182 c 0.81692,0.463 1.9777,1.4155 2.5795,2.11667 1.89978,2.21346 3.46459,6.96338 2.29401,6.96338 -0.21342,0 -0.97638,-0.52253 -1.69547,-1.16118 -2.09729,-1.86269 -3.86267,-2.95791 -6.20062,-3.8468 l -0.73556,-0.27966 0.6682,0.87605 c 0.92555,1.21347 1.47233,2.90124 1.47233,4.54475 0,2.08088 -0.52681,2.33201 -1.54339,0.73572 -0.44334,-0.69616 -1.06148,-1.56341 -1.37366,-1.92721 l -0.56759,-0.66146 0.15698,0.66146 c 0.74636,3.14506 0.99708,5.66783 0.86774,8.73125 -0.19801,4.68989 -1.01535,7.12183 -3.91686,11.65426 -1.79248,2.80003 -1.99264,3.40439 -2.34184,7.07091 -0.50845,5.33866 -1.29973,7.66271 -3.35825,9.86343 -1.56216,1.67007 -2.55811,2.25592 -6.51424,3.83181 -3.68261,1.46694 -5.82553,2.78729 -7.153,4.40729 -1.48266,1.8094 -2.12378,3.48294 -2.15176,5.616925 -0.0313,2.38455 -0.45917,2.53844 -1.41068,0.50738 z M 15.496738,45.038925 c 1.151746,-1.15175 1.252417,-2.41895 0.223255,-2.81024 -1.253359,-0.47652 -3.274324,0.99937 -3.286538,2.40014 -0.01373,1.5748 1.672797,1.80059 3.063283,0.4101 z"/></svg>
