<?xml version="1.0" encoding="UTF-8" standalone="no"?>
<svg
   width="114.09155mm"
   height="102.66751mm"
   viewBox="0 0 114.09155 102.66751"
   version="1.1"
   xml:space="preserve"
   xmlns="http://www.w3.org/2000/svg"
   xmlns:svg="http://www.w3.org/2000/svg"><path
     style="fill:#000000"
     d="m 55.540833,101.27845 c -1.468788,-1.562536 -4.06139,-4.952576 -5.31157,-6.945316 -0.848215,-1.35201 -2.662701,-4.98974 -3.263888,-6.54352 -0.320787,-0.82907 -0.344141,-0.76151 -0.565164,1.63508 -0.126803,1.37494 -0.294445,2.56379 -0.372538,2.64188 -0.247581,0.24758 -1.126123,-1.11544 -1.809161,-2.80685 -0.841746,-2.08441 -1.732964,-6.43607 -1.927678,-9.41252 -0.0833,-1.27331 -0.173547,-2.31511 -0.200555,-2.31511 -0.02701,0 -0.564975,0.47625 -1.195485,1.05834 -1.182349,1.09154 -2.024413,1.34202 -2.279228,0.67798 -0.176558,-0.4601 0.573516,-3.37257 2.008349,-7.79823 0.585546,-1.80609 1.064629,-3.50651 1.064629,-3.77872 0,-0.2722 -0.590304,-1.65673 -1.311787,-3.07671 -1.645721,-3.23903 -2.084753,-4.89767 -2.382965,-9.00269 -0.130529,-1.7968 -0.287086,-3.31667 -0.347903,-3.37748 -0.06082,-0.0608 -0.81321,-0.28854 -1.671982,-0.50604 -4.774421,-1.20922 -8.934256,-4.49705 -10.904897,-8.61896 -1.15796,-2.42206 -1.736657,-4.6165 -1.595007,-6.04834 0.115864,-1.17118 0.474577,-1.27282 4.612323,-1.30694 3.481571,-0.0287 6.525871,0.55114 8.257409,1.57277 0.502472,0.29646 0.959172,0.49344 1.014889,0.43772 0.05572,-0.0557 -0.28671,-0.85938 -0.76095,-1.78592 -1.1401,-2.22746 -3.44065,-4.56113 -5.402382,-5.48014 -1.343945,-0.6296 -1.872791,-0.72393 -4.05883,-0.72393 -2.245572,0 -2.682786,0.083 -4.101042,0.77831 -5.920724,2.90275 -8.999782,12.28486 -6.613052,20.15043 0.611961,2.01675 0.624724,2.02396 2.225949,1.25764 0.990719,-0.47414 2.034263,-0.72016 3.473012,-0.81877 1.897979,-0.13009 2.191162,-0.0781 3.798075,0.67389 3.706918,1.73468 6.240465,5.64372 7.053312,10.88265 0.992484,6.39671 -3.795421,11.68678 -10.545631,11.65167 -7.449254,-0.0387 -15.5904169,-8.93735 -19.9130189,-21.76572 -5.41947,-16.08359 -1.85930296,-34.57382 8.5816219,-44.5698803 7.548475,-7.22683999 17.736428,-9.794951 26.845567,-6.76704 6.385407,2.12253 10.780649,5.53935 16.757885,13.0274203 2.069109,2.5921 2.879745,2.43061 5.597473,-1.11512 8.798944,-11.4796903 20.957804,-15.7919043 32.533004,-11.5380303 10.347453,3.80267 17.606903,13.0137303 20.310963,25.7713003 2.57371,12.14258 -0.17095,26.28424 -7.09089,36.53526 -5.61738,8.32146 -11.313843,11.60491 -17.388353,10.0227 -5.39237,-1.40453 -8.32868,-5.74482 -7.55882,-11.17303 0.74055,-5.22153 3.82637,-9.75225 7.6166,-11.18297 2.04254,-0.77101 4.61894,-0.6297 6.66321,0.36545 0.79122,0.38516 1.47065,0.7003 1.50985,0.7003 0.0392,0 0.39318,-0.98226 0.78664,-2.18281 0.98724,-3.0123 1.04984,-7.73515 0.14455,-10.90477 -1.22879,-4.30223 -3.53506,-7.42041 -6.60675,-8.9326 -1.61442,-0.79478 -1.96757,-0.86628 -4.27876,-0.86628 -2.23868,0 -2.69145,0.0846 -4.0673,0.7602 -1.95335,0.95913 -4.0221,3.01683 -5.13254,5.1051 -0.47294,0.88941 -0.85989,1.73189 -0.85989,1.87218 0,0.1403 0.58208,-0.0235 1.29351,-0.36397 2.12331,-1.01618 4.3689,-1.41462 7.83461,-1.3901 4.3348,0.0307 4.47822,0.0822 4.57909,1.64691 0.25468,3.95041 -3.40019,9.79779 -7.75815,12.41216 -1.43391,0.86021 -3.85342,1.77603 -5.71424,2.16292 -0.67852,0.14107 -0.69469,0.19608 -0.87978,2.99207 -0.2836,4.28399 -0.76841,6.19498 -2.40075,9.46295 -0.79956,1.60073 -1.4534,3.07494 -1.45298,3.27602 4.3e-4,0.20108 0.66622,2.40374 1.47954,4.89479 1.60974,4.93034 1.89956,6.8234 1.07052,6.99256 -0.31041,0.0633 -0.905,-0.30326 -1.60312,-0.98841 l -1.10971,-1.0891 -0.5761,4.08519 c -0.31686,2.24685 -0.86116,4.98281 -1.20955,6.0799 -0.66647,2.09873 -1.86645,4.39801 -2.29529,4.39801 -0.14263,0 -0.25343,-1.03434 -0.25343,-2.36564 0,-1.3011 -0.093,-2.4231 -0.20663,-2.49334 -0.11365,-0.0702 -0.60827,0.78594 -1.09917,1.90262 -1.12522,2.55959 -3.11757,5.94949 -5.003146,8.5126 -1.48415,2.01746 -4.202694,5.027086 -4.540869,5.027086 -0.102261,0 -0.773503,-0.62508 -1.491649,-1.38906 z m 3.196083,-17.952936 c 0.572594,-0.15897 1.340359,-0.48514 1.706145,-0.72481 l 0.665065,-0.43577 -1.235945,-0.17679 c -0.679769,-0.0972 -1.592685,-0.35476 -2.028702,-0.57227 -0.722828,-0.3606 -0.880102,-0.35095 -1.782916,0.10933 -0.544586,0.27764 -1.465045,0.50481 -2.045463,0.50481 -1.355088,0 -0.993192,0.41288 0.950223,1.08408 1.642433,0.56725 2.347597,0.60678 3.771593,0.21142 z m -3.338148,-3.42024 c 1.158696,-0.70643 1.018155,-1.2377 -0.609087,-2.30247 -2.209151,-1.44552 -2.956407,-2.29622 -3.125696,-3.55836 -0.175472,-1.30825 -0.07037,-1.51131 0.554437,-1.07126 3.707128,2.61092 5.528716,2.73672 8.698908,0.60075 l 1.541005,-1.03827 0.08289,0.92374 c 0.113587,1.26578 -0.606316,2.3888 -2.199561,3.43123 -2.133731,1.39606 -2.576893,1.88079 -2.260307,2.47234 0.149529,0.2794 0.697263,0.64839 1.217188,0.81998 1.875319,0.61891 4.056802,-0.35972 4.889152,-2.1933 0.4153,-0.91485 0.50979,-1.74656 0.51792,-4.5586 0.012,-4.14434 0.26796,-5.32113 2.27994,-10.48129 1.3717,-3.51802 1.60685,-3.95045 2.08321,-3.83089 0.29534,0.0741 1.0036,-0.12812 1.57391,-0.44944 1.32288,-0.74531 2.08741,-2.24237 2.65766,-5.20402 0.23926,-1.24265 0.67637,-3.29653 0.97135,-4.56419 0.63284,-2.71957 0.55532,-3.22482 -0.86791,-5.6572 -0.58813,-1.00515 -1.23199,-2.21553 -1.43078,-2.68974 l -0.36145,-0.86218 -1.13702,0.5976 c -2.32658,1.22282 -6.27433,0.52679 -9.798476,-1.72758 -1.793863,-1.14752 -3.183194,-1.60655 -4.254236,-1.40559 -0.463458,0.087 -1.854682,0.75385 -3.091609,1.48197 -2.922498,1.72034 -4.465989,2.2332 -6.746874,2.24181 -1.476386,0.006 -2.065066,-0.11887 -2.902031,-0.61348 -0.577472,-0.34125 -1.083516,-0.51985 -1.124543,-0.39687 -0.04103,0.12298 -0.436838,0.87844 -0.879579,1.6788 -0.44274,0.80037 -1.177023,2.21797 -1.631739,3.15024 l -0.826757,1.69503 0.479801,1.74455 c 0.263891,0.95951 0.580447,2.45893 0.703457,3.33206 0.376992,2.67589 1.449179,5.75845 2.268968,6.52334 0.992311,0.92586 1.738925,1.28178 2.352304,1.12138 0.440607,-0.11522 0.703879,0.36248 1.939565,3.51931 2.16014,5.51856 2.19005,5.64749 2.381729,10.26721 0.216319,5.21359 0.562377,6.09847 2.795075,7.14711 1.122184,0.52706 2.239797,0.47778 3.259182,-0.14372 z m -5.186386,-13.61797 c -0.164327,-0.58208 -0.603951,-2.48708 -0.976944,-4.23333 -0.372992,-1.74625 -0.926513,-3.92774 -1.230046,-4.84776 -0.653144,-1.9797 -1.985022,-3.48583 -3.084521,-3.48809 -0.395332,-8.1e-4 -1.177445,-0.12883 -1.738029,-0.28449 l -1.019244,-0.28302 0.169122,-1.12778 c 0.20461,-1.36444 -0.0742,-2.17033 -1.190829,-3.4421 -0.465677,-0.53038 -0.79058,-1.02043 -0.722007,-1.089 0.251127,-0.25113 2.876306,0.40832 4.105929,1.03142 1.912535,0.96916 3.903507,3.24688 5.182241,5.92863 l 1.101728,2.31052 0.08481,3.83646 c 0.04664,2.11005 -0.02054,4.4913 -0.149312,5.29167 l -0.234121,1.4552 z m 13.033285,-2.40269 c -0.30812,-5.342 -0.1173,-6.61587 1.46916,-9.8082 1.94653,-3.91688 4.43374,-5.97652 7.68176,-6.3612 l 1.37129,-0.16241 -0.95842,1.39329 c -0.7725,1.12302 -0.95841,1.63788 -0.95841,2.65413 0,1.50163 -0.28573,1.79528 -1.97173,2.02637 -2.76601,0.37913 -3.61253,1.88957 -5.16793,9.22113 -0.46309,2.18281 -0.93848,4.06922 -1.05642,4.19203 -0.11794,0.1228 -0.30213,-1.29701 -0.4093,-3.15514 z m -26.66074,-16.94292 c 0.05346,-0.16257 -0.234868,-0.36631 -0.640735,-0.45275 -1.250757,-0.26638 -2.433903,-1.17786 -3.235038,-2.49224 -1.201075,-1.97054 -2.133486,-2.78043 -2.1329,-1.85265 4.67e-4,0.74032 1.592771,3.62942 2.230692,4.0474 1.552314,1.01711 3.559163,1.41564 3.777981,0.75024 z m 44.29604,-0.57079 c 0.97195,-0.60181 1.62022,-1.54926 2.21658,-3.23951 0.35392,-1.00313 0.34882,-1.08336 -0.0638,-1.00389 -0.24666,0.0475 -0.71384,0.50226 -1.03818,1.01057 -0.32435,0.50832 -0.84676,1.25544 -1.16092,1.66028 -0.59415,0.76564 -2.31327,1.77747 -3.01994,1.77747 -0.48443,0 -0.54622,0.4388 -0.0835,0.59304 0.57257,0.19086 2.2316,-0.22944 3.14977,-0.79796 z M 36.13742,43.019484 c -0.783605,-2.37435 -4.273877,-3.59003 -6.220489,-2.16663 -0.429314,0.31392 -0.317423,0.35571 0.952413,0.35571 1.736193,0 2.635638,0.43822 4.201814,2.04716 1.266516,1.3011 1.552704,1.23769 1.066262,-0.23624 z m 44.709457,-1.3473 c 0.55508,-0.29225 1.4896,-0.49034 2.33288,-0.49449 1.20475,-0.006 1.34067,-0.0553 0.94622,-0.34374 -1.15252,-0.84274 -3.50487,-0.73418 -4.71485,0.21759 -0.76605,0.60258 -1.74085,2.32397 -1.73643,3.06635 0.002,0.33973 0.31979,0.12997 1.12448,-0.74229 0.61691,-0.66871 1.53838,-1.43525 2.0477,-1.70342 z M 50.60658,35.966114 c 2.292456,-1.10976 4.575714,-4.26473 4.575714,-6.32265 0,-2.16759 -1.446868,-2.17053 -3.744585,-0.008 -0.923655,0.86946 -2.608638,2.06951 -3.744406,2.66677 -2.212314,1.16339 -2.746064,1.85674 -2.310743,3.00172 0.608177,1.59963 2.731133,1.86857 5.22402,0.66178 z m 17.684617,0.1707 c 1.30086,-1.30087 0.76515,-2.45874 -1.71558,-3.70802 -1.05197,-0.52976 -2.65968,-1.69712 -3.82354,-2.77626 -1.104565,-1.02417 -2.133954,-1.86212 -2.287528,-1.86212 -0.153574,0 -0.583482,0.30426 -0.955351,0.67612 -0.572259,0.57226 -0.648376,0.82405 -0.495483,1.63904 0.656737,3.50071 4.212412,6.60889 7.623832,6.66435 0.7278,0.0118 1.18298,-0.16244 1.65365,-0.63311 z m -20.538604,-6.38742 c 5.22104,-2.61198 8.59146,-9.20665 5.778662,-11.3067 -1.064439,-0.79472 -1.966955,-0.27087 -3.714785,2.15617 -1.786899,2.4813 -3.248848,3.97384 -5.402426,5.51546 -0.902069,0.64574 -1.71655,1.41487 -1.809958,1.70917 -0.394654,1.24345 1.112824,2.85437 2.68693,2.87131 0.307871,0.003 1.41558,-0.42212 2.461577,-0.94541 z m 22.702284,0.42949 c 0.85046,-0.51855 1.26123,-1.38755 1.086,-2.29746 -0.0508,-0.26401 -0.86506,-1.05458 -1.80937,-1.75683 -2.42108,-1.80048 -3.53005,-2.93009 -5.17906,-5.27543 -1.66513,-2.36826 -2.396309,-2.94858 -3.398249,-2.69711 -1.621988,0.40709 -1.871875,2.9844 -0.565932,5.83695 0.953985,2.08378 3.530301,4.66098 5.788961,5.79094 2.10739,1.05428 2.87902,1.12977 4.07765,0.39894 z m -26.977199,-6.36753 c 1.895571,-0.94723 4.438629,-3.5249 5.374412,-5.44757 0.780291,-1.60319 0.858117,-3.89233 0.168132,-4.94538 -0.353001,-0.53875 -0.680649,-0.70924 -1.363013,-0.70924 -1.392869,0 -1.630649,0.17805 -3.168354,2.37252 -0.791456,1.12949 -2.334325,2.85811 -3.428597,3.84136 -2.155486,1.93681 -2.565582,2.7818 -2.005881,4.13303 0.3482,0.84063 1.356761,1.53142 2.261178,1.54875 0.304179,0.006 1.277134,-0.35124 2.162123,-0.79347 z m 31.039549,0.0307 c 0.57922,-0.57921 0.7734,-1.02196 0.7734,-1.7634 0,-0.89246 -0.21653,-1.20076 -2.19773,-3.1292 -1.20875,-1.17657 -2.69675,-2.8764 -3.30666,-3.77741 -1.29603,-1.9146 -1.98632,-2.46436 -3.08729,-2.45879 -1.41431,0.007 -1.99177,0.8257 -1.99145,2.82283 5.2e-4,3.1263 3.41084,7.48877 6.79906,8.69733 1.51917,0.54187 2.16085,0.45846 3.01067,-0.39136 z m -35.669221,-6.06283 c 1.546623,-1.0641 4.765325,-4.52814 5.347609,-5.75521 1.425545,-3.0041203 -1.738339,-5.4330203 -4.228756,-3.2464103 -1.227358,1.07764 -4.258026,4.8433503 -4.912436,6.1038703 -1.122533,2.16223 -0.294351,4.08442 1.650678,3.8312 0.533324,-0.0694 1.497632,-0.48949 2.142905,-0.93345 z m 39.878411,0.75284 c 0.26982,-0.1444 0.62685,-0.67544 0.79339,-1.18009 0.25481,-0.77205 0.22233,-1.09749 -0.20484,-2.05255 -0.68528,-1.53216 -4.82443,-6.6209503 -5.71568,-7.0270303 -1.16826,-0.5323 -2.19147,-0.39502 -3.0989,0.41577 -0.6943,0.62036 -0.82727,0.92753 -0.81411,1.8807503 0.0198,1.4363 0.82945,2.70233 3.33207,5.21043 2.61159,2.61731 4.37347,3.46698 5.70807,2.75272 z m -67.711626,-4.00427 c 0.402816,-0.75266 -0.07344,-1.81861 -0.812538,-1.81861 -0.6208259,0 -1.1598279,1.11272 -0.9140739,1.88703 0.218378,0.68805 1.3456709,0.64338 1.7266119,-0.0684 z m 21.1246,0.31098 c 0.258623,-0.13841 0.948647,-0.88255 1.533387,-1.65364 0.58474,-0.7711 1.984036,-2.47355 3.109546,-3.7832403 1.939006,-2.2563 2.039179,-2.43522 1.909096,-3.40984 -0.173426,-1.29936 -0.63174,-1.75614 -1.927411,-1.92099 -1.430465,-0.182 -3.130266,0.95341 -4.673703,3.12189 -2.572122,3.6137303 -3.432432,6.2720203 -2.399296,7.4136203 0.47269,0.52232 1.69049,0.63781 2.448381,0.2322 z m 52.192376,-0.18622 c 0.79944,-0.72348 0.62959,-2.41909 -0.44975,-4.48981 -2.06633,-3.9642903 -4.61001,-6.3658403 -6.44139,-6.0814603 -1.09648,0.17025 -1.78701,0.76292 -1.96329,1.68503 -0.19514,1.02083 0.13272,1.66115 1.81215,3.53922 0.82817,0.9261203 2.04609,2.3982303 2.70649,3.2713603 0.6604,0.87312 1.44944,1.79321 1.75342,2.04464 0.70338,0.58177 1.95716,0.59683 2.58237,0.031 z m 20.538573,-0.36968 c 0.14478,-1.24277 -1.52366,-2.0685 -1.94755,-0.96386 -0.0754,0.19649 -0.0131,0.68334 0.13842,1.0819 0.22215,0.5843 0.4164,0.70843 1.00298,0.64094 0.55558,-0.0639 0.74607,-0.24327 0.80615,-0.75898 z m -89.039547,-1.77213 c 0.57705,-0.63918 1.039427,-2.6328803 0.938619,-4.0471703 -0.07507,-1.05313 -0.158649,-1.18699 -0.786568,-1.25965 -0.538378,-0.0623 -0.854475,0.1232 -1.352523,0.79375 -1.156128,1.55655 -1.637505,3.9557803 -0.934692,4.6585903 0.467234,0.46724 1.65506,0.38628 2.135164,-0.14552 z m 11.103238,0 c 0.224813,-0.25466 0.894998,-1.43645 1.489301,-2.6262103 0.594302,-1.18975 1.559912,-2.90485 2.145798,-3.81133 1.164107,-1.8011 1.293819,-2.46249 0.627366,-3.19892 -0.566577,-0.62606 -1.594696,-0.61381 -2.653204,0.0316 -1.128486,0.68809 -2.922744,2.9867 -3.728228,4.77621 -0.755229,1.67785 -0.937857,4.1521403 -0.358184,4.8527703 0.47894,0.57887 1.957541,0.56447 2.477151,-0.0241 z m 62.768836,-0.0578 c 1.22099,-1.34918 -0.34994,-5.7781803 -3.02527,-8.5292403 -1.25649,-1.29206 -1.63678,-1.53327 -2.41735,-1.53327 -1.9145,0 -2.09651,1.45235 -0.49155,3.92233 0.58836,0.90546 1.43796,2.44718 1.888,3.42604 1.23971,2.6964203 1.6905,3.2349603 2.70781,3.2349603 0.52637,0 1.05221,-0.20463 1.33836,-0.52082 z m 10.579363,0.16509 c 0.39043,-0.28549 0.45961,-0.59422 0.35035,-1.56354 -0.19286,-1.7111203 -1.163073,-3.6013403 -1.949823,-3.7988103 -1.45457,-0.36507 -1.74995,0.50398 -1.13922,3.3517203 0.44468,2.07346 1.5465,2.88238 2.738693,2.01063 z m -79.153921,-0.6418 c 0.233124,-0.25759 0.800707,-1.53752 1.261297,-2.8442703 0.460589,-1.30675 1.069294,-2.83153 1.352677,-3.38841 1.120956,-2.20278 -0.116666,-3.01628 -2.186757,-1.43736 -2.95413,2.25319 -3.988599,8.1384103 -1.430522,8.1384103 0.318694,0 0.770182,-0.21077 1.003305,-0.46837 z m 73.869378,-0.05595 c 0.6758,-0.74674 0.43586,-3.4008003 -0.46885,-5.1861703 -0.88153,-1.73961 -2.58036,-3.28535 -3.61073,-3.28535 -1.12204,0 -1.22706,0.71396 -0.39559,2.68944 0.38667,0.91867 0.97933,2.487 1.31704,3.48518 0.33771,0.9981703 0.81893,2.0412903 1.06938,2.3180403 0.5889,0.65072 1.48897,0.64161 2.08875,-0.0211 z" /></svg>
