<?xml version="1.0" encoding="UTF-8" standalone="no"?>
<svg
   width="109.85811mm"
   height="113.2169mm"
   viewBox="0 0 109.85811 113.2169"
   version="1.1"
   xml:space="preserve"
   xmlns="http://www.w3.org/2000/svg"
   xmlns:svg="http://www.w3.org/2000/svg"><path
     style="fill:#000000"
     d="m 55.316782,110.91882 c 0.58328,-3.63567 -3.27052,-5.77692 -3.79494,-9.20194 -1.96002,-4.503573 2.28772,-10.877173 -0.93067,-14.249783 -1.51404,4.64548 -6.49908,8.38307 -8.144134,13.113383 1.152346,2.57636 -0.913665,11.50668 -1.840536,4.64126 -4.104796,-5.422953 1.158022,-10.082833 2.300281,-15.178013 0.446079,-2.47073 0.8768,-11.6231 -1.534921,-4.974 -0.309873,0.71646 -2.479858,-1.08041 -6.361726,4.06989 -4.089177,1.87501 -8.786718,2.53605 -9.509413,7.90795 -0.520327,2.76195 -9.307228,4.478513 -4.432767,0.94177 2.383051,-5.3144 2.91147,-12.23038 8.944655,-15.05845 2.370277,-1.23906 8.711434,-6.35603 5.019814,-7.11643 -1.780701,-1.58141 -0.848966,-2.86994 -3.609761,-5.73405 -3.682454,3.87998 -10.57459,4.32308 -11.999362,10.22472 -0.153852,3.11767 -8.217425,6.25334 -3.79222,1.5154 0.870497,-5.69605 4.352018,-10.11885 9.423065,-12.74433 1.869738,-1.63902 8.069417,-9.55068 1.932315,-5.44263 -3.956993,4.40046 -11.031876,2.69294 -14.713429,6.95464 -4.418545,5.89626 -0.864746,-7.08287 3.756074,-5.38999 2.66005,0.5885 5.840369,-4.83516 9.819314,-6.91833 2.378944,-0.71473 5.819439,-2.84313 1.239545,-1.22901 -5.082707,2.9552 -10.382835,1.78499 -15.032276,-1.01001 C 8.241559,58.026927 1.653616,59.745107 0,54.576887 c 5.938861,2.11422 9.865629,-4.37987 15.535522,-4.34392 3.740418,-0.16443 12.444369,2.89435 13.24143,0.0941 -0.647457,-0.96444 -0.372394,-4.28712 1.395865,-6.18046 -5.341274,1.12738 -9.601156,-5.2417 -14.913363,-5.92061 -2.152123,1.5952 -12.595893,0.72042 -5.599899,-0.99307 5.123947,-4.1664 10.932656,-2.22937 15.545583,1.54471 10.778456,1.13543 11.602962,-1.70406 12.954007,-3.76147 -4.277759,-3.32093 -11.268407,-4.64953 -11.661924,-11.19061 -2.564229,-2.95886 -11.302322,-4.00137 -8.562219,-9.00855 3.994307,4.60106 11.508214,1.56168 15.328189,6.54305 2.823453,3.10037 6.728877,10.68976 10.079166,10.20055 -3.900393,-4.50393 0.922775,-11.93745 -3.445048,-15.86616 -3.248753,-0.12693 -7.001599,-7.8376696 -2.041054,-3.85253 6.317927,0.70746 8.859787,6.42972 8.023617,12.17425 -1.601753,3.6449 3.220123,4.55164 6.90825,5.91974 1.64517,-1.30585 -4.09667,-8.8261 -1.7238,-12.5573 4.32244,-3.89919 2.71763,-8.5163696 1.43433,-13.1970796 0.67023,-3.35998003 4.66148,-6.85778 3.21159,-1.14713 0.89633,4.76325 5.7895,8.5950696 4.17384,13.9031096 -0.65681,4.16509 -3.33398,10.62436 0.51319,13.58638 -0.0791,-5.26086 3.4773,-9.39146 7.499786,-12.42802 4.3875,-1.81541 -0.97997,-12.2523596 2.54155,-11.1519196 1.8068,4.7023796 5.05143,10.9266996 -0.65245,14.5078696 -3.3918,2.43575 -2.79764,8.90668 -0.7634,11.4144 0.52121,-4.83372 4.23153,2.92157 3.77235,-0.10504 -0.73906,-3.15955 2.65166,-11.26861 8.5853,-11.83636 2.46501,-3.20476 3.13505,-9.98566 8.90192,-8.71767 -4.45746,3.67189 -2.2473,10.40259 -6.25218,14.33457 -2.95424,3.26745 -8.7922,6.00449 -8.27718,10.90587 3.47461,-4.66108 9.4718,-4.1827 14.29611,-6.18651 2.27353,-1.38384 3.59247,-7.65037 6.40315,-6.30688 -1.55859,4.79865 -3.07693,10.56976 -9.03865,11.4364 -3.77201,0.77944 -8.51498,6.7682 -7.2216,9.30051 3.47345,-3.58808 7.92112,-6.87298 13.20635,-6.15532 4.03914,1.75444 5.6229,-4.63111 8.115842,-4.06517 -0.32588,6.65667 -6.509542,7.97407 -11.939902,7.96827 -7.40463,3.6463 -6.7712,9.16989 -7.24796,9.44259 0.39284,0.62162 8.02107,-6.27701 11.5367,-2.41906 4.3833,4.98306 9.758212,-3.15432 14.342222,0.98796 5.88723,4.22945 -5.73194,0.27807 -7.19463,4.58619 -5.619132,4.32394 -13.149742,-0.43447 -19.014262,2.7793 2.5857,0.6333 2.72182,5.79357 5.38178,5.90072 4.71563,1.88078 9.29569,5.29199 14.489882,2.46539 3.00153,-0.66224 4.81825,0.83065 0.90913,1.80361 -4.226372,3.90077 -9.944692,2.89165 -14.539532,0.29046 -2.21536,-0.88134 -10.44747,-1.68015 -9.41648,1.29753 6.27668,0.13276 8.27873,7.20713 13.29776,9.13032 2.50213,-0.30156 9.053472,-1.01378 3.39739,1.4206 -5.3277,4.24291 -9.57019,-1.77261 -13.29057,-4.72152 -8.08239,-0.32238 -5.63432,-2.35521 -8.08296,1.65214 1.97159,0.18062 10.54922,5.18486 10.18877,11.27998 2.41605,2.53434 9.49488,3.87151 7.3491,8.7383 -3.82784,-4.04026 -10.93926,-2.35387 -13.87324,-7.69246 -2.38596,-2.72326 -5.77301,-10.32673 -9.26124,-8.42611 4.4993,4.33261 -0.4903,12.39881 4.9747,16.11379 2.81234,1.16759 3.81988,7.465593 0.12317,3.287603 -6.17666,-1.632633 -6.52669,-7.887283 -8.04726,-12.885263 -4.833646,-4.5994 -6.194031,-0.51162 -6.168376,2.97683 2.49165,5.66125 -5.86737,9.958293 -1.09778,15.458453 1.27714,1.74692 -3.34591,10.35366 -3.0138,4.01262 z m 1.99746,-26.221293 c 6.28303,-2.9331 12.096346,-7.43421 16.133146,-13.10638 1.33515,-1.78428 4.70285,-10.01075 4.08042,-16.12271 -0.0237,-2.59738 -3.78733,4.31764 -6.07822,4.46974 -4.17835,2.2047 -11.428276,0.6588 -14.213826,-1.75901 -0.60442,-5.09578 1.20781,-12.08566 7.246916,-12.69993 3.71849,-1.86895 10.97869,4.79848 11.8936,1.90487 -1.76545,-5.46178 -5.46703,-10.46625 -11.27876,-11.97999 -9.138796,-2.9326 -20.876856,-2.12263 -27.590816,5.4264 -1.753468,2.54911 -6.150455,10.39348 0.113731,6.4924 4.551208,-2.64455 11.610849,-3.06015 14.475269,2.20025 3.15315,5.00384 -0.3804,11.07676 1.26507,16.11485 3.0535,3.65764 4.10344,-4.41498 4.8745,0.0619 2.28377,0.73447 0.21073,-5.06752 2.45938,-1.01049 1.23281,4.06546 -4.46434,1.77845 -5.48098,4.88856 -5.96515,0.53507 -7.87623,-5.45064 -4.75413,-9.86378 -5.14441,1.88269 -11.57986,2.01669 -15.180685,-2.83586 -3.568747,-6.47779 -0.984143,9.50935 1.273046,13.37892 3.258377,5.87366 8.911629,10.05568 14.556139,13.46674 1.90361,0.93719 4.09365,1.81355 6.2062,0.97356 z m -4.33013,-5.90785 c -3.77392,0.27812 -4.36302,-4.5759 -6.26537,-6.56492 2.97849,1.59047 5.45682,-3.17037 8.12504,-0.53192 2.86976,-1.64773 6.487203,1.59606 8.889253,0.57308 -1.7406,2.01165 -3.506986,6.92752 -6.276124,6.46152 -1.732307,0.34304 -2.331459,0.26235 -4.472799,0.0622 z m 4.74424,-3.06518 c 4.27184,-1.34625 -5.25154,-2.04524 -6.25287,-0.79224 1.18126,1.84944 4.39305,1.52095 6.25287,0.79224 z m -10.50887,-18.21965 c 6.24683,-0.81117 -2.50766,-8.21321 -6.079056,-5.53462 -3.029355,0.11359 -5.943179,1.00317 -2.47329,3.66875 2.160367,2.42486 5.619036,2.31664 8.552346,1.86587 z m 22.822276,-0.54025 c 3.45112,-1.48442 5.18714,-5.50011 -0.003,-4.8788 -4.67541,-3.5765 -13.813176,6.34156 -5.16423,5.61787 1.7343,0.0343 3.59703,0.13174 5.16764,-0.73907 z" /></svg>
