<?xml version="1.0" encoding="UTF-8" standalone="no"?>
<svg
   width="51.21965mm"
   height="76.407654mm"
   viewBox="0 0 51.21965 76.407654"
   version="1.1"
   xml:space="preserve"
   xmlns="http://www.w3.org/2000/svg"
   xmlns:svg="http://www.w3.org/2000/svg"><path
     style="display:inline;fill:#000000"
     d="m 0.34074188,0.01895236 c -0.607285,-0.13295 -0.204771,0.58391 -0.266704,0.92432 0.430018,8.72841004 0.542983,17.46888964 0.820913,26.20291964 0.33192502,13.02849 0.45588102,26.06337 0.35135302,39.09565 0.0054,3.11709 -0.26911802,6.22136 -0.66506002,9.31033 -0.307793,0.82483 0.61919702,0.28558 1.05246702,0.25974 3.479473,-0.63626 7.036324,-0.6847 10.5616291,-0.86425 8.83655,-0.29491 17.69098,-0.38202 26.52305,0.0742 4.05923,0.283 8.12223,0.65408 12.1321,1.35463 0.55247,0.21883 0.12284,-0.77518 0.2109,-1.09812 -0.74623,-9.83924 -1.22087,-19.71414 -0.8223,-29.58182 0.31495,-9.59011 0.52544,-19.18456 0.98056,-28.76943 -4.71575,0.11123 -9.42616,0.55747 -14.15039,0.70508 -0.41394,-3.24691 -0.51023,-6.52803 -0.72684,-9.7923296 -0.10866,-1.91606 -0.18901,-3.83348 -0.27511,-5.75064 C 24.91174,0.45504236 13.65164,0.18008236 2.3950439,0.00484236 c -0.684864,6.5e-4 -1.369856,-0.0181 -2.05430202,0.0141 z M 5.2411329,1.9447324 c 1.116015,0.18674 1.743473,1.30665 2.427111,2.10251 0.292417,0.2886 0.778427,1.38325 0.736952,0.44631 0.03396,-0.72045 0.404109,-1.79407 1.326172,-1.53906 1.0926551,0.25138 1.0373111,1.62827 0.9944391,2.51239 -0.126085,1.03712 -0.202855,2.33208 -1.1350651,2.97785 -0.785063,0.0107 -1.165121,0.89295 -1.941406,0.99414 -1.194058,0.20428 -2.448089,-0.48955 -3.144531,-1.4336 -0.522021,-0.70207 0.167451,-1.65582 0.990234,-1.52734 0.322866,-0.0587 1.025096,0.28299 1.045575,0.19224 -0.833205,-1.05846 -1.797438,-2.1258 -2.168622,-3.44419 -0.05003,-0.55602 0.193742,-1.2978 0.869141,-1.28125 z m 34.4414071,2.9707 c 0.66949,3.10319 1.34536,6.2050096 2.00391,9.3105496 2.62284,-0.4391 5.30816,-0.44792 7.96033,-0.35415 0.24597,-0.12568 -0.79753,-0.80046 -1.06639,-1.14537 -3.17597,-2.9048996 -6.28156,-5.8920196 -9.17129,-9.0844696 0.0911,0.42448 0.18229,0.84896 0.27344,1.27344 z M 18.64348,15.401762 c 3.40525,0.0689 6.84295,0.0495 10.20312,0.66406 0.52517,0.0283 1.05637,0.46597 0.76172,1.00977 -1.20661,0.6965 -2.69111,0.45497 -4.02573,0.60484 -4.42375,0.12358 -8.85651,0.28229 -13.27934,0.0871 -0.79977,-0.15545 -1.942687,-0.0789 -2.3570391,-0.91658 -0.200125,-0.84119 0.8503531,-1.10858 1.4918591,-1.15452 2.38768,-0.29256 4.80318,-0.28662 7.20541,-0.2947 z m 4.25586,6.96484 c 5.55007,0.0821 11.13567,-0.0276 16.64062,0.78516 0.51597,0.0187 1.27942,0.48292 0.89838,1.0434 -0.59458,0.61866 -1.60179,0.4842 -2.38784,0.65279 -5.41439,0.6645 -10.88437,0.43884 -16.3258,0.40556 -3.54454,-0.11737 -7.10757,-0.0899 -10.63005,-0.5373 -0.786398,-0.0113 -1.2850301,-1.21733 -0.437501,-1.56055 2.284341,-0.84892 4.778311,-0.63565 7.172001,-0.7459 1.68979,-0.0413 3.38005,-0.0318 5.07019,-0.0432 z m 4.85156,5.98828 c 3.90788,0.0336 7.84552,0.0695 11.70633,0.72191 0.58096,0.0175 1.24597,0.67887 0.70773,1.1863 -0.91013,0.58158 -2.07876,0.54734 -3.1187,0.72937 -6.16449,0.37258 -12.34796,0.3536 -18.52226,0.33848 -3.07441,-0.0521 -6.17,-0.0524 -9.2162111,-0.49874 -0.642984,-0.002 -1.253825,-0.75734 -0.689703,-1.28201 0.819961,-0.57431 1.9283931,-0.47326 2.8864141,-0.63343 5.40137,-0.44555 10.82819,-0.54603 16.2464,-0.56188 z m 5.02344,7.25781 c 2.92307,0.0985 5.90699,-0.0813 8.76562,0.64258 0.69555,0.23292 1.91941,0.3675 1.85156,1.33985 -0.50268,1.03698 -1.87259,0.88541 -2.84179,1.00195 -7.47566,0.31934 -14.96351,0.20024 -22.44175,0.03 -2.5834,-0.11816 -5.19113,-0.0861 -7.748601,-0.49528 -0.6028791,-0.10293 -1.5581051,-0.70978 -1.0108241,-1.37844 0.8529941,-0.61688 2.0190751,-0.46515 3.0207051,-0.60591 6.79201,-0.37531 13.6026,-0.52615 20.40508,-0.53472 z m -12.2461,6.34766 c 3.4375,0.0548 6.91895,0.0499 10.29492,0.76758 0.67332,0.11894 1.61745,0.61364 1.25196,1.44141 -0.55384,0.89302 -1.80103,0.71678 -2.70318,0.88716 -5.48383,0.45269 -11.00046,0.49252 -16.49701,0.28056 -1.12558,-0.0858 -2.460528,-0.10815 -3.2978591,-0.96265 -0.518367,-0.71194 0.331598,-1.4193 1.0033201,-1.55821 2.650859,-0.70235 5.426109,-0.73218 8.151589,-0.83424 0.59861,-0.0175 1.19748,-0.0153 1.79626,-0.0216 z m 10.21875,6.83203 c 3.12859,0.10292 6.2876,0.32113 9.33225,1.08461 0.68428,0.1332 1.7246,0.71807 1.17947,1.52867 -0.69611,0.87074 -1.96019,0.54232 -2.9304,0.67334 -8.54611,0.17779 -17.09743,0.15363 -25.64318,-0.033 -0.92518,-0.062 -1.873819,0.005 -2.7779811,-0.22822 -0.470493,-0.57857 -0.264375,-1.56981 0.5343211,-1.70545 2.58875,-0.59889 5.27947,-0.2429 7.90961,-0.47597 4.10626,-0.14605 8.2549,-0.79373 12.39591,-0.84397 z m -7.1289,6.28321 c 2.63478,0.0533 5.32157,-0.0228 7.89509,0.61723 0.65512,0.0821 1.2722,0.90695 0.65178,1.42964 -1.28331,0.92418 -2.97308,0.66929 -4.46282,0.82034 -5.52022,0.16358 -11.05153,0.20951 -16.56886,-0.0504 -0.691208,-0.12064 -1.7200161,0.10542 -2.0581621,-0.68787 0.218526,-0.95167 1.3965901,-1.01453 2.1677721,-1.27044 3.00582,-0.74704 6.12966,-0.63293 9.20071,-0.80521 1.0579,-0.0314 2.11615,-0.0467 3.17449,-0.0532 z m -16.5234411,9.09375 c 1.223106,0.0847 1.58694,1.54951 1.499722,2.57093 -0.124873,2.12384 -1.146866,4.06771 -2.099192,5.92587 -0.315928,0.65563 -1.135901,1.55769 -1.87514,0.90359 -0.77816,-0.828 -0.104304,-2.00569 0.137508,-2.92061 0.324752,-0.92822 0.693553,-1.84087 1.065617,-2.75127 -0.599121,0.48516 -1.314515,1.4181 -2.169922,0.97852 -0.709938,-0.48526 -0.437866,-1.41759 0.05585,-1.95029 0.810987,-1.03513 1.685028,-2.14978 2.908992,-2.70401 0.156639,-0.033 0.315821,-0.0649 0.476563,-0.0527 z m 37.9628911,2.64648 c 1.48299,0.24409 2.62568,1.42921 3.49115,2.58439 0.55447,0.65274 0.49454,1.75099 -0.34076,2.14022 -0.76513,0.50931 -1.34719,-0.4828 -1.86843,-0.91564 -0.79422,-0.89383 -1.76602,-1.69989 -2.29173,-2.78749 -0.0359,-0.58249 0.40508,-1.08389 1.00977,-1.02148 z m -2.6582,0.7832 c 1.21825,0.34431 2.02323,1.45852 2.86067,2.34263 0.66301,0.88789 1.59379,1.79 1.6198,2.95815 -0.13114,0.9274 -1.30724,1.14385 -1.9574,0.59562 -1.51281,-1.07575 -2.48058,-2.75928 -3.24573,-4.41397 -0.29565,-0.58935 -0.094,-1.57049 0.72266,-1.48243 z" /></svg>
