<?xml version="1.0" encoding="UTF-8" standalone="no"?>
<svg
   width="77.236115mm"
   height="118.79998mm"
   viewBox="0 0 77.236115 118.79998"
   version="1.1"
   xmlns="http://www.w3.org/2000/svg"
   xmlns:svg="http://www.w3.org/2000/svg">
  <path
     style="fill:#000000;fill-opacity:1;stroke-width:0.264583"
     d="M 9.999906,0 C 4.459906,0 0,4.459906 0,9.999906 v 98.800174 c 0,5.54 4.459906,9.9999 9.999906,9.9999 h 57.236299 c 5.54,0 9.99991,-4.4599 9.99991,-9.9999 V 9.999906 C 77.236115,4.459906 72.776205,0 67.236205,0 Z m 13.754199,34.758082 c 2.139278,0 4.177414,0.4437 6.114872,1.3317 1.897096,0.88801 3.632732,2.24024 5.206918,4.0566 1.57419,1.85674 2.82541,4.3798 3.75378,7.56853 0.92836,3.2291 1.39268,6.94258 1.39268,11.14041 0,7.14438 -1.17032,12.65379 -3.51142,16.52871 1.37237,1.332 2.7246,2.68423 4.0566,4.0566 l -4.84363,4.60127 -3.572392,-3.93516 c -2.462187,1.93745 -5.327946,2.90628 -8.597408,2.90628 -2.139277,0 -4.157315,-0.44422 -6.054411,-1.33222 -1.897095,-0.888 -3.632732,-2.26033 -5.206917,-4.11706 -1.574185,-1.85673 -2.82541,-4.37928 -3.753776,-7.56801 -0.928366,-3.18874 -1.39268,-6.90222 -1.39268,-11.14041 0,-4.19783 0.464314,-7.91131 1.39268,-11.14041 0.928366,-3.18873 2.179591,-5.71179 3.753776,-7.56853 1.574185,-1.81636 3.309822,-3.16859 5.206917,-4.0566 1.897096,-0.888 3.915134,-1.3317 6.054411,-1.3317 z m 32.99747,0 c 3.71346,0 6.61942,1.08993 8.71833,3.26957 2.09891,2.17964 3.14865,5.1665 3.14865,8.96069 0,5.81238 -1.93765,9.48515 -5.81257,11.01897 v 0.12144 c 2.46219,0.60546 4.27873,1.91697 5.44928,3.93516 1.17055,2.05855 1.75545,4.4399 1.75545,7.14427 0,4.27855 -1.23113,7.64934 -3.69332,10.11152 -2.46218,2.46219 -5.83245,3.69332 -10.11101,3.69332 -3.91528,0 -7.00315,-1.19093 -9.26351,-3.57239 -2.22001,-2.38146 -3.22903,-5.52962 -3.02721,-9.4449 h 8.65787 l -0.0605,1.27124 c 0,0.92836 0.30301,1.75598 0.90847,2.48253 0.60546,0.76691 1.47327,1.15032 2.60346,1.15032 0.888,0 1.63472,-0.18191 2.24017,-0.54519 0.56509,-0.40363 0.9686,-0.96844 1.21078,-1.69498 0.20182,-0.76692 0.34302,-1.47344 0.42375,-2.11926 0.0807,-0.64581 0.12092,-1.39253 0.12092,-2.24017 0,-2.58328 -0.50451,-4.33901 -1.5136,-5.26738 -1.0091,-0.92836 -2.82512,-1.35248 -5.44877,-1.27175 v -8.05223 c 2.62365,0 4.46029,-0.40402 5.50975,-1.21129 1.00909,-0.80728 1.5136,-2.44191 1.5136,-4.90409 0,-3.18874 -1.04973,-4.78318 -3.14865,-4.78318 -2.05855,0 -3.08766,1.61454 -3.08766,4.84364 v 0.90847 h -7.99228 c -0.20182,-4.1171 0.5449,-7.44717 2.24017,-9.99009 1.73564,-2.54291 4.62202,-3.81424 8.65839,-3.81424 z m -32.99747,8.53695 c -1.453094,0 -2.644026,0.5849 -3.572392,1.75545 -0.968729,1.17055 -1.634537,2.70469 -1.99781,4.60178 -0.403638,1.8971 -0.665941,3.53173 -0.787032,4.9041 -0.121092,1.37236 -0.181901,2.8055 -0.181901,4.29896 0,1.37237 0.06081,2.74469 0.181901,4.11706 0.121091,1.41273 0.383394,3.06746 0.787032,4.96456 0.363273,1.93746 1.029081,3.51179 1.99781,4.72271 0.928366,1.17054 2.119298,1.75544 3.572392,1.75544 0.807275,0 1.55399,-0.2623 2.240174,-0.78703 l -5.509742,-5.75159 4.783171,-4.66224 4.177523,4.66224 c 0.605456,-2.09891 0.908471,-5.10587 0.908471,-9.02115 0,-1.49346 -0.06081,-2.9266 -0.181901,-4.29896 -0.121091,-1.37237 -0.383394,-3.007 -0.787032,-4.9041 -0.403637,-1.89709 -1.069445,-3.43123 -1.997811,-4.60178 -0.968729,-1.17055 -2.179759,-1.75545 -3.632853,-1.75545 z" />
</svg>
