<?xml version="1.0" encoding="UTF-8" standalone="no"?>
<svg
   width="77.232071mm"
   height="90.847183mm"
   viewBox="0 0 77.232071 90.847183"
   version="1.1"
   xml:space="preserve"
   xmlns="http://www.w3.org/2000/svg"
   xmlns:svg="http://www.w3.org/2000/svg"><path
     style="fill:#000000"
     d="m 29.955934,90.695257 c -1.86933,-0.30581 -3.66476,-1.26372 -4.97809,-2.65594 -0.59498,-0.63071 -2.57359,-2.99222 -4.39691,-5.24779 -1.82332,-2.25558 -4.44992,-5.32476 -5.8369,-6.82042 -1.38697,-1.49566 -2.71473,-3.12601 -2.95057,-3.62301 -0.47741,-1.00607 -0.7298,-3.3867 -1.3472,-12.70761 -0.23134,-3.4925 -0.4821695,-6.55836 -0.5573995,-6.81302 -0.33377,-1.12984 0.2585595,-0.26278 1.4459995,2.11666 2.00165,4.01102 2.53902,5.57697 4.14368,12.07526 0.82249,3.33079 1.78088,6.66454 2.12975,7.40833 l 0.63432,1.35235 -0.15317,-2.38125 c -0.0842,-1.30969 -0.49013,-5.25306 -0.90197,-8.76306 l -0.74882,-6.3818 -1.07415,-1.75495 c -0.59078,-0.96523 -1.66854,-2.57217 -2.39501,-3.57098 -0.72647,-0.9988 -1.69294,-2.51648 -2.1477,-3.37261 l -0.8268395,-1.5566 0.1669795,-3.175 c 0.13418,-2.55148 0.0658,-3.72227 -0.3482495,-5.96173 -0.49221,-2.66229 -0.49909,-3.12308 -0.15404,-10.31875 0.22981,-4.79235 0.5065495,-8.07199 0.7608395,-9.01652 1.64221,-6.09978 6.97968,-12.4635896 12.90157,-15.3823896 5.32505,-2.62463 6.8561,-3.15002998 10.99923,-3.77452998 3.25586,-0.49077 5.61156,-0.49293 8.80395,-0.008 10.63057,1.61447998 19.47512,7.94490998 23.02967,16.48332958 1.15954,2.78534 1.47435,4.81483 1.99001,12.82918 0.43343,6.73617 0.43297,7.14855 -0.01,8.59896 -0.3287,1.07735 -0.50364,2.80184 -0.59739,5.88909 -0.1554,5.117 -0.0634,4.86137 -3.53046,9.81047 -1.28235,1.8305 -2.45256,3.61643 -2.60049,3.96875 -0.25865,0.61606 -0.78566,5.44995 -1.35348,12.41453 -0.1483,1.81901 -0.32761,3.96214 -0.39847,4.7625 l -0.12883,1.45521 0.54063,-1.45521 c 0.29734,-0.80036 1.11213,-4.31271 1.81064,-7.80521 1.23188,-6.15935 1.32261,-6.46244 3.02185,-10.09525 0.9635,-2.05988 1.93368,-4.14348 2.15594,-4.6302 0.39909,-0.87396 0.40249,-0.86192 0.27354,0.96712 -0.0718,1.01865 -0.25436,4.3524 -0.40565,7.40833 -0.37978,7.67093 -0.64913,10.01528 -1.30673,11.3737 -0.57603,1.18992 -1.12654,1.86862 -5.20665,6.41898 -1.33717,1.49129 -3.56371,4.1836 -4.94786,5.98293 -2.84024,3.69216 -3.66381,4.47446 -5.69194,5.40671 -1.69565,0.77942 -3.3062,0.85954 -7.72615,0.38433 -2.89973,-0.31176 -4.25793,-0.27033 -9.76653,0.29794 -0.50933,0.0525 -1.55395,-0.007 -2.32139,-0.13273 z m 8.56598,-13.09955 c 1.41838,-0.0965 3.12491,-0.039 4.15208,0.13985 1.53407,0.26715 1.97598,0.23939 3.67197,-0.23059 1.06041,-0.29385 2.28164,-0.53428 2.71385,-0.53428 1.15262,0 0.58174,-0.41085 -1.65836,-1.19349 -3.15879,-1.10362 -5.51506,-1.51486 -8.64184,-1.50828 -3.1175,0.007 -6.17125,0.63743 -9.65729,1.99511 -1.43133,0.55745 -1.58666,0.67349 -0.92604,0.69182 0.43656,0.0121 1.50812,0.25481 2.38125,0.53931 1.64005,0.53439 1.59606,0.53384 7.96438,0.10055 z m -13.25605,-4.49934 c 1.65436,-0.87519 4.46347,-1.84688 6.87917,-2.37955 2.94513,-0.64943 9.60622,-0.788 12.31142,-0.25612 4.09957,0.80603 8.33546,2.40916 9.71858,3.67812 l 0.59875,0.54933 -0.29307,-0.84071 c -0.64427,-1.84814 -4.32021,-3.88509 -9.16521,-5.07873 -1.83525,-0.45214 -3.12751,-0.57292 -6.15902,-0.57568 -6.98652,-0.006 -11.92343,1.44924 -15.0151,4.42701 -1.42758,1.37499 -1.95513,2.44177 -0.79375,1.60506 0.32742,-0.23589 1.19063,-0.74382 1.91823,-1.12873 z m 15.32006,-10.41318 c 1.29975,-1.13737 1.66757,-1.32291 2.6226,-1.32291 1.49847,0 2.71095,-0.37669 3.92858,-1.22051 0.84966,-0.58881 1.01522,-0.85447 1.01522,-1.62905 0,-2.39996 -1.51622,-4.49879 -3.66869,-5.07839 -0.57906,-0.15592 -1.12267,-0.43022 -1.20802,-0.60955 -0.0854,-0.17932 -0.0959,0.15021 -0.0234,0.73229 0.0725,0.58208 0.13775,1.35599 0.14505,1.71979 0.0124,0.61783 0.0379,0.60474 0.38702,-0.19844 0.47594,-1.09503 1.23432,-1.1239 2.27172,-0.0865 0.6327,0.63269 0.7734,0.99687 0.7734,2.00176 0,1.48649 -0.26495,2.02775 -1.38193,2.82311 l -0.85383,0.60798 0.71974,-0.94363 c 0.39585,-0.51899 0.64093,-1.02243 0.54462,-1.11875 -0.35475,-0.35474 -2.25354,-0.16032 -3.20633,0.3283 -0.5399,0.27688 -1.27029,0.81266 -1.62308,1.19062 -1.16147,1.24436 -3.27891,0.87976 -5.20577,-0.89636 -1.14568,-1.05605 -2.51253,-1.52241 -3.5225,-1.20186 -0.61082,0.19387 -0.69529,0.67121 -0.2736,1.54605 0.19818,0.41114 0.0792,0.34885 -0.41229,-0.21583 -0.6115,-0.70258 -0.67922,-0.97302 -0.58957,-2.35446 0.0808,-1.24525 0.22668,-1.66224 0.72166,-2.06305 0.87119,-0.70544 1.70017,-0.52973 1.80514,0.38261 0.0481,0.41825 -0.0449,0.72761 -0.21873,0.72761 -0.16636,0 0.072,0.31506 0.5296,0.70014 1.48133,1.24645 1.60474,0.82372 1.86537,-6.38958 0.12486,-3.4559 0.16497,-6.59588 0.0891,-6.97774 -0.11288,-0.56826 0.0117,-0.78227 0.68629,-1.17908 1.42264,-0.83681 2.29502,-0.96968 3.67533,-0.55977 0.69978,0.20781 1.47633,0.60327 1.72568,0.8788 0.38454,0.42491 0.74484,2.45939 0.9665,5.45744 0.0108,0.14552 0.26288,-0.5042 0.56027,-1.44381 l 0.54071,-1.70839 0.60278,0.99877 c 1.62683,2.69554 5.46645,5.38525 9.64643,6.75747 0.93039,0.30543 1.76126,0.55323 1.84637,0.55065 0.0851,-0.003 -1.12741,-0.68718 -2.69448,-1.52135 -2.88567,-1.53608 -4.95599,-3.07901 -4.95599,-3.69351 0,-0.44414 0.26129,-0.42507 1.48904,0.10868 0.7183,0.31228 1.77576,0.44726 3.53804,0.45163 2.20083,0.005 2.71754,-0.0866 4.1532,-0.73983 1.87785,-0.85444 2.56108,-1.49752 2.65306,-2.49715 0.0356,-0.38651 0.14047,-1.32024 0.23312,-2.07495 0.14427,-1.1752 0.0689,-1.55035 -0.52504,-2.61301 -0.38143,-0.68245 -0.6935,-1.29966 -0.6935,-1.37158 0,-0.0719 0.71437,-0.0791 1.5875,-0.0159 0.87312,0.0632 1.5875,0.0342 1.5875,-0.0643 0,-0.39761 -3.28634,-1.61884 -4.81481,-1.78923 l -1.63275,-0.18202 2.36812,-1.12448 c 1.30247,-0.61846 2.63885,-1.12448 2.96974,-1.12448 0.90678,0 2.42786,0.86814 4.01897,2.29379 1.60316,1.43644 1.59701,1.20866 -0.0452,-1.6745 -1.82317,-3.20088 -3.52109,-4.60836 -5.59379,-4.63697 -0.87572,-0.0121 -1.86778,0.38612 -4.8092,1.93035 -8.20648,4.30836 -9.2897,4.80532 -10.47401,4.80532 -0.90375,0 -1.2593,-0.14494 -1.74731,-0.71229 -0.75849,-0.88179 -0.77495,-1.76803 -0.0603,-3.24438 0.72766,-1.50315 2.3578,-2.85998 5.63877,-4.69338 2.20413,-1.23167 5.75519,-3.67514 4.78901,-3.29531 -0.96404,0.379 -4.62135,2.3844 -4.76122,2.61071 -0.0941,0.1522 -0.72814,0.57322 -1.40907,0.9356 -3.17429,1.68934 -4.17483,2.48174 -5.63652,4.46399 -1.0622,1.44049 -1.03628,2.89798 0.0879,4.94286 0.46684,0.84919 0.78383,1.60895 0.70441,1.68836 -0.0794,0.0794 -0.54321,-0.0546 -1.03064,-0.29772 -1.1,-0.54875 -3.81702,-0.53731 -4.71855,0.0199 -0.61876,0.38242 -0.58059,-0.0174 0.12161,-1.27374 0.77036,-1.37833 0.93309,-3.32073 0.37015,-4.41821 -0.60772,-1.18478 -2.76995,-3.19996 -4.9701,-4.63208 -1.20561,-0.78476 -2.27907,-1.42684 -2.38545,-1.42684 -0.20153,0 -3.04872,-1.63216 -4.40812,-2.52697 -0.43093,-0.28366 -0.69649,-0.3745 -0.59012,-0.20188 0.31109,0.50488 3.57857,2.55607 5.85897,3.67802 3.33531,1.64097 5.43654,4.03862 5.43654,6.20348 0,1.22863 -0.42732,1.8001 -1.49596,2.00058 -1.44517,0.27111 -3.27316,-0.41773 -9.36243,-3.52804 -4.77313,-2.43805 -5.59659,-2.77583 -6.76712,-2.77583 -1.67048,0 -2.71766,0.53421 -3.95958,2.01994 -1.14811,1.3735 -3.33686,4.95736 -3.14486,5.14936 0.0734,0.0734 0.57771,-0.28921 1.12075,-0.80575 2.84577,-2.70696 4.03241,-2.89127 7.60191,-1.18072 l 2.38125,1.14113 -1.83229,0.32395 c -1.96388,0.34721 -3.24729,0.80454 -4.1923,1.49388 -0.56377,0.41124 -0.52685,0.42221 0.83085,0.24666 0.78147,-0.10104 1.3705,-0.0813 1.30897,0.0439 -1.25336,2.55014 -1.38032,3.60065 -0.62703,5.18809 0.62267,1.31217 2.13712,2.81294 3.43208,3.40108 1.36806,0.62134 4.53933,0.66397 6.48175,0.0871 0.76837,-0.22818 1.46444,-0.34747 1.54683,-0.26509 0.57418,0.57419 -5.85732,4.61149 -7.43878,4.6696 -0.31263,0.0115 -0.41696,0.0818 -0.23184,0.15629 0.52682,0.21194 3.89696,-0.90488 5.83803,-1.93464 2.96226,-1.57151 5.27372,-3.24096 5.91477,-4.27194 l 0.61063,-0.98205 0.0765,3.30729 c 0.0934,4.039 0.0206,4.38591 -0.96214,4.58244 -1.77622,0.35525 -3.46264,2.69833 -3.47415,4.82691 -0.005,0.83622 0.1558,1.22571 0.7218,1.75361 1.12124,1.04578 1.74814,1.27245 3.51911,1.27245 1.61573,0 1.65485,0.0177 3.20748,1.45521 0.86449,0.80037 1.72508,1.45521 1.91242,1.45521 0.18735,0 1.02093,-0.59531 1.8524,-1.32292 z m -19.09421,-16.54241 c -2.59718,-1.31763 -3.48549,-4.26994 -1.93846,-6.44253 0.54255,-0.76194 0.7093,-0.82755 2.10316,-0.82755 1.57073,0 4.48054,0.6341 4.91914,1.07197 0.15869,0.15843 0.1343,0.25094 -0.0661,0.25094 -0.58166,0 -1.37583,1.04849 -1.37583,1.8164 0,0.41694 0.24676,1.07179 0.54837,1.45521 0.44187,0.56175 0.77131,0.69714 1.69627,0.69714 0.957,0 1.26182,-0.13538 1.83288,-0.81405 0.37674,-0.44773 0.68498,-1.04977 0.68498,-1.33787 0,-0.51211 0.0182,-0.51314 0.81409,-0.0459 1.50182,0.88177 1.53739,1.10895 0.33995,2.17159 -2.00088,1.77563 -3.67117,2.49675 -6.04556,2.61008 -1.88702,0.0901 -2.27298,0.0235 -3.51284,-0.60548 z m 29.82826,0.30737 c -1.976,-0.42491 -5.5489,-2.59117 -5.5489,-3.36432 0,-0.21901 1.93017,-1.5673 2.2437,-1.5673 0.0756,0 0.13755,0.3466 0.13755,0.77023 0,0.96074 1.30382,2.14019 2.36587,2.14019 1.15802,0 2.13204,-0.92329 2.13204,-2.02098 0,-1.10789 -0.40332,-1.94777 -0.93535,-1.94777 -0.21316,0 -0.38756,-0.11564 -0.38756,-0.25697 0,-0.4665 3.54789,-1.36555 5.04901,-1.27944 1.27506,0.0731 1.47536,0.17036 2.01967,0.98022 1.15526,1.71888 0.60081,4.27868 -1.20036,5.54181 -1.49299,1.04701 -3.82415,1.44547 -5.87567,1.00433 z m -38.57696,-15.06186 c 1.04487,-1.77186 2.19921,-3.91559 2.5652,-4.76382 l 0.66545,-1.54225 -0.84616,-3.62195 c -0.46539,-1.99207 -0.98341,-4.0982 -1.15116,-4.68028 -0.28625,-0.99328 -0.31624,-1.01767 -0.48787,-0.39688 -0.10057,0.36381 -0.13078,2.68552 -0.0671,5.15938 0.12822,4.98231 0.25568,4.35964 -2.29194,11.19659 -0.45103,1.21041 -0.69993,2.12651 -0.55311,2.03577 0.14682,-0.0907 1.12183,-1.61469 2.1667,-3.38656 z m 52.71982,-1.04841 -1.15689,-3.50573 -0.0151,-5.42395 c -0.009,-3.20527 -0.10908,-5.26162 -0.2449,-5.02709 -0.12641,0.21828 -0.60252,2.25443 -1.05802,4.52478 l -0.82818,4.1279 0.89872,2.13097 c 0.85078,2.01727 3.27236,6.67885 3.46951,6.67885 0.0505,0 -0.42888,-1.57758 -1.06517,-3.50573 z m 4.14419,26.76518 c 0.11475,-2.55241 0.25401,-3.52969 0.52916,-3.71367 0.20539,-0.13733 0.84968,-0.53916 1.43176,-0.89296 3.04826,-1.85279 4.27688,-5.45396 3.94916,-11.57521 -0.13665,-2.55239 -0.26685,-3.37344 -0.53496,-3.37344 -0.81278,0 -4.00972,5.26168 -4.46026,7.34093 -0.14334,0.66149 -0.0214,1.18376 0.53097,2.27471 l 0.71703,1.41608 -0.70542,1.2037 c -0.38798,0.66203 -0.81618,1.72201 -0.95157,2.35549 -0.19672,0.92044 -0.21654,0.72663 -0.0987,-0.96487 0.19828,-2.84587 0.19532,-3.42739 -0.0373,-7.34244 -0.25148,-4.23261 0.0557,-5.26054 2.04136,-6.83008 2.8895,-2.28402 4.34111,-1.65048 4.96018,2.16482 0.84297,5.19519 -0.45501,10.95371 -3.30293,14.65353 -0.92831,1.206 -1.03191,1.50665 -1.17228,3.4017 -0.13703,1.84986 -0.23505,2.14851 -0.89012,2.71198 -0.40487,0.34826 -1.05692,0.63332 -1.44899,0.63346 l -0.71285,2.7e-4 z m -63.2969505,2.79767 c -0.771237,-0.41898 -1.284833,-1.58954 -1.284833,-2.92833 0,-1.20599 -0.38887,-2.11097 -1.429478,-3.32669 C 1.3405095,51.010947 0.00326146,46.923187 1.0460699e-5,42.654027 -0.00498954,36.061257 1.7825455,34.103107 5.1223065,37.042877 c 1.948502,1.71514 2.125795,2.22936 2.089765,6.06115 -0.07536,8.01458 -0.127505,9.38546 -0.325278,8.5517 -0.109721,-0.46255 -0.454394,-1.27303 -0.76594,-1.80106 -0.700048,-1.18649 -0.706418,-1.63923 -0.03728,-2.6496 0.880959,-1.3302 0.708267,-2.91443 -0.595312,-5.46121 -1.098852,-2.14681 -3.158522,-4.62472 -3.611453,-4.34479 -0.125027,0.0773 -0.20892,2.31523 -0.18643,4.97324 0.03677,4.3452 0.101263,4.98375 0.639315,6.32942 0.580613,1.45212 2.122768,3.19595 3.458531,3.91083 0.316115,0.16918 0.515951,0.40275 0.444081,0.51903 -0.07187,0.11629 0.146404,0.35972 0.485051,0.54096 0.533252,0.28539 0.638359,0.59731 0.78472,2.32875 0.368925,4.36438 0.268512,4.69286 -1.192003,3.89943 z" /></svg>
