<?xml version="1.0" encoding="UTF-8" standalone="no"?>
<svg
   width="77.236115mm"
   height="118.79998mm"
   viewBox="0 0 77.236115 118.79998"
   version="1.1"
   xmlns="http://www.w3.org/2000/svg"
   xmlns:svg="http://www.w3.org/2000/svg">
  <path
     style="fill:#000000;fill-opacity:1;stroke-width:0.264583"
     d="M 9.999906,0 C 4.459906,0 0,4.459906 0,9.999906 v 98.800174 c 0,5.54 4.459906,9.9999 9.999906,9.9999 h 57.236299 c 5.54,0 9.99991,-4.4599 9.99991,-9.9999 V 9.999906 C 77.236115,4.459906 72.776205,0 67.236205,0 Z m 14.581022,9.664526 c 3.624916,0 6.454496,0.925061 8.488888,2.774506 2.034389,1.84945 3.051489,4.56817 3.051489,8.15609 0,3.29202 -1.16509,7.17583 -3.49539,11.65149 l -7.157702,13.59348 h 9.931692 v 7.3794 H 12.873632 l 9.654192,-17.6997 c 1.220634,-2.21933 2.089747,-3.82787 2.607592,-4.82658 0.517845,-0.9987 1.128107,-2.51571 1.830896,-4.55011 0.739779,-2.03439 1.11001,-3.77261 1.11001,-5.21518 0,-1.40558 -0.277673,-2.64492 -0.832507,-3.7176 -0.517845,-1.07268 -1.386958,-1.60869 -2.607593,-1.60869 -2.256325,0 -3.38429,2.31188 -3.38429,6.93549 l 0.110588,2.7187 h -7.822778 c -0.07398,-0.77677 -0.129926,-1.55384 -0.166915,-2.33061 0,-4.3277 0.814198,-7.61955 2.441711,-9.87588 1.664502,-2.256324 4.586641,-3.384806 8.76639,-3.384806 z m 27.741457,0.05581 c 1.96042,0 3.69916,0.536525 5.2157,1.609205 1.47956,1.07268 2.64465,2.40406 3.4954,3.99459 0.81376,1.55353 1.49775,3.38432 2.05259,5.49269 0.51784,2.10836 0.86925,4.03171 1.0542,5.77019 0.14795,1.73848 0.2222,3.47722 0.2222,5.2157 0,1.73848 -0.0743,3.4767 -0.2222,5.21518 -0.18495,1.77547 -0.53636,3.69933 -1.0542,5.77071 -0.55484,2.10837 -1.23883,3.95746 -2.05259,5.54798 -0.85075,1.55354 -2.01584,2.86662 -3.4954,3.9393 -1.51654,1.10966 -3.25528,1.66449 -5.2157,1.66449 -1.96041,0 -3.69864,-0.55483 -5.21518,-1.66449 -1.47956,-1.07268 -2.64517,-2.38576 -3.49591,-3.9393 -0.81376,-1.59052 -1.47945,-3.43961 -1.9973,-5.54798 -0.55483,-2.07138 -0.90624,-3.99524 -1.0542,-5.77071 -0.18494,-1.73848 -0.2775,-3.4767 -0.2775,-5.21518 0,-1.73848 0.0926,-3.47722 0.2775,-5.2157 0.14796,-1.73848 0.49937,-3.66183 1.0542,-5.77019 0.51785,-2.10837 1.18354,-3.93916 1.9973,-5.49269 0.85074,-1.59053 2.01635,-2.92191 3.49591,-3.99459 1.51654,-1.07268 3.25477,-1.609205 5.21518,-1.609205 z m 0,7.712195 c -2.62621,0 -3.88386,4.56832 -3.77289,13.70459 v 0.66559 c 0,5.36339 0.29597,9.06209 0.8878,11.09648 0.6658,2.14536 1.62747,3.23671 2.88509,3.2737 2.62622,0 3.90217,-4.56832 3.82819,-13.70459 v -0.66559 c 0,-5.32641 -0.31428,-9.0068 -0.94309,-11.04119 -0.62881,-2.21933 -1.59049,-3.32899 -2.8851,-3.32899 z M 24.580928,65.581012 c 3.624916,0 6.454496,0.92454 8.488888,2.77399 2.034389,1.84945 3.051489,4.56816 3.051489,8.15609 0,3.29201 -1.16509,7.17582 -3.49539,11.65149 l -7.157702,13.593478 h 9.931692 v 7.3794 H 12.873632 l 9.654192,-17.699178 c 1.220634,-2.21934 2.089747,-3.8284 2.607592,-4.8271 0.517845,-0.9987 1.128107,-2.5152 1.830896,-4.54959 0.739779,-2.03439 1.11001,-3.77314 1.11001,-5.2157 0,-1.40558 -0.277673,-2.64493 -0.832507,-3.71761 -0.517845,-1.07268 -1.386958,-1.60868 -2.607593,-1.60868 -2.256325,0 -3.38429,2.31187 -3.38429,6.93549 l 0.110588,2.7187 h -7.822778 c -0.07398,-0.77677 -0.129926,-1.55384 -0.166915,-2.33061 0,-4.3277 0.814198,-7.61956 2.441711,-9.87588 1.664502,-2.25633 4.586641,-3.38429 8.76639,-3.38429 z m 25.521957,0.72088 h 8.2119 c -2.73718,5.58533 -5.47472,11.15245 -8.2119,16.70079 l 0.1111,0.11059 c 1.73848,-1.55353 3.53266,-2.33009 5.3821,-2.33009 1.47956,0 2.81095,0.44397 3.99459,1.3317 1.18365,0.88774 2.08989,2.03452 2.7187,3.4401 0.6658,1.36859 1.14689,2.79254 1.44281,4.27209 0.29591,1.44257 0.4439,2.86651 0.4439,4.27209 0,2.03439 -0.20342,3.93943 -0.6103,5.7149 -0.40688,1.775468 -1.05427,3.439958 -1.942,4.993488 -0.92473,1.51655 -2.18238,2.73707 -3.7729,3.6618 -1.62751,0.92472 -3.51424,1.38699 -5.6596,1.38699 -2.03439,0 -3.82805,-0.42514 -5.38159,-1.27589 -1.55353,-0.88773 -2.77457,-2.05283 -3.6623,-3.49539 -0.88774,-1.44257 -1.55343,-3.03333 -1.9973,-4.77181 -0.44387,-1.738478 -0.66559,-3.587558 -0.66559,-5.547978 0,-3.51395 0.5177,-6.86175 1.55339,-10.04279 0.9987,-3.14406 2.5152,-6.86158 4.5496,-11.1523 1.14665,-2.40428 2.31174,-4.82702 3.49539,-7.26829 z m 2.44171,21.97179 c -0.96171,0 -1.75709,0.4994 -2.3859,1.4981 -0.59182,0.9987 -0.98036,1.99698 -1.1653,2.99568 -0.14796,0.9987 -0.2217,1.9792 -0.2217,2.94091 0,0.85074 0.0921,1.75698 0.27699,2.71869 0.18495,0.96172 0.55518,1.904568 1.11001,2.829288 0.59182,0.88773 1.31295,1.3317 2.16369,1.3317 0.77677,0 1.42416,-0.27716 1.942,-0.83199 0.51785,-0.55483 0.88756,-1.27647 1.1095,-2.164208 0.25892,-0.88773 0.42573,-1.70141 0.49971,-2.44119 0.074,-0.70279 0.11058,-1.42392 0.11058,-2.1637 0,-0.62881 -0.0554,-1.27619 -0.16639,-1.942 -0.074,-0.6658 -0.24028,-1.38692 -0.4992,-2.16369 -0.22193,-0.77677 -0.57334,-1.40585 -1.0542,-1.8867 -0.44386,-0.48086 -1.017,-0.72089 -1.71979,-0.72089 z" />
</svg>
