<?xml version="1.0" encoding="UTF-8" standalone="no"?>
<svg
   width="109.40464mm"
   height="77.050598mm"
   viewBox="0 0 109.40464 77.050598"
   version="1.1"
   xml:space="preserve"
   xmlns="http://www.w3.org/2000/svg"
   xmlns:svg="http://www.w3.org/2000/svg"><path
     style="fill:#000000"
     d="m 44.254878,76.048947 c 8.626453,-3.29522 18.614003,-9.7987 38.629163,-25.15371 10.3512,-7.94112 16.45304,-12.01747 22.239199,-14.85694 2.0451,-1.00361 3.86883,-1.82473 4.05272,-1.82473 0.19324,0 0.27765,0.19542 0.19999,0.46302 -0.0739,0.25466 -0.27232,0.99579 -0.44091,1.64697 -0.96932,3.74374 -5.37849,10.18621 -10.374679,15.15895 -11.97414,11.91794 -33.22183,22.17151 -51.924233,25.05723 -5.083612,0.78439 -5.496633,0.69926 -2.38125,-0.49079 z m -18.785415,0.39438 c -8.82569,-1.45729 -16.8209768,-5.0917 -20.9785998,-9.53621 -5.612921,-6.00023 -5.987766,-16.10643 -0.992663,-26.76322 4.196506,-8.95302 10.8608008,-13.79818 21.0452208,-15.30054 1.382448,-0.20394 2.557938,-0.32741 2.612199,-0.27438 0.108092,0.10563 -0.387971,5.31672 -1.572957,16.52375 l -0.76934,7.27604 0.672125,1.37653 c 1.738447,3.56037 7.435904,6.54415 14.540642,7.61497 3.458817,0.52131 10.247081,0.51689 13.852121,-0.009 7.93425,-1.15746 15.46894,-3.85779 20.93604,-7.50317 2.96076,-1.97419 5.88908,-4.99648 7.0078,-7.23267 0.51134,-1.0221 0.9297,-2.24169 0.9297,-2.71021 0,-0.46852 -0.24439,-3.08905 -0.54309,-5.82342 -0.29869,-2.73436 -0.50705,-5.28808 -0.46302,-5.67493 l 0.0801,-0.70336 6.21771,0.74237 c 8.42984,1.0065 18.573019,2.8424 20.042189,3.62761 0.19079,0.10197 -0.67528,0.60275 -2.04678,1.1835 -5.18044,2.19361 -12.635879,6.96331 -22.069469,14.1192 -12.21529,9.26596 -16.84945,12.70992 -20.63492,15.33524 -10.57927,7.33697 -17.834052,11.11259 -25.370732,13.20373 -3.011265,0.83552 -9.079416,1.09204 -12.494246,0.52819 z m 17.859374,-23.06142 c -0.363802,-0.062 -1.67349,-0.2478 -2.910417,-0.41279 -5.824338,-0.77692 -10.788033,-3.10569 -12.796209,-6.00349 l -0.751404,-1.08428 0.563773,-5.63545 c 0.310076,-3.0995 0.801184,-8.07624 1.091352,-11.05942 1.040317,-10.69534 1.187158,-11.43973 2.948897,-14.94896 2.023122,-4.02987 5.871515,-9.3565502 8.231687,-11.3937202 2.440121,-2.10616998 5.743526,-3.20234998 8.252529,-2.73845998 0.727606,0.13453 2.930256,1.00668998 4.894796,1.93813998 3.90595,1.85193 5.01707,2.26956 6.05875,2.27725 0.51037,0.004 0.073,0.33241 -1.69313,1.27226 -1.30969,0.69696 -3.51234,1.93393 -4.89479,2.74882 -3.822957,2.2534802 -7.624404,4.0884302 -9.4309,4.5522602 -1.819,0.46705 -4.479642,0.54763 -5.483203,0.16608 -0.782042,-0.29733 -1.019792,0.0732 -0.619719,0.96577 0.346918,0.77399 1.485749,1.13765 3.562716,1.13765 3.26989,0 6.743431,-1.39 13.507576,-5.4053002 4.34179,-2.57736 9.36424,-5.01724 12.03976,-5.84884 4.17902,-1.29893 8.04648,-0.60288 10.12183,1.8217 1.80452,2.10818 2.3818,5.7269702 4.25079,26.6470302 l 0.46243,5.17606 -1.02199,1.8354 c -3.40447,6.11412 -13.03045,11.41358 -24.21429,13.33087 -3.10981,0.53312 -10.551573,0.93754 -12.170834,0.66142 z" /></svg>
