<?xml version="1.0" encoding="UTF-8" standalone="no"?>
<svg
   width="77.236115mm"
   height="118.79998mm"
   viewBox="0 0 77.236115 118.79998"
   version="1.1"
   xmlns="http://www.w3.org/2000/svg"
   xmlns:svg="http://www.w3.org/2000/svg">
  <path
     style="fill:#000000;fill-opacity:1;stroke-width:0.264583"
     d="M 9.999906,0 C 4.459906,0 0,4.459906 0,9.999906 v 98.800174 c 0,5.54 4.459906,9.9999 9.999906,9.9999 h 57.236299 c 5.54,0 9.99991,-4.4599 9.99991,-9.9999 V 9.999906 C 77.236115,4.459906 72.776205,0 67.236205,0 Z m 14.581022,9.664526 c 3.624916,0 6.454496,0.925061 8.488888,2.774506 2.034389,1.84945 3.051489,4.56817 3.051489,8.15609 0,3.29202 -1.16509,7.17583 -3.49539,11.65149 l -7.157702,13.59348 h 9.931692 v 7.3794 H 12.873632 l 9.654192,-17.6997 c 1.220634,-2.21933 2.089747,-3.82787 2.607592,-4.82658 0.517845,-0.9987 1.128107,-2.51571 1.830896,-4.55011 0.739779,-2.03439 1.11001,-3.77261 1.11001,-5.21518 0,-1.40558 -0.277673,-2.64492 -0.832507,-3.7176 -0.517845,-1.07268 -1.386958,-1.60869 -2.607593,-1.60869 -2.256325,0 -3.38429,2.31188 -3.38429,6.93549 l 0.110588,2.7187 h -7.822778 c -0.07398,-0.77677 -0.129926,-1.55384 -0.166915,-2.33061 0,-4.3277 0.814198,-7.61955 2.441711,-9.87588 1.664502,-2.256324 4.586641,-3.384806 8.76639,-3.384806 z m 27.741457,0.05581 c 1.96042,0 3.69916,0.536525 5.2157,1.609205 1.47956,1.07268 2.64465,2.40406 3.4954,3.99459 0.81376,1.55353 1.49775,3.38432 2.05259,5.49269 0.51784,2.10836 0.86925,4.03171 1.0542,5.77019 0.14795,1.73848 0.2222,3.47722 0.2222,5.2157 0,1.73848 -0.0743,3.4767 -0.2222,5.21518 -0.18495,1.77547 -0.53636,3.69933 -1.0542,5.77071 -0.55484,2.10837 -1.23883,3.95746 -2.05259,5.54798 -0.85075,1.55354 -2.01584,2.86662 -3.4954,3.9393 -1.51654,1.10966 -3.25528,1.66449 -5.2157,1.66449 -1.96041,0 -3.69864,-0.55483 -5.21518,-1.66449 -1.47956,-1.07268 -2.64517,-2.38576 -3.49591,-3.9393 -0.81376,-1.59052 -1.47945,-3.43961 -1.9973,-5.54798 -0.55483,-2.07138 -0.90624,-3.99524 -1.0542,-5.77071 -0.18494,-1.73848 -0.2775,-3.4767 -0.2775,-5.21518 0,-1.73848 0.0926,-3.47722 0.2775,-5.2157 0.14796,-1.73848 0.49937,-3.66183 1.0542,-5.77019 0.51785,-2.10837 1.18354,-3.93916 1.9973,-5.49269 0.85074,-1.59053 2.01635,-2.92191 3.49591,-3.99459 1.51654,-1.07268 3.25477,-1.609205 5.21518,-1.609205 z m 0,7.712195 c -2.62621,0 -3.88386,4.56832 -3.77289,13.70459 v 0.66559 c 0,5.36339 0.29597,9.06209 0.8878,11.09648 0.6658,2.14536 1.62747,3.23671 2.88509,3.2737 2.62622,0 3.90217,-4.56832 3.82819,-13.70459 v -0.66559 c 0,-5.32641 -0.31428,-9.0068 -0.94309,-11.04119 -0.62881,-2.21933 -1.59049,-3.32899 -2.8851,-3.32899 z M 24.580928,65.581012 c 3.624916,0 6.454496,0.92454 8.488888,2.77399 2.034389,1.84945 3.051489,4.56816 3.051489,8.15609 0,3.29201 -1.16509,7.17582 -3.49539,11.65149 l -7.157702,13.593478 h 9.931692 v 7.3794 H 12.873632 l 9.654192,-17.699178 c 1.220634,-2.21934 2.089747,-3.8284 2.607592,-4.8271 0.517845,-0.9987 1.128107,-2.5152 1.830896,-4.54959 0.739779,-2.03439 1.11001,-3.77314 1.11001,-5.2157 0,-1.40558 -0.277673,-2.64493 -0.832507,-3.71761 -0.517845,-1.07268 -1.386958,-1.60868 -2.607593,-1.60868 -2.256325,0 -3.38429,2.31187 -3.38429,6.93549 l 0.110588,2.7187 h -7.822778 c -0.07398,-0.77677 -0.129926,-1.55384 -0.166915,-2.33061 0,-4.3277 0.814198,-7.61956 2.441711,-9.87588 1.664502,-2.25633 4.586641,-3.38429 8.76639,-3.38429 z m 17.976167,0.72088 h 23.13657 l -16.14527,42.833568 h -8.8222 c 4.47566,-11.799468 8.93312,-23.617708 13.37179,-35.454168 h -11.54089 z" />
</svg>
