<?xml version="1.0" encoding="UTF-8" standalone="no"?>
<svg
   width="129.25479mm"
   height="117.21303mm"
   viewBox="0 0 129.25479 117.21303"
   version="1.1"
   xml:space="preserve"
   xmlns="http://www.w3.org/2000/svg"
   xmlns:svg="http://www.w3.org/2000/svg"><path
     style="fill:#000000"
     d="m 64.470214,117.17616 c -0.07419,-0.21828 -0.457376,-1.40891 -0.851534,-2.64583 -2.773401,-8.70337 -7.810342,-16.582199 -12.942077,-20.244129 -2.054453,-1.46603 -4.658613,-2.70545 -6.156377,-2.93005 -1.333295,-0.19994 -1.326526,-0.0476 -0.175352,-3.94561 l 0.625105,-2.11667 -1.649053,-1.53422 c -7.129804,-6.63332 -16.110591,-9.23919 -24.499519,-7.1088 -1.038441,0.26371 -1.888074,0.43151 -1.888074,0.37289 0,-0.0586 0.352171,-1.10437 0.782603,-2.32388 1.848386,-5.23687 2.239495,-7.14353 2.250154,-10.96953 0.01064,-3.81819 -0.443191,-5.97057 -1.840154,-8.72735 -2.566593,-5.06492 -8.063563,-8.68517 -13.749631,-9.05536 -1.029681,-0.067 -1.137509,-0.12971 -0.858697,-0.49911 0.175368,-0.23235 1.072846,-1.41681 1.994396,-2.63214 4.406642,-5.81141 6.574499,-13.1079 5.877554,-19.78243 C 10.533873,14.839171 7.249592,7.6801125 1.670594,1.8485955 0.751768,0.88818055 0,0.08953155 0,0.07382055 c 0,-0.158222 5.785652,1.13253095 7.9375,1.77081995 9.23366,2.738923 18.180237,7.560325 27.074735,14.5908545 3.220233,2.545386 11.533744,10.818158 14.003761,13.935136 l 1.764572,2.22676 -1.280906,0.43363 c -0.704498,0.2385 -1.587559,0.63456 -1.962357,0.88013 -1.41398,0.92648 -2.808265,4.25404 -3.352035,7.99987 -1.001034,6.89576 2.924744,14.51547 9.06092,17.58672 l 2.131056,1.06663 0.901011,-1.86272 0.901012,-1.86271 -1.504409,-1.37494 -1.504408,-1.37495 0.165473,-2.25696 c 0.09101,-1.24133 0.606517,-4.54878 1.145571,-7.34989 l 0.980098,-5.09293 0.623728,1.65334 c 0.343051,0.90934 1.333779,3.73694 2.201618,6.28355 0.867839,2.54662 1.624382,4.76106 1.681208,4.92098 0.07378,0.20762 0.582892,0.19101 1.780605,-0.0581 1.520452,-0.31624 3.013574,-0.25417 4.96935,0.2066 0.410527,0.0967 0.354228,0.23641 3.188899,-7.91261 0.9236,-2.65514 1.731586,-4.77521 1.795523,-4.71127 0.403888,0.40389 2.174558,10.86293 2.174558,12.84475 0,1.53219 -0.0118,1.55551 -1.52136,3.02078 -1.114,1.08128 -1.429579,1.53621 -1.178605,1.69905 0.188511,0.1223 0.617525,0.89846 0.953375,1.72478 l 0.61062,1.50241 2.2212,-1.11175 c 5.4095,-2.70754 9.21165,-8.98847 9.22892,-15.24561 0.007,-2.52922 -0.69148,-5.50795 -1.84943,-7.88728 -1.00771,-2.0706 -1.09656,-2.16764 -2.60429,-2.84427 -0.85854,-0.38529 -1.69492,-0.70053 -1.85862,-0.70053 -0.53564,0 -0.31653,-0.36764 1.57687,-2.64583 7.46445,-8.981429 16.25149,-16.465482 25.589807,-21.7952055 6.05711,-3.45702 13.80394,-6.435395 20.02838,-7.70018195 1.16417,-0.236555 2.41432,-0.49675 2.77812,-0.578211 0.59475,-0.133175 0.56319,-0.06461 -0.31298,0.679877 -1.15602,0.98227695 -3.83293,4.26261995 -5.11857,6.27240795 -3.89219,6.0844595 -5.88631,13.1265195 -5.60787,19.8036535 0.26489,6.35213 2.52038,12.0072 6.96533,17.46385 l 1.17195,1.43869 -0.99632,0.15307 c -5.01847,0.77099 -7.92121,2.11801 -10.7967,5.01022 -3.38099,3.40064 -5.00111,7.57591 -4.98769,12.85391 0.008,3.31785 0.42983,5.39476 2.10209,10.36039 0.49942,1.483 0.8669,2.7375 0.81662,2.78778 -0.0503,0.0503 -0.91259,-0.11324 -1.91624,-0.36338 -2.80392,-0.6988 -8.53519,-0.63367 -11.598517,0.13183 -4.46637,1.1161 -8.88982,3.61163 -12.5915,7.10361 l -1.78436,1.68327 0.59016,1.91439 c 0.32459,1.05292 0.66843,2.33268 0.76408,2.84392 l 0.17391,0.92952 -1.3893,0.32702 c -5.34433,1.25797 -11.26705,6.80352 -14.958276,14.005689 -1.71738,3.35089 -3.371181,7.33413 -4.15272,10.002 -0.341038,1.16417 -0.680766,1.93807 -0.754953,1.71979 z" /></svg>
