<svg xmlns="http://www.w3.org/2000/svg" xml:space="preserve" width="468.897" height="441.359" viewBox="0 0 124.062 116.776"><path d="M19.881 116.25c-.748-.3-1.589-1.161-1.87-1.913-.28-.752-1.926-9.201-3.657-18.777-1.73-9.575-4.483-23.894-6.117-31.818C5.018 48.13.747 23.532.144 17.129c-.465-4.927-.272-5.07 7.976-5.926 3.228-.335 10.067-1.264 15.198-2.065 5.13-.802 14.192-2.17 20.135-3.043 5.944-.872 15.129-2.495 20.412-3.607C78.045-.497 77.572-.444 78.631.814c.507.6 1.658 3.615 2.558 6.698 1.794 6.144 5.724 15.307 9.563 22.298 4.883 8.893 22.776 30.853 29.202 35.84 6.105 4.739 5.734 6.075-3.335 11.988-4.464 2.91-6.715 4.726-6.442 5.195.23.396 1.168 1.827 2.083 3.18 3.018 4.459 2.856 7.247-.495 8.515-3.457 1.308-26.623 7.964-33.816 9.716-4.114 1.002-10.182 2.633-13.484 3.625-23.979 7.204-40.013 10.218-44.584 8.381m11.429-10.525c7.448-1.889 29.187-8.574 37.358-11.489 16.29-5.811 37.982-16.098 45.344-21.502l2.828-2.076-6.264-6.363C99.346 52.888 91.34 41.959 84.22 28.322c-3.643-6.98-8.65-18.734-8.65-20.31 0-.425-.337-1.232-.75-1.794-.7-.953-1.147-.92-6.75.503-3.3.838-10.999 2.177-17.11 2.975s-14.757 2.122-19.214 2.942c-4.458.82-11.979 1.914-16.713 2.431s-8.816 1.07-9.071 1.227-.092 1.712.363 3.454c.904 3.466 5.032 24.813 8.274 42.791 4.118 22.84 8.91 44.726 9.792 44.726.459 0 3.571-.694 6.918-1.542m-.047-11.55C29.456 92.37 19.71 53.344 20.53 51.203c.44-1.145 3.017-1.29 3.839-.217.316.412 1.294 3.587 2.174 7.054s3.22 12.612 5.202 20.322 3.603 14.242 3.603 14.515c0 .675-1.753 2.384-2.445 2.384-.306 0-1.045-.488-1.641-1.084m9.289-4.118c-.736-.735-.412-2.405.65-3.355 1.03-.923 12.476-4.908 18.534-6.454 1.69-.431 3.514-.616 4.052-.41 1.157.444 1.293 2.412.227 3.276-.413.334-5.037 2.123-10.276 3.976-8.96 3.167-12.247 3.907-13.187 2.967m27.615-4.202c-.22-.22-.4-1.155-.4-2.076 0-1.562.295-1.763 4.353-2.957a479 479 0 0 0 8.998-2.77c5.332-1.708 7.28-1.67 7.54.15.264 1.85-.757 2.424-9.546 5.372-7.79 2.613-10.126 3.1-10.945 2.28m-27.415-8.906c-1.17-1.41.126-2.44 4.892-3.888 4.688-1.424 6.709-1.405 6.988.064.285 1.492-1.342 2.742-4.919 3.782-4.065 1.182-6.006 1.194-6.961.042m14.808-1.9c-.22-.22-.4-1.038-.4-1.816 0-1.747.55-1.968 11.667-4.689 9.255-2.264 11.497-2.518 11.915-1.35.567 1.58-.89 2.77-4.81 3.926-14.217 4.193-17.422 4.878-18.372 3.928m35.05-5.545c-3.34-6.617-9.635-23.572-9.635-25.951 0-.573.59-1.23 1.313-1.46 1.945-.617 2.911.94 6.82 10.987 1.896 4.874 4.37 10.709 5.496 12.967 2.501 5.013 2.444 6.626-.245 6.886-1.808.175-2.034-.032-3.75-3.43m-51.632.274c-.396-.477-.632-1.49-.524-2.25.152-1.068.746-1.508 2.598-1.923 3.92-.88 27.97-6.98 31.177-7.91 3.812-1.104 6.127-1.089 6.562.044.73 1.905-.498 2.747-7.035 4.82-6.075 1.926-30.048 8.087-31.467 8.087-.325 0-.915-.39-1.31-.867m-3.23-7.937c-.767-.768-.391-2.564.651-3.106 1.626-.846 15.382-4.298 17.127-4.298 2.225 0 2.856 2.247 1.043 3.714-.739.599-1.824 1.088-2.412 1.088s-3.667.676-6.844 1.501c-5.783 1.503-8.814 1.851-9.564 1.1m-6.883-8.725c-.935-.935-.92-2.569.03-3.357.413-.342 3.047-1.167 5.853-1.835 2.807-.667 9.29-2.208 14.409-3.423C60 41.927 64.31 41.567 64.645 43.21c.12.594-.087 1.45-.462 1.901s-6.949 2.335-14.608 4.184-14.903 3.628-16.097 3.952c-2.832.77-3.739.744-4.613-.13m32.699-.28c-.925-.925-.288-2.5 1.25-3.09 3.037-1.164 12.628-3.126 13.553-2.771 1.889.725 1.82 3.541-.1 4.107-2.122.624-11.117 2.154-12.668 2.154-.9 0-1.815-.18-2.035-.4M19.327 46.76c-1.059-.674-1.715-2.73-4.155-13.028-1.811-7.647-2.09-9.616-1.538-10.83 1.458-3.2 3.826-1.323 4.841 3.836.39 1.984 1.652 6.934 2.804 11l2.093 7.392-1.282 1.05c-1.428 1.17-1.733 1.234-2.763.58m29.019-7.029c-1.628-1.628-4.614-13.159-3.642-14.064 1.155-1.077 3.135-1.28 4.004-.41 1.43 1.43 4.403 12.875 3.655 14.069-.857 1.367-2.853 1.569-4.017.405m29.557-.307c-1.13-.66-7.925-18.087-7.632-19.575.109-.553.667-1.3 1.24-1.662 1.607-1.012 2.891.816 6.067 8.633 3.823 9.41 4.078 10.423 3.006 11.954-.978 1.396-1.28 1.469-2.68.65m-50.896-2.022c-.925-1.115-.22-2.722 1.354-3.083 10.427-2.39 10.755-2.374 10.472.531-.167 1.714-.439 1.933-3.184 2.567-4.212.974-7.827.967-8.642-.016zm-.88-12.685c-.513-.513-.785-1.319-.605-1.79.457-1.19 9.428-3.77 20.032-5.758a449 449 0 0 0 13.145-2.7c4.463-1.006 6.558-1.236 7.354-.81 1.146.613 1.52 2.634.592 3.206-.506.313-32.987 7.604-37.39 8.393-1.591.286-2.45.137-3.127-.54m25.13 80.748c.758-.325.869-.516.301-.516-.495 0-1.44.232-2.101.516-.757.325-.868.516-.3.516.495 0 1.44-.232 2.1-.516m5.918-1.542c2.028-.518 6.66-1.858 10.292-2.978s13.763-4.082 22.513-6.583 16.382-4.692 16.96-4.867c1.091-.333.912-1.038-.871-3.422-.763-1.02-1.203-.905-7.699 2.009-9.961 4.467-15.949 6.731-31.803 12.025-14.192 4.738-16.197 5.553-9.392 3.816"/></svg>