<?xml version="1.0" encoding="UTF-8" standalone="no"?>
<svg
   width="78.359612mm"
   height="107.24733mm"
   viewBox="0 0 78.359612 107.24733"
   version="1.1"
   xml:space="preserve"
   xmlns="http://www.w3.org/2000/svg"
   xmlns:svg="http://www.w3.org/2000/svg"><path
     style="fill:#000000"
     d="m 38.177163,106.9083 c -0.72873,-0.25372 -1.77052,-0.80115 -2.3151,-1.21652 -0.54458,-0.41538 -0.99197,-0.6518 -0.9942,-0.52538 -0.002,0.12641 -0.0915,0.0988 -0.19844,-0.0613 -0.10691,-0.16014 -1.38501,-1.24823 -2.84022,-2.41799 C 26.650353,98.524122 20.791007,91.944342 15.573814,84.433042 12.863623,80.531122 7.4917686,71.880662 5.7535606,68.619182 2.6957736,62.881712 0.56063255,54.181522 0.07199055,45.468142 -0.60359145,33.421272 3.5155296,20.622812 10.752259,12.283622 c 3.612108,-4.1623795 9.15487,-7.9424695 14.549424,-9.9224995 11.18006,-4.103574 24.11697,-2.80107005 34.38383,3.4618 10.01067,6.1065895 15.87221,15.5040695 18.21653,29.2055395 0.54449,3.18234 0.62037,11.78837 0.13403,15.20217 -1.23757,8.68694 -3.92812,16.82406 -7.22658,21.85562 -0.65787,1.00353 -2.25262,3.61053 -3.5439,5.79334 -2.50078,4.22738 -6.92215,10.92332 -9.30789,14.09632 -5.45616,7.25663 -13.9089,14.553688 -17.66183,15.247058 -0.45046,0.0832 -1.36679,-0.0529 -2.11871,-0.31465 z m 3.64006,-11.350048 c 0.83675,-0.50377 1.52136,-1.03187 1.52136,-1.17355 0,-0.54613 -2.75283,-1.5511 -4.23334,-1.54546 -1.4718,0.006 -4.24014,0.91676 -4.4147,1.45302 -0.091,0.27942 2.47331,1.96803 3.46663,2.28283 0.88714,0.28115 2.03281,-0.0371 3.66005,-1.01684 z m -7.36668,-18.93545 c -1.52079,-9.10903 -4.3433,-15.64687 -9.39507,-21.76198 C 20.397554,49.222482 12.47942,44.819302 4.6017696,43.486752 l -1.033688,-0.17485 0.167801,3.65779 c 0.299056,6.51897 2.14756,13.32846 4.659238,17.16363 3.7376684,5.70718 11.6764234,10.28118 21.9788724,12.66338 1.52797,0.35331 3.10258,0.65219 3.49912,0.66419 0.66948,0.0203 0.71073,-0.0396 0.57743,-0.83809 z m 12.52944,0.17726 c 5.52951,-1.24017 11.42181,-3.62255 15.4086,-6.23001 2.23602,-1.46242 5.97354,-5.23889 7.12175,-7.19597 1.24063,-2.11461 2.60226,-5.84269 3.34938,-9.17045 1.08115,-4.81553 1.54906,-10.85874 0.8398,-10.84646 -0.81786,0.0142 -5.1491,1.09586 -6.86201,1.71374 -10.90844,3.9349 -18.56379,12.5284 -22.3291,25.0655 -0.59361,1.97652 -1.43441,6.07031 -1.43441,6.98407 0,0.49732 0.40987,0.4637 3.90599,-0.32042 z" /></svg>
