<?xml version="1.0" encoding="UTF-8" standalone="no"?>
<!-- Created with Inkscape (http://www.inkscape.org/) -->

<svg
   width="75.003265mm"
   height="98.112473mm"
   viewBox="0 0 75.003265 98.112473"
   version="1.1"
   id="svg1"
   xml:space="preserve"
   xmlns="http://www.w3.org/2000/svg"
   xmlns:svg="http://www.w3.org/2000/svg"><defs
     id="defs1" /><path
     style="fill:#000000"
     d="M 24.863408,97.980197 C 11.600631,96.836607 3.5496641,90.695877 0.62571814,79.493337 0.09412014,77.456617 0.00676914,76.479447 2.0514087e-4,72.495827 -0.00559486,69.005507 0.11062714,67.311967 0.47209914,65.616667 3.1606511,53.007407 11.591821,42.151267 23.987518,35.337737 c 1.51426,-0.83235 2.86026,-1.20919 2.86026,-0.80079 0,0.0776 -0.84299,1.39758 -1.87333,2.93326 -1.03033,1.53569 -1.834,2.83036 -1.78593,2.87706 0.0481,0.0467 1.62957,-1.03514 3.51446,-2.4041 1.88489,-1.36895 3.55177,-2.48718 3.70417,-2.48495 0.1524,0.002 0.44931,0.113 0.65979,0.24617 0.31107,0.1968 0.0927,0.6789 -1.16654,2.57564 -1.5926,2.39881 -9.904375,13.80966 -10.770263,14.78598 -0.951388,1.07273 -0.462214,0.96109 0.785631,-0.17928 0.698537,-0.63838 1.621272,-1.44914 2.050522,-1.80169 1.78159,-1.46326 7.41498,-6.72584 11.49608,-10.73935 l 4.36562,-4.29333 2.34638,-0.17075 c 2.75681,-0.20062 5.74835,-0.83236 7.03434,-1.48549 0.87811,-0.44597 0.96061,-0.44426 2.09817,0.0434 2.89857,1.24248 9.07102,5.47132 12.2726,8.40816 1.80286,1.65379 4.99136,5.40246 6.56036,7.71291 2.7448,4.04189 4.65173,8.24064 5.85612,12.89419 1.04836,4.05065 1.31761,9.962 0.62198,13.65498 -1.47558,7.83355 -6.27739,13.64901 -13.92204,16.86095 -4.96032,2.0841 -11.5381,3.29575 -21.27589,3.91907 -3.9221,0.25105 -12.10449,0.30191 -14.5566,0.0905 z m 30.59946,-6.81657 c 7.11632,-1.50832 13.04732,-6.51078 15.10662,-12.74159 3.37727,-10.21854 -0.53704,-23.47254 -9.486,-32.11996 -1.65121,-1.59557 -1.71709,-1.63379 -0.91211,-0.52916 4.08025,5.59906 6.52436,10.94025 7.56704,16.53645 0.33327,1.7887 0.41436,3.33593 0.32589,6.21771 -0.10937,3.56272 -0.18746,4.04233 -1.09435,6.72168 -2.22939,6.58665 -6.38286,11.35582 -12.58504,14.45065 -1.22566,0.6116 -2.65441,1.26885 -3.175,1.46057 l -0.94651,0.34856 1.71979,0.014 c 0.94588,0.008 2.51174,-0.1538 3.47967,-0.35896 z m -15.38592,-6.74277 v -1.83331 l 1.39425,-0.40532 c 4.11833,-1.19723 6.25487,-4.42051 5.95664,-8.98643 -0.22587,-3.45807 -2.00889,-5.60363 -5.85695,-7.04783 -1.18547,-0.44492 -2.98884,-1.12528 -4.00748,-1.51191 -2.33134,-0.88487 -3.30729,-1.80482 -3.30729,-3.11748 0,-0.53008 0.12867,-1.20421 0.28593,-1.49805 0.33369,-0.62351 2.19795,-1.53406 3.15365,-1.54033 1.81194,-0.0119 3.80582,1.15292 4.67591,2.73159 0.25375,0.4604 0.40713,0.42447 2.54628,-0.59651 l 2.27626,-1.08641 -0.32333,-0.72641 c -1.17573,-2.64149 -2.57087,-3.96788 -5.01507,-4.76793 l -1.64651,-0.53895 -0.0777,-1.87696 -0.0777,-1.87695 h -2.23744 -2.23737 l -3.6e-4,1.91823 -3.7e-4,1.91822 -1.55015,0.4555 c -2.00337,0.58868 -3.96055,2.30611 -4.82399,4.23307 -0.49729,1.10983 -0.627,1.85896 -0.63124,3.64581 -0.005,2.00904 0.0793,2.40202 0.78841,3.68376 1.21025,2.18769 2.72989,3.14106 8.03559,5.04122 3.77594,1.35231 4.89064,2.58047 4.21175,4.64047 -0.50278,1.52561 -1.71343,2.24497 -3.77819,2.24497 -2.24578,0 -3.70387,-0.78157 -4.77693,-2.56052 l -0.80569,-1.3357 -2.40531,1.2205 c -2.30364,1.16892 -2.39475,1.24847 -2.15541,1.88197 0.99563,2.63532 3.68791,4.96422 6.45452,5.58337 l 1.43737,0.32166 v 1.80998 1.80998 h 2.24896 2.24896 z m -8.09302,-50.81766 c -2.31207,-0.33913 -5.40705,-1.37063 -5.68808,-1.89574 -0.28032,-0.52378 0.0929,-1.544959 0.56459,-1.544959 0.14225,0 1.10569,0.234733 2.14099,0.521629 5.11419,1.41722 12.20381,1.29683 17.08904,-0.290191 0.90633,-0.294434 1.8886,-0.458934 2.18281,-0.365556 0.73794,0.234213 0.70139,1.338617 -0.0604,1.824687 -0.82203,0.52451 -3.91764,1.38753 -6.20225,1.72911 -2.10991,0.31546 -7.93604,0.32768 -10.02671,0.021 z m -0.70247,-3.714196 c -1.75585,-0.295599 -4.62994,-1.283485 -5.09914,-1.752681 -0.73432,-0.73432 -0.383,-1.942572 0.56483,-1.942572 0.35007,0 1.4982,0.243685 2.55138,0.541522 1.32797,0.375545 3.09487,0.589973 5.76478,0.699602 4.34712,0.178497 7.01758,-0.106493 10.77119,-1.149494 1.97462,-0.548681 2.52674,-0.617367 2.84427,-0.35384 0.53385,0.443062 0.49592,1.146304 -0.0905,1.676973 -0.6512,0.589325 -3.87029,1.662502 -6.46094,2.153939 -2.25524,0.427812 -8.6156,0.502025 -10.84591,0.126551 z m 2.57778,-4.925388 C 31.892188,24.80963 29.100748,24.279587 28.415618,23.929968 26.670948,23.03968 20.659234,14.553217 17.964264,9.176273 16.251575,5.759151 15.999781,4.868417 16.581949,4.286249 c 0.527451,-0.52745 1.256985,-0.379284 5.597459,1.13683 5.16153,1.802909 6.3851,1.974557 8.81026,1.235955 2.07377,-0.63158 3.80281,-1.652452 5.97702,-3.52899 C 39.102958,1.286246 41.084068,0 41.787648,0 c 0.8886,0 1.87959,0.902552 3.21256,2.925876 1.66226,2.523153 2.74766,3.424123 4.12504,3.424123 0.64609,0 3.02006,-0.660422 5.81055,-1.616453 5.02289,-1.720852 5.90237,-1.815034 6.1915,-0.663031 0.30071,1.198117 -3.70859,8.146585 -7.26925,12.598234 -3.24955,4.062704 -8.0166,8.233943 -8.66688,7.58366 -0.0824,-0.08241 0.38374,-0.780646 1.03588,-1.551642 2.41878,-2.859598 4.4491,-6.752868 5.36516,-10.288051 0.21504,-0.82989 0.39099,-1.600006 0.39099,-1.711368 0,-0.111362 -0.5958,0.788838 -1.324,2.000444 -0.72819,1.211607 -1.99838,3.105845 -2.82263,4.209418 -1.5762,2.11035 -5.17767,5.842955 -5.63767,5.842955 -0.16681,0 -0.26987,-1.093702 -0.26987,-2.864143 0,-3.044449 -0.7052,-7.692611 -1.51232,-9.968148 l -0.46923,-1.322917 -0.16814,3.175 c -0.24967,4.714496 -1.13684,9.543825 -2.3209,12.633854 -0.29647,0.773704 -0.47111,0.800672 -3.5992,0.555802 z"
     id="path2" /></svg>
