<?xml version="1.0" encoding="UTF-8" standalone="no"?>
<svg
   width="123.9935mm"
   height="131.7307mm"
   viewBox="0 0 123.9935 131.7307"
   version="1.1"
   xml:space="preserve"
   xmlns="http://www.w3.org/2000/svg"
   xmlns:svg="http://www.w3.org/2000/svg"><path
     style="fill:#000000"
     d="m 20.540008,131.31882 c -0.74835,-0.52416 -0.777928,-1.77948 -0.05887,-2.49854 0.461668,-0.46167 0.881944,-0.52916 3.294842,-0.52916 1.572431,0 3.063392,-0.13565 3.455717,-0.31441 0.416285,-0.18967 1.45334,-1.47552 2.614034,-3.24114 2.900299,-4.41189 2.813053,-3.91902 0.885796,-5.004 C 24.440547,116.18999 17.660376,110.34369 13.2266,104.6377 7.4779348,97.239532 3.1722578,88.092082 1.3205628,79.343202 c -1.85555596,-8.76711 -1.75132296,-18.76904 0.285381,-27.38437 3.767611,-15.93715 13.3712252,-29.37074 27.3237272,-38.220609 3.078591,-1.952705 9.618993,-5.0567871 13.115008,-6.2243961 5.003288,-1.671014 10.021477,-2.6851 15.803402,-3.193584 l 2.045069,-0.179851 -0.03022,-1.341276 c -0.02679,-1.18902 0.06441,-1.425824 0.803375,-2.08609198 1.07415,-0.959755 1.98269,-0.950989 2.96227,0.02858 0.64755,0.64754998 0.77339,0.98760498 0.77339,2.08981298 v 1.316416 l 1.91823,0.178498 c 10.55226,0.98192 19.33213,3.758704 27.73679,8.7722361 5.57465,3.325375 9.709255,6.704745 14.200255,11.606385 8.22836,8.98075 13.63334,20.71333 15.3021,33.21627 0.51943,3.89176 0.58633,12.16825 0.12716,15.73344 -1.7625,13.68505 -7.2278,25.27096 -16.71076,35.425218 -3.26032,3.49112 -9.256455,8.22249 -13.271165,10.47186 -0.83674,0.46881 -1.57433,0.93811 -1.63909,1.0429 -0.18052,0.29209 3.20216,5.59111 4.23753,6.63814 l 0.91572,0.92604 3.192775,0.1323 c 2.7648,0.11455 3.24303,0.20113 3.56766,0.64588 0.5283,0.72378 0.46555,1.64469 -0.15429,2.26453 -0.52463,0.52463 -0.88195,0.52917 -41.612995,0.52917 -36.755863,0 -41.145786,-0.0434 -41.671878,-0.41188 z m 45.591567,-6.73035 c 12.46115,-1.10325 23.16636,-5.44661 33.0631,-13.41451 9.314785,-7.49937 16.401415,-18.708908 19.314545,-30.551508 1.39964,-5.68989 1.81201,-9.71459 1.6492,-16.09591 -0.19506,-7.64502 -1.3307,-13.39612 -3.9393,-19.94934 C 109.6831,28.157622 95.909955,15.526412 79.088245,10.524853 73.860795,8.9705879 69.856825,8.3807419 63.561335,8.2375009 55.235621,8.0480659 50.582201,8.7033119 43.499886,11.062343 35.175387,13.835131 29.02274,17.454382 22.465512,23.435682 10.477211,34.371022 3.7521678,49.807262 3.7567338,66.378622 c 0.0038,13.72214 4.383589,25.95104 13.2321372,36.945568 11.37243,14.1305 31.474038,22.82856 49.142704,21.26428 z m -9.270232,-2.90748 c -2.328333,-0.10856 -4.395068,-0.2135 -4.592745,-0.23321 -0.539062,-0.0537 -0.163312,-1.21176 0.925395,-2.85197 1.109495,-1.67152 3.480155,-3.34928 5.605557,-3.96715 4.293855,-1.24826 9.217905,0.99381 11.133715,5.06952 0.92687,1.97183 0.91966,1.97835 -2.18409,1.97835 -1.50601,0 -3.61937,0.0454 -4.69635,0.10092 -1.07698,0.0555 -3.863148,0.0121 -6.191482,-0.0965 z m 15.916702,-1.52581 c -1.81559,-8.4285 -3.46677,-16.20021 -4.96083,-23.349478 -1.01876,-4.87495 -2.50162,-11.87088 -3.29523,-15.54653 -0.79361,-3.67564 -1.44293,-6.7415 -1.44293,-6.81302 0,-0.0715 0.20836,-0.13154 0.46302,-0.13338 0.25466,-0.002 1.14654,-0.35002 1.98195,-0.77372 l 1.51893,-0.77037 1.94371,2.69195 c 1.06903,1.48057 3.78754,5.37085 6.04112,8.64507 2.25359,3.27422 4.79499,6.96516 5.64757,8.20208 0.85258,1.23693 3.7498,5.46365 6.43826,9.392708 2.68846,3.92906 5.40346,7.81706 6.03333,8.64 l 1.14523,1.49625 -1.25292,0.78581 c -5.6829,3.56428 -11.98747,6.2802 -18.22444,7.85084 -2.02927,0.51103 -1.85218,0.53869 -2.03677,-0.31821 z m -27.161493,-0.83977 c -1.673489,-0.55095 -3.679412,-1.25997 -4.457606,-1.57559 -2.013651,-0.81669 -7.510683,-3.57485 -9.342664,-4.68772 l -1.551893,-0.94273 3.885875,-5.7336 c 2.137231,-3.15349 4.381987,-6.447988 4.988347,-7.321108 0.60636,-0.87313 4.295633,-6.23094 8.198385,-11.90625 3.902752,-5.67531 7.725332,-11.17232 8.494623,-12.21557 l 1.398711,-1.89681 0.991294,0.50539 c 0.545211,0.27796 1.384923,0.57923 1.866027,0.66949 0.493382,0.0926 0.874734,0.32498 0.874734,0.53313 0,0.2999 -4.99083,19.96512 -10.534439,41.508538 -0.681989,2.65032 -1.145399,3.98466 -1.394967,4.01666 -0.205545,0.0264 -1.742937,-0.40287 -3.416427,-0.95383 z m -21.59589,-11.9987 c -3.636604,-3.71345 -5.478577,-5.8282 -7.593945,-8.718538 l -1.495946,-2.04398 1.505245,-0.43759 c 4.619986,-1.34306 9.62534,0.9477 11.622779,5.319308 0.595325,1.30293 0.726373,1.96692 0.731071,3.70417 0.0058,2.15167 -0.591143,4.57334 -1.26529,5.13283 -0.253544,0.21042 -1.112581,-0.51434 -3.503914,-2.9562 z m 71.161003,1.72597 c -0.34903,-0.90461 -0.48409,-1.9611 -0.48199,-3.77031 0.003,-2.24612 0.0848,-2.67585 0.77256,-4.03904 0.92768,-1.838718 3.10374,-3.967668 4.836125,-4.731438 1.75763,-0.7749 4.83223,-0.948 6.78015,-0.38172 0.82438,0.23965 1.49887,0.49896 1.49887,0.57625 0,0.20605 -2.90171,3.950318 -4.53905,5.857048 -1.63555,1.90463 -7.770645,7.74598 -8.135515,7.74598 -0.13544,0 -0.46446,-0.56555 -0.73115,-1.25677 z M 13.758995,94.028192 c -1.638813,-2.50114 -4.8308572,-10.73848 -5.8250892,-15.03214 -0.526342,-2.27303 -0.530894,-2.21254 0.177961,-2.36521 0.327422,-0.0705 4.8220312,-1.04233 9.9880202,-2.15958 5.165989,-1.11724 14.036145,-3.03475 19.711457,-4.26113 5.675313,-1.22638 11.598672,-2.5129 13.163021,-2.85894 2.691882,-0.59545 2.84427,-0.60345 2.84427,-0.14933 0,0.2639 0.249754,1.14735 0.555008,1.96322 0.305254,0.81586 0.513613,1.51723 0.46302,1.5586 -0.159036,0.13004 -14.490793,8.62214 -24.830526,14.71302 -2.401094,1.41442 -6.906253,4.07482 -10.011466,5.912 -3.105212,1.83719 -5.681128,3.34033 -5.724257,3.34033 -0.04313,0 -0.273268,-0.29738 -0.511419,-0.66084 z m 93.505465,-1.22819 c -1.52797,-0.88813 -4.56406,-2.65593 -6.74687,-3.92844 -2.182815,-1.2725 -10.159995,-5.91703 -17.727085,-10.32116 -7.56708,-4.40413 -13.78861,-8.03218 -13.82562,-8.06232 -0.037,-0.0301 0.11672,-0.42367 0.34162,-0.8745 0.2249,-0.45083 0.49914,-1.33336 0.60942,-1.96118 0.20004,-1.13887 0.2029,-1.1413 1.24588,-1.05693 0.57495,0.0465 8.30818,1.38429 17.18495,2.97285 25.490185,4.56164 28.666915,5.1484 28.846695,5.32818 0.61755,0.61755 -2.45395,10.55919 -4.80708,15.5592 -1.71353,3.64097 -1.89344,3.97099 -2.16096,3.96392 -0.10055,-0.003 -1.43298,-0.73148 -2.96095,-1.61962 z M 7.1474178,74.510492 c -0.278764,-2.30065 -0.425714,-10.00332 -0.255139,-13.37359 0.136866,-2.70424 0.258733,-3.48953 0.54153,-3.48953 0.717022,0 3.0292452,1.359 4.0514952,2.38125 0.572144,0.57214 1.369987,1.66941 1.772984,2.43836 0.649796,1.23987 0.733167,1.68257 0.73664,3.91164 0.0034,2.17086 -0.0916,2.71727 -0.696689,4.0079 -0.887746,1.89351 -2.419693,3.42944 -4.4354752,4.44701 l -1.579589,0.79737 z M 115.59884,72.482232 c -1.758,-0.78667 -3.66539,-2.71387 -4.52194,-4.5689 -0.68747,-1.48885 -0.76973,-1.94976 -0.76973,-4.31284 0,-2.31689 0.0882,-2.83392 0.7091,-4.15873 0.39,-0.8321 1.25213,-2.09346 1.91584,-2.80301 1.16427,-1.24471 3.15512,-2.42764 3.50194,-2.08081 0.3536,0.3536 0.58732,4.80446 0.60335,11.48995 0.009,3.81992 -0.0726,6.9369 -0.18179,6.92662 -0.10914,-0.0103 -0.67469,-0.2318 -1.25677,-0.49228 z m -55.297913,-0.82807 c -1.148427,-0.3371 -2.70837,-1.72031 -3.34297,-2.96423 -0.815012,-1.59755 -0.6159,-4.02 0.45575,-5.54477 1.123518,-1.59857 2.505607,-2.31305 4.484798,-2.31844 3.10875,-0.008 5.37962,1.95186 5.62008,4.85152 0.15802,1.90551 -0.30811,3.19781 -1.62932,4.51705 -1.54278,1.54047 -3.53685,2.06104 -5.588338,1.45887 z m -12.964583,-8.08892 c -3.4925,-0.63273 -9.68375,-1.7462 -13.758333,-2.47437 -4.074583,-0.72817 -10.384895,-1.86115 -14.022916,-2.51774 -3.63802,-0.65658 -7.805207,-1.38895 -9.260416,-1.62748 -1.4552082,-0.23852 -2.7420852,-0.51855 -2.8597262,-0.62227 -0.275146,-0.24259 1.089972,-5.67257 2.327837,-9.25934 0.9694722,-2.8091 4.2110342,-9.6605 5.1152532,-10.81166 l 0.491085,-0.6252 4.341942,2.76672 c 10.49882,6.68994 33.258884,21.52904 35.273008,22.99727 0.227643,0.16595 -0.779128,3.04294 -1.131856,3.23444 -0.09123,0.0495 -3.023378,-0.42764 -6.515878,-1.06037 z m 21.935181,-0.58146 -0.81899,-1.77912 0.68669,-0.52123 c 0.66345,-0.5036 11.24125,-7.90754 18.73292,-13.11213 9.39813,-6.52904 19.646325,-13.47185 19.885645,-13.47185 0.39091,0 2.72932,3.98558 4.52734,7.71639 1.37809,2.85946 3.05921,7.37302 3.55173,9.53585 0.1908,0.83787 0.82401,0.61316 -10.29219,3.65236 -3.78354,1.03444 -10.093845,2.76661 -14.022915,3.84928 -3.92906,1.08266 -10.17984,2.80496 -13.89062,3.82733 -3.71078,1.02236 -6.92547,1.90911 -7.14375,1.97054 -0.27609,0.0777 -0.64612,-0.42975 -1.21586,-1.66742 z m -3.44736,-3.73883 c -0.74576,-0.4057 -1.48811,-0.7823 -1.64968,-0.83688 -0.19549,-0.0661 0.27184,-2.66592 1.39706,-7.77216 2.00308,-9.08998 5.22709,-24.35671 6.89554,-32.65263 0.65592,-3.26134 1.23854,-5.975679 1.29473,-6.031864 0.19086,-0.19086 5.57795,1.283685 8.10265,2.217844 4.1209,1.52476 12.17083,5.76386 12.17083,6.40917 0,0.20569 -1.3599,2.22724 -11.29272,16.78701 -10.18731,14.93281 -15.49073,22.66524 -15.52814,22.64016 -0.0189,-0.0126 -0.64451,-0.35495 -1.39027,-0.76065 z m -9.378281,-0.0845 c -1.551701,-2.19238 -25.686598,-38.35265 -25.806182,-38.66428 -0.196688,-0.51256 1.397413,-1.51621 6.113309,-3.84895 4.979503,-2.463141 13.062168,-5.198253 13.618383,-4.608357 0.22276,0.236248 0.803336,2.720287 4.383085,18.753337 2.451164,10.97833 5.828006,25.93005 6.08018,26.92136 0.16281,0.64001 0.109972,0.72791 -0.438904,0.73018 -0.343197,10e-4 -1.260896,0.29908 -2.03933,0.66146 -0.778434,0.36238 -1.433277,0.65513 -1.455208,0.65056 -0.02193,-0.005 -0.22683,-0.27246 -0.455333,-0.59531 z M 19.95197,34.980152 c -1.13724,-0.19916 -3.161823,-0.90987 -3.319727,-1.16536 -0.444512,-0.71924 6.507125,-8.09375 10.39865,-11.03122 1.201272,-0.90676 2.224986,-1.64866 2.27492,-1.64866 0.04994,0 0.317232,0.50297 0.593994,1.1177 0.382206,0.84894 0.502392,1.72372 0.499824,3.63802 -0.0037,2.78824 -0.372706,3.81832 -2.155056,6.01648 -1.614426,1.99106 -5.740289,3.52 -8.292605,3.07304 z m 80.77042,-1.69146 c -2.514045,-0.48963 -4.925945,-2.61747 -5.891225,-5.1974 -0.63394,-1.69435 -0.70433,-4.44254 -0.14791,-5.77425 0.35979,-0.86108 0.78302,-1.1705 0.98364,-0.71911 0.0485,0.10914 0.8621,0.83827 1.80799,1.62029 3.434285,2.83934 8.995825,8.47026 8.995825,9.10806 0,0.7008 -3.81334,1.33925 -5.74832,0.96241 z M 60.446422,17.935642 c -1.78782,-0.3505 -3.867982,-1.51884 -5.156122,-2.89596 -1.105747,-1.182137 -2.428708,-3.354709 -2.188859,-3.594558 0.06241,-0.06241 2.243182,-0.223752 4.846161,-0.358539 4.978013,-0.257772 12.689443,0.03795 13.156003,0.504512 0.37794,0.377942 -1.32833,3.080025 -2.6006,4.118335 -1.48239,1.2098 -2.93517,1.89025 -4.75334,2.22636 -1.73689,0.32108 -1.66474,0.32108 -3.303243,-1.5e-4 z" /></svg>
