<?xml version="1.0" encoding="UTF-8" standalone="no"?>
<svg
   width="98.101654mm"
   height="93.805595mm"
   viewBox="0 0 98.101654 93.805595"
   version="1.1"
   xml:space="preserve"
   xmlns="http://www.w3.org/2000/svg"
   xmlns:svg="http://www.w3.org/2000/svg"><path
     style="fill:#000000"
     d="m 36.378606,93.738496 c -14.691417,-0.85239 -22.967758,-1.81991 -29.3687481,-3.43325 -8.269573,-2.08432 -9.340168,-5.09264 -2.584075,-7.26112 2.878569,-0.92392 8.1189901,-2.00905 10.9184491,-2.26086 1.527984,-0.13745 2.136506,-0.31645 2.645833,-0.7783 0.753374,-0.68315 1.932875,-1.30416 2.929419,-1.54234 0.374253,-0.0894 1.161535,-0.73315 1.749514,-1.43046 2.357857,-2.79628 5.772189,-3.63207 8.773103,-2.14755 1.280261,0.63333 1.479774,0.66465 2.116667,0.33236 0.386744,-0.20179 0.822234,-0.36936 0.967755,-0.37239 0.145521,-0.003 0.562239,-0.62885 0.926042,-1.3907 0.487456,-1.02079 0.917665,-1.51042 1.635413,-1.86128 0.903009,-0.44142 1.005839,-0.61488 1.411662,-2.38125 0.673103,-2.92973 0.906682,-6.13161 0.914505,-12.536 l 0.0072,-5.86835 -1.25677,0.70897 c -1.05763,0.59664 -1.571204,0.70801 -3.241146,0.70285 -2.133823,-0.007 -3.650061,-0.57296 -5.055489,-1.8884 l -0.689864,-0.6457 -0.897636,0.51317 c -3.655481,2.08977 -9.367247,1.07062 -11.890577,-2.12163 -0.576566,-0.72941 -1.117026,-1.60002 -1.201021,-1.93468 -0.112603,-0.44865 -0.550032,-0.75335 -1.665265,-1.15998 -3.8693351,-1.41083 -6.8698441,-4.71114 -7.9738841,-8.77061 -0.433446,-1.59375 -0.385303,-5.19531 0.09088,-6.79879 0.991943,-3.34024 3.664927,-6.69232 6.4699871,-8.11375 l 1.381619,-0.70012 v -1.39516 c 0,-4.62089 3.332607,-10.3303235 7.492419,-12.8360115 2.688294,-1.61931 4.980457,-2.25604 8.117997,-2.25505 2.348798,7.4e-4 3.095658,0.11275 4.83285,0.7248 l 2.054724,0.72392 1.499501,-1.33648 c 3.885887,-3.46343995 9.90713,-4.98279995 15.29313,-3.85895995 2.3744,0.49544 6.22466,2.40710995 7.997,3.97054995 l 1.38243,1.21947 1.83893,-0.66334 c 3.88279,-1.4006 7.78237,-1.10718 11.83454,0.89046 2.59363,1.278608 4.38944,2.839058 6.02056,5.2315315 1.52345,2.23456 2.24749,4.27531 2.60307,7.33691 l 0.27741,2.38857 1.32644,0.63465 c 3.78721,1.81206 6.80399,6.92702 6.80399,11.53618 0,5.23441 -3.59556,10.50541 -8.16101,11.96383 -1.2379,0.39544 -1.48037,0.59265 -1.94565,1.5825 -2.05361,4.36887 -7.99687,6.11337 -12.72707,3.73573 l -1.00561,-0.50547 -0.81566,0.68633 c -1.65668,1.39401 -2.85699,1.83897 -4.97833,1.84553 -1.702,0.005 -2.16321,-0.099 -3.24114,-0.73262 l -1.25678,-0.73876 0.0102,3.38459 c 0.0177,5.85432 0.45524,13.09169 0.91167,15.07932 0.40564,1.76647 0.50838,1.93981 1.41144,2.38125 0.71887,0.35141 1.1472,0.83967 1.63541,1.86422 0.36381,0.76347 0.78053,1.38928 0.92605,1.3907 0.14552,0.001 0.59331,0.17405 0.9951,0.38363 0.67343,0.35129 0.83809,0.32532 2.10716,-0.33236 2.89427,-1.4999 6.37287,-0.6763 8.66347,2.05118 0.72145,0.85906 1.39985,1.3405 2.36718,1.67995 0.74575,0.26169 1.74046,0.81056 2.21046,1.21971 0.70704,0.6155 1.19707,0.77649 2.83892,0.93266 2.46896,0.23485 8.91773,1.55703 10.86967,2.22859 3.3272,1.14472 4.70229,2.27603 4.37098,3.59608 -0.74214,2.95691 -11.61977,5.44194 -29.66044,6.77602 -3.75036,0.27733 -28.604964,0.55333 -32.014584,0.35551 z m 18.236124,-9.06285 c -0.10796,-0.38538 -0.17157,-0.89902 -0.14137,-1.14143 0.10822,-0.86857 -0.6857,-2.21159 -1.5977,-2.70274 l -0.91293,-0.49164 -0.32059,-3.07723 c -0.17633,-1.69248 -0.3095,-4.20833 -0.29594,-5.59077 l 0.0247,-2.51354 0.47268,2.64583 c 0.91367,5.11423 1.21634,5.81916 3.45814,8.05401 0.99931,0.99621 1.58523,1.80132 1.59055,2.18556 0.0118,0.8549 0.54417,1.46062 1.7128,1.94891 1.83608,0.76716 6.83165,1.41107 7.13533,0.91971 0.19708,-0.31888 -1.6653,-2.90243 -2.6514,-3.67809 -0.38605,-0.30367 -1.63763,-0.7532 -2.78129,-0.99896 -1.70073,-0.36547 -2.03896,-0.51909 -1.85734,-0.84363 0.3145,-0.56198 -0.69518,-3.40212 -1.37998,-3.88177 -0.49273,-0.34512 -0.62957,-0.34239 -1.1884,0.0238 -0.34735,0.2276 -0.68457,0.36079 -0.74938,0.29598 -0.28127,-0.28127 -1.21614,-3.99508 -1.67936,-6.67132 -0.27706,-1.60073 -0.69791,-5.29167 -0.93523,-8.20209 -0.47192,-5.78752 -0.51875,-6.07242 -0.95395,-5.80346 -0.54528,0.33701 -1.22424,2.33939 -1.69866,5.00971 -0.25854,1.45521 -0.56096,2.74881 -0.67205,2.87467 -0.30456,0.34507 -0.99953,-1.18747 -1.56546,-3.45212 -0.51157,-2.04713 -1.19066,-3.21629 -1.420788,-2.44608 -0.0621,0.20773 -0.25638,1.98504 -0.43179,3.94957 -0.41885,4.69073 -0.91648,7.95291 -1.733858,11.36603 -0.814449,3.40089 -0.967209,3.70176 -1.572289,3.09667 -0.241882,-0.24188 -0.601233,-0.43978 -0.798558,-0.43978 -0.549271,0 -1.421307,1.26403 -1.615677,2.34195 -0.09574,0.53094 -0.277784,1.16648 -0.404544,1.41231 -0.148803,0.28857 -0.117638,0.51669 0.08795,0.64375 0.178962,0.11061 -0.649062,0.40493 -1.890596,0.67201 -1.21496,0.26137 -2.443996,0.68606 -2.731193,0.94374 -0.762925,0.68455 -2.83895,3.42477 -2.83895,3.74724 0,0.55529 5.424902,-0.13472 7.459474,-0.94879 1.060511,-0.42433 1.536359,-1.00548 1.536359,-1.87633 0,-0.27898 0.71351,-1.22742 1.585579,-2.10765 2.173343,-2.19366 3.013473,-4.30947 3.848521,-9.6923 l 0.37418,-2.41197 -0.11697,3.4971 c -0.0643,1.92341 -0.26372,4.73268 -0.44308,6.24282 -0.318228,2.67924 -0.347518,2.75975 -1.209628,3.32488 -1.09805,0.71979 -1.392769,1.47051 -1.392769,3.54775 0,1.54995 0.02002,1.60056 0.411879,1.04111 0.33211,-0.47415 0.66773,-0.58804 1.73293,-0.58804 0.726578,0 1.667938,-0.17938 2.091918,-0.39863 0.69207,-0.35788 0.88089,-0.35461 1.8473,0.0321 0.71999,0.28809 1.55552,0.39097 2.52328,0.31072 1.12001,-0.0929 1.44685,-0.0364 1.44685,0.24991 0,0.20344 0.14622,0.62995 0.32492,0.94781 l 0.32491,0.57791 0.0939,-0.62222 c 0.0516,-0.34222 0.006,-0.93754 -0.10238,-1.32292 z m -30.274665,-1.35587 c 0.509323,-0.12554 1.857775,-0.3122 2.99656,-0.41481 2.026956,-0.18263 2.079562,-0.20552 2.500332,-1.08788 0.242692,-0.50893 0.692418,-0.96724 1.033009,-1.05272 0.496871,-0.12471 0.556115,-0.23937 0.336096,-0.65047 -0.350084,-0.65414 -1.620583,-1.29831 -2.560653,-1.29831 -1.000868,0 -1.841489,0.62918 -2.394549,1.79226 -0.390857,0.82197 -0.673046,1.02239 -1.986117,1.41058 -1.768382,0.52281 -2.835094,1.15122 -2.835094,1.67018 0,0.28773 0.205542,0.31076 0.992187,0.11117 0.545703,-0.13846 1.408906,-0.35446 1.918229,-0.48 z m 52.339755,0.19216 c -0.0689,-0.48518 -0.48252,-0.73345 -2.23579,-1.342 -1.96419,-0.68176 -2.19078,-0.8344 -2.60615,-1.75553 -0.68971,-1.5295 -2.25107,-2.02443 -3.82265,-1.21173 -0.87213,0.45099 -1.24541,1.19507 -0.75548,1.50593 0.18683,0.11855 0.42593,0.21736 0.53133,0.21959 0.1054,0.002 0.37546,0.35952 0.60012,0.79397 0.44766,0.86567 0.34033,0.83091 4.4999,1.45735 1.60073,0.24108 3.02353,0.54844 3.16177,0.68302 0.43507,0.42357 0.71469,0.2672 0.62695,-0.3506 z M 55.35029,36.640596 c 1.64454,-0.7915 1.89981,-1.44915 1.43948,-3.70853 l -0.2112,-1.03665 0.66819,0.7941 c 0.36751,0.43675 1.41582,1.19258 2.32959,1.67961 4.44165,2.36738 8.80656,-0.12595 6.85669,-3.91669 -0.93842,-1.82439 -3.0796,-3.2306 -4.91911,-3.2306 -0.56013,0 -0.6018,-0.12933 -0.71081,-2.20624 -0.0965,-1.83892 -0.2497,-2.44462 -0.92004,-3.63802 -0.44233,-0.78748 -1.19666,-1.69967 -1.6763,-2.02709 -1.55383,-1.06073 -0.01,-0.70571 2.58913,0.59531 1.30811,0.65484 2.68944,1.19062 3.0696,1.19062 0.55001,0 0.69122,0.12759 0.69122,0.62454 0,0.66036 0.86462,2.08056 2.18868,3.59505 1.09648,1.25418 2.46066,4.23143 3.07915,6.72006 0.28379,1.14185 0.59023,2.15035 0.68098,2.24111 0.0907,0.0908 0.96229,0.20686 1.93674,0.25802 1.59142,0.0836 1.89424,0.0143 2.97538,-0.68024 0.84926,-0.54559 1.43351,-1.21315 1.98438,-2.26735 0.4294,-0.82175 0.85787,-1.49438 0.95216,-1.49473 0.0943,-3.4e-4 0.6896,0.2956 1.32292,0.65765 2.24739,1.28477 3.92961,0.62773 3.92961,-1.53481 0,-1.44986 -0.97968,-2.48627 -2.61604,-2.76754 l -1.11923,-0.19238 0.54472,-0.58425 c 0.6257,-0.67112 0.67671,-0.87096 0.2223,-0.87096 -0.17732,0 -0.95123,0.62101 -1.71979,1.38002 l -1.39738,1.38003 v -1.1416 c 0,-1.67203 -0.58677,-2.6628 -3.23286,-5.45877 l -2.37516,-2.50968 h 1.46634 c 1.16894,0 1.6169,-0.12958 2.2087,-0.63889 0.63101,-0.54306 0.73964,-0.832 0.72426,-1.92643 -0.0377,-2.68005 -2.78483,-6.0663205 -5.43767,-6.7027305 -1.74948,-0.419693 -4.11673,-0.171383 -5.71245,0.59919 -1.47137,0.7105305 -1.64876,1.0620105 -0.74401,1.4742505 0.65134,0.29677 1.97563,2.53503 1.67672,2.83393 -0.0819,0.0819 -0.57918,-0.10505 -1.10514,-0.41538 -1.17862,-0.6954 -3.73937,-1.38739 -4.38079,-1.18382 -0.26112,0.0829 -0.59827,0.41596 -0.7492,0.74018 -0.26654,0.57251 -0.27946,0.57425 -0.44859,0.0603 -0.4801,-1.45884 -1.3743,-2.83368 -2.73922,-4.2115505 l -1.50822,-1.522543 1.4286,0.54155 1.42861,0.54155 -0.71663,-0.748 c -0.93896,-0.98007 -3.04235,-2.020548 -5.18329,-2.564008 -2.19601,-0.55745 -5.64164,-0.39041 -7.615028,0.36915 -1.722374,0.66295 -3.955902,2.072518 -4.298581,2.712818 -0.211808,0.39577 -0.04124,0.35999 1.000491,-0.20986 l 1.25583,-0.68697 -1.298743,1.30143 c -1.261551,1.2641735 -2.529885,3.4706535 -2.53513,4.4102935 -0.0034,0.6156 -0.327384,0.58644 -0.734932,-0.0661 -0.223153,-0.35732 -0.617016,-0.52916 -1.212849,-0.52916 -1.093988,0 -3.804873,0.91228 -4.452503,1.49837 -0.609249,0.55137 -0.632487,0.0972 -0.05364,-1.04849 0.550009,-1.08859 1.419577,-2.03738 1.867255,-2.03738 0.772277,0 0.270823,-0.52943 -1.1706,-1.2358905 -1.304645,-0.63944 -1.841706,-0.74585 -3.770312,-0.74707 -1.875361,-0.001 -2.494361,0.11367 -3.726215,0.69136 -0.812492,0.3810305 -1.481746,0.8572805 -1.487233,1.0583305 -0.0055,0.20106 -0.434827,1.06094 -0.95409,1.91084 -1.388459,2.27257 -1.589061,4.8035 -0.542992,6.85076 0.462365,0.9049 1.796634,1.61587 2.709589,1.44382 0.66971,-0.12621 0.66169,-0.10335 -0.232392,0.66229 -0.509323,0.43615 -1.545392,1.25745 -2.302376,1.8251 -1.350907,1.01302 -1.905938,2.02814 -1.939796,3.54775 -0.0091,0.40705 -0.329969,0.17618 -1.390538,-1.00042 -1.282,-1.42226 -1.439895,-1.51725 -2.250141,-1.35369 -1.199782,0.24218 -1.642149,1.20058 -1.642149,3.55775 0,2.20323 0.440391,3.32608 1.758381,4.48329 1.055415,0.92667 1.626254,0.99057 2.52606,0.28278 l 0.651637,-0.51258 0.539631,1.27727 c 0.296797,0.7025 0.854772,1.48376 1.239945,1.73614 0.882919,0.57851 2.718366,0.78989 3.669242,0.42258 0.613851,-0.23713 0.728476,-0.43721 0.733184,-1.2798 0.01372,-2.45454 2.396086,-7.17245 5.077028,-10.05426 0.855632,-0.91974 1.482005,-1.79149 1.391939,-1.93722 -0.09007,-0.14573 -0.08518,-0.62272 0.01086,-1.05998 0.160699,-0.73166 0.243251,-0.78215 1.035809,-0.63346 1.199687,0.22506 2.782864,-0.25855 4.392562,-1.3418 0.75271,-0.50654 1.413184,-0.92098 1.467719,-0.92098 0.203757,0 -0.434504,1.37688 -1.075621,2.32037 -0.368313,0.54202 -0.664209,1.35587 -0.664209,1.82688 v 0.84942 l 1.383029,-0.91083 c 1.36221,-0.89713 2.804367,-1.35216 1.590263,-0.50176 -0.980183,0.68654 -1.914212,2.55631 -1.921999,3.8475 l -0.007,1.16738 -0.451116,-0.7276 c -0.248115,-0.40019 -0.572368,-0.72298 -0.720564,-0.71733 -0.148196,0.006 -0.550914,0.58892 -0.894929,1.29615 -1.189181,2.44473 -0.684603,5.06476 1.185767,6.15712 2.031652,1.18655 5.967679,1.06925 7.504189,-0.22363 l 0.754788,-0.63512 0.32345,0.99708 c 1.11751,3.44497 4.94018,4.85601 8.50605,3.1398 z" /></svg>
