<?xml version="1.0" encoding="UTF-8" standalone="no"?>
<svg
   width="74.941589mm"
   height="104.82526mm"
   viewBox="0 0 74.941589 104.82526"
   version="1.1"
   xml:space="preserve"
   xmlns="http://www.w3.org/2000/svg"
   xmlns:svg="http://www.w3.org/2000/svg"><path
     style="fill:#000000"
     d="m 0,104.72611 v -8.020867 -3.5661 l 2.84427,-2.13959 c 1.98403,-1.49249 2.899442,-2.35447 3.026687,-2.85005 0.166831,-0.64976 0.772652,-6.46855 4.026955,-38.67816 l 1.109387,-10.98021 -0.807296,-0.13229 -0.807295,-0.13229 -0.07652,-2.31975 -0.07652,-2.31975 6.558806,0.0708 6.558806,0.0708 v 2.24896 2.24896 h -0.704092 c -0.387251,0 -0.776013,0.0713 -0.863915,0.15836 -0.0879,0.0871 0.674879,8.42147 1.695068,18.52083 2.450203,24.25577 2.441295,24.1702 2.526312,24.26798 0.04049,0.0466 1.007859,-0.62965 2.149707,-1.50271 1.141848,-0.87307 7.374366,-5.63864 13.850046,-10.59017 l 11.77396,-9.00279 0.07,8.0581 c 0.0385,4.43196 0.13301,8.0581 0.21006,8.0581 0.0771,0 4.95457,-3.6314 10.83892,-8.06979 5.88435,-4.43838 10.75993,-8.06979 10.83462,-8.06979 0.0747,0 0.16632,9.01899 0.20362,20.04219 l -0.10576,24.728367 -37.91575,-0.056 z m 40.532686,-21.653147 0.0808,-3.44005 -2.57968,4.6e-4 -2.57969,4.7e-4 v 3.43958 3.43958 h 2.49883 2.49883 z m 8.35699,-0.0657 0.074,-3.37343 h -2.65374 -2.65374 v 3.44916 3.44917 l 2.57969,-0.0757 2.57969,-0.0757 z m 13.2874,0.0661 v -3.43958 h -2.51354 -2.51354 v 3.43958 3.43958 h 2.51354 2.51354 z m 7.67292,0 v -3.43958 h -2.67891 -2.6789 l 0.16536,0.82682 c 0.0909,0.45475 0.16537,2.00256 0.16537,3.43958 v 2.61276 h 2.51354 2.51354 z M 11.953238,25.989573 c 0.0967,-6.22361 0.235375,-6.73741 2.328932,-8.62881 1.437345,-1.29856 2.046771,-1.51451 5.024325,-1.78035 3.775217,-0.33706 4.654607,-1.18193 5.031391,-4.83389 0.499097,-4.8374895 3.215044,-7.0480955 8.65926,-7.0480955 2.58535,0 3.56056,-0.339986 5.15302,-1.796488 1.55536,-1.42256904 2.6044,-1.90872904 4.10388,-1.901868039165 C 44.004726,0.00807146 45.519636,0.76747046 47.444226,2.6017855 c 2.15744,2.056248 3.07632,2.508258 4.80717,2.364728 1.07398,-0.0891 1.69259,-0.34789 2.90281,-1.214507 2.13827,-1.531183 2.77279,-1.595822 5.99769,-0.610997 3.7736,1.152387 6.97178,1.119694 10.68247,-0.1092 0.99147,-0.328349 -1.27376,1.420076 -3.08513,2.381264 -0.96921,0.51431 -3.17187,1.4192 -4.89479,2.01087 -5.27594,1.8118 -7.50954,3.3772995 -8.95729,6.2780495 -0.84671,1.69648 -2.04727,3.10972 -3.10748,3.65798 -1.19903,0.62004 -3.24901,0.51551 -5.32066,-0.27129 -2.07114,-0.78661 -2.73476,-0.8405 -3.97398,-0.32272 -1.49426,0.62434 -2.23634,1.68903 -3.09551,4.44126 -0.92527,2.96394 -1.88223,4.42622 -3.61638,5.52598 -2.29367,1.45461 -4.294976,1.65415 -7.710538,0.7688 -2.807623,-0.72777 -3.980062,-0.47788 -5.481001,1.16822 -0.59873,0.65664 -1.1613,1.55739 -1.250156,2.00167 l -0.161557,0.80778 h -4.655979 -4.655979 z" /></svg>
