<?xml version="1.0" encoding="UTF-8" standalone="no"?>
<svg
   width="58.846298mm"
   height="67.077896mm"
   viewBox="0 0 58.846298 67.077896"
   version="1.1"
   xml:space="preserve"
   xmlns="http://www.w3.org/2000/svg"
   xmlns:svg="http://www.w3.org/2000/svg"><path
     style="fill:#000000"
     d="m 27.223281,0.00910798 c -1.080034,-0.0405 -2.171178,0.0533 -3.248381,0.29301 -2.8192,0.62721 -5.020316,1.80668002 -6.911206,3.70313002 -1.71194,1.71697 -3.159172,4.27797 -3.449402,6.10505 -0.3654,2.30036 -0.332978,2.24896 -1.416968,2.24896 -1.59236,0 -3.9686838,0.51673 -5.5076738,1.19734 -1.65243,0.73078 -4.089393,2.93618 -5.043103,4.56355 -3.86551,6.59601 -0.624945,15.10036 6.588745,17.29145 1.7777298,0.53997 2.2022358,0.56197 7.4589758,0.38499 3.06575,-0.10321 5.706883,-0.29757 5.868893,-0.43202 0.16201,-0.13446 0.512807,-0.96612 0.779797,-1.84794 0.45913,-1.51638 0.794453,-2.05964 1.088823,-1.76527 0.16136,0.16137 -1.404765,7.8736 -1.877405,9.24543 -0.1898,0.5509 -0.266099,1.05083 -0.169499,1.11053 0.09657,0.0597 1.417275,-0.29468 2.934705,-0.78704 1.51742,-0.49235 2.808359,-0.84568 2.868559,-0.78548 0.06024,0.0602 -0.904912,3.12177 -2.144572,6.8032 -1.23966,3.68143 -2.226882,6.72221 -2.194182,6.75721 0.03268,0.0351 1.473749,-0.41143 3.202389,-0.99218 1.72864,-0.58074 3.186079,-1.05627 3.239079,-1.05627 0.053,0 0.03738,0.20836 -0.03462,0.46302 -1.4385,5.08623 -3.873148,14.12894 -3.873148,14.38465 0,0.20754 0.08761,0.24186 0.225309,0.0884 0.70571,-0.78658 12.73927,-21.18633 12.73927,-21.5961 0,-0.1558 -0.20119,-0.19561 -0.46302,-0.092 -1.01725,0.40264 -7.1861,1.57254 -7.36234,1.3963 -0.10367,-0.10367 0.0333,-0.75661 0.30438,-1.45108 0.27103,-0.69447 0.75246,-2.09641 1.07022,-3.11505 1.78762,-5.73052 3.93085,-11.2448 4.37027,-11.2448 0.35277,0 0.27561,0.57395 -0.30334,2.25671 -0.37521,1.09057 -0.44505,1.59908 -0.23719,1.72755 0.45546,0.28149 14.52355,2.7e-4 15.7179,-0.3142 2.76825,-0.72885 5.41771,-2.99442 6.69933,-5.72885 0.58678,-1.25192 0.70728,-1.87821 0.70228,-3.62975 -0.006,-1.80989 -0.12493,-2.36592 -0.82372,-3.83646 -1.22982,-2.58807 -2.89814,-4.07834 -5.65185,-5.04878 l -1.19062,-0.41962 -0.077,-1.5415 c -0.26913,-5.38397 -5.76253,-8.63168 -10.30532,-6.09266 -0.6643,0.37128 -1.23148,0.64364 -1.26038,0.60514 -0.0289,-0.0385 -0.43936,-0.80526 -0.91209,-1.70378 -2.24821,-4.27318 -6.72174,-6.96941002 -11.401891,-7.14478002 z M 43.863612,36.278208 c -0.024,1.2e-4 -0.0402,0.003 -0.047,0.0103 -0.14567,0.14567 -2.1947,7.00144 -2.1947,7.34322 0,0.61078 0.88957,-0.47007 2.80655,-3.41013 1.07589,-1.65008 1.95595,-3.04258 1.95595,-3.09438 0,-0.13654 -2.16025,-0.85072 -2.52077,-0.84905 z m -32.794901,5.98775 c -0.0128,0.002 -0.02665,0.005 -0.04082,0.009 -0.4009,0.13364 -2.1303378,3.87923 -2.1373378,4.62763 -0.0027,0.30913 -0.183245,1.06855 -0.401525,1.68723 -0.21828,0.61867 -0.39199,1.19895 -0.38499,1.28985 0.02375,0.32888 2.8202168,-2.88679 3.3160768,-3.81321 0.46436,-0.86758 0.471034,-0.97143 0.07751,-1.19321 -0.3367,-0.18977 -0.400798,-0.51234 -0.292488,-1.47329 0.09344,-0.82898 0.05561,-1.1586 -0.136426,-1.1343 z m 39.673551,4.31447 c -0.7018,-0.008 -3.48592,4.6469 -3.93206,6.66987 -0.199,0.90233 -0.43922,1.98381 -0.53382,2.40348 -0.30576,1.35645 0.46511,0.66332 2.19521,-1.97404 0.89954,-1.37127 1.8152,-2.69233 2.03502,-2.93574 0.34115,-0.37771 0.34452,-0.46377 0.0233,-0.58705 -0.49198,-0.18881 -0.47527,-0.8099 0.0589,-2.20865 0.23881,-0.62657 0.34814,-1.2258 0.24184,-1.3317 -0.0239,-0.0238 -0.0538,-0.0358 -0.0884,-0.0362 z m -33.661515,8.06307 c -0.89935,0.003 -2.904266,3.33494 -2.680456,4.45399 0.089,0.44501 0.03533,1.17216 -0.119373,1.61593 -0.47717,1.36881 0.223135,0.94538 1.858285,-1.12397 1.27559,-1.61432 1.445226,-1.95176 1.112076,-2.20813 -0.40738,-0.31349 -0.280167,-1.54157 0.189653,-1.83193 0.47212,-0.29179 0.227045,-0.90789 -0.360185,-0.90589 z" /></svg>
