<?xml version="1.0" encoding="UTF-8" standalone="no"?>
<svg
   width="94.264496mm"
   height="117.87187mm"
   viewBox="0 0 94.264496 117.87187"
   version="1.1"
   xml:space="preserve"
   xmlns="http://www.w3.org/2000/svg"
   xmlns:svg="http://www.w3.org/2000/svg"><path
     style="fill:#000000"
     d="m 45.859517,115.29218 c -5.067592,-5.16128 -8.485221,-11.24193 -10.211279,-18.167905 -0.854629,-3.42929 -1.109501,-8.66099 -0.558473,-11.46368 0.443695,-2.25675 0.209503,-2.22578 -1.238496,0.16382 -1.153494,1.90358 -1.907905,4.17987 -2.149672,6.48622 -0.213062,2.03252 -0.437553,1.93452 -1.07798,-0.47059 -0.72786,-2.73345 -0.269294,-6.92715 1.079647,-9.87362 0.368821,-0.80561 0.670583,-1.57102 0.670583,-1.70091 0,-0.12989 -0.446484,-0.048 -0.992187,0.18206 -0.983096,0.4144 -4.564062,0.86373 -4.564062,0.57269 0,-0.0832 0.635374,-0.44215 1.411944,-0.79768 2.737765,-1.25339 4.684065,-4.04314 4.652291,-6.66842 -0.02927,-2.41853 -0.297659,-2.54631 -1.341236,-0.63859 -0.680141,1.24334 -1.306052,1.96213 -2.341652,2.68911 -1.58408,1.11201 -2.230823,1.29705 -1.384423,0.39609 1.665459,-1.7728 2.675942,-6.21224 2.191491,-9.62806 -0.897407,-6.32754 -4.638919,-10.33427 -11.197956,-11.99172 -1.131028,-0.28581 -3.631341,-0.64506 -5.556249,-0.79833 -6.0653697,-0.48294 -7.9935287,-1.11577 -10.3121807,-3.38449 -1.432919,-1.40206 -2.12672403,-2.94158 -2.00371803,-4.44617 0.09041,-1.10582 0.21128703,-1.15041 2.03645503,-0.75121 0.572027,0.12511 0.613429,0.0707 0.459118,-0.60352 -0.314423,-1.37375 -0.497927,-3.74483 -0.32475,-4.19612 0.127307,-0.33176 0.38269,-0.0262 0.984444,1.17807 0.520364,1.04134 1.084871,1.76687 1.569885,2.01768 0.416538,0.2154 0.814184,0.39163 0.883657,0.39163 0.06947,0 0.0716,-0.68461 0.0047,-1.52135 l -0.121597,-1.52135 0.633961,1.3416 c 0.642369,1.3594 1.776586,2.49485 2.492131,2.49485 0.286699,0 0.340797,-0.15997 0.201315,-0.59531 -0.104906,-0.32742 -0.249061,-1.01203 -0.320344,-1.52135 -0.125539,-0.89699 -0.09354,-0.87391 1.0197747,0.73566 1.02278,1.47867 1.23681,1.65353 1.943131,1.5875 0.74694,-0.0698 0.798505,-0.14832 0.874392,-1.33098 0.04435,-0.69122 0.163416,-1.25121 0.264584,-1.24442 0.101167,0.007 0.429229,0.51281 0.729025,1.12448 0.421824,0.86064 0.714705,1.1319 1.295173,1.19956 1.951783,0.22749 4.87639,-1.98036 4.935904,-3.72621 0.08142,-2.38851 -0.221639,-3.01401 -2.487107,-5.13324 -1.337272,-1.25096 -5.108437,-3.795685 -5.625015,-3.795685 -0.260702,0 -0.676681,2.306065 -0.539609,2.991425 0.13657,0.68285 0.105145,0.73551 -0.258705,0.43354 -0.718083,-0.59595 -1.173017,-1.76856 -1.173017,-3.023477 0,-1.012717 -0.098,-1.250118 -0.5953127,-1.442074 -0.807462,-0.311671 -1.141994,0.07145 -1.601696,1.834336 l -0.37947,1.455205 -0.346391,-0.79375 c -0.190515,-0.43656 -0.355812,-1.448591 -0.367326,-2.248955 -0.01833,-1.274391 -0.09083,-1.465211 -0.583441,-1.535709 -0.647229,-0.09262 -1.153446,1.005099 -1.153446,2.501232 0,1.252672 -0.371896,1.100672 -1.025752,-0.41926 -0.620404,-1.442169 -0.683261,-2.044295 -0.314624,-3.013885 0.224506,-0.590496 0.129689,-0.722989 -1.03596,-1.447596 -2.01951503,-1.255399 -2.24614703,-1.780929 -2.30085703,-5.335369 -0.02612,-1.696874 -0.231538,-3.816315 -0.462542,-4.772329 -0.660828,-2.734842 0.07174,-6.413853 1.42091303,-7.135907 1.111709,-0.594968 1.840189,-0.289012 9.2750707,3.895471 4.167308,2.345433 10.10284,5.078497 13.918115,6.408708 l 2.408739,0.839816 1.824594,-1.162202 c 3.851634,-2.453355 6.784202,-3.246418 11.296934,-3.055064 2.179674,0.09242 3.171544,0.281331 5.158954,0.982545 2.76697,0.976264 3.23652,0.962438 6.12347,-0.180302 1.47044,-0.582044 2.13803,-1.092996 4.38065,-3.35281 3.10267,-3.126462 5.37577,-6.255979 7.9375,-10.928051 C 65.393197,0.821471 65.970297,0 66.364497,0 c 0.70246,0 1.21847,1.453715 2.26573,6.383064 1.14527,5.390705 1.36538,11.597893 0.55237,15.577351 -0.2973,1.455208 -0.62014,2.919882 -0.71743,3.25483 -0.16257,0.559719 -0.11522,0.594565 0.58516,0.430647 1.56206,-0.365585 6.29513,-2.24577 7.86656,-3.124942 0.8947,-0.500561 2.45762,-1.516066 3.47315,-2.256677 1.01553,-0.740611 1.942,-1.346566 2.05882,-1.346566 0.47268,0 0.45568,0.822051 -0.0661,3.1955 -1.43489,6.527011 -3.88123,11.907108 -6.90653,15.189168 -0.87946,0.9541 -1.06047,1.3162 -0.92594,1.8522 0.28526,1.13658 3.47328,4.26653 5.24999,5.15436 1.71009,0.85455 1.44993,1.00856 -0.86502,0.5121 -0.74481,-0.15974 -1.41643,-0.22819 -1.49249,-0.15213 -0.25175,0.25174 3.90473,3.13719 6.22339,4.32032 1.25383,0.63978 2.73496,1.23604 3.2914,1.32502 0.69853,0.1117 0.92677,0.24671 0.73733,0.43615 -0.3373,0.3373 -3.91242,0.39444 -5.71169,0.0913 l -1.32291,-0.22289 1.19062,1.07753 c 2.74475,2.48402 7.20352,5.20098 10.68009,6.50793 l 1.55544,0.58474 -1.2599,0.17269 c -3.47944,0.47691 -6.75397,0.0384 -8.69446,-1.16433 -0.70988,-0.43999 -1.32407,-0.76564 -1.36486,-0.72367 -0.0408,0.042 0.51481,0.96928 1.23465,2.06069 0.71985,1.0914 2.27471,3.59172 3.45525,5.55625 2.52026,4.19396 4.9459,7.88256 6.22018,9.45885 2.40586,2.97605 -3.05749,-0.56367 -7.75608,-5.0252 -1.03555,-0.9833 -1.95978,-1.78782 -2.05385,-1.78782 -0.0941,0 0.23344,0.80367 0.72778,1.78594 3.06505,6.09026 3.18521,14.36066 0.28899,19.89002 -0.61752,1.17894 -0.6291,1.18636 -0.44457,0.28445 0.1042,-0.50932 0.17772,-2.23572 0.16337,-3.83645 -0.022,-2.45711 -0.14656,-3.27818 -0.79957,-5.27156 -0.42541,-1.29863 -0.90188,-2.40394 -1.05881,-2.45626 -0.17753,-0.0592 -0.34714,0.63602 -0.4489,1.8399 -0.48874,5.78169 -3.68582,12.27248 -8.05444,16.35229 -2.04745,1.91209 -3.00584,2.45 -1.78936,1.00429 0.91624,-1.0889 2.43355,-4.11575 3.21827,-6.4201 0.34286,-1.00683 0.58979,-1.86421 0.54872,-1.90528 -0.10281,-0.10281 -3.40463,2.86324 -5.34204,4.79879 -1.87543,1.87362 -3.38717,4.57392 -4.07334,7.275855 l -0.48332,1.90318 -0.48943,-1.15223 c -0.34625,-0.81513 -0.50992,-1.945665 -0.55946,-3.864355 -0.0385,-1.49167 -0.11915,-2.74183 -0.17921,-2.77812 -0.0601,-0.0363 -0.84462,1.0335 -1.74348,2.37733 -0.89887,1.34382 -2.7888,3.709945 -4.19984,5.258065 -3.59029,3.93907 -4.22102,4.79633 -4.74837,6.45382 l -0.46299,1.45521 -0.0793,-1.67307 c -0.0942,-1.98791 0.3897,-3.82736 1.80459,-6.85974 0.56016,-1.20055 0.92412,-2.182815 0.80878,-2.182815 -0.11533,0 -1.20894,1.041795 -2.43023,2.315105 -3.13462,3.26812 -4.18733,5.66627 -4.21018,9.59114 -0.0107,1.83664 -0.0417,1.94498 -0.41646,1.45521 -0.89712,-1.17243 -3.22394,-6.21854 -3.81259,-8.26823 -0.34478,-1.20054 -0.72373,-2.18281 -0.84211,-2.18281 -0.30059,0 -0.26514,2.96568 0.0601,5.02708 0.38409,2.43444 1.18795,4.76005 2.67506,7.73907 0.70827,1.41882 1.19991,2.57968 1.09253,2.57968 -0.10738,0 -1.33502,-1.16086 -2.72809,-2.57968 z M 36.918855,29.325798 C 36.289911,28.79855 35.407681,27.715742 34.958343,26.919559 l -0.816977,-1.447605 -1.197301,0.164109 c -1.279266,0.175343 -2.358018,0.743761 -2.597904,1.368894 -0.210981,0.549808 0.567784,1.616081 1.567157,2.145725 1.077257,0.570922 3.402145,1.094539 4.958446,1.116755 l 1.190625,0.017 z" /></svg>
