<?xml version="1.0" encoding="UTF-8" standalone="no"?>
<svg
   width="91.501518mm"
   height="67.931396mm"
   viewBox="0 0 91.501518 67.931396"
   version="1.1"
   xml:space="preserve"
   xmlns="http://www.w3.org/2000/svg"
   xmlns:svg="http://www.w3.org/2000/svg"><path
     style="fill:#000000"
     d="m 45.005325,67.14849 c -0.82653,-1.33736 -1.51095,-3.06304 -2.02416,-5.1037 -0.40983,-1.62958 -0.42622,-2.10774 -0.13641,-3.98013 0.32586,-2.10537 0.31914,-2.16456 -0.63091,-5.55625 -1.43884,-5.13673 -1.33614,-7.2433 0.77342,-15.86362 0.39173,-1.60073 0.75099,-2.95376 0.79837,-3.00673 0.0474,-0.053 0.40612,0.15539 0.79721,0.46302 0.94059,0.73987 1.73235,0.70628 2.49533,-0.10589 l 0.62494,-0.66522 0.75406,2.98033 c 1.94295,7.67934 2.312,11.28369 1.4565,14.22511 -1.2199,4.19434 -1.32285,4.71628 -1.25253,6.35 0.14812,3.44116 0.0541,4.6652 -0.4982,6.48229 -0.60754,1.99907 -1.82859,4.40246 -2.31588,4.55837 -0.16585,0.0531 -0.54463,-0.29685 -0.84174,-0.77758 z M 27.843977,60.47422 c -2.013282,-0.45945 -3.51512,-1.11203 -5.539831,-2.40717 -1.587482,-1.01546 -3.539919,-2.92627 -3.539919,-3.46446 0,-0.16427 0.784709,-0.49579 1.743797,-0.73671 2.256289,-0.56676 5.679045,-2.26339 7.857816,-3.89506 3.31446,-2.48217 7.628259,-7.61995 12.08302,-14.391 1.753365,-2.66504 2.744885,-3.80697 2.300875,-2.64991 -0.47256,1.2315 -2.394109,9.00611 -2.716031,10.98914 -0.656979,4.04698 -0.357088,8.37531 0.804451,11.61057 0.22861,0.63676 0.41565,1.29663 0.41565,1.46638 0,0.46849 -3.117351,2.19253 -5.319998,2.9422 -2.460322,0.83737 -5.799733,1.05863 -8.08983,0.53602 z m 30.120398,0.10019 c -2.32785,-0.41515 -7.71473,-2.84132 -7.71473,-3.47459 0,-0.1118 0.32548,-1.12851 0.7233,-2.25936 0.6836,-1.94324 0.72292,-2.31022 0.71631,-6.6863 l -0.007,-4.6302 -1.37554,-5.24718 c -0.75655,-2.88595 -1.45893,-5.38626 -1.56085,-5.55625 -0.10192,-0.16999 0.027,-0.13662 0.28657,0.0742 0.25953,0.21077 1.54448,1.9707 2.85544,3.91095 7.30351,10.80934 12.0263,15.0868 18.80082,17.02796 1.12778,0.32315 2.05052,0.72931 2.05052,0.90256 0,0.52811 -2.5433,2.85187 -4.25797,3.89043 -3.09281,1.87328 -7.10978,2.65546 -10.51688,2.04783 z M 15.986102,50.93246 C 13.585943,50.39629 12.260106,49.85747 9.503811,48.29806 6.053897,46.34621 4.78196,45.93409 2.172218,45.92253 L 0,45.91253 0.165012,45.24723 c 0.568379,-2.29164 2.659576,-5.50478 4.920986,-7.56115 2.206072,-2.00604 6.080613,-4.26083 9.883893,-5.75192 1.723083,-0.67554 6.407096,-2.23497 10.408919,-3.4654 7.372348,-2.26674 10.313239,-3.28096 12.989009,-4.47948 l 1.479634,-0.66274 0.312632,1.69671 c 0.171947,0.93319 0.65112,2.65324 1.06483,3.82234 l 0.75221,2.12564 -2.90707,4.2918 c -7.359708,10.8654 -11.448744,14.50778 -17.617124,15.69278 -2.333578,0.4483 -3.374044,0.44379 -5.466829,-0.0237 z M 26.890917,40.3221 c 1.321456,-0.44228 3.090321,-1.41204 2.908059,-1.5943 -0.05807,-0.0581 -0.568772,0.088 -1.134891,0.32449 -1.408955,0.5887 -4.488044,0.605 -5.577018,0.0295 -1.306612,-0.69049 -1.94159,-1.67652 -1.94159,-3.01501 0,-2.01946 0.898497,-3.20237 3.079473,-4.05426 1.204039,-0.4703 1.19111,-0.66492 -0.03521,-0.53002 -0.894673,0.0984 -2.414383,0.99744 -3.136227,1.8553 -1.010548,1.20097 -1.348297,2.55006 -0.980433,3.91621 0.771673,2.86577 3.608314,4.14228 6.817835,3.06807 z m 42.673308,10.6027 c -0.94589,-0.21217 -2.73182,-0.88211 -3.96875,-1.48876 -1.87961,-0.92185 -2.68484,-1.54136 -4.90299,-3.77213 -1.45972,-1.46801 -3.31836,-3.56209 -4.13032,-4.6535 -2.11869,-2.84787 -6.84169,-9.79375 -6.84169,-10.06173 0,-0.1248 0.35017,-1.27548 0.77816,-2.55707 0.42799,-1.28158 0.85811,-2.94058 0.95581,-3.68667 l 0.17765,-1.35651 3.47596,1.40529 c 1.91178,0.77291 5.67862,2.07436 8.37075,2.8921 15.42903,4.68662 19.90558,6.76034 24.07977,11.15467 1.82011,1.9161 3.38356,4.56917 3.79702,6.44326 l 0.14592,0.66146 -2.30354,0.0187 c -2.62716,0.0213 -3.54421,0.33121 -7.33063,2.47714 -4.35996,2.47099 -8.63178,3.34728 -12.30312,2.52376 z m -1.20388,-10.46781 c 2.2832,-0.57492 3.72043,-3.11723 3.08211,-5.45195 -0.47212,-1.72681 -2.17654,-3.20675 -4.19333,-3.64107 -1.21519,-0.2617 -1.07678,0.23729 0.16938,0.61065 0.60113,0.1801 1.42034,0.74124 1.96942,1.34901 3.39261,3.75521 -1.18607,7.80096 -6.41276,5.66636 -0.49529,-0.20227 -0.94465,-0.32364 -0.99858,-0.26971 -0.36423,0.36422 3.29658,2.00915 4.49391,2.01927 0.40851,0.003 1.25894,-0.1237 1.88985,-0.28256 z m -23.57523,-7.8471 c -1.62704,-1.74927 -3.26672,-6.23437 -3.26672,-8.93561 0,-1.63901 0.0206,-1.68712 1.11274,-2.59429 l 1.11275,-0.92431 -0.50595,-0.9395 c -0.71819,-1.33358 -0.34669,-2.29704 1.06467,-2.76117 2.80307,-0.9218 5.52708,0.84653 4.09959,2.66129 -0.72455,0.92112 -0.68079,1.12261 0.38714,1.78263 1.75403,1.08405 1.80301,3.59399 0.15554,7.97219 -0.66559,1.76884 -2.53067,4.46638 -3.08805,4.46638 -0.21722,0 -0.69949,-0.32742 -1.07171,-0.72761 z m 6.38524,-10.93084 c -0.0987,-0.31111 -0.0784,-0.65904 0.0452,-0.77319 0.1236,-0.11415 2.28506,-1.24349 4.80326,-2.50966 4.22682,-2.12527 5.54189,-2.54775 5.20244,-1.67132 -0.15733,0.40623 -0.51127,0.61286 -5.78861,3.37947 -3.88316,2.03572 -4.09152,2.1127 -4.26228,1.5747 z M 38.581237,21.3426 c -0.640138,-0.33979 -2.741464,-1.42521 -4.669615,-2.41204 -2.622092,-1.34199 -3.505729,-1.91985 -3.505729,-2.29261 0,-0.2741 0.153883,-0.49837 0.341963,-0.49837 0.18808,0 2.50003,1.10382 5.137668,2.45293 4.161056,2.12832 4.761821,2.51347 4.539681,2.91042 -0.329898,0.58949 -0.451279,0.57894 -1.843968,-0.16033 z m 2.599748,-7.26126 C 40.275155,13.24035 38.238878,11.78184 36.65593,10.8402 32.03793,8.09311 30.163946,5.52148 30.468723,2.34962 30.614496,0.83252 31.251522,0 32.266586,0 c 1.09282,0 1.383766,0.54258 1.177255,2.19543 -0.310283,2.48342 0.913156,4.0791 5.792314,7.55467 3.54352,2.52415 5.53881,5.20322 4.24497,5.69972 -0.23018,0.0883 -0.47131,0.1606 -0.53584,0.1606 -0.0645,0 -0.85846,-0.68809 -1.7643,-1.52908 z m 6.70414,1.15236 c -0.24507,-0.29529 -0.1999,-0.5955 0.209,-1.38906 0.59793,-1.16039 1.6661,-2.20579 3.74302,-3.66322 2.86684,-2.01174 4.79975,-3.69836 5.5685,-4.85896 0.65629,-0.99082 0.7815,-1.44465 0.7815,-2.83264 0,-0.90904 0.0723,-1.84112 0.1606,-2.07131 0.16692,-0.43499 1.31713,-0.56432 1.87336,-0.21064 0.50017,0.31804 0.87667,1.57533 0.87387,2.91821 -0.006,2.80027 -2.06261,5.28864 -6.6012,7.98642 -1.34649,0.80036 -3.19793,2.13982 -4.11432,2.97656 -1.781,1.62622 -2.00815,1.73046 -2.49433,1.14464 z"/></svg>
