<?xml version="1.0" encoding="UTF-8" standalone="no"?>
<svg
   width="91.181648mm"
   height="91.078873mm"
   viewBox="0 0 91.181648 91.078873"
   version="1.1"
   xml:space="preserve"
   xmlns="http://www.w3.org/2000/svg"
   xmlns:svg="http://www.w3.org/2000/svg"><path
     style="stroke-width:0.384849"
     d="m 34.245176,2.147618e-5 c -0.395584,-7.2e-4 -0.765405,0.01670000382 -1.013891,0.05270000382 -0.893334,0.12954 -1.078814,0.3053 -16.33337,15.45021952 -8.486411,8.42542 -15.739385,15.73189 -16.11787902,16.23673 -0.839605,1.11989 -1.023483,3.00399 -0.443901,4.54856 v 5.2e-4 c 0.389719,1.03845 1.67541602,2.35703 26.88208002,27.56369 25.37342,25.37343 26.519,26.48965 27.56834,26.87484 1.27432,0.46755 2.86991,0.46897 3.90157,0.003 0.49162,-0.22204 5.77798,-5.38007 16.39228,-15.99437 l 15.66675,-15.66674 0.30902,-1.38131 c 0.18613,-0.8314 0.16353,-1.81401 -0.0568,-2.46859 -0.35648,-1.05878 -1.07821,-1.7996 -27.33632,-28.05771 L 36.693089,0.19174148 35.414097,0.05686148 C 35.062391,0.01966148 34.64076,7.6147618e-4 34.245176,6.147618e-5 Z M 34.979498,2.1161715 c 0.609484,0.2122 3.905637,3.64742 3.903637,4.06848 -7.5e-4,0.17127 -0.43823,0.80029 -0.97255,1.39785 l -0.97152,1.08675 23.011,23.1060895 23.011,23.10608 1.00717,-1.00666 c 0.61305,-0.61305 1.18581,-0.99018 1.46503,-0.96428 0.2522,0.0234 1.17127,0.73484 2.04225,1.58078 1.8793,1.82518 1.92166,2.1861 0.43202,3.67575 -1.29724,1.29723 -1.63756,1.23322 -3.37447,-0.63252 -0.84183,-0.90426 -1.65895,-1.58415 -2.03709,-1.69551 -0.80828,-0.23803 -46.337098,-45.69704 -46.492766,-46.4214495 -0.0546,-0.2541 -0.911362,-1.2775 -1.904794,-2.27376 -0.99327,-0.99642 -1.888183,-1.99586 -1.988509,-2.22106 -0.278941,-0.62635 2.1916,-3.04259 2.869592,-2.80654 z m -0.0987,1.12706 -0.685746,0.56586 c -0.377189,0.31124 -0.75893,0.72963 -0.84801,0.92965 -0.119387,0.26808 0.211549,0.73711 1.257804,1.78336 l 1.419035,1.41903 0.831476,-0.94568 0.83199,-0.94567 -1.403533,-1.40302 z M 27.812496,14.845101 c 0.365488,0.0273 0.729947,0.0911 1.088822,0.19224 1.276761,0.35969 1.394609,0.45694 5.991366,4.93872 l 4.689123,4.57181 -1.49604,1.49603 c -1.642592,1.6426 -1.621362,1.63976 -3.00033,0.38086 -2.060228,-1.88088 -5.848321,-1.77205 -8.658903,0.24908 -3.02373,2.17439 -3.27835,7.68016 -0.484725,10.47378 l 0.534334,0.53433 -1.78232,1.67484 -1.78232,1.67431 -4.243668,-4.17545 c -3.263264,-3.21141 -4.386634,-4.44599 -4.865853,-5.34593 -0.831418,-1.56134 -0.822999,-3.67912 0.02067,-5.09065 0.805368,-1.34746 9.569392,-10.15519 10.79314,-10.84688 0.994039,-0.56185 2.100241,-0.80907 3.196704,-0.72709 z m 3.417363,12.78062 c 0.937817,0.0581 1.828843,0.41768 2.476851,1.04076 0.761406,0.73216 0.774278,0.80045 0.268201,1.41542 -0.416725,0.50639 -0.780123,0.6377 -1.681035,0.6072 -0.955145,-0.0323 -1.282399,0.0982 -1.937866,0.77204 -0.621428,0.63882 -0.792349,1.05738 -0.806669,1.97404 -0.01244,0.79651 -0.203546,1.3487 -0.606165,1.75132 -0.726157,0.72616 -0.853142,0.68893 -1.669148,-0.49351 -1.739884,-2.52122 -0.643085,-5.83968 2.25981,-6.83783 0.554018,-0.19049 1.13333,-0.26432 1.696021,-0.22944 z m 13.362488,4.17546 c 0.844,0.004 1.67714,0.0841 2.47996,0.24597 0.34887,0.0702 0.59135,0.0794 0.71571,0.22273 0.27406,0.31539 -0.0217,1.27907 -0.9989,4.96559 -1.35575,5.11549 -1.13943,4.66993 -2.24999,4.63537 -0.95654,-0.0302 -2.35574,0.41218 -2.85564,0.90228 -0.32385,0.31729 -0.32344,0.31736 -3.88504,-3.24425 -3.562172,-3.56217 -3.562183,-3.56191 -3.165695,-3.9486 2.444545,-2.38351 6.302265,-3.79619 9.959595,-3.77909 z m -40.275058,2.12338 c 0.333889,0.0604 0.642268,0.25601 0.777731,0.56017 0.24597,0.55229 -0.187537,1.28463 -0.885734,1.49603 -1.084735,0.32843 -1.670262,-0.95696 -0.822172,-1.80505 0.236856,-0.23686 0.596286,-0.31151 0.930175,-0.25115 z m 53.502158,8.83564 c 0.21294,0.008 0.35969,0.0602 0.46406,0.15916 0.25062,0.23757 0.2587,0.74535 0.36483,1.57045 0.50644,3.94287 -0.56491,7.62145 -3.15639,10.83448 -0.84768,1.05069 -0.84785,1.05076 -4.42661,-2.52801 -3.57877,-3.57876 -3.57833,-3.57853 -3.2613,-3.90209 0.4904,-0.50016 0.93248,-1.89911 0.90227,-2.85564 -0.0338,-1.10484 -0.51895,-0.8716 4.73667,-2.2717 2.49998,-0.66556 3.73766,-1.03203 4.37647,-1.00665 z m -13.47514,0.56172 c 0.24885,-0.002 0.50638,0.0276 0.76946,0.0915 0.44574,0.10465 0.8575,0.32093 1.19631,0.6289 1.37997,1.26132 1.23164,3.81706 -0.72089,4.62556 -1.76801,0.73175 -3.56721,-0.15197 -3.92017,-1.92598 -0.37146,-1.86682 0.9333,-3.40657 2.67529,-3.41995 z m -4.26279,4.00182 c 0.0228,-0.002 0.30668,0.44123 0.62942,0.98495 0.50616,0.85339 0.7227,1.0693 1.56889,1.5658 0.53855,0.31703 0.97718,0.59497 0.97255,0.61702 -0.57664,2.95559 -2.60717,9.46771 -2.9378,9.42009 -2.1803,-0.31241 -6.778343,-3.79611 -8.083746,-6.12417 -0.717872,-1.28118 -1.49123,-3.01295 -1.565796,-3.50986 -0.05116,-0.34017 7.781532,-2.79763 9.416482,-2.95383 z m 26.41751,4.37545 4.2261,4.12584 c 4.69316,4.58127 5.26254,5.35 5.38778,7.27811 0.15913,2.4499 -0.0935,2.81783 -5.92935,8.66355 -4.27161,4.27838 -5.36771,5.27352 -6.17585,5.60535 -1.25734,0.51627 -2.39628,0.5506 -3.84111,0.11679 v 5.1e-4 c -1.08626,-0.32618 -1.40246,-0.59683 -5.61,-4.80436 -2.45223,-2.45223 -4.45843,-4.5288 -4.45864,-4.6147 -2e-4,-0.0859 0.73331,-0.8904 1.63039,-1.78749 l 1.63143,-1.63091 1.11362,0.8661 c 3.04307,2.36712 7.49352,1.8522 9.8578,-1.1405 2.09195,-2.64801 2.11237,-6.14651 0.0512,-8.83822 l -0.84181,-1.09864 1.4795,-1.37046 z m 18.99987,2.47116 c -0.26966,0.0201 -0.52921,0.199 -0.84594,0.51573 l -0.73432,0.73484 0.81545,0.9617 c 1.50543,1.77568 1.50026,1.77396 2.43809,0.83613 l 0.84181,-0.84233 -0.76791,-0.88573 c -0.81986,-0.94604 -1.29774,-1.35382 -1.74718,-1.32034 z m -23.84454,2.58434 c 0.18708,0.0375 0.39069,0.23719 0.7674,0.62994 0.84701,0.88318 1.1251,1.94148 0.9064,3.44888 -0.10448,0.72021 -0.40878,1.18083 -1.50792,2.27997 -1.27429,1.27429 -1.46303,1.37931 -2.52853,1.40611 -0.63333,0.0159 -1.49778,-0.0797 -1.92081,-0.21239 -0.42302,-0.13269 -1.06773,-0.54012 -1.43299,-0.90537 -0.61882,-0.61878 -0.62464,-0.70397 -0.0811,-1.24747 0.38603,-0.38603 1.00479,-0.61054 1.82883,-0.66404 1.09765,-0.0713 1.33295,-0.19103 1.98541,-1.00924 0.51872,-0.65051 0.72923,-1.21574 0.70383,-1.88929 -0.0273,-0.72353 0.12405,-1.09294 0.61185,-1.49448 0.3101,-0.25523 0.48058,-0.38008 0.66766,-0.34262 z m -5.32422,29.18117 c 0.33415,0.0626 0.64304,0.26214 0.78083,0.57154 0.24559,0.55143 -0.36845,1.5226 -0.99994,1.5813 -1.05311,0.0979 -1.50577,-1.10956 -0.71313,-1.90221 0.23886,-0.23886 0.59809,-0.31321 0.93224,-0.25063 z" /></svg>
