<svg id="Layer_1" data-name="Layer 1" xmlns="http://www.w3.org/2000/svg" viewBox="0 0 610 232">
  <g id="_5E3RR2.tif" data-name="5E3RR2.tif">
    <g>
      <path class="cls-1" d="m569.27,3.48c6.34-.6,12.35-.98,17.2,3.57,2.02,1.9,5.19,4.48,5,6.48-.73,7.49,8.03,12.49,4.77,20.43-1.23,3-1.59,6.35-2.5,10.25,5.1.24,10.93-.29,13,5.04,1.41,3.64,1.65,8.19.9,12.04-.54,2.8-3.05,5.99-5.59,7.43-2.47,1.39-6.09.76-9.53,1.05v50.62c5.31.14,11.88-.66,14.49,5.35,1.53,3.53,1.48,8.24.73,12.15-1.56,8.13-8.32,8.04-15.57,7.39,0,7.03-.31,13.61.1,20.16.29,4.6-1.99,6.6-5.85,6.84-5.74.36-11.51.09-17.98.09,0,2.35,0,5.42,0,8.5-.02,7.15-.02,7.21-7.41,7.12-19.13-.25-38.26-.64-57.39-.78-5.4-.04-10.81.62-16.72.99.94-5.69-2.53-6.26-6.05-8.18-8.5-4.64-17.54-3.94-26.4-4.14-12.43-.28-24.88.57-37.32.96-.78.02-1.87,0-2.3.47-6.68,7.41-15.13,4.4-23.12,3.97-.62-.03-1.38-.28-1.81-.7-5.45-5.24-11.68-5.52-18.43-3.1-.89.32-1.98.17-2.97.09-7.19-.58-14.52-2.34-21.53-1.48-6.96.85-13.53.64-20.39-.16-7.16-.84-12.92,1.72-13.97,11.87-1.43.07-2.9.19-4.37.2-6.44.08-7.27.84-7.32,7.46-.07,7.47,0,14.93-.02,22.4-.01,8.67-2.57,11.28-11.32,11.28-51,.02-102,0-152.99,0-13.5,0-27,.03-40.5,0-9.1-.02-11.48-2.41-11.49-11.6-.02-14.93.03-29.87.05-44.8,0-1.78,0-3.56,0-5.62-3.46-.33-6.37-.6-8.24-.78-1.4,2.81-2.54,5.11-4.11,8.26-5.67-6.08-10.49-11.25-15.51-16.63,1.02-1.1,1.87-2.05,2.77-2.95,2.88-2.92,3.35-8.42.81-11.72-2.43-3.15-5.63-5.85-7.48-9.29-4.67-8.7-13.35-8.06-19.55-5.78-6.17,2.27-11.87,2.21-17.72,2.01-4.27-.14-8.48-2.33-13.03-3.7v-12.55c2.43-.18,4.54-.34,7.1-.53v-35.94c-2.11-.2-4.38-.42-7.05-.67v-12.79c2.39-.18,4.52-.33,7.46-.55,0-1.55,0-3.12,0-4.7.01-11.62.1-23.23,0-34.85-.04-4.4,1.89-6.57,6.25-6.16,8.27.77,16.52,1.72,24.81,2.6.05.94-2.34,3.12-8.59,7.53,2.17,2.27,4.31,4.51,7.01,7.34-12.05,6.9-7.13,18-7.85,28.18h29.49c0-7.45,0-14.69,0-21.93,0-6.64-.26-13.3.23-19.9.14-1.88,2.44-5.07,3.83-5.11,5.25-.18,11.5-2.99,15.12,3.92.44.85,2.64,1.09,4.02,1.1,18.17.06,36.33.07,54.5-.03,1.48,0,3.84-.45,4.28-1.39,2.91-6.22,8.19-3.97,12.63-3.44,1.3.16,3.1,3.2,3.2,5.01.38,6.75.15,13.54.15,21.89,6.59-1.13,12.54-1.9,18.37-3.21,8.11-1.82,16.1-4.16,24.19-6.02,1.58-.36,3.44.44,5.16.71-1.55.91-3,2.22-4.68,2.67-7.82,2.11-15.7,3.99-21.97,5.56.18,6.51.39,12.14.46,17.78.08,5.92.02,11.83.02,17.98h7.33c2.11-6.12,4.2-12.25,6.36-18.34.26-.73.77-1.71,1.39-1.93,7.05-2.52,12.47-9.08,21.43-7.13,5.56,1.21,11.61.16,17.44.1.29,0,.58-.25,1.37-.62,0-3.87.63-8.12-.27-12.01-.44-1.92-3.52-4.04-5.76-4.56-3.32-.78-6.95-.25-10.45-.24-3.01,0-4.56-1.12-4.41-4.46.22-4.97.19-9.96.03-14.93-.09-3.06,1.26-4.31,4.14-4.04,8.36.8,16.71,1.98,25.09,2.42,7.43.39,14.9-.09,22.35-.04,2.95.02,5.9.64,8.85.65,17.17.07,34.33.03,51.5.03,25.75,0,51.49,0,77.24,0,27.24,0,54.48,0,81.73,0,23.75,0,47.49,0,71.24,0q10.66,0,11.92-10.43Zm-270.08,46.99c0-3.18-.13-5.65.03-8.11.34-5.44,2.39-7.37,7.75-7.39,8.83-.03,17.66-.03,26.49,0,1.31,0,3.5-.16,3.78.44,1.65,3.61,4.73,2.35,7.27,2.35,56.66.06,113.31.1,169.97,0,11.57-.02,23.15-.61,34.72-1.02,6.39-.23,6.88.14,6.89,6.32,0,9.29,0,18.58,0,27.87,0,4.91,0,9.82,0,14.87h12.54v-15.66c-5.72-1.78-10.18-5.77-9.59-13.63.45-5.95,1.8-10.09,7.7-12.16.9-.32,1.84-1.72,1.99-2.73.31-2.11-.16-4.34.15-6.45.75-5.05-1.15-6.33-6.26-6.33-102.65.16-205.3.12-307.94.12-1.78,0-3.55,0-5.61,0v16.63c6.55.35,13.02,1.03,19.47.94,5.69-.08,11.39-.91,17.06-1.63,2.98-.38,6.39,1.93,6.39,5,0,7.11-.2,14.21-.28,21.32-.04,3.89,0,7.78,0,11.67.48-.02.95-.04,1.43-.07,0-8.91.19-17.83-.09-26.74-.13-4.08.69-6.51,6.15-5.64Zm-144-7.31c2.49-11.03,1.42-12.43-8.82-12.43-16.16,0-32.31,0-48.47,0-9.16,0-18.32-.02-27.48.02-2.58.01-5.38.22-5.43,3.66-.13,9.57-.04,19.14-.04,29.2,6.31-.84,11.98-1.59,18.16-2.41,0-3.69-.09-7.3.02-10.91.17-5.59,3.87-10.12,8.81-11.27,3.94-.92,7.8-2.19,11.77-2.97,1.48-.29,3.4-.04,4.7.69,5.98,3.35,13.09,3.45,18.39,1.31,8.03-3.24,14.37,1.64,21.53,1.61,2.23-.01,4.47,2.21,6.87,3.5Zm67.79,116.16c0-1.73,0-2.86,0-4,0-9.22-5.12-13.88-14.08-15.27-4.8-.75-9.18-4.22-13.72-6.52-.36-.18-.53-.82-.71-1.28-1.94-4.79-4.75-9.45-5.56-14.43-.96-5.93-4.25-4.41-7.72-4.26v45.76h41.78Zm335.71,1.28c.19-.59.38-1.18.57-1.77-3.4-1.28-6.74-3.43-10.21-3.67-12.04-.85-24.12-1.37-36.18-1.42-39.32-.16-78.63-.06-117.95-.06-2.11,0-4.21,0-6.82,0,.17,2.44.28,4.06.43,6.34,1.77-1.16,2.71-1.78,3.66-2.4,3.34-2.16,15.1-2.34,17.58.31,2.38,2.53,4.98,2.7,8.02,2.7,45.31-.04,90.63-.03,135.94-.03,1.65,0,3.3,0,4.95,0Zm-220.48-81.61h181.42v-4.93c-.72-.18-1.2-.41-1.67-.39-44.79,1.24-89.62-2.27-134.42,1.78-14.95,1.35-30.3,1.79-45.33-2.91v6.46Zm-306.58-1.36c0,11.35.03,22.11-.02,32.86-.01,3.14,1.46,3.6,4.53,2.45v-22.17h22.8c.71-4.87,1.29-8.93,1.9-13.14h-29.21Zm466.39,40.22c-3.86-4.14-7.71-5.41-12.56-5.35-18.63.24-37.27.22-55.91,0-4.29-.05-7.14,1.28-9.31,5.35h77.78Zm-204.65.74l-1.4-.15c-.24,1.27-.64,2.53-.67,3.8-.09,3.81-.14,7.63,0,11.44.1,2.7-.53,4.46-3.61,4.78-4.92.51-9.8,1.39-14.73,1.8-4.22.35-9.82,5.17-10.85,10.07h36.8v-8.76c-1.81-.24-3.4-.44-5.55-.72v-22.27Zm275,1.38v-14.01h-12.25c0,11.35-.03,22.39.06,33.43,0,.83.63,1.94,1.31,2.44,3.26,2.37,6.64,4.58,9.97,6.85.39-.34.77-.68,1.16-1.02-4.2-3.96-9.91-6.22-9.69-13.81.27-9.45,3.75-11.86,9.44-13.88Zm-159.19-5.21c-.23-.6-.47-1.19-.7-1.79h-70.16v5.63c6.71-.88,13.22-2.48,19.73-2.43,14.22.1,28.42,1.23,42.64,1.49,2.81.05,5.66-1.88,8.49-2.89Zm-343.88,9.41c-.09-3.55-3.27-6.64-6.8-6.61-3.39.03-6.74,3.34-6.79,6.71-.05,3.7,3.33,6.92,7.09,6.74,3.62-.17,6.59-3.28,6.5-6.84Zm-6.8-22.62c.02-.74.05-1.48.07-2.23-1.94-1.33-3.9-3.71-5.81-3.68-1.64.03-4.42,2.77-4.5,4.41-.08,1.6,2.53,4.55,4.16,4.69,1.92.17,4.05-2.03,6.09-3.2Zm18.72,49.1c-3.26-2.26-5.2-4.65-6.88-4.48-1.74.18-4.24,2.63-4.6,4.45-.56,2.84,1.54,5.35,4.75,4.7,1.96-.4,3.59-2.41,6.72-4.67Zm410.07,20.01h-14.72c3.25,1.94,5.38,3.47,7.74,4.51,1.55.69,3.94,1.44,5,.74,1.18-.78,1.28-3.18,1.97-5.26Z"/>
    </g>
  </g>
</svg>