<svg id="Layer_1" data-name="Layer 1" xmlns="http://www.w3.org/2000/svg" viewBox="0 0 587 224.83">
  <g id="ctN1gB.tif">
    <g>
      <path class="cls-1" d="m233.96,136.43V3.07h30.35v133.4h5.62c.25-5.09.51-10.2.76-15.31.54-.01,1.08-.03,1.62-.04,3.77,4.46.17,10.34,2.44,15.65,6.3,0,12.83,0,19.37,0,1.25,0,2.6-.18,3.71.22.82.3,1.82,1.41,1.84,2.19.02.63-1.22,1.74-2.03,1.87-2.76.42-5.57.51-8.4,1.36,1.57.08,3.13.24,4.7.24,9.86.02,19.73-.16,29.58.09,3.65.1,5.33-1.22,6.31-4.57,1.18-4.02,2.71-7.95,4.28-11.84,2.01-4.96,6.39-6.08,11.5-4.61,10.27,2.94,20.74,5.24,31.17,7.61.95.22,2.46-.69,3.28-1.51,3.4-3.4,6.7-3.94,9.94-1.37,2.85,2.26,3.44,6.31,1.35,9.21-2.38,3.3-5.85,3.8-9.94,1.52-1.05-.58-2.21-1.18-3.37-1.3-9.34-.94-18.69-1.76-28.45-2.66v9.11c1.24.1,2.59.29,3.94.29,29.27.02,58.54.03,87.81-.02,1.94,0,4.34.93,5.29-2.37.16-.56,6.14-.58,6.41.21,1.16,3.31,3.56,2.14,5.42,2.15,27.08.09,54.16.19,81.24-.04,4.84-.04,6.55,1.38,5.95,6.1-.31,2.46-.24,5.01.04,7.48.51,4.44-1.07,5.94-5.71,5.9-26.77-.2-53.53-.1-80.3-.1-1.85,0-3.7,0-5.55,0l-.02,1.27h90.57c1.64,5.62,3.03,10.37,4.52,15.5h3.86c.11-1.95.1-3.8.35-5.61.17-1.19.4-2.61,1.15-3.43,2.63-2.86,5.25-5.85,8.38-8.11,1.88-1.36,4.69-1.44,7.05-2.09.42,1.36.65,1.79.68,2.23q.63,8.43,9.15,10.34c3.42.76,6.9,8.7,4.55,11.41-1.75,2.02-3.23,4.1-6.52,5.46-9.32,3.84-18.73,1.6-28,2.69-1.9.22-3.99-.38-4.59,2.68-.16.79-3.13,1.45-4.81,1.46-23.64.09-47.27.05-70.91.04-5.08,0-10.15,0-15.23,0,0,.7.01,1.4.02,2.11h91.17c0,6.21.22,11.61-.22,16.96-.07.88-3.06,2.16-4.7,2.17-22.7.14-45.39.09-68.09.08-4.38,0-8.77-.11-13.15.05-2.35.09-5.22-1.14-6.59,2.57-.22.6-4.34.03-6.56-.43-1.51-.31-2.85-2.03-4.27-2.03-51.81-.12-103.62-.16-155.43.01-3.62.01-8-.77-10.73,3.44-.49.76-2.96.31-4.52.31-57.6-.03-115.21-.08-172.81-.07-2.92,0-5.86.46-8.75.9-4.82.74-5.96-.07-6.03-4.88-.09-6.24.04-12.49-.14-18.73-.18-6.2-1.78-8.03-7.56-8.86.27,2.23.64,4.33.76,6.45.24,4.21-2,6.75-5.85,6.83-3.97.08-6.1-2.16-5.95-6.6.09-2.78.53-5.54.94-9.68-8.13.43-15.91.21-23.46,1.42-6.7,1.07-13.18,3.6-19.69,5.72-10.45,3.4-19.99-4.07-18.91-14.96.47-4.77,3.33-7.9,7.18-10.36,1.02-.65,2.51-1.2,2.87-2.14,4.63-12.21,14.39-20.69,22.35-30.41,10.67-13.04,21.85-25.68,33.04-38.29,4.21-4.75,9.04-8.78,15.91-9.54,3.08-.34,8.48,3.22,7.61,6.14-1.14,3.84-2.48,8.22-5.2,10.9-18.79,18.55-37.97,36.72-57.02,55.01-.68.65-1.4,1.26-2.01,1.96-3.5,4.05-2.47,8.48,2.64,9.2,10.33,1.47,20.75,2.34,31.14,3.37,3.44.34,5.33-.95,5.73-4.85.53-5.11,3.36-9.63,8.26-11.07,6.14-1.8,6.56-6.63,7.15-11.12,1.08-8.17.74-7.9,8.69-7.79,18.78.26,37.57.35,56.35.22,14.36-.09,28.71-.8,43.06-.88,9.65-.06,19.32.86,28.96.62,4.35-.11,8.65-1.97,13.43-3.15Zm211.2,26.7c0-.24,0-.48,0-.72h-95.36c0,.24,0,.48,0,.72h95.36Zm-125.4-.03c0-.27,0-.53,0-.8h-36.02c0,.27,0,.53,0,.8h36.02Zm-238.98.77c-5.03.9-6.21,4.13-6.41,8.35,8.09-1.09,8.43-1.53,6.41-8.35Z"/>
    </g>
  </g>
</svg>