<?xml version="1.0" encoding="utf-8"?>
<svg version="1.1" id="Layer_1" xmlns="http://www.w3.org/2000/svg" xmlns:xlink="http://www.w3.org/1999/xlink" x="0px" y="0px"
	 viewBox="0 0 698 456" style="enable-background:new 0 0 698 456;" xml:space="preserve">
<g id="dvYj5n.tif">
	<g>
		<path d="M488.8,105.9c-1.3,7.4-1.6,7.6-10.5,7.5c0.3,7.5,0.4,15,1.1,22.5c0.7,7.3-3.1,11.4-8.6,15.2c-4.1,2.8-6.1,6.9-7.3,12.4
			c-1.4,6.1-5,13.4-9.9,16.7c-12.8,8.4-26.8,14.8-43,14.7c-4.2,0-8.5,3.2-12.6,5.2c-5.4,2.6-6.2,7.3-6.4,12.8
			c-0.3,10.1-0.5,20.3-2.3,30.1c-2,11.1-7,21.4-14.3,30.3c-2.1,2.6-4.5,5-6.5,7.6c-4,5.3-10.3,6.5-15.9,8.9c-9.8,4.2-20.4,5-31,5.2
			c-6.4,0.1-12.6,0.6-17.8,5.6c-6.6,6.4-9.6,14.2-10.4,23c-0.4,4.8,0,9.6-0.7,14.3c-0.4,2.4-2.3,5.5-4.3,6.4c-2.9,1.3-4.7-1-5.9-4.3
			c-5.9-16.8-1.9-31.6,8.5-45.3c0.9-1.2,2-2.3,3-3.5c0.2-0.2,0.2-0.6,0.4-1.2c-2.9-0.8-5.8-2.2-8.7-2.3c-9.7-0.1-16.9-6.1-24.3-10.8
			c-4.7-2.9-8.2-8.8-10.7-14.1c-7.4-15.3-13.6-31.1-21.3-46.2c-1.7-3.4-7.4-6.1-11.5-6.5c-7.4-0.7-15.3-0.5-22.4,1.4
			c-6.8,1.8-13.6,5.4-19.2,9.8c-14,10.7-20.9,26.4-27,42.3c-2,5.2-3.8,10.4-5.3,15.8c-1,3.7-1.8,7.7-1.7,11.5
			c0.4,23.8,0.5,47.6,2,71.3c1.1,17.6,3.9,35.2,6.8,52.7c1.4,8.5-3.1,13.1-10.6,13.5c-13.8,0.9-27.7,1.3-41.5,2
			c-1.6,0.1-3.2,0.3-4.8,0.5c0,0.5-0.1,1-0.1,1.5c4.7,0.9,9.3,1.9,14,2.8c0,0.6,0,1.1,0,1.7c-5.3,1.4-10.6,2.8-16,4.2
			c-0.4,2.3-0.8,4.6-1.2,6.9c-11.3,3.8-15.5,1.8-16-7.6c-5.3-0.9-10.7-1.7-16-2.6c0-0.7,0-1.4,0-2c4.6-0.7,9.2-1.5,13.8-2.2
			c0-0.5-0.1-0.9-0.2-1.4c-1.6-0.1-3.2-0.2-4.8-0.2c-12,0-24,0.4-35.9-0.1c-6-0.2-12.1-1.5-17.9-3.1c-1.7-0.5-3.8-3.8-3.7-5.7
			c1.1-24.6,2-49.2,4.1-73.7c1.9-21.6,7.7-42.6,14.8-63.1c5.6-16.3,10.2-33.1,17.9-48.3c8.7-17.3,20.6-32.9,30.9-49.4
			c5.9-9.5,11.8-19.1,16.6-29.2c1.6-3.3,0.7-8.5-0.7-12.3c-3.4-8.9-2.4-17.2,2.8-24.6c2.1-3,5.8-5.3,9.3-6.8
			c5.3-2.3,7.3-7.2,10.7-11.1c6.8-7.9,13.3-16,20.7-23.2c4.3-4.2,10-7,14.9-10.6c1.5-1.1,2.7-2.6,4.1-4c-5.4-4.6-6.9-10.6-4.5-16.5
			c1.4-3.5,10.7-6.6,14.9-4.7c3.5,1.5,6.8,3.6,10.4,5c1.6,0.6,3.7,0.5,5.4,0.2c8.3-1.6,16.5-3.6,24.8-5c1.4-0.2,3.1,1.8,5.6,3.4
			c1.2-1.2,3.1-2.7,4.5-4.6c4.9-6,7.7-6.3,13.6-1.3c0.4,0.3,0.9,0.3,2.6,0.9c1.5-4.6,3-9.1,4.4-13.6c1.9-6.3,3.7-12.7,5.9-18.9
			c0.4-1.1,2.7-1.9,4.2-2c3.6-0.3,7.2,0.1,10.8-0.1c3.4-0.2,5.9,0.2,7,4.1c0.3,1,2.8,1.9,4.4,1.9c41.9,0.1,83.9,0,125.8,0
			c28.9,0,57.8,0,86.8-0.1c3.9,0,6.4,0.6,5.9,5.2c-0.4,4.1,2.5,3.6,5.1,3.6c41.1,0,82.1,0.1,123.2,0.1c20.4,0,40.7,0.2,61.1-0.1
			c4,0,6.2,1.5,6.9,5c1.2,6.6,3,13.4,2.9,20.1c-0.1,14.8-0.7,29.7-2.2,44.5c-0.7,7.5-3.4,10.9-11.5,10.9
			c-59.9,0.2-119.8,0.8-179.7,1.2C492.5,105.7,490.7,105.8,488.8,105.9L488.8,105.9z M258.1,213.6c-0.5-0.1-0.9-0.3-1.4-0.4
			c-1,2.4-2.8,4.9-3,7.4c-1.1,19.6,0.6,38.4,17.4,51.9c4.4,3.5,9.3,7.6,14.6,8.7c10.2,2.2,20.8,2.5,31.3,3.4c3.2,0.3,6.5,0.4,9.7,0
			c5.5-0.7,11.5-0.7,16.3-3.1c14.7-7.3,24.3-19.9,27.7-35.5c2.8-12.6,1.8-26-8.1-36.3c-5.3-5.6-11.1-11.4-19.6-11.4
			c-15.4-0.1-30.8,0-46.2,0.3c-8.6,0.2-10.4,1.9-12.7,10c-0.5,1.8-0.8,3.6-1.5,5.4c-4.7,13.3-4.6,26.2,4.5,37.8
			c3.5,4.5,7.9,8.4,11.8,12.6c1.1,1.2,1.9,2.7,3.3,4.6c-7.4,1.2-13.1-1.3-17.8-4.6c-6.3-4.5-10-11.3-12.9-18.5
			C267.4,234.9,262.7,224.3,258.1,213.6L258.1,213.6z M109.1,144.2c3.1,3.1,7.7,3.1,11.2,0c3.6-3.2,4-11.7,0.7-15
			c-2.1-2.1-11.2-0.2-14.8,3.1C103.6,134.7,104.8,139.8,109.1,144.2L109.1,144.2z"/>
	</g>
</g>
</svg>
