<?xml version="1.0" encoding="utf-8"?>
<svg version="1.1" id="Layer_1" xmlns="http://www.w3.org/2000/svg" xmlns:xlink="http://www.w3.org/1999/xlink" x="0px" y="0px"
	 viewBox="0 0 722 374" style="enable-background:new 0 0 722 374;" xml:space="preserve">
<g id="OMVxrw.tif">
	<g>
		<path d="M19.4,363.1c1.3-5.1,2.4-9.8,3.7-14.4c1.8-6.4,3.8-12.8,5.7-19.2c3.6-12.3,6.9-24.7,11-36.8c4.6-13.6,9.2-27.2,14.9-40.3
			c5.7-13.2,12.7-25.8,19.1-38.7C83.2,195,97,179,107.6,160.9c4.1-7,8.1-14.1,8.1-22.8c0-7.1,1.1-14.2,1.3-21.3
			c0.1-4.6,2.6-7.3,6.5-8.6c7.8-2.6,15.7-4.8,23.5-7.3c5.1-1.7,10.1-3.8,15.2-5.8c-1.6-4.8-4.8-7-9-7.6
			c-11.3-1.6-20.1,2.6-26.7,11.8c-0.9,1.2-1.9,2.3-2.9,3.5c-0.4-0.1-0.8-0.1-1.2-0.2c0-1.4-0.6-3,0-4.1c5.3-9.2,13.5-13.9,23.9-15.4
			c2.8-0.4,6.1-0.7,8.3-2.3c4.6-3.2,5.7-10.3,3-16.2c-1.6-3.6-3.5-7-5.3-10.6c4.1-4.1,8.1-8.3,12.4-12.3c3.3-3.1,4.7,0.7,6.5,2.1
			c2.2,1.7,0.8,3-0.7,4.2c-0.8,0.7-1.6,1.5-2.3,2.4c-2.3,2.7-1.3,5,1.4,7.2c3.6,2.9,6.6,6.6,9.6,10.2c1.9,2.2,3.3,4.8,4.9,7.2
			c0.9,1.5,1.8,3,2.9,4.9c20.3-13.2,35.1-30,35-56.7c58,1.5,115.6-1.8,173.4,2.2c0.2,1.5,0.4,2.7,0.6,4.2c1.3,0.1,2.8,0.3,4.2,0.3
			c75.4,0,150.8,0.1,226.2,0c2.3,0,4.5-1.2,6.8-1.9c11.2-3,22.4-5.9,33.5-9.2c4.3-1.3,8.3-3.8,12.5-5.6c4.1-1.8,8.2-3.6,12.4-5.1
			c3.1-1.1,6.7,2.6,8,7.6c3.4,0,7-0.4,8.1,4.2c0.7,3.1,1.6,6.1,2.4,9.1c-0.3,0.1-0.6,0.3-1,0.4c1,0.3,1.9,0.6,2.9,0.8
			c0.1,0.4,0.3,0.8,0.3,1.1c0,13.1,0,26.3,0.1,39.4c0,3-1.1,3.8-3.9,3.8c-18.9-0.1-37.7,0-56.5,0c-42.2,0-84.5,0-126.7-0.1
			c-3.2,0-4.2,2-5.3,3.9c-5.2,8.9-8.1,18.6-9.5,28.7c-0.9,6.3-0.9,6.3-7.1,6.3c-35.1,0-70.2,0-105.3-0.1c-2.9,0-4.6,0.5-6.6,3.3
			c-4.6,6.6-6.7,13.7-6.7,21.6c-0.1,10.1-0.4,20.2-0.6,30.7c-6.9,0.1-13.4,0.3-19.9,0.3c-8,0-15.9,0.6-22.3,5.9
			c-2.8,2.3-5.1,5.6-6.5,8.9c-1.5,3.5-2,7.5-2.4,11.3c-1.8,17.8-10.3,31-25.6,40.5c-8.3,5.1-16.8,9.5-26.2,11.3
			c-9,1.7-18.1,3.1-27.7,2c-8.6-1-15.5-5.2-23-8.3c-1.6-0.7-2.9-2.5-4-4c-4.8-6.9-10.2-13.4-12.2-21.9c-0.2-0.8-1.8-2-2.8-1.9
			c-9.2,0.4-18.5,1-27,4.7c-7.4,3.2-12.8,9.3-16.8,16.3c-5.6,9.9-8.7,20.8-11.3,31.8c-2.8,11.9-3.5,24.1-3.2,36.3
			c0.3,14,0.6,28.1,0.9,42.1c0.1,3.7,0.5,7.4,0.9,11.2c0.3,2.9-0.8,4.4-3.8,4.6c-13.8,1-27.6,2.8-41.4,3.1
			c-29.4,0.5-58.8,0.2-88.1,0.2C21.8,363.3,21.1,363.2,19.4,363.1L19.4,363.1z M257.5,185.1c-7.6-2.6-14.7-5.2-22-7.5
			c-0.8-0.3-2.1,0-2.8,0.6c-5.6,4.4-9.3,10.2-10.2,17.1c-1.6,12.7,1.4,24.4,9.3,34.9c5.1,6.7,11.8,10.1,19.8,10.9
			c11.8,1.2,23.2,0.5,34.7-3.4c11.1-3.7,20.5-9.3,28.2-17.9c4.1-4.6,5.4-10.5,6.6-16.5c1.8-8.9,0.5-17.2-4.4-24.3
			c-8.3-12.3-25.3-16.9-39.6-14.3c4,8,3.3,17.6-3.2,23.2c-5.4,4.7-6.6,10.3-6.7,16.7c-0.2,9.2,7.9,20.4,18.7,21.5
			c2.4,0.2,4.8,1.2,7.2,1.9c-0.1,0.4-0.2,0.8-0.4,1.2c-8.3,2.1-15.8-0.1-22.5-5.2c-7.8-5.9-10.7-14.6-12-23.8
			C257.7,195,257.8,189.8,257.5,185.1L257.5,185.1z M245.7,41.2c0.6-0.1,1.1-0.3,1.6-0.3c34.4,0,68.8-0.1,103.2,0
			c1.2,0,2.3,1.2,3.4,1.8c0.4-1.7,0.8-3.7,1.1-4.8c-37.2-0.3-74.7-0.6-112.3-0.8c0.4,3.3-2.4,7.1,2.6,8.8
			C245.5,44.3,245.6,42.8,245.7,41.2L245.7,41.2z M245.6,138.3c-0.4,0-0.8,0.1-1.3,0.1c-0.5,1.3-0.9,2.7-1.4,4
			c1.4,0.4,2.7,1.3,4,1.3c35.1,0.2,70.1,0.2,105.2,0.3c0.5,0,1-0.1,1.6-0.1c-0.1-0.9-0.1-1.7-0.2-2.4c-1.3,0.1-2.5,0.4-3.6,0.4
			c-33.8,0-67.5-0.1-101.3,0C246.2,141.8,245.1,141,245.6,138.3L245.6,138.3z M356.8,101c-0.4-0.1-0.7-0.1-1.1-0.2
			c-0.5,1.5-1.5,3-1.6,4.5c-0.3,4.8-0.5,9.6-0.4,14.3c0,1,1,2,1.5,3c0.5-0.9,1.4-1.8,1.4-2.7C356.7,113.6,356.7,107.3,356.8,101
			L356.8,101z"/>
	</g>
</g>
</svg>
