<?xml version="1.0" encoding="utf-8"?>
<svg version="1.1" id="Layer_1" xmlns="http://www.w3.org/2000/svg" xmlns:xlink="http://www.w3.org/1999/xlink" x="0px" y="0px"
	 viewBox="0 0 557 303" style="enable-background:new 0 0 557 303;" xml:space="preserve">
<g id="pHZd6Y.tif">
	<g>
		<path d="M226.5,134.4c2.2,14.1,8.3,25.3,14.8,36.2c0.5,0.9,1.6,1.5,1.8,2.4c0.5,2.2,1.5,4.9,0.8,6.7c-0.6,1.5-3.5,2.9-5.4,3
			c-13.4,0.3-26.8,0.6-40.1-0.1c-3.6-0.2-7.2-3.4-10.4-5.6c-4.5-3.2-9.1-5.1-14.9-4.9c-10.9,0.4-21.9,0.4-32.8,0.1
			c-5.2-0.1-7.4,3.8-9.5,6.9c-6.3,9.5-12.1,19.3-17.5,29.3c-3.3,6-6.2,12.5-8.2,19c-1.8,6-2.2,12.5-3.1,18.7c-0.5,3.5-1,7-1,10.4
			c0,1.2,1.2,3,2.4,3.5c9.8,4.2,19.6,8.1,29.4,12.1c6,2.5,7.7,11.3,3.3,16.4c-2.8,3.3-6.3,4.9-10.6,5c-19.7,0.3-39.4,0.8-59.1,1.1
			c-8.2,0.1-16.4,0.3-24.6-0.1c-6.3-0.3-13.2-0.1-18.7-2.7c-7.4-3.5-13.9-8.5-17.2-17.3C2,265,4.7,257.1,8.6,248.8
			c0.8-1.9,1.3-3.9,1.8-5.9c2.8-11.3,5.3-22.6,8.4-33.7c1.8-6.4,4.3-12.8,7.4-18.7c4-7.6,8.4-15,13.6-21.8
			c7.2-9.5,14.8-18.9,23.1-27.4c6.7-6.8,14.9-12.1,21.9-18.6c3.4-3.1,5.7-7.3,8.2-11.2c0.4-0.6-0.7-3.1-1.7-3.6
			c-4.4-2.3-6.2-5.5-6.1-10.7c0.2-20.5,0.1-41,0-61.5c0-1.6-0.2-3.2-0.2-4.7c0.1-3.3,3-6.5,6.3-6.7c11.2-0.9,22.4-1.7,33.9-2.6
			c0.2-2.4,0.3-4.3,0.4-5.4c7.4-1.8,14.4-3.4,22.1-5.3c0.5,4.3,1.1,9.3,1.7,14.2c0.3,0.2,0.5,0.3,0.8,0.5c0.6-1.3,1.5-2.6,1.8-4
			c0.6-2.6,5.8-7.2,8.6-7.1c7.4,0.2,14.7,0.6,22,0.5c14.3-0.1,28.6-0.2,42.8-0.6c3.9-0.1,6.6,1.1,9,4.1c0.7,0.9,3,1.5,3.9,1
			c3.7-1.9,13.4-2,17.4-0.7c4.1,1.4,8.6,1.6,13.3,2.5c0.1-2.6,0.1-4.9,0.2-7c0.1-2.9,1.2-4.4,4.6-4.4c20.8,0.1,41.6,0.1,62.4,0
			c3.2,0,4.4,1.2,3.8,4.3c-0.2,1,0,2.1-0.1,3.5c1.3,0.1,2.6,0.2,3.8,0.2c13.1,0,26.2,0,39.3,0c31.2,0,62.4,0,93.5,0
			c4.9,0,6.7,1.4,8.1,6c11.6,0.3,23.2,0.7,34.8,0.9c2.6,0,6.1,0.4,7.6-1c2.5-2.3,3.6-6.1,5.3-9.2c0.2-0.4,0-1-0.1-1.7
			c2.9,0.2,5.6,0.3,8.8,0.5c-0.2,3.5-0.4,7.1-0.7,10.7c7.9,1.2,7.9,1.4,7.8,8.8c-0.2,27.1-0.4,54.3-0.5,81.4c0,7.9-0.1,7.5-7.3,7.4
			c-0.5,0-1,0.1-2.2,0.1c-0.4,4.9-0.9,9.9-1.1,14.8c-0.1,2.4-0.8,3.5-3.3,4c-2.6,0.5-5.2,0.9-5.6,4.8c-0.2,1.7-2.7,3.9-4.5,4.4
			c-5.9,1.6-12.2,4.2-17.8,3.3c-4.6-0.7-9.5-2.7-13.6-1.4c-7.6,2.4-14.7,0-22-0.1c-3.6-0.1-7.3,1.4-11,1.9c-2,0.3-4.4,0.5-6.2-0.2
			c-6.5-2.6-12.8-2.6-19.4,0c-2.1,0.9-5.2,0.9-7.3,0c-6.3-2.6-12.2-2.6-18.5,0c-2.2,0.9-5.3,0.7-7.6-0.2c-6.1-2.3-11.8-2.3-17.8,0
			c-2.1,0.8-4.8,0.2-7.2-0.1c-2.4-0.3-4.8-1.4-7.2-1.4c-3.4-0.1-6.2-0.5-8.9-3.1c-1.9-1.8-5.1-2.2-7.7-3.1c-6.5-2.1-13.8-3-19.4-6.5
			c-8.1-5.1-16.4-3.6-24.8-3.6c-25.4-0.2-50.8-0.1-76.3-0.1C229.6,135.2,228.1,134.7,226.5,134.4L226.5,134.4z M198.1,128
			c-2.4-0.6-4.9-1.7-7.4-1.8c-5-0.3-10.1,0.3-15,0c-3.5-0.2-5.2,1.2-6.6,4.2c-3.6,7.9-5.8,16-4.9,24.8c0.5,4.7,1.7,5.9,6.3,5.9
			c2.5,0,5.1,0.3,7.5-0.1c1.7-0.2,4-0.9,4.8-2.2c3.2-4.8,7.5-5.7,12.7-5.1c1,0.1,2.1,0,3.2,0c4.6-0.1,6-2.1,4.8-6.5
			c-1-3.7-1.8-7.5-2.8-11.2C200,133.6,199.1,131,198.1,128L198.1,128z M303.1,112.7c-0.8-0.2-2.5-1.1-4.2-1.2
			c-10.9-0.2-21.9-0.2-32.8-0.2c-1.1,0-2.4,0.4-3.3,1c-3.2,2.1-5.2,6.8-4.1,9.8c1.3,3.8,4.3,5.8,8.2,5.8c10.7,0.1,21.4,0.2,32.1,0
			c3.7-0.1,6.6-2.3,8-5.7C308.2,118.8,306.6,116,303.1,112.7L303.1,112.7z M358.5,23.2c-0.1-0.5-0.2-1-0.3-1.5
			c-9.4-0.7-18.8-1.3-28,2.4c8.2,0.6,16.3,0.4,24.5,0.1C356,24.2,357.3,23.6,358.5,23.2L358.5,23.2z"/>
	</g>
</g>
</svg>
