<?xml version="1.0" encoding="utf-8"?>
<svg version="1.1" id="Layer_1" xmlns="http://www.w3.org/2000/svg" xmlns:xlink="http://www.w3.org/1999/xlink" x="0px" y="0px"
	 viewBox="0 0 606 386" style="enable-background:new 0 0 606 386;" xml:space="preserve">
<g id="FTpzTa.tif">
	<g>
		<path d="M8.2,308.8c2.5-7.7,5.6-15.4,7.5-23.3c2.5-10.5,8-19.4,12.4-29c4.2-9.2,9.1-17.8,15.8-25.4c5.3-6,10.5-12.2,16.1-18
			c5.4-5.6,10.8-11.4,16.9-16.2c3.9-3.1,8.9-4.9,13.6-6.8c7-2.7,14.1-5.5,21.4-7.3c7.2-1.8,14.8-2.5,22.1-3.9
			c4.6-0.9,9.2-1.9,13.6-3.6c4.9-2,5.8-4.5,5-11.4c-2.9,0-5.9-0.2-8.9,0c-3.2,0.2-4.6-1.1-6.6-3.7c-7.3-10.2-4.3-21.6-4.1-32.4
			c0.1-3.9,4.1-7.8,6.4-11.5c0.4-0.6,1.7-0.7,2.6-0.7c2.3-0.1,4.6,0.3,6.8,0c1.6-0.2,3.1-1.2,4.4-2.7h28.4c0-4.5,0.1-8.6-0.1-12.6
			c0-0.7-1.5-1.6-2.5-2.1c-6.7-2.8-6.8-3.1-7-10.6c0-0.9-1.3-1.8-2.1-2.7c-1.6-1.6-1.6-2.6,0.7-3.9c3.4-1.9,6.5-3,10-0.5
			c0.8,0.5,2.3,0.5,3.3,0.2c12.7-3.2,25.3-6.7,38-9.6c3.7-0.9,7.9-0.6,11.7,0c2.7,0.4,4.5-0.1,5.9-2c5.5-7.8,13-13.6,20.8-18.6
			c3.2-2.1,8.4-1.1,12.6-1.4c0.1,0,0.8,2.7,0.3,3.3c-1.4,1.6-3.4,2.5-4.9,4c-2.7,2.7-5.3,5.6-7.7,8.5c-0.5,0.6-0.2,2.6,0.4,3.1
			c2.6,2.2,5.1,4.3,9.1,3.9c4.2-0.4,8.5-0.1,12.8-0.1c7.7,0,8.3-1.5,8.2-9.1c-0.1-7.6,0.7-15.3,5.7-21.7c3.4-4.3,8.1-5.8,13.3-6.2
			c1.8-0.1,3.7,0,5.5,0c0.5-7.7,1.2-14.9,1.3-22.2c0.1-4,1.6-5,5.6-3.8c0,6,0.1,12.1-0.1,18.2c-0.1,3.8,1.5,5.5,5.2,5.2
			c4.1-0.3,8.1-0.7,12.2-0.9c0.8,0,1.6,1.5,2.5,1.5c4.8,0.1,9.6,0,14.3-0.1c1.2,0,2.4-0.4,3.5-0.4c16.6,0,33.1,0,49.7,0
			c0.7,0,1.5-0.2,2,0.1c8.7,4.6,18,1.7,27,2.2c9.5,0.5,19,0,28.5,0.1c11.2,0.1,22.4,0.3,33.5,0.7c3.4,0.1,4.4-1.2,4.1-4.4
			c-0.5-5-0.9-10-1-15.1c0-0.8,1.2-2.4,2-2.5c6.4-0.8,12.9-1.4,19.3-2c6.1-0.6,10.9,2.9,16,5.2c0.7,0.3,1,2,1,3.1
			c0.1,4.8,0,9.6,0,14.6c3.7,0.4,7.2,0.9,10.7,1.1c5.5,0.4,6.2,0.9,6.2,6.3c0,0.7-0.1,1.4,0,2c0.5,3.7-0.8,6.2-4.9,7.2
			c6.6,0,12.7,0,18.8,0c4.9,0,9.9-0.1,14.8-0.1c5.4,0,8,2,8.1,7.4c0.1,8-0.3,15.9-0.8,23.9c-0.2,3.5-2.3,5.3-6.1,5.2
			c-12.8-0.2-25.7-0.3-38.5-0.4c-1.4,0-2.9,0-5,0c0,6.9,0,13.5,0,20.1c0,15.6,0,31.3,0.1,46.9c0,1.1,0.3,2.3,0.8,3.4
			c0.9,2.1,2.1,4.1,3.5,7c3.5,0,8,0.2,12.5-0.1c2.4-0.1,3.7,0.8,3.8,2.9c0,7.2-0.3,14.3-0.5,21.5c0,2.5-1.3,3.2-3.5,3.1
			c-2.9-0.1-5.9,0-8.8,0.2c-1.6,0.1-3.1,0.9-4.7,1.1c-2.3,0.4-4.6,1-7,1c-18,0.1-36.1,0-54.1,0c-4.8,0-9.6,0.5-14.4,0.7
			c-0.7,0-1.8,0.1-1.8,0.4c-0.9,4.6-4.6,2.8-7.1,2.8c-9.1,0.2-18.2,0.1-27.3,0.1c-1.9,0-3.5,0-4.4-2.4c-0.4-1-2.8-1.5-4.2-1.6
			c-14.6-0.1-29.1,0-43.7,0c-25.3,0-50.5,0-75.8-0.1c-2.1,0-3.7,0-4.6,2.3c-1.3,3.3-4.3,2.5-6.9,2.4c-9,0-7.6,0.7-7.7-7.7
			c0-2.3-0.3-4.6,0-6.8c0.6-4.3-2.2-5.2-5.4-5.5c-3.7-0.3-7.5,0-11.2-0.1c-5.2-0.1-10.3-0.6-15.5-0.6c-1.1,0-3,1.5-3,2.5
			c-0.8,8.7-1.4,17.5-1.7,26.2c-0.1,2.7,1.1,5.4,1.3,8.1c0.2,2.1,0.7,4.9-0.4,6.3c-1.2,1.7-7.8,0-8.9-2c-1.8-3.3-3.7-6.8-4.8-10.4
			c-3-9.8-5.7-19.7-8.6-30h-18.6c0.2,4.1-0.8,7.1-5.9,6.3c-3.4-0.5-6.8-0.7-9.5-1c-6.8,13.1-14,26.8-21.2,40.5
			c-1.4,2.6-2.6,5.2-3.8,7.9c-3.9,8.8-8.2,17.5-13.1,25.8c-3.6,6-7.3,12.4-8.8,19.1c-2,8.9-8.3,15.3-11.4,23.3
			c-4.3,11.4-6,23.1-1.1,34.9c0.8,1.9,2.4,3.5,3.8,5.1c4.6,5,9.3,9.9,14,14.9c4.2,4.5,4.3,14.6,0.2,19.2c-6.3,7.1-14.3,8.7-23.9,4.7
			c-7-3-13.8-6.3-20.8-9.4c-25.2-11.4-50.4-22.9-75.6-34.3c-6.3-2.9-12.8-5.5-19.1-8.4c-2.6-1.2-4.6-2.8-5.4-5.9
			c-0.7-3.1-2-6.1-3.1-9.1L8.2,308.8L8.2,308.8z M36.9,283.8c-3.4,10.6-6.6,20.7-10.1,30.6c-1.1,3-0.7,4.4,2.4,5.5
			c10.7,4,21.5,8.1,32.1,12.5c10.8,4.6,21.4,9.9,32.3,14.4c15.5,6.5,31.2,12.5,46.8,18.7c0.7,0.3,1.5,0.4,2.8,0.7
			c-3.9-5.1-7.4-9.6-10.9-14.1c-7.2-9.4-13-19.4-13.3-31.7c-0.1-3-1.4-4.4-4.1-5.5c-14.1-5.5-28.1-11.3-42.2-16.9
			C60.8,293.4,49,288.7,36.9,283.8L36.9,283.8L36.9,283.8z M156.3,233.5c0.7-1.2,1.3-2.3,1.9-3.5c6.4-12.6,12.2-25.6,19.3-37.8
			c5-8.7,4-17.5,4-26.8h-15.2c0,3.3,0.4,6.4-0.1,9.4c-0.7,4.2-0.3,9.3-4.8,11.6c-6.3,3.2-13.3,4.2-20.2,5.7
			c-15.4,3.4-30.6,7.8-45.8,12c-0.5,0.1-1.1,2.4-0.8,2.6c2.9,2,5.8,4.3,9,5.7c9.5,3.9,19.1,7.4,28.7,11.2
			C140.2,226.8,148.1,230.1,156.3,233.5L156.3,233.5L156.3,233.5z M507.5,87.3l-13.2,0l0,6.7c3.6,0.4,6.9,0.7,10.4,1.1v17.3
			c-2.4,0.1-4.3,0.2-6.3,0.3c-0.1,3.2-2,3.8-4.9,3.7c-4.7-0.2-9.3-0.1-14-0.1c-2.2,0-4.7,0.5-5.1-2.9c0-0.4-1.4-0.6-2.1-0.9v47.1
			c9.7,0,18.8,0,28,0c6.5,0,6.9-0.3,6.9-6.7c0.1-15.7,0.2-31.5,0.3-47.2C507.5,99.6,507.5,93.5,507.5,87.3L507.5,87.3L507.5,87.3z
			 M64.6,232.9l0.8,1.5c3.8,1.1,7.5,2.2,11.3,3.1c13.1,3.3,26.4,5.9,39.2,10c9.3,3,18.5,4.8,29.3,3.8c-1.2-1.3-1.7-2.5-2.6-2.8
			c-21-9.2-42-18.3-63-27.4c-0.7-0.3-2-0.4-2.4,0.1C72.9,225,68.8,228.9,64.6,232.9L64.6,232.9L64.6,232.9z M430.1,158.1H309.9
			c-0.1-2.2-0.2-3.9-0.3-5.8c-1.3-0.1-2.5-0.1-3.6-0.2c-0.3-1.2-0.7-2.3-1.2-4.3c-1.7,12-0.5,11.9,8.1,11.9
			c38.7-0.1,77.5-0.1,116.2-0.1c0.9,0,1.8-0.1,2.9-0.2c0.2-1.3,0.4-2.4,0.6-3.6c0.7-0.1,1.3-0.2,1.8-0.2c7.2-0.3,7.9-1,7.9-8.2
			c0-8.9-0.1-17.9-0.1-26.8c0-6.3-2.4-8.2-8.3-7.1C432.6,128.3,431.4,143,430.1,158.1L430.1,158.1L430.1,158.1z M123.5,300.3
			c2.6-5.3,4.9-9.9,7.5-15c-26.8-5.6-53-11.1-79.3-16.6c-0.1,0.5-0.2,1-0.4,1.5C75.5,279.4,100.8,286,123.5,300.3L123.5,300.3z
			 M433.5,94H473v-7h-39.6L433.5,94z M212,97.5c6.8-4.3,13.1-8.3,19.4-12.3c-0.1-0.5-0.3-1-0.4-1.4c-3.5,0.2-7.1-0.2-10.3,0.7
			C210,87.5,211.7,85.4,212,97.5z M303.9,94.6c0.5,0,1.1,0,1.6,0V55h5.4c-1.5-1.1-2.1-2-2.7-2c-2.9,0.2-4.1,2.2-4.3,4.8
			c-0.1,2.7,0,5.3,0,8C303.9,75.4,303.9,85,303.9,94.6L303.9,94.6L303.9,94.6z M304.4,130.5c0.2,0,0.4,0,0.6,0v-16.1
			c-0.2,0-0.4,0-0.6,0V130.5z"/>
	</g>
</g>
</svg>
