<?xml version="1.0" encoding="utf-8"?>
<svg version="1.1" id="Layer_1" xmlns="http://www.w3.org/2000/svg" xmlns:xlink="http://www.w3.org/1999/xlink" x="0px" y="0px"
	 viewBox="0 0 709 408" style="enable-background:new 0 0 709 408;" xml:space="preserve">
<g id="HhEhB1.tif">
	<g>
		<path d="M666.9,249c0.1,6.5,0.1,12.5,0.2,18.6c1.6,0.6,3.5,1.7,5.4,2c4.1,0.7,5.1,3.2,4.6,6.8c-0.1,0.4,0,0.8,0,1.3
			c-0.2,9.4,1.7,9.1-10.5,11.8c-0.1,2.5-0.2,5.1-0.3,7.6c-7.4,0.1-14.6,0.3-21.8,0.2c-2.8,0-4.2,0.7-5.1,3.5c-2.4,8-2.5,8-11,8
			c-45.5-0.1-90.9-0.3-136.4-0.4c-6.4,0-10.6-4.8-15.9-7.2c-0.9-0.4-0.9-2.8-1.1-4.3c-0.4-3.1-0.6-6.3-1-9.6
			c-5.6,0.3-11,0.5-16.9,0.8c-0.1,2.1-0.2,5-0.3,8.6c-2.2,0-4.4,0.1-6.6,0.1c-4.5,0-9-0.4-13.4,0.1c-5.9,0.7-10.4-1.3-14.4-5.3
			c-10.1-10.1-20.2-20.1-30.4-29.9c-2.1-2.1-3-4.2-2.6-7c0.3-1.9,0.5-3.9,0.8-6.2c-25.7,0.2-50.3,0.3-74.6,0.5
			c-0.7-2.3-1.1-3.5-1.6-5c-7.3,0.9-14.9,1-22.1,2.9c-8,2-15.9,5-23.3,8.6c-10.2,4.9-19.6,11.8-31.4,12.6c-10.1,0.7-19.8-0.5-28-7.3
			c-0.2-0.2-0.5-0.3-0.7-0.4c-2.5-1.5-5.1-4.2-7.4-4c-2,0.2-3.4,4.1-5.5,5.8c-2.6,2.1-5.5,4.1-8.6,5.2c-5.7,2.1-8.6,6.1-11.3,11.3
			c-2.8,5.4-2.7,10.4-1.1,15.9c2.6,9.1-0.3,15.2-10.9,21.2c-6.9,3.9-9.3,10.4-10,17.7c-0.3,2.7,0,5.6,0.5,8.3c1.4,8.1-2.1,14-8,18.9
			c-3.9,3.3-7.9,6.6-8.5,12.1c-0.3,2.7-0.2,5.5-0.1,8.2c0,1.2,0.7,2.6,0.5,3.7c-0.7,3.3-1.2,6.8-2.9,9.4c-0.6,0.9-5-0.6-7.6-1.5
			c-4.4-1.5-8.7-3.4-12.8-5c0.3,1.5,0.5,2.7,0.7,3.9c-1.3,0.1-2.7,0.7-3.8,0.2c-5-1.9-9.9-4.1-14.8-6.2c-2.2-0.9-3.6-0.8-4.7,2
			c-2.3,5.7-6.5,8.4-13,8.3c-13.4-0.3-26.8-0.1-40.2,0.1c-12.3,0.2-21.4-9.7-24.3-20.3c-1.6-6,2.1-10.6,4-15.6
			c1.3-3.3,5-6.2-0.8-8.9c-0.6-0.3-0.1-2.8-0.1-5c-0.5-0.2-1.6-0.7-2.6-1.3c-2.1-1.2-2.6-2.6-1.9-5.1c3.2-13.6,11-25.2,16.3-37.8
			c2.6-6.1,4.6-12.4,6.5-18.7c5.3-18.2,11.4-36.1,21.9-52c5.6-8.5,12.3-16.5,17.6-25.2c2.7-4.4,5.1-10.1,4.8-15.1
			c-0.3-4.3-4-8.4-8.4-11.4c-6.7-4.6-14.2-6.7-21.5-9.7c-6.3-2.5-7.4-7.7-2-12.1c5.1-4.1,10.8-7.4,16.6-10.5
			c4.5-2.4,9.5-4.1,14.4-6.1c-5.4-5.2-8.4-5.7-14.2-2.5c-5.3,2.9-10.6,5.8-15.7,8.9c-2.2,1.3-4.1,3.2-6.2,0.2c-2-2.7-3.5-5.5-1-8.7
			c4.4-5.4,8.9-10.8,13.3-16.1c3.5-4.2,7-8.3,10.4-12.5c1.8-2.2,3.6-3.3,6.3-1.2c1.1,0.9,2.3,1.5,3.6,2.1c3.5,1.5,4.4,3.8,3.6,7.6
			c-1.1,5.2,4.2,4.8,6.8,6.5c2.4,1.6,4.1,0.4,4.9-2.4c-7.4-1.2-7.7-8.3-8.5-13.1c-1.3-8.1-1.6-16.9,0-24.9
			c2.3-11.6,6.7-22.7,14.7-32c0.8-0.9,0.7-2.8,0.5-4.2c-1.2-8-0.4-9.3,7.6-10.9c9.5-2,19-3.8,28.5-5.8c1.1-0.2,2.6-1.2,3-2.2
			c1.7-4.7,3.1-9.5,4.8-15c0.4,0,2,0,5.1-0.1c-0.3,2.2-0.9,4.3-0.9,6.3c0,4.2,1.5,5.6,5.7,5.7c9.8,0,19.5,0,29.5,0
			c0.2,1.6,0.5,3.1,0.7,4.7c1.4,0.1,2.6,0.2,3.8,0.2c23.3,0,46.6-0.1,69.9,0c2.3,0,3.9-0.3,5.1-2.6c0.6-1,2.7-1.6,4.1-1.6
			c26.4-0.2,52.7-0.3,79.1-0.3c48.4-0.1,96.8-0.2,145.2-0.5c2.2,0,4.4-1.5,6.7-2.1c1.5-0.4,3-0.7,4.5-0.6c5.6,0.7,10-1.7,13.8-5.3
			c4.5-4.3,9.7-6,15.9-5.6c3.3,0.2,4.6,1.4,4.6,4.7c0,6.9,2.2,9.1,9.1,8.7c3.7-0.2,7.4-2,11.2-2c39.5,0,78.9,0.3,118.4,0.5
			c5.1,0,6.2,1.1,6.2,6.2c0,13.1,0,26.2,0,39.3c0,0.5,0.1,1.1,0.3,2.9c4.4-0.3,8.8-0.6,13.2-0.7c4.4-0.1,7.5,3,7.5,7.4
			c0,11.3-0.1,22.6-0.2,33.9c0,4-2.7,6.6-6.8,6.6c-4.6,0-9.2-0.2-14-0.4c-0.2,43.1-0.4,85.4-0.7,128.3
			C674.6,248.8,670.9,248.9,666.9,249L666.9,249z M304.7,239.8c-0.9-2.8-2-4.9-2.3-7.1c-1.5-11.7-2.9-23.5-4.1-35.2
			c-0.3-3.1-1.6-4.3-4.7-4.3c-9.9,0.1-19.8,0.5-29.7-0.1c-8.5-0.5-15.9,0.3-19.7,9.3c0,0.1-0.2,0.2-0.3,0.3
			c-5.3,6.2-8.6,13.4-8.5,21.6c0.1,4.6,0.7,9.3,1.5,13.8c1.4,8,0.6,9.1-7.5,9c-7.1-0.1-14.2-0.3-21.3-0.1c-2,0.1-3.9,1.3-5.9,2
			c1.1,1.2,2.1,2.6,3.3,3.6c6.4,5.2,13.5,8.8,21.8,10c13.5,1.9,24.9-3.2,36-10c9.9-6.1,20.4-10.9,32.3-11.8
			C298.5,240.6,301.4,240.2,304.7,239.8L304.7,239.8z M486.7,249.3c-10.3,0-19.6,0-29.7,0c0.2,6.4,0.4,13.1,0.7,20.4
			c4.5-0.1,8.8-0.5,13.1-0.3c2.9,0.1,4.1-0.9,3.9-3.7c-0.1-1.1-0.1-2.2-0.2-3.3c-0.2-3.8,0.5-7,4.6-8.7
			C481.5,252.5,483.7,251,486.7,249.3L486.7,249.3z M224.8,223.9c3.9-3.9,4.4-8,1.6-9.3c-2.2-1-5.4-1-7.7-0.2
			c-2.1,0.7-1.8,6,0.1,7.7C221,224,223.4,225.2,224.8,223.9L224.8,223.9z M224.8,239.1c2.2-2.4,2.5-6.1,0.3-7.8
			c-2.5-2-5.3-1.9-7.5,0.3c-2.1,2.1-2.8,4.9,0,7.4C220.1,241.1,222.4,241.2,224.8,239.1L224.8,239.1z M225.8,197.9
			c-2,1.7-3,6.7-1.1,7.4c2.3,0.9,5.5,1.2,7.6,0.2c2.4-1.2,2.7-4.4,1-6.8C231.8,196.3,227.9,196.1,225.8,197.9L225.8,197.9z
			 M640.4,249.1c-1.3,0-2.6,0.1-4,0.1c1.4,3.1,2.6,5.6,3.8,8.3C640.3,254.6,640.4,252.1,640.4,249.1L640.4,249.1z"/>
	</g>
</g>
</svg>
