<svg id="Layer_1" data-name="Layer 1" xmlns="http://www.w3.org/2000/svg" viewBox="0 0 143 389">
  <g id="rI8Ueq.tif">
    <g>
      <path class="cls-1" d="m56.6,0h29.79c1.98,1.1,3.95,2.2,5.93,3.29,5.26,2.91,10.38,6.1,15.8,8.66,8.04,3.8,16.45,6.86,24.36,10.89,2.07,1.05,4.28,6.51,4.11,6.63-4.7,3.33-2.79,8.15-2.85,12.3-.06,3.66-1.01,5.98-4.74,7.03-1.06.3-2.31,1.75-2.53,2.86-1.39,6.94,2.29,14.91-4.29,20.79v27.53c5.46,1.18,10.41,1.83,15.06,3.36,4.85,1.59,5.37,4.13,2.39,8.18-1.67,2.27-3.32,4.58-5.25,6.62-3.53,3.73-4.45,7.99-4.46,13.1-.06,39.21-.13,78.42-.84,117.62-.19,10.49.43,19.87,8.86,27.29,1.74,1.53,2.46,4.22,4.16,7.29h-33.14c1.62,1.51,3.38,2.22,5.17,2.81q7.17,2.35,7.19,10.11c0,6.31-.03,12.63.03,18.94.01,1.27-.06,3.22.66,3.69,5.27,3.42,3.78,8.68,4.12,13.51.14,2.05.05,5.13,1.25,5.92,6.18,4.06,5.74,9.73,5,15.83-.18,1.49.46,3.64,1.51,4.62,3.57,3.31,3.53,4.36-.78,6.47-14.31,7.03-30.29,10.75-42.61,21.79-.88.79-2.83.55-4.27.53-11.08-.18-22.16-.43-33.24-.66-.83-.02-2.19.25-2.4-.12-2.99-5.49-9.02-5.44-13.71-7.83-3.39-1.73-6.39-4.29-9.85-5.85-6.57-2.98-13.37-5.47-20.02-8.28-.94-.4-2.29-1.51-2.24-2.19.08-.96,1.39-1.77,1.99-2.75.67-1.09,1.55-2.29,1.6-3.48.19-4.25.08-8.51.08-12.89,2.6-.32,4.49-.56,6.76-.84,0-5.71,0-11.16,0-16.62,0-3.05-.87-6.4,3.43-7.7.61-.18.91-2.23.93-3.43.11-6.46.08-12.92.12-19.39.05-6.81,2.37-9.23,9-9.51,1.68-.07,3.35-.3,5.03-.45-.03-.35-.06-.69-.09-1.04-11.21-.45-22.42-.9-33.63-1.36v-3.99c5.88-4.87,11.46-9.62,11.4-18.51-.29-44.84-.29-89.69-.44-134.53,0-1.77.17-4.03-.78-5.23C7.05,117.05,3.43,113.46,0,109.72c0-.66,0-1.33,0-1.99,3.07-1.68,6.02-3.62,9.24-4.93,2.08-.85,4.52-.9,6.81-1.1,3.02-.26,4.15-1.61,4.1-4.78-.11-7.3.28-14.6.24-21.9,0-1.68-.65-4.58-1.53-4.81-3.79-.96-3.15-3.69-3.24-6.25-.13-3.48.07-7.02-.5-10.43-.29-1.76-1.58-4.01-3.06-4.77-3.3-1.69-4.33-3.91-4.2-7.51.11-3.16.24-6.94-1.29-9.41-3.28-5.3-3.12-7.39,2.83-9.89,12.81-5.38,25.65-10.7,38.47-16.06.43-.18,1.04-.51,1.12-.87.91-4.22,4.87-3.67,7.61-5.01Z"/>
    </g>
  </g>
</svg>