<svg id="Layer_1" data-name="Layer 1" xmlns="http://www.w3.org/2000/svg" viewBox="0 0 172 285">
  <g id="_3lsX8J.tif" data-name="3lsX8J.tif">
    <g>
      <path class="cls-1" d="m133.2,0c1.33,0,2.65,0,3.98,0,7.19,6.29,6.45,11.79-1.94,15.71-1.47.69-2.7,2.18-3.7,3.55-3.91,5.41-4.84,11.52-4.41,18.1.22,3.39-.38,6.87-.92,10.26-.38,2.4-1.3,4.72-1.96,7.08-.61,2.19-1.42,4.35-1.73,6.58-.51,3.68-1.44,7.54-.78,11.06.67,3.6,3.04,6.88,5.16,11.33,11.14-.41,15.97,8.56,19.72,18.42,3.38,8.89,6.21,17.99,9.45,26.93,3.5,9.69,7.21,19.3,10.78,28.96.51,1.38.85,2.83,1.18,4.27,1.34,5.7,2.64,11.41,3.96,17.12v36.87c-.31.76-.65,1.51-.93,2.28-4.39,11.82-5.53,25.04-15,34.68-5.7,5.81-8.88,14.28-17.89,16.46,0,3.08,0,5.9,0,8.72,0,3.79-1.47,5.72-5.65,5.69-19.39-.13-38.79-.14-58.19,0-4.45.03-5.89-2.05-5.8-6.05.06-2.81.01-5.62.01-7.51-2.94-2.16-5.5-3.62-7.52-5.63-3.73-3.71-7.41-7.52-10.59-11.69-2.92-3.82-5.69-7.94-7.56-12.34-2.02-4.75-2.54-10.12-4.35-14.98-6.33-16.98-5.77-34.28-2.15-51.54,1.84-8.81,4.96-17.38,7.9-25.92,5.63-16.34,11.15-32.75,17.51-48.81,3.03-7.65,6.99-15.56,17.35-15.77,1.07-.02,2.13-.47,3.54-.81-2.52-7.42,6.77-12.22,3.36-20.06-2.65-6.09-3.9-12.8-5.66-18.85h-21.33c2.5,5.71,4.48,10.57,6.74,15.29,7.67,16.02.38,35.06-16.24,41.26-5.56,2.08-11.52,3.11-17.65,4.72-.01.17-.13.98-.14,1.79-.34,30.18-.67,60.35-1,90.53-.01,1.16.24,2.39-.06,3.47-.52,1.86-.93,4.09-2.2,5.35-2.89,2.88-6.21,5.33-9.45,7.83-2.32,1.79-3.68.69-4.11-1.83-.22-1.29-.09-2.65-.09-3.98,0-35.54.04-71.08-.11-106.62,0-2.14-1.04-4.9-2.58-6.31-15.45-14.17-15.12-43.14,9.45-52.74,4.74-1.85,6.75-4.9,7.06-9.35.27-3.81,2.28-5.91,5.28-7.7,9.65-5.77,19.35-11.47,28.83-17.53,7.44-4.76,15.04-7.43,24.12-6.23,6.26.83,12.72.11,19.08.17,7.92.08,15.97-1.79,23.38,1.28,1.36-1.25,2.61-2.4,3.85-3.55ZM59.33,57.8c-.52.29-1.26.46-1.59.92-8.33,11.95-16.64,23.92-24.86,35.95-.52.77-.76,2.53-.3,2.99.78.77,2.37,1.4,3.37,1.14,5.03-1.34,10.34-2.28,14.88-4.66,12.59-6.59,16.38-25.89,8.5-36.34ZM15.9,90.27c4.61-15.22,8.93-29.53,13.44-44.43-11.64,2.19-20.14,10.39-21.4,20.68-1.06,8.61-.65,17.17,7.95,23.75ZM80.23,30.3h-20.35v7.57c4.75,0,9.31,0,13.86,0q7.05-.02,6.48-7.57Z"/>
    </g>
  </g>
</svg>