<svg id="Layer_1" data-name="Layer 1" xmlns="http://www.w3.org/2000/svg" viewBox="0 0 408 585">
  <g id="_8BTVb9.tif" data-name="8BTVb9.tif">
    <g>
      <path class="cls-1" d="m137.65,581.94v-19.09c-3.23,2.71-7.41,5.61-10.85,9.21-9.35,9.81-12.37,11.02-24,4.95-8.55-4.47-14.64-11.62-16.89-21.54-1.13-4.97.37-8.77,3.82-12.13,5.94-5.79,11.87-11.59,18.6-18.17-18.05-14.01-23.52-34.16-28.28-54.96-2.25,1.33-3.76,2.22-5.6,3.31-1.49-1.82-3.27-3.4-4.29-5.38-2.64-5.13-6.58-5.5-11.69-4.48-14.68,2.92-29.43,5.49-45.17,8.38-2.2-14.92-4.34-29.52-6.57-44.67,8.5-1.28,16.58-2.5,25.07-3.78,0-2.14,0-4.1,0-6.06.01-71.39,0-142.78.12-214.18,0-3.77-.79-6.63-3.76-9.1-10.61-8.83-17.73-20.17-21.68-33.23-4.95-16.36-3.33-32.75,4-47.91,4.93-10.2,11.89-19.59,22.25-25.39,7.13-3.99,14.47-7.6,21.6-11.31,1.29-2.09,2.89-4.49,4.26-7.02.58-1.07,1.05-2.44.93-3.6-.42-3.96,1.12-6.11,4.68-8.21,26.62-15.75,53.03-31.85,79.59-47.7,2-1.19,4.63-1.89,6.96-1.87,16.44.09,32.88.75,49.31.61,15.56-.14,31.11-1.22,46.67-1.46,3.44-.05,6.91,1.69,10.65,2.68,1.23-2.46,9.07-8.39,11.44-7.43,3.05,1.24,6.7,2.49,8.49,4.92,1.59,2.16.98,5.92,1.37,9.28,1.13.4,2.6.93,4.86,1.73-1.41,1.73-2.28,3.56-3.73,4.44-3.77,2.3-7.86,4.07-11.69,6.29-1.16.67-2.11,2-2.75,3.24-3.65,7.07-8.1,13.91-10.48,21.4-2.08,6.58-2.08,13.89-2.46,20.91-.37,6.97,0,13.98-.13,20.96-.02,1.19-.65,2.88-1.55,3.43-2.74,1.69-3.65,3.85-3.4,7,.28,3.64.4,7.36-.04,10.96-.35,2.82-.95,6.16-2.7,8.16-6.07,6.94-2.47,14.95-3.19,22.45-.05.49.58,1.36,1.09,1.55,7.11,2.61,5.9,8.59,5.83,14.14-.04,2.95,0,5.9,0,10.11,9.1,0,17.68.09,26.27-.05,2.79-.05,4.54.54,5.61,3.46,1.24,3.41,2.85,6.77,4.83,9.81,15.31,23.59,19.98,51.3,29.87,76.98,6,15.58,11,31.56,16.6,47.81,7-1.31,13.42.65,18.04,5.69,5.08,5.55,8.09,12.61,8.06,20.26-.03,8.7-1.98,16.19-15.37,20.4,0,15.8-.36,31.39.27,46.94.14,3.58,4.2,6.83,5.48,10.57,1.82,5.31,6.06,4.74,10.03,5.3,15.64,2.22,31.28,4.45,48.05,6.83-2.12,14.92-4.17,29.38-6.33,44.61-6-1.09-11.58-2.1-17.16-3.1-9.9-1.77-19.86-3.3-29.7-5.4-4.61-.99-7.52.18-9.77,4.18-1.12,1.99-2.78,3.68-4.42,5.79-1.61-.89-3.14-1.74-5.13-2.84-2.48,8.37-5.38,16.54-7.27,24.94-1.92,8.56-7.62,14.46-12.79,20.83-2.49,3.07-4.99,6.12-7.72,9.45,5.8,5.72,11.29,11.27,16.94,16.66,3.98,3.81,5.88,8.05,4.86,13.74-1.7,9.5-15.13,22.71-24.66,24.12-5.76.85-9.93-1.64-13.63-5.5-4.44-4.63-8.82-9.31-13.74-14.51v21.58h-137.89ZM63.23,315.38c4.18-1.31,8.5-3.44,12.97-3.83,3.99-.35,5.98-1.21,7.33-5.23,12.15-36.04,24.54-72,36.88-107.97.37-1.09.57-2.59,1.37-3.14,6.38-4.33,7.55-11.74,10.69-17.94,1.38-2.72,2.77-4.03,5.94-3.95,8.58.2,17.16.07,26.29.07,0-6.34-.18-11.45.1-16.55.1-1.75.87-4.18,2.16-5,4.09-2.6,5.84-5.82,5.18-10.67-.58-4.23.93-9.97-1.33-12.51-5.58-6.29-5.44-13.16-5.25-20.45.1-3.77.67-7.64-3.77-9.81-.78-.38-1.02-2.28-1.14-3.51-.19-1.89-.05-3.8-.05-5.63h-39.62c.42,3.59-.3,7.62,1.37,9.88,7.37,9.98,12.67,20.46,14.9,32.93,2.04,11.38.7,22.33-2.98,32.56-3.41,9.46-8.7,18.29-16.42,25.7-14.95,14.33-32.57,19.87-53.04,19.31-.52,35.39-1.05,70.92-1.56,105.75Zm54.77-200.5c-17.77,27.29-35.48,54.49-53.37,81.97,17.76,3.79,41.93-7.33,52.2-23.31,12-18.67,12.11-43.63,1.17-58.66Zm-58.22-26.12c-24.98,6.07-38.6,22.28-43.56,45.52-3.03,14.19,3.64,38.7,17.12,47.3.53-1.57,1.1-3.08,1.57-4.62,7.98-26.2,15.99-52.38,23.83-78.62.85-2.86.68-6.02,1.04-9.58Zm100.63-30.87h-37.59c-.35,5.83-.67,11.21-1,16.83h38.59v-16.83ZM62.47,354.62v64.07c2.43-3.9,4.76-7.59,7.03-11.31.54-.89,1.19-1.91,1.2-2.88.07-15.55.05-31.11.05-46.93-2.01-.72-4.78-1.7-8.27-2.95ZM153.75,16.25c-2.3-2.15-3.92-3.65-5.53-5.15-1.09,2.34-2.18,4.68-3.84,8.24,3.89-1.29,6.01-1.99,9.37-3.1Z"/>
    </g>
  </g>
</svg>