<?xml version="1.0" encoding="utf-8"?>
<svg version="1.1" id="Layer_1" xmlns="http://www.w3.org/2000/svg" xmlns:xlink="http://www.w3.org/1999/xlink" x="0px" y="0px"
	 viewBox="0 0 65 569" style="enable-background:new 0 0 65 569;" xml:space="preserve">
<g id="RLVsr0.tif">
	<g>
		<path d="M17.8,19.9c0.8-8.8,3.8-11.6,11.6-11.6c8,0,10.8,2.7,11.6,11.4c-3.9,0-4.3,2.8-4.3,5.9c0.4,49.6,0.8,99.3,1.2,148.9
			c0,0.7-0.1,2,0.2,2.2c3.9,1.9,2.5,5.4,2.5,8.2c0.5,50,0.9,100,1.2,150.1c0,2.7,0.9,4.4,3.4,5.7c2.2,1.1,4.4,2,2.1,5.5
			c-1.3,2.1-0.8,5.4-0.9,8.2c-0.2,1.8-0.7,3.7-0.5,5.4c0.2,1.8,1.2,3.6,1.8,5.4c0.5,1.4,1.2,2.7,1.2,4.1c0.2,6,0.1,12.1,0.3,18.1
			c0.1,2.8,0,5.2-2.6,5.6c0.1,6.7,0.1,13.1,0.2,19.5c0,0-0.1,0-0.1,0c0.1,2.1,0.1,4.2,0.2,6.3c0.1,0.1,0.1,0.1,0.2,0.2
			c-0.2,1.8-0.4,3.6-0.6,5.5c-0.1,0.6-0.1,1.2,0,1.7c0.2,1.9,0.5,3.8,0.2,5.8c1.6,2.4,1.8,4.8-1,7.1l1.6,0.2
			c-0.2,1.9-0.4,3.9-0.6,5.8c0,0.6,0,1.2,0.1,1.7c0.2,1.8,0.4,3.7,0.4,5.6c0.1,2.3,0.1,4.7,0.2,7c-0.1,0-0.1,0-0.2,0l0.3,6.6
			c-0.4,0-0.8,0-1.3,0c2.1,2.3,2.9,4.7-0.2,7c0.5,0,1,0.1,1.6,0.1c-0.2,1.9-0.4,3.9-0.6,5.8c-0.1,0.7-0.3,1.6,0,2
			c1.4,1.7,1.6,3.2,0.1,5c-0.4,0.5-0.4,1.8,0,2.3c1.4,1.7,1.5,3.3,0.1,5.1c-0.4,0.5-0.1,1.5-0.1,2.3c0,1.7,0.1,3.4,0.2,5.1
			c0,0.9,0,1.8,0,2.7c0,1.7,0,3.4,0.1,5.1c0,0.1-0.2,0.2-0.2,0.3c0.2,3.5,0.3,7,0.5,10.5c0.1,1.5,0,3,0,4.5c0,0.2-0.4,0.4-0.4,0.6
			c0.2,3.4,0.5,6.7,0.8,10.1c0.2,2.1,0.4,4.2,0.8,6.2c0.7,3.7,2,7.5,2,11.2c0,2.2-1.5,5.5-3.2,6.3c-8.9,4.2-18.2,4.1-27.4,0.4
			c-3-1.2-3.8-5-2.6-8.1c0.8-2.2,0.9-4.6,1.2-6.9c0.5-3.4,1-6.8,1.4-10.2c0.1-0.7-0.2-1.4-0.4-2c-0.2-0.6-1.1-1.2-0.9-1.6
			c1.1-2.9,0.2-5.8,0.2-8.6c0-2.2,1.2-4.2-0.3-6.4c-0.4-0.5,0.1-1.7,0.3-2.5c0.1-0.5,0.8-0.8,0.8-1.2c-0.2-3.6-0.5-7.3-0.9-10.9
			c0-0.2-0.3-0.4-0.3-0.7c0.2-3.7,0.5-7.3,0.7-11c0.1-0.8,0.2-1.6,0.2-2.4c0-1.7-0.1-3.4-0.2-5.1c0-0.7,0.1-1.4,0.1-2.1
			c-0.2-2-0.4-3.9-0.5-6c0-2.2,0-4.4,0-6.6c0,0,0,0,0,0c-0.1-11.5-0.2-23-0.3-34.4c-0.7-1.9-1.5-3.8,0.5-6c0.3-0.3,0-1.2-0.2-1.7
			c-0.2-0.4-0.9-0.8-0.9-1.2c0.2-3.6,0.5-7.1,0.1-10.8c0.2-1.8,0.5-3.6,0.7-5.4c0.1-0.7-0.1-1.4-0.2-2c0-1.4-0.1-2.8-0.1-4.2
			c0-0.7,0.2-1.4,0.1-2c-0.2-1.8-0.5-3.5-0.8-5.9c-3.7-0.7-3.8-5-5.3-8.6c-3.9-1.5-5-3.4-4-7.4c0.2-0.7,0.4-1.7,0.9-1.9
			c5.7-2.7,5.3-9.6,9-13.6c0.2-0.2-0.2-1.1-0.4-1.7c-0.3-0.7-1.1-1.7-0.9-1.9c2.6-3.3-1.1-6.5-0.2-9.7c0.2-0.7,0.1-1.7-0.3-2.1
			c-2.5-2.6-0.4-4,1.5-4.8c3.4-1.5,3.9-4,3.8-7.3c-0.5-50.5-0.9-101-1.2-151.6c0-1.7,1.3-3.4,1.8-5.1c0.4-1.3,0.7-2.6,0.7-3.9
			c-0.2-29.3-0.5-58.6-0.7-87.8c-0.2-19.7-0.3-39.5-0.5-59.2C22.2,23.3,22.3,20.1,17.8,19.9L17.8,19.9z"/>
	</g>
</g>
</svg>
