<?xml version="1.0" encoding="utf-8"?>
<svg version="1.1" id="Layer_1" xmlns="http://www.w3.org/2000/svg" xmlns:xlink="http://www.w3.org/1999/xlink" x="0px" y="0px"
	 viewBox="0 0 104 476" style="enable-background:new 0 0 104 476;" xml:space="preserve">
<g id="aBPB01.tif">
	<g>
		<path d="M97.5,220.6c0,0.2,0.5,1.4,0.2,2.3c-2.3,6.2-5.2,9.7-12.2,9.6c-5.1-0.1-10.1,0-15.2-0.1c-0.1,0-0.2,0.1-0.6,0.3
			c-0.1,0.4-0.2,0.9-0.2,1.5c-0.6,20.4-1.7,40.8-1.7,61.2c0,11.4,2.1,22.7,2.7,34.1c0.5,9,1.2,18.2,0.1,27.2
			c-3.7,31.9-4.1,63.9-1.3,95.9c0.3,3.6-0.1,7.3-0.6,10.9c-0.1,1-1.7,2.6-2.6,2.6c-9.7,0-19.3-0.3-29-0.5c-3.1-0.1-4.3-1.9-4-5
			c0.9-8.3,2.3-16.7,2.4-25c0.2-15-0.2-29.9-0.6-44.9c-0.4-15.5-1.4-30.9-1.4-46.4c0-11.5,1.3-23.1,1.8-34.6c0.5-10.4,0-20.7-2.3-31
			c-0.5-2.4-1.2-4.8,1.4-6.7c0.6-0.4,0.5-2,0.4-3c-0.7-10.2-1.4-20.5-2.2-30.7c-0.1-1.9-0.5-3.7-0.8-6.2c-4.7-0.2-10.3-0.4-15.9-0.6
			c-7.5-0.2-10.6-3.7-10.2-11c9.7,0.5,19.3,0.9,30.3,1.4c-0.3-5.7-0.8-10.7-0.7-15.6c1-40.1,1.6-80.2,3.3-120.3
			c0.8-19.4,3.3-38.8,5.5-58.1c0.7-6.2,3.2-12.1,4.8-18.2c0.5,0,0.9,0,1.4-0.1c0.9,1.9,2,3.8,2.7,5.8c5.6,15.4,9.1,31.3,10,47.6
			c1.2,21.9,1.8,43.9,2.2,65.8c0.5,30.2,0.6,60.4,0.8,90.6c0,0.5,0.1,0.9,0.2,2.2C76.6,221.5,86.6,221.1,97.5,220.6L97.5,220.6z"/>
	</g>
</g>
</svg>
