<svg xmlns="http://www.w3.org/2000/svg" xml:space="preserve" width="680.3" height="682.529" viewBox="0 0 179.996 180.586"><path d="m114.322 3.317 5.75 1.769q3.61 9.656 10.54 13.562 9.36 4.202 16.879 2.433l4.496 3.906q-1.18 10.54 4.201 16.51 6.34 8.182 14.447 9.067l2.727 5.676q-5.749 8.181-3.022 16.879 1.18 9.066 9.656 14.152v6.044q-8.476 5.086-9.656 14.152-2.727 8.403 3.022 16.805l-2.727 5.455q-8.108 1.18-14.447 8.992-5.38 6.34-4.201 16.88l-4.496 3.611q-7.519-1.842-16.88 2.433-6.928 3.906-10.54 13.488l-5.75 1.843q-7.223-4.865-16.51-4.865-8.771 1.548-15.036 8.477l-6.045-.59q-4.79-8.182-12.972-11.13-9.582-2.432-17.1 1.18l-5.455-3.023q-1.18-10.54-7.223-15.331-4.202-3.317-7.519-4.496-4.496-1.548-8.697-1.253l-3.612-4.791q3.612-9.656-.59-17.174-3.611-8.698-12.088-12.015L0 106.213q7.223-7.223 6.634-15.92.59-9.066-6.634-15.995l1.474-5.97Q9.951 65.6 13.562 56.534q4.202-7.813.59-17.1l3.612-4.865q4.201.295 8.697-1.474 3.317-1.18 7.519-4.201 6.044-4.865 7.223-15.7l5.454-2.654q7.519 3.612 17.1 1.18Q71.94 8.992 76.73.59L82.775 0q5.97 6.929 15.036 8.403 9.287.294 16.51-5.086m16.585 33.39q-6.044-7.224-21.67-5.75-9.95.959-23.145 9.361Q72.53 49.311 61.4 62.284q-27.42 32.505-19.606 63.831 2.727 12.31 13.562 18.059 8.108 4.79 19.606 4.79 14.079 0 31.548-16.879 8.476-8.107 14.447-16.51l-3.023-5.75q-5.38 6.045-12.898 12.089-15.037 12.014-23.808 12.014-12.604 0-17.47-14.447-4.79-15.994 7.224-38.844 9.656-17.764 21.376-28.894 11.13-10.54 18.058-8.402 3.317.59 2.727 3.316-.294 1.77-3.022 6.634-4.79 10.172.959 14.447 7.813 5.97 15.92.59 7.814-5.75 7.814-16.29 0-10.835-3.907-15.331"/></svg>