<svg xmlns="http://www.w3.org/2000/svg" xml:space="preserve" width="224.348" height="405.934" viewBox="0 0 59.359 107.403"><path d="M47.89 0c-.887.008-2.235.27-2.58.615-.414.414-.358.433.874.29a32 32 0 0 0 1.91-.272c.329-.066.597-.253.597-.413 0-.116-.18-.182-.455-.207A3 3 0 0 0 47.889 0m5.518.275a.3.3 0 0 0-.11.017c-.11.041-.081.163.015.391.4.956.469 3.295.133 4.496-.186.664-.794 1.912-1.35 2.773-1.278 1.978-.784 2.106 1.426.37 1.7-1.335 2.926-2.88 3.383-4.264.563-1.706-.622-3.279-2.775-3.683a8 8 0 0 0-.55-.09 1 1 0 0 0-.172-.01m-35.21 5.336a1 1 0 0 0-.103.016c-.297.068-.785.324-1.727.828-5.088 2.724-8.74 5.289-11.5 8.073-1.072 1.081-1.948 2.054-1.948 2.163 0 .243 2.967 3.338 3.24 3.38.109.017.2-.262.2-.62 0-1.5 1.107-3.626 2.854-5.477 1.76-1.866 5.878-4.809 8.455-6.043 1.44-.69 1.658-1.12 1.014-2-.137-.187-.233-.302-.397-.32a1 1 0 0 0-.088 0m15.638 4.483a86 86 0 0 0-2.265.01c-3.594.064-7.02.36-9.824.896-1.068.204-1.99.37-2.05.37s-.11.685-.11 1.522c-.003 3.73-1.569 10.11-3.352 13.65a42 42 0 0 1-2.109 3.616l-1.188 1.787-.373 4.727c-.572 7.237-.537 8.12.38 9.443 2.189 3.163 7.722 7.36 11.694 8.87.629.24.702.446.989 2.78.42 3.416.39 5.59-.11 7.894-.612 2.826-.578 4.855.104 6.388.697 1.564 2.249 3.55 3.768 4.818 2.722 2.275 4.636 2.732 11.527 2.752 2.927.009 5.963-.104 6.747-.251 2.253-.421 3.362-1.367 4.645-3.957.606-1.225 1.412-3.32 1.791-4.655l.689-2.428-.403-3.633c-.221-1.997-.403-4.798-.403-6.223 0-2.58.004-2.593.698-2.767 1.397-.35 2.472-1.49 3.595-3.81.993-2.05 1.093-2.445 1.083-4.259-.009-1.396-.223-2.674-.709-4.23-.808-2.58-.86-3.707-.276-6.03.232-.926.354-1.856.273-2.069-.123-.32-.897-.38-4.456-.352-3.609.03-4.013.07-2.49.246 3.606.42 5.453 2.092 5.077 4.6-.17 1.126-.198 1.153-1.285 1.257-.897.086-1.23-.013-1.73-.513-.51-.509-.603-.84-.53-1.866l.09-1.245-1.38.01c-1.585.013-2.522.673-3.177 2.239-.412.984-1.592 2.381-2.012 2.381-.374 0-.02-2.448.724-5.004l.648-2.225-.65-.51c-.717-.565-1.43-1.789-1.43-2.457 0-.39.54-.423 5.49-.33 3.02.058 5.718.207 5.996.333.485.219.498.118.338-2.528-.336-5.53-1.413-10.941-2.671-13.424-1.226-2.419-2.728-3.435-6.298-4.26-4.261-.984-9.746-1.517-15.065-1.563m3.072 21.18c1.549-.012 2.644.004 2.91.054.838.158.94.257.79.762-.094.32-.517 1.021-.938 1.558l-.767.976.936 5.771c1.074 6.62 1.493 8.404 2.39 10.174.353.697.642 1.49.642 1.76 0 .773-1.022 1.495-3.238 2.285-1.921.686-2.065.792-2.345 1.724-.222.742-.22 1.138.006 1.562.385.72.516.712 1.608-.093 1.205-.89 2.36-.846 4.247.16l1.542.822 1.985-.942c1.091-.518 2.111-1.178 2.265-1.466s.28-1.16.28-1.935c0-1.14-.203-1.793-1.056-3.391-1.944-3.641-2.628-5.144-3.004-6.61-.424-1.646-.275-2.334.24-1.109.188.445 1.1 2.098 2.028 3.672 2.49 4.218 2.961 5.429 2.973 7.623.012 2.224-.534 3.339-2.172 4.439-.602.404-1.169.97-1.26 1.256-.265.836-3.34 2.432-3.666 1.904-.078-.126-.654-.383-1.28-.573-4.13-1.247-4.526-1.425-5.696-2.545-1.179-1.129-1.196-1.169-1.079-2.579.077-.922.321-1.69.685-2.152 1.329-1.69 1.733-3.438 1.852-8.014.11-4.213.1-4.318-.554-5.424-.603-1.02-2.786-3.113-3.247-3.113-.103 0-.112.893-.02 1.985.093 1.091.08 1.981-.027 1.976-.108-.005-.426-.183-.708-.397s-.797-.389-1.142-.389c-1.374 0-2.446-1.346-2.446-3.072v-.708l-1.964.15c-1.49.111-2.435.37-3.904 1.07-1.066.507-1.977.883-2.027.835-.315-.303.44-1.269 1.62-2.076 1.567-1.07 3.85-1.746 6-1.773.806-.01 1.694-.108 1.974-.218 1.18-.462-.68-.589-6.197-.424l-5.688.17 1.322-1.214c2.328-2.137 2.033-2.07 10.493-2.348 2.085-.069 4.089-.11 5.637-.123M22.02 40.466a1 1 0 0 1 .096 0h.001q.307.026 1.147.287c1.044.325 2.957.566 5.589.704l4.002.21-1.416.857c-.78.472-1.95.93-2.6 1.02-1.063.144-1.458.021-3.885-1.216-2.32-1.182-3.323-1.826-2.934-1.862m27.67.83c.845.003 2.075.07 3.746.2l2.233.171-1.174.794c-1.701 1.15-1.877 1.186-3.312.691-1.803-.62-2.831-1.16-2.958-1.55-.061-.186.287-.286 1.127-.303q.157-.003.339-.003zM3.88 43.963a4.1 4.1 0 0 0-1.554.194c-1.321.436-1.964 1.271-2.158 2.801L0 48.281l.391-.868c.661-1.468 3.084-2.285 4.824-1.628 2.117.8 3.244 2.87 3.252 5.972.006 2.024.063 2.235.933 3.5 1.066 1.552 1.136 1.888.386 1.888-1.153 0-5.455-2.809-6.073-3.965-.415-.774-.317-1.964.293-3.596.642-1.717.505-1.953-1.138-1.96-1.255-.005-2.3.397-2.52.97-.225.59.52 3.405 1.393 5.246 1.345 2.844 4.25 5.712 7.13 7.04 1.238.57 1.335.58 1.974.239.647-.347 1.069-1.64 1.069-3.28 0-2.09-2.377-9.172-3.767-11.22-1.078-1.591-2.683-2.553-4.266-2.656M42.665 66.11c2.093 0 4.098.187 5.305.56 2.85.88 3.058 1.807.29 1.29-1.578-.294-11.83-.158-13.493.18-.478.096-.901.051-1-.109-.247-.4.568-.76 3.068-1.36 1.556-.373 3.737-.56 5.83-.56zm.452 3.206c1.01.003 3.384.987 3.909 1.62.269.327.175.369-.62.276-.667-.078-1.156.052-1.696.452-.87.641-.864.641-2.104.163-.509-.196-1.729-.366-2.712-.376-.982-.01-1.781-.109-1.777-.219.029-.688 3.246-1.92 5-1.916M16.779 77.64c-.192-.051-.09.684.312 2.826.698 3.728 2.135 8.487 3.212 10.638.353.706.578 1.348.498 1.428s-1.452-.697-3.05-1.727l-2.905-1.872-.805.916c-.442.504-.804 1.073-.804 1.264 0 .93 7.442 8.554 10.847 11.114 5.345 4.017 11.622 5.882 16.614 4.935 3.092-.586 4.934-1.992 6.251-4.771l.816-1.722-.02-5.159c-.022-5.654-.187-7.144-.792-7.144-.494 0-.82.772-1.164 2.758-.326 1.878-.735 2.555-2.175 3.598-3.285 2.379-6.75 1.616-12.604-2.775-5.268-3.953-7.997-6.935-10.273-11.228-.75-1.415-1.288-2.092-1.941-2.442-.695-.373-.954-.41-1.12-.16-.161.244-.315.196-.607-.187-.13-.169-.226-.273-.29-.29"/></svg>