<?xml version="1.0" encoding="UTF-8" standalone="no"?>
<svg
   width="75.006371mm"
   height="116.4119mm"
   viewBox="0 0 75.006371 116.4119"
   version="1.1"
   xml:space="preserve"
   xmlns="http://www.w3.org/2000/svg"
   xmlns:svg="http://www.w3.org/2000/svg"><path
     style="fill:#000000;stroke-width:1.04976"
     d="m 34.540631,114.10155 c -2.604378,-3.61976 -2.839336,-3.96572 -5.054333,-7.44222 -1.147656,-1.80127 -2.017376,-3.33788 -1.932732,-3.41469 0.08463,-0.0768 1.499073,0.4345 3.143168,1.13626 3.063659,1.30767 6.973069,2.36196 9.883308,2.66532 0.90246,0.0941 1.80059,0.26063 1.995843,0.37014 0.51146,0.28683 -5.313557,8.98578 -6.02362,8.99554 -0.190271,0.003 -1.095509,-1.03704 -2.011634,-2.31035 z m -3.473834,1.40211 C 21.793193,113.72881 11.16188,108.91039 6.4232101,104.33445 4.5653761,102.54042 2.3421811,99.7681 0.7887597,97.3083 L 0,96.05933 1.5380041,95.35614 c 0.845902,-0.38675 1.886275,-0.92604 2.31194,-1.19842 1.049489,-0.67155 1.370511,-0.62428 1.577781,0.23237 1.043924,4.31457 2.536691,8.17792 4.088071,10.58013 0.5977219,0.92553 0.8346459,1.11415 1.0206409,0.81256 0.538537,-0.87324 0.619324,-8.01844 0.151154,-13.36865 -0.6998009,-7.997246 -0.646163,-8.399116 0.698563,-5.233926 0.909995,2.14192 4.34511,8.378246 5.849454,10.619456 1.903771,2.83631 4.865241,6.65026 6.882308,8.86345 2.372066,2.60271 7.477753,7.02471 9.556367,8.27672 0.891165,0.53677 1.620292,1.02911 1.620292,1.09409 0,0.21419 -0.980614,0.0912 -4.227778,-0.53026 z m 7.750927,0.54642 c 0.06678,-0.0561 1.695966,-1.05788 3.620334,-2.22619 6.325677,-3.84038 13.752996,-9.92152 17.99985,-14.73744 1.283257,-1.45521 2.464876,-2.7649 2.625823,-2.91042 0.323635,-0.29262 0.12943,2.94766 -0.401403,6.69772 -0.171273,1.20989 -0.25421,2.2517 -0.18431,2.31513 0.39197,0.3557 4.813392,-6.76207 6.953377,-11.1938 l 0.41433,-0.85803 2.624137,1.46442 c 1.443267,0.80544 2.584013,1.59841 2.534985,1.76217 -0.291314,0.97302 -3.569179,4.72139 -6.325413,7.23335 -6.995506,6.37556 -15.953938,10.48832 -26.532944,12.18111 -2.299565,0.36797 -3.566391,0.47147 -3.328766,0.27198 z M 34.036609,97.60636 C 29.302539,96.97825 26.003615,95.32015 21.736539,91.42416 14.209575,84.551774 8.0439281,74.164794 5.1599091,63.498304 3.7829591,58.405684 2.2603441,49.406307 2.0042511,44.846877 l -0.07431,-1.32292 h 1.239201 c 1.456668,0 1.693889,-0.25657 1.94536,-2.10401 0.423846,-3.11383 1.156573,-5.753626 2.382723,-8.584265 0.796058,-1.837748 1.243328,-3.242545 1.145267,-3.597087 -0.08849,-0.319951 -0.885129,-1.018084 -1.770303,-1.551407 -0.885174,-0.533323 -1.609406,-1.047973 -1.609406,-1.143666 0,-0.09569 0.603334,-1.195805 1.340742,-2.444693 C 10.169985,18.058608 15.66665,13.224816 21.93958,10.612234 c 1.331602,-0.554591 2.781911,-1.0878966 3.222909,-1.1851236 0.539308,-0.1189 0.801826,-0.348372 0.801826,-0.700902 0,-0.288269 -0.06182,-0.524126 -0.137397,-0.524126 -0.516585,0 -5.191676,1.727593 -6.533283,2.4142576 -5.745687,2.940769 -11.0944419,8.119545 -14.1758199,13.725325 -0.974203,1.772314 -0.834512,1.63594 -1.454568,1.420026 -0.44996,-0.156684 -0.492686,-0.40531 -0.330719,-1.924457 C 4.4208491,13.629539 13.304453,4.3970934 25.357323,0.9475704 28.12407,0.155731 28.28235,0.211571 28.296246,1.9843744 c 0.01124,1.438634 1.047054,5.900146 1.479567,6.373048 0.291942,0.319208 1.630717,0.370711 8.10846,0.311935 l 7.758784,-0.0704 0.373545,-1.035017 C 46.222047,6.9946804 46.610987,5.0599144 46.8809,3.2644614 47.160389,1.4053714 47.505646,0 47.682869,0 c 0.57757,0 4.946387,1.3720744 6.80945,2.1385794 3.071847,1.263829 6.497513,3.311332 9.155745,5.472359 5.218609,4.2424846 7.977884,8.6324856 9.102321,14.4817406 0.364145,1.894235 0.35837,2.165294 -0.05488,2.579688 -0.253989,0.254676 -0.605461,0.459558 -0.781064,0.455292 -0.175604,-0.0043 -0.909712,-0.984771 -1.631346,-2.178902 C 66.387912,16.503188 59.895149,11.129204 53.441551,9.0092054 49.82973,7.8227284 49.873144,7.8298034 49.873144,8.4275724 c 0,0.400483 0.364685,0.633321 1.530744,0.977331 7.047829,2.0792356 13.534387,7.2012126 17.815546,14.0676876 0.745382,1.195499 1.347933,2.326593 1.339007,2.513542 -0.0088,0.186949 -0.821486,0.824276 -1.805693,1.416284 -0.984207,0.592007 -2.041245,1.382388 -2.348979,1.756403 l -0.559496,0.680027 1.625318,3.006096 c 1.418328,2.623287 3.105071,6.996394 3.105071,8.050324 0,0.19516 0.152275,0.65809 0.33838,1.02874 0.296361,0.59024 0.51783,0.67391 1.783907,0.67391 h 1.445537 l -0.201842,2.3151 c -1.131291,12.975897 -4.079482,23.641477 -9.014083,32.609897 -4.602073,8.36408 -9.683835,14.176496 -15.309043,17.510196 -4.025429,2.38561 -9.803181,3.33983 -15.580889,2.57325 z m -0.724642,-5.01448 c 0.767466,-0.69643 0.864861,-0.93927 0.716344,-1.78594 -0.211407,-1.205126 -1.351305,-2.170536 -2.562844,-2.170536 -1.108854,0 -2.585446,1.26569 -2.585446,2.216156 0,2.33589 2.635268,3.3707 4.431946,1.74032 z m 12.79316,0.0326 c 0.58168,-0.52785 0.852287,-1.03834 0.852287,-1.60786 0,-1.106886 -1.371296,-2.381246 -2.562392,-2.381246 -1.846533,0 -3.137967,1.85048 -2.342312,3.356276 0.797947,1.51013 2.749743,1.81493 4.052417,0.63283 z m 0.77939,-7.494416 c 0.860606,-0.72896 0.906648,-2.5008 0.08573,-3.30038 -1.431938,-1.39474 -3.998584,-0.7925 -4.509119,1.05802 -0.351031,1.2724 0.123094,2.21694 1.362083,2.71346 1.124867,0.4508 2.161165,0.29132 3.06129,-0.4711 z m -13.726709,-0.0385 c 1.156472,-0.90268 1.156472,-2.59306 0,-3.49574 -0.928633,-0.72485 -1.905027,-0.80265 -3.090646,-0.24629 -0.965495,0.45306 -1.187141,0.87524 -1.187141,2.26118 0,1.92697 2.567539,2.81578 4.277787,1.48085 z m -9.699615,-4.43037 c 0.40072,-0.16568 0.935543,-0.69699 1.188485,-1.18069 0.398968,-0.76295 0.406814,-0.99467 0.05918,-1.74928 -0.773196,-1.67852 -2.433612,-2.22621 -3.797557,-1.25263 -1.137727,0.8121 -1.421337,1.62334 -0.986742,2.82246 0.524464,1.44707 1.976084,2.00535 3.536593,1.36014 z m 31.508308,-0.0751 c 1.959014,-0.74277 2.026049,-3.38905 0.11053,-4.36336 -1.175756,-0.59804 -2.830123,-0.13738 -3.552649,0.98925 -0.48985,0.76381 -0.519152,1.01611 -0.222438,1.91481 0.218074,0.66049 0.628095,1.1761 1.132999,1.42478 1.00174,0.49338 1.310244,0.49758 2.531558,0.0345 z m -22.273626,-4.1012 c 1.760676,-1.59771 0.677719,-4.10936 -1.771862,-4.10936 -1.580631,0 -2.628787,0.98211 -2.614858,2.45012 0.02127,2.24225 2.648965,3.23615 4.38672,1.65924 z m 13.355169,0.48013 c 1.855911,-0.58709 2.328393,-2.69308 0.895837,-3.99304 -0.76093,-0.6905 -1.038546,-0.78389 -1.937018,-0.65158 -2.90205,0.42734 -3.387415,3.8508 -0.673586,4.75104 0.649585,0.21548 0.708817,0.2118 1.714767,-0.10642 z m -31.900243,-2.43679 c 0.956515,-1.3247 3.895903,-10.10484 3.500903,-10.45741 -0.399773,-0.35683 -3.450231,3.01063 -4.4394,4.90075 -0.793626,1.51647 -1.007131,2.25406 -1.007131,3.4793 0,2.35717 0.984554,3.40838 1.945628,2.07736 z m 49.071786,-0.1827 c 0.609957,-1.04095 0.260744,-3.49034 -0.767521,-5.38343 -0.799258,-1.47148 -4.300653,-5.1249 -4.627429,-4.82836 -0.174491,0.15833 2.206831,7.67309 2.898535,9.14696 0.305044,0.64998 0.699053,1.33969 0.875572,1.5327 0.459842,0.50279 1.172638,0.29704 1.620843,-0.46787 z m -26.34589,-6.18982 c 0.329795,-1.59524 1.919728,-1.35538 1.919728,0.28961 0,0.72929 0.414748,0.76516 2.107993,0.1823 1.352418,-0.46554 2.557147,-1.4712 2.557147,-2.13461 0,-0.80218 -4.611605,-4.31597 -5.664401,-4.31597 -0.841729,0 -5.415293,3.57936 -5.415293,4.23811 0,0.95448 0.40515,1.39029 1.866512,2.00777 2.028242,0.857 2.403792,0.81882 2.628314,-0.26721 z m -25.746368,0.0907 c 1.805406,-0.87679 0.913572,-3.68808 -1.1699809,-3.68808 -1.363558,0 -1.679345,2.5268 -0.427463,3.42038 0.8947849,0.63869 0.8492459,0.63106 1.5974439,0.2677 z m 54.623342,0.11632 c 0.584214,-0.20344 1.325122,-1.46095 1.325122,-2.24907 0,-0.7075 -0.783952,-1.55533 -1.438165,-1.55533 -0.800482,0 -1.713301,0.75461 -1.913535,1.58189 -0.319447,1.31979 0.02645,1.86433 1.505542,2.37009 0.027,0.009 0.261438,-0.0572 0.521036,-0.14758 z M 8.7944611,61.882714 c 0.816994,-0.74137 0.584673,-2.24229 -0.476595,-3.07906 -0.90831,-0.71617 -1.357906,-0.74647 -1.963075,-0.1323 -0.851512,0.86419 -0.760111,2.24346 0.206812,3.12088 0.877242,0.79605 1.430614,0.81847 2.232858,0.0905 z m 60.4317299,-0.0456 c 0.281837,-0.18701 0.584556,-0.82803 0.672716,-1.42449 0.289793,-1.96053 -1.51536,-2.80712 -2.896,-1.35819 -0.585306,0.61425 -0.683428,2.33055 -0.160363,2.80519 0.459941,0.41738 1.7389,0.4053 2.383647,-0.0225 z M 26.41563,55.836984 c 2.213863,-0.98442 4.247185,-2.78552 5.255074,-4.654867 2.520251,-4.67443 -2.160636,-9.78779 -10.089426,-11.02158 -3.4282,-0.53345 -8.019172,0.35048 -9.340297,1.79836 -0.294593,0.32286 -0.407183,1.08951 -0.381689,2.59902 0.04958,2.9354 0.565442,4.99107 1.784589,7.1114 2.677391,4.656517 7.865249,6.349407 12.771749,4.167667 z m 31.070693,0.278 c 4.038355,-1.88601 6.574806,-6.624677 6.337942,-11.840657 -0.09158,-2.01613 -0.173146,-2.28624 -0.830456,-2.74919 -1.004021,-0.70714 -3.253324,-1.29256 -5.693228,-1.48177 -5.21138,-0.40413 -11.787834,2.51016 -13.526591,5.99418 -2.036959,4.08155 1.195427,8.804617 7.265413,10.615987 1.386316,0.41369 5.06618,0.1063 6.44692,-0.53855 z M 40.516478,39.995207 c 3.09219,-1.90664 7.301333,-4.14798 10.545637,-5.615444 1.3506,-0.610906 2.961614,-1.342342 3.580034,-1.625411 1.449824,-0.663634 5.144378,-2.811326 5.144378,-2.990495 0,-0.07567 -0.492021,0.05359 -1.093393,0.287246 -3.818838,1.483764 -13.664947,3.160837 -20.322194,3.461447 -6.592935,0.297707 -17.030658,-1.347552 -21.518211,-3.391835 -0.601367,-0.273949 -1.093393,-0.443697 -1.093393,-0.377219 0,0.353161 5.385925,3.266585 9.330269,5.047051 4.507719,2.03477 8.511483,4.15171 11.051229,5.84317 0.737293,0.49104 1.459863,0.89575 1.605724,0.89935 0.14586,0.004 1.392332,-0.68842 2.76992,-1.53786 z m -7.32313,-10.294714 c 1.37372,-1.690107 0.264083,-4.035861 -1.909127,-4.035861 -1.341122,0 -2.089457,0.414208 -2.548154,1.410426 -0.674214,1.464267 0.172188,3.114698 1.747596,3.407703 0.857642,0.159511 2.277348,-0.250348 2.709685,-0.782268 z m 12.729464,0.352162 c 1.79485,-0.680523 2.228993,-2.702854 0.849047,-3.955069 -1.078152,-0.97836 -2.498277,-0.94866 -3.627298,0.07586 -1.521058,1.380267 -0.94426,3.628056 1.042921,4.064288 0.320737,0.07041 0.620162,0.141825 0.665399,0.158705 0.04529,0.01688 0.526712,-0.137822 1.069931,-0.343784 z M 24.141995,26.320268 c 0.730075,-0.762472 0.877159,-2.356738 0.282299,-3.059814 -1.002213,-1.184519 -2.690301,-1.333246 -3.977459,-0.350428 -0.746924,0.57033 -0.897082,0.876387 -0.897082,1.828564 0,0.961326 0.148461,1.256939 0.931476,1.854823 0.757118,0.578102 1.125527,0.683231 1.968105,0.561619 0.601714,-0.08685 1.311865,-0.437071 1.692661,-0.834764 z m 31.489651,-0.283477 c 1.965031,-1.995638 -0.62803,-5.024358 -3.226446,-3.768525 -0.995404,0.481082 -1.34649,1.058468 -1.356518,2.230879 -0.01895,2.210776 2.941965,3.204195 4.582964,1.537646 z m -31.6127,-7.791957 c 2.142905,-1.529595 0.379363,-4.98403 -2.239881,-4.387488 -1.413105,0.321839 -2.083518,1.084401 -2.083518,2.369885 0,2.25186 2.415782,3.37924 4.323399,2.017603 z m 31.416445,-0.232766 c 2.476932,-2.247669 -1.03577,-5.713192 -3.690565,-3.640998 -0.629352,0.491243 -0.784943,0.841762 -0.784943,1.768359 0,0.962483 0.153641,1.280241 0.919079,1.900854 1.230691,0.99785 2.436246,0.988285 3.556429,-0.02822 z" /></svg>
