<?xml version="1.0" encoding="UTF-8" standalone="no"?>
<svg
   width="78.636841mm"
   height="101.57169mm"
   viewBox="0 0 78.636841 101.57169"
   version="1.1"
   xml:space="preserve"
   xmlns="http://www.w3.org/2000/svg"
   xmlns:svg="http://www.w3.org/2000/svg"><path
     style="fill:#000000"
     d="m 78.107679,101.05928 c 0.29104,-0.29105 0.52916,-0.75941 0.52916,-1.04082 0,-0.281405 -1.78195,-2.930545 -3.9599,-5.886975 -2.17795,-2.95644 -3.96388,-5.45492 -3.96875,-5.5522 -0.005,-0.0973 0.40172,-0.4306 0.90353,-0.74074 1.06796,-0.66003 1.3913,-1.42574 0.89606,-2.12193 -0.19428,-0.2731 -2.31776,-2.21457 -4.71885,-4.31438 -5.96802,-5.21915 -5.60084,-4.67719 -3.97661,-5.86949 2.13018,-1.56369 2.40656,-2.67208 1.05119,-4.21576 l -0.80874,-0.92111 0.54416,-1.76179 c 1.0241,-3.31567 0.6021,-7.85223 -1.0089,-10.84575 -0.39499,-0.73397 -3.10634,-4.6035 -6.02523,-8.59896 -4.24956,-5.81694 -12.40954,-17.0588 -20.38273,-28.08093 -1.47939,-2.0451 -4.493747,-3.6575 -6.837657,-3.6575 -1.30373,0 -3.10365,0.63575 -4.93298,1.74237 -2.07172,1.25325 -10.10652,7.05245 -11.23757,8.11083 -1.40569,1.31537 -2.23632,3.1536 -2.39602,5.30249 -0.22879,3.07857 0.16099,3.96971 4.07585,9.31826 0.8521,1.16417 3.81576,5.27183 6.58589,9.12813 14.023347,19.52187 17.158537,23.77263 18.304837,24.81803 1.52488,1.39068 4.4489,2.86882 6.40701,3.23886 0.80036,0.15125 2.26775,0.25083 3.26087,0.2213 l 1.80566,-0.0537 0.64118,1.07521 c 1.14507,1.92021 2.26149,1.92992 4.64718,0.0404 0.57563,-0.4559 1.09223,-0.78328 1.14801,-0.7275 0.0558,0.0558 1.39956,2.83833 2.98619,6.18346 3.25167,6.85559 3.25658,6.86072 5.21543,5.45398 l 1.12139,-0.80533 3.76198,5.1493 c 2.06908,2.83211 3.9402,5.327515 4.15802,5.545335 0.55493,0.55493 1.58429,0.49293 2.21034,-0.13311 z M 47.090629,74.603785 c -2.33091,-0.71995 -3.66466,-1.76482 -5.50899,-4.3158 -0.86263,-1.19314 -4.58882,-6.33276 -8.280437,-11.42139 l -6.71203,-9.25205 1.08686,-0.8226 c 1.7609,-1.33277 14.516827,-10.5714 15.283747,-11.06944 0.69662,-0.45239 0.70918,-0.4485 1.35179,0.41767 0.35675,0.48087 2.70845,3.73181 5.226,7.22431 2.51755,3.4925 5.66324,7.83828 6.99043,9.65729 1.32718,1.81901 2.66607,3.72401 2.97531,4.23333 1.43488,2.36329 1.81291,6.14409 0.88423,8.84336 -1.86374,5.41704 -7.65198,8.24886 -13.29691,6.50532 z m 7.3776,-2.14232 c 1.84261,-0.70858 3.37278,-2.39382 3.93757,-4.33661 0.4595,-1.58063 0.38502,-2.25517 -0.249,-2.25517 -0.40011,0 -7.42877,5.14542 -8.04142,5.88683 -0.28972,0.3506 -0.24952,0.48121 0.25731,0.83621 0.80222,0.5619 2.42856,0.50977 4.09554,-0.13126 z m -9.36732,-15.61189 c 0.84919,-0.58933 1.52085,-1.25557 1.52022,-1.50795 -6.3e-4,-0.24868 -0.3573,-0.98792 -0.79262,-1.64277 -0.43532,-0.65484 -0.79173,-1.30969 -0.79204,-1.45521 -3.1e-4,-0.14552 0.53321,-0.62177 1.18559,-1.05833 0.65237,-0.43656 1.25431,-0.99851 1.33763,-1.24877 0.22476,-0.67512 -1.86568,-3.64602 -2.56549,-3.64602 -0.3025,0 -1.11769,0.41672 -1.81153,0.92604 -0.69383,0.50932 -1.33634,0.92604 -1.42779,0.92604 -0.0914,0 -0.58954,-0.66166 -1.10685,-1.47035 -1.09839,-1.71705 -1.3901,-1.88054 -2.40241,-1.34647 -1.10066,0.58069 -2.75959,2.29608 -2.5596,2.64672 0.0949,0.16632 0.57026,0.85413 1.05644,1.52847 0.48618,0.67434 0.87966,1.32918 0.87439,1.4552 -0.005,0.12603 -0.62909,0.6478 -1.38627,1.15951 -0.75718,0.5117 -1.4155,1.13185 -1.46293,1.37811 -0.10185,0.52886 1.94487,3.64464 2.39412,3.64464 0.17015,0 0.98831,-0.47625 1.81813,-1.05833 0.82982,-0.58208 1.56227,-1.05833 1.62768,-1.05833 0.0654,0 0.55372,0.65484 1.08513,1.45521 0.57235,0.86202 1.15384,1.44974 1.42652,1.4418 0.25318,-0.007 1.14493,-0.48852 1.98168,-1.06921 z M 20.687502,41.229725 c -2.21623,-3.07447 -4.19245,-5.90221 -4.39158,-6.28385 -0.62374,-1.19539 -0.42022,-3.20743 0.32444,-3.20743 0.26286,0 0.36948,0.36045 0.37175,1.25677 0.004,1.61779 0.36792,2.23682 4.84893,8.25043 3.24609,4.35633 3.92798,5.57405 3.12128,5.57405 -0.13491,0 -2.05858,-2.51549 -4.27482,-5.58997 z m 9.58013,0.64275 c -0.11469,-0.80607 2.67192,-2.7099 3.34501,-2.28532 0.722,0.45543 0.51278,1.02122 -0.74872,2.02471 -1.37226,1.0916 -2.46248,1.20104 -2.59629,0.26061 z m -2.68606,-3.76664 c -0.38562,-0.72053 -0.40376,-0.68775 0.95478,-1.72507 1.40205,-1.07054 2.3529,-1.21205 2.61411,-0.38905 0.20392,0.64248 0.28805,0.53668 -1.35654,1.70594 -1.4853,1.05601 -1.83146,1.11988 -2.21235,0.40818 z m 10.802497,-3.65542 c -4.512547,-6.63092 -7.186217,-10.12789 -7.849767,-10.26696 -1.11564,-0.23382 -1.49954,-0.51931 -1.59811,-1.18846 -0.11072,-0.75163 0.56668,-1.31072 1.58808,-1.31072 1.69226,0 2.34232,0.648 6.535427,6.5147 2.23492,3.12694 4.12421,5.91754 4.19842,6.20132 0.18819,0.71963 -0.38255,1.3069 -1.27013,1.3069 -0.59669,0 -0.92224,-0.25509 -1.60392,-1.25678 z M 8.9311622,30.824425 c 0.45541,-0.45541 0.65248,-0.94944 0.65963,-1.65364 0.009,-0.92913 0.18993,-1.16249 2.4138598,-3.12089 4.64608,-4.09134 9.18318,-7.32152 14.24469,-10.14146 1.67349,-0.93236 3.34037,-1.68796 3.70417,-1.67911 0.3638,0.009 1.04687,0.0428 1.51794,0.0754 1.75573,0.12169 2.40111,-1.46566 1.50573,-3.703433 -0.27335,-0.6831497 -0.67714,-1.1476747 -1.17795,-1.3551177 -0.70405,-0.291628 -1.06997,-0.164362 -4.8096,1.6727597 -2.22617,1.093621 -4.53764,2.293561 -5.13661,2.666541 -1.28615,0.80088 -1.01436,1.00819 -3.60433,-2.749166 l -1.7326,-2.5135417 0.92276,-1.058333 c 1.3186,-1.512329 2.19591,-3.366812 2.19591,-4.641765 0,-0.858975 -0.1692,-1.256676 -0.80521,-1.89269202 -0.73761,-0.737607 -0.92321,-0.795425 -2.21069,-0.688658 -3.49303,0.28967 -11.0649698,5.20469602 -14.7349198,9.56459602 -0.86827,1.0314977 -1.67491996,2.2363297 -1.79256996,2.6773997 -0.296,1.10977 0.13987,2.20718 1.12326996,2.82807 1.11296,0.70268 3.53221,0.53651 5.53444,-0.38014 l 1.46048,-0.66863 1.44998,2.02487 c 0.7974898,1.11367 1.7539598,2.47786 2.1254798,3.03151 l 0.6755,1.00665 -1.10923,0.96094 c -3.0348698,2.62912 -7.0623598,6.84121 -7.0623598,7.38604 0,1.13427 2.21312,3.00118 3.55774,3.00118 0.23928,0 0.7273,-0.29224 1.08449,-0.64943 z m 3.9926998,-17.40838 c -1.41469,-2.00091 -2.68878,-3.6380197 -2.8313,-3.6380197 -0.1425198,0 -1.2213098,0.4837737 -2.3972998,1.0750517 -1.176,0.591279 -2.18625,1.026978 -2.24501,0.968218 -0.17248,-0.17248 2.54088,-2.7316997 4.25,-4.0085637 2.0405798,-1.5245 5.4043998,-3.446761 5.6324698,-3.218688 0.0978,0.09777 -0.68444,1.006439 -1.73824,2.019272 -2.2528,2.165235 -2.35445,1.560052 1.0528,6.2679397 1.2879,1.77954 2.34165,3.34259 2.34165,3.47346 0,0.33179 -1.15706,1.08424 -1.34176,0.87256 -0.0831,-0.0953 -1.30861,-1.81032 -2.72331,-3.81123 z" /></svg>
