<?xml version="1.0" encoding="UTF-8" standalone="no"?>
<svg
   width="80.476715mm"
   height="104.12502mm"
   viewBox="0 0 80.476715 104.12502"
   version="1.1"
   xml:space="preserve"
   xmlns="http://www.w3.org/2000/svg"
   xmlns:svg="http://www.w3.org/2000/svg"><path
     style="fill:#000000"
     d="m 40.128232,104.06613 c -0.03824,-0.79974 -1.865173,-4.2342 -3.734233,-7.01999 -1.048057,-1.5621 -2.023586,-3.26765 -2.167844,-3.79011 l -0.262287,-0.94993 -0.711606,1.40429 -0.711607,1.40429 -0.968901,-3.12731 c -0.532896,-1.72003 -1.004005,-3.36255 -1.04691,-3.65006 -0.05321,-0.3566 -0.32622,-1e-4 -0.858963,1.12166 -0.429525,0.90442 -0.854972,1.55637 -0.945437,1.44878 -0.471401,-0.56063 -2.760327,-7.13865 -3.289073,-9.45229 -0.169026,-0.73961 -0.199516,-0.75649 -0.477903,-0.26458 -0.163547,0.28898 -0.563667,1.17741 -0.889156,1.97427 l -0.591797,1.44885 -0.3041,-0.78739 c -0.781278,-2.02292 -1.381779,-4.99477 -1.509736,-7.4716 -0.161649,-3.12901 -0.341326,-3.18267 -1.555484,-0.46453 -0.420247,0.94081 -0.837804,1.71376 -0.927904,1.71767 -0.568194,0.0247 -0.66599,-5.96398 -0.126659,-7.75604 0.204039,-0.67798 0.290063,-1.23268 0.191163,-1.23268 -0.346218,0 -1.500329,0.8823 -2.905623,2.2213 -0.942455,0.898 -1.368326,1.17325 -1.270878,0.82141 0.08061,-0.29104 0.228383,-0.99001 0.328389,-1.55326 0.245863,-1.38473 1.55513,-4.75 2.507984,-6.44638 0.427891,-0.76178 0.777984,-1.45747 0.777984,-1.54599 0,-0.0885 -0.585677,0.32942 -1.301505,0.92874 l -1.301505,1.08969 0.898091,-2.51275 c 0.8516,-2.38268 1.73108,-6.18307 2.069781,-8.9439 l 0.154182,-1.25678 h -1.601769 -1.601768 l 1.011517,-1.32352 1.011518,-1.32353 2.513541,0.12865 c 6.205029,0.31759 12.435068,0.43181 12.431365,0.22791 -0.01322,-0.72801 -0.664387,-0.81805 -7.239921,-1.00117 -3.765903,-0.10487 -7.023714,-0.25845 -7.239579,-0.34129 -0.314867,-0.12082 -0.358495,-0.46977 -0.220617,-1.76456 1.060073,-9.95487 3.951965,-16.02744 9.555316,-20.06481 2.014522,-1.45152 11.641301,-6.55226 12.366283,-6.55226 0.537191,0 9.106031,4.32254 11.038821,5.56852 5.3332,3.43807 8.14877,7.50809 9.79277,14.15585 0.71335,2.88454 1.53981,8.45658 1.29065,8.70161 -0.0568,0.0558 -3.34132,0.18838 -7.29901,0.29456 -5.78748,0.15529 -7.22357,0.26546 -7.33772,0.56295 -0.0781,0.20343 0.005,0.42616 0.18433,0.49496 0.17945,0.0688 3.48143,0.0115 7.33773,-0.12735 l 7.01146,-0.25244 0.99147,1.10952 c 0.54531,0.61024 0.99179,1.1926 0.99218,1.29414 4e-4,0.10154 -0.62436,0.2206 -1.38834,0.26458 l -1.38906,0.08 0.0806,1.32291 c 0.12122,1.99044 1.02781,6.21211 1.8762,8.73679 0.41463,1.23388 0.69419,2.24342 0.62124,2.24342 -0.0729,0 -0.60413,-0.42597 -1.18041,-0.94661 -1.04352,-0.94275 -1.73695,-1.07142 -0.92219,-0.17111 0.69572,0.76875 2.31506,4.53725 2.85761,6.65015 0.67712,2.63696 0.64734,2.99196 -0.16458,1.96193 -0.67076,-0.85095 -3.24334,-2.87745 -3.42377,-2.69702 -0.054,0.054 0.0793,0.75285 0.29609,1.55302 0.41257,1.52247 0.35664,5.6264 -0.0929,6.81531 -0.20154,0.533 -0.33907,0.37493 -1.26619,-1.45521 l -1.04009,-2.05317 -0.19611,2.51354 c -0.18376,2.35521 -1.21856,7.13385 -1.75072,8.08478 -0.18472,0.33008 -0.36471,0.0784 -0.8023,-1.12168 -0.31028,-0.85098 -0.74275,-1.78354 -0.96104,-2.07235 -0.38006,-0.50286 -0.39724,-0.48967 -0.4053,0.31091 -0.01,0.9482 -1.1279,4.45753 -2.45444,7.70191 l -0.8946,2.18793 -0.58971,-1.30482 c -0.32433,-0.71765 -0.76332,-1.44891 -0.97552,-1.62502 -0.3254,-0.27007 -0.38581,-0.17666 -0.38581,0.59656 0,0.50422 -0.40691,2.09637 -0.90424,3.53813 l -0.90423,2.62136 -0.56205,-1.30455 -0.56205,-1.30455 -0.86226,1.70143 c -0.47424,0.93578 -1.58348,2.77298 -2.46498,4.08267 -1.88508,2.80075 -2.1079,3.20632 -2.744648,4.99578 -0.265034,0.74482 -0.490579,1.17227 -0.501212,0.94988 z M 33.631749,77.54912 c 1.196673,-1.9663 1.152312,-1.90731 1.313252,-1.74637 0.07027,0.0703 0.01905,0.50684 -0.113823,0.97014 -0.132874,0.46331 -0.160603,0.83659 -0.06162,0.82953 0.09898,-0.007 0.71575,-0.68407 1.370593,-1.50444 2.166695,-2.7144 2.16913,-2.71605 4.004246,-2.71605 1.632445,0 1.656915,0.0112 2.759045,1.25677 0.6116,0.69123 1.49263,1.67349 1.95784,2.18281 l 0.84584,0.92605 -0.14373,-1.05834 -0.14374,-1.05833 0.51191,0.66146 c 0.28155,0.3638 0.78306,1.16747 1.11448,1.78593 0.33142,0.61847 0.67368,1.12448 0.7606,1.12448 0.0869,0 -8.9e-4,-1.14819 -0.19512,-2.55154 -0.54445,-3.93388 -1.84128,-5.64247 -5.00545,-6.59475 -4.451986,-1.33985 -8.820756,0.97918 -9.626876,5.11014 -0.237277,1.21592 -0.523543,4.03615 -0.409688,4.03615 0.03072,0 0.508725,-0.74414 1.062241,-1.65364 z m -1.906989,-9.814 c 0.745711,-0.97768 4.09597,-3.34902 4.731533,-3.34902 0.207499,0 1.122512,0.29206 2.033364,0.64902 l 1.656093,0.64901 1.872542,-0.69408 1.87253,-0.69408 1.21789,0.63559 c 1.93571,1.01021 4.13543,3.35395 4.56157,4.86024 l 0.36049,1.27423 0.99219,-1.4411 c 0.5457,-0.79261 0.99219,-1.61989 0.99219,-1.83842 0,-0.21852 -0.29766,-1.27246 -0.66146,-2.34208 -0.3638,-1.06962 -0.66146,-2.07781 -0.66146,-2.24042 0,-0.16262 0.50646,-0.43112 1.12547,-0.59668 2.34443,-0.62704 4.59832,-2.93765 5.57383,-5.7141 0.64782,-1.8438 0.93487,-5.53582 0.41655,-5.35758 -0.20294,0.0698 -2.57887,0.31262 -5.27986,0.53965 -2.70098,0.22703 -5.30303,0.52524 -5.78232,0.6627 -0.52485,0.15053 -2.00675,1.30568 -3.72607,2.90449 l -2.854638,2.65457 -1.417209,-1.34407 c -3.043394,-2.88634 -4.624501,-4.15144 -5.38596,-4.3095 -0.873952,-0.18141 -9.347493,-0.94896 -10.533398,-0.95414 -0.73578,-0.003 -0.741929,0.0103 -0.569195,1.25352 0.660327,4.75244 1.998206,7.39926 4.451476,8.80666 0.747698,0.42894 1.746404,0.85371 2.219347,0.94393 0.472943,0.0902 0.857546,0.29961 0.854675,0.46531 -0.0029,0.16571 -0.356014,1.29604 -0.784762,2.51185 l -0.779542,2.21057 1.091087,1.60669 1.091086,1.6067 0.309493,-1.21891 c 0.170221,-0.6704 0.625831,-1.63365 1.012468,-2.14055 z m 9.704202,-16.52267 c 0.86727,-0.70227 0.76649,-2.07543 -0.293887,-4.00425 l -0.878824,-1.59858 -0.864115,1.51688 c -0.842271,1.47855 -1.005084,2.03355 -0.906553,3.0903 0.125782,1.34901 1.805363,1.91716 2.943379,0.99565 z M 28.070359,45.89867 c 1.202829,-0.13165 1.42722,-0.21576 0.926042,-0.3471 -0.996006,-0.26102 -9.008657,-1.3505 -9.110248,-1.23873 -0.04859,0.0535 -0.171253,0.48417 -0.272575,0.95711 l -0.184222,0.8599 3.526752,-0.0287 c 1.939713,-0.0158 4.241126,-0.1069 5.114251,-0.20246 z m 2.566664,-5.08895 c 4.173562,-0.87229 7.005067,-3.68807 8.014647,-7.97011 0.542326,-2.30024 0.565387,-10.25768 0.02973,-10.25768 -0.203044,0 -1.244841,0.37066 -2.315104,0.82369 -6.445418,2.72824 -10.408465,6.17976 -12.140195,10.5732 -0.583586,1.48056 -1.445037,6.02388 -1.190451,6.27847 0.244938,0.24494 3.546798,0.79137 4.955544,0.82011 0.684061,0.0139 1.874686,-0.1065 2.645833,-0.26768 z M 13.362259,46.44948 C 5.0454569,42.21437 1.1255929,37.01582 0.14061087,28.91485 -0.55354413,23.20579 1.3504849,16.41019 5.2312059,10.74618 6.9264469,8.27193 11.108833,4.031 14.152675,1.69982 L 16.372148,0 14.745395,2.41933 c -4.336136,6.44876 -6.3336391,12.62804 -6.0473211,18.70739 0.297462,6.316 2.7853161,10.25831 8.1274941,12.87902 1.236927,0.6068 2.280967,1.12458 2.320089,1.15062 0.03912,0.026 -0.277373,1.11381 -0.703322,2.41726 -0.719378,2.20138 -1.88135,8.07837 -1.88135,9.51543 0,0.34868 -0.157747,0.6283 -0.354455,0.6283 -0.194951,0 -1.474872,-0.57054 -2.844271,-1.26787 z m 50.440663,-0.51029 c -0.22372,-2.2074 -1.31176,-7.20692 -2.01032,-9.23732 -0.28513,-0.82872 -0.48833,-1.53387 -0.45158,-1.56699 0.0368,-0.0331 0.84074,-0.41265 1.78663,-0.84338 4.53942,-2.06712 7.27469,-5.45302 8.3653,-10.35512 0.60695,-2.72812 0.37456,-7.19506 -0.55224,-10.61486 -0.83864,-3.09453 -3.28543,-8.16461 -5.28269,-10.94646 -0.8225,-1.1456 -1.45911,-2.11925 -1.4147,-2.16366 0.18116,-0.18116 4.97789,3.87284 7.13877,6.03339 7.90209,7.90087 10.90101,18.03501 8.02258,27.11037 -1.69403,5.34111 -5.99034,9.91585 -12.20655,12.99763 -3.34805,1.65985 -3.18302,1.67995 -3.3952,-0.4136 z" /></svg>
