<svg xmlns="http://www.w3.org/2000/svg" xml:space="preserve" width="168.719" height="188.554" viewBox="0 0 44.64 49.888"><path d="M7.221 49.671c-2.869-.628-5.263-2.613-6.554-5.433-.544-1.188-.677-1.881-.666-3.471.015-2.443.647-4.222 2.68-7.543l3.28-5.37c1.002-1.643 2.13-3.697 2.506-4.563.654-1.51 1.143-2.016 1.143-1.186 0 .696 2.73 5.74 4.985 9.211 1.208 1.86 2.492 4.028 2.853 4.816 1.884 4.114 1.295 7.977-1.679 11.03-2.146 2.202-5.481 3.18-8.548 2.51m26.296.09c-2.832-.588-5.998-3.262-6.812-5.752-1.367-4.184-.665-6.627 3.971-13.827 1.265-1.965 2.84-4.685 3.498-6.046l1.198-2.473 1.215 2.473c.668 1.36 2.377 4.303 3.798 6.538 3.245 5.108 3.574 5.76 4.046 8.024 1.16 5.56-2.617 10.591-8.367 11.15-.798.078-1.944.039-2.547-.087M20.045 27.817c-2.453-.587-5.142-2.74-6.263-5.016-.503-1.02-.6-1.648-.6-3.864 0-2.424.07-2.795.84-4.42.463-.976 1.944-3.477 3.291-5.557 2.377-3.669 4.72-7.937 4.729-8.61.008-.746.458-.248.91 1.008.473 1.315 2.126 4.161 5.423 9.337 2.66 4.174 3.03 5.158 3.048 8.11.012 2.032-.093 2.747-.55 3.736-.673 1.454-2.237 3.249-3.56 4.084-1.946 1.228-5.013 1.732-7.268 1.192"/></svg>