<?xml version="1.0" encoding="UTF-8" standalone="no"?>
<svg
   width="98.2304mm"
   height="133.67746mm"
   viewBox="0 0 98.2304 133.67746"
   version="1.1"
   xml:space="preserve"
   xmlns="http://www.w3.org/2000/svg"
   xmlns:svg="http://www.w3.org/2000/svg"><path
     style="fill:#000000;stroke-width:0.978465"
     d="m 50.363107,0.0074144 a 4.0000121,4.0000121 0 0 0 -0.62528,0.01085 c -1.107,0.103 -2.19977,0.659047 -3.27577,1.928047 -11.867041,6.09602 -25.537326,6.81795 -38.6043657,7.70496 -8.406025,-1.45701 -8.168845,7.3162996 -7.639844,13.0333096 0.401002,19.03706 0.192912,38.20386 2.92592,57.08592 2.117007,14.88304 11.2248427,27.584009 22.0978757,37.500039 7.319022,6.23302 14.961954,12.07054 23.549984,16.24655 5.45701,1.12701 10.30026,-3.96301 14.20327,-6.62802 4.96201,-3.77501 10.03687,-7.84831 14.02188,-12.35532 9.79003,-9.75503 16.39342,-22.560229 18.77043,-36.197269 2.24,-16.63405 1.53302,-33.49995 2.11202,-50.245 -0.966,-5.72602 2.879593,-14.71313 -3.15743,-18.06814 -11.65203,-0.9840096 -23.58387,-1.5161296 -34.6599,-5.6761396 -3.33801,-0.806998 -6.58778,-4.17479 -9.71879,-4.33979 z m 40.69002,20.1300396 c 1.95301,-0.226 1.38187,4.58921 1.33687,7.60522 -0.614,20.11806 0.83691,40.97914 -6.30711,60.1772 -5.42902,14.828046 -17.92109,25.620846 -31.30713,33.225876 -1.147,0.613 -2.26198,1.40223 -3.55999,1.65623 0.002,-5.08647 0.008,-10.17342 0.008,-15.26005 l -0.42064,0.5085 -15.951485,-19.107356 -15.950964,-19.10736 17.74362,-0.0217 v -29.08763 h 14.471989 c -0.0936,-3.41558 0.12926,-6.53902 1.71669,-8.37675 12.16003,-1.421 24.51402,-4.06704 35.31205,-10.05106 1.32501,-1.45 2.25632,-2.08508 2.90732,-2.16008 z m -39.93709,20.58892 c 0.10203,3.72144 0.58224,7.79174 0.13694,10.97246 -0.0503,18.61438 -0.0321,37.22894 -0.0295,55.843096 l 15.43317,-18.637616 15.85433,-19.14664 -17.74465,0.0217 v -29.05301 z" /></svg>
