<?xml version="1.0" encoding="UTF-8" standalone="no"?>
<svg
   width="93.339409mm"
   height="104.74981mm"
   viewBox="0 0 93.339409 104.74981"
   version="1.1"
   xml:space="preserve"
   xmlns="http://www.w3.org/2000/svg"
   xmlns:svg="http://www.w3.org/2000/svg"><path
     style="fill:#000000"
     d="m 25.915966,104.47961 c -7.943047,-0.31489 -11.601037,-0.79559 -10.628433,-1.3967 0.146074,-0.0903 2.340238,-0.30622 4.875919,-0.47988 l 4.610329,-0.31574 0.616767,-1.81163 c 0.426519,-1.25282 0.889822,-2.05138 1.501987,-2.58887 1.084828,-0.95249 1.804243,-1.14767 3.66221,-0.9936 1.211005,0.10043 1.463052,0.0447 1.588814,-0.35159 0.08221,-0.25902 0.38833,-0.54676 0.680264,-0.63942 0.291934,-0.0927 0.640084,-0.45593 0.773667,-0.80728 0.145352,-0.3823 0.455967,-0.63882 0.773553,-0.63882 0.631052,0 0.718219,-0.33479 0.929965,-3.57187 0.13931,-2.12971 1.138205,-12.29851 1.273672,-12.96605 0.02969,-0.14632 -0.200552,-0.52058 -0.511659,-0.83169 -0.498942,-0.49894 -0.549008,-0.77295 -0.424541,-2.32355 0.119584,-1.48977 0.06847,-1.81102 -0.335099,-2.10611 -0.424339,-0.31029 -0.459292,-0.64781 -0.320913,-3.09895 l 0.155293,-2.75074 -0.882606,2.64584 c -0.754961,2.26318 -0.830157,2.70463 -0.519947,3.05239 0.682995,0.76567 1.176591,2.35472 1.176591,3.78785 0,1.2249 -0.09325,1.49437 -0.641392,1.85353 -0.352765,0.23114 -0.711925,0.64249 -0.798134,0.91411 -0.394064,1.24158 -2.674156,1.55189 -4.249425,0.57832 -2.019461,-1.24809 -2.772588,-4.76407 -1.541846,-7.19811 0.315926,-0.6248 0.834736,-2.2671 1.152911,-3.64955 0.47966,-2.08408 1.6375,-5.66574 2.501158,-7.73707 0.177078,-0.42469 0.122278,-0.43237 -0.695208,-0.0975 -0.488092,0.19994 -3.864001,1.40244 -7.502022,2.67224 -3.638021,1.26979 -6.872314,2.44476 -7.187318,2.61105 -0.315005,0.16628 -1.307953,1.22507 -2.206552,2.35285 -1.861389,2.33614 -1.613167,2.26526 -5.9519619,1.69954 -3.092379,-0.4032 -3.13782,-0.61926 -0.77842,-3.70119 0.967516,-1.26381 1.836118,-2.29928 1.930228,-2.30106 0.09411,-0.002 1.5403269,0.18709 3.2138159,0.41972 l 3.042708,0.42296 5.688542,-1.99351 c 3.128698,-1.09643 6.962446,-2.45038 8.51944,-3.00877 l 2.830898,-1.01525 1.452781,-2.23336 c 0.799029,-1.22834 1.429465,-2.25667 1.400968,-2.28516 -0.06009,-0.0601 -14.543787,-2.65401 -17.148069,-3.07108 l -1.753358,-0.2808 -2.136919,1.23258 c -2.353602,1.35755 -3.089521,1.54303 -2.82583,0.71222 0.181084,-0.57055 0.167108,-0.576 -2.6430359,-1.03093 -3.124468,-0.50582 -3.817794,-1.2332 -2.315104,-2.42881 0.660825,-0.52578 0.934014,-0.565 2.976563,-0.42724 L 11.496175,49.4546 9.7590971,48.86675 c -2.969029,-1.00476 -3.891193,-1.87274 -3.016504,-2.83926 0.583929,-0.64523 1.068656,-0.64389 3.5629569,0.01 1.091406,0.28606 2.014141,0.52214 2.050521,0.52464 0.03638,0.002 0.06615,-0.23359 0.06615,-0.52464 0,-1.01768 0.697814,-0.51169 2.325919,1.68654 1.314212,1.77443 1.812479,2.25051 2.501833,2.39042 1.105125,0.22429 17.008534,3.06669 18.058705,3.22761 0.615315,0.0943 0.892712,-0.0186 1.233974,-0.50216 l 0.440225,-0.6238 -2.689183,-1.41306 c -1.47905,-0.77719 -4.177464,-2.24847 -5.996474,-3.26953 -8.674202,-4.86905 -8.803025,-4.93209 -10.0815,-4.93389 -0.669877,-9.4e-4 -1.924361,-0.0755 -2.787741,-0.16578 l -1.569783,-0.16408 -1.348129,-2.28332 c -0.741471,-1.25583 -1.424442,-2.5344 -1.517712,-2.84128 -0.292593,-0.96269 0.412016,-1.25857 2.561373,-1.07558 3.498368,0.29784 3.361961,0.21801 5.103176,2.98636 l 1.570525,2.49696 2.910416,1.67534 c 1.600729,0.92144 4.04151,2.30517 5.423958,3.07496 1.382448,0.76978 2.93026,1.63928 3.439583,1.93221 1.388758,0.79873 1.061952,0.52331 -7.805208,-6.57793 -4.511145,-3.61273 -9.554132,-7.69319 -11.206636,-9.06769 l -3.0045539,-2.49907 -2.022529,0.16232 c -1.112391,0.0893 -2.260655,0.19472 -2.551696,0.23432 -0.365174,0.0497 -0.507058,-0.0628 -0.457827,-0.36312 0.07404,-0.45159 -0.284439,-0.78771 -3.204264,-3.00445 -1.85369103,-1.40733 -2.15243403,-2.07807 -1.27801303,-2.86941 0.72507003,-0.65618 1.06498103,-0.56262 3.49891303,0.96308 1.229217,0.77052 2.413534,1.4995 2.631816,1.61994 0.218281,0.12044 -0.645504,-0.77788 -1.919522,-1.99627 -2.353724,-2.25096 -2.786293,-3.09215 -1.996312,-3.88213 0.688966,-0.68897 1.654131,-0.32363 3.65125,1.3821 1.799577,1.537 2.002824,1.6456 2.182484,1.16608 0.380453,-1.01543 0.860146,-0.29092 1.445148,2.1827 0.3241719,1.37073 0.6506759,2.74342 0.7255639,3.05041 0.07489,0.307 0.941757,1.20497 1.926377,1.9955 0.98462,0.79052 3.457093,2.79679 5.494385,4.45836 6.546428,5.33914 15.248935,12.27528 18.275098,14.56578 l 1.77104,1.34049 0.758701,-0.72688 c 0.417286,-0.39978 0.758696,-0.81522 0.758696,-0.92319 0,-0.10797 -0.68102,-0.39429 -1.513386,-0.63626 -4.155156,-1.20794 -6.968767,-3.76179 -7.754958,-7.039 -0.278075,-1.15914 -0.739169,-1.77394 -3.718805,-4.95842 l -3.401371,-3.63522 -2.455216,-0.7628 c -1.350369,-0.41954 -2.600269,-0.89003 -2.777557,-1.04552 -0.415161,-0.36413 -1.52817,-5.51144 -1.312994,-6.07218 0.08994,-0.23437 0.369622,-0.42612 0.621526,-0.42612 0.487875,0 4.841159,1.55257 5.189624,1.85085 0.113885,0.0975 0.530604,1.38036 0.926041,2.85084 l 0.718977,2.6736 3.007464,3.34065 3.007464,3.34065 0.65037,-1.93133 C 31.676292,34.57641 31.596672,32.5731 30.595137,30.29479 30.060106,29.07769 29.895814,28.27072 29.891,26.83622 L 29.8847,24.96516 28.611387,24.38969 C 27.911065,24.07319 26.776107,23.25226 26.089258,22.56541 19.552444,16.0286 24.528252,3.74449 35.005798,0.55256 36.003393,0.24865 37.108457,0 37.461498,0 c 0.75134,0 1.104854,0.68192 0.670163,1.29273 -1.964327,2.7602 -1.738044,5.3774 0.559184,6.4675 1.158002,0.54951 1.913692,0.55292 4.423012,0.0199 4.80963,-1.02157 8.59981,0.53547 10.35992,4.25597 0.41369,0.87445 0.75326,1.70897 0.7546,1.85449 10e-4,0.14552 0.73086,0.2957 1.62117,0.33373 3.078,0.13148 5.94605,1.74255 8.24812,4.6332 1.61708,2.03053 1.8252,1.54038 1.43494,-3.37943 l -0.18889,-2.38125 2.74134,-1.78594 c 4.01799,-2.61766 4.13587,-2.55567 4.12611,2.16959 l -0.007,3.32052 -2.04366,1.22614 c -1.12401,0.67437 -2.28179,1.29868 -2.57283,1.38735 -0.29104,0.0887 -0.78595,0.68956 -1.09981,1.33532 -0.54222,1.11565 -0.55001,1.23102 -0.15628,2.31682 0.25939,0.7153 0.42148,2.08282 0.43338,3.65624 0.0216,2.85437 -0.36482,4.27592 -1.81635,6.68219 -0.7892,1.3083 -0.88022,1.62378 -0.6461,2.23955 l 0.2725,0.71675 0.71,-0.91664 c 0.3905,-0.50415 1.72407,-2.04773 2.96348,-3.43018 4.0537,-4.52151 3.841,-4.18636 4.49928,-7.08966 0.33115,-1.46057 0.67483,-2.77039 0.76371,-2.91071 0.14822,-0.23398 5.50942,-2.43505 5.93112,-2.43505 0.50515,0 -0.28867,6.01177 -0.8927,6.7607 -0.1235,0.15312 -1.37161,0.6889 -2.77358,1.19062 -2.85852,1.02298 -2.75614,0.93533 -8.01981,6.86535 -2.11475,2.38247 -3.05367,3.65723 -3.35768,4.55873 -0.75159,2.22872 -3.21512,3.88431 -5.83769,3.92316 -1.01283,0.015 -1.06306,0.0654 -3.48677,3.50069 -2.18474,3.09656 -2.41034,3.52115 -2.0219,3.80519 0.36944,0.27014 0.75074,0.0623 2.45913,-1.34016 1.11205,-0.91292 4.76034,-3.79074 8.10732,-6.39515 3.34698,-2.60441 8.34761,-6.50175 11.1125,-8.66075 l 5.02708,-3.92547 0.84686,-3.18814 c 0.46578,-1.75348 0.92251,-3.26346 1.01497,-3.35552 0.0925,-0.0921 0.3752,0.0881 0.62833,0.40024 l 0.46023,0.56762 1.92816,-1.53677 c 2.19319,-1.748 2.67156,-1.94363 3.43871,-1.4063 1.03464,0.72469 0.6853,1.46609 -1.83603,3.89666 -1.31027,1.26311 -2.17348,2.18166 -1.91823,2.04123 0.25525,-0.14044 1.4137,-0.79973 2.57435,-1.46509 2.34871,-1.34645 3.00234,-1.46317 3.72459,-0.6651 0.67016,0.74052 0.42153,1.08158 -2.28153,3.12977 -1.22672,0.92953 -2.29319,1.93261 -2.36993,2.22907 -0.12565,0.48543 -0.3229,0.53279 -1.98437,0.47652 -1.01467,-0.0344 -2.11361,-0.12783 -2.4421,-0.20771 -0.83799,-0.20376 1.07545,-1.6207 -19.69915,14.58752 -2.43177,1.89725 -5.12511,3.9709 -5.98519,4.60812 -1.52876,1.13262 -1.55267,1.16967 -1.06793,1.65442 0.48475,0.48474 0.66916,0.40623 8.23414,-3.50574 4.25606,-2.20087 7.983,-4.15331 8.2821,-4.33875 0.29909,-0.18544 1.01347,-1.43593 1.5875,-2.77887 1.08194,-2.53121 1.55227,-3.04037 2.10731,-2.28132 0.29878,0.40862 0.48593,0.36852 2.26938,-0.48617 2.05866,-0.98659 2.84477,-1.1302 3.36096,-0.61402 0.81107,0.81107 -0.10084,1.99534 -2.5949,3.36991 -1.72111,0.94857 -1.58809,0.99128 0.83751,0.2689 1.56611,-0.4664 1.91908,-0.49346 2.54207,-0.19487 0.50128,0.24025 0.72344,0.54878 0.72344,1.00463 0,0.70015 -0.55732,1.05715 -3.57187,2.28799 -1.16901,0.4773 -1.45521,0.71367 -1.45521,1.20182 0,0.71427 0.0807,0.71971 -2.71478,-0.18313 l -2.18562,-0.70589 -3.76751,1.97017 c -2.07213,1.0836 -5.6725,2.95663 -8.00084,4.1623 -2.32833,1.20566 -4.25336,2.20384 -4.27784,2.21817 -0.0245,0.0143 0.11212,0.24026 0.30357,0.50209 0.33197,0.45399 0.93457,0.39483 13.0091,-1.27726 11.41963,-1.58139 12.7518,-1.81649 13.58705,-2.39778 2.21213,-1.53953 4.51901,-3.01955 4.70652,-3.01955 0.11175,0 1.39045,0.52162 2.84156,1.15914 2.21829,0.97458 2.65103,1.26252 2.71788,1.80843 0.0686,0.56061 -0.28746,0.89035 -2.60709,2.41404 l -2.6866,1.76475 -2.41999,-1.08846 c -2.8703,-1.291 -2.6948,-1.2866 -10.09189,-0.25299 -3.0565,0.42709 -8.31827,1.15809 -11.69283,1.62444 l -6.13556,0.84791 0.64663,0.9546 0.64662,0.9546 8.13477,1.35596 8.13477,1.35595 1.85208,-1.11824 c 2.79339,-1.68657 3.51983,-2.02422 3.70623,-1.72262 0.0904,0.14629 0.0948,0.48536 0.01,0.7535 -0.13775,0.43403 0.0565,0.50538 1.77011,0.65023 2.69404,0.22773 3.64214,0.59524 3.64214,1.41182 0,0.51846 -0.24665,0.75955 -1.21552,1.18813 -0.9894,0.43766 -1.5677,0.5113 -3.10885,0.3959 -2.14681,-0.16075 -1.89752,0.11882 0.55454,0.62189 2.43333,0.49923 3.58279,1.73902 2.5603,2.7615 -0.4847,0.48471 -0.56403,0.48574 -3.65598,0.0477 -2.22874,-0.31574 -2.35876,-0.30723 -2.48161,0.16253 -0.21837,0.83504 -0.728,0.42697 -2.22162,-1.77885 l -1.43324,-2.11667 -7.26516,-1.24154 c -3.99583,-0.68285 -7.46579,-1.2484 -7.71101,-1.25677 -0.36877,-0.0126 -0.26755,0.36528 0.58548,2.1856 0.56724,1.21045 1.35446,3.20475 1.74937,4.43177 0.82625,2.56722 0.98667,2.79527 2.887,4.10408 1.17243,0.80748 1.83703,1.03983 4.00345,1.39962 l 2.59764,0.43141 1.24713,2.38125 c 0.68592,1.30969 1.25146,2.58369 1.25677,2.83112 0.0156,0.72903 -0.6644,0.90552 -2.70191,0.70124 -1.05526,-0.10579 -2.25073,-0.19972 -2.65659,-0.20871 -0.64969,-0.0144 -0.84725,-0.24446 -1.65204,-1.92376 -0.50275,-1.04908 -0.98469,-2.26947 -1.07097,-2.71198 -0.1056,-0.54159 -0.5349,-1.08565 -1.31341,-1.66447 -0.63609,-0.47295 -1.23431,-0.8599 -1.32939,-0.8599 -0.30754,0 0.16691,1.86615 0.6944,2.73124 0.5709,0.93629 0.6911,3.13896 0.25439,4.66168 -0.53491,1.86512 -2.80975,3.42987 -4.45956,3.06752 -0.75732,-0.16634 -2.34468,-1.6412 -2.91024,-2.70398 -0.64621,-1.21434 -0.15814,-3.86495 0.90798,-4.93107 l 0.59763,-0.59764 -1.05088,-3.0321 -1.05088,-3.03211 0.15094,2.11667 c 0.083,1.16416 0.21642,2.66599 0.29646,3.33738 0.12829,1.07609 0.0806,1.23769 -0.40225,1.36397 -0.51215,0.13393 -0.5369,0.27202 -0.38045,2.12283 0.15938,1.88544 0.13716,1.99937 -0.46714,2.39532 l -0.63448,0.41573 0.71861,7.08863 c 0.39524,3.89875 0.72396,7.71372 0.73048,8.4777 0.0104,1.21367 0.0794,1.38906 0.5467,1.38906 0.31373,0 0.65943,0.27345 0.83622,0.66146 0.16576,0.3638 0.45411,0.66146 0.64078,0.66146 0.18667,0 0.51471,0.25028 0.72897,0.55619 0.32819,0.46856 0.55514,0.52822 1.44042,0.37865 1.45291,-0.24546 3.17558,0.27696 4.06981,1.23424 0.42727,0.45739 0.9777,1.5583 1.28507,2.57023 l 0.53766,1.77013 4.14278,0.31578 c 3.68011,0.28051 4.95251,0.55225 4.53602,0.96873 -0.95906,0.95906 -33.44219,1.55153 -49.708817,0.90666 z m 20.902081,-2.82918 c 0,-0.26323 0.17481,-0.70971 0.38846,-0.99219 0.21365,-0.28247 0.39225,-1.02743 0.39688,-1.65546 0.009,-1.18907 0.3627,-2.10491 0.99327,-2.57015 0.31558,-0.23284 0.30789,-1.19429 -0.0529,-6.61458 -0.23217,-3.48818 -0.48123,-6.72122 -0.55346,-7.18453 l -0.13133,-0.84238 -1.93784,0.0371 -1.93783,0.0371 -0.31487,4.09768 c -0.6905,8.98606 -0.69627,9.94931 -0.0645,10.75247 0.40775,0.51837 0.56829,1.093 0.56829,2.03411 0,0.91102 0.16163,1.51713 0.52916,1.98437 0.29105,0.37 0.52917,0.83527 0.52917,1.03392 0,0.22494 0.29943,0.3612 0.79375,0.3612 0.58941,0 0.79375,-0.12321 0.79375,-0.4786 z M 31.946613,78.53008 c 0.244475,-0.24448 0.188877,-0.45059 -0.246575,-0.91411 -0.350651,-0.37325 -0.573977,-0.97632 -0.59346,-1.60258 -0.02608,-0.83822 0.06287,-1.01753 0.538304,-1.08529 0.444708,-0.0634 0.673338,0.15409 1.043106,0.99218 0.676471,1.53326 1.004843,1.35001 0.802767,-0.44799 -0.207485,-1.84613 -0.908515,-2.59245 -2.685434,-2.85892 -0.955721,-0.14332 -1.312555,-0.0844 -1.719575,0.28395 -0.629832,0.57 -0.908496,1.91868 -0.664817,3.21761 0.344293,1.83523 2.5765,3.36433 3.525684,2.41515 z m 30.450924,-0.38039 c 1.22541,-0.85831 1.77074,-3.64317 1.00353,-5.1248 -0.27731,-0.53554 -0.51581,-0.64951 -1.25287,-0.59873 -2.3147,0.15949 -2.64652,0.31365 -3.17349,1.47437 -0.58339,1.28498 -0.69315,2.9313 -0.18426,2.76371 0.1819,-0.0599 0.36714,-0.35505 0.41165,-0.65588 0.11182,-0.7557 0.99186,-1.4978 1.53091,-1.29095 0.34735,0.13329 0.41035,0.39714 0.29686,1.24325 -0.0792,0.59073 -0.33274,1.28255 -0.56336,1.53737 -0.23061,0.25483 -0.41929,0.60277 -0.41929,0.77322 0,0.46113 1.63948,0.37633 2.35032,-0.12156 z M 38.351382,74.4801 c 0,-1.36025 -0.0415,-1.45521 -0.635923,-1.45521 -0.576093,0 -0.644548,0.12655 -0.727604,1.3451 -0.104599,1.53461 -0.08996,1.56532 0.746166,1.56532 0.571927,0 0.617361,-0.10709 0.617361,-1.45521 z m -0.440739,-8.6553 c 0.09387,-3.24323 0.349425,-7.266 0.567896,-8.93949 0.218472,-1.67349 0.385209,-3.2213 0.370528,-3.43958 -0.04299,-0.63922 -0.987162,3.35694 -1.421293,6.01557 -0.351294,2.15133 -1.189087,10.24935 -1.191985,11.5216 -9.89e-4,0.43449 0.98352,1.04127 1.346865,0.8301 0.08652,-0.0503 0.234117,-2.74497 0.327989,-5.9882 z M 48.630647,49.98026 c 0.79352,-0.27662 0.83323,-0.35743 0.83323,-1.69551 v -1.40504 l 1.78594,-0.97773 c 2.33981,-1.28094 3.97714,-2.63594 4.49342,-3.71858 0.40298,-0.84506 0.45788,-0.86905 1.66248,-0.72638 1.36705,0.16191 2.88501,-0.22692 4.03455,-1.03346 2.30544,-1.61754 2.09219,-6.08091 -0.33864,-7.08779 -1.52138,-0.63018 -3.43525,0.23132 -4.37003,1.9671 -0.71313,1.32421 -1.55718,1.19171 -2.59789,-0.40782 -0.37153,-0.57103 -0.43712,-1.23852 -0.37699,-3.83646 0.0654,-2.82683 0.0131,-3.25671 -0.51653,-4.24735 -0.71366,-1.33473 -1.54606,-1.9515 -3.67376,-2.72208 l -1.61725,-0.58571 -1.61089,0.81317 c -3.29178,1.66169 -7.746002,2.3436 -11.586288,1.77379 l -1.350424,-0.20038 -0.17093,1.24707 c -0.09401,0.68589 -0.170929,2.73955 -0.170929,4.56369 0,2.8895 -0.08912,3.57473 -0.692006,5.32088 -1.254637,3.63383 -0.427118,6.48175 2.471908,8.50709 2.639854,1.84428 7.455899,2.80705 10.633169,2.12564 0.78236,-0.16778 1.47789,-0.24966 1.54561,-0.18194 0.26494,0.26494 -1.41183,1.50798 -2.60654,1.9323 -0.69335,0.24626 -1.20248,0.54185 -1.1314,0.65686 0.19466,0.31497 4.39657,0.25108 5.35019,-0.0814 z m -7.89802,-6.62064 c -0.93226,-0.37065 -2.116662,-1.56488 -2.116662,-2.13423 0,-0.41607 0.238188,-0.47966 1.796492,-0.47966 0.98807,0 2.48217,-0.1786 3.3202,-0.39688 0.83804,-0.21828 1.69649,-0.39687 1.90768,-0.39687 0.6685,0 0.42559,1.25709 -0.43156,2.23332 -1.13167,1.28891 -2.97294,1.77197 -4.47615,1.17432 z m -0.96511,-4.45922 c -0.923382,-0.38066 -0.966787,-0.75011 -0.23486,-1.99904 1.0704,-1.8265 1.45887,-1.53824 0.79674,0.59122 -0.149,0.47921 -0.0563,0.6147 0.51933,0.75918 0.38539,0.0967 0.65642,0.31049 0.60231,0.47502 -0.12707,0.38635 -0.9593,0.47218 -1.68352,0.17362 z m 19.43804,-0.33748 c -0.0704,-0.49495 -0.22966,-0.58399 -0.94444,-0.52816 -0.94384,0.0737 -1.09953,-0.2978 -0.56209,-1.34132 0.56618,-1.09931 1.37209,-1.76855 2.12972,-1.76855 0.87738,0 1.80597,0.82613 1.80597,1.60671 v 0.54837 l -0.69714,-0.54837 c -0.84331,-0.66335 -1.23919,-0.68834 -1.71786,-0.10847 -0.29498,0.35735 -0.29828,0.46172 -0.0175,0.55616 0.19006,0.064 0.57204,0.35936 0.84885,0.65647 0.38093,0.40888 0.43938,0.65959 0.24043,1.03134 -0.36197,0.67634 -0.98331,0.61673 -1.08589,-0.10418 z m -12.76699,-2.56047 c -0.5442,-0.60133 -0.64707,-2.52943 -0.18139,-3.39957 0.39523,-0.73849 1.49617,-0.7835 1.87448,-0.0766 0.46698,0.87257 0.338,3.05236 -0.20996,3.54826 -0.62566,0.56622 -0.91837,0.552 -1.48313,-0.0721 z M 35.433498,35.70469 c -0.329775,-0.61619 -0.405606,-2.27638 -0.141924,-3.10717 0.273332,-0.86119 1.213137,-1.03097 1.786613,-0.32276 0.596544,0.7367 0.633284,2.57734 0.06757,3.38501 -0.515833,0.73646 -1.330716,0.75784 -1.712256,0.0449 z m -1.155952,-4.94183 c -0.280781,-0.28078 -0.173605,-0.56671 0.41956,-1.11932 0.655354,-0.61056 2.546939,-0.74723 3.072193,-0.22198 0.650367,0.65037 0.348117,1.00542 -0.855901,1.00542 -0.64537,0 -1.466566,0.11146 -1.824878,0.24769 -0.358313,0.13623 -0.723251,0.17592 -0.810974,0.0882 z m 13.598831,-0.10519 c -0.3638,-0.14572 -0.95156,-0.20996 -1.30614,-0.14277 -1.23727,0.23445 -1.67836,-0.24062 -0.92392,-0.99506 0.72834,-0.72834 3.00958,-0.42309 3.61508,0.48373 0.58454,0.87543 -0.0657,1.18252 -1.38502,0.6541 z m 4.48521,17.38257 c 0.44355,-0.64468 0.80646,-1.24168 0.80646,-1.32667 0,-0.085 -0.47625,0.16065 -1.05833,0.54585 -0.58209,0.38521 -1.05834,0.79388 -1.05834,0.90816 0,0.2846 0.30012,1.04481 0.41248,1.04481 0.0502,0 0.45418,-0.52746 0.89773,-1.17215 z M 26.512439,20.17437 c -0.511836,-1.11692 -0.726999,-2.08688 -0.809381,-3.64872 -0.226651,-4.2969 1.065662,-7.47707 4.53255,-11.15387 1.712226,-1.8159 1.972552,-2.18709 1.249922,-1.78222 -0.502,0.28126 -1.778043,1.35406 -2.835652,2.384 -2.697682,2.6271 -3.816459,4.98578 -3.996373,8.4254 -0.148383,2.83681 0.248716,4.41693 1.557139,6.19611 0.445188,0.60536 0.852078,1.10066 0.904198,1.10066 0.05212,0 -0.218961,-0.68461 -0.602403,-1.52136 z"
     id="path30" /></svg>
