<svg xmlns="http://www.w3.org/2000/svg" xml:space="preserve" width="393.242" height="394.229" viewBox="0 0 104.045 104.307"><path d="M88.564 178.046c-5.998-.738-11.508-3.953-15.446-8.486 3.552 1.843-.926-3.82-1.21-5.333-2.475-4.726-1.673-10.453-.961-15.543 1.19-3.907 3.807-7.207 6.337-10.08 1.544-2.112 4.262-3.174 5.174-3.603 6.41-2.925 13.432-3.954 20.026-6.327 4.02-1.776 4.07-8.9 8.97-8.903-2.698.425 2.648 4.625 2.94 7.186 2.962 3.06 3.417 6.756-1.352 8.153-7.086 5.125-15.336 8.223-23.817 10.124-5.814 1.198-11.92 5.171-12.322 11.664-.858 7.534 4.464 17.147 12.927 16.53 3.627-.096 4.21-1.428 7.56-2.64 3.297-1.689 5.225-3.144 5.424-6.347.712-1.48 1.706-3.08.989-.016 1.046-.399.598-.226 1.59.548 1.628-1.444 1.053.043.86.498.726-.058.177 3.877 1.856 1.198 1.094-2.825 1.536-8.098-1.826-10.516-6.014-5.033-18.896 3.201-10.248 8.757 1.404 1.53-.047-5.092 2.158-5.972 7.113-.075 1.394 10.53-3.601 7.28-5.16-1.672-4.087-8.148-.55-10.816 1.95-3.5 9.06-4.537 10.03-2.21 3.208.5 5.67 4.486 6.228 7.742.588 8.918-8.06 15.569-16.123 16.98-1.85.323-3.751.388-5.613.13m-17.388-10.912c-1.939-1.264-3.898-10.119-1.857-4.42.107 1.27 5.052 8.832 1.857 4.42m-3.288-7.566c-.535-3.854-.615-7.376.343-11.414-.205-2.114 3.66-6.939 1.584-2.834-1.28 4.16-1.742 8.46-1.507 12.921.097.448-.407 2.597-.42 1.327m2.779-17.04c4.093-8.662 13.05-13.504 18.7-21.07 4.424-5.71 8.204-11.948 13.166-17.22 2.76-3.04 5.846-6.7 8.97-9.756.907-.849 21.93-16.794 22.58-17.12 2.558-1.995 6.534-1.886 8.274-1.327.417-2.016 3.066.704 1.799 1.471-1.08 1.006-3.313 6.008-1.44 8.681 2.286 4.642 8.085 4.414 10.91.498 3.863-2.196.69-7.625.093-8.824 1.104.71 3.068.97 3.165.917-.16 2.382.664-.06 2.498.858-1.51-.736-5.044-4.54-.773-1.758 6.478 3.012 1.67 10.318-2.334 13.03-5.023 3.745-11.484 3.415-17.29 4.64-1.115 3.157 3.118 1.083 5.558 1.297 3.659-1.297 5.43.683 1.66 2.763-2.345.9-3.556 4.778-5.353.476-2.735-3.813-2.931-.017-.536 1.901 3.15 4.317 4.594 10.863 10.62 12.03 4.892.377 7.14 8.982 12.2 4.963 3.685-2.789 13.07 2.592 5.597 3.927-2.438-1.598-6.458-4.098-7.738-.604-.37 3.53 8.716 8.647 3.646 10.485-2.33-2.597-2.2-4.076-3.367-6.149.8-1.252-3.311-3.053-3.46-.712-1.374-1.07 2.132-2.03.258-2.794-.797 1.21-.624-4.399-3.095-4.914-3.872-3.416-9.57-1.67-14.25-2.717-4.461-.148-7.145-5.11-9.616-7.353-.754-3.204-5.7-5.53-4.966-9.033.284-1.958 6.283-2.795 1.056-3.232-6.024 1.485-.897 8.775.87 11.17 1.93 2.613-.46 5.82-2.68 6.217.26-2.337-4.912-7.455-3.276-2.489 2.743 5.024 3.844 10.682 5.32 16.144 3.554 3.544 9.56 3.887 13.92 6.605 4.326 2.238 10.5 3.8 11.94-2.326 1.499-2.539 4.44-9.678 4.078-4.912.353 1.566-1.815 5.52-3.75 7.366-3.614 3.813 1.884 4.49 4.21 2.845 5.804 1.381.723 5.406-2.656 2.92-3.607-3.395-7.884-2.997-12.277-2.232-7.225-.035-14.562-2.024-20.88-5.518-4.28-3.33-7.1-8.184-8.43-13.386-4.12-5.969-8.114 3.315-10.067 6.6-3.696 4.03-9.808 3.693-14.55 5.773-4.693.866-9.873 4.62-12.98 5.927-1.216.812-2.193 2.968-3.506 4.264.524.29-2.41 3.212-1.818 1.678m78.943-16.045c-3.94-5.252 7.32-5.147 3.506.067-.92 1.025-2.596.892-3.506-.067m-22.954-8.695c-1.365-3.122 3.53-4.162 3.922-4.453 5.97.475-1.41 4.1-3.67 5.303l-.105-.16zm30.28-2.046c-3.462-4.96 8.098-5.846 3.387-.962-.917.66-2.306 2.443-3.386.962m-9.473-28.168c.152-1.434 1.95-.88 3.72-1.6 3.669-1.45-3.787-3.605.64-4.829 3.367-2.416 1.583 7.042-2.29 6.207-.578.052-1.547.735-2.07.222m-2.245-.588c-1.848-2.062-2.736-5.833-.135-4.442 3.757-.383-4.228-2.58.596-4.206 1.94-1.64 6.03-1.256 4.14 1.365 4.57-1.953-2.686 1.4-2.18 3.736-1.35-1.375-2.187 3.738-2.451.91-1.545 1.78 3.997 2.857.583 2.278 2.135 1.325.492 1.096-.553.36m6.942-9.824c-2.016-1.537-5.41-1.19-6.991.077-.867-2.797 2.355-1.44 2.53-1.554-1.106-1.686-2.727-1-5.495-.806 2.592-1.388 7.61-1.27 10.772.135 3.818 1.462 2.568 1.635.489 1.072-3.73-2.048 3.427 2.35-1.305 1.076" style="fill:#000;stroke-width:1" transform="translate(-67.496 -73.896)"/></svg>