<?xml version="1.0" encoding="UTF-8" standalone="no"?>
<svg
   width="74.837318mm"
   height="76.81456mm"
   viewBox="0 0 74.837318 76.81456"
   version="1.1"
   xml:space="preserve"
   xmlns="http://www.w3.org/2000/svg"
   xmlns:svg="http://www.w3.org/2000/svg"><path
     style="fill:#000000"
     d="m 17.120558,76.452126 c -7.7711417,-1.7051 -14.1828727,-8.48489 -16.24816066,-17.18086 -2.04649704,-8.61685 -0.452867,-18.87863 4.36428696,-28.10272 1.994968,-3.82005 4.062771,-6.6312 7.1589657,-9.73253 4.188443,-4.19539 8.626364,-6.8806 14.022916,-8.48469 2.908869,-0.86464 8.229469,-1.17266 11.405629,-0.66029 3.76148,0.60679 7.58532,2.21614 10.75884,4.52811 2.93185,2.1359 3.3692,1.71685 1.76995,-1.69587 -3.05341,-6.5158101 -3.12418,-12.8524201 -0.16313,-14.60698011 1.39083,-0.82414 3.21127,-0.66269 5.5476,0.49199001 3.28195,1.62203 6.15219,4.11061 9.97586,8.64938 1.28723,1.5279701 3.46406,3.8627101 4.83741,5.1883101 1.91953,1.85279 2.70393,2.83038 3.39179,4.22711 0.83236,1.69015 0.8948,1.99802 0.8948,4.41207 0,2.01818 -0.0882,2.65126 -0.39688,2.84759 -1.17415,0.74692 -4.41488,1.87284 -5.81042,2.0187 -0.8801,0.092 -1.80804,0.32884 -2.06207,0.52632 -0.43628,0.33916 -0.43254,0.38235 0.0673,0.77902 0.85434,0.67802 3.50931,0.25383 6.83975,-1.09281 0.46212,-0.18685 0.46694,-0.15389 0.0854,0.5839 -1.04262,2.01621 -3.8584,3.96595 -7.32204,5.07003 -2.76806,0.88235 -4.66601,1.15808 -8.50084,1.23498 l -3.60605,0.0723 -1.81791,1.82785 c -0.99985,1.00532 -2.68337,2.3439 -3.74116,2.97462 -1.05779,0.63072 -1.97432,1.22941 -2.03675,1.33042 -0.0904,0.14624 1.61822,3.28411 2.71316,4.98276 0.17523,0.27184 0.54965,0.25348 1.90342,-0.0933 2.11957,-0.54301 3.98251,-0.23157 5.70538,0.95379 1.50603,1.03618 2.03085,1.84057 1.92443,2.94961 -0.11487,1.19722 -0.90764,1.29095 -1.92625,0.22775 -0.85713,-0.89466 -1.6144,-1.08178 -1.3813,-0.34131 0.0802,0.25466 0.32695,0.93927 0.54841,1.52135 0.52251,1.37338 0.52735,2.60817 0.0141,3.60067 -0.34637,0.66982 -0.54594,0.78327 -1.25677,0.71446 -0.77191,-0.0747 -0.87262,-0.1937 -1.16427,-1.37546 -0.58641,-2.37613 -2.14053,-3.45216 -4.74634,-3.28623 -2.0327,0.12943 -2.89715,0.69066 -3.72922,2.42112 -0.54236,1.12794 -0.67341,1.23273 -1.54171,1.23273 -1.17087,0 -2.49576,-1.18758 -2.49576,-2.2371 0,-0.93336 0.5983,-2.28404 1.28123,-2.89245 0.30828,-0.27464 0.63536,-0.89835 0.72685,-1.38602 0.1486,-0.79211 -0.0164,-1.13386 -1.54761,-3.20482 -2.17033,-2.93542 -2.3865,-3.36352 -2.17791,-4.31322 0.17522,-0.79777 0.34381,-0.97226 5.36636,-5.5543 2.90791,-2.65286 3.41958,-3.44299 2.36157,-3.64675 -0.42417,-0.0817 -1.54811,0.86411 -7.63445,6.4244 -0.74508,0.68068 -1.29898,1.4483 -1.41009,1.95419 -0.11585,0.52747 -0.34516,0.83395 -0.62499,0.83533 -1.15854,0.006 -5.35804,0.58643 -6.620905,0.9156 l -1.416408,0.36919 0.225783,-1.2388 c 0.124181,-0.68133 0.225784,-2.37881 0.225784,-3.77216 0,-2.29713 -0.07446,-2.67886 -0.798449,-4.09349 -0.899152,-1.75689 -2.6736,-3.28294 -4.625509,-3.97799 -2.963462,-1.05527 -9.7384,-0.56233 -7.898657,0.57469 0.166885,0.10314 1.506338,0.21175 2.976562,0.24137 4.175323,0.0841 6.912242,1.49424 8.210624,4.23037 1.030639,2.17191 0.86947,4.4648 -0.675381,9.60841 -0.450483,1.4999 -0.764798,2.78135 -0.698476,2.84767 0.06632,0.0663 0.894872,-0.0825 1.841225,-0.33071 1.47835,-0.38774 1.928415,-0.40479 3.196167,-0.12108 1.71624,0.38408 3.43245,1.53031 4.03453,2.69461 1.03551,2.00245 -0.35898,3.2503 -1.74056,1.55753 -0.45295,-0.55498 -0.84983,-0.80571 -1.11455,-0.70413 -0.35735,0.13713 -0.32447,0.37229 0.25137,1.79792 0.82074,2.03194 0.69423,3.71211 -0.33003,4.38323 -0.58309,0.38205 -0.70402,0.38328 -1.26927,0.0129 -0.409069,-0.26804 -0.682333,-0.76935 -0.791501,-1.45205 -0.326312,-2.04064 -2.911316,-3.67649 -5.427605,-3.43471 -2.082873,0.20014 -3.21604,0.94583 -4.070612,2.67871 -0.691251,1.40171 -0.799439,1.49822 -1.679403,1.49822 -0.695433,0 -1.150582,-0.21002 -1.746448,-0.80589 -0.72559,-0.72559 -0.793688,-0.93292 -0.683405,-2.08066 0.08205,-0.85388 0.391522,-1.65791 0.93734,-2.43525 0.76979,-1.09631 0.829849,-1.36491 1.086084,-4.85715 0.149179,-2.03317 0.223334,-3.74457 0.164788,-3.80311 -0.161523,-0.16153 -1.912851,0.92611 -3.232645,2.00758 -2.337213,1.91517 -4.657746,5.90557 -5.543356,9.53239 -0.5869857,2.40386 -0.5909447,7.32053 -0.0077,9.513 1.037689,3.9005 3.266699,6.88014 6.241519,8.34338 1.615638,0.79469 1.937845,0.85742 4.393406,0.85528 2.22467,-0.002 2.826335,-0.0963 3.749371,-0.58793 2.056844,-1.09556 3.081571,-3.16943 2.509507,-5.0788 -0.399558,-1.33361 -1.64693,-2.40075 -2.806215,-2.40075 -2.246422,0 -3.000503,2.82658 -0.798179,2.99189 0.68624,0.0515 0.800222,0.17406 0.873923,0.93967 0.244517,2.54004 -3.187691,2.51591 -5.078061,-0.0357 -0.386684,-0.52195 -0.544045,-1.13617 -0.544045,-2.12355 0,-2.67854 1.735173,-4.65511 4.611309,-5.25285 1.220037,-0.25356 1.704358,-0.22977 2.99691,0.14715 1.648348,0.48068 3.59576,2.01189 4.306326,3.38597 1.011992,1.95698 0.939302,5.46653 -0.157763,7.61696 -2.199651,4.31167 -7.659085,6.40973 -13.400772,5.14992 z M 4.0612753,59.796206 c 0.363802,-0.20797 0.974302,-0.38234 1.356666,-0.3875 0.981797,-0.0132 1.511087,-0.6946 0.964317,-1.24137 -0.556176,-0.55618 -2.375891,-0.2459 -3.319857,0.56607 -0.605411,0.52075 -0.654193,0.66499 -0.349193,1.03249 0.42557,0.51278 0.501095,0.51448 1.348067,0.0303 z m 4.090383,-11.75671 c 0.154278,-0.24963 -1.046312,-1.26415 -2.204198,-1.86259 -1.40727,-0.72733 -4.532018,0.04 -4.532018,1.11283 0,0.46741 0.138224,0.49583 1.653646,0.33993 1.176772,-0.12106 1.958844,-0.0562 2.711979,0.22488 1.237465,0.46186 2.155201,0.53346 2.370591,0.18495 z m 4.1116997,-10.54689 c 0,-0.5991 -1.742177,-2.31228 -2.7292027,-2.68377 -0.986448,-0.37128 -4.229383,-0.35967 -4.605537,0.0165 -0.465869,0.46586 -0.08757,1.02609 0.692876,1.02609 1.225506,0 3.720563,0.76728 4.7336457,1.45568 1.151119,0.78221 1.908218,0.85581 1.908218,0.18551 z m 5.235088,-9.87718 c 0.220645,-1.14571 -3.013964,-3.39735 -4.888744,-3.40309 -1.608438,-0.005 -1.373706,0.66635 0.579698,1.65779 0.727604,0.36929 1.799166,1.0332 2.38125,1.47535 1.133694,0.86116 1.796077,0.95391 1.927796,0.26995 z m 12.261458,-1.61974 c 0.199555,-0.47294 0.356428,-1.57427 0.348605,-2.4474 -0.02468,-2.75478 -1.355167,-4.5675 -4.872565,-6.63859 -1.796539,-1.05783 -2.013213,-1.12559 -2.38125,-0.74465 -0.364832,0.37763 -0.340117,0.46254 0.249879,0.85845 1.569587,1.05327 3.776067,3.06279 4.402686,4.00967 0.901421,1.36214 1.227152,2.89075 0.913477,4.28682 -0.282359,1.25669 -0.192474,1.5356 0.494887,1.5356 0.292362,0 0.623953,-0.33773 0.844281,-0.8599 z m 9.437941,-0.30711 c 0.81342,-0.42495 1.963,-1.59927 2.40193,-2.45362 0.36566,-0.71174 0.38312,-2.80533 0.0339,-4.06248 -0.35135,-1.26472 -3.01103,-5.41377 -3.47041,-5.41377 -0.72299,0 -0.52976,1.21839 0.47308,2.98289 0.55628,0.97879 1.15119,2.1368 1.32202,2.57336 0.67648,1.72878 0.19148,4.27208 -0.92903,4.87176 -1.01189,0.54155 -1.4133,1.10238 -1.0781,1.50627 0.37633,0.45345 0.3702,0.45347 1.24664,-0.004 z m 28.36236,-0.71627 c 1.82318,-1.02468 2.63674,-3.48935 1.73036,-5.2421 -0.21305,-0.412 -0.75797,-1.06093 -1.21092,-1.44207 -0.67749,-0.57006 -1.0898,-0.69266 -2.32461,-0.69123 -2.18085,0.003 -3.44825,0.9403 -4.0205,2.97482 -0.93133,3.31115 2.77828,6.11331 5.82567,4.40058 z m -2.64477,-2.61464 c -0.29104,-0.29104 -0.52916,-0.62174 -0.52916,-0.73488 0,-0.48033 0.86305,-1.38179 1.32291,-1.38179 0.45987,0 1.32292,0.90146 1.32292,1.38179 0,0.29783 -1.01121,1.26405 -1.32292,1.26405 -0.14552,0 -0.5027,-0.23813 -0.79375,-0.52917 z" /></svg>
