<svg xmlns="http://www.w3.org/2000/svg" xml:space="preserve" width="585.427" height="870.974" viewBox="0 0 154.894 230.445"><path d="M88.71 21.677H25.012q-.333 3.669 2.335 6.337-1.668 4.669.333 8.003l3.002 4.002-.334 4.336h60.696l-2-2.335h-1.001l.333-1 1.668-11.005zm-3.002 34.017 4.336-3.335H30.682l4.335 12.006q3.335 6.002 8.67 9.67l-2 1.001h108.052l-14.673-10.338q-13.674-6.67-34.017-8.337zm34.35 35.35-1.335-2-3.001-2.002-.667-3.001 11.339 3.668-.667 5.003-4.002-.334zm34.684-5.002-.667-3.002H31.015q-9.004 8.671-13.34 19.01v.333h-1q-2.668-.334-4.336 3.668h133.398q10.339-10.004 9.005-20.01M37.352 13.674h47.356q-5.336-5.67-9.005-6.003l-3.668-2.668-4.002-3.335-3.668.334h-3.002L58.362.667 53.692 0h-.666l-4.67 6.003q-.666 1.334-3.334 2l-3.669 1.335zM3.668 113.722l-2 1.667L0 120.725l1.667 7.67 1.334 2.002q1.334 2 3.669 1.334l1.667-2.001q1.668 4.669 6.337 5.002l5.336-.667.667.334q8.004 0 15.674-6.337 6.336-5.336 11.339-14.34H7.003l.667 2.334-2-2.334zm47.357 67.032 6.003 17.342h32.349l-4.67-14.007-1-3.335-1.334-5.67H49.357zm-3.002-13.673h88.71l5.67-16.675v-5.67H62.03q-12.673 11.34-14.007 19.344zm23.011-30.348h70.034l-6.336-11.672-.333-.667-4.67-6.337h.334q4.336-.333 7.337-4.335H54.36l14.006 17.675 4.002 4.002zm5.67 75.37 1 2.334q7.004.334 10.005-4.002l.334-3.668 1.334-.334 1.667-.333H52.36q-9.338 4.002-9.005 6.003l2.668 2.668 9.338 1.667 14.007-1.667 1.334-.334zm16.675-26.68 7.003 12.673h43.02l-7.003-10.672-4.001-6.67-2.001-2.668 2.668-3.001H91.71l.667 5.67zm38.02 31.682 3.334-5.002 2.001 1.334h.333q5.336-3.002 6.003-7.337h-36.35l8.67 7.67-7.337 10.339q-2.668 4.335-1.334 5.336l3.335 1q3.669 0 9.005-3.335l11.005-9.338Z"/></svg>