<svg xmlns="http://www.w3.org/2000/svg" xml:space="preserve" width="288.201" height="405.353" viewBox="0 0 76.253 107.25"><path d="M114.8 106.943c-.37.059-.75.297-1.218.704-1.215 1.055-1.84 1.33-2.457 1.082-.291-.117-1.202-.221-2.024-.231-1.465-.018-1.53.013-3.246 1.569-1.946 1.76-2.618 1.938-4.06 1.06-.473-.29-1.082-.89-1.352-1.333l-.49-.806-.83.945c-.635.723-.83 1.195-.83 2.003 0 1.342.588 2.765 1.3 3.146.617.33.749 1.07.19 1.07-.198 0-.674.247-1.058.548-.912.718-.968 2.118-.108 2.69.512.337.549.478.287 1.053-.697 1.529-1.21 6.036-1.076 9.43.173 4.344.815 6.388 2.628 8.373.702.766 1.276 1.512 1.276 1.653 0 .74-6.607 2.794-11.641 3.618-8.627 1.413-17.02 1.64-21.218.576-1.374-.349-3.365-1.07-4.422-1.602-1.845-.928-1.915-.944-1.732-.358.193.616.937 1.728 2.343 3.502.962 1.213.7 1.512-1.033 1.184-1.786-.34-6.533-.733-6.945-.575-.61.235-.339.577.661.835.546.141 2.332.404 3.97.585 3.245.36 3.853.786 1.851 1.3-1.995.514-6.056 1.9-5.931 2.025.067.067 1.575-.136 3.35-.451 2.502-.444 3.297-.502 3.533-.256.232.241.148.417-.357.74-.906.579-3.52 3.237-3.35 3.407.075.075 1.287-.52 2.693-1.323l2.556-1.46 2.027.874c1.115.48 2.713 1.18 3.55 1.554 2.226.994 9.92 3.074 12.442 3.363 3.036.35 6.373.306 8.348-.108 1.995-.416 1.775-.727 2.817 3.958a586 586 0 0 0 1.636 7.071l.936 3.92-.932 2.695c-.513 1.482-2.43 6.258-4.262 10.609-2.571 6.11-7.484 18.563-8.5 21.549-.087.256-.407.315-1.112.206-2.33-.36-5.09-.497-5.09-.252 0 .898 3.609 2.649 8.334 4.04 2.23.658 2.377.745 2.303 1.364-.122 1.037.782 1.669 2.41 1.68l1.373.011.825-2.381c1.77-5.105 5.172-12.336 7.94-16.88.789-1.295 2.585-3.907 3.99-5.805 2.094-2.824 2.593-3.36 2.754-2.95.058.147.225.37.251.513 2.282 2.732 3.36 6.123 5.469 8.948.24.324.932 1.242 1.357 1.28l1.527.139c.287.072 2.402 1.136 2.569 1.07.097-.039.747-1.426.901-1.76.153-.322.31-.61.715-.72.208-.058.435-.003.647.043.069.015.438.236.528.29l.203.108c.07.036.153.1.247.118.025.005.028-.043.04-.065l.19-.347c.201-.375.24-.454.436-.83a20 20 0 0 0 .813-1.766c.3-.385.377-.631 1.01-.61.43.015.718.335 1.008.583.366.313.313.265.695.573.13.1.506.397.65.502.1.073.572.571.707.534.408-.112.147-.56.204-.989.057-.442.129-.92.178-1.364.248-1.081.422-.845.309-1.666-.388-.572-.77-1.15-1.06-1.78a37 37 0 0 1-.439-1.015q-.119-.314-.248-.625c-2.07-4.403-2.944-10.437-4.046-13.433-.419-1.328-.414-1.631.016-5.038.404-3.17 1.862-11.087 2.083-11.309.044-.044.793.163 1.665.459 1.366.464 2.07.587 5.684.415.194-.01-.365-.128-.546-.198-.237-.1-1.004-.397-1.11-.594-.304-.572-.66-1.219-.567-1.86.125-.851.886-1.07 1.503-1.285.341-.113.728-.132 1.026-.332.096-.064-.199-.105-.27-.158-.226-.167-.523-.3-.629-.559-.213-.523-.418-1.124-.278-1.67.2-.782.664-.932 1.19-1.141.155-.06.482-.015.462-.179-.021-.184-.337-.152-.492-.23-.184-.094-.361-.202-.542-.303-.4-.295-1.097-.717-1.215-1.254-.124-.56-.062-1.158.044-1.722.039-.21.24-.352.376-.517.058-.07.503-.483.554-.532.275-.248.416-.38.703-.621.193-.162.84-.43.59-.471-6.723-1.143-13.155-2.67-14.92-4.057-.81-.638-.698-1.073.879-3.396 1.128-1.66 1.443-1.874 2.775-1.874 1.161 0 2.642-1.019 2.744-1.888.044-.374-.154-1.296-.44-2.05l-.52-1.368.9-1.338c4.343-6.453 4.373-12.756.088-15.465-.572-.36-1.707-1.472-2.52-2.469-1.466-1.796-1.49-1.81-2.445-1.589-.53.123-1.045.229-1.144.232-.1.003-.746-.59-1.433-1.318-.914-.965-1.502-1.369-2.12-1.271zm-.369 9.821c.367.094.795.551 1.418 1.432.529.747.702 1.237.577 1.629-.222.7-.829.72-1.19.048-.151-.281-.691-.662-1.2-.847-1.058-.382-1.178-.921-.414-1.852.158-.192.306-.322.458-.385a.54.54 0 0 1 .351-.025m-9.653.182c1.067 0 1.048.55-.032 1.48-1.27 1.087-1.426 1.101-1.426.126 0-.937.608-1.606 1.458-1.606m-.542 4.033c.227-.02.33.091.497.319.293.402.272.626-.136 1.425-.266.522-.483 1.222-.483 1.555 0 .47-.15.605-.662.605-.476 0-.661-.142-.661-.509 0-.28-.313-.88-.695-1.333-.382-.454-.65-.855-.595-.891.054-.036.726-.35 1.491-.697.665-.301 1.019-.454 1.244-.474m8.924.811c.14.035.307.157.541.374.33.304 1.105.815 1.723 1.134.619.32 1.125.64 1.125.714s-.29.36-.642.639c-.354.278-.78.92-.947 1.427-.29.888-.688 1.082-1.52.747-.216-.088-.33-.722-.33-1.835 0-.936-.146-1.935-.324-2.22-.254-.407-.28-.59-.004-.84.125-.126.238-.176.378-.14m-4.257.448c.276 0 .502.109.502.243s-.608 1.225-1.352 2.424l-1.352 2.18.426.892c.235.491.426 1.129.426 1.413 0 .82-1.083.613-1.879-.359-1.32-1.612-1.376-1.894-.567-2.868.4-.482.964-1.165 1.255-1.518 1.612-1.958 2.087-2.407 2.541-2.407m-1.678 9.26c.68 0 3.503 2.576 3.503 3.197 0 .682-.383.627-2.218-.321-1.533-.79-1.575-.797-2.655-.384-1.263.482-1.716.513-2.27.154-.33-.215-.268-.367.396-.927 1.035-.873 2.63-1.719 3.244-1.719m-.972 3.261c.222.001.444.042.639.131.746.34.872.969.243 1.21-.958.368-2.228.066-2.228-.528 0-.467.678-.817 1.346-.813" style="fill:#000" transform="translate(-56.76 -106.93)"/></svg>