<?xml version="1.0" encoding="UTF-8" standalone="no"?>
<svg
   width="84.240318mm"
   height="109.95198mm"
   viewBox="0 0 84.240318 109.95198"
   version="1.1"
   id="svg1"
   xml:space="preserve"
   xmlns="http://www.w3.org/2000/svg"
   xmlns:svg="http://www.w3.org/2000/svg"><path
     style="fill:#000000"
     d="m 22.23853,108.86565 c 2.268151,-1.7733 2.603278,-8.27723 1.311312,-8.932646 -3.891337,5.445516 1.895041,-5.85827 -1.4025,-3.60583 -1.349169,2.94719 0.17694,-6.98897 -1.888109,-4.38124 -0.638025,2.93962 -0.867799,-7.65873 -2.703544,-2.71258 0.148232,-2.47574 -0.36932,-6.54629 -2.700409,-2.85218 0.807963,-3.99126 1.307891,-7.92897 4.657001,-11.20806 1.834515,-2.71118 4.402106,-4.99761 6.207969,-7.64739 0.515309,-3.93131 1.709467,-7.71584 2.892396,-11.4844 -3.968623,1.94977 -8.371149,2.61247 -12.661819,3.50873 -1.051548,3.51019 -2.445129,6.94029 -2.531639,10.63253 -1.893909,-3.69363 -3.5939958,4.90969 -4.9463968,6.87053 0.829674,-5.35761 -4.891614,3.60941 -7.97381802,0.0681 -2.90376998,-0.95398 7.90296502,-1.33953 5.85275602,-3.97321 -3.084121,0.2509 -3.006398,-1.00873 -0.05599,-1.16571 3.658398,-1.85214 1.443946,-1.87795 0.7977,-2.19745 2.215008,-0.96321 2.285345,-2.72287 0.729662,-2.25301 3.0928858,-1.91748 1.588237,-2.73359 0.234186,-2.77818 1.752509,-0.6419 4.4898938,-3.54774 0.94443,-2.88792 2.1978578,-0.69163 3.1861088,-3.70645 0.409548,-2.7029 2.4812188,-1.55435 2.5020298,-4.99265 6.5958958,-4.69527 5.010378,-1.40826 10.704298,-1.1826 15.109914,-4.18814 1.05368,-2.77559 -6.247375,-3.40938 -8.313323,-5.63646 -2.384264,-1.40764 -4.342121,-3.38197 -6.363494,-5.24572 1.685483,-1.89419 -3.102849,-6.59346 0.695101,-3.52731 1.480474,-1.46817 -2.223648,-5.16201 0.83245,-2.82391 0.626844,-1.90662 -2.978001,-6.15823 0.567851,-2.73234 1.599221,-1.83824 -3.3699,-5.36063 0.323029,-3.5384 0.566072,-2.28698 -3.695746,-4.24784 0.287376,-3.5961 -1.279979,-1.66754 -4.366258,-3.43927 -0.283252,-1.96427 -0.107147,-3.35785 -2.533836,-6.88059 -4.750315,-8.21199 5.663204,0.0337 7.756409,6.99406 7.368094,11.74775 -0.419044,2.58689 2.883967,-3.09182 1.043383,0.87165 -2.003927,3.36489 2.535664,-0.90709 0.617214,2.36787 -0.336791,3.58108 -1.179025,10.11638 -2.348023,11.02696 3.882147,-0.84794 8.922434,6.24428 10.332898,4.4509 -2.188432,-4.417 0.777761,-8.5634 3.229141,-11.26509 -0.520046,-1.46947 0.383842,-7.6093 2.241046,-5.10286 4.06516,4.4188 7.12496,-6.72333 1.038556,-2.51893 -1.742487,-0.16719 -1.324616,-5.26298 -2.740754,-6.78222 C 31.492183,8.6408344 22.173978,0.47890436 11.881516,2.4346644 c -4.3383588,0.008 -9.4721528,4.16488 -9.7458768,6.97697 -1.043525,-4.5141 4.517194,-7.3294 8.1124378,-8.57134004 8.458373,-2.77208996 17.877327,1.59494004 22.420195,8.98225004 2.81928,4.1246296 4.56696,8.8344396 6.212379,13.5180696 3.57254,-0.15094 7.56015,1.62088 7.65814,-3.71829 3.10292,-8.72499 9.1996,-18.2255996 19.2299,-19.39064964 5.81457,-0.86473 12.69968,1.23722004 15.96397,6.35328004 1.12139,3.00103 -0.61168,3.8046996 -0.93705,0.22181 -6.27818,-6.54856004 -17.64218,-5.78654 -24.09941,0.16881 -5.10889,4.3954696 -8.44695,10.7788396 -9.40781,17.4213896 2.87621,2.4517 1.68562,6.88 3.06796,9.32296 4.59774,1.71976 2.76797,8.17866 2.59104,10.60571 2.50768,-2.31003 8.06978,-4.47023 9.15569,-6.06489 -0.71154,-3.74427 -0.82203,-8.69206 -1.49549,-11.80158 3.63348,3.35422 -1.98377,-5.62825 1.6737,-1.03721 0.2318,-4.66655 1.10232,-10.83969 6.29001,-12.39493 5.07017,-0.17211 -3.78963,1.91587 -2.66243,5.16628 -1.30784,2.84129 -0.65881,3.21751 1.71073,2.59003 -1.3495,0.73766 -4.22096,3.2577 -0.83469,2.33896 -1.8849,1.89545 -2.11024,4.46324 -0.10253,3.48726 -2.31641,1.23415 -1.43552,5.60062 0.62776,2.13696 -0.87155,1.53757 -2.58551,5.00875 0.30946,3.60291 -1.91878,1.99308 -1.36257,5.32091 0.91909,2.23443 -2.1154,1.96748 -0.005,5.09737 -2.77165,6.39488 -3.85001,3.82894 -8.9003,6.10621 -13.86008,8.12817 3.20805,3.95961 8.86131,3.59831 13.39269,4.79786 3.60331,0.475 7.33532,1.33171 8.40536,4.61761 3.10992,1.42074 -3.54479,-0.22438 -0.20798,2.38024 3.93889,1.78847 -2.95601,-0.1075 0.45776,2.48642 2.32254,1.71837 2.34058,1.652 0.0148,1.77237 0.87711,1.94306 3.7921,2.7273 0.83914,2.6187 2.44503,2.45544 2.98677,2.35455 0.57722,2.42244 0.89795,2.00974 7.8836,2.6414 2.65855,2.85099 -2.9693,1.28296 5.24804,3.86986 6.19582,3.70193 -2.75907,3.67319 -8.40377,-2.87411 -8.69337,-0.84632 -0.13538,2.49907 -1.89102,-4.19667 -2.70165,-4.8063 -0.69734,-3.59403 -1.54067,-1.586 -2.33265,-1.16805 -0.41222,-3.39256 -1.03022,-8.1042 -2.941,-10.56271 -4.21214,-0.74874 -8.454,-1.60511 -12.3874,-3.33471 2.62196,5.37211 1.69621,12.16545 6.84305,16.10092 2.19102,3.62052 7.45984,7.20981 6.20099,11.77332 1.28086,3.45497 0.60304,1.70675 -1.17032,0.86077 -1.41047,1.93839 0.33751,5.25279 -1.91586,3.33296 -1.6608,2.35912 -0.26355,5.8302 -2.11654,3.55903 -1.54994,3.23806 0.16282,6.00429 -1.86047,4.15375 -1.09114,1.8242 -0.42764,3.42029 0.67153,5.055246 0.4529,2.19512 -2.90171,-3.495286 -2.13666,0.51895 -0.71557,3.09984 1.27079,6.48288 2.452,8.55966 -3.63131,-0.30773 -4.04426,-5.87451 -5.21525,-7.09115 -3.14417,4.55699 0.76359,-3.870426 0.55912,-5.649986 0.53122,-2.11123 2.63259,-5.47498 -0.88153,-3.0596 2.35171,-3.91588 8.3891,-9.03646 5.04106,-13.65137 -1.19185,-1.74666 -3.85827,-8.33621 -4.22259,-2.91219 -1.55694,6.796 -6.89867,11.61577 -12.24118,15.60975 -2.01931,1.29067 -3.20441,5.82567 -4.80396,1.65212 -3.811938,-4.01424 -9.221213,-6.59251 -11.609488,-11.86968 -1.754148,-1.85091 -2.104229,-7.64835 -3.145818,-8.05021 -1.689026,2.75838 -3.313062,5.55569 -4.943797,8.34872 2.185708,3.65525 3.660086,7.74732 6.611044,10.88515 -4.195559,-2.48886 0.414914,4.68561 -0.0143,6.995286 0.832998,2.0379 1.8033,4.87632 -0.643352,1.57768 0.12432,2.39468 -3.263168,8.1619 -4.87425,6.6727 l 0.470783,-0.54382 z M 41.017491,65.701654 c -0.81129,-3.85835 1.52751,-10.58689 -1.70658,-12.36927 -2.51488,1.24339 -8.07553,-4.21686 -7.647196,0.22553 -1.05373,2.85569 3.32956,6.02704 3.183279,6.25232 -2.894938,-0.25772 -7.366675,-3.18733 -5.719401,1.90226 -0.680689,5.11105 8.750258,6.38595 8.684258,7.57202 -1.567548,1.21102 -8.075919,-1.80316 -5.847709,1.7389 0.940833,3.22735 9.564859,10.19685 9.165219,3.54518 0.01,-2.95595 -0.0748,-5.91138 -0.11187,-8.86694 z m 6.40411,-13.12003 c 2.47095,-0.73507 4.62561,-2.35088 0.64543,-1.05863 -5.35581,0.82387 -10.964257,0.62631 -16.065552,-1.26657 1.886573,3.20406 7.691442,2.42937 11.243182,2.82866 1.40196,-0.0286 2.82397,-0.10297 4.17694,-0.50346 z m -7.19529,-10.62292 c 2.16084,-2.56825 -0.9783,-9.3992 4.87428,-7.61143 2.20228,0.10636 8.64693,2.10254 3.2068,-0.16473 -5.32814,-1.79759 -11.765949,-1.63424 -16.341942,1.92962 0.669102,3.92081 3.979721,7.59897 8.260862,5.84654 z m 1.26937,-18.97868 c 2.34448,-0.22221 0.86264,0.39259 0,3.9e-4 z"/></svg>
