<svg xmlns="http://www.w3.org/2000/svg" viewBox="0 0 452.26 483"><path d="M367.19 483c-5.99-4.13-9.83-9.81-11.13-16.9-3.38-18.58-7.5-37.11-9.53-55.85-3-27.74-4.43-55.64-6.55-83.48-.1-1.3-.37-2.59-.64-4.39-11.88 3.08-23.54 5.99-35.1 9.28-1.35.38-2.61 2.77-3.03 4.44-5.27 21.37-12.09 42.12-23.89 60.89-7.89 12.53-17.29 23.62-30.98 30.22-2.62 1.26-5.43 2.14-8.56 3.34V228.26c12.16-3.48 24.07-6.3 35.55-10.32s21.24-11.26 30.55-20.2c1.07 6.99 2.01 13.15 3.07 20.05 4.47-.89 8.77-1.68 13.06-2.61 11.67-2.52 23.32-5.15 34.99-7.64 8.4-1.79 12.3.52 14.99 8.75 6.98 21.36 15.33 42.11 27.43 61.16 5.63 8.87 11.83 17.23 20.42 23.63 4.82 3.59 5.38 9.61 1.93 14.17-3.39 4.48-9.16 5.47-14.19 2.15-10.48-6.92-18.21-16.45-24.8-26.95-11.18-17.8-19.56-36.91-26.39-56.74-.48-1.38-.93-2.77-1.54-4.62-14.75 3.23-29.26 6.4-42.97 9.4-.9 23.86-1.77 47.19-2.66 70.9 11.56-3.01 23.51-6.13 35.47-9.25.96-.25 1.91-.54 2.88-.77 7.83-1.82 13.23 1.88 13.79 9.81 1.37 19.56 2.36 39.16 3.87 58.71 2.23 28.81 4.36 57.65 10.92 85.89 1.07 4.6 3.12 9.05 5.26 13.3 3.04 6.04 1.89 10.16-5.2 15.9h-6.98ZM80.82 483c-8.07-6.54-7.6-8.67-3.82-18.49 3.76-9.8 6.1-20.32 7.72-30.73 6.34-40.94 8.39-82.29 10.89-123.59.56-9.23 5.9-12.94 14.83-10.63 12.51 3.24 24.98 6.6 37.41 9.9-.9-23.47-1.78-46.73-2.71-70.96-13.3-2.94-27.79-6.14-42.79-9.46-.62 1.71-1.17 3.19-1.7 4.67-8.68 24.32-18.56 48.08-34.94 68.4-4.33 5.37-9.7 10.02-15.08 14.4-5.48 4.47-11.69 3.63-15.38-1.26-3.74-4.95-2.53-10.7 3.09-15.12 12.08-9.49 20.18-22.17 26.59-35.68 7.37-15.55 13.61-31.66 19.89-47.7 3.42-8.72 6.57-11.06 15.69-9.13 14.44 3.06 28.85 6.25 43.27 9.37 1.26.27 2.55.45 4.27.74 1.03-6.57 2.01-12.85 3.13-20.03 18.58 18.24 40.92 26.4 65.91 29.16v203.3c-8.66-1.89-15.68-6.45-22-12.14-15.76-14.19-25.17-32.43-32.21-51.98-3.58-9.96-5.98-20.34-9.2-30.44-.54-1.68-2.29-3.75-3.89-4.21-11.13-3.21-22.37-6.05-34.32-9.2-.26 3.89-.53 7.46-.74 11.03-2.38 41.14-4.92 82.26-13.05 122.78-.78 3.89-2.01 7.7-3.04 11.54-1.74 6.45-5.31 11.63-10.82 15.45h-6.98Z"/><path d="M250.17 68.47c10.9 6.59 19.26 14.7 17.99 29.58-27.14-18.03-53.9-18.12-80.57-.46-3.14-9.7 1.97-18.39 17.23-29.25-4.24-12.64-11.48-23.37-22.26-31.36-22.82-16.91-61.68-22.26-91.71 5.11-22.22 20.25-36.45 45.44-46.91 73.07-14.09 37.22-19.79 75.99-20.64 115.6-.05 2.33-.05 4.66-.2 6.98-.4 6.06-4.48 10.12-10.12 10.14-5.8.02-10.3-4.26-10.17-10.56.25-12.63.39-25.29 1.51-37.86 2.56-28.85 8.04-57.16 17.72-84.54 11.02-31.18 25.99-60.07 49.97-83.44C88.09 15.8 106.63 4.41 129.65 2.77c39.43-2.82 78.86 15.51 94.14 57.14.56 1.54 2.31 2.64 3.51 3.94 1.34-1.34 3.29-2.44 3.92-4.06 12.38-31.77 35.83-49.69 68.96-55.8 36.65-6.76 65.24 7.73 89.15 34.02 24.09 26.5 38.54 58.24 48.51 92.2 10.18 34.66 14.45 70.18 14.42 106.25 0 6.82-3.93 11.23-9.88 11.42-6.12.2-10.4-4.2-10.52-11.27-.52-32.67-3.86-64.96-12.7-96.52-8.36-29.83-20.19-58.01-39.97-82.24-12.72-15.57-27.43-28.93-47.78-33.21-28.66-6.02-65.4 3.82-80.1 40.35-.42 1.05-.72 2.15-1.15 3.47Z"/><path d="M156.76 152.89c14.46-30.78 38.17-48.14 71.68-47.77 32.62.36 55.74 17.6 69.81 47.87 6.32-1.61 13.06-3.16 19.66-5.19 1.03-.32 1.77-2.72 2.03-4.27 1.87-11.09 3.15-22.3 5.54-33.27.94-4.31 3.76-8.48 6.57-12.06 3.74-4.77 9.84-5.16 14.21-1.76 4.42 3.44 5.36 9.24 1.89 14.22-5.1 7.3-5.79 15.8-6.85 24.15-.79 6.24-.91 12.58-1.16 18.89-.29 7.47-2.84 10.86-10.13 12.7-9.79 2.47-19.65 4.69-29.39 7.37-2.08.57-4.3 2.29-5.51 4.12-4.7 7.11-10.68 12.84-18.17 16.67-32.69 16.75-65.59 16.82-98.35.29-8.11-4.09-14.7-10.15-19.36-18.2-.83-1.43-2.98-2.47-4.72-2.93-9.61-2.54-19.28-4.83-28.93-7.23-8.17-2.03-10.24-5.14-10.8-13.69-.66-10.08-1.62-20.17-3.16-30.15-.63-4.1-2.77-8.12-4.85-11.82-2.98-5.33-2.51-10.83 1.88-14.31 4.35-3.45 10.19-2.89 14.32 1.54 6.19 6.64 8.14 15.13 9.57 23.65 1.24 7.34 1.81 14.82 2.38 22.25.19 2.53.89 3.93 3.43 4.51 6.13 1.39 12.24 2.93 18.41 4.42"/></svg>