<?xml version="1.0" encoding="UTF-8" standalone="no"?>
<svg
   width="107.95026mm"
   height="124.33313mm"
   viewBox="0 0 107.95026 124.33313"
   version="1.1"
   id="svg1"
   xml:space="preserve"
   xmlns="http://www.w3.org/2000/svg"
   xmlns:svg="http://www.w3.org/2000/svg"><path
     style="fill:#000000"
     d="m 53.552414,123.95819 c -2.10975,-0.459 -3.69372,-1.28322 -8.03385,-4.18046 -7.4599,-4.97983 -10.56549,-7.54143 -12.57874,-10.37539 -2.99033,-4.20936 -4.66402,-9.27324 -5.05288,-15.287886 -0.17648,-2.7298 -0.19369,-2.78766 -0.87034,-2.92675 -1.36695,-0.281 -2.88052,-1.70813 -3.77999,-3.56411 -0.52091,-1.07487 -1.588485,-2.55543 -2.720304,-3.77267 -2.235669,-2.40439 -3.153662,-4.01577 -3.859202,-6.77418 -0.96243,-3.76275 -0.723024,-7.70427 0.62646,-10.31388 0.938908,-1.81565 3.513833,-3.48225 4.858646,-3.14472 0.57708,0.14483 0.47907,-0.0443 -0.751115,-1.44964 -3.407677,-3.89284 -7.10833,-6.09092 -10.594341,-6.29272 -1.1266947,-0.0652 -2.6025567,0.0209 -3.2796927,0.19142 -0.677135,0.1705 -1.283377,0.25779 -1.347203,0.19396 -0.06383,-0.0638 0.516204,-0.76009 1.288955,-1.54726 2.464834,-2.51081 5.9761887,-4.07839 9.8626067,-4.40298 l 2.125727,-0.17753 -1.5875,-1.68771 c -4.612708,-4.90388 -11.7165007,-8.95204 -16.6198087,-9.47095 -1.85265099,-0.19607 -1.75988999,-0.34813 1.171593,-1.92064 5.528183,-2.96542 12.4938077,-3.95669 18.7430987,-2.66729 1.37562,0.28383 2.54044,0.47675 2.58848,0.42871 0.048,-0.048 -0.51054,-0.98126 -1.24129,-2.07382 -3.007882,-4.49715 -7.881619,-7.79889 -12.9764467,-8.79097 -1.710183,-0.33301 -1.715357,-0.3367 -0.926042,-0.66041 1.8663497,-0.76543 5.9334517,-1.60275 8.5530757,-1.76088 5.874033,-0.35458 12.358413,1.2539 16.602783,4.11839 0.65819,0.4442 1.24142,0.80765 1.29608,0.80765 0.0546,0 -0.19343,-0.74415 -0.55129,-1.65365 -1.51102,-3.84027 -1.8073,-5.56061 -1.81129,-10.51719 -0.003,-3.52304 0.11284,-5.1654103 0.48375,-6.8684503 0.50972,-2.3404 1.67293,-6.07983 2.00182,-6.43535 0.10529,-0.11381 0.34224,0.29643 0.52656,0.91164 0.55638,1.85703 2.30292,5.4285 3.64183,7.44712 2.58838,3.9024203 6.81085,7.6260103 11.11528,9.8020403 l 1.37735,0.6963 0.16664,-0.88827 c 0.29481,-1.57145 -0.37449,-6.74712 -1.17294,-9.0703703 -1.27367,-3.70599 -2.87023,-5.90289 -5.65539,-7.78191 l -1.64926,-1.11268 1.78403,0.17485 c 2.09758,0.20558 5.81737,1.37078 8.18159,2.56284 5.44111,2.74346 9.31488,6.7706503 11.96436,12.4382203 l 1.11566,2.38653 1.2371,-2.59427 c 1.91301,-4.01172 2.42368,-6.9913103 1.74612,-10.1880303 -0.40311,-1.90185 -1.1362,-3.30182 -2.43141,-4.64323 -0.59717,-0.61846 -1.0312,-1.12319 -0.96452,-1.1216100005752 C 66.223864,0.0020037 66.828294,0.1697637 67.500384,0.3737537 c 4.74708,1.44079 9.50506,5.79215 12.23457,11.1889803 1.6556,3.27349 2.7952,8.74345 2.47267,11.86853 l -0.14819,1.43575 1.10532,-0.7606 c 1.50109,-1.03295 4.84878,-4.58485 6.08859,-6.45999 1.79765,-2.71883 3.61568,-7.49181 3.61568,-9.4924203 0,-2.9024 2.11225,2.5476803 3.03033,7.8189403 0.58558,3.36218 0.53019,8.24148 -0.13256,11.67574 -0.29799,1.54417 -0.65223,3.09802 -0.7872,3.45301 -0.13496,0.355 -0.15192,0.64544 -0.0377,0.64544 0.34044,0 2.92311,-2.29397 3.90262,-3.46636 1.07014,-1.28088 2.643106,-4.03045 2.898396,-5.06645 0.38731,-1.57176 0.64979,-0.60579 0.53922,1.98437 -0.31207,7.30985 -2.934476,13.80892 -7.899896,19.57814 l -1.61206,1.87302 2.11333,-0.16297 c 4.34863,-0.33534 8.153456,-2.10147 11.413106,-5.29775 0.90951,-0.89183 1.65365,-1.54717 1.65365,-1.45632 0,0.60551 -2.13398,6.13849 -3.30113,8.55919 -2.86228,5.93643 -6.469086,10.36529 -10.854076,13.32792 -2.67753,1.80902 -2.67968,1.81106 -1.90997,1.81106 2.27818,0 4.35789,1.93958 5.25831,4.90401 0.46394,1.52743 0.52847,2.20564 0.37974,3.99123 -0.40289,4.83687 -1.79348,8.31047 -4.39433,10.97671 -0.9108,0.93369 -1.86145,2.26614 -2.35574,3.30183 -0.88401,1.85228 -2.19022,3.15246 -3.65162,3.63476 l -0.86701,0.28615 -0.001,2.69146 c -0.002,4.98061 -1.09399,9.828086 -3.16931,14.068536 -1.39592,2.85226 -3.08957,4.98767 -5.69317,7.17816 -2.86891,2.41371 -10.41168,7.78206 -11.87619,8.45253 -2.93938,1.34569 -8.38547,1.82001 -11.96229,1.04183 z m 9.02182,-2.63202 c 1.03872,-0.28796 2.82224,-1.22808 5.15937,-2.71959 4.31607,-2.75442 5.54541,-3.73107 6.73316,-5.3491 1.75188,-2.38654 4.11476,-7.81759 4.11476,-9.45774 0,-0.33831 0.13075,-0.61511 0.29056,-0.61511 0.37829,0 0.0865,2.62292 -0.58628,5.26925 -0.27431,1.07909 -0.45054,2.01019 -0.3916,2.06912 0.18572,0.18573 1.7483,-2.25531 2.84035,-4.43714 2.5524,-5.09955 3.69775,-14.394576 2.90047,-23.538726 -0.10805,-1.23926 -0.039,-5.99078 0.15372,-10.58333 0.1924,-4.58391 0.27557,-8.69157 0.18484,-9.12813 -0.38096,-1.83298 -1.7141,-3.58047 -3.37663,-4.42611 l -0.76268,-0.38794 0.0501,-4.47657 c 0.0902,-8.04998 -1.08176,-11.19463 -4.67262,-12.53814 -3.64059,-1.36212 -9.30823,0.005 -13.46711,3.24928 -1.48815,1.16076 -3.58331,3.5717 -4.5907,5.2826 l -0.58328,0.99061 -1.8211,-1.66209 c -2.45446,-2.24013 -5.50023,-4.03142 -8.77466,-5.16056 -2.37426,-0.81873 -3.04982,-0.93903 -5.37895,-0.95787 -2.46072,-0.0199 -2.78209,0.039 -4.218,0.77293 -1.23905,0.63332 -1.67896,1.03664 -2.16873,1.98836 -0.77722,1.51028 -1.13258,3.67007 -1.13453,6.89538 l -0.002,2.53446 -1.34038,0.6278 c -1.50019,0.70265 -3.07232,2.27924 -3.28311,3.29244 -0.0765,0.36747 -0.19984,0.96193 -0.2742,1.32103 -0.1568,0.75731 0.36612,5.71013 1.34884,12.77558 0.58019,4.17132 0.67528,5.69635 0.59802,9.59027 -0.24924,12.56035 0.58338,17.621716 3.83848,23.333676 1.0243,1.79741 3.88534,5.58361 4.07553,5.39341 0.0425,-0.0425 -0.14837,-0.60343 -0.42406,-1.2466 -0.70402,-1.6424 -1.36829,-4.72932 -1.34145,-6.23376 l 0.0227,-1.27069 0.48472,1.85208 c 0.56949,2.17599 3.01631,7.44815 4.21087,9.07316 1.08314,1.47344 9.46072,7.03793 11.92782,7.92259 1.53047,0.5488 2.06931,0.6045 4.89479,0.50598 1.79739,-0.0627 3.8638,-0.30167 4.7625,-0.55081 z m -11.06406,-4.05669 c 0.4632,-0.39787 1.75493,-1.18454 2.8705,-1.74815 2.68873,-1.35843 4.69467,-1.55619 7.06734,-0.69676 1.52622,0.55283 3.25573,1.53228 3.05685,1.73116 -0.0463,0.0463 -0.73777,-0.14138 -1.53658,-0.4171 -2.41601,-0.83392 -8.59342,-0.57665 -8.03034,0.33443 0.11968,0.19364 0.0265,0.23538 -0.27087,0.12128 -0.26307,-0.10095 -1.19747,0.15605 -2.22622,0.61228 l -1.77287,0.78625 z m -7.32448,-4.59119 c -0.94138,-0.3734 -2.33841,-1.7799 -2.95329,-2.97328 -0.68001,-1.31978 -1.26963,-4.12514 -1.27545,-6.06852 -0.0115,-3.850486 1.6043,-8.355716 3.48567,-9.718576 1.59996,-1.159 2.45536,-1.21453 6.57001,-0.42649 7.19258,1.37753 10.7777,0.81775 16.66264,-2.6017 2.62516,-1.52534 3.87458,-1.88745 5.10799,-1.48038 2.91967,0.96358 4.64177,5.74192 4.34476,12.055496 -0.2829,6.01338 -2.93303,10.98368 -5.85386,10.97884 -0.45142,-7.4e-4 -2.24952,-0.32317 -3.99577,-0.71649 -2.80767,-0.6324 -3.71068,-0.71398 -7.8052,-0.70511 -4.46819,0.01 -4.75968,0.044 -8.3301,0.98108 -3.8343,1.00633 -4.8362,1.11987 -5.9574,0.67513 z m 6.38827,-2.06888 c 5.69615,-1.73683 11.31028,-1.77704 16.97262,-0.12158 2.12395,0.62097 2.37985,0.64525 2.93894,0.27893 1.09819,-0.71957 1.09014,-3.37402 -0.0115,-3.79676 -0.29125,-0.11177 -0.64663,0.0675 -1.03958,0.52429 -0.52347,0.60856 -0.63823,0.64448 -0.93122,0.29144 -0.4471,-0.53872 -1.63058,-1.13469 -2.25173,-1.13391 -0.27623,3.4e-4 -1.14455,-0.13331 -1.9296,-0.29702 -0.79273,-0.16531 -2.38086,-0.23339 -3.57188,-0.15313 -1.17948,0.0795 -2.93788,0.13968 -3.90755,0.13376 -1.64061,-0.01 -2.45973,0.1334 -5.06881,0.88746 -0.55606,0.16071 -1.2773,0.63245 -1.60276,1.0483 l -0.59174,0.75611 -0.48877,-0.54009 c -0.65036,-0.71863 -1.0514,-0.68091 -1.42262,0.13383 -0.37899,0.83179 -0.38726,1.32768 -0.0332,1.98932 0.34341,0.64167 0.83236,0.64151 2.93938,-9.5e-4 z m 11.4711,-12.192116 c 0.43656,-0.18835 0.99551,-0.31748 1.24211,-0.28696 0.85593,0.10596 2.65871,-0.54226 3.30472,-1.18827 l 0.64954,-0.64954 0.46366,0.5726 c 0.42554,0.52552 0.52655,0.54237 1.2284,0.20491 1.64034,-0.7887 2.56195,-3.18531 1.8657,-4.85167 -0.55964,-1.33939 -1.35093,-1.24435 -4.95376,0.59495 -4.9841,2.54448 -8.92683,3.00783 -15.7871,1.85534 -3.96407,-0.66595 -4.36926,-0.58629 -4.49645,0.88396 -0.0926,1.07076 0.62069,2.128 1.87252,2.77535 0.77486,0.40069 0.84435,0.39526 1.24315,-0.0972 0.38762,-0.47868 0.47245,-0.48844 1.02976,-0.11839 0.33404,0.22179 1.40122,0.49145 2.37151,0.59924 2.66025,0.29553 9.03549,0.10729 9.96624,-0.29428 z m -29.85571,-3.25073 c -0.71315,-2.83907 -1.27008,-8.82452 -0.73107,-7.85693 0.1216,0.21828 0.29333,1.47076 0.38162,2.78329 0.0883,1.31253 0.34074,3.3283 0.561,4.47949 0.4888,2.55473 0.36692,2.89704 -0.21155,0.59415 z m 6.44714,-0.63711 c -0.004,-0.17644 0.24496,-0.99438 0.55299,-1.81764 0.72806,-1.94593 3.50241,-4.90162 5.94885,-6.33771 2.13004,-1.25034 4.44357,-2.27313 4.54164,-2.00779 0.0387,0.10464 0.48619,0.1417 0.99448,0.0824 0.68423,-0.0799 0.95473,-0.25485 1.04195,-0.67398 0.52397,-2.51821 0.68596,-3.64367 0.79671,-5.53552 0.0831,-1.41915 0.0437,-1.99054 -0.11327,-1.64517 -0.35754,0.78649 -1.69212,2.25184 -1.44583,1.5875 0.88516,-2.38771 1.73019,-5.73945 1.39473,-5.53212 -0.12405,0.0767 -0.22555,0.0279 -0.22555,-0.10841 0,-0.43121 0.73526,-0.87946 1.63979,-0.99969 0.48056,-0.0639 1.25894,-0.1786 1.72972,-0.25494 0.47079,-0.0763 1.3332,-0.0103 1.91647,0.14676 1.22951,0.33107 1.69251,1.04379 1.97757,3.04424 0.10368,0.7276 0.41511,1.8587 0.69206,2.51354 l 0.50354,1.19062 -0.94295,-1.05833 c -0.83982,-0.94257 -0.92806,-0.98598 -0.80673,-0.39687 0.0749,0.3638 0.20241,1.32969 0.28329,2.14643 0.0809,0.81674 0.43955,2.4943 0.79704,3.72792 0.69722,2.40596 0.89442,4.25417 0.54478,5.10585 -0.20168,0.49129 -0.17067,0.48684 0.43316,-0.0621 0.93953,-0.85407 2.32476,-1.08194 2.78134,-0.45754 0.34492,0.47171 0.35713,0.47085 0.35618,-0.0251 -0.002,-1.00332 -0.97569,-2.15843 -2.22023,-2.63372 -1.32868,-0.50743 -1.37565,-0.92258 -0.10438,-0.92258 0.94686,0 8.93153,2.65144 11.00505,3.65441 2.29647,1.11082 4.29204,3.79845 4.26068,5.7383 -0.0126,0.77644 -0.0211,0.77119 -0.39181,-0.24058 -0.92747,-2.53135 -3.06908,-4.17187 -7.12437,-5.45742 -1.4552,-0.46131 -3.28325,-1.19166 -4.06232,-1.62301 -1.33186,-0.73741 -1.39114,-0.74807 -0.99219,-0.17849 0.52294,0.74661 0.53754,2.3006 0.0279,2.97383 -0.20875,0.27577 -0.71098,0.53113 -1.11606,0.56747 -1.21249,0.10875 -2.18635,0.60416 -2.44047,1.24148 -0.58547,1.46833 -2.9622,3.1136 -4.49786,3.1136 -1.3795,0 -2.82478,-0.77158 -3.95419,-2.111 -0.87797,-1.04122 -1.29079,-1.31515 -2.20876,-1.46567 -2.09087,-0.34283 -2.7838,-1.72068 -1.80741,-3.59393 0.31322,-0.60092 0.41015,-0.98342 0.22115,-0.8727 -4.23569,2.48141 -7.90516,5.67434 -9.14243,7.95514 -0.46048,0.84885 -0.8404,1.399 -0.84428,1.22256 z m 19.01535,-3.40319 c 0.64383,-0.25761 1.32543,-0.8265 1.78528,-1.49006 0.96115,-1.38693 0.92003,-2.589 -0.28322,-8.27941 -0.49237,-2.32849 -0.97735,-4.82893 -1.07773,-5.55654 -0.37453,-2.71476 -1.20339,-3.62704 -2.90693,-3.19948 -1.07144,0.26892 -1.45081,1.20432 -1.84734,4.555 -0.20453,1.72832 -0.55792,4.19979 -0.7853,5.49216 -0.51522,2.92841 -0.51857,4.05694 -0.0149,5.02267 0.48205,0.92429 0.50351,1.30848 0.0645,1.15498 -0.1819,-0.0636 -0.29939,-0.29576 -0.26109,-0.51592 0.0383,-0.22015 -0.11053,-0.5498 -0.33073,-0.73255 -0.24755,-0.20545 -0.40037,-0.78117 -0.40037,-1.50833 0,-1.0973 -0.0399,-1.16384 -0.59531,-0.99356 -0.8716,0.26721 -1.29504,0.67464 -1.69463,1.6306 -0.46565,1.11396 -0.45206,1.19916 0.16027,1.00481 0.57055,-0.18108 2.80659,0.33319 2.55268,0.5871 -0.24643,0.24643 0.67054,1.13803 0.97615,0.94915 0.14855,-0.0918 0.19641,-0.0477 0.10634,0.0981 -0.22693,0.36717 1.16445,1.64512 2.09398,1.92328 1.10692,0.33124 1.30417,0.31985 2.45834,-0.14195 z m -18.49324,-7.23561 c 0.56344,-0.1629 0.46541,-0.22104 -0.66145,-0.39237 -0.72761,-0.11062 -1.80522,-0.41223 -2.3947,-0.67024 -1.1737,-0.51373 -3.02926,-2.02426 -3.02926,-2.46599 0,-0.153 0.2124,-0.086 0.47201,0.14898 0.40453,0.3661 3.28489,1.77152 3.63066,1.77152 0.0654,0 -0.41185,-0.48917 -1.06046,-1.08704 -2.33324,-2.15071 -3.39384,-5.63947 -3.36951,-11.0838 0.0131,-2.93686 0.0886,-3.47195 0.67425,-4.7775 0.36271,-0.80861 0.99461,-1.8685 1.40423,-2.3553 l 0.74477,-0.88511 -1.04954,0.19221 c -1.33477,0.24444 -3.05028,1.23662 -3.91499,2.26426 -0.36974,0.43942 -0.73089,0.79894 -0.80255,0.79894 -0.22875,0 1.1127,-4.67941 1.69905,-5.92682 0.3106,-0.66078 1.02985,-1.62162 1.59833,-2.13521 0.92039,-0.83151 1.19389,-0.9338 2.49685,-0.9338 2.43402,0 3.68014,0.83215 8.16934,5.45542 3.93945,4.05711 6.36834,5.96905 8.01898,6.31226 0.76391,0.15884 0.90749,0.0862 1.38807,-0.70203 0.68553,-1.1244 0.7034,-3.09375 0.0454,-5.00614 -0.6649,-1.93258 -1.96167,-4.46107 -2.85001,-5.55706 l -0.72893,-0.89932 0.87254,0.79375 c 0.98784,0.89863 2.6011,3.29584 3.01279,4.47681 0.24553,0.70431 0.29601,0.73316 0.47639,0.27216 0.11097,-0.2836 0.23135,-0.93236 0.26751,-1.44168 0.0362,-0.50933 0.14683,0.20505 0.24592,1.5875 0.0991,1.38244 0.27281,3.19506 0.38603,4.02803 0.37139,2.73227 -1.017,5.52545 -2.94028,5.91529 -0.74562,0.15113 -0.76354,0.19469 -0.78955,1.91868 -0.0512,3.38992 -2.51731,6.74359 -6.32498,8.6012 -2.33399,1.13865 -4.91255,2.03636 -5.74474,2.00001 -0.5842,-0.0255 -0.58234,-0.0325 0.0578,-0.21761 z m 5.62483,-3.00011 c 2.8114,-1.2871 4.77715,-3.67324 5.20826,-6.3221 0.33002,-2.02768 0.11575,-2.81875 -0.87785,-3.24111 -1.11822,-0.47533 -3.69653,-2.40971 -6.90176,-5.17805 -3.07174,-2.65304 -4.16207,-3.4459 -4.73876,-3.4459 -0.76931,0 -2.20126,1.56543 -2.95826,3.23402 -0.61807,1.36238 -0.77317,2.12139 -0.86321,4.22442 -0.24333,5.6836 1.74555,9.79196 5.42181,11.1996 1.43832,0.55074 3.92648,0.34554 5.70977,-0.47088 z m -1.01573,-4.20249 c -1.24543,-0.60432 -1.81725,-2.77289 -1.09947,-4.16958 0.17976,-0.34978 0.65328,-0.87831 1.05227,-1.17452 0.69199,-0.51374 0.76767,-0.51842 1.64168,-0.10163 1.92447,0.91771 2.29036,3.58891 0.68775,5.02096 -0.85792,0.76662 -1.37818,0.86345 -2.28223,0.42477 z m 1.60861,-3.40134 c 0,-0.33955 -0.14876,-0.66695 -0.33059,-0.72755 -0.40562,-0.13521 -0.71032,0.57575 -0.49133,1.14643 0.23276,0.60656 0.82192,0.3063 0.82192,-0.41888 z m 23.15104,8.76303 c -5.54354,-1.26092 -8.3991,-4.2321 -8.67673,-9.02806 -0.11681,-2.01775 -0.13465,-2.06267 -0.90758,-2.28565 -0.46974,-0.13551 -1.1251,-0.69222 -1.62133,-1.37729 -0.76585,-1.05728 -0.8318,-1.31288 -0.81924,-3.175 0.008,-1.11383 0.0425,-2.38234 0.0778,-2.8189 0.0352,-0.43656 0.005,-1.56766 -0.0672,-2.51354 l -0.13132,-1.71979 0.25583,1.4552 c 0.14071,0.80037 0.29212,1.56925 0.33648,1.70864 0.0444,0.13939 0.60818,-0.74024 1.25294,-1.95472 0.64477,-1.21449 1.62765,-2.69775 2.1842,-3.29614 0.95923,-1.03136 0.97673,-1.03887 0.33625,-0.14421 -0.3716,0.51907 -1.17838,2.00735 -1.79283,3.30729 -0.86945,1.83939 -1.14075,2.74933 -1.2234,4.10331 -0.16106,2.63828 0.72987,3.17357 3.00769,1.80708 0.84286,-0.50565 3.65262,-3.30036 5.16199,-5.13437 1.93579,-2.35213 4.4159,-4.70723 5.59429,-5.31231 3.53974,-1.8176 6.38218,0.46931 7.91818,6.37064 0.26514,1.01865 0.48411,2.02661 0.4866,2.23992 0.003,0.21546 -0.61285,-0.213 -1.38453,-0.964 -1.68745,-1.64223 -2.74312,-2.20196 -4.15297,-2.20196 h -1.0704 l 1.33039,1.651 c 1.84489,2.28948 2.63621,4.81851 2.63621,8.42517 0,2.87201 -0.52368,4.96241 -1.71658,6.85207 l -0.63859,1.0116 1.16912,-0.65343 c 1.1798,-0.65941 2.50897,-2.00191 2.50897,-2.53414 0,-0.15861 0.074,-0.21438 0.16444,-0.12394 0.31228,0.31228 -1.21819,2.52044 -2.29658,3.31349 -0.97723,0.71867 -1.03514,0.82264 -0.59929,1.0761 0.40748,0.23696 0.33853,0.2825 -0.44357,0.29301 -1.03923,0.0139 -4.70715,1.29109 -3.77031,1.31278 0.32742,0.008 0.59531,0.13512 0.59531,0.28341 0,0.15953 -0.28621,0.19779 -0.70092,0.0937 -0.49329,-0.12381 -0.64542,-0.0861 -0.51355,0.12725 0.23736,0.38407 -0.0437,0.36214 -2.4897,-0.19422 z m 3.04271,-2.12271 c 1.46026,-0.6786 2.87851,-2.24188 3.74392,-4.12678 1.45742,-3.17433 1.10285,-8.30586 -0.76921,-11.13214 -0.91876,-1.38708 -2.63304,-2.59601 -3.35586,-2.36659 -0.26557,0.0843 -2.13392,1.70832 -4.15189,3.60897 -2.01797,1.90065 -4.16909,3.81796 -4.78026,4.26068 -1.27854,0.92615 -1.53766,1.69029 -1.26195,3.72151 0.31767,2.3404 1.68304,4.49509 3.4315,5.41525 2.26583,1.19242 5.33723,1.4586 7.14375,0.6191 z m -7.43479,-4.3649 c -0.78428,-0.78428 -0.89958,-1.06994 -0.89958,-2.22866 0,-1.74019 0.92552,-2.95717 2.24895,-2.95717 1.36585,0 2.24896,1.21076 2.24896,3.08336 0,1.25567 -0.10607,1.56133 -0.77339,2.22866 -1.00826,1.00825 -1.7224,0.97635 -2.82494,-0.12619 z m 1.34937,-3.20508 c 0,-0.74032 -0.77495,-0.65828 -0.88138,0.0933 -0.0679,0.4799 0.0212,0.5979 0.39688,0.52554 0.27569,-0.0531 0.4845,-0.31981 0.4845,-0.61885 z m 12.16305,-17.87206 c -0.41999,-0.8787 -0.91747,-1.72533 -1.10551,-1.8814 -0.18805,-0.15606 -0.34191,-0.41137 -0.34191,-0.56734 0,-0.46507 1.33544,1.4486 1.88482,2.70093 0.7735,1.7632 0.43166,1.56611 -0.4374,-0.25219 z m -42.7912,-0.22062 c 0.71568,-0.67559 0.9997,-0.78238 1.71979,-0.64664 0.88749,0.1673 1.86422,0.59661 1.38995,0.61094 -0.14648,0.004 -0.64597,-0.10084 -1.10997,-0.23391 -0.464,-0.13307 -0.87994,-0.16284 -0.9243,-0.0661 -0.0444,0.0967 -0.49737,0.39388 -1.00669,0.6604 l -0.92604,0.4846 z m -0.4395,-2.29866 c 0.0127,-0.30823 0.0754,-0.37092 0.15986,-0.15986 0.0764,0.191 0.067,0.4192 -0.0209,0.50712 -0.0879,0.0879 -0.15046,-0.0684 -0.13897,-0.34726 z m 0.26239,-0.7002 c -0.0303,-0.31323 0.83162,-2.3521 0.946,-2.23771 0.0576,0.0576 -0.1275,0.62807 -0.41131,1.26774 -0.2838,0.63968 -0.52441,1.07616 -0.53469,0.96997 z m -6.49834,34.71731 0.18324,-2.51743 -0.86499,-0.26069 c -0.47661,-0.14364 -1.23113,-0.71722 -1.68044,-1.27744 -0.73195,-0.91264 -0.81545,-1.2017 -0.81545,-2.82296 0,-1.54744 0.0919,-1.90402 0.64143,-2.48898 0.57118,-0.60799 0.56105,-0.80636 -0.0366,-0.71728 -0.1039,0.0155 -0.12567,-0.13665 -0.0484,-0.33809 0.0773,-0.20144 -0.12863,-0.55479 -0.45763,-0.78522 -0.5288,-0.37039 -0.64833,-0.37357 -1.03079,-0.0275 -0.72245,0.65381 -0.86408,0.45237 -0.67644,-0.96213 0.14335,-1.08062 0.0886,-1.45419 -0.2715,-1.85208 -0.24809,-0.27414 -0.53581,-0.49843 -0.63938,-0.49843 -0.45808,0 -1.317181,2.79396 -1.317181,4.28374 0,3.22257 0.824101,4.71311 3.968751,7.17828 0.88439,0.6933 0.89034,0.70873 0.13229,0.34303 -1.15181,-0.55564 -2.99175,-2.20918 -3.684149,-3.31091 -1.094062,-1.74084 -1.570827,-3.67389 -1.520274,-6.16398 0.02568,-1.26502 0.165387,-2.61223 0.310455,-2.99378 0.145068,-0.38156 0.26376,-0.80506 0.26376,-0.9411 0,-0.42635 -0.754599,-0.26944 -1.03714,0.21566 -0.162698,0.27933 -0.272877,0.32704 -0.277731,0.12026 -0.0044,-0.18851 0.297503,-0.6483 0.670951,-1.02175 0.537746,-0.53775 0.845105,-0.64578 1.477476,-0.5193 1.338762,0.26775 2.280862,1.15602 3.982412,3.75486 0.8959,1.36834 1.66245,2.45435 1.70345,2.41335 0.13122,-0.13122 -1.49745,-5.52112 -2.07164,-6.85584 -0.67933,-1.57917 -1.32382,-2.05877 -2.76656,-2.05877 -1.434882,0 -2.459362,0.84176 -3.293232,2.70587 -0.522679,1.16845 -0.62333,1.82514 -0.619364,4.041 0.0081,4.54874 1.261094,7.51247 4.310916,10.19704 1.03848,0.9141 1.72878,1.76343 1.91976,2.36203 0.16402,0.51408 0.52598,1.31253 0.80436,1.77434 0.54749,0.90824 2.09491,2.03172 2.38053,1.72835 0.0967,-0.10272 0.25829,-1.3196 0.35908,-2.70419 z m 59.48038,1.25713 c 0.54672,-0.51562 1.05285,-1.34161 1.25647,-2.05052 0.26075,-0.90782 0.79523,-1.62754 2.2719,-3.05928 2.19708,-2.13024 3.00462,-3.63254 3.64548,-6.78176 0.62196,-3.05642 0.54596,-5.60578 -0.21589,-7.24192 -0.34415,-0.73908 -0.95436,-1.60228 -1.35602,-1.91823 -0.92996,-0.73151 -2.76608,-0.78669 -3.38594,-0.10176 -0.59415,0.65654 -1.43046,2.61666 -2.14544,5.02843 -1.02994,3.47423 -1.05667,3.79565 -0.18639,2.24106 1.3928,-2.48798 2.64404,-3.97456 3.82754,-4.54748 1.47833,-0.71565 1.87364,-0.69253 2.53502,0.14828 0.67786,0.86176 0.72075,1.39296 0.0645,0.79908 -0.65064,-0.58883 -1.2165,-0.57415 -0.96916,0.0251 1.09625,2.65624 0.74657,6.44554 -0.86865,9.41323 -0.72081,1.32437 -2.18614,2.73829 -3.81289,3.67913 -0.80329,0.46457 -0.78806,0.43339 0.18143,-0.37147 1.90383,-1.58052 3.27545,-3.15759 3.59906,-4.13814 0.86486,-2.62054 -0.079,-7.60936 -1.31457,-6.94812 -0.73401,0.39283 -0.85424,0.94602 -0.40245,1.85165 0.26781,0.53685 0.31912,0.94561 0.15539,1.23817 -0.16666,0.29781 -0.3031,0.34177 -0.42893,0.13818 -0.28599,-0.46274 -0.98623,-0.35399 -1.63299,0.25361 l -0.58776,0.55217 0.66363,1.27911 c 0.7837,1.51055 0.67626,2.99827 -0.30146,4.17417 -0.32854,0.39513 -0.73828,0.98631 -0.91054,1.31373 -0.20196,0.38386 -0.55697,0.59531 -0.99952,0.59531 h -0.68631 l 0.18047,2.18281 c 0.29003,3.50786 0.3748,3.61222 1.82401,2.24543 z m -59.60406,-7.66938 c -0.1634,-0.54571 -0.41136,-0.99219 -0.55104,-0.99219 -0.41831,0 -0.28725,1.76375 0.20906,2.81327 l 0.46302,0.97914 0.088,-0.90402 c 0.0484,-0.49721 -0.0457,-1.3505 -0.20905,-1.8962 z m 58.46941,0.44423 c 0.32311,-1.02223 0.32851,-1.701 0.0135,-1.701 -0.4262,0 -1.11849,2.53101 -0.91455,3.34358 l 0.18909,0.75339 0.22756,-0.79171 c 0.12516,-0.43545 0.34314,-1.15736 0.48439,-1.60426 z"
 /></svg>
