<svg xmlns="http://www.w3.org/2000/svg" xml:space="preserve" width="66.402" height="91.414" viewBox="0 0 17.569 24.187"><path d="m2.097 4.235-.132-.251q-.344-.741-.159-.86.185-.133.98.41.991.714 1.454.952.754.397 1.19.278.239-.066.345-.436.066-.239.119-.834.066-.635.278-.86.211-.238.529.053l.145.132.582.622q.45.41.741.357.252-.04.596-.608.423-.728.595-.9.212-.198.516.146l.476.49q.172.052.648-.953L11.728.49q.37-.608.397-.463l-.093 1.588q-.119 1.534-.053 2.024-.04.238.344-.238l.794-1.112.926-1.15q.423-.45.41-.278-.066.502-.29 1.349l-.305 1.19q-.225 1.43-.265 2.17-.066 1.098.252 1.058.542-.066.846-.476.37-.503.98-2.487.039.33-.054 1.125-.092.9-.092 1.203 0 .463.145 1.323.04.768-.463 1.403-.251.344-.648.41-.516.053-1.15-.331-.12-.08-.742-.9-.674-.9-.9-1.362-.357-.794-.555-.635t-.423.542l-.41.675-.397.503-.172.119q-.357.132-1.164-.768l-.635-.952q-.477-.701-.675-.648l-.172.172q-.344.516-.9 2.063-.476 1.323-.648 1.376l-.08.027q-.21.026-.86-.172-.687-.212-.978-.212l-.291.013q-.728.093-1.059.662-.25.41-.264.965 0 .384.476.847.37.357.834.595l-.953 1.006q-.728.913-.794 2.077-.37-.688-.648-1.627-.582-1.892-.212-3.136.04-.145-.423-1.72-.45-1.534-.344-1.732l1.23-.12q1.23-.026 1.482-.224.238-.212-.026-.82zM17.536 9.58q-.305.33-.966.714-.662.384-.767.516l-.463-.715-.543-.687q.397-.146.807-.662.12-.145.503-.29l.582-.054-.172.37q-.212.345-.12.41.146.106.795.186.49.053.344.212"/><path d="M14.017 14.077q1.11.384 1.23-.9.106-1.23-.542-1.825-.477-.436-.847-.278-.33.133-.463.649-.238.979.503 1.323l.595-.014q.172-.185.132-.529t-.238-.516q-.212-.185-.45.053-.106.106-.013.199.093.105.212 0 .304.145.211.317l-.463.027q-.172-.08-.211-.384-.027-.251.04-.503.25-.476.7-.066.41.357.503.767.093.397-.132.754-.265.437-.834.344-.912-.145-1.084-1.362-.16-1.125.238-1.416.225-.172.529-.198l.265-.013-.16-.318q-.184-.251-.41-.238-.462.066-.833.49-.41.462-.145 1.706.317 1.468 1.667 1.931m-3.122-1.957h-.027q-.145.052-.026.29l.198.424.53.873.7 1.005.08.225-.053.238-.41.728q-.053.093-.014.185l.16.093.224.04.08-.014q.211-.026.33-.211l.49-.966.026-.225-.106-.212q-.926-.86-1.243-1.27-.199-.251-.463-.648l-.225-.357q-.106-.198-.251-.198m-.688-1.826q.33.688.476 1.521l.119-.529q.04-.635-.344-1.19-.344-.49-.74-.662l-.61-.159q.689.291 1.02.887zM6.41 9.606q-.582 0-1.257.556-.291.264-.172.396.12.12.41-.132.397-.357.926-.119.185.08.873.582l-.105.133q-.41.502-.133 1.865.331 1.627 1.694 2.143 1.11.437 1.217-.979.105-1.35-.556-2.01-.49-.477-.86-.318-.33.145-.45.714-.238 1.072.516 1.468l.609-.026q.159-.185.119-.582-.053-.37-.238-.556-.225-.198-.463.066-.106.106-.013.212.105.106.211 0 .304.172.212.357l-.45.014q-.185-.093-.212-.424-.04-.278.027-.542.251-.53.701-.08.41.397.503.86.106.437-.12.834-.264.476-.833.37-.9-.172-1.085-1.508-.172-1.23.212-1.561l.172-.119q.688.172 1.455-.45.252-.212.199-.344-.027-.08-.146-.066-.132.027-.29.159-.411.33-1.072-.08l-.98-.687q-.29-.146-.621-.146m4.789.49q.04.145.397.119.965-.093 1.362-.675l.04-.013.198-.41q.57.37 1.085.383 1.283 1.614 1.852 3.294.675 1.985.41 4.114-.277 2.17-1.455 3.797-.833 1.164-2.01 1.879-1.324.794-2.422.926l-.582.04h-.317l-.053.026q-.013.12.608.225l.913.066.066-.013q-.264.238-.793.304-1.125.146-2.408-.45-1.39-.635-1.627-1.627.82.423 1.376.344.172-.026.172-.093l-.186-.158q-1.905-.9-3.413-2.937l-.198.04q-1.151.158-1.746-.86-.609-1.032.25-1.892.067-.106.04-.199l-.45.199q.04-.132-.039-.291v-.013q.569-1.218 1.085-1.905l.595-.583q.172-.145.146-.29-.013-.16-.146-.133l-.053.013q-.37.212-.807.768-.608.78-.926 1.878l-.106-.304.344-.94q.305-.7.688-1.177l.609-.727.317-.318q.106-.092.053-.185t-.185-.08l-.093.027q-.29.146-.965 1.098-.556.86-.847 1.905-.185-1.27.754-2.42.384-.49 1.151-1.072.172-.12.066-.252l-.132-.106q-1.151-.463-.992-1.349.145-.833.873-.926h.092l1.218.093.74.079q.239-.053.384-.159l.185-.198.635-1.283q.344-.741.688-.755.172 0 .41.199l.424.41q.648.714 1.296.622.278-.027.53-.278l.343-.516q.357-.49.635-.542.146-.014.265.145l.344.662q.29.542.542.78-.106.688-.212.94-.198.476-.635.515l-.317.093q-.093.066-.066.145m1.071 6.575q-1.428.027-2.434.596-1.15.661-1.243 1.825-.053.873.357 1.575l-.013.026.026.013q.49.807 1.402.992.926.172 2.183-.423 1.469-.701 2.196-.754v-.013l-.238-.503-.278-.556.014-.013-.014-.013q-.145-.886.106-1.905l.212-.145.185-.133q-.86-.595-2.46-.569m-5.173 2.5q.026.226.264.067.238-.146.212-.33-.066-.543.185-1.006.278-.477.78-.675.186-.08.239-.33.053-.252-.185-.16-.741.278-1.165.966-.423.688-.33 1.469m-.78.463q.052.106.237.092.186-.013.12-.145-.371-.794-.067-1.627.04-.106-.158-.16-.186-.039-.225.08-.318.9.092 1.76M3.645 16.18q0 .212.185.185.053 0 .093-.04.053-.053.04-.119 0-.119.158-.33l.159-.172q.093-.08.04-.199t-.16-.092l-.078.026-.292.304q-.158.238-.145.437m-.609-.357.053.053q.08-.014.252-.291l.304-.45.317-.278.172-.132q.146-.133.08-.252-.053-.119-.172-.106l-.04.027q-.37.225-.595.542l-.278.503zm7.554 6.76.463.013.357-.106.424-.304q.092-.066.08-.12l-.133-.039-1.204.013q-.265.053-.265.252-.013.106.08.198.08.08.198.093"/><path d="M9.095 18.364q.106-.384 1.085-.887 1.39-.714 3.36-.569l-.013.04-.066.595q-.159.265-.926.384l-1.217.199-2.183.224zM9.333 20.52q.305-.794 1.35-.728.952.053 1.6.662.067.066.384-.12-.476-.436-1.19-.594.555-.384 1.177-.45.675-.08 1.19.264.437.437.239.807l.013.014-1.336.463-1.151.529q-.622.185-1.297-.027-.648-.198-.979-.82"/></svg>