<?xml version="1.0" encoding="UTF-8" standalone="no"?>
<svg
   width="99.728378mm"
   height="114.18253mm"
   viewBox="0 0 99.728378 114.18253"
   version="1.1"
   xml:space="preserve"
   xmlns="http://www.w3.org/2000/svg"
   xmlns:svg="http://www.w3.org/2000/svg"><path
     style="fill:#000000"
     d="m 45.678022,113.97545 c -11.758945,-1.19991 -23.44821,-7.90679 -28.107203,-19.158688 -2.75053,-4.12413 -0.451687,-11.40705 -6.997284,-11.56082 -7.0935894,-3.75079 -10.1441904,-14.46626 -5.1519344,-20.97846 2.014183,-3.1894 8.4088374,-1.10296 5.3329694,-6.25527 -0.290273,-3.2775 -4.8348184,-3.728 -6.2913064,-6.61718 -2.588938,-3.38653 -5.335406,-8.78424 -4.199745,-12.55841 1.711247,2.42159 10.3244634,5.6112 5.541543,0.23328 -3.479481,-6.86315 -3.91082,-15.28777 -1.042011,-22.435301 1.015558,3.138091 4.856039,9.869201 7.0677804,8.799141 -0.859077,-4.99881 0.626236,-10.329876 3.682611,-14.342402 0.504692,3.683348 1.864652,7.316952 4.476058,10.031482 -1.362535,-6.869489 4.291495,-12.252817 5.149579,-18.778493 2.841557,0.319 4.805994,7.218015 5.704873,10.783621 0.448735,4.145225 1.40798,1.01717 2.590823,-1.256653 C 36.271078,5.01661 41.19206,1.611455 46.525422,0.014738 45.632662,2.555886 42.559134,9.904502 45.606652,10.102868 50.453942,7.543993 55.641362,4.976905 58.453082,0 c 2.56348,1.7784 2.1756,8.506711 0.11829,11.822156 -0.005,2.767698 6.36331,-2.754119 6.87417,-2.634496 -2.80913,6.615081 6.77419,0.739644 8.19205,-1.677579 1.67456,-1.887056 3.22736,-7.80687 4.57026,-2.465989 1.88535,4.028137 1.52871,9.035908 0.50979,12.96388 4.63152,-4.126963 11.27416,-6.418012 17.41136,-5.02916 -3.88845,3.69348 -6.50949,8.49566 -7.54386,13.7761 -2.26724,5.78128 5.32512,-1.4362 8.10221,0.403 7.342168,0.24133 -3.2469,4.35532 -3.18222,8.13121 -4.66611,5.83715 4.2113,4.11573 6.22325,3.80981 -0.0267,4.17962 -7.58798,8.47212 -7.08161,9.82208 3.1611,-0.0382 10.978288,4.38762 3.77943,4.51842 -3.59028,1.40145 -9.83491,6.4471 -3.22436,7.97383 4.00751,4.19068 3.32292,11.16565 0.89622,15.99311 -1.09535,5.15561 -8.07381,4.92775 -9.65041,8.19175 -1.4471,11.53113 -9.41039,21.893458 -20.34448,25.943998 -5.82513,2.19133 -12.23177,3.08146 -18.42515,2.43333 z m 11.22756,-3.84664 c 11.88039,-1.83416 22.14956,-11.496558 23.8663,-23.527148 0.72197,-3.4253 -0.19184,-8.21583 4.79371,-6.27175 6.46888,-1.49126 8.87822,-10.2687 6.0484,-15.731 -5.15333,-4.79016 -7.08564,4.52361 -7.90154,8.1605 -4.65388,1.40284 -0.76018,-7.2798 -1.46826,-10.13535 1.0473,-5.78219 -0.58945,-11.36657 -2.79388,-16.64669 -0.71206,-2.33996 -0.61974,2.98213 -2.36567,-0.7874 -3.35817,-2.20844 -0.59976,-9.80613 -3.43116,-10.08458 -5.17683,1.92633 -10.92688,1.41628 -16.18364,0.1086 0.5656,1.87884 7.87931,4.10228 3.32738,3.85527 -6.36267,0.28064 -12.43747,-2.38801 -17.45919,-6.09162 0.69766,3.19245 5.76437,6.76479 5.87686,8.16023 -6.211043,-0.99437 -11.788145,-4.62861 -15.537463,-9.63155 -3.751051,1.25861 -7.502103,2.51721 -11.253154,3.77582 -0.009,5.42887 -0.144083,11.01646 -2.760109,15.93717 -2.982361,6.93922 -1.067775,14.54711 -1.077133,21.75445 -4.936951,2.44944 -1.831924,-9.14414 -7.082941,-9.71259 -6.0970494,-0.13424 -6.1470874,8.20576 -3.8276294,12.15979 1.587382,4.23255 6.2634124,6.14709 10.1402734,5.40275 0.612982,8.78115 3.696859,18.02964 11.178004,23.309858 7.882891,5.894 18.339742,7.58426 27.910842,5.99524 z m -13.32887,-9.25727 c 2.57395,-2.698748 11.70017,-2.824938 14.10916,0.20169 -4.65952,-0.70552 -9.50655,-0.87751 -14.10916,-0.20169 z m 19.20488,-3.418848 c -8.56239,-2.64165 -17.60041,-1.4113 -26.191101,0.34253 -7.436439,0.0832 -4.38855,-9.95123 -0.787274,-13.05134 5.838479,-6.18946 15.187945,-5.97205 23.041555,-5.55887 7.84151,0.14322 13.27204,8.73828 11.54045,16.00467 -0.88792,3.675 -4.8503,3.06913 -7.60363,2.26301 z m -19.49988,-13.45345 c 4.72981,-0.0483 9.64338,-0.40753 14.31254,-0.28399 1.96374,-0.71851 5.65598,2.25979 5.41439,-2.00992 -6.96728,-2.49638 -14.74157,-1.28117 -21.721204,0.60074 -2.435276,0.88323 0.677625,3.05216 1.994274,1.69317 z m -28.184634,-5.73037 c -4.776906,-0.52177 -2.246854,-6.0918 -2.37798,-7.61644 -1.23574,1.36148 -2.51582,4.49182 -2.125275,0.48955 3.056181,-2.19811 -0.519217,-3.08557 -2.3793174,-1.96602 0.939175,-6.54588 9.7501664,3.15981 5.9619384,3.96776 -5.6013364,0.73415 5.531228,5.2821 0.920634,5.12515 z m 68.193774,-1.51334 c 2.12062,-0.3532 4.41489,-5.02624 1.33316,-4.31639 -0.92003,-5.57086 8.95884,-6.14049 6.24213,-2.47341 -1.50834,-3.02962 -5.09155,-0.21911 -1.99357,1.6694 0.73801,4.92499 -3.70808,-3.81064 -1.70991,0.66321 1.31007,2.49625 -1.14092,5.63097 -3.87181,4.45719 z m -34.92905,-1.01714 c -6.76103,-3.00463 2.1611,-8.22019 2.05021,-11.45931 2.73272,3.87841 -5.59539,8.67105 1.04727,9.53279 1.85378,0.49066 8.10122,-2.2024 4.23688,1.27583 -2.1296,1.30505 -4.99434,1.33272 -7.33436,0.65069 z m -16.632383,-4.08873 c -1.977912,-0.19725 -6.048813,-3.25422 -1.506823,-1.53983 3.089399,1.63072 9.193495,-2.06519 9.993284,-1.99205 -1.877697,2.66517 -5.244727,4.19793 -8.486461,3.53188 z m 33.565713,-0.61896 c -2.76786,-0.11615 -7.59701,-5.03457 -2.32574,-2.00571 3.13331,1.85441 8.80959,0.15269 10.7059,-0.87129 -1.97351,2.21748 -5.44438,3.75302 -8.38016,2.877 z m -34.155338,-3.29401 c -5.908838,-1.24346 -8.530178,-9.38086 -3.808888,-13.45151 2.053882,-2.03952 6.658888,-2.23912 1.829387,-4.55942 -2.374634,-3.18378 -7.818709,4.76734 -5.177877,-1.46232 1.6014,-5.73284 7.670346,-6.53788 10.716641,-1.46133 3.450371,2.2962 8.046773,8.71122 12.113355,6.05223 -0.2358,-2.49959 0.3879,-6.0168 1.50626,-1.78057 2.36464,4.92059 -3.83904,6.35397 -5.380827,8.01014 1.143657,6.44615 -6.261416,10.50444 -11.798051,8.65278 z m 6.425562,-2.03095 c 3.13378,-0.49336 6.920096,-7.25098 2.78015,-8.41839 -3.966559,-1.62763 -8.365563,-6.84846 -12.231137,-1.98661 -4.320152,3.82713 -0.727846,10.64963 4.541234,10.90419 1.644275,0.19006 3.33901,0.0269 4.909753,-0.49919 z m -3.911395,-2.48125 c -6.4418,-3.68934 3.80044,-11.30775 5.37791,-3.95758 0.567831,2.8804 -2.766345,5.5575 -5.37791,3.95758 z m 0.377346,-3.43626 c 1.098975,-3.91681 -3.514498,0.55371 0,0 z m 29.279455,8.07841 c -3.94346,-0.95337 -6.79498,-4.85365 -5.82084,-8.90506 -5.55387,1.35455 -7.31694,-7.28117 -3.66651,-9.55527 -1.89717,4.24007 1.86993,7.24862 5.1905,3.55155 4.54831,-2.28124 7.62854,-8.22161 12.77395,-8.63952 2.23877,1.07276 6.1385,6.80589 4.30171,7.76256 -0.80563,-4.13686 -9.22793,-0.39211 -5.7563,1.00072 5.61291,1.9798 6.76365,10.2372 1.65097,13.4634 -2.44255,1.8017 -5.80692,1.8633 -8.67348,1.32162 z m 5.42396,-1.55587 c 4.36489,-0.88767 7.26427,-6.95826 3.55699,-10.23317 -1.85183,-1.99959 -4.81092,-3.36273 -6.82676,-0.96416 -1.9281,1.93388 -5.83357,2.41768 -7.04898,4.5164 -0.64216,5.46122 5.83973,8.19506 10.31875,6.68093 z m -5.71857,-2.54538 c -6.09356,-4.24068 4.09195,-10.7137 5.62915,-3.84135 0.45248,3.09892 -2.93224,5.39356 -5.62915,3.84135 z m 4.38161,-3.59555 c 0.16746,-4.22207 -3.46504,1.55957 0,0 z m -14.40575,0.54198 c -2.42053,-1.34639 -3.03279,-5.46081 -5.66085,-1.73992 -6.392129,3.15983 4.21075,-6.41463 4.35384,-0.68729 1.16586,1.77469 7.57001,3.34159 1.30701,2.42721 z" /></svg>
