<svg xmlns="http://www.w3.org/2000/svg" xml:space="preserve" width="410.941" height="405.12" viewBox="0 0 108.728 107.188"><path d="M22.9 51.86c-8.465 11.907-9.411 26.549-2.008 39.129 2.82 4.79 9.545 11.216 14.482 13.836 4.076 2.163 4.397 2.237 9.65 2.237 1.767 0 2.92.033 3.71.126.59-.213 1.179-.43 1.77-.64 1.17-.415 2.34-.833 3.497-1.286.754-.305 1.51-.604 2.248-.949a73 73 0 0 0 1.926-.96c.604-.305 1.219-.59 1.866-.794.34-.116.68-.227 1.011-.364.31-.132.622-.259.92-.417q.11-.051.218-.107c.576-2.145-.099-2.548-2.376-1.463-2.797 1.334-5.072 1.223-6.139-.3-1.128-1.61-1.214-3.46-.092-1.982.946 1.237 2.709 1.255 5.008.019.99-.531 2.397-1.024 3.128-1.096 2.003-.196 3.304-1.678 5.457-6.214 1.528-3.221 1.828-4.35 1.378-5.191-1.137-2.124-.54-2.359 1.483-.583 1.82 1.597 2.347 1.775 4.54 1.528 4.078-.46 8.222-5.504 6.191-7.535-.742-.742-1.183-.765-3.021-.158-1.184.39-2.918 1.176-3.853 1.746-2.162 1.322-3.105 1.317-3.105-.004 0-.698 1.074-1.617 3.232-2.77 3.102-1.655 3.295-1.89 4.773-5.84 1.288-3.44 2.067-6.668 2.365-9.718-3.332.904-6.852 1.685-9.455 2.017-4.366.556-10.631.694-14.959.33-.293-.025-.817-.114-1.196-.161.056.958-.202 1.934-.854 2.654-1.483 1.64-4.692 1.227-5.794-.744-.603-1.08-.636-2.17-.3-3.092-.398-.08-.753-.16-1.14-.242-.014.115-.022.23-.051.347-.518 2.063.764 7.109 2.033 7.997.61.427 1.109 1.163 1.109 1.635 0 1.19-1.124.697-2.446-1.074-.953-1.277-1.683-6.652-1.522-9.09-1.804-.393-3.445-.779-4.339-1.072-7.266-2.384-13.897-5.747-19.345-9.756zm6.593 5.475c1.064.015 2.132.377 2.77 1.08 1.164 1.288.88 5.049-.649 8.596-.5 1.16-1.152 2.108-1.449 2.108-.552 0-.326-2.36.383-4.005.316-.732.122-.86-.989-.647-2.925.559-4.923-3.794-2.812-6.126.622-.687 1.682-1.02 2.746-1.006m-9.67 7.89q.014-.01.032.023c.096.166.269 1.186.607 3.218.624 3.744.905 4.325 3.022 6.26 2.089 1.91 2.326 2.39 2.269 4.587l-.066 2.454-.429-2.236c-.3-1.56-1.051-2.772-2.487-4.012-2.334-2.018-3.168-4.297-3.066-8.365.03-1.212.048-1.89.117-1.93m14.67 2.823c.46.078.446 2.107-.297 5.569-.367 1.716-.875 2.78-1.264 2.652-1.09-.363-1.1-2.132-.031-5.277.64-1.882 1.16-2.814 1.494-2.933a.2.2 0 0 1 .099-.01m3.152.077c.934.126 2.705 3.103 3.138 5.396.328 1.735-.235 3.627-1.66 5.576-.772 1.056-2.51.846-3.167-.384-1.197-2.236-.078-10.042 1.515-10.573a.4.4 0 0 1 .174-.015m30.896 7.177c.729 0 .706.329-.243 3.456-2.191 7.218-3.727 8.075-11.799 6.588-2.88-.53-3.971-.485-6.53.27-1.689.497-3.83 1.52-4.758 2.272s-1.78 1.274-1.896 1.16c-.604-.593.683-1.867 3.376-3.34 3.272-1.79 6.956-2.11 13.466-1.167 2.082.303 3.536.243 4.316-.173 1.184-.634 3.505-5.906 3.505-7.963 0-.606.253-1.103.563-1.103M31.687 82.61c4.574 0 9.176 5.343 9.75 11.319.236 2.456.133 2.77-1.073 3.253-4.011 1.606-10.56-.099-12.877-3.352-2.867-4.026-.174-11.22 4.2-11.22m.216 17.879c.376.033.952.196 1.618.474 1.66.694 2.496.745 4.14.252 2.502-.748 2.772-.76 2.772-.101 0 .283-.696.77-1.546 1.08s-1.996.585-2.547.61c-1.405.062-4.902-1.47-4.902-2.148 0-.08.057-.132.16-.156q.117-.028.305-.01z"/><path d="M51.155.053c-1.44-.28-3.196.535-5.834 2.708-5.944 4.898-11.25 11.855-14.96 19.616l-1.586 3.317.573.684c1.942 2.317 8.976 6.565 14.662 8.856 7.775 3.133 10.818 3.869 17.266 4.178 5.843.28 11.53-.34 17.137-1.869 1.703-.464 3.544-1.097 4.091-1.406l.995-.561-.27-3.019c-.631-7.033-1.443-11.536-2.823-15.645-1.902-5.67-4.843-11.083-6.618-12.185a4.28 4.28 0 0 0-3.908-.292c-.659.28-1.304.621-1.434.758s-1.208.911-2.396 1.72C61.565 9.967 58.638 9.02 54.878 3.3 53.228.792 52.735.36 51.155.053M10.371 14.307c-.72-.187-1.338-.254-1.875-.212-1.302.1-2.825 1.318-3.612 2.886-.772 1.538-.866 4.595-.202 6.515.5 1.448 4.876 7.878 8.306 12.207 7.604 9.596 18.805 16.892 32.72 21.311 1.969.626 9.854 1.745 13.332 1.894 17.126.73 31.808-4.29 43.041-14.715 4.008-3.72 5.955-6.847 5.284-8.488-.812-1.988-4.208-3.391-7.807-3.225-4.238.195-10.971 2.041-13.986 3.834-5.982 3.558-17.725 5.557-27.31 4.65-8.326-.789-19.85-5.616-27.481-11.513-1.893-1.463-3.575-3.68-3.415-4.501.101-.521-2.353-2.413-7.046-5.43-4.69-3.017-7.788-4.654-9.95-5.213m98.113 23.736c-.062-.007-.137.114-.279.358-2.672 4.616-9.353 10.553-15.956 14.18-10.157 5.58-21.27 8.084-33.592 7.569-3.994-.168-12.771-1.791-16.223-3.002-9.985-3.502-18.37-8.59-24.888-15.1-2.801-2.799-5.96-6.54-8.503-10.07-2.73-3.788-2.942-4.046-2.631-3.195 1.705 4.662 6.873 12.163 11.466 16.64 6.14 5.983 14.815 10.986 24.638 14.21 2.673.877 11.338 2.575 14.5 2.841 4.327.365 10.593.227 14.959-.33 4.644-.591 12.316-2.576 16.353-4.23 10.775-4.416 18.962-11.378 20.176-17.16.2-.958.282-1.993.18-2.3-.089-.27-.138-.405-.2-.411M0 24.37l.024.129.03-.044.008-.011z"/></svg>