<?xml version="1.0" encoding="UTF-8" standalone="no"?>
<svg
   width="78.727806mm"
   height="100.94247mm"
   viewBox="0 0 78.727806 100.94247"
   version="1.1"
   id="svg1"
   xml:space="preserve"
   xmlns="http://www.w3.org/2000/svg"
   xmlns:svg="http://www.w3.org/2000/svg"><path
     style="fill:#000000"
     d="m 28.10103,100.72969 c -0.43656,-0.10946 -1.55841,-0.51399 -2.49301,-0.898956 -2.05098,-0.84481 -3.00216,-0.87352 -4.839378,-0.14603 -1.920095,0.760296 -3.401766,0.582126 -4.569261,-0.54945 -1.06407,-1.03134 -1.3833,-2.18823 -1.57092,-5.693 -0.132369,-2.47267 -0.219911,-2.803 -1.337573,-5.04721 -0.657764,-1.32076 -1.304939,-2.98486 -1.438168,-3.698 -0.334596,-1.791 0.263562,-8.44294 1.339308,-14.89404 0.300975,-1.80491 0.443482,-3.36621 0.318507,-3.48957 -0.124421,-0.1228 -0.698617,1.07077 -1.276354,2.65315 l -1.050188,2.87638 -0.445318,-2.6544 c -0.442555,-2.63793 -1.1603589,-4.98277 -1.5253289,-4.98277 -0.104938,0 -0.594697,0.41672 -1.088352,0.92605 -0.573972,0.59218 -1.146329,0.92604 -1.587602,0.92604 -0.938588,0 -2.893573,-1.28378 -3.86749,-2.53965 -1.74027898,-2.24411 -1.89157298,-3.95754 -0.698569,-7.91139 0.439083,-1.45521 0.884551,-3.39578 0.989929,-4.31237 0.240092,-2.08835 0.676894,-2.0299 1.069887,0.14315 0.376037,2.07929 1.354494,3.55178 2.837005,4.26945 1.248747,0.60451 3.3805019,0.74666 4.5469069,0.30319 1.106813,-0.42081 0.772117,-0.0231 -0.445797,0.52974 -2.1248419,0.9645 -4.4833779,0.53233 -6.2487019,-1.14501 l -0.890889,-0.84649 0.414353,0.82062 c 1.022433,2.02492 3.328686,3.17105 5.9443229,2.95414 l 1.40605,-0.1166 -0.872095,0.55217 c -0.722261,0.45731 -1.2930449,0.55217 -3.3222019,0.55217 -1.34756,0 -2.450108,0.0358 -2.450108,0.0797 0,0.30426 2.080979,0.84537 3.232648,0.84058 1.530159,-0.006 2.9565329,-0.55237 4.8547999,-1.85842 0.665585,-0.45793 1.273088,-0.76967 1.350005,-0.69276 0.07692,0.0769 -0.229106,1.09659 -0.680052,2.26593 -0.904143,2.34452 -1.047262,4.11101 -0.429807,5.30504 0.214552,0.41489 1.054913,1.32233 1.867468,2.01651 2.027859,1.73246 2.666887,2.93348 3.160217,5.93949 0.226394,1.37948 0.477801,2.91204 0.558682,3.40569 0.270789,1.65272 0.859639,0.4022 1.170659,-2.48607 0.352842,-3.27665 0.874557,-4.93446 1.931833,-6.13863 0.792723,-0.90287 0.862323,-0.92683 2.226743,-0.76647 1.01463,0.11925 1.62714,0.0524 2.19064,-0.23896 2.27559,-1.17675 2.2252,-5.34972 -0.0816,-6.75625 -1.5608,-0.95167 -3.5987,-0.46355 -4.412406,1.05687 -0.241028,0.45036 -0.202372,0.44926 0.719076,-0.0205 2.07413,-1.05745 3.9537,-0.27233 4.19642,1.7529 0.17784,1.48391 -0.12216,1.84521 -1.1061,1.33211 -1.32263,-0.68973 -2.90622,-0.51686 -4.75952,0.51956 -1.841527,1.02984 -3.427662,1.20716 -4.983437,0.55712 -1.927249,-0.80526 -2.161207,-2.14688 -0.959848,-5.50422 0.432313,-1.20816 1.26575,-4.27874 1.852083,-6.82352 0.844807,-3.66659 1.062199,-5.12177 1.047462,-7.01145 -0.01023,-1.31153 -0.114576,-2.62272 -0.231885,-2.91376 -0.123645,-0.30676 -0.09784,-0.67343 0.06139,-0.87242 0.204505,-0.25556 -0.01168,-0.63504 -0.846188,-1.48534 -1.382654,-1.40882 -1.655736,-2.45713 -1.436275,-5.51359 0.09143,-1.27331 0.09932,-2.31511 0.01755,-2.31511 -0.08177,0 -0.414879,0.80367 -0.740231,1.78594 -1.124363,3.39455 -1.57551,3.65908 -5.7762109,3.38682 -2.584058,-0.16748 -2.983486,-0.1321 -3.923605,0.34751 -1.638395,0.83585 -2.635434,2.12822 -3.344715,4.33546 -0.23272,0.72421 -0.576765,0.54965 -1.04292798,-0.52917 -1.099433,-2.54434 -0.78066,-4.85575 1.06821298,-7.74555 l 1.222254,-1.9104 0.203766,-3.98045 c 0.241554,-4.71862 0.4989,-5.96172 1.829585,-8.8377 1.298092,-2.80555 2.528937,-4.6395 4.654831,-6.93566 C 16.468059,5.4961306 25.39921,1.1759886 36.01576,0.12967762 c 5.2291,-0.515353 12.02202,0.530236 17.4987,2.69346098 4.06198,1.604434 9.21842,4.64384 12.44758,7.3370754 3.85733,3.21716 6.57469,8.45143 7.64369,14.72354 0.40481,2.37511 0.53985,8.67774 0.22656,10.57401 -0.15724,0.95174 -0.21687,1.00776 -0.92253,0.86663 -1.01782,-0.20357 -3.2495,0.24522 -4.71513,0.94821 -1.68629,0.80882 -4.26757,3.47363 -5.12147,5.28719 -0.52309,1.11097 -0.70538,1.90755 -0.69629,3.04271 l 0.0123,1.53774 0.6877,-1.32292 c 2.25449,-4.33697 5.98102,-7.09682 9.62549,-7.12859 1.46544,-0.0128 1.91039,0.0983 2.82965,0.70652 3.20472,2.12032 4.13241,7.98037 2.17381,13.73156 -1.1335,3.32837 -2.19602,5.26835 -3.95304,7.21755 -0.8065,0.89472 -2.04526,2.4203 -2.7528,3.39017 -1.62591,2.22873 -2.93303,3.15538 -4.68898,3.3241 -1.63397,0.15701 -2.37385,-0.2006 -3.10441,-1.50047 -1.04556,-1.86031 -2.27816,-7.52009 -1.9788,-9.0861 0.0726,-0.37985 0.36273,-0.93826 0.64469,-1.24091 0.63486,-0.68144 0.47882,-0.6905 -0.77526,-0.045 -0.5399,0.27788 -2.35086,1.92558 -4.02435,3.66155 -1.82235,1.89039 -3.62636,3.49287 -4.49792,3.99543 -1.96995,1.13593 -4.5016,1.89194 -6.33554,1.89194 -1.81019,0 -4.96962,-0.76711 -6.80384,-1.65197 -2.18422,-1.0537 -2.26651,-1.0713 -1.91205,-0.40899 0.45906,0.85777 2.5146,2.99656 4.60039,4.78672 1.01865,0.87427 2.00575,1.87076 2.19357,2.21444 0.18782,0.34367 0.5703,2.55765 0.84995,4.91994 0.27965,2.36229 0.61397,4.77132 0.74292,5.3534 l 0.23445,1.05834 0.19763,-1.32292 c 0.66233,-4.4336 1.65647,-7.3207 2.57942,-7.49098 0.6906,-0.12741 0.86748,1.4937 0.5431,4.97744 -0.15582,1.67349 -0.25118,3.07533 -0.21191,3.11519 0.0393,0.0399 0.40467,-0.8531 0.81199,-1.98437 1.78298,-4.95191 4.6754,-9.69004 7.74173,-12.68183 2.04453,-1.99483 2.59118,-2.17004 2.0583,-0.6597 -0.653,1.85081 -1.22282,6.04118 -1.47036,10.81289 -0.2621,5.0524 -0.44763,6.01802 -1.59235,8.28754 -1.53833,3.0499 -4.37931,5.426 -9.91594,8.29337 -1.60073,0.829 -4.51776,2.64122 -6.48229,4.02716 -3.99612,2.81918 -5.60487,3.724186 -7.54063,4.242046 -1.42445,0.38108 -3.4848,0.42737 -4.7625,0.10701 z m 7.80521,-8.522026 c -1.83403,-0.3774 -4.70397,-1.89961 -7.43865,-3.94544 -1.36577,-1.02174 -2.51764,-1.95505 -2.5597,-2.07401 -0.1096,-0.30997 1.32774,-0.55117 3.28455,-0.55117 0.9277,0 1.68672,-0.097 1.68672,-0.21565 0,-0.31836 -3.06721,-1.34312 -4.89479,-1.63536 -3.24875,-0.51949 -9.921877,0.3887 -9.921877,1.35033 0,0.10728 0.428948,0.33663 0.953217,0.50965 0.865997,0.28581 0.939134,0.38501 0.799298,1.08419 -0.08465,0.42327 -0.565387,1.66016 -1.068292,2.74863 -0.502906,1.08848 -0.847255,1.97905 -0.76522,1.97905 0.08203,0 0.623217,-0.42829 1.202629,-0.95176 1.373659,-1.24101 3.502767,-2.21822 4.831493,-2.21752 1.497922,7.9e-4 3.370632,0.55029 5.820832,1.70798 4.35456,2.05747 5.70955,2.50288 7.54063,2.47875 l 1.71979,-0.0227 z m 6.23153,-3.52051 c 0.47163,-0.35973 1.16748,-1.27608 1.54633,-2.03632 0.57067,-1.14519 0.68877,-1.74774 0.6886,-3.51313 -3.2e-4,-3.29645 -0.95218,-5.07668 -6.24876,-11.68684 -2.95594,-3.68903 -9.19239,-10.42007 -9.65441,-10.42007 -0.13103,0 1.1119,1.69665 2.76207,3.77032 5.36209,6.73821 9.50265,12.46021 10.43646,14.42256 1.53629,3.22839 1.44622,6.73699 -0.23245,9.05432 -0.87166,1.2033 -0.5697,1.37925 0.70216,0.40916 z m -4.6917,-2.56962 c 0.68106,-0.46334 1.32577,-0.96936 1.43268,-1.12448 0.61681,-0.89497 -0.32042,-3.18398 -2.63331,-6.43135 -1.50807,-2.11738 -1.91214,-2.36377 -0.91436,-0.55755 0.86506,1.56596 1.77095,4.14405 1.53801,4.37699 -0.21293,0.21293 -4.1111,-1.03954 -7.60181,-2.44244 -1.69887,-0.68276 -3.98452,-1.37043 -5.32236,-1.6013 l -2.344792,-0.40465 -0.804743,0.67715 c -0.949279,0.79876 -0.972486,0.80123 -2.351242,0.24956 -1.031943,-0.4129 -1.0987,-0.40699 -1.943917,0.17216 -0.481402,0.32986 -1.242125,1.12682 -1.690496,1.77102 -0.709475,1.01934 -0.83675,1.10344 -0.9812,0.64831 -0.148173,-0.46685 0.171821,-3.21255 0.52032,-4.46461 0.07309,-0.26258 -0.10522,0.0147 -0.396241,0.61628 -0.63028,1.30278 -1.125834,4.47336 -0.891327,5.70276 0.211955,1.11118 1.232288,3.12449 1.31576,2.59625 0.03449,-0.21828 0.134911,-0.83986 0.223152,-1.38128 0.186612,-1.14499 1.173403,-2.4209 2.353711,-3.04331 0.523154,-0.27588 1.657034,-0.47068 3.077338,-0.52869 5.909747,-0.24135 5.361747,-0.30975 10.451037,1.30452 2.61938,0.83084 5.26852,1.63911 5.88698,1.79614 0.61847,0.15703 1.12448,0.43239 1.12448,0.61191 0,0.17951 -0.36585,0.77024 -0.81301,1.31271 -0.99417,1.2061 -0.83891,1.23529 0.76534,0.1439 z m -4.45265,-6.69529 c 0.4809,-0.57946 0.12847,-1.97619 -0.82619,-3.27433 -1.0082,-1.37094 -1.2552,-1.26273 -0.49939,0.21878 0.30856,0.60483 0.58476,1.62757 0.61377,2.27276 0.0564,1.25485 0.19425,1.40641 0.71181,0.78279 z m 38.90042,-19.75084 c 0.79802,-0.67491 1.68322,-1.62741 1.96711,-2.11667 l 0.51618,-0.88956 -0.64847,0.47047 c -0.35665,0.25876 -1.00807,0.63588 -1.44758,0.83805 -0.98406,0.45266 -1.48953,1.0126 -2.21276,2.45125 -0.67411,1.34093 -0.70587,1.72058 -0.0839,1.00273 0.25216,-0.29104 1.11141,-1.08136 1.90942,-1.75627 z m -6.26219,1.4941 c 0.21695,-0.21695 0.53257,-0.81293 0.70136,-1.32439 0.26292,-0.79664 0.47537,-0.97236 1.48214,-1.22587 3.34866,-0.8432 5.10579,-4.18757 3.53528,-6.72871 -0.52403,-0.8479 -2.36425,-1.96823 -3.23294,-1.96823 -0.742,0 -0.83062,-0.57914 -0.16857,-1.10159 0.46038,-0.36331 0.97586,-0.47985 1.88741,-0.42672 1.54775,0.0902 1.68433,-0.18213 0.88409,-1.76281 l -0.61096,-1.2068 0.9562,9.9e-4 c 2.42078,0.002 3.91751,2.20796 3.47541,5.12106 -0.10249,0.67537 -0.0882,1.22795 0.0318,1.22795 0.56486,0 1.63672,-2.84033 1.75557,-4.65211 0.28954,-4.4138 -2.59675,-6.61261 -6.25003,-4.76135 -1.51201,0.76619 -4.13382,3.49925 -5.10636,5.32304 -1.17127,2.19646 -1.18985,3.13253 -0.10486,5.28104 0.51442,1.01865 0.93297,2.14974 0.93011,2.51354 -0.003,0.36381 -0.41921,1.42984 -0.92522,2.36897 -1.01202,1.87822 -1.13324,2.6717 -0.50426,3.30068 0.51764,0.51764 0.76333,0.52178 1.2638,0.0213 z m -21.67287,-1.74962 c 1.00861,-0.28003 2.37005,-1.01527 2.19819,-1.18713 -0.0465,-0.0465 -0.55622,0.0835 -1.13273,0.28881 -1.26376,0.45012 -3.48068,0.46117 -5.28154,0.0263 l -1.32292,-0.31943 1.9206,-0.14918 c 3.25894,-0.25313 6.6731,-2.37855 8.00056,-4.98059 0.29144,-0.57126 0.52988,-1.09409 0.52988,-1.16185 0,-0.0678 -0.65718,0.5658 -1.4604,1.4079 -2.54313,2.6662 -6.44001,3.9627 -9.61867,3.20015 -1.48492,-0.35623 -1.57794,-0.80177 -0.1674,-0.80177 1.48083,0 4.55756,-0.74674 5.89142,-1.42988 1.25772,-0.64414 3.03199,-2.32411 3.84298,-3.63873 l 0.43368,-0.70298 1.6211,0.50454 c 1.43867,0.44777 6.14758,0.75664 5.76937,0.37843 -0.0694,-0.0694 -1.01194,-0.25009 -2.09462,-0.4016 -2.36559,-0.33106 -4.31908,-0.9415 -4.77641,-1.49256 -0.29509,-0.35555 -0.21064,-0.37752 0.70724,-0.18393 1.73609,0.36615 3.88843,0.19696 5.15932,-0.40555 l 1.17469,-0.55691 -1.19063,0.19427 c -2.27631,0.37142 -4.12624,0.17502 -5.40384,-0.5737 -1.1331,-0.66404 -2.00449,-1.58131 -2.00449,-2.11003 0,-0.1357 0.2105,-0.0562 0.46778,0.17662 0.84522,0.76491 2.81756,1.49903 4.04332,1.50495 1.39521,0.007 3.09157,-0.94343 3.78741,-2.1214 0.66403,-1.1241 0.50795,-1.54752 -0.22684,-0.61543 -0.77192,0.9792 -2.37693,1.68431 -3.8339,1.68431 -1.14229,0 -3.60893,-0.86445 -4.23777,-1.48515 -0.33145,-0.32717 -0.22939,-0.32205 0.61918,0.0311 0.58333,0.24273 1.54112,0.38887 2.24895,0.34313 1.00612,-0.065 1.24708,-0.17866 1.30997,-0.61783 0.173,-1.20819 -5.20185,-6.04246 -8.65772,-7.78698 -4.06665,-2.05283 -7.54958,-2.13489 -12.32142,-0.29028 -4.64256,1.79463 -6.64203,1.7367 -8.431732,-0.24429 -0.509307,-0.56374 -1.14042,-1.62866 -1.402473,-2.36649 -0.262053,-0.73783 -0.543447,-1.34151 -0.62532,-1.34151 -0.236625,0 0.194569,3.7547 0.531284,4.62624 0.167819,0.43438 0.496289,1.19262 0.729933,1.68499 0.51954,1.09485 0.269857,1.59893 -1.005858,2.03071 l -0.908336,0.30744 1.120919,0.57366 c 1.587191,0.8123 2.173025,2.09486 2.480852,5.4313 0.296071,3.20901 0.772061,4.77869 1.818921,5.99835 l 0.78181,0.91085 -0.52156,-1.11169 c -0.52974,-1.12913 -0.71031,-3.37063 -0.29234,-3.62895 0.37562,-0.23215 0.98057,0.65204 1.88578,2.75627 1.1069,2.57306 1.44103,2.90419 1.20144,1.19062 -0.21529,-1.53968 -0.18959,-1.5207 1.7036,1.25813 1.77969,2.61224 3.30296,4.34254 4.25753,4.83616 1.14136,0.59022 1.22438,0.47189 0.33107,-0.47189 -1.07793,-1.13884 -1.55451,-2.05052 -1.07191,-2.05052 0.19429,0 0.46637,0.11023 0.60462,0.24495 0.43351,0.42247 4.68757,2.21396 6.07218,2.55715 1.68848,0.4185 3.42279,0.44807 4.74525,0.0809 z m -8.65224,-8.71614 c -1.41149,-0.34818 -2.22657,-0.95314 -2.5555,-1.89672 -0.91863,-2.63518 0.41859,-5.17652 3.03422,-5.76644 2.21095,-0.49865 5.31426,0.9213 6.09446,2.78858 1.15266,2.7587 -0.38127,4.6114 -4.12139,4.97784 -0.80037,0.0784 -1.90367,0.0319 -2.45179,-0.10326 z m 3.51012,-2.36894 c 0.39579,-0.73955 -0.0988,-1.5875 -0.92604,-1.5875 -0.37205,0 -0.76214,0.2229 -0.92604,0.52916 -0.3958,0.73955 0.0988,1.5875 0.92604,1.5875 0.37205,0 0.76213,-0.2229 0.92604,-0.52916 z m 15.36364,-8.09126 c 0.53372,-0.64308 0.38151,-2.6676 -0.38234,-5.08561 -1.60992,-5.09632 -1.1522,-8.25832 1.93215,-13.34761 0.89677,-1.4797 0.21707,-1.22552 -1.73475,0.64871 -1.19959,1.15191 -1.99577,2.22148 -2.67167,3.58908 -0.86117,1.74246 -0.96284,2.16838 -0.96284,4.0335 0,2.02271 0.0463,2.17514 1.54014,5.07603 1.19649,2.32338 1.54683,3.27076 1.5701,4.24584 0.0321,1.34475 0.16232,1.49902 0.70921,0.84006 z m -42.218848,-9.77744 c 5.766808,-0.0442 7.278835,-0.34026 14.684378,-2.87512 5.29697,-1.81312 8.16336,-2.38257 11.10812,-2.20677 2.76345,0.16498 4.77174,0.89375 6.1372,2.22708 0.55601,0.54293 1.01093,0.82351 1.01093,0.62352 0,-0.2 -0.5315,-0.8729 -1.18111,-1.49534 -1.57538,-1.50948 -3.81977,-2.21717 -7.03155,-2.21717 -2.9804,0 -5.15558,0.45982 -10.57276,2.23502 -7.500816,2.45801 -9.212623,2.79206 -14.307485,2.79206 -3.5382809,0 -4.8251969,0.26642 -5.9705029,1.23603 l -0.756386,0.64036 0.926041,-0.46057 c 0.772396,-0.38415 1.760121,-0.46696 5.9531249,-0.4991 z m -5.0826889,-2.54758 c 0.916602,-0.47111 1.79755,-0.60813 4.9728269,-0.77345 4.764929,-0.24809 7.234129,-0.81504 12.50274,-2.87076 6.97235,-2.72048 8.22647,-3.02915 12.34566,-3.03858 3.30836,-0.008 3.69876,0.0453 5.29167,0.7167 0.94588,0.39868 2.16627,1.1475 2.71198,1.66404 1.1492,1.08778 1.27836,0.98113 0.32519,-0.26854 -0.81668,-1.07073 -3.21498,-2.37109 -5.10072,-2.76562 -4.2863,-0.89678 -8.6185,-0.0703 -17.02894,3.24891 -3.756732,1.48259 -5.891684,1.95127 -10.540843,2.31403 -3.7112349,0.28958 -5.5786959,0.81817 -6.5044329,1.8411 -0.591127,0.65318 -0.346468,0.63699 1.024869,-0.0678 z m 2.603052,-3.23987 c 0.490753,-0.20505 2.3209959,-0.51044 4.0672069,-0.67864 3.696909,-0.35609 5.545602,-0.7739 8.466596,-1.91347 2.438682,-0.9514 4.729332,-2.05123 4.581042,-2.19952 -0.056,-0.056 -1.824,0.4838 -3.92891,1.19951 -2.813047,0.95649 -4.808635,1.44377 -7.531298,1.83898 -4.311675,0.62586 -5.3147619,0.88295 -6.2177079,1.5936 -0.788529,0.6206 -0.640668,0.66249 0.563071,0.15954 z m -1.170573,27.20259 c -1.978629,-1.07282 -1.572317,-4.93276 0.639646,-6.07661 1.0547669,-0.54544 2.9109989,-0.38662 3.9006849,0.33375 0.837996,0.60995 1.888004,2.57087 1.888004,3.52589 0,0.78477 -1.069103,1.93056 -2.200037,2.35786 -1.069694,0.40416 -3.3640489,0.32771 -4.2282979,-0.14089 z m 3.8872069,-1.99985 c 0.563802,-0.80494 0.108119,-1.60701 -0.850105,-1.49631 -0.882847,0.102 -1.147875,1.18843 -0.419783,1.72083 0.64042,0.46828 0.80501,0.43918 1.269888,-0.22452 z"/></svg>
