<?xml version="1.0" encoding="UTF-8" standalone="no"?>
<svg
   width="78.727776mm"
   height="100.9424mm"
   viewBox="0 0 78.727776 100.9424"
   version="1.1"
   xml:space="preserve"
   xmlns="http://www.w3.org/2000/svg"
   xmlns:svg="http://www.w3.org/2000/svg"><g
     transform="translate(-78.93022,-95.178231)"><path
       style="fill:#000000"
       d="m 116.97477,95.186955 c -0.69688,0.01651 -1.37518,0.0565 -2.02881,0.120923 -10.61655,1.046311 -19.54753,5.366642 -26.404078,12.772342 -2.125894,2.29616 -3.356921,4.12995 -4.655013,6.9355 -1.330685,2.87598 -1.587791,4.11908 -1.829345,8.8377 l -0.204122,3.98064 -1.222148,1.90996 c -1.848873,2.8898 -2.167585,5.20144 -1.068152,7.74578 0.466163,1.07882 0.810111,1.25338 1.042831,0.52917 0.709281,-2.20724 1.70662,-3.49981 3.345015,-4.33566 0.940119,-0.47961 1.339217,-0.51474 3.923275,-0.34726 4.200701,0.27226 4.652028,0.008 5.776391,-3.38688 0.325352,-0.98227 0.658237,-1.78593 0.740007,-1.78593 0.08177,0 0.07386,1.04179 -0.01757,2.3151 -0.219461,3.05646 0.05395,4.10454 1.436605,5.51336 2.029655,2.30312 4.252054,4.58147 4.373374,8.0083 0.37921,8.08058 3.67102,9.5664 5.04931,11.40447 1.62088,2.16158 2.35724,5.57942 0.0817,6.75617 -0.5635,0.29136 -1.17594,0.35852 -2.19057,0.23927 -1.36442,-0.16036 -1.43401,-0.13651 -2.22674,0.76636 -1.05727,1.20417 -1.578819,2.86199 -1.931661,6.13864 -0.31102,2.88827 -0.900199,4.13887 -1.170988,2.48615 -0.08088,-0.49365 -0.332228,-2.02651 -0.558622,-3.40599 -0.49333,-3.00601 -1.132155,-4.20671 -3.160014,-5.93917 -0.812555,-0.69418 -1.653035,-1.60153 -1.867587,-2.01642 -0.617455,-1.19403 -0.474195,-2.96058 0.429948,-5.3051 0.450946,-1.16934 0.756982,-2.18911 0.680062,-2.26601 -0.07692,-0.0769 -0.68472,0.23453 -1.350305,0.69246 -1.898267,1.30605 -3.324325,1.85281 -4.854484,1.85881 -1.151669,0.005 -3.232878,-0.53652 -3.232878,-0.84078 0,-0.0439 1.10242,-0.0796 2.44998,-0.0796 2.029157,0 2.600017,-0.0951 3.322278,-0.55242 l 0.872298,-0.55191 -1.406116,0.11627 c -2.615637,0.21691 -4.921907,-0.9289 -5.94434,-2.95382 l -0.414445,-0.82062 0.890902,0.84646 c 1.765324,1.67734 4.123872,2.10965 6.248714,1.14515 1.217914,-0.55284 1.552781,-0.9505 0.445968,-0.52969 -1.166405,0.44347 -3.298262,0.30117 -4.547009,-0.30334 -1.482511,-0.71767 -2.461,-2.19021 -2.837037,-4.2695 -0.392993,-2.17305 -0.82961,-2.2315 -1.069702,-0.14315 -0.105378,0.91659 -0.551037,2.85719 -0.99012,4.3124 -1.193004,3.95385 -1.041614,5.66704 0.698665,7.91115 0.973917,1.25587 2.928876,2.53989 3.867464,2.53989 0.441273,0 1.013528,-0.33386 1.5875,-0.92604 0.493655,-0.50933 0.983368,-0.92604 1.088306,-0.92604 0.36497,0 1.082933,2.34471 1.525488,4.98264 l 0.445451,2.65462 1.050065,-2.87631 c 0.577737,-1.58238 1.151987,-2.77639 1.276408,-2.65359 0.124975,0.12336 -0.01787,1.6848 -0.318843,3.48971 -1.075746,6.4511 -1.673533,13.10319 -1.338937,14.89419 0.133229,0.71314 0.780391,2.3772 1.438155,3.69796 1.117662,2.24421 1.205017,2.57457 1.337386,5.04724 0.18762,3.50477 0.506894,4.66133 1.570964,5.69267 1.167495,1.13157 2.649135,1.31013 4.56923,0.54984 1.837226,-0.72749 2.788516,-0.69908 4.839496,0.14573 0.9346,0.38496 2.05631,0.78971 2.49287,0.89917 1.2777,0.32036 3.33805,0.27411 4.7625,-0.10697 1.93576,-0.51786 3.54451,-1.42294 7.54063,-4.24212 1.96453,-1.38594 4.88156,-3.19814 6.48229,-4.02714 5.53663,-2.86737 8.37786,-5.24365 9.91619,-8.29355 1.14472,-2.26952 1.33005,-3.23495 1.59215,-8.28735 0.24754,-4.77171 0.8172,-8.96197 1.4702,-10.81278 0.53288,-1.51034 -0.0138,-1.33492 -2.05828,0.65991 -3.06633,2.99179 -5.95866,7.72948 -7.74164,12.68139 -0.40732,1.13127 -0.77254,2.02428 -0.81184,1.98438 -0.0393,-0.0399 0.056,-1.44157 0.21187,-3.11506 0.32438,-3.48374 0.14748,-5.10488 -0.54312,-4.97747 -0.92295,0.17028 -1.91735,3.05741 -2.57968,7.49101 l -0.19741,1.32292 -0.23461,-1.05833 c -0.12895,-0.58208 -0.46294,-2.99087 -0.74259,-5.35316 -0.27965,-2.36229 -0.66226,-4.57645 -0.85008,-4.92012 -0.18782,-0.34368 -1.17501,-1.34006 -2.19366,-2.21433 -2.08579,-1.79016 -4.14118,-3.92902 -4.60024,-4.78679 -0.35446,-0.66231 -0.27219,-0.64494 1.91203,0.40876 1.83422,0.88486 4.99353,1.6521 6.80372,1.6521 1.83394,0 4.36558,-0.75595 6.33553,-1.89188 0.87156,-0.50256 2.67557,-2.10523 4.49792,-3.99562 1.67349,-1.73597 3.48466,-3.38339 4.02456,-3.66127 1.25408,-0.6455 1.41001,-0.63649 0.77515,0.045 -0.28196,0.30265 -0.57233,0.8609 -0.64493,1.24075 -0.29936,1.56601 0.93365,7.22596 1.97921,9.08627 0.73056,1.29987 1.47023,1.65718 3.1042,1.50017 1.75595,-0.16872 3.06321,-1.0951 4.68912,-3.32383 0.70754,-0.96987 1.94631,-2.49525 2.75281,-3.38997 1.75702,-1.9492 2.81923,-3.88928 3.95273,-7.21765 1.9586,-5.75119 1.03121,-11.61114 -2.17351,-13.73146 -0.91926,-0.60822 -1.36437,-0.71974 -2.82981,-0.70694 -3.64447,0.0318 -7.37076,2.7918 -9.62525,7.12877 l -0.68781,1.32291 -0.0124,-1.53789 c -0.009,-1.13516 0.17299,-1.93173 0.69608,-3.0427 0.8539,-1.81356 3.43536,-4.4782 5.12165,-5.28702 1.46563,-0.70299 3.69714,-1.15183 4.71496,-0.94826 0.70566,0.14113 0.7657,0.0851 0.92294,-0.86662 0.31329,-1.89627 0.17795,-8.19892 -0.22686,-10.57403 -1.069,-6.27211 -3.78613,-11.50649 -7.64346,-14.72365 -3.22916,-2.69324 -8.38584,-5.732577 -12.44782,-7.337017 -4.7921,-1.892819 -10.59169,-2.929837 -15.46986,-2.814298 z m -11.44788,19.874235 c 0.14829,0.14829 -2.14242,1.24795 -4.58111,2.19935 -2.920995,1.13957 -4.769761,1.55749 -8.46667,1.91358 -1.746211,0.1682 -3.576183,0.47346 -4.066936,0.67851 -1.203739,0.50295 -1.351802,0.46144 -0.563273,-0.15916 0.902946,-0.71065 1.906034,-0.96784 6.217709,-1.5937 2.722663,-0.39521 4.718271,-0.88268 7.53132,-1.83917 2.10491,-0.71571 3.87296,-1.25541 3.92896,-1.19941 z m 10.04487,0.35812 c 1.14031,-0.003 2.21504,0.11325 3.28662,0.33745 1.88574,0.39453 4.28378,1.69447 5.10046,2.7652 0.95317,1.24967 0.82416,1.3565 -0.32504,0.26872 -0.54571,-0.51654 -1.7661,-1.2653 -2.71198,-1.66398 -1.59291,-0.6714 -1.98331,-0.72475 -5.29167,-0.71675 -4.11919,0.009 -5.37315,0.31809 -12.3455,3.03857 -5.268614,2.05572 -7.737665,2.62254 -12.502594,2.87063 -3.175277,0.16532 -4.056221,0.30248 -4.972823,0.77359 -1.371337,0.70479 -1.616388,0.72088 -1.025261,0.0677 0.925737,-1.02293 2.793278,-1.55165 6.504513,-1.84123 4.649159,-0.36276 6.784221,-0.83096 10.540955,-2.31355 6.30783,-2.48941 10.32136,-3.57664 13.74232,-3.58635 z m 19.44842,0.6258 c 0.091,0.0732 -0.0234,0.38459 -0.35967,0.93948 -3.08435,5.08929 -3.5421,8.25119 -1.93218,13.34751 0.76385,2.41801 0.91613,4.44239 0.38241,5.08547 -0.54689,0.65896 -0.67742,0.50501 -0.70952,-0.83974 -0.0233,-0.97508 -0.37344,-1.92235 -1.56993,-4.24573 -1.49384,-2.90089 -1.53996,-3.05347 -1.53996,-5.07618 0,-1.86512 0.10156,-2.2914 0.96273,-4.03386 0.6759,-1.3676 1.47209,-2.43702 2.67168,-3.58893 1.21988,-1.17139 1.9427,-1.71008 2.09444,-1.58802 z m -19.40036,3.65146 c 3.21178,0 5.45623,0.70744 7.03161,2.21692 0.64961,0.62244 1.1808,1.29551 1.1808,1.49551 0,0.19999 -0.45478,-0.0808 -1.01079,-0.62373 -1.36546,-1.33333 -3.37364,-2.06176 -6.13709,-2.22674 -2.94476,-0.1758 -5.8114,0.39347 -11.10837,2.20659 -7.405543,2.53486 -8.917562,2.83107 -14.68437,2.87527 -4.193004,0.0321 -5.180729,0.11505 -5.953125,0.4992 l -0.926042,0.46043 0.756543,-0.64027 c 1.145306,-0.96961 2.431897,-1.2361 5.970178,-1.2361 5.094862,0 6.806833,-0.33406 14.307656,-2.79207 5.41718,-1.7752 7.5926,-2.23501 10.573,-2.23501 z m -17.195854,7.67292 c 0.08187,0 0.363232,0.60369 0.625285,1.34152 0.262053,0.73783 0.893195,1.80252 1.402499,2.36626 1.78971,1.98099 3.78897,2.03906 8.43153,0.24443 4.77184,-1.84461 8.25507,-1.76241 12.32172,0.29042 3.45587,1.74452 8.83036,6.57842 8.65736,7.78661 -0.0629,0.43917 -0.30388,0.55305 -1.31,0.61805 -0.70783,0.0457 -1.66563,-0.1004 -2.24896,-0.34313 -0.84857,-0.35315 -0.95053,-0.35818 -0.61908,-0.031 0.62884,0.6207 3.09569,1.48518 4.23798,1.48518 1.45697,0 3.06196,-0.70545 3.83388,-1.68465 0.73479,-0.93209 0.89089,-0.50864 0.22686,0.61546 -0.69584,1.17797 -2.39216,2.12884 -3.78737,2.12184 -1.22576,-0.006 -3.19846,-0.74043 -4.04368,-1.50534 -0.25728,-0.23282 -0.46767,-0.31191 -0.46767,-0.17621 0,0.52872 0.87143,1.44591 2.00453,2.10995 1.2776,0.74872 3.12749,0.94502 5.4038,0.5736 l 1.19063,-0.1943 -1.17461,0.55707 c -1.27089,0.60251 -3.42328,0.7713 -5.15937,0.40515 -0.91788,-0.19359 -1.00254,-0.17159 -0.70745,0.18396 0.45733,0.55106 2.41086,1.16188 4.77645,1.49294 1.08268,0.15151 2.02556,0.33212 2.09496,0.40152 0.37821,0.37821 -4.331,0.069 -5.76967,-0.37879 l -1.62109,-0.50436 -0.43357,0.7028 c -0.81099,1.31462 -2.58545,2.99492 -3.84317,3.63906 -1.33386,0.68314 -4.41029,1.42988 -5.89112,1.42988 -1.41054,0 -1.31749,0.44527 0.16743,0.8015 3.17866,0.76255 7.07541,-0.5336 9.61854,-3.1998 0.80322,-0.8421 1.46037,-1.47598 1.46037,-1.40818 0,0.0678 -0.23824,0.59042 -0.52968,1.16168 -1.32746,2.60204 -4.7416,4.72796 -8.00054,4.98109 l -1.92082,0.14883 1.32292,0.31936 c 1.80086,0.43487 4.01809,0.42377 5.28185,-0.0264 0.57651,-0.20531 1.08625,-0.33486 1.13275,-0.28836 0.17186,0.17186 -1.18971,0.90698 -2.19832,1.18701 -1.32246,0.36717 -3.05697,0.33737 -4.74545,-0.0811 -1.38461,-0.34319 -5.63847,-2.13448 -6.07198,-2.55695 -0.13825,-0.13472 -0.41032,-0.24495 -0.60461,-0.24495 -0.4826,0 -0.006,0.91168 1.07177,2.05052 0.89331,0.94378 0.81011,1.06203 -0.33125,0.47181 -0.95457,-0.49362 -2.47741,-2.22416 -4.2571,-4.8364 -1.89319,-2.77883 -1.91907,-2.79748 -1.70378,-1.2578 0.23959,1.71357 -0.0946,1.38243 -1.20147,-1.19063 -0.90521,-2.10423 -1.51006,-2.98857 -1.88568,-2.75642 -0.41797,0.25832 -0.23776,2.50011 0.29198,3.62924 l 0.52193,1.11156 -0.78187,-0.91106 c -1.04686,-1.21966 -1.52293,-2.78907 -1.81901,-5.99808 -0.30782,-3.33644 -0.89379,-4.61889 -2.480982,-5.43119 l -1.120862,-0.57413 0.908472,-0.30747 c 1.275715,-0.43178 1.525162,-0.93552 1.005623,-2.03037 -0.233644,-0.49237 -0.561852,-1.25079 -0.729671,-1.68517 -0.336715,-0.87154 -0.767859,-4.62607 -0.531234,-4.62607 z m 53.143014,9.50794 c 2.33942,0.0443 3.90892,2.10844 3.69176,5.41879 -0.11885,1.81178 -1.19059,4.65243 -1.75545,4.65243 -0.12,0 -0.13453,-0.55246 -0.032,-1.22783 0.4421,-2.9131 -1.05446,-5.11913 -3.47524,-5.12113 l -0.95653,-0.001 0.61133,1.20665 c 0.80024,1.58068 0.66357,1.85288 -0.88418,1.76268 -0.91155,-0.0531 -1.42684,0.0635 -1.88722,0.42685 -0.66205,0.52245 -0.57354,1.10174 0.16846,1.10174 0.86869,0 2.70885,1.12046 3.23288,1.96836 1.57051,2.54114 -0.18653,5.88507 -3.53519,6.72827 -1.00677,0.25351 -1.21916,0.42964 -1.48208,1.22628 -0.16879,0.51146 -0.48481,1.10752 -0.70176,1.32447 -0.50047,0.50048 -0.74585,0.49593 -1.26349,-0.0217 -0.62898,-0.62898 -0.50817,-1.42235 0.50385,-3.30057 0.50601,-0.93913 0.92252,-2.00504 0.92552,-2.36885 0.003,-0.3638 -0.41576,-1.49489 -0.93018,-2.51354 -1.08499,-2.14851 -1.06636,-3.08487 0.10491,-5.28133 0.97254,-1.82379 3.59414,-4.55649 5.10615,-5.32268 0.91332,-0.46281 1.77869,-0.67261 2.5585,-0.65784 z m -35.98695,1.23765 c -0.29798,0.005 -0.58818,0.0374 -0.86455,0.0997 -2.61563,0.58992 -3.95307,3.13139 -3.03444,5.76657 0.32893,0.94358 1.14442,1.54835 2.55591,1.89653 0.54812,0.13516 1.65116,0.18175 2.45153,0.10335 3.74012,-0.36644 5.27438,-2.21929 4.12172,-4.97799 -0.68268,-1.63387 -3.14435,-2.92494 -5.23017,-2.8882 z M 89.856014,140.671 c -0.719615,-0.0616 -1.44769,0.0353 -1.975073,0.30799 -2.211963,1.14385 -2.617867,5.00381 -0.639238,6.07663 0.864249,0.4686 3.158472,0.54472 4.228166,0.14056 1.130934,-0.4273 2.199866,-1.57271 2.199866,-2.35748 0,-0.95502 -1.049744,-2.91593 -1.88774,-3.52588 -0.494843,-0.36018 -1.206366,-0.58025 -1.925981,-0.64182 z m 26.964766,1.25057 c 0.82724,0 1.32183,0.84795 0.92604,1.5875 -0.16391,0.30626 -0.55399,0.52917 -0.92604,0.52917 -0.82724,0 -1.32185,-0.84795 -0.92605,-1.5875 0.1639,-0.30626 0.554,-0.52917 0.92605,-0.52917 z m -26.20719,1.63711 c 0.721448,0.0904 1.008541,0.79274 0.515215,1.49707 -0.464878,0.6637 -0.629787,0.69255 -1.270207,0.22427 -0.728092,-0.5324 -0.462718,-1.61882 0.420129,-1.72082 0.119778,-0.0138 0.2318,-0.0134 0.334863,-5.2e-4 z m 62.69385,8.28476 -0.51625,0.88936 c -0.28389,0.48926 -1.1693,1.44175 -1.96732,2.11666 -0.79801,0.67491 -1.65729,1.46544 -1.90945,1.75648 -0.62197,0.71785 -0.58987,0.3379 0.0842,-1.00303 0.72323,-1.43865 1.22872,-1.99836 2.21278,-2.45102 0.43951,-0.20217 1.09081,-0.57943 1.44746,-0.83819 z m -54.723793,0.89142 c -0.821594,0.0291 -2.082824,6.3152 -1.735812,6.97167 0.49119,0.92923 3.555495,1.33232 3.992005,0.37621 -0.005,-2.08428 -1.315551,-7.38115 -2.256193,-7.34788 z m 8.816003,3.47421 c 0.46202,0 6.69876,6.73101 9.6547,10.42004 5.29658,6.61016 6.2484,8.39017 6.24872,11.68662 1.7e-4,1.76539 -0.11818,2.36829 -0.68885,3.51348 -0.37885,0.76024 -1.07453,1.67632 -1.54616,2.03605 -1.27186,0.97009 -1.57394,0.79403 -0.70228,-0.40927 1.67867,-2.31733 1.76883,-5.82584 0.23254,-9.05423 -0.93381,-1.96235 -5.07448,-7.68417 -10.43657,-14.42238 -1.65017,-2.07367 -2.89313,-3.77031 -2.7621,-3.77031 z m 2.78639,14.15676 c 0.0933,-0.0409 0.40747,0.27468 0.91157,0.96015 0.95466,1.29814 1.30669,2.69476 0.82579,3.27422 -0.51756,0.62362 -0.65518,0.47246 -0.71158,-0.78239 -0.029,-0.64519 -0.30536,-1.6679 -0.61392,-2.27273 -0.3779,-0.74075 -0.50516,-1.13838 -0.41186,-1.17925 z m 3.59254,1.62419 c 0.16481,0.10049 0.6433,0.69107 1.39734,1.74976 2.31289,3.24737 3.24972,5.53668 2.63291,6.43165 -0.10691,0.15512 -0.75141,0.66114 -1.43247,1.12448 -1.60425,1.09139 -1.7595,1.06192 -0.76533,-0.14418 0.44716,-0.54247 0.81287,-1.13307 0.81287,-1.31258 0,-0.17952 -0.50601,-0.45482 -1.12448,-0.61185 -0.61846,-0.15703 -3.2676,-0.96543 -5.88698,-1.79627 -5.08929,-1.61427 -4.54129,-1.54566 -10.451039,-1.30431 -1.420304,0.058 -2.554177,0.25277 -3.077331,0.52865 -1.180308,0.62241 -2.16725,1.89823 -2.353862,3.04322 -0.08824,0.54142 -0.188235,1.16303 -0.222725,1.38131 -0.08347,0.52824 -1.104244,-1.48504 -1.316199,-2.59622 -0.234507,-1.2294 0.261139,-4.40023 0.891419,-5.70301 0.291021,-0.60158 0.469448,-0.87856 0.396358,-0.61598 -0.348499,1.25206 -0.668555,3.99747 -0.520382,4.46432 0.14445,0.45513 0.271861,0.37132 0.981336,-0.64802 0.448371,-0.6442 1.208934,-1.44109 1.690336,-1.77095 0.845217,-0.57915 0.912124,-0.5855 1.944067,-0.1726 1.378756,0.55167 1.401999,0.54916 2.351278,-0.2496 l 0.804604,-0.67696 2.34507,0.40463 c 1.33784,0.23087 3.62329,0.91869 5.32216,1.60145 3.49071,1.4029 7.38867,2.65516 7.6016,2.44223 0.23294,-0.23294 -0.67283,-2.81104 -1.53789,-4.377 -0.49889,-0.90311 -0.64746,-1.29266 -0.48266,-1.19217 z m -11.78481,6.83059 c 1.08247,-0.0271 2.10857,0.0138 2.92076,0.14366 1.82758,0.29224 4.89479,1.3172 4.89479,1.63556 0,0.11865 -0.75902,0.21549 -1.68672,0.21549 -1.95681,0 -3.39415,0.2409 -3.28455,0.55087 0.0421,0.11896 1.19376,1.05255 2.55953,2.07429 2.73468,2.04583 5.60479,3.5681 7.43882,3.9455 l 1.19063,0.24494 -1.7198,0.0227 c -1.83108,0.0241 -3.18606,-0.42145 -7.54062,-2.47892 -2.4502,-1.15769 -4.3229,-1.70711 -5.82083,-1.7079 -1.328727,-7e-4 -3.457574,0.97642 -4.831233,2.21743 -0.579412,0.52347 -1.120998,0.95188 -1.203028,0.95188 -0.08204,0 0.262422,-0.89072 0.765328,-1.9792 0.502905,-1.08847 0.983502,-2.3254 1.068152,-2.74867 0.139836,-0.69918 0.06708,-0.79837 -0.798917,-1.08418 -0.524269,-0.17302 -0.953431,-0.40224 -0.953431,-0.50952 0,-0.72123 3.753739,-1.41263 7.001119,-1.49397 z" /></g></svg>
