<svg xmlns="http://www.w3.org/2000/svg" xml:space="preserve" width="645.447" height="465.07" viewBox="0 0 170.775 123.05"><path d="M114.133 75.004c.372 1.525-.127 2.687-1.928 4.354-2.176 2.014-6.416 3.98-14.016 6.5-3.004.997-5.582 1.743-18.917 5.472-16.365 4.577-25.53 8.559-31.815 13.82-2.57 2.151-4.566 6.041-4.566 8.902 0 1.069-.049 1.143-.86 1.298-3.675.701-11.182 6.438-14.082 10.76-1.83 2.727-2.65 5.08-3.582 10.28-.799 4.454-1.37 6.73-2.897 11.53-1.583 4.979-1.933 8.05-1.173 10.282.54 1.58 2.588 3.84 4.58 5.05 3.113 1.892 9.011 3.412 16.016 4.128 5.31.543 15.054 1.855 21.205.807l1.268-.105-.04-2.54-.041-1.824-1.461.076c-.691.098-3.687.234-5.36.478-3.736.543-18.022-.539-19.129-1.044l-.661-.302.661-.133c.364-.074 3.176-.383 6.25-.687 11.698-1.157 18.597-2.703 26.461-5.93 8.978-3.683 21.525-6.369 37.271-7.978 12.507-1.279 28.932-1.281 40.085-.001 3.325.38 9.712 1.42 11.957 1.946.811.19 1.125.13 1.852-.36.481-.325 3.197-1.818 6.035-3.318 8.384-4.431 10.154-5.623 13.177-8.866 2.05-2.2 3.849-5.105 6.387-10.315 2.341-4.808 3.052-6.656 3.6-9.367.58-2.873.306-4.631-1.363-8.757-.677-1.674-1.933-5.004-2.79-7.4-2.302-6.428-3.122-7.95-5.642-10.462-1.607-1.602-2.619-2.357-4.153-3.098-3.62-1.746-7.913-2.749-15.037-3.51-16.516-1.765-22.448-2.584-26.918-3.718-2.347-.595-3.507-1.102-8.443-3.687-.38-.199-.655-.284-.97-.42a27 27 0 0 1-1.856-.413c-.72-.218-.767-.214-1.413-.362a10 10 0 0 1-1.34-.223c-.733-.117-1.465-.237-2.198-.347q-2.076-.27-4.154-.516m18.67 19.14c.058-.102.133.174.248.665.178.766.461 2.837.629 4.603.778 8.203-1.347 18.759-6.84 33.956-.947 2.619-1.934 5.775-2.193 7.012l-.472 2.248-.552-1.19c-1.068-2.306-4.365-3.402-1.104-12.249 4.116-11.163 6.811-19.543 7.144-29.228.105-3.034 3.041-5.645 3.14-5.816m36.71 3.17c.12.122-.585 4.794-1.108 7.323-1.95 9.44-8.262 23.385-15.52 34.287-2.473 3.716-3.102 4.552-3.102 4.124 0-.66-1.238-5.76 3.165-14.694 6.665-13.522 9.578-18.153 12.09-26.01.759-2.372 4.423-5.08 4.474-5.03m-135.23 33.7c.116-.112 3.564.26 5.226 2.005 1.584 1.663 6.05 5.816 8.935 8.664 6.748 6.66 10.697 13.677 9.778 13.677-.151 0-1.88-.548-1.97-.693-.09-.146-1.793-1.663-3.785-3.37-5.952-5.102-12.424-11.129-14.255-13.272-1.55-1.815-3.388-5.046-3.93-6.906q-.023-.082.001-.105m95.186 20.642c-2.83.098-12.598.423-15.54.684-14.713 1.304-24.674 2.555-33.746 5.16-8.779 2.52-12.93 4.866-13.415 7.072-.205.934-.588-.46.605 5.705 1.056 5.454 1.61 9.712 1.866 14.342.091 1.638.14 2.452.222 2.807l.054.102.056.117c.079.032.183-.083.341-.284.267-.34 1.083-1.001 1.813-1.47 4.5-2.887 16.605-6.81 26.464-8.575 10.216-1.829 18.173-2.41 27.566-2.015 14.013.591 23.03 2.076 33.084 5.448 3.543 1.188 4.438 1.373 4.438.916 0-.14-.23-1.241-.51-2.448-1.234-5.307-1.457-7.687-1.466-15.686-.007-5.803-.093-6.55-.353-7.007-1.319-2.31-6.285-3.14-13.965-4.153-5.465-.56-8.079-1.04-17.514-.715m-10.51 28.348c-13.02.337-23.212 1.926-35.147 5.897-7.44 2.475-10.675 3.77-11.708 5.767-1.004 1.943-.344 1.624 2.567 3.095 2.387 1.206 4.788 1.794 10.686 2.614 1.725.24 14.243-.109 17.86-.497 6.275-.674 16.23-1.437 22.944-1.76 9.8-.47 27.713-.096 33.6.7l1.113.152-.902-1.5c-1.668-2.769-1.977-4.636-.639-7.372.843-1.723-6.196-2.631-8.349-3.449-9.908-1.707-20.841-3.856-32.025-3.647m5.512 17.965c-.356.019-.98.026-1.279.047-.087.006-.37.032-.463.038h.775c.322-.022.645-.055.967-.085" style="fill:#000" transform="translate(-19.912 -75.004)"/></svg>