<svg xmlns="http://www.w3.org/2000/svg" xml:space="preserve" width="116.888" height="119.596" viewBox="0 0 30.927 31.643"><path d="M3.457 0A.07.07 0 0 0 3.4.025l-.186.291.02.006-.231.418q.277.489.82 1.032.357.317.569.29a.2.2 0 0 0 .065-.016l.001.004a.25.25 0 0 0 .108-.102l.013-.022.007-.016.004-.009.01-.02.001-.006a1 1 0 0 0 .03-.09l.052-.397Q3.71.011 3.457 0m-.56 1.044-.225.794v.092q0 1.005.08.953l.065-.08q.094-.144.172-.145h.16l.185.066.079.132.013.014.014.04.529 1.507.039.305q.027.237-.04.29l-.079.067-.251-.979a1.6 1.6 0 0 0-.146-.463l-.026-.053-.013.013-.027-.066-.264-.172-.291-.172-.172-.04q-.067 0-.173.093l-.198.423-.066.093-.013.198-.013.014.013.04.119.383.119.33q.066.173.066.477l-.04.476.093.238.066.04-.013.04v.013q.357.396.569.966l.013.079-.093.093q-.093.025-.132-.093l-.172-.331q-.025.463-.132.873l-.132.093a5.7 5.7 0 0 0-.874.582l-.33.304-.305.45-.33.542q-.226.437-.133.715l.225-.33.172-.213.132-.158.133-.133-.133.173-.026.026-.04.066q-.635.78-.793 1.297l-.08.317-.119.318-.079.264.08.12.158.013.159-.199.159-.238a3.6 3.6 0 0 0-.08.886v.027l-.013.926.066.198.145.026a.2.2 0 0 0 .12-.092l.092-.291.027-.119.04-.132.04-.106q-.12.925.065 1.521l.093.225q-.066.45 0 1.032.053.608.251 1.35l.238-.305.159.026.106.12.238 1.31q.145.74.476 1.19l.08-.913.118.013q.106.066.133.106l.027.026.118.12v.092l-.145-.092-.027.502-.04.45q0 .08-.25-.092l-.12-.133-.079-.092-.185-.292a2.7 2.7 0 0 1-.265-.661l-.251-1.296-.225.277-.159-.013-.12-.132-.29-1.244-.066-.476-.265.966-.145.992q0 .37.132.595l.04.08.013.013q.185.014.198.066l.265.503-.013.185-.067.886-.026.887q.026.383.146.595l.066.08h.092l.04-.093.093-.675.198-.648.027-.027q.49 1.205.833 2.567l.093.41.04.185.238 1.257a20 20 0 0 1 .224 3.506h-.013q-.582-.105-1.217.476l-.437.569-.29.635q-.08.211.145.278l.53.013a1.74 1.74 0 0 1 .171-.82q.186-.411.556-.57.066-.025.04.2-.04.224-.12.277a.8.8 0 0 0-.238.159.53.53 0 0 0-.198.33l.027.397 1.389-.212q.105-.012.317-.621l.238-.728.013-.013.543-1.336q.052-.132-.08-.582l-.172-.582-.304-1.548-.198-1.27v-.013l-.066-.57.092.186.265.37.08.172.17.093q.04-.08-.012-.251l-.238-.754a3 3 0 0 0-.146-.463 2 2 0 0 0-.278-.49l.027-1.177.08.04.21.052 1.51 1.601a17 17 0 0 0-.583-2.104l.357.212.04.159.158.701q.33 1.178.53 2.276l.013.04v.026q.383 2.169.278 4.074v.014a13 13 0 0 1-.344 2.235v.014l-.159-.053q-.675-.397-1.244.608-.344.622-.582 1.6l.754.107a1.75 1.75 0 0 1 .12-.887q.198-.436.595-.621.053-.04.026.185-.026.237-.12.278l-.224.158a.7.7 0 0 0-.225.357l.053.41v.12l.238.013q.795-.027 1.217-.476.33-.345.609-1.191l.53-1.415q.29-.795.304-1.456l.304-6.839q0-.066.185.053l.172-.013.304-.014.357-.026.106-.013.357-.04.57-.053.37-.04.357-.04h.344q.08-.012-.053-.224l-.37-.542.026-.054 1.085.027.965.159.054.013.224.026-.238-.198-.053-.04-.357-.357q-.066-.066.013-.08 1.35-.025 2.672.728l.291.225.04-.264.093-.754.053-.252q.159-.596.53-.86h.012l.225.186q-.225.225-.37.7-.212.636-.212 1.482l-.026.027-.146-.053-.027-.013a7.2 7.2 0 0 0-1.6-.768l-1.098-.132-.12-.053.675.675.027.066-.066.013-1.336-.25h-.57l-.41-.028.503.768q.054.04-.026.04l-1.6.145-1.601.119-.08-.026-.08 1.958q1.694-.702 3.97-1.297 1.825-.437 3.558.49l-.529-1.323q-.04-.106.08-.106.117-.027.185.053l.026.04a16.8 16.8 0 0 0 1.455 2.99q.345.54.662.885l.04.04.012.014.172.158q.57.477 1.27.582l.9.106.887-.066h.132l.092.106.345 1.402.079.424q.29 1.719.013 2.923-.027.159-.198.092-.675-.277-.926.12-.24.357-.04 1.071l-.027.16h.173l.621-.028q0-.435.172-.78a1.2 1.2 0 0 1 .556-.556q.066-.026.026.199-.027.238-.106.277a1.1 1.1 0 0 0-.238.16q-.278.25-.185.687l.728-.026.767-.78q.371-.477.277-.993l-.463-2.725-.41-2.276-.013-.171-.04-.014-.502-.304-.49-.357q-.767-.582-1.19-1.574a5 5 0 0 1-.252-.689q-.146-.489-.476-2.632l-.053-.146-.344-.225-.092-.224.212.066h.132l.158-.014.596.226 1.138.343.052.014q1.455.396 2.779.582h.013q.912.105 1.627 0 .305-.04.291-.12l-.251-.304q-.067-.053.08-.066l.158.04.912.08.397.105-.568.04-.662-.08q.12.04.133.066l.25.199q.054.052 0 .066l-.29.093-1.164.093-.953-.093-.542-.093-2.29-.49q.663.292 1.245.622l.013.04.211.344.173.199.357.569.264.37v.013l.199.251.172.172.304.146.026-.092-.105-.265-.12-.252-.065-.621.357.224q.687.411 1.31.57l1.428.238-.635-.781q-.066-.093.04-.132.105-.068.185 0 1.005.582 2.527.066 1.587-.53 1.733-1.707l-1.482.635q-.106.04-.199-.053l-.026-.053q-.013-.053.053-.092l.145-.106.093-.026.172-.172.384-.384.49-.661.343-.728q.37-1.164.04-2.381v-.027l-.053-.145-.013.066-.013.053v.013a3.9 3.9 0 0 1-.781 1.68l-.384.423a5 5 0 0 1-.992.715l-.318.145-.237.12.264.012.04.014.767.04.172.052q.159.04.093.08l-.688.502-.477.226-.582-.014a5.9 5.9 0 0 0 1.23-.714l-1.203-.093q-.384-.106-.238-.132l.767-.304a4.2 4.2 0 0 0 1.336-1.085l.027-.053.145-.172a4.3 4.3 0 0 0 .675-1.614l.013-.013.04-.278.026-.33-.092.264-.12.277-.012.014a5.8 5.8 0 0 1-.781 1.204l-.133.145-.82.701-.595.397-.701.318q-.727.304-1.614.516l-.185.04-1.773.237-1.786-.185-.41-.092h-.04l-1.521-.265-.794-.08h-.013l-.053-.012-.555-.252-.027-.013-.53-.225-1.058-.503q-3.452-1.68-6.297-3.585l-.793-.542-.04-.12-.014-.013-.237-.582-.014-.04v-.012l-.013-.014a7 7 0 0 0-.436-.966l-.186-.343-.013-.014-.45-.82-.026-.04-.12.053V9.3l.027-.013v-.04q-.013-.092.08-.092.105-.014.145.052l.026.014.014.013.026.013.133.106.661.45.41.251-.754-1.23q-.37-.728-.344-1.244 0-.133.132-.211 1.337-.516 2.051-.914.754-.423 1.772-1.296l-2.09.067-.952.118q-.755.053-.873-.106l-2.09-2.606q.039.053 0 .053l-.199.04-.172.092-.066.014-.013-.014-.106.014.291.529q.053.079.013.119l-.053.027q-.119.04-.185-.04v-.04l-1.058-1.6q-.027.397-.252.555-.199.146-.661-.12-.662-.408-1.151-1.216M9.63 2.565q-1.35.12-2.156.847l.847 1.124q.423-1.296 1.31-1.97M6.443 4.126h.118q.979.345 1.628 1.165l.052.119q.014.078-.039.118-.12.107-.238-.052a3 3 0 0 0-1.046-.887q.173.186.318.596l.238.661q.04.172-.093.172-.172-.013-.224-.172l-.12-.384-.052.08q-.093.093-.199 0l-.171-.225h-.027l-.08-.092-.145-.265-.159-.291-.026-.106v-.027q-.04-.132.066-.132l.172-.026h.013l-.04-.146zM1.708 9.741q.075.007.104.127.066.145.013.397l-.25 1.442.025.794.08.423.093.423.278-.714.145-.278.145-.37.185-.331.08-.053q.04 0 .093.053l.118.172q.04.105.014.198l-.159.278-.04.119-.145.317-.133.252-.224.53-.093.25-.053.675-.211-.146-.04-.118-.053-.146-.238-1.111-.093-.57.093-.145q.013-.08-.053-.145l-.053-.04v-.066l-.027.053h-.052q-.105.014-.199.132l-.238.37q-.027-.45.159-.872l.185-.358q.12-.211.159-.357l.066-.265.105-.25.04-.08q0-.066-.092-.093l-.12.053-.118-.08.384-.422.066-.04a.1.1 0 0 1 .054-.008m2.961.59.106.145.067.146.172.595.052.132.16.583.25-.688.2-.49.052-.132.027-.106q.091-.119.237-.04l.172.199.397.529.172.198a.35.35 0 0 1 .027.265l-.106.093-.119-.014-.106-.145-.49-.609-.489 1.297-.092.172q-.08.105-.172.079l-.146-.119-.304-1.257-.185-.621-.014-.146q.04-.093.132-.066m2.686.635.12.04.277.304.172.383.304.556.265.49v.013l.026.066.225.516-.013-.675v-.013l-.08-.754.014-.199q.052-.118.172-.106.105.04.132.212l.08.635.013.08v.013l.013 1.005-.013.278-.08.132-.264-.013-.172-.238-.596-1.244-.013-.04-.542-1.137-.106-.106-.026-.04v-.105q.026-.053.092-.053m-3.4.609q.066-.014.159.105.212.357.304.715l.04-.794v.317l.132.57.013.224.054.172.012.093-.012.105v.027l-.054.146q-.08.053-.171-.067a.9.9 0 0 1-.16-.357l-.078-.384-.067-.264-.106-.265-.026-.026-.106-.146-.013-.04q-.04-.105.08-.131m2.875.777q.03.009.062.043l.278.383.013.014v.012l.172.397.066.199.106.503.146.423q.12.304.119.516 0 .132-.08.159l-.132-.027-.08-.119-.304-.582-.026-.066-.092-.146-.199-.198-.093-.251.014-.053.092-.014.172.185.159.186.092.172.093.185.093.146.026.013-.053-.159-.238-.86-.106-.357-.092-.198-.014-.014-.052-.092-.08-.106-.079-.08-.027-.065-.013-.146a.07.07 0 0 1 .057-.003m.234 4.326q.046.01.106.056.317.304.45 1.111.12.873.013 1.415-.027.133-.092.159h-.014l-.158-.066-.9-1.019a8 8 0 0 1-.305 2.342.28.28 0 0 1-.092.146l-.212-.027-.119-.198a5.6 5.6 0 0 0-.41-.794v-.013a10 10 0 0 0-.622-.887v.027l-.066.569.04.185q.066.118 0 .172l-.159-.04-.41-.542-.013-.014-.291-.515-.106-.186-.027-.053-.145-.41v-.026l-.026-.212.052-.093q.08-.012.106.106l.013.066.014.014q.198.674.648 1.283a1.87 1.87 0 0 1 .198-.9l.014-.04.33.397.305.45.238.384.423.78q.384-1.295.278-2.658-.027-.132.053-.16.066-.025.106.04l.158.305.239.344.621.675q.106-.437-.026-1.297-.053-.318-.146-.45l-.119-.145-.08-.159q0-.093.054-.106a.09.09 0 0 1 .08-.016m16.484 4.29h.026l.027.039.013.026zm-6.271.264.106.026.265.542q.224.715.635 1.323l-.067-.621q0-.146.053-.199.066-.039.159 0l.12.12.528.595q.33.291.74.423l.213-.026-.331-.623a1.27 1.27 0 0 1-.092-.687q0-.105.066-.106l.079.053.066.172.066.33q.04.212.172.437l.199.291.132.318-.013.158-.053.093-.106.093h-.212q-.396-.12-.833-.463a4.7 4.7 0 0 1-.662-.701l.08.78-.013.238q-.08.04-.239-.119l-.211-.357q-.45-.795-.595-1.23l-.146-.463-.132-.318zm-3.8.083a5.6 5.6 0 0 0-1.465.181l-.49.133.054.052.727 1.601.569 1.045q.278.436 1.005.609l1.23.119q.226 0 .358.132l.238.344q.925 1.377.622 2.858l-.08.092.027.225q-.04.211-.12.238l-.238.16q-.278.25-.171.713l.264-.013.728-.04q.224-.065.542-.396.45-.437.556-.728.132-.344-.04-.86l-.926-2.672-.278-.728-.013-.053-.053-.026-.688-.715q-.82-.952-.98-2.05a4.8 4.8 0 0 0-1.378-.221m-9.68.803h.013l.026.053v.026l.027.04.04.04.052.119-.08-.093-.012-.026v-.027l-.014-.026-.04-.053v-.027zm11.76 6.258q-.33 0-.476.237-.066.12-.013.689l.026.555.423-.04a1.55 1.55 0 0 1 .16-.754q.185-.396.529-.569l-.093-.013z"/></svg>