<?xml version="1.0" encoding="UTF-8" standalone="no"?>
<svg
   width="91.24485mm"
   height="114.55694mm"
   viewBox="0 0 91.24485 114.55694"
   version="1.1"
   xml:space="preserve"
   xmlns="http://www.w3.org/2000/svg"
   xmlns:svg="http://www.w3.org/2000/svg"><path
     style="fill:#000000"
     d="m 44.660025,112.93347 c -0.45074,-0.89291 -2.19384,-3.72064 -3.873559,-6.28385 -2.868052,-4.37659 -3.043665,-4.58788 -2.883775,-3.46976 0.385529,2.69602 0.495625,5.02708 0.23743,5.02708 -0.145441,0 -0.778612,-0.73301 -1.407049,-1.62891 -0.628436,-0.89589 -2.818577,-3.36961 -4.866981,-5.49714 -2.048403,-2.127532 -4.260151,-4.693292 -4.914995,-5.701682 l -1.190625,-1.83343 -0.167757,1.36283 c -0.207544,1.68606 -1.104873,3.59092 -2.038159,4.32662 l -0.7045,0.55536 -0.174424,-1.67881 c -0.304257,-2.92843 -1.024858,-4.59557 -3.813447,-8.82255 -1.394996,-2.11455 -3.022984,-5.27608 -3.023379,-5.87136 -5.37e-4,-0.81191 -0.53927,-0.49264 -1.088451,0.64505 -0.597337,1.23745 -2.734725,3.7711 -3.181297,3.7711 -0.125607,0 -0.228377,-1.07009 -0.228377,-2.37798 0,-1.69255 -0.245436,-3.50379 -0.851507,-6.28385 -0.6829562,-3.13273 -0.8531682,-4.52125 -0.8598962,-7.01473 -0.0046,-1.70987 -0.03338,-3.10885 -0.06393,-3.10885 -0.03055,0 -0.593229,0.57483 -1.250401,1.2774 -0.657172,0.70257 -1.763271,1.58677 -2.457998,1.96489 l -1.26314,0.68749 0.02495,-5.07375 c 0.02569,-5.22441 0.222495,-6.64244 1.386372,-9.98919 l 0.513252,-1.47587 -2.043559,0.1183 c -1.665947,0.0964 -2.271547,0.0174 -3.277391,-0.42748 -1.35982202,-0.60152 -1.55110602,-0.96771 -0.62668502,-1.19973 1.11428302,-0.27966 3.84801202,-2.23984 6.02667902,-4.32132 l 2.155321,-2.05918 -1.504307,-0.30135 c -1.549641,-0.31042 -2.577078,-0.89365 -1.58307,-0.89863 0.808344,-0.004 3.096555,-1.16308 4.187836,-2.12124 0.9635792,-0.84604 3.3395592,-3.95295 3.3395592,-4.36693 0,-0.11321 -0.212716,-0.0133 -0.472704,0.22195 -0.619022,0.56021 -2.437712,1.31603 -2.437712,1.01309 0,-0.12966 0.184125,-0.38855 0.409166,-0.57532 0.687907,-0.57091 2.127757,-3.22932 3.152159,-5.81986 l 0.972634,-2.45963 -1.059765,-2.28093 c -1.689524,-3.63636 -2.174448,-5.70446 -2.341372,-9.98549 -0.242061,-6.20805 0.728057,-12.33002 2.803399,-17.690971 1.39357,-3.599823 1.14427,-3.570386 4.308787,-0.508787 1.50436,1.455433 4.690078,4.129918 7.079374,5.943298 2.389295,1.81338 5.177877,4.09202 6.196848,5.06366 2.09365,1.99638 1.385323,1.77746 8.890957,2.7479 l 4.879899,0.63095 6.10031,-0.77934 c 5.66061,-0.72317 6.14166,-0.82629 6.67405,-1.43069 1.1096,-1.25967 3.96127,-3.67807 7.59502,-6.44105 2.01897,-1.53515 5.00951,-4.078094 6.64566,-5.650989 L 75.564275,0 l 0.93268,2.046701 c 2.50038,5.486927 3.51963,11.151867 3.30589,18.374027 -0.14331,4.84275 -0.70967,7.33935 -2.44797,10.79116 l -0.92183,1.8305 0.77879,2.11219 c 0.98512,2.67178 1.97992,4.64792 2.97731,5.91434 0.7019,0.89123 0.72906,0.99219 0.26694,0.99219 -0.28297,0 -0.94782,-0.29407 -1.47744,-0.65349 -0.52963,-0.35941 -0.96117,-0.56777 -0.95898,-0.46302 0.002,0.10476 0.58979,0.98445 1.30576,1.95488 1.56119,2.11603 3.82661,3.89608 5.52146,4.33846 l 1.23858,0.32329 -0.74313,0.292 c -0.40873,0.16061 -1.22162,0.36852 -1.80642,0.46203 l -1.06328,0.17003 1.40954,1.4375 c 1.80123,1.83697 4.20312,3.65822 5.97361,4.52953 0.76398,0.37599 1.38906,0.78456 1.38906,0.90795 0,0.12339 -0.55523,0.46995 -1.23384,0.77013 -1.00282,0.4436 -1.61271,0.52385 -3.25752,0.42863 l -2.02369,-0.11715 0.61569,1.69621 c 1.03112,2.84071 1.41066,5.83722 1.33641,10.55129 l -0.0673,4.27098 -1.04654,-0.53377 c -0.57559,-0.29357 -1.70668,-1.16313 -2.51354,-1.93235 l -1.467,-1.39857 -0.0264,3.21761 c -0.0206,2.50376 -0.18887,3.92202 -0.75861,6.39262 -0.43433,1.88341 -0.8003,4.41277 -0.89962,6.21771 l -0.16744,3.04271 -1.35619,-1.37295 c -0.7459,-0.75513 -1.57934,-1.91554 -1.85208,-2.5787 -0.27274,-0.66316 -0.55542,-1.20606 -0.62818,-1.20645 -0.0728,-3.9e-4 -0.5279,0.87918 -1.01141,1.95459 -0.48351,1.07541 -1.60246,3.06958 -2.48656,4.43148 -2.36715,3.64647 -3.39573,5.965 -3.75178,8.45693 l -0.30403,2.12785 -0.73677,-0.68281 c -0.90408,-0.83787 -1.71133,-2.60482 -1.93476,-4.23487 l -0.16758,-1.22266 -1.18779,1.77057 c -0.65328,0.97381 -2.83019,3.46927 -4.83758,5.545452 -2.0074,2.07619 -4.23935,4.61437 -4.95991,5.64041 l -1.3101,1.86552 -0.14732,-0.98677 c -0.081,-0.54272 0.009,-1.93926 0.20007,-3.10343 0.19106,-1.16417 0.31911,-2.14923 0.28454,-2.18903 -0.11851,-0.13646 -6.43172,9.59643 -7.12631,10.98643 -0.38177,0.76398 -0.74994,1.38906 -0.81815,1.38906 -0.0682,0 -0.49281,-0.73056 -0.94355,-1.62347 z m 4.91754,-27.330842 c 0.73013,-0.21911 1.53599,-0.55082 1.79078,-0.73714 0.3813,-0.27882 -0.63776,-0.33876 -5.75928,-0.33876 -3.4224,0 -6.222553,0.0282 -6.222553,0.0626 0,0.17169 2.156418,0.98323 3.439583,1.29445 1.72643,0.41872 4.85322,0.28852 6.75147,-0.28115 z m -27.370487,-4.91236 c 0.314886,-1.38948 2.260179,-6.57119 3.32751,-8.86354 0.406532,-0.87312 0.791275,-1.70656 0.854985,-1.85208 0.125964,-0.28772 -4.305697,3.59908 -5.060873,4.43865 -0.344221,0.38269 -0.461676,0.96547 -0.457779,2.27139 0.0054,1.80754 0.394684,5.05313 0.718463,5.98996 0.165923,0.48008 0.190539,0.46781 0.26538,-0.13229 0.04537,-0.36381 0.203913,-1.19724 0.352314,-1.85209 z m 48.051397,-2.53196 0.15954,-3.458 -2.61731,-2.26458 c -1.43953,-1.24552 -2.64806,-2.23837 -2.68563,-2.20633 -0.0376,0.032 0.33616,0.94032 0.8305,2.01842 1.33783,2.91761 2.7775,6.91311 3.26381,9.05795 0.40152,1.77092 0.44573,1.84488 0.65995,1.1043 0.12628,-0.43657 0.30139,-2.34985 0.38914,-4.25176 z m -27.29159,4.26526 c 0.50465,-0.21086 0.91754,-0.49512 0.91754,-0.63169 0,-0.13657 -0.80367,-0.58366 -1.78593,-0.99352 -2.483375,-1.03623 -2.926081,-1.35759 -3.576095,-2.5959 -0.703261,-1.33975 -0.759511,-3.85421 -0.113909,-5.09186 1.223199,-2.34492 8.154264,-3.274 12.222284,-1.63834 1.92139,0.77256 2.56366,1.60194 2.72234,3.5155 0.0998,1.20299 -0.003,1.71787 -0.57936,2.89537 -0.78146,1.59725 -1.10608,1.85691 -3.66381,2.93058 -0.98226,0.41234 -1.78593,0.85697 -1.78593,0.98809 0,0.42704 1.80486,1.00542 3.10035,0.99353 2.56518,-0.0236 4.68441,-1.29912 5.79301,-3.48682 0.41483,-0.81863 0.92429,-2.65849 1.29589,-4.67995 0.85099,-4.62928 1.0716,-5.5544 2.15085,-9.01954 l 0.94767,-3.0427 3.03565,-1.7198 c 1.66961,-0.94588 3.72657,-2.03571 4.57103,-2.42183 l 1.53538,-0.70204 -1.44478,2.02496 c -0.79462,1.11372 -1.99709,2.5905 -2.67215,3.28173 -1.15205,1.17963 -1.1874,1.25678 -0.57587,1.25698 1.78134,5.7e-4 6.43618,2.95542 8.84576,5.6152 1.35928,1.50042 1.48736,1.58405 1.32767,0.86688 -0.88116,-3.9573 -2.94372,-7.04954 -5.36946,-8.05003 -1.30149,-0.5368 -0.69375,-0.81781 1.81728,-0.84026 2.31158,-0.0207 3.88124,0.36997 5.22638,1.30071 1.39042,0.96207 1.42643,0.95744 0.97709,-0.12547 -0.78423,-1.88996 -2.113,-3.84696 -3.40443,-5.014 -0.70697,-0.63887 -1.23162,-1.16157 -1.1659,-1.16157 0.29991,0 3.11414,1.04546 3.87921,1.4411 0.46896,0.2425 1.33919,0.88048 1.93387,1.41774 1.00165,0.90492 1.06643,0.92816 0.88022,0.31576 -0.47865,-1.57416 -1.98346,-3.95786 -3.54646,-5.61775 -1.36055,-1.44489 -1.57996,-1.79019 -1.1375,-1.79019 0.9304,0 3.27796,0.57279 4.50733,1.09976 0.94209,0.40382 1.10414,0.4219 0.83093,0.0927 -0.74061,-0.89239 -3.67947,-2.90719 -5.55777,-3.81027 -1.85008,-0.8895 -2.15449,-0.95407 -4.49792,-0.95407 -3.27637,0 -4.30608,0.50234 -5.68597,2.77389 -1.49977,2.46889 -2.25558,2.91832 -5.27961,3.13944 -3.49464,0.25554 -3.71615,0.4915 -4.13153,4.40099 -0.16981,1.5983 -0.42914,3.20564 -0.57628,3.57188 -0.25325,0.63033 -0.28478,0.59525 -0.59065,-0.65704 -0.17772,-0.7276 -0.985,-2.95734 -1.79396,-4.95497 -1.11656,-2.75721 -1.69996,-3.84814 -2.42205,-4.52916 -0.57969,-0.54672 -0.94967,-1.14324 -0.94729,-1.52732 0.0134,-2.1542 1.93418,-7.0819 3.68447,-9.45222 1.02054,-1.38205 1.31741,-1.29109 0.56969,0.17456 -1.05141,2.06093 -1.36545,6.72504 -0.53785,7.98827 0.21453,0.32745 0.3554,0.25953 0.8279,-0.39916 1.2022,-1.67593 3.90659,-4.08738 5.46764,-4.8754 0.89126,-0.44991 2.36584,-0.99375 3.27684,-1.20854 1.72009,-0.40555 6.81573,-0.55137 6.81573,-0.19505 0,0.11182 -0.30407,0.38781 -0.67572,0.61331 -0.67502,0.40958 -0.67265,0.41145 2.29588,1.82109 1.63438,0.77609 3.51603,1.57466 4.18145,1.77459 l 1.20985,0.36351 -2.2521,-2.32175 c -1.23865,-1.27697 -2.77077,-2.87638 -3.4047,-3.55425 l -1.15261,-1.2325 2.03301,-0.32796 2.033,-0.32796 -2.06788,-0.98109 c -1.71952,-0.81582 -4.69243,-2.88717 -5.77205,-4.02163 -0.18436,-0.19372 0.32751,-0.2315 1.6881,-0.1246 l 1.95268,0.15343 -0.86928,-0.64133 c -1.20193,-0.88675 -3.31255,-1.54666 -4.88242,-1.52653 l -1.31717,0.0169 0.788,-0.6351 c 0.71678,-0.57771 1.91936,-1.21222 3.49799,-1.84563 0.54574,-0.21898 0.40977,-0.37266 -1.69564,-1.91652 -1.25892,-0.92315 -2.55063,-1.79768 -2.87045,-1.9434 -0.55363,-0.25225 -0.4914,-0.35579 1.29876,-2.16075 1.03414,-1.0427 2.1712,-2.43036 2.52679,-3.08369 l 0.64652,-1.18787 -1.40274,1.25677 c -1.43398,1.28474 -2.40229,1.73443 -1.42433,0.66145 0.57415,-0.62993 1.9309,-2.72826 1.9309,-2.9863 0,-0.0839 -0.26462,0.0328 -0.58804,0.25932 -1.03921,0.72789 -0.9248,0.44454 0.38291,-0.94834 1.39766,-1.4887 1.50073,-1.93708 0.22918,-0.99698 -1.21659,0.89946 -1.26746,0.43218 -0.0941,-0.86383 0.92176,-1.01807 5.18702,-6.24737 7.73149,-9.47897 1.58639,-2.014788 -4.44774,3.68537 -8.50941,8.03844 -3.41425,3.6592 -5.60593,6.37532 -7.6747,9.51114 -0.80809,1.2249 -0.85259,1.25224 -1.07691,0.66146 -0.12869,-0.33894 -0.18205,-1.1818 -0.11857,-1.87302 0.0635,-0.69122 0.0373,-1.25677 -0.0582,-1.25677 -0.0955,0 -0.67928,0.37187 -1.29731,0.82637 l -1.12368,0.82636 0.17201,-0.76022 c 0.0946,-0.41812 0.38003,-1.05787 0.63427,-1.42168 l 0.46227,-0.66145 -4.21647,0.079 c -2.78303,0.0521 -4.33538,-0.0197 -4.56624,-0.21129 -0.24192,-0.20077 -0.40265,-0.20474 -0.52124,-0.0129 -0.10811,0.17492 -1.74496,0.27743 -4.430185,0.27743 -4.035135,0 -4.237282,0.0243 -3.85029,0.46302 0.439232,0.49793 0.894201,2.18281 0.589426,2.18281 -0.101492,0 -0.616968,-0.3805 -1.145502,-0.84556 l -0.96097,-0.84556 -0.07289,1.57317 c -0.04009,0.86524 -0.128535,1.72951 -0.196547,1.9206 -0.06863,0.19283 -1.523538,-1.51444 -3.269374,-3.83646 -3.187459,-4.23942 -8.76381,-10.28942 -12.628377,-13.70102 -1.148984,-1.01431 -1.903102,-1.60962 -1.675818,-1.32291 1.134607,1.43125 7.890391,9.8107 8.5745,10.63527 0.756437,0.91176 0.761358,0.93437 0.132292,0.60802 -0.359353,-0.18643 -0.862459,-0.52137 -1.118013,-0.74432 -0.255553,-0.22294 -0.525906,-0.34408 -0.600782,-0.26921 -0.07488,0.0749 0.458142,0.71264 1.184488,1.41725 1.407925,1.3658 1.572838,1.78263 0.401664,1.01524 l -0.715811,-0.46901 0.562187,1.10198 c 0.309203,0.60608 0.94841,1.54467 1.420459,2.08574 l 0.858271,0.98376 -0.885768,-0.51339 c -0.487173,-0.28236 -1.231313,-0.90448 -1.653646,-1.38248 -0.422332,-0.47801 -0.767877,-0.80069 -0.767877,-0.71707 0,0.62163 1.390315,2.59779 2.86475,4.07187 l 1.765458,1.76504 -1.455208,0.97788 c -0.800365,0.53784 -2.086261,1.4181 -2.857546,1.95613 l -1.402338,0.97825 1.211573,0.4599 c 1.080657,0.41021 3.842061,2.015 3.842061,2.23281 0,0.0467 -0.744141,0.075 -1.653646,0.0629 -1.288187,-0.0172 -1.946013,0.12873 -2.976563,0.66013 -2.563061,1.32164 -2.6049,1.46879 -0.382828,1.3464 1.661585,-0.0915 1.89245,-0.0555 1.473324,0.23004 -0.273352,0.18621 -1.187773,0.90746 -2.032046,1.60279 -0.844273,0.69533 -2.517202,1.72589 -3.717619,2.29014 l -2.182576,1.02591 1.568789,0.17893 c 2.742021,0.31274 2.728444,0.16414 0.273885,2.99746 -1.220767,1.40914 -2.716631,2.96098 -3.324142,3.44853 -0.607512,0.48755 -1.052305,0.93872 -0.988429,1.0026 0.179834,0.17983 3.259968,-1.03897 5.607476,-2.21887 1.164167,-0.58513 2.28599,-1.11431 2.49294,-1.17596 0.229362,-0.0683 0.04858,-0.24782 -0.463021,-0.45973 -0.461612,-0.19121 -0.839294,-0.45227 -0.839294,-0.58013 0,-0.48162 5.359203,-0.25338 7.412791,0.3157 2.953499,0.81846 4.331872,1.69665 6.709438,4.27473 1.467014,1.59074 2.217371,2.22665 2.405456,2.03856 0.155647,-0.15564 0.268213,-1.49241 0.261413,-3.10439 -0.01028,-2.43662 -0.109627,-3.07065 -0.713087,-4.55084 l -0.701145,-1.71979 0.897386,1.01991 c 1.79083,2.03535 3.836081,7.10468 3.836081,9.50806 0,0.72472 -0.1984,1.10079 -0.91069,1.72618 -0.69563,0.61077 -1.26069,1.65385 -2.392807,4.41701 -0.815165,1.98957 -1.643419,4.2317 -1.840565,4.9825 -0.210513,0.80171 -0.421124,1.2013 -0.510316,0.96821 -0.259014,-0.67686 -0.691523,-3.77845 -0.693624,-4.97407 -0.0026,-1.45481 -0.571265,-2.54849 -1.510875,-2.90553 -0.407045,-0.15468 -1.726497,-0.33907 -2.932116,-0.40976 -2.691729,-0.15783 -3.159388,-0.4397 -4.689164,-2.82631 -1.41881,-2.21348 -2.604641,-2.92798 -5.157343,-3.10743 -2.151299,-0.15123 -4.19838,0.36472 -6.408276,1.61515 -1.764387,0.99836 -4.826482,3.31347 -4.635358,3.5046 0.06267,0.0627 0.671835,-0.13284 1.353705,-0.43447 1.13974,-0.50416 4.341886,-1.19008 4.556035,-0.97593 0.05047,0.0505 -0.564361,0.7856 -1.366291,1.63363 -1.390003,1.46991 -3.543057,4.90607 -3.550483,5.66639 -0.002,0.20907 0.40427,1.1e-4 0.976157,-0.50201 1.111643,-0.97604 3.725377,-2.27166 5.105762,-2.53092 l 0.926041,-0.17393 -1.058333,0.78305 c -1.330737,0.98459 -2.258334,2.19682 -3.427696,4.47951 -0.993006,1.93842 -1.014199,2.36424 -0.07369,1.48068 0.76664,-0.72022 2.675825,-1.54902 4.030557,-1.74972 0.582083,-0.0862 1.89177,-0.0636 2.910416,0.0503 l 1.852083,0.2071 -1.339706,0.69657 c -2.293768,1.19263 -4.012195,3.54042 -4.980786,6.80497 -0.638261,2.1512 -0.529131,2.3123 0.599326,0.88469 2.104135,-2.66193 6.184578,-5.4852 8.697729,-6.01798 0.472942,-0.10026 0.859895,-0.26854 0.859895,-0.37396 0,-0.10541 -0.416698,-0.59553 -0.925995,-1.08916 -0.509298,-0.49363 -1.247919,-1.38019 -1.641381,-1.97014 -0.393461,-0.58994 -1.111911,-1.57385 -1.596555,-2.18647 l -0.88117,-1.11386 0.736613,0.25903 c 0.405138,0.14247 1.639237,0.76276 2.742443,1.37844 1.103206,0.61567 2.861662,1.59566 3.90768,2.17774 l 1.901851,1.05834 0.765363,2.38125 c 1.079879,3.35979 1.529505,5.18915 2.294667,9.33612 0.775743,4.20431 1.245451,5.41795 2.60963,6.74283 1.674792,1.62653 4.605148,2.24384 6.631807,1.39705 z m -8.895642,-29.3335 c 0.86823,-1.79352 0.94901,-1.68797 -1.760688,-2.3006 -0.9906,-0.22397 -1.558153,-0.53203 -1.984375,-1.07709 -0.328328,-0.41987 -0.873905,-1.12254 -1.212395,-1.5615 -0.401133,-0.52019 -0.851648,-0.7981 -1.293787,-0.7981 -0.662106,0 -0.674837,0.034 -0.531644,1.42144 0.323333,3.1328 2.47858,5.42162 5.129243,5.44713 1.039633,0.01 1.131629,-0.0529 1.653646,-1.13128 z m 26.975292,0.47209 c 1.77112,-0.96725 2.48987,-2.2301 3.04465,-5.34949 0.13915,-0.78242 0.0931,-0.85989 -0.51137,-0.85989 -0.36536,0 -0.89476,0.26789 -1.17645,0.59531 -2.2286,2.59047 -2.46438,2.76342 -4.033,2.95811 -0.85277,0.10584 -1.53474,0.3258 -1.55182,0.50051 -0.068,0.69584 0.1054,1.40827 0.51061,2.09763 0.5687,0.96748 2.01065,0.98991 3.71738,0.0578 z m -27.271586,-5.02714 c 0.123785,-0.86441 -2.655405,-2.55875 -3.420969,-2.0856 -0.277,0.17119 0.402099,1.53334 1.124703,2.25594 0.711161,0.71116 2.185696,0.60178 2.296266,-0.17034 z m 26.261646,-0.13738 c 0.7755,-0.83018 1.20936,-1.7632 0.94351,-2.02904 -0.2653,-0.26531 -2.44294,0.71063 -3.06637,1.37425 -0.77951,0.82975 -0.54572,1.46201 0.54061,1.46201 0.58212,0 1.05223,-0.23984 1.58225,-0.80722 z M 18.48443,30.791018 c 0,-0.2322 -0.224504,-0.73822 -0.498897,-1.12448 -1.539092,-2.1666 -2.469807,-5.89475 -3.003742,-12.03205 -0.391151,-4.49607 -0.667797,-3.9239 -0.704321,1.45672 -0.02934,4.32261 0.366915,6.83313 1.45355,9.2091 0.998243,2.18269 2.75341,3.7704 2.75341,2.49071 z m 55.585315,-0.17314 c 0.87924,-0.91412 2.06435,-3.61856 2.47469,-5.64728 0.55801,-2.7588 0.69874,-10.95532 0.1881,-10.95532 -0.12364,0 -0.30402,1.30435 -0.40085,2.89856 -0.33182,5.46343 -1.38393,10.0175 -2.84744,12.32522 -0.41813,0.65932 -0.76023,1.37322 -0.76023,1.58645 0,0.57644 0.69466,0.46926 1.34573,-0.20763 z" /></svg>
