<svg xmlns="http://www.w3.org/2000/svg" xml:space="preserve" width="380.337" height="330.231" viewBox="0 0 100.631 87.374"><path d="M4.368 0c2.505 0 4.628 2.09 4.628 4.558 0 1.306-1.202 3.086-2.473 3.663-.795.361-1.304.489-1.902.456-.132-.016-.253-.027-.437-.045q-.023 0-.045-.003a8 8 0 0 1-.757-.174C1.33 7.885 0 6.164 0 4.079 0 1.715 1.836 0 4.368 0m.077 1.135c-.29-.027-.58.03-1.011.159C1.489 1.877.546 3.908 1.299 5.89c.535 1.407 2.752 2.102 4.239 1.33 1.28-.667 1.965-1.702 1.92-2.904-.047-1.246-.714-2.184-2.01-2.828-.426-.212-.714-.325-1.003-.353m.02 1.337c.232.017.433.111.705.29 1.084.916 1.275 2.06.33 3.125-.72.627-2.09.591-2.804-.076-1.096-1.022-.637-2.665.884-3.167.39-.13.653-.189.885-.172m6.115.901c.16-.157 7.35 5.942 7.35 6.14 0 .616-1.67 3.261-2.37 3.85-1.247 1.05-2.206 1.522-4.677-.773-1.233-1.146-2.676-2.492-2.941-2.64-.442-.248.262-.741 1.292-1.911 1.084-1.233 1.123-1.337 1.04-2.808-.058-1.017-.15-.81-.06-1.199.057-.245.366-.659.366-.659m7.667 7.054c.367 0-.463 2.567-.92 3.07-.47.52-.803.713-.567.328.067-.11.19-.629.273-1.154.182-1.155.977-2.244 1.214-2.244m.395 1.776c.043-.02.39-.514.468-.498.526.163 2.04 1.352 5.99 4.687 6.57 5.55 17.007 14.24 19.872 16.415 1.538 1.169 2.904 2.285 2.994 2.644C48.268 36.656 46.075 40 44.98 40c-.254 0-1.958-1.26-3.611-2.71s-6.242-5.113-9.8-8.136c-7.502-6.373-12.971-11.252-14.48-12.61-.978-.881-.517-1.48-.06-1.754.93-.56 1.49-1.296 1.49-1.957 0-.329-.008-.57.12-.63zm32.925 18.493c2.558.004 3.424.217 3.088.76-.28.455-8.881.38-8.881-.08 0-.423 2.232-.685 5.793-.68m3.732 1.848v1.03c0 1.16-.264 1.352-1.865 1.352-.68 0-1.637-.329-2.823-.967l-1.795-.967 1.26 1.31c.693.72 1.379 1.72 1.525 2.223.627 2.162-.647 4.875-2.735 5.823-.818.372-1.723.505-3.454.51l-2.347.005-1.027-1.027c-.842-.842-1.026-1.212-1.023-2.05.007-1.776.263-1.769 2.237.055 1.679 1.552 1.938 1.7 3 1.7 2.43 0 3.755-1.266 3.755-3.585 0-1.462-.488-2.354-1.871-3.427-1.956-1.516-1.178-1.904 3.92-1.953zm-6.681 3.2c.053.009.193.116.28.188.27.225.315.82.315 1.902 0 1.446-.05 1.397-.873 2.22-.684.684-.934.638-1.647.638-.515 0-.857-.1-.947-.246-.091-.148.146-.355.49-.355 1.485 0 2.345-1.29 2.345-3.426 0-.89-.123-.947.037-.921m6.832.03c.74 0 1.724.009 3.02.022 5.188.053 5.425.078 5.52.585.056.29.563 1.032 1.129 1.648l1.027 1.118V48.4l-.82.935c-.585.666-1.062.947-1.654.975-.8.038-.804.044-.105.15.85.129.86.156.3 1.01l-.427.652h-23.2L39.744 51c-.695-1.57-1.076-1.801-3.42-2.082-1.132-.136-2.208-.3-2.39-.364-.4-.14-.462-7.586-.077-9.241.433-1.869 1.528-2.865 3.683-3.35.77-.175 1.088-.092 1.936.502.777.544.977.834.854 1.24-.088.29-.221 1.19-.296 1.997-.122 1.316-.062 1.556.586 2.326 1.174 1.394 2.447 1.894 4.826 1.894h2.076l.58 1.974c.688 2.34 1.633 3.532 3.558 4.491 1.662.828 3.333.881 5.773.183 2.163-.618 3.1-1.102 3.989-2.06 1.118-1.204 1.55-2.317 1.55-3.983 0-2.89-2.09-5.435-4.755-5.788-.9-.12-1.688-.466-2.578-1.133a89 89 0 0 0-1.936-1.412c-.467-.325-.467-.416 1.75-.418m10.407.003c1.88-.033 5.744.275 6.573.618.877.363 2.183 1.58 2.183 2.034 0 .239-3.192.128-6.608-.23-1.21-.126-1.592-.302-2.315-1.07-.477-.505-.866-1.043-.866-1.195 0-.098.406-.147 1.033-.157m-12.807.92 1.688 1.297c.928.714 1.918 1.714 2.199 2.224 1.724 3.127-2.334 7.652-5.426 6.05-.318-.165-1.085-.709-1.704-1.21l-1.126-.91 1.24-.854c2.066-1.424 2.673-2.389 2.916-4.638zm14.022 2.86 3.49.036c1.918.02 4.03.103 4.693.184l.599.073.054.014.179.047c.094.023.189.04.284.059q.16.03.32.054.135.02.27.046.196.034.393.073l.33.062c-.823.218-.973 1.261-.898 4.564.05 2.245.186 3.47.407 3.69.182.183.33.412.33.512s-2.254.2-5.01.225c-4.79.043-5.024.02-5.298-.493-.183-.341-.261-2.109-.215-4.842zm-8.83.131c2.026 0 4.27 3.098 3.78 5.216-.425 1.83-2.208 3.885-2.966 3.417-.143-.089-.84.097-1.546.413-1.103.492-2.411.868-3.402.977-.146.015-.714-.096-1.264-.249-1.151-.32-2.69-1.579-3.247-2.656-.211-.408-.384-.799-.384-.869s.607.282 1.35.781c.989.666 1.637.908 2.43.908 3.43 0 6.322-3.882 5.137-6.898-.39-.996-.386-1.04.113-1.04m20.213 1.588c.757 0 .98.127 1.19.678.427 1.122.323 4.934-.153 5.613-.508.725-.764.736-1.44.059-.465-.465-.53-.882-.53-3.44v-2.91zm-11.395 9.051c.574-.022 1.299-.01 2.222.003l3.474.074-.523.86-.524.86h-3.55c-3.382 0-3.545-.025-3.418-.512.238-.908.597-1.22 2.32-1.285M53.31 53.781c7.07 0 14.369.033 20.44.099l21.343.23.492.843c.27.464.515 1.357.543 1.984l.053 1.142-7.541-.08c-4.706-.05-7.687.02-7.93.184-.493.335-.758 3.12-.783 8.253-.01 2.122-.098 3.937-.195 4.034s-11.033.177-24.301.177H31.3l-.172-2.82c-.094-1.55-.172-4.17-.172-5.82 0-4.42.65-4.114-8.55-4.011l-7.457.083-.08-1.067c-.056-.773.092-1.32.54-1.985l.618-.917 18.187-.23c5.172-.066 12.02-.099 19.09-.099m14.86 3.637c-1.328 0-2.283.868-2.283 2.076 0 1.438.607 2.16 1.8 2.14.538-.009 1.247-.124 1.575-.257 1.93-.775 1.053-3.96-1.09-3.96m-25.915 0c-1.315 0-2.034.74-2.034 2.097 0 1.597 1.533 2.54 3.175 1.952.68-.242 1.059-.937 1.059-1.937 0-1.276-.872-2.112-2.2-2.112m.083.793c.356 0 1.058.794 1.058 1.197 0 .334-.677.892-1.106.912-.098.004-.366-.18-.595-.408-.23-.229-.415-.518-.415-.642 0-.125.186-.414.415-.643.229-.228.518-.416.643-.416m25.797.397c.635 0 .812.126.883.632.085.6-.308 1.08-.883 1.08-.146 0-.424-.101-.62-.225-.193-.123-.312-.508-.263-.855.07-.506.248-.632.883-.632m-42.113.64 1.874.077 1.874.077.072 5.623.07 5.622-1.79.031c-.985.017-2.15.123-2.585.234-.95.241-14.194.334-14.795.104-.23-.089-.42-.428-.42-.755 0-.554.149-.605 2.184-.764 1.2-.093 3.685-.17 5.52-.171 4.62-.002 4.667-.049 6.893-6.757zm66.08.022c5.433 0 6.082.105 6.6 1.073.374.698 1.315 5.658 1.315 6.929v.992h-4.986c-4.46 0-5.032-.05-5.416-.474-1.038-1.147-3.214-6.94-2.97-7.909l.153-.612zm-7.725.022c.813.003.849.143.97.694.366 1.652 2.018 6.363 2.57 7.33 1.174 2.053 1.456 2.139 7.03 2.15 2.715.007 5.073.037 5.238.067.435.08.616 1.018.265 1.37-.308.309-12.287.213-17.04-.136l-2.19-.16.073-5.602.07-5.603 1.91-.077c.476-.02.833-.034 1.104-.033m-67.927.007c.66.006 1.42.02 2.295.031 6.424.084 6.106-.139 4.922 3.452-.844 2.562-1.554 4.066-2.307 4.888-.528.576-.704.595-5.403.595-3.78 0-4.886-.077-4.99-.35-.075-.191.11-1.948.409-3.902.576-3.77.496-4.57 3.373-4.697.48-.02 1.04-.022 1.7-.017m22.119 1.577c-.323.025-.56.615-.35 1.454.254 1.013 1.56 1.441 4.31 1.415 1.277-.013 2.659-.124 3.068-.246 1.518-.456 1.94-1.372 1.02-2.204-.66-.598-.79-.556-.887.29l-.084.727-2.513.078c-3.06.094-3.652-.037-3.972-.879-.175-.46-.4-.65-.592-.635m25.368.268c-.205-.035-.46.089-.703.382-.55.662.07 1.631 1.25 1.96 1.688.468 6.147.355 7.223-.182.996-.498 1.294-1.183.784-1.799-.454-.547-.734-.475-.831.212-.083.583-.154.595-3.656.595s-3.574-.011-3.657-.595c-.05-.344-.205-.538-.41-.573m18.836 10.89c.76.04 1.828.201 3.288.487l1.786.35v4.663c0 2.566-.08 4.744-.176 4.841-.097.097-1.513.177-3.147.177-2.37 0-3-.079-3.12-.39-.082-.214-.23-2.448-.328-4.965-.157-4.019-.127-4.618.246-4.928.235-.195.69-.275 1.45-.235m-3.128.067v4.714c0 2.743-.114 4.927-.274 5.225-.267.5-.814.512-23.916.512-21.788 0-23.656-.034-23.812-.44-.092-.241-.243-2.5-.334-5.019-.137-3.804-.102-4.602.207-4.713.205-.074 11.118-.167 24.25-.206zm-49.61 0v4.763c0 2.619-.085 4.97-.19 5.225-.164.401-.572.463-3.042.46-1.57-.003-3.031-.117-3.25-.255-.322-.204-.412-1.111-.48-4.83l-.081-4.58 1.934-.36c1.064-.199 2.65-.375 3.522-.392zm67.073.662v1.808c0 .994-.083 1.89-.184 1.99-.1.102-1.797.152-3.77.111l-3.587-.073-.083-1.305c-.165-2.617-.298-2.531 3.925-2.531zm-75.407 0v1.808c0 .994-.08 1.887-.176 1.984-.223.223-4.53.235-6.372.005l-1.39-.167v-3.63h3.97zm75.408 5.291V82l-2.183.09-3.52.143c-.756.03-1.472-.084-1.652-.264-.5-.499-.416-3.557.1-3.755.23-.088 1.958-.16 3.837-.16zm-75.406.264v3.705h-7.938v-3.705h3.97zm75.406 5.557v1.543c0 .85-.08 1.623-.176 1.72-.328.328-6.84.2-7.18-.141-.174-.175-.317-.76-.317-1.301 0-1.856-.077-1.82 3.997-1.82zm-75.406 0v3.5l-3.687-.102c-2.028-.055-3.758-.172-3.845-.259-.286-.286-.405-1.405-.242-2.279l.16-.86h3.807zm65.374.297a.7.7 0 0 1 .292.051c.21.085.149.147-.16.16-.278.012-.435-.051-.347-.139.044-.044.123-.067.215-.07z"/></svg>