<svg xml:space="preserve" width="409.927" height="305.865" viewBox="0 0 108.46 80.927"><path d="M150.438 200.633c-4.097-.001-7.391-3.547-8.685-6.232-5.298.563-11.808.076-15.256-4.527-2.718-3.648 3.187-4.534 2.845-7.403-.339-.948.737-4.24-.756-3.274-7.736 4.004-15.037 9.508-23.77 11.094-7.533.774-13.166-5.26-19.091-8.915-6.798-4.96-14.181-9.233-20.434-14.88-3.413-4.756 4.066-6.856 5.754-8.873-4.4-3.698-2.524-10.898 3.04-12.149 20.425-8.465 40.823-16.997 61.272-25.406 3.302-.118 6.79-.148 9.512 2.053 8.664 5.872 17.049 12.184 25.295 18.617 3.843 2.67 3.635 8.636-.905 10.348 2.835 3.51-2.276 5.972-5.028 7.399-8.468 4.889-16.914 9.817-25.434 14.614 4.748.063 10.972 1.532 11.896 7.011 5.485-2.303 13.325-1.766 16.685 3.712.867 1.958.163 4.293.39 6.405.934 2.938 1.508 6.368-2.39 7.806-4.482 2.473-9.883 3.493-14.94 2.6m11.245-9.643c5.908-1.125 5.31-9.178-.482-9.84-4.465-1.335-10.616-.69-13.105 3.747-1.346 6.24 7.439 7.468 11.868 6.572l.884-.207zm-17.462-6.29c2.121-.21 3.05-2.413 4.549-3.664.174-1.996-.664-3.572-2.47-4.502-4.486-2.569-11.382-2.494-14.809 1.763-2.135 5.48 5.645 7.423 9.771 6.909a16 16 0 0 0 2.959-.507m-34.518-3.941c8.215-3.399 15.792-8.203 23.703-12.255 12.035-6.547 24.119-13.028 36.012-19.82 3.158-1.653 1.684-5.951-.923-7.26-8.428-6.137-16.624-12.617-25.263-18.445-2.496-1.097-5.71-1.9-8.35-.977-20.914 8.884-41.998 17.491-62.928 26.259-4.79 4.457 1.734 8.842 4.831 11.772 7.168 6.326 14.122 12.94 21.528 18.97 3.347 2.108 7.563 2.77 11.39 1.756m-6.994-.538c-5.405-1.823-8.96-6.677-13.313-10.128-5.868-5.567-12.513-10.391-17.777-16.549-1.984-5.511 6.34-6.443 9.719-8.62 7.301-3.008 14.611-6.078 22.08-8.615-7.932 3.963-16.345 7.04-24.465 10.656-2 .962-4.28 1.596-6.106 2.763-1.708 1.971-.493 4.202 1.334 5.393 8.426 7.684 16.834 15.422 25.57 22.741 1.592 1.327 3.475 1.854 5.505 1.587 2.199-.017 4.483.338 6.368-1.055 3.708-1.73 7.33-3.665 11.142-5.157-5.6 3.887-12.217 7.431-19.23 7.148zm1.918-4.62c-4.648-.643-9.688-6.609-5.35-10.628 1.31-2.849.298-5.119-3.024-3.563-4.883 3.091-13.052.595-14.084-5.42-.2-2.64 2.617-4.104 2.17-6.804 1.742-6.855 11.65-7.732 16.325-3.395 3.606 2.772 2.087 7.596 2.667 11.468 5.446-2.578 13.256-.697 15.754 5.103-.175 2.81.024 5.731-.376 8.474-2.16 3.046-6.405 4.123-9.957 4.973-1.375.142-2.77.061-4.125-.207m9.947-7.466c5.338-2.054 2.64-8.957-2-9.88-1.77-.892-3.947-.552-5.86-.61-3.999.405-7.627 5.148-3.991 8.447 3.075 2.836 8.016 4.141 11.851 2.043m-17.152-12.774c6.181-1.27 4.44-9.475-1.092-10.152-2.917-.792-6.207-1.006-8.687 1.043-4.086 3.328.408 8.881 4.478 9.415a9.4 9.4 0 0 0 5.301-.306m31.188 8.616c-3.074-.555-6.981-2.574-7.276-5.978-.254-1.994.21-3.675 1.19-5.367-.107-4.988 5.1-8.145 9.666-7.284 4.554.373 10.461 3.934 9.119 9.237.51 2.731.44 5.603-2.432 7.096-2.973 1.954-6.739 2.876-10.267 2.296m7.589-6.753c7.879-2.5 1.257-11.58-4.817-10.4-6.198-1.58-9.658 6.863-3.524 9.351 2.486 1.45 5.574 1.876 8.34 1.05m11.732-4.775c-5.417-.757-7.135-6.814-4.299-11.005-.076-5.374 6.515-7.06 10.813-6.124 4.95.424 8.177 5.141 7.152 9.917.713 6.257-7.15 7.82-11.9 7.526l-.909-.121zm9.727-6.642c4.85-1.975 1.72-8.073-2.265-8.88-1.956-.739-4.21-.15-6.289-.34-3.918.909-5.241 5.976-1.432 8.078 2.813 2.082 6.788 2.69 9.986 1.142m-45.068 5.606c-5.167-.143-9.496-5.877-5.609-10.288-.273-5.921 6.31-9.073 11.392-7.187 5.254.664 8.383 6.086 6.475 10.974-.481 5.682-7.576 7.412-12.258 6.501m8.772-7.048c5.672-2.844.155-9.529-4.475-9.376-5.12-1.972-11.433 4.65-5.685 8.321 2.896 1.971 6.939 2.576 10.16 1.055m11.482-3.232c-5.6-.974-7.884-7.117-4.7-11.51.782-5.246 7.589-6.054 11.75-4.676 5.048 1.009 6.498 6.469 4.915 10.807-1.06 4.842-7.782 6.327-11.965 5.38m6.667-5.77c6.432-.466 4.852-8.737-.757-9.206-4.444-2.565-12.27 2.256-7.337 6.98 2.136 1.805 5.335 2.849 8.094 2.226" style="fill:#000" transform="translate(-64.41 -120.025)"/></svg>