<svg xmlns="http://www.w3.org/2000/svg" xml:space="preserve" width="369.126" height="237.726" viewBox="0 0 97.665 62.898"><path d="M155.743 127.226c-.772-.007-1.68.144-2.608.453-4.87 1.622-9.562 5.912-12.164 11.12-1.234 2.47-1.337 3.033-1.579 8.644-.224 5.176-.406 5.74-2.98 9.214l-1.372 1.85-.03 3.044c-.026 2.59-.14 3.361-.762 5.162-1.136 3.287-3.222 6.703-6.787 11.112-.244.303-1.023 1.084-1.512 1.606.318.16.58.469.966.671.382.2.949.273 2.036.68 2.389.891 2.867.98 5.399.995 2.23.014 2.957-.08 3.68-.474 1.292-.704 3.455-2.798 3.302-3.196-.08-.21.363-.55 1.167-.896 1.967-.846 7.068-4.903 7.737-6.153.237-.443.185-.484-.467-.364-.404.073-1.078.037-1.498-.082l-1.325-.287 1.647-1.036c1.338-1.12 3.935-3.445 3.756-3.608-.053-.049-.82.034-1.69.154-1.919.266-5.162-.69-6.644-1.342l-1.066-.469 2.788-.146c2.057-.107 3.169-.304 4.234-.75 1.923-.805 4.815-2.715 5.705-3.768 1.186-1.403 2.452-4.384 2.743-6.461.243-1.734.494-2.936.176-4.497l-.15-.923-1.04.628c-2.137 1.63-9.034 3.16-10.73 3.16-1.008 0-.367-.906 1.673-1.727 3.968-1.6 8.298-5.234 9.78-8.213.865-1.736 1.17-4.797.848-8.505-.264-3.045-.663-4.462-1.434-5.102-.388-.322-1.026-.486-1.799-.494m-90.783.082c-2.242-.032-2.898 1.202-3.382 6.36-.502 5.334.257 7.678 3.578 11.065 2.006 2.045 4.139 3.465 7.212 4.801 2.321 1.009 2.527 1.172 1.482 1.172-1.734 0-8.126-.787-10.295-2.493-.65-.511-.969-.94-1.174-.386-.114.306-.07.4-.166 2.19-.153 2.864-.107 3.471.383 5.08 1.04 3.417 2.733 5.252 6.433 6.974 2.474 1.152 4.547 1.612 7.374 1.635l2.514.021-1.323.62c-1.942.91-4.143 2.554-6.1 2.17-.865-.17-2.075-.473-2.147-.402-.239.239 1.664 1.901 3.422 3.544.956.893 2.462 2.07 3.347 2.617.886.547 1.61 1.053 1.61 1.125 0 .147-1.896-.102-2.91-.381-.517-.142-.375.066.65.957a32 32 0 0 0 2.713 2.068c1.306.867 1.532 1.146 1.417 1.755-.096.512 1.979 2.267 3.521 2.98 2.205 1.02 4.293.98 8.306-.158 3.068-.87 3.68-.455 4.147-.137l.314-.312c.31-.308-2.09-2.334-2.88-3.325-5.294-6.65-6.801-9.862-6.808-14.516-.002-2.018-.077-2.362-.685-3.175-2.112-2.82-2.747-5.359-2.753-11.018-.003-2.212-.137-4.653-.299-5.424-.7-3.333-3.466-7.61-6.722-10.391-3.303-2.822-7.932-4.976-10.779-5.016m56.122 22.134c-2.589.099-4.982 1.484-8.03 4.487l-2.645 2.606-.91-1.129c-5.42-6.712-11.697-7.705-16.96-2.685-2.567 2.448-3.688 5.174-3.688 8.965 0 4.789 2.087 8.8 8.073 15.513 3.282 3.681 13.058 12.92 13.677 12.925.252.002 3.778-3.3 7.834-7.338 8.005-7.968 10.072-10.465 12.225-14.75 1.034-2.06 1.38-3.075 1.562-4.582.78-6.46-2.79-12.245-8.452-13.695-.938-.24-1.823-.35-2.686-.317" style="fill:#000" transform="translate(-61.437 -127.226)"/></svg>