<?xml version="1.0" encoding="UTF-8" standalone="no"?>
<svg
   width="78.510483mm"
   height="78.769814mm"
   viewBox="0 0 78.510483 78.769814"
   version="1.1"
   xml:space="preserve"
   xmlns="http://www.w3.org/2000/svg"
   xmlns:svg="http://www.w3.org/2000/svg"><g
     transform="translate(-66.788184,-107.79085)"><path
       style="fill:#000000"
       d="m 88.284607,107.79085 c 2.205439,0.006 3.777696,0.87449 6.442202,3.5598 1.964836,1.98025 2.328474,2.46579 2.995559,4.00024 1.615945,3.71714 1.982621,7.97199 1.171376,13.59292 l -0.46854,3.24653 -1.977286,0.0124 -1.977275,0.0123 -0.0167,-1.40073 -0.01669,-1.40076 -3.072752,3.07276 -3.07276,3.07276 2.443838,0.0225 c 3.025829,0.0279 6.601164,-0.40328 11.677321,-1.40808 4.80054,-0.95025 9.03802,-1.03152 11.2893,-0.21653 1.42333,0.51526 1.83354,0.80445 3.48785,2.45876 1.74516,1.74516 1.91915,2.00499 2.5153,3.7574 0.77424,2.27573 0.82811,5.45499 0.15722,9.27768 -0.26285,1.49763 -0.71468,4.05419 -1.00405,5.68125 -0.28936,1.62705 -0.55595,4.20199 -0.59238,5.72209 l -0.0663,2.76381 2.33349,-2.31822 2.33348,-2.3182 -1.38367,0.18106 c -0.76102,0.0996 -1.4673,0.0902 -1.56952,-0.0207 -0.19238,-0.20892 0.12759,-3.32158 0.36597,-3.55996 0.0741,-0.0741 1.71993,-0.41498 3.65741,-0.75753 5.92719,-1.04794 10.36308,-0.77786 14.09749,0.85834 1.49237,0.65387 2.06855,1.07351 3.74114,2.72469 2.60051,2.56727 3.52303,4.26317 3.52303,6.47681 0,1.41635 -0.0979,1.69755 -0.85435,2.45398 -1.06226,1.06226 -2.01356,1.50283 -3.31098,1.53337 -1.22297,0.0288 -1.32113,-0.0661 -2.61631,-2.52835 -0.5675,-1.07888 -1.13704,-2.06684 -1.26565,-2.19548 -0.18297,-0.18301 -1.78113,1.31341 -7.34677,6.87905 l -7.11293,7.11293 0.62584,0.40314 c 0.34421,0.22173 1.36536,0.81067 2.26918,1.30877 0.90383,0.49809 1.75787,1.12667 1.89786,1.39686 0.35208,0.67948 -0.0386,2.85325 -0.68177,3.79348 -0.73741,1.07798 -2.57127,1.75654 -3.89428,1.44098 -1.52362,-0.36343 -3.72873,-1.76605 -5.37943,-3.42174 -2.51177,-2.51885 -3.74997,-5.22406 -4.24033,-9.26136 -0.33519,-2.75981 -0.10343,-5.67351 0.89792,-11.28876 0.89326,-5.00906 1.16807,-8.38039 0.96308,-11.81502 l -0.14753,-2.47172 -3.85349,3.75209 c -2.11947,2.06361 -3.8537,3.8438 -3.85352,3.95633 0,0.11229 0.87963,0.20977 1.95472,0.21648 1.0751,0.007 2.04415,0.10164 2.15343,0.21092 0.10928,0.10928 0.13216,0.98081 0.0508,1.93672 l -0.14783,1.73805 -2.59143,0.59209 c -4.00313,0.91463 -7.14979,0.95648 -9.598408,0.12766 -4.683819,-1.58541 -7.000223,-5.27947 -6.7867,-10.82304 0.067,-1.73854 1.09162,-8.12621 1.45224,-9.05327 0.0912,-0.23448 3.806218,-0.58506 3.995907,-0.3771 0.0657,0.0728 0.0268,0.79457 -0.0871,1.6048 -0.113947,0.81023 -0.139456,2.0565 -0.05669,2.76948 l 0.150446,1.29636 3.676705,-3.6767 3.67668,-3.67669 -0.9496,-0.15971 c -1.38614,-0.23312 -6.749682,-0.1651 -8.670725,0.10996 -0.910645,0.13039 -3.333016,0.4945 -5.383046,0.80913 -8.054652,1.23622 -12.482102,0.93536 -16.443673,-1.1174 -3.606338,-1.86871 -6.866981,-6.05897 -6.994758,-8.98899 -0.0458,-1.05038 0.0909,-1.44672 0.792179,-2.29711 0.992373,-1.20336 2.695868,-1.89533 3.998139,-1.62408 0.763482,0.15903 0.845,0.25691 1.835591,2.20429 0.570131,1.12083 1.09475,2.096 1.165792,2.16704 0.071,0.071 3.328388,-3.07004 7.238539,-6.98019 5.552401,-5.5524 7.058319,-7.16042 6.876146,-7.34258 -0.128267,-0.12828 -1.099704,-0.66677 -2.158751,-1.19665 -1.880474,-0.94088 -1.928588,-0.98242 -2.055894,-1.77527 -0.187593,-1.16827 0.488234,-2.93802 1.513519,-3.96331 0.764685,-0.76468 1.055656,-0.8759 2.283171,-0.87274 z M 77.340466,132.5294 c 0.648041,0.51171 1.296009,0.95821 1.439972,0.99219 0.143988,0.034 3.321327,-2.99781 7.06083,-6.73731 l 6.799099,-6.79911 -0.889363,-1.26215 c -0.489147,-0.69419 -0.990879,-1.28691 -1.11497,-1.31717 -0.124056,-0.0303 -3.431457,3.15082 -7.349706,7.06906 l -7.124084,7.12409 z m 4.910142,2.24213 c 0.462776,0.10317 1.32125,0.25793 1.907739,0.34391 l 1.066339,0.15634 4.467091,-4.56722 4.46709,-4.56722 -0.227102,-1.64379 c -0.124896,-0.90408 -0.289807,-1.70735 -0.366462,-1.78504 -0.0767,-0.0777 -2.843135,2.5625 -6.147727,5.86709 l -6.00835,6.00835 z m 16.651797,15.50057 c 1.047473,2.13024 0.488137,2.45154 6.631945,-3.80963 3.00687,-3.06428 5.43794,-5.60051 5.40243,-5.63602 -0.0552,-0.0552 -1.56235,-0.80283 -2.5878,-1.28368 -0.2436,-0.1142 -1.45874,0.99104 -5.171,4.70328 l -4.852581,4.8526 z m 3.568545,4.02324 c 0.47353,0.34299 1.17133,0.73964 1.55065,0.88151 l 0.68969,0.25792 4.82083,-4.82084 4.82083,-4.82082 -0.64837,-1.42364 c -0.35662,-0.78298 -0.72942,-1.50464 -0.82846,-1.60369 -0.11132,-0.11131 -2.2965,1.93637 -5.72309,5.36296 l -5.54304,5.54303 z m 15.91889,14.68228 0.20381,1.94772 2.96095,-2.85785 c 1.62851,-1.5718 4.19928,-4.14257 5.7128,-5.7128 l 2.75185,-2.85495 -2.03491,-0.1166 -2.03493,-0.1166 -3.88168,3.88168 -3.8817,3.88169 z m 1.57347,5.5359 c 0.2847,0.48704 0.69328,1.17293 0.90796,1.52422 l 0.3903,0.63868 7.12965,-7.12965 c 8.09324,-8.09324 7.53412,-7.19758 5.3194,-8.52131 l -1.04051,-0.6219 -6.61222,6.61223 -6.61222,6.61223 z" /></g></svg>
