<svg xmlns="http://www.w3.org/2000/svg" xml:space="preserve" width="288.081" height="315.844" viewBox="0 0 76.222 83.567"><path d="M23.797 56.471q-4.558 4.432-6.204 10.762-1.646 5.951-.38 12.535.253 1.52-2.026 2.66l-5.571 1.139-5.824-.886Q1.006 81.668.626 79.768-1.78 67.233 5.058 58.244q5.064-6.584 17.473-13.295l2.026 1.266 8.61 4.052q-5.825 3.039-9.37 6.204m28.742 18.486q1.52 0 1.393 2.026-.127 2.152-1.646 2.152h-27.73q-1.392 0-1.265-2.152.126-2.026 1.646-2.026zM16.959 3.798q-2.025 13.928 7.724 23.425 3.799 3.798 10.256 7.723 3.672 2.153 12.029 6.458Q63.3 49.76 68.999 55.71q9.37 9.75 6.584 24.057-.38 1.9-3.165 2.913l-5.825.886-5.57-1.14q-2.28-1.14-2.027-2.659 1.267-6.584-.38-12.535-1.645-6.33-6.33-10.762-4.179-3.925-12.282-7.724l-13.421-6.204Q13.92 35.58 7.083 26.97-1.526 16.08.374 3.8.626 1.772 3.412.758L9.236 0l5.571 1.013q2.406 1.14 2.153 2.785m35.579 61.916q1.52 0 1.393 2.026t-1.646 2.026h-27.73q-1.392 0-1.265-2.026.126-2.026 1.646-2.026zm-27.982-52.42q-1.393 0-1.266-2.152.126-2.026 1.646-2.026h27.602q1.52 0 1.393 2.026-.127 2.153-1.646 2.153zm0 9.243q-1.392 0-1.265-2.026.126-2.153 1.646-2.153h27.602q1.52 0 1.393 2.153-.127 2.026-1.646 2.026zm17.727 11.775q9.37-5.824 13.421-12.155 5.065-7.85 3.546-18.36-.254-1.772 2.152-2.785L66.973 0l5.825.76q2.785 1.14 3.038 3.038 1.646 11.27-5.317 21.399-5.825 8.103-16.84 14.94z"/></svg>