<?xml version="1.0" encoding="UTF-8" standalone="no"?>
<svg
   width="88.426315mm"
   height="109.4743mm"
   viewBox="0 0 88.426315 109.4743"
   version="1.1"
   xml:space="preserve"
   xmlns="http://www.w3.org/2000/svg"
   xmlns:svg="http://www.w3.org/2000/svg"><path
     style="fill:#000000"
     d="m 30.224425,109.35256 c -9.177585,-0.45009 -18.575262,-0.68899 -27.391161,-3.50945 -4.557517,-3.36433 5.29944,-4.5838 7.931327,-5.04429 5.422004,0.87917 2.85026,-5.175039 3.011101,-8.436479 -0.183079,-2.05828 0.101269,-4.27602 -1.534783,-5.83859 C 8.932817,81.902731 8.270354,76.102741 8.317892,70.580651 4.236797,68.595981 1.558774,64.064981 0,59.685771 c 0.517515,-5.04196 -0.11252,-10.17142 0.02408,-15.25444 0.03365,-4.4305 5.367331,-3.52644 6.849907,-4.45134 0.05901,-6.92341 -0.251818,-14.17529 3.184387,-20.46479 6.694359,-13.8319168 22.997373,-20.6609438 37.80081,-19.3580548 14.21322,0.6976 28.60492,9.754925 32.45402,23.9744848 1.80103,5.20876 1.10731,10.76822 1.40627,16.14012 5.63576,-2.04581 7.68273,5.11367 6.28042,9.32506 -0.59415,4.56722 1.19571,9.27184 -2.19271,13.23182 -0.6207,3.46626 -3.80949,5.6994 -5.78864,7.54694 0.53027,6.04555 -0.7727,12.23496 -4.2974,17.24796 -0.0937,3.81008 -2.07989,9.85314 0.0797,12.503899 2.46278,0.45966 12.33525,1.72046 7.71475,5.05265 -10.73618,3.63356 -22.30448,3.47603 -33.50268,4.11607 -6.59369,0.20651 -13.1939,0.24417 -19.78848,0.0564 z m 37.000969,-6.19365 c 6.69442,0.68062 4.79564,-6.561719 5.34407,-10.881809 0.29296,-4.01843 -3.32372,3.25052 -4.77238,4.15833 -1.70697,2.84647 -7.09483,5.995689 -7.45573,7.788479 2.31593,-0.18881 4.60447,-0.62889 6.88404,-1.065 z m -47.99887,-1.50003 c -0.137763,-2.719429 -0.25218,-9.805579 -2.795686,-9.128119 0.363164,3.02913 0.529097,6.07767 0.775632,9.117749 0.697545,0.31361 2.326177,1.90888 2.020054,0.0104 z m 40.63123,-6.329279 c 7.86733,-2.90994 15.06698,-8.97628 17.1337,-17.3736 0.69581,-3.18622 0.24905,-6.57795 0.49877,-9.8444 -0.0508,-8.36035 1.28775,-16.64444 1.28086,-24.9914 0.4218,-5.004 2.03592,-10.7863 -2.19242,-14.72619 -1.96259,-2.04562 -2.31832,-3.9033 0.17548,-0.99283 1.6671,2.56194 3.31854,3.6258 1.93162,-0.0805 -0.42864,-2.18993 -8.07688,-7.36876 -2.59547,-4.22785 4.04707,3.83039 -0.32404,-4.10397 -1.31196,-5.69173 C 68.205964,6.4336892 54.667174,1.4536012 42.314304,2.5068302 34.626644,2.3090212 27.474099,7.0774722 24.058163,13.848261 c -1.194267,1.65137 -2.503484,4.35519 0.584885,2.13382 2.580969,-1.23171 6.659787,-1.36622 1.818962,0.37799 -3.124154,0.26675 -7.805651,6.03996 -1.922788,3.81502 4.970112,-0.61965 10.380972,-1.10369 15.066542,1.02327 -6.538524,-0.8583 -14.023581,-1.44716 -20.057327,2.15714 -1.513815,1.65335 5.06475,-1.27271 6.684718,-0.83946 1.995975,-0.36229 10.839709,0.79491 4.454291,0.81505 -2.555488,0.21017 -9.721123,-0.5988 -8.913063,2.83843 1.985406,-0.8481 8.387082,-1.29502 8.42098,-0.54079 -2.896305,0.69215 -10.989041,0.12326 -7.132184,4.6952 3.761524,3.38149 9.091154,5.26083 13.992075,6.33704 3.01851,0.69136 4.25896,-7.4721 4.54461,-1.70346 -1.96838,5.36082 3.36122,0.39503 2.58157,-2.35877 1.74443,0.72264 1.62021,6.34215 -0.49777,8.29744 -0.4039,5.12114 -2.26181,10.38075 -1.63061,15.41169 1.53233,4.73144 10.9012,3.78952 8.45234,-1.82071 4.15236,1.64991 3.38065,8.31804 -1.74596,7.94506 -2.55747,0.967 -2.4705,8.83789 -3.40417,2.58115 -2.53902,-2.4309 -8.4615,-1.99296 -8.74757,-6.54769 -2.724973,0.25944 -8.849618,5.501 -4.361091,0.53678 1.556336,-1.59866 4.698361,-5.72839 0.837985,-2.21116 -3.746754,3.26305 -6.911991,7.13124 -9.993604,11.00942 -2.185764,4.71414 3.390328,8.7977 6.933469,4.51456 5.261801,-2.66065 11.263301,-4.03073 17.138571,-3.18352 6.36569,-0.62767 13.80306,1.06777 17.62407,6.59956 1.31605,2.62801 0.97058,4.77647 -1.03011,1.23179 -4.14039,-5.04081 -11.34714,-5.60579 -17.44562,-5.74428 -6.61563,0.019 -13.651824,1.48743 -18.732772,5.9722 7.348562,2.87945 14.928702,-1.80693 22.453382,-0.45829 3.13168,1.13474 7.89997,0.35265 10.14738,0.59123 -2.48381,2.16788 -1.81886,3.99067 0.47215,5.82971 -2.75744,0.023 -8.09118,-3.9497 -4.17411,0.56859 -3.43098,-0.98192 -8.57941,-3.68034 -13.15142,-2.69145 -5.19713,-0.55423 -12.64988,5.00017 -8.02584,10.21527 3.10806,3.80217 9.2441,3.96005 11.08972,-1.01454 0.2596,7.49058 8.41932,3.21959 11.61829,3.15628 -1.0621,1.88072 -2.92049,4.27746 0.60296,2.41379 l 0.58519,-0.21999 0.66146,-0.25184 z m 8.6879,-21.3208 c -0.18853,-5.05382 -3.54423,-9.04097 -6.96373,-12.40861 4.98112,2.96085 11.26021,1.58108 13.83042,-3.85165 2.81258,-3.63196 -1.54132,4.5795 -3.18654,5.42794 -2.65985,1.72654 -5.10949,1.99841 -2.77782,5.63488 0.75879,1.23848 -0.26589,11.55418 -0.90233,5.19744 z m -6.70352,-17.99737 c -7.33202,-2.60887 -11.20759,-9.99963 -14.60233,-16.47305 1.54934,-1.11026 -1.07595,-6.05056 1.2603,-6.44557 0.16854,6.28096 7.41213,5.12801 11.12766,2.67899 4.96292,-1.55817 12.17607,-1.64049 14.81048,3.80074 1.7486,1.42332 -0.0533,9.7408 -0.35774,7.31773 -0.43723,-3.83047 -2.05407,4.06126 -4.41765,4.40737 -2.43969,2.27986 -5.89208,2.18709 -9.01138,2.17817 2.87806,1.9133 8.62389,-0.29334 9.64569,-0.41738 -1.3905,3.42249 -9.32679,0.8338 -8.539,2.04245 1.8322,0.88282 3.65287,2.29214 0.084,0.91055 z m 5.01729,-5.57768 c 4.64601,-2.8468 4.77746,-10.79262 -0.5118,-13.00641 -3.91193,-1.33051 -10.11306,0.28041 -11.6286,4.38606 -1.31454,5.7464 4.77538,10.94245 10.30337,9.3488 0.64456,-0.14342 1.2816,-0.36396 1.83703,-0.72845 z m -5.92443,-5.08387 c -1.53635,-5.90896 6.33463,0.94062 0,0 z m 11.78314,-14.50971 c -6.09507,-5.10379 -14.74265,-4.0233 -21.91703,-2.37734 6.65227,-3.75424 16.05562,-3.96003 22.00411,1.29221 0.93157,0.95082 1.64672,3.01182 -0.0871,1.08513 z m -5.65329,-5.60458 c -5.35028,-1.36075 -11.05517,-1.54925 -16.46378,-0.45423 3.70424,-2.48429 9.81789,-1.87264 14.38848,-0.87924 1.0835,0.11852 5.45332,1.90365 2.0753,1.33347 z m -38.659358,69.13169 c -7.910774,-4.93038 -15.233714,-12.92271 -15.009184,-22.81919 -0.192886,-5.54815 -0.03989,-11.2142 -1.777758,-16.55456 1.02424,1.89239 3.933946,6.73238 4.64854,6.3322 -3.713857,-5.07614 -7.325596,-11.47196 -4.941966,-17.90141 1.07268,-3.92767 2.306251,-7.82205 3.955171,-11.54929 -1.168981,1.36551 -4.473056,5.30269 -2.168518,1.27527 1.14065,-2.01652 6.493543,-7.46065 1.886464,-3.62189 -2.000625,1.76122 -4.865769,7.88934 -3.498565,1.89968 0.718808,-8.63323 5.441506,-16.28687 11.331025,-22.4007958 C 14.675538,14.142271 8.921533,23.734781 9.674688,33.595361 c -0.210151,10.1449 0.19947,20.28456 0.847899,30.40289 0.105237,8.04058 -0.05426,17.30793 6.269321,23.30361 2.997988,2.87366 8.567109,7.06439 11.613578,7.06542 z m -1.781116,-11.7584 c 3.115397,-2.27688 -0.174832,-7.24392 -0.533026,-2.08946 -0.558214,1.13577 -1.167594,5.00936 0.533026,2.08946 z m -7.240067,-10.25235 c 0.234614,-2.19358 -0.403018,-6.65527 -0.746452,-1.7531 -0.525536,2.1351 0.971725,9.02747 0.745263,3.44809 l 0.0017,-0.81808 -4.73e-4,-0.87691 z M 7.337968,66.984061 c -1.772911,-4.13398 -6.113636,-8.10319 -3.626646,-12.90706 -0.0761,-3.50236 -2.230692,-12.3105 3.652443,-9.34555 -2.883246,-6.07185 -6.992703,1.50407 -5.076049,5.09238 0.870748,4.71902 -1.835227,9.71479 1.959129,13.80952 0.731742,0.96907 1.812116,3.78024 3.091123,3.35071 z m 74.603326,-1.04393 c 2.84924,-4.25422 4.8537,-9.28723 3.61028,-14.42002 1.30791,-3.22794 1.0259,-12.28531 -4.22947,-8.2904 -1.20142,2.3433 -0.5149,4.95973 2.09511,2.80032 3.30955,3.10911 -3.85692,5.60586 -0.55901,9.61162 1.25781,2.79629 -3.4333,7.4175 -1.25512,2.01275 -1.93694,-6.43428 -1.45453,3.19206 -1.49697,5.45819 0.19767,1.18527 -0.57984,5.86288 1.83518,2.82754 z M 28.138125,54.630281 c 2.398595,-0.85875 6.357909,-3.95283 1.477931,-2.01762 -5.290208,1.68265 -11.383474,-0.25089 -14.380127,-4.99492 -1.681469,-0.4476 2.243426,5.68767 4.524935,5.66138 1.642162,1.53105 7.174113,0.33391 7.270817,1.03017 -3.423412,1.2303 -1.252084,1.47286 1.106444,0.32099 z m 1.311564,-3.7506 c 5.136055,-1.49665 7.516285,-10.00632 2.028935,-12.44209 -4.258849,-3.02135 -11.827983,-2.17473 -12.943916,3.69789 -1.184769,4.81864 3.360543,10.14891 8.39128,9.1643 0.85162,-0.0516 1.709407,-0.15258 2.523701,-0.4201 z m -3.978115,-5.63253 c -1.078391,-6.08037 6.088294,1.46053 0,0 z"
     id="path30" /></svg>
