<?xml version="1.0" encoding="UTF-8" standalone="no"?>
<svg
   width="63.818436mm"
   height="123.77508mm"
   viewBox="0 0 63.818436 123.77508"
   version="1.1"
   xml:space="preserve"
   xmlns="http://www.w3.org/2000/svg"
   xmlns:svg="http://www.w3.org/2000/svg"><path
     style="fill:#000000"
     d="m 7.3679269,123.46725 c -1.208342,-0.54791 -2.18856,-1.86479 -3.574108,-4.80163 C 1.0679979,112.88789 -0.01103106,108.1469 8.4937167e-5,101.99687 0.00898494,97.075756 0.44923294,94.308916 1.9577259,89.693736 c 2.409753,-7.37254 6.257198,-13.42907 12.4377741,-19.57916 3.41812,-3.40126 8.255035,-7.54063 8.811346,-7.54063 0.323344,0 5.962285,3.86346 5.987955,4.10258 0.008,0.0736 -1.325086,1.20185 -2.962195,2.50721 -3.866124,3.0827 -9.962429,9.20786 -11.952713,12.00929 -2.121152,2.98564 -4.9478211,8.65207 -5.6921081,11.41058 -1.389436,5.14959 -1.693514,10.003874 -0.912818,14.572164 0.524476,3.06899 1.533065,5.89412 3.2371451,9.06745 1.508762,2.80961 1.781313,3.80292 1.378429,5.02367 -0.668046,2.0242 -3.0062051,3.06933 -4.9226141,2.20036 z m 45.9371391,-0.10569 c -1.3153,-0.67069 -1.95909,-1.68023 -1.95909,-3.07212 0,-0.92031 0.38285,-1.93908 1.76867,-4.70648 1.12561,-2.24778 2.02498,-4.4939 2.47364,-6.17776 0.63699,-2.39067 0.70584,-3.10512 0.71399,-7.40833 0.008,-4.470854 -0.0409,-4.956934 -0.80566,-7.937504 -2.63252,-10.25956 -9.03437,-18.34508 -22.054115,-27.85429 C 20.178061,56.517136 17.016362,53.961976 12.590857,49.353626 4.3748899,40.798186 0.37364294,31.515386 0.37059294,21.002886 0.36899294,15.648646 1.2858249,11.19559 3.4417699,6.085417 5.3029909,1.673821 6.8401459,0 9.0303199,0 c 1.7605281,0 3.5060261,1.77252 3.5133571,3.567747 0.0019,0.459 -0.728695,2.258751 -1.720103,4.237461 -2.0465731,4.084666 -2.9617851,7.355188 -3.2079021,11.463488 -0.490055,8.18023 2.4227091,16.16675 8.4601391,23.19692 3.503782,4.07991 7.991543,7.9016 16.30836,13.88785 7.525255,5.41651 8.360665,6.05804 12.367595,9.49739 7.66384,6.57826 12.34531,12.54389 15.5398,19.80246 3.3763,7.67167 4.41387,16.810684 2.74168,24.148764 -0.9347,4.10171 -3.64391,10.63675 -5.1533,12.43056 -1.29081,1.53404 -2.9685,1.94803 -4.57488,1.12892 z m -8.75006,-6.57841 c -1.96453,-0.20045 -9.286875,-0.97062 -16.27188,-1.71149 -6.984999,-0.74087 -13.391192,-1.4133 -14.235983,-1.4943 l -1.535983,-0.14727 -0.774407,-1.70791 c -0.855776,-1.88738 -0.760328,-2.57686 0.39693,-2.86731 0.349978,-0.0878 2.995682,0.0898 5.879342,0.39473 10.310469,1.09031 18.050646,1.87661 24.954481,2.53504 7.81383,0.74523 8.46667,0.84282 8.46667,1.26564 0,0.16265 -0.49749,1.16522 -1.10552,2.22793 -0.84035,1.46874 -1.237,1.92467 -1.65365,1.9008 -0.30147,-0.0173 -2.15547,-0.19541 -4.12,-0.39586 z m -7.540635,-15.85111 c -4.51114,-0.18038 -12.369265,-0.47724 -17.462494,-0.6597 -5.093229,-0.18246 -9.296383,-0.361454 -9.340343,-0.397774 -0.149907,-0.12384 0.279697,-4.04107 0.478456,-4.36267 0.154261,-0.2496 4.22869,-0.16827 18.420601,0.36767 10.022405,0.37849 19.621525,0.76201 21.331395,0.85228 l 3.10885,0.16412 v 0.99217 c 0,0.54569 0.0757,1.54456 0.16826,2.219724 l 0.16825,1.22755 -4.33544,-0.0377 c -2.38449,-0.0207 -8.02638,-0.18529 -12.537535,-0.36567 z M 13.443984,88.010786 c -0.203491,-0.53029 2.553061,-4.66721 3.19297,-4.79187 0.29352,-0.0572 1.605235,-0.2325 2.914923,-0.38959 1.309687,-0.15709 7.457446,-0.93905 13.661684,-1.73768 6.204245,-0.79864 11.388845,-1.45207 11.521335,-1.45207 0.13249,0 0.87242,0.9084 1.64428,2.01866 0.99593,1.43257 1.30953,2.07667 1.08013,2.21845 -0.17779,0.10988 -1.05282,0.27884 -1.94451,0.37545 -0.89169,0.0966 -2.81187,0.34342 -4.26708,0.54844 -1.45521,0.20502 -5.979585,0.79956 -10.054175,1.32119 -4.074581,0.52163 -9.542108,1.24106 -12.150057,1.59874 -5.54923,0.76107 -5.421385,0.75444 -5.5995,0.29028 z m 13.135118,-15.44882 c 0.0149,-0.18747 3.294719,-2.66594 4.765409,-3.60108 0.66942,-0.42565 0.71434,-0.40693 2.8537,1.18903 1.19546,0.89182 2.11826,1.6768 2.05066,1.7444 -0.14664,0.14664 -7.27365,0.85189 -8.693349,0.86025 -0.545703,0.003 -0.985092,-0.0834 -0.97642,-0.1926 z m 10.773579,-15.89667 c -1.56018,-1.11587 -2.81033,-2.16021 -2.77812,-2.32076 0.0322,-0.16056 1.60638,-1.52109 3.49815,-3.02339 4.841285,-3.84461 6.673925,-5.51217 9.030305,-8.21692 6.35497,-7.29449 9.40014,-15.205 9.00509,-23.39277 -0.23753,-4.92288 -1.07577,-7.871013 -3.60811,-12.689828 -1.49608,-2.846912 -1.62725,-3.876418 -0.6784,-5.324548 1.50565,-2.297913 4.48356,-2.195638 6.32392,0.217191 1.44768,1.898008 3.63971,7.42365 4.54111,11.447185 0.67378,3.00756 0.81728,10.35181 0.2666,13.64511 -1.37143,8.20172 -5.31069,15.58456 -12.04303,22.57063 -2.39791,2.48828 -10.10951,9.18443 -10.52446,9.13862 -0.108,-0.0119 -1.472875,-0.93466 -3.033055,-2.05052 z m -7.20688,-5.53101 c -0.46903,-0.0692 -1.376141,-0.66353 -2.261547,-1.48171 -0.813113,-0.75137 -2.208762,-1.95615 -3.101443,-2.67729 -1.591489,-1.28566 -1.823615,-1.73154 -0.901441,-1.73154 0.253993,0 2.896107,0.46479 5.871361,1.03288 2.97526,0.56808 5.91558,1.11433 6.53404,1.21388 0.61846,0.0996 1.12448,0.28679 1.12448,0.4161 0,0.1293 -0.8632,0.95047 -1.91823,1.82482 -1.81045,1.5004 -1.99256,1.58773 -3.24114,1.55409 -0.72761,-0.0196 -1.67534,-0.0877 -2.10608,-0.15123 z M 15.583127,37.544756 c -1.667623,-2.31922 -1.719024,-2.54955 -0.611808,-2.74163 1.675577,-0.29068 34.562927,-4.37604 35.227307,-4.37604 0.36772,0 0.85397,0.18538 1.08055,0.41196 0.37289,0.3729 0.33908,0.55481 -0.35658,1.91823 -0.4227,0.82844 -0.927,1.71365 -1.12067,1.96714 -0.36885,0.48276 0.0973,0.41563 -23.370883,3.36513 -4.656666,0.58525 -8.704791,1.11605 -8.995833,1.17956 -0.409176,0.0893 -0.829141,-0.30171 -1.852083,-1.72435 z m 19.579164,-12.68008 c -3.34698,-0.0996 -10.268251,-0.27349 -15.380607,-0.38649 l -9.295191,-0.20546 -0.12702,-2.28063 c -0.06986,-1.25435 -0.09737,-2.31686 -0.06113,-2.36113 0.07617,-0.093 43.053103,0.97752 43.132093,1.07443 0.0289,0.0354 -0.007,1.04666 -0.0798,2.24721 l -0.13233,2.18281 -5.98528,-0.0448 c -3.2919,-0.0247 -8.723708,-0.12632 -12.070688,-0.22589 z M 12.581984,13.477406 c -0.702519,-0.75406 -0.712138,-1.1974 -0.05904,-2.721014 C 13.1562,9.279066 12.339472,9.403676 24.975835,8.856428 30.287341,8.6264 36.954841,8.327678 39.792506,8.1926 c 2.83766,-0.135078 6.23094,-0.24673 7.54062,-0.248116 l 2.38125,-0.0025 0.87698,1.651423 c 0.89817,1.691347 0.92328,2.436219 0.0908,2.692109 -0.24122,0.0741 -4.36764,0.3174 -9.16983,0.54058 -4.802195,0.22318 -11.172035,0.51983 -14.155211,0.65923 -14.421072,0.67386 -14.139811,0.67401 -14.775101,-0.008 z" /></svg>
