<?xml version="1.0" encoding="UTF-8" standalone="no"?>
<svg
   width="102.14683mm"
   height="116.02767mm"
   viewBox="0 0 102.14683 116.02767"
   version="1.1"
   xml:space="preserve"
   xmlns="http://www.w3.org/2000/svg"
   xmlns:svg="http://www.w3.org/2000/svg"><path
     style="fill:#000000"
     d="M 52.78254,115.88234 C 45.062223,115.18932 36.738619,112.62781 29.722049,108.78568 18.705684,102.75334 9.3288988,92.384847 4.4249128,80.813047 1.1071228,72.984157 -0.19774815,65.706547 0.02396785,56.267807 0.21811985,48.002477 1.4294158,42.317497 4.6202838,34.695907 13.324117,13.906262 34.519843,0 57.5033,0 c 11.21093,0 22.45874,3.251943 30.99357,8.960794 3.28652,2.198318 3.44323,2.495361 0.82834,1.570022 C 85.03683,9.013282 78.07816,8.224527 73.19547,8.702532 56.7411,10.313378 42.489478,20.009153 35.315613,34.473257 c -3.911396,7.88623 -5.390501,16.58156 -4.387995,25.79602 1.650962,15.1747 11.544135,29.0092 25.856562,36.15752 5.1161,2.55523 9.51238,3.921373 15.42894,4.794523 4.27444,0.63081 11.05406,0.40103 15.47106,-0.52436 5.00409,-1.048403 11.01324,-3.352703 13.70442,-5.255173 l 0.75823,-0.53602 -0.30389,0.56782 c -0.56021,1.04677 -6.2132,6.533463 -8.71333,8.457023 -9.98175,7.67975 -21.24599,11.68149 -33.97617,12.0704 -2.07175,0.0633 -4.93865,0.01 -6.3709,-0.11867 z" /></svg>
