<svg xmlns="http://www.w3.org/2000/svg" xml:space="preserve" width="665.93" height="538.897" viewBox="0 0 176.194 142.583"><g fill-rule="evenodd"><path d="M27.66.725q3.748 1.825 18.479 10.626 2.909 1.094 3.96 4.478 1.05 3.383-.534 6.884l-.399.607-.036.19q-1.266 2.78-4.041 4.23-2.555 1.294-5.136.548l-1.017-.277-20.2-8.02q-3.285-1.16-5.072-6.42-1.852-4.881-.554-7.852 1.027-2.531 5.817-4.4Q23.528-.585 26.672.26l.985.464m-.204 6.651q.428 3.081-1.741 6.575-2.321 3.274-5.433 3.889-.598.087.114.988l1.33.72.469.082q3.333-.77 5.502-4.265 2.31-3.76 1.634-7.078.074-.955-1.321-1.298zM94.626 38.703 56.586 18.62q-.454-.177-.349-1.32l.464-.986 38.074 19.894q.435.271.33 1.417-.12 1.239-.479 1.078m-4.131 3.633L60.95 28.5q-.455-.176-.35-1.322l.449-.89L90.533 39.92q.36.16.35 1.323-.044 1.348-.388 1.094m6.935 10.141q-.122 1.237-.48 1.077L53.955 34.635q-.452-.18-.443-1.34l.481-1.079 43.198 18.862q.343.254.238 1.399M13.406 83.485q4.225-.446 21.712-.796 3.104-.624 5.841 1.732 2.734 2.357 3.253 6.238l-.015.741.076.18q.407 3.088-1.208 5.84-1.508 2.496-4.143 3.247l-1.03.31-21.79 3.977q-3.465.772-7.85-2.808-4.238-3.219-4.72-6.487-.478-2.743 2.65-6.945 2.95-4.13 6.125-5.097l1.101-.13m3.417 5.861q2.032 2.43 2.047 6.62-.239 4.084-2.596 6.296-.47.4.633.793l1.535-.096.45-.183q2.467-2.466 2.452-6.657-.032-4.497-2.41-7-.452-.867-1.843-.409l-.268.632M91.793 80.145 48.071 83.33q-.487.091-1.014-.955l-.13-1.101 43.65-3.366q.523-.002 1.05 1.044.565 1.134.168 1.192m-1.607 5.37L57.18 89.512q-.486.092-1.015-.954l-.092-1.012 32.845-4.14q.397-.056 1.014.954.69 1.189.257 1.155m11.47 5.018q.565 1.136.168 1.192L54.449 98.59q-.487.093-1.104-.917l-.168-1.191 47.522-7.029q.433.034.96 1.08M12.211 42.456q4.026.636 20.312 4.653 3.034.19 4.983 3.054 1.951 2.864 1.468 6.588l-.199.684.025.185q-.39 2.96-2.57 5.108-2.017 1.942-4.646 1.982l-1.03.032L9.377 63.02q-3.404-.147-6.576-4.553-3.127-4.034-2.763-7.182.237-2.661 4.181-5.777 3.755-3.093 6.94-3.203zm1.713 6.28q1.279 2.756.252 6.643-1.235 3.722-3.971 5.188-.535.254.391.892l1.447.292.462-.057q2.898-1.673 3.925-5.56 1.085-4.174-.494-7.084-.206-.916-1.608-.836zM85.67 58.82 44.37 50.918q-.475-.034-.705-1.134l.153-1.053 41.281 7.718q.487.128.716 1.227.24 1.193-.141 1.146m-2.824 4.578-31.575-4.49q-.475-.037-.705-1.136l.167-.96 31.46 4.316q.382.047.705 1.136.343 1.273-.048 1.134m9.381 7.498q.242 1.191-.141 1.146L46.492 66.64q-.476-.034-.796-1.122l.139-1.146 45.779 5.284q.39.14.62 1.241M21.16 121.131q4.14-1.271 21.565-5.02 2.984-1.23 6.18.595 3.195 1.827 4.469 5.609l.13.745.108.164q1.01 3.01-.072 6.076-1.023 2.793-3.513 4.057l-.97.51-21.026 8.216q-3.316 1.445-8.4-1.283-4.864-2.396-5.98-5.574-1.014-2.65 1.298-7.463 2.147-4.703 5.135-6.29zm4.558 5.199q2.506 2.037 3.335 6.227.555 4.131-1.375 6.802-.391.49.79.67l1.516-.395.417-.271q1.987-2.946 1.158-7.134-.91-4.494-3.772-6.537-.622-.777-1.924-.05l-.145.686M98.93 102.543l-43.12 11.69q-.47.186-1.203-.757l-.344-1.076 43.015-11.857q.525-.104 1.256.84.784 1.027.399 1.16m-.565 5.685-32.244 10.418q-.47.187-1.2-.756l-.289-.993 32.053-10.532q.385-.134 1.2.756.923 1.056.482 1.107m12.45 2.787q.787 1.028.401 1.161L65.156 128.26q-.467.185-1.283-.705l-.399-1.158 46.176-16.275q.44-.05 1.17.895M156.408 39.654q5.44 1.718 8.304 5.154.287.573 0 1.146 0 1.718-2.863 3.722-1.718 1.432-3.723 2.578-1.145.286-.859 2.29.286 1.719 1.432 1.719 8.59.572 12.027 5.154 2.29 2.863 1.431 6.872-4.009-2.29-8.59-2.004-1.146 0-1.146 1.718-.286 2.29 1.719 2.29l1.431.287q5.155.287 8.305 3.437 2.577 3.15 2.29 8.017-.572 5.155-3.15 9.45-2.863 5.44-7.445 4.295-1.718-5.727-6.586-9.45l-.573-.286-1.145.287v.572q-.573.573-.286 1.432 0 1.146.859 1.718 2.863 2.005 4.868 5.441 1.718 3.15.572 6.014-1.145 3.722-5.44 7.158-3.437 2.864-7.732 4.868-2.672 1.146-4.963 1.146-3.723-.286-6.3-4.01-2.005-3.149-2.291-7.444-.286-2.291-1.718-2.577h-.573l-.286.572q-.573.287-.287 1.146 0 2.863 1.146 5.727-3.436 2.29-7.445 2.29t-7.16-2.29q-2.576-1.146-4.294-3.723-1.719-2.863-1.432-5.44.286-.573 0-1.719l1.145-2.863 4.01-2.291q1.145-.286.572-2.005 0-1.718-1.432-1.718h-.286q-5.155 1.718-6.873 6.586-3.15-2.004-4.295-4.581-.573-2.291.573-4.582 1.431-3.436 6.013-3.723.86 0 1.145-1.145v-1.432q-.572-1.145-1.431-1.431-3.15-.573-3.15-4.01l.572-2.863q1.146-1.432 2.864-1.432.573 0 .86-1.145l-.287-1.432-.86-1.145q-3.722-2.578-3.15-5.441 0-2.291 3.437-4.01 4.295-2.29 10.595.86h1.432l.573-.86-.287-1.717-.572-1.146q-2.578-2.29-2.578-3.436.287-.859 2.578-.859 1.431 0 2.863 2.29 0 .86.86.86h.286l.859-.286q.286-.287.286-1.432l-.286-.86v-.572q-2.864-7.445.286-11.168 1.718-2.577 5.727-2.29 2.864.286 4.295 2.004-4.295 3.436-5.44 9.163-.573 1.146.286 2.577l.573.287h1.431v-1.146q1.146-3.436 3.723-6.3t6.3-3.722q3.818-.86 8.686.859m-8.4 21.19q-.286-2.29-1.718-2.577h-.286q-7.445 1.432-12.027 7.732-1.432-2.005-1.146-4.296.287-2.004 1.719-4.009.859-1.145 0-2.577-.287-1.145-1.146-1.145h-.573l-.572.286q-2.577 3.723-2.291 7.732-.286 4.009 2.004 6.872-3.436 7.159-2.577 14.89 1.432 8.591 7.732 13.173l.286.286h1.146v-.859l.572-1.432q-.286-1.145-.859-1.718-5.44-3.722-6.3-10.308-.572-6.587 3.15-12.027l.287-.287q.286-.286.286-.859 4.295-6.3 11.168-7.445 1.145 0 1.145-1.432"/></g></svg>