<svg xmlns="http://www.w3.org/2000/svg" xml:space="preserve" width="665.93" height="538.897" viewBox="0 0 176.194 142.583"><g fill-rule="evenodd"><path d="M-236.882-124.932q1.964.956 9.68 5.566 1.524.573 2.075 2.346.55 1.772-.28 3.606l-.209.318-.019.099q-.663 1.457-2.117 2.216-1.338.678-2.69.287l-.533-.145-10.581-4.201q-1.721-.608-2.657-3.363-.97-2.557-.29-4.113.538-1.326 3.047-2.305 2.41-.997 4.057-.554l.516.243m-.107 3.484q.224 1.614-.912 3.444-1.216 1.715-2.846 2.037-.313.046.06.518l.696.377.246.043q1.746-.403 2.882-2.234 1.21-1.97.856-3.708.039-.5-.692-.68z" transform="translate(479.874 239.224)scale(1.90903)"/><path d="m-201.803-105.038-19.926-10.52q-.238-.093-.183-.692l.243-.516 19.944 10.421q.228.142.173.742-.063.649-.251.565m-2.164 1.903-15.476-7.248q-.238-.092-.183-.692l.235-.466 15.444 7.14q.189.084.183.693-.023.706-.203.573m3.633 5.312q-.064.648-.252.564l-22.521-9.91q-.237-.094-.232-.702l.252-.565 22.628 9.88q.18.133.125.733" transform="translate(479.874 239.224)scale(1.90903)"/><path d="M-244.348-81.58q2.213-.234 11.373-.417 1.626-.327 3.06.907 1.432 1.235 1.704 3.268l-.008.388.04.094q.213 1.618-.633 3.059-.79 1.308-2.17 1.701l-.54.163-11.414 2.083q-1.815.404-4.112-1.471-2.22-1.686-2.472-3.398-.251-1.437 1.388-3.638 1.545-2.163 3.208-2.67l.577-.068m1.79 3.07q1.064 1.273 1.072 3.468-.125 2.139-1.36 3.298-.246.209.332.415l.804-.05.236-.096q1.292-1.292 1.284-3.487-.017-2.356-1.262-3.667-.237-.454-.966-.214l-.14.331" transform="translate(479.874 239.224)scale(1.90903)"/><path d="m-203.287-83.33-22.903 1.669q-.255.048-.531-.5l-.068-.577 22.865-1.763q.274-.001.55.547.296.594.088.624m-.842 2.813-17.29 2.094q-.255.048-.532-.5l-.048-.53 17.205-2.169q.208-.029.531.5.362.623.135.605m6.008 2.629q.296.595.088.624l-24.818 3.596q-.255.049-.578-.48l-.088-.624 24.893-3.682q.227.018.503.566" transform="translate(479.874 239.224)scale(1.90903)"/><path d="M-244.974-103.072q2.109.333 10.64 2.437 1.589.1 2.61 1.6 1.022 1.5.769 3.451l-.104.358.013.097q-.204 1.551-1.346 2.676-1.057 1.017-2.434 1.038l-.54.017-11.092-.903q-1.783-.077-3.445-2.385-1.638-2.113-1.447-3.762.124-1.394 2.19-3.026 1.967-1.62 3.635-1.678zm.897 3.289q.67 1.444.132 3.48-.647 1.95-2.08 2.718-.28.133.205.467l.758.153.242-.03q1.518-.876 2.056-2.912.568-2.187-.259-3.711-.108-.48-.842-.438z" transform="translate(479.874 239.224)scale(1.90903)"/><path d="m-206.494-94.5-21.635-4.14q-.249-.018-.369-.594l.08-.552 21.624 4.043q.255.067.375.643.126.625-.074.6m-1.479 2.398-16.54-2.352q-.249-.019-.369-.595l.087-.503 16.48 2.261q.2.025.369.595.18.667-.025.594m4.914 3.928q.127.624-.074.6l-23.887-2.83q-.249-.018-.417-.588l.073-.6 23.98 2.768q.205.073.325.65" transform="translate(479.874 239.224)scale(1.90903)"/><path d="M-240.286-61.86q2.168-.666 11.296-2.63 1.563-.644 3.237.312 1.674.957 2.341 2.938l.068.39.057.086q.529 1.577-.038 3.183-.536 1.463-1.84 2.125l-.508.267-11.014 4.304q-1.737.757-4.4-.672-2.548-1.255-3.133-2.92-.531-1.388.68-3.909 1.125-2.464 2.69-3.295zm2.387 2.723q1.313 1.067 1.747 3.262.291 2.164-.72 3.563-.205.257.414.351l.794-.207.218-.142q1.041-1.543.607-3.737-.477-2.354-1.976-3.424-.326-.407-1.008-.026l-.076.359" transform="translate(479.874 239.224)scale(1.90903)"/><path d="m-199.548-71.597-22.588 6.123q-.246.098-.63-.396l-.18-.564 22.532-6.211q.275-.054.658.44.411.538.209.608m-.296 2.978-16.89 5.457q-.246.098-.629-.396l-.151-.52 16.79-5.517q.202-.07.629.396.483.553.252.58m6.522 1.46q.412.538.21.608l-24.13 8.425q-.245.097-.672-.369l-.209-.607 24.188-8.525q.23-.026.613.469" transform="translate(479.874 239.224)scale(1.90903)"/><path d="M-169.44-104.54q2.85.9 4.35 2.7.15.3 0 .6 0 .9-1.5 1.95-.9.75-1.95 1.35-.6.15-.45 1.2.15.9.75.9 4.5.3 6.3 2.7 1.2 1.5.75 3.6-2.1-1.2-4.5-1.05-.6 0-.6.9-.15 1.2.9 1.2l.75.15q2.7.15 4.35 1.8 1.35 1.65 1.2 4.2-.3 2.7-1.65 4.95-1.5 2.85-3.9 2.25-.9-3-3.45-4.95l-.3-.15-.6.15v.3q-.3.3-.15.75 0 .6.45.9 1.5 1.05 2.55 2.85.9 1.65.3 3.15-.6 1.95-2.85 3.75-1.8 1.5-4.05 2.55-1.4.6-2.6.6-1.95-.15-3.3-2.1-1.05-1.65-1.2-3.9-.15-1.2-.9-1.35h-.3l-.15.3q-.3.15-.15.6 0 1.5.6 3-1.8 1.2-3.9 1.2t-3.75-1.2q-1.35-.6-2.25-1.95-.9-1.5-.75-2.85.15-.3 0-.9l.6-1.5 2.1-1.2q.6-.15.3-1.05 0-.9-.75-.9h-.15q-2.7.9-3.6 3.45-1.65-1.05-2.25-2.4-.3-1.2.3-2.4.75-1.8 3.15-1.95.45 0 .6-.6v-.75q-.3-.6-.75-.75-1.65-.3-1.65-2.1l.3-1.5q.6-.75 1.5-.75.3 0 .45-.6l-.15-.75-.45-.6q-1.95-1.35-1.65-2.85 0-1.2 1.8-2.1 2.25-1.2 5.55.45h.75l.3-.45-.15-.9-.3-.6q-1.35-1.2-1.35-1.8.15-.45 1.35-.45.75 0 1.5 1.2 0 .45.45.45h.15l.45-.15q.15-.15.15-.75l-.15-.45v-.3q-1.5-3.9.15-5.85.9-1.35 3-1.2 1.5.15 2.25 1.05-2.25 1.8-2.85 4.8-.3.6.15 1.35l.3.15h.75v-.6q.6-1.8 1.95-3.3t3.3-1.95q2-.45 4.55.45m-4.4 11.1q-.15-1.2-.9-1.35h-.15q-3.9.75-6.3 4.05-.75-1.05-.6-2.25.15-1.05.9-2.1.45-.6 0-1.35-.15-.6-.6-.6h-.3l-.3.15q-1.35 1.95-1.2 4.05-.15 2.1 1.05 3.6-1.8 3.75-1.35 7.8.75 4.5 4.05 6.9l.15.15h.6v-.45l.3-.75q-.15-.6-.45-.9-2.85-1.95-3.3-5.4-.3-3.45 1.65-6.3l.15-.15q.15-.15.15-.45 2.25-3.3 5.85-3.9.6 0 .6-.75" transform="translate(479.874 239.224)scale(1.90903)"/></g></svg>