<?xml version="1.0" encoding="UTF-8" standalone="no"?>
<svg
   width="110.80774mm"
   height="111.05691mm"
   viewBox="0 0 110.80774 111.05691"
   version="1.1"
   xml:space="preserve"
   xmlns="http://www.w3.org/2000/svg"
   xmlns:svg="http://www.w3.org/2000/svg"><path
     style="fill:#000000"
     d="m 41.985512,108.52829 c -3.278506,-6.51114 -6.597355,-13.001857 -9.90314,-19.499167 2.698542,-3.58702 9.791242,-7.62198 11.193687,-1.01012 3.178694,6.07707 6.941518,12.102137 9.871558,18.142347 -4.060773,-3.54422 -6.023949,-9.634267 -8.958541,-14.331707 -0.747632,-2.61261 -5.81843,-8.81579 -2.340497,-2.68951 3.034388,5.77427 6.567556,11.299437 9.353174,17.191217 -4.485702,-1.00545 -7.366718,9.33255 -9.216241,2.19694 z m 38.703595,1.46115 c 4.87843,-6.39285 10.34786,-12.380697 15.68166,-18.415727 0.3724,1.21172 -6.20023,7.46655 -8.29168,10.290787 -2.5178,2.63015 -4.62457,5.83582 -7.38998,8.12494 z M 17.928192,99.795873 c -1.751624,-3.88389 -8.2016468,-7.91895 -6.940178,-11.9088 2.399427,3.49663 8.054642,11.13207 9.130417,11.61122 -2.437118,-4.34773 -7.728245,-8.47704 -8.461487,-12.95779 2.673532,-2.3135 7.09176,-6.29545 8.739689,-0.69269 4.244818,5.46357 8.696246,10.77294 12.755214,16.377247 -4.254341,-2.328167 -7.309393,-8.844037 -11.384789,-12.497807 1.219177,2.55085 6.197077,8.73391 9.021534,12.252597 0.430509,1.5946 -5.095797,6.55913 -5.858171,7.12301 z m 61.070835,6.609427 c -0.38181,-2.8639 -7.52495,-3.42448 -4.75472,-5.79131 5.26159,-5.710757 10.42866,-11.511317 15.81096,-17.108767 3.98478,1.33601 8.81712,5.58707 3.35543,8.7299 -4.59601,4.96972 -8.90262,10.233767 -13.66225,15.034587 z m -23.05042,-1.97806 c -3.0495,-7.271997 -6.254468,-14.494177 -9.080694,-21.850827 1.716116,-2.86405 6.710164,-4.56129 9.729464,-3.57851 3.08373,7.26449 6.9368,14.28537 9.69214,21.631727 -3.11916,-4.017537 -4.71897,-9.376287 -7.08415,-13.983677 -0.76665,-2.7666 -5.70635,-10.99789 -2.65907,-3.82185 2.51592,5.76313 5.1812,11.46327 7.5618,17.284137 -2.88184,0.80825 -6.64029,2.95816 -8.15949,4.319 z m 17.52392,-8.907967 c 3.04329,-6.67013 6.51129,-13.29939 10.48176,-19.43723 -0.62484,4.30065 -4.54451,8.76894 -6.41202,13.13694 -1.32156,1.7503 -2.41337,5.95637 -4.06974,6.30029 z m -2.61756,-3.07749 c -2.4635,-1.99967 -7.71603,-1.68427 -3.81393,-5.83866 2.86022,-5.05514 5.59064,-10.19587 8.61415,-15.15063 2.16356,0.0968 8.76011,1.86332 6.13938,4.92917 -3.06406,5.7736 -6.32775,11.44082 -9.56348,17.11775 l -0.42619,-0.31652 z m 27.27013,-4.14868 c -0.23558,-3.43159 -8.02375,-5.29299 -6.27346,-7.12526 4.26675,-2.57711 9.454563,5.64162 7.49399,6.51696 -0.0451,-3.00286 -3.66833,-3.42804 -0.9702,-0.17151 0.64999,0.83144 0.45777,2.93511 -0.25033,0.77981 z M 8.2607082,86.860653 c -2.221212,-4.73111 6.2571478,-9.28558 8.1562438,-5.7803 -3.489729,0.0791 -6.127004,5.77213 -8.1562438,5.7803 z m 22.6507048,-0.44076 c -1.282254,-5.18332 8.47504,-7.52914 9.13104,-4.27767 -2.406599,-0.87827 -3.566739,0.48762 -0.672898,0.30594 -3.312027,0.57847 -6.027584,2.62401 -8.282161,5.01351 z m 69.709817,-1.96869 c 1.90503,-3.0361 5.92667,-7.39381 5.93304,-10.06918 -3.04238,2.81393 -6.48076,9.63918 -10.801693,5.27783 1.15387,-3.41778 7.877853,-6.44554 11.917853,-7.86115 -0.0822,3.77239 -3.0755,8.49492 -5.67274,11.85875 -0.1054,-0.0106 -1.2762,1.82037 -1.37646,0.79375 z M 5.6789942,81.011623 c -1.783816,-3.44228 -4.74590197,-7.97287 -4.072301,-11.57552 3.677988,1.63965 10.6001198,5.57703 10.0477598,9.00876 -2.6779048,-0.11701 -4.5257788,6.71678 -5.9754588,2.56676 z M 29.44845,80.886803 c -0.753305,-3.10023 -4.119792,-11.57629 -0.976942,-11.86544 2.560704,2.91849 11.881464,9.61715 4.150841,11.3599 -1.324008,0.60159 -2.650704,3.62265 -3.173899,0.50554 z m 16.320584,-0.24462 c -2.73278,-6.14826 11.114653,-7.34919 8.527813,-3.93549 -1.22401,-1.03696 -4.148164,-0.67166 -1.45137,0.13249 -2.65272,0.75478 -4.895409,2.21268 -7.076443,3.803 z m -0.935638,-5.58368 c -1.347663,-4.02881 -2.443889,-9.73396 -0.908176,-13.33138 2.567297,2.85099 12.286557,11.13153 4.369117,11.93818 -1.115525,-0.27614 -2.983354,3.60003 -3.460941,1.3932 z m 40.254701,-1.28185 c -1.92682,-4.30328 -1.46374,-0.93922 -1.09285,-0.28857 -1.37457,-2.68242 -11.36238,-3.9318 -4.46405,-5.61915 3.52263,-1.36974 8.25717,6.79579 5.5569,5.90772 z m -18.74428,-0.18322 c 2.60319,-4.60986 7.2254,-8.34541 10.68673,-12.52583 2.33192,-4.40218 -4.0482,3.24513 -5.71422,4.60538 -2.94551,2.58874 -5.99089,8.78214 -9.04337,2.87174 -6.15711,-1.67346 0.43172,-4.69142 2.36408,-7.56771 3.16074,-3.39716 6.31644,-6.79903 9.47951,-10.19403 3.01588,1.35176 5.75479,3.60314 6.97364,6.75009 -4.8342,5.4436 -9.49615,11.21333 -14.61673,16.26586 z m -50.125302,-1.46601 c -3.331359,-1.31121 -8.5698488,0.6745 -5.512118,-4.51714 1.624062,-5.69132 3.243382,-11.384 4.864768,-17.07608 5.689831,-1.89416 10.132589,2.16386 6.469909,7.54584 -1.649033,4.64137 -2.204718,10.93678 -4.74156,14.47874 l -1.080999,-0.43131 z m 18.905678,-1.213 c 1.305007,-3.67094 2.352527,-9.71001 4.075228,-12.05095 -0.713345,3.40848 -3.1761,11.9366 -4.075228,12.05095 z m -3.457138,-2.9158 c -1.685849,-3.45922 -7.377626,-0.5947 -3.988882,-5.46966 0.778407,-4.84396 3.582274,-9.14508 8.654631,-5.64561 4.272119,2.60329 -2.006229,9.24709 -2.371908,13.33517 -0.819515,-0.68159 -1.542185,-1.46725 -2.293841,-2.2199 z m 65.844682,-0.968 c -2.42113,-0.84798 -5.82263,-6.89399 -1.18184,-3.07203 -2.24402,-1.27648 -2.26844,-3.34222 -1.90813,-5.6418 1.95611,-5.05938 -3.6109,-4.41019 -6.61331,-3.92002 1.03324,-4.4071 3.91626,-3.83562 6.19204,-0.79757 4.22007,3.48874 8.540163,6.85686 12.699973,10.41809 -2.89122,1.79059 -4.36504,8.80221 -7.701863,4.24294 l -0.72356,-0.59383 z m -12.02989,2.03586 c -1.98786,-2.42899 -7.93753,-2.13666 -3.25277,-5.72589 1.95559,-2.82246 10.68814,-10.38821 7.58567,-2.2129 -0.88667,1.74163 -1.81478,9.86259 -4.3329,7.93879 z m 19.337623,-7.90938 c -4.5482,-3.64942 -9.138333,-7.25631 -13.634423,-10.96513 4.3919,0.73416 8.76914,6.54181 13.083993,9.3084 1.89865,1.09204 6.53957,6.12741 1.75567,2.60331 l -0.5844,-0.45699 z m -54.203898,-6.86839 c -2.56526,-5.45843 -5.110044,-10.92964 -7.629822,-16.40725 1.639945,-3.78549 10.009247,-7.98102 10.644267,-1.12985 3.21257,6.54189 6.51833,13.03815 9.68433,19.60277 -3.78919,-4.77905 -6.16006,-11.81693 -9.36038,-17.47192 -0.7493,-2.46339 -5.260789,-8.79811 -2.39982,-2.53894 3.29148,6.7686 6.3372,13.66395 9.89079,20.30143 -3.94629,-0.25789 -7.59021,7.86729 -8.97985,1.51911 -0.62481,-1.2878 -1.240095,-2.58021 -1.849515,-3.87535 z m -10.797225,1.84275 c -1.997739,-3.29204 -3.179014,-1.58932 -0.493034,0.31751 -2.138991,-2.23272 -8.378838,-1.33533 -8.014983,-3.69218 3.112413,-3.22372 10.059915,1.0945 8.742309,4.03133 -0.0781,-0.21888 -0.156195,-0.43777 -0.234292,-0.65666 z m 42.19225,-0.98109 c -0.62867,-3.34413 -11.02384,-6.20877 -3.51154,-6.62442 3.02898,-1.05513 6.89374,8.82674 3.51154,6.62442 z m -42.219819,-3.01514 c -2.296866,-2.59674 -9.074463,-0.68401 -5.140936,-5.40454 1.292924,-2.67467 7.240551,-11.91222 6.671707,-4.12087 -0.12097,2.81132 0.295285,8.08635 -1.530771,9.52541 z M 8.1990562,51.159603 c 3.0250388,-6.79374 7.6921688,-12.8064 11.4374098,-19.24744 1.166569,-3.48255 4.036456,-3.62502 1.362078,-0.006 -4.168672,6.59262 -8.111242,13.33766 -12.4726878,19.80264 z m 16.6184168,-0.64856 c -2.020539,-2.685 -12.324018,-0.8152 -6.518071,-4.34327 2.539696,-2.21121 10.905362,3.94131 6.518071,4.34327 z m 58.804474,0.0735 c -2.45152,-2.64266 -6.71163,-3.42211 -2.05795,-6.04958 2.14897,-2.33236 11.16564,-7.79189 7.27553,-0.88043 -1.16299,1.9981 -3.00326,7.74553 -5.21758,6.93001 z m 18.229383,0 c -3.514823,-6.25168 -7.604833,-12.23356 -10.707423,-18.68706 1.86734,-4.60314 9.658193,-6.94526 10.876153,-0.39697 2.83104,4.81537 6.37417,9.42206 8.78768,14.34455 -4.36842,-3.56442 -6.68189,-10.254 -10.27955,-14.94932 -1.333813,-2.63265 -3.465923,-4.15488 -0.977353,-0.26856 2.984483,5.18142 6.291823,10.17121 9.271843,15.35351 -2.71937,0.28348 -5.23726,5.34832 -6.97135,4.60385 z M 6.5445792,48.516103 c -1.223849,-2.93038 -9.136836,-1.47282 -5.67546797,-4.89352 4.32083097,-6.73422 8.62870297,-13.4768 12.97846977,-20.19239 4.896647,0.76564 9.532027,4.71337 4.277486,8.87284 -3.617395,5.63258 -6.981016,11.4328 -10.6537268,17.02474 z m 18.3891358,-2.51496 c -2.028814,-2.58026 -8.8153,0.0575 -5.361118,-4.97414 0.929072,-2.70163 6.404332,-13.10457 6.584234,-5.03806 -0.136845,2.59072 1.282903,9.45523 -1.223116,10.0122 z m 7.448577,-6.48641 c -4.532687,-5.14906 7.712887,-10.35753 7.663624,-4.37925 -3.076535,-1.67636 -3.696545,5.53661 -6.605291,7.84229 -0.531021,-1.09365 -0.757772,-2.29485 -1.058333,-3.46304 z m 37.686935,3.11878 c -1.87422,-7.58799 -3.75867,-15.17544 -5.46206,-22.804 2.92386,-2.68803 10.11829,-4.60951 9.30011,1.63601 1.43244,6.01309 2.72592,12.05832 4.15336,18.07267 -3.01777,-0.21911 -5.642,1.67794 -7.99141,3.09532 z m -11.18864,-2.35891 c -2.89713,-6.42045 -6.84118,-12.28056 -10.588364,-18.19405 3.704874,-4.66549 10.206494,-4.55494 11.280134,2.12771 1.45403,4.00239 6.62506,10.60699 5.82822,13.2227 -3.61655,-5.11981 -5.68321,-11.23687 -9.36126,-16.32952 2.31171,5.68933 5.48689,11.07757 8.0136,16.707 -1.77911,0.5412 -3.58359,2.2071 -5.17233,2.46616 z m 19.94249,-4.88599 c -1.60907,-5.97109 -3.2843,-11.93302 -4.83291,-17.91522 2.01923,3.62272 2.76694,9.77282 4.30505,14.31802 0.88164,2.71392 2.78152,11.34743 0.78916,4.53605 l -0.26127,-0.93885 z m -37.192131,-0.58291 c -1.34681,-5.38132 9.207995,-6.62793 8.734376,-3.79879 -1.523281,-0.60332 -4.618199,-0.28309 -1.509053,0.061 -2.412494,0.1243 -5.884751,5.10562 -7.225323,3.73777 z m -11.124932,-1.98313 c -0.104598,-3.93884 8.208485,-5.5437 8.248924,-2.41768 -2.905025,-0.99964 -0.782019,1.01212 -4.794497,1.32549 -0.847571,-0.22533 -3.592358,3.23717 -3.454427,1.09219 z m 10.229398,-3.0438 c -0.939008,-3.21358 -3.608296,-11.08422 -0.513969,-11.82303 2.803527,2.65472 11.051171,10.06263 3.035747,10.99554 -1.114972,0.0907 -2.08257,3.32823 -2.521778,0.82749 z m 48.691305,0.32943 c -2.16065,-4.87384 8.04689,-8.87739 8.31913,-4.60475 -2.20796,-0.95961 -4.42474,0.19748 -1.22629,0.0406 -2.81008,0.81842 -4.82655,2.89034 -7.09284,4.56411 z m -58.91928,-1.2819 c -1.188199,-2.83854 -2.626321,-14.83333 2.646898,-9.59448 0.997705,1.94354 6.400155,8.052 2.536707,8.18564 -1.809706,-1.19473 -4.758342,3.32231 -5.183605,1.40884 z m -8.077663,-2.06995 c -1.26462,-3.23565 -11.887297,-5.42743 -3.847219,-6.25837 3.148718,-1.01282 8.351453,8.59968 3.847219,6.25837 z m 65.132803,-2.83336 c -1.11646,-3.2799 -3.80646,-8.36179 -2.09939,-11.19449 3.29336,2.15422 8.40666,6.02659 8.8426,9.34223 -3.1777,-1.03573 -5.7914,6.82038 -6.74321,1.85226 z m -63.456424,-1.58421 c -1.780868,-2.81296 -8.200442,-3.02953 -3.15118,-6.45349 1.986661,-2.49128 10.638422,-9.3279497 7.665425,-1.8654 -0.7147,1.97323 -2.873867,9.64505 -4.514245,8.31889 z M 46.8133,20.567703 c -2.016298,-5.06889 8.806247,-7.77648 8.497397,-3.90565 -1.63174,-0.61516 -3.60268,-0.49294 -2.18281,0.23 -2.351607,0.79363 -4.28169,2.36428 -6.314587,3.67565 z m 17.030217,-3.56726 c -0.10914,-4.84517 10.3126,-5.32185 9.40379,-1.4869 -2.62618,-2.20459 -9.83367,4.33217 -9.40379,1.4869 z m -18.476196,-2.79074 c -1.160502,-3.32814 -3.008478,-8.8590097 -1.573916,-11.5531297 3.321023,2.46297 7.864912,6.79358 8.233262,10.4232797 -2.920089,-0.95892 -6.146087,5.97352 -6.659346,1.12985 z m 18.471216,-1.87338 c -0.55375,-2.9590397 -1.25401,-12.73758273 1.54226,-12.32356373 2.58544,3.35032403 4.80998,7.07937403 5.84253,11.21501373 -2.53641,-1.3241297 -6.68873,3.25388 -7.38479,1.10855 z" /></svg>
