<svg xmlns="http://www.w3.org/2000/svg" xml:space="preserve" width="415.281" height="450.852" viewBox="0 0 109.877 119.288"><path d="M90.84 147.912c-.27-.333-2.557-1.232-2.842-1.554-.029-.013 2.97-3.323 2.938-3.324-10.768-1.696-24.32-.874-38.963-1.467-4.632-.189-.73 5.51 3.111 7.745 3.878 2.257 7.08 10.718 13.922 12.022 3.398.647 17.056-.122 25.524.647.066-.173-.11-3.184-.108-3.65-.223-.23-4.319-1.687-4.527-1.928.679-1.813 1.599-1.903 2.798-3.378.02-.03-4.72-.842-4.72-.862 0-.08 3.636-1.31 3.608-1.378zM159.558 225.336c.618-2.678-.308-4.295-2.889-5.046-3.335-.971-6.517 2.058-5.68 5.41 1.06 4.247 7.568 3.971 8.569-.364m-5.274-7.007-.498-.52c-1.36-1.42-4.462.464-3.504 2.13l.435.758 1.784-1.184zm-2.26-2.764c.018-.042.004-.083-.002-.112-.35-.696-.829-.592-2.365.518-1.524 1.1-1.822 1.515-1.393 1.94.371.368 3.565-1.684 3.76-2.345zm-.877-1.48-.42-.673-.42-.672-1.855 1.422c-2.795 2.145-2.252 3.013.722 1.156zm-1.279-2.153c.03-.21-.162-.357-.564-.451-.611-.14-3.949 2.418-3.728 2.858.153.303.676.12 2.317-.812 1.278-.725 1.93-1.246 1.976-1.596zm-1.061-1.214-.415-.714c-.501-.86-.516-.856-2.572.708-1.765 1.341-1.844 1.444-1.502 1.991.169.271.763.066 2.357-.812zm3.323-16.68c.171-.9-.165-1.923-.984-2.342-2.061-1.055-4.252.94-3.084 2.811.629 1.006 2.272 1.448 3.208.864.472-.297.758-.792.86-1.333zm-4.94 14.176a.2.2 0 0 0-.022-.142c-.335-.535-.435-.501-2.263.764-1.938 1.343-2.272 1.738-1.83 2.176.5.494 4.007-1.97 4.119-2.798zm3.088-14.43c-.066.284-.22.493-.345.464-.339-.078-.673-.857-.432-1.008.434-.271.891.05.777.544zm-4.18 13.158c.137-.208-.423-1.196-.698-1.23-.935-.117-4.074 2.924-3.555 3.443.405.405 3.622-1.27 4.253-2.214zm2.23-10.281c.103-.305-.014-.532-.274-.74l-.774-.614-1.11.741c-.61.408-1.75 1.266-2.534 1.906-1.37 1.119-4.382 3.258-8.774 6.227l-2.069 1.4.614.788.613.788 1.471-1.095c.81-.602 2.714-1.908 4.234-2.901 6.054-3.96 8.3-5.584 8.603-6.5zm-3.21 8.416-.441-.66-.442-.66-1.874 1.514c-1.842 1.49-2.234 2.006-1.828 2.408.111.112 1.19-.43 2.395-1.2zm-1.313-2.255c.103-.393-.936-.044-2.645 1.18-1.885 1.347-2.23 1.826-1.443 2.007.195.05.558-.096.803-.315a41 41 0 0 1 1.762-1.387c.987-.744 1.46-1.248 1.523-1.484zm-1.647-7.305.004.027q.002-.004.02-.007-.008-.004-.01-.01zm-1.935 2.89c-.174-.278-4.282 2.147-4.175 2.464.057.168 1.031-.278 2.189-1.001 1.147-.716 2.041-1.376 1.986-1.463zm-5.198 20.228c.002-.015-.008.017-.037-.024l-.001.013c.004-.01.032.022.052.025zm4.562-21.37q.016-.076-.034-.124c-.572-.686-.567-.689-2.543.687-1.812 1.263-2.222 1.79-1.675 2.158.58.39 4.171-1.983 4.25-2.721zm-1.394-1.904c.061-.33-.062-.58-.443-.667-.764-.176-3.954 2.475-3.65 3.034.166.302.394.539.508.524 1.554-.202 3.402-1.905 3.585-2.89zm-1.057-1.513c.048-.163-.064-.318-.229-.581-.336-.536-.438-.5-2.378.834-2.955 2.033-2.533 2.968.53 1.174 1.472-.862 1.998-1.157 2.078-1.428zm-4.577 15.008c.505-1.753-1.983-3.542-4.064-2.422-.749.402-1.27 1.154-1.449 1.907-.02.091-.033.185-.047.278-.048.42.007.828.213 1.16 1.054 1.687 3.423 1.6 4.938-.182.204-.24.337-.49.41-.74zm7.816-35.604c.055-.935-2.702.687-8.212 4.858a669 669 0 0 1-9.475 6.997c-9.753 7.064-10.332 7.629-9.807 9.566.353 1.306 1.438 1.032 4.669-1.181 13.555-9.282 15.192-10.597 19.674-15.795 2.071-2.402 3.117-3.884 3.15-4.445zm-4.325 18.462c0-.262-.246-.457-.741-.57-.77-.178-3.984 2.442-3.675 2.997.288.516.43.477 2.434-.642 1.31-.73 1.984-1.35 1.981-1.785zm-1.137-1.175c.045-.111.01-.275-.088-.552-.328-.954-.653-.891-2.626.506-1.992 1.412-1.986 1.402-1.654 1.934.18.286.606.156 1.827-.56.876-.514 1.835-1.004 2.132-1.09.236-.069.364-.127.408-.239zm-4.577 18.464c-.183.792-1.01 1.077-1.45.499-.432-.565-.175-1.659.416-1.74.655-.092 1.193.554 1.034 1.241zm3.285-20.754c.015-.042-.002-.08-.01-.109-.4-.64-.857-.496-2.663.846-1.462 1.085-1.864 1.67-1.246 1.812.679.157 3.775-1.91 3.92-2.55zm-.82-1.216c.012-.092-.068-.242-.22-.493-.351-.576-.41-.557-2.267.704-1.876 1.273-2.278 1.752-1.838 2.187.123.122.63-.09 1.125-.47 1.388-1.066 2.466-1.721 2.925-1.778.176-.021.267-.056.274-.151zm-1.09-1.542c-.137-.223-.173-.201-2.197 1.311-2.177 1.627-1.943 1.764.358.207 1.078-.728 1.906-1.412 1.84-1.519zm2.195-10.341c-.463-.748-3.99-4.905-7.075-9.648-2.522-3.875-6.623-8.924-8.51-12.083-.122.72-1.014.968-1.182 1.68-.161.483.723 2.336.244 2.561-.264.124-1.976-.21-2.255-.162-.413.049-.896 2.77-1.31 2.75.014.119-2.67-.77-2.684-.65-.036.334-.74.612-.763.944-.041.517-.049 1.035-.076 1.552-.014.272-.025.565-.102.83-.04.14-3.145.23-3.2.367-.08.117.873 1.675.778 1.781-.35.388-1.11.581-1.58.782-.04.017-3.216 1.132-3.254 1.148 6.452 8.601 9.412 13.52 13.785 20.148l7.434-5.22c1.081-.752 2.644-1.749 3.072-2.143zm-19.659 45.296c-.02-.03-.052-.05-.074-.08.01.004-.021.035-.022.057.03.017.067.012.098.026z" style="display:inline;fill:#000" transform="translate(-49.866 -109.453)"/><path d="M94.696 135.915c.202-.03 2.084-1.677 2.128-2.79.087-2.183-1.41-6.898-1.51-7.186-1.158-3.36-2.677-3.077-4.244-6.227M121.387 150.906c3.067-1.655 4.284-5.433 7.564-6.762 1.75-.709 5.387-1.935 7.226-2.365 2.408-.563 4.794.18 7.259 1.277M104.045 138.742c1.932-4.371.436-9.704 1.983-14.211.832-2.428 3.183-6.529 4.11-8.921 1.137-2.934 3.386-4.093 5.905-6.157" style="fill:#000;stroke-width:.529431" transform="translate(-49.866 -109.453)"/><path d="M111.224 143.03c1.312.02 2.645-.544 3.836-1.03 3.364-1.373 4.052-1.784 7.67-4.022.78-.482 1.489-1.072 2.245-1.59 3.692-2.53 10.298-6.254 11.506-10.758.218-.812.094-2.072.094-2.993" style="fill:#000;stroke-width:.264583" transform="translate(-49.866 -109.453)"/></svg>