<?xml version="1.0" encoding="UTF-8" standalone="no"?>
<svg
   width="68.805916mm"
   height="125.81869mm"
   viewBox="0 0 68.805916 125.81869"
   version="1.1"
   xml:space="preserve"
   xmlns="http://www.w3.org/2000/svg"
   xmlns:svg="http://www.w3.org/2000/svg"><path
     style="fill:#000000"
     d="m 29.607608,125.49003 c -3.99688,-0.56985 -9.52911,-3.01611 -12.89523,-5.70205 -2.325659,-1.85572 -4.498626,-4.25896 -3.992756,-4.41587 0.19334,-0.06 1.452856,-0.43578 2.798926,-0.83513 2.30877,-0.68497 2.44739,-0.76685 2.44739,-1.44556 0,-0.60983 0.19899,-0.80506 1.30582,-1.28121 0.7182,-0.30896 1.51057,-0.56175 1.76081,-0.56175 0.41652,0 0.44034,-0.30558 0.28168,-3.61371 -0.0953,-1.98754 -0.17331,-4.29332 -0.17331,-5.12397 v -1.51026 l -2.57968,-0.82556 c -3.326397,-1.064506 -5.289265,-2.190206 -5.749478,-3.297296 -0.395274,-0.95087 -1.946149,-12.04879 -2.180521,-15.60361 -0.143626,-2.17843 -0.201235,-2.35957 -0.9112269,-2.86513 -0.416849,-0.29682 -0.937762,-0.88748 -1.157585,-1.31257 -0.336999,-0.65168 -0.559892,-0.77289 -1.421314,-0.77289 -1.328354,0 -3.243026,-1.27151 -4.571193,-3.03567 -2.04243095,-2.71289 -3.02860495,-7.24069 -2.36425895,-10.85495 0.354884,-1.93069 2.03210895,-5.41781 3.33757095,-6.93915 0.527795,-0.61508 1.726629,-1.62259 2.664076,-2.23893 l 1.704448,-1.12061 0.0092,-3.44961 c 0.01898,-7.09168 1.498391,-11.19785 5.6407569,-15.656112 2.730955,-2.939217 8.191415,-6.289656 11.187195,-6.864253 0.71571,-0.137275 0.85191,-0.296939 0.99001,-1.160532 0.34024,-2.12776 3.03108,-4.934156 5.28805,-5.515152 0.75409,-0.194119 0.83717,-0.320445 0.9133,-1.388763 0.0482,-0.676076 0.29121,-1.399969 0.5722,-1.704386 0.41659,-0.451302 0.5016,-1.079162 0.57771,-4.26693 l 0.0893,-3.737764 -0.91784,-0.495569 C 29.586788,6.450858 29.377718,2.657714 31.868278,0.758072 32.698128,0.125118 33.115388,0 34.396398,0 c 1.71954,0 2.5942,0.477772 3.61175,1.972865 0.43866,0.644527 0.59531,1.256512 0.59531,2.325692 0,1.767923 -0.67221,2.989726 -1.98854,3.614369 l -0.92187,0.437456 v 3.793615 c 0,3.754559 0.007,3.798077 0.66145,4.227019 0.54045,0.354117 0.66146,0.647388 0.66146,1.603093 v 1.169688 l 1.59062,0.713829 c 2.30411,1.034023 4.46964,3.715166 4.48899,5.557819 0.004,0.420599 0.2757,0.633319 1.13029,0.886273 6.97171,2.063597 13.17019,7.572745 15.34843,13.641546 0.90165,2.51207 1.25417,5.03057 1.25417,8.96005 v 3.30243 l 1.87297,1.24515 c 5.69141,3.78364 7.7233,11.39878 4.72628,17.7132 -1.42058,2.99302 -3.86121,5.15937 -5.81259,5.15937 -0.76473,0 -1.03718,0.1408 -1.32955,0.68711 -0.20226,0.37792 -0.68568,0.95465 -1.07428,1.28163 -0.68042,0.57254 -0.73753,0.83819 -1.54453,7.18425 -1.1338,8.91606 -1.49748,11.08087 -1.98708,11.82808 -0.55564,0.84802 -2.42186,1.83405 -5.30479,2.802816 -2.01281,0.67639 -2.3964,0.89853 -2.55123,1.47748 -0.10023,0.37477 -0.26706,2.68619 -0.37074,5.13648 l -0.1885,4.45507 0.89504,0.1691 c 1.39294,0.26317 2.61484,1.11977 2.61484,1.8331 0,0.54754 0.28053,0.70028 2.5584,1.39295 1.40713,0.42788 2.60146,0.90815 2.65407,1.06726 0.0526,0.15911 -0.68612,1.07881 -1.64164,2.04377 -6.24776,6.30955 -15.27047,9.15723 -24.7375,7.80747 z m -5.67706,-18.4549 c 0.0107,-4.00893 -0.0244,-4.32502 -0.51839,-4.67104 -0.29143,-0.20413 -0.60266,-0.28295 -0.69162,-0.17515 -0.22712,0.2752 0.11981,8.59843 0.37566,9.0124 0.11545,0.1868 0.34782,0.2933 0.51639,0.23666 0.21481,-0.0722 0.30991,-1.38909 0.31796,-4.40287 z m 9.98238,-10.735626 c 0.12439,-0.58208 0.1496,-1.80247 0.056,-2.71197 l -0.17014,-1.65365 -1.23571,-0.002 c -0.67964,-10e-4 -2.04374,-0.0782 -3.03133,-0.17146 l -1.79563,-0.16957 0.0758,2.75114 0.0758,2.75114 1.19062,0.164 c 0.65485,0.0902 1.95961,0.14973 2.89947,0.13229 l 1.70885,-0.0317 z m 6.87333,0.75251 c 0.10914,-0.0673 0.19843,-1.31227 0.19843,-2.76671 v -2.64443 l -2.97656,0.18475 c -1.674,0.1039 -3.06163,0.31274 -3.17095,0.47723 -0.33771,0.50814 -0.23254,4.52124 0.12824,4.89377 0.25113,0.25929 0.96757,0.2977 2.97656,0.15958 1.45521,-0.10005 2.73513,-0.23694 2.84428,-0.30419 z m -13.95677,-2.86917 v -2.64584 l -2.24896,-0.29685 c -1.23693,-0.16326 -2.35236,-0.23682 -2.47874,-0.16345 -0.41723,0.24222 -0.0425,4.53478 0.43783,5.01508 0.46017,0.46017 2.17432,0.84053 3.49612,0.77578 l 0.79375,-0.0389 z m 19.11614,2.08552 c 0.54872,-0.34835 0.59531,-0.57367 0.59531,-2.87876 v -2.50082 l -0.7276,0.13611 c -0.40018,0.0749 -1.44198,0.22087 -2.31511,0.32446 l -1.5875,0.18835 -0.16753,2.3809 c -0.10848,1.54177 -0.0678,2.50461 0.11537,2.7319 0.35695,0.44289 3.20726,0.17638 4.08706,-0.38214 z m -24.59453,-2.02442 c 0.0428,-0.96184 -0.0235,-2.14015 -0.14748,-2.61847 -0.21383,-0.82519 -0.32588,-0.89249 -2.19097,-1.3159 -1.08109,-0.24543 -2.05651,-0.39005 -2.16762,-0.32139 -0.29101,0.17985 -0.24589,2.70312 0.0686,3.83529 0.1472,0.52995 0.44827,1.11347 0.66906,1.2967 0.42063,0.3491 2.96977,1.04561 3.42597,0.93609 0.14552,-0.0349 0.29963,-0.85047 0.34245,-1.81232 z m 29.09413,1.24501 c 0.47387,-0.19496 0.97118,-0.64276 1.10514,-0.9951 0.35946,-0.94545 0.64506,-4.32067 0.37916,-4.48092 -0.30101,-0.1814 -3.82272,0.5512 -4.21509,0.87683 -0.32514,0.26984 -0.69674,4.30385 -0.45459,4.93489 0.16585,0.4322 1.71601,0.26884 3.18538,-0.3357 z m -36.835552,-7.08786 c -0.595607,-5.94708 -1.084082,-8.31297 -1.608144,-7.78891 -0.182171,0.18217 1.371031,12.49483 1.661829,13.17378 0.378047,0.88266 0.356382,-1.29039 -0.05369,-5.38487 z m 20.231262,-0.26445 v -3.00349 l -2.18281,-0.16993 c -1.20055,-0.0935 -2.6293,-0.17063 -3.175,-0.1715 l -0.99219,-0.002 v 2.90538 c 0,3.48471 -0.6178,3.09329 5.35782,3.39459 l 0.99218,0.05 z m 7.07871,2.61295 c 0.037,-0.029 0.0965,-1.3519 0.13229,-2.9399 l 0.065,-2.88727 -3.0427,0.0962 c -1.8744,0.0593 -3.12009,0.21167 -3.24422,0.39687 -0.11084,0.16535 -0.1792,1.40777 -0.15192,2.76092 0.0388,1.92609 0.14002,2.51133 0.46609,2.69536 0.3327,0.18778 5.51959,0.078 5.77542,-0.12222 z m -14.22246,-3.03705 v -2.89843 l -0.99218,-0.19667 c -0.54571,-0.10817 -1.64704,-0.20286 -2.4474,-0.21043 l -1.45521,-0.0138 0.0688,2.75872 c 0.0378,1.5173 0.10509,2.79503 0.14946,2.8394 0.13066,0.13066 2.88224,0.55504 3.81664,0.58865 l 0.85989,0.0309 z m 19.51302,2.34315 c 0.56601,-0.21428 0.59532,-0.36415 0.59532,-3.04423 v -2.81885 l -1.65365,0.18671 c -3.49756,0.39489 -3.36411,0.23872 -3.36982,3.94339 l -0.004,2.34196 1.91823,-0.1918 c 1.05503,-0.10549 2.18612,-0.29322 2.51354,-0.41718 z m -25.07218,-2.15671 c -0.002,-1.05502 -0.0759,-2.35963 -0.16508,-2.89912 -0.15449,-0.93448 -0.22008,-0.98874 -1.38615,-1.14672 -0.67319,-0.0912 -1.41575,-0.2181 -1.65013,-0.282 -0.23438,-0.0639 -0.71063,0.11462 -1.05833,0.3967 -0.56962,0.46212 -0.62545,0.69147 -0.5641,2.31737 0.0981,2.59965 0.12706,2.64447 1.99376,3.0837 2.92761,0.68886 2.83338,0.7378 2.83003,-1.46993 z m 28.85873,1.49962 c 2.15718,-0.49064 2.36502,-0.75292 2.36502,-2.98468 0,-1.71366 -0.33046,-2.29118 -1.47545,-2.57855 -0.758,-0.19025 -2.48342,0.0909 -2.95633,0.48167 -0.42151,0.34832 -0.47043,5.50017 -0.0522,5.50017 0.15318,0 1.10672,-0.18837 2.11899,-0.41861 z m -21.97665,-14.94142 c 4.4068,-0.77217 8.62235,-0.77695 12.83229,-0.0146 4.13629,0.74905 7.53368,0.95897 9.525,0.58854 7.36021,-1.36921 11.2276,-9.19716 7.8321,-15.8529 -2.01718,-3.954 -6.65393,-6.23366 -11.34377,-5.57716 -1.70768,0.23904 -2.61835,0.53628 -6.93937,2.26493 -2.39822,0.95942 -2.65315,1.00567 -5.55625,1.00806 -2.94416,0.002 -3.11984,-0.0305 -5.42396,-1.01641 -4.44093,-1.90023 -5.91633,-2.31956 -8.22974,-2.33906 -6.389902,-0.0539 -11.0614569,4.54891 -11.0614569,10.89859 0,2.61823 0.6978219,4.7323 2.2132719,6.70517 3.045175,3.96434 7.412785,4.86609 16.151885,3.3348 z m -11.27439,-6.85969 c -1.04446,-0.42201 -1.690193,-1.55968 -1.690193,-2.97783 0,-1.14123 0.118101,-1.4318 0.899583,-2.21328 0.77714,-0.77714 1.07523,-0.89958 2.19009,-0.89958 2.02381,0 3.26033,1.25288 3.26033,3.30346 0,2.23388 -2.43081,3.68785 -4.65981,2.78723 z m 30.79074,-0.15487 c -0.84224,-0.45699 -1.52468,-1.63934 -1.52468,-2.64155 0,-1.07056 0.77995,-2.4798 1.61003,-2.90905 1.86726,-0.9656 4.09667,-0.0854 4.74282,1.8724 0.64935,1.96753 -0.9191,4.10175 -2.99972,4.08178 -0.6073,-0.006 -1.4301,-0.18743 -1.82845,-0.40358 z m -41.7974029,1.86691 c -0.761138,-2.20924 -0.929526,-6.28617 -0.359817,-8.71168 0.67928,-2.892 1.886567,-5.06484 3.987509,-7.17662 1.9937109,-2.004 3.7246159,-3.00883 6.3396809,-3.68033 3.07783,-0.79034 6.56224,-0.251 10.19387,1.57786 1.0502,0.52887 1.96216,0.90888 2.02658,0.84446 0.18556,-0.18555 -4.03687,-2.58249 -5.8133,-3.30002 -3.09777,-1.25124 -7.282191,-1.03897 -9.935669,0.50402 -0.491283,0.28568 -0.926844,0.48481 -0.967914,0.44252 -0.164276,-0.16917 0.382038,-5.98317 0.678492,-7.22065 0.531603,-2.21907 2.253652,-5.446392 4.013691,-7.522132 4.30787,-5.080589 10.52627,-8.061247 18.31426,-8.778566 1.73449,-0.159756 3.57996,-0.22379 4.10104,-0.142297 0.82367,0.128815 0.8783,0.106469 0.41825,-0.171084 -0.34208,-0.206384 -1.74519,-0.317875 -3.96875,-0.315356 -7.65876,0.0087 -14.76596,2.809693 -19.735405,7.777917 -4.14454,4.143518 -5.4225849,7.399308 -5.7640189,14.683688 -0.236619,5.0482 0.09592,4.30119 -2.936923,6.5974 -1.45658,1.1028 -3.077888,3.30926 -3.821433,5.20064 -0.546295,1.38963 -0.900496,5.02708 -0.489518,5.02708 0.148335,0 0.344165,-0.37232 0.435178,-0.82739 0.201815,-1.00908 1.641342,-3.91828 2.209003,-4.46428 0.369523,-0.35541 0.391788,-0.34159 0.213148,0.1323 -0.109712,0.29104 -0.261042,1.90436 -0.336288,3.58516 -0.140472,3.13773 0.179322,5.04275 1.167211,6.95312 0.613967,1.18728 0.628354,0.71773 0.03112,-1.01576 z M 28.420718,24.373906 c 0.64866,-1.895989 2.21245,-2.967383 5.28793,-3.622895 2.15015,-0.458285 2.4057,-0.78379 0.61535,-0.78379 -3.41447,0 -6.34057,2.017323 -7.22715,4.982576 -0.1579,0.528086 -0.1009,0.604306 0.39569,0.529166 0.40174,-0.06079 0.68718,-0.400621 0.92818,-1.105057 z m 6.00933,-10.425609 c -0.11226,-4.823649 -0.23115,-5.334845 -0.28005,-1.204119 -0.0387,3.27019 -0.10449,3.79212 -0.50749,4.02685 -0.40385,0.235219 -0.37849,0.270758 0.19843,0.278077 l 0.66146,0.0084 z M 32.209628,2.83819 c 0.34354,-0.628159 1.59431,-1.391801 2.27963,-1.391801 0.22551,0 0.41002,-0.119063 0.41002,-0.264584 0,-0.398109 -1.24605,-0.317923 -2.12533,0.136771 -1.26306,0.653151 -1.91512,2.414795 -1.3859,3.744194 0.14476,0.36364 0.23096,0.220394 0.34522,-0.573673 0.0838,-0.582084 0.29812,-1.324992 0.47636,-1.650907 z"/></svg>
