<svg xmlns="http://www.w3.org/2000/svg" xml:space="preserve" width="690.843" height="632.387" viewBox="0 0 182.785 167.319"><path d="M.22 87.764q-.44-3.958 0-7.623l.635-4.105-.195-3.958-.587-4.3 10.8-13.683 7.818-6.108 9.774-8.943.342-1.954 29.857-26.095 15.393-4.642.44 5.277-13.536 4.643L39.02 34.06l6.304-2.541 2.687-.293 5.473-3.714 4.203-1.515 6.597 2.737 11.19-1.857L113.64 1.368 123.852 0l-.88 3.812-7.232 1.661-29.76 20.084 43.883-8.307 2.248 1.955-1.906 2.883-53.02 9.43-8.503 6.11-2.248.146 2.248 2.15 1.368-.782 1.368-.342q2.64 0 4.252 2.932 1.32 2.395 1.32 5.18 0 .244-.49 1.515-.537 1.564-1.123 2.394 6.401 6.353 7.77 8.161l6.108-3.86q1.173-.685 1.857-.685 2.101 0 2.101 3.079l-.098.782-.097.049-6.988 4.886 3.811 8.552 9.236-.782q.635 0 1.27.342.978.538.978 1.613 0 1.27-1.466 2.101-2.346 1.368-8.698 2.101 1.954 14.856 2.638 16.175l.098 2.492.244 1.564q.05.782-.537.782-.538 0-1.662 2.492-1.075 2.492-2.394 2.492l-2.248 2.2 15.833 5.081 79.652 19.547-5.766 3.567-94.312-21.305-3.616 4.3.293.244 37.774 23.75 36.747 22.918-3.86 3.86-77.551-45.055-4.3 2.737-.196.146q12.119 10.409 16.712 15.149 2.346 2.346 2.2 2.639l-1.467 1.808-22.478-17.055-6.89.782q-7.086 1.662-8.112 5.766-.147.538 2.638 2.053 2.883 1.515 2.883 1.612l44.665 24.043q.83.488 1.563 1.466.831 1.026.831 1.661l-1.564 1.369-47.303-23.017-1.124.587-1.123.342q-2.346 0-3.812-.782-1.32-.684-1.32-1.661 0-.587-4.788-2.835-2.444-1.124-4.838-2.15l-3.225 1.32 9.626 16.956-2.248 1.662-10.457-17.25-6.45 2.98-.342-.097-3.177-2.737-3.958 1.906-7.916-.733-2.346-10.164 13.927-6.988-5.815-2.541q-6.157-3.274-7.574-6.94l-2.004-5.814-.586-2.883.733-1.124q.684-1.173.586-1.808l-1.71-6.842Q.61 91.527.22 87.764M63.844 38.8l1.857-2.736 2.052.244 46.815-32.3 7.183-1.516.977-1.124-9.04 2.004-46.325 30.786-2.59-.782-3.519 2.736-1.857-.195-2.834 2.932-2.199 1.075-.537-.147-9.48 4.692.146 1.075.39 1.661 2.982.733 4.789-.39 3.91-4.106-.099-1.221.684-.636 1.32-.146zm66.117-19.449-48.232 8.063-4.251 2.834 52.287-10.262zm-30.933 54.73.147-.977-27.121 2.346-.05.586.44.831.343.196h.244zM8.381 101.007q-2.053-6.841-2.2-12.314-.146-5.522.88-13.39l.831-5.522-.244.05-.294-.05-.293.147-1.515.342-.733 4.838Q3.69 83.17 3.885 88.35q.195 5.228 2.15 12.07l1.417 4.496 2.786 1.563zM2.272 76.574q-.88 7.232-.684 10.653.196 3.518 2.15 11.141l1.466 5.327.147-.049h.244l.293.147.685.488-1.515-5.766q-1.662-6.89-1.71-9.969-.147-5.033 1.954-18.178l-2.297.489zm29.662-8.747-.293-1.026.684-1.71.978-1.907q1.319-2.834 5.18-7.72l3.664-4.3-.977-.538-.977-.44q-5.278-1.71-12.168-.928l-5.375.342q-1.955.244-4.887 1.71l-.049.049-.146.44-6.89 9.284-4.3 5.62 1.172 2.492 3.763-.733 8.258-.83 10.31-.098 1.223.195zM1.393 70.563l5.62-1.27-.93-2.004-.048-.488.049-.538 2.248-3.225 3.274-4.35 4.935-6.4-2.052 1.71-3.274 2.638q-2.297 2.444-6.353 7.721l-3.616 4.79zm11.337 30.493q-2.248-8.405-2.297-11.337-.098-3.079.88-12.998l.83-7.721-.733.097-2.932.538-.586 6.45q-.83 9.969-.489 13.976.342 4.056 2.492 11.68l1.564 5.326 2.053.782 1.221.342zm47.4-86.934 13.145-4.007-.244-1.221-13.731 3.86-29.711 25.997.195 1.173-9.333 8.552-.391.342.097.586 7.673-3.176.781-1.955 1.466-.537 3.519-7.037 2.296-1.368zM57.736 27.61v-.05l-2.053.734-2.052.733v.049l-3.518 2.199-.636 1.661.831 1.026 2.395-.244.537.586.293.684.05 1.515-.734 1.124.44 1.026.342.978q1.808-.489 2.541-.978l.538-.44.537-.488 1.808-1.955.489-.44.684.098.538.196h.048l.294.049q.195 0 .293-.098l1.27-1.075 1.124-.83 1.027-.685.537.049-.098-.391-1.27-2.395zm-7.184 6.597.147.977 1.026.733.293.342.685 1.075.44-.586.195-.489.098-.635-.538-1.27-.44-.392zm13.83-3.959 1.27 2.297 5.131-1.026 4.35-3.03zM43.907 41.584l1.172-2.687 4.74-.342-.488-.636-1.026-.733-.587-.537-.098-.733v-.733l.636-.586.83-.098 1.222.537.049-.39-1.368-1.613-3.568.098-7.77 2.003-3.958 2.004-3.371 6.988-1.466.537-1.466 2.98.146.294 5.034-.049 2.1.05 5.034-2.444 4.154-1.71 1.026-.343.147-1.612zm1.905-.097 1.27.097 1.174-.097-2.004-2.248h-.39l-.44.098-.294.39-.146.391.39.685zm6.842-3.323-.489-.929-.39-.733-2.2-1.417-.977-.195-.342.097-.293.49v.537l.048.44.538.44.977.635 1.222 1.856.684 1.369.049-.05 1.71-.976h.147zm-6.157 6.157-.098.342-.44.244-.489.05-.293-.245.147-.342.39-.244h.49q.244 0 .293.195m-.929-1.173 2.15-1.026-2.003-.098zm17.739 20.084 1.124.733 1.124.929 1.368 1.661 1.075 1.857.586 3.42.391 2.835 1.662-1.026 1.808.293 1.612.684 2.444-.195q1.319-1.173 2.98-1.173 1.271 0 2.395.684l6.206-.489q-1.564-5.473-4.593-10.31l-7.037 4.74-.245 1.417v.049q-.488 1.71-2.296 2.003h-.245l-1.27-.537q-1.76-1.173-1.613-3.177l.147-.586.195-.489q1.32-1.32 3.079-1.173l.977.294 7.037-4.398q-2.443-3.421-5.669-6.548-2.785-2.688-5.864-4.838l-.097.195-.245.196-.586-.05-.586-.146-1.075-.39-2.2-1.027v-.049L64.333 47.4l-1.026-.929v-.293l-.098-.098-.147-.39h.05q-2.884-1.271-5.914-2.102v.049l-.146.244-4.3 4.35-4.838.341-3.177-.781-.244-.196-.244-.244-.538-2.835-3.763 1.564v.049l-4.935 2.395 5.375 1.026 1.124.537.929.489.244.293.098.293.049.05Q54.315 54.73 63.16 62.89zm-11.24-16.859q0 .245-.244.391-.195.196-.44.196l-.488-.196-.196-.39.196-.44.488-.196.44.196zm-9.92-4.936q0 .342-.244.537-.244.294-.586.294t-.636-.294l-.244-.537.244-.635.636-.196q.342 0 .586.196zm-2.834 1.368q0 .342-.244.587-.245.244-.635.244l-.587-.244-.244-.587.244-.586.587-.245q.39 0 .635.245zm6.255 7.623q0 .342-.244.538-.293.244-.636.244-.39 0-.684-.244l-.244-.538.244-.537.684-.196.636.196zm-28.44.684-.733.538h.195l.245.098zm2.394-1.71-1.71 1.173 1.857-.83zm8.454-.782.342-.049h-.733l-.782-.586-.049-.293.05-.293-3.763 1.563zm1.222 60.4.244.928 4.056-.245.88-.146v-.049l-1.466-5.473q-.782-2.932-1.417-7.086-.587-4.202-.636-7.232 0-2.541 1.466-14.269l.88-6.988-.684-.049-.245-.049-.244.05h-.244l-.636-.05h-.097l-.636-.049-.293-.146-.244.049h-1.515l-.244.977q-1.222 4.936-1.564 8.552-.489 4.69-.44 10.75.049 6.646.733 10.458.782 4.349 2.346 10.066M18.643 74.18q-1.27 10.116-.587 16.664.684 6.597 3.079 14.562l1.368 4.203 4.398.195h.147l.293.05-1.222-3.861q-2.54-8.454-3.078-17.25-.538-8.845.977-16.37l.977-4.154-5.424.049h-.098zm-3.372 31.128.88 3.275 4.25.781-1.465-4.495q-2.2-7.428-2.981-14.172-.782-6.743.44-16.028l.977-6.206-3.518.342-.929 4.545q-1.417 8.014-.635 15.832.782 7.868 2.98 16.126m33.132-31.763.733-4.251-2.345-.196-.342-.097-.245.048-3.371-.146-.245 3.03-.684 8.16q-.195 1.613.098 7.819l.83 10.702q.44 3.714 1.662 8.063l3.225-1.27h.098l1.515-.587-1.222-4.691q-.586-2.932-1.026-15.784-.098-2.64 1.32-10.8m9.48-4.838 4.984-4.544-.196-.782Q54.022 55.318 42.636 51.8q-4.496 3.86-7.428 8.942l-1.857 3.665-1.123 2.541.146.44.196.39 13.633.587 8.796.782h1.32zm-17.934 4.74.831-4.642-5.62-.244-.977 4.74v.196l-.635 6.108q-.538 6.255-.342 10.946.244 4.74 2.54 14.122l1.125 4.35 5.082-1.418.195-.049q-1.514-5.473-2.54-11.923-.88-5.62-1.076-9.92-.146-3.127 1.417-12.266m10.8-.684q-.782 5.669-.83 8.308l.39 8.356.977 9.724.978 3.372q1.71-2.15 2.785-4.74l.489-1.368-.635-8.552.537-11.777.44-6.01-.049-.147v-.147h-.88l-3.762-.342zM67.41 44.47q.733.88 1.173.88l2.346-2.004 1.221-.929.098.147-.782.586q.489.782 1.027 2.346.244.782.244 1.857v.684l-.196.733-.097.098.049-.685-.88-.733-.538-.586-.293-.635-.733-.684-.635-.538-.098.098-.049.146 1.369 1.418-.05.342-.097.293-.147.684.587.928q.83.978 1.808.978.88 0 1.564-1.222.537-.977.537-1.661l-.586-3.079q-.929-3.03-2.688-3.03-.489 0-2.15 1.027-2.004 1.319-2.004 2.54M90.965 56.49l-15.393 9.578-1.368.977-.098.147.049.39.195.343.245.195.195.098 16.566-11.19zM67.068 43.93l.44-.684.391-.733-1.515-2.248-1.368-2.394-.977 1.319 2.003 3.714.587.635zm-3.421-.293q.244-.244-.733-2.053l-1.955.978zm-4.545 5.326-3.86 2.932-.05.098-.732.635-.587.489h-.733l-.488-.489.049-.537.733-.831q1.808-1.76 3.958-2.98 1.808-1.076 3.91-1.613l.781.342-.098.342zm4.789-2.785.83.733 1.565 1.222q.586.44 2.003.928l1.368.489.733-2.981-.928-.88-.44-.342-.538.245-.635-.391-.684-.538v-.39l-.782-.294zm-.244 14.758q0 .39-.293.635-.294.244-.733.244-.391 0-.685-.244l-.293-.635.293-.587.685-.244.733.244zm-1.173 12.998v-.098l.44-1.563.586-1.124h.635q1.027 1.026 1.369 2.54l.342 2.835q.342 4.887.39 9.773.05 3.323-.293 6.646l-.635 4.398-.928.88-1.222-.342.147-3.079.195-4.3-.098-5.913-.342-5.033zm-4.691 36.65 3.86-4.251v-.05q2.15-5.521 2.688-6.108l1.661-1.368q1.027-.782 1.369-1.515l.684-4.69.537-4.448q.147-5.082-.39-9.87-.978-8.064-1.125-8.504-.342-1.319-1.417-2.736l-1.27-1.32-.929-1.075-.097-.097-.05.049-5.375 4.74-1.466.39.245 1.858.537 7.818q.147 3.86.147 7.721 0 2.395-.245 4.789-.342 3.225-1.514 6.108-1.418 3.323-3.812 5.913l.195.147 3.177 2.98 2.443 2.493.098.44-.049.684zm13.78-43.54-.147.635q-.146 1.613 1.32 2.59.489.293 1.075.44.586-.098.88-.538.244-.39 0-.44l-.49-.195-.488-.39-.635-.978-.342-.977.635-1.124q-1.026.146-1.808.977m.782 11.826.244-.196-1.466-1.71q-.244-.782.05-2.737l-.245-.049-1.368.782q.048 1.32.537 2.493.342.83 1.075 1.514zm17.396 6.597q0-4.985-1.026-9.53l-4.544.538.049.098.44.782q1.026.195 1.807 1.466.831 1.417.831 3.323 0 1.954-.83 3.323l-.294.44q-.244 3.909-1.954 6.84-1.955 3.324-4.74 3.324t-4.74-3.323q-2.004-3.372-2.004-8.112 0-3.616 1.173-6.402l-1.124 1.124q-.196.147-.391.147l-1.173.098-.293-.05-.196-.146q-.83-.782-1.221-1.71l-.245-.782.245 2.346q.342 4.544.195 9.529 0 .488-.146.781l-.343 3.226-.146 1.417-.244 2.54q-.343 1.467-1.124 2.346l-1.32.978-1.32 1.27-.488 1.075q-.733 1.955-1.564 3.421l1.076.635.244.147-.147-1.466.098-.391 2.346-3.91.293-.293h.39l.88.196 3.421.83 6.157 1.027h.049l2.688.293.244.049.244.146 1.32 1.662 1.124.244q.195.05.39.245l.685.83q1.32-2.345 2.296-4.837l-.195-.098-.195-.245-.587-1.612-.146-.977.048-1.124.294-1.222.635-1.71.928-1.808.294-.245.342-.098 1.026.098q.488-3.274.488-6.743M75.816 67.729l-1.075.83-.537-.39-.293-.538v-.39l.049-.294.977-.684-.635-.195-.44.488-.245.489-.146.489.244.586.587.586.488.294q.098 0 .44-.245zm3.665 6.353-1.172.195 1.71-.146zm-5.864 3.52.245-.343H72.64l-.293-.244-.44-.636-.098-.39v-.44l.098-.342 1.613-.245-1.27-.44-.49-.146-.048.293q-.489 1.564.537 2.883l.342.342.391.196.098.098zm10.311 14.465q1.417-2.395 1.76-5.571-.733.586-1.613.537-1.466.05-2.395-1.563-.88-1.369-.88-3.323 0-1.906.832-3.323h.048q.929-1.564 2.297-1.564l-.049-.098-.39-.635-8.699.977q-1.612 3.03-1.612 7.135 0 4.349 1.808 7.428 1.857 3.127 4.446 3.127 2.64 0 4.447-3.127m2.737-9.92q0-1.76-.782-2.981-.733-1.27-1.808-1.27-1.124 0-1.857 1.27-.782 1.222-.782 2.98 0 1.76.782 2.982.733 1.27 1.857 1.27 1.075 0 1.808-1.27.782-1.222.782-2.981m-.977.097q0 .44-.147.733-.196.294-.391.294l-.44-.294-.146-.733.146-.781.44-.294.39.294q.148.293.148.781M88.18 92.75l-.929 1.759-.488 1.466-.391 1.32.049 1.807.586 1.515 2.199.391h.049l-.05-.049-.146-1.905v-1.71l.147-1.271.195-1.124.831-2.004zm2.639 6.45q.586-.733.684-1.368.293-1.564.195-2.297l-.342-1.173q-.098-.39-.537-.83h-.05l-.683 1.319-.343 1.368-.146 1.955.146 2.248zm-23.652 1.955-2.345 3.91.146 1.514 7.672 2.248 6.06 1.026 2.59.098 1.759-2.981-2.59-3.42-2.737-.294-6.255-1.026zm14.66 8.796 4.936 1.075h.146l.147.049.488-.196.44-.293.733-.684.147-.391-.049-.684-.244-.538-.929-.684-3.47-.928-.879-1.026-.635-.147.83 1.417zm19.546 1.026-12.168-3.86-1.026.39.83.685.245.781-.098.587-.147.586-.342.489-1.221.684.097.293 13.585 2.688.489-.586.293-.49.147-.781-.342-1.026zm-37.823-2.883-.147.489-.342.195-.342-.195-.146-.49.146-.488q.147-.195.342-.195l.342.195q.147.196.147.489m-5.326 2.883-2.64 3.079 5.23 3.274q.586 0 3.03 1.172l2.296 1.222 2.59-1.466 2.345.391 1.027-1.32-.147-4.202.928-1.417-5.277-2.639-3.812-2.003-1.075-.684q-.39.488-.684.44zm9.968-.244-.146.488q-.147.196-.391.196l-.391-.196-.147-.488.147-.489.39-.195q.245 0 .392.195.146.195.146.489M44.737 128.91q15.735 0 27.61-9.04l-1.173-.733-.146.049-.294.048-1.857-.342-2.394 1.369-.293.097-.342-.097-2.297-1.173h-.049q-2.199-1.075-2.688-1.124l-.342-.098-5.228-3.225-.245-.293-.049-.391.05-.098q-3.861 3.079-8.064 5.131l-.195.049-.196.147-.83.39-.245.05h-.097l-.294.244-1.417.537-2.443.831-.244.049-.196.098-.146.048-.44-.097-.782-.196v.147l-.098.39-.39.196-3.177.684-.196-.049-.244.098-1.32.147h-.293l-.244-.098-.098.098-.44.146-2.394.147-.342-.098-.342.098h-1.76l-.243-.049-.343-.098-.44.147-1.66-.098-.392-.146h-.049l-.39.097-4.056-.684q10.652 6.695 24.237 6.695M4.178 105.552l1.27 3.763 2.15 3.127 1.271-2.737 2.248 4.3.684-2.15.88-.293 2.394 4.447.782-2.492.782-.147 2.688 3.665.586-2.736 1.857.342 2.004 6.108.048-1.221 1.418-5.131 2.003-.098 1.71 6.255-.048-2.15 1.319-4.643.88-.244.88-.049 2.247 5.229 1.417-6.157.684-.293.684-.294 1.808 3.959 2.2 4.74 2.394-.831 1.417-.587-4.545-1.759-.293-2.736 1.857-4.203 1.026-.146 3.763 8.014q5.522-2.64 10.311-7.135l.147-1.368-2.346-2.395-3.127-2.932-3.568 1.418-5.913 2.199q-4.153 1.466-8.551 2.1-3.323.538-6.646.147-7.037.098-13.634-2.003-4.154-1.32-7.819-4.154l-1.026.196zm60.497 19.302-.88.538-.146.097-.05.098v.049l.05.147h.049l10.506 8.747 10.457 8.502.391.196-.097.098.586-.342q.195-.098 0-.294l-.049-.048-.098-.098-.488-.44-1.955-1.661-7.72-6.646-10.263-8.65v-.195l-.098-.098-.048-.049zm11.874-8.65q2.786-2.688 4.985-5.62l-2.883-.098-6.206-1.075-6.255-1.759 1.71.83 5.229 2.64.293.244.098.342-.098.342-.83 1.222.195 1.71 3.078 1.857zm-4.886 2.492 2.345 1.612 1.075.05.587-.294.44-.293q.586-.489.44-1.222l-.391-.586-.391-.44-3.177-1.955-.097 2.053zm2.834 2.883q5.62 2.737 11.19 5.424l.831.098.831-.929.293-1.026v-.049l-.488-1.026-10.458-6.694-.342.097.342.391.196.489v.586q-.05.538-.196.684l-.342.44-.88.587-.83.146-.538-.049zm74.277 43.051.782-.488.733-.538-62.305-38.311-.244.782-.196.44-.635.781zM25.533 114.74l-1.27 4.886-.05 1.222 3.86 1.564h1.76l-1.075-1.075-1.808-6.646zm6.157-.88-1.124.196-1.27 4.593.048 1.661 4.594 1.809 1.27-.147zm-6.988 8.405-1.661-1.71-1.76-5.571-.977-.293-1.124 3.86v2.2l.733.683zm-5.963-1.32v-2.54l.391-.831-2.59-3.714-.488.098-.929 3.42-.244.49.098 2.345zm-7.965-2.248 3.616.635v-1.564l.489-1.123-2.395-4.545-.39.098-1.222 4.007zM22.7 135.165l-.733-8.014-6.5-.44-1.612.635 3.567.245 3.567.293.489 3.958.39 3.91zm-10.067-6.988-2.15 1.026 3.42.05 3.519.146.537 4.007.44 3.91 2.835-1.418-.782-7.477zm20.28-5.913-3.91-1.612.196.488 1.27 1.27zm-5.864.147-2.688-1.026 1.026.928zm-4.398 7.965.39 2.59 2.737-1.026-.44-2.883zM42.1 111.025l-1.613 3.665-.049 2.394 4.984 1.906.831-.39-3.616-7.722zm-1.466 9.724-3.763-8.258-.88.39-1.368 5.62.195 1.173 2.737.489 2.98.635zm-1.857.489-3.959-1.075.831 1.76zm2.394 9.676q-1.661 2.003-.977 4.544l.488 1.613.685-.05q-.733-2.59.146-4.984l.44-.977-.635-.195zm-4.349 1.905h-.782l-.147.929.343 2.394.684.147-.098-.977zm-14.953 4.105v.098l-1.417.39 3.665 1.32q2.394-.83 4.544-2.003l2.883-1.613q1.808-1.026 3.812-1.613v-.928q-2.199.83-4.251 1.906l-3.079 1.71q-1.857.929-3.86 1.466zm22.576-4.935-.244.048q-.538.196-.684.685-.342.781-.294 1.71.05 1.661 1.613 2.297l.684-.098.293-.782h-.244l-.489.196-.684-.196-.635-1.564q-.44-1.368.684-2.296m-30.981-1.173.928 8.698 3.177-1.661-.831-7.966-7.428-.244-2.101 1.173zm39.875 9.236-.244 1.319 44.566 22.576q.195-.097-.293-.44l-.489-.39q.049-.05-21.746-11.533zm-46.13-.782 6.548.244-1.026-8.014H6.133zm.195-23.065 2.981.635v-.733l.538-1.515-2.102-4.154-1.466 3.665zm.781 17.005h3.128l.488 4.74-3.225-.195zm170.348-2.54-27.952-6.891-48.329-12.021.147.88q0 .488-.391 1.172l47.84 11.337 27.317 6.5q.293-.391.733-.49z"/><path d="m129.96 19.351-.195.635-52.287 10.262 4.251-2.834zm-66.117 19.45-5.375 2.638-1.32.146-.684.636.098 1.221-3.91 4.105-4.788.391-2.981-.733-.391-1.661-.147-1.075 9.48-4.692.538.147 2.2-1.075 2.833-2.932 1.857.195 3.519-2.736 2.59.782 46.325-30.786 9.04-2.004-.977 1.124-7.183 1.515-46.815 32.3-2.052-.243zM60.13 14.122 35.892 35.331l-2.296 1.368-3.519 7.037-1.466.537-.781 1.955-7.673 3.176-.097-.586.39-.342 9.334-8.552-.195-1.173 29.71-25.997 13.732-3.86.244 1.221zm4.252 16.126 10.75-1.759-4.349 3.03-5.13 1.026zM46.497 44.322q-.05-.195-.294-.195h-.488l-.391.244-.147.342.293.244.489-.049.44-.244zm5.57 2.052-.244-.44-.44-.195-.488.196-.196.44.196.39.488.196q.245 0 .44-.196.244-.146.244-.39m29.76 63.575 1.662-3.03-.831-1.417.635.147.88 1.026 3.47.928.928.684.244.538.049.684-.147.39-.733.685-.44.293-.488.196-.147-.05h-.146zm-14.66-8.796 4.3 1.075 6.255 1.026 2.737.293 2.59 3.42-1.76 2.982-2.59-.098-6.059-1.026-7.672-2.248-.146-1.515zm1.026 9.579q0-.294-.146-.489-.147-.195-.391-.195l-.391.195-.147.489.147.488.39.196q.245 0 .392-.196zm-9.968.244 3.811-4.154q.293.05.684-.44l1.075.685 3.812 2.003 5.277 2.639-.928 1.417.147 4.203-1.027 1.319-2.345-.39-2.59 1.465-2.297-1.222q-2.443-1.172-3.03-1.172l-5.228-3.274zm5.326-2.883q0-.293-.147-.489l-.342-.195q-.195 0-.342.195l-.146.489.146.489.342.195.342-.195zm1.124 16.762.147-.049.048.05.098.097v.196l10.262 8.649 7.721 6.646 1.955 1.661.488.44.098.098.049.048q.195.196 0 .294l-.586.342.097-.098-.39-.196-10.458-8.502-10.506-8.747h-.05l-.048-.147v-.049l.049-.098.146-.097zm6.988-6.157.83-1.075.098-2.053 3.177 1.955.39.44.391.586q.147.733-.44 1.222l-.44.293-.586.293-1.075-.049zm77.111 45.934L86.91 127.297l.635-.781.196-.44.244-.782 62.305 38.311-.733.538zm29.76-33.962-.635.489q-.44.098-.733.489l-27.317-6.5-47.84-11.337q.39-.684.39-1.173l-.146-.88 48.33 12.022z"/><path d="m99.028 74.082-25.997 2.98h-.244l-.342-.195-.44-.83.049-.587 27.12-2.346zM57.736 27.61l6.255 2.638 1.27 2.395.098.39-.537-.048-1.027.684-1.124.83-1.27 1.076q-.098.098-.293.098l-.294-.05h-.048l-.538-.195-.684-.097-.489.44-1.808 1.954-.537.489-.538.44q-.733.488-2.54.977l-.343-.978-.44-1.026.733-1.124-.049-1.515-.293-.684-.537-.586-2.395.244-.83-1.026.635-1.661 3.518-2.2v-.048l2.052-.733 2.053-.733zm-13.83 13.975 1.125.245-.147 1.612-1.026.342-4.154 1.71-5.033 2.444-2.101-.049-5.034.05-.146-.294 1.466-2.981 1.466-.537 3.371-6.988 3.959-2.004 7.77-2.003 3.567-.098 1.368 1.612-.049.391-1.222-.537-.83.098-.636.586v.733l.098.733.587.537 1.026.733.488.636-4.74.342zm1.661 1.564.147-1.124 2.003.098zm17.739 20.084-.147-.342q-8.845-8.16-20.328-11.679l-.05-.049-.097-.293-.244-.293-.929-.489-1.124-.537-5.375-1.026 4.935-2.395v-.049l3.763-1.564.538 2.835.244.244.244.196 3.177.781 4.837-.342 4.3-4.349.147-.244v-.049q3.03.83 5.913 2.101h-.049l.147.391.098.098v.293l1.026.929 1.564 1.221v.05l2.199 1.025 1.075.391.586.147.586.049.245-.196.097-.195q3.08 2.15 5.864 4.838 3.226 3.127 5.669 6.548l-7.037 4.398-.977-.294q-1.76-.146-3.079 1.173l-.195.489-.147.586q-.146 2.004 1.613 3.177l1.27.537h.245q1.808-.293 2.296-2.003v-.05l.245-1.416 7.037-4.74q3.03 4.837 4.593 10.31l-6.206.49q-1.124-.685-2.395-.685-1.661 0-2.98 1.173l-2.444.195-1.612-.684-1.808-.293-1.662 1.026-.39-2.834-.587-3.42-1.075-1.858-1.368-1.661-1.124-.929zM45.568 50.43l-.244-.537-.636-.196-.684.196-.244.537.244.538q.294.244.684.244.343 0 .636-.244.244-.196.244-.538m-6.255-7.623-.244-.586q-.245-.245-.635-.245l-.587.245-.244.586.244.587.587.244q.39 0 .635-.244.244-.245.244-.587m2.834-1.368-.244-.635q-.244-.196-.586-.196l-.636.196-.244.635.244.537q.294.294.636.294t.586-.294q.244-.195.244-.537m-14.17 7.183-4.936.342 3.762-1.563-.049.293.05.293.781.586h.733zm62.99 7.867.39.537-16.566 11.19-.195-.097-.245-.195-.195-.343-.049-.39.098-.147 1.368-.977zm-31.86-7.526 2.882-1.612.098-.342-.782-.342q-2.101.537-3.91 1.612-2.15 1.222-3.957 2.981l-.733.83-.05.538.49.489h.732l.587-.489.733-.635.049-.098zm4.545 11.973-.293-.587-.733-.244-.685.244-.293.587.293.635q.294.244.685.244.44 0 .733-.244t.293-.635m26.094 24.53q0 3.47-.488 6.744l-1.026-.098-.342.098-.294.245-.928 1.808-.635 1.71-.294 1.222-.048 1.124.146.977.587 1.612.195.245.195.098q-.977 2.492-2.296 4.837l-.684-.83q-.196-.196-.391-.245l-1.124-.244-1.32-1.662-.244-.146-.244-.049-2.688-.293h-.049l-6.157-1.026-3.42-.831-.88-.196h-.391l-.293.294-2.346 3.909-.098.39.147 1.467-.244-.147-1.076-.635q.831-1.466 1.564-3.42l.489-1.076 1.32-1.27 1.319-.978q.781-.88 1.124-2.345l.244-2.541.146-1.417.343-3.226q.146-.293.146-.781.147-4.985-.195-9.53l-.245-2.345.245.782q.39.928 1.221 1.71l.196.147.293.049 1.173-.098q.195 0 .39-.147l1.125-1.124q-1.173 2.786-1.173 6.402 0 4.74 2.003 8.112 1.955 3.323 4.74 3.323t4.74-3.323q1.71-2.932 1.955-6.842l.293-.44q.831-1.368.831-3.322 0-1.906-.83-3.323-.782-1.27-1.809-1.466l-.44-.782-.048-.098 4.544-.537q1.026 4.544 1.026 9.529m-5.815 6.597q-1.808 3.127-4.447 3.127-2.59 0-4.446-3.127-1.808-3.079-1.808-7.428 0-4.105 1.612-7.135l8.698-.977.391.635.05.098q-1.37 0-2.298 1.564h-.048q-.831 1.417-.831 3.323 0 1.954.88 3.323.928 1.612 2.394 1.563.88.05 1.613-.537-.343 3.176-1.76 5.57m-30.59 47.988 21.794 11.532q21.795 11.484 21.746 11.533l.489.39q.488.343.293.44L53.097 141.37z"/><path d="m2.272 76.574.733-5.717 2.297-.49q-2.101 13.146-1.955 18.18.05 3.078 1.71 9.968l1.516 5.766-.685-.488-.293-.147h-.244l-.147.049-1.466-5.327q-1.954-7.623-2.15-11.141-.195-3.42.684-10.653m6.109 24.433 1.857 5.473-2.786-1.563-1.417-4.496q-1.955-6.842-2.15-12.07-.196-5.18.928-13.243l.733-4.838 1.515-.342.293-.147.294.05.244-.05-.83 5.522q-1.027 7.868-.88 13.39.146 5.473 2.199 12.314m4.349.05 2.003 7.134-1.221-.342-2.053-.782-1.564-5.327q-2.15-7.623-2.492-11.679-.342-4.007.489-13.976l.586-6.45 2.932-.538.733-.097-.83 7.72q-.978 9.92-.88 12.999.049 2.932 2.297 11.337m39.924-62.891.684 1.564h-.147l-1.71.977-.049.049-.684-1.369-1.222-1.856-.977-.636-.538-.44-.048-.44v-.537l.293-.489.342-.097.977.195 2.2 1.417.39.733zm-6.842 3.323-.44-.684-.39-.685.146-.39.293-.391.44-.098h.391l2.004 2.248-1.173.097zm2.59 32.056q-1.418 8.16-1.32 10.8.44 12.852 1.026 15.784l1.222 4.69-1.515.587h-.098l-3.225 1.27q-1.222-4.348-1.661-8.062L42 87.91q-.293-6.206-.098-7.819l.684-8.16.245-3.03 3.371.146.245-.048.342.097 2.345.196zm-33.131 31.763q-2.2-8.258-2.981-16.126-.782-7.818.635-15.832l.929-4.545 3.518-.342-.977 6.206q-1.222 9.285-.44 16.028.782 6.744 2.98 14.172l1.467 4.495-4.252-.781zm3.373-31.128.83-5.912h.098l5.424-.05-.977 4.154q-1.515 7.526-.977 16.37.537 8.797 3.078 17.25l1.222 3.861-.293-.049H26.9l-4.398-.195-1.368-4.203q-2.395-7.965-3.079-14.562-.684-6.548.587-16.664m10.555 34.842q-1.564-5.717-2.346-10.066-.684-3.812-.733-10.458-.049-6.06.44-10.75.342-3.616 1.564-8.552l.244-.977h1.515l.244-.05.293.147.636.05h.097l.636.048h.244l.244-.049.245.05.684.048-.88 6.988Q30.86 87.178 30.86 89.719q.05 3.03.636 7.232.635 4.154 1.417 7.086l1.466 5.473v.049l-.88.146-4.056.245zm21.55-36.259.44-3.323 3.762.342h.88v.148l.049.146-.44 6.01-.537 11.777.635 8.552-.489 1.368q-1.075 2.59-2.785 4.74l-.978-3.372-.977-9.724-.39-8.356q.048-2.64.83-8.308m-10.8.684q-1.563 9.139-1.417 12.266.196 4.3 1.075 9.92 1.027 6.45 2.541 11.923l-.195.05-5.082 1.416-1.124-4.349q-2.297-9.382-2.541-14.122-.196-4.691.342-10.946l.635-6.109V73.3l.977-4.74 5.62.244zM31.69 113.86l3.518 8.112-1.27.147-4.594-1.809-.048-1.661 1.27-4.593zm-6.157.88 1.417-.05 1.808 6.647 1.075 1.075h-1.76l-3.86-1.564.05-1.222zm-14.758 3.958.098-2.492 1.221-4.007.391-.098 2.395 4.545-.489 1.123v1.564zm7.965 2.248-3.762-.733-.098-2.346.244-.488.929-3.421.488-.098 2.59 3.714-.39.83zm5.961 1.32-4.789-.832-.733-.684v-2.199l1.124-3.86.977.293 1.76 5.57zm-2.052 8.112 2.687-1.32.44 2.884-2.736 1.026zm17.983-9.627-.098.05-2.981-.636-2.737-.489-.195-1.173 1.368-5.62.88-.39zm1.466-9.724.537-.147 3.616 7.721-.83.391-4.985-1.906.049-2.394zm-.929 19.889.147-.05.635.196-.44.977q-.88 2.395-.146 4.985l-.685.049-.488-1.613q-.684-2.54.977-4.544m3.274 1.075q-1.124.928-.684 2.296l.635 1.564.684.196.49-.196h.243l-.293.782-.684.098q-1.564-.636-1.613-2.297-.048-.929.294-1.71.146-.49.684-.685zm-22.576 4.935 2.297.733q2.003-.537 3.86-1.466l3.079-1.71q2.052-1.075 4.251-1.906v.928q-2.004.587-3.812 1.613l-2.883 1.613q-2.15 1.172-4.544 2.003l-3.665-1.32 1.417-.39zm14.953-4.105v2.493l.098.977-.684-.147-.343-2.394.147-.929zM7.403 116.205l-.049-2.102 1.466-3.665 2.102 4.154-.538 1.515v.733z"/><path d="M44.737 128.91q-13.585 0-24.237-6.695l4.055.684.391-.097h.05l.39.146 1.662.098.44-.147.342.098.244.049h1.759l.342-.098.342.098 2.395-.147.44-.146.097-.098.244.098h.294l1.32-.147.243-.098.196.05 3.176-.685.391-.195.098-.391v-.147l.782.196.44.097.146-.048.196-.098.244-.049 2.443-.83 1.417-.538.294-.245h.097l.245-.049.83-.39.196-.147.195-.049q4.203-2.052 8.063-5.13l-.049.097.05.39.244.294 5.228 3.225.342.098q.49.049 2.688 1.124h.049l2.297 1.173.342.097.293-.097 2.394-1.369 1.857.342.294-.048.146-.05 1.173.734q-11.875 9.04-27.61 9.04m31.812-12.705-.684.635-3.078-1.857-.196-1.71.831-1.222.098-.342-.098-.342-.293-.244-5.229-2.64-1.71-.83 6.255 1.76 6.206 1.074 2.883.098q-2.2 2.932-4.985 5.62m-63.917 11.972 7.819.244.782 7.477-2.835 1.417-.44-3.91-.537-4.006-3.518-.147-3.421-.049zM7.208 139.27l-1.075-7.77h6.597l1.026 8.014zm.977-6.06.391 4.545 3.225.195-.488-4.74z"/></svg>