<svg xmlns="http://www.w3.org/2000/svg" xml:space="preserve" width="630.194" height="383.934" viewBox="0 0 166.739 101.583"><g fill-rule="evenodd"><path d="M21.945.725q3.75 1.825 18.48 10.626 2.909 1.094 3.96 4.478 1.05 3.383-.534 6.884l-.399.607-.036.19q-1.266 2.78-4.041 4.23-2.555 1.294-5.136.548l-1.017-.277-20.2-8.02q-3.285-1.16-5.072-6.42-1.852-4.881-.554-7.852 1.027-2.531 5.817-4.4Q17.814-.585 20.958.26l.985.464m-.204 6.651q.428 3.081-1.741 6.575-2.321 3.274-5.433 3.889-.598.087.114.988l1.33.72.469.082q3.333-.77 5.502-4.265 2.31-3.76 1.634-7.078.074-.955-1.321-1.298zM88.912 38.703 50.872 18.62q-.454-.177-.349-1.32l.464-.986 38.074 19.894q.435.271.33 1.417-.12 1.239-.479 1.078m-4.131 3.633L55.237 28.5q-.455-.176-.35-1.322l.449-.89L84.819 39.92q.36.16.35 1.323-.044 1.348-.388 1.094m6.935 10.141q-.122 1.237-.48 1.077L48.241 34.635q-.452-.18-.443-1.34l.481-1.079 43.198 18.862q.343.254.238 1.399M9.937 76.378q4.225-.449 21.712-.798 3.104-.624 5.841 1.732 2.734 2.357 3.253 6.238l-.015.74.076.18q.407 3.09-1.208 5.84-1.508 2.497-4.143 3.247l-1.03.312-21.79 3.976q-3.465.771-7.85-2.808Q.545 91.818.063 88.55q-.478-2.743 2.65-6.945 2.95-4.13 6.125-5.097l1.101-.13m3.417 5.859q2.032 2.432 2.047 6.622-.239 4.084-2.596 6.296-.47.4.633.792l1.535-.095.45-.183q2.467-2.467 2.452-6.657-.032-4.498-2.41-7-.452-.867-1.843-.409zM88.326 73.035l-43.724 3.186q-.487.092-1.014-.954l-.13-1.102 43.65-3.365q.523-.002 1.05 1.044.565 1.134.168 1.191m-1.607 5.37L53.71 82.403q-.486.092-1.015-.955l-.092-1.011 32.845-4.141q.397-.055 1.014.954.69 1.19.257 1.155m11.47 5.02q.565 1.133.168 1.19L50.98 91.48q-.487.092-1.104-.916l-.168-1.191 47.522-7.03q.433.035.96 1.081M146.952 26.558q5.441 1.718 8.305 5.154.286.573 0 1.146 0 1.718-2.864 3.722-1.718 1.432-3.723 2.578-1.145.286-.859 2.29.287 1.719 1.432 1.719 8.59.572 12.027 5.154 2.29 2.864 1.432 6.873-4.01-2.291-8.59-2.005-1.146 0-1.146 1.718-.287 2.291 1.718 2.291l1.432.286q5.154.287 8.304 3.437 2.577 3.15 2.29 8.018-.572 5.154-3.15 9.45-2.863 5.44-7.444 4.295-1.719-5.728-6.587-9.45l-.572-.287-1.146.287v.573q-.572.572-.286 1.431 0 1.146.859 1.718 2.864 2.005 4.868 5.441 1.718 3.15.573 6.014-1.146 3.722-5.441 7.158-3.436 2.864-7.732 4.869-2.672 1.145-4.963 1.145-3.723-.286-6.3-4.009-2.004-3.15-2.29-7.445-.287-2.291-1.719-2.577h-.572l-.287.572q-.573.287-.286 1.146 0 2.863 1.145 5.727-3.436 2.29-7.445 2.29t-7.159-2.29q-2.577-1.146-4.295-3.723-1.718-2.863-1.432-5.44.286-.573 0-1.719l1.145-2.863 4.01-2.291q1.145-.286.572-2.005 0-1.718-1.432-1.718h-.286q-5.154 1.718-6.872 6.586-3.15-2.004-4.296-4.581-.573-2.291.573-4.582 1.432-3.436 6.013-3.722.86 0 1.146-1.146v-1.432q-.573-1.145-1.432-1.431-3.15-.573-3.15-4.01l.573-2.863q1.145-1.432 2.863-1.432.573 0 .86-1.145l-.287-1.432-.859-1.145q-3.723-2.578-3.15-5.441 0-2.29 3.436-4.009 4.296-2.29 10.595.859h1.432l.573-.859-.286-1.718-.573-1.146q-2.577-2.29-2.577-3.436.286-.859 2.577-.859 1.432 0 2.863 2.29 0 .86.86.86h.286l.859-.286q.286-.287.286-1.432l-.286-.86v-.572q-2.864-7.445.286-11.168 1.718-2.577 5.727-2.29 2.864.286 4.296 2.004-4.296 3.436-5.441 9.163-.573 1.146.286 2.577l.573.287h1.432V35.72q1.145-3.436 3.722-6.3t6.3-3.722q3.818-.86 8.686.86m-8.4 21.19q-.286-2.292-1.718-2.578h-.286q-7.445 1.432-12.027 7.732-1.432-2.005-1.145-4.296.286-2.004 1.718-4.009.859-1.145 0-2.577-.286-1.145-1.146-1.145h-.572l-.573.286q-2.577 3.723-2.29 7.732-.287 4.009 2.004 6.872-3.437 7.16-2.578 14.89 1.432 8.591 7.732 13.173l.286.286h1.146v-.859l.573-1.432q-.287-1.145-.86-1.718-5.44-3.722-6.3-10.308-.572-6.587 3.15-12.027l.287-.287q.286-.286.286-.859 4.296-6.3 11.168-7.445 1.146 0 1.146-1.432"/></g></svg>