<svg xmlns="http://www.w3.org/2000/svg" xml:space="preserve" width="424.515" height="471.498" viewBox="0 0 112.32 124.751"><path d="m116.412 22.226-91.8 4.093-20.52 120.658 97.44-8.597zM49.857 33.982c.19.023 7.922 12.4 9.886 17.174 2.609-2.074 5.948-3.26 9.292-3.145a69 69 0 0 1 11.654 2.184c4.823 1.387 9.725 3.347 13.263 7.038 2.43 2.448 3.893 5.832 3.88 9.292-.01 5.877-3.564 11.347-8.398 14.507 2.751.726 5.603 1.942 7.266 4.368 1.448 2.389 2.194 5.138 2.747 7.856 1.161 5.597.955 11.71-1.794 16.833-2.604 4.907-7.637 8.095-12.903 9.49-8.452 2.295-17.587.762-25.369-3.032-1.002 2.494-1.914 5.024-3.003 7.482-.51 1.365-2.771 3.2-2.914 3.231 0 0-3.285-2.804-3.118-2.631-.202-5.112-.159-10.235-.199-15.352.3-4.85.233-4.526.853-10.232-.01-1.548 1.56-7.48 1.382-7.604.311.09 7.808 11.524 7.918 14.316.462 1.063.272 2.536 1.349 3.235 2.866 1.726 6.184 2.447 9.416 2.87 2.966.593 6.111.186 8.81-1.188 2.545-1.223 5.15-3.103 6.115-5.928.656-2.743.624-5.638.165-8.415-.434-3.339-2.483-6.746-5.693-8.176-3.354-1.303-7.015-.673-10.518-.782-.91 2.331-1.575 4.797-2.888 6.96l-1.618 1.606c-.136-.109-2.67-8.923-2.755-13.875.424-4.87.724-7.673 1.902-12.842 2.454 5.147 2.342 4.684 5.177 9.876 1.882-.478 3.758-.976 5.64-1.458 1.812-.55 3.748-.733 5.462-1.573 2.335-1.13 3.495-3.86 3.237-6.363-.317-3.886-3.085-7.056-6.172-9.188-2.649-1.775-5.498-3.534-8.72-3.956-2.317-.465-4.702.698-6.064 2.564-1.8 2.956-3.215 6.143-4.433 9.38-1.11 2.756-1.063 2.754-1.626 5.66-.215 1.65-3.879 3.04-3.879 3.04.057-.145-2.504-2.67-2.896-3.99-.627-9.117-1.127-14.282-1.69-23.406-.158-4.003-.63-8.006-.613-12.035M29.964 71.754c3.217.05 6.434.018 9.652.035q-.54 3.483-1.086 6.965c1.52-.197 3.028-.404 4.549-.617a162 162 0 0 1 2.373 11.133c-2.251-.34-4.503-.679-6.752-1.031.36 2.18.874 4.33 1.355 6.486l-12.613-.371c.224-1.966.58-3.916 1.05-5.838-1.192.256-2.45.547-3.675.828a2172 2172 0 0 1-5.426-10.959c3.026.255 6.051.513 9.079.748-.212-.981-.422-1.903-.796-2.8-1.16-1.741.118-4.574 2.29-4.579" style="display:inline" transform="matrix(1 0 0 1 -4.092 -22.226)"/></svg>