<?xml version="1.0" encoding="UTF-8" standalone="no"?>
<svg
   width="113.56185mm"
   height="112.29531mm"
   viewBox="0 0 113.56185 112.29531"
   version="1.1"
   xml:space="preserve"
   xmlns="http://www.w3.org/2000/svg"
   xmlns:svg="http://www.w3.org/2000/svg"><path
     style="fill:#000000"
     d="m 51.553334,112.14466 c -5.940706,0.28604 -8.985765,-5.21771 -11.622176,-9.60967 -4.345112,-6.564135 -7.517423,-14.059045 -7.447209,-22.052415 -0.159531,-9.56892 -4.570853,-18.4485 -4.750311,-27.99023 2.507554,1.72503 4.372017,9.76482 5.638495,14.14817 0.558176,2.2627 2.436679,10.31561 1.542554,3.55039 -0.599481,-7.14797 -2.655708,-14.12495 -3.018348,-21.273286 3.84521,-4.929964 -5.857052,-4.968946 -7.359254,-9.163969 -3.776522,-3.436831 -0.924984,-7.896076 0.952932,-11.433528 1.648116,-3.353424 -0.0031,-7.521368 1.702708,-10.953261 2.403297,-4.656879 3.026755,-10.2704622 6.533242,-14.2869712 5.413345,-4.01319303 13.349057,-4.267158 18.588518,0.202172 2.379318,0.997894 4.007781,6.204986 6.106258,2.310991 4.412154,-5.28834303 12.305991,-6.809049 18.376389,-3.570864 6.002448,1.915149 6.535078,9.2090662 8.991738,14.1340632 0.70563,5.52451 0.45736,11.249117 4.15615,15.88338 3.17997,5.659297 -2.83118,10.507194 -7.41314,12.687251 -3.24644,0.887687 -3.16859,1.224891 -1.42107,3.542468 -0.58595,6.980714 -2.35393,13.839174 -3.41732,20.746234 2.4768,-6.17937 3.58612,-13.3251 8.14766,-18.38854 -0.81087,12.36735 -3.60515,24.53371 -6.4906,36.55011 -0.6741,-3.4063 -0.44148,-9.90628 -0.94199,-11.39137 -0.47417,7.91379 0.4454,16.56291 -4.511609,23.3599 -3.517957,4.349665 -6.231429,10.271645 -11.767949,12.293115 -3.404709,1.00204 -7.066056,0.95412 -10.575668,0.70586 z m 12.533195,-10.72519 c -2.135985,-1.08092 -4.485322,-2.247805 -0.685271,-0.79301 5.72812,2.6662 10.339528,-3.320615 11.523489,-8.328015 -0.249712,-2.23393 -3.010184,6.80932 -5.913768,7.52429 -3.871011,0.669315 -1.833162,-1.32161 -5.585908,-1.26186 1.384124,-1.54453 -7.419321,-4.04272 -10.24518,-4.26914 -3.904276,0.0387 -9.786599,1.60079 -12.476241,-0.13482 1.250318,2.44759 7.320245,2.83214 1.644888,3.94171 -4.623471,-2.89823 -5.886357,-10.15815 -7.318197,-15.39124 -0.357071,-2.70713 -0.578921,-6.7473 -0.53266,-1.95277 -0.42664,6.19397 2.066808,12.41154 5.812275,17.25448 4.609483,3.475595 10.756614,-2.51327 16.086264,0.38232 2.653463,0.6677 5.168822,2.544095 7.690309,3.028055 z m 1.870207,-8.485065 c 6.686509,-1.49615 8.506017,-8.31989 8.448859,-14.26424 0.326889,-8.50642 -0.263489,-17.36017 -3.488443,-25.31602 -2.497605,-5.838472 -9.597473,-4.191723 -14.627594,-4.116166 -5.223976,0.04804 -12.962355,-1.795328 -15.779323,4.012526 -3.314864,9.96333 -3.885647,20.83147 -2.556951,31.20712 0.657144,6.43968 7.801856,8.51052 13.270054,6.97984 5.036203,-0.73336 9.821711,2.70612 14.733398,1.49694 z m -1.3321,-3.09014 c -2.469788,-2.32279 2.554025,-9.28215 2.80933,-9.78579 1.076725,2.79569 1.473504,10.25064 -2.80933,9.78579 z m -4.074398,-0.77052 c -1.660897,-6.42816 6.967651,-1.14538 0.466522,0.45001 z m -15.880104,-0.49103 c -1.981258,-1.77022 -1.42165,-9.27711 0.366396,-8.62834 0.0099,2.2173 5.991535,11.73947 -0.366396,8.62834 z m 5.261188,0.55566 c -5.819221,-3.76827 4.837593,-5.18423 1.66092,-0.16175 l -0.783986,0.37108 z m 3.759001,-0.28318 c -4.589068,-4.55024 6.069024,-3.48683 1.201597,0.39702 l -0.337885,0.10078 -0.863712,-0.49787 z m 3.418409,-0.13229 c -3.322185,-4.9408 6.835884,-2.47136 1.19851,0.319 l -0.635311,0.0101 z M 44.391244,62.065945 c -3.32762,-2.76351 -0.461923,-14.102515 3.132303,-7.83517 -0.983145,1.52353 -1.455899,8.98537 -3.132303,7.83517 z m 21.295283,-1.03163 c -1.508817,-2.39573 -3.26223,-11.466575 1.692159,-7.9327 1.300483,0.80554 -0.2358,12.76343 -1.692159,7.9327 z m -13.241664,-4.797 c -2.924032,-3.66721 4.353344,-6.884097 3.385561,-1.12939 0.611776,2.30392 -2.157676,1.18579 -3.385561,1.12939 z m 4.299479,0.18183 c -2.790705,-6.250211 6.670524,-4.92778 2.640373,-0.12965 -0.859722,0.17399 -1.769629,0.35476 -2.640373,0.12965 z m -8.200046,-0.31075 c -2.732629,-8.603552 8.224315,-0.97551 0,0 z m 12.239983,-0.71885 c -1.246453,-10.111757 7.073823,2.46868 0,0 z m 15.081879,0.62296 c -0.797391,-5.785548 -2.510123,-11.586046 -6.514995,-15.999429 -1.642702,-4.179475 -6.653987,-6.295264 -8.55763,-9.128465 4.180488,-2.929605 9.228455,4.093291 14.008621,4.648368 -0.225047,-0.753913 -8.877038,-5.047208 -2.59991,-2.991158 3.020639,0.42029 11.858366,-0.102527 11.860326,-0.169964 -4.12214,0.164084 -2.34185,-2.205922 -3.17699,-1.889577 -3.276457,2.528004 -10.771917,1.151936 -11.910756,-0.406377 3.927962,1.299855 8.460299,1.199053 11.738466,-1.569787 1.99889,1.582482 9.12804,3.469934 3.6526,0.989147 -3.46408,-2.265078 -6.12801,-8.527958 -9.790245,-8.634462 4.720245,-2.084028 6.969215,4.605023 9.526235,6.615202 C 83.05127,23.870454 80.38957,19.41846 77.316689,18.377655 79.82876,15.988306 84.23,18.904948 84.88676,19.264262 83.44651,14.436981 76.916834,7.6021968 72.516676,13.45946 c -3.522246,2.837291 -8.608701,10.36121 -13.330741,6.243971 0.15196,-2.825115 2.920894,-5.199597 -0.72139,-1.743427 -1.752162,2.595196 2.233601,7.379657 -2.568456,5.6163 -4.322741,1.726789 2.060675,-6.079124 -2.132361,-6.925643 1.175284,2.613662 0.07758,5.087122 -0.174371,2.545475 -3.309998,4.958385 -9.470679,-0.576591 -12.710148,-3.087209 -3.574278,-5.986711 -11.355258,-4.693886 -13.171684,1.967978 -4.450378,5.686367 8.690461,-2.771151 4.276272,2.218462 -1.70243,1.34238 -5.758072,10.331043 -1.742792,4.739038 -0.06811,-2.635104 7.681891,-5.644927 5.672504,-4.014759 -4.32443,2.246043 -5.048536,8.374639 -10.191528,9.746775 4.078274,-1.398922 7.15515,-3.395174 10.977862,-0.326662 2.133842,0.805072 10.517258,-2.21488 4.447051,0.522697 -2.256937,2.488591 -9.92196,-1.857482 -9.357815,-0.677068 2.685908,1.310298 -5.890789,1.855503 -0.578556,1.50361 3.920454,1.047115 11.425347,0.04706 12.998243,-0.24175 -1.683382,1.294767 -9.253515,5.304416 -2.987877,2.709008 3.277061,-0.426621 9.013964,-7.419942 10.570961,-2.859737 -4.31788,2.295517 -7.126053,6.693319 -9.861142,10.854251 -4.073968,4.499671 -5.390076,10.443265 -5.025395,16.366395 -0.230773,2.9555 0.0738,6.00271 0.608429,1.2391 0.570689,-7.30106 3.25901,-14.454597 8.221746,-19.892415 0.452877,3.392246 3.671616,1.123121 5.095732,2.814646 2.120077,5.361547 7.596824,4.222296 9.752566,-0.478015 2.241555,-1.004739 5.25271,0.314669 5.920481,-3.292577 7.036717,8.681218 8.887084,20.101961 9.620833,30.933711 0.02115,-4.6428 0.294376,-9.30645 -0.258942,-13.92911 z M 53.217114,37.530169 c -1.70607,-2.011356 -4.652422,-1.795797 -2.922346,0.29195 -5.038732,2.223141 -1.473561,-6.327589 2.070836,-5.818172 1.515044,-3.239368 -2.6427,-5.857459 2.660319,-6.924871 2.308735,-0.338572 9.903491,1.858742 5.010587,4.447439 -1.800427,4.131693 8.474966,5.081944 3.933123,9.318198 -2.49133,-0.69745 -2.288587,-1.378607 -1.088573,-2.366991 -3.328967,-1.572135 -6.070138,5.800914 -9.663946,1.052447 z m 18.145457,-8.645551 c -4.921792,-0.515686 -4.964785,-3.183212 -0.770605,-4.83142 2.731666,-2.76179 10.362424,2.530339 5.175956,4.726425 -1.436908,0.375172 -2.946475,0.258138 -4.405351,0.104995 z m 1.984375,-1.408615 c 2.151066,-4.766042 -6.081831,-0.894919 -0.742784,0.454187 z m -35.953614,1.032494 c -7.04932,-1.353206 2.58317,-8.749632 5.48897,-3.943656 6.164842,3.269499 -3.223763,4.281132 -5.48897,3.943656 z m 3.039527,-0.9704 c 3.251807,-6.196389 -6.659098,-0.829434 0,0 z M 61.201926,13.932978 c 2.735108,-1.193012 4.585934,-2.787849 0.536947,-0.828389 -4.842017,2.332144 -10.291849,0.695518 -14.717968,-1.772949 3.743138,3.541251 9.453005,5.415581 14.181021,2.601338 z m -0.424989,-1.556753 c 4.065592,-1.184513 -7.085813,0.858426 -7.448514,-0.526925 2.223558,1.395865 5.025748,1.275845 7.448514,0.526925 z m 18.769803,79.26889 c 2.55369,-7.20099 3.67864,-14.83735 6.04071,-22.06708 2.48132,-4.2998 7.55698,-7.27241 7.50005,-12.75944 0.78519,-3.62795 3.10815,-13.627154 7.29859,-7.393333 5.88185,5.460943 11.08951,12.245453 13.17576,20.052393 -8.81789,0.90122 -18.13554,3.47558 -24.62262,9.9878 -3.81199,3.5035 -6.5223,7.93728 -9.39249,12.17966 z M 29.576281,83.328875 C 22.514125,74.460805 11.472661,68.585415 0,69.015585 c 2.858381,-8.62909 8.900406,-16.08062 15.945936,-21.713227 3.795849,-1.543294 -2.178591,2.900286 1.314208,4.220287 2.072146,4.90218 2.732691,10.41919 6.145974,14.70507 3.283132,5.60335 4.640701,12.04575 6.99035,18.04529 z M 88.89867,59.424435 c -2.39487,-2.481 -1.70278,-5.20829 1.20837,-3.46057 2.94864,-5.634147 1.94581,5.9671 -1.20837,3.46057 z m -65.847447,-0.50953 c -0.75859,-2.24983 -0.85961,-5.85502 1.077738,-1.93786 1.052478,1.20864 0.827103,3.73413 -1.077738,1.93786 z m 66.212157,-4.51581 c -0.45082,-2.17016 1.00603,-6.67277 1.79168,-2.83586 1.87432,-2.24716 4.38115,-6.998948 2.52702,-7.846582 0.14211,-2.145389 2.73982,-2.794811 2.97101,-1.471932 2.49663,-4.801551 -0.58136,-6.34732 -3.73291,-2.327483 -3.19883,-0.464907 5.89821,-8.838277 5.88689,-2.307453 -0.92588,6.316284 -3.94371,12.815717 -8.96517,16.87339 l -0.47853,-0.0841 z m -66.724122,-1.1754 c -3.87379,-5.079944 -7.27492,-11.489236 -6.671325,-18.046278 2.351859,-2.657167 7.110633,2.890629 3.875752,2.853765 -4.105425,-4.813793 -3.131132,3.182587 -1.985396,3.946373 2.075742,-1.971717 1.528059,3.441369 2.407408,4.792457 0.824703,1.409752 2.315765,4.306603 3.368872,7.323233 l -0.343297,-0.20451 z m 64.976762,-1.8029 c -0.23459,-3.384639 2.84068,-5.722702 0.79626,-0.907216 0.002,0.279066 -1.3211,3.096256 -0.79626,0.907216 z" /></svg>
