<svg xmlns="http://www.w3.org/2000/svg" xml:space="preserve" width="234.092" height="320.919" viewBox="0 0 61.937 84.91"><path d="M93.472 93.84c-12.786 0-25.001 3.37-28.573 17.681-8.403 33.674 12.743 73.176 33.14 66.48 21.027-6.903 35.016-51.103 21.682-73.896-5.83-9.966-16.305-10.266-26.25-10.265m.772 7.851c.169.001.279.069.384.201.146.184.682.304 1.191.267l.926-.068-.926.52c-1.038.582-1.4.61-2.447.197-.94-.37-.917-.527.132-.924.343-.13.57-.194.74-.193m-9.707 2.056c.083-.002.23.019.434.053 2.405.41 7.928 3.954 7.934 5.091.005.872-.376.937-1.083.184-1.027-1.094-4.27-3.49-6.09-4.498-1.113-.617-1.444-.824-1.195-.83m18.672.55c.057.044-.184.245-.83.627-.48.283-1.967 1.426-3.306 2.541-1.34 1.115-2.508 1.91-2.597 1.766-.489-.79.984-2.104 4.45-3.97 1.261-.68 2.187-1.039 2.283-.965m-28.295 2.244q.393-.016.807.003c4.792.226 11.639 3.993 12.824 7.727.898 2.83-7.867 6.374-12.198 4.934-2.551-.848-5.144-2.554-4.474-2.943.262-.153 1.74-1.1 3.282-2.106 3.733-2.434 5.146-3.059 7.009-3.102l1.51-.035-.565-.602c-2.063-2.195-7.126-3.543-10.434-2.776-1.532.356-1.475.113.153-.644.593-.277 1.303-.423 2.086-.456m37.833.104c1.23-.047 2.365.14 3.317.576 1.838.842 1.804 1-.137.644-2.74-.504-6.533.364-8.876 2.03l-1.264.898.77.158c2.174.445 3.7 1.089 6.592 2.782 1.746 1.023 3.69 2.056 4.319 2.297l1.143.438-1.54.973c-.847.535-2.136 1.19-2.863 1.457-.728.267-1.45.58-1.606.696-.47.352-3.072.473-4.55.212-2.167-.383-7.064-3.182-7.881-4.505-.452-.73 3.476-4.98 6.033-6.53 2.175-1.318 4.492-2.047 6.543-2.126m-20.493 11.08c.591.048 1.077.3 1.548.742.525.494.912.56 3.257.56 2.564 0 2.755.042 5.274 1.153 1.438.635 3.09 1.306 3.672 1.492s1.595.605 2.25.932c.654.327 2.127.787 3.272 1.023 5.26 1.083 7.222 3.439 7.85 9.423.146 1.382.324 2.781.397 3.109.31 1.402 1.511.137 2.493-2.627l.5-1.408.02 2.602c.024 3.313-3.144 14.29-6.869 23.796-.698 1.782-.792 1.815-.549.192.357-2.377.184-2.348-2.706.454-6.108 5.92-13.495 8.071-22.93 6.675-3.433-.509-7.912-2.54-11.135-5.05-1.396-1.088-4.662-4.247-4.86-4.361-2.017-1.166-.313 4.35-.173 4.928.28 1.091.474 2.02.432 2.063-.184.19-2.19-5.067-4.017-10.53-1.096-3.274-2.63-7.68-3.409-9.79-1.673-4.531-2.063-6.635-1.81-9.755l.184-2.275.704 2.245c1.467 4.683 1.964 4.73 2.797.26 1.244-6.67 2.525-7.971 9.628-9.785 2.248-.574 4.798-1.748 9.91-4.564 2.002-1.103 3.284-1.586 4.27-1.505zm4.84.318c.384-.035.76.052 1.199.27.458.229.714.404.569.39a94 94 0 0 1-1.588-.193c-1.231-.158-1.27-.185-.569-.391q.197-.058.39-.076m1.05 1.991c-2.115-.116-3.251 1.7-3.251 5.323 0 4.734 2.902 5.914 6.717 4.463 2.334-.887 2.201-7.471-.037-8.624-.917-.473-2.723-1.123-3.429-1.162m-7.662.115c-3.164.021-6.587 4.377-4.502 8.726.645 1.343 5.884 1.848 7.182.797 1.561-1.264 1.313-7.8-.334-8.804-.822-.502-1.616-.724-2.346-.72m16.668 2.987c-1.429-.038-1.884 2.2-2.204 3.93-.622 3.365-.448 18.308.545 20.39.21.438 5.201-14.035 5.52-15.008.457-.995 1.182-5.992.595-6.7-.673-.812-3.599-2.59-4.456-2.612m-27.54.943c-3.032-.072-4.583 3.142-2.726 7.34.52 1.177 5.966 16.39 6.218 15.722.826-2.193.598-13.598.57-14.912-.037-1.713.072-7.479-1.248-7.81-.516-.13-2.38-.33-2.813-.34m-5.644 2.487c-2.52.175-6.055 9.731-.981 8.908.516-.084.978-.3 1.269-.56 1.56-1.402.604-8.05.2-8.251a.93.93 0 0 0-.488-.097m40.715.374q-.226.042-.445.176c-.593.367.003 2.996-.855 5.612-.885 2.698 2.5 4.126 4.3 2.136 1.974-2.18-.735-8.35-3-7.924m-.804 25.277c-.834.064-1.746.114-2.75 1.063l-1.129 1.05.527 1.365c.344.606.536 1.305.628 1.918l.2 1.015 1.87-1.17c.574-.46.998-.62 1.51-1.244 1.88-2.295.977-4.139-.856-3.997m-39.66.386c-1.73-.094-1.455 1.321.528 3.658 2.316 2.73 2.98 2.519 3.52.376.2-.79.206-1.499.447-1.766.517-.574.405-.644-1.736-1.742-1.35-.693-2.695-.526-2.76-.526m32.32 2.167c-1.823.081-2.865 1.57-2.892 4.532-.033 3.673.566 4.252 3.393 2.84 3.73-1.864 4.738-5.796 1.541-7.13-.772-.324-1.434-.27-2.041-.242m-24.593-.19c-1.866.044-2.992 1.765-2.992 4.038 0 2.48 4.128 4.916 5.61 3.326 1.316-1.414 1.883-5.522.382-6.437-.813-.496-2.236-.945-3-.927m6.96 2.602c-1.404-.068-2.143.316-2.018 2.316.249 3.992 2.674 5.747 5.754 5.13 1.177-.235 1.591-1.32 1.591-4.176 0-2.683.084-2.608-3.384-3.055-.844-.11-1.475-.193-1.943-.215m10.142.112c-2.065.147-4.02 1.304-4.015 2.71.019 4.336 3.037 5.767 5.963 3.982 1.815-1.106 2.397-6.211.844-6.704-.643-.204-2.104-.036-2.792.012" style="fill:#000" transform="translate(-63.009 -93.84)"/></svg>