<svg xmlns="http://www.w3.org/2000/svg" xml:space="preserve" width="371.264" height="505.23" viewBox="0 0 98.23 133.675"><path d="M106.902 88.666a4 4 0 0 0-.625.011c-1.107.103-2.2.659-3.276 1.928-11.867 6.096-25.537 6.818-38.604 7.705-8.406-1.457-8.169 7.316-7.64 13.033.401 19.037.193 38.204 2.926 57.086 2.117 14.883 11.225 27.584 22.098 37.5 7.319 6.233 14.962 12.07 23.55 16.246 5.457 1.127 10.3-3.963 14.203-6.628 4.962-3.775 10.037-7.848 14.022-12.355 9.79-9.755 16.393-22.56 18.77-36.197 2.24-16.634 1.533-33.5 2.112-50.245-.966-5.726 2.88-14.713-3.157-18.068-11.652-.984-23.584-1.516-34.66-5.676-3.338-.807-6.588-4.175-9.719-4.34m40.69 20.13c1.953-.226 1.382 4.589 1.337 7.605-.614 20.118.837 40.979-6.307 60.177-5.429 14.828-17.921 25.621-31.307 33.226-1.147.613-2.262 1.402-3.56 1.656.01-23.7-.027-47.402.037-71.103.854-6.1-1.737-15.509 1.58-19.349 12.16-1.421 24.514-4.067 35.312-10.051 1.325-1.45 2.256-2.085 2.907-2.16" style="fill:#000;stroke-width:.978462" transform="translate(-56.54 -88.66)"/></svg>