<?xml version="1.0" encoding="UTF-8" standalone="no"?>
<svg
   width="75.8871mm"
   height="103.7945mm"
   viewBox="0 0 75.8871 103.7945"
   version="1.1"
   xml:space="preserve"
   xmlns="http://www.w3.org/2000/svg"
   xmlns:svg="http://www.w3.org/2000/svg"><g
     style="display:inline"
     transform="translate(-65.851831,-89.071447)"><path
       style="fill:#000000"
       d="m 141.34527,192.38194 c 0.74627,-0.82462 0.49967,-1.55683 -1.33037,-3.95033 -2.36399,-3.09185 -7.143,-10.36392 -8.25024,-12.55413 -2.01052,-3.97693 -1.29724,-5.86788 3.17291,-8.41169 1.91982,-1.0925 2.62855,-2.18195 2.57913,-3.96462 l -0.0331,-1.19475 -0.18274,1.1217 c -0.2647,1.6248 -1.97873,3.24392 -3.43408,3.24392 -0.51429,0 -0.50983,-0.0361 0.11873,-0.96234 0.35919,-0.52928 0.78589,-1.45202 0.94824,-2.05052 0.36408,-1.3422 0.1786,-5.94614 -0.26822,-6.65757 -0.29412,-0.46831 -0.3102,-0.45016 -0.17389,0.19631 0.23423,1.11088 -0.3081,4.2584 -1.05538,6.12507 -0.37299,0.93173 -1.3015,2.45338 -2.06334,3.38145 -0.76184,0.92806 -1.60076,1.98505 -1.86425,2.34885 l -0.47908,0.66146 0.1734,-1.05833 c 0.0954,-0.58209 0.82052,-2.42756 1.61145,-4.10105 0.79093,-1.67348 1.57166,-3.75708 1.73496,-4.6302 0.3738,-1.99864 0.13774,-4.98566 -0.53366,-6.75264 -0.59009,-1.55298 -2.41391,-4.45552 -3.26014,-5.18837 -0.56078,-0.48565 -0.56026,-0.47801 0.0296,0.43163 0.3303,0.50932 0.97894,1.69995 1.44143,2.64584 0.78254,1.60045 0.84089,1.91295 0.84089,4.50348 0,2.61633 -0.0519,2.88674 -0.86345,4.49791 -0.82722,1.64233 -2.81933,4.20625 -3.07091,3.9524 -0.0662,-0.0668 0.16376,-0.95494 0.51108,-1.97359 0.46248,-1.35641 0.63332,-2.44091 0.63832,-4.05223 0.006,-1.95626 -0.0939,-2.41821 -0.90199,-4.16719 -0.9984,-2.16091 -1.41307,-2.60728 -0.78271,-0.84256 0.22092,0.61847 0.46029,1.89839 0.53194,2.84427 0.11176,1.47535 0.0346,1.90783 -0.54299,3.04271 l -0.67327,1.32292 0.15223,-1.62485 c 0.0837,-0.89367 0.0616,-2.32242 -0.0491,-3.175 l -0.20132,-1.55015 -0.3479,1.71979 c -0.19134,0.94589 -0.67612,2.61276 -1.07729,3.70417 l -0.7294,1.98437 -0.18085,-2.38125 c -0.1096,-1.44303 -0.0645,-3.00672 0.11443,-3.96875 0.1624,-0.87312 0.28966,-3.13531 0.2828,-5.02708 -0.0142,-3.90851 -0.43609,-5.9837 -1.68844,-8.3045 -1.18222,-2.19086 -8.23195,-10.94388 -7.80209,-9.68717 0.40032,1.17034 1.46072,5.66055 1.71831,7.27605 0.3039,1.90596 0.38326,11.71301 0.0971,11.99917 -0.4607,0.46069 -1.15293,-3.10026 -1.40677,-7.23667 -0.4063,-6.62074 -1.14235,-10.00606 -2.93384,-13.49375 -1.1295,-2.1989 -5.65897,-9.89493 -6.40402,-10.88107 l -0.4747,-0.62831 0.17005,0.79375 c 0.58338,2.7231 0.88563,17.02927 0.39409,18.65313 l -0.20023,0.66145 -0.16759,-0.66145 c -0.0922,-0.36381 -0.28246,-2.86412 -0.42284,-5.55625 -0.28315,-5.42993 -0.74336,-8.49986 -1.69652,-11.31716 -1.33105,-3.93426 -2.40339,-5.31848 -11.616569,-14.99525 l -1.52443,-1.60113 1.30806,2.51354 c 2.15702,4.14489 2.89254,6.54897 3.56171,11.64166 0.94868,7.21981 0.81751,8.34222 -0.57982,4.96122 -1.16595,-2.82117 -1.80798,-5.07831 -2.71047,-9.529 -0.81799,-4.03401 -1.57854,-6.25113 -2.8232,-8.23009 -0.79299,-1.26083 -3.92193,-4.58241 -4.70325,-4.99283 -0.504,-0.26474 -0.50787,-0.25391 -0.0813,0.22768 0.67066,0.75713 1.98558,3.70994 2.51902,5.65677 0.57623,2.103 0.61411,6.85581 0.0643,8.0698 -0.32944,0.72743 -0.37499,0.46217 -0.54519,-3.175 -0.27213,-5.81504 -1.35711,-8.90348 -4.16024,-11.84227 -1.86629,-1.956604 -4.19636,-3.671885 -7.64108,-5.62497 -3.27241,-1.85539 -4.41821,-2.771797 -5.39869,-4.317863 l -0.74773,-1.17904 -0.29158,0.766445 c -1.68849,4.438267 -2.33186,11.734598 -1.42755,16.189578 1.15259,5.67808 6.79546,11.70593 14.66728,15.66792 1.23693,0.62256 3.02286,1.4036 3.96875,1.73564 1.54652,0.54288 1.62819,0.60569 0.81065,0.6234 -1.73473,0.0376 -4.4007,-0.81652 -7.88164,-2.52505 -2.93638,-1.44124 -3.83881,-2.03701 -5.61142,-3.70456 -1.16178,-1.09291 -2.36896,-2.40237 -2.68264,-2.9099 -0.31367,-0.50754 -0.61796,-0.87515 -0.67619,-0.81692 -0.18718,0.18719 1.98208,6.18796 2.7144,7.50876 1.86899,3.37088 3.22231,4.94301 5.91851,6.87542 4.29164,3.0759 7.7546,4.52174 17.46249,7.29087 l 1.19063,0.33962 -1.98438,0.0834 c -2.91446,0.12244 -6.66889,-0.39162 -9.30124,-1.27354 -2.6959,-0.90321 -6.14157,-2.58137 -7.29783,-3.5543 -0.44414,-0.37371 -0.88205,-0.67948 -0.97314,-0.67948 -0.21874,0 0.58924,1.58088 2.70455,5.29167 3.91916,6.87519 6.73226,9.66551 12.52297,12.42153 3.42841,1.63172 5.93747,2.47081 9.488439,3.17315 3.41979,0.6764 8.46667,2.12171 8.46667,2.42465 0,0.12303 -0.32742,0.16593 -0.7276,0.0953 -0.40018,-0.0706 -2.6702,-0.30632 -5.04448,-0.52384 -7.788819,-0.71358 -11.126169,-1.73058 -15.873539,-4.83717 -0.4141,-0.27098 0.12707,0.78657 1.6779,3.2789 4.34624,6.98485 6.61579,9.68441 9.27397,11.03114 1.831899,0.92811 5.222339,1.65743 11.355209,2.44266 6.81693,0.8728 8.62739,1.18982 8.44845,1.47935 -0.0799,0.12932 -0.4805,0.23512 -0.89018,0.23512 -0.40967,0 -1.25411,0.17967 -1.87652,0.39927 -2.07853,0.73335 -3.73153,0.78433 -5.17578,0.15965 -1.23387,-0.53369 -1.26621,-0.53558 -0.63826,-0.0373 1.83955,1.45967 4.4235,2.07732 7.12716,1.70364 1.02777,-0.14206 1.86867,-0.17695 1.86867,-0.0775 0,0.42437 -2.96109,0.89238 -5.42396,0.85727 -2.95285,-0.0421 -5.05049,-0.65019 -6.52625,-1.89196 -0.76543,-0.64407 -0.80516,-0.65253 -0.51461,-0.10965 0.55507,1.03717 2.87329,2.63538 4.71966,3.25381 2.49861,0.83688 5.615,0.83873 8.22224,0.005 1.06276,-0.33989 2.00432,-0.54595 2.09237,-0.4579 0.24474,0.24473 -4.28287,2.25709 -5.81983,2.58671 -2.76835,0.59371 -7.11309,-0.4041 -10.70298,-2.45803 -0.76586,-0.43818 -1.39247,-0.73465 -1.39247,-0.65883 0,0.33963 6.32679,4.28794 8.02914,5.01067 1.69309,0.71881 2.18577,0.80503 4.67086,0.81745 2.48382,0.0124 3.02932,-0.0766 5.14937,-0.83996 2.7365,-0.98537 3.58532,-1.09453 2.25896,-0.29052 -0.50932,0.30874 -1.36716,0.95798 -1.90631,1.44276 -2.59535,2.33363 -4.55436,2.48604 -9.86765,0.76768 -0.52692,-0.17041 -0.52694,-0.16933 -0.005,0.2552 0.80072,0.65105 4.50495,1.73353 5.93213,1.73353 0.69838,0 1.65081,-0.13283 2.11652,-0.29517 1.44412,-0.50343 1.24315,-0.0112 -0.26447,0.64769 -3.03818,1.32788 -2.85526,1.22218 -1.82622,1.05533 1.48586,-0.24094 2.95518,-1.00748 4.23333,-2.20854 2.11358,-1.98609 2.85297,-2.44647 3.92912,-2.44647 0.55355,0 1.31749,0.20381 1.69766,0.4529 1.62687,1.06597 6.92133,8.56554 10.61157,15.03124 0.58773,1.02977 0.85124,1.25677 1.45888,1.25677 0.40787,0 0.93863,-0.21773 1.17947,-0.48385 z m -13.75091,-19.56133 c -0.85465,-1.12352 -6.49501,-8.24729 -12.53412,-15.83059 -17.457398,-21.92122 -30.909548,-38.94167 -35.216158,-44.55756 -3.60906,-4.70627 -8.78186,-12.634484 -9.60672,-14.723967 -0.22119,-0.560307 -0.25754,-0.800095 -0.0808,-0.532861 0.17676,0.267233 1.29765,1.970378 2.49087,3.784768 3.9097,5.94499 7.23082,10.12285 30.903418,38.87542 10.1907,12.37755 16.35904,20.43517 21.96172,28.6883 4.60894,6.78929 5.71588,9.07386 2.08178,4.29649 z m -21.26537,-9.84537 c -4.87915,-0.94714 -8.129398,-2.60468 -11.895658,-6.06647 -1.50277,-1.38128 -1.22131,-1.39338 0.57935,-0.0249 3.25373,2.47279 9.023948,4.72706 15.543108,6.07229 1.52438,0.31455 2.83406,0.64028 2.91042,0.72385 0.24747,0.27084 -4.55363,-0.20325 -7.13722,-0.70477 z m 5.13465,-5.04672 c -0.85953,-0.29779 -3.9512,-0.88422 -6.87038,-1.30319 -5.484208,-0.7871 -7.601518,-1.34225 -10.143798,-2.65966 -1.42012,-0.73591 -2.98607,-1.8275 -2.63933,-1.83983 0.091,-0.003 0.83213,0.28893 1.64688,0.64925 2.16221,0.95623 6.41315,1.96763 9.508838,2.26239 3.97977,0.37894 5.67812,0.76584 7.59647,1.73059 1.64035,0.82494 2.9568,1.67548 2.62111,1.69347 -0.0864,0.005 -0.86026,-0.23523 -1.71979,-0.53302 z m 6.56466,-10.10804 c -0.04,-5.25247 -0.0942,-5.83122 -0.8231,-8.79623 -0.42916,-1.74561 -0.74412,-3.20999 -0.69992,-3.25419 0.14305,-0.14305 1.72303,3.41506 2.19512,4.9434 0.56428,1.82678 0.62354,7.25551 0.10719,9.819 -0.19052,0.94588 -0.39951,1.98768 -0.46442,2.3151 -0.0649,0.32742 -0.15267,0.59532 -0.19503,0.59532 -0.0424,0 -0.0963,-2.53008 -0.11984,-5.6224 z m -18.350808,1.50944 c -6.17834,-1.14176 -11.31128,-3.84403 -15.72678,-8.27944 -1.22809,-1.23363 -2.17677,-2.29909 -2.10817,-2.36768 0.0686,-0.0686 0.96969,0.6576 2.00245,1.61378 3.82058,3.53727 9.435,6.55609 15.23532,8.19189 4.535758,1.27917 4.288718,1.19302 3.507588,1.22323 -0.3841,0.0148 -1.69379,-0.15695 -2.910408,-0.38178 z m -2.60892,-7.9882 c -1.72842,-0.77858 -5.74273,-2.19027 -10.78298,-3.79199 -2.80025,-0.88988 -4.29827,-1.62226 -4.29827,-2.10143 0,-0.16119 0.32573,-0.10682 0.78601,0.1312 0.4323,0.22355 3.22809,1.05586 6.21287,1.84958 5.86943,1.56081 6.20971,1.69362 9.06276,3.53714 2.907578,1.87876 2.609888,1.99278 -0.98039,0.3755 z m 10.195958,-5.95666 c -0.0995,-2.94679 -0.14241,-6.72703 -0.0952,-8.40052 l 0.0857,-3.04271 0.46302,1.77417 c 0.36205,1.38728 0.46302,2.86453 0.46302,6.77421 0,5.20104 -0.19884,8.25267 -0.53775,8.25267 -0.10878,0 -0.27924,-2.41102 -0.37879,-5.35782 z m -23.292828,-8.66091 c -3.71801,-1.46633 -5.74879,-2.47878 -7.9375,-3.95724 -2.01597,-1.36178 -1.70885,-1.37213 0.74547,-0.0251 1.05114,0.5769 3.77155,1.75664 6.04535,2.62164 4.13512,1.5731 5.5123,2.25458 5.5123,2.72771 0,0.31773 -0.45558,0.17508 -4.36562,-1.36699 z m 13.50545,-2.7906 c -0.51801,-1.88722 -1.12282,-4.47099 -1.344,-5.74173 -0.22118,-1.27073 -0.68711,-3.29427 -1.0354,-4.49675 -0.34829,-1.20247 -0.58483,-2.23474 -0.52565,-2.29392 0.21028,-0.21028 1.446,2.82948 1.94774,4.79126 1.07937,4.22029 2.42839,11.6736 2.04762,11.31301 -0.0816,-0.0773 -0.57229,-1.68466 -1.09031,-3.57187 z m -21.53115,-10.7274 c -3.50961,-1.87523 -5.34584,-3.17549 -6.74796,-4.77833 -1.27095,-1.45289 -2.83024,-4.31605 -2.80795,-5.15595 0.007,-0.27319 0.3428,0.17951 0.74567,1.006 1.08698,2.22993 2.99003,4.28626 5.55578,6.00325 2.79281,1.86894 5.94943,4.02446 6.09873,4.16456 0.42098,0.39502 -0.69675,-0.0921 -2.84427,-1.23953 z m 3.54931,-8.18202 c -0.59477,-3.79987 -0.8148,-4.51203 -1.88572,-6.103413 -0.51041,-0.758466 -0.87864,-1.428413 -0.81828,-1.488769 0.0603,-0.06036 0.5549,0.433521 1.09898,1.097505 1.45694,1.777997 2.24588,4.204057 2.4083,7.405677 0.1694,3.33944 -0.20433,2.91559 -0.80328,-0.911 z"/></g></svg>
