<svg xmlns="http://www.w3.org/2000/svg" xml:space="preserve" width="363.159" height="611.323" viewBox="0 0 96.086 161.746"><g fill-rule="evenodd"><path d="m18.072 72.306 9.26 18.27q5.645 10.872 10.259 17.419l6.174 7.974 9.591 11.336 4.746 4.882q6.507 6.14 12.422 10.371l10.53 6.573 6.204 3.398 6.45 3.12q1.297.55 1.501 1.72l.813 3.341.063.6q-.167.694-.692.28l-3.767-2.236-17.632-11.308L67.661 143q-2.456-1.871-4.867-3.85l-6.04-4.986-5.873-5.233q-7.282-7.616-10.75-12.657l-4.756-7.563-8.585-14.605-7.371-15.365-2.694-8.217-.08-.862.154-.063zm17.35-25.71-2.953 1.55q-5.674 3.01-9.296 6.889-4.467 4.667-5.988 10.203l-.169.247-.597-3.248q-.669-1.877.507-4.947 2.412-6.432 7.371-11.21 4.3-3.974 9.913-6.69l.077-.03 1.365 7.143zM11.899 20.488l.388.738.878 4.388.17 4.405-1.45-4.693q-.578-2.54-.14-4.776zm5.02-.864q-1.84 2.533-2.49 6.016l-.488-2.755-1.555-4.293-.173-1.093q.565-5.687 2.402-9.113l.169-.247.368-.418q1.814 3.383 5.881 7.914-2.397 1.595-4.114 3.989"/><path d="M13.388 63.372q.648.275.696.614l2.515 9.99 1.573 5 8.936 18.133 7.439 12.653q4.773 8.271 9.119 13.047l10.53 11.225.139.123-.015.185-3.13-.883q-11.538-4.196-22.386-13.772l-2.164-2.257q3.924-1.138 10.985.393l-.926-.52q-6.076-1.75-10.154-.55l-.694-.167q-4.764-5.592-8.282-11.418l-.062-.154q3.232-.858 6.653-.809 3.636.142 6.52 1.303l.123-.14-.988-.674-4.009-1.064q-3.962-.726-8.379.522l-.648-.275-1.24-2.184q7.329-1.35 12.96 1.296l-1.019-.752q-4.661-2.68-10.896-1.502L15.26 101l-2.69-7.324-.633-4.665-3.39-9.278-4.976-8.548-1.18-2.923-.172-.647 7.578-.288-.864-.366-4.611-1.448-3.13-.883q-.37-.03-.557-.49l-.15-3.25q.076-.479.554-.403zm35.756 22.06-3.406 8.623q-1.676 5.152-1.94 9.374l.473 2.94q1.41-6.475 3.292-10.456 2.247-4.845 5.806-9.325.756.321 1.53 1.35 1.16 1.321.287 2.927-3.385 5.573-4.097 13.555l-.157 8.027.35 3.08.185.015-.052-1.68q-.07-6.593.761-11.402 1.253-7.307 3.796-11.644l.214-.355q.821 1.368.286 2.479-1.896 4.166-2.586 9.545-1.018 8.553-.18 14.836l.53 1.754.372.477q-1.943-13.89 2.466-26.23l.154-.061.53 1.754 1.581 7.235-.07 1.818-1.41 15.78.153 4.144.406 1.447.154-.063.008-1.971.999-9.71 1.768-10.02q.013-.63.676-.54 1.37.072 2.097.762l.265.878-1.78 10.651q-1.038 7.398-.794 15.531l.026 2.943-1.53-1.35q-3.508-3.147-7.191-7.832-4.054-5.163-7.765-9.032-4.607-4.76-8.62-11.37L23.493 80.853l-1.737-3.414-3.914-9.245q-.249-.615-.096-1.124.709-4.224 4.204-9.304 3.08-4.556 9.23-7.935l4.598-2.574 2.382 7.002 2.811 6.737-3.797 2.34q-5.686 4.087-9.083 10.738L26.425 77.7q-.504 1.188-.254 2.25 4.24-12.092 15.188-18.216l.342.847-2.995 2.552q-2.642 2.32-5.939 6.783-2.837 3.83-4.086 7.825l-.439 2.236.185.014.32-1.202q.944-2.977 3.765-7.07 3.386-5.126 7.626-8.807l1.874-1.562 6.687 13.672q3.278-.966 5.222-.141l-.092.216q-2.667 4.03-4.685 8.335M14.182 7.755q-2.528 4.153-2.74 9.608l-.182.878q-1.176 3.07-.608 6.688l1.111 5.188q1.793 5.987 1.857 11.24l.197 12.447L.503 48.088l-.434-.63L1.59 37.27l2.06-10.406q.817-4.178.602-8.475-.267-5.977.52-10.231.315-2.096 2.17-4.814l1.933-2.302 1.184-.836q1.091-.62 1.773.625l2.67 5.722q.232.353-.06.74zm-1.766 46.346 1.205.766.19 1.355-.085 2.45-.847-.105-7.62-2.469L.65 54.65l-.51-.599-.14-4.328.122-.586zm11.37-8.62q-4.959 4.777-7.326 10.655l-.688 1.62-.144-1.463q-1.007-10.688-.765-25.37.184-4.638 1.22-7.83l1.469-3.01q1.64-2.362 3.915-3.818l7.557 6.968q3.322 2.684 4.187 7.703l1.057 7.268-.445.448q-5.23 2.56-9.192 6.04zM3.72 56.273l1.805.702 7.897 2.715.216.092.194 2.695-12.75-2.99-.387-.292-.444-3.758z"/></g></svg>