<svg xmlns="http://www.w3.org/2000/svg" xml:space="preserve" width="535.068" height="571.506" viewBox="0 0 141.57 151.211"><path d="m67 1.45-.55.55-3.3 5.2-.3.6Q61 8.85 57.8 11.65l-2.35 1.4-2 .6q-1.3.5-1.75 1.1l-.3 3.45 8.2 1.05.55-1.4v-.1l1.05-2.5.05-.1.05.05q1.25-2.75 2.45-4.7 1.45-2.3 2.8-3.5 1.4-1.4 1.3-2.55zm-2.41.915-.017.006q-.012.012-.025.026zM48.1 2.95l-2.9.4q-1.2.3-1.9.9l-1.2 1.7-1.65 3q1.1.55 1.75.6l2.75.4 2.7.85q.6.15.95-.25 1.15-3.6 1-5.35-.1-2-1.5-2.25M65.2 3q-3.75 3.15-12.15 7.95l-.15.25q-.95 1-1.4 2.85.85-1.2 2.7-1.85 3-1.15 4.9-2.75l3.8-2.9.2-.3ZM32.9 6.75a6.37 6.37 0 0 0-.7 3.5l-.1.15 4.05-.95zm7.247 1.768-.042.026-.005.065zM41.3 11.6l-8.2.95q-7.65 1.95-14.45 6.85A45.9 45.9 0 0 0 7.6 30.9L1.8 44.85l-.2.95-.15 1.2q.4 3.3 2.3 7.05L7.7 60.9q1.15 1.7-.5-2.15-1.4-3.5.5-.3 1 1.45 1.6 4.95l.05.3.2 1.5q.6 4.75 1.75 6.65-1.1-1.7-3.65-3.45L3.6 65.55l-.15-.2-.55-1.65a46 46 0 0 1-1.45-6.2q.4 3.2 1.3 6.2l.85 2.45 1.15 2.7.6 1.05.9 1.65 3.15 4.9a42.7 42.7 0 0 0 7.25 7.45l3.8 2.65 2.9 1.7 6-1.5 1.6-.6q.75-.35 1.35-.7 2.55-1.85 2.45-5.1l-1.55.1q-.65.15-.9.65l-.1.6q-.15-1.85.1-3.3 1.05-5.95 8.45-7.7 11.6-1.25 15.9-3.7 0 4.1-3.05 6.95-1.85 1.65-6.75 4.1-1.2 0-2.45-2.45-3.3 0-4.75 4.55-1.65 5.35-3.8 6.45l3.05-.15q2.15-1.1 3.05-1.1l-3.7 3c-1.328 1.112-2.52 1.88-3.591 2.333l2.591-.183 2.75-.75q.45-.2.2 1.1a73.4 73.4 0 0 1 8.85-8.5Q42.7 86 41.6 81.5q-.25-.7.3-1.8.5-1.05.75-.4.95 3.8 6.65.55.4-1.25.8-1.15l.75.2.1-.15v.05l.15-.05.15.2q2.75.1 4.9-3.8l2.282-5.163q.069-.257.237-.537l.53-1.2-1.649-2.05q-.2-.45.25-1.65.5-1.2.7-.9 1.8 3.1 5.35 3.55 3.5.45 6.15-2.1c.67-.623 1.158-1.3 1.478-2.024q.026-.09.06-.185.076-.214.165-.424c.194-.651.264-1.34.197-2.067q-.25-2.85-3.55-1.85-1.65.5-3.95 1.65l-3.7 2.15q-.3.2-.15-1.1.15-1.2.65-1.5l2.75-1.65q2.15-1.3 3.65-1.9 0-.5.2-.7 3.3-7.5 3.3-14.75l-.5-6-.05-.3q-2.5 1.1-3.7.55-3.6-1.65.35-9.45-1.7-2.9-3.9-4.95l2.45 2.8q-.1.8-.55.8-3.4 2.3-9.85 3.55l-11.25 1.8Q30.65 32.1 28.5 41.3q-2.25-3-2-7.95v-.1q-1.5 1.95-1.95 4.4-.15.5-.4.65-.3.25-.1-.4.6-3.45 2.65-6 .6-4.4.6-6.5-1.65.8-2.95 2.65l-1.95 3.5q-3.35-6.7 2.25-11.75 4.7-4.3 12.45-5.4-6.15 2-6.15 7.35 4.15-.8 7.6-3.8c1.29-1.125 3.094-3.176 5.403-6.141zm2.653.209 1.797.14L44 11.75zM34.66 90.683l-1.655.117H34.4c.084-.032.174-.08.259-.117m-1.655.117H32.3l-3-.4 3 .45zM62.1 14.7l-.45.8 3 2.75.4.45.45-.95.45-.9.05-.45-.35-.3-3.5-1.25zm5.455 4.718q.004.011.009.023l.012.032c.001-.022.001-.031-.004-.012-.01-.042.019.053-.01-.028-.002-.005-.008-.02-.007-.015m8.627 3.913q-4.98-.087-7.782 1.969l-.05-.05-.6.55-.9 1.55.25 4.45 2.5-1.9 8-6.3.05-.2q-.756-.055-1.468-.069m2.518.169-.25.55-11.25 8.9.05.65 1.5.05 1.55-.55q1.15-.45 2.8-1.45l2.75-1.7 4.7-2.4q3-1.55 4.6-2.95zm-62.56 9.222q2.204.022 3.91 1.728 1.9 1.9 2.05 4.8.15 3.55-2.35 5.85l-.15.25q-1.8 2.2-4.45 4.35-.75.6-.55-.45.2-1 1.25-1.8l.8-.75-.55.1q-2.65.25-4.6-1.65-1.95-1.85-2.1-4.8-.1-2.9 1.7-5.15 1.75-2.2 4.4-2.45.325-.03.64-.028m56.601.52-.026.016.012.009zM59.567 36q.246-.014.533.049l.05.55 2.75.3 1.6.1 1.45.4q.9.8.3 4-.35 2.3-1.65 3.35-.85.6-2.6.55l-2.7.1-.15-.1-.95-5.4q-.35-3.806 1.367-3.9M17.2 36.1q-1.7 0-2.9 1.25-1.2 1.2-1.2 2.95 0 1.7 1.2 2.85 1.2 1.25 2.9 1.25t2.95-1.25q1.2-1.15 1.2-2.85 0-1.75-1.2-2.95-1.25-1.25-2.95-1.25m23.2.8q1.913-.037 3.6 1.05 2.25 1.45 2.85 4.1.55 2.7-.9 4.95-1.55 2.25-4.15 2.8l-3.5-.15a6.2 6.2 0 0 1-2.8-1.9l.25.85v.6q-.1.85.9 1.55.75.55 1.7.8.45.1.05 1.5-.35 1.4-.75 1.3-1.5-.45-2.3-1.2-.7-.8-.7-2.35-1.35-4.35-.95-8.4.2-1.7.7-1.9l.25-.05q1.4-2.75 4.45-3.4a7 7 0 0 1 1.3-.15m18.45.95q-.2.35 0 1.2l.2 1.1.4 2.6.1.65.4.5.5-.15 2.25.15q2.05.05 2.75-1.7a5.4 5.4 0 0 0 .4-2q-.15-1.25-.95-1.65l-1.45-.3-1.55-.05zm-17.5 1.95q-1.7 0-2.85 1.2-1.25 1.25-1.25 2.95t1.25 2.85q1.15 1.25 2.85 1.25t2.95-1.25q1.2-1.15 1.2-2.85T44.3 41q-1.25-1.2-2.95-1.2m30.85 1.8-.7 4.75 3.15.55q1.95.15 2.95-.45l3.7-3.25q-5-.35-9.1-1.6m-20.45.95q0 2.95.95 5.2.95 2.5 2.75 3.35 3.1 1.55 6.55-1.35l5.65-6q.45 0-.9 1.75-1.15 1.4.9.7 2.1-.65 3.3-3.4a36.2 36.2 0 0 1-2.3 10.5l-5.1 2.9q-3.1 1.7-4.45 3.45.85-1.65 1.05-3.05l.15-3.05q-3.1.8-5.2 3.35-1.2 1.55-3.35 5.2 0-1.95 1.25-4.7 1.2-2.75 1.2-3.85-2.3 4.7-7.65 7.35-3.05 1.55-9.45 3.65 1.1-3.85 7.75-10.5 6.25-6.25 6.9-11.5m-46.3 2.6q.2 1.05.25 3.15l.25 3.05Q6.3 53.6 7.2 54.8q.7.75 1.5.95 1.05.35 1.45.6 1.85 1.1 1.95 4.1l.2 2.95.05.3.3 1.4q.15.25-.1.85l-.3.45q-.4-.8-.45-2v-1l-.05-1.05q-.1-1.7-.45-2.55-.4-1.4-1.5-2.1l-1.15-.45-1.2-.5q-1.9-1.4-2.2-4.9-.1-3.9-.35-5.5l.25-.85zM21.3 46.9l-.3 1.35q.85 4.9-.85 9.6-.7 0-1.2-.55L18.4 56q-.1-1 .5-2.7zm3 1.75q.5-.05 1.05.5 1.7 1.85 2.35 4.35.75 2.55.15 4.95v-.65q-.85 2.3-1.5 2.9-.4.45-.95.6l-.95 1.5-.4.6-.25.3-1.05 1.35q.45.2 2.75 1.95v-.05l.2.2.55.4-.25-.1q1.65 1.75 2.65 4.35l.7 2.35q.4 1.55.3 3.15v.05q0 1.3-.3 1.85l-.35.35Q26.15 81 22.8 81q-5-.65-7.4-2.4-2-1.55-2.45-3.25-.4-1.5.35-3.55.1-3.25 1.95-5.5 2.15-2.55 5.3-2l.3.1.1-.7v-.3q.1-1.45.65-2.95l.8-1.75q-.85-4.65 1.05-9.1.35-.9.85-.95m34 6.5q.2.05.05.65-1.55 6.65-1.9 7.3-1.7 4.2-5.2 4.4l-4.55-.55-4.65-.55q-5.6.3-9.75 3.85l-1.1 1q-.25.15-.2-.45l.25-.85 1.05-.9q4.8-4 10.65-4.05l3.8.5 3.85.6q3.5.2 5.3-3.55.7-1.4 2.05-6.85.1-.6.35-.55m25.038 4.658-.02.035.034-.007zM19.1 67.1l-.4 2.35.65.15.4-2.45zm-1.3.1-.9.2-.2 1.45.6.2zm2.45.05-.5 2.5 2.1.65.5-2.3a8.6 8.6 0 0 0-2.05-.85zm-3.85.3-1.15.85.95.25zm6.35.75-.5 2.2.35.05.3-2.15zm.25.25V71h.05l1.25.15.5.2.3-2.15zm2.35 1.9-.2.9 1.15.3zm-10.8.25-.15.85-.5 1.05q-.15.25.25.95l.8-2.25v-.15zm1.35 2.25-.95 1.75 1.2 1.1.55-2.2-.05-.05zm1.25.9-.65 2.2.75.5.6.3.4-2.3zm1.95 1.1-.5 2.3 1 .35.6-2.2zm1.65.65-.6 2.2.85.25.6-2.3zm1.35.2-.7 2.3 1.9.15.15-.45.45-1.9-.3.05h-.85l-.55-.15Zm5.05.25-1.35.15-.45 1.95 1.95-.45.1-.2zm-3 .15-.4 2.05h.8l.35-2.05zm4.34 7.028c.032.031.032.222.01.572l-.3.75q-2.05 1.5-4.65 1.55-2.5.05-4.65-1.35-.3-.2.35-1.4 2.15 1.35 4.6 1.35 2.45-.05 4.6-1.45.025-.037.04-.022" style="display:inline" transform="matrix(1.6914 0 0 1.6914 -2.452 -2.452)"/></svg>