<?xml version="1.0" encoding="UTF-8" standalone="no"?>
<svg
   width="89.586082mm"
   height="100.19605mm"
   viewBox="0 0 89.586082 100.19605"
   version="1.1"
   xml:space="preserve"
   xmlns="http://www.w3.org/2000/svg"
   xmlns:svg="http://www.w3.org/2000/svg"><path
     style="fill:#000000"
     d="M 46.467513,3.0595773e-4 C 48.432883,0.05513596 50.234173,7.477499 51.215553,10.146457 c 0.5605,4.042389 -5.99354,-0.787428 -8.197953,1.132748 -5.827,0.405994 2.202723,-8.389629 3.054593,-11.18846504 0.13229,-0.06542 0.2643,-0.09409 0.39532,-0.0904300023 z M 20.43965,2.482842 c 0.38474,-0.06123 1.16913,0.469845 2.53008,1.881022 3.35654,3.034353 13.3927,9.250801 4.4142,11.273214 -2.43356,2.41889 -2.91174,-1.36785 -3.83284,-2.931087 C 22.78874,10.476142 19.06558,2.701539 20.43965,2.482842 Z m -0.86868,1.55081 c 0.44937,-0.0071 1.09287,1.36809 1.56424,3.31711 1.83188,3.12376 1.19751,6.156591 -1.56838,8.635132 -1.66468,-2.691116 -0.53944,-6.095121 -0.51934,-9.04751 -0.05795,-2.057587 0.17396,-2.899175 0.52348,-2.904732 z m 25.616523,8.070825 c 9.71285,0.187045 19.44907,3.764244 26.21132,10.809676 -2.49252,13.577944 2.13799,-6.311034 13.77332,-8.960693 0.24056,0.128741 0.39261,0.379723 0.48369,0.713652 -4.76777,6.549157 -8.84538,13.643163 -14.42031,19.573999 -4.3173,0.7109 1.00302,4.568309 4.52324,3.362585 6.83301,-0.859104 -3.34681,2.319304 -1.63814,5.634284 -0.52913,-3.90788 9.45586,-5.946732 14.5004,-6.660061 4.62295,-2.688259 -8.55989,9.448811 -14.2322,10.628811 -0.29586,-3.89094 -0.95524,0.18161 -0.18655,1.82521 5.51002,3.65412 0.0938,7.18031 -3.03393,9.94823 -2.86444,6.94255 -2.86398,-4.10207 -3.12125,-4.64571 -2.31527,4.94395 3.18037,9.15993 1.4459,13.91801 -1.81038,3.93768 -4.23371,6.64741 -6.81715,6.59081 2.11857,0.0675 -2.0018,1.64049 -4.61109,2.2562 -3.71639,-1.78489 -7.64117,7.87226 -6.32003,5.16454 0.41405,1.89505 9.88502,-4.1458 10.75283,-3.68143 -0.33735,3.02564 -0.60184,14.65655 -7.88117,15.11742 -5.04299,1.19312 -11.707943,2.82068 -15.178913,5.25033 l -1.22732,0.85938 c -0.75085,0.52559 -1.77773,0.35763 -2.68046,0.37103 -4.26264,-0.86859 -9.49957,0.14693 -13.28446,-1.35082 -3.52863,-9.75622 -4.34442,-4.22593 -4.8829,-9.9999 1.95499,-2.43657 8.087,-2.96938 9.63093,-0.15038 -0.30896,4.39376 1.6628,-5.28518 2.57297,-0.21032 -1.36929,3.19643 3.5149,-5.13124 3.24683,0.26458 1.77899,-3.20997 2.95298,0.74012 4.83278,-0.79427 4.54082,-1.06339 0.22842,5.05212 3.00809,1.83607 4.253843,-2.74528 -0.49619,4.40435 1.88981,1.63245 3.829463,-3.68587 1.36466,3.60553 2.892323,1.18184 3.78501,-0.46432 4.33565,-3.80746 3.24528,-7.7189 0.69023,3.29834 -3.55264,2.73936 -2.72231,-0.68678 -0.49073,2.66971 -1.864253,1.04837 -1.987473,-0.53382 -0.3567,3.00367 -3.22189,-1.42165 -3.28094,0.18552 -1.50935,-1.20396 -0.25475,-1.95873 -2.64273,-0.42685 -0.7461,-4.77633 -1.89397,2.33369 -3.65249,-1.54099 -0.82943,1.85616 -4.14888,-1.52012 -4.4602,0.65267 -2.45302,-1.14122 -1.6615,-0.6739 -4.24832,0.0429 -0.65643,-4.21272 -2.55629,2.57959 -3.3016,-2.27014 -0.02898,5.42364 -3.08045,-1.92068 -2.25878,2.27118 -1.59436,-1.35247 -1.79041,2.31091 -2.68149,-0.66353 -0.57389,4.136 -0.90656,-1.84565 0.90434,-5.69733 3.89025,-5.45971 7.33385,-10.83106 9.82834,-16.99482 -1.21103,-2.97653 5.05893,-6.18697 0.67954,-5.31544 7.34996,-4.35413 7.15784,9.62988 12.90102,11.91762 5.408893,4.63094 0.27711,-0.51962 -1.4459,-3.11764 0.82891,0.2084 7.500783,8.13772 12.411123,6.70605 5.95898,-0.42433 8.15896,-8.82501 9.67848,-12.08712 -0.11379,-7.65512 -6.28603,-14.94925 -14.2229,-15.10244 -4.986723,-0.47552 -12.516533,9.30377 -15.274523,1.61489 2.47519,-6.552276 -2.59946,0.72035 0.24133,3.18069 2.61831,3.41476 1.93173,3.56558 -2.00194,1.31826 -7.46864,2.51853 0.6735,-6.2401 -3.46594,-8.323 1.34083,1.31065 -1.07184,10.47269 -5.55677,5.03793 -4.8587,-7.602768 -13.87768,-0.87743 -11.97705,6.38411 1.14535,9.08755 -0.80265,9.83193 3.58221,13.55111 0.70232,4.88445 9.58297,2.16819 10.41694,1.70842 -0.77692,4.71029 -10.06251,9.73854 -13.87254,3.06803 C 8.91238,63.80781 10.9978,57.33432 8.92717,51.38581 6.91198,45.71078 10.17333,40.49768 11.89857,35.353197 14.49593,23.987703 24.66098,15.857796 35.59325,13.044482 c 3.12131,-0.688086 6.35662,-1.002343 9.594243,-0.939995 z m 40.46833,2.562635 c 0.0104,-0.01428 0.0201,-0.02913 0.0305,-0.04341 -0.01,0.01664 -0.0193,0.03092 -0.0289,0.04754 -4.2e-4,-0.0015 -10e-4,-0.0026 -0.002,-0.0041 z m 0.002,0.0041 c 0.68004,2.516614 -2.43636,10.191143 -3.0918,13.632759 -0.004,5.393382 -5.47739,2.984213 -6.05751,0.355017 3.29393,-4.940649 6.18632,-8.894556 9.14931,-13.987776 z M 0,18.177974 c 3.88539,2.886611 7.4492,6.292304 11.18743,9.437667 1.14375,3.00299 0.46846,5.439184 -1.37407,5.66322 C 5.28333,29.931927 0.94173,21.770489 0,18.177974 Z m 11.18743,9.437667 C 9.99271,24.478784 6.81199,20.7231 0.84491,18.204846 c 3.19106,0.09119 10.39046,0.638109 14.10198,3.799768 4.19263,1.925634 -0.60545,4.695412 -1.50016,7.47758 -0.76737,-0.600744 -1.51104,-1.236968 -2.2593,-1.866553 z M 49.931113,52.43215 c 1.15861,-0.49907 2.49284,0.50066 3.71298,1.20547 1.66302,2.74793 1.27373,5.43305 -1.09143,6.83733 -2.84349,0.39129 -2.99449,0.94162 -4.9421,-0.20029 -2.94323,-3.63215 -0.93162,-6.44166 2.32055,-7.84251 z M 21.58835,61.38671 18.871904,61.18327 c -3.325263,0.34169 -3.692785,-6.41842 0.07043,-8.17591 0.22917,-0.0152 2.754331,-0.26016 3.450342,0.68335 1.531169,2.07565 3.72534,5.89895 -0.804323,7.696 z m 9.49348,-11.4639 c 2.3517,0.16357 5.94814,2.45789 5.1542,5.95933 -1.48865,-2.02642 -3.66618,-5.47627 -6.82542,-3.75326 -0.70252,-1.63502 0.2602,-2.30421 1.67122,-2.20607 z m -1.748334,12.96658 c -1.36732,0.13539 -5.454848,6.4579 -3.598488,9.36819 -0.354993,2.19499 4.994541,2.14299 4.554501,-4.85333 -0.04868,-2.40086 -0.135623,-4.59609 -0.956013,-4.51486 z m 4.337576,-0.402 c -2.95168,0.73367 -1.955232,10.3769 0.326968,11.4052 5.26869,2.31016 3.228041,-10.10869 -0.326968,-11.4052 z m 11.447631,9.78238 c 3.92028,5.02007 3.26443,8.0632 6.42751,5.17643 8.75563,-1.35562 -4.79605,-1.90835 -6.42751,-5.17643 z" /></svg>
