<svg xmlns="http://www.w3.org/2000/svg" xml:space="preserve" width="600.65" height="106.698" viewBox="0 0 158.922 28.231"><path d="M112.029 7.807c-.595-2.403-1.304-2.853-4.07-2.958-2.015-.08-4.02-.41-6.127-.64l-.275-1.604c-1.08-.05-2.157-.138-3.233-.135-.908 0-1.426-.302-1.35-1.273.074-.923-.41-1.172-1.267-1.196-.852-.02-1.336.196-1.318 1.122.019.99.005 1.977.005 3.106-.487 0-.862-.034-1.227.005-7.938.826-15.944-.05-23.845.64-8.794.77-17.568.93-26.368.94-2.056 0-4.112-.23-6.17-.363-.164-.01-.455-.063-.468-.134-.233-1.358-1.307-.892-2.072-.895-10.607-.01-21.214.01-31.822.024-1.841 0-2.288.291-2.402 2.07-.08 1.232.09 2.494.283 3.722.167 1.058 1.088 1.077 1.942 1.08 3.913.012 7.824.028 11.737.039q10.238.027 20.476.05h1.133c.492 2.622 2.974 4.9 4.937 4.25 1.143-.379 2.233-.858 3.384-.617.73.153 1.69.656 1.947 1.257.392.92.863 1.111 1.741 1.106 7.477-.045 14.954-.058 22.431-.08h1.99l.283 1.596h2.837c0 2.521.047 4.884-.022 7.247-.031 1.021.283 1.362 1.323 1.346 3.13-.05 6.263-.082 9.39.027 1.363.048 1.826-.386 1.622-1.677-.058-.37-.008-.76-.008-1.23 1.334.073 1.379-.68 1.506-1.705.211-1.717.18-3.662 2.323-4.508.37-.146.495-.902.846-1.609h7.224c.047.675.119 1.215.119 1.754.005 1.405 1.137 2.736 2.542 2.757 2.826.045 5.652.05 8.478-.034 1.703-.053 2.7-1.37 3.066-3.927 1.582.604 3.12 1.196 4.662 1.776 1.505.563 2.305 2.437 4.172 2.381.22.46.448 1.037.76 1.566.854 1.45 1.773 2.863 2.611 4.321.402.693.823.995 1.678.733 1.116-.344 2.28-.53 3.42-.794q1.612-.373 1.086-1.976c-.067-.201-.13-.405-.318-.99 2.694 0 5.234.035 7.77-.01 1.768-.032 3.358.262 5.044 1 2.19.96 4.67 1.267 7.025 1.862a59 59 0 0 1 2.132.577c1.42.413 1.815.217 2.275-1.222.826-2.585 1.546-5.207 2.474-7.755.963-2.64.506-5.265.204-7.9-.106-.935-.701-1.281-1.73-1.31-2.59-.072-5.176-.426-7.769-.48-5.172-.108-10.347-.174-15.517-.06-1.323.03-2.62.839-3.95 1.214-.815.23-1.667.413-2.511.458-1.432.074-2.871-.029-4.303.032-2.185.09-4.214-.048-6.162-1.381-1.225-.839-2.897-1.035-4.566-1.582zm-2.635 8.778c.807 0 1.585-.058 2.344.032.28.035.733.413.74.648.086 2.305.048 3.461-2.825 3.53a116 116 0 0 1-7.04-.071c-.548-.022-1.162-.31-1.607-.651-1.187-.913-.836-2.196-.772-3.45 2.532 0 4.966 0 7.398.005.166 0 .333.06.72.135-.117 1.166-.228 2.315-.355 3.582 1.35-.942 1.153-2.37 1.397-3.757zm15.081-1.785c1.228 0 2.265-.093 3.273.034.603.077 1.455.339 1.693.783 1.106 2.072 2.39 3.657 5.093 3.17.673-.122 1.384-.024 2.08-.027 2.085-.01 3.112.725 3.86 2.834-1.323 0-2.619.04-3.913-.01-1.283-.05-2.598-.432-3.836-.247-2.53.379-3.972-.815-5.033-2.836-.079-.15-.174-.323-.31-.41-.423-.273-.87-.51-1.407-.82.746-1.125-.722-1.474-1.5-2.472m28.337 4.94q-.074 1.854-1.76 1.867c-1.518.013-3.063-.148-4.548.077-2.847.426-4.955-.365-6.217-3.03-.106-.224-.318-.4-.469-.582 1.254-1.709 3.122-1.402 4.779-1.24.672.066 1.365 1.05 1.836 1.756.6.905 1.302 1.239 2.37 1.17 1.331-.085 2.67-.021 4.009-.021zM45.88 9.983c-.26 1.39-1.874 1.868-4.15 1.326V9.984zm105.54 15.711c-1.459-.373-2.845-.725-4.231-1.08q.024-.081.05-.169h4.6c-.153.455-.269.8-.422 1.246z"/></svg>