<svg xmlns="http://www.w3.org/2000/svg" xml:space="preserve" width="317.5" height="109.753" viewBox="0 0 84.005 29.039"><path d="m50.778 7.46.12.119v.08l1.157.957.04.04 1.037 1.276.04.08.478 1.077.12.04.12.12 5.664 13.761 21.22-8.376V6.86H49.542zM38.692 5.106l.08.08.279.398.04.08 6.302.08.28-.24v-.08l.08-.398.079-.12-.399-.438-.04-.08H39.25l-.399.319zM2.075 3.15v-.12h.439l.2-.319.12-.16.039-.039h.519V.678L4.667.04l.04-.04.08.04.877.08.4.08.238.08.08.079v.08l.04.16-.04 1.914h28.161l.28-.24.08-.04.12.08.079.2h2.473v-.16l.04-.04v-.279l.08-.04.438-.359.08-.04.16-.04h1.875l.398-.08.2.08h2.872l2.034-.04V.52h.24v-.16h.04v-.08h.398v1.277l1.037.12.2.119h.04l.12.04.199.2.08.159-.04.16v.04l.08.358h32.708l-.08-.2.08-.159.16-.08h2.154l.16.08.079.16-.04.12.04.08v.478l.518.359.08.08v2.154l-.04.2-.16.079-.119-.08h-.28v.958l-.079.199-.16.08h-1.276v9.653l-.04.2-.12.04-.04.159-.119.12-21.38 8.336.598.479.08.12v.159l-.08.12-.758.638.24.359v.279l-.08.08-1.676 1.037h-.16L57.2 28.64l-.12-.12-.16-.12-.398-.677-.04-.12.04-.16.08-.08.558-.398-5.943-14.16-.957-1.357.08.04-.679-.638-.08-.12-.797-.28-.639-.04v.52l-.04.159-.04.16-.159.04h-.798v.438l-.08.16-.12.08q-.119 0-.159-.08l-.04-.04h-1.156v4.866h.12l.159.08.08.16v.877l-.08.2-.16.04-.12-.04h-1.595l-.16-.08-.08-.16v-.837l.08-.16.16-.08h.12v-4.866H42.72l-.12-.04-.04 1.635-.04.16q-.08.08-.16.08l-4.706-.08-.08-.04v-2.234h-.758l-.04-.04h-1.675l.24.559h-1.317l-.2-.559h-17.75l-2.553.28-1.994-.28H2.792l-.16-.04-.04-.12-.119-.079-.08-.16.08-3.909H1.316v-.12L.44 6.9l-.08-.04-.08-.079-.12-.678L0 4.787q0-.758.399-1.436v-.08l.08-.04z"/></svg>