<svg id="Layer_1" data-name="Layer 1" xmlns="http://www.w3.org/2000/svg" viewBox="0 0 466.22 604.68">
  <g id="k2X6YV.tif">
    <g>
      <path class="cls-1" d="m239.24,25.03c8.38.94,16.48,1.27,24.32,2.88,9.73,2.01,12.48,10.03,7.22,18.61-.78,1.26-1.12,2.99-1.11,4.5.08,30,.24,60,.43,89.99,0,1.38.29,2.81.71,4.14,1,3.19,1.23,5.93-2.36,7.84-.89.47-1.62,2.14-1.62,3.26-.12,41.33-.16,82.65-.16,123.98,0,30.24.03,60.48.12,90.72.14,45.49.37,90.99.53,136.48.06,17.14,0,34.27.05,51.41,0,1.07.19,2.37.8,3.17,4.96,6.42,2.97,12.68-4.73,15.29-17.04,5.77-34.55,4.94-52.07,3.81-2.04-.13-4.02-1.15-6.01-1.81-6.39-2.11-8.26-8.87-4.22-15.24,1-1.58,1.05-3.94,1.05-5.95-.04-24.93-.2-49.85-.27-74.78-.06-19.96-.05-39.92-.08-59.88-.03-20.93-.11-41.86-.11-62.79.01-48.81.08-97.61.08-146.42,0-18.4-.16-36.79-.18-55.19,0-2.19-.14-3.76-2.8-4.4-2.65-.63-2.54-2.81-2.1-5.16.79-4.19,1.75-8.44,1.76-12.67.1-24.16-.05-48.31-.11-72.47,0-3.35.18-6.7.01-10.03-.08-1.51-.45-3.23-1.3-4.44-3.97-5.67-4.05-13.42,1.14-17.31,3.28-2.46,7.87-3.72,12.05-4.35,9.68-1.45,19.47-2.19,28.97-3.19Z"/>
    </g>
  </g>
</svg>