<svg id="Layer_1" data-name="Layer 1" xmlns="http://www.w3.org/2000/svg" viewBox="0 0 741.22 768.07">
  <g id="xjsEQu.tif">
    <g>
      <path class="cls-1" d="m438.34,464.75c-.21,4.36-.67,10.01-.71,15.66-.1,16.17-.27,32.35.05,48.51.27,13.91,1.33,27.8,1.76,41.7.32,10.42,1.71,21.12-.07,31.23-3.61,20.52-1.06,41.02-1.89,61.49-.17,4.31-2.48,6.64-6.29,7.17-5.69.8-8.54,3.29-7.3,9.32.87,4.22-1.3,6.86-5.08,7.74-7.77,1.82-15.6,4.23-23.48,4.57-11.1.48-22.29-.41-33.4-1.31-4.98-.4-10.12-1.62-14.66-3.66-2.77-1.25-4.53-4.75-7.01-7.55-8.59,1.07-18.43,3.27-28.27,3.28-13.08.01-26.19-1.36-39.21-2.84-4.11-.47-8.91-1.62-10.54-7.11-.33-1.1-3.34-1.76-5.18-1.97-9.28-1.06-18.7-1.29-27.85-2.99-10.88-2.03-10.59-2.66-10.72-13.69-.36-29.52-1.18-59.03-1.43-88.54-.11-13.05.92-26.11,1.05-39.17.25-24.14.2-48.28.3-72.43.06-15.32.24-30.63.22-45.95-.02-16.66-.24-33.32-.33-49.98-.05-10.64.06-21.27-.04-31.91-.19-20.99-.72-41.97-.68-62.96.05-25.2.5-50.4.86-75.6.07-5.09,4.33-6.38,8.01-7.18,6.42-1.4,12.99-2.51,19.54-2.83,6.15-.3,8.63-4.36,10.06-8.9,2.36-7.49,2.58-15.85,5.88-22.81,6.47-13.63,12.86-27.81,22.15-39.47,15.87-19.94,38.06-29.7,63.53-31.89,12.93-1.11,25.82-3.76,38.73-3.79,14.42-.03,28.91,1.61,43.26,3.43,18.65,2.37,37.76,4.17,54.5,13.47,11.35,6.31,22.25,13.94,31.97,22.55,17.66,15.63,28.89,35.96,38.43,57.33,3.5,7.84,8.6,14.95,12.46,22.65,10.73,21.4,14.79,44.4,15.23,68.1.33,17.79,1,35.64.02,53.38-1.15,20.94-1.71,42.32-6.63,62.51-4.38,17.94-7.52,37.23-19.21,52.67-17.26,22.78-38.72,39.73-68.54,40.79-16,.57-32.11-1.87-49.5-3.04Zm9.91-33.63c1.42.58,2.49,1.24,3.65,1.46,18.77,3.51,36.93,1.17,52.46-9.88,11.92-8.48,22.33-19.17,32.93-29.38,7.77-7.49,11.98-16.49,14.22-27.72,5.27-26.48,6.7-53.21,8.64-79.95.67-9.31,1.47-18.78.54-28-.84-8.29-4.35-16.27-6.05-24.51-3.53-17.1-12.4-31.74-21.19-46.31-14.4-23.87-35.19-38.54-63.16-42.99-25.81-4.1-44.96,8.26-62.56,24.33-2.13,1.94-1.48,7.59-.98,11.37.17,1.26,3.79,2.44,6,2.98,7.74,1.89,15.61,3.3,23.3,5.38,1.44.39,3.15,2.96,3.23,4.6.25,5.08-.52,10.21-.36,15.31.54,17.65,1.41,35.3,1.92,52.95.29,10.1.43,20.22.12,30.31-.55,18.18-1.47,36.34-2.27,54.51-.54,12.15-1.03,24.24,5.84,35.2,1.16,1.85,1.5,4.24,2.08,6.42,3.84,14.45,4.29,29.07,1.68,43.92Zm40.53-296.29c-1.2-1.3-1.86-2.55-2.89-3.04-10.51-5-20.74-10.92-31.73-14.52-11.98-3.93-24.61-7.51-37.07-7.9-13.27-.42-26.82,2.3-39.96,5.03-21.87,4.55-33.08,20.43-39.51,40.45-1.68,5.24,2.47,10.17,7.76,10.78,7.72.89,15.49,1.89,22.99,3.81,2.88.74,6.88,3.92,7.2,6.41.63,4.81,2.92,5.07,5.42,5.04,6.04-7.48,11.65-14.24,17.05-21.17,2.73-3.51,4.55-7.87,7.7-10.88,14.28-13.63,32.12-17.01,51-16.37,10.41.35,20.8,1.5,32.03,2.36Zm-197.72,47.26c.34-1.18,1.18-2.75,1.15-4.32-.08-4.79,2.53-7.59,6.75-8.23,7.29-1.12,9.3-6.28,11.08-12.26,4.25-14.29,11.61-26.76,23.64-35.82,8.95-6.74,18.31-12.97,27.75-19.04,8.88-5.71,18.06-10.93,27.16-16.29,1.77-1.04,3.74-1.74,5.92-2.73-.99-.79-1.33-1.28-1.63-1.26-14.79.86-29.72.74-44.31,2.96-13.52,2.06-27.1,5.97-38.46,14.08-23.74,16.95-37.93,40.55-44.15,68.76-.74,3.34,2.66,9.95,5.74,11.26,5.71,2.43,12.6,2.05,19.36,2.89Zm104.27-84.77c57.2-2.31,100.69,25.85,140.77,61.95-12.75-17.11-28.45-31.05-45.11-44.07-13.65-10.67-30.05-15.68-45.27-23.16-18.11-8.9-34.16-2.86-50.39,5.28Zm87.59,1.04c11.57,8.77,23.13,17.53,34.7,26.3-9.07-12.14-20.33-21.32-34.7-26.3Zm-166.06,66.02c8.85,1.86,12.57-3.46,11.16-16.49-4.08,6.02-7.39,10.92-11.16,16.49Z"/>
    </g>
  </g>
</svg>