<svg id="Layer_1" data-name="Layer 1" xmlns="http://www.w3.org/2000/svg" viewBox="0 0 425 783.24">
  <g id="wxged0.tif">
    <g>
      <path class="cls-1" d="m425,151.28v2.44c-1.9,2.41-3.75,4.86-5.71,7.22-7.87,9.5-14.11,20.41-24.27,27.89,3.7,7.32,3.68,7.88-2.6,13.65-2.88,2.64-6.06,4.96-9.15,7.37-1.77,1.38-3.61,2.65-6.39,4.69,6.26-.05,8.26,3.22,9.68,7.5,1.74,5.25,4.02,10.32,5.94,15.52,4.29,11.62,9.09,23.09,8.29,35.94-.23,3.74.04,7.66.93,11.29,3.71,15.13,7.66,30.2,11.7,45.24,1,3.73,2.95,7.21,4,10.94,1.09,3.86,1,8.14,2.5,11.79,3.62,8.79,2.32,16.52-3.6,23.67-1.08,1.31-2.3,2.95-3.76,3.37-1.25.36-2.95-.81-5.3-1.59.68,5.2,1.07,10.14,2.04,14.96.77,3.79.34,7.08-1.83,10.34-1.37-.33-2.63-.63-4.17-1-.71,2.15-1.12,4.29-2.09,6.14-2.02,3.88-6.09,7.04-3.91,12.26.08.19-.06.56-.21.76-3.48,4.58-6.6,9.54-10.62,13.59-2.46,2.47-6.3,3.58-9.56,5.23-3.05,1.54-5.29.44-5.59-3.03-.16-1.79.47-3.68.93-5.48.46-1.81.95-3.67,1.77-5.33,1.21-2.45,2.31-5.22,4.24-6.99,2.67-2.44,3.1-5.36,2.93-8.39-.07-1.3-1.79-2.5-2.76-3.75-.84,1.13-1.58,2.36-2.54,3.38-1.24,1.32-2.6,3.43-3.99,3.5-1.93.1-5.48-1.16-5.64-2.23-.68-4.62-1.31-9.63-.15-14.01,1.03-3.88,1.42-7.18-.14-10.73-3.29-7.49-4.54-15.15-2.19-23.59-5.77,0-7.76-4.27-9.61-8.73-2.53-6.09-4.8-12.31-7.74-18.2-9.66-19.37-19.64-38.58-29.29-57.96-.89-1.79-.29-4.32-.36-6.51-.1-3,.76-6.49-.49-8.88-2.28-4.33-5.65-8.14-8.91-11.86-.95-1.08-3.1-1.09-4.48-1.52,5.1,11.98,9.95,23.46,14.89,34.89,1.07,2.47,1.22,4.43-.89,6.57-6.04,6.13-11.51,12.86-17.94,18.53-3.72,3.28-2.14,5.48-.55,8.64,1.57-1.1,2.85-2.4,4.4-3,2.98-1.17,7.16-3.59,8.93-2.47,2.18,1.38,2.54,5.81,3.45,8.98,3.95,13.8,8.45,27.49,11.53,41.48,2.5,11.38,3.39,23.14,4.77,34.75.7,5.89,1.01,11.76,5.53,16.39,1.01,1.04,1.66,2.85,1.72,4.33.21,5.47-1.08,10.67,1.52,16.36,3.88,8.49-1.13,16.27-5.56,23.22-2.16,3.39-6.51,5.32-9.61,8.19-1.3,1.2-2.74,3.14-2.72,4.72.09,6.19.7,12.38,1.2,18.57.08,1.05.34,2.18.86,3.07,4.72,8.16,9.38,16.36,14.41,24.32.92,1.45,3.44,2.65,5.22,2.64,3.92-.02,7.27,1.04,9.94,3.71,5.99,5.98,10.84,12.7,12.4,21.3.16.91.11,2.16.67,2.64,4.6,3.86,4.86,8.84,4.33,14.29-.29,2.94-1.12,4.96-4.24,5.43-2.22.34-2.9,1.61-3.28,3.82-1.39,8.05-2.98,16.08-4.85,24.03-.44,1.89-1.89,4.25-3.52,5.03-4.01,1.92-4.87,4.81-4.62,8.82.96,15.5,1.4,31.04,2.77,46.5.77,8.64,2.8,17.19,4.62,25.7,1.71,7.98,4.32,15.78,5.75,23.8,1.39,7.81,2.17,15.78,2.53,23.7.53,11.57.47,23.16.57,34.74,0,1-.37,2.5-1.08,2.95-5.5,3.43-10.76,8.04-16.79,9.61-8.34,2.17-17.28,2.46-25.99,2.71-14.21.4-28.45.39-42.66,0-8.84-.24-17.67-1.4-26.47-2.37-4.11-.45-6.17-3.36-5.27-7.24,1.99-8.61,3.65-17.34,6.44-25.7,3.14-9.41,7.89-18.07,16.4-24.02,1.69-1.18,3.06-2.82,5.26-4.9-2.78-.22-4.57-.44-6.36-.48-3.81-.1-7.62-.23-11.42-.06-.58.03-1.56,1.6-1.55,2.44.09,4.67-2.58,5.87-6.51,5.36-2.88-.38-5.83-.8-8.5-1.84-1.03-.4-2.04-2.62-1.93-3.9.58-6.57,1.51-13.11,2.37-19.65,1.78-13.5,4.99-26.98.15-40.51-.26-.72-.08-1.62,0-2.42.41-3.61,1.5-7.27,1.17-10.81-.82-8.83-1.75-17.71-3.57-26.37-3.41-16.25-7.77-32.3-11.12-48.56-1.14-5.54-1.15-11.56-.39-17.18,1.11-8.19,4.71-15.91,4.21-24.5-.34-5.91.24-11.9.65-17.83.1-1.42.77-3.46,1.82-4.04,2.16-1.19,3.46-2.44,2.99-4.97-.55-2.95-2.84-2.43-4.97-2.7-1.4-.18-3.52-1.07-3.85-2.11-.8-2.51-.59-5.33-1.05-7.97-1.39-7.9-2.76-15.81-4.43-23.66-.8-3.78-2.49-7.37-3.37-11.15-1.81-7.79-4.47-15.6-.52-23.57.44-.88.32-2.16.15-3.21-.93-5.7-2.46-11.35-2.77-17.08-.22-4.08-4.46-8.72,1.08-12.27-.94-1.63-1.62-3.13-2.59-4.41-4.21-5.61-4.66-5.64-8.97-.32-1.24,1.53-2.1,3.36-3.14,5.05h1.45c.39,2.09,1.26,4.21,1.06,6.23-.42,4.26-1.61,8.43-2.11,12.69-.79,6.68-3.34,13.39.35,20.1.69,1.26.43,3.25.12,4.8-1.1,5.51-2.23,11.03-3.68,16.46-1.97,7.35-4.52,14.56-6.28,21.95-1.14,4.81-1.49,9.84-1.88,14.8-.26,3.3-1.43,4.66-4.83,3.83-2-.49-4.19.02-4.04,2.43.1,1.66,1.34,4.2,2.64,4.63,2.71.89,2.7,2.54,2.75,4.65.24,9.61.52,19.22.83,28.82.03.92.15,1.9.51,2.74,6.34,15.03,3.76,30.21-.16,45.04-4.36,16.49-9.14,32.84-10.81,49.87-.37,3.75.47,7.6.46,11.41,0,3.73-.19,7.49-.65,11.19-.27,2.14-1.77,4.18-1.81,6.28-.27,14.89,1.47,29.62,4.14,44.25.53,2.91.83,5.89.91,8.85.13,4.9-4.57,2.94-6.79,4.53-.22.16-.41.37-.64.5-4.36,2.47-8.55.61-9.69-4.14-.7-2.92-.95-6.15-5.6-5.76-5.06.42-10.17.1-15.26.1-.22.38-.44.76-.66,1.14.86,1.1,1.58,2.36,2.61,3.27,4.03,3.58,8.95,6.46,12.11,10.68,9.63,12.84,13.73,27.84,15.24,43.66.41,4.26-1.72,6.36-5.43,7.05-5.68,1.05-11.39,2.21-17.13,2.54-10.22.6-20.49,1.06-30.72.78-13.72-.38-27.43-1.4-41.12-2.45-2.97-.23-7.06-.86-8.52-2.86-3-4.11-7.54-5.42-11.14-8.28-1.13-.9-2.76-1.98-2.91-3.14-.79-6-1.74-12.08-1.57-18.1.24-8.89,1.22-17.77,2.18-26.62.94-8.69,1.05-17.73,3.69-25.91,4.36-13.51,7.36-27.04,8.79-41.19,1.54-15.25,2.31-30.44,2.23-45.73-.01-2.98-1.03-4.9-3.64-6.09-2.84-1.29-4.11-3.6-4.65-6.58-1.3-7.26-2.58-14.52-4.19-21.71-.38-1.68-1.8-4.15-3.11-4.42-4.06-.82-4.43-3.59-4.84-6.73-.63-4.79.27-9.03,3.61-12.74,1-1.11,1.61-2.81,1.85-4.33,1.29-7.99,6.11-14.01,11.19-19.75,3.08-3.48,7.07-5.62,12.18-5.27,1.59.11,4.01-1.1,4.84-2.46,4.75-7.67,9.15-15.56,13.6-23.41.44-.77.56-1.79.61-2.7.36-6.43.22-12.94,1.16-19.28.51-3.47-.38-5.35-3.25-6.28-7.38-2.4-11.94-8.28-14.25-14.66-1.83-5.03-1.29-11.66.28-16.96,1.12-3.78,1.81-7.31,1.08-10.84-.72-3.49-.05-6.38,2.24-8.55,3.95-3.74,4.05-8.55,4.66-13.32,1.52-12,2.14-24.21,4.8-35.96,3.72-16.45,8.97-32.55,13.54-48.81.81-2.87,2.27-3.29,4.75-1.72,3,1.91,6.14,3.6,9.52,5.57.84-2.21,1.47-3.9,2.05-5.42-5.09-5.27-9.92-10.29-14.77-15.29-4.09-4.21-8.89-8.14-5.33-15.31-1.19,1.16-1.93,2.23-2.49,3.39-10.78,22.05-21.64,44.06-32.23,66.2-2.26,4.72-4.03,9.44-9.9,10.02,1.11,6.78,1.23,13.02-1.16,19.32-1.33,3.5-2.84,7.9-1.81,11.11,1.46,4.58.55,8.76.55,13.12,0,2.47.3,5.23-3.07,5.65-3.11.38-6.36.66-7.21-3.78-.16-.82-1.61-1.97-2.41-1.92-.87.05-2.44,1.38-2.38,2.03.25,2.67.1,6.38,1.73,7.73,6.09,5.05,5.78,12.41,7.76,18.87,1.01,3.29-2.35,5.46-5.41,3.94-1.93-.96-3.88-1.89-5.69-3.05-7.8-5.02-14.47-10.83-14.23-21.26,0-.4,0-.86-.18-1.19-2.36-4.11-4.76-8.2-7.25-12.47-.81.34-1.88.8-3.26,1.39-1.73-3.56-2.85-6.84-1.9-10.88,1.02-4.36,1.25-8.91,1.94-14.26-4.79,2.54-7.05.84-8.8-2.44-1.53-2.85-3.34-5.55-4.88-8.39-.61-1.14-1.38-2.6-1.15-3.72,1.79-8.64,3.48-17.33,5.84-25.82,2.65-9.53,6.57-18.72,8.86-28.32,3.2-13.43,7.91-26.65,6.96-40.84-.19-2.92,0-6.1.94-8.83,4.79-13.93,9.79-27.79,15-41.57.57-1.5,2.98-3.38,4.41-3.28,3.81.25,5.72-1.38,7.1-4.55.7-1.59,1.66-3.11,2.72-4.5,1.87-2.44,1.11-3.93-1.2-5.58-5.7-4.09-11.16-8.51-16.87-12.58-1.26-.9-3.51-1.7-4.68-1.17-2.95,1.33-4.73.02-6.33-1.89-4.61-5.47-9.16-11.01-13.62-16.61-3.92-4.92-7.7-9.97-11.98-15.53,1.26-.9,2.18-1.49,3.02-2.16,5.14-4.11,5.25-4.18,1.75-9.77-1.49-2.38-1.14-3.51,1.22-5.07,17.19-11.39,34.24-22.98,51.38-34.45,12.74-8.53,26.62-15.56,35.77-28.64,1.55-2.22,4.13-3.4,7.46-2.64,5.49,1.24,11.18,1.57,16.66,2.84,3.42.79,7.56-.07,9.77,4.35,3.92,7.83,8.33,15.41,12.56,23.08.49.9,1.15,1.7,1.94,2.86.78-3.78,1.35-6.8,2.03-9.81,2.4-10.56,8.01-19.03,16.71-25.45,1.75-1.29,2.44-2.57,1.54-5.07-1.97-5.49-2.58-11.19-1.09-17.07.54-2.13.1-4.62-.37-6.85-.68-3.2-1.81-6.29-2.72-9.44-.29-1-.21-2.29-.82-3-2.36-2.74-.89-4.57,1.52-6.92v8.81c5.19-5.55,10.13-6,15.75-1.23.25-2.79.45-4.96.64-7.09,4.27,2.81,1.15,6.5.86,9.88,7.1-8.62,1.6-19.33,5.24-28.52,2.44,8.04-.39,16.7,2.36,24.15,5.75-2.4,10.93-4.48,16.01-6.77.98-.44,1.91-1.6,2.3-2.64,1.48-3.91,4.63-4.95,8.28-5.16,4.6-.26,8.72.19,11.16,5.21.81,1.67,3.51,2.43,5.38,3.56,4.07,2.48,8.75,4.31,12.1,7.53,6.53,6.27,9.65,14.4,10.27,23.53.2,2.89.63,6.5,2.43,8.38,4.07,4.26,9.02,7.69,13.66,11.4,8.97,7.18,12.77,17.06,14.76,27.93.24,1.32,1.06,2.53,1.61,3.78,1.18-.89,2.78-1.53,3.48-2.7,4.19-7.11,8.01-14.44,12.33-21.46,1.1-1.78,3.39-3.43,5.42-3.91,6.11-1.46,12.46-1.96,18.54-3.53,5-1.29,8.4,0,11.82,3.69,4.74,5.13,9.49,10.55,15.18,14.46,23.07,15.82,46.46,31.17,69.84,46.53,3.03,1.99,3.63,3.79,1.3,6.37-2.91,3.22-1.7,5.48,1.41,7.47,1.22.78,2.46,1.54,3.69,2.3ZM164.46,65.14c3.78-4.67,10.21-5.56,10.16-12.3-.04-5.06.52-10.13.88-16.25-4.63,4.61-11.75,3.9-13.27,10.87-1.3,5.97.52,11.3,2.24,17.67Zm-54.28,208.86c3.86-7.78,7.7-15.51,11.6-23.39-8.28,3.47-14.41,16.18-11.6,23.39Zm248.69-31.04c1.74,3.59,3.14,6.5,4.54,9.4.26-.09.53-.17.79-.26.15-3.52.31-7.03.49-11.22-2.3.82-3.84,1.37-5.83,2.08Zm10.73-23.97c-8.05,1.9-8.63,3.16-4.53,10.52.23-4.45-.12-8.64,4.53-10.52Zm-309.14,1.66c.24,3.12.5,6.49.81,10.5,3.96-8.39,3.87-8.94-.81-10.5Zm268.14-66.24c-1.38-.68-2.38-1.17-3.34-1.64q-3.21,4.3-.46,6.96c1.17-1.63,2.31-3.24,3.8-5.32Z"/>
    </g>
  </g>
</svg>